<svg xmlns="http://www.w3.org/2000/svg" xml:space="preserve" viewBox="120 60 233 262"><g fill="#577138" data-iconColor="ArangoDB"><path d="M358.957 188.607c-4.676-15.588-15.121-27.591-24.473-40.373-17.771-24.005-40.842-37.254-62.041-37.411-40.685-.78-69.366 17.77-81.681 46.919-1.558 3.741-3.585 5.301-7.327 6.081-13.562 3.117-27.122 6.235-39.75 12.626-8.573 4.365-17.302 8.417-22.758 16.835-6.859 10.6-6.079 21.823-3.43 33.516 6.859 28.992 24.474 46.92 53.623 53.465 17.927 3.898 35.384 3.431 51.753-5.923 10.289-5.768 18.549-14.027 26.656-22.448 2.026-2.181 3.585-2.648 6.235-1.401 4.987 2.496 9.977 4.832 14.964 7.327 15.9 7.95 32.112 14.495 50.35 13.405 28.994-1.715 46.297-21.2 44.427-49.571-.624-11.222-3.274-22.134-6.548-33.047m-107.401 39.438c-17.459 11.69-35.541 21.824-56.429 26.031-6.703 1.404-13.406 1.872-17.927 1.56-16.835 0-31.019-1.712-43.491-10.287-14.652-10.29-20.887-32.736-12.47-48.479 2.65-5.145 7.171-8.886 12.159-11.848 17.303-10.756 36.632-15.744 56.274-19.796 20.419-4.365 41.151-9.041 62.508-8.885 10.288 0 19.484 4.053 26.031 12.314 5.768 7.482 4.054 15.899 1.248 23.85-5.457 14.965-14.81 26.81-27.903 35.54M357.71 240.83c-6.547 16.366-20.421 21.822-36.164 24.158-16.835 2.495-30.708-5.455-45.049-12.158-4.677-2.181-9.198-4.987-14.029-6.856-4.209-1.56-4.833-3.119-1.403-6.079 5.301-6.703 10.6-13.406 14.809-20.891 5.145-11.066 8.262-22.757 8.262-35.071 0-19.018-10.133-27.435-29.306-29.618-3.741-.467-7.639-.156-11.536-.156-12.938.936-25.876 2.963-38.658 5.301-2.65-.156-5.923 2.962-7.639.156-1.246-2.026 1.871-4.521 3.273-6.703 9.354-16.211 23.382-26.188 40.997-31.8 15.432-4.832 30.709-5.923 46.607-1.714 13.095 3.429 22.447 11.379 31.021 20.888 10.6 11.69 20.264 23.85 28.058 37.412 7.639 13.25 11.536 27.434 12.628 42.554.312 7.012.935 13.873-1.871 20.577"/><path d="M299.412 256.728c11.533 4.987 23.069 4.052 34.448-.155 13.874-5.145 20.421-15.743 21.356-29.931 1.247-19.952-4.989-37.722-16.367-53.778-7.172-10.132-14.498-20.42-22.915-29.617-11.536-12.47-25.253-20.265-42.712-20.732-18.082-.468-34.917 3.742-50.037 13.562-8.418 5.455-15.433 12.938-18.55 23.07 12.782-2.338 25.72-4.365 38.658-5.3.78-.312 1.56-.936 2.339-.78 6.704.468 12.938-.936 19.329-3.117 7.482-2.65 14.498.312 20.421 4.675 12.782 9.51 21.667 21.512 21.667 38.191 0 12.002-10.444 25.875-25.252 24.939-2.026-.153-4.209-.309-6.08 1.094-4.053 7.639-9.508 14.183-14.809 20.886 4.988 5.144 12.004 5.926 18.082 8.73 6.548 3.429 13.719 5.459 20.422 8.263"/><path d="M346.954 177.697c-7.949-13.562-17.614-25.877-28.058-37.412-8.574-9.509-17.927-17.459-31.021-20.888-15.898-4.209-31.176-3.118-46.607 1.714-17.615 5.457-31.643 15.589-40.997 31.8-1.246 2.182-4.52 4.677-3.273 6.703 1.715 2.649 4.989-.312 7.639-.156 3.117-10.132 9.976-17.615 18.549-23.07 15.121-9.82 31.956-13.874 50.038-13.562 17.459.468 31.176 8.106 42.712 20.732 8.417 9.197 15.743 19.485 22.915 29.617 11.378 16.056 17.614 33.826 16.367 53.778-.936 14.185-7.482 24.787-21.356 29.93-11.379 4.208-22.915 5.144-34.448.156-6.703-2.808-13.719-4.835-20.266-8.107-6.078-2.96-13.094-3.742-18.082-8.728-3.586 2.96-2.806 4.52 1.403 6.079 4.831 1.869 9.353 4.676 14.029 6.856 14.341 6.703 28.37 14.654 45.049 12.159 15.743-2.337 29.617-7.948 36.164-24.161 2.649-6.703 2.183-13.562 1.716-20.418-.937-15.588-4.834-29.773-12.473-43.022"/><path d="M279.303 192.505c2.806-7.951 4.52-16.368-1.248-23.85-6.547-8.417-15.587-12.314-26.031-12.314-21.2-.156-41.933 4.52-62.664 8.885-19.641 4.209-38.971 9.041-56.273 19.796-4.989 3.118-9.51 6.859-12.159 11.848-8.261 15.744-2.182 38.19 12.47 48.479 12.471 8.727 26.655 10.287 43.491 10.287 4.521.312 11.379-.312 17.926-1.56 20.889-4.207 38.97-14.341 56.429-26.031q20.107-13.094 28.059-35.54m-36.01 36.632c-14.808 8.886-29.773 17.46-47.075 20.576-14.03 2.492-28.371 3.275-42.4-.312-16.368-3.898-28.994-18.706-29.617-35.541-.312-9.198 4.209-16.679 11.224-22.604 10.912-9.197 23.85-14.028 37.568-16.991.311 0 .778.468 1.246.78 11.536-8.885 24.629-10.6 38.659-9.509 1.246-2.961 4.208-2.026 6.391-2.649 12.002-2.962 24.16-4.209 36.164-1.715 22.602 4.521 25.408 17.147 18.081 35.542-5.766 14.807-17.145 24.472-30.241 32.423"/><path d="M281.797 217.914c14.808.936 25.252-12.939 25.252-24.941 0-16.679-8.885-28.682-21.667-38.191-6.079-4.364-12.938-7.325-20.421-4.676-6.391 2.182-12.625 3.585-19.329 3.118-.779 0-1.559.624-2.339.78 3.897 0 7.638-.312 11.536.154 19.173 2.184 29.306 10.6 29.306 29.619 0 12.314-3.117 24.004-8.262 35.074 1.715-1.096 3.742-1.096 5.924-.937"/><path d="M255.453 161.328c-12.004-2.494-24.318-1.09-36.164 1.715-2.184.468-5.145-.312-6.391 2.65 13.716 2.649 24.316 10.132 31.487 22.134 5.923 9.822 4.365 19.33-4.675 26.967-9.51 8.263-20.889 12.159-33.358 13.562-16.679 1.871-31.645-3.116-45.674-11.69-3.897-2.339-4.988-5.457-4.52-9.665 1.558-13.25 8.261-23.538 18.082-31.956-.468-.312-.936-.78-1.246-.78-13.718 2.963-26.656 7.794-37.568 16.991-7.015 5.924-11.536 13.406-11.224 22.604.624 16.679 13.406 31.488 29.617 35.541 14.186 3.428 28.371 2.804 42.4.312 17.146-3.116 32.267-11.69 46.92-20.576 13.094-7.951 24.473-17.615 30.24-32.111 7.482-18.551 4.676-31.177-17.926-35.698"/><path fill="#5e3108" d="M156.157 207.002c-.468 4.053.623 7.325 4.52 9.665 14.029 8.574 28.995 13.562 45.674 11.69 12.314-1.403 23.849-5.299 33.358-13.562 8.885-7.637 10.599-17.146 4.675-26.967-7.326-12.002-17.771-19.485-31.487-22.134-13.874-1.092-27.124.624-38.659 9.508-9.976 8.418-16.678 18.706-18.081 31.8"/></g></svg>