<svg xmlns="http://www.w3.org/2000/svg" viewBox="0 0 14 14"><g fill="#2684ff" fill-rule="evenodd" data-iconColor="Bitbucket Pipelines"><path fill="none" d="M5.495 8.496h2.9l.7-4.195H4.724z"/><path d="M.45 0a.44.44 0 0 0-.342.158.47.47 0 0 0-.102.371l1.886 11.755a.61.61 0 0 0 .592.518h9.05c.22.003.41-.16.445-.384L13.866.531a.47.47 0 0 0-.102-.37.44.44 0 0 0-.343-.159zm7.945 8.496h-2.89L4.725 4.3h4.37z"/><path d="M13.266 4.301H9.095l-.7 4.195h-2.89l-3.41 4.155c.108.096.246.15.389.15h9.053c.22.004.41-.16.444-.383z"/></g></svg>