<svg xmlns="http://www.w3.org/2000/svg" viewBox="0 0 64 64"><path d="M12.66 5c-1.4 1.4 0 2.8-.7 5.6-.544 2.179-1.445 5.2-1.821 7.755L7.4 16.301a1.5 1.5 0 0 0-.98-.313A1.5 1.5 0 0 0 5.6 18.7l4.402 3.3H6.5c-.831 0-1.5.669-1.5 1.5S5.669 25 6.5 25h2.77l-3.565 2.229a1.5 1.5 0 1 0 1.59 2.542l4.387-2.742c.105.18.205.365.318.537v1.454a4.2 4.125 0 0 0-2.75 1.384A5.6 8.938 0 0 0 4 39.313a5.6 8.938 0 0 0 2.809 7.736A4.2 4.125 0 0 0 11 51a4.2 4.125 0 0 0 1-.123V59c0 1.108.892 2 2 2h36c1.108 0 2-.892 2-2v-8.123A4.2 4.125 0 0 0 53 51a4.2 4.125 0 0 0 4.191-3.951A5.6 8.938 0 0 0 60 39.313a5.6 8.938 0 0 0-5.25-8.909A4.2 4.125 0 0 0 52 29.025v-1.52c.103-.158.195-.328.291-.493l4.414 2.76a1.5 1.5 0 1 0 1.59-2.543L54.73 25h2.77c.831 0 1.5-.669 1.5-1.5s-.669-1.5-1.5-1.5h-3.502l4.402-3.3a1.5 1.5 0 0 0-.865-2.714 1.5 1.5 0 0 0-.935.315l-2.776 2.082c-.373-2.561-1.277-5.596-1.824-7.783-.7-2.8.7-4.2-.7-5.6-3.5 0-7.492 3.334-11.775 2.7C34.8 7 32 7 32 7s-2.8 0-7.525.7C20.192 8.333 16.16 5 12.66 5" opacity=".2"/><path fill="#c16d35" d="M12.66 4c-1.4 1.4 0 2.8-.7 5.6s-2 7-2 9.8C9.96 34.8 32 35 32 35s22-.2 22-15.6c0-2.8-1.3-7-2-9.8s.7-4.2-.7-5.6c-3.5 0-7.492 3.334-11.775 2.7C34.8 6 32 6 32 6s-2.8 0-7.525.7C20.192 7.334 16.16 4 12.66 4"/><path d="M22.5 12a5.5 5.5 0 1 0 0 11 5.5 5.5 0 0 0 0-11m19 0a5.5 5.5 0 1 0 0 11 5.5 5.5 0 0 0 0-11" opacity=".2"/><path fill="#fff" d="M12.66 4c-.688.689-.698 1.38-.615 2.234A2.03 2.03 0 0 1 12.66 5c3.5 0 7.532 3.334 11.815 2.7C29.2 7 32 7 32 7s2.8 0 7.525.7c4.283.634 8.276-2.7 11.776-2.7.395.396.556.795.615 1.223.082-.85.07-1.538-.615-2.223-3.5 0-7.493 3.334-11.776 2.7C34.8 6 32 6 32 6s-2.8 0-7.525.7C20.192 7.333 16.16 4 12.66 4m-.517 4.352A6.7 6.7 0 0 1 11.96 9.6c-.7 2.8-2 7-2 9.8 0 .184.017.354.023.534.125-2.785 1.314-6.681 1.977-9.334a7 7 0 0 0 .182-2.248m39.673.003A7 7 0 0 0 52 10.6c.663 2.653 1.852 6.549 1.977 9.334.006-.18.023-.35.023-.534 0-2.8-1.3-7-2-9.8a6.7 6.7 0 0 1-.184-1.245" opacity=".1"/><path fill="#fff" d="M22.5 11a5.5 5.5 0 1 0 0 11 5.5 5.5 0 0 0 0-11m19 0a5.5 5.5 0 1 0 0 11 5.5 5.5 0 0 0 0-11"/><path fill="#6b3a3a" d="M57.535 14.986a1.5 1.5 0 0 0-.935.315l-8 6a2 2 0 0 0-.13.11l-.066.066a2 2 0 0 0-.129.16l-.037.054a1.5 1.5 0 0 0-.11.204l-.023.058a1.5 1.5 0 0 0-.07.229l-.008.045a1.5 1.5 0 0 0-.025.25L48 22.5c0 .013.004.026.004.04a1.5 1.5 0 0 0 .025.247l.01.041a1.5 1.5 0 0 0 .072.235l.028.06a1.5 1.5 0 0 0 .109.201l.033.047a1.5 1.5 0 0 0 .147.178l.05.047a2 2 0 0 0 .149.12q.027.021.055.04l.023.015 8 5a1.5 1.5 0 1 0 1.59-2.542L54.73 24h2.77c.831 0 1.5-.669 1.5-1.5s-.669-1.5-1.5-1.5h-3.502l4.402-3.3a1.5 1.5 0 0 0-.865-2.714m-51.115.002A1.5 1.5 0 0 0 5.6 17.7l4.402 3.3H6.5c-.831 0-1.5.669-1.5 1.5S5.669 24 6.5 24h2.77l-3.565 2.229a1.5 1.5 0 1 0 1.59 2.542l8-5 .02-.013.06-.041a2 2 0 0 0 .154-.127l.002-.002q.04-.04.076-.08a2 2 0 0 0 .118-.145l.002-.002.043-.066a2 2 0 0 0 .09-.17l.013-.025q.013-.03.023-.06a1.5 1.5 0 0 0 .067-.22l.002-.006.006-.039a1.5 1.5 0 0 0 .029-.271V22.5l-.002-.01a1.5 1.5 0 0 0-.03-.283l-.005-.03a1.5 1.5 0 0 0-.07-.23l-.006-.015q-.012-.029-.026-.055a2 2 0 0 0-.095-.178l-.055-.08a2 2 0 0 0-.113-.139l-.077-.076a2 2 0 0 0-.12-.103l-.061-.045L7.4 15.3a1.5 1.5 0 0 0-.98-.313"/><path fill="#968427" d="M22.5 15a1.5 3 0 0 0-1.5 3 1.5 3 0 0 0 1.5 3 1.5 3 0 0 0 1.5-3 1.5 3 0 0 0-1.5-3m19 0a1.5 3 0 0 0-1.5 3 1.5 3 0 0 0 1.5 3 1.5 3 0 0 0 1.5-3 1.5 3 0 0 0-1.5-3"/><rect width="40" height="40" x="12" y="20" fill="#4f4f4f" rx="2" ry="2"/><path fill="#fff" d="M14 20c-1.108 0-2 .892-2 2v1c0-1.108.892-2 2-2h36c1.108 0 2 .892 2 2v-1c0-1.108-.892-2-2-2z" opacity=".1"/><path d="M12.4 29a4.2 4.125 0 0 0-.4.02v21.857a4.2 4.125 0 0 0 3.2-4.002 4.2 4.125 0 0 0-.946-2.605 5.6 8.938 0 0 0 .076-.182A4.2 4.125 0 0 0 18 40a4.2 4.125 0 0 0-2.734-3.865 4.2 4.125 0 0 0 1.334-3.01A4.2 4.125 0 0 0 12.4 29m39.2 0a4.2 4.125 0 0 0-4.2 4.125 4.2 4.125 0 0 0 1.334 3.01A4.2 4.125 0 0 0 46 40a4.2 4.125 0 0 0 3.67 4.088 5.6 8.938 0 0 0 .076.182 4.2 4.125 0 0 0-.945 2.605A4.2 4.125 0 0 0 52 50.877V29.025a4.2 4.125 0 0 0-.4-.025m-31.702.98a2 2 0 0 0-1.392 3.348L25.324 41l-6.818 7.672a2 2 0 1 0 2.988 2.656l8-9a2 2 0 0 0 0-2.656l-8-9a2 2 0 0 0-1.596-.692M32 48a2 2 0 1 0 0 4h12a2 2 0 1 0 0-4z" opacity=".2"/><path fill="none" stroke="#f2f2f2" stroke-linecap="round" stroke-linejoin="round" stroke-width="4" d="m20 31 8 9-8 9m24 0H32"/><path fill="#916f6f" d="M12.4 28a4.2 4.125 0 0 0-3.15 1.404A5.6 8.938 0 0 0 4 38.313a5.6 8.938 0 0 0 2.809 7.736A4.2 4.125 0 0 0 11 50a4.2 4.125 0 0 0 4.2-4.125 4.2 4.125 0 0 0-.946-2.605 5.6 8.938 0 0 0 .076-.182A4.2 4.125 0 0 0 18 39a4.2 4.125 0 0 0-2.734-3.865 4.2 4.125 0 0 0 1.334-3.01A4.2 4.125 0 0 0 12.4 28m39.2 0a4.2 4.125 0 0 0-4.2 4.125 4.2 4.125 0 0 0 1.334 3.01A4.2 4.125 0 0 0 46 39a4.2 4.125 0 0 0 3.67 4.088 5.6 8.938 0 0 0 .076.182 4.2 4.125 0 0 0-.945 2.605A4.2 4.125 0 0 0 53 50a4.2 4.125 0 0 0 4.191-3.951A5.6 8.938 0 0 0 60 38.313a5.6 8.938 0 0 0-5.25-8.909A4.2 4.125 0 0 0 51.6 28"/><path fill="#f9f9f9" d="M12.4 28a4.2 4.125 0 0 0-3.15 1.404A5.6 8.938 0 0 0 4 38.313a5.6 8.938 0 0 0 .016.498 5.6 8.938 0 0 1 5.234-8.407A4.2 4.125 0 0 1 12.4 29a4.2 4.125 0 0 1 4.166 3.637 4.2 4.125 0 0 0 .034-.512A4.2 4.125 0 0 0 12.4 28m39.2 0a4.2 4.125 0 0 0-4.2 4.125 4.2 4.125 0 0 0 .036.502A4.2 4.125 0 0 1 51.6 29a4.2 4.125 0 0 1 3.15 1.404 5.6 8.938 0 0 1 5.236 8.469 5.6 8.938 0 0 0 .014-.56 5.6 8.938 0 0 0-5.25-8.909A4.2 4.125 0 0 0 51.6 28m-35.721 7.422a4.2 4.125 0 0 1-.613.713 4.2 4.125 0 0 1 2.699 3.367A4.2 4.125 0 0 0 18 39a4.2 4.125 0 0 0-2.121-3.578m32.24.002A4.2 4.125 0 0 0 46 39a4.2 4.125 0 0 0 .033.492 4.2 4.125 0 0 1 2.701-3.357 4.2 4.125 0 0 1-.615-.711m1.139 8.586a4.2 4.125 0 0 0-.457 1.865 4.2 4.125 0 0 0 .035.504 4.2 4.125 0 0 1 .91-2.11 5.6 8.938 0 0 1-.076-.181 4.2 4.125 0 0 1-.412-.078m-34.516.006a4.2 4.125 0 0 1-.412.072 5.6 8.938 0 0 1-.076.182 4.2 4.125 0 0 1 .91 2.103 4.2 4.125 0 0 0 .035-.498 4.2 4.125 0 0 0-.457-1.86" opacity=".1"/></svg>