<svg xmlns="http://www.w3.org/2000/svg" viewBox="0 0 16 16"><path fill="#05bdba" d="m15.9 7.1-.2-.2L9.2.3 8.9.1 8.6 0H7.3l-.2.1-.3.2L.3 6.8l-.2.3-.1.3v1.3l.1.3.2.2 6.5 6.5.2.2.4.1h1.3l.3-.1.2-.2 6.5-6.5.2-.2.1-.3V7.4zM7.4 1.5l1.1-.1.1.1v3.1l-.1.1h-1l-.1-.1zm-6.2 7v-1l.1-.1h3.5l.1.1v1l-.2.1zm4.5 2.8-.9.9h-.1l-.7-.7v-.1l.9-.9h.7l.1.1zm0-5.8-.1.1h-.7L4 4.7v-.2l.7-.7h.1l.9.9zm2.9 9-1.1.1-.1-.1v-3.1l.1-.1h1l.1.1zM10 10l-1.1.1-.1-.1V7.7c0-.4-.2-.7-.7-.7h-.9v3l-.1.1h-1V6h2.3c.8 0 1.6.7 1.6 1.5zm4.8-1.5-3.6.1-.1-.1v-1l.1-.1h3.5l.1.1z" data-iconColor="Netlify"/></svg>