<svg xmlns="http://www.w3.org/2000/svg" viewBox="0 0 512 512"><path fill="#e57373" d="M106.005 429.953C57.595 387.988 27 326.246 27 257.4c0-86.616 48.421-161.989 119.83-200.874a2257 2257 0 0 1 35.967-9.364c21.686-5.454 29.725 8.004 34.588 15.299 11.196 16.793 24.942 46.102 26.342 82.978 1.596 42.029-97.308 191.23-137.722 284.514M487.8 257.4c0-126.428-103.154-228.918-230.4-228.918a233 233 0 0 0-42.457 3.894c27.376-2.208 48.347 2.373 64.491 36.588 5.025 10.65 14.457 36.47 30.29 73.377 5.532 12.897 31.907 69.894 61.195 136.123 19.928 45.064 44.51 83.625 59.628 129.944C466.182 368.103 487.8 315.263 487.8 257.4M378.329 452.273l-10.565-6.144c-29.515-91.357-59.739-174.518-91.932-241.914-8.613-20.822-17.8-22.298-26.637-2.69-30.822 68.38-72.07 165.635-99.505 236.872l-27.607 4.28c37.996 27.443 84.75 43.641 135.317 43.641 44.356 0 85.777-12.465 120.929-34.045" data-iconColor="Racket"/></svg>