<svg xmlns="http://www.w3.org/2000/svg" fill="#66bb6a" data-iconColor="TanStack Router" viewBox="0 0 24 24"><path d="M12.479 8.983c1.586 7.59-1.995 12.967-1.995 12.967h2.992c1.876-5.785.998-9.885.499-11.97m2.155-2.833c.17.21.339.429.468.658a7.08 7.08 0 0 1-.628 8.42 7.1 7.1 0 0 0-.549-6.474c-.08-.13-.17-.24-.249-.36a7.1 7.1 0 0 0-2.155-1.975A7.11 7.11 0 0 0 8.07 14.19c0 .738.11 1.446.309 2.104a7.06 7.06 0 0 1-1.327-4.13A7.1 7.1 0 0 1 9.935 6.45a7.2 7.2 0 0 0-4.32 1.037A8 8 0 0 0 4 8.893 7.17 7.17 0 0 1 6.793 5.56a7.1 7.1 0 0 1 4.828-1.007 8 8 0 0 0-1.506-1.557A7.7 7.7 0 0 0 8.249 2a7.1 7.1 0 0 1 4.1 1.426 6.6 6.6 0 0 1 1.526 1.636c.1 0 .19-.01.29-.01a7.11 7.11 0 0 1 6.793 5.008 7.06 7.06 0 0 0-4.828-2.913"/></svg>