<svg xmlns="http://www.w3.org/2000/svg" viewBox="0 0 24 24"><path fill="#0288d1" d="M10.002 2c-.25 0-.46.18-.5.42l-.37 2.65c-.63.25-1.17.59-1.69.98l-2.49-1a.49.49 0 0 0-.61.22l-2 3.46a.49.49 0 0 0 .12.64L4.573 11c-.04.34-.07.67-.07 1s.03.65.07.97l-2.11 1.66a.49.49 0 0 0-.12.64l2 3.46c.12.22.39.3.61.22l2.49-1.01c.52.4 1.06.74 1.69.99l.37 2.65c.04.24.25.42.5.42h4c.25 0 .46-.18.5-.42l.37-2.65c.63-.26 1.17-.59 1.69-.99l2.49 1.01c.22.08.49 0 .61-.22l2-3.46a.5.5 0 0 0-.119-.64l-2.111-1.66c.04-.32.07-.64.07-.97s-.03-.66-.07-1l2.111-1.63c.19-.15.24-.42.12-.64l-2-3.46a.49.49 0 0 0-.61-.22l-2.49 1c-.52-.39-1.062-.73-1.692-.98l-.369-2.65a.505.505 0 0 0-.5-.42zm5.172 6.049a4.3 4.3 0 0 1 .863.07 2.13 2.13 0 0 1 1.07.615 2.8 2.8 0 0 1 .41.551c.006.022-.738.52-1.189.799-.016.011-.08-.06-.154-.168a.97.97 0 0 0-.805-.48c-.518-.036-.852.235-.85.689a.6.6 0 0 0 .075.32c.114.236.325.378.99.666 1.224.53 1.75.874 2.074 1.368a2.48 2.48 0 0 1 .2 2.084 2.29 2.29 0 0 1-1.891 1.355 5.2 5.2 0 0 1-1.303-.014 3.14 3.14 0 0 1-1.74-.906 3 3 0 0 1-.445-.66 1 1 0 0 1 .156-.1l.635-.367.494-.287.101.15a2.3 2.3 0 0 0 .65.621 1.59 1.59 0 0 0 1.665-.084.74.74 0 0 0 .095-.95c-.132-.193-.404-.35-1.175-.684a4.2 4.2 0 0 1-1.612-.989 2.3 2.3 0 0 1-.468-.855 3.4 3.4 0 0 1-.03-1.092 2.08 2.08 0 0 1 1.752-1.623 4 4 0 0 1 .432-.03m-6.149.078 2.989.01.01.695.005.7H9.801v6.325H8.23V9.533H6.001v-.687a7 7 0 0 1 .02-.705c.008-.011 1.361-.017 3.003-.014" data-iconColor="TSConfig"/></svg>