<svg xmlns="http://www.w3.org/2000/svg" viewBox="0 0 16 16"><path fill-rule="evenodd" d="M8.178 2.808q-1.512 0-2.352.924C5.266 4.32 5 5.02 5 6h1.106c0-.686.154-1.134.462-1.526.336-.462.854-.686 1.554-.686.588 0 1.05.154 1.372.49.308.308.476.742.476 1.302 0 .392-.14.756-.42 1.106-.084.112-.252.28-.476.504-.756.672-1.218 1.204-1.414 1.624-.168.35-.252.61-.252 1.073V10h1.12v-.113c0-.378.084-.569.266-.877.117-.21.282-.42.512-.638l.597-.538q.53-.487.683-.672a2.64 2.64 0 0 0 .532-1.638c0-.84-.266-1.498-.784-1.974-.546-.504-1.26-.742-2.156-.742M7.992 11a.94.94 0 0 0-.711.286c-.198.185-.281.42-.281.706 0 .285.083.52.281.722.198.185.43.286.71.286.282 0 .513-.1.711-.286.199-.185.298-.42.298-.722 0-.286-.1-.521-.281-.706-.198-.202-.446-.286-.727-.286"/></svg>