<svg xmlns="http://www.w3.org/2000/svg" viewBox="0 0 64 64"><path d="M4.05 32c-.011.335-.05.663-.05 1 0 15.512 12.488 28 28 28a27.94 27.94 0 0 0 27.998-28c0-.337-.039-.664-.05-1-.528 15.042-12.776 27-27.95 27S4.578 47.042 4.05 32" opacity=".2"/><rect width="56" height="56" x="4" y="4" fill="#fecd38" rx="27.999" ry="27.999"/><path d="M14 21v6h4v18h6V21zm25.999 0c-6.627 0-12 5.373-12 12 0 6.628 5.373 12 12 12h16.246a27.8 27.8 0 0 0 2.59-6H39.998a6 6 0 1 1 0-12 6 6 0 0 1 4.46 2h6.836A12 12 0 0 0 40 21Z" opacity=".2"/><path fill="#fe3838" d="M14 20.001v6h4v18h6V20zm25.999 0c-6.627 0-12 5.373-12 12s5.373 12 12 12h17.285a27.8 27.8 0 0 0 2.058-6H40a6 6 0 1 1 0-12 6 6 0 0 1 4.46 2h6.836a12 12 0 0 0-11.295-8Z"/><path fill="#fff" d="M32 4.002C16.488 4.002 4 16.488 4 32c0 .114.011.224.018.336C4.369 17.135 16.71 5 32 5s27.63 12.135 27.982 27.336c.007-.112.018-.223.018-.336A27.94 27.94 0 0 0 32 4.002" opacity=".1"/></svg>