<svg xmlns="http://www.w3.org/2000/svg" viewBox="0 0 64 64"><circle cx="32" cy="33" r="28" opacity=".2"/><circle cx="32" cy="32" r="28" fill="#e4e4e4"/><circle cx="32" cy="32" r="8" opacity=".2"/><path d="M29.333 21A1.33 1.33 0 0 0 28 22.333v5.404s1.445 1.27 1.445 2.128c0 .857-1.445 2.127-1.445 2.127v11.675A1.33 1.33 0 0 0 29.333 45h5.334A1.33 1.33 0 0 0 36 43.667v-5.383l-.013-.018s-1.508-1.325-1.508-2.22c0-.894 1.508-2.22 1.508-2.22l.013-.019V22.333A1.33 1.33 0 0 0 34.667 21Z" opacity=".1"/><path fill="#394045" d="M29.333 20A1.33 1.33 0 0 0 28 21.333v5.404s1.445 1.27 1.445 2.128c0 .857-1.445 2.127-1.445 2.127v11.675A1.33 1.33 0 0 0 29.333 44h5.334A1.33 1.33 0 0 0 36 42.667v-5.383l-.013-.018s-1.508-1.325-1.508-2.22c0-.894 1.508-2.22 1.508-2.22l.013-.019V21.333A1.33 1.33 0 0 0 34.667 20Z"/><path d="M32 11c-12.118 0-22 9.882-22 22s9.882 22 22 22 22-9.882 22-22-9.882-22-22-22m0 5c9.422 0 17 7.578 17 17s-7.578 17-17 17-17-7.578-17-17 7.578-17 17-17" opacity=".1"/><path fill="#0076e2" d="M32 10c-12.118 0-22 9.882-22 22s9.882 22 22 22 22-9.882 22-22-9.882-22-22-22m0 5c9.422 0 17 7.578 17 17s-7.578 17-17 17-17-7.578-17-17 7.578-17 17-17"/><path fill="#fff" d="M32 4A28 28 0 0 0 4 32a28 28 0 0 0 .021.586A28 28 0 0 1 32 5a28 28 0 0 1 27.979 27.414L60 32A28 28 0 0 0 32 4" opacity=".2"/></svg>