<svg xmlns="http://www.w3.org/2000/svg" viewBox="0 0 16 16"><g fill-rule="evenodd"><path d="M7.992 11c.28 0 .529.084.727.286a.97.97 0 0 1 .281.706c0 .302-.1.537-.298.722s-.43.286-.71.286a1 1 0 0 1-.711-.286.97.97 0 0 1-.281-.722c0-.286.083-.521.281-.706a.94.94 0 0 1 .71-.286M3.567 5.685l.851.533A4 4 0 0 0 4 8c0 .653.157 1.27.434 1.815l-.86.515A5 5 0 0 1 3 8c0-.835.205-1.623.567-2.315m8.866 0C12.795 6.377 13 7.165 13 8c0 .841-.208 1.634-.575 2.33l-.86-.514A4 4 0 0 0 12 8c0-.64-.15-1.246-.418-1.782zM8.178 2.808c.896 0 1.61.238 2.156.742.518.476.784 1.134.784 1.974a2.64 2.64 0 0 1-.532 1.638l-.1.111q-.278.294-1.034.967c-.308.266-.518.518-.658.77-.182.308-.266.499-.266.877V10h-1.12v-.113c0-.462.084-.723.252-1.073.196-.42.658-.952 1.414-1.624l.204-.205q.186-.187.272-.299c.28-.35.42-.714.42-1.106 0-.56-.168-.994-.476-1.302-.322-.336-.784-.49-1.372-.49-.7 0-1.218.224-1.554.686-.308.392-.462.84-.462 1.526H5c0-.98.266-1.68.826-2.268q.84-.924 2.352-.924"/><path fill-rule="nonzero" d="m1.359 4.302 1.018.639A6.4 6.4 0 0 0 1.6 8c0 1.104.28 2.143.772 3.05l-1.03.617A7.6 7.6 0 0 1 .4 8c0-1.23.292-2.393.812-3.421zM15.6 8c0 1.33-.342 2.58-.942 3.667l-1.03-.617A6.4 6.4 0 0 0 14.4 8c0-1.108-.282-2.15-.777-3.06l1.018-.638A7.6 7.6 0 0 1 15.6 8" opacity=".3"/></g></svg>