<svg xmlns="http://www.w3.org/2000/svg" xmlns:xlink="http://www.w3.org/1999/xlink" viewBox="0 0 256 256"><defs><linearGradient id="c" x1="47.85%" x2="47.85%" y1="3.023%" y2="71.399%"><stop offset="0%" stop-color="#e6e6e6"/><stop offset="100%" stop-color="#bdbdb6"/></linearGradient><linearGradient id="g" x1="47.85%" x2="49.964%" y1="7.964%" y2="90.682%"><stop offset="0%" stop-color="#f3f3f3"/><stop offset="100%" stop-color="#bdbdb6"/></linearGradient><linearGradient id="k" x1="50%" x2="50%" y1="1.972%" y2="95.753%"><stop offset="0%" stop-color="#b8b8b8" stop-opacity=".707"/><stop offset="52.375%" stop-color="#a3a3a3" stop-opacity=".756"/><stop offset="100%" stop-color="#707070" stop-opacity=".35"/></linearGradient><linearGradient id="l" x1="50%" x2="50%" y1=".854%" y2="100%"><stop offset="0%" stop-color="#fff"/><stop offset="100%" stop-color="#fff" stop-opacity=".677"/></linearGradient><linearGradient id="q" x1="50%" x2="50%" y1="0%" y2="106.422%"><stop offset="0%" stop-color="#0f0e12"/><stop offset="100%" stop-color="#2a272d"/></linearGradient><linearGradient id="r" x1="50%" x2="50%" y1="3.47%" y2="99.581%"><stop offset="0%" stop-color="#777"/><stop offset="40.41%" stop-color="#3d3d3d"/><stop offset="74.034%" stop-color="#383838"/><stop offset="100%" stop-color="#343434"/></linearGradient><linearGradient id="s" x1="50%" x2="50%" y1="1.707%" y2="99.868%"><stop offset="0%" stop-color="#fff"/><stop offset="32.755%" stop-color="#d7d7d7"/><stop offset="75.931%" stop-color="#d6d6d6"/><stop offset="100%" stop-color="#ccc"/></linearGradient><linearGradient id="v" x1="50%" x2="50%" y1="2.705%" y2="96.19%"><stop offset="0%" stop-color="#9ceab0" stop-opacity=".02"/><stop offset="100%" stop-color="#736fd8" stop-opacity=".089"/></linearGradient><linearGradient id="y" x1="50%" x2="60.506%" y1="-27.007%" y2="100%"><stop offset="0%" stop-color="#5b0386"/><stop offset="17.01%" stop-color="#9f28a1"/><stop offset="39.319%" stop-color="#622c81"/><stop offset="74.089%" stop-color="#71bdd2"/><stop offset="100%" stop-color="#5a38aa"/></linearGradient><linearGradient id="z" x1="50.263%" x2="57.115%" y1="3.698%" y2="100%"><stop offset="0%" stop-color="#cd66e0"/><stop offset="43.51%" stop-color="#1f296c"/><stop offset="100%" stop-color="#6bd9f6"/></linearGradient><linearGradient id="A" x1="50%" x2="50%" y1="1.46%" y2="85.758%"><stop offset="0%" stop-color="#fff" stop-opacity=".9"/><stop offset="100%" stop-color="#fff" stop-opacity="0"/></linearGradient><filter id="a" width="124.3%" height="125.3%" x="-12.2%" y="-12.4%" filterUnits="objectBoundingBox"><feOffset dy="4" in="SourceAlpha" result="shadowOffsetOuter1"/><feGaussianBlur in="shadowOffsetOuter1" result="shadowBlurOuter1" stdDeviation="5"/><feColorMatrix in="shadowBlurOuter1" result="shadowMatrixOuter1" values="0 0 0 0 0 0 0 0 0 0 0 0 0 0 0 0 0 0 0.2 0"/><feMerge><feMergeNode in="shadowMatrixOuter1"/><feMergeNode in="SourceGraphic"/></feMerge></filter><filter id="e" width="105.9%" height="113.3%" x="-2.9%" y="-6.7%" filterUnits="objectBoundingBox"><feOffset dy="-3" in="SourceAlpha" result="shadowOffsetInner1"/><feComposite in="shadowOffsetInner1" in2="SourceAlpha" k2="-1" k3="1" operator="arithmetic" result="shadowInnerInner1"/><feColorMatrix in="shadowInnerInner1" values="0 0 0 0 0.129698822 0 0 0 0 0.129698822 0 0 0 0 0.129698822 0 0 0 0.3 0"/></filter><filter id="h" width="101.4%" height="101.4%" x="-.7%" y="-.7%" filterUnits="objectBoundingBox"><feOffset dy="-3" in="SourceAlpha" result="shadowOffsetInner1"/><feComposite in="shadowOffsetInner1" in2="SourceAlpha" k2="-1" k3="1" operator="arithmetic" result="shadowInnerInner1"/><feColorMatrix in="shadowInnerInner1" values="0 0 0 0 0.129698822 0 0 0 0 0.129698822 0 0 0 0 0.129698822 0 0 0 0.3 0"/></filter><filter id="j" width="138.5%" height="166.7%" x="-19.2%" y="-26.7%" filterUnits="objectBoundingBox"><feOffset dy="1" in="SourceAlpha" result="shadowOffsetOuter1"/><feGaussianBlur in="shadowOffsetOuter1" result="shadowBlurOuter1" stdDeviation="1.5"/><feComposite in="shadowBlurOuter1" in2="SourceAlpha" operator="out" result="shadowBlurOuter1"/><feColorMatrix in="shadowBlurOuter1" values="0 0 0 0 0 0 0 0 0 0 0 0 0 0 0 0 0 0 0.0778313483 0"/></filter><filter id="n" width="158.8%" height="158.8%" x="-29.4%" y="-23.5%" filterUnits="objectBoundingBox"><feOffset dy="1" in="SourceAlpha" result="shadowOffsetOuter1"/><feGaussianBlur in="shadowOffsetOuter1" result="shadowBlurOuter1" stdDeviation="1.5"/><feColorMatrix in="shadowBlurOuter1" values="0 0 0 0 0 0 0 0 0 0 0 0 0 0 0 0 0 0 0.26133632 0"/></filter><filter id="p" width="133.1%" height="133.1%" x="-16.6%" y="-16.6%" filterUnits="objectBoundingBox"><feOffset dy="2" in="SourceAlpha" result="shadowOffsetOuter1"/><feGaussianBlur in="shadowOffsetOuter1" result="shadowBlurOuter1" stdDeviation="4.5"/><feColorMatrix in="shadowBlurOuter1" result="shadowMatrixOuter1" values="0 0 0 0 0 0 0 0 0 0 0 0 0 0 0 0 0 0 0.3 0"/><feMerge><feMergeNode in="shadowMatrixOuter1"/><feMergeNode in="SourceGraphic"/></feMerge></filter><filter id="B" width="224.3%" height="194.4%" x="-62.1%" y="-47.2%" filterUnits="objectBoundingBox"><feGaussianBlur in="SourceGraphic" stdDeviation="7"/></filter><radialGradient id="o" cx="50.277%" cy="17.553%" r="93.117%" fx="50.277%" fy="17.553%"><stop offset="0%" stop-color="#fe8c6c"/><stop offset="100%" stop-color="#ec3e3e"/></radialGradient><radialGradient id="u" cx="50%" cy="91.444%" r="23.262%" fx="50%" fy="91.444%" gradientTransform="matrix(0 1 -1.92777 0 2.263 .414)"><stop offset="0%" stop-color="#7066ae"/><stop offset="100%" stop-color="#232327"/></radialGradient><radialGradient id="x" cx="50%" cy="91.243%" r="23.464%" fx="50%" fy="91.243%" gradientTransform="matrix(0 1 -1.57176 0 1.934 .412)"><stop offset="0%" stop-color="#8784de"/><stop offset="100%" stop-color="#232129"/></radialGradient><path id="b" d="m37.684 5.449.566-1.699A5.48 5.48 0 0 1 43.453 0h25.594c2.36 0 4.457 1.51 5.203 3.75l.566 1.699A3 3 0 0 0 77.662 7.5H81v15H30v-15h4.838a3 3 0 0 0 2.846-2.051"/><path id="f" d="M222 35v154c0 15.464-12.536 28-28 28H28c-15.464 0-28-12.536-28-28V35C0 19.536 12.536 7 28 7h166c15.464 0 28 12.536 28 28"/><path id="t" d="M80 20.5c32.86 0 59.5 26.64 59.5 59.5s-26.64 59.5-59.5 59.5S20.5 112.86 20.5 80 47.14 20.5 80 20.5M80 35c-24.853 0-45 20.147-45 45s20.147 45 45 45 45-20.147 45-45-20.147-45-45-45"/><circle id="m" cx="12.5" cy="12" r="8.5"/><circle id="w" cx="80" cy="80" r="37.5"/><rect id="i" width="26" height="15" x="19" y="26" rx="3"/></defs><g fill="none" fill-rule="evenodd" filter="url(#a)" transform="translate(17 17)"><use xlink:href="#b" fill="url(#c)"/><use xlink:href="#b" fill="#000" filter="url(#e)"/><use xlink:href="#f" fill="url(#g)"/><use xlink:href="#f" fill="#000" filter="url(#h)"/><rect width="34" height="23" x="15" y="22" fill="#fff" rx="8"/><g opacity=".58"><use xlink:href="#i" fill="#000" filter="url(#j)"/><use xlink:href="#i" fill="url(#k)"/></g><rect width="21" height="5" x="21" y="29" fill="url(#l)" opacity=".683" rx="1.5"/><g transform="translate(182.5 22)"><circle cx="12.5" cy="12" r="12" fill="#000" fill-opacity=".08"/><use xlink:href="#m" fill="#000" filter="url(#n)"/><use xlink:href="#m" fill="url(#o)"/></g><g filter="url(#p)" transform="translate(31 37)"><ellipse cx="80.382" cy="80.552" fill="url(#q)" rx="46.175" ry="45.793"/><path fill="url(#r)" stroke="url(#s)" stroke-width="5" d="M80-2.5c22.782 0 43.407 9.234 58.336 24.164S162.5 57.218 162.5 80s-9.234 43.407-24.164 58.336S102.782 162.5 80 162.5s-43.407-9.234-58.336-24.164S-2.5 102.782-2.5 80s9.234-43.407 24.164-58.336S57.218-2.5 80-2.5Zm-1 30c-14.221 0-27.096 5.764-36.416 15.084S27.5 64.779 27.5 79s5.764 27.096 15.084 36.416S64.779 130.5 79 130.5s27.096-5.764 36.416-15.084S130.5 93.221 130.5 79s-5.764-27.096-15.084-36.416S93.221 27.5 79 27.5Z"/><use xlink:href="#t" fill="url(#u)"/><path stroke="#000" stroke-opacity=".166" stroke-width="2.207" d="M80 19.397c16.735 0 31.886 6.783 42.853 17.75s17.75 26.118 17.75 42.853-6.783 31.886-17.75 42.853-26.118 17.75-42.853 17.75-31.886-6.783-42.853-17.75S19.397 96.735 19.397 80s6.783-31.886 17.75-42.853S63.265 19.397 80 19.397Zm0 16.706c-12.122 0-23.096 4.914-31.04 12.857C41.017 56.904 36.103 67.878 36.103 80s4.914 23.096 12.857 31.04c7.944 7.943 18.918 12.857 31.04 12.857s23.096-4.914 31.04-12.857c7.943-7.944 12.857-18.918 12.857-31.04s-4.914-23.096-12.857-31.04C103.096 41.017 92.122 36.103 80 36.103Z"/><path stroke="url(#v)" stroke-linejoin="square" stroke-width="2.207" d="M80 21.603c16.126 0 30.725 6.537 41.293 17.104S138.397 63.874 138.397 80s-6.537 30.725-17.104 41.293S96.126 138.397 80 138.397s-30.725-6.537-41.293-17.104S21.603 96.126 21.603 80s6.537-30.725 17.104-41.293S63.874 21.603 80 21.603Zm0 12.294c-12.731 0-24.257 5.16-32.6 13.503S33.897 67.269 33.897 80s5.16 24.257 13.503 32.6 19.869 13.503 32.6 13.503 24.257-5.16 32.6-13.503 13.503-19.869 13.503-32.6-5.16-24.257-13.503-32.6S92.731 33.897 80 33.897Z"/><use xlink:href="#w" fill="url(#x)"/><circle cx="80" cy="80" r="38.328" stroke="#100f0f" stroke-opacity=".229" stroke-width="1.655"/><circle cx="80" cy="80" r="36.672" stroke="#fff" stroke-linejoin="square" stroke-opacity=".04" stroke-width="1.655"/><circle cx="80" cy="80" r="28.603" fill="url(#y)" stroke="#080808" stroke-opacity=".603" stroke-width="2.207"/><circle cx="80" cy="80" r="14.241" fill="#0a0611" fill-opacity=".78" stroke="url(#z)" stroke-width="5.517"/></g><path fill="url(#A)" d="M34.5 33C47.479 33 58 25.613 58 16.5S47.479 0 34.5 0 11 7.387 11 16.5 21.521 33 34.5 33" opacity=".458" transform="translate(74.5 77.5)"/><path fill="#59aaff" d="M29.086 26.963Q23 1.5 34.086 0C19.015 2.373 2.586 5.467.586 24.139q-2 18.672 9.657 20.361 16.843-15.841 17.843-16.69z" filter="url(#B)" opacity=".521" transform="translate(74.5 77.5)"/></g></svg>