<svg xmlns="http://www.w3.org/2000/svg" viewBox="0 0 64 64"><rect width="56" height="56" x="4" y="5" opacity=".2" rx="3" ry="3"/><path fill="#fbc72b" d="M7 4C5.338 4 4 5.338 4 7v4l56 10V7c0-1.662-1.338-3-3-3z"/><path fill="#40c412" d="m4 11 56 10v25L4 56z"/><path fill="#80d511" d="M60 46 4 56v1c0 1.662 1.338 3 3 3h50c1.662 0 3-1.338 3-3z"/><path d="M4 56v2l56-10v-2z" opacity=".2"/><path fill="#fff" d="M4 55v2l56-10v-2z"/><path d="M4 11v2l56 10v-2z" opacity=".2"/><path fill="#fff" d="M4 10v2l56 10v-2z"/><path fill="#1ca3f4" d="m30 51 4-1s-1-7 1-13c.615-1.844 2-4 5-4h4s1-6.65 1-10c0-2-2-12-13-12-10 0-13 10-13 12 0 4 1 10 1 10h4c3 0 4.293 1.879 5 4 2 6 1 14 1 14"/><path fill="#fff" d="M7 4C5.338 4 4 5.338 4 7v1c0-1.662 1.338-3 3-3h50c1.662 0 3 1.338 3 3V7c0-1.662-1.338-3-3-3z" opacity=".2"/><path d="M32 11c-5.333 0-8.925 2.729-11.059 5.662a17.3 17.3 0 0 0-2.257 4.281C18.218 22.24 18 23.25 18 24c0 4.167 1.014 10.164 1.014 10.164A1 1 0 0 0 20 35h4c1.291 0 2.067.365 2.678.936.61.57 1.049 1.41 1.373 2.38 1.884 5.653.957 13.559.957 13.559a1 1 0 0 0 1.234 1.096l4-1a1 1 0 0 0 .748-1.112s-.935-6.859.96-12.543c.272-.819.712-1.673 1.349-2.287S38.739 35 40 35h4a1 1 0 0 0 .988-.852S46 27.55 46 24c0-1.333-.53-4.351-2.549-7.312S37.803 11 32 11m0 2c5.197 0 8.068 2.274 9.799 4.813S44 23.333 44 24c0 2.879-.76 8.012-.902 9H40c-1.74 0-3.128.663-4.088 1.588s-1.52 2.07-1.861 3.096c-1.886 5.656-1.256 11.289-1.098 12.546l-1.88.471c.19-1.849.68-7.603-1.124-13.017-.383-1.15-.943-2.31-1.906-3.21S25.709 33 24 33h-3.133c-.183-1.165-.867-5.627-.867-9 0-.25.157-1.24.566-2.38a15.4 15.4 0 0 1 1.993-3.782C24.425 15.27 27.333 13 32 13" opacity=".2"/><path fill="#fff" d="M32 10c-5.333 0-8.925 2.729-11.059 5.662a17.3 17.3 0 0 0-2.257 4.281C18.218 21.24 18 22.25 18 23c0 4.167 1.014 10.164 1.014 10.164A1 1 0 0 0 20 34h4c1.291 0 2.067.365 2.678.936.61.57 1.049 1.41 1.373 2.38 1.884 5.653.957 13.559.957 13.559a1 1 0 0 0 1.234 1.096l4-1a1 1 0 0 0 .748-1.112s-.935-6.859.96-12.543c.272-.819.712-1.673 1.349-2.287S38.739 34 40 34h4a1 1 0 0 0 .988-.852S46 26.55 46 23c0-1.333-.53-4.351-2.549-7.312S37.803 10 32 10m0 2c5.197 0 8.068 2.274 9.799 4.813S44 22.333 44 23c0 2.879-.76 8.012-.902 9H40c-1.74 0-3.128.663-4.088 1.588s-1.52 2.07-1.861 3.096c-1.886 5.656-1.256 11.289-1.098 12.546l-1.88.471c.19-1.849.68-7.603-1.124-13.017-.383-1.15-.943-2.31-1.906-3.21S25.709 32 24 32h-3.133c-.183-1.165-.867-5.627-.867-9 0-.25.157-1.24.566-2.38a15.4 15.4 0 0 1 1.993-3.782C24.425 14.27 27.333 12 32 12"/></svg>