<svg xmlns="http://www.w3.org/2000/svg" viewBox="0 0 64 64"><circle cx="43" cy="25" r="16" opacity=".2"/><circle cx="43" cy="24" r="16" fill="#e54333"/><path fill="#fff" d="M43 8a16 16 0 0 0-16 16 16 16 0 0 0 .021.58A16 16 0 0 1 43 9a16 16 0 0 1 15.979 15.42A16 16 0 0 0 59 24 16 16 0 0 0 43 8" opacity=".2"/><circle cx="20" cy="31" r="16" opacity=".2"/><circle cx="20" cy="30" r="16" fill="#0fd925"/><circle cx="38" cy="40" r="16" opacity=".2"/><path fill="#fff" d="M20 14A16 16 0 0 0 4 30a16 16 0 0 0 .021.58A16 16 0 0 1 20 15a16 16 0 0 1 15.979 15.42A16 16 0 0 0 36 30a16 16 0 0 0-16-16" opacity=".2"/><circle cx="38" cy="39" r="16" fill="#4168b5"/><path fill="#fff" d="M38 23a16 16 0 0 0-16 16 16 16 0 0 0 .021.58A16 16 0 0 1 38 24a16 16 0 0 1 15.979 15.42A16 16 0 0 0 54 39a16 16 0 0 0-16-16" opacity=".2"/></svg>