<svg xmlns="http://www.w3.org/2000/svg" viewBox="0 0 64 64"><path d="M8.174 27.004c-2.9-.125-4.963 2.785-3.887 5.48l8 20a4 4 0 0 0 4.21 2.485l15.504-1.938 15.503 1.938a4 4 0 0 0 4.211-2.484l8-20c1.081-2.706-1-5.623-3.91-5.481a4 4 0 0 0-2.203.797L32.002 44 10.4 27.8a4 4 0 0 0-2.226-.797" opacity=".2"/><path fill="#2d77b5" d="M8.174 26.004c-2.9-.125-4.963 2.784-3.887 5.48l8 20a4 4 0 0 0 4.21 2.485l16-2c3.567-.45 4.777-5.01 1.902-7.168L10.4 26.8a4 4 0 0 0-2.226-.797"/><path fill="#2d77b5" d="M55.805 26.004a4 4 0 0 0-2.203.797l-24 18c-2.874 2.158-1.664 6.719 1.903 7.168l16 2a4 4 0 0 0 4.21-2.485l8-20c1.081-2.705-1-5.623-3.91-5.48"/><path fill="#fff" d="M8.174 26.002c-2.546-.11-4.445 2.12-4.143 4.49.253-1.959 1.96-3.584 4.143-3.49a4 4 0 0 1 2.226.797l21.602 16.199 21.6-16.2a4 4 0 0 1 2.203-.796c2.193-.107 3.913 1.524 4.166 3.492.306-2.38-1.61-4.617-4.166-4.492a4 4 0 0 0-2.203.797l-21.6 16.199-21.602-16.2a4 4 0 0 0-2.226-.796" opacity=".2"/><path d="M31.888 9.005a4 4 0 0 0-3.574 2.445l-16 38c-1.192 2.837 1.13 5.9 4.184 5.52L32 53.032l15.503 1.938c3.053.38 5.376-2.683 4.184-5.52l-16-38a4 4 0 0 0-3.8-2.445" opacity=".2"/><path fill="#40d435" d="M31.888 8.004a4 4 0 0 0-3.574 2.445l-16 38c-1.192 2.837 1.13 5.901 4.184 5.52L32 52.03l15.503 1.938c3.053.381 5.376-2.683 4.184-5.52l-16-38a4 4 0 0 0-3.8-2.445"/><path fill="#257859" d="m18.783 33.086-6.469 15.363a3.94 3.94 0 0 0-.011 3.067c.014.035.035.066.05.101q.172.38.414.715c.032.044.06.09.094.133.187.238.397.457.633.648.036.029.077.05.113.078q.293.22.625.383c.085.042.167.085.254.121q.388.16.813.235c.074.013.15.018.226.027.315.037.637.054.973.012L32 52.03l15.503 1.938c.336.042.659.025.973-.012.076-.01.152-.014.227-.027q.425-.076.812-.235c.087-.036.17-.079.254-.12q.332-.164.625-.384c.037-.027.077-.049.113-.078.236-.191.446-.41.633-.648q.048-.066.094-.133.242-.336.414-.715c.015-.035.036-.066.05-.101a3.94 3.94 0 0 0-.011-3.067l-6.469-15.363L32.001 43z"/><path fill="#fff" d="M31.889 8.002a4 4 0 0 0-3.575 2.445l-16 38a3.96 3.96 0 0 0-.283 2.053 4 4 0 0 1 .283-1.053l16-38a4 4 0 0 1 7.375 0l15.999 38c.146.35.237.704.283 1.053a3.96 3.96 0 0 0-.283-2.053l-15.999-38a4 4 0 0 0-3.8-2.445" opacity=".2"/></svg>