<svg xmlns="http://www.w3.org/2000/svg" viewBox="0 0 64 64"><rect width="56" height="56" x="4" y="5" opacity=".2" rx="28" ry="28"/><rect width="56" height="56" x="4" y="4" fill="#2869b6" rx="28" ry="28"/><path d="m32.146 5.4-3.244.37-4.004 1.099-.756.735 2.485 1.716v.979l-1.627.98 1.954 2.571.866-.49 1.082-1.713a38 38 0 0 0 4.758-1.838l1.14-3.306zm-7.68.246-1.397.2-.662.657-1.085.157-.967.455-.47.227-.288.385 1.406.243.54-.49 1.084-.242c.742-.361 1.485-.605 2.272-.86zm-6.383 2.936-.217.49.106 1.225-.864.735-.54 1.346h1.082l.542-1.223c.466-.329.93-.663 1.405-.98l1.083.369 2.163 1.468 1.082-.98-1.192-.49-.541-1.1-2.057-.247-.106-.613-.973.247-.433.856zm27.71.98-2.051.492-1.305.856v.735l-2.051 1.344.43 1.962 1.194-.858.756.858.864.49.54-1.469-.322-.858.322-.613L45.36 11h.542l-.542 1.624v1.102c.497-.135 1.008-.18 1.518-.244l-1.409.98-.106.612-1.621 1.345-1.627-.366v-.979l-.757.49.327 1.135h-1.193l-.646.822-.817.917-1.456.308.864.854.219.854h-1.084l-1.372.737v2.206h.616l.592.672 1.354-.672.539-1.347.976-.613.215-.49 1.623-.364.867.977.973.49-.542 1.102.868-.246.431-1.097-1.082-1.225h.434l1.083.854.216 1.224.97 1.102.217-1.593.543-.244c.535.554.955 1.212 1.406 1.837l1.621.123.977.61-.434.612-.974.858h-1.407l-1.841-.611-.973.12-.7.798-2.005-2.02-1.407-.367-2.058.244-1.84.49c-1.031 1.169-1.909 2.333-2.886 3.549l-1.19 2.818.542.61-.973 1.469 1.082 2.573c.92 1.04 1.698 2.078 2.618 3.12l1.355-1.163.594.675 1.456-.918.49.55h1.463l.837.949-.518 1.684L43.36 41.7l-.055 2.02.757 1.47-.809 1.224c-.053.9-.054 1.795-.054 2.696.443 1.221.672 2.436 1.092 3.667l.322 1.96v.981h1.178l1.192-.735h1.026c.382-.266.749-.551 1.117-.837l1.37-1.55-.268-.795 1.408-1.228-1.03-1.159 1.246-1.04 1.05-.738.542-.607-.325-1.353v-3.424l1.113-2.083 1.19-1.346 1.298-3.182v-.86c-.64.082-1.263.147-1.89.192l1.293-1.293 1.787-1.225.976-1.1V30.13l-.651-1.225-.867.98-.648-.734-.973-.736v-1.59l1.137 1.284 1.246-.183c.565.514 1.122 1.005 1.62 1.592l.123-.14a27.86 27.86 0 0 0-7.661-16.758c-.235-.242-.483-.501-.676-.69-.322-.315-.663-.612-1.001-.91l-.307.502-1.082 1.225L47.742 11h1.405l.651-.456-2.598-.49Zm-30.585.04q-.239.177-.476.356l.213.952s-.988.108-1.56.182C7.64 16.21 4.006 23.643 4 31.975c.225.37.448.725.448.725l2.272 1.344 2.275.616.972 1.225 1.515 1.1.866-.12.648.293v.196l-.863 2.324-.651.982.215.49L11 42.983l2.103 3.552 1.389 1.71.865 1.224-.108 2.572 1.208 1.47-.357 1.553a28 28 0 0 0 3.965 2.254l.504-.502.323-.856 1.409-.492 1.299-2.692-.542-.734.756-1.521 1.624-.37.962-1.537-.312-2.445 1.576-1.836.219-1.839c-1.777-.88-3.818-1.786-5.582-2.693l-.867-1.714-1.621-.367-.864-1.624-2.163.244-1.84-1.54-1.95 1.205v.272c-.589-.17-1.313-.192-1.838-.514l-.434-1.225V33.19l-1.299.122q.162-1.284.328-2.57h-.756l-.76.98-.755.366-1.084-.61-.109-1.348.216-1.469 1.624-1.225h1.296l.216-.735 1.624.367 1.05 1.47.218-2.45 2.198-1.711.756-1.838 1.512-.053.868-1.218 1.946-.373.973-1.466h-2.92l1.84-.858h1.297l1.84-1.173.215-.732-.65-.613-.757-.245.219-.734-.542-1.102-1.3.487.218-.98-1.517-.854-1.185 2.08.106.736-1.193.49-.756 1.59-.323-1.468-2.057-.859-.325-1.101L15.7 12.5l1.193-1.102.106-1.344-.648-.37zm20.56 1.275-1.567.49-.709-.125h-.002l-.11.737 1.04.49 1.996-.86zm-14.982.522-.864.613 1.081.735h.867v-.858Zm17.094 2.817v.735l.434.49v1.102l-.218 1.468 1.191-.243.864-.859-.756-.733a22 22 0 0 0-.865-1.96Zm-.43 1.468-.76.245.218 1.346.97-.486zm-14.93 2.207.323 1.708.648-.976zm28.248 9.545 1.246 1.408 1.462 3.121.864.98-.434 1.1.822.933c-.378.025-.754.052-1.143.052-.689-1.448-1.207-2.897-1.73-4.41l-1.201-1.04-.488-1.777z" opacity=".3"/><path d="M23.814 33a1.17 1.17 0 0 0-.742.286L5.388 47.275c-.734.637-.368 1.82.605 1.956l6.858.963-3.214 5.537a2.57 2.57 0 0 0 .951 3.525l.69.397a2.597 2.597 0 0 0 3.542-.947l3.337-5.75 4.89 3.944c.753.609 1.893.088 1.894-.866L25 34.13c.002-.635-.535-1.146-1.186-1.13" opacity=".2"/><path fill="#fff" d="M23.814 32a1.17 1.17 0 0 0-.742.286L5.388 46.275c-.734.637-.368 1.82.605 1.956l6.858.963-3.214 5.537a2.57 2.57 0 0 0 .951 3.525l.69.397a2.597 2.597 0 0 0 3.542-.947l3.337-5.75 4.89 3.944c.753.609 1.893.088 1.894-.866L25 33.13c.002-.635-.535-1.146-1.186-1.13"/><path fill="#fff" d="M32 4C16.488 4 4 16.488 4 32c0 .168.01.333.014.5C4.28 17.221 16.656 5 32 5s27.72 12.221 27.986 27.5c.003-.167.014-.332.014-.5C60 16.488 47.512 4 32 4" opacity=".1"/></svg>