<svg xmlns="http://www.w3.org/2000/svg" viewBox="0 0 64 64"><path d="M2 33v2c0 2.216 1.784 4 4 4h52c2.216 0 4-1.784 4-4v-2c0 2.216-1.784 4-4 4H6c-2.216 0-4-1.784-4-4m2 15v2c0 1.662 1.338 3 3 3s3-1.338 3-3v-2c0 1.662-1.338 3-3 3s-3-1.338-3-3m50 0v2c0 1.662 1.338 3 3 3s3-1.338 3-3v-2c0 1.662-1.338 3-3 3s-3-1.338-3-3m-44 5v2c0 3.324 2.676 6 6 6h2c3.324 0 6-2.676 6-6v-2c0 3.324-2.676 6-6 6h-2c-3.324 0-6-2.676-6-6m30 0v2c0 3.324 2.676 6 6 6h2c3.324 0 6-2.676 6-6v-2c0 3.324-2.676 6-6 6h-2c-3.324 0-6-2.676-6-6" opacity=".2"/><rect width="60" height="12" x="2" y="26" fill="#2a85c2" rx="4" ry="4"/><path fill="#fff" d="M6 26c-2.216 0-4 1.784-4 4v1c0-2.216 1.784-4 4-4h52c2.216 0 4 1.784 4 4v-1c0-2.216-1.784-4-4-4z" opacity=".2"/><rect width="56" height="14" x="-60" y="-24" fill="#c2352a" rx="6" ry="6" transform="rotate(90)scale(-1 1)"/><rect width="56" height="14" x="-60" y="-54" fill="#c2352a" rx="6" ry="6" transform="rotate(90)scale(-1 1)"/><rect width="40" height="6" x="-52" y="-10" fill="#d8564b" rx="3" ry="3" transform="rotate(90)scale(-1 1)"/><rect width="40" height="6" x="-52" y="-60" fill="#d8564b" rx="3" ry="3" transform="rotate(90)scale(-1 1)"/><path fill="#fff" d="M16 4c-3.324 0-6 2.676-6 6v1c0-3.324 2.676-6 6-6h2c3.324 0 6 2.676 6 6v-1c0-3.324-2.676-6-6-6zm30 0c-3.324 0-6 2.676-6 6v1c0-3.324 2.676-6 6-6h2c3.324 0 6 2.676 6 6v-1c0-3.324-2.676-6-6-6zM7 12c-1.662 0-3 1.338-3 3v1c0-1.662 1.338-3 3-3s3 1.338 3 3v-1c0-1.662-1.338-3-3-3m50 0c-1.662 0-3 1.338-3 3v1c0-1.662 1.338-3 3-3s3 1.338 3 3v-1c0-1.662-1.338-3-3-3" opacity=".2"/></svg>