<svg xmlns="http://www.w3.org/2000/svg" viewBox="0 0 64 64"><circle cx="32" cy="33" r="28" opacity=".2"/><path fill="#3591ac" d="M32 32v28a28.019 28 0 0 0 24.079-13.746 28.019 28 0 0 0 .156-.27z"/><path fill="#2cba66" d="M32 32v28A28.019 28 0 0 1 7.921 46.254a28.019 28 0 0 1-.156-.27Z"/><path fill="#ff482e" d="M32 32V4a28.019 28 0 0 1 24.079 13.746 28.019 28 0 0 1 .156.27z"/><path fill="#ff8201" d="M32 32V4A28.019 28 0 0 0 7.921 17.746a28.019 28 0 0 0-.156.27Z"/><path fill="#ffc825" d="M32 32 7.735 46a28.019 28 0 0 1-.127-27.712 28.019 28 0 0 1 .156-.27z"/><path fill="#9e56d6" d="m32 32 24.265-14a28.019 28 0 0 1 .127 27.712 28.019 28 0 0 1-.156.27z"/><circle cx="32" cy="33" r="22" opacity=".2"/><circle cx="32" cy="32" r="22" fill="#fff"/><path d="m43.333 32.999-8.666 6-8.667 6v-24l8.667 6z" opacity=".1"/><path fill="#33c0e8" d="m43.333 31.999-8.666 6-8.667 6v-24l8.667 6z"/><path fill="#fff" d="M32 4A28 28 0 0 0 4 32a28 28 0 0 0 .018.492A28 28 0 0 1 32 5a28 28 0 0 1 27.975 27.492A28 28 0 0 0 60 32 28 28 0 0 0 32 4" opacity=".2"/></svg>