<svg xmlns="http://www.w3.org/2000/svg" viewBox="0 0 64 64"><rect width="56" height="56" x="4" y="5" opacity=".2" rx="28" ry="28"/><rect width="56" height="56" x="4" y="4" fill="#e4e4e4" rx="28" ry="28"/><path d="M23.93 14.999a1.5 1.5 0 0 0-1.364.836l-8.402 16.98a1.5 1.5 0 1 0 2.691 1.329l2.051-4.145h9.953l1.793 3.66a1.5 1.5 0 0 0 .465.555 1.5 1.5 0 0 0 .106.879l5.601 13a1.5 1.5 0 0 0 2.781-.063l3.497-9.277 3.496 9.277a1.5 1.5 0 0 0 2.78.063l5.599-13a1.5 1.5 0 1 0-2.754-1.188l-4.133 9.586-3.586-9.52a1.5 1.5 0 0 0-2.809 0l-3.586 9.52-4.132-9.586a1.5 1.5 0 0 0-.5-.633 1.5 1.5 0 0 0-.13-.933l-8.093-16.5a1.5 1.5 0 0 0-1.324-.84m-.028 4.895 3.485 7.105h-7z" opacity=".1"/><path fill="none" stroke="#7a7a7a" stroke-linecap="round" stroke-linejoin="round" stroke-width="3" d="m15.509 32.48 8.4-16.98L32 32"/><path fill="#7a7a7a" d="M18 26h11.2v3H18z"/><path fill="none" stroke="#7a7a7a" stroke-linecap="round" stroke-linejoin="round" stroke-width="3" d="m32.6 33.5 5.6 13 4.9-13 4.9 13 5.6-13"/><path fill="none" stroke="#404040" stroke-linecap="round" stroke-width="1.4" d="M16.7 45.3 32 32"/><circle cx="32" cy="33" r="4" opacity=".1"/><circle cx="32" cy="32" r="4" fill="#595959"/><path fill="#fff" d="M32 4C16.488 4 4 16.488 4 32c0 .113.011.224.018.336C4.369 17.134 16.71 5 32 5s27.63 12.134 27.982 27.336c.007-.112.018-.223.018-.336C60 16.488 47.512 4 32 4" opacity=".2"/></svg>