<svg xmlns="http://www.w3.org/2000/svg" viewBox="0 0 64 64"><path d="M4 56.084v2c0 1.55 1.25 2.8 2.8 2.8h50.4c1.55 0 2.8-1.25 2.8-2.8v-2c0 1.55-1.25 2.8-2.8 2.8H6.8c-1.55 0-2.8-1.25-2.8-2.8" opacity=".2"/><rect width="56" height="56" x="4" y="3.884" fill="#c2352a" rx="2.8" ry="2.8"/><path fill="#fff" d="M6.8 3.884c-1.55 0-2.8 1.25-2.8 2.801v1.002c0-1.551 1.25-2.8 2.8-2.8h50.4c1.55 0 2.8 1.249 2.8 2.8V6.685c0-1.551-1.25-2.8-2.8-2.8z" opacity=".1"/><path d="M24 5 4.729 58.957a2.78 2.78 0 0 0 2.072.928h29.795L33 50H23l9-25 13.566 34.885H57.2c.827 0 1.56-.362 2.072-.928L40 5z" opacity=".2"/><path fill="#fff" d="M24 4 4.479 58.658A2.8 2.8 0 0 0 6.8 59.885h30.158L33 49H23l9-25 13.955 35.885H57.2c.968 0 1.82-.486 2.322-1.227L40 4z"/></svg>