<svg xmlns="http://www.w3.org/2000/svg" viewBox="0 0 64 64"><path d="M4 56.2v2C4 59.75 5.25 61 6.8 61h50.4c1.55 0 2.8-1.25 2.8-2.8v-2c0 1.55-1.25 2.8-2.8 2.8H6.8C5.25 59 4 57.75 4 56.2" opacity=".2"/><rect width="56" height="56" x="4" y="4" fill="#477783" rx="2.8" ry="2.8"/><path fill="#fff" d="M6.8 4C5.25 4 4 5.25 4 6.8v1.003a2.796 2.796 0 0 1 2.8-2.801h50.4c1.55 0 2.8 1.25 2.8 2.8v-1A2.796 2.796 0 0 0 57.2 4z" opacity=".1"/><path d="m20 19-6 28h6l1.053-8h3.472L26 47h6l-7-28zm16 6v17c0 2 2 5 7 5s7-2 7-2V25h-4v18h-4c-2 0-2-2-2-2V25zm-13.5 3 1.29 7h-2.212z" opacity=".2"/><path fill="#64cce5" d="M50 24v20s-2 2-7 2-7-3-7-5V24h4v16s0 2 2 2h4V24zm-30-6-6 28h6l1.053-8h3.472L26 46h6l-7-28zm2.5 9 1.29 7h-2.212z"/></svg>