<svg xmlns="http://www.w3.org/2000/svg" viewBox="0 0 64 64"><path d="M4 56.2v2C4 59.75 5.25 61 6.8 61h50.4c1.55 0 2.8-1.25 2.8-2.8v-2c0 1.55-1.25 2.8-2.8 2.8H6.8C5.25 59 4 57.75 4 56.2" opacity=".2"/><rect width="56" height="56" x="4" y="4" fill="#6c4782" rx="2.8" ry="2.8"/><path fill="#fff" d="M6.8 4C5.25 4 4 5.25 4 6.8v1.003a2.796 2.796 0 0 1 2.8-2.801h50.4c1.55 0 2.8 1.25 2.8 2.8v-1A2.796 2.796 0 0 0 57.2 4Z" opacity=".1"/><path d="M22 19h6v28h-6z" opacity=".2"/><path fill="#d2b7e7" d="M22 18h6v28h-6z"/><path d="M41 29a8 9 0 0 0-8 9 8 9 0 0 0 8 9 8 9 0 0 0 3-.664v-5.037A4 5 0 0 1 41 43a4 5 0 0 1-4-5 4 5 0 0 1 4-5 4 5 0 0 1 3 1.703v-5.04A8 9 0 0 0 41 29" opacity=".2"/><path fill="#d2b7e7" d="M41 28a8 9 0 0 0-8 9 8 9 0 0 0 8 9 8 9 0 0 0 3-.664v-5.037A4 5 0 0 1 41 42a4 5 0 0 1-4-5 4 5 0 0 1 4-5 4 5 0 0 1 3 1.703v-5.04A8 9 0 0 0 41 28"/></svg>