<svg xmlns="http://www.w3.org/2000/svg" viewBox="0 0 64 64"><path d="M4 56.2v2C4 59.75 5.25 61 6.8 61h50.4c1.55 0 2.8-1.25 2.8-2.8v-2c0 1.55-1.25 2.8-2.8 2.8H6.8C5.25 59 4 57.75 4 56.2" opacity=".2"/><rect width="56" height="56" x="4" y="4" fill="#a34100" rx="2.8" ry="2.8"/><path fill="#fff" d="M6.8 4C5.25 4 4 5.25 4 6.8v1.003a2.796 2.796 0 0 1 2.8-2.801h50.4c1.55 0 2.8 1.25 2.8 2.8v-1A2.796 2.796 0 0 0 57.2 4Z" opacity=".1"/><path d="M14 19v28h6v-8h10v-4H20V23h12l-1-4H20z" opacity=".2"/><path fill="#ff7d25" d="M14 18v28h6v-8h10v-4H20V22h12l-1-4H20z"/><path d="M42 19v10c8 0 8 9 8 9s0 9-7 9-7-2-7-2V19zm1 14h-1v10h1s3 0 3-5-3-5-3-5" opacity=".2"/><path fill="#ff7d25" d="M42 18v10c8 0 8 9 8 9s0 9-7 9-7-2-7-2V18zm1 14h-1v10h1s3 0 3-5-3-5-3-5"/></svg>