<svg xmlns="http://www.w3.org/2000/svg" viewBox="0 0 64 64"><path d="M4 56.2v2C4 59.75 5.25 61 6.8 61h50.4c1.55 0 2.8-1.25 2.8-2.8v-2c0 1.55-1.25 2.8-2.8 2.8H6.8C5.25 59 4 57.75 4 56.2" opacity=".2"/><rect width="56" height="56" x="4" y="4" fill="#ce6f23" rx="2.8" ry="2.8"/><path fill="#fff" d="M6.8 4C5.25 4 4 5.25 4 6.8v1.003a2.796 2.796 0 0 1 2.8-2.801h50.4c1.55 0 2.8 1.25 2.8 2.8v-1A2.796 2.796 0 0 0 57.2 4z" opacity=".1"/><path d="m23 19-6 28h6l1.053-8h3.472L29 47h6l-7-28zm18.5 0a2.5 2.5 0 0 0-2.5 2.5 2.5 2.5 0 0 0 2.5 2.5 2.5 2.5 0 0 0 2.5-2.5 2.5 2.5 0 0 0-2.5-2.5M39 27v20h5V27zm-13.5 1 1.29 7h-2.212z" opacity=".2"/><path fill="#fed642" d="m23 18-6 28h6l1.053-8h3.472L29 46h6l-7-28zm18.5 0a2.5 2.5 0 0 0-2.5 2.5 2.5 2.5 0 0 0 2.5 2.5 2.5 2.5 0 0 0 2.5-2.5 2.5 2.5 0 0 0-2.5-2.5M39 26v20h5V26zm-13.5 1 1.29 7h-2.212z"/></svg>