<svg xmlns="http://www.w3.org/2000/svg" viewBox="0 0 64 64"><path d="M4 56.2v2C4 59.75 5.25 61 6.8 61h50.4c1.55 0 2.8-1.25 2.8-2.8v-2c0 1.55-1.25 2.8-2.8 2.8H6.8C5.25 59 4 57.75 4 56.2" opacity=".2"/><rect width="56" height="56" x="4" y="4" fill="#5f3271" rx="2.8" ry="2.8"/><path fill="#fff" d="M6.8 4C5.25 4 4 5.25 4 6.8v1.003a2.796 2.796 0 0 1 2.8-2.801h50.4c1.55 0 2.8 1.25 2.8 2.8v-1A2.796 2.796 0 0 0 57.2 4Z" opacity=".1"/><path d="M35 20v27h4V34h4c2 0 2 2 2 2v11h4V35c0-2-2-5-7-5-1.163 0-2.149.115-3 .281V20z" opacity=".2"/><path fill="#da97fb" d="M35 19v27h4V33h4c2 0 2 2 2 2v11h4V34c0-2-2-5-7-5-1.163 0-2.149.115-3 .281V19z"/><path d="M26.5 19A11.5 14 0 0 0 15 33a11.5 14 0 0 0 11.5 14 11.5 14 0 0 0 3.5-.67v-7.176A5.5 8 0 0 1 26.5 41a5.5 8 0 0 1-5.5-8 5.5 8 0 0 1 5.5-8 5.5 8 0 0 1 3.5 1.844v-7.162A11.5 14 0 0 0 26.5 19" opacity=".2"/><path fill="#da97fb" d="M26.5 18A11.5 14 0 0 0 15 32a11.5 14 0 0 0 11.5 14 11.5 14 0 0 0 3.5-.67v-7.176A5.5 8 0 0 1 26.5 40a5.5 8 0 0 1-5.5-8 5.5 8 0 0 1 5.5-8 5.5 8 0 0 1 3.5 1.844v-7.162A11.5 14 0 0 0 26.5 18"/></svg>