<svg xmlns="http://www.w3.org/2000/svg" viewBox="0 0 64 64"><path d="M4 56.2v2C4 59.75 5.25 61 6.8 61h50.4c1.55 0 2.8-1.25 2.8-2.8v-2c0 1.55-1.25 2.8-2.8 2.8H6.8C5.25 59 4 57.75 4 56.2" opacity=".2"/><rect width="56" height="56" x="4" y="4" fill="#900d65" rx="2.8" ry="2.8"/><path fill="#fff" d="M6.8 4C5.25 4 4 5.25 4 6.8v1.003a2.796 2.796 0 0 1 2.8-2.801h50.4c1.55 0 2.8 1.25 2.8 2.8v-1A2.796 2.796 0 0 0 57.2 4z" opacity=".1"/><path d="m14 19 5.496 14L14 47h6l2.496-9L26 47h5l-5.504-14L32 19h-6l-3.504 9L20 19zm30 0v10c-8 0-8 9-8 9s0 9 7 9 7-2 7-2V19zm-1 14h1v10h-1s-3 0-3-5 3-5 3-5" opacity=".2"/><path fill="#f3bfe1" d="M44 18v10c-8 0-8 9-8 9s0 9 7 9 7-2 7-2V18zm-1 14h1v10h-1s-3 0-3-5 3-5 3-5M14 46h6l2.497-9L26 46h5l-5.503-14L32 18h-6l-3.503 9L20 18h-6l5.497 14z"/></svg>