<svg xmlns="http://www.w3.org/2000/svg" viewBox="0 0 64 64"><rect width="56" height="56" x="4" y="5" opacity=".2" rx="4.2" ry="4.2"/><rect width="56" height="56" x="4" y="4" fill="#16a1db" rx="4.2" ry="4.2"/><path d="m23 14-7 8.5L9 31h7v20h14V31h7l-7-8.5zm19 7v12h-5.8l4.9 5.6 4.9 5.6 4.9-5.6 4.9-5.6H50V21Z" opacity=".2"/><path fill="#fff" d="M16 28h14v22H16z"/><path fill="#fff" d="m23 13 7 8.5 7 8.5H9l7-8.5z"/><path fill="#a2cced" d="M42 36h8V20h-8z"/><path fill="#a2cced" d="m46 43.2 4.9-5.6 4.9-5.6H36.2l4.9 5.6z"/><path fill="#fff" d="M8.2 4A4.19 4.19 0 0 0 4 8.2v1A4.19 4.19 0 0 1 8.2 5h47.6A4.19 4.19 0 0 1 60 9.2v-1A4.19 4.19 0 0 0 55.8 4z" opacity=".2"/></svg>