<svg xmlns="http://www.w3.org/2000/svg" viewBox="0 0 64 64"><path d="m12 44-2-8-3 3-3-20s12 11 28 11 28-11 28-11l-3 20-3-3-2 8-6-8H18z" opacity=".2"/><path fill="#323232" d="m12 43-2-8-3 3-3-20s12 11 28 11 28-11 28-11l-3 20-3-3-2 8-6-8H18z"/><path fill="#fff" d="m4 18 .162 1.14C5.01 19.899 16.594 30 32 30s26.99-10.102 27.838-10.86L60 18S48 29 32 29 4 18 4 18" opacity=".1"/><path d="m18 50 6 11 8-9 8 9 6-11v-3H18z" opacity=".2"/><path fill="#e4e4e4" d="m18 49 6 11 8-9 8 9 6-11v-3H18z"/><path d="M15 5v45s6 3 17 3 17-3 17-3V5L38 19H26z" opacity=".1"/><path fill="#96f" d="M15 4v45s6 3 17 3 17-3 17-3V4L38 18H26z"/><circle cx="25" cy="40" r="7" opacity=".2"/><circle cx="25" cy="39" r="7" fill="#15b7ff"/><circle cx="39" cy="40" r="7" opacity=".2"/><circle cx="39" cy="39" r="7" fill="#15b7ff"/><path fill="#fff" d="M15 4v1l11 14h12L49 5V4L38 18H26zm10 28a7 7 0 0 0-7 7 7 7 0 0 0 .023.541A7 7 0 0 1 25 33a7 7 0 0 1 6.977 6.459A7 7 0 0 0 32 39a7 7 0 0 0-7-7m14 0a7 7 0 0 0-7 7 7 7 0 0 0 .023.541A7 7 0 0 1 39 33a7 7 0 0 1 6.977 6.459A7 7 0 0 0 46 39a7 7 0 0 0-7-7" opacity=".2"/></svg>