<svg xmlns="http://www.w3.org/2000/svg" viewBox="0 0 16 16"><path fill="#7963e6" d="M11.642 6.861a1.6 1.6 0 0 1 .167.772H9.961a1.067 1.067 0 0 1 1-1.151.67.67 0 0 1 .681.379m-6.8.984h1.575L5.6 4.756c-.1.699-.464 1.889-.758 3.089M15 1v14H1V1zM8.5 11 6.338 3.7h-1.5a2 2 0 0 1-.03.409.7.7 0 0 0-.03.2L2.869 11H4l.539-2.06h2.12L7.252 11zm4.426-3.3a2.87 2.87 0 0 0-.424-1.454 1.6 1.6 0 0 0-1.514-.727 1.91 1.91 0 0 0-1.651.833 3.61 3.61 0 0 0-.03 3.907 2.08 2.08 0 0 0 1.863.833 3.2 3.2 0 0 0 1.333-.242.17.17 0 0 0 .06-.151v-.824c0-.057-.032-.059-.091-.061a2.3 2.3 0 0 1-1.885.028 1.41 1.41 0 0 1-.629-1.3h1.726q.454 0 .727-.015a2.3 2.3 0 0 0 .394-.045.06.06 0 0 0 .046-.015l.049-.046c0-.061 0-.156.015-.288s.014-.277.014-.439Z" data-iconColor="Adobe Elements"/></svg>