<svg xmlns="http://www.w3.org/2000/svg" viewBox="0 0 64 64"><path d="M20.7 5a2.8 2.8 0 0 0-2.748 2.267l-9.8 50.4c-.45 2.313 1.986 4.113 4.066 3.005L32 50l19.782 10.672c2.08 1.108 4.515-.692 4.066-3.005l-9.8-50.4A2.8 2.8 0 0 0 43.3 5z" opacity=".2"/><path fill="#4f4f4f" d="M20.7 4a2.8 2.8 0 0 0-2.748 2.267l-9.8 50.4c-.45 2.313 1.986 4.113 4.066 3.005L32 49l19.782 10.672c2.08 1.108 4.515-.692 4.066-3.005l-9.8-50.4A2.8 2.8 0 0 0 43.3 4z"/><path d="m32 43 7-13-7-12-7 12z" opacity=".2"/><path fill="#fff" d="m32 42 7-13-7-12-7 12z"/><path fill="#f9f9f9" d="M20.7 4a2.8 2.8 0 0 0-2.749 2.268L8.152 56.666a2.8 2.8 0 0 0-.004 1.04l.004-.038 9.8-50.4A2.8 2.8 0 0 1 20.698 5H43.3c1.34 0 2.492.952 2.748 2.268l9.799 50.4q.001.02.004.037a2.8 2.8 0 0 0-.004-1.039l-9.8-50.398A2.8 2.8 0 0 0 43.302 4z" opacity=".1"/></svg>