<svg xmlns="http://www.w3.org/2000/svg" xmlns:xlink="http://www.w3.org/1999/xlink" viewBox="0 0 128 128"><defs><linearGradient id="c" x1="-11.15%" x2="86.867%" y1="109.403%" y2="7.443%"><stop offset="0%" stop-color="#0079ff"/><stop offset="100%" stop-color="#f419b0"/></linearGradient><linearGradient id="e" x1="21.837%" x2="-7.127%" y1="76.944%" y2="124.836%"><stop offset="0%" stop-color="#09f7fe" stop-opacity="0"/><stop offset="100%" stop-color="#00ffec" stop-opacity=".185"/></linearGradient><linearGradient id="f" x1="22.014%" x2="50%" y1="-20.096%" y2="50%"><stop offset="0%" stop-color="#ffd300"/><stop offset="100%" stop-color="#ffd000" stop-opacity="0"/></linearGradient><linearGradient id="g" x1="102.842%" x2="66.419%" y1="0%" y2="44.432%"><stop offset="0%" stop-color="#ff3b8a"/><stop offset="100%" stop-color="#ff3d98" stop-opacity="0"/></linearGradient><linearGradient id="j" x1="12.708%" x2="12.708%" y1="-23.729%" y2="94.609%"><stop offset="0%" stop-color="#ffe7f4"/><stop offset="100%" stop-color="#f9f9ff"/></linearGradient><filter id="a" width="119.2%" height="119.2%" x="-9.6%" y="-7.7%" filterUnits="objectBoundingBox"><feOffset dy="2" in="SourceAlpha" result="shadowOffsetOuter1"/><feGaussianBlur in="shadowOffsetOuter1" result="shadowBlurOuter1" stdDeviation="3"/><feColorMatrix in="shadowBlurOuter1" result="shadowMatrixOuter1" values="0 0 0 0 0 0 0 0 0 0 0 0 0 0 0 0 0 0 0.2 0"/><feMerge><feMergeNode in="shadowMatrixOuter1"/><feMergeNode in="SourceGraphic"/></feMerge></filter><filter id="i" width="128.6%" height="135.8%" x="-14.3%" y="-11.4%" filterUnits="objectBoundingBox"><feOffset dy="4" in="SourceAlpha" result="shadowOffsetOuter1"/><feGaussianBlur in="shadowOffsetOuter1" result="shadowBlurOuter1" stdDeviation="3"/><feColorMatrix in="shadowBlurOuter1" values="0 0 0 0 0 0 0 0 0 0.0350400191 0 0 0 0 0.298035553 0 0 0 0.16 0"/></filter><rect id="b" width="104" height="104" x="0" y="0" rx="20"/><path id="h" d="M87.5 24a2.5 2.5 0 1 1 0 5H86v33.744c0 3.567-.371 4.86-1.069 6.163a7.27 7.27 0 0 1-3.024 3.024C80.604 72.63 79.311 73 75.744 73H57.387l7.57 8.303a2.5 2.5 0 0 1-.035 3.407l-.128.125a2.5 2.5 0 0 1-3.532-.163L51.25 73.688 41.238 84.672a2.5 2.5 0 1 1-3.695-3.369L45.112 73H27.256c-3.567 0-4.86-.371-6.163-1.069a7.27 7.27 0 0 1-3.024-3.024C17.37 67.604 17 66.311 17 62.744V29h-1.5a2.5 2.5 0 1 1 0-5zM22 29v33.744c0 2.4.116 3.094.438 3.73l.04.075c.23.433.54.742.973.973.633.339 1.258.468 3.525.477L75.744 68c2.497 0 3.147-.126 3.805-.478.433-.23.742-.54.973-.973.352-.658.478-1.308.478-3.805V29zm29 11a2 2 0 0 1 2 2v13a2 2 0 1 1-4 0V42a2 2 0 0 1 2-2m9 2a2 2 0 0 1 2 2v9a2 2 0 1 1-4 0v-9a2 2 0 0 1 2-2m-18 1a2 2 0 0 1 2 2v7a2 2 0 1 1-4 0v-7a2 2 0 0 1 2-2m-9 2a2 2 0 0 1 2 2v4a2 2 0 1 1-4 0v-4a2 2 0 0 1 2-2m36 1a2 2 0 0 1 2 2v2a2 2 0 1 1-4 0v-2a2 2 0 0 1 2-2"/></defs><g fill="none" filter="url(#a)" transform="translate(12 12)"><use xlink:href="#b" fill="url(#c)"/><use xlink:href="#b" fill="url(#e)"/><use xlink:href="#b" fill="url(#f)"/><use xlink:href="#b" fill="url(#g)"/><use xlink:href="#h" fill="#000" filter="url(#i)"/><use xlink:href="#h" fill="url(#j)"/></g></svg>