<svg xmlns="http://www.w3.org/2000/svg" viewBox="0 0 64 64"><path d="M28.7 13c-7.492-.008-12.161 4.875-14.333 9.402C8.37 24.676 4 30.422 4 37.141 4 45.779 11.147 53 19.813 53h24.375C52.853 53 60 45.78 60 37.14c0-8.639-7.147-15.863-15.812-15.863q-.124 0-.247.004c-.07.003-.13.04-.199.043-.506-.278-1.037-.417-1.578-.633-3.94-4.8-5.974-7.683-13.465-7.691" opacity=".2"/><path fill="#006680" d="M28.7 12c-7.492-.008-12.161 4.875-14.333 9.402C8.37 23.676 4 29.422 4 36.141 4 44.779 11.147 52 19.813 52h24.375C52.853 52 60 44.78 60 36.14c0-8.639-7.147-15.863-15.812-15.863q-.124 0-.247.004c-.07.003-.13.04-.199.043-.506-.278-1.037-.417-1.578-.633-3.94-4.8-5.974-7.683-13.465-7.691"/><path d="M28.7 21c-4.315 0-7.813 3.52-7.813 7.861q.009.297.042.586a12 12 0 0 0-1.116-.17c-4.315 0-7.813 3.52-7.813 7.862C12 41.48 15.498 45 19.813 45h24.374C48.5 45 52 41.48 52 37.139c0-4.342-3.499-7.861-7.813-7.861a6.8 6.8 0 0 0-2.398.51 5.95 5.95 0 0 0-4.69-2.289c-.242.014-.474.022-.698.042-.624-3.713-3.835-6.54-7.702-6.54z" opacity=".2"/><path fill="#33b3bc" d="M28.7 20c-4.315 0-7.813 3.52-7.813 7.861q.009.297.042.586a12 12 0 0 0-1.116-.17c-4.315 0-7.813 3.52-7.813 7.862C12 40.48 15.498 44 19.813 44h24.374C48.5 44 52 40.48 52 36.139c0-4.342-3.499-7.861-7.813-7.861a6.8 6.8 0 0 0-2.398.51 5.95 5.95 0 0 0-4.69-2.289c-.242.014-.474.022-.698.042-.624-3.713-3.835-6.54-7.702-6.54z"/><path fill="#fff" d="M28.7 12c-7.492-.008-12.161 4.875-14.333 9.402C8.37 23.676 4 29.422 4 36.141c0 .15.02.294.023.443.235-6.476 4.513-11.971 10.344-14.182C16.54 17.875 21.208 12.992 28.7 13s9.524 2.89 13.465 7.691c.54.216 1.072.355 1.578.633.07-.003.13-.04.2-.043q.122-.003.245-.004c8.497 0 15.516 6.949 15.788 15.364.005-.168.025-.332.025-.5 0-8.64-7.147-15.864-15.812-15.864q-.124 0-.247.004c-.07.002-.13.04-.199.043-.506-.278-1.037-.417-1.578-.633-3.94-4.8-5.974-7.683-13.465-7.691" opacity=".1"/></svg>