<svg xmlns="http://www.w3.org/2000/svg" xmlns:xlink="http://www.w3.org/1999/xlink" viewBox="0 0 96 96"><defs><linearGradient id="b" x1="50%" x2="50%" y1="0%" y2="98.263%"><stop offset="0%" stop-color="#6aeb7c"/><stop offset="100%" stop-color="#47c054"/></linearGradient><filter id="a" width="131.6%" height="127.3%" x="-15.8%" y="-13.6%" filterUnits="objectBoundingBox"><feOffset dy="2" in="SourceAlpha" result="shadowOffsetOuter1"/><feGaussianBlur in="shadowOffsetOuter1" result="shadowBlurOuter1" stdDeviation="2"/><feColorMatrix in="shadowBlurOuter1" result="shadowMatrixOuter1" values="0 0 0 0 0 0 0 0 0 0 0 0 0 0 0 0 0 0 0.2 0"/><feMerge><feMergeNode in="shadowMatrixOuter1"/><feMergeNode in="SourceGraphic"/></feMerge></filter></defs><g fill="none" filter="url(#a)" transform="translate(10 4)"><path fill="url(#b)" d="m75.997 38.195.003-.48C76 16.884 58.987 0 38 0S0 16.885 0 37.714C0 58.544 17.013 75.43 38 75.43v11.61s38-11.129 38-48.843z"/><path fill="#fff" d="m18.847 55.129-2.833-29.884c-.152-1.61.945-3.38 2.453-3.944L36.126 14.7c1.034-.387 2.712-.385 3.746.003l17.661 6.629c1.508.563 2.605 2.334 2.453 3.944L57.153 55.16c-.154 1.615-1.545 3.187-3.124 3.515l-14.062 2.917c-1.086.225-2.828.228-3.931-.004L21.97 58.643c-1.579-.327-2.97-1.9-3.124-3.514M26 40a4 4 0 1 0 0-8 4 4 0 0 0 0 8m12 0a4 4 0 1 0 0-8 4 4 0 0 0 0 8m12 0a4 4 0 1 0 0-8 4 4 0 0 0 0 8"/></g></svg>