<svg xmlns="http://www.w3.org/2000/svg" xmlns:xlink="http://www.w3.org/1999/xlink" viewBox="0 0 32 32"><defs><filter id="a" width="1.24" height="1.24" x="-.12" y="-.12" color-interpolation-filters="sRGB"><feGaussianBlur stdDeviation="1.4"/></filter></defs><path d="M15.947 2.619a1 1 0 0 0-.86.586l-.464 1.03v.001l-2.818 6.25a1 1 0 0 0 .091.98 5 5 0 0 0 1.688 1.507 1 1 0 0 0 1.45-.616.99.99 0 0 1 .964-.74c.456 0 .846.298.965.738a1 1 0 0 0 1.45.616 5 5 0 0 0 1.689-1.508 1 1 0 0 0 .091-.983l-2.816-6.242-.465-1.031a1 1 0 0 0-.965-.588M16 6.051l2.023 4.488c-.547-.535-1.22-.92-2.021-.922H16c-.802 0-1.476.384-2.023.918zm-5.71 6.283a1 1 0 0 0-.419.088L3.62 15.24h-.002l-1.03.465a1 1 0 0 0 .003 1.824l1.031.465 6.246 2.816a1 1 0 0 0 .98-.091 5 5 0 0 0 1.507-1.684 1 1 0 0 0-.614-1.451.994.994 0 0 1-.74-.967.99.99 0 0 1 .74-.963 1 1 0 0 0 .617-1.451 5 5 0 0 0-1.505-1.69 1 1 0 0 0-.563-.18m11.452 0a1 1 0 0 0-.594.18 5 5 0 0 0-1.505 1.687 1 1 0 0 0 .615 1.451.99.99 0 0 1 .742.965c0 .457-.3.846-.74.965a1 1 0 0 0-.615 1.45c.36.648.861 1.238 1.507 1.687a1 1 0 0 0 .98.091l6.247-2.816 1.031-.465a1 1 0 0 0 .002-1.824l-1.03-.465h-.001l-6.252-2.818a1 1 0 0 0-.387-.088M16 13.617a3 3 0 0 0-3 3 3 3 0 0 0 3 3 3 3 0 0 0 3-3 3 3 0 0 0-3-3m-6.078.977C9.387 15.14 9 15.814 9 16.615v.002c0 .8.382 1.474.914 2.022l-4.48-2.022Zm12.164.002 4.48 2.021-4.488 2.024c.536-.548.921-1.221.922-2.024 0-.8-.382-1.474-.914-2.021m-8.006 5.537a1 1 0 0 0-.494.125 5 5 0 0 0-1.69 1.506 1 1 0 0 0-.091.98l2.818 6.254.002.002.465 1.027a1 1 0 0 0 1.822-.002l.465-1.03 2.816-6.247a1 1 0 0 0-.091-.98 5 5 0 0 0-1.684-1.506 1 1 0 0 0-1.451.615.99.99 0 0 1-.965.74.99.99 0 0 1-.965-.742 1 1 0 0 0-.957-.742m-.101 2.566c.546.534 1.218.917 2.019.918H16c.798 0 1.47-.379 2.018-.908L16 27.184Z" color="#000" enable-background="accumulate" filter="url(#a)" font-family="sans-serif" font-weight="400" opacity=".35" overflow="visible" paint-order="stroke fill markers" style="line-height:normal;font-variant-ligatures:normal;font-variant-position:normal;font-variant-caps:normal;font-variant-numeric:normal;font-variant-alternates:normal;font-feature-settings:normal;text-indent:0;text-align:start;text-decoration-line:none;text-decoration-style:solid;text-decoration-color:#000;text-transform:none;text-orientation:mixed;white-space:normal;shape-padding:0;isolation:auto;mix-blend-mode:normal;solid-color:#000;solid-opacity:1"/><circle cx="16" cy="15" r="3" fill="#fff" paint-order="stroke fill markers"/><circle cx="16" cy="15" r="2" fill="#5294e2" paint-order="stroke fill markers"/><path fill="#fff" d="M15.947 1.002a1 1 0 0 0-.86.586l-.464 1.03v.001l-2.818 6.25a1 1 0 0 0 .091.98 5 5 0 0 0 1.688 1.506 1 1 0 0 0 1.45-.615.99.99 0 0 1 .964-.74c.456 0 .846.298.965.738a1 1 0 0 0 1.45.616 5 5 0 0 0 1.689-1.508 1 1 0 0 0 .091-.983l-2.816-6.242-.465-1.031a1 1 0 0 0-.965-.588M16 4.434l2.023 4.488c-.547-.535-1.22-.92-2.021-.922H16c-.802 0-1.476.384-2.023.918zm-5.71 6.283a1 1 0 0 0-.419.088L3.62 13.623h-.002l-1.03.465a1 1 0 0 0 .003 1.824l1.031.465 6.246 2.816a1 1 0 0 0 .98-.091 5 5 0 0 0 1.507-1.684 1 1 0 0 0-.614-1.451A.994.994 0 0 1 11 15a.99.99 0 0 1 .74-.963 1 1 0 0 0 .617-1.451 5 5 0 0 0-1.505-1.69 1 1 0 0 0-.563-.18m11.452 0a1 1 0 0 0-.594.18 5 5 0 0 0-1.505 1.687 1 1 0 0 0 .615 1.451A.99.99 0 0 1 21 15c0 .457-.3.846-.74.965a1 1 0 0 0-.615 1.45c.36.648.861 1.238 1.507 1.687a1 1 0 0 0 .98.091l6.247-2.816 1.031-.465a1 1 0 0 0 .002-1.824l-1.03-.465h-.001l-6.252-2.818a1 1 0 0 0-.387-.088m-11.82 2.26c-.535.547-.921 1.22-.922 2.021V15c0 .8.382 1.474.914 2.021L5.434 15Zm12.164.002L26.566 15l-4.488 2.023c.536-.547.921-1.22.922-2.023 0-.8-.382-1.474-.914-2.021m-8.006 5.537a1 1 0 0 0-.494.125 5 5 0 0 0-1.69 1.506 1 1 0 0 0-.091.98l2.818 6.254.002.002.465 1.027a1 1 0 0 0 1.822-.002l.465-1.031 2.816-6.246a1 1 0 0 0-.091-.98 5 5 0 0 0-1.684-1.506 1 1 0 0 0-1.451.615.99.99 0 0 1-.965.74.99.99 0 0 1-.965-.742 1 1 0 0 0-.957-.742m-.101 2.566c.546.534 1.218.917 2.019.918H16c.798 0 1.47-.379 2.018-.908L16 25.566Z" color="#000" enable-background="accumulate" font-family="sans-serif" font-weight="400" overflow="visible" paint-order="stroke fill markers" style="line-height:normal;font-variant-ligatures:normal;font-variant-position:normal;font-variant-caps:normal;font-variant-numeric:normal;font-variant-alternates:normal;font-feature-settings:normal;text-indent:0;text-align:start;text-decoration-line:none;text-decoration-style:solid;text-decoration-color:#000;text-transform:none;text-orientation:mixed;white-space:normal;shape-padding:0;isolation:auto;mix-blend-mode:normal;solid-color:#000;solid-opacity:1"/><path fill="#282a33" d="m16 2-.465 1.03-2.818 6.25a4 4 0 0 0 1.351 1.2A2 2 0 0 1 16 9a2 2 0 0 1 1.928 1.479c.53-.294 1-.695 1.353-1.204l-2.816-6.244zm-5.719 9.717L4.03 14.535 3 15l1.031.465 6.246 2.816a4 4 0 0 0 1.202-1.35A2 2 0 0 1 10 15a2 2 0 0 1 1.482-1.93 4 4 0 0 0-1.2-1.353m11.438 0a4 4 0 0 0-1.201 1.351A2 2 0 0 1 22 15a2 2 0 0 1-1.48 1.93c.293.53.694.998 1.203 1.351l6.246-2.816L29 15l-1.03-.465zm-7.649 7.799c-.53.293-1 .693-1.353 1.2l2.818 6.255.465 1.027.465-1.031 2.816-6.246a4 4 0 0 0-1.35-1.201A2 2 0 0 1 16 21a2 2 0 0 1-1.93-1.484" paint-order="stroke fill markers"/></svg>