<svg xmlns="http://www.w3.org/2000/svg" viewBox="0 0 64 64"><circle cx="32.5" cy="6.5" r="3.5" opacity=".2"/><circle cx="32" cy="36" r="24" opacity=".2"/><circle cx="56.5" cy="55.5" r="5.5" opacity=".2"/><circle cx="7.5" cy="53.5" r="2.5" opacity=".2"/><circle cx="32.5" cy="5.5" r="3.5" fill="#e2222f"/><circle cx="32" cy="35" r="24" fill="#e2222f"/><circle cx="56.5" cy="54.5" r="5.5" fill="#e2222f"/><circle cx="7.5" cy="52.5" r="2.5" fill="#e2222f"/><path fill="#fff" d="M32.5 2A3.5 3.5 0 0 0 29 5.5a3.5 3.5 0 0 0 .039.506A3.5 3.5 0 0 1 32.5 3a3.5 3.5 0 0 1 3.461 2.994A3.5 3.5 0 0 0 36 5.5 3.5 3.5 0 0 0 32.5 2m-.5 9A24 24 0 0 0 8 35a24 24 0 0 0 .021.582A24 24 0 0 1 32 12a24 24 0 0 1 23.979 23.418L56 35a24 24 0 0 0-24-24m24.5 38a5.5 5.5 0 0 0-5.5 5.5 6 6 0 0 0 .025.486A5.5 5.5 0 0 1 56.5 50a5.5 5.5 0 0 1 5.475 5.014A6 6 0 0 0 62 54.5a5.5 5.5 0 0 0-5.5-5.5m-49 1A2.5 2.5 0 0 0 5 52.5a2.5 2.5 0 0 0 .053.496A2.5 2.5 0 0 1 7.5 51a2.5 2.5 0 0 1 2.447 2.004A2.5 2.5 0 0 0 10 52.5 2.5 2.5 0 0 0 7.5 50" opacity=".2"/><path d="m32 17-16 9v8l23 8-7 4-9-5v-2l-7-2.449V45l16 9 16-9v-8l-23-8 7-4 9 5v2l7 2.502V26Z" opacity=".2"/><path fill="#fff" d="m32 16-16 9v8l23 8-7 4-9-5v-2l-7-2.449V44l16 9 16-9v-8l-23-8 7-4 9 5v2l7 2.502V25Z"/></svg>