<svg xmlns="http://www.w3.org/2000/svg" viewBox="0 0 64 64"><rect width="48" height="45.333" x="8" y="11.67" opacity=".2" rx="2.4" ry="2.267"/><rect width="48" height="45.333" x="8" y="10.67" fill="#4f4f4f" rx="2.4" ry="2.267"/><rect width="60" height="6" x="2" y="9" opacity=".2" rx="2.727" ry="3"/><rect width="60" height="6" x="2" y="8" fill="#a5b1b3" rx="2.727" ry="3"/><path d="m20.813 22.984-2.829 2.828L25.172 33l-7.188 7.188 2.828 2.828 8.602-8.602 8.602-8.602-2.828-2.828L28 30.172ZM32 45v4h16v-4z" opacity=".2"/><path fill="none" stroke="#3498db" stroke-width="4" d="M32 46h16"/><path fill="none" stroke="#236ac6" stroke-width="4" d="M36.6 23.4 28 32"/><path fill="#fff" d="m35.188 21.984-8.602 8.602.5.5 8.102-8.102 2.328 2.328.5-.5z" opacity=".1"/><path fill="none" stroke="#3498db" stroke-width="4" d="M19.4 23.4 28 32l-8.6 8.6"/><path fill="#fff" d="M4.727 8C3.216 8 2 9.338 2 11q.002.256.045.498C2.262 10.078 3.372 9 4.727 9h54.546c1.355 0 2.465 1.078 2.682 2.498q.043-.242.045-.498c0-1.662-1.216-3-2.727-3zM32 44v1h16v-1zM20.814 21.986l-2.828 2.828.5.5 2.328-2.328 9.514 9.514.5-.5zM24.672 32.5l-6.686 6.686.5.5L25.172 33z" opacity=".2"/></svg>