<svg xmlns="http://www.w3.org/2000/svg" viewBox="0 0 64 64"><rect width="56" height="56" x="4" y="4" fill="#fecd38" rx="28" ry="28"/><path fill="#fff" d="M32 4C16.488 4 4 16.488 4 32c0 .114.011.224.018.336C4.369 17.134 16.71 5 32 5s27.63 12.134 27.982 27.336c.007-.112.018-.223.018-.336C60 16.488 47.512 4 32 4" opacity=".1"/><g fill="#3f3f3f" transform="matrix(1.4 0 0 1.4 -75.874 4.516)"><circle cx="69.91" cy="12.489" r="2.857"/><circle cx="84.196" cy="12.489" r="2.857"/><path d="M69.444 24.355a8.795 10.554 0 0 0 7.61 5.277 8.795 10.554 0 0 0 7.602-5.277h-1.068a8.795 10.554 0 0 1-6.535 3.518 8.795 10.554 0 0 1-6.537-3.518z"/></g><path d="m4.049 33 .002.018V33zm.002.018c-.013.328-.051.65-.051.982 0 .224.012.445.018.668q.019-.325.033-.65L4.049 34h.002v.018C4.588 49.05 16.83 61 32 61c15.174 0 27.421-11.958 27.95-27q.012.333.032.664c.006-.221.018-.441.018-.664 0-.338-.039-.665-.05-1C59.42 48.042 47.173 60 32 60 16.832 60 4.588 48.051 4.05 33.018" opacity=".2"/></svg>