<svg xmlns="http://www.w3.org/2000/svg" viewBox="0 0 64 64"><circle cx="32" cy="33" r="28" opacity=".2"/><circle cx="32" cy="32" r="28" fill="#1a73e8"/><path d="M15.773 21a1.772 1.563 0 0 0-1.535 2.344L18 29.094v10.258C18 42.48 20.55 45 23.715 45h18.57C45.451 45 48 42.48 48 39.352V26.648C48 23.52 45.45 21 42.285 21h-18.57z" opacity=".2"/><rect width="30" height="24" x="18" y="20" fill="#fff" rx="5.714" ry="5.647"/><path fill="#fff" d="M15.773 20a1.772 1.563 0 0 0-1.536 2.345l4.017 6.136 4.013 6.137a1.772 1.563 0 0 0 3.07 0l4.012-6.137 4.014-6.136A1.772 1.563 0 0 0 31.83 20H23.8z"/><rect width="22" height="3" x="22" y="24" fill="#8ab4f8" rx="1.5" ry="1.5"/><rect width="16" height="3" x="22.2" y="36" fill="#8ab4f8" rx="1.5" ry="1.5"/><rect width="22" height="3" x="22" y="30" fill="#8ab4f8" rx="1.5" ry="1.5"/><path fill="#fff" d="M32 4A28 28 0 0 0 4 32a28 28 0 0 0 .018.492A28 28 0 0 1 32 5a28 28 0 0 1 27.975 27.492A28 28 0 0 0 60 32 28 28 0 0 0 32 4" opacity=".2"/></svg>