<svg xmlns="http://www.w3.org/2000/svg" xmlns:xlink="http://www.w3.org/1999/xlink" viewBox="0 0 128 128"><defs><filter id="a" width="129.4%" height="116.7%" x="-14.7%" y="-6.7%" filterUnits="objectBoundingBox"><feOffset dy="2" in="SourceAlpha" result="shadowOffsetOuter1"/><feGaussianBlur in="shadowOffsetOuter1" result="shadowBlurOuter1" stdDeviation="3"/><feColorMatrix in="shadowBlurOuter1" result="shadowMatrixOuter1" values="0 0 0 0 0 0 0 0 0 0 0 0 0 0 0 0 0 0 0.2 0"/><feMerge><feMergeNode in="shadowMatrixOuter1"/><feMergeNode in="SourceGraphic"/></feMerge></filter></defs><g fill="none" fill-rule="evenodd" filter="url(#a)" transform="translate(30 4)"><path fill="#c1b6aa" d="M4.353 0h59.294A4.353 4.353 0 0 1 68 4.353v111.294A4.353 4.353 0 0 1 63.647 120H4.353A4.353 4.353 0 0 1 0 115.647V4.353A4.353 4.353 0 0 1 4.353 0"/><path fill="#f7ebde" d="M4.902 2h58.196C64.701 2 66 3.3 66 4.902v110.196c0 1.603-1.3 2.902-2.902 2.902H4.902A2.9 2.9 0 0 1 2 115.098V4.902C2 3.299 3.3 2 4.902 2"/><path fill="#1a1a1a" d="M4 13h60v93H4z"/><circle cx="44.5" cy="8" r="1.5" fill="#1c1c1c"/><path stroke="#8a837b" stroke-linecap="round" d="M30 8h10M23.5 8h2"/></g></svg>