<svg xmlns="http://www.w3.org/2000/svg" viewBox="0 0 16.933 16.933"><g paint-order="stroke fill markers" transform="translate(0 -280.07)"><circle cx="8.467" cy="288.53" r="7.144" fill="#ececec" stroke="#ccc" stroke-width=".529"/><circle cx="8.467" cy="288.53" r="7.144" fill="#ececec"/><path fill="#fdc409" d="M12.965 292.5a.264.264 0 0 0 .265-.265v-4.497a.264.264 0 0 0-.265-.265h-1.587v3.704a.264.264 0 0 1-.265.265H8.467a.264.264 0 0 1-.264-.265v-3.704H6.615a.264.264 0 0 0-.265.265v4.497c0 .147.118.265.265.265z"/><path fill="#b61f1d" d="M5.82 287.478v2.381l2.382-2.38z"/><path fill="#e5381f" d="M4.233 284.83a.264.264 0 0 0-.264.265v4.497c0 .147.118.265.264.265h1.588v-3.704c0-.147.118-.265.264-.265h2.646c.147 0 .265.118.265.265v3.704h1.587a.264.264 0 0 0 .265-.265v-4.497a.264.264 0 0 0-.265-.265z"/><path fill="#e76f08" d="m11.377 287.478-2.381 2.381h2.38z"/><rect width="1.058" height="1.058" x="11.642" y="285.62" fill="#e76f08" ry="0"/><rect width="1.058" height="1.058" x="208.92" y="201.81" fill="#f6aa08" ry="0" transform="rotate(45)"/></g></svg>