<svg xmlns="http://www.w3.org/2000/svg" viewBox="0 0 64 64"><path fill="#0088d1" d="M27.836 5.004c-.45-.012-.91.036-1.36.148l-.011.004c-1.835.462-3.22 1.892-3.586 3.676l-2.617 12.8L7.96 26.79c-1.903.798-2.862 2.424-2.953 4.117s.687 3.405 2.492 4.39l11.684 6.38 1.23 13c.375 3.97 5.198 5.781 8.23 3.054l9.833-8.843 13.046 2.87c4.05.89 7.27-2.99 5.551-6.62L51.461 33.27l6.855-11.227c1.049-1.72.852-3.567-.101-4.996s-2.642-2.38-4.703-2.145l-13.29 1.528-8.824-9.801a4.98 4.98 0 0 0-3.562-1.625"/><path d="M27.404 5.007a5.911 5.757 0 0 0-1.172.172 5.911 5.757 0 0 0-4.332 4.45l-2.515 12.29-11.812 4.95a5.911 5.757 0 0 0-.555 10.308l11.219 6.12 1.18 12.476a5.911 5.757 0 0 0 9.893 3.702l9.454-8.5 12.542 2.761a5.911 5.757 0 0 0 6.668-8.026l-5.378-11.377 6.574-10.767a5.911 5.757 0 0 0-5.774-8.66L40.62 16.375l-8.482-9.419a5.911 5.757 0 0 0-4.734-1.949m.282 5.97.008.007s-.01.012-.008.012c.018.001.034.018 0-.02m.05.054 8.426 9.36a6 6.001 0 0 0 5.144 1.945l12.458-1.433-6.29 10.302a6 6.001 0 0 0-.304 5.694l5.168 10.92-12.286-2.703a6 6.001 0 0 0-5.304 1.398l-9.382 8.443-1.158-12.221a6 6.001 0 0 0-3.096-4.703l-10.71-5.848 11.3-4.734a6 6.001 0 0 0 3.562-4.329z" opacity=".2"/><path fill="#e4e4e4" d="M27.404 4.007a5.911 5.757 0 0 0-1.172.172 5.911 5.757 0 0 0-4.332 4.45l-2.515 12.29-11.812 4.95a5.911 5.757 0 0 0-.555 10.308l11.219 6.12 1.18 12.476a5.911 5.757 0 0 0 9.893 3.702l9.454-8.5 12.542 2.761a5.911 5.757 0 0 0 6.668-8.026l-5.378-11.377 6.574-10.767a5.911 5.757 0 0 0-5.774-8.66L40.62 15.375l-8.482-9.419a5.911 5.757 0 0 0-4.734-1.949m.282 5.97.008.007s-.01.012-.008.012c.018.001.034.018 0-.02m.05.054 8.426 9.36a6 6.001 0 0 0 5.144 1.945l12.458-1.433-6.29 10.302a6 6.001 0 0 0-.304 5.694l5.168 10.92-12.286-2.703a6 6.001 0 0 0-5.304 1.398l-9.382 8.443-1.158-12.221a6 6.001 0 0 0-3.096-4.703l-10.71-5.848 11.3-4.734a6 6.001 0 0 0 3.562-4.329z"/><path fill="#fff" d="M27.404 4.008a5.911 5.757 0 0 0-1.172.172A5.911 5.757 0 0 0 21.9 8.629l-2.515 12.289-11.813 4.951a5.911 5.757 0 0 0-3.494 6.06 5.911 5.757 0 0 1 3.494-5.06l11.813-4.951L21.9 9.628a5.911 5.757 0 0 1 4.332-4.448 5.911 5.757 0 0 1 1.172-.172 5.911 5.757 0 0 1 4.735 1.949l8.48 9.418 12.777-1.469a5.911 5.757 0 0 1 6.561 5.213 5.911 5.757 0 0 0-6.56-6.213l-12.778 1.469-8.48-9.418a5.911 5.757 0 0 0-4.735-1.95m26.36 16.894-.657.077-5.632 9.226a6 6.001 0 0 0-.823 3.524 6 6.001 0 0 1 .823-2.524zm-42.326 10.85-1.038.434 10.713 5.847a6 6.001 0 0 1 3.096 4.703l1.158 12.221 9.381-8.443a6 6.001 0 0 1 5.305-1.399l12.285 2.703-.527-1.117-11.758-2.586a6 6.001 0 0 0-5.305 1.399l-9.38 8.443-1.159-12.22a6 6.001 0 0 0-3.096-4.704zm41.423 2.146-.265.436 5.377 11.375a5.911 5.757 0 0 1 .52 1.9 5.911 5.757 0 0 0-.52-2.9z" opacity=".2"/></svg>