<svg xmlns="http://www.w3.org/2000/svg" viewBox="0 0 64 64"><g transform="matrix(1.4375 0 0 1.4 -.5 -1.2)"><path d="M13.787 42.286s15.083-2.143 19.952 0l1.391-2.143 2.087.714 1.827-17.006-7.75-12.496H16.706L10.87 28.85v10.62z" opacity=".2"/><path fill="#4a2803" d="M13.787 41.572s15.083-2.143 19.952 0l1.391-2.143 2.087.714 1.827-17.007-7.75-12.495H16.706L10.87 28.135v10.621z"/><path d="M34.212 28.85s0 2.5 2.918 2.5 1.583-2.5 1.583-2.5 1.335-2.498-1.583-2.498-2.918 2.499-2.918 2.499" opacity=".2"/><path fill="#d3aa7b" d="M34.212 28.137s0 2.499 2.918 2.499 1.583-2.5 1.583-2.5 1.335-2.498-1.583-2.498-2.918 2.499-2.918 2.499"/><path d="M24.696 36.571c-8.754 0-12.703-12.72-12.703-12.72s1.81-12.496 13.481-12.496c11.672 0 11.672 14.995 11.672 14.995s-3.697 10.221-12.45 10.221" opacity=".2"/><path fill="#debf9c" d="M24.68 35.859c-8.753 0-12.703-12.72-12.703-12.72s1.81-12.496 13.482-12.496S37.13 25.638 37.13 25.638s-3.696 10.22-12.45 10.22"/><path d="M25.41 3.714c-7.246-.017-10.41 4-11.264 4.86-.264-1.288-1.276-2.717-4.059-2.717l3.034 3.684c-.308.323-.614.602-.947 1.316H9.39s.7.754 1.883 1.13C9.691 14.464 8 17.613 8 23.657c0 15.948 1.39 17.914 1.39 17.914l1.392.715v-2.143l3.478 4.286V31.57s.13-3.428 4.87-.714c-2.653-4.857-4.174-10-4.174-10s2.782-1.428 2.782-5.714c4.174 13.571 18.05 11.4 19.459 12.841 1.445 1.477.02 8.587.02 8.587s-1.088 6.845.079 4.906c1.508-2.507 2.7-16.365 2.702-23.446.001-7.174-5.787-11.447-5.787-11.447s-2.917-2.856-8.803-2.87" opacity=".2"/><path fill="#723f05" d="M25.41 3C18.163 2.983 15 7 14.145 7.86c-.264-1.289-1.276-2.717-4.059-2.717l3.034 3.684c-.308.322-.614.602-.947 1.316H9.39s.7.754 1.883 1.13C9.691 13.749 8 16.898 8 22.943c0 15.948 1.39 17.914 1.39 17.914l1.392.714V39.43l3.478 4.285V30.857s.13-3.428 4.87-.714c-2.653-4.857-4.174-10-4.174-10s2.782-1.429 2.782-5.714c4.174 13.571 18.05 11.4 19.459 12.84 1.445 1.478.02 8.588.02 8.588s-1.088 6.845.079 4.906c1.508-2.507 2.7-16.366 2.702-23.446C40 10.143 34.212 5.87 34.212 5.87S31.295 3.014 25.41 3"/><path fill="#302100" d="M18.116 20.632c1.71-.49 2.406.225 2.406.225s-.904-.396-2.066.004C17.463 21.204 17 23 17 23s.043-2.143 1.116-2.368"/><path fill="none" stroke="#302100" stroke-linecap="round" stroke-linejoin="round" stroke-width=".564" d="M24.696 33s1.246-.564 2.353-.655c.614-.05 1.125.284 1.125.284M25 30s.52.729 2.385.729C28.843 30.729 29 29 29 29"/><path fill="#ff8080" d="m37 23-1.05 3.832c.598.11 1.036.237 1.235.43z"/><path fill="#302100" d="M20.53 22.997c-1.209 0-2.097 1.283-2.097 2.86s.89 2.859 2.098 2.859 2.068-1.273 2.068-2.85-.86-2.87-2.069-2.87m-.008.717c.703 0 1.39.954 1.391 2.143 0 1.19-.688 2.143-1.391 2.143s-1.391-.953-1.392-2.143.689-2.143 1.392-2.143"/><ellipse cx="14.261" cy="28" opacity=".2" rx="2.783" ry="2.857"/><ellipse cx="14.261" cy="27.286" fill="#debf9c" rx="2.783" ry="2.857"/><path fill="#fff" d="M25.409 3C18.164 2.983 15 7 14.146 7.86c-.263-1.289-1.276-2.717-4.059-2.717l.623.756c2.3.203 3.194 1.49 3.436 2.676.855-.86 4.018-4.878 11.263-4.86 5.886.013 8.804 2.87 8.804 2.87s5.673 4.198 5.777 11.253c.001-.163.01-.364.01-.52 0-7.175-5.788-11.448-5.788-11.448S31.294 3.013 25.41 3M12.813 9.166a3.7 3.7 0 0 0-.639.977H9.391s.357.365.96.714h1.823c.334-.714.64-.993.947-1.316zm-1.897 2.688c-1.469 2.396-2.914 5.5-2.914 11.089 0 .161.004.275.005.433.052-5.857 1.71-8.952 3.268-11.389q-.188-.06-.36-.133m4.23 8.879c-.058.035-.188.124-.188.124s1.337 4.477 3.668 9.02c.167.087.327.163.506.266-2.207-4.042-3.57-8.1-3.987-9.41m22.696 9.843c-.057 2.457-.623 5.281-.623 5.281s-.507 3.243-.44 4.615c.073-1.555.44-3.9.44-3.9s.682-3.41.623-5.997" opacity=".1"/></g></svg>