<svg xmlns="http://www.w3.org/2000/svg" viewBox="0 0 64 64"><path d="M16 4C9.906 4 5 8.906 5 15v41.25A2.744 2.744 0 0 0 7.75 59H49c6.094 0 11-4.906 11-11V6.75A2.744 2.744 0 0 0 57.25 4H32.5Z" opacity=".2"/><path d="M59.197 4.803 5.803 58.197A2.74 2.74 0 0 0 7.75 59H49c6.094 0 11-4.906 11-11V6.75c0-.762-.306-1.45-.803-1.947" opacity=".2"/><path fill="#80b436" d="M16 3C9.906 3 5 7.906 5 14v41.25A2.744 2.744 0 0 0 7.75 58H49c6.094 0 11-4.906 11-11V5.75A2.744 2.744 0 0 0 57.25 3H32.5Z"/><path fill="#fff" d="M16 3C9.906 3 5 7.906 5 14v1C5 8.906 9.906 4 16 4h41.25A2.744 2.744 0 0 1 60 6.75v-1A2.744 2.744 0 0 0 57.25 3H32.5Z" opacity=".2"/><path fill="#b2cf42" d="M59.197 3.803 5.803 57.197A2.74 2.74 0 0 0 7.75 58H49c6.094 0 11-4.906 11-11V5.75c0-.762-.306-1.45-.803-1.947"/><path d="M18 10c-7.026 0-7 7-7 7h7zm2 0v7h7v-7zm9 0v7h7v-7zm9 0v7h7v-7zm9 0v7h7v-7zm-36 9v7h7v-7zm9 0v7h7v-7zm9 0v7h7v-7zm9 0v7h7v-7zm9 0v7h7v-7zm-36 9v7h7v-7zm9 0v7h7v-7zm9 0v7h7v-7zm9 0v7h7v-7zm9 0v7h7v-7zm-36 9v7h7v-7zm9 0v7h7v-7zm9 0v7h7v-7zm9 0v7h7v-7zm9 0v7h7v-7zm-36 9v7h7v-7zm9 0v7h7v-7zm9 0v7h7v-7zm9 0v7h7v-7zm9 0v7c7.026 0 7-7 7-7z" opacity=".2"/><path fill="#f4f7e2" d="M18 9c-7.026 0-7 7-7 7h7zm2 0v7h7V9Zm9 0v7h7V9Zm9 0v7h7V9Zm9 0v7h7V9Zm-36 9v7h7v-7zm9 0v7h7v-7zm9 0v7h7v-7zm9 0v7h7v-7zm9 0v7h7v-7zm-36 9v7h7v-7zm9 0v7h7v-7zm9 0v7h7v-7zm9 0v7h7v-7zm9 0v7h7v-7zm-36 9v7h7v-7zm9 0v7h7v-7zm9 0v7h7v-7zm9 0v7h7v-7zm9 0v7h7v-7zm-36 9v7h7v-7zm9 0v7h7v-7zm9 0v7h7v-7zm9 0v7h7v-7zm9 0v7c7.026 0 7-7 7-7z"/></svg>