<svg xmlns="http://www.w3.org/2000/svg" viewBox="0 0 64 64"><rect width="56" height="56" x="4" y="5" opacity=".2" rx="3" ry="3"/><rect width="56" height="56" x="4" y="4" fill="#6c4ac4" rx="3" ry="3"/><path d="m13 13-3 36s0 3 3 3h38c3 0 3-3 3-3l-3-36z" opacity=".2"/><path fill="#e4e4e4" d="m13 12-3 36s0 3 3 3h38c3 0 3-3 3-3l-3-36z"/><path d="M22.5 20a3.5 3.5 0 0 0-3.5 3.5 3.5 3.5 0 0 0 3.5 3.5 3.5 3.5 0 0 0 3.5-3.5 3.5 3.5 0 0 0-3.5-3.5m19 0a3.5 3.5 0 0 0-3.5 3.5 3.5 3.5 0 0 0 3.5 3.5 3.5 3.5 0 0 0 3.5-3.5 3.5 3.5 0 0 0-3.5-3.5" opacity=".2"/><path fill="#ccc" d="M22.5 19a3.5 3.5 0 0 0-3.5 3.5 3.5 3.5 0 0 0 3.5 3.5 3.5 3.5 0 0 0 3.5-3.5 3.5 3.5 0 0 0-3.5-3.5m19 0a3.5 3.5 0 0 0-3.5 3.5 3.5 3.5 0 0 0 3.5 3.5 3.5 3.5 0 0 0 3.5-3.5 3.5 3.5 0 0 0-3.5-3.5"/><path d="M22.5 22.022a1.5 1.496 0 0 0-1.493 1.644s.276 3.423 1.705 6.92c.715 1.749 1.722 3.552 3.228 4.977S29.513 38 31.999 38s4.553-1.011 6.059-2.437 2.513-3.228 3.228-4.977c1.429-3.497 1.704-6.92 1.704-6.92a1.5 1.496 0 1 0-2.987-.253s-.274 3.058-1.494 6.044c-.61 1.492-1.453 2.931-2.515 3.936-1.062 1.006-2.282 1.615-3.995 1.615s-2.933-.61-3.995-1.615-1.905-2.444-2.515-3.936c-1.22-2.986-1.494-6.044-1.494-6.044a1.5 1.496 0 0 0-1.496-1.391" opacity=".2"/><path fill="#6c4ac4" d="M22.5 21.022a1.5 1.496 0 0 0-1.493 1.644s.276 3.423 1.705 6.92c.715 1.749 1.722 3.552 3.228 4.977S29.513 37 31.999 37s4.553-1.011 6.059-2.437 2.513-3.228 3.228-4.977c1.429-3.497 1.704-6.92 1.704-6.92a1.5 1.496 0 1 0-2.987-.253s-.274 3.058-1.494 6.044c-.61 1.492-1.453 2.931-2.515 3.936-1.062 1.006-2.282 1.615-3.995 1.615s-2.933-.61-3.995-1.615-1.905-2.444-2.515-3.936c-1.22-2.986-1.494-6.044-1.494-6.044a1.5 1.496 0 0 0-1.496-1.391"/><path fill="#fff" d="M7 4C5.338 4 4 5.338 4 7v1c0-1.662 1.338-3 3-3h50c1.662 0 3 1.338 3 3V7c0-1.662-1.338-3-3-3zm6 8-3 36s.002.187.045.455L13 13h38l2.955 35.455C53.998 48.187 54 48 54 48l-3-36z" opacity=".2"/></svg>