<svg xmlns="http://www.w3.org/2000/svg" viewBox="0 0 64 64"><rect width="56" height="56" x="4" y="5" opacity=".2" rx="5.6"/><rect width="56" height="56" x="4" y="4" fill="#283849" rx="5.6"/><path d="M14.914 52.6s2.723-7.74 6.515-9.943c6.093-3.54 15.036-3.518 21.142 0C46.388 44.855 49.2 52.6 49.2 52.6V13.4s-2.51 9.15-6.629 12c-3.95 2.733-15.173 3.746-21.142 0-4.229-2.653-6.515-12-6.515-12z" opacity=".2"/><path fill="#00a69b" d="M14.914 51.6s2.723-7.74 6.515-9.943c6.093-3.54 15.036-3.518 21.142 0C46.388 43.855 49.2 51.6 49.2 51.6V12.4s-2.51 9.15-6.629 12c-3.95 2.733-15.173 3.746-21.142 0-4.229-2.653-6.515-12-6.515-12z"/><path d="M22 33c0-11.046-3.134-20-7-20s-7 8.954-7 20 3.134 20 7 20 7-8.954 7-20" opacity=".2"/><path fill="#00d5c7" d="M22 32c0-11.046-3.134-20-7-20s-7 8.954-7 20 3.134 20 7 20 7-8.954 7-20"/><path d="M56 33c0-11.046-3.134-20-7-20s-7 8.954-7 20 3.134 20 7 20 7-8.954 7-20" opacity=".2"/><path fill="#00d5c7" d="M56 32c0-11.046-3.134-20-7-20s-7 8.954-7 20 3.134 20 7 20 7-8.954 7-20"/><path fill="#019187" d="M52 32c0-6.627-1.343-12-3-12s-3 5.373-3 12 1.343 12 3 12 3-5.373 3-12m-34 0c0-6.627-1.343-12-3-12s-3 5.373-3 12 1.343 12 3 12 3-5.373 3-12"/><path fill="#fff" d="M9.602 4A5.59 5.59 0 0 0 4 9.602v1A5.59 5.59 0 0 1 9.602 5h44.796A5.59 5.59 0 0 1 60 10.602v-1A5.59 5.59 0 0 0 54.398 4z" opacity=".1"/></svg>