<svg xmlns="http://www.w3.org/2000/svg" viewBox="0 0 64 64"><path fill="#248afd" d="M32 4c-.675 0-1.34.033-2.002.08l-.249.019c-10.002.79-18.473 6.794-22.753 15.307l-.003.005c-.277.552-.56 1.1-.801 1.671-1.31 2.96-2.023 6.101-2.152 9.39-.006.106-.006.213-.011.32-.009.314-.027.627-.025.943 0 .09-.004.176-.004.266 0 3.256.579 6.365 1.591 9.267a42 42 0 0 0 1.444 3.946c1.411 3.316 1.587 4.22 1.364 6.99-.154 1.929-.677 3.9-1.331 5.009C6.475 58.217 6 59.255 6 59.519c0 .817 4.719.53 8.896-.539 4.894-1.253 5.322-1.251 9.335.008 1.836.576 3.93.888 6.294.974.1.005.2.004.298.008.324.009.634.03.968.03l.08-.003.128.003c.782 0 1.554-.039 2.319-.101 6.922-.492 12.482-3.054 17.486-8.05a27.75 27.75 0 0 0 7.924-15.986c.04-.303.084-.606.115-.91.068-.654.108-1.316.13-1.983q.01-.25.015-.503c.004-.154.012-.31.012-.466 0-15.253-12.078-27.574-27.227-27.98l-.353-.008C32.278 4.01 32.14 4 32 4"/><g opacity=".2" transform="translate(0 1)scale(1.99999)"><circle cx="16" cy="16" r="2"/><circle cx="8" cy="16" r="2"/><circle cx="24" cy="16" r="2"/></g><g fill="#fff" transform="scale(1.99999)"><circle cx="16" cy="16" r="2"/><circle cx="8" cy="16" r="2"/><circle cx="24" cy="16" r="2"/></g><path fill="#fff" d="M32 4c-.674 0-1.338.032-2 .078l-.25.02c-10.002.79-18.474 6.808-22.754 15.336l-.004.003c-.277.552-.56 1.103-.8 1.676-1.311 2.965-2.024 6.113-2.153 9.407-.006.106-.003.214-.008.32-.008.316-.03.627-.027.943-.001.09-.004.176-.004.266 0 .12.01.237.016.355l.015-.564c.005-.106.002-.214.008-.32.13-3.294.842-6.442 2.152-9.407.241-.573.524-1.124.801-1.675l.004-.004c4.28-8.528 12.752-14.546 22.754-15.336l.25-.02A29 29 0 0 1 32 5c.14 0 .278.01.418.012q.176.002.352.008c14.983.402 26.956 12.48 27.218 27.527v-.03c.002-.156.012-.312.012-.468 0-15.28-12.08-27.623-27.23-28.03l-.352-.007C32.278 4.009 32.14 4 32 4M8.418 51.873c-.01.148-.007.256-.02.416-.154 1.931-.678 3.904-1.332 5.014C6.474 58.31 6 59.353 6 59.617c0 .187.27.309.703.383.124-.234.22-.449.363-.693.025-.043.046-.106.07-.15.088-.226.239-.525.395-.839.43-1.113.752-2.58.867-4.025.079-.98.078-1.719.02-2.42" opacity=".2"/><path d="M4.012 32.5c-.002.081-.009.162-.008.244 0 .09-.004.178-.004.268 0 3.254.577 6.36 1.59 9.261.407 1.3.879 2.613 1.445 3.944.913 2.144 1.277 3.292 1.383 4.576a14 14 0 0 0 .021-1.852c-.006.28 0 .532-.021.853-.106-1.284-.47-2.433-1.383-4.577a42 42 0 0 1-1.445-3.943A28 28 0 0 1 4.012 32.5m55.97.168-.007.312q-.033 1.001-.133 1.984c-.031.304-.073.606-.113.91q-.1.742-.239 1.472a27.73 27.73 0 0 1-7.687 14.505c-5.004 4.994-10.562 7.556-17.485 8.048a29 29 0 0 1-2.32.101l-.129-.003c-.027 0-.05.003-.078.003-.334 0-.645-.022-.969-.03-.099-.005-.198-.004-.297-.009-2.363-.085-4.46-.396-6.296-.972-4.014-1.259-4.442-1.26-9.336-.008-3.608.924-7.602 1.259-8.63.809-.155.339-.265.618-.265.73 0 .816 4.717.53 8.895-.54 4.894-1.252 5.322-1.25 9.336.009 1.835.576 3.933.886 6.296.972.1.005.198.004.297.008.324.009.635.031.969.031l.078-.004.129.004c.782 0 1.555-.04 2.32-.102 6.923-.492 12.48-3.053 17.485-8.047a27.73 27.73 0 0 0 7.926-15.978c.04-.303.082-.605.113-.91.068-.653.11-1.317.133-1.983.005-.168.011-.332.013-.5.002-.158.012-.315.012-.47 0-.116-.01-.229-.018-.342" opacity=".2"/></svg>