<svg xmlns="http://www.w3.org/2000/svg" viewBox="0 0 64 64"><path d="M41.267 46.93c.376.931.284 1.929-1.074 2.667l-4.434 3.202c-.795.389-2.148 2.134 0 3.174-1.827-.238-2.215-1.532-2.685-2.641L24.481 30.39l13.564 8.536Z" opacity=".2"/><path d="M30.926 20h26.285c2.1 0 3.789 1.665 3.789 3.735v28.53C61 54.335 59.311 56 57.211 56H36.296c-1.074 0-1.777-.316-2.417-1.059Z" opacity=".2"/><path fill="#e4e4e4" d="M30.926 19h26.285c2.1 0 3.789 1.665 3.789 3.735v28.53C61 53.335 59.311 55 57.211 55H36.296c-1.074 0-1.777-.316-2.417-1.059Z"/><path d="m42.615 31.354-1.748-.098c.019.527-.019.994-.098 1.619-.04.331-.118 1.36-.195 1.866h-.336c-1.196 0-2.689-.137-3.73-.312l.021 1.521c1.139.098 2.375.196 3.73.196h.019c-.491 2.203-1.276 5.009-2.276 6.958l1.451.527c.197-.35.374-.623.609-.917 1.315-1.54 3.476-3.03 5.81-3.03 2.298 0 3.495 1.821 3.495 3.264 0 3.22-4.397 3.98-8.951 3.355l.411 1.561c5.968.623 10.151-.877 10.151-4.954 0-2.263-1.827-4.552-4.948-4.552-2.042 0-3.808 1.178-5.516 2.368.411-1.113.862-2.981 1.217-4.619 2.492-.098 5.496-.411 7.793-.819l-.018-1.482c-2.415.525-5.184.798-7.481.896.098-.429.157-1.418.216-1.71.117-.527.216-1.132.373-1.638Zm7.361-.684-1.04.448c.53.723 1.197 1.911 1.59 2.712l1.061-.467c-.392-.801-1.12-1.991-1.611-2.693m2.18-.78-1.041.449c.55.721 1.198 1.834 1.63 2.69l1.06-.485c-.374-.724-1.14-1.932-1.649-2.654" opacity=".1"/><path fill="#fff" d="m30.926 19 .084 1h26.201c2.1 0 3.789 1.664 3.789 3.734v-1C61 20.664 59.311 19 57.211 19Z" opacity=".2"/><path fill="#6b6a6e" d="m42.615 30.354-1.748-.098c.019.527-.019.994-.098 1.619-.04.331-.118 1.36-.195 1.866h-.336c-1.196 0-2.689-.137-3.73-.312l.021 1.521c1.139.098 2.375.196 3.73.196h.019c-.491 2.203-1.276 5.009-2.276 6.958l1.451.527c.197-.35.374-.623.609-.917 1.315-1.54 3.476-3.03 5.81-3.03 2.298 0 3.495 1.821 3.495 3.264 0 3.22-4.397 3.98-8.951 3.355l.411 1.561c5.968.623 10.151-.877 10.151-4.954 0-2.263-1.827-4.552-4.948-4.552-2.042 0-3.808 1.178-5.516 2.368.411-1.113.862-2.981 1.217-4.619 2.492-.098 5.496-.411 7.793-.819l-.018-1.482c-2.415.525-5.184.798-7.481.896.098-.429.157-1.418.216-1.71.117-.527.216-1.132.373-1.638Zm7.361-.684-1.04.448c.53.723 1.197 1.911 1.59 2.712l1.061-.467c-.392-.801-1.12-1.991-1.611-2.693m2.18-.78-1.041.449c.55.721 1.198 1.834 1.63 2.69l1.06-.485c-.374-.724-1.14-1.932-1.649-2.654"/><path fill="#1d7a4f" d="M41.267 45.93c.376.931.284 1.929-1.074 2.667l-4.434 3.202c-.795.389-2.148 2.134 0 3.174-1.827-.238-2.215-1.532-2.685-2.641L24.481 29.39l13.564 8.536Z"/><path d="M6.788 10.048 27.137 10c2.1-.005 3.032 1.854 3.789 3.784 1.252 3.586 10.603 33.802 10.603 33.802-.433-.91-1.473-1.586-2.547-1.586H6.789C4.689 46 3 44.332 3 42.261V13.784A3.794 3.794 0 0 1 6.789 10Z" opacity=".2"/><path fill="#33d17a" d="M6.788 9.048 27.137 9c2.1-.005 3.032 1.854 3.789 3.784 1.252 3.586 10.603 33.802 10.603 33.802-.433-.91-1.473-1.586-2.547-1.586H6.789C4.689 45 3 43.332 3 41.261V12.784A3.794 3.794 0 0 1 6.789 9Z"/><path d="M12 35h6.078C22.512 35 26 31.921 26 28.043 26 24.103 22.513 21 18.078 21H12Zm5.994-11C20.349 24 22 25.803 22 28.043c0 2.194-1.663 3.722-4.006 3.957H16v-8Z" opacity=".2"/><path fill="#fff" d="M12 34h6.078C22.512 34 26 30.921 26 27.043 26 23.103 22.513 20 18.078 20H12Zm5.994-11C20.349 23 22 24.803 22 27.043c0 2.194-1.663 3.722-4.006 3.957H16v-8Z"/><path fill="#fff" d="M6.79 9C4.69 9 3 10.714 3 12.785v1A3.795 3.795 0 0 1 6.79 10v.047L27.136 10c2.1-.005 3.031 1.855 3.789 3.785C32.11 17.175 40.084 42.927 41 45.887c.214.209.403.437.527.699 0 0-9.349-30.215-10.601-33.801-.758-1.93-1.689-3.79-3.789-3.785l-20.348.047Z" opacity=".2"/></svg>