<svg xmlns="http://www.w3.org/2000/svg" xmlns:xlink="http://www.w3.org/1999/xlink" viewBox="0 0 96 96"><defs><linearGradient id="a" x1="50%" x2="50%" y1="0%" y2="100%"><stop offset="0%" stop-color="#66b0ff"/><stop offset="100%" stop-color="#4180f9"/></linearGradient><filter id="b" width="133.3%" height="129.6%" x="-16.7%" y="-14.8%" filterUnits="objectBoundingBox"><feOffset dy="2" in="SourceAlpha" result="shadowOffsetOuter1"/><feGaussianBlur in="shadowOffsetOuter1" result="shadowBlurOuter1" stdDeviation="2"/><feColorMatrix in="shadowBlurOuter1" result="shadowMatrixOuter1" values="0 0 0 0 0 0 0 0 0 0 0 0 0 0 0 0 0 0 0.2 0"/><feMerge><feMergeNode in="shadowMatrixOuter1"/><feMergeNode in="SourceGraphic"/></feMerge></filter></defs><g fill="url(#a)" fill-rule="evenodd" filter="url(#b)" transform="translate(12 7.288)"><path d="M72 40.712v18.823a2 2 0 0 1-1.029 1.749L36 80.712l-36-20v-2.6a2 2 0 0 1 2.971-1.75l30.058 16.7A2 2 0 0 0 36 71.312v-10.6zM1.912 36.05c.325 0 .645.083.929.24L36 54.712v6L1.047 41.78A2 2 0 0 1 0 40.021v-2.059c0-1.056.856-1.912 1.912-1.912M36.972.252l34 18.889A2 2 0 0 1 72 20.889v13.823l-36 20V42.066a4 4 0 0 0-2.057-3.497L3.147 21.46a2 2 0 0 1 0-3.496L35.029.252a2 2 0 0 1 1.942 0"/></g></svg>