<svg xmlns="http://www.w3.org/2000/svg" viewBox="0 0 64 64"><path d="M4.162 46.345C4.835 50.035 5.557 55 11.142 55c6.98 0 9.771-4.97 18.147-4.97S39.06 55 47.436 55C51.624 55 60 49.65 60 43.86c0-8.654-9.565-8.287-11.545-14.424C47.059 25.11 50.228 8 40.457 8c-8.376 0-11.168 11.34-13.96 17.109-3.464 7.157-12.564 8.654-19.544 12.982-2.523 1.564-3.337 5.266-2.791 8.254" opacity=".2"/><path fill="#5cc49f" d="M4.162 45.346C4.835 49.036 5.557 54 11.142 54c6.98 0 9.771-4.97 18.147-4.97S39.06 54 47.436 54C51.624 54 60 48.65 60 42.86c0-8.654-9.565-8.287-11.545-14.424C47.059 24.11 50.228 7 40.457 7c-8.376 0-11.168 11.34-13.96 17.11-3.464 7.157-12.564 8.654-19.544 12.98-2.523 1.565-3.337 5.268-2.791 8.256"/><path fill="#fff" d="M40.457 7c-8.376 0-11.169 11.34-13.96 17.11-3.464 7.157-12.564 8.655-19.544 12.982-2.14 1.327-3.04 4.19-2.933 6.853.131-2.351 1.06-4.693 2.933-5.855 6.98-4.327 16.08-5.823 19.543-12.98C29.288 19.34 32.081 8 40.457 8c9.772 0 6.602 17.108 7.998 21.436 1.923 5.961 11.003 5.787 11.52 13.707.004-.095.025-.187.025-.282 0-8.654-9.565-8.289-11.545-14.425C47.06 24.108 50.23 7 40.457 7" opacity=".2"/></svg>