<svg xmlns="http://www.w3.org/2000/svg" viewBox="0 0 64 64"><path d="M10 13a3 3 0 0 0-1.97 5.262l15.406 13.43L5.029 47.737A3 3 0 0 0 7 53h8a3 3 0 0 0 1.97-.738L32 39.16l15.03 13.102A3 3 0 0 0 49 53h8a3 3 0 0 0 1.97-5.262L40.565 31.691l15.407-13.43A3 3 0 0 0 54 13h-8a3 3 0 0 0-1.97.738L32 24.225 19.97 13.738A3 3 0 0 0 18 13Z" opacity=".2"/><path fill="#3e9e90" d="M10 12a3 3 0 0 0-1.97 5.262l15.406 13.43L5.029 46.737A3 3 0 0 0 7 52h8a3 3 0 0 0 1.97-.738L32 38.16l15.03 13.102A3 3 0 0 0 49 52h8a3 3 0 0 0 1.97-5.262L40.565 30.691l15.407-13.43A3 3 0 0 0 54 12h-8a3 3 0 0 0-1.97.738L32 23.225 19.97 12.738A3 3 0 0 0 18 12z"/><path fill="#fff" d="M10 12a3 3 0 0 0-2.955 3.492A3 3 0 0 1 10 13h8a3 3 0 0 1 1.97.738L32 24.225l12.03-10.487A3 3 0 0 1 46 13h8a3 3 0 0 1 2.955 2.504A3 3 0 0 0 54 12h-8a3 3 0 0 0-1.97.738L32 23.225 19.97 12.738A3 3 0 0 0 18 12zm12.861 19.191L5.03 46.738a3 3 0 0 0-.984 2.758 3 3 0 0 1 .984-1.758l18.407-16.047zm18.278 0-.575.5 18.407 16.047a3 3 0 0 1 .984 1.768 3 3 0 0 0-.984-2.768z" opacity=".1"/><path d="M17 36c0 3 9 13 15 13 5 0 15-10 15-13 0-12-7-19-15-19s-15 6-15 19" opacity=".2"/><path fill="#67c3b5" d="M17 35c0 3 9 13 15 13 5 0 15-10 15-13 0-12-7-19-15-19s-15 6-15 19"/><path d="M19 31s3 6 6 6h3s-1-6-5-6zm22 0c-4 0-5 6-5 6h3c3 0 6-6 6-6z" opacity=".1"/><path fill="#393939" d="M19 30s3 6 6 6h3s-1-6-5-6zm22 0c-4 0-5 6-5 6h3c3 0 6-6 6-6z"/><path fill="#fff" d="M32 16c-8 0-15 6-15 19 0 .051.022.12.027.176C17.324 22.759 24.175 17 32 17c7.811 0 14.65 6.687 14.969 18.172.005-.054.031-.122.031-.172 0-12-7-19-15-19" opacity=".2"/></svg>