<svg xmlns="http://www.w3.org/2000/svg" viewBox="0 0 64 64"><circle cx="32" cy="33" r="28" opacity=".2"/><circle cx="32" cy="32" r="28" fill="#455259"/><path fill="none" stroke="#000" stroke-width="2.8" d="m32 50.5-8.26-13.3L32 32.93l8.26 4.27zm16.1-25.9L32 50.5l-8.26-13.3zm-32.2 0L32 50.5l8.26-13.3z" opacity=".2"/><path fill="none" stroke="#ff5e49" stroke-width="2.8" d="M15.9 23.6 32 49.5l8.26-13.3Z"/><path fill="none" stroke="#5cd262" stroke-width="2.8" d="M48.1 23.6 32 49.5l-8.26-13.3Z"/><path fill="none" stroke="#fff" stroke-width="2.8" d="m32 49.5-8.26-13.3L32 31.93l8.26 4.27Z"/><path fill="#fff" d="M32 4A28 28 0 0 0 4 32a28 28 0 0 0 .018.492A28 28 0 0 1 32 5a28 28 0 0 1 27.975 27.492A28 28 0 0 0 60 32 28 28 0 0 0 32 4" opacity=".1"/></svg>