<svg xmlns="http://www.w3.org/2000/svg" viewBox="0 0 64 64"><circle cx="32" cy="33" r="28" opacity=".2"/><circle cx="32" cy="32" r="28" fill="#4c3aa7"/><path fill="#fff" d="M32 4A28 28 0 0 0 4 32a28 28 0 0 0 .021.586A28 28 0 0 1 32 5a28 28 0 0 1 27.979 27.414L60 32A28 28 0 0 0 32 4" opacity=".1"/><ellipse cx="15" cy="38.5" opacity=".2" rx="9" ry="11.5"/><ellipse cx="15" cy="37.5" fill="#dfdfdf" rx="9" ry="11.5"/><ellipse cx="17" cy="37" fill="#5ca32e" rx="4" ry="5"/><ellipse cx="31" cy="37" opacity=".2" rx="11" ry="13"/><ellipse cx="31" cy="36" fill="#dfdfdf" rx="11" ry="13"/><ellipse cx="34" cy="34.5" fill="#5ca32e" rx="5" ry="5.5"/><ellipse cx="34" cy="34.5" fill="#3f3f3f" rx="2" ry="2.5"/><ellipse cx="17.5" cy="37" fill="#3f3f3f" rx="1.5" ry="2"/></svg>