<svg xmlns="http://www.w3.org/2000/svg" xmlns:xlink="http://www.w3.org/1999/xlink" viewBox="0 0 64 64"><defs><linearGradient id="b"><stop offset="0" stop-color="#00e6ff"/><stop offset="1" stop-color="#00e6ff" stop-opacity="0"/></linearGradient><linearGradient id="a"><stop offset="0" stop-color="#0c8df2"/><stop offset="1" stop-color="#0c8df2" stop-opacity="0"/></linearGradient><linearGradient xlink:href="#a" id="c" x1="21.589" x2="24.06" y1="36.7" y2="26.864" gradientTransform="translate(-3.222 -2.111)scale(1.44444)" gradientUnits="userSpaceOnUse"/><linearGradient xlink:href="#b" id="d" x1="38.323" x2="30.099" y1="27.66" y2="22.787" gradientTransform="translate(-2.896 -3.385)scale(1.47403)" gradientUnits="userSpaceOnUse"/><linearGradient xlink:href="#b" id="e" x1="27.828" x2="19.208" y1="20.905" y2="23.493" gradientTransform="translate(-3.696 -2.784)scale(1.47403)" gradientUnits="userSpaceOnUse"/></defs><path d="M44.523 21.563s-1.56 3.435-1.691 11.304c9.208.098 11.19-3.91 19.082 3.281-3.127-7.898-9.101-10.375-17.39-14.585m-2.125 29.015V55h14.739s-2.946-4.422-14.739-4.422" opacity=".2"/><path d="M26.515 60.887c-2.896-.24-6.135-1.141-8.95-2.492C11.84 55.648 7.238 50.779 4.86 44.956a25.26 25.26 0 0 1-1.716-12.205c.62-5.692 3.08-10.863 7.162-15.055 1.928-1.98 4.602-3.91 7.032-5.079.5-.24.57-.262.388-.118l-.849.666A23.55 23.55 0 0 0 8.74 25.534c-.537 2.026-.757 3.757-.758 5.953 0 1.68.063 2.472.317 3.984.852 5.063 3.425 9.754 7.175 13.232a23 23 0 0 0 2.844 2.249c.367.245.4.248.343.027-.343-.027-.694-.517-.782-1.09-.2-1.305-.992-1.692-.878-2.889 0-7.11 4.584-12.071 9.419-15.4 1.845-1.245 3.736-2.08 6.117-2.704 1.81-.474 2.767-1.223 3.896-2.164.239-.198.403-.38.372-.41-.091-.09-1.734-.6-2.594-.807-1.929-.461-3.28-.517-5.538-.515-2.417.002-4.296.14-5.116.534-.382.184-2.126.385-2.854 1.268-2.382 2.893-3.34 5.663-4.093 9.306-.182.879.213-.194 0 0-.407.37.223.5 0 0-.233-.521-.758-1.093-.889-2.635-.082-.972-.282-2.614-.169-3.55.529-4.37 2.79-7.452 5.553-10.889.745-.926 2.012-2.416 2.936-3.14 2-1.57 4.309-2.195 6.608-3.055l-.14-1.918.006-.641c.006-.52.04-.737.182-1.147.273-.79.715-1.428 1.286-1.861l.34-.257.348.1c1.036.3 2.016 1.096 2.484 2.018.14.278.274 1.152.296 1.234.036.137.22 1.859.444 1.815.135-.027 2.114.337 3.046.332l1.616-.63-.19-1.58c.823-1.506 1.275-2.25 2.954-2.767l.823.383c.561.374.938.327 1.328.945.382.607.167.956.33 1.67.163.707.227 1.535.05 2.24-.2.8-.343 1.58-.735 2.165-1.374-.03.685.84.685.861 0 .02.366.364.814.763 2.3 2.049 4.337 4.725 5.753 7.556 0 0 2.608 5.006 2.629 11.793.049 2.384-.453 4.926-1.09 7.027-1.959 5.754-5.703 10.277-10.256 13.648l-.508.335.701.176c2.58.87 4.599 2.219 6.34 3.9h-18.39s-3.639.025-5.28-.112" opacity=".2"/><path fill="#0c8df2" d="M42.398 49.578c11.792 0 14.74 4.422 14.74 4.422h-14.74Zm2.127-29.014c8.289 4.21 14.262 6.685 17.39 14.583-7.893-7.19-9.875-3.183-19.083-3.28.13-7.87 1.693-11.303 1.693-11.303"/><path fill="#0cb7f2" d="M26.515 59.887c-2.896-.24-6.135-1.141-8.95-2.492C11.84 54.648 7.238 49.779 4.86 43.956a25.26 25.26 0 0 1-1.716-12.205c.62-5.692 3.08-10.863 7.162-15.055 1.928-1.98 4.602-3.91 7.032-5.079.5-.24.57-.262.388-.118l-.849.666A23.55 23.55 0 0 0 8.74 24.534c-.537 2.026-.757 3.757-.758 5.953 0 1.68.063 2.472.317 3.984.852 5.063 3.425 9.754 7.175 13.232a23 23 0 0 0 2.844 2.249c.367.245.4.248.343.027-.343-.027-.694-.517-.782-1.09-.2-1.305-.992-1.692-.878-2.889 0-7.11 4.584-12.071 9.419-15.4 1.845-1.245 3.736-2.08 6.117-2.704 1.81-.474 2.767-1.223 3.896-2.164.239-.198.403-.38.372-.41-.091-.09-1.734-.6-2.594-.807-1.929-.461-3.28-.517-5.538-.515-2.417.002-4.296.14-5.116.534-.382.184-2.126.385-2.854 1.268-2.382 2.893-3.34 5.663-4.093 9.306-.182.879-.126 1.643-.34 1.837-.406.37-.007-.303-.23-.803-.232-.52-.188-2.127-.319-3.669-.082-.972-.282-2.614-.169-3.55.529-4.37 2.79-7.452 5.553-10.889.745-.926 2.012-2.416 2.936-3.14 2-1.57 4.309-2.195 6.608-3.055l-.14-1.918.006-.641c.006-.52.04-.737.182-1.147.273-.79.715-1.428 1.286-1.861l.34-.257.348.1c1.036.3 2.016 1.096 2.484 2.018.14.278.274 1.152.296 1.234.036.137.22 1.859.444 1.815.135-.027 2.114.337 3.046.332l1.616-.63-.19-1.58c.823-1.506 1.275-2.25 2.954-2.767l.823.383c.561.374.938.327 1.328.945.382.607.167.956.33 1.67.163.707.227 1.535.05 2.24-.2.8-.343 1.58-.735 2.165-1.374-.03.685.84.685.861 0 .02.366.364.814.763 2.3 2.049 4.337 4.725 5.753 7.556 0 0 2.608 5.006 2.629 11.793.049 2.384-.453 4.926-1.09 7.027-1.959 5.754-5.703 10.277-10.256 13.648l-.508.335.701.176c2.58.87 4.599 2.219 6.34 3.9h-18.39s-3.639.025-5.28-.112"/><path fill="#fff" d="m32.322 6.016-.34.255c-.571.434-1.014 1.073-1.287 1.862-.142.41-.176.627-.181 1.146l-.006.643.015.213c.012-.402.047-.64.172-1.002.273-.79.716-1.428 1.287-1.862l.34-.255.348.1c1.036.298 2.017 1.094 2.484 2.017.141.278.273 1.152.295 1.234.037.137.22 1.859.444 1.815.135-.027 2.115.336 3.046.332l1.616-.631-.114-.955-1.502.586c-.931.004-2.911-.36-3.046-.332-.224.044-.407-1.678-.444-1.815-.022-.082-.154-.956-.295-1.234-.467-.923-1.448-1.719-2.484-2.018zm10.998.521c-1.679.517-2.13 1.262-2.953 2.768l.098.828c.759-1.38 1.248-2.1 2.855-2.596l.823.383c.56.374.939.328 1.328.945.383.608.166.956.33 1.67.058.253.096.524.123.797.068-.595.006-1.233-.123-1.797-.164-.714.053-1.062-.33-1.67-.39-.617-.767-.571-1.328-.945zm-25.53 4.877c-.058.018-.2.083-.45.203-2.43 1.168-5.106 3.099-7.033 5.078-4.082 4.192-6.542 9.365-7.162 15.057a25 25 0 0 0-.131 3.328c.01-.778.046-1.555.13-2.328.62-5.692 3.08-10.865 7.163-15.057 1.237-1.27 2.79-2.499 4.38-3.54a23 23 0 0 1 2.192-1.989l.848-.668c.09-.072.12-.101.062-.084m12.786.451c-2.276.846-4.556 1.475-6.535 3.028-.924.725-2.192 2.215-2.937 3.142-2.764 3.436-5.024 6.517-5.553 10.887-.042.348-.034.804-.012 1.277.005-.089.002-.197.012-.277.528-4.37 2.789-7.45 5.553-10.887.745-.927 2.013-2.417 2.937-3.142 2-1.57 4.308-2.194 6.607-3.053zm14.748 2.686a3 3 0 0 1-.209.39c-1.374-.03.686.84.686.86s.367.365.814.763c2.3 2.05 4.337 4.725 5.752 7.555 0 0 2.461 4.741 2.615 11.244.002-.149.017-.3.014-.449-.02-6.787-2.629-11.795-2.629-11.795-1.415-2.83-3.452-5.505-5.752-7.555-.447-.398-.814-.743-.814-.763 0-.006-.277-.15-.477-.25m-9.287 11.498c-.972.788-1.904 1.43-3.5 1.847-2.381.624-4.273 1.46-6.119 2.704C21.584 33.929 17 38.89 17 46a2 2 0 0 0 .02.54c.195-6.861 4.67-11.685 9.398-14.94 1.846-1.245 3.738-2.08 6.12-2.704 1.81-.473 2.764-1.223 3.894-2.164.238-.198.404-.38.373-.41-.035-.034-.413-.157-.768-.273m-28.043 4.91c-.003.178-.013.343-.014.527 0 1.68.064 2.473.319 3.985.852 5.064 3.424 9.754 7.174 13.232a23 23 0 0 0 2.843 2.248c.368.246.401.248.344.028-.344-.028-.695-.516-.783-1.09-.017-.112-.044-.208-.068-.307a23 23 0 0 1-2.336-1.879c-3.75-3.478-6.322-8.168-7.174-13.232-.225-1.338-.29-2.187-.305-3.512m36.139 25.248c-.163.125-.318.26-.483.38l-.507.337.7.176a16.2 16.2 0 0 1 5.202 2.898h1.139c-1.675-1.616-3.61-2.92-6.051-3.791" opacity=".2"/><path d="M22.044 27.31c-2.343 3.02-3.908 6.48-4.649 10.282-.178.916-.201.983-.411 1.185-.4.387-1.018.253-1.238-.268-.229-.544-.574-2.627-.702-4.236-.081-1.014-.045-3.379.067-4.355.52-4.56 2.121-8.59 4.84-12.176.733-.967 2.523-2.847 3.432-3.603 4.295-3.795 9.051-4.99 14.268-5.065l1.667-.008.203-.597a6.65 6.65 0 0 1 3.838-3.294L43.894 5l.352.25c.552.39 1.39 1.316 1.773 1.96.377.634.709 1.486.87 2.231.16.738.145 2.17-.03 2.907-.197.835-.492 1.568-.878 2.178-.185.294-.337.552-.337.573 0 0-.968 2.514-4.61 4.068-3.41 1.455-6.281.479-9.345 1.46-4.006 1.017-7.36 3.64-9.645 6.684" opacity=".1"/><path fill="#00e6ff" d="M22.044 26.31c-2.343 3.02-3.908 6.48-4.649 10.282-.178.916-.201.983-.411 1.185-.4.387-1.018.253-1.238-.268-.229-.544-.574-2.627-.702-4.236-.081-1.014-.045-3.379.067-4.355.52-4.56 2.121-8.59 4.84-12.176.733-.967 2.523-2.847 3.432-3.603 4.295-3.795 9.051-4.99 14.268-5.065l1.667-.008.203-.597a6.65 6.65 0 0 1 3.838-3.294L43.894 4l.352.25c.552.39 1.39 1.316 1.773 1.96.377.634.709 1.486.87 2.231.16.738.145 2.17-.03 2.907-.197.835-.492 1.568-.878 2.178-.185.294-.337.552-.337.573 0 0-.968 2.514-4.61 4.068-3.41 1.455-6.281.479-9.345 1.46-4.006 1.017-7.36 3.64-9.645 6.684"/><circle cx="30" cy="47" r="13" fill="url(#c)"/><path fill="url(#d)" d="M43.703 27.683c8.29 4.21 13.898 10.336 17.025 18.234-7.892-7.19-12.795-10.393-22.003-10.49.13-7.87 4.978-7.744 4.978-7.744"/><path fill="url(#e)" d="m36.605 25.223-.007.007c.002.002.03.01.03.012.002.002-.015.018-.015.02.02.009.153.044.16.05-.06-.028-.104-.061-.168-.09m.196.101c.026.033-.131.21-.367.406-1.13.941-2.089 1.69-3.899 2.165-2.38.623-4.271 1.458-6.117 2.703-1.34.903-2.564 2.098-3.664 3.445 2.112-.73 4.158-1.45 6.726-1.784 3.01-.39 4.79-.085 6.114-.398 1.16-.158 3.33-2.068 3.406-3.838.041-.96-.609-1.94-2.2-2.699"/><path fill="#fff" d="m43.895 4-.536.176a6.65 6.65 0 0 0-3.84 3.293l-.203.597-1.664.008c-5.217.075-9.974 1.272-14.27 5.067-.908.756-2.7 2.634-3.433 3.601-2.718 3.586-4.32 7.616-4.84 12.176-.068.599-.087 1.622-.084 2.598.014-.622.04-1.212.084-1.598.52-4.56 2.122-8.59 4.84-12.176.733-.967 2.525-2.845 3.434-3.601 4.295-3.795 9.052-4.992 14.27-5.067l1.663-.008.204-.597a6.65 6.65 0 0 1 3.84-3.293L43.894 5l.351.25c.552.39 1.39 1.317 1.774 1.96a8 8 0 0 1 .87 2.231c.032.146.056.317.07.5.022-.555.015-1.108-.07-1.5a8 8 0 0 0-.87-2.23c-.383-.644-1.222-1.571-1.774-1.961z" opacity=".2"/></svg>