<svg xmlns="http://www.w3.org/2000/svg" viewBox="0 0 64 64"><circle cx="32" cy="33" r="28" opacity=".2"/><circle cx="32" cy="32" r="28" fill="#1da1f2"/><path d="M45.998 18.986c-14.637 0-28 13.364-28 28.001 0 0 1.909-5.091 6.363-8.273s13.492-1.9 16.037-7.628c-4.455 0-7.127-1.03-7.127-1.03 5.09 0 12.727-3.645 12.727-11.07" opacity=".2"/><path fill="#fff" d="M45.998 17.986c-14.637 0-28 13.364-28 28.001 0 0 1.909-5.091 6.363-8.273s13.492-1.9 16.037-7.628c-4.455 0-7.127-1.03-7.127-1.03 5.09 0 12.727-3.645 12.727-11.07"/><path fill="#fff" d="M31.748 4.002A28 28 0 0 0 4.953 24.754a28 28 0 0 0-.928 7.906 28 28 0 0 1 .928-6.906 28 28 0 0 1 34.293-19.8A28 28 0 0 1 59.975 32.34 28 28 0 0 0 39.246 4.953a28 28 0 0 0-7.498-.951" opacity=".2"/></svg>