<svg xmlns="http://www.w3.org/2000/svg" viewBox="0 0 64 64"><rect width="46" height="46" x="9" y="15" opacity=".2" rx="14.375" ry="14.375"/><path fill="#df3d6b" d="M22 3.05s-7 7.002-7 12.602V20h34v-4.348c0-5.6-7-12.601-7-12.601s-7 7.001-7 12.601h-6c0-5.6-7-12.601-7-12.601"/><path d="M22 8.652s-4.2 4.199-4.2 7.559h8.4c0-3.36-4.2-7.559-4.2-7.559m20 0s-4.2 4.199-4.2 7.559h8.4c0-3.36-4.2-7.559-4.2-7.559" opacity=".3"/><path fill="#fff" d="M22 3.05s-7 7.002-7 12.602h.074C15.803 10.254 22 4.051 22 4.051s6.197 6.203 6.926 11.601H29c0-5.6-7-12.601-7-12.601m20 0s-7 7.002-7 12.602h.074C35.803 10.254 42 4.051 42 4.051s6.197 6.203 6.926 11.601H49c0-5.6-7-12.601-7-12.601" opacity=".1"/><rect width="46" height="46" x="9" y="14" fill="#f45884" rx="14.375" ry="14.375"/><path d="M25.625 21A10.617 10.617 0 0 0 15 31.625v12.75A10.617 10.617 0 0 0 25.625 55h12.75A10.617 10.617 0 0 0 49 44.375v-12.75A10.617 10.617 0 0 0 38.375 21Zm.238 2h12.274A8.83 8.83 0 0 1 47 31.863v12.274A8.83 8.83 0 0 1 38.137 53H25.863A8.83 8.83 0 0 1 17 44.137V31.863A8.83 8.83 0 0 1 25.863 23M25 28v20l17-10Z" opacity=".1" style="isolation:isolate"/><path fill="#464646" d="M25.625 20A10.617 10.617 0 0 0 15 30.625v12.75A10.617 10.617 0 0 0 25.625 54h12.75A10.617 10.617 0 0 0 49 43.375v-12.75A10.617 10.617 0 0 0 38.375 20zm.238 2h12.274A8.83 8.83 0 0 1 47 30.863v12.274A8.83 8.83 0 0 1 38.137 52H25.863A8.83 8.83 0 0 1 17 43.137V30.863A8.83 8.83 0 0 1 25.863 22M25 27v20l17-10z" style="isolation:isolate"/><path fill="#fff" d="M23.375 14A14.344 14.344 0 0 0 9 28.375v1A14.344 14.344 0 0 1 23.375 15h17.25A14.344 14.344 0 0 1 55 29.375v-1A14.344 14.344 0 0 0 40.625 14z" opacity=".2"/></svg>