<svg xmlns="http://www.w3.org/2000/svg" viewBox="0 0 64 64"><rect width="58" height="58" x="-62" y="-61" opacity=".2" rx="2.9" ry="2.9" transform="rotate(90)scale(-1 1)"/><rect width="58" height="58" x="-61" y="-61" fill="#f58a10" rx="2.9" ry="2.9" transform="rotate(90)scale(-1 1)"/><path fill="#f2f1c7" d="M9 9v46h46V9Z"/><path fill-rule="evenodd" d="M11.622 20.132c27.063-1.841 43.616 8.336 28.643 34.21 1.011-3.458.484-11.469-4.941-21.273-4.195-7.58-23.702-12.937-23.702-12.937" opacity=".1"/><path fill="#1595ff" fill-rule="evenodd" d="M11.622 19.132c27.063-1.84 43.616 8.337 28.643 34.21 1.011-3.457.484-11.468-4.941-21.272-4.195-7.581-23.702-12.938-23.702-12.938"/><path fill-rule="evenodd" d="M13.095 15.539c26.395-2.478 42.323 8.899 27.241 38.619 1.052-3.958.692-13.088-4.404-24.194-3.94-8.588-22.837-14.425-22.837-14.425" opacity=".1"/><path fill="#38b7ff" fill-rule="evenodd" d="M13.095 14.54c26.395-2.479 42.323 8.898 27.241 38.618 1.052-3.958.692-13.088-4.404-24.194-3.94-8.588-22.837-14.424-22.837-14.424"/><path fill-rule="evenodd" d="M17.419 11.437c29.838 3.026 45.349 17.357 22.813 43.125 1.937-3.629 3.307-12.572-.208-24.41-2.718-9.155-22.605-18.715-22.605-18.715" opacity=".1"/><path fill="#6be3ff" fill-rule="evenodd" d="M17.419 10.437c29.838 3.026 45.349 17.357 22.813 43.126 1.937-3.63 3.307-12.573-.208-24.411-2.718-9.154-22.605-18.715-22.605-18.715"/><circle cx="45" cy="40" r="2" opacity=".2"/><circle cx="45" cy="39" r="2" fill="#fff"/><circle cx="42.5" cy="46.5" r="1.5" opacity=".2"/><circle cx="42.5" cy="45.5" r="1.5" fill="#fff"/><rect width="5.595" height="21.246" x="48.1" y="-15.68" opacity=".1" ry="0" transform="matrix(.82633 .5632 -.55038 .83491 0 0)"/><rect width="5.595" height="21.246" x="47.55" y="-16.5" fill="#ffc60a" ry="0" transform="matrix(.82633 .5632 -.55038 .83491 0 0)"/><path d="m34.727 33.523 5.436 3.7-3.033 4.612-5.436-3.7z" opacity=".1"/><path fill="#835d1a" d="m34.728 32.52 5.437 3.7-3.033 4.612-5.437-3.7z"/><path fill-rule="evenodd" d="M29.79 39.83c-6.827 5.87-14.239 4.37-14.239 4.37L11 43.546s2.421 4.307 5.331 6.913c3.706 3.319 9.173 5.738 14.63.457 4.81-4.657 5.07-6.783 5.07-6.783z" opacity=".1"/><path fill="#1dadff" fill-rule="evenodd" d="M29.79 38.83c-6.827 5.87-14.239 4.37-14.239 4.37L11 42.546s2.421 4.307 5.331 6.913c3.706 3.319 9.173 5.738 14.63.457 4.81-4.657 5.07-6.783 5.07-6.783z"/><path d="M9 55h46v1H9z" opacity=".2"/><path fill="#fff" d="M5.898 3A2.89 2.89 0 0 0 3 5.898v1A2.89 2.89 0 0 1 5.898 4h52.204A2.89 2.89 0 0 1 61 6.898v-1A2.89 2.89 0 0 0 58.102 3z" opacity=".2"/></svg>