<svg xmlns="http://www.w3.org/2000/svg" viewBox="0 0 64 64"><path d="M12.75 5C11.226 5 10 6.249 10 7.8v50.4c0 1.55 1.226 2.8 2.75 2.8h38.5c1.522 0 2.75-1.25 2.75-2.8V23l-14-4-4-14z" opacity=".2"/><path fill="#528593" d="M12.75 4C11.226 4 10 5.249 10 6.8v50.4c0 1.55 1.226 2.8 2.75 2.8h38.5c1.522 0 2.75-1.25 2.75-2.8V22l-14-4-4-14z"/><path d="M54 23 36 5v15.188A2.806 2.806 0 0 0 38.812 23z" opacity=".2"/><path fill="#749caa" d="M54 22 36 4v15.188A2.806 2.806 0 0 0 38.812 22z"/><path fill="#fff" d="M12.75 4C11.226 4 10 5.25 10 6.801v1C10 6.25 11.226 5 12.75 5H36V4Z" opacity=".1"/><path d="M19.559 51h4.493l1.873-10.98L27.78 51h4.352l2.74-14h-2.86l-1.774 11.2h-.483L27.799 37h-3.727l-1.975 11.2h-.483L19.82 37H17Zm24.6 0H47l-3.747-14H38.92l-3.707 14h2.82l.766-3.2h4.594zm-4.775-5.58 1.41-5.84h.605l1.41 5.82z" opacity=".2"/><path fill="#f9f9f9" d="M19.559 50h4.493l1.873-10.98L27.78 50h4.352l2.74-14h-2.86l-1.774 11.2h-.483L27.799 36h-3.727l-1.975 11.2h-.483L19.82 36H17Zm24.6 0H47l-3.747-14H38.92l-3.707 14h2.82l.766-3.2h4.594zm-4.775-5.58 1.41-5.84h.605l1.41 5.82Z"/></svg>