<svg xmlns="http://www.w3.org/2000/svg" viewBox="0 0 64 64"><path d="M12.75 5C11.226 5 10 6.249 10 7.8v50.4c0 1.55 1.227 2.8 2.75 2.8h38.5c1.522 0 2.75-1.25 2.75-2.8V23l-14-4-4-14Z" opacity=".2"/><path fill="#f2ae37" d="M10 32v25.2c0 1.55 1.226 2.8 2.75 2.8H32V32Z"/><path fill="#38ac52" d="M32 4v28h22V22l-14-4-4-14Z"/><path d="M54 23 36 5v15.188A2.806 2.806 0 0 0 38.813 23Z" opacity=".2"/><path fill="#e44545" d="M12.75 4C11.226 4 10 5.25 10 6.8V32h22V4Z"/><path fill="#fff" d="M12.75 4C11.226 4 10 5.25 10 6.8v1C10 6.25 11.226 5 12.75 5H36V4z" opacity=".1"/><path fill="#3776f2" d="M32 32v28h19.25c1.522 0 2.75-1.25 2.75-2.8V32Z"/><path fill="#7ed591" d="M54 22 36 4v15.188A2.806 2.806 0 0 0 38.813 22Z"/></svg>