<svg xmlns="http://www.w3.org/2000/svg" viewBox="0 0 64 64"><path d="M12.75 5C11.226 5 10 6.249 10 7.8v50.4c0 1.551 1.227 2.8 2.75 2.8h38.5c1.523 0 2.75-1.249 2.75-2.8V21l-13.75-2L38 5Z" opacity=".2"/><path fill="#1d81e8" d="M12.75 4C11.226 4 10 5.249 10 6.8v50.4c0 1.551 1.227 2.8 2.75 2.8h38.5c1.523 0 2.75-1.249 2.75-2.8V20l-13.75-2L38 4Z"/><path d="M54 21 38 5v13.333A2.66 2.66 0 0 0 40.667 21Z" opacity=".2"/><path fill="#4d9cec" d="M54 20 38 4v13.333A2.66 2.66 0 0 0 40.667 20Z"/><path d="M32 27c-7.732 0-14 6.268-14 14s6.268 14 14 14 14-6.268 14-14-6.268-14-14-14m-5.887 10c1.655-.038 3.21 1.272 3.719 3.129.592 2.156-.422 4.293-2.262 4.773-1.84.483-3.81-.875-4.402-3.03-.59-2.156.423-4.29 2.262-4.77q.334-.091.683-.102m11.774 0q.349.01.683.102c1.839.48 2.852 2.614 2.262 4.77-.592 2.155-2.563 3.513-4.402 3.03-1.84-.48-2.854-2.617-2.262-4.773.51-1.857 2.064-3.167 3.719-3.129" opacity=".2"/><path fill="#ffc05b" d="M32 26c-7.732 0-14 6.268-14 14s6.268 14 14 14 14-6.268 14-14-6.268-14-14-14m-5.887 10c1.655-.038 3.21 1.272 3.719 3.129.592 2.156-.422 4.293-2.262 4.773-1.84.483-3.81-.875-4.402-3.03-.59-2.156.423-4.29 2.262-4.77q.334-.091.683-.102m11.774 0q.349.01.683.102c1.839.48 2.852 2.614 2.262 4.77-.592 2.155-2.563 3.513-4.402 3.03-1.84-.48-2.854-2.617-2.262-4.773.51-1.857 2.064-3.167 3.719-3.129"/><path fill="#fff" d="M12.75 4C11.226 4 10 5.25 10 6.8v1C10 6.25 11.226 5 12.75 5H38V4zM32 26c-7.732 0-14 6.268-14 14 0 .168.016.332.025.498C18.292 33.001 24.437 27 32 27s13.708 6 13.975 13.498c.01-.166.025-.33.025-.498 0-7.732-6.268-14-14-14m-8.875 14.637a4.5 4.5 0 0 0-.088 1.502q.03-.257.088-.502c.017.078.021.156.043.234.592 2.156 2.563 3.514 4.402 3.031 1.177-.307 2.012-1.293 2.309-2.527.04.182.054.361.072.541a4.6 4.6 0 0 0-.072-1.541c-.297 1.234-1.132 2.22-2.309 2.527-1.84.483-3.81-.875-4.402-3.03-.022-.08-.026-.157-.043-.235m17.75 0c-.017.078-.021.156-.043.234-.592 2.156-2.563 3.514-4.402 3.031-1.177-.307-2.012-1.293-2.309-2.527a4.6 4.6 0 0 0-.072 1.541c.018-.18.032-.36.072-.541.297 1.234 1.132 2.22 2.309 2.527 1.84.483 3.81-.875 4.402-3.03.022-.08.026-.157.043-.235q.058.245.088.502a4.5 4.5 0 0 0-.088-1.502" opacity=".2"/></svg>