<svg xmlns="http://www.w3.org/2000/svg" viewBox="0 0 64 64"><path d="M12.75 5C11.226 5 10 6.249 10 7.8v50.4c0 1.55 1.227 2.8 2.75 2.8h38.5c1.522 0 2.75-1.25 2.75-2.8V23l-14-4-4-14Z" opacity=".2"/><path fill="#4f4f4f" d="M12.75 4C11.226 4 10 5.249 10 6.8v50.4c0 1.55 1.227 2.8 2.75 2.8h38.5c1.522 0 2.75-1.25 2.75-2.8V22l-14-4-4-14Z"/><path d="M54 23 36 5v15.188A2.806 2.806 0 0 0 38.813 23Z" opacity=".2"/><path fill="#696969" d="M54 22 36 4v15.188A2.806 2.806 0 0 0 38.813 22Z"/><path fill="#fff" d="M12.75 4C11.226 4 10 5.25 10 6.8v1C10 6.25 11.226 5 12.75 5H36V4z" opacity=".1"/><g opacity=".2" transform="translate(0 4)"><circle cx="24" cy="33" r="2"/><circle cx="29" cy="33" r="2"/><circle cx="34" cy="33" r="2"/><circle cx="39" cy="33" r="2"/><circle cx="24" cy="38" r="2"/><circle cx="29" cy="38" r="2"/><circle cx="34" cy="38" r="2"/><circle cx="39" cy="38" r="2"/><circle cx="44" cy="38" r="2"/><circle cx="19" cy="38" r="2"/><circle cx="19" cy="43" r="2"/><circle cx="24" cy="43" r="2"/><circle cx="44" cy="43" r="2"/><circle cx="39" cy="43" r="2"/></g><g fill="#ff5a00" transform="translate(0 3)"><circle cx="24" cy="33" r="2"/><circle cx="29" cy="33" r="2"/><circle cx="34" cy="33" r="2"/><circle cx="39" cy="33" r="2"/><circle cx="24" cy="38" r="2"/><circle cx="29" cy="38" r="2"/><circle cx="34" cy="38" r="2"/><circle cx="39" cy="38" r="2"/><circle cx="44" cy="38" r="2"/><circle cx="19" cy="38" r="2"/><circle cx="19" cy="43" r="2"/><circle cx="24" cy="43" r="2"/><circle cx="44" cy="43" r="2"/><circle cx="39" cy="43" r="2"/></g></svg>