<svg xmlns="http://www.w3.org/2000/svg" viewBox="0 0 64 64"><rect width="56" height="56" x="4" y="5" opacity=".2" rx="2.8" ry="2.8"/><rect width="56" height="56" x="4" y="4" fill="#4f4f4f" rx="2.8" ry="2.8"/><path d="M27.393 13h6.615l.553 2h1.896L53 43.51 49.438 50H34.959l1.467 3h-.64l-1.467-3H16.346l-.92-2H14.29L11 42.272l4.215-7.31 3.904-2.251 6.46-11.184-1.3-2.25zm3.898 10.778L19.865 44H30.8l-1.262-3.007 11.918.014z" opacity=".2"/><path fill="#fff" d="M27.393 12h6.615l.553 2h1.896L53 42.51 49.438 49H34.959l1.467 3h-.64l-1.467-3H16.346l-.92-2H14.29L11 41.272l4.215-7.31 3.904-2.251 6.46-11.184-1.3-2.25zm3.898 10.778L19.865 43H30.8l-1.262-3.007 11.918.014z"/><path fill="#fff" d="M6.8 4C5.25 4 4 5.25 4 6.8v1C4 6.25 5.25 5 6.8 5h50.4C58.75 5 60 6.25 60 7.8v-1C60 5.25 58.75 4 57.2 4z" opacity=".1"/></svg>