<svg xmlns="http://www.w3.org/2000/svg" viewBox="0 0 64 64"><path d="M12.75 5C11.226 5 10 6.249 10 7.8v50.4c0 1.55 1.227 2.8 2.75 2.8h38.5c1.522 0 2.75-1.25 2.75-2.8V23l-14-4-4-14Z" opacity=".2"/><path fill="#4f4f4f" d="M12.75 4C11.226 4 10 5.249 10 6.8v50.4c0 1.55 1.227 2.8 2.75 2.8h38.5c1.522 0 2.75-1.25 2.75-2.8V22l-14-4-4-14Z"/><path d="M54 23 36 5v15.188A2.806 2.806 0 0 0 38.813 23Z" opacity=".2"/><path fill="#696969" d="M54 22 36 4v15.188A2.806 2.806 0 0 0 38.813 22Z"/><path fill="#fff" d="M12.75 4C11.226 4 10 5.25 10 6.8v1C10 6.25 11.226 5 12.75 5H36V4z" opacity=".1"/><path d="M26.405 31.008c-1.455-.077-2.88.405-3.937 1.461-2.112 2.113-1.923 5.702.424 8.05L24.375 42l-1.483 1.483c-2.347 2.347-2.536 5.936-.424 8.049s5.702 1.923 8.05-.424L32 49.626l1.482 1.482c2.348 2.347 5.937 2.536 8.05.424 2.112-2.113 1.923-5.702-.424-8.05L39.625 42l1.483-1.482c2.347-2.347 2.536-5.936.424-8.049s-5.702-1.923-8.05.424L32 34.375l-1.482-1.482c-1.174-1.173-2.658-1.808-4.113-1.885M32 36.282a1.35 1.35 0 0 1 0 1.906 1.35 1.35 0 0 1 0-1.906m-1.928 2.464a1.4 1.4 0 0 1 .369.047 1.35 1.35 0 0 1-.348 1.3 1.35 1.35 0 0 1-1.3.348 1.35 1.35 0 0 1 .347-1.3 1.35 1.35 0 0 1 .932-.395m3.855 0a1.35 1.35 0 0 1 .932.395 1.35 1.35 0 0 1 .348 1.3 1.35 1.35 0 0 1-1.3-.347 1.35 1.35 0 0 1-.348-1.3 1.4 1.4 0 0 1 .368-.048M32 40.652l.097.005h.024a1 1 0 0 1 .105.016l.034.005.09.021.037.01a1 1 0 0 1 .118.043 1 1 0 0 1 .1.045l.037.018.05.03.082.054h.002l.077.058a1 1 0 0 1 .1.09 1 1 0 0 1 .09.1l.057.079.056.081.029.05.018.037a1 1 0 0 1 .045.1 1 1 0 0 1 .042.119l.01.037.022.09.005.034a1 1 0 0 1 .016.105v.024l.005.097-.005.097v.024a1 1 0 0 1-.016.105l-.005.035-.022.09-.01.036a1 1 0 0 1-.042.118 1 1 0 0 1-.045.1l-.018.037-.03.05-.055.082-.058.079a1 1 0 0 1-.09.1 1 1 0 0 1-.1.09l-.076.058h-.002l-.082.055-.05.029-.037.018a1 1 0 0 1-.1.045 1 1 0 0 1-.118.042l-.037.01-.09.022-.034.005a1 1 0 0 1-.105.016h-.024l-.097.005-.098-.005h-.023a1 1 0 0 1-.106-.016l-.034-.005-.09-.021-.036-.01a1 1 0 0 1-.119-.043 1 1 0 0 1-.1-.045l-.037-.018-.05-.03-.081-.054h-.003l-.076-.058a1 1 0 0 1-.1-.09 1 1 0 0 1-.09-.1l-.058-.076v-.003l-.055-.082-.03-.05-.018-.037a1 1 0 0 1-.044-.1 1 1 0 0 1-.042-.118l-.011-.037-.021-.09-.005-.034a1 1 0 0 1-.016-.105v-.024L30.652 42l.005-.098v-.023a1 1 0 0 1 .016-.106l.005-.034.02-.09.012-.036a1 1 0 0 1 .042-.119 1 1 0 0 1 .044-.1l.019-.037.029-.05.055-.081.058-.08a1 1 0 0 1 .09-.1 1 1 0 0 1 .1-.089l.079-.058.081-.055.05-.029.037-.018a1 1 0 0 1 .1-.045 1 1 0 0 1 .119-.042l.036-.01.09-.022.034-.005a1 1 0 0 1 .106-.016h.023zm-4.787.953a1.35 1.35 0 0 1 .974.395 1.35 1.35 0 0 1-1.906 0 1.35 1.35 0 0 1 .932-.395m9.574 0a1.35 1.35 0 0 1 .932.395 1.35 1.35 0 0 1-1.907 0 1.35 1.35 0 0 1 .975-.395m-7.668 1.906a1.35 1.35 0 0 1 .974.395 1.35 1.35 0 0 1 .348 1.3 1.35 1.35 0 0 1-1.3-.347 1.35 1.35 0 0 1-.348-1.3 1.4 1.4 0 0 1 .326-.048m5.761 0a1.4 1.4 0 0 1 .327.048 1.35 1.35 0 0 1-.348 1.3 1.35 1.35 0 0 1-1.3.348 1.35 1.35 0 0 1 .347-1.3 1.35 1.35 0 0 1 .974-.396M32 45.813a1.35 1.35 0 0 1 0 1.906 1.35 1.35 0 0 1 0-1.906" opacity=".2"/><path fill="#ffc510" d="M26.405 30.008c-1.455-.077-2.88.405-3.937 1.461-2.112 2.113-1.923 5.702.424 8.05L24.375 41l-1.483 1.483c-2.347 2.347-2.536 5.936-.424 8.049s5.702 1.923 8.05-.424L32 48.626l1.482 1.482c2.348 2.347 5.937 2.536 8.05.424 2.112-2.113 1.923-5.702-.424-8.05L39.625 41l1.483-1.482c2.347-2.347 2.536-5.936.424-8.049s-5.702-1.923-8.05.424L32 33.375l-1.482-1.482c-1.174-1.173-2.658-1.808-4.113-1.885M32 35.282a1.35 1.35 0 0 1 0 1.906 1.35 1.35 0 0 1 0-1.906m-1.928 2.464a1.4 1.4 0 0 1 .369.047 1.35 1.35 0 0 1-.348 1.3 1.35 1.35 0 0 1-1.3.348 1.35 1.35 0 0 1 .347-1.3 1.35 1.35 0 0 1 .932-.395m3.855 0a1.35 1.35 0 0 1 .932.395 1.35 1.35 0 0 1 .348 1.3 1.35 1.35 0 0 1-1.3-.347 1.35 1.35 0 0 1-.348-1.3 1.4 1.4 0 0 1 .368-.048M32 39.652l.097.005h.024a1 1 0 0 1 .105.016l.034.005.09.021.037.01a1 1 0 0 1 .118.043 1 1 0 0 1 .1.045l.037.018.05.03.082.054h.002l.077.058a1 1 0 0 1 .1.09 1 1 0 0 1 .09.1l.057.079.056.081.029.05.018.037a1 1 0 0 1 .045.1 1 1 0 0 1 .042.119l.01.037.022.09.005.034a1 1 0 0 1 .016.105v.024l.005.097-.005.097v.024a1 1 0 0 1-.016.105l-.005.035-.022.09-.01.036a1 1 0 0 1-.042.118 1 1 0 0 1-.045.1l-.018.037-.03.05-.055.082-.058.079a1 1 0 0 1-.09.1 1 1 0 0 1-.1.09l-.076.058h-.002l-.082.055-.05.029-.037.018a1 1 0 0 1-.1.045 1 1 0 0 1-.118.042l-.037.01-.09.022-.034.005a1 1 0 0 1-.105.016h-.024l-.097.005-.098-.005h-.023a1 1 0 0 1-.106-.016l-.034-.005-.09-.021-.036-.01a1 1 0 0 1-.119-.043 1 1 0 0 1-.1-.045l-.037-.018-.05-.03-.081-.054h-.003l-.076-.058a1 1 0 0 1-.1-.09 1 1 0 0 1-.09-.1l-.058-.076v-.003l-.055-.082-.03-.05-.018-.037a1 1 0 0 1-.044-.1 1 1 0 0 1-.042-.118l-.011-.037-.021-.09-.005-.034a1 1 0 0 1-.016-.105v-.024L30.652 41l.005-.098v-.023a1 1 0 0 1 .016-.106l.005-.034.02-.09.012-.036a1 1 0 0 1 .042-.119 1 1 0 0 1 .044-.1l.019-.037.029-.05.055-.081.058-.08a1 1 0 0 1 .09-.1 1 1 0 0 1 .1-.089l.079-.058.081-.055.05-.029.037-.018a1 1 0 0 1 .1-.045 1 1 0 0 1 .119-.042l.036-.01.09-.022.034-.005a1 1 0 0 1 .106-.016h.023zm-4.787.953a1.35 1.35 0 0 1 .974.395 1.35 1.35 0 0 1-1.906 0 1.35 1.35 0 0 1 .932-.395m9.574 0a1.35 1.35 0 0 1 .932.395 1.35 1.35 0 0 1-1.907 0 1.35 1.35 0 0 1 .975-.395m-7.668 1.906a1.35 1.35 0 0 1 .974.395 1.35 1.35 0 0 1 .348 1.3 1.35 1.35 0 0 1-1.3-.347 1.35 1.35 0 0 1-.348-1.3 1.4 1.4 0 0 1 .326-.048m5.761 0a1.4 1.4 0 0 1 .327.048 1.35 1.35 0 0 1-.348 1.3 1.35 1.35 0 0 1-1.3.348 1.35 1.35 0 0 1 .347-1.3 1.35 1.35 0 0 1 .974-.396M32 44.813a1.35 1.35 0 0 1 0 1.906 1.35 1.35 0 0 1 0-1.906"/></svg>