<svg xmlns="http://www.w3.org/2000/svg" viewBox="0 0 64 64"><path d="M14.5 8a2.495 2.495 0 0 0-2.5 2.5v45c0 1.385 1.115 2.5 2.5 2.5h35c1.385 0 2.5-1.115 2.5-2.5V23l-13.75-1.25L37 8Z" opacity=".2"/><path fill="#48aeff" d="M14.5 7A2.495 2.495 0 0 0 12 9.5v45c0 1.385 1.115 2.5 2.5 2.5h35c1.385 0 2.5-1.115 2.5-2.5V22l-13.75-1.25L37 7z"/><path d="M37 8v12.5a2.5 2.5 0 0 0 2.5 2.5H52Z" opacity=".2"/><path fill="#90cdff" d="M37 7v12.5a2.5 2.5 0 0 0 2.5 2.5H52z"/><path d="M18 27v12h12V27Zm15 0v12h12V27ZM18 42v12h12V42Zm15 0v12h12V42Z" opacity=".2"/><path fill="#fff" d="M18 26v12h12V26zm15 0v12h12V26zM18 41v12h12V41zm15 0v12h12V41z"/><path fill="#fff" d="M14.5 7A2.495 2.495 0 0 0 12 9.5v1C12 9.115 13.115 8 14.5 8H37V7z" opacity=".2"/></svg>