<svg xmlns="http://www.w3.org/2000/svg" viewBox="0 0 64 64"><path d="M12.75 5C11.226 5 10 6.249 10 7.8v50.4c0 1.55 1.227 2.8 2.75 2.8h38.5c1.522 0 2.75-1.25 2.75-2.8V23l-14-4-4-14Z" opacity=".2"/><path fill="#e4e4e4" d="M12.75 4C11.226 4 10 5.249 10 6.8v50.4c0 1.55 1.227 2.8 2.75 2.8h38.5c1.522 0 2.75-1.25 2.75-2.8V22l-14-4-4-14Z"/><path d="M54 23 36 5v15.188A2.806 2.806 0 0 0 38.813 23Z" opacity=".2"/><path fill="#fafafa" d="M54 22 36 4v15.188A2.806 2.806 0 0 0 38.813 22Z"/><path fill="#fff" d="M12.75 4C11.226 4 10 5.25 10 6.8v1C10 6.25 11.226 5 12.75 5H36V4z" opacity=".2"/><path d="M41.61 29.002c-1.753.027-8.944.821-11.823 11.753C27.157 50.743 22 49.748 22 49.748v5.23s7.943.968 11.535-9.976H40v-6h-4.111c.323-1.02 1.758-4.68 6.111-4.76v-5.233s-.14-.011-.39-.007" opacity=".1"/><path fill="#e74c3c" d="M41.61 28c-1.753.028-8.944.822-11.823 11.754C27.157 49.74 22 48.746 22 48.746v5.23s7.943.968 11.535-9.976H40v-6h-4.111c.323-1.02 1.758-4.68 6.111-4.76v-5.232s-.14-.012-.39-.008"/></svg>