<svg xmlns="http://www.w3.org/2000/svg" viewBox="0 0 64 64"><path d="M23.25 8A5.23 5.23 0 0 0 18 13.238V19h-7s-1.827.04-2.773.521L5.27 21.023C3.969 21.523 4 23 4 23v29.8A4.19 4.19 0 0 0 8.2 57h47.6a4.19 4.19 0 0 0 4.2-4.2V23s.031-1.476-1.27-1.977l-2.957-1.502C54.827 19.041 53 19 53 19h-7v-5.762A5.23 5.23 0 0 0 40.75 8Zm.5 4h16.5c.97 0 1.75.77 1.75 1.738V19H22v-5.262c0-.967.78-1.738 1.75-1.738" opacity=".2"/><path fill="#4f4f4f" d="M23.25 7A5.233 5.233 0 0 0 18 12.24V21c0 2.286 1.962.681 4 1.4v-9.662c0-.967.78-1.738 1.75-1.738h16.5c.97 0 1.75.77 1.75 1.738V22.4c2.038-.719 4 .886 4-1.4v-8.76A5.233 5.233 0 0 0 40.75 7z"/><rect width="56" height="35" x="4" y="21" fill="#ae2331" rx="4.2" ry="4.2"/><path fill="#e43a4b" d="M11 18s-1.826.04-2.773.52L5.27 20.024C3.969 20.523 4 22 4 22v4h56v-4s.032-1.476-1.269-1.977l-2.958-1.502C54.826 18.04 53 18 53 18H32Z"/><path fill="#fff" d="M23.25 7A5.23 5.23 0 0 0 18 12.238v1A5.23 5.23 0 0 1 23.25 8h17.5A5.23 5.23 0 0 1 46 13.238v-1A5.23 5.23 0 0 0 40.75 7z" opacity=".1"/><path fill="#fff" d="M11 18s-1.827.04-2.773.521L5.27 20.023C3.969 20.523 4 22 4 22v1s-.031-1.476 1.27-1.977l2.957-1.502C9.173 19.041 11 19 11 19h42s1.827.04 2.773.521l2.957 1.502C60.031 21.523 60 23 60 23v-1s.031-1.476-1.27-1.977l-2.957-1.502C54.827 18.041 53 18 53 18z" opacity=".2"/><path d="M4 26h56v1H4z" opacity=".2"/><path d="M12 24v11h11V24Zm29 0v11h11V24Zm-26 3h5v5h-5zm29 0h5v5h-5z" opacity=".2"/><path fill="#fff" d="M12 23v11h11V23Zm3 3h5v5h-5zm26-3v11h11V23Zm3 3h5v5h-5z"/></svg>