<svg xmlns="http://www.w3.org/2000/svg" xmlns:xlink="http://www.w3.org/1999/xlink" viewBox="0 0 128 128"><defs><linearGradient id="d" x1="50%" x2="50%" y1="0%" y2="98.947%"><stop offset="0%" stop-color="#f7f7f7"/><stop offset="100%" stop-color="#f6f6f6"/></linearGradient><linearGradient id="g" x1="50%" x2="7.994%" y1="50%" y2="88.893%"><stop offset="0%" stop-color="#fff" stop-opacity=".1"/><stop offset="100%" stop-color="#fff" stop-opacity=".3"/></linearGradient><filter id="c" width="125%" height="120.2%" x="-12.5%" y="-8.3%" filterUnits="objectBoundingBox"><feOffset dy="2" in="SourceAlpha" result="shadowOffsetOuter1"/><feGaussianBlur in="shadowOffsetOuter1" result="shadowBlurOuter1" stdDeviation="3.5"/><feColorMatrix in="shadowBlurOuter1" values="0 0 0 0 0 0 0 0 0 0 0 0 0 0 0 0 0 0 0.1 0"/></filter><filter id="f" width="124.6%" height="124.6%" x="-12.3%" y="-8.8%" filterUnits="objectBoundingBox"><feOffset dy="1" in="SourceAlpha" result="shadowOffsetOuter1"/><feGaussianBlur in="shadowOffsetOuter1" result="shadowBlurOuter1" stdDeviation="1"/><feComposite in="shadowBlurOuter1" in2="SourceAlpha" operator="out" result="shadowBlurOuter1"/><feColorMatrix in="shadowBlurOuter1" values="0 0 0 0 0 0 0 0 0 0 0 0 0 0 0 0 0 0 0.05 0"/></filter><path id="a" d="M92 105a9 9 0 0 1-9 9H9a9 9 0 0 1-9-9V9a9 9 0 0 1 9-9h54.5L92 28.5z"/><path id="e" d="M63.5 0 92 28.5H72.5a9 9 0 0 1-9-9z"/></defs><g fill="none" fill-rule="evenodd"><g transform="translate(18 7)"><use xlink:href="#a" fill="#000" filter="url(#c)"/><use xlink:href="#a" fill="url(#d)"/></g><path fill="#000" fill-opacity=".1" fill-rule="nonzero" d="m81.707 6.5.147.146 28.5 28.5.146.147V112a9.5 9.5 0 0 1-9.5 9.5H27a9.5 9.5 0 0 1-9.5-9.5V16A9.5 9.5 0 0 1 27 6.5zM81.5 7H27a9 9 0 0 0-9 9v96a9 9 0 0 0 9 9h74a9 9 0 0 0 9-9V35.5z"/><g transform="translate(18 7)"><use xlink:href="#e" fill="#000" filter="url(#f)"/><use xlink:href="#e" fill="url(#g)"/></g><path fill="#7b83d6" d="M92 60v2H36v-2zm0 12v2H36v-2zm0 12v2H36v-2zM64 96v2H36v-2zm4 0v2h-2v-2zM57.998 40a4.003 4.003 0 0 1 2.648 7.001A3.998 3.998 0 0 1 57.999 54H52V40Zm-12.92 0L50 54h-2.1l-.7-2h-6.4l-.7 2H38l5-14zm25.054 0c1.782 0 3.443.73 4.6 1.976L73 43c-.696-.75-1.798-1-2.868-1C68.09 42 66 43.898 66 45.845v2.31C66 50.101 68.097 52 70.132 52c1.111 0 2.175-.214 2.868-1l1.833.92c-1.155 1.31-2.859 2.08-4.7 2.08C66.741 54 64 51.389 64 48.155v-2.31C64 42.612 66.732 40 70.132 40m-12.134 8H54v4h3.998A2 2 0 0 0 60 50c0-1.102-.897-2-2.002-2M44 42.6 41.4 50h5.2zm13.998-.6H54v4h3.998A2 2 0 0 0 60 44c0-1.102-.897-2-2.002-2"/></g></svg>