<svg xmlns="http://www.w3.org/2000/svg" xmlns:xlink="http://www.w3.org/1999/xlink" viewBox="0 0 128 128"><defs><linearGradient id="d" x1="50%" x2="50%" y1="0%" y2="100%"><stop offset="0%" stop-color="#ac92ff"/><stop offset="100%" stop-color="#804ee2"/></linearGradient><linearGradient id="g" x1="50%" x2="7.994%" y1="50%" y2="88.893%"><stop offset="0%" stop-color="#fff" stop-opacity=".1"/><stop offset="100%" stop-color="#fff" stop-opacity=".3"/></linearGradient><filter id="c" width="125%" height="120.2%" x="-12.5%" y="-8.3%" filterUnits="objectBoundingBox"><feOffset dy="2" in="SourceAlpha" result="shadowOffsetOuter1"/><feGaussianBlur in="shadowOffsetOuter1" result="shadowBlurOuter1" stdDeviation="3.5"/><feColorMatrix in="shadowBlurOuter1" values="0 0 0 0 0.538881273 0 0 0 0 0.186318598 0 0 0 0 1 0 0 0 0.5 0"/></filter><filter id="f" width="124.6%" height="124.6%" x="-12.3%" y="-8.8%" filterUnits="objectBoundingBox"><feOffset dy="1" in="SourceAlpha" result="shadowOffsetOuter1"/><feGaussianBlur in="shadowOffsetOuter1" result="shadowBlurOuter1" stdDeviation="1"/><feComposite in="shadowBlurOuter1" in2="SourceAlpha" operator="out" result="shadowBlurOuter1"/><feColorMatrix in="shadowBlurOuter1" values="0 0 0 0 0 0 0 0 0 0 0 0 0 0 0 0 0 0 0.05 0"/></filter><path id="a" d="M92 105a9 9 0 0 1-9 9H9a9 9 0 0 1-9-9V9a9 9 0 0 1 9-9h54.5L92 28.5z"/><path id="e" d="M63.5 0 92 28.5H72.5a9 9 0 0 1-9-9z"/></defs><g fill="none" fill-rule="evenodd"><g transform="translate(18 7)"><use xlink:href="#a" fill="#000" filter="url(#c)"/><use xlink:href="#a" fill="url(#d)"/></g><g transform="translate(18 7)"><use xlink:href="#e" fill="#000" filter="url(#f)"/><use xlink:href="#e" fill="url(#g)"/></g><path fill="#fff" d="M91.128 66.003a4.18 4.18 0 0 1 2.585-3.86.44.44 0 0 0 .272-.507 18.4 18.4 0 0 0-2.188-5.267.44.44 0 0 0-.55-.162 4.18 4.18 0 0 1-4.557-.902 4.18 4.18 0 0 1-.902-4.555.444.444 0 0 0-.162-.55 18.5 18.5 0 0 0-5.27-2.188.44.44 0 0 0-.506.272 4.185 4.185 0 0 1-3.862 2.59c-1.743 0-3.224-1.07-3.86-2.585a.44.44 0 0 0-.506-.272 18.4 18.4 0 0 0-5.269 2.196.44.44 0 0 0-.162.543c.62 1.52.33 3.32-.905 4.554a4.18 4.18 0 0 1-4.546.908.43.43 0 0 0-.543.162 18.4 18.4 0 0 0-2.185 5.271.444.444 0 0 0 .272.507 4.19 4.19 0 0 1 2.577 3.857 4.18 4.18 0 0 1-2.569 3.855.44.44 0 0 0-.273.507 18.4 18.4 0 0 0 2.196 5.27.44.44 0 0 0 .543.161 4.18 4.18 0 0 1 4.54.91 4.18 4.18 0 0 1 .911 4.537c-.08.2-.02.43.162.542a18.4 18.4 0 0 0 5.272 2.191.444.444 0 0 0 .506-.272 4.185 4.185 0 0 1 3.855-2.57 4.18 4.18 0 0 1 3.854 2.57c.085.2.293.324.507.272a18.4 18.4 0 0 0 5.27-2.19c.186-.114.243-.343.163-.543a4.18 4.18 0 0 1 .908-4.547 4.19 4.19 0 0 1 4.548-.905c.2.082.43.023.543-.162a18.4 18.4 0 0 0 2.193-5.272.45.45 0 0 0-.28-.506 4.185 4.185 0 0 1-2.582-3.86M71 92a1 1 0 0 1 0 2H53a1 1 0 0 1 0-2ZM36.363 65.96a1.2 1.2 0 0 1 1.676-.264l14.667 10.667a1.2 1.2 0 0 1 0 1.94L38.039 88.97a1.2 1.2 0 1 1-1.411-1.94l13.315-9.71-13.315-9.683a1.2 1.2 0 0 1-.265-1.676M75.998 57c4.963 0 9 4.037 9 9s-4.037 9-9 9c-4.962 0-9-4.037-9-9s4.038-9 9-9"/></g></svg>