<svg xmlns="http://www.w3.org/2000/svg" viewBox="0 0 64 64"><path d="M12.75 5C11.227 5 10 6.249 10 7.8v50.4c0 1.55 1.227 2.8 2.75 2.8h38.5c1.522 0 2.75-1.25 2.75-2.8V23l-14-4-4-14z" opacity=".2"/><path fill="#4f4f4f" d="M12.75 4C11.227 4 10 5.249 10 6.8v50.4c0 1.55 1.227 2.8 2.75 2.8h38.5c1.522 0 2.75-1.25 2.75-2.8V22l-14-4-4-14z"/><path d="M54 23 36 5v15.188A2.806 2.806 0 0 0 38.813 23z" opacity=".2"/><path fill="#696969" d="M54 22 36 4v15.188A2.806 2.806 0 0 0 38.813 22z"/><path fill="#fff" d="M12.75 4C11.227 4 10 5.25 10 6.8v1C10 6.25 11.227 5 12.75 5H36V4z" opacity=".1"/><ellipse cx="39.12" cy="24.757" opacity=".2" rx="4" ry="9" transform="rotate(30)"/><ellipse cx="57.306" cy="14.257" opacity=".2" rx="4" ry="9" transform="rotate(30)"/><ellipse cx="48.213" cy="19.507" opacity=".2" rx="4" ry="9" transform="rotate(30)"/><ellipse cx="38.62" cy="23.891" fill="#eb675e" rx="4" ry="9" transform="rotate(30)"/><ellipse cx="56.806" cy="13.391" fill="#629dff" rx="4" ry="9" transform="rotate(30)"/><ellipse cx="47.713" cy="18.641" fill="#7dd680" rx="4" ry="9" transform="rotate(30)"/></svg>