<svg xmlns="http://www.w3.org/2000/svg" xmlns:xlink="http://www.w3.org/1999/xlink" viewBox="0 0 48 48"><defs><linearGradient id="a" x1="90.7%" x2="35.327%" y1="6.565%" y2="64.144%"><stop offset="0%" stop-color="#93def2"/><stop offset="100%" stop-color="#5abadf"/></linearGradient></defs><g fill="none" fill-rule="evenodd"><path fill="#5abadf" d="M5 7.998A3 3 0 0 1 8.008 5h22.994L43 17.01v22.983A3.01 3.01 0 0 1 40.002 43H7.998A3.004 3.004 0 0 1 5 40.002z"/><path fill="url(#a)" d="m31 5 12 12V7.997A2.997 2.997 0 0 0 40.003 5z" transform="matrix(-1 0 0 -1 74 22)"/><path fill="#fff" d="M27 23.757a8 8 0 0 0-.018-.642C26.798 20.345 23.319 17 19.364 17c-3.267 0-7.4 3.124-7.364 7.95.035 4.67 1.599 7.19 2.778 10.05l3.48-1.457c-.802-1.644-1.837-3.287-2.208-4.1-1.038-2.28-1.416-3.3-1.33-5.037.084-1.68.657-2.704 1.677-3.694s2.416-1.496 4.1-1.262c2.72.377 4.033 2.042 4.541 3.395a4 4 0 0 0-.711-.07c-3.119-.018-4.527 1.658-5.057 3.518-.285-.445-.453-.997-.5-1.643-.094-1.319 1.18-2.644 3.243-1.972.332.108.343-.49-.032-.794-.966-.78-4.797-.48-4.784 2.582.007 1.624.755 2.943 1.803 3.777q-.002.33.018.642c.184 2.77 3.663 6.115 7.618 6.115 3.267 0 7.4-3.124 7.364-7.95-.035-4.67-1.599-7.19-2.778-10.05l-3.48 1.457c.802 1.644 1.837 3.287 2.208 4.1 1.038 2.28 1.416 3.3 1.33 5.037-.084 1.68-.657 2.704-1.677 3.694s-2.416 1.496-4.1 1.262c-2.72-.377-4.033-2.042-4.541-3.395q.355.066.711.07c3.119.018 4.527-1.658 5.057-3.518.285.445.453.997.5 1.643.094 1.319-1.18 2.644-3.243 1.972-.332-.108-.343.49.032.794.966.78 4.797.48 4.784-2.582-.007-1.624-.755-2.943-1.803-3.777M20.74 27.4q.499.165 1.119.194c2.3.11 3.21-1.751 3.402-2.994a4.2 4.2 0 0 0-1.12-.194c-2.3-.11-3.21 1.751-3.402 2.994"/></g></svg>