<svg xmlns="http://www.w3.org/2000/svg" viewBox="0 0 64 64"><path d="M12.75 5C11.226 5 10 6.249 10 7.8v50.4c0 1.55 1.227 2.8 2.75 2.8h38.5c1.522 0 2.75-1.25 2.75-2.8V23l-14-4-4-14Z" opacity=".2"/><path fill="#636e73" d="M12.75 4C11.226 4 10 5.249 10 6.8v50.4c0 1.55 1.227 2.8 2.75 2.8h38.5c1.522 0 2.75-1.25 2.75-2.8V22l-14-4-4-14Z"/><path d="M54 23 36 5v15.188A2.806 2.806 0 0 0 38.813 23Z" opacity=".2"/><path fill="#909b9f" d="M54 22 36 4v15.188A2.806 2.806 0 0 0 38.813 22Z"/><path fill="#fff" d="M12.75 4C11.226 4 10 5.25 10 6.8v1C10 6.25 11.226 5 12.75 5H36V4z" opacity=".1"/><path d="m31.88 31-4.36 15.314L24.29 38H18v3h4.453l4.371 11h1.93l5.178-18h8.959v-3zm2.563 8 4.764 6.197L34 52h2.596l3.902-5.105L44.4 52H47l-5.102-6.672L46.748 39h-2.6l-3.552 4.633L37.039 39Z" opacity=".2"/><path fill="#fff" d="m31.88 30-4.36 15.314L24.29 37H18v3h4.453l4.371 11h1.93l5.178-18h8.959v-3zm2.563 8 4.764 6.197L34 51h2.596l3.902-5.105L44.4 51H47l-5.102-6.672L46.748 38h-2.6l-3.552 4.633L37.039 38z"/></svg>