<svg xmlns="http://www.w3.org/2000/svg" xmlns:xlink="http://www.w3.org/1999/xlink" viewBox="0 0 128 128"><defs><linearGradient id="d" x1="50%" x2="50%" y1="0%" y2="100%"><stop offset="0%" stop-color="#808ea3"/><stop offset="100%" stop-color="#4a6c7f"/></linearGradient><linearGradient id="g" x1="50%" x2="7.994%" y1="50%" y2="88.893%"><stop offset="0%" stop-color="#fff" stop-opacity=".1"/><stop offset="100%" stop-color="#fff" stop-opacity=".3"/></linearGradient><filter id="c" width="125%" height="120.2%" x="-12.5%" y="-8.3%" filterUnits="objectBoundingBox"><feOffset dy="2" in="SourceAlpha" result="shadowOffsetOuter1"/><feGaussianBlur in="shadowOffsetOuter1" result="shadowBlurOuter1" stdDeviation="3.5"/><feColorMatrix in="shadowBlurOuter1" values="0 0 0 0 0.474509804 0 0 0 0 0.619607843 0 0 0 0 0.701960784 0 0 0 0.5 0"/></filter><filter id="f" width="124.6%" height="124.6%" x="-12.3%" y="-8.8%" filterUnits="objectBoundingBox"><feOffset dy="1" in="SourceAlpha" result="shadowOffsetOuter1"/><feGaussianBlur in="shadowOffsetOuter1" result="shadowBlurOuter1" stdDeviation="1"/><feComposite in="shadowBlurOuter1" in2="SourceAlpha" operator="out" result="shadowBlurOuter1"/><feColorMatrix in="shadowBlurOuter1" values="0 0 0 0 0 0 0 0 0 0 0 0 0 0 0 0 0 0 0.05 0"/></filter><path id="a" d="M92 105a9 9 0 0 1-9 9H9a9 9 0 0 1-9-9V9a9 9 0 0 1 9-9h54.5L92 28.5z"/><path id="e" d="M63.5 0 92 28.5H72.5a9 9 0 0 1-9-9z"/></defs><g fill="none" fill-rule="evenodd"><g transform="translate(18 7)"><use xlink:href="#a" fill="#000" filter="url(#c)"/><use xlink:href="#a" fill="url(#d)"/></g><g transform="translate(18 7)"><use xlink:href="#e" fill="#000" filter="url(#f)"/><use xlink:href="#e" fill="url(#g)"/></g><path stroke="#fff" stroke-width="2" d="M87.358 45.333a6636 6636 0 0 0-17.8 7.367c-3.724-3.031-8.575-5.386-13.591-5.653-12.169-.762-23.359 10.002-23.394 21.95-.534 10.757 4.39 20.715 8.84 30.22 3.723-1.549 17.28-7.165 17.62-7.308 3.655 3.045 8.322 5.272 13.2 5.623 11.974 1.002 23.116-9.29 23.725-20.957.869-10.914-4.18-21.032-8.42-30.79-.061-.153-.118-.3-.18-.452Z" opacity=".497"/><path fill="#fff" d="m85.23 52 .158.377.32.749.326.745c2.568 5.827 5.512 11.467 5.585 21.126.082 11.041-9.42 18.19-16.93 18.19-8.879.001-16.715-7.295-17.473-13.54-4.186-1.124-7.91-5.087-7.934-10.564-.03-7.007 8.778-7.69 10.999-5.907.862.693.836 2.064.073 1.817-4.742-1.54-7.672 1.494-7.454 4.511.226 3.139 1.71 5.303 4.36 6.236.559-4.676 3.08-9.636 10.03-10.418-1.182-3.087-4.202-6.858-10.42-7.716-3.873-.534-7.082.622-9.427 2.887s-3.663 4.61-3.855 8.453c-.2 3.975.671 6.308 3.057 11.524.852 1.862 3.232 5.62 5.075 9.384l-7.999 3.333-.157-.377c-2.692-6.39-6.152-12.139-6.23-22.62C37.25 59.15 46.753 52 54.263 52c8.878-.001 16.714 7.295 17.472 13.54 4.186 1.124 7.91 5.087 7.934 10.564.03 7.007-8.778 7.691-10.999 5.907-.862-.693-.836-2.064-.073-1.817 4.742 1.54 7.672-1.494 7.454-4.511-.226-3.139-1.71-5.302-4.36-6.235-.559 4.675-3.08 9.635-10.03 10.417 1.182 3.087 4.202 6.858 10.42 7.716 3.873.535 7.082-.622 9.427-2.887s3.663-4.61 3.855-8.452c.2-3.976-.671-6.308-3.057-11.524-.852-1.864-3.232-5.62-5.075-9.385zM67.879 68.958c-4.753.35-6.535 4.643-6.804 7.271a7.4 7.4 0 0 0 1.526-.269q.45-.13.854-.311l.217-.101a6.5 6.5 0 0 0 1.224-.779 7 7 0 0 0 .597-.541l-.056.056a7.3 7.3 0 0 0 .942-1.147 8 8 0 0 0 .364-.595l-.079.138a9 9 0 0 0 .433-.845l-.04.089a10 10 0 0 0 .344-.855q.194-.561.312-1.096l.031-.146q.094-.456.135-.869"/></g></svg>