<svg xmlns="http://www.w3.org/2000/svg" viewBox="0 0 48 48"><g transform="translate(2 -2)"><path fill="none" stroke="#000" d="M22 5.5C10.689 5.5 1.5 14.689 1.5 26S10.689 46.5 22 46.5 42.5 37.311 42.5 26 33.311 5.5 22 5.5z" color="#000" opacity=".15" overflow="visible" style="marker:none"/><path fill="#f9f9f9" d="M22 6C10.965 6 2 14.965 2 26s8.965 20 20 20 20-8.965 20-20S33.035 6 22 6" color="#000" overflow="visible" style="marker:none"/><path fill="#e6e6e6" d="M22 12c-7.725 0-14 6.276-14 14s6.276 14 14 14 14-6.276 14-14-6.276-14-14-14" color="#000" overflow="visible" style="marker:none"/><path fill="#ccc" d="M34 26a12 12 0 0 1-24 0 12 12 0 1 1 24 0" color="#000" overflow="visible" style="marker:none"/><path fill="none" d="M22 23.172A2.83 2.83 0 0 0 19.172 26 2.83 2.83 0 0 0 22 28.828 2.83 2.83 0 0 0 24.828 26 2.83 2.83 0 0 0 22 23.172" opacity=".5"/><path fill="none" stroke="#fff" d="M29.5 26a7.5 7.5 0 1 0-15 0 7.5 7.5 0 0 0 15 0z" color="#000" opacity=".5" overflow="visible" style="marker:none"/><circle cx="22" cy="26" r="7" opacity=".5" paint-order="markers stroke fill"/><circle cx="22" cy="26" r="5.5" opacity=".5" paint-order="markers stroke fill"/><path fill="#feffff" d="M19.796 23.669a1.093 1.144 0 0 1-2.187 0 1.093 1.144 0 1 1 2.187 0" color="#000" opacity=".4" overflow="visible" style="marker:none"/></g></svg>