<svg xmlns="http://www.w3.org/2000/svg" viewBox="0 0 64 64"><path d="M12.75 5C11.227 5 10 6.249 10 7.8v50.4c0 1.55 1.227 2.8 2.75 2.8h38.5c1.522 0 2.75-1.25 2.75-2.8V23l-14-4-4-14z" opacity=".2"/><path fill="#e67d4a" d="M12.75 4C11.227 4 10 5.249 10 6.8v50.4c0 1.55 1.227 2.8 2.75 2.8h38.5c1.522 0 2.75-1.25 2.75-2.8V22l-14-4-4-14z"/><path d="M54 23 36 5v15.188A2.806 2.806 0 0 0 38.813 23z" opacity=".2"/><path fill="#ed9a73" d="M54 22 36 4v15.188A2.806 2.806 0 0 0 38.813 22z"/><path fill="#fff" d="M12.75 4C11.227 4 10 5.25 10 6.8v1C10 6.25 11.227 5 12.75 5H36V4z" opacity=".2"/><path fill="none" stroke="#000" stroke-linecap="round" stroke-width="3" d="M31.671 45.415c-1.203.85-2.844.126-3.495-1.023-1.022-1.806.093-3.997 1.922-4.815 2.542-1.138 5.486.31 6.526 2.7 1.347 3.099-.557 6.6-3.7 7.783-3.894 1.464-8.23-.766-9.644-4.443-1.694-4.41 1.035-9.276 5.53-10.816 5.267-1.804 11.036 1.231 12.82 6.224 2.051 5.744-1.523 12.002-7.396 13.9-6.658 2.152-13.885-1.706-16.04-8.035-2.416-7.093 2.018-14.766 9.287-17.023 8.066-2.505 16.77 2.186 19.3 9.869.272.828.472 1.678.598 2.538" opacity=".2"/><path fill="none" stroke="#fff" stroke-linecap="round" stroke-width="62.649" d="M537.834 373.603c-24.66 18.09-58.314 2.675-71.647-21.765-20.955-38.41 1.901-85.03 39.39-102.436 52.108-24.197 112.466 6.61 133.777 57.462 27.617 65.9-11.409 140.398-75.858 165.546-79.81 31.143-168.71-16.278-197.67-94.506-34.736-93.835 21.21-197.33 113.366-230.093C587.155 109.43 705.405 174 741.97 280.212 784.035 402.4 710.756 535.536 590.377 575.91c-136.501 45.78-284.636-36.277-328.825-170.923-49.523-150.895 41.377-314.129 190.377-362.144 165.364-53.288 343.787 46.51 395.638 209.945a331.4 331.4 0 0 1 12.268 54.002" transform="matrix(.04878 0 0 .047 5.435 26.853)"/></svg>