<svg xmlns="http://www.w3.org/2000/svg" viewBox="0 0 64 64"><path d="M12.75 5C11.226 5 10 6.249 10 7.8v50.4c0 1.55 1.227 2.8 2.75 2.8h38.5c1.522 0 2.75-1.25 2.75-2.8V23l-14-4-4-14Z" opacity=".2"/><path fill="#4f4f4f" d="M12.75 4C11.226 4 10 5.249 10 6.8v50.4c0 1.55 1.227 2.8 2.75 2.8h38.5c1.522 0 2.75-1.25 2.75-2.8V22l-14-4-4-14Z"/><path d="M54 23 36 5v15.188A2.806 2.806 0 0 0 38.813 23Z" opacity=".2"/><path fill="#696969" d="M54 22 36 4v15.188A2.806 2.806 0 0 0 38.813 22Z"/><path fill="#fff" d="M12.75 4C11.226 4 10 5.25 10 6.8v1C10 6.25 11.226 5 12.75 5H36V4z" opacity=".1"/><ellipse cx="31.994" cy="41.408" fill="#fff" rx="13.654" ry="13.656"/><circle cx="32" cy="42" r="14" opacity=".2"/><path fill="#e040fb" d="M44.122 34.005a14.004 14.006 0 0 0-19.13-5.126 14.004 14.006 0 0 0-5.142 5.188l12.144 6.941z"/><path fill="#fdfd4b" d="m44.122 34.005-12.128 7.003L31.932 55a14.004 14.006 0 0 0 7.064-1.862 14.004 14.006 0 0 0 5.126-19.133"/><path fill="#18ffff" d="m31.994 41.008-12.144-6.94a14.004 14.006 0 0 0 .017 13.943A14.004 14.006 0 0 0 31.932 55z"/></svg>