<svg xmlns="http://www.w3.org/2000/svg" viewBox="0 0 64 64"><path d="M12.75 5C11.227 5 10 6.249 10 7.8v50.4c0 1.55 1.227 2.8 2.75 2.8h38.5c1.522 0 2.75-1.25 2.75-2.8V23l-14-4-4-14z" opacity=".2"/><path fill="#e3b7f3" d="M12.75 4C11.227 4 10 5.249 10 6.8v50.4c0 1.55 1.227 2.8 2.75 2.8h38.5c1.522 0 2.75-1.25 2.75-2.8V22l-14-4-4-14z"/><path d="m29.5 21-1 8h2l2-7.5zm7 2.5L33 30l1.5 1 5-5.5zm6 5-6 4 1 1.5 7.5-2.5zm-14.025 1.78c-1.633.01-3.397.445-5.18 1.396l-8.79 4.687.78 1.56L26.158 59.67l2.684-1.34-10.346-20.693 6.21-3.313c2.825-1.507 5.032-1.263 6.638-.316A5.47 5.47 0 0 1 34 38.535c.049 2.092-1.06 4.286-4.459 5.611l-3.012-4.35.996-.796H31v-3h-4.525l-4.004 3.203 5.912 8.54 1.037-.304c5.262-1.532 7.663-5.4 7.58-8.974a8.43 8.43 0 0 0-4.13-7.041c-1.26-.743-2.763-1.156-4.395-1.145M54 23 36 5v15.188A2.806 2.806 0 0 0 38.813 23z" opacity=".2"/><path fill="#f5c5f4" d="M54 22 36 4v15.188A2.806 2.806 0 0 0 38.813 22z"/><path fill="#fff" d="M12.75 4C11.227 4 10 5.25 10 6.8v1C10 6.25 11.227 5 12.75 5H36V4z" opacity=".2"/><path fill="none" stroke="#ce4b40" stroke-width="3" d="M27.5 58 16.627 36.253 16.5 36l7.5-4c6.393-3.41 11.391.82 11.5 5.5.068 2.937-1.73 6.11-6.5 7.5l-4.5-6.5 2.5-2h4"/><path fill="#ce4b40" d="m29.5 20-1 8h2l2-7.5z"/><path fill="#569159" d="M36.5 22.5 33 29l1.5 1 5-5.5z"/><path fill="#4b77c0" d="m42.5 27.5-6 4 1 1.5 7.5-2.5z"/></svg>