<svg xmlns="http://www.w3.org/2000/svg" viewBox="0 0 64 64"><path d="M12.75 5C11.226 5 10 6.249 10 7.8v50.4c0 1.55 1.227 2.8 2.75 2.8h38.5c1.522 0 2.75-1.25 2.75-2.8V23l-14-4-4-14Z" opacity=".2"/><path fill="#41ab93" d="M12.75 4C11.226 4 10 5.249 10 6.8v50.4c0 1.55 1.227 2.8 2.75 2.8h38.5c1.522 0 2.75-1.25 2.75-2.8V22l-14-4-4-14Z"/><path d="M17.432 28c-.792 0-1.48.647-1.43 1.445V54H19V31h4v10.135A4 4 0 0 0 20 45a4 4 0 0 0 4 4 4 4 0 0 0 4-4 4 4 0 0 0-3-3.873V31h6v10.135A4 4 0 0 0 28 45a4 4 0 0 0 4 4 4 4 0 0 0 4-4 4 4 0 0 0-3-3.873V31h6v10.135A4 4 0 0 0 36 45a4 4 0 0 0 4 4 4 4 0 0 0 4-4 4 4 0 0 0-3-3.873V31h4v23h3V29.445c0-.8-.636-1.445-1.428-1.445Z" opacity=".1"/><path d="M54 23 36 5v15.188A2.806 2.806 0 0 0 38.813 23Z" opacity=".2"/><path fill="#7ecebc" d="M54 22 36 4v15.188A2.806 2.806 0 0 0 38.813 22Z"/><path fill="#fff" d="M12.75 4C11.226 4 10 5.25 10 6.8v1C10 6.25 11.226 5 12.75 5H36V4z" opacity=".2"/><path fill="#e4e4e4" d="M39 27.74h2v14.194h-2zm-8 0h2v14.194h-2zm-8 0h2v14.194h-2z"/><circle cx="24" cy="44" r="4" fill="#3f3f3f"/><path fill="#4f4f4f" d="M17.431 27c-.791 0-1.478.646-1.428 1.444V53H19V30h26v23h3V28.444c0-.8-.637-1.444-1.428-1.444Z"/><circle cx="32" cy="44" r="4" fill="#3f3f3f"/><circle cx="40" cy="44" r="4" fill="#3f3f3f"/></svg>