<svg xmlns="http://www.w3.org/2000/svg" viewBox="0 0 64 64"><path d="M12.75 5C11.227 5 10 6.249 10 7.8v50.4c0 1.55 1.227 2.8 2.75 2.8h38.5c1.522 0 2.75-1.25 2.75-2.8V23l-14-4-4-14z" opacity=".2"/><path fill="#4f4f4f" d="M12.75 4C11.227 4 10 5.249 10 6.8v50.4c0 1.55 1.227 2.8 2.75 2.8h38.5c1.522 0 2.75-1.25 2.75-2.8V22l-14-4-4-14z"/><path fill="#fff" d="M12.75 4C11.226 4 10 5.25 10 6.8v1C10 6.25 11.226 5 12.75 5H36V4Z" opacity=".1"/><path d="M54 23 36 5v15.188A2.806 2.806 0 0 0 38.813 23z" opacity=".2"/><path fill="#696969" d="M54 22 36 4v15.188A2.806 2.806 0 0 0 38.813 22z"/><path d="M18 31v3h12v-3zm15 0v3h6v-3zm-9 6v3h3v-3zm6 0v3h12v-3zm-12 6v3h6v-3zm9 0v3h19v-3zm-9 6v3h6v-3zm9 0v3h15v-3z" opacity=".2"/><path fill="#e9dec3" d="M18 30v3h12v-3zm6 6v3h3v-3zm-6 6v3h6v-3zm0 6v3h6v-3z"/><path fill="#e0ae52" d="M33 30v3h6v-3zm-3 6v3h12v-3zm-3 6v3h19v-3zm0 6v3h15v-3z"/></svg>