<svg xmlns="http://www.w3.org/2000/svg" viewBox="0 0 16.933 16.933"><path fill="#20aaf3" d="M2.381.265h12.171v15.61H2.382z" color="#000" overflow="visible"/><path fill="none" stroke="#2584b7" stroke-linecap="round" stroke-linejoin="round" stroke-width=".265" d="m2.249.132 12.435.001v15.874H2.25z" color="#000" overflow="visible"/><path fill="#fff" d="M7.242 5.292h5.032v3.355H7.242zm-2.097.01h1.857v.3H5.145zm-.54 3.594h7.668v.3H4.606zm0 2.396h5.032v.3H4.606zm0-5.39h2.396V6.2H4.607zm0 .598h2.396v.3H4.607zm0 .6h2.396v.299H4.607zm0 .598h2.396v.3H4.607zm0 .6h2.396v.299H4.607zm0 1.197h7.668v.3H4.606zm0 .6h7.668v.299H4.606zm0 .598h7.668v.3H4.606z"/><path fill="#73c3f1" d="M7.482 5.531h4.553v2.875H7.482z"/><path fill="#363636" d="M10.82 6.434c.304.152.831.68 1.214 1.062v.456h-3.49c.607-.76 1.517-1.214 2.276-1.518"/><path fill="#4d4d4d" d="M9.834 7.117c-.454-.377-.683-.683-.986-1.138-.09.027-.086.016-.152 0 0 0-.406.603-.607.91s-.607.76-.607.76v.303h3.49s-.834-.603-1.138-.835"/><path fill="#137b02" d="M12.034 7.648h-.196l-.866.152s-.857-.228-.986-.228c-.126 0-.532.076-.608.076-.053 0-.38-.152-.456-.152-.127 0-.274.161-.654.228 0 0-.109-.242-.18-.228-.455.176-.607.152-.607.152v.759h4.553z"/><path fill="#047abe" d="M7.482 7.8v.607h3.946l.151-.152-.151-.151-.304-.152-.759-.152-.758-.076-.683.076z"/><path fill="#e3d728" d="M12.035 6.31a.78.78 0 0 1-.779-.779h.779z" opacity=".74"/></svg>