<svg xmlns="http://www.w3.org/2000/svg" xmlns:xlink="http://www.w3.org/1999/xlink" viewBox="0 0 48 48"><defs><linearGradient id="a" x1="90.7%" x2="35.327%" y1="6.565%" y2="64.144%"><stop offset="0%" stop-color="#93def2"/><stop offset="100%" stop-color="#5abadf"/></linearGradient></defs><g fill="none" fill-rule="evenodd"><path fill="#5abadf" d="M5 7.998A3 3 0 0 1 7.998 5H31.02L43 17.02v22.974A3.01 3.01 0 0 1 40.002 43H7.998A3.004 3.004 0 0 1 5 40.002z"/><path fill="url(#a)" d="m31 5 12 12V7.997A2.997 2.997 0 0 0 40.003 5z" transform="matrix(-1 0 0 -1 74 22)"/><rect width="18" height="3" x="15" y="17" fill="#fff" rx="1"/><rect width="18" height="3" x="15" y="21" fill="#fff" rx="1"/><rect width="18" height="3" x="15" y="25" fill="#fff" rx="1"/><rect width="18" height="3" x="15" y="29" fill="#fff" rx="1"/></g></svg>