<svg xmlns="http://www.w3.org/2000/svg" viewBox="0 0 64 64"><rect width="58" height="58" x="3" y="4" opacity=".2" rx="2.9" ry="2.9"/><rect width="58" height="58" x="3" y="3" fill="#569a40" rx="2.9" ry="2.9"/><path fill="#fff" d="M6 6v42h4V10h44v44H16v4h42V6Zm0 46v6h6v-6z" opacity=".5"/><path d="M21.945 12q-1.594 0-3.508.137a21.5 21.5 0 0 0-3.437.445V36h5.538v-8.39h1.16q2.693 0 4.782-.445 2.091-.447 3.543-1.373 1.454-.959 2.198-2.434.78-1.507.779-3.6c0-2.674-.956-4.616-2.87-5.873Q27.297 12 21.946 12m.319 3.736q1.275 0 2.375.207 1.133.172 1.947.618.814.445 1.275 1.234c.307.526.461 1.151.461 1.928q0 2.435-1.736 3.327-1.736.857-4.959.857h-1.089v-8.1c.643-.043.835-.07 1.726-.07" font-size="34.286" letter-spacing="0" opacity=".2" style="line-height:1.25" transform="matrix(1.44444 0 0 1.41667 -2.667 -1)" word-spacing="0"/><path fill="#fff" d="M21.945 12q-1.594 0-3.508.137a21.5 21.5 0 0 0-3.437.445V36h5.538v-8.39h1.16q2.693 0 4.782-.445 2.091-.447 3.543-1.373 1.454-.959 2.198-2.434.78-1.507.779-3.6c0-2.674-.956-4.616-2.87-5.873Q27.297 12 21.946 12m.319 3.736q1.275 0 2.375.207 1.133.172 1.947.618.814.445 1.275 1.234c.307.526.461 1.151.461 1.928q0 2.435-1.736 3.327-1.736.857-4.959.857h-1.089v-8.1c.643-.043.835-.07 1.726-.07" font-size="34.286" letter-spacing="0" style="line-height:1.25" transform="matrix(1.44444 0 0 1.41667 -2.667 -2)" word-spacing="0"/><path fill="#fff" d="M5.898 3A2.89 2.89 0 0 0 3 5.898v1A2.89 2.89 0 0 1 5.898 4h52.204A2.89 2.89 0 0 1 61 6.898v-1A2.89 2.89 0 0 0 58.102 3z" opacity=".2"/></svg>