<svg xmlns="http://www.w3.org/2000/svg" viewBox="0 0 64 64"><path d="M12.75 5C11.226 5 10 6.249 10 7.8v50.4c0 1.55 1.227 2.8 2.75 2.8h38.5c1.522 0 2.75-1.25 2.75-2.8V23l-14-4-4-14Z" opacity=".2"/><path fill="#e93a3a" d="M12.75 4C11.226 4 10 5.249 10 6.8v50.4c0 1.55 1.227 2.8 2.75 2.8h38.5c1.522 0 2.75-1.25 2.75-2.8V22l-14-4-4-14Z"/><path d="M39.063 31.012a4 4 0 0 0-.518.029c-1.63.196-3.264.46-4.846.906-3.386.957-4.449 4.432-4.449 4.432l-1.186 7.5s-.317 3.467 3.729 2.992L37 41.78v-1.06l-.928.191s.094 1.046-.445 1.156c-.786.161-1.579.292-2.373.405-.507.071-.346-.504-.346-.504l.89-6.041s.002-.378.792-.553c.622-.138 1.25-.248 1.879-.353.479-.08.443.353.443.353v.705l4.799-.705.047-1.762s-.255-2.568-2.696-2.6m-14.157 1.613-8.459 1.564-2.52 16.8 4.475-.995.631-4.697 3.022-.606s4.137-.408 5.437-4.736c.371-1.236.423-2.553.49-3.844.174-3.343-3.076-3.486-3.076-3.486M51 37l-10 4-3-3v4.2L29 51l10-5 4 3.8-1-5.8Zm-28.062.027c.193.004.566.108.435.891-.095.567-.21 1.19-.273 1.762-.123 1.106-.938 1.132-.938 1.132l-2.326.428.644-3.775 2.348-.43s.045-.009.11-.008M54 23 36 5v15.188A2.806 2.806 0 0 0 38.813 23Z" opacity=".2"/><path fill="#f18080" d="M54 22 36 4v15.188A2.806 2.806 0 0 0 38.813 22Z"/><path fill="#fff" d="M12.75 4C11.226 4 10 5.25 10 6.8v1C10 6.25 11.226 5 12.75 5H36V4z" opacity=".2"/><path fill="#fff" d="M39.063 30.012a4 4 0 0 0-.518.029c-1.63.196-3.264.46-4.846.906-3.386.957-4.449 4.432-4.449 4.432l-1.186 7.5s-.317 3.467 3.729 2.992L37 40.78v-1.06l-.928.191s.094 1.046-.445 1.156c-.786.161-1.579.292-2.373.405-.507.071-.346-.504-.346-.504l.89-6.041s.002-.378.792-.553c.622-.138 1.25-.248 1.879-.353.479-.08.443.353.443.353v.705l4.799-.705.047-1.762s-.255-2.568-2.696-2.6m-14.157 1.613-8.459 1.564-2.52 16.8 4.475-.995.631-4.697 3.022-.606s4.137-.408 5.437-4.736c.371-1.236.423-2.553.49-3.844.174-3.343-3.076-3.486-3.076-3.486M51 36l-10 4-3-3v4.2L29 50l10-5 4 3.8-1-5.8zm-28.062.027c.193.004.566.108.435.891-.095.567-.21 1.19-.273 1.762-.123 1.106-.938 1.133-.938 1.133l-2.326.427.644-3.775 2.348-.43s.045-.009.11-.008"/></svg>