<svg xmlns="http://www.w3.org/2000/svg" viewBox="0 0 64 64"><path d="M12.75 5C11.226 5 10 6.249 10 7.8v50.4c0 1.55 1.227 2.8 2.75 2.8h38.5c1.522 0 2.75-1.25 2.75-2.8V23l-14-4-4-14Z" opacity=".2"/><path fill="#4f4f4f" d="M12.75 4C11.226 4 10 5.249 10 6.8v50.4c0 1.55 1.227 2.8 2.75 2.8h38.5c1.522 0 2.75-1.25 2.75-2.8V22l-14-4-4-14Z"/><path d="M54 23 36 5v15.188A2.806 2.806 0 0 0 38.813 23Z" opacity=".2"/><path fill="#696969" d="M54 22 36 4v15.188A2.806 2.806 0 0 0 38.813 22Z"/><path fill="#fff" d="M12.75 4C11.226 4 10 5.25 10 6.8v1C10 6.25 11.226 5 12.75 5H36V4z" opacity=".1"/><path d="M24.477 30A1.5 1.497 0 0 0 23 31.52V35h-3.482a1.497 1.5 0 1 0 0 3H23v6h-3.482a1.497 1.5 0 1 0 0 3H23v3.482a1.5 1.497 0 1 0 3 0V47h6v3.482a1.5 1.497 0 1 0 3 0V47h3.482A1.497 1.5 0 0 0 40 45.477 1.497 1.5 0 0 0 38.482 44H35v-6h3.482A1.497 1.5 0 0 0 40 36.477 1.497 1.5 0 0 0 38.482 35H35v-3.48A1.5 1.497 0 0 0 33.477 30 1.5 1.497 0 0 0 32 31.52V35h-6v-3.48A1.5 1.497 0 0 0 24.477 30m20 0A1.5 1.5 0 0 0 43 31.52v13.962c-.029 2.025 3.029 2.025 3 0V31.52A1.5 1.5 0 0 0 44.477 30M26 38h6v6h-6Zm18.5 12a1.5 1.5 0 0 0-1.5 1.5 1.5 1.5 0 0 0 1.5 1.5 1.5 1.5 0 0 0 1.5-1.5 1.5 1.5 0 0 0-1.5-1.5" opacity=".2"/><path fill="#fff" d="M24.477 29A1.5 1.497 0 0 0 23 30.52V34h-3.482a1.497 1.5 0 1 0 0 3H23v6h-3.482a1.497 1.5 0 1 0 0 3H23v3.482a1.5 1.497 0 1 0 3 0V46h6v3.482a1.5 1.497 0 1 0 3 0V46h3.482A1.497 1.5 0 0 0 40 44.477 1.497 1.5 0 0 0 38.482 43H35v-6h3.482A1.497 1.5 0 0 0 40 35.477 1.497 1.5 0 0 0 38.482 34H35v-3.48A1.5 1.497 0 0 0 33.477 29 1.5 1.497 0 0 0 32 30.52V34h-6v-3.48A1.5 1.497 0 0 0 24.477 29m20 0A1.5 1.5 0 0 0 43 30.52v13.962c-.029 2.025 3.029 2.025 3 0V30.52A1.5 1.5 0 0 0 44.477 29M26 37h6v6h-6zm18.5 12a1.5 1.5 0 0 0-1.5 1.5 1.5 1.5 0 0 0 1.5 1.5 1.5 1.5 0 0 0 1.5-1.5 1.5 1.5 0 0 0-1.5-1.5"/></svg>