<svg xmlns="http://www.w3.org/2000/svg" viewBox="0 0 64 64"><path d="M12.75 5C11.226 5 10 6.249 10 7.8v50.4c0 1.55 1.227 2.8 2.75 2.8h38.5c1.522 0 2.75-1.25 2.75-2.8V23l-14-4-4-14Z" opacity=".2"/><path fill="#1370ba" d="M12.75 4C11.226 4 10 5.249 10 6.8v50.4c0 1.55 1.227 2.8 2.75 2.8h38.5c1.522 0 2.75-1.25 2.75-2.8V22l-14-4-4-14Z"/><path d="M54 23 36 5v15.188A2.806 2.806 0 0 0 38.813 23Z" opacity=".2"/><path fill="#2993ea" d="M54 22 36 4v15.188A2.806 2.806 0 0 0 38.813 22Z"/><path fill="#fff" d="M12.75 4C11.226 4 10 5.25 10 6.8v1C10 6.25 11.226 5 12.75 5H36V4z" opacity=".2"/><path d="M40 31c-2.808 0-5 2.194-5 5.074 0 1.235 2 1.235 2 0C37 34.43 37.884 33 40 33s3 1.429 3 3.074c0 1.235 2 1.235 2 0C45 33.194 42.808 31 40 31m0 4a1 1 0 1 0 0 2 1 1 0 0 0 0-2m-8 3c-1.5 0-3.269.925-4.086 2.078-.817-1.153-2.413-1.932-3.914-1.932-2.48 0-5 1.555-5 5.823V51s0 1 1 1 1-1 1-1v-7.031C21 40.725 22.468 40 24 40s3 1.201 3 3.396V51s0 1 1 1 1-1 1-1v-7.604C29 41.201 30.468 40 32 40c.973 0 3.008.342 3.008 3.396l.058 2.596C35.066 50.79 37.993 52 40 52s4.939-1.414 5-5.658V39.85c0-1.169-2-1.169-2 0v6.39c0 3.22-1.997 3.76-3 3.76s-3.014-.335-3.014-4.107l-.058-2.356C36.928 39.9 34.55 38 32 38" opacity=".2"/><path fill="#fff" d="M40 30c-2.808 0-5 2.194-5 5.074 0 1.235 2 1.235 2 0C37 33.43 37.884 32 40 32s3 1.429 3 3.074c0 1.235 2 1.235 2 0C45 32.194 42.808 30 40 30m0 4a1 1 0 1 0 0 2 1 1 0 0 0 0-2m-8 3c-1.5 0-3.269.925-4.086 2.078-.817-1.153-2.413-1.932-3.914-1.932-2.48 0-5 1.555-5 5.823V50s0 1 1 1 1-1 1-1v-7.031C21 39.725 22.468 39 24 39s3 1.201 3 3.396V50s0 1 1 1 1-1 1-1v-7.604C29 40.201 30.468 39 32 39c.973 0 3.008.342 3.008 3.396l.058 2.596C35.066 49.79 37.993 51 40 51s4.939-1.414 5-5.658V38.85c0-1.169-2-1.169-2 0v6.39c0 3.22-1.997 3.76-3 3.76s-3.014-.335-3.014-4.107l-.058-2.356C36.928 38.9 34.55 37 32 37"/></svg>