<svg xmlns="http://www.w3.org/2000/svg" viewBox="0 0 64 64"><path d="M12.75 5C11.226 5 10 6.249 10 7.8v50.4c0 1.55 1.227 2.8 2.75 2.8h38.5c1.522 0 2.75-1.25 2.75-2.8V23l-14-4-4-14Z" opacity=".2"/><path fill="#2095f2" d="M12.75 4C11.226 4 10 5.249 10 6.8v50.4c0 1.55 1.227 2.8 2.75 2.8h38.5c1.522 0 2.75-1.25 2.75-2.8V22l-14-4-4-14Z"/><path d="M54 23 36 5v15.188A2.806 2.806 0 0 0 38.813 23Z" opacity=".2"/><path fill="#7cc0f5" d="M54 22 36 4v15.188A2.806 2.806 0 0 0 38.813 22Z"/><path fill="#fff" d="M12.75 4C11.226 4 10 5.25 10 6.8v1C10 6.25 11.226 5 12.75 5H36V4z" opacity=".2"/><path d="M19.4 28c-.775 0-1.4.595-1.4 1.334v5.332c0 .739.625 1.334 1.4 1.334h25.2c.775 0 1.4-.595 1.4-1.334v-5.332c0-.739-.625-1.334-1.4-1.334Zm.016 11c-.785 0-1.416.631-1.416 1.416v14.168c0 .785.631 1.416 1.416 1.416h14.168c.785 0 1.416-.631 1.416-1.416V40.416c0-.785-.631-1.416-1.416-1.416Zm19.918 0c-.739 0-1.334.631-1.334 1.416v14.168c0 .785.595 1.416 1.334 1.416h5.332c.739 0 1.334-.631 1.334-1.416V40.416c0-.785-.595-1.416-1.334-1.416Z" opacity=".2"/><path fill="#fff" d="M19.4 27c-.775 0-1.4.595-1.4 1.334v5.332c0 .739.625 1.334 1.4 1.334h25.2c.775 0 1.4-.595 1.4-1.334v-5.332c0-.739-.625-1.334-1.4-1.334Zm.016 11c-.785 0-1.416.631-1.416 1.416v14.168c0 .785.631 1.416 1.416 1.416h14.168c.785 0 1.416-.631 1.416-1.416V39.416c0-.785-.631-1.416-1.416-1.416Zm19.918 0c-.739 0-1.334.631-1.334 1.416v14.168c0 .785.595 1.416 1.334 1.416h5.332c.739 0 1.334-.631 1.334-1.416V39.416c0-.785-.595-1.416-1.334-1.416Z"/></svg>