<svg xmlns="http://www.w3.org/2000/svg" viewBox="0 0 64 64"><path d="M11 56v2c0 1.662 1.338 3 3 3h38c1.662 0 3-1.338 3-3v-2c0 1.662-1.338 3-3 3H14c-1.662 0-3-1.338-3-3" opacity=".2"/><path fill="#e4e4e4" d="M55 57V7c0-1.662-1.338-3-3-3H14c-1.662 0-3 1.338-3 3v50c0 1.662 1.338 3 3 3h38c1.662 0 3-1.338 3-3"/><path fill="#fff" d="M14 4c-1.662 0-3 1.338-3 3v1c0-1.662 1.338-3 3-3h38c1.662 0 3 1.338 3 3V7c0-1.662-1.338-3-3-3z" opacity=".1"/><path d="M5 9v44c0 4 4 4 4 4h52zm10 21.742L33.964 47H15z" opacity=".2"/><path fill="#689f38" d="M5 8v44c0 4 4 4 4 4h52zm10 21.742L33.964 46H15z"/></svg>