<svg xmlns="http://www.w3.org/2000/svg" viewBox="0 0 64 64"><rect width="57" height="51" x="4" y="7" opacity=".2" rx="4.25" ry="4.25"/><rect width="57" height="51" x="4" y="6" fill="#e4e4e4" rx="4.25" ry="4.25"/><path fill="#363636" d="M32.5 21.642a17.5 17.5 0 0 0-17.5 17.5 18 18 0 0 0 .063 1.458h2.928a15 15 0 0 1-.074-1.458 14.583 14.583 0 0 1 14.555-14.584h.028a14.583 14.583 0 0 1 14.583 14.584 15 15 0 0 1-.074 1.458h2.928A18 18 0 0 0 50 39.142a17.5 17.5 0 0 0-17.5-17.5"/><path d="M14.5 22a2.5 2.5 0 0 0-2.5 2.5 2.5 2.5 0 0 0 2.5 2.5 2.5 2.5 0 0 0 2-1h32a2.5 2.5 0 0 0 2 1 2.5 2.5 0 0 0 2.5-2.5 2.5 2.5 0 0 0-2.5-2.5 2.5 2.5 0 0 0-2 1h-32a2.5 2.5 0 0 0-2-1" opacity=".1"/><path fill="#ff4b4b" d="M16 22h33v3H16z"/><path d="M29.5 20c-.831 0-1.5.669-1.5 1.5v6c0 .831.669 1.5 1.5 1.5h6c.831 0 1.5-.669 1.5-1.5v-6c0-.831-.669-1.5-1.5-1.5Zm-16 17c-.831 0-1.5.669-1.5 1.5v6c0 .831.669 1.5 1.5 1.5h6c.831 0 1.5-.669 1.5-1.5v-6c0-.831-.669-1.5-1.5-1.5Zm32 0c-.831 0-1.5.669-1.5 1.5v6c0 .831.669 1.5 1.5 1.5h6c.831 0 1.5-.669 1.5-1.5v-6c0-.831-.669-1.5-1.5-1.5Z" opacity=".1"/><rect width="9" height="9" x="12" y="36" fill="#3974e1" rx="1.5" ry="1.5"/><rect width="9" height="9" x="44" y="36" fill="#3974e1" rx="1.5" ry="1.5"/><circle cx="50.5" cy="23.5" r="2.5" fill="#ff4b4b"/><rect width="9" height="9" x="28" y="19" fill="#3974e1" rx="1.5" ry="1.5"/><circle cx="14.5" cy="23.5" r="2.5" fill="#ff4b4b"/><path fill="#fff" d="M8.25 6A4.24 4.24 0 0 0 4 10.25v1A4.24 4.24 0 0 1 8.25 7h48.5A4.24 4.24 0 0 1 61 11.25v-1A4.24 4.24 0 0 0 56.75 6z" opacity=".2"/></svg>