<svg xmlns="http://www.w3.org/2000/svg" xmlns:xlink="http://www.w3.org/1999/xlink" viewBox="0 0 128 128"><defs><linearGradient id="d" x1="50%" x2="50%" y1="0%" y2="100%"><stop offset="0%" stop-color="#ffa045"/><stop offset="100%" stop-color="#ed6415"/></linearGradient><linearGradient id="g" x1="50%" x2="7.994%" y1="50%" y2="88.893%"><stop offset="0%" stop-color="#fff" stop-opacity=".1"/><stop offset="100%" stop-color="#fff" stop-opacity=".3"/></linearGradient><filter id="c" width="125%" height="120.2%" x="-12.5%" y="-8.3%" filterUnits="objectBoundingBox"><feOffset dy="2" in="SourceAlpha" result="shadowOffsetOuter1"/><feGaussianBlur in="shadowOffsetOuter1" result="shadowBlurOuter1" stdDeviation="3.5"/><feColorMatrix in="shadowBlurOuter1" values="0 0 0 0 0.937254902 0 0 0 0 0.415686275 0 0 0 0 0.101960784 0 0 0 0.5 0"/></filter><filter id="f" width="124.6%" height="124.6%" x="-12.3%" y="-8.8%" filterUnits="objectBoundingBox"><feOffset dy="1" in="SourceAlpha" result="shadowOffsetOuter1"/><feGaussianBlur in="shadowOffsetOuter1" result="shadowBlurOuter1" stdDeviation="1"/><feComposite in="shadowBlurOuter1" in2="SourceAlpha" operator="out" result="shadowBlurOuter1"/><feColorMatrix in="shadowBlurOuter1" values="0 0 0 0 0 0 0 0 0 0 0 0 0 0 0 0 0 0 0.05 0"/></filter><path id="a" d="M92 105a9 9 0 0 1-9 9H9a9 9 0 0 1-9-9V9a9 9 0 0 1 9-9h54.5L92 28.5z"/><path id="e" d="M63.5 0 92 28.5H72.5a9 9 0 0 1-9-9z"/></defs><g fill="none" fill-rule="evenodd"><g fill-rule="nonzero" transform="translate(18 7)"><use xlink:href="#a" fill="#000" filter="url(#c)"/><use xlink:href="#a" fill="url(#d)"/></g><g transform="translate(18 7)"><use xlink:href="#e" fill="#000" filter="url(#f)"/><use xlink:href="#e" fill="url(#g)"/></g><path fill="#fff" d="M92 73v-2H36v2zm0-12v-2H36v2zM64 49v-2H36v2zm4 0v-2h-2v2zM45.617 99.066a9.2 9.2 0 0 0 2.612-.366 9 9 0 0 0 2.314-1.05 9.2 9.2 0 0 0 1.935-1.66 10.2 10.2 0 0 0 1.483-2.203q.615-1.227.946-2.68.33-1.452.33-3.076a8.2 8.2 0 0 0-.532-2.972 6.9 6.9 0 0 0-1.513-2.374q-.983-1.001-2.387-1.569-1.404-.567-3.161-.568-1.368 0-2.619.367a8.8 8.8 0 0 0-2.32 1.055 9.5 9.5 0 0 0-1.94 1.667 10 10 0 0 0-1.483 2.203 12 12 0 0 0-.946 2.673 13.6 13.6 0 0 0-.336 3.07q0 1.6.543 2.973a7 7 0 0 0 1.538 2.374 7.1 7.1 0 0 0 2.399 1.57q1.404.567 3.137.567m.147-3.295a4.1 4.1 0 0 1-1.636-.318 3.5 3.5 0 0 1-1.251-.903 4.2 4.2 0 0 1-.806-1.404 5.5 5.5 0 0 1-.287-1.831q0-1.575.446-2.936t1.214-2.368a5.8 5.8 0 0 1 1.813-1.58 4.6 4.6 0 0 1 2.24-.575q.89 0 1.618.318.726.317 1.245.903.518.585.805 1.41t.287 1.825q0 1.6-.44 2.96-.438 1.362-1.208 2.362a5.75 5.75 0 0 1-1.806 1.569 4.6 4.6 0 0 1-2.234.568M60.697 99l1.465-7h7.14l.623-3h-7.14l1.012-4.976h7.825L72.27 81H60.733l-3.747 18zm19.608 0c.887 0 1.732-.503 2.533-.74a8.57 8.57 0 0 0 4.071-2.605 9.7 9.7 0 0 0 1.392-2.094q.573-1.16.885-2.52.31-1.362.311-2.875 0-1.686-.494-3.016-.495-1.33-1.429-2.252-.933-.921-2.27-1.41T82.283 81h-6.238L72.31 99zm-3.625-3.01L79.133 84h2.332c.667 0 1.263.229 1.788.436q.788.312 1.33.885.545.574.83 1.404.288.83.288 1.856 0 1.55-.428 2.82-.426 1.269-1.19 2.178a5.3 5.3 0 0 1-1.812 1.404c-.7.33-1.465 1.007-2.295 1.007z"/></g></svg>