<svg xmlns="http://www.w3.org/2000/svg" viewBox="0 0 64 64"><path d="M21.123 8C19.42 8 17.986 9.4 18 11.104V20.6h6V14h16v6.6h6v-9.496C46.014 9.4 44.58 8 42.877 8H32ZM4 45.4v10.303A2.345 2.298 0 0 0 6.346 58h51.308A2.345 2.298 0 0 0 60 55.703V45.4Z" opacity=".2"/><path fill="#995c31" d="M21.123 7C19.42 7 17.986 8.4 18 10.104V19.6h6V13h16v6.6h6v-9.496C46.014 8.4 44.58 7 42.877 7H32ZM4 44.4v10.303A2.345 2.298 0 0 0 6.346 57h51.308A2.345 2.298 0 0 0 60 54.703V44.4Z"/><path d="M55.362 50H8.638A4.638 4.493 0 0 1 4 45.507V22.283A3.389 3.283 0 0 1 7.39 19h49.22A3.389 3.283 0 0 1 60 22.283v23.224A4.638 4.493 0 0 1 55.362 50" opacity=".2"/><path fill="#c48049" d="M55.362 49H8.638A4.638 4.493 0 0 1 4 44.507V21.283A3.389 3.283 0 0 1 7.39 18h49.22A3.389 3.283 0 0 1 60 21.283v23.224A4.638 4.493 0 0 1 55.362 49"/><rect width="12" height="6" x="26" y="41" opacity=".2" rx="2.25"/><rect width="12" height="6" x="26" y="40" fill="#fff" rx="2.25"/><path fill="#fff" d="M21.121 7C19.418 7 17.986 8.403 18 10.105v1C17.986 9.403 19.418 8 21.121 8H42.88c1.703 0 3.135 1.403 3.121 3.105v-1C46.014 8.403 44.582 7 42.879 7zM7.389 18A3.389 3.283 0 0 0 4 21.283v1A3.389 3.283 0 0 1 7.389 19H56.61A3.389 3.283 0 0 1 60 22.283v-1A3.389 3.283 0 0 0 56.611 18z" opacity=".1"/></svg>