<svg xmlns="http://www.w3.org/2000/svg" viewBox="0 0 64 64"><path d="M12.813 5A2.8 2.8 0 0 0 10 7.8v50.4a2.8 2.8 0 0 0 2.813 2.8h39.375A2.8 2.8 0 0 0 55 58.2V22l-14.062-3L38 5Z" opacity=".2"/><path fill="#e4e4e4" d="M12.813 4A2.8 2.8 0 0 0 10 6.8v50.4a2.8 2.8 0 0 0 2.813 2.8h39.375A2.8 2.8 0 0 0 55 57.2V21l-14.062-3L38 4Z"/><path d="M55 22 38 5v14.167A2.827 2.827 0 0 0 40.833 22Z" opacity=".2"/><path fill="#fafafa" d="M55 21 38 4v14.167A2.827 2.827 0 0 0 40.833 21Z"/><path fill="#fff" d="M12.813 4A2.8 2.8 0 0 0 10 6.8v1A2.8 2.8 0 0 1 12.813 5H38V4Z" opacity=".2"/><path fill-rule="evenodd" d="M19.837 48.905 14 35.428l4.843-2.232 3.761 9.047 4.549-2.31 2.046 4.354z" opacity=".1"/><path fill="#4587cf" fill-rule="evenodd" d="M19.837 47.905 14 34.428l4.843-2.232 3.761 9.047 4.549-2.31 2.046 4.354z"/><path fill-rule="evenodd" d="m36.884 31 5.135.982 1.103 3.319 2.255-2.564L51 33.919l-5.05 5.608 2.85 8.355-6.053-.586-1.076-4.53-2.735 3.728-4.708-1.466 4.733-6.675z" opacity=".1"/><path fill="#de5328" fill-rule="evenodd" d="m36.884 30 5.135.982 1.103 3.319 2.255-2.564L51 32.919l-5.05 5.608 2.85 8.355-6.053-.586-1.076-4.53-2.735 3.728-4.708-1.466 4.733-6.675z"/><path fill-rule="evenodd" d="m23.893 35.85 5.875.796 1.744 3.634 2.198-3.142 5.913.757-5.42 7.723L32.876 53l-5.496-.87.948-6.626Z" opacity=".1"/><path fill="#dfa722" fill-rule="evenodd" d="m23.893 34.85 5.875.796 1.744 3.634 2.198-3.142 5.913.757-5.42 7.723L32.876 52l-5.496-.87.948-6.626Z"/></svg>