<svg xmlns="http://www.w3.org/2000/svg" xmlns:xlink="http://www.w3.org/1999/xlink" viewBox="0 0 128 128"><defs><linearGradient id="d" x1="50%" x2="50%" y1="0%" y2="98.947%"><stop offset="0%" stop-color="#f7f7f7"/><stop offset="100%" stop-color="#f6f6f6"/></linearGradient><linearGradient id="g" x1="50%" x2="7.994%" y1="50%" y2="88.893%"><stop offset="0%" stop-color="#fff" stop-opacity=".1"/><stop offset="100%" stop-color="#fff" stop-opacity=".3"/></linearGradient><filter id="b" width="125%" height="120.2%" x="-12.5%" y="-8.3%" filterUnits="objectBoundingBox"><feOffset dy="2" in="SourceAlpha" result="shadowOffsetOuter1"/><feGaussianBlur in="shadowOffsetOuter1" result="shadowBlurOuter1" stdDeviation="3.5"/><feColorMatrix in="shadowBlurOuter1" values="0 0 0 0 0 0 0 0 0 0 0 0 0 0 0 0 0 0 0.1 0"/></filter><filter id="f" width="124.6%" height="124.6%" x="-12.3%" y="-8.8%" filterUnits="objectBoundingBox"><feOffset dy="1" in="SourceAlpha" result="shadowOffsetOuter1"/><feGaussianBlur in="shadowOffsetOuter1" result="shadowBlurOuter1" stdDeviation="1"/><feComposite in="shadowBlurOuter1" in2="SourceAlpha" operator="out" result="shadowBlurOuter1"/><feColorMatrix in="shadowBlurOuter1" values="0 0 0 0 0 0 0 0 0 0 0 0 0 0 0 0 0 0 0.05 0"/></filter><path id="a" d="M92 105a9 9 0 0 1-9 9H9a9 9 0 0 1-9-9V9a9 9 0 0 1 9-9h54.5L92 28.5z"/><path id="e" d="M63.5 0 92 28.5H72.5a9 9 0 0 1-9-9z"/></defs><g fill="none" fill-rule="evenodd"><g transform="translate(18 7)"><use xlink:href="#a" fill="#000" filter="url(#b)"/><use xlink:href="#a" fill="url(#d)"/></g><path fill="#000" fill-opacity=".1" fill-rule="nonzero" d="m81.707 6.5.147.146 28.5 28.5.146.147V112a9.5 9.5 0 0 1-9.5 9.5H27a9.5 9.5 0 0 1-9.5-9.5V16A9.5 9.5 0 0 1 27 6.5zM81.5 7H27a9 9 0 0 0-9 9v96a9 9 0 0 0 9 9h74a9 9 0 0 0 9-9V35.5z"/><g transform="translate(18 7)"><use xlink:href="#e" fill="#000" filter="url(#f)"/><use xlink:href="#e" fill="url(#g)"/></g><path fill="#4d4d4d" d="M70.85 95.453q-.99.587-.991 2.005 0 1.129.737 1.797.75.657 2.029.657 1.763 0 2.823-1.244 1.071-1.257 1.071-3.33v-.473h-2.108q-2.57 0-3.561.588M60 84l8 18h-2.3l-1.9-4h-9.6l-1.9 4H50l8-18zm13.074 4.135q2.8 0 4.183 1.452t1.383 4.402v7.364h-2.12v-1.96q-.727 1.176-1.81 1.74-1.083.554-2.65.554-1.982 0-3.157-1.107-1.164-1.118-1.164-2.984 0-2.178 1.452-3.284 1.463-1.107 4.355-1.106h2.973v-.208q0-1.464-.968-2.258-.956-.807-2.696-.807-1.106 0-2.155.265t-2.016.795v-1.959q1.163-.45 2.258-.668 1.095-.23 2.132-.23M59 87l-4 9h8z"/><path fill="#fc0000" d="M88.444 70.095c-2.7 0-4.888 2.217-4.888 4.953 0 2.735 2.188 4.952 4.888 4.952s4.89-2.217 4.89-4.952c0-2.736-2.19-4.953-4.89-4.953m-9.777 1.651c-1.8 0-3.26 1.478-3.26 3.302 0 1.823 1.46 3.301 3.26 3.301s3.259-1.478 3.259-3.301-1.46-3.302-3.26-3.302m-6.518 1.651c-.9 0-1.63.739-1.63 1.65 0 .912.73 1.651 1.63 1.651s1.63-.739 1.63-1.65a1.64 1.64 0 0 0-1.63-1.651"/><path fill="#f60" d="M82.725 58.378c-2.338 1.367-3.14 4.396-1.79 6.765s4.34 3.18 6.679 1.813c2.338-1.368 3.14-4.397 1.79-6.766s-4.34-3.18-6.679-1.812m-7.653 6.382c-1.559.911-2.093 2.93-1.193 4.51a3.237 3.237 0 0 0 4.452 1.208c1.56-.911 2.093-2.93 1.193-4.51a3.237 3.237 0 0 0-4.452-1.208m-4.83 4.731a1.663 1.663 0 0 0-.597 2.255c.45.79 1.447 1.06 2.226.604a1.663 1.663 0 0 0 .597-2.255 1.62 1.62 0 0 0-2.226-.604"/><path fill="gold" d="M71.988 51.127c-1.35 2.369-.549 5.398 1.79 6.765 2.338 1.368 5.328.556 6.678-1.813s.549-5.397-1.79-6.765-5.328-.556-6.678 1.813M68.51 60.53c-.9 1.58-.365 3.599 1.194 4.51a3.237 3.237 0 0 0 4.452-1.208c.9-1.58.366-3.599-1.193-4.51a3.237 3.237 0 0 0-4.452 1.208m-1.848 6.544c-.45.79-.183 1.8.596 2.255.78.456 1.776.185 2.226-.604.45-.79.183-1.8-.596-2.255a1.62 1.62 0 0 0-2.226.604"/><path fill="#25cc00" d="M59.111 50.286c0 2.735 2.189 4.952 4.889 4.952s4.889-2.217 4.889-4.952S66.7 45.333 64 45.333s-4.889 2.218-4.889 4.953m1.629 9.904c0 1.824 1.46 3.302 3.26 3.302s3.26-1.478 3.26-3.302c0-1.823-1.46-3.301-3.26-3.301s-3.26 1.478-3.26 3.301m1.63 6.604c0 .911.73 1.65 1.63 1.65s1.63-.739 1.63-1.65c0-.912-.73-1.651-1.63-1.651s-1.63.739-1.63 1.65"/><path fill="#099" d="M47.544 56.08c1.35 2.368 4.34 3.18 6.678 1.812 2.339-1.367 3.14-4.396 1.79-6.765s-4.34-3.18-6.679-1.813c-2.338 1.368-3.14 4.397-1.79 6.765m6.301 7.753a3.237 3.237 0 0 0 4.452 1.208c1.56-.911 2.093-2.93 1.193-4.51a3.237 3.237 0 0 0-4.452-1.208c-1.559.911-2.093 2.93-1.193 4.51m4.671 4.893c.45.79 1.446 1.06 2.226.604a1.663 1.663 0 0 0 .596-2.255 1.62 1.62 0 0 0-2.226-.604 1.663 1.663 0 0 0-.596 2.255"/><path fill="#03c" d="M40.386 66.956c2.338 1.367 5.328.556 6.678-1.813s.55-5.398-1.79-6.765c-2.337-1.368-5.327-.556-6.677 1.812-1.35 2.37-.55 5.398 1.789 6.766m9.283 3.522a3.237 3.237 0 0 0 4.452-1.208c.9-1.58.366-3.599-1.193-4.51a3.237 3.237 0 0 0-4.452 1.208c-.9 1.58-.366 3.599 1.193 4.51m6.46 1.872c.78.456 1.776.186 2.226-.604s.183-1.8-.597-2.255a1.62 1.62 0 0 0-2.226.604c-.45.79-.183 1.8.597 2.255"/><path fill="#609" d="M39.556 80c2.7 0 4.888-2.217 4.888-4.952 0-2.736-2.188-4.953-4.888-4.953s-4.89 2.217-4.89 4.953c0 2.735 2.19 4.952 4.89 4.952m9.777-1.65c1.8 0 3.26-1.479 3.26-3.302 0-1.824-1.46-3.302-3.26-3.302s-3.259 1.478-3.259 3.302c0 1.823 1.46 3.301 3.26 3.301m6.518-1.651c.9 0 1.63-.739 1.63-1.65 0-.912-.73-1.651-1.63-1.651s-1.63.739-1.63 1.65c0 .912.73 1.651 1.63 1.651"/></g></svg>