<svg xmlns="http://www.w3.org/2000/svg" viewBox="0 0 64 64"><path d="M14.5 8a2.495 2.495 0 0 0-2.5 2.5v45c0 1.385 1.115 2.5 2.5 2.5h35c1.385 0 2.5-1.115 2.5-2.5V23L37 8Z" opacity=".2"/><path fill="#fec006" d="M14.5 7A2.495 2.495 0 0 0 12 9.5v45c0 1.385 1.115 2.5 2.5 2.5h35c1.385 0 2.5-1.115 2.5-2.5V22l-12-3-3-12Z"/><path d="M52 23 37 8v12.5c0 1.385 1.115 2.5 2.5 2.5Z" opacity=".2"/><path fill="#fed861" d="M52 22 37 7v12.5c0 1.385 1.115 2.5 2.5 2.5Z"/><path fill="#fff" d="M14.5 7A2.495 2.495 0 0 0 12 9.5v1C12 9.115 13.115 8 14.5 8H37V7z" opacity=".2"/><path d="M24 29c-1.662 0-3 1.338-3 3v15c0 1.662 1.338 3 3 3h16c1.662 0 3-1.338 3-3V32c0-1.662-1.338-3-3-3Zm0 5h16v11H24Z" opacity=".2"/><path fill="#fff" d="M24 28c-1.662 0-3 1.338-3 3v15c0 1.662 1.338 3 3 3h16c1.662 0 3-1.338 3-3V31c0-1.662-1.338-3-3-3Zm0 5h16v11H24Z"/></svg>