<svg xmlns="http://www.w3.org/2000/svg" viewBox="0 0 64 64"><rect width="64" height="64" fill="none" opacity=".75" rx="0" ry="0"/><path fill="none" d="m8.5.5 47 .004V59.5h-47z" opacity=".3"/><path fill="#25bb70" d="M8.991 1.05c10.544 0 46.01.005 46.01.005V59.04H8.992z"/><path fill="none" stroke="#53ab45" stroke-linejoin="round" d="m8.5.541 46.998.004v59H8.5z"/><g fill="#fff" opacity=".75"><path d="M29.168 18.873c-1.272.283-2.53.676-3.71 1.27.028 1.042.095 2.04.232 3.053-.459.293-.94.545-1.368.889-.435.334-.878.654-1.272 1.045a24 24 0 0 0-2.476-1.44c-.924.995-1.789 2.068-2.494 3.27.554.87 1.15 1.746 1.7 2.428v7.373q.021 0 .04.002l4.521.436a.49.49 0 0 1 .439.45l.14 1.996 3.942.281.272-1.841a.49.49 0 0 1 .481-.416h4.77c.24 0 .445.177.48.416l.272 1.841 3.943-.281.14-1.995a.49.49 0 0 1 .438-.451l4.519-.436.04-.002v-.588h.002v-6.785a27 27 0 0 0 1.7-2.428c-.705-1.202-1.57-2.275-2.494-3.27-.857.432-1.69.92-2.476 1.44-.394-.39-.837-.71-1.272-1.045-.428-.344-.91-.595-1.367-.889.136-1.014.203-2.011.23-3.053-1.18-.594-2.437-.987-3.71-1.27a26 26 0 0 0-1.377 2.682 9 9 0 0 0-1.444-.115v-.001h-.019a9.4 9.4 0 0 0-1.445.116 26 26 0 0 0-1.377-2.682m-3.576 10.786a2.723 2.723 0 1 1 .002 5.446 2.723 2.723 0 0 1-.002-5.446m12.815 0a2.723 2.723 0 1 1 0 5.447 2.724 2.724 0 1 1 0-5.447m-6.408 1.593c.484 0 .878.358.878.797v2.508c0 .44-.394.797-.878.797s-.877-.357-.877-.797v-2.508c0-.44.393-.797.877-.797"/><path d="m40.162 38.129-.14 2.006a.49.49 0 0 1-.45.451l-4.816.344-.035.001a.49.49 0 0 1-.48-.416l-.277-1.872h-3.928l-.276 1.872a.486.486 0 0 1-.517.415l-4.814-.344a.49.49 0 0 1-.451-.451l-.14-2.006-4.065-.392c.002.437.008.915.008 1.01 0 4.293 5.445 6.356 12.21 6.38h.017c6.766-.024 12.21-2.087 12.21-6.38 0-.096.005-.573.007-1.01zm-12.501-5.586a1.807 1.807 0 1 1-3.615 0 1.807 1.807 0 0 1 3.615 0m8.678 0a1.807 1.807 0 1 0 3.614 0 1.807 1.807 0 0 0-3.614 0"/></g></svg>