<svg xmlns="http://www.w3.org/2000/svg" viewBox="0 0 64 64"><path d="M12 13h40v5H12zm0 9h40v5H12zm0 9h40v5H12zm0 9h40v5H12zm0 9h40v5H12z" opacity=".2"/><path fill="#b7b7b7" d="M12 12h40v5H12zm0 9h40v5H12zm0 9h40v5H12zm0 9h40v5H12zm0 9h40v5H12z"/><rect width="36" height="48" x="14" y="9" opacity=".2" rx="2.5" ry="2.5"/><rect width="36" height="48" x="14" y="8" fill="#4f4f4f" rx="2.5" ry="2.5"/><path fill="#fff" d="M16.5 8a2.495 2.495 0 0 0-2.5 2.5v1c0-1.385 1.115-2.5 2.5-2.5h31c1.385 0 2.5 1.115 2.5 2.5v-1C50 9.115 48.885 8 47.5 8z" opacity=".1"/><path fill="#fff" d="M23 14h2v6h-2zm0 8h2v6h-2zm0 8h2v12h-2zm8-16h2v16h-2zm0 18h2v16h-2zm8-18h2v12h-2zm0 14h2v6h-2zm0 8h2v14h-2z" opacity=".4"/></svg>