<svg xmlns="http://www.w3.org/2000/svg" viewBox="0 0 64 64"><rect width="56" height="56" x="4" y="5" opacity=".2" rx="4.2" ry="4.2"/><rect width="56" height="56" x="4" y="4" fill="#e4e4e4" rx="4.2" ry="4.2"/><path fill="#258646" d="M22 52h4V34h-4zm20-40h4v40h-4z"/><path fill="#33c03b" d="M39 22h10v20H39z"/><path fill="#258646" d="M22 12h4v18h-4z"/><path fill="#33c03b" d="M33 26v4H15v-4zm0 8v4H15v-4z"/><path fill="#fff" d="M8.2 4A4.19 4.19 0 0 0 4 8.2v1A4.19 4.19 0 0 1 8.2 5h47.6A4.19 4.19 0 0 1 60 9.2v-1A4.19 4.19 0 0 0 55.8 4z" opacity=".2"/><path d="M15 30h18v1H15zm0 8h18v1H15zm24 4h10v1H39zM22 52h4v1h-4zm20 0h4v1h-4z" opacity=".1"/></svg>