<svg xmlns="http://www.w3.org/2000/svg" viewBox="0 0 64 64"><path d="M58 54.333V11.667C58 10.19 56.84 9 55.4 9H8.6C7.16 9 6 10.19 6 11.667v42.666C6 55.811 7.16 57 8.6 57h46.8c1.44 0 2.6-1.189 2.6-2.667" opacity=".2"/><path fill="#607d8b" d="M58 53.333V10.667C58 9.189 56.84 8 55.4 8H8.6C7.16 8 6 9.19 6 10.667v42.666C6 54.81 7.16 56 8.6 56h46.8c1.44 0 2.6-1.19 2.6-2.667"/><path d="M19 23v3h26v-3zm0 6v3h26v-3zm0 6v3h26v-3zm0 6v3h16v-3z" opacity=".2"/><path fill="#fff" d="M19 22v3h26v-3zm0 6v3h26v-3zm0 6v3h26v-3zm0 6v3h16v-3z"/><path fill="#fff" d="M8.6 8C7.16 8 6 9.189 6 10.666v1.002C6 10.191 7.16 9 8.6 9h46.8c1.44 0 2.6 1.19 2.6 2.668v-1C58 9.19 56.84 8 55.4 8z" opacity=".2"/></svg>