<svg xmlns="http://www.w3.org/2000/svg" viewBox="0 0 64 64"><path d="M12.75 5C11.226 5 10 6.249 10 7.8v50.4c0 1.551 1.227 2.8 2.75 2.8h38.5c1.523 0 2.75-1.249 2.75-2.8V21l-14-2-2-14Z" opacity=".2"/><path fill="#f4981b" d="M12.75 4C11.226 4 10 5.249 10 6.8v50.4c0 1.551 1.227 2.8 2.75 2.8h38.5c1.523 0 2.75-1.249 2.75-2.8V20l-14-2-2-14Z"/><path d="M54 21 38 5v13.333A2.66 2.66 0 0 0 40.667 21Z" opacity=".2"/><path fill="#f7b65d" d="M54 20 38 4v13.333A2.66 2.66 0 0 0 40.667 20Z"/><path d="M32 26.996 18 41h4v14h20V41h4l-4-4v-8h-4v3.996z" opacity=".1"/><path fill="#3f3f3f" d="M32 25.996 18 40h4v14h20V40h4l-4-4v-8h-4v3.996z"/><path fill="#fff" d="M12.75 4C11.226 4 10 5.25 10 6.8v1C10 6.25 11.226 5 12.75 5H38V4z" opacity=".2"/></svg>