<svg xmlns="http://www.w3.org/2000/svg" viewBox="0 0 64 64"><path fill="none" d="M0-.012h64v64H0z" opacity=".75"/><path fill="#3889e9" d="M9 1.002h46v59H9.003v-59z"/><path fill="none" stroke="#60a1ed" stroke-linecap="round" stroke-linejoin="round" stroke-width="1.002" d="m8.5.499 47 .004V60.5H8.502V.499z"/><path fill="#fff" d="M31.068 13.782a1.872 1.872 0 0 0-1.076 3.404c-1.373 4.147-3.879 10.914-6.416 13.447 0 0 3.712 5.623 3.723 9.367a1.41 1.41 0 0 0-1.38 1.416c0 .779.608 1.398 1.373 1.415v4.65h9.381v-4.65h.01c.78 0 1.405-.63 1.405-1.415S37.462 40 36.684 40h-.022c.015-3.747 3.762-9.363 3.762-9.363-2.537-2.537-5.043-9.304-6.416-13.448a1.876 1.876 0 0 0-1.072-3.407v17.106a1.876 1.876 0 1 1-1.876 0V17.526z"/></svg>