<svg xmlns="http://www.w3.org/2000/svg" viewBox="0 0 64 64"><path d="M12.75 5C11.227 5 10 6.249 10 7.8v50.4c0 1.55 1.227 2.8 2.75 2.8h38.5c1.522 0 2.75-1.25 2.75-2.8V23l-14-4-4-14z" opacity=".2"/><path fill="#4f4f4f" d="M12.75 4C11.227 4 10 5.249 10 6.8v50.4c0 1.55 1.227 2.8 2.75 2.8h38.5c1.522 0 2.75-1.25 2.75-2.8V22l-14-4-4-14z"/><path d="M54 23 36 5v15.188A2.806 2.806 0 0 0 38.813 23z" opacity=".2"/><path fill="#696969" d="M54 22 36 4v15.188A2.806 2.806 0 0 0 38.813 22z"/><path fill="#fff" d="M12.75 4C11.227 4 10 5.25 10 6.8v1C10 6.25 11.227 5 12.75 5H36V4z" opacity=".1"/><path d="M27.998 33.791c-11.592 3.105-16.352 8.522-15.317 12.386s7.867 6.174 19.458 3.068c.966-.258.966-.258-.259-.965-7.986 1.104-12.627-.758-13.403-3.656-.777-2.898 2.311-6.831 9.767-9.913.013.046.719-1.179-.246-.92m3.863-1.036c-.966.259.259.967.247.921 7.998-1.059 12.638.803 13.415 3.701s-2.311 6.831-7.952 9.064L33.862 36.36c-1.224-.707-.966.259-.966.259l1.882 10.884c.196.732.245.907.677.838q.099-.016.228-.047l.002-.001q.138-.035.317-.083c11.591-3.106 16.352-8.522 15.316-12.386s-7.866-6.174-19.457-3.069" opacity=".1"/><path fill="#fecd38" d="M27.998 32.79c-11.592 3.106-16.352 8.523-15.317 12.386 1.036 3.864 7.867 6.175 19.458 3.069.966-.259.966-.259-.259-.966-7.986 1.105-12.627-.758-13.403-3.656-.777-2.897 2.311-6.83 9.767-9.912.013.046.719-1.18-.246-.921m3.863-1.035c-.966.259.259.967.247.921 7.998-1.06 12.638.803 13.415 3.701.776 2.897-2.311 6.83-7.952 9.064L33.862 35.36c-1.224-.707-.966.259-.966.259l1.882 10.884c.196.732.245.907.677.837q.099-.014.228-.047h.002q.138-.035.317-.083c11.591-3.106 16.352-8.523 15.316-12.386-1.035-3.864-7.866-6.175-19.457-3.069"/></svg>