<svg xmlns="http://www.w3.org/2000/svg" viewBox="0 0 64 64"><path d="M12.75 5C11.226 5 10 6.249 10 7.8v50.4c0 1.55 1.227 2.8 2.75 2.8h38.5c1.522 0 2.75-1.25 2.75-2.8V23l-14-4-4-14Z" opacity=".2"/><path fill="#1eb04a" d="M12.75 4C11.226 4 10 5.249 10 6.8v50.4c0 1.55 1.227 2.8 2.75 2.8h38.5c1.522 0 2.75-1.25 2.75-2.8V22l-14-4-4-14Z"/><path d="M18 32.6v16.494L22 51l3.702-1.887 2.103 4.117L32.009 55l4.005-1.77v-5.924L38 49.5l4 1.5 4-2V32.6L42 31l-3.926 1.384-2.078 2.44L36 28l-4-1-4 1-2.476 4.524L22 31ZM54 23 36 5v15.188A2.806 2.806 0 0 0 38.813 23Z" opacity=".2"/><path fill="#47c96e" d="M54 22 36 4v15.188A2.806 2.806 0 0 0 38.813 22Z"/><path fill="#fff" d="M12.75 4C11.226 4 10 5.25 10 6.8v1C10 6.25 11.226 5 12.75 5H36V4z" opacity=".2"/><path fill="#fff" d="M18 31.6v16.494L22 50l3.702-1.887 2.103 4.117L32.009 54l4.005-1.77v-5.924L38 48.5l4 1.5 4-2V31.6L42 30l-3.926 1.384-2.078 2.44L36 27l-4-1-4 1-2.476 4.524L22 30Z"/><path fill="#069330" d="m28 27-2.478 4.523 2.483 3.662L29.2 34.4l2.8-5.9Zm.005 8.185v8.736L22 33l-4-1.4v16.494L22 50l.042-8.554 5.763 10.785L32.008 54V36.787Zm10.07-3.801-2.898 3.371L36 35l6 8.618V33ZM36 42.8l.014 3.505L38 48.5l4 1.5Z" opacity=".5"/></svg>