<svg xmlns="http://www.w3.org/2000/svg" xmlns:xlink="http://www.w3.org/1999/xlink" viewBox="0 0 128 128"><defs><linearGradient id="d" x1="50%" x2="50%" y1="0%" y2="100%"><stop offset="0%" stop-color="#b7ee43"/><stop offset="100%" stop-color="#6ad500"/></linearGradient><linearGradient id="g" x1="50%" x2="7.994%" y1="50%" y2="88.893%"><stop offset="0%" stop-color="#fff" stop-opacity=".1"/><stop offset="100%" stop-color="#fff" stop-opacity=".3"/></linearGradient><filter id="c" width="125%" height="120.2%" x="-12.5%" y="-8.3%" filterUnits="objectBoundingBox"><feOffset dy="2" in="SourceAlpha" result="shadowOffsetOuter1"/><feGaussianBlur in="shadowOffsetOuter1" result="shadowBlurOuter1" stdDeviation="3.5"/><feColorMatrix in="shadowBlurOuter1" values="0 0 0 0 0.505882353 0 0 0 0 0.741176471 0 0 0 0 0 0 0 0 0.5 0"/></filter><filter id="f" width="124.6%" height="124.6%" x="-12.3%" y="-8.8%" filterUnits="objectBoundingBox"><feOffset dy="1" in="SourceAlpha" result="shadowOffsetOuter1"/><feGaussianBlur in="shadowOffsetOuter1" result="shadowBlurOuter1" stdDeviation="1"/><feComposite in="shadowBlurOuter1" in2="SourceAlpha" operator="out" result="shadowBlurOuter1"/><feColorMatrix in="shadowBlurOuter1" values="0 0 0 0 0 0 0 0 0 0 0 0 0 0 0 0 0 0 0.05 0"/></filter><path id="a" d="M92 105a9 9 0 0 1-9 9H9a9 9 0 0 1-9-9V9a9 9 0 0 1 9-9h54.5L92 28.5z"/><path id="e" d="M63.5 0 92 28.5H72.5a9 9 0 0 1-9-9z"/></defs><g fill="none" fill-rule="evenodd"><g transform="translate(18 7)"><use xlink:href="#a" fill="#000" filter="url(#c)"/><use xlink:href="#a" fill="url(#d)"/></g><g transform="translate(18 7)"><use xlink:href="#e" fill="#000" filter="url(#f)"/><use xlink:href="#e" fill="url(#g)"/></g><path fill="#fff" d="M79.503 57.814c.731-.002 1.424.766 1.424 1.718v.488c0 .714.635 2.373 4.147 4.562 0 0 4.587 2.478 5.888 6.952 0 0 1.43 3.992-.901 9.03 0 0-.222.464-.707.27-.384-.156-.253-.644-.253-.644s1.57-3.925.264-7.106c0 0-1.206-4.37-8.654-6.355v.63l-.001.16-.001.368-.017 7.8-.002.797-.002.797-.002.794c-.012 4.484-.027 8.602-.039 8.662-.029 2.539-2.138 5.205-5.378 6.467-3.955 1.538-8.088.4-9.235-2.542-1.147-2.944 1.08-6.736 5.093-8.12 2.726-.938 5.107-.872 6.952.086l.048-23.086c.003-.952.648-1.725 1.376-1.728M72 76v2H44v-2zm0-12v2H44v-2zm0-12v2H44v-2z"/></g></svg>