<svg xmlns="http://www.w3.org/2000/svg" viewBox="0 0 64 64"><path d="M12.75 5C11.226 5 10 6.249 10 7.8v50.4c0 1.551 1.227 2.8 2.75 2.8h38.5c1.523 0 2.75-1.249 2.75-2.8V21l-13.75-2L38 5Z" opacity=".2"/><path fill="#e4e4e4" d="M12.75 4C11.226 4 10 5.249 10 6.8v50.4c0 1.551 1.227 2.8 2.75 2.8h38.5c1.523 0 2.75-1.249 2.75-2.8V20l-13.75-2L38 4Z"/><path d="M54 21 38 5v13.333A2.66 2.66 0 0 0 40.667 21Z" opacity=".2"/><path fill="#fafafa" d="M54 20 38 4v13.333A2.66 2.66 0 0 0 40.667 20Z"/><path d="M34.708 38.325q.147.167.777.747c5.896 5.98 8.73 8.648 8.502 9.364q-.246.79-1.417 1.341-1.17.52-2.108.47c-.495-.025-2.846-1.864-7.051-6.88q-1.273-1.575-1.496-1.78-.924.981-2.763 4.036c-1.578 3.25-3.655 6.248-4.844 9.681q-.544 1.803-2.772 1.69-1.173-.061-1.44-.782-.27-.72.219-2.238.936-3.037 9.004-14.737-.045-.517-2.312-3.75c-1.51-2.157-2.71-3.79-3.598-4.628q-1.444-1.36-1.202-2.087.545-1.803 3.437-1.655c.938.049 2.61 2.07 5.014 5.793q1.541 2.297 2.02 2.804.831-.761 2.371-2.803 1.543-2.074 2.133-3.36.585-1.192 1.845-1.898t2.393-.649q1.758.09 1.273 1.576-.545 1.804-6.342 7.933-1.51 1.593-1.643 1.812" opacity=".1"/><path fill="#4f4f4f" d="M34.708 37.325q.147.167.777.747c5.896 5.98 8.73 8.648 8.502 9.364q-.246.79-1.417 1.341-1.17.52-2.108.47c-.495-.025-2.846-1.864-7.051-6.88q-1.273-1.575-1.496-1.78-.924.981-2.763 4.036c-1.578 3.25-3.655 6.248-4.844 9.681q-.544 1.803-2.772 1.69-1.173-.061-1.44-.782-.27-.72.219-2.238.936-3.037 9.004-14.737-.045-.517-2.312-3.75c-1.51-2.157-2.71-3.79-3.598-4.628q-1.444-1.36-1.202-2.087.545-1.803 3.437-1.655c.938.049 2.61 2.07 5.014 5.793q1.541 2.297 2.02 2.804.831-.761 2.371-2.803 1.543-2.074 2.133-3.36.585-1.192 1.845-1.898t2.393-.649q1.758.09 1.273 1.576-.545 1.804-6.342 7.933-1.51 1.593-1.643 1.812"/><path fill="#fff" d="M12.75 4C11.226 4 10 5.25 10 6.8v1C10 6.25 11.226 5 12.75 5H38V4z" opacity=".2"/></svg>