<svg xmlns="http://www.w3.org/2000/svg" viewBox="0 0 64 64"><path d="M12.75 5C11.226 5 10 6.249 10 7.8v50.4c0 1.55 1.227 2.8 2.75 2.8h38.5c1.522 0 2.75-1.25 2.75-2.8V23l-14-4-4-14Z" opacity=".2"/><path fill="#e32037" d="M12.75 4C11.226 4 10 5.249 10 6.8v50.4c0 1.55 1.227 2.8 2.75 2.8h38.5c1.522 0 2.75-1.25 2.75-2.8V22l-14-4-4-14Z"/><path d="M54 23 36 5v15.188A2.806 2.806 0 0 0 38.813 23Z" opacity=".2"/><path fill="#ff6565" d="M54 22 36 4v15.188A2.806 2.806 0 0 0 38.813 22Z"/><path fill="#fff" d="M12.75 4C11.226 4 10 5.25 10 6.8v1C10 6.25 11.226 5 12.75 5H36V4z" opacity=".2"/><path d="m20 27 6 28 6-28h-3l-3 16-3-16Zm14 0v28h5.5s2.55 0 2.55-2.8v-9.8c0-1.4-1.175-1.4-1.175-1.4s1.175 0 1.175-1.4v-9.8c0-2.8-2.55-2.8-2.55-2.8Zm3 3h2v9h-2zm0 13h2v9h-2z" opacity=".2"/><path fill="#fff" d="m20 26 6 28 6-28h-3l-3 16-3-16Zm14 0v28h5.5s2.55 0 2.55-2.8v-9.8c0-1.4-1.175-1.4-1.175-1.4s1.175 0 1.175-1.4v-9.8c0-2.8-2.55-2.8-2.55-2.8Zm3 3h2v9h-2zm0 13h2v9h-2z"/></svg>