<svg xmlns="http://www.w3.org/2000/svg" viewBox="0 0 64 64"><circle cx="32" cy="33" r="28" opacity=".2"/><circle cx="32" cy="32" r="28" fill="#e4e4e4"/><circle cx="32" cy="33" r="22" opacity=".1"/><circle cx="32" cy="32" r="22" fill="#c83737"/><path fill-rule="evenodd" d="M25.034 20A2.963 3.004 0 0 0 22 23.002v9.996l.002 9.996a2.963 3.004 0 0 0 4.443 2.605l8.536-5.001 8.536-4.997a2.963 3.004 0 0 0 .002-5.204L34.981 25.4l-8.536-5a2.963 3.004 0 0 0-.825-.326 2.963 3.004 0 0 0-.586-.074" opacity=".2"/><path fill="#fff" fill-rule="evenodd" d="M25.034 19A2.963 3.004 0 0 0 22 22.002v9.996l.002 9.996a2.963 3.004 0 0 0 4.443 2.605l8.536-5.001 8.536-4.997a2.963 3.004 0 0 0 .002-5.204L34.981 24.4l-8.536-5a2.963 3.004 0 0 0-.825-.326 2.963 3.004 0 0 0-.586-.074"/><path fill="#fff" d="M32 4A28 28 0 0 0 4 32a28 28 0 0 0 .021.586A28 28 0 0 1 32 5a28 28 0 0 1 27.979 27.414L60 32A28 28 0 0 0 32 4" opacity=".2"/></svg>