<svg xmlns="http://www.w3.org/2000/svg" viewBox="0 0 64 64"><path d="M12.75 5C11.226 5 10 6.249 10 7.8v50.4c0 1.55 1.227 2.8 2.75 2.8h38.5c1.522 0 2.75-1.25 2.75-2.8V23l-14-4-4-14Z" opacity=".2"/><path fill="#e4e4e4" d="M12.75 4C11.226 4 10 5.249 10 6.8v50.4c0 1.55 1.227 2.8 2.75 2.8h38.5c1.522 0 2.75-1.25 2.75-2.8V22l-14-4-4-14Z"/><path d="M36.988 29A1 1 0 0 0 36 30.002c0 .55.444.998.988.998A.995.995 0 0 0 38 30.002.997.997 0 0 0 36.988 29m4 0A1 1 0 0 0 40 30.002c0 .55.444.998.988.998A.995.995 0 0 0 42 30.002.997.997 0 0 0 40.988 29M18 30s2.574 9.398 2.924 10.475c.27.842.917 1.525 1.869 1.525 1.095 0 1.606-.793 1.844-1.525.233-.73 1.9-6.875 1.9-6.875s1.666 6.146 1.897 6.875c.239.732.747 1.525 1.84 1.525.956 0 1.601-.685 1.876-1.525C32.5 39.398 35.066 30 35.066 30h-2.673l-2.225 8.813s-1.701-6.545-1.977-7.473c-.276-.93-.849-1.34-1.654-1.34-.807 0-1.38.41-1.658 1.338s-1.975 7.474-1.975 7.474L20.68 30Zm18 2v10h2V32Zm4 0v10h2V32ZM15.229 43.998l-1.166 6.604c-.045.252-.252 1.55.453 2.488.308.41.911.902 2.03.908.939.007 1.7-.342 2.294-.85.414.508 1.052.857 1.994.85a3.47 3.47 0 0 0 2.352-.908c1.034-.938 1.29-2.236 1.33-2.488l1.164-6.604-2.104.012-1.164 6.61-.004.025c-.027.16-.169.675-.472.945-.064.055-.254.225-.715.228-.922.006-.914-.893-.867-1.297l.199-1.138.41-2.326.006-.03v-.006l.533-3.01H19.4l-.539 3.046-.459 2.613-.119.678-.031.173c-.094.404-.405 1.303-1.322 1.297-.463-.003-.595-.173-.639-.228-.205-.27-.167-.785-.137-.946l.006-.025 1.162-6.61zM30.652 46c-2.22 0-4.147 1.727-4.566 4.016C25.6 52.635 27.242 54 28.703 54c.613 0 1.1-.101 1.567-.39l.386-2.094c-.275.1-.652.191-1.068.191-.862 0-1.413-.57-1.197-1.756.166-.902.878-1.82 1.953-1.82 1.236 0 1.426.815 1.177 2.164L30.875 54h2.29l.759-4.299C34.368 47.286 32.813 46 30.652 46m5.721 0-1.46 8h2.321l.776-3.951c.171-.435.626-1.01 1.847-1.084h1.647L41.879 47H40.23c-.634 0-1.21.078-1.738.41l.203-1.41Zm10.404 0c-2.37 0-4.274 1.566-4.707 3.998S43.253 54 45.623 54c1.233 0 2.576-.55 3.506-1.508l-1.445-1.207c-.49.534-1.08.926-1.854.926-.915 0-1.755-.573-1.455-2.275.303-1.7 1.107-2.245 2.148-2.245.855 0 1.352.527 1.196 1.309H45.23l-.283 2h4.754l.233-1.002C50.363 47.566 48.67 46 46.777 46" opacity=".1"/><path d="M54 23 36 5v15.188A2.806 2.806 0 0 0 38.813 23Z" opacity=".2"/><path fill="#fafafa" d="M54 22 36 4v15.188A2.806 2.806 0 0 0 38.813 22Z"/><path fill="#fff" d="M12.75 4C11.226 4 10 5.25 10 6.8v1C10 6.25 11.226 5 12.75 5H36V4z" opacity=".2"/><path fill="#908f94" d="M36 29.002c0 .55.444.998.988.998A.995.995 0 0 0 38 29.002.997.997 0 0 0 36.988 28 .997.997 0 0 0 36 29.002M36 31h2v10h-2zm-3.608-2-2.225 8.813s-1.7-6.545-1.975-7.473c-.277-.93-.85-1.34-1.656-1.34s-1.378.41-1.656 1.338-1.976 7.474-1.976 7.474L20.68 29H18s2.573 9.398 2.923 10.474c.271.843.918 1.526 1.87 1.526 1.095 0 1.605-.794 1.843-1.526.233-.729 1.9-6.874 1.9-6.874s1.667 6.145 1.898 6.874c.24.732.748 1.526 1.84 1.526.956 0 1.6-.686 1.876-1.526C32.5 38.398 35.067 29 35.067 29Z"/><path fill="#22b2e9" d="M20.335 49.615c-.286 1.368-1.536 3.4-3.789 3.382-1.12-.006-1.721-.497-2.03-.908-.705-.938-.498-2.235-.454-2.487l1.167-6.604 2.094.013-1.162 6.608-.006.025c-.03.16-.069.676.137.946.044.055.174.225.637.229.917.006 1.23-.894 1.324-1.298l.61-3.463.537-3.046h2.102zl.004-.022.63-3.567.002-.03"/><path fill="#22b2e9" d="M18.236 49.615c-.191 1.368.337 3.4 2.599 3.382a3.47 3.47 0 0 0 2.35-.908c1.035-.938 1.29-2.235 1.33-2.487l1.164-6.604-2.103.013-1.164 6.608-.003.025c-.028.16-.17.676-.473.946-.064.055-.255.225-.716.229-.921.006-.913-.894-.866-1.298l.609-3.464.539-3.045H19.4zl.004-.022.627-3.567.006-.03M30.27 52.61c-.467.29-.953.39-1.566.39-1.462 0-3.102-1.365-2.617-3.984.419-2.288 2.345-4.016 4.565-4.016 2.16 0 3.716 1.285 3.272 3.7l-.76 4.3h-2.289l.646-3.705c.249-1.35.058-2.163-1.178-2.163-1.075 0-1.786.917-1.952 1.82-.216 1.185.334 1.756 1.196 1.756.416 0 .794-.092 1.069-.192zM40.23 46c-.634 0-1.21.078-1.738.41l.204-1.41h-2.323l-1.461 8h2.323l.774-3.95c.172-.436.628-1.01 1.849-1.085h1.645L41.879 46H40.24m4.135 2.935c-.3 1.703.54 2.276 1.456 2.276.774 0 1.364-.392 1.853-.925l1.445 1.207c-.93.957-2.273 1.507-3.506 1.507-2.37 0-3.986-1.57-3.553-4.001S44.41 45 46.778 45c1.893 0 3.584 1.567 3.155 3.999L49.702 50h-4.754l.282-2h2.49c.156-.782-.342-1.308-1.197-1.308-1.042 0-1.845.544-2.148 2.243"/><path fill="#908f94" d="M40 29.002c0 .55.444.998.988.998A.995.995 0 0 0 42 29.002.997.997 0 0 0 40.988 28 .997.997 0 0 0 40 29.002M40 31h2v10h-2z"/></svg>