<svg xmlns="http://www.w3.org/2000/svg" viewBox="0 0 64 64"><path d="M12.75 5C11.227 5 10 6.249 10 7.8v50.4c0 1.55 1.227 2.8 2.75 2.8h38.5c1.522 0 2.75-1.25 2.75-2.8V23l-14-4-4-14z" opacity=".2"/><path fill="#50beee" d="M12.75 4C11.227 4 10 5.249 10 6.8v50.4c0 1.55 1.227 2.8 2.75 2.8h38.5c1.522 0 2.75-1.25 2.75-2.8V22l-14-4-4-14z"/><path d="M54 23 36 5v15.188A2.806 2.806 0 0 0 38.813 23z" opacity=".2"/><path fill="#9bd9f5" d="M54 22 36 4v15.188A2.806 2.806 0 0 0 38.813 22z"/><path fill="#fff" d="M12.75 4C11.227 4 10 5.25 10 6.8v1C10 6.25 11.227 5 12.75 5H36V4z" opacity=".2"/><path d="M31 26v3h-8v2h18v-2h-8v-3zm1 7a7 7 0 1 0 0 14 7 7 0 0 0 0-14m0 2a5 5 0 1 1 0 10 5 5 0 0 1 0-10m-9 15v5h18v-2H25v-3zm8-1v2h2v-2z" opacity=".2"/><path fill="#fff" d="M31 25v3h-8v2h18v-2h-8v-3zm1 7a7 7 0 1 0 0 14 7 7 0 0 0 0-14m0 2a5 5 0 1 1 0 10 5 5 0 0 1 0-10m-9 15v5h18v-2H25v-3zm8-1v2h2v-2z"/></svg>