<svg xmlns="http://www.w3.org/2000/svg" viewBox="0 0 64 64"><path d="M12.75 5C11.227 5 10 6.249 10 7.8v50.4c0 1.55 1.227 2.8 2.75 2.8h38.5c1.522 0 2.75-1.25 2.75-2.8V23l-14-4-4-14z" opacity=".2"/><path fill="#e4e4e4" d="M12.75 4C11.227 4 10 5.249 10 6.8v50.4c0 1.55 1.227 2.8 2.75 2.8h38.5c1.522 0 2.75-1.25 2.75-2.8V22l-14-4-4-14z"/><path d="M54 23 36 5v15.188A2.806 2.806 0 0 0 38.813 23z" opacity=".2"/><path fill="#fafafa" d="M54 22 36 4v15.188A2.806 2.806 0 0 0 38.813 22z"/><path fill="#fff" d="M12.75 4C11.227 4 10 5.25 10 6.8v1C10 6.25 11.227 5 12.75 5H36V4z" opacity=".2"/><path d="M30.5 27c-5.2 0-9.5 4.3-9.5 9.5s4.3 9.5 9.5 9.5h3c.3 0 .5.2.5.5s-.2.5-.5.5H21v4h12.5c2.5 0 4.5-2 4.5-4.5S36 42 33.5 42h-3c-3 0-5.5-2.5-5.5-5.5s2.5-5.5 5.5-5.5H43v-4Zm0 5C28 32 26 34 26 36.5s2 4.5 4.5 4.5h3c3 0 5.5 2.5 5.5 5.5S36.5 52 33.5 52H21v4h12.5c5.2 0 9.5-4.3 9.5-9.5S38.7 37 33.5 37h-3c-.3 0-.5-.2-.5-.5s.2-.5.5-.5H43v-4Z" opacity=".2"/><path fill="#248afd" d="M30.5 26c-5.2 0-9.5 4.3-9.5 9.5s4.3 9.5 9.5 9.5h3c.3 0 .5.2.5.5s-.2.5-.5.5H21v4h12.5c2.5 0 4.5-2 4.5-4.5S36 41 33.5 41h-3c-3 0-5.5-2.5-5.5-5.5s2.5-5.5 5.5-5.5H43v-4Zm0 5C28 31 26 33 26 35.5s2 4.5 4.5 4.5h3c3 0 5.5 2.5 5.5 5.5S36.5 51 33.5 51H21v4h12.5c5.2 0 9.5-4.3 9.5-9.5S38.7 36 33.5 36h-3c-.3 0-.5-.2-.5-.5s.2-.5.5-.5H43v-4Z"/></svg>