<svg xmlns="http://www.w3.org/2000/svg" viewBox="0 0 64 64"><path d="M12.75 5C11.226 5 10 6.249 10 7.8v50.4c0 1.55 1.227 2.8 2.75 2.8h38.5c1.522 0 2.75-1.25 2.75-2.8V23l-14-4-4-14Z" opacity=".2"/><path fill="#e4e4e4" d="M12.75 4C11.226 4 10 5.249 10 6.8v50.4c0 1.55 1.227 2.8 2.75 2.8h38.5c1.522 0 2.75-1.25 2.75-2.8V22l-14-4-4-14Z"/><path d="M54 23 36 5v15.188A2.806 2.806 0 0 0 38.813 23Z" opacity=".2"/><path fill="#fafafa" d="M54 22 36 4v15.188A2.806 2.806 0 0 0 38.813 22Z"/><path fill="#fff" d="M12.75 4C11.226 4 10 5.25 10 6.8v1C10 6.25 11.226 5 12.75 5H36V4z" opacity=".2"/><path d="M24.457 31.109c-.943.579-2.839 1.391-4.401 1.844l.049.137a35 35 0 0 0 2.282-.305v1.899h-2.319l.063.209h1.896c-.372 1.528-1.054 3.153-2.033 4.334l.148.138a9 9 0 0 0 2.243-2.31V41h.236c.632 0 1.042-.243 1.053-.318V36.23c.471.425.916 1.099 1.004 1.627.16.136.335.202.496.202.334 0 .619-.243.619-.58 0-.457-.521-1.056-2.119-1.415v-1.169h1.736c.335 0 .496-.054.582-.19l-1.201-.812-.647.789h-.47v-2.151a24 24 0 0 0 1.5-.379q.239.065.422.065c.15 0 .272-.033.347-.096zm5.711 1.465-.545.623h-2.154l-1.379-.508v8.098c1.165 0 1.314-.421 1.314-.443v-.77h2.342v1.012c.981 0 1.326-.284 1.326-.305v-6.58c.26-.052.459-.136.533-.232zm-2.764.834h2.342v5.957h-2.342zm13.912 9.516q-2.055 0-2.984.959c-.514.528-.802 1.335-.889 2.394H35.09V44.27q0-.394.121-.565.118-.17.387-.187l.365-.022q.203-.018.203-.201 0-.136-.031-.168-.034-.032-.17-.033-.033-.001-.19.01a27 27 0 0 1-2.578-.01q-.132.002-.168.033-.035.031-.035.168 0 .184.215.201l.342.022q.282.016.4.183.119.169.119.569v5.382q0 .395-.117.567c-.077.113-.206.172-.389.185l-.355.022a.1.1 0 0 1-.033.006q-.182.01-.182.183 0 .144.039.176.038.035.164.035l.17-.006a26 26 0 0 1 2.408-.004q.149.01.188.01.132 0 .168-.035.035-.033.035-.176 0-.173-.17-.183-.02-.005-.031-.006l-.354-.022q-.282-.017-.4-.183-.12-.167-.121-.569V47.43h2.338c.059 1.169.327 2.052.832 2.615q.858.955 2.765.955 2.075 0 3.028-.963.952-.965.953-3.074 0-2.136-.871-3.088c-.58-.637-1.52-.951-2.819-.951m-.121.383q1.422 0 2.053.853.627.854.627 2.801 0 1.931-.631 2.785t-2.049.854q-1.42 0-2.053-.854-.628-.854-.628-2.803 0-1.91.638-2.773.64-.863 2.043-.863" opacity=".5"/></svg>