<svg xmlns="http://www.w3.org/2000/svg" viewBox="0 0 64 64"><path d="M12.75 5C11.226 5 10 6.249 10 7.8v50.4c0 1.55 1.227 2.8 2.75 2.8h38.5c1.522 0 2.75-1.25 2.75-2.8V23l-14-4-4-14Z" opacity=".2"/><path fill="#1c59a5" d="M12.75 4C11.226 4 10 5.249 10 6.8v50.4c0 1.55 1.227 2.8 2.75 2.8h38.5c1.522 0 2.75-1.25 2.75-2.8V22l-14-4-4-14Z"/><path d="M54 23 36 5v15.188A2.806 2.806 0 0 0 38.813 23Z" opacity=".2"/><path fill="#6295d3" d="M54 22 36 4v15.188A2.806 2.806 0 0 0 38.813 22Z"/><path fill="#fff" d="M12.75 4C11.226 4 10 5.25 10 6.8v1C10 6.25 11.226 5 12.75 5H36V4z" opacity=".1"/><path fill="none" stroke="#000" stroke-linecap="round" stroke-width="3" d="M37.52 30.494c9.626 2.75-1.644 6.875 7.98 11m-7.98 11c9.626-2.75-1.644-6.875 7.98-11m-19-11c-9.625 2.75 1.645 6.875-7.98 11m7.98 11c-9.625-2.75 1.645-6.875-7.98-11" opacity=".2"/><path fill="none" stroke="#fff" stroke-linecap="round" stroke-width="3" d="M37.52 29.494c9.626 2.75-1.644 6.875 7.98 11m-7.98 11c9.626-2.75-1.644-6.875 7.98-11m-19-11c-9.625 2.75 1.645 6.875-7.98 11m7.98 11c-9.625-2.75 1.645-6.875-7.98-11"/></svg>