<svg xmlns="http://www.w3.org/2000/svg" viewBox="0 0 64 64"><path d="M12.75 5C11.226 5 10 6.249 10 7.8v50.4c0 1.55 1.227 2.8 2.75 2.8h38.5c1.522 0 2.75-1.25 2.75-2.8V23l-14-4-4-14Z" opacity=".2"/><path fill="#0a99d6" d="M12.75 4C11.226 4 10 5.249 10 6.8v50.4c0 1.55 1.227 2.8 2.75 2.8h38.5c1.522 0 2.75-1.25 2.75-2.8V22l-14-4-4-14Z"/><path d="M54 23 36 5v15.188A2.806 2.806 0 0 0 38.813 23Z" opacity=".2"/><path fill="#6ac1e6" d="M54 22 36 4v15.188A2.806 2.806 0 0 0 38.813 22Z"/><path fill="#fff" d="M12.75 4C11.226 4 10 5.25 10 6.8v1C10 6.25 11.226 5 12.75 5H36V4z" opacity=".2"/><path d="M32 28c-7.732 0-14 6.268-14 14h8v-5.6l8.6 8.4-8.6 8.4V48h-6.62A13.99 13.99 0 0 0 32 56c7.732 0 14-6.268 14-14s-6.268-14-14-14" opacity=".2"/><path fill="#fff" d="M32 27c-7.732 0-14 6.268-14 14h8v-5.6l8.6 8.4-8.6 8.4V47h-6.62A13.99 13.99 0 0 0 32 55c7.732 0 14-6.268 14-14s-6.268-14-14-14"/></svg>