<svg xmlns="http://www.w3.org/2000/svg" xmlns:xlink="http://www.w3.org/1999/xlink" viewBox="0 0 48 48"><defs><filter id="a" width="200%" height="200%" x="-50%" y="-50%" filterUnits="objectBoundingBox"><feOffset dy="1" in="SourceAlpha" result="shadowOffsetOuter1"/><feGaussianBlur in="shadowOffsetOuter1" result="shadowBlurOuter1" stdDeviation=".5"/><feColorMatrix in="shadowBlurOuter1" result="shadowMatrixOuter1" values="0 0 0 0 0 0 0 0 0 0 0 0 0 0 0 0 0 0 0.21 0"/><feMerge><feMergeNode in="shadowMatrixOuter1"/><feMergeNode in="SourceGraphic"/></feMerge></filter></defs><g fill="none" fill-rule="evenodd" transform="translate(5 5)"><path fill="#1a8efc" d="M1 38a1 1 0 0 1-1-1V1a1 1 0 0 1 1-1h36a1 1 0 0 1 1 1v36a1 1 0 0 1-1 1z" filter="url(#a)"/><path fill="#ffd000" d="M18.348 27.476c-1.297-1.436-3.398-1.438-4.696 0l-1.332 1.476c-1.297 1.436-2.268 1.035-2.169-.899l.101-1.985c.1-1.933-1.386-3.42-3.32-3.32l-1.985.1c-1.933.1-2.336-.87-.899-2.168l1.476-1.332c1.436-1.297 1.438-3.398 0-4.696L4.048 13.32c-1.436-1.297-1.035-2.268.899-2.169l1.985.101c1.933.1 3.42-1.386 3.32-3.32l-.1-1.985c-.1-1.933.87-2.336 2.168-.899l1.332 1.476c1.297 1.436 3.398 1.438 4.696 0l1.332-1.476c1.297-1.436 2.268-1.035 2.169.899l-.101 1.985c-.1 1.933 1.386 3.42 3.32 3.32l1.985-.1c1.933-.1 2.336.87.899 2.168l-1.476 1.332c-1.436 1.297-1.438 3.398 0 4.696l1.476 1.332c1.436 1.297 1.035 2.268-.899 2.169l-1.985-.101c-1.933-.1-3.42 1.386-3.32 3.32l.1 1.985c.1 1.933-.87 2.336-2.168.899zM16 25a8 8 0 1 0 0-16 8 8 0 0 0 0 16"/><circle cx="16" cy="17" r="6" fill="#ffd000"/><path fill="#fff" d="M12 32.978a5.5 5.5 0 1 1 2.288-10.68 8.5 8.5 0 0 1 16.699 1.729A4.5 4.5 0 0 1 31 32.972V33H12z"/></g></svg>