<svg xmlns="http://www.w3.org/2000/svg" viewBox="0 0 48 48"><g transform="translate(0 -1004.362)"><g transform="translate(-38.095 -6.317)"><rect width="39" height="38" x="42.598" y="1017.223" opacity=".05" ry="1"/><rect width="38" height="38" x="43.077" y="1016.718" opacity=".1" ry="1"/><rect width="38" height="38" x="43.077" y="1016.22" opacity=".15" ry="1"/></g><rect width="38" height="38" x="5.008" y="1009.379" fill="#436a88" ry="1"/><path fill="#fff" d="M23.934 1012.808c-3.662 0-6.632 3.492-6.632 7.8a9 9 0 0 0 .37 2.547c2.831.213 5.433 1.478 6.33 3.55.833-2.068 3.414-3.273 6.191-3.54a9 9 0 0 0 .374-2.558c0-4.307-2.97-7.8-6.633-7.799m-5.43 13.389a5.904 5.904 0 1 0 0 11.806c.14 0 .28-.01.42-.02l-.01.198c0 3.261 2.247 5.905 5.02 5.905s5.021-2.644 5.021-5.905l-.006-.208q.273.03.549.03a5.904 5.904 0 1 0 0-11.806 5.9 5.9 0 0 0-5.495 3.757 5.9 5.9 0 0 0-5.499-3.757"/></g></svg>