<svg xmlns="http://www.w3.org/2000/svg" viewBox="0 0 48 48"><path fill-rule="evenodd" d="m1.045 7.039-.004.71c5.73 11 11.075 21.841 16.803 32.837 2.742-1.608 5.7-3.345 8.43-4.956 1.637 1.604 3.72 3.621 5.333 5.248 1.621-3.159 3.793-7.35 5.39-10.58 3.387-1.802 7.385-3.771 10.038-5.115l-.004-.425C31.147 18.585 14.941 12.419 1.047 7.035h-.002z" opacity=".05"/><path fill-rule="evenodd" d="m1.045 6.526-.004.709c5.73 11 11.207 21.827 16.935 32.822 2.742-1.608 5.642-3.3 8.372-4.911a537 537 0 0 1 5.167 5.161c1.564-3.205 3.576-7.063 5.172-10.293 3.41-1.811 7.636-3.868 10.348-5.243l-.004-.398c-.003 0-.002 0-.006-.01-14.89-5.776-31.072-12.067-45.978-17.842h-.002z" opacity=".1"/><path fill-rule="evenodd" d="m1.045 6.03-.004.708c5.73 11 11.28 21.769 17.008 32.764 2.742-1.608 5.671-3.227 8.401-4.838 1.637 1.604 3.349 3.451 4.962 5.078 1.564-3.205 3.312-6.81 4.908-10.04 3.397-1.813 7.414-3.712 10.701-5.364 0-.078-.002-.119.01-.02v-.441c-.003-.001-.002-.005-.006-.006C32.135 18.095 15.953 11.805 1.047 6.03z" opacity=".15"/><g transform="rotate(14.046 2340.427 480.232)scale(.58256)"><path fill="#73c021" fill-rule="evenodd" d="m-75.716 1009.278 84.04 10.567-15.999 13.727-3.851 18.17-10.067-6.124-11.758 11.457z"/><path fill="#4e890f" fill-rule="evenodd" d="m-73.544 1010.266 65.869 23.324-3.856 18.145-5.526-11.053z"/><path fill="#8e9ca5" fill-rule="evenodd" d="m-21.626 1045.6 4.58-4.885 5.516 11.028z"/><g fill="#fff"><path fill-rule="evenodd" d="m-44.464 1044.568 19.323-5.122s-3.02-7.976-12.966-5.969c-7.478 1.51-8.37 8.816-8.37 8.816zm1.09 1.194 18.542-5.013 1.818 6.277-10.343 10.055zm21.465.165 4.04-4.32s-1.03-2.744-3.602-1.475c-2.16 1.029-.438 5.795-.438 5.795"/><rect width=".823" height="6.003" x="-806.753" y="647.586" ry=".412" transform="rotate(-48.715)"/><path d="m-33.025 1032.097-1.317 3.146a.411.411 0 1 0 .76.319l1.285-3.069z"/></g><circle cx="-40.386" cy="1038.179" r="1" fill="#73c021"/><circle cx="-33.25" cy="1037.131" r="1" fill="#73c021"/></g></svg>