<svg xmlns="http://www.w3.org/2000/svg" viewBox="0 0 48 48"><g transform="translate(.004 -1004.35)"><g transform="translate(-38.113 -6.355)"><rect width="39" height="38" x="42.598" y="1017.223" opacity=".05" ry="1"/><rect width="38" height="38" x="43.077" y="1016.718" opacity=".1" ry="1"/><rect width="38" height="38" x="43.077" y="1016.22" opacity=".15" ry="1"/></g><rect width="38" height="38" x="4.99" y="1009.341" fill="#bc140b" ry="1"/></g><path fill="#fff" fill-rule="evenodd" d="M22.87 1019.787a12 12 0 0 0-1.475.012c-4.003.268-9.632 2.231-12.915 7.587-.44.489-.5 1.21-.148 1.766 2.668 4.191 6.555 6.92 10.838 7.701 4.195.765 9.432-.482 13.665-4.598l-1.76-2.346c-2.766 3.097-8.01 4.679-11.379 4.064-3.085-.562-5.958-2.461-8.179-5.47 2.975-4.18 7.229-5.59 10.073-5.781 3.058-.205 5.735 1.09 8.06 3.057 4.653 3.935 6.82 9.575 6.82 9.575.76 1.799 3.458.658 2.698-1.14 0 0-2.23-6.107-7.626-10.67-2.36-1.997-5.293-3.574-8.672-3.756zm15.518.032a1.47 1.47 0 0 0-1.307.953c-.31.801-1.446 2.79-2.053 3.966l1.968 2.515c.766-1.457 2.095-3.611 2.817-5.425a1.464 1.464 0 0 0-1.425-2.01" color="#000" font-family="sans-serif" font-weight="400" overflow="visible" style="line-height:normal;text-indent:0;text-align:start;text-decoration-line:none;text-decoration-style:solid;text-decoration-color:#000;text-transform:none;block-progression:tb;white-space:normal;isolation:auto;mix-blend-mode:normal;solid-color:#000;solid-opacity:1" transform="translate(0 -1004.362)"/><text xml:space="preserve" x="16.167" y="1030.201" fill="#fff" font-family="sans-serif" font-size="4.427" font-weight="400" letter-spacing="0" style="line-height:125%" transform="translate(0 -1004.362)" word-spacing="0"><tspan x="16.167" y="1030.201">BIBLE</tspan></text><path fill="#5e0912" fill-rule="evenodd" d="M30.007 42.973c.816 0 9.088.02 11.992.027 0 0 1.006-.01 1.001-.996l-.008-12.002z"/><text xml:space="preserve" x="-713.45" y="766.951" fill="#fff" font-family="sans-serif" font-size="4.886" font-weight="400" letter-spacing="0" style="line-height:125%" transform="rotate(-45 -1212.372 -502.181)" word-spacing="0"><tspan x="-713.45" y="766.951">HD</tspan></text></svg>