<svg xmlns="http://www.w3.org/2000/svg" xmlns:xlink="http://www.w3.org/1999/xlink" viewBox="0 0 48 48"><defs><path id="b" fill="#a05a2c" stroke="none" d="m24.828 36.586-3.613 2.184a1.85 6.186 0 0 0 .139 1.113l3.459-2.088a1.85 6.186 0 0 0 .019-.842 1.85 6.186 0 0 0-.004-.367m-.084 2.24-3.217 1.945a1.85 6.186 0 0 0 .303 1.016l2.736-1.652a1.85 6.186 0 0 0 .178-1.309m-.457 2.508-2.068 1.25a1.85 6.186 0 0 0 .763.557 1.85 6.186 0 0 0 1.305-1.807"/><path id="c" fill="#a4a5aa" stroke="none" d="m23.03.005-5.044 8.066 2.422 29.534 2.637-.005c-.08-11.871-.025-25.575-.015-37.595"/><path id="e" fill="#f3d056" stroke="none" d="M23 34v3h3v-3z"/><path id="g" fill="#bb891d" stroke="none" d="m16.145 32.998-1.149 1.012v1.986h.002v.502L17.283 38h5.703v-1.988l-2.824.008-1.125-1.014L19.031 34l-1.142-1.002z"/></defs><path d="m5.006 7.598.086.086 2.336 10.433 10.52 8.953-4.858 5.727-.09-.09-1.52 1.52-.076-1.487.81-.818-.112-1.738-1.414-1.41-1.75-.11h-.002l-.801.8-.807.81h-.002l-.404.406.635 3.068 3.14 3.14a2.12 7.09 45 0 0-.986 1.178 2.12 7.09 45 0 0-.043.057 2.12 7.09 45 0 0-.33.438 2.12 7.09 45 0 0-.008.012 2.12 7.09 45 0 0-1.154 1.922 2.12 7.09 45 0 0-.004.01 2.12 7.09 45 0 0-.201.502 2.29 2.29 0 0 0-2.276.574 2.29 2.29 0 0 0 0 3.242 2.29 2.29 0 0 0 3.24 0 2.29 2.29 0 0 0 .586-2.244 2.12 7.09 45 0 0 .176-.062 2.12 7.09 45 0 0 .12-.05 2.12 7.09 45 0 0 .306-.132 2.12 7.09 45 0 0 .178-.088 2.12 7.09 45 0 0 .228-.117h.002a2.12 7.09 45 0 0 1.711-1.117 2.12 7.09 45 0 0 .053-.041 2.12 7.09 45 0 0 .346-.27 2.12 7.09 45 0 0 .293-.234 2.12 7.09 45 0 0 .716-.623l3.166 3.166 3.065.638.99-.99 1.045-1.02-.113-1.747-1.426-1.424-1.715-.1-.834.803-1.465-.098 1.498-1.5-.054-.055 6.205-5.282 6.191 5.268-.055.055 1.5 1.5-1.464.098-.836-.803-1.715.098-1.426 1.426-.113 1.746 1.045 1.02.99.992 3.064-.639 3.166-3.166a7.09 2.12 45 0 0 .733.635 7.09 2.12 45 0 0 .232.187 7.09 2.12 45 0 0 .426.332 7.09 2.12 45 0 0 .047.033 7.09 2.12 45 0 0 .486.352 7.09 2.12 45 0 0 1.416.856 7.09 2.12 45 0 0 .207.103 7.09 2.12 45 0 0 .256.111 7.09 2.12 45 0 0 .156.065 7.09 2.12 45 0 0 .172.06 2.29 2.29 0 0 0 .584 2.245 2.29 2.29 0 0 0 3.242 0 2.29 2.29 0 0 0 0-3.243 2.29 2.29 0 0 0-2.275-.574 7.09 2.12 45 0 0-1.36-2.432 7.09 2.12 45 0 0-.015-.019 7.09 2.12 45 0 0-.355-.472 7.09 2.12 45 0 0-.004 0 7.09 2.12 45 0 0-.994-1.19l3.14-3.14.637-3.069-.408-.408-.807-.808-.8-.801-1.753.111-1.412 1.412-.115 1.738.81.819-.076 1.486-1.52-1.52-.091.093-4.844-5.71 10.508-8.94L42.92 7.709c.027-.027.058-.06.086-.086l-.07.016.002-.012-.114.037-10.443 2.406-8.371 9.865-8.381-9.879L5.188 7.648l-.114-.037.002.012-.07-.016z" opacity=".05"/><path d="m5.006 7.088.086.085 2.336 10.434 10.52 8.953-4.858 5.726-.09-.09-1.52 1.52-.076-1.486.81-.819-.112-1.738-1.414-1.41-1.75-.11h-.002l-.801.801-.807.809h-.002l-.404.406.635 3.069 3.14 3.14a2.12 7.09 45 0 0-.986 1.178 2.12 7.09 45 0 0-.043.057 2.12 7.09 45 0 0-.33.437 2.12 7.09 45 0 0-.008.012 2.12 7.09 45 0 0-1.154 1.922 2.12 7.09 45 0 0-.004.01 2.12 7.09 45 0 0-.201.502 2.29 2.29 0 0 0-2.276.574 2.29 2.29 0 0 0 0 3.243 2.29 2.29 0 0 0 3.24 0 2.29 2.29 0 0 0 .586-2.245 2.12 7.09 45 0 0 .176-.062 2.12 7.09 45 0 0 .12-.049 2.12 7.09 45 0 0 .306-.132 2.12 7.09 45 0 0 .178-.088 2.12 7.09 45 0 0 .228-.118h.002a2.12 7.09 45 0 0 1.711-1.117 2.12 7.09 45 0 0 .053-.04 2.12 7.09 45 0 0 .346-.27 2.12 7.09 45 0 0 .293-.235 2.12 7.09 45 0 0 .716-.623l3.166 3.166 3.065.639.99-.99 1.045-1.02-.113-1.748-1.426-1.424-1.715-.1-.834.803-1.465-.098 1.498-1.5-.054-.055 6.205-5.281 6.191 5.267-.055.055 1.5 1.5-1.464.098-.836-.802-1.715.098-1.426 1.426-.113 1.746 1.045 1.02.99.991 3.064-.638 3.166-3.166a7.09 2.12 45 0 0 .733.634 7.09 2.12 45 0 0 .232.188 7.09 2.12 45 0 0 .426.332 7.09 2.12 45 0 0 .047.033 7.09 2.12 45 0 0 .486.352 7.09 2.12 45 0 0 1.416.855 7.09 2.12 45 0 0 .207.104 7.09 2.12 45 0 0 .256.11 7.09 2.12 45 0 0 .156.066 7.09 2.12 45 0 0 .172.06 2.29 2.29 0 0 0 .584 2.244 2.29 2.29 0 0 0 3.242 0 2.29 2.29 0 0 0 0-3.242 2.29 2.29 0 0 0-2.275-.574 7.09 2.12 45 0 0-1.36-2.432 7.09 2.12 45 0 0-.015-.02 7.09 2.12 45 0 0-.355-.472 7.09 2.12 45 0 0-.004 0 7.09 2.12 45 0 0-.994-1.19l3.14-3.14.637-3.068-.408-.408-.807-.809-.8-.8-1.753.11-1.412 1.413-.115 1.738.81.818-.076 1.487-1.52-1.52-.091.092-4.844-5.709 10.508-8.941L42.92 7.198l.086-.086-.07.016.002-.012-.114.037-10.443 2.406-8.371 9.866-8.381-9.88L5.188 7.137 5.074 7.1l.002.012-.07-.016z" opacity=".1"/><path d="m5.006 6.577.086.086 2.336 10.433 10.52 8.953-4.858 5.727-.09-.09-1.52 1.52-.076-1.487.81-.818-.112-1.738-1.414-1.41-1.75-.11h-.002l-.801.8-.807.81h-.002l-.404.406.635 3.068 3.14 3.14a2.12 7.09 45 0 0-.986 1.178 2.12 7.09 45 0 0-.043.057 2.12 7.09 45 0 0-.33.438 2.12 7.09 45 0 0-.008.012 2.12 7.09 45 0 0-1.154 1.922 2.12 7.09 45 0 0-.004.01 2.12 7.09 45 0 0-.201.502 2.29 2.29 0 0 0-2.276.574 2.29 2.29 0 0 0 0 3.242 2.29 2.29 0 0 0 3.24 0 2.29 2.29 0 0 0 .586-2.244 2.12 7.09 45 0 0 .176-.062 2.12 7.09 45 0 0 .12-.05 2.12 7.09 45 0 0 .306-.132 2.12 7.09 45 0 0 .178-.088 2.12 7.09 45 0 0 .228-.117h.002a2.12 7.09 45 0 0 1.711-1.117 2.12 7.09 45 0 0 .053-.041 2.12 7.09 45 0 0 .346-.27 2.12 7.09 45 0 0 .293-.234 2.12 7.09 45 0 0 .716-.623l3.166 3.166 3.065.638.99-.99 1.045-1.02-.113-1.747-1.426-1.424-1.715-.1-.834.803-1.465-.098 1.498-1.5-.054-.055 6.205-5.282 6.191 5.268-.055.055 1.5 1.5-1.464.098-.836-.803-1.715.098-1.426 1.426-.113 1.746 1.045 1.02.99.992 3.064-.639 3.166-3.166a7.09 2.12 45 0 0 .733.635 7.09 2.12 45 0 0 .232.187 7.09 2.12 45 0 0 .426.332 7.09 2.12 45 0 0 .047.033 7.09 2.12 45 0 0 .486.352 7.09 2.12 45 0 0 1.416.856 7.09 2.12 45 0 0 .207.103 7.09 2.12 45 0 0 .256.111 7.09 2.12 45 0 0 .156.065 7.09 2.12 45 0 0 .172.06 2.29 2.29 0 0 0 .584 2.245 2.29 2.29 0 0 0 3.242 0 2.29 2.29 0 0 0 0-3.243 2.29 2.29 0 0 0-2.275-.574 7.09 2.12 45 0 0-1.36-2.432 7.09 2.12 45 0 0-.015-.019 7.09 2.12 45 0 0-.355-.472 7.09 2.12 45 0 0-.004 0 7.09 2.12 45 0 0-.994-1.19l3.14-3.14.637-3.069-.408-.408-.807-.808-.8-.801-1.753.111-1.412 1.412-.115 1.738.81.819-.076 1.486-1.52-1.52-.091.093-4.844-5.71 10.508-8.94L42.92 6.688c.027-.027.058-.06.086-.086l-.07.016.002-.012-.114.037-10.443 2.406-8.371 9.865-8.381-9.879L5.188 6.627l-.114-.037.002.012-.07-.016z" opacity=".15"/><g transform="rotate(-45 -1366.445 604.322)scale(1.1461)"><ellipse cx="22.982" cy="1041.316" fill="#dba05d" rx="1.85" ry="6.186"/><use xlink:href="#a" stroke-linecap="round" stroke-linejoin="round" stroke-width=".5"/><use xlink:href="#b" fill-rule="evenodd" transform="translate(0 1004.362)"/><circle cx="22.965" cy="1048.342" r="2" fill="#bb891d"/><use xlink:href="#c" stroke-linecap="round" stroke-linejoin="round" stroke-width=".5" transform="translate(0 1004.362)"/><use xlink:href="#d" stroke-linecap="round" stroke-linejoin="round" stroke-width=".5"/><use xlink:href="#e" stroke-linecap="round" stroke-linejoin="round" stroke-width=".5" transform="translate(0 1004.362)"/><path fill="#efefef" d="m26.878 1012.837-1.603 25.025-1.548-.04.232-29.73s2.142 3.468 2.919 4.745" opacity=".733"/><use xlink:href="#f" stroke-linecap="round" stroke-linejoin="round" stroke-width=".5"/><use xlink:href="#g" stroke-linecap="round" stroke-linejoin="round" stroke-width=".5" transform="translate(0 1004.362)"/><circle cx="23.384" cy="1048.186" r="1.237" fill="#d4aa00"/></g><g transform="rotate(45 1390.483 662.178)scale(-1.1461 1.1461)"><ellipse cx="22.982" cy="1041.316" fill="#dba05d" rx="1.85" ry="6.186"/><use xlink:href="#a" stroke-linecap="round" stroke-linejoin="round" stroke-width=".5"/><use xlink:href="#b" fill-rule="evenodd" transform="translate(0 1004.362)"/><circle cx="22.965" cy="1048.342" r="2" fill="#bb891d"/><use xlink:href="#c" stroke-linecap="round" stroke-linejoin="round" stroke-width=".5" transform="translate(0 1004.362)"/><use xlink:href="#d" stroke-linecap="round" stroke-linejoin="round" stroke-width=".5"/><use xlink:href="#e" stroke-linecap="round" stroke-linejoin="round" stroke-width=".5" transform="translate(0 1004.362)"/><path fill="#eee" d="m26.878 1012.837-1.603 25.025-1.548-.04.232-29.73s2.142 3.468 2.919 4.745" opacity=".733"/><use xlink:href="#f" stroke-linecap="round" stroke-linejoin="round" stroke-width=".5"/><use xlink:href="#g" stroke-linecap="round" stroke-linejoin="round" stroke-width=".5" transform="translate(0 1004.362)"/><circle cx="23.384" cy="1048.186" r="1.237" fill="#d4aa00"/></g></svg>