<svg xmlns="http://www.w3.org/2000/svg" xmlns:xlink="http://www.w3.org/1999/xlink" viewBox="0 0 48 48"><defs><filter id="a" width="200%" height="200%" x="-50%" y="-50%" filterUnits="objectBoundingBox"><feOffset dy="1" in="SourceAlpha" result="shadowOffsetOuter1"/><feGaussianBlur in="shadowOffsetOuter1" result="shadowBlurOuter1" stdDeviation=".5"/><feColorMatrix in="shadowBlurOuter1" result="shadowMatrixOuter1" values="0 0 0 0 0 0 0 0 0 0 0 0 0 0 0 0 0 0 0.21 0"/><feMerge><feMergeNode in="shadowMatrixOuter1"/><feMergeNode in="SourceGraphic"/></feMerge></filter></defs><g fill="none" fill-rule="evenodd"><rect width="38" height="38" x="5" y="5" fill="#ef4d3b" filter="url(#a)" rx="1"/><path fill="#fff" d="M24 29a5 5 0 1 0 0-10 5 5 0 0 0 0 10m0-2.07a2.93 2.93 0 1 1 0-5.86 2.93 2.93 0 0 1 0 5.86M13 14.992c0-1.1.902-1.992 2.009-1.992H25l-7.082 3.099c-.507.221-1.133.804-1.393 1.29L13 24z"/><path fill="#fff" d="M24.018 34.989c6.059 0 10.97-4.912 10.97-10.971s-4.911-10.971-10.97-10.971-10.971 4.912-10.971 10.97c0 6.06 4.912 10.972 10.97 10.972m0-2a8.97 8.97 0 1 1 0-17.942 8.97 8.97 0 0 1 0 17.942"/></g></svg>