<svg xmlns="http://www.w3.org/2000/svg" xmlns:xlink="http://www.w3.org/1999/xlink" viewBox="0 0 48 48"><defs><filter id="a" width="200%" height="200%" x="-50%" y="-50%" filterUnits="objectBoundingBox"><feOffset dy="1" in="SourceAlpha" result="shadowOffsetOuter1"/><feGaussianBlur in="shadowOffsetOuter1" result="shadowBlurOuter1" stdDeviation=".5"/><feColorMatrix in="shadowBlurOuter1" result="shadowMatrixOuter1" values="0 0 0 0 0 0 0 0 0 0 0 0 0 0 0 0 0 0 0.21 0"/><feMerge><feMergeNode in="shadowMatrixOuter1"/><feMergeNode in="SourceGraphic"/></feMerge></filter></defs><g fill="none" fill-rule="evenodd"><path fill="#1278ef" d="M42 43H6a1 1 0 0 1-1-1V6a1 1 0 0 1 1-1h36a1 1 0 0 1 1 1v36a1 1 0 0 1-1 1" filter="url(#a)"/><path fill="#f8f9f9" d="M36.306 23.183c-.609-.16-1.099-.604-1.243-1.216-1.069-4.565-5.59-7.994-11.01-7.994-5.44 0-9.975 3.451-11.025 8.038-.13.573-.593.991-1.164 1.134a4.98 4.98 0 0 0-3.78 4.821c-.006 2.646 2.198 4.926 4.843 5.008q.428.013.838-.044a1.5 1.5 0 0 0 1.291-1.489v-7.626c.135-4.332 4.113-7.61 8.996-7.61 4.922 0 8.928 3.33 9.002 7.713v7.607a1.44 1.44 0 0 0 1.23 1.42q.438.066.9.053c2.644-.083 4.848-2.364 4.841-5.01a4.98 4.98 0 0 0-3.719-4.805"/><path fill="#f8f9f9" d="M22.052 29.977h-2.035c-1.094 0-1.984-.907-1.984-2 0-1.094.89-2 1.984-2h2.035zm.991-10h-.991v4h-2.035c-2.2 0-3.984 1.8-3.984 4s1.784 4 3.984 4h4.035V20.986a1.01 1.01 0 0 0-1.009-1.01m7.997 4.001h-.988v6h-3v-4.99a1.01 1.01 0 0 0-1.01-1.01h-.99v5.963c0 1.125.912 2.037 2.037 2.037h3.997a.966.966 0 0 0 .966-.966v-6.023c0-.558-.453-1.011-1.011-1.011"/></g></svg>