<svg xmlns="http://www.w3.org/2000/svg" viewBox="0 0 48 48"><g transform="translate(0 -1004.362)"><g transform="translate(-30 -13.007)"><circle cx="54.031" cy="1042.345" r="21.5" opacity=".05"/><circle cx="54.017" cy="1042.382" r="21" opacity=".1"/><circle cx="54.017" cy="1041.871" r="21" opacity=".15"/></g><circle cx="24" cy="1028.362" r="21" fill="#f93"/><path fill="#fff" fill-rule="evenodd" d="m13.425 1039.487 1.191-10.63s-5.407-1.466-3.895-7.01 8.11-2.474 8.11-2.474 2.062-3.94 5.315-3.207 4.353 3.436 4.49 5.086 1.283-1.558 1.283-1.558 8.156-2.75 8.43 3.665c.276 6.415-6.368 5.91-6.368 5.91l-1.329 10.402z"/><path fill="#351000" fill-rule="evenodd" d="M23.518 10.773c-2.172 0-4.202 1.276-5.213 3.118-.81-.36-1.653-.707-2.059-.754a6 6 0 0 0-.697-.041c-1.68 0-3.691.687-5.07 2.85l-.028.042-.023.047c-.835 1.666-1.06 3.159-.834 4.426.225 1.267.887 2.259 1.623 2.976a7.4 7.4 0 0 0 2.492 1.614l-1.102 9.434c-.091.76.093 1.538 1.413 1.538l16.385-.007c.992-.024 1.142-.47 1.2-.997l1.014-8.94c3.29.08 6.236-2.34 6.62-5.608.399-3.407-2.14-6.403-5.594-6.71a6.57 6.57 0 0 0-4.473 1.259c-.721-2.448-2.984-4.247-5.654-4.247m0 1.909a3.98 3.98 0 0 1 3.99 4.004c-.003.22-.084.423-.156.537l1.71.88c.787-1.494 2.48-2.49 4.346-2.324 2.41.214 4.089 2.241 3.822 4.514-.25 2.141-2.146 3.746-4.38 3.748l.18-1.582s-.047-.81-.926-.836c-.88-.026-1.086.836-1.086.836l-.737 6.58-12.802-.034c-1.35-.025-1.362 2.01-.012 2l12.586.033L29.697 34l-15.074.023 1.268-10.353-.825-.233s-1.425-.426-2.453-1.43c-.514-.5-.91-1.108-1.05-1.896-.138-.774-.025-1.78.632-3.119 1.181-1.819 2.537-2.017 3.82-1.869 1.11.128 2.654 1.176 3.25 1.826 0 0 .119-.928.733-2.168s2.17-2.1 3.52-2.1" color="#000" font-family="sans-serif" font-weight="400" overflow="visible" style="line-height:normal;text-indent:0;text-align:start;text-decoration-line:none;text-decoration-style:solid;text-decoration-color:#000;text-transform:none;block-progression:tb;white-space:normal;isolation:auto;mix-blend-mode:normal;solid-color:#000;solid-opacity:1" transform="translate(0 1004.362)"/></g></svg>