<svg xmlns="http://www.w3.org/2000/svg" xmlns:xlink="http://www.w3.org/1999/xlink" viewBox="0 0 48 48"><defs><filter id="a" width="200%" height="200%" x="-50%" y="-50%" filterUnits="objectBoundingBox"><feOffset dy="1" in="SourceAlpha" result="shadowOffsetOuter1"/><feGaussianBlur in="shadowOffsetOuter1" result="shadowBlurOuter1" stdDeviation=".5"/><feColorMatrix in="shadowBlurOuter1" result="shadowMatrixOuter1" values="0 0 0 0 0 0 0 0 0 0 0 0 0 0 0 0 0 0 0.21 0"/><feMerge><feMergeNode in="shadowMatrixOuter1"/><feMergeNode in="SourceGraphic"/></feMerge></filter></defs><g fill="none" fill-rule="evenodd"><path fill="#ee9a00" d="M40 40H4a1 1 0 0 1-1-1V3a1 1 0 0 1 1-1h36a1 1 0 0 1 1 1v36a1 1 0 0 1-1 1" filter="url(#a)" transform="translate(2 3)"/><path fill="#e9e9e9" d="M33.6 29.459c-.915.611-1.902 1.977-2.198 3.026l-1.794 6.363c-.298 1.06-1.25 1.36-2.106.685l-5.192-4.094c-.864-.682-2.468-1.199-3.557-1.156l-6.607.26c-1.1.044-1.679-.769-1.301-1.791l2.289-6.203c.38-1.033.377-2.718 0-3.74l-2.29-6.203c-.38-1.033.213-1.835 1.302-1.792l6.607.26c1.1.044 2.701-.48 3.557-1.155l5.192-4.094c.865-.682 1.81-.365 2.106.684l1.794 6.364c.299 1.06 1.292 2.42 2.199 3.026l5.498 3.672c.915.612.906 1.61 0 2.215z"/><path fill="#ee9a00" d="M18 21h3v8h-3zm13.009 8-2.14-7-2.869.877L27.872 29zM22 18h3v11h-3z"/></g></svg>