<svg xmlns="http://www.w3.org/2000/svg" viewBox="0 0 48 48"><g transform="translate(0 -1004.362)"><path fill-rule="evenodd" d="m29.402 1007.332-26 5.53v32.25l26 5.767z" opacity=".05"/><rect width="14" height="21" x="30.455" y="1021.865" opacity=".05" ry="0"/><rect width="13" height="21" x="31" y="1021.375" opacity=".1" ry="0"/><path fill-rule="evenodd" d="m28.994 1006.817-24.996 5.532v32.248l24.996 5.768z" opacity=".1"/><path fill-rule="evenodd" d="m28.994 1006.35-24.996 5.532v32.249l24.996 5.767z" opacity=".15"/><rect width="13" height="21" x="31" y="1020.886" opacity=".15" ry="0"/><path fill="#0071c3" fill-rule="evenodd" d="m28.994 1005.828-24.996 5.53v32.25l24.996 5.767z"/><rect width="13" height="21" x="31" y="1020.362" fill="#0071c3" ry="0"/><path fill="#fff" d="M16 1018.362a8 9.5 0 0 0-8 9.5 8 9.5 0 0 0 8 9.5 8 9.5 0 0 0 8-9.5 8 9.5 0 0 0-8-9.5m0 2a6 7.5 0 0 1 6 7.5 6 7.5 0 0 1-6 7.5 6 7.5 0 0 1-6-7.5 6 7.5 0 0 1 6-7.5"/><path fill="#fff" fill-rule="evenodd" d="m31 1024.362 4 4.01 9-7.01v3l-8.966 6.986-4-4.043z"/></g></svg>