<svg xmlns="http://www.w3.org/2000/svg" xmlns:xlink="http://www.w3.org/1999/xlink" viewBox="0 0 48 48"><g transform="translate(0 -1004.362)"><path fill-rule="evenodd" d="M31.984 1007.497c-10.306-.09-8.746 8.44-8.746 8.44s3.402 1.906 7.233.06c2.615-1.337 2.891-3.73 6.695-7.882-1.996-.415-3.71-.604-5.182-.617zm-9.964 3.833-2.979.034s2.047 2.25 2.914 7.981c.511-2.892.249-7.496.065-8.016m6.99 6.564a6.9 6.9 0 0 0-2.424.504c-4.13 1.682-5.924 1.522-8.297.65s-10.633-2.212-12.84 7.998c-1.956 9.05 1.742 14.935 3.367 17.332 1.15 1.695 4.926 7.383 13.006 5.657 3.862-.825 5.099 2.063 9.637-.592s8.881-8.806 9.428-17.508c.478-7.614-6.065-14.21-11.877-14.041" opacity=".05"/><path fill-rule="evenodd" d="M31.984 1007.02c-10.306-.091-8.746 8.44-8.746 8.44s3.402 1.906 7.233.06c2.615-1.338 2.891-3.731 6.695-7.882-1.996-.415-3.71-.605-5.182-.618m-9.964 3.832-2.979.035s2.047 2.25 2.914 7.98c.511-2.892.249-7.496.065-8.015m6.99 6.564a6.9 6.9 0 0 0-2.424.504c-4.13 1.683-5.924 1.523-8.297.65s-10.633-2.21-12.84 7.999c-1.956 9.05 1.742 14.934 3.367 17.332 1.15 1.695 4.926 7.382 13.006 5.656 3.862-.825 5.099 2.063 9.637-.592s8.881-8.806 9.428-17.507c.478-7.615-6.065-14.21-11.877-14.042" opacity=".1"/><path fill-rule="evenodd" d="M31.984 1006.594c-10.306-.09-8.746 8.44-8.746 8.44s3.402 1.906 7.233.06c2.615-1.337 2.891-3.73 6.695-7.882-1.996-.415-3.71-.604-5.182-.617zm-9.964 3.832-2.979.035s2.047 2.25 2.914 7.98c.511-2.892.249-7.496.065-8.015m6.99 6.565a6.9 6.9 0 0 0-2.424.504c-4.13 1.682-5.924 1.522-8.297.65s-10.633-2.212-12.84 7.998c-1.956 9.05 1.742 14.935 3.367 17.332 1.15 1.695 4.926 7.382 13.006 5.656 3.862-.825 5.099 2.064 9.637-.592 4.538-2.654 8.881-8.805 9.428-17.507.478-7.614-6.065-14.21-11.877-14.041" opacity=".15"/><path fill="#1b80f2" fill-rule="evenodd" d="M18.29 1017.745c2.372.872 4.166 1.031 8.296-.65 6.224-2.537 14.846 4.836 14.3 13.537s-4.889 14.853-9.427 17.508-5.775-.233-9.637.592c-8.08 1.726-11.857-3.961-13.006-5.656-1.626-2.398-5.323-8.282-3.367-17.332 2.207-10.21 10.467-8.872 12.84-8"/><path fill="#1b80f2" fill-rule="evenodd" d="m19.04 1010.061 2.98-.035c.184.52.447 5.124-.064 8.016-.867-5.731-2.915-7.98-2.915-7.98zm4.199 4.573s-2.04-11.142 13.928-7.823c-3.804 4.151-4.081 6.545-6.696 7.883-3.831 1.846-7.232-.06-7.232-.06"/><rect width="1" height="3.009" x="21.994" y="1020.359" fill="#fff" ry="0"/><rect width="1" height="2.993" x="22.016" y="1044.368" fill="#fff" ry="0"/><g fill="#fff" transform="rotate(90 22.505 1033.86)"><rect width="1" height="3.009" x="21.994" y="1020.359" ry="0"/><rect width="1" height="2.993" x="22.016" y="1044.368" ry="0"/></g><g fill="#fff" transform="rotate(30 22.505 1033.86)"><rect width="1" height="3.009" x="21.994" y="1020.359" ry="0"/><rect width="1" height="2.993" x="22.016" y="1044.368" ry="0"/></g><g fill="#fff" transform="rotate(60 22.505 1033.86)"><rect width="1" height="3.009" x="21.994" y="1020.359" ry="0"/><rect width="1" height="2.993" x="22.016" y="1044.368" ry="0"/></g><g fill="#fff" transform="rotate(120 22.505 1033.86)"><rect width="1" height="3.009" x="21.994" y="1020.359" ry="0"/><rect width="1" height="2.993" x="22.016" y="1044.368" ry="0"/></g><g fill="#fff" transform="rotate(150 22.505 1033.86)"><rect width="1" height="3.009" x="21.994" y="1020.359" ry="0"/><rect width="1" height="2.993" x="22.016" y="1044.368" ry="0"/></g><circle cx="22.551" cy="1033.873" r="1" fill="#fff"/><rect width="1.016" height="11.705" x="695.956" y="753.311" fill="none" stroke="#fff" stroke-linecap="round" stroke-linejoin="round" stroke-width=".25" ry=".508" transform="rotate(41.09)"/><rect width=".997" height="9.001" x="770.719" y="-697.456" fill="none" stroke="#fff" stroke-linecap="round" stroke-linejoin="round" stroke-width=".25" ry=".499" transform="rotate(130.53)"/><rect width=".434" height="12.054" x="905.493" y="498.949" fill="#fff" ry="0" transform="rotate(59.901)"/><path fill="#fff" stroke="#fff" stroke-linecap="round" stroke-linejoin="round" stroke-width=".053" d="M26.22 1029.558c.266.243.314.476.216.588l-3.727 4.274c-.099.113-.516-.006-.629-.104s-.312-.425-.214-.538l3.727-4.274c.098-.112.41-.147.627.054"/><path fill="#fff" stroke="#fff" stroke-linecap="round" stroke-linejoin="round" stroke-width=".044" d="M25.905 1036.784c-.202.223-.396.264-.49.183l-3.592-3.088c-.095-.082 0-.431.082-.526.081-.094.354-.263.449-.182l3.592 3.088c.094.082.125.342-.041.525"/><g fill="#fff" fill-rule="evenodd" color="#000" font-family="sans-serif" font-weight="400"><use xlink:href="#a" overflow="visible" style="line-height:normal;text-indent:0;text-align:start;text-decoration-line:none;text-decoration-style:solid;text-decoration-color:#000;text-transform:none;block-progression:tb;white-space:normal;isolation:auto;mix-blend-mode:normal;solid-color:#000;solid-opacity:1" transform="rotate(7.233 363.813 1047.99)scale(1.04167)"/><use xlink:href="#a" overflow="visible" style="line-height:normal;text-indent:0;text-align:start;text-decoration-line:none;text-decoration-style:solid;text-decoration-color:#000;text-transform:none;block-progression:tb;white-space:normal;isolation:auto;mix-blend-mode:normal;solid-color:#000;solid-opacity:1" transform="rotate(12.343 222.179 1051.07)scale(1.04167)"/><use xlink:href="#a" overflow="visible" style="line-height:normal;text-indent:0;text-align:start;text-decoration-line:none;text-decoration-style:solid;text-decoration-color:#000;text-transform:none;block-progression:tb;white-space:normal;isolation:auto;mix-blend-mode:normal;solid-color:#000;solid-opacity:1" transform="rotate(17.307 164.502 1052.324)scale(1.04167)"/><use xlink:href="#a" overflow="visible" style="line-height:normal;text-indent:0;text-align:start;text-decoration-line:none;text-decoration-style:solid;text-decoration-color:#000;text-transform:none;block-progression:tb;white-space:normal;isolation:auto;mix-blend-mode:normal;solid-color:#000;solid-opacity:1" transform="rotate(22.273 132.385 1053.023)scale(1.04167)"/></g><g fill="#fff" fill-rule="evenodd" color="#000" font-family="sans-serif" font-weight="400"><use xlink:href="#a" overflow="visible" style="line-height:normal;text-indent:0;text-align:start;text-decoration-line:none;text-decoration-style:solid;text-decoration-color:#000;text-transform:none;block-progression:tb;white-space:normal;isolation:auto;mix-blend-mode:normal;solid-color:#000;solid-opacity:1" transform="rotate(37.381 86.63 1054.018)scale(1.04167)"/><use xlink:href="#a" overflow="visible" style="line-height:normal;text-indent:0;text-align:start;text-decoration-line:none;text-decoration-style:solid;text-decoration-color:#000;text-transform:none;block-progression:tb;white-space:normal;isolation:auto;mix-blend-mode:normal;solid-color:#000;solid-opacity:1" transform="rotate(42.491 78.36 1054.197)scale(1.04167)"/><use xlink:href="#a" overflow="visible" style="line-height:normal;text-indent:0;text-align:start;text-decoration-line:none;text-decoration-style:solid;text-decoration-color:#000;text-transform:none;block-progression:tb;white-space:normal;isolation:auto;mix-blend-mode:normal;solid-color:#000;solid-opacity:1" transform="rotate(47.455 71.962 1054.337)scale(1.04167)"/><use xlink:href="#a" overflow="visible" style="line-height:normal;text-indent:0;text-align:start;text-decoration-line:none;text-decoration-style:solid;text-decoration-color:#000;text-transform:none;block-progression:tb;white-space:normal;isolation:auto;mix-blend-mode:normal;solid-color:#000;solid-opacity:1" transform="rotate(52.422 66.71 1054.45)scale(1.04167)"/></g><g fill="#fff" fill-rule="evenodd" color="#000" font-family="sans-serif" font-weight="400"><use xlink:href="#a" overflow="visible" style="line-height:normal;text-indent:0;text-align:start;text-decoration-line:none;text-decoration-style:solid;text-decoration-color:#000;text-transform:none;block-progression:tb;white-space:normal;isolation:auto;mix-blend-mode:normal;solid-color:#000;solid-opacity:1" transform="rotate(67.855 54.976 1054.706)scale(1.04167)"/><use xlink:href="#a" overflow="visible" style="line-height:normal;text-indent:0;text-align:start;text-decoration-line:none;text-decoration-style:solid;text-decoration-color:#000;text-transform:none;block-progression:tb;white-space:normal;isolation:auto;mix-blend-mode:normal;solid-color:#000;solid-opacity:1" transform="rotate(72.966 52.082 1054.769)scale(1.04167)"/><use xlink:href="#a" overflow="visible" style="line-height:normal;text-indent:0;text-align:start;text-decoration-line:none;text-decoration-style:solid;text-decoration-color:#000;text-transform:none;block-progression:tb;white-space:normal;isolation:auto;mix-blend-mode:normal;solid-color:#000;solid-opacity:1" transform="rotate(77.93 49.587 1054.823)scale(1.04167)"/><use xlink:href="#a" overflow="visible" style="line-height:normal;text-indent:0;text-align:start;text-decoration-line:none;text-decoration-style:solid;text-decoration-color:#000;text-transform:none;block-progression:tb;white-space:normal;isolation:auto;mix-blend-mode:normal;solid-color:#000;solid-opacity:1" transform="rotate(82.896 47.345 1054.872)scale(1.04167)"/></g><g fill="#fff" fill-rule="evenodd" color="#000" font-family="sans-serif" font-weight="400"><use xlink:href="#a" overflow="visible" style="line-height:normal;text-indent:0;text-align:start;text-decoration-line:none;text-decoration-style:solid;text-decoration-color:#000;text-transform:none;block-progression:tb;white-space:normal;isolation:auto;mix-blend-mode:normal;solid-color:#000;solid-opacity:1" transform="rotate(97.286 41.915 1054.99)scale(1.04167)"/><use xlink:href="#a" overflow="visible" style="line-height:normal;text-indent:0;text-align:start;text-decoration-line:none;text-decoration-style:solid;text-decoration-color:#000;text-transform:none;block-progression:tb;white-space:normal;isolation:auto;mix-blend-mode:normal;solid-color:#000;solid-opacity:1" transform="rotate(102.396 40.273 1055.026)scale(1.04167)"/><use xlink:href="#a" overflow="visible" style="line-height:normal;text-indent:0;text-align:start;text-decoration-line:none;text-decoration-style:solid;text-decoration-color:#000;text-transform:none;block-progression:tb;white-space:normal;isolation:auto;mix-blend-mode:normal;solid-color:#000;solid-opacity:1" transform="rotate(107.36 38.787 1055.058)scale(1.04167)"/><use xlink:href="#a" overflow="visible" style="line-height:normal;text-indent:0;text-align:start;text-decoration-line:none;text-decoration-style:solid;text-decoration-color:#000;text-transform:none;block-progression:tb;white-space:normal;isolation:auto;mix-blend-mode:normal;solid-color:#000;solid-opacity:1" transform="rotate(112.326 37.393 1055.088)scale(1.04167)"/></g><g fill="#fff" fill-rule="evenodd" color="#000" font-family="sans-serif" font-weight="400"><use xlink:href="#a" overflow="visible" style="line-height:normal;text-indent:0;text-align:start;text-decoration-line:none;text-decoration-style:solid;text-decoration-color:#000;text-transform:none;block-progression:tb;white-space:normal;isolation:auto;mix-blend-mode:normal;solid-color:#000;solid-opacity:1" transform="rotate(127.403 33.597 1055.17)scale(1.04167)"/><use xlink:href="#a" overflow="visible" style="line-height:normal;text-indent:0;text-align:start;text-decoration-line:none;text-decoration-style:solid;text-decoration-color:#000;text-transform:none;block-progression:tb;white-space:normal;isolation:auto;mix-blend-mode:normal;solid-color:#000;solid-opacity:1" transform="rotate(132.514 32.427 1055.196)scale(1.04167)"/><use xlink:href="#a" overflow="visible" style="line-height:normal;text-indent:0;text-align:start;text-decoration-line:none;text-decoration-style:solid;text-decoration-color:#000;text-transform:none;block-progression:tb;white-space:normal;isolation:auto;mix-blend-mode:normal;solid-color:#000;solid-opacity:1" transform="rotate(137.478 31.333 1055.22)scale(1.04167)"/><use xlink:href="#a" overflow="visible" style="line-height:normal;text-indent:0;text-align:start;text-decoration-line:none;text-decoration-style:solid;text-decoration-color:#000;text-transform:none;block-progression:tb;white-space:normal;isolation:auto;mix-blend-mode:normal;solid-color:#000;solid-opacity:1" transform="rotate(142.444 30.275 1055.243)scale(1.04167)"/></g><g fill="#fff" fill-rule="evenodd" color="#000" font-family="sans-serif" font-weight="400"><use xlink:href="#a" overflow="visible" style="line-height:normal;text-indent:0;text-align:start;text-decoration-line:none;text-decoration-style:solid;text-decoration-color:#000;text-transform:none;block-progression:tb;white-space:normal;isolation:auto;mix-blend-mode:normal;solid-color:#000;solid-opacity:1" transform="rotate(157.01 27.332 1055.307)scale(1.04167)"/><use xlink:href="#a" overflow="visible" style="line-height:normal;text-indent:0;text-align:start;text-decoration-line:none;text-decoration-style:solid;text-decoration-color:#000;text-transform:none;block-progression:tb;white-space:normal;isolation:auto;mix-blend-mode:normal;solid-color:#000;solid-opacity:1" transform="rotate(162.12 26.34 1055.329)scale(1.04167)"/><use xlink:href="#a" overflow="visible" style="line-height:normal;text-indent:0;text-align:start;text-decoration-line:none;text-decoration-style:solid;text-decoration-color:#000;text-transform:none;block-progression:tb;white-space:normal;isolation:auto;mix-blend-mode:normal;solid-color:#000;solid-opacity:1" transform="rotate(167.084 25.39 1055.35)scale(1.04167)"/><use xlink:href="#a" overflow="visible" style="line-height:normal;text-indent:0;text-align:start;text-decoration-line:none;text-decoration-style:solid;text-decoration-color:#000;text-transform:none;block-progression:tb;white-space:normal;isolation:auto;mix-blend-mode:normal;solid-color:#000;solid-opacity:1" transform="rotate(172.05 24.448 1055.37)scale(1.04167)"/></g></g></svg>