<svg xmlns="http://www.w3.org/2000/svg" xmlns:xlink="http://www.w3.org/1999/xlink" viewBox="0 0 48 48"><defs><filter id="b" width="200%" height="200%" x="-50%" y="-50%" filterUnits="objectBoundingBox"><feOffset dy="1" in="SourceAlpha" result="shadowOffsetOuter1"/><feGaussianBlur in="shadowOffsetOuter1" result="shadowBlurOuter1" stdDeviation=".5"/><feColorMatrix in="shadowBlurOuter1" values="0 0 0 0 0 0 0 0 0 0 0 0 0 0 0 0 0 0 0.2 0"/></filter><rect id="a" width="36" height="40" x="6" y="4" rx="2"/></defs><g fill="none" fill-rule="evenodd"><use xlink:href="#a" fill="#000" filter="url(#b)"/><use xlink:href="#a" fill="#2d31c4"/><path fill="#090a8a" d="M6 4h8v40H6z"/><path fill="#fff" d="M20.96 17.75v.907h5.106v3.265h.96v-3.265h5.157v-.908h-5.158v-1.27h-.959v1.27zm9.512-1.465c.545 0 .96-.104 1.219-.31.285-.234.492-.908.596-1.997l-.881-.285c-.065.843-.195 1.361-.376 1.542-.143.13-.39.195-.726.195H28.36c-.363 0-.544-.156-.544-.454v-1.23c1.49-.714 2.786-1.543 3.9-2.489l-.634-.648c-.856.778-1.944 1.503-3.266 2.151v-2.553h-.894v2.968a26 26 0 0 1-2.424.92l.519.778a41 41 0 0 0 1.905-.726v1.01q0 1.128 1.166 1.128zM22.75 13.33v3.409h.907v-4.29a9.8 9.8 0 0 0 1.464-2.086L24.33 10c-.752 1.374-1.93 2.579-3.55 3.641l.297.96c.61-.402 1.167-.83 1.672-1.27m-1.827 12.644v.816h3.02v.895h.958v-.895h3.33v.908h.804v.53H23.19v1.737h-1.18v-2.177h-.803v2.955h1.983v1.309h-2.514v.777h.738c-.052 1.517-.337 2.553-.855 3.123l.648.506c.57-.687.894-1.892.946-3.629h1.037v.143c-.026 1.477-.26 2.618-.726 3.447l.674.609c.57-1.024.868-2.371.894-4.056V29.02h5.015q.078 2.528.389 4.121c.078.44.181.843.298 1.218a6 6 0 0 1-1.283 1.53v-.532h-1.14v-1.23h1.127v-2.463H27.31v-1.127h1.14v-.752h-3.692v6.324h3.395l-.22.142.44.7q.972-.583 1.71-1.594c.104.26.208.48.338.687.388.622.764.946 1.101.946.415 0 .739-.803.96-2.41l-.675-.376c-.13 1.166-.285 1.75-.44 1.762-.13 0-.324-.259-.558-.751a4 4 0 0 1-.246-.661c.61-1.166 1.011-2.657 1.218-4.497l-.79-.168c-.13 1.283-.376 2.397-.739 3.356q-.039-.194-.078-.428c-.155-.88-.259-2.15-.31-3.797H32.3v-.79h-.648a15 15 0 0 0-.402-1.102l-.79.13q.233.447.427.972H29.85v-.726h-.66v-.713h3.019v-.816h-3.02v-.816h-.958v.816H24.9v-.83h-.96v.83zm5.65 4.562v1.127h-1.05v-1.127zm-1.05 1.814h2.19v1.075h-2.19zm0 1.775h1.05v1.231h-1.05z"/></g></svg>