<svg xmlns="http://www.w3.org/2000/svg" viewBox="0 0 48 48"><g transform="translate(0 -1004.362)"><rect width="39" height="38" x="4.458" y="1010.854" opacity=".05" ry="1.034"/><rect width="38" height="38" x="4.999" y="1010.343" opacity=".1" ry="1.034"/><rect width="38" height="38" x="4.999" y="1009.868" opacity=".15" ry="1.034"/><rect width="38" height="38" x="4.999" y="1009.348" fill="#0076ff" ry="1.034"/><path fill="#fff" d="M12.008 1017.363v17.032h3v-14.032h5.004v14.032h3v-17.015h-.004v-.018h-11zm16.01.01v8.987h-2.936v13.035h11.02v-13.035h-4.025 1.025-2.083v-4.013h4.96v-3h-4.96v-1.978h-3zm-12.004 3.99v12.017c-.01.236-.206 3.025-4.014 3.025.026 1.333.027 2.982.027 2.982s4.108.478 5.487-2.94c1.631 3.438 5.496 2.933 5.496 2.933s-.026-1.632 0-2.965c-3.887 0-3.993-3.019-3.996-3.15v-11.902zm12.068 8.001h5.02v7.03h-5.02z"/></g></svg>