<svg xmlns="http://www.w3.org/2000/svg" xmlns:xlink="http://www.w3.org/1999/xlink" viewBox="0 0 48 48"><defs><filter id="a" width="200%" height="200%" x="-50%" y="-50%" filterUnits="objectBoundingBox"><feOffset dy="1" in="SourceAlpha" result="shadowOffsetOuter1"/><feGaussianBlur in="shadowOffsetOuter1" result="shadowBlurOuter1" stdDeviation=".5"/><feColorMatrix in="shadowBlurOuter1" result="shadowMatrixOuter1" values="0 0 0 0 0 0 0 0 0 0 0 0 0 0 0 0 0 0 0.21 0"/><feMerge><feMergeNode in="shadowMatrixOuter1"/><feMergeNode in="SourceGraphic"/></feMerge></filter></defs><g fill="none" fill-rule="evenodd"><rect width="38" height="38" x="5" y="5" fill="#fd313d" filter="url(#a)" rx="1"/><path fill="#fff" d="m11 17.783 2.065-2.066 3.718 2.479-1.653 9.087 6.61-6.61s3.717-2.89 4.13 0c0 2.892-.413 5.37-.413 5.37s0 1.653 2.89-1.652C31.24 21.087 38.675 12 38.675 12S31.5 25 27.934 28.522c0 0-3.934 5.478-4.956 1.239v-6.196s.826-2.891-2.478.826-5.783 6.196-5.783 6.196-2.478 1.652-2.478-1.652c0-3.305.826-9.087.826-9.087z"/><text fill="#fff" font-family="Helvetica" font-size="7">
                <tspan x="30" y="38">HD</tspan>
            </text></g></svg>