<svg xmlns="http://www.w3.org/2000/svg" viewBox="0 0 64 64"><path d="M51.691 21.953a19.3 19.3 0 0 1-.78 5.065c.054.042.152.13.212.18.371-1.492.584-3.045.584-4.65 0-.199-.01-.397-.016-.595m-39.377.008c-.006.196-.016.39-.016.588 0 1.604.213 3.157.584 4.648.06-.049.158-.137.211-.18a19.4 19.4 0 0 1-.779-5.056m-1.265 21.377c-2.753 5.05-6.106 5.334-6.106 5.334a15.9 15.9 0 0 1-.931-4.871c-.065 1.853.2 3.818.931 5.87 0 0 3.353-.283 6.106-5.333a21.3 21.3 0 0 0 3.879 7.838c.211-.073.417-.152.638-.217a21.3 21.3 0 0 1-4.517-8.621m41.904 0a21.3 21.3 0 0 1-4.518 8.62c.223.066.427.146.64.22a21.3 21.3 0 0 0 3.878-7.84c2.751 5.048 6.1 5.334 6.1 5.334.73-2.044.996-4 .935-5.848a15.9 15.9 0 0 1-.935 4.848s-3.349-.286-6.1-5.334m.648 13.879C53.074 59.904 48.81 62 43.625 62c-3.759 0-7.032-1.104-8.752-2.733-.94.124-1.895.21-2.875.21-.977 0-1.93-.086-2.875-.21C27.407 60.895 24.134 62 20.375 62c-5.18 0-9.443-2.094-9.972-4.78-.022.144-.057.287-.057.435 0 2.953 4.491 5.346 10.03 5.346 3.758 0 7.031-1.104 8.747-2.733a22 22 0 0 0 2.875.21c.98 0 1.934-.086 2.875-.21C36.593 61.895 39.866 63 43.625 63c5.54 0 10.033-2.395 10.033-5.345 0-.149-.034-.292-.057-.438" opacity=".2"/><path fill="#4f4f4f" d="M50.911 27.017c.513-1.736.796-3.568.796-5.467 0-10.796-8.82-19.548-19.706-19.548-10.88 0-19.704 8.75-19.704 19.548 0 1.9.285 3.73.796 5.467C10.61 28.994.982 37.562 4.943 48.673c0 0 3.352-.285 6.105-5.334a21.3 21.3 0 0 0 4.516 8.621c-3.11.909-5.22 2.672-5.22 4.695 0 2.953 4.491 5.346 10.03 5.346 3.759 0 7.032-1.105 8.748-2.733.945.123 1.898.209 2.875.209.98 0 1.934-.086 2.876-.21 1.72 1.629 4.99 2.734 8.75 2.734 5.54 0 10.034-2.395 10.034-5.346 0-2.021-2.112-3.786-5.222-4.695a21.34 21.34 0 0 0 4.518-8.621c2.751 5.048 6.099 5.334 6.099 5.334 3.97-11.114-5.66-19.682-8.14-21.656z"/><circle cx="22" cy="16.001" r="4" fill="#fff"/><circle cx="41.999" cy="16.001" r="4" fill="#fff"/><ellipse cx="32" cy="38" fill="#fff" rx="14" ry="16"/><path d="M28 20.001h8c-.641 6.163-4 12-4 12s-4-6.927-4-12m20.543 18.423c.96-.199 1.899.169 2.355.873l.192-.049c.921-.711 2.211-1.34 3.725-1.73s2.959-.464 4.126-.29l.654-.168c.36-.094.51-.684.332-1.32l-1.042-3.743c-.176-.635-.61-1.076-.966-.984l-.646.166c-.921.715-2.217 1.348-3.74 1.74-1.52.391-2.971.465-4.142.288l-.134.034c.044.883-.604 1.725-1.593 2.031l-9.944 2.527c-.266-.18-.585-.66-.662-1.918-.137-2.248-2.089-4.627-6.118-2.326s-2.666 3.873-8.857 1.132v.002c-2.116-1.092-4.5-1.456-6.817-.86C9.77 35.241 6.742 41.51 8.5 47.831c1.758 6.319 7.64 10.295 13.135 8.88.098-.024.195-.055.292-.083v.003l.1-.032a9.176 8.96 47.254 0 0 1.308-.517c1.628-.74 4.218-2.265 5.284-4.82 1.61-3.857 4.931-1.69 6.862-1.766 1.93-.075 2.874-.563 3.43-1.445 0 0-2.353.184-3.028-2.242-.543-1.95 1.193-3.713 2.354-4.503l10.303-2.885z" opacity=".2"/><circle cx="24" cy="18.001" r="2" fill="#303030"/><circle cx="43.999" cy="18.001" r="2" fill="#303030"/><path fill="#fff" d="M32.002 2.002c-10.88 0-19.703 8.749-19.703 19.547 0 .138.012.274.015.412.315-10.525 9.007-18.959 19.688-18.959 10.684 0 19.371 8.432 19.689 18.951.003-.135.016-.268.016-.404 0-10.796-8.819-19.547-19.705-19.547M12.883 27.195c-2.298 1.868-9.129 8.138-8.871 16.606.287-8.18 7.059-14.171 9.082-15.783-.08-.271-.143-.548-.211-.823m38.24 0c-.068.275-.131.552-.211.823 2.024 1.612 8.804 7.615 9.076 15.806.275-8.48-6.566-14.76-8.865-16.629M14.928 52.176c-2.751.954-4.582 2.6-4.582 4.478q.001.286.056.565c.28-1.837 2.281-3.417 5.164-4.26-.22-.255-.43-.518-.638-.783m34.146.002q-.31.397-.638.781c2.882.842 4.884 2.423 5.166 4.258q.055-.278.056-.563c0-1.876-1.833-3.521-4.584-4.476" opacity=".1"/><path fill="#cd5252" d="M28 18.001h8c-.641 6.163-4 12-4 12s-4-6.927-4-12"/><path fill="#cd8652" d="M48.543 37.421c.96-.199 1.899.169 2.355.873l.192-.049c.921-.711 2.211-1.34 3.725-1.73s2.959-.464 4.126-.29l.654-.168c.36-.094.51-.684.332-1.32l-1.042-3.743c-.176-.635-.61-1.076-.966-.984l-.646.166c-.921.715-2.217 1.348-3.74 1.74-1.52.391-2.971.465-4.142.288l-.134.034c.044.883-.604 1.725-1.593 2.031l-9.944 2.527c-.266-.18-.585-.66-.662-1.918-.137-2.248-2.089-4.627-6.118-2.326s-2.666 3.873-8.857 1.132v.002c-2.116-1.092-4.5-1.456-6.817-.86C9.77 34.238 6.742 40.507 8.5 46.828c1.758 6.319 7.64 10.295 13.135 8.88.098-.024.195-.055.292-.083v.003l.1-.032a9.176 8.96 47.254 0 0 1.308-.517c1.628-.74 4.218-2.265 5.284-4.82 1.61-3.857 4.931-1.69 6.862-1.766 1.93-.075 2.874-.563 3.43-1.445 0 0-2.353.184-3.028-2.242-.543-1.95 1.193-3.713 2.354-4.503l10.303-2.885z"/><circle cx="24" cy="43" r="4" fill="#212121"/></svg>