<svg xmlns="http://www.w3.org/2000/svg" viewBox="0 0 64 64"><path fill="#e4e4e4" d="M57.2 56.998c1.55 0 2.8-1.25 2.8-2.8V19H4v35.2C4 55.75 5.25 57 6.8 57h50.4z"/><path fill="#3f3f3f" d="M57.2 7C58.751 7 60 8.248 60 9.8V19H4V9.8C4 8.249 5.249 7 6.8 7Z"/><path fill="#fff" d="M6.8 7C5.25 7 4 8.25 4 9.8v1C4 9.25 5.25 8 6.8 8h50.4c1.55 0 2.8 1.25 2.8 2.8v-1C60 8.25 58.75 7 57.2 7z" opacity=".1"/><path d="M4 54.2v1C4 56.75 5.25 58 6.8 58h50.4c1.55 0 2.8-1.25 2.8-2.8v-1c0 1.55-1.25 2.8-2.8 2.8H6.8C5.25 57 4 55.75 4 54.2" opacity=".2"/><path d="M2 13v38.5C2 55 5.429 55 5.429 55H50Zm8 19 18 14H10Z" opacity=".2"/><path fill="#689f38" d="M2 12v38.5C2 54 5.429 54 5.429 54H50Zm8 19 18 14H10Z"/><rect width="10" height="6" x="48" y="11" opacity=".2" rx="2"/><rect width="10" height="6" x="48" y="10" fill="#50beee" rx="2"/></svg>