<svg xmlns="http://www.w3.org/2000/svg" xmlns:xlink="http://www.w3.org/1999/xlink" viewBox="0 0 64 64"><defs><linearGradient id="a" x1="12.897" x2="16.213" y1="18.858" y2="20.316" gradientTransform="matrix(2 0 0 2 0 -1)" gradientUnits="userSpaceOnUse"><stop offset="0"/><stop offset="1" stop-opacity="0"/></linearGradient></defs><path d="m23.386 42-1.078 2H32v-2zM25 14l7 12 7-12h-1.168L32 24l-5.832-10zM5.102 50 4 52h14l-1.234-2zm42.132 0L46 52h14l-1.102-2z" opacity=".2"/><path fill="#4f4f4f" d="M4 51h14l14-26 14 26h14L39 13H25Z"/><path fill="#fff" d="M25 13 4 51h.553L25 14h14l20.447 37H60L39 13z" opacity=".2"/><path fill="#e33e31" d="M10.6 39 18 51H4Z"/><path fill="#e4be21" d="M53.4 39 60 51H46Z"/><path fill="#3c8cf8" d="m32 25 7-12H25Z"/><path fill="#4f4f4f" d="m28.77 31-6.462 12H32V31z"/><path fill="url(#a)" d="m28.77 31-6.462 12H32V31z" opacity=".15"/><path fill="#fff" d="m28.77 31-6.461 12h.539l5.922-11H32v-1zM25 13l.584 1h12.832L39 13zM10.602 39 4 51h.55l6.052-11 .015.025.291-.527zm42.796 0-.306.498.29.527.016-.025 6.051 11H60zm-41.906 1.443-.29.528L17.381 51H18zm41.016 0L46 51h.617L52.8 40.97z" opacity=".2"/></svg>