<svg xmlns="http://www.w3.org/2000/svg" viewBox="0 0 64 64"><rect width="54" height="54" x="5" y="6" opacity=".2" rx="16.2" ry="16.2"/><rect width="54" height="54" x="5" y="5" fill="#3f3f3f" rx="16.2" ry="16.2"/><path d="M25 21a12 12 0 0 0-12 12 12 12 0 0 0 12 12 12 12 0 0 0 3.5-.531A12 12 0 0 0 32 45a12 12 0 0 0 3.5-.531A12 12 0 0 0 39 45a12 12 0 0 0 12-12 12 12 0 0 0-12-12 12 12 0 0 0-3.488.527A12 12 0 0 0 32 21a12 12 0 0 0-3.488.527A12 12 0 0 0 25 21" opacity=".2"/><path fill="#248afd" d="M37 32a12 12 0 0 1-12 12 12 12 0 0 1-12-12 12 12 0 0 1 12-12 12 12 0 0 1 12 12"/><path fill="#e97e10" d="M27 32a12 12 0 0 0 12 12 12 12 0 0 0 12-12 12 12 0 0 0-12-12 12 12 0 0 0-12 12"/><path fill="#fff" d="M39 20a12 12 0 0 0-12 12 12 12 0 0 0 .033.484A12 12 0 0 1 39 21a12 12 0 0 1 11.979 11.31A12 12 0 0 0 51 32a12 12 0 0 0-12-12" opacity=".2"/><path fill="#e3424a" d="M44 32a12 12 0 0 1-12 12 12 12 0 0 1-12-12 12 12 0 0 1 12-12 12 12 0 0 1 12 12"/><path fill="#fff" d="M32 20a12 12 0 0 0-12 12 12 12 0 0 0 .033.484A12 12 0 0 1 32 21a12 12 0 0 1 11.979 11.31A12 12 0 0 0 44 32a12 12 0 0 0-12-12" opacity=".2"/><path fill="#fff" d="M25 20a12 12 0 0 0-12 12 12 12 0 0 0 .033.484A12 12 0 0 1 25 21a12 12 0 0 1 11.979 11.31A12 12 0 0 0 37 32a12 12 0 0 0-12-12" opacity=".2"/><path fill="#fecd38" d="M35.512 20.527A12 12 0 0 0 27 32a12 12 0 0 0 8.5 11.469A12 12 0 0 0 44 32a12 12 0 0 0-8.488-11.473"/><path fill="#50beee" d="M28.512 20.527A12 12 0 0 0 20 32a12 12 0 0 0 8.5 11.469A12 12 0 0 0 37 32a12 12 0 0 0-8.488-11.473"/><path fill="#ff90b8" d="M32.02 22.273A12 12 0 0 0 27 32a12 12 0 0 0 5 9.71A12 12 0 0 0 37 32a12 12 0 0 0-4.98-9.727"/><path fill="#fff" d="M21.2 5C12.223 5 5 12.224 5 21.2v1C5 13.223 12.224 6 21.2 6h21.6C51.777 6 59 13.224 59 22.2v-1C59 12.223 51.776 5 42.8 5z" opacity=".1"/></svg>