<svg xmlns="http://www.w3.org/2000/svg" viewBox="0 0 64 64"><rect width="56" height="56" x="4" y="5" opacity=".2" rx="2.8" ry="2.8"/><path fill="#ed1c24" d="M32 4v29.4l27.437 25.473c.35-.467.563-1.042.563-1.673V6.8C60 5.249 58.751 4 57.2 4Z"/><path fill="#ffc90e" d="M6.8 4A2.794 2.794 0 0 0 4 6.8v50.4c0 .631.213 1.206.563 1.673L32 33.4V4Z"/><path fill="#6492ca" d="M32 4 4.563 58.873A2.79 2.79 0 0 0 6.8 60h50.4c.92 0 1.727-.446 2.237-1.127z"/><path fill="#fff" d="M32 4 4.563 58.875q.145.192.326.35L32 5l27.111 54.225q.18-.158.327-.35z" opacity=".2"/><path fill="#fff" d="M6.8 4C5.25 4 4 5.25 4 6.8v1C4 6.25 5.25 5 6.8 5h50.4C58.75 5 60 6.25 60 7.8v-1C60 5.25 58.75 4 57.2 4z" opacity=".2"/></svg>