<svg xmlns="http://www.w3.org/2000/svg" viewBox="0 0 64 64"><rect width="56" height="56" x="4" y="5" opacity=".2" rx="2.8" ry="2.8"/><rect width="56" height="56" x="4" y="4" fill="#6999d1" rx="2.8" ry="2.8"/><path d="m27.332 15-4.234.121-4.414.3-2.711 3.673-1.707 4.336-1.926 10.039 3.875 6.648-1.567 7.934 8.329 1.683 9.355-1.562L39.215 51l7.73-3.586 4.715-6.2-2.668-5.628-3.492 4.621 4.332-5.781-1.984-9.887-2.41-7.07-6.825 2.496-3.668.226zm14.434 6.996-7.004 1.219 3.672-.645z" opacity=".1"/><path fill="#006fef" d="m16.695 26.628 9.233 2.873-6.825 5.9z"/><path fill="#005bc3" d="m25.928 29.501 7.306 4.981-5.2.964zm7.306 4.981 5.26 3.295-5.802 2.83z"/><path fill="#0050ac" d="m38.493 37.777 7.005 1.43-7.547 5.96z"/><path fill="#006fef" d="m45.498 39.206 6.163 1.007-4.717 6.202zm-5.74-9.781 3.754 5.763-5.019 2.59z"/><path fill="#003776" d="m36.266 28.658 10.196-3.327-6.704 4.094z"/><path fill="#006fef" d="m22.857 21.57 6.162 2.212-3.091 5.72zm6.222-3.974 5.681 4.62-5.74 1.565z"/><path fill="#0050ac" d="m34.76 22.216 7.006-1.22-5.5 7.662z"/><path fill="#003d82" d="m19.103 35.402 6.283 7.51-9.173-3.793Z"/><path fill="#003776" d="m25.386 42.912 6.945 4.258-9.354 1.566z"/><path fill="#006fef" d="m16.213 39.119 6.764 9.617-8.33-1.686Z"/><path fill="#00234b" d="m14.265 22.43 2.43 4.198-4.356 5.84z"/><path fill="#006fef" d="m15.972 18.094 6.885 3.476-6.162 5.058zm7.126-3.974 5.982 3.476-6.223 3.974z"/><path fill="#153153" d="m27.333 14 11.1 7.57-9.353-3.974z"/><path fill="#00234b" d="m45.438 16.469-7.005 5.1 3.333-.574z"/><path fill="#003d82" d="m37.951 45.167-5.62 2.003L39.216 50z"/><path fill="#003776" d="m37.951 45.167 8.993 1.248L39.216 50z"/><path fill="#006fef" d="m32.692 40.607 5.26 4.56-5.621 2.003z"/><path fill="#0050ac" d="m28.035 35.446 4.657 5.161-7.306 2.305zM25.928 29.5l2.107 5.945-8.932-.044z"/><path fill="#258bff" d="m22.857 21.57 3.07 7.931-9.232-2.873z"/><path fill="#003d82" d="m16.695 26.628 2.408 8.774-6.764-2.934Z"/><path fill="#003776" d="m16.213 39.119 9.173 3.793-6.424.12z"/><path fill="#258bff" d="m29.02 23.781 5.74-1.565-2.33 5.9z"/><path fill="#003776" d="m32.43 28.116 3.835.542-3.031 5.824z"/><path fill="#258bff" d="m25.928 29.501 6.502-1.385.804 6.366z"/><path fill="#0050ac" d="m33.234 34.482 6.524-5.057-1.265 8.353z"/><path fill="#006fef" d="m39.758 29.425 6.704-4.094 1.565 6.064z"/><path fill="#00234b" d="m41.766 20.995 6.08 2.546-1.384 1.79z"/><path fill="#003d82" d="m23.098 14.12-.241 7.45-4.175-7.149z"/><path fill="#153153" d="m43.512 35.188 4.515-3.793 1.807 2.031z"/><path fill="#003776" d="m45.498 39.206 3.493-4.62 2.67 5.628zm-7.005-1.429 5.019-2.589 1.986 4.018zm3.273-16.782 3.672-4.526 2.409 7.072z"/><path fill="#153153" d="m46.462 25.33 1.385-1.79 1.987 9.886z"/><path fill="#00234b" d="m46.462 25.33 1.565 6.065 1.807 2.031z"/><path fill="#003d82" d="m43.512 35.188 6.322-1.762-4.336 5.78z"/><path fill="#005bc3" d="m37.951 45.167 7.547-5.96 1.446 7.208z"/><path fill="#003d82" d="m18.962 43.032 6.424-.12-2.409 5.824Z"/><path fill="#003776" d="m12.338 32.468 6.765 2.934-2.89 3.717z"/><path fill="#005bc3" d="m19.103 35.402 8.932.044-2.65 7.466z"/><path fill="#0050ac" d="m28.035 35.446 5.199-.964-.542 6.125z"/><path fill="#003d82" d="m36.266 28.658 3.492.767-6.524 5.057zm-1.506-6.442 1.506 6.442-3.836-.542z"/><path fill="#153153" d="m38.614 18.965 6.824-2.496-7.005 5.1z"/><path fill="#00234b" d="m34.68 19.206 3.934-.241-.181 2.605z"/><path fill="#003776" d="m29.08 17.596 9.353 3.974-3.673.646z"/><path fill="#258bff" d="m22.857 21.57 6.223-3.974-.06 6.185z"/><path fill="#006fef" d="m25.928 29.501 3.091-5.72 3.411 4.335z"/><path fill="#003776" d="m15.972 18.094 2.71-3.673 4.175 7.149z"/><path fill="#153153" d="m14.265 22.43 1.707-4.336.723 8.534z"/><path fill="#00234b" d="m23.098 14.12 4.235-.12 1.747 3.596z"/><path fill="#005bc3" d="m36.266 28.658 5.5-7.663 4.696 4.336z"/><path fill="#258bff" d="m43.512 35.188-3.754-5.763 8.27 1.97zm-5.56 9.979-5.26-4.56 5.801-2.83zM32.33 47.17l-6.945-4.258 7.306-2.305Z"/><path fill="#fff" d="M6.8 4C5.25 4 4 5.25 4 6.8v1C4 6.25 5.25 5 6.8 5h50.4C58.75 5 60 6.25 60 7.8v-1C60 5.25 58.75 4 57.2 4z" opacity=".2"/></svg>