<svg xmlns="http://www.w3.org/2000/svg" viewBox="0 0 64 64"><path d="M10 56v2c0 1.662 1.338 3 3 3h38c1.662 0 3-1.338 3-3v-2c0 1.662-1.338 3-3 3H13c-1.662 0-3-1.338-3-3" opacity=".2"/><path fill="#009587" d="M13 4c-1.662 0-3 1.338-3 3v50c0 1.662 1.338 3 3 3h38c1.662 0 3-1.338 3-3V7c0-1.662-1.338-3-3-3z"/><path d="M13 4c-1.662 0-3 1.338-3 3v50c0 1.662 1.338 3 3 3h5V4zm25 1v28l4-4 4 4V5z" opacity=".2"/><path fill="#d8d8d8" d="M38 4v28l4-4 4 4V4z"/><path fill="#fff" d="M13 4c-1.662 0-3 1.338-3 3v1c0-1.662 1.338-3 3-3h38c1.662 0 3 1.338 3 3V7c0-1.662-1.338-3-3-3z" opacity=".2"/><path fill-rule="evenodd" d="M63.958 45.848A16 16 0 0 1 48 61a16 16 0 0 1-15.958-14.848A16 16 0 0 0 32 47a16 16 0 0 0 16 16 16 16 0 0 0 16-16 16 16 0 0 0-.042-1.152" opacity=".2"/><circle cx="48" cy="46" r="16" fill="#f34235"/><path fill="#fff" d="m48 36-6.088 6H38v8h3.912L48 56zm2 0v2c3.374 1.057 6 4.329 6 8s-2.625 6.943-6 8v2c4.582-1.114 8-5.143 8-10s-3.418-8.886-8-10m0 6v8c1.777-.773 3-2.267 3-4s-1.207-3.227-3-4"/></svg>