<svg xmlns="http://www.w3.org/2000/svg" viewBox="0 0 16 16"><path fill="currentColor" d="M4.121 2 7 4.879V4h2v2h-.879l1 1h1.172l1 1H12v1h-.707l-.086.086.707.707.086-.086v.172l1 1V4.293L10.707 2zM10 4h1c.554 0 1 .446 1 1v2.293L10.707 6H10zM3 5.121V14h8.879l-1-1H10v-.879l-1-1V13H7v-2h1.879l-1-1H5.707l-1-1H4V8h.707l.586-.586-.707-.707L4 7.293V6.121zm1 4.586L5.293 11H6v2H5c-.554 0-1-.446-1-1z" color="#d3dae3"/><path fill="currentColor" d="m2.5 1.793-.707.707L13.5 14.207l.707-.707z" color="#da4453"/></svg>