<svg xmlns="http://www.w3.org/2000/svg" xmlns:xlink="http://www.w3.org/1999/xlink" viewBox="0 0 48 48"><defs><linearGradient id="b" x1="50%" x2="50%" y1=".858%" y2="100%"><stop offset="0%" stop-color="#65deff"/><stop offset="100%" stop-color="#0058d2"/></linearGradient><linearGradient id="c" x1="50%" x2="50%" y1="0%" y2="100%"><stop offset="0%" stop-opacity=".05"/><stop offset="100%" stop-opacity=".1"/></linearGradient><filter id="a" width="115.9%" height="115.9%" x="-8%" y="-5.7%" filterUnits="objectBoundingBox"><feOffset dy="1" in="SourceAlpha" result="shadowOffsetOuter1"/><feGaussianBlur in="shadowOffsetOuter1" result="shadowBlurOuter1" stdDeviation="1"/><feColorMatrix in="shadowBlurOuter1" result="shadowMatrixOuter1" values="0 0 0 0 0 0 0 0 0 0 0 0 0 0 0 0 0 0 0.2 0"/><feMerge><feMergeNode in="shadowMatrixOuter1"/><feMergeNode in="SourceGraphic"/></feMerge></filter></defs><g fill="none" fill-rule="evenodd" filter="url(#a)" transform="translate(2 2)"><path fill="url(#b)" fill-rule="nonzero" d="M22 0C9.85 0 0 9.85 0 22s9.85 22 22 22 22-9.85 22-22S34.15 0 22 0"/><path fill="url(#c)" fill-rule="nonzero" d="M22 0c12.15 0 22 9.85 22 22s-9.85 22-22 22S0 34.15 0 22 9.85 0 22 0m0 1C10.402 1 1 10.402 1 22s9.402 21 21 21 21-9.402 21-21S33.598 1 22 1"/><path stroke="#fff" stroke-linecap="round" stroke-linejoin="round" stroke-width="2" d="M35.733 16.848C33.658 11.102 28.21 7 21.815 7 15.042 7 9.33 11.602 7.564 17.887A15.2 15.2 0 0 0 7 22m1 5.648A15.06 15.06 0 0 0 21.948 37c6.328 0 11.743-3.89 13.97-9.403A14.9 14.9 0 0 0 37 22"/><path fill="#fff" d="M7 23.114a1.765 1.765 0 1 0 0-3.53 1.765 1.765 0 0 0 0 3.53"/><path fill="#fff" fill-rule="nonzero" d="M37 24.553a1.765 1.765 0 1 0 0-3.53 1.765 1.765 0 0 0 0 3.53"/><path fill="#fff" fill-rule="nonzero" d="m13.655 25.49 7.535-3.823a1.79 1.79 0 0 1 1.62 0l7.535 3.823a.716.716 0 0 1 0 1.277l-7.535 3.822a1.79 1.79 0 0 1-1.62 0l-7.535-3.822a.716.716 0 0 1 0-1.277" opacity=".395"/><path fill="#fff" fill-rule="nonzero" d="m13.655 21.362 7.535-3.823a1.79 1.79 0 0 1 1.62 0l7.535 3.823a.716.716 0 0 1 0 1.276l-7.535 3.823a1.79 1.79 0 0 1-1.62 0l-7.535-3.823a.716.716 0 0 1 0-1.276" opacity=".701"/><path fill="#fff" d="m13.655 17.233 7.535-3.822a1.79 1.79 0 0 1 1.62 0l7.535 3.822a.716.716 0 0 1 0 1.277l-7.535 3.823a1.79 1.79 0 0 1-1.62 0l-7.535-3.823a.716.716 0 0 1 0-1.277"/></g></svg>