<svg xmlns="http://www.w3.org/2000/svg" xmlns:xlink="http://www.w3.org/1999/xlink" viewBox="0 0 32 32"><defs><mask id="a"><path fill="#fff" d="M0 0h32v32H0z"/><path d="m23.03 14.213-.827.827-.891-.938 1.93-1.883h1.35v4.769H23.03Z"/></mask></defs><g fill="#f8a900" data-iconColor="Avif" mask="url('#a')"><path d="M29.913 20.149 23.481 9.03l-6.414 11.119Z"/><path d="m29.913 20.149-2.408-2.775h-8.022l-2.416 2.775Z"/><path d="m23.481 24.33 4.024-6.956h-8.022ZM8.309 19.138H5.258l-.3 1.02H2.345l2.923-7.939H8.3l2.922 7.939h-2.6Zm-2.435-2h1.82l-.91-2.794Zm3.768-4.916h2.729l1.709 5.339 1.709-5.339h2.729L15.6 20.158h-3.036l-2.922-7.939m13.388 1.994-.827.827-.891-.938 1.93-1.883h1.35v4.769H23.03Z"/></g></svg>