<svg xmlns="http://www.w3.org/2000/svg" viewBox="0 0 64 64"><path d="M4 56v2c0 1.662 1.338 3 3 3h50c1.662 0 3-1.338 3-3v-2c0 1.662-1.338 3-3 3H7c-1.662 0-3-1.338-3-3" opacity=".2"/><rect width="56" height="56" x="4" y="4" fill="#b0aca9" rx="3" ry="3"/><path fill="#fff" d="M7 4C5.338 4 4 5.338 4 7v1c0-1.662 1.338-3 3-3h50c1.662 0 3 1.338 3 3V7c0-1.662-1.338-3-3-3z" opacity=".2"/><path d="M12.2 11c-1.22 0-2.2.981-2.2 2.2v39.6c0 1.22.98 2.2 2.2 2.2h39.6c1.22 0 2.2-.98 2.2-2.2V13.2c0-1.22-.98-2.2-2.2-2.2z" opacity=".1"/><path fill="#1554d4" d="M12.2 10c-1.22 0-2.2.98-2.2 2.2v39.6c0 1.22.98 2.2 2.2 2.2h39.6c1.22 0 2.2-.98 2.2-2.2V12.2c0-1.22-.98-2.2-2.2-2.2z"/><path fill="#1e298c" d="M32 19v6.879L41.273 43H44s7 0 7-7c0-6-4-6-4-6s2-1 2-5c0-6-5-6-5-6zm0 15.275V41h3.643z"/><path fill="#1e298c" d="M26 19 13 43h9l4-7 4 7h9z"/></svg>