<svg xmlns="http://www.w3.org/2000/svg" viewBox="0 0 16 16"><path fill="#ff7043" d="M6.077 2a12 12 0 0 1-1.359.9l.006.092a.4.4 0 0 0 .134-.055.073.073 0 0 1 .093.079l.093-.055.047-.006L5.1 3a5.3 5.3 0 0 1-.951.776l.051.084-.047.006-.1-.037c0 .031-.041.049-.134.055l.006.049.1.122a.4.4 0 0 1-.14-.031.91.91 0 0 0-.607.471l.058.086a1.3 1.3 0 0 1 .3-.251l.015.135a.4.4 0 0 0-.134.055l.11.171a3.3 3.3 0 0 1 .694-.6.21.21 0 0 1 .192.122l.094-.013a7.3 7.3 0 0 1 2.03-1.149l.006.094a.7.7 0 0 1-.257.3.4.4 0 0 0 .064.177 17 17 0 0 1-.91 2.414A70 70 0 0 1 2 13.711a.4.4 0 0 0 .052.134 1.2 1.2 0 0 0 .448-.177l.052-.006.008.091.087-.006.093-.055c0 .03.035.043.093.037l.007.092a.85.85 0 0 1-.152.422 2.3 2.3 0 0 0-.309.715l.006.042.087-.006a6 6 0 0 0 .869-1.314 13.6 13.6 0 0 0 2.549-1.008 2.33 2.33 0 0 0 1.347-.483l-.005-.049-.222.067-.052.006-.006-.049a1.96 1.96 0 0 0 .9-.306c.848-.683 1.479-1.166 1.911-1.458 1.336-1.027 1.966-2.017 1.89-2.958a5.5 5.5 0 0 0-.881-1.155 1.02 1.02 0 0 1 .6-.556l1.161-1.069A3.27 3.27 0 0 0 13 2.98l-.017-.18a1.68 1.68 0 0 0-1.131-1.32A4.2 4.2 0 0 0 9.594 1a13.3 13.3 0 0 0-3.517 1m6.252.079-.035.092L11 1.6q1.295.055 1.33.477ZM7.092 5.846a1.5 1.5 0 0 1 .3-.856l.965-2.279q-.018-.213.619-.324l.14-.012.011.125c.42-.064.673-.1.773-.113.77-.067 1.166.092 1.2.489l.088-.006-.018-.232.093-.006a.6.6 0 0 1 .362.477.73.73 0 0 1-.2.477q-.088.009-.1-.128l-.093.006-.023.275a2.05 2.05 0 0 1-.846.941 1.1 1.1 0 0 1-.3.348 5.4 5.4 0 0 1-1 .782 12.7 12.7 0 0 0-2.012.819.3.3 0 0 0-.181-.029l-.006-.088a1.17 1.17 0 0 1 .227-.666Zm5.36-2.811.006.085a.84.84 0 0 1-.258-.433l-.011-.087a.51.51 0 0 1 .263.434ZM3.936 4.123l.006.042a.4.4 0 0 0-.134.055l-.047.006-.005-.085Zm2.817-.073.012.134a.36.36 0 0 0-.169.2l-.006-.096a.46.46 0 0 0 .122-.238zM6.322 5l.017.186-.047.006-.017-.183Zm-.111.33c-.011.155-.047.235-.122.241l-.047.006a.5.5 0 0 0 .076-.232Zm-.192.477.005.045L5.943 6h-.088l-.006-.038a.12.12 0 0 0 .122-.147Zm-.2.428-.019.228-.05.006-.017-.226Zm4.731.165.193.122a.085.085 0 0 1-.082.1.4.4 0 0 0-.192-.079l-.012-.134Zm-3.7.519.003.088-.181.018-.006-.085Zm2.983.32a.31.31 0 0 1 .2.171l.006.043a.38.38 0 0 1-.338-.2Zm-3.849.99a10 10 0 0 0 2.479-.77l.274-.024a1.54 1.54 0 0 1 1.277.342l.017.183a1.83 1.83 0 0 1-.694 1.118l-1.166.972a11 11 0 0 1-1.406.9 10.2 10.2 0 0 1-2.578 1.25h-.052c.047-.171.659-1.491 1.849-3.972Zm1.26-.519.005.043-.187.018-.005-.043Zm4.188-.2.028.365a.19.19 0 0 1-.128.147l-.052-.636a.22.22 0 0 1 .152.128Zm-7.1 3.153a.65.65 0 0 1-.187.477l-.004-.04a.53.53 0 0 1 .192-.434ZM5.5 12.391a14.7 14.7 0 0 0 2.788-1.528l.006.086a1.3 1.3 0 0 1-.394.351 7 7 0 0 0-1.365.813 3.5 3.5 0 0 0-1.248.568 14 14 0 0 0-1.47.678.5.5 0 0 1-.236-.059.41.41 0 0 1 .2-.391.7.7 0 0 1 .373.061 3.5 3.5 0 0 1 .723-.245l-.006-.092-.271.02a4 4 0 0 1 .8-.391l.14-.012.006.043a.38.38 0 0 0-.4.226.077.077 0 0 0 .093.079 1.1 1.1 0 0 0 .261-.207m-1.435-1.106.006.043a.085.085 0 0 1-.082.1l-.006-.043a.09.09 0 0 1 .082-.1m2.181.623a2 2 0 0 0-.624.287l-.047.005-.006-.09a.87.87 0 0 0 .572-.275.078.078 0 0 1 .1.073Zm-2.263.66.14-.012.006.044a.4.4 0 0 0-.134.055l-.087.006a.09.09 0 0 1 .076-.1Zm-.927.544.1.043c-.035.275-.111.416-.245.428a.6.6 0 0 0-.286-.061l-.012-.135a.094.094 0 0 1 .087-.1q.088-.009.1.128a2 2 0 0 1 .257-.3Z" data-iconColor="Babel Config"/></svg>