<svg xmlns="http://www.w3.org/2000/svg" viewBox="0 0 64 64"><circle cx="32" cy="33" r="28" opacity=".2"/><path fill="#fff55d" d="M60 32c0 15.464-12.536 28-28 28-7.952 0-15.13-3.315-20.227-8.639-4.815-5.028-4.045-10.029-4.045-17.54 0-15.465 8.635-25.487 24.099-25.487S60 16.536 60 32"/><path d="M32 5C16.536 5 4 17.538 4 33a28 28 0 0 0 8.215 19.786L32 33.001h28C60 17.537 47.464 5 32 5" opacity=".1"/><path fill="#4098fe" d="M60 32H32V4c15.464 0 28 12.536 28 28"/><path fill="#24db65" d="M32 4C16.536 4 4 16.536 4 32a28 28 0 0 0 8.214 19.786L32 32Z"/><path fill="#25a068" d="M32 27.8 12.214 47.586a28 28 0 0 1-8.113-17.809A28 28 0 0 0 4 32a28 28 0 0 0 8.214 19.786L32 32Z"/><path fill="#2379e0" d="M32 26v6h28c0-2.06-.238-4.066-.66-6z"/><path fill="#fff" d="M32 4A28 28 0 0 0 4 32a28 28 0 0 0 .018.492A28 28 0 0 1 32 5a28 28 0 0 1 27.975 27.492A28 28 0 0 0 60 32 28 28 0 0 0 32 4" opacity=".2"/></svg>