<svg xmlns="http://www.w3.org/2000/svg" xmlns:xlink="http://www.w3.org/1999/xlink" viewBox="0 0 96 96"><defs><linearGradient id="b" x1="50%" x2="50%" y1="0%" y2="100%"><stop offset="0%" stop-color="#f24848"/><stop offset="100%" stop-color="#e00000"/></linearGradient><filter id="a" width="140%" height="139.4%" x="-20%" y="-19.7%" filterUnits="objectBoundingBox"><feOffset dy="2" in="SourceAlpha" result="shadowOffsetOuter1"/><feGaussianBlur in="shadowOffsetOuter1" result="shadowBlurOuter1" stdDeviation="2"/><feComposite in="shadowBlurOuter1" in2="SourceAlpha" operator="out" result="shadowBlurOuter1"/><feColorMatrix in="shadowBlurOuter1" result="shadowMatrixOuter1" values="0 0 0 0 0 0 0 0 0 0 0 0 0 0 0 0 0 0 0.2 0"/><feMerge><feMergeNode in="shadowMatrixOuter1"/><feMergeNode in="SourceGraphic"/></feMerge></filter></defs><g fill="none" filter="url(#a)" transform="translate(16 15)"><path fill="#fff" stroke="#000" d="M61.895 59.839v4.89c0 .473-.158.81-.418 1.042-.24.214-.593.349-1.083.349H35.927c-.49 0-.849-.093-1.092-.239-.344-.206-.52-.514-.52-.929V59.95c0-.561.223-.972.64-1.25.339-.226.843-.362 1.528-.362q2.385.001 3.739-.268c.333-.067.593-.183.762-.379.161-.186.226-.439.226-.744 0-1.302-1.759-4.51-5.151-9.633l-3.278-5.58-3.448 5.584c-3.39 5.122-5.148 8.327-5.148 9.63 0 .304.065.557.226.743.169.196.43.312.762.379q1.355.269 3.74.268c.684 0 1.188.136 1.528.362.416.278.64.689.64 1.25v5.002c0 .415-.177.723-.521.93-.243.145-.602.238-1.092.238H5.001c-.49 0-.842-.135-1.083-.35-.26-.23-.418-.568-.418-1.04v-4.891c0-.448.176-.773.491-.993.25-.175.617-.286 1.121-.286 1.812 0 4.333-.606 5.661-1.864 1.392-1.32 3.401-4.07 6.034-8.239q5.845-9.598 10.14-16.66L16.595 14.175q-2.634-3.623-3.516-4.615c-1.534-1.744-4.15-2.611-5.963-2.611-.585 0-1.012-.134-1.3-.35-.342-.256-.535-.631-.535-1.151V.779c0-.449.176-.773.492-.994.249-.174.616-.285 1.12-.285h23.691c.39 0 .665.123.854.313.19.19.314.465.314.854v4.78c0 .523-.204.903-.577 1.162-.304.21-.755.339-1.37.339-1.625 0-1.814.048-2.186.168a7 7 0 0 1-.535.152c-.335.08-.596.216-.765.433-.17.218-.241.509-.241.86 0 .698.52 1.911 1.492 3.648q.331.588 5.504 9.507 5.42-8.92 5.75-9.507c.973-1.737 1.494-2.95 1.494-3.648 0-.351-.071-.642-.242-.86s-.43-.353-.765-.433a7 7 0 0 1-.535-.152c-.372-.12-.56-.168-2.187-.168-.614 0-1.065-.129-1.369-.34-.373-.258-.577-.638-.577-1.161V.667c0-.389.124-.664.314-.854s.465-.313.854-.313H59.5c.505 0 .872.11 1.121.285.316.22.492.545.492.994v4.668c0 .52-.193.895-.534 1.15-.29.217-.716.35-1.301.35-1.812 0-4.429.868-5.965 2.613q-.88.99-3.517 4.618L38.919 31.796l9.675 16.67c2.632 4.166 4.638 6.913 6.028 8.23 1.328 1.258 3.849 1.864 5.66 1.864.505 0 .873.111 1.122.286.315.22.491.545.491.993Z"/><path fill="url(#b)" stroke="#fff" d="M-.5 45.12v-25h10.513c1.846 0 3.253.647 4.238 1.911.958 1.229 1.446 2.748 1.446 4.564 0 1.524-.349 2.828-1.033 3.917q-.457.728-1.185 1.262a5.03 5.03 0 0 1 2.074 1.961c.625 1.077.947 2.427.947 4.058q-.002 1.974-.665 3.55c-.453 1.077-1.076 1.927-1.86 2.553-.499.4-1.246.706-2.255.888q-1.874.337-2.486.336zm6-20v4h2.052c.71 0 1.238-.125 1.524-.474.298-.364.424-.898.424-1.58 0-.626-.128-1.125-.422-1.48-.285-.343-.8-.466-1.487-.466zm0 10v4h2.101c.673 0 1.18-.138 1.463-.505.302-.39.436-.918.436-1.571 0-.596-.131-1.082-.425-1.446-.282-.351-.797-.478-1.485-.478zm15.416 10h-6.571l6.833-25h6.644l6.833 25h-6.701l-.857-3.962h-5.335zm2.707-10h2.753l-1.38-6.196zm10.539-8.426q0-1.977.836-3.735a6.45 6.45 0 0 1 2.564-2.82c1.118-.67 2.646-1.02 4.594-1.02 2.414 0 4.24.639 5.504 1.865 1.328 1.29 2.116 3.379 2.299 6.3l-6.12.492c-.1-1.2-.34-2.074-.788-2.581-.347-.393-.83-.574-1.436-.574-.457 0-.818.11-1.055.381-.242.279-.358.619-.358 1.016 0 .265.095.502.276.713.23.285.776.504 1.591.737 2.452.724 4.204 1.464 5.264 2.205q1.665 1.165 2.42 2.888.745 1.69.747 3.78 0 2.444-.987 4.503-1.008 2.104-2.816 3.19c-1.191.717-2.69 1.086-4.505 1.086-3.216 0-5.405-.895-6.635-2.58-1.282-1.757-1.982-4.017-2.08-6.788l6.166-.53c.086 1.31.296 2.29.661 2.932.234.407.515.718.85.922.325.199.7.294 1.123.294.606 0 1.084-.178 1.416-.572q.514-.611.514-1.418 0-.765-.49-1.367c-.365-.45-1.231-.842-2.55-1.239-2.508-.773-4.283-1.815-5.348-3.091-1.097-1.305-1.657-2.965-1.657-4.989ZM50.5 20.12h14.75v6.124h-8.608v2.814h7.986v5.895h-7.986v3.731H65.5v6.436h-15z"/></g></svg>