<svg xmlns="http://www.w3.org/2000/svg" xmlns:xlink="http://www.w3.org/1999/xlink" viewBox="0 0 96 96"><defs><linearGradient id="b" x1="50%" x2="50%" y1=".707%" y2="100%"><stop offset="0%" stop-color="#c1c4d8"/><stop offset="100%" stop-color="#595c6d"/></linearGradient><linearGradient id="c" x1="3.231%" x2="100%" y1="3.534%" y2="100%"><stop offset="0%" stop-color="#d8d8d8"/><stop offset="100%"/></linearGradient><linearGradient id="d" x1="50%" x2="50%" y1="0%" y2="100%"><stop offset="0%" stop-color="#68ed63"/><stop offset="100%" stop-color="#37d734"/></linearGradient><filter id="a" width="130.8%" height="130.8%" x="-15.4%" y="-15.4%" filterUnits="objectBoundingBox"><feOffset dy="2" in="SourceAlpha" result="shadowOffsetOuter1"/><feGaussianBlur in="shadowOffsetOuter1" result="shadowBlurOuter1" stdDeviation="2"/><feColorMatrix in="shadowBlurOuter1" result="shadowMatrixOuter1" values="0 0 0 0 0 0 0 0 0 0 0 0 0 0 0 0 0 0 0.2 0"/><feMerge><feMergeNode in="shadowMatrixOuter1"/><feMergeNode in="SourceGraphic"/></feMerge></filter></defs><g fill="none" fill-rule="evenodd" filter="url(#a)" transform="translate(10 9)"><path fill="url(#b)" d="M18 0h42c9.941 0 18 8.059 18 18v42c0 9.941-8.059 18-18 18H18C8.059 78 0 69.941 0 60V18C0 8.059 8.059 0 18 0"/><path fill="url(#c)" fill-rule="nonzero" d="M60 0c9.941 0 18 8.059 18 18v42c0 9.941-8.059 18-18 18H18C8.059 78 0 69.941 0 60V18C0 8.059 8.059 0 18 0zm0 1H18C8.72 1 1.175 8.437 1.003 17.677L1 18v42c0 9.28 7.437 16.825 16.677 16.997L18 77h42c9.28 0 16.825-7.437 16.997-16.677L77 60V18c0-9.28-7.437-16.825-16.677-16.997z"/><path stroke="#000" stroke-linejoin="round" stroke-opacity=".711" d="M7.5 13.5h27v54h-27z"/><path fill="url(#d)" d="M8 20h26v47H8z"/><path fill="#f6bc1a" stroke="#000" stroke-linejoin="round" stroke-opacity=".775" d="M52.5 19.5v13h-12v-13z"/><path stroke="#000" stroke-linejoin="round" stroke-opacity=".686" d="M49.5 16.5v3h-6v-3z"/><path fill="#bc0000" d="M47 22v2h2v1h-2.001L47 27h-1l-.001-2H44v-1h2v-2z"/><path fill="#000" fill-opacity=".805" d="M44 29h5v1h-5z"/><path stroke="#000" stroke-linejoin="round" stroke-opacity=".711" d="M25.5 8.5v5h-9v-5z"/><path fill="#0900ea" fill-rule="nonzero" d="m43.554 58.59.971-.954h-3.673l.92.955zm-2.615 2.055.61-.6.034-1.281-.92-.946-.063 2.464zm3.318 0 .37-.363.063-2.464-.971.946-.033 1.281zm-.661.646.49-.473-.464-.473h-2.019l-.48.473.454.473zm.93 2.527.064-2.463-.339-.355-.61.59-.034 1.283zm-.18.182-.92-.945h-1.78l-.972.945zm4.355-5.41.97-.954H46l.92.955zm-2.615 2.055.61-.6.033-1.281-.92-.946-.063 2.464zm2.656.646.49-.473-.464-.473H46.75l-.481.473.455.473zm-3.096 2.527.971-.945.034-1.282-.572-.591-.37.355zm4.027 0 .064-2.463-.34-.355-.61.59-.033 1.283zm-.18.182-.92-.945h-1.781L45.82 64zm4.672-3.573.493-.118 1.913-3.164-1.298.346-1.301 2.136zm-1.601-1.863.5-.473-.466-.482h-.5l-.49.482.456.473zm-1.19 1.39.482-.445.028-.764-.465-.481-.48.481-.028.764zm1.808 0 .483-.445.028-.764-.465-.481-.48.481-.028.764zm-.678.682.5-.481-.465-.473h-.5l-.49.473.455.481zm-.457 3.964 2.047-3.373-.111-.49-.823.227-1.416 2.345zm3.597-2.682.49-.473-.465-.481h-.49l-.49.481.464.473zm-1.194 1.346.492-.446.021-.727-.464-.473-.49.473-.021.727zm1.81 0 .482-.446.021-.727-.455-.473-.49.473-.021.727zm-.67.672.481-.472-.455-.473h-.49l-.5.473.473.472z"/></g></svg>