<svg xmlns="http://www.w3.org/2000/svg" viewBox="0 0 64 64"><path d="M30 5c28 0 29 26 29 26s0 16-6.263 21.6C43.702 60.678 37 61 28 61 16 61 7 51 7 44V22l-3 3 3-8H4l6-3H7l6-3h-3s8-6 20-6" opacity=".2"/><path fill="#4f4f4f" d="M30 4c28 0 29 26 29 26s0 16-6.263 21.6C43.702 59.678 37 60 28 60 16 60 7 50 7 43V21l-3 3 3-8H4l6-3H7l6-3h-3s8-6 20-6"/><path d="M33 30c6 0 8 6 8 6H21s6-6 12-6m-23 3c4 0 8 3 8 3H7s0-3 3-3" opacity=".2"/><path fill="#fff" d="M33 29c6 0 8 6 8 6H21s6-6 12-6m-23 3c4 0 8 3 8 3H7s0-3 3-3"/><path fill="#fff" d="M30 4c28 0 29 26 29 26s-.003.31-.018.809C58.93 29.742 57.4 5 30 5c-8.903 0-15.585 3.295-18.451 5H10s8-6 20-6m-17 7-4 2H7l4-2zm-3 3-4 2H4l4-2zm-3 3-2.4 6.4-.6.6 2.625-7z" opacity=".1"/><circle cx="47" cy="48" r="15" opacity=".2"/><circle cx="47" cy="47" r="15" fill="#bc6740"/><path fill="#fff" fill-rule="evenodd" d="M47 40s-.945-.02-1.93.498c-.948.498-1.98 1.744-2.056 3.502h2.677c.13-1.185 1.309-1.2 1.309-1.2s1.334 0 1.334 1.4c0 .738-.187 1.152-.543 1.618s-.923.936-1.59 1.461c-.666.525-1.432 1.106-2.076 1.951A5.56 5.56 0 0 0 43 52.6V54h8v-3h-4.865c.041-.062.026.043.074-.02.356-.466.923-.934 1.59-1.459.666-.525 1.432-1.107 2.076-1.953A5.56 5.56 0 0 0 51 44.2c0-1.866-1.086-3.184-2.07-3.701C47.945 39.981 47 40 47 40"/></svg>