<svg xmlns="http://www.w3.org/2000/svg" xmlns:xlink="http://www.w3.org/1999/xlink" viewBox="0 0 96 96"><defs><filter id="a" width="136.4%" height="130%" x="-18.2%" y="-15%" filterUnits="objectBoundingBox"><feOffset dy="2" in="SourceAlpha" result="shadowOffsetOuter1"/><feGaussianBlur in="shadowOffsetOuter1" result="shadowBlurOuter1" stdDeviation="2"/><feColorMatrix in="shadowBlurOuter1" result="shadowMatrixOuter1" values="0 0 0 0 0 0 0 0 0 0 0 0 0 0 0 0 0 0 0.2 0"/><feMerge><feMergeNode in="shadowMatrixOuter1"/><feMergeNode in="SourceGraphic"/></feMerge></filter></defs><g fill="none" filter="url(#a)" transform="translate(15 8)"><path fill="#5c9f1a" d="M26.063 23.64s-1-30.573 5-21l5 10s2 7 2-7c0-3.3 1.062-4.64 4-3.64S44 8 44 8s0-1-1.937 13.64c-1.938 14.638-16 2-16 2"/><circle cx="17" cy="27" r="13" fill="#a90202"/><circle cx="49" cy="29" r="13" fill="#a90202"/><circle cx="33" cy="67" r="13" fill="#a90202"/><circle cx="18" cy="56" r="14" fill="#800201"/><circle cx="13" cy="39" r="13" fill="#550101"/><circle cx="48" cy="56" r="14" fill="#800201"/><circle cx="53" cy="39" r="13" fill="#550101"/><circle cx="33" cy="31" r="15" fill="#800201"/><circle cx="33" cy="49" r="15" fill="#a90202"/></g></svg>