<svg xmlns="http://www.w3.org/2000/svg" viewBox="0 0 64 64"><path fill="#4d4d4d" d="M19 15h26v14H19z"/><path fill="#25257e" d="M20 27h24v29H20z"/><path fill="#3455b3" d="M17 16h4v40h-4z"/><rect width="6" height="9" x="29" y="4" fill="#f6e036" ry="3"/><path fill="#3455b3" d="M43 16h4v40h-4zm-25-2v-3s2 0 2-2h24c0 2 2 2 2 2v3z"/><path d="M16.4 13c-.775 0-1.4.625-1.4 1.4v3.2c0 .775.625 1.4 1.4 1.4h31.2c.775 0 1.4-.625 1.4-1.4v-3.2c0-.775-.625-1.4-1.4-1.4zm0 42c-.775 0-1.4.625-1.4 1.4v3.2c0 .775.625 1.4 1.4 1.4h31.2c.775 0 1.4-.625 1.4-1.4v-3.2c0-.775-.625-1.4-1.4-1.4z" opacity=".2"/><rect width="34" height="6" x="15" y="12" fill="#01a7f1" ry="1.4"/><rect width="34" height="6" x="15" y="54" fill="#01a7f1" ry="1.4"/><path d="M22 20v3h3v-3zm4 0v3h3v-3zm4 0v3h4v-3zm5 0v3h3v-3zm4 0v3h3v-3zm-17 4v3h3v-3zm4 0v3h3v-3zm4 0v3h4v-3zm5 0v3h3v-3zm4 0v3h3v-3zm-12.6 8c-.775 0-1.4.625-1.4 1.4v2.2c0 .775.625 1.4 1.4 1.4h2.2c.775 0 1.4-.625 1.4-1.4v-2.2c0-.775-.625-1.4-1.4-1.4zm9 0c-.775 0-1.4.625-1.4 1.4v2.2c0 .775.625 1.4 1.4 1.4h2.2c.775 0 1.4-.625 1.4-1.4v-2.2c0-.775-.625-1.4-1.4-1.4zm-9 7c-.775 0-1.4.625-1.4 1.4v2.2c0 .775.625 1.4 1.4 1.4h2.2c.775 0 1.4-.625 1.4-1.4v-2.2c0-.775-.625-1.4-1.4-1.4zm9 0c-.775 0-1.4.625-1.4 1.4v2.2c0 .775.625 1.4 1.4 1.4h2.2c.775 0 1.4-.625 1.4-1.4v-2.2c0-.775-.625-1.4-1.4-1.4zm-9 7c-.775 0-1.4.625-1.4 1.4v2.2c0 .775.625 1.4 1.4 1.4h2.2c.775 0 1.4-.625 1.4-1.4v-2.2c0-.775-.625-1.4-1.4-1.4zm9 0c-.775 0-1.4.625-1.4 1.4v2.2c0 .775.625 1.4 1.4 1.4h2.2c.775 0 1.4-.625 1.4-1.4v-2.2c0-.775-.625-1.4-1.4-1.4z" opacity=".2"/><rect width="5" height="5" x="25" y="31" fill="#fff" ry="1.4"/><path fill="#f6e036" d="M22 19v3h3v-3zm4 0v3h3v-3zm4 0v3h4v-3zm5 0v3h3v-3zm4 0v3h3v-3zm-17 4v3h3v-3zm4 0v3h3v-3zm4 0v3h4v-3zm5 0v3h3v-3zm4 0v3h3v-3z"/><rect width="5" height="5" x="34" y="31" fill="#01a7f1" ry="1.4"/><rect width="5" height="5" x="25" y="38" fill="#01a7f1" ry="1.4"/><rect width="5" height="5" x="34" y="38" fill="#01a7f1" ry="1.4"/><rect width="5" height="5" x="25" y="45" fill="#01a7f1" ry="1.4"/><rect width="5" height="5" x="34" y="45" fill="#01a7f1" ry="1.4"/><path fill="#fff" d="M16.4 12c-.775 0-1.4.625-1.4 1.4v1c0-.775.625-1.4 1.4-1.4h31.2c.775 0 1.4.625 1.4 1.4v-1c0-.775-.625-1.4-1.4-1.4zm0 42c-.775 0-1.4.625-1.4 1.4v1c0-.775.625-1.4 1.4-1.4h31.2c.775 0 1.4.625 1.4 1.4v-1c0-.775-.625-1.4-1.4-1.4zM32 4c-1.662 0-3 1.338-3 3v1c0-1.662 1.338-3 3-3s3 1.338 3 3V7c0-1.662-1.338-3-3-3" opacity=".2"/><path fill="#fff" d="M20 9c0 2-2 2-2 2v1s2 0 2-2h24c0 2 2 2 2 2v-1s-2 0-2-2z" opacity=".1"/></svg>