<svg xmlns="http://www.w3.org/2000/svg" viewBox="0 0 64 64"><rect width="58" height="58" x="3" y="4" opacity=".2" rx="17.4" ry="17.4"/><rect width="58" height="58" x="3" y="3" fill="#5d5d5d" rx="17.4" ry="17.4"/><path fill="#fff" d="M20.398 3A17.36 17.36 0 0 0 3 20.398v1A17.36 17.36 0 0 1 20.398 4h23.204A17.36 17.36 0 0 1 61 21.398v-1A17.36 17.36 0 0 0 43.602 3z" opacity=".1"/><path d="m21.015 33-4.484 4.492L12 33l4.527-4.531ZM31.98 22.023l7.727 7.735 4.527-4.531L31.98 13 19.727 25.266l4.527 4.53zm15.454 6.446L42.946 33l4.527 4.531L52 33ZM31.98 43.977l-7.726-7.774-4.527 4.531L31.98 53l12.254-12.266-4.527-4.53Zm0-6.485 4.527-4.531-4.527-4.492L27.454 33Z" opacity=".2"/><path fill="#ffc71a" d="m21.015 32-4.484 4.492L12 32l4.527-4.531ZM31.98 21.023l7.727 7.735 4.527-4.531L31.98 12 19.727 24.266l4.527 4.53zm15.454 6.446L42.946 32l4.527 4.531L52 32ZM31.98 42.977l-7.726-7.774-4.527 4.531L31.98 52l12.254-12.266-4.527-4.53Zm0-6.485 4.527-4.531-4.527-4.492L27.454 32Z"/></svg>