<svg xmlns="http://www.w3.org/2000/svg" viewBox="0 0 64 64"><circle cx="32" cy="33" r="28" opacity=".2"/><circle cx="32" cy="32" r="28" fill="#46a9d7"/><circle cx="22" cy="21" r="4" opacity=".1"/><path fill="#fff" d="M32 4A28 28 0 0 0 4 32a28 28 0 0 0 .021.586A28 28 0 0 1 32 5a28 28 0 0 1 27.979 27.414L60 32A28 28 0 0 0 32 4" opacity=".2"/><path d="M37.012 20.848 30.74 32.344l-3.781-7.117L16 46h35Zm-.024 6.304L45.492 43H36.4l-3.974-7.482zm-9.947 4.62L33.006 43h-11.58Z" opacity=".1"/><circle cx="22" cy="20" r="4" fill="#9f3699"/><path fill="#9f3699" d="M37.012 19.848 30.74 31.344l-3.781-7.117L16 45h35Zm-.024 6.304L45.492 42H36.4l-3.974-7.482zm-9.947 4.62L33.006 42h-11.58Z"/></svg>