<svg xmlns="http://www.w3.org/2000/svg" viewBox="0 0 64 64"><g transform="translate(0 -988.362)"><path d="m32 992.362-2.667 3.2-3.333-1.2-1.583 3.042c-6.142 1.264-10.482 4.232-14.078 8.924C4.048 1014.535 4 1028.696 4 1036.696s14.667 10.666 28 10.666 28-2.667 28-10.666-.048-22.16-6.339-30.368c-3.596-4.692-7.936-7.66-14.078-8.924L38 994.362l-3.333 1.2z" opacity=".2"/><path fill="#3a99e7" d="m32 991.362-2.667 3.2-3.333-1.2-1.583 3.042c-6.142 1.264-10.482 4.232-14.078 8.924C4.048 1013.535 4 1027.696 4 1035.696s14.667 10.666 28 10.666 28-2.667 28-10.666-.048-22.16-6.339-30.368c-3.596-4.692-7.936-7.66-14.078-8.924L38 993.362l-3.333 1.2z"/><path fill="#86572f" d="M25.389 1034.539a7.65 7.65 0 0 0 6.611 3.823 7.64 7.64 0 0 0 6.611-3.823H32z"/><path d="M32 1026.362a1.13 1.13 0 0 0-.819.357l-6.805 6.373c-.728.77-.345 3.047.685 3.048l6.939 1.222 6.939-1.222c1.03 0 1.413-2.278.685-3.048l-6.805-6.373a1.13 1.13 0 0 0-.819-.357" opacity=".2"/><path fill="#ffc12e" d="M32 1025.362a1.13 1.13 0 0 0-.819.357l-6.805 6.373c-.728.77-.345 3.047.685 3.048l6.939 1.222 6.939-1.222c1.03 0 1.413-2.278.685-3.048l-6.805-6.373a1.13 1.13 0 0 0-.819-.357"/><ellipse cx="143.801" cy="998.101" opacity=".6" rx="6.109" ry="5.889" transform="matrix(-.97032 .2418 .15783 .98747 0 0)"/><ellipse cx="804.209" cy="529.168" fill="#fff" opacity=".764" rx="1.563" ry="2.357" transform="matrix(.52939 .84838 -.77241 .63512 0 0)"/><ellipse cx="207.232" cy="982.568" opacity=".6" rx="6.109" ry="5.889" transform="rotate(9.08)scale(.99632 1)skewY(4.894)"/><ellipse cx="822.144" cy="505.211" fill="#fff" opacity=".764" rx="1.563" ry="2.357" transform="matrix(.52939 .84838 -.77241 .63512 0 0)"/><path fill="#fff" d="m32 991.362-2.666 3.2-3.334-1.2-1.584 3.041c-6.142 1.264-10.482 4.234-14.078 8.926-6.29 8.207-6.338 22.367-6.338 30.367l.004.066c.01-8.123.268-21.52 6.334-29.433 3.596-4.692 7.936-7.662 14.078-8.926L26 994.362l3.334 1.2 2.666-3.2 2.666 3.2 3.334-1.2 1.584 3.041c6.142 1.264 10.482 4.233 14.078 8.926 6.066 7.914 6.323 21.31 6.334 29.433 0-.022.004-.043.004-.066 0-8-.047-22.16-6.338-30.367-3.596-4.693-7.936-7.662-14.078-8.926L38 993.362l-3.334 1.2z" opacity=".2"/><path fill="#fff" d="M32 1025.362c-.306 0-.601.128-.818.357l-6.805 6.373c-.35.37-.44 1.087-.328 1.733.055-.292.16-.555.328-.733l6.805-6.373c.217-.229.512-.357.818-.357s.601.128.818.357l6.805 6.373c.168.178.273.44.328.733.112-.646.022-1.363-.328-1.733l-6.805-6.373a1.13 1.13 0 0 0-.818-.357" opacity=".2"/></g></svg>