<svg xmlns="http://www.w3.org/2000/svg" viewBox="0 0 64 64"><circle cx="32" cy="33" r="28" opacity=".2"/><circle cx="32" cy="32" r="28" fill="#ffc129"/><path fill="#fff" d="M32 4A28 28 0 0 0 4 32a28 28 0 0 0 .022.586A28 28 0 0 1 32 5a28 28 0 0 1 27.979 27.414L60 32A28 28 0 0 0 32 4" opacity=".2"/><path d="M17 24v3l12 3v-3zm30 0-12 3v3l12-3zm-24 6a6 6 0 0 0-6 6 6 6 0 0 0 6 6 6 6 0 0 0 6-6 6 6 0 0 0-6-6m18 0a6 6 0 0 0-6 6 6 6 0 0 0 6 6 6 6 0 0 0 6-6 6 6 0 0 0-6-6" opacity=".1"/><path fill="#3f3f3f" d="M17 23v3l12 3v-3zm30 0-12 3v3l12-3zm-24 6a6 6 0 0 0-6 6 6 6 0 0 0 6 6 6 6 0 0 0 6-6 6 6 0 0 0-6-6m18 0a6 6 0 0 0-6 6 6 6 0 0 0 6 6 6 6 0 0 0 6-6 6 6 0 0 0-6-6"/><path d="M14.69 11a28 28 0 0 0-8.432 11H9v34h5V22h43.715a28 28 0 0 0-8.444-11z" opacity=".2"/><path fill="#f13c3c" d="M14.69 10a28 28 0 0 0-8.432 11H9v34h5V21h43.715a28 28 0 0 0-8.444-11z"/><path fill="#fff" d="M14.69 10a28 28 0 0 0-8.432 11h.488a28 28 0 0 1 7.943-10h34.582a28 28 0 0 1 7.956 10h.488a28 28 0 0 0-8.444-11z" opacity=".2"/></svg>