<svg xmlns="http://www.w3.org/2000/svg" viewBox="0 0 64 64"><path d="M32 9c-11.08 0-20 8.92-20 20v2c0-11.08 8.92-20 20-20s20 8.92 20 20v-2c0-11.08-8.92-20-20-20M4 47v2c0 7.14 5.084 9.082 8 9.613v-2C9.084 56.081 4 54.14 4 47m56 0c0 7.14-5.084 9.09-8 9.625v2c2.916-.534 8-2.484 8-9.624zM12 61v2h10v-2zm30 0v2h10v-2z" opacity=".2"/><path fill="#4f4f4f" d="M32 2C16.536 2 4 14.536 4 30v18c0 7.14 5.084 9.082 8 9.614V30c0-11.08 8.92-20 20-20s20 8.92 20 20v27.624c2.916-.536 8-2.484 8-9.624V30C60 14.536 47.464 2 32 2"/><path fill="#8e8e8e" d="M12 34v28h10V34zm30 0v28h10V34z"/><path fill="#fff" d="M32 2C16.536 2 4 14.536 4 30v1C4 15.536 16.536 3 32 3s28 12.536 28 28v-1C60 14.536 47.464 2 32 2M12 34v1h10v-1zm30 0v1h10v-1z" opacity=".1"/></svg>