<svg xmlns="http://www.w3.org/2000/svg" viewBox="0 0 64 64"><rect width="56" height="40" x="-60" y="-52" fill="#324090" rx="22" ry="20" transform="rotate(90)scale(-1 1)"/><path fill="#fff" d="M32 4c-11.08 0-20 9.812-20 22v1c0-12.188 8.92-22 20-22s20 9.812 20 22v-1c0-12.188-8.92-22-20-22" opacity=".1"/><path fill="none" stroke="#fff" stroke-linecap="square" stroke-width="2" d="m22 23 18 18-9 8.5v-35l9 8.5-18 16"/><path d="M12 38v1c0 12.188 8.92 22 20 22s20-9.812 20-22v-1c0 12.188-8.92 22-20 22s-20-9.812-20-22" opacity=".2"/></svg>