<svg xmlns="http://www.w3.org/2000/svg" viewBox="0 0 64 64"><path d="M4 48.144v2C4 51.728 5.25 53 6.8 53h50.4c1.55 0 2.8-1.272 2.8-2.856v-2C60 49.728 58.75 51 57.2 51H6.8C5.25 51 4 49.728 4 48.144" opacity=".2"/><rect width="39.999" height="55.999" x="-52" y="-60" fill="#4f4f4f" rx="2.858" ry="2.8" transform="rotate(90)scale(-1 1)"/><path d="M11 19a3 3 0 0 0-3 3 3 3 0 0 0 3 3 3 3 0 0 0 3-3 3 3 0 0 0-3-3m10 0a3 3 0 0 0-3 3 3 3 0 0 0 3 3 3 3 0 0 0 3-3 3 3 0 0 0-3-3m10 0a3 3 0 0 0-3 3 3 3 0 0 0 3 3 3 3 0 0 0 3-3 3 3 0 0 0-3-3m10 0a3 3 0 0 0-3 3 3 3 0 0 0 3 3 3 3 0 0 0 3-3 3 3 0 0 0-3-3m10 0a3 3 0 0 0-3 3 3 3 0 0 0 3 3 3 3 0 0 0 3-3 3 3 0 0 0-3-3M17 31a3 3 0 0 0-3 3 3 3 0 0 0 3 3 3 3 0 0 0 3-3 3 3 0 0 0-3-3m10 0a3 3 0 0 0-3 3 3 3 0 0 0 3 3 3 3 0 0 0 3-3 3 3 0 0 0-3-3m10 0a3 3 0 0 0-3 3 3 3 0 0 0 3 3 3 3 0 0 0 3-3 3 3 0 0 0-3-3m10 0a3 3 0 0 0-3 3 3 3 0 0 0 3 3 3 3 0 0 0 3-3 3 3 0 0 0-3-3M13.334 43c-.739 0-1.334.669-1.334 1.5v3c0 .831.595 1.5 1.334 1.5h37.332c.739 0 1.334-.669 1.334-1.5v-3c0-.831-.595-1.5-1.334-1.5z" opacity=".2"/><rect width="39.999" height="6" x="12" y="42" fill="#e4e4e4" rx="1.334" ry="1.5"/><path fill="#e4e4e4" d="M44 21a3 3 0 0 1-3 3 3 3 0 0 1-3-3 3 3 0 0 1 3-3 3 3 0 0 1 3 3m-30 0a3 3 0 0 1-3 3 3 3 0 0 1-3-3 3 3 0 0 1 3-3 3 3 0 0 1 3 3m10 0a3 3 0 0 1-3 3 3 3 0 0 1-3-3 3 3 0 0 1 3-3 3 3 0 0 1 3 3m10 0a3 3 0 0 1-3 3 3 3 0 0 1-3-3 3 3 0 0 1 3-3 3 3 0 0 1 3 3m20 0a3 3 0 0 1-3 3 3 3 0 0 1-3-3 3 3 0 0 1 3-3 3 3 0 0 1 3 3m-4 12a3 3 0 0 1-3 3 3 3 0 0 1-3-3 3 3 0 0 1 3-3 3 3 0 0 1 3 3m-30 0a3 3 0 0 1-3 3 3 3 0 0 1-3-3 3 3 0 0 1 3-3 3 3 0 0 1 3 3m10 0a3 3 0 0 1-3 3 3 3 0 0 1-3-3 3 3 0 0 1 3-3 3 3 0 0 1 3 3m10 0a3 3 0 0 1-3 3 3 3 0 0 1-3-3 3 3 0 0 1 3-3 3 3 0 0 1 3 3"/><path fill="#fff" d="M6.8 12C5.25 12 4 13.273 4 14.855v1C4 14.273 5.25 13 6.8 13h50.4c1.55 0 2.8 1.273 2.8 2.855v-1C60 13.273 58.75 12 57.2 12z" opacity=".1"/></svg>