<svg xmlns="http://www.w3.org/2000/svg" viewBox="0 0 64 64"><rect width="56" height="44" x="4" y="11" opacity=".2" rx="3" ry="3"/><rect width="56" height="44" x="4" y="10" fill="#4f4f4f" rx="3" ry="3"/><path fill="#fff" d="M7 10c-1.662 0-3 1.338-3 3v38c0 1.662 1.338 3 3 3h7V10z" opacity=".1"/><circle cx="48" cy="47" r="16" opacity=".2"/><circle cx="48" cy="46" r="16" fill="#1ea362"/><path fill="#fff" d="M7 10c-1.662 0-3 1.338-3 3v1c0-1.662 1.338-3 3-3h50c1.662 0 3 1.338 3 3v-1c0-1.662-1.338-3-3-3z" opacity=".1"/><path fill="#fff" d="M40 50.436V54h3.564l9.001-9.001-3.564-3.564Zm15.717-8.578a.945.945 0 0 0 0-1.348l-2.227-2.227a.945.945 0 0 0-1.348 0l-1.862 1.873 3.564 3.564Z"/></svg>