<svg xmlns="http://www.w3.org/2000/svg" xmlns:xlink="http://www.w3.org/1999/xlink" viewBox="0 0 32 32"><defs><filter id="a" width="1.24" height="1.24" x="-.12" y="-.12" color-interpolation-filters="sRGB"><feGaussianBlur stdDeviation=".9"/></filter></defs><path d="M19 10.59c-1.645 0-3 1.355-3 3s1.355 3 3 3 3-1.355 3-3-1.355-3-3-3m-7.182.685a1 1 0 0 0-.96.758l-2.83 11.315a1 1 0 0 0 1.213 1.213l11.315-2.829a1 1 0 0 0 .754-1.06l-.254-2.8a1 1 0 0 0-1.088-.907 4 4 0 0 1-3.19-1.152 4 4 0 0 1-1.15-3.192 1 1 0 0 0-.906-1.088l-2.805-.254a1 1 0 0 0-.1-.004M19 12.59c.564 0 1 .436 1 1s-.436 1-1 1-1-.436-1-1 .436-1 1-1m-6.408.76 1.176.105c.114 1.403.583 2.76 1.593 3.772h.002c1.012 1.01 2.368 1.483 3.772 1.6L19.242 20l-8.867 2.215ZM5 16.59a1 1 0 0 0-1 1v10a1 1 0 0 0 1 1h10a1 1 0 0 0 1-1v-1a1 1 0 0 0-1-1H7v-8a1 1 0 0 0-1-1z" color="#000" enable-background="accumulate" filter="url(#a)" font-family="sans-serif" font-weight="400" opacity=".35" overflow="visible" paint-order="stroke fill markers" style="line-height:normal;font-variant-ligatures:normal;font-variant-position:normal;font-variant-caps:normal;font-variant-numeric:normal;font-variant-alternates:normal;font-feature-settings:normal;text-indent:0;text-align:start;text-decoration-line:none;text-decoration-style:solid;text-decoration-color:#000;text-transform:none;text-orientation:mixed;white-space:normal;shape-padding:0;isolation:auto;mix-blend-mode:normal;solid-color:#000;solid-opacity:1"/><path fill="#fff" d="M19 10c-1.645 0-3 1.355-3 3s1.355 3 3 3 3-1.355 3-3-1.355-3-3-3m-7.182.686a1 1 0 0 0-.96.757l-2.83 11.315a1 1 0 0 0 1.213 1.213l11.315-2.828a1 1 0 0 0 .754-1.061l-.254-2.8a1 1 0 0 0-1.088-.907 4 4 0 0 1-3.19-1.152 4 4 0 0 1-1.15-3.192 1 1 0 0 0-.906-1.088l-2.805-.254a1 1 0 0 0-.1-.003M19 12c.564 0 1 .436 1 1s-.436 1-1 1-1-.436-1-1 .436-1 1-1m-6.408.76 1.176.105c.114 1.403.583 2.76 1.593 3.772h.002c1.012 1.01 2.368 1.483 3.772 1.6l.107 1.173-8.867 2.215ZM5 16a1 1 0 0 0-1 1v10a1 1 0 0 0 1 1h10a1 1 0 0 0 1-1v-1a1 1 0 0 0-1-1H7v-8a1 1 0 0 0-1-1Z" color="#000" enable-background="accumulate" font-family="sans-serif" font-weight="400" overflow="visible" paint-order="stroke fill markers" style="line-height:normal;font-variant-ligatures:normal;font-variant-position:normal;font-variant-caps:normal;font-variant-numeric:normal;font-variant-alternates:normal;font-feature-settings:normal;text-indent:0;text-align:start;text-decoration-line:none;text-decoration-style:solid;text-decoration-color:#000;text-transform:none;text-orientation:mixed;white-space:normal;shape-padding:0;isolation:auto;mix-blend-mode:normal;solid-color:#000;solid-opacity:1"/><path fill="#282a33" d="M5 17v10h10v-1H6v-9z" paint-order="stroke fill markers"/><path fill="#282a33" d="M11.828 11.686 9 23l11.314-2.828-.254-2.801a5 5 0 0 1-3.989-1.442 5 5 0 0 1-1.439-3.989z" paint-order="stroke fill markers"/><circle cx="19" cy="13" r="2" fill="#5294e2" paint-order="stroke fill markers"/></svg>