<svg xmlns="http://www.w3.org/2000/svg" viewBox="0 -1 16 16"><path fill="#e79627" d="M8.606 10.214a8 8 0 0 1-.224-.535c.333.472 1.376.229 1.321-.195.511.375 1.562-.062 1.323-.588.511.232 1.1-.235.964-.439.872.164 1.708.327 1.97.393a1.03 1.03 0 0 1-1.17.337c.323.429-.3.945-1.179.661.192.422-.586.8-1.471.362.013.421-1.095.47-1.534.004m1.73-2.132c1.012.076 2.686.223 3.722.364-.065-.329-.244-.423-.807-.57-.605.063-2.139.21-2.915.206m4.408-.216c-.721-.675-4.324-1.1-5.461-1.219a3 3 0 0 0 .141-.393 5 5 0 0 1 .5-.179c.021.061.12.293.177.4a2.183 2.183 0 0 0 2.5-2.127 2.63 2.63 0 0 1 .871-1.718 3.23 3.23 0 0 0-3.412 1.775 3.6 3.6 0 0 0-.633-.17A3.05 3.05 0 0 0 6.433 2 5.51 5.51 0 0 0 1 7.63c0 2.975 2.083 5.583 3.26 5.583a1.16 1.16 0 0 0 1.06-.712c.087.231.354.948.442 1.13a.714.714 0 0 0 .991.223.983.983 0 0 0 1.294-.194.96.96 0 0 0 1.237-.694.63.63 0 0 0 .406-.8 8.5 8.5 0 0 0-.813-1.491c.423.336 1.5.431 1.626 0 .683.522 1.746.248 1.83-.177.829.21 1.78-.251 1.624-.81a1.091 1.091 0 0 0 .787-1.822M8.922 4.552a3.78 3.78 0 0 1 2.353 1.024 3.4 3.4 0 0 0-1.108-.219 3.7 3.7 0 0 1-1.591.187 1.32 1.32 0 0 0 1.239.02c0 .052.009.1.017.155a4.8 4.8 0 0 0-1.121.481 1.57 1.57 0 0 1 .211-1.648m-2.506-.658A1.191 1.191 0 1 1 5.2 5.084a1.206 1.206 0 0 1 1.216-1.19m3.92 4.189a32 32 0 0 0-.7-.047c.245.034 1.327.229 2.358.422.131.2-.453.671-.964.439.239.525-.812.962-1.323.588.055.423-.989.667-1.321.195.086.225.238.572.277.677a2.167 2.167 0 0 1-2.205 2.062 4.88 4.88 0 0 1-4.46-2.884A2.6 2.6 0 0 0 4.4 9.483a4 4 0 0 0 1.191.2A3.37 3.37 0 0 0 8.5 7.6a2 2 0 0 0 .387-.41 30 30 0 0 1 4.361.683c-.601.066-2.136.213-2.912.209Zm-4.651-3a.731.731 0 1 0 .731-.713.72.72 0 0 0-.731.714Zm.731-.573a.375.375 0 0 1 .426.258.375.375 0 0 1-.426.258.375.375 0 0 1-.426-.258.375.375 0 0 1 .426-.258" data-iconColor="Bower"/></svg>