<svg xmlns="http://www.w3.org/2000/svg" viewBox="0 0 64 64"><rect width="56" height="56" x="4" y="5" opacity=".2" rx="3" ry="3"/><rect width="56" height="56" x="4" y="4" fill="#29aae2" rx="3" ry="3"/><rect width="44" height="44" x="10" y="11" opacity=".2" rx="3" ry="3"/><rect width="44" height="44" x="10" y="10" fill="#fff" rx="3" ry="3"/><path fill="#424242" d="M14 14v36h16v-8h-8V22h8v-8zm20 0v8h8v20h-8v8h16V14z"/><path fill="#fff" d="M7 4C5.338 4 4 5.338 4 7v1c0-1.662 1.338-3 3-3h50c1.662 0 3 1.338 3 3V7c0-1.662-1.338-3-3-3z" opacity=".2"/></svg>