<svg xmlns="http://www.w3.org/2000/svg" viewBox="0 0 64 64"><circle cx="32" cy="33" r="28" opacity=".2"/><circle cx="32" cy="32" r="28" fill="#fa2235"/><path d="M32 16a17 17 0 0 0-17 17 17 17 0 0 0 17 17 17 17 0 0 0 17-17 17 17 0 0 0-17-17m-.027 3H32a14 14 0 0 1 14 14 14 14 0 0 1-14 14 14 14 0 0 1-14-14 14 14 0 0 1 13.973-14M26 24.5v17l7-4.25L40 33l-7-4.25Z" opacity=".2"/><path fill="#fff" d="m40 32.001-7 4.25-7 4.25v-17l7 4.25z"/><path fill="#fff" d="M32 15a17 17 0 0 0-17 17 17 17 0 0 0 17 17 17 17 0 0 0 17-17 17 17 0 0 0-17-17m-.027 3H32a14 14 0 0 1 14 14 14 14 0 0 1-14 14 14 14 0 0 1-14-14 14 14 0 0 1 13.973-14"/><path fill="#fff" d="M32 4A28 28 0 0 0 4 32a28 28 0 0 0 .006.51A28 28 0 0 1 32 5a28 28 0 0 1 27.994 27.49A28 28 0 0 0 60 32 28 28 0 0 0 32 4" opacity=".2"/></svg>