<svg xmlns="http://www.w3.org/2000/svg" viewBox="0 0 64 64"><path d="M32 4a4.34 4.34 0 0 0-3.077 1.28l-5.307 5.708h-9.13a4.47 4.47 0 0 0-4.478 4.48v9.133l-5.706 5.31c-1.766 1.642-1.705 4.45 0 6.155l5.706 5.31v9.133a4.47 4.47 0 0 0 4.479 4.48h9.13l5.306 5.709c1.642 1.766 4.449 1.706 6.154 0l5.307-5.709h9.129a4.47 4.47 0 0 0 4.479-4.48v-9.133l5.706-5.31c1.766-1.642 1.705-4.45 0-6.155l-5.706-5.31v-9.133a4.47 4.47 0 0 0-4.479-4.48h-9.13l-5.306-5.709C34.256 4.396 33.113 4 32 4" opacity=".2"/><path fill="#546e7a" d="M32 3a4.34 4.34 0 0 0-3.077 1.28l-5.307 5.708h-9.13a4.47 4.47 0 0 0-4.478 4.48v9.133l-5.706 5.31c-1.766 1.642-1.705 4.45 0 6.155l5.706 5.31v9.133a4.47 4.47 0 0 0 4.479 4.48h9.13l5.306 5.709c1.642 1.766 4.449 1.706 6.154 0l5.307-5.709h9.129a4.47 4.47 0 0 0 4.479-4.48v-9.133l5.706-5.31c1.766-1.642 1.705-4.45 0-6.155l-5.706-5.31v-9.133a4.47 4.47 0 0 0-4.479-4.48h-9.13l-5.306-5.709C34.256 3.396 33.113 3 32 3"/><path d="M32 18c-8.499 0-15 6.501-15 15s6.501 15 15 15Z" opacity=".2"/><path fill="#fff" d="M32 17c-8.499 0-15 6.501-15 15s6.501 15 15 15Z"/><path fill="#fff" d="M32 3a4.34 4.34 0 0 0-3.076 1.28l-5.309 5.708h-9.129a4.47 4.47 0 0 0-4.478 4.48v1a4.47 4.47 0 0 1 4.478-4.48h9.13l5.308-5.709A4.34 4.34 0 0 1 32 4c1.113 0 2.255.396 3.076 1.28l5.309 5.708h9.129a4.47 4.47 0 0 1 4.478 4.48v-1a4.47 4.47 0 0 0-4.478-4.48h-9.13L35.077 4.28C34.256 3.396 33.113 3 32 3M10.008 23.602 4.3 28.91c-1.007.937-1.4 2.252-1.252 3.526.11-.935.51-1.835 1.252-2.526l5.707-5.308zm43.984 0v1L59.7 29.91a4.4 4.4 0 0 1 1.252 2.631 4.4 4.4 0 0 0-1.252-3.63z" opacity=".1"/></svg>