<svg xmlns="http://www.w3.org/2000/svg" viewBox="0 0 24 24"><path fill="#fff" d="M12 18.75a.75.75 0 0 1 .75.75V21a.75.75 0 1 1-1.5 0v-1.5a.75.75 0 0 1 .75-.75m5.834-1.977 1.06 1.06a.75.75 0 0 1-1.06 1.061l-1.061-1.06a.75.75 0 1 1 1.06-1.061m-10.607 0a.75.75 0 0 1 0 1.06l-1.06 1.061a.75.75 0 0 1-1.061-1.06l1.06-1.061a.75.75 0 0 1 1.061 0M12 7.5a4.5 4.5 0 1 1 0 9 4.5 4.5 0 0 1 0-9m9 3.75a.75.75 0 1 1 0 1.5h-1.5a.75.75 0 1 1 0-1.5zm-16.5 0a.75.75 0 1 1 0 1.5H3a.75.75 0 1 1 0-1.5zm14.394-6.144a.75.75 0 0 1 0 1.06l-1.06 1.061a.75.75 0 1 1-1.061-1.06l1.06-1.061a.75.75 0 0 1 1.061 0m-12.728 0 1.061 1.06a.75.75 0 1 1-1.06 1.061l-1.061-1.06a.75.75 0 0 1 1.06-1.061M12 2.25a.75.75 0 0 1 .75.75v1.5a.75.75 0 1 1-1.5 0V3a.75.75 0 0 1 .75-.75"/></svg>