<svg xmlns="http://www.w3.org/2000/svg" viewBox="0 0 16 16"><path fill="currentColor" d="M8 0C3.597.001.001 3.597 0 8c.001 4.403 3.597 7.999 8 8 4.403-.001 7.999-3.597 8-8 0-.515-.054-1.01-.143-1.48a1.46 1.46 0 0 0-1.252-1.172c-.554-.067-1.061.234-1.357.695-.289-.598-.923-.983-1.586-.828h-.002a1 1 0 0 1-.166.025.73.73 0 0 1-.734-.734v-.002a1 1 0 0 1 .025-.162c.157-.665-.23-1.299-.828-1.588.463-.297.762-.805.695-1.36A1.46 1.46 0 0 0 9.48.142 8 8 0 0 0 8 0m0 1.014c.445 0 .876.047 1.293.125a.438.438 0 0 1 .098.828.87.87 0 0 0-.518.793c0 .39.263.72.625.83a.44.44 0 0 1 .299.52 1.7 1.7 0 0 0-.05.396 1.755 1.755 0 0 0 1.747 1.748c.13 0 .26-.019.399-.05a.436.436 0 0 1 .517.298.87.87 0 0 0 .83.625.87.87 0 0 0 .795-.518.435.435 0 0 1 .826.098c.078.417.125.848.125 1.293A6.993 6.993 0 0 1 8 14.986 6.993 6.993 0 0 1 1.014 8 6.993 6.993 0 0 1 8 1.014M6.254 3.633a.873.873 0 0 0-.873.873.873.873 0 0 0 .873.875.873.873 0 0 0 .873-.875.873.873 0 0 0-.873-.873m0 .762c.05 0 .113.06.113.11 0 .052-.062.114-.113.114s-.113-.062-.113-.113.062-.111.113-.111M4.506 7.127A.873.873 0 0 0 3.633 8a.873.873 0 0 0 .873.873A.873.873 0 0 0 5.38 8a.873.873 0 0 0-.875-.873m0 .76c.05 0 .113.062.113.113s-.062.113-.113.113-.111-.062-.111-.113.06-.113.11-.113m4.367 2.732a.873.873 0 0 0-.873.875.873.873 0 0 0 .873.873.873.873 0 0 0 .873-.873.873.873 0 0 0-.873-.875m0 .762c.051 0 .113.062.113.113s-.062.111-.113.111c-.05 0-.113-.06-.113-.11 0-.052.062-.114.113-.114" color="#5d656b"/></svg>