<svg xmlns="http://www.w3.org/2000/svg" viewBox="0 0 64 64"><rect width="48" height="48" x="12" y="5" opacity=".2" rx="2.824" ry="2.824"/><rect width="48" height="48" x="8" y="9" opacity=".2" rx="2.824" ry="2.824"/><rect width="48" height="48" x="4" y="13" opacity=".2" rx="2.824" ry="2.824"/><rect width="48" height="48" x="12" y="4" fill="#f43a69" rx="2.824" ry="2.824"/><rect width="48" height="48" x="8" y="8" fill="#c957e7" rx="2.824" ry="2.824"/><rect width="48" height="48" x="4" y="12" fill="#09c7eb" rx="2.824" ry="2.824"/><path fill="#fff" d="M14.824 4A2.82 2.82 0 0 0 12 6.824v1A2.82 2.82 0 0 1 14.824 5h42.352A2.82 2.82 0 0 1 60 7.824v-1A2.82 2.82 0 0 0 57.176 4zm-4 4A2.82 2.82 0 0 0 8 10.824v1A2.82 2.82 0 0 1 10.824 9h42.352A2.82 2.82 0 0 1 56 11.824v-1A2.82 2.82 0 0 0 53.176 8zm-4 4A2.82 2.82 0 0 0 4 14.824v1A2.82 2.82 0 0 1 6.824 13h42.352A2.82 2.82 0 0 1 52 15.824v-1A2.82 2.82 0 0 0 49.176 12z" opacity=".2"/></svg>