<svg xmlns="http://www.w3.org/2000/svg" viewBox="0 0 64 64"><path d="M10.105 12c-1.93 0-2.277 2.043-2.277 2.043L4 35v10.75l3.623 7.117C8.179 53.96 9.584 54 9.584 54h44.832s1.405-.04 1.961-1.133L60 45.75V35l-3.828-20.957S55.826 12 53.895 12H32Z" opacity=".2"/><path fill="#757575" d="M4 42v2.75l3.623 7.117C8.179 52.959 9.583 53 9.583 53h44.833s1.405-.04 1.961-1.133L60 44.75V42H32Z"/><path fill="#ccc" d="M10.106 11c-1.931 0-2.278 2.044-2.278 2.044L4 34h56l-3.828-20.956S55.825 11 53.894 11H32Z"/><path fill="#e4e4e4" d="M4 34h56v8H4Z"/><path d="M12 46h6v3h-6zm9 0h6v3h-6z" opacity=".4"/><path fill="#f84c4b" d="M15 36h14v3H15z"/><path d="M4 42h56v1H4z" opacity=".2"/><path fill="#3a3a3a" d="M38 28v25h12V28Z"/><path d="M43 44v6h-3v-6zm5 0v6h-3v-6z" opacity=".4"/><path d="M14.2 28s-.992-.02-2.026.498C11.14 29.015 10 30.333 10 32.2V42h3v-9.6c0-.933.26-1.015.626-1.198S14.4 31 14.4 31H38v-3z" opacity=".3" style="font-variation-settings:normal;inline-size:0"/><path d="M38 26h12v1H38zm0-2h12v1H38zm0-2h12v1H38zm0-2h12v1H38zm0-2h12v1H38zm0-2h12v1H38z" opacity=".3"/><path fill="#fff" d="M10.105 11c-1.93 0-2.277 2.043-2.277 2.043L4 34h.184l3.644-19.957S8.174 12 10.105 12h43.79c1.93 0 2.277 2.043 2.277 2.043L59.816 34H60l-3.828-20.957S55.826 11 53.895 11z" opacity=".2"/><path fill="#3a3a3a" d="M38 11h12v4H38z"/></svg>