<svg xmlns="http://www.w3.org/2000/svg" viewBox="0 0 64 64"><rect width="38" height="58" x="13" y="4" opacity=".2" rx="3" ry="3"/><path fill="#e4e4e4" d="M16 3h32c1.662 0 3 1.338 3 3v3l-9 23 9 21v5c0 1.662-1.338 3-3 3H16c-1.662 0-3-1.338-3-3v-5l9-21-9-23V6c0-1.662 1.338-3 3-3"/><path fill="#3f3f3f" d="M13 9h38v44H13z"/><rect width="10" height="2" x="27" y="5" fill="#333" rx="1.25" ry="1"/><rect width="6" height="6" x="29" y="54" fill="#4d4d4d" rx="1.5" ry="1.5"/><rect width="6" height="3" x="40" y="55" fill="#4d4d4d" rx="1.5" ry="1.5"/><rect width="6" height="3" x="18" y="55" fill="#4d4d4d" rx="1.5" ry="1.5"/><circle cx="40" cy="6" r="1" fill="#333"/><path d="M13 9h38v1H13z" opacity=".2"/><path fill="#fff" d="M13 53h38v1H13zm3-50c-1.662 0-3 1.338-3 3v1c0-1.662 1.338-3 3-3h32c1.662 0 3 1.338 3 3V6c0-1.662-1.338-3-3-3z" opacity=".2"/></svg>