<svg xmlns="http://www.w3.org/2000/svg" xmlns:xlink="http://www.w3.org/1999/xlink" viewBox="0 0 96 96"><defs><linearGradient id="d" x1="33.352%" x2="93.898%" y1="45.951%" y2="45.951%"><stop offset="0%" stop-color="#61a8ff" stop-opacity="0"/><stop offset="100%" stop-color="#3a90fd" stop-opacity=".558"/></linearGradient><linearGradient id="e" x1="50%" x2="50%" y1="0%" y2="100%"><stop offset="0%" stop-color="#4a8ee3"/><stop offset="100%" stop-color="#1426a1"/></linearGradient><linearGradient id="f" x1="33.352%" x2="93.898%" y1="45.951%" y2="45.951%"><stop offset="0%" stop-color="#ee65f7" stop-opacity=".412"/><stop offset="100%" stop-color="#b614d1"/></linearGradient><linearGradient id="g" x1="147.239%" x2="-42.446%" y1="28.669%" y2="28.669%"><stop offset="0%" stop-color="#fff"/><stop offset="100%" stop-color="#fff" stop-opacity="0"/></linearGradient><linearGradient id="h" x1="33.352%" x2="93.898%" y1="45.951%" y2="45.951%"><stop offset="0%" stop-color="#61a8ff" stop-opacity="0"/><stop offset="100%" stop-color="#3a90fd" stop-opacity=".558"/></linearGradient><linearGradient id="i" x1="50%" x2="50%" y1="0%" y2="100%"><stop offset="0%" stop-color="#4a8ee3"/><stop offset="100%" stop-color="#1426a1"/></linearGradient><linearGradient id="j" x1="33.352%" x2="93.898%" y1="45.951%" y2="45.951%"><stop offset="0%" stop-color="#656af5" stop-opacity=".698"/><stop offset="100%" stop-color="#7e49ff"/></linearGradient><linearGradient id="k" x1="147.239%" x2="-42.446%" y1="28.669%" y2="28.669%"><stop offset="0%" stop-color="#fff"/><stop offset="100%" stop-color="#fff" stop-opacity="0"/></linearGradient><linearGradient id="l" x1="33.352%" x2="93.898%" y1="45.951%" y2="45.951%"><stop offset="0%" stop-color="#61a8ff" stop-opacity="0"/><stop offset="100%" stop-color="#3a90fd" stop-opacity=".558"/></linearGradient><linearGradient id="m" x1="50%" x2="50%" y1="0%" y2="100%"><stop offset="0%" stop-color="#4a8ee3"/><stop offset="100%" stop-color="#1426a1"/></linearGradient><linearGradient id="a" x1="33.352%" x2="83.964%" y1="46.033%" y2="84.521%"><stop offset="0%" stop-color="#0ecc31"/><stop offset="100%" stop-color="#00821e"/></linearGradient><linearGradient id="b" x1="39.24%" x2="149.699%" y1="1.019%" y2="66.581%"><stop offset="0%" stop-color="#0ecd31"/><stop offset="100%" stop-color="#6dc47d" stop-opacity=".557"/></linearGradient><linearGradient id="q" x1="100%" x2="-41.972%" y1="30.506%" y2="30.506%"><stop offset="0%" stop-color="#737d89"/><stop offset="100%" stop-color="#98c2dc"/></linearGradient><linearGradient id="r" x1="43.791%" x2="74.649%" y1="35.602%" y2="66.865%"><stop offset="0%" stop-color="#fff" stop-opacity="0"/><stop offset="100%" stop-color="#fff"/></linearGradient><filter id="c" width="133.4%" height="137.7%" x="-16.4%" y="-18.8%" filterUnits="objectBoundingBox"><feOffset dy="2" in="SourceAlpha" result="shadowOffsetOuter1"/><feGaussianBlur in="shadowOffsetOuter1" result="shadowBlurOuter1" stdDeviation="2"/><feColorMatrix in="shadowBlurOuter1" result="shadowMatrixOuter1" values="0 0 0 0 0 0 0 0 0 0 0 0 0 0 0 0 0 0 0.2 0"/><feMerge><feMergeNode in="shadowMatrixOuter1"/><feMergeNode in="SourceGraphic"/></feMerge></filter><path id="p" fill="url(#a)" stroke="url(#b)" d="M20.605 32.5c9.799 10.538 12.752 17.664 12.167 22.487-.377 3.108-2.253 5.203-4.592 6.619-4.019 2.432-9.405 2.894-11.357 2.894-1.953 0-7.338-.463-11.42-2.894-2.381-1.418-4.32-3.516-4.792-6.63-.73-4.82 1.995-11.945 11.435-22.476Z"/></defs><g fill="none" fill-rule="evenodd" filter="url(#c)" transform="translate(11 15)"><path fill="url(#d)" stroke="url(#e)" d="M27.382-.5c.414 0 .79.168 1.06.44.298.297.471.718.435 1.18L27.5 4.11V63.5h2v3H9a1.5 1.5 0 0 1-1.06-.44A1.5 1.5 0 0 1 7.5 65v-1c0-.414.168-.79.44-1.06A1.5 1.5 0 0 1 9 62.5h.5V9.223L1.603 2.115a1.5 1.5 0 0 1-.495-1.036A1.5 1.5 0 0 1 2.606-.5Z"/><path fill="url(#f)" d="M27 35v29h2v2H9a1 1 0 0 1-1-1v-1a1 1 0 0 1 1-1h1V35z"/><rect width="5" height="56" x="20" y="6" fill="url(#g)" opacity=".532" rx="2.5"/><g transform="translate(29 19)"><path fill="url(#h)" stroke="url(#i)" d="M42.382-.5c.414 0 .79.168 1.06.44.298.297.471.718.435 1.18L42.5 4.11V43a4.5 4.5 0 0 1-1.318 3.182A4.5 4.5 0 0 1 38 47.5H9a4.5 4.5 0 0 1-3.182-1.318A4.5 4.5 0 0 1 4.5 43V9.13L.388 1.728a1.5 1.5 0 0 1-.13-1.14A1.495 1.495 0 0 1 1.7-.5Z"/><path fill="url(#j)" d="M42 14v29a4 4 0 0 1-4 4H9a4 4 0 0 1-4-4V14z"/><rect width="5" height="37" x="33" y="5" fill="url(#k)" opacity=".532" rx="2.5"/><path stroke="#090909" d="m11 20 17-7 12 12v16l-14 6" opacity=".406"/><path fill="#000" d="M26 41a2 2 0 1 1 0 4 2 2 0 0 1 0-4m9-4a2 2 0 1 1 0 4 2 2 0 0 1 0-4m-5-2a2 2 0 1 1 0 4 2 2 0 0 1 0-4m-6-2a2 2 0 1 1 0 4 2 2 0 0 1 0-4m10-4a2 2 0 1 1 0 4 2 2 0 0 1 0-4m-12-3c1.105 0 2 .672 2 1.5s-.895 1.5-2 1.5-2-.672-2-1.5.895-1.5 2-1.5m2-5c1.105 0 2 .672 2 1.5s-.895 1.5-2 1.5-2-.672-2-1.5.895-1.5 2-1.5m2-4c1.105 0 2 .672 2 1.5s-.895 1.5-2 1.5-2-.672-2-1.5.895-1.5 2-1.5" opacity=".406"/></g><path fill="url(#l)" stroke="url(#m)" d="M22.999 19.5c.69 0 1.315.28 1.767.732a2.49 2.49 0 0 1 .577 2.637 94 94 0 0 1-3.917 9.045c10.085 10.872 12.94 18.236 12.339 23.193-.417 3.44-2.47 5.782-5.067 7.354-4.202 2.543-9.833 3.039-11.875 3.039s-7.667-.494-11.932-3.034c-2.634-1.57-4.749-3.906-5.269-7.34C-1.13 50.16 1.5 42.782 11.256 31.882a89 89 0 0 0-3.525-8.836 2.5 2.5 0 0 1-.074-1.912 2.49 2.49 0 0 1 2.345-1.634Z" transform="translate(22 4)"/><use xlink:href="#p" transform="translate(22 4)"/><path fill="url(#q)" d="M19.823-2a1.963 1.963 0 0 1 1.963 2l-.932 50.304c1.149.688 1.969 2.401 1.969 3.696 0 .727-.26 1.202-.69 1.505-.55.387-1.38.495-2.31.495-1.657 0-3-.343-3-2 0-1.294.82-3.007 1.968-3.695L17.86 0a1.963 1.963 0 0 1 1.926-2z" transform="rotate(30 23.359 70.053)"/><use xlink:href="#p" opacity=".458" transform="translate(22 4)"/><path fill="url(#r)" d="M26.823 46q3.58 7.516.501 11.503t-9.782 3.465q6.205-.54 8.842-4.8 2.636-4.262.439-10.168" opacity=".634" transform="translate(22 4)"/></g></svg>