<svg xmlns="http://www.w3.org/2000/svg" xmlns:xlink="http://www.w3.org/1999/xlink" xml:space="preserve" viewBox="0 0 280 280"><defs><path id="a" d="M0 1400V0h2800v2800H0zm1583 859c145-38 276-146 340-279 38-79 67-175 67-222v-28h-209l-10 38c-5 20-13 51-17 67-9 44-68 146-101 176-15 15-53 40-83 55-50 26-64 29-155 29-92 0-104-3-154-30-119-66-194-198-220-388-14-101-14-452 0-554q37.5-280.5 204-381c55-33 67-37 150-40 106-5 156 7 222 51 79 52 125 135 157 280l6 27h213l-6-49c-14-118-103-282-198-365-89-78-231-126-369-126-136 0-240 35-351 117-125 92-219 281-248 496-14 101-14 432-1 534 35 258 173 475 354 558 42 19 104 39 139 44 69 11 211 5 270-10"/><mask id="b"><use xlink:href="#a"/><circle cx="1400" cy="1400" r="1400" fill="#fff"/></mask></defs><g fill="#7e57c2" data-iconColor="Carbon" mask="url(#b)" transform="matrix(.1 0 0 -.1 0 280)"><use xlink:href="#a"/><use xlink:href="#a"/></g></svg>