<svg xmlns="http://www.w3.org/2000/svg" viewBox="0 0 64 64"><path d="M57.5 56.066 61 45.68V6.9C61 5.293 59.707 4 58.1 4H5.9A2.893 2.893 0 0 0 3 6.9v52.2A2.894 2.894 0 0 0 5.9 62h43.342l3.84-2.567c1.336-.893 3.904-1.844 4.417-3.367" opacity=".2"/><path fill="#752828" d="M56.916 55.766 61 46.03V5.9C61 4.293 59.707 3 58.1 3H5.9A2.893 2.893 0 0 0 3 5.9v52.2A2.894 2.894 0 0 0 5.9 61h42.641l5.242-2.217c1.48-.626 2.512-1.535 3.133-3.017"/><path fill="none" stroke="#000" stroke-width="3" d="M19 33c10.61 0 15.39 20 26 20" opacity=".2"/><path fill="none" stroke="#6c7f94" stroke-width="3" d="M19 32c10.61 0 15.39 20 26 20"/><path fill="none" stroke="#000" stroke-width="3" d="M19 13c10.61 0 15.39 20 26 20" opacity=".2"/><path fill-rule="evenodd" d="m15.024 30-.048.055L12 33l3.024 3H21v-6z" opacity=".2"/><path fill="#4c66cc" fill-rule="evenodd" d="m15.024 29-.048.055L12 32l3.024 3H21v-6z"/><path fill-rule="evenodd" d="M43 50v6h6.034L52 53l-2.966-3h-.068z" opacity=".2"/><path fill="#4c66cc" fill-rule="evenodd" d="M43 49v6h6.034L52 52l-2.966-3h-.068z"/><path fill="none" stroke="#6c7f94" stroke-width="3" d="M19 12c10.61 0 15.39 20 26 20"/><path fill-rule="evenodd" d="m15.024 10-.048.055L12 13l3.024 3H21v-6z" opacity=".2"/><path fill="#4c66cc" fill-rule="evenodd" d="m15.024 9-.048.055L12 12l3.024 3H21V9Z"/><path fill-rule="evenodd" d="M43 30v6h6.034L52 33l-2.966-3h-.068z" opacity=".2"/><path fill="#4c66cc" fill-rule="evenodd" d="M43 29v6h6.034L52 32l-2.966-3h-.068z"/><path fill="#fff" d="M5.898 3A2.89 2.89 0 0 0 3 5.898v1A2.89 2.89 0 0 1 5.898 4h52.204A2.89 2.89 0 0 1 61 6.898v-1A2.89 2.89 0 0 0 58.102 3z" opacity=".1"/><circle cx="48" cy="47" r="16" fill="#3f3f3f"/><path fill="#fff" d="M45.027 54.748q0-.623.179-1.054.179-.43.497-.694.317-.265.748-.385a3.45 3.45 0 0 1 1.801 0q.417.12.735.385.318.264.503.694.186.431.185 1.054 0 .596-.185 1.02a2 2 0 0 1-.503.703 2 2 0 0 1-.735.403 3 3 0 0 1-.881.126q-.49 0-.92-.126a2 2 0 0 1-.748-.403 1.9 1.9 0 0 1-.497-.703q-.178-.423-.178-1.02m.437-4.53v-.98q0-.675.14-1.224.138-.55.423-1.047.285-.495.734-.967.451-.47 1.087-.973.556-.437.94-.782.384-.344.623-.683.238-.336.344-.707.106-.372.107-.86 0-.756-.51-1.246t-1.557-.49q-.914 0-1.967.383-1.052.385-2.179.94l-1.35-2.926q.569-.331 1.238-.629.67-.298 1.39-.53.723-.232 1.464-.364.742-.133 1.457-.133 1.35 0 2.436.325 1.087.324 1.842.946.756.623 1.159 1.511.405.888.404 2.026-.001.834-.185 1.49a4.5 4.5 0 0 1-.549 1.219 6 6 0 0 1-.915 1.086 20 20 0 0 1-1.278 1.106q-.556.436-.908.762a3.7 3.7 0 0 0-.549.615 1.8 1.8 0 0 0-.272.603 3.3 3.3 0 0 0-.073.734v.795z"/><path d="M32.025 47.502A16 16 0 0 0 32 48a16 16 0 0 0 16 16 16 16 0 0 0 16-16 16 16 0 0 0-.018-.492A16 16 0 0 1 48 63a16 16 0 0 1-15.975-15.498" opacity=".2"/></svg>