<svg xmlns="http://www.w3.org/2000/svg" viewBox="0 0 64 64"><rect width="58" height="58" x="-62" y="-61" opacity=".2" rx="2.9" ry="2.9" transform="rotate(90)scale(-1 1)"/><rect width="58" height="58" x="-61" y="-61" fill="#752828" rx="2.9" ry="2.9" transform="rotate(90)scale(-1 1)"/><path fill="none" stroke="#000" stroke-width="3" d="M19 33c10.61 0 15.39 20 26 20" opacity=".2"/><path fill="none" stroke="#6c7f94" stroke-width="3" d="M19 32c10.61 0 15.39 20 26 20"/><path fill="none" stroke="#000" stroke-width="3" d="M19 13c10.61 0 15.39 20 26 20" opacity=".2"/><path fill-rule="evenodd" d="m15.024 30-.048.055L12 33l3.024 3H21v-6z" opacity=".2"/><path fill="#4c66cc" fill-rule="evenodd" d="m15.024 29-.048.055L12 32l3.024 3H21v-6z"/><path fill-rule="evenodd" d="M43 50v6h6.034L52 53l-2.966-3h-.068z" opacity=".2"/><path fill="#4c66cc" fill-rule="evenodd" d="M43 49v6h6.034L52 52l-2.966-3h-.068z"/><path fill="none" stroke="#6c7f94" stroke-width="3" d="M19 12c10.61 0 15.39 20 26 20"/><path fill-rule="evenodd" d="m15.024 10-.048.055L12 13l3.024 3H21v-6z" opacity=".2"/><path fill="#4c66cc" fill-rule="evenodd" d="m15.024 9-.048.055L12 12l3.024 3H21V9Z"/><path fill-rule="evenodd" d="M43 30v6h6.034L52 33l-2.966-3h-.068z" opacity=".2"/><path fill="#4c66cc" fill-rule="evenodd" d="M43 29v6h6.034L52 32l-2.966-3h-.068z"/><path fill="#fff" d="M5.898 3A2.89 2.89 0 0 0 3 5.898v1A2.89 2.89 0 0 1 5.898 4h52.204A2.89 2.89 0 0 1 61 6.898v-1A2.89 2.89 0 0 0 58.102 3z" opacity=".1"/></svg>