<svg xmlns="http://www.w3.org/2000/svg" viewBox="0 0 64 64"><path d="M10 43h40v12h-8v6H18v-6h-8z" opacity=".2"/><path fill="#994c1f" d="M10 42h40v12h-8v6H18v-6h-8z"/><path d="M10 15h40v32h-8v8H18v-8h-8z" opacity=".2"/><path fill="#b06332" d="M10 14h40v32h-8v8H18v-8h-8z"/><path fill="#93481e" d="M10 28h40v8H10z"/><path d="M36 29h8v8h-8z" opacity=".1"/><path fill="#3f3f3f" d="M36 28h8v8h-8z"/><path d="M16 29h8v8h-8z" opacity=".1"/><path fill="#3f3f3f" d="M16 28h8v8h-8z"/><path d="M24 37h12v4H24z" opacity=".2"/><path d="M10 12v11h26V12zm26 7v10h14V19z" opacity=".1"/><path fill="#4f4f4f" d="M10 11v11h26V11zm26 7v10h14V18z"/><path d="M10 5v10h26v8h18V5z" opacity=".2"/><path fill="#ae1919" d="M10 4v10h26v8h18V4z"/><path fill="#c77947" d="M24 36h12v4H24z"/><path fill="#703717" d="M22 46h16v4H22z"/><path fill="#862014" d="M36 4h18v18H36z"/><path fill="#fff" d="M10 4v1h44V4z" opacity=".1"/></svg>