<svg xmlns="http://www.w3.org/2000/svg" viewBox="0 0 16 16"><path fill="#fff" fill-rule="evenodd" d="M8 5c1.105 0 2 .881 2 1.968 0 .857-.556 1.586-1.333 1.857v6.006a.667.667 0 0 1-1.334 0V8.825C6.556 8.555 6 7.825 6 6.968 6 5.881 6.895 5 8 5m4.783-3.382A7.18 7.18 0 0 1 15.201 7c0 2.14-.935 4.064-2.418 5.382l-.84-.86A6 6 0 0 0 14 7a6 6 0 0 0-2.056-4.522zm-9.71.13.839.86A5.98 5.98 0 0 0 2 7c0 1.735.736 3.297 1.913 4.393l-.84.858A7.18 7.18 0 0 1 .8 7c0-1.972.793-3.76 2.078-5.06zm8.17 1.447A4.99 4.99 0 0 1 13 7a4.99 4.99 0 0 1-1.756 3.805l-.7-.718A4 4 0 0 0 12 7a4 4 0 0 0-1.456-3.087zm-6.632.129.698.716A4 4 0 0 0 4 7a4 4 0 0 0 1.31 2.96l-.699.716A5 5 0 0 1 3 7c0-1.363.545-2.599 1.43-3.5z"/></svg>