<svg xmlns="http://www.w3.org/2000/svg" xmlns:xlink="http://www.w3.org/1999/xlink" viewBox="0 0 128 128"><defs><linearGradient id="d" x1="50%" x2="50%" y1="0%" y2="100%"><stop offset="4.248%" stop-color="#81ef5a"/><stop offset="100%" stop-color="#00bf88"/></linearGradient><linearGradient id="h" x1="50%" x2="50%" y1="0%" y2="100%"><stop offset="0%" stop-color="#fff"/><stop offset="100%" stop-color="#d1eae4"/><stop offset="100%" stop-color="#edf2de"/></linearGradient><linearGradient id="i" x1="50%" x2="50%" y1="-36.218%" y2="100%"><stop offset="0%" stop-color="#81ef5a"/><stop offset="100%" stop-color="#01a171"/></linearGradient><linearGradient id="l" x1="48.046%" x2="51.954%" y1=".919%" y2="99.081%"><stop offset="0%" stop-color="#64d47c"/><stop offset="100%" stop-color="#d7cd87"/></linearGradient><filter id="a" width="121.8%" height="120.9%" x="-9.7%" y="-7.3%" filterUnits="objectBoundingBox"><feOffset dy="2" in="SourceAlpha" result="shadowOffsetOuter1"/><feGaussianBlur in="shadowOffsetOuter1" result="shadowBlurOuter1" stdDeviation="3"/><feColorMatrix in="shadowBlurOuter1" result="shadowMatrixOuter1" values="0 0 0 0 0 0 0 0 0 0 0 0 0 0 0 0 0 0 0.2 0"/><feMerge><feMergeNode in="shadowMatrixOuter1"/><feMergeNode in="SourceGraphic"/></feMerge></filter><filter id="e" width="104%" height="103.9%" x="-2%" y="-2%" filterUnits="objectBoundingBox"><feOffset dy="-4" in="SourceAlpha" result="shadowOffsetInner1"/><feComposite in="shadowOffsetInner1" in2="SourceAlpha" k2="-1" k3="1" operator="arithmetic" result="shadowInnerInner1"/><feColorMatrix in="shadowInnerInner1" values="0 0 0 0 0 0 0 0 0 0 0 0 0 0 0 0 0 0 0.160868185 0"/></filter><filter id="g" width="127.7%" height="127.7%" x="-16%" y="-16%" filterUnits="objectBoundingBox"><feOffset dx="-1" dy="-1" in="SourceAlpha" result="shadowOffsetOuter1"/><feGaussianBlur in="shadowOffsetOuter1" result="shadowBlurOuter1" stdDeviation="2"/><feColorMatrix in="shadowBlurOuter1" values="0 0 0 0 0 0 0 0 0 0 0 0 0 0 0 0 0 0 0.1 0"/></filter><filter id="j" width="129%" height="117.5%" x="-15%" y="-6.7%" filterUnits="objectBoundingBox"><feOffset dy="2" in="SourceAlpha" result="shadowOffsetOuter1"/><feGaussianBlur in="shadowOffsetOuter1" result="shadowBlurOuter1" stdDeviation="2.5"/><feColorMatrix in="shadowBlurOuter1" result="shadowMatrixOuter1" values="0 0 0 0 0.0200617454 0 0 0 0 0.261693098 0 0 0 0 0.202345466 0 0 0 0.2 0"/><feMerge><feMergeNode in="shadowMatrixOuter1"/><feMergeNode in="SourceGraphic"/></feMerge></filter><radialGradient id="k" cx="38.205%" cy="60.389%" r="133.891%" fx="38.205%" fy="60.389%" gradientTransform="matrix(.48066 -.50028 .8769 .27421 -.331 .63)"><stop offset="0%" stop-color="#e2fff0"/><stop offset="100%" stop-color="#c2ffdf"/></radialGradient><circle id="f" cx="23.5" cy="23.5" r="23.5"/><path id="b" d="M12 0h76c6.627 0 12 5.373 12 12v78.5c0 6.627-5.373 12-12 12H12c-6.627 0-12-5.373-12-12V12C0 5.373 5.373 0 12 0"/></defs><g fill="none" fill-rule="evenodd"><g filter="url(#a)" transform="rotate(-8 147.097 -26.64)"><g fill-rule="nonzero"><use xlink:href="#b" fill="url(#d)"/><use xlink:href="#b" fill="#000" filter="url(#e)"/></g><g fill-rule="nonzero"><g transform="translate(58.582 62.958)"><use xlink:href="#f" fill="#000" filter="url(#g)"/><use xlink:href="#f" fill="url(#h)"/></g><path fill="url(#i)" d="M12 27.91c1.91 2.52 5.268 4.693 8.438 5.48l-3.357 5.86s-1.208-1.378-2.565-2.786l-.328-.337q-.247-.254-.495-.5a145 145 0 0 0-5.315-1.37zm22.705 0 3.917 6.347c-.009.01-.909.14-2.121.379l-.415.083c-.78.16-1.651.359-2.484.593-1.648 1.638-3.699 3.938-3.699 3.938l-3.326-5.859c3.17-.787 6.217-2.945 8.128-5.48M23.485 7.75c6.31 0 11.734 5.497 11.734 11.907s-5.425 11.907-11.735 11.907S11.75 26.382 11.75 19.972 17.175 7.75 23.484 7.75m0 4.678c-.514 0-.98.315-1.197.756l-1.212 2.614a1.11 1.11 0 0 1-.964.677l-2.642.426c-.7.11-1.212.787-1.103 1.496.046.268.186.535.357.74l2.067 2.22c.249.269.357.615.31.977l-.481 3.04c-.109.709.388 1.402 1.088 1.512.295.031.575 0 .84-.142l2.3-1.244a1.16 1.16 0 0 1 1.212-.047l2.362 1.276c.637.362 1.43.11 1.787-.536.14-.236.186-.535.14-.819l-.466-2.929v-.047c-.094-.41.046-.82.326-1.103l2.051-2.158c.498-.504.482-1.354-.015-1.874a1.46 1.46 0 0 0-.73-.362l-2.643-.41c-.45-.031-.823-.3-.994-.709l-1.197-2.598a1.32 1.32 0 0 0-1.197-.756" transform="translate(58.582 62.958)"/></g><g transform="translate(16.614 48.336)"><path stroke="#fff" stroke-linecap="round" stroke-linejoin="round" stroke-width="2.5" d="M2.993 28.188q1.663 3.125 8.26-2.175 16.005-12.594 21.48-13.758c5.716-1.215-.848 9.406 2.466 9.087s7.888-9.665 11.484-10.43c3.597-.764-1.22 6.417 3.5 3.844s9.55-17.288 16.41-13.689" opacity=".398"/><circle cx="39.569" cy="7.17" r="1.925" fill="#fff" opacity=".401"/></g></g><g fill-rule="nonzero" filter="url(#j)" transform="rotate(-8 43.252 -80.59)"><path fill="url(#k)" d="M38.036 46.22a170 170 0 0 0 3.514-1.615 248 248 0 0 1 3-1.381 45 45 0 0 0 2.554-1.238l-.5 4.275q-.222 1.777-.486 2.687a25 25 0 0 1-1.257 4.146 45 45 0 0 1-1.517 3.39 33 33 0 0 1-1.817 3.196l-8.99 4.222 7.901.296c0 .005-1.659 3.504-4.51 6.747-2.568 2.92-6.293 5.736-7.884 6.571-3.359 1.765-14.198 5.6-16.316 3.309C8.511 77.343 6.193 67.6 7.324 56.336c.768-7.656 4.235-16.78 7.826-23.603 1.693-3.216 4.64-7.368 5.088-7.954 7.145-9.36 15.137-14.5 17.823-16.177S49.84 2.946 51.465 3.601c.437.176-1.342 3.81-1.653 7.065-.312 3.255-.656 4.44-.798 7.924a290 290 0 0 1-.634 10.64q-.42 5.415-.9 9.846z" transform="rotate(11 29.283 42.532)"/><path fill="url(#l)" d="M5.746 95.656c.607-2.726 1.929-4.083 4.541-5.417 0 0-1.032-9.847 1.328-18.345 1.575-4.791 5.493-15.753 8.145-21.505 4.717-10.229 5.3-11.606 9.783-19.88-2.713 3.98-3.379 4.652-9.783 15.569C12.23 58.916 5.62 78.335 4.932 95.399z" transform="rotate(8 17.238 63.082)"/><path fill="#329a68" d="m.554 93.372.864.647s.623-1.429.974-1.98c1.006-1.584 2.744-2.567 4.184-3.032l-4.416-2.67q-.667 2.238-.994 3.74-.328 1.5-.612 3.295"/></g></g></svg>