<svg xmlns="http://www.w3.org/2000/svg" xmlns:xlink="http://www.w3.org/1999/xlink" viewBox="0 0 96 96"><defs><linearGradient id="b" x1="76.43%" x2="84.217%" y1="2.797%" y2="106.545%"><stop offset="0%" stop-color="#224e86"/><stop offset="100%" stop-color="#142c50"/></linearGradient><filter id="a" width="117.9%" height="117.9%" x="-9%" y="-6.4%" filterUnits="objectBoundingBox"><feOffset dy="2" in="SourceAlpha" result="shadowOffsetOuter1"/><feGaussianBlur in="shadowOffsetOuter1" result="shadowBlurOuter1" stdDeviation="2"/><feColorMatrix in="shadowBlurOuter1" result="shadowMatrixOuter1" values="0 0 0 0 0 0 0 0 0 0 0 0 0 0 0 0 0 0 0.2 0"/><feMerge><feMergeNode in="shadowMatrixOuter1"/><feMergeNode in="SourceGraphic"/></feMerge></filter></defs><g fill="none" filter="url(#a)" transform="translate(9 9)"><rect width="78" height="78" fill="#f7f8f8" rx="18"/><g transform="translate(9.211 12)"><path fill="url(#b)" d="M25.045 53.989c-2.838 0-6.515.01-10.33-.308-3.4-.283-6.944-.827-9.57-1.886-2.408-.97-4.098-2.538-4.733-4.447-1.025-3.08-.028-7.527 1.773-9.197.98-.909 2.59-1.808 3.79-1.862.601-.027 1.855 0 2.16.812.304.811-.79 1.166-1.143 1.477-.76.67-1.67 1.11-2.411 2.212-.978 1.453-1.126 3.385-.807 4.568q.801 2.979 6.839 3.236.893-5.439 1.106-7.804c1.629-18.19 3.572-29.194 4.293-33.63.652-4.005 1.829-6.588 2.263-6.956q1.874-1.586 7.419 9.135 4.52-.913 7.32-.913 2.803 0 7.864.913Q45.045.204 46.998.204c1.954 0 3.05 9.445 3.578 13.333.6 4.425 1.112 7.525 1.623 10.899 1.836 12.124 2.804 18.136 2.804 20.45 0 1.228 1.078 7.443.28 8.137-.8.694-11.621 1.046-18.113.966-4.81-.06-9.285 0-12.125 0"/><circle cx="23.781" cy="21.366" r="2.414" fill="#fff"/><circle cx="43.561" cy="21.366" r="2.414" fill="#fff"/><path fill="#fff" d="m34.42 26.565.251.195c.2.155.446.24.699.24h1.156c.164 0 .302.121.323.283a.316.316 0 0 1-.242.348l-1.134.265a.96.96 0 0 1-.636-.07l-.128-.063a1.1 1.1 0 0 1-.315-.225l-.197-.2a.524.524 0 0 0-.704-.037l-.745.608c-.151 0-1.273.003-1.77-.12l-.268-.738c.012 0 .996.143 1.742-.084q.33-.1.857-.447a.955.955 0 0 1 1.112.045"/></g></g></svg>