<svg xmlns="http://www.w3.org/2000/svg" viewBox="0 0 24 24"><g fill="none"><path fill="#fdbc4b" d="M14 18a4 4 0 0 0 2.855-6.802A5 5 0 0 1 15 14a5 5 0 0 1-1.875 3.903Q13.552 18 14 18m0-4q0-.263-.033-.516a4 4 0 0 0 1.988-4.087 5.001 5.001 0 1 1-5.08 8.507A4 4 0 0 0 14 14"/><path fill="#5294e2" d="M6 14a4 4 0 0 0 7.955.603 5.002 5.002 0 0 1-6.81-3.405A4 4 0 0 0 6 14m2-4a4 4 0 0 0 6.855 2.801Q15 13.38 15 14a5 5 0 1 1-6.955-4.603Q8 9.692 8 10"/><path fill="#4fef42" d="M12 14a4 4 0 1 0 0-8 4 4 0 0 0 0 8m0 1a5 5 0 1 1 0-10 5 5 0 0 1 0 10"/></g></svg>