<svg xmlns="http://www.w3.org/2000/svg" xmlns:xlink="http://www.w3.org/1999/xlink" viewBox="0 0 128 128"><defs><filter id="a" width="123.3%" height="150.9%" x="-11.6%" y="-25.5%" filterUnits="objectBoundingBox"><feOffset dy="2" in="SourceAlpha" result="shadowOffsetOuter1"/><feGaussianBlur in="shadowOffsetOuter1" result="shadowBlurOuter1" stdDeviation="2.5"/><feColorMatrix in="shadowBlurOuter1" result="shadowMatrixOuter1" values="0 0 0 0 0 0 0 0 0 0 0 0 0 0 0 0 0 0 0.2 0"/><feMerge><feMergeNode in="shadowMatrixOuter1"/><feMergeNode in="SourceGraphic"/></feMerge></filter><filter id="f" width="100.9%" height="102%" x="-.4%" y="-1%" filterUnits="objectBoundingBox"><feOffset dy="-1" in="SourceAlpha" result="shadowOffsetInner1"/><feComposite in="shadowOffsetInner1" in2="SourceAlpha" k2="-1" k3="1" operator="arithmetic" result="shadowInnerInner1"/><feColorMatrix in="shadowInnerInner1" values="0 0 0 0 1 0 0 0 0 1 0 0 0 0 1 0 0 0 0.25 0"/></filter><filter id="i" width="109%" height="122.2%" x="-4.5%" y="-5.6%" filterUnits="objectBoundingBox"><feOffset dy="1" in="SourceAlpha" result="shadowOffsetOuter1"/><feColorMatrix in="shadowOffsetOuter1" values="0 0 0 0 0 0 0 0 0 0 0 0 0 0 0 0 0 0 0.08 0"/></filter><filter id="k" width="109%" height="122.2%" x="-4.5%" y="-5.6%" filterUnits="objectBoundingBox"><feOffset dy="-1" in="SourceAlpha" result="shadowOffsetInner1"/><feComposite in="shadowOffsetInner1" in2="SourceAlpha" k2="-1" k3="1" operator="arithmetic" result="shadowInnerInner1"/><feColorMatrix in="shadowInnerInner1" values="0 0 0 0 1 0 0 0 0 1 0 0 0 0 1 0 0 0 0.5 0"/></filter><filter id="m" width="109%" height="122.2%" x="-4.5%" y="-5.6%" filterUnits="objectBoundingBox"><feOffset dy="1" in="SourceAlpha" result="shadowOffsetOuter1"/><feColorMatrix in="shadowOffsetOuter1" values="0 0 0 0 0 0 0 0 0 0 0 0 0 0 0 0 0 0 0.08 0"/></filter><filter id="o" width="109%" height="122.2%" x="-4.5%" y="-5.6%" filterUnits="objectBoundingBox"><feOffset dy="-1" in="SourceAlpha" result="shadowOffsetInner1"/><feComposite in="shadowOffsetInner1" in2="SourceAlpha" k2="-1" k3="1" operator="arithmetic" result="shadowInnerInner1"/><feColorMatrix in="shadowInnerInner1" values="0 0 0 0 1 0 0 0 0 1 0 0 0 0 1 0 0 0 0.5 0"/></filter><filter id="q" width="109%" height="122.2%" x="-4.5%" y="-5.6%" filterUnits="objectBoundingBox"><feOffset dy="1" in="SourceAlpha" result="shadowOffsetOuter1"/><feColorMatrix in="shadowOffsetOuter1" values="0 0 0 0 0 0 0 0 0 0 0 0 0 0 0 0 0 0 0.08 0"/></filter><filter id="s" width="109%" height="122.2%" x="-4.5%" y="-5.6%" filterUnits="objectBoundingBox"><feOffset dy="-1" in="SourceAlpha" result="shadowOffsetInner1"/><feComposite in="shadowOffsetInner1" in2="SourceAlpha" k2="-1" k3="1" operator="arithmetic" result="shadowInnerInner1"/><feColorMatrix in="shadowInnerInner1" values="0 0 0 0 1 0 0 0 0 1 0 0 0 0 1 0 0 0 0.5 0"/></filter><filter id="u" width="109%" height="122.2%" x="-4.5%" y="-5.6%" filterUnits="objectBoundingBox"><feOffset dy="1" in="SourceAlpha" result="shadowOffsetOuter1"/><feColorMatrix in="shadowOffsetOuter1" values="0 0 0 0 0 0 0 0 0 0 0 0 0 0 0 0 0 0 0.08 0"/></filter><filter id="w" width="109%" height="122.2%" x="-4.5%" y="-5.6%" filterUnits="objectBoundingBox"><feOffset dy="-1" in="SourceAlpha" result="shadowOffsetInner1"/><feComposite in="shadowOffsetInner1" in2="SourceAlpha" k2="-1" k3="1" operator="arithmetic" result="shadowInnerInner1"/><feColorMatrix in="shadowInnerInner1" values="0 0 0 0 1 0 0 0 0 1 0 0 0 0 1 0 0 0 0.5 0"/></filter><filter id="y" width="109.1%" height="122.2%" x="-4.5%" y="-5.6%" filterUnits="objectBoundingBox"><feOffset dy="1" in="SourceAlpha" result="shadowOffsetOuter1"/><feColorMatrix in="shadowOffsetOuter1" values="0 0 0 0 0 0 0 0 0 0 0 0 0 0 0 0 0 0 0.08 0"/></filter><filter id="A" width="109.1%" height="122.2%" x="-4.5%" y="-5.6%" filterUnits="objectBoundingBox"><feOffset dy="-1" in="SourceAlpha" result="shadowOffsetInner1"/><feComposite in="shadowOffsetInner1" in2="SourceAlpha" k2="-1" k3="1" operator="arithmetic" result="shadowInnerInner1"/><feColorMatrix in="shadowInnerInner1" values="0 0 0 0 1 0 0 0 0 1 0 0 0 0 1 0 0 0 0.5 0"/></filter><filter id="C" width="109%" height="122.2%" x="-4.5%" y="-5.6%" filterUnits="objectBoundingBox"><feOffset dy="1" in="SourceAlpha" result="shadowOffsetOuter1"/><feColorMatrix in="shadowOffsetOuter1" values="0 0 0 0 0 0 0 0 0 0 0 0 0 0 0 0 0 0 0.08 0"/></filter><filter id="E" width="109%" height="122.2%" x="-4.5%" y="-5.6%" filterUnits="objectBoundingBox"><feOffset dy="-1" in="SourceAlpha" result="shadowOffsetInner1"/><feComposite in="shadowOffsetInner1" in2="SourceAlpha" k2="-1" k3="1" operator="arithmetic" result="shadowInnerInner1"/><feColorMatrix in="shadowInnerInner1" values="0 0 0 0 1 0 0 0 0 1 0 0 0 0 1 0 0 0 0.5 0"/></filter><filter id="G" width="109%" height="122.2%" x="-4.5%" y="-5.6%" filterUnits="objectBoundingBox"><feOffset dy="1" in="SourceAlpha" result="shadowOffsetOuter1"/><feColorMatrix in="shadowOffsetOuter1" values="0 0 0 0 0 0 0 0 0 0 0 0 0 0 0 0 0 0 0.08 0"/></filter><filter id="I" width="109%" height="122.2%" x="-4.5%" y="-5.6%" filterUnits="objectBoundingBox"><feOffset dy="-1" in="SourceAlpha" result="shadowOffsetInner1"/><feComposite in="shadowOffsetInner1" in2="SourceAlpha" k2="-1" k3="1" operator="arithmetic" result="shadowInnerInner1"/><feColorMatrix in="shadowInnerInner1" values="0 0 0 0 1 0 0 0 0 1 0 0 0 0 1 0 0 0 0.5 0"/></filter><filter id="K" width="109.1%" height="122.2%" x="-4.5%" y="-5.6%" filterUnits="objectBoundingBox"><feOffset dy="1" in="SourceAlpha" result="shadowOffsetOuter1"/><feColorMatrix in="shadowOffsetOuter1" values="0 0 0 0 0 0 0 0 0 0 0 0 0 0 0 0 0 0 0.08 0"/></filter><filter id="M" width="109.1%" height="122.2%" x="-4.5%" y="-5.6%" filterUnits="objectBoundingBox"><feOffset dy="-1" in="SourceAlpha" result="shadowOffsetInner1"/><feComposite in="shadowOffsetInner1" in2="SourceAlpha" k2="-1" k3="1" operator="arithmetic" result="shadowInnerInner1"/><feColorMatrix in="shadowInnerInner1" values="0 0 0 0 1 0 0 0 0 1 0 0 0 0 1 0 0 0 0.5 0"/></filter><filter id="O" width="109.1%" height="122.2%" x="-4.5%" y="-5.6%" filterUnits="objectBoundingBox"><feOffset dy="1" in="SourceAlpha" result="shadowOffsetOuter1"/><feColorMatrix in="shadowOffsetOuter1" values="0 0 0 0 0 0 0 0 0 0 0 0 0 0 0 0 0 0 0.08 0"/></filter><filter id="Q" width="109.1%" height="122.2%" x="-4.5%" y="-5.6%" filterUnits="objectBoundingBox"><feOffset dy="-1" in="SourceAlpha" result="shadowOffsetInner1"/><feComposite in="shadowOffsetInner1" in2="SourceAlpha" k2="-1" k3="1" operator="arithmetic" result="shadowInnerInner1"/><feColorMatrix in="shadowInnerInner1" values="0 0 0 0 1 0 0 0 0 1 0 0 0 0 1 0 0 0 0.5 0"/></filter><filter id="S" width="109.1%" height="122.2%" x="-4.5%" y="-5.6%" filterUnits="objectBoundingBox"><feOffset dy="1" in="SourceAlpha" result="shadowOffsetOuter1"/><feColorMatrix in="shadowOffsetOuter1" values="0 0 0 0 0 0 0 0 0 0 0 0 0 0 0 0 0 0 0.08 0"/></filter><filter id="T" width="109.1%" height="122.2%" x="-4.5%" y="-5.6%" filterUnits="objectBoundingBox"><feOffset dy="-1" in="SourceAlpha" result="shadowOffsetInner1"/><feComposite in="shadowOffsetInner1" in2="SourceAlpha" k2="-1" k3="1" operator="arithmetic" result="shadowInnerInner1"/><feColorMatrix in="shadowInnerInner1" values="0 0 0 0 1 0 0 0 0 1 0 0 0 0 1 0 0 0 0.5 0"/></filter><filter id="V" width="109.1%" height="122.2%" x="-4.5%" y="-5.6%" filterUnits="objectBoundingBox"><feOffset dy="1" in="SourceAlpha" result="shadowOffsetOuter1"/><feColorMatrix in="shadowOffsetOuter1" values="0 0 0 0 0 0 0 0 0 0 0 0 0 0 0 0 0 0 0.08 0"/></filter><filter id="X" width="109.1%" height="122.2%" x="-4.5%" y="-5.6%" filterUnits="objectBoundingBox"><feOffset dy="-1" in="SourceAlpha" result="shadowOffsetInner1"/><feComposite in="shadowOffsetInner1" in2="SourceAlpha" k2="-1" k3="1" operator="arithmetic" result="shadowInnerInner1"/><feColorMatrix in="shadowInnerInner1" values="0 0 0 0 1 0 0 0 0 1 0 0 0 0 1 0 0 0 0.5 0"/></filter><filter id="Z" width="109%" height="122.2%" x="-4.5%" y="-5.6%" filterUnits="objectBoundingBox"><feOffset dy="1" in="SourceAlpha" result="shadowOffsetOuter1"/><feColorMatrix in="shadowOffsetOuter1" values="0 0 0 0 0 0 0 0 0 0 0 0 0 0 0 0 0 0 0.08 0"/></filter><filter id="ab" width="109%" height="122.2%" x="-4.5%" y="-5.6%" filterUnits="objectBoundingBox"><feOffset dy="-1" in="SourceAlpha" result="shadowOffsetInner1"/><feComposite in="shadowOffsetInner1" in2="SourceAlpha" k2="-1" k3="1" operator="arithmetic" result="shadowInnerInner1"/><feColorMatrix in="shadowInnerInner1" values="0 0 0 0 1 0 0 0 0 1 0 0 0 0 1 0 0 0 0.5 0"/></filter><filter id="ad" width="109%" height="122.2%" x="-4.5%" y="-5.6%" filterUnits="objectBoundingBox"><feOffset dy="1" in="SourceAlpha" result="shadowOffsetOuter1"/><feColorMatrix in="shadowOffsetOuter1" values="0 0 0 0 0 0 0 0 0 0 0 0 0 0 0 0 0 0 0.08 0"/></filter><filter id="af" width="109%" height="122.2%" x="-4.5%" y="-5.6%" filterUnits="objectBoundingBox"><feOffset dy="-1" in="SourceAlpha" result="shadowOffsetInner1"/><feComposite in="shadowOffsetInner1" in2="SourceAlpha" k2="-1" k3="1" operator="arithmetic" result="shadowInnerInner1"/><feColorMatrix in="shadowInnerInner1" values="0 0 0 0 1 0 0 0 0 1 0 0 0 0 1 0 0 0 0.5 0"/></filter><filter id="ah" width="109%" height="122.2%" x="-4.5%" y="-5.6%" filterUnits="objectBoundingBox"><feOffset dy="1" in="SourceAlpha" result="shadowOffsetOuter1"/><feColorMatrix in="shadowOffsetOuter1" values="0 0 0 0 0 0 0 0 0 0 0 0 0 0 0 0 0 0 0.08 0"/></filter><filter id="aj" width="109%" height="122.2%" x="-4.5%" y="-5.6%" filterUnits="objectBoundingBox"><feOffset dy="-1" in="SourceAlpha" result="shadowOffsetInner1"/><feComposite in="shadowOffsetInner1" in2="SourceAlpha" k2="-1" k3="1" operator="arithmetic" result="shadowInnerInner1"/><feColorMatrix in="shadowInnerInner1" values="0 0 0 0 1 0 0 0 0 1 0 0 0 0 1 0 0 0 0.5 0"/></filter><filter id="al" width="109.1%" height="122.2%" x="-4.5%" y="-5.6%" filterUnits="objectBoundingBox"><feOffset dy="1" in="SourceAlpha" result="shadowOffsetOuter1"/><feColorMatrix in="shadowOffsetOuter1" values="0 0 0 0 0 0 0 0 0 0 0 0 0 0 0 0 0 0 0.08 0"/></filter><filter id="am" width="109.1%" height="122.2%" x="-4.5%" y="-5.6%" filterUnits="objectBoundingBox"><feOffset dy="-1" in="SourceAlpha" result="shadowOffsetInner1"/><feComposite in="shadowOffsetInner1" in2="SourceAlpha" k2="-1" k3="1" operator="arithmetic" result="shadowInnerInner1"/><feColorMatrix in="shadowInnerInner1" values="0 0 0 0 1 0 0 0 0 1 0 0 0 0 1 0 0 0 0.5 0"/></filter><filter id="ao" width="109.1%" height="122.2%" x="-4.5%" y="-5.6%" filterUnits="objectBoundingBox"><feOffset dy="1" in="SourceAlpha" result="shadowOffsetOuter1"/><feColorMatrix in="shadowOffsetOuter1" values="0 0 0 0 0 0 0 0 0 0 0 0 0 0 0 0 0 0 0.08 0"/></filter><filter id="aq" width="109.1%" height="122.2%" x="-4.5%" y="-5.6%" filterUnits="objectBoundingBox"><feOffset dy="-1" in="SourceAlpha" result="shadowOffsetInner1"/><feComposite in="shadowOffsetInner1" in2="SourceAlpha" k2="-1" k3="1" operator="arithmetic" result="shadowInnerInner1"/><feColorMatrix in="shadowInnerInner1" values="0 0 0 0 1 0 0 0 0 1 0 0 0 0 1 0 0 0 0.5 0"/></filter><filter id="as" width="109%" height="122.2%" x="-4.5%" y="-5.6%" filterUnits="objectBoundingBox"><feOffset dy="1" in="SourceAlpha" result="shadowOffsetOuter1"/><feColorMatrix in="shadowOffsetOuter1" values="0 0 0 0 0 0 0 0 0 0 0 0 0 0 0 0 0 0 0.08 0"/></filter><filter id="au" width="109%" height="122.2%" x="-4.5%" y="-5.6%" filterUnits="objectBoundingBox"><feOffset dy="-1" in="SourceAlpha" result="shadowOffsetInner1"/><feComposite in="shadowOffsetInner1" in2="SourceAlpha" k2="-1" k3="1" operator="arithmetic" result="shadowInnerInner1"/><feColorMatrix in="shadowInnerInner1" values="0 0 0 0 1 0 0 0 0 1 0 0 0 0 1 0 0 0 0.5 0"/></filter><filter id="aw" width="106.2%" height="122.2%" x="-3.1%" y="-5.6%" filterUnits="objectBoundingBox"><feOffset dy="1" in="SourceAlpha" result="shadowOffsetOuter1"/><feColorMatrix in="shadowOffsetOuter1" values="0 0 0 0 0 0 0 0 0 0 0 0 0 0 0 0 0 0 0.08 0"/></filter><filter id="ay" width="106.2%" height="122.2%" x="-3.1%" y="-5.6%" filterUnits="objectBoundingBox"><feOffset dy="-1" in="SourceAlpha" result="shadowOffsetInner1"/><feComposite in="shadowOffsetInner1" in2="SourceAlpha" k2="-1" k3="1" operator="arithmetic" result="shadowInnerInner1"/><feColorMatrix in="shadowInnerInner1" values="0 0 0 0 1 0 0 0 0 1 0 0 0 0 1 0 0 0 0.5 0"/></filter><filter id="aA" width="105.9%" height="122.2%" x="-2.9%" y="-5.6%" filterUnits="objectBoundingBox"><feOffset dy="1" in="SourceAlpha" result="shadowOffsetOuter1"/><feColorMatrix in="shadowOffsetOuter1" values="0 0 0 0 0 0 0 0 0 0 0 0 0 0 0 0 0 0 0.08 0"/></filter><filter id="aC" width="105.9%" height="122.2%" x="-2.9%" y="-5.6%" filterUnits="objectBoundingBox"><feOffset dy="-1" in="SourceAlpha" result="shadowOffsetInner1"/><feComposite in="shadowOffsetInner1" in2="SourceAlpha" k2="-1" k3="1" operator="arithmetic" result="shadowInnerInner1"/><feColorMatrix in="shadowInnerInner1" values="0 0 0 0 1 0 0 0 0 1 0 0 0 0 1 0 0 0 0.5 0"/></filter><filter id="aE" width="105.8%" height="122.2%" x="-2.9%" y="-5.6%" filterUnits="objectBoundingBox"><feOffset dy="1" in="SourceAlpha" result="shadowOffsetOuter1"/><feColorMatrix in="shadowOffsetOuter1" values="0 0 0 0 0 0 0 0 0 0 0 0 0 0 0 0 0 0 0.08 0"/></filter><filter id="aG" width="105.8%" height="122.2%" x="-2.9%" y="-5.6%" filterUnits="objectBoundingBox"><feOffset dy="-1" in="SourceAlpha" result="shadowOffsetInner1"/><feComposite in="shadowOffsetInner1" in2="SourceAlpha" k2="-1" k3="1" operator="arithmetic" result="shadowInnerInner1"/><feColorMatrix in="shadowInnerInner1" values="0 0 0 0 1 0 0 0 0 1 0 0 0 0 1 0 0 0 0.5 0"/></filter><filter id="aI" width="102.2%" height="122.2%" x="-1.1%" y="-5.6%" filterUnits="objectBoundingBox"><feOffset dy="1" in="SourceAlpha" result="shadowOffsetOuter1"/><feColorMatrix in="shadowOffsetOuter1" values="0 0 0 0 0 0 0 0 0 0 0 0 0 0 0 0 0 0 0.08 0"/></filter><filter id="aK" width="102.2%" height="122.2%" x="-1.1%" y="-5.6%" filterUnits="objectBoundingBox"><feOffset dy="-1" in="SourceAlpha" result="shadowOffsetInner1"/><feComposite in="shadowOffsetInner1" in2="SourceAlpha" k2="-1" k3="1" operator="arithmetic" result="shadowInnerInner1"/><feColorMatrix in="shadowInnerInner1" values="0 0 0 0 1 0 0 0 0 1 0 0 0 0 1 0 0 0 0.5 0"/></filter><filter id="aM" width="104.5%" height="122.2%" x="-2.3%" y="-5.6%" filterUnits="objectBoundingBox"><feOffset dy="1" in="SourceAlpha" result="shadowOffsetOuter1"/><feColorMatrix in="shadowOffsetOuter1" values="0 0 0 0 0 0 0 0 0 0 0 0 0 0 0 0 0 0 0.08 0"/></filter><filter id="aO" width="104.5%" height="122.2%" x="-2.3%" y="-5.6%" filterUnits="objectBoundingBox"><feOffset dy="-1" in="SourceAlpha" result="shadowOffsetInner1"/><feComposite in="shadowOffsetInner1" in2="SourceAlpha" k2="-1" k3="1" operator="arithmetic" result="shadowInnerInner1"/><feColorMatrix in="shadowInnerInner1" values="0 0 0 0 1 0 0 0 0 1 0 0 0 0 1 0 0 0 0.5 0"/></filter><filter id="aQ" width="109.1%" height="122.2%" x="-4.6%" y="-5.6%" filterUnits="objectBoundingBox"><feOffset dy="1" in="SourceAlpha" result="shadowOffsetOuter1"/><feColorMatrix in="shadowOffsetOuter1" values="0 0 0 0 0 0 0 0 0 0 0 0 0 0 0 0 0 0 0.08 0"/></filter><filter id="aS" width="109.1%" height="122.2%" x="-4.6%" y="-5.6%" filterUnits="objectBoundingBox"><feOffset dy="-1" in="SourceAlpha" result="shadowOffsetInner1"/><feComposite in="shadowOffsetInner1" in2="SourceAlpha" k2="-1" k3="1" operator="arithmetic" result="shadowInnerInner1"/><feColorMatrix in="shadowInnerInner1" values="0 0 0 0 1 0 0 0 0 1 0 0 0 0 1 0 0 0 0.5 0"/></filter><filter id="aU" width="109.1%" height="122.2%" x="-4.5%" y="-5.6%" filterUnits="objectBoundingBox"><feOffset dy="1" in="SourceAlpha" result="shadowOffsetOuter1"/><feColorMatrix in="shadowOffsetOuter1" values="0 0 0 0 0 0 0 0 0 0 0 0 0 0 0 0 0 0 0.08 0"/></filter><filter id="aV" width="109.1%" height="122.2%" x="-4.5%" y="-5.6%" filterUnits="objectBoundingBox"><feOffset dy="-1" in="SourceAlpha" result="shadowOffsetInner1"/><feComposite in="shadowOffsetInner1" in2="SourceAlpha" k2="-1" k3="1" operator="arithmetic" result="shadowInnerInner1"/><feColorMatrix in="shadowInnerInner1" values="0 0 0 0 1 0 0 0 0 1 0 0 0 0 1 0 0 0 0.5 0"/></filter><filter id="aX" width="109%" height="122.2%" x="-4.5%" y="-5.6%" filterUnits="objectBoundingBox"><feOffset dy="1" in="SourceAlpha" result="shadowOffsetOuter1"/><feColorMatrix in="shadowOffsetOuter1" values="0 0 0 0 0 0 0 0 0 0 0 0 0 0 0 0 0 0 0.08 0"/></filter><filter id="aZ" width="109%" height="122.2%" x="-4.5%" y="-5.6%" filterUnits="objectBoundingBox"><feOffset dy="-1" in="SourceAlpha" result="shadowOffsetInner1"/><feComposite in="shadowOffsetInner1" in2="SourceAlpha" k2="-1" k3="1" operator="arithmetic" result="shadowInnerInner1"/><feColorMatrix in="shadowInnerInner1" values="0 0 0 0 1 0 0 0 0 1 0 0 0 0 1 0 0 0 0.5 0"/></filter><filter id="bb" width="104.5%" height="122.2%" x="-2.3%" y="-5.6%" filterUnits="objectBoundingBox"><feOffset dy="1" in="SourceAlpha" result="shadowOffsetOuter1"/><feColorMatrix in="shadowOffsetOuter1" values="0 0 0 0 0 0 0 0 0 0 0 0 0 0 0 0 0 0 0.08 0"/></filter><filter id="bd" width="104.5%" height="122.2%" x="-2.3%" y="-5.6%" filterUnits="objectBoundingBox"><feOffset dy="-1" in="SourceAlpha" result="shadowOffsetInner1"/><feComposite in="shadowOffsetInner1" in2="SourceAlpha" k2="-1" k3="1" operator="arithmetic" result="shadowInnerInner1"/><feColorMatrix in="shadowInnerInner1" values="0 0 0 0 1 0 0 0 0 1 0 0 0 0 1 0 0 0 0.5 0"/></filter><filter id="be" width="141%" height="144.4%" x="-20.5%" y="-22.2%" filterUnits="objectBoundingBox"><feOffset dy="2" in="SourceAlpha" result="shadowOffsetOuter1"/><feGaussianBlur in="shadowOffsetOuter1" result="shadowBlurOuter1" stdDeviation="3"/><feColorMatrix in="shadowBlurOuter1" result="shadowMatrixOuter1" values="0 0 0 0 0 0 0 0 0 0 0 0 0 0 0 0 0 0 0.2 0"/><feMerge><feMergeNode in="shadowMatrixOuter1"/><feMergeNode in="SourceGraphic"/></feMerge></filter><filter id="bh" width="101.3%" height="101.4%" x="-.7%" y="-.7%" filterUnits="objectBoundingBox"><feOffset dy="1" in="SourceAlpha" result="shadowOffsetInner1"/><feComposite in="shadowOffsetInner1" in2="SourceAlpha" k2="-1" k3="1" operator="arithmetic" result="shadowInnerInner1"/><feColorMatrix in="shadowInnerInner1" values="0 0 0 0 1 0 0 0 0 1 0 0 0 0 1 0 0 0 0.351972247 0"/></filter><filter id="bk" width="116.7%" height="114.6%" x="-8.3%" y="-5.2%" filterUnits="objectBoundingBox"><feOffset dy="1" in="SourceAlpha" result="shadowOffsetOuter1"/><feGaussianBlur in="shadowOffsetOuter1" result="shadowBlurOuter1" stdDeviation="1"/><feColorMatrix in="shadowBlurOuter1" values="0 0 0 0 0 0 0 0 0 0 0 0 0 0 0 0 0 0 0.16 0"/></filter><filter id="bm" width="129.5%" height="129.5%" x="-19.3%" y="-17%" filterUnits="objectBoundingBox"><feMorphology in="SourceAlpha" operator="dilate" radius="1" result="shadowSpreadOuter1"/><feOffset dx="-2" dy="-1" in="shadowSpreadOuter1" result="shadowOffsetOuter1"/><feGaussianBlur in="shadowOffsetOuter1" result="shadowBlurOuter1" stdDeviation="1.5"/><feComposite in="shadowBlurOuter1" in2="SourceAlpha" operator="out" result="shadowBlurOuter1"/><feColorMatrix in="shadowBlurOuter1" values="0 0 0 0 0 0 0 0 0 0 0 0 0 0 0 0 0 0 0.12 0"/></filter><filter id="bo" width="120.5%" height="120.5%" x="-14.8%" y="-12.5%" filterUnits="objectBoundingBox"><feOffset dy="1" in="SourceAlpha" result="shadowOffsetInner1"/><feComposite in="shadowOffsetInner1" in2="SourceAlpha" k2="-1" k3="1" operator="arithmetic" result="shadowInnerInner1"/><feColorMatrix in="shadowInnerInner1" values="0 0 0 0 1 0 0 0 0 1 0 0 0 0 1 0 0 0 0.416275131 0"/></filter><linearGradient id="b" x1="50%" x2="50%" y1="50%" y2="100%"><stop offset="0%" stop-color="#898989"/><stop offset="100%" stop-color="#767676"/></linearGradient><linearGradient id="d" x1="50%" x2="50%" y1="0%" y2="100%"><stop offset="0%" stop-color="#ddd"/><stop offset="100%" stop-color="#9e9e9e"/></linearGradient><linearGradient id="g" x1="50%" x2="50%" y1="2.497%" y2="100%"><stop offset="0%" stop-color="#c3c3c3"/><stop offset="100%" stop-color="#717171"/></linearGradient><linearGradient id="j" x1="50%" x2="50%" y1="0%" y2="100%"><stop offset="0%" stop-color="#e9e9e9"/><stop offset="100%" stop-color="#e3e3e3"/></linearGradient><linearGradient id="n" x1="50%" x2="50%" y1="0%" y2="100%"><stop offset="0%" stop-color="#e9e9e9"/><stop offset="100%" stop-color="#e3e3e3"/></linearGradient><linearGradient id="r" x1="50%" x2="50%" y1="0%" y2="100%"><stop offset="0%" stop-color="#e9e9e9"/><stop offset="100%" stop-color="#e3e3e3"/></linearGradient><linearGradient id="v" x1="50%" x2="50%" y1="0%" y2="100%"><stop offset="0%" stop-color="#e9e9e9"/><stop offset="100%" stop-color="#e3e3e3"/></linearGradient><linearGradient id="z" x1="50%" x2="50%" y1="0%" y2="100%"><stop offset="0%" stop-color="#e9e9e9"/><stop offset="100%" stop-color="#e3e3e3"/></linearGradient><linearGradient id="D" x1="50%" x2="50%" y1="0%" y2="100%"><stop offset="0%" stop-color="#e9e9e9"/><stop offset="100%" stop-color="#e3e3e3"/></linearGradient><linearGradient id="H" x1="50%" x2="50%" y1="0%" y2="100%"><stop offset="0%" stop-color="#e9e9e9"/><stop offset="100%" stop-color="#e3e3e3"/></linearGradient><linearGradient id="L" x1="50%" x2="50%" y1="0%" y2="100%"><stop offset="0%" stop-color="#e9e9e9"/><stop offset="100%" stop-color="#e3e3e3"/></linearGradient><linearGradient id="P" x1="50%" x2="50%" y1="0%" y2="100%"><stop offset="0%" stop-color="#e9e9e9"/><stop offset="100%" stop-color="#e3e3e3"/></linearGradient><linearGradient id="W" x1="50%" x2="50%" y1="0%" y2="100%"><stop offset="0%" stop-color="#e9e9e9"/><stop offset="100%" stop-color="#e3e3e3"/></linearGradient><linearGradient id="aa" x1="50%" x2="50%" y1="0%" y2="100%"><stop offset="0%" stop-color="#e9e9e9"/><stop offset="100%" stop-color="#e3e3e3"/></linearGradient><linearGradient id="ae" x1="50%" x2="50%" y1="0%" y2="100%"><stop offset="0%" stop-color="#e9e9e9"/><stop offset="100%" stop-color="#e3e3e3"/></linearGradient><linearGradient id="ai" x1="50%" x2="50%" y1="0%" y2="100%"><stop offset="0%" stop-color="#e9e9e9"/><stop offset="100%" stop-color="#e3e3e3"/></linearGradient><linearGradient id="ap" x1="50%" x2="50%" y1="0%" y2="100%"><stop offset="0%" stop-color="#e9e9e9"/><stop offset="100%" stop-color="#e3e3e3"/></linearGradient><linearGradient id="at" x1="50%" x2="50%" y1="0%" y2="100%"><stop offset="0%" stop-color="#e9e9e9"/><stop offset="100%" stop-color="#e3e3e3"/></linearGradient><linearGradient id="ax" x1="50%" x2="50%" y1="0%" y2="100%"><stop offset="0%" stop-color="#e9e9e9"/><stop offset="100%" stop-color="#e3e3e3"/></linearGradient><linearGradient id="aB" x1="50%" x2="50%" y1="0%" y2="100%"><stop offset="0%" stop-color="#e9e9e9"/><stop offset="100%" stop-color="#e3e3e3"/></linearGradient><linearGradient id="aF" x1="50%" x2="50%" y1="0%" y2="100%"><stop offset="0%" stop-color="#e9e9e9"/><stop offset="100%" stop-color="#e3e3e3"/></linearGradient><linearGradient id="aJ" x1="50%" x2="50%" y1="0%" y2="100%"><stop offset="0%" stop-color="#e9e9e9"/><stop offset="100%" stop-color="#e3e3e3"/></linearGradient><linearGradient id="aN" x1="50%" x2="50%" y1="0%" y2="100%"><stop offset="0%" stop-color="#e9e9e9"/><stop offset="100%" stop-color="#e3e3e3"/></linearGradient><linearGradient id="aR" x1="50%" x2="50%" y1="0%" y2="100%"><stop offset="0%" stop-color="#e9e9e9"/><stop offset="100%" stop-color="#e3e3e3"/></linearGradient><linearGradient id="aY" x1="50%" x2="50%" y1="0%" y2="100%"><stop offset="0%" stop-color="#e9e9e9"/><stop offset="100%" stop-color="#e3e3e3"/></linearGradient><linearGradient id="bc" x1="50%" x2="50%" y1="0%" y2="100%"><stop offset="0%" stop-color="#e9e9e9"/><stop offset="100%" stop-color="#e3e3e3"/></linearGradient><linearGradient id="bi" x1="54.878%" x2="54.878%" y1="-1.22%" y2="101.22%"><stop offset="0%" stop-color="#3ba9a4"/><stop offset="100%" stop-color="#16706f"/></linearGradient><linearGradient id="bn" x1="50%" x2="50%" y1="101.163%" y2="-1.163%"><stop offset="0%" stop-color="#c7c7c7"/><stop offset="100%" stop-color="#fcfcfc"/></linearGradient><linearGradient id="bp" x1="41.429%" x2="41.429%" y1="101.163%" y2="-1.051%"><stop offset="0%" stop-opacity=".376"/><stop offset="100%" stop-opacity=".1"/></linearGradient><linearGradient id="bq" x1="50%" x2="50%" y1="0%" y2="100%"><stop offset="0%" stop-color="#797b79"/><stop offset="97.282%" stop-color="#151715"/></linearGradient><linearGradient id="br" x1="50%" x2="50%" y1="0%" y2="100%"><stop offset="0%" stop-opacity=".069"/><stop offset="100%" stop-opacity=".102"/></linearGradient><linearGradient id="bs" x1="50%" x2="50%" y1="0%" y2="100%"><stop offset="0%" stop-opacity=".069"/><stop offset="100%" stop-opacity=".102"/></linearGradient><path id="c" d="M11.367 1h93.266a6 6 0 0 1 5.963 5.334l4.38 39.222A4 4 0 0 1 111 50H5a4 4 0 0 1-3.975-4.444l4.38-39.222A6 6 0 0 1 11.366 1"/><path id="h" d="M11.79 4h6.505a2 2 0 0 1 2 2l-.002.085-.212 5A2 2 0 0 1 18.083 13h-6.848a2 2 0 0 1-1.988-2.22l.555-5A2 2 0 0 1 11.79 4"/><path id="l" d="M28.213 15h6.95a2 2 0 0 1 1.994 1.85l.005.173-.117 5.023A2 2 0 0 1 35.046 24h-6.984a2 2 0 0 1-1.995-1.85l-.005-.18.152-5.03a2 2 0 0 1 2-1.94"/><path id="p" d="M9.79 26h6.593a2 2 0 0 1 1.994 1.85l.005.205-.278 5.055A2 2 0 0 1 16.107 35H9.235a2 2 0 0 1-1.988-2.22l.555-5A2 2 0 0 1 9.79 26"/><path id="t" d="M8.79 37h6.585a2 2 0 0 1 2 2l-.003.108-.27 5A2 2 0 0 1 15.105 46h-6.87a2 2 0 0 1-1.988-2.22l.555-5A2 2 0 0 1 8.79 37"/><path id="x" d="M41.153 15h6.938a2 2 0 0 1 1.994 1.85l.006.176-.065 5a2 2 0 0 1-2 1.974h-6.982a2 2 0 0 1-1.994-1.85l-.005-.194.109-5a2 2 0 0 1 2-1.956"/><path id="B" d="M22.273 26h6.934a2 2 0 0 1 1.994 1.85l.006.18-.15 5.03A2 2 0 0 1 29.059 35H22.08a2 2 0 0 1-1.994-1.85l-.005-.189.195-5.039A2 2 0 0 1 22.273 26"/><path id="F" d="M21.357 37h6.824a2 2 0 0 1 1.994 1.85l.005.202-.13 5A2 2 0 0 1 28.052 46h-6.947a2 2 0 0 1-2-2l.002-.101.253-5A2 2 0 0 1 21.357 37"/><path id="J" d="M35.14 26h6.922a2 2 0 0 1 1.994 1.85l.006.168-.045 5a2 2 0 0 1-2 1.982h-6.976a2 2 0 0 1-1.995-1.85l-.005-.19.1-5a2 2 0 0 1 2-1.96"/><path id="N" d="M48 26h7a2 2 0 0 1 2 2v5a2 2 0 0 1-2 2h-7a2 2 0 0 1-2-2v-5a2 2 0 0 1 2-2"/><path id="R" d="M61 26h7a2 2 0 0 1 2 2v5a2 2 0 0 1-2 2h-7a2 2 0 0 1-2-2v-5a2 2 0 0 1 2-2"/><path id="U" d="M73.923 26h6.973a2 2 0 0 1 2 1.97l.074 5a2 2 0 0 1-1.821 2.022L80.97 35h-6.992a2 2 0 0 1-2-1.978l-.055-5a2 2 0 0 1 1.828-2.015z"/><path id="Y" d="M86.87 26h7.012a2 2 0 0 1 2 1.966l.084 5a2 2 0 0 1-1.817 2.026l-.183.008h-7.003a2 2 0 0 1-2-1.963l-.093-5a2 2 0 0 1 1.813-2.028z"/><path id="ac" d="M99.64 26h6.57a2 2 0 0 1 1.988 1.78l.555 5a2 2 0 0 1-1.988 2.22h-6.854a2 2 0 0 1-1.998-1.91l-.226-5a2 2 0 0 1 1.758-2.076z"/><path id="ag" d="M81.836 37h6.772a2 2 0 0 1 1.997 1.89l.278 5a2 2 0 0 1-1.738 2.093l-.204.016-6.988.001a2 2 0 0 1-1.999-1.953l-.118-5a2 2 0 0 1 1.803-2.037z"/><path id="ak" d="M54 15h7a2 2 0 0 1 2 2v5a2 2 0 0 1-2 2h-7a2 2 0 0 1-2-2v-5a2 2 0 0 1 2-2"/><path id="an" d="M66.917 15h6.944a2 2 0 0 1 2 1.96l.098 5a2 2 0 0 1-1.81 2.031l-.19.009h-6.983a2 2 0 0 1-2-1.976l-.059-5a2 2 0 0 1 1.827-2.017z"/><path id="ar" d="M79.824 15h6.774a2 2 0 0 1 1.997 1.886l.285 5a2 2 0 0 1-1.883 2.11l-.114.004H79.95a2 2 0 0 1-2-1.95l-.126-5a2 2 0 0 1 1.8-2.04z"/><path id="av" d="M10.79 15h11.47a2 2 0 0 1 1.995 1.85l.005.187-.188 5.038A2 2 0 0 1 22.073 24H10.235a2 2 0 0 1-1.988-2.22l.555-5A2 2 0 0 1 10.79 15"/><path id="az" d="M92.628 15h12.582a2 2 0 0 1 1.988 1.78l.555 5a2 2 0 0 1-1.988 2.22H92.91a2 2 0 0 1-1.998-1.906l-.234-5a2 2 0 0 1 1.755-2.08z"/><path id="aD" d="M94.62 37h12.59a2 2 0 0 1 1.988 1.78l.555 5a2 2 0 0 1-1.988 2.22H94.894a2 2 0 0 1-1.997-1.89l-.274-5a2 2 0 0 1 1.887-2.107z"/><path id="aH" d="M34.172 37h41.67a2 2 0 0 1 1.999 1.955l.113 5a2 2 0 0 1-1.805 2.036l-.195.009H34.05a2 2 0 0 1-1.995-1.85l-.005-.174.122-5.025a2 2 0 0 1 2-1.951"/><path id="aL" d="M24.198 4h18.035a2 2 0 0 1 1.994 1.85l.005.183-.167 5.034a2 2 0 0 1-2 1.933H24.058a2 2 0 0 1-1.994-1.85l-.005-.206.14-5a2 2 0 0 1 2-1.944"/><path id="aP" d="M48.17 4H55a2 2 0 0 1 2 2v5a2 2 0 0 1-2 2h-6.95a2 2 0 0 1-1.995-1.85l-.005-.199.121-5a2 2 0 0 1 2-1.951"/><path id="aT" d="M61 4h7a2 2 0 0 1 2 2v5a2 2 0 0 1-2 2h-7a2 2 0 0 1-2-2V6a2 2 0 0 1 2-2"/><path id="aW" d="M73.882 4h6.891a2 2 0 0 1 1.999 1.935l.161 5a2 2 0 0 1-1.785 2.054l-.214.011h-6.968a2 2 0 0 1-2-1.966l-.084-5A2 2 0 0 1 73.7 4.008z"/><path id="ba" d="M86.63 4h17.58a2 2 0 0 1 1.988 1.78l.555 5a2 2 0 0 1-1.988 2.22H86.91a2 2 0 0 1-1.998-1.907l-.233-5a2 2 0 0 1 1.756-2.078z"/><path id="bf" d="M7 1h64a6 6 0 0 1 6 6v45.102a6 6 0 0 1-6 6H48.113a2 2 0 0 0-1.7.946L39.85 69.63a1 1 0 0 1-1.7 0l-6.563-10.582a2 2 0 0 0-1.7-.946H7a6 6 0 0 1-6-6V7a6 6 0 0 1 6-6"/><path id="bj" d="M42 55V39h13v2h5V16H42V7h-6v9H18v25h5v-2h13v16zm13-21H42V21h13zm-19 0H23V21h13z"/><radialGradient id="bg" cx="50%" cy="0%" r="109.814%" fx="50%" fy="0%" gradientTransform="matrix(0 1 -.90925 0 .5 -.5)"><stop offset="0%" stop-color="#84e0d2"/><stop offset="100%" stop-color="#108989"/></radialGradient><circle id="bl" cx="22" cy="22" r="22"/></defs><g fill="none" fill-rule="evenodd"><g filter="url(#a)" transform="translate(4 63)"><path fill="url(#b)" d="M0 46h116v2a5 5 0 0 1-5 5H5a5 5 0 0 1-5-5z"/><use xlink:href="#c" fill="url(#d)"/><use xlink:href="#c" fill="#000" filter="url(#f)"/><path fill="url(#g)" fill-rule="nonzero" d="M104.633 0H11.367a7 7 0 0 0-6.956 6.223L.03 45.445A5 5 0 0 0 5.001 51h106a5 5 0 0 0 4.968-5.555l-4.38-39.222A7 7 0 0 0 104.633 0m0 1a6 6 0 0 1 5.963 5.334l4.38 39.222A4 4 0 0 1 111 50H5a4 4 0 0 1-3.975-4.444l4.38-39.222A6 6 0 0 1 11.366 1z"/><use xlink:href="#h" fill="#000" filter="url(#i)"/><use xlink:href="#h" fill="url(#j)"/><use xlink:href="#h" fill="#000" filter="url(#k)"/><use xlink:href="#l" fill="#000" filter="url(#m)"/><use xlink:href="#l" fill="url(#n)"/><use xlink:href="#l" fill="#000" filter="url(#o)"/><use xlink:href="#p" fill="#000" filter="url(#q)"/><use xlink:href="#p" fill="url(#r)"/><use xlink:href="#p" fill="#000" filter="url(#s)"/><use xlink:href="#t" fill="#000" filter="url(#u)"/><use xlink:href="#t" fill="url(#v)"/><use xlink:href="#t" fill="#000" filter="url(#w)"/><use xlink:href="#x" fill="#000" filter="url(#y)"/><use xlink:href="#x" fill="url(#z)"/><use xlink:href="#x" fill="#000" filter="url(#A)"/><use xlink:href="#B" fill="#000" filter="url(#C)"/><use xlink:href="#B" fill="url(#D)"/><use xlink:href="#B" fill="#000" filter="url(#E)"/><use xlink:href="#F" fill="#000" filter="url(#G)"/><use xlink:href="#F" fill="url(#H)"/><use xlink:href="#F" fill="#000" filter="url(#I)"/><use xlink:href="#J" fill="#000" filter="url(#K)"/><use xlink:href="#J" fill="url(#L)"/><use xlink:href="#J" fill="#000" filter="url(#M)"/><use xlink:href="#N" fill="#000" filter="url(#O)"/><use xlink:href="#N" fill="url(#P)"/><use xlink:href="#N" fill="#000" filter="url(#Q)"/><use xlink:href="#R" fill="#000" filter="url(#S)"/><use xlink:href="#R" fill="url(#P)"/><use xlink:href="#R" fill="#000" filter="url(#T)"/><use xlink:href="#U" fill="#000" filter="url(#V)"/><use xlink:href="#U" fill="url(#W)"/><use xlink:href="#U" fill="#000" filter="url(#X)"/><use xlink:href="#Y" fill="#000" filter="url(#Z)"/><use xlink:href="#Y" fill="url(#aa)"/><use xlink:href="#Y" fill="#000" filter="url(#ab)"/><use xlink:href="#ac" fill="#000" filter="url(#ad)"/><use xlink:href="#ac" fill="url(#ae)"/><use xlink:href="#ac" fill="#000" filter="url(#af)"/><use xlink:href="#ag" fill="#000" filter="url(#ah)"/><use xlink:href="#ag" fill="url(#ai)"/><use xlink:href="#ag" fill="#000" filter="url(#aj)"/><use xlink:href="#ak" fill="#000" filter="url(#al)"/><use xlink:href="#ak" fill="url(#P)"/><use xlink:href="#ak" fill="#000" filter="url(#am)"/><use xlink:href="#an" fill="#000" filter="url(#ao)"/><use xlink:href="#an" fill="url(#ap)"/><use xlink:href="#an" fill="#000" filter="url(#aq)"/><use xlink:href="#ar" fill="#000" filter="url(#as)"/><use xlink:href="#ar" fill="url(#at)"/><use xlink:href="#ar" fill="#000" filter="url(#au)"/><use xlink:href="#av" fill="#000" filter="url(#aw)"/><use xlink:href="#av" fill="url(#ax)"/><use xlink:href="#av" fill="#000" filter="url(#ay)"/><use xlink:href="#az" fill="#000" filter="url(#aA)"/><use xlink:href="#az" fill="url(#aB)"/><use xlink:href="#az" fill="#000" filter="url(#aC)"/><use xlink:href="#aD" fill="#000" filter="url(#aE)"/><use xlink:href="#aD" fill="url(#aF)"/><use xlink:href="#aD" fill="#000" filter="url(#aG)"/><use xlink:href="#aH" fill="#000" filter="url(#aI)"/><use xlink:href="#aH" fill="url(#aJ)"/><use xlink:href="#aH" fill="#000" filter="url(#aK)"/><use xlink:href="#aL" fill="#000" filter="url(#aM)"/><use xlink:href="#aL" fill="url(#aN)"/><use xlink:href="#aL" fill="#000" filter="url(#aO)"/><use xlink:href="#aP" fill="#000" filter="url(#aQ)"/><use xlink:href="#aP" fill="url(#aR)"/><use xlink:href="#aP" fill="#000" filter="url(#aS)"/><use xlink:href="#aT" fill="#000" filter="url(#aU)"/><use xlink:href="#aT" fill="url(#P)"/><use xlink:href="#aT" fill="#000" filter="url(#aV)"/><use xlink:href="#aW" fill="#000" filter="url(#aX)"/><use xlink:href="#aW" fill="url(#aY)"/><use xlink:href="#aW" fill="#000" filter="url(#aZ)"/><use xlink:href="#ba" fill="#000" filter="url(#bb)"/><use xlink:href="#ba" fill="url(#bc)"/><use xlink:href="#ba" fill="#000" filter="url(#bd)"/></g><g fill-rule="nonzero" filter="url(#be)" transform="translate(23 10)"><use xlink:href="#bf" fill="url(#bg)"/><use xlink:href="#bf" fill="#000" filter="url(#bh)"/><path fill="url(#bi)" d="M71 0H7a7 7 0 0 0-7 7v45.102a7 7 0 0 0 7 7h22.887a1 1 0 0 1 .85.473L37.3 70.157a2 2 0 0 0 3.4 0l6.563-10.582a1 1 0 0 1 .85-.473H71a7 7 0 0 0 7-7V7a7 7 0 0 0-7-7m0 1a6 6 0 0 1 6 6v45.102a6 6 0 0 1-6 6H48.113a2 2 0 0 0-1.7.946L39.85 69.63a1 1 0 0 1-1.7 0l-6.563-10.582a2 2 0 0 0-1.7-.946H7a6 6 0 0 1-6-6V7a6 6 0 0 1 6-6z"/><use xlink:href="#bj" fill="#000" filter="url(#bk)"/><use xlink:href="#bj" fill="#fff"/></g><g fill-rule="nonzero"><g stroke-linejoin="round" transform="translate(80 80)"><use xlink:href="#bl" fill="#000" filter="url(#bm)"/><use xlink:href="#bl" fill="url(#bn)"/><use xlink:href="#bl" fill="#000" filter="url(#bo)"/><circle cx="22" cy="22" r="22.5" stroke="url(#bp)"/></g><path fill="url(#bq)" d="M37.444 22c0-1.304.956-2.522 2.348-3.043-.174-1.13-.522-2.261-.87-3.305-1.478.174-2.87-.348-3.565-1.478-.696-1.13-.435-2.609.522-3.826-.696-.87-1.479-1.652-2.348-2.435-1.304.957-2.783 1.217-3.913.522S27.966 6.348 28.14 4.87c-1.044-.348-2.174-.696-3.305-.87-.522 1.391-1.739 2.348-3.043 2.348S19.27 5.39 18.748 4c-1.13.174-2.26.522-3.304.87.058.497.038.985-.058 1.44-.188.896-.67 1.663-1.42 2.125-1.13.695-2.609.435-3.826-.522-.87.696-1.653 1.478-2.435 2.348.198.278.365.57.497.867.446 1.007.494 2.087.025 2.959-.696 1.13-2.087 1.652-3.566 1.478-.347 1.044-.695 2.174-.87 3.305 1.392.608 2.349 1.826 2.349 3.13q0 .308-.07.606c-.242 1.064-1.106 1.998-2.278 2.438.174 1.13.521 2.26.87 3.304 1.478-.174 2.956.26 3.564 1.478.696 1.13.435 2.609-.521 3.826.695.87 1.478 1.652 2.348 2.435 1.217-.957 2.695-1.13 3.826-.522 1.13.696 1.652 2.087 1.478 3.565 1.043.348 2.174.696 3.304.87.609-1.391 1.74-2.348 3.044-2.348s2.521.957 3.043 2.348c1.13-.174 2.174-.522 3.305-.87-.174-1.478.347-2.87 1.478-3.565 1.13-.695 2.609-.435 3.826.522.87-.696 1.652-1.377 2.435-2.247-.957-1.217-1.13-2.797-.522-3.927.696-1.13 2.087-1.652 3.565-1.478.348-1.044.696-2.174.87-3.305-1.305-.695-2.261-1.826-2.261-3.13m-28.014.395c0-6.138 3.934-11.253 9.587-12.276v11.025l-8.922 5.493a14 14 0 0 1-.103-.333 13.6 13.6 0 0 1-.562-3.91m12.362 12.4c-3.366 0-6.451-1.452-8.739-3.822q-.201-.21 8.739-5.93 8.71 5.93 8.711 5.957c0 .022-.036.038-.055.056-2.278 2.321-5.33 3.74-8.656 3.74m3.225-13.635V10.119c5.653 1.023 9.57 6.138 9.57 12.276a13.3 13.3 0 0 1-.665 4.205z" transform="translate(80 80)"/><path fill="url(#br)" d="m24.184 2.888.803.124c.854.131 1.688.341 2.736.67l.733.239.772.257-.095.808c-.136 1.153.261 2.137 1.009 2.597.672.414 1.634.304 2.614-.348l.184-.128.655-.481.605.544c.868.781 1.576 1.495 2.198 2.234l.262.32.495.618-.49.624c-.743.945-.894 1.972-.456 2.684.431.701 1.323 1.094 2.382 1.028l.214-.019.809-.095.257.772c.428 1.283.696 2.237.862 3.184l.047.284.124.804-.761.285c-1.028.385-1.699 1.25-1.699 2.107 0 .768.561 1.56 1.532 2.136l.2.112.625.334-.108.7c-.146.95-.389 1.873-.786 3.094l-.38 1.147-.809-.095c-1.152-.136-2.136.261-2.568.96-.396.735-.292 1.795.303 2.663l.125.171.52.662-.563.625c-.664.738-1.337 1.365-2.214 2.084l-.958.77-.624-.49c-.945-.742-1.972-.894-2.684-.456-.701.431-1.094 1.323-1.028 2.383l.019.214.097.827-1.864.575-.416.122q-.098.03-.193.055c-.515.144-.977.255-1.43.338l-.34.057-.803.124-.285-.76c-.386-1.029-1.25-1.7-2.107-1.7-.777 0-1.543.569-2.033 1.548l-.095.2-.308.705-.76-.117c-.854-.131-1.687-.341-2.735-.67l-.733-.239-.772-.257.095-.808c.135-1.153-.262-2.137-.96-2.568-.73-.393-1.701-.297-2.563.301l-.17.126-.662.52-.625-.563c-.868-.78-1.577-1.495-2.199-2.234l-.261-.32-.495-.618.49-.624c.699-.89.874-1.852.491-2.62l-.078-.14c-.333-.666-1.215-1.033-2.34-.953l-.214.02-.808.095-.257-.772c-.428-1.283-.697-2.237-.863-3.184l-.047-.284-.123-.803.76-.286c.864-.324 1.49-.995 1.656-1.723q.044-.192.044-.384c0-.805-.599-1.64-1.564-2.127l-.185-.087-.705-.309.117-.76c.132-.853.342-1.687.672-2.735l.238-.733.257-.772.808.095c1.153.136 2.137-.261 2.568-.96.298-.553.285-1.304-.058-2.079a4 4 0 0 0-.247-.465l-.15-.226-.467-.653.538-.597c.78-.868 1.495-1.576 2.234-2.198l.319-.262.619-.495.623.49c.946.742 1.973.894 2.685.456.486-.3.826-.816.966-1.48.059-.278.08-.577.063-.884l-.02-.233-.095-.808.772-.257.733-.238c.931-.293 1.693-.492 2.451-.625l.284-.046.803-.124.286.76c.385 1.029 1.25 1.7 2.107 1.7.806 0 1.62-.594 2.034-1.522l.073-.177zm14.738 12.764c-1.478.174-2.87-.348-3.565-1.478-.696-1.13-.435-2.609.522-3.826-.696-.87-1.479-1.652-2.348-2.435-.745.547-1.548.866-2.31.91l-.189.005a2.7 2.7 0 0 1-1.414-.393c-1.13-.696-1.652-2.087-1.478-3.565-1.044-.348-2.174-.696-3.305-.87-.522 1.391-1.739 2.348-3.043 2.348S19.27 5.39 18.748 4c-1.13.174-2.26.522-3.304.87.058.497.038.985-.058 1.44-.188.896-.67 1.663-1.42 2.125a2.65 2.65 0 0 1-1.224.386l-.186.007c-.81.003-1.663-.323-2.416-.915-.87.696-1.653 1.478-2.435 2.348.198.278.365.57.497.867.446 1.007.494 2.087.025 2.959-.696 1.13-2.087 1.652-3.566 1.478-.347 1.044-.695 2.174-.87 3.305 1.392.608 2.349 1.826 2.349 3.13q0 .308-.07.606c-.242 1.064-1.106 1.998-2.278 2.438.149.968.426 1.937.72 2.852l.15.452.2-.02.202-.012.2-.005.198.003c1.186.044 2.267.516 2.764 1.512.696 1.13.435 2.609-.521 3.826.58.725 1.22 1.39 1.92 2.043l.428.392.194-.145c.654-.46 1.372-.703 2.064-.73h.207l.205.01c.407.037.799.151 1.156.343 1.13.696 1.652 2.087 1.478 3.565.894.299 1.853.597 2.82.785l.484.085.09-.196c.627-1.284 1.712-2.152 2.954-2.152 1.245 0 2.41.872 2.968 2.161l.075.187.48-.085a18 18 0 0 0 1.686-.434l1.139-.35c-.174-1.479.347-2.87 1.478-3.566a2.65 2.65 0 0 1 1.224-.386l.186-.007.187.005c.677.04 1.377.302 2.018.753l.21.157.369-.298a18.5 18.5 0 0 0 2.067-1.949c-.957-1.217-1.13-2.797-.522-3.927.591-.96 1.685-1.482 2.908-1.51h.217l.22.01.22.022.149-.452c.295-.915.572-1.884.72-2.853-1.304-.695-2.26-1.826-2.26-3.13s.956-2.522 2.348-3.043c-.174-1.13-.522-2.261-.87-3.305" transform="translate(80 80)"/><path stroke="url(#bs)" d="M21.784 25.643c4.608 3.129 7.472 4.887 8.091 5.275-2.2 2.118-5.019 3.377-8.083 3.377-3.047 0-5.852-1.244-8-3.294a19 19 0 0 1 1.626-1.202q2.112-1.432 6.366-4.156Zm-3.267-14.909v10.131l-8.12 5c-.332-1.26-.467-2.342-.467-3.47 0-2.96.949-5.676 2.584-7.77 1.495-1.914 3.565-3.308 6.003-3.89Zm7 0c2.435.582 4.5 1.975 5.992 3.888 1.633 2.094 2.578 4.81 2.578 7.773 0 1.07-.12 2.08-.363 3.073l-8.207-4.6Z" transform="translate(80 80)"/></g></g></svg>