<svg xmlns="http://www.w3.org/2000/svg" viewBox="0 0 64 64"><rect width="56" height="56" x="4" y="5" opacity=".2" ry="8"/><rect width="56" height="56" x="4" y="4" fill="#4d4d4d" ry="8"/><path d="m13 13 15.938 21.25L13 53h4l13.813-16.25L43 53h8L35.063 31.75 51 13h-4L33.188 29.25 21 13Zm4 2h3l27 36h-3z" opacity=".2"/><path fill="#fff" d="m13 12 15.938 21.25L13 52h4l13.813-16.25L43 52h8L35.063 30.75 51 12h-4L33.188 28.25 21 12Zm4 2h3l27 36h-3z"/><path fill="#fff" d="M12 4c-4.432 0-8 3.568-8 8v1c0-4.432 3.568-8 8-8h40c4.432 0 8 3.568 8 8v-1c0-4.432-3.568-8-8-8z" opacity=".1"/></svg>