<svg xmlns="http://www.w3.org/2000/svg" viewBox="0 0 64 64"><path d="M32 14a19 19 0 0 0-15.492 8.027 15 15 0 0 0-12.676 7.82l-.027.008A14.94 14.94 0 0 0 2 37a14.94 14.94 0 0 0 4.383 10.566l.027.028a15 15 0 0 0 1.758 1.511c.03.023.063.041.094.063q.557.402 1.152.754c.088.052.18.098.27.148a15 15 0 0 0 1.433.711q.513.218 1.043.399.196.069.395.133c.374.115.757.21 1.144.296.128.03.254.065.383.09.51.1 1.027.183 1.555.23V52H50c6.627 0 12-5.373 12-12 0-6.515-5.196-11.807-11.668-11.984A19 19 0 0 0 32 14" opacity=".2"/><circle cx="32" cy="32" r="19" fill="#056ab6"/><path fill="#fff" d="M32 13a19 19 0 0 0-19 19 19 19 0 0 0 .018.512A19 19 0 0 1 32 14a19 19 0 0 1 18.977 18.518A19 19 0 0 0 51 32a19 19 0 0 0-19-19" opacity=".1"/><path fill="#138fe6" d="M50 27a15.2 15.2 0 0 0-4.559.906l-.004.004-13.074 5.457L4.88 44.81c2.463 3.383 6.304 5.714 10.758 6.12V51H50c6.627 0 12-5.373 12-12s-5.373-12-12-12"/><path fill="#1581d9" d="M17 21a15 15 0 0 0-13.168 7.849l-.026.008A14.94 14.94 0 0 0 2 36c.004 7.753 5.915 14.226 13.636 14.93V51h34.091a12.27 12.27 0 0 0 10.83-6.515L39.51 31.941l-15.118-9.01-.047.013A15 15 0 0 0 17 21"/><path fill="#38afec" d="m37.973 31.023-5.61 2.344L4.88 44.81a15.1 15.1 0 0 0 3.289 3.296c.03.023.063.041.094.063q.557.403 1.152.754c.088.052.18.098.27.148a15 15 0 0 0 1.433.711q.512.218 1.043.399.196.069.395.133c.374.116.758.21 1.144.296.128.03.254.065.383.09.51.1 1.027.183 1.555.23V51h34.09c4.536-.003 8.7-2.51 10.828-6.516L39.512 31.941z"/><path fill="#fff" d="M50 27a15.2 15.2 0 0 0-4.559.906l-.004.004-13.074 5.457L4.88 44.81q.283.386.596.752l26.888-11.194c4.013-1.675 8.63-3.603 13.075-5.457l.003-.004A15.2 15.2 0 0 1 50 28c6.459 0 11.71 5.106 11.975 11.5.009-.166.025-.331.025-.5 0-6.627-5.373-12-12-12" opacity=".2"/><path fill="#fff" d="M17 21a15 15 0 0 0-13.168 7.848l-.027.007A14.94 14.94 0 0 0 2 36c0 .135.014.267.02.4a14.9 14.9 0 0 1 1.785-6.545l.027-.007A15 15 0 0 1 17 22a15 15 0 0 1 7.344 1.945l.05-.015 15.118 9.011L60.125 45.23q.225-.363.43-.745L39.512 31.941 24.395 22.93l-.051.015A15 15 0 0 0 17 21" opacity=".1"/></svg>