<svg xmlns="http://www.w3.org/2000/svg" xmlns:xlink="http://www.w3.org/1999/xlink" viewBox="0 0 96 96"><defs><linearGradient id="b" x1="56.092%" x2="50%" y1="41.448%" y2="60.845%"><stop offset="0%" stop-color="#a6ecc7"/><stop offset="100%" stop-color="#e3f4eb"/></linearGradient><linearGradient id="c" x1="50%" x2="59.135%" y1="27.827%" y2="65.967%"><stop offset="0%" stop-color="#44b161"/><stop offset="90.886%" stop-color="#9ed9b0"/><stop offset="100%" stop-color="#a4dbb6"/></linearGradient><filter id="a" width="129.5%" height="139.5%" x="-15.1%" y="-20.2%" filterUnits="objectBoundingBox"><feOffset dy="2" in="SourceAlpha" result="shadowOffsetOuter1"/><feGaussianBlur in="shadowOffsetOuter1" result="shadowBlurOuter1" stdDeviation="2"/><feColorMatrix in="shadowBlurOuter1" result="shadowMatrixOuter1" values="0 0 0 0 0 0 0 0 0 0 0 0 0 0 0 0 0 0 0.2 0"/><feMerge><feMergeNode in="shadowMatrixOuter1"/><feMergeNode in="SourceGraphic"/></feMerge></filter></defs><g fill="none" fill-rule="evenodd" filter="url(#a)" transform="translate(7 17)"><path fill="url(#b)" stroke="#4b4b4b" d="M21.331 27.142Q12.687 21.845 7.36 23.46C2.034 25.076-3.49 34.89 2.809 38.12c6.299 3.232 15.26-4.771 20.66-3.562 5.399 1.21 2.334 10.71 2.334 16.563v8.346a2 2 0 0 0 2 2h7.96a2 2 0 0 0 1.996-1.87q.489-7.47-.134-10.47-.7-3.362-.85-6.182 9.72 3.592 14.139 2.987 4.42-.605 10.433-2.252v15.787a2 2 0 0 0 2 2h8.892a2 2 0 0 0 1.996-1.87q.321-4.972-.967-9.379-1.528-5.226-.737-9.924 1.927-.945 3.087.62c1.16 1.564 4.745 2.211 6.074 2.031 3.242-.44-5.326-7.54-6.662-9.795q-1.335-2.255-.97-4.723z"/><path fill="url(#c)" stroke="#4b4b4b" d="M22.017 26.493Q34.48 39.076 51.476 37.878q16.42-1.155 24.31-9.254a2 2 0 0 0-.075-2.865q-1.9-1.755-3.447-5.808C70.068 14.2 64.253 0 48.325 0S28.447 14.863 25.783 19.163q-1.779 2.871-3.614 4.377a2 2 0 0 0-.152 2.953Z"/><path stroke="#4b4b4b" d="M30.249 10.678q2.979-.57 7.063 2.233c4.085 2.803 18.371 3.848 21.536 3.325q3.165-.522 10.147-3.325m-43.117 5.76q1.308.54 6.814 2.407c5.506 1.867 9.706 7.33 18.63 7.33s13.854-3.328 15.764-3.328q1.908 0 6.392-2.135"/><path stroke="#4b4b4b" d="M48.325 0c-6.633 2.733-16.413 10.312-16.413 18.991q0 8.68-6.66 10.523M48.847 0q-8.593 17.748-8.593 22.56c0 4.812-3.503 12.58-5.763 12.58m37.612-3.457c-5.84 0-5.607-14.188-9.286-19.972S56.701 3.407 49.622.717c4.772 5.69 7.927 14.105 7.079 17.954-.848 3.848-.248 12.412 2.514 17.954M5.691 34.023q-1.716 2.45-3.857 2.449"/><circle cx="4.692" cy="30.083" r="1" fill="#4b4b4b"/><path stroke="#4b4b4b" d="M61.535 56.684h2.076a2 2 0 0 1 2 2v2.783m9.157-4.384H72.69a2 2 0 0 0-2 2v2.783"/></g></svg>