<svg xmlns="http://www.w3.org/2000/svg" xmlns:xlink="http://www.w3.org/1999/xlink" viewBox="0 0 96 96"><defs><linearGradient id="b" x1="50%" x2="50%" y1="0%" y2="100%"><stop offset="0%" stop-color="#ff6fb0"/><stop offset="48.881%" stop-color="#d87eff"/><stop offset="100%" stop-color="#8070ff"/></linearGradient><filter id="a" width="115.9%" height="115.9%" x="-8%" y="-5.7%" filterUnits="objectBoundingBox"><feOffset dy="2" in="SourceAlpha" result="shadowOffsetOuter1"/><feGaussianBlur in="shadowOffsetOuter1" result="shadowBlurOuter1" stdDeviation="2"/><feColorMatrix in="shadowBlurOuter1" result="shadowMatrixOuter1" values="0 0 0 0 0 0 0 0 0 0 0 0 0 0 0 0 0 0 0.2 0"/><feMerge><feMergeNode in="shadowMatrixOuter1"/><feMergeNode in="SourceGraphic"/></feMerge></filter></defs><g fill="none" filter="url(#a)" transform="translate(4 4)"><circle cx="44" cy="44" r="44" fill="url(#b)"/><path fill="#fff" d="M29.535 23.325q2.754 2.923 6.905 6.652 3.19-.97 6.08-1.05 2.889-.08 8.856.637 11.998-12.133 14.452-8.682 2.454 3.452.807 21.887 3.584 5.358 2.83 8.998C68.71 55.407 59.578 68 45.643 68s-22.159-6.844-25.638-13.077q-3.48-6.232.604-12.535-.732-18.145 1.026-20.973c1.757-2.829 5.146-1.013 7.9 1.91m16.652 33.662H41.05a1 1 0 0 0-.654 1.756l2.567 2.222a1 1 0 0 0 1.309 0l2.568-2.222a1 1 0 0 0-.654-1.756m12.517-9.23c-1.036-1.656-3.912-1.727-6.424-.157s-3.71 4.186-2.674 5.843c1.035 1.657 3.911 1.727 6.423.157s3.71-4.185 2.675-5.842m-30.17-.157c-1.036 1.657.162 4.273 2.674 5.843s5.388 1.499 6.424-.158c1.035-1.657-.162-4.273-2.674-5.843s-5.389-1.5-6.424.158"/></g></svg>