<svg xmlns="http://www.w3.org/2000/svg" viewBox="0 0 512 512"><g fill="#cb2a41" data-iconColor="Clio"><path d="M343.75 190.3c-5.7 5.1-10.5 9.75-10.5 10.35 0 1.35 49.2 55.65 63.3 69.9L406 280H274v1.95c0 1.05 1.95 7.65 4.2 14.55l4.35 12.75 61.65.45 61.5.3-17.25 17.7c-14.1 14.4-45.75 48.9-54.15 58.95l-1.95 2.55 11.4 9.9c6.3 5.4 12 9.9 12.75 9.9 1.95 0 101.25-112.05 101.25-114.15 0-2.85-98.7-113.7-101.25-113.7-1.2 0-6.9 4.05-12.75 9.15M100.3 294.55l.45 14.7 27.9.45 27.9.3 4.8-12.45c2.55-6.9 4.65-13.65 4.65-15V280H99.85zm91.35-1.65c-2.55 7.05-4.65 13.8-4.65 15v2.1h63v-1.95c0-1.05-1.95-7.65-4.2-14.55l-4.35-12.75-22.5-.45-22.5-.45z"/><path d="M153.25 102.1c-2.85 12.45-3.75 17.1-3.75 19.8v3.15l9.15 1.95c11.55 2.4 24.75 8.7 32.1 15.15s15 18.3 19.5 30.6l3.6 9.6-6 .45-6.15.45-17.85 48c-9.9 26.4-19.5 52.35-21.45 57.75s-8.1 21.9-13.65 36.75-12.3 33.15-15 40.8l-5.1 13.65 10.8 2.4c5.85 1.35 13.2 2.85 16.05 3.3l5.25.9 13.35-38.1c7.35-20.85 15.9-45 18.9-53.7 3.15-8.7 11.1-30.75 17.55-49.2l11.7-33.45 1.05 2.7c.45 1.5 3.75 14.85 7.2 29.7 5.55 23.85 18.6 68.25 22.5 76.5.75 1.65 4.35 9.75 7.95 18.15 6 13.95 18.3 35.55 24.75 43.8l2.55 3.45L304 380.8c8.55-3.15 15.75-6.45 16.05-7.35.3-.75-2.25-4.8-5.55-8.85s-9.15-12.45-12.75-18.6c-6.75-11.55-17.85-36-16.2-36 .45 0 .15-.9-.6-1.95-2.85-3.45-12.3-34.65-23.7-78.3-6.3-24-12.9-47.85-14.55-53.25s-6.15-16.2-9.9-24l-6.9-14.1-9.75-9.9c-5.55-5.55-13.65-12-18.15-14.55-9.9-5.7-24.15-10.5-37.95-13.2L154 98.8z"/><path d="M220.3 110.35c-.9 5.85-1.8 11.55-1.8 12.75v1.95l8.7 1.8c10.95 2.1 25.05 8.85 32.55 15.3 7.35 6.45 15 18.3 19.65 30.75 1.95 5.25 3.6 10.05 3.6 10.35 0 .45-2.85.75-6.3.75h-6.45l-5.85 16.2c-3.15 8.85-6.3 16.65-6.9 17.55-1.35 1.8 10.8 47.55 12.75 48.3.9.15 5.85-12.15 11.25-27.6l9.75-28.05 1.05 4.5c7.95 31.65 15.45 63.3 15.3 64.65l-.3 1.95h17.85c9.9 0 17.85-.45 17.85-.9s-2.1-7.95-4.65-16.65c-2.4-8.7-8.85-32.4-14.1-52.8-5.25-20.55-11.55-42.3-14.25-48.6-9.45-22.65-21.6-37.5-39.3-48-10.65-6.3-28.8-12.6-40.65-13.95l-7.95-.9zm15.6 166.05c-1.5 3.9-1.05 5.1 2.1 5.1 1.65 0 3-.6 3-1.35 0-2.55-1.8-6.15-3-6.15-.6 0-1.65 1.05-2.1 2.4M211 343.3c-7.05 19.05-12.9 35.1-13.2 35.7-.15.6 6.45 2.55 14.85 4.35l15.15 3.45 1.2-1.35c.6-.6 6-15.45 12-32.7 6.15-17.4 11.55-31.65 12.15-31.95s.3-3-.75-6l-1.95-5.55-13.35-.45-13.35-.3zm110.25-24.45c5.25 14.4 13.2 31.65 20.4 43.95l6.15 10.5 3-2.85c1.65-1.5 7.05-7.2 11.85-12.75l9-9.9-4.35-6.75c-2.25-3.6-6.45-12.45-9.3-19.65l-5.25-12.9H317.5z"/></g></svg>