<svg xmlns="http://www.w3.org/2000/svg" viewBox="0 0 16 16"><path d="M10 4H6a1 1 0 0 1-1-1h-.833C3.522 3 3 3.522 3 4.167v8.666C3 13.478 3.522 14 4.167 14h7.666c.645 0 1.167-.522 1.167-1.167V4.167C13 3.522 12.478 3 11.833 3H11a1 1 0 0 1-1 1m-2.5 7a.5.5 0 1 1 0 1h-3a.5.5 0 1 1 0-1zm4-2a.5.5 0 1 1 0 1h-7a.5.5 0 0 1 0-1zm0-2a.5.5 0 1 1 0 1h-7a.5.5 0 0 1 0-1zM10 2H6v1h4zm1.833 0C13.03 2 14 2.97 14 4.167v8.666C14 14.03 13.03 15 11.833 15H4.167A2.167 2.167 0 0 1 2 12.833V4.167C2 2.97 2.97 2 4.167 2H5a1 1 0 0 1 1-1h4a1 1 0 0 1 1 1z"/></svg>