<svg xmlns="http://www.w3.org/2000/svg" viewBox="0 0 64 64"><path fill="#fff" d="M32 10 7 54h50Z"/><path d="M32 5 1 61h62Zm3.006 27.664 1.988 18.287-16.32-6.305L35 32.74Z" opacity=".2"/><path fill="#4a86d8" d="m1 60 12-7 7.672-9.352ZM32 4l3 27.74L36 20ZM1 60 32 4l3 27.74Z"/><path fill="#dd3c3d" d="m37 50 11 6 15 4ZM32 4l31 56-26-10Z"/><path fill="#339c33" d="M63 60H1l19.66-16.36Z"/><path fill="#fff" d="M32 4 1 60h.553L32 5l30.447 55H63zM21.496 43.963l-.822.683 16.32 6.305-.113-1.043z" opacity=".2"/></svg>