<svg xmlns="http://www.w3.org/2000/svg" xmlns:xlink="http://www.w3.org/1999/xlink" viewBox="0 0 96 96"><defs><linearGradient id="b" x1="53.008%" x2="50%" y1="5.649%" y2="100%"><stop offset="0%" stop-color="#13eadc"/><stop offset="100%" stop-color="#08d1b7"/></linearGradient><linearGradient id="c" x1="50%" x2="50%" y1="0%" y2="100%"><stop offset="0%" stop-color="#79f7ec"/><stop offset="100%" stop-color="#12b6cb"/></linearGradient><linearGradient id="d" x1="50%" x2="50%" y1="0%" y2="100%"><stop offset="0%" stop-color="#34b2ff"/><stop offset="100%" stop-color="#005de1"/></linearGradient><linearGradient id="e" x1="50%" x2="50%" y1="1.196%" y2="98.661%"><stop offset="0%" stop-color="#77efde"/><stop offset="100%" stop-color="#2a72d3"/></linearGradient><filter id="a" width="120.9%" height="120.9%" x="-10.4%" y="-10.4%" filterUnits="objectBoundingBox"><feOffset dy="2" in="SourceAlpha" result="shadowOffsetOuter1"/><feGaussianBlur in="shadowOffsetOuter1" result="shadowBlurOuter1" stdDeviation="2"/><feColorMatrix in="shadowBlurOuter1" result="shadowMatrixOuter1" values="0 0 0 0 0 0 0 0 0 0 0 0 0 0 0 0 0 0 0.2 0"/><feMerge><feMergeNode in="shadowMatrixOuter1"/><feMergeNode in="SourceGraphic"/></feMerge></filter></defs><g fill="none" filter="url(#a)" transform="translate(3 -21.5)"><path fill="url(#b)" d="M42.862 59.9 26.28 74.777l-25.206-.125a1.08 1.08 0 0 1-.94-1.599L39.963.492q.431-.576 1.02-.478c.283.046.64.216.845.543l-1.242 27.78a4.317 4.317 0 0 0 2.255 8q.11 6.858.02 23.564" transform="rotate(45 25.587 64.717)"/><path fill="url(#c)" d="M40.984.014q.09.015.189.047L26.18 74.776 1.074 74.65a1.08 1.08 0 0 1-.94-1.599L39.963.492q.431-.576 1.02-.478" transform="rotate(45 25.587 64.717)"/><path fill="url(#d)" d="M44.339.014q.588-.098 1.02.478l39.83 72.56a1.08 1.08 0 0 1-.94 1.599l-25.206.125L42.46 59.901q.225-13.285.394-23.566a4.314 4.314 0 0 0 4.304-4.315 4.32 4.32 0 0 0-2.103-3.707L43.457.62c.198-.369.581-.557.882-.606" transform="rotate(45 25.587 64.717)"/><path fill="url(#e)" d="m45.261.372.098.12 39.83 72.56a1.08 1.08 0 0 1-.814 1.591l-.126.008-25.15.125L44.222.039q.06-.015.116-.025.522-.087.922.358" transform="rotate(45 25.587 64.717)"/></g></svg>