<svg xmlns="http://www.w3.org/2000/svg" xmlns:xlink="http://www.w3.org/1999/xlink" viewBox="0 0 96 96"><defs><linearGradient id="b" x1="50%" x2="50%" y1="0%" y2="98.139%"><stop offset="0%" stop-color="#fff"/><stop offset="100%" stop-color="#ededed"/></linearGradient><linearGradient id="f" x1="50%" x2="41.709%" y1="0%" y2="100%"><stop offset="0%" stop-color="#beb3ea"/><stop offset="100%" stop-color="#696ee2"/></linearGradient><filter id="a" width="128.6%" height="128.6%" x="-14.3%" y="-14.3%" filterUnits="objectBoundingBox"><feOffset dy="2" in="SourceAlpha" result="shadowOffsetOuter1"/><feGaussianBlur in="shadowOffsetOuter1" result="shadowBlurOuter1" stdDeviation="2"/><feColorMatrix in="shadowBlurOuter1" result="shadowMatrixOuter1" values="0 0 0 0 0 0 0 0 0 0 0 0 0 0 0 0 0 0 0.2 0"/><feMerge><feMergeNode in="shadowMatrixOuter1"/><feMergeNode in="SourceGraphic"/></feMerge></filter><filter id="e" width="104.3%" height="106.9%" x="-2.2%" y="-1.7%" filterUnits="objectBoundingBox"><feOffset dy="2" in="SourceAlpha" result="shadowOffsetOuter1"/><feColorMatrix in="shadowOffsetOuter1" values="0 0 0 0 0 0 0 0 0 0 0 0 0 0 0 0 0 0 0.06 0"/></filter><path id="c" d="M54.69 14.833c1.864 3.643 2.145 7.089 4.725 9.51 1.292 1.212 2.806 2.414 4.405 2.214 2.392-.3 3.38-1.862 3.796-1.093.402.741-.977 2.52-2.506 3.185-1.529.666-4.095.667-5.825.2-1.678-.453-4.085-1.884-5.784-6.005-1.335-3.236-3.37-1.917-3.528-1.137s-.33 2.241-.357 2.5L45.96 59.71l-.269-.107c-.474 5.832-6.028 10.241-12.553 9.9-6.63-.348-11.751-5.471-11.438-11.444s5.941-10.533 12.572-10.185c2.26.118 4.345.792 6.098 1.864l3.514-34.299c.373-2.239 2.493-3.634 4.125-3.837 2.16-.269 5.008-.034 6.68 3.23"/></defs><g fill="none" fill-rule="evenodd" filter="url(#a)" transform="translate(6 5)"><circle cx="42" cy="42" r="42" fill="url(#b)"/><g transform="rotate(3 44.687 40.52)"><use xlink:href="#c" fill="#000" filter="url(#e)"/><use xlink:href="#c" fill="url(#f)"/></g></g></svg>