<svg xmlns="http://www.w3.org/2000/svg" viewBox="0 0 24 24"><g fill="#536076"><path d="M7 6.01c-.556 0-1 .444-1 1v10c0 .555.444 1 1 1h10c.556 0 1-.445 1-1v-10c0-.556-.444-1-1-1zm0-1h10c1.108 0 2 .892 2 2v10c0 1.108-.892 2-2 2H7c-1.108 0-2-.892-2-2v-10c0-1.108.892-2 2-2"/><path d="M14.622 12.722q-.13.367-.13.993v1.312q0 .756-.219.983-.21.227-.92.228H13V17h.318q1.26 0 1.68-.39.424-.394.424-1.563v-1.264q0-.798.273-1.105t.99-.307H17v-.758h-.314q-.72 0-.99-.3-.274-.307-.274-1.096v-1.27q0-1.17-.424-1.556Q14.578 7 13.318 7H13v.756h.354q.707 0 .92.234.217.228.218.979v1.312c0 .418.048.74.134.986q.15.312.882.727-.657.218-.886.728m-5.244 0q.13.367.13.993v1.312q0 .756.219.983.21.227.92.228H11V17h-.318q-1.26 0-1.68-.39-.424-.394-.424-1.563v-1.264q0-.798-.273-1.105t-.99-.307H7v-.758h.314q.72 0 .99-.3.274-.307.274-1.096v-1.27q0-1.17.424-1.556Q9.422 7 10.682 7H11v.756h-.354q-.708 0-.92.234-.217.228-.218.979v1.312c0 .418-.048.74-.134.986q-.15.312-.882.727.657.218.886.728"/></g></svg>