<svg xmlns="http://www.w3.org/2000/svg" viewBox="0 0 64 64"><g fill-rule="evenodd" stroke="#000" stroke-opacity=".196" stroke-width=".998" paint-order="stroke fill markers"><path fill="#32ca70" d="M43.69 6.014a3.7 3.7 0 0 0-1.644.615c.85 1.053-.862 10.992 1.281 12.34l1.675 1.047v23.967l-2.63 1.97c-2.025 1.521.185 10.259-.344 11.386.585.357 1.46.739 2.229.646a2.5 2.5 0 0 0 .739-.221l10.696-5.24c1.17-.573 2.34-1.047 2.34-2.34V13.821c0-1.293-1.17-1.768-2.34-2.34L44.996 6.235a2.3 2.3 0 0 0-1.305-.215z"/><path fill="#137c42" d="M6.577 39.278 41.375 7.116c1.583-1.46 3.627-.942 3.627 2.075v10.825L12.834 44.623c-.567.437-2.032 1.496-3.313.277L6.27 41.81c-.856-.813-.37-1.909.307-2.531z"/><path fill="#259f58" d="M6.577 24.709 41.375 56.87c1.583 1.46 3.627.942 3.627-2.081V43.97L12.834 19.364c-.567-.444-2.032-1.497-3.313-.284L6.27 22.178c-.856.813-.37 1.909.307 2.53z"/></g></svg>