<svg xmlns="http://www.w3.org/2000/svg" viewBox="0 0 64 64"><rect width="56" height="56" x="4" y="5" opacity=".2" rx="2.8" ry="2.8"/><rect width="56" height="56" x="4" y="4" fill="#4f4f4f" rx="2.8" ry="2.8"/><path d="M20.463 10c-2.507 0-4.592 1.699-5.234 4H49v-4ZM15 17v4h34v-4zm0 7v4h11v-4zm0 7v4h11v-4zm0 7v4h11v-4zm0 7v4h34v-4H25.88Zm.229 7c.642 2.301 2.727 4 5.234 4H49v-4z" opacity=".2"/><path fill="#00ff03" d="M20.463 9c-2.507 0-4.592 1.699-5.234 4H49V9Z"/><path fill="#00ff73" d="M15 16v4h34v-4z"/><path fill="#00ff8a" d="M15 23v4h11v-4z"/><path fill="#00feb8" d="M15 30v4h11v-4z"/><path fill="#00fef2" d="M15 37v4h11v-4z"/><path fill="#00dbfe" d="M15 44v4h34v-4H25.88Z"/><path fill="#00b8fe" d="M15.229 51c.642 2.301 2.727 4 5.234 4H49v-4z"/><path fill="#fff" d="M6.8 4C5.25 4 4 5.25 4 6.8v1C4 6.25 5.25 5 6.8 5h50.4C58.75 5 60 6.25 60 7.8v-1C60 5.25 58.75 4 57.2 4z" opacity=".1"/></svg>