<svg xmlns="http://www.w3.org/2000/svg" viewBox="0 0 16 16"><g fill="#5d656b" fill-rule="evenodd" stroke-linecap="round" stroke-linejoin="round" paint-order="stroke fill markers"><path d="M8 0a8 8 0 0 0-8 8h8z" opacity=".4"/><path d="M8 0a8 8 0 0 1 8 8H8z" opacity=".8"/><path d="M8 16a8 8 0 0 1-8-8h8z" opacity=".2"/><path d="M8 16a8 8 0 0 0 8-8H8z" opacity=".6"/><path d="M8 0a8 8 0 0 0-8 8 8 8 0 0 0 8 8 8 8 0 0 0 8-8 8 8 0 0 0-8-8m0 1a7 7 0 0 1 7 7 7 7 0 0 1-7 7 7 7 0 0 1-7-7 7 7 0 0 1 7-7"/><path d="M8 4a4 4 0 0 0-4 4 4 4 0 0 0 4 4 4 4 0 0 0 4-4 4 4 0 0 0-4-4m0 1a3 3 0 0 1 3 3 3 3 0 0 1-3 3 3 3 0 0 1-3-3 3 3 0 0 1 3-3"/></g></svg>