<svg xmlns="http://www.w3.org/2000/svg" viewBox="0 0 24 24"><g fill="#536076"><path d="M5 5.04v14h14v-14zm-1-1h16v16H4z"/><path d="m15.455 8.584.042-.042.034-.034L19 5.04ZM12 17.041a4.97 4.97 0 0 1-3.358-1.305l-.172-.165.448-.448-.058.057.29-.293a4 4 0 1 0 5.658-5.656l.723-.721A4.98 4.98 0 0 1 17 12.04a5 5 0 0 1-5 5m3.24-8.24.086-.086zM5 19.04l3.469-3.47h.001zm9.807-9.81.221-.218-.2.2-.02.02z"/><path d="m9.139 14.882.014.014 5.666-5.668-.054-.056a3.92 3.92 0 0 0-5.444-.142l-.15.142c-1.562 1.562-1.594 4.148-.032 5.71"/></g></svg>