<svg xmlns="http://www.w3.org/2000/svg" xmlns:xlink="http://www.w3.org/1999/xlink" viewBox="0 0 16 16"><defs><linearGradient id="c" x1="8" x2="24" y1="24" y2="8" gradientUnits="userSpaceOnUse"><stop offset="0" stop-color="#e81877"/><stop offset=".312" stop-color="#dd1d8c"/><stop offset=".562" stop-color="#6d57b1"/><stop offset=".75" stop-color="#2a78c1"/><stop offset="1" stop-color="#018dcb"/></linearGradient><linearGradient id="a" x1="392.57" x2="408.57" y1="523.8" y2="539.8" gradientUnits="userSpaceOnUse"><stop offset="0" stop-color="#e51561"/><stop offset=".312" stop-color="#e4156c"/><stop offset=".562" stop-color="#e71e2c"/><stop offset=".75" stop-color="#e8301e"/><stop offset="1" stop-color="#e6320e"/></linearGradient><linearGradient xlink:href="#a" id="e" x1="392.57" x2="408.57" y1="523.8" y2="539.8" gradientUnits="userSpaceOnUse"/><path id="d" fill="url(#c)" d="M24 8C15.136 8 8 15.136 8 24h16z"/></defs><g transform="matrix(.78152 0 0 .78147 -.597 -806.8)"><g transform="rotate(15 -3071.938 46.55)scale(.4)"><use xlink:href="#d" width="100%" height="100%" clip-path="url(#5)" transform="translate(384.57 499.8)"/><use xlink:href="#f" width="100%" height="100%" clip-path="url(#6)"/><use xlink:href="#j" clip-path="url(#7)"/><use xlink:href="#h" width="100%" height="100%" clip-path="url(#8)"/></g><g opacity=".7" transform="matrix(.4 0 0 .4 -152.43 831.84)"><use xlink:href="#d" width="100%" height="100%" clip-path="url(#9)" filter="url(#4)" transform="translate(384.57 499.8)"/><use xlink:href="#f" width="100%" height="100%" clip-path="url(#A)" filter="url(#4)"/><use xlink:href="#h" width="100%" height="100%" clip-path="url(#B)" filter="url(#4)"/><use xlink:href="#j" clip-path="url(#C)" filter="url(#4)"/></g><use xlink:href="#d" width="100%" height="100%" clip-path="url(#9)" opacity=".35" transform="rotate(45 -1235.164 527.178)scale(.4)"/><path fill="url(#e)" d="M408.57 539.8c-8.864 0-16-7.136-16-16h16z" clip-path="url(#A)" opacity=".35" transform="rotate(45 -916.911 441.444)scale(.4)"/><use xlink:href="#h" width="100%" height="100%" clip-path="url(#B)" opacity=".35" transform="rotate(45 -916.911 441.444)scale(.4)"/><use xlink:href="#j" clip-path="url(#C)" opacity=".35" transform="rotate(45 -916.911 441.444)scale(.4)"/><g transform="rotate(75 -454.826 526.114)scale(.4)"><use xlink:href="#d" width="100%" height="100%" clip-path="url(#D)" opacity=".3" transform="translate(384.57 499.8)"/><use xlink:href="#f" width="100%" height="100%" clip-path="url(#E)" opacity=".3"/><use xlink:href="#h" width="100%" height="100%" clip-path="url(#F)" opacity=".3"/><use xlink:href="#j" clip-path="url(#G)" opacity=".3"/></g></g><path fill="currentColor" d="m1 11.708 2.5 2.5 2.5-2.5L5.293 11 4 12.294V7a4 4 0 0 1 8 0h1A5 5 0 0 0 3 7v5.294L1.707 11z" color="#5d656b"/></svg>