<svg xmlns="http://www.w3.org/2000/svg" xmlns:xlink="http://www.w3.org/1999/xlink" viewBox="0 0 24 24"><defs><linearGradient id="a" x1="100%" x2="0%" y1="100%" y2="0%"><stop offset="0%" stop-color="#bec900"/><stop offset="31.3%" stop-color="#9ec80a"/><stop offset="56.3%" stop-color="#71b93d"/><stop offset="75%" stop-color="#35a48f"/><stop offset="100%" stop-color="#018fca"/></linearGradient><linearGradient id="b" x1="0%" x2="100%" y1="100%" y2="0%"><stop offset="0%" stop-color="#e81877"/><stop offset="31.3%" stop-color="#dd1d8c"/><stop offset="56.3%" stop-color="#6d57b1"/><stop offset="75%" stop-color="#2a78c1"/><stop offset="100%" stop-color="#018dcb"/></linearGradient><linearGradient id="c" x1="100%" x2="0%" y1="0%" y2="100%"><stop offset="0%" stop-color="#c1cc00"/><stop offset="31.3%" stop-color="#dfcd00"/><stop offset="56.3%" stop-color="#f0cc00"/><stop offset="75%" stop-color="#fd8c08"/><stop offset="100%" stop-color="#f25c13"/></linearGradient><linearGradient id="d" x1="0%" x2="100%" y1="0%" y2="100%"><stop offset="0%" stop-color="#e51561"/><stop offset="31.3%" stop-color="#e4156c"/><stop offset="56.3%" stop-color="#e71e2c"/><stop offset="75%" stop-color="#e8301e"/><stop offset="100%" stop-color="#e6320e"/></linearGradient><path id="e" fill="url(#a)" d="M7 0v7h7a7 7 0 0 0-7-7"/><path id="f" fill="url(#b)" d="M7 0a7 7 0 0 0-7 7h7z"/><path id="g" fill="url(#c)" d="M7 7v7a7 7 0 0 0 7-7z"/><path id="h" fill="url(#d)" d="M0 7a7 7 0 0 0 7 7V7z"/></defs><g fill="none"><use xlink:href="#e" transform="rotate(15 -9.49 28.49)"/><use xlink:href="#f" transform="rotate(15 -9.49 28.49)"/><use xlink:href="#g" transform="rotate(15 -9.49 28.49)"/><use xlink:href="#h" transform="rotate(15 -9.49 28.49)"/><g opacity=".7" transform="translate(5 5)"><use xlink:href="#e"/><use xlink:href="#f"/><use xlink:href="#g"/><use xlink:href="#h"/></g><g opacity=".35" transform="rotate(45 3.464 15.536)"><use xlink:href="#e"/><use xlink:href="#f"/><use xlink:href="#g"/><use xlink:href="#h"/></g><g opacity=".3" transform="rotate(60 5.17 13.83)"><use xlink:href="#e"/><use xlink:href="#f"/><use xlink:href="#g"/><use xlink:href="#h"/></g></g></svg>