<svg xmlns="http://www.w3.org/2000/svg" viewBox="0 0 64 64"><rect width="56" height="56" x="4" y="4" fill="#713a9d" rx="3" ry="3"/><path fill="#fff" d="M7 4C5.338 4 4 5.338 4 7v1c0-1.662 1.338-3 3-3h50c1.662 0 3 1.338 3 3V7c0-1.662-1.338-3-3-3z" opacity=".1"/><path d="M4 57v1c0 1.662 1.338 3 3 3h50c1.662 0 3-1.338 3-3v-1c0 1.662-1.338 3-3 3H7c-1.662 0-3-1.338-3-3" opacity=".2"/><path fill="#fff" d="M30 29v6h17c1.662 0 3-1.338 3-3s-1.338-3-3-3zm6 16v6h11c1.662 0 3-1.338 3-3s-1.338-3-3-3z" opacity=".5"/><path fill="#f44336" d="M43 13H17c-1.662 0-3 1.338-3 3s1.338 3 3 3h26z"/><path fill="#03a9f4" d="M37 45H17c-1.662 0-3 1.338-3 3s1.338 3 3 3h20Z"/><path fill="#4caf50" d="M28 29H17c-1.662 0-3 1.338-3 3s1.338 3 3 3h11Z"/><path d="M50 17a6 6 0 1 0-12 0 6 6 0 0 0 12 0m-8 32a6 6 0 1 0-12 0 6 6 0 0 0 12 0m-6-16a6 6 0 1 0-12 0 6 6 0 0 0 12 0" opacity=".2"/><path fill="#fff" d="M50 16a6 6 0 1 0-12 0 6 6 0 0 0 12 0m-8 32a6 6 0 1 0-12 0 6 6 0 0 0 12 0m-6-16a6 6 0 1 0-12 0 6 6 0 0 0 12 0"/></svg>