<svg xmlns="http://www.w3.org/2000/svg" xmlns:xlink="http://www.w3.org/1999/xlink" viewBox="0 0 96 96"><defs><linearGradient id="c" x1="-4.078%" x2="99.999%" y1="57.876%" y2="39.132%"><stop offset="0%" stop-color="#d0d0d0"/><stop offset="40%" stop-color="#fff"/><stop offset="70%" stop-color="#fff"/><stop offset="100%" stop-color="#d0d0d0"/></linearGradient><linearGradient id="d" x1="68.013%" x2="74.663%" y1="41.082%" y2="49.999%"><stop offset="0%" stop-color="#d0d0d0"/><stop offset="100%" stop-color="#b0b0b0" stop-opacity="0"/></linearGradient><radialGradient id="b" cx="9.929%" cy="17.245%" r="51.183%" fx="9.929%" fy="17.245%" gradientTransform="matrix(1 0 0 .96167 0 .007)"><stop offset="0%" stop-color="#ffa348"/><stop offset="100%" stop-color="#ff7800"/></radialGradient><filter id="a" width="129.6%" height="128.5%" x="-14.8%" y="-14.3%" filterUnits="objectBoundingBox"><feOffset dy="2" in="SourceAlpha" result="shadowOffsetOuter1"/><feGaussianBlur in="shadowOffsetOuter1" result="shadowBlurOuter1" stdDeviation="2"/><feColorMatrix in="shadowBlurOuter1" result="shadowMatrixOuter1" values="0 0 0 0 0 0 0 0 0 0 0 0 0 0 0 0 0 0 0.2 0"/><feMerge><feMergeNode in="shadowMatrixOuter1"/><feMergeNode in="SourceGraphic"/></feMerge></filter></defs><g fill="none" fill-rule="evenodd" filter="url(#a)" transform="translate(6.648 5)"><path fill="url(#b)" stroke="#c64600" stroke-width=".5" d="M.126 23.139c1.387 18.641 18.102 62.967 28.396 62.76 10.142 1.588 14.9-15.88 22.35-23.82 2.585-1.55 7.853 22.07 22.667 22.07 4.505.32 9.01-1.222 9.165-5.251.062-6.29-11.922-1.895-16.746-19.077-3.672-13.08-9.662-19.415-13.95-19.284-6.661 2.42-14.98 21.204-18.534 23.625C21.39 53.525 43.07 35.639 39.48 19.203 36.72-14.283-2.498 1.943.126 23.14Z"/><path fill="#571e00" fill-opacity=".322" fill-rule="nonzero" d="M36.219 25.72c-.835.364-1.669.992-2.441 1.472-6.491 4.03-17.245 8.957-25.142 11.413-.792.246-.892 1.032-.771 1.564.434 1.907 1.888 4.386 3.814 6.432s4.769 3.618 8.746 3.662c1.735.02 3.438-.84 5.104-2.148 1.667-1.309 3.3-3.117 4.766-5.22 2.931-4.207 5.197-9.264 5.264-14.723.008-.727.419-1.761.66-2.452m-3.162 4.63c-.56 3.853-2.376 7.96-4.65 11.225-1.358 1.949-2.869 3.6-4.298 4.723-1.43 1.123-2.774 1.668-3.663 1.658-3.407-.038-5.51-1.258-7.087-2.934-1.264-1.342-2.099-2.99-2.812-4.571 7.482-2.162 16.218-6.307 22.51-10.102"/><path fill="#000" fill-rule="nonzero" d="M16.634 9.403c-3.383.114-6.525.72-8.777 1.569a19.2 19.2 0 0 0-3.224 7.25c-1.156-3.825-.893-7.468.902-10.673 4.071-.84 8.507.35 11.1 1.854m15.029-1.46c-2.856-1.819-5.79-3.095-8.127-3.667a19.2 19.2 0 0 0-6.758 4.16C17.987 4.626 20.26 1.77 23.553.14c3.834 1.607 6.822 5.096 8.11 7.802"/><path fill="url(#c)" fill-rule="nonzero" d="M8.93 39.722c8.336-2.182 18.927-7.339 25.472-11.56-.097 9.542-8.716 21.007-13.965 20.949-7.384-.082-9.894-5.583-11.506-9.389"/><path fill="#571e00" fill-opacity=".322" fill-rule="nonzero" d="M18.396 24.396c.705-8.906-3.515 5.309-6.472 9.232-2.078-.088-4.89-4.295-4.89-9.232 0-4.938 2.545-8.945 5.68-8.945 3.137 0 5.682 4.007 5.682 8.945"/><path fill="#571e00" fill-opacity=".322" fill-rule="nonzero" d="M29.546 18.956c0 4.604-2.762 8.34-6.165 8.34s-6.165-3.736-6.165-8.34 2.762-8.34 6.165-8.34 6.165 3.736 6.165 8.34"/><path fill="#fff" fill-rule="nonzero" d="M23.933 11.157c-2.988.303-5.338 4.29-5.717 9.294-1.263-2.711-3.168-4.424-5.112-4.218-2.985.315-4.92 4.986-4.32 10.425.349 3.152 1.486 5.842 2.95 7.513 2.08-1.68 4.718-3.12 7.743-4.167.06-.373.118-.752.152-1.147.162.34.364.612.548.916 1.4-.448 2.87-.823 4.405-1.089a33 33 0 0 1 4.823-.461c.777-1.94 1.215-4.314 1.118-6.871-.228-5.973-3.183-10.541-6.59-10.195"/><path fill="#000" fill-rule="nonzero" d="M25.344 21.868c0 1.583-.666 2.867-1.487 2.867-.82 0-1.486-1.284-1.486-2.867s.665-2.867 1.486-2.867 1.487 1.284 1.487 2.867"/><path fill="url(#d)" fill-rule="nonzero" d="M33.605 33.306c-1.533 2.197-4.753 3.868-10.116 6.467 6.116-1.414 5.997-.045 6.193 1.997 1.338-2.028 3.096-5.202 3.923-8.464M20.72 40.934c-5.672 1.826-8.168 2.25-10.54 1.478 1.211 2.519 3.159 4.611 5.37 5.638-.927-2.063-.924-3.93 5.17-7.116"/><path fill="#000" fill-rule="nonzero" d="M15.837 24.312c0 1.583-.666 2.867-1.487 2.867s-1.487-1.284-1.487-2.867c0-1.584.666-2.867 1.487-2.867.82 0 1.487 1.283 1.487 2.867"/></g></svg>