<svg xmlns="http://www.w3.org/2000/svg" xmlns:xlink="http://www.w3.org/1999/xlink" viewBox="0 0 96 96"><defs><filter id="a" width="127.7%" height="134.8%" x="-13.8%" y="-17.4%" filterUnits="objectBoundingBox"><feOffset dy="2" in="SourceAlpha" result="shadowOffsetOuter1"/><feGaussianBlur in="shadowOffsetOuter1" result="shadowBlurOuter1" stdDeviation="2"/><feColorMatrix in="shadowBlurOuter1" result="shadowMatrixOuter1" values="0 0 0 0 0 0 0 0 0 0 0 0 0 0 0 0 0 0 0.2 0"/><feMerge><feMergeNode in="shadowMatrixOuter1"/><feMergeNode in="SourceGraphic"/></feMerge></filter><filter id="d" width="115%" height="164.1%" x="-7.5%" y="-32.1%" filterUnits="objectBoundingBox"><feOffset in="SourceAlpha" result="shadowOffsetOuter1"/><feGaussianBlur in="shadowOffsetOuter1" result="shadowBlurOuter1" stdDeviation="1.5"/><feColorMatrix in="shadowBlurOuter1" values="0 0 0 0 0.796365489 0 0 0 0 0.796365489 0 0 0 0 0.796365489 0 0 0 0.797366696 0"/></filter><linearGradient id="b" x1="50%" x2="50%" y1="0%" y2="129.893%"><stop offset="0%" stop-color="#aa7e7e"/><stop offset="100%" stop-color="#db0000"/></linearGradient><path id="c" d="M15.846 27.67c1.875 0 2.775-1.14 3.51-3.12l2.985-8.655h-2.115l-1.155 3.9c-.195.78-.405 1.59-.6 2.37h-.075c-.24-.81-.45-1.62-.705-2.37l-1.335-3.9h-2.22l3.27 8.25-.15.495c-.24.735-.72 1.275-1.575 1.275-.195 0-.435-.06-.585-.105l-.405 1.695c.33.105.66.165 1.155.165m10.13-3.165c1.14 0 1.95-.555 2.67-1.41h.06l.165 1.2h1.8v-8.4h-2.205v5.67c-.57.75-1.02 1.05-1.71 1.05-.81 0-1.17-.465-1.17-1.755v-4.965H23.38v5.25c0 2.1.78 3.36 2.595 3.36m9.005-.21v-5.01c.465-1.215 1.26-1.65 1.92-1.65.345 0 .585.045.885.135l.375-1.905c-.255-.105-.525-.18-.99-.18-.87 0-1.77.6-2.385 1.695h-.045l-.165-1.485h-1.8v8.4zm5.69.21c.96 0 1.8-.48 2.535-1.11h.06l.15.9h1.8V19.39c0-2.43-1.095-3.705-3.225-3.705-1.32 0-2.52.495-3.51 1.11l.795 1.455c.78-.45 1.53-.795 2.31-.795 1.035 0 1.395.63 1.44 1.455-3.39.36-4.845 1.305-4.845 3.105 0 1.425.99 2.49 2.49 2.49m.72-1.725c-.645 0-1.11-.285-1.11-.945 0-.75.69-1.32 2.745-1.575v1.695c-.54.525-1.005.825-1.635.825m7.07 1.725c.795 0 1.38-.63 1.38-1.44 0-.825-.585-1.44-1.38-1.44-.78 0-1.365.615-1.365 1.44 0 .81.585 1.44 1.365 1.44m5.585-.21V18.52c.615-.615 1.05-.945 1.74-.945.825 0 1.185.45 1.185 1.755v4.965h2.205V19.06c0-2.115-.78-3.375-2.595-3.375-1.14 0-1.995.6-2.73 1.32h-.045l-.165-1.11h-1.8v8.4zm10.82.21c1.035 0 2.1-.36 2.925-.93l-.75-1.35c-.6.375-1.2.585-1.89.585-1.245 0-2.145-.72-2.325-2.1H68c.06-.195.105-.6.105-1.02 0-2.31-1.2-4.005-3.51-4.005-1.995 0-3.915 1.695-3.915 4.41 0 2.775 1.83 4.41 4.185 4.41m1.35-5.265h-3.42c.165-1.215.945-1.845 1.83-1.845 1.08 0 1.59.72 1.59 1.845m6.35 5.265c.735 0 1.32-.165 1.77-.315l-.36-1.605c-.225.09-.555.18-.825.18-.75 0-1.14-.45-1.14-1.41v-3.72h2.07v-1.74h-2.07V13.63h-1.83l-.255 2.265L68.62 16v1.635h1.185v3.72c0 1.875.765 3.15 2.76 3.15"/></defs><g fill="none" filter="url(#a)" transform="translate(4.074 13.297)"><path fill="#10354a" d="M9.223 34.5c0 19.054 15.446 34.5 34.5 34.5s34.5-15.446 34.5-34.5S62.777 0 43.723 0s-34.5 15.446-34.5 34.5"/><path fill="#d1bca1" d="m23.428 7.914-.868 1.562s-1.08.772-.114 1.57c.509.422.21 1.01.579.992.342-.017.833-.79 1.175-.728.237.035.544.509.623.737.036.088-.026.29 0 .377.044.158.387.386.369.553-.026.28-.553.667-.807.79-.386.193-1.711.237-1.711.237s-1.992.561-2.343 1.307l-.702 1.5s2.229-1.763 3.106-2.062c.878-.298 1.527-.272 1.51.106-.018.36-1.448.763-.852 1.167.597.412 1.202.702.702 1.465s-.904.842-.596 1.255l.04.054.08.112c.259.376.412.787-.603.887-1.167.114-2.281-.351-2.395.114s-.764.35-.527.991c.237.64.413 1.228-.412 1.29-.816.061-2.088-.176-1.834-.29s.553-.667.421-.877c-.167-.255-.85-.167-1.097.553-.245.728.053.219-.824 1.439-.878 1.22-2.211 1.605-2.747 2.562-.535.956-.377 1.535-.772 1.632-.21.052-.096-1.08-.509-1.159-.42-.078-.526 1.229-.465 1.641.062.413.667.72.176 2-.492 1.29-1.229 2.738-.527 3.493.702.763.369.447 1.062 1.676s2.623 4.01 3.097 5.027c.465 1.018-.684 1.466.158 1.86.834.387 1.246.343 1.597.895.351.553.632.07 1.343 1.308.719 1.228 2.263 1.851 2.395 3.518.131 1.667-.351 1.518-.237 2.167.114.64.64 2.176.29 2.905s-1.229.72-.816 1.421c.412.702.412 1.685.526 2.22.123.526 3.668 5.071 3.281 4.905-4.632-2.053-10.107-7.45-13.301-21.743S18.032 11.6 23.429 7.914M36.23 28.727c1.176.245 2.694 2.298 2.94 2.728.28.474 1.271.825 1.64.606.386-.237 1.755-1.606 2.369-1.852.658-.254.369 1.264 1.702 1.413.299.035 1.123-.623 1.343-.465.482.342-.632 1.685-.702 2.606-.062.746 1.851 1.062 2.088 1.51.526 1.043.658 1.938 1.22 3 1.088 2.044.552 2.518 3.527 1.728 2.983-.79-2.167 5.923-2.167 5.923s-1.536.93-1.396 2.299q.026.237.067.481l.058.326c.212 1.14.484 2.269-.423 2.659-1.123.49-1.71.947-1.658 1.57s-.193.184-.974 1.211.684.395-.974 1.658c-1.658 1.273-4.545 2.185-4.984.895-.438-1.29-3.273-4.124-1.807-6.37 0 0 .588-.588.438-1.176-.149-.587-1.658-2.246-1.561-3.465.096-1.22.491-1.878-.246-1.87-.737.01-.93-1.052-2.44-.517-1.517.527-3.518.869-4.737-1.86s-1.413-3.027-1.027-4.01c.395-.974.807-2.246.597-3.246-.202-1 1.65-1.685 2.58-2.466.93-.78 1.517-.763 2.833-1.448s.527-2.114 1.694-1.868M53.533 52.39c.263.228.368.517.29.842-.062.263-.413 1.018-.413 1.018-.29.605-.72 1.14-.992 1.754-.088.202-.079.43-.175.632-.053.105-.123.184-.123.193-.456.57-.456.57-.834.658-.342.08-.5-.044-.667-.298-.06-.088-.122-.623-.105-.684l.027-.08c.026-.07.157-.42.5-.763.061-.061.184-.184.219-.263s.009-.167 0-.237c-.053-.21-.088-.702.097-1.018.184-.307.535-.184.79-.298.192-.088.254-.307.412-.43.193-.158.473-.184.623-.412.184-.281.236-.421.263-.5.026-.088.044-.097.088-.114m20.724-9.459c-.007.137-.038.27-.076.4l-.122.393a2 2 0 0 0-.048.198c-.061.378.01.492.053.562a.46.46 0 0 1 .088.36c-.027.175-.167.298-.202.474-.044.184-.035.386-.079.57-.333 1.597-.518 1.632-.588 1.65-.07-.062-.009-.211-.131-.22-.07-.009-.07-.009-.167.193-.044.097-.097.114-.123.114-.053.009-.07-.053-.114-.053-.088-.008-.176.123-.263.036a.5.5 0 0 1-.053-.167c-.026-.22.07-.43.018-.65-.027-.105-.114-.184-.097-.298 0-.008.105-.631.184-.816 0 0 .062-.14.185-.14.043 0 .087 0 .105-.053 0-.009.009-.017.009-.026.07-.15.061-.316.131-.465.08-.184.246-.307.299-.509.061-.22.052-.447.131-.667.053-.149.184-.254.263-.386.15-.246.123-.544.237-.798.035-.08.053-.114.088-.14.158-.097.28.254.272.438m-5.18-29.127.17.023c1.693 2.132 4.15 6.195 4.826 8.195a33 33 0 0 1 2.483 12.6c0 .395 0 .79-.018 1.176a1.8 1.8 0 0 0-.017.684 33 33 0 0 1-.781 5.545c-.439-.22-.93-.684-1.588-1.483-1.57-1.912-2.562-4.896-3.615-2.597-1.062 2.3-.685 1.167-.597 3.22s-.807 5.098-1.14 3.958c-.334-1.141-3.343-7.695-5.107-7.099s-1.588 1.132-1.588 1.132-1.15 3.826-2.553 4.37c-1.413.544-4.326.043-4.94-2.615-.623-2.667-2.65-1.281-3.79-1.536-1.15-.254-1.878-3.544-2.3-4.422-.473-.991-1.509-.474-1.939-1.43-.377-.851 1.062-2.65 2.44-3.255 1.658-.728 2.22.991 3.623-.123s3.466 1.93 3.466 1.93.36 1.246 1.193.57c.834-.684-1.07-2.895-1.895-3.15-6.23-1.92-3.711-3.684-2.439-4.307 3.255-1.589-1.062-3.686-1.246-5.888-.051-.572 1.1-.682 2.336-.77l.675-.047c1.51-.114 2.84-.312 1.929-1.403-1.79-2.14 2.343-.737 3.492-.631s.895.324 2.387 0c1.482-.325 1.921-.185 3.51-.553 1.333-.307 1.86-2.343 3.193-2.07Zm8.137 26.258c.061.026.096.061.061.272l-.131.807-.421 1.974c0 .009-.01.018-.01.027 0-.08.027-.15.036-.229-.026.053-.035.114-.061.167-.018-.044.035-.237.035-.237 0-.009.324-1.044.114-1.22-.044.018-.053.07-.088.106-.07-.07.053-.509.061-.509.088-.263.018-.395-.061-.456.079-.255.123-.386.167-.457a.1.1 0 0 1 .035-.026c.026.026.035.053.017.307-.034.538-.042.653-.043.69v.021c.105-.412.131-.842.289-1.237m-.491-.851c0 .008.017.026.008.131-.017.15-.096.281-.114.43-.008.088.018.167.01.255-.01.061-.027.131-.027.193v.044c0 .061 0 .131-.009.201-.009.053-.018.14-.035.167-.044 0-.035.053-.053.08-.026-.018-.035-.089-.026-.229.009-.158.079-.298.079-.456-.009-.237-.009-.237 0-.334 0-.017 0-.044.009-.061.035-.272.14-.413.14-.413s.009-.008.018-.008M50.347 17.417c.325 1.895.246 3.123 1.124 3.738.877.614 2.799 3.07.92 3.158-1.877.088-1.745-.491-1.666 1.334s-1.553.5 0 2.44c1.553 1.938.491 1.263-1.088.894s-3.255-2.351-4.79-.965c-1.528 1.386-1.87.404-2.58 1.728-.711 1.325-1.483 1.676-2.554.825-.354-.286-.85-.855-1.383-1.436l-.247-.268c-.996-1.068-2.053-2.038-2.485-1.218 0 0-.492.587-1.03 1.267l-.216.276a31 31 0 0 0-.421.554c-.702.948-3.948 2.606-4.475.825s-.114-3.711.685-4.413c.798-.702 1.886.438 2.263 0 .149-.173-.032-.563-.24-.984l-.114-.23c-.283-.58-.514-1.154.074-1.243 1.096-.175 1.886.088 2.939-1.14 1.053-1.229-.614-2.282.526-3.16 1.141-.877.869-2.72 3.764-3.158 2.896-.439 3.782.895 5.45.58 1.666-.317 1.579-.23 2.544-.668s2.676-.632 3 1.264M34.73 12.319c.764-.035 1.317-.044 1.8.237.482.28 2.491.833 1.456 1.386s-1.659.307-2.08 1.264l-.117.272c-.329.776-.497 1.167-1.681 1.167-1.317 0-2.282-.281-2.905.342s-1.386 2.01-1.834 1.176c-.447-.834-.798-1.94 0-2.633.799-.693 2.378-1.132 1.8-2.053-.535-.83.214-.905.354-.912h.022s.676-.343 1.825-.483.597.272 1.36.237"/><path fill="url(#b)" d="M2.9 45.875q1.16 0 2.02-.806.86-.805.86-1.965v-9.475q0-1.16-.86-1.966a2.86 2.86 0 0 0-2.02-.806H0v15.018zm0-1.268H1.375V32.125H2.9q.688 0 1.15.462t.462 1.042v9.475q0 .58-.462 1.042a1.56 1.56 0 0 1-1.15.461m9.94 1.268q1.16 0 2.02-.86.858-.858.859-1.997v-9.303q0-1.14-.86-1.998-.859-.86-2.019-.86t-2.02.86q-.858.86-.859 1.998v9.303q0 1.139.86 1.998.859.86 2.019.859m0-1.375q-.71 0-1.16-.397-.451-.398-.451-1.085v-9.303q0-.687.45-1.085.452-.398 1.161-.398t1.16.398q.45.398.451 1.085v9.303q0 .687-.45 1.085-.452.397-1.161.397m8.328 1.375v-9.71l1.612 9.71h1.869l1.611-9.71v9.71h1.268V30.857h-1.74L23.724 43.04 21.64 30.857H19.9v15.018zm11.938 0V30.857h-1.397v15.018zm5.578 0V34.553l2.643 11.322h1.74V30.857h-1.268V42.18l-2.664-11.323h-1.847v15.018zm9.961 0 .344-2.879h2.299l.344 2.879h1.396l-2.084-15.018h-1.611l-2.084 15.018zm2.428-4.168h-1.87l.925-7.498.021-.086v.086zm7.92 4.168v-13.75h2.191v-1.268h-5.779v1.268h2.191v13.75zm7.77 0V30.857h-1.397v15.018zm7.06 0q1.16 0 2.02-.86.86-.858.86-1.997v-9.303q0-1.14-.86-1.998-.86-.86-2.02-.86t-2.02.86q-.859.86-.859 1.998v9.303q0 1.139.86 1.998.86.86 2.02.859m0-1.375q-.709 0-1.16-.397-.45-.398-.451-1.085v-9.303q0-.687.451-1.085t1.16-.398 1.16.398q.452.398.452 1.085v9.303q0 .687-.452 1.085-.45.397-1.16.397m8.457 1.375V34.553l2.643 11.322h1.74V30.857h-1.267V42.18l-2.664-11.323h-1.848v15.018z"/><use xlink:href="#c" fill="#000" filter="url(#d)"/><use xlink:href="#c" fill="#080c0c"/></g></svg>