<svg xmlns="http://www.w3.org/2000/svg" xmlns:xlink="http://www.w3.org/1999/xlink" viewBox="0 0 96 96"><defs><linearGradient id="b" x1="69.796%" x2="26.096%" y1="3.791%" y2="87.827%"><stop offset="0%" stop-color="#d4d4d4"/><stop offset="100%"/></linearGradient><linearGradient id="c" x1="26.096%" x2="26.096%" y1="-41.811%" y2="100%"><stop offset="0%" stop-color="#d4d4d4"/><stop offset="100%"/></linearGradient><filter id="a" width="128.6%" height="128.6%" x="-14.3%" y="-14.3%" filterUnits="objectBoundingBox"><feOffset dy="2" in="SourceAlpha" result="shadowOffsetOuter1"/><feGaussianBlur in="shadowOffsetOuter1" result="shadowBlurOuter1" stdDeviation="2"/><feColorMatrix in="shadowBlurOuter1" result="shadowMatrixOuter1" values="0 0 0 0 0 0 0 0 0 0 0 0 0 0 0 0 0 0 0.2 0"/><feMerge><feMergeNode in="shadowMatrixOuter1"/><feMergeNode in="SourceGraphic"/></feMerge></filter></defs><g fill="none" filter="url(#a)" transform="translate(6 6)"><path fill="url(#b)" d="M42 84c23.196 0 42-17.144 42-40.93S65.196 0 42 0 0 19.283 0 43.07 18.804 84 42 84"/><path fill="#f2f2f2" d="M42 0a41 41 0 0 1 19.696 5.02c9.418 10.638 13.503 25.553 6.507 37.635-4.578 7.905-10.597 10.691-15.913 10.81-6.416.143-11.667-3.789-10.29-9.763 2.518-10.924-10.01-18.534-21.598-8.354-6.642 5.836-9.464 14.632-5.867 27.366.422 1.496 3.248 10.207 9.152 14.964 2.723 2.195 6.571 4.22 10.736 5.395q1.677.474 4.895.85C17.372 82.659 0 65.933 0 43.07 0 19.283 18.804 0 42 0"/><circle cx="31.32" cy="42" r="3.5" fill="#f2f2f2"/><circle cx="52.5" cy="41.5" r="3.5" fill="url(#c)"/></g></svg>