<svg xmlns="http://www.w3.org/2000/svg" xmlns:xlink="http://www.w3.org/1999/xlink" viewBox="0 0 96 96"><defs><linearGradient id="b" x1="0%" x2="100%" y1="34.802%" y2="34.802%"><stop offset="0%" stop-color="#fdfdff"/><stop offset="63.409%" stop-color="#f2f7fc"/><stop offset="100%" stop-color="#cbdef3"/></linearGradient><linearGradient id="c" x1="16.91%" x2="119.913%" y1="60.589%" y2="60.589%"><stop offset="0%" stop-color="#fff"/><stop offset="70.281%" stop-color="#e2edf8"/><stop offset="100%" stop-color="#8ab5e4"/></linearGradient><filter id="a" width="133.8%" height="126.1%" x="-16.9%" y="-13%" filterUnits="objectBoundingBox"><feOffset dy="2" in="SourceAlpha" result="shadowOffsetOuter1"/><feGaussianBlur in="shadowOffsetOuter1" result="shadowBlurOuter1" stdDeviation="2"/><feColorMatrix in="shadowBlurOuter1" result="shadowMatrixOuter1" values="0 0 0 0 0 0 0 0 0 0 0 0 0 0 0 0 0 0 0.2 0"/><feMerge><feMergeNode in="shadowMatrixOuter1"/><feMergeNode in="SourceGraphic"/></feMerge></filter></defs><g fill="none" fill-rule="evenodd" filter="url(#a)" transform="translate(11 -1)"><path fill="#0f5589" d="M12.359 17.946 32 40v47.589a2 2 0 0 1-3.318 1.504L6.012 69.23a7 7 0 0 1-2.387-5.265V21.271a5 5 0 0 1 8.734-3.325"/><rect width="40" height="54" x="31" y="31" fill="#8ab5e4" rx="4"/><path fill="#276899" fill-rule="nonzero" d="M67 31a4 4 0 0 1 4 4v46a4 4 0 0 1-4 4H35a4 4 0 0 1-4-4V35a4 4 0 0 1 4-4zm0 3H35a1 1 0 0 0-.993.883L34 35v46a1 1 0 0 0 .883.993L35 82h32a1 1 0 0 0 .993-.883L68 81V35a1 1 0 0 0-.883-.993z"/><path fill="url(#b)" d="M8.536 8.536 32 32v47.977a4 4 0 0 1-6.686 2.964L5.913 65.358A18 18 0 0 1 0 52.021V12.07a5 5 0 0 1 8.536-3.535"/><path fill="#276899" fill-rule="nonzero" d="M5 7.071a5 5 0 0 1 3.536 1.465L32 32v47.977a4 4 0 0 1-6.686 2.964L5.913 65.358A18 18 0 0 1 0 52.021V12.07a5 5 0 0 1 5-5m0 3a2 2 0 0 0-1.995 1.85L3 12.07v39.95a15 15 0 0 0 4.637 10.844l.29.27 19.401 17.583a1 1 0 0 0 1.665-.625l.007-.116V33.243L6.414 10.657a2 2 0 0 0-1.238-.578z"/><path fill="url(#c)" d="M35.47 16.515 63 32v49L35.422 67.211A8 8 0 0 1 31 60.056V19.13a3 3 0 0 1 4.47-2.615" transform="matrix(-1 0 0 1 94 0)"/><path fill="#276899" fill-rule="nonzero" d="M60 16.13a3 3 0 0 0-1.47.385L31 32v49l27.578-13.789A8 8 0 0 0 63 60.056V19.13a3 3 0 0 0-3-3m0 3v40.926a5 5 0 0 1-2.555 4.361l-.209.11L34 76.147V33.754z"/></g></svg>