<svg xmlns="http://www.w3.org/2000/svg" xmlns:xlink="http://www.w3.org/1999/xlink" viewBox="0 0 96 96"><defs><linearGradient id="b" x1="50%" x2="50%" y1="5.939%" y2="94.341%"><stop offset="0%" stop-color="#d000c4"/><stop offset="100%" stop-color="#4c005e"/></linearGradient><linearGradient id="c" x1="50%" x2="50%" y1="5.939%" y2="94.341%"><stop offset="0%" stop-color="#d000c4"/><stop offset="100%" stop-color="#4c005e"/></linearGradient><linearGradient id="d" x1="50%" x2="50%" y1="5.939%" y2="94.341%"><stop offset="0%" stop-color="#d000c4"/><stop offset="100%" stop-color="#4c005e"/></linearGradient><filter id="a" width="130%" height="131.2%" x="-15%" y="-15.6%" filterUnits="objectBoundingBox"><feOffset dy="2" in="SourceAlpha" result="shadowOffsetOuter1"/><feGaussianBlur in="shadowOffsetOuter1" result="shadowBlurOuter1" stdDeviation="2"/><feColorMatrix in="shadowBlurOuter1" result="shadowMatrixOuter1" values="0 0 0 0 0 0 0 0 0 0 0 0 0 0 0 0 0 0 0.2 0"/><feMerge><feMergeNode in="shadowMatrixOuter1"/><feMergeNode in="SourceGraphic"/></feMerge></filter></defs><g fill="none" filter="url(#a)" transform="translate(8 9)"><path fill="url(#b)" d="M61.444 46.773A5.2 5.2 0 0 1 60 43.177V32.823a5.2 5.2 0 0 1 1.444-3.596A5.2 5.2 0 0 1 60 25.63V15.276C60 12.362 62.41 10 65.385 10h9.23C77.59 10 80 12.362 80 15.276V25.63a5.2 5.2 0 0 1-1.444 3.597A5.2 5.2 0 0 1 80 32.823v10.354a5.2 5.2 0 0 1-1.444 3.596A5.2 5.2 0 0 1 80 50.37v10.354C80 63.638 77.59 66 74.615 66h-9.23C62.41 66 60 63.638 60 60.724V50.37a5.2 5.2 0 0 1 1.444-3.597"/><rect width="12" height="14" x="64" y="32" fill="#fff" rx="2.275"/><rect width="12" height="14" x="64" y="49" fill="#fff" rx="2.275"/><rect width="33" height="64" x="39" y="7" fill="url(#c)" rx="5.308"/><rect width="27" height="56" x="41" y="10" fill="#fff" rx="1.517"/><path fill="url(#d)" d="M47 60v11.018C47 74.322 44.018 77 40.7 77q-.623 0-1.232-.127L8.759 70.472C3.656 69.408 0 64.928 0 59.737V17.264c0-5.19 3.656-9.67 8.76-10.735L39.467.13c3.248-.678 6.724 1.395 7.404 4.628Q47 5.365 47 5.983V16h13v4H47v4h13v4H47v4h13v4H47v4h13v4H47v4h13v4H47v4h13v4z"/><path fill="#fff" d="m15.848 22.774 1.84-.122 11.74 21.41-.366 10.524L17.687 30.64v23.187L12 53.459V23.028l2.01-.133zM30.2 21.9l6.066-.751v33.803l-7.203-.367.366-10.523z"/><rect width="12" height="14" x="64" y="14" fill="#fff" rx="2.275"/></g></svg>