<svg xmlns="http://www.w3.org/2000/svg" viewBox="0 0 64 64"><circle cx="32" cy="33" r="28" opacity=".2"/><circle cx="32" cy="32" r="28" fill="#388e3c"/><path fill="#fff" d="M32 4A28 28 0 0 0 4 32a28 28 0 0 0 .033.482A28 28 0 0 1 32 5a28 28 0 0 1 27.982 27.242L60 32A28 28 0 0 0 32 4" opacity=".1"/><path fill="none" stroke="#000" stroke-linecap="round" stroke-linejoin="round" stroke-width="6" d="M12 13h11L12 24v14l25.6-25H52L12 53h15l25-25v14L41 53h11" opacity=".1"/><path fill="none" stroke="#353535" stroke-linecap="round" stroke-linejoin="round" stroke-width="6" d="M12 12h11L12 23v14l25.6-25H52L12 52h15l25-25v14L41 52h11"/></svg>