<svg xmlns="http://www.w3.org/2000/svg" xmlns:xlink="http://www.w3.org/1999/xlink" viewBox="0 0 96 96"><defs><linearGradient id="b" x1="50%" x2="50%" y1="0%" y2="100%"><stop offset="0%" stop-color="#ff9b7b"/><stop offset="100%" stop-color="#b43418"/></linearGradient><linearGradient id="c" x1="50%" x2="50%" y1="0%" y2="99.374%"><stop offset="0%" stop-opacity=".135"/><stop offset="100%" stop-opacity=".404"/></linearGradient><linearGradient id="d" x1="50%" x2="50%" y1="0%" y2="99.844%"><stop offset="0%" stop-color="#fff"/><stop offset="100%" stop-color="#c8c8c8"/></linearGradient><filter id="a" width="130%" height="131.6%" x="-15%" y="-15.8%" filterUnits="objectBoundingBox"><feOffset dy="2" in="SourceAlpha" result="shadowOffsetOuter1"/><feGaussianBlur in="shadowOffsetOuter1" result="shadowBlurOuter1" stdDeviation="2"/><feColorMatrix in="shadowBlurOuter1" result="shadowMatrixOuter1" values="0 0 0 0 0 0 0 0 0 0 0 0 0 0 0 0 0 0 0.2 0"/><feMerge><feMergeNode in="shadowMatrixOuter1"/><feMergeNode in="SourceGraphic"/></feMerge></filter></defs><g fill="none" fill-rule="evenodd" filter="url(#a)" transform="translate(8 10)"><rect width="76" height="76" x="2" fill="url(#b)" rx="18"/><path fill="url(#c)" fill-rule="nonzero" d="M60 0c9.941 0 18 8.059 18 18v40c0 9.941-8.059 18-18 18H20c-9.941 0-18-8.059-18-18V18C2 8.059 10.059 0 20 0zm0 1H20C10.72 1 3.175 8.437 3.003 17.677L3 18v40c0 9.28 7.437 16.825 16.677 16.997L20 75h40c9.28 0 16.825-7.437 16.997-16.677L77 58V18c0-9.28-7.437-16.825-16.677-16.997z"/><path fill="url(#d)" d="M6.5 9C22.792 9 36 22.208 36 38.5S22.792 68 6.5 68H0V58h6.5C17.27 58 26 49.27 26 38.5c0-10.655-8.546-19.314-19.157-19.497L6.5 19H0V9zM80 9v10h-6.5l-.343.003C62.546 19.186 54 27.845 54 38.5 54 49.27 62.73 58 73.5 58H80v10h-6.5C57.208 68 44 54.792 44 38.5S57.208 9 73.5 9z"/></g></svg>