<svg xmlns="http://www.w3.org/2000/svg" xmlns:xlink="http://www.w3.org/1999/xlink" viewBox="0 0 96 96"><defs><linearGradient id="b" x1="50%" x2="50%" y1="0%" y2="100%"><stop offset="0%" stop-color="#7290fe"/><stop offset="100%" stop-color="#3e57fc"/></linearGradient><linearGradient id="c" x1="-9.042%" x2="60.041%" y1="27.94%" y2="68.742%"><stop offset="0%" stop-color="#dd4b19"/><stop offset="23.869%" stop-color="#ef761b"/><stop offset="100%" stop-color="#695cff"/></linearGradient><filter id="a" width="128.6%" height="128.6%" x="-14.3%" y="-14.3%" filterUnits="objectBoundingBox"><feOffset dy="2" in="SourceAlpha" result="shadowOffsetOuter1"/><feGaussianBlur in="shadowOffsetOuter1" result="shadowBlurOuter1" stdDeviation="2"/><feColorMatrix in="shadowBlurOuter1" result="shadowMatrixOuter1" values="0 0 0 0 0 0 0 0 0 0 0 0 0 0 0 0 0 0 0.2 0"/><feMerge><feMergeNode in="shadowMatrixOuter1"/><feMergeNode in="SourceGraphic"/></feMerge></filter></defs><g fill="none" fill-rule="evenodd" filter="url(#a)" transform="translate(6 6)"><circle cx="42" cy="42" r="42" fill="#fff"/><path fill="url(#b)" fill-rule="nonzero" d="M42 0c23.196 0 42 18.804 42 42S65.196 84 42 84 0 65.196 0 42 18.804 0 42 0m0 3C20.46 3 3 20.46 3 42s17.46 39 39 39 39-17.46 39-39S63.54 3 42 3"/><path fill="url(#c)" d="M29.5 27a8.5 8.5 0 0 1 3.725 16.143q1.162.977 2.356 2.807Q38.162 49.9 42 57h-4.731q-3.418-6.412-5.176-9.103-1.807-2.766-3.51-2.891L28.42 45H22.2v12H18V27zM59 27a7 7 0 0 1 2.493 13.543A8.5 8.5 0 0 1 58.5 57H46V27zm-1 16h-8v10h8a5 5 0 0 0 0-10M27.5 30H22v11h5.5a5.5 5.5 0 0 0 0-11M58 31h-8v8h8a4 4 0 1 0 0-8"/></g></svg>