<svg xmlns="http://www.w3.org/2000/svg" viewBox="0 0 64 64"><circle cx="32" cy="34" r="28" opacity=".2"/><circle cx="32" cy="33" r="28" fill="#e74c3c"/><path fill="#fff" d="M32 5A28 28 0 0 0 4 33a28 28 0 0 0 .035.5A28 28 0 0 1 32 6a28 28 0 0 1 27.982 27.252L60 33A28 28 0 0 0 32 5" opacity=".1"/><path d="M25.94 2.1c-1.01.32-1.56 1.27-1.25 2.13l.79 2.18C14.06 7.47 8 19.16 8 19.16s3.82.69 13.03-4.24c2.56-1.37 4.04-2.85 4.88-4.18-.17 1.37-.15 3.14.26 5.39 1.02 5.65 5.28 9.87 5.28 9.87s5.17-8.31-.37-16.46C39.24 14.92 52 12.58 52 12.58s-5.71-5.92-11.78-7.23c-4.53-.98-8.68.16-10.84.65l-.11-.31-.94-2.59c-.25-.7-.99-1.1-1.51-1.1-.51 0-.69.04-.88.1" opacity=".2"/><path fill="#a6ef4d" d="M25.94 1.1c-1.01.32-1.56 1.27-1.25 2.13l.79 2.18C14.06 6.47 8 18.16 8 18.16s3.82.69 13.03-4.24c2.56-1.37 4.04-2.85 4.88-4.18-.17 1.37-.15 3.14.26 5.39 1.02 5.65 5.28 9.87 5.28 9.87s5.17-8.31-.37-16.46C39.24 13.92 52 11.58 52 11.58s-5.71-5.92-11.78-7.23c-4.53-.98-8.68.16-10.84.65l-.11-.31-.94-2.59c-.25-.7-.99-1.1-1.51-1.1-.51 0-.69.04-.88.1"/><path fill="#fff" d="M26.82 1c-.51 0-.69.04-.88.1-1.01.32-1.56 1.27-1.25 2.13v.01c.18-.51.63-.94 1.25-1.14.19-.06.37-.1.88-.1.52 0 1.26.4 1.51 1.1l.94 2.59.11.31c2.16-.49 6.31-1.63 10.84-.65 4.64 1 9.04 4.67 10.88 6.36.53-.07.9-.13.9-.13s-5.71-5.92-11.78-7.23c-4.53-.98-8.68.16-10.84.65l-.11-.31-.94-2.59c-.25-.7-.99-1.1-1.51-1.1m-1.69 4.45C13.94 6.72 8 18.16 8 18.16s.21.02.57.03c1.73-2.82 7.49-10.91 16.91-11.78Zm5.95 4.09c1.82 2.67 2.48 5.37 2.55 7.78.08-2.2-.3-4.69-1.61-7.21-.32-.18-.63-.37-.94-.57" opacity=".2"/></svg>