<svg xmlns="http://www.w3.org/2000/svg" xmlns:xlink="http://www.w3.org/1999/xlink" viewBox="0 0 96 96"><defs><linearGradient id="b" x1="50%" x2="50%" y1="0%" y2="100%"><stop offset="0%" stop-color="#8b8b8b"/><stop offset="100%"/></linearGradient><filter id="a" width="126.7%" height="135.3%" x="-13.3%" y="-17.6%" filterUnits="objectBoundingBox"><feOffset dy="2" in="SourceAlpha" result="shadowOffsetOuter1"/><feGaussianBlur in="shadowOffsetOuter1" result="shadowBlurOuter1" stdDeviation="2"/><feColorMatrix in="shadowBlurOuter1" result="shadowMatrixOuter1" values="0 0 0 0 0 0 0 0 0 0 0 0 0 0 0 0 0 0 0.2 0"/><feMerge><feMergeNode in="shadowMatrixOuter1"/><feMergeNode in="SourceGraphic"/></feMerge></filter></defs><g fill="none" fill-rule="evenodd"><g fill="#fff" filter="url(#a)" transform="translate(3 14)"><rect width="90" height="68" rx="18"/></g><path fill="url(#b)" d="M53 35v12.325L57.748 42h5l-5.766 6.794L63.804 58h-4.9l-4.212-6.301L53 53.65V59h-4V35zm33 0v20a1 1 0 0 0 1 1h1v3h-2a4 4 0 0 1-4-4V35zm-14 6a6 6 0 0 1 5.996 5.775L78 47v4H68q.021 2.064.708 2.797c.687.731 1.317 1.466 3.292 1.466q1.875 0 5.603-1.323l.397-.143V58q-3.755 1-5.506 1-.743 0-2.383-.21a7 7 0 0 1-6.107-6.704l-.004-.24V48a7 7 0 0 1 6.76-6.996L71 41zm-26.547 2.226.363.19-1.938 2.643q-2.145-.926-3.346-.926c-1.2 0-1.801 0-1.801 1.367s5.76 2.83 7.085 5.406c1.324 2.577.317 5.153-3.264 6.338q-3.582 1.185-8.871-1.38.675-3.27 1.805-2.868c1.128.402 6.182 1.841 7.066.487s-1.162-1.933-5.23-3.962-4.069-7.105-.428-8.521q3.516-1.368 8.56 1.226M31 42v16h-5V42zM8 37h8a7 7 0 0 1 0 14h-4v7H8zm64 8h-1a3 3 0 0 0-3 3h7l-.005-.176A3 3 0 0 0 72 45m-56-4h-4v6h4a3 3 0 0 0 0-6m12.5-7a2.5 2.5 0 1 1 0 5 2.5 2.5 0 0 1 0-5"/></g></svg>