<svg xmlns="http://www.w3.org/2000/svg" xmlns:xlink="http://www.w3.org/1999/xlink" viewBox="0 0 96 96"><defs><linearGradient id="b" x1="50%" x2="50%" y1="0%" y2="100%"><stop offset="0%" stop-color="#50caff"/><stop offset="100%" stop-color="#2d8ded"/></linearGradient><filter id="a" width="128.6%" height="128.6%" x="-14.3%" y="-14.3%" filterUnits="objectBoundingBox"><feOffset dy="2" in="SourceAlpha" result="shadowOffsetOuter1"/><feGaussianBlur in="shadowOffsetOuter1" result="shadowBlurOuter1" stdDeviation="2"/><feColorMatrix in="shadowBlurOuter1" result="shadowMatrixOuter1" values="0 0 0 0 0 0 0 0 0 0 0 0 0 0 0 0 0 0 0.2 0"/><feMerge><feMergeNode in="shadowMatrixOuter1"/><feMergeNode in="SourceGraphic"/></feMerge></filter></defs><g fill="none" fill-rule="evenodd" filter="url(#a)" transform="translate(6 6)"><circle cx="42" cy="42" r="42" fill="url(#b)"/><path fill="#fefefe" d="M18.622 23.621c4.833 4.175 9.517 8.53 14.458 12.57 4.518 3.692 12.875 3.717 17.441.003 4.867-3.96 9.412-8.312 14.185-12.39 1.42-1.213 2.893-3.453 4.875-2.568 2.214.988 1.01 3.447.773 5.278-1.224 9.443-3.387 18.704-5.497 27.977-2.567 11.28-10.988 15.696-23.892 16.116-3.547-.155-7.705-.779-11.597-2.575-4.975-2.298-8.427-5.96-9.93-11.334-2.768-9.906-4.614-20.008-6.27-30.14-.288-1.76-1.233-4.332.843-5.333 1.81-.874 3.253 1.224 4.611 2.396M42.21 56.01c-.594-.043-1.214.106-1.771.31-1.083.396-.555 1.187-.121 1.81.514.74 1.038 1.445.012 2.18-.774.553-1.576.554-2.423.166-.2-.091-.359-.247-.51-.415l-.178-.205c-.268-.306-.556-.588-1.064-.548 1.645 2.991 3.85 3.063 6.055.324 1.652 2.739 3.304 2.667 4.537-.324-.678-.071-.832.875-1.314 1.168-.634.388-1.236.387-1.815-.167-.769-.734-.376-1.44.009-2.179.325-.623.72-1.414-.09-1.81-.394-.192-.83-.336-1.25-.316Zm-12.237-8.76c-2.322-.002-2.715 2.115-2.707 4.042.007 1.91.339 4.069 2.66 4.1 2.365.033 2.562-2.177 2.781-4.235-.255-1.654-.355-3.903-2.734-3.906m23.853.021c-2.313-.135-2.88 1.989-2.957 3.893-.08 1.937.495 4.047 2.665 4.205 1.836.135 2.427-1.23 2.814-2.762l.086-.356c.07-.298.134-.599.202-.893-.357-1.724-.556-3.956-2.81-4.087M65.68 29.288c-.674-.36-1.264.193-1.685.604-2.001 1.954-4.103 3.837-5.87 5.991-3.836 4.681-3.522 5.487 1.998 7.875 1.858.803 2.755.371 3.358-1.455a63 63 0 0 0 2.726-11.96c-.003.046.143-.698-.527-1.055m-47.762-.662c-.865 4.1.447 7.34 1.308 10.582 1.52 5.72 3.719 6.265 8.173 2.287.731-.653 1.183-1.212.578-2.162-2.608-4.087-5.893-7.502-10.06-10.707"/></g></svg>