<svg xmlns="http://www.w3.org/2000/svg" xmlns:xlink="http://www.w3.org/1999/xlink" viewBox="0 0 96 96"><defs><linearGradient id="b" x1="50%" x2="50%" y1="0%" y2="100%"><stop offset="0%" stop-color="#48995d"/><stop offset="100%" stop-color="#24552f"/></linearGradient><linearGradient id="c" x1="50%" x2="50%" y1="0%" y2="100%"><stop offset="0%" stop-color="#4b9962"/><stop offset="100%" stop-color="#4e885d"/></linearGradient><filter id="a" width="128.6%" height="134.3%" x="-14.3%" y="-17.1%" filterUnits="objectBoundingBox"><feOffset dy="2" in="SourceAlpha" result="shadowOffsetOuter1"/><feGaussianBlur in="shadowOffsetOuter1" result="shadowBlurOuter1" stdDeviation="2"/><feColorMatrix in="shadowBlurOuter1" result="shadowMatrixOuter1" values="0 0 0 0 0 0 0 0 0 0 0 0 0 0 0 0 0 0 0.2 0"/><feMerge><feMergeNode in="shadowMatrixOuter1"/><feMergeNode in="SourceGraphic"/></feMerge></filter></defs><g fill="none" filter="url(#a)" transform="translate(6 13)"><path fill="#343434" d="M84 6H0V2a2 2 0 0 1 2-2h80a2 2 0 0 1 2 2z"/><path fill="url(#b)" d="M2 6h80v56a8 8 0 0 1-8 8H10a8 8 0 0 1-8-8z"/><path fill="#fff" d="M66 36V18H42v18H30l24 24 24-24z"/><path fill="url(#c)" d="M34.828 38H44V20h20v18h9.172L54 57.172z"/><path fill="#fff" d="M8 46.032v1.88l5.902 3.254L8 54.036v2.026l8-4.192v-1.296zM26 60H16v-2h10z"/></g></svg>