<svg xmlns="http://www.w3.org/2000/svg" xmlns:xlink="http://www.w3.org/1999/xlink" viewBox="0 0 96 96"><defs><linearGradient id="b" x1="50%" x2="50%" y1="2.032%" y2="100%"><stop offset="0%" stop-color="#09faff"/><stop offset="100%" stop-color="#0090ef"/></linearGradient><linearGradient id="c" x1="50%" x2="50%" y1="0%" y2="97.599%"><stop offset="0%" stop-color="#ffc245"/><stop offset="100%" stop-color="#f77d04"/></linearGradient><linearGradient id="d" x1="50%" x2="50%" y1="0%" y2="100%"><stop offset="0%" stop-color="#b5ff37"/><stop offset="99.97%" stop-color="#60cd01"/></linearGradient><filter id="a" width="128.6%" height="131.4%" x="-14.3%" y="-15.7%" filterUnits="objectBoundingBox"><feOffset dy="2" in="SourceAlpha" result="shadowOffsetOuter1"/><feGaussianBlur in="shadowOffsetOuter1" result="shadowBlurOuter1" stdDeviation="2"/><feColorMatrix in="shadowBlurOuter1" result="shadowMatrixOuter1" values="0 0 0 0 0 0 0 0 0 0 0 0 0 0 0 0 0 0 0.2 0"/><feMerge><feMergeNode in="shadowMatrixOuter1"/><feMergeNode in="SourceGraphic"/></feMerge></filter></defs><g fill="none" fill-rule="evenodd" filter="url(#a)" transform="translate(6.982 9.75)"><path fill="url(#b)" fill-rule="nonzero" d="M81.295 30.533a56.3 56.3 0 0 0-9.759-8.096A195 195 0 0 0 46.534 7.602a115 115 0 0 0-15.944-6.55 17.2 17.2 0 0 0-7.819-.948 8.83 8.83 0 0 0-6.739 5.15 22.4 22.4 0 0 0-1.108 3.471h.029v-.014l.044-.219.014.058.525.073c2.64.715 5.28 1.517 7.892 2.276a134 134 0 0 1 17.242 6.9c4.785 2.377 9.598 4.74 14.222 7.468a69 69 0 0 1 6.959 4.406 17.8 17.8 0 0 1 4.96 4.96 5.79 5.79 0 0 1 .378 5.63c-1.196 2.48-3.876 2.976-6.02 4.61-6.55 4.682-13.6 8.418-20.85 11.933-4.697 2.363-9.207 3.51-14.196 5.159-2.378.802-4.9 2.845-7.336 3.472-1.75.409-3.6 1.725-5.351 2.148l-.117.16c.35 2.028 1.575 4.143 2.917 5.718a9.74 9.74 0 0 0 6.288 2.962c3.996.379 7.95-.73 11.698-2.014a96 96 0 0 0 16.717-7.847 161.7 161.7 0 0 0 28.518-21.692c2.072-2.1 4.172-4.522 4.551-7.556.234-2.552-1.094-4.93-2.713-6.783"/><path fill="url(#c)" fill-rule="nonzero" d="M11.831 42.407q-.11-3.195.131-6.389c.088-2.203.19-4.405.248-6.637.307-1.896.234-3.793.526-5.69.175-1.502.335-3.004.423-4.521.54-3.501.948-7.031 1.78-10.488l.043-.22.015.045c0-.015.014-.03.014-.059-2.64-.481-5.528-.831-8.037.365a7.2 7.2 0 0 0-3.443 4.099 54 54 0 0 0-2.378 10.153 106 106 0 0 0-1.152 12.72c-.03 8.154.642 16.308 2.028 24.346.583 2.494 1.21 5.353 3.486 6.885 2.275 1.531 5.178 1.181 7.687.715q.546-.104.546-.198 0-.148.574-.762c-.336-2.552-1.718-4.875-1.922-7.428-.19-2.422-.32-4.887-.408-7.367-.234-3.18-.132-6.374-.16-9.569"/><path fill="url(#d)" fill-rule="nonzero" d="m14.997 8.536.525.073c2.64.714 5.28 1.517 7.891 2.275a134 134 0 0 1 17.242 6.9c4.785 2.378 9.599 4.74 14.223 7.469a69 69 0 0 1 6.958 4.405 17.8 17.8 0 0 1 4.96 4.96 5.79 5.79 0 0 1 .379 5.63c-1.196 2.48-3.545 4.056-5.69 5.69a142.7 142.7 0 0 1-20.728 12.325 107 107 0 0 1-21.224 7.965c-1.75.423-3.472.948-5.222 1.342l-.992.175a39 39 0 0 0-.16-1.269 142 142 0 0 1-1.167-14.514c-.234-3.18-.132-6.375-.16-9.57q-.11-3.195.13-6.389c.088-2.202.19-4.405.248-6.637.307-1.896.234-3.792.526-5.689.175-1.502.335-3.005.423-4.522.54-3.5.948-7.03 1.78-10.488l.043-.219"/><path fill="#fff" d="M23.406 26.433q-.97 7.458-.97 11.817 0 4.365.973 11.563a2 2 0 0 0 2.548 1.65q5.407-1.595 11.305-4.645a93.5 93.5 0 0 0 11.523-7.077 2 2 0 0 0-.04-3.279q-6.054-4.119-11.483-6.927a78.6 78.6 0 0 0-11.24-4.741 2 2 0 0 0-2.616 1.64"/></g></svg>