<svg xmlns="http://www.w3.org/2000/svg" viewBox="0 0 64 64"><path d="M61.96 31.828A30 30 0 0 1 32 61 30 30 0 0 1 2.04 32.172 30 30 0 0 0 2 33a30 30 0 0 0 30 30 30 30 0 0 0 30-30 30 30 0 0 0-.04-1.172" opacity=".2"/><path fill="#4f4f4f" d="M62 32a30 30 0 0 1-30 30A30 30 0 0 1 2 32 30 30 0 0 1 32 2a30 30 0 0 1 30 30"/><g opacity=".2"><path d="M27.72 46.08c1.902-.583 4.184-2.185 5.254-3.688l.353-.495-.442-1.338c-1.614-4.885 1.317-9.81 6.343-10.658 3.653-.616 7.486 1.618 8.807 5.135.315.837.324.846.222.203-.303-1.901-1.244-3.654-2.774-5.166-1.597-1.578-3.45-2.473-5.767-2.783-.711-.095-.785-.068-1.052.385-.413.697-1.612 1.865-2.498 2.431-2.388 1.526-6.068 1.526-8.46.002-2.704-1.722-4.233-5.02-3.737-8.058a8.2 8.2 0 0 1 2.165-4.363c.844-.893.901-.992.414-.713-.821.47-2.742 2.558-3.288 3.572-.628 1.17-1.139 3.238-1.136 4.605.002 1.176.31 2.737.763 3.866.263.659.296.68 1.272.79.551.062 1.422.258 1.936.434 4.54 1.562 6.682 6.798 4.556 11.138-1.449 2.958-4.802 4.862-7.937 4.507-1.276-.144-1.14.028.274.35 1.254.285 3.54.21 4.732-.156"/><path d="M32 13c-11.033 0-20 8.967-20 20s8.967 20 20 20 20-8.967 20-20-8.967-20-20-20m0 2.148c9.873 0 17.852 7.98 17.852 17.852S41.872 50.852 32 50.852 14.148 42.872 14.148 33 22.128 15.148 32 15.148"/></g><path fill="#fff" d="M31.998 2A30 30 0 0 0 2 32a30 30 0 0 0 .018.512A30 30 0 0 1 31.998 3H32a30 30 0 0 1 29.975 29.512 30 30 0 0 0 .023-.512A30 30 0 0 0 32 2z" opacity=".1"/><g fill="#fff"><path d="M27.72 45.08c1.902-.583 4.184-2.185 5.254-3.688l.353-.495-.442-1.338c-1.614-4.885 1.317-9.81 6.343-10.658 3.653-.616 7.486 1.618 8.807 5.135.315.837.324.846.222.203-.303-1.901-1.244-3.654-2.774-5.166-1.597-1.578-3.45-2.473-5.767-2.783-.711-.095-.785-.068-1.052.385-.413.697-1.612 1.865-2.498 2.431-2.388 1.526-6.068 1.526-8.46.002-2.704-1.722-4.233-5.02-3.737-8.058a8.2 8.2 0 0 1 2.165-4.363c.844-.893.901-.992.414-.713-.821.47-2.742 2.558-3.288 3.572-.628 1.17-1.139 3.238-1.136 4.605.002 1.176.31 2.737.763 3.866.263.659.296.68 1.272.79.551.062 1.422.258 1.936.434 4.54 1.562 6.682 6.798 4.556 11.138-1.449 2.958-4.802 4.862-7.937 4.507-1.276-.144-1.14.028.274.35 1.254.285 3.54.21 4.732-.156"/><path d="M32 12c-11.033 0-20 8.967-20 20s8.967 20 20 20 20-8.967 20-20-8.967-20-20-20m0 2.148c9.873 0 17.852 7.98 17.852 17.852S41.872 49.852 32 49.852 14.148 41.872 14.148 32 22.128 14.148 32 14.148"/></g></svg>