<svg xmlns="http://www.w3.org/2000/svg" xmlns:xlink="http://www.w3.org/1999/xlink" viewBox="0 0 96 96"><defs><linearGradient id="b" x1="50%" x2="50%" y1="0%" y2="98.525%"><stop offset="0%" stop-color="#505050"/><stop offset="100%" stop-color="#212121"/></linearGradient><filter id="a" width="128.6%" height="128.6%" x="-14.3%" y="-14.3%" filterUnits="objectBoundingBox"><feOffset dy="2" in="SourceAlpha" result="shadowOffsetOuter1"/><feGaussianBlur in="shadowOffsetOuter1" result="shadowBlurOuter1" stdDeviation="2"/><feColorMatrix in="shadowBlurOuter1" result="shadowMatrixOuter1" values="0 0 0 0 0 0 0 0 0 0 0 0 0 0 0 0 0 0 0.2 0"/><feMerge><feMergeNode in="shadowMatrixOuter1"/><feMergeNode in="SourceGraphic"/></feMerge></filter></defs><g fill="none" fill-rule="evenodd" filter="url(#a)" transform="translate(6 6)"><circle cx="42" cy="42" r="42" fill="url(#b)"/><path fill="#fefefe" fill-rule="nonzero" d="M59 15c.328 0 1 .672 1 2 0 .28-.595.92-1 1h-5c-4.56 0-7.868 3.227-8 7v32c0 .328-.672 1-1 1-1.28 0-1.92-.595-2-1V26c0-6.204 4.548-10.846 10-11z"/><path fill="#fff" fill-rule="nonzero" d="M35 45c-6.851 0-12 5.149-12 12 0 5.851 5.149 11 12 11 5.851 0 11-5.149 11-11 0-6.851-5.149-12-11-12m0 3c4.194 0 8 3.806 8 9 0 4.194-3.806 8-8 8-5.194 0-9-3.806-9-8 0-5.194 3.806-9 9-9"/></g></svg>