<svg xmlns="http://www.w3.org/2000/svg" xmlns:xlink="http://www.w3.org/1999/xlink" viewBox="0 0 96 96"><defs><linearGradient id="b" x1="50%" x2="50%" y1="0%" y2="100%"><stop offset="0%" stop-color="#fddec6"/><stop offset="100%" stop-color="#fdb37a"/></linearGradient><linearGradient id="c" x1="50%" x2="50%" y1="0%" y2="100%"><stop offset="0%" stop-color="#a9a9a9"/><stop offset="100%" stop-color="#4c4c4c"/></linearGradient><filter id="a" width="140%" height="127.3%" x="-20%" y="-13.6%" filterUnits="objectBoundingBox"><feOffset dy="2" in="SourceAlpha" result="shadowOffsetOuter1"/><feGaussianBlur in="shadowOffsetOuter1" result="shadowBlurOuter1" stdDeviation="2"/><feColorMatrix in="shadowBlurOuter1" result="shadowMatrixOuter1" values="0 0 0 0 0 0 0 0 0 0 0 0 0 0 0 0 0 0 0.2 0"/><feMerge><feMergeNode in="shadowMatrixOuter1"/><feMergeNode in="SourceGraphic"/></feMerge></filter></defs><g fill="none" fill-rule="evenodd" filter="url(#a)" transform="translate(18 4)"><rect width="44" height="69" fill="url(#b)" rx="8"/><path fill="#000" fill-opacity=".302" fill-rule="nonzero" d="M36 0a8 8 0 0 1 8 8v53a8 8 0 0 1-8 8H8a8 8 0 0 1-8-8V8a8 8 0 0 1 8-8zm0 1H8a7 7 0 0 0-6.996 6.76L1 8v53a7 7 0 0 0 6.76 6.996L8 68h28a7 7 0 0 0 6.996-6.76L43 61V8a7 7 0 0 0-6.76-6.996z"/><g transform="translate(1.753 16.205)"><path fill="#d94614" fill-rule="nonzero" d="m.799.1.067.06L2.78 2.215 4.176.932a.5.5 0 0 1 .677.736L3.462 2.95l2.75 2.957a.5.5 0 0 1-.665.741l-.067-.06-2.754-2.961L1.473 4.78a.5.5 0 1 1-.677-.735l1.248-1.151L.134.841A.5.5 0 0 1 .799.099M34.159.1l-.067.06-1.914 2.056L30.782.932a.5.5 0 1 0-.678.736l1.392 1.281-2.75 2.957a.5.5 0 0 0 .664.741l.068-.06 2.754-2.961 1.253 1.154a.5.5 0 1 0 .677-.735l-1.248-1.151 1.91-2.053a.5.5 0 0 0-.665-.742"/><rect width="3" height="18" x="2.25" y="9.795" fill="#ffbf5d" rx="1.5"/><path fill="#ffbf5d" d="M6.75 12.795a1.5 1.5 0 0 1 1.5 1.5v9a1.5 1.5 0 0 1-3 0v-9a1.5 1.5 0 0 1 1.5-1.5"/><path fill="#d94614" fill-rule="nonzero" d="M3.75 9.795a1.5 1.5 0 0 1 1.5 1.5v15a1.5 1.5 0 0 1-3 0v-15a1.5 1.5 0 0 1 1.5-1.5m0 1a.5.5 0 0 0-.492.41l-.008.09v15a.5.5 0 0 0 .991.09l.009-.09v-15a.5.5 0 0 0-.5-.5m3 2a1.5 1.5 0 0 1 1.5 1.5v9a1.5 1.5 0 0 1-3 0v-9a1.5 1.5 0 0 1 1.5-1.5m0 1a.5.5 0 0 0-.492.41l-.008.09v9a.5.5 0 0 0 .991.09l.009-.09v-9a.5.5 0 0 0-.5-.5"/><path fill="#ffbf5d" d="M20.75 3.795a1.5 1.5 0 1 1 0 3h-1.5v4.582a8 8 0 0 1 4.996 7.17l.004.248a8 8 0 0 1-5 7.419v5.581h1.5a1.5 1.5 0 1 1 0 3h-10a1.5 1.5 0 0 1 0-3h1.5v-6.07a8 8 0 0 1-3.997-6.68l-.003-.25a8 8 0 0 1 4-6.93v-5.07h-1.5a1.5 1.5 0 0 1 0-3z"/><path fill="#d94614" fill-rule="nonzero" d="M20.75 3.795a1.5 1.5 0 1 1 0 3h-1.5v4.582a8 8 0 0 1 4.996 7.17l.004.248a8 8 0 0 1-5 7.419v5.581h1.5a1.5 1.5 0 1 1 0 3h-10a1.5 1.5 0 0 1 0-3h1.5v-6.07a8 8 0 0 1-3.997-6.68l-.003-.25a8 8 0 0 1 4-6.93v-5.07h-1.5a1.5 1.5 0 0 1 0-3zm0 1h-10a.5.5 0 0 0-.09.992l.09.008h2.5v6.648l-.5.288a6.99 6.99 0 0 0-3.495 5.78l-.006.27.004.233a7 7 0 0 0 3.269 5.707l.228.138.5.29v7.646h-2.5a.5.5 0 0 0-.09.992l.09.008h10a.5.5 0 0 0 .09-.992l-.09-.008h-2.5V25.54l.625-.253a7 7 0 0 0 4.37-6.209l.005-.267-.004-.234a7 7 0 0 0-4.127-6.168l-.244-.105-.624-.253-.002-6.256h2.5a.5.5 0 0 0 .09-.992z"/><path fill="#ff9a00" stroke="#d94614" stroke-linecap="square" d="M2.75 19.295h21"/><path fill="#d94614" fill-rule="nonzero" d="m.84 40.219.067-.06 1.914-2.057 1.396 1.283a.5.5 0 1 0 .677-.735l-1.391-1.281 2.75-2.957a.5.5 0 0 0-.665-.741l-.067.06-2.754 2.96-1.254-1.154a.5.5 0 0 0-.677.736l1.249 1.15-1.91 2.054a.5.5 0 0 0 .664.742"/></g><rect width="44" height="69" x="16" y="19" fill="url(#b)" rx="8"/><path fill="#000" fill-opacity=".302" fill-rule="nonzero" d="M52 19a8 8 0 0 1 8 8v53a8 8 0 0 1-8 8H24a8 8 0 0 1-8-8V27a8 8 0 0 1 8-8zm0 1H24a7 7 0 0 0-6.996 6.76L17 27v53a7 7 0 0 0 6.76 6.996L24 87h28a7 7 0 0 0 6.996-6.76L59 80V27a7 7 0 0 0-6.76-6.996z"/><path fill="url(#c)" d="M22.872 43.703c9.191.474 17.604-1.018 25.383-4.109q4.56 2.506 2.28 4.109-2.28 1.602-7.691 2.457 5.41 11.88 5.411 17.94t-9.306 4.626l3.895-4.626q1.443-7.38 0-11.333-1.444-3.955-2.77-5-3.369 6.269-4.803 8.57t-7.283 6.144q1.078-2.574 4.18-6.144 3.103-3.57 3.103-10.177-7.502-.109-9.95-1.283z"/></g></svg>