<svg xmlns="http://www.w3.org/2000/svg" xmlns:xlink="http://www.w3.org/1999/xlink" viewBox="0 0 96 96"><defs><radialGradient id="b" cx="77.163%" cy="57.094%" r="97.175%" fx="77.163%" fy="57.094%" gradientTransform="matrix(-.79405 -.31509 .26362 -.94906 1.234 1.356)"><stop offset="0%" stop-color="#b4b473"/><stop offset="100%" stop-color="#353821"/></radialGradient><radialGradient id="d" cx="140.691%" cy="30.023%" r="237.755%" fx="140.691%" fy="30.023%" gradientTransform="matrix(-.59174 .29432 -.18224 -.9557 2.294 .173)"><stop offset="0%" stop-color="#b4b473"/><stop offset="100%" stop-color="#353821"/></radialGradient><radialGradient id="e" cx="73.624%" cy="0%" r="177.561%" fx="73.624%" fy="0%" gradientTransform="matrix(-.19188 .83758 -.32214 -.59824 .878 -.617)"><stop offset="0%" stop-color="#f4a3ff"/><stop offset="100%" stop-color="#a04bae"/><stop offset="100%" stop-color="#a04bae"/></radialGradient><linearGradient id="c" x1="93.023%" x2="16.898%" y1="-11.869%" y2="76.752%"><stop offset="0%" stop-color="#6c6c21"/><stop offset="100%" stop-color="#353821"/></linearGradient><filter id="a" width="125.7%" height="130.8%" x="-12.9%" y="-15.4%" filterUnits="objectBoundingBox"><feOffset dy="2" in="SourceAlpha" result="shadowOffsetOuter1"/><feGaussianBlur in="shadowOffsetOuter1" result="shadowBlurOuter1" stdDeviation="2"/><feColorMatrix in="shadowBlurOuter1" result="shadowMatrixOuter1" values="0 0 0 0 0 0 0 0 0 0 0 0 0 0 0 0 0 0 0.2 0"/><feMerge><feMergeNode in="shadowMatrixOuter1"/><feMergeNode in="SourceGraphic"/></feMerge></filter></defs><g fill="none" fill-rule="evenodd" filter="url(#a)" transform="translate(1.387 9.897)"><path fill="url(#b)" d="M0 16.103h29.613v-1h2l.24-3.131q3.604-2.248 4.794-1.828t2.65 1.472h.316V0l7.73 6.16 1.44 9.943H62.17l10.288 9.41-6.292 12.142Q82.761 58.988 84.12 60.533 85.478 62.08 93.226 78L76.821 64.72Q64.357 52.396 63.264 51.868q-1.094-.528-2.642-.573l-9.857-10.48-42.64-12.04z"/><path fill="url(#c)" d="M93.226 78 77.61 65.356q2.393-2.89 6.962-4.193Q86.47 64.113 93.227 78"/><path fill="url(#d)" d="M33.365 13.08q-1.194.98-1.752 1.856-.377-2.494.24-3.143c.618-.648 3.604-2.069 4.794-1.65q1.19.42 2.65 1.473-4.738.483-5.932 1.463"/><ellipse cx="70.677" cy="46.141" fill="url(#e)" rx="10.411" ry="3.657" transform="rotate(48 70.677 46.14)"/><path fill="#656734" d="m39.613 11.616 10.074 10.866L47.342 6.16 39.613 0z" opacity=".388"/></g></svg>