<svg xmlns="http://www.w3.org/2000/svg" xmlns:xlink="http://www.w3.org/1999/xlink" viewBox="0 0 96 96"><defs><linearGradient id="b" x1="50%" x2="50%" y1="0%" y2="100%"><stop offset="0%" stop-color="#f7f7f7"/><stop offset="100%" stop-color="#ededed"/></linearGradient><linearGradient id="c" x1="50%" x2="50%" y1="0%" y2="100%"><stop offset="0%" stop-color="#cdcece"/><stop offset="100%" stop-color="#9fa0a0"/></linearGradient><linearGradient id="d" x1="50%" x2="50%" y1="0%" y2="100%"><stop offset="0%" stop-color="#f5e83c"/><stop offset="100%" stop-color="#e8ab1c"/></linearGradient><filter id="a" width="135.3%" height="129.9%" x="-17.6%" y="-14.9%" filterUnits="objectBoundingBox"><feOffset dy="2" in="SourceAlpha" result="shadowOffsetOuter1"/><feGaussianBlur in="shadowOffsetOuter1" result="shadowBlurOuter1" stdDeviation="2"/><feColorMatrix in="shadowBlurOuter1" result="shadowMatrixOuter1" values="0 0 0 0 0 0 0 0 0 0 0 0 0 0 0 0 0 0 0.2 0"/><feMerge><feMergeNode in="shadowMatrixOuter1"/><feMergeNode in="SourceGraphic"/></feMerge></filter></defs><g fill="none" filter="url(#a)" transform="translate(14 8)"><path fill="url(#b)" d="M66 80H2a2 2 0 0 1-2-2V6a2 2 0 0 1 2-2h64a2 2 0 0 1 2 2v72a2 2 0 0 1-2 2"/><path fill="url(#c)" d="M68 14H0V6a2 2 0 0 1 2-2h64a2 2 0 0 1 2 2z"/><path fill="url(#d)" d="M6.144 10.334h-.288A1.855 1.855 0 0 1 4 8.478V1.856C4 .832 4.83 0 5.856 0h.288C7.17 0 8 .832 8 1.856v6.622c0 1.026-.83 1.856-1.856 1.856m8 0h-.288A1.855 1.855 0 0 1 12 8.478V1.856C12 .832 12.83 0 13.856 0h.288C15.17 0 16 .832 16 1.856v6.622c0 1.026-.83 1.856-1.856 1.856m8 0h-.288A1.855 1.855 0 0 1 20 8.478V1.856C20 .832 20.83 0 21.856 0h.288C23.17 0 24 .832 24 1.856v6.622c0 1.026-.83 1.856-1.856 1.856m8 0h-.288A1.855 1.855 0 0 1 28 8.478V1.856C28 .832 28.83 0 29.856 0h.288C31.17 0 32 .832 32 1.856v6.622c0 1.026-.83 1.856-1.856 1.856m8 0h-.288A1.855 1.855 0 0 1 36 8.478V1.856C36 .832 36.83 0 37.856 0h.288C39.17 0 40 .832 40 1.856v6.622c0 1.026-.83 1.856-1.856 1.856m8 0h-.288A1.855 1.855 0 0 1 44 8.478V1.856C44 .832 44.83 0 45.856 0h.288C47.17 0 48 .832 48 1.856v6.622c0 1.026-.83 1.856-1.856 1.856m8 0h-.288A1.855 1.855 0 0 1 52 8.478V1.856C52 .832 52.83 0 53.856 0h.288C55.17 0 56 .832 56 1.856v6.622c0 1.026-.83 1.856-1.856 1.856m8 0h-.288A1.855 1.855 0 0 1 60 8.478V1.856C60 .832 60.83 0 61.856 0h.288C63.17 0 64 .832 64 1.856v6.622c0 1.026-.83 1.856-1.856 1.856"/><path fill="#000" d="M46.52 59.448c-4.952-6.146-9.974-12.224-15.154-18.164a272 272 0 0 1 13.406-15.922c2.68-2.942-3.252-4.312-5.292-2.074-4.092 4.49-8.004 9.142-11.784 13.904-3.928-4.386-7.926-8.714-12.092-12.894-1.832-1.838-7.764.628-5.75 2.648 4.866 4.88 9.52 9.942 14.07 15.098C16.84 51.38 10.308 61.144 4.328 71.2c-1.584 2.664 2.912 3.262 5.148 1.76l-.01.03.074-.068q.314-.224.552-.504c1.778-1.618 6.932-6.252 9.72-8.156 0 0-2.124-.592-4.594-.06a295 295 0 0 1 12.374-17.956 638 638 0 0 1 13.178 15.85c1.624 2.014 7.608-.342 5.75-2.648"/><g transform="translate(14.873 18.242)"><ellipse cx="24.923" cy="24.923" fill="#628bb6" rx="4.836" ry="30.41" transform="rotate(45 24.923 24.923)"/><path fill="#628bb6" d="M40.065 19.892c3.59-4.428 5.03-8.542 3.432-10.09a1.65 1.65 0 0 0-.732-.404c.698 2.032-1.05 5.71-4.182 9.572-.942 1.162-2.044 2.074-3.176 3.136l-1.572-.03-1.704 1.704s-1.202 1.682-.366 2.458c2.054-.136 5.43-2.806 8.3-6.346"/><path fill="#231815" d="M3.36 45.286s-1.525 2.042-1.183 2.386c.344.344 2.386-1.182 2.386-1.182z"/><path fill="#d4d4d4" d="M6.785 38.484c-3 4.214-4.478 7.292-3.596 8.174s3.96-.596 8.174-3.596z"/><ellipse cx="24.782" cy="25.095" fill="#fff" opacity=".3" rx="1.618" ry="30.23" transform="rotate(45 24.782 25.095)"/><path fill="#3b6aa7" d="m21.733 21.276 6.836 6.836-.802.802-6.836-6.836zm20.352-8.644-4.87-4.87.838-.63 4.662 4.662zm-31.19 30.762-4.44-4.442.686-1.02 4.806 4.804z"/></g></g></svg>