<svg xmlns="http://www.w3.org/2000/svg" viewBox="0 0 96 96"><g fill="none" fill-rule="evenodd"><path fill="#383958" d="M70 9a8 8 0 0 1 8 8v48a8 8 0 0 1-8 8H24a8 8 0 0 1-8-8V17a8 8 0 0 1 8-8zm-15 4a3 3 0 1 0 0 6 3 3 0 0 0 0-6m8 0a3 3 0 1 0 0 6 3 3 0 0 0 0-6m8 0a3 3 0 1 0 0 6 3 3 0 0 0 0-6"/><rect width="54" height="51" x="22" y="20" fill="#d9d9f0" rx="6"/><path fill="#fff" stroke="#000" stroke-width="1.5" d="M26 6.75c1.174 0 2.236.476 3.005 1.245A4.24 4.24 0 0 1 30.25 11v9.749L84 20.75c1.174 0 2.236.476 3.005 1.245A4.24 4.24 0 0 1 88.25 25a4.24 4.24 0 0 1-1.245 3.005A4.24 4.24 0 0 1 84 29.25l-53.75-.001v15.5L60 44.75c1.174 0 2.236.476 3.005 1.245A4.24 4.24 0 0 1 64.25 49a4.24 4.24 0 0 1-1.245 3.005A4.24 4.24 0 0 1 60 53.25l-29.75-.001V85a4.24 4.24 0 0 1-1.245 3.005A4.24 4.24 0 0 1 26 89.25a4.24 4.24 0 0 1-3.005-1.245A4.24 4.24 0 0 1 21.75 85V29.249L14 29.25a4.24 4.24 0 0 1-3.005-1.245A4.24 4.24 0 0 1 9.75 25c0-1.174.476-2.236 1.245-3.005A4.24 4.24 0 0 1 14 20.75l7.75-.001V11c0-1.174.476-2.236 1.245-3.005A4.24 4.24 0 0 1 26 6.75Z"/></g></svg>