<svg xmlns="http://www.w3.org/2000/svg" xmlns:xlink="http://www.w3.org/1999/xlink" viewBox="0 0 96 96"><defs><filter id="a" width="129.6%" height="129.6%" x="-14.8%" y="-14.8%" filterUnits="objectBoundingBox"><feOffset dy="2" in="SourceAlpha" result="shadowOffsetOuter1"/><feGaussianBlur in="shadowOffsetOuter1" result="shadowBlurOuter1" stdDeviation="2"/><feColorMatrix in="shadowBlurOuter1" result="shadowMatrixOuter1" values="0 0 0 0 0 0 0 0 0 0 0 0 0 0 0 0 0 0 0.2 0"/><feMerge><feMergeNode in="shadowMatrixOuter1"/><feMergeNode in="SourceGraphic"/></feMerge></filter><filter id="d" width="106.9%" height="127.8%" x="-3.5%" y="-8.3%" filterUnits="objectBoundingBox"><feOffset dy="1" in="SourceAlpha" result="shadowOffsetOuter1"/><feGaussianBlur in="shadowOffsetOuter1" result="shadowBlurOuter1" stdDeviation=".5"/><feColorMatrix in="shadowBlurOuter1" values="0 0 0 0 0 0 0 0 0 0 0 0 0 0 0 0 0 0 0.797366696 0"/></filter><text id="b" font-family="MFYueHei_Noncommercial-Regular, MF YueHei (Noncommercial)" font-size="18" font-weight="normal" letter-spacing="-.3">
      <tspan x="4" y="45">SetColors</tspan>
    </text></defs><g fill="none" fill-rule="evenodd" filter="url(#a)" transform="translate(8 7)"><path fill="#000" stroke="#000" stroke-opacity=".304" d="M.5.5h10v10H.5z"/><path fill="#0f0" stroke="#000" stroke-opacity=".304" d="M.5 10.5h10v10H.5z"/><path fill="#00f" stroke="#000" stroke-opacity=".304" d="M.5 20.5h10v10H.5z"/><path fill="#0ff" stroke="#000" stroke-opacity=".304" d="M.5 30.5h10v10H.5z"/><path fill="#000" stroke="#000" stroke-opacity=".304" d="M.5 40.5h10v10H.5z"/><path fill="#0f0" stroke="#000" stroke-opacity=".304" d="M.5 50.5h10v10H.5z"/><path fill="#00f" stroke="#000" stroke-opacity=".304" d="M.5 60.5h10v10H.5z"/><path fill="#0ff" stroke="#000" stroke-opacity=".304" d="M.5 70.5h10v10H.5z"/><path fill="#fff" stroke="#000" stroke-opacity=".304" d="M10.5.5h10v10h-10z"/><path fill="red" stroke="#000" stroke-opacity=".304" d="M10.5 10.5h10v10h-10z"/><path fill="#ff0" stroke="#000" stroke-opacity=".304" d="M10.5 20.5h10v10h-10z"/><path fill="#f0f" stroke="#000" stroke-opacity=".304" d="M10.5 30.5h10v10h-10z"/><path fill="#fff" stroke="#000" stroke-opacity=".304" d="M10.5 40.5h10v10h-10z"/><path fill="red" stroke="#000" stroke-opacity=".304" d="M10.5 50.5h10v10h-10z"/><path fill="#ff0" stroke="#000" stroke-opacity=".304" d="M10.5 60.5h10v10h-10z"/><path fill="#f0f" stroke="#000" stroke-opacity=".304" d="M10.5 70.5h10v10h-10z"/><path fill="#0ff" stroke="#000" stroke-opacity=".304" d="M20.5.5h10v10h-10z"/><path fill="#000" stroke="#000" stroke-opacity=".304" d="M20.5 10.5h10v10h-10z"/><path fill="#0f0" stroke="#000" stroke-opacity=".304" d="M20.5 20.5h10v10h-10z"/><path fill="#00f" stroke="#000" stroke-opacity=".304" d="M20.5 30.5h10v10h-10z"/><path fill="#0ff" stroke="#000" stroke-opacity=".304" d="M20.5 40.5h10v10h-10z"/><path fill="#000" stroke="#000" stroke-opacity=".304" d="M20.5 50.5h10v10h-10z"/><path fill="#0f0" stroke="#000" stroke-opacity=".304" d="M20.5 60.5h10v10h-10z"/><path fill="#00f" stroke="#000" stroke-opacity=".304" d="M20.5 70.5h10v10h-10z"/><path fill="#f0f" stroke="#000" stroke-opacity=".304" d="M30.5.5h10v10h-10z"/><path fill="#fff" stroke="#000" stroke-opacity=".304" d="M30.5 10.5h10v10h-10z"/><path fill="red" stroke="#000" stroke-opacity=".304" d="M30.5 20.5h10v10h-10z"/><path fill="#ff0" stroke="#000" stroke-opacity=".304" d="M30.5 30.5h10v10h-10z"/><path fill="#f0f" stroke="#000" stroke-opacity=".304" d="M30.5 40.5h10v10h-10z"/><path fill="#fff" stroke="#000" stroke-opacity=".304" d="M30.5 50.5h10v10h-10z"/><path fill="red" stroke="#000" stroke-opacity=".304" d="M30.5 60.5h10v10h-10z"/><path fill="#ff0" stroke="#000" stroke-opacity=".304" d="M30.5 70.5h10v10h-10z"/><path fill="#00f" stroke="#000" stroke-opacity=".304" d="M40.5.5h10v10h-10z"/><path fill="#0ff" stroke="#000" stroke-opacity=".304" d="M40.5 10.5h10v10h-10z"/><path fill="#000" stroke="#000" stroke-opacity=".304" d="M40.5 20.5h10v10h-10z"/><path fill="#0f0" stroke="#000" stroke-opacity=".304" d="M40.5 30.5h10v10h-10z"/><path fill="#00f" stroke="#000" stroke-opacity=".304" d="M40.5 40.5h10v10h-10z"/><path fill="#0ff" stroke="#000" stroke-opacity=".304" d="M40.5 50.5h10v10h-10z"/><path fill="#000" stroke="#000" stroke-opacity=".304" d="M40.5 60.5h10v10h-10z"/><path fill="#0f0" stroke="#000" stroke-opacity=".304" d="M40.5 70.5h10v10h-10z"/><path fill="#ff0" stroke="#000" stroke-opacity=".304" d="M50.5.5h10v10h-10z"/><path fill="#f0f" stroke="#000" stroke-opacity=".304" d="M50.5 10.5h10v10h-10z"/><path fill="#fff" stroke="#000" stroke-opacity=".304" d="M50.5 20.5h10v10h-10z"/><path fill="red" stroke="#000" stroke-opacity=".304" d="M50.5 30.5h10v10h-10z"/><path fill="#ff0" stroke="#000" stroke-opacity=".304" d="M50.5 40.5h10v10h-10z"/><path fill="#f0f" stroke="#000" stroke-opacity=".304" d="M50.5 50.5h10v10h-10z"/><path fill="#fff" stroke="#000" stroke-opacity=".304" d="M50.5 60.5h10v10h-10z"/><path fill="red" stroke="#000" stroke-opacity=".304" d="M50.5 70.5h10v10h-10z"/><path fill="#0f0" stroke="#000" stroke-opacity=".304" d="M60.5.5h10v10h-10z"/><path fill="#00f" stroke="#000" stroke-opacity=".304" d="M60.5 10.5h10v10h-10z"/><path fill="#f0f" stroke="#000" stroke-opacity=".304" d="M60.5 20.5h10v10h-10z"/><path fill="#000" stroke="#000" stroke-opacity=".304" d="M60.5 30.5h10v10h-10z"/><path fill="#0f0" stroke="#000" stroke-opacity=".304" d="M60.5 40.5h10v10h-10z"/><path fill="#ff0" stroke="#000" stroke-opacity=".304" d="M60.5 50.5h10v10h-10z"/><path fill="#0ff" stroke="#000" stroke-opacity=".304" d="M60.5 60.5h10v10h-10z"/><path fill="#000" stroke="#000" stroke-opacity=".304" d="M60.5 70.5h10v10h-10z"/><path fill="red" stroke="#000" stroke-opacity=".304" d="M70.5.5h10v10h-10z"/><path fill="#0ff" stroke="#000" stroke-opacity=".304" d="M70.5 10.5h10v10h-10z"/><path fill="#d8d8d8" stroke="#000" stroke-opacity=".304" d="M70.5 20.5h10v10h-10z"/><path fill="#fff" stroke="#000" stroke-opacity=".304" d="M70.5 30.5h10v10h-10z"/><path fill="red" stroke="#000" stroke-opacity=".304" d="M70.5 40.5h10v10h-10z"/><path fill="#d8d8d8" stroke="#000" stroke-opacity=".304" d="M70.5 50.5h10v10h-10z"/><path fill="#f0f" stroke="#000" stroke-opacity=".304" d="M70.5 60.5h10v10h-10z"/><path fill="#fff" stroke="#000" stroke-opacity=".304" d="M70.5 70.5h10v10h-10z"/><g fill-rule="nonzero"><use xlink:href="#b" fill="#fff" stroke="#fff" filter="url(#d)"/><use xlink:href="#b" fill="#fff"/><use xlink:href="#b" stroke="#fff"/></g></g></svg>