<svg xmlns="http://www.w3.org/2000/svg" xmlns:xlink="http://www.w3.org/1999/xlink" viewBox="0 0 96 96"><defs><linearGradient id="b" x1="50%" x2="50%" y1="0%" y2="100%"><stop offset="0%" stop-color="#f9f9f9"/><stop offset="100%" stop-color="#f1f1f1"/></linearGradient><filter id="a" width="130.8%" height="130.8%" x="-15.4%" y="-15.4%" filterUnits="objectBoundingBox"><feOffset dy="2" in="SourceAlpha" result="shadowOffsetOuter1"/><feGaussianBlur in="shadowOffsetOuter1" result="shadowBlurOuter1" stdDeviation="2"/><feColorMatrix in="shadowBlurOuter1" result="shadowMatrixOuter1" values="0 0 0 0 0 0 0 0 0 0 0 0 0 0 0 0 0 0 0.2 0"/><feMerge><feMergeNode in="shadowMatrixOuter1"/><feMergeNode in="SourceGraphic"/></feMerge></filter></defs><g fill="none" fill-rule="evenodd" filter="url(#a)" transform="translate(9 9)"><rect width="78" height="78" fill="url(#b)" rx="18"/><path fill="#44506a" fill-rule="nonzero" d="M33 14c10.493 0 19 8.507 19 19 0 3.976-1.221 7.667-3.31 10.718q.096.078.184.167l11.313 11.313a3 3 0 1 1-4.242 4.243L44.63 48.127l-.055-.06A18.9 18.9 0 0 1 33 52c-10.493 0-19-8.507-19-19s8.507-19 19-19m0 4c-8.284 0-15 6.716-15 15s6.716 15 15 15 15-6.716 15-15-6.716-15-15-15"/></g></svg>