<svg xmlns="http://www.w3.org/2000/svg" xmlns:xlink="http://www.w3.org/1999/xlink" viewBox="0 0 96 96"><defs><linearGradient id="b" x1="42.532%" x2="42.532%" y1="-2.585%" y2="101.917%"><stop offset="0%" stop-color="#39ecab"/><stop offset="100%" stop-color="#1f91ff"/></linearGradient><linearGradient id="f" x1="65.605%" x2="34.395%" y1="18.407%" y2="81.593%"><stop offset="0%" stop-color="#fff"/><stop offset="100%" stop-color="#d3ecff"/></linearGradient><filter id="a" width="137.2%" height="138%" x="-17.9%" y="-15.2%" filterUnits="objectBoundingBox"><feOffset dy="2" in="SourceAlpha" result="shadowOffsetOuter1"/><feGaussianBlur in="shadowOffsetOuter1" result="shadowBlurOuter1" stdDeviation="2"/><feColorMatrix in="shadowBlurOuter1" result="shadowMatrixOuter1" values="0 0 0 0 0 0 0 0 0 0 0 0 0 0 0 0 0 0 0.2 0"/><feMerge><feMergeNode in="shadowMatrixOuter1"/><feMergeNode in="SourceGraphic"/></feMerge></filter><filter id="d" width="119.4%" height="122.7%" x="-9.7%" y="-7.2%" filterUnits="objectBoundingBox"><feOffset dy="2" in="SourceAlpha" result="shadowOffsetOuter1"/><feGaussianBlur in="shadowOffsetOuter1" result="shadowBlurOuter1" stdDeviation="1.5"/><feColorMatrix in="shadowBlurOuter1" values="0 0 0 0 0 0 0 0 0 0.354459876 0 0 0 0 0.621037138 0 0 0 0.139832823 0"/></filter><path id="c" d="M61.367 49.38c-.529-.304-1.058-.61-1.688-.739l.305-.528c5.494-9.517 2.468-21.368-6.52-26.557-.176-.102-3.7-2.137-7.612-2.28-4.746.08-9.526 2.254-12.673 6.076-.928-1.24-2.06-2.129-3.47-2.943-6.168-3.561-14.155-1.123-17.92 5.398-3.765 6.52-1.882 14.656 4.286 18.217 2.114 1.221 4.46 1.635 6.935 1.42.732-.048 1.464-.095 2.02-.244 1.728 3.112 3.937 5.797 7.109 7.629 3.877 2.238 8.92 3.27 13.619 2.458.06 3.56 2.038 7.052 5.387 8.985 5.11 2.95 11.402 1.414 14.15-3.345 2.747-4.758 1.182-10.595-3.928-13.546m-46.86-19.77c2.95-5.11 8.992-7.027 13.75-4.28 1.234.713 2.264 1.777 3.016 2.917l.176.101c-.712 1.234-1.072 2.671-1.432 4.108-1.457-1.546-3.219-2.563-5.212-2.774-1.085-.156-2.373.04-3.485.338-2.502.67-4.38 3.11-4.266 5.76.095 1.465.745 2.78 1.775 3.845.353.204.427.482.78.685.88.509 2.142.767 3.152.645.732-.047 1.417-.826 1.37-1.559-.048-.732-.827-1.417-1.56-1.37-.731.048-1.362-.081-1.789-.563s-.677-.86-.725-1.593c-.094-1.464 1.072-2.67 2.537-2.765.556-.15 1.01-.122 1.64.007 1.54.184 2.773.896 3.525 2.035.928 1.24 1.375 2.909 1.09 4.624-.414 2.345-1.886 4.08-3.86 5.056-2.603.847-5.328.683-7.619-.64-4.277-3.174-5.712-9.642-2.863-14.576M27.911 46.28a9.9 9.9 0 0 0 3.629-4.25c1.226 2.353 3.314 4.028 5.679 5.629 0 0 9.869 5.698 15.567-4.171 1.526-2.644 2.144-5.342 1.5-8.298-.67-2.501-2.554-4.53-5.373-6.157-2.996-1.73-7.064-.789-8.794 2.207s-.687 6.888 2.133 8.516c.705.407 1.715.285 2.122-.42s.563-1.79-.318-2.298c-1.41-.814-1.931-2.76-1.117-4.17s2.936-1.83 4.522-.914 3.396 2.666 3.842 4.334c.522 1.946.033 4.013-1.086 5.952-4.07 7.049-11.296 2.877-11.472 2.776-5.64-3.256-7.501-10.206-4.245-15.845 2.543-4.406 7.527-6.933 12.245-6.559 1.715.285 3.505.849 5.091 1.764 7.578 4.376 9.982 14.457 5.403 22.388-4.986 8.635-16.098 9.974-23.5 5.7a14.7 14.7 0 0 1-5.828-6.184m25.01 17.73c-2.643-1.527-4.12-4.26-3.956-6.985 1.39-.372 2.705-1.023 4.122-1.85.02 1.187.494 2.4 1.348 3.364.427.481 1.03 1.064 1.559 1.37.881.508 1.688.74 2.596.794s1.492-.55 1.546-1.457c.055-.909-.548-1.492-1.457-1.547-.732.048-1.613-.461-2.04-.943s-.65-1.315-.698-2.047a1.85 1.85 0 0 1 1.018-1.763c.963-.853 2.326-.772 3.383-.161l.176.102c2.969 2.183 4.012 6.075 2.282 9.071-1.832 3.172-6.354 4.086-9.878 2.051"/></defs><g fill="none" filter="url(#a)" transform="translate(9 9)"><rect width="78" height="78" fill="url(#b)" rx="18"/><g transform="rotate(-30 38.243 43.525)"><use xlink:href="#c" fill="#000" filter="url(#d)"/><use xlink:href="#c" fill="url(#f)"/></g></g></svg>