<svg xmlns="http://www.w3.org/2000/svg" xmlns:xlink="http://www.w3.org/1999/xlink" viewBox="0 0 96 96"><defs><linearGradient id="b" x1="50%" x2="50%" y1="0%" y2="100%"><stop offset="0%" stop-color="#007400"/><stop offset="100%" stop-color="#004000"/></linearGradient><linearGradient id="c" x1="50%" x2="50%" y1="42.969%" y2="110.687%"><stop offset="0%" stop-color="#fff" stop-opacity="0"/><stop offset="100%" stop-color="#fff" stop-opacity=".245"/></linearGradient><filter id="a" width="128.6%" height="128.6%" x="-14.3%" y="-14.3%" filterUnits="objectBoundingBox"><feOffset dy="2" in="SourceAlpha" result="shadowOffsetOuter1"/><feGaussianBlur in="shadowOffsetOuter1" result="shadowBlurOuter1" stdDeviation="2"/><feColorMatrix in="shadowBlurOuter1" result="shadowMatrixOuter1" values="0 0 0 0 0 0 0 0 0 0 0 0 0 0 0 0 0 0 0.2 0"/><feMerge><feMergeNode in="shadowMatrixOuter1"/><feMergeNode in="SourceGraphic"/></feMerge></filter></defs><g fill="none" fill-rule="evenodd" filter="url(#a)" transform="translate(6 6)"><circle cx="42" cy="42" r="42" fill="url(#b)"/><path fill="#fff" d="M24 14v10.252A11.95 11.95 0 0 1 31 22c6.627 0 12 5.373 12 12s-5.373 12-12 12c-2.612 0-5.03-.835-7-2.252V45h-7.5a2.5 2.5 0 1 1 0-5H19V19h-2.5a2.5 2.5 0 1 1 0-5zm37 9v17h7.5a2.5 2.5 0 1 1 0 5h-19a2.5 2.5 0 1 1 0-5H56V28h-4.5a2.5 2.5 0 1 1 0-5zm-30 4a7 7 0 1 0 0 14 7 7 0 0 0 0-14"/><path fill="url(#c)" d="M24 49v10.252A11.95 11.95 0 0 1 31 57c6.627 0 12 5.373 12 12s-5.373 12-12 12c-2.612 0-5.03-.835-7-2.252V80h-7.5a2.5 2.5 0 1 1 0-5H19V54h-2.5a2.5 2.5 0 1 1 0-5zm37 9v17h7.5a2.5 2.5 0 1 1 0 5h-19a2.5 2.5 0 1 1 0-5H56V63h-4.5a2.5 2.5 0 1 1 0-5zm-30 4a7 7 0 1 0 0 14 7 7 0 0 0 0-14" transform="matrix(1 0 0 -1 0 130)"/><path fill="#fdd50d" d="M55 14h6v5h-6z"/></g></svg>