<svg xmlns="http://www.w3.org/2000/svg" xmlns:xlink="http://www.w3.org/1999/xlink" viewBox="0 0 96 96"><defs><linearGradient id="b" x1="1.626%" x2="98.374%" y1="0%" y2="100%"><stop offset="0%" stop-color="#fff"/><stop offset="100%" stop-color="#e2e2e2"/></linearGradient><filter id="a" width="134.3%" height="129.6%" x="-17.1%" y="-14.8%" filterUnits="objectBoundingBox"><feOffset dy="2" in="SourceAlpha" result="shadowOffsetOuter1"/><feGaussianBlur in="shadowOffsetOuter1" result="shadowBlurOuter1" stdDeviation="2"/><feColorMatrix in="shadowBlurOuter1" result="shadowMatrixOuter1" values="0 0 0 0 0 0 0 0 0 0 0 0 0 0 0 0 0 0 0.2 0"/><feMerge><feMergeNode in="shadowMatrixOuter1"/><feMergeNode in="SourceGraphic"/></feMerge></filter></defs><g fill="none" fill-rule="evenodd" filter="url(#a)" transform="translate(13 8)"><rect width="48" height="60" y="8" fill="#a48256" fill-rule="nonzero" rx="4"/><rect width="40" height="52" x="4" y="12" fill="#b2936a" fill-rule="nonzero" rx="2"/><rect width="48" height="61" x="22" y="20" fill="url(#b)" fill-rule="nonzero" rx="4"/><path stroke="#c3c3c3" stroke-width="2" d="M30 35h32.015M30 43h22.015M30 51h32.015M30 59h26.015M30 67h32.015"/><path fill="#c6c6c6" fill-rule="nonzero" d="M18 4.002A2 2 0 0 1 15.981 6H14c-2.21 0-4 1.8-4 4.002V12h28v-1.998A3.99 3.99 0 0 0 34 6h-1.981A2.003 2.003 0 0 1 30 4.002V1.998A2 2 0 0 0 28.018 0h-8.036A1.984 1.984 0 0 0 18 1.998z"/><path fill="#d8d8d8" fill-rule="nonzero" d="M10 12h28v2H10z"/></g></svg>