<svg xmlns="http://www.w3.org/2000/svg" xmlns:xlink="http://www.w3.org/1999/xlink" viewBox="0 0 96 96"><defs><path id="b" d="M4 0h48a4 4 0 0 1 4 4v44.185a4 4 0 0 1-1.366 3.01L41.131 63.01a4 4 0 0 1-2.634.99H4a4 4 0 0 1-4-4V4a4 4 0 0 1 4-4"/><path id="f" stroke="#867790" d="M52 1a3 3 0 0 1 2.121.879A3 3 0 0 1 55 4v44.185a3 3 0 0 1-1.024 2.258L40.473 62.258a3 3 0 0 1-1.976.742H4a3 3 0 0 1-2.121-.879A3 3 0 0 1 1 60V4c0-.828.336-1.578.879-2.121A3 3 0 0 1 4 1Z"/><path id="g" fill="url(#a)" stroke="#aba5b5" d="M54.917 49.578a14.95 14.95 0 0 1-4.31 9.029A14.95 14.95 0 0 1 40 63V51h7.528c2.402 0 4.778-.434 7.016-1.275z"/><linearGradient id="c" x1="20.492%" x2="74.157%" y1="10.152%" y2="88.329%"><stop offset="0%" stop-color="#f1f1f2"/><stop offset="100%" stop-color="#f1f1f1"/></linearGradient><linearGradient id="a" x1="18.714%" x2="63.284%" y1="24.872%" y2="64.65%"><stop offset="0%" stop-color="#d3cfd7"/><stop offset="100%" stop-color="#8b7f96"/></linearGradient><filter id="d" width="103.6%" height="103.1%" x="-1.8%" y="-1.6%" filterUnits="objectBoundingBox"><feOffset dx="2" dy="2" in="SourceAlpha" result="shadowOffsetInner1"/><feComposite in="shadowOffsetInner1" in2="SourceAlpha" k2="-1" k3="1" operator="arithmetic" result="shadowInnerInner1"/><feColorMatrix in="shadowInnerInner1" values="0 0 0 0 1 0 0 0 0 1 0 0 0 0 1 0 0 0 0.5 0"/></filter><filter id="h" width="103.6%" height="103.1%" x="-1.8%" y="-1.6%" filterUnits="objectBoundingBox"><feOffset dx="2" dy="2" in="SourceAlpha" result="shadowOffsetInner1"/><feComposite in="shadowOffsetInner1" in2="SourceAlpha" k2="-1" k3="1" operator="arithmetic" result="shadowInnerInner1"/><feColorMatrix in="shadowInnerInner1" values="0 0 0 0 1 0 0 0 0 1 0 0 0 0 1 0 0 0 0.5 0"/></filter></defs><g fill="none" fill-rule="evenodd"><g transform="translate(8 8)"><use xlink:href="#b" fill="url(#c)"/><use xlink:href="#b" fill="#000" filter="url(#d)"/><use xlink:href="#f" stroke-linejoin="square" stroke-width="2"/></g><use xlink:href="#g" stroke-width="2" transform="translate(8 8)"/><path fill="#aba5b5" d="M18 24h36v4H18zm0 7h36v4H18zm0 7h31v4H18zm0 7h36v4H18z"/><g transform="translate(32 24)"><use xlink:href="#b" fill="url(#c)"/><use xlink:href="#b" fill="#000" filter="url(#h)"/><use xlink:href="#f" stroke-linejoin="square" stroke-width="2"/></g><use xlink:href="#g" stroke-width="2" transform="translate(32 24)"/><path fill="#aba5b5" d="M42 39h36v4H42zm0 7h36v4H42zm0 7h31v4H42zm0 7h36v4H42z"/></g></svg>