<svg xmlns="http://www.w3.org/2000/svg" viewBox="0 0 64 64"><circle cx="32" cy="33" r="28" opacity=".2"/><circle cx="32" cy="32" r="28" fill="#e27c3e"/><path d="M49 48.026A1.97 1.97 0 0 1 47.033 50H16.967A1.97 1.97 0 0 1 15 48.026V17.974c0-1.09.88-1.974 1.967-1.974h30.066A1.97 1.97 0 0 1 49 17.974z" opacity=".2"/><path fill="#f2f2f2" d="M49 47.026A1.97 1.97 0 0 1 47.033 49H16.967A1.97 1.97 0 0 1 15 47.026V16.974c0-1.09.88-1.974 1.967-1.974h30.066A1.97 1.97 0 0 1 49 16.974z"/><path fill="#7c9bad" d="M32 43c-6.065 0-11-4.935-11-11s4.935-11 11-11 11 4.935 11 11-4.935 11-11 11"/><circle cx="32" cy="32" r="10" fill="#233540"/><path fill="#355061" d="m29.795 30.919-1.761-8.1a10 10 0 0 1 3.966-.82c1.38 0 2.694.28 3.89.785l-1.666 7.664zm9.6 7.812-6.244-5.65.588-.7 7.304 3.891c-.427.902-.984 1.73-1.648 2.46"/><path fill="#355061" d="m29.795 33.081-1.761 8.1A10 10 0 0 0 32 42a10 10 0 0 0 3.89-.785l-1.666-7.663z"/><path fill="#355061" d="M32 36.463A4.47 4.47 0 0 1 27.537 32 4.47 4.47 0 0 1 32 27.537 4.47 4.47 0 0 1 36.463 32 4.47 4.47 0 0 1 32 36.463"/><path fill="#e27c3e" d="M32 36c-2.206 0-4-1.794-4-4s1.794-4 4-4 4 1.794 4 4-1.794 4-4 4"/><path fill="#233540" d="M32 34c-1.103 0-2-.897-2-2s.897-2 2-2 2 .897 2 2-.897 2-2 2"/><path fill="#fff" d="M32 33a1.001 1.001 0 0 1 0-2 1.001 1.001 0 0 1 0 2"/><path fill="#7c9bad" d="m27.113 40.942-1.655-1.56.006-.006-.26-.234-.254-.24-.006.007-1.695-1.518-.6 2.72.644.593.515.473.644.592z"/><path fill="none" stroke="#7c9bad" stroke-miterlimit="10" stroke-width=".199" d="M45.499 46.9a1.403 1.403 0 0 1 0-2.8 1.403 1.403 0 0 1 0 2.8z"/><path fill="#efc84a" d="M45.499 46.501a1.004 1.004 0 1 1 .003-2.006 1.004 1.004 0 0 1-.002 2.006"/><path fill="none" stroke="#7c9bad" stroke-miterlimit="10" stroke-width=".199" d="M40.5 46.9c-.772 0-1.4-.628-1.4-1.4s.628-1.4 1.4-1.4 1.4.628 1.4 1.4-.628 1.4-1.4 1.4z"/><path fill="#e27c3e" d="M40.5 46.502a1.003 1.003 0 0 1 0-2.004 1.003 1.003 0 0 1 0 2.004"/><path fill="none" stroke="#7c9bad" stroke-miterlimit="10" stroke-width=".199" d="M35.5 46.9c-.772 0-1.4-.628-1.4-1.4s.628-1.4 1.4-1.4 1.4.628 1.4 1.4-.628 1.4-1.4 1.4z"/><path fill="#334d5c" d="M35.5 46.502a1.003 1.003 0 0 1 0-2.004 1.003 1.003 0 0 1 0 2.004"/><circle cx="45" cy="21" r="3" fill="#7c9bad"/><circle cx="45" cy="21" r="1.626" fill="#efc84a" stroke="#f2f2f2" stroke-miterlimit="10" stroke-width=".694"/><path fill="#efc84a" d="m44.873 20.62-1.67 6.223c.015-.131.14-.237-.033-.067l-.46.449-1.458 1.425-2.263 2.21c-.259.253.137.648.396.396l2.263-2.21 1.458-1.425c.191-.187.619-.466.654-.757.25-2.081 1.422-4.163 1.673-6.244.043-.358-.447.338-.56 0"/><path fill="#efc84a" d="M39.767 30.55a.56.56 0 0 1-.044.79l-.14.125a.56.56 0 0 1-.79-.044.56.56 0 0 1 .044-.79l.14-.125a.56.56 0 0 1 .79.044"/><path fill="#fff" d="M32 4A28 28 0 0 0 4 32a28 28 0 0 0 .035.5A28 28 0 0 1 32 5a28 28 0 0 1 27.982 27.252L60 32A28 28 0 0 0 32 4" opacity=".2"/></svg>