<svg xmlns="http://www.w3.org/2000/svg" xmlns:xlink="http://www.w3.org/1999/xlink" viewBox="0 0 96 96"><defs><filter id="a" width="131.6%" height="131.6%" x="-15.8%" y="-15.8%" filterUnits="objectBoundingBox"><feOffset dy="2" in="SourceAlpha" result="shadowOffsetOuter1"/><feGaussianBlur in="shadowOffsetOuter1" result="shadowBlurOuter1" stdDeviation="2"/><feColorMatrix in="shadowBlurOuter1" result="shadowMatrixOuter1" values="0 0 0 0 0 0 0 0 0 0 0 0 0 0 0 0 0 0 0.2 0"/><feMerge><feMergeNode in="shadowMatrixOuter1"/><feMergeNode in="SourceGraphic"/></feMerge></filter></defs><g fill="none" fill-rule="evenodd" filter="url(#a)" transform="translate(8 10)"><path fill="#ff0200" d="M60 0h16v16H60z"/><path fill="#ffd800" d="M36 60v16H20V60zM15 50v6H9v-6zm41-10v16H40V40zm-41 0v6H9v-6zm20-10v6h-6v-6zm41-10v16H60V20zM56 10v6h-6v-6zm-10 0v6h-6v-6z"/><path fill="#000" d="M25 30v6h-6v-6zm-10 0v6H9v-6zm20-10v6h-6v-6zm-10 0v6h-6v-6zm10-10v6h-6v-6z"/><path fill="#257f01" d="M76 60v16H60V60zm-20 0v16H40V60zm20-20v16H60V40zM15 20v6H9v-6zm10-10v6h-6v-6z"/><path fill="#ff0200" d="M40 20h16v16H40zM20 40h16v16H20zM0 60h16v16H0z"/></g></svg>