<svg xmlns="http://www.w3.org/2000/svg" viewBox="0 0 64 64"><rect width="52" height="52" x="6" y="-61" opacity=".2" rx="2.6" ry="2.6" transform="scale(1 -1)"/><rect width="52" height="52" x="6" y="-60" fill="#e4e4e4" rx="2.6" ry="2.6" transform="scale(1 -1)"/><rect width="58" height="11" x="3" y="6" opacity=".2" rx="2.466" ry="2.059"/><rect width="58" height="11" x="3" y="5" fill="#4f4f4f" rx="2.466" ry="2.059"/><rect width="40" height="32" x="12" y="-54" fill="#438bf6" rx="2" ry="1.6" transform="scale(1 -1)"/><path d="M26.149 29A2.1 2.085 0 0 0 24 31.087v15.829a2.1 2.085 0 0 0 3.15 1.806l6.9-3.957 6.902-3.959a2.1 2.085 0 0 0 0-3.61l-6.902-3.959-6.9-3.956a2.1 2.085 0 0 0-1.001-.28" opacity=".2"/><path fill="#fff" d="M26.149 28A2.1 2.085 0 0 0 24 30.087v15.829a2.1 2.085 0 0 0 3.15 1.806l6.9-3.957 6.902-3.959a2.1 2.085 0 0 0 0-3.61l-6.902-3.959-6.9-3.956a2.1 2.085 0 0 0-1.001-.28"/><path fill="#fff" d="M5.467 5C4.1 5 3 5.918 3 7.059v1C3 6.918 4.1 6 5.467 6h53.066C59.9 6 61 6.918 61 8.059v-1C61 5.918 59.9 5 58.533 5z" opacity=".1"/></svg>