<svg xmlns="http://www.w3.org/2000/svg" xmlns:xlink="http://www.w3.org/1999/xlink" viewBox="0 0 96 96"><defs><linearGradient id="b" x1="50%" x2="50%" y1="0%" y2="100%"><stop offset="0%" stop-color="#e5e5e5"/><stop offset="100%" stop-color="#d7d7d7"/></linearGradient><linearGradient id="c" x1="50%" x2="50%" y1="13.22%" y2="100%"><stop offset="0%" stop-color="#e8e8e8"/><stop offset="100%" stop-color="#ccc"/></linearGradient><linearGradient id="d" x1="51.251%" x2="97.407%" y1="3.479%" y2="89.817%"><stop offset="0%" stop-color="#fafafa"/><stop offset="100%" stop-color="#bdbdbd"/></linearGradient><filter id="a" width="126.4%" height="135.5%" x="-13.2%" y="-17.8%" filterUnits="objectBoundingBox"><feOffset dy="2" in="SourceAlpha" result="shadowOffsetOuter1"/><feGaussianBlur in="shadowOffsetOuter1" result="shadowBlurOuter1" stdDeviation="2"/><feColorMatrix in="shadowBlurOuter1" result="shadowMatrixOuter1" values="0 0 0 0 0 0 0 0 0 0 0 0 0 0 0 0 0 0 0.2 0"/><feMerge><feMergeNode in="shadowMatrixOuter1"/><feMergeNode in="SourceGraphic"/></feMerge></filter></defs><g fill="none" fill-rule="evenodd" filter="url(#a)" transform="translate(4 18)"><path fill="#515352" d="M1 40h84v8a4 4 0 0 1-4 4H5a4 4 0 0 1-4-4z"/><path fill="url(#b)" d="M18.757 0h47.547a4 4 0 0 1 3.708 2.5l14.875 36.75A2 2 0 0 1 83.033 42H2.903a2 2 0 0 1-1.87-2.712L15.02 2.576A4 4 0 0 1 18.757 0"/><ellipse cx="42" cy="23" fill="url(#c)" rx="29" ry="12"/><path fill="url(#d)" d="M31.403 12.257q4.407 6.59 5.786 7.666c1.379 1.077 10.014 0 8.413-3.833a405 405 0 0 0-3.66-8.456q4.674 1.215 7.498 3.779 2.825 2.563 2.23 9.587l36.555 37.66a4.403 4.403 0 0 1 .253 5.85 3.647 3.647 0 0 1-5.328.348L44.85 28.75q-11.332-1.44-13.446-6.357t0-10.136"/><path fill="#000" fill-opacity=".181" fill-rule="nonzero" d="m42.194 6.666-2.009-.522L41.4 8.873l1.063 2.418.34.78.655 1.52.626 1.469.596 1.416c.41.98-.413 1.826-2.443 2.411-.505.146-1.045.252-1.57.323l-.444.053c-1.168.119-2.177.06-2.418-.128l-.07-.058-.16-.144-.179-.181-.201-.218-.223-.255-.372-.45-.135-.169-.285-.364-.305-.4-.326-.436-.526-.72-.375-.525-.6-.854-.868-1.26-.701-1.037-1.293-1.932-.709 1.75c-1.508 3.724-1.508 7.38.009 10.906l.099.22c1.612 3.417 6.038 5.57 13.199 6.606l.615.085 38.065 35.887a4.647 4.647 0 0 0 6.789-.445l.152-.195a5.4 5.4 0 0 0-.463-6.982l-36.24-37.337.027-.428c.255-4.493-.583-7.682-2.616-9.527-2.01-1.825-4.654-3.157-7.918-4.006m-.251.968q4.672 1.215 7.497 3.779T51.67 21l36.555 37.66a4.403 4.403 0 0 1 .253 5.85 3.647 3.647 0 0 1-5.328.348L44.85 28.75q-11.332-1.44-13.446-6.357t0-10.136l.734 1.089.908 1.326.63.9.584.82.54.738.496.657.452.576.276.339.257.303.236.267.217.231q.26.267.456.42c.378.296 1.302.429 2.41.388l.399-.022.41-.036c.415-.044.842-.11 1.266-.198l.422-.096c2.31-.57 4.358-1.829 3.506-3.869l-.598-1.42-.627-1.472-.658-1.524-.688-1.577-.718-1.629z"/><circle cx="18.132" cy="3.621" r="1" fill="#d8d8d8" stroke="#979797"/><circle cx="66.186" cy="3.621" r="1" fill="#d8d8d8" stroke="#979797"/><circle cx="7.545" cy="36.959" r="1" fill="#d8d8d8" stroke="#979797"/><circle cx="77.959" cy="36.959" r="1" fill="#d8d8d8" stroke="#979797"/></g></svg>