<svg xmlns="http://www.w3.org/2000/svg" xmlns:xlink="http://www.w3.org/1999/xlink" viewBox="0 0 96 96"><defs><linearGradient id="b" x1="50%" x2="50%" y1="0%" y2="100%"><stop offset="0%" stop-color="#aee549"/><stop offset="100%" stop-color="#40cba1"/></linearGradient><filter id="a" width="133.3%" height="127.6%" x="-16.7%" y="-13.8%" filterUnits="objectBoundingBox"><feOffset dy="2" in="SourceAlpha" result="shadowOffsetOuter1"/><feGaussianBlur in="shadowOffsetOuter1" result="shadowBlurOuter1" stdDeviation="2"/><feColorMatrix in="shadowBlurOuter1" result="shadowMatrixOuter1" values="0 0 0 0 0 0 0 0 0 0 0 0 0 0 0 0 0 0 0.2 0"/><feMerge><feMergeNode in="shadowMatrixOuter1"/><feMergeNode in="SourceGraphic"/></feMerge></filter></defs><g fill="none" filter="url(#a)" transform="translate(12 5)"><path fill="url(#b)" d="M70.749 21.705c-.378-5.604.566-7.6-2.631-10.921-4.752-4.943-25.4-3.895-25.4-3.895S41.73.48 31.994.05 20.959 2.09 19.572 4.131c-1.388 2.052 0 13.018-1.51 14.342-1.51 1.335-10.391.618-12.423 1.048S0 20.282 0 25.887 3.897 52.65 6.683 56.29c1.599 2.085 21.292 6.642 25.311 5.505 4.04-1.136 4.33-15.577 4.33-15.577s.3 9.179 4.14 11.12c3.83 1.93 11.745 2.085 11.745 2.085s3.941.806 4.796 3.52 2.631 12.356-.377 14.154c-3.009 1.81-10.935 1.324-12.323.574s-2.164-4.844-.655-6.267 5.274-.86 5.274-.86l.466-5.704s-8.393-1.434-11.38 2.284c-2.819 3.519-2.996 15.489.845 17.86 5.106 3.156 20.881 2.571 24.744-1.522 3.853-4.082 7.227-17.794 8.182-31.728.755-10.933-.655-24.425-1.032-30.03M59.503 42.192s-2.298-1.158-5.284-1.39-4.552.121-4.552.077a4.95 4.95 0 0 1 4.94-4.942c2.71 0 4.974 2.217 4.974 4.942 0 .11-.078 1.313-.078 1.313"/><path fill="#89c642" d="M15.423 16.144s.045-2.779.192-6.237C15.762 6.447 16 3 16 3L2 17s4.572-.571 7.481-.758c2.909-.186 5.942-.098 5.942-.098"/></g></svg>