<svg xmlns="http://www.w3.org/2000/svg" xmlns:xlink="http://www.w3.org/1999/xlink" viewBox="0 0 96 96"><defs><linearGradient id="b" x1="14.891%" x2="100%" y1="0%" y2="94.152%"><stop offset="0%" stop-color="#f89b09"/><stop offset="100%" stop-color="#fbdb00"/></linearGradient><linearGradient id="c" x1="50%" x2="50%" y1="0%" y2="100%"><stop offset="0%" stop-color="#f6901a"/><stop offset="100%" stop-color="#ff5224"/></linearGradient><linearGradient id="d" x1="100%" x2="30.653%" y1="0%" y2="100%"><stop offset="0%" stop-color="#f95828"/><stop offset="100%" stop-color="#f02044"/></linearGradient><linearGradient id="e" x1="78.949%" x2="17.556%" y1="50%" y2="100%"><stop offset="0%" stop-color="#b21969"/><stop offset="100%" stop-color="#8e123b"/></linearGradient><linearGradient id="f" x1="68.403%" x2="44.878%" y1="5.343%" y2="82.82%"><stop offset="0%" stop-color="#01a2fc"/><stop offset="100%" stop-color="#441a7e"/></linearGradient><linearGradient id="g" x1="50%" x2="50%" y1="0%" y2="100%"><stop offset="0%" stop-color="#ef2545"/><stop offset="100%" stop-color="#c01f49"/></linearGradient><linearGradient id="h" x1="27.773%" x2="50%" y1="0%" y2="100%"><stop offset="0%" stop-color="#191f78" stop-opacity="0"/><stop offset="100%" stop-color="#20257b"/></linearGradient><linearGradient id="i" x1="0%" x2="100%" y1="50%" y2="11.423%"><stop offset="0%" stop-color="#282990"/><stop offset="100%" stop-color="#272d98" stop-opacity="0"/></linearGradient><linearGradient id="j" x1="78.822%" x2="-13.943%" y1="0%" y2="45.581%"><stop offset="0%" stop-color="#feea04"/><stop offset="27.341%" stop-color="#ffe900"/><stop offset="46.106%" stop-color="#ff7916"/><stop offset="76.221%" stop-color="#ff282f"/><stop offset="100%" stop-color="#bf0573"/></linearGradient><linearGradient id="k" x1="87.484%" x2="24.044%" y1="0%" y2="80.394%"><stop offset="0%" stop-color="#f79c0f"/><stop offset="100%" stop-color="#ff681c"/></linearGradient><linearGradient id="l" x1="8.637%" x2="84.097%" y1="50.959%" y2="50.959%"><stop offset="0%" stop-color="#ff372a"/><stop offset="78.766%" stop-color="#ff8703"/><stop offset="100%" stop-color="#fcaa00"/></linearGradient><linearGradient id="m" x1="75.185%" x2="72.423%" y1="89.211%" y2="61.118%"><stop offset="0%" stop-color="#211b61"/><stop offset="100%" stop-color="#222982" stop-opacity="0"/></linearGradient><linearGradient id="n" x1="7.662%" x2="90.599%" y1="14.433%" y2="74.416%"><stop offset="0%" stop-color="#d93a20"/><stop offset="27.364%" stop-color="#ff4d1e"/><stop offset="53.454%" stop-color="#ff8703"/><stop offset="100%" stop-color="#ffbc01"/></linearGradient><linearGradient id="o" x1="24.883%" x2="68.014%" y1="12.561%" y2="91.581%"><stop offset="0%" stop-color="#e3311f"/><stop offset="50%" stop-color="#f14719"/><stop offset="100%" stop-color="#ea2c16"/></linearGradient><linearGradient id="p" x1="56.669%" x2="-11.273%" y1="2.799%" y2="100%"><stop offset="0%" stop-color="#ff9302"/><stop offset="31.748%" stop-color="#ffca00"/><stop offset="76.5%" stop-color="#ff7b16"/><stop offset="100%" stop-color="#ff5f1f" stop-opacity="0"/></linearGradient><linearGradient id="q" x1="15.5%" x2="71.318%" y1="5.768%" y2="89.06%"><stop offset="0%" stop-color="#fff150"/><stop offset="20.775%" stop-color="#ffee4c"/><stop offset="67.177%" stop-color="#ffcd28"/><stop offset="100%" stop-color="#ff9601"/></linearGradient><linearGradient id="r" x1="18.809%" x2="50%" y1="8.213%" y2="100%"><stop offset="0%" stop-color="#ffeb02"/><stop offset="71.838%" stop-color="#ffac00"/><stop offset="100%" stop-color="#ff7417"/></linearGradient><linearGradient id="s" x1="81.523%" x2="0%" y1="86.229%" y2="8.16%"><stop offset="0%" stop-color="#ffe900"/><stop offset="100%" stop-color="#ffe309"/></linearGradient><filter id="a" width="127.6%" height="126.4%" x="-13.8%" y="-13.2%" filterUnits="objectBoundingBox"><feOffset dy="2" in="SourceAlpha" result="shadowOffsetOuter1"/><feGaussianBlur in="shadowOffsetOuter1" result="shadowBlurOuter1" stdDeviation="2"/><feColorMatrix in="shadowBlurOuter1" result="shadowMatrixOuter1" values="0 0 0 0 0 0 0 0 0 0 0 0 0 0 0 0 0 0 0.2 0"/><feMerge><feMergeNode in="shadowMatrixOuter1"/><feMergeNode in="SourceGraphic"/></feMerge></filter></defs><g fill="none" filter="url(#a)" transform="translate(4.886 1.817)"><path fill="url(#b)" d="M68.7 17.63q-1.429-5.098 1.63-8.974 1.89 4.26 3.06 6.119c4.507 7.164 8.098 12.526 9.178 16.52q2.04 7.546-13.869-13.665"/><path fill="url(#c)" d="m84.607 42.92 2.04-2.448q.204 11.013-2.244 12.645"/><path fill="url(#d)" d="M81.548 64.538q-7.138 8.77-7.75 9.382c-.612.611 6.526-1.632 7.342-5.099q.816-3.468.408-4.283"/><path fill="url(#e)" d="m67.272 81.874-12.033 4.282q8.157.204 9.79-1.427 1.63-1.632 2.243-2.855"/><circle cx="44.022" cy="46.183" r="38.342" fill="url(#f)"/><path fill="url(#g)" d="M17.1 19.262q-5.506-4.895-4.282-9.178-6.323 6.527-5.915 15.296"/><path fill="url(#h)" d="M50.956 19.058q-3.876 8.769 9.79 18.763 7.953 15.908-7.343 27.94-15.296 12.034 3.802.817Q73.39 47.61 67.068 39.045"/><path fill="url(#i)" d="M43.002 29.867q2.04 1.836-2.448 5.507-5.098 2.855-5.914 3.059c-.816.204-.816 5.302-1.428 5.71s-3.059 1.632-4.69 3.263q-1.632 1.632 2.855 5.303l-9.79-3.06 6.73-8.565 6.935-5.506z"/><path fill="url(#j)" d="M35.048 27.42c-1.224-.612-2.855-1.632-3.06-3.875-.203-2.244-8.973-7.954-18.966-3.467C3.028 24.564-4.926 44.959 3.64 64.334s26.921 25.901 36.71 26.31c9.79.407 18.56.203 24.882-6.12q-3.263 1.633-9.178 1.632 5.825-1.98 8.324-3.023 16.138-6.725 16.966-15.332-1.363 2.277-2.447 3.263-1.159 1.054-4.283 2.652 7.342-8.363 10.197-15.296 2.855-6.935 1.836-17.948-.213 5.13-.612 7.342-.399 2.213-1.632 5.1 1.113-8.455.816-11.626t-2.855-10.197q-7.14-13.053-14.277-17.948Q57.686 2.742 57.89.295a.7.7 0 0 0-.006-.204c-.295-1.285-6.92 11.408-6.724 16.52.204 5.302.408 13.46 10.401 19.986q6.118 10.402 1.02 21.21c-5.099 10.81-23.658 16.113-33.448 3.06-9.02-12.028.351-19.782 4.08-22.434.317-.226.387-.876.611-1.02s4.967-2.113 7.138-3.875c1.448-1.175 2.344-3.222 2.244-3.875-.252-1.632-6.934-1.632-8.158-2.243"/><path fill="url(#k)" d="M26.686 19.874q6.322-5.507 11.829-3.875-6.73 5.71-6.73 8.157"/><path fill="url(#l)" d="M26.686 19.67q6.322-5.1 11.829-3.671-6.934 5.099-7.954 12.644-.408 5.507 2.651 9.79-.408 4.691-1.02 5.098-1.631.205-5.302-1.02c-3.671-1.223-9.586 4.284-8.77 8.363.414 2.067-2.63-3.566-4.963-10.024-2.27-6.284 4.468-17.5 7.722-18.864q1.821-.764 5.807-2.316"/><path fill="url(#m)" d="M36.272 54.749c.815 0 1.17-.128 1.631-.204q4.644-1.428 6.73-1.428c2.087 0 6.935 2.243 6.323 5.099-.136.544-.816 1.02-1.632.815q-1.224-.407-1.631-.203l-.433.22q-.41.261-2.191 1.101c-2.027 1.004-4.596 2.227-5.33 2.35l-.12.02q-2.036.592-4.367.591-.556 0-1.082-.025-.617-.023-1.257-.1-2.321-.267-3.984-1.098-5.006-1.857-6.526-2.856c-3.5-2.298-4.059-4.201-4.079-4.282s-2.04-6.527 1.224-9.178c3.263-2.651 5.831-2.366 9.381-1.428.628.166.861.728.008.96q-3.214.872-2.047 3.935c1.073 2.817 4.08 4.933 9.178 5.71z"/><path fill="url(#n)" d="M36.272 53.525c.815 0 1.17-.127 1.631-.204q4.644-1.428 6.73-1.428c2.087 0 6.935 2.244 6.323 5.099-.136.544-.816 1.02-1.632.816q-1.224-.408-1.631-.204l-.433.22q-.41.262-2.191 1.102c-2.027 1.003-4.596 2.227-5.33 2.349l-.12.021q-2.036.59-4.367.59-.556 0-1.082-.024-.617-.023-1.257-.101-2.321-.267-3.984-1.098-5.006-1.857-6.526-2.855c-3.5-2.299-4.059-4.202-4.079-4.283s-2.04-6.526 1.224-9.178c3.263-2.651 5.831-2.365 9.381-1.427q.942.25 3.264.611-6.934 0-5.303 4.283c1.073 2.818 4.08 4.934 9.178 5.71z"/><path fill="url(#o)" d="M15.056 50.706c1.38-8.976 14.179-7.728 14.179-7.728-.376.376-10.332 7.358.608 15.314 3.975 2.89 16.978 6.8 11.318 6.302-5.659-.5-28.174-.539-26.105-13.888" transform="rotate(16 28.744 53.778)"/><path fill="url(#p)" d="M64.62 82.69c.457-.281 4.145-5.73 5.099-6.323q5.303-16.724 2.651-26.31c-1.767-6.39-5.642-10.536-10.809-13.256 9.79 12.373 8.09 25.902-5.914 41.402q-.802.887-1.522 1.704-4.195 2.96-2.557 3.394 1.861.494 13.052-.612"/><path fill="url(#q)" d="M68.087 13.143q7.14 4.895 14.277 17.948c1.93 4.69 2.746 7.954 2.855 10.197s.204 5.303-.816 11.421c.822-1.924 1.27-3.42 1.536-4.895s.566-3.922.708-7.342q1.02 11.013-1.836 17.948-2.855 6.933-10.197 15.296c-.643.639-1.244 1.196-1.931 1.835 4.895-32.02-1.428-31-12.237-42.829Q49.637 20.893 57.686.091c.204-.204.204 0 .204.204-.047 1.676 3.35 6 10.197 12.848"/><path fill="url(#r)" d="M57.686.09q-15.5 22.844 3.875 36.711c19.375 13.869 6.208 42.217 3.263 45.277-2.945 3.059 16.112-4.895 16.52-14.277q-2.652 3.875-6.73 5.915 7.341-29.165-7.75-38.546Q51.77 25.788 57.686.09"/><path fill="url(#s)" d="M67.617 12.674c.266.326.432.433.23.326C62.44 10.125 57.545 3.956 57.884.09c.382 1.914 3.619 6.107 9.733 12.584"/></g></svg>