<svg xmlns="http://www.w3.org/2000/svg" xmlns:xlink="http://www.w3.org/1999/xlink" viewBox="0 0 96 96"><defs><filter id="a" width="127.3%" height="137.5%" x="-13.7%" y="-18.8%" filterUnits="objectBoundingBox"><feOffset dy="2" in="SourceAlpha" result="shadowOffsetOuter1"/><feGaussianBlur in="shadowOffsetOuter1" result="shadowBlurOuter1" stdDeviation="2"/><feColorMatrix in="shadowBlurOuter1" result="shadowMatrixOuter1" values="0 0 0 0 0 0 0 0 0 0 0 0 0 0 0 0 0 0 0.2 0"/><feMerge><feMergeNode in="shadowMatrixOuter1"/><feMergeNode in="SourceGraphic"/></feMerge></filter><filter id="d" width="111%" height="161.6%" x="-5.5%" y="-30.8%" filterUnits="objectBoundingBox"><feOffset in="SourceAlpha" result="shadowOffsetOuter1"/><feGaussianBlur in="shadowOffsetOuter1" result="shadowBlurOuter1" stdDeviation="1.5"/><feColorMatrix in="shadowBlurOuter1" values="0 0 0 0 0 0 0 0 0 0 0 0 0 0 0 0 0 0 0.797366696 0"/></filter><path id="b" d="m8.62 36.512 1.026-4.392c.216-.936.36-1.872.558-2.934h.09c.198 1.062.36 1.98.576 2.934l1.062 4.392h3.114l2.484-10.08h-2.448L13.984 31.4c-.18.99-.324 1.944-.504 2.952h-.09c-.216-1.008-.396-1.962-.63-2.952l-1.26-4.968H9.16L7.936 31.4c-.252.972-.432 1.944-.63 2.952h-.072c-.18-1.008-.306-1.962-.504-2.952l-1.098-4.968H2.986l2.61 10.08zm12.104.252c1.152 0 2.16-.576 3.042-1.332h.072l.18 1.08h2.16v-5.886c0-2.916-1.314-4.446-3.87-4.446-1.584 0-3.024.594-4.212 1.332l.954 1.746c.936-.54 1.836-.954 2.772-.954 1.242 0 1.674.756 1.728 1.746-4.068.432-5.814 1.566-5.814 3.726 0 1.71 1.188 2.988 2.988 2.988m.864-2.07c-.774 0-1.332-.342-1.332-1.134 0-.9.828-1.584 3.294-1.89v2.034c-.648.63-1.206.99-1.962.99m8.774 2.07c.63 0 1.062-.108 1.368-.234l-.324-1.962c-.18.036-.252.036-.36.036-.252 0-.522-.198-.522-.81V22.148h-2.646v11.538c0 1.872.648 3.078 2.484 3.078m4.67 0c.63 0 1.062-.108 1.368-.234l-.324-1.962c-.18.036-.252.036-.36.036-.252 0-.522-.198-.522-.81V22.148h-2.646v11.538c0 1.872.648 3.078 2.484 3.078m4.832-.252v-6.93c.738-.738 1.26-1.134 2.088-1.134.99 0 1.422.54 1.422 2.106v5.958h2.646V30.23c0-2.538-.936-4.05-3.114-4.05-1.368 0-2.358.72-3.168 1.476l.126-1.89v-3.618h-2.646v14.364zm10.358.252c1.152 0 2.16-.576 3.042-1.332h.072l.18 1.08h2.16v-5.886c0-2.916-1.314-4.446-3.87-4.446-1.584 0-3.024.594-4.212 1.332l.954 1.746c.936-.54 1.836-.954 2.772-.954 1.242 0 1.674.756 1.728 1.746-4.068.432-5.814 1.566-5.814 3.726 0 1.71 1.188 2.988 2.988 2.988m.864-2.07c-.774 0-1.332-.342-1.332-1.134 0-.9.828-1.584 3.294-1.89v2.034c-.648.63-1.206.99-1.962.99m11.618 1.818 3.366-10.08h-2.538l-1.476 5.022c-.27.99-.54 2.034-.81 3.06h-.09c-.27-1.026-.54-2.07-.81-3.06l-1.476-5.022h-2.664l3.438 10.08zm8.288.252c1.242 0 2.52-.432 3.51-1.116l-.9-1.62c-.72.45-1.44.702-2.268.702-1.494 0-2.574-.864-2.79-2.52h6.21c.072-.234.126-.72.126-1.224 0-2.772-1.44-4.806-4.212-4.806-2.394 0-4.698 2.034-4.698 5.292 0 3.33 2.196 5.292 5.022 5.292m1.62-6.318h-4.104c.198-1.458 1.134-2.214 2.196-2.214 1.296 0 1.908.864 1.908 2.214m6.092 6.066v-6.93c.738-.738 1.26-1.134 2.088-1.134.99 0 1.422.54 1.422 2.106v5.958h2.646V30.23c0-2.538-.936-4.05-3.114-4.05-1.368 0-2.394.72-3.276 1.584h-.054l-.198-1.332h-2.16v10.08z"/></defs><g fill="none" fill-rule="evenodd" filter="url(#a)" transform="translate(4 16)"><path fill="#fff" d="M12 0h64c6.627 0 12 5.373 12 12v40c0 6.627-5.373 12-12 12H12C5.373 64 0 58.627 0 52V12C0 5.373 5.373 0 12 0"/><g fill-rule="nonzero"><use xlink:href="#b" fill="#000" filter="url(#d)"/><use xlink:href="#b" fill="#fff"/></g></g></svg>