<svg xmlns="http://www.w3.org/2000/svg" xmlns:xlink="http://www.w3.org/1999/xlink" viewBox="0 0 96 96"><defs><linearGradient id="b" x1="50%" x2="50%" y1="3.136%" y2="100%"><stop offset="0%" stop-color="#fff"/><stop offset="100%" stop-color="#d5dee5"/></linearGradient><linearGradient id="d" x1="50%" x2="50%" y1="0%" y2="100%"><stop offset="0%"/><stop offset="100%"/></linearGradient><radialGradient id="c" cx="27.669%" cy="27.051%" r="53.16%" fx="27.669%" fy="27.051%"><stop offset="0%" stop-color="#decbff"/><stop offset="100%" stop-color="#0f28e1"/></radialGradient><filter id="a" width="130.8%" height="130.8%" x="-15.4%" y="-15.4%" filterUnits="objectBoundingBox"><feOffset dy="2" in="SourceAlpha" result="shadowOffsetOuter1"/><feGaussianBlur in="shadowOffsetOuter1" result="shadowBlurOuter1" stdDeviation="2"/><feColorMatrix in="shadowBlurOuter1" result="shadowMatrixOuter1" values="0 0 0 0 0 0 0 0 0 0 0 0 0 0 0 0 0 0 0.2 0"/><feMerge><feMergeNode in="shadowMatrixOuter1"/><feMergeNode in="SourceGraphic"/></feMerge></filter></defs><g fill="none" fill-rule="evenodd" filter="url(#a)" transform="translate(9 9)"><rect width="78" height="78" fill="url(#b)" rx="18"/><circle cx="28" cy="7" r="3" fill="url(#c)"/><circle cx="28" cy="19" r="3" fill="url(#c)"/><circle cx="28" cy="29" r="3" fill="url(#c)"/><circle cx="28" cy="51" r="3" fill="url(#c)"/><path fill="url(#c)" d="M18 32a3 3 0 1 0 0-6 3 3 0 0 0 0 6m0 22a3 3 0 1 0 0-6 3 3 0 0 0 0 6M8 32a3 3 0 1 0 0-6 3 3 0 0 0 0 6m0 22a3 3 0 1 0 0-6 3 3 0 0 0 0 6"/><circle cx="39" cy="7" r="3" fill="url(#c)"/><circle cx="39" cy="19" r="3" fill="url(#c)"/><circle cx="39" cy="29" r="3" fill="url(#c)"/><circle cx="39" cy="51" r="3" fill="url(#c)"/><circle cx="50" cy="7" r="3" fill="url(#c)"/><circle cx="50" cy="19" r="3" fill="url(#c)"/><circle cx="50" cy="29" r="3" fill="url(#c)"/><circle cx="50" cy="51" r="3" fill="url(#c)"/><circle cx="28" cy="61" r="3" fill="url(#c)"/><circle cx="39" cy="61" r="3" fill="url(#c)"/><circle cx="50" cy="61" r="3" fill="url(#c)"/><path fill="url(#c)" d="M28 74a3 3 0 1 0 0-6 3 3 0 0 0 0 6m11 0a3 3 0 1 0 0-6 3 3 0 0 0 0 6m11 0a3 3 0 1 0 0-6 3 3 0 0 0 0 6m10-42a3 3 0 1 0 0-6 3 3 0 0 0 0 6m0 22a3 3 0 1 0 0-6 3 3 0 0 0 0 6m10-22a3 3 0 1 0 0-6 3 3 0 0 0 0 6m0 22a3 3 0 1 0 0-6 3 3 0 0 0 0 6"/><circle cx="28" cy="40" r="3" fill="url(#c)"/><path fill="url(#c)" d="M18 43a3 3 0 1 0 0-6 3 3 0 0 0 0 6M8 43a3 3 0 1 0 0-6 3 3 0 0 0 0 6"/><circle cx="50" cy="40" r="3" fill="url(#c)"/><path fill="url(#c)" d="M60 43a3 3 0 1 0 0-6 3 3 0 0 0 0 6m10 0a3 3 0 1 0 0-6 3 3 0 0 0 0 6"/><circle cx="39" cy="40" r="2" fill="url(#d)"/></g></svg>