<svg xmlns="http://www.w3.org/2000/svg" viewBox="0 0 64 64"><circle cx="32" cy="33" r="28" opacity=".2"/><g transform="matrix(1.4 0 0 1.4 -1.6 -1.6)"><circle cx="24" cy="24" r="20" fill="#6d37ae"/><circle cx="10.87" cy="32.69" r="12.187" fill="none" stroke="#000" stroke-dasharray="10.71839171,5.35919586" stroke-dashoffset="40.003" stroke-linecap="round" stroke-linejoin="round" stroke-width="1.34" opacity=".1" transform="rotate(-25.767)"/><circle cx="11.18" cy="32.047" r="12.187" fill="none" stroke="#07e6d2" stroke-dasharray="10.71839171,5.35919586" stroke-dashoffset="40.003" stroke-linecap="round" stroke-linejoin="round" stroke-width="1.34" transform="rotate(-25.767)"/><circle cx="31.648" cy="-13.608" r="16.436" fill="none" stroke="#000" stroke-dasharray="11.27690352,5.63845176" stroke-dashoffset="40" stroke-linecap="round" stroke-linejoin="round" stroke-width="1.41" opacity=".1" transform="rotate(69.107)"/><circle cx="30.981" cy="-13.863" r="16.436" fill="none" stroke="#07a8e6" stroke-dasharray="11.27690352,5.63845176" stroke-dashoffset="40" stroke-linecap="round" stroke-linejoin="round" stroke-width="1.41" transform="rotate(69.107)"/><circle cx="22.737" cy="25.881" r="7.924" fill="none" stroke="#000" stroke-dasharray="10.35505959,5.1775298" stroke-dashoffset="13.454" stroke-linecap="round" stroke-linejoin="round" stroke-width="1.294" opacity=".1" transform="rotate(-2.86)"/><circle cx="22.772" cy="25.168" r="7.924" fill="none" stroke="#07e690" stroke-dasharray="10.35505959,5.1775298" stroke-dashoffset="13.454" stroke-linecap="round" stroke-linejoin="round" stroke-width="1.294" transform="rotate(-2.86)"/><g fill="#9bdb4d"><path d="M21.164 19.715a.703.692 0 0 0-.72.69l-.007 4.308-.008 4.31a.703.692 0 0 0 1.053.6l3.797-2.148 3.796-2.148a.703.692 0 0 0 .002-1.2l-3.789-2.159-3.788-2.161a.703.692 0 0 0-.336-.092" opacity=".2"/><path d="M21.164 19a.703.692 0 0 0-.72.692l-.007 4.307-.008 4.309a.703.692 0 0 0 1.053.6l3.797-2.147 3.796-2.148a.703.692 0 0 0 .002-1.2l-3.789-2.159-3.788-2.161a.703.692 0 0 0-.336-.092"/><path fill="#fff" d="M21.165 19a.703.691 0 0 0-.721.691l-.007 4.308-.008 4.308a.703.691 0 0 0 .001.033l.007-3.627.008-4.308a.703.691 0 0 1 .718-.69.703.691 0 0 1 .337.092l3.787 2.16 3.789 2.16a.703.691 0 0 1 .251.243.703.691 0 0 0-.251-.957l-3.789-2.16-3.787-2.16a.703.691 0 0 0-.335-.092" opacity=".2"/></g></g><path fill="#fff" d="M32 4A28 28 0 0 0 4 32a28 28 0 0 0 .021.586A28 28 0 0 1 32 5a28 28 0 0 1 27.979 27.414L60 32A28 28 0 0 0 32 4" opacity=".1"/></svg>