<svg xmlns="http://www.w3.org/2000/svg" xmlns:xlink="http://www.w3.org/1999/xlink" viewBox="0 0 96 96"><defs><linearGradient id="b" x1="50%" x2="50%" y1="0%" y2="100%"><stop offset="0%" stop-color="#e9e9e9"/><stop offset="100%" stop-color="#b7b7b7"/></linearGradient><linearGradient id="c" x1="50%" x2="50%" y1="0%" y2="100%"><stop offset="0%" stop-color="#969590"/><stop offset="100%" stop-color="#e3e3e3"/></linearGradient><linearGradient id="d" x1="50%" x2="50%" y1="0%" y2="100%"><stop offset="0%" stop-color="#272010"/><stop offset="100%" stop-color="#695318"/></linearGradient><linearGradient id="f" x1="-6.05%" x2="114.217%" y1="63.529%" y2="63.529%"><stop offset="0%" stop-color="#f0cc2f" stop-opacity=".348"/><stop offset="36.717%" stop-color="#f1cc2b"/><stop offset="100%" stop-color="#f3cc24" stop-opacity=".252"/></linearGradient><linearGradient id="g" x1="50%" x2="50%" y1="0%" y2="100%"><stop offset="0%" stop-color="#ffea3d" stop-opacity=".397"/><stop offset="100%" stop-color="#f4cc25"/></linearGradient><radialGradient id="e" cx="50%" cy="38.969%" r="77.093%" fx="50%" fy="38.969%"><stop offset="0%" stop-color="#a78b17"/><stop offset="100%" stop-color="#a78b17" stop-opacity=".24"/></radialGradient><filter id="a" width="131.6%" height="131.6%" x="-15.8%" y="-15.8%" filterUnits="objectBoundingBox"><feOffset dy="2" in="SourceAlpha" result="shadowOffsetOuter1"/><feGaussianBlur in="shadowOffsetOuter1" result="shadowBlurOuter1" stdDeviation="2"/><feColorMatrix in="shadowBlurOuter1" result="shadowMatrixOuter1" values="0 0 0 0 0 0 0 0 0 0 0 0 0 0 0 0 0 0 0.2 0"/><feMerge><feMergeNode in="shadowMatrixOuter1"/><feMergeNode in="SourceGraphic"/></feMerge></filter></defs><g fill="none" fill-rule="evenodd" filter="url(#a)" transform="translate(10 10)"><rect width="76" height="76" fill="url(#b)" fill-rule="nonzero" rx="10"/><rect width="62" height="62" x="7" y="7" fill="url(#c)" fill-rule="nonzero" rx="3"/><rect width="58" height="58" x="9" y="9" fill="url(#d)" fill-rule="nonzero" rx="2"/><path fill="url(#e)" fill-rule="nonzero" d="M19 9v9h9V9h1v9h9V9h1v8.999h9V9h1v8.999h9V9h1v8.999L67 18v1l-8-.001V28h8v1h-8v9h8v1h-8v9h8v1h-8v9h8v1h-8v8h-1v-8h-9v8h-1v-8h-9v8h-1v-8h-9v8h-1v-8h-9v8h-1v-8H9v-1h9v-9H9v-1h9v-9H9v-1h9v-9H9v-1h9v-9H9v-1h9V9zm9 40h-9v9h9zm10 0h-9v9h9zm10 0h-9v9h9zm10 0h-9v9h9zM28 39h-9v9h9zm10 0h-9v9h9zm10 0h-9v9h9zm10 0h-9v9h9zM28 29h-9v9h9zm10 0h-9v9h9zm10 0h-9v9h9zm10 0h-9v9h9zM28 19h-9v9h9zm10 0h-9v9h9zm10-.001h-9V28h9zm10 0h-9V28h9z" opacity=".452"/><path stroke="url(#f)" stroke-linecap="round" stroke-linejoin="round" stroke-width="2" d="M10 42h9l3.646-26.237 5.799 40.686L30.619 38h6.414l2.54-6.196 2.503 14.77L44 42h22"/><path fill="url(#g)" fill-rule="nonzero" d="M61 29a1 1 0 0 1 0 2h-6a1 1 0 0 1 0-2zm0-4a1 1 0 0 1 0 2h-6a1 1 0 0 1 0-2zm0-4a1 1 0 0 1 0 2h-6a1 1 0 0 1 0-2zm0-4a1 1 0 0 1 0 2h-6a1 1 0 0 1 0-2zm0-4a1 1 0 0 1 0 2h-6a1 1 0 0 1 0-2z"/><path fill="#d9b728" fill-rule="nonzero" d="M36.018 62.852v-.884h-2.7v.884zM42.864 65v-.845h-3.51a3 3 0 0 1 .37-.476q.225-.237 1.016-.9.947-.802 1.355-1.26.408-.46.584-.874.175-.416.175-.845 0-.845-.6-1.416-.6-.572-1.631-.572-1.02 0-1.626.53t-.698 1.54l.903.094q.005-.675.386-1.055.38-.381 1.016-.381.6 0 .974.359.373.36.373.881 0 .499-.41 1.057-.41.559-1.577 1.517-.752.615-1.15 1.084-.398.468-.579.952a1.6 1.6 0 0 0-.102.61zm4.777.122q.786 0 1.3-.422.516-.422.775-1.197.258-.773.259-2.033 0-1.065-.162-1.692a3.6 3.6 0 0 0-.444-1.065 1.93 1.93 0 0 0-.718-.669 2.1 2.1 0 0 0-1.01-.231q-.781 0-1.297.42t-.776 1.193-.261 2.044q0 2.016.708 2.91.591.742 1.626.742m0-.723q-.606 0-1.018-.583-.413-.584-.413-2.346t.454-2.417q.36-.513.967-.513.615 0 1.028.581.412.58.412 2.349 0 1.758-.412 2.343-.413.586-1.018.586m9.932.718q.957 0 1.45-.771V65h.816v-7.158h-.874v2.568a1.73 1.73 0 0 0-1.43-.713q-.64 0-1.158.337a2.04 2.04 0 0 0-.776.97 3.7 3.7 0 0 0-.26 1.408q0 .795.286 1.409.286.613.806.954.52.342 1.14.342m.083-.722q-.57 0-.991-.494-.42-.493-.42-1.489 0-1.03.393-1.509t.98-.478q.6 0 1.01.498t.41 1.562q0 .967-.403 1.438t-.979.472M67 65v-.845h-3.7V61.72H67v-.84h-3.7v-2.192H67v-.845h-4.647V65z"/></g></svg>