<svg xmlns="http://www.w3.org/2000/svg" xmlns:xlink="http://www.w3.org/1999/xlink" viewBox="0 0 96 96"><defs><linearGradient id="b" x1="50%" x2="50%" y1="0%" y2="100%"><stop offset="0%" stop-color="#fff"/><stop offset="100%" stop-color="#f1f1f1"/></linearGradient><linearGradient id="c" x1="50%" x2="50%" y1="0%" y2="100%"><stop offset="0%" stop-color="#fecb32"/><stop offset="100%" stop-color="#e92485"/></linearGradient><filter id="a" width="128.6%" height="128.6%" x="-14.3%" y="-14.3%" filterUnits="objectBoundingBox"><feOffset dy="2" in="SourceAlpha" result="shadowOffsetOuter1"/><feGaussianBlur in="shadowOffsetOuter1" result="shadowBlurOuter1" stdDeviation="2"/><feColorMatrix in="shadowBlurOuter1" result="shadowMatrixOuter1" values="0 0 0 0 0 0 0 0 0 0 0 0 0 0 0 0 0 0 0.2 0"/><feMerge><feMergeNode in="shadowMatrixOuter1"/><feMergeNode in="SourceGraphic"/></feMerge></filter></defs><g fill="none" fill-rule="evenodd" filter="url(#a)" transform="translate(6 6)"><circle cx="42" cy="42" r="42" fill="url(#b)"/><path fill="url(#c)" d="M42 5a1 1 0 0 1 1 1v9.018c14.117.514 25.468 11.866 25.982 25.983L78 41a1 1 0 0 1 0 2h-9.018C68.468 57.117 57.117 68.468 43 68.982V78a1 1 0 0 1-2 0v-9.018C26.885 68.468 15.533 57.117 15.019 43H6a1 1 0 0 1 0-2h9.018c.514-14.116 11.866-25.468 25.983-25.982L41 6a1 1 0 0 1 1-1M24.027 43H17.02C17.532 56.012 27.989 66.47 41 66.98v-7.007c-9.145-.5-16.472-7.828-16.973-16.973m18.974 16.973v7.007C56.01 66.468 66.467 56.012 66.98 43h-7.008c-.5 9.145-7.828 16.472-16.972 16.973m0-33.942V30h-2v-3.97c-8.04.496-14.473 6.93-14.97 14.97H30v2h-3.97c.496 8.04 6.93 14.474 14.97 14.97V54h2v3.97c8.04-.497 14.474-6.93 14.97-14.97H54v-2h3.97c-.497-8.04-6.93-14.473-14.97-14.97m-9.158 8.278.39.402c2.278 2.29 3.494 2.418 5.898 1.177l.412-.219.613-.34c3.627-2.005 6.195-1.787 9.546 2.1a1.4 1.4 0 0 1-2.12 1.829l-.188-.215-.36-.397c-1.432-1.532-2.416-1.98-3.685-1.664l3.36 6.061q.057.102.087.21.087.105.156.227l4.363 7.872a1.5 1.5 0 1 1-2.624 1.454l-4.11-7.415-2.82 2.05 3.204 1.632a1.5 1.5 0 1 1-1.362 2.673L39.4 49.097a1.5 1.5 0 0 1-.4-2.635l3.483-2.532-2.541-4.585a1 1 0 0 1-.106-.284c-2.805.984-5.047.315-8.026-2.824a1.4 1.4 0 1 1 2.032-1.928M41 17.02c-13.013.512-23.47 10.97-23.981 23.982L24.026 41c.501-9.144 7.828-16.471 16.973-16.972Zm2 0v7.008c9.144.501 16.47 7.828 16.972 16.972l7.007.002C66.47 27.989 56.012 17.53 43 17.02m-4.405 13.57a2.5 2.5 0 1 1 0 5 2.5 2.5 0 0 1 0-5"/></g></svg>