<svg xmlns="http://www.w3.org/2000/svg" xmlns:xlink="http://www.w3.org/1999/xlink" viewBox="0 0 96 96"><defs><linearGradient id="c" x1="21.405%" x2="100%" y1="50%" y2="50%"><stop offset="0%" stop-color="#d0d0d0"/><stop offset="100%" stop-color="#7e7e7e"/></linearGradient><linearGradient id="d" x1="50%" x2="50%" y1="0%" y2="100%"><stop offset="0%" stop-color="#999"/><stop offset="100%" stop-color="#d8d8d8"/></linearGradient><linearGradient id="e" x1="21.405%" x2="100%" y1="50%" y2="50%"><stop offset="0%" stop-color="#d0d0d0"/><stop offset="100%" stop-color="#7e7e7e"/></linearGradient><linearGradient id="f" x1="21.405%" x2="100%" y1="50%" y2="50%"><stop offset="0%" stop-color="#d0d0d0"/><stop offset="100%" stop-color="#7e7e7e"/></linearGradient><linearGradient id="g" x1="50%" x2="50%" y1="0%" y2="100%"><stop offset="0%" stop-color="#999"/><stop offset="100%" stop-color="#d8d8d8"/></linearGradient><radialGradient id="b" cx="50%" cy=".612%" r="98.46%" fx="50%" fy=".612%"><stop offset="0%" stop-color="#eee"/><stop offset="100%" stop-color="#484848"/></radialGradient><filter id="a" width="131.8%" height="129.1%" x="-15.9%" y="-14.5%" filterUnits="objectBoundingBox"><feOffset dy="2" in="SourceAlpha" result="shadowOffsetOuter1"/><feGaussianBlur in="shadowOffsetOuter1" result="shadowBlurOuter1" stdDeviation="2"/><feColorMatrix in="shadowBlurOuter1" result="shadowMatrixOuter1" values="0 0 0 0 0 0 0 0 0 0 0 0 0 0 0 0 0 0 0.2 0"/><feMerge><feMergeNode in="shadowMatrixOuter1"/><feMergeNode in="SourceGraphic"/></feMerge></filter></defs><g fill="none" fill-rule="evenodd" filter="url(#a)" transform="translate(7.872 4.5)"><circle cx="39.097" cy="42.469" r="32.914" fill="url(#b)" stroke="#5c5c5c"/><path fill="url(#c)" stroke="#626262" d="M39.628 0a3.16 3.16 0 0 1 3.113 2.614l1.52 8.666a1 1 0 0 1-.655 1.116q-2.526.884-3.978.883-1.452 0-3.978-.883a1 1 0 0 1-.655-1.116l1.52-8.666A3.16 3.16 0 0 1 39.628 0Z"/><path fill="url(#c)" stroke="#626262" d="M71.117 18.18a3.16 3.16 0 0 1 3.113 2.615l1.52 8.665a1 1 0 0 1-.655 1.117q-2.526.883-3.978.883t-3.978-.883a1 1 0 0 1-.655-1.117l1.52-8.665a3.16 3.16 0 0 1 3.113-2.615Z" transform="rotate(60 71.117 24.82)"/><path fill="url(#c)" stroke="#626262" d="M71.117 54.54a3.16 3.16 0 0 1 3.113 2.615l1.52 8.665a1 1 0 0 1-.655 1.117q-2.526.883-3.978.883t-3.978-.883a1 1 0 0 1-.655-1.117l1.52-8.665a3.16 3.16 0 0 1 3.113-2.615Z" transform="rotate(120 71.117 61.18)"/><path fill="url(#c)" stroke="#626262" d="M39.628 72.72a3.16 3.16 0 0 1 3.113 2.615L44.26 84a1 1 0 0 1-.655 1.117Q41.08 86 39.628 86t-3.978-.883A1 1 0 0 1 34.995 84l1.52-8.665a3.16 3.16 0 0 1 3.113-2.614Z" transform="rotate(180 39.628 79.36)"/><path fill="url(#c)" stroke="#626262" d="M8.139 54.54a3.16 3.16 0 0 1 3.113 2.615l1.52 8.665a1 1 0 0 1-.655 1.117q-2.526.883-3.978.883t-3.978-.883a1 1 0 0 1-.655-1.117l1.52-8.665A3.16 3.16 0 0 1 8.14 54.54Z" transform="rotate(-120 8.139 61.18)"/><path fill="url(#d)" stroke="#626262" d="M8.139 18.18a3.16 3.16 0 0 1 3.113 2.615l1.52 8.665a1 1 0 0 1-.655 1.117q-2.526.883-3.978.883t-3.978-.883a1 1 0 0 1-.655-1.117l1.52-8.665A3.16 3.16 0 0 1 8.14 18.18Z" transform="rotate(-60 8.139 24.82)"/><circle cx="39.628" cy="43.919" r="4.778" fill="url(#e)" stroke="#626262"/><path fill="url(#f)" stroke="#626262" d="M27.165 28.591q1.83.51 3.85-.778.911-.58 1.474-1.233a3 3 0 0 0-.627-4.47l-4.576-2.997a1.93 1.93 0 0 0-2.106-.006 1.98 1.98 0 0 0-.883 1.929L25 26.112a3 3 0 0 0 2.165 2.479Z"/><path fill="url(#f)" stroke="#626262" d="M49.875 29.157q1.83.51 3.85-.778.912-.58 1.475-1.233a3 3 0 0 0-.627-4.47l-4.577-2.997a1.93 1.93 0 0 0-2.106-.006 1.98 1.98 0 0 0-.882 1.929l.702 5.076a3 3 0 0 0 2.165 2.479Z" transform="rotate(60 51.473 24.146)"/><path fill="url(#f)" stroke="#626262" d="M60.74 49.108q1.83.51 3.85-.778.912-.581 1.475-1.233a3 3 0 0 0-.627-4.47l-4.577-2.998a1.93 1.93 0 0 0-2.106-.005 1.98 1.98 0 0 0-.882 1.928l.702 5.077a3 3 0 0 0 2.166 2.479Z" transform="rotate(120 62.338 44.097)"/><path fill="url(#f)" stroke="#626262" d="M48.895 68.493q1.83.51 3.85-.778.911-.582 1.474-1.234a3 3 0 0 0-.627-4.47l-4.576-2.997a1.93 1.93 0 0 0-2.106-.005 1.98 1.98 0 0 0-.883 1.928l.703 5.077a3 3 0 0 0 2.165 2.479Z" transform="rotate(180 50.493 63.482)"/><path fill="url(#f)" stroke="#626262" d="M26.185 67.927q1.83.51 3.85-.778.91-.582 1.474-1.234a3 3 0 0 0-.627-4.47l-4.576-2.997a1.93 1.93 0 0 0-2.107-.005 1.98 1.98 0 0 0-.882 1.928l.702 5.077a3 3 0 0 0 2.166 2.479Z" transform="rotate(-120 27.783 62.916)"/><path fill="url(#g)" stroke="#626262" d="M15.32 47.976q1.83.51 3.85-.778.91-.581 1.474-1.233a3 3 0 0 0-.627-4.47l-4.576-2.998a1.93 1.93 0 0 0-2.107-.005 1.98 1.98 0 0 0-.882 1.928l.702 5.077a3 3 0 0 0 2.166 2.479Z" transform="rotate(-60 16.918 42.965)"/></g></svg>