<svg xmlns="http://www.w3.org/2000/svg" xmlns:xlink="http://www.w3.org/1999/xlink" viewBox="0 0 96 96"><defs><linearGradient id="b" x1="50%" x2="50%" y1="0%" y2="100%"><stop offset="0%" stop-color="#9fceff"/><stop offset="100%" stop-color="#3785d7"/></linearGradient><linearGradient id="c" x1="50%" x2="50%" y1="27.529%" y2="100%"><stop offset="0%" stop-color="#fff"/><stop offset="100%" stop-color="#fff" stop-opacity=".71"/></linearGradient><linearGradient id="d" x1="50%" x2="50%" y1="27.529%" y2="100%"><stop offset="0%" stop-color="#fff"/><stop offset="100%" stop-color="#fff" stop-opacity=".71"/></linearGradient><filter id="a" width="128.6%" height="128.6%" x="-14.3%" y="-14.3%" filterUnits="objectBoundingBox"><feOffset dy="2" in="SourceAlpha" result="shadowOffsetOuter1"/><feGaussianBlur in="shadowOffsetOuter1" result="shadowBlurOuter1" stdDeviation="2"/><feColorMatrix in="shadowBlurOuter1" result="shadowMatrixOuter1" values="0 0 0 0 0 0 0 0 0 0 0 0 0 0 0 0 0 0 0.2 0"/><feMerge><feMergeNode in="shadowMatrixOuter1"/><feMergeNode in="SourceGraphic"/></feMerge></filter></defs><g fill="none" filter="url(#a)" transform="translate(6 6)"><circle cx="42" cy="42" r="42" fill="url(#b)"/><path fill="url(#c)" d="M6.337 36.706c.53-.266 3.9.545 9.17-.85s11.182-5.65 12.918-6.779 5.093-2.725 6.519-.684 1.929 4.068 2.733 5.805 4.025.49 5.648-.483 14.032-7.894 17.847-8.527c3.815-.634 6.388.21 7.927 4.1s5.524 6.892 7.734 7.955c2.21 1.064 2.338 1.387 2.11 1.843s-.911 1.248-2.617 2.452-5.7 1.204-7.58-1.374c-1.883-2.579-1.621-3.762-4.533-5.116-2.912-1.355-5.502-.2-11.59 2.42S42.491 42.74 39.7 43.293c-2.793.553-5.378-.55-6.658-2.5s-1.816-3.126-3.54-3.327c-1.724-.2-4.408.616-6.56 1.62-2.153 1.002-6.34 2.45-9.637 1.707-3.296-.743-7.497-3.822-6.967-4.088"/><path fill="url(#d)" d="M10.28 56.229c.41-.207 3.02.424 7.103-.661 4.083-1.086 8.662-4.395 10.006-5.273 1.345-.878 3.946-2.12 5.05-.532 1.105 1.588 1.494 3.164 2.117 4.515s3.119.382 4.375-.375c1.257-.757 10.87-6.14 13.826-6.633 2.955-.493 4.948.163 6.14 3.19 1.192 3.025 4.28 5.36 5.991 6.187 1.712.827 1.812 1.078 1.635 1.433-.176.355-.705.97-2.027 1.907s-4.415.937-5.873-1.069c-1.457-2.005-1.255-2.926-3.51-3.979s-4.262-.156-8.978 1.882-7.85 4.101-10.012 4.531c-2.164.43-4.166-.427-5.158-1.943-.991-1.517-1.406-2.432-2.742-2.588-1.335-.156-3.415.48-5.082 1.26-1.668.78-4.91 1.906-7.465 1.328-2.553-.579-5.807-2.973-5.397-3.18"/></g></svg>