<svg xmlns="http://www.w3.org/2000/svg" viewBox="0 0 64 64"><path d="M24 29h16v24l-8 8-8-8Z" opacity=".2"/><path fill="#afafb1" d="M24 28h16v24l-8 8-8-8Z"/><path fill="#e4e4e4" d="M24 28h8v32l-8-8Z"/><rect width="10" height="38" x="21" y="-51" opacity=".2" rx="5" ry="5.5" transform="rotate(90)"/><path fill="#d13808" d="M26 6h12v15H26z"/><rect width="10" height="38" x="20" y="-51" fill="#ec8a2b" rx="5" ry="5.5" transform="rotate(90)"/><rect width="20" height="6" x="22" y="5" opacity=".2" rx="4"/><rect width="20" height="6" x="22" y="4" fill="#ec8a2b" rx="4"/><path fill="#fff" d="M18.5 20c-3.047 0-5.5 2.23-5.5 5q0 .253.027.5c.275-2.533 2.612-4.5 5.473-4.5h27c2.861 0 5.198 1.967 5.473 4.5A5 5 0 0 0 51 25c0-2.77-2.453-5-5.5-5ZM26 4c-2.216 0-4 1.338-4 3q.002.256.059.5C22.375 6.079 24.012 5 26 5h12c1.988 0 3.625 1.079 3.941 2.5A2.3 2.3 0 0 0 42 7c0-1.662-1.784-3-4-3Z" opacity=".2"/></svg>