<svg xmlns="http://www.w3.org/2000/svg" xmlns:xlink="http://www.w3.org/1999/xlink" viewBox="0 0 96 96"><defs><linearGradient id="a" x1="50%" x2="50%" y1="0%" y2="100%"><stop offset="0%" stop-color="#70ff70"/><stop offset="100%" stop-color="#00e300"/></linearGradient><linearGradient id="b" x1="50%" x2="50%" y1="0%" y2="100%"><stop offset="0%"/><stop offset="100%"/></linearGradient><linearGradient id="c" x1="50%" x2="50%" y1="0%" y2="100%"><stop offset="0%" stop-color="#fff"/><stop offset="100%" stop-color="#fff"/></linearGradient></defs><g fill="none" fill-rule="evenodd"><rect width="78" height="78" x="9" y="9" fill="url(#a)" rx="18"/><path fill="#000" d="M66 9v18h21v1H66v36h21v1H66v22h-1V65H32.999v22h-1V65H9v-1h22.999L32 28H9v-1h23V9h1v18h32V9zm-1 19H33l-.001 36H65z"/><circle cx="32.5" cy="29.5" r="16.5" fill="url(#b)"/><circle cx="66.5" cy="29.5" r="16.5" fill="url(#c)"/><circle cx="32.5" cy="62.5" r="16.5" fill="url(#c)"/><circle cx="66.5" cy="62.5" r="16.5" fill="url(#b)"/></g></svg>