<svg xmlns="http://www.w3.org/2000/svg" xmlns:xlink="http://www.w3.org/1999/xlink" viewBox="0 0 96 96"><defs><linearGradient id="b" x1="50%" x2="50%" y1="0%" y2="100%"><stop offset="0%" stop-color="#ff8907"/><stop offset="100%" stop-color="#ff5920"/></linearGradient><linearGradient id="c" x1="50%" x2="50%" y1="0%" y2="100%"><stop offset="0%" stop-color="#ffea38"/><stop offset="100%" stop-color="#ffd01a"/></linearGradient><filter id="a" width="134.5%" height="127.4%" x="-17.3%" y="-13.7%" filterUnits="objectBoundingBox"><feOffset dy="2" in="SourceAlpha" result="shadowOffsetOuter1"/><feGaussianBlur in="shadowOffsetOuter1" result="shadowBlurOuter1" stdDeviation="2"/><feColorMatrix in="shadowBlurOuter1" result="shadowMatrixOuter1" values="0 0 0 0 0 0 0 0 0 0 0 0 0 0 0 0 0 0 0.2 0"/><feMerge><feMergeNode in="shadowMatrixOuter1"/><feMergeNode in="SourceGraphic"/></feMerge></filter></defs><g fill="none" fill-rule="evenodd" filter="url(#a)" transform="translate(13.225 4.25)"><path fill="url(#b)" d="M20.623 54.752c-.94 4.585-1.22 9.193.959 13.588 2.654 5.355 8.294 8.496 14.265 7.958 6.239-.561 10.956-4.27 12.836-10.09 1.879-5.808.395-9.956-5.216-14.522a81 81 0 0 0-3.035-2.318c-4.02-2.968-7.94-6.018-9.602-11.658-5.111 5.086-8.835 10.371-10.207 17.042m3.971 31.465C10.72 82.587.777 70.348.081 56.037c-.81-16.686 4.37-25.222 19.59-32.284 3.352-1.556 6.798-2.942 10.032-4.715 5.8-3.18 6.878-7.163 3.707-13.012C32.43 4.218 31.209 2.54 29.584 0c8.634 3.35 15.625 7.32 20.168 14.848 5.143 8.527 1.487 15.59-3.736 22.59 6.618-1.379 11.046-4.916 13.304-11.48 5.08 5.058 7.77 10.85 9.181 17.224C74 68.037 56.888 85.339 40.14 87.11c-.43.046-5.811.468-7.882.377-4.73-.206-6.802-1.045-7.663-1.27"/><path fill="url(#c)" d="M30.83 37.71c1.662 5.64 5.582 8.69 9.602 11.658a81 81 0 0 1 3.035 2.318c5.61 4.566 7.095 8.714 5.216 14.523-1.88 5.82-6.597 9.528-12.836 10.089-5.971.538-11.611-2.603-14.265-7.958-2.18-4.395-1.9-9.003-.959-13.588C21.995 48.08 25.72 42.796 30.83 37.71"/></g></svg>