<svg xmlns="http://www.w3.org/2000/svg" xmlns:xlink="http://www.w3.org/1999/xlink" viewBox="0 0 96 96"><defs><linearGradient id="b" x1="50%" x2="50%" y1="0%" y2="100%"><stop offset="0%" stop-color="#d8d8d8"/><stop offset="100%" stop-color="#ccc"/></linearGradient><linearGradient id="c" x1="50%" x2="50%" y1="0%" y2="100%"><stop offset="0%" stop-color="#636363"/><stop offset="100%" stop-color="#343434"/></linearGradient><linearGradient id="d" x1="50%" x2="50%" y1="0%" y2="100%"><stop offset="0%" stop-color="#b4b4b4"/><stop offset="100%" stop-color="#7d7d7d"/></linearGradient><filter id="a" width="132.4%" height="132.4%" x="-16.2%" y="-16.2%" filterUnits="objectBoundingBox"><feOffset dy="2" in="SourceAlpha" result="shadowOffsetOuter1"/><feGaussianBlur in="shadowOffsetOuter1" result="shadowBlurOuter1" stdDeviation="2"/><feColorMatrix in="shadowBlurOuter1" result="shadowMatrixOuter1" values="0 0 0 0 0 0 0 0 0 0 0 0 0 0 0 0 0 0 0.2 0"/><feMerge><feMergeNode in="shadowMatrixOuter1"/><feMergeNode in="SourceGraphic"/></feMerge></filter></defs><g fill="none" filter="url(#a)" transform="translate(11 11)"><path fill="url(#b)" d="M2 2h65L51.5 22 69 41.5 42 70.494 21.5 49.5 2 69z"/><path fill="url(#c)" d="M74 0v5h-5v4h-5V5H5v59h4v5H5v5H0V0zM44 69v5h-5v-5zm5-5v5h-5v-5zm-10 0v5h-5v-5zm15-5v5h-5v-5zm-20 0v5h-5v-5zm-20 0v5H9v-5zm45-5v5h-5v-5zm-30 0v5h-5v-5zm-10 0v5h-5v-5zm45-5v5h-5v-5zm-40 0v5h-5v-5zm45-5v5h-5v-5zm5-5v5h-5v-5zm-5-5v5h-5v-5zm-5-5v5h-5v-5zm-5-5v5h-5v-5zm-5-5v5h-5v-5zm5-5v5h-5v-5zm5-5v5h-5V9z"/><path fill="url(#d)" d="M44 64v5h-5v-5zm5-5v5h-5v-5zm-10 0v5h-5v-5zm15-5v5h-5v-5zm-20 0v5h-5v-5zM9 64H4V4h60v5h-5v5h-5V9H9v45h5v5H9zm50-15v5h-5v-5zm-30 0v5h-5v-5zm-10 0v5h-5v-5zm45-5v5h-5v-5zm-40 0v5h-5v-5zm45-5v5h-5v-5zm-5-5v5h-5v-5zm-5-5v5h-5v-5zm-5-5v5h-5v-5zm-5-5v5h-5v-5zm5-5v5h-5v-5z"/></g></svg>