<svg xmlns="http://www.w3.org/2000/svg" xmlns:xlink="http://www.w3.org/1999/xlink" viewBox="0 0 96 96"><defs><linearGradient id="a" x1="50%" x2="50%" y1="0%" y2="100%"><stop offset="0%" stop-color="#47a24e"/><stop offset="100%" stop-color="#226926"/></linearGradient><filter id="b" width="136.4%" height="127.2%" x="-18.2%" y="-13.6%" filterUnits="objectBoundingBox"><feOffset dy="2" in="SourceAlpha" result="shadowOffsetOuter1"/><feGaussianBlur in="shadowOffsetOuter1" result="shadowBlurOuter1" stdDeviation="2"/><feColorMatrix in="shadowBlurOuter1" result="shadowMatrixOuter1" values="0 0 0 0 0 0 0 0 0 0 0 0 0 0 0 0 0 0 0.2 0"/><feMerge><feMergeNode in="shadowMatrixOuter1"/><feMergeNode in="SourceGraphic"/></feMerge></filter></defs><g fill="url(#a)" fill-rule="evenodd" filter="url(#b)" transform="translate(18 4.769)"><path d="M15 0a15 15 0 0 1 7.407 1.957l35.872 20.37c7.203 4.092 9.727 13.248 5.636 20.452a15 15 0 0 1-5.516 5.566L24.492 68.007a5 5 0 0 0-2.491 4.325l-.001 4.9c0 6.075-4.925 11-11 11s-11-4.925-11-11V15C0 6.716 6.716 0 15 0m11 23.058a6 6 0 0 0-6 6V42.49a6 6 0 0 0 8.996 5.198l11.557-6.66a6 6 0 0 0 .037-10.375L29.033 23.88A6 6 0 0 0 26 23.058"/></g></svg>