<svg xmlns="http://www.w3.org/2000/svg" xmlns:xlink="http://www.w3.org/1999/xlink" viewBox="0 0 96 96"><defs><linearGradient id="b" x1="50%" x2="50%" y1="0%" y2="100%"><stop offset="0%" stop-color="#7499ff"/><stop offset="100%" stop-color="#223fff"/></linearGradient><linearGradient id="c" x1="50%" x2="50%" y1="-15.44%" y2="100%"><stop offset="0%" stop-color="#9bb6ff"/><stop offset="100%" stop-color="#2340ff"/></linearGradient><linearGradient id="d" x1="50%" x2="50%" y1="0%" y2="109.296%"><stop offset="0%" stop-color="#7499ff"/><stop offset="100%" stop-color="#223fff"/></linearGradient><linearGradient id="e" x1="8.786%" x2="100%" y1="22.27%" y2="22.27%"><stop offset="0%" stop-color="#9cbbff"/><stop offset="100%" stop-color="#1f4dff"/></linearGradient><filter id="a" width="138.9%" height="129.1%" x="-19.5%" y="-14.6%" filterUnits="objectBoundingBox"><feOffset dy="2" in="SourceAlpha" result="shadowOffsetOuter1"/><feGaussianBlur in="shadowOffsetOuter1" result="shadowBlurOuter1" stdDeviation="2"/><feColorMatrix in="shadowBlurOuter1" result="shadowMatrixOuter1" values="0 0 0 0 0 0 0 0 0 0 0 0 0 0 0 0 0 0 0.2 0"/><feMerge><feMergeNode in="shadowMatrixOuter1"/><feMergeNode in="SourceGraphic"/></feMerge></filter></defs><g fill="none" fill-rule="evenodd" filter="url(#a)" transform="translate(17 7)"><path fill="url(#b)" d="M61.007 17.326Q63.79 32.808 54.81 41.96c-8.981 9.153-16.639 2.804-24.311 7.936-7.672 5.133-5.668 15.064-9.568 21.61q-3.9 6.548-18.138 10.962L15.58 49.897l9.132-12.936 19.919-3 10.18-10.504z"/><path fill="url(#c)" d="M0 0h27.039C43.034 0 56 12.966 56 28.961l-5.508.479a5.565 5.565 0 0 1-6.047-5.545 6.046 6.046 0 0 0-6.07-6.046L18 17.93C8.098 17.97.039 9.972 0 .07z"/><path fill="url(#d)" d="M7 0h23.26C42.82 0 53 10.18 53 22.74h-8.761a5.74 5.74 0 0 0-5.74-5.74H24C14.611 17 7 9.389 7 0"/><path fill="url(#e)" d="M14 0h29.681c9.569 0 17.326 7.757 17.326 17.326 0 2.625-.522 7.667-3.442 12.64-2.205 3.754-6.163 7.286-9.727 8.963C38.432 43.354 30 36.96 23.842 44.652 17.47 52.611 20.373 59.205 14 69.748Q7.627 80.29 2.794 82.469q2.63-12.237 3.472-17.508c1.642-10.295 2.88-18.574 6.373-23.824q6.311-9.487 18.62-10.948c2.094-.25 8.576-.654 9.337-1.01q3.432-1.6 3.432-5.722c0-2.748-1.231-4.81-3.43-6.818q-1.793-1.64-6.191-1.639H29c-8.284 0-15-6.716-15-15"/></g></svg>