<svg xmlns="http://www.w3.org/2000/svg" xmlns:xlink="http://www.w3.org/1999/xlink" viewBox="0 0 96 96"><defs><linearGradient id="a" x1="50%" x2="50%" y1="0%" y2="100%"><stop offset="0%" stop-color="#fce94f"/><stop offset="100%" stop-color="#efd70d"/></linearGradient><linearGradient id="c" x1="50%" x2="50%" y1="0%" y2="100%"><stop offset="0%" stop-color="#fff"/><stop offset="100%" stop-color="#dcdcdc"/></linearGradient><linearGradient id="e" x1="50%" x2="50%" y1="0%" y2="100%"><stop offset="0%" stop-color="#088608"/><stop offset="100%" stop-color="#034e03"/></linearGradient><filter id="b" width="128.6%" height="147.1%" x="-14.3%" y="-23.5%" filterUnits="objectBoundingBox"><feOffset dy="2" in="SourceAlpha" result="shadowOffsetOuter1"/><feGaussianBlur in="shadowOffsetOuter1" result="shadowBlurOuter1" stdDeviation="2"/><feColorMatrix in="shadowBlurOuter1" result="shadowMatrixOuter1" values="0 0 0 0 0 0 0 0 0 0 0 0 0 0 0 0 0 0 0.2 0"/><feMerge><feMergeNode in="shadowMatrixOuter1"/><feMergeNode in="SourceGraphic"/></feMerge></filter><filter id="d" width="140%" height="136.4%" x="-20%" y="-18.2%" filterUnits="objectBoundingBox"><feOffset dy="2" in="SourceAlpha" result="shadowOffsetOuter1"/><feGaussianBlur in="shadowOffsetOuter1" result="shadowBlurOuter1" stdDeviation="2"/><feColorMatrix in="shadowBlurOuter1" result="shadowMatrixOuter1" values="0 0 0 0 0 0 0 0 0 0 0 0 0 0 0 0 0 0 0.2 0"/><feMerge><feMergeNode in="shadowMatrixOuter1"/><feMergeNode in="SourceGraphic"/></feMerge></filter></defs><g fill="none" fill-rule="evenodd"><g fill="url(#a)" stroke="#000" stroke-opacity=".388" filter="url(#b)" transform="translate(6 36)"><path d="M23 .5c1.243 0 2.368.504 3.182 1.318A4.5 4.5 0 0 1 27.5 5v41a4.5 4.5 0 0 1-1.318 3.182A4.5 4.5 0 0 1 23 50.5H5a4.5 4.5 0 0 1-3.182-1.318A4.5 4.5 0 0 1 .5 46V5c0-1.243.504-2.368 1.318-3.182A4.5 4.5 0 0 1 5 .5zm28 0c1.243 0 2.368.504 3.182 1.318A4.5 4.5 0 0 1 55.5 5v41a4.5 4.5 0 0 1-1.318 3.182A4.5 4.5 0 0 1 51 50.5H33a4.5 4.5 0 0 1-3.182-1.318A4.5 4.5 0 0 1 28.5 46V5c0-1.243.504-2.368 1.318-3.182A4.5 4.5 0 0 1 33 .5zm28 0c1.243 0 2.368.504 3.182 1.318A4.5 4.5 0 0 1 83.5 5v41a4.5 4.5 0 0 1-1.318 3.182A4.5 4.5 0 0 1 79 50.5H61a4.5 4.5 0 0 1-3.182-1.318A4.5 4.5 0 0 1 56.5 46V5c0-1.243.504-2.368 1.318-3.182A4.5 4.5 0 0 1 61 .5z"/></g><g fill="url(#c)" stroke="#000" stroke-opacity=".388" filter="url(#d)" transform="translate(19 9)"><path d="M55 .5c1.243 0 2.368.504 3.182 1.318A4.5 4.5 0 0 1 59.5 5v56a4.5 4.5 0 0 1-1.318 3.182A4.5 4.5 0 0 1 55 65.5H5a4.5 4.5 0 0 1-3.182-1.318A4.5 4.5 0 0 1 .5 61V5c0-1.243.504-2.368 1.318-3.182A4.5 4.5 0 0 1 5 .5Z"/></g><path fill="url(#e)" d="M42.464 49.75c1.642 2.4.784 4.858.625 7.241-2.24 2.572-4.4 5.204-6.137 8.91l-4.859-12.164c6.007 3.627 6.007 3.627 10.37-3.987m13.789-9.15c-1.557 2.309-2.414 4.42 1.367 5.409.404.106.355.292-1.42 1.363-.452.377-.938.59-1.443.705a16.7 16.7 0 0 1 5.786 2.368c-1.035.997-1.979 2.116-3.122 2.968-2.5 1.862-2.334 3.53-.13 5.562 1.014.933 1.639 2.343 2.27 3.62.58 1.179-.124 2.052-1.068 2.736-.921.667-1.855.486-2.188-.503-2.255-6.688-5.89-5.231-9.81-2.532l-.343.238-.515.366c-.731.525-1.656.716-2.762-.203 1.463-3.007 6.559-3.361 6.461-6.752-.06-2.128-2.323-4.764-5.213-5.577q-.465-1.088.533-1.724c2.496-.653 4.958-1.005 7.368-.899a5 5 0 0 0-.446-.398l.162-.134c-1.564-1.422 1.241-3.842-1.394-5.308l-4.015 5.413q.086.064.171.124a9 9 0 0 0-.337.226c-.845-.21-1.38-.646-1.194-1.614q.605-1.766 1.214-3.53c.525-1.511-.385-4.305 2.265-4.017.546.059 1.13.016 1.726-.054l.36-.045.528-.069.176-.022.353-.042c1.82-.2 3.591-.11 4.66 2.326m-4.004-21.169c4.802 1.36 9.105 4.843 12.8 9.417l-7.754 2.218c5.535 4.476 11.658 6.92 18.705 8.907a48 48 0 0 0-.992.397l-.492.205-.49.209-1.693.731-.479.205c-4.855 2.057-9.354 3.418-13.67-2.167-2.66-2.312-5.85-3.218-9.089-3.988l-.884-.208c-1.087-.253-2.174-.504-3.245-.8-.263.525-.577 1.015-1.096 1.355-1.037.388-1.935.997-2.812 1.639l-.75.554c-.462.341-.928.677-1.415.98l5.086-1.72-.215.984-.145.654c-1.057 4.68-2.45 9.17-7.236 11.73.293-2.248.328-4.373-3.282-5.12 5.216-.053 6.323-2.116 4.643-5.882l-.094-.206c-4.857 1.009-8.006 6.437-14.114 5.27 2.425-2.044 4.603-3.925 6.83-5.748 2.44-1.997 4.241-4.04.553-7.207 3.226 1.55 5.055 1.154 6.84-1.827 1.771-2.958-.083-3.992-2.026-5.516 3.603-2.329 6.329-2.098 8.703 1.144l.22.3c.63.853 1.344 1.707 2.548 1.802l.218.009c2.512-2.445 2.982-8.842 4.827-8.32m-3.832 10.396c-.814.851-1.72 1.605-2.57 2.418l-.625.624q.31-.007.629-.006h.253c1.727-.008 3.34-.135 2.313-3.036m4.24-1.202c2.215-.232 3.5-.648 3.983-2.144.073-.227-.61-.97-1.013-1.034-2.042-.327-1.952 1.536-2.97 3.178"/></g></svg>