<svg xmlns="http://www.w3.org/2000/svg" xmlns:xlink="http://www.w3.org/1999/xlink" viewBox="0 0 96 96"><defs><linearGradient id="d" x1="100%" x2="0%" y1="50%" y2="50%"><stop offset="0%" stop-color="#797979"/><stop offset="100%" stop-color="#7c4848"/></linearGradient><linearGradient id="e" x1="100%" x2="0%" y1="50%" y2="50%"><stop offset="0%" stop-color="#797979"/><stop offset="100%" stop-color="#7c4848"/></linearGradient><linearGradient id="f" x1="4.788%" x2="100%" y1="7.787%" y2="90.044%"><stop offset="0%" stop-color="#e0d0d0"/><stop offset="100%" stop-color="#af6464"/></linearGradient><linearGradient id="g" x1="6.647%" x2="97.944%" y1="6.09%" y2="91.653%"><stop offset="0%" stop-color="#e0d0d0"/><stop offset="100%" stop-color="#af6464"/></linearGradient><linearGradient id="h" x1="12.721%" x2="80.052%" y1="6.808%" y2="92.955%"><stop offset="0%" stop-color="#d29898"/><stop offset="100%" stop-color="#f40000"/></linearGradient><linearGradient id="i" x1="16.016%" x2="77.396%" y1="6.808%" y2="92.955%"><stop offset="0%" stop-color="#d29898"/><stop offset="100%" stop-color="#f40000"/></linearGradient><linearGradient id="j" x1="24.337%" x2="70.688%" y1="6.808%" y2="92.955%"><stop offset="0%" stop-color="#d29898"/><stop offset="100%" stop-color="#f40000"/></linearGradient><linearGradient id="k" x1=".654%" x2="99.346%" y1="0%" y2="100%"><stop offset="0%" stop-color="#ca8888"/><stop offset="100%" stop-color="#e94c4c"/></linearGradient><linearGradient id="l" x1="11.03%" x2="93.097%" y1="6.09%" y2="91.653%"><stop offset="0%" stop-color="#e0d0d0"/><stop offset="100%" stop-color="#af6464"/></linearGradient><linearGradient id="m" x1="9.942%" x2="82.291%" y1="6.808%" y2="92.955%"><stop offset="0%" stop-color="#d29898"/><stop offset="100%" stop-color="#f40000"/></linearGradient><linearGradient id="n" x1="10.806%" x2="81.595%" y1="6.808%" y2="92.955%"><stop offset="0%" stop-color="#d29898"/><stop offset="100%" stop-color="#f40000"/></linearGradient><linearGradient id="o" x1="50%" x2="50%" y1="15.084%" y2="85.224%"><stop offset="0%" stop-color="#eee"/><stop offset="23.574%" stop-color="#f1e4be"/><stop offset="47.385%" stop-color="#fcd25a"/><stop offset="57.47%" stop-color="#ffcd3d"/><stop offset="84.916%" stop-color="#ffea8b"/><stop offset="100%" stop-color="#fff3a8"/></linearGradient><linearGradient id="p" x1="50%" x2="50%" y1="15.084%" y2="85.224%"><stop offset="0%" stop-color="#eee"/><stop offset="23.574%" stop-color="#f1e4be"/><stop offset="47.385%" stop-color="#fcd25a"/><stop offset="57.47%" stop-color="#ffcd3d"/><stop offset="84.916%" stop-color="#ffea8b"/><stop offset="100%" stop-color="#fff3a8"/></linearGradient><linearGradient id="q" x1="50%" x2="50%" y1="15.084%" y2="85.224%"><stop offset="0%" stop-color="#eee"/><stop offset="23.574%" stop-color="#f1e4be"/><stop offset="47.385%" stop-color="#fcd25a"/><stop offset="57.47%" stop-color="#ffcd3d"/><stop offset="84.916%" stop-color="#ffea8b"/><stop offset="100%" stop-color="#fff3a8"/></linearGradient><linearGradient id="r" x1="67.966%" x2="30.549%" y1="19.882%" y2="88.882%"><stop offset="0%"/><stop offset="100%" stop-color="#b3b3b3"/></linearGradient><linearGradient id="s" x1="50%" x2="50%" y1="0%" y2="100%"><stop offset="0%" stop-color="#eee"/><stop offset="100%" stop-color="#6b6b6b"/></linearGradient><linearGradient id="a" x1="100%" x2="0%" y1="50%" y2="50%"><stop offset="0%" stop-color="#2e2e2e"/><stop offset="41.335%" stop-color="#191919"/><stop offset="64.582%" stop-color="#e0e0e0"/><stop offset="100%" stop-color="#323232"/></linearGradient><linearGradient id="b" x1="100%" x2="0%" y1="28.033%" y2="71.967%"><stop offset="0%" stop-color="red"/><stop offset="100%" stop-color="#ff6100"/></linearGradient><linearGradient id="x" x1="67.966%" x2="30.549%" y1="16.235%" y2="93.591%"><stop offset="0%"/><stop offset="100%" stop-color="#b3b3b3"/></linearGradient><linearGradient id="y" x1="34.371%" x2="65.629%" y1="14.762%" y2="85.238%"><stop offset="0%" stop-color="#eee"/><stop offset="100%" stop-color="#6b6b6b"/></linearGradient><linearGradient id="z" x1="100%" x2="0%" y1="50%" y2="50%"><stop offset="0%" stop-color="#2e2e2e"/><stop offset="41.335%" stop-color="#191919"/><stop offset="64.582%" stop-color="#e0e0e0"/><stop offset="100%" stop-color="#323232"/></linearGradient><linearGradient id="A" x1="66.702%" x2="36.78%" y1="34.049%" y2="70.585%"><stop offset="0%" stop-color="#eee"/><stop offset="100%" stop-color="#fefefe"/></linearGradient><linearGradient id="B" x1="40.565%" x2="63.805%" y1="33.795%" y2="85.295%"><stop offset="0%" stop-color="#b6b6b6"/><stop offset="100%" stop-color="#959595"/><stop offset="100%" stop-color="#999"/></linearGradient><linearGradient id="C" x1="56.343%" x2="41.142%" y1="5.309%" y2="100%"><stop offset="0%" stop-color="#26262b"/><stop offset="100%" stop-color="#4e4e5c"/></linearGradient><linearGradient id="D" x1="64.271%" x2="30.069%" y1="30.137%" y2="72.222%"><stop offset="0%" stop-color="#26262b"/><stop offset="100%" stop-color="#4e4e5c"/></linearGradient><linearGradient id="E" x1="94.817%" x2="21.782%" y1="50%" y2="45.481%"><stop offset="0%" stop-color="#e8b100" stop-opacity=".746"/><stop offset="100%" stop-color="#ffd282" stop-opacity=".75"/></linearGradient><linearGradient id="F" x1="51.201%" x2="50%" y1="47.604%" y2="52.381%"><stop offset="0%" stop-color="red"/><stop offset="100%" stop-color="#ffcd00"/></linearGradient><linearGradient id="G" x1="50%" x2="50%" y1="50%" y2="72.82%"><stop offset="0%" stop-color="#7a7a7a"/><stop offset="100%" stop-color="#8e8e8e"/></linearGradient><linearGradient id="H" x1="18.735%" x2="83.808%" y1="48.195%" y2="50%"><stop offset="0%" stop-color="#e2e2ff"/><stop offset="100%" stop-color="#6f69d5"/></linearGradient><linearGradient id="I" x1="18.298%" x2="100%" y1="50%" y2="54.815%"><stop offset="0%" stop-color="#eee"/><stop offset="100%" stop-color="#5b5ab8"/></linearGradient><linearGradient id="J" x1="44.08%" x2="58.662%" y1="33.795%" y2="85.295%"><stop offset="0%" stop-color="#b6b6b6"/><stop offset="100%" stop-color="#959595"/><stop offset="100%" stop-color="#999"/></linearGradient><linearGradient id="K" x1="66.702%" x2="36.78%" y1="34.379%" y2="70.158%"><stop offset="0%" stop-color="#eee"/><stop offset="100%" stop-color="#fefefe"/></linearGradient><linearGradient id="L" x1="64.271%" x2="30.069%" y1="24.861%" y2="78.125%"><stop offset="0%" stop-color="#26262b"/><stop offset="100%" stop-color="#4e4e5c"/></linearGradient><linearGradient id="M" x1="64.271%" x2="30.069%" y1="33.911%" y2="68%"><stop offset="0%" stop-color="#26262b"/><stop offset="100%" stop-color="#4e4e5c"/></linearGradient><linearGradient id="N" x1="79.343%" x2="15.65%" y1="15.448%" y2="80.149%"><stop offset="0%" stop-color="#eee"/><stop offset="100%" stop-color="#5b5b5b"/></linearGradient><path id="v" fill="url(#a)" d="m14.504 6.337 3.977.339.01 1.661a1.99 1.99 0 0 1-1.975 2h-.012a2 2 0 0 1-2-2z"/><path id="w" fill="url(#b)" d="M20.74 5.037v.743c-1.012 0-1.904.397-2.697 1.213a.253.253 0 0 1-.353.017l-.562-.5c.954-1.073 2.08-1.655 3.355-1.723a.25.25 0 0 1 .257.25"/><filter id="c" width="130.9%" height="129.3%" x="-15.4%" y="-14.7%" filterUnits="objectBoundingBox"><feOffset dy="2" in="SourceAlpha" result="shadowOffsetOuter1"/><feGaussianBlur in="shadowOffsetOuter1" result="shadowBlurOuter1" stdDeviation="2"/><feColorMatrix in="shadowBlurOuter1" result="shadowMatrixOuter1" values="0 0 0 0 0 0 0 0 0 0 0 0 0 0 0 0 0 0 0.2 0"/><feMerge><feMergeNode in="shadowMatrixOuter1"/><feMergeNode in="SourceGraphic"/></feMerge></filter></defs><g fill="none" fill-rule="evenodd" filter="url(#c)" transform="translate(9 7)"><path fill="url(#d)" fill-rule="nonzero" d="M12.683 23.512h2v5h-2z"/><path fill="url(#d)" fill-rule="nonzero" d="M12.683 48.512h2v5h-2z"/><path fill="url(#e)" fill-rule="nonzero" d="M38.683-2.488h2v31h-2z" transform="rotate(-93 39.683 13.012)"/><path fill="url(#e)" fill-rule="nonzero" d="M38.683 19.512h2v31h-2z" transform="rotate(-97 39.683 35.012)"/><path fill="url(#e)" fill-rule="nonzero" d="M38.683 45.512h2v31h-2z" transform="rotate(-97 39.683 61.012)"/><path fill="url(#d)" fill-rule="nonzero" d="M38.683 20.512h2v5h-2z"/><path fill="url(#d)" fill-rule="nonzero" d="M60.683 19.512h2v5h-2z"/><path fill="url(#d)" fill-rule="nonzero" d="M38.683 44.512h2v5h-2z"/><path fill="url(#d)" fill-rule="nonzero" d="M60.683 42.512h2v5h-2z"/><path fill="url(#f)" fill-rule="nonzero" d="M.683 2.062v23.45l25-2V1z"/><path fill="url(#g)" fill-rule="nonzero" d="M.683 27.75v23.793l25-3.531v-22z"/><path fill="url(#h)" fill-rule="nonzero" d="M.683 53.897v24.998l25-5.509V49.942z"/><path fill="url(#i)" fill-rule="nonzero" d="M28.683 49.859V72.3l21-5.451V46.828z"/><path fill="url(#j)" fill-rule="nonzero" d="M52.683 46.588v22.365l18-5.104V43.828z"/><path fill="url(#k)" fill-rule="nonzero" d="M28.68 1.232v21.652l22.003-1.657V.736z"/><path fill="url(#l)" fill-rule="nonzero" d="M28.68 25.543v22.051l22.003-3.323V23.895z"/><path fill="url(#m)" fill-rule="nonzero" d="M52.683.736v20.491l18.984-1.452L71.683 0z"/><path fill="url(#n)" fill-rule="nonzero" d="m52.683 23.58.011 20.185 18.989-2.666V22.305z"/><path fill="#000" fill-rule="nonzero" d="m13.428 44.205-6.09 4.684a.5.5 0 0 1-.78-.547l2.195-6.949a.5.5 0 0 0-.238-.59l-5.903-3.198a.5.5 0 0 1 .172-.935l7.853-1.051a.5.5 0 0 0 .404-.328l2.431-6.822a.5.5 0 0 1 .948.019l1.961 6.266a.5.5 0 0 0 .521.348l6.663-.586a.5.5 0 0 1 .361.884l-5.314 4.37a.5.5 0 0 0-.159.539l1.93 6.043a.5.5 0 0 1-.695.601l-5.736-2.8a.5.5 0 0 0-.524.052"/><path fill="url(#o)" d="m11.078 16.068-6.09 4.684a.5.5 0 0 1-.78-.547l2.195-6.949a.5.5 0 0 0-.238-.59L.262 9.468a.5.5 0 0 1 .172-.935l7.853-1.051a.5.5 0 0 0 .404-.328L11.122.332a.5.5 0 0 1 .948.019l1.961 6.266a.5.5 0 0 0 .521.348l6.663-.586a.5.5 0 0 1 .361.884l-5.314 4.37a.5.5 0 0 0-.159.539l1.93 6.043a.5.5 0 0 1-.695.601l-5.736-2.8a.5.5 0 0 0-.524.052" transform="translate(2.35 28.137)"/><path fill="#af0000" fill-rule="nonzero" d="m13.237 28.385-2.431 6.822a.25.25 0 0 1-.203.164l-7.852 1.052a.75.75 0 0 0-.258 1.402l5.903 3.198a.25.25 0 0 1 .119.295l-2.196 6.948a.75.75 0 0 0 1.172.82l6.09-4.683a.25.25 0 0 1 .261-.026l5.736 2.8a.75.75 0 0 0 1.043-.901l-1.93-6.043a.25.25 0 0 1 .08-.27l5.314-4.37a.75.75 0 0 0-.542-1.326l-6.663.586a.25.25 0 0 1-.26-.174l-1.961-6.266a.75.75 0 0 0-1.422-.028m.79.017a.25.25 0 0 1 .155.16l1.96 6.266a.75.75 0 0 0 .782.524l6.663-.587a.25.25 0 0 1 .18.442l-5.314 4.37a.75.75 0 0 0-.238.808l1.93 6.043a.25.25 0 0 1-.348.3l-5.735-2.8a.75.75 0 0 0-.787.08L7.187 48.69a.25.25 0 0 1-.391-.274l2.196-6.948a.75.75 0 0 0-.358-.886L2.73 37.386a.25.25 0 0 1 .086-.468l7.853-1.051a.75.75 0 0 0 .607-.492l2.43-6.822a.25.25 0 0 1 .32-.151"/><path fill="#f4ec54" fill-rule="nonzero" d="M14.111 28.166a.5.5 0 0 1 .31.322l1.96 6.266a.5.5 0 0 0 .521.348l6.663-.586a.5.5 0 0 1 .361.884l-5.314 4.37a.5.5 0 0 0-.159.539l1.93 6.043a.5.5 0 0 1-.695.601l-5.736-2.8a.5.5 0 0 0-.524.052L7.339 48.89a.5.5 0 0 1-.782-.547l2.196-6.949a.5.5 0 0 0-.238-.59l-5.903-3.197a.5.5 0 0 1 .172-.936l7.853-1.051a.5.5 0 0 0 .404-.328l2.431-6.822a.5.5 0 0 1 .639-.303m-.168.471-2.43 6.822a1 1 0 0 1-.689.632l-.121.024-7.853 1.05 5.903 3.198a1 1 0 0 1 .506 1.066l-.029.115-2.196 6.948 6.089-4.683a1 1 0 0 1 .932-.154l.116.048 5.736 2.801-1.93-6.043a1 1 0 0 1 .228-.994l.09-.083 5.314-4.37-6.663.587a1 1 0 0 1-1-.59l-.042-.108z"/><path fill="#000" fill-rule="nonzero" d="m39.402 40.744-5.211 4.293a.5.5 0 0 1-.791-.548l2.074-6.075a.5.5 0 0 0-.21-.587L30 34.576a.5.5 0 0 1 .217-.923l6.62-.613a.5.5 0 0 0 .43-.348l2.014-6.408a.5.5 0 0 1 .936-.05l2.35 5.402a.5.5 0 0 0 .48.3l5.28-.237a.5.5 0 0 1 .357.872l-4.081 3.668a.5.5 0 0 0-.161.442l.922 6.492a.5.5 0 0 1-.765.492l-4.61-2.956a.5.5 0 0 0-.587.035"/><path fill="url(#p)" d="m9.639 14.81-5.211 4.293a.5.5 0 0 1-.791-.548L5.71 12.48a.5.5 0 0 0-.21-.587L.237 8.642a.5.5 0 0 1 .217-.923l6.62-.613a.5.5 0 0 0 .43-.348L9.518.35a.5.5 0 0 1 .936-.05l2.35 5.402a.5.5 0 0 0 .48.3l5.28-.237a.5.5 0 0 1 .357.872l-4.081 3.668a.5.5 0 0 0-.161.442l.922 6.492a.5.5 0 0 1-.765.492l-4.61-2.956a.5.5 0 0 0-.587.035" transform="translate(29.763 25.934)"/><path fill="#af0000" fill-rule="nonzero" d="m39.043 26.21-2.014 6.407a.25.25 0 0 1-.215.174l-6.62.613a.75.75 0 0 0-.325 1.385l5.263 3.25a.25.25 0 0 1 .106.294l-2.075 6.076a.75.75 0 0 0 1.187.82l5.21-4.292a.25.25 0 0 1 .294-.018l4.61 2.956a.75.75 0 0 0 1.147-.737l-.921-6.492a.25.25 0 0 1 .08-.22l4.08-3.67a.75.75 0 0 0-.534-1.306l-5.28.237a.25.25 0 0 1-.24-.15l-2.35-5.402a.75.75 0 0 0-1.403.074m.79-.014a.25.25 0 0 1 .155.138l2.35 5.402a.75.75 0 0 0 .72.45l5.28-.237a.25.25 0 0 1 .178.436l-4.08 3.668a.75.75 0 0 0-.241.664l.921 6.492a.25.25 0 0 1-.382.245l-4.61-2.956a.75.75 0 0 0-.881.053l-5.21 4.293a.25.25 0 0 1-.396-.274l2.074-6.076a.75.75 0 0 0-.316-.88l-5.263-3.25a.25.25 0 0 1 .108-.462l6.62-.613a.75.75 0 0 0 .646-.522l2.014-6.408a.25.25 0 0 1 .257-.174z"/><path fill="#f4ec54" fill-rule="nonzero" d="M39.908 25.957a.5.5 0 0 1 .309.278l2.35 5.401a.5.5 0 0 0 .48.3l5.28-.237a.5.5 0 0 1 .357.872l-4.081 3.668a.5.5 0 0 0-.16.443l.921 6.492a.5.5 0 0 1-.765.49l-4.61-2.955a.5.5 0 0 0-.587.035l-5.211 4.293a.5.5 0 0 1-.791-.548l2.074-6.075a.5.5 0 0 0-.21-.587L30 34.576a.5.5 0 0 1 .217-.923l6.62-.613a.5.5 0 0 0 .43-.348l2.014-6.408a.5.5 0 0 1 .627-.327m-.15.477-2.014 6.408a1 1 0 0 1-.743.678l-.118.018-6.62.613 5.263 3.25a1 1 0 0 1 .452 1.063l-.03.111-2.075 6.076 5.21-4.293a1 1 0 0 1 1.064-.132l.112.062 4.61 2.956-.922-6.492a1 1 0 0 1 .235-.796l.087-.088 4.08-3.67-5.28.238a1 1 0 0 1-.905-.49l-.056-.11z"/><path fill="#000" fill-rule="nonzero" d="m61.504 37.539-4.018 3.918a.5.5 0 0 1-.826-.508l1.754-5.59a.5.5 0 0 0-.215-.574l-4.482-2.766a.5.5 0 0 1 .226-.925l5.515-.406a.5.5 0 0 0 .448-.376l1.45-5.742a.5.5 0 0 1 .966-.011l1.417 5.122a.5.5 0 0 0 .545.363l4.676-.596a.5.5 0 0 1 .397.869l-4.135 3.694a.5.5 0 0 0-.144.521l1.686 5.435a.5.5 0 0 1-.787.541l-3.815-3.004a.5.5 0 0 0-.658.035"/><path fill="url(#q)" d="m8.024 13.347-4.018 3.918a.5.5 0 0 1-.826-.508l1.754-5.59a.5.5 0 0 0-.215-.574L.237 7.827a.5.5 0 0 1 .226-.925l5.515-.406a.5.5 0 0 0 .448-.376L7.876.378a.5.5 0 0 1 .966-.011l1.417 5.122a.5.5 0 0 0 .545.363l4.676-.596a.5.5 0 0 1 .397.869l-4.135 3.694a.5.5 0 0 0-.144.521l1.686 5.435a.5.5 0 0 1-.787.541l-3.815-3.004a.5.5 0 0 0-.658.035" transform="translate(53.48 24.192)"/><path fill="#af0000" fill-rule="nonzero" d="m61.113 24.509-1.449 5.742a.25.25 0 0 1-.224.188l-5.514.406a.75.75 0 0 0-.34 1.387l4.483 2.766a.25.25 0 0 1 .107.287l-1.754 5.59a.75.75 0 0 0 1.24.76l4.017-3.917a.25.25 0 0 1 .33-.017l3.814 3.004a.75.75 0 0 0 1.18-.812l-1.686-5.435a.25.25 0 0 1 .072-.26l4.135-3.694a.75.75 0 0 0-.595-1.304l-4.676.596a.25.25 0 0 1-.273-.18l-1.417-5.123a.75.75 0 0 0-1.45.016m.789-.059a.25.25 0 0 1 .18.176l1.416 5.122c.1.36.448.592.818.544l4.677-.596a.25.25 0 0 1 .198.435l-4.135 3.694a.75.75 0 0 0-.216.781l1.686 5.435a.25.25 0 0 1-.393.271l-3.815-3.004a.75.75 0 0 0-.988.052l-4.018 3.918a.25.25 0 0 1-.413-.254l1.754-5.589a.75.75 0 0 0-.322-.863l-4.482-2.766a.25.25 0 0 1 .113-.462l5.515-.406a.75.75 0 0 0 .672-.565l1.45-5.742a.25.25 0 0 1 .303-.181"/><path fill="#f4ec54" fill-rule="nonzero" d="M61.963 24.208a.5.5 0 0 1 .36.351l1.416 5.123a.5.5 0 0 0 .545.362l4.677-.596a.5.5 0 0 1 .396.87l-4.134 3.693a.5.5 0 0 0-.145.521l1.687 5.435a.5.5 0 0 1-.787.541l-3.815-3.004a.5.5 0 0 0-.658.035l-4.018 3.918a.5.5 0 0 1-.826-.508l1.753-5.589a.5.5 0 0 0-.214-.575l-4.482-2.766a.5.5 0 0 1 .226-.924l5.515-.406a.5.5 0 0 0 .448-.377l1.449-5.742a.5.5 0 0 1 .607-.362m-.122.484-1.45 5.743a1 1 0 0 1-.78.737l-.115.015-5.515.406 4.482 2.767a1 1 0 0 1 .458 1.03l-.03.12-1.753 5.589 4.017-3.918a1 1 0 0 1 1.215-.14l.102.07 3.815 3.005-1.686-5.436a1 1 0 0 1 .198-.95l.09-.092 4.135-3.694-4.676.596a1 1 0 0 1-1.054-.618l-.037-.107z"/><g fill-rule="nonzero" transform="translate(0 1)"><ellipse cx="11.364" cy="14.819" fill="url(#r)" rx="9" ry="8.5" transform="rotate(-20 11.364 14.819)"/><ellipse cx="8.878" cy="11.473" fill="url(#s)" rx="5" ry="4" transform="rotate(-23 8.878 11.473)"/><use xlink:href="#v" transform="rotate(44 16.498 8.337)"/><ellipse cx="17.717" cy="7.055" fill="#d8d8d8" stroke="#000" stroke-width=".5" rx="1" ry="1.75" transform="rotate(-39 17.717 7.055)"/><use xlink:href="#w"/><rect width="1" height="4" x="20.018" y=".062" fill="#ff6300" rx=".5" transform="rotate(14 20.518 2.062)"/><rect width="1" height="4" x="22.683" y="2.045" fill="#ff6300" rx=".5" transform="rotate(61 23.183 4.045)"/><rect width="1" height="4" x="22.744" y="5.013" fill="#ff6300" rx=".5" transform="rotate(105 23.244 7.013)"/></g><g transform="translate(0 1)"><g transform="rotate(-20 28.1 4.955)"><ellipse cx="9" cy="8.5" fill="#000" fill-rule="nonzero" rx="9" ry="8.5"/><ellipse cx="9" cy="8.5" fill="url(#r)" rx="9" ry="8.5"/></g><ellipse cx="8.878" cy="11.473" fill="url(#s)" fill-rule="nonzero" rx="5" ry="4" transform="rotate(-23 8.878 11.473)"/><use xlink:href="#v" fill-rule="nonzero" transform="rotate(44 16.498 8.337)"/><ellipse cx="17.717" cy="7.055" fill="#d8d8d8" fill-rule="nonzero" rx="1" ry="2" transform="rotate(-39 17.717 7.055)"/><path fill="#000" fill-rule="nonzero" d="M16.458 5.501c.43-.347 1.34.067 2.036.925.695.859.91 1.836.481 2.184-.429.347-1.34-.067-2.035-.925s-.911-1.836-.482-2.184m.315.389c-.035.028-.06.163-.007.404.072.327.27.716.562 1.076s.631.636.936.774c.225.102.362.105.397.077s.06-.163.007-.404c-.072-.327-.27-.716-.563-1.076-.291-.36-.63-.636-.936-.774-.224-.102-.361-.105-.396-.077"/><use xlink:href="#w" fill-rule="nonzero"/><g transform="rotate(14 10.258 83.546)"><rect width="1" height="4" fill="#000" fill-rule="nonzero" rx=".5"/><rect width="1" height="4" fill="#ff6300" rx=".5"/></g><g transform="rotate(61 10.105 22.277)"><rect width="1" height="4" fill="#000" fill-rule="nonzero" rx=".5"/><rect width="1" height="4" fill="#ff6300" rx=".5"/></g><g transform="rotate(105 9.949 13.233)"><rect width="1" height="4" fill="#000" fill-rule="nonzero" rx=".5"/><rect width="1" height="4" fill="#ff6300" rx=".5"/></g></g><g transform="translate(28.729)"><path fill="#000" fill-rule="nonzero" d="M10.6 21.216c4.177-1.589 6.4-6.217 4.963-10.339C14.128 6.755 9.577 4.702 5.4 6.29S-1 12.507.437 16.63c1.435 4.122 5.986 6.175 10.163 4.587"/><path fill="url(#x)" d="M10.6 15.463c4.177-1.589 6.4-6.217 4.963-10.339C14.128 1.002 9.577-1.051 5.4.537S-1 6.754.437 10.876c1.435 4.122 5.986 6.175 10.163 4.587" transform="translate(0 5.753)"/><path fill="url(#y)" fill-rule="nonzero" d="M7.24 13.103c2.091-.905 3.21-3.024 2.5-4.73-.71-1.708-2.98-2.358-5.072-1.452-2.09.906-3.21 3.024-2.5 4.731.71 1.708 2.98 2.357 5.072 1.451"/><path fill="url(#z)" fill-rule="nonzero" d="m10.776 6.334 3.96.362.018 1.638a1.98 1.98 0 0 1-1.956 2h-.022a2 2 0 0 1-2-2z" transform="rotate(44 12.765 8.334)"/><ellipse cx="13.988" cy="7.055" fill="#d8d8d8" fill-rule="nonzero" rx="1" ry="2" transform="rotate(-39 13.988 7.055)"/><path fill="#000" fill-rule="nonzero" d="M12.73 5.501c.429-.347 1.34.067 2.035.925s.91 1.836.482 2.184c-.43.347-1.341-.067-2.036-.925s-.91-1.836-.482-2.184m.314.389c-.035.028-.06.163-.007.404.072.326.27.716.562 1.076s.632.636.936.774c.225.102.362.105.397.077s.06-.163.007-.404c-.072-.327-.27-.716-.562-1.076s-.632-.636-.936-.774c-.225-.103-.362-.105-.397-.077"/><path fill="url(#b)" fill-rule="nonzero" d="M17.011 5.037v.743c-1.012 0-1.904.397-2.696 1.213a.253.253 0 0 1-.354.017l-.562-.5c.954-1.073 2.08-1.655 3.355-1.723a.25.25 0 0 1 .257.25"/><g transform="rotate(14 8.394 68.362)"><rect width="1" height="4" fill="#000" fill-rule="nonzero" rx=".5"/><rect width="1" height="4" fill="#ff6300" rx=".5"/></g><g transform="rotate(61 8.241 19.112)"><rect width="1" height="4" fill="#000" fill-rule="nonzero" rx=".5"/><rect width="1" height="4" fill="#ff6300" rx=".5"/></g><g transform="rotate(105 8.084 11.802)"><rect width="1" height="4" fill="#000" fill-rule="nonzero" rx=".5"/><rect width="1" height="4" fill="#ff6300" rx=".5"/></g></g><g fill-rule="nonzero" transform="translate(2.683 51.67)"><path fill="#d8d8d8" d="m1 7.5 12.006-6.311 6.997 5.653v9.482L8 23.566l-7-6.293z"/><path fill="url(#A)" d="m1 7.434 12.006-6.245 6.997 5.653-11.958 6.54z"/><path fill="#dfe4d4" d="M8 13.339v10.227l12.003-7.242V6.842z"/><path fill="url(#B)" d="M8.008 13.339 8 23.566l-7-6.293V7.434z"/><ellipse cx="5" cy="15.342" fill="url(#C)" rx="1" ry="1.5"/><ellipse cx="11.718" cy="4.217" fill="url(#D)" rx="1.5" ry="1" transform="rotate(-16 11.718 4.217)"/><ellipse cx="10.718" cy="7.217" fill="url(#D)" rx="1.5" ry="1" transform="rotate(-16 10.718 7.217)"/><ellipse cx="9.718" cy="10.217" fill="url(#D)" rx="1.5" ry="1" transform="rotate(-16 9.718 10.217)"/><ellipse cx="16.739" cy="10.63" fill="url(#D)" rx="1.5" ry="1" transform="rotate(-49 16.739 10.63)"/><ellipse cx="11.5" cy="13.842" fill="url(#D)" rx="1.5" ry="1" transform="rotate(-49 11.5 13.842)"/><ellipse cx="14.5" cy="14.842" fill="url(#D)" rx="1.5" ry="1" transform="rotate(-49 14.5 14.842)"/><ellipse cx="11.5" cy="18.842" fill="url(#D)" rx="1.5" ry="1" transform="rotate(-49 11.5 18.842)"/><ellipse cx="17.5" cy="15.842" fill="url(#D)" rx="1.5" ry="1" transform="rotate(-49 17.5 15.842)"/><path fill="#000" d="M21.003 6.364 13.125 0 0 6.827v10.892l7.882 7.086 13.12-7.917zM13.006 1.19l6.997 5.653v9.482L8 23.566l-7-6.293V7.434z"/></g><path fill="url(#E)" fill-rule="nonzero" d="M1.204 16.975A277 277 0 0 0 5.206 11.9l8.758.497v5.531q-6.95.727-12.76-.954" transform="translate(28.729 49.512)"/><g transform="rotate(5 -659.183 394.587)"><ellipse cx="6.5" cy="1.5" fill="#000" fill-rule="nonzero" rx="6.5" ry="1.5"/><ellipse cx="6.5" cy="1.5" fill="url(#F)" rx="6.5" ry="1.5"/></g><path fill="#000" fill-rule="nonzero" d="m30.956 57.345 4.782-.263 10.556 1.125a.5.5 0 0 1 .445.54l-.187 2.137a.5.5 0 0 1-.39.445q-1.344.3-1.433.223c-1.643-1.453-12.433-2.224-12.85-1.04q-.03.082-1.064-.522a.5.5 0 0 1-.247-.407l-.084-1.715a.5.5 0 0 1 .472-.523"/><path fill="url(#G)" d="M.43.678 5.17 0l10.614.2a.5.5 0 0 1 .49.5v2.145a.5.5 0 0 1-.349.477q-1.314.417-1.409.347c-1.763-1.304-12.579-1.132-12.892.084q-.021.084-1.104-.427a.5.5 0 0 1-.282-.384L.005 1.24A.5.5 0 0 1 .429.678" transform="rotate(5 -633.244 378.601)"/><path fill="#000" fill-rule="nonzero" d="M41.13 57.047c3.067 0 5.553 1.048 5.553-2.019s-2.486-5.516-5.553-5.516-5.676 3.02-5.676 6.087 2.61 1.448 5.676 1.448"/><path fill="#d8d8d8" fill-rule="nonzero" d="m36.318 52.727-.721 1.784 2.053-.045.603-1.635zm2.35.104-.701 1.893 2.583.238.547-1.709z"/><path fill="#ace2ff" fill-rule="nonzero" d="m41.548 53.122-.709 2.135 2.098.072.782-1.982z"/><path fill="#d8d8d8" fill-rule="nonzero" d="m43.994 53.527-.908 2.341 2.579.415.393-2.247z"/><path fill="#98d8ff" fill-rule="nonzero" d="m38.668 52.831-.701 1.893 2.583.238.547-1.709z"/><path fill="#000" fill-rule="nonzero" d="M28.729 57.512a91 91 0 0 1 3.012-2.332c1.09-.705 1.754-.944 4.36-.896 3.94.073 7.248.87 10.555 1.705 6.038 1.523 4.032 4.79 1.763 3.98q-8.286-2.957-19.69-2.457"/><path fill="url(#H)" d="M0 3.234A91 91 0 0 1 3.012.902c1.09-.705 1.754-.944 4.36-.896 3.94.073 7.248.87 10.555 1.705 6.038 1.523 4.032 4.79 1.763 3.98Q11.404 2.734 0 3.234" transform="translate(28.729 54.278)"/><path fill="#000" fill-rule="nonzero" d="M41.184 49.512a5.5 5.5 0 0 1 5.473 4.954q-3.713-1.327-10.555-1.558a5.5 5.5 0 0 1 5.082-3.396"/><path fill="url(#I)" d="M5.082 0a5.5 5.5 0 0 1 5.473 4.954Q6.842 3.627 0 3.396A5.5 5.5 0 0 1 5.082 0" transform="translate(36.102 49.512)"/><g fill-rule="nonzero" transform="translate(46.678 44.137)"><path fill="#d8d8d8" d="M1.415 7.853 1 24.587l10.031 11.864 18.996-7.833V12.489L19.01 1.157z"/><path fill="#dfe4d4" d="M11.005 19.587v16.864l19.022-7.833v-16.13z"/><path fill="url(#J)" d="M11.005 19.587 1 7.375v17.441l10.005 11.635z"/><path fill="url(#K)" d="m11.031 19.587 18.996-7.099L19.01 1.157 1 7.375z"/><ellipse cx="25.21" cy="18.326" fill="url(#L)" rx="2" ry="1.5" transform="rotate(-49 25.21 18.326)"/><ellipse cx="17.031" cy="5.419" fill="url(#M)" rx="2.5" ry="1.5" transform="rotate(-1 17.03 5.419)"/><ellipse cx="15.031" cy="9.919" fill="url(#M)" rx="2.5" ry="1.5" transform="rotate(-1 15.03 9.919)"/><ellipse cx="13.031" cy="14.419" fill="url(#M)" rx="2.5" ry="1.5" transform="rotate(-1 13.03 14.419)"/><ellipse cx="6.098" cy="21.768" fill="url(#L)" rx="2" ry="1.5" transform="rotate(70 6.098 21.768)"/><ellipse cx="25.449" cy="26.869" fill="url(#L)" rx="2" ry="1.5" transform="rotate(-49 25.449 26.869)"/><ellipse cx="20.949" cy="24.369" fill="url(#L)" rx="2" ry="1.5" transform="rotate(-49 20.949 24.369)"/><ellipse cx="16.449" cy="21.869" fill="url(#L)" rx="2" ry="1.5" transform="rotate(-49 16.449 21.869)"/><ellipse cx="16.449" cy="29.869" fill="url(#L)" rx="2" ry="1.5" transform="rotate(-49 16.449 29.869)"/><path fill="#000" d="M31.027 12.082 19.28 0 0 6.827v18.126l10.738 12.7 20.289-8.365zM19.01 1.157l11.017 11.331v16.13L11.03 36.451 1 24.587V7.534z"/></g><g transform="translate(53.244 1.446)"><path fill="#000" fill-rule="nonzero" d="m10.635 3.677-10.6 6.468q-.242 1.58 1.198.58t10.335-5.657l.973.323-5.164 12.706q-.04.855 1.223-1.434 1.264-2.29 6.163-11.595l-2.935-1.642z"/><path fill="url(#N)" d="M10.635.251.035 6.72q-.242 1.58 1.198.58t10.335-5.657l.973.323-5.164 12.706q-.04.855 1.223-1.434 1.264-2.29 6.163-11.595L11.828 0z" transform="translate(0 3.426)"/><g transform="translate(10.439 .067)"><circle cx="3.5" cy="3.5" r="3.5" fill="#000" fill-rule="nonzero"/><circle cx="3.5" cy="3.5" r="3.5" fill="#8cf300"/></g><path fill="#7f7f7f" fill-rule="nonzero" d="M13.939.067a3.5 3.5 0 1 1 0 7 3.5 3.5 0 0 1 0-7m0 1a2.5 2.5 0 1 0 0 5 2.5 2.5 0 0 0 0-5"/><rect width="1" height="4" x="14.744" y="-.214" fill="#000" fill-rule="nonzero" rx=".5" transform="rotate(44 15.244 1.786)"/><rect width="1" height="4" x="13.78" y=".932" fill="#000" fill-rule="nonzero" rx=".5" transform="rotate(137 14.28 2.932)"/></g></g></svg>