<svg xmlns="http://www.w3.org/2000/svg" xmlns:xlink="http://www.w3.org/1999/xlink" viewBox="0 0 96 96"><defs><linearGradient id="b" x1="50%" x2="50%" y1="0%" y2="100%"><stop offset="0%" stop-color="#d6a100"/><stop offset="100%" stop-color="#cffa09"/></linearGradient><filter id="a" width="128.2%" height="128.2%" x="-14.1%" y="-14.1%" filterUnits="objectBoundingBox"><feOffset dy="2" in="SourceAlpha" result="shadowOffsetOuter1"/><feGaussianBlur in="shadowOffsetOuter1" result="shadowBlurOuter1" stdDeviation="2"/><feColorMatrix in="shadowBlurOuter1" result="shadowMatrixOuter1" values="0 0 0 0 0 0 0 0 0 0 0 0 0 0 0 0 0 0 0.2 0"/><feMerge><feMergeNode in="shadowMatrixOuter1"/><feMergeNode in="SourceGraphic"/></feMerge></filter></defs><g fill="none" fill-rule="evenodd" filter="url(#a)" transform="translate(5 4.281)"><path fill="url(#b)" fill-rule="nonzero" d="m46.556 1.105 34.5 20.294A8 8 0 0 1 85 28.294v27.849a8 8 0 0 1-3.944 6.895l-34.5 20.295a8 8 0 0 1-8.112 0l-34.5-20.295A8 8 0 0 1 0 56.143V28.294A8 8 0 0 1 3.944 21.4l34.5-20.294a8 8 0 0 1 8.112 0m-5.398 4.212-.18.097-34.5 20.294a3 3 0 0 0-1.471 2.388L5 28.294v23.424l18.48-23.1a2 2 0 0 1 3.09-.04l30.756 36.421L46 48.719l7.658-9.36a2 2 0 0 1 2.814-.281l.045.037 21.587 19.858.417-.244a3 3 0 0 0 1.472-2.388l.007-.198V28.294a3 3 0 0 0-1.311-2.48l-.168-.106-34.5-20.294a3 3 0 0 0-2.863-.097"/><circle cx="48.5" cy="23.219" r="4.5" fill="#fbab20"/></g></svg>