<svg xmlns="http://www.w3.org/2000/svg" viewBox="0 0 64 64"><path d="M4 56.2v2C4 59.75 5.25 61 6.8 61h50.4c1.55 0 2.8-1.25 2.8-2.8v-2c0 1.55-1.25 2.8-2.8 2.8H6.8C5.25 59 4 57.75 4 56.2" opacity=".2"/><rect width="56" height="56" x="4" y="4" fill="#ff4646" rx="2.8" ry="2.8"/><path d="M35.001 53h13l-18-18-7 5zm0-40h13l-25 27-7-7Z" opacity=".2"/><path fill="#ffabab" d="M35.001 52h13L30 34l-7 5z"/><path fill="#fff" d="M35.001 12h13L23.003 39 16 32Z"/><path fill="#fff" d="M6.8 4C5.25 4 4 5.25 4 6.8v1.003a2.796 2.796 0 0 1 2.8-2.801h50.4c1.55 0 2.8 1.25 2.8 2.8v-1A2.796 2.796 0 0 0 57.2 4z" opacity=".2"/></svg>