<svg xmlns="http://www.w3.org/2000/svg" xmlns:xlink="http://www.w3.org/1999/xlink" viewBox="0 0 96 96"><defs><linearGradient id="b" x1="50%" x2="50%" y1="0%" y2="98.828%"><stop offset="0%" stop-color="#ff5709"/><stop offset="100%" stop-color="#e70e44"/></linearGradient><linearGradient id="c" x1="50%" x2="50%" y1="3.641%" y2="107.518%"><stop offset="0%" stop-color="#00d5ff"/><stop offset="100%" stop-color="#002499"/></linearGradient><linearGradient id="d" x1="50%" x2="50%" y1="0%" y2="100%"><stop offset="0%" stop-color="#fff200"/><stop offset="100%" stop-color="#fee100"/></linearGradient><filter id="a" width="127.9%" height="131.2%" x="-14%" y="-15.6%" filterUnits="objectBoundingBox"><feOffset dy="2" in="SourceAlpha" result="shadowOffsetOuter1"/><feGaussianBlur in="shadowOffsetOuter1" result="shadowBlurOuter1" stdDeviation="2"/><feColorMatrix in="shadowBlurOuter1" result="shadowMatrixOuter1" values="0 0 0 0 0 0 0 0 0 0 0 0 0 0 0 0 0 0 0.2 0"/><feMerge><feMergeNode in="shadowMatrixOuter1"/><feMergeNode in="SourceGraphic"/></feMerge></filter></defs><g fill="none" fill-rule="evenodd" filter="url(#a)" transform="translate(5 9.5)"><path fill="url(#b)" d="M1.868 43.296h8.219a1 1 0 0 1 .959.716l1.23 4.159a1 1 0 0 0 1.773.297l15.275-21.401a1 1 0 0 1 1.744.213l5.03 12.696a1 1 0 0 0 1.62.355l22.079-21.107a1 1 0 0 0-.007-1.453l-3.451-3.234a1 1 0 0 1 .35-1.672Q67.112 9.18 73.186 6.519A107 107 0 0 0 84.778.572a.3.3 0 0 1 .418.398q-2.145 4.037-5.513 12.44-3.45 8.615-5.99 16.34a1 1 0 0 1-1.663.39l-3.797-3.854a1 1 0 0 0-1.415-.01l-31.26 30.906a1 1 0 0 1-1.572-.214l-5.802-10.123a1 1 0 0 0-1.665-.105L8.235 70.934a1 1 0 0 1-1.776-.393L.89 44.505a1 1 0 0 1 .978-1.21"/><path fill="url(#c)" d="M66.202 42.757q.008.35.008.7c0 18.301-14.837 33.137-33.138 33.137a33 33 0 0 1-19.966-6.688l6.683-8.83a21.97 21.97 0 0 0 13.283 4.445c8.626 0 16.095-4.95 19.724-12.163h-6.95a1 1 0 0 1-.694-1.721l9.215-8.88z"/><path fill="url(#d)" d="M33.072 10.32c8.979 0 17.124 3.57 23.092 9.37l-7.971 7.698a22 22 0 0 0-15.12-5.996c-11.478 0-20.91 8.764-21.967 19.965H0c1.083-17.323 15.476-31.038 33.072-31.038"/></g></svg>