<svg xmlns="http://www.w3.org/2000/svg" viewBox="0 0 64 64"><rect width="56" height="56" x="4" y="4" fill="#1e88e5" rx="2.8" ry="2.8"/><path fill="#fff" d="M6.8 4C5.25 4 4 5.25 4 6.8v1C4 6.25 5.25 5 6.8 5h50.4C58.75 5 60 6.25 60 7.8v-1C60 5.25 58.75 4 57.2 4z" opacity=".1"/><path d="M4 57.2v1C4 59.75 5.25 61 6.8 61h50.4c1.55 0 2.8-1.25 2.8-2.8v-1c0 1.55-1.25 2.8-2.8 2.8H6.8C5.25 60 4 58.75 4 57.2" opacity=".2"/><rect width="12" height="12" x="10" y="11" opacity=".2" rx="1.5" ry="1.5"/><rect width="12" height="12" x="26" y="11" opacity=".2" rx="1.5" ry="1.5"/><rect width="12" height="12" x="10" y="27" opacity=".2" rx="1.5" ry="1.5"/><rect width="12" height="12" x="26" y="27" opacity=".2" rx="1.5" ry="1.5"/><rect width="12" height="12" x="10" y="43" opacity=".2" rx="1.5" ry="1.5"/><g fill="#fff"><rect width="12" height="12" x="10" y="10" rx="1.5" ry="1.5"/><rect width="12" height="12" x="26" y="10" rx="1.5" ry="1.5"/><rect width="12" height="12" x="10" y="26" rx="1.5" ry="1.5"/><rect width="12" height="12" x="26" y="26" rx="1.5" ry="1.5"/><rect width="12" height="12" x="10" y="42" rx="1.5" ry="1.5"/></g></svg>