<svg xmlns="http://www.w3.org/2000/svg" viewBox="0 0 64 64"><path d="M4.055 32.006c-.012.335-.051.662-.051 1A27.933 27.933 0 0 0 31.998 61a27.933 27.933 0 0 0 27.994-27.994c0-.338-.039-.665-.05-1C59.414 47.045 47.168 59 31.997 59S4.581 47.045 4.053 32.006z" opacity=".2"/><rect width="56" height="56" x="-60" y="-59.99" fill="#9158cf" rx="27.994" ry="27.994" transform="rotate(90)scale(-1 1)"/><path d="M51.776 12.23 12.222 51.78a27.91 27.91 0 0 0 39.554 0 27.91 27.91 0 0 0 0-39.554z" opacity=".1"/><path fill="#f2f2f2" d="m12.223 51.782 17.304-22.25 2.342 2.342 2.603 2.603z"/><path fill="#f34235" d="m51.776 12.23-22.25 17.304 4.945 4.944Z"/><path fill="#fff" d="M51.776 12.23 12.222 51.78a27.91 27.91 0 0 1 0-39.554 27.91 27.91 0 0 1 39.554 0z" opacity=".2"/><path fill="#fff" d="M32 4.012A27.933 27.933 0 0 0 4.006 32.006c0 .147-.012.293 0 .437C4.305 17.198 16.68 5.011 32 5.011s27.695 12.187 27.995 27.432c.012-.144 0-.29 0-.437A27.933 27.933 0 0 0 32 4.012" opacity=".2"/></svg>