<svg xmlns="http://www.w3.org/2000/svg" viewBox="0 0 64 64"><path d="M56.782 10H7.218C4.888 10 3 11.919 3 14.286v36.428C3 53.081 4.889 55 7.218 55h49.564C59.112 55 61 53.081 61 50.714V14.286C61 11.919 59.111 10 56.782 10" opacity=".2"/><path fill="#757575" d="M56.782 9H7.218C4.888 9 3 10.919 3 13.286v36.428C3 52.081 4.889 54 7.218 54h49.564C59.112 54 61 52.081 61 49.714V13.286C61 10.919 59.111 9 56.782 9"/><path fill="#4c4854" d="M7 13h50v37H7Z"/><path fill="none" stroke="#616161" d="M52.5 13v37m-6-37v37m-6-37v37m-12-37v37m-6-37v37m-6-37v37m-6-37v37"/><path fill="none" stroke="#1fb9aa" stroke-linecap="round" stroke-linejoin="round" stroke-width="2" d="m6 35 4-2h4l3-7 4 13 4-5 3 6 4-11 4-2 3 6 4-10 3 7 4-1 3-5h5"/><path fill="none" stroke="#fff" d="M34.5 13v37"/><path d="M34.5 26a2.5 2.5 0 1 1 0 5 2.5 2.5 0 0 1 0-5m0 0" opacity=".2"/><path fill="#15fd91" d="M34.5 25a2.5 2.5 0 1 1 0 5 2.5 2.5 0 0 1 0-5m0 0"/><path d="M7 13h50v1H7z" opacity=".2"/><path fill="#fff" d="M7.219 9C4.889 9 3 10.918 3 13.285v1C3 11.918 4.89 10 7.219 10H56.78c2.331 0 4.22 1.918 4.22 4.285v-1C61 10.918 59.11 9 56.781 9z" opacity=".1"/></svg>