<svg xmlns="http://www.w3.org/2000/svg" xmlns:xlink="http://www.w3.org/1999/xlink" viewBox="0 0 96 96"><defs><linearGradient id="b" x1="50%" x2="50%" y1="0%" y2="100%"><stop offset="0%" stop-color="#e576e9"/><stop offset="100%" stop-color="#a65dc6"/></linearGradient><filter id="a" width="128.6%" height="136.4%" x="-14.3%" y="-18.2%" filterUnits="objectBoundingBox"><feOffset dy="2" in="SourceAlpha" result="shadowOffsetOuter1"/><feGaussianBlur in="shadowOffsetOuter1" result="shadowBlurOuter1" stdDeviation="2"/><feColorMatrix in="shadowBlurOuter1" result="shadowMatrixOuter1" values="0 0 0 0 0 0 0 0 0 0 0 0 0 0 0 0 0 0 0.2 0"/><feMerge><feMergeNode in="shadowMatrixOuter1"/><feMergeNode in="SourceGraphic"/></feMerge></filter></defs><g fill="none" filter="url(#a)" transform="translate(6 15)"><path fill="#efefef" d="M0 2v62a2 2 0 0 0 2 2h80a2 2 0 0 0 2-2V2a2 2 0 0 0-2-2H2a2 2 0 0 0-2 2m10 62H4v-6h6zm0-56H4V2h6zm10 56h-6v-6h6zm0-56h-6V2h6zm10 56h-6v-6h6zm0-56h-6V2h6zm10 56h-6v-6h6zm0-56h-6V2h6zm10 56h-6v-6h6zm0-56h-6V2h6zm10 56h-6v-6h6zm0-56h-6V2h6zm10 56h-6v-6h6zm0-56h-6V2h6zm10 56h-6v-6h6zm0-56h-6V2h6z"/><path fill="url(#b)" d="M0 10h84v46H0z"/><circle cx="26.002" cy="31.992" r="18" fill="#efefef"/><circle cx="26.002" cy="31.992" r="14" fill="#b7b7b7"/><path fill="#683b94" d="M30.002 37.992h-8c-3.3 0-6-2.7-6-6s2.7-6 6-6h8c3.3 0 6 2.7 6 6s-2.7 6-6 6"/></g></svg>