<svg xmlns="http://www.w3.org/2000/svg" xmlns:xlink="http://www.w3.org/1999/xlink" viewBox="0 0 96 96"><defs><linearGradient id="c" x1="50%" x2="50%" y1="2.185%" y2="100%"><stop offset="0%" stop-color="#fff"/><stop offset="100%" stop-color="#fff"/></linearGradient><linearGradient id="e" x1="50%" x2="50%" y1="0%" y2="100%"><stop offset="0%" stop-color="#4ae2fe"/><stop offset="100%" stop-color="#0070fe"/></linearGradient><linearGradient id="f" x1="60.206%" x2="58.681%" y1="-8.203%" y2="100%"><stop offset="0%" stop-color="#4ae2fe"/><stop offset="100%" stop-color="#0070fe"/></linearGradient><filter id="a" width="130.8%" height="130.8%" x="-15.4%" y="-15.4%" filterUnits="objectBoundingBox"><feOffset dy="2" in="SourceAlpha" result="shadowOffsetOuter1"/><feGaussianBlur in="shadowOffsetOuter1" result="shadowBlurOuter1" stdDeviation="2"/><feColorMatrix in="shadowBlurOuter1" result="shadowMatrixOuter1" values="0 0 0 0 0 0 0 0 0 0 0 0 0 0 0 0 0 0 0.2 0"/><feMerge><feMergeNode in="shadowMatrixOuter1"/><feMergeNode in="SourceGraphic"/></feMerge></filter><rect id="b" width="78" height="78" x="0" y="0" rx="16"/></defs><g fill="none" fill-rule="evenodd" filter="url(#a)" transform="translate(9 9)"><mask id="d" fill="#fff"><use xlink:href="#b"/></mask><use xlink:href="#b" fill="url(#c)"/><g mask="url(#d)"><path fill="url(#e)" d="M69 34.5C69 53.554 53.554 69 34.5 69 18.704 69 5.387 58.384 1.295 43.898l12.317-3.265C16.185 52.284 26.575 61 39 61c14.36 0 26-11.64 26-26 0-2.676-.404-5.257-1.155-7.686l4.153-1.1A34.6 34.6 0 0 1 69 34.5M34.5 0c14.736 0 27.314 9.239 32.258 22.24l-4.454 1.218C58.052 14.889 49.214 9 39 9 24.64 9 13 20.64 13 35q0 .96.068 1.902L.491 40.335A35 35 0 0 1 0 34.5C0 15.446 15.446 0 34.5 0" transform="translate(5 5)"/><path fill="url(#f)" d="M34.222 26.85c1.117 0 2.023.906 2.023 2.023v5.667a2.024 2.024 0 1 1-4.047 0v-5.667c0-1.117.906-2.024 2.024-2.024" transform="rotate(-18 52.506 18.423)"/><path fill="url(#f)" d="M50.555 22.544c1.118 0 2.024.906 2.024 2.024v5.666a2.024 2.024 0 1 1-4.048 0v-5.666c0-1.118.907-2.024 2.024-2.024" transform="rotate(-16 70.843 12.112)"/></g></g></svg>