<svg xmlns="http://www.w3.org/2000/svg" viewBox="0 0 64 64"><rect width="19" height="16.8" x="23" y="44.2" opacity=".2" rx="1.357" ry="1.4"/><rect width="19" height="16.8" x="23" y="43.2" fill="#ccc" rx="1.357" ry="1.4"/><path fill="#929292" d="M25 53h6v4h-6zm9 0h6v4h-6z"/><path d="M28.273 5C22.028 5 17 10.018 17 16.25v30.938A2.81 2.81 0 0 0 19.818 50h25.364A2.81 2.81 0 0 0 48 47.188V16.25C48 10.018 42.972 5 36.727 5Z" opacity=".2"/><path fill="#1de9b6" d="M28.273 4C22.028 4 17 9.018 17 15.25v30.938A2.81 2.81 0 0 0 19.818 49h25.364A2.81 2.81 0 0 0 48 46.188V15.25C48 9.018 42.972 4 36.727 4Z"/><path fill="none" stroke="#07bd9f" stroke-linecap="round" stroke-linejoin="round" stroke-width="8" d="M38 15v24M27 15v24"/><path fill="#fff" d="M28.273 4C22.028 4 17 9.018 17 15.25v1C17 10.018 22.028 5 28.273 5h8.454C42.972 5 48 10.018 48 16.25v-1C48 9.018 42.972 4 36.727 4z" opacity=".2"/></svg>