<svg xmlns="http://www.w3.org/2000/svg" xmlns:xlink="http://www.w3.org/1999/xlink" viewBox="0 0 96 96"><defs><filter id="a" width="136.4%" height="140%" x="-18.2%" y="-20%" filterUnits="objectBoundingBox"><feOffset dy="2" in="SourceAlpha" result="shadowOffsetOuter1"/><feGaussianBlur in="shadowOffsetOuter1" result="shadowBlurOuter1" stdDeviation="2"/><feColorMatrix in="shadowBlurOuter1" result="shadowMatrixOuter1" values="0 0 0 0 0 0 0 0 0 0 0 0 0 0 0 0 0 0 0.2 0"/><feMerge><feMergeNode in="shadowMatrixOuter1"/><feMergeNode in="SourceGraphic"/></feMerge></filter></defs><g fill="none" filter="url(#a)" transform="translate(9 13)"><path fill="#344059" stroke="#b8dff1" stroke-linecap="round" stroke-linejoin="round" stroke-width="4" d="m9.963 55.263 9.603 14.708L57.169 70l9.332-15L37.86 33z"/><path fill="#344059" stroke="#b7dff1" stroke-linecap="round" stroke-linejoin="round" stroke-width="4" d="m0 5 5.978-5h63.764L77 5.033V47l-9.251 10-10.959-8H19.926L8.967 57 0 47z"/><path fill="#69768e" d="m14.889 19.56 1.663-4.734 10.281-8.453 17.597-1.46-2.85 3.39 3.957-.136-6.618 5.024-7.165-3.268-2.98 2.343 4.204.3-10.869 4.647-1.473-2.878zm58.568 10.593-4.432-2.325-13.265.855L41.901 39.66l4.387.53-2.986 2.61 8.254-.858 3.018-7.295 3.771-.323-2.869 3.096 11.106-4.043-.877-3.112zM3.129 40.213l3.91 3.13 13.182 1.7 15.693-8.12-4.206-1.361 3.427-1.99-8.264-.738-4.351 6.582-3.764-.403 3.405-2.49-11.67 1.84.27 3.224zM38.88 18.548l3.683-3.396 13.032-2.619 16.218 7.001-4.1 1.654 3.556 1.743-8.193 1.316-4.797-6.262-3.726.667 3.57 2.245-11.771-1.018.046-3.236zM21.132 62.465l3.108-3.933 12.463-4.633 17.111 4.37-3.793 2.274 3.785 1.165-7.887 2.587-5.714-5.432-3.578 1.243 3.876 1.657-11.784.842-.459-3.203zm15.201-38.769-3.04 3.988-12.38 4.85-17.184-4.069 3.752-2.342-3.804-1.097 7.841-2.725 5.807 5.331 3.556-1.306-3.905-1.588 11.768-1.049.514 3.195z"/><path fill="#b6e8ff" d="M44 4v29c-.34 1.283-.723 2.992-1 4l-3 7h-9l-4-6h-3c.047.186-3.804 5.264-4 6h-9l-3-7c-.614-1.004-1-2.722-1-4V4h7v30l3 6 4-6V4h9v30l4 6 3-6 1-30zm25 40H49v-5L61 9H50V4h18v5L57 39h12zM29 56c0 .692-.151 1.348 0 2-.703.592-1.137 1.328-2 2-.373 1.154-.997 2.067-2 3h4v2h-7v-2c.946-1.173 1.59-2.2 2-3 .34-.41.807-1.191 1-2 .674-.732.891-1.18 1-1 .075-.716.121-.993 0-1 .121-.883-.109-1.185-1-1 .168-.185-.01-.071 0 0-.193.385-.24.705 0 1v1h-3c0-.41.003-.633 0-1 .016-.067.04-.29 0-1 .21-.328.559-.944 1-1 .69-.789 1.432-1 2-1 .825 0 1.246.043 2 0-.018.214.324.354 1 1 .546.141 1 .98 1 2m6 9h-3v-8c-.155.07-.25-.235 0 0-.632-.596-.998-.686-2-1v-1c.701-.22 1.31-.46 2-1 .27-.087.706-.488 1-1h2zm10-4c0 .728-.006 1.16 0 1-.083.955-.314 1.515-1 2-.301.658-1.186 1-2 1-1.07 0-1.647-.076-2 0-.545-.378-.936-.644-1-1-.603-.406-.808-.79-1-1 .038-.563 0-1.115 0-2v-4c0-.644.042-1.258 0-2 .208-.188.385-.588 1-1-.077-.26.301-.524 1-1 .276.095.82 0 1 0 1.115 0 1.728.115 2 0 .792.574 1.192.89 1 1 .718.641.872 1.008 1 1-.026.782 0 1.356 0 2zm-3 1v-6c0-.341-.027-.602 0-1-.134.08-.268 0 0 0-.673 0-.807.077-1 0 .039.385 0 .606 0 1v6c.036.82.202 1 1 1-.274 0-.134-.082 0 0-.027-.412 0-.749 0-1m12-1c0 .728-.006 1.16 0 1-.083.955-.314 1.515-1 2-.301.658-1.186 1-2 1-1.07 0-1.647-.076-2 0-.545-.378-.936-.644-1-1-.603-.406-.808-.79-1-1 .038-.563 0-1.115 0-2v-4c0-.644.042-1.258 0-2 .208-.188.385-.588 1-1-.077-.26.301-.524 1-1 .276.095.82 0 1 0 1.115 0 1.728.115 2 0 .792.574 1.192.89 1 1 .718.641.872 1.008 1 1-.026.782 0 1.356 0 2zm-3 1v-6c0-.341-.027-.602 0-1-.134.08-.268 0 0 0-.673 0-.807.077-1 0 .039.385 0 .606 0 1v6c.036.82.202 1 1 1-.274 0-.134-.082 0 0-.027-.412 0-.749 0-1"/></g></svg>