<svg xmlns="http://www.w3.org/2000/svg" xmlns:xlink="http://www.w3.org/1999/xlink" viewBox="0 0 96 96"><defs><linearGradient id="b" x1="28.84%" x2="73.708%" y1="5.606%" y2="93.949%"><stop offset="0%" stop-color="#9ec9ce"/><stop offset="47.787%" stop-color="#e6bddf"/><stop offset="100%" stop-color="#99d6ca"/></linearGradient><linearGradient id="c" x1="50%" x2="50%" y1="0%" y2="100%"><stop offset="0%" stop-color="#5ac9ff"/><stop offset="100%" stop-color="#c2faff"/></linearGradient><linearGradient id="d" x1="50%" x2="50%" y1="0%" y2="100%"><stop offset="0%" stop-color="#0030b1"/><stop offset="100%" stop-color="#39b28d"/></linearGradient><linearGradient id="f" x1="50%" x2="50%" y1="0%" y2="128.12%"><stop offset="0%" stop-color="#5a5c94"/><stop offset="100%" stop-color="#ff7500"/></linearGradient><filter id="a" width="128.2%" height="129.3%" x="-14.1%" y="-14.6%" filterUnits="objectBoundingBox"><feOffset dy="2" in="SourceAlpha" result="shadowOffsetOuter1"/><feGaussianBlur in="shadowOffsetOuter1" result="shadowBlurOuter1" stdDeviation="2"/><feColorMatrix in="shadowBlurOuter1" result="shadowMatrixOuter1" values="0 0 0 0 0 0 0 0 0 0 0 0 0 0 0 0 0 0 0.2 0"/><feMerge><feMergeNode in="shadowMatrixOuter1"/><feMergeNode in="SourceGraphic"/></feMerge></filter><path id="e" fill="#000" d="M2 43.987h2l2 13 5 2 5-1 8 3 8-5 2 4v4H2z"/></defs><g fill="none" fill-rule="evenodd" filter="url(#a)" transform="translate(5 7)"><g fill-rule="nonzero"><path fill="url(#b)" d="M38.041 76.083C17.031 76.083 0 59.05 0 38.04S17.032 0 38.041 0c21.01 0 38.042 17.032 38.042 38.041 0 21.01-17.032 38.042-38.042 38.042m0-25.361c7.004 0 12.68-5.677 12.68-12.68S45.046 25.36 38.042 25.36s-12.68 5.677-12.68 12.68 5.677 12.68 12.68 12.68" transform="translate(2.106)"/><path fill="#fff" d="M76.377 38.041c0-20.009-16.22-36.23-36.23-36.23s-36.23 16.221-36.23 36.23c0 20.01 16.221 36.23 36.23 36.23 20.01 0 36.23-16.22 36.23-36.23m-36.23 18.115c10.005 0 18.115-8.11 18.115-18.115s-8.11-18.115-18.115-18.115-18.115 8.11-18.115 18.115 8.11 18.115 18.115 18.115" opacity=".397"/><path fill="#cbd4e6" d="M40.147 50.722c7.004 0 12.68-5.677 12.68-12.68S47.152 25.36 40.148 25.36s-12.68 5.677-12.68 12.68 5.677 12.68 12.68 12.68m0-7.246a5.434 5.434 0 1 0 0-10.87 5.434 5.434 0 0 0 0 10.87" opacity=".8"/><path fill="#b892b0" d="M40.147 56.156c10.005 0 18.115-8.11 18.115-18.115s-8.11-18.115-18.115-18.115-18.115 8.11-18.115 18.115 8.11 18.115 18.115 18.115m0-7.246c6.003 0 10.87-4.866 10.87-10.869 0-6.002-4.867-10.869-10.87-10.869s-10.869 4.867-10.869 10.87 4.867 10.868 10.87 10.868" opacity=".4"/><path fill="#fff" d="M22.036 6.694a38 38 0 0 0-8.6 6.772S35.919 34.238 35.978 34.34a12.8 12.8 0 0 1 3.157-1.8c-.046-.079-6.841-29.963-6.825-29.935a38 38 0 0 0-10.274 4.088M58.274 69.46a38 38 0 0 1-10.165 4.062s-6.83-29.964-6.825-29.954a12.8 12.8 0 0 0 3.125-1.818c.51-.402 22.558 20.884 22.542 20.856a38 38 0 0 1-8.677 6.854" opacity=".25"/></g><path fill="#fff" fill-rule="nonzero" d="m34.912 47.533 31.176-18 19 32.908-31.176 18z"/><path fill="url(#c)" fill-rule="nonzero" d="M42 38.523h32v26H42z" transform="rotate(-30 58 51.523)"/><path fill="#0e8800" fill-rule="nonzero" d="m50 52.987 12-7 16.356 8.794-27.713 16z"/><path fill="#fff" fill-rule="nonzero" d="M20 43.987h36v38H20z"/><path fill="url(#d)" fill-rule="nonzero" d="M22 45.987h32v26H22z"/><use xlink:href="#e" fill-rule="nonzero"/><use xlink:href="#e" fill-rule="nonzero"/><path fill="#000" fill-rule="nonzero" d="M48 52.987h-2l-2 11-4 1-4-3-4 7-8-5-2 4v4h32l-4-6z"/><path fill="#fff" fill-rule="nonzero" d="M0 35.987h36v38H0z"/><path fill="url(#f)" fill-rule="nonzero" d="M2 37.987h32v26H2z"/><path fill="#000" fill-rule="nonzero" d="m2 43.987 4 15 4-2 5 3 5-1 4 2 8-5 2 4v4H2z"/><path stroke="#000" stroke-opacity=".1" stroke-width="2" d="M20 74.987h17V43.949"/><path fill="#000" fill-opacity=".1" fill-rule="nonzero" d="M56 43.979v35.268l2-1.166V41.987H44.518l-3.461 1.992z"/></g></svg>