<svg xmlns="http://www.w3.org/2000/svg" viewBox="0 0 64 64"><rect width="56" height="56" x="4" y="5" opacity=".2" rx="16.8" ry="16.8"/><rect width="56" height="56" x="4" y="4" fill="#1e3d47" rx="16.8" ry="16.8"/><path d="M31 19a14 14 0 0 0-14 14 14 14 0 0 0 14 14 14 14 0 0 0 11.908-6.672L31.7 33.126l11.227-7.435A14 14 0 0 0 31 19" opacity=".2"/><path fill="#ffcc2c" d="M31 18a14 14 0 0 0-14 14 14 14 0 0 0 14 14 14 14 0 0 0 11.908-6.672L31.7 32.126l11.227-7.435A14 14 0 0 0 31 18"/><circle cx="45" cy="33" r="3" opacity=".2"/><circle cx="45" cy="32" r="3" fill="#f26522"/><path fill="#fff" d="M20.8 4C11.495 4 4 11.494 4 20.8v1C4 12.495 11.494 5 20.8 5h22.4C52.505 5 60 12.494 60 21.8v-1C60 11.495 52.506 4 43.2 4z" opacity=".1"/><path fill="#fff" d="M31 18a14 14 0 0 0-14 14 14 14 0 0 0 .021.414A14 14 0 0 1 31 19a14 14 0 0 1 11.457 6.002l.47-.31A14 14 0 0 0 31 18m1.465 14.617-.766.508 10.733 6.896a14 14 0 0 0 .476-.693zM45 29a3 3 0 0 0-3 3 3 3 0 0 0 .043.514A3 3 0 0 1 45 30a3 3 0 0 1 2.957 2.486A3 3 0 0 0 48 32a3 3 0 0 0-3-3" opacity=".2"/></svg>