<svg xmlns="http://www.w3.org/2000/svg" xmlns:xlink="http://www.w3.org/1999/xlink" viewBox="0 0 96 96"><defs><linearGradient id="b" x1="50%" x2="50%" y1="0%" y2="100%"><stop offset="0%" stop-color="#d0d0d0"/><stop offset="100%" stop-color="#6a6a6a"/></linearGradient><linearGradient id="c" x1="50%" x2="50%" y1="0%" y2="100%"><stop offset="0%" stop-color="#9d9d9d"/><stop offset="100%" stop-color="#595959"/></linearGradient><linearGradient id="d" x1="50%" x2="50%" y1="0%" y2="100%"><stop offset="0%" stop-color="#abeb31"/><stop offset="100%" stop-color="#73d216"/></linearGradient><linearGradient id="e" x1="50%" x2="50%" y1="0%" y2="100%"><stop offset="0%" stop-color="#31ebcf"/><stop offset="100%" stop-color="#1690d2"/></linearGradient><linearGradient id="f" x1="50%" x2="50%" y1="0%" y2="100%"><stop offset="0%" stop-color="#ff77cd"/><stop offset="100%" stop-color="#d21616"/></linearGradient><filter id="a" width="130.8%" height="130.8%" x="-15.4%" y="-15.4%" filterUnits="objectBoundingBox"><feOffset dy="2" in="SourceAlpha" result="shadowOffsetOuter1"/><feGaussianBlur in="shadowOffsetOuter1" result="shadowBlurOuter1" stdDeviation="2"/><feColorMatrix in="shadowBlurOuter1" result="shadowMatrixOuter1" values="0 0 0 0 0 0 0 0 0 0 0 0 0 0 0 0 0 0 0.2 0"/><feMerge><feMergeNode in="shadowMatrixOuter1"/><feMergeNode in="SourceGraphic"/></feMerge></filter></defs><g fill="none" fill-rule="evenodd"><g filter="url(#a)" transform="translate(9 9)"><rect width="78" height="78" fill="url(#b)" rx="18"/><path fill="url(#c)" fill-rule="nonzero" d="m42.399 0 .001 25.399H69V2.409q.51.295 1 .622V25.4h8v1h-8V53h8v1h-8l.001 20.968q-.49.327-1 .623L69 54H42.4v24h-1V53.999H15v23.752a18 18 0 0 1-1-.197V53.999H0v-1h14v-26.6H0v-1h14V.446q.495-.112 1-.197v25.15h26.4L41.399 0zM69 26.399H42.4V53H69zm-27.6 0H15v26.6h26.4z"/></g><circle cx="30.5" cy="41.5" r="6.5" fill="url(#d)"/><circle cx="57.5" cy="68.5" r="6.5" fill="url(#d)"/><circle cx="43.5" cy="41.5" r="6.5" fill="url(#e)"/><circle cx="30.5" cy="28.5" r="6.5" fill="url(#f)"/><circle cx="57.5" cy="55.5" r="6.5" fill="url(#f)"/><circle cx="57.5" cy="28.5" r="6.5" fill="url(#e)"/><circle cx="30.5" cy="54.5" r="6.5" fill="url(#e)"/><circle cx="17.5" cy="68.5" r="6.5" fill="url(#e)"/><circle cx="44.5" cy="68.5" r="6.5" fill="url(#e)"/><circle cx="17.5" cy="28.5" r="6.5" fill="url(#d)"/><path fill="#000" fill-opacity=".371" fill-rule="nonzero" d="M30.5 35a6.5 6.5 0 1 1 0 13 6.5 6.5 0 0 1 0-13m0 1a5.5 5.5 0 1 0 0 11 5.5 5.5 0 0 0 0-11m27 26a6.5 6.5 0 1 1 0 13 6.5 6.5 0 0 1 0-13m0 1a5.5 5.5 0 1 0 0 11 5.5 5.5 0 0 0 0-11m-14-28a6.5 6.5 0 1 1 0 13 6.5 6.5 0 0 1 0-13m0 1a5.5 5.5 0 1 0 0 11 5.5 5.5 0 0 0 0-11m-13-14a6.5 6.5 0 1 1 0 13 6.5 6.5 0 0 1 0-13m0 1a5.5 5.5 0 1 0 0 11 5.5 5.5 0 0 0 0-11m27 26a6.5 6.5 0 1 1 0 13 6.5 6.5 0 0 1 0-13m0 1a5.5 5.5 0 1 0 0 11 5.5 5.5 0 0 0 0-11m0-28a6.5 6.5 0 1 1 0 13 6.5 6.5 0 0 1 0-13m0 1a5.5 5.5 0 1 0 0 11 5.5 5.5 0 0 0 0-11m-27 25a6.5 6.5 0 1 1 0 13 6.5 6.5 0 0 1 0-13m0 1a5.5 5.5 0 1 0 0 11 5.5 5.5 0 0 0 0-11m-13 13a6.5 6.5 0 1 1 0 13 6.5 6.5 0 0 1 0-13m0 1a5.5 5.5 0 1 0 0 11 5.5 5.5 0 0 0 0-11m27-1a6.5 6.5 0 1 1 0 13 6.5 6.5 0 0 1 0-13m0 1a5.5 5.5 0 1 0 0 11 5.5 5.5 0 0 0 0-11m-27-41a6.5 6.5 0 1 1 0 13 6.5 6.5 0 0 1 0-13m0 1a5.5 5.5 0 1 0 0 11 5.5 5.5 0 0 0 0-11"/></g></svg>