<svg xmlns="http://www.w3.org/2000/svg" viewBox="0 0 64 64"><path d="M32 5A28 28 0 0 0 4 33a28 28 0 0 0 28 28 28 28 0 0 0 28-28A28 28 0 0 0 32 5" opacity=".2"/><path fill="#9aca3c" d="M32 4A28 28 0 0 0 4 32a28 28 0 0 0 28 28 28 28 0 0 0 28-28A28 28 0 0 0 32 4"/><path fill="none" stroke="#000" stroke-linecap="round" stroke-linejoin="round" stroke-width="6" d="m22 20 10.4 13M24 46l20-26" opacity=".2"/><path fill="#fff" d="M32 4A28 28 0 0 0 4 32l.021.406A28 28 0 0 1 32 5a28 28 0 0 1 27.979 27.578A28 28 0 0 0 60 32 28 28 0 0 0 32 4" opacity=".2"/><circle cx="48" cy="48" r="16" opacity=".2"/><circle cx="48" cy="47" r="16" fill="#4f4f4f"/><path fill="#fff" d="M43.5 40a7.5 7.5 0 0 0-7.5 7.5 7.5 7.5 0 0 0 7.5 7.5 7.5 7.5 0 0 0 7.5-7.5 7.5 7.5 0 0 0-7.5-7.5m0 3a4.5 4.5 0 0 1 4.5 4.5 4.5 4.5 0 0 1-4.5 4.5 4.5 4.5 0 0 1-4.5-4.5 4.5 4.5 0 0 1 4.5-4.5"/><path fill="#fff" d="M48 46h12v3H48zm10 3v3h-3v-3z"/></svg>