<svg xmlns="http://www.w3.org/2000/svg" xmlns:xlink="http://www.w3.org/1999/xlink" viewBox="0 0 96 96"><defs><linearGradient id="b" x1="50%" x2="50%" y1="0%" y2="100%"><stop offset="0%" stop-color="#54ea8a"/><stop offset="100%" stop-color="#029371"/></linearGradient><filter id="a" width="128.6%" height="128.6%" x="-14.3%" y="-14.3%" filterUnits="objectBoundingBox"><feOffset dy="2" in="SourceAlpha" result="shadowOffsetOuter1"/><feGaussianBlur in="shadowOffsetOuter1" result="shadowBlurOuter1" stdDeviation="2"/><feColorMatrix in="shadowBlurOuter1" result="shadowMatrixOuter1" values="0 0 0 0 0 0 0 0 0 0 0 0 0 0 0 0 0 0 0.2 0"/><feMerge><feMergeNode in="shadowMatrixOuter1"/><feMergeNode in="SourceGraphic"/></feMerge></filter></defs><g fill="none" filter="url(#a)" transform="translate(6 6)"><circle cx="42" cy="42" r="42" fill="url(#b)"/><path fill="#02160a" d="M77.58 28.604C66.83 3.098 42 4.556 42 4.556S17.167 3.098 6.42 28.604C-1.944 48.45 13.478 55.5 20.732 57.652l-.008-.002s2.442 7.916 9.782 11.766c.184.096.402-.104.306-.288-.968-1.836-3.718-9.188-2.72-10.076h-.004c.168.022.352.042.53.064l-.526-.016c3.364.71 6.888 3.354 7.656 4.362.208.272.525.496.87.496H47.38c.344 0 .662-.224.868-.494.768-1.008 4.292-3.652 7.656-4.362l-.526.016.53-.064h-.004c.998.888-1.752 8.242-2.72 10.076-.096.182.122.384.306.288 7.338-3.85 9.782-11.766 9.782-11.766l-.008.002c7.258-2.154 22.678-9.202 14.314-29.05M51.902 71.5a.8.8 0 0 0-.884-.434l-4.862 1c-2.81.422-5.48.474-8.316 0l-4.867-1.002a.8.8 0 0 0-.882.422c-.6 1.216-2.038 4.276-2.71 5.708a.768.768 0 0 0 .448 1.06c1.932.687 7.05 2.313 12.167 2.285 5.1-.026 10.202-1.612 12.148-2.286a.78.78 0 0 0 .45-1.083z"/><path fill="#177138" d="M41.943 51.438v-1.084C51.437 48.57 61.067 38.96 62.54 29.832c1.306-8.116-5.056-16.374-5.056-16.374 6.984 4.164 10.296 8.95 11.866 12.158 1.264 2.582 1.454 6.078-.396 8.278a84 84 0 0 1-2.316 2.62l.16-.154c-3.656 4.69 1.678 8.346 3.094 12.776 1.264 3.954-5.188 5.934-5.812 6.114-3.11 1.04-8.314 1.788-8.904 1.872-2.95.42-6.238 2.62-7.438 3.484a.299.299 0 0 1-.474-.246v-4.84c0-.32.234-.592.554-.616 7.564-.582 12.046-3.198 13.828-4.482.498-.34.328-1.202.328-1.202l-1.832-5.43c-.002-.006-.126-.706-.896-.272-8.638 7.472-17.302 7.92-17.302 7.92"/><path fill="#db0400" d="m23.754 45.802-.942 3.032a.76.76 0 0 0 .348.886l3.842 2.156S34 53.71 36 53.292v-1.584s-6.886-1.876-11.444-6.092c-.242-.224-.704-.128-.802.186m36.27 0c-.098-.316-.448-.41-.69-.186C54.774 49.832 48 51.75 48 51.75v1.542c2 .416 8.886-1.416 8.886-1.416l3.732-2.156a.76.76 0 0 0 .348-.886z"/><path fill="#177138" d="M41.32 51.438v-1.084C31.826 48.57 22.196 38.96 20.724 29.832c-1.306-8.116 5.056-16.374 5.056-16.374-6.984 4.164-10.296 8.95-11.866 12.158-1.264 2.582-1.454 6.078.396 8.278a84 84 0 0 0 2.316 2.62l-.16-.154c3.656 4.69-1.678 8.346-3.094 12.776-1.264 3.954 5.188 5.934 5.812 6.114 3.11 1.04 8.314 1.788 8.904 1.872 2.95.42 6.238 2.62 7.438 3.484A.299.299 0 0 0 36 60.36v-4.84a.607.607 0 0 0-.554-.616c-7.564-.582-12.046-3.198-13.828-4.482-.498-.34-.328-1.202-.328-1.202l1.832-5.43c.002-.006.126-.706.896-.272 8.638 7.472 17.302 7.92 17.302 7.92"/></g></svg>