<svg xmlns="http://www.w3.org/2000/svg" xmlns:xlink="http://www.w3.org/1999/xlink" viewBox="0 0 96 96"><defs><linearGradient id="b" x1="50%" x2="50%" y1="0%" y2="100%"><stop offset="0%" stop-color="#2902f7"/><stop offset="100%" stop-color="#1201ed"/></linearGradient><filter id="a" width="130.8%" height="130.8%" x="-15.4%" y="-15.4%" filterUnits="objectBoundingBox"><feOffset dy="2" in="SourceAlpha" result="shadowOffsetOuter1"/><feGaussianBlur in="shadowOffsetOuter1" result="shadowBlurOuter1" stdDeviation="2"/><feColorMatrix in="shadowBlurOuter1" result="shadowMatrixOuter1" values="0 0 0 0 0 0 0 0 0 0 0 0 0 0 0 0 0 0 0.2 0"/><feMerge><feMergeNode in="shadowMatrixOuter1"/><feMergeNode in="SourceGraphic"/></feMerge></filter></defs><g fill="none" fill-rule="evenodd" filter="url(#a)" transform="translate(9 9)"><rect width="78" height="78" fill="url(#b)" rx="18"/><path stroke="#fff" stroke-linecap="square" stroke-width="4" d="M17.5 16.5h46m-1-1L15.926 62.616"/><path fill="#ff0200" d="M17 53a8 8 0 1 1 0 16 8 8 0 0 1 0-16m22-22a8 8 0 1 1 0 16 8 8 0 0 1 0-16M17 9a8 8 0 1 1 0 16 8 8 0 0 1 0-16m22 0a8 8 0 1 1 0 16 8 8 0 0 1 0-16m22 0a8 8 0 1 1 0 16 8 8 0 0 1 0-16"/><path fill="#fff" fill-rule="nonzero" d="M17 53a8 8 0 0 1 .25 15.996L17 69a8 8 0 0 1-.25-15.996zm0 4a4 4 0 1 0 0 8 4 4 0 0 0 0-8m22-26a8 8 0 0 1 .25 15.996L39 47a8 8 0 0 1-.25-15.996zm0 4a4 4 0 1 0 0 8 4 4 0 0 0 0-8M17 9a8 8 0 0 1 .25 15.996L17 25a8 8 0 0 1-.25-15.996zm22 0a8 8 0 0 1 .25 15.996L39 25a8 8 0 0 1-.25-15.996zm22 0a8 8 0 0 1 .25 15.996L61 25a8 8 0 0 1-.25-15.996zm-44 4a4 4 0 1 0 0 8 4 4 0 0 0 0-8m22 0a4 4 0 1 0 0 8 4 4 0 0 0 0-8m22 0a4 4 0 1 0 0 8 4 4 0 0 0 0-8"/><circle cx="17" cy="39" r="8" fill="#f6f6f6"/><circle cx="39" cy="61" r="8" fill="#f6f6f6"/><circle cx="61" cy="39" r="8" fill="#f6f6f6"/><circle cx="61" cy="61" r="8" fill="#f6f6f6"/></g></svg>