<svg xmlns="http://www.w3.org/2000/svg" xmlns:xlink="http://www.w3.org/1999/xlink" viewBox="0 0 96 96"><defs><linearGradient id="b" x1="50%" x2="50%" y1="80.451%" y2="111.182%"><stop offset="0%" stop-color="#312f2f"/><stop offset="100%" stop-color="#bbb"/></linearGradient><linearGradient id="c" x1="50%" x2="50%" y1="0%" y2="100%"><stop offset="0%" stop-opacity=".132"/><stop offset="100%" stop-opacity=".637"/></linearGradient><linearGradient id="d" x1="50%" x2="50%" y1="0%" y2="100%"><stop offset="0%" stop-color="#efefef"/><stop offset="100%" stop-color="#bbb"/></linearGradient><linearGradient id="e" x1="50%" x2="50%" y1="0%" y2="100%"><stop offset="0%" stop-color="#fff"/><stop offset="100%" stop-color="#c7c6c6"/></linearGradient><linearGradient id="f" x1="50%" x2="50%" y1="-33.924%" y2="100%"><stop offset="0%" stop-color="#e5e4e4"/><stop offset="100%" stop-color="#c6c5c5"/></linearGradient><linearGradient id="h" x1="50%" x2="50%" y1="0%" y2="100%"><stop offset="0%" stop-color="#b1b1b1"/><stop offset="100%" stop-color="#d8d8d8"/></linearGradient><radialGradient id="g" cx="50%" cy="0%" r="100%" fx="50%" fy="0%"><stop offset="0%" stop-color="#f8ff87"/><stop offset="100%" stop-color="#56d303"/></radialGradient><filter id="a" width="130.9%" height="132.5%" x="-15.5%" y="-16.2%" filterUnits="objectBoundingBox"><feOffset dy="2" in="SourceAlpha" result="shadowOffsetOuter1"/><feGaussianBlur in="shadowOffsetOuter1" result="shadowBlurOuter1" stdDeviation="2"/><feColorMatrix in="shadowBlurOuter1" result="shadowMatrixOuter1" values="0 0 0 0 0 0 0 0 0 0 0 0 0 0 0 0 0 0 0.2 0"/><feMerge><feMergeNode in="shadowMatrixOuter1"/><feMergeNode in="SourceGraphic"/></feMerge></filter></defs><g fill="none" fill-rule="evenodd" filter="url(#a)" transform="translate(6 9)"><path fill="url(#b)" d="M7.7 5.221.013 63.955a1 1 0 0 0-.007.192l.756 12.102A4 4 0 0 0 4.754 80h74.507a4 4 0 0 0 3.991-3.734l.741-11.119a1 1 0 0 0-.006-.199l-7.964-59.74A6 6 0 0 0 70.076 0H13.649a6 6 0 0 0-5.95 5.221"/><path fill="url(#c)" fill-rule="nonzero" d="M70.076-1H13.649a7 7 0 0 0-6.94 6.092L-.98 63.825a2 2 0 0 0-.013.384l.756 12.103A5 5 0 0 0 4.754 81h74.507a5 5 0 0 0 4.99-4.668l.74-11.119a2 2 0 0 0-.013-.397L77.014 5.075A7 7 0 0 0 70.076-1m0 1a6 6 0 0 1 5.911 4.973l.036.234 7.964 59.741.008.1-.002.099-.74 11.119a4 4 0 0 1-3.789 3.729l-.203.005H4.754A4 4 0 0 1 .78 76.452l-.018-.203-.756-12.102-.001-.096.008-.096L7.7 5.22A6 6 0 0 1 13.412.005L13.65 0z"/><path fill="url(#d)" d="m7.7 5.221-7.552 57.7a1 1 0 0 0 .991 1.13h81.716a1 1 0 0 0 .991-1.135l-7.814-57.72A6 6 0 0 0 70.086 0H13.65A6 6 0 0 0 7.7 5.221"/><path fill="url(#e)" d="M20.226 2.385c1.205-.224 16.635-.224 18.648 0s.851 2.41 3 2.41q2.15 0 4.16-2.41 13.863-.987 18.314 0T72.227 8q2.812 9.513 1.406 10.362-1.406.848-7 0-3.34 2.083-2.285 2.915 1.057.832 10.598 6.468l3.856 26.412-3.11 1.847-3.465 3.012-37.2 1.037-14.8-4.05-3.932 3.013h-5.156q-4.679-4.044-6.176-4.043-1.499 0-.665-2.941l6.065-3.399Q1.908 37.976 7.789 31.988C13.671 26 14.641 25.296 12.502 24a31.5 31.5 0 0 1-3.851-2.723l1.712-11.54q4.864-1.774 5.932-2.525c1.066-.752 2.726-4.603 3.931-4.827"/><path fill="#1f1f1f" d="M40 65v15h-2V65zm4 0v15h-2V65zm4 0v15h-2V65zm4 0v15h-2V65zm4 0v15h-2V65zm4 0v15h-2V65z"/><ellipse cx="43.853" cy="38.494" fill="url(#f)" rx="11.147" ry="6.506"/><circle cx="76" cy="73.387" r="2" fill="url(#g)"/><path fill="url(#h)" d="M78.874 58.48c1.105 0 2 .74 2 1.652 0 .913-.895 1.653-2 1.653s-2-.74-2-1.653.896-1.653 2-1.653M4 58.48c1.105 0 2 .74 2 1.652 0 .913-.895 1.653-2 1.653s-2-.74-2-1.653.895-1.653 2-1.653m5.044-34.42c1.104 0 2 .74 2 1.652 0 .913-.896 1.652-2 1.652s-2-.74-2-1.652c0-.913.895-1.653 2-1.653m65.83-1.654c1.105 0 2 .74 2 1.653s-.895 1.653-2 1.653-2-.74-2-1.653.896-1.653 2-1.653M11.88 1.891c1.105 0 2 .74 2 1.653s-.895 1.653-2 1.653-2-.74-2-1.653.896-1.653 2-1.653m59.994-.196c1.105 0 2 .74 2 1.652 0 .913-.895 1.653-2 1.653s-2-.74-2-1.653c0-.912.896-1.652 2-1.652"/></g></svg>