<svg xmlns="http://www.w3.org/2000/svg" viewBox="0 0 64 64"><rect width="58" height="58" x="3" y="4" opacity=".2" rx="2.9" ry="2.9"/><rect width="58" height="58" x="3" y="3" fill="#0083a4" rx="2.9" ry="2.9"/><path d="M11.3 10A2.296 2.296 0 0 0 9 12.3V38h46V12.3c0-1.273-1.027-2.3-2.3-2.3Zm22.13 5h6.12c.802 0 1.45.648 1.45 1.45v6.12c0 .802-.648 1.45-1.45 1.45-.8 0-1.55-.648-1.55-1.45v-2.617L27.953 30h2.617c.802 0 1.45.75 1.45 1.55 0 .802-.648 1.45-1.45 1.45h-6.12c-.802 0-1.45-.648-1.45-1.45v-6.12c0-.802.648-1.45 1.45-1.45.8 0 1.55.648 1.55 1.45v2.617L36.047 18H33.43c-.802 0-1.45-.75-1.45-1.55 0-.802.648-1.45 1.45-1.45M9 44v9.7c0 1.273 1.027 2.3 2.3 2.3H29V44Zm26 0v12h17.7c1.273 0 2.3-1.027 2.3-2.3V44Z" opacity=".2"/><path fill="#fff" d="M11.3 9A2.296 2.296 0 0 0 9 11.3V37h46V11.3c0-1.273-1.027-2.3-2.3-2.3Zm22.13 5h6.12c.802 0 1.45.648 1.45 1.45v6.12c0 .802-.648 1.45-1.45 1.45-.8 0-1.55-.648-1.55-1.45v-2.617L27.953 29h2.617c.802 0 1.45.75 1.45 1.55 0 .802-.648 1.45-1.45 1.45h-6.12c-.802 0-1.45-.648-1.45-1.45v-6.12c0-.802.648-1.45 1.45-1.45.8 0 1.55.648 1.55 1.45v2.617L36.047 17H33.43c-.802 0-1.45-.75-1.45-1.55 0-.802.648-1.45 1.45-1.45M9 43v9.7c0 1.273 1.027 2.3 2.3 2.3H29V43Zm26 0v12h17.7c1.273 0 2.3-1.027 2.3-2.3V43Z"/><path fill="#fff" d="M5.898 3A2.89 2.89 0 0 0 3 5.898v1A2.89 2.89 0 0 1 5.898 4h52.204A2.89 2.89 0 0 1 61 6.898v-1A2.89 2.89 0 0 0 58.102 3z" opacity=".1"/></svg>