<svg xmlns="http://www.w3.org/2000/svg" xmlns:xlink="http://www.w3.org/1999/xlink" viewBox="0 0 96 96"><defs><linearGradient id="b" x1="50%" x2="50%" y1="8.403%" y2="100%"><stop offset="0%" stop-color="#464600" stop-opacity=".326"/><stop offset="100%" stop-color="#979797"/></linearGradient><linearGradient id="c" x1="50%" x2="50%" y1=".921%" y2="97.864%"><stop offset="0%" stop-color="#666"/><stop offset="100%"/></linearGradient><linearGradient id="d" x1="81.45%" x2="45.994%" y1="16.309%" y2="90.028%"><stop offset="0%" stop-color="#181ea9"/><stop offset="100%" stop-color="#3585d4"/></linearGradient><linearGradient id="e" x1="50%" x2="50%" y1="4.453%" y2="100%"><stop offset="0%" stop-color="#2e35e3"/><stop offset="100%" stop-color="#009518" stop-opacity=".002"/></linearGradient><linearGradient id="f" x1="50%" x2="50%" y1="0%" y2="100%"><stop offset="0%" stop-color="#ff0"/><stop offset="100%" stop-color="#ffcd36"/></linearGradient><linearGradient id="g" x1="50%" x2="50%" y1="0%" y2="100%"><stop offset="0%" stop-color="#ff5151"/><stop offset="92.928%" stop-color="#900"/><stop offset="100%" stop-color="#d8d8d8"/></linearGradient><linearGradient id="h" x1="13.645%" x2="69.15%" y1="100%" y2="-20.428%"><stop offset="0%" stop-color="#f2ffa3"/><stop offset="100%" stop-color="#ffd200"/></linearGradient><linearGradient id="i" x1="59.761%" x2="50%" y1="15.66%" y2="87.182%"><stop offset="0%" stop-color="#8e1307"/><stop offset="100%" stop-color="#ff7272"/></linearGradient><linearGradient id="k" x1="35.575%" x2="64.234%" y1="86.031%" y2="10.342%"><stop offset="0%" stop-color="#dfffb1"/><stop offset="100%" stop-color="#c85b00"/></linearGradient><radialGradient id="j" cx="50.01%" cy="50.055%" r="95.987%" fx="50.01%" fy="50.055%" gradientTransform="matrix(0 -.7389 1 0 0 .87)"><stop offset="0%" stop-color="#f9ffd1"/><stop offset="45.361%" stop-color="#efff00"/><stop offset="100%" stop-color="#ffe800"/></radialGradient><filter id="a" width="133.8%" height="135.8%" x="-16.9%" y="-17.9%" filterUnits="objectBoundingBox"><feOffset dy="2" in="SourceAlpha" result="shadowOffsetOuter1"/><feGaussianBlur in="shadowOffsetOuter1" result="shadowBlurOuter1" stdDeviation="2"/><feColorMatrix in="shadowBlurOuter1" result="shadowMatrixOuter1" values="0 0 0 0 0 0 0 0 0 0 0 0 0 0 0 0 0 0 0.2 0"/><feMerge><feMergeNode in="shadowMatrixOuter1"/><feMergeNode in="SourceGraphic"/></feMerge></filter></defs><g fill="none" filter="url(#a)" transform="translate(12 15)"><path fill="#caffff" d="M71 66v1H0v-1zm0-8v1H0v-1zm0-8v1H0v-1zm0-8v1H0v-1zm0-8v1H0v-1zm0-8v1H0v-1zm0-8v1H0v-1zm0-8v1H0v-1zm0-8v1H0V2z"/><path fill="url(#b)" d="M10.5 0a.5.5 0 0 1 .5.5v5a.5.5 0 1 1-1 0v-5a.5.5 0 0 1 .5-.5" transform="matrix(1 0 0 -1 0 6)"/><path fill="url(#c)" d="M11.5 5a1 1 0 0 1 .993.883L12.5 6v3h.5a1 1 0 0 1 1 1v5a1 1 0 0 1 .993.883L15 16v2H6v-2a1 1 0 0 1 .883-.993L7 15v-5a1 1 0 0 1 1-1h.5V6a1 1 0 0 1 .883-.993L9.5 5z"/><ellipse cx="45" cy="42" fill="url(#d)" stroke="url(#e)" rx="18.5" ry="16.5"/><path fill="url(#f)" d="M6 17h9a1 1 0 0 1 1 1v41.5a5.5 5.5 0 0 1-11 0V18a1 1 0 0 1 1-1"/><path fill="url(#g)" d="M5 56h11v5a4 4 0 0 1-4 4H9a4 4 0 0 1-4-4z"/><circle cx="25" cy="18" r="5" fill="url(#h)"/><path fill="url(#i)" d="m46.738 33.52 2.742 1.218-9.218 20.742-2.742-1.218z"/><path fill="url(#j)" d="m40.367 47.855 2.787 1.115-2.892 6.51-2.742-1.218z"/><path fill="url(#h)" d="M38.719 61.5a5.5 5.5 0 1 0 0-11 5.5 5.5 0 0 0 0 11"/><path fill="url(#k)" d="M45.286 41.81c12.032 1.691 23.001-5.583 24.5-16.248S62.746 4.88 50.714 3.19s-23.001 5.583-24.5 16.248 7.04 20.681 19.072 22.372"/></g></svg>