<svg xmlns="http://www.w3.org/2000/svg" xmlns:xlink="http://www.w3.org/1999/xlink" viewBox="0 0 96 96"><defs><filter id="a" width="127.3%" height="137.5%" x="-13.6%" y="-18.8%" filterUnits="objectBoundingBox"><feOffset dy="2" in="SourceAlpha" result="shadowOffsetOuter1"/><feGaussianBlur in="shadowOffsetOuter1" result="shadowBlurOuter1" stdDeviation="2"/><feColorMatrix in="shadowBlurOuter1" result="shadowMatrixOuter1" values="0 0 0 0 0 0 0 0 0 0 0 0 0 0 0 0 0 0 0.2 0"/><feMerge><feMergeNode in="shadowMatrixOuter1"/><feMergeNode in="SourceGraphic"/></feMerge></filter><filter id="d" width="113%" height="150.1%" x="-6.5%" y="-25%" filterUnits="objectBoundingBox"><feOffset in="SourceAlpha" result="shadowOffsetOuter1"/><feGaussianBlur in="shadowOffsetOuter1" result="shadowBlurOuter1" stdDeviation="1.5"/><feColorMatrix in="shadowBlurOuter1" values="0 0 0 0 0 0 0 0 0 0 0 0 0 0 0 0 0 0 0.797366696 0"/></filter><path id="b" d="M20.732 57.118c.972 0 1.782-.18 2.25-.396l-.486-1.962a4.7 4.7 0 0 1-1.458.216c-1.206 0-2.412-.414-3.024-1.422 2.646-.684 4.374-3.132 4.374-6.768 0-4.32-2.43-6.858-5.958-6.858s-5.958 2.52-5.958 6.858c0 3.798 1.89 6.318 4.734 6.858.918 2.016 2.808 3.474 5.526 3.474m-4.302-5.544c-1.98 0-3.24-1.8-3.24-4.788 0-2.862 1.26-4.572 3.24-4.572s3.24 1.71 3.24 4.572c0 2.988-1.26 4.788-3.24 4.788m10.576 2.178c1.368 0 2.34-.666 3.204-1.692h.072l.198 1.44h2.16V43.42h-2.646v6.804c-.684.9-1.224 1.26-2.052 1.26-.972 0-1.404-.558-1.404-2.106V43.42h-2.646v6.3c0 2.52.936 4.032 3.114 4.032m11.367 0c.882 0 1.584-.198 2.124-.378l-.432-1.926c-.27.108-.666.216-.99.216-.9 0-1.368-.54-1.368-1.692v-4.464h2.484V43.42h-2.484v-2.718h-2.196l-.306 2.718-1.566.126v1.962h1.422v4.464c0 2.25.918 3.78 3.312 3.78m7.138 0c1.242 0 2.52-.432 3.51-1.116l-.9-1.62c-.72.45-1.44.702-2.268.702-1.494 0-2.574-.864-2.79-2.52h6.21c.072-.234.126-.72.126-1.224 0-2.772-1.44-4.806-4.212-4.806-2.394 0-4.698 2.034-4.698 5.292 0 3.33 2.196 5.292 5.022 5.292m1.62-6.318h-4.104c.198-1.458 1.134-2.214 2.196-2.214 1.296 0 1.908.864 1.908 2.214m6.274 6.066v-5.562c0-1.26-.216-3.114-.342-4.374h.072l1.062 3.132 2.07 5.598h1.53l2.052-5.598 1.08-3.132h.09c-.144 1.26-.342 3.114-.342 4.374V53.5h2.43V40.162h-2.952l-2.214 6.246c-.288.828-.522 1.71-.81 2.556h-.09c-.27-.846-.522-1.728-.81-2.556l-2.268-6.246H51.01V53.5zm16.191.252c2.52 0 4.842-1.944 4.842-5.292s-2.322-5.292-4.842-5.292-4.842 1.944-4.842 5.292 2.322 5.292 4.842 5.292m0-2.16c-1.368 0-2.142-1.224-2.142-3.132 0-1.89.774-3.132 2.142-3.132s2.142 1.242 2.142 3.132c0 1.908-.774 3.132-2.142 3.132m8.758 2.16c.63 0 1.062-.108 1.368-.234l-.324-1.962c-.18.036-.252.036-.36.036-.252 0-.522-.198-.522-.81V39.136H75.87v11.538c0 1.872.648 3.078 2.484 3.078"/></defs><g fill="none" fill-rule="evenodd"><g fill="#fff" filter="url(#a)" transform="translate(4 16)"><path d="M12 0h64c6.627 0 12 5.373 12 12v40c0 6.627-5.373 12-12 12H12C5.373 64 0 58.627 0 52V12C0 5.373 5.373 0 12 0"/></g><g fill-rule="nonzero"><use xlink:href="#b" fill="#000" filter="url(#d)"/><use xlink:href="#b" fill="#000ca7"/><use xlink:href="#b" fill="#fff"/></g></g></svg>