<svg xmlns="http://www.w3.org/2000/svg" xmlns:xlink="http://www.w3.org/1999/xlink" viewBox="0 0 96 96"><defs><filter id="a" width="130.4%" height="128.2%" x="-15.2%" y="-14.1%" filterUnits="objectBoundingBox"><feOffset dy="2" in="SourceAlpha" result="shadowOffsetOuter1"/><feGaussianBlur in="shadowOffsetOuter1" result="shadowBlurOuter1" stdDeviation="2"/><feColorMatrix in="shadowBlurOuter1" result="shadowMatrixOuter1" values="0 0 0 0 0 0 0 0 0 0 0 0 0 0 0 0 0 0 0.2 0"/><feMerge><feMergeNode in="shadowMatrixOuter1"/><feMergeNode in="SourceGraphic"/></feMerge></filter></defs><g fill="none" fill-rule="evenodd" filter="url(#a)" transform="translate(9 6)"><path fill="#ffcd6e" d="m9.092 12.07 53.35 63.581-6.893 5.785L7.913 24.667c-3.157-3.762-3.658-8.539-1.12-10.669z"/><path fill="#f5b746" d="m16.752 5.642 55.923 66.646-3.83 3.214-3.83 3.213L9.091 12.07z" opacity=".872"/><path fill="#f8a724" d="M18.284 4.356c2.539-2.13 7.217-.733 10.45 3.12l48.783 58.137-6.128 5.143L16.752 5.642z"/><path fill="#f8a724" d="M69 82V26h9v50a6 6 0 0 1-6 6z"/><path fill="#f5b746" d="M59 82V26h10v56z"/><path fill="#ffcd6e" d="M57 82a6 6 0 0 1-6-6V26h8v56z"/><path fill="#f9aca0" d="M78 19H51v-8a8 8 0 0 1 8-8h11a8 8 0 0 1 8 8z"/><path fill="#8f8f91" d="M78 26H51v-7h27z"/><path fill="#aaa" d="M78 24H51v-3h27z"/><path fill="#ffcd6e" d="M9 3v72.667L0 65V9a6 6 0 0 1 6-6z"/><path fill="#f5b746" d="M19 3v71.481L13.5 81 9 75.667V3z"/><path fill="#f8a724" d="M21 3a6 6 0 0 1 6 6v56l-8 9.481V3z"/><path fill="#f7e1c7" d="M14 60a5 5 0 0 1 5 5l-5.5 16-1.5-5-3-11a5 5 0 0 1 5-5"/><path fill="#fff3e1" d="M4.5 60A4.5 4.5 0 0 1 9 64.5L13.5 81 .322 65.382A1.37 1.37 0 0 1 0 64.5 4.5 4.5 0 0 1 4.5 60"/><path fill="#ead0b7" d="M22.5 60a4.5 4.5 0 0 1 4.5 4.5c0 .323-.114.635-.322.882L13.5 81l5.498-19.327A4.5 4.5 0 0 1 22.5 60"/><path fill="#000" d="M17.718 76 13.5 81l-4.219-5z"/></g></svg>