<svg xmlns="http://www.w3.org/2000/svg" xmlns:xlink="http://www.w3.org/1999/xlink" viewBox="0 0 96 96"><defs><filter id="a" width="127.6%" height="139.8%" x="-13.8%" y="-19.9%" filterUnits="objectBoundingBox"><feOffset dy="2" in="SourceAlpha" result="shadowOffsetOuter1"/><feGaussianBlur in="shadowOffsetOuter1" result="shadowBlurOuter1" stdDeviation="2"/><feColorMatrix in="shadowBlurOuter1" result="shadowMatrixOuter1" values="0 0 0 0 0 0 0 0 0 0 0 0 0 0 0 0 0 0 0.2 0"/><feMerge><feMergeNode in="shadowMatrixOuter1"/><feMergeNode in="SourceGraphic"/></feMerge></filter></defs><g fill="none" fill-rule="evenodd" filter="url(#a)" transform="translate(4 17.875)"><rect width="87" height="60.25" fill="#fff" rx="14"/><path fill="#329bff" fill-opacity=".478" fill-rule="nonzero" d="M73 0c7.732 0 14 6.268 14 14v32.25c0 7.732-6.268 14-14 14H14c-7.732 0-14-6.268-14-14V14C0 6.268 6.268 0 14 0zm0 1H14C6.923 1 1.167 6.655 1.004 13.693L1 14v32.25c0 7.077 5.655 12.833 12.693 12.996l.307.004h59c7.077 0 12.833-5.655 12.996-12.693L86 46.25V14c0-7.077-5.655-12.833-12.693-12.996z"/><path fill="#000" fill-rule="nonzero" d="M7.063 35.125v-3.536l1.649-2.125 3.264 5.661h2.754l-4.522-7.633 3.842-4.964h-2.771l-4.165 5.474h-.051v-5.474H4.547v12.597zm16.768 0v-2.108h-5.39v-3.366h4.42v-2.108h-4.42v-2.907h5.203v-2.108h-7.718v12.597zm5.853 0c3.706 0 6.086-2.108 6.086-6.341 0-4.25-2.38-6.256-6.222-6.256h-3.45v12.597zm-.289-2.023h-.782v-8.551h.782c2.346 0 3.808 1.156 3.808 4.233 0 3.06-1.462 4.318-3.808 4.318m9.288 2.023.884-3.23h4.08l.884 3.23h2.635L43.12 22.528h-2.958l-4.029 12.597zm4.42-5.185h-2.992l.374-1.377a91 91 0 0 0 1.071-4.114h.085c.357 1.36.697 2.805 1.088 4.114zm10.189 5.423c1.632 0 2.975-.646 4.012-1.853l-1.326-1.564c-.68.731-1.513 1.241-2.601 1.241-1.99 0-3.281-1.649-3.281-4.386 0-2.703 1.428-4.335 3.332-4.335.952 0 1.683.442 2.329 1.054l1.309-1.598c-.816-.85-2.091-1.615-3.69-1.615-3.178 0-5.847 2.431-5.847 6.579 0 4.199 2.584 6.477 5.763 6.477m10.086 0c3.332 0 5.627-2.499 5.627-6.579s-2.295-6.477-5.627-6.477-5.627 2.38-5.627 6.477c0 4.08 2.295 6.579 5.627 6.579m0-2.176c-1.87 0-3.06-1.717-3.06-4.403 0-2.703 1.19-4.318 3.06-4.318s3.06 1.615 3.06 4.318c0 2.686-1.19 4.403-3.06 4.403m10.07 1.938v-5.253c0-1.19-.204-2.941-.323-4.131h.068l1.003 2.958 1.955 5.287h1.445l1.938-5.287 1.02-2.958h.085c-.136 1.19-.323 2.941-.323 4.131v5.253h2.295V22.528h-2.788l-2.091 5.899c-.272.782-.493 1.615-.765 2.414h-.085c-.255-.799-.493-1.632-.765-2.414l-2.142-5.899h-2.788v12.597z"/></g></svg>