<svg xmlns="http://www.w3.org/2000/svg" xmlns:xlink="http://www.w3.org/1999/xlink" viewBox="0 0 96 96"><defs><radialGradient id="b" cx="71.658%" cy="36.637%" r="74.537%" fx="71.658%" fy="36.637%"><stop offset="0%" stop-color="#634cff"/><stop offset="61.196%" stop-color="#0f0091"/><stop offset="100%" stop-color="#1600ff"/></radialGradient><radialGradient id="d" cx="50%" cy="0%" r="100.706%" fx="50%" fy="0%" gradientTransform="matrix(0 .993 -1 0 .5 -.496)"><stop offset="0%" stop-color="#eee"/><stop offset="73.643%" stop-color="#fff"/><stop offset="100%" stop-color="#e2e2e2"/></radialGradient><linearGradient id="c" x1="50%" x2="50%" y1="0%" y2="100%"><stop offset="0%" stop-color="#ff00f4"/><stop offset="11.374%" stop-color="#ff03d1"/><stop offset="25.042%" stop-color="#001eff"/><stop offset="35.053%" stop-color="#00faff"/><stop offset="63.297%" stop-color="#00ff48"/><stop offset="87.207%" stop-color="#fffd00"/><stop offset="100%" stop-color="#ff1800"/></linearGradient><filter id="a" width="129.3%" height="130.3%" x="-14.6%" y="-15.1%" filterUnits="objectBoundingBox"><feOffset dy="2" in="SourceAlpha" result="shadowOffsetOuter1"/><feGaussianBlur in="shadowOffsetOuter1" result="shadowBlurOuter1" stdDeviation="2"/><feColorMatrix in="shadowBlurOuter1" result="shadowMatrixOuter1" values="0 0 0 0 0 0 0 0 0 0 0 0 0 0 0 0 0 0 0.2 0"/><feMerge><feMergeNode in="shadowMatrixOuter1"/><feMergeNode in="SourceGraphic"/></feMerge></filter></defs><g fill="none" filter="url(#a)" transform="translate(7 8)"><circle cx="47.5" cy="52.5" r="26.5" fill="url(#b)"/><path fill="url(#c)" d="M0 29h11v50H0z"/><path fill="#1d8dff" d="m67.627 17 3.636-16h-2.627L65 17zm7.925 0c1.437 0 2.708-.424 3.809-1.251.884-.678 1.535-1.548 1.986-2.566H79.14c-.418.637-.827 1.124-1.26 1.421-.55.36-1.213.551-1.984.551-.874 0-1.503-.296-1.893-.848-.387-.572-.494-1.4-.367-2.46h8.163c.365-1.95.23-3.477-.384-4.58-.673-1.229-1.91-1.823-3.659-1.823-1.582 0-2.962.552-4.1 1.675-1.177 1.103-1.904 2.46-2.227 4.093-.357 1.802-.138 3.222.652 4.283C72.8 16.49 73.969 17 75.55 17m4.634-6.222h-6.239c.333-1.16.817-2.028 1.413-2.634.645-.632 1.387-.922 2.282-.922q2.817 0 2.544 3.556"/><path fill="#92ffff" d="m66.627 17 3.636-16h-2.627L64 17zm7.925 0c1.437 0 2.708-.424 3.809-1.251.884-.678 1.535-1.548 1.986-2.566H78.14c-.418.637-.827 1.124-1.26 1.421-.55.36-1.213.551-1.984.551-.874 0-1.503-.296-1.893-.848-.387-.572-.494-1.4-.367-2.46h8.163c.365-1.95.23-3.477-.384-4.58-.673-1.229-1.91-1.823-3.659-1.823-1.582 0-2.962.552-4.1 1.675-1.177 1.103-1.904 2.46-2.227 4.093-.357 1.802-.138 3.222.652 4.283C71.8 16.49 72.969 17 74.55 17m4.634-6.222h-6.239c.333-1.16.817-2.028 1.413-2.634.645-.632 1.387-.922 2.282-.922q2.817 0 2.544 3.556"/><path fill="#ff75bf" d="m44.267 21 8.404-8.002L55.685 21h5.225L56.173 9.83 67 0h-5.225l-6.987 6.662L52.211 0h-5.225l4.258 9.83L39 21z"/><path fill="#fe1e96" d="m44.267 21 8.404-8.002L55.685 21h5.225L56.173 9.83 67 0h-5.225l-6.987 6.662L52.211 0h-5.225l4.258 9.83L39 21z"/><path fill="#ffbd00" d="M6.136 17c2.868-.02 4.897-1.163 5.284-3.376.347-1.987-.562-2.702-3.035-3.27l-1.2-.262c-1.299-.307-1.793-.664-1.631-1.59q.26-1.49 2.809-1.508c1.487-.01 2.786.296 3.428.562l.273-1.558c-.688-.311-1.744-.642-3.496-.63-3.16.023-4.853 1.366-5.2 3.353-.34 1.942.91 2.677 2.747 3.092l1.197.285c1.556.35 2.03.82 1.873 1.723-.17.97-1.122 1.564-3.114 1.578-1.858.013-2.759-.296-3.806-.672L2 16.24c.994.534 2.437.772 4.136.76m9.075-.018 1.512-9.487c1.01-.41 2.41-.8 3.565-.81 2.048-.016 2.456.55 2.24 1.902l-1.33 8.349 2.206-.018 1.399-8.776c.363-2.277-.69-3.24-3.264-3.22-1.602.013-3.317.571-4.473 1.244h-.131L17.917 0l-2.232.018L12.98 17zM31.43 17c2.25-.017 3.917-.614 4.798-1.116l.246-1.42c-1.33.55-2.564.874-4.376.887-2.718.02-4.147-.916-3.852-3.575l9.115-.066.187-1.083c.607-3.517-.87-5.285-4.603-5.258-3.185.023-6.316 1.802-6.99 5.703l-.059.338c-.595 3.45 1.223 5.62 5.533 5.59m4.34-6.318-6.324.055c.611-2.793 2.367-3.566 3.83-3.579 1.96-.017 2.86.978 2.494 3.524m6.433 6.298L45 0l-2.693.02L39.511 17z"/><path fill="#fcff8f" d="M5.136 17c2.868-.02 4.897-1.163 5.284-3.376.347-1.987-.562-2.702-3.035-3.27l-1.2-.262c-1.299-.307-1.793-.664-1.631-1.59q.26-1.49 2.809-1.508c1.487-.01 2.786.296 3.428.562l.273-1.558c-.688-.311-1.744-.642-3.496-.63-3.16.023-4.853 1.366-5.2 3.353-.34 1.942.91 2.677 2.747 3.092l1.197.285c1.556.35 2.03.82 1.873 1.723-.17.97-1.122 1.564-3.114 1.578-1.858.013-2.759-.296-3.806-.672L1 16.24c.994.534 2.437.772 4.136.76m9.075-.018 1.512-9.487c1.01-.41 2.41-.8 3.565-.81 2.048-.016 2.456.55 2.24 1.902l-1.33 8.349 2.206-.018 1.399-8.776c.363-2.277-.69-3.24-3.264-3.22-1.602.013-3.317.571-4.473 1.244h-.131L16.917 0l-2.232.018L11.98 17zM30.43 17c2.25-.017 3.917-.614 4.798-1.116l.246-1.42c-1.33.55-2.564.874-4.376.887-2.718.02-4.147-.916-3.852-3.575l9.115-.066.187-1.083c.607-3.517-.87-5.285-4.603-5.258-3.185.023-6.316 1.802-6.99 5.703l-.059.338c-.595 3.45 1.223 5.62 5.533 5.59m4.34-6.318-6.324.055c.611-2.793 2.367-3.566 3.83-3.579 1.96-.017 2.86.978 2.494 3.524m6.433 6.298L44 0l-2.693.02L38.511 17z"/><path fill="url(#d)" d="M46.17 25.708a6 6 0 0 1 1.84.292c-1.376.44-2.676 1.386-3.856 2.743 4.036-.073 8.279.755 12.471 2.622 7.964 3.545 13.483 9.887 15.742 16.889.417-.779.688-1.558.798-2.33.546.712.906 1.492 1.055 2.338.242 1.37-.09 2.803-.898 4.237.505 3.9 0 7.87-1.646 11.565a20.5 20.5 0 0 1-5.26 7.107 20.4 20.4 0 0 0 3.26-5.107c1.568-3.521 2.1-7.29 1.712-11.011-4.256 4.476-12.719 8.575-22.304 10.265a55 55 0 0 1-8.104.831c2.416 6.4 5.942 11.433 9.198 12.66a6 6 0 0 1-2.168.408c-4.124 0-8.557-5.606-11.307-13.15-8.505-.572-14.654-3.584-15.453-8.111a5.8 5.8 0 0 1-.045-1.694c2.068 3.24 7.36 5.313 14.235 5.748-.88-3.386-1.409-7-1.438-10.575L34 51c0-8.033 1.877-15.28 4.751-19.937-4.752.729-9.1 2.742-12.62 5.766l-.148.13c3.594-4.121 8.566-6.87 14.147-7.835 1.79-2.168 3.856-3.416 6.04-3.416m-3.45 5.052-.047-.001c-2.942 4.688-4.816 12.18-4.671 20.45.063 3.631.673 7.36 1.646 10.863a54.6 54.6 0 0 0 8.69-.987c9.63-1.862 18.058-5.905 22.186-10.326-2.153-7.202-7.744-13.764-15.899-17.394-4.01-1.786-8.045-2.61-11.904-2.605"/><circle cx="59" cy="45" r="4" fill="#fff" fill-opacity=".2"/></g></svg>