<svg xmlns="http://www.w3.org/2000/svg" xmlns:xlink="http://www.w3.org/1999/xlink" viewBox="0 0 96 96"><defs><radialGradient id="b" cx="54.819%" cy="37.663%" r="66.472%" fx="54.819%" fy="37.663%"><stop offset="0%" stop-color="#f9f9f9"/><stop offset="29.028%" stop-color="#f2f7f6"/><stop offset="40.903%" stop-color="#d8edec"/><stop offset="53.165%" stop-color="#bee4e2"/><stop offset="100%" stop-color="#138c85"/></radialGradient><linearGradient id="c" x1="79.163%" x2="52.168%" y1="48.699%" y2="70.081%"><stop offset="0%" stop-color="#596181"/><stop offset="40.327%" stop-color="#969bb3"/><stop offset="100%" stop-color="#f1f1fe"/></linearGradient><filter id="a" width="127.6%" height="140.3%" x="-13.8%" y="-20.2%" filterUnits="objectBoundingBox"><feOffset dy="2" in="SourceAlpha" result="shadowOffsetOuter1"/><feGaussianBlur in="shadowOffsetOuter1" result="shadowBlurOuter1" stdDeviation="2"/><feColorMatrix in="shadowBlurOuter1" result="shadowMatrixOuter1" values="0 0 0 0 0 0 0 0 0 0 0 0 0 0 0 0 0 0 0.2 0"/><feMerge><feMergeNode in="shadowMatrixOuter1"/><feMergeNode in="SourceGraphic"/></feMerge></filter></defs><g fill="none" fill-rule="evenodd" filter="url(#a)" transform="translate(4.591 18.245)"><circle cx="43.826" cy="29.032" r="23" fill="url(#b)"/><path fill="url(#c)" d="m35.45 7.606-.245.097a23 23 0 0 0-5.235 2.97c-8.14-2.926-14.292-3.369-16.011-.617-1.387 2.22.358 6.12 4.337 10.712l.18.205a51 51 0 0 0 1.742 1.886l-.134-.139q.17.177.343.354l-.21-.215c4.466 4.61 10.89 9.728 18.465 14.461 7.948 4.967 15.72 8.61 21.984 10.54l.275.084c6.667 2.015 11.577 2.057 13.084-.355 1.723-2.758-1.39-8.112-7.618-14.162a23 23 0 0 0 .344-6.272c14.588 11.816 22.767 23.604 19.258 29.22-3.392 5.427-16.753 3.568-33.006-3.723l-.137-.062q-1.33-.6-2.685-1.245c-4.868-2.325-9.952-5.11-15.07-8.309-5.029-3.142-9.683-6.428-13.85-9.725l-.044-.034C5.913 21.157-2.79 8.897.81 3.136c3.505-5.61 17.655-3.437 34.64 4.47"/></g></svg>