<svg xmlns="http://www.w3.org/2000/svg" xmlns:xlink="http://www.w3.org/1999/xlink" viewBox="0 0 96 96"><defs><linearGradient id="b" x1="47.775%" x2="30.685%" y1="31.958%" y2="77.56%"><stop offset="0%" stop-color="#8dc5ff"/><stop offset="100%" stop-color="#f2c600"/></linearGradient><linearGradient id="c" x1="26.119%" x2="49.578%" y1="32.476%" y2="58.775%"><stop offset="0%" stop-color="#a8ae30"/><stop offset="100%" stop-color="#8f9429"/></linearGradient><linearGradient id="d" x1="64.714%" x2="49.396%" y1="33.148%" y2="52.17%"><stop offset="0%" stop-color="#a8ae30"/><stop offset="100%" stop-color="#8f9429"/></linearGradient><linearGradient id="e" x1="68.833%" x2="69.974%" y1="84.904%" y2="42.696%"><stop offset="0%" stop-color="#6c782e"/><stop offset="100%" stop-color="#929829"/></linearGradient><linearGradient id="f" x1="25.897%" x2="49.585%" y1="29.555%" y2="60.402%"><stop offset="0%" stop-color="#a8ae30"/><stop offset="100%" stop-color="#8f9429"/></linearGradient><linearGradient id="g" x1="-10.59%" x2="24.786%" y1="89.701%" y2="44.833%"><stop offset="0%" stop-color="#6c782e"/><stop offset="100%" stop-color="#929829"/></linearGradient><linearGradient id="h" x1="38.742%" x2="40.784%" y1="123.64%" y2="54.626%"><stop offset="0%" stop-color="#6c782e"/><stop offset="100%" stop-color="#929829"/></linearGradient><linearGradient id="i" x1="44.916%" x2="48.728%" y1="73.832%" y2="14.763%"><stop offset="0%" stop-color="#ed6520"/><stop offset="100%" stop-color="#ff9e50"/></linearGradient><linearGradient id="j" x1="1.78%" x2="31.356%" y1="64.452%" y2="5.719%"><stop offset="0%" stop-color="#da6224"/><stop offset="100%" stop-color="#d57042"/></linearGradient><linearGradient id="l" x1="34.225%" x2="28.846%" y1="86.009%" y2="-3.498%"><stop offset="0%" stop-color="#b04730"/><stop offset="100%" stop-color="#ff7b2f"/></linearGradient><linearGradient id="m" x1="45.79%" x2="45.111%" y1="45.29%" y2="106.906%"><stop offset="0%" stop-color="#ffffe0"/><stop offset="100%" stop-color="#ffe588" stop-opacity="0"/></linearGradient><linearGradient id="n" x1="38.335%" x2="56.101%" y1="44.666%" y2="87.012%"><stop offset="0%" stop-color="#ffffe0"/><stop offset="100%" stop-color="#ffe588" stop-opacity="0"/></linearGradient><linearGradient id="o" x1="47.557%" x2="49.412%" y1="18.803%" y2="75.139%"><stop offset="0%" stop-color="#ffffe0"/><stop offset="100%" stop-color="#ffe588" stop-opacity="0"/></linearGradient><radialGradient id="k" cx="50%" cy="74.307%" r="107.704%" fx="50%" fy="74.307%" gradientTransform="matrix(.84174 0 0 1 .08 0)"><stop offset="0%" stop-color="#8a300c"/><stop offset="100%" stop-color="#ec510c" stop-opacity="0"/></radialGradient><filter id="a" width="133.3%" height="133.3%" x="-16.7%" y="-16.7%" filterUnits="objectBoundingBox"><feOffset dy="2" in="SourceAlpha" result="shadowOffsetOuter1"/><feGaussianBlur in="shadowOffsetOuter1" result="shadowBlurOuter1" stdDeviation="2"/><feColorMatrix in="shadowBlurOuter1" result="shadowMatrixOuter1" values="0 0 0 0 0 0 0 0 0 0 0 0 0 0 0 0 0 0 0.2 0"/><feMerge><feMergeNode in="shadowMatrixOuter1"/><feMergeNode in="SourceGraphic"/></feMerge></filter></defs><g fill="none" fill-rule="evenodd" filter="url(#a)" transform="translate(9 9)"><path fill="#c0bfbc" fill-rule="nonzero" stroke="#c0bfbc" stroke-linecap="round" stroke-linejoin="round" d="M-.5-.5h79v79h-79z"/><path fill="#f6f5f4" fill-rule="nonzero" stroke="#c0bfbc" d="M.5.5h77v74H.5z"/><path fill="url(#b)" fill-rule="nonzero" stroke="#c0bfbc" d="M6.5 6.5h65v48h-65z"/><g transform="translate(14.77 11.421)"><path fill="url(#c)" stroke="#909729" stroke-width="2" d="M27.433 10.993C24.86-4.334.883-4.732 7.223 16.804c9.084-8.226 9.02 1.02 20.21-5.811Z"/><path fill="#9ca02c" stroke="#909729" stroke-width="2" d="M18.105 12.643C25.739-2.732 54.815 3.157 40.8 24.044c-8.543-11.004-11.196-1.304-22.695-11.4Z"/><path fill="url(#d)" stroke="url(#e)" stroke-width="2" d="M24.793 26.038c7.2-14.827 33.096-9.806 20.053 10.41-7.39-10.323-9.995-1.014-20.053-10.41Z"/><path fill="url(#f)" stroke="url(#g)" stroke-width="2" d="M20.675 27.54C18.068 11.402-5.229 10.818 1.079 33.512c8.77-8.588 8.771 1.135 19.596-5.972Z"/><path fill="#a8ae30" stroke="url(#h)" stroke-width="2" d="M22.794 20.104c19.05 2.303 3.257 12.864 1.464 17.635-16.065-6.93-10.9-18.776-1.464-17.635Z"/><path fill="url(#i)" fill-rule="nonzero" stroke="url(#j)" stroke-linecap="round" stroke-width="2" d="M32.476 37.694c-2.13 1.426-7.605-8.982-11.44-11.022-4.18 1-9.325 9.445-11.429 7.9-2.406-1.766.549-12.658 1.934-15.04 1.786-3.069-10.28-3.312-9.262-5.909 1.004-2.562 10.909-4.929 14.028-5.37 1.13-3.045 4.06-7.838 8.068-7.318s6.243 6.4 7.075 9.415c4.165.719 10.99 3.57 11.5 6.327.505 2.72-13.78 2.248-11.96 5.403 1.33 2.304 3.08 14.096 1.486 15.614z"/><ellipse cx="22.683" cy="15.834" fill="url(#k)" fill-rule="nonzero" stroke="url(#l)" stroke-linecap="round" stroke-width="1.89" rx="7.405" ry="6.233" transform="rotate(7.233 22.683 15.834)"/><path stroke="url(#m)" stroke-linecap="round" stroke-width="2" d="m24.311 19.845 3.096-9.039"/><path stroke="url(#n)" stroke-linecap="round" stroke-width="2" d="m20.153 20.434-3.257-8.023"/><path stroke="url(#o)" stroke-linecap="round" stroke-width="2" d="m21.938 18.06.312-12.77"/></g><path fill="#f5c211" fill-rule="nonzero" stroke="#f5c211" stroke-linecap="round" stroke-linejoin="round" stroke-width="2" d="m68.489 62.678-1.644-1.036-1.514 1.218.478-1.883-1.626-1.064 1.939-.128.509-1.875.72 1.804 1.941-.095-1.493 1.243zm-8.897 0-1.644-1.036-1.514 1.218.477-1.883-1.625-1.064 1.938-.128.51-1.875.72 1.804 1.941-.095-1.493 1.243zm-8.519 0-1.644-1.036-1.514 1.218.478-1.883-1.626-1.064 1.939-.128.509-1.875.721 1.804 1.94-.095-1.493 1.243z"/><path fill="#deddda" fill-rule="nonzero" d="M41 57a4 4 0 0 1 4 4 3.9 3.9 0 0 1-1.371 2.986A4 4 0 0 1 45 67c0 2.075-1.58 3.781-3.785 3.985L41 71H8a4 4 0 0 1-4-4c0-1.187.517-2.253 1.371-2.986A4 4 0 0 1 4 61c0-2.075 1.58-3.781 3.785-3.985L8 57z"/></g></svg>