<svg xmlns="http://www.w3.org/2000/svg" xmlns:xlink="http://www.w3.org/1999/xlink" viewBox="0 0 96 96"><defs><radialGradient id="c" cx="50%" cy="50%" r="50.521%" fx="50%" fy="50%"><stop offset="0%" stop-color="#fff"/><stop offset="100%" stop-color="#e5e5e5"/></radialGradient><linearGradient id="b" x1="50%" x2="50%" y1="0%" y2="100%"><stop offset="0%" stop-color="#fff"/><stop offset="100%" stop-color="#eee"/></linearGradient><filter id="a" width="128.6%" height="128.6%" x="-14.3%" y="-14.3%" filterUnits="objectBoundingBox"><feOffset dy="2" in="SourceAlpha" result="shadowOffsetOuter1"/><feGaussianBlur in="shadowOffsetOuter1" result="shadowBlurOuter1" stdDeviation="2"/><feColorMatrix in="shadowBlurOuter1" result="shadowMatrixOuter1" values="0 0 0 0 0 0 0 0 0 0 0 0 0 0 0 0 0 0 0.2 0"/><feMerge><feMergeNode in="shadowMatrixOuter1"/><feMergeNode in="SourceGraphic"/></feMerge></filter></defs><g fill="none" fill-rule="evenodd" filter="url(#a)" transform="translate(6 6)"><circle cx="42" cy="42" r="42" fill="url(#b)"/><circle cx="42" cy="42" r="40" fill="url(#c)"/><g fill-rule="nonzero"><path fill="#40b883" d="M26.678 43.793c2.554 2.814 5.892 5.464 9.706 7.666 9.216 5.321 18.92 6.665 23.347 3.502a3 3 0 1 1 .798.654l.15-.121-.177.14c-4.75 3.623-14.978 2.257-24.618-3.309-3.902-2.252-7.32-4.968-9.947-7.86a.5.5 0 1 1 .74-.672M62 51a2 2 0 1 0 0 4 2 2 0 0 0 0-4"/><path fill="#33465d" d="M36.106 26.857a.5.5 0 1 1-.212.978c-6.543-1.42-11.647-.354-13.496 2.848-1.346 2.332-.867 5.6 1.318 9.199a.5.5 0 1 1-.855.519c-2.356-3.88-2.888-7.517-1.329-10.218 2.12-3.67 7.654-4.827 14.574-3.326"/><path fill="#40b883" d="M51.744 54.693c1.16-3.62 1.786-7.835 1.786-12.24 0-10.641-3.688-19.717-8.64-21.97a3 3 0 1 1 .167-1.018l-.18-.07.21.084c5.512 2.303 9.443 11.843 9.443 22.975 0 4.505-.642 8.823-1.834 12.544a.5.5 0 1 1-.952-.305m-11.42-34.194a2 2 0 1 0 3.464-2 2 2 0 0 0-3.464 2"/><path fill="#33465d" d="M32.363 54.995a.5.5 0 1 1 .953-.305c2.042 6.377 5.517 10.264 9.214 10.264 2.692 0 5.283-2.049 7.308-5.74a.5.5 0 1 1 .877.48c-2.183 3.98-5.066 6.26-8.185 6.26-4.239 0-8.007-4.216-10.167-10.959"/><path fill="#40b883" d="M48.016 28.169c-3.714.805-7.678 2.37-11.492 4.572-9.216 5.321-15.232 13.053-14.707 18.469a3 3 0 1 1-.965.364l.03.19-.033-.223c-.762-5.925 5.535-14.1 15.175-19.666 3.902-2.252 7.962-3.856 11.78-4.684a.5.5 0 1 1 .212.978M24.114 55.155a2 2 0 1 0-3.464-2 2 2 0 0 0 3.464 2"/><path fill="#33465d" d="M57.969 44.801a.5.5 0 1 1-.74-.672c4.5-4.957 6.13-9.91 4.28-13.111-1.346-2.332-4.415-3.551-8.625-3.459a.5.5 0 1 1-.022-1c4.539-.1 7.954 1.258 9.513 3.959 2.12 3.67.354 9.042-4.406 14.283"/></g><circle cx="42" cy="42" r="2" fill="#35485e"/></g></svg>