<svg xmlns="http://www.w3.org/2000/svg" viewBox="0 0 64 64"><path d="M18.316 7.73 6 14.918v14.219l5.992 3.562V18.473l.016.007 11.883-7.507zM40 9.125l-8 4.613-14 8.106V47.28L40 60l22-12.719V21.844z" opacity=".2"/><path fill="#ff7857" d="m40 33.563 11 6.349 11 6.37V20.843Z"/><path fill="#d04134" d="m51 39.912-11-6.35V59l22-12.719Z"/><path fill="#ffb99f" d="M32 12.74v16.2l8 4.623 22-12.72L40 8.126Z"/><path fill="#ff7857" d="M18 46.281 40 59V33.563l-8-4.623L18 37ZM32 28.94v-16.2l-14 8.104Z"/><path fill="#d04134" d="m32 28.94-14-8.096V37Z"/><path fill="#ff7857" d="m6 13.92 6.009 3.562L23.89 9.974l-5.575-3.242Z"/><path fill="#d04134" d="m6 28.137 5.991 3.563V17.465L6 13.919Z"/><path fill="#822826" d="M11.991 31.7 6 13.92v14.217z"/><path fill="#fff" d="M18.316 6.73 6 13.918v1L18.316 7.73l4.75 2.764.825-.521zM40 8.125l-8 4.613-14 8.106v1l14-8.106 8-4.613 22 12.719v-1z" opacity=".2"/><path d="M12.008 17.482 6.85 14.424 6 14.92l6.008 3.562s-.017-1.017 0-1m6.855 3.862-.863.5 14 8.095 8 4.624 11 6.35 11 6.368v-1l-11-6.369-11-6.35-8-4.623Z" opacity=".2"/></svg>