<svg xmlns="http://www.w3.org/2000/svg" xmlns:xlink="http://www.w3.org/1999/xlink" viewBox="0 0 96 96"><defs><linearGradient id="d" x1="18.242%" x2="78.273%" y1="72.31%" y2="51.231%"><stop offset="0%" stop-color="#aed7ff"/><stop offset="100%" stop-color="#4068a0"/></linearGradient><linearGradient id="e" x1="10.581%" x2="105.791%" y1="71.483%" y2="34.268%"><stop offset="0%" stop-color="#c4e1ff"/><stop offset="100%" stop-color="#4e76ac"/></linearGradient><filter id="a" width="130.8%" height="130.8%" x="-15.4%" y="-15.4%" filterUnits="objectBoundingBox"><feOffset dy="2" in="SourceAlpha" result="shadowOffsetOuter1"/><feGaussianBlur in="shadowOffsetOuter1" result="shadowBlurOuter1" stdDeviation="2"/><feColorMatrix in="shadowBlurOuter1" result="shadowMatrixOuter1" values="0 0 0 0 0 0 0 0 0 0 0 0 0 0 0 0 0 0 0.2 0"/><feMerge><feMergeNode in="shadowMatrixOuter1"/><feMergeNode in="SourceGraphic"/></feMerge></filter><path id="b" d="M12 0h54c6.627 0 12 5.373 12 12v54c0 6.627-5.373 12-12 12H12C5.373 78 0 72.627 0 66V12C0 5.373 5.373 0 12 0"/></defs><g fill="none" fill-rule="evenodd" filter="url(#a)" transform="translate(9 9)"><mask id="c" fill="#fff"><use xlink:href="#b"/></mask><use xlink:href="#b" fill="#fff"/><g mask="url(#c)"><path fill="url(#d)" d="M10.356 37.66v-7.491l3.061 1.414q10.274-10.666 19.598-17.469c2.88-2.101 10.065-6.248 12.696-8.07C51.596 1.965 53.953.001 56.185.001c3.23 0 14.808-.457 14.808 11.58 0 12.035-44.878 27.751-47.494 28.695q-2.615.943-8.652 0L3.267 51 0 49.009l9.324-7.618z" transform="translate(3.145 15.037)"/><path stroke="url(#e)" stroke-linecap="round" stroke-linejoin="round" stroke-width="2" d="M56.38 10.58Q33.76 21.21 24.158 29.216t-10.45 9.336" transform="translate(3.145 15.037)"/></g></g></svg>