<svg xmlns="http://www.w3.org/2000/svg" xmlns:xlink="http://www.w3.org/1999/xlink" viewBox="0 0 96 96"><defs><linearGradient id="d" x1="50%" x2="50%" y1="0%" y2="100%"><stop offset="0%" stop-color="#fff"/><stop offset="100%" stop-color="#f0f0f0"/></linearGradient><linearGradient id="f" x1="50%" x2="50%" y1="0%" y2="100%"><stop offset="0%" stop-color="#fff" stop-opacity=".5"/><stop offset="100%" stop-color="#fff" stop-opacity=".3"/></linearGradient><linearGradient id="g" x1="50%" x2="50%" y1="0%" y2="100%"><stop offset="0%" stop-color="#005bfb"/><stop offset="100%" stop-color="#2f9fec"/></linearGradient><linearGradient id="h" x1="50%" x2="50%" y1="0%" y2="100%"><stop offset="0%" stop-color="#0075e1"/><stop offset="100%" stop-color="#0497cc"/></linearGradient><filter id="a" width="128.6%" height="128.6%" x="-14.3%" y="-14.3%" filterUnits="objectBoundingBox"><feOffset dy="2" in="SourceAlpha" result="shadowOffsetOuter1"/><feGaussianBlur in="shadowOffsetOuter1" result="shadowBlurOuter1" stdDeviation="2"/><feColorMatrix in="shadowBlurOuter1" result="shadowMatrixOuter1" values="0 0 0 0 0 0 0 0 0 0 0 0 0 0 0 0 0 0 0.2 0"/><feMerge><feMergeNode in="shadowMatrixOuter1"/><feMergeNode in="SourceGraphic"/></feMerge></filter><filter id="e" width="101.2%" height="101.2%" x="-.6%" y="-.6%" filterUnits="objectBoundingBox"><feOffset dy="-1" in="SourceAlpha" result="shadowOffsetInner1"/><feComposite in="shadowOffsetInner1" in2="SourceAlpha" k2="-1" k3="1" operator="arithmetic" result="shadowInnerInner1"/><feColorMatrix in="shadowInnerInner1" values="0 0 0 0 0 0 0 0 0 0 0 0 0 0 0 0 0 0 0.2 0"/></filter><circle id="b" cx="42" cy="42" r="42"/></defs><g fill="none" fill-rule="evenodd" filter="url(#a)" transform="translate(7 5)"><use xlink:href="#b" fill="url(#d)"/><use xlink:href="#b" fill="#000" filter="url(#e)"/><circle cx="42" cy="42" r="41.5" stroke="url(#f)" stroke-linejoin="square"/><path fill="url(#g)" d="M55 23q.289 0 .56.052a5.5 5.5 0 0 1 3.778 9.387l-9.513 9.513 6.916 6.859A3.5 3.5 0 0 1 58 51.5v11a3.5 3.5 0 0 1-7 0v-9.522l-8.98-8.909a7 7 0 0 1-.453-.493 5.5 5.5 0 0 1-.613-8.308l.664-.665a7 7 0 0 1 .362-.393l.02-.02.016.015L47.22 29H32a3 3 0 1 1 0-6zM38.864 43.186l4.95 4.95-15.91 15.91a3.5 3.5 0 1 1-4.95-4.95zM63 15a5 5 0 1 1 0 10 5 5 0 0 1 0-10"/><path fill="url(#h)" fill-rule="nonzero" d="m15.736 59.453.107.097 9.193 9.193a.5.5 0 0 0 .637.057l.07-.057 1.414-1.415a1.5 1.5 0 0 1 2.218 2.015l-.097.107-1.414 1.414a3.5 3.5 0 0 1-4.81.132l-.14-.132-9.192-9.192a1.5 1.5 0 0 1 2.014-2.219M64 63a1.5 1.5 0 0 1 1.493 1.356l.007.144v2a3.5 3.5 0 0 1-3.308 3.495L62 70H49a1.5 1.5 0 0 1-.144-2.993L49 67h13a.5.5 0 0 0 .492-.41l.008-.09v-2A1.5 1.5 0 0 1 64 63"/></g></svg>