<svg xmlns="http://www.w3.org/2000/svg" xmlns:xlink="http://www.w3.org/1999/xlink" viewBox="0 0 96 96"><defs><linearGradient id="b" x1="14.262%" x2="76.574%" y1="14.902%" y2="85.391%"><stop offset="0%" stop-color="#ededed"/><stop offset="100%" stop-color="#c1c1c1"/></linearGradient><filter id="a" width="128.6%" height="128.6%" x="-14.3%" y="-14.3%" filterUnits="objectBoundingBox"><feOffset dy="2" in="SourceAlpha" result="shadowOffsetOuter1"/><feGaussianBlur in="shadowOffsetOuter1" result="shadowBlurOuter1" stdDeviation="2"/><feColorMatrix in="shadowBlurOuter1" result="shadowMatrixOuter1" values="0 0 0 0 0 0 0 0 0 0 0 0 0 0 0 0 0 0 0.2 0"/><feMerge><feMergeNode in="shadowMatrixOuter1"/><feMergeNode in="SourceGraphic"/></feMerge></filter></defs><g fill="none" fill-rule="evenodd" filter="url(#a)" transform="translate(6 6)"><path fill="#f1f1f1" fill-rule="nonzero" d="M42 1.91c22.142 0 40.09 17.948 40.09 40.09S64.143 82.09 42 82.09 1.91 64.143 1.91 42 19.857 1.91 42 1.91m0 29.59c-5.799 0-10.5 4.701-10.5 10.5S36.201 52.5 42 52.5 52.5 47.799 52.5 42 47.799 31.5 42 31.5"/><circle cx="42" cy="42" r="9.5" stroke="#000" stroke-opacity=".696" stroke-width="2"/><path fill="#000" fill-opacity=".795" fill-rule="nonzero" d="M42 0c23.196 0 42 18.804 42 42S65.196 84 42 84 0 65.196 0 42 18.804 0 42 0m0 1.91C19.858 1.91 1.91 19.857 1.91 42c0 21.92 17.591 39.732 39.427 40.086l.663.005.663-.005C64.499 81.732 82.091 63.92 82.091 42 82.09 19.858 64.14 1.91 42 1.91"/><path fill="url(#b)" fill-rule="nonzero" d="M42 1.91c22.142 0 40.09 17.948 40.09 40.09S64.143 82.09 42 82.09 1.91 64.143 1.91 42 19.857 1.91 42 1.91m0 21c-10.544 0-19.09 8.546-19.09 19.09S31.455 61.09 42 61.09 61.09 52.545 61.09 42 52.545 22.91 42 22.91"/><path fill="#4e4e4e" fill-rule="nonzero" d="M42 1.91c3.525 0 6.944.454 10.2 1.308l2 7.781-9.348 5.894 7.858 6.016-10.173 8.604A11 11 0 0 0 42 31.5l-.12.001 4.109-8.592-8.715-4.773 6.635-7.925-7.088-7.97A40.5 40.5 0 0 1 42 1.909"/></g></svg>