<svg xmlns="http://www.w3.org/2000/svg" xmlns:xlink="http://www.w3.org/1999/xlink" viewBox="0 0 96 96"><defs><linearGradient id="b" x1="50%" x2="50%" y1="0%" y2="100%"><stop offset="0%" stop-color="#c8c4d9"/><stop offset="100%" stop-color="#a2a0ae"/></linearGradient><linearGradient id="c" x1="50%" x2="50%" y1="0%" y2="100%"><stop offset="0%" stop-color="#f5f5f5"/><stop offset="100%" stop-color="#b7b5c3"/></linearGradient><linearGradient id="d" x1="50%" x2="50%" y1="0%" y2="100%"><stop offset="0%" stop-color="#6e698c"/><stop offset="46.408%" stop-color="#181526"/><stop offset="100%" stop-color="#181526"/></linearGradient><linearGradient id="e" x1="50%" x2="50%" y1="0%" y2="100%"><stop offset="0%" stop-color="#a19db3"/><stop offset="100%" stop-color="#6e6c7a"/></linearGradient><filter id="a" width="130.8%" height="130.8%" x="-15.4%" y="-15.4%" filterUnits="objectBoundingBox"><feOffset dy="2" in="SourceAlpha" result="shadowOffsetOuter1"/><feGaussianBlur in="shadowOffsetOuter1" result="shadowBlurOuter1" stdDeviation="2"/><feColorMatrix in="shadowBlurOuter1" result="shadowMatrixOuter1" values="0 0 0 0 0 0 0 0 0 0 0 0 0 0 0 0 0 0 0.2 0"/><feMerge><feMergeNode in="shadowMatrixOuter1"/><feMergeNode in="SourceGraphic"/></feMerge></filter></defs><g fill="none" filter="url(#a)" transform="translate(9 9)"><path fill="url(#b)" d="M17.643.929h42.714c9.231 0 16.714 7.574 16.714 16.918v43.235C77.071 70.426 69.588 78 60.357 78H17.643C8.412 78 .929 70.426.929 61.082V17.847C.929 8.503 8.412.929 17.643.929"/><path fill="#2f2c41" d="M12.688 4h51.625C66.349 4 68 5.62 68 7.619v11.762C68 21.38 66.35 23 64.313 23H12.688C10.65 23 9 21.38 9 19.381V7.619C9 5.62 10.651 4 12.688 4"/><path fill="#c9c6d9" d="M64 3H13c-2.931 0-5 2.044-5 5v11c0 2.956 2.069 5 5 5h51c2.931 0 5-2.044 5-5V8c0-2.956-2.069-5-5-5m0 1c2.35 0 4 1.62 4 4v11c0 2.38-1.65 4-4 4H13c-2.349 0-4-1.62-4-4V8c0-2.38 1.651-4 4-4z"/><path fill="#cdcdcd" d="M13.88 16.765v-3.02h3.119v-.784h-3.12v-2.059h3.605v-.784H13v6.647zm5.64 0v-2.952h1.02q.34 0 .49.032.204.05.401.177.197.126.447.444.249.318.634.916l.88 1.383h1.106l-1.156-1.81a4.6 4.6 0 0 0-.73-.883 2.3 2.3 0 0 0-.53-.331q.956-.132 1.414-.617.459-.485.458-1.192 0-.549-.276-1.003a1.48 1.48 0 0 0-.74-.632q-.462-.18-1.35-.18H18.64v6.648zm1.89-3.714h-1.89v-2.199h2.104q.739 0 1.081.304a.99.99 0 0 1 .342.776q0 .321-.176.596-.177.275-.517.399t-.943.124m8.901 3.714v-.785h-4.08v-2.262h3.676v-.78H26.23v-2.036h3.927v-.784H25.35v6.647zm6.193 0v-.785h-4.08v-2.262H36.1v-.78h-3.677v-2.036h3.926v-.784h-4.806v6.647zm2.095 0v-2.703h1.705q1.41 0 1.95-.587t.54-1.435q0-.494-.203-.906a1.63 1.63 0 0 0-.532-.642 2 2 0 0 0-.821-.31q-.35-.064-1.011-.064H37.72v6.647zm1.719-3.487H38.6v-2.376h1.7q.6 0 .821.06.345.094.556.391.21.297.21.715 0 .575-.358.893-.358.317-1.21.317m4.624 3.487v-6.647h-.88v6.647zm1.755 0 .73-2.013h2.78l.775 2.013h1.002l-2.72-6.647h-.948l-2.553 6.647zm3.237-2.73h-2.253l.73-1.95q.23-.63.358-1.269.154.54.472 1.378zm3.587 2.73v-5.223l3.49 5.223h.903v-6.647h-.843v5.219l-3.491-5.22h-.903v6.648zm8.782.113q.866 0 1.614-.41a2.8 2.8 0 0 0 1.156-1.209q.409-.798.409-1.809 0-.998-.388-1.784a2.87 2.87 0 0 0-1.127-1.226 3.2 3.2 0 0 0-1.66-.44q-1.404 0-2.294.936-.888.936-.888 2.591 0 .876.38 1.66.382.784 1.12 1.238a3.14 3.14 0 0 0 1.678.453m-.004-.753q-.975 0-1.621-.691-.646-.69-.646-1.893 0-1.5.673-2.142a2.25 2.25 0 0 1 1.607-.642q.658 0 1.186.333.528.334.802.939.275.606.275 1.417 0 1.283-.642 1.981t-1.634.698"/><path fill="url(#c)" d="M16.278 27h45.44c4.572 0 8.278 3.696 8.279 8.254L70 73.949c-.78.556-1.439 1.223-1.975 1.449l-.174.069c-1.906.707-1.652 1.283-3.439 1.294l-39.52.225c-5.826.022-9.193.019-10.113-.016-2.32-.088-4.579-1.391-6.779-2.974V35.254C8 30.695 11.706 27 16.278 27"/><path fill="#6e6c7a" d="M61.735 26h-45.47C11.148 26 7 30.157 7 35.286v39.113c2.951 1.976 6.04 3.33 9.265 3.601h45.47c2.018 0 5.107-1.443 9.265-3.775V35.286C71 30.157 66.852 26 61.735 26m-.056 1c4.593 0 8.317 3.731 8.317 8.333V68.62c0 1.414.002 3.023.004 5.282-3.034 1.802-5.808 3.019-8.321 3.099H16.318C13.3 76.773 10.528 75.603 8 73.95V35.333C8 30.731 11.724 27 16.318 27z"/><path fill="#fff" d="M24 27v30.118c0 1.04-.784 1.882-1.75 1.882h-4.5c-.966 0-1.75-.843-1.75-1.882V27zm13 0v30.118c0 1.04-.79 1.882-1.763 1.882h-4.474C29.789 59 29 58.157 29 57.118V27zm13 0v30.118c0 1.04-.79 1.882-1.763 1.882h-4.474C42.789 59 42 58.157 42 57.118V27zm13 .084v30.034c0 1.04-.79 1.882-1.763 1.882h-4.474C55.789 59 55 58.157 55 57.118V27h7.032z"/><path fill="url(#d)" d="M17 27h6v29.121C23 57.16 22.105 58 21 58h-2c-1.105 0-2-.841-2-1.879zm13 0h6v29.121C36 57.16 35.105 58 34 58h-2c-1.105 0-2-.841-2-1.879zm13 0h6v29.121C49 57.16 48.105 58 47 58h-2c-1.105 0-2-.841-2-1.879zm13 0h6v29.121C62 57.16 61.105 58 60 58h-2c-1.105 0-2-.841-2-1.879z"/><path fill="#000" fill-opacity=".4" d="M19 59h1v19h-1zm13 0h1v19h-1zm26 0h1v19h-1zm-13 0h1v19h-1z"/><path fill="url(#e)" d="M60.357 0H17.643C7.899 0 0 7.899 0 17.643v42.714C0 70.101 7.899 78 17.643 78h42.714C70.101 78 78 70.101 78 60.357V17.643C78 7.899 70.101 0 60.357 0m0 .929c9.231 0 16.714 7.483 16.714 16.714v42.714c0 9.231-7.483 16.714-16.714 16.714H17.643C8.412 77.071.929 69.588.929 60.357V17.643C.929 8.412 8.412.929 17.643.929z"/></g></svg>