<svg xmlns="http://www.w3.org/2000/svg" viewBox="0 0 64 64"><path d="M41.693 19.08a5.966 5.966 0 0 0-8.456 0L13.812 38.104c-1.584 1.55-2.062 4.068-1.532 6.059l-6.523 6.624a5.966 5.966 0 0 0 0 8.455 5.966 5.966 0 0 0 8.455 0l6.924-7.323c1.99.53 4.192.036 5.76-1.532L45.92 31.763a5.966 5.966 0 0 0 0-8.456z" opacity=".2"/><path d="m24 23.639 7.716 7.716 1.93 1.929L41.36 41l7.717-7.716 4.63-4.63 3.086-3.086a10.89 10.89 0 0 0 0-15.433l-1.93-1.929a10.89 10.89 0 0 0-15.432 0l-3.085 3.086-4.63 4.63z" opacity=".2"/><path fill="#e4e4e4" d="M41.693 18.08a5.966 5.966 0 0 0-8.456 0L13.812 37.104c-1.584 1.55-2.062 4.068-1.532 6.059l-6.523 6.624a5.966 5.966 0 0 0 0 8.455 5.966 5.966 0 0 0 8.455 0l6.924-7.323c1.99.53 4.192.036 5.76-1.532L45.92 30.763a5.966 5.966 0 0 0 0-8.456z"/><path fill="#fff" d="M37.465 16.322a5.96 5.96 0 0 0-4.227 1.758L13.813 37.105c-1.291 1.264-1.837 3.167-1.711 4.907.11-1.438.665-2.882 1.71-3.907L33.239 19.08a5.965 5.965 0 0 1 8.455 0l4.227 4.227a5.96 5.96 0 0 1 1.734 3.728 5.96 5.96 0 0 0-1.734-4.728l-4.227-4.227a5.96 5.96 0 0 0-4.228-1.758m-25.342 27-6.367 6.465a5.96 5.96 0 0 0-1.733 4.729 5.96 5.96 0 0 1 1.733-3.729l6.523-6.623a6 6 0 0 1-.156-.842" opacity=".2"/><path fill="#ff9913" d="m24 22.639 7.716 7.716 1.93 1.929L41.36 40l7.717-7.716 4.63-4.63 3.086-3.086a10.89 10.89 0 0 0 0-15.433l-1.93-1.929a10.89 10.89 0 0 0-15.432 0l-3.085 3.086-4.63 4.63z"/><path d="M22.077 17a4.078 4.078 0 0 0-2.84 7.002L40.98 45.746a4.078 4.078 0 1 0 5.765-5.765L25.002 18.236A4.08 4.08 0 0 0 22.077 17" opacity=".1"/><path fill="#fff" d="M47.148 4c-2.789 0-5.577 1.07-7.714 3.207l-3.086 3.086-4.633 4.629L24 22.637l.426.425 7.14-7.14 4.633-4.629 3.086-3.086A10.88 10.88 0 0 1 47 5c2.79 0 5.577 1.07 7.715 3.207l1.93 1.93a10.86 10.86 0 0 1 3.138 6.586c.075.374.135.75.17 1.129a10.87 10.87 0 0 0-3.16-8.715l-1.93-1.93A10.88 10.88 0 0 0 47.148 4" opacity=".2"/><path fill="#ffbc48" d="M22.077 16a4.078 4.078 0 0 0-2.84 7.002L40.98 44.746a4.078 4.078 0 1 0 5.765-5.765L25.002 17.236A4.08 4.08 0 0 0 22.077 16"/><rect width="5.765" height="23.06" x="42.37" y="11.1" fill="#4e79ff" rx="2.883" ry="2.883" transform="rotate(45)"/><path fill="#fff" d="M22.078 16a4.078 4.078 0 0 0-4.04 4.602A4.08 4.08 0 0 1 22.077 17 4.08 4.08 0 0 1 25 18.238L46.746 39.98a4.08 4.08 0 0 1 1.215 2.442 4.08 4.08 0 0 0-1.215-3.442L25 17.238A4.08 4.08 0 0 0 22.078 16" opacity=".2"/></svg>