<svg xmlns="http://www.w3.org/2000/svg" xmlns:xlink="http://www.w3.org/1999/xlink" viewBox="0 0 96 96"><defs><linearGradient id="b" x1="50%" x2="50%" y1="0%" y2="97.255%"><stop offset="0%" stop-color="#ffc167"/><stop offset="100%" stop-color="#8b4700"/></linearGradient><linearGradient id="c" x1="50%" x2="50%" y1="0%" y2="99.459%"><stop offset="0%" stop-color="#e7f5ff"/><stop offset="100%" stop-color="#005ea5"/></linearGradient><linearGradient id="d" x1="50%" x2="50%" y1="0%" y2="100%"><stop offset="0%" stop-color="#d8ffca"/><stop offset="100%" stop-color="#00732f"/></linearGradient><linearGradient id="e" x1="50%" x2="50%" y1="0%" y2="99.459%"><stop offset="0%" stop-color="#e7f5ff"/><stop offset="64.808%" stop-color="#b1deff"/><stop offset="100%" stop-color="#94d1ff"/></linearGradient><linearGradient id="f" x1="50%" x2="71.714%" y1="2.789%" y2="386.028%"><stop offset="0%" stop-color="#ffcfcf"/><stop offset="100%" stop-color="#ffa4c6"/></linearGradient><linearGradient id="g" x1="50%" x2="50%" y1="0%" y2="100%"><stop offset="0%" stop-color="#ffe779"/><stop offset="100%" stop-color="#b75300"/></linearGradient><linearGradient id="h" x1="50%" x2="50%" y1="2.789%" y2="97.255%"><stop offset="0%" stop-color="#ffbaba"/><stop offset="100%" stop-color="#9e003a"/></linearGradient><filter id="a" width="140.7%" height="126.9%" x="-20.3%" y="-13.4%" filterUnits="objectBoundingBox"><feOffset dy="2" in="SourceAlpha" result="shadowOffsetOuter1"/><feGaussianBlur in="shadowOffsetOuter1" result="shadowBlurOuter1" stdDeviation="2"/><feColorMatrix in="shadowBlurOuter1" result="shadowMatrixOuter1" values="0 0 0 0 0 0 0 0 0 0 0 0 0 0 0 0 0 0 0.2 0"/><feMerge><feMergeNode in="shadowMatrixOuter1"/><feMergeNode in="SourceGraphic"/></feMerge></filter></defs><g fill="none" filter="url(#a)" transform="translate(18 3)"><path fill="url(#b)" d="M30.507 89.338a8.18 8.18 0 0 0 7.63-5.237L55 40.338H6L22.876 84.1a8.18 8.18 0 0 0 7.631 5.237"/><circle cx="14" cy="31.338" r="14" fill="url(#c)"/><circle cx="33" cy="14.338" r="12" fill="url(#d)"/><path fill="url(#e)" d="M5.458 2.228 7.146.877a4 4 0 0 1 5.593.588l12.78 15.593a4 4 0 0 1-.392 5.486l-.203.173-1.689 1.351a4 4 0 0 1-5.593-.587L4.862 7.887a4 4 0 0 1 .393-5.486z"/><path fill="url(#f)" d="m20.944 11.476 3.57 4.356-7.936 6.35-3.57-4.356zm-6.426-7.841 3.57 4.356-7.936 6.35-3.57-4.357z"/><circle cx="26" cy="32.338" r="12" fill="url(#g)"/><ellipse cx="43.5" cy="32.338" fill="url(#h)" rx="15.5" ry="15"/></g></svg>