<svg xmlns="http://www.w3.org/2000/svg" xmlns:xlink="http://www.w3.org/1999/xlink" viewBox="0 0 96 96"><defs><linearGradient id="d" x1="22.089%" x2="84.373%" y1="15.184%" y2="78.178%"><stop offset="0%" stop-opacity=".2"/><stop offset="100%" stop-opacity="0"/></linearGradient><linearGradient id="e" x1="100%" x2="50%" y1="50%" y2="50%"><stop offset="0%" stop-color="#c2c2c2"/><stop offset="100%" stop-color="#fff"/></linearGradient><filter id="a" width="128.6%" height="128.6%" x="-14.3%" y="-14.3%" filterUnits="objectBoundingBox"><feOffset dy="2" in="SourceAlpha" result="shadowOffsetOuter1"/><feGaussianBlur in="shadowOffsetOuter1" result="shadowBlurOuter1" stdDeviation="2"/><feColorMatrix in="shadowBlurOuter1" result="shadowMatrixOuter1" values="0 0 0 0 0 0 0 0 0 0 0 0 0 0 0 0 0 0 0.2 0"/><feMerge><feMergeNode in="shadowMatrixOuter1"/><feMergeNode in="SourceGraphic"/></feMerge></filter><filter id="c" width="102.4%" height="102.4%" x="-1.2%" y="-1.2%" filterUnits="objectBoundingBox"><feOffset dy="-2" in="SourceAlpha" result="shadowOffsetInner1"/><feComposite in="shadowOffsetInner1" in2="SourceAlpha" k2="-1" k3="1" operator="arithmetic" result="shadowInnerInner1"/><feColorMatrix in="shadowInnerInner1" values="0 0 0 0 0 0 0 0 0 0 0 0 0 0 0 0 0 0 0.2 0"/></filter><circle id="b" cx="42" cy="42" r="42"/></defs><g fill="none" fill-rule="evenodd" filter="url(#a)" transform="translate(6 6)"><use xlink:href="#b" fill="#5a0f38"/><use xlink:href="#b" fill="#000" filter="url(#c)"/><path fill="url(#d)" d="m41.5 84-13-11 4-24.5L19 35l5.5-.5V29L40 44.5l3 1.5 1-34.5L83 50q-4 17-14.5 24.5t-27 9.5"/><path fill="#fff" d="M23 33q1.25-1.25 1.5-4 .3 2.8 1.5 4t4 1.5q-2.75.75-4 2t-1.5 3.518Q24.25 37.75 23 36.5t-4-2q2.75-.25 4-1.5m36.273 10.285q1.022-1.02 1.227-3.267.246 2.287 1.227 3.267.983.98 3.273 1.225-2.25.613-3.273 1.634-1.022 1.02-1.227 2.874-.204-1.852-1.227-2.874Q58.25 45.124 56 44.51q2.25-.204 3.273-1.225"/><rect width="4" height="36" x="40" y="10" fill="url(#e)" rx="2"/><path fill="#fbce41" d="M42 44v29H28l1-16c0-7.18 5.82-13 13-13"/><path fill="#ffb344" d="M42 44v29h14l-1-16c0-7.18-5.82-13-13-13"/><path fill="#ed3333" fill-opacity=".604" d="M42 54v3H29c0-1.033.12-2.037.348-3z"/><path fill="#9f1212" fill-opacity=".6" d="M42 54v3h13c0-1.033-.12-2.037-.348-3z"/></g></svg>