<svg xmlns="http://www.w3.org/2000/svg" xmlns:xlink="http://www.w3.org/1999/xlink" viewBox="0 0 96 96"><defs><radialGradient id="b" cx="50%" cy="47.877%" r="52.142%" fx="50%" fy="47.877%"><stop offset="0%" stop-color="#fff"/><stop offset="55.373%" stop-color="#fafafa"/><stop offset="100%" stop-color="#d5d5d5"/></radialGradient><radialGradient id="c" cx="50%" cy="47.877%" r="61.225%" fx="50%" fy="47.877%" gradientTransform="matrix(-.6463 .62676 -.51986 -.77921 1.072 .538)"><stop offset="0%" stop-color="#fef800"/><stop offset="100%" stop-color="#e29500"/></radialGradient><filter id="a" width="128.6%" height="128.6%" x="-14.3%" y="-14.3%" filterUnits="objectBoundingBox"><feOffset dy="2" in="SourceAlpha" result="shadowOffsetOuter1"/><feGaussianBlur in="shadowOffsetOuter1" result="shadowBlurOuter1" stdDeviation="2"/><feColorMatrix in="shadowBlurOuter1" result="shadowMatrixOuter1" values="0 0 0 0 0 0 0 0 0 0 0 0 0 0 0 0 0 0 0.2 0"/><feMerge><feMergeNode in="shadowMatrixOuter1"/><feMergeNode in="SourceGraphic"/></feMerge></filter></defs><g fill="none" fill-rule="evenodd" filter="url(#a)" transform="translate(6 6)"><circle cx="42" cy="42" r="42" fill="url(#b)"/><path fill="url(#c)" d="M63.53 5.93C75.79 13.265 84 26.674 84 42q0 .894-.037 1.78-11.847.329-18.963 3.176c-22.179 8.875-38.844 20.378-48.199 28.647C6.6 67.941 0 55.741 0 42q.001-1.928.17-3.812Q20.153 13.812 61.559 6.27q.97-.175 1.912-.33Z"/><circle cx="46" cy="32" r="19" fill="#fff"/><path fill="#000" fill-rule="nonzero" stroke="#000" d="M46.282 42.275q.92-.532.46-1.332l-8.68-15.035q-.56-.969-1.798-.255l-1.673.966q-.411.238-.487.556-.075.318.247.875.322.558.59.63t.68-.166l1.091-.63 8.162 14.137q.462.8 1.408.254Zm10.039-5.796q1.164-.672 1.925-1.565a5.4 5.4 0 0 0 1.082-1.934 5.2 5.2 0 0 0 .19-2.162q-.13-1.122-.788-2.261-.546-.946-1.33-1.464a4.5 4.5 0 0 0-1.652-.678 5.5 5.5 0 0 0-1.74-.046 6.6 6.6 0 0 0-1.606.41q.393-.55.729-1.23.335-.678.49-1.446t.055-1.584q-.099-.816-.589-1.665-.602-1.043-1.4-1.584a4.1 4.1 0 0 0-1.683-.677q-.887-.135-1.827.085a6.6 6.6 0 0 0-1.813.723 5.9 5.9 0 0 0-1.549 1.266 5 5 0 0 0-.932 1.605 4.1 4.1 0 0 0-.197 1.844q.109.972.683 1.966.294.51.7.68t.768-.04q.485-.28.555-.693.069-.411-.21-.896-.701-1.213-.399-2.341.303-1.128 1.442-1.787 1.092-.63 2.26-.399t1.91 1.517q.336.581.403 1.286.068.705-.112 1.374t-.595 1.265a3.2 3.2 0 0 1-1.047.96q-.8.462-.637 1.08.102.457.378.654a.96.96 0 0 0 .682.286q.39 0 .752-.209a6.5 6.5 0 0 1 1.548-.65 4.4 4.4 0 0 1 1.566-.145q.77.073 1.447.49t1.153 1.242q.378.654.477 1.357t-.088 1.36a3.5 3.5 0 0 1-.647 1.231 4.2 4.2 0 0 1-1.189.993q-.825.477-1.551.59a3.2 3.2 0 0 1-1.34-.052 3.3 3.3 0 0 1-1.084-.506 3 3 0 0 1-.776-.813q-.343-.48-.784-.517-.441-.036-.732.132a.92.92 0 0 0-.48.68q-.067.444.147.87.363.63 1.077 1.221a4.9 4.9 0 0 0 1.678.89q.965.3 2.155.179 1.191-.123 2.525-.892Z"/></g></svg>