<svg xmlns="http://www.w3.org/2000/svg" xmlns:xlink="http://www.w3.org/1999/xlink" viewBox="0 0 96 96"><defs><filter id="a" width="131.6%" height="131.6%" x="-15.8%" y="-15.8%" filterUnits="objectBoundingBox"><feOffset dy="2" in="SourceAlpha" result="shadowOffsetOuter1"/><feGaussianBlur in="shadowOffsetOuter1" result="shadowBlurOuter1" stdDeviation="2"/><feColorMatrix in="shadowBlurOuter1" result="shadowMatrixOuter1" values="0 0 0 0 0 0 0 0 0 0 0 0 0 0 0 0 0 0 0.2 0"/><feMerge><feMergeNode in="shadowMatrixOuter1"/><feMergeNode in="SourceGraphic"/></feMerge></filter></defs><g fill="none" filter="url(#a)" transform="translate(10 10)"><rect width="76" height="76" fill="#ff3847" rx="18"/><path fill="#e60045" d="M38 6C20.4 6 6 20.2 6 38s14.4 32 32 32 32-14.4 32-32S55.6 6 38 6"/><path fill="#eff5f4" d="M38 6C20.4 6 6 20.2 6 38s14.4 32 32 32 32-14.4 32-32S55.6 6 38 6m0 60c-15.4 0-28-12.6-28-28s12.6-28 28-28 28 12.6 28 28-12.6 28-28 28"/><path fill="#fff" d="M56 36.4c-4.4-1-7.6-2.4-11-4.4h11v-4H40v-2.6c4.4-.2 14-1 14-1v-4S35 22 24.4 22h-.6v4s8-.2 12-.4V28h-14v4h10.6c-3.4 2-6.6 3.6-10.6 5.2V41l4-1.4V42h5.8c0 5.6-3.2 7.4-9.8 8v4s14 .4 14-12h6l-2 2v4h9.6c-.2 1.6-.6 2-2.4 2h-9v4h10c7.2-.2 6-10 6-10h-8.4l2.4-3v-3h-8v-4.8c5.8 4.8 16 7.2 16 7.2zM36 34v4h-6.6c3.6-2 4.4-2.4 6.6-4"/></g></svg>