<svg xmlns="http://www.w3.org/2000/svg" xmlns:xlink="http://www.w3.org/1999/xlink" viewBox="0 0 96 96"><defs><linearGradient id="b" x1="50%" x2="50%" y1=".265%" y2="50%"><stop offset="0%" stop-color="#e8e8e8"/><stop offset="100%" stop-color="silver"/></linearGradient><linearGradient id="c" x1="50%" x2="50%" y1="0%" y2="96.464%"><stop offset="0%" stop-color="#b4b4b4"/><stop offset="100%" stop-color="#8f8f8f"/></linearGradient><linearGradient id="d" x1="50%" x2="50%" y1=".968%" y2="98.123%"><stop offset="0%" stop-color="#6e6e6e"/><stop offset="100%" stop-color="#414141"/></linearGradient><linearGradient id="e" x1="50%" x2="50%" y1="0%" y2="96.464%"><stop offset="0%" stop-color="#cdcdcd"/><stop offset="100%" stop-color="#a0a0a0"/></linearGradient><filter id="a" width="127.3%" height="141.4%" x="-13.6%" y="-20.7%" filterUnits="objectBoundingBox"><feOffset dy="2" in="SourceAlpha" result="shadowOffsetOuter1"/><feGaussianBlur in="shadowOffsetOuter1" result="shadowBlurOuter1" stdDeviation="2"/><feColorMatrix in="shadowBlurOuter1" result="shadowMatrixOuter1" values="0 0 0 0 0 0 0 0 0 0 0 0 0 0 0 0 0 0 0.2 0"/><feMerge><feMergeNode in="shadowMatrixOuter1"/><feMergeNode in="SourceGraphic"/></feMerge></filter></defs><g fill="none" fill-rule="evenodd" filter="url(#a)" transform="translate(4 19)"><path fill="url(#b)" d="M35 0c6.083 0 11.532 2.716 15.2 7H86a2 2 0 0 1 2 2v5a2 2 0 0 1-2 2H54.6c.262 1.293.4 2.63.4 4 0 11.046-8.954 20-20 20s-20-8.954-20-20S23.954 0 35 0"/><path fill="url(#c)" d="M8 20h65a8 8 0 0 1 8 8v9a8 8 0 0 1-8 8H8a8 8 0 0 1-8-8v-9a8 8 0 0 1 8-8"/><path fill="url(#d)" d="M15.5 39h47a9.5 9.5 0 0 1 0 19h-47a9.5 9.5 0 0 1 0-19"/><circle cx="16" cy="48" r="6" fill="url(#e)"/><circle cx="31" cy="48" r="6" fill="url(#e)"/><circle cx="46" cy="48" r="6" fill="url(#e)"/><circle cx="61" cy="48" r="6" fill="url(#e)"/></g></svg>