<svg xmlns="http://www.w3.org/2000/svg" xmlns:xlink="http://www.w3.org/1999/xlink" viewBox="0 0 96 96"><defs><linearGradient id="b" x1="50%" x2="50%" y1="2.353%" y2="100%"><stop offset="0%" stop-color="#80c0ff"/><stop offset="100%" stop-color="#5571ea"/></linearGradient><filter id="a" width="128.6%" height="128.6%" x="-14.3%" y="-14.3%" filterUnits="objectBoundingBox"><feOffset dy="2" in="SourceAlpha" result="shadowOffsetOuter1"/><feGaussianBlur in="shadowOffsetOuter1" result="shadowBlurOuter1" stdDeviation="2"/><feColorMatrix in="shadowBlurOuter1" result="shadowMatrixOuter1" values="0 0 0 0 0 0 0 0 0 0 0 0 0 0 0 0 0 0 0.2 0"/><feMerge><feMergeNode in="shadowMatrixOuter1"/><feMergeNode in="SourceGraphic"/></feMerge></filter></defs><g fill="none" fill-rule="evenodd" filter="url(#a)" transform="translate(6 6)"><circle cx="42" cy="42" r="42" fill="url(#b)" fill-rule="nonzero"/><path fill="#d8d8d8" stroke="#979797" d="M55 20.5a6.48 6.48 0 0 1 4.596 1.904A6.48 6.48 0 0 1 61.5 27a6.48 6.48 0 0 1-1.904 4.596A6.48 6.48 0 0 1 55 33.5H29a6.48 6.48 0 0 1-4.596-1.904A6.48 6.48 0 0 1 22.5 27a6.48 6.48 0 0 1 1.904-4.596A6.48 6.48 0 0 1 29 20.5Z" opacity=".539"/><path fill="#fff" d="M55 20a7 7 0 0 1 4.728 12.162h.008l-.02.017-.078.065-.007.006q-.136.12-.279.233l-.15.125-.175.145-3.997 3.32q-3.988 3.559-10.374 8.642l-.549.435L49.023 34H29a7 7 0 0 1 0-14z"/><path fill="#fff" d="M29 64.15a7 7 0 0 1-4.728-12.162h-.008l.02-.017.078-.065.007-.006q.136-.12.279-.233l.15-.125.175-.145 3.997-3.32q3.988-3.559 10.374-8.642l.549-.435-4.916 11.15H55a7 7 0 0 1 0 14z"/></g></svg>