<svg xmlns="http://www.w3.org/2000/svg" xmlns:xlink="http://www.w3.org/1999/xlink" viewBox="0 0 96 96"><defs><linearGradient id="b" x1="50%" x2="50%" y1="2.04%" y2="98.193%"><stop offset="0%" stop-color="#74fde5"/><stop offset="100%" stop-color="#00a8d4"/></linearGradient><filter id="a" width="129.4%" height="128.6%" x="-14.7%" y="-14.3%" filterUnits="objectBoundingBox"><feOffset dy="2" in="SourceAlpha" result="shadowOffsetOuter1"/><feGaussianBlur in="shadowOffsetOuter1" result="shadowBlurOuter1" stdDeviation="2"/><feColorMatrix in="shadowBlurOuter1" result="shadowMatrixOuter1" values="0 0 0 0 0 0 0 0 0 0 0 0 0 0 0 0 0 0 0.2 0"/><feMerge><feMergeNode in="shadowMatrixOuter1"/><feMergeNode in="SourceGraphic"/></feMerge></filter></defs><g fill="none" fill-rule="evenodd" filter="url(#a)" transform="translate(3.795 6)"><circle cx="44.205" cy="42" r="42" fill="url(#b)"/><path stroke="#fff" stroke-linecap="round" stroke-linejoin="round" stroke-width="2" d="M0 44.826h12.501q2.184 4.887 2.96 3.741c.778-1.145 2.43-9.819 3.25-7.617s2.39 10.91 3.707 9.264 3.04-34.862 4.891-34.493c2.79.078 3.214 53.622 5.162 53.622 3.694 1.437 2.242-38.624 2.879-43.862.636-5.237 3.254-5.628 3.671.558.417 6.185 1.438 37.333 3.632 38.12 2.193.79 3.465-29.113 3.465-32.35s1.346-6.328 2.384-3.347c1.039 2.982.772 30.323 4.483 30.323s2.126-23.087 3.793-24.641 3.325.137 3.325 3.471-.483 15.667 1.91 15.667 1.661-10 2.937-12.332 3.655-2.826 3.655 0-.584 7.617 1.372 7.617 1.145-5.132 3.179-5.132 1.824 3.091 3.08 3.58c1.254.49 3.936-2.19 4.43-2.19h7.748"/></g></svg>