<svg xmlns="http://www.w3.org/2000/svg" viewBox="0 0 64 64"><path d="M10.05 5.02 48 5c-.074 0 12 12 12 12l-.004 37.876c0 3.393-2.699 6.124-6.051 6.124H10.05C6.699 61 4 58.269 4 54.876v-43.73c0-3.394 2.699-6.123 6.05-6.125" opacity=".2"/><path fill="#1064c6" d="M10.05 4.02 48 4c-.074 0 12 12 12 12l-.004 37.876c0 3.393-2.699 6.124-6.051 6.124H10.05C6.699 60 4 57.269 4 53.876v-43.73c0-3.394 2.699-6.123 6.05-6.125"/><path d="M24 19.141c-7.642 4.412-10.272 14.218-5.86 21.86 4.413 7.642 14.22 10.27 21.863 5.858S50.27 32.64 45.859 25c-4.413-7.643-14.217-10.27-21.86-5.858m.342 2.69h.002l3.142 5.442c-1.428.717-2.958 1.244-4.621 1.616a15 15 0 0 1-.15-1.941c-.011-2.3.577-4.059 1.627-5.116m2.082-1.075c1.38-.241 3.067.156 4.896 1.224.543.317 1.09.694 1.636 1.122a20.3 20.3 0 0 1-3.453 2.987zm4.842-1.408c1.462-.079 2.92.079 4.319.459a33 33 0 0 1-1.126 1.527 17 17 0 0 0-1.973-1.352q-.605-.353-1.22-.634m-10.814 6.33q-.053.63-.05 1.28c.004.754.064 1.536.178 2.334q-.872.12-1.793.197c.356-1.34.915-2.627 1.665-3.81m-2.065 6.062q1.352-.096 2.624-.283a25 25 0 0 0 2.047 5.295l-3.455 1.995a13.6 13.6 0 0 1-1.216-7.007m19.346-11.15a13.6 13.6 0 0 1 5.442 4.548l-3.535 2.04a25 25 0 0 0-3.527-4.385 34 34 0 0 0 1.62-2.202M23.292 31.03c1.876-.436 3.626-1.057 5.265-1.897l1.926 3.336-5.418 3.128a22.8 22.8 0 0 1-1.773-4.567m11.296-6.48a23 23 0 0 1 3.043 3.792L32.508 31.3l-1.935-3.35a23 23 0 0 0 4.015-3.4M20.764 40.78l3.457-1.996c1.139 1.801 2.43 3.38 3.807 4.692q-.842.944-1.644 1.991a13.6 13.6 0 0 1-5.62-4.687m5.465-3.155 5.423-3.132 2.273 3.937a26 26 0 0 0-4.293 3.373c-1.21-1.155-2.372-2.564-3.403-4.178m7.447-4.3 5.129-2.961a22.6 22.6 0 0 1 1.924 5.077 27 27 0 0 0-4.767 1.843zm7.136-4.12 3.538-2.043a13.6 13.6 0 0 1 1.244 7.286c-.898.119-1.767.27-2.609.444-.447-1.862-1.174-3.785-2.173-5.687m-5.8 11.109 2.839 4.916-.003.002c-1.44.381-3.256.012-5.242-1.148a14 14 0 0 1-1.287-.855 23.3 23.3 0 0 1 3.693-2.915m2.04-1.142a24 24 0 0 1 4.066-1.555q.088.776.093 1.5c.01 2.118-.49 3.777-1.39 4.852zm-7.344 5.744q.855.653 1.73 1.164.55.322 1.108.585a13.7 13.7 0 0 1-3.954-.423c.366-.461.74-.9 1.116-1.326m13.677-7.851q.855-.175 1.758-.31a13.7 13.7 0 0 1-1.678 3.694q.06-.66.058-1.346c-.004-.66-.05-1.343-.138-2.038" opacity=".2"/><path fill="#fff" d="M24 18.141c-7.642 4.412-10.272 14.218-5.86 21.86 4.413 7.642 14.22 10.27 21.863 5.858S50.27 31.64 45.859 24c-4.413-7.643-14.217-10.27-21.86-5.858m.342 2.69h.002l3.142 5.442c-1.428.717-2.958 1.244-4.621 1.616a15 15 0 0 1-.15-1.941c-.011-2.3.577-4.059 1.627-5.116m2.082-1.075c1.38-.241 3.067.156 4.896 1.224.543.317 1.09.694 1.636 1.122a20.3 20.3 0 0 1-3.453 2.987zm4.842-1.408c1.462-.079 2.92.079 4.319.459a33 33 0 0 1-1.126 1.527 17 17 0 0 0-1.973-1.352q-.605-.353-1.22-.634m-10.814 6.33q-.053.63-.05 1.28c.004.754.064 1.536.178 2.334q-.872.12-1.793.197c.356-1.34.915-2.627 1.665-3.81m-2.065 6.062q1.352-.096 2.624-.283a25 25 0 0 0 2.047 5.295l-3.455 1.995a13.6 13.6 0 0 1-1.216-7.007m19.346-11.15a13.6 13.6 0 0 1 5.442 4.548l-3.535 2.04a25 25 0 0 0-3.527-4.385 34 34 0 0 0 1.62-2.202M23.292 30.03c1.876-.436 3.626-1.057 5.265-1.897l1.926 3.336-5.418 3.128a22.8 22.8 0 0 1-1.773-4.567m11.296-6.48a23 23 0 0 1 3.043 3.792L32.508 30.3l-1.935-3.35a23 23 0 0 0 4.015-3.4M20.764 39.78l3.457-1.996c1.139 1.801 2.43 3.38 3.807 4.692q-.842.944-1.644 1.991a13.6 13.6 0 0 1-5.62-4.687m5.465-3.155 5.423-3.132 2.273 3.937a26 26 0 0 0-4.293 3.373c-1.21-1.155-2.372-2.564-3.403-4.178m7.447-4.3 5.129-2.961a22.6 22.6 0 0 1 1.924 5.077 27 27 0 0 0-4.767 1.843zm7.136-4.12 3.538-2.043a13.6 13.6 0 0 1 1.244 7.286c-.898.119-1.767.27-2.609.444-.447-1.862-1.174-3.785-2.173-5.687m-5.8 11.109 2.839 4.916-.003.002c-1.44.381-3.256.012-5.242-1.148a14 14 0 0 1-1.287-.855 23.3 23.3 0 0 1 3.693-2.915m2.04-1.142a24 24 0 0 1 4.066-1.555q.088.776.093 1.5c.01 2.118-.49 3.777-1.39 4.852zm-7.344 5.744q.855.653 1.73 1.164.55.322 1.108.585a13.7 13.7 0 0 1-3.954-.423c.366-.461.74-.9 1.116-1.326m13.677-7.851q.855-.175 1.758-.31a13.7 13.7 0 0 1-1.678 3.694q.06-.66.058-1.346c-.004-.66-.05-1.343-.138-2.038"/><path d="M60 17 48.002 5 48 10.99c.17 3.67 2.876 5.956 6.007 6.003z" opacity=".2"/><path fill="#3a87db" d="M60 16 48.002 4 48 9.991c.17 3.669 2.876 5.955 6.007 6.002z"/><path fill="#fff" d="m48 4-37.95.02C6.7 4.02 4 6.752 4 10.145v1C4 7.752 6.699 5.02 10.05 5.02L48 5z" opacity=".1"/></svg>