<svg xmlns="http://www.w3.org/2000/svg" xmlns:xlink="http://www.w3.org/1999/xlink" viewBox="0 0 96 96"><defs><linearGradient id="b" x1="50%" x2="50%" y1="-21.791%" y2="99.129%"><stop offset="0%" stop-color="#fff"/><stop offset="100%" stop-color="#fff" stop-opacity=".813"/></linearGradient><filter id="a" width="126.4%" height="141.4%" x="-13.2%" y="-20.7%" filterUnits="objectBoundingBox"><feOffset dy="2" in="SourceAlpha" result="shadowOffsetOuter1"/><feGaussianBlur in="shadowOffsetOuter1" result="shadowBlurOuter1" stdDeviation="2"/><feColorMatrix in="shadowBlurOuter1" result="shadowMatrixOuter1" values="0 0 0 0 0 0 0 0 0 0 0 0 0 0 0 0 0 0 0.2 0"/><feMerge><feMergeNode in="shadowMatrixOuter1"/><feMergeNode in="SourceGraphic"/></feMerge></filter></defs><g fill="none" fill-rule="evenodd" filter="url(#a)" transform="translate(2 19)"><path fill="#2366ff" d="M18 58C8.059 58 0 49.941 0 40c0-9.685 7.65-17.584 17.236-17.984C18.935 9.58 29.598 0 42.5 0c9.98 0 18.622 5.734 22.81 14.087l1.988-.316c1.064-.17 2.14-.255 3.218-.255C81.83 13.516 91 22.687 91 34c0 13.255-10.745 24-24 24z"/><path fill="url(#b)" d="m40.723 26.11.59.258.588.26c2.144.953 4.127 1.867 4.618 1.867.43 0 1.586.168 3.036.376l.595.084c.464.066.95.134 1.445.2l-.081-.49a1 1 0 0 1 1.947-.443l.025.114.18 1.073c1.215.132 2.388.225 3.343.225h.174q.85-.007 2.775-.067l-.336-1.338a1 1 0 0 1 1.905-.599l.035.111.44 1.757q7.256-.258 24.09-1.003a5971 5971 0 0 0-22.396 7.73l.222.882a1 1 0 0 1-1.905.6l-.035-.112-.178-.71q-4.297 1.502-6.506 2.298l.192 1.153a1 1 0 0 1-1.947.442l-.025-.114-.13-.774a10 10 0 0 0-.272.11c-.903.386-3.63 2.207-6.472 4.204l-.61.43-.305.216-.608.434c-3.332 2.38-6.398 4.695-6.398 4.884 0 .379-2.208-3.853-3.04-5.95A14.4 14.4 0 0 1 34.68 40l-3.462.468.27 1.89a1 1 0 0 1-1.956.398l-.023-.115-.273-1.904-4.738.642.001 1.121a1 1 0 0 1-1.993.117L22.5 42.5v-.85L7.411 43.695 6.584 40 22.5 37.8l.001-1.3a1 1 0 0 1 1.993-.117l.007.117v1.023l4.195-.58-.185-1.302a1 1 0 0 1 1.957-.397l.023.115.186 1.31 4.005-.552q.098-10.671.998-11.507c.432-.402 2.69.477 5.044 1.5"/></g></svg>