<svg xmlns="http://www.w3.org/2000/svg" xmlns:xlink="http://www.w3.org/1999/xlink" viewBox="0 0 96 96"><defs><linearGradient id="b" x1="50%" x2="50%" y1="0%" y2="100%"><stop offset="0%" stop-color="#fff"/><stop offset="100%" stop-color="#fff"/></linearGradient><filter id="a" width="130.8%" height="130.8%" x="-15.4%" y="-15.4%" filterUnits="objectBoundingBox"><feOffset dy="2" in="SourceAlpha" result="shadowOffsetOuter1"/><feGaussianBlur in="shadowOffsetOuter1" result="shadowBlurOuter1" stdDeviation="2"/><feColorMatrix in="shadowBlurOuter1" result="shadowMatrixOuter1" values="0 0 0 0 0 0 0 0 0 0 0 0 0 0 0 0 0 0 0.2 0"/><feMerge><feMergeNode in="shadowMatrixOuter1"/><feMergeNode in="SourceGraphic"/></feMerge></filter></defs><g fill="none" fill-rule="evenodd" filter="url(#a)" transform="translate(9 9)"><path fill="url(#b)" d="M18 0h42c9.941 0 18 8.059 18 18v42c0 9.941-8.059 18-18 18H18C8.059 78 0 69.941 0 60V18C0 8.059 8.059 0 18 0"/><path fill="#000" fill-opacity=".274" fill-rule="nonzero" d="M60 0c9.941 0 18 8.059 18 18v42c0 9.941-8.059 18-18 18H18C8.059 78 0 69.941 0 60V18C0 8.059 8.059 0 18 0zm0 1H18C8.72 1 1.175 8.437 1.003 17.677L1 18v42c0 9.28 7.437 16.825 16.677 16.997L18 77h42c9.28 0 16.825-7.437 16.997-16.677L77 60V18c0-9.28-7.437-16.825-16.677-16.997z"/><path fill="#ce5c00" d="M24 8v8h-8v8h8v8H8V8z"/><path fill="#73d216" d="M32 40h8v8h8v8H16v-8h16z"/><path fill="#c4a000" d="M32 32v-8h16v8h-8v8H16v-8z"/><path fill="#8f5902" d="M32 8v8h8v8h-8v8h-8v-8h-8v-8h8V8zM16 32v8h16v8H15.999L16 56H8V32z"/><path fill="#000" fill-opacity=".156" d="M57 1v6h7V1.473q.507.123 1 .274V7h7V5.96q.954.95 1.75 2.04H73v7h3.736q.088.496.148 1H73v7h4v1h-4v7h4v1h-4v7h4v1h-4l-.001 7H77v1h-4.001v7H77v1h-4.001v7h3.737q-.09.505-.21 1H73v6.956q-.475.564-1 1.086V72h-7v4.253q-.495.152-1 .274V72h-7v5h-1v-5h-7v5h-1v-5h-7v5h-1v-5h-7v5h-1v-5h-7v5h-1v-5h-7v4.971q-.505-.03-1-.088V72H9v2.424q-.512-.32-1-.676V72H5.96q-.48-.48-.92-1H8v-7H1.473q-.12-.495-.209-1h6.735v-7H1v-1h6.999v-7H1v-1h6.999v-7H1v-1h7v-7H1v-1h7v-7H1v-1h7v-7H1.116q.06-.505.148-1H8V8H4.25q.375-.514.788-1H8V4.25q.488-.354 1-.675V7h7V1.116q.495-.058 1-.087V7h7V1h1v6h7V1h1v6h7V1h1v6h7V1h1v6h7V1zM15.999 64h-7v7h7zm8 0h-7v7h7zm8 0h-7v7h7zm8 0h-7v7h7zm8 0h-7v7h7zm8 0h-7v7h7zm8 0h-7v7h7zm8 0h-7v7h7zm-56-8h-7v7h7zm8 0h-7v7h7zm8 0h-7v7h7zm8 0h-7v7h7zm8 0h-7v7h7zm8 0h-7v7h7zm8 0h-7v7h7zm8 0h-7v7h7zm-8-8h-7v7h7zm8 0h-7v7h7zm-56 0h-7v7h7zm8 0h-7v7h7zm8 0h-7v7h7zm8 0h-7v7h7zm8 0h-7v7h7zm8 0h-7v7h7zM40 40h-7.001v7h7zm32 0h-7l-.001 7h7zm-8 0h-7l-.001 7h7zm-8 0h-7l-.001 7h7zm-24.001 0h-7v7h7zm-8 0h-7v7h7zm-8 0h-7v7h7zM48 40h-7l-.001 7h7zm-8-8h-7v7h7zm32 0h-7v7h7zm-8 0h-7v7h7zm-8 0h-7v7h7zm-8 0h-7v7h7zm-16 0h-7v7h7zm-8 0h-7v7h7zm-8 0H9v7h7zm56-8h-7v7h7zm-56 0H9v7h7zm8 0h-7v7h7zm8 0h-7v7h7zm8 0h-7v7h7zm8 0h-7v7h7zm8 0h-7v7h7zm8 0h-7v7h7zm8-8h-7v7h7zm-8 0h-7v7h7zm-8 0h-7v7h7zm-32 0h-7v7h7zm24 0h-7v7h7zm-8 0h-7v7h7zm-8 0h-7v7h7zm-16 0H9v7h7zm48-8h-7v7h7zm8 0h-7v7h7zM16 8H9v7h7zm8 0h-7v7h7zm8 0h-7v7h7zm8 0h-7v7h7zm8 0h-7v7h7zm8 0h-7v7h7z"/></g></svg>