<svg xmlns="http://www.w3.org/2000/svg" xmlns:xlink="http://www.w3.org/1999/xlink" viewBox="0 0 96 96"><defs><linearGradient id="b" x1="50%" x2="50%" y1="0%" y2="100%"><stop offset="0%" stop-color="#f6f6f6"/><stop offset="100%" stop-color="#b5b5b6"/></linearGradient><linearGradient id="c" x1="50%" x2="50%" y1="0%" y2="100%"><stop offset="0%" stop-color="#fcfcfc"/><stop offset="100%" stop-color="#f7f8f8"/></linearGradient><linearGradient id="d" x1="50%" x2="50%" y1="0%" y2="100%"><stop offset="0%" stop-color="#353d3d"/><stop offset="100%" stop-color="#0d0f0f"/></linearGradient><filter id="a" width="135%" height="129.2%" x="-17.5%" y="-14.6%" filterUnits="objectBoundingBox"><feOffset dy="2" in="SourceAlpha" result="shadowOffsetOuter1"/><feGaussianBlur in="shadowOffsetOuter1" result="shadowBlurOuter1" stdDeviation="2"/><feColorMatrix in="shadowBlurOuter1" result="shadowMatrixOuter1" values="0 0 0 0 0 0 0 0 0 0 0 0 0 0 0 0 0 0 0.2 0"/><feMerge><feMergeNode in="shadowMatrixOuter1"/><feMergeNode in="SourceGraphic"/></feMerge></filter></defs><g fill="none" filter="url(#a)" transform="translate(14 7)"><path fill="url(#b)" d="m56.49 73.38.003-.028c0-.024-.008-.047-.008-.07-.064-1.284-.79-8.794-8.873-17.553-8.883-9.624-13.97-12.4-24.705-1.573-9.641 9.725-10.693 17.562-10.809 19.059-.002.045-.018.09-.018.135l.004.035q-.005.106-.004.108h.018c.192 4.868 10.043 8.793 22.188 8.793 12.143 0 21.996-3.925 22.188-8.791h.017z"/><circle cx="34.286" cy="36.425" r="34.286" fill="url(#c)"/><ellipse cx="35.13" cy="4.812" fill="#75a1d0" rx="9.996" ry="4.812"/><circle cx="14.717" cy="20.419" r="4.516" fill="#b3dd00"/><circle cx="34.131" cy="36.762" r="17.633" fill="url(#d)"/><circle cx="34.131" cy="36.762" r="14.694" fill="#26364b"/><circle cx="34.131" cy="36.762" r="11.755" fill="#1b2430"/><circle cx="34.131" cy="36.762" r="6.857" fill="#000"/><ellipse cx="34.019" cy="29.866" fill="#fff" rx="5.552" ry="3.158"/></g></svg>