<svg xmlns="http://www.w3.org/2000/svg" xmlns:xlink="http://www.w3.org/1999/xlink" viewBox="0 0 96 96"><defs><linearGradient id="f" x1="50%" x2="50%" y1="0%" y2="100%"><stop offset="0%" stop-color="#ccb5f6"/><stop offset="41.757%" stop-color="#7d72d9"/><stop offset="45.434%" stop-color="#4b45c1"/><stop offset="45.486%" stop-color="#766dd7"/><stop offset="46.934%" stop-color="#b4a1ee"/><stop offset="50.638%" stop-color="#6d65d3"/><stop offset="72.529%" stop-color="#9792e2"/><stop offset="73.339%" stop-color="#615bcf"/><stop offset="86.303%" stop-color="#4e4bc8"/><stop offset="91.598%" stop-color="#4645c5"/><stop offset="100%" stop-color="#3a3ac1"/></linearGradient><linearGradient id="g" x1="50%" x2="50%" y1="0%" y2="100%"><stop offset="0%" stop-color="#c8c8c8"/><stop offset="4.876%" stop-color="#e6e6e6"/><stop offset="68.325%" stop-color="#f4f4f4"/><stop offset="70.618%" stop-color="#c8c8c8"/><stop offset="100%" stop-color="#d6d6d6"/></linearGradient><linearGradient id="h" x1="50.511%" x2="50.511%" y1="8.949%" y2="106.329%"><stop offset="0%" stop-opacity=".7"/><stop offset="100%" stop-color="#4845c6"/></linearGradient><linearGradient id="i" x1="47.991%" x2="47.991%" y1="100.82%" y2="-341.696%"><stop offset="0%"/><stop offset="100%" stop-opacity="0"/></linearGradient><linearGradient id="j" x1="48.547%" x2="48.547%" y1=".762%" y2="101.353%"><stop offset="0%"/><stop offset="100%" stop-opacity="0"/></linearGradient><linearGradient id="a" x1="54.053%" x2="54.053%" y1="100%" y2="-105%"><stop offset="0%"/><stop offset="100%" stop-color="#c1c3c0"/></linearGradient><linearGradient id="b" x1="116.742%" x2="37.557%" y1="51.14%" y2="43.162%"><stop offset="0%" stop-color="#fff" stop-opacity="0"/><stop offset="100%" stop-color="#fff"/></linearGradient><linearGradient id="p" x1="54.053%" x2="54.053%" y1="100%" y2="-105%"><stop offset="0%"/><stop offset="100%" stop-color="#c1c3c0"/></linearGradient><linearGradient id="r" x1="30.833%" x2="30.833%" y1="186.679%" y2="-65.506%"><stop offset="0%" stop-color="#fff"/><stop offset="100%" stop-color="#fff" stop-opacity="0"/></linearGradient><linearGradient id="s" x1="50%" x2="50%" y1="0%" y2="100%"><stop offset="0%" stop-color="#687e68"/><stop offset="100%" stop-color="#374837"/></linearGradient><linearGradient id="t" x1="54.627%" x2="54.627%" y1="154.191%" y2="-50.411%"><stop offset="0%" stop-color="#990"/><stop offset="50%"/><stop offset="100%" stop-color="#990"/></linearGradient><linearGradient id="c" x1="50%" x2="50%" y1="0%" y2="96.258%"><stop offset="0%" stop-color="#575757"/><stop offset="100%" stop-color="#1a1a1a"/></linearGradient><linearGradient id="u" x1="50%" x2="50%" y1="0%" y2="100%"><stop offset="0%" stop-color="#dadada"/><stop offset="100%" stop-color="#787878"/></linearGradient><linearGradient id="x" x1="50%" x2="50%" y1="0%" y2="100%"><stop offset="0%" stop-color="#f5f400"/><stop offset="4.243%" stop-color="#e9e503"/><stop offset="5.533%" stop-color="#c2b40d"/><stop offset="14.745%" stop-color="#eae410"/><stop offset="100%" stop-color="#e8e600"/></linearGradient><path id="m" fill="url(#a)" d="M.633.649h4.583l.632 3.161H0z"/><path id="n" fill="url(#b)" d="M.762.335h4.324l.114.33H.649z"/><path id="v" fill="url(#c)" d="M4.992 2.496a2.496 2.496 0 1 1-4.992 0 2.496 2.496 0 0 1 4.992 0"/><path id="w" fill="url(#d)" d="m2.121 4.393.083-.664.183.018.105.002v.67h-.118l-.001-.003h-.032l-.001-.002-.081-.004zm.883-.762.236.63-.079.04-.001-.005-.031.015-.04.011-.038.015-.002-.007-.064.026-.034.007-.034.01-.195-.66.142-.035v-.001zm-1.288-.122.038.025h.001l.086.048h.001l.1.049-.276.63-.104-.052-.021-.007-.04-.023-.021-.008-.041-.026-.038-.02-.036-.025zm1.72-.232.473.472-.079.118-.005-.006-.02.028-.012-.012-.022.035-.027.03-.01-.01-.044.053-.009-.012-.046.053-.406-.566.098-.079zm-2.11-.135.068.088h-.002l.1.11.016.015-.472.473h-.04l-.014-.023-.01-.002-.028-.06H.917l-.011-.018-.012-.033-.023-.001-.01-.019-.011-.034-.022-.002a.1.1 0 0 1-.016-.04l-.014-.043zm2.386-.338.67.276-.017.03c-.006.029-.024.049-.042.07l.016.007a.2.2 0 0 1-.042.057l.013.006a.2.2 0 0 1-.043.056l.012.007c-.015.029-.04.048-.062.07l-.03.037-.592-.351.092-.195zM1.106 2.68l.03.083-.005.001.017.044h-.003l.02.043H1.16l.024.051h-.002l.011.021-.63.237v-.04l-.012.006-.002-.01.002-.03.341-.153-.37.116.002-.039.26-.105-.284.08.004-.04.268-.097-.29.07-.001-.01.004-.03zm2.724-.347h.67l-.001.112h-.052l.051.003-.01.147-.006.03-.004.04-.664-.083.014-.125zM.426 2.079l.666.083-.01.078H1.08l-.005.092v.079H.406v-.113h.076l-.075-.003.01-.148.005-.029zm3.286-.298.59-.236.04.04v.017l.013.014.002.01-.003.03.03.036-.003.036.025.029v.01l-.005.027.023.03-.004.039-.615.161-.03-.083.002-.002-.032-.088zM.72 1.322l.557.308-.027.038.002.002-.025.04h.002l-.028.05h.003l-.05.1-.59-.236.013-.032.037-.073.006-.02.023-.04.008-.021.024-.04.008-.021zm2.678.026L3.83.876l.12.12.008.01h.001l.044.051.02.022.05.066-.522.371-.098-.112zM1.231.712l.41.527-.061.047-.061.052-.09.089L.957.954l.123-.12.096-.08zm1.694.321.236-.59.072.032.032.017.004-.006.059.032.022.007.041.025.021.007.056.037-.347.551-.032-.04-.01.019-.032-.04-.01.02L3 1.061l.097-.21-.11.23-.018-.02-.005.01zM1.866.393l.078.01.162.616-.083.03-.002-.003-.087.034-.001-.002-.07.034-.237-.63q.016-.006.035-.001L1.658.469l.079.001.043.116-.046-.148.073.004L1.8.416l.073.006zm.508.6V.325l.155.001.147.01.069.01-.083.664-.108-.013z"/><radialGradient id="d" cx="59.949%" cy="71.542%" r="50%" fx="59.949%" fy="71.542%" gradientTransform="scale(1 .99992)"><stop offset="0%"/><stop offset="100%" stop-color="#fff"/></radialGradient><filter id="e" width="130.4%" height="131.2%" x="-15.2%" y="-15.6%" filterUnits="objectBoundingBox"><feOffset dy="2" in="SourceAlpha" result="shadowOffsetOuter1"/><feGaussianBlur in="shadowOffsetOuter1" result="shadowBlurOuter1" stdDeviation="2"/><feColorMatrix in="shadowBlurOuter1" result="shadowMatrixOuter1" values="0 0 0 0 0 0 0 0 0 0 0 0 0 0 0 0 0 0 0.2 0"/><feMerge><feMergeNode in="shadowMatrixOuter1"/><feMergeNode in="SourceGraphic"/></feMerge></filter></defs><g fill="none" filter="url(#e)" transform="translate(8 10)"><path fill="url(#f)" d="M5.511 0a1.5 1.5 0 0 0-1.504 1.504v1.943a1.5 1.5 0 0 0 1.504 1.505L5.994 5 6 34.961h-.614s-.497.428-.69 1.768.188 1.88.188 1.88L.15 55.469A4 4 0 0 0 0 56.551V69c0 1.311 1.072 1.961 2 1.961l2.132 4.565c.532.883.702 1.435 1.63 1.435h67.315c.928 0 1.16-.552 1.692-1.435L77 70.894c.928 0 2-.583 2-1.51V57.018a4 4 0 0 0-.147-1.074l-4.836-17.336s.318-.54.125-1.88c-.192-1.34-.689-1.768-.689-1.768H73V5h.14c.852-.048 1.504-.72 1.504-1.553V1.504C74.644.671 73.973 0 73.14 0z"/><path fill="url(#g)" d="m71 38.961 4.985 18.944.015.001v8.111H3v-8.111l.015-.001 5.02-18.944z"/><path fill="#000" d="m15.955 38.688-3.913 20.273h.989l3.736-20.273zm9.299 0L23 58.961h1l2.071-20.273zm9.236 0L34 58.961h1l.315-20.217zm9.235 0L44 58.961h1l-.5-20.273zm9.3 0 2.027 20.273H56l-2.21-20.22zm9.235 0L66 58.961h1l-3.953-20.273z"/><path fill="#006" d="m2 70.961 2.134 4.571c.532.884.702 1.43 1.63 1.43H73.08c.928 0 1.16-.546 1.692-1.43L77 70.962z" opacity=".3"/><path fill="url(#h)" d="M3 64.961h73v1H3z"/><path fill="url(#i)" d="M7.249 34.961s-.548.632-.737 2.033.123 1.967.123 1.967h.473s-.442-.566-.253-1.967.694-2.033.694-2.033zm64.202 0s.505.632.694 2.033-.253 1.967-.253 1.967h.473s.312-.566.123-1.967-.737-2.033-.737-2.033z" opacity=".3"/><path fill="url(#j)" d="M6 4.961v3h67v-3z" opacity=".522"/><path fill="#000" d="M24.379 36.961h-.188l-.627 1.905-1.629 13.095h6.079l1.254-13.095-.627-1.905h-.25zm16.359 0h-.251l-.564 1.905.125 13.095h6.08l-.564-13.095-.627-1.905h-.188zm10.592 0h-.25l-.564 1.905 1.128 13.095h6.08l-1.567-13.095-.564-1.905h-.251zm10.53 0h-.251l-.564 1.905 2.006 13.095h6.08l-.627-3.38-1.818-9.715-.564-1.905h-.251zm-48.449 0h-.188l-.627 1.905-1.943 9.715-.69 3.38h6.143l2.193-13.095-.626-1.905h-.188z"/><use xlink:href="#m" transform="translate(10.106 48.114)"/><use xlink:href="#n" transform="translate(10.106 48.114)"/><use xlink:href="#m" transform="translate(22.047 48.114)"/><use xlink:href="#n" transform="translate(22.047 48.114)"/><use xlink:href="#m" transform="translate(40.151 48.114)"/><use xlink:href="#n" transform="translate(40.151 48.114)"/><path fill="#000" d="M52.291 48.573h4.777l.659 3.295h-6.095z"/><path fill="url(#a)" d="M.756.649h4.583l.632 3.161H.123z" transform="translate(51.632 48.114)"/><path fill="url(#b)" d="M.885.335h4.324l.114.33H.772z" transform="translate(51.632 48.114)"/><path fill="url(#p)" d="M.633.649h4.583l.632 3.199H0z" transform="translate(63.17 48.114)"/><use xlink:href="#n" transform="translate(63.17 48.114)"/><path fill="url(#r)" d="m13.41 36.961-2.57 11.971h4.326l2.319-11.97zm10.97 0-1.568 11.971h4.325l1.253-11.97zm16.358 0 .188 11.971h4.325l-.502-11.97zm10.592 0 1.191 11.971h4.325l-1.504-11.97zm10.53 0 2.068 11.971h4.325l-2.382-11.97z"/><path fill="#000" d="M8.035 38.961 3.017 57.915v7.046h1v-7l4.983-19zm61.965 0 5 19v7h1v-7.027l-5-18.973z" opacity=".249"/><path fill="#000" d="M12 58.961v6h1v-6zm11 0v6h1v-6zm11 0v6h1v-6zm10 0v6h1v-6zm11 0v6h1v-6zm11 0v6h1v-6z"/><path fill="url(#s)" d="M53.981 10.961v14h16.071v-14z"/><path fill="#e7f700" d="M63.062 13.456v4.546h.115v-4.48c.042.07.089.13.131.197v4.283h.132v-4.085l.131.198V18h.115v-3.689c.045.063.087.136.132.198V18h.164v-3.294c.044.057.088.142.132.198V18h.115v-2.964c.043.052.088.08.131.131V18h.132v-2.635c.043.05.087.084.131.132V18h.115v-2.37l.131.131v2.24h.165v-2.108c.044.042.086.09.131.132V18h.115v-1.844c.045.04.086.093.132.131V18h.131v-1.647c.043.035.088.098.132.132V18h.115v-1.45c.042.033.088.036.131.067V18h.164v-1.25c.044.03.088.038.132.066v1.186h.115v-1.12c.043.027.088.04.131.066V18h.132v-.988c.043.024.087.042.131.065V18h.115v-.857q.065.035.132.066V18h.164v-.724c.044.019.087.047.131.066V18h.115v-.593c.044.017.088.049.132.065V18h.131v-.46c.045.014.087.05.132.065V18h.115v-.395c.045.015.086.053.131.066V18h.165v-.264c.042.01.088.055.131.065V18h.115v-.198c.043.011.088-.008.132 0V18h.131v-.132c.043.009.088-.008.131 0V18h.115v-.132c.044.007.088.06.132.066V18h.164v-.066c.044.004.088-.004.132 0V18h.115v-.066c.044.004.087-.002.131 0V18h.132v-.066c.044.002.086-.001.131 0V18h.115v-.066h.132c-.028.008-.055.05-.083.066v.33h-.97c-.043.014-.087.05-.13.065v-.066h-.116v.066c-.043.015-.087.05-.131.066v-.132h-.131v.198c-.044.014-.089-.017-.132 0v-.198h-.115v.264c-.045.016-.086.048-.131.065v-.33h-.165v.396c-.045.017-.086.048-.131.066v-.461h-.115v.527c-.045.019-.087.047-.132.066v-.593h-.131v.658c-.044.02-.088.047-.132.066v-.724h-.115v.724c-.043.02-.087.046-.131.066v-.79h-.164v.856l-.132.066v-.923h-.115v.989l-.131.065v-1.054h-.132v1.12c-.044.024-.088.042-.131.066v-1.186h-.115v1.252c-.043.025-.089.04-.132.066v-1.318h-.164v1.45c-.042.025-.09.039-.131.065v-1.515h-.115v1.581c-.046.03-.087.036-.132.066v-1.647h-.131v1.779c-.045.03-.088.034-.132.065v-1.844h-.115v1.91c-.043.033-.088.032-.131.066v-1.976h-.165v2.174c-.043.035-.088.029-.131.065v-2.24h-.115V20.7c-.044.039-.089.092-.131.132v-2.503h-.132v2.569c-.043.041-.09.089-.131.132v-2.701h-.115v2.832c-.047.05-.086.147-.132.198v-3.03h-.164v3.227c-.044.052-.09.08-.132.132v-3.36h-.115v3.492c-.043-.01-.088.008-.131 0v-3.492h-.132v3.426c-.043-.008-.088.009-.131 0v-3.426h-.115v3.426c-.044-.008-.088-.059-.131-.066v-3.36h-.165v3.36c-.044-.006-.087-.059-.131-.065v-3.294h-.115v3.294c-.044-.007-.088.006-.132 0v-3.294h-.131v3.228c-.044-.007-.088.006-.132 0v-3.228h-.115v3.228c-.044-.009-.086-.058-.131-.066v-3.162h-.164v3.162c-.045-.009-.087-.057-.132-.066v-3.096h-.115v3.096c-.044-.01-.087-.055-.131-.066v-3.03h-.132v3.03c-.044-.01-.088-.053-.131-.065v-2.965h-.115v2.965c-.044-.013-.089-.052-.132-.066v-2.899h-.164v2.899c-.045-.017-.087-.048-.131-.066v-2.833h-.116v2.767q-.066-.031-.131-.066v-2.7h-.131v2.635c-.044-.024-.09-.041-.132-.066v-2.57h-.115v2.504c-.045-.03-.087-.1-.131-.132v-2.372h-.165v2.306c-.043-.035-.088-.094-.131-.132v-2.174h-.115v2.109c-.047-.046-.085-.15-.132-.198v-1.91h-.131v1.778c-.044-.05-.089-.076-.131-.131V18.33h-.115v1.515q-.067-.095-.132-.198V18.33h-.164v.988c-.045-.08-.089-.178-.132-.264v-.724h-.115v.46c-.004-.008-.012.01-.016 0-.04.01-.075.056-.115.067v-.527h-.132v.592c-.044.015-.088.05-.131.066v-.659h-.115v.66c-.042.018-.09.045-.132.065v-.725h-.164v.857c-.046.027-.086.036-.131.066v-.923h-.115v.988c-.045.034-.089.096-.132.132v-1.12H57v1.186c-.045.044-.089.085-.132.132v-1.318h-.115v1.515c-.044.056-.09.072-.131.132v-1.647h-.164v1.845c-.046.077-.09.18-.132.263v-2.108h-.115V20.7a5 5 0 0 0-.131.33v-2.702h-.132v2.767c-.046-.028-.087-.034-.131-.066v-2.7H55.7v2.569c-.043-.035-.09-.028-.132-.066v-2.504h-.164V20.7c-.049-.053-.086-.139-.132-.197v-2.174h-.115v1.976c-.043-.063-.09-.13-.131-.198V18.33h-.131v1.58c-.05-.096-.087-.223-.132-.329V18.33h-.115v.988a7 7 0 0 1-.131-.395v-.593h-.099V18h.099v-1.054c.039-.146.087-.258.131-.395V18h.115v-1.78c.046-.123.08-.281.132-.395V18h.131v-2.371c.041-.08.087-.19.131-.264V18h.115v-2.833c.043-.061.086-.141.132-.197V18h.164v-3.162c.044-.044.085-.092.132-.132V18h.115v-3.425c.03-.022.051-.047.082-.066.016.025.033.04.05.066V18h.13v-3.228l.132.198V18h.115v-2.833c.043.063.088.138.132.198V18h.164v-2.437c.043.054.088.08.131.131V18h.115v-2.174c.046.05.086.153.132.198V18h.131v-1.845c.043.038.088.034.132.066V18h.115v-1.713c.044.029.087.042.131.066V18h.164v-1.581c.045.017.087.054.132.066V18h.115v-1.515c.044.006.087.064.131.065V18h.132v-1.45c.043-.004.088.009.131 0V18h.115v-1.516c.04-.01.076.015.115 0 .006-.016.01-.05.017-.065v1.58h.164v-1.91c.042-.095.088-.176.131-.263V18h.116v-2.44c.044-.079.086-.191.131-.263v2.7h.131v-2.832c.044-.062.087-.141.132-.198v3.03h.115V14.77c.043-.05.088-.088.131-.132v3.36h.165v-3.492c.044-.038.086-.097.131-.131v3.623h.115v-3.69c.044-.03.088-.038.132-.065v3.755h.131v-3.821l.131-.066V18h.115v-3.953c.044-.019.088-.05.132-.065V18h.164v-4.018c.044-.015.088-.054.132-.066V18h.115v-4.084c.044-.01.087-.056.131-.066V18h.132v-4.15c.044-.008.087-.058.131-.066V18h.115v-4.217c.044-.006.087.007.132 0V18h.164v-4.283c.044-.006.087.007.131 0V18h.115v-4.35c.045-.006.088.007.132 0V18h.131v-4.414c.044-.009.088.008.132 0V18h.115v-4.414c.044-.01.087-.056.131-.066V18h.164v-4.48c.044-.013.089-.052.132-.066zm-8.709 4.216v.593a10 10 0 0 1-.065-.33c.018-.1.045-.165.065-.263"/><path fill="url(#t)" d="M61.278 13.153v4.546h-.115v-4.48c-.043.07-.09.13-.132.197V17.7H60.9v-4.085l-.132.198v3.886h-.115V14.01c-.044.063-.086.136-.131.198v3.491h-.165v-3.294c-.043.057-.087.142-.131.198v3.096h-.115v-2.964c-.043.052-.088.08-.131.131v2.833h-.132v-2.635c-.044.05-.087.084-.131.132v2.503h-.115v-2.371l-.132.131v2.24h-.164V15.59c-.045.042-.087.09-.132.132v1.976h-.115v-1.844c-.045.04-.086.093-.131.131v1.713h-.132v-1.647c-.043.035-.088.098-.131.132v1.515h-.115v-1.45c-.043.033-.088.036-.131.067v1.383h-.165v-1.252c-.043.03-.087.038-.131.066v1.186h-.115v-1.12c-.043.027-.089.04-.132.066v1.054h-.131v-.988c-.044.024-.088.042-.132.065v.923h-.115v-.857l-.131.066v.79h-.164v-.724c-.044.019-.087.047-.132.066v.659h-.115v-.593c-.044.017-.087.049-.131.065v.527h-.132v-.46c-.044.014-.087.05-.131.065v.395h-.115v-.395c-.045.015-.087.053-.132.066v.33h-.164v-.264c-.043.01-.089.055-.131.066v.197h-.116V17.5c-.042.01-.088-.009-.131 0v.197h-.131v-.132c-.044.009-.088-.008-.132 0v.132h-.115v-.132c-.044.007-.087.06-.131.066v.066h-.165v-.066c-.043.004-.087-.004-.131 0v.066h-.115v-.066c-.044.004-.087-.002-.132 0v.066h-.131v-.066c-.045.002-.087-.001-.131 0v.066h-.115v-.066h-.132c.028.008.055.05.082.066v.33h.97c.044.014.087.05.131.065v-.066h.115v.066c.044.015.088.05.132.066v-.132h.131v.198c.043.014.089-.017.131 0v-.198h.116v.264c.045.016.086.048.131.065v-.33h.164v.396c.045.017.087.048.132.066v-.461h.115v.527c.044.019.087.047.131.066v-.593h.132v.658c.044.02.087.047.131.066v-.724h.115v.724c.044.02.088.046.132.066v-.79h.164v.856l.131.066v-.923h.115v.989c.043.021.09.043.132.065v-1.054h.131v1.12c.044.024.088.042.132.066v-1.186h.115v1.252c.043.025.088.04.131.066v-1.318h.165v1.45c.042.025.089.039.131.065v-1.515h.115v1.581c.045.03.087.036.131.066v-1.647h.132v1.779c.044.03.088.034.131.065v-1.844h.115v1.91c.044.033.089.032.132.066v-1.976h.164v2.174c.044.035.089.029.132.065v-2.24h.115v2.372c.043.039.088.092.131.132v-2.503h.132v2.569l.131.132v-2.701h.115v2.832c.047.05.085.147.131.198v-3.03h.165v3.228c.043.05.089.078.131.131v-3.36h.115v3.492c.043-.008.088.008.132 0v-3.492h.131v3.426c.044-.008.088.009.132 0v-3.426h.115v3.426c.043-.008.087-.059.131-.066v-3.36h.164v3.36c.044-.006.088-.059.132-.065v-3.294h.115v3.294c.044-.007.088.006.131 0v-3.294h.132v3.228c.043-.007.088.006.131 0v-3.228h.115v3.228c.045-.009.087-.058.132-.066v-3.162h.164v3.162c.045-.008.087-.057.131-.066v-3.096h.115v3.096c.045-.01.088-.055.132-.066v-3.03h.131v3.03c.044-.01.088-.053.132-.065v-2.965h.115v2.965c.043-.013.088-.052.131-.066v-2.899h.165v2.899c.045-.017.086-.048.131-.066v-2.833h.115v2.767q.066-.031.132-.066v-2.7h.131v2.635c.043-.024.089-.04.131-.066v-2.57h.115v2.504c.045-.03.088-.1.132-.132v-2.372h.164v2.306c.044-.035.089-.094.132-.132v-2.174h.115v2.109c.047-.045.085-.15.131-.198v-1.91h.132v1.778c.043-.05.088-.076.131-.131v-1.647h.115v1.515q.067-.095.132-.198v-1.317h.164v.988c.044-.08.088-.178.131-.264v-.724h.115v.46c.005-.008.013.01.017 0 .04.01.075.056.115.067v-.527h.131v.593c.045.014.088.05.132.065v-.659h.115v.66c.042.018.09.045.131.065v-.725h.164v.857c.047.027.087.036.132.066v-.923h.115v.988c.044.034.088.096.131.132v-1.12h.132v1.186c.045.044.088.085.131.132v-1.318h.115v1.515c.045.056.09.072.132.132v-1.647h.164v1.845c.045.077.09.18.131.263v-2.108h.115v2.372c.048.11.09.209.132.33v-2.702h.131v2.767c.047-.028.087-.034.132-.066v-2.7h.115v2.569c.043-.035.09-.028.131-.066v-2.504h.165v2.372c.048-.053.085-.139.131-.197v-2.174h.115v1.976c.043-.063.091-.13.132-.198v-1.778h.131v1.58c.05-.096.087-.223.131-.329v-1.251h.115v.988c.045-.124.092-.262.132-.395v-.593h.099v-.33h-.1v-1.054c-.038-.146-.087-.258-.13-.395v1.45h-.116v-1.78c-.046-.123-.08-.281-.131-.395v2.174h-.131v-2.371c-.042-.08-.088-.19-.132-.264v2.635h-.115v-2.832c-.043-.062-.086-.142-.131-.198v3.03h-.165v-3.162c-.044-.044-.085-.092-.131-.132v3.294h-.115v-3.425c-.03-.022-.052-.047-.082-.066-.016.025-.034.04-.05.066v3.425h-.131v-3.228l-.131.198v3.03h-.115v-2.832c-.044.062-.088.137-.132.197v2.635h-.164V15.26c-.043.054-.088.08-.132.131v2.306h-.115v-2.174c-.045.05-.085.153-.131.198v1.976h-.132v-1.845c-.043.038-.087.034-.131.066v1.779h-.115v-1.713c-.044.029-.087.043-.132.066v1.647h-.164v-1.581c-.044.017-.086.054-.131.066v1.515h-.115V16.18c-.044.006-.087.064-.132.065v1.45h-.131v-1.45c-.043-.004-.088.009-.132 0v1.45h-.115V16.18c-.039-.01-.075.015-.115 0-.006-.016-.01-.05-.016-.065v1.58h-.164v-1.91c-.043-.095-.088-.176-.132-.263v2.174h-.115v-2.438c-.044-.079-.086-.191-.131-.263v2.7h-.132v-2.832c-.043-.062-.087-.141-.131-.198v3.03h-.115v-3.227c-.043-.05-.088-.088-.132-.132v3.36h-.164v-3.492c-.044-.038-.087-.097-.132-.131v3.623h-.115v-3.69c-.043-.03-.087-.038-.131-.065v3.755h-.131v-3.821l-.132-.066v3.887h-.115v-3.953c-.044-.019-.087-.05-.131-.065v4.018h-.165v-4.018c-.043-.015-.087-.054-.131-.066v4.084h-.115v-4.084c-.044-.01-.088-.056-.132-.066v4.15h-.131v-4.15c-.044-.008-.087-.058-.132-.066v4.217h-.115V13.48c-.044-.006-.087.007-.131 0v4.217h-.164v-4.283c-.045-.006-.088.007-.132 0v4.283h-.115v-4.348c-.044-.007-.087.006-.131 0v4.348h-.132v-4.414c-.044-.009-.087.008-.131 0v4.414h-.115v-4.414c-.044-.009-.088-.056-.132-.066v4.48h-.164v-4.48c-.044-.013-.088-.052-.131-.066zm8.708 4.216v.593c.023-.109.046-.215.066-.33-.018-.1-.046-.165-.066-.263" transform="matrix(-1 0 0 1 124.264 0)"/><path fill="url(#c)" d="M4.5 9a4.5 4.5 0 1 1 0-9 4.5 4.5 0 0 1 0 9" transform="translate(19.03 22.952)"/><path fill="#b3b3b3" d="M27 27.461a3.5 3.5 0 1 1-7 0 3.5 3.5 0 0 1 7 0"/><path fill="url(#u)" d="m4.08 6.896.202.025v.002l.093.008v-.005h.201v1.082a3.6 3.6 0 0 1-.628-.038l.134-1.07zm1.385-.174.377 1.008a3.5 3.5 0 0 1-.555.183l-.31-1.039.155-.033v-.003l.093-.023-.001-.002.043-.014-.006-.012zm-2.228-.199.197.12h-.001l.018.011.005-.011.033.015v-.002l.137.066-.454 1.038a3.5 3.5 0 0 1-.518-.258zm2.977-.411.8.801a3.5 3.5 0 0 1-.503.44l-.656-.916.065-.05-.003-.004.133-.106zM2.561 5.89l.117.15-.002.001.02.027.04.042.005.002-.002.001.131.134-.804.806a3.5 3.5 0 0 1-.408-.46zm4.13-.592 1.06.435a3.5 3.5 0 0 1-.295.603l-.967-.574.124-.266.003.002.03-.07.003.001zm-4.51-.213.051.144h-.006l.028.075-.008.002.035.077h-.003l.055.114-1.076.402-.015-.036V5.85a.1.1 0 0 1-.02-.037v-.02l.599-.267-.634.198-.014-.04v-.02l.5-.2-.526.145-.01-.032.001-.004.001-.025.47-.17-.497.119-.01-.032.004-.008v-.022l1.074-.347zm5.79-.576-.006.166-.291-.004.29.017.001.013a4 4 0 0 1-.036.349L6.87 4.916l.015-.13.01-.163v-.136H7.97zm-6.964-.466 1.15.144-.015.135-.005-.002-.006.081H2.13l-.001.03v.181H.973L.97 4.508l.004-.167.005-.053V4.27l.003-.011.008-.094-.002-.005.008-.023L1 4.081zm6.866-.357-1.02.267-.053-.142.002-.002-.03-.079h.004l-.032-.07.008-.003-.062-.13.998-.398q.116.269.185.557m-6.362-.947.964.531-.079.131h-.001l-.007.011.005.003-.046.076.002.002-.017.034h.001l-.065.137-1.022-.409.012-.032.068-.139c.004-.023.018-.043.031-.065l.024-.044.013-.04.04-.065.02-.049zm5.79-.29-.884.629-.11-.132-.065-.065.106-.104-.108.097-.065-.065v-.003l-.028-.028.737-.804q.229.218.416.475m-4.9-.763.708.908-.132.102.001.002-.144.13h-.001l-.065.062-.001-.003-.026.027-.811-.812a3.5 3.5 0 0 1 .471-.416m3.86-.185-.587.934-.057-.07-.019.033-.06-.073-.015.028-.066-.065.25-.537-.275.566-.03-.03-.008.016-.065-.066.398-.996q.28.108.533.26m-2.723-.366-.042-.002c.03-.006.063.008.093.014l.043.002.279 1.064-.144.052-.001-.004-.077.029v-.002l-.075.035-.002-.006-.086.042-.002-.006-.035.018-.403-1.077.025-.01h.033L3.14 1.27l.023-.01h.02l.046.007.043-.003.068.177-.07-.222.04-.014q.027.004.05.01l.033-.002-.009-.033.035-.011h.007l.046.011.036.001-.01-.036zm1.01-.124L4.47 1.01q.28 0 .545.042l-.141 1.144-.185-.022-.065-.003v.002l-.102-.003h-.147V1.011z" transform="translate(19.03 22.952)"/><use xlink:href="#v" transform="translate(9 13.961)"/><path fill="#b3b3b3" d="M13.485 16.333a2.048 2.048 0 1 1-4.097 0 2.048 2.048 0 0 1 4.097 0"/><use xlink:href="#w" opacity=".5" transform="translate(9 13.961)"/><use xlink:href="#v" transform="translate(15 13.961)"/><path fill="#b3b3b3" d="M19.485 16.333a2.048 2.048 0 1 1-4.097 0 2.048 2.048 0 0 1 4.097 0"/><use xlink:href="#w" opacity=".5" transform="translate(15 13.961)"/><path fill="#bfff72" d="M62.88 12.939v4.545h.115v-4.48c.042.07.088.13.131.198v4.282h.131V13.4l.132.197v3.887h.115v-3.689c.044.063.087.136.131.197v3.492h.165V14.19c.043.057.087.142.131.198v3.096h.115v-2.965c.043.053.088.081.132.132v2.833h.131v-2.635c.044.05.087.084.132.132v2.503h.115v-2.372q.065.067.131.132v2.24h.164v-2.108c.045.042.087.09.132.132v1.976h.115v-1.845c.045.04.086.094.131.132v1.713h.132v-1.647c.043.035.088.098.131.132v1.515h.115v-1.45c.043.032.088.036.132.066v1.384h.164v-1.252c.043.03.087.038.131.066v1.186h.115v-1.12c.043.026.089.04.132.066v1.054h.131v-.989c.044.025.088.043.132.066v.923h.115v-.857q.065.035.131.066v.79h.165v-.724c.044.019.087.047.131.066v.658h.115v-.593c.044.017.087.05.131.066v.527h.132v-.46c.044.014.087.05.131.065v.395h.115v-.395c.045.015.087.053.132.066v.329h.164v-.264c.043.011.089.056.132.066v.198h.115v-.198c.042.01.088-.008.131 0v.198h.132v-.132c.043.008.087-.008.131 0v.132h.115v-.132c.044.006.087.06.131.066v.066h.165v-.066c.043.004.087-.004.131 0v.066h.115v-.066c.044.004.087-.002.132 0v.066h.131v-.066c.045.002.087-.002.132 0v.066h.115v-.066h.131c-.028.008-.055.05-.082.066v.329h-.97c-.044.015-.087.05-.131.066v-.066h-.115v.066c-.044.015-.088.05-.131.066v-.132h-.132v.197c-.043.015-.088-.017-.131 0v-.197h-.115v.263c-.046.017-.087.049-.132.066v-.33h-.164v.396c-.045.017-.087.048-.132.066v-.461h-.115v.527c-.044.019-.087.047-.131.065v-.593h-.132v.66c-.044.018-.087.046-.131.065v-.725h-.115v.725c-.044.019-.088.046-.131.066v-.79h-.165v.856l-.131.065v-.922h-.115v.988l-.132.066v-1.054h-.131v1.12c-.044.024-.088.042-.132.066V17.81h-.115v1.252c-.043.024-.088.04-.131.065V17.81h-.164v1.45c-.043.025-.09.038-.132.065V17.81h-.115v1.58c-.045.03-.087.036-.131.067V17.81h-.132v1.778c-.044.032-.087.034-.131.066V17.81h-.115v1.91c-.044.033-.089.032-.132.066V17.81h-.164v2.174c-.043.036-.089.03-.131.066v-2.24h-.115v2.372c-.044.039-.089.092-.132.132V17.81h-.131v2.57c-.043.041-.09.089-.132.131v-2.7h-.115v2.832c-.047.05-.085.147-.131.198v-3.03h-.165v3.227c-.043.052-.089.079-.131.132v-3.36h-.115v3.492c-.043-.009-.088.008-.132 0V17.81h-.131v3.426c-.043-.009-.088.008-.131 0V17.81h-.115v3.426c-.044-.009-.088-.059-.132-.066v-3.36h-.164v3.36c-.044-.006-.088-.06-.132-.066V17.81h-.115v3.294c-.044-.006-.087.007-.131 0V17.81h-.132v3.228c-.043-.006-.087.007-.131 0V17.81h-.115v3.228c-.045-.008-.087-.058-.132-.065V17.81h-.164v3.162c-.044-.009-.087-.057-.131-.066V17.81h-.115v3.096c-.045-.01-.088-.055-.132-.066v-3.03h-.131v3.03c-.044-.01-.088-.053-.132-.066V17.81h-.115v2.964c-.043-.012-.088-.051-.131-.065v-2.9h-.164v2.9c-.045-.017-.087-.048-.132-.066V17.81h-.115v2.767q-.066-.032-.131-.066v-2.7h-.132v2.634c-.043-.023-.089-.04-.131-.065v-2.57h-.115v2.504c-.045-.03-.087-.1-.132-.132V17.81h-.164v2.306c-.044-.035-.089-.094-.132-.132V17.81h-.115v2.108c-.047-.045-.085-.148-.131-.197v-1.91h-.131v1.778c-.044-.05-.09-.077-.132-.132V17.81h-.115v1.516q-.067-.095-.131-.198V17.81h-.165v.989c-.044-.08-.088-.178-.131-.264v-.725h-.115v.462c-.004-.009-.012.008-.017 0-.04.008-.075.055-.115.065v-.527h-.131v.593c-.044.015-.088.05-.132.066v-.659h-.115v.659c-.042.019-.09.046-.131.066v-.725h-.164v.857c-.047.027-.087.035-.132.065v-.922h-.115v.988c-.044.034-.088.096-.131.132v-1.12h-.132v1.186c-.045.043-.088.084-.131.132V17.81h-.115v1.515c-.045.056-.09.072-.132.132V17.81h-.164v1.845c-.045.077-.09.18-.131.263V17.81h-.115v2.372c-.048.11-.09.209-.132.33V17.81h-.131v2.767c-.047-.028-.087-.034-.132-.066v-2.7h-.115v2.568c-.043-.034-.09-.027-.131-.065V17.81h-.165v2.372c-.048-.053-.085-.14-.131-.198V17.81h-.115v1.977c-.043-.064-.09-.13-.131-.198V17.81h-.132v1.582c-.05-.097-.087-.224-.131-.33V17.81h-.115v.989a7 7 0 0 1-.132-.396v-.593h-.098v-.329h.098v-1.054c.04-.147.088-.259.132-.395v1.45h.115v-1.78c.046-.123.08-.282.131-.395v2.174h.132V15.11c.04-.08.087-.19.131-.263v2.635h.115V14.65c.043-.062.086-.141.131-.197v3.03h.165V14.32c.044-.045.085-.092.131-.132v3.294h.115v-3.426c.03-.021.052-.046.082-.065.016.025.034.04.05.065v3.426h.131v-3.228l.132.198v3.03h.115V14.65c.043.063.087.138.131.198v2.635h.164v-2.438c.043.055.088.081.132.132v2.306h.115v-2.174c.045.05.085.153.131.197v1.977h.132v-1.845c.043.037.087.033.131.066v1.779h.115V15.77c.044.028.087.042.132.066v1.647h.164V15.9c.044.016.086.054.131.065v1.516h.115v-1.516c.044.007.088.064.132.066v1.45h.131v-1.45c.043-.004.088.009.132 0v1.45h.115v-1.516c.039-.01.075.015.115 0 .006-.017.01-.05.016-.066v1.582h.165V15.57c.042-.095.088-.177.131-.263v2.174h.115v-2.438c.044-.079.086-.192.132-.263v2.7h.131v-2.83c.044-.062.087-.142.131-.198v3.03h.115v-3.227c.043-.05.088-.088.132-.132v3.36h.164V13.99c.044-.038.087-.097.132-.132v3.624h.115v-3.69c.043-.03.087-.039.131-.065v3.755h.132V13.66l.131-.066v3.887h.115v-3.953c.044-.019.087-.05.131-.066v4.019h.165v-4.019c.043-.014.088-.053.131-.065v4.084h.115v-4.084c.044-.011.088-.057.132-.066v4.15h.131v-4.15c.044-.009.087-.058.132-.066v4.216h.115v-4.216c.044-.006.087.006.131 0v4.216h.164V13.2c.045-.006.088.006.132 0v4.282h.115v-4.348c.044-.006.087.007.131 0v4.348h.132v-4.414c.044-.008.087.009.131 0v4.414h.115v-4.414c.044-.008.088-.055.132-.065v4.48h.164v-4.48c.044-.013.088-.052.131-.066zm-8.71 4.216v.593a10 10 0 0 1-.065-.33c.019-.1.046-.166.066-.263" opacity=".528"/><path fill="url(#x)" d="m52 14.961-10.438 18h-5.156L26 14.961l10.438.032c-1.03.571-1.684 1.69-1.75 3.01L39 25.8l4.313-7.796c-.067-1.32-.72-2.439-1.75-3.01zm-16.303-1c.293 0 .545.156.545.337v.074c0 .181-.252.318-.545.318H25.545c-.293 0-.545-.137-.545-.318v-.074c0-.181.252-.337.545-.337zm14.758 0c.293 0 .545.156.545.337v.074c0 .181-.252.318-.545.318H40.303c-.293 0-.545-.137-.545-.318v-.074c0-.181.252-.337.545-.337z"/><path fill="#dbcd28" d="M46.14 7.963a.47.47 0 0 0-.34.41c-.12 1.013-.956 2.064-2.16 2.19a.466.466 0 0 0-.42.47v3.071c0 .125.048.245.135.333a.45.45 0 0 0 .325.138h2.12v16.356l-3.48 1.167a.47.47 0 0 0-.32.45v.942c0 .125.048.245.135.333a.46.46 0 0 0 .325.138h14.08c.122 0 .24-.05.325-.138A.48.48 0 0 0 57 33.49v-.941a.47.47 0 0 0-.32-.45L53.2 30.93V8.434a.48.48 0 0 0-.135-.333.45.45 0 0 0-.325-.138h-6.56z"/><path fill="#e7f700" d="M46.14 7.963h6.6a.47.47 0 0 1 .451.378l.009.093V30.93l3.48 1.167a.47.47 0 0 1 .313.364l.007.087v.941a.48.48 0 0 1-.135.333.46.46 0 0 1-.235.129l-.09.01H42.46a.46.46 0 0 1-.325-.139.47.47 0 0 1-.126-.24L42 33.49v-.941c0-.177.094-.336.242-.417l.078-.034 3.48-1.167V14.575h-2.12a.45.45 0 0 1-.325-.138.47.47 0 0 1-.126-.24l-.009-.093v-3.07a.466.466 0 0 1 .42-.471c1.144-.12 1.956-1.074 2.137-2.038l.023-.153a.47.47 0 0 1 .34-.41m.561.998-.019.074c-.326 1.129-1.222 2.078-2.385 2.413l-.077.019v2.108h2.58V31.65l-3.801 1.274v.036H56v-.037l-3.8-1.273V8.962z"/><path fill="#e6ffe6" d="M12.017 29.961v1.99H9v-1.99zm4.025 0v1.99H13v-1.99zm-4.025-4v2.009H9v-2.01zm4.025 0v2.009H13v-2.01zm41.958 0v2.009h-3v-2.01zm4.025 0v2.009H59v-2.01zm7.975 0v2.009h-3v-2.01zm-4 0v2.009h-3v-2.01zm-53.983-4v2H9v-2zm4.025 0v2H13v-2zm0-13v2H13v-2zm-4.025 0v2H9v-2z"/></g></svg>