<svg xmlns="http://www.w3.org/2000/svg" xmlns:xlink="http://www.w3.org/1999/xlink" viewBox="0 0 96 96"><defs><linearGradient id="b" x1="50%" x2="50%" y1="0%" y2="100%"><stop offset="0%" stop-color="#d2e455"/><stop offset="100%" stop-color="#96af37"/></linearGradient><filter id="a" width="130.8%" height="130.8%" x="-15.4%" y="-15.4%" filterUnits="objectBoundingBox"><feOffset dy="2" in="SourceAlpha" result="shadowOffsetOuter1"/><feGaussianBlur in="shadowOffsetOuter1" result="shadowBlurOuter1" stdDeviation="2"/><feColorMatrix in="shadowBlurOuter1" result="shadowMatrixOuter1" values="0 0 0 0 0 0 0 0 0 0 0 0 0 0 0 0 0 0 0.2 0"/><feMerge><feMergeNode in="shadowMatrixOuter1"/><feMergeNode in="SourceGraphic"/></feMerge></filter></defs><g fill="none" fill-rule="evenodd" filter="url(#a)" transform="translate(9 9)"><rect width="78" height="78" fill="#fff" rx="18"/><path fill="url(#b)" d="M17.595 61.323c.513.09.614.09 1.1.275.12.045.352.128.651.377.3.25.682.64 1.029 1.08 1.674 2.125 1.673 4.766 0 6.712-1.74 2.022-4.367 2.447-6.61 1.07-2.122-1.304-3.045-3.822-2.244-6.116.86-2.463 3.386-3.875 6.074-3.398m38.877-34.52c5.735 7.924 5.755 20.976.084 28.95-2.7 3.796-6.216 5.827-11.02 5.77-3.41-.04-6.856.005-10.256 0-5.355-.008-10.66-.05-16.033-.037.28-2.555 1.38-5.283 1.99-7.746.34-1.378 1.286-1.337 2.224-1.296l.245.01q.12.005.241.004c7.179-.015 14.36-.097 21.535.028 3.571.063 5.94-1.546 7.536-4.523 2.016-3.763 2.352-7.22 1.073-11.287-1.552-4.937-4.197-7.183-9.366-7.19-7.745-.01-15.492-.051-23.236.03l-.176.001h-.326c-1.497-.016-1.857-.269-1.294-2.099 1.708-5.542 1.82-5.89 6.541-5.9h.757l1.129.002c5.856 0 11.716.121 17.568-.034 4.732-.124 8.135 1.656 10.784 5.317M41.175 7.675c-1.77 6.354-1.695 6.862-8.328 6.862-5.573 0-11.145-.007-16.717.002-5.473.009-8.54 2.415-9.725 7.857-.672 3.09-.526 6.203.625 9.202 1.669 4.353 4.154 5.92 8.802 5.925 7.839.008 15.679.06 23.516-.037 1.977-.023 2.363.407 1.765 2.344-1.91 6.2-1.837 6.656-8.427 6.656-5.855 0-11.713-.092-17.566.03-4.34.09-7.656-1.654-10.261-4.986-6.37-8.148-6.494-22.516-.271-30.755 2.604-3.447 5.923-5.41 10.396-5.278 3.868.115 7.743.023 11.616.021 4.25-.002 8.5.057 12.749-.032 1.716-.035 2.378.206 1.826 2.19m8.055-3.781c-.256 1.835-1.22 3.3-3.498 3.473-2.174.164-3.891-1.404-3.887-3.552C41.85 1.565 43.11.3 45.262.023c1.97-.252 3.887 1.577 3.968 3.87" transform="translate(8 3.514)"/></g></svg>