<svg xmlns="http://www.w3.org/2000/svg" xmlns:xlink="http://www.w3.org/1999/xlink" viewBox="0 0 96 96"><defs><filter id="a" width="130.9%" height="126.9%" x="-15.4%" y="-13.4%" filterUnits="objectBoundingBox"><feOffset dy="2" in="SourceAlpha" result="shadowOffsetOuter1"/><feGaussianBlur in="shadowOffsetOuter1" result="shadowBlurOuter1" stdDeviation="2"/><feColorMatrix in="shadowBlurOuter1" result="shadowMatrixOuter1" values="0 0 0 0 0 0 0 0 0 0 0 0 0 0 0 0 0 0 0.2 0"/><feMerge><feMergeNode in="shadowMatrixOuter1"/><feMergeNode in="SourceGraphic"/></feMerge></filter><filter id="c" width="101.5%" height="112.5%" x="-.8%" y="-3.1%" filterUnits="objectBoundingBox"><feOffset dy="1" in="SourceAlpha" result="shadowOffsetOuter1"/><feColorMatrix in="shadowOffsetOuter1" values="0 0 0 0 0 0 0 0 0 0 0 0 0 0 0 0 0 0 0.235549607 0"/></filter><linearGradient id="e" x1="50%" x2="50%" y1="0%" y2="99.437%"><stop offset="0%" stop-color="#fff36a"/><stop offset="100%" stop-color="#f9da00"/></linearGradient><path id="b" d="M8.845 5.064h50a8 8 0 0 1 8 8v8h-66v-8a8 8 0 0 1 8-8"/></defs><g fill="none" fill-rule="evenodd" filter="url(#a)" transform="translate(9.149 4.33)"><rect width="66" height="80" x="5.851" y="4.67" fill="#fef3a1" rx="8" transform="rotate(-9 38.851 44.67)"/><path fill="#000" fill-opacity=".144" d="m76.135 69.127.157.987-65.205 10.21-.157-.988zm-1.31-8.27.157.989L9.777 72.055l-.156-.987zm-1.205-7.613.156.988L8.57 64.442l-.156-.988zm-1.37-8.648.157.987-65.205 10.21-.157-.987zm-1.324-8.364.156.987-65.205 10.21-.157-.988zM69.85 29.44l.157.988L4.8 40.639l-.156-.988zm-1.183-7.473.156.987-65.205 10.21-.157-.987z"/><g transform="rotate(-9 33.845 13.064)"><use xlink:href="#b" fill="#000" filter="url(#c)"/><use xlink:href="#b" fill="url(#e)"/></g></g></svg>