<svg xmlns="http://www.w3.org/2000/svg" xmlns:xlink="http://www.w3.org/1999/xlink" viewBox="0 0 96 96"><defs><linearGradient id="b" x1="50%" x2="50%" y1="2.614%" y2="99.383%"><stop offset="0%" stop-color="#63c867"/><stop offset="100%" stop-color="#138918"/></linearGradient><linearGradient id="c" x1="50%" x2="50%" y1="0%" y2="100%"><stop offset="0%" stop-color="#363a37"/><stop offset="100%" stop-color="#202826"/></linearGradient><filter id="a" width="128.6%" height="128.6%" x="-14.3%" y="-14.3%" filterUnits="objectBoundingBox"><feOffset dy="2" in="SourceAlpha" result="shadowOffsetOuter1"/><feGaussianBlur in="shadowOffsetOuter1" result="shadowBlurOuter1" stdDeviation="2"/><feColorMatrix in="shadowBlurOuter1" result="shadowMatrixOuter1" values="0 0 0 0 0 0 0 0 0 0 0 0 0 0 0 0 0 0 0.2 0"/><feMerge><feMergeNode in="shadowMatrixOuter1"/><feMergeNode in="SourceGraphic"/></feMerge></filter></defs><g fill="none" fill-rule="evenodd" filter="url(#a)" transform="translate(6 6.315)"><circle cx="42" cy="42" r="42" fill="url(#b)"/><path fill="url(#c)" fill-rule="nonzero" d="M29.71 8.685c3.484 0 5.275 4.122 2.983 6.666l-.129.137-16.556 16.85v8.819l31.527-31.31a4 4 0 0 1 2.593-1.156l.226-.006h21.492c3.514 0 5.292 4.183 2.941 6.712l-.132.136L21.76 67.684h8.912l36.526-36.115c2.481-2.453 6.66-.77 6.809 2.656l.004.189v22.028a4 4 0 0 1-.922 2.555l-.154.175-7.947 8.512h5.023a4 4 0 0 1 3.995 3.8l.005.2a4 4 0 0 1-3.8 3.996l-.2.005H55.783c-3.434 0-5.244-4.023-3.05-6.589l.126-.14 13.152-14.091V43.994L35.13 74.529a4 4 0 0 1-2.588 1.15l-.225.006H12.008c-3.513 0-5.292-4.184-2.94-6.712l.132-.137 52.892-52.152h-10.09L14.827 53.606c-2.479 2.462-6.666.781-6.815-2.65l-.004-.188V30.703a4 4 0 0 1 .983-2.626l.164-.177 11.018-11.216H9.546a4 4 0 0 1-3.996-3.8l-.004-.2a4 4 0 0 1 3.8-3.995l.2-.004z"/></g></svg>