<svg xmlns="http://www.w3.org/2000/svg" xmlns:xlink="http://www.w3.org/1999/xlink" viewBox="0 0 96 96"><defs><linearGradient id="b" x1="90.967%" x2="7.984%" y1="26.756%" y2="73.244%"><stop offset="0%" stop-color="#fff"/><stop offset="100%" stop-color="#d2feff"/></linearGradient><linearGradient id="c" x1="90.967%" x2="7.984%" y1="25.24%" y2="74.76%"><stop offset="0%" stop-color="#fff"/><stop offset="100%" stop-color="#d2feff"/></linearGradient><linearGradient id="d" x1="90.967%" x2="7.984%" y1="23.554%" y2="76.446%"><stop offset="0%" stop-color="#fff"/><stop offset="100%" stop-color="#d2feff"/></linearGradient><linearGradient id="e" x1="90.967%" x2="7.984%" y1="23.111%" y2="76.889%"><stop offset="0%" stop-color="#fff"/><stop offset="100%" stop-color="#d2feff"/></linearGradient><filter id="a" width="130.1%" height="133.8%" x="-14.5%" y="-16.9%" filterUnits="objectBoundingBox"><feOffset dy="2" in="SourceAlpha" result="shadowOffsetOuter1"/><feGaussianBlur in="shadowOffsetOuter1" result="shadowBlurOuter1" stdDeviation="2"/><feColorMatrix in="shadowBlurOuter1" result="shadowMatrixOuter1" values="0 0 0 0 0 0 0 0 0 0 0 0 0 0 0 0 0 0 0.2 0"/><feMerge><feMergeNode in="shadowMatrixOuter1"/><feMergeNode in="SourceGraphic"/></feMerge></filter></defs><g fill="none" fill-rule="evenodd" filter="url(#a)" transform="translate(6 12)"><path fill="#c5c5c5" d="M41 0a1 1 0 0 1 1 1v17.067a1 1 0 0 1-1 1l-9.147-.002q.035.13.036.268l-.001.467h3.82a1 1 0 0 1 .43.097l2.106 1.003a.578.578 0 0 1-.248 1.1h-17.69a.572.572 0 0 1-.22-1.1l2.456-1.023a1 1 0 0 1 .385-.077h3.184v-.467q0-.139.036-.268L17 19.067a1 1 0 0 1-1-1V1a1 1 0 0 1 1-1z"/><path fill="url(#b)" d="M2 2h22v15H2z" opacity=".7" transform="translate(16)"/><path fill="#9d9d9d" d="M67 4a1 1 0 0 1 1 1v21.4a1 1 0 0 1-1 1H55.55q.006.05.006.1l-.001.8h4.753a1 1 0 0 1 .429.097l2.64 1.253a.71.71 0 0 1-.303 1.35H41.298a.702.702 0 0 1-.27-1.35l3.067-1.274a1 1 0 0 1 .384-.076h3.965v-.8l.006-.1H37a1 1 0 0 1-1-1V5a1 1 0 0 1 1-1z"/><path fill="url(#c)" d="M2 2h27v19H2z" opacity=".9" transform="translate(36 4)"/><g fill="#373737" transform="translate(1 14)"><path d="M16 28h8v4h-8z"/><path d="M10 31h20l7 3H2z"/><rect width="39" height="28" rx="1"/></g><path fill="url(#d)" d="M3 2h33v24H3z" transform="translate(1 14)"/><path fill="#6e6e6e" d="M48 48a1 1 0 0 1-1-1V23a1 1 0 0 1 1-1h34a1 1 0 0 1 1 1v24a1 1 0 0 1-1 1H69v1h5.377a1 1 0 0 1 .425.095L77.8 50.5a.787.787 0 0 1-.334 1.5H52.953a.78.78 0 0 1-.296-1.5l3.475-1.425a1 1 0 0 1 .38-.075H61v-1z"/><path fill="url(#e)" d="M3 2h30v22H3z" transform="translate(47 22)"/><path fill="#0079ff" d="M10.204 54v5H25v8H10.204v4L0 62.5zM73 54l.001 5H58.306v8h14.695L73 71l10.204-8.5z"/><path fill="#489fff" d="M26 59h10v8H26zm20 0h10v8H46z"/><path fill="#74b6ff" d="M38 59h6v8h-6z"/></g></svg>