<svg xmlns="http://www.w3.org/2000/svg" xmlns:xlink="http://www.w3.org/1999/xlink" viewBox="0 0 96 96"><defs><linearGradient id="b" x1="101.086%" x2="9.724%" y1="101.356%" y2="7.785%"><stop offset="0%" stop-color="#1e8b1a"/><stop offset="100%" stop-color="#e6fb95"/></linearGradient><linearGradient id="c" x1="50%" x2="50%" y1="0%" y2="98.634%"><stop offset="0%" stop-color="#ffc178"/><stop offset="100%" stop-color="#914800"/></linearGradient><linearGradient id="d" x1="43.502%" x2="14.959%" y1="52.881%" y2="39.655%"><stop offset="0%" stop-color="#f6e6b1"/><stop offset="100%" stop-color="#fff"/></linearGradient><linearGradient id="e" x1="50%" x2="50%" y1="0%" y2="100%"><stop offset="0%" stop-color="#ffce9c"/><stop offset="100%" stop-color="#b16000"/></linearGradient><linearGradient id="f" x1="66.203%" x2="31.625%" y1="93.75%" y2="44.051%"><stop offset="0%" stop-color="#46a046"/><stop offset="100%" stop-color="#ddf690"/></linearGradient><linearGradient id="g" x1="50%" x2="50%" y1="0%" y2="100%"><stop offset="0%" stop-color="#ffc88c"/><stop offset="100%" stop-color="#904d00"/></linearGradient><filter id="a" width="130%" height="130%" x="-15%" y="-15%" filterUnits="objectBoundingBox"><feOffset dy="2" in="SourceAlpha" result="shadowOffsetOuter1"/><feGaussianBlur in="shadowOffsetOuter1" result="shadowBlurOuter1" stdDeviation="2"/><feColorMatrix in="shadowBlurOuter1" result="shadowMatrixOuter1" values="0 0 0 0 0 0 0 0 0 0 0 0 0 0 0 0 0 0 0.2 0"/><feMerge><feMergeNode in="shadowMatrixOuter1"/><feMergeNode in="SourceGraphic"/></feMerge></filter></defs><g fill="none" filter="url(#a)" transform="translate(8 8)"><path fill="url(#b)" d="M22.54 1h34.92C69.356 1 79 10.644 79 22.54v34.92C79 69.356 69.356 79 57.46 79H22.54C10.644 79 1 69.356 1 57.46V22.54C1 10.644 10.644 1 22.54 1"/><path fill="url(#c)" d="M57.46 0H22.54C10.092 0 0 10.092 0 22.54v34.92C0 69.908 10.092 80 22.54 80h34.92C69.908 80 80 69.908 80 57.46V22.54C80 10.092 69.908 0 57.46 0m0 1C69.356 1 79 10.644 79 22.54v34.92C79 69.356 69.356 79 57.46 79H22.54C10.644 79 1 69.356 1 57.46V22.54C1 10.644 10.644 1 22.54 1z"/><path fill="url(#d)" d="M39.121 12.01C25.083 12.299 11.53 19.07 4 30.973L28.75 44c3.593-5.65 11.551-7.6 17.754-4.332 2.062 1.087 3.553 2.455 4.746 4.332L76 30.973c-3.824-6.046-8.599-10.403-15.223-13.894-6.83-3.6-14.303-5.22-21.656-5.07"/><path fill="url(#e)" d="M39.1 11.01c-14.75.304-28.418 7.53-35.945 19.428a1 1 0 0 0 .38 1.42l24.75 13.027a1 1 0 0 0 1.309-.348c3.311-5.207 10.698-7.012 16.444-3.984 1.902 1.002 3.266 2.248 4.368 3.983a1 1 0 0 0 1.31.349l24.75-13.027a1 1 0 0 0 .38-1.42c-3.92-6.195-8.826-10.672-15.602-14.243C54.627 12.708 47.27 10.959 39.8 11zm.042 2c7.375-.152 14.65 1.519 21.17 4.954l.565.303c5.616 3.052 9.83 6.768 13.269 11.718l.417.613L51.573 42.7l-.195-.262c-1.167-1.52-2.59-2.696-4.408-3.654l-.308-.158c-6.296-3.129-14.159-1.356-18.19 4.018l-.042.058L5.438 30.599l.226-.33c7.305-10.576 19.9-16.98 33.478-17.26"/><path fill="#000" stroke="#89725b" stroke-linecap="round" stroke-linejoin="round" stroke-width=".758" d="M52.935 19.03c-1.545 2.484-1.907 5.755-3.013 8.53l-4.411 13.95c-4.064-4.617-12.795-1.754-13.301 4.419-1.086 5.797 5.693 11.043 11.05 8.386 5.052-2.656 5.19-9.099 7.013-13.854l3.955-13.106c1.352 3.535 3.274 8.508-.302 11.378-2.23 1.053-1.583 5.186 1.191 4.336 4.855-2.017 6.656-8.648 4.454-13.25-1.632-3.433-3.699-6.712-5.623-10.006-.282-.252-.468-1.12-1.013-.783"/><path fill="url(#f)" d="m22.42 2-.859 2.746-6.497 20.786c-1.457-2.073-3.916-3.338-6.597-3.057-3.96.415-6.839 3.996-6.428 7.994.41 4 3.957 6.907 7.916 6.492 3.121-.327 5.54-2.637 6.236-5.554L23.364 7.45c.627 1.107 1.363 3.682 1.869 5.172.603 1.778.936 3.664.686 5.322s-.988 3.117-2.795 4.394a1.5 1.5 0 0 0-.73 1.38A1.49 1.49 0 0 0 23.281 25a1.47 1.47 0 0 0 1.537-.22c2.415-1.706 3.668-4.033 4.022-6.378.354-2.346.139-4.7-.82-6.383-1.873-2.951-3.037-5.32-4.039-7.01C23.52 4.002 22.941 3.004 22.42 2" transform="translate(31 18)"/><path fill="url(#g)" d="m20.51 1.404-6.402 20.483-.195-.124a9.02 9.02 0 0 0-5.655-1.277c-5.06.53-8.731 5.096-8.208 10.188.523 5.095 5.05 8.807 10.113 8.276l.278-.033c3.688-.501 6.662-3.2 7.626-6.776l.052-.203 2.319-7.743.007.05a3.49 3.49 0 0 0 2.035 2.588l.203.081a3.47 3.47 0 0 0 3.248-.466l.078-.061-.037.027c2.727-1.927 4.385-4.663 4.846-7.714.433-2.872.107-5.621-1.06-7.67l-.475-.772c-.784-1.3-1.838-3.15-2.6-4.505l-.901-1.614-.122-.262a31 31 0 0 0-.699-1.364l-.766-1.434c-.823-1.585-3.152-1.38-3.684.325M22.42 2c.52 1.003 1.1 2 1.561 3.01 1.002 1.688 2.166 4.058 4.04 7.009.958 1.682 1.173 4.037.819 6.383-.34 2.251-1.509 4.486-3.738 6.171l-.284.208a1.47 1.47 0 0 1-1.537.22 1.49 1.49 0 0 1-.888-1.282 1.5 1.5 0 0 1 .731-1.381c1.807-1.277 2.545-2.736 2.795-4.394.234-1.548-.041-3.293-.57-4.965l-.304-.924c-.457-1.408-1.044-3.348-1.57-4.395l-.11-.21-7.174 23.957c-.696 2.917-3.115 5.227-6.236 5.554-3.96.415-7.505-2.493-7.916-6.492-.41-3.998 2.469-7.579 6.428-7.994 2.588-.271 4.97.898 6.442 2.846l.155.211z" transform="translate(31 18)"/><path fill="#304321" d="m14.071 69.267-2.74-.47h-.097q-1.212-.176-2.667-.04-.558.452-2.085.353-.024 0-.17-.02-.824 0-1.163-.43-.195-.255-.049-.568a3.2 3.2 0 0 0 .534-1.822q.17-2.293.17-6.934l.048-1.606a.3.3 0 0 1-.025-.118l-.145-1.273q.024-.333.218-.588.534-.606 1.503-.45.679.098.995.529.363.353.096 1.175-.097.294-.12.431l-.146 1.92q0 .117-.049.215l-.17 4.544-.024 2.508q.024.097.025.196.315.078 1.6.097.267 0 .485.02.8.02 3.321.411l1.407.157q.387.097.484.333.098.117.073.353-.024.098.243.176.582.255.048.646-.509.372-.994.275-.413 0-.606-.02m7.194 0q-1.163-.216-.825-1.743l.073-.294q0-.411.364-1.802.145-.51.17-.862.024-.745.897-.999.872-.255 1.479.274.146.118.218.274.29.471-.097 1.332-.242.57-.267.843-.146.313-.218 1.45-.048.626-.243.92-.072.392-.872.587-.413.099-.68.02m1.043-6.17q-.848-.06-1.042-.764-.194-.705.412-1.117.46-.332 1.479-.117.75.156.897.529.582.646-.364 1.234a2.2 2.2 0 0 1-.945.313q-.073.118-.437-.078m13.213 6.072q-.558-.549-.63-1.822-.049-.744-.122-1.038.098-.861-.436-.999-.534-.118-.994.608-.34.312-.921 1.39-.267.549-.558.862-.146.921-1.358.96a2.86 2.86 0 0 1-1.26-.216q-.486-.45-.243-1.606.218-1.057.121-1.45l.17-2.291q.048-.215.097-.411.315-.588 1.164-.764.921-.158 1.188.411.048.137.072.294l.219.9q.145.255.581-.293 1.068-.862 2.207-.764.606.039 1.042.45.825.648 1.261 2.292l.146.608q-.073.293.242 1.43.291 1.116-.267 1.41-.194.097-.509.137l-.824.118a.51.51 0 0 1-.388-.216m9.699 3.8a5.82 5.82 0 0 1-3.274-1.41q-.702-.549-.63-1.332.073-.705.873-.882 1.09-.195 1.527.901.05.118.097.275 1.066.9 2.619.842 1.14.02 1.649-.686.435-.587-.025-1.234-.775-1.762-1.042-2.194a1.3 1.3 0 0 0-.122-.195q-.266-.06-1.454.039-1.165.078-1.6-.45-.704-.608-.873-1.98-.291-1.527.873-2.761a3.7 3.7 0 0 1 1.648-1.019q1.843-.255 2.57.51a.9.9 0 0 1 .243.372q.363.43.097 1.371-.219.802-.049 1.156.121.215.073.98-.024.626.364.959l.582 1.469q.145.275.363.51 1.14 1.292.534 3.172-.559.764-2.473 1.313a3 3 0 0 1-.17.039q-1.431.411-2.4.235m.897-8.756q.146-.528-.413-.705-.435-.136-.557.137-.098.195.097.51-.388.372.024.568.413.176.703-.079.195-.156.146-.43m11.692 5.073q-1.455-.157-2.57-1.861-1.212-2.41-.121-4.27.048-.06.097-.137.242-.823 1.867-1.195 1.6-.431 3.346.568.194.117.387.254.267.255.776 1.254.388.803.97 1.097.85 1.35.218 2.429-.12.215-.315.392-.75 1.155-2.643 1.41-.508.058-1.018.039zm1.164-1.763q.945-.08 1.212-.901.195-.686-.242-1.234-.364-.157-.994-.98-.607-.764-1.091-.744-.34 0-.752.313-.558 1.745.388 3.291.315.43 1.479.255m10.491 1.508q-1.236-.49-.582-2.096l.558-3.8q.024-.176.024-.372.243-1.058.122-1.312-.17-.392-.849-.177a2.1 2.1 0 0 1-1.649-.176q-.776-.411-.485-1.077.364-.667 1.843-.94 1.163-.236 1.334-.294.387-1.078.557-1.313.413-.588 1.164-.607.897 0 1.382.999.024.06.218.45.219.177 1.188.177.8 0 1.115.215.704.216.898.901.194.765-.558 1-.145.058-.34.078-.29.097-1.551.058-1.188-.039-1.406.431a3 3 0 0 0-.049.177l-.364 2.428-.388 2.762q-.073.177-.145 1.234-.073 1.02-.8 1.195a6 6 0 0 1-.218.04q-.68.156-.873.097z"/></g></svg>