<svg xmlns="http://www.w3.org/2000/svg" xmlns:xlink="http://www.w3.org/1999/xlink" viewBox="0 0 96 96"><defs><filter id="a" width="128.4%" height="128.4%" x="-14.2%" y="-14.2%" filterUnits="objectBoundingBox"><feOffset dy="2" in="SourceAlpha" result="shadowOffsetOuter1"/><feGaussianBlur in="shadowOffsetOuter1" result="shadowBlurOuter1" stdDeviation="2"/><feColorMatrix in="shadowBlurOuter1" result="shadowMatrixOuter1" values="0 0 0 0 0 0 0 0 0 0 0 0 0 0 0 0 0 0 0.2 0"/><feMerge><feMergeNode in="shadowMatrixOuter1"/><feMergeNode in="SourceGraphic"/></feMerge></filter></defs><g fill="none" filter="url(#a)" transform="translate(6 6)"><circle cx="42.24" cy="42.24" r="42.24" fill="#00e3fb"/><path fill="#00c7dc" d="M37.91 84.261q2.136.219 4.33.22c23.329 0 42.24-18.912 42.24-42.24 0-2.44-.206-4.83-.603-7.156L65.44 16.497 16.26 32.52l1.289 31.38z"/><path fill="#112c41" d="M16 39h52v22.867C68 63.597 66.313 65 64.232 65H19.768C17.687 65 16 63.598 16 61.867z"/><path fill="#ffd320" d="M66 43H18v19h48zm-2 2v15H20V45z"/><path fill="#ffd320" d="M25.725 44.874h1.92v15.36h-1.92z"/><path fill="#ffd320" d="M64.4 52v1.92H26V52z"/><path fill="#ffd320" d="M42 44h2v17h-2z"/><rect width="52" height="9" x="16" y="33" fill="#09323c" rx="3.894"/><rect width="51.585" height="1.92" x="16.074" y="34.08" fill="#fff" rx=".96"/><rect width="51.585" height="1.92" x="16.074" y="39.982" fill="#fff" rx=".96"/><path fill="#fff" d="m16.676 40.057 5.134-5.133c.333-.333.906-.299 1.281.076s.41.949.076 1.282l-5.133 5.133c-.333.333-.907.299-1.282-.076s-.409-.949-.076-1.282m25.601-.05 5.409-5.409c.35-.35.939-.33 1.314.044.375.375.394.963.043 1.314l-5.408 5.408c-.35.351-.94.332-1.314-.043s-.395-.963-.044-1.314m-16.927.094 5.78-5.779a.96.96 0 0 1 1.357 1.358l-5.779 5.779a.96.96 0 0 1-1.357-1.358m24.933.865 6.382-6.382 1.232.639-6.114 6.113zm-16.006-.823 5.409-5.408c.35-.35.939-.331 1.314.044s.394.963.043 1.314L35.636 41.5c-.35.351-.94.331-1.314-.043-.375-.375-.394-.964-.044-1.315m25.522.026 5.408-5.408c.351-.351.94-.332 1.314.043s.395.964.044 1.314l-5.408 5.409c-.351.35-.94.331-1.315-.044-.374-.375-.394-.963-.043-1.314"/><g transform="rotate(170 6.582 17.666)scale(-1 1)"><rect width="51.585" height="8.598" fill="#09323c" rx="3.894"/><rect width="51.585" height="1.92" fill="#fff" rx=".96"/><path fill="#fff" d="M0 7.102h51.585v1.496H0z"/><path fill="#fff" d="M1.053 6.458 6.832.678a.96.96 0 1 1 1.357 1.358L2.41 7.816a.96.96 0 0 1-1.357-1.358m25.612.186L32.444.865A.96.96 0 0 1 33.8 2.223l-5.779 5.78a.96.96 0 1 1-1.357-1.359m-17.387.188 5.779-5.779a.96.96 0 0 1 1.357 1.358L10.634 8.19a.96.96 0 1 1-1.357-1.358m25.694-.187 5.78-5.779a.96.96 0 1 1 1.357 1.358l-5.78 5.779a.96.96 0 0 1-1.357-1.358m-16.723-.187 5.779-5.78a.96.96 0 1 1 1.357 1.358l-5.779 5.78a.96.96 0 1 1-1.357-1.358m25.612.186L49.639.865a.96.96 0 0 1 1.357 1.358l-5.779 5.78a.96.96 0 1 1-1.357-1.359"/></g></g></svg>