<svg xmlns="http://www.w3.org/2000/svg" viewBox="0 0 64 64"><rect width="32" height="42" x="16" y="14" opacity=".2" rx="2.5" ry="2.5"/><rect width="32" height="42" x="16" y="13" fill="#8e8e8e" rx="2.5" ry="2.5"/><rect width="52" height="40" x="6" y="10" opacity=".2" rx="2.5" ry="2.5"/><path fill="#3f3f3f" d="M6 44v2.5C6 47.885 7.115 49 8.5 49h47c1.385 0 2.5-1.115 2.5-2.5V44z"/><path fill="#1c64dd" d="M8.5 9A2.495 2.495 0 0 0 6 11.5V44h52V11.5c0-1.385-1.115-2.5-2.5-2.5Z"/><path d="M6 44h52v1H6z" opacity=".2"/><path fill="#fff" d="M8.5 9A2.495 2.495 0 0 0 6 11.5v1C6 11.115 7.115 10 8.5 10h47c1.385 0 2.5 1.115 2.5 2.5v-1c0-1.385-1.115-2.5-2.5-2.5z" opacity=".1"/><rect width="16" height="24" x="14" y="16" opacity=".2" rx="2.667" ry="2.4"/><rect width="16" height="24" x="14" y="15" fill="#4fbff5" rx="2.667" ry="2.4"/><rect width="16" height="10" x="34" y="16" opacity=".2" rx="2.667" ry="2.5"/><rect width="16" height="10" x="34" y="15" fill="#4fbff5" rx="2.667" ry="2.5"/><rect width="16" height="10" x="34" y="30" opacity=".2" rx="2.667" ry="2.5"/><rect width="16" height="10" x="34" y="29" fill="#4fbff5" rx="2.667" ry="2.5"/><path fill="#fff" d="M16.668 15C15.191 15 14 16.069 14 17.398v1C14 17.068 15.19 16 16.668 16h10.664C28.809 16 30 17.069 30 18.398v-1C30 16.068 28.81 15 27.332 15zm20 0C35.191 15 34 16.115 34 17.5v1c0-1.385 1.19-2.5 2.668-2.5h10.664C48.809 16 50 17.115 50 18.5v-1c0-1.385-1.19-2.5-2.668-2.5zm0 14C35.191 29 34 30.115 34 31.5v1c0-1.385 1.19-2.5 2.668-2.5h10.664C48.809 30 50 31.115 50 32.5v-1c0-1.385-1.19-2.5-2.668-2.5z" opacity=".2"/></svg>