<svg xmlns="http://www.w3.org/2000/svg" xmlns:xlink="http://www.w3.org/1999/xlink" viewBox="0 0 96 96"><defs><linearGradient id="b" x1="50%" x2="50%" y1="0%" y2="100%"><stop offset="0%" stop-color="#50abea"/><stop offset="100%" stop-color="#296dc2"/></linearGradient><filter id="a" width="126.8%" height="126.8%" x="-13.4%" y="-13.4%" filterUnits="objectBoundingBox"><feOffset dy="2" in="SourceAlpha" result="shadowOffsetOuter1"/><feGaussianBlur in="shadowOffsetOuter1" result="shadowBlurOuter1" stdDeviation="2"/><feColorMatrix in="shadowBlurOuter1" result="shadowMatrixOuter1" values="0 0 0 0 0 0 0 0 0 0 0 0 0 0 0 0 0 0 0.2 0"/><feMerge><feMergeNode in="shadowMatrixOuter1"/><feMergeNode in="SourceGraphic"/></feMerge></filter></defs><g fill="none" fill-rule="evenodd" filter="url(#a)" transform="translate(3.25 3.25)"><path fill="url(#b)" d="M8.212 8.212h73.076v73.076H8.212z" transform="rotate(-15 44.75 44.75)"/><path fill="#fff" d="m43.468 47.71 12.211 31.937-5.949 1.594-1.85-5.095H31.986l-3.455 9.514h-6.644l14.51-37.95zm22.27 25.407.06.374q.308 1.833.954 3.19l-6.148 1.648q-.814-2.117-1.005-4.778l-.026-.434zm9.355-26.151q5.126 0 8.505 1.594l2.776 10.364-2.405.001-.087-.364q-.822-3.225-2.836-4.685-2.02-1.542-6.272-1.542-3.614 0-5.474 1.01-2.34 1.17-2.34 3.933 0 2.5 2.658 3.88 1.275.691 6.485 2.339 7.494 2.286 9.94 3.72 2.135 1.264 3.348 2.964l.109.406-6.336 1.697q-.786-.716-1.958-1.293-1.276-.637-7.389-2.498-7.068-2.232-8.716-3.189-4.359-2.604-4.359-7.654 0-5.102 4.252-7.92 3.933-2.763 10.1-2.763m-35.027 7.441h-.213l-6.006 16.637H46.02zm10.35-47.862-10.95 37.95h-6.59l-7.388-28.542h-.213l-7.441 28.543H11.19l-7.62-26.54 6.15-1.647 4.712 19.098h.213l5.698-21.945 9.371-2.51 6.35 24.455h.214l6.926-28.07 2.955-.792zm10.205 0v37.95h-6.219V6.546z"/></g></svg>