<svg xmlns="http://www.w3.org/2000/svg" viewBox="0 0 64 64"><path d="M8 33v25c0 1.662 1.338 3 3 3h42c1.662 0 3-1.338 3-3V33z" opacity=".2"/><path fill="#4747d1" d="M8 32v25c0 1.662 1.338 3 3 3h42c1.662 0 3-1.338 3-3V32z"/><path d="M56.106 5.056 5.536 17.165a1.996 1.996 0 0 0-1.48 2.41l.932 3.89a1.996 1.996 0 0 0 2.41 1.48L57.97 12.836a1.996 1.996 0 0 0 1.48-2.41l-.932-3.89a1.996 1.996 0 0 0-2.411-1.48z" opacity=".2"/><path fill="#4747d1" d="M56.106 4.056 5.536 16.165a1.996 1.996 0 0 0-1.48 2.41l.932 3.89a1.996 1.996 0 0 0 2.41 1.48l50.572-12.11a1.996 1.996 0 0 0 1.48-2.41l-.932-3.89a1.996 1.996 0 0 0-2.411-1.48z"/><path fill="#f9f9f9" d="m23.04 11.973 9.643 5.917 7.78-1.863-9.643-5.917zm17.506-4.191 9.643 5.917 7.78-1.863-9.643-5.917zM5.535 16.164l9.643 5.917 7.78-1.863-9.643-5.917z"/><path fill="#fff" d="M56.106 4.056a1.996 1.996 0 0 1 2.41 1.48l.234.972a1.996 1.996 0 0 0-2.411-1.48L5.768 17.138a1.996 1.996 0 0 0-1.48 2.41l-.232-.972a1.996 1.996 0 0 1 1.479-2.411z" opacity=".2"/><rect width="56" height="8" x="4" y="25" opacity=".2" rx="2" ry="2"/><rect width="56" height="8" x="4" y="24" fill="#4747d1" rx="2" ry="2"/><path fill="#f9f9f9" d="m40 24-8 8h-8l8-8zm-18 0-8 8H6l8-8zm36 0-8 8h-8l8-8z"/><path fill="#fff" d="M6 24c-1.108 0-2 .892-2 2v1c0-1.108.892-2 2-2h52c1.108 0 2 .892 2 2v-1c0-1.108-.892-2-2-2z" opacity=".2"/><path d="M6 17h6c1.108 0 8 8.892 8 10v4c0 1.108-.892 2-2 2H6c-1.108 0-2-.892-2-2V19c0-1.108.892-2 2-2" opacity=".2"/><path fill="#ccc" d="M6 16h6c1.108 0 8 8.892 8 10v4c0 1.108-.892 2-2 2H6c-1.108 0-2-.892-2-2V18c0-1.108.892-2 2-2"/><path d="m39 47-14 8V39z" opacity=".201"/><path fill="#f9f9f9" d="m39 46-14 8V38z"/><path fill="#fff" d="M6 16c-1.108 0-2 .892-2 2v1c0-1.108.892-2 2-2h6c1.108 0 8 8.892 8 10v-1c0-1.108-6.892-10-8-10z" opacity=".201"/></svg>