<svg xmlns="http://www.w3.org/2000/svg" viewBox="0 0 64 64"><rect width="56" height="56" x="4" y="5" opacity=".2" rx="2.8" ry="2.8"/><rect width="56" height="56" x="4" y="4" fill="#4b5b69" rx="2.8" ry="2.8"/><path d="M11 18v10h3V18Zm11 9a3 3 0 0 0-3 3 3 3 0 0 0 3 3 3 3 0 0 0 3-3 3 3 0 0 0-3-3m8 7v3h10v-3zm13 0v3h10v-3Zm-21.025 3.986A2.975 2.975 0 0 0 19 40.963a2.975 2.975 0 0 0 2.016 2.812L20.033 48h2.197c1.409-2.263 3.082-4.25 2.721-7.037a2.975 2.975 0 0 0-2.976-2.977" opacity=".2"/><path fill="#fff" d="M11 17v10h3V17Zm11 9a3 3 0 0 0-3 3 3 3 0 0 0 3 3 3 3 0 0 0 3-3 3 3 0 0 0-3-3m8 7v3h10v-3zm13 0v3h10v-3Zm-21.025 3.986A2.975 2.975 0 0 0 19 39.963a2.975 2.975 0 0 0 2.016 2.812L20.033 47h2.197c1.409-2.263 3.082-4.25 2.721-7.037a2.975 2.975 0 0 0-2.976-2.977"/><path fill="#fff" d="M6.8 4C5.25 4 4 5.25 4 6.8v1C4 6.25 5.25 5 6.8 5h50.4C58.75 5 60 6.25 60 7.8v-1C60 5.25 58.75 4 57.2 4z" opacity=".1"/></svg>