<svg xmlns="http://www.w3.org/2000/svg" xmlns:xlink="http://www.w3.org/1999/xlink" viewBox="0 0 96 96"><defs><filter id="a" width="142.9%" height="130%" x="-21.4%" y="-15%" filterUnits="objectBoundingBox"><feOffset dy="2" in="SourceAlpha" result="shadowOffsetOuter1"/><feGaussianBlur in="shadowOffsetOuter1" result="shadowBlurOuter1" stdDeviation="2"/><feColorMatrix in="shadowBlurOuter1" result="shadowMatrixOuter1" values="0 0 0 0 0 0 0 0 0 0 0 0 0 0 0 0 0 0 0.2 0"/><feMerge><feMergeNode in="shadowMatrixOuter1"/><feMergeNode in="SourceGraphic"/></feMerge></filter><filter id="e" width="101.8%" height="101.2%" x="-.9%" y="-.6%" filterUnits="objectBoundingBox"><feOffset dy="1" in="SourceAlpha" result="shadowOffsetInner1"/><feComposite in="shadowOffsetInner1" in2="SourceAlpha" k2="-1" k3="1" operator="arithmetic" result="shadowInnerInner1"/><feColorMatrix in="shadowInnerInner1" values="0 0 0 0 0.0624716938 0 0 0 0 0.0624716938 0 0 0 0 0.0624716938 0 0 0 0.253387238 0"/></filter><filter id="g" width="150%" height="155.6%" x="-25%" y="-13.9%" filterUnits="objectBoundingBox"><feOffset dy="3" in="SourceAlpha" result="shadowOffsetOuter1"/><feGaussianBlur in="shadowOffsetOuter1" result="shadowBlurOuter1" stdDeviation="1"/><feColorMatrix in="shadowBlurOuter1" values="0 0 0 0 0 0 0 0 0 0 0 0 0 0 0 0 0 0 0.37576486 0"/></filter><filter id="i" width="120.5%" height="122.7%" x="-10.2%" y="-5.7%" filterUnits="objectBoundingBox"><feOffset dy="3" in="SourceAlpha" result="shadowOffsetOuter1"/><feGaussianBlur in="shadowOffsetOuter1" result="shadowBlurOuter1" stdDeviation="1"/><feColorMatrix in="shadowBlurOuter1" values="0 0 0 0 0 0 0 0 0 0 0 0 0 0 0 0 0 0 0.37576486 0"/></filter><path id="b" d="M8 0h40a8 8 0 0 1 8 8v64a8 8 0 0 1-8 8H8a8 8 0 0 1-8-8V8a8 8 0 0 1 8-8"/><path id="f" d="M28 7a9 9 0 1 1 0 18 9 9 0 0 1 0-18m0 5a4 4 0 1 0 0 8 4 4 0 0 0 0-8"/><path id="h" d="M28 30c12.15 0 22 9.85 22 22s-9.85 22-22 22S6 64.15 6 52s9.85-22 22-22m0 5c-9.389 0-17 7.611-17 17s7.611 17 17 17 17-7.611 17-17-7.611-17-17-17m0 12a5 5 0 1 1 0 10 5 5 0 0 1 0-10"/><linearGradient id="d" x1="50%" x2="50%" y1="0%" y2="100%"><stop offset="0%" stop-color="#5e5e5e"/><stop offset="100%" stop-color="#191919"/></linearGradient></defs><g fill="none" fill-rule="evenodd" filter="url(#a)" transform="translate(20 8)"><use xlink:href="#b" fill="url(#d)"/><use xlink:href="#b" fill="#000" filter="url(#e)"/><use xlink:href="#f" fill="#000" filter="url(#g)"/><use xlink:href="#f" fill="#f9f9f9"/><use xlink:href="#h" fill="#000" filter="url(#i)"/><use xlink:href="#h" fill="#f9f9f9"/></g></svg>