<svg xmlns="http://www.w3.org/2000/svg" xmlns:xlink="http://www.w3.org/1999/xlink" viewBox="0 0 96 96"><defs><linearGradient id="b" x1="50%" x2="50%" y1="0%" y2="100%"><stop offset="0%" stop-color="#eee"/><stop offset="100%" stop-color="#d8d8d8"/></linearGradient><linearGradient id="c" x1="50%" x2="50%" y1="0%" y2="100%"><stop offset="0%" stop-color="#c4c4c4"/><stop offset="100%" stop-color="#939393"/></linearGradient><filter id="a" width="130.8%" height="130.8%" x="-15.4%" y="-15.4%" filterUnits="objectBoundingBox"><feOffset dy="2" in="SourceAlpha" result="shadowOffsetOuter1"/><feGaussianBlur in="shadowOffsetOuter1" result="shadowBlurOuter1" stdDeviation="2"/><feColorMatrix in="shadowBlurOuter1" result="shadowMatrixOuter1" values="0 0 0 0 0 0 0 0 0 0 0 0 0 0 0 0 0 0 0.2 0"/><feMerge><feMergeNode in="shadowMatrixOuter1"/><feMergeNode in="SourceGraphic"/></feMerge></filter></defs><g fill="none" fill-rule="evenodd" filter="url(#a)" transform="translate(9 9)"><rect width="78" height="78" fill="url(#b)" rx="18"/><path fill="url(#c)" d="m78 19-5-.001v9L78 28v1l-5-.001v9L78 38v1l-5-.001v10L78 49v1l-5-.001v9L78 59v1l-5-.001v9l2.592.001q-.296.51-.623 1L73 69.999v2.45q-.48.503-1 .967V70h-9.001v7.752q-.495.084-1 .14V70h-9L53 78h-1l-.001-8.001h-10L42 78h-1l-.001-8.001h-9L32 78h-1l-.001-8.001h-9L22 78h-1l-.001-8.001h-9v6.977q-.507-.18-1-.388v-6.589L3.031 70q-.327-.49-.623-1H11v-9H0v-1l10.999-.001v-9L0 50v-1l10.999-.001v-10L0 39v-1l10.999-.001v-9L0 29v-1l10.999-.001v-9L0 19v-1l10.999-.001v-9h-8.59q.296-.51.623-1h7.967V1.412q.493-.208 1-.388V8h9L21 0h1l-.001 7.999h9L31 0h1l-.001 7.999h9L41 0h1l-.001 7.999h10L52 0h1l-.001 7.999h9V.109q.505.056 1 .14v7.75H72V4.584q.52.465 1 .967v2.448h1.968q.327.49.623 1H73v9L78 18zM20.999 59.999h-9v9h9zm10 0h-9v9h9zm10 0h-9v9h9zm11 0h-10v9h10zm10 0h-9v9h9zm10.001 0h-9.001v9H72zm-10.001-10h-9v9h9zm10.001 0h-9.001v9H72zm-51.001 0h-9v9h9zm10 0h-9v9h9zm10 0h-9v9h9zm11 0h-10v9h10zm-31-11h-9v10h9zm10 0h-9v10h9zm10 0h-9v10h9zm11 0h-10v10h10zm10 0h-9v10h9zm10.001 0h-9.001v10H72zm-51.001-10h-9v9h9zm10 0h-9v9h9zm10 0h-9v9h9zm11 0h-10v9h10zm10 0h-9v9h9zm10.001 0h-9.001v9H72zm-51.001-10h-9v9h9zm10 0h-9v9h9zm41.001 0h-9.001v9H72zm-10.001 0h-9v9h9zm-10 0h-10v9h10zm-11 0h-9v9h9zm21-10h-9v9h9zm10.001 0h-9.001v9H72zm-51.001 0h-9v9h9zm10 0h-9v9h9zm10 0h-9v9h9zm11 0h-10v9h10z"/><path fill="#ffc" d="M22 19h30v9H22z"/><path fill="#cff" d="M22 9h30v9H22z"/><path fill="#936" d="M22 29h30v9H22z"/><path fill="#99f" d="M22 39h30v20H22z"/></g></svg>