<svg xmlns="http://www.w3.org/2000/svg" viewBox="0 0 64 64"><rect width="56" height="56" x="4" y="5" opacity=".2" rx="4.2" ry="4.2"/><rect width="56" height="56" x="4" y="4" fill="#5b6371" rx="4.2" ry="4.2"/><circle cx="32" cy="33" r="24" opacity=".2"/><circle cx="32" cy="32" r="24" fill="#31c9ff"/><path fill="#fff" d="M32 8A24 24 0 0 0 8 32a24 24 0 0 0 .033.482A24 24 0 0 1 32 9a24 24 0 0 1 23.982 23.24L56 32A24 24 0 0 0 32 8" opacity=".2"/><path fill="#fff" d="M32.645 8.009a24 24 0 0 0-3.216.159l2.057 19.073a4.77 4.77 0 0 1 2.915.603c.435.25.796.574 1.119.926l14.159-13a24 24 0 0 0-5.682-4.551 23.9 23.9 0 0 0-11.352-3.21M17.14 13.176a23.9 23.9 0 0 0-5.921 6.827 24 24 0 0 0-2.222 5.241l18.41 5.407c.105-.36.241-.713.437-1.052a4.8 4.8 0 0 1 1.187-1.36z" opacity=".3"/><circle cx="32" cy="32" r="8" fill="#fff"/><path fill="#5e5c64" d="M31.917 28.001q-.484.013-.95.138a4 4 0 0 0-2.435 1.856c-1.1 1.905-.438 4.374 1.466 5.473a4.02 4.02 0 0 0 5.47-1.466c1.1-1.904.436-4.37-1.468-5.47a4 4 0 0 0-2.083-.53"/><path fill="#c0bfbc" stroke="#c0bfbc" stroke-width=".863" d="M32.785 30.64a1.57 1.57 0 1 1-1.57 2.72 1.57 1.57 0 0 1 1.57-2.72zm0 0"/><path fill="#fff" d="m41.247 9.878-7.406 17.716c.188.078.379.145.56.25a4.77 4.77 0 0 1 1.98 2.227l17.554-7.739c-1.984-4.509-5.345-8.461-9.938-11.113a24 24 0 0 0-2.75-1.341" opacity=".3"/><path d="M40.645 13q-.031 0-.063.004a.635.635 0 0 0-.559.805c1.855 6.614 5.213 20.321 6.457 25.437A8 7 0 0 0 44.398 39a8 7 0 0 0-8 7 8 7 0 0 0 8 7 8 7 0 0 0 7.973-6.668c.107-.38.127-.793-.012-1.23-.02-.063-.038-.136-.058-.2a8 7 0 0 0-.371-1.265c-1.529-5.426-3.303-14.454-4.793-19.492 1.577.667 3.251 1.036 4.808 1.738 2.002.902 3.567 2.03 4.824 6.226.21.687 1.21.547 1.231-.172.002-.08-.028-.115-.027-.195v-.004c.043-4.57-.907-6.86-2.864-8.586-1.992-1.756-4.572-2.558-7.101-3.808-2.347-1.16-5.053-3.662-6.875-6.09a.63.63 0 0 0-.488-.254" opacity=".1"/><ellipse cx="44.4" cy="45" fill="#0b905b" rx="8" ry="7"/><path fill="#0b905b" d="m40.645 12-.065.003a.635.635 0 0 0-.556.807c2.284 8.144 7.042 27.845 7.042 27.845q.04.12.121.217l3.97 4.788c.45.52-.206 2.429-.416 1.772 0 0 2.207-1.475 1.619-3.332-1.617-5.111-3.592-15.436-5.225-20.956 1.578.667 3.252 1.035 4.81 1.738 2 .902 3.567 2.03 4.824 6.226.21.687 1.21.549 1.23-.17.003-.08-.028-.115-.028-.195h.003q0-.003-.003-.005c.044-4.57-.906-6.86-2.863-8.586-1.992-1.757-4.57-2.56-7.098-3.81-2.347-1.16-5.057-3.66-6.879-6.088a.63.63 0 0 0-.486-.253"/><path fill="#fff" d="M8.2 4A4.19 4.19 0 0 0 4 8.2v1A4.19 4.19 0 0 1 8.2 5h47.6A4.19 4.19 0 0 1 60 9.2v-1A4.19 4.19 0 0 0 55.8 4z" opacity=".1"/></svg>