<svg xmlns="http://www.w3.org/2000/svg" xmlns:xlink="http://www.w3.org/1999/xlink" viewBox="0 0 96 96"><defs><filter id="a" width="130.8%" height="130.8%" x="-15.4%" y="-15.4%" filterUnits="objectBoundingBox"><feOffset dy="2" in="SourceAlpha" result="shadowOffsetOuter1"/><feGaussianBlur in="shadowOffsetOuter1" result="shadowBlurOuter1" stdDeviation="2"/><feColorMatrix in="shadowBlurOuter1" result="shadowMatrixOuter1" values="0 0 0 0 0 0 0 0 0 0 0 0 0 0 0 0 0 0 0.2 0"/><feMerge><feMergeNode in="shadowMatrixOuter1"/><feMergeNode in="SourceGraphic"/></feMerge></filter></defs><g fill="none" filter="url(#a)" transform="translate(9 9)"><rect width="41.441" height="41.442" y="36.558" fill="#fff" fill-opacity=".94" rx="2.711"/><rect width="32" height="32" x="5" y="41" fill="#000" rx="2.074"/><rect width="41.441" height="41.442" x="36.559" y="36.558" fill="#fff" fill-opacity=".94" rx="2.711"/><rect width="41.441" height="41.442" x="36.559" fill="#fff" fill-opacity=".94" rx="2.711"/><rect width="41.441" height="41.442" fill="#fff" fill-opacity=".94" rx="2.711"/><rect width="32" height="32" x="5" y="5" fill="#000" rx="2.074"/><rect width="32" height="32" x="41" y="5" fill="#000" rx="2.074"/><rect width="32" height="32" x="41" y="41" fill="#000" rx="2.074"/><rect width="17" height="17" x="49" y="12" fill="#fff" rx="1.12"/><rect width="17" height="17" x="12" y="49" fill="#fff" rx="1.12"/><rect width="17" height="17" x="49" y="49" fill="#fff" rx="1.12"/><rect width="17" height="17" x="12" y="12" fill="#fff" rx="1.12"/></g></svg>