<svg xmlns="http://www.w3.org/2000/svg" xmlns:xlink="http://www.w3.org/1999/xlink" viewBox="0 0 96 96"><defs><linearGradient id="a" x1="94.831%" x2="40.472%" y1="42.446%" y2="70.12%"><stop offset="0%" stop-color="#b00443"/><stop offset="100%" stop-color="#311faf"/></linearGradient><linearGradient id="b" x1="90.247%" x2="8.356%" y1="36.141%" y2="64.798%"><stop offset="0%" stop-color="#0010ef"/><stop offset="100%" stop-color="#00ea15"/></linearGradient><linearGradient id="c" x1="100%" x2="9.378%" y1="50%" y2="50%"><stop offset="0%" stop-color="#1fb109"/><stop offset="100%" stop-color="#ab2609"/></linearGradient><linearGradient id="d" x1="45.101%" x2="30.609%" y1="29.445%" y2="61.684%"><stop offset="0%" stop-color="#343434"/><stop offset="41.569%" stop-color="#878787"/><stop offset="76.356%" stop-color="#b7b5b5"/><stop offset="100%" stop-color="#212121"/></linearGradient><linearGradient id="e" x1="50%" x2="13.772%" y1="50%" y2="50%"><stop offset="0%"/><stop offset="100%" stop-opacity="0"/></linearGradient></defs><g fill="none" fill-rule="evenodd"><path fill="#fff" stroke="#000" d="m54.85 26.85 35.292 4.507c-.928 1.83-2.464 9.92-4.624 24.27-2.027 13.466-8.183 22.752-18.427 27.89L3.369 74.549c9.563-3.475 15.797-9.186 18.674-17.16a2118 2118 0 0 1 32.806-30.538Z"/><path fill="url(#a)" stroke="#000" d="M48.769 20.916 78.25 25.19c-.3 2.387-1.72 8.895-4.265 19.533-1.638 6.468-3.708 11.481-6.198 15.045-2.571 3.679-5.594 5.828-9.048 6.485L9.755 59.88c5.994-2.41 10.07-6.817 12.242-13.21 8.615-8.874 17.5-17.395 26.772-25.753Z" transform="translate(5.343 12.253)"/><path fill="#28ae2b" stroke="#000" d="m55.849 33.85 15.218 1.944.001 7.181-1.438 1.097-1.832 1.387-1.796 1.345-1.178.874-1.737 1.277-2.26 1.639-1.108.792-1.63 1.154-1.068.747-1.572 1.086-1.536 1.046-1.5 1.004-1.466.963-1.43.922-.933.593-.919.574-.902.556-.887.537-.87.52-.856.501-.84.484-.824.465-.808.447-.793.428-.779.412-1.135.581-.74.366-1.077.513-.702.321-1.019.445-.663.276-.962.377-.623.229-.604.21-.882.281q-1.745.527-3.197.718c-1.172-1.15-1.291-3.097-1.275-5.007l.008-.544c.019-1.04.04-2.033-.077-2.77 4.813-4.838 9.036-8.506 13.33-12.236 3.488-3.029 7.022-6.1 10.88-9.636z"/><path fill="url(#b)" d="m64.01 23.63 13.677 1.984-.09.554-.154.872-.252 1.303-.248 1.214-.534 2.49-.66 2.954-.787 3.42-.123.526-.465.447-.496.49-.8.812-.57.594-.601.636-.631.678-.661.72-1.048 1.158-.736.824q-2.558 2.879-7.458 5.915l-.8.487-.41.244-.844.49-.433.246-.89.493-.919.495-.949.497-.485.249-.994.5-1.024.502-1.054.504-1.084.506-1.114.508-1.144.51-.583.256-1.19.513-1.218.515-1.25.518-1.278.519-1.31.521-1.338.523-1.369.526-1.399.527-1.429.53-.725.265-.156.123-24.403-3.176q7.334-3.61 10.46-11.606l.268.033q.78.099 1.897-.12l.416-.09.44-.112q.45-.123.944-.287l.506-.175q.13-.045.26-.095l.54-.206.277-.112.572-.238.595-.259.616-.28.639-.302.66-.322.684-.344.705-.364.36-.19.74-.397.76-.417.783-.439.805-.46.827-.48.85-.502 1.315-.792 1.366-.84 1.415-.887.972-.618 1.499-.967 1.027-.67 1.581-1.046 1.632-1.093 1.116-.755 1.715-1.172 1.765-1.22 1.815-1.266 1.864-1.315 1.915-1.362 2.63-1.89 2.72-1.974z" transform="translate(5.343 12.253)"/><path fill="url(#c)" stroke="#000" d="m22.823 9.653 24.883 4.06L47.42 26.1l-8.117 13.904q-3.826 2.9-6.128 4.039-2.3 1.14-7.17 2.55l-7.855-1.32z" transform="translate(5.343 12.253)"/><path stroke="#000" d="M22.125 18.543q-2.246 33.498-4.403 36.645"/><g transform="translate(9.823 12.253)"><path fill="#000" d="M4.565 12.31C12.085.73 26.254-3.414 36.212 3.053c9.959 6.467 11.935 21.097 4.416 32.676S18.938 51.453 8.98 44.986-2.955 23.89 4.565 12.31m1.677 1.089c-6.918 10.653-5.58 23.8 2.989 29.365s21.124 1.44 28.042-9.213c6.918-10.654 5.58-23.801-2.989-29.366C25.715-1.379 13.16 2.745 6.242 13.4"/><path fill="url(#d)" stroke="#000" d="M42.538 26.805c.308-.16.607-.24.883-.179l24.957 7.967-4.322 12.272-24.757-7.915c-.275-.133-.483-.383-.642-.706-.205-.418-.325-.953-.37-1.568-.096-1.313.153-2.973.745-4.692.588-1.707 1.406-3.16 2.268-4.14.412-.469.83-.827 1.238-1.039Z"/><ellipse cx="66.396" cy="40.798" fill="#474747" stroke="url(#e)" rx="2.5" ry="6.5" transform="rotate(19 66.396 40.798)"/></g></g></svg>