<svg xmlns="http://www.w3.org/2000/svg" viewBox="0 0 64 64"><rect width="50" height="56" x="7" y="5" opacity=".2" rx="4.545" ry="4.308"/><rect width="50" height="56" x="7" y="4" fill="#c29875" rx="4.545" ry="4.308"/><rect width="41.999" height="13.444" x="11" y="8" fill="#885e3d" rx="0" ry="0"/><rect width="41.999" height="12.222" x="11" y="17.78" fill="#bd916c" rx="0" ry="0"/><path fill="#ff7800" d="M43.452 11c-.81.01-1.452.282-1.452.613V30h3V11.613c0-.339-.672-.613-1.5-.613z"/><path fill="#f9f06b" d="M40.452 11c-.81.01-1.452.282-1.452.613V30h3V11.613c0-.339-.671-.613-1.5-.613z"/><path fill="#1a5fb4" d="M39 9h-2v21h2z"/><path fill="#3584e4" d="M49 10h-4v20h4z"/><path fill="#1a5fb4" d="M45 12h4v4h-4zm0 16h4v1h-4zm0-3h4v1h-4z"/><path fill="#fff" d="M53 12h-4v18h4z"/><path fill="#ff7800" d="M53 23h-4v7h4zm0-2h-4v1h4z"/><path fill="#ed333b" d="M33 10c-.69 0-1.381.027-2 .082-1.237.108-1.999.308-2 .524V30h8V10.606c-.001-.216-.763-.416-2-.524A23 23 0 0 0 33 10"/><circle cx="-33" cy="23.333" r="1.333" fill="#c01c28" transform="scale(-1 1)"/><path fill="#c01c28" d="M33 14.036c-.69 0-1.381.028-2 .082-1.237.108-1.999.308-2 .524v4.849c.001-.217.763-.417 2-.525.619-.054 1.31-.081 2-.081s1.381.027 2 .081c1.237.108 1.999.308 2 .525v-4.849c-.001-.216-.763-.416-2-.524a23 23 0 0 0-2-.082m0 12.934c-.69 0-1.381.026-2 .077-1.237.102-1.999.291-2 .496v1.145c.001-.204.763-.393 2-.495.619-.052 1.31-.078 2-.078s1.381.026 2 .078c1.237.102 1.999.29 2 .495v-1.145c-.001-.205-.763-.394-2-.496a25 25 0 0 0-2-.077"/><path fill="#e01b24" d="M21 14h2v16h-2z"/><path fill="#1a5fb4" d="M11 12h2v18h-2z"/><path fill="#ff7800" d="M13 10h4v20h-4z"/><circle cx="15" cy="28" r="1" fill="#c64600"/><path fill="#2ec27e" d="M19 9c.345 0 .69.027 1 .08.618.108 1 .306 1 .52V30h-4V9.6c0-.214.382-.412 1-.52.31-.053.655-.08 1-.08"/><path fill="#26a269" d="M19 14c-.345 0-.69.028-1 .084-.618.111-1 .316-1 .538v9.956c0-.222.382-.427 1-.538.31-.056.655-.084 1-.084s.69.028 1 .084c.618.11 1 .316 1 .538v-9.956c0-.222-.382-.427-1-.538A6 6 0 0 0 19 14"/><path fill="#5e5c64" d="M24.44 16.34h1.12v6.21h-1.12z"/><path fill="#deddda" d="M26 11c-1.657 0-3 .274-3 .613V30h6V11.613c0-.339-1.343-.613-3-.613"/><path fill="#5e5c64" d="M26 13.031c-1.657 0-3 .275-3 .613v1.226c0-.338 1.343-.613 3-.613s3 .275 3 .613v-1.226c0-.338-1.343-.613-3-.613m0 12.879c-1.657 0-3 .275-3 .614v2.451c0-.338 1.343-.613 3-.613s3 .275 3 .613v-2.451c0-.339-1.343-.613-3-.613"/><path fill="#9a9996" d="M25 17h2v6h-2z"/><rect width="41.999" height="12.222" x="11" y="34" fill="#885e3d" rx="0" ry="0"/><rect width="41.999" height="12.222" x="11" y="43.78" fill="#bd916c" rx="0" ry="0"/><path fill="#3d3846" d="M28 35c-.345 0-.69.029-1 .086-.618.113-1 .323-1 .55V56h4V35.636c0-.227-.382-.437-1-.55A5.7 5.7 0 0 0 28 35"/><path fill="#f6d32d" d="M36 37h-6v19h6z"/><path fill="#77767b" d="M36 52h-6v1h6zm0 2h-6v.6h6z"/><path fill="#3584e4" d="M26 36h-7v20h7z"/><path fill="#1a5fb4" d="M25 39h-5v2h5z"/><path fill="#ed333b" d="M11 36h4v20h-4z"/><path fill="#5e5c64" d="M15 39h-4v3h4zm0 15h-4v1h4zm0-3h-4v1h4z"/><path fill="#fff" d="M15 38h4v18h-4z"/><path fill="#c061cb" d="M15 50h4v6h-4zm0-3h4v1h-4z"/><path fill="#3584e4" d="M40 36h3v20h-3z"/><path fill="#1a5fb4" d="M40 38h3v3h-3zm0 4h3v2h-3z"/><path fill="#57e389" d="M46 37c-.518 0-1.036.028-1.5.085-.927.113-1.5.322-1.5.548V56h6V37.633c0-.226-.573-.435-1.5-.548A13 13 0 0 0 46 37"/><path fill="#8c3ea6" d="M51 36c-.345 0-.69.027-1 .082-.618.108-1 .308-1 .524V56h4V36.606c0-.216-.382-.416-1-.524A6 6 0 0 0 51 36"/><path fill="#613583" d="M50 39h2v14h-2z"/><path fill="#ed333b" d="M36 38h4v18h-4z"/><path fill="#a51d2d" d="M37 46h2v6h-2zm-1-4h4v2h-4z"/><path fill="#fff" d="M11.547 4C9.029 4 7 5.922 7 8.309v1C7 6.922 9.029 5 11.547 5h40.906C54.971 5 57 6.922 57 9.309v-1C57 5.922 54.971 4 52.453 4z" opacity=".2"/><path d="M11 8h42v1H11z" opacity=".2"/><path fill="#fff" d="M11 30h42v1H11z" opacity=".2"/><path d="M11 34h42v1H11z" opacity=".2"/></svg>