<svg xmlns="http://www.w3.org/2000/svg" xmlns:xlink="http://www.w3.org/1999/xlink" viewBox="0 0 96 96"><defs><linearGradient id="b" x1="2.925%" x2="100%" y1="42.985%" y2="42.985%"><stop offset="0%" stop-color="#222"/><stop offset="41.207%" stop-color="#7a7a7a"/><stop offset="49.632%" stop-color="#ababab"/><stop offset="57.29%" stop-color="#868686"/><stop offset="100%" stop-color="#1c1c1c"/></linearGradient><linearGradient id="c" x1="51.571%" x2="51.571%" y1="100%" y2="0%"><stop offset="0%" stop-color="#d9d9d9"/><stop offset="100%"/></linearGradient><linearGradient id="d" x1="51.571%" x2="51.571%" y1="100%" y2="-12.836%"><stop offset="0%" stop-color="#d9d9d9"/><stop offset="100%" stop-color="#1c1c1c"/></linearGradient><linearGradient id="e" x1="15.774%" x2="100%" y1="28.908%" y2="28.908%"><stop offset="0%" stop-color="#e2e2e2"/><stop offset="46.142%" stop-color="#a4a4a4"/><stop offset="100%" stop-color="#363636"/></linearGradient><linearGradient id="f" x1="50%" x2="50%" y1="1.257%" y2="100%"><stop offset="0%" stop-color="#6c6c6c"/><stop offset="100%"/></linearGradient><linearGradient id="h" x1="50%" x2="50%" y1="0%" y2="99.355%"><stop offset="0%" stop-color="#690000" stop-opacity=".294"/><stop offset="100%" stop-color="#590000"/></linearGradient><linearGradient id="j" x1="50%" x2="50%" y1="0%" y2="99.355%"><stop offset="0%" stop-color="#e60000"/><stop offset="100%" stop-color="#590000"/></linearGradient><radialGradient id="g" cx="43.516%" cy="25.017%" r="74.98%" fx="43.516%" fy="25.017%" gradientTransform="matrix(0 1 -.61539 0 .59 -.185)"><stop offset="0%" stop-color="#ffd0d0"/><stop offset="100%" stop-color="#b40000"/></radialGradient><radialGradient id="i" cx="43.517%" cy="25.02%" r="71.26%" fx="43.517%" fy="25.02%"><stop offset="0%" stop-color="#ffd0d0"/><stop offset="100%" stop-color="#c90000"/></radialGradient><filter id="a" width="132.3%" height="128.1%" x="-16.2%" y="-14.3%" filterUnits="objectBoundingBox"><feOffset dy="2" in="SourceAlpha" result="shadowOffsetOuter1"/><feGaussianBlur in="shadowOffsetOuter1" result="shadowBlurOuter1" stdDeviation="2"/><feColorMatrix in="shadowBlurOuter1" result="shadowMatrixOuter1" values="0 0 0 0 0 0 0 0 0 0 0 0 0 0 0 0 0 0 0.2 0"/><feMerge><feMergeNode in="shadowMatrixOuter1"/><feMergeNode in="SourceGraphic"/></feMerge></filter></defs><g fill="none" filter="url(#a)" transform="translate(11 4)"><path fill="url(#b)" d="m37.769 42.555 35.562 6.724a1 1 0 0 1 .803 1.135l-2.572 16.623a4 4 0 0 1-1.92 2.832L42.097 86.137a8 8 0 0 1-7.995.081L4.079 69.301a4 4 0 0 1-2.007-3.006L.102 49.926a1 1 0 0 1 .823-1.105l36.489-6.27a1 1 0 0 1 .355.004"/><path fill="url(#c)" d="m38.622 38.437 34.103 9.075a2 2 0 0 1 .41 3.707l-29.447 15.32a12 12 0 0 1-10.785.148L1.126 51.239a2 2 0 0 1 .387-3.739l36.107-9.07a2 2 0 0 1 1.002.007"/><path fill="url(#d)" stroke="#979797" d="M37.404 44.425a1.5 1.5 0 0 1 .75.006l22.665 6.011a1.5 1.5 0 0 1 1.066 1.835 1.5 1.5 0 0 1-.76.947L43.045 62.6a11.5 11.5 0 0 1-10.31.14l-19.611-9.503a1.5 1.5 0 0 1-.763-.858 1.5 1.5 0 0 1 1.053-1.947z"/><rect width="6" height="33" x="33.549" y="22" fill="url(#e)" stroke="url(#f)" rx="3"/><path fill="url(#g)" stroke="url(#h)" d="M38.05 57c1.815 0 3.463.31 4.675.786.603.237 1.094.512 1.428.813.23.207.396.42.396.651v3.25c0 .248-.18.488-.434.727-.35.33-.862.64-1.488.908-1.199.514-2.809.865-4.578.865-1.724 0-3.298-.333-4.487-.826-.624-.259-1.14-.56-1.506-.88-.27-.238-.465-.477-.501-.724l-.006-3.29c.036-.248.214-.478.463-.698.345-.304.834-.576 1.428-.81C34.645 57.3 36.267 57 38.05 57Z"/><circle cx="37.049" cy="12.5" r="12.5" fill="url(#i)" stroke="url(#j)"/></g></svg>