<svg xmlns="http://www.w3.org/2000/svg" xmlns:xlink="http://www.w3.org/1999/xlink" viewBox="0 0 96 96"><defs><filter id="a" width="135.8%" height="128.9%" x="-17.9%" y="-14.5%" filterUnits="objectBoundingBox"><feOffset dy="2" in="SourceAlpha" result="shadowOffsetOuter1"/><feGaussianBlur in="shadowOffsetOuter1" result="shadowBlurOuter1" stdDeviation="2"/><feColorMatrix in="shadowBlurOuter1" result="shadowMatrixOuter1" values="0 0 0 0 0 0 0 0 0 0 0 0 0 0 0 0 0 0 0.2 0"/><feMerge><feMergeNode in="shadowMatrixOuter1"/><feMergeNode in="SourceGraphic"/></feMerge></filter></defs><g fill="none" fill-rule="evenodd" filter="url(#a)" transform="translate(14 7)"><circle cx="34.5" cy="32.5" r="18.5" fill="#ffce00" stroke="#000" stroke-width="2"/><path fill="#000" fill-rule="nonzero" d="M46.825 33.749a1 1 0 0 1 1.921.554 6.502 6.502 0 0 1-12.485.027 1.006 1.006 0 0 1 .679-1.24 1 1 0 0 1 1.24.678 4.502 4.502 0 0 0 8.645-.019"/><path fill="#000" d="M19 23h4v18h-4zm7 0h4v18h-4z"/><circle cx="37" cy="13" r="12" fill="#fff" stroke="#000" stroke-width="2"/><circle cx="25" cy="13" r="12" fill="#fff" stroke="#000" stroke-width="2"/><g transform="translate(38 13)"><circle cx="8.5" cy="8.5" r="8" fill="#fff" stroke="#000"/><circle cx="13" cy="9" r="2" fill="#000"/></g><g transform="translate(30 13)"><circle cx="8.5" cy="8.5" r="8" fill="#fff" stroke="#000"/><circle cx="13" cy="9" r="2" fill="#000"/></g><path fill="#6f4320" d="M3 47h62l-5 26H8z"/><path fill="#3d1e0c" d="M14 51h40l-4 21H18z"/><path fill="#80492a" d="M14 51h40l-8 21v11H22V72z"/><path fill="#412412" d="M5 41h56l6 4H0z"/><path fill="#855223" d="M0 45h67l-1 2H2z"/><path fill="#000" d="m16 29-4 3.74L16 36z"/></g></svg>