<svg xmlns="http://www.w3.org/2000/svg" xmlns:xlink="http://www.w3.org/1999/xlink" viewBox="0 0 96 96"><defs><linearGradient id="b" x1="50%" x2="50%" y1="0%" y2="100%"><stop offset="0%" stop-color="#f9f9f9"/><stop offset="100%" stop-color="#f1f1f1"/></linearGradient><linearGradient id="c" x1="50%" x2="50%" y1="0%" y2="100%"><stop offset="0%" stop-color="#30acff"/><stop offset="100%" stop-color="#2d80e5"/></linearGradient><linearGradient id="d" x1="50%" x2="50%" y1="0%" y2="100%"><stop offset="0%" stop-color="#ffd75a"/><stop offset="99.552%" stop-color="#ffb82d"/></linearGradient><filter id="a" width="130.8%" height="130.8%" x="-15.4%" y="-15.4%" filterUnits="objectBoundingBox"><feOffset dy="2" in="SourceAlpha" result="shadowOffsetOuter1"/><feGaussianBlur in="shadowOffsetOuter1" result="shadowBlurOuter1" stdDeviation="2"/><feColorMatrix in="shadowBlurOuter1" result="shadowMatrixOuter1" values="0 0 0 0 0 0 0 0 0 0 0 0 0 0 0 0 0 0 0.2 0"/><feMerge><feMergeNode in="shadowMatrixOuter1"/><feMergeNode in="SourceGraphic"/></feMerge></filter></defs><g fill="none" fill-rule="evenodd" filter="url(#a)" transform="translate(9 9)"><rect width="78" height="78" fill="url(#b)" rx="18"/><path fill="url(#c)" d="M44 8a8 8 0 0 1 8 8v28a8 8 0 0 1-.42 2.567q.26.178.493.41l4.082 4.082.868-.867a4 4 0 0 1 5.657 0l9.192 9.192a4 4 0 0 1 0 5.657l-6.364 6.364a4 4 0 0 1-5.657 0l-9.192-9.193a4 4 0 0 1 0-5.656l.546-.547-4.082-4.082a3.5 3.5 0 0 1-.357-.418A8 8 0 0 1 44 52H15a8 8 0 0 1-8-8V27h4v17a4 4 0 0 0 3.8 3.995L15 48h29a4 4 0 0 0 3.995-3.8L48 44V16a4 4 0 0 0-4-4H15a4 4 0 0 0-3.995 3.8L11 16v7H7v-7a8 8 0 0 1 8-8z"/><path fill="url(#d)" d="M39.5 21a3.5 3.5 0 1 1-2.448 6.001L30.282 27l7.76 7.758q.369-.105.766-.127l.192-.006a3.5 3.5 0 1 1-3.492 3.26l-9.886-9.889L25.5 28c-.953 0-1.817-.38-2.448-.999L11 27v-4h11.337a3.5 3.5 0 0 1 6.326 0h7.674a3.5 3.5 0 0 1 3.163-2"/></g></svg>