<svg xmlns="http://www.w3.org/2000/svg" xmlns:xlink="http://www.w3.org/1999/xlink" viewBox="0 0 96 96"><defs><linearGradient id="b" x1="50%" x2="50%" y1="0%" y2="100%"><stop offset="0%" stop-color="#4f4f4f"/><stop offset="100%" stop-color="#0f0f0f"/></linearGradient><filter id="a" width="130.8%" height="130.8%" x="-15.4%" y="-15.4%" filterUnits="objectBoundingBox"><feOffset dy="2" in="SourceAlpha" result="shadowOffsetOuter1"/><feGaussianBlur in="shadowOffsetOuter1" result="shadowBlurOuter1" stdDeviation="2"/><feColorMatrix in="shadowBlurOuter1" result="shadowMatrixOuter1" values="0 0 0 0 0 0 0 0 0 0 0 0 0 0 0 0 0 0 0.2 0"/><feMerge><feMergeNode in="shadowMatrixOuter1"/><feMergeNode in="SourceGraphic"/></feMerge></filter></defs><g fill="none" fill-rule="evenodd" filter="url(#a)" transform="translate(9 9)"><rect width="78" height="78" fill="url(#b)" rx="18"/><path fill="#fefffc" d="M60 0c3.7 0 7.14 1.117 10.001 3.032L70 18H52V0zM36 68v10H18V68zm34 0 .001 6.968A17.9 17.9 0 0 1 60 78h-8V68z"/><path fill="#fefffc" d="M78 51v9c0 3.28-.877 6.353-2.409 9.001L69 69V51zM1 17h18v18H1z"/><path fill="#fefffc" d="M18 17h18v18H18z"/><path fill="#fefffc" d="M18 0h18v18H18z"/><path fill="#fefffc" d="M35 17h18v18H35z"/><path fill="#fefffc" d="M52 17h18v18H52z"/><path fill="#fefffc" d="M52 34h18v18H52z"/><path fill="#fefffc" d="M52 51h18v18H52z"/><path fill="#fefffc" d="M35 51h18v18H35z"/><path fill="#fefffc" d="M18 51h18v18H18z"/><path fill="#000" fill-rule="nonzero" d="M60 0c3.7 0 7.14 1.117 10.001 3.032L70 18H52V0zm-7 17h16l.001-13.424-.29-.178a16.9 16.9 0 0 0-8.267-2.392L60 1h-7zM36 68v10H18V68zm-1 1H19v8h16zm35-1 .001 6.968A17.9 17.9 0 0 1 60 78h-8V68zm-1 1H53v8h7c3.115 0 6.103-.839 8.71-2.398l.291-.179z"/><path fill="#000" fill-rule="nonzero" d="M78 51v9c0 3.28-.877 6.353-2.409 9.001L69 69V51zm-1 1h-7v16l5.001.001.17-.321a16.9 16.9 0 0 0 1.822-7.203L77 60zM19 17v18H1V17zm-1 1H2v16h16z"/><path fill="#000" fill-rule="nonzero" d="M36 17v18H18V17zm-1 1H19v16h16z"/><path fill="#000" fill-rule="nonzero" d="M36 0v18H18V0zm-1 1H19v16h16z"/><path fill="#000" fill-rule="nonzero" d="M53 17v18H35V17zm-1 1H36v16h16z"/><path fill="#000" fill-rule="nonzero" d="M70 17v18H52V17zm-1 1H53v16h16z"/><path fill="#000" fill-rule="nonzero" d="M70 34v18H52V34zm-1 1H53v16h16z"/><path fill="#000" fill-rule="nonzero" d="M70 51v18H52V51zm-1 1H53v16h16z"/><path fill="#000" fill-rule="nonzero" d="M53 51v18H35V51zm-1 1H36v16h16z"/><path fill="#000" fill-rule="nonzero" d="M36 51v18H18V51zm-1 1H19v16h16z"/><path fill="#000100" fill-rule="nonzero" d="M10 30.511v-9.022H8.83v9.022zm51.585 34v-9.022h-1.17v9.022zm0-34.001v-9.022h-1.17v9.022zm-37.036.261v-7.943h.079l4.419 7.943h1.548v-9.022h-1.171v7.488h-.078l-4.108-7.488h-1.833v9.022zm33.416-17.52V5.308h.077l4.42 7.943h1.548V4.229h-1.17v7.488h-.079l-4.107-7.488h-1.833v9.022zm-13.003 17.52c.91 0 1.677-.169 2.184-.39v-1.014c-.689.234-1.3.351-2.145.351-2.002 0-2.925-.741-2.925-3.614 0-2.691.988-3.588 3.042-3.588.793 0 1.404.117 1.924.312v-1.079c-.533-.169-1.118-.26-1.95-.26-2.6 0-4.238 1.157-4.238 4.641 0 3.77 1.625 4.641 4.108 4.641m-16.535-17.26c.91 0 1.678-.169 2.185-.39v-1.014a6.2 6.2 0 0 1-2.145.351c-2.002 0-2.925-.741-2.925-3.614 0-2.691.987-3.588 3.041-3.588.794 0 1.405.117 1.925.312V4.489c-.534-.169-1.118-.26-1.95-.26-2.6 0-4.238 1.157-4.238 4.641 0 3.77 1.625 4.641 4.107 4.641M26.458 55.49c2.522 0 3.445.676 3.445 2.665 0 1.56-.598 2.3-1.846 2.587l2.704 3.77h-1.378l-2.483-3.64c-.143.013-.286.013-.442.013H25.34v3.627h-1.17V55.49zm-.104 1.014H25.34v3.406l1.196-.001c1.545-.018 2.184-.277 2.184-1.754 0-1.365-.689-1.651-2.366-1.651m18.432-1.015 3.407 9.022h-1.235l-.975-2.691h-3.991l-.988 2.691h-1.197l3.42-9.022zm-.702 1.092h-.156l-1.546 4.199h3.224z"/></g></svg>