<svg xmlns="http://www.w3.org/2000/svg" xmlns:xlink="http://www.w3.org/1999/xlink" viewBox="0 0 96 96"><defs><linearGradient id="b" x1="-1.563%" x2="101.563%" y1="50%" y2="50%"><stop offset="0%" stop-color="#fcaf3e"/><stop offset="100%" stop-color="#f57900"/></linearGradient><linearGradient id="c" x1="-2.381%" x2="102.381%" y1="50%" y2="50%"><stop offset="0%" stop-color="#888a85"/><stop offset="100%" stop-color="#babdb6"/></linearGradient><linearGradient id="d" x1="0%" x2="100%" y1="50%" y2="50%"><stop offset="0%" stop-color="#f57900"/><stop offset="100%" stop-color="#ce5c00" stop-opacity="0"/></linearGradient><filter id="a" width="132.1%" height="134.2%" x="-16%" y="-17.1%" filterUnits="objectBoundingBox"><feOffset dy="2" in="SourceAlpha" result="shadowOffsetOuter1"/><feGaussianBlur in="shadowOffsetOuter1" result="shadowBlurOuter1" stdDeviation="2"/><feColorMatrix in="shadowBlurOuter1" result="shadowMatrixOuter1" values="0 0 0 0 0 0 0 0 0 0 0 0 0 0 0 0 0 0 0.2 0"/><feMerge><feMergeNode in="shadowMatrixOuter1"/><feMergeNode in="SourceGraphic"/></feMerge></filter></defs><g fill="none" fill-rule="evenodd" filter="url(#a)" transform="translate(7 10)"><path fill="url(#b)" stroke="#ba5300" stroke-linejoin="round" stroke-width="2" d="M67.25 29 48.612 43.959 42.328 38H26l11.333 14.99L26 62.074h10.313l4.833-3.917L54.359 76H81L53.231 48.529 77.563 29z"/><path fill="url(#b)" stroke="#fff" d="M76.14 29.5 52.482 48.49 79.784 75.5H54.61L41.237 57.44l-5.102 4.134h-8.712l10.602-8.498L27.005 38.5h15.124l6.456 6.123L67.425 29.5z"/><path fill="#888a85" stroke="#5f615d" stroke-linecap="round" stroke-linejoin="round" d="M24.5 1.5v4h-23v-4zm-16 4h8v57h-8z"/><path fill="#eeeeec" d="M11 6h2v57h-2z" opacity=".45"/><path fill="url(#c)" stroke="#5f615d" stroke-linecap="round" stroke-linejoin="round" d="m37.596 27.5 3.904 3.615V35.5H21.381l-3.6 3H4.5v-8h11.119l3.6-3z"/><rect width="11" height="7" x="6.5" y="-.5" fill="#888a85" stroke="#5f615d" stroke-linecap="round" stroke-linejoin="round" rx="1.643"/><rect width="4" height="8" x="-.5" y="-.5" fill="#888a85" stroke="#5f615d" stroke-linecap="round" stroke-linejoin="round" rx=".972"/><path fill="#888a85" stroke="#5f615d" stroke-linecap="round" stroke-linejoin="round" d="M24.027-.5A1.47 1.47 0 0 1 25.5.973h0v5.054A1.47 1.47 0 0 1 24.027 7.5h0-1.054A1.47 1.47 0 0 1 21.5 6.027h0V.973A1.47 1.47 0 0 1 22.973-.5h0Z"/><path fill="url(#c)" stroke="#5f615d" stroke-linecap="round" stroke-linejoin="round" d="m17.781 61.5 3.6 3H41.5v4.385L37.596 72.5H19.219l-3.6-3H4.5v-8z"/><path fill="#babdb6" d="M16.363 55c.352 0 .637.285.637.637v1.726a.637.637 0 0 1-.637.637H7.637A.637.637 0 0 1 7 57.363v-1.726c0-.352.285-.637.637-.637zm0-7c.352 0 .637.285.637.637v1.726a.637.637 0 0 1-.637.637H7.637A.637.637 0 0 1 7 50.363v-1.726c0-.352.285-.637.637-.637zm0-7c.352 0 .637.285.637.637v1.726a.637.637 0 0 1-.637.637H7.637A.637.637 0 0 1 7 43.363v-1.726c0-.352.285-.637.637-.637zm0-17c.352 0 .637.285.637.637v1.726a.637.637 0 0 1-.637.637H7.637A.637.637 0 0 1 7 26.363v-1.726c0-.352.285-.637.637-.637zm0-7c.352 0 .637.285.637.637v1.726a.637.637 0 0 1-.637.637H7.637A.637.637 0 0 1 7 19.363v-1.726c0-.352.285-.637.637-.637zm0-7c.352 0 .637.285.637.637v1.726a.637.637 0 0 1-.637.637H7.637A.637.637 0 0 1 7 12.363v-1.726c0-.352.285-.637.637-.637z"/><path fill="#5f615d" fill-rule="nonzero" d="M16.363 54c.856 0 1.56.658 1.631 1.496l.006.141v1.726c0 .856-.658 1.56-1.496 1.631l-.141.006H7.637c-.856 0-1.56-.658-1.631-1.496L6 57.363v-1.726c0-.856.658-1.56 1.496-1.631L7.637 54zm0 1H7.637a.64.64 0 0 0-.63.543L7 55.637v1.726c0 .32.236.585.543.63l.094.007h8.726l.094-.007a.64.64 0 0 0 .534-.526l.009-.104v-1.726a.64.64 0 0 0-.543-.63zm0-8c.856 0 1.56.658 1.631 1.496l.006.141v1.726c0 .856-.658 1.56-1.496 1.631l-.141.006H7.637c-.856 0-1.56-.658-1.631-1.496L6 50.363v-1.726c0-.856.658-1.56 1.496-1.631L7.637 47zm0 1H7.637a.64.64 0 0 0-.63.543L7 48.637v1.726c0 .32.236.585.543.63l.094.007h8.726l.094-.007a.64.64 0 0 0 .534-.526l.009-.104v-1.726a.64.64 0 0 0-.543-.63zm0-8c.856 0 1.56.658 1.631 1.496l.006.141v1.726c0 .856-.658 1.56-1.496 1.631l-.141.006H7.637c-.856 0-1.56-.658-1.631-1.496L6 43.363v-1.726c0-.856.658-1.56 1.496-1.631L7.637 40zm0 1H7.637a.64.64 0 0 0-.63.543L7 41.637v1.726c0 .32.236.585.543.63l.094.007h8.726l.094-.007a.64.64 0 0 0 .534-.526l.009-.104v-1.726a.64.64 0 0 0-.543-.63zm0-18c.856 0 1.56.658 1.631 1.496l.006.141v1.726c0 .856-.658 1.56-1.496 1.631l-.141.006H7.637c-.856 0-1.56-.658-1.631-1.496L6 26.363v-1.726c0-.856.658-1.56 1.496-1.631L7.637 23zm0 1H7.637a.64.64 0 0 0-.63.543L7 24.637v1.726c0 .32.236.585.543.63l.094.007h8.726l.094-.007a.64.64 0 0 0 .534-.526l.009-.104v-1.726a.64.64 0 0 0-.543-.63zm0-8c.856 0 1.56.658 1.631 1.496l.006.141v1.726c0 .856-.658 1.56-1.496 1.631l-.141.006H7.637c-.856 0-1.56-.658-1.631-1.496L6 19.363v-1.726c0-.856.658-1.56 1.496-1.631L7.637 16zm0 1H7.637a.64.64 0 0 0-.63.543L7 17.637v1.726c0 .32.236.585.543.63l.094.007h8.726l.094-.007a.64.64 0 0 0 .534-.526l.009-.104v-1.726a.64.64 0 0 0-.543-.63zm0-8c.856 0 1.56.658 1.631 1.496l.006.141v1.726c0 .856-.658 1.56-1.496 1.631l-.141.006H7.637c-.856 0-1.56-.658-1.631-1.496L6 12.363v-1.726c0-.856.658-1.56 1.496-1.631L7.637 9zm0 1H7.637a.64.64 0 0 0-.63.543L7 10.637v1.726c0 .32.236.585.543.63l.094.007h8.726l.094-.007a.64.64 0 0 0 .534-.526l.009-.104v-1.726a.64.64 0 0 0-.543-.63z"/><path fill="#eeeeec" fill-rule="nonzero" d="M17 63a1 1 0 0 1 .526.15l.113.08L20.972 66h18.322a1 1 0 0 1 .993.884l.007.116a1 1 0 0 1-.884.994l-.116.006H20.61a1 1 0 0 1-.526-.15l-.113-.08-3.335-2.771-9.81.001a1 1 0 0 1-.993-.883L5.827 64a1 1 0 0 1 .884-.993L6.827 63zm20-35a1 1 0 0 1 .117 1.993L37 30H20l-3.056 2.753a1 1 0 0 1-.538.24l-.12.007H7a1 1 0 0 1-.117-1.993L7 31h8.909l3.058-2.753a1 1 0 0 1 .538-.24l.12-.007zM15.111 1c.53 0 .889.448.889 1 0 .51-.305.93-.889 1H8.89C8.359 3 8 2.552 8 2c0-.51.305-.93.889-1z" opacity=".545"/><path fill="url(#d)" d="m57.888 57.023 17.28 16.416H55.296L43.2 57.023c4.32-4.32 11.232 4.32 14.688 0"/></g></svg>