<svg xmlns="http://www.w3.org/2000/svg" xmlns:xlink="http://www.w3.org/1999/xlink" viewBox="0 0 96 96"><defs><filter id="a" width="130.6%" height="135.9%" x="-15.3%" y="-18%" filterUnits="objectBoundingBox"><feOffset dy="2" in="SourceAlpha" result="shadowOffsetOuter1"/><feGaussianBlur in="shadowOffsetOuter1" result="shadowBlurOuter1" stdDeviation="2"/><feColorMatrix in="shadowBlurOuter1" result="shadowMatrixOuter1" values="0 0 0 0 0 0 0 0 0 0 0 0 0 0 0 0 0 0 0.2 0"/><feMerge><feMergeNode in="shadowMatrixOuter1"/><feMergeNode in="SourceGraphic"/></feMerge></filter></defs><g fill="none" fill-rule="evenodd" filter="url(#a)" transform="translate(9.849 16.243)"><path fill="#0f140a" d="M56.653 30.05c1.48 1.991 1.121 5.985 4.6 5.434 2.742-.434 3.155-3.67 3.743-7.308-2.923 2.117-5.633.646-8.343 1.874M10.12 28.642c1.419 2.97.655 7.526 5.071 7.742 1.753.085 3.39-3.116 2.907-4.823-1.146-4.051-5.317-1.499-7.978-2.919m-.044-8.07c2.116-1.29 3.985-3.46 6.62-2.188 2.846 1.373 3.153-.048 2.665-2.19-.538-2.359-1.159-4.763-2.2-6.928-1.513-3.148-3.51-3.287-5.11.011-1.7 3.505-2.777 7.175-1.975 11.294m55.976-.666c-.358-2.492-.49-4.121-.841-5.702-.686-3.092-.642-7.519-4.43-7.755-3.178-.199-3.105 4.162-4.207 6.665-.242.548-.418 1.14-.743 1.633-.869 1.318-.99 2.913-.33 4.076 1.116 1.968 2.453.131 3.597-.322 2.349-.93 4.333-.092 6.954 1.405M35.57 63.954q1.23 1.857 2.47.007l2.779-.12c13.54-.036 24.134-5.683 31.236-17.176 6.131-9.924 4.308-24.076-3.616-29.826.44 7.667-.61 14.85-4.595 21.356-4.799 1.235-7.314-1.208-8.661-5.434-2.35-7.373-2.832-14.913-.248-22.201 1.47-4.148.052-5.255-3.52-6.212-8.074-2.164-16.049-2.335-24.15-.126-5.29 1.443-7.816 2.966-6.15 9.872 2.235 9.274 2.933 19.413-6.692 26.359.446.41.821.957 1.338 1.19 1.482.666 2.987 1.323 4.544 1.774 11.4 3.307 22.898 3.088 34.485 1.05 4.11-.723 7.272-2.417 8.97-6.362 4.168.156 3.255 2.856 1.47 4.257-3.438 2.7-5.485 6.57-8.772 9.317l-1.307-1.397c.45-1.448 3.557-4.102-1.463-3.005-2.352.513-4.798.585-7.192.92-9.254 1.295-18.38-.682-27.235-1.474-.994 2.023 2.323 2.73.588 4.563-4.918-3.056-7.592-7.884-9.45-13.03-1.83-5.065-2.898-10.404-4.541-16.52-8.303 16.878 4.852 40.18 21.922 40.844 2.094.082.479-1.214.269-1.914l.315-2.089 6.712 2.984c-.352.904-.235 1.712.493 2.393m42.974-24.556c-3.635 8.224-8.09 15.679-15.961 20.8C41.404 73.98 9.937 65.368 1.885 43.402c-3.24-8.835-2.242-17.222 2.52-25.228 1.757-2.953 3.7-5.743 4.962-9.031 1.228-3.201 2.994-6.526 7.677-4.279 1.669.801 3.111-.643 4.564-1.26C31.578-.634 41.723-1.045 52.1 1.9c2.844.807 5.424 2.57 8.787 1.604 1.725-.495 3.197 1.176 4.299 2.84 4.744 7.16 10.959 13.418 13.357 22.004z"/><path fill="#43d416" d="M63.759 38.104c-1.698 3.945-4.86 5.64-8.97 6.363-11.587 2.038-23.085 2.257-34.485-1.05-1.557-.451-3.062-1.108-4.544-1.774-.517-.233-.892-.78-1.338-1.19 9.625-6.946 8.927-17.085 6.691-26.359-1.665-6.906.861-8.43 6.152-9.872 8.1-2.21 16.074-2.038 24.15.126 3.571.957 4.99 2.064 3.519 6.212-2.584 7.288-2.102 14.828.248 22.2 1.347 4.227 3.862 6.67 8.66 5.436z"/><path fill="#41cd15" d="M56.457 51.678c3.287-2.745 5.334-6.615 8.773-9.316 1.784-1.4 2.697-4.101-1.471-4.258l.084.092c3.986-6.507 5.036-13.69 4.596-21.357 7.923 5.75 9.747 19.902 3.615 29.826-7.102 11.493-17.695 17.14-31.237 17.177 6.257-2.712 11.72-6.446 15.64-12.164"/><path fill="#f2f200" d="M19.85 51.288c1.733-1.835-1.584-2.542-.59-4.565 8.855.792 17.98 2.769 27.235 1.474 2.394-.335 4.84-.407 7.192-.92 5.02-1.097 1.914 1.557 1.463 3.005-5.214 4.824-10.023 10.27-17.61 11.438a2.03 2.03 0 0 0-1.105-.016l-1.36-.143-6.71-2.984c-1.012-1.322-2.474-.666-3.744-.852l-2.678-3.583c.318-1.758.324-3.257-2.203-2.645z"/><path fill="#40cc15" d="M21.943 54.143q1.34 1.791 2.677 3.582c.287 1.978 1.97 2.328 3.429 2.94.21.701 1.826 1.997-.269 1.915-17.07-.663-30.225-23.965-21.923-40.845 1.643 6.116 2.711 11.456 4.54 16.521 1.859 5.146 4.533 9.974 9.452 13.031.001.001-.11.21-.109.21-.542 1.946.674 2.426 2.203 2.646"/><path fill="#ec2f8e" d="M66.051 19.906c-2.621-1.497-4.605-2.335-6.954-1.405-1.144.453-2.48 2.29-3.597.322-.66-1.163-.539-2.758.33-4.076.325-.493.501-1.085.743-1.633 1.102-2.503 1.03-6.864 4.207-6.665 3.788.236 3.744 4.663 4.43 7.755.35 1.58.483 3.21.841 5.702"/><path fill="#e92f8c" d="M10.075 20.571c-.802-4.119.275-7.79 1.975-11.294 1.6-3.298 3.597-3.159 5.11-.01 1.041 2.164 1.662 4.568 2.2 6.927.488 2.142.181 3.563-2.666 2.19-2.634-1.272-4.503.897-6.62 2.187"/><path fill="#0f1701" d="M37.54 61.72c7.587-1.168 12.397-6.614 17.61-11.438l1.307 1.396c-3.92 5.718-9.383 9.452-15.64 12.164l-2.778.119-.02-.022z"/><path fill="#ee308f" d="M10.12 28.642c2.66 1.42 6.832-1.132 7.977 2.919.483 1.707-1.153 4.909-2.907 4.823-4.416-.216-3.652-4.773-5.07-7.742"/><path fill="#eb2f8d" d="M56.653 30.05c2.71-1.228 5.42.243 8.343-1.874-.588 3.638-1.001 6.874-3.744 7.308-3.478.551-3.12-3.443-4.599-5.434"/><path fill="#0f1701" d="M24.62 57.725c.701.102.683-.667 1.393-.604.576.052 1.898.863 2.351 1.456-.058.384.76 1.705.702 2.089-.047.312-.97-.313-1.017 0-1.458-.613-3.142-.963-3.429-2.941m13.42 6.235q-1.24 1.848-2.47-.007l.016-.012 2.434-.003z"/><path fill="#0f1701" d="m35.076 61.56 1.357.147-.848 2.236-.015.011c-.728-.681-.846-1.489-.494-2.393"/><path fill="#0f140a" d="M25.714 59.125c-.137-.02-.966-.683-1.171-.813-1.578-.996-4.92-4.955-6.198-7.536-.21-.423-.743-1.168-.825-1.498-.078-.316.604.21.663 0 .264-.064 1.203-.147 1.51 0 .117.056.53.753.656.84 1.426.983 3.421 3.796 4.712 5.301 1.178 1.373 2.347 2.405 2.217 3.122zm9.871 4.817.848-2.235q.566-.149 1.107.013l.479 2.22z"/></g></svg>