<svg xmlns="http://www.w3.org/2000/svg" xmlns:xlink="http://www.w3.org/1999/xlink" viewBox="0 0 96 96"><defs><linearGradient id="b" x1="50%" x2="50%" y1="0%" y2="100%"><stop offset="0%" stop-color="#82d6fb"/><stop offset="100%" stop-color="#3f95d5"/></linearGradient><linearGradient id="c" x1="50%" x2="50%" y1="0%" y2="100%"><stop offset="0%" stop-color="#faf1d1"/><stop offset="100%" stop-color="#e5af53"/></linearGradient><linearGradient id="d" x1="50%" x2="50%" y1="0%" y2="100%"><stop offset="0%" stop-color="#747674"/><stop offset="100%" stop-color="#404140"/></linearGradient><linearGradient id="e" x1="50%" x2="50%" y1="0%" y2="100%"><stop offset="0%" stop-color="#747674"/><stop offset="100%" stop-color="#404140"/></linearGradient><linearGradient id="f" x1="50%" x2="50%" y1="0%" y2="100%"><stop offset="0%" stop-color="#747674"/><stop offset="100%" stop-color="#404140"/></linearGradient><linearGradient id="g" x1="50%" x2="50%" y1="0%" y2="100%"><stop offset="0%" stop-color="#fb9b82"/><stop offset="100%" stop-color="#ff4b2e"/></linearGradient><linearGradient id="h" x1="50%" x2="50%" y1="0%" y2="100%"><stop offset="0%" stop-color="#747674"/><stop offset="100%" stop-color="#404140"/></linearGradient><linearGradient id="i" x1="50%" x2="50%" y1="0%" y2="100%"><stop offset="0%" stop-color="#747674"/><stop offset="100%" stop-color="#404140"/></linearGradient><filter id="a" width="130%" height="128.7%" x="-15%" y="-14.4%" filterUnits="objectBoundingBox"><feOffset dy="2" in="SourceAlpha" result="shadowOffsetOuter1"/><feGaussianBlur in="shadowOffsetOuter1" result="shadowBlurOuter1" stdDeviation="2"/><feColorMatrix in="shadowBlurOuter1" result="shadowMatrixOuter1" values="0 0 0 0 0 0 0 0 0 0 0 0 0 0 0 0 0 0 0.2 0"/><feMerge><feMergeNode in="shadowMatrixOuter1"/><feMergeNode in="SourceGraphic"/></feMerge></filter></defs><g fill="none" fill-rule="evenodd" filter="url(#a)" transform="translate(8.99 6.425)"><path fill="#f7fafc" d="M19.367 83.575c6.944 0 19.643-8.28 19.643-15.146S27.383 56.015 20.44 56.015c-4.045 0-10.202 2.269-13.46 6.594-2.336 3.102-2.494 7.886-2.494 10.754 0 6.866 7.936 10.212 14.88 10.212"/><path fill="url(#b)" d="M37.504 67.336S30.15 78 18.245 78 5.311 73.7 5.311 70.519s1.03-10.061 9.787-13.252c8.756-3.191 22.406 10.07 22.406 10.07"/><path fill="#f7fafc" d="M8.198 62.375q14.437 8.69 15.585 11.84c1.148 3.153-11.873 3.314-15.585-.961-1.265-1.457-2.094-3.72-2.094-5.87q0-2.15 2.094-5.009m52.93 21.2c-6.944 0-19.643-8.28-19.643-15.146s11.627-12.414 18.57-12.414c4.045 0 10.202 2.269 13.46 6.594 2.336 3.102 2.494 7.886 2.494 10.754 0 6.866-7.936 10.212-14.88 10.212"/><path fill="url(#b)" d="M75.184 67.336S67.829 78 55.925 78s-12.934-4.3-12.934-7.481 1.03-10.061 9.787-13.252c8.756-3.191 22.406 10.07 22.406 10.07" transform="matrix(-1 0 0 1 118.175 0)"/><path fill="#f7fafc" d="M72.297 62.375q-14.437 8.69-15.585 11.84c-1.148 3.153 11.873 3.314 15.585-.961 1.265-1.457 2.094-3.72 2.094-5.87q0-2.15-2.094-5.009"/><path fill="url(#c)" d="M25.764 13.237q-1.33 11.709-5.512 15.828-4.182 4.12-3.33 7.47-12.24 4.413-13.14 8.976t0 8.564l4.428-.825q-.271-6.825 3.034-7.739 3.303-.912 4.506 0 1.473 13.59 7.178 17.97c5.706 4.381 17.927 10.713 30.226 3.904 12.3-6.81 10.934-22.547 10.934-24.14 0-1.595 10.072-1.926 11.323-6.02 1.251-4.095 1.434-8.565 0-11.64q-1.434-3.075-2.62.707-.011 8.05-2.177 9.147-2.166 1.095-8.393 0-6.983-13.18-8.025-17.691-1.041-4.511 1.012-7.036z"/><ellipse cx="40.01" cy="10.712" fill="url(#d)" rx="17.082" ry="6.495"/><ellipse cx="30.345" cy="30.745" fill="#f7fafc" rx="5.245" ry="7.384"/><ellipse cx="30.345" cy="34.034" fill="url(#e)" rx="2.799" ry="1.941"/><ellipse cx="47.91" cy="30.745" fill="#f7fafc" rx="5.245" ry="7.384"/><ellipse cx="40.01" cy="5.287" fill="url(#f)" rx="9.665" ry="5.287"/><ellipse cx="47.91" cy="34.034" fill="url(#e)" rx="2.799" ry="1.941"/><path fill="url(#g)" d="M39.896 50.075c3.386 0 7.387-1.417 7.387-5.495s-4.001-10.546-7.387-10.546-6.753 5.786-6.753 9.864 3.367 6.177 6.753 6.177"/><path fill="url(#h)" d="M30.935 24.452c3.011 0 6.57-.343 6.57-1.33s-3.559-2.552-6.57-2.552c-3.01 0-6.004 1.4-6.004 2.387s2.993 1.495 6.004 1.495m16.692 0c3.011 0 6.57-.343 6.57-1.33s-3.559-2.552-6.57-2.552c-3.01 0-6.004 1.4-6.004 2.387s2.993 1.495 6.004 1.495"/><path fill="#f7fafc" d="M40.714 59.199c3.011 0 6.57-.691 6.57-2.68s-3.559-5.144-6.57-5.144c-3.01 0-6.004 2.822-6.004 4.811s2.993 3.013 6.004 3.013m30.883-35.837q-3.406.85-5.295 0c-1.889-.851-.314-2.792 1.701-2.792s3.189-2.573 1.595-4.624-1.196-6.597.738-5.234q1.935 1.363 2.186 2.788-.451-2.677 1.455-3.999t2.036 3.254q1.592-2.043 3.125-2.043t0 5.234q1.42 5.097.802 6.565-.62 1.468-2.99.85v2.93h-5.353zM8.53 56.222q3.408-.85 5.296 0c1.888.851.313 2.792-1.702 2.792s-3.188 2.573-1.594 4.624 1.196 6.597-.738 5.234q-1.935-1.362-2.187-2.788.453 2.677-1.455 3.999t-2.035-3.254Q2.522 68.872.99 68.872t0-5.234Q-.432 58.54.188 57.073q.618-1.469 2.99-.85v-2.93H8.53z"/><path fill="url(#i)" d="M39.824 55.105c6.11 0 13.33-.508 13.33-1.973 0-1.464-7.22-3.787-13.33-3.787S27.64 51.423 27.64 52.887c0 1.465 6.074 2.218 12.184 2.218"/></g></svg>