<svg xmlns="http://www.w3.org/2000/svg" xmlns:xlink="http://www.w3.org/1999/xlink" viewBox="0 0 96 96"><defs><linearGradient id="b" x1="50.183%" x2="56.583%" y1=".945%" y2="33.919%"><stop offset="0%" stop-color="#b0aec2"/><stop offset="100%" stop-color="#7d7aa3"/></linearGradient><linearGradient id="c" x1="50%" x2="50%" y1="0%" y2="100%"><stop offset="0%" stop-color="#afb0c8"/><stop offset="100%" stop-color="#777897"/></linearGradient><linearGradient id="d" x1="50%" x2="50%" y1="-23.441%" y2="79.206%"><stop offset="0%" stop-color="#cdcce1"/><stop offset="100%" stop-color="#9e9dbf"/></linearGradient><linearGradient id="e" x1="50%" x2="50%" y1="0%" y2="100%"><stop offset="0%" stop-color="#c5c4d9"/><stop offset="100%" stop-color="#9391b1"/></linearGradient><linearGradient id="f" x1="50%" x2="50%" y1="0%" y2="100%"><stop offset="0%" stop-color="#a967f7"/><stop offset="100%" stop-color="#5b28bc"/></linearGradient><linearGradient id="g" x1="50%" x2="50%" y1="0%" y2="100%"><stop offset="0%" stop-color="#20005e"/><stop offset="100%" stop-color="#1c1024"/></linearGradient><linearGradient id="h" x1="50%" x2="50%" y1="0%" y2="100%"><stop offset="0%" stop-color="#3c3a58"/><stop offset="100%" stop-color="#392a4d"/></linearGradient><filter id="a" width="127%" height="138%" x="-13.5%" y="-19%" filterUnits="objectBoundingBox"><feOffset dy="2" in="SourceAlpha" result="shadowOffsetOuter1"/><feGaussianBlur in="shadowOffsetOuter1" result="shadowBlurOuter1" stdDeviation="2"/><feColorMatrix in="shadowBlurOuter1" result="shadowMatrixOuter1" values="0 0 0 0 0 0 0 0 0 0 0 0 0 0 0 0 0 0 0.2 0"/><feMerge><feMergeNode in="shadowMatrixOuter1"/><feMergeNode in="SourceGraphic"/></feMerge></filter></defs><g fill="none" fill-rule="evenodd" filter="url(#a)" transform="translate(3.254 16.728)"><path fill="url(#b)" d="M67.365 9.42q5.07 1.813 6.14 2.172c1.071.36 7.682 4.549 8.93 5.512s5.178 4.025 5.89 4.887c.711.863.471 17.49.471 17.894q0 .403-.471 10.961-1.854 8.28-4.2 10.148c-2.346 1.867-5.227 3.096-8.351 1.086q-3.125-2.01 3.808-31.91-17.726-15.127-17.726-15.546 0-.42 1.478-5.718z"/><path fill="url(#c)" d="m88.829 31.309.003.794.003.785v1.524c-.006 2.963-.039 5.324-.039 5.473v.05q-.02.784-.471 10.911-1.854 8.28-4.2 10.148c-.924.735-1.93 1.371-3.002 1.75l-.458-7.307 4.737-26.463 3.377-1.41c.027 1.19.042 2.473.05 3.745"/><path fill="url(#d)" d="M67.365 9.42q4.345 4.963 5.971 5.737c1.627.774 9.762 4.151 10.914 5.248 1.152 1.096 1.628 2.522 1.628 3.992v4.226q-14.1-5.148-14.781-5.89c-.68-.743-6.485-8.084-6.485-8.084l-2.123-6.131z"/><path fill="url(#e)" d="M17.849.577Q13.039 1.94 9.835 1.94c-3.205 0-7.537.288-8.267 1.592Q.838 4.837.876 8.176l8.2-.637q8.536-4.006 8.202-4.007t.57-2.955"/><path fill="url(#f)" d="M.157 9.785C.431 7.63 1.89 6.442 4.177 6.442c2.288 0 8.179-2.457 9.082-3.38C14.162 2.136 17.415 0 22.217 0s42.768 7.98 43.94 8.436a5.3 5.3 0 0 1 2.004 1.349q-3.195-.73-3.196 0c0 .73.892 3.012 2.044 4.003 1.152.99 6.632 6.338 8.32 7.053s9.474 5.023 9.948 7.288q.474 2.265-.859 27.91-1.1 7.179-6.902 7.179H57.823q-33.755-9.477-39.32-13.632c-5.563-4.155-9.955-7.07-12.618-9.004s-4.253-2.115-5.29-5.968C-.07 31.904-.118 11.94.156 9.784"/><path fill="url(#g)" d="M17.009 8.518c-.84.8-1.691 7.06-2.1 15.076-.41 8.015-.269 16.226 2.1 18.684 2.368 2.458 15.89 10.358 22.631 11.982 6.742 1.625 18.557 1.673 19.29.39.733-1.284 1.231-13.643.615-21.63-.615-7.987.604-14.936-3.847-16.69q-4.452-1.752-31.98-7.424-5.87-1.188-6.71-.388"/><path fill="url(#h)" d="M17.849 11.506c0 1.065-1.387 24.024 0 26.24 1.386 2.216 35.98 12.481 37.505 12.101s1.81-27.956.97-29.939c-.84-1.982-38.475-9.467-38.475-8.402"/><path stroke="#937d95" d="M17.232 29.013q.515.018.79-.536c1.803-3.619 3.01-5.633 3.452-6.862.764-2.125 1.624-3.54 2.6-2.538.978 1.001 6.163 18.392 8.038 19.253s5.223-12.66 7.036-13.967 4.99 1.174 6.112 6.41S48.1 43.87 49.746 44.1c1.796.251 2.622-4.492 4.278-7.638.86-1.633 1.095-3.625 1.572-3.625" opacity=".376"/><path stroke="#5b51cb" d="M17.554 36.643c.706-.117 4.143-2.697 5.154-5.034 1.01-2.337 4.046-12.619 6.725-13.038s4.643 7.867 7.742 16.707 2.964 8.84 5.526 8.84 8.802-7.35 9.667-11.098 1.313-7.702 4.42-7.702" opacity=".376"/><circle cx="67.246" cy="38.772" r="3.5" fill="#d8d6fa"/><circle cx="76.246" cy="38.772" r="3.5" fill="#d8d6fa"/><path fill="#31008f" d="m62.746 54.26 11.017.713v.912l-11.017-.712zm0-1.707 11.017.713v.912l-11.017-.712zm0-1.707 11.017.5v.913l-11.017-.5zm0-1.707 11.017.504v.912l-11.017-.503zm0-1.867 11.017.503v.913l-11.017-.504z"/><path fill="#d8d6fa" d="M1.746 22.272v-3.315l3 .528V16.32l3.987.663v3.284l3.013.727v4.075l-3.013-.944v3.822l-3.987-.918.055-3.897z"/><path fill="#d8d8d8" d="m46.746 29.35 8 2.395v8.815l-2.01-.673V36.76l-2.99-.928v3.248l-3-.754zm-10-2.512 8 2.095v3.437l-.534.582.534.802v4.017l-8-2.5zm-8-2.326 7 1.76v1.8l-5-1.404v5.096l3 .877v-1.66l-1-.35v-1.583l3 .762v5.327l-7-2.619zm11 8.508v1.144l3 .856v-1.144zm10-.748v1l3 1v-1zm-30-9.34 8 2.298v7.14l-1-.288V26.63l-1-.36v5.338l-2-.749v-5.017l-2-.571v5.314l-2-.826zm20 6.34v1.144l3 .856v-1.145z"/><path fill="#9e6cfc" d="m11.746 33.908-5-2.636v2.385l5 2.615zm0 4-5-2.636v2.385l5 2.615z"/><path fill="#2a1e4c" d="M41.103 5.42a.6.6 0 0 0 .433.722l4.797 1.22a.72.72 0 0 0 .87-.5.66.66 0 0 0-.492-.823l-4.885-1.07a.61.61 0 0 0-.723.45"/><ellipse cx="11.746" cy="34.772" fill="#d8d6fa" rx="1" ry="1.5"/><ellipse cx="11.746" cy="38.772" fill="#d8d6fa" rx="1" ry="1.5"/><circle cx="65.54" cy="25.318" r="1" fill="#67d047"/></g></svg>