<svg xmlns="http://www.w3.org/2000/svg" xmlns:xlink="http://www.w3.org/1999/xlink" viewBox="0 0 96 96"><defs><linearGradient id="b" x1="50%" x2="50%" y1="0%" y2="100%"><stop offset="0%" stop-color="#434343"/><stop offset="100%"/></linearGradient><linearGradient id="c" x1="50%" x2="50%" y1="0%" y2="100%"><stop offset="0%" stop-color="#ff0705"/><stop offset="100%" stop-color="#ff0302"/></linearGradient><linearGradient id="d" x1="50%" x2="50%" y1="0%" y2="100%"><stop offset="0%" stop-color="#02eb35"/><stop offset="100%" stop-color="#01d318"/></linearGradient><linearGradient id="e" x1="50%" x2="50%" y1="0%" y2="100%"><stop offset="0%" stop-color="#2922ff"/><stop offset="100%" stop-color="#120ffe"/></linearGradient><filter id="a" width="128.6%" height="128.6%" x="-14.3%" y="-14.3%" filterUnits="objectBoundingBox"><feOffset dy="2" in="SourceAlpha" result="shadowOffsetOuter1"/><feGaussianBlur in="shadowOffsetOuter1" result="shadowBlurOuter1" stdDeviation="2"/><feColorMatrix in="shadowBlurOuter1" result="shadowMatrixOuter1" values="0 0 0 0 0 0 0 0 0 0 0 0 0 0 0 0 0 0 0.2 0"/><feMerge><feMergeNode in="shadowMatrixOuter1"/><feMergeNode in="SourceGraphic"/></feMerge></filter></defs><g fill="none" fill-rule="evenodd" filter="url(#a)" transform="translate(6 6)"><path fill="url(#b)" d="M38.001.02C63.54.723 84 19.249 84 42S63.54 83.278 38.001 83.98v-.021C58.867 82.979 75.5 64.568 75.5 42S58.866 1.021 38.001.041zm0 16.66C53.572 18.186 65.646 28.948 65.646 42S53.572 65.814 38 67.32v-.277C49.978 64.784 59.028 54.43 59.028 42S49.978 19.216 38 16.957zM34.5 30C41.404 30 47 35.596 47 42.5S41.404 55 34.5 55 22 49.404 22 42.5 27.596 30 34.5 30"/><path fill="url(#c)" d="M2 0h3v84H2a2 2 0 0 1-2-2V2a2 2 0 0 1 2-2"/><path fill="url(#d)" d="M5 0h5v84H5z"/><path fill="url(#e)" d="M10 0h3a2 2 0 0 1 2 2v80a2 2 0 0 1-2 2h-3z"/><text fill="#fff" font-family="PingFang-SC-Heavy, PingFang SC" font-size="21" font-weight="600" letter-spacing="1.48">
      <tspan x="29.001" y="49.5">？</tspan>
    </text></g></svg>