<svg xmlns="http://www.w3.org/2000/svg" viewBox="0 0 64 64"><path d="M39.37 5.492a14.21 14.21 0 0 0-17.44 10.069A14.207 14.207 0 0 0 4.493 25.629 14.21 14.21 0 0 0 14.56 43.07a14.21 14.21 0 0 0 10.07 17.438 14.21 14.21 0 0 0 17.439-10.069 14.21 14.21 0 0 0 17.439-10.068 14.21 14.21 0 0 0-10.069-17.44A14.21 14.21 0 0 0 39.371 5.494Z" opacity=".2"/><path fill="#c53b7c" d="M39.37 4.493A14.21 14.21 0 0 0 21.93 14.56 14.207 14.207 0 0 0 4.493 24.629 14.21 14.21 0 0 0 14.56 42.07a14.21 14.21 0 0 0 10.07 17.438 14.21 14.21 0 0 0 17.439-10.069 14.21 14.21 0 0 0 17.439-10.068 14.21 14.21 0 0 0-10.069-17.44A14.21 14.21 0 0 0 39.371 4.494Z"/><path fill="#fff" d="M35.107 4.01a14.21 14.21 0 0 0-13.175 10.55 14.21 14.21 0 0 0-17.44 10.07 14.3 14.3 0 0 0-.47 4.387 14.3 14.3 0 0 1 .47-3.387 14.21 14.21 0 0 1 17.44-10.068 14.207 14.207 0 0 1 17.437-10.07h.002a14.2 14.2 0 0 1 10.54 13.053A14.194 14.194 0 0 0 39.37 4.492h-.002a14.3 14.3 0 0 0-4.262-.482M49.64 21.996c-.062.312-.118.624-.202.936a14.2 14.2 0 0 1 10.54 13.052A14.19 14.19 0 0 0 49.64 21.996M14.359 43.004a14.3 14.3 0 0 0-.27 3.441 14.3 14.3 0 0 1 .472-3.377c-.07-.018-.133-.045-.202-.064" opacity=".1"/><path d="M52.41 21.215a11.76 11.76 0 0 0-16.097-4.313c-3.264-5.654-10.444-7.577-16.098-4.313s-7.577 10.444-4.313 16.097c-5.654 3.265-7.578 10.444-4.313 16.098s10.443 7.578 16.097 4.313c3.264 5.654 10.444 7.578 16.098 4.314s7.577-10.444 4.313-16.098a11.76 11.76 0 0 0 4.313-16.098" opacity=".2"/><path fill="#dc6ca0" d="M52.41 20.215a11.76 11.76 0 0 0-16.097-4.313c-3.264-5.654-10.444-7.577-16.098-4.313s-7.577 10.444-4.313 16.097c-5.654 3.265-7.578 10.444-4.313 16.098s10.443 7.578 16.097 4.313c3.264 5.654 10.444 7.578 16.098 4.314s7.577-10.444 4.313-16.098a11.76 11.76 0 0 0 4.313-16.098"/><path d="M34.095 25.182a5.4 5.4 0 0 0-5.57 1.8 5.4 5.4 0 0 0-4.343 3.923 5.4 5.4 0 0 0 1.8 5.57 5.4 5.4 0 0 0 3.923 4.343 5.4 5.4 0 0 0 5.57-1.8 5.4 5.4 0 0 0 4.343-3.923 5.4 5.4 0 0 0-1.8-5.57 5.4 5.4 0 0 0-3.923-4.343" opacity=".2"/><path fill="#f0a9ca" d="M34.095 24.182a5.4 5.4 0 0 0-5.57 1.8 5.4 5.4 0 0 0-4.343 3.923 5.4 5.4 0 0 0 1.8 5.57 5.4 5.4 0 0 0 3.923 4.343 5.4 5.4 0 0 0 5.57-1.8 5.4 5.4 0 0 0 4.343-3.923 5.4 5.4 0 0 0-1.8-5.57 5.4 5.4 0 0 0-3.923-4.343"/><path fill="#fff" d="M25.797 10.004a11.8 11.8 0 0 0-5.582 1.586 11.75 11.75 0 0 0-5.881 10.73 11.74 11.74 0 0 1 5.88-9.73 11.76 11.76 0 0 1 16.099 4.312 11.76 11.76 0 0 1 16.097 4.313 11.8 11.8 0 0 1 1.569 5.357c.084-2.149-.41-4.35-1.569-6.357a11.76 11.76 0 0 0-16.097-4.313 11.76 11.76 0 0 0-10.516-5.898m-10.28 17.932a11.74 11.74 0 0 0-5.496 10.492 11.74 11.74 0 0 1 5.881-9.74c-.142-.247-.262-.5-.384-.752m32.965 9.128c-.13.082-.25.171-.384.248a11.76 11.76 0 0 1 1.568 5.368 11.7 11.7 0 0 0-1.184-5.616" opacity=".1"/><path fill="#fff" d="M32.492 24.004a5.4 5.4 0 0 0-3.967 1.978 5.4 5.4 0 0 0-4.343 3.922 5.4 5.4 0 0 0-.153 1.887 5.4 5.4 0 0 1 .153-.887 5.4 5.4 0 0 1 4.343-3.922 5.4 5.4 0 0 1 5.57-1.8 5.4 5.4 0 0 1 3.923 4.343 5.4 5.4 0 0 1 1.953 3.682 5.4 5.4 0 0 0-1.953-4.682 5.4 5.4 0 0 0-3.922-4.343 5.4 5.4 0 0 0-1.604-.178" opacity=".2"/></svg>