<svg xmlns="http://www.w3.org/2000/svg" xmlns:xlink="http://www.w3.org/1999/xlink" viewBox="0 0 96 96"><defs><linearGradient id="b" x1="50%" x2="50%" y1="0%" y2="100%"><stop offset="0%" stop-color="#444"/><stop offset="100%" stop-color="#0d1018"/></linearGradient><filter id="a" width="126.7%" height="134.3%" x="-13.3%" y="-17.1%" filterUnits="objectBoundingBox"><feOffset dy="2" in="SourceAlpha" result="shadowOffsetOuter1"/><feGaussianBlur in="shadowOffsetOuter1" result="shadowBlurOuter1" stdDeviation="2"/><feColorMatrix in="shadowBlurOuter1" result="shadowMatrixOuter1" values="0 0 0 0 0 0 0 0 0 0 0 0 0 0 0 0 0 0 0.2 0"/><feMerge><feMergeNode in="shadowMatrixOuter1"/><feMergeNode in="SourceGraphic"/></feMerge></filter></defs><g fill="none" fill-rule="evenodd" filter="url(#a)" transform="translate(3 13)"><rect width="90" height="70" fill="url(#b)" rx="18"/><path fill="#fff" fill-rule="nonzero" d="M17 44.864c2.444 0 4.62-.624 5.972-1.872Q25 41.067 25 37.454V26h-3v11.506c0 1.577-.415 2.765-1.16 3.562-.763.763-2.228 1.144-3.84 1.144-1.647 0-3.112-.381-3.84-1.144q-1.118-1.144-1.118-3.562V26H9v11.454q0 3.614 2.054 5.564c1.317 1.23 3.485 1.846 5.946 1.846m18.662 0V42.42h-1.768q-.442 0-.676-.234-.208-.234-.208-.728v-7.592H36v-2.444h-2.99V28l-2.964.064v3.358h-2.418v2.444h2.418v7.592q0 1.612.78 2.47.832.936 2.574.936zm4.807-15.366q.858 0 1.43-.546.598-.545.598-1.43 0-.832-.572-1.404-.572-.546-1.456-.546-.832 0-1.43.546-.572.546-.572 1.404t.572 1.43q.598.546 1.43.546M42 45V31h-3v14zm8 0V26h-3v19zm9.322-.136q6.059 0 6.058-4.29 0-1.82-1.612-2.834-1.04-.702-3.38-1.274-2.001-.495-2.678-.78-1.065-.468-1.066-1.118 0-.78.676-1.118.573-.338 1.768-.338 1.38 0 2.028.416.624.39.936 1.43h2.886q-.468-4.264-5.798-4.264-2.521 0-4.004 1.066-1.534.988-1.534 2.886 0 1.742 1.56 2.73.99.624 3.354 1.17 2.133.494 2.652.754 1.17.546 1.17 1.482 0 1.665-3.12 1.664-1.43 0-2.132-.494-.675-.572-.91-1.82H53.29q.443 4.732 6.032 4.732m15.409 0q3.068 0 4.94-2.028 1.82-1.976 1.82-5.044 0-3.094-1.846-5.096t-4.914-2.002q-3.094 0-4.914 2.002-1.846 1.95-1.846 5.096 0 3.12 1.82 5.044 1.872 2.028 4.94 2.028m0-2.418q-1.846 0-2.86-1.456-.858-1.248-.858-3.198 0-1.976.858-3.224.987-1.456 2.86-1.456 1.871 0 2.86 1.456.884 1.275.884 3.224 0 1.872-.884 3.198-1.014 1.456-2.86 1.456"/><path fill="#f1c84c" fill-rule="nonzero" d="M19.61 17.456 18 21l-1.381-1-1.235 6 2.113-3 1.05 1z"/><path fill="#eb5757" fill-rule="nonzero" d="M9 21h3v2H9z"/><path fill="#2d9cdb" fill-rule="nonzero" d="M23 21h3v2h-3z"/></g></svg>