<svg xmlns="http://www.w3.org/2000/svg" xmlns:xlink="http://www.w3.org/1999/xlink" viewBox="0 0 96 96"><defs><linearGradient id="b" x1="50%" x2="50%" y1="0%" y2="100%"><stop offset="0%" stop-color="#0c4f91"/><stop offset="100%" stop-color="#0d569f"/></linearGradient><linearGradient id="c" x1="21.833%" x2="80.493%" y1="18.248%" y2="87.464%"><stop offset="0%" stop-color="#0f8bdb"/><stop offset="100%" stop-color="#0576d0"/></linearGradient><linearGradient id="d" x1="11.709%" x2="94.426%" y1="38.121%" y2="66.72%"><stop offset="0%" stop-color="#3abffa"/><stop offset="100%" stop-color="#54d45a"/></linearGradient><filter id="a" width="127.9%" height="127.6%" x="-14%" y="-13.8%" filterUnits="objectBoundingBox"><feOffset dy="2" in="SourceAlpha" result="shadowOffsetOuter1"/><feGaussianBlur in="shadowOffsetOuter1" result="shadowBlurOuter1" stdDeviation="2"/><feColorMatrix in="shadowBlurOuter1" result="shadowMatrixOuter1" values="0 0 0 0 0 0 0 0 0 0 0 0 0 0 0 0 0 0 0.2 0"/><feMerge><feMergeNode in="shadowMatrixOuter1"/><feMergeNode in="SourceGraphic"/></feMerge></filter></defs><g fill="none" fill-rule="evenodd" filter="url(#a)" transform="translate(5 5)"><path fill="url(#b)" d="M46.084 63.644C33.016 56.734 32.031 48 33.016 37.142c.984-10.857 4.415-8.127 4.802-10.755q.231-1.576-10.101-12.495Q9.897 28.457 9.152 44.724c-.745 16.268-6.435 14.17 3.475 23.168 4.946 4.49 8.33 8.223 15.09 11.81 6.784 3.601 16.951 7.046 25.471 5.003 17.01-4.079 28.647-19.359 25.207-20.236-3.439-.878-15.075 8.289-32.31-.825"/><path fill="url(#c)" d="M51.317 85.075q-14.502-.602-22.936-10.457c-4.932-5.761-8.706-21.414-.974-32.055s14.942-11.573 19.748-9.566q4.807 2.007 8.185 10.302l3.064-21.854-36.917-5.94-12.8 2.753q-11.88 15.58-7.514 35.215C5.537 73.107 24.703 83.225 32.4 85.075q7.697 1.85 18.917 0"/><path fill="url(#d)" d="M0 42.563Q1.677 29.33 11.129 24.152c9.452-5.18 22.707-4.95 31.797.906 5.295 3.412 8.723 8.385 10.307 12.757 1.136 3.133 1.246 6.09.497 7.807-1.792 4.114-4.01 5.822-2.72 7.557 1.174 1.582 9.223 5.804 19.183 3.697.965-.205 7.55-1.627 12.313-8.567 5.367-7.82 4.446-20.71-2.038-29.386C74.803 11.34 68.41 4.97 57.512 1.854 49.876-.33 39.34-1.012 29.202 2.19c-5.273 1.666-10.5 4.93-15.057 9.015-3.798 3.405-7.195 8.05-9.483 12.017-1.48 2.567-3.128 7.16-3.98 11.643Q.187 37.466 0 42.563"/><rect width="60" height="24" x="26" y="63" fill="#50e6ff" rx="4"/><path fill="#000" fill-rule="nonzero" d="M38.762 81C41.678 81 44 79.776 44 77.04c0-1.782-1.026-2.79-2.376-3.15v-.072c1.08-.414 1.746-1.318 1.746-2.506 0-2.574-2.214-3.312-4.986-3.312H34v13zm-.504-8.082H37v-2.47h1.258c1.35 0 1.98.396 1.98 1.35 0 .918-.612 1.12-1.98 1.12m.27 5.616H37v-3.24h1.528c1.566 0 2.34.432 2.34 1.53 0 1.152-.792 1.71-2.34 1.71M55 81v-3h-6v-2h5v-3h-5v-2h6v-3h-9v13zm8 0V71h4v-3H56v3h3.99v10zm7.502 0 .774-3h3.96l.774 3h3.384l-4.158-13h-3.852l-4.158 13zm4.122-5.562h-2.736l.288-1.134c.342-1.332.702-2.506 1.026-3.91h.072c.36 1.368.702 2.578 1.062 3.91z"/></g></svg>