<svg xmlns="http://www.w3.org/2000/svg" xmlns:xlink="http://www.w3.org/1999/xlink" viewBox="0 0 96 96"><defs><linearGradient id="b" x1="50%" x2="50%" y1="2.243%" y2="100%"><stop offset="0%" stop-color="#8e95c3"/><stop offset="100%" stop-color="#485197"/></linearGradient><linearGradient id="c" x1="50%" x2="50%" y1="0%" y2="100%"><stop offset="0%" stop-color="#f0e7ff"/><stop offset="100%" stop-color="#e3d6f9"/></linearGradient><filter id="a" width="130.8%" height="130%" x="-15.4%" y="-15%" filterUnits="objectBoundingBox"><feOffset dy="2" in="SourceAlpha" result="shadowOffsetOuter1"/><feGaussianBlur in="shadowOffsetOuter1" result="shadowBlurOuter1" stdDeviation="2"/><feColorMatrix in="shadowBlurOuter1" result="shadowMatrixOuter1" values="0 0 0 0 0 0 0 0 0 0 0 0 0 0 0 0 0 0 0.2 0"/><feMerge><feMergeNode in="shadowMatrixOuter1"/><feMergeNode in="SourceGraphic"/></feMerge></filter></defs><g fill="none" fill-rule="evenodd" filter="url(#a)" transform="translate(9 8)"><rect width="78" height="80" fill="url(#b)" rx="18"/><circle cx="39" cy="40" r="31" fill="url(#c)"/><path fill="#040404" d="M15 69.704c1.86 1.097 3.221 4.151 5.677 4.151s2.976-1.146 5.04-1.146 3.2 2.822 5.765 3.38c2.565.56 1.422 0 5.075 0s5.966.56 7.77.56 4.505-.396 5.656-2.168q1.152-1.77 2.993-2.589h3.274q1.096-1.09 3.277-1.091c2.18 0 3.505 3.435 7.873 4.641 1.285.356 2.607.543 3.869.595A17.92 17.92 0 0 1 60 80H18c-6.812 0-12.74-3.784-15.797-9.365q11.357-1.78 12.797-.93"/><path fill="#202020" d="M8 51.184 4.798 57.37H8l4.003-1.624.913 1.624 4.915-3.247-3.066 3.604 3.97 1.16-3.063.821 2.159.964-3.873 1.25 2.354 1.39h-5.604v3.162H8.405l1.158 1.061-4.765 1.532h2.57l-5.23 1.448A17.9 17.9 0 0 1 0 62v-5.31l.826-.943v-3.43l1.744 3.286zM78 18v7.29l-1.892-.892-1.112 4.366-.054-4.366-3.78.892 3.78-4.526-2.195-1.474h2.195l3.002-2.728Q78 17.274 78 18m-1.204-6.488-.607 1.821-1.675-.878-.862 2.98-.629-2.102L70 15.435l1.756-2.98-2.675-1.283v3.442h-1.154l-1.384 2.339-.866-1.518-.661 4.451-1.959-5.272-1.234 2.978-.959-.64-3.415 4.493.804-3.853-7.04 2.294 5.427-2.933h-3.4l3.4-1.518-3.4-.82 5.013-1.282q-1.613-1.611-1.613-2.33 0-.694 3.192 2.138l.216.192 3.691-.878-3.69-1.452 4.967-.724L61.823 9l1.916-.29-1.916-2.179h6.104l-2.25-1.946 3.137.707.267.06h2.675L70 3.62l.574-.187a18.05 18.05 0 0 1 6.222 8.08M13.896.47l3.16 1.513H14l3.83 5.377q-3.954-3.741-4.592-3.818-.615-.075 1.724 2.635l.178.205-2.845-1.962.943 4.58-3.383-5.458L8 5.318l.358-2.52A17.9 17.9 0 0 1 13.896.47"/></g></svg>