<svg xmlns="http://www.w3.org/2000/svg" xmlns:xlink="http://www.w3.org/1999/xlink" viewBox="0 0 96 96"><defs><linearGradient id="b" x1="50%" x2="50%" y1="0%" y2="98.506%"><stop offset="0%" stop-color="#262626"/><stop offset="100%"/></linearGradient><filter id="a" width="126.7%" height="133.3%" x="-13.3%" y="-16.7%" filterUnits="objectBoundingBox"><feOffset dy="2" in="SourceAlpha" result="shadowOffsetOuter1"/><feGaussianBlur in="shadowOffsetOuter1" result="shadowBlurOuter1" stdDeviation="2"/><feColorMatrix in="shadowBlurOuter1" result="shadowMatrixOuter1" values="0 0 0 0 0 0 0 0 0 0 0 0 0 0 0 0 0 0 0.2 0"/><feMerge><feMergeNode in="shadowMatrixOuter1"/><feMergeNode in="SourceGraphic"/></feMerge></filter></defs><g fill="none" filter="url(#a)" transform="translate(3.188 12.128)"><path fill="#fff" d="M27.967 71.619c-1.208-.074-3.21-.407-4.923-.82-5.96-1.434-12.646-4.46-16.79-7.596l-.724-.547c-.486-.364-1.472-1.276-1.887-1.745-1.283-1.45-1.783-2.699-1.529-3.817.05-.215.448-1.27.886-2.344.439-1.075 1.856-4.575 3.15-7.78l2.354-5.826-.146-.425c-.116-.336-.148-.551-.15-1.026l-.004-.601.54-1.338.54-1.338-.074-.555a10 10 0 0 1-.077-.818c-.003-.188-.026-.253-.081-.232-.073.028-3.132 2.179-4.461 3.136-.659.475-.88.578-1.488.697-1.025.2-2.25-.4-2.76-1.355a3.8 3.8 0 0 1-.267-.817c-.102-.496-.102-.536.004-1.039.108-.518.356-1.03.653-1.352.226-.244.987-.755 4.655-3.128 1.96-1.267 3.578-2.328 3.597-2.36.019-.03.098-.338.176-.685.405-1.791 1.259-3.564 2.368-4.919.49-.597 1.774-1.832 2.559-2.46a38 38 0 0 1 3.557-2.481c.088-.054.095-.083.035-.155-.11-.132-.95-.51-1.398-.63-.834-.222-2.734-.094-4.552.307-.34.075-.617.122-.617.106s.128-.181.284-.367c1.824-2.163 4.165-4.065 6.418-5.214 2.153-1.099 4.138-1.54 7.303-1.624 1.227-.033 2.962.034 3.63.14l.233.038-.19-.355a6.2 6.2 0 0 0-1.936-2.12c-.45-.296-1.603-.885-2.143-1.094-.207-.08-.376-.161-.376-.181s.266-.162.591-.315c2.778-1.306 5.713-1.759 8.07-1.244 1.638.357 3.692 1.286 5.641 2.55l.584.38.26-.097.26-.097.19-.72c.474-1.804 1.16-3.074 2.275-4.222C43.29 2.02 44.54 1.108 45.513.72c1.713-.682 3.296-.888 4.46-.582 1.432.378 2.964 1.854 4.178 4.026.197.352.198.355.054.311-.08-.024-.54-.059-1.022-.077-1.38-.053-2.086.12-2.67.654-.577.527-.875 1.326-.991 2.656-.077.885-.029 1.505.113 1.449.23-.09 1.84-.453 2.501-.565 1.721-.29 2.22-.33 4.117-.33 1.97-.001 2.718.067 4.657.422 1.657.304 5.018 1.129 4.935 1.21-.014.015-.381.093-.816.173-1.307.24-2.688.748-3.306 1.213-.358.27-.791.745-1.066 1.17-.258.4-.468.826-.407.826.017 0 .43.056.918.124 2.49.348 5.051 1.049 6.765 1.851 1.25.586 2.755 1.601 3.952 2.668.596.53 1.86 1.83 1.86 1.912 0 .027-.087.023-.193-.007s-.613-.128-1.127-.216c-1.075-.185-2.656-.232-3.249-.095s-1.206.332-1.189.379c.01.025.355.282.769.572.413.29.928.669 1.145.844l.394.317.478-.12a6.1 6.1 0 0 1 2.37-.138c.688.102 1.026.207 1.63.509.838.418 1.98 1.472 2.441 2.252.343.58.798 2.102.798 2.67 0 .194.107.299.511.5.165.082.45.23.631.328.46.249 1.647.874 2.435 1.284.363.188.823.43 1.022.538.4.216 1.396.74 2.404 1.264.363.19.823.432 1.022.54.198.108.667.355 1.042.548 1.213.628 1.827 1.111 2.105 1.656.326.636.421 1.587.222 2.18-.061.182-.213.48-.336.663-.584.863-1.39 1.246-2.5 1.188-.53-.028-.975-.201-1.615-.629-.164-.11-.321-.2-.347-.2-.027 0-.19-.095-.361-.21-.172-.117-.335-.211-.363-.211s-.163-.077-.3-.17a5 5 0 0 0-.433-.262c-.099-.05-.349-.19-.556-.31l-.75-.44c-.207-.12-.485-.278-.617-.35a7 7 0 0 1-.474-.292c-.129-.088-.258-.16-.288-.16s-.195-.094-.367-.21-.334-.21-.36-.21c-.027 0-.189-.095-.36-.21-.173-.117-.336-.211-.363-.211-.028 0-.168-.081-.312-.18-.145-.1-.285-.18-.313-.18-.027 0-.19-.096-.362-.211a3 3 0 0 0-.344-.21c-.017 0-.174-.09-.348-.2-.501-.318-.483-.32-.902.102a6 6 0 0 1-.518.474q-.261.173.126.25c.323.065 1.07.627 1.323.997.21.307 1.86 4.256 2.022 4.838.122.441.085.833-.175 1.833l-.07.27 3.05 7.544c1.68 4.15 3.117 7.7 3.196 7.89.197.48.245 1.208.112 1.727-.378 1.483-1.72 3.057-4.153 4.87-6.217 4.633-16.661 8.446-23.111 8.437-1.598-.002-2.52-.173-3.45-.638-.39-.195-.924-.666-1.134-1-.074-.117-.528-1.188-1.008-2.38l-.874-2.166-1.553-.016-1.552-.016-.43.407c-.855.808-1.677 1.242-2.952 1.559-1.262.313-2.605.192-3.967-.359-.605-.244-1.255-.676-1.81-1.2l-.43-.407-1.61.016-1.61.016-.76 1.893a233 233 0 0 0-.861 2.164c-.056.15-.243.457-.417.684-.61.797-1.696 1.258-3.343 1.418-.586.057-1.829.08-1.884.033a8 8 0 0 0-.625-.052"/><path fill="url(#b)" d="M28.592 71.671a8 8 0 0 0-.625-.052c-1.208-.074-3.21-.407-4.923-.82-5.96-1.434-12.646-4.46-16.79-7.596l-.724-.547c-.486-.364-1.472-1.276-1.887-1.745-1.283-1.45-1.783-2.699-1.529-3.817.05-.215.448-1.27.886-2.344.439-1.075 1.856-4.575 3.15-7.78l2.354-5.826-.146-.425c-.116-.336-.148-.551-.15-1.026l-.004-.601.54-1.338.54-1.338-.074-.555a10 10 0 0 1-.077-.818c-.003-.188-.026-.253-.081-.232-.073.028-3.132 2.179-4.461 3.136-.659.475-.88.578-1.488.697-1.025.2-2.25-.4-2.76-1.355a3.8 3.8 0 0 1-.267-.817c-.102-.496-.102-.536.004-1.039.108-.518.356-1.03.653-1.352.226-.244.987-.755 4.655-3.128 1.96-1.267 3.578-2.328 3.597-2.36.019-.03.098-.338.176-.685.405-1.791 1.259-3.564 2.368-4.919.49-.597 1.774-1.832 2.559-2.46a38 38 0 0 1 3.557-2.481c.088-.054.095-.083.035-.155-.11-.132-.95-.51-1.398-.63-.834-.222-2.734-.094-4.552.307-.34.075-.617.122-.617.106s.128-.181.284-.367c1.824-2.163 4.165-4.065 6.418-5.214 2.153-1.099 4.138-1.54 7.303-1.624 1.227-.033 2.962.034 3.63.14l.233.038-.19-.355a6.2 6.2 0 0 0-1.936-2.12c-.45-.296-1.603-.885-2.143-1.094-.207-.08-.376-.161-.376-.181s.266-.162.591-.315c2.778-1.306 5.713-1.759 8.07-1.244 1.638.357 3.692 1.286 5.641 2.55l.584.38.26-.097.26-.097.19-.72c.474-1.804 1.16-3.074 2.275-4.222C43.29 2.02 44.54 1.108 45.513.72c1.713-.682 3.296-.888 4.46-.582 1.432.378 2.964 1.854 4.178 4.026.197.352.198.355.054.311-.08-.024-.54-.059-1.022-.077-1.38-.053-2.086.12-2.67.654-.577.527-.875 1.326-.991 2.656-.077.885-.029 1.505.113 1.449.23-.09 1.84-.453 2.501-.565 1.721-.29 2.22-.33 4.117-.33 1.97-.001 2.718.067 4.657.422 1.657.304 5.018 1.129 4.935 1.21-.014.015-.381.093-.816.173-1.307.24-2.688.748-3.306 1.213-.358.27-.791.745-1.066 1.17-.258.4-.468.826-.407.826.017 0 .43.056.918.124 2.49.348 5.051 1.049 6.765 1.851 1.25.586 2.755 1.601 3.952 2.668.596.53 1.86 1.83 1.86 1.912 0 .027-.087.023-.193-.007s-.613-.128-1.127-.216c-1.075-.185-2.656-.232-3.249-.095s-1.206.332-1.189.379c.01.025.355.282.769.572.413.29.928.669 1.145.844l.394.317.478-.12a6.1 6.1 0 0 1 2.37-.138c.688.102 1.026.207 1.63.509.838.418 1.98 1.472 2.441 2.252.343.58.798 2.102.798 2.67 0 .194.107.299.511.5.165.082.45.23.631.328.46.249 1.647.874 2.435 1.284.363.188.823.43 1.022.538.4.216 1.396.74 2.404 1.264.363.19.823.432 1.022.54.198.108.667.355 1.042.548 1.213.628 1.827 1.111 2.105 1.656.325.636.421 1.587.222 2.18-.061.182-.213.48-.336.663-.584.863-1.39 1.246-2.5 1.188-.53-.028-.975-.201-1.615-.629-.164-.11-.321-.2-.347-.2-.027 0-.19-.095-.361-.21-.172-.117-.335-.211-.363-.211s-.163-.077-.3-.17a5 5 0 0 0-.433-.262c-.099-.05-.349-.19-.556-.31l-.75-.44c-.207-.12-.485-.278-.617-.35a7 7 0 0 1-.474-.292c-.129-.088-.258-.16-.288-.16s-.195-.094-.367-.21-.334-.21-.36-.21c-.027 0-.189-.095-.36-.21-.173-.117-.336-.211-.363-.211-.028 0-.168-.081-.312-.18-.145-.1-.285-.18-.313-.18-.027 0-.19-.096-.362-.211a3 3 0 0 0-.344-.21c-.017 0-.174-.09-.348-.2-.501-.318-.483-.32-.902.102a6 6 0 0 1-.518.474q-.261.173.126.25c.323.065 1.07.627 1.323.997.21.307 1.86 4.256 2.022 4.838.122.441.085.833-.175 1.833l-.07.27 3.05 7.544c1.68 4.15 3.117 7.7 3.196 7.89.197.48.245 1.208.112 1.727-.378 1.483-1.72 3.057-4.153 4.87-6.217 4.633-16.661 8.446-23.111 8.437-1.598-.002-2.52-.173-3.45-.638-.39-.195-.924-.666-1.134-1-.074-.117-.528-1.188-1.008-2.38l-.874-2.166-1.553-.016-1.552-.016-.43.407c-.855.808-1.677 1.242-2.952 1.559-1.262.313-2.605.192-3.967-.359-.605-.244-1.255-.676-1.81-1.2l-.43-.407-1.61.016-1.61.016-.76 1.893a233 233 0 0 0-.861 2.164c-.056.15-.243.457-.417.684-.61.797-1.696 1.258-3.343 1.418-.586.058-1.829.08-1.884.033m3.219-1.574c.477-.246 1.027-.855 1.347-1.492.18-.36 4.988-12.187 5.167-12.712a4 4 0 0 0 .182-.903c.024-.395.011-.47-.102-.614-.244-.308-.813-.356-1.353-.112-.446.2-.848.602-2.592 2.592-.953 1.087-1.743 1.967-1.756 1.954s-.048-.979-.078-2.147c-.068-2.63-.119-2.9-.6-3.17-.81-.456-1.554-.04-2.18 1.216-.262.527-5.012 12.155-5.246 12.844-.167.492-.157 1.282.02 1.567.232.373.664.461 1.137.232.35-.17.91-.785 1.173-1.29.12-.23.85-1.974 1.623-3.875l1.403-3.456.03 1.691c.028 1.556.04 1.702.145 1.819.21.232.546.147.976-.248.154-.141.713-.757 1.242-1.369.53-.612 1.028-1.18 1.108-1.262l.146-.15-.1.24c-1.536 3.738-2.814 6.954-2.89 7.278-.164.7-.023 1.273.354 1.442.221.1.563.07.844-.075m27.416-.082c.609-.07.772-.17.873-.534.167-.6.032-1.06-1.272-4.333-1.205-3.023-1.273-3.174-1.649-3.705-.524-.74-1.261-1.073-1.607-.727-.147.147-.28.498-.279.736.002.357.238 1.1.785 2.473.335.842.595 1.546.577 1.563-.069.069-.477-.12-.82-.378-1.324-.995-2.585-3.586-2.587-5.314 0-.491.022-.618.149-.873.082-.164.224-.343.316-.398.093-.055.431-.128.759-.165.692-.077.8-.124.915-.397.403-.966-.686-3.52-1.73-4.06-.358-.184-1.335-.117-1.914.133-.589.253-1.05.927-1.238 1.806-.142.667-.08 2.252.124 3.203.582 2.708 1.981 5.809 3.584 7.94 1.179 1.57 2.619 2.735 3.703 2.997.435.106.63.11 1.311.033m3.664-.62c.298-.297.31-1.021.033-1.846-.287-.851-5.072-12.736-5.237-13.006-.46-.753-.959-1.176-1.39-1.176-.29 0-.44.079-.548.289-.146.282-.172.673-.074 1.14.092.437 4.823 12.416 5.24 13.268.435.886 1.061 1.472 1.573 1.472.195 0 .299-.036.403-.14m3.447-.67c.975-.258 2.859-.848 3.093-.97a.9.9 0 0 0 .293-.28c.181-.287.132-1.268-.097-1.936-.46-1.337-1.224-2.314-1.81-2.314-.098 0-.581.135-1.075.3-.493.166-.928.301-.965.301-.046 0-.08-.305-.108-.947-.117-2.785-.404-7.978-.462-8.37-.083-.554-.36-1.407-.614-1.882-.22-.412-.647-.91-.891-1.035-.261-.135-.48-.108-1.243.155-.388.134-1.287.407-1.998.606-.71.2-1.368.391-1.46.426-.274.104-.374.364-.368.95.012 1.176.881 2.931 1.684 3.402.343.201.5.185 1.791-.185.526-.15.962-.267.968-.258.007.008.059 1.625.115 3.592.168 5.775.175 5.903.358 6.448.208.615.51 1.209.809 1.586.255.323.75.621 1.028.621.085 0 .513-.095.952-.21m-45.179-.69c1.359-.419 2.639-1.862 3.865-4.36.422-.858 3.431-8.131 3.719-8.988.36-1.071.194-1.902-.42-2.104-.56-.185-1.367.41-1.842 1.36-.083.167-.86 2.047-1.727 4.177-.866 2.13-1.677 4.076-1.802 4.324-.283.561-.61.944-.926 1.088-.32.146-.539.142-.864-.015-.494-.24-.62-.91-.334-1.767.055-.164.838-2.11 1.739-4.327.901-2.215 1.682-4.194 1.734-4.396.366-1.413-.33-2.375-1.306-1.803-.344.202-.635.541-.908 1.06-.348.664-3.261 7.874-3.643 9.018-.9 2.695-.987 4.567-.268 5.71.579.919 1.879 1.365 2.983 1.024m51.15-1.418c.425-.22.536-1.04.266-1.958-.081-.276-.756-2.03-1.5-3.896s-1.344-3.402-1.333-3.413c.01-.01.47.516 1.02 1.17 1.023 1.216 1.173 1.365 1.434 1.43.196.05.386-.181.438-.533.032-.213-.073-2.114-.182-3.285-.026-.271.231.322 1.443 3.336 1.599 3.975 1.773 4.328 2.298 4.661.366.233.63.235.857.008.322-.323.39-1.024.18-1.847-.132-.517-4.778-12.223-5.198-13.1-.579-1.205-1.047-1.511-1.638-1.071-.497.37-.528.735-.325 3.79.089 1.331.155 2.42.147 2.42-.007 0-.586-.656-1.287-1.457-1.972-2.258-2.243-2.51-2.697-2.51-.32 0-.732.231-.857.48-.142.284-.133.539.041 1.226.16.631 4.94 12.7 5.308 13.4.27.514.69.988 1.006 1.13.297.136.35.138.58.02m-57.55-.846c.475-.225 1.054-.966 1.395-1.785.257-.618.352-1.207.517-3.217.08-.97.154-1.769.164-1.773.55-.248.804-.427 1.283-.907.635-.636 1.043-1.23 1.53-2.227.65-1.33.949-2.431 1.003-3.697.03-.699.017-.881-.09-1.303-.279-1.105-.589-1.462-1.884-2.176a54 54 0 0 1-1.383-.787c-.543-.327-.811-.378-1.128-.214-.263.136-.63.59-.865 1.07-.235.482-4.993 12.166-5.207 12.787-.165.48-.232 1.385-.126 1.705s.328.556.637.674c.322.123.626.06.924-.19.413-.348.71-.995 2.713-5.916 1.097-2.694 2.018-4.96 2.047-5.036.052-.137.053-.137.639.174.843.448.887.5.887 1.035 0 .39-.026.488-.24.915-.33.655-.478.749-1.188.749-.625 0-.86.085-1.131.413-.38.459-.784 1.549-.896 2.42-.209 1.627-.723 6.1-.723 6.292 0 .362.165.831.34.97.19.149.498.159.781.024m29.976-.048c.93-.178 1.65-.565 2.35-1.267.702-.701 1.09-1.42 1.268-2.35.213-1.117.011-2.243-.584-3.254-.259-.441-1.067-1.25-1.508-1.509-1.011-.595-2.137-.796-3.254-.583-.93.178-1.649.565-2.35 1.267-.702.701-1.089 1.42-1.267 2.35-.214 1.117-.012 2.243.583 3.254.26.441 1.068 1.25 1.508 1.509 1.01.594 2.139.796 3.254.583m-6.784-2.182c-.077-.189-.382-1.48-.423-1.786l-.04-.298-.33.809c-.182.445-.382.937-.444 1.094l-.114.286h.697c.64 0 .693-.009.654-.105m12.958-.18c-.686-1.73-.726-1.814-.726-1.477 0 .172-.294 1.415-.392 1.657-.038.096.012.105.595.105h.636zM81.42 61.24c1.471-.634 1.99-3.744 1.246-7.452-.905-4.504-3.288-8.573-5.566-9.506-.454-.186-1.174-.19-1.568-.008-.623.286-1.158 1.07-1.421 2.082-.403 1.549-.302 3.871.266 6.116 1.005 3.967 3.204 7.582 5.228 8.592.744.372 1.248.42 1.815.176m-2.48-4.683c-1.014-.581-2.072-2.566-2.405-4.512a5.7 5.7 0 0 1-.07-1.262c.036-.846.16-1.258.479-1.576.202-.203.26-.227.53-.227.546 0 1.066.375 1.607 1.159.577.837 1.065 2 1.305 3.108.153.708.188 1.99.067 2.46-.245.952-.796 1.262-1.514.85M7.101 60.546c1.517-.393 3.032-2.008 4.283-4.564q1.854-3.786 1.85-7.393c-.002-1.761-.405-3.215-1.156-4.165-.3-.379-1.597-1.495-1.778-1.53-.401-.077-1.012.33-1.386.922-.163.259-4.965 11.99-5.197 12.696-.066.2-.15.6-.19.888-.06.45-.055.582.032.932.055.224.141.47.192.547.126.192 1.38 1.258 1.706 1.449.524.307 1.037.375 1.644.218m-.096-4.954-.283-.18.081-.196c.045-.107.686-1.683 1.424-3.502s1.36-3.327 1.382-3.353c.063-.073.518.413.659.704.168.347.3.998.302 1.482.004 1.55-.888 3.756-1.89 4.67-.632.579-1.166.698-1.675.375m32.767.787c.802-.666 1.533-1.023 2.672-1.301 1.172-.286 2.008-.255 3.32.124a5.6 5.6 0 0 1 1.876.924l.494.363-.103-.258c-.838-2.087-.89-2.203-1.005-2.239-.213-.066-1.097-.68-1.262-.875-.21-.25-.258-.358-1.165-2.598-.632-1.563-.787-1.896-.836-1.803-.033.062-.401.963-.818 2.001-.417 1.039-.827 2.006-.91 2.15-.178.303-.683.725-1.2 1.004l-.36.194-.518 1.274c-.284.7-.506 1.274-.492 1.274s.152-.105.307-.234m-.68-3.846c.608-.132 1.064-.338 1.303-.589.141-.15.733-1.46.681-1.51-.01-.012-.123.008-.25.044-.871.243-3.356.2-5.28-.09-1.191-.18-3.789-.737-4.629-.992-.1-.03-.464-.138-.811-.239a34 34 0 0 1-1.984-.633 34 34 0 0 0-1.085-.355c-.401-.114-4.26-1.677-4.926-1.995-.314-.15-.774-.367-1.021-.481a14 14 0 0 1-.571-.275 7 7 0 0 0-.361-.179 7 7 0 0 1-.355-.175c-.062-.035-.333-.18-.6-.32-.72-.38-1.07-.577-1.248-.702a.8.8 0 0 0-.194-.111c-.045 0-1.028-.579-1.33-.783-.132-.09-.632-.426-1.112-.747-1.944-1.303-3.359-2.54-4.418-3.865-.165-.206-.314-.376-.331-.376s-.146.297-.286.66c-.313.812-.325 1.065-.072 1.59.388.803 1.094 1.622 2.3 2.667.81.702 1.174.976 2.356 1.775 1.548 1.045 2.712 1.717 4.75 2.741 1.323.665 1.894.932 2.633 1.234.292.119.59.254.661.3.159.102 1.638.694 1.734.694.038 0 .4.135.807.3.406.166.774.301.817.3.044 0 .282.078.53.173s.653.233.901.307.573.171.722.218c.148.046.514.153.811.237l.842.239c.614.175 1.836.45 2.915.655.952.18 1.473.251 3.095.42.605.063 2.475-.023 3.006-.137m13.764-.002c1.304-.158 3.489-.594 4.689-.936 1.854-.53 2.077-.597 2.915-.884.38-.13.787-.26.903-.29.117-.03.51-.176.872-.326.363-.15.693-.273.733-.274.101 0 1.577-.589 1.74-.694.072-.046.37-.181.661-.3.74-.302 1.31-.57 2.632-1.234 2.039-1.024 3.203-1.696 4.75-2.741 1.55-1.046 2.39-1.724 3.348-2.702.697-.71.996-1.102 1.282-1.68.317-.643.302-.824-.161-1.964-.077-.19-.154-.346-.171-.346s-.152.153-.3.34c-1.063 1.34-2.473 2.577-4.448 3.901-.48.321-.98.658-1.112.747-.442.3-1.833 1.1-2.771 1.595-.268.142-.539.286-.601.321a7 7 0 0 1-.355.175 7 7 0 0 0-.36.179c-.066.037-.323.16-.571.275-.248.114-.708.33-1.022.481-.663.317-4.522 1.88-4.926 1.995-.15.043-.584.186-.965.317a62 62 0 0 1-2.915.911c-1.247.37-3.98.918-5.443 1.09-1.692.2-3.67.18-4.607-.045-.126-.03-.118.005.14.65.15.376.345.76.433.854.31.333 1.215.633 2.174.723.563.052 2.532-.026 3.456-.138m-12.715-3.804c1.458-.219 2.113-.64 2.023-1.297-.208-1.516-2.879-3.969-6.889-6.326-.963-.566-1.7-.957-3.005-1.595a95 95 0 0 1-1.323-.656 13 13 0 0 0-.886-.386 22 22 0 0 1-1.172-.513 12 12 0 0 0-1.128-.459 26 26 0 0 1-1.158-.423c-.323-.129-.62-.234-.661-.234-.04 0-.277-.077-.525-.171a18 18 0 0 0-.901-.311c-.248-.077-.6-.186-.782-.244a20 20 0 0 0-.6-.177c-.15-.04-.393-.11-.542-.154s-.554-.15-.901-.234a61 61 0 0 1-.842-.211 22 22 0 0 0-.841-.186c-2.005-.41-3.089-.541-4.689-.568-1.745-.03-2.597.108-3.262.527-.36.227-.464.374-.464.658 0 1.416 2.774 4.045 6.728 6.376 1.642.968 4.074 2.198 5.5 2.782.296.121.593.256.661.3.153.098 1.633.69 1.727.69.037 0 .4.134.807.3.406.165.776.3.822.3s.257.07.47.157c.211.087.507.193.656.236.148.044.46.137.69.208a38 38 0 0 0 2.345.662c1.244.317 1.376.348 1.623.389.132.022.47.09.751.15.8.175 2.006.34 3.246.443.485.04 2.18.019 2.522-.033m10.972-.072c.983-.12 1.517-.201 2.014-.31.215-.046.593-.126.841-.177.658-.134 1.236-.27 1.713-.403.232-.064.61-.168.842-.23.42-.114.648-.18 1.442-.424.232-.07.543-.163.692-.205a8 8 0 0 0 .656-.234c.213-.086.424-.157.47-.157s.415-.135.821-.3c.407-.166.77-.3.807-.3.094 0 1.574-.592 1.727-.69.068-.044.366-.179.661-.3.739-.302 1.304-.568 2.64-1.239 2.038-1.024 3.203-1.696 4.75-2.741 1.24-.837 1.534-1.063 2.5-1.914 1.441-1.27 2.241-2.35 2.323-3.137.04-.386-.042-.529-.445-.783-.67-.42-1.519-.558-3.266-.53-1.6.028-2.684.16-4.688.57-.347.07-.726.154-.842.185a61 61 0 0 1-.841.21 27 27 0 0 0-1.443.39c-.149.04-.433.124-.631.186l-.781.24c-.232.07-.624.206-.872.302s-.484.174-.525.174c-.04 0-.338.105-.66.234-.324.128-.845.319-1.16.423-.313.105-.82.311-1.127.459-.306.147-.834.378-1.172.513s-.737.308-.886.386a95 95 0 0 1-1.322.656c-1.302.636-2.039 1.027-3.006 1.595-3.974 2.332-6.684 4.818-6.889 6.321-.09.67.495 1.043 2.05 1.309.458.078 2.726.028 3.607-.079m-6.663-3.573c.07-.022.33-.283.578-.58.523-.629 1.552-1.644 2.028-2.002.182-.136.52-.398.751-.582.536-.425 2.892-1.993 3.706-2.465l.62-.361.498-.781c.633-.995 1.609-2.957 1.972-3.968.356-.989.654-2.16.782-3.074.13-.927.091-2.19-.087-2.864-.353-1.335-1.205-2.213-2.334-2.406l-.378-.065v-.999c0-1.556-.235-2.624-.816-3.718-.61-1.15-1.429-1.87-2.58-2.27-.437-.152-.555-.167-1.293-.164-.7.003-.884.026-1.339.164-.29.088-.708.241-.928.341-.533.242-1.453.864-1.96 1.327l-.412.374-.244-.295c-.5-.606-1.436-1.466-2.014-1.851-.687-.457-1.181-.694-1.921-.918-.456-.138-.64-.16-1.34-.164-.737-.003-.855.012-1.292.164-1.151.4-1.97 1.12-2.58 2.27-.534 1.004-.816 2.181-.816 3.4v.68l-.225.001c-.124.001-.41.04-.635.088-2.963.628-3.68 5.985-1.568 11.722l.266.722.465.22c.256.122.762.36 1.126.53s.715.339.781.376.535.279 1.041.538c.902.462 2.569 1.41 3.047 1.733.132.09.632.425 1.112.745.479.321 1.074.745 1.322.943s.643.506.877.686c.47.36 1.883 1.786 2.162 2.182.104.149.25.274.357.306.207.063 1.08.073 1.27.015M42.253 39.9c-2.594-.25-5.42-1.153-7.092-2.266-.62-.413-1.31-1.057-1.667-1.557-1.257-1.762-1.65-4.768-1.069-8.196.2-1.181.182-1.144.39-.815.433.682 1.55 1.66 2.57 2.248l.378.219-.048.631c-.164 2.155.115 3.668 1.026 5.559.378.784 1.047 1.927 1.099 1.876.015-.015-.026-.308-.092-.65-.42-2.192-.448-4.642-.072-6.263a1 1 0 0 1 .081-.257c.015-.015.32.054.677.155 1.724.484 3.325.714 5.317.764 1.29.032 2.27-.013 3.09-.142l.235-.038-.037 1.077c-.042 1.216-.149 2.008-.41 3.022-.204.796-.698 2.296-.924 2.807-.084.19-.14.357-.125.372.077.076 1.356-1.456 1.873-2.244 1.039-1.582 1.492-2.956 1.676-5.077l.04-.453.401-.14c1.142-.399 2.523-1.203 3.35-1.953.247-.223.448-.391.448-.374s-.053.446-.118.952c-.489 3.808-1.685 6.98-3.228 8.556-1.384 1.415-3.451 2.15-6.24 2.218a16 16 0 0 1-1.53-.031m1.689-9.27c-.281-.135-1.08-1.519-.952-1.647.062-.062.517.231.979.631.624.542.684.677.416.944-.162.162-.233.174-.443.072m-3.23-.132c-.267-.267-.207-.402.417-.944.462-.4.917-.694.979-.632.135.136-.677 1.518-.97 1.652-.218.1-.257.093-.425-.076m4.181-2.237c-1.15-.598 1-3.074 3.396-3.91.56-.196 1.372-.252 1.64-.114.698.362.225 1.495-1.077 2.58-1.06.883-2.327 1.48-3.238 1.527-.412.02-.551.005-.72-.083m1.428-.64c.603-.419.583-1.062-.034-1.062-.691 0-1.343.851-.898 1.172.196.142.645.088.932-.11m-7.048.41c-1.876-.513-4.057-2.37-4.057-3.454 0-.531.256-.694 1.018-.646 1.13.072 2.618.851 3.7 1.94.975.98 1.23 1.846.631 2.145-.255.127-.856.134-1.292.015m.798-.544c.442-.31-.211-1.169-.889-1.169q-.478.001-.48.385c.002.575.918 1.1 1.37.784M3.411 37.31c.134-.078 2.28-1.588 4.77-3.354l4.527-3.21-.318-.637a7 7 0 0 1-.475-1.246l-.157-.61-.336.215c-2.592 1.658-9.477 6.146-9.665 6.3-.363.297-.532.677-.532 1.199 0 .686.357 1.219.97 1.447.334.124.911.075 1.216-.104m84.184-1.219c.518-.303.823-1 .692-1.585-.082-.369-.31-.754-.554-.936-.19-.143-.971-.573-2.328-1.285l-1.773-.933-2.254-1.187-1.593-.84c-1.845-.985-1.706-.924-1.735-.771-.014.076-.058.35-.097.61-.068.456-.141.757-.336 1.392-.05.165-.106.356-.124.425-.028.11.43.393 3.985 2.457a438 438 0 0 1 4.318 2.526c.653.42 1.231.46 1.8.127M74.861 32.17c.43-.145 1.073-.808 1.363-1.403.822-1.69.839-4.077.04-5.75-.484-1.015-1.478-1.892-2.586-2.281-.365-.129-.577-.16-1.196-.178-1.451-.042-2.599.351-3.916 1.34-1.404 1.056-2.272 2.427-2.274 3.593 0 .477.083.754.32 1.066.373.491 1.183.766 1.999.679.211-.023.403-.04.427-.04.023.002.087.186.142.411.135.553.207.717.46 1.048.248.326.648.565 1.046.623.35.052.928-.09 1.36-.333l.314-.178.244.386c.592.938 1.406 1.304 2.257 1.017m-58.978-1.2c.353-.12.885-.597 1.187-1.064a5 5 0 0 0 .246-.408c.01-.033.199.022.418.121 1.462.663 2.613.042 2.808-1.513l.038-.3.69-.011c.774-.013 1.064-.104 1.468-.458.33-.29.472-.611.503-1.144.092-1.535-1.41-3.457-3.5-4.477-.93-.454-1.533-.589-2.467-.553-.602.023-.81.058-1.248.21-.29.1-.68.274-.87.385-.754.446-1.55 1.456-1.935 2.456-.482 1.25-.552 2.98-.177 4.347.213.773.56 1.404 1.038 1.88.603.602 1.131.757 1.8.529m50.792-6.981c.253-.29.594-.62.758-.736s.291-.233.283-.26-.352-.224-.765-.44l-1.862-.981a4401 4401 0 0 0-6.1-3.218l-7.694-4.057c-2.537-1.332-2.351-1.216-2.5-1.562-.246-.572-.987-1.114-1.636-1.197-.652-.085-1.096.106-1.272.546-.171.428-.009.905.459 1.347.47.445.894.629 1.475.64.27.005.416.046.648.184l.632.369.75.437 4.479 2.602c4.76 2.766 4.086 2.373 8.355 4.863 1.868 1.09 3.426 1.983 3.462 1.985s.274-.233.528-.522m-35.242-6.493c7.721-5.462 7.908-5.59 8.237-5.63.972-.117 1.857-.958 1.857-1.761 0-.83-.905-1.157-1.863-.675-.506.254-.983.83-1.103 1.328-.032.132-1.426 1.058-8.32 5.522l-8.282 5.363.723.74c.397.407.752.731.787.72.036-.01 3.62-2.534 7.964-5.607"/></g></svg>