<svg xmlns="http://www.w3.org/2000/svg" xmlns:xlink="http://www.w3.org/1999/xlink" viewBox="0 0 96 96"><defs><linearGradient id="b" x1="50%" x2="50%" y1="0%" y2="100%"><stop offset="0%" stop-color="#e24f59"/><stop offset="100%" stop-color="#c1272d"/></linearGradient><linearGradient id="c" x1="50%" x2="50%" y1="0%" y2="100%"><stop offset="0%" stop-color="#3a2d9d"/><stop offset="100%" stop-color="#1b1464"/></linearGradient><linearGradient id="d" x1="50%" x2="50%" y1="0%" y2="100%"><stop offset="0%" stop-color="#9f59c4"/><stop offset="100%" stop-color="#662d91"/></linearGradient><linearGradient id="e" x1="50%" x2="50%" y1="0%" y2="100%"><stop offset="0%" stop-color="#00a168"/><stop offset="100%" stop-color="#006837"/></linearGradient><linearGradient id="f" x1="50%" x2="50%" y1="0%" y2="100%"><stop offset="0%" stop-color="red"/><stop offset="100%" stop-color="red"/></linearGradient><linearGradient id="g" x1="50%" x2="50%" y1="0%" y2="100%"><stop offset="0%" stop-color="#fcc540"/><stop offset="100%" stop-color="#f7931e"/></linearGradient><filter id="a" width="128.6%" height="125.7%" x="-14.3%" y="-12.8%" filterUnits="objectBoundingBox"><feOffset dy="2" in="SourceAlpha" result="shadowOffsetOuter1"/><feGaussianBlur in="shadowOffsetOuter1" result="shadowBlurOuter1" stdDeviation="2"/><feColorMatrix in="shadowBlurOuter1" result="shadowMatrixOuter1" values="0 0 0 0 0 0 0 0 0 0 0 0 0 0 0 0 0 0 0.2 0"/><feMerge><feMergeNode in="shadowMatrixOuter1"/><feMergeNode in="SourceGraphic"/></feMerge></filter></defs><g fill="none" fill-rule="evenodd" filter="url(#a)" transform="translate(6 -.415)"><path fill="#42210b" d="M62.666 78.727a5.5 5.5 0 1 1 0 11 5.5 5.5 0 0 1 0-11M7.389 61.736a5.5 5.5 0 1 1 0 11 5.5 5.5 0 0 1 0-11M77.5 59.03a5.5 5.5 0 1 1 0 11 5.5 5.5 0 0 1 0-11m-72-23.393a5.5 5.5 0 1 1 0 11 5.5 5.5 0 0 1 0-11m72.856 0a5.5 5.5 0 1 1 0 11 5.5 5.5 0 0 1 0-11M16.5 18.415a5.5 5.5 0 1 1 0 11 5.5 5.5 0 0 1 0-11"/><ellipse cx="52.463" cy="16.676" fill="#42210b" rx="18.771" ry="11.699" transform="rotate(17 52.463 16.676)"/><circle cx="42" cy="52.415" r="39" fill="#d8d8d8"/><circle cx="42" cy="52.415" r="41" fill="url(#b)"/><path fill="#42210b" fill-rule="nonzero" d="M42 11.415c22.644 0 41 18.356 41 41s-18.356 41-41 41-41-18.357-41-41 18.356-41 41-41m0 2c-21.54 0-39 17.46-39 39s17.46 39 39 39 39-17.461 39-39-17.46-39-39-39"/><path fill="#42210b" d="m52.215 13.395 3.804 1.234-25.064 77.28a41 41 0 0 1-3.795-1.262z"/><circle cx="29.177" cy="36.075" r="5.5" fill="url(#c)"/><circle cx="52.557" cy="65.877" r="5.5" fill="url(#d)"/><circle cx="70.625" cy="49.441" r="3.366" fill="url(#e)"/><circle cx="14.041" cy="54.258" r="5.209" fill="url(#f)"/><circle cx="25.823" cy="69.974" r="7.291" fill="url(#g)"/></g></svg>