<svg xmlns="http://www.w3.org/2000/svg" xmlns:xlink="http://www.w3.org/1999/xlink" viewBox="0 0 96 96"><defs><linearGradient id="b" x1="50%" x2="50%" y1="0%" y2="100%"><stop offset="0%" stop-color="#4dbfff"/><stop offset="100%" stop-color="#1c66ee"/></linearGradient><filter id="a" width="130.8%" height="130.8%" x="-15.4%" y="-15.4%" filterUnits="objectBoundingBox"><feOffset dy="2" in="SourceAlpha" result="shadowOffsetOuter1"/><feGaussianBlur in="shadowOffsetOuter1" result="shadowBlurOuter1" stdDeviation="2"/><feColorMatrix in="shadowBlurOuter1" result="shadowMatrixOuter1" values="0 0 0 0 0 0 0 0 0 0 0 0 0 0 0 0 0 0 0.2 0"/><feMerge><feMergeNode in="shadowMatrixOuter1"/><feMergeNode in="SourceGraphic"/></feMerge></filter></defs><g fill="none" fill-rule="evenodd" filter="url(#a)" transform="translate(9 9)"><circle cx="39" cy="39" r="39" fill="url(#b)" fill-rule="nonzero"/><path fill="#fefefe" d="m51.432 53.007-.775 7.003-9.67 4.68a1 1 0 0 1-1.387-1.21l2.234-6.875h3.129zM15.296 48.17l7.004 1.934-.85 2.58-7.67 3.02a1 1 0 0 1-1.278-1.342zm4.646-9.105 42.308 6.611-17.287 9.603L5.642 43.35a1 1 0 0 1 .127-1.944zm48.05-19.366a2 2 0 0 1-.033.536l-4.694 23.45-41.814-5.643 3.423-15.807a2 2 0 0 1 1.811-1.572l39.17-2.815a2 2 0 0 1 2.138 1.851"/></g></svg>