<svg xmlns="http://www.w3.org/2000/svg" xmlns:xlink="http://www.w3.org/1999/xlink" viewBox="0 0 96 96"><defs><filter id="a" width="131.6%" height="141.4%" x="-15.8%" y="-20.7%" filterUnits="objectBoundingBox"><feOffset dy="2" in="SourceAlpha" result="shadowOffsetOuter1"/><feGaussianBlur in="shadowOffsetOuter1" result="shadowBlurOuter1" stdDeviation="2"/><feColorMatrix in="shadowBlurOuter1" result="shadowMatrixOuter1" values="0 0 0 0 0 0 0 0 0 0 0 0 0 0 0 0 0 0 0.2 0"/><feMerge><feMergeNode in="shadowMatrixOuter1"/><feMergeNode in="SourceGraphic"/></feMerge></filter></defs><g fill="none" fill-rule="evenodd" filter="url(#a)" transform="translate(12 15)"><path fill="#8ae234" stroke="#2a5700" d="M7.5 29.5h35v28h-35z"/><path fill="#778500" d="M12 34h26v16H12z"/><path fill="#72746e" d="M25 30h2v6h-2zm-4 0h2v6h-2zm-5 0h2v6h-2zm-4 0h2v6h-2z"/><path fill="#72746e" d="M8 34h7v2H8zm0 4h7v1H8zm0 4h7v1H8z"/><path fill="#efe381" d="M15 50h1v7h-1zm3 0h3v7h-3zm5 0h2v7h-2zm4 0h2v7h-2zm3 0h2v7h-2zm5 0h1v7h-1z"/><path fill="#63585e" d="M7 0v4h4v10h24V4h4V0h4v14h10v-1h-2v-2h8v2h-4v1h21v11h-8v4h-4v4h-4v-4H50v7h-1v3h-3v4h-3V25H7v18H4v-4H2v-3H0V14h3V0z"/><path fill="#d8d8d8" d="M7 25h36v4H7z"/><path fill="#d8d8d8" d="M13 22v4h-2v-4zm4 0v4h-2v-4zm5 0v4h-4v-4zm4 0v4h-3v-4zm3 0v4h-2v-4zm4 0v4h-2v-4zm3 0v4h-2v-4zm4 0v4h-2v-4z"/><path fill="#bcbdb9" d="M15 36h14v7H15z"/></g></svg>