<svg xmlns="http://www.w3.org/2000/svg" viewBox="0 0 64 64"><g transform="translate(0 -988.362)"><circle cx="32" cy="1021.362" r="28" opacity=".2"/><circle cx="32" cy="1020.362" r="28" fill="#e4e4e4"/><path fill="#fff" d="M32 992.362a28 28 0 0 0-28 28 28 28 0 0 0 .021.586A28 28 0 0 1 32 993.362a28 28 0 0 1 27.979 27.414l.021-.414a28 28 0 0 0-28-28" opacity=".2"/><rect width="28" height="6" x="34" y="1017.36" fill="#469961" ry="3"/><rect width="28" height="6" x="2" y="1008.36" fill="#438f96" ry="3"/><rect width="28" height="6" x="2" y="1026.36" fill="#469961" ry="3"/><path fill="#3f3f3f" d="M19 1035.362c2.113-6.096 3.034-10.427 3-15-.033-4.428-.954-9.096-3-15 19.385 0 28 15 28 15s-8.615 15-28 15"/></g></svg>