<svg xmlns="http://www.w3.org/2000/svg" xmlns:xlink="http://www.w3.org/1999/xlink" viewBox="0 0 96 96"><defs><path id="b" d="M4 0H0v66h4c1.104 0 2-.87 2-1.941V1.94C6 .87 5.104 0 4 0"/><path id="d" d="M5.865 0h-3.91C.875 0 0 .863 0 1.926v61.623c0 1.063.876 1.926 1.955 1.926h3.91z"/><filter id="a" width="128.6%" height="135.3%" x="-14.3%" y="-17.6%" filterUnits="objectBoundingBox"><feOffset dy="2" in="SourceAlpha" result="shadowOffsetOuter1"/><feGaussianBlur in="shadowOffsetOuter1" result="shadowBlurOuter1" stdDeviation="2"/><feColorMatrix in="shadowBlurOuter1" result="shadowMatrixOuter1" values="0 0 0 0 0 0 0 0 0 0 0 0 0 0 0 0 0 0 0.2 0"/><feMerge><feMergeNode in="shadowMatrixOuter1"/><feMergeNode in="SourceGraphic"/></feMerge></filter></defs><g fill="none" fill-rule="evenodd" filter="url(#a)" transform="translate(6 14)"><path fill="#f7f8f8" fill-rule="nonzero" d="M83 65.059A1.95 1.95 0 0 1 81.048 67H2.952A1.95 1.95 0 0 1 1 65.06V2.941c0-1.071.875-1.94 1.952-1.94h78.096A1.946 1.946 0 0 1 83 2.94z"/><path fill="#d8d8d8" fill-rule="nonzero" d="M47.031 38.417 83 4.015c0-.551-37.295 32.822-37.295 32.822-2.627 1.786-6.02 1.363-8.184-.257C37.521 36.58 1 3.456 1 4.007l36.157 34.774L8.73 64l29.903-24.14c2.092 1.176 4.223 1.48 6.887-.183l29.965 24.066z" opacity=".5"/><g transform="translate(77 1)"><mask id="c" fill="#fff"><use xlink:href="#b"/></mask><g fill-rule="nonzero" mask="url(#c)"><path fill="#ff8080" d="M20.808-6.244 18.044-9.01a1.953 1.953 0 0 0-2.764 0l-44.236 44.234a1.953 1.953 0 0 0 0 2.764l2.764 2.765z"/><path fill="#80b3ff" d="M27.807 3.23 25.043.462a1.953 1.953 0 0 0-2.765 0l-44.235 44.236a1.953 1.953 0 0 0 0 2.764l2.764 2.764z"/><path fill="#ff8080" d="m29.807 17.7-2.764-2.765a1.953 1.953 0 0 0-2.765 0L-19.957 59.17a1.953 1.953 0 0 0 0 2.764l2.764 2.764z"/><path fill="#80b3ff" d="m32.813 31.276-2.764-2.764a1.953 1.953 0 0 0-2.764 0L-16.95 72.746a1.953 1.953 0 0 0 0 2.764l2.764 2.764z"/></g></g><g transform="translate(1 1)"><mask id="e" fill="#fff"><use xlink:href="#d"/></mask><g fill-rule="nonzero" mask="url(#e)"><path fill="#ff8080" d="M26.55-11.478 23.784-14.2a1.974 1.974 0 0 0-2.764 0l-44.234 43.573a1.903 1.903 0 0 0 0 2.723l2.764 2.723z"/><path fill="#80b3ff" d="M33.55-2.147 30.785-4.87a1.974 1.974 0 0 0-2.764 0l-44.235 43.573a1.903 1.903 0 0 0 0 2.723l2.764 2.723z"/><path fill="#ff8080" d="m35.55 12.109-2.765-2.723a1.974 1.974 0 0 0-2.764 0l-44.236 43.573a1.903 1.903 0 0 0 0 2.723l2.765 2.723z"/><path fill="#80b3ff" d="m38.556 25.483-2.764-2.723a1.974 1.974 0 0 0-2.764 0l-44.236 43.574a1.903 1.903 0 0 0 0 2.723l2.764 2.723z"/></g></g><path fill="#fff" fill-rule="nonzero" d="M47.283 35.83c-4.49 4.123-7.422 3.513-11.301-.092L4.629 6.818.733 3.178c0-1.08.876-1.955 1.955-1.955h78.196c1.08 0 1.955.876 1.955 1.955z"/></g></svg>