<svg xmlns="http://www.w3.org/2000/svg" xmlns:xlink="http://www.w3.org/1999/xlink" viewBox="0 0 96 96"><defs><linearGradient id="b" x1="50%" x2="50%" y1="0%" y2="100%"><stop offset="0%" stop-color="#f29718"/><stop offset="100%" stop-color="#e15e0a"/></linearGradient><linearGradient id="c" x1="50%" x2="50%" y1="0%" y2="100%"><stop offset="0%" stop-color="#faf300"/><stop offset="100%" stop-color="#f3ed00"/></linearGradient><filter id="a" width="131.6%" height="131.6%" x="-15.8%" y="-15.8%" filterUnits="objectBoundingBox"><feOffset dy="2" in="SourceAlpha" result="shadowOffsetOuter1"/><feGaussianBlur in="shadowOffsetOuter1" result="shadowBlurOuter1" stdDeviation="2"/><feColorMatrix in="shadowBlurOuter1" result="shadowMatrixOuter1" values="0 0 0 0 0 0 0 0 0 0 0 0 0 0 0 0 0 0 0.2 0"/><feMerge><feMergeNode in="shadowMatrixOuter1"/><feMergeNode in="SourceGraphic"/></feMerge></filter></defs><g fill="none" filter="url(#a)" transform="translate(10 10)"><rect width="76" height="76" fill="url(#b)" rx="10"/><path fill="url(#c)" d="m48.875 23.822 5.7 3.991V9.57L51.726 9l-1.14 2.85s-16.533 0-22.804 8.552c-6.27 0-5.7 3.99-5.7 6.841s-1.71 5.13-5.131 5.13c-10.832 1.141 2.28 11.973 2.28 11.973s10.262 18.813 27.934 11.402c1.71 7.41-3.963 9.328-3.963 9.328-.96.515-.928 1.287.108 1.74L50.585 70s0-6.271 4.56-10.262c0-3.99-1.71-7.41 1.711-15.962l-6.841-2.28-1.71 9.69s-11.972 2.281-15.393-6.27c-1.71-3.42 1.71-3.42 2.85-3.99 0 0 5.702-1.141 0-5.702 0 0 7.982-.57 1.71-3.99-6.27-3.42-2.85-7.412-2.85-7.412s3.421-7.98 13.683-3.99c0 .57.57 3.99.57 3.99"/></g></svg>