<svg xmlns="http://www.w3.org/2000/svg" xmlns:xlink="http://www.w3.org/1999/xlink" viewBox="0 0 96 96"><defs><linearGradient id="b" x1="0%" x2="100%" y1="47.586%" y2="47.586%"><stop offset="0%" stop-color="#ff8d31"/><stop offset="100%" stop-color="#f86f00"/></linearGradient><filter id="a" width="134.3%" height="126.7%" x="-17.1%" y="-13.3%" filterUnits="objectBoundingBox"><feOffset dy="2" in="SourceAlpha" result="shadowOffsetOuter1"/><feGaussianBlur in="shadowOffsetOuter1" result="shadowBlurOuter1" stdDeviation="2"/><feColorMatrix in="shadowBlurOuter1" result="shadowMatrixOuter1" values="0 0 0 0 0 0 0 0 0 0 0 0 0 0 0 0 0 0 0.2 0"/><feMerge><feMergeNode in="shadowMatrixOuter1"/><feMergeNode in="SourceGraphic"/></feMerge></filter></defs><g fill="none" fill-rule="evenodd" filter="url(#a)" transform="translate(13 3)"><rect width="90" height="70" x="-10" y="10" fill="url(#b)" rx="18" transform="rotate(90 35 45)"/><path fill="#fefefe" d="M37.75 44.716c-2.686 8.35-6.255 15.864-13.802 21.496-1.331-1.543-2.874-2.85-3.743-4.51-.562-1.074-.709-3.078-.069-3.958 5.013-6.89 7.517-14.438 6.752-22.976-.25-2.78.97-3.696 3.682-3.578 4.08.177 8.176.148 12.258.01 2.481-.084 3.33.961 3.27 3.314-.169 6.622.742 13.03 4.186 18.71-.1.287-.106.453-.183.5-2.435 1.452-4.877 2.893-7.318 4.335-1.1-2.128-2.405-4.18-3.246-6.407-.837-2.221-1.21-4.617-1.786-6.936M24.648 20.473c-.084-3.003 1.26-5.234 3.94-6.442 2.605-1.176 5.37-1.168 7.496.942 1.812 1.798 3.732 2.154 6.184 2.385 1.817.172 4.21 1.81 4.965 3.436.677 1.455.094 4.455-1.078 5.554-1.31 1.23-4.283 1.992-5.858 1.337-2.516-1.047-4.56-.862-6.992-.268-4.675 1.144-8.667-2.178-8.657-6.944"/><path fill="#fff" fill-rule="nonzero" d="M16.59 81.5v-1.598h-1.155q-.29 0-.442-.153-.136-.153-.136-.476v-4.964h1.955v-1.598h-1.955v-2.839l-1.938.799v2.04h-1.581v1.598h1.58v4.964q0 1.054.51 1.615.544.612 1.684.612zm4.091 0v-4.658q0-1.122.697-1.802.596-.595 1.377-.595.646 0 1.258.187v-1.938q-.442-.22-1.105-.221-.816 0-1.394.476-.476.34-.833 1.02v-1.258h-1.92V81.5zm6.25-9.809a1.3 1.3 0 0 0 .935-.357q.39-.357.39-.935 0-.544-.373-.918-.375-.357-.952-.357-.545 0-.935.357-.374.357-.374.918t.374.935q.39.357.935.357M27.9 81.5v-8.789h-1.938V81.5zm7.354.238q1.938 0 3.06-1.377 1.02-1.275 1.02-3.298 0-1.92-1.003-3.213-1.088-1.377-2.975-1.377-1.547 0-2.618 1.445v-4.794H30.8V81.5h1.802v-.935q.918 1.173 2.652 1.173m-.289-1.564q-1.139 0-1.75-.901-.545-.799-.545-2.108v-.136q0-1.428.68-2.227.612-.765 1.547-.765 1.31 0 1.921.867.527.765.527 2.159 0 1.41-.493 2.193-.612.918-1.887.918m8.68 1.326V69.124h-1.937V81.5zm6.54.238q1.733 0 2.923-1.003a3.95 3.95 0 0 0 1.224-2.057h-1.938q-.356.748-.782 1.071-.56.408-1.445.408-1.053 0-1.615-.646-.561-.63-.663-1.87h6.58q0-2.362-1.055-3.706-1.139-1.462-3.315-1.462-1.971 0-3.094 1.343-1.155 1.309-1.156 3.281 0 2.175 1.224 3.434 1.157 1.207 3.111 1.207m2.26-5.559h-4.522q.188-1.055.714-1.581.544-.544 1.513-.544 2.04 0 2.295 2.125m5.978 5.321v-4.658q0-1.122.697-1.802.595-.595 1.377-.595.645 0 1.258.187v-1.938q-.442-.22-1.105-.221-.816 0-1.394.476-.476.34-.833 1.02v-1.258h-1.921V81.5z"/></g></svg>