<svg xmlns="http://www.w3.org/2000/svg" viewBox="0 0 64 64"><path d="M32.652 4v.003a6.468 6.48 0 0 0-3.387.863l-19.03 11.01A6.468 6.48 0 0 0 7 21.49v22.02a6.468 6.48 0 0 0 3.235 5.611l19.03 11.01a6.468 6.48 0 0 0 6.47 0l19.03-11.01A6.468 6.48 0 0 0 58 43.511V21.49a6.468 6.48 0 0 0-3.235-5.614l-19.03-11.01A6.468 6.48 0 0 0 32.652 4" opacity=".2"/><path fill="#e4e4e4" d="M32.652 3v.003a6.468 6.48 0 0 0-3.387.863l-19.03 11.01A6.468 6.48 0 0 0 7 20.49v22.02a6.468 6.48 0 0 0 3.235 5.611l19.03 11.01a6.468 6.48 0 0 0 6.47 0l19.03-11.01A6.468 6.48 0 0 0 58 42.511V20.49a6.468 6.48 0 0 0-3.235-5.614l-19.03-11.01A6.468 6.48 0 0 0 32.652 3"/><path d="m32.5 52.311 16.014-9.245-6.108-3.55-6.965 4.132c-.248.166-.496 0-.496-.33v-8.585c0-.247.165-.495.33-.578l8.213-4.792c.248-.165.502 0 .496.33v7.41L50 40.508V21.934L32.5 32.087Zm-2.923-8.663-6.936-4.132-6.08 3.55L32.5 52.31V32.087L15 21.934v18.49-.082.082l5.989-3.403v-7.41c0-.248.328-.413.492-.33l8.178 4.792c.246.165.328.33.328.578v8.585c.083.33-.164.578-.41.412" opacity=".1"/><path fill="#3f3f3f" d="m30.5 12.557-15 8.666v17.341l4.988-2.834v-7.119c0-.345.216-.589.428-.716.212-.128.47-.223.791-.061l.014.008 8.203 4.808.012.008c.33.221.552.632.552.992v8.586c.036.271-.028.547-.228.746-.23.23-.678.272-.961.082l-6.66-3.968-5.086 2.97L32.5 50.732l15.016-8.668-5.108-2.968-6.69 3.968c-.251.168-.63.197-.894.022-.263-.175-.379-.477-.379-.768v-8.584c0-.47.204-.823.608-1.025l8.158-4.762c.254-.169.631-.196.896-.021.266.175.383.482.377.777v7.11L49.5 38.65V21.223l-15-8.666v5.941l6.105 3.496.014.01a.89.89 0 0 1 .408.736.81.81 0 0 1-.527.733l.092-.041-7.43 4.293.027-.018c-.44.293-.935.144-1.16.031l-.013-.006-7.444-4.3.092.04c-.722-.24-.722-1.286 0-1.527l-.096.043 5.932-3.486z"/><path fill="#313131" d="m32.5 51.311 16.014-9.245-6.108-3.55-6.965 4.133c-.248.165-.496 0-.496-.33v-8.585c0-.248.165-.496.33-.578l8.213-4.793c.248-.165.502 0 .496.33v7.411L50 39.507V20.934L32.5 31.087Z"/><path fill="#414141" d="m29.577 42.649-6.936-4.132-6.08 3.549L32.5 51.311V31.087L15 20.934v18.49-.082.083l5.989-3.404v-7.41c0-.248.328-.413.492-.33l8.178 4.792c.246.165.328.33.328.578v8.585c.083.33-.164.578-.41.413"/><path d="M34 12.688v7.1l6.342 3.631c.248.166.248.496 0 .578l-7.43 4.293c-.247.165-.495.082-.66 0l-7.429-4.293c-.248-.082-.248-.495 0-.578L31 19.787v-7.099l-16 9.246 17.5 10.153L50 21.934Z" opacity=".1"/><path fill="#565656" d="M34 11.689v7.099l6.342 3.632c.248.165.248.495 0 .578l-7.43 4.292c-.247.165-.495.083-.66 0l-7.429-4.292c-.248-.083-.248-.496 0-.578L31 18.788v-7.1l-16 9.246 17.5 10.153L50 20.934Z"/><path fill="#fff" d="M32.652 3v.002a6.468 6.48 0 0 0-3.386.863l-19.032 11.01A6.468 6.48 0 0 0 7 20.49v1a6.468 6.48 0 0 1 3.234-5.615l19.032-11.01a6.468 6.48 0 0 1 3.386-.863V4a6.468 6.48 0 0 1 3.082.865l19.032 11.01A6.468 6.48 0 0 1 58 21.49v-1a6.468 6.48 0 0 0-3.234-5.615L35.734 3.865A6.468 6.48 0 0 0 32.652 3" opacity=".2"/></svg>