<svg xmlns="http://www.w3.org/2000/svg" viewBox="0 0 64 64"><path d="M4 43.9v11.322A2.783 2.783 0 0 0 6.8 58h50.4c1.551 0 2.8-1.239 2.8-2.778V43.9z" opacity=".2"/><path fill="#3f3f3f" d="M4 42.9v11.322A2.783 2.783 0 0 0 6.8 57h50.4c1.551 0 2.8-1.239 2.8-2.778V42.9z"/><path fill="#ffaa3b" d="M6.8 7A2.783 2.783 0 0 0 4 9.778V42.9h56V9.778A2.783 2.783 0 0 0 57.2 7Z"/><path fill="#603e3f" d="m44.5 13-7 12-8.5-4-11 8-5.5-1-4.3 4L4 33.356V43h56V19.259L57 15.5l-4 4z"/><rect width="40" height="3" x="12" y="48" opacity=".3" rx="1.429" ry="1.5"/><circle cx="39.5" cy="50.5" r="4.5" opacity=".2"/><circle cx="39.5" cy="49.5" r="4.5" fill="#fff"/><path d="M4 43v1h56v-1zm40.5-30-7 12-8.5-4-11 8-5.5-1-4.3 4L4 33.355v1L8.2 33l4.3-4 5.5 1 11-8 8.5 4 7-12 8.5 6.5 4-4 3 3.758v-1L57 15.5l-4 4z" opacity=".2"/><path fill="#fff" d="M6.8 7A2.783 2.783 0 0 0 4 9.777v1A2.783 2.783 0 0 1 6.8 8h50.4c1.55 0 2.8 1.238 2.8 2.777v-1A2.783 2.783 0 0 0 57.2 7z" opacity=".2"/></svg>