<svg xmlns="http://www.w3.org/2000/svg" xmlns:xlink="http://www.w3.org/1999/xlink" viewBox="0 0 96 96"><defs><linearGradient id="b" x1="50%" x2="50%" y1="0%" y2="100%"><stop offset="0%" stop-color="#fff"/><stop offset="100%" stop-color="#d6d6d6"/></linearGradient><linearGradient id="d" x1="50%" x2="50%" y1="0%" y2="100%"><stop offset="0%" stop-opacity=".1"/><stop offset="100%" stop-opacity=".2"/></linearGradient><filter id="a" width="129.8%" height="129.8%" x="-14.9%" y="-14.9%" filterUnits="objectBoundingBox"><feOffset dy="2" in="SourceAlpha" result="shadowOffsetOuter1"/><feGaussianBlur in="shadowOffsetOuter1" result="shadowBlurOuter1" stdDeviation="2"/><feColorMatrix in="shadowBlurOuter1" result="shadowMatrixOuter1" values="0 0 0 0 0 0 0 0 0 0 0 0 0 0 0 0 0 0 0.2 0"/><feMerge><feMergeNode in="shadowMatrixOuter1"/><feMergeNode in="SourceGraphic"/></feMerge></filter><filter id="f" width="107.7%" height="107.7%" x="-3.8%" y="-3.8%" filterUnits="objectBoundingBox"><feGaussianBlur in="SourceAlpha" result="shadowBlurInner1" stdDeviation="3"/><feOffset in="shadowBlurInner1" result="shadowOffsetInner1"/><feComposite in="shadowOffsetInner1" in2="SourceAlpha" k2="-1" k3="1" operator="arithmetic" result="shadowInnerInner1"/><feColorMatrix in="shadowInnerInner1" values="0 0 0 0 0 0 0 0 0 0 0 0 0 0 0 0 0 0 0.5 0"/></filter><circle id="e" cx="42" cy="42" r="39"/></defs><g fill="none" fill-rule="evenodd" filter="url(#a)" transform="translate(6 6)"><circle cx="42" cy="42" r="42.25" fill="url(#b)" stroke="url(#d)" stroke-width=".5"/><use xlink:href="#e" fill="#ff496d"/><use xlink:href="#e" fill="#000" filter="url(#f)"/><path fill="#fff" fill-rule="nonzero" d="M61.049 22.225 59.61 35.512A19.9 19.9 0 0 1 62 45c0 11.046-8.954 20-20 20s-20-8.954-20-20c0-3.72 1.015-7.202 2.784-10.185l-1.363-12.59 10.23 4.595A19.9 19.9 0 0 1 42 25c3.07 0 5.978.692 8.578 1.928zM46 47h-8l3.31 4.139a3.501 3.501 0 0 1-6.31.665.5.5 0 1 0-.857.516A4.5 4.5 0 0 0 38 54.5c1.742 0 3.253-.99 4-2.437a4.5 4.5 0 0 0 7.857.257.5.5 0 1 0-.857-.516 3.501 3.501 0 0 1-6.245-.488l-.066-.177zm4-11a3 3 0 1 0 0 6 3 3 0 0 0 0-6m-15 0a3 3 0 1 0 0 6 3 3 0 0 0 0-6m15 1a1 1 0 0 1 1 1v2l-.007.117A1 1 0 0 1 49 40v-2l.007-.117A1 1 0 0 1 50 37m-15 0a1 1 0 0 1 1 1v2l-.007.117A1 1 0 0 1 34 40v-2l.007-.117A1 1 0 0 1 35 37m24.868-13.148-8.035 3.609.29.286a20.1 20.1 0 0 1 6.637 6.335zm-35.266 0 1.043 9.633a20.1 20.1 0 0 1 6.852-6.087z"/></g></svg>