<svg xmlns="http://www.w3.org/2000/svg" xmlns:xlink="http://www.w3.org/1999/xlink" viewBox="0 0 96 96"><defs><linearGradient id="b" x1="50%" x2="50%" y1="0%" y2="100%"><stop offset="0%" stop-color="#91749a"/><stop offset="100%" stop-color="#4a0f60"/></linearGradient><linearGradient id="c" x1="50%" x2="50%" y1="0%" y2="100%"><stop offset="0%" stop-color="#80accb"/><stop offset="100%" stop-color="#09477f"/></linearGradient><linearGradient id="d" x1="50%" x2="50%" y1="0%" y2="100%"><stop offset="0%" stop-color="#5ce1a4"/><stop offset="100%" stop-color="#2fc06b"/></linearGradient><linearGradient id="e" x1="50%" x2="50%" y1="0%" y2="100%"><stop offset="0%" stop-color="#f8cf38"/><stop offset="100%" stop-color="#d08426"/></linearGradient><linearGradient id="f" x1="50%" x2="50%" y1="0%" y2="100%"><stop offset="0%" stop-color="#fcfb77"/><stop offset="100%" stop-color="#dfc329"/></linearGradient><filter id="a" width="129.6%" height="129.8%" x="-14.8%" y="-14.9%" filterUnits="objectBoundingBox"><feOffset dy="2" in="SourceAlpha" result="shadowOffsetOuter1"/><feGaussianBlur in="shadowOffsetOuter1" result="shadowBlurOuter1" stdDeviation="2"/><feColorMatrix in="shadowBlurOuter1" result="shadowMatrixOuter1" values="0 0 0 0 0 0 0 0 0 0 0 0 0 0 0 0 0 0 0.2 0"/><feMerge><feMergeNode in="shadowMatrixOuter1"/><feMergeNode in="SourceGraphic"/></feMerge></filter></defs><g fill="none" filter="url(#a)" transform="translate(7 8)"><path fill="url(#b)" d="m76.482 28.504-.599-2.074v-.635l-.008-2.402c-.732-2.647-1.102-5.468-2.275-7.902-2.181-4.526-6.52-5.76-11.076-3.709-1.02.46-2.182.604-3.384.922l-1.196-9.352L43.475 6.57l.353 4.852c-2.938-.19-5.655-.432-8.378-.514-1.34-.04-2.7.146-4.034.351-1.217.188-2.41.538-3.423.772-.332-.367-.42-.435-.47-.525a16 16 0 0 1-.523-.99c-1.788-3.784-4.767-5.823-8.943-5.343-3.523.405-6.99 1.324-10.475 2.041-1.693.349-3.374.757-5.03 1.131.103.947.174 1.63.25 2.313.337 3.065.639 6.135 1.045 9.19.077.573.574 1.089.877 1.632a.5.5 0 0 1 .014.259c-.06 1.494-.247 2.996-.15 4.48.152 2.307.498 4.602.759 6.879l-2.176.739c0 1.05-.06 1.958.01 2.856.391 5.03.814 10.056 1.226 15.083l.001-.03 1.407 18.918c5.203-.726 10.175-1.421 15.3-2.138v-3.552l.388-.193c.13.232.229.487.391.692 1.747 2.2 3.926 3.44 6.835 3.51 2.164.051 4.324.44 6.476.747 2.294.328 4.576.737 6.856 1.11l.552-1.176c5.279-2.394 10.179-.293 15.346.1.32 2.321.65 4.693.973 7.03 2.643-.592 5.077-.959 7.384-1.714 1.677-.55 3.417-1.349 4.724-2.497 3.489-3.065 3.855-7.407 4.208-11.687l.105-1.574c.29-1.772.621-3.538.86-5.316a1640 1640 0 0 0 1.835-14.207c.177-1.412.276-2.834.41-4.248l-.805-.352-1.414-3.153a.64.64 0 0 1-.023-.298c1.148-.995.012-2.176.266-3.244m1.67-2.227q.117.093.017.204l-.032.432.406 5.771h1.528l-.01 3.51-.282 2.577-.33 4.054.046.062-.088 1.974-.074.347-.848 3.838.001 2.024q.079.128-.039.219l-.278 2.046.053.097-.068.087-.076 1.905-.127 1.032-.393 1.548-.993 7.379-.295 1.31-1.029 4.141-.208.346-.26.06.107.222-.248.34-.305.692.018-.022-.394-.053-1.53 2.344.023-.031q-2.275 1.394-4.549 2.792l-.313.071c-.424-.06-.875-.249-1.267-.163-3.024.664-6.036 1.38-9.052 2.081l.033.016-.32-4.519c-.13-1.03-.263-2.06-.4-3.139l-3.758-.394-.968-.008h.005l-.31-.36-.655-.267-6.815.315-.413 2.096L31.66 71.47l-3.502-.257-4.978-1.446-.423.579-3.62.75-.938.656a.246.246 0 0 1-.275.12c-.474-.135-.96-.412-1.422-.38-1.37.1-2.734.31-4.098.496-2.602.355-5.202.722-7.97 1.108L3.406 60.58l-.315-.982.009-.106-.035-3.733-.28-3.825-.643-6.425-.067-2.89-.33-.957.06.053c-.14-3.3-.278-6.599-.421-9.998l2.15-.558-.415-2.643-.316-1.282-.059-.055.038-.072v-2.106l-.676-4.51-.331-2.283.048-.081-.004-1.15-.643-3.223v-.115l.014-2.752-.313-4.146 3.207-1.268 1.587-.63a.36.36 0 0 1 .283-.119c.467.07.956.262 1.4.188 4.67-.773 9.198-2.523 14.054-2.005l.96.592.966-.339.33.233.998.716-.024-.025c.133.695.224 1.444 1.261 1.004l.967 1.1.393.496-.027-.051 1.252 2.014-.008.093c.223 1.446 1.235.899 1.915.63 1.946-.77 3.862-.84 5.933-.51 1.777.283 3.635.058 5.614.058l-.37-4.007L54.44 1.688l4.957-.83.183 1.68.556 1.278.06.648.11 2.271-.087.934.21 2.356 5.21-1.39 1.61-.005 2.88.65.677-.019-.013-.033 2.045 1.498.01-.035 1.216 1.42-.042-.017.356.868q.125-.096.25-.014.475.733.953 1.464.099.076.032.181l.968 2.708 1.184 3.83.313 2.925z"/><path fill="#1f1e20" d="M54.441 1.688 41.568 4.912l.37 4.007c-1.979 0-3.837.225-5.614-.059-2.071-.33-3.987-.26-5.933.51-.68.27-1.692.817-1.915-.629.912-.1 1.984.072 2.707-.352 1.85-1.085 3.667-.414 5.51-.283 1.514.108 3.032.188 4.712.29l-.327-4.232L54.421 1.29z"/><path fill="#161617" d="m3.406 60.58 1.028 12.516c2.768-.386 5.368-.753 7.97-1.108 1.364-.186 2.727-.397 4.098-.495.463-.033.948.244 1.422.38-2.266.306-4.535.6-6.8.92-2.266.32-4.529.667-7.248 1.07l-.744-13.284z"/><path fill="#1f1e20" d="m31.66 71.47 12.002 1.783.413-2.096 6.815-.315q0 .318.003.635l-6.403.297-.286 2.314-.378-.033-12.177-2.012z"/><path fill="#161617" d="M21.408 2.908C16.552 2.39 12.024 4.14 7.354 4.913c-.444.074-.932-.119-1.4-.188 4.694-.918 9.235-2.727 14.135-2.437.438.026.87.173 1.303.263z"/><path fill="#2f2d30" d="m19.138 71.097 3.62-.751.422-.58 4.978 1.446q-.178.3-.355.603l-3.795-.941-4.864.826z"/><path fill="#161617" d="m3.119 28.516.415 2.644-2.15.558.42 9.998c-.206-1.425-.465-2.845-.604-4.277-.2-2.036-.31-4.082-.465-6.231l2.292-.679-.186-2.014.139.001z"/><path fill="#2f2d30" d="M4.084 5.474.877 6.742l.313 4.146-.562.006L0 5.974l4.08-.864z"/><path fill="#161617" d="M57.262 79.513c3.017-.7 6.03-1.417 9.053-2.08.392-.087.843.101 1.267.163-2.676.711-5.357 1.408-8.025 2.146-.738.204-1.442.532-2.295.854z"/><path fill="#17181a" d="m65.64 8.635-5.21 1.39-.21-2.356.286.007.15 1.52c1.69-.354 3.33-.698 4.97-1.04z"/><path fill="#1f1e20" d="m52.818 71.477 3.758.394.401 3.14q-.17 0-.34.004l-.486-2.414-3.34-.557q.002-.283.007-.567"/><path fill="#2f2d30" d="m2.142 45.51.644 6.425-.56-.002-.36-6.427h.137z"/><path fill="#0e0e0e" d="m54.441 1.688-.02-.397L59.73 0l.36 2.54-.508-.002-.183-1.68z"/><path fill="#1e2a27" d="m67.895 77.523 4.55-2.791z"/><path fill="#161617" d="m76.566 65.382.991-7.378q.105 0 .21.007l-.966 7.37a1 1 0 0 0-.235.001"/><path fill="#0e0e0e" d="m27.803 71.815.354-.603 3.503.258-.011.573z"/><path fill="#3b3a3b" d="m80.061 36.194.01-3.51-.014-.575 1.03-.627-.475 4.75z"/><path fill="#161617" d="m80.057 32.109.014.575h-1.528l-.405-5.771.283.001.663 5.104z"/><path fill="#1f1e20" d="m2.106 20.493.676 4.509-.308.317-.588-4.82zm76.379 28.553.848-3.838-.434 3.865zM75.24 70.834l1.029-4.14q.11-.012.22-.033z"/><path fill="#161617" d="m79.449 42.825.33-4.054q.144.005.289.005c-.236 1.345.59 2.852-.62 4.049"/><path fill="#1f1e20" d="m77.766 21.13-1.184-3.829.102.007.103-.007z"/><path fill="#0e0e0e" d="m2.225 51.933.56.002.28 3.826a6 6 0 0 0-.282.015zm54.413 23.082.339-.005.32 4.52z"/><path fill="#1e2a27" d="m72.42 74.763 1.532-2.343.053.432z"/><path fill="#17181a" d="m70.13 9.28-2.88-.65-.011-.607 2.926.846z"/><path fill="#2f2d30" d="m76.787 17.301-.103.007-.102-.007-.968-2.708z"/><path fill="#17181a" d="m1.176 13.755.643 3.224a6 6 0 0 0-.272-.003z"/><path fill="#2f2d30" d="m67.239 8.023.011.607-1.61.005-.014-.48zm-38.755.625-1.252-2.014z"/><path fill="#17191b" d="m60.306 6.735-.11-2.271.24 2.254z"/><path fill="#0e0e0e" d="M80.068 38.776q-.145 0-.29-.005.143-1.288.283-2.577l.551.038z"/><path fill="#161617" d="M2.783 55.776q.141-.011.283-.015.015 1.866.034 3.732z"/><path fill="#0e0e0e" d="m.628 10.894.562-.006-.014 2.752z"/><path fill="#17191b" d="m74.065 12.11-1.216-1.42zM25.899 5.09c-1.037.44-1.128-.308-1.26-1.004z"/><path fill="#161617" d="M4.084 5.474 4.08 5.11l1.59-.265z"/><path fill="#2f2d30" d="M75.583 14.412q-.48-.731-.954-1.464.478.73.954 1.464"/><path fill="#17191b" d="m2.142 45.51-.139-.005-.138.001-.04-2.881q.124-.004.25-.004z"/><path fill="#0e0e0e" d="M77.766 58.011a3 3 0 0 0-.209-.007l.394-1.549z"/><path fill="#2f2d30" d="M76.49 66.661a3 3 0 0 1-.22.033l.295-1.311a1 1 0 0 1 .236-.003z"/><path fill="#17191b" d="m59.58 2.538.51.002.046 1.276z"/><path fill="#3b3a3b" d="m21.408 2.908-.016-.357 1.03.376-.055.573zm29.486 68.57-.003-.636.655.267.31.36h-.005l.007.323z"/><path fill="#17181a" d="m2.106 20.493-.22.006-.111-2.29z"/><path fill="#17191b" d="m78.151 26.277-.072-2.22zm1.256 18.584.088-1.974z"/><path fill="#1f1e20" d="m19.138 71.097.006.603-.945.052z"/><path fill="#17191b" d="m78.078 55.424.076-1.905z"/><path fill="#161617" d="m78.169 53.335.278-2.046z"/><path fill="#0e0e0e" d="m78.485 49.046.414.027-.413 1.997zM2.475 25.319l.307-.317v2.106z"/><path fill="#17191b" d="m24.662 4.11-.998-.716z"/><path fill="#0e0e0e" d="m51.857 71.792-.007-.323.968.008-.008.567zM3.119 28.516h-.14l-.138-.001-.038-1.28z"/><path fill="#161617" d="M2.075 42.621q-.126 0-.25.004l-.08-.962z"/><path fill="#0e0e0e" d="M1.547 16.976q.135-.001.273.002 0 .575.003 1.15z"/><path fill="#17181a" d="M3.406 60.58h-.274l-.041-.981z"/><path fill="#0e0e0e" d="m60.306 6.735.13-.017.07.958-.287-.007z"/><path fill="#17191b" d="m22.367 3.5.054-.573.913.234z"/><path fill="#0e0e0e" d="m74.327 72.494.305-.692z"/><path fill="#17191b" d="m70.13 9.28.035-.41.642.392zm4.249 3.682-.356-.869z"/><path fill="#0e0e0e" d="m74.005 72.852-.053-.432.393.052z"/><path fill="#737473" d="m43.827 74.055.377.033-.135.22z"/><path fill="#1f1e20" d="m74.88 71.462-.107-.222.26-.06z"/><path fill="#2f2d30" d="m27.259 6.685-.393-.497z"/><path fill="#17191b" d="m78.421 26.914-.284-.001.032-.432z"/><path fill="url(#c)" d="m57.385 4.403 1.236 9.442c1.493-.417 2.825-.631 4.024-1.153 4.754-2.066 9.085-.44 10.964 4.4.783 2.018 1.15 4.197 1.707 6.302l.567 2.401v.635l.042 2.083.29 3.235a.64.64 0 0 0 .024.298l.848 4.973.543-.066c-.412 3.38-.828 6.76-1.232 10.14-.487 4.069-.961 8.138-1.44 12.206q-.096.783-.188 1.565c-.378 1.985-.664 3.992-1.15 5.949-.957 3.834-3.305 6.393-7.216 7.348-2.171.53-4.358.996-6.54 1.476-.13.028-.29-.077-.471-.13l-.806-6.588c-5.664-.532-11.05-2.618-16.664-.15l-.453 1.056c-.338-.047-.595-.084-.852-.118-4.214-.57-8.425-1.155-12.641-1.705-2.53-.331-4.54-1.516-5.95-3.623-.688-1.027-1.204-2.168-2.02-3.665l.449 6.94-13.983 1.99c-.476-5.762-.915-11.224-1.404-16.682-.033-.369-.34-.713-.568-1.065l-.086-.14.054-.118c.156-.32.38-.645.365-.957a585 585 0 0 0-.585-9.414c-.153-2.26-.332-4.518-.5-6.794l2.4-.432L4.738 21.74a.5.5 0 0 0-.014-.26L3.28 9.076c4.825-1.032 9.33-2.133 13.887-2.926 3.675-.64 6.749.608 8.773 3.9.55.896.97 1.872 1.636 3.177 5.477-2.435 11.211-.452 17-1.098l-.327-4.771zm-1.386 2.629-9.92 2.302.625 5.915c-3.291-.718-6.368-1.64-9.294.382l-1.182-1.248c-1.485-.513-3.073-.34-4.782.235-1.667.56-3.496.632-5.32.93-.138-.631-.2-.991-.296-1.342-1.237-4.494-4.517-6.555-9.07-5.673a350 350 0 0 0-7.037 1.451c-1.444.312-2.876.68-4.473 1.06l2.803 24.947-2.425.7c.083.651.156 1.22.231 1.791l.182 2.85.976 13.473c.285 4.024.57 8.047.87 12.257 1.38-.156 2.538-.232 3.674-.429 1.796-.31 3.577-.702 5.364-1.06.488-.055.976-.11 1.541-.176v-.959l-.323-5.996 3.146-.87.993 3.15.406.167v.003l.482.648a.3.3 0 0 1 .15.152l-.288.338q.074.063.147.128l.306-.286.164.465-.378.257.38.218.318.318h.001l.26.507.947.906c.72.315 1.414.79 2.165.911 1.565.253 3.17.254 4.741.474 2.578.36 5.143.81 7.76 1.23l.562-.879 7.404-1.06v-3.607c2.338 3.913 6.382 5.582 11.31 4.572l.298-2.254.351.047 1.049 9.045c1.293-.318 2.379-.562 3.451-.856 1.424-.391 2.96-.592 4.23-1.279 3-1.623 3.747-4.584 4.036-7.71l2.691-20.875.378-2.951c-5.62.742-10.767 2.838-16.415 3.038l.086-1.671 15.87-3.554-1.057-8.03-.145-1.57c-.206-3.3-.393-6.606-1.895-9.647-1.795-3.635-4.979-4.647-8.688-3.087-1.872.787-3.95 1.086-6.08 1.645l-.611-3.669c-.218-1.879-.435-3.758-.67-5.774M34.663 37.113c3.32 3.646 8.005 1.455 11.833 3.542-2.311.43-4.642.778-6.927 1.317-1.814.428-3.4-.056-5.087-.608-2.635-.862-5.327-1.009-8.031.44l-.681-1.668 8.577-1.225z"/><path fill="#17191b" d="M4.408 51.746c.229.405.623.794.661 1.216.489 5.457.928 10.92 1.404 16.682l13.983-1.99-.45-6.94c.817 1.497 1.333 2.638 2.02 3.665 1.41 2.107 3.422 3.292 5.951 3.622 4.216.551 8.428 1.135 12.641 1.706.257.034.514.07.852.118l.454-1.057c5.613-2.467 10.999-.382 16.663.15l.805 6.588c.183.054.342.16.472.131 2.183-.48 4.369-.945 6.54-1.475 3.912-.956 6.26-3.515 7.215-7.35.488-1.956.773-3.963 1.151-5.948l.477.032c-.352 4.28-.718 8.622-4.207 11.686-1.307 1.149-3.047 1.949-4.724 2.498-2.307.756-4.74 1.122-7.384 1.714l-.973-7.03c-5.167-.393-10.067-2.494-15.346-.1l-.552 1.175c-2.28-.372-4.562-.781-6.856-1.109-2.152-.307-4.312-.696-6.476-.748-2.91-.07-5.088-1.309-6.835-3.509-.162-.205-.262-.46-.391-.692l-.388.193v3.553l-15.3 2.137z"/><path fill="#17181a" d="M75.316 23.394c-.557-2.105-.924-4.284-1.707-6.301-1.88-4.84-6.21-6.467-10.964-4.4-1.199.52-2.53.735-4.024 1.152l-1.236-9.442-13.136 2.955.327 4.771c-5.789.646-11.523-1.337-17 1.098-.666-1.304-1.085-2.28-1.636-3.177-2.024-3.292-5.097-4.539-8.772-3.9-4.558.793-9.063 1.894-13.888 2.926l1.444 12.403c-.303-.542-.8-1.058-.876-1.63-.407-3.056-.709-6.126-1.046-9.19-.075-.683-.147-1.367-.25-2.314 1.657-.374 3.337-.782 5.03-1.13 3.486-.718 6.952-1.636 10.475-2.042 4.176-.48 7.155 1.559 8.943 5.342.16.338.341.665.523.991.05.09.138.158.47.525 1.013-.234 2.206-.585 3.423-.772 1.333-.205 2.693-.392 4.035-.35 2.721.081 5.439.323 8.377.513l-.353-4.852 14.469-3.218 1.196 9.352c1.202-.318 2.364-.462 3.384-.922 4.556-2.05 8.895-.817 11.076 3.709 1.173 2.434 1.543 5.255 2.276 7.902zm-.359 35.905c.48-4.068.954-8.137 1.44-12.205.405-3.381.822-6.761 1.233-10.141l-.543.066-.848-4.973 1.414 3.153.806.353c-.135 1.413-.234 2.835-.41 4.248-.595 4.737-1.2 9.474-1.836 14.206-.239 1.778-.57 3.544-.862 5.316z"/><path fill="#161617" d="m4.738 21.739 1.41 12.303-2.4.432c.169 2.276.348 4.534.501 6.794.213 3.137.423 6.275.584 9.414.019.357-.276.73-.426 1.094-.412-5.027-.835-10.054-1.226-15.083-.07-.898-.01-1.806-.01-2.856.65-.22 1.333-.453 2.175-.74-.26-2.276-.606-4.57-.758-6.878-.097-1.484.09-2.986.15-4.48"/><path fill="#17181a" d="m76.216 31.747-.29-3.234.556-.009c-.254 1.068.882 2.25-.266 3.243"/><path fill="#0e0e0e" d="m75.316 23.394.56-.001.007 2.402zm1.166 5.11-.557.01-.042-2.084zM74.957 59.3l.394.023-.103 1.574-.478-.032z"/><path fill="#2f2d30" d="m51.855 71.47-.31-.361z"/><path fill="url(#d)" d="m55.513 8.14.642 4.732.481 4.75c2.612-.743 5-1.242 7.25-2.107 2.889-1.11 5.463-.528 7.097 2.093.608.977 1.113 2.089 1.357 3.207.486 2.228.76 4.504 1.12 6.76l.2 1.582c.21 2.421.422 4.843.635 7.309l-15.652 3.466c-.11 1.02-.213 1.953-.37 3.393l6.494-.569.94 2.093.404-2.58 8.73-1.957-.114 1.962c-.204 1.364-.438 2.725-.607 4.094-.692 5.591-1.364 11.185-2.043 16.777-1.275 7.296-4.444 7.821-10.785 8.576l-1.106-9.92 2.07-.65-3.377-8.475c-.476-.05-.877-.094-1.456-.157l-.14 2.485 2.18.662-.878 9.719c-1.123 0-2.03.066-2.922-.018a19.6 19.6 0 0 1-2.99-.51c-2.728-.695-4.209-2.409-4.362-5.208-.1-1.806.03-3.625.042-5.438.001-.198-.09-.396-.168-.718l-1.606.226.662 10.645-8.196 1.43.087.414c-2.472-.408-4.941-.83-7.416-1.221-2.03-.322-4.064-.61-6.098-.912l-1.333-1.03-.315.084v.001l-.318-.317-.003-.476-.164-.465a1.5 1.5 0 0 1-.164-.18.3.3 0 0 0-.15-.152l-.483-.648v-.003l-.058-.619-.647-3.948-4.57 1.34.552 6.782a1.3 1.3 0 0 0-.075.303.38.38 0 0 0-.196.216l-.795.085-8.37.987-.954-11.228-1.067-13.493-.216-2.85.202-1.146 2.353-.414L5.96 11.667c4.24-.823 8.281-1.837 12.386-2.335 3.463-.42 5.83 1.53 6.766 4.84.198.704.337 1.425.48 2.034 3.66.778 6.844-2.054 10.431-.98l.354 2.016 1.073-.85c3.247-1.875 6.552-.913 10.007.013l-.552-6.392zm-3.956 30.743-.524 4.978-1.772.16-.382 4.392 1.599.573-.48 6.784.063 3.903.273.446.265.434.376.19.385.196.492.43c.187.35.314.95.57 1.011 1.473.348 2.977.567 4.661.864l.508-5.512-2.224-.924.673-6.862h2.18l.101-.52.398-2.039 6.067 15.376-2.718 1.131.695 5.139c2.337-.106 4.332-.334 5.85-1.96l.415-.555c.377-.919.956-1.808 1.096-2.76.708-4.834 1.31-9.683 1.933-14.53.248-1.93.45-3.868.707-6.084l-5.19 1.156-.293 3.777-.209 2.53-.328 2.42-.253.018-2.727-7.909-4.313.887-2.982-1.181.387-5.064zM25.477 49.6l4.714.788 1.122-1.517 1.982.958-.101.784c-1.144.126-2.286.317-3.434.365-1.873.077-3.61.384-4.827 2.013-1.486 1.993-1.412 5.918.162 7.833 1.508 1.835 4.055 2.2 6.742.972.18-.082.383-.118.574-.176l.402 1.19 2.067.315 3.17.483c0-2.12-.04-3.954.013-5.785.047-1.65.197-3.296.301-4.943l-.015-4.16c-.099-1.581-.877-2.857-2.3-3.373-1.778-.645-3.676-1.234-5.544-1.307-3.355-.132-5.531 2.408-5.029 5.56m-6.469-11.38c-3.58.044-7.154.673-10.876 1.063L8.6 44.56l.249 1.117-.034.8.445 7.032.037.657.13.99.535 8.427 6.06-.89-.438-7.143c1.074-.206 2.007-.373 2.935-.566 3.203-.666 5.28-2.515 5.798-5.81.221-1.41.344-2.88.201-4.292-.394-3.882-2.535-6.697-5.51-6.661m24.974 7.774c-.202-.506-.37-.927-.546-1.372l-4.645.685c-.047.336-.114.544-.098.746.216 2.704.445 5.408.67 8.112l.39 5.423.279 3.546 5.432-.835c-.18-2.21-.428-4.217-.476-6.228-.028-1.192-.069-2.592.502-3.529.535-.875 1.87-1.263 3.1-2.018l-.61-6.885c-2.043-.179-3.142.883-3.998 2.355m-11.03 9.385-1.503 2.959-1.848-.543.173-1.811zm-14.79-10.175c.466.53.567 1.73.324 2.457-.513 1.531-2.046 1.123-3.395 1.405l-.33-4.06c1.23-.582 2.516-.814 3.402.198M33.584 34.12l.231 3.89c-.856.152-1.53.315-2.213.384-2.212.223-4.427.412-6.641.613v-3.61l-2.31 1.653 2.246 2.749 1.138 3.242c3.379-2.113 6.724-1.39 10.09-.25.525.179 1.138.288 1.677.208 3.87-.576 7.732-1.21 11.738-1.847l.091-1.364c-1.983-.347-3.855-.738-5.746-.986-1.524-.2-3.074-.188-4.606-.34-2.54-.252-4.251-1.752-5.695-4.342M18.942 11.617c-3.68.387-7.308 1.269-11.086 1.96.26 2.194.481 4.09.71 5.985q.895 7.377 1.795 14.754l.155 1.577.1 1.832c4.127-1.117 8.31-1.187 11.961-3.263 1.766-1.004 2.803-2.581 2.94-4.668l.07-.607.325-.086.333 2.944.337 4.7 5.48-.718-.617-5.929.042-2.84c.45-1.881 1.798-2.612 3.72-2.618l-.668-7.33c-1.62-.125-2.708.436-3.54 1.622-.171.244-.506.373-.767.556l-.283-1.244-4.673.74c.125 2.235.24 4.295.357 6.354l-.376-.057-2.116-3.516c.258-1.682.768-3.346.713-4.992-.108-3.245-2.105-5.45-4.912-5.156m44.3 7.127c-.303.342-.575.723-.926 1.006-.135.108-.451-.008-.685-.023-.274-.265-.597-.793-.813-.752-1.378.26-2.732.644-4.13.996l.489 2.978.006.052.142 1.669 1.343 12.842 5.481-1.15-.581-4.022-.198-1.9-.115-1.636-.119-.376.127-4.302c.894-.045 1.39-.07 2.324-.119l1.516 11.695 5.46-1.245c-.617-4.467-1.153-8.79-1.857-13.088-.151-.928-.907-1.756-1.385-2.628l-.316-.317c-1.618-1.628-4.058-1.494-5.763.32m-26.89 4.459 4.799.82 1.066-1.495 2.012.999-.135.763c-1.22.128-2.437.32-3.66.372-2.083.087-4.044.52-4.913 2.626-.988 2.396-1.26 4.862.584 7.086l.855.725c1.988 1.575 4.15 1.546 6.28-.084l.536 1.44 5.128.755v-5.146l.07-.997.26-2.544.014-.342.06-1.28-.015-4.784-.306-.352.035-.05c-.02-1.666-1.202-2.55-2.487-2.998-1.637-.569-3.403-.972-5.128-1.034-3.247-.117-5.17 2.062-5.055 5.52m18.599-5.458-5.424 1.08.426 3.28.06.615 1.544 13.891 5.296-1.264-.242-2.666a.4.4 0 0 0-.026-.298zM43.789 29.013l-1.21 2.881-2.331-.66.624-1.644zm-24.218-2.835.318 2.698-3.821 1.293-.463-3.55zm-1.778-7.975c1.13 2.541-.263 3.129-2.688 3.21l-.435-2.853zm36.314-7.448-5.382 1.26.637 5.576 5.464-1.227z"/><path fill="#1c2522" d="m58.414 54.476.356-.226-.456-.712-.346.22zm1.817 3.47-.295.031-.247 2.963 1.578-.435zm-12.628-1.621v-1.6l-.205.002v1.646l.046 1.02q.079-.005.159-.006zm-21.984 7.75c2.033.303 4.068.59 6.097.912 2.475.392 4.944.813 7.416 1.221l-.087-.415 8.196-1.429-.662-10.645 1.606-.226c.078.322.17.52.168.718-.013 1.813-.141 3.632-.042 5.438.153 2.8 1.634 4.512 4.363 5.208a19.5 19.5 0 0 0 2.99.51c.891.084 1.797.018 2.92.018l.88-9.72c-.71-.214-1.396-.423-2.18-.661l.138-2.485 1.457.157 3.377 8.475-2.07.65 1.106 9.92c6.341-.755 9.51-1.28 10.785-8.576l.46.03c-.292 3.127-1.038 6.089-4.039 7.712-1.27.687-2.806.888-4.23 1.278-1.072.294-2.158.538-3.451.857l-1.049-9.045-.35-.047-.3 2.254c-4.927 1.01-8.971-.66-11.309-4.572v3.608l-7.404 1.06-.562.878c-2.617-.42-5.182-.87-7.76-1.23-1.572-.22-3.176-.221-4.741-.474-.751-.12-1.445-.596-2.165-.911zm11.83-47.682-1.073.849-.354-2.017c-3.587-1.073-6.77 1.759-10.431.98-.143-.608-.281-1.329-.48-2.033-.936-3.31-3.303-5.26-6.766-4.84-4.105.498-8.146 1.511-12.386 2.335l2.888 25.237-2.353.414-.202 1.145-.435.019-.229-1.79 2.424-.7L5.25 11.044c1.597-.381 3.029-.75 4.472-1.06a344 344 0 0 1 7.038-1.452c4.553-.882 7.833 1.179 9.07 5.674.097.35.158.71.296 1.34 1.824-.297 3.653-.37 5.32-.93 1.708-.574 3.297-.747 4.782-.234l1.182 1.248zm37.277 25.88.114-1.96c-3.003.672-5.838 1.308-8.73 1.957l-.403 2.58-.94-2.094-6.494.569c.156-1.44.258-2.373.37-3.393 5.19-1.15 10.336-2.29 15.651-3.466l-.634-7.31.427-.022 1.055 8.03-15.869 3.554-.086 1.67c5.648-.199 10.794-2.295 16.414-3.037-.14 1.104-.259 2.027-.377 2.95z"/><path fill="#1c2623" d="m37.45 16.393-.04-.762c2.926-2.021 6.003-1.1 9.294-.381l-.626-5.916 9.92-2.302c.235 2.016.452 3.895.67 5.774l-.513.066-.642-4.732-8.609 1.873.552 6.393c-3.455-.927-6.76-1.889-10.007-.013"/><path fill="#1d2724" d="m56.155 12.873.513-.067.61 3.668c2.132-.558 4.209-.857 6.08-1.644 3.71-1.56 6.894-.548 8.69 3.087 1.5 3.041 1.688 6.348 1.894 9.647l-.482.01c-.36-2.255-.634-4.53-1.12-6.76-.244-1.117-.749-2.23-1.357-3.205-1.635-2.622-4.208-3.204-7.098-2.094-2.248.865-4.637 1.364-7.248 2.107z"/><path fill="#1e2a27" d="m7.575 54.807.955 11.228 8.37-.986.025.525c-1.787.357-3.569.749-5.364 1.06-1.136.196-2.294.272-3.674.428-.3-4.21-.585-8.233-.87-12.256z"/><path fill="#1d2724" d="m74.727 42.274.498.027-2.69 20.875-.459-.03c.68-5.593 1.352-11.187 2.044-16.778.17-1.369.403-2.73.607-4.094m-56.762 22.17-.551-6.782 4.57-1.34.646 3.948-.348.453-.993-3.151-3.146.87.323 5.996z"/><path fill="#1c2522" d="m7.575 54.807-.559-.001-.975-13.474.467-.018z"/><path fill="#0e0e0e" d="m6.508 41.314-.467.018-.183-2.85.434-.02zm11.457 23.13.501-.006v.96l-1.54.175-.027-.524.796-.085q.135.008.269.013l-.073-.23q.018-.156.074-.302"/><path fill="#1d2724" d="m25.619 64.075-.442.467q-.474-.45-.948-.906l.056-.591z"/><path fill="#0e0e0e" d="m73.46 27.575.482-.01.146 1.569-.427.023z"/><path fill="#1c2522" d="m22.282 60.723.348-.452.057.619zm.406.169.482.648zm1.597 2.153-.056.591-.259-.506zm-.632-.232.316.317zm-.004-.476.002.475-.38-.218zm-.164-.465-.306.286-.147-.128.289-.338q.075.096.164.18"/><path fill="url(#e)" d="M71.923 44.236c-.525 4.951-1.034 9.745-1.541 14.539l-.22.836-1.55 6.544-.431.494c-1.552.595-3.103 1.19-4.87 1.87l-.437-3.884c2.544-1.157 2.75-1.675 1.705-4.329-1.717-4.357-3.45-8.707-5.262-13.272l4.05-.966 3.547 10.376.297-.03.345-5.773.23-2.561.33-2.977zm-48.303-.512c.245 1.298.345 2.656.275 3.974-.201 3.822-2.215 5.93-6.02 6.497-.94.14-1.878.301-2.99.48.145 2.427.285 4.746.434 7.212l-4.673.669-.732-7.43-.063-.96-.122-1.923-.229-3.2-.04-.658-.217-1.913-.305-6.34c3.006-.381 5.896-.889 8.806-1.081 3.21-.212 5.278 1.504 5.876 4.673M35.83 46.2c.867.534 1.354 1.684 2.014 2.554l.086 3.638-1.03 10.143-3.618-.597-.153-1.611c-1.438.442-2.827 1.16-4.255 1.245-2.463.144-4.119-1.56-4.323-3.981-.27-3.185.893-5.04 3.56-5.505 1.096-.191 2.23-.169 3.346-.247 1.045-.073 2.22-.188 2.293-1.473.037-.64-.467-1.566-1.014-1.93-1.017-.676-2.044-.356-2.722.75-.05.08-.166.123-.336.243l-3.515-.65c.152-2.234 1.025-3.355 3.034-3.717 2.33-.42 4.632-.094 6.632 1.14m16.278-6.347 4.016.686-.352 5.184 2.222.576c-.105.964-.2 1.836-.305 2.784l-2.225-.235c-.211 2.06-.404 4.015-.613 5.968-.255 2.38-.076 2.727 2.029 3.746l-.12 1.713-.047.615-.284 1.455-4.577-.977-.492-.43-.756-.383-.03-.464-.032-.473-.012-3.85.744-7.562-1.713-.577.351-2.745 1.648.139zm-4.706 4.668.432 5.447c-3.024 1.204-3.73 2.318-3.577 5.602.046.959.146 1.915.215 2.873.07.956.131 1.911.211 3.08l-4.068.614-.406-3.489-.244-3.202-.032-.636-.055-.638-.488-8.078 3.618-.533.345 3.206.381.174c.755-1.826.928-4.18 3.668-4.42M33.61 54.306c-1.423.283-2.527.27-3.353.743-.647.371-1.284 1.339-1.3 2.055-.012.607.801 1.648 1.376 1.744.684.116 1.823-.371 2.19-.957.583-.93.689-2.157 1.087-3.585m-19.596-10.22.38 4.619.026.343.286 1.088c1.69-.489 3.831.057 4.382-2.085.28-1.091.13-2.687-.512-3.534-1.108-1.461-2.87-.825-4.562-.432"/><path fill="#2d3226" d="m56.76 60.276.12-1.713c-2.104-1.02-2.284-1.367-2.03-3.746.21-1.953.403-3.908.614-5.968l2.225.235.305-2.784-2.222-.576.352-5.184-4.016-.686-.548 5.17-1.647-.138-.352 2.744 1.713.577-.744 7.562-.533.001.48-6.784-1.598-.573.382-4.392 1.773-.16.523-4.978 5.299.895-.387 5.064 2.982 1.181 4.313-.887 2.728 7.909.252-.018.33-2.42.482.034-.345 5.772-.297.03-3.546-10.375-4.05.966c1.81 4.565 3.544 8.915 5.261 13.272 1.046 2.654.839 3.172-1.705 4.329l.437 3.884c1.767-.68 3.318-1.275 4.87-1.87l.432.425c-1.518 1.625-3.513 1.853-5.85 1.959-.23-1.71-.46-3.408-.695-5.139l2.718-1.13-6.067-15.376-.5 2.558H56.04c-.222 2.274-.442 4.514-.673 6.862l2.224.924-.508 5.512c-1.684-.296-3.188-.516-4.662-.864-.255-.06-.383-.66-.57-1.01l4.578.976.284-1.455z"/><path fill="#303526" d="M38.364 52.879c-.104 1.648-.254 3.294-.301 4.943-.053 1.831-.013 3.665-.013 5.785l-5.237-.797-.402-1.19c-.191.056-.393.093-.574.175-2.687 1.228-5.234.863-6.743-.972-1.573-1.915-1.647-5.84-.16-7.833 1.215-1.63 2.953-1.936 4.826-2.013 1.148-.048 2.29-.239 3.434-.365l.1-.784-1.98-.958-1.123 1.517-4.715-.788c-.502-3.152 1.674-5.692 5.03-5.56 1.867.073 3.765.662 5.544 1.307 1.422.516 2.2 1.792 2.299 3.374l-.505.035c-.66-.87-1.147-2.02-2.014-2.554-2-1.233-4.302-1.558-6.632-1.139-2.009.362-2.882 1.483-3.034 3.717l3.515.65c.17-.12.286-.162.336-.244.678-1.105 1.705-1.426 2.722-.749.547.364 1.05 1.29 1.014 1.93-.074 1.285-1.248 1.4-2.293 1.473-1.116.078-2.25.056-3.347.247-2.666.464-3.828 2.32-3.56 5.505.205 2.42 1.861 4.125 4.324 3.98 1.427-.083 2.817-.802 4.255-1.244l.152 1.61 3.62.598 1.027-10.142z"/><path fill="#1c2623" d="M46.496 40.655c-3.828-2.087-8.513.104-11.833-3.542l-.316 1.798-8.577 1.225.68 1.668c2.705-1.449 5.397-1.302 8.032-.44 1.687.552 3.273 1.036 5.087.608 2.285-.54 4.616-.887 6.927-1.317M24.96 39.007c2.214-.202 4.43-.39 6.64-.613.684-.07 1.358-.232 2.214-.384l-.23-3.89c1.443 2.59 3.153 4.09 5.694 4.342 1.532.152 3.082.14 4.606.34 1.89.248 3.763.639 5.746.986l-.091 1.364c-4.006.638-7.868 1.27-11.738 1.847-.54.08-1.152-.03-1.678-.207-3.365-1.14-6.71-1.864-10.089.25l-1.137-3.243z"/><path fill="#2d3226" d="m8.6 44.559-.468-5.277c3.722-.39 7.295-1.019 10.877-1.062 2.975-.036 5.116 2.779 5.51 6.661.143 1.412.02 2.883-.201 4.292-.519 3.295-2.595 5.144-5.798 5.81-.928.193-1.861.36-2.935.566l.439 7.144-6.06.889c-.188-2.934-.362-5.68-.536-8.427l.487-.028c.24 2.431.478 4.863.73 7.429l4.673-.668c-.148-2.467-.287-4.786-.434-7.212 1.113-.18 2.05-.341 2.991-.481 3.805-.568 5.819-2.675 6.02-6.497.07-1.318-.03-2.676-.275-3.974-.598-3.17-2.666-4.885-5.876-4.673-2.91.192-5.8.7-8.806 1.082l.305 6.34-.426.004.032-.801z"/><path fill="#2e3527" d="M10.36 34.316q-.898-7.377-1.793-14.754c-.23-1.895-.45-3.791-.711-5.984 3.778-.692 7.406-1.574 11.086-1.96 2.807-.295 4.804 1.91 4.912 5.155.055 1.645-.454 3.31-.713 4.992l2.117 3.516.259 1.652-.451.015c-.49-2.06-1.035-4.074-3.493-4.412.557-1.334 1.285-2.547 1.57-3.856.868-4.01-1.532-6.692-5.556-6.113-2.986.429-5.92 1.222-8.937 1.866l2.115 18.881c-.033.036-.1.083-.094.105.027.083.079.158.121.235l.006.634zm29.004 19.848c-.226-2.704-.455-5.408-.671-8.112-.017-.202.051-.41.098-.746l4.644-.685.546 1.373c.857-1.473 1.956-2.535 3.999-2.356l.61 6.885c-1.23.755-2.566 1.143-3.1 2.018-.57.937-.53 2.337-.501 3.529.047 2.01.295 4.017.474 6.228l-5.431.835c-.1-1.255-.189-2.401-.279-3.546l.456-.938.406 3.489 4.068-.613c-.08-1.17-.142-2.126-.21-3.08-.07-.959-.17-1.915-.215-2.874-.154-3.284.552-4.398 3.576-5.602l-.432-5.447c-2.74.24-2.913 2.594-3.667 4.42l-.382-.174-.345-3.206-3.619.533.49 8.078z"/><path fill="#2f3727" d="M36.105 34.374c-1.844-2.224-1.572-4.69-.584-7.086.869-2.106 2.83-2.539 4.912-2.626 1.224-.051 2.44-.244 3.661-.373l.136-.763-2.013-.998-1.067 1.495-4.798-.82c-.116-3.458 1.808-5.637 5.055-5.52 1.725.062 3.491.465 5.128 1.034 1.286.447 2.466 1.332 2.486 2.998l-.385.074c-1.582-2.658-6.786-4.198-9.527-2.773-1.307.68-2.075 1.752-2.03 3.42l3.7.677c.185-.243.308-.582.502-.629.806-.198 1.738-.6 2.417-.354.51.185 1.052 1.31.938 1.892-.108.556-.98 1.158-1.634 1.364-.838.264-1.795.16-2.7.203-3.015.141-4.045.969-4.827 3.892-.04.028-.115.063-.112.082.016.08.056.154.087.23l-.002 1.616c-.035.033-.105.08-.098.097.032.076.084.144.13.215l.706 1.822z"/><path fill="#2d3226" d="M69.322 18.739c.477.874 1.233 1.703 1.384 2.63.704 4.297 1.24 8.622 1.857 13.088l-5.46 1.245-1.516-11.695-2.324.12-.127 4.301.12.376.114 1.636a3 3 0 0 0-.273.017l-.284-.334c-.105-1.741-.396-3.501-.22-5.213.07-.672 1.123-1.599 1.849-1.727.515-.09 1.517.851 1.789 1.535.395.997.33 2.177.46 3.279l.169.833.223 1.782.088.482.464 3.584 4.092-.897c-.402-3.468-.68-6.856-1.231-10.2-.253-1.53-1.04-2.972-1.585-4.455zm-2.041 29.338.293-3.777 5.19-1.156c-.256 2.216-.46 4.153-.707 6.085-.622 4.846-1.225 9.695-1.933 14.529-.14.952-.72 1.841-1.096 2.76l-.415-.363 1.55-6.544.218-.837 1.542-14.538-3.807.867-.33 2.977z"/><path fill="#2f3727" d="M25.517 29.795c-.137 2.086-1.174 3.662-2.94 4.667-3.652 2.076-7.834 2.146-11.962 3.264-.043-.806-.071-1.32-.1-1.833q.139-.002.276-.023l.284.337c.365.095.76.332 1.09.261 2.6-.554 5.196-1.13 7.775-1.77 2.635-.653 4.41-2.247 5.083-4.946z"/><path fill="#323827" d="M30.234 19.487c.26-.182.594-.311.765-.555.832-1.186 1.92-1.747 3.54-1.621l.668 7.33c-1.922.005-3.27.736-3.72 2.617l-.46-.024c.016-2.187 1.444-3.113 3.374-3.579l-.424-5.518c-2.77.326-2.94 2.655-3.669 4.494l-.442-.148-.14-2.943z"/><path fill="#2e3527" d="m49.953 22.105-.426-3.28 5.424-1.08 1.634 14.638-.23.296-.293.006-.272-2.252c.032-.033.096-.077.09-.096-.028-.075-.077-.143-.117-.213l-1.424-11.398-4.052.883.147 2.02-.159.454-.026.023z"/><path fill="#2f3727" d="m53.559 11.78-4.097.967.513 3.79 4.096-.944zm-4.197 5.81-.637-5.577 5.382-1.26c.242 1.887.461 3.6.72 5.61zm14.206 14.75.581 4.023-5.481 1.15-1.343-12.843.471-.083.05.023c-.028.043-.088.095-.079.127.028.093.084.177.129.264l.109 2.03.206.835.654 5.785c-.036.033-.108.08-.102.096.031.078.083.147.128.219l.275 2.255-.082.212.234.066 4-.882-.206-3.255z"/><path fill="#2d3226" d="m56.062 32.685.292-.006.257.001.242 2.667-5.296 1.264-1.544-13.89.236-.615.026-.023q.116.034.236.043l.091 1.728.22 1.122 1.302 10.575 3.938-.88z"/><path fill="#323827" d="m31.445 30.098.617 5.929-5.48.718-.337-4.7.526-.003.408 3.72 3.843-.568V30.12z"/><path fill="#2d3226" d="m26.77 32.042-.525.003-.333-2.944-.28-3.763-.356-6.354 4.673-.74.284 1.244-.507.052-.642-.354-.616.09-1.943.272-.187-.164-.138.217-.268 2.007.087.45z"/><path fill="#2e3527" d="M48.904 32.064v5.146l-5.127-.755-.537-1.44-.17-.677.974-.819.245 2.104 3.665.564.388-4.143q.155-.02.31-.026.125.03.252.046"/><path fill="#1e2a27" d="m24.96 39.007-.063.792-2.247-2.75 2.31-1.652zm18.11-4.67.17.678c-2.13 1.63-4.292 1.659-6.279.084l.15-.174.652-.041 3.512.377.933-.346z"/><path fill="#2d3226" d="m57.176 22.952-.488-2.98c1.398-.353 2.752-.738 4.13-.997.216-.04.54.487.813.752a1 1 0 0 0-.159.133l-.311-.002-3.591.656v1.91q-.198.263-.394.528m6.064-4.21c1.707-1.811 4.147-1.946 5.765-.318l-.386.412c-1.724-1.036-3.363-.765-4.949.32z"/><path fill="#3c452a" d="m48.636 21.789.385-.074-.034.05.307.352.015 4.783-.55.019z"/><path fill="#2e3527" d="m8.816 46.477.427-.005.218 1.913.04.659.228 3.2-.468 1.264z"/><path fill="#2d3226" d="M61.631 19.727c.234.015.55.131.685.023.351-.283.623-.664.925-1.007l.429.412-1.769 2.992-.396-.042-.071-1.117.038-1.128a1 1 0 0 1 .16-.133"/><path fill="#1e2a27" d="m40.21 58.65-.457.936-.39-5.422.515.009.055.638.032.636z"/><path fill="#323827" d="m49.997 55.77.533-.001.012 3.85-.48.055z"/><path fill="#3c452a" d="M48.652 32.018a4 4 0 0 0-.31.026l.346-4.171.294.351.251.3-.259 2.543z"/><path fill="#24553a" d="m25.633 25.338.279 3.763-.326.086-.069-2.254-.26-1.651z"/><path fill="#17181a" d="m37.844 48.755.505-.035.015 4.159-.434-.486z"/><path fill="#1f1e20" d="M67.28 48.077q.253 0 .505.003l-.23 2.561-.482-.034zM25.517 26.933l.07 2.254-.07.607-.494-.042.043-2.804z"/><path fill="#161617" d="m31.445 30.098-.423.022.005-2.886.46.024z"/><path fill="#2d3226" d="m9.261 53.508.468-1.265.122 1.924-.553-.002z"/><path fill="#1e2a27" d="m36.105 34.374.081-.83.961.972-.036.409-.15.174z"/><path fill="#2f3727" d="m48.983 28.224-.294-.351.07-.954.55-.019-.061 1.282a8 8 0 0 0-.265.042"/><path fill="#2e3527" d="m9.298 54.165.553.002q.03.48.064.96l-.487.028z"/><path fill="#17191b" d="m63.568 32.34-.456.022-.154-1.45.14-.455q.135-.015.272-.017zm-5.772-7.752-.47.082-.142-1.668.42.065zM10.791 35.87a2 2 0 0 1-.275.022l-.155-1.576.437-.028.127 1.138z"/><path fill="#2d3226" d="m50.061 59.674.481-.056.064.947z"/><path fill="#24553a" d="m48.652 32.018.322-.951-.07.997a3 3 0 0 1-.252-.046"/><path fill="#2e3527" d="m8.6 44.559.25 1.117z"/><path fill="#2d3226" d="m50.59 60.548.77.39z"/><path fill="#323827" d="m57.604 23.067-.42-.065c-.001 0-.007-.053-.008-.052l.394-.527z"/><path fill="#2d3226" d="m69.028 66.518-.416.556-.431-.425.432-.494z"/><path fill="#2f3727" d="m50.25 22.106-.237.614-.06-.615z"/><path fill="#2d3226" d="m69.005 18.424.316.316-.41.386-.292-.29z"/><path fill="#2f3727" d="m49.293 22.117-.306-.352z"/><path fill="#3c452a" d="m56.61 32.68-.256-.001.231-.296a.4.4 0 0 1 .026.298m6.644-3.877-.119-.376z"/><path fill="#1d2724" d="M17.89 64.747q.038.114.074.23-.135-.005-.269-.013a.38.38 0 0 1 .195-.217"/><path fill="#24553a" d="M48.983 28.224q.132-.024.265-.042l-.015.342z"/><path fill="#4e6e8a" d="m60.231 57.945 1.036 2.56-1.578.435.247-2.963zm-1.817-3.47-.446-.717.346-.22.456.712zm-11.016 1.897v-1.646q.103 0 .205-.002v1.6a.6.6 0 0 1-.205.048"/><path fill="#3b3a3b" d="M47.398 56.373a.6.6 0 0 0 .206-.048v1.062l-.16.005z"/><path fill="#323827" d="m56.76 60.276-.047.615z"/><path fill="url(#f)" d="m68.619 18.837.291.29c.545 1.482 1.333 2.924 1.586 4.455.55 3.343.83 6.73 1.231 10.199l-4.091.897-.465-3.584-.088-.482-.223-1.782-.169-.834c-.13-1.101-.065-2.281-.46-3.278-.272-.684-1.275-1.625-1.789-1.534-.726.127-1.78 1.054-1.849 1.726-.176 1.712.115 3.472.22 5.213l.145.79.154 1.449.206 3.255-4 .882a.57.57 0 0 0-.152-.278l-.275-2.255-.026-.315-.654-5.785-.206-.835-.11-2.03c.015-.044.05-.093.04-.133-.018-.088-.058-.172-.089-.258l-.05-.022-.192-1.52-.034-.645v-1.91l3.59-.655.274 1.13.07 1.116.134.94.263-.897 1.769-2.992c1.587-1.084 3.226-1.355 4.949-.318m-45.477-.157c-.283 1.309-1.012 2.522-1.569 3.856 2.458.338 3.004 2.352 3.493 4.412l-.043 2.804c-.672 2.7-2.448 4.293-5.083 4.946a237 237 0 0 1-7.775 1.77c-.33.07-.725-.166-1.09-.26l-.15-.782-.127-1.138-.006-.634-.027-.34-2.116-18.88c3.018-.645 5.952-1.438 8.938-1.868 4.024-.578 6.424 2.105 5.555 6.114m25.494 3.108.124 5.13-.071.955-.347 4.17-.388 4.144-3.665-.564-.245-2.104-.975.819-.86.577-.934.346-3.512-.377-.616-.368-.96-.973-.708-1.822-.03-.313.001-1.615.025-.312c.782-2.923 1.812-3.751 4.826-3.892.907-.043 1.863.061 2.7-.203.655-.206 1.527-.807 1.636-1.364.113-.581-.429-1.707-.939-1.892-.679-.246-1.611.156-2.417.354-.194.047-.317.386-.502.63l-3.7-.679c-.044-1.667.723-2.74 2.03-3.419 2.741-1.426 7.945.114 9.527 2.772m-14.66-3.651.425 5.518c-1.93.466-3.357 1.392-3.373 3.58l-.006 2.886v5.073l-3.843.568-.408-3.72-.752-9.983-.087-.45.268-2.008.325-.054 1.943-.27.616-.09.642.353.14 2.943.442.148c.729-1.84.899-4.168 3.668-4.494m20.363.59 1.424 11.397.027.309.272 2.252v1.987l-3.938.879-1.302-10.575-.22-1.122-.09-1.728-.078-.497-.147-2.02zm-9.716 9.211c-1.33.255-2.307.422-3.274.633-1.141.248-1.673 1.12-1.448 2.126.154.695.806 1.68 1.37 1.779.686.12 1.842-.345 2.203-.926.607-.974.746-2.24 1.15-3.612m-26.987-2.552c-.875.174-1.74.395-2.747.627l.554 5.16c1.311-.346 2.52-.538 3.624-.99 1.317-.539 1.783-1.91 1.343-3.371-.43-1.425-1.485-1.683-2.774-1.426m-1.458-7.976c-.711.168-1.422.342-2.238.54l.566 4.73c1.085-.26 1.975-.404 2.819-.689 1.413-.477 1.963-1.798 1.519-3.4-.412-1.485-1.48-1.462-2.666-1.181m37.38-5.63.513 3.813-4.096.945-.513-3.791z"/><path fill="#655f26" d="m10.765 33.314.027.34c-.042-.077-.094-.152-.12-.235-.008-.022.06-.069.093-.105"/><path fill="#323827" d="m35.448 31.409.031.312c-.045-.071-.097-.139-.129-.215-.006-.017.063-.064.098-.097m.027-1.928-.025.312c-.031-.076-.071-.15-.087-.23-.003-.019.073-.054.112-.082"/><path fill="#3c452a" d="m62.958 30.913-.145-.79.284.334zm3.733-2.916"/><path fill="#655f26" d="m67.083 30.612.088.482z"/><path fill="#323827" d="m70.163 59.611.219-.836z"/><path fill="#3c452a" d="m10.925 35.426.15.781-.284-.337z"/><path fill="#655f26" d="m50.434 21.629.077.497a1.2 1.2 0 0 1-.236-.043z"/><path fill="#3c452a" d="m55.79 30.433-.027-.31c.04.071.09.139.116.214.007.02-.057.063-.089.096"/><path fill="#323827" d="m58.005 27.031.206.835zm.86 6.62.026.315c-.045-.072-.097-.141-.128-.219-.006-.016.066-.063.102-.096m.3 2.57a.6.6 0 0 1 .153.278l-.235-.066z"/><path fill="#655f26" d="M57.846 24.61c.032.086.071.17.09.258.008.04-.026.089-.04.133-.045-.087-.1-.171-.129-.264-.01-.031.05-.084.08-.127"/><path fill="#2e3527" d="m50.602 23.854.22 1.122z"/><path fill="#323827" d="m29.084 19.186-.616.091zm-3.152 2.421.087.451zm.593-2.062-.325.054.138-.216z"/><path fill="#2e3527" d="m41.275 35.26.933-.345z"/><path fill="#2f3727" d="m37.147 34.516.616.367-.652.042z"/><path fill="#323827" d="m61.434 20.988-.273-1.13q.156 0 .311.002z"/><path fill="#655f26" d="m9.46 48.385.04.659z"/><path fill="#2e3527" d="m61.901 22.147-.263.897-.133-.94z"/><path fill="#2d3226" d="m31.45 58.337 1.501-2.96-3.177.606-.173 1.811zm2.161-4.031c-.399 1.428-.504 2.656-1.086 3.585-.368.586-1.507 1.073-2.191.957-.575-.096-1.388-1.137-1.375-1.744.015-.716.652-1.684 1.3-2.055.825-.474 1.93-.46 3.352-.743"/><path fill="#303526" d="M15.09 49.065c1.35-.282 2.883.126 3.396-1.405.243-.727.142-1.927-.323-2.457-.886-1.012-2.171-.78-3.403-.198zm-.696-.36-.38-4.62c1.692-.393 3.454-1.03 4.561.432.642.847.793 2.443.513 3.534-.551 2.142-2.692 1.596-4.382 2.084l-.286-1.087c.031-.036.095-.081.088-.106-.025-.083-.074-.159-.114-.237"/><path fill="#655f26" d="M14.394 48.705c.04.078.09.154.114.237.007.025-.057.07-.088.106z"/><path fill="#323827" d="m19.57 26.178-3.965.441.463 3.55 3.82-1.293zm-4.682-.165c1.007-.232 1.872-.453 2.747-.627 1.29-.257 2.344 0 2.774 1.426.44 1.461-.026 2.832-1.343 3.371-1.103.452-2.313.644-3.625.99z"/><path fill="#2f3727" d="m14.67 18.56.435 2.854c2.425-.082 3.817-.67 2.688-3.21-.922.104-1.924.219-3.123.356m-.164 4.12-.566-4.73c.817-.198 1.527-.372 2.238-.54 1.186-.281 2.254-.304 2.666 1.18.444 1.603-.106 2.924-1.52 3.401-.843.285-1.733.43-2.818.688"/><path fill="#323827" d="m40.248 31.234 2.331.66 1.21-2.881-2.917.577zm4.375-3.296c-.403 1.372-.543 2.638-1.149 3.613-.361.58-1.518 1.046-2.204.925-.562-.1-1.215-1.084-1.37-1.779-.224-1.006.308-1.878 1.449-2.126.967-.21 1.944-.378 3.274-.633"/></g></svg>