<svg xmlns="http://www.w3.org/2000/svg" xmlns:xlink="http://www.w3.org/1999/xlink" viewBox="0 0 96 96"><defs><linearGradient id="i" x1="50%" x2="50%" y1="0%" y2="100%"><stop offset="0%" stop-color="#ffe3c6"/><stop offset="100%" stop-color="#f3b18d"/></linearGradient><linearGradient id="j" x1="50%" x2="50%" y1="-24.022%" y2="100%"><stop offset="0%" stop-color="#89e6e9"/><stop offset="100%" stop-color="#17b7c1"/></linearGradient><linearGradient id="k" x1="50%" x2="50%" y1="-24.022%" y2="100%"><stop offset="0%" stop-color="#89e6e9"/><stop offset="100%" stop-color="#17b7c1"/></linearGradient><linearGradient id="o" x1="50%" x2="50%" y1="0%" y2="112.254%"><stop offset="0%" stop-color="#fff3e5"/><stop offset="100%" stop-color="#f5b895"/></linearGradient><linearGradient id="p" x1="50%" x2="50%" y1="0%" y2="112.254%"><stop offset="0%" stop-color="#fff3e5"/><stop offset="100%" stop-color="#f5b895"/></linearGradient><filter id="a" width="129.4%" height="129.6%" x="-14.7%" y="-14.8%" filterUnits="objectBoundingBox"><feOffset dy="2" in="SourceAlpha" result="shadowOffsetOuter1"/><feGaussianBlur in="shadowOffsetOuter1" result="shadowBlurOuter1" stdDeviation="2"/><feColorMatrix in="shadowBlurOuter1" result="shadowMatrixOuter1" values="0 0 0 0 0 0 0 0 0 0 0 0 0 0 0 0 0 0 0.2 0"/><feMerge><feMergeNode in="shadowMatrixOuter1"/><feMergeNode in="SourceGraphic"/></feMerge></filter><filter id="e" width="227.1%" height="329.5%" x="-63.6%" y="-114.8%" filterUnits="objectBoundingBox"><feGaussianBlur in="SourceAlpha" result="shadowBlurInner1" stdDeviation="7"/><feOffset dy="1" in="shadowBlurInner1" result="shadowOffsetInner1"/><feComposite in="shadowOffsetInner1" in2="SourceAlpha" k2="-1" k3="1" operator="arithmetic" result="shadowInnerInner1"/><feColorMatrix in="shadowInnerInner1" values="0 0 0 0 1 0 0 0 0 0.229294143 0 0 0 0 0 0 0 0 0.870055726 0"/></filter><filter id="h" width="118.8%" height="120.3%" x="-9.4%" y="-10.2%" filterUnits="objectBoundingBox"><feGaussianBlur in="SourceAlpha" result="shadowBlurInner1" stdDeviation="7"/><feOffset dy="1" in="shadowBlurInner1" result="shadowOffsetInner1"/><feComposite in="shadowOffsetInner1" in2="SourceAlpha" k2="-1" k3="1" operator="arithmetic" result="shadowInnerInner1"/><feColorMatrix in="shadowInnerInner1" values="0 0 0 0 1 0 0 0 0 0.229294143 0 0 0 0 0 0 0 0 0.870055726 0"/></filter><filter id="n" width="235.4%" height="287.2%" x="-67.7%" y="-93.6%" filterUnits="objectBoundingBox"><feGaussianBlur in="SourceAlpha" result="shadowBlurInner1" stdDeviation="7"/><feOffset dy="1" in="shadowBlurInner1" result="shadowOffsetInner1"/><feComposite in="shadowOffsetInner1" in2="SourceAlpha" k2="-1" k3="1" operator="arithmetic" result="shadowInnerInner1"/><feColorMatrix in="shadowInnerInner1" values="0 0 0 0 1 0 0 0 0 0.229294143 0 0 0 0 0 0 0 0 0.870055726 0"/></filter><radialGradient id="c" cx="50%" cy="0%" r="100%" fx="50%" fy="0%" gradientTransform="matrix(0 1 -.55394 0 .5 -.5)"><stop offset="0%" stop-color="#faf072"/><stop offset="100%" stop-color="#f9f082"/></radialGradient><radialGradient id="g" cx="50%" cy="0%" r="100%" fx="50%" fy="0%" gradientTransform="matrix(0 1 -.92608 0 .5 -.5)"><stop offset="0%" stop-color="#faf072"/><stop offset="100%" stop-color="#f9f082"/></radialGradient><radialGradient id="m" cx="50%" cy="0%" r="100%" fx="50%" fy="0%" gradientTransform="matrix(0 1 -.72326 0 .5 -.5)"><stop offset="0%" stop-color="#faf072"/><stop offset="100%" stop-color="#f9f082"/></radialGradient><path id="b" d="M21.331 26.05 9.433 27.267c-.03 2.401 1.345 3.563-.687 5.754l12.585-1.718z"/><path id="f" d="M15.34 5.622q9.69 3.94 15.44 7.451 5.75 3.513 16.444 12.021 24.834-8.694 28.532-9.736 3.698-1.043 3.013 0-11.822 16.575-13.16 20.645-1.34 4.07-1.59 5.279 12.289 7.989 15.967 10.791t5.134 4.856q-6.053 1.384-17.588-.856c-11.536-2.24-15.665-.856-16.484 0-.818.856-15.002 20.653-17.662 23.26q-2.66 2.608-6.489 5.117 2.979-23.082 2.979-25.73t-.635-5.016q-18.36-2.892-22.088-2.892A33.8 33.8 0 0 1 0 50.073q6.265-5.914 10.725-8.791 4.458-2.877 9.841-4.478.957-3.657 0-11.71-.955-8.053-3.895-16.56z"/><path id="l" d="m19.32 17.707-8.699-1.162c-.029 2.401.157 4.903-1.875 7.095l11.82 1.454z"/></defs><g fill="none" fill-rule="evenodd" filter="url(#a)" transform="translate(5.556 7.927)"><g stroke-linejoin="round"><use xlink:href="#b" fill="url(#c)"/><use xlink:href="#b" fill="#000" filter="url(#e)"/><use xlink:href="#b" stroke="#6e240c"/></g><g stroke-linejoin="round"><use xlink:href="#f" fill="url(#g)"/><use xlink:href="#f" fill="#000" filter="url(#h)"/><use xlink:href="#f" stroke="#6e240c"/></g><path fill="url(#i)" d="m35.996 1.669 9.497-.851L53.91 0l5.04 1.315 3.693 2.34 2.056 4.418.548 5.11-1.688 4.524-2.935 3.113-7.18 2.018-5.252-1.121-5.748-4.379-3.562-3.139-2.176-.624-1.502-.392-.368-2.11.368-2.926v-.551l.792-2.29-.386-1.064-.406-1.175z"/><path fill="url(#j)" d="m42.444 17.707-2.926.5-2.674 2.065-1.64 3.06.89 1.762 2.412 2.8 5.07 2.673 6.868 2.245 6.618 1.923.29-2.366.243-1.802.957-1.368-11.108-3.215-.865-1.132 4.68-1.52.712-.494q-3.722-.909-5.392-1.957t-4.135-3.174"/><path stroke="#6e240c" stroke-linecap="round" stroke-linejoin="round" d="M42.56 17.707q-4.725-.007-7.062 4.545c-2.337 4.553 9.9 9.312 14.996 10.821q5.095 1.509 7.26 1.662-1.122-1.855-.316-3.282.805-1.427 1.114-2.195-5.36-1.82-8.015-2.506t-6.952-1.364"/><path fill="url(#k)" stroke="#6e240c" stroke-linecap="round" stroke-linejoin="round" d="M70.574 23.303c1.214-.945 5.051-1.253 6.679-.463 1.627.79 1.116 3.356.705 4.048-.412.691-4.849 2.02-6.898 2.02q-2.05 0-2.014-.517.316-4.144 1.528-5.088"/><g stroke-linejoin="round"><use xlink:href="#l" fill="url(#m)"/><use xlink:href="#l" fill="#000" filter="url(#n)"/><use xlink:href="#l" stroke="#6e240c"/></g><ellipse cx="7.946" cy="20.284" fill="#a8533c" stroke="#6e240c" rx="2.5" ry="4.524" transform="rotate(21 7.946 20.284)"/><ellipse cx="7.401" cy="31.303" fill="#a8533c" stroke="#6e240c" rx="2.5" ry="4.524" transform="rotate(21 7.4 31.303)"/><path stroke="#6e240c" stroke-linecap="round" stroke-linejoin="round" d="M35.996 1.67Q47.631.663 51.005.16c3.374-.503 10.38-.177 12.904 6.345 2.523 6.523.258 9.444-.93 12.063s-4.043 2.962-6.225 3.71-5.133.747-7.51 0c-2.379-.748-4.835-2.6-7.937-5.947q-3.102-3.347-6.47-3.389m14.793 1.576c4.897 3.398 9.164 2.322 13.013-1.728m-7.149.785 2.101-.785"/><ellipse cx="50.444" cy="9.573" fill="#fff" rx="3" ry="1.5"/><ellipse cx="60.342" cy="8.333" fill="#fff" rx="2.727" ry="1.426" transform="rotate(-14 60.342 8.333)"/><circle cx="50.537" cy="9.573" r="1" fill="#6e240c"/><circle cx="60.625" cy="8.255" r="1" fill="#6e240c"/><path stroke="#6e240c" stroke-linecap="round" stroke-linejoin="round" d="M42.56 4.242q-6.615-1.175-7.356-1.175m6.199 2.555q-4.67-.63-5.793-.631m5.219 3.082-5.625-.955m5.626 4.651q-2.281-1.196-4.137-1.196h-1.857"/><path fill="url(#o)" stroke="#6e240c" stroke-linecap="round" stroke-linejoin="round" d="M69.707 23.398q-1.496-.495-3.973-1.6c-2.478-1.106-2.866-.55-3.09-.18q-.226.368.596 1.78-2.007-.056-2.4.562c-.393.617 1.548 1.577 1.803 1.577s-1.224.765-1.618 1.334q-.394.569 2.474 1.158-.636.643-.55 1.17c.087.527.208.953 1.099.953.572 0 1.733-.27 2.799-.711.592-.245 1.12-.651 1.584-.837"/><path fill="url(#p)" stroke="#6e240c" stroke-linecap="round" stroke-linejoin="round" d="M58.552 29.456c.52-.273 4.091-.515 4.091 0q0 .516-.72 1.111 2.776.624 2.776.985c0 .36-.455 1.244-1.82 1.244-1.367 0 1.762.758 1.448 1.472-.314.715-1.434.467-2.404.467s1.19 1.192.955 1.542-3.124.096-4.326-.723c-1.2-.82-.992-.82-1.242-1.548s-.317-1.715-.111-2.454.833-1.822 1.353-2.096"/></g></svg>