<svg xmlns="http://www.w3.org/2000/svg" xmlns:xlink="http://www.w3.org/1999/xlink" viewBox="0 0 96 96"><defs><filter id="a" width="128.2%" height="127%" x="-14.1%" y="-13.5%" filterUnits="objectBoundingBox"><feOffset dy="2" in="SourceAlpha" result="shadowOffsetOuter1"/><feGaussianBlur in="shadowOffsetOuter1" result="shadowBlurOuter1" stdDeviation="2"/><feColorMatrix in="shadowBlurOuter1" result="shadowMatrixOuter1" values="0 0 0 0 0 0 0 0 0 0 0 0 0 0 0 0 0 0 0.2 0"/><feMerge><feMergeNode in="shadowMatrixOuter1"/><feMergeNode in="SourceGraphic"/></feMerge></filter><filter id="e" width="107.1%" height="106.7%" x="-3.5%" y="-3.4%" filterUnits="objectBoundingBox"><feOffset dx="1" dy="2" in="SourceAlpha" result="shadowOffsetInner1"/><feComposite in="shadowOffsetInner1" in2="SourceAlpha" k2="-1" k3="1" operator="arithmetic" result="shadowInnerInner1"/><feColorMatrix in="shadowInnerInner1" result="shadowMatrixInner1" values="0 0 0 0 1 0 0 0 0 1 0 0 0 0 1 0 0 0 0.5 0"/><feGaussianBlur in="SourceAlpha" result="shadowBlurInner2" stdDeviation="1"/><feOffset dx="3" dy="4" in="shadowBlurInner2" result="shadowOffsetInner2"/><feComposite in="shadowOffsetInner2" in2="SourceAlpha" k2="-1" k3="1" operator="arithmetic" result="shadowInnerInner2"/><feColorMatrix in="shadowInnerInner2" result="shadowMatrixInner2" values="0 0 0 0 1 0 0 0 0 1 0 0 0 0 1 0 0 0 0.252076049 0"/><feMerge><feMergeNode in="shadowMatrixInner1"/><feMergeNode in="shadowMatrixInner2"/></feMerge></filter><linearGradient id="c" x1="50%" x2="50%" y1="0%" y2="95.053%"><stop offset="0%" stop-color="#9ac4e6"/><stop offset="100%" stop-color="#6191c8"/></linearGradient><path id="b" d="M63.351 58.42c-3.1 3.268-30.17 20.125-41.472 24.415S-4 90.758 1.02 70.627C6.035 50.497 25.736 4.506 36.241.602c10.506-3.905 22.104 12.027 27.11 23.789 5.005 11.761 23.095 57.432 21.535 63.711q-1.56 6.28-18.436-31.348-20.303-37.903-25.256-37.903c-4.953 0-18.636 29.096-21.547 34.333S10.021 74.54 14.835 74.54 45.181 63.546 51.42 60.983s15.03-5.831 11.931-2.563"/></defs><g fill="none" fill-rule="evenodd" filter="url(#a)" transform="translate(6.637 3.096)"><use xlink:href="#b" fill="url(#c)"/><use xlink:href="#b" fill="#000" filter="url(#e)"/><path fill="#000" fill-opacity=".235" fill-rule="nonzero" d="m63.351 24.39 1.035 2.468.827 2.005 1.412 3.477 1.581 3.956 1.709 4.34 1.49 3.843.912 2.378 1.226 3.233 1.531 4.1.909 2.469.598 1.643 1.17 3.264.85 2.413.82 2.371.785 2.317.5 1.508.482 1.476.46 1.439.437 1.398.412 1.356.387 1.308.183.635.345 1.232.315 1.175.283 1.116c.802 3.255 1.158 5.662.877 6.792q-.421 1.695-1.96.19l-.233-.24-.246-.276-.259-.311-.134-.169-.276-.363-.143-.195-.296-.416-.307-.452-.32-.486-.332-.522-.344-.556-.356-.592-.37-.627-.575-1.007-.4-.714-.411-.75-.64-1.19-.443-.839-.686-1.322-.473-.926-.732-1.454-1.02-2.061-.796-1.639-.824-1.718-1.142-2.413-.888-1.902-1.228-2.658-.953-2.087-1.313-2.905-.336-.748-1.992-3.695-1.158-2.127-1.131-2.058-1.465-2.638-1.415-2.517-1.367-2.395-.992-1.717-.965-1.649-.937-1.58-.61-1.016-.891-1.467-.864-1.399-.836-1.33-.542-.85-.53-.818-.517-.788-.753-1.126-.486-.713-.707-1.012-.456-.636-.444-.607-.643-.853-.413-.53-.4-.5-.196-.24-.383-.454-.37-.425-.357-.394-.346-.364-.333-.333-.162-.156-.315-.288-.302-.258q-1.186-.97-1.978-.97c-.851 0-1.96.86-3.228 2.31l-.386.452-.394.487-.402.518-.41.55-.417.578-.424.605-.43.631-.435.656-.44.678-.668 1.055-.449.728-.452.744-.91 1.532-.913 1.58-.685 1.21-.908 1.634-.9 1.646-1.004 1.873-1.427 2.705-1.13 2.179-2.052 4.008-1.97 3.865-.624 1.2-.403.752-.086.157q-.147.265-.307.565l-.329.634-.348.695-.363.751-.376.8q-.095.206-.19.417l-.387.863-.39.896-.389.925-.193.47-.381.954-.373.967-.241.648-.235.648-.319.918-.202.608-.287.903-.178.593-.166.584-.155.574-.14.563-.066.276-.12.542-.104.526-.089.509c-.426 2.665-.122 4.527 1.515 4.527.48 0 1.17-.11 2.025-.31l.533-.131.572-.152.924-.264.659-.2.69-.217 1.09-.357.76-.257 1.186-.412 1.235-.44 1.713-.628 1.773-.666 2.74-1.054 1.858-.73 1.665-.661 2.673-1.076 4.047-1.656 10.442-4.346.966-.394 1.244-.5 1.552-.605 1.559-.587 1.263-.454.97-.333.695-.228.663-.205.42-.124.596-.163.371-.093.35-.08.325-.065.3-.05.139-.02.258-.025.23-.01c.82 0 .96.392.03 1.373l-.1.102-.242.228-.298.259-.35.288-.4.316-.45.344-.762.562-.862.617-.626.439-1.013.696-.721.488-1.545 1.028-1.668 1.087-1.776 1.138-1.394.88-1.44.899-1.979 1.219-2.549 1.544-2.08 1.238-2.102 1.231-2.632 1.513-1.57.886-1.556.865-1.536.84-1.508.809-1.474.776-1.435.737-.93.469-.909.448-.883.427-.858.404-.829.38-.403.181-.783.343-.38.16-.732.302-.697.272-1.025.384-1.04.376-1.05.366-.703.235-.706.228-.706.22-.706.209-.704.198-.702.186-.698.173-.347.081-.69.151q-.517.108-1.024.196l-.673.11c-7.683 1.146-13.55-1.43-10.087-15.32l.155-.612.336-1.268q.088-.325.18-.656l.386-1.353q.201-.69.417-1.405l.448-1.454.478-1.5.249-.765.52-1.563q.132-.394.27-.795l.559-1.617q.142-.41.289-.822l.596-1.665q.151-.42.307-.843l.63-1.706.323-.862.663-1.739.682-1.757.7-1.771.718-1.784.366-.895.742-1.794.757-1.798.383-.899.777-1.797.788-1.792.8-1.783q.2-.446.402-.888l.813-1.766q.203-.44.41-.877l.823-1.74.83-1.719C24.335 13.569 31.305 2.437 36.242.602c5.358-1.992 11 1.177 15.907 6.32l.574.614q.143.155.284.313l.563.64.555.654.547.668.27.34.535.688.264.348.52.704.257.356.506.718q.126.18.25.363l.49.73.481.735.47.74.23.373.452.746.221.373.434.75.422.748.408.749.396.746.381.743.368.74.354.733.338.727.324.72zm-1.057.45-.197-.456-.402-.908a67 67 0 0 0-.839-1.786l-.436-.877-.221-.434-.452-.86-.461-.848q-.233-.42-.47-.835l-.48-.821-.489-.808-.496-.793-.504-.778-.512-.762q-.258-.378-.519-.746l-.525-.73-.532-.711-.537-.694q-.54-.684-1.09-1.331l-.553-.636-.556-.616C46.904 2.859 41.31-.056 36.643 1.679c-3.057 1.136-7.457 6.973-12.147 15.126l-.807 1.42-.81 1.463q-.814 1.483-1.632 3.042l-.817 1.575q-.41.795-.817 1.607l-.816 1.636-.813 1.662-.81 1.687-.403.851-.801 1.718q-.399.864-.795 1.735l-.787 1.75-.39.88-.773 1.766-.382.886-.756 1.778-.743 1.781-.367.892-.722 1.782-.707 1.78q-.348.888-.69 1.774l-.671 1.766a232 232 0 0 0-2.193 6.08l-.577 1.697-.552 1.674q-.405 1.247-.78 2.463L3.6 65.556a127 127 0 0 0-1.467 5.35c-2.171 8.71-.742 12.847 3.467 13.865 2.847.689 6.782.076 12.004-1.636l1.062-.357q.81-.279 1.657-.59l1.15-.428q.348-.133.726-.286l.782-.326.833-.365.436-.196.905-.42.95-.452.99-.484.51-.253 1.044-.527 1.078-.554 1.107-.579 1.133-.6 1.741-.94 1.782-.98 1.205-.67 1.825-1.03 1.836-1.052 1.837-1.066 1.826-1.074 1.206-.718 1.194-.716 1.177-.712 1.73-1.058L51 65.662l1.08-.679 1.561-.993 1.477-.956.933-.614.887-.592.84-.569.787-.544.733-.516.675-.487.613-.455.549-.423.372-.3-.123.035q-.313.086-.658.188l-.722.224-.781.256-.413.141-.868.305-.454.164-.948.35-.999.38-1.734.679-1.22.49-8.801 3.665-3.968 1.637-1.508.616-2.516 1.019-2.778 1.107-2.154.845-2.033.784-1.91.722-1.353.5-1.282.464-1.6.561-1.116.378-1.044.34-.972.302-.607.18-.574.162-.542.145-.258.066-.492.118-.458.1-.425.084-.391.064-.357.046q-.34.038-.612.038c-2.231 0-3.038-1.881-2.794-4.703.166-1.93.812-4.466 1.83-7.405l.195-.556.238-.659.243-.652.215-.561.444-1.126c1.06-2.626 2.254-5.212 3.232-7.026l.334-.62 5.072-9.845 1.638-3.152 1.335-2.526 1.107-2.045.862-1.566.836-1.493.543-.955.794-1.37.768-1.298.5-.824.487-.79.478-.758.467-.725.457-.69.224-.334.442-.64.432-.607q.106-.148.213-.291l.417-.556.408-.523.399-.488q.393-.472.77-.874l.37-.386c1.286-1.289 2.41-1.944 3.404-1.944.724 0 1.585.402 2.592 1.213l.341.286q.348.3.716.663l.374.377.385.408.197.215.402.454.414.485.21.253.431.531.442.562.454.593.465.624.477.655.489.687.5.717.513.75.791 1.182.819 1.253.56.875.865 1.372.892 1.444 1.234 2.036.959 1.612.655 1.114 1.348 2.325.694 1.212.706 1.243 1.453 2.584 1.506 2.715 1.165 2.122 1.195 2.196 1.642 3.043.418.78 1.678 3.715.968 2.12 1.55 3.348.89 1.9.863 1.817 1.106 2.295 1.054 2.148 1.003 2.002.482.946.7 1.35.67 1.268.641 1.186.412.744.398.707.386.671.188.322q.222.376.434.727l.414.672.2.317.384.591.185.275.354.51.169.234.322.427q.39.5.71.825l.157.153.007-.041c.064-.62-.026-1.577-.248-2.82l-.135-.704-.077-.374-.173-.786-.096-.413-.21-.864-.233-.913-.256-.961-.137-.497-.289-1.029-.31-1.07-.33-1.112-.35-1.151-.37-1.189-.587-1.848-.413-1.273-.65-1.967-.684-2.03-.474-1.386-.987-2.84-.512-1.45-1.057-2.954-1.097-3.01-.844-2.286-.861-2.304-1.17-3.089-1.187-3.094-.9-2.316-1.208-3.069-.605-1.522-1.21-3.011-.903-2.222-1.196-2.902-1.18-2.82z"/></g></svg>