<svg xmlns="http://www.w3.org/2000/svg" viewBox="0 0 64 64"><path d="M4 27c.048 6.272 5.728 11.952 12 12v-8h4c1.078 0 1.993 1.02 2 2s-1.02 2-2 2h-2v4h20V27Z" opacity=".2"/><path fill="#9e9e9e" d="M4 26c.048 6.272 5.728 11.952 12 12v-8h4c1.078 0 1.993 1.02 2 2s-1.02 2-2 2h-2v4h20V26Z"/><path d="M45.227 23.5 13.184 5c-2.858 4.946-.531 15.94 6.857 20.124l18.186 10.5z" opacity=".2"/><path fill="#ccc" d="M45.227 22.5 13.184 4c-2.858 4.946-.531 15.94 6.857 20.124l18.186 10.5z"/><path fill="#fff" d="M13.184 4c-.853 1.476-1.241 3.49-1.174 5.701.062-1.815.451-3.451 1.174-4.701l31.609 18.25.434-.75z" opacity=".2"/><rect width="16.204" height="52.664" x="44.93" y="-22.8" opacity=".2" rx="8.102" transform="rotate(45)"/><rect width="16.204" height="52.664" x="44.22" y="-23.5" fill="#df574d" rx="8.102" transform="rotate(45)"/><path fill="#fff" d="M47.89 18a8.08 8.08 0 0 0-5.728 2.38L16.381 46.163a8.07 8.07 0 0 0-2.358 6.229 8.07 8.07 0 0 1 2.358-5.229l25.781-25.781a8.083 8.083 0 0 1 11.457 0 8.07 8.07 0 0 1 2.358 5.228 8.07 8.07 0 0 0-2.358-6.228A8.08 8.08 0 0 0 47.891 18" opacity=".2"/><path fill="#757575" d="m19.134 10 10.392 6a1 1 165 0 1-1.366.366l-8.66-5A1 1 75 0 1 19.134 10"/><path fill="#f5f5f5" d="m25.102 44.66 1.415 1.415-7.072 7.071-1.414-1.414zm2.829 2.83 1.414 1.414-7.071 7.07-1.414-1.414z"/><path fill="#f5f5f5" d="m22.274 44.66 7.07 7.072-1.413 1.414-7.071-7.07zm-2.829 2.83 7.072 7.07-1.415 1.415-7.07-7.071z"/></svg>