<svg xmlns="http://www.w3.org/2000/svg" xmlns:xlink="http://www.w3.org/1999/xlink" viewBox="0 0 96 96"><defs><linearGradient id="b" x1="50%" x2="50%" y1="0%" y2="99.183%"><stop offset="0%" stop-color="#ffa852"/><stop offset="100%" stop-color="#d5530f"/></linearGradient><linearGradient id="c" x1="63.52%" x2="36.052%" y1="3.905%" y2="97.553%"><stop offset="0%" stop-color="#ffe192"/><stop offset="100%" stop-color="#ffd157"/></linearGradient><linearGradient id="d" x1="64.37%" x2="35.63%" y1="2.447%" y2="97.553%"><stop offset="1.532%" stop-color="#ffe192"/><stop offset="100%" stop-color="#ffd157"/></linearGradient><filter id="a" width="128.6%" height="128.6%" x="-14.3%" y="-14.3%" filterUnits="objectBoundingBox"><feOffset dy="2" in="SourceAlpha" result="shadowOffsetOuter1"/><feGaussianBlur in="shadowOffsetOuter1" result="shadowBlurOuter1" stdDeviation="2"/><feColorMatrix in="shadowBlurOuter1" result="shadowMatrixOuter1" values="0 0 0 0 0 0 0 0 0 0 0 0 0 0 0 0 0 0 0.2 0"/><feMerge><feMergeNode in="shadowMatrixOuter1"/><feMergeNode in="SourceGraphic"/></feMerge></filter></defs><g fill="none" fill-rule="evenodd" filter="url(#a)" transform="translate(6 6)"><circle cx="42" cy="42" r="42" fill="url(#b)"/><path fill="url(#c)" d="M14.988 48.67c6.018 1.956 12.77-2.225 15.082-9.338 2.31-7.112-.695-14.464-6.713-16.42-6.019-1.955-12.771 2.226-15.082 9.339s.694 14.464 6.713 16.42"/><path fill="url(#d)" d="M61.317 66.729c3.952 2.47 9.8.239 13.064-4.983 3.262-5.221 2.703-11.456-1.249-13.926s-9.801-.238-13.064 4.983-2.703 11.456 1.249 13.926"/><path fill="#fbfcf7" d="M15.168 43.11c2.966.964 6.23-.901 7.292-4.166 1.06-3.265-.484-6.693-3.45-7.657s-6.231.901-7.292 4.166.484 6.693 3.45 7.657m51.746 17.704c2.373.772 5.007-.786 5.882-3.48.875-2.692-.34-5.5-2.713-6.272-2.374-.771-5.008.787-5.883 3.48s.34 5.501 2.714 6.272"/></g></svg>