<svg xmlns="http://www.w3.org/2000/svg" xmlns:xlink="http://www.w3.org/1999/xlink" viewBox="0 0 96 96"><defs><filter id="a" width="130.8%" height="130.8%" x="-15.4%" y="-15.4%" filterUnits="objectBoundingBox"><feOffset dy="2" in="SourceAlpha" result="shadowOffsetOuter1"/><feGaussianBlur in="shadowOffsetOuter1" result="shadowBlurOuter1" stdDeviation="2"/><feColorMatrix in="shadowBlurOuter1" result="shadowMatrixOuter1" values="0 0 0 0 0 0 0 0 0 0 0 0 0 0 0 0 0 0 0.2 0"/><feMerge><feMergeNode in="shadowMatrixOuter1"/><feMergeNode in="SourceGraphic"/></feMerge></filter></defs><g fill="none" fill-rule="evenodd" filter="url(#a)" transform="translate(9 9)"><rect width="78" height="78" fill="#fff" rx="18"/><path fill="#414d68" fill-rule="nonzero" d="M56.393 31.603c-.636-4.788-4.273-8.713-8.795-9.462-3.294-.544-6.349.52-8.596 2.556-2.247-2.036-5.306-3.1-8.6-2.556-4.522.749-8.164 4.674-8.795 9.467-.479 3.615.686 6.943 2.802 9.304l-.01.01 14.035 14.831c.311.33.82.33 1.137 0l14.034-14.831-.01-.01c2.112-2.365 3.277-5.694 2.798-9.31"/></g></svg>