<svg xmlns="http://www.w3.org/2000/svg" xmlns:xlink="http://www.w3.org/1999/xlink" viewBox="0 0 128 128"><defs><linearGradient id="b" x1="50%" x2="50%" y1="0%" y2="100%"><stop offset="0%" stop-color="#fdd7a7"/><stop offset="100%" stop-color="#c78051"/></linearGradient><linearGradient id="c" x1="50%" x2="50%" y1="0%" y2="100%"><stop offset="0%" stop-color="#fff" stop-opacity=".2"/><stop offset="100%" stop-color="#fff" stop-opacity=".05"/></linearGradient><linearGradient id="d" x1="50%" x2="50%" y1="0%" y2="100%"><stop offset="0%" stop-color="#edbd8d"/><stop offset="100%" stop-color="#ae6633"/></linearGradient><radialGradient id="e" cx="50%" cy="25.241%" r="74.759%" fx="50%" fy="25.241%"><stop offset="0%" stop-color="#767676"/><stop offset="100%"/></radialGradient><radialGradient id="f" cx="50%" cy="32.875%" r="67.125%" fx="50%" fy="32.875%"><stop offset="0%" stop-color="#fffbfb"/><stop offset="37.61%" stop-color="#fffbfb"/><stop offset="100%" stop-color="#c8cbe4"/></radialGradient><filter id="a" width="119.2%" height="119.2%" x="-9.6%" y="-7.7%" filterUnits="objectBoundingBox"><feOffset dy="2" in="SourceAlpha" result="shadowOffsetOuter1"/><feGaussianBlur in="shadowOffsetOuter1" result="shadowBlurOuter1" stdDeviation="3"/><feColorMatrix in="shadowBlurOuter1" result="shadowMatrixOuter1" values="0 0 0 0 0 0 0 0 0 0 0 0 0 0 0 0 0 0 0.2 0"/><feMerge><feMergeNode in="shadowMatrixOuter1"/><feMergeNode in="SourceGraphic"/></feMerge></filter><path id="g" fill="#000" d="M10.4 0C4.656 0 0 4.656 0 10.4s4.656 10.4 10.4 10.4 10.4-4.656 10.4-10.4S16.144 0 10.4 0m0 .945a9.455 9.455 0 1 1 0 18.91 9.455 9.455 0 0 1 0-18.91"/></defs><g fill="none" fill-rule="evenodd" filter="url(#a)" transform="translate(12 12)"><rect width="104" height="104" fill="url(#b)" rx="20"/><path fill="url(#c)" fill-rule="nonzero" d="M84 0c11.046 0 20 8.954 20 20v64c0 11.046-8.954 20-20 20H20C8.954 104 0 95.046 0 84V20C0 8.954 8.954 0 20 0zm0 4H20C11.163 4 4 11.163 4 20v64c0 8.837 7.163 16 16 16h64c8.837 0 16-7.163 16-16V20c0-8.837-7.163-16-16-16"/><path fill="url(#d)" d="M28 4v19h23V4h4v19h21.999L77 4h4l-.001 19H100v4H80.999v22H100v4.099l-19.001-.001V76H100v4H80.999L81 100h-4l-.001-20H55v20h-4V80H28v20h-4V80H4v-4h20V53.098H4V49h20V27H4v-4h20V4zm23 49.098H28V76h23zm25.999 0H55V76h21.999zM51 27H28v22h23zm25.999 0H55v22h21.999z" opacity=".698"/><circle cx="78.473" cy="78.473" r="9.455" fill="url(#e)"/><circle cx="52.945" cy="25.527" r="9.455" fill="url(#e)"/><circle cx="25.527" cy="52" r="9.455" fill="url(#e)"/><path fill="#000" fill-opacity=".2" fill-rule="nonzero" d="M78.473 68.073c-5.744 0-10.4 4.656-10.4 10.4 0 5.743 4.656 10.4 10.4 10.4 5.743 0 10.4-4.657 10.4-10.4s-4.657-10.4-10.4-10.4m0 .945a9.455 9.455 0 1 1 0 18.91 9.455 9.455 0 0 1 0-18.91M52.945 15.127c-5.743 0-10.4 4.657-10.4 10.4s4.657 10.4 10.4 10.4 10.4-4.656 10.4-10.4c0-5.743-4.656-10.4-10.4-10.4m0 .946a9.455 9.455 0 1 1 0 18.909 9.455 9.455 0 0 1 0-18.91M25.527 41.6c-5.743 0-10.4 4.656-10.4 10.4s4.657 10.4 10.4 10.4 10.4-4.656 10.4-10.4-4.656-10.4-10.4-10.4m0 .945a9.455 9.455 0 1 1 0 18.91 9.455 9.455 0 0 1 0-18.91"/><g transform="translate(15.127 15.127)"><circle cx="10.4" cy="10.4" r="9.455" fill="url(#f)"/><use xlink:href="#g" fill-opacity=".097" fill-rule="nonzero"/></g><g transform="translate(42.545 41.6)"><circle cx="10.4" cy="10.4" r="9.455" fill="url(#f)"/><use xlink:href="#g" fill-opacity=".097" fill-rule="nonzero"/></g></g></svg>