<svg xmlns="http://www.w3.org/2000/svg" xmlns:xlink="http://www.w3.org/1999/xlink" viewBox="0 0 96 96"><defs><linearGradient id="b" x1="50%" x2="50%" y1=".83%" y2="100%"><stop offset="0%" stop-color="#34c2ff"/><stop offset="100%" stop-color="#0079df"/></linearGradient><filter id="a" width="128.6%" height="128.6%" x="-14.3%" y="-14.3%" filterUnits="objectBoundingBox"><feOffset dy="2" in="SourceAlpha" result="shadowOffsetOuter1"/><feGaussianBlur in="shadowOffsetOuter1" result="shadowBlurOuter1" stdDeviation="2"/><feColorMatrix in="shadowBlurOuter1" result="shadowMatrixOuter1" values="0 0 0 0 0 0 0 0 0 0 0 0 0 0 0 0 0 0 0.2 0"/><feMerge><feMergeNode in="shadowMatrixOuter1"/><feMergeNode in="SourceGraphic"/></feMerge></filter></defs><g fill="none" fill-rule="evenodd" filter="url(#a)" transform="translate(6 6)"><path fill="url(#b)" fill-rule="nonzero" d="M42 0C18.804 0 0 18.804 0 42s18.804 42 42 42 42-18.804 42-42S65.196 0 42 0"/><path fill="#fff" d="M42 20c7.617 0 14.33 3.87 18.278 9.752l-8.61 6.997A11 11 0 0 0 42 31c-6.075 0-11 4.925-11 11s4.925 11 11 11a11 11 0 0 0 9.805-6.008l8.502 7.213C56.362 60.11 49.635 64 42 64c-12.15 0-22-9.85-22-22s9.85-22 22-22"/></g></svg>