<svg xmlns="http://www.w3.org/2000/svg" xmlns:xlink="http://www.w3.org/1999/xlink" viewBox="0 0 96 96"><defs><filter id="a" width="127.8%" height="127.3%" x="-13.9%" y="-13.6%" filterUnits="objectBoundingBox"><feOffset dy="2" in="SourceAlpha" result="shadowOffsetOuter1"/><feGaussianBlur in="shadowOffsetOuter1" result="shadowBlurOuter1" stdDeviation="2"/><feColorMatrix in="shadowBlurOuter1" result="shadowMatrixOuter1" values="0 0 0 0 0 0 0 0 0 0 0 0 0 0 0 0 0 0 0.2 0"/><feMerge><feMergeNode in="shadowMatrixOuter1"/><feMergeNode in="SourceGraphic"/></feMerge></filter><filter id="b" width="184.2%" height="144.7%" x="-42.1%" y="-22.4%" filterUnits="objectBoundingBox"><feOffset dy="2" in="SourceAlpha" result="shadowOffsetOuter1"/><feGaussianBlur in="shadowOffsetOuter1" result="shadowBlurOuter1" stdDeviation="2"/><feColorMatrix in="shadowBlurOuter1" result="shadowMatrixOuter1" values="0 0 0 0 0 0 0 0 0 0 0 0 0 0 0 0 0 0 0.2 0"/><feMerge><feMergeNode in="shadowMatrixOuter1"/><feMergeNode in="SourceGraphic"/></feMerge></filter><linearGradient id="c" x1="50%" x2="50%" y1="0%" y2="100%"><stop offset="0%" stop-color="#727272"/><stop offset="100%" stop-color="#3f3f3f"/></linearGradient></defs><g fill="none" fill-rule="evenodd" filter="url(#a)" transform="translate(3.477 3.949)"><path fill="#fce94f" d="M3 45.026Q16.103 29.98 23.046 22.939 29.991 15.895 44.432 3 57.986 16.055 64.53 22.939T83.404 44Q70.397 58.388 63.503 65.285T42.415 85Q31.158 74.075 24.03 66.848 16.905 59.619 3 45.026"/><path fill="#000" fill-opacity=".699" fill-rule="nonzero" d="m42.434.762-3.581 3.212-2.798 2.531-1.598 1.455-2.526 2.32-1.435 1.328-1.818 1.697-2.12 2.003-1.19 1.139-1.494 1.444-1.049 1.028-.988.98-.927.934-.883.902-.614.634-1.289 1.349-1.37 1.455-1.453 1.561-1.93 2.101-2.485 2.74-1.759 1.96-2.314 2.6-1.943 2.2-2.025 2.307-1.573 1.8-.534.613a3 3 0 0 0 .09 4.04l7.888 8.255 6.618 6.876 3.361 3.462 3.2 3.266 1.852 1.871 2.497 2.501 2.698 2.681 3.505 3.456 3.141 3.078 4.036 3.931.701.68a3 3 0 0 0 4.1.074l4.082-3.7 3.24-2.964 2.029-1.868 1.451-1.345 2.726-2.546 2.09-1.975 1.553-1.483 1.448-1.399 1.343-1.312.938-.93 1.193-1.197 1.595-1.629 1.727-1.79 1.858-1.952 1.583-1.68 1.242-1.326 2.176-2.342 3.269-3.552 2.494-2.731 3.167-3.493a3 3 0 0 0 .038-3.98l-3.556-4.076-1.918-2.183-2.718-3.077-2.53-2.84-2.343-2.601-1.457-1.603-1.703-1.855-1.573-1.691-1.165-1.234-1.13-1.18-1.224-1.264-1.318-1.346-1.905-1.924-1.786-1.787-2.018-2.002-2.718-2.675-2.937-2.867-2.507-2.432L46.514.839a3 3 0 0 0-4.08-.077M44.432 3l4.411 4.266 3.527 3.438 2.775 2.73 2.949 2.93 2.28 2.295 1.392 1.417 1.9 1.959 1.144 1.2 1.484 1.58 1.282 1.383 1.365 1.489 2.59 2.86 2.009 2.24 2.139 2.405 2.27 2.571 2.896 3.303L83.404 44l-3.664 4.037-2.457 2.689-2.775 3.012-2.165 2.33-1.638 1.748-2.296 2.427-1.425 1.488-1.662 1.713-.934.95-1.485 1.489-1.28 1.26-1.028 1-1.847 1.776-2.013 1.91-2.632 2.468-2.87 2.662-2.574 2.365-3.307 3.016L42.415 85l-2.75-2.673-4.502-4.401-1.808-1.778-2.298-2.269-3.205-3.187-2.914-2.927-2.116-2.147-3.417-3.502-3.14-3.243-4.433-4.607L3 45.026l2.61-2.987 1.995-2.27 2.38-2.686 2.25-2.52 1.708-1.897 2.02-2.22 1.524-1.657 1.441-1.55 1.36-1.443 1.277-1.337.904-.932.876-.89 1.264-1.263.672-.663 1.427-1.39 1.935-1.856 2.106-1.989 1.806-1.686 1.915-1.771 2.024-1.856 2.682-2.439 1.691-1.527 2.954-2.65z"/><g filter="url(#b)" transform="translate(28.323 14.866)"><path fill="url(#c)" d="M9.134 52.034q-1.27-1.512-.851-31.835a1 1 0 0 0-1-1.014H1.886a1 1 0 0 1-.827-1.561L12.203 1.19a1 1 0 0 1 1.642-.019l11.702 16.433a1 1 0 0 1-.814 1.58h-5.396a1 1 0 0 0-.994.897q-.537 5.195 1.073 8.537c1.747 3.626 3.82 7.025 6.083 9.37s4.086 6.084 2.277 7.628q-1.809 1.545-6.18-2.888-2.1-1.95-3.147-1.421c-1.046.528-.344 11.726-.691 12.181-.348.455-7.333.081-8.624-1.455"/><path fill="#000" fill-opacity=".427" fill-rule="nonzero" d="M13.592.924a1 1 0 0 1 .253.248l11.702 16.433a1 1 0 0 1-.814 1.58h-5.396a1 1 0 0 0-.994.897q-.537 5.195 1.073 8.537c1.66 3.445 3.613 6.685 5.745 9.01l.338.36q.387.402.75.848l.284.363.138.185.265.377c1.467 2.158 2.238 4.662.84 5.855q-1.809 1.545-6.18-2.888-2.1-1.95-3.147-1.421c-.21.106-.35.646-.442 1.445l-.04.386-.046.64-.024.46-.027.735-.017.773-.009.8-.002 1.216.023 3.44-.005 1.07-.017.6-.023.33-.02.156a.3.3 0 0 1-.042.13c-.057.074-.29.126-.645.155l-.333.019-.386.007h-.21l-.451-.011-.485-.023-.512-.036-.263-.022-.538-.054-.272-.032-.547-.074c-1.73-.253-3.412-.705-3.982-1.384l-.026-.035-.05-.086-.05-.112-.048-.136-.047-.16-.045-.185-.044-.21-.063-.359-.04-.27-.076-.615-.07-.713-.05-.599-.045-.653-.056-.958-.05-1.056-.074-2.083-.042-1.671-.033-1.825-.028-2.392-.018-4 .009-3.973.037-4.938.05-4.184.008-.622a1 1 0 0 0-.87-1.006l-.13-.008H1.886a1 1 0 0 1-.827-1.561L12.203 1.19a1 1 0 0 1 1.389-.267m-.562.828L1.886 18.185H7.31a2 2 0 0 1 1.972 2.028l-.046 3.764-.033 3.528-.016 2.651-.008 3.693.009 2.817.017 2.083.026 1.931.025 1.349.04 1.623.046 1.37.068 1.55.061 1.099.066.97.068.833.034.364.069.62.05.366.034.196.048.22.03.096q.015.037.03.055c.196.233.802.486 1.66.704l.413.098.22.047.46.09.488.08.511.073.264.032c.9.106 1.81.16 2.522.155l.188-.003.225-.009.013-.726-.022-4.17.002-1.346.013-1.208.018-.796.028-.708.04-.624.034-.373.02-.173.044-.324c.16-1.025.448-1.538.958-1.795 1.205-.609 2.595.02 4.31 1.612l.23.232.447.434c2.18 2.067 3.572 2.65 4.14 2.164.974-.831-.002-3.639-2.154-5.969l-.193-.204c-2.203-2.283-4.324-5.603-6.264-9.631-1.162-2.412-1.543-5.44-1.167-9.074a2 2 0 0 1 1.829-1.788l.16-.006h5.396z"/></g></g></svg>