<svg xmlns="http://www.w3.org/2000/svg" viewBox="0 0 64 64"><path d="M36 6c-.999-.406-3.001-1-4-1s-3.001.594-4 1l-16 6c-1.148.461-2 1.076-2 2 0 1 .23 1.493.5 2.5L20 50s.404 1.161 1 2c.546.769 2 2 2 2l7 6s1.255 1 2 1 2-1 2-1l7-6s1.432-1.248 2-2c.592-.784 1-2 1-2l9.5-33.5c.317-.99.5-1.5.5-2.5 0-.884-.64-1.513-2-2Z" opacity=".2"/><path fill="#50beee" d="M36 5c-.999-.406-3.001-1-4-1s-3.001.594-4 1l-16 6c-1.148.461-2 1.076-2 2 0 1 .23 1.493.5 2.5L20 49s.404 1.161 1 2c.546.769 2 2 2 2l7 6s1.255 1 2 1 2-1 2-1l7-6s1.432-1.248 2-2c.592-.784 1-2 1-2l9.5-33.5c.317-.99.5-1.5.5-2.5 0-.884-.64-1.513-2-2Z"/><path d="m32 13-4 6 2.5 24.5L32 45l1.5-1.5L36 19Zm-7 32-1 2 1 2 5-.5 1-1.5-1-1.5Zm14 0-5 .5-1 1.5 1 1.5 5 .5 1-2Zm-7 4-1.5 1.5L30 55l2 1 2-1-.5-4.5Z" opacity=".2"/><path fill="#4f4f4f" d="m32 12-4 6 2.5 24.5L32 44l1.5-1.5L36 18Zm-7 32-1 2 1 2 5-.5 1-1.5-1-1.5Zm14 0-5 .5-1 1.5 1 1.5 5 .5 1-2Zm-7 4-1.5 1.5L30 54l2 1 2-1-.5-4.5Z"/><path fill="#fff" d="M32 4c-.999 0-3.001.594-4 1l-16 6c-1.148.461-2 1.076-2 2 0 .248.016.463.041.664.181-.741.956-1.261 1.959-1.664l16-6c.999-.406 3.001-1 4-1s3.001.594 4 1l16 6c1.183.424 1.821.955 1.967 1.668A6 6 0 0 0 54 13c0-.884-.64-1.513-2-2L36 5c-.999-.406-3.001-1-4-1" opacity=".2"/><path fill="#fff" d="m32 12-4 6 .088.867L32 13l3.912 5.867L36 18zm-7 32-1 2 .25.5L25 45l5 .5.666 1L31 46l-1-1.5zm14 0-5 .5-1 1.5.334.5.666-1 5-.5.75 1.5.25-.5zm-7 4-1.5 1.5L30 54l.105.053.395-3.553L32 49l1.5 1.5.395 3.553L34 54l-.5-4.5z" opacity=".1"/></svg>