<svg xmlns="http://www.w3.org/2000/svg" viewBox="0 0 64 64"><path d="M17.047 4.974c-.984.02-1.934.412-2.914 1.425-1.197 1.132-1.948 2.28-2.84 4.344-.53 1.233-.402 2.533.875 3.547 1.984 1.915 5.307 3.597 10.09 5.75l7.277-.79 1.297-3.062c-3.614-3.465-3.819-7.637-10.66-10.433-1.122-.455-2.14-.802-3.125-.781m29.914 0c-.984-.021-2.003.326-3.125.78-6.842 2.797-7.046 6.969-10.66 10.434l1.297 3.063 7.277.789c4.782-2.153 8.106-3.835 10.09-5.75 1.276-1.014 1.405-2.314.875-3.547-.892-2.065-1.644-3.212-2.84-4.344-.98-1.013-1.93-1.404-2.914-1.425" opacity=".2"/><rect width="42" height="35.417" x="11" y="25.58" opacity=".2" ry="3.472"/><path fill="#f44336" d="M20.173 4.754c6.841 2.796 7.046 6.969 10.66 10.434l-1.298 3.062-7.277.788c-4.782-2.153-8.107-3.835-10.09-5.75-1.277-1.014-1.404-2.311-.874-3.544.892-2.065 1.643-3.216 2.84-4.347 1.96-2.027 3.795-1.552 6.039-.643"/><ellipse cx="24.317" cy="4.526" fill="#d52215" rx="7.583" ry="1.664" transform="rotate(26.771)"/><path fill="#f44336" d="M43.835 4.754c-6.842 2.796-7.046 6.969-10.661 10.434l1.298 3.062 7.277.788c4.783-2.153 8.107-3.835 10.091-5.75 1.277-1.014 1.403-2.311.873-3.544-.892-2.065-1.643-3.216-2.84-4.347-1.96-2.027-3.795-1.552-6.038-.643"/><ellipse cx="-32.823" cy="33.354" fill="#d52215" rx="7.583" ry="1.664" transform="rotate(153.229)scale(1 -1)"/><rect width="42" height="35.417" x="11" y="24.58" fill="#fea214" ry="3.472"/><path fill="#3f3f3f" d="M41.93 40q-1.432-.001-2.864.176a25 25 0 0 0-2.855.504v3.25a9.3 9.3 0 0 1 2.273-.825 12 12 0 0 1 2.645-.273q1.755 0 2.582.477c.552.31.828.622.828 1.296v.336h-2.61c-2.385-.128-4.14.364-5.261 1.094-1.112.73-1.668 2.058-1.668 3.621q0 1.928 1.336 3.14Q37.683 54 39.832 54q1.595 0 2.707-.547c.741-.373 1.669-.964 2.262-1.773V54H49v-7.953q0-3.204-1.668-4.621Q45.675 39.998 41.93 40m-.192 7H44v.555q-.001 1.478-.842 2.468-.839.977-2.064.977-.985 0-1.545-.516Q39 49.957 39 49.035q0-1.004.682-1.52.694-.515 2.056-.515m-14.669 3h-7.258l-1.145 4H14l6.667-18h5.534l6.667 18h-4.666zm-5.843-4h4.416l-2.202-5.78z"/><path fill="#f44336" d="M27 25.77h10v34.226H27z"/><rect width="50" height="12" x="7" y="19" opacity=".2" ry="3"/><rect width="50" height="12" x="7" y="18" fill="#ffc936" ry="3"/><path fill="#fff" d="M17.047 3.973c-.984.02-1.934.412-2.914 1.425-1.197 1.132-1.948 2.28-2.84 4.344-.258.6-.356 1.217-.244 1.809q.072-.406.244-.809c.892-2.065 1.643-3.212 2.84-4.344.98-1.013 1.93-1.404 2.914-1.425s2.003.327 3.125.78c6.645 2.717 7.037 6.728 10.365 10.132l.295-.697c-3.614-3.466-3.819-7.638-10.66-10.434-1.122-.454-2.14-.802-3.125-.781m29.914 0c-.984-.021-2.003.327-3.125.78-6.842 2.797-7.046 6.969-10.66 10.435l.295.697c3.328-3.404 3.72-7.415 10.365-10.131 1.122-.454 2.14-.802 3.125-.781.984.02 1.933.412 2.914 1.425 1.196 1.132 1.948 2.28 2.84 4.344q.172.402.244.809c.111-.592.014-1.208-.244-1.809-.892-2.065-1.644-3.212-2.84-4.344-.98-1.013-1.93-1.404-2.914-1.425" opacity=".2"/><circle cx="32" cy="18" r="4" fill="#d52215"/><path fill="#f44336" d="M27 18h10v12H27z"/><path fill="#fff" d="M10 18c-1.662 0-3 1.338-3 3v1c0-1.662 1.338-3 3-3h44c1.662 0 3 1.338 3 3v-1c0-1.662-1.338-3-3-3z" opacity=".2"/></svg>