<svg xmlns="http://www.w3.org/2000/svg" xmlns:xlink="http://www.w3.org/1999/xlink" viewBox="0 0 96 96"><defs><filter id="a" width="128.6%" height="128.6%" x="-14.3%" y="-14.3%" filterUnits="objectBoundingBox"><feOffset dy="2" in="SourceAlpha" result="shadowOffsetOuter1"/><feGaussianBlur in="shadowOffsetOuter1" result="shadowBlurOuter1" stdDeviation="2"/><feColorMatrix in="shadowBlurOuter1" result="shadowMatrixOuter1" values="0 0 0 0 0 0 0 0 0 0 0 0 0 0 0 0 0 0 0.2 0"/><feMerge><feMergeNode in="shadowMatrixOuter1"/><feMergeNode in="SourceGraphic"/></feMerge></filter></defs><g fill="none" fill-rule="evenodd" filter="url(#a)" transform="translate(6 6)"><circle cx="42" cy="42" r="42" fill="#313a43"/><path fill="#6c63ff" d="m16.175 8.876.362.662 1.05 1.47q1.038 1.467 2.028 2.917l.978 1.445q1.93 2.88 3.67 5.692l.857 1.402q.422.698.832 1.392l.81 1.384Q39.906 48 39.906 66l-.005 1.429-.013 1.387-.022 1.346-.032 1.304-.019.637-.045 1.242-.053 1.2-.063 1.159-.072 1.117q-.018.275-.039.543l-.085 1.055q-.044.517-.094 1.013l-.103.972a52 52 0 0 1-.5 3.472C17.078 82.223 0 64.106 0 42 0 28.542 6.33 16.562 16.175 8.876"/><path fill="#ff6363" d="m67.732 8.876-.362.662-1.05 1.47a213 213 0 0 0-2.028 2.917l-.978 1.445a184 184 0 0 0-3.67 5.692l-.857 1.402q-.422.698-.833 1.392l-.808 1.384Q44 48 44 66l.004 1.429.014 1.387.022 1.346.032 1.304.019.637.044 1.242.054 1.2.063 1.159.071 1.117.04.543.085 1.055q.044.517.094 1.013l.102.972q.215 1.902.502 3.472c21.682-1.653 38.76-19.77 38.76-41.876 0-13.458-6.33-25.438-16.174-33.124"/><path fill="#fff" d="M42.882 12c.928 0 1.68.994 1.68 2.22 0 .966-.467 1.788-1.12 2.093v3.573q.342.086.665.218l1.715-2.941c-.412-.587-.402-1.531.086-2.368.62-1.062 1.773-1.55 2.577-1.09s.954 1.693.335 2.755c-.488.836-1.308 1.317-2.027 1.258l-1.705 2.925c1.558 1.096 2.607 3.137 2.607 5.844q0 1.832-.705 4.124l-.134.42a17 17 0 0 0-.854 5.103 85 85 0 0 0 .073 5.223c.145 2.936 1.16 5.362 2.388 7.696l.395.735.2.366 1.246 2.223.371.677.371.697.367.717c1.634 3.27 3.019 7.152 2.543 11.808q-.073.713-.256 1.543l-.135.567-.16.593-.183.618-.1.32-.221.657-.246.684-.131.351-.357.907-.394.948q-.165.387-.344.788l-.368.813-.598 1.27-.429.878-.454.905-.478.93-.504.957-.527.982-.552 1.009-.577 1.034-.412.729a42.5 42.5 0 0 1-7.82.114l-8.66-17.597c.53-6.03 2-11.286 5.256-16.122l.451-.676.622-.96.38-.604.18-.292.34-.563.313-.536.289-.51.264-.483.24-.458.216-.433.194-.41.09-.195.16-.373.142-.351.12-.328.102-.307.083-.285q.037-.137.065-.264l.047-.244.031-.224.01-.105.008-.196c.055-3.392-.335-5.332-1.009-6.984l-.174-.407-.185-.4-.197-.396-.206-.396-1.164-2.122-.553-.343-3.73-2.364 4.934-4.391q1.248-2.572 3.015-3.412l-1.414-2.424c-.72.059-1.54-.422-2.027-1.258-.619-1.062-.469-2.296.335-2.755s1.958.028 2.577 1.09c.453.777.494 1.647.168 2.237l-.082.131 1.536 2.634q.36-.06.74-.061l.104.001v-3.423c-.653-.305-1.12-1.127-1.12-2.094 0-1.226.752-2.22 1.68-2.22"/><path fill="#ffd563" d="M81.375 28.969C62.603 44.059 47.665 62.485 42.05 84c24.797-.124 41.941-19.777 41.941-42.031 0-4.364-.665-8.573-1.9-12.53q-.168-.585-.318-.684-.088-.058-.4.214"/><path fill="#63e4ff" d="M2.617 29C21.39 44.09 36.385 62.485 42 84 17.475 83.876 0 64.254 0 42c0-4.364.666-8.573 1.9-12.53q.12-.57.24-.646.12-.08.477.176"/></g></svg>