<svg xmlns="http://www.w3.org/2000/svg" xmlns:xlink="http://www.w3.org/1999/xlink" viewBox="0 0 96 96"><defs><linearGradient id="b" x1="50%" x2="50%" y1="0%" y2="100%"><stop offset="0%" stop-color="#2a1b01"/><stop offset="100%" stop-color="#1e0b00"/></linearGradient><linearGradient id="c" x1="50%" x2="50%" y1="0%" y2="100%"><stop offset="0%" stop-color="#ff9d00"/><stop offset="100%" stop-color="#ef8500"/></linearGradient><filter id="a" width="130.8%" height="130.8%" x="-15.4%" y="-15.4%" filterUnits="objectBoundingBox"><feOffset dy="2" in="SourceAlpha" result="shadowOffsetOuter1"/><feGaussianBlur in="shadowOffsetOuter1" result="shadowBlurOuter1" stdDeviation="2"/><feColorMatrix in="shadowBlurOuter1" result="shadowMatrixOuter1" values="0 0 0 0 0 0 0 0 0 0 0 0 0 0 0 0 0 0 0.2 0"/><feMerge><feMergeNode in="shadowMatrixOuter1"/><feMergeNode in="SourceGraphic"/></feMerge></filter></defs><g fill="none" fill-rule="evenodd" filter="url(#a)" transform="translate(9 9)"><rect width="78" height="78" fill="url(#b)" rx="18"/><path fill="url(#c)" fill-rule="nonzero" d="M60 0c9.941 0 18 8.059 18 18v42c0 9.941-8.059 18-18 18H18C8.059 78 0 69.941 0 60V18C0 8.059 8.059 0 18 0zm0 8H18c-5.43 0-9.848 4.327-9.996 9.72L8 18v42c0 5.43 4.327 9.848 9.72 9.996L18 70h42c5.43 0 9.848-4.327 9.996-9.72L70 60V18c0-5.43-4.327-9.848-9.72-9.996z"/><path fill="#fa9500" d="M49.787 28.8c.892 0 2.185-6.27.892-7.282-.242-.19-12.693-4.705-20.883 2.806-1.528 1.402-3.528 3.86-4.675 7.45-.657 2.059-1.121 3.63-1.121 7.293 0 3.662 1.21 9.983 5.796 14.502 2.625 2.587 6.514 4.156 10.602 4.399 1.732.103 4.54-.016 7.86-.755 1.44-.321 3.584-.321 3.714-1.22.13-.898-.13-7.379-2.185-7.379s-8.162 3.108-13.165-1.44c-3.227-2.932-3.618-7.168-2.948-10.872.369-2.038 1.584-4.57 2.948-5.924 3.845-3.813 12.272-1.578 13.165-1.578"/></g></svg>