<svg xmlns="http://www.w3.org/2000/svg" xmlns:xlink="http://www.w3.org/1999/xlink" viewBox="0 0 96 96"><defs><linearGradient id="b" x1="50%" x2="50%" y1="0%" y2="100%"><stop offset="0%" stop-color="#45bfff"/><stop offset="100%" stop-color="#3f54d2"/></linearGradient><filter id="a" width="129.3%" height="130.4%" x="-14.6%" y="-15.2%" filterUnits="objectBoundingBox"><feOffset dy="2" in="SourceAlpha" result="shadowOffsetOuter1"/><feGaussianBlur in="shadowOffsetOuter1" result="shadowBlurOuter1" stdDeviation="2"/><feColorMatrix in="shadowBlurOuter1" result="shadowMatrixOuter1" values="0 0 0 0 0 0 0 0 0 0 0 0 0 0 0 0 0 0 0.2 0"/><feMerge><feMergeNode in="shadowMatrixOuter1"/><feMergeNode in="SourceGraphic"/></feMerge></filter></defs><g fill="none" fill-rule="evenodd" filter="url(#a)" transform="translate(7 12)"><path fill="url(#b)" d="M8 0h66a8 8 0 0 1 8 8v44a8 8 0 0 1-8 8H41.799L23.314 76.111A2 2 0 0 1 20 74.604V60H8a8 8 0 0 1-8-8V8a8 8 0 0 1 8-8"/><path fill="#fff" fill-opacity=".858" d="M50 10q10.076 7.597 10 19 0 11.154-10 21l-2-2q6-10.362 6-19t-6-17zM29 39v6a4 4 0 0 1-4 4h-2v-2l.15-.005a2 2 0 0 0 1.844-1.838L25 45h-2v-6zm18-13v6H35v-6zM29 14v6h-6v-6z"/></g></svg>