<svg xmlns="http://www.w3.org/2000/svg" xmlns:xlink="http://www.w3.org/1999/xlink" viewBox="0 0 96 96"><defs><linearGradient id="b" x1="50%" x2="50%" y1="0%" y2="100%"><stop offset="0%" stop-color="#ecf4f9"/><stop offset="100%" stop-color="#d5e6f0"/></linearGradient><filter id="a" width="127.7%" height="127.9%" x="-13.8%" y="-14%" filterUnits="objectBoundingBox"><feOffset dy="2" in="SourceAlpha" result="shadowOffsetOuter1"/><feGaussianBlur in="shadowOffsetOuter1" result="shadowBlurOuter1" stdDeviation="2"/><feColorMatrix in="shadowBlurOuter1" result="shadowMatrixOuter1" values="0 0 0 0 0 0 0 0 0 0 0 0 0 0 0 0 0 0 0.2 0"/><feMerge><feMergeNode in="shadowMatrixOuter1"/><feMergeNode in="SourceGraphic"/></feMerge></filter></defs><g fill="none" filter="url(#a)" transform="translate(5 5)"><circle cx="43.42" cy="43.394" r="42" fill="url(#b)"/><path fill="#6576ff" d="M45.752 64.232c11.29 0 20.442-9.126 20.442-20.384 0-11.257-9.152-20.383-20.442-20.383S25.311 32.59 25.311 43.848s9.152 20.384 20.441 20.384m-3.337-3.328c7.603 0 13.767-6.146 13.767-13.728s-6.164-13.728-13.767-13.728-13.767 6.146-13.767 13.728 6.164 13.728 13.767 13.728"/><path fill="#85a2c4" d="M65.882 35.298C57.872 12.035 41.552-3.578 29.105.708c-12.448 4.287-15.696 26.637-7.686 49.9s24.33 38.876 36.778 34.59c12.448-4.287 15.695-26.637 7.685-49.9M23.42 49.394c-7.697-22.355-4.063-41.19 7-45 11.064-3.81 26.303 9.645 34 32 7.698 22.355 2 42-7 45-11.063 3.81-26.302-9.645-34-32"/><path fill="#85a2c4" d="M39.655 29.704C15.79 36.098-1.941 47.094.17 54.974s22.965 8.535 46.828 2.141 41.596-17.39 39.484-25.27-22.965-8.535-46.828-2.141m6.827 25.48c-22.739 6.092-40.402 5.402-42.062-.79s13.013-16.665 35.752-22.758 40.59-5.434 42.248.758c1.66 6.192-13.2 16.697-35.938 22.79"/><path fill="#6576ff" d="M45.752 23.465c-10.868 0-19.756 8.458-20.403 19.133 4.289-5.544 12.232-11.15 20.403-10.204 6.436.744 19.668 15 19.668 15s1-2 .772-3.834c-.155-11.125-9.247-20.095-20.44-20.095"/><ellipse cx="36.071" cy="57.16" fill="#70b5cd" rx="7.092" ry="7.072"/><path fill="#ff6c28" d="M60.268 35.112c6.22 0 11.263-5.028 11.263-11.231s-5.043-11.232-11.263-11.232c-6.221 0-11.264 5.029-11.264 11.232s5.043 11.231 11.264 11.231"/></g></svg>