<svg xmlns="http://www.w3.org/2000/svg" xmlns:xlink="http://www.w3.org/1999/xlink" viewBox="0 0 96 96"><defs><linearGradient id="b" x1="72.887%" x2="48.089%" y1="51.138%" y2="12.844%"><stop offset="0%" stop-color="#1b1b1b"/><stop offset="100%" stop-color="#595959"/></linearGradient><linearGradient id="c" x1="50%" x2="50%" y1="2.969%" y2="100%"><stop offset="0%" stop-opacity=".86"/><stop offset="100%" stop-opacity=".704"/></linearGradient><linearGradient id="d" x1="50%" x2="50%" y1="3.991%" y2="98.388%"><stop offset="0%" stop-color="#ff4d89"/><stop offset="100%" stop-color="#930000"/></linearGradient><linearGradient id="e" x1="50%" x2="50%" y1="3.991%" y2="98.388%"><stop offset="0%" stop-color="#ff4d89"/><stop offset="100%" stop-color="#930000"/></linearGradient><linearGradient id="f" x1="50%" x2="50%" y1="3.991%" y2="98.388%"><stop offset="0%" stop-color="#ff4d89"/><stop offset="100%" stop-color="#930000"/></linearGradient><linearGradient id="g" x1="50%" x2="15.091%" y1="34.61%" y2="76.647%"><stop offset="0%" stop-opacity=".362"/><stop offset="100%"/></linearGradient><linearGradient id="h" x1="50%" x2="15.091%" y1="33.652%" y2="78.306%"><stop offset="0%" stop-opacity=".362"/><stop offset="100%"/></linearGradient><linearGradient id="i" x1="50%" x2="15.091%" y1="31.519%" y2="82%"><stop offset="0%" stop-opacity=".362"/><stop offset="100%"/></linearGradient><filter id="a" width="127.5%" height="128.7%" x="-13.7%" y="-14.4%" filterUnits="objectBoundingBox"><feOffset dy="2" in="SourceAlpha" result="shadowOffsetOuter1"/><feGaussianBlur in="shadowOffsetOuter1" result="shadowBlurOuter1" stdDeviation="2"/><feColorMatrix in="shadowBlurOuter1" result="shadowMatrixOuter1" values="0 0 0 0 0 0 0 0 0 0 0 0 0 0 0 0 0 0 0.2 0"/><feMerge><feMergeNode in="shadowMatrixOuter1"/><feMergeNode in="SourceGraphic"/></feMerge></filter></defs><g fill="none" fill-rule="evenodd" filter="url(#a)" transform="translate(4 6)"><path fill="url(#b)" fill-rule="nonzero" d="M1 82.499q1.73-8.304 4.156-11.652 2.37-3.267 8.016-4.404a1 1 0 0 0 .496-.26l26.36-25.367a1 1 0 0 0 .145-1.265l-.944-1.454a1 1 0 0 1 .125-1.246l10.023-10.197a1 1 0 0 0-.77-1.699l-15.846.91a1 1 0 0 0-.502.17L29.045 28.2a.943.943 0 0 1-1.257-.184.913.913 0 0 1 .085-1.249l1.792-1.665a1 1 0 0 0 .32-.733v-4.55a1 1 0 0 1 .49-.862l1.217-.718a1 1 0 0 1 1.326.284l1.44 2.043a1 1 0 0 0 1.287.306l2.147-1.144a.612.612 0 0 1 .892.44l.008.1a.724.724 0 0 0 .963.683l24.107-8.431a1 1 0 0 0 .527-.429l4.874-8.107a1 1 0 0 1 .265-.291l3.405-2.5a1 1 0 0 1 1.587.715l.548 5.985a1 1 0 0 0 .37.688l2.728 2.193a1 1 0 0 1 .31 1.132l-1.6 4.253a1 1 0 0 0-.059.251l-.832 8.221a1 1 0 0 0 .025.344L82.8 52.05a1 1 0 0 0 1.536.581l1.748-1.199a.807.807 0 0 1 1.117.202.81.81 0 0 1-.187 1.123l-10.44 7.604a.74.74 0 0 1-.959-.079l-.078-.095a.807.807 0 0 1 .152-1.088l1.712-1.394a1 1 0 0 0 .23-1.283L63.442 32.345a1 1 0 0 0-1.369-.354l-.062.04-14.795 10.252a1 1 0 0 1-.458.172l-3.835.433a1 1 0 0 0-.595.287L27.24 58.285 16.725 68.662a1 1 0 0 0-.297.752q.2 4.893-3.81 8.064-4.185 3.31-11.617 5.022"/><path fill="url(#c)" fill-rule="nonzero" d="m72.341.388-3.405 2.5a2 2 0 0 0-.53.582l-4.874 8.107-23.786 8.318-.023-.093a1.612 1.612 0 0 0-2.302-.956l-2.146 1.145-1.44-2.042a2 2 0 0 0-2.652-.57l-1.216.719a2 2 0 0 0-.982 1.721v4.551l-1.793 1.666a1.913 1.913 0 0 0-.177 2.615c.636.775 1.757.94 2.589.379l3.214-2.166 15.846-.91L38.64 36.15a2 2 0 0 0-.251 2.491l.944 1.455-26.36 25.367c-3.991.804-6.884 2.393-8.627 4.797C2.627 72.632 1.2 76.633.022 82.295a1 1 0 0 0 1.203 1.178c5.089-1.171 9.095-2.903 12.014-5.212 2.826-2.235 4.242-5.11 4.198-8.543l-.01-.345 10.527-10.386 14.725-14.75.117-.126a2 2 0 0 0 .085-2.463l-.927-1.274 33.47-30.99a2 2 0 0 0 .633-1.65l-.54-5.916A2 2 0 0 0 72.34.388m1.99 1.02a1 1 0 0 1 .19.501l.54 5.917a1 1 0 0 1-.316.825L40.622 40.244l1.45 1.992a1 1 0 0 1-.1 1.295l-14.73 14.755L16.724 68.66a1 1 0 0 0-.297.752q.2 4.893-3.81 8.064Q8.432 80.786 1 82.498q1.728-8.304 4.155-11.652 2.37-3.267 8.016-4.404a1 1 0 0 0 .496-.26l26.36-25.367a1 1 0 0 0 .145-1.265l-.944-1.454a1 1 0 0 1 .125-1.246l10.023-10.197a1 1 0 0 0-.77-1.699l-15.846.91a1 1 0 0 0-.502.17L29.045 28.2a.943.943 0 0 1-1.257-.184.913.913 0 0 1 .085-1.249l1.792-1.665a1 1 0 0 0 .32-.733v-4.55a1 1 0 0 1 .49-.862l1.217-.718a1 1 0 0 1 1.326.284l1.44 2.043a1 1 0 0 0 1.287.306l2.147-1.144a.612.612 0 0 1 .892.44l.008.1a.724.724 0 0 0 .963.683l24.107-8.431a1 1 0 0 0 .527-.429l4.874-8.107a1 1 0 0 1 .265-.291l3.405-2.5a1 1 0 0 1 1.398.214"/><path fill="url(#d)" fill-rule="nonzero" d="m40.332 40.167.29.077 1.503 2.075.013.02a1 1 0 0 1-.166 1.192L27.537 57.99l-2.6-2.652 15.09-14.52a1 1 0 0 0 .305-.65"/><path fill="url(#e)" fill-rule="nonzero" d="m60.212 13.8-6.714 6.309-5.3 1.144-2.271 3.265-4.534.273 1.783-2.748-4.066.931-1.322 1.817-2.414.222 1.17-1.571-2.028.37 1.102-1.425 3.902-1.396z"/><path fill="url(#f)" fill-rule="nonzero" d="m76.012 25.013-7.769 6.258 2.692 6.24-3.095 2.293 2.904 4.968 3.16-1.845 2.494 5.288-2.685 1.686 2.075 3.411 2.196-1.406 1.357 2.216 3.44-2.216z"/><path stroke="url(#g)" stroke-linecap="round" stroke-linejoin="round" d="m65.267 18.427 4.026 5.305 3.241-2.652"/><path stroke="url(#h)" stroke-linecap="round" stroke-linejoin="round" d="m62.367 20.76 3.831 5.374 3.311-2.687"/><path stroke="url(#i)" stroke-linecap="round" stroke-linejoin="round" d="m68.767 29.927-4 3"/></g></svg>