<svg xmlns="http://www.w3.org/2000/svg" xmlns:xlink="http://www.w3.org/1999/xlink" viewBox="0 0 96 96"><defs><filter id="a" width="130.8%" height="130.8%" x="-15.4%" y="-15.4%" filterUnits="objectBoundingBox"><feOffset dy="2" in="SourceAlpha" result="shadowOffsetOuter1"/><feGaussianBlur in="shadowOffsetOuter1" result="shadowBlurOuter1" stdDeviation="2"/><feColorMatrix in="shadowBlurOuter1" result="shadowMatrixOuter1" values="0 0 0 0 0 0 0 0 0 0 0 0 0 0 0 0 0 0 0.2 0"/><feMerge><feMergeNode in="shadowMatrixOuter1"/><feMergeNode in="SourceGraphic"/></feMerge></filter></defs><g fill="none" fill-rule="evenodd" filter="url(#a)" transform="translate(9 9)"><rect width="78" height="78" fill="#fff" rx="18"/><path fill="#5e4d9d" d="M45.199 23.33c2.788 2.584.289 5.727.976 8.852 3.236-2.6 4.31-6.569 6.96-9.396-1.64 5.421-4.686 9.978-8.62 14.001-1.754 1.305-3.511 1.49-5.27.006l.645-5.12c-2.018 2.26-3.477 4.328-5.672 5.567-4.09 2.306-8.03.318-7.622-4.293.676-7.652 4.07-14.072 10.585-18.462 2.04-1.375 4.48-1.726 6.699-.207 2.387 1.634 3.114 4.066 2.91 6.875-.084 1.15-.644 1.831-1.656 2.235-.337-.804-.662-1.608-.91-2.452-1.075-3.673-2.876-4.15-5.38-1.324-2.871 3.241-4.544 7.138-5.661 11.28-.223.83-.505 1.848.48 2.351.965.492 1.636-.334 2.223-.945 2.107-2.197 3.592-4.7 4.34-7.726.782-3.152 2.36-3.456 4.973-1.243"/><path fill="#5c4095" d="m39.246 36.793 5.27-.006c-.902 4.032-1.16 8.23-3.038 12.014-1.82 1.68-3.871 1.79-6.07.898-1.117-2.052.423-3.74.749-5.704-3.113 2.563-5.352 5.703-7.101 9.252-.577 1.17-.768 2.66-2.24 3.232-.966-.147-.742-1.046-1.027-1.624 1.624-5.767 5.554-9.935 9.715-13.926 1.348-1.294 2.837-2.448 3.742-4.136"/><path fill="#4e2a7c" d="m25.789 54.856.868 1.657c1.048 2.517 2.369 3.516 4.424.843.37-.481.945-.722 1.568-.804 1.782.328 3.865.168 4.314 2.655-.3.533-.531 1.122-.91 1.592-2.767 3.437-6.087 4.729-8.642 3.403-2.688-1.396-3.28-4.797-1.622-9.346"/><path fill="#56308a" d="M36.963 59.206c-1.218-1.405-3.147-1.326-4.613-2.215-.382-3.114.786-5.554 3.24-7.43 1.856-1.077 4.04.39 5.889-.76-1.62 3.42-1.874 7.43-4.516 10.405"/><path fill="#f4f3f4" d="M45.199 23.33c-2.133-.998-3.721-1.859-4.155 1.924-.398 3.457-2.657 6.405-5.287 8.827-.73.671-1.615 1.374-2.678.9-1.061-.473-1.25-1.576-1.086-2.579.95-5.81 3.204-11.037 7.674-14.997 2.23-1.975 4.675-1.037 5.339 1.885.297 1.308.102 2.727.13 4.097zm-9.61 26.23-3.24 7.433c-.268.386-.513.793-.811 1.157-1.006 1.23-1.936 3.035-3.753 2.524-2.188-.616-1.046-2.671-1.128-4.16 2.223-5.904 5.45-11.093 10.88-15.21.015 3.13-1.695 5.54-1.947 8.257"/></g></svg>