<svg xmlns="http://www.w3.org/2000/svg" xmlns:xlink="http://www.w3.org/1999/xlink" viewBox="0 0 96 96"><defs><filter id="a" width="128.8%" height="131.6%" x="-14.4%" y="-15.8%" filterUnits="objectBoundingBox"><feOffset dy="2" in="SourceAlpha" result="shadowOffsetOuter1"/><feGaussianBlur in="shadowOffsetOuter1" result="shadowBlurOuter1" stdDeviation="2"/><feColorMatrix in="shadowBlurOuter1" result="shadowMatrixOuter1" values="0 0 0 0 0 0 0 0 0 0 0 0 0 0 0 0 0 0 0.2 0"/><feMerge><feMergeNode in="shadowMatrixOuter1"/><feMergeNode in="SourceGraphic"/></feMerge></filter></defs><g fill="none" filter="url(#a)" transform="translate(6 10)"><path fill="#4c4026" d="M29 24v5l-14 3L3 44l-3 6v14l5 12h4l9-9h8l9 8 12 1 14-2s11-4 9-21-6-20-6-20L47 18l-13 2z"/><path fill="#a58660" d="m10.937 50.116 11 10 3-3.116v-3.884h2l1 5L23 63l10.937-2L44 54.116V45l-7.063-8.884-2 4-1-7-2 2-3 10-7 7-2 2-1-5z"/><path fill="#866e53" d="m31 62 12-8v-8l9-5-6-5-6-3-4-1-1-1 7-3-11-5s5.137-6.287 14-4 17 12 17 12l7 13 2 16-2 9s-3 5-8 6-14 0-14 0l-8-1-5-6 10-1 2-5h-2l-2 3s-8.141.266-10 0c-2.756-.394-1-3-1-3"/><path fill="#746043" d="M5 66s11 3 17-6c0 0-11-7-14-18 0 0-5 3-5 5l4 1s-4 6-4 11c0 0 2-4 7-6z"/><path fill="#b89873" d="m10 50 3 2 6-2v5l11-8s2-11 6-16c0 0-17-1-22 4l7 8z"/><path fill="#b09a7f" d="M20.559 65.344 27 59l11.336 4.344 2.223 2z"/><path fill="#20170f" d="m39 38-1 3 5 5 9-5-2-2z"/><path fill="#b9956e" d="M52 41v18l8 5-4-19z"/><path fill="#c8c8c8" d="M29 24s16-10 26 6c9 3 7 1 7-5-21-22-33-1-33-1"/><path fill="#746043" d="m35 44-3-11 4-2s10 1 14 8H40z"/><path fill="#000" d="m67.09 41.996.082-.005a8.06 8.06 0 0 1 3.67.7c3.12 1.43 4.532 4.79 3.18 11.1-1.521 7.1.217 12.212 4.064 15.541 1.726 1.494 3.454 2.306 4.65 2.633l.527-1.93a8 8 0 0 1-1.168-.46 11.8 11.8 0 0 1-2.7-1.755c-3.298-2.854-4.785-7.227-3.417-13.61 1.538-7.176-.276-11.492-4.302-13.337a10 10 0 0 0-4.602-.88c-.123.007-.123.007-.165.011z"/><ellipse cx="61" cy="35" fill="#d8d8d8" rx="9" ry="12"/><ellipse cx="64" cy="35" fill="#898888" rx="6" ry="8"/><ellipse cx="65" cy="35" fill="#5e5d5d" rx="5" ry="6"/><path fill="#000" d="M22 5c.258.042 2 0 3 2 1.26 2.519 3.965 1.43 3.965 1.43C26 8 27.479 5.48 25 3c-1-1-3-2-3-2 0-.552-.444-1-.998-1h-.098a1 1 0 0 0-.997 1.018v11.42c-.82-.469-1.823-.745-2.907-.745-2.761 0-5 1.791-5 4s2.239 4 5 4 5-1.79 5-4zm55.216 1.506L71.87 3.782l-3.632 7.128c-.273.535-1.32 1.183-2.821 1.183-1.657 0-3-.896-3-2s1.343-2 3-2c.675 0 1.298.149 1.8.4L71.47.212l8.89 4.53-4.54 8.91c-.454.89-1.461 1.706-2.968 1.706-1.657 0-3-.896-3-2s1.343-2 3-2c.675 0 1.138.243 1.64.494z"/></g></svg>