<svg xmlns="http://www.w3.org/2000/svg" xmlns:xlink="http://www.w3.org/1999/xlink" viewBox="0 0 96 96"><defs><linearGradient id="b" x1="50%" x2="50%" y1="0%" y2="100%"><stop offset="0%" stop-color="#24e7a7"/><stop offset="100%" stop-color="#04a4f9"/></linearGradient><linearGradient id="c" x1="63.985%" x2="40.654%" y1="-6.26%" y2="109.421%"><stop offset="0%" stop-color="#24e7a7"/><stop offset="100%" stop-color="#6affb3"/></linearGradient><filter id="a" width="127.8%" height="128.1%" x="-13.9%" y="-14%" filterUnits="objectBoundingBox"><feOffset dy="2" in="SourceAlpha" result="shadowOffsetOuter1"/><feGaussianBlur in="shadowOffsetOuter1" result="shadowBlurOuter1" stdDeviation="2"/><feColorMatrix in="shadowBlurOuter1" result="shadowMatrixOuter1" values="0 0 0 0 0 0 0 0 0 0 0 0 0 0 0 0 0 0 0.2 0"/><feMerge><feMergeNode in="shadowMatrixOuter1"/><feMergeNode in="SourceGraphic"/></feMerge></filter></defs><g fill="none" fill-rule="evenodd" filter="url(#a)" transform="translate(5.549 5.36)"><path fill="url(#b)" d="M4.545 28.874c2.576-5.202 6.85-8.864 11.386-12.196C26.615 8.83 38.895 4.343 51.342.268c2.388-.781 3.243.159 2.429 2.63-1.76 5.34-1.586 10.799-1.191 16.343.57 8.011.77 16.055-1.082 23.978-1.218 5.215-3.296 10.01-6.977 14.001l-.598.692-.306.357-.306.358c-6.695 7.882-15.694 11.446-25.45 13.605-3.923.868-4.44.524-4.2-3.535.472-8.012 1.493-15.926 4.941-23.315 1.26-5.393 4.89-9.791 6.558-15.057-1.919 1.02-3.101 2.613-4.22 4.24l-.627.915c-.315.456-.634.907-.974 1.34l-.346.428c-7.651 14.2-11.128 29.474-11.778 45.49-.041 1.02.506 2.639-1.225 2.7-1.531.055-2.666-1.089-2.692-2.603-.049-2.855-.022-5.747.389-8.564.492-3.37.224-6.518-.76-9.798-2.964-9.902-4.283-19.927-1.03-30.07.63-1.959 1.317-3.901 2.648-5.529l.355.397z"/><path fill="url(#c)" d="M28.378 75.641c4.889-2.639 9.777-4.815 14.044-8.15C52.32 59.758 57.49 49.537 58.39 37.13c.314-4.337.266-8.712.166-13.064-.049-2.116.407-3.157 2.762-3.212 7.568-.178 15.127-.2 22.67.538 1.866.182 3.151.948 1.528 2.78-4.573 5.16-6.225 11.645-8.373 17.898-2.127 6.195-4.467 12.284-8 17.836-6.56 10.312-16.046 15.71-28.17 16.543-4.204.288-8.401.137-12.595-.808"/><path fill="#32acd1" d="M43.923 57.912q.3-.345.598-.692z"/></g></svg>