<svg xmlns="http://www.w3.org/2000/svg" xmlns:xlink="http://www.w3.org/1999/xlink" viewBox="0 0 96 96"><defs><linearGradient id="b" x1="50%" x2="50%" y1="2.879%" y2="98.123%"><stop offset="0%" stop-color="#fffbe4"/><stop offset="100%" stop-color="#e8da90"/></linearGradient><linearGradient id="c" x1="50%" x2="50%" y1="-35.132%" y2="265.381%"><stop offset="0%" stop-color="#4673d5"/><stop offset="100%" stop-color="#4e7bdb"/></linearGradient><linearGradient id="d" x1="49.658%" x2="33.197%" y1="39.536%" y2="61.893%"><stop offset="0%" stop-color="#5491fe"/><stop offset="100%" stop-color="#012ca2"/></linearGradient><linearGradient id="e" x1="49.902%" x2="22.212%" y1="39.148%" y2="60.929%"><stop offset="0%" stop-color="#4d87ee"/><stop offset="100%" stop-color="#012ca2"/></linearGradient><linearGradient id="f" x1="50%" x2="50%" y1="0%" y2="100%"><stop offset="0%" stop-color="#8abeed"/><stop offset="100%" stop-color="#00449f"/></linearGradient><linearGradient id="g" x1="12.205%" x2="69.277%" y1="-27.603%" y2="123.016%"><stop offset="0%" stop-color="#6dc9ff"/><stop offset="100%" stop-color="#15007b"/></linearGradient><filter id="a" width="130.8%" height="130.8%" x="-15.4%" y="-15.4%" filterUnits="objectBoundingBox"><feOffset dy="2" in="SourceAlpha" result="shadowOffsetOuter1"/><feGaussianBlur in="shadowOffsetOuter1" result="shadowBlurOuter1" stdDeviation="2"/><feColorMatrix in="shadowBlurOuter1" result="shadowMatrixOuter1" values="0 0 0 0 0 0 0 0 0 0 0 0 0 0 0 0 0 0 0.2 0"/><feMerge><feMergeNode in="shadowMatrixOuter1"/><feMergeNode in="SourceGraphic"/></feMerge></filter></defs><g fill="none" fill-rule="evenodd" filter="url(#a)" transform="translate(9 9)"><path fill="url(#b)" fill-rule="nonzero" d="M18 0h42c9.941 0 18 8.059 18 18v42c0 9.941-8.059 18-18 18H18C8.059 78 0 69.941 0 60V18C0 8.059 8.059 0 18 0"/><path fill="url(#c)" fill-rule="nonzero" d="m39.5 38 7.5-4H31z"/><path fill="url(#d)" fill-rule="nonzero" d="M.59 21.087a1 1 0 0 1 1.214-.54l.109.042 75 34a1 1 0 0 1-.717 1.864l-.109-.042-75-34a1 1 0 0 1-.498-1.324"/><path fill="url(#e)" fill-rule="nonzero" d="M.59 21.087a1 1 0 0 1 1.214-.54l.109.042 75 34a1 1 0 0 1-.717 1.864l-.109-.042-75-34a1 1 0 0 1-.498-1.324" transform="matrix(1 0 0 -1 0 77)"/><path fill="url(#f)" fill-rule="nonzero" d="M39 21a1 1 0 0 1 1 1v15a1 1 0 0 1-2 0V22a1 1 0 0 1 1-1"/><path stroke="url(#g)" stroke-width="4" d="M44.155 27.169a1 1 0 0 1 .71.296l6.638 6.696a1 1 0 0 1 .29.704v9.378a1 1 0 0 1-.296.71l-6.623 6.565a1 1 0 0 1-.704.29h-9.393a1 1 0 0 1-.704-.29l-6.623-6.565a1 1 0 0 1-.296-.71v-9.378a1 1 0 0 1 .29-.704l6.638-6.696a1 1 0 0 1 .71-.296z"/></g></svg>