<svg xmlns="http://www.w3.org/2000/svg" xmlns:xlink="http://www.w3.org/1999/xlink" viewBox="0 0 96 96"><defs><linearGradient id="b" x1="98.078%" x2="10.935%" y1="50%" y2="51.776%"><stop offset="0%" stop-color="#5d5d5d"/><stop offset="100%" stop-color="#1d1d1d"/></linearGradient><linearGradient id="c" x1="109.274%" x2="4.511%" y1="45.299%" y2="53.273%"><stop offset="0%" stop-color="#5e5e5e"/><stop offset="100%"/></linearGradient><linearGradient id="d" x1="50%" x2="50%" y1="0%" y2="100%"><stop offset="0%" stop-color="#515151"/><stop offset="100%"/></linearGradient><linearGradient id="e" x1="90.333%" x2="14.461%" y1="-11.889%" y2="68.372%"><stop offset="0%" stop-color="#919191"/><stop offset="100%"/></linearGradient><filter id="a" width="139.3%" height="128.6%" x="-19.7%" y="-14.3%" filterUnits="objectBoundingBox"><feOffset dy="2" in="SourceAlpha" result="shadowOffsetOuter1"/><feGaussianBlur in="shadowOffsetOuter1" result="shadowBlurOuter1" stdDeviation="2"/><feColorMatrix in="shadowBlurOuter1" result="shadowMatrixOuter1" values="0 0 0 0 0 0 0 0 0 0 0 0 0 0 0 0 0 0 0.2 0"/><feMerge><feMergeNode in="shadowMatrixOuter1"/><feMergeNode in="SourceGraphic"/></feMerge></filter></defs><g fill="none" fill-rule="evenodd" filter="url(#a)" transform="translate(15.1 3.889)"><path fill="url(#b)" stroke="#000" d="m52.135 13.307 5.49 7.301-2.282 13.965L2.847 29.66V18.565z" transform="rotate(-30 30.25 23.947)"/><path fill="url(#c)" stroke="#000" d="M50.423 15.202 48.39 29.501 1.5 27.089V16.055z" transform="rotate(-30 26 22.358)"/><path fill="#fff" d="m8.54 25.424 10.304 5.626-6.97 3.711-9.359-5.903zm11.688-7.007 11.757 5.84-7.077 3.975-11.017-5.937zm13.397-7.52 12.36 6.36-7.077 3.975-11.62-6.457z"/><path stroke="#000" d="m57.028 20.768-8.127-3.188"/><path fill="url(#d)" stroke="#000" d="m41.272.5 9.789 1.913.53 37.137-10.55 1.094L.5 29.618V.5z" transform="translate(7.9 41.111)"/><path fill="url(#e)" stroke="#000" d="M40.5.5v39.997l-40-10.88V.5z" transform="translate(7.9 41.111)"/><path fill="#fff" d="M11.9 42.111h9l-2.056 7.005H9.681zm13.079 0h8.922l-2.5 7.005h-8.478zm12.921 0h10l-2.604 7.005h-9.982z"/></g></svg>