<svg xmlns="http://www.w3.org/2000/svg" xmlns:xlink="http://www.w3.org/1999/xlink" viewBox="0 0 96 96"><defs><linearGradient id="b" x1="50%" x2="50%" y1="0%" y2="100%"><stop offset="0%" stop-color="#5db4ff"/><stop offset="100%" stop-color="#004ce9"/></linearGradient><linearGradient id="d" x1="50%" x2="50%" y1="0%" y2="100%"><stop offset="0%" stop-color="#62bfff"/><stop offset="100%" stop-color="#005eff"/></linearGradient><radialGradient id="c" cx="50%" cy="31.21%" r="68.79%" fx="50%" fy="31.21%"><stop offset="0%" stop-color="#73fcff"/><stop offset="50.058%" stop-color="#5adeff"/><stop offset="100%" stop-color="#2398ff"/></radialGradient><filter id="a" width="130.1%" height="129.8%" x="-15.1%" y="-14.9%" filterUnits="objectBoundingBox"><feOffset dy="2" in="SourceAlpha" result="shadowOffsetOuter1"/><feGaussianBlur in="shadowOffsetOuter1" result="shadowBlurOuter1" stdDeviation="2"/><feColorMatrix in="shadowBlurOuter1" result="shadowMatrixOuter1" values="0 0 0 0 0 0 0 0 0 0 0 0 0 0 0 0 0 0 0.2 0"/><feMerge><feMergeNode in="shadowMatrixOuter1"/><feMergeNode in="SourceGraphic"/></feMerge></filter></defs><g fill="none" fill-rule="evenodd" filter="url(#a)" transform="translate(6.525 6)"><path stroke="url(#b)" stroke-width="2" d="M7.416 55.125q12.865 2.832 29.521-5.075c16.656-7.907 28.017-20.255 31.6-27.802s4.004-15.552 1.487-16.415C67.506 4.97 62.945 1.058 45.8 14.7S27.92 61.188 34 70.35s12.781 5.3 14.407 1.67c1.627-3.63 7.244-20.168-.106-37.876S30.828 3.834 19.042 3.823c-10.238 0-7.969 15.343 1.606 26.275s22.4 23.105 35.888 26.448 19.822-3.152 18.021-8.328-14.59-23-40.558-19.876Q9.75 33.532 3.301 53.315z"/><g fill="url(#c)" stroke="url(#d)"><circle cx="13.125" cy="6.825" r="6.825"/><circle cx="70.875" cy="6.825" r="6.825"/><circle cx="76.125" cy="55.125" r="6.825"/><circle cx="41.475" cy="77.175" r="6.825"/><circle cx="6.825" cy="54.075" r="6.825"/></g></g></svg>