<svg xmlns="http://www.w3.org/2000/svg" xmlns:xlink="http://www.w3.org/1999/xlink" viewBox="0 0 96 96"><defs><linearGradient id="b" x1="50%" x2="50%" y1="44.849%" y2="100%"><stop offset="0%" stop-color="#fad965"/><stop offset="100%" stop-color="#f2a005"/></linearGradient><linearGradient id="c" x1="50%" x2="50%" y1="0%" y2="100%"><stop offset="0%" stop-color="#e69827"/><stop offset="100%" stop-color="#f1bd2c"/></linearGradient><filter id="a" width="131.6%" height="131.6%" x="-15.8%" y="-15.8%" filterUnits="objectBoundingBox"><feOffset dy="2" in="SourceAlpha" result="shadowOffsetOuter1"/><feGaussianBlur in="shadowOffsetOuter1" result="shadowBlurOuter1" stdDeviation="2"/><feColorMatrix in="shadowBlurOuter1" result="shadowMatrixOuter1" values="0 0 0 0 0 0 0 0 0 0 0 0 0 0 0 0 0 0 0.2 0"/><feMerge><feMergeNode in="shadowMatrixOuter1"/><feMergeNode in="SourceGraphic"/></feMerge></filter></defs><g fill="none" filter="url(#a)" transform="translate(10 10)"><path fill="url(#b)" d="M70 76H6a6 6 0 0 1-6-6V6a6 6 0 0 1 6-6h64a6 6 0 0 1 6 6v64a6 6 0 0 1-6 6"/><path fill="#fddf7a" d="M52 62H24a2 2 0 0 1-2-2v-6h32v6a2 2 0 0 1-2 2"/><path fill="#c9caca" d="M52 56H24a2 2 0 0 1-2-2v-4l-2-4h36l-2 4v4a2 2 0 0 1-2 2"/><path fill="#b6b7b7" d="M54 50H22l-.938-1.874 33.936-.122zm-32 2h32v2H22z"/><path fill="url(#c)" d="M6 43.992V7.842c0-1.11.9-2.008 2.008-2.008h59.984C69.1 5.834 70 6.732 70 7.842v36.15A2.01 2.01 0 0 1 67.992 46H8.008A2.01 2.01 0 0 1 6 43.992" opacity=".63"/><path fill="#fddf7a" d="M70 0H6a6 6 0 0 0-6 6v44a2 2 0 0 0 2 2h18a2 2 0 0 0 2-2v-2a2 2 0 0 0-2-2H8.008A2.01 2.01 0 0 1 6 43.992V7.842C6 6.824 6.824 6 7.842 6h60.15C69.1 6 70 6.9 70 8.008v35.984A2.01 2.01 0 0 1 67.992 46H56a2 2 0 0 0-2 2v2a2 2 0 0 0 2 2h18a2 2 0 0 0 2-2V6a6 6 0 0 0-6-6"/><path fill="#f0f0f0" d="M68 46H8V12.008C8 10.9 8.9 10 10.008 10H65.99c1.11 0 2.01.9 2.01 2.008z"/><path fill="#c9caca" d="M46.07 27.48 65.992 12 38 31 10.008 12l19.906 15.468-16.342 16.804 18.048-15.48L38 33.75l6.366-4.946L62.4 44.272z"/></g></svg>