<svg xmlns="http://www.w3.org/2000/svg" xmlns:xlink="http://www.w3.org/1999/xlink" viewBox="0 0 96 96"><defs><linearGradient id="b" x1="50%" x2="50%" y1="0%" y2="100%"><stop offset="0%" stop-color="#33eeb6"/><stop offset="100%" stop-color="#27d086"/></linearGradient><filter id="a" width="130.8%" height="130.8%" x="-15.4%" y="-15.4%" filterUnits="objectBoundingBox"><feOffset dy="2" in="SourceAlpha" result="shadowOffsetOuter1"/><feGaussianBlur in="shadowOffsetOuter1" result="shadowBlurOuter1" stdDeviation="2"/><feColorMatrix in="shadowBlurOuter1" result="shadowMatrixOuter1" values="0 0 0 0 0 0 0 0 0 0 0 0 0 0 0 0 0 0 0.2 0"/><feMerge><feMergeNode in="shadowMatrixOuter1"/><feMergeNode in="SourceGraphic"/></feMerge></filter><path id="c" d="M0 0h38.928v20.324H0z"/></defs><g fill="none" fill-rule="evenodd" filter="url(#a)" transform="translate(9 9)"><rect width="15.082" height="15.082" fill="#27d086" fill-rule="nonzero" rx="7.541" transform="translate(31.459 31.459)"/><rect width="78" height="78" fill="url(#b)" fill-rule="nonzero" rx="18"/><g fill="#fff"><path fill-rule="nonzero" d="M39.878 52.297 26.757 39.175c-3.978-3.977-3.978-10.427 0-14.404l1.236-1.237 27.526 27.527-1.236 1.236c-3.978 3.978-10.427 3.978-14.405 0"/><path fill-rule="nonzero" d="M19.399 59.655a5.024 5.024 0 0 1 .188-7.284l10.905-9.934 6.125 6.125-9.934 10.905a5.025 5.025 0 0 1-7.284.188"/><g opacity=".7" transform="rotate(45 9.717 55.552)"><mask id="d"><use xlink:href="#c"/></mask><path fill-rule="nonzero" d="M35.66 0h-4.69c-.55 0-1.023.392-1.124.932l-.75 3.978c-.084.452-.731.452-.817 0L27.531.932A1.145 1.145 0 0 0 26.406 0h-1.812c-.514 0-.964.342-1.102.837l-.54 1.934c-.12.432-.733.432-.853 0l-.54-1.934A1.144 1.144 0 0 0 20.457 0H12.06c-.584 0-1.074.44-1.137 1.02l-.994 9.07c-.061.558-.871.558-.932 0l-.994-9.07A1.144 1.144 0 0 0 6.865 0H3.268A3.27 3.27 0 0 0 0 3.268v17.056h38.928V3.268A3.27 3.27 0 0 0 35.66 0" mask="url(#d)"/></g></g></g></svg>