<svg xmlns="http://www.w3.org/2000/svg" xmlns:xlink="http://www.w3.org/1999/xlink" viewBox="0 0 96 96"><defs><linearGradient id="b" x1="50%" x2="50%" y1="0%" y2="100%"><stop offset="0%" stop-color="#0ad4fa"/><stop offset="100%" stop-color="#04a9f4"/></linearGradient><filter id="a" width="130.8%" height="128.9%" x="-15.4%" y="-14.5%" filterUnits="objectBoundingBox"><feOffset dy="2" in="SourceAlpha" result="shadowOffsetOuter1"/><feGaussianBlur in="shadowOffsetOuter1" result="shadowBlurOuter1" stdDeviation="2"/><feColorMatrix in="shadowBlurOuter1" result="shadowMatrixOuter1" values="0 0 0 0 0 0 0 0 0 0 0 0 0 0 0 0 0 0 0.2 0"/><feMerge><feMergeNode in="shadowMatrixOuter1"/><feMergeNode in="SourceGraphic"/></feMerge></filter></defs><g fill="none" fill-rule="evenodd" filter="url(#a)" transform="translate(9 7)"><path fill="url(#b)" d="M10 0h58c5.523 0 10 4.477 10 10v48c0 5.523-4.477 10-10 10H56.476a8 8 0 0 0-5.848 2.541l-9.435 10.11a3 3 0 0 1-4.386 0l-9.435-10.11A8 8 0 0 0 21.524 68H10C4.477 68 0 63.523 0 58V10C0 4.477 4.477 0 10 0"/><path fill="#fff" d="M23.233 16.13h8.074l-9.845 18.127 6.604 11.688L46.002 16.13h9.088l9.864 18.127L54.129 52.94h-8.127l10.021-18.683-6.352-9.757-18.364 28.44h-8.074L13.081 34.257z"/></g></svg>