<svg xmlns="http://www.w3.org/2000/svg" xmlns:xlink="http://www.w3.org/1999/xlink" viewBox="0 0 96 96"><defs><filter id="a" width="128.6%" height="128.6%" x="-14.3%" y="-14.3%" filterUnits="objectBoundingBox"><feOffset dy="2" in="SourceAlpha" result="shadowOffsetOuter1"/><feGaussianBlur in="shadowOffsetOuter1" result="shadowBlurOuter1" stdDeviation="2"/><feColorMatrix in="shadowBlurOuter1" result="shadowMatrixOuter1" values="0 0 0 0 0 0 0 0 0 0 0 0 0 0 0 0 0 0 0.2 0"/><feMerge><feMergeNode in="shadowMatrixOuter1"/><feMergeNode in="SourceGraphic"/></feMerge></filter></defs><g fill="none" fill-rule="evenodd" filter="url(#a)" transform="translate(6 6)"><circle cx="42" cy="42" r="42" fill="#4b809d"/><path fill="#4b809c" d="M1.507 43.033c-.613-9.045.804-17.53 6.844-24.734 1.291-1.68 3.055-1.267 4.767-1.088.845.052 1.711.254 2.459-.37 2.14-1.57 3.313-4.055 5.399-5.668.975-.343 2.1.145 3.015-.55 1.808-1.071 3.756-1.947 4.803-3.96.366-.704 1.094-.808 1.838-.719 2.558 1.967 2.62 2.626.286 4.268-1.045.735-2.173 1.356-3.267 2.023-1.083.66-2.293 1.15-3.395 2.634 2.682.02 4.948-.45 7.14-1.244 4.001-1.448 4.59-2.77 3.189-6.795-.13-.48-.224-.968-.368-1.446-.368-.615-.758-1.222-.623-1.995 3.759-2.92 8.123-1.95 12.34-1.926l-.058-.035c2.374.733 4.363 1.879 5.678 4.174.924 1.613 1.727 2.945-.622 3.832-1.382.522-.291 1.267-.328 1.925-.1 1.788.28 3.845-2.16 4.506-.225.061-.536-.129-.574-.068-2.002 3.195-2.055 3.396-5.227 2.53-2.522-.69-3.781 1.452-5.734 1.935-2.058-.333-3.935.926-5.981.69-.787-.18-1.545-.49-2.377-.472-5.012.11-6.059 1.765-4.224 6.965 1.258-.988.789-2.374.99-3.53.235-1.354.612-2.575 2.273-2.552 1.677.023 2.129 1.128 2.022 2.603-.323 1.091-.951 2.175-.1 3.312.193.645.218 1.296.12 1.958-.343 1.899-.822 3.669-3.039 4.269-1.009.273-1.53 1.125-1.567 2.121-.113 3.188-2.112 4.884-4.525 6.604-5.055 3.602-5.303 10.097-.787 13.767 1.127.915 2.37 1.574 3.82 1.572 7.154-.013 8.581 4.675 10.508 11.025.265.871.04 1.867.21 2.79.972 5.278 6.953 7.91 11.016 4.516 3.25-2.716 6.73-5.653 6.215-10.71.144-.693.455-1.307.873-1.87 1.584-1.794 3.474-3.322 4.713-5.426.665-1.127 1.428-2.222-.255-3.145-.414-.33-.642-.739-.547-1.284.748-1.656 2.253-2.664 3.409-3.972.858-.97 1.622-1.888 1.585-3.364-.09-3.634 2.46-5.195 5.904-3.738 2.48 1.049 3.773 3.42 6.218 5.694-.751-3.236-.932-5.858.17-8.376.596-1.36 1.415-2.496 3.002-2.625 1.581-.129 2.218 1.04 2.715 2.295.904 2.005.376 4.236 1.007 6.283a8.5 8.5 0 0 1 .27 1.585c-.529 10.33-6.082 17.927-13.451 24.482-2.185 1.943-4.686 3.5-7.264 4.899-1.123.72-2.391 1.121-3.602 1.648-1.17.421-2.25 1.025-3.315 1.66-1.527.07-3.046.205-4.507.712-1.66.697-3.362 1.15-5.19.897-1.915-.38-3.854-.133-5.78-.233-1.818-.146-3.558-.724-5.36-.95-1.69-.484-3.402-.892-5.114-1.294-4.093-.923-7.186-3.681-10.63-5.797a36 36 0 0 1-3.366-2.728 5 5 0 0 1-.634-.69c-.643-1.079-1.551-1.894-2.601-2.571-1.41-1.909-2.915-3.765-3.396-6.185-.273-2.923-.971-5.74-2.164-8.42-1.372-3.085-2.288-6.288-2.666-9.644"/><path fill="#9c9c63" d="M78.43 39.492c-.293-.913-.604-1.924-1.802-1.793-1.133.124-1.923.926-2.254 1.99-.732 2.352-1.211 4.707-.323 7.183.245.683 1.256 1.847-.201 2.368-1.091.39-1.728-.604-2.193-1.38-.92-1.538-2.116-2.816-3.453-3.96-1.68-1.437-3.586-1.544-5.567-.671-.529.233-1.332.633-.998 1.212 2.486 4.31-1.803 5.531-3.54 7.889-.401.545-1.078.888-1.629 1.324-2.656 1.468-1.99-.869-2.348-2.04.965-5.507-3.107-8.896-8.517-10.562-.559-.172-1.129-.307-1.68-.507-5.085-1.842-5.147-1.838-5.28-7.274-.042-1.702-.769-3.167-1.104-4.759a2.96 2.96 0 0 1 .233-1.6c.75-.691 1.314-1.687 2.557-1.585 2.01 2.44 4.604 3.204 7.257 2.202 1.05-.396.891-1.274.912-2.042.049-1.878.156-3.802-1.878-4.909-.98-.532-2.009-.536-3.118-.43.54.655 1.352.227 1.947.6.62.39 1.242.79 1.139 1.588-.084.646-.726.887-1.291 1.002-1.73.353-3.327 1.08-4.965 1.698-.831-.045-1.506 1.037-2.428.339-.697-1.801-1.41-3.6-1.147-5.597 2.174-2.237 4.504-3.732 7.656-1.743 1.086.685 2.131.12 2.929-.513 1.373-1.092-.71-1.692-.526-2.663 2.246.555 3.662-1.164 3.065-3.81-.12-.533-.788-1.122-.66-1.504 1.58-4.72 1.605-4.71-3.16-7.82-.09-.059-.126-.196-.187-.297 4.382-.109 8.33 1.302 12.067 3.446 1.157 1.474 2.861 1.79 4.548 2.145 2.216.465 3.943 1.793 5.636 3.182 2.286 3.23 5.838 5.483 7.274 9.375 1.06 2.31 2.917 4.21 3.5 6.767.401 1.963.166 4.069 1.338 5.857.322.978.453 1.997.658 3.001.169 1.056-.157 2.053-.356 3.068-.123.52-.329.998-.693 1.398q-.776.463-1.418-.175"/><path fill="#9b9c65" d="M30.39 6.386c-1.595 2.337-3.756 3.957-6.362 5.01-1.742-.42-1.742-.42-1.39-2.766-.92-.378-1.772.368-2.681.17-.512-.175-.847-.515-.986-1.041 8.168-5.61 17.083-8.02 26.963-6.297-2.957.27-5.936.408-8.861.877-1.164.186-2.95-.033-3.137 1.96-.354.5-.906.701-1.42.956q-.533.304-1.046.64c-.335.216-.758.24-1.08.49"/><path fill="#9c9c64" d="M18.971 7.759q.42.372.837.746c-.124.34.268.972.577.988 1.453.07 2.382.406.894 1.881-1.66 2.372-3.266 4.792-5.74 6.44-.664-.328-1.333-.583-2.04-.104-1.62 1.033-3.573-.846-5.148.59 2.5-4.563 6.16-7.954 10.62-10.541"/><path fill="#9c9e6b" d="m7.052 61.395-2.698-4.313c-1.192-4.634-3.327-9.076-2.847-14.049 1.03 5.11 4.17 9.464 5.199 14.589.255 1.269.43 2.496.346 3.773"/><path fill="#5a8593" d="M60.643 5.73c.415.766 1.739.825 1.584 2.034-2.02-.085-3.523-.938-4.284-2.89z"/><path fill="#9c9c63" d="M52.17 64.871c.21 6.927-5.196 13.4-11.226 13.444-4.155.03-7.98-3.264-7.626-7.392.33-3.867-2.054-6.543-3.221-9.702-.717-1.94-3.194-2.518-5.405-2.642-4.325-.242-8.146-3.01-9.006-6.462-.98-3.937 1.072-9.042 4.903-11.164 2.321-1.285 3.631-2.8 3.434-5.501-.129-1.76.466-3.04 2.514-2.975 2.703.085 1.258-2.66 2.48-3.573 1.31-.924 1.765-2.236 1.9-3.786.09-1.054-.027-2.371 1.539-2.621 1.43 1.377.682 3.494 1.71 5.01-.491 2.058-.696 4.174-1.174 6.235-.941 1.742-2.95 2.133-4.352 3.403 1.528.416 3.401-.33 4.425 1.453.389 2.421 1.308 4.924-1.079 6.904-1.663.335-3.517-1.967-4.87-.146-1.336 1.798.017 3.828.815 5.571 2.19 4.78 4.672 9.412 7.69 13.736 4.731 1.226 9.488.84 14.233.214.796-.104 1.536-.61 2.317-.006"/><path fill="#9b9c63" d="m30.39 6.386.728-.684c1.576-.805 3.074-1.15 4.199.71 1.922 4.6.848 6.878-4.142 8.305-2.231.639-4.562.927-6.848 1.379-.583.115-1.212.26-1.508-.43-.328-.764.036-1.425.659-1.821 2.272-1.447 4.494-3.012 6.9-4.197 2.554-1.257 1.706-2.172.013-3.262"/><path fill="#989a65" d="m53.016 63.386 1.473-7.71c.431-1.403 1.814-.853 2.704-1.316 2.278-.167 2.305.996 1.446 2.553-1.409 2.553-3.099 4.88-5.623 6.473"/><path fill="#518298" d="M21.28 11.374c.077-3.57-2.216.44-2.84-1.137l1.368-1.732c.626-.307 1.25-.619 1.88-.918.744-.354 1.509-.746 2.193.09.679.827.335 1.37-.427 1.988-1.127.915-.789 1.54.574 1.731-.926 1.197-1.835.348-2.749-.022"/><path fill="#979a66" d="M57.658 68.786c.067.608.188.883.102 1.054-.808 1.594-.915 3.79-3.29 4.086-.574.071-.866-.502-.769-.95.451-2.08 1.546-3.623 3.957-4.19"/><path fill="#8b966e" d="m80.412 41.67-.026.703c-.852 1.07.187 2.524-.728 3.58-1.329-1.978-.053-4.453-1.23-6.46q.589.005 1.176.012c.837.51.084 1.613.808 2.164"/><path fill="#5a8592" d="m57.193 54.36-2.704 1.317c-.04-1.384-.321-2.792.415-4.094.52.693-.895 2.85 1.566 2.071zM35.317 6.413c-1.298-.841-2.761-.702-4.2-.71l.67-.707c1.173-.513 2.345-.504 3.517-.001z"/><path fill="#5c8590" d="M13.5 17.71c.252-.623.534-1.297 1.34-1.202.72.085.643.77.7 1.304-.732.991-1.366.045-2.04-.102"/><path fill="#959967" d="M79.658 45.954c.264-1.19-.445-2.577.728-3.581-.195 1.645.649 3.428-.653 4.926z"/><path fill="#829278" d="m35.304 4.995-3.516.001c.524-.822 1.36-.685 2.148-.697.575-.002 1.088.119 1.368.696"/><path fill="#949969" d="m28.798 24.676.06 2.225c-2.237-.682-.921-1.46-.06-2.225"/><path fill="#538297" d="M49.026 34.777c-1.33 1.881-3.307.285-4.81 1.008-.087.042-.769-.653-.734-.954.095-.825.54-1.674 1.504-1.573 1.434.148 2.94.293 4.04 1.519"/><path fill="#818e8e" d="M78.315 26.153c1.461 1.878 2.69 3.858 2.764 6.341l-1.358-.017c-2.296-1.702-1.204-4.157-1.406-6.324"/><path fill="#5a8591" d="M56.537 37.093c-2.13-1.037-2.354-2.225-2.968-3.767 2.22.41 2.37 1.716 2.968 3.767"/><path fill="#61878d" d="M59.687 44.287c-1.081 1.149-1.904 1.067-2.644.236-.142-.159-.082-.785.063-.864.943-.51 1.715-.039 2.581.628"/><path fill="#548396" d="M40.179 24.771q.09.33-.055.638c-.675.449-.844 1.594-1.965 1.432l.03-1.388z"/><path fill="#508199" d="M80.412 41.67c-.859-.502-.654-1.4-.807-2.165q.08-.67.164-1.339c1.129 1 .485 2.325.643 3.503"/><path fill="#4d809b" d="m32.405 33.944.02 4.18h-6.027c1.769-2.22 3.892-3.195 6.007-4.18"/><path fill="#678a87" d="M32.513 21.965c1.308-.435 2.28-.319 2.268 1.392-.01 1.361-.026 2.722-.039 4.082a.76.76 0 0 1-.558.15c-3.28-.742-1.017-3.421-1.763-5.05q.042-.287.092-.574"/><path fill="#f6f707" d="M32.42 22.54c-.95 1.069-.693 2.399-.565 3.583.244 2.274-.592 3.178-2.837 2.781l-.16-2.003c-.504-.728-.322-1.475-.06-2.224.127-1.142.542-2.635-1.084-2.811-1.618-.175-1.397 1.397-1.702 2.497-.426 1.536 1.37 4.43-1.51 4.402-3.137-.031-1.395-3.035-1.54-4.66-.128-1.425-.882-4.315.805-4.19 2.406.176 5.186-2.282 7.322.588.48.542 1.591.22 1.71 1.253a1.01 1.01 0 0 1-.378.784"/><path fill="#f7f707" d="M11.95 23.55c2.79.965 4.776 1.66 6.767 2.338.772.262 1.212.763 1 1.576-.3 1.152-1.077.516-1.649.317-2.54-.887-5.064-1.817-7.593-2.732-.807-.292-1.534-.652-1.401-1.711.1-.808.646-1.16 1.359-1.408 2.542-.883 5.07-1.804 7.61-2.696.547-.192 1.257-.438 1.566.196.364.746-.092 1.356-.839 1.635-2.057.77-4.126 1.506-6.82 2.485"/><path fill="#f3f40a" d="m32.514 21.965-1.425-1.462c1.879-.33 3.57-2.129 5.67-.725 1.581 1.613 1.336 3.687 1.43 5.675.389.471.356.933-.03 1.388l-.147 1.347c-.985-.713-2.145-.652-3.27-.749-1.53-1.504-.1-4.214-2.228-5.474"/><path fill="#fbfc03" d="M52.275 25.77q-.003-.35-.002-.703c0-5.094 1.618-6.52 6.535-5.757 2.459.381 3.86 2.866 3.362 6.04-.412 2.63-1.982 4.203-4.606 3.492-2.055-.558-2.503-.067-2.385 1.797.069 1.08-.31 1.83-1.593 1.737-1.367-.099-1.296-1.1-1.305-2.04-.015-1.521-.004-3.044-.006-4.566"/><path fill="#fbfc02" d="M40.179 24.771c1.865-1.581 1.865-1.581 6.054-2.434-1.02-1.551-2.425-1.052-3.738-.855-.544.082-1.169.497-1.422-.353-.184-.618.017-1.148.674-1.405 1.943-.76 3.885-.79 5.78.124 1.582.762 2.007 2.153 1.953 3.793-.038 1.167.016 2.338-.025 3.506-.016.452-.141 1.28-.279 1.293-2.248.216-4.525.569-6.756.391-1.784-.142-2.285-1.764-2.296-3.422q-.266-.237-.153-.441.108-.197.208-.197"/><path fill="#f9fa04" d="M72.75 23.574c-2.7-1-4.765-1.743-6.812-2.536-.575-.223-.997-.704-.794-1.37.234-.765.914-.63 1.445-.445 2.536.88 5.058 1.802 7.58 2.722.83.302 1.425.817 1.341 1.802-.074.88-.819 1.08-1.456 1.317a353 353 0 0 1-7.243 2.616c-.579.201-1.348.866-1.74-.17-.3-.794.222-1.305.974-1.57 1.978-.696 3.955-1.395 6.705-2.366"/><path fill="#a2a35d" d="M44.452 26.867c-.661-.03-1.247-.327-1.114-1.02.186-.979 1.037-1.159 1.918-1.126.618.023 1.287.156 1.087.943-.227.892-.954 1.286-1.89 1.203"/><path fill="#9f9f60" d="M55.595 24.096c-.066-1.319.339-2.484 1.799-2.454 1.409.03 1.842 1.226 1.857 2.498.017 1.398-.318 2.702-2.036 2.59-1.549-.102-1.546-1.465-1.62-2.634"/><path fill="#272322" d="M52.17 64.872c-5.3 2.555-10.92.997-16.399 1.217-.383.016-.796-.728-1.196-1.119-.507-.826-.277-1.408.588-1.778 3.316.946 6.719.839 10.11.74 3.881-.114 5.266-1.248 6.19-4.937.839-3.346.54-6.771.582-10.162.019-1.588-3.66-5.27-5.46-5.324-1.723-.051-3.21-.328-4.563-1.39a1.18 1.18 0 0 0-1.34-.065c-3.78 2.412-3.28-.613-3.478-2.727-.254-2.723.585-5.596-1.199-8.556-1.84 2.84-1.18 5.632-.928 8.262.205 2.128.352 4.2-.13 6.284-.277 1.2.085 3.068-1.424 3.267-1.704.225-3.05-.937-3.431-2.819.2-.583.517-.969 1.21-.723 2.343-.295 1.034-2.104 1.22-3.2.205-1.198-.046-2.475-.098-3.717-1.114-1.388-.786-2.783-.02-4.18.395-2.174-.538-4.72 1.78-6.355a1.8 1.8 0 0 1 .806-.594c1.26-.246 2.397-.177 3.02 1.192 1.032 1.488 1.491 3.107 1.527 4.947.1 5.145 1.216 5.878 6.23 7.198 5.9 1.554 10.49 4.877 9.135 11.253-.62 1.49.072 2.882.329 4.308.12 2.751-.497 5.286-2.216 7.493z"/><path fill="#2f2c2a" d="M35.334 63.479c-.62.31-.718.886-.759 1.491-3.158-5.285-6.455-10.505-8.445-16.386-.52-1.536-1.179-3.382.466-4.517 1.67-1.151 3.339-.357 4.706.975l-.937.88c-2.17.848-1.756 2.406-1.085 4.012 1.482 3.546 3.368 6.897 5.034 10.353.485 1.006 1.462 1.88 1.02 3.192"/><path fill="#fefefe" d="M35.334 63.479c-2.632-4.85-5.39-9.637-7.483-14.757-.44-1.073-.93-2.422-.066-3.317.713-.738 1.654.53 2.58.517l3.313 3.075c1.148-5.054.245-9.834.578-14.546.133-1.881-1.173-5.115 1.705-5.205 2.423-.076 1.722 3.067 1.86 4.947.203 2.771.298 5.55.458 8.696 1.71-2.574 3.427-4.027 5.502-.784.18.282.4.539.6.808 3.5-2.881 4.463 2.073 6.993 2.28 1.29.105 1.667 1.209 1.703 2.32.05 1.516.018 3.039-.057 4.555-.796 15.882-2.97 12.016-15.987 12.52-.85.033-1.132-.743-1.699-1.11"/></g></svg>