<svg xmlns="http://www.w3.org/2000/svg" xmlns:xlink="http://www.w3.org/1999/xlink" viewBox="0 0 96 96"><defs><linearGradient id="b" x1="50%" x2="50%" y1="0%" y2="100%"><stop offset="0%" stop-color="#ff7a5b"/><stop offset="100%" stop-color="#ed473f"/></linearGradient><linearGradient id="c" x1="50%" x2="50%" y1="0%" y2="100%"><stop offset="0%" stop-color="#888593"/><stop offset="100%" stop-color="#5b5962"/></linearGradient><linearGradient id="d" x1="50%" x2="50%" y1="0%" y2="100%"><stop offset="0%" stop-color="#ff7a5b"/><stop offset="100%" stop-color="#ed473f"/></linearGradient><linearGradient id="e" x1="50%" x2="50%" y1="0%" y2="100%"><stop offset="0%" stop-color="#686868"/><stop offset="100%" stop-color="#2e2e2e"/></linearGradient><linearGradient id="f" x1="50%" x2="50%" y1="0%" y2="100%"><stop offset="0%" stop-color="#686868"/><stop offset="100%" stop-color="#2e2e2e"/></linearGradient><filter id="a" width="126.4%" height="132.3%" x="-13.2%" y="-16.2%" filterUnits="objectBoundingBox"><feOffset dy="2" in="SourceAlpha" result="shadowOffsetOuter1"/><feGaussianBlur in="shadowOffsetOuter1" result="shadowBlurOuter1" stdDeviation="2"/><feColorMatrix in="shadowBlurOuter1" result="shadowMatrixOuter1" values="0 0 0 0 0 0 0 0 0 0 0 0 0 0 0 0 0 0 0.2 0"/><feMerge><feMergeNode in="shadowMatrixOuter1"/><feMergeNode in="SourceGraphic"/></feMerge></filter></defs><g fill="none" fill-rule="evenodd" filter="url(#a)" transform="translate(5 10.712)"><rect width="86" height="67" y="7.288" fill="#55515b" rx="8"/><rect width="86" height="67" y="5.288" fill="#f6f5f4" rx="8"/><path stroke="#e0222a" stroke-linecap="round" stroke-linejoin="round" stroke-width="3" d="M11.08 30.788q5.826.544 5.825 3.507c0 2.962-2.748 10.083 2.5 11.027 5.25.945 9.381-.215 10.532 5.894q1.15 6.11 1.15 6.886"/><path fill="#3d3846" d="M86 13.288v6H0v-6a8 8 0 0 1 .252-2h85.496a8 8 0 0 1 .252 2"/><path fill="url(#b)" d="m37.155 44.515-6.068 12.811 1.506 2.074 14.018-5.355z"/><path fill="url(#c)" d="M86 14.288v2H0v-2zm-8-9a8 8 0 0 1 7.938 7H.062a8 8 0 0 1 7.938-7z"/><path fill="url(#d)" d="M63.453-3.91a7.5 7.5 0 0 1 7.5 7.5v55.415h-15V3.59a7.5 7.5 0 0 1 7.5-7.5" transform="rotate(45 63.453 27.547)"/><path fill="url(#e)" d="M44.25 36.145 54.854 46.75l-2.828 2.828L41.42 38.972z"/><path fill="url(#f)" d="m74.396 5.997 10.607 10.606-2.828 2.828L71.568 8.825z"/><path fill="#3d3846" d="M63.453 16.942c-.013 5.86-4.587 10.605-10.227 10.605q-.186 0-.371-.006Z"/></g></svg>