<svg xmlns="http://www.w3.org/2000/svg" xmlns:xlink="http://www.w3.org/1999/xlink" viewBox="0 0 96 96"><defs><linearGradient id="b" x1="50%" x2="50%" y1="0%" y2="98.194%"><stop offset="0%" stop-color="#a7d5ff"/><stop offset="100%" stop-color="#295078"/></linearGradient><linearGradient id="c" x1="50%" x2="50%" y1="0%" y2="100%"><stop offset="0%" stop-color="#b6dcff"/><stop offset="100%" stop-color="#749eca"/></linearGradient><linearGradient id="d" x1="-20%" x2="120%" y1="50%" y2="50%"><stop offset="0%" stop-color="#fff" stop-opacity="0"/><stop offset="50%" stop-color="#5f6b6c"/><stop offset="100%" stop-color="#e5edec" stop-opacity="0"/></linearGradient><linearGradient id="e" x1="50%" x2="50%" y1="0%" y2="100%"><stop offset="0%" stop-color="#a8d6ff" stop-opacity="0"/><stop offset="19.648%" stop-color="#91bee7" stop-opacity=".911"/><stop offset="80%" stop-color="#284f78" stop-opacity=".493"/><stop offset="100%" stop-color="#284f78" stop-opacity="0"/></linearGradient><filter id="a" width="128.6%" height="133.8%" x="-14.3%" y="-16.9%" filterUnits="objectBoundingBox"><feOffset dy="2" in="SourceAlpha" result="shadowOffsetOuter1"/><feGaussianBlur in="shadowOffsetOuter1" result="shadowBlurOuter1" stdDeviation="2"/><feColorMatrix in="shadowBlurOuter1" result="shadowMatrixOuter1" values="0 0 0 0 0 0 0 0 0 0 0 0 0 0 0 0 0 0 0.2 0"/><feMerge><feMergeNode in="shadowMatrixOuter1"/><feMergeNode in="SourceGraphic"/></feMerge></filter></defs><g fill="none" filter="url(#a)" transform="translate(6 13)"><path fill="#fff" d="M19 1h46c9.941 0 18 8.059 18 18v33c0 9.941-8.059 18-18 18H19C9.059 70 1 61.941 1 52V19C1 9.059 9.059 1 19 1"/><path fill="url(#b)" d="M65 0H19C8.507 0 0 8.507 0 19v33c0 10.493 8.507 19 19 19h46c10.493 0 19-8.507 19-19V19C84 8.507 75.493 0 65 0m0 1c9.941 0 18 8.059 18 18v33c0 9.941-8.059 18-18 18H19C9.059 70 1 61.941 1 52V19C1 9.059 9.059 1 19 1z"/><path fill="url(#c)" stroke="#fff" d="M81.618 57.5a17.54 17.54 0 0 1-6.114 8.5A17.42 17.42 0 0 1 65 69.5H19a17.42 17.42 0 0 1-10.504-3.501A17.54 17.54 0 0 1 2.382 57.5Z"/><path fill="url(#d)" d="M8 36.5h67z" transform="rotate(90 41.5 36.5)"/><path fill="#000" d="M25.22 23.829c-7.594-.442-10.36 4.364-13.047 10.69-.217 7.349 3.8 9.25 9.723 11.727 7.429 1.755 12.397.127 17.925-5.02l.179.2c-5.221 4.848-11.768 8.867-19.029 8.557-8.495-1.903-14.81-7.138-12.485-16.835C11.72 25.426 17.352 20.47 25.26 18zm29.661 2.97c-2.94 5.769-2.55 11.765-1.823 17.912.358.903 1.353 1.428 2.03 2.142 3.223-2.903 4.344-6.848 5.444-10.803 3.516-7.67 6.783.405 7.08 5.045.257 1.494 1.826 2.465 2.738 3.697 2.43-2.968 2.444-6.569 2.862-10.205-.046-6.992-2.186-13.729-3.649-20.519-.034-1.17-.908-1.957-1.361-2.936l.242-.132c.485.987 1.286 1.823 1.454 2.96 2.984 6.576 5.304 13.374 6.637 20.482.9 6.407 1.014 12.191-4.57 16.447-5.925-.929-7.743-2.658-9.065-8.852-2.325-6.52 1.362-2.521 2.216-4.13-2.35 4.13-4.076 8.568-6.507 12.672-6.168 2.926-8.41 1.47-8.609-5.64.25-6.289 1.012-12.593.59-18.88z"/><path fill="url(#e)" d="M41 1h1v69h-1z"/></g></svg>