<svg xmlns="http://www.w3.org/2000/svg" xmlns:xlink="http://www.w3.org/1999/xlink" viewBox="0 0 96 96"><defs><linearGradient id="b" x1="50%" x2="50%" y1="0%" y2="100%"><stop offset="0%" stop-color="#ef675a"/><stop offset="100%" stop-color="#ef675a"/></linearGradient><filter id="a" width="128.6%" height="131.4%" x="-14.3%" y="-15.7%" filterUnits="objectBoundingBox"><feOffset dy="2" in="SourceAlpha" result="shadowOffsetOuter1"/><feGaussianBlur in="shadowOffsetOuter1" result="shadowBlurOuter1" stdDeviation="2"/><feColorMatrix in="shadowBlurOuter1" result="shadowMatrixOuter1" values="0 0 0 0 0 0 0 0 0 0 0 0 0 0 0 0 0 0 0.2 0"/><feMerge><feMergeNode in="shadowMatrixOuter1"/><feMergeNode in="SourceGraphic"/></feMerge></filter></defs><g fill="none" fill-rule="evenodd" filter="url(#a)" transform="translate(6 9.809)"><path fill="url(#b)" fill-rule="nonzero" d="M73.646 29.826C79.858 35.937 84 42.053 84 44.883c0 6.49-22.91 31.5-42 31.5s-42-25.01-42-31.5c0-2.727 4.076-8.755 10.205-14.83l-5.814-5.98a6.86 6.86 0 0 1 .19-9.545c2.674-2.481 6.874-2.481 9.355.382l6.437 6.62a62 62 0 0 1 5.86-3.649l-3.515-8.507c-1.527-3.437.191-7.446 3.627-8.782 3.437-1.527 7.446.19 8.782 3.627l3.628 8.782q.088.2.163.403A23 23 0 0 1 42 13.192q1.309 0 2.64.156.099-.271.224-.538l3.818-8.782C50.209.592 54.218-.935 57.464.592c3.436 1.527 4.963 5.536 3.627 8.973l-3.55 8.164a61 61 0 0 1 5.894 3.618l6.629-6.819c2.481-2.672 6.872-2.672 9.354-.19 2.673 2.481 2.673 6.872.191 9.354z"/><circle cx="42" cy="45.191" r="24" fill="#fdfdfd"/><ellipse cx="42.041" cy="46.691" fill="#ef675a" rx="9.041" ry="8.5"/><path fill="#ef675a" d="M35.581 25.976c5.223-.839 10.871-.21 16.319 4.489s8.516 12.24 4.199 21.165c-5.389 11.14-17.473 9.456-22.559 5.407-8.677-6.91-4.293-20.061 3.782-21.457 6.87-1.188 11.21 2.912 12.567 6.754l.008.024.429-.329q-.805-3.48-3.16-5.535l-.267-.224c-.766-.62-2.513-1.687-3.68-2.088-2.766-.95-3.564-.95-5.897-.763-1.848.147-9.75 2.16-11.962 10.884-2.21 8.723 2.371 17.471 11.962 21.618q9.59 4.147 19.94-1.799-.105.39-.554 1.286a24.9 24.9 0 0 1-8.672 4.05c-2.168.38-4.676.648-7.409.696C27.458 69.442 17 58.538 17 45.191q0-.782.048-1.554c.517-1.5 1.028-2.848 1.416-3.96 1.884-5.41 8.49-12.314 17.117-13.7m1.302 14.927c-3.78 2.145-5.649 9.078 1.664 12.63 3.843 1.868 6.945.566 8.743-.922 2.663-2.202 3.245-5.796 3.037-8.308a7.8 7.8 0 0 0-.368-1.767l-.061-.178-6.908 5.316.113-.114c1.959-2.058 1.571-5.827-1.788-7.075-1.275-.474-3.284-.234-4.432.418"/></g></svg>