<svg xmlns="http://www.w3.org/2000/svg" xmlns:xlink="http://www.w3.org/1999/xlink" viewBox="0 0 96 96"><defs><filter id="a" width="135.3%" height="130.8%" x="-17.6%" y="-15.4%" filterUnits="objectBoundingBox"><feOffset dy="2" in="SourceAlpha" result="shadowOffsetOuter1"/><feGaussianBlur in="shadowOffsetOuter1" result="shadowBlurOuter1" stdDeviation="2"/><feColorMatrix in="shadowBlurOuter1" result="shadowMatrixOuter1" values="0 0 0 0 0 0 0 0 0 0 0 0 0 0 0 0 0 0 0.2 0"/><feMerge><feMergeNode in="shadowMatrixOuter1"/><feMergeNode in="SourceGraphic"/></feMerge></filter></defs><g fill="none" fill-rule="evenodd" filter="url(#a)" transform="translate(14 9)"><path fill="#fff" d="M41 43h-4l-.265.004a9 9 0 0 0-8.68 7.995L28 51v6c0 7.732-6.268 14-14 14H7v-8h4l.265-.004A9 9 0 0 0 20 54v-5c0-3.918 1.61-7.46 4.203-10A13.95 13.95 0 0 1 20 29v-5a9 9 0 0 0-8.735-8.996L11 15H7V7h7c7.732 0 14 6.268 14 14v6h.055a9 9 0 0 0 8.68 7.996L37 35h4z"/><path fill="#004465" fill-rule="nonzero" d="M0 0v22h7a4 4 0 0 1 4 4v26a4 4 0 0 1-4 4H0v22h14l.39-.004.354-.01C26.056 77.553 35 68.306 35 57v-5.129l.022-.179.026-.138a2.01 2.01 0 0 1 1.73-1.542l.135-.01.122-.002H48V28H37.101l-.19-.003-.129-.008a2 2 0 0 1-1.77-1.758L35 26.122V21C35 9.402 25.598 0 14 0zm14 7c7.732 0 14 6.268 14 14v6h.055a9 9 0 0 0 8.68 7.996L37 35h4v8h-4l-.265.004a9 9 0 0 0-8.647 7.732l-.033.263L28 51v6c0 7.628-6.1 13.83-13.687 13.997L14 71H7v-8h4l.265-.004a9 9 0 0 0 8.731-8.73L20 54v-5c0-3.918 1.61-7.46 4.203-10A13.95 13.95 0 0 1 20 29v-5a9 9 0 0 0-8.735-8.996L11 15H7V7z"/><g transform="translate(35)"><path fill="#046" d="M16 0h17v78H16C7.163 78 0 70.837 0 62V16C0 7.163 7.163 0 16 0"/><circle cx="19.5" cy="14.5" r="8.5" fill="#fff"/><circle cx="19.5" cy="38.5" r="8.5" fill="#0a0"/><circle cx="19.5" cy="62.5" r="8.5" fill="#fff"/></g></g></svg>