<svg xmlns="http://www.w3.org/2000/svg" viewBox="0 0 64 64"><path d="M29 5h6c4 0 25 18 25 43 0 10-18 13-28 13S4 58 4 48C4 23 25 5 29 5" opacity=".2"/><path fill="#4584e7" d="M29 4h6c4 0 25 18 25 43 0 10-18 13-28 13S4 57 4 47C4 22 25 4 29 4"/><circle cx="24" cy="27" r="8" opacity=".2"/><circle cx="24" cy="26" r="8" fill="#fff"/><circle cx="40" cy="27" r="8" opacity=".2"/><circle cx="40" cy="26" r="8" fill="#fff"/><path d="M25 41h14l-7 16z" opacity=".2"/><path fill="#f0e24b" d="M25 40h14l-7 16z"/><circle cx="27" cy="26" r="5" fill="#494949"/><circle cx="37" cy="26" r="5" fill="#494949"/><path fill="#fff" d="M29 4C25 4 4 22 4 47c0 .106.014.208.018.313C4.399 22.673 25.037 5 29 5h6c3.963 0 24.6 17.673 24.982 42.313.004-.105.018-.207.018-.313C60 22 39 4 35 4z" opacity=".2"/><path fill="#fff" d="m25 40 .438 1h13.125L39 40z" opacity=".2"/></svg>