<svg xmlns="http://www.w3.org/2000/svg" xmlns:xlink="http://www.w3.org/1999/xlink" viewBox="0 0 96 96"><defs><filter id="a" width="130.8%" height="130.8%" x="-15.4%" y="-15.4%" filterUnits="objectBoundingBox"><feOffset dy="2" in="SourceAlpha" result="shadowOffsetOuter1"/><feGaussianBlur in="shadowOffsetOuter1" result="shadowBlurOuter1" stdDeviation="2"/><feColorMatrix in="shadowBlurOuter1" result="shadowMatrixOuter1" values="0 0 0 0 0 0 0 0 0 0 0 0 0 0 0 0 0 0 0.2 0"/><feMerge><feMergeNode in="shadowMatrixOuter1"/><feMergeNode in="SourceGraphic"/></feMerge></filter></defs><g fill="none" fill-rule="evenodd" filter="url(#a)" transform="translate(9 9)"><rect width="78" height="78" fill="#fff" rx="18"/><path fill="green" d="M11.429 72c-4.43 0-4.43 0-4.429-4.43v-.465c.001-4.103.001-4.103 4.182-3.892a6.43 6.43 0 0 0 2.38 2.232l-.008-.007c.583.797.975 1.736 1.766 2.38.213 4.181.213 4.181-3.891 4.182"/><path fill="#108101" d="M51.221 21.516c-.03-3.21.049-6.427-.137-9.629-.097-1.662.73-1.705 1.892-1.617q.142.136.286.268c.419.707.376 1.493.396 2.269.062 1.24.05 2.481.01 3.72-.335 1.577 1.014 2.01 1.891 2.769.388.76.362 1.473-.226 2.127l-4.166.04z"/><path fill="#47a347" d="M33.345 38.749c.062-.943-.214-2.128 1.438-1.87.671.104.993-.25.938-.926-.071-.866.072-1.522 1.186-1.419.462.043.725-.286.662-.715-.315-2.173 1.332-1.461 2.374-1.641q.132.14.267.278c.388.775.274 1.493-.246 2.165-.038 1.192.257 2.63-1.776 2.305-.356-.056-.6.229-.565.57.153 1.543-.973 1.222-1.836 1.293-.824.572-1.64.726-2.442-.04"/><path fill="#3d9151" d="M48.717 45.3c.028 1.545-.069 3.106.117 4.632.231 1.909-.39 2.74-2.343 2.393q-.144-.139-.29-.276c-.429-.734-.375-1.549-.397-2.353.008-1.5-.342-3.045.568-4.43.79-.596 1.573-.636 2.345.033m-11.141-1.89c-.35-1.955.481-2.575 2.391-2.343 1.527.186 3.088.09 4.634.118.658.764.62 1.54.047 2.33-1.378.932-2.927.574-4.428.588-.809-.016-1.63.038-2.369-.398q-.138-.146-.275-.295"/><path fill="#458403" d="M55.333 8.038c1.397-.022 2.812.09 4.186-.1 1.939-.268 2.731.387 2.37 2.336q-.136.144-.271.29c-1.934.674-3.892.496-5.857.17a1.6 1.6 0 0 1-.641-.469c-.408-.787-.402-1.537.213-2.227"/><path fill="#43a144" d="m44.589 43.447.012-2.263 4.19-.12c.749.781.62 1.59.074 2.41l-.148 1.826-2.265.012a11 11 0 0 0-.231-.199 3 3 0 0 0-1.439-1.43q-.099-.117-.193-.236"/><path fill="#427688" d="M35.805 52.278 35.69 50c-.987-1.59-.986-3.175.02-4.756l-.014.048c.637-.47 1.285-.552 1.952-.061 1.125 2.096.649 4.305.454 6.495a1.9 1.9 0 0 1-.42.707c-.663.401-1.292.374-1.878-.156"/><path fill="#427686" d="m39.899 54.209-2.278-.114c-.527-.575-.511-1.165-.047-1.767l.105-.11c2.283-1.061 4.578-.928 6.882-.067.599.67.536 1.356.046 2.051l.048-.013c-1.582 1.007-3.167 1.007-4.756.02"/><path fill="#4ea64e" d="M35.71 45.245 35.691 50c-1.586.165-2.468-.154-2.364-2.146.092-1.757.174-3.012 2.383-2.61"/><path fill="#5a5" d="m33.345 38.749 2.442.04c-.314.728.515 1.963-.6 2.213-1.178.265-2.474.123-3.702-.006-.557-.059-.393-.748-.404-1.188-.011-.462-.027-.973.634-1.014.542-.034 1.086-.032 1.63-.045"/><path fill="#89c489" d="M44.547 29.852c.479 1.946-.33 2.684-2.241 2.388q-1.173.935-2.425.11l.062-.172c-.35-1.91.522-2.572 2.328-2.28.747-.59 1.504-.677 2.276-.046"/><path fill="#4da64f" d="m39.899 54.209 4.755-.02c.46 2.5-1.154 2.215-2.836 2.38-2.166.212-1.907-1.073-1.92-2.36"/><path fill="#4d8504" d="m55.333 21.423-.03-2.173.271-.328c1.523-.645 3.032-.687 4.52.114.56.814.59 1.61-.083 2.382z"/><path fill="#078000" d="M64.25 12.63c1.613-.222 2.373.119 2.379 2.104.006 2.005-.789 2.31-2.385 2.1l-.288-.252c-.543-1.235-.547-2.469.001-3.704z"/><path fill="#488404" d="M61.89 10.274c1.937-.368 2.614.527 2.36 2.356l-.046.024c-.791.612-1.603.668-2.439.09-.58-.834-.54-1.647.092-2.437z"/><path fill="#acd5ac" d="m48.865 43.474-.075-2.41-.024.014c.766-.56 1.532-.668 2.302-.008.466 1.9-.365 2.614-2.203 2.404"/><path fill="#398303" d="M64.244 16.834c.28 1.86-.445 2.711-2.369 2.355l-.28-.295c-.358-.82-.35-1.592.308-2.276.81-.46 1.575-.388 2.299.192z"/><path fill="#89c489" d="m51.068 41.07-2.302.008c-.28-1.904.583-2.624 2.42-2.334l-.035-.033z"/><path fill="green" d="M55.305 34.54c.449 2.016-.405 2.729-2.35 2.35l.054.056c-.378-1.947.337-2.8 2.352-2.35zm.056.056c-.404-1.927.315-2.764 2.302-2.367l-.057-.054c.46 1.983-.283 2.794-2.301 2.365z"/><path fill="#6ab46a" d="m39.88 32.35 2.426-.11c.285 1.841-.507 2.624-2.342 2.38z"/><path fill="green" d="M59.972 29.872c.443 2.031-.396 2.748-2.365 2.304l.057.054c-.388-1.976.426-2.717 2.365-2.301z"/><path fill="#2c952c" d="M13.563 65.445c-1.79.318-2.674-.33-2.381-2.232 2.04-.585 2.613.394 2.38 2.232"/><path fill="green" d="M46.53 25.756c-.456-1.977.273-2.8 2.298-2.36l-.057-.057c.412 1.933-.32 2.754-2.298 2.362zm17.642-.084c.412 1.933-.319 2.755-2.298 2.363l.057.054c-.456-1.976.273-2.8 2.298-2.36z"/><path fill="#0b8001" d="m55.333 8.038-.036 2.174c-.727.81-1.495.672-2.281.097l-.04-.039c-.267-1.856.33-2.8 2.357-2.232"/><path fill="green" d="M64.229 25.729c.138-.776-.497-1.774.388-2.286.424-.246 1.295-.36 1.696.136.272.337.209.993.197 1.504-.02.87-.725.564-1.196.606-.377.034-.76-.008-1.142-.017z"/><path fill="#2b952b" d="M15.32 67.817c-2.023.272-1.824-1.106-1.766-2.38 2.096-.324 2.017.964 1.766 2.38"/><path fill="#108610" d="m44.547 29.852-2.276.046c-.404-2.114.9-2.027 2.316-1.797l-.055-.055z"/><path fill="green" d="M44.587 28.1c-.013-1.327-.368-2.939 1.942-2.345l-.057-.054c.118 1.414.19 2.79-1.94 2.344zm4.24-4.706c-.54-2.328 1.084-1.903 2.393-1.879l-.054-.053c.418 2.177-1.002 2.009-2.395 1.876z"/><path fill="#2b8202" d="m60.01 21.418.01-2.192c.59-.633 1.207-.523 1.836-.068l.02.03c-.037 1.234.422 2.88-1.865 2.23"/><path fill="#38904b" d="m37.587 45.289-1.89.004c-.21-1.462.372-2.134 1.879-1.884l.035.042q.658.721.227 1.598z"/><path fill="#058105" d="M52.954 36.89c.343 1.542-.2 2.207-1.803 1.822l.034.032c-.366-1.588.308-2.121 1.825-1.799z"/><path fill="#499e52" d="m37.574 52.328.047 1.767q-2.384.568-1.816-1.817z"/><path fill="green" d="M60.029 29.929c-.332-1.61.296-2.23 1.901-1.84l-.057-.055c.268 1.546-.335 2.19-1.9 1.838z"/><path fill="#38914a" d="m44.607 54.202.003-1.89.242-.25q.874-.43 1.597.227l.042.036c.25 1.507-.422 2.088-1.884 1.877"/><path fill="#ac8b09" d="m53.049 16.799.001-4.127c.785-.683 1.597-.724 2.439-.104.785 1.428.772 2.86.017 4.296-.836.65-1.655.616-2.457-.065"/><path fill="#6c8606" d="m53.049 16.799 2.265.063c.678.718.67 1.455.064 2.21l-.076.178c-1.776.126-2.7-.533-2.253-2.451"/><path fill="#5f8505" d="m55.315 12.597-2.265.075-.034-2.363 2.281-.097.088.175c.601.757.606 1.494-.07 2.21"/><path fill="#545ed0" d="m44.61 52.311-6.932-.093-.09-6.93.02.019c.777-.618 1.713-1.027 2.368-1.804l4.613-.056-.033.03q.926.941 1.866 1.869l.03-.034-.055 4.61c-.774.658-1.186 1.592-1.804 2.37z"/><path fill="#46709a" d="M44.593 52.291c-.063-1.296-.142-2.603 1.804-2.37l.052 2.368z"/><path fill="#476f9d" d="M39.976 43.503c.235 1.946-1.072 1.868-2.367 1.804l.002-1.856z"/><path fill="#c38c0a" d="m55.315 12.597.07-2.21 6.472-.08.038 2.3q1.434 2.125-.004 4.247l-.035 2.304-1.836.067q-2.322-.075-4.642-.153l-.064-2.21z"/><path fill="#3c7e71" d="M46.422 45.346q-2.138.268-1.866-1.87 2.28-.41 1.866 1.87"/><path fill="#858807" d="m61.89 16.854.005-4.246 2.309.046-.002 4.156z"/></g></svg>