<svg xmlns="http://www.w3.org/2000/svg" xmlns:xlink="http://www.w3.org/1999/xlink" viewBox="0 0 96 96"><defs><linearGradient id="b" x1="50%" x2="50%" y1="0%" y2="104.177%"><stop offset="0%" stop-color="#f5f5f5"/><stop offset="100%" stop-color="#e6e6e6"/></linearGradient><linearGradient id="c" x1="50%" x2="50%" y1="0%" y2="104.177%"><stop offset="0%" stop-color="#ebebeb"/><stop offset="100%" stop-color="#dcdcdc"/></linearGradient><filter id="a" width="130.8%" height="130.8%" x="-15.4%" y="-15.4%" filterUnits="objectBoundingBox"><feOffset dy="2" in="SourceAlpha" result="shadowOffsetOuter1"/><feGaussianBlur in="shadowOffsetOuter1" result="shadowBlurOuter1" stdDeviation="2"/><feColorMatrix in="shadowBlurOuter1" result="shadowMatrixOuter1" values="0 0 0 0 0 0 0 0 0 0 0 0 0 0 0 0 0 0 0.2 0"/><feMerge><feMergeNode in="shadowMatrixOuter1"/><feMergeNode in="SourceGraphic"/></feMerge></filter></defs><g fill="none" filter="url(#a)" transform="translate(9 9)"><path fill="url(#b)" d="M18 0h42c9.941 0 18 8.059 18 18v42c0 9.941-8.059 18-18 18H18C8.059 78 0 69.941 0 60V18C0 8.059 8.059 0 18 0"/><path fill="url(#c)" d="M51 0v5h10V.027q.505.028 1 .083V5h10v-.416q.748.67 1.417 1.416H73v10h4.89q.055.497.083 1H73v10h5v1h-5v10h5v1h-5v10h5v1h-5v10h5q0 .504-.027 1H73v10h1.248q-.398.516-.832 1H73v.45q-.48.502-1 .966V72H62v5.89q-.495.055-1 .083V72H51v6h-1v-6H40v6h-1v-6H29v6h-1v-6H18v6q-.503 0-1-.027V72H7v2.25a18 18 0 0 1-1-.833V72H4.584q-.435-.484-.832-1H6V60.999H.027Q0 60.504 0 60v-.001h6v-10H0v-1h6v-10H0v-1h6v-10H0v-1h6v-10H.027q.028-.503.083-1H6v-10H4.584q.465-.518.967-1H6v-.416q.485-.435 1-.832v1.248h10V.027Q17.497 0 18 0v4.999h10V0h1v4.999L39 5V0h1v5h10V0zm-1 61H40v10h10zm-21-.001V71h10V61zM72 61H62v10h10zm-11 0H51v10h10zm-44-.001H7V71h10zm11 0H18V71h10zM72 50H62v10h10zm-22 0H40v10h10zm-21-.001v10L39 60V50zM61 50H51v10h10zm-33-.001H18v10h10zm-11 0H7v10h10zM72 39H62v10h10zm-11 0H51v10h10zm-11 0H40v10h10zm-21-.001v10L39 49V39zm-1 0H18v10h10zm-11 0H7v10h10zM50 28H40v10h10zm22 0H62v10h10zm-11 0H51v10h10zm-32-.001v10L39 38V28zm-1 0H18v10h10zm-11 0H7v10h10zM72 17H62v10h10zm-11 0H51v10h10zm-11 0H40v10h10zm-21-.001v10L39 27V17zm-1 0H18v10h10zm-11 0H7v10h10zm12-11v10L39 16V6zM50 6H40v10h10zm11 0H51v10h10zm11 0H62v10h10zm-44-.001H18v10h10zm-11 0H7v10h10z"/><path fill="#005bbf" d="M50 0h11c9.28 0 16.825 7.437 16.997 16.677L78 17H50z"/><path fill="#de2f54" d="M0 39h57v11H0z"/><path fill="#005bbf" d="M0 39h18v11H0z"/><path fill="#f7740f" d="M21.877 34.826c-.142.032-.2-.082-.215-.163-.017-.09-.015-.164-.224-.131-.302.047-.447-.202-.438-.336.047-.693.955-1.135 1.882-1.19.928-.054 1.118.24 1.118.745 0 .504-.874 1.249-1.559 1.249-.259 0 .17-.337-.564-.174m8.246 0c.142.032.2-.082.215-.163.017-.09.015-.164.224-.131.302.047.447-.202.438-.336-.047-.693-.955-1.135-1.882-1.19-.928-.054-1.118.24-1.118.745 0 .504.874 1.249 1.559 1.249.259 0-.17-.337.564-.174"/><path fill="#090101" d="M25.725 20c2.345 0 5.368 2.332 5.722 7.034q.204.22.388.46c.805 1.057 1.141 2.208.75 2.57-.242.224-.708.092-1.218-.293-.53 3.912-2.603 5.229-5.39 5.229-2.78 0-5.1-1.31-5.639-5.197-.493.36-.94.478-1.175.26-.39-.361-.055-1.512.75-2.57q.161-.21.337-.404C20.585 22.35 23.37 20 25.725 20"/><path fill="#fff" d="M30.41 29.251c0-1.351-.364-3.484-.996-4.485-1.651-2.616-1.893-.366-3.531-.366-1.637 0-2.215-2.012-3.886.362-.682.969-.998 3.136-.998 4.489 0 3.322 2.239 4.249 5 4.249s4.41-.927 4.41-4.249"/><path fill="#f7740f" d="m25.927 26.457.916-.207c.125-.028.183-.078.146-.125-.036-.048-.16-.083-.31-.09Q25.855 26 25.5 26t-1.179.036c-.15.006-.274.041-.31.089-.037.047.021.097.146.125l.916.207c.256.057.598.057.854 0"/><path fill="#090101" d="M27 25.5a.5.5 0 1 0 1 0 .5.5 0 0 0-1 0m-4 0a.5.5 0 1 0 1 0 .5.5 0 0 0-1 0"/><path fill="#ff8e87" d="M22 26.25c0 .09.095.172.25.217a.95.95 0 0 0 .5 0c.155-.045.25-.128.25-.217 0-.138-.224-.25-.5-.25s-.5.112-.5.25m6 0c0 .09.095.172.25.217a.95.95 0 0 0 .5 0c.155-.045.25-.128.25-.217 0-.138-.224-.25-.5-.25s-.5.112-.5.25"/></g></svg>