<svg xmlns="http://www.w3.org/2000/svg" xmlns:xlink="http://www.w3.org/1999/xlink" viewBox="0 0 96 96"><defs><linearGradient id="b" x1="50%" x2="48.103%" y1="0%" y2="126.702%"><stop offset="0%" stop-color="#6bdb00"/><stop offset="100%" stop-color="#00d2c3"/><stop offset="100%" stop-color="#00d2c3"/></linearGradient><linearGradient id="c" x1="50%" x2="50%" y1="0%" y2="100%"><stop offset="0%" stop-color="#f7ac6d"/><stop offset="100%" stop-color="#eb743b"/></linearGradient><linearGradient id="d" x1="50%" x2="50%" y1="0%" y2="124.249%"><stop offset="0%" stop-color="#7676db"/><stop offset="100%" stop-color="#8c49ff"/></linearGradient><filter id="a" width="132%" height="132%" x="-16%" y="-16%" filterUnits="objectBoundingBox"><feOffset dy="2" in="SourceAlpha" result="shadowOffsetOuter1"/><feGaussianBlur in="shadowOffsetOuter1" result="shadowBlurOuter1" stdDeviation="2"/><feColorMatrix in="shadowBlurOuter1" result="shadowMatrixOuter1" values="0 0 0 0 0 0 0 0 0 0 0 0 0 0 0 0 0 0 0.2 0"/><feMerge><feMergeNode in="shadowMatrixOuter1"/><feMergeNode in="SourceGraphic"/></feMerge></filter></defs><g fill="none" filter="url(#a)" transform="translate(11 11)"><path fill="url(#b)" d="M15 60v15H6a6 6 0 0 1-6-6v-9zm30 0v15H30V60zm30 0v9a6 6 0 0 1-6 6h-9V60zM30 45v15H15V45zm30 0v15H45V45zM15 30v15H0V30zm30 0v15H30V30zm30 0v15H60V30zM30 15v15H15V15zm30 0v15H45V15zM15 0v15H0V6a6 6 0 0 1 6-6zm30 0v15H30V0zm24 0a6 6 0 0 1 6 6v9H60V0z"/><path fill="url(#c)" d="M30 60v15H15V60zm30 0v15H45V60zM15 45v15H0V45zm30 0v15H30V45zm30 0v15H60V45zM60 30v15H45V30zM15 15v15H0V15zm30 0v15H30V15zm30 0v15H60V15zM30 0v15H15V0zm30 0v15H45V0z"/><path fill="url(#d)" d="M15 30h15v15H15z"/></g></svg>