<svg xmlns="http://www.w3.org/2000/svg" xmlns:xlink="http://www.w3.org/1999/xlink" viewBox="0 0 96 96"><defs><linearGradient id="b" x1="50%" x2="50%" y1="0%" y2="100%"><stop offset="0%" stop-color="#0e0304"/><stop offset="100%" stop-color="#060101"/></linearGradient><linearGradient id="c" x1="50%" x2="50%" y1="0%" y2="100%"><stop offset="0%" stop-color="#e7513e"/><stop offset="100%" stop-color="#ca281d"/></linearGradient><filter id="a" width="130.8%" height="130.8%" x="-15.4%" y="-15.4%" filterUnits="objectBoundingBox"><feOffset dy="2" in="SourceAlpha" result="shadowOffsetOuter1"/><feGaussianBlur in="shadowOffsetOuter1" result="shadowBlurOuter1" stdDeviation="2"/><feColorMatrix in="shadowBlurOuter1" result="shadowMatrixOuter1" values="0 0 0 0 0 0 0 0 0 0 0 0 0 0 0 0 0 0 0.2 0"/><feMerge><feMergeNode in="shadowMatrixOuter1"/><feMergeNode in="SourceGraphic"/></feMerge></filter></defs><g fill="none" fill-rule="evenodd" filter="url(#a)" transform="translate(9.432 9.43)"><rect width="78" height="78" fill="#fff" rx="18"/><path fill="url(#b)" d="M35.198 67c8.79-6.817 11.233-15.26 8.884-25.267-1.117-4.762-4.28-7.979-8.343-10.433-2.457-1.485-5.027-2.814-7.34-4.496-3.333-2.425-4.137-5.622-2.86-9.853 1.073-3.56 3.473-5.382 7.606-5.666 9.683-.667 16.822 3.735 22.011 11.512 9.467 14.188 4.606 34.365-9.916 41.722-2.989 1.513-6.152 2.363-10.042 2.481" transform="translate(8.72 5.836)"/><path fill="url(#c)" d="M24.604 0c-8.012 6.218-10.672 13.863-9.289 23.091.786 5.245 3.541 9.165 7.921 11.986 2.493 1.606 5.15 2.96 7.611 4.612 3.851 2.586 4.855 5.769 3.506 10.354-1.054 3.579-3.847 5.537-8.246 5.66-9.206.258-16.072-3.955-21.101-11.378-8.422-12.43-5.958-29.844 5.44-39.063C14.41 2.057 18.95.345 24.605 0" transform="translate(8.72 5.836)"/></g></svg>