<svg xmlns="http://www.w3.org/2000/svg" viewBox="0 0 64 64"><rect width="32" height="40" x="4" y="21" opacity=".2" rx="2.8" ry="2.8"/><rect width="32" height="40" x="4" y="20" fill="#ccc" rx="2.8" ry="2.8"/><path fill="#fff" d="M6.8 20C5.25 20 4 21.25 4 22.801v1A2.796 2.796 0 0 1 6.8 21h26.4a2.796 2.796 0 0 1 2.8 2.801v-1A2.796 2.796 0 0 0 33.199 20z" opacity=".2"/><path fill="#9f9f9f" d="M21 44v2h6v-2ZM8 54v2h16v-2Zm0-25v2h14v-2Zm0-5v2h10v-2Zm13 15v2h12v-2ZM8 49v2h24v-2Zm13-15v2h6v-2Z"/><path d="M29.801 5A2.796 2.796 0 0 0 27 7.8V47h3V34h3v10h3V34h3v7h3v-7h3v10h3V34h3v13h3V34h3v10h3V17l-10-2-2-10Z" opacity=".2"/><path fill="#e4e4e4" d="M29.801 4A2.796 2.796 0 0 0 27 6.8V46h3V33h3v10h3V33h3v7h3v-7h3v10h3V33h3v13h3V33h3v10h3V16l-10-2-2-10Z"/><path fill="#5e4191" d="M8 34h10v12H8z"/><path d="M48 5v9.199C48 15.749 49.25 17 50.8 17H60Z" opacity=".2"/><path fill="#ccc" d="M48 4v9.199C48 14.749 49.25 16 50.8 16H60Z"/><path fill="#bbb" d="M44 28v2h8v-2ZM31 13v2h14v-2Zm0-5v2h10V8Zm13 15v2h12v-2Zm0-5v2h8v-2Z"/><path fill="#ab47bc" d="M31 18h10v12H31z"/><path fill="#fff" d="M48 4H29.801A2.796 2.796 0 0 0 27 6.8v1C27 6.25 28.251 5 29.801 5H48" opacity=".2"/></svg>