<svg xmlns="http://www.w3.org/2000/svg" xmlns:xlink="http://www.w3.org/1999/xlink" viewBox="0 0 96 96"><defs><linearGradient id="b" x1="50%" x2="50%" y1="0%" y2="100%"><stop offset="0%" stop-color="#6bbdff"/><stop offset="100%" stop-color="#003061"/></linearGradient><linearGradient id="c" x1="50%" x2="50%" y1="0%" y2="100%"><stop offset="0%" stop-opacity=".788"/><stop offset="100%"/></linearGradient><linearGradient id="d" x1="50%" x2="50%" y1="0%" y2="100%"><stop offset="0%" stop-color="#a8ff00"/><stop offset="98.896%" stop-color="#61a600"/></linearGradient><linearGradient id="e" x1="50%" x2="50%" y1="0%" y2="100%"><stop offset="0%" stop-opacity=".582"/><stop offset="100%" stop-opacity=".836"/></linearGradient><linearGradient id="f" x1="50%" x2="50%" y1="0%" y2="100%"><stop offset="0%" stop-opacity=".582"/><stop offset="100%" stop-opacity=".836"/></linearGradient><linearGradient id="g" x1="49.297%" x2="57.754%" y1="22.624%" y2="96.378%"><stop offset="0%" stop-color="#fff"/><stop offset="100%" stop-color="#fff" stop-opacity=".346"/></linearGradient><linearGradient id="h" x1="11.836%" x2="114.734%" y1="51.402%" y2="50.051%"><stop offset="0%" stop-opacity=".533"/><stop offset="100%" stop-color="#888a85" stop-opacity="0"/></linearGradient><linearGradient id="i" x1="32.083%" x2="32.083%" y1="84.087%" y2="-16.208%"><stop offset="0%" stop-color="#fff" stop-opacity=".696"/><stop offset="100%" stop-color="#fff" stop-opacity="0"/></linearGradient><linearGradient id="j" x1="44.524%" x2="-5.874%" y1="52.869%" y2="52.869%"><stop offset="0%" stop-opacity=".391"/><stop offset="100%" stop-color="#888a85" stop-opacity="0"/></linearGradient><filter id="a" width="127.7%" height="132%" x="-13.3%" y="-16%" filterUnits="objectBoundingBox"><feOffset dy="2" in="SourceAlpha" result="shadowOffsetOuter1"/><feGaussianBlur in="shadowOffsetOuter1" result="shadowBlurOuter1" stdDeviation="2"/><feColorMatrix in="shadowBlurOuter1" result="shadowMatrixOuter1" values="0 0 0 0 0 0 0 0 0 0 0 0 0 0 0 0 0 0 0.2 0"/><feMerge><feMergeNode in="shadowMatrixOuter1"/><feMergeNode in="SourceGraphic"/></feMerge></filter></defs><g fill="none" fill-rule="evenodd" filter="url(#a)" transform="translate(2 11)"><path fill="url(#b)" fill-rule="nonzero" stroke="url(#c)" d="M27.288.397c9.31 0 15.784 3.052 20.078 8.443 4.71 5.914 6.792 14.687 7.032 25.452.236 10.733-1.746 19.347-6.411 25.204-4.38 5.5-11.127 8.602-20.693 8.713-9.26.106-15.7-3.158-19.981-8.533C2.358 53.456.302 44.365.179 34.309.059 24.224 2.233 15.38 7.106 9.262 11.514 3.73 18.126.397 27.288.397Z" transform="translate(35.97 .524)"/><path stroke="#fff" stroke-width="2.591" d="m49.954 23.09 22.55 22.12L61.68 56.721l-.226-43.789L72.955 23.09 50.856 45.661"/><path fill="url(#d)" d="M18.17 1.575c6.483 0 12.39 3.665 15.04 9.16h32.393l3.912 2.42v5.79l-5.069 5.79h-2.314l-3.47-3.474-3.47 3.473h-2.315l-2.313-4.631H48.25l-2.314 4.631h-2.314l-3.47-3.473-3.471 3.473h-3.47c-2.631 5.548-8.375 9.264-14.896 9.264-9.034 0-16.34-7.353-16.34-16.429S9.135 1.575 18.17 1.575m-6.94 11.58a4.63 4.63 0 0 0-4.628 4.632 4.63 4.63 0 0 0 4.627 4.632 4.63 4.63 0 0 0 4.628-4.632 4.63 4.63 0 0 0-4.628-4.632" transform="translate(.485 39.266)"/><path stroke="url(#e)" stroke-linecap="round" stroke-linejoin="round" d="M11.23 12.655a5.1 5.1 0 0 1 3.625 1.503 5.12 5.12 0 0 1 1.502 3.629 5.12 5.12 0 0 1-1.502 3.628 5.1 5.1 0 0 1-3.626 1.504 5.1 5.1 0 0 1-3.625-1.504 5.12 5.12 0 0 1-1.502-3.628c0-1.417.574-2.7 1.502-3.629a5.1 5.1 0 0 1 3.625-1.503" transform="translate(.485 39.266)"/><path fill="url(#f)" fill-rule="nonzero" d="M18.17.575c6.45 0 12.418 3.438 15.447 8.781l.171.31.035.068h31.78a1 1 0 0 1 .274.039l.13.046.122.065 3.912 2.42a1 1 0 0 1 .465.722l.009.129v5.79a1 1 0 0 1-.174.563l-.074.095-5.068 5.79a1 1 0 0 1-.63.334l-.123.007h-2.314a1 1 0 0 1-.608-.206l-.099-.087-2.763-2.766-2.763 2.766a1 1 0 0 1-.448.26l-.128.025-.132.008h-2.314a1 1 0 0 1-.831-.444l-.063-.109-2.039-4.079h-1.076l-2.037 4.08a1 1 0 0 1-.649.522l-.121.023-.125.007h-2.314a1 1 0 0 1-.608-.206l-.1-.087-2.763-2.766-2.763 2.766a1 1 0 0 1-.447.26l-.129.025-.131.008h-2.853l-.036.072c-2.846 5.393-8.457 8.919-14.735 9.177l-.37.011-.372.004c-9.585 0-17.34-7.8-17.34-17.429C.974 7.99 8.533.575 18.17.575m0 1c-9.034 0-16.196 6.919-16.196 15.994 0 8.97 7.136 16.256 16.023 16.426l.318.003.362-.004c6.25-.131 11.74-3.677 14.384-8.953l.15-.307h3.47l3.47-3.473 3.471 3.473h2.314l2.314-4.631h2.314l2.313 4.631h2.314l3.47-3.473 3.471 3.473h2.314l5.069-5.79v-5.79l-3.912-2.42H33.21l-.15-.303c-2.719-5.325-8.527-8.856-14.89-8.856" transform="translate(.485 39.266)"/><path stroke="url(#g)" stroke-linecap="round" d="M36.02-14.77c4.078 0 7.625 1.563 10.16 4.14 2.55 2.593 4.078 6.218 4.078 10.328 0 2.88-.828 5.635-2.252 7.968-1.456 2.384-3.534 4.326-5.984 5.51a1.73 1.73 0 0 0-1.01 1.408l-.009.168V46.64l-1.491 3.012h-4.36l-4.294-4.616 2.69-3.551a1.727 1.727 0 0 0 .14-2.369l-.118-.129-3.315-3.317 4.031-1.97c.251-.126.423-.314.534-.539.124-.25.178-.542.188-.852l.002-.189v-2.324c.006-.372-.041-.732-.19-1.032a1.16 1.16 0 0 0-.412-.47l-.117-.067-4.036-1.972 3.319-3.322a1.727 1.727 0 0 0 .093-2.37l-.108-.114-2.549-2.98v-2.718c0-.282-.15-.545-.345-.777a3.2 3.2 0 0 0-1.078-.798 14.3 14.3 0 0 1-6.016-5.418 15.03 15.03 0 0 1-2.223-7.916c0-4.058 1.632-7.711 4.282-10.35 2.649-2.638 6.315-4.263 10.39-4.263Zm-.217 1.145a6.35 6.35 0 0 0-4.49 1.88 6.36 6.36 0 0 0-1.879 4.495c0 1.744.723 3.337 1.88 4.495a6.35 6.35 0 0 0 4.49 1.88 6.35 6.35 0 0 0 4.49-1.88 6.36 6.36 0 0 0 1.878-4.495 6.36 6.36 0 0 0-1.879-4.494 6.35 6.35 0 0 0-4.49-1.881Z" opacity=".8" transform="rotate(-90 55.678 36.831)"/><path fill="url(#h)" d="M30.299 18.734c-4.513 0-9.45-.17-13.537.086-3.18 6.675-8.799 4.901-11.324 0 0 6.392 5.437 11.354 12.345 11.354S30.3 25.126 30.3 18.734" opacity=".3" transform="translate(.485 39.266)"/><path fill="url(#i)" d="M11.793 11.819c3.193 0 6.348 3.017 4.657 7.906 10.864-8.368 24.949-5.528 51.37-3.117.23-2.192-.236-3.64-3.025-4.877-10.4-.674-25.802-.15-32.612-.234-2.072-5.49-7.477-8.562-13.868-8.562-6.106.201-12.125 4.347-14.5 10.114 3.437-.52 1.902-.249 7.978-1.23" transform="translate(.485 39.266)"/><path fill="url(#j)" d="M31.515 13.734h38v2h-38z" transform="translate(.485 39.266)"/></g></svg>