<svg xmlns="http://www.w3.org/2000/svg" viewBox="0 0 64 64"><rect width="56" height="56" x="4" y="5" opacity=".2" rx="4" ry="4"/><rect width="56" height="56" x="4" y="4" fill="#e4e4e4" rx="4" ry="4"/><path d="M12 13v18h18V13zm23 0v18h18V13zM12 36v18h18V36zm23 0v18h18V36z" opacity=".2"/><path fill="#283593" d="M12 12v18h18V12zm0 23v18h18V35zm23 0v18h18V35z"/><path fill="#ba68c8" d="M35 12h18v18H35z"/><path fill="#fff" d="M8 4C5.784 4 4 5.784 4 8v1c0-2.216 1.784-4 4-4h48c2.216 0 4 1.784 4 4V8c0-2.216-1.784-4-4-4z" opacity=".2"/></svg>