<svg xmlns="http://www.w3.org/2000/svg" xmlns:xlink="http://www.w3.org/1999/xlink" viewBox="0 0 96 96"><defs><linearGradient id="b" x1="50%" x2="50%" y1=".486%" y2="98.615%"><stop offset="0%" stop-color="#e86a1f"/><stop offset="100%" stop-color="#d54205"/></linearGradient><filter id="a" width="130.8%" height="130.8%" x="-15.4%" y="-15.4%" filterUnits="objectBoundingBox"><feOffset dy="2" in="SourceAlpha" result="shadowOffsetOuter1"/><feGaussianBlur in="shadowOffsetOuter1" result="shadowBlurOuter1" stdDeviation="2"/><feColorMatrix in="shadowBlurOuter1" result="shadowMatrixOuter1" values="0 0 0 0 0 0 0 0 0 0 0 0 0 0 0 0 0 0 0.2 0"/><feMerge><feMergeNode in="shadowMatrixOuter1"/><feMergeNode in="SourceGraphic"/></feMerge></filter></defs><g fill="none" filter="url(#a)" transform="translate(9 9)"><path fill="url(#b)" d="M15.608.047h46.629c8.598 0 15.542 6.944 15.542 15.543v46.867C77.78 71.056 70.835 78 62.237 78H15.608C7.01 78 .065 71.056.065 62.457V15.59C.056 6.99 7.01.047 15.608.047"/><path fill="#fff" d="M33.067 57.29a4.65 4.65 0 0 1-1.374 3.336A4.66 4.66 0 0 1 28.356 62H24c2.3-.402 3.981-2.383 4.038-4.71V20.28a2.28 2.28 0 0 0-2.28-2.28H19.28A2.28 2.28 0 0 0 17 20.28v34.43c0 .608.243 1.187.673 1.617s1.01.673 1.617.673h2.28a2.39 2.39 0 0 1 2.16 1.14c.448.748.448 1.981 0 2.738a2.37 2.37 0 0 1-2.16 1.14h-4.7c-1.253.01-2.664-.485-3.542-1.373a4.66 4.66 0 0 1-1.374-3.337V17.711c.037-2.59 2.121-4.683 4.71-4.711h11.702a4.885 4.885 0 0 1 4.71 4.841V57.29zm32.834-44.16c.009 1.253-.487 2.617-1.375 3.495A4.66 4.66 0 0 1 61.19 18H45.262c-1.346 0-2.28.944-2.28 2.56V29h22.647c-.046 2.215-1.47 4.514-3.629 4.981v25.994c0 1.243-.804 2.44-1.682 3.318A4.7 4.7 0 0 1 57 64.667V34H43v26.096c0 1.243-.495 2.44-1.383 3.318S39.243 64.78 38 64.78V17.842a4.886 4.886 0 0 1 4.71-4.813H65.9z"/></g></svg>