<svg xmlns="http://www.w3.org/2000/svg" xmlns:xlink="http://www.w3.org/1999/xlink" viewBox="0 0 96 96"><defs><linearGradient id="b" x1="50%" x2="50%" y1="0%" y2="100%"><stop offset="0%" stop-color="#d8d8d8"/><stop offset="100%" stop-color="#5e5e5e"/></linearGradient><linearGradient id="c" x1="50%" x2="50%" y1="0%" y2="100%"><stop offset="0%" stop-color="#fcfafa"/><stop offset="100%" stop-color="#dfdfdf"/></linearGradient><linearGradient id="d" x1="50%" x2="50%" y1="0%" y2="140.563%"><stop offset="0%" stop-color="#020202"/><stop offset="100%" stop-opacity=".502"/></linearGradient><linearGradient id="e" x1="50%" x2="50%" y1=".888%" y2="99.2%"><stop offset="0%" stop-opacity=".361"/><stop offset="100%" stop-color="#090909" stop-opacity=".724"/></linearGradient><linearGradient id="f" x1="50%" x2="50%" y1="-69.458%" y2="207.007%"><stop offset="0%" stop-color="#34a9f1"/><stop offset="100%" stop-color="#002fb1"/></linearGradient><linearGradient id="j" x1="45.001%" x2="45.001%" y1="-39.945%" y2="174.728%"><stop offset="0%" stop-color="#eaeaea"/><stop offset="100%" stop-color="#c1c1c1"/></linearGradient><linearGradient id="k" x1="50%" x2="50%" y1="0%" y2="100%"><stop offset="0%" stop-color="#d4d4d4"/><stop offset="100%" stop-color="#bfbfbf"/></linearGradient><filter id="a" width="127.9%" height="136.4%" x="-14%" y="-18.2%" filterUnits="objectBoundingBox"><feOffset dy="2" in="SourceAlpha" result="shadowOffsetOuter1"/><feGaussianBlur in="shadowOffsetOuter1" result="shadowBlurOuter1" stdDeviation="2"/><feColorMatrix in="shadowBlurOuter1" result="shadowMatrixOuter1" values="0 0 0 0 0 0 0 0 0 0 0 0 0 0 0 0 0 0 0.2 0"/><feMerge><feMergeNode in="shadowMatrixOuter1"/><feMergeNode in="SourceGraphic"/></feMerge></filter><filter id="i" width="103.2%" height="107.1%" x="-.8%" y="-1.8%" filterUnits="objectBoundingBox"><feOffset dx="1" dy="1" in="SourceAlpha" result="shadowOffsetOuter1"/><feColorMatrix in="shadowOffsetOuter1" values="0 0 0 0 0 0 0 0 0 0 0 0 0 0 0 0 0 0 0.348858173 0"/></filter><path id="g" d="M18 49a2 2 0 0 1 2 2v4a2 2 0 0 1-2 2h-4a2 2 0 0 1-2-2v-4a2 2 0 0 1 2-2zm33 0a2 2 0 0 1 2 2v4a2 2 0 0 1-2 2h-4a2 2 0 0 1-2-2v-4a2 2 0 0 1 2-2zm-22 0a2 2 0 0 1 2 2v4a2 2 0 0 1-2 2h-4a2 2 0 0 1-2-2v-4a2 2 0 0 1 2-2zm33 0a2 2 0 0 1 2 2v4a2 2 0 0 1-2 2h-4a2 2 0 0 1-2-2v-4a2 2 0 0 1 2-2zm-22 0a2 2 0 0 1 2 2v4a2 2 0 0 1-2 2h-4a2 2 0 0 1-2-2v-4a2 2 0 0 1 2-2zm33 0a2 2 0 0 1 2 2v4a2 2 0 0 1-2 2h-4a2 2 0 0 1-2-2v-4a2 2 0 0 1 2-2zM18 39a2 2 0 0 1 2 2v4a2 2 0 0 1-2 2h-4a2 2 0 0 1-2-2v-4a2 2 0 0 1 2-2zm33 0a2 2 0 0 1 2 2v4a2 2 0 0 1-2 2h-4a2 2 0 0 1-2-2v-4a2 2 0 0 1 2-2zm-22 0a2 2 0 0 1 2 2v4a2 2 0 0 1-2 2h-4a2 2 0 0 1-2-2v-4a2 2 0 0 1 2-2zm33 0a2 2 0 0 1 2 2v4a2 2 0 0 1-2 2h-4a2 2 0 0 1-2-2v-4a2 2 0 0 1 2-2zm-22 0a2 2 0 0 1 2 2v4a2 2 0 0 1-2 2h-4a2 2 0 0 1-2-2v-4a2 2 0 0 1 2-2zm33 0a2 2 0 0 1 2 2v4a2 2 0 0 1-2 2h-4a2 2 0 0 1-2-2v-4a2 2 0 0 1 2-2zM18 29a2 2 0 0 1 2 2v4a2 2 0 0 1-2 2h-4a2 2 0 0 1-2-2v-4a2 2 0 0 1 2-2zm33 0a2 2 0 0 1 2 2v4a2 2 0 0 1-2 2h-4a2 2 0 0 1-2-2v-4a2 2 0 0 1 2-2zm-22 0a2 2 0 0 1 2 2v4a2 2 0 0 1-2 2h-4a2 2 0 0 1-2-2v-4a2 2 0 0 1 2-2zm33 0a2 2 0 0 1 2 2v4a2 2 0 0 1-2 2h-4a2 2 0 0 1-2-2v-4a2 2 0 0 1 2-2zm-22 0a2 2 0 0 1 2 2v4a2 2 0 0 1-2 2h-4a2 2 0 0 1-2-2v-4a2 2 0 0 1 2-2zm33 0a2 2 0 0 1 2 2v4a2 2 0 0 1-2 2h-4a2 2 0 0 1-2-2v-4a2 2 0 0 1 2-2z"/></defs><g fill="none" fill-rule="evenodd" filter="url(#a)" transform="translate(5 15)"><path fill="url(#b)" d="M8 0h70a8 8 0 0 1 8 8v50a8 8 0 0 1-8 8H8a8 8 0 0 1-8-8V8a8 8 0 0 1 8-8"/><path fill="#0f0f0f" fill-rule="nonzero" d="M78 0a8 8 0 0 1 8 8v50a8 8 0 0 1-8 8H8a8 8 0 0 1-8-8V8a8 8 0 0 1 8-8zm0 1H8a7 7 0 0 0-6.996 6.76L1 8v50a7 7 0 0 0 6.76 6.996L8 65h70a7 7 0 0 0 6.996-6.76L85 58V8a7 7 0 0 0-6.76-6.996z"/><path fill="url(#c)" d="M4 6h78v51a5 5 0 0 1-5 5H9a5 5 0 0 1-5-5z"/><path fill="url(#d)" d="M13 11h61a1 1 0 0 1 1 1v10a1 1 0 0 1-1 1H13a1 1 0 0 1-1-1V12a1 1 0 0 1 1-1"/><path fill="url(#e)" fill-rule="nonzero" d="M74 10H13a2 2 0 0 0-2 2v10a2 2 0 0 0 2 2h61a2 2 0 0 0 2-2V12a2 2 0 0 0-2-2m0 1a1 1 0 0 1 1 1v10a1 1 0 0 1-1 1H13a1 1 0 0 1-1-1V12a1 1 0 0 1 1-1z"/><path fill="url(#f)" d="M8 1h70a7 7 0 0 1 7 7H1a7 7 0 0 1 7-7"/><use xlink:href="#g" fill="#000" filter="url(#i)"/><use xlink:href="#g" fill="url(#j)"/><path fill="url(#k)" d="M64 14a1 1 0 0 1 1 1v2.999L67 18a1 1 0 0 1 0 2l-2-.001V22a1 1 0 0 1-1 1h-2a1 1 0 0 1-1-1v-2.001L59 20a1 1 0 0 1 0-2l2-.001V15a1 1 0 0 1 1-1zm9 0a1 1 0 0 1 1 1v7a1 1 0 0 1-1 1h-2a1 1 0 0 1-1-1v-7a1 1 0 0 1 1-1zm-21 0a1 1 0 0 1 1 1v4.626a1 1 0 0 0 .971 1l1.058.03a1 1 0 0 1 .971 1V22a1 1 0 0 1-1 1h-5a1 1 0 0 1-1-1v-7a1 1 0 0 1 1-1zm-12 0a1 1 0 0 1 1 1v3.847a1 1 0 0 0 1 1h1.124a1 1 0 0 1 1 1V22a1 1 0 0 1-1 1H18a1 1 0 0 1-1-1v-7a1 1 0 0 1 1-1z"/></g></svg>