<svg xmlns="http://www.w3.org/2000/svg" xmlns:xlink="http://www.w3.org/1999/xlink" viewBox="0 0 96 96"><defs><filter id="a" width="130.4%" height="130.4%" x="-15.2%" y="-15.2%" filterUnits="objectBoundingBox"><feOffset dy="2" in="SourceAlpha" result="shadowOffsetOuter1"/><feGaussianBlur in="shadowOffsetOuter1" result="shadowBlurOuter1" stdDeviation="2"/><feColorMatrix in="shadowBlurOuter1" result="shadowMatrixOuter1" values="0 0 0 0 0 0 0 0 0 0 0 0 0 0 0 0 0 0 0.2 0"/><feMerge><feMergeNode in="shadowMatrixOuter1"/><feMergeNode in="SourceGraphic"/></feMerge></filter></defs><g fill="none" fill-rule="evenodd" filter="url(#a)" transform="translate(11.622 9.592)"><path fill="#454545" d="M38.878 10.408c11.5-13.5 16-10 15.5-10s-2 1.5-4 5 2 2.5 3 0 2.5-3.5 4.5-5c12.5 0 17 3 19 6.5q-24.795 5.82-42.166 19.577c.105-.36.166-.876.166-1.577 0-4 .5-6 1.261-7.324.762-1.324.239-2.176-.761-1.176s-1.543 1.666-2 2.5-1.5 3-1 5.5c.263 1.314.94 2.49 1.524 2.73Q17.52 40.417 7.878 60.907q-1-5-3-6.5t-.5-1.5h3c.594 0 .13-.881-.45-1.702l-.186-.256a11 11 0 0 0-.864-1.042q-.5-.5-.5-1 1 0 2 .5l.16.08.5.25.34.17q-.5-3.5.5-7.5c1-4 4-8 5.5-9-1.5 3-1 9.5-1 11.5q0 2 1.5.5-.5-4.5.5-9.5c5-17.5 21.5-24.5 23.5-25.5"/><path fill="#010101" d="M8.77 62.778q.937-1.137 1.851-1.87c.914-.733 4.823-.162 4.995 0s1.615 1.283 2.357 1.283h2.217v-.53q-1.91-1.216-1.274-2.377c.636-1.16 2.283.375 2.627.375s4.563-.019 4.838-.197-.498-.544-1.296-.544-4.381-1.81-4.895-2.612-.824-.456.548-.63c1.373-.172 11.711.611 15.64-2.335q3.929-2.946 10.052-4.975-5.977-.586-9.017.584c-3.04 1.172-11.84 2.808-13.087 1.112q-1.245-1.695 4.532-.75 27.384-5.02 43.698-23.882c-1.421.36-7.36 5.456-12.104 6.305-4.742.848-18.07 2.4-22.074-.447-1.15-.89-.492-1.759 1.152-1.44 1.643.32 12.542 1.305 17.045.812s23.882-6.084 21.298-22.737q-.86-.245-1.392 0-44.235 12.263-65.86 51.361-1.384 1.86-1.687 1.925z"/><path fill="#000" d="M.55 78.705a.99.99 0 0 0 .794-.551l.253-.52 6.588-13.293.863-1.771.757-2.147-1.346.399-.68-.84-.356.926L.625 75.4a4 4 0 0 0-.346 1.19L.07 78.21a.44.44 0 0 0 .48.495"/></g></svg>