<svg xmlns="http://www.w3.org/2000/svg" xmlns:xlink="http://www.w3.org/1999/xlink" viewBox="0 0 96 96"><defs><linearGradient id="b" x1="49.999%" x2="35.693%" y1="25.318%" y2="70.815%"><stop offset="0%" stop-color="#5992ff"/><stop offset="100%" stop-color="#1c3f9c"/></linearGradient><linearGradient id="c" x1="49.596%" x2="29.252%" y1="1.945%" y2="100%"><stop offset="0%" stop-color="#9bb7f8"/><stop offset="100%" stop-color="#b2cefe"/></linearGradient><linearGradient id="d" x1="49.998%" x2="66.547%" y1="-.001%" y2="96.472%"><stop offset="0%" stop-color="#81b1ff"/><stop offset="100%" stop-color="#5a88db"/></linearGradient><linearGradient id="e" x1="50%" x2="50%" y1="0%" y2="100%"><stop offset="0%" stop-color="#fcfcfc"/><stop offset="100%" stop-color="#d0f0ff"/></linearGradient><linearGradient id="f" x1="48.272%" x2="45.602%" y1="0%" y2="104.425%"><stop offset="0%" stop-color="#609aff"/><stop offset="100%" stop-color="#2b6cd5"/></linearGradient><filter id="a" width="129.3%" height="129.6%" x="-14.6%" y="-14.8%" filterUnits="objectBoundingBox"><feOffset dy="2" in="SourceAlpha" result="shadowOffsetOuter1"/><feGaussianBlur in="shadowOffsetOuter1" result="shadowBlurOuter1" stdDeviation="2"/><feColorMatrix in="shadowBlurOuter1" result="shadowMatrixOuter1" values="0 0 0 0 0 0 0 0 0 0 0 0 0 0 0 0 0 0 0.2 0"/><feMerge><feMergeNode in="shadowMatrixOuter1"/><feMergeNode in="SourceGraphic"/></feMerge></filter></defs><g fill="none" filter="url(#a)" transform="translate(7 7)"><path fill="url(#b)" d="M77.915 22.59C71.21 9.207 57.236 0 41.081 0 26.934 0 14.32 7.262 6.932 17.998L25.8 49.87z"/><path fill="url(#c)" d="M38.335 80.939c15.098 1.032 29.893-6.398 38.038-20.16 7.132-12.05 7.216-26.484 1.54-38.19l-37.092-.077z"/><path fill="url(#d)" d="M25.8 49.871 6.932 17.998A39.9 39.9 0 0 0 0 40.52c0 21.468 16.93 39.028 38.337 40.419L57.5 48.662z"/><path fill="url(#e)" d="M40.994 60.913c-11.028 0-20-8.974-20-20.002s8.972-19.998 20-19.998c11.026 0 20 8.97 20 19.998s-8.974 20.002-20 20.002"/><circle cx="40.994" cy="40.913" r="15" fill="url(#f)"/></g></svg>