<svg xmlns="http://www.w3.org/2000/svg" xmlns:xlink="http://www.w3.org/1999/xlink" viewBox="0 0 96 96"><defs><filter id="a" width="130.8%" height="130.8%" x="-15.4%" y="-15.4%" filterUnits="objectBoundingBox"><feOffset dy="2" in="SourceAlpha" result="shadowOffsetOuter1"/><feGaussianBlur in="shadowOffsetOuter1" result="shadowBlurOuter1" stdDeviation="2"/><feColorMatrix in="shadowBlurOuter1" result="shadowMatrixOuter1" values="0 0 0 0 0 0 0 0 0 0 0 0 0 0 0 0 0 0 0.2 0"/><feMerge><feMergeNode in="shadowMatrixOuter1"/><feMergeNode in="SourceGraphic"/></feMerge></filter><rect id="b" width="78" height="78" x="0" y="0" rx="18"/></defs><g fill="none" fill-rule="evenodd" filter="url(#a)" transform="translate(9 9)"><mask id="c" fill="#fff"><use xlink:href="#b"/></mask><use xlink:href="#b" fill="#fff"/><g stroke-linecap="round" stroke-linejoin="round" stroke-width="2" mask="url(#c)"><path stroke="#403f03" d="M45.184 12.507c-.49 4.134 1.49 9.254 5.572 13.336 4.68 4.68 10.726 6.598 15.086 5.195m-2.796-3.658c-.124-3.233-1.607-6.68-4.355-9.427-2.807-2.808-6.344-4.295-9.637-4.361"/><path stroke="#403f03" d="M38.43 11.87c-1.216 4.824 1.99 12.412 8.366 18.789 6.18 6.18 13.499 9.381 18.335 8.466"/><path stroke="#eb6e0a" d="M28.12 7c-3.891 3.891 2.127 16.217 13.442 27.532s23.641 17.333 27.532 13.443"/><path stroke="#403f03" d="M23.43 13.668c-3.892 3.89 1.759 15.85 12.62 26.71C46.911 51.24 58.87 56.89 62.76 53"/><path stroke="#e46601" d="M13.268 14.712c-2.501 6.234 4.329 19.741 16.593 32.005 12.277 12.278 25.8 19.109 32.026 16.584"/><path stroke="#e46601" d="M9.978 23.629c-2.15 6.211 3.563 18.219 14.186 28.842C34.776 63.082 46.77 68.795 52.986 66.664"/><path stroke="#403f03" d="M10.001 37.538c-.17 5.852 3.392 13.514 9.852 19.974 7.676 7.676 17.05 11.261 23.066 9.352"/><path stroke="#e46601" d="M9.773 45.129c-.192 4.886 2.114 10.53 6.622 15.038 4.557 4.556 10.273 6.863 15.194 6.616"/></g></g></svg>