<svg xmlns="http://www.w3.org/2000/svg" xmlns:xlink="http://www.w3.org/1999/xlink" viewBox="0 0 96 96"><defs><linearGradient id="b" x1="50%" x2="50%" y1="0%" y2="100%"><stop offset="0%" stop-color="#fcfcfc"/><stop offset="100%" stop-color="#e6e6e6"/></linearGradient><linearGradient id="c" x1="50%" x2="50%" y1="3.089%" y2="98.58%"><stop offset="0%" stop-color="#67b3ff"/><stop offset="100%" stop-color="#0047c0"/></linearGradient><linearGradient id="d" x1="50%" x2="50%" y1="0%" y2="121.057%"><stop offset="0%" stop-color="#fff"/><stop offset="100%" stop-color="#fff" stop-opacity=".853"/></linearGradient><filter id="a" width="128.6%" height="128.6%" x="-14.3%" y="-14.3%" filterUnits="objectBoundingBox"><feOffset dy="2" in="SourceAlpha" result="shadowOffsetOuter1"/><feGaussianBlur in="shadowOffsetOuter1" result="shadowBlurOuter1" stdDeviation="2"/><feColorMatrix in="shadowBlurOuter1" result="shadowMatrixOuter1" values="0 0 0 0 0 0 0 0 0 0 0 0 0 0 0 0 0 0 0.2 0"/><feMerge><feMergeNode in="shadowMatrixOuter1"/><feMergeNode in="SourceGraphic"/></feMerge></filter></defs><g fill="none" filter="url(#a)" transform="translate(6 6)"><circle cx="42" cy="42" r="42" fill="url(#b)"/><circle cx="42" cy="42" r="37" fill="url(#c)"/><path fill="url(#d)" d="M21.378 51H34v9h-1c-5.591 0-10.29-3.824-11.622-9M51 23c5.592 0 10.29 3.824 11.622 9H47v28H36V23zm0 37h-2v-9h13.622c-1.333 5.176-6.03 9-11.622 9m12-12q0 .505-.041 1H49v-6h14zm-42-5h13v6H21.041A12 12 0 0 1 21 48zm42-8v6H49v-7h13.959q.04.495.041 1m-41.959-1H34v7H21v-6q0-.505.041-1M34 23v9H21.378c1.332-5.176 6.03-9 11.622-9z"/></g></svg>