<svg xmlns="http://www.w3.org/2000/svg" xmlns:xlink="http://www.w3.org/1999/xlink" viewBox="0 0 96 96"><defs><linearGradient id="b" x1="50%" x2="50%" y1="2.313%" y2="99.844%"><stop offset="0%" stop-color="#686868"/><stop offset="100%" stop-color="#131313"/></linearGradient><filter id="a" width="137.5%" height="130.8%" x="-18.8%" y="-15.4%" filterUnits="objectBoundingBox"><feOffset dy="2" in="SourceAlpha" result="shadowOffsetOuter1"/><feGaussianBlur in="shadowOffsetOuter1" result="shadowBlurOuter1" stdDeviation="2"/><feColorMatrix in="shadowBlurOuter1" result="shadowMatrixOuter1" values="0 0 0 0 0 0 0 0 0 0 0 0 0 0 0 0 0 0 0.2 0"/><feMerge><feMergeNode in="shadowMatrixOuter1"/><feMergeNode in="SourceGraphic"/></feMerge></filter></defs><g fill="none" fill-rule="evenodd" filter="url(#a)" transform="translate(16 9)"><path fill="#fff" d="M15.849 16v19.5L10 64.803 15.849 71 54 71.143V33.5l-5-1.545V17.59L36 4.752 23 9.393z"/><path fill="url(#b)" d="M32 0c10.493 0 19 8.507 19 19v9h5a8 8 0 0 1 8 8v34a8 8 0 0 1-8 8H8a8 8 0 0 1-8-8V36a8 8 0 0 1 8-8h5v-9C13 8.507 21.507 0 32 0m0 37a8 8 0 0 0-3.005 15.415c-4.526 1.283-7.865 5.39-7.991 10.297L21 63v3l.005.2A4 4 0 0 0 25 70h14l.2-.005A4 4 0 0 0 43 66v-3l-.004-.288c-.126-4.907-3.465-9.014-7.991-10.296A8.003 8.003 0 0 0 32 37m0-29c-6.075 0-11 4.925-11 11s5.925 9 12 9q.503 0 .988-.027Q33.842 30.736 32 33.5q8.045-3.137 10.646-11.516l-.024.016c.249-.897.378-1.897.378-3 0-6.075-4.925-11-11-11"/></g></svg>