<svg xmlns="http://www.w3.org/2000/svg" xmlns:xlink="http://www.w3.org/1999/xlink" viewBox="0 0 96 96"><defs><linearGradient id="b" x1="50%" x2="50%" y1="0%" y2="100%"><stop offset="0%" stop-color="#fff"/><stop offset="100%" stop-color="#e8e8e8"/></linearGradient><linearGradient id="c" x1="50%" x2="50%" y1="0%" y2="100%"><stop offset="0%" stop-color="#cfcfcf"/><stop offset="100%" stop-color="#a5a5a5"/></linearGradient><linearGradient id="d" x1="50%" x2="50%" y1="0%" y2="100%"><stop offset="0%" stop-color="#ffa446"/><stop offset="100%" stop-color="#f22"/></linearGradient><linearGradient id="e" x1="50%" x2="50%" y1="0%" y2="100%"><stop offset="0%" stop-color="#fff"/><stop offset="100%" stop-color="#fff" stop-opacity=".884"/></linearGradient><filter id="a" width="128.9%" height="130%" x="-14.5%" y="-15%" filterUnits="objectBoundingBox"><feOffset dy="2" in="SourceAlpha" result="shadowOffsetOuter1"/><feGaussianBlur in="shadowOffsetOuter1" result="shadowBlurOuter1" stdDeviation="2"/><feColorMatrix in="shadowBlurOuter1" result="shadowMatrixOuter1" values="0 0 0 0 0 0 0 0 0 0 0 0 0 0 0 0 0 0 0.2 0"/><feMerge><feMergeNode in="shadowMatrixOuter1"/><feMergeNode in="SourceGraphic"/></feMerge></filter></defs><g fill="none" filter="url(#a)" transform="translate(7 8)"><path fill="url(#b)" d="M38.5 0C59.763 0 77 17.237 77 38.5S59.763 77 38.5 77 0 59.763 0 38.5 17.237 0 38.5 0m0 30a8.5 8.5 0 1 0 0 17 8.5 8.5 0 0 0 0-17"/><path fill="url(#c)" d="M38.5 22C47.613 22 55 29.387 55 38.5S47.613 55 38.5 55 22 47.613 22 38.5 29.387 22 38.5 22m0 8a8.5 8.5 0 1 0 0 17 8.5 8.5 0 0 0 0-17"/><circle cx="22.5" cy="22.5" r="22.5" fill="#000" transform="translate(38 35)"/><circle cx="22.5" cy="22.5" r="22.5" fill="url(#d)" transform="translate(38 35)"/><path fill="url(#e)" d="M64.978 45v4.685q0 3.114 3.229 7.453a8.033 8.033 0 0 1-5.465 12.77l-.315.034q-.17.016-.339.027a3.762 3.762 0 0 0 2.22-5.844q-1.581-2.226-1.581-3.8v-2.25l-.576.393q-4.797 3.044-5.157 5.832c-.29 2.245.726 4.892 2.936 5.596-5.89-.834-8.64-6.872-7.93-11.932q.816-5.806 11.675-12.145z"/></g></svg>