<svg xmlns="http://www.w3.org/2000/svg" xmlns:xlink="http://www.w3.org/1999/xlink" viewBox="0 0 96 96"><defs><filter id="a" width="131.6%" height="131.6%" x="-15.8%" y="-15.8%" filterUnits="objectBoundingBox"><feOffset dy="2" in="SourceAlpha" result="shadowOffsetOuter1"/><feGaussianBlur in="shadowOffsetOuter1" result="shadowBlurOuter1" stdDeviation="2"/><feColorMatrix in="shadowBlurOuter1" result="shadowMatrixOuter1" values="0 0 0 0 0 0 0 0 0 0 0 0 0 0 0 0 0 0 0.2 0"/><feMerge><feMergeNode in="shadowMatrixOuter1"/><feMergeNode in="SourceGraphic"/></feMerge></filter></defs><g fill="none" fill-rule="evenodd" filter="url(#a)" transform="translate(10 10)"><path fill="#87d300" fill-rule="nonzero" d="M0 .068h10v10H0zm66 0h10v10H66zM0 66h10v10H0zm66 0h10v10H66z"/><circle cx="37.719" cy="38.337" r="32.719" fill="#fff"/><path fill="#87d300" fill-rule="nonzero" d="M67.742 42.068C65.752 56.706 53.234 68 38.05 68c-16.568 0-30-13.432-30-30s13.432-30 30-30c15.232 0 27.784 11.362 29.714 26.068h8.084C73.88 14.928 57.71 0 38.052 0c-20.986 0-38 17.014-38 38s17.014 38 38 38c19.612 0 35.744-14.86 37.776-33.932z"/><path fill="#3e3e3e" fill-rule="nonzero" d="M16 34.068v-4H0v16h16v-4h60v-8z"/></g></svg>