<svg xmlns="http://www.w3.org/2000/svg" xmlns:xlink="http://www.w3.org/1999/xlink" viewBox="0 0 96 96"><defs><linearGradient id="c" x1="50%" x2="50%" y1="0%" y2="100%"><stop offset="0%" stop-opacity=".507"/><stop offset="100%" stop-opacity=".644"/></linearGradient><linearGradient id="d" x1="58.93%" x2="41.321%" y1="26.178%" y2="39.629%"><stop offset="0%" stop-color="#fff377"/><stop offset="100%" stop-color="#ffd91b"/></linearGradient><linearGradient id="e" x1="50%" x2="50%" y1="0%" y2="100%"><stop offset="0%" stop-color="#e2ff00"/><stop offset="100%" stop-color="#b5ff00"/></linearGradient><linearGradient id="f" x1="50%" x2="50%" y1="0%" y2="100%"><stop offset="0%" stop-color="#ff6c6c"/><stop offset="100%" stop-color="#ff3a8f"/></linearGradient><linearGradient id="g" x1="50%" x2="50%" y1="0%" y2="100%"><stop offset="0%" stop-color="#458dff"/><stop offset="100%" stop-color="#7aebff"/></linearGradient><linearGradient id="h" x1="50%" x2="50%" y1="1.27%" y2="100%"><stop offset="0%" stop-color="#fff" stop-opacity=".136"/><stop offset="100%" stop-color="#fff" stop-opacity=".344"/></linearGradient><linearGradient id="i" x1="50%" x2="50%" y1="0%" y2="128.642%"><stop offset="0%" stop-color="#ff7b00"/><stop offset="100%" stop-color="#ab0000"/></linearGradient><linearGradient id="j" x1="50%" x2="50%" y1="0%" y2="100%"><stop offset="0%" stop-color="#fff" stop-opacity=".534"/><stop offset="100%" stop-color="#fff"/></linearGradient><linearGradient id="k" x1="50%" x2="50%" y1="4.545%" y2="97.104%"><stop offset="0%" stop-opacity=".212"/><stop offset="100%" stop-opacity=".754"/></linearGradient><radialGradient id="b" cx="52.922%" cy="33.412%" r="72.01%" fx="52.922%" fy="33.412%"><stop offset="0%" stop-color="#f5f5f5"/><stop offset="100%" stop-color="#8f8f8f"/></radialGradient><filter id="a" width="127.6%" height="127.7%" x="-13.8%" y="-13.9%" filterUnits="objectBoundingBox"><feOffset dy="2" in="SourceAlpha" result="shadowOffsetOuter1"/><feGaussianBlur in="shadowOffsetOuter1" result="shadowBlurOuter1" stdDeviation="2"/><feColorMatrix in="shadowBlurOuter1" result="shadowMatrixOuter1" values="0 0 0 0 0 0 0 0 0 0 0 0 0 0 0 0 0 0 0.2 0"/><feMerge><feMergeNode in="shadowMatrixOuter1"/><feMergeNode in="SourceGraphic"/></feMerge></filter></defs><g fill="none" filter="url(#a)" transform="translate(5 5)"><g transform="translate(.5 .5)"><circle cx="42.5" cy="42.5" r="42.5" fill="url(#b)" stroke="url(#c)"/><path fill="url(#d)" d="m4.948 61.25.023.127a42 42 0 0 1-.79-1.657c.373.43.641.953.767 1.53m5.58-12.75a3.5 3.5 0 1 1 0 7 3.5 3.5 0 0 1 0-7m-9 0a3.5 3.5 0 0 1 .98 6.861 41.6 41.6 0 0 1-1.575-6.81q.291-.051.596-.051m9-10a3.5 3.5 0 1 1 0 7 3.5 3.5 0 0 1 0-7m-5.5-5.5a3.5 3.5 0 0 1-4.094 3.45 41.6 41.6 0 0 1 1.572-6.81A3.5 3.5 0 0 1 5.029 33m5.5-4.5a3.5 3.5 0 1 1 0 7 3.5 3.5 0 0 1 0-7m-6.284-3.291-.063.07a42 42 0 0 1 .79-1.657 3.46 3.46 0 0 1-.727 1.587"/><path fill="url(#e)" d="M75.529 49.5a3.5 3.5 0 1 1 0 7 3.5 3.5 0 0 1 0-7m8 0q.195 0 .385.021a41.5 41.5 0 0 1-1.713 6.718A3.5 3.5 0 0 1 83.53 49.5m-8-11a3.5 3.5 0 1 1 0 7 3.5 3.5 0 0 1 0-7m0-11a3.5 3.5 0 1 1 0 7 3.5 3.5 0 0 1 0-7m6.365.404a41.7 41.7 0 0 1 1.844 6.589 3.5 3.5 0 0 1-1.976-6.515z"/><path fill="url(#f)" d="M32.529 79.5a3.5 3.5 0 0 1 3.36 4.482 41.6 41.6 0 0 1-6.793-1.666A3.5 3.5 0 0 1 32.53 79.5m21 0a3.5 3.5 0 0 1 3.347 2.474 41.6 41.6 0 0 1-6.752 1.836 3.5 3.5 0 0 1 3.404-4.31m-11-8a3.5 3.5 0 1 1 0 7 3.5 3.5 0 0 1 0-7m-10 0a3.5 3.5 0 1 1 0 7 3.5 3.5 0 0 1 0-7m21 0a3.5 3.5 0 1 1 0 7 3.5 3.5 0 0 1 0-7m-11-9a3.5 3.5 0 1 1 0 7 3.5 3.5 0 0 1 0-7"/><path fill="url(#g)" d="M42.529 15.5a3.5 3.5 0 1 1 0 7 3.5 3.5 0 0 1 0-7m-11-9a3.5 3.5 0 1 1 0 7 3.5 3.5 0 0 1 0-7m11 0a3.5 3.5 0 1 1 0 7 3.5 3.5 0 0 1 0-7m11 0a3.5 3.5 0 1 1 0 7 3.5 3.5 0 0 1 0-7m-3.495-5.326c2.214.4 4.367.975 6.445 1.709a3.5 3.5 0 0 1-6.446-1.69zM36.03 1a3.5 3.5 0 0 1-6.623 1.583A41.6 41.6 0 0 1 36.029.995z"/><path fill="url(#h)" d="m38.485.69.01-.172q-.101 1.863-.192 3.723 2.894-.089 5.226-.088l1.262.006q1.742.016 3.76.075A542 542 0 0 0 48.388.91q.507.07 1.009.152.084 1.603.162 3.203 3.89.129 8.748.409l-.176-1.17q.544.217 1.08.45l.118.78q.881.053 1.792.11 1.092.538 2.143 1.138a751 751 0 0 0-3.787-.238l.07.459c.384 2.633.733 5.202 1.045 7.718q4.323.403 8.595 1.005a485 485 0 0 0-.838-5.532q.588.458 1.159.938c.256 1.652.493 3.229.712 4.744q2.372.346 4.73.756.48.582.938 1.182l1.012.184a181 181 0 0 0-6.532-1.09l.002.019c.43 3.042.787 5.833 1.073 8.464 2.273.258 4.49.55 6.64.876a363 363 0 0 0-.95-6.737q.683.993 1.31 2.027.365 2.536.668 4.87 1.014.16 2.005.33.235.542.453 1.094-1.149-.202-2.326-.391.584 4.656.903 8.485 1.845.09 3.685.196l.063.003q.087.504.16 1.011l2.445.143a708 708 0 0 0-6.272-.35q.283 3.712.301 6.6l.002.404a76 76 0 0 1-.075 3.239q1.912-.095 3.82-.203l.067-.004q-.045.506-.1 1.008l.089-.006a711 711 0 0 1-3.924.21q-.221 4.154-.84 9.542 1.29-.209 2.542-.434-.192.546-.4 1.086-1.115.198-2.26.381a302 302 0 0 1-.763 5.86q-.623 1.059-1.305 2.072.605-4.154 1.04-7.772l-.508.079c-2.146.323-4.36.613-6.628.869a221 221 0 0 1-1.37 9.532q3.142-.447 6.259-1.004-.445.594-.911 1.175l1.497-.264q-3.493.632-7.018 1.13-.462 2.741-1.005 5.647-.588.475-1.191.923l-.158.824a338 338 0 0 0 1.316-7.252l-.277.038q-4.009.537-8.064.901-.495 3.504-1.093 7.013a644 644 0 0 0 5.56-.365l.808-.057.397-.028q-.862.585-1.755 1.126-2.711.186-5.187.337-.219 1.266-.453 2.531-.545.228-1.098.44.272-1.455.527-2.91-4.688.278-8.505.419a580 580 0 0 1-.223 4.218l-.03.497q-.501.081-1.008.152l-.12 2.02q.206-3.42.38-6.85-2.328.076-4.31.1l-.461.005-.85.005h-.825a171 171 0 0 1-3.865-.06q.111 2.29.241 4.575l.024.416a42 42 0 0 1-1.008-.108l-.014-.252q-.132-2.326-.247-4.659a355 355 0 0 1-9.584-.438q.268 1.59.56 3.153a39 39 0 0 1-1.093-.411l.153.828q-.337-1.796-.646-3.63-2.805-.168-5.921-.383-.892-.54-1.755-1.125 3.998.285 7.51.496a212 212 0 0 1-1.023-6.941q-4.656-.36-9.391-.911l.142.894q.383 2.34.821 4.738l.07.38a42 42 0 0 1-1.188-.939l.205 1.12a246 246 0 0 1-1.084-6.316 262 262 0 0 1-4.975-.647q-.463-.561-.904-1.137l-1.651-.243q3.71.556 7.372 1.001a202 202 0 0 1-1.245-9.586c-2.51-.243-4.987-.52-7.42-.83l.047.37q.369 3.005.851 6.369a41 41 0 0 1-1.32-2.206 292 292 0 0 1-.6-4.667q-.866-.113-1.724-.232-.21-.53-.408-1.067.998.142 2.01.276-.645-5.58-.87-9.853a689 689 0 0 1-3.345-.172l-.083-.005q-.055-.502-.1-1.007l.236.013q1.623.087 3.243.168a82 82 0 0 1-.06-1.955l-.007-.43-.006-.817q0-3.035.304-7.013-1.705.082-3.415.172.075-.506.161-1.01l3.335-.169q.327-3.93.935-8.732-.898.117-1.786.24.22-.54.455-1.073l1.463-.195q.233-1.79.504-3.698.63-1.104 1.324-2.164a351 351 0 0 0-.802 5.732 251 251 0 0 1 7.068-.79c.273-2.79.608-5.673 1.005-8.683l-.187.022q-2.418.293-4.855.634.455-.577.933-1.138 2.132-.29 4.246-.543.284-2.104.609-4.298.567-.484 1.151-.944a368 368 0 0 0-.735 5.124 242 242 0 0 1 9.48-.911q.445-3.936.997-7.89l-.242.015a667 667 0 0 0-4.552.302 41 41 0 0 1 2.113-1.147 709 709 0 0 1 2.825-.18l.172-1.19a42 42 0 0 1 1.072-.422q-.116.775-.227 1.55 5.539-.334 9.886-.482.084-1.735.177-3.474.502-.06 1.007-.109m10.43 70.73-1.141.032q-4.897.124-9.872.015.131 3.433.298 6.855 1.871.049 3.49.06l.428.001h.82q2.52-.007 5.673-.114.169-3.418.305-6.849m-22.446-.5.06.475a215 215 0 0 0 .963 6.452q5.46.316 9.706.446-.166-3.42-.3-6.85a225 225 0 0 1-10.43-.522m32.87-.101-.554.047q-4.405.36-8.868.52-.134 3.429-.302 6.847 3.866-.145 8.627-.427.6-3.496 1.097-6.987M49.265 60.51l-.867.018c-3.584.07-7.208.076-10.84.016q.118 4.971.304 9.92 5.597.126 11.092-.047.19-4.942.311-9.907m-23.956-.413.004.047c.272 3.282.615 6.545 1.023 9.762q5.31.394 10.524.534a726 726 0 0 1-.304-9.914 306 306 0 0 1-11.247-.429m35.306-.078-1.103.069c-3.033.183-6.123.316-9.247.397q-.12 4.96-.308 9.898 4.794-.175 9.522-.58c.452-3.275.832-6.54 1.136-9.784m-45.978-.722.047.44c.324 2.995.728 6.047 1.21 9.168q4.754.56 9.425.925a227 227 0 0 1-1.018-9.793 285 285 0 0 1-9.664-.74m55.627-.106-.129.015c-2.765.296-5.609.544-8.51.745a226 226 0 0 1-1.123 9.76q4.213-.383 8.375-.953a224 224 0 0 0 1.387-9.567m-20.8-10.883-.915.007a758 758 0 0 1-11.182-.002q.04 5.63.167 11.23c3.941.066 7.873.055 11.755-.034q.13-5.586.175-11.201m-24.824-.196.018.64c.109 3.441.3 6.898.57 10.338 3.749.215 7.53.36 11.307.435q-.128-5.595-.169-11.22a766 766 0 0 1-11.726-.193m36.743 0-1.762.041q-4.57.101-9.158.146a728 728 0 0 1-.173 11.186 268 268 0 0 0 10.416-.475c.327-3.67.555-7.308.677-10.899M13.8 47.777l.007.207c.13 3.37.372 6.797.724 10.297 3.185.303 6.423.553 9.688.75-.283-3.643-.48-7.304-.582-10.944q-4.906-.123-9.837-.31m57.45.026-.614.024q-4.12.153-8.254.26c-.12 3.577-.344 7.201-.666 10.855 2.956-.206 5.853-.462 8.667-.77.418-3.592.706-7.021.868-10.37M5.19 47.408l.006.117q.234 4.258.884 9.82c2.436.312 4.92.593 7.437.84a168 168 0 0 1-.719-10.447 751 751 0 0 1-7.608-.33m74.211.039-.538.028q-3.3.16-6.608.29a154 154 0 0 1-.85 10.294c2.449-.279 4.833-.598 7.138-.956q.63-5.464.858-9.656m-39.69-12.248-2.328.013q-.06 6.068-.024 12.102 6.074.046 12.112-.005a754 754 0 0 0-.015-12.083q-4.863-.047-9.746-.027m-3.328.021-2.245.02q-4.729.053-9.478.164a207 207 0 0 0-.047 11.707q5.89.143 11.748.195-.039-6.026.022-12.086m14.071.014.013 1.31q.04 5.391.004 10.756 5.485-.053 10.943-.188.078-2.74.073-5.437a191 191 0 0 0-.119-6.246 727 727 0 0 0-10.914-.195m-26.796.195-.707.017q-4.554.116-9.126.286c-.088 2.208-.13 4.383-.13 6.546q.002 2.234.071 4.497 4.935.189 9.847.312a203 203 0 0 1-.06-5.414q.008-3.091.105-6.244m38.712.025.032.998q.078 2.626.085 5.221.006 2.685-.072 5.413 4.45-.114 8.881-.284c.076-1.871.113-3.718.109-5.557l-.01-1.54c-.017-1.323-.05-2.636-.103-3.957a688 688 0 0 0-8.922-.294m9.925.332.001.044c.07 1.802.105 3.593.109 5.413.004 1.828-.032 3.663-.106 5.52q3.582-.141 7.152-.318.067-1.54.076-2.892l.002-.4q0-3.04-.31-7.052a637 637 0 0 0-6.924-.315m-59.474-.014-1.118.041q-3.16.126-6.328.277a101 101 0 0 0-.299 5.827l-.006.427-.006.809q0 1.506.076 3.249 3.82.188 7.625.336a149 149 0 0 1-.07-4.459c0-2.15.041-4.313.126-6.507M71.55 25.61l.014.134c.327 3.177.552 6.134.687 9.04q3.449.137 6.886.309a209 209 0 0 0-.925-8.592c-2.155-.332-4.38-.628-6.663-.89m-58.038-.141-.69.068c-2.167.22-4.308.462-6.414.73q-.619 4.856-.953 8.819 3.71-.178 7.408-.319c.134-3.016.35-6.098.649-9.298m48.21-.758.085 1.035c.236 2.955.411 5.85.525 8.708q4.467.116 8.916.29a160 160 0 0 0-.716-9.247 220 220 0 0 0-8.81-.786m-37.493-.09-.583.035c-3.072.192-6.12.43-9.12.714a192 192 0 0 0-.66 9.36q4.923-.183 9.824-.303c.113-3.23.294-6.503.54-9.806m26.044-.454.028 1.19q.097 4.448.144 8.878 5.455.055 10.884.192a219 219 0 0 0-.617-9.784 265 265 0 0 0-10.439-.476m-13.702-.04-.651.013c-3.57.078-7.14.219-10.683.42a249 249 0 0 0-.546 9.844q5.868-.137 11.702-.185.055-5.034.178-10.092m1.81-.031-.81.013a776 776 0 0 0-.179 10.103q6.044-.042 12.052.012a759 759 0 0 0-.171-10.08 295 295 0 0 0-10.892-.048m22.332-9.16.088.725c.323 2.738.602 5.414.834 8.042 2.999.207 5.935.465 8.788.775a271 271 0 0 0-1.089-8.518q-4.285-.612-8.62-1.024m-35.571-.207-.42.031q-4.504.355-9.083.888c-.401 3.02-.74 5.912-1.016 8.71 3.185-.3 6.42-.549 9.684-.744a281 281 0 0 1 .835-8.885m24.835-.51.093 2.708q.103 3.125.18 6.24c3.512.091 6.981.247 10.374.468a275 275 0 0 0-.928-8.79 191 191 0 0 0-9.719-.626m-13.101-.09-.79.02q-4.921.139-9.93.503a282 282 0 0 0-.843 8.904 304 304 0 0 1 11.282-.43q.115-4.488.28-8.996m1.706-.035-.705.015a792 792 0 0 0-.28 9 297 297 0 0 1 11.652.033 789 789 0 0 0-.274-8.958q-5.152-.176-10.393-.09M49.603 5.27l.019.366q.177 3.799.319 7.584 4.848.186 9.63.61a355 355 0 0 0-1.114-8.142 364 364 0 0 0-8.854-.418m-12.353.007-.148.005q-4.33.15-9.829.484a299 299 0 0 0-1.003 7.878q5.37-.388 10.645-.514.147-3.918.335-7.853m6.278-.122-1.257.006q-1.851.017-4.017.083a773 773 0 0 0-.34 7.865 206 206 0 0 1 11.024.074q-.147-3.964-.336-7.945a173 173 0 0 0-5.074-.083"/><path fill="url(#i)" stroke="url(#j)" d="M64.75 38.472c.666 0 1.153.255 1.481.643q.096.113.174.242c.314-.48.37-.558.43-.639q.141.001.304.022c1.145.14 1.364.762 1.357 1.549a4 4 0 0 1-.416 1.687c-.238.486-.609 1.116-1 1.779-.475.806-.983 1.663-1.297 2.357-.205.459-.343.875-.382 1.208.604.224.94-.023 1.271-.374.567-.601 1.12-1.434 1.545-2.272q.194-.384.362-.785c.168.175.341.423.527.78.537 1.032.387 1.455.177 1.909-.36.762-.99 1.526-1.717 2.066-.7.52-1.489.827-2.22.787-.782-.043-1.37-.309-1.775-.713a2.2 2.2 0 0 1-.459-.68c-.78.75-1.727 1.298-2.705 1.298-.7 0-1.258-.244-1.669-.652-.413-.41-.681-1-.764-1.714-.142-1.212.255-2.81 1.324-4.369 2.103-3.064 4.171-4.129 5.453-4.129Zm.151 2.277c-.31.105-.722.45-1.17.873-.657.62-1.37 1.487-1.987 2.485-.592.96-.968 1.932-1.082 2.67-.037.24-.016.441.217.742.303-.083.622-.361.963-.718.597-.627 1.227-1.552 1.852-2.632.688-1.201 1.101-2.153 1.267-2.829a.75.75 0 0 0-.06-.591Zm-37.838-1.515c1.614-.106 1.832.51 1.825 1.3a4 4 0 0 1-.414 1.677c-.212.443-.51.986-.824 1.556-.43.783-.892 1.62-1.181 2.308-.19.46-.313.86-.345 1.178.657.228 1.027-.021 1.374-.388.55-.579 1.056-1.375 1.41-2.188.359-.423.542-.346.736-.217.415.276.593.602.643.948.05.347-.047.742-.254 1.174a5.2 5.2 0 0 1-1.695 1.982c-.731.51-1.558.796-2.331.796-.528 0-.96-.112-1.304-.302a2 2 0 0 1-.861-.936c-.332-.723-.317-1.754.084-2.928.613-1.79 2.23-4.685 3.137-5.96Zm18.285.424c.115.155.24.282.36.405.517.534.995 1.01.865 2.575-.706 3.391-2.386 5.914-4.276 6.552a3.04 3.04 0 0 1-1.964-.005c-.552-.193-1.113-.568-1.617-1.223-.573-.755-.793-1.688-.721-2.7.074-1.041.462-2.17 1.067-3.246 1.007-1.802 2.648-3.27 4.22-3.375.937-.06 1.458.197 2.066 1.017Zm-2.862 2.262a7.8 7.8 0 0 0-1.11 1.518c-.474.859-.798 1.807-.928 2.604-.094.576-.165 1.134.339 1.368.204-.037.431-.156.672-.338.527-.397 1.094-1.084 1.606-2.047.27-.502.496-1.003.515-1.58-.404-.312-.845-.87-1.094-1.525Zm-4.703-8.782c.298-.035.602.053.895.326.425.38.684.84.796 1.375q.16.77-.093 1.76c-.758 3.007-3.448 5.953-5.647 7.433-.444 1.112-.724 2.13-.748 2.87-.01.266.009.49.095.645.596.132 1.125-.226 1.646-.707.67-.62 1.32-1.498 1.78-2.406.356-.38.523-.31.7-.204.91.539.883 1.266.487 2.13-.222.474-.993 1.462-2.041 2.159-.72.478-1.564.815-2.435.793-.526-.015-.984-.13-1.365-.337a2.25 2.25 0 0 1-.929-.948c-.363-.69-.471-1.708-.172-3.111.907-4.267 3.699-8.707 6.196-11.302.285-.304.57-.445.835-.476Zm-9.62 3.475c1.74-.207 1.996.217 2.203.647.19.383.245.772.208 1.124a1.84 1.84 0 0 1-.457 1.048c-1.68.312-1.914-.052-2.14-.445a2.1 2.1 0 0 1-.3-1.224c.03-.451.21-.858.485-1.15Zm-7.772-4.005c1.81.693 2.039 1.879.822 4.104-.179.334-.522.91-.914 1.566l-.265.443q.354-.106.667-.105c.627 0 1.11.213 1.466.57s.59.873.68 1.514c.165 1.157-.142 2.755-.874 4.38-.587 1.312-1.271 2.324-1.985 3.017-.81.785-1.665 1.167-2.48 1.167-.73 0-1.332-.188-1.817-.516a3 3 0 0 1-.611-.556l-.028-.037-.073.167-.116.264-.11.255c-.364.408-.532.334-.7.241-.905-.495-1.36-1.269-.74-3.16.655-2.013 5.404-10.986 7.078-13.314Zm-.317 8c-.33.063-.676.335-1.126.8-1.025 1.07-2.113 2.95-2.969 4.712.032.258.106.52.606 1.028.335.076.703-.106 1.128-.528.496-.493 1.042-1.3 1.652-2.52.555-1.1.827-1.98.908-2.632.035-.276.015-.499-.199-.86Zm34.5-8c1.811.693 2.04 1.879.823 4.104-.179.334-.522.91-.914 1.566l-.264.443q.352-.106.666-.105c.627 0 1.11.213 1.466.57s.59.873.68 1.514c.165 1.157-.141 2.755-.874 4.38-.587 1.312-1.271 2.324-1.985 3.017-.81.785-1.664 1.167-2.48 1.167-.73 0-1.332-.188-1.817-.516a3 3 0 0 1-.61-.556l-.029-.037-.073.167-.116.264-.11.255c-.364.408-.532.334-.7.241-.905-.495-1.36-1.269-.74-3.16.655-2.013 5.405-10.986 7.078-13.314Zm-.316 8c-.33.063-.676.335-1.126.8-1.025 1.07-2.113 2.95-2.968 4.712.03.258.105.52.605 1.028.335.076.703-.106 1.128-.528.496-.493 1.042-1.3 1.652-2.52.555-1.1.827-1.98.908-2.632.035-.276.015-.499-.199-.86Z"/></g><circle cx="43" cy="43" r="42" fill="url(#b)"/><path fill="url(#k)" d="M43 0C19.252 0 0 19.252 0 43s19.252 43 43 43 43-19.252 43-43S66.748 0 43 0m0 1c23.196 0 42 18.804 42 42S66.196 85 43 85 1 66.196 1 43 19.804 1 43 1"/><path fill="url(#d)" d="m5.448 61.75.023.127a42 42 0 0 1-.79-1.657c.373.43.641.953.767 1.53M11.028 49a3.5 3.5 0 1 1 0 7 3.5 3.5 0 0 1 0-7m-9 0a3.5 3.5 0 0 1 .98 6.861 41.6 41.6 0 0 1-1.575-6.81Q1.724 49 2.029 49m9-10a3.5 3.5 0 1 1 0 7 3.5 3.5 0 0 1 0-7m-5.5-5.5a3.5 3.5 0 0 1-4.094 3.45 41.6 41.6 0 0 1 1.572-6.81A3.5 3.5 0 0 1 5.53 33.5m5.5-4.5a3.5 3.5 0 1 1 0 7 3.5 3.5 0 0 1 0-7m-6.284-3.291-.063.07a42 42 0 0 1 .79-1.657 3.46 3.46 0 0 1-.727 1.587"/><path fill="url(#e)" d="M76.029 50a3.5 3.5 0 1 1 0 7 3.5 3.5 0 0 1 0-7m8 0q.195 0 .385.021a41.5 41.5 0 0 1-1.713 6.718A3.5 3.5 0 0 1 84.03 50m-8-11a3.5 3.5 0 1 1 0 7 3.5 3.5 0 0 1 0-7m0-11a3.5 3.5 0 1 1 0 7 3.5 3.5 0 0 1 0-7m6.365.404a41.7 41.7 0 0 1 1.844 6.589 3.5 3.5 0 0 1-1.976-6.515z"/><path fill="url(#f)" d="M33.029 80a3.5 3.5 0 0 1 3.36 4.482 41.6 41.6 0 0 1-6.793-1.666A3.5 3.5 0 0 1 33.03 80m21 0a3.5 3.5 0 0 1 3.347 2.474 41.6 41.6 0 0 1-6.752 1.836A3.5 3.5 0 0 1 54.028 80m-11-8a3.5 3.5 0 1 1 0 7 3.5 3.5 0 0 1 0-7m-10 0a3.5 3.5 0 1 1 0 7 3.5 3.5 0 0 1 0-7m21 0a3.5 3.5 0 1 1 0 7 3.5 3.5 0 0 1 0-7m-11-9a3.5 3.5 0 1 1 0 7 3.5 3.5 0 0 1 0-7"/><path fill="url(#g)" d="M43.029 16a3.5 3.5 0 1 1 0 7 3.5 3.5 0 0 1 0-7m-11-9a3.5 3.5 0 1 1 0 7 3.5 3.5 0 0 1 0-7m11 0a3.5 3.5 0 1 1 0 7 3.5 3.5 0 0 1 0-7m11 0a3.5 3.5 0 1 1 0 7 3.5 3.5 0 0 1 0-7m-3.495-5.326c2.214.4 4.367.975 6.445 1.709a3.5 3.5 0 0 1-6.446-1.69zM36.53 1.5a3.5 3.5 0 0 1-6.623 1.583 41.6 41.6 0 0 1 6.623-1.588z"/><path fill="url(#h)" d="m38.985 1.19.01-.172q-.101 1.863-.192 3.723 2.894-.089 5.226-.088l1.262.006q1.742.016 3.76.075a542 542 0 0 0-.164-3.323q.507.07 1.009.152.084 1.603.162 3.203 3.89.129 8.748.409l-.176-1.17q.544.217 1.08.45l.118.78q.881.053 1.792.11 1.092.538 2.143 1.138a751 751 0 0 0-3.787-.238l.07.459c.384 2.633.733 5.202 1.045 7.718q4.323.403 8.595 1.005a485 485 0 0 0-.838-5.532q.588.458 1.159.938c.256 1.652.493 3.229.712 4.744q2.372.346 4.73.756.48.582.938 1.182l1.012.184a181 181 0 0 0-6.532-1.09l.002.019c.43 3.042.787 5.833 1.073 8.464 2.273.258 4.49.55 6.64.876a363 363 0 0 0-.95-6.737q.683.993 1.31 2.027.365 2.536.668 4.87 1.014.16 2.005.33.235.542.453 1.094-1.149-.202-2.326-.391.584 4.656.903 8.485 1.845.09 3.685.196l.063.003q.087.504.16 1.011l2.445.143a708 708 0 0 0-6.272-.35q.283 3.712.301 6.6l.002.404a76 76 0 0 1-.075 3.239q1.912-.095 3.82-.203l.067-.004q-.045.506-.1 1.008l.089-.006a711 711 0 0 1-3.924.21q-.221 4.154-.84 9.542 1.29-.209 2.542-.434-.192.546-.4 1.086-1.115.198-2.26.381a302 302 0 0 1-.763 5.86q-.623 1.059-1.305 2.072.605-4.154 1.04-7.772l-.508.079c-2.146.323-4.36.613-6.628.869a221 221 0 0 1-1.37 9.532q3.142-.447 6.259-1.004-.445.594-.911 1.175l1.497-.264q-3.493.632-7.018 1.13-.462 2.741-1.005 5.647-.588.475-1.191.923l-.158.824a338 338 0 0 0 1.316-7.252l-.277.038q-4.009.537-8.064.901-.495 3.504-1.093 7.013a644 644 0 0 0 5.56-.365l.808-.057.397-.028q-.862.585-1.755 1.126-2.711.186-5.187.337-.219 1.266-.453 2.531-.545.228-1.098.44.272-1.455.527-2.91-4.688.278-8.505.419a580 580 0 0 1-.223 4.218l-.03.497q-.501.081-1.008.152l-.12 2.02q.206-3.42.38-6.85-2.328.076-4.31.1l-.461.005-.85.005h-.825a171 171 0 0 1-3.865-.06q.111 2.29.241 4.575l.024.416a42 42 0 0 1-1.008-.108l-.014-.252q-.132-2.326-.247-4.659a355 355 0 0 1-9.584-.438q.268 1.59.56 3.153a39 39 0 0 1-1.093-.411l.153.828q-.337-1.796-.646-3.63-2.805-.168-5.921-.383-.892-.54-1.755-1.125 3.998.285 7.51.496a212 212 0 0 1-1.023-6.941q-4.656-.36-9.391-.911l.142.894q.383 2.34.821 4.738l.07.38a42 42 0 0 1-1.188-.939l.205 1.12a246 246 0 0 1-1.084-6.316 262 262 0 0 1-4.975-.647q-.463-.561-.904-1.137l-1.651-.243q3.71.556 7.372 1.001a202 202 0 0 1-1.245-9.586c-2.51-.243-4.987-.52-7.42-.83l.047.37q.369 3.005.851 6.369a41 41 0 0 1-1.32-2.206 292 292 0 0 1-.6-4.667q-.866-.113-1.724-.232-.21-.53-.408-1.067.998.142 2.01.276-.645-5.58-.87-9.853a689 689 0 0 1-3.345-.172l-.083-.005q-.055-.502-.1-1.007l.236.013q1.623.087 3.243.168a82 82 0 0 1-.06-1.955l-.007-.43-.006-.817q0-3.035.304-7.013-1.705.082-3.415.172.075-.506.161-1.01l3.335-.169q.327-3.93.935-8.732-.898.117-1.786.24.22-.54.455-1.073l1.463-.195q.233-1.79.504-3.698.63-1.104 1.324-2.164a351 351 0 0 0-.802 5.732 251 251 0 0 1 7.068-.79c.273-2.79.608-5.673 1.005-8.683l-.187.022q-2.418.293-4.855.634.455-.577.933-1.138 2.132-.29 4.246-.543.284-2.104.609-4.298.567-.484 1.151-.944a368 368 0 0 0-.735 5.124 242 242 0 0 1 9.48-.911q.445-3.936.997-7.89l-.242.015a667 667 0 0 0-4.552.302 41 41 0 0 1 2.113-1.147 709 709 0 0 1 2.825-.18l.172-1.19a42 42 0 0 1 1.072-.422q-.116.775-.227 1.55 5.539-.334 9.886-.482.084-1.735.177-3.474.502-.06 1.007-.109m10.43 70.73-1.141.032q-4.897.124-9.872.015.131 3.433.298 6.855 1.871.049 3.49.06l.428.001h.82q2.52-.007 5.673-.114.169-3.418.305-6.849m-22.446-.5.06.475a215 215 0 0 0 .963 6.452q5.46.316 9.706.446-.166-3.42-.3-6.85a225 225 0 0 1-10.43-.522m32.87-.101-.554.047q-4.405.36-8.868.52-.134 3.429-.302 6.847 3.866-.145 8.627-.427.6-3.496 1.097-6.987M49.765 61.01l-.867.018c-3.584.07-7.208.076-10.84.016q.118 4.971.304 9.92 5.597.126 11.092-.047.19-4.942.311-9.907m-23.956-.413.004.047c.272 3.282.615 6.545 1.023 9.762q5.31.394 10.524.534a726 726 0 0 1-.304-9.914 306 306 0 0 1-11.247-.429m35.306-.078-1.103.069c-3.033.183-6.123.316-9.247.397q-.12 4.96-.308 9.898 4.794-.175 9.522-.58c.452-3.275.832-6.54 1.136-9.784m-45.978-.722.047.44c.324 2.995.728 6.047 1.21 9.168q4.754.56 9.425.925a227 227 0 0 1-1.018-9.793 285 285 0 0 1-9.664-.74m55.627-.106-.129.015c-2.765.296-5.609.544-8.51.745a226 226 0 0 1-1.123 9.76q4.213-.383 8.375-.953a224 224 0 0 0 1.387-9.567m-20.8-10.883-.915.007a758 758 0 0 1-11.182-.002q.04 5.63.167 11.23c3.941.066 7.873.055 11.755-.034q.13-5.586.175-11.201m-24.824-.196.018.64c.109 3.441.3 6.898.57 10.338 3.749.215 7.53.36 11.307.435q-.128-5.595-.169-11.22a766 766 0 0 1-11.726-.193m36.743 0-1.762.041q-4.57.101-9.158.146a728 728 0 0 1-.173 11.186 268 268 0 0 0 10.416-.475c.327-3.67.555-7.308.677-10.899M14.3 48.277l.007.207c.13 3.37.372 6.797.724 10.297 3.185.303 6.423.553 9.688.75-.283-3.643-.48-7.304-.582-10.944q-4.906-.123-9.837-.31m57.45.026-.614.024q-4.12.153-8.254.26c-.12 3.577-.344 7.201-.666 10.855 2.956-.206 5.853-.462 8.667-.77.418-3.592.706-7.021.868-10.37M5.69 47.908l.006.117q.234 4.258.884 9.82c2.436.312 4.92.593 7.437.84a168 168 0 0 1-.719-10.447 751 751 0 0 1-7.608-.33m74.211.039-.538.028q-3.3.16-6.608.29a154 154 0 0 1-.85 10.294c2.449-.279 4.833-.598 7.138-.956q.63-5.464.858-9.656m-39.69-12.248-2.328.013q-.06 6.068-.024 12.102 6.074.046 12.112-.005a754 754 0 0 0-.015-12.083q-4.863-.047-9.746-.027m-3.328.021-2.245.02q-4.729.053-9.478.164a207 207 0 0 0-.047 11.707q5.89.143 11.748.195-.039-6.026.022-12.086m14.071.014.013 1.31q.04 5.391.004 10.756 5.485-.053 10.943-.188.078-2.74.073-5.437a191 191 0 0 0-.119-6.246 727 727 0 0 0-10.914-.195m-26.796.195-.707.017q-4.554.116-9.126.286c-.088 2.208-.13 4.383-.13 6.546q.002 2.234.071 4.497 4.935.189 9.847.312a203 203 0 0 1-.06-5.414q.008-3.091.105-6.244m38.712.025.032.998q.078 2.626.085 5.221.006 2.685-.072 5.413 4.45-.114 8.881-.284c.076-1.871.113-3.718.109-5.557l-.01-1.54c-.017-1.323-.05-2.636-.103-3.957a688 688 0 0 0-8.922-.294m9.925.332.001.044c.07 1.802.105 3.593.109 5.413.004 1.828-.032 3.663-.106 5.52q3.582-.141 7.152-.318.067-1.54.076-2.892l.002-.4q0-3.04-.31-7.052a637 637 0 0 0-6.924-.315m-59.474-.014-1.118.041q-3.16.126-6.328.277a101 101 0 0 0-.299 5.827l-.006.427-.006.809q0 1.506.076 3.249 3.82.188 7.625.336a149 149 0 0 1-.07-4.459c0-2.15.041-4.313.126-6.507M72.05 26.11l.014.134c.327 3.177.552 6.134.687 9.04q3.449.137 6.886.309A209 209 0 0 0 78.713 27c-2.155-.332-4.38-.628-6.663-.89m-58.038-.141-.69.068c-2.167.22-4.308.462-6.414.73q-.619 4.856-.953 8.819 3.71-.178 7.408-.319c.134-3.016.35-6.098.649-9.298m48.21-.758.085 1.035c.236 2.955.411 5.85.525 8.708q4.467.116 8.916.29a160 160 0 0 0-.716-9.247 220 220 0 0 0-8.81-.786m-37.493-.09-.583.035c-3.072.192-6.12.43-9.12.714a192 192 0 0 0-.66 9.36q4.923-.183 9.824-.303c.113-3.23.294-6.503.54-9.806m26.044-.454.028 1.19q.097 4.448.144 8.878 5.455.055 10.884.192a219 219 0 0 0-.617-9.784 265 265 0 0 0-10.439-.476m-13.702-.04-.651.013c-3.57.078-7.14.219-10.683.42a249 249 0 0 0-.546 9.844q5.868-.137 11.702-.185.055-5.034.178-10.092m1.81-.031-.81.013a776 776 0 0 0-.179 10.103q6.044-.042 12.052.012a759 759 0 0 0-.171-10.08 295 295 0 0 0-10.892-.048m22.332-9.16.088.725c.323 2.738.602 5.414.834 8.042 2.999.207 5.935.465 8.788.775a271 271 0 0 0-1.089-8.518q-4.285-.612-8.62-1.024m-35.571-.207-.42.031q-4.504.355-9.083.888c-.401 3.02-.74 5.912-1.016 8.71 3.185-.3 6.42-.549 9.684-.744a281 281 0 0 1 .835-8.885m24.835-.51.093 2.708q.103 3.125.18 6.24c3.512.091 6.981.247 10.374.468a275 275 0 0 0-.928-8.79 191 191 0 0 0-9.719-.626m-13.101-.09-.79.02q-4.921.139-9.93.503a282 282 0 0 0-.843 8.904 304 304 0 0 1 11.282-.43q.115-4.488.28-8.996m1.706-.035-.705.015a792 792 0 0 0-.28 9 297 297 0 0 1 11.652.033 789 789 0 0 0-.274-8.958q-5.152-.176-10.393-.09m11.021-8.826.019.366q.177 3.799.319 7.584 4.848.186 9.63.61a355 355 0 0 0-1.114-8.142 364 364 0 0 0-8.854-.418m-12.353.007-.148.005q-4.33.15-9.829.484a299 299 0 0 0-1.003 7.878q5.37-.388 10.645-.514.147-3.918.335-7.853m6.278-.122-1.257.006q-1.851.017-4.017.083a773 773 0 0 0-.34 7.865 206 206 0 0 1 11.024.074q-.147-3.964-.336-7.945a173 173 0 0 0-5.074-.083"/><path fill="url(#i)" stroke="url(#j)" d="M65.25 38.972c.666 0 1.153.255 1.481.643q.096.113.174.242c.314-.48.37-.558.43-.639q.141.001.304.022c1.145.14 1.364.762 1.357 1.549a4 4 0 0 1-.416 1.687c-.238.486-.609 1.116-1 1.779-.475.806-.983 1.663-1.297 2.357-.205.459-.343.875-.382 1.208.604.224.94-.023 1.271-.374.567-.601 1.12-1.434 1.545-2.272q.194-.384.362-.785c.168.175.341.423.527.78.537 1.032.387 1.455.177 1.909-.36.762-.99 1.526-1.717 2.066-.7.52-1.489.827-2.22.787-.782-.043-1.37-.309-1.775-.713a2.2 2.2 0 0 1-.459-.68c-.78.75-1.727 1.298-2.705 1.298-.7 0-1.258-.244-1.669-.652-.413-.41-.681-1-.764-1.714-.142-1.212.255-2.81 1.324-4.369 2.103-3.064 4.171-4.129 5.453-4.129Zm.151 2.277c-.31.105-.722.45-1.17.873-.657.62-1.37 1.487-1.987 2.485-.592.96-.968 1.932-1.082 2.67-.037.24-.016.441.217.742.303-.083.622-.361.963-.718.597-.627 1.227-1.552 1.852-2.632.688-1.201 1.101-2.153 1.267-2.829a.75.75 0 0 0-.06-.591Zm-37.838-1.515c1.614-.106 1.832.51 1.825 1.3a4 4 0 0 1-.414 1.677c-.212.443-.51.986-.824 1.556-.43.783-.892 1.62-1.181 2.308-.19.46-.313.86-.345 1.178.657.228 1.027-.021 1.374-.388.55-.579 1.056-1.375 1.41-2.188.359-.423.542-.346.736-.217.415.276.593.602.643.948.05.347-.047.742-.254 1.174a5.2 5.2 0 0 1-1.695 1.982c-.731.51-1.558.796-2.331.796-.528 0-.96-.112-1.304-.302a2 2 0 0 1-.861-.936c-.332-.723-.317-1.754.084-2.928.613-1.79 2.23-4.685 3.137-5.96Zm18.285.424c.115.155.24.282.36.405.517.534.995 1.01.865 2.575-.706 3.391-2.386 5.914-4.276 6.552a3.04 3.04 0 0 1-1.964-.005c-.552-.193-1.113-.568-1.617-1.223-.573-.755-.793-1.688-.721-2.7.074-1.041.462-2.17 1.067-3.246 1.007-1.802 2.648-3.27 4.22-3.375.937-.06 1.458.197 2.066 1.017Zm-2.862 2.262a7.8 7.8 0 0 0-1.11 1.518c-.474.859-.798 1.807-.928 2.604-.094.576-.165 1.134.339 1.368.204-.037.431-.156.672-.338.527-.397 1.094-1.084 1.606-2.047.27-.502.496-1.003.515-1.58-.404-.312-.845-.87-1.094-1.525Zm-4.703-8.782c.298-.035.602.053.895.326.425.38.684.84.796 1.375q.16.77-.093 1.76c-.758 3.007-3.448 5.953-5.647 7.433-.444 1.112-.724 2.13-.748 2.87-.01.266.009.49.095.645.596.132 1.125-.226 1.646-.707.67-.62 1.32-1.498 1.78-2.406.356-.38.523-.31.7-.204.91.539.883 1.266.487 2.13-.222.474-.993 1.462-2.041 2.159-.72.478-1.564.815-2.435.793-.526-.015-.984-.13-1.365-.337a2.25 2.25 0 0 1-.929-.948c-.363-.69-.471-1.708-.172-3.111.907-4.267 3.699-8.707 6.196-11.302.285-.304.57-.445.835-.476Zm-9.62 3.475c1.74-.207 1.996.217 2.203.647.19.383.245.772.208 1.124a1.84 1.84 0 0 1-.457 1.048c-1.68.312-1.914-.052-2.14-.445a2.1 2.1 0 0 1-.3-1.224c.03-.451.21-.858.485-1.15Zm-7.772-4.005c1.81.693 2.039 1.879.822 4.104-.179.334-.522.91-.914 1.566l-.265.443q.354-.106.667-.105c.627 0 1.11.213 1.466.57s.59.873.68 1.514c.165 1.157-.142 2.755-.874 4.38-.587 1.312-1.271 2.324-1.985 3.017-.81.785-1.665 1.167-2.48 1.167-.73 0-1.332-.188-1.817-.516a3 3 0 0 1-.611-.556l-.028-.037-.073.167-.116.264-.11.255c-.364.408-.532.334-.7.241-.905-.495-1.36-1.269-.74-3.16.655-2.013 5.404-10.986 7.078-13.314Zm-.317 8c-.33.063-.676.335-1.126.8-1.025 1.07-2.113 2.95-2.969 4.712.032.258.106.52.606 1.028.335.076.703-.106 1.128-.528.496-.493 1.042-1.3 1.652-2.52.555-1.1.827-1.98.908-2.632.035-.276.015-.499-.199-.86Zm34.5-8c1.811.693 2.04 1.879.823 4.104-.179.334-.522.91-.914 1.566l-.264.443q.352-.106.666-.105c.627 0 1.11.213 1.466.57s.59.873.68 1.514c.165 1.157-.141 2.755-.874 4.38-.587 1.312-1.271 2.324-1.985 3.017-.81.785-1.664 1.167-2.48 1.167-.73 0-1.332-.188-1.817-.516a3 3 0 0 1-.61-.556l-.029-.037-.073.167-.116.264-.11.255c-.364.408-.532.334-.7.241-.905-.495-1.36-1.269-.74-3.16.655-2.013 5.405-10.986 7.078-13.314Zm-.316 8c-.33.063-.676.335-1.126.8-1.025 1.07-2.113 2.95-2.968 4.712.03.258.105.52.605 1.028.335.076.703-.106 1.128-.528.496-.493 1.042-1.3 1.652-2.52.555-1.1.827-1.98.908-2.632.035-.276.015-.499-.199-.86Z"/></g></svg>