<svg xmlns="http://www.w3.org/2000/svg" xmlns:xlink="http://www.w3.org/1999/xlink" viewBox="0 0 96 96"><defs><radialGradient id="b" cx="19.806%" cy="53.669%" r="80.533%" fx="19.806%" fy="53.669%" gradientTransform="matrix(.08027 .68424 -.99677 .0551 .718 .372)"><stop offset="0%" stop-color="#201200"/><stop offset="100%" stop-color="#ffc57e"/></radialGradient><filter id="a" width="130.2%" height="127%" x="-15.1%" y="-13.5%" filterUnits="objectBoundingBox"><feOffset dy="2" in="SourceAlpha" result="shadowOffsetOuter1"/><feGaussianBlur in="shadowOffsetOuter1" result="shadowBlurOuter1" stdDeviation="2"/><feColorMatrix in="shadowBlurOuter1" result="shadowMatrixOuter1" values="0 0 0 0 0 0 0 0 0 0 0 0 0 0 0 0 0 0 0.2 0"/><feMerge><feMergeNode in="shadowMatrixOuter1"/><feMergeNode in="SourceGraphic"/></feMerge></filter></defs><g fill="none" filter="url(#a)" transform="translate(13.463 -.792)"><path fill="#764100" d="M16.537 57.792a1 1 0 0 1 1 1v4a1 1 0 1 1-2 0v-4a1 1 0 0 1 1-1"/><path fill="#ffc57e" d="m26.01 38.792-9.462 9v8H4.537v-1l3.24-4H1.01l1.527 4v4h17v-9h10.606z"/><ellipse cx="47.537" cy="37.292" fill="#ffc887" rx="22" ry="31.5" transform="rotate(-21 47.537 37.292)"/><ellipse cx="47.347" cy="37.398" fill="url(#b)" rx="18.926" ry="27.571" transform="rotate(-21 47.347 37.398)"/><path fill="#ffc57e" d="m2.86 63.792 2.677 2.833v11.167L0 80.972l2.86 7.82h41.721v-2.96l-6.044-4.006V67.792l1.484-2.35-7.753-1.65z"/><path fill="#ae8450" d="m32.268 63.792 4.698 1H3.806l-.946-1z"/><rect width="23" height="2" x="8.537" y="60.792" fill="#764100" rx="1"/><path fill="#764100" d="M20.537 58.792a1 1 0 0 1 1 1v4a1 1 0 1 1-2 0v-4a1 1 0 0 1 1-1"/><path fill="#ae8450" d="m3.61 87.759 5.927-6.787v-16.18l-6.677-1 2.677 2.833v11.167L0 80.972l2.86 7.82z"/></g></svg>