<svg xmlns="http://www.w3.org/2000/svg" xmlns:xlink="http://www.w3.org/1999/xlink" viewBox="0 0 96 96"><defs><linearGradient id="b" x1="34.126%" x2="61.921%" y1="4.485%" y2="95.947%"><stop offset="0%" stop-color="#ffca64"/><stop offset="100%" stop-color="#c70000"/></linearGradient><linearGradient id="c" x1="50%" x2="50%" y1="0%" y2="100%"><stop offset="0%" stop-color="#fff"/><stop offset="100%" stop-color="#fff" stop-opacity=".851"/></linearGradient><filter id="a" width="128.6%" height="128.6%" x="-14.3%" y="-14.3%" filterUnits="objectBoundingBox"><feOffset dy="2" in="SourceAlpha" result="shadowOffsetOuter1"/><feGaussianBlur in="shadowOffsetOuter1" result="shadowBlurOuter1" stdDeviation="2"/><feColorMatrix in="shadowBlurOuter1" result="shadowMatrixOuter1" values="0 0 0 0 0 0 0 0 0 0 0 0 0 0 0 0 0 0 0.2 0"/><feMerge><feMergeNode in="shadowMatrixOuter1"/><feMergeNode in="SourceGraphic"/></feMerge></filter></defs><g fill="none" fill-rule="evenodd" filter="url(#a)" transform="translate(6 6)"><circle cx="42" cy="42" r="42" fill="url(#b)"/><path fill="url(#c)" d="M58.338 8.611c-.04-.391.261-.561.432-.457.602.365 1.218.86 1.83 1.44 1.712 1.626 3.387 3.91 4.594 5.817 2.798 4.42 7.093 14.25 3.771 32.589q-3.321 18.339-12.999 29.445-4.062-2.755-8.333-9.112c-3.628-7.226.312-12.469 2.477-14.433 2.164-1.963 11.791-16.473 12.925-26.532q1.086-9.644-4.232-17.766c-.07-.108-.43-.656-.465-.991m-5.484-2.357c.227-.569.644-.752 1.272-.5q.627.25 1.065 1.29 8.984 16.949-1.39 34.082Q43.426 58.26 30.705 63.738q-7.107-13.35-4.537-17.75c.545-.932 1.055-1.59 1.64-2.164l.168-.161c2.171-2.02 5.462-3.153 15.119-12.345 8.09-7.7 11.072-14.972 9.76-23.333-.107-.677-.227-1.162 0-1.731m-4.099.803c.474-.082 1.355.078 1.355 5.997 0 6.943-9.196 15.801-13.442 18.861-3.876 2.794-18.537 11.38-25.545 11.923-.67.051-1.3.11-1.783-.078-1.184-.46-1.562-4.94-1.513-7.218.113-5.154.442-9.804 1.942-10.864 2.476-1.75 9.293-2.982 21.605-6.197 6.132-1.6 11.31-4.241 14.561-8.275.207-.256.651-1.005 1.117-1.795l.234-.396c.585-.988 1.147-1.923 1.266-1.923.04 0 .091-.013.15-.025Z"/></g></svg>