<svg xmlns="http://www.w3.org/2000/svg" xmlns:xlink="http://www.w3.org/1999/xlink" viewBox="0 0 96 96"><defs><linearGradient id="b" x1="50%" x2="50%" y1="2.99%" y2="93.807%"><stop offset="0%" stop-color="#1b3b65"/><stop offset="100%" stop-color="#041e3f"/></linearGradient><linearGradient id="c" x1="50%" x2="50%" y1="2.99%" y2="93.807%"><stop offset="0%" stop-color="#fff"/><stop offset="100%" stop-color="#fff"/></linearGradient><filter id="a" width="130.8%" height="130.8%" x="-15.4%" y="-15.4%" filterUnits="objectBoundingBox"><feOffset dy="2" in="SourceAlpha" result="shadowOffsetOuter1"/><feGaussianBlur in="shadowOffsetOuter1" result="shadowBlurOuter1" stdDeviation="2"/><feColorMatrix in="shadowBlurOuter1" result="shadowMatrixOuter1" values="0 0 0 0 0 0 0 0 0 0 0 0 0 0 0 0 0 0 0.2 0"/><feMerge><feMergeNode in="shadowMatrixOuter1"/><feMergeNode in="SourceGraphic"/></feMerge></filter></defs><g fill="none" filter="url(#a)" transform="translate(9 9)"><rect width="78" height="78" fill="url(#b)" rx="18"/><path fill="url(#c)" d="M8.273 10a5 5 0 0 1 3.31 1.253l.192.178 5.612 5.508H37a5 5 0 0 1 4.981 4.563l.014.22.005.218V34h4.07a6 6 0 0 1 5.996 5.775l.004.225a6 6 0 0 1-.531 2.47l-.14.287-10.346 20a6 6 0 0 1-5.08 3.238l-.249.005h-34.7a18 18 0 0 1-.775-3h35.475a3 3 0 0 0 2.569-1.45l.096-.172 10.346-20A3 3 0 0 0 46.07 37H0v-3h39V21.94a2 2 0 0 0-1.85-1.995L37 19.94H16.98a2 2 0 0 1-1.272-.456l-.13-.117-5.904-5.794A2 2 0 0 0 8.273 13H.703a18 18 0 0 1 1.168-3z"/></g></svg>