<svg xmlns="http://www.w3.org/2000/svg" xmlns:xlink="http://www.w3.org/1999/xlink" viewBox="0 0 96 96"><defs><linearGradient id="b" x1="50%" x2="50%" y1="0%" y2="100%"><stop offset="0%" stop-color="#f9f9f9"/><stop offset="100%" stop-color="#cbcbcb"/></linearGradient><linearGradient id="c" x1="50%" x2="50%" y1="0%" y2="100%"><stop offset="0%" stop-opacity=".2"/><stop offset="100%" stop-opacity=".3"/></linearGradient><radialGradient id="e" cx="50%" cy="50%" r="50.521%" fx="50%" fy="50%"><stop offset="0%" stop-color="#a0e1ee"/><stop offset="100%" stop-color="#96d4e1"/></radialGradient><filter id="a" width="129.8%" height="129.8%" x="-14.9%" y="-14.9%" filterUnits="objectBoundingBox"><feOffset dy="2" in="SourceAlpha" result="shadowOffsetOuter1"/><feGaussianBlur in="shadowOffsetOuter1" result="shadowBlurOuter1" stdDeviation="2"/><feColorMatrix in="shadowBlurOuter1" result="shadowMatrixOuter1" values="0 0 0 0 0 0 0 0 0 0 0 0 0 0 0 0 0 0 0.2 0"/><feMerge><feMergeNode in="shadowMatrixOuter1"/><feMergeNode in="SourceGraphic"/></feMerge></filter></defs><g fill="none" fill-rule="evenodd" filter="url(#a)" transform="translate(6 6)"><circle cx="42" cy="42" r="42.25" fill="url(#b)" stroke="url(#c)" stroke-width=".5"/><circle cx="42" cy="42" r="39" fill="url(#e)"/><g fill="#3b6d76" fill-rule="nonzero"><path d="M51.268 54.54c1.15-3.593 1.762-7.762 1.762-12.086 0-9.712-3.132-18.208-7.462-21.027l-.221-.138-.215-.122-.052.096c-.227.39-.528.733-.89 1.011l-.187.134-.197.122a3.5 3.5 0 1 1 1.68-3.734l.038.22.011.114.248.118c5.309 2.66 9.015 11.662 9.237 22.205l.008.503.002.498c0 4.528-.642 8.902-1.858 12.696a1 1 0 1 1-1.904-.61m-10.51-34.29a1.5 1.5 0 1 0 2.597-1.5 1.5 1.5 0 0 0-2.598 1.5m1.773 46.204c-4.454 0-8.397-4.294-10.643-11.306a1 1 0 1 1 1.905-.61c1.986 6.202 5.316 9.916 8.738 9.916 2.473 0 4.92-1.925 6.87-5.481a1 1 0 0 1 1.753.962c-2.288 4.172-5.33 6.519-8.623 6.519"/><path d="M48.256 27.523c-3.687.8-7.603 2.355-11.348 4.517-8.41 4.856-14.202 11.816-14.478 16.976l-.01.26.002.248.11-.003c.45.001.898.09 1.32.265l.21.095.204.11a3.5 3.5 0 1 1-4.074.412l.171-.143.094-.067-.022-.273c-.35-5.928 5.592-13.64 14.611-19.102l.432-.259.43-.25c3.922-2.265 8.03-3.896 11.924-4.74a1 1 0 1 1 .424 1.954M23.815 53.771a1.5 1.5 0 1 0-2.599-1.5 1.5 1.5 0 0 0 2.599 1.5m39.127-24.637c2.227 3.857.48 9.418-4.469 14.87a1 1 0 1 1-1.48-1.345c4.378-4.822 5.928-9.562 4.217-12.525-1.236-2.142-4.126-3.298-8.18-3.209a1 1 0 0 1-.045-2c4.758-.104 8.31 1.356 9.957 4.209"/><path d="M26.365 43.64c2.536 2.793 5.84 5.407 9.586 7.57 8.41 4.855 17.334 6.39 21.94 4.05l.231-.122.213-.125-.057-.094a3.5 3.5 0 0 1-.431-1.277l-.022-.228-.008-.231a3.5 3.5 0 1 1 2.394 3.322l-.209-.078-.105-.047-.226.155c-4.958 3.268-14.607 1.977-23.848-3.102l-.44-.245-.432-.247c-3.922-2.264-7.389-5.007-10.067-7.957a1 1 0 1 1 1.48-1.344m34.952 8.043a1.5 1.5 0 1 0 0 3 1.5 1.5 0 0 0 0-3m-40.9-21.567c2.227-3.857 7.917-5.125 15.113-3.564a1 1 0 1 1-.424 1.954c-6.365-1.38-11.246-.353-12.957 2.61-1.236 2.142-.793 5.222 1.312 8.69a1 1 0 0 1-1.71 1.037c-2.47-4.068-2.98-7.875-1.334-10.727"/></g><circle cx="42" cy="42" r="2.5" fill="#3b6d76"/></g></svg>