<svg xmlns="http://www.w3.org/2000/svg" xmlns:xlink="http://www.w3.org/1999/xlink" viewBox="0 0 96 96"><defs><linearGradient id="b" x1="50%" x2="50%" y1="0%" y2="100%"><stop offset="0%" stop-color="#4faeff"/><stop offset="100%" stop-color="#3380ff"/></linearGradient><filter id="a" width="130.5%" height="128.7%" x="-15.3%" y="-14.4%" filterUnits="objectBoundingBox"><feOffset dy="2" in="SourceAlpha" result="shadowOffsetOuter1"/><feGaussianBlur in="shadowOffsetOuter1" result="shadowBlurOuter1" stdDeviation="2"/><feColorMatrix in="shadowBlurOuter1" result="shadowMatrixOuter1" values="0 0 0 0 0 0 0 0 0 0 0 0 0 0 0 0 0 0 0.2 0"/><feMerge><feMergeNode in="shadowMatrixOuter1"/><feMergeNode in="SourceGraphic"/></feMerge></filter></defs><g fill="none" filter="url(#a)" transform="translate(9 6)"><path fill="#8cdcff" d="M35.619 19.879c8.897-6.382 18.477-7.554 22.475-4.192s3.584 13.376-1.876 22.95q-.283.496-.664 1.102a8.2 8.2 0 0 0 1.45 10.44l8.923 8.051a3.54 3.54 0 0 0 4.798-.05q.401-.378.696-.642c3.13-2.809 5.562-4.342 6.224-3.744 1.038.937-2.667 6.757-8.276 13-5.61 6.242-10.998 10.543-12.036 9.606-.619-.558.445-2.848 2.592-5.927q.187-.27.449-.627a3.596 3.596 0 0 0-.493-4.79l-8.97-8.095a8.4 8.4 0 0 0-10.687-.472q-.516.39-.948.688C30.602 63.184 21.347 64.16 17.47 60.9s-3.732-11.684.448-20.252q.422-.88 2.048-3.475a7.31 7.31 0 0 0-1.295-9.3l-6.77-6.11a3.55 3.55 0 0 0-4.768.011q-.32.292-.563.503c-2.847 2.479-5.022 3.79-5.643 3.23-1.038-.937 2.667-6.757 8.276-13C14.812 6.265 20.2 1.964 21.24 2.9c.667.602-.626 3.224-3.127 6.679q-.25.345-.617.827a3.34 3.34 0 0 0 .42 4.503l6.753 6.094a7.06 7.06 0 0 0 9.194.234q1.006-.82 1.757-1.358m-.32 32.22c9.089.97 17.1-4.45 17.893-12.106.794-7.656-5.932-14.647-15.021-15.616-9.09-.97-17.1 4.451-17.894 12.107S26.21 51.13 35.3 52.1"/><path fill="#000205" d="M47.57 25.943q1.292.204 2.203.405c10.901 2.408 18.513 9.106 18.513 14.246S60.613 52.476 49.642 54.87q-.558.122-1.26.245a8.38 8.38 0 0 0-6.935 8.252V75.67a3.634 3.634 0 0 0 3.328 3.621q.55.046.946.09c4.261.461 7.081 1.264 7.081 2.177 0 1.432-6.932 2.593-15.484 2.593s-15.484-1.16-15.484-2.593c0-.852 2.459-1.609 6.254-2.081q.327-.04.766-.086a3.674 3.674 0 0 0 3.303-3.655v-12.37a8.63 8.63 0 0 0-6.963-8.466 30 30 0 0 1-1.142-.246C13.586 52.158 6.35 45.744 6.35 40.594s6.292-10.836 15.627-13.516q.95-.279 4-.813a7.47 7.47 0 0 0 6.179-7.355V9.575A3.644 3.644 0 0 0 28.88 5.95a35 35 0 0 1-.75-.083c-3.819-.473-6.296-1.232-6.296-2.087 0-1.432 6.933-2.593 15.484-2.593s15.484 1.16 15.484 2.593c0 .92-2.866 1.729-7.187 2.189q-.426.045-1.033.095a3.413 3.413 0 0 0-3.135 3.402v9.312a7.254 7.254 0 0 0 6.124 7.165M37.319 53.04c8.552 0 15.484-5.804 15.484-12.963 0-7.16-6.932-12.963-15.484-12.963s-15.484 5.804-15.484 12.963c0 7.16 6.933 12.963 15.484 12.963"/><path fill="url(#b)" stroke="#000" stroke-width=".3" d="M41.393 24.758q1.296.204 2.212.407c10.475 2.314 18.63 8.837 18.63 14.392 0 5.565-8.232 12.125-18.761 14.422q-.562.123-1.267.246a8.23 8.23 0 0 0-6.81 8.104v12.303a3.484 3.484 0 0 0 3.19 3.471q.55.047.95.09c4.493.487 7.215 1.307 7.215 2.327 0 1.58-6.942 2.743-15.634 2.743s-15.634-1.162-15.634-2.743c0-.958 2.373-1.73 6.385-2.23a35 35 0 0 1 .77-.086 3.524 3.524 0 0 0 3.167-3.506V62.33a8.48 8.48 0 0 0-6.841-8.318 30 30 0 0 1-1.148-.248C7.637 51.336 0 45.096 0 39.557c0-5.386 6.43-10.99 15.735-13.66q.96-.282 4.017-.817a7.32 7.32 0 0 0 6.054-7.207V8.538a3.494 3.494 0 0 0-3.142-3.476q-.431-.044-.753-.084c-4.037-.499-6.427-1.274-6.427-2.235C15.484 1.163 22.425 0 31.118 0c8.692 0 15.634 1.162 15.634 2.743 0 1.028-2.767 1.853-7.321 2.338q-.43.045-1.037.096a3.263 3.263 0 0 0-2.997 3.252v9.312a7.104 7.104 0 0 0 5.996 7.017ZM31.118 51.852c8.474 0 15.334-5.743 15.334-12.813s-6.86-12.813-15.334-12.813-15.334 5.743-15.334 12.813 6.86 12.813 15.334 12.813Z" transform="translate(4.636)"/></g></svg>