<svg xmlns="http://www.w3.org/2000/svg" xmlns:xlink="http://www.w3.org/1999/xlink" viewBox="0 0 96 96"><defs><filter id="a" width="126.8%" height="133.7%" x="-13.4%" y="-16.8%" filterUnits="objectBoundingBox"><feOffset dy="2" in="SourceAlpha" result="shadowOffsetOuter1"/><feGaussianBlur in="shadowOffsetOuter1" result="shadowBlurOuter1" stdDeviation="2"/><feColorMatrix in="shadowBlurOuter1" result="shadowMatrixOuter1" values="0 0 0 0 0 0 0 0 0 0 0 0 0 0 0 0 0 0 0.2 0"/><feMerge><feMergeNode in="shadowMatrixOuter1"/><feMergeNode in="SourceGraphic"/></feMerge></filter></defs><g fill="none" fill-rule="evenodd" filter="url(#a)" transform="translate(3.277 12.18)"><path fill="#010101" d="M87.415 51.013c-3.412-9.204-9.53-16.008-17.831-20.985-1.963-1.176-3.615-1.038-5.413.47-6.151 5.158-13.243 4.95-20.72 3.95-5.66-.756-11.486-.849-17.133.755-1.664.473-2.361 1.611-1.861 3.287 1.646 5.51 3.296 11.019 5.037 16.498.544 1.709 1.445 3.056 3.729 2.812 2.123-.229 4.29-.05 6.519-.05-2.51-8.8 2.226-17.57 12.318-19.49 7.464-1.418 16.197 5.895 17.046 14.189.512 5.002-3.57 11.766-8.654 14.15-6.149 2.882-11.434 1.724-15.983-2.295-2.264-2-4.108-4.337-7.656-3.032.508.357 1.106.621 1.48 1.071.713.86 1.83 1.943 1.093 2.982-.854 1.202-1.875-.205-2.657-.609-4.849-2.504-9.78-4.58-15.622-3.615.526-3.268 2.828-3.292 4.935-3.59-1.083-3.95-2.628-7.555-3.481-11.404-.47-2.12-1.892-4.63-4.762-3.686-2.382.781-3.031 3.036-2.37 5.483 1.158 4.298 2.281 8.606 3.554 12.87.536 1.796 1.96 2.68 3.88 2.67 2.167-.01 4.334.02 6.5-.008 1.39-.018 2.735-.033 3.203 2.178h-7.913c.222.625.235.943.375 1.015 1.785.916 4.722 1.772 3.554 4.03-.857 1.657-3.018-.691-4.503-1.39-4.186-1.97-8.186-4.512-13.118-3.229-.167-1.274.75-2.067 1.239-2.122 4.534-.507 2.76-2.781 1.699-5.152-.737-1.646-1.09-3.492-1.428-5.284-1.144-6.07-4.457-11.023-7.906-15.954C-6.1 22.275 3.081 4.965 20.132.842c10.67-2.58 19.7.99 27.789 7.73.999.833 1.602.9 3.012.603 9.944-2.1 18 4.625 17.355 13.318-.12 1.615.849 2.131 2.055 2.959 7.619 5.234 14.163 11.503 18.295 19.978 1.064 2.184 1.329 4.035-1.223 5.583"/><path fill="#fefefe" d="M60.866 20.986c-2.923-2.342-4.729-1.976-5.571.918-.167.571.279 1.476-.685 1.596-.938.115-1.416-.643-1.72-1.388-.762-1.871-.822-3.594.605-5.335 1.49-1.82 3.393-1.43 5.16-1.206 1.572.197 2.238 2.025 2.21 5.415"/></g></svg>