<svg xmlns="http://www.w3.org/2000/svg" xmlns:xlink="http://www.w3.org/1999/xlink" viewBox="0 0 96 96"><defs><linearGradient id="b" x1="50%" x2="50%" y1="0%" y2="148.278%"><stop offset="0%" stop-color="#939393"/><stop offset="100%" stop-color="#818181"/></linearGradient><linearGradient id="c" x1="50%" x2="50%" y1="0%" y2="100%"><stop offset="0%" stop-color="#fff" stop-opacity=".434"/><stop offset="100%" stop-color="#fff" stop-opacity=".434"/></linearGradient><linearGradient id="d" x1="50%" x2="50%" y1="0%" y2="100%"><stop offset="0%" stop-color="#ff0"/><stop offset="100%" stop-color="#ff0"/></linearGradient><linearGradient id="e" x1="50%" x2="50%" y1="0%" y2="100%"><stop offset="0%" stop-color="#fb0"/><stop offset="100%" stop-color="#ff8500"/></linearGradient><linearGradient id="f" x1="50%" x2="50%" y1="1.614%" y2="100%"><stop offset="0%" stop-color="#ff5a5a"/><stop offset="100%" stop-color="red"/></linearGradient><linearGradient id="g" x1="50%" x2="50%" y1="0%" y2="100%"><stop offset="0%" stop-color="#515151"/><stop offset="100%"/></linearGradient><filter id="a" width="128.6%" height="132.9%" x="-14.3%" y="-16.4%" filterUnits="objectBoundingBox"><feOffset dy="2" in="SourceAlpha" result="shadowOffsetOuter1"/><feGaussianBlur in="shadowOffsetOuter1" result="shadowBlurOuter1" stdDeviation="2"/><feColorMatrix in="shadowBlurOuter1" result="shadowMatrixOuter1" values="0 0 0 0 0 0 0 0 0 0 0 0 0 0 0 0 0 0 0.2 0"/><feMerge><feMergeNode in="shadowMatrixOuter1"/><feMergeNode in="SourceGraphic"/></feMerge></filter></defs><g fill="none" fill-rule="evenodd" filter="url(#a)" transform="translate(6 12)"><path fill="#dbdbdb" d="M18 0h48c9.941 0 18 8.059 18 18v37c0 9.941-8.059 18-18 18H18C8.059 73 0 64.941 0 55V18C0 8.059 8.059 0 18 0"/><path fill="#979797" fill-rule="nonzero" d="M66 0c9.941 0 18 8.059 18 18v37c0 9.941-8.059 18-18 18H18C8.059 73 0 64.941 0 55V18C0 8.059 8.059 0 18 0zm0 2H18C9.269 2 2.17 8.994 2.003 17.685L2 18v37c0 8.731 6.994 15.83 15.685 15.997L18 71h48c8.731 0 15.83-6.994 15.997-15.685L82 55V18c0-8.731-6.994-15.83-15.685-15.997z"/><path fill="url(#b)" d="M18 4h48c7.732 0 14 6.268 14 14v37c0 7.732-6.268 14-14 14H18c-7.732 0-14-6.268-14-14V18c0-7.732 6.268-14 14-14"/><path fill="#fff" fill-opacity=".453" fill-rule="nonzero" d="M66 4c7.732 0 14 6.268 14 14v37c0 7.732-6.268 14-14 14H18c-7.732 0-14-6.268-14-14V18c0-7.732 6.268-14 14-14zm0 2H18C11.475 6 6.166 11.209 6.004 17.695L6 18v37c0 6.525 5.209 11.834 11.695 11.996L18 67h48c6.525 0 11.834-5.209 11.996-11.695L78 55V18c0-6.525-5.209-11.834-11.695-11.996z"/><path fill="url(#c)" fill-rule="nonzero" d="M67 10H17a8 8 0 0 0-8 8v37a8 8 0 0 0 8 8h50a8 8 0 0 0 8-8V18a8 8 0 0 0-8-8m0 2a6 6 0 0 1 6 6v37a6 6 0 0 1-6 6H17a6 6 0 0 1-6-6V18a6 6 0 0 1 6-6z" opacity=".533"/><path fill="url(#d)" d="M73 45v10a6 6 0 0 1-6 6H17a6 6 0 0 1-6-6V45z"/><path fill="url(#e)" d="M73 29v17H11V29z"/><path fill="url(#f)" d="M67 12a6 6 0 0 1 6 6v12l-62-.001V18a6 6 0 0 1 6-6z"/><path fill="url(#g)" d="M24 16h10.865L50 43.251V16h9v40H48.174L33.981 29.404V56H24z"/></g></svg>