<svg xmlns="http://www.w3.org/2000/svg" xmlns:xlink="http://www.w3.org/1999/xlink" viewBox="0 0 96 96"><defs><linearGradient id="b" x1="50%" x2="50%" y1="0%" y2="100%"><stop offset="0%" stop-color="#67b6ff"/><stop offset="100%" stop-color="#3267ff"/></linearGradient><linearGradient id="c" x1="50%" x2="50%" y1="0%" y2="100%"><stop offset="0%" stop-color="#fff"/><stop offset="100%" stop-color="#88c4eb"/></linearGradient><filter id="a" width="130.8%" height="130.8%" x="-15.4%" y="-15.4%" filterUnits="objectBoundingBox"><feOffset dy="2" in="SourceAlpha" result="shadowOffsetOuter1"/><feGaussianBlur in="shadowOffsetOuter1" result="shadowBlurOuter1" stdDeviation="2"/><feColorMatrix in="shadowBlurOuter1" result="shadowMatrixOuter1" values="0 0 0 0 0 0 0 0 0 0 0 0 0 0 0 0 0 0 0.2 0"/><feMerge><feMergeNode in="shadowMatrixOuter1"/><feMergeNode in="SourceGraphic"/></feMerge></filter></defs><g fill="none" fill-rule="evenodd" filter="url(#a)" transform="translate(9 9)"><rect width="78" height="78" fill="url(#b)" rx="18"/><path fill="url(#c)" d="M59.228 15.02c3.763.575 7.286 2.429 8.054 3.865s.44 6.358-.866 10.327c-.76 2.305-3.127 11.034-7.884 26.295q-.705 2.258-2.633 7.253l-10.407-9.658 1.392-15.505 6.301-19.34q.55-1.383.8-1.82c.207-.363.55-.712.645-.775q1.665-1.09 4.598-.642m-27.243 9.423 4.873 17.967-5.365 16.535-7.782-19.528 5.422-13.757z"/><path fill="#f0f6fc" d="M32.899 23.363c1.632-.548 4.56-1.17 6.873 0 2.313 1.171 2.744 1.746 4.225 5.618.651 1.704 3.034 8.38 5.498 15.353l.336.952.505 1.43.334.95c2.727 7.739 5.23 14.923 5.23 15.094 0 .35-2.675 1.163-6.136.757-3.46-.407-6.557-1.862-7.68-2.965-.555-.545-2.638-6.377-4.804-12.791l-.282-.84-.425-1.266-.282-.846c-1.875-5.636-3.646-11.17-4.36-13.508-1.277-4.182-2.178-4.913-2.577-5.3l-.056-.057a.53.53 0 0 1-.165-.284c0-.494 2.871-1.996 3.766-2.297m-9.151 8.696q.345 1.02.69 2.055l.273.83.137.416.272.834.27.836.269.836.398 1.252.262.832c2.865 9.136 5.174 17.642 5.174 18.995 0 1.742-4.18.667-6.417 0s-4.805-1.4-5.952-3.24c-.423-.68-1.193-2.731-2.103-5.439l-.23-.69a292 292 0 0 1-2.338-7.443l-.248-.826c-.739-2.48-1.445-4.94-2.03-7.081-1.744-6.382-1.61-7.35-1.32-8.031l.034-.078c.052-.115.107-.227.156-.364.34-.953 1.938-1.757 4.07-2.481.282-.095.57-.214.87-.32l.15-.052.152-.05.154-.045c1.881-.528 4.165-.001 7.307 9.254"/></g></svg>