<svg xmlns="http://www.w3.org/2000/svg" xmlns:xlink="http://www.w3.org/1999/xlink" viewBox="0 0 96 96"><defs><linearGradient id="b" x1="50%" x2="50%" y1="0%" y2="99.093%"><stop offset="0%" stop-color="#f7f7f7"/><stop offset="100%" stop-color="#d4d4d4"/></linearGradient><linearGradient id="c" x1="50%" x2="50%" y1="0%" y2="100%"><stop offset="0%" stop-color="#493630"/><stop offset="100%" stop-color="#231916"/></linearGradient><filter id="a" width="128.6%" height="128.6%" x="-14.3%" y="-14.3%" filterUnits="objectBoundingBox"><feOffset dy="2" in="SourceAlpha" result="shadowOffsetOuter1"/><feGaussianBlur in="shadowOffsetOuter1" result="shadowBlurOuter1" stdDeviation="2"/><feColorMatrix in="shadowBlurOuter1" result="shadowMatrixOuter1" values="0 0 0 0 0 0 0 0 0 0 0 0 0 0 0 0 0 0 0.2 0"/><feMerge><feMergeNode in="shadowMatrixOuter1"/><feMergeNode in="SourceGraphic"/></feMerge></filter></defs><g fill="none" fill-rule="evenodd" filter="url(#a)" transform="translate(6 6)"><circle cx="42" cy="42" r="42" fill="url(#b)"/><path fill="url(#c)" d="M33.263 56.758c1.422.714 2.252 1.149 3.096 1.551 4.478 2.14 4.851 2.755 2.61 7.25-1.17 2.34-3.089 4.306-4.667 6.441l-1.04-.493zm-1 .21v14.965c-4.2-2.59-6.268-6.066-6.668-10.512-.059-.63.725-1.599 1.373-1.976 1.548-.901 3.247-1.543 5.295-2.477M33.109 0c6.11 5.31 10.48 11.462 12.609 19.032.916 3.256 1.145 6.7 1.93 9.999.297 1.24 1.007 2.738 2.005 3.4 8.361 5.534 13.782 13.131 16.647 22.683.695 2.322.186 3.43-2.293 4.06-9.992 2.54-19.664 1.819-28.895-2.76-1.996-.99-3.346-.824-5.185.097-8.864 4.449-18.125 4.917-27.669 2.551-2.232-.554-2.594-1.54-2.01-3.625C3.051 45.39 8.62 37.327 17.323 31.566c1.615-1.07 2.236-2.124 2.317-4.035C20.107 16.529 24.897 7.61 33.109 0m.193 11.176c-.896.019-1.8.785-3.196 2.295-3.53 3.822-4.785 8.668-6.126 13.514-.9 3.251-.197 5.887 2.205 8.113 1.6 1.483 3.296 2.864 5.27 4.567q-.493.057-.953.07l-.303.005c-4.292 0-6.49-2.8-8.44-5.902l-.146-.233C15.47 37.31 11.521 42.4 9.583 49.023c-1.054 3.604-.767 4.14 2.989 5.06 1.529.373 3.04.528 4.537.527l.5-.006c3.489-.083 6.914-.982 10.354-1.91 2.914-.785 4.668-2.475 5.419-5.24.535-1.97.898-3.988 1.307-6.016l.21-1.014c2.6 3.172 2.557 5.051-.311 11.232 4.232 2.312 8.562 3.501 13.04 3.474l.464-.008c2.322-.057 4.684-.441 7.094-1.165 2.176-.654 2.483-1.818 1.98-3.825-1.654-6.601-6.197-11.068-11.24-15.06-.664-.525-1.724-.745-2.782-.767l-.264-.002a9 9 0 0 0-1.506.144c-2.377.446-4.665 1.353-7.327 2.223l-.622.2c2.116-4.537 5.8-5.425 10.08-5.427.158-7.159-2.427-13.03-7.057-18.07-1.303-1.42-2.172-2.15-3.03-2.195zm29.32 11.852c-.165 5.546-2.601 9.25-6.79 12.103-2-1.39-3.96-2.753-6.24-4.34 4.402-2.624 8.553-5.096 13.03-7.763M4.48 22.076l13.254 7.567-6.107 4.416C7.418 31.524 5 27.845 4.481 22.076m57.638.171-13.124 7.737c-.278-2.52-.627-4.402-.617-6.283.003-.675.726-1.671 1.373-1.965 3.886-1.762 7.799-1.694 12.368.511m-43.343-.921-.517 7.448-12.912-7.253c3.992-2.846 8.57-2.87 13.43-.195" transform="translate(8.5 4.253)"/></g></svg>