<svg xmlns="http://www.w3.org/2000/svg" xmlns:xlink="http://www.w3.org/1999/xlink" viewBox="0 0 96 96"><defs><linearGradient id="b" x1="50%" x2="50%" y1=".372%" y2="100%"><stop offset="0%" stop-color="#ff8181"/><stop offset="100%" stop-color="#ff2a2a"/></linearGradient><linearGradient id="c" x1="-.014%" x2="99.987%" y1="49.997%" y2="49.997%"><stop offset="0%" stop-color="#01b0ff" stop-opacity="0"/><stop offset="50%" stop-color="#01b0ff"/><stop offset="100%" stop-color="#01a6ff"/></linearGradient><linearGradient id="d" x1="-.027%" x2="99.966%" y1="50%" y2="50%"><stop offset="0%" stop-color="#86ff01"/><stop offset="50%" stop-color="#86ff01"/><stop offset="100%" stop-color="#86ff01" stop-opacity="0"/></linearGradient><linearGradient id="e" x1="2.853%" x2="97.366%" y1="52.412%" y2="47.152%"><stop offset="0%" stop-color="#fff" stop-opacity="0"/><stop offset="75%" stop-color="#fff" stop-opacity=".649"/><stop offset="100%" stop-color="#fff" stop-opacity="0"/></linearGradient><filter id="a" width="125.1%" height="133%" x="-12.6%" y="-16.5%" filterUnits="objectBoundingBox"><feOffset dy="2" in="SourceAlpha" result="shadowOffsetOuter1"/><feGaussianBlur in="shadowOffsetOuter1" result="shadowBlurOuter1" stdDeviation="2"/><feColorMatrix in="shadowBlurOuter1" result="shadowMatrixOuter1" values="0 0 0 0 0 0 0 0 0 0 0 0 0 0 0 0 0 0 0.2 0"/><feMerge><feMergeNode in="shadowMatrixOuter1"/><feMergeNode in="SourceGraphic"/></feMerge></filter></defs><g fill="none" filter="url(#a)" transform="translate(0 12)"><path fill="url(#b)" d="M53.982 7.918a1 1 0 0 0-.155.01c-1.172.131-2.76 2.086-3.501 5.171-.607 2.53-1.772 5.442-2.573 6.459-1.154 1.461-1.744.812-2.77-3.042l-1.314-4.9-.72 5.048v45.243l.72 2.718 2.132-3.868c1.955-3.494 2.238-3.621 2.824-1.313.356 1.401 1.486 2.35 2.491 2.11 2.5-.6 5.58 2.482 5.828 5.831.148 2.008.72 1.405 2.145-2.21 1.903-4.831 1.977-4.88 2.725-1.658.642 2.746.833 2.53 1.027-1.416.127-2.615.85-4.489 1.645-4.14.798.346 1.69-.49 1.994-1.867.226-1.023.801-.127 1.398 2.023V17.398c-.029.106-.053.183-.082.296-1.04 3.83-1.03 3.798-3.158-2.767L62.495 8.31l-1.606 6.067c-1.411 5.304-1.722 5.619-2.188 2.484-.296-1.976-1.193-3.585-1.994-3.585s-1.468-1.267-1.468-2.835c0-1.725-.53-2.509-1.257-2.523"/><path fill="url(#c)" d="m27.17 1.72-.346 9.932c-.237 6.893-.795 9.434-1.843 8.287-.83-.914-1.535-3.145-1.563-4.97-.036-2.4-.392-2.865-1.412-1.725-1.055 1.182-1.581.77-2.09-1.659-.402-1.924-.772-.787-.928 2.827-.332 7.814-3.212 11.555-3.406 4.415-.098-3.72-.487-4.411-1.45-2.756-.957 1.634-1.433.632-1.857-3.868l-.54-6.067-1.8 3.857-1.8 3.868-.137-4.143C7.885 6.432 6.91 5.193 5.989 5.86v60.36a6 6 0 0 0 .307-.462c1.045-1.722 1.455-1.112 1.744 2.77.36 4.825.367 4.772 1.37-1.658.568-3.646 1.185-5.143 1.355-3.318.29 3.099.413 3.177 2.188 1.108 1.045-1.214 2.728-3.95 3.71-6.077l1.8-3.865.331 5.523c.31 4.913.452 5.157 1.51 2.21.654-1.821 1.31-2.693 1.412-1.934.103.759 1.017 1.253 2.048 1.101 1.125-.166 2.258 1.62 2.823 4.415 1.313 6.466 3.081 7.19 3.212 1.317.113-5.016 2.64-11.47 2.866-7.313.06 1.097.804 1.68 1.662 1.306.858-.378 1.641.5 1.701 1.902.103 2.41.148 2.393 1.412.307 1.172-1.934 1.394-1.79 1.705 1.108.254 2.404.635 1.797 1.411-2.21 1.02-5.283 1.12-5.149 1.606 3.308.22 3.868.544 5.95.844 5.665V9.6c-.3-2-.49-.515-.844 5.369-.511 8.484-.582 8.611-1.606 3.31-.811-4.19-1.143-4.722-1.468-2.21l-.43 3.308-1.218-3.307-1.175-3.307-.194 3.857c-.16 2.926-.6 3.463-1.744 2.206-1.172-1.28-1.546-.907-1.705 1.66-.116 1.884-.522 2.484-.924 1.386-.392-1.066-1.334-1.934-2.093-1.934-.76 0-1.606-4.101-1.896-9.11z"/><path fill="url(#d)" d="M75.296.958c-.12.018-.211 2.718-.402 8.453-.314 9.603-.625 10.81-2.478 9.078-1.591-1.49-2.368-1.635-2.975-.558-.448.79-.942.173-1.122-1.345-.17-1.443-.357-1.86-.692-1.15v45.458c1.38 7.017 1.39 7.01 2.255 2.386 1.133-6.06 4.31-4.86 5.15 1.934.515 4.14.66 3.812.886-2.071.236-6.117.543-6.89 2.576-5.693 1.285.755 2.446 2.682 2.573 4.28.222 2.743.293 2.711 1.027-.423.77-3.296.773-3.296 1.853-.55.999 2.537 1.281 2.357 3.212-2.21 1.743-4.126 2.195-4.5 2.63-2.206 1.09 5.732 2.078 7.818 3.543 7.176.833-.364 1.602 0 1.662.794.032.402.212.501.47.342V4.441c-.406.766-.745 1.956-.915 3.583-.307 3.032-1.178 4.595-2.435 4.419-1.334-.19-2.008 1.553-2.188 5.527-.215 4.768-.367 5.064-.872 1.659-.335-2.277-1.203-4.144-1.952-4.144s-1.676-1.373-2.033-3.042c-.356-1.67-.758-.173-.885 3.317-.262 7.087-2.45 8.453-4.028 2.485-.568-2.142-1.662-3.621-2.438-3.279-.784.343-1.656-3.247-1.952-8.012-.244-3.935-.364-6.01-.47-5.996"/><path fill="#000" d="M92.862 64.346v-.628c-.074.021-.151.018-.222.05a.6.6 0 0 1-.261.066c-.06 0-.12-.024-.223-.088-.204-.123-.504-.455-.776-1.01-.544-1.111-1.062-3.06-1.606-5.918-.11-.582-.215-.995-.388-1.288-.085-.145-.177-.304-.484-.37a.9.9 0 0 0-.455.027.9.9 0 0 0-.279.166c-.29.244-.5.607-.8 1.2-.3.59-.657 1.39-1.095 2.425-.484 1.14-.854 2.001-1.161 2.608-.272.533-.473.784-.583.893-.158-.219-.367-.663-.61-1.285-.268-.684-.477-1.207-.65-1.56a2 2 0 0 0-.264-.423.7.7 0 0 0-.22-.177.82.82 0 0 0-.51-.038c-.33.098-.347.236-.417.374-.07.137-.13.314-.194.53-.131.433-.265 1.05-.456 1.873-.06.247-.092.353-.14.561-.004-.049-.012-.06-.015-.109-.134-1.687-1.257-3.632-2.725-4.496-.53-.311-.96-.548-1.51-.548a1.3 1.3 0 0 0-.749.233 1.4 1.4 0 0 0-.413.562c-.405.907-.518 2.611-.638 5.671-.025.7-.057 1.07-.082 1.613-.218-1.493-.536-2.735-.942-3.642-.448-1.006-.932-1.673-1.673-1.955a1.73 1.73 0 0 0-1.207.02c-.367.153-.653.41-.91.756-.52.695-.932 1.782-1.222 3.318-.18.963-.303 1.588-.427 2.121-.046-.177-.088-.304-.137-.53-.209-.907-.46-2.223-.805-3.977v-3.604l-.014-.028c-.254-.776-.459-1.285-.748-1.599a.7.7 0 0 0-.318-.215c-.17-.06-.47-.039-.607.05-.282.172-.279.345-.335.585-.142.653-.442 1.172-.731 1.444a.9.9 0 0 1-.374.226c-.088.024-.124.024-.222-.018a1.1 1.1 0 0 0-.664-.06 1.1 1.1 0 0 0-.498.265c-.25.23-.413.536-.568.932-.314.794-.533 1.934-.596 3.26-.032.657-.064 1.06-.096 1.511-.017-.06-.028-.074-.042-.137-.187-.805-.332-1.405-.484-1.807-.077-.202-.137-.357-.292-.502a.7.7 0 0 0-.403-.176.8.8 0 0 0-.483.11c-.205.126-.293.26-.413.462a7 7 0 0 0-.389.773c-.292.646-.66 1.563-1.136 2.77-.353.9-.646 1.606-.9 2.128-.13.276-.201.343-.304.512-.024-.144-.056-.173-.07-.374-.127-1.736-.974-3.385-2.146-4.553-.582-.586-1.256-1.059-1.976-1.345-.724-.289-1.525-.388-2.288-.208-.285.07-.624-.017-1.009-.342s-.734-.875-.9-1.532c-.148-.582-.279-1.01-.441-1.316-.085-.152-.159-.28-.36-.392a.9.9 0 0 0-.402-.099.9.9 0 0 0-.375.088c-.398.184-.578.473-.9.953a34 34 0 0 0-1.203 2.023l-1.564 2.837-.374-1.422-.886.056v2.976c-.098-1.705-.183-3.212-.264-4.183a20 20 0 0 0-.152-1.334c-.05-.335-.081-.554-.166-.727a.5.5 0 0 0-.095-.138.58.58 0 0 0-.389-.155.6.6 0 0 0-.402.127c-.06.05-.085.096-.11.138-.105.166-.169.36-.25.667-.166.614-.367 1.602-.621 2.926-.194.999-.353 1.779-.501 2.354-.007-.06-.018-.064-.025-.127-.078-.727-.152-1.281-.236-1.687a3 3 0 0 0-.152-.512c-.06-.141-.103-.258-.279-.374a.77.77 0 0 0-.745-.039c-.183.085-.279.18-.388.304-.222.25-.452.614-.748 1.1-.219.36-.364.566-.512.795a19 19 0 0 1-.056-.992c-.032-.741-.244-1.352-.622-1.775a1.5 1.5 0 0 0-.748-.473 1.63 1.63 0 0 0-1.01.088.6.6 0 0 1-.32.07.44.44 0 0 1-.247-.109c-.191-.148-.389-.508-.417-1.009-.028-.533-.092-.904-.208-1.168a.68.68 0 0 0-.275-.353c-.163-.106-.505-.13-.692-.06-.378.137-.477.342-.653.628-.173.286-.339.66-.512 1.101-.688 1.754-1.355 4.63-1.412 7.175-.031 1.455-.166 2.496-.36 3.11a1.5 1.5 0 0 1-.233.483c-.06-.049-.106-.08-.208-.236a5.4 5.4 0 0 1-.498-1.002c-.345-.865-.698-2.104-1.027-3.71-.285-1.419-.723-2.587-1.245-3.406-.262-.41-.533-.74-.872-.974-.336-.23-.78-.37-1.232-.303-.794.116-1.444-.23-1.521-.823a.7.7 0 0 0-.099-.307.46.46 0 0 0-.166-.166.8.8 0 0 0-.374-.088c-.258.01-.367.113-.455.187a1.4 1.4 0 0 0-.237.254c-.293.403-.62 1.08-.953 2.005-.159.441-.257.653-.374.942-.014-.098-.032-.155-.042-.268a63 63 0 0 1-.223-2.816l-.331-5.527-.858-.089-1.8 3.869c-.97 2.1-2.668 4.845-3.667 6.007-.445.515-.79.903-1.027 1.111-.021.018-.021.011-.039.029a2 2 0 0 1-.099-.353c-.074-.392-.134-.974-.208-1.747a3.5 3.5 0 0 0-.095-.572c-.04-.148-.018-.25-.25-.402-.114-.075-.407-.113-.566-.057-.162.053-.215.12-.264.177-.1.112-.156.229-.223.391-.268.653-.557 1.941-.843 3.77-.081.53-.13.811-.194 1.196v4.105c.02-.021.084-.042.099-.06.067-.085.08-.152.109-.237.028-.08.053-.173.081-.293.06-.24.12-.571.194-.991.149-.837.346-2.044.597-3.653.197-1.257.384-1.86.568-2.541.039.342.078.762.124 1.002.042.215.088.392.151.54.067.148.134.282.346.392a.89.89 0 0 0 .748.01c.184-.077.307-.183.46-.314.296-.265.631-.65 1.076-1.168 1.09-1.267 2.774-3.995 3.766-6.145l1.037-2.22.223 3.801a66 66 0 0 0 .222 2.835 9 9 0 0 0 .123.825c.046.216.071.367.166.512.05.07.124.166.332.226a.8.8 0 0 0 .554-.088c.198-.134.244-.25.332-.424.184-.346.388-.879.653-1.62.268-.751.519-1.21.734-1.56.378.674 1.338 1.109 2.393.953.113-.017.219 0 .43.145.209.145.46.41.692.776.466.731.883 1.864 1.162 3.24.331 1.624.691 2.891 1.051 3.798.18.455.367.812.554 1.09.187.28.35.488.664.618.159.064.388.096.582.05a.9.9 0 0 0 .43-.237c.202-.197.322-.455.428-.804.219-.696.356-1.758.388-3.24.057-2.471.713-5.333 1.37-7.017.165-.423.338-.77.487-1.013.046.187.102.357.123.717.032.6.24 1.083.65 1.404.204.163.469.283.776.314s.632-.031.914-.155c.124-.056.166-.05.237-.032a.7.7 0 0 1 .303.216c.24.271.455.8.484 1.464.024.604.042 1.052.084 1.373.018.163.053.29.096.403a.5.5 0 0 0 .099.176.5.5 0 0 0 .317.177.74.74 0 0 0 .441-.05.6.6 0 0 0 .194-.134c.103-.095.18-.198.28-.335.193-.276.444-.667.758-1.19a9 9 0 0 1 .568-.843c.022.07.036.116.057.208.077.374.145.925.222 1.648.064.607.13 1.013.233 1.285.028.067.05.134.099.198.046.063.123.148.332.194a.73.73 0 0 0 .526-.096.6.6 0 0 0 .165-.176c.156-.247.28-.618.428-1.207q.225-.891.515-2.397c.159-.836.265-1.277.385-1.824l.028.282c.095 1.115.183 2.707.307 4.821.11 1.938.25 3.434.399 4.416.074.49.148.843.236 1.09.042.124.064.219.18.335a.58.58 0 0 0 .402.156.6.6 0 0 0 .428-.156l.084-.08v-6.025l.067.264.569-1.02 2.131-3.868c.487-.872.876-1.528 1.18-1.983.221-.336.33-.428.426-.52.11.22.24.594.374 1.127.19.748.576 1.38 1.094 1.817.52.438 1.25.703 1.966.53.49-.117 1.013-.06 1.578.166.565.225 1.161.631 1.687 1.16 1.059 1.056 1.864 2.62 1.98 4.229.039.515.088.85.236 1.112a.56.56 0 0 0 .166.194.7.7 0 0 0 .417.127c.335-.004.466-.145.579-.265.23-.236.434-.593.695-1.136a36 36 0 0 0 .925-2.17c.476-1.208.84-2.115 1.122-2.74a8 8 0 0 1 .304-.607c.127.35.268.89.444 1.648.16.689.283 1.193.4 1.522.06.162.101.271.207.391.057.064.152.191.43.198a.64.64 0 0 0 .333-.088.4.4 0 0 0 .123-.12c.103-.134.12-.24.152-.41q.054-.253.099-.66c.056-.54.102-1.298.152-2.287.063-1.288.275-2.4.554-3.109.14-.357.314-.61.43-.717.04-.038.05-.038.053-.042.286.11.639.134.928.06.315-.081.562-.24.777-.441.353-.332.6-.815.773-1.373.123.24.24.395.388.844v3.61c.346 1.754.607 3.067.815 3.985.106.462.205.819.293 1.09.085.272.13.442.29.611.042.042.091.092.194.138.102.042.282.06.416.028.269-.06.307-.173.36-.254.106-.166.173-.36.247-.639.152-.561.31-1.426.526-2.584.283-1.493.7-2.527 1.123-3.102.211-.286.423-.448.568-.508s.197-.057.346 0c.296.11.826.639 1.246 1.581.42.939.773 2.273.98 3.953q.195 1.558.333 2.27c.049.236.077.388.14.518a.4.4 0 0 0 .068.11c.042.045.127.148.36.165a.6.6 0 0 0 .307-.06.5.5 0 0 0 .137-.095c.05-.056.053-.085.068-.12.06-.137.08-.29.112-.53a17 17 0 0 0 .082-.952c.056-.798.11-1.924.166-3.395.12-3.057.282-4.8.596-5.506a.85.85 0 0 1 .222-.325c.053-.042.053-.028.096-.028.088 0 .455.116.942.402 1.101.646 2.287 2.552 2.407 4.052.057.688.102 1.203.155 1.553.025.173.057.3.096.413.02.053.02.095.095.176a.5.5 0 0 0 .236.127.73.73 0 0 0 .403-.02c.19-.079.2-.142.236-.195a1 1 0 0 0 .081-.17c.05-.123.11-.285.166-.49.117-.41.261-1.002.445-1.786.187-.808.321-1.408.441-1.814.145.318.307.713.54 1.302.25.64.455 1.105.692 1.426.12.159.233.304.498.392a.92.92 0 0 0 .805-.116c.363-.251.564-.629.885-1.257.318-.632.706-1.507 1.19-2.65a38 38 0 0 1 1.08-2.386c.2-.4.317-.54.444-.706.074.204.156.413.233.833.547 2.873 1.073 4.842 1.663 6.045.293.604.596 1.024 1.023 1.289.215.13.47.211.748.226.19.007.364-.057.54-.11m-83-53.788v2.005l1.453-3.124 1.066-2.315.403 4.447c.211 2.255.412 3.618.748 4.316a1 1 0 0 0 .346.434.8.8 0 0 0 .346.138c.148.021.314 0 .427-.039.229-.08.345-.2.473-.346q.184-.216.374-.54c.127-.222.18-.254.275-.37.063.194.145.388.194.805.064.55.099 1.291.124 2.216.049 1.8.24 2.912.596 3.533.088.159.187.286.332.395a1.04 1.04 0 0 0 1.19-.02c.144-.1.25-.22.36-.364.447-.58.84-1.571 1.164-2.926.325-1.356.565-3.067.65-5.033.049-1.126.137-1.529.222-2.143.074.286.151.622.236.837.145.381.279.656.537.861.13.106.314.198.53.219a1.2 1.2 0 0 0 .578-.099c.325-.141.565-.374.843-.688.173-.19.265-.254.36-.325.05.102.113.208.156.473q.073.52.08 1.412c.015.939.21 1.976.499 2.897.292.922.663 1.73 1.136 2.249.155.17.318.314.607.38a1 1 0 0 0 .473-.017.9.9 0 0 0 .346-.187c.332-.3.455-.741.607-1.433.31-1.387.505-3.745.625-7.196l.014-.59c.148 2.418.427 4.62.762 6.233.173.837.364 1.514.565 2.005.102.243.194.438.321.596.06.082.134.152.233.22a.85.85 0 0 0 .445.126c.14 0 .494.13.83.441.334.311.648.763.828 1.257.11.293.173.483.417.656.06.043.145.085.265.11a.8.8 0 0 0 .37-.021c.22-.067.286-.17.35-.265.25-.374.342-.967.398-1.924q.06-.953.166-1.493c.06-.289.13-.416.18-.5.124.08.297.225.54.49.304.332.55.561.9.699.177.067.417.106.64.05a.86.86 0 0 0 .469-.304c.197-.251.289-.572.374-1.031.084-.459.14-1.052.18-1.79l.08-1.648.417 1.169 1.218 3.307.872-.05.43-3.307c.018-.137.036-.155.057-.275.003.028.007.025.01.05.149.592.311 1.4.516 2.445.254 1.324.459 2.319.62 2.933.082.31.135.515.237.678a.4.4 0 0 0 .11.127c.06.053.197.134.402.13a.6.6 0 0 0 .388-.148.5.5 0 0 0 .096-.137c.084-.173.13-.392.18-.728s.091-.78.137-1.344c.085-.981.173-2.481.28-4.21v.656l.885.031v-.031l.36-2.482.748 2.785c.516 1.934.868 3.043 1.398 3.625.13.145.286.272.512.342s.511.057.72-.017c.413-.152.653-.424.953-.809.444-.56.928-1.546 1.397-2.728a29 29 0 0 0 1.236-3.826c.363-1.517.938-2.76 1.549-3.614.303-.427.614-.752.9-.97.286-.223.536-.318.678-.336a.4.4 0 0 0 .07-.01c.07.003.12.02.205.08a.9.9 0 0 1 .293.343c.19.353.332.95.332 1.786 0 .815.165 1.56.455 2.121.148.28.328.512.554.696.23.187.536.335.9.335-.007 0 .102.021.265.166.159.144.339.38.511.688.34.61.632 1.493.773 2.453.12.787.23 1.352.36 1.719.067.183.078.32.322.47.12.077.391.123.564.07a.7.7 0 0 0 .321-.205c.248-.282.385-.699.622-1.436.236-.735.533-1.755.886-3.082L63.5 9.203l1.663 5.146c.497 1.542.882 2.724 1.189 3.582.31.858.512 1.37.776 1.687a.7.7 0 0 0 .262.215.9.9 0 0 0 .568.05c.353-.103.388-.269.483-.452.194-.364.364-.935.583-1.726v-.745c.08.276.187.501.331.674a.8.8 0 0 0 .308.237.88.88 0 0 0 .55.039c.357-.092.466-.28.597-.509.137-.247.278-.402.374-.462s.106-.053.222-.028c.23.042.84.388 1.62 1.119.24.222.448.41.678.547.23.141.49.268.83.247.338-.021.596-.208.747-.413.149-.201.254-.459.346-.794.364-1.348.505-4.041.664-8.845.024-.759.035-1.034.056-1.687.16 2.054.417 3.896.734 5.202.177.734.364 1.306.58 1.709.109.197.214.356.387.49a.88.88 0 0 0 .858.095c.007.004.057.011.127.05.138.078.335.265.54.54.406.55.83 1.436 1.105 2.485.399 1.507.833 2.555 1.302 3.208.237.328.463.568.805.71.339.14.826.102 1.119-.082.59-.363.875-1.045 1.15-2.1.272-1.055.46-2.485.526-4.27.046-1.232.152-1.843.247-2.513.184.55.396 1.069.667 1.475.198.293.406.536.65.723.243.191.536.346.914.346-.074 0 .05.01.208.187.159.173.328.456.498.812.339.72.639 1.74.8 2.859.128.854.24 1.482.336 1.874.046.198.067.318.138.441a.4.4 0 0 0 .081.11.56.56 0 0 0 .346.137.6.6 0 0 0 .416-.12c.06-.05.067-.092.085-.127.067-.13.092-.25.124-.452q.043-.295.08-.783a84 84 0 0 0 .153-2.76c.091-1.977.314-3.392.652-4.25.17-.43.364-.705.54-.843s.272-.155.47-.127a1.85 1.85 0 0 0 1.246-.268c.13-.082.208-.247.317-.36V9.83c-.098.3-.197.628-.317.847-.19.346-.41.575-.597.695-.183.12-.3.145-.483.117-.47-.064-.957.067-1.288.324-.329.262-.558.622-.745 1.102-.378.96-.59 2.4-.681 4.397-.022.54-.043.82-.067 1.246-.177-.995-.438-1.913-.763-2.601-.183-.392-.384-.717-.607-.964-.226-.247-.497-.469-.942-.469.003 0-.095-.018-.25-.138a2.6 2.6 0 0 1-.513-.578c-.345-.516-.656-1.253-.829-2.062a3 3 0 0 0-.152-.522 1 1 0 0 0-.099-.176c-.038-.057-.074-.131-.218-.195-.149-.067-.46-.049-.583.018-.127.07-.159.13-.194.187-.074.113-.123.24-.166.402-.173.65-.296 1.889-.36 3.643-.063 1.761-.254 3.166-.511 4.172-.262 1.005-.671 1.62-.858 1.736-.095.06-.021.053-.099.021s-.261-.18-.455-.452c-.396-.547-.83-1.567-1.218-3.042-.29-1.094-.716-2.022-1.193-2.661-.236-.321-.483-.565-.787-.738a1.4 1.4 0 0 0-.526-.176c-.127-.014-.25.025-.374.05a1 1 0 0 1-.18-.244c-.176-.325-.367-.88-.54-1.592-.35-1.43-.642-3.508-.79-5.88-.12-1.97-.216-3.473-.29-4.486-.039-.505-.067-.886-.099-1.147-.014-.13-.02-.226-.039-.307-.01-.039-.024-.07-.042-.117-.01-.02-.01-.049-.056-.098A.4.4 0 0 0 76.5.054a.64.64 0 0 0-.332-.049c-.282.039-.307.148-.332.187a.4.4 0 0 0-.042.078 1 1 0 0 0-.028.137c-.014.1-.028.23-.042.403-.029.353-.05.875-.082 1.57a579 579 0 0 0-.236 6.37c-.159 4.804-.318 7.526-.65 8.747-.084.307-.183.512-.264.621-.078.106-.085.081-.04.078.043-.004-.024 0-.168-.089a4 4 0 0 1-.551-.451c-.815-.76-1.398-1.222-2.107-1.356-.353-.067-.752 0-1.024.166-.24.152-.402.37-.554.621-.113-.222-.257-.564-.332-1.178-.084-.728-.148-1.165-.317-1.462-.043-.077-.07-.166-.237-.247a.7.7 0 0 0-.346-.06.7.7 0 0 0-.289.081c-.258.145-.268.276-.36.47l-.028.05v2.904c-.166.6-.31.964-.427 1.256-.141-.254-.276-.504-.501-1.129-.304-.843-.689-2.019-1.19-3.561l-2.146-6.618-.857.01-1.606 6.068a67 67 0 0 1-.872 3.053c-.102.31-.138.335-.222.54-.07-.31-.145-.565-.223-1.08-.148-1.013-.448-1.934-.83-2.623a3.2 3.2 0 0 0-.649-.843c-.243-.219-.547-.402-.956-.402-.035 0-.113-.007-.236-.11a1.7 1.7 0 0 1-.385-.508c-.244-.466-.403-1.15-.403-1.906 0-.882-.13-1.539-.388-2.012a1.56 1.56 0 0 0-.497-.579 1.54 1.54 0 0 0-.805-.247c-.102 0-.177.015-.233.022-.445.049-.826.24-1.193.518a5.4 5.4 0 0 0-1.052 1.12c-.663.931-1.242 2.223-1.62 3.79a28 28 0 0 1-1.203 3.759c-.463 1.16-.97 2.15-1.327 2.6-.269.34-.509.516-.569.54-.014-.006-.035-.017-.098-.087-.311-.343-.76-1.486-1.271-3.406l-1.316-4.9-.664.022V8.92a7 7 0 0 0-.113-.61 1 1 0 0 0-.067-.194c-.025-.06-.021-.106-.152-.209a.6.6 0 0 0-.416-.106.5.5 0 0 0-.318.145c-.085.088-.092.134-.113.198a3 3 0 0 0-.11.501c-.133.879-.264 2.721-.44 5.665-.131 2.117-.226 3.71-.322 4.828-.007.099-.017.145-.028.236-.116-.547-.215-.97-.37-1.785a53 53 0 0 0-.526-2.485c-.156-.607-.265-.978-.43-1.228-.043-.064-.075-.117-.18-.187a.7.7 0 0 0-.583-.057c-.18.064-.22.141-.261.205a1 1 0 0 0-.113.197c-.106.283-.18.72-.262 1.356l-.194 1.52-.582-1.57-1.175-3.31-.872.07-.194 3.858c-.039.727-.088 1.302-.166 1.726-.074.395-.187.635-.265.748a2.3 2.3 0 0 1-.497-.423c-.304-.332-.544-.569-.844-.728a1.1 1.1 0 0 0-.568-.137.93.93 0 0 0-.554.236c-.226.223-.293.49-.374.883q-.117.591-.18 1.563c-.036.575-.117.752-.195 1.048a3.8 3.8 0 0 0-.843-1.207c-.385-.353-.844-.61-1.384-.656V19c-.003-.004-.024-.011-.056-.05a2 2 0 0 1-.247-.47c-.18-.437-.357-1.097-.526-1.916-.342-1.634-.632-3.904-.776-6.399l-.54-9.092v-.017h-.886v.017l-.346 9.918c-.117 3.441-.318 5.795-.61 7.115-.131.593-.308.907-.4 1.031-.014-.014 0-.004-.014-.021-.356-.388-.748-1.161-1.027-2.04-.275-.879-.455-1.874-.47-2.76a11 11 0 0 0-.095-1.472c-.056-.381-.112-.65-.292-.872a.78.78 0 0 0-.47-.275 1 1 0 0 0-.582.078c-.304.137-.52.345-.787.649-.244.272-.452.427-.54.47-.07-.057-.233-.251-.36-.59-.13-.342-.25-.822-.374-1.422a6 6 0 0 0-.166-.6c-.053-.16-.092-.272-.194-.392-.053-.06-.127-.148-.332-.187a.7.7 0 0 0-.512.12c-.166.134-.176.23-.222.37-.187.569-.31 1.74-.389 3.555-.08 1.94-.32 3.628-.635 4.948-.317 1.32-.727 2.287-1.066 2.728a1.4 1.4 0 0 1-.166.187c-.031-.032-.067-.053-.113-.127-.25-.441-.49-1.539-.54-3.31a26 26 0 0 0-.137-2.256c-.067-.575-.141-.967-.29-1.25-.077-.137-.162-.282-.416-.37a.84.84 0 0 0-.417-.032.9.9 0 0 0-.303.131c-.31.194-.484.473-.734.9a3 3 0 0 1-.29.413c-.01-.014-.007-.01-.014-.028-.25-.52-.494-1.91-.706-4.154l-.54-6.064-.857-.081-1.8 3.857z"/><path fill="url(#e)" d="M67.818 22.05c-.113.02.031 1.073.346 3.303.522 3.734.317 4.243-1.656 3.826-1.697-.356-2.463-.31-2.972.187-.37.364-.914.194-1.224-.367-.293-.53-.516-.663-.784-.346l.25 1.098c-.582 1.33-.733 1.214-3.236-.89l-2.682-2.255-1.059 2.552c-.928 2.23-1.203 2.393-1.934 1.25-.462-.717-1.49-1.215-2.28-1.105-.79.106-1.553-.29-1.69-.893-.149-.664-.742-.893-1.458-.801l-.152.024c-1.143.208-2.53 1.176-2.993 2.464-.381 1.055-1.278 2.333-1.98 2.83-1.006.72-1.645.547-2.99-.794l-1.718-1.704-.247 1.877-.583-2.562c-.469-.727-.529-.13-.367 2.181.233 3.328.184 3.388-1.288 1.486-1.161-1.5-1.535-1.659-1.637-.65l-.135 1.331-1.493-1.108-1.44-1.112.142 1.51c.098 1.148-.29 1.412-1.525 1.084-1.264-.335-1.595-.141-1.528.868.05.742-.31 1.027-.805.66-.476-.356-1.472-.564-2.22-.462s-1.941-1.359-2.661-3.247l-1.324-3.427.526 3.865c.367 2.682.039 3.734-1.09 3.434-.9-.237-1.793-.999-1.977-1.698-.243-.918-.639-1.048-1.539-.473-.939.6-1.496.512-2.21-.353-.56-.684-.829-.197-.666 1.21.353 3.054-2.15 4.878-2.961 2.16-.42-1.418-.869-1.63-1.673-.864-.798.759-1.356.438-2.16-1.235l-1.063-2.259-1.433 1.726-1.447 1.733-.49-1.574C1.916 33.28.847 32.934 0 33.316l5.252 23.209c.084-.067.162-.138.25-.219.883-.805 1.345-.625 1.97.83.773 1.803.773 1.785 1.203-.826.244-1.476.72-2.136 1.045-1.458.558 1.154.678 1.165 2.248.13.925-.606 2.34-1.888 3.12-2.837l1.447-1.733.805 2.082c.734 1.846.896 1.92 1.68.643.487-.787 1.059-1.21 1.225-.936.166.28 1.1.346 2.103.149 1.094-.216 2.365.317 3.166 1.316 1.853 2.308 3.667 2.344 3.286.07-.325-1.944 1.592-4.767 2.178-3.2.155.416.942.536 1.754.278.812-.26 1.655-.031 1.835.502.314.91.357.9 1.419-.075.985-.9 1.221-.878 1.779.195.462.889.783.603 1.2-1.042.547-2.17.65-2.128 1.863 1.06.554 1.453 1.056 2.209 1.327 2.06l-.811-3.582.871.879 1.761-1.775c1.62-1.61 1.889-1.698 2.665-.89.473.49 1.67.703 2.64.473 2.41-.568 5.707.201 6.24 1.454.321.752.84.441 1.927-1.14 1.454-2.114 1.521-2.142 2.538-1.006.868.967 1.041.862.89-.684-.103-1.024.444-1.84 1.256-1.814.815.028 1.623-.417 1.803-.989.117-.363.607-.215 1.232.304l.318 1.387c1.966 2.513 1.983 2.506 2.431.61.59-2.48 3.823-2.449 5.242.046.864 1.525.977 1.38.688-.914-.3-2.386-.067-2.72 2.036-2.537 1.33.116 2.647.702 2.916 1.295.455 1.027.522 1.006.97-.3.473-1.37.477-1.373 1.78-.462 1.203.84 1.464.734 2.967-1.285 1.36-1.821 1.776-2.026 2.404-1.204 1.574 2.054 2.725 2.725 4.112 2.28.787-.254 1.57-.219 1.697.081.064.152.254.163.498.068l-5.238-23.153c-.332.349-.568.854-.59 1.503-.042 1.207-.762 1.927-2.018 2.03-1.33.105-1.839.868-1.67 2.417.205 1.864.078 1.998-.712.759-.53-.833-1.546-1.43-2.284-1.33-.734.102-1.765-.3-2.262-.894-.498-.596-.77.036-.59 1.395.36 2.76-1.676 3.582-3.751 1.5-.745-.745-1.949-1.165-2.686-.929-.738.237-1.913-1.027-2.62-2.816-.581-1.482-.885-2.262-.987-2.241"/><path fill="#fff" d="M7.938 36.429v2.004l1.454-3.123 1.066-2.316.398 4.447c.216 2.256.413 3.622.749 4.32.084.173.176.311.346.431.088.06.197.117.345.138.149.02.315 0 .431-.04.23-.08.346-.2.47-.345.127-.141.25-.325.374-.54.13-.222.18-.254.278-.37.064.194.145.388.195.804.063.55.098 1.292.123 2.217.05 1.8.24 2.911.593 3.536.092.155.187.282.335.392a1.035 1.035 0 0 0 1.19-.021 1.6 1.6 0 0 0 .36-.364c.448-.579.84-1.567 1.16-2.922.326-1.356.57-3.07.654-5.037.046-1.126.137-1.524.219-2.139.074.286.155.618.236.833.145.382.282.66.54.865.13.102.31.194.526.215.215.022.42-.028.582-.098.325-.142.565-.375.844-.689.173-.19.265-.25.36-.32.046.098.113.204.152.469.053.345.074.818.084 1.415.014.939.209 1.973.498 2.894s.66 1.73 1.133 2.248c.159.17.318.314.61.381a.96.96 0 0 0 .816-.204c.332-.3.455-.738.61-1.433.307-1.387.505-3.745.625-7.197l.01-.59c.152 2.419.428 4.624.763 6.237.173.833.367 1.514.568 2.002.1.243.194.44.318.6.063.077.134.148.236.215a.83.83 0 0 0 .442.127c.14 0 .497.13.833.441.335.31.649.766.829 1.257.11.292.173.483.416.656q.088.07.262.11c.12.024.268.014.374-.022.215-.067.282-.17.346-.264.25-.375.342-.968.402-1.924q.059-.953.166-1.493c.056-.29.13-.416.18-.498.12.078.296.223.54.491.3.328.55.558.9.695.173.07.413.106.635.05a.9.9 0 0 0 .473-.304c.198-.25.286-.572.37-1.03.085-.46.142-1.049.18-1.786l.085-1.652.417 1.168 1.217 3.31.872-.049.427-3.31c.018-.134.04-.156.057-.272l.014.046c.148.593.31 1.401.512 2.446.257 1.327.462 2.319.624 2.936.082.307.134.512.233.674a.6.6 0 0 0 .113.131c.06.05.194.13.4.127a.54.54 0 0 0 .387-.148.4.4 0 0 0 .1-.138c.084-.173.13-.388.18-.727.045-.335.09-.78.137-1.345.08-.977.173-2.48.275-4.21v.656l.886.032v-.032l.36-2.48.748 2.787c.515 1.934.872 3.043 1.398 3.621.134.145.286.272.512.343.225.074.515.056.72-.018.413-.148.653-.423.956-.805.445-.564.925-1.545 1.398-2.728a29 29 0 0 0 1.231-3.83c.368-1.517.943-2.76 1.55-3.613.307-.427.614-.752.9-.97.286-.22.54-.319.681-.336l.067-.007c.07 0 .12.017.208.077a.95.95 0 0 1 .29.343c.194.353.332.95.332 1.786 0 .818.165 1.56.458 2.12.145.283.325.513.554.7.226.183.533.331.9.331-.01 0 .103.025.262.166.158.145.342.381.511.689.343.614.632 1.492.777 2.452.116.791.23 1.352.36 1.72.063.183.078.32.318.472a.82.82 0 0 0 .568.067.62.62 0 0 0 .317-.204c.251-.283.385-.7.625-1.433a64 64 0 0 0 .886-3.085l1.218-4.581 1.658 5.142c.502 1.542.883 2.725 1.193 3.582.307.858.509 1.373.773 1.688a.8.8 0 0 0 .265.218.95.95 0 0 0 .568.05c.353-.106.389-.272.484-.452.19-.367.363-.939.582-1.73v-.744a1.9 1.9 0 0 0 .332.678.76.76 0 0 0 .303.232.9.9 0 0 0 .555.043c.353-.095.465-.283.596-.512.138-.247.275-.402.374-.462.095-.06.106-.05.219-.029.23.043.84.389 1.62 1.12a4.5 4.5 0 0 0 .678.55c.23.138.494.268.833.243a1 1 0 0 0 .744-.413c.152-.2.258-.455.346-.794.367-1.348.508-4.037.667-8.844.025-.76.032-1.034.053-1.687.163 2.054.417 3.9.734 5.202.18.734.364 1.306.583 1.708.11.201.211.36.388.49a.86.86 0 0 0 .374.156c.162.028.353 0 .484-.056.007 0 .056.01.123.049.138.074.335.265.54.54.41.547.83 1.433 1.108 2.481.4 1.507.83 2.555 1.303 3.212.233.325.458.565.8.706.343.141.83.102 1.123-.078.586-.363.875-1.045 1.147-2.103.276-1.056.463-2.485.526-4.267.046-1.236.155-1.846.25-2.513.184.547.392 1.066.664 1.471.198.293.41.537.653.727.24.188.533.343.91.343-.07 0 .05.014.209.187s.332.455.498.815c.338.72.638 1.737.804 2.855.127.855.24 1.483.332 1.875.046.197.067.317.138.44a.5.5 0 0 0 .084.11.54.54 0 0 0 .346.138.64.64 0 0 0 .417-.117c.056-.053.063-.095.081-.13.07-.13.095-.25.124-.452.031-.198.056-.459.084-.784.053-.649.1-1.563.152-2.76.088-1.972.314-3.391.65-4.249.169-.427.363-.706.54-.843.176-.138.271-.156.472-.128.445.064.904-.045 1.246-.264.13-.085.205-.25.318-.364v-1.648c-.102.296-.198.628-.318.844-.194.345-.413.578-.596.695-.184.12-.304.145-.484.12-.47-.067-.956.063-1.288.321-.332.261-.558.621-.748 1.101-.378.96-.586 2.4-.678 4.398-.025.543-.046.819-.07 1.246-.177-.996-.438-1.913-.76-2.601a3.9 3.9 0 0 0-.61-.964c-.226-.247-.494-.47-.942-.47.007 0-.096-.017-.247-.137a2.5 2.5 0 0 1-.512-.579c-.346-.515-.66-1.253-.833-2.061a3 3 0 0 0-.152-.522 1 1 0 0 0-.095-.177c-.042-.056-.074-.127-.222-.194s-.456-.05-.583.018c-.123.07-.155.13-.194.187-.07.116-.12.24-.166.402-.173.65-.293 1.888-.36 3.642-.063 1.762-.25 3.166-.512 4.172-.257 1.006-.667 1.62-.857 1.737-.095.06-.018.053-.095.02-.082-.03-.262-.18-.46-.45-.391-.548-.825-1.568-1.217-3.043-.29-1.094-.716-2.023-1.19-2.661-.236-.318-.486-.565-.79-.735a1.35 1.35 0 0 0-.526-.18c-.123-.014-.247.025-.374.05a1 1 0 0 1-.18-.244c-.176-.324-.363-.875-.54-1.591-.346-1.43-.642-3.509-.787-5.88-.124-1.966-.215-3.473-.293-4.486a26 26 0 0 0-.095-1.147 3 3 0 0 0-.043-.304.5.5 0 0 0-.042-.12c-.007-.021-.01-.05-.053-.099a.6.6 0 0 0-.138-.088.65.65 0 0 0-.335-.046c-.279.039-.307.145-.332.184a.3.3 0 0 0-.038.08c-.018.043-.022.09-.029.138a5 5 0 0 0-.042.403c-.028.35-.053.872-.085 1.57-.06 1.395-.14 3.502-.233 6.371-.158 4.8-.32 7.521-.653 8.746-.08.303-.183.512-.26.618s-.085.08-.043.077c.046-.003-.021 0-.166-.088a4 4 0 0 1-.554-.452c-.812-.759-1.398-1.221-2.104-1.355-.353-.064-.755 0-1.023.17-.24.148-.403.37-.554.617-.117-.222-.261-.561-.332-1.179-.088-.727-.152-1.161-.318-1.461-.042-.074-.07-.166-.236-.247a.74.74 0 0 0-.346-.057.7.7 0 0 0-.293.078c-.254.145-.268.275-.356.47l-.029.049v2.905c-.166.6-.31.967-.43 1.256-.138-.254-.276-.505-.498-1.126a128 128 0 0 1-1.19-3.565l-2.145-6.617-.858.01-1.606 6.067a63 63 0 0 1-.875 3.053c-.099.311-.134.34-.219.54-.074-.31-.145-.564-.222-1.08-.152-1.009-.448-1.934-.83-2.622a3.2 3.2 0 0 0-.653-.843c-.243-.22-.543-.403-.953-.403-.038 0-.112-.007-.236-.106a1.7 1.7 0 0 1-.388-.511c-.24-.466-.403-1.151-.403-1.906 0-.883-.13-1.54-.384-2.012a1.6 1.6 0 0 0-.501-.579 1.54 1.54 0 0 0-.802-.243c-.102-.004-.18.01-.236.017-.445.05-.826.24-1.19.523-.363.278-.72.652-1.051 1.118-.664.929-1.243 2.22-1.62 3.787a28 28 0 0 1-1.204 3.76c-.462 1.16-.97 2.149-1.33 2.6-.269.343-.505.516-.565.54-.014-.007-.035-.017-.099-.088-.31-.342-.762-1.486-1.274-3.406l-1.313-4.899-.667.022V34.79a6 6 0 0 0-.11-.61c-.017-.075-.045-.135-.07-.195-.021-.06-.018-.106-.152-.208a.6.6 0 0 0-.413-.106.5.5 0 0 0-.32.148c-.086.089-.09.134-.11.194a3 3 0 0 0-.11.502c-.134.882-.268 2.72-.444 5.664-.128 2.121-.223 3.713-.318 4.829-.007.098-.021.144-.028.236-.117-.547-.216-.97-.374-1.786a49 49 0 0 0-.526-2.485c-.152-.607-.265-.977-.427-1.228-.043-.06-.075-.116-.18-.183a.6.6 0 0 0-.251-.089.7.7 0 0 0-.332.029c-.18.063-.219.14-.264.204a1 1 0 0 0-.11.198c-.106.286-.18.72-.265 1.355l-.19 1.521-.583-1.57-1.178-3.307-.872.067-.194 3.858c-.04.727-.085 1.302-.166 1.729-.07.395-.187.632-.261.745a2 2 0 0 1-.498-.424c-.303-.332-.547-.568-.847-.723a1 1 0 0 0-.565-.138.9.9 0 0 0-.554.233c-.23.226-.296.49-.374.886q-.121.59-.18 1.56c-.035.575-.12.752-.194 1.048a3.8 3.8 0 0 0-.844-1.207c-.384-.353-.843-.607-1.387-.657.004 0 .004-.01 0-.01 0 0-.024-.01-.053-.05a2.2 2.2 0 0 1-.25-.469c-.18-.438-.357-1.098-.526-1.916-.339-1.635-.632-3.904-.773-6.4l-.54-9.087v-.022h-.886v.022l-.346 9.914c-.12 3.44-.317 5.795-.61 7.115-.13.593-.31.907-.403 1.03-.014-.01 0-.003-.014-.017-.356-.392-.745-1.165-1.023-2.044-.28-.878-.46-1.874-.47-2.756a12 12 0 0 0-.099-1.475c-.056-.382-.109-.65-.289-.872a.8.8 0 0 0-.47-.275 1 1 0 0 0-.582.077c-.307.138-.522.35-.79.65-.244.271-.449.427-.54.469-.067-.056-.23-.25-.36-.59-.127-.338-.247-.822-.374-1.422a4.4 4.4 0 0 0-.166-.6c-.053-.159-.089-.272-.194-.392a.5.5 0 0 0-.332-.187.72.72 0 0 0-.512.12c-.166.135-.173.23-.222.371-.184.568-.31 1.74-.385 3.554-.085 1.941-.321 3.628-.639 4.948-.314 1.32-.727 2.291-1.066 2.729a1 1 0 0 1-.166.187c-.031-.032-.067-.05-.11-.127-.25-.442-.493-1.54-.54-3.307a26 26 0 0 0-.137-2.26c-.067-.575-.14-.966-.293-1.245a.68.68 0 0 0-.413-.374.84.84 0 0 0-.416-.029.8.8 0 0 0-.304.128c-.31.194-.487.476-.734.903a2.7 2.7 0 0 1-.293.413c-.007-.018-.003-.014-.014-.032-.247-.519-.494-1.91-.706-4.15l-.536-6.067-.861-.078-1.8 3.858z"/></g></svg>