<svg xmlns="http://www.w3.org/2000/svg" xmlns:xlink="http://www.w3.org/1999/xlink" viewBox="0 0 96 96"><defs><linearGradient id="b" x1="50%" x2="50%" y1="4.674%" y2="100%"><stop offset="0%" stop-color="#ff9935"/><stop offset="100%" stop-color="#00c3b1"/></linearGradient><linearGradient id="c" x1="50%" x2="50%" y1="4.07%" y2="100%"><stop offset="0%" stop-color="#c8005a"/><stop offset="100%" stop-color="#4b0000"/></linearGradient><linearGradient id="d" x1="50%" x2="50%" y1="0%" y2="100%"><stop offset="0%" stop-color="#3a00d7"/><stop offset="100%" stop-color="#002e3e"/></linearGradient><linearGradient id="e" x1="50%" x2="50%" y1="4.07%" y2="100%"><stop offset="0%" stop-color="#ff4b4b"/><stop offset="100%" stop-color="#c8005a"/></linearGradient><linearGradient id="f" x1="50%" x2="50%" y1="0%" y2="100%"><stop offset="0%" stop-color="#37cbff"/><stop offset="100%" stop-color="#3a00d7"/></linearGradient><filter id="a" width="130.8%" height="130.8%" x="-15.4%" y="-15.4%" filterUnits="objectBoundingBox"><feOffset dy="2" in="SourceAlpha" result="shadowOffsetOuter1"/><feGaussianBlur in="shadowOffsetOuter1" result="shadowBlurOuter1" stdDeviation="2"/><feColorMatrix in="shadowBlurOuter1" result="shadowMatrixOuter1" values="0 0 0 0 0 0 0 0 0 0 0 0 0 0 0 0 0 0 0.2 0"/><feMerge><feMergeNode in="shadowMatrixOuter1"/><feMergeNode in="SourceGraphic"/></feMerge></filter></defs><g fill="none" filter="url(#a)" transform="translate(9 9)"><path fill="url(#b)" d="M18 0h42c9.941 0 18 8.059 18 18v42c0 9.941-8.059 18-18 18H18C8.059 78 0 69.941 0 60V18C0 8.059 8.059 0 18 0"/><path fill="url(#c)" d="M18 41v25.87l6.397-10.193 2.413-.015 6.872 10.307L33.683 41H65l13 11.055v3.94L63.674 43.981H53V56h13v3H53v10.018l13 .001V72H50V43.981H37V72h-3.026l-8.35-11.921L17.502 72h-2.704V46.075L0 60.701v-4.304L15.238 41z"/><path fill="url(#d)" d="m17.709 8 7.357 10.648L33.091 8h2.91L36 34.969h14.008V8H53v12h10V8h3.001L66 33.319l12-9.994v3.966L65.394 38H63V23H53v15H32.8l-.001-24.88L26.271 23h-2.409l-5.863-9.881L18 38h-3.168L0 24.546v-4.141l14.34 12.662V8z"/><path fill="#d8d8d8" fill-opacity=".241" d="M0 23h78v2H0zm0 31h78v2H0z"/><path fill="url(#e)" d="M16.281 41v25.87l6.667-10.193 2.418-.015L32 66.969V41h31.136L78 53.742v3.934L61.629 43.981H51V56h13v3H50.999L51 69.018l13 .001V72H48l-.001-28.019H35V72h-3l-7.822-11.921L16 72h-3V46.075L.11 58.492l-.11-.11v-4.045L13.075 41z"/><path fill="url(#f)" d="m15.71 8 7.488 10.648L31 8h3.001L34 34.969h14.022V8H51v12h10V8h3.001L64 33.319l14-11.66v3.933L63.394 38H61V23H51v15H31V13.12L24.398 23H22l-6.001-9.881L16 38h-2.489L0 25.603v-4.08l13.021 11.544L13.022 8z"/></g></svg>