<svg xmlns="http://www.w3.org/2000/svg" xmlns:xlink="http://www.w3.org/1999/xlink" viewBox="0 0 96 96"><defs><filter id="a" width="128.6%" height="128.6%" x="-14.3%" y="-14.3%" filterUnits="objectBoundingBox"><feOffset dy="2" in="SourceAlpha" result="shadowOffsetOuter1"/><feGaussianBlur in="shadowOffsetOuter1" result="shadowBlurOuter1" stdDeviation="2"/><feColorMatrix in="shadowBlurOuter1" result="shadowMatrixOuter1" values="0 0 0 0 0 0 0 0 0 0 0 0 0 0 0 0 0 0 0.2 0"/><feMerge><feMergeNode in="shadowMatrixOuter1"/><feMergeNode in="SourceGraphic"/></feMerge></filter></defs><g fill="none" fill-rule="evenodd" filter="url(#a)" transform="translate(6 6)"><circle cx="42" cy="42" r="42" fill="#0083f3"/><path fill="#fff" fill-rule="nonzero" d="M39.993 65.788q3.795 0 6.935-.986t5.329-2.847a12.8 12.8 0 0 0 3.394-4.489q1.204-2.628 1.204-5.84 0-2.992-.73-5.073a10.3 10.3 0 0 0-2.299-3.723q-1.57-1.643-4.015-3.03-2.446-1.387-5.803-2.92a190 190 0 0 1-4.782-2.336q-2.007-1.021-3.322-2.008-1.314-.985-1.934-2.153t-.62-2.701q0-1.46.657-2.701a6.5 6.5 0 0 1 1.788-2.117q1.131-.876 2.664-1.387a10.1 10.1 0 0 1 3.212-.511q4.234 0 6.753 2.226t3.54 7.045l2.108.028v-9c-2.762-1.93-6.998-3-11.233-3q-2.92 0-5.657.767-2.737.766-4.855 2.335a11.9 11.9 0 0 0-3.394 3.906q-1.278 2.336-1.277 5.402 0 1.972.584 3.796.584 1.825 1.898 3.504 1.313 1.68 3.54 3.249t5.512 3.102a868 868 0 0 0 5.329 2.518q2.263 1.059 3.723 2.227 1.459 1.169 2.153 2.592t.694 3.467q0 1.825-.803 3.285a7.4 7.4 0 0 1-2.154 2.446q-1.35.985-3.139 1.496-1.788.51-3.687.511-2.262 0-4.343-.913a12.8 12.8 0 0 1-3.723-2.481 13.1 13.1 0 0 1-2.701-3.723q-1.06-2.154-1.277-4.709L27 51l.072 11.265c3.893 2.38 8.2 3.523 12.92 3.523"/></g></svg>