<svg xmlns="http://www.w3.org/2000/svg" xmlns:xlink="http://www.w3.org/1999/xlink" viewBox="0 0 96 96"><defs><filter id="a" width="127.3%" height="137.5%" x="-13.6%" y="-18.8%" filterUnits="objectBoundingBox"><feOffset dy="2" in="SourceAlpha" result="shadowOffsetOuter1"/><feGaussianBlur in="shadowOffsetOuter1" result="shadowBlurOuter1" stdDeviation="2"/><feColorMatrix in="shadowBlurOuter1" result="shadowMatrixOuter1" values="0 0 0 0 0 0 0 0 0 0 0 0 0 0 0 0 0 0 0.2 0"/><feMerge><feMergeNode in="shadowMatrixOuter1"/><feMergeNode in="SourceGraphic"/></feMerge></filter></defs><g fill="none" fill-rule="evenodd" filter="url(#a)" transform="translate(4 16)"><path fill="#fff" d="M12 0h64c6.627 0 12 5.373 12 12v40c0 6.627-5.373 12-12 12H12C5.373 64 0 58.627 0 52V12C0 5.373 5.373 0 12 0"/><path fill="#343434" fill-rule="nonzero" d="M8.742 37.375q4.157-.11 4.32-3.281.055-2.079-2.515-3.008-.657-.273-1.914-.602-2.68-.492-2.461-1.695.164-1.422 2.133-1.477 2.188 0 2.515 1.97l1.97-.438q-.712-3.172-4.595-3.117-3.772.164-4.047 3.062-.163 2.46 3.336 3.172.657.109 1.532.383 2.133.656 1.968 1.86-.164 1.695-2.296 1.75-2.625.053-3.063-2.626l-1.914.438q.711 3.663 5.031 3.609m8.378-.055q1.805-.054 2.68-1.476v1.312h1.86v-8.093H19.8v4.703q-.11 2.077-1.969 2.242-1.86 0-1.86-2.078v-4.867h-1.858v5.085q0 3.172 3.007 3.172m7.777-.164V25.453h-1.914v11.703zm3.948.164q1.148 0 1.805-.383l-.383-1.148a1.35 1.35 0 0 1-.765.219q-.985.054-.985-1.258v-4.266h1.86v-1.422h-1.86v-3.117l-1.86.492v2.625h-1.312v1.422h1.313v4.832q.038 2.057 2.187 2.004m4.386 0q2.516-.054 3.555-1.476.054.82.383 1.312h1.804q-.437-.656-.437-1.695v-3.336q.165-3.39-3.719-3.281-3.336-.055-3.937 2.406l1.75.328q.383-1.367 2.187-1.367 2.024-.11 1.86 1.422-.493.437-3.063.875-3.008.383-3.008 2.57.11 2.133 2.625 2.242m.82-1.258q-1.64.055-1.585-1.039v-.125q.057-1.041 1.968-1.351 1.641-.219 2.352-.766v.875q-.219 2.242-2.734 2.407m7.613 1.094v-4.648q.165-2.024 2.023-2.133 1.86-.055 1.805 2.078v4.703h1.86v-5.253q-.049-3.057-2.954-3.005-1.804.11-2.734 1.586v-1.422h-1.86v8.094zm12.327.055v-4.156h2.625q4.21-.055 4.265-3.664-.219-3.336-4.101-3.5h-4.758v11.32zm2.406-5.688H53.99v-4.046h2.406q2.352.054 2.46 1.968-.054 2.078-2.46 2.078m10.675 5.852q5.36-.219 5.578-5.742-.382-5.523-5.523-5.852-5.305.22-5.579 5.852.274 5.414 5.524 5.742m-.055-1.586q-3.281-.219-3.445-4.156.219-3.938 3.5-4.211 3.281.22 3.445 4.21-.11 3.993-3.5 4.157m11.386 1.586q4.157-.11 4.32-3.281.055-2.079-2.515-3.008-.657-.273-1.914-.602-2.68-.492-2.461-1.695.164-1.422 2.133-1.477 2.187 0 2.515 1.97l1.969-.438q-.71-3.172-4.594-3.117-3.773.164-4.047 3.062-.163 2.46 3.336 3.172.656.109 1.532.383 2.132.656 1.968 1.86-.165 1.695-2.297 1.75-2.624.053-3.062-2.626l-1.914.438q.71 3.663 5.031 3.609"/></g></svg>