<svg xmlns="http://www.w3.org/2000/svg" xmlns:xlink="http://www.w3.org/1999/xlink" viewBox="0 0 96 96"><defs><linearGradient id="b" x1="50%" x2="50%" y1="2.99%" y2="93.807%"><stop offset="0%" stop-color="#343c47"/><stop offset="100%" stop-color="#000913"/></linearGradient><linearGradient id="c" x1="50%" x2="50%" y1="0%" y2="99.503%"><stop offset="0%" stop-color="#aeff9d"/><stop offset="100%" stop-color="#3ed72e"/></linearGradient><filter id="a" width="130.8%" height="130.8%" x="-15.4%" y="-15.4%" filterUnits="objectBoundingBox"><feOffset dy="2" in="SourceAlpha" result="shadowOffsetOuter1"/><feGaussianBlur in="shadowOffsetOuter1" result="shadowBlurOuter1" stdDeviation="2"/><feColorMatrix in="shadowBlurOuter1" result="shadowMatrixOuter1" values="0 0 0 0 0 0 0 0 0 0 0 0 0 0 0 0 0 0 0.2 0"/><feMerge><feMergeNode in="shadowMatrixOuter1"/><feMergeNode in="SourceGraphic"/></feMerge></filter></defs><g fill="none" fill-rule="evenodd" filter="url(#a)" transform="translate(9 9)"><rect width="78" height="78" fill="url(#b)" fill-rule="nonzero" rx="18"/><path fill="url(#c)" d="M39.5 12C48.06 12 55 18.94 55 27.5V32h1a4 4 0 0 1 4 4v22a4 4 0 0 1-4 4H22a4 4 0 0 1-4-4V36a4 4 0 0 1 4-4h2v-4.5C24 18.94 30.94 12 39.5 12m0 8a7.5 7.5 0 0 0-7.496 7.257L32 27.5V32h15v-4.5a7.5 7.5 0 0 0-7.5-7.5"/></g></svg>