<svg xmlns="http://www.w3.org/2000/svg" xmlns:xlink="http://www.w3.org/1999/xlink" viewBox="0 0 96 96"><defs><linearGradient id="b" x1="92.823%" x2="0%" y1="38.274%" y2="45.176%"><stop offset="0%" stop-color="#893b00"/><stop offset="78.743%" stop-color="#77260e"/><stop offset="100%" stop-color="#470000"/></linearGradient><linearGradient id="c" x1="50%" x2="50%" y1="0%" y2="100%"><stop offset="0%" stop-opacity=".301"/><stop offset="98.44%" stop-opacity=".651"/></linearGradient><linearGradient id="d" x1="87.531%" x2="8.564%" y1="14.654%" y2="35.683%"><stop offset="0%" stop-color="#db772b"/><stop offset="78.743%" stop-color="#77260e"/><stop offset="100%" stop-color="#470000"/></linearGradient><linearGradient id="e" x1="50%" x2="50%" y1="0%" y2="100%"><stop offset="0%" stop-opacity=".301"/><stop offset="98.44%" stop-opacity=".651"/></linearGradient><linearGradient id="f" x1="50%" x2="50%" y1="0%" y2="99.549%"><stop offset="0%" stop-color="#ffff60"/><stop offset="100%" stop-color="#f0bd00"/></linearGradient><filter id="a" width="126.9%" height="126.1%" x="-13.4%" y="-13.1%" filterUnits="objectBoundingBox"><feOffset dy="2" in="SourceAlpha" result="shadowOffsetOuter1"/><feGaussianBlur in="shadowOffsetOuter1" result="shadowBlurOuter1" stdDeviation="2"/><feColorMatrix in="shadowBlurOuter1" result="shadowMatrixOuter1" values="0 0 0 0 0 0 0 0 0 0 0 0 0 0 0 0 0 0 0.2 0"/><feMerge><feMergeNode in="shadowMatrixOuter1"/><feMergeNode in="SourceGraphic"/></feMerge></filter></defs><g fill="none" filter="url(#a)" transform="translate(3 2)"><path fill="url(#b)" d="m1.396 39.317 54.431-3.022 3.083 26.72a6 6 0 0 1-6.063 6.687l-48.14-.822z" transform="rotate(-30 58.694 15.727)"/><path fill="url(#c)" d="m55.827 36.295 3.083 26.72a6 6 0 0 1-6.063 6.687l-48.14-.822-3.31-29.563zm-.886 1.05-52.433 2.91 3.095 27.64 47.261.807a5 5 0 0 0 .44-.012l.219-.02a5 5 0 0 0 4.414-5.325l-.02-.216z" transform="rotate(-30 58.694 15.727)"/><path fill="url(#d)" d="M5.725 68.466a1 1 0 0 1-1.834-.45L.037 20.25a8 8 0 0 1 1.683-5.719L8.777 2.474A5 5 0 0 1 13.407.01L50.86 2.364a8 8 0 0 1 7.45 7.106l4.549 41.211a8 8 0 0 1-8.179 8.875l-39.778-1.13a7 7 0 0 0-4.71 1.645q-2.112 1.78-2.821 2.87-1.266 1.946-1.646 5.525" transform="rotate(-30 58.694 15.727)"/><path fill="url(#e)" d="M13.406.01 50.86 2.364a8 8 0 0 1 7.45 7.106l4.549 41.211a8 8 0 0 1-8.179 8.875l-39.778-1.13a7 7 0 0 0-4.71 1.645q-2.112 1.78-2.821 2.87-1.266 1.946-1.646 5.525a1 1 0 0 1-1.834-.45L.037 20.25a8 8 0 0 1 1.683-5.719L8.777 2.474A5 5 0 0 1 13.407.01m-.063.998a4 4 0 0 0-3.589 1.789l-.114.182-7.057 12.057-.078.114a7 7 0 0 0-1.494 4.718l3.836 47.565.056-.361c.293-1.789.778-3.26 1.467-4.416l.163-.26c.538-.828 1.538-1.845 3.015-3.09a8 8 0 0 1 5.055-1.882l.327.003 39.779 1.13a7 7 0 0 0 7.178-7.526l-.022-.24-4.55-41.211a7 7 0 0 0-6.271-6.198l-.247-.02z" transform="rotate(-30 58.694 15.727)"/><path fill="url(#f)" d="M20.12 11.735c2.557.48 7.91 2.465 8.49 8.082q.55 5.34 7.73 3.347a3 3 0 0 0 1.289-.74l5.904-5.74a3 3 0 0 1 3.993-.169l.368.302a2.843 2.843 0 0 1 .205 4.211q-3.3 3.292-4.617 4.789-1.36 1.546-3.159 4.078l-.302.43a3 3 0 0 0-.502 2.222q1.386 8.202 5.935 10.164 2.743 1.184 4.216.438l.151-.084a2.53 2.53 0 0 1 2.88 4.149l-.14.103c-6.69 4.605-11.967 2.541-15.72-4.606s-1.574-11.394-3.753-11.394c-2.178 0-5.742 12.868-6.842 16s-7.344 1.605-6.086-1.5 2.935-7.743 4.027-13 1.09-8.043 0-11.647q-.915-3.027-4.05-5.17l-.319-.212a3 3 0 0 1-1.332-2.04q-.386-2.392 1.634-2.013m14.713-3.918a5.5 5.5 0 1 1 0 11 5.5 5.5 0 0 1 0-11" transform="rotate(-30 58.694 15.727)"/><path fill="#d8d8d8" d="m41.522 74.736 37.187-20.17 1.35 8.466a2 2 0 0 1-1.002 2.062L38.745 87.559q-1.234-3.837-.826-6.547.356-2.362 2.23-5.047a4 4 0 0 1 1.373-1.229"/></g></svg>