<svg xmlns="http://www.w3.org/2000/svg" xmlns:xlink="http://www.w3.org/1999/xlink" viewBox="0 0 96 96"><defs><linearGradient id="b" x1="50%" x2="50%" y1="0%" y2="100%"><stop offset="0%" stop-color="#fcfcfc"/><stop offset="100%" stop-color="#f2f2f2"/></linearGradient><linearGradient id="c" x1="50%" x2="50%" y1="0%" y2="97.856%"><stop offset="0%" stop-color="#6f6f6f"/><stop offset="100%" stop-color="#3e3e3e"/></linearGradient><linearGradient id="d" x1="42.803%" x2="42.803%" y1="0%" y2="100%"><stop offset="0%" stop-color="#fff"/><stop offset="100%" stop-color="#f5f5f5" stop-opacity=".789"/></linearGradient><linearGradient id="e" x1="50%" x2="50%" y1="104.288%" y2="0%"><stop offset="0%" stop-color="#909090" stop-opacity=".789"/><stop offset="100%" stop-color="#fff"/></linearGradient><linearGradient id="f" x1="100%" x2="0%" y1="50%" y2="50%"><stop offset="0%" stop-color="#fff" stop-opacity=".789"/><stop offset="100%" stop-color="#fff"/></linearGradient><linearGradient id="g" x1="116.855%" x2="0%" y1="50%" y2="50%"><stop offset="0%" stop-color="#ffc700" stop-opacity=".789"/><stop offset="100%" stop-color="#f4e3a8"/></linearGradient><filter id="a" width="128.6%" height="128.6%" x="-14.3%" y="-14.3%" filterUnits="objectBoundingBox"><feOffset dy="2" in="SourceAlpha" result="shadowOffsetOuter1"/><feGaussianBlur in="shadowOffsetOuter1" result="shadowBlurOuter1" stdDeviation="2"/><feColorMatrix in="shadowBlurOuter1" result="shadowMatrixOuter1" values="0 0 0 0 0 0 0 0 0 0 0 0 0 0 0 0 0 0 0.2 0"/><feMerge><feMergeNode in="shadowMatrixOuter1"/><feMergeNode in="SourceGraphic"/></feMerge></filter></defs><g fill="none" filter="url(#a)" transform="translate(6 6)"><circle cx="42" cy="42" r="42" fill="url(#b)"/><circle cx="42" cy="42" r="38.769" fill="url(#c)"/><path fill="url(#d)" d="m23.145 13.796-.028.273.018.292q.46 7.561 1.479 11.34 1.055 3.918 4.487 10.376l-.89 1.002q-4.575 5.198-7.043 9.06l-.356.57Q18.373 50.706 15 58.599V35.026a2.77 2.77 0 1 0-1.17-.02l.17.034v23.326l-.486-1.124q-3.244-7.446-5.58-11.103Q5.23 41.91 0 36.077 3.432 29.619 4.487 25.7T6 13.796z" transform="translate(28 13)"/><path fill="url(#e)" d="M14.462 28.538A3.77 3.77 0 0 1 16 35.75V56.3q-.49 1.107-1 2.302V35h.11a2.77 2.77 0 1 0-1.297 0h.186v23.363q-.51-1.191-1-2.292V35.783a3.77 3.77 0 0 1 1.463-7.245" transform="translate(28 13)"/><path fill="url(#f)" d="M4 0h21a1 1 0 0 1 1 1v4a1 1 0 0 1-1 1H4a1 1 0 0 1-1-1V1a1 1 0 0 1 1-1" transform="translate(28 13)"/><path fill="url(#g)" d="M5 7h19a1 1 0 0 1 1 1v3a1 1 0 0 1-1 1H5a1 1 0 0 1-1-1V8a1 1 0 0 1 1-1" transform="translate(28 13)"/></g></svg>