<svg xmlns="http://www.w3.org/2000/svg" viewBox="0 0 64 64"><rect width="58" height="58" x="3" y="4" opacity=".2" rx="2.9" ry="2.9"/><rect width="58" height="58" x="3" y="3" fill="#558ef4" rx="2.9" ry="2.9"/><path fill="none" stroke="#000" stroke-linecap="round" stroke-linejoin="round" stroke-width="6" d="M14.001 19v26.4s.725 3.625 4.35 0L32.001 29l13.65 16.4c3.625 3.625 4.35 0 4.35 0V19" opacity=".2"/><path fill="none" stroke="#fff" stroke-linecap="round" stroke-linejoin="round" stroke-width="6" d="M14.001 18v26.4s.725 3.625 4.35 0L32.001 28l13.65 16.4c3.625 3.625 4.35 0 4.35 0V18"/><path fill="#fff" d="M5.898 3A2.89 2.89 0 0 0 3 5.898v1A2.89 2.89 0 0 1 5.898 4h52.204A2.89 2.89 0 0 1 61 6.898v-1A2.89 2.89 0 0 0 58.102 3z" opacity=".2"/></svg>