<svg xmlns="http://www.w3.org/2000/svg" xmlns:xlink="http://www.w3.org/1999/xlink" viewBox="0 0 96 96"><defs><linearGradient id="b" x1="50%" x2="50%" y1=".115%" y2="100%"><stop offset="0%" stop-color="#85e4ff"/><stop offset="100%" stop-color="#004ab7"/></linearGradient><linearGradient id="c" x1="50%" x2="50%" y1="0%" y2="100%"><stop offset="0%" stop-color="#fff"/><stop offset="100%" stop-color="#d8f6ff"/></linearGradient><linearGradient id="d" x1="50%" x2="50%" y1=".115%" y2="98.516%"><stop offset="0%" stop-color="#deefff"/><stop offset="100%" stop-color="#9ac3ff"/></linearGradient><filter id="a" width="130.8%" height="130.8%" x="-15.4%" y="-15.4%" filterUnits="objectBoundingBox"><feOffset dy="2" in="SourceAlpha" result="shadowOffsetOuter1"/><feGaussianBlur in="shadowOffsetOuter1" result="shadowBlurOuter1" stdDeviation="2"/><feColorMatrix in="shadowBlurOuter1" result="shadowMatrixOuter1" values="0 0 0 0 0 0 0 0 0 0 0 0 0 0 0 0 0 0 0.2 0"/><feMerge><feMergeNode in="shadowMatrixOuter1"/><feMergeNode in="SourceGraphic"/></feMerge></filter></defs><g fill="none" fill-rule="evenodd" filter="url(#a)" transform="translate(9 9)"><rect width="78" height="78" fill="url(#b)" rx="18"/><path fill="url(#c)" fill-rule="nonzero" d="M60 0c9.941 0 18 8.059 18 18v42c0 9.941-8.059 18-18 18H18C8.059 78 0 69.941 0 60V18C0 8.059 8.059 0 18 0zm0 2H18C9.269 2 2.17 8.994 2.003 17.685L2 18v42c0 8.731 6.994 15.83 15.685 15.997L18 76h42c8.731 0 15.83-6.994 15.997-15.685L76 60V18c0-8.731-6.994-15.83-15.685-15.997z"/><path fill="url(#d)" d="M72 51v9c0 6.627-5.373 12-12 12H18c-6.627 0-12-5.373-12-12v-9zm-55.19 2.127h-3.274V68.5h3.273v-6.361h8.251V68.5h3.25V53.127h-3.25v6.269h-8.25zm26.285-.184H36.3l-.29.004q-1.993.057-3.01.919-1.044.908-1.044 3.011v7.945l.006.245q.095 1.81 1.598 2.903.727.53 2.618.53h10.79v-2.86h-9.957l-.216-.003q-1.04-.027-1.343-.33-.273-.273-.272-1.12v-1.968h8.792l.232-.005q1.485-.07 2.341-1.054.923-1.044.923-2.497v-1.982l-.005-.24q-.061-1.53-.933-2.303-1.332-1.195-3.435-1.195m11.112.184h-4.01l5.047 7.606-5.232 7.767h3.896l3.319-5.278 3.388 5.278h3.849l-5.21-7.767 5.21-7.606h-3.965l-3.272 5.07zm-11.49 2.676q.8 0 1.18.318.348.302.348 1.135v.666l-.005.155q-.085 1.282-1.6 1.282h-7.46v-2.33l.005-.172q.053-.745.57-.963.196-.09 1.029-.091Z"/><path fill="#fff" fill-rule="nonzero" d="M6.357 21.082h6.995l4.271 17.31 4.496-17.31h6.023l4.495 17.31 4.272-17.31h6.996L35.706 49.5h-6.114l-4.447-17.177L20.668 49.5h-6.151zm39.059 7.289h7.426l3.464 5.067 3.432-5.067h7.429l-7.323 9.955L68.011 49.5h-7.459l-4.246-6.286-4.277 6.286h-7.457l8.166-11.174z"/></g></svg>