<svg xmlns="http://www.w3.org/2000/svg" viewBox="0 0 64 64"><rect width="44.94" height="51.161" x="5.47" y="-62.35" opacity=".2" rx="2.528" ry="2.558" transform="rotate(-6.815)scale(1 -1)skewX(.163)"/><rect width="44.94" height="51.161" x="5.59" y="-61.36" fill="#e4e4e4" rx="2.528" ry="2.558" transform="rotate(-6.815)scale(1 -1)skewX(.163)"/><path fill="#fff" d="M49.355 4.422a2.5 2.5 0 0 0-.511.012L9.238 9.164c-1.39.166-2.375 1.433-2.21 2.84l.029.262c.185-1.087 1.042-1.966 2.181-2.102l39.606-4.73q.26-.032.511-.012a2.536 2.536 0 0 1 2.293 2.25l5.301 45.465c.04-.236.06-.476.031-.727L51.648 6.672a2.536 2.536 0 0 0-2.293-2.25" opacity=".2"/><rect width="44.94" height="51.161" x="13.11" y="3.18" opacity=".2" rx="2.528" ry="2.558" transform="rotate(6.815)skewX(.163)"/><rect width="44.94" height="51.161" x="12.99" y="2.19" fill="#3497fd" rx="2.528" ry="2.558" transform="rotate(6.815)skewX(.163)"/><path d="M38.868 21 43 24.58 29.735 43 19 34.101l3.395-4.73 6.277 5.246z" opacity=".2"/><path fill="#fff" d="M38.868 20 43 23.58 29.735 42 19 33.101l3.395-4.73 6.277 5.246z"/><path fill="#fff" d="M14.645 4.008a2.536 2.536 0 0 0-2.293 2.25L7.02 51.996c-.03.251-.01.491.03.727l5.302-45.465a2.536 2.536 0 0 1 2.293-2.25q.25-.021.511.012l39.606 4.73c1.14.136 1.996 1.015 2.181 2.102l.03-.262c.164-1.408-.82-2.674-2.211-2.84L15.156 4.02a2.5 2.5 0 0 0-.511-.012" opacity=".2"/></svg>