<svg xmlns="http://www.w3.org/2000/svg" viewBox="0 0 64 64"><path d="M9.332 5C6.377 5 4 7.5 4 10.602v44.796C4 58.501 6.377 61 9.332 61h5.336C17.623 61 20 58.5 20 55.398V10.602C20 7.499 17.623 5 14.668 5Zm40 0C46.377 5 44 7.5 44 10.602v44.796C44 58.501 46.377 61 49.332 61h5.336C57.623 61 60 58.5 60 55.398V10.602C60 7.499 57.623 5 54.668 5Z" opacity=".2"/><path fill="#fff" d="M17.656 6.344 6.344 17.656l.5.5L17.656 7.344l39.5 39.5.5-.5z" opacity=".1"/><rect width="16" height="56" x="4" y="4" fill="#4f4f4f" rx="5.333" ry="5.6"/><rect width="16" height="56" x="44" y="4" fill="#4f4f4f" rx="5.333" ry="5.6"/><path fill="#fff" d="M9.332 4C6.377 4 4 6.5 4 9.602v1C4 7.499 6.377 5 9.332 5h5.336C17.623 5 20 7.5 20 10.602v-1C20 6.499 17.623 4 14.668 4zm40 0C46.377 4 44 6.5 44 9.602v1C44 7.499 46.377 5 49.332 5h5.336C57.623 5 60 7.5 60 10.602v-1C60 6.499 57.623 4 54.668 4z" opacity=".1"/></svg>