<svg xmlns="http://www.w3.org/2000/svg" xmlns:xlink="http://www.w3.org/1999/xlink" viewBox="0 0 96 96"><defs><linearGradient id="b" x1="0%" x2="89.253%" y1="14.687%" y2="100%"><stop offset="0%" stop-color="#fff"/><stop offset="100%" stop-color="#eee"/></linearGradient><linearGradient id="c" x1="50%" x2="50%" y1="0%" y2="100%"><stop offset="0%" stop-color="#2ed9ff"/><stop offset="100%" stop-color="#169ffe"/></linearGradient><filter id="a" width="125%" height="125%" x="-12.5%" y="-12.5%" filterUnits="objectBoundingBox"><feOffset dy="2" in="SourceAlpha" result="shadowOffsetOuter1"/><feGaussianBlur in="shadowOffsetOuter1" result="shadowBlurOuter1" stdDeviation="2"/><feColorMatrix in="shadowBlurOuter1" result="shadowMatrixOuter1" values="0 0 0 0 0 0 0 0 0 0 0 0 0 0 0 0 0 0 0.2 0"/><feMerge><feMergeNode in="shadowMatrixOuter1"/><feMergeNode in="SourceGraphic"/></feMerge></filter></defs><g fill="none" fill-rule="evenodd" filter="url(#a)" transform="translate(.094 .094)"><rect width="68" height="68" x="14.083" y="14.083" fill="url(#b)" rx="12" transform="rotate(45 48.083 48.083)"/><path fill="url(#c)" fill-rule="nonzero" d="M49.274 54.762 65.77 71.256 50.855 86.17a3.683 3.683 0 0 1-5.21 0l-13.89-13.89zm23.008-23.008 13.89 13.89a3.683 3.683 0 0 1 0 5.209l-13.89 13.89-16.494-16.495zM22.46 33.51v29.474L10.328 50.853a3.683 3.683 0 0 1 0-5.21zm23.185-23.183a3.683 3.683 0 0 1 5.21 0l14.914 14.914L31.67 59.339V24.3z"/></g></svg>