<svg xmlns="http://www.w3.org/2000/svg" xmlns:xlink="http://www.w3.org/1999/xlink" viewBox="0 0 96 96"><defs><filter id="a" width="128.6%" height="142.9%" x="-14.3%" y="-21.4%" filterUnits="objectBoundingBox"><feOffset dy="2" in="SourceAlpha" result="shadowOffsetOuter1"/><feGaussianBlur in="shadowOffsetOuter1" result="shadowBlurOuter1" stdDeviation="2"/><feColorMatrix in="shadowBlurOuter1" result="shadowMatrixOuter1" values="0 0 0 0 0 0 0 0 0 0 0 0 0 0 0 0 0 0 0.2 0"/><feMerge><feMergeNode in="shadowMatrixOuter1"/><feMergeNode in="SourceGraphic"/></feMerge></filter><filter id="c" width="102.4%" height="103.6%" x="-1.2%" y="-1.8%" filterUnits="objectBoundingBox"><feOffset dy="-2" in="SourceAlpha" result="shadowOffsetInner1"/><feComposite in="shadowOffsetInner1" in2="SourceAlpha" k2="-1" k3="1" operator="arithmetic" result="shadowInnerInner1"/><feColorMatrix in="shadowInnerInner1" values="0 0 0 0 0 0 0 0 0 0 0 0 0 0 0 0 0 0 0.2 0"/></filter><rect id="b" width="84" height="56" x="0" y="0" rx="2"/></defs><g fill="none" fill-rule="evenodd" filter="url(#a)" transform="translate(6 21)"><g transform="matrix(-1 0 0 1 84 0)"><use xlink:href="#b" fill="#454b96"/><use xlink:href="#b" fill="#000" filter="url(#c)"/></g><path fill="#5ed0b2" fill-rule="nonzero" d="m42 25 16 6v16l-16 6-16-6V31zm-14 8.508v12.106l13 4.875V39zm28 .23L43 39v11.489l13-4.876zm-14-6.603L29.37 31.87l7.495 2.998 5.234 2.094 12.819-4.982z"/><path fill="#5ed0b2" fill-rule="nonzero" d="M20 43 5 37.705V20.313l14.007-5.387L34 21v2l-.101-.04L20 28.659zM7 23.563v12.732l10.999 3.98L18 28.64zm11.992-6.489L7.385 21.538l11.73 5.414 12.115-5.046z"/><path fill="#5ed2b2" fill-rule="nonzero" d="m65 43 15-5.295V20.313l-14.007-5.387L51 21v2l.101-.04L65 28.659zm13-19.437v12.732l-10.999 3.98L67 28.64zm-11.992-6.489 11.607 4.464-11.73 5.414-12.115-5.046z"/><path fill="#5ed0b2" fill-rule="nonzero" d="M28.101 13.96 28 14v-2l14.993-6.074L57 12v2l-14 6zm14.907-5.886-12.239 4.832L43 18l11.83-5.07z"/></g></svg>