<svg xmlns="http://www.w3.org/2000/svg" xmlns:xlink="http://www.w3.org/1999/xlink" viewBox="0 0 96 96"><defs><linearGradient id="b" x1="50%" x2="50%" y1="0%" y2="100%"><stop offset="0%" stop-color="#fdca99"/><stop offset="100%" stop-color="#fab069"/></linearGradient><linearGradient id="c" x1="50%" x2="50%" y1="0%" y2="100%"><stop offset="0%" stop-color="#bbbcb9"/><stop offset="100%" stop-color="#898a87"/></linearGradient><linearGradient id="d" x1="50%" x2="50%" y1="0%" y2="100%"><stop offset="0%" stop-color="#999b96"/><stop offset="98.992%" stop-color="#696b67"/></linearGradient><linearGradient id="e" x1="50%" x2="50%" y1="0%" y2="100%"><stop offset="0%" stop-color="#4a9206"/><stop offset="100%" stop-color="#2e5b03"/></linearGradient><linearGradient id="f" x1="50%" x2="50%" y1="0%" y2="100%"><stop offset="0%" stop-color="#9be650"/><stop offset="100%" stop-color="#7ad61f"/></linearGradient><linearGradient id="g" x1="50%" x2="50%" y1="0%" y2="100%"><stop offset="0%" stop-color="#9bbdea"/><stop offset="100%" stop-color="#6893c6"/></linearGradient><filter id="a" width="132.9%" height="129.3%" x="-16.4%" y="-14.6%" filterUnits="objectBoundingBox"><feOffset dy="2" in="SourceAlpha" result="shadowOffsetOuter1"/><feGaussianBlur in="shadowOffsetOuter1" result="shadowBlurOuter1" stdDeviation="2"/><feColorMatrix in="shadowBlurOuter1" result="shadowMatrixOuter1" values="0 0 0 0 0 0 0 0 0 0 0 0 0 0 0 0 0 0 0.2 0"/><feMerge><feMergeNode in="shadowMatrixOuter1"/><feMergeNode in="SourceGraphic"/></feMerge></filter></defs><g fill="none" fill-rule="evenodd" filter="url(#a)" transform="translate(12 7)"><path fill="#fff" stroke="#bababa" stroke-width="2" d="M64 1a3 3 0 0 1 2.121.879A3 3 0 0 1 67 4v68a8.97 8.97 0 0 1-2.636 6.364A8.97 8.97 0 0 1 58 81H4a3 3 0 0 1-2.121-.879A3 3 0 0 1 1 78V4c0-.828.336-1.578.879-2.121A3 3 0 0 1 4 1Z"/><path fill="#ececec" d="M4 4h60v68a6 6 0 0 1-6 6H4z"/><path fill="url(#b)" stroke="#ce5c00" d="M36 39.078 46.174 58.5H25.826zm0 5.892L30.15 55.5h11.7z"/><path fill="#a8a9a6" stroke="#2e3436" d="M41.5 30.5a18.94 18.94 0 0 1 13.435 5.565A18.94 18.94 0 0 1 60.5 49.5a18.94 18.94 0 0 1-5.565 13.435A18.94 18.94 0 0 1 41.5 68.5h-32v-5h32c3.808 0 7.26-1.52 9.785-3.987a13.96 13.96 0 0 0 4.211-9.692c.002-3.957-1.504-7.47-3.947-10.029a13.83 13.83 0 0 0-9.734-4.289L9.5 35.5v-5Z"/><path fill="#6a6c67" fill-rule="nonzero" d="M41.5 32.5c9.389 0 17 7.611 17 17 0 9.28-7.437 16.825-16.677 16.997l-.323.003H10v-1h31.5c8.837 0 16-7.163 16-16 0-8.731-6.994-15.83-15.685-15.997L41.5 33.5H10v-1z"/><path fill="url(#c)" stroke="#303739" d="M23.5 36.5v31h1.55l-4.55 6.617-4.55-6.617h1.55v-31z"/><path fill="url(#d)" d="M19 39h3v30l-1.5 2-1.5-2z"/><path fill="#cef4a8" stroke="url(#e)" d="M.5.5h11v12H.5z" transform="translate(14 25)"/><path fill="url(#f)" d="M2 2h8v9H2z" transform="translate(14 25)"/><g transform="translate(35 1)"><rect width="38" height="18" y="4" fill="url(#g)" rx="2"/><text fill="#fff" font-family="Arial-Black, Arial Black" font-size="17" font-weight="700" letter-spacing="-.5">
                    <tspan x="3" y="19">DIA</tspan>
                </text></g></g></svg>