<svg xmlns="http://www.w3.org/2000/svg" viewBox="0 0 64 64"><rect width="56" height="56" x="4" y="5" opacity=".2" rx="2.8" ry="2.8"/><rect width="56" height="56" x="4" y="4" fill="#e4e4e4" rx="2.8" ry="2.8"/><path d="M8 9v14h14V9Zm0 17v14h14V26Zm17 0v14h14V26Zm17 0v14h14V26ZM8 43v14h14V43Zm17 0v14h14V43Zm17 0v14h14V43Z" opacity=".1"/><path fill="#ff5dc2" d="M25 25h14v14H25z"/><path fill="#ff6363" d="M8 25h14v14H8z"/><path fill="#ff7940" d="M42 25h14v14H42z"/><path fill="#6182de" d="M25 42h14v14H25z"/><path fill="#ffa631" d="M8 42h14v14H8z"/><path fill="#2ba540" d="M42 42h14v14H42z"/><path fill="#40b8ff" d="M8 8h14v14H8z"/><path fill="#fff" d="M6.8 4C5.25 4 4 5.25 4 6.8v1C4 6.25 5.25 5 6.8 5h50.4C58.75 5 60 6.25 60 7.8v-1C60 5.25 58.75 4 57.2 4z" opacity=".2"/></svg>