<svg xmlns="http://www.w3.org/2000/svg" xmlns:xlink="http://www.w3.org/1999/xlink" viewBox="0 0 96 96"><defs><linearGradient id="b" x1="50%" x2="52.485%" y1="13.557%" y2="111.13%"><stop offset="0%" stop-color="#a3ffa3"/><stop offset="100%" stop-color="#00b41f"/></linearGradient><linearGradient id="c" x1="50%" x2="53.344%" y1="13.557%" y2="111.13%"><stop offset="0%" stop-color="#30143e"/><stop offset="100%" stop-color="#c7b3d0"/></linearGradient><linearGradient id="d" x1="50%" x2="50%" y1="0%" y2="100%"><stop offset="0%" stop-color="#fff1dc"/><stop offset="100%" stop-color="#ffb535"/></linearGradient><linearGradient id="e" x1="50%" x2="50%" y1="0%" y2="100%"><stop offset="0%" stop-color="#ffbaba"/><stop offset="100%" stop-color="#ff2e2e"/></linearGradient><filter id="a" width="129.2%" height="128.8%" x="-14.6%" y="-14.4%" filterUnits="objectBoundingBox"><feOffset dy="2" in="SourceAlpha" result="shadowOffsetOuter1"/><feGaussianBlur in="shadowOffsetOuter1" result="shadowBlurOuter1" stdDeviation="2"/><feColorMatrix in="shadowBlurOuter1" result="shadowMatrixOuter1" values="0 0 0 0 0 0 0 0 0 0 0 0 0 0 0 0 0 0 0.2 0"/><feMerge><feMergeNode in="shadowMatrixOuter1"/><feMergeNode in="SourceGraphic"/></feMerge></filter></defs><g fill="none" fill-rule="evenodd" filter="url(#a)" transform="translate(6.192 5.04)"><path fill="url(#b)" d="M12.846 1.005 24.713 45.8q-14.928-4.5-21.74 5C-3.839 60.3 8.5 69.328 17.366 66.96s12.767-9.404 13.447-11.702q.681-2.297-10.423-38.392l15.697 6.867 3.606-1.772q-17.6-11.555-21.066-14.99-3.468-3.436-5.78-5.966"/><path fill="#007611" fill-rule="nonzero" d="m11.88 1.261 11.419 43.107-.146-.037c-9.402-2.37-16.467-.425-20.992 5.886-3.446 4.806-2.629 10.004 1.443 13.841 3.69 3.477 9.363 5.112 14.02 3.869 7.488-2 12.76-7.694 14.148-12.385l.015-.058.023-.13.014-.154.006-.177v-.097l-.008-.213-.017-.235-.025-.26-.054-.433-.046-.32-.12-.71-.114-.595-.086-.428-.255-1.176-.244-1.05-.206-.854-.473-1.875-.456-1.734-.512-1.893-.569-2.053-.626-2.214-.542-1.887-1.037-3.556-.979-3.305-1.248-4.16-1.773-5.833-.455-1.487 13.7 5.994a1 1 0 0 0 .843-.019l3.606-1.772a1 1 0 0 0 .107-1.733l-2.1-1.384-2.952-1.96-2.277-1.53-2.909-1.98-1.878-1.299-1.71-1.203-.946-.675-1.168-.846-1.06-.785-.726-.548-.664-.512-.604-.478-.543-.443-.483-.407-.422-.373-.361-.337-1.007-1-.859-.864-.817-.831-.777-.799-.735-.766-.694-.734-.653-.702-.312-.339c-.705-.771-1.972-.08-1.704.931m12.833 44.54L12.846 1.004l.638.69q.164.178.334.358l.699.74.74.77q.19.198.385.398l1.218 1.242.863.868 1.014 1.007.24.227.267.242.293.258.491.415.36.296.388.312.631.495.935.715.772.577.832.611 1.52 1.095.992.704 1.417.991L30.2 15.62l2.122 1.441 1.818 1.223 2.928 1.948 2.624 1.73-3.606 1.772-15.697-6.867 1.903 6.224 1.712 5.675.87 2.917 1.414 4.824.704 2.443.767 2.71.682 2.465.597 2.223.351 1.346.313 1.238.4 1.655.167.736.191.887.118.594.097.533.076.473.055.411.024.24.016.214.005.187-.003.16-.006.07-.017.118-.013.05-.08.25-.049.135-.114.295-.138.322-.077.17-.174.358-.197.38q-.157.294-.343.606l-.26.425a20.37 20.37 0 0 1-12.015 8.76C8.5 69.329-3.839 60.3 2.973 50.8q6.706-9.352 21.276-5.137z"/><path fill="url(#c)" d="m58.772 39.727 11.36 42.68q-7.954-7.655-14.009-10.55-6.054-2.897-16.43-10.075 16.29 4.386 19.769 6.179c1.057.544 2.328 1.203 2.777 1 1.028-.466-.469-5.069-.844-6.5q-1.392-5.306-8.051-33.5 5-7.47 12.587-7.876c7.588-.408 13.936 1.813 15.035 6.392 1.098 4.579-1.318 11.47-10.835 12.25q-9.517.78-11.36 0"/><path fill="#2b0a37" fill-rule="nonzero" d="M65.878 20.086c-5.39.29-9.865 3.09-13.365 8.318a1 1 0 0 0-.142.786l6.049 25.404 1.658 6.756.386 1.498.523 1.88.18.695.079.325.063.277c.162.721.258 1.316.28 1.76l.002.083-.144-.057-.148-.062-.332-.152-.523-.257-.524-.268a13 13 0 0 0-.56-.27l-.44-.192-.494-.203-.547-.214-.602-.224-.655-.236-.71-.245-.971-.326-1.127-.365-1.224-.383-.87-.267-1.387-.417-.978-.288-2.638-.76-2.306-.647-2.482-.683-1.976-.536c-1.084-.292-1.753 1.15-.83 1.788l1.213.835 1.183.805 1.153.775 1.124.745.55.362 1.078.701 1.05.671.512.325 1.005.627.974.597.945.568.46.272.9.524q.444.255.871.493l.841.464.811.434q.398.21.782.405l.752.375.365.177c3.926 1.877 8.514 5.333 13.746 10.368l.082.073c.733.577 1.828-.108 1.577-1.05L60.15 41.018q.226.022.46.04l.493.028.533.02.573.01h.613l.654-.008.696-.017.736-.026.779-.035.82-.044.862-.053.905-.06.948-.071.99-.079c8.891-.728 13.268-7.05 11.726-13.48-1.198-4.996-7.68-7.607-16.06-7.157m15.088 7.391c1.098 4.579-1.318 11.47-10.835 12.25l-1.32.103-1.64.113-.766.046-.733.04-1.033.044-.955.03-.593.01-.558.004-.524-.004-.489-.01-.453-.018-.214-.012-.402-.028-.188-.017-.35-.039a8 8 0 0 1-.314-.046l-.28-.053a3 3 0 0 1-.547-.163l11.36 42.68Q62.433 75 56.515 72.048l-1.12-.547-.375-.189-.772-.4-.397-.21-.817-.445-.42-.234-.862-.489-.892-.518-.921-.548-.952-.578-.981-.608-1.012-.637-1.041-.666-1.071-.697-1.101-.726-1.131-.755-1.161-.786-1.19-.815-.607-.418 3.287.895 3.004.837 1.395.397 2.168.63 1.593.475 1.813.558 1.615.518 1.151.386.528.183.733.263.867.328.567.23.496.214.292.136.26.129.725.369.365.177c.723.341 1.388.59 1.687.454.47-.213.412-1.29.175-2.534l-.096-.473-.11-.48-.118-.48-.184-.7-.511-1.833-.541-2.127-1.071-4.36-2.661-11.08-3.778-15.933q5-7.47 12.587-7.876c7.588-.408 13.936 1.813 15.035 6.392"/><path fill="url(#d)" d="M27.872 36.96q4.977-4.26 8.399-6.13t6.537-1.052v6.183l14.17-12.033-14.17-11.173v6.206q-10.42 2.604-12.678 7.237a22 22 0 0 0-2.258 9.763z"/><path fill="#c07c00" fill-rule="nonzero" d="M41.808 12.755v5.43l-.187.05c-6.653 1.785-10.797 4.255-12.39 7.525a23 23 0 0 0-2.36 10.2v1a1 1 0 0 0 1.651.76 94 94 0 0 1 1.732-1.448l.827-.664.8-.626q2.758-2.12 4.87-3.274l.308-.163c1.643-.839 3.193-1.153 4.671-.96l.078.011v5.365a1 1 0 0 0 1.648.762l14.17-12.032a1 1 0 0 0-.029-1.548L43.427 11.97a1 1 0 0 0-1.619.786m1 0 14.17 11.173-14.17 12.033v-6.183q-3.115-.817-6.537 1.053-2.8 1.53-6.64 4.66l-.867.715-.892.755v-1q0-5.13 2.258-9.763 2.205-4.527 12.209-7.118l.47-.12z"/><path fill="url(#e)" d="M26.872 73.167q4.977-4.26 8.399-6.13t6.77-1.053v6.183l13.937-12.033L42.04 48.961v6.206q-10.652 2.603-12.91 7.237a22 22 0 0 0-2.258 9.763z" transform="rotate(180 41.425 61.064)"/><path fill="#9f2e2e" fill-rule="nonzero" d="m41.809 67.741.202-.053c6.798-1.784 11.013-4.252 12.608-7.526a23 23 0 0 0 2.36-10.2v-1a1 1 0 0 0-1.651-.76q-.892.763-1.732 1.447l-.827.665-.8.626q-2.758 2.12-4.87 3.274l-.326.172c-1.628.824-3.216 1.139-4.787.956l-.177-.024v-5.357a1 1 0 0 0-1.654-.757L26.22 61.237a1 1 0 0 0 .028 1.537l13.936 11.174a1 1 0 0 0 1.626-.78zm-1 5.426L26.872 61.994 40.81 49.96v6.183q3.348.818 6.77-1.053 2.8-1.53 6.64-4.66l.867-.715.892-.755v1q0 5.13-2.258 9.763-2.207 4.53-12.442 7.12l-.47.117z"/></g></svg>