<svg xmlns="http://www.w3.org/2000/svg" xmlns:xlink="http://www.w3.org/1999/xlink" viewBox="0 0 96 96"><defs><linearGradient id="b" x1="50%" x2="50%" y1="0%" y2="100%"><stop offset="0%" stop-color="#fff"/><stop offset="100%" stop-color="#fff"/></linearGradient><filter id="a" width="128.6%" height="128.6%" x="-14.3%" y="-14.3%" filterUnits="objectBoundingBox"><feOffset dy="2" in="SourceAlpha" result="shadowOffsetOuter1"/><feGaussianBlur in="shadowOffsetOuter1" result="shadowBlurOuter1" stdDeviation="2"/><feColorMatrix in="shadowBlurOuter1" result="shadowMatrixOuter1" values="0 0 0 0 0 0 0 0 0 0 0 0 0 0 0 0 0 0 0.2 0"/><feMerge><feMergeNode in="shadowMatrixOuter1"/><feMergeNode in="SourceGraphic"/></feMerge></filter></defs><g fill="none" fill-rule="evenodd" filter="url(#a)" transform="translate(6 6)"><rect width="84" height="84" fill="url(#b)" rx="8"/><path fill="#0366d6" fill-rule="nonzero" d="M8.09 43.14c1.03 0 1.9-.4 2.4-.89v-3.34H7.86v1.21h1.31v1.46c-.21.18-.57.28-.93.28-1.45 0-2.19-.97-2.19-2.58 0-1.59.86-2.55 2.09-2.55.67 0 1.09.27 1.45.62l.79-.94c-.48-.49-1.22-.95-2.29-.95-1.97 0-3.55 1.43-3.55 3.87 0 2.47 1.53 3.81 3.55 3.81m4.492-6.64c.5 0 .87-.34.87-.8 0-.48-.37-.8-.87-.8-.51 0-.88.32-.88.8 0 .46.37.8.88.8m.72 6.5v-5.6h-1.46V43zm3.513.14c.49 0 .88-.11 1.18-.21l-.24-1.07c-.15.06-.37.12-.55.12-.5 0-.76-.3-.76-.94v-2.48h1.38V37.4h-1.38v-1.5h-1.23l-.17 1.5-.86.07v1.09h.79v2.48c0 1.26.51 2.1 1.84 2.1m3.632-.14v-3.2h2.8V43h1.47v-7.4h-1.47v2.91h-2.8V35.6h-1.48V43zm7.512.14c.77 0 1.31-.37 1.79-.94h.04l.11.8h1.2v-5.6h-1.47v3.78c-.38.5-.68.7-1.14.7-.54 0-.78-.3-.78-1.17V37.4h-1.47v3.5c0 1.4.52 2.24 1.72 2.24m7.403 0c1.23 0 2.38-1.11 2.38-3.04 0-1.71-.83-2.84-2.21-2.84-.55 0-1.11.27-1.55.67l.03-.9v-2.01h-1.46V43h1.15l.13-.59h.03c.46.47 1 .73 1.5.73m-.33-1.21c-.3 0-.67-.11-1.02-.42v-2.46c.39-.39.73-.58 1.11-.58.77 0 1.11.59 1.11 1.66 0 1.22-.52 1.8-1.2 1.8M43.256 43c2.18 0 3.58-1.24 3.58-3.73 0-2.5-1.4-3.67-3.66-3.67h-2.03V43zm-.17-1.19h-.46v-5.03h.46c1.38 0 2.24.68 2.24 2.49 0 1.8-.86 2.54-2.24 2.54m7.393 1.33c.7 0 1.41-.24 1.96-.62l-.5-.9c-.4.25-.8.39-1.26.39-.83 0-1.43-.48-1.55-1.4h3.45c.04-.13.07-.4.07-.67 0-1.55-.8-2.68-2.34-2.68-1.34 0-2.61 1.13-2.61 2.95 0 1.84 1.22 2.93 2.78 2.93m.91-3.5h-2.28c.11-.82.63-1.24 1.22-1.24.72 0 1.06.48 1.06 1.24m3.952 3.5c1.46 0 2.23-.79 2.23-1.77 0-1.04-.82-1.41-1.56-1.69-.59-.22-1.14-.37-1.14-.78 0-.32.24-.54.74-.54.42 0 .81.2 1.21.48l.66-.89c-.47-.35-1.09-.69-1.91-.69-1.26 0-2.08.71-2.08 1.72 0 .93.82 1.36 1.53 1.63.59.23 1.17.42 1.17.84 0 .35-.25.59-.81.59-.52 0-1-.22-1.5-.61l-.67.92c.55.46 1.38.79 2.13.79m4.663-.14v-1.4l.81-.92 1.36 2.32h1.59l-2.12-3.31 1.94-2.29h-1.6l-1.94 2.42h-.04v-4.8h-1.43V43zm6.202.14c.49 0 .88-.11 1.18-.21l-.24-1.07c-.15.06-.37.12-.55.12-.5 0-.76-.3-.76-.94v-2.48h1.38V37.4h-1.38v-1.5h-1.23l-.17 1.5-.86.07v1.09h.79v2.48c0 1.26.51 2.1 1.84 2.1m4.182 0c1.4 0 2.69-1.08 2.69-2.93 0-1.87-1.29-2.95-2.69-2.95s-2.69 1.08-2.69 2.95c0 1.85 1.29 2.93 2.69 2.93m0-1.2c-.76 0-1.19-.68-1.19-1.73 0-1.06.43-1.75 1.19-1.75s1.19.69 1.19 1.75c0 1.05-.43 1.73-1.19 1.73m5.263 3.21v-1.7l-.04-.92c.43.39.9.61 1.39.61 1.23 0 2.38-1.11 2.38-3.03 0-1.72-.82-2.85-2.2-2.85-.6 0-1.18.32-1.65.72h-.04l-.1-.58h-1.2v7.75zm1.02-3.22c-.3 0-.66-.11-1.02-.42v-2.46c.39-.39.73-.58 1.11-.58.77 0 1.11.59 1.11 1.66 0 1.22-.52 1.8-1.2 1.8"/></g></svg>