<svg xmlns="http://www.w3.org/2000/svg" xmlns:xlink="http://www.w3.org/1999/xlink" viewBox="0 0 96 96"><defs><linearGradient id="b" x1="50%" x2="50%" y1="0%" y2="100%"><stop offset="0%" stop-color="#6de3ff"/><stop offset="100%" stop-color="#25bdff"/></linearGradient><filter id="a" width="130.3%" height="131%" x="-15.1%" y="-15.5%" filterUnits="objectBoundingBox"><feOffset dy="2" in="SourceAlpha" result="shadowOffsetOuter1"/><feGaussianBlur in="shadowOffsetOuter1" result="shadowBlurOuter1" stdDeviation="2"/><feColorMatrix in="shadowBlurOuter1" result="shadowMatrixOuter1" values="0 0 0 0 0 0 0 0 0 0 0 0 0 0 0 0 0 0 0.2 0"/><feMerge><feMergeNode in="shadowMatrixOuter1"/><feMergeNode in="SourceGraphic"/></feMerge></filter></defs><g fill="none" fill-rule="evenodd" filter="url(#a)" transform="translate(8.894 10.734)"><path fill="#f1cd65" d="m10.62 11.206 2.232-3.397 3.603-1.765 4.265.998L32.021 9.88l24.042 8.268 12.007 4.709 6.307 3.975 2.723 2.93 1.125 11.976-3.848 18.268-1.112 8.477-1.026 4.54-1.408 3.31h-5.18l-7.305-2.066-13.923-3.628-8.54-2.523-28.36-19.673-2.314-7.254-3.103-16.86L.563 11.205l1.543-2.512h3.103z"/><path fill="#66432c" fill-rule="nonzero" d="m17.82 5.552.761.084.251.038.851.183 6.847 1.626.83.205.883.226 1.416.374 1 .271 1.576.439 1.657.473 1.144.333 2.367.704 1.83.558 1.24.384 1.883.592 1.898.609.635.206 1.268.416c2.536.837 5.052 1.7 7.429 2.558l1.154.419 1.685.623 1.092.413 1.591.613 1.533.607.989.401.963.398.935.395.91.392.88.39.855.386.826.383.402.19.784.379.755.375.726.372.697.369.337.183.653.364.315.18.608.36.577.356.547.352.262.175.5.348c1.535 1.094 2.598 2.137 3.15 3.124 1.75 3.131 2.225 6.968 1.727 12.077q-.06.629-.142 1.288l-.116.897-.135.933-.154.976-.173 1.024-.094.532-.204 1.108-.4 2.06-1.502 7.35-.243 1.216-.331 1.712-.205 1.092-.098.538a72 72 0 0 0-.593 3.952l-.397 3.491-.173 1.565-.114.933-.113.818-.077.487-.039.226-.08.423-.041.196-.086.365c-.161.636-.349 1.097-.59 1.466-.812 1.248-1.95 1.931-3.229 2.153a4.9 4.9 0 0 1-1.695.014l-.21-.046-57.77-14.08a1 1 0 0 1-.737-.744l-1.17-5.025-.88-3.835-.829-3.672-.779-3.51-.55-2.525-.523-2.436-.495-2.346-.466-2.257-.438-2.167-.54-2.752-.25-1.317-.465-2.517-.315-1.786-.286-1.699-.176-1.084-.163-1.047-.22-1.497-.132-.951-.119-.914-.106-.875-.049-.423-.087-.82-.075-.78-.032-.377-.056-.726-.044-.688-.03-.651-.019-.615L0 12.815v-.56l.014-.522.011-.247.033-.468c.108-1.274.369-2.111.781-2.523 1.578-1.579 3.523-1.47 6.29-.086l.36.185.345.193 1.398.824.52.312.043-.191c.478-1.964 1.93-3.272 4.284-3.829l.275-.06 2.024-.27a6.8 6.8 0 0 1 1.443-.02m-.955 1.984-.32.031-1.758.234-.112.013c-2.017.419-2.963 1.423-3.049 3.195l-.001.05 3.045 1.844 1.135.673.358.207.163.092c.717.4 1.424.78 2.13 1.14l.707.354c2.316 1.14 4.044 2.41 5.29 3.83 1.38 1.572 1.964 2.793 2.468 4.95l.136.612.135.664.068.353q.05.259.096.483l.093.417c.184.772.368 1.196.661 1.55.235.283.712.572 1.467.876l.401.154q.213.078.449.157l.496.16.267.083.703.202 1.608.421 4.654 1.191.317.084c3.106.835 5.714 1.683 8.224 2.735a41 41 0 0 1 4.675 2.302c6.899 3.988 11.29 13.537 13.301 28.59a1 1 0 1 1-1.982.264c-1.937-14.498-6.085-23.519-12.32-27.122a39 39 0 0 0-4.447-2.19c-2.23-.934-4.556-1.707-7.28-2.46l-1.002-.27-5.716-1.466-.708-.19-.332-.096-.625-.188q-.299-.093-.574-.187l-.525-.187c-1.253-.469-2.068-.956-2.59-1.587-.56-.674-.842-1.354-1.106-2.526l-.113-.533-.187-.96a34 34 0 0 0-.129-.606l-.13-.55c-.415-1.665-.9-2.607-1.956-3.81-.992-1.13-2.38-2.177-4.26-3.149l-.41-.207a63 63 0 0 1-2.93-1.542l-.543-.311-.68-.402-6.05-3.658-1.06-.627-.435-.246-.105-.056C4.253 9.165 3.093 9.07 2.253 9.91q-.307.308-.383 1.451l-.017.371-.007.41v.22l.01.467.02.507.033.545.042.583.026.306.092.976.076.698.086.736.098.774.108.81.184 1.288.208 1.372.232 1.455.349 2.07.29 1.65.315 1.73.34 1.814.364 1.894.39 1.976.413 2.056.59 2.867.635 3.009.678 3.149.722 3.289.964 4.306.82 3.6 1.174 5.057L68.32 75.292c.195.045.585.073 1.048-.007.758-.131 1.403-.519 1.895-1.274q.057-.087.112-.212l.072-.182a4 4 0 0 0 .07-.218l.07-.254.068-.291.067-.331.067-.372.067-.415.101-.704.068-.526.56-4.983c.208-1.737.424-3.241.688-4.698l.305-1.645.22-1.138.234-1.192.427-2.106 1.137-5.543.296-1.502.162-.851.2-1.086.179-1.028.082-.494.15-.952.132-.909c.102-.74.185-1.442.25-2.118.462-4.74.035-8.193-1.482-10.907-.304-.545-.87-1.14-1.661-1.775l-.38-.295-.203-.15-.427-.303-.457-.308-.239-.156-.5-.315-.528-.32-.555-.323-.582-.327-.606-.33-.632-.335-.655-.337-.678-.34-.7-.343-.722-.345-.743-.347-.762-.349-1.179-.526-.808-.353-1.244-.53-1.28-.533-.87-.355-1.333-.533-1.36-.532-1.387-.53-1.409-.528-1.43-.525-1.931-.693-1.465-.514-1.477-.508-1.98-.667-1.492-.491-1.774-.572c-5.383-1.715-10.741-3.241-15.501-4.405l-7.701-1.826-.493-.099-.544-.066a4.8 4.8 0 0 0-1.013-.034"/><circle cx="21.606" cy="54.766" r="19.5" fill="url(#b)"/><path fill="#304f6d" fill-rule="nonzero" d="M21.606 33.266c-11.874 0-21.5 9.626-21.5 21.5s9.626 21.5 21.5 21.5 21.5-9.626 21.5-21.5-9.626-21.5-21.5-21.5m0 2c10.77 0 19.5 8.73 19.5 19.5s-8.73 19.5-19.5 19.5-19.5-8.73-19.5-19.5 8.73-19.5 19.5-19.5"/><path fill="#f1cd65" d="M35.056 55.225q.657.45 5.885 2.076-.062.495-.151.98-1.822 5.166-3.412 5.567c-.899.227-1.59-.337-2.25-.931l-.301-.274c-.502-.45-1-.849-1.571-.849q-1.335 0-2.629 1.41l-.184.208.787 6.352v1.965a20 20 0 0 1-.867.465q-5.324.606-7.361-.106c-2.2-.768 1.216-3.645 3.445-4.908s0-4.632-1.055-6.852.774-4.415 2.945-5.562c2.17-1.146 6.052 0 6.719.459M12.89 37.317l.828.321q2.75.61 4.92 2.693c2.169 2.084 1.395 4.4.346 5.274-1.05.874-4.233 2.026-4.233 3.64 0 1.613 3.886 6.417 3.886 8.525q0 2.109-2.632 7.083-1.09-2.828-2.287-3.176c-1.197-.35-3.998-1.33-3.56-3.731.436-2.4 1.115-7.359-.274-7.03q-1.388.33-4.676 4.726.558-5.048.558-7.665 0-2.05-.508-3.844a19.57 19.57 0 0 1 7.632-6.816m12.594 4.18c.745.864 1.154 3.383 1.402 6.75.249 3.369-1.34 4.786-3.673 4.786s-5.1-2.248-4.92-4.094 4.06-3.804 5.35-4.44c1.094-.54.175-2.946-.128-3.662l-.055-.127-.034-.076s1.313 0 2.058.864"/><path fill="#318857" fill-rule="nonzero" d="M42.855 10.92q1.86 0 2.715-.945.765-.9.765-2.73V0H44.58v7.185q0 1.14-.405 1.665t-1.29.525q-1.59 0-1.59-1.845V7.2H39.54v.345q0 1.575.855 2.475.84.9 2.46.9m7.335-.21V5.97h5.235v-1.5H50.19V1.5h5.55V0h-7.305v10.71zm11.415 0V1.5h3.51V0H56.34v1.5h3.51v9.21zm6.54 0V6.6H70.8q3.915 0 3.915-3.315Q74.715 0 70.83 0h-4.44v10.71zm2.55-5.61h-2.55V1.5h2.55q1.17 0 1.695.42.555.42.555 1.365 0 .96-.54 1.395-.555.42-1.71.42"/><path fill="#66a81a" d="M41.886 37.266q-1.299 0-6.747 6.844-4.051-5.121-5.517-2.386c-1.464 2.735-1.796 13.073-.372 14.866s13.502-.02 15.263-.908q1.76-.889-3.349-4.84 6.93-6.213 7.282-7.734c.351-1.521-5.26-5.842-6.56-5.842"/><path fill="#000" fill-opacity=".334" fill-rule="nonzero" d="M41.886 37.266c.305 0 .845.237 1.49.619l.361.222.187.121.384.26.195.137.395.29.397.304.197.157.39.322.192.164.373.332c1.218 1.112 2.148 2.267 1.999 2.914q-.075.318-.436.842l-.175.243-.203.263-.113.14-.246.293-.275.314-.303.335-.331.354-.55.57-.616.616-.445.436-.976.932-.807.753-.87.798-.936.844.494.388.234.188.442.365q.319.267.6.518l.356.326q2.543 2.39 1.223 3.056c-.252.127-.714.273-1.325.424l-.486.115-.262.057-.559.116-.6.114-.315.056-.652.11-.337.055-.692.104-.71.098-.723.09-.73.083q-.368.039-.733.073l-.728.061-.718.05-.702.037c-2.425.102-4.457-.063-4.991-.735-.81-1.02-1.052-4.802-.84-8.378l.05-.736c.188-2.437.588-4.68 1.162-5.752q1.365-2.549 4.977 1.724l.358.433.182.229.74-.922.7-.855.444-.533.426-.503.408-.474.39-.444.551-.61.345-.37.328-.341.309-.311.291-.282.14-.13.264-.236.246-.207q.12-.097.229-.178l.21-.148q.454-.3.726-.3m.132 2.15-.098.079q-.194.16-.431.383l-.335.322-.18.181q-.282.286-.598.627l-.436.478-.466.526-.496.573-.524.622-.554.668-.584.717-.612.763-1.57 1.972-1.563-1.976c-.889-1.123-1.64-1.89-2.187-2.293l-.131-.094-.026.069c-.15.414-.294 1-.419 1.704l-.09.55-.083.588-.075.623-.065.653q-.031.333-.056.677l-.044.697q-.02.353-.032.712l-.01.33q-.014.471-.015.928l.005.6.013.577.022.551.03.522.035.487.02.23.045.428.048.382.05.333q.04.23.082.397l.045.161c.27.07.647.122 1.114.154l.241.015c1.17.059 2.727-.007 4.47-.18a55 55 0 0 0 4.654-.666l.595-.118.334-.073-.038-.037a25 25 0 0 0-1.894-1.625l-2.167-1.678 2.182-1.958.757-.686.71-.653.665-.621.62-.588.573-.554.527-.521q.252-.253.482-.489l.435-.454.203-.217.367-.406q.341-.386.577-.69l.145-.194-.093-.119c-.382-.476-.982-1.063-1.688-1.653-.682-.57-1.415-1.1-2.036-1.48a9 9 0 0 0-.322-.187z"/></g></svg>