<svg xmlns="http://www.w3.org/2000/svg" xmlns:xlink="http://www.w3.org/1999/xlink" viewBox="0 0 96 96"><defs><linearGradient id="b" x1="50%" x2="50%" y1=".475%" y2="99.519%"><stop offset="0%" stop-color="#ff8d94"/><stop offset="100%" stop-color="#b90000"/></linearGradient><linearGradient id="c" x1="50%" x2="50%" y1="0%" y2="100%"><stop offset="0%" stop-color="#8e0000"/><stop offset="100%" stop-color="#bd0000"/></linearGradient><linearGradient id="d" x1="50%" x2="50%" y1="0%" y2="97.962%"><stop offset="0%"/><stop offset="100%" stop-opacity=".589"/></linearGradient><linearGradient id="e" x1="50%" x2="50%" y1="0%" y2="100%"><stop offset="0%" stop-color="#e6e6e6"/><stop offset="100%" stop-color="#d1d1d1"/></linearGradient><linearGradient id="f" x1="50%" x2="50%" y1="5.833%" y2="97.998%"><stop offset="0%" stop-opacity=".647"/><stop offset="100%" stop-opacity=".796"/></linearGradient><linearGradient id="g" x1="50%" x2="50%" y1="0%" y2="100%"><stop offset="0%" stop-color="#e6e6e6"/><stop offset="100%" stop-color="#d1d1d1"/></linearGradient><linearGradient id="h" x1="50%" x2="50%" y1="0%" y2="97.998%"><stop offset="0%" stop-opacity=".513"/><stop offset="100%" stop-opacity=".648"/></linearGradient><linearGradient id="j" x1="50%" x2="50%" y1="0%" y2="100%"><stop offset="0%" stop-color="#9a7e00"/><stop offset="100%" stop-color="#dcc700"/></linearGradient><linearGradient id="k" x1="50%" x2="50%" y1="0%" y2="100%"><stop offset="0%" stop-color="#fffffb"/><stop offset="100%" stop-color="#fdf190"/></linearGradient><linearGradient id="l" x1="50%" x2="50%" y1="0%" y2="100%"><stop offset="0%" stop-color="#efd920"/><stop offset="100%" stop-color="#beaa00"/></linearGradient><linearGradient id="m" x1="50%" x2="50%" y1="1.765%" y2="100%"><stop offset="0%" stop-color="#494100"/><stop offset="100%" stop-color="#bfb330"/></linearGradient><linearGradient id="n" x1="50%" x2="50%" y1="0%" y2="100%"><stop offset="0%" stop-color="#c4c4c3"/><stop offset="28.345%" stop-color="#bdbdbd"/><stop offset="100%" stop-color="#ededed"/></linearGradient><linearGradient id="o" x1="50%" x2="50%" y1="0%" y2="100%"><stop offset="0%" stop-color="#8e0000"/><stop offset="100%" stop-color="#bd0000"/></linearGradient><filter id="a" width="129.3%" height="130.8%" x="-14.6%" y="-15.4%" filterUnits="objectBoundingBox"><feOffset dy="2" in="SourceAlpha" result="shadowOffsetOuter1"/><feGaussianBlur in="shadowOffsetOuter1" result="shadowBlurOuter1" stdDeviation="2"/><feColorMatrix in="shadowBlurOuter1" result="shadowMatrixOuter1" values="0 0 0 0 0 0 0 0 0 0 0 0 0 0 0 0 0 0 0.2 0"/><feMerge><feMergeNode in="shadowMatrixOuter1"/><feMergeNode in="SourceGraphic"/></feMerge></filter><filter id="i" width="220%" height="185.7%" x="-60%" y="-42.9%" filterUnits="objectBoundingBox"><feOffset dy="2" in="SourceAlpha" result="shadowOffsetOuter1"/><feGaussianBlur in="shadowOffsetOuter1" result="shadowBlurOuter1" stdDeviation="2"/><feColorMatrix in="shadowBlurOuter1" result="shadowMatrixOuter1" values="0 0 0 0 0 0 0 0 0 0 0 0 0 0 0 0 0 0 0.210637019 0"/><feMerge><feMergeNode in="shadowMatrixOuter1"/><feMergeNode in="SourceGraphic"/></feMerge></filter></defs><g fill="none" fill-rule="evenodd" filter="url(#a)" transform="translate(7 9)"><path fill="#d8d8d8" stroke="#979797" d="M42.5 42.5h3v3h-3z"/><path fill="url(#b)" d="M9.68 0h62.64a6 6 0 0 1 5.99 5.672l3.343 61A6 6 0 0 1 75.663 73H6.337a6 6 0 0 1-5.991-6.328l3.342-61A6 6 0 0 1 9.68 0"/><path fill="url(#c)" fill-rule="nonzero" d="M72.32 0a6 6 0 0 1 5.99 5.672l3.343 61A6 6 0 0 1 75.663 73H6.337a6 6 0 0 1-5.991-6.328l3.342-61A6 6 0 0 1 9.68 0zm0 1H9.68a5 5 0 0 0-4.975 4.507l-.017.22-3.343 61a5 5 0 0 0 4.776 5.268l.217.005h69.324a5 5 0 0 0 5-5.057l-.007-.217-3.343-61a5 5 0 0 0-4.772-4.721z"/><path fill="url(#d)" d="M34 37h42a2 2 0 0 1 2 2v1a2 2 0 0 1-2 2H34a2 2 0 0 1-2-2v-1a2 2 0 0 1 2-2"/><path fill="url(#e)" stroke="url(#f)" d="M77 26.5c.414 0 .79.168 1.06.44.272.27.44.646.44 1.06v10c0 .414-.168.79-.44 1.06a1.5 1.5 0 0 1-1.06.44H33a1.5 1.5 0 0 1-1.06-.44A1.5 1.5 0 0 1 31.5 38V28c0-.414.168-.79.44-1.06A1.5 1.5 0 0 1 33 26.5z"/><path fill="url(#g)" stroke="url(#h)" d="M54 30.5c.414 0 .79.168 1.06.44.272.27.44.646.44 1.06v1c0 .414-.168.79-.44 1.06a1.5 1.5 0 0 1-1.06.44H41a1.5 1.5 0 0 1-1.06-.44A1.5 1.5 0 0 1 39.5 33v-1c0-.414.168-.79.44-1.06A1.5 1.5 0 0 1 41 30.5z"/><g filter="url(#i)" transform="translate(34 27)"><path fill="url(#j)" d="M2 28h16a2 2 0 0 0 2-2v-3H0v3a2 2 0 0 0 2 2"/><path fill="url(#k)" stroke="url(#l)" d="M5.778 1.977C7.666.347 10.798.09 15.11 1.062c.383.779.327 1.056.209 1.241-3.436.188-5.413.802-6.346 1.881-.863.998-1.441 2.758-1.668 5.316h9.833a1.496 1.496 0 0 1 1.496 1.393l.86 12a1.5 1.5 0 0 1-1.373 1.602L2.035 24.5a1.5 1.5 0 0 1-1.06-.44 1.5 1.5 0 0 1-.44-1.044l.835-12.12a1.49 1.49 0 0 1 .962-1.298c.717-3.733 1.742-6.149 3.446-7.621Z"/><path fill="#fff291" d="M4 12h12l1 11H3z"/><path fill="url(#m)" d="M8 14h4v4H8z"/></g><path fill="url(#n)" d="M0 70a4 4 0 0 1 3.8-3.995L4 66h74.5a3.5 3.5 0 0 1 2.448 6.001 3.5 3.5 0 0 1-2.256 5.994L78.5 78H4a4 4 0 0 1-3.995-3.8L0 74z"/><path fill="url(#o)" fill-rule="nonzero" d="M78.5 66a3.5 3.5 0 0 1 2.448 6.001 3.5 3.5 0 0 1-2.256 5.994L78.5 78H4a4 4 0 0 1-3.995-3.8L0 74v-4a4 4 0 0 1 3.8-3.995L4 66zM4.025 67l-.176.004a3 3 0 0 0-2.844 2.82L1 70v3.975l.004.176a3 3 0 0 0 2.82 2.844L4 77h74.473l.165-.004a2.5 2.5 0 0 0 1.612-4.279 1 1 0 0 1-.001-1.43 2.5 2.5 0 0 0-1.584-4.281L78.5 67z"/></g></svg>