<svg xmlns="http://www.w3.org/2000/svg" viewBox="0 0 64 64"><path d="M51.5 11a6.5 6.5 0 0 0-6.5 6.5 6.5 6.5 0 0 0 6.5 6.5 6.5 6.5 0 0 0 6.5-6.5 6.5 6.5 0 0 0-6.5-6.5m-7.465 16A2.03 2.03 0 0 0 42 29.035v13.951h.018A9.5 9.5 0 0 0 51.5 52a9.5 9.5 0 0 0 9.477-9.014H61V29.035A2.03 2.03 0 0 0 58.965 27Z" opacity=".2"/><path d="M33.5 5a9.5 9.5 0 0 0-9.5 9.5 9.5 9.5 0 0 0 9.5 9.5 9.5 9.5 0 0 0 9.5-9.5A9.5 9.5 0 0 0 33.5 5M22.295 27A3.287 3.287 0 0 0 19 30.295v16.478h.01A14.5 14.5 0 0 0 33.5 61a14.5 14.5 0 0 0 14.486-14.227H48V30.295A3.287 3.287 0 0 0 44.705 27Z" opacity=".2"/><path fill="#5059c9" d="M44.036 26A2.03 2.03 0 0 0 42 28.036v13.949h19V28.037A2.03 2.03 0 0 0 58.964 26z"/><circle cx="51.5" cy="41.5" r="9.5" fill="#5059c9"/><circle cx="51.5" cy="16.5" r="6.5" fill="#5059c9"/><circle cx="33.5" cy="13.5" r="9.5" fill="#7b83eb"/><path fill="#7b83eb" d="M22.295 26A3.29 3.29 0 0 0 19 29.296v16.477h.67a3.28 3.28 0 0 0 2.625 1.318h22.41c1.08 0 2.025-.52 2.626-1.318H48V29.296A3.29 3.29 0 0 0 44.705 26z"/><path fill="#fff" d="M33.5 4a9.5 9.5 0 0 0-9.5 9.5 10 10 0 0 0 .02.414A9.5 9.5 0 0 1 33.5 5a9.5 9.5 0 0 1 9.48 9.086A10 10 0 0 0 43 13.5 9.5 9.5 0 0 0 33.5 4M22.295 26A3.287 3.287 0 0 0 19 29.295v1A3.287 3.287 0 0 1 22.295 27h22.41A3.287 3.287 0 0 1 48 30.295v-1A3.287 3.287 0 0 0 44.705 26z" opacity=".2"/><circle cx="33.5" cy="45.5" r="14.5" fill="#7b83eb"/><rect width="29" height="29" x="3" y="19" opacity=".1" rx="1.977" ry="1.977"/><rect width="29" height="29" x="3" y="18" fill="#5059c9" rx="1.977" ry="1.977"/><path d="M10 25v5h5v13h5V30h5v-5z" opacity=".2"/><path fill="#fff" d="M10 24h15v5H10zm10 5v13h-5V29z"/><path fill="#fff" d="M4.977 18A1.97 1.97 0 0 0 3 19.977v1C3 19.88 3.881 19 4.977 19h25.046C31.12 19 32 19.881 32 20.977v-1A1.97 1.97 0 0 0 30.023 18zM51.5 10a6.5 6.5 0 0 0-6.5 6.5 7 7 0 0 0 .023.47A6.5 6.5 0 0 1 51.5 11a6.5 6.5 0 0 1 6.477 6.03A7 7 0 0 0 58 16.5a6.5 6.5 0 0 0-6.5-6.5m-7.465 16A2.03 2.03 0 0 0 42 28.035v1A2.03 2.03 0 0 1 44.035 27h14.93A2.03 2.03 0 0 1 61 29.035v-1A2.03 2.03 0 0 0 58.965 26z" opacity=".1"/></svg>