<svg xmlns="http://www.w3.org/2000/svg" xmlns:xlink="http://www.w3.org/1999/xlink" viewBox="0 0 96 96"><defs><filter id="a" width="131.6%" height="130.8%" x="-15.8%" y="-15.4%" filterUnits="objectBoundingBox"><feOffset dy="2" in="SourceAlpha" result="shadowOffsetOuter1"/><feGaussianBlur in="shadowOffsetOuter1" result="shadowBlurOuter1" stdDeviation="2"/><feColorMatrix in="shadowBlurOuter1" result="shadowMatrixOuter1" values="0 0 0 0 0 0 0 0 0 0 0 0 0 0 0 0 0 0 0.2 0"/><feMerge><feMergeNode in="shadowMatrixOuter1"/><feMergeNode in="SourceGraphic"/></feMerge></filter></defs><g fill="none" fill-rule="evenodd" filter="url(#a)" transform="translate(10 9)"><path fill="#515758" d="M12 0h52c6.627 0 12 5.373 12 12v54c0 6.627-5.373 12-12 12H12C5.373 78 0 72.627 0 66V12C0 5.373 5.373 0 12 0"/><path fill="#000" fill-rule="nonzero" d="M64 0c6.627 0 12 5.373 12 12v54c0 6.627-5.373 12-12 12H12C5.373 78 0 72.627 0 66V12C0 5.373 5.373 0 12 0zm0 1H12C6.021 1 1.157 5.77 1.004 11.712L1 12v54c0 5.979 4.77 10.843 10.712 10.996L12 77h52c5.979 0 10.843-4.77 10.996-10.712L75 66V12c0-5.979-4.77-10.843-10.712-10.996z"/><path fill="#fff" d="m26.894 25.447 23.528 11.764a2 2 0 0 1 0 3.578L26.894 52.553A2 2 0 0 1 24 50.763V27.237a2 2 0 0 1 2.894-1.789"/><path fill="#a5a8a8" d="M15 64a1 1 0 0 1 1 1v4a1 1 0 0 1-1 1H6a1 1 0 0 1-1-1v-4a1 1 0 0 1 1-1zm0-11a1 1 0 0 1 1 1v4a1 1 0 0 1-1 1H6a1 1 0 0 1-1-1v-4a1 1 0 0 1 1-1zm0-11a1 1 0 0 1 1 1v4a1 1 0 0 1-1 1H6a1 1 0 0 1-1-1v-4a1 1 0 0 1 1-1zm0-11a1 1 0 0 1 1 1v4a1 1 0 0 1-1 1H6a1 1 0 0 1-1-1v-4a1 1 0 0 1 1-1zm0-11a1 1 0 0 1 1 1v4a1 1 0 0 1-1 1H6a1 1 0 0 1-1-1v-4a1 1 0 0 1 1-1zm0-11a1 1 0 0 1 1 1v4a1 1 0 0 1-1 1H6a1 1 0 0 1-1-1v-4a1 1 0 0 1 1-1zm55 55a1 1 0 0 1 1 1v4a1 1 0 0 1-1 1h-9a1 1 0 0 1-1-1v-4a1 1 0 0 1 1-1zm0-11a1 1 0 0 1 1 1v4a1 1 0 0 1-1 1h-9a1 1 0 0 1-1-1v-4a1 1 0 0 1 1-1zm0-11a1 1 0 0 1 1 1v4a1 1 0 0 1-1 1h-9a1 1 0 0 1-1-1v-4a1 1 0 0 1 1-1zm0-11a1 1 0 0 1 1 1v4a1 1 0 0 1-1 1h-9a1 1 0 0 1-1-1v-4a1 1 0 0 1 1-1zm0-11a1 1 0 0 1 1 1v4a1 1 0 0 1-1 1h-9a1 1 0 0 1-1-1v-4a1 1 0 0 1 1-1zm0-11a1 1 0 0 1 1 1v4a1 1 0 0 1-1 1h-9a1 1 0 0 1-1-1v-4a1 1 0 0 1 1-1z"/></g></svg>