<svg xmlns="http://www.w3.org/2000/svg" xmlns:xlink="http://www.w3.org/1999/xlink" viewBox="0 0 96 96"><defs><linearGradient id="b" x1="50%" x2="50%" y1="0%" y2="100%"><stop offset="0%" stop-color="#ffe474"/><stop offset="100%" stop-color="#deb63b"/></linearGradient><filter id="a" width="128.6%" height="128.6%" x="-14.3%" y="-14.3%" filterUnits="objectBoundingBox"><feOffset dy="2" in="SourceAlpha" result="shadowOffsetOuter1"/><feGaussianBlur in="shadowOffsetOuter1" result="shadowBlurOuter1" stdDeviation="2"/><feColorMatrix in="shadowBlurOuter1" result="shadowMatrixOuter1" values="0 0 0 0 0 0 0 0 0 0 0 0 0 0 0 0 0 0 0.2 0"/><feMerge><feMergeNode in="shadowMatrixOuter1"/><feMergeNode in="SourceGraphic"/></feMerge></filter></defs><g fill="none" fill-rule="evenodd" filter="url(#a)" transform="translate(6 6)"><circle cx="42" cy="42" r="42" fill="url(#b)"/><circle cx="42" cy="42" r="36" fill="#626d6d"/><circle cx="42" cy="42" r="34" fill="#73848d"/><path fill="#fff" d="M38.732 47.422 42 48.546 40.366 73.89 27.908 70.5zM28.815 43.5l5.864 3.48V52l-7.84 15h-3.456L11.596 52.714l1.453-7.803L20.13 44l5.996 8 2.053-.5.637-2.536h-2.69l-2.742-4.053-.246-.911zM20.588 52l-2.55 3.25 1.815 1.605 3.284-3.355zm48.76-24.5 2.079 4 1.51 8.947H56.75V43l16.186 1-2.452 10.428-17.786-7.006V37.328zM16.5 24.765 32.6 36l-2.581 6h-5.47v-2.95l-12.953-1.435L12.69 31.5zm18.201-12.82L42 12v19.5h-3.764L32.03 17.159l-2.507.819 7.166 14.231-2.9 2.291-15.75-12.25 4.3-6.755a33 33 0 0 1 4.131-2.62l.73.001.959 2.721zm13.892-1.263 16.432 8.545 1.711 7.75-6.161 3.606-8.645-5.021-1.694 1.262.404 2.583 2.476-1.05 4.108 2.658.582.743-5.031 2.679-6.758-.913-1.961-4.62 1.357-16.872zm7.214 7.96-1.713 4.371 2.933.385 1.078-3.988z"/><path fill="#f3d460" d="m51.292 55.25 3.402-5.459-8.019-4.334-3.025 3.024v20.613l5.522 3.293L60.343 67.5 68.25 59l-11.614-7.5-4.317 4.552 4.317 8.428-1.942.52-7.07-13 1.548-1z"/></g></svg>