<svg xmlns="http://www.w3.org/2000/svg" xmlns:xlink="http://www.w3.org/1999/xlink" viewBox="0 0 96 96"><defs><linearGradient id="b" x1="50%" x2="50%" y1="0%" y2="100%"><stop offset="0%" stop-color="#863fda"/><stop offset="100%" stop-color="#80a"/></linearGradient><filter id="a" width="128.6%" height="128.6%" x="-14.3%" y="-14.3%" filterUnits="objectBoundingBox"><feOffset dy="2" in="SourceAlpha" result="shadowOffsetOuter1"/><feGaussianBlur in="shadowOffsetOuter1" result="shadowBlurOuter1" stdDeviation="2"/><feColorMatrix in="shadowBlurOuter1" result="shadowMatrixOuter1" values="0 0 0 0 0 0 0 0 0 0 0 0 0 0 0 0 0 0 0.2 0"/><feMerge><feMergeNode in="shadowMatrixOuter1"/><feMergeNode in="SourceGraphic"/></feMerge></filter></defs><g fill="none" filter="url(#a)" transform="translate(6 6)"><circle cx="42" cy="42" r="42" fill="url(#b)"/><path fill="#000" d="M71.962 21.862c-5.5 12.5-23.5 14-31.5 17.5s-12.5 12.5-13.985 29.146c4.985-8.646 14.485-10.646 26.985-12.646s17-21.5 18.5-34"/><path fill="#f06" d="M71.962 21.862c-5.5 12.5-23.5 14-31.5 17.5s-12.5 12.5-13.985 29.146c4.985-8.646 14.485-10.646 26.985-12.646s17-21.5 18.5-34"/><path fill="#000" d="M50.53 13.003c0 10-8 17-16 21s-13.5 21-8 34.5c1-8.5 7-15 20-21s6.5-28 4-34.5"/><path fill="#f60" d="M50.53 13.003c0 10-8 17-16 21s-13.5 21-8 34.5c1-8.5 7-15 20-21s6.5-28 4-34.5"/><path fill="#000" d="M28.95 17c.644 10.119-4.715 20.022-8.533 24.598-3.817 4.575-4.016 13.194 6.112 26.905-1.784-8.275 1.172-14.652 8.157-23.163 6.985-8.51-2.03-23.081-5.736-28.34"/><path fill="#fc0" d="M28.95 17c.644 10.119-4.715 20.022-8.533 24.598-3.817 4.575-4.016 13.194 6.112 26.905-1.784-8.275 1.172-14.652 8.157-23.163 6.985-8.51-2.03-23.081-5.736-28.34"/></g></svg>