<svg xmlns="http://www.w3.org/2000/svg" xmlns:xlink="http://www.w3.org/1999/xlink" viewBox="0 0 96 96"><defs><linearGradient id="b" x1="50%" x2="50%" y1="0%" y2="105.437%"><stop offset="0%" stop-color="#85e1ff"/><stop offset="100%" stop-color="#4cbde2"/></linearGradient><linearGradient id="c" x1="50%" x2="50%" y1="0%" y2="96.932%"><stop offset="0%" stop-color="#c6faff"/><stop offset="100%" stop-color="#56eaff"/></linearGradient><linearGradient id="d" x1="50%" x2="50%" y1="0%" y2="100%"><stop offset="0%" stop-color="#c6faff"/><stop offset="96.932%" stop-color="#56eaff"/></linearGradient><linearGradient id="e" x1="50%" x2="50%" y1="0%" y2="100%"><stop offset="0%" stop-color="#c6faff"/><stop offset="96.932%" stop-color="#56eaff"/></linearGradient><linearGradient id="f" x1="50%" x2="50%" y1="0%" y2="100%"><stop offset="0%" stop-color="#c6faff"/><stop offset="96.932%" stop-color="#56eaff"/></linearGradient><linearGradient id="g" x1="50%" x2="50%" y1="0%" y2="100%"><stop offset="0%" stop-color="#c6faff"/><stop offset="96.932%" stop-color="#56eaff"/></linearGradient><linearGradient id="h" x1="50%" x2="50%" y1="0%" y2="100%"><stop offset="0%" stop-color="#c6faff"/><stop offset="96.932%" stop-color="#56eaff"/></linearGradient><linearGradient id="i" x1="50%" x2="50%" y1="0%" y2="100%"><stop offset="0%" stop-color="#007697"/><stop offset="100%" stop-color="#003d55"/></linearGradient><linearGradient id="j" x1="50%" x2="50%" y1="0%" y2="100%"><stop offset="0%" stop-color="#08506a"/><stop offset="100%" stop-color="#001b3f"/></linearGradient><linearGradient id="k" x1="50%" x2="50%" y1="0%" y2="100%"><stop offset="0%" stop-color="#08506a"/><stop offset="100%" stop-color="#001b3f"/></linearGradient><linearGradient id="l" x1="50%" x2="50%" y1="0%" y2="100%"><stop offset="0%" stop-color="#03416c"/><stop offset="100%" stop-color="#0297e4"/></linearGradient><filter id="a" width="131.2%" height="132%" x="-15.6%" y="-16%" filterUnits="objectBoundingBox"><feOffset dy="2" in="SourceAlpha" result="shadowOffsetOuter1"/><feGaussianBlur in="shadowOffsetOuter1" result="shadowBlurOuter1" stdDeviation="2"/><feColorMatrix in="shadowBlurOuter1" result="shadowMatrixOuter1" values="0 0 0 0 0 0 0 0 0 0 0 0 0 0 0 0 0 0 0.2 0"/><feMerge><feMergeNode in="shadowMatrixOuter1"/><feMergeNode in="SourceGraphic"/></feMerge></filter></defs><g fill="none" filter="url(#a)" transform="translate(10 10)"><path fill="url(#b)" d="M44.003 2 48 3.021v10l6 1v16h11l5 1v4l5 1-.022 32H70v5H48l-3.997-2v-3l-5.097-1H16l-4-2.996v-3.004l-4.837-3v-7l-5.163-3V33.005h5V17.021h5v-10h6V2z"/><path fill="url(#c)" d="M18 2.021h30v1H18z"/><path fill="url(#d)" d="M48 13.021h7v1h-7z"/><path fill="url(#e)" d="M70 35.021h6v1h-6z"/><path fill="url(#f)" d="M49 30.021h21v1H54z"/><path fill="url(#g)" d="M44 34.021h10v1h-5z"/><path fill="url(#g)" d="M2 33.021h5l5 1H7z"/><path fill="url(#g)" d="M7 17.021h5l5 1h-5z"/><path fill="url(#h)" d="M12 7.021h6l5 1H12z"/><path fill="url(#i)" d="m18 0-.15.005A2 2 0 0 0 16 2v3.021h-4l-.15.005A2 2 0 0 0 10 7.021v8H7l-.15.005A2 2 0 0 0 5 17.021v13.983H2a2 2 0 0 0-2 2v15.017l.007.163a2 2 0 0 0 .988 1.566l3.997 2.271.001 5.849.007.166c.05.606.544 1.31 1.055 1.65L10 62.311v1.714a2 2 0 0 0 .902 1.672l4 2.996.143.085a2 2 0 0 0 .955.243h22.715l3.288.645v1.355c0 .8.478 1.675 1.214 1.99l3.996 1.849a2 2 0 0 0 .787.161h22l.15-.005A2 2 0 0 0 72 73.02v-3h2.978a2 2 0 0 0 2-1.999l.022-32-.006-.157a2 2 0 0 0-1.602-1.805L72 33.38v-2.36a2 2 0 0 0-1.257-1.857l-5-1-.18-.062A2 2 0 0 0 65 28.02h-9v-14l-.006-.162a2 2 0 0 0-1.665-1.81L50 11.326V3.021a2 2 0 0 0-1.505-1.938L44.498.063A2 2 0 0 0 44.003 0zm26.003 2L48 3.021v10l6 1v16h11l5 1v4l5 1-.022 32H70v5H48l-3.997-2v-3l-5.097-1H16l-4-2.996V61.02l-5-3v-7l-5-3V33.005h5V17.02h5v-10h6V2z"/><rect width="6" height="15" x="22" y="14.021" fill="url(#j)" rx="1"/><rect width="6" height="12" x="53" y="41.021" fill="url(#k)" rx="1"/><rect width="6" height="15" x="33" y="14.021" fill="url(#j)" rx="1"/><rect width="6" height="12" x="64" y="41.021" fill="url(#k)" rx="1"/><path fill="url(#l)" d="M48 68.021v5l-4-2v-3zm-4-5v5l-5-1v-4zm-28-2v6l-4-3v-3zm-4-10v10l-5-3v-7zm32-17 5 1v24l-5-1zm-42-1 5 1v17l-5-3zm47-3 5 1v4l-5-1zm-42-13 5 1v16l-5-1zm5-10 5 1v10l-5-1zm6-5 5 1v5l-5-1z"/></g></svg>