<svg xmlns="http://www.w3.org/2000/svg" viewBox="0 0 64 64"><path d="M32 5A28 28 0 0 0 4 33a28 28 0 0 0 28 28 28 28 0 0 0 28-28A28 28 0 0 0 32 5" opacity=".2"/><path fill="#4f4f4f" d="M32 4A28 28 0 0 0 4 32a28 28 0 0 0 28 28 28 28 0 0 0 28-28A28 28 0 0 0 32 4"/><path fill-rule="evenodd" d="M30.231 16s1.295 1.03 1.769 1.417h1.417C33.81 16.924 34.785 16 34.785 16s9.354 22.985 13.27 32.723c.071.16.043.21-.142.087L28.669 37.179 16.867 48.952Z" opacity=".2"/><path fill="#f07800" fill-rule="evenodd" d="M22.858 31.67c0-.224.383-.405.866-.405l.075.001h.66l-1.153 3.016-1.29-.49s.842-1.897.842-2.121"/><path fill="#ff8f13" fill-rule="evenodd" d="M30.231 15s1.295 1.03 1.769 1.417h1.417C33.81 15.924 34.785 15 34.785 15s9.354 22.985 13.27 32.723c.071.16.043.21-.142.087L28.669 36.179 16.867 47.952Z"/><path fill-rule="evenodd" d="M23.724 33.013h20.5c.136 0 .128.043 0 .123l-28.147 16.81c-.171.102-.21.058-.123-.123l6.904-17.243s-.065.393.866.433" opacity=".2"/><path fill="#ffc30e" fill-rule="evenodd" d="M23.724 32.013h20.5c.136 0 .128.043 0 .123l-28.147 16.81c-.171.102-.21.058-.123-.123l6.904-17.243s-.065.393.866.433"/><path fill-rule="evenodd" d="M34.785 16h-4.554l2.248 3z" opacity=".2"/><path fill="#ffc30e" fill-rule="evenodd" d="M34.785 15h-4.554l2.248 3z"/><path fill="#fff" d="M32 4A28 28 0 0 0 4 32l.021.414A28 28 0 0 1 32 5a28 28 0 0 1 27.979 27.586A28 28 0 0 0 60 32 28 28 0 0 0 32 4" opacity=".1"/><path fill="#fff" fill-rule="evenodd" d="m22.857 31.58-6.904 17.242c-.087.182-.048.227.123.125l.299-.177 6.482-16.19s-.063.394.868.434h19.029l1.469-.877c.128-.08.137-.124.002-.123h-20.5c-.931-.04-.868-.434-.868-.434" opacity=".2"/></svg>