<svg xmlns="http://www.w3.org/2000/svg" xmlns:xlink="http://www.w3.org/1999/xlink" viewBox="0 0 96 96"><defs><radialGradient id="b" cx="53.265%" cy="44.308%" r="60.965%" fx="53.265%" fy="44.308%"><stop offset="0%" stop-color="#ff8a1e"/><stop offset="100%" stop-color="#f86a00"/></radialGradient><filter id="a" width="130.8%" height="130.8%" x="-15.4%" y="-15.4%" filterUnits="objectBoundingBox"><feOffset dy="2" in="SourceAlpha" result="shadowOffsetOuter1"/><feGaussianBlur in="shadowOffsetOuter1" result="shadowBlurOuter1" stdDeviation="2"/><feColorMatrix in="shadowBlurOuter1" result="shadowMatrixOuter1" values="0 0 0 0 0 0 0 0 0 0 0 0 0 0 0 0 0 0 0.2 0"/><feMerge><feMergeNode in="shadowMatrixOuter1"/><feMergeNode in="SourceGraphic"/></feMerge></filter></defs><g fill="none" fill-rule="evenodd" filter="url(#a)" transform="translate(9 9)"><rect width="78" height="78" fill="url(#b)" fill-rule="nonzero" rx="18"/><path fill="#442600" d="M37.5 13C52.688 13 65 24.64 65 39c0 7.57-3.421 14.383-8.881 19.135A333 333 0 0 1 62.294 65L54 69.216q-2.727-3.792-5.09-6.554A28.7 28.7 0 0 1 37.5 65C22.312 65 10 53.36 10 39s12.312-26 27.5-26m0 7C28.387 20 21 28.507 21 39s7.387 19 16.5 19a14.5 14.5 0 0 0 5.481-1.074q-1.13-.803-2.126-1.22a90 90 0 0 0-9.884-3.504v-6.784q12.218.01 17.624 5.066.591.554 1.218 1.16C52.417 48.288 54 43.857 54 39c0-10.493-7.387-19-16.5-19"/></g></svg>