<svg xmlns="http://www.w3.org/2000/svg" xmlns:xlink="http://www.w3.org/1999/xlink" viewBox="0 0 96 96"><defs><linearGradient id="b" x1="50%" x2="50%" y1="0%" y2="100%"><stop offset="0%" stop-color="#fff7fb"/><stop offset="100%" stop-color="#fff7fb"/></linearGradient><linearGradient id="c" x1="50%" x2="50%" y1="0%" y2="100%"><stop offset="0%" stop-color="#f269a6"/><stop offset="100%" stop-color="#ec629f"/></linearGradient><linearGradient id="d" x1="50%" x2="50%" y1="0%" y2="100%"><stop offset="0%" stop-color="#ffddec"/><stop offset="100%" stop-color="#ffb3d5"/></linearGradient><linearGradient id="e" x1="50%" x2="50%" y1="0%" y2="100%"><stop offset="0%" stop-color="#ffcde6"/><stop offset="100%" stop-color="#ff93c3"/></linearGradient><linearGradient id="f" x1="50%" x2="50%" y1="0%" y2="100%"><stop offset="0%" stop-color="#ffddec"/><stop offset="100%" stop-color="#ffb3d5"/></linearGradient><linearGradient id="g" x1="50%" x2="50%" y1="0%" y2="100%"><stop offset="0%" stop-color="#ffddec"/><stop offset="100%" stop-color="#ffb3d5"/></linearGradient><linearGradient id="h" x1="50%" x2="50%" y1="0%" y2="100%"><stop offset="0%" stop-color="#ffddec"/><stop offset="100%" stop-color="#ffb3d5"/></linearGradient><linearGradient id="i" x1="50%" x2="50%" y1="0%" y2="100%"><stop offset="0%" stop-color="#ffddec"/><stop offset="100%" stop-color="#ffb3d5"/></linearGradient><filter id="a" width="128.6%" height="128.6%" x="-14.3%" y="-14.3%" filterUnits="objectBoundingBox"><feOffset dy="2" in="SourceAlpha" result="shadowOffsetOuter1"/><feGaussianBlur in="shadowOffsetOuter1" result="shadowBlurOuter1" stdDeviation="2"/><feColorMatrix in="shadowBlurOuter1" result="shadowMatrixOuter1" values="0 0 0 0 0 0 0 0 0 0 0 0 0 0 0 0 0 0 0.2 0"/><feMerge><feMergeNode in="shadowMatrixOuter1"/><feMergeNode in="SourceGraphic"/></feMerge></filter></defs><g fill="none" filter="url(#a)" transform="translate(6 6)"><circle cx="42" cy="42" r="42" fill="url(#b)"/><path fill="#fff" d="M42 0c23.196 0 42 18.804 42 42S65.196 84 42 84 0 65.196 0 42 18.804 0 42 0m0 1C19.356 1 1 19.356 1 42s18.356 41 41 41 41-18.356 41-41S64.644 1 42 1"/><circle cx="42" cy="42" r="36" fill="url(#c)"/><path fill="#e05693" fill-opacity=".8" d="m30 38 20 37-22.407.001a36.1 36.1 0 0 1-12.614-9.212zm47.8.183L74.05 45H77L61.67 72.155a36 36 0 0 1-3.27 1.9L42 45h30.95L68 36h9.502q.181 1.081.298 2.183M42 6c4.784 0 9.35.933 13.527 2.628L38.5 39 23.026 11.4A35.83 35.83 0 0 1 42 6"/><path fill="#f67cb2" fill-opacity=".8" d="M42 6c4.785 0 9.351.933 13.528 2.628L38.5 39 23.027 11.4A35.83 35.83 0 0 1 42 6M12.768 20.983 20 34H6.892a35.8 35.8 0 0 1 5.876-13.017"/><path fill="#fd74b1" fill-opacity=".6" d="M55.5 57 62 68H49zM76 40l1.967 3.541a35.8 35.8 0 0 1-3.71 14.46L66 58zm-64 7 5 9H8.824a36 36 0 0 1-.751-1.931zM8.03 30.054 13 39H6.123a35.8 35.8 0 0 1 1.906-8.946M75.95 30H67l4-7H53l6.825-12.284C67.272 14.968 73.055 21.803 75.951 30M49 16l6 11H43zm-23.5-1 1.5 3h-3zm1.748-5.848L24 15l-1.732-3.116a36 36 0 0 1 4.98-2.732M55.5 11l1.5 3h-3z"/><path fill="#e95f9c" fill-opacity=".8" d="m40 60 4 7h-8zm11-9-4 7-4-7z"/><path fill="#ee65a2" fill-opacity=".8" d="m58 41 12 22H46zM41.206 6.009 52 24H28L38.71 6.148a36 36 0 0 1 2.495-.14"/><path fill="#fd74b1" fill-opacity=".6" d="m37 58 10.666 19.557A36 36 0 0 1 42 78a35.9 35.9 0 0 1-14.3-2.952zm3-50 7 12H33z"/><path fill="#f46ba8" fill-opacity=".6" d="m19 62 5 9h-3.335q-.525-.387-1.037-.794l-.206-.164-.516-.424a36 36 0 0 1-1.752-1.566l.109.103q-.218-.206-.433-.416l.324.313a36 36 0 0 1-.55-.536l.226.223q-.233-.229-.462-.46l-.191-.196zm48-15 4 7h-8zM51.5 25l2.188 4.375L54.5 28 61 39H48l5.318-9H49z"/><path fill="#fef7fa" stroke="url(#d)" d="M21.364 33.922c2.411 0 4.26.846 5.529 2.251 1.408 1.56 2.1 3.786 2.1 6.249 0 2.393-.777 4.524-2.165 6.04-1.325 1.449-3.204 2.328-5.464 2.346-2.385 0-4.262-.844-5.562-2.252-1.408-1.527-2.135-3.7-2.135-6.134 0-2.457.708-4.68 2.127-6.238 1.285-1.41 3.152-2.262 5.57-2.262Zm-.017 3.56c-1.292 0-2.073.519-2.559 1.295-.57.911-.698 2.25-.698 3.613 0 1.353.162 2.699.734 3.623.496.802 1.28 1.331 2.523 1.331 1.27-.009 2.033-.535 2.506-1.32.554-.922.672-2.27.672-3.634 0-1.368-.103-2.71-.656-3.62-.468-.771-1.23-1.287-2.522-1.287Z"/><path fill="url(#e)" d="M72.606 15.475A40.34 40.34 0 0 1 82.5 42c0 22.368-18.132 40.5-40.5 40.5a40.34 40.34 0 0 1-26.429-9.81l-.418-.366 1.99-2.246A37.35 37.35 0 0 0 42 79.5c20.71 0 37.5-16.79 37.5-37.5a37.34 37.34 0 0 0-8.804-24.142l-.356-.417z"/><path fill="#fef7fa" stroke="url(#f)" d="M58.209 33.922c.637 0 1.4.154 2.293.453V49.81q-4.79 1.278-10.383.498c-1.306-.182-2.173-.687-2.71-1.522-.638-.99-.83-2.397-.83-4.151v-10.28a6.2 6.2 0 0 1 2.247-.433q1.131 0 2.295.437v10.036c0 .69.28 1.316.732 1.768a2.5 2.5 0 0 0 1.768.732h2.82V34.33a4.2 4.2 0 0 1 1.768-.408Z"/><path fill="#fef7fa" stroke="url(#g)" d="M36.638 33.903c1.3-.367 3.438-.01 6.403.995a8.4 8.4 0 0 1-.31 1.772 5.8 5.8 0 0 1-.606 1.366c-2.912-.842-4.593-.896-5.19-.455-.304.225-.455.487-.513.748-.066.3-.009.611.156.898.153.266.4.508.695.68.286.165.613.262.93.262.509 0 2.714.776 4.112 2.257.778.824 1.31 1.886 1.092 3.197-.284 1.712-1.336 2.991-2.697 3.84-1.634 1.021-3.716 1.432-5.524 1.221-2.013-.234-3.314-.5-3.81-.915a4.4 4.4 0 0 1 .145-1.841 5.2 5.2 0 0 1 .813-1.662c3.703.867 5.69.901 6.198.457.286-.25.556-.571.711-.901.164-.35.203-.709.087-1.038-.096-.272-.3-.54-.691-.756-.264-.146-.629-.272-1.122-.356-1.226-.21-3.531-.922-4.855-2.297-.418-.433-.735-.935-.863-1.515-.112-.51-.076-1.079.15-1.709 1.18-3.3 2.405-3.644 4.074-4.082l.303-.08z"/><path fill="#fef7fa" stroke="url(#h)" d="M67.028 26.522q1.101 0 2.202.45v15.194a8.5 8.5 0 0 1-2.276.334q-1.065 0-2.128-.324V26.972a5.8 5.8 0 0 1 2.202-.45Z"/><path fill="#fef7fa" stroke="url(#i)" d="M67.028 45.64q1.152 0 2.303.268.312 1.126.312 2.253a8.2 8.2 0 0 1-.312 2.23 9.4 9.4 0 0 1-2.303.29q-1.166 0-2.332-.297a6.1 6.1 0 0 1-.431-2.223q.001-1.112.43-2.247a10.2 10.2 0 0 1 2.333-.273Z"/></g></svg>