<svg xmlns="http://www.w3.org/2000/svg" xmlns:xlink="http://www.w3.org/1999/xlink" viewBox="0 0 96 96"><defs><linearGradient id="b" x1="21.891%" x2="77.492%" y1="2.674%" y2="94.14%"><stop offset="0%" stop-color="#eee"/><stop offset="100%" stop-color="#2b2b2b"/></linearGradient><filter id="a" width="137.5%" height="130%" x="-18.8%" y="-15%" filterUnits="objectBoundingBox"><feOffset dy="2" in="SourceAlpha" result="shadowOffsetOuter1"/><feGaussianBlur in="shadowOffsetOuter1" result="shadowBlurOuter1" stdDeviation="2"/><feColorMatrix in="shadowBlurOuter1" result="shadowMatrixOuter1" values="0 0 0 0 0 0 0 0 0 0 0 0 0 0 0 0 0 0 0.2 0"/><feMerge><feMergeNode in="shadowMatrixOuter1"/><feMergeNode in="SourceGraphic"/></feMerge></filter></defs><g fill="none" fill-rule="evenodd" filter="url(#a)" transform="translate(15 8)"><path fill="url(#b)" stroke="#000" stroke-width="2" d="M1 1h62v78H1z"/><path fill="#d8d8d8" stroke="#000" stroke-width="2" d="M7 7h50v30H7z"/><path fill="#ccc" stroke="#000" stroke-width="2" d="M7 43h14v7H7zm18 0h14v7H25zm18 0h14v7H43zM7 54h14v7H7zm18 0h14v7H25zm18 0h14v7H43zM7 65h14v7H7zm18 0h14v7H25zm18 0h14v7H43z"/><path fill="#aaa" d="M9 20h46v2H9z"/><path fill="#aaa" d="M32 9h2v26h-2z"/><path fill="#f0f" fill-rule="nonzero" d="M52.253 8.26a.75.75 0 0 1 .252 1.48c-15.5 2.637-29.1 10.368-40.823 23.213a.75.75 0 1 1-1.108-1.011C22.516 18.857 36.414 10.956 52.253 8.26"/><path fill="#0f0" fill-rule="nonzero" d="M53.064 9.346a.75.75 0 0 1 .82 1.252l-.085.056-42.304 23.755a.75.75 0 0 1-.82-1.252l.086-.056z"/><path fill="#00f" fill-rule="nonzero" d="M55.449 10.4a.75.75 0 0 1 .152 1.049l-.15.195-.28.343-.345.401-.41.461-.647.708-.763.813-.878.92-1.537 1.578-2.124 2.147-1.898 1.895-1.488 1.476c-3.408 3.37-6.69 4.298-9.975 3.127-2.045-.729-3.778-2.017-6.196-4.437l-.593-.603-.623-.648-2.622-2.766-.415-.426-.246-.244-.318-.3-.272-.246-.317-.28c-1.544-1.36-3.1-1.057-4.996 1.11q-1.37 1.567-2.834 4.342l-.391.761q-.099.196-.197.397l-.396.825a70 70 0 0 0-1.411 3.227l-.41 1.017-.412 1.061-.416 1.103-.208.568a.75.75 0 0 1-1.41-.515q.429-1.173.853-2.262l.422-1.066.42-1.024c1.814-4.343 3.563-7.48 5.261-9.422 2.395-2.738 4.877-3.22 7.117-1.248l.557.496.162.15.34.325.641.655 1.133 1.192 1.44 1.524.591.616.563.571.536.53.513.49.492.45c1.527 1.368 2.781 2.178 4.145 2.664 2.71.965 5.398.205 8.417-2.78l2.392-2.377 1.594-1.598 1.466-1.484 1.042-1.068 1.347-1.4 1.084-1.16.303-.334.52-.585.311-.367.172-.212.142-.184a.75.75 0 0 1 1.05-.152"/></g></svg>