<svg xmlns="http://www.w3.org/2000/svg" xmlns:xlink="http://www.w3.org/1999/xlink" viewBox="0 0 96 96"><defs><filter id="a" width="130.8%" height="130.8%" x="-15.4%" y="-15.4%" filterUnits="objectBoundingBox"><feOffset dy="2" in="SourceAlpha" result="shadowOffsetOuter1"/><feGaussianBlur in="shadowOffsetOuter1" result="shadowBlurOuter1" stdDeviation="2"/><feColorMatrix in="shadowBlurOuter1" result="shadowMatrixOuter1" values="0 0 0 0 0 0 0 0 0 0 0 0 0 0 0 0 0 0 0.2 0"/><feMerge><feMergeNode in="shadowMatrixOuter1"/><feMergeNode in="SourceGraphic"/></feMerge></filter><rect id="b" width="78" height="78" x="0" y="0" rx="18"/><path id="d" d="M0 0h64.951v65H0z"/></defs><g fill="none" fill-rule="evenodd" filter="url(#a)" transform="translate(9 9)"><mask id="c" fill="#fff"><use xlink:href="#b"/></mask><use xlink:href="#b" fill="#fff"/><g mask="url(#c)"><g transform="translate(5.525 6.5)"><mask id="e" fill="#fff"><use xlink:href="#d"/></mask><path fill="#fefefe" d="M11.737 63.494c3.634 0 7.306.042 10.976-.047.52-.013 1.173-.552 1.51-1.028 4.32-6.09 8.597-12.209 12.873-18.329 2.063-2.955 4.408-5.765 6.087-8.927 4.177-7.876-.225-15.671-9.023-16.38-5.68-.457-10.861 3.508-11.624 8.895-.868 6.126 2.258 10.637 8.466 11.978l-9.864 12.745c-.726-4.165-1.346-8.39-2.216-12.565-1.284-6.157-3.196-12.286-2.151-18.626.473-2.869 1.622-5.823 3.204-8.26 1.806-2.78 3.724-2.984 6.44-1.246 4.525 2.894 8.96 2.845 13.519.246.654-.374 1.333-.891 2.034-.951 1.137-.098 2.515-.24 3.415.285 3.198 1.864 4.365 5.058 4.446 8.541.155 6.636.086 13.276.095 19.914.009 7.143-.037 14.286.05 21.427.009.778.684 2.185 1.122 2.215 2.978.197 5.976.103 8.983.103.122-.648.236-.97.235-1.291-.068-14.283.018-28.569-.289-42.846-.161-7.514-6.222-15.271-12.807-17.558-2.496-.866-4.567-.715-6.768 1.018-6.397 5.037-6.496 5.005-12.789-.052-1.829-1.47-3.55-1.783-5.785-1.061C10.407 5.4 3.829 16.965 6.274 29.534c1.408 7.237 3.165 14.41 4.438 21.669.688 3.93.69 7.982 1.025 12.291M0 65h64.95V0H0z" mask="url(#e)"/><path fill="#231916" d="M33.733 25.15c-2.847-.017-4.983 1.924-4.967 4.516.015 2.459 2.19 4.549 4.74 4.559 2.675.01 4.765-2.12 4.722-4.814-.044-2.729-1.643-4.244-4.495-4.262M11.737 63.494c-.336-4.31-.337-8.36-1.025-12.291-1.273-7.26-3.03-14.432-4.438-21.67C3.83 16.966 10.408 5.4 21.876 1.694c2.235-.722 3.956-.408 5.785 1.061 6.293 5.058 6.393 5.09 12.789.053 2.201-1.733 4.272-1.884 6.768-1.018 6.586 2.287 12.646 10.043 12.807 17.558.307 14.277.221 28.564.289 42.846.001.321-.113.643-.234 1.291-3.008 0-6.006.094-8.984-.103-.438-.03-1.114-1.437-1.123-2.215-.086-7.142-.04-14.284-.05-21.427-.008-6.638.06-13.279-.094-19.914-.081-3.483-1.248-6.678-4.446-8.541-.9-.524-2.279-.383-3.415-.285-.701.06-1.38.578-2.034.95-4.56 2.6-8.994 2.65-13.518-.245-2.717-1.738-4.636-1.534-6.442 1.246-1.58 2.436-2.73 5.391-3.203 8.26-1.045 6.34.867 12.47 2.151 18.626.87 4.174 1.49 8.4 2.216 12.565l9.864-12.745c-6.208-1.341-9.334-5.852-8.466-11.979.763-5.386 5.945-9.35 11.624-8.894 8.798.709 13.2 8.504 9.022 16.38-1.677 3.162-4.023 5.972-6.086 8.927-4.275 6.12-8.554 12.24-12.872 18.33-.338.475-.992 1.014-1.511 1.027-3.67.088-7.342.047-10.976.047"/><path fill="#ffffb0" d="M33.733 25.15c2.852.017 4.45 1.532 4.495 4.26.043 2.695-2.047 4.825-4.721 4.815-2.552-.01-4.726-2.1-4.741-4.559-.016-2.592 2.12-4.533 4.967-4.517"/></g></g></g></svg>