<svg xmlns="http://www.w3.org/2000/svg" xmlns:xlink="http://www.w3.org/1999/xlink" viewBox="0 0 64 64"><path d="M26 5a14 14 0 0 0-13.535 10.494A13 13 0 0 0 3 28a13 13 0 0 0 13 13 13 13 0 0 0 1.814-.143A14 14 0 0 0 30 48a14 14 0 0 0 10.813-5.117A10.5 10.5 0 0 0 45.5 44 10.5 10.5 0 0 0 56 33.5l-.002-.062A10.5 10.5 0 0 0 61 24.5a10.5 10.5 0 0 0-9.748-10.463A8.5 8.5 0 0 0 43.5 9a8.5 8.5 0 0 0-5.812 2.305A14 14 0 0 0 26 5m14 43a5 5 0 0 0-5 5 5 5 0 0 0 5 5 5 5 0 0 0 5-5 5 5 0 0 0-5-5m-15 5a4 4 0 0 0-4 4 4 4 0 0 0 4 4 4 4 0 0 0 4-4 4 4 0 0 0-4-4" opacity=".2"/><circle cx="36.614" cy="21.114" r="7.25" fill="#e4e4e4"/><circle cx="26" cy="18" r="14" fill="#e4e4e4"/><circle cx="43.5" cy="16.5" r="8.5" fill="#e4e4e4"/><circle cx="16" cy="27" r="13" fill="#e4e4e4"/><circle cx="50.5" cy="23.5" r="10.5" fill="#e4e4e4"/><circle cx="45.5" cy="32.5" r="10.5" fill="#e4e4e4"/><circle cx="30" cy="33" r="14" fill="#e4e4e4"/><use xlink:href="#a" width="100%" height="100%" opacity=".1" transform="matrix(.09033 0 0 .10572 3.004 1.28)"/><use xlink:href="#a" width="100%" height="100%" fill="#68b723" transform="matrix(.09033 0 0 .10572 3.004 .28)"/><use xlink:href="#b" width="100%" height="100%" opacity=".1" transform="matrix(.09798 0 0 .1057 -.113 1.283)"/><use xlink:href="#b" width="100%" height="100%" fill="#c6262e" transform="matrix(.09798 0 0 .1057 -.113 .283)"/><use xlink:href="#c" width="100%" height="100%" opacity=".1" transform="matrix(.09033 0 0 .1057 3.004 1.283)"/><use xlink:href="#c" width="100%" height="100%" fill="#3689e6" transform="matrix(.09033 0 0 .1057 3.004 .283)"/><circle cx="40" cy="52" r="5" fill="#e4e4e4"/><circle cx="25" cy="56" r="4" fill="#e4e4e4"/><path fill="#fff" d="M26 4a14 14 0 0 0-13.535 10.494A13 13 0 0 0 3 27a13 13 0 0 0 .023.488 13 13 0 0 1 9.442-11.994A14 14 0 0 1 26 5a14 14 0 0 1 11.688 6.305A8.5 8.5 0 0 1 43.5 9a8.5 8.5 0 0 1 7.752 5.037 10.5 10.5 0 0 1 9.725 9.983A11 11 0 0 0 61 23.5a10.5 10.5 0 0 0-9.748-10.463A8.5 8.5 0 0 0 43.5 8a8.5 8.5 0 0 0-5.812 2.305A14 14 0 0 0 26 4m14 43a5 5 0 0 0-5 5 5 5 0 0 0 .027.516A5 5 0 0 1 40 48a5 5 0 0 1 4.973 4.484A5 5 0 0 0 45 52a5 5 0 0 0-5-5m-15 5a4 4 0 0 0-4 4 4 4 0 0 0 .035.506A4 4 0 0 1 25 53a4 4 0 0 1 3.965 3.494A4 4 0 0 0 29 56a4 4 0 0 0-4-4" opacity=".2"/></svg>