<svg xmlns="http://www.w3.org/2000/svg" xmlns:xlink="http://www.w3.org/1999/xlink" viewBox="0 0 96 96"><defs><linearGradient id="e" x1="95.003%" x2="0%" y1="50%" y2="50%"><stop offset="0%" stop-color="#b0b6b7"/><stop offset="100%" stop-color="#eff1f1"/></linearGradient><linearGradient id="f" x1="96.085%" x2="0%" y1="52.713%" y2="52.713%"><stop offset="0%" stop-color="#3a946f"/><stop offset="100%" stop-color="#71e17c"/></linearGradient><linearGradient id="g" x1="100%" x2="0%" y1="50%" y2="50%"><stop offset="0%" stop-color="#fff" stop-opacity=".4"/><stop offset="100%" stop-opacity=".3"/></linearGradient><linearGradient id="h" x1="38.509%" x2="50%" y1="0%" y2="100%"><stop offset="0%" stop-color="#fff" stop-opacity=".1"/><stop offset="100%" stop-color="#fff"/></linearGradient><linearGradient id="i" x1="50%" x2="50%" y1="0%" y2="100%"><stop offset="0%" stop-opacity=".6"/><stop offset="100%"/></linearGradient><filter id="a" width="130%" height="131.3%" x="-15%" y="-15%" filterUnits="objectBoundingBox"><feOffset dy="2" in="SourceAlpha" result="shadowOffsetOuter1"/><feGaussianBlur in="shadowOffsetOuter1" result="shadowBlurOuter1" stdDeviation="2"/><feColorMatrix in="shadowBlurOuter1" result="shadowMatrixOuter1" values="0 0 0 0 0 0 0 0 0 0 0 0 0 0 0 0 0 0 0.2 0"/><feMerge><feMergeNode in="shadowMatrixOuter1"/><feMergeNode in="SourceGraphic"/></feMerge></filter><filter id="c" width="101.3%" height="102.5%" x="-.6%" y="-.6%" filterUnits="objectBoundingBox"><feOffset dy="1" in="SourceAlpha" result="shadowOffsetOuter1"/><feColorMatrix in="shadowOffsetOuter1" values="0 0 0 0 0 0 0 0 0 0 0 0 0 0 0 0 0 0 0.4 0"/></filter><path id="b" d="M45 2v3.355a34.8 34.8 0 0 1 7.995 2.137L54.67 4.59a2 2 0 0 1 2.732-.732l5.196 3a2 2 0 0 1 .732 2.732l-1.678 2.91a35.2 35.2 0 0 1 5.849 5.85l2.908-1.68a2 2 0 0 1 2.732.733l3 5.196a2 2 0 0 1-.732 2.732l-2.9 1.675A34.8 34.8 0 0 1 74.645 35H78a2 2 0 0 1 2 2v6a2 2 0 0 1-2 2h-3.355a34.8 34.8 0 0 1-2.137 7.995l2.901 1.675a2 2 0 0 1 .732 2.732l-3 5.196a2 2 0 0 1-2.732.732L67.5 61.652a35.2 35.2 0 0 1-5.85 5.849l1.68 2.908a2 2 0 0 1-.733 2.732l-5.196 3a2 2 0 0 1-2.732-.732l-1.675-2.9A34.8 34.8 0 0 1 45 74.644V78a2 2 0 0 1-2 2h-6a2 2 0 0 1-2-2v-3.354a34.8 34.8 0 0 1-7.995-2.138L25.33 75.41a2 2 0 0 1-2.732.732l-5.196-3a2 2 0 0 1-.732-2.732l1.678-2.908a35.2 35.2 0 0 1-5.849-5.85l-2.908 1.68a2 2 0 0 1-2.732-.733l-3-5.196a2 2 0 0 1 .732-2.732l2.9-1.675A34.8 34.8 0 0 1 5.356 45H2a2 2 0 0 1-2-2v-6a2 2 0 0 1 2-2h3.354a34.8 34.8 0 0 1 2.138-7.995L4.59 25.33a2 2 0 0 1-.732-2.732l3-5.196a2 2 0 0 1 2.732-.732l2.908 1.678a35.2 35.2 0 0 1 5.85-5.849l-1.68-2.908a2 2 0 0 1 .733-2.732l5.196-3a2 2 0 0 1 2.732.732l1.675 2.9A34.8 34.8 0 0 1 35 5.355V2a2 2 0 0 1 2-2h6a2 2 0 0 1 2 2"/></defs><g fill="none" fill-rule="evenodd" filter="url(#a)" transform="translate(8 8)"><use xlink:href="#b" fill="#000" filter="url(#c)"/><use xlink:href="#b" fill="url(#e)"/><circle cx="40" cy="40" r="27" fill="url(#f)"/><path fill="#000" fill-opacity=".5" fill-rule="nonzero" d="M40 13c14.912 0 27 12.088 27 27S54.912 67 40 67 13 54.912 13 40s12.088-27 27-27m0 1c-14.36 0-26 11.64-26 26s11.64 26 26 26 26-11.64 26-26-11.64-26-26-26"/><path fill="url(#g)" fill-rule="nonzero" d="M40 12c-15.464 0-28 12.536-28 28s12.536 28 28 28 28-12.536 28-28-12.536-28-28-28m0 1c14.912 0 27 12.088 27 27S54.912 67 40 67 13 54.912 13 40s12.088-27 27-27"/><ellipse cx="31.191" cy="47.126" fill="url(#h)" rx="12.5" ry="19" transform="rotate(-36 31.19 47.126)"/><path fill="url(#i)" d="m29.007 44.177 3.99 9.433a1 1 0 0 1-.92 1.39h-7.982a1 1 0 0 1-.921-1.39l3.99-9.433a1 1 0 0 1 1.843 0" transform="rotate(55 28.086 48.5)"/></g></svg>