<svg xmlns="http://www.w3.org/2000/svg" viewBox="0 0 64 64"><rect width="34" height="42" x="15" y="19" opacity=".2" rx="2.833" ry="2.8"/><path fill="#8e8e8e" d="M33.375 13c-.762 0-1.375.557-1.375 1.25V18h11v-3.75c0-.693-.613-1.25-1.375-1.25Z"/><path fill="#b7b7b7" d="M35 5h5v8h-5z"/><rect width="34" height="42" x="15" y="18" fill="#4f4f4f" rx="2.833" ry="2.8"/><path d="M21 24h22v11H21z" opacity=".2"/><path fill="#b7b7b7" d="M26 24h12v11H26z"/><path fill="#c77640" d="M21 28v7h22v-7z"/><path fill="#fff" d="M17.834 18C16.264 18 15 19.25 15 20.8v1c0-1.55 1.264-2.8 2.834-2.8h28.332C47.736 19 49 20.25 49 21.8v-1c0-1.55-1.264-2.8-2.834-2.8z" opacity=".1"/><path d="M21 24h22v1H21z" opacity=".2"/><path fill="#fff" d="M21 28h22v1H21zM35 5h5v1h-5z" opacity=".2"/></svg>