<svg xmlns="http://www.w3.org/2000/svg" xmlns:xlink="http://www.w3.org/1999/xlink" viewBox="0 0 96 96"><defs><linearGradient id="c" x1="42.912%" x2="42.912%" y1="-106.46%" y2="139.355%"><stop offset="0%" stop-color="#f27742"/><stop offset="100%" stop-color="#e1421f"/></linearGradient><filter id="a" width="130.8%" height="130.8%" x="-15.4%" y="-15.4%" filterUnits="objectBoundingBox"><feOffset dy="2" in="SourceAlpha" result="shadowOffsetOuter1"/><feGaussianBlur in="shadowOffsetOuter1" result="shadowBlurOuter1" stdDeviation="2"/><feColorMatrix in="shadowBlurOuter1" result="shadowMatrixOuter1" values="0 0 0 0 0 0 0 0 0 0 0 0 0 0 0 0 0 0 0.2 0"/><feMerge><feMergeNode in="shadowMatrixOuter1"/><feMergeNode in="SourceGraphic"/></feMerge></filter><rect id="b" width="78" height="78" x="0" y="0" rx="18"/></defs><g fill="none" fill-rule="evenodd"><g filter="url(#a)" transform="translate(9 9)"><use xlink:href="#b" fill="#fff"/></g><path fill="url(#c)" d="M48 51v9h-8v16h-9V60h-8v-9zm18.5 0a8.5 8.5 0 1 1 0 17H61v8h-9V51zm0 7H61v3h5.5a1.5 1.5 0 0 0 .144-2.993zM32 22v8h6v-8h9v25h-9v-8h-6v8h-9V22zm43 0v9h-8v16h-9V30.999L50 31v-9z"/></g></svg>