<svg xmlns="http://www.w3.org/2000/svg" xmlns:xlink="http://www.w3.org/1999/xlink" viewBox="0 0 96 96"><defs><filter id="a" width="128.6%" height="128.6%" x="-14.3%" y="-14.3%" filterUnits="objectBoundingBox"><feOffset dy="2" in="SourceAlpha" result="shadowOffsetOuter1"/><feGaussianBlur in="shadowOffsetOuter1" result="shadowBlurOuter1" stdDeviation="2"/><feColorMatrix in="shadowBlurOuter1" result="shadowMatrixOuter1" values="0 0 0 0 0 0 0 0 0 0 0 0 0 0 0 0 0 0 0.2 0"/><feMerge><feMergeNode in="shadowMatrixOuter1"/><feMergeNode in="SourceGraphic"/></feMerge></filter><filter id="e" width="102.4%" height="102.4%" x="-1.2%" y="-1.2%" filterUnits="objectBoundingBox"><feOffset dy="-2" in="SourceAlpha" result="shadowOffsetInner1"/><feComposite in="shadowOffsetInner1" in2="SourceAlpha" k2="-1" k3="1" operator="arithmetic" result="shadowInnerInner1"/><feColorMatrix in="shadowInnerInner1" values="0 0 0 0 0 0 0 0 0 0 0 0 0 0 0 0 0 0 0.2 0"/></filter><linearGradient id="c" x1="50%" x2="50%" y1="0%" y2="100%"><stop offset="0%" stop-color="#92f6db"/><stop offset="100%" stop-color="#80e8cc"/></linearGradient><circle id="b" cx="42" cy="42" r="42"/></defs><g fill="none" fill-rule="evenodd" filter="url(#a)" transform="translate(6 6)"><use xlink:href="#b" fill="url(#c)"/><use xlink:href="#b" fill="#000" filter="url(#e)"/><path fill="#024d48" fill-rule="nonzero" d="M16.757 48v-7.786h1.887V38.65h-1.887v-1.19c0-1.139.408-1.683 1.241-1.683.323 0 .68.085 1.02.238l.391-1.462a4.3 4.3 0 0 0-1.649-.323c-2.091 0-2.958 1.326-2.958 3.247v1.173l-1.275.102v1.462h1.275V48zm5.325 0v-5.831c.595-1.479 1.513-2.006 2.278-2.006.374 0 .612.051.935.153l.357-1.7c-.289-.136-.595-.204-1.054-.204-1.003 0-1.989.714-2.652 1.921h-.051l-.153-1.683h-1.598V48zm8.521.221c1.224 0 2.295-.408 3.162-.986l-.68-1.241c-.68.442-1.394.697-2.227.697-1.615 0-2.737-1.071-2.89-2.856h6.069c.051-.221.085-.612.085-.986 0-2.652-1.326-4.437-3.808-4.437-2.193 0-4.267 1.887-4.267 4.93 0 3.077 2.023 4.879 4.556 4.879m1.836-5.729h-4.488c.187-1.649 1.224-2.55 2.397-2.55 1.36 0 2.091.935 2.091 2.55m7.569 5.729c1.224 0 2.295-.408 3.162-.986l-.68-1.241c-.68.442-1.394.697-2.227.697-1.615 0-2.737-1.071-2.89-2.856h6.069c.051-.221.085-.612.085-.986 0-2.652-1.326-4.437-3.808-4.437-2.193 0-4.267 1.887-4.267 4.93 0 3.077 2.023 4.879 4.556 4.879m1.836-5.729h-4.488c.187-1.649 1.224-2.55 2.397-2.55 1.36 0 2.091.935 2.091 2.55M47.458 48v-5.831c.595-1.479 1.513-2.006 2.278-2.006.374 0 .612.051.935.153l.357-1.7c-.289-.136-.595-.204-1.054-.204-1.003 0-1.989.714-2.652 1.921h-.051l-.153-1.683H45.52V48zm7.858.221c1.054 0 2.023-.561 2.72-1.275h.051l.17 1.054h1.598V34.451H57.9v3.468l.085 1.547c-.765-.646-1.445-1.054-2.516-1.054-2.091 0-4.012 1.887-4.012 4.93 0 3.094 1.513 4.879 3.859 4.879m.459-1.615c-1.462 0-2.295-1.173-2.295-3.298 0-2.023 1.054-3.264 2.363-3.264.697 0 1.36.221 2.057.85v4.573c-.68.782-1.343 1.139-2.125 1.139m8.759 5.185v-3.026l-.051-1.598c.799.68 1.632 1.054 2.465 1.054 2.108 0 4.029-1.836 4.029-5.049 0-2.873-1.326-4.76-3.706-4.76-1.037 0-2.057.578-2.873 1.258h-.051l-.153-1.02h-1.598v13.141zm2.04-5.185c-.578 0-1.309-.221-2.04-.85v-4.573c.799-.765 1.496-1.139 2.227-1.139 1.564 0 2.193 1.207 2.193 3.162 0 2.193-1.02 3.4-2.38 3.4"/></g></svg>