<svg xmlns="http://www.w3.org/2000/svg" xmlns:xlink="http://www.w3.org/1999/xlink" viewBox="0 0 96 96"><defs><linearGradient id="b" x1="50%" x2="50%" y1="0%" y2="100%"><stop offset="0%" stop-color="#4f4f4f"/><stop offset="100%" stop-color="#0f0f0f"/></linearGradient><filter id="a" width="131.3%" height="130.8%" x="-15.9%" y="-15.4%" filterUnits="objectBoundingBox"><feOffset dy="2" in="SourceAlpha" result="shadowOffsetOuter1"/><feGaussianBlur in="shadowOffsetOuter1" result="shadowBlurOuter1" stdDeviation="2"/><feColorMatrix in="shadowBlurOuter1" result="shadowMatrixOuter1" values="0 0 0 0 0 0 0 0 0 0 0 0 0 0 0 0 0 0 0.2 0"/><feMerge><feMergeNode in="shadowMatrixOuter1"/><feMergeNode in="SourceGraphic"/></feMerge></filter></defs><g fill="none" fill-rule="evenodd" filter="url(#a)" transform="translate(9.416 9)"><rect width="78" height="78" x="-.416" fill="url(#b)" rx="18"/><path fill="#f4ca8d" d="M20.574 61.464c0-.1-.005-.2 0-.298.01-.152-.067-.198-.205-.191-.1.005-.199 0-.298 0-1.15 0-2.64.002-3.789-.001-.3-.001-.308-.009-.308-.309 0-4.128.003-8.396.005-12.524q.001-.02.005-.043c.09-.102.213-.06.32-.058 2.545.066 5.177-.153 7.722-.099.184.004.368-.012.551-.022 1.207.051 2.161.01 3.368.024.681.008.763.084.768.759.006.951-.003 1.578.003 2.529.003.534.07.617.615.635.937.033 2.55.007 3.486.013.767.004.83.063.832.82.002 2.314 0 5.092.001 7.407 0 .664.008.672.657.672H44.8c.632 0 .647-.015.648-.64.002-2.229 0-4.922 0-7.151l.002-.384c.01-.632.09-.718.712-.722.966-.007 2.635.001 3.601-.004.602-.003.647-.049.65-.663.004-.965-.006-1.606.004-2.571.006-.599.1-.69.698-.698 1.235-.018 2.23.024 3.466-.026.437.025.876.029 1.314.023 2.317-.028 4.364.167 6.682.097.083-.003.17-.016.243.046.007.141.019.283.019.424l.001 11.967v.128c-.004.367-.005.37-.372.37q-1.744.003-3.489 0c-.438 0-.4.003-.4.388v3.022c0 .14-.013.282-.02.423-.137.05-.28.027-.421.027l-12.084.001c-.556 0-.596-.033-.603-.603-.01-.965 0-1.549-.005-2.514-.003-.548-.032-.578-.58-.579a9401 9401 0 0 0-10.621 0c-.563 0-.59.03-.592.612-.004.923.003 1.464-.003 2.387-.004.685-.02.697-.682.697-3.919 0-8.009 0-11.928-.002-.151 0-.312.05-.455-.049z"/><path fill="#66635b" d="M24.094 48.062c-2.546.01-5.182.016-7.729.024-.127 0-.254.008-.381.012.093-.168.253-.092.382-.093 1.122-.006 2.244-.003 3.366-.004.099 0 .199-.004.298-.001.147.002.2-.077.197-.213l.002-.34V35.573c0-.573-.052-.535.521-.535l3.451-.001c.413 0 .416-.004.416-.427v-8.099c0-.537-.048-.51.503-.51L28.315 26c.433 0 .434-.003.434-.451.001-3.92 0-7.107.002-11.026 0-.634-.065-.57.568-.572 1.051-.003 2.102 0 3.153-.001.601 0 .537.044.538-.56.002-1.08 0-1.849 0-2.928q0-.15.006-.298c.005-.101.066-.154.163-.158q.17-.007.34-.006h11.759c.55 0 .514-.042.514.498v2.892c.002.65-.066.61.63.61q1.598-.002 3.196 0c.432 0 .434.003.434.45l.001 10.977c0 .585-.06.575.581.574 1.094-.002 2.458-.002 3.552 0 .393 0 .397.005.397.4.002 2.529.001 5.572.001 8.1 0 .535 0 .536.533.536h2.967c.516 0 .49-.033.49.482v11.914c0 .633-.066.565.573.567 1.093.003 2.187-.002 3.28.004.131 0 .287-.067.392.08l-7.783-.022c-.155 0-.314.026-.456-.067-.197-.197-.143-.45-.144-.685-.005-2.285-.002-5.1-.003-7.385 0-.76 0-.76-.78-.762-.909 0-2.083.007-2.992-.003-.62-.007-.75-.136-.752-.757-.007-2.37-.001-4.278-.004-6.648 0-.21.034-.428-.076-.625-.142-.167-.337-.126-.517-.126q-1.008-.005-3.232 0-.637.519-.638 0c-.004-2.64-.019-6.33.006-8.97-.019-1.19-.002-2.087-.01-3.276-.003-.552-.025-.574-.574-.576-.95-.003-1.642-.003-2.591 0-.54.002-.566.028-.568.586-.004.949 0 1.605-.003 2.554 0 .211.02.426-.069.629-.126.199-.333.194-.527.196-1.098.008-1.938.009-3.035 0-.198-.002-.398-.017-.539-.189-.116-.193-.097-.41-.098-.62-.003-.979.003-1.664-.003-2.642-.003-.472-.042-.51-.51-.513-.992-.005-1.694-.005-2.686 0-.463.003-.498.04-.501.521-.01 1.177.008 2.06-.008 3.237.02 2.65.007 5.732.006 8.382q0 .6-.701.68H29.5q-.373-.033-.52.118c-.149.203-.1.438-.1.66-.004 2.257-.003 4.053-.003 6.31 0 .156.004.312-.003.468-.02.488-.117.592-.618.6-.951.014-1.813.004-2.764.005-.785 0-.786 0-.786.794 0 2.27.002 5.071-.002 7.342 0 .237.048.487-.116.699-.153.112-.329.06-.494.062m-3.043 16.745h12.052c.417-.003.42-.003.42-.418.002-1.122 0-1.861.001-2.983 0-.406.003-.41.384-.41 4.003-.002 7.295-.002 11.298 0 .385 0 .387.004.388.405.002 1.107 0 1.832 0 2.94.001.465.002.466.46.467h12.505c-.076.129-.203.075-.307.075-4.073.003-8.345.024-12.418-.003-4.243-.028-7.776-.03-12.02-.01-4.228.019-8.628.002-12.857.012-.125 0-.29.085-.373-.098.156.008.311.023.467.023"/><path fill="#fff" d="M24.584 39.336c0-.326.007-.334.33-.335 1.177-.003 2.266 0 3.444-.001.392-.001.395-.004.395-.395.001-2.555-.001-4.649.006-7.204 0-.152-.097-.347.11-.457.041-.007.083-.015.126-.016q5.402-.124 16.002.038 3.591-.058 5.003-.02c.103.142.054.304.054.455.004 2.498.002 4.534.002 7.031 0 .1.008.2 0 .298-.02.206.075.275.273.272.482-.008.965-.002 1.447-.002.738 0 1.742-.003 2.48 0 .32.002.326.008.327.333a4090 4090 0 0 1-.003 8.663c-.137.11-.3.066-.451.067-1.136.003-2.032 0-3.167.003-.4 0-.405.004-.406.397-.002 1.108 0 1.89 0 2.997-.001.53-.01.539-.556.54-1.065.002-2.833 0-3.898 0l-.298.003c-.137 0-.21.064-.21.206l-.003.34v7.747q.002.15 0 .298c-.01.31-.011.311-.305.324-.071.003-.143 0-.213 0H34.03c-.55 0-.51.036-.51-.502v-8.003c-.006-.409-.006-.411-.434-.412h-3.614c-.888-.001-.888-.002-.888-.86 0-1.008.002-1.69-.001-2.699-.001-.37-.007-.375-.383-.376-1.121-.003-1.99-.001-3.112-.001-.17 0-.342.02-.5-.065-.002-2.711-.004-5.953-.004-8.664"/><path fill="#f4ca8d" d="M49.534 30.966q-5.273-.003-15.225.038-3.517-.04-4.977-.039c-.155 0-.31-.014-.465-.021.134-.076.278-.035.416-.036q1.105-.004 3.91.096h.414l.002-8.601c0-.156.01-.311.015-.466.132-.072.276-.054.417-.054 1.121.002 1.952.002 3.073 0 .157 0 .313 0 .464.05.113.075.242.068.37.068L41.263 22c.111 0 .23.022.325-.063.13-.073.273-.056.413-.056 1.07.003 1.884-.002 2.954.003.208.001.427-.032.61.114.006.17.018.34.018.509.002 2.435.001 5.302.001 7.738v.76h.395q2.475-.101 3.607-.097c.138 0 .283-.043.414.039-.155.006-.31.019-.466.019"/><path fill="#fff" d="M42.001 22.002c-.142 0-.283.003-.413-.066-.002-1.291-.005-2.29-.004-3.583 0-.323.007-.33.332-.331 1.207-.004 2.157-.001 3.364-.002.16 0 .312-.018.31.226-.02 1.349.026 2.404-.026 3.752zm-4.787-.001-3.178.001c-.142 0-.283.006-.412-.065-.004-1.304-.005-2.315-.016-3.618-.002-.214.057-.303.285-.302 1.232.008 2.174.008 3.407 0 .229-.002.285.085.284.297-.008 1.304-.005 2.315-.006 3.619-.108.094-.24.068-.364.068"/></g></svg>