<svg xmlns="http://www.w3.org/2000/svg" xmlns:xlink="http://www.w3.org/1999/xlink" viewBox="0 0 96 96"><defs><filter id="a" width="127.9%" height="127.9%" x="-14%" y="-14%" filterUnits="objectBoundingBox"><feOffset dy="2" in="SourceAlpha" result="shadowOffsetOuter1"/><feGaussianBlur in="shadowOffsetOuter1" result="shadowBlurOuter1" stdDeviation="2"/><feColorMatrix in="shadowBlurOuter1" result="shadowMatrixOuter1" values="0 0 0 0 0 0 0 0 0 0 0 0 0 0 0 0 0 0 0.2 0"/><feMerge><feMergeNode in="shadowMatrixOuter1"/><feMergeNode in="SourceGraphic"/></feMerge></filter></defs><g fill="none" fill-rule="evenodd" filter="url(#a)" transform="translate(5 5)"><rect width="82" height="82" fill="#2c2a47" rx="18"/><path fill="#d8d8d8" d="M50 42h28a8 8 0 0 1 8 8v18c0 9.941-8.059 18-18 18H50a8 8 0 0 1-8-8V50a8 8 0 0 1 8-8"/><g fill="#fff" transform="translate(14 15)"><rect width="4" height="16" x="6" rx="2"/><rect width="4" height="16" x="6" rx="2" transform="rotate(90 8 8)"/></g><g fill="#fff"><path d="m26.243 54.929 2.828 2.828-11.314 11.314-2.828-2.828z"/><path d="m29.071 66.243-2.828 2.828-11.314-11.314 2.828-2.828z"/></g><rect width="4" height="16" x="60" y="15" fill="#fff" rx="2" transform="rotate(90 62 23)"/><rect width="4" height="16" x="60" y="52" fill="#ff0303" rx="2" transform="rotate(90 62 60)"/><rect width="4" height="16" x="60" y="58" fill="#ff0303" rx="2" transform="rotate(90 62 66)"/></g></svg>