<svg xmlns="http://www.w3.org/2000/svg" viewBox="0 0 64 64"><rect width="56" height="56" x="4" y="5" opacity=".2" rx="8.4" ry="8.4"/><rect width="56" height="56" x="4" y="4" fill="#3f3f3f" rx="8.4" ry="8.4"/><path d="m22 19 4 6h-8l-1 4h-4.5l1.5-6h-3L8 35h7.199L14 39h7l-5 6h6l4-6h12l4 6h6l-5-6h7l-1.2-4H56l-3-12h-3l1.5 6H47l-1-4h-8l4-6h-3l-4 6h-6l-4-6zm-1 9h5v5h-5zm17 0h5v5h-5z" opacity=".2"/><path fill="#fff" d="m22 18 4 6h-8l-1 4h-4.5l1.5-6h-3L8 34h7.199L14 38h7l-5 6h6l4-6h12l4 6h6l-5-6h7l-1.2-4H56l-3-12h-3l1.5 6H47l-1-4h-8l4-6h-3l-4 6h-6l-4-6zm-1 9h5v5h-5zm17 0h5v5h-5z"/><path fill="#fff" d="M12.4 4A8.38 8.38 0 0 0 4 12.4v1C4 8.747 7.747 5 12.4 5h39.2c4.653 0 8.4 3.747 8.4 8.4v-1C60 7.747 56.253 4 51.6 4z" opacity=".1"/></svg>