<svg xmlns="http://www.w3.org/2000/svg" xmlns:xlink="http://www.w3.org/1999/xlink" viewBox="0 0 96 96"><defs><filter id="a" width="129.6%" height="129.3%" x="-14.8%" y="-14.6%" filterUnits="objectBoundingBox"><feOffset dy="2" in="SourceAlpha" result="shadowOffsetOuter1"/><feGaussianBlur in="shadowOffsetOuter1" result="shadowBlurOuter1" stdDeviation="2"/><feColorMatrix in="shadowBlurOuter1" result="shadowMatrixOuter1" values="0 0 0 0 0 0 0 0 0 0 0 0 0 0 0 0 0 0 0.2 0"/><feMerge><feMergeNode in="shadowMatrixOuter1"/><feMergeNode in="SourceGraphic"/></feMerge></filter></defs><g fill="none" fill-rule="evenodd" filter="url(#a)" transform="translate(8.33 8.692)"><ellipse cx="40.416" cy="40.806" fill="#fff" rx="39.863" ry="40.806"/><path fill="#000" d="M32.975 39.068c-.95-2.33-1.405-4.583-1.466-6.902-.02-.802-.184-1.798.896-2.066 1.01-.252 1.272.658 1.625 1.332 1.678 3.205 3.99 5.834 7.047 7.79.742.476 1.498.918 2.674 1.12-1.123-2.902-.801-5.65.275-8.336.3-.748.49-1.718 1.55-1.712 1.145.006 1.127 1.06 1.357 1.811 1.302 4.259 2.865 8.382 5.88 11.784 1.486 1.675 3.268 2.812 5.546 3.02.788.072 1.517.266 1.423 1.218-.094.946-.869.946-1.64.964-.616.015-1.55-.64-1.77.524-.19 1.011-.902 2.16.455 2.962.188.11.33.295.505.43 2.38 1.818 3.318 1.668 4.468-1.043 4.136-9.752 6.133-19.843 4.608-30.466-1.342-9.354-6.65-15.066-15.674-17.702-8.058-2.355-15.83-2.129-23.42 1.604-.708.348-1.505.764-2.017-.198-.58-1.089.335-1.458 1.082-1.825 9.173-4.503 18.422-4.267 27.837-.686 9.476 3.604 13.7 10.874 14.72 20.452 1.054 9.916-.934 19.385-4.489 28.592-.238.617-.589 1.19-.87 1.79-1.49 3.188-3.205 3.963-6.813 1.714-1.542-.96-1.946-.754-2.777.712-2.3 4.06-5.947 6.46-10.402 7.684-.531.146-1.07.266-1.775.44.42.708.786 1.353 1.177 1.983 1.76 2.836 2.605 5.964 2.953 9.25.086.811.088 1.679-.966 1.78-1.053.102-1.197-.742-1.278-1.56-.327-3.297-1.303-6.365-3.141-9.087-.545-.015-.595.387-.772.64-1.71 2.45-4.399 2.647-6.232.31-.792-1.01-1.053-.933-1.642.105-1.394 2.454-2.134 5.093-2.489 7.86-.106.835-.053 1.865-1.245 1.723-1.234-.148-1.06-1.193-.957-2.094.394-3.463 1.413-6.715 3.387-9.61.6-.88.65-1.191-.563-1.428-5.563-1.087-9.767-4.03-12.078-9.333-.397-.912-.776-1.044-1.57-.53-.744.482-1.442.998-2.1 1.605-1.475 1.363-3.603.877-4.106-1.022C6.984 42.56 6.215 30.531 11.7 18.787c2.088-4.472 5.006-8.335 8.716-11.596.569-.5 1.193-.988 1.876-.303.757.758.253 1.413-.374 1.966C11.804 17.77 9.348 29.38 10.223 42.15c.246 3.597.922 7.13 1.739 10.64.244 1.047.415 1.796 1.539.567.704-.771 1.663-1.286 2.653-1.663.598-.227.77-.627.559-1.167-.276-.71-.708-.095-1.065-.063-.437.038-.87.195-1.301.18-.548-.02-.934-.338-.993-.925-.056-.558.138-1.04.715-1.148 2.297-.43 2.968-2.323 3.66-4.12 1.125-2.921 1.476-6.012 1.658-9.113.165-2.82.279-5.644.136-8.47-.042-.823.046-1.653 1.07-1.75.944-.088 1.107.702 1.3 1.423 1.215 4.527 3.457 8.369 7.45 11.019 1.05.696 2.162 1.254 3.632 1.507"/><path fill="#afafaf" d="M18.155 73.526c6.882 4.418 14.376 6.81 22.59 6.707 8.69-.11 16.515-2.799 23.448-8.057.439-.333.91-.623 1.365-.933.524-.098.598.256.644.64-1.194 1.868-3.058 2.887-4.938 3.886-10.533 6.416-21.718 7.364-33.418 3.995-2.817-.967-5.517-2.188-8.057-3.753-.554-.437-1.2-.754-1.712-1.237-.547-.516-.52-.614.078-1.248"/><path fill="#f3f3f3" d="M79.878 34.731c-.568-2.973-.706-6.029-1.712-8.92-.518-1.488-1.01-2.986-1.513-4.48l.441-.17c.71 1.858 1.615 3.668 2.095 5.585 3.112 12.404 2.506 24.467-3.876 35.824-2.034 3.62-4.888 6.675-7.839 9.598-.222.22-.58.301-.874.447-.268-.188-.485-.407-.468-.769.06-.559.365-.93.793-1.302 1.885-1.639 3.49-3.545 5.055-5.482 1.404-1.755 2.539-3.684 3.619-5.649.741-1.516 1.36-3.086 2.059-4.622.982-1.837.955-3.97 1.728-5.87.832-4.708.847-9.442.492-14.19"/><path fill="#e9e9e9" d="M35.366 81.576c-5.2.34-9.752-1.769-14.148-4.064-6.023-3.144-10.919-7.65-14.59-13.42-.356-.562-.734-1.107-.857-1.778a.55.55 0 0 1 .43-.17C7.697 63.3 8.256 65.22 9.694 66.42c2.356 3.242 5.771 5.376 8.555 8.17.434.436 1.065.578 1.562.928a34 34 0 0 0 7.71 3.729c2.316.978 4.76 1.446 7.223 1.841.307.05.692-.029.622.488"/><path fill="#c2c2c2" d="M35.366 81.576c-1.867-.434-3.737-.859-5.601-1.308-.853-.205-1.72-.393-2.416-.99q.163-.24.362-.03c4.26 1.2 8.555 2.13 13.024 2.016 6.696-.172 12.963-1.867 18.79-5.168.577-.327 1.112-.725 1.801-.786.238 1.19-.839 1.293-1.47 1.642-4.534 2.502-9.329 4.219-14.535 4.626h.002c-3.211.293-6.423.277-9.635.007a5 5 0 0 0-.322-.009"/><path fill="#e9e9e9" d="M45.321 81.578c3.599-.871 7.287-1.46 10.66-3.077 1.87-.896 3.99-1.417 5.345-3.191 1.67-.941 3.139-2.157 4.601-3.38.13-.155.247-.14.355.022l.318.663c-4.844 4.118-10.327 6.988-16.503 8.547-1.584.4-3.167.473-4.776.416"/><path fill="#e6e6e6" d="m1.106 45.34.368 3.965c.276 1.731.873 3.38 1.309 5.07-.01.268-.107.49-.342.637-1.26-1.858-1.458-4.055-1.743-6.158-.968-7.152-1.129-14.299.818-21.35.071-.26.173-.51.542-.72-.238 1.339-.5 2.674-.706 4.017-.217 1.416-.379 2.841-.565 4.262C.43 38.074.685 41.095.66 44.11c-.004.434.215.849.446 1.23"/><path fill="#b7b7b7" d="M19.712 75.614c-4.16-2.15-7.467-5.278-10.293-8.96-.176-.33-.444-.594-.647-.901-.225-.342-.363-.701.28-.735 2.627 3.272 5.788 5.972 9.103 8.508-.105 1.38 1.538 1.143 1.92 2.072-.114.162-.236.16-.363.016m46.57-3.662-.355-.023-.37-.685c2.17-1.939 4.202-4.007 6-6.297.38-.14.605.03.745.37-1.681 2.508-4.118 4.329-6.02 6.635"/><path fill="#d9d9d9" d="M79.878 34.731c.011-.054.006-.123.038-.158.055-.06.134-.1.203-.15.024.047.069.093.068.138-.084 4.827.488 9.675-.485 14.47-.021.104-.098.196-.149.294-.523-.46.108-1.138-.306-1.618.751-4.3.691-8.638.63-12.976"/><path fill="#c2c2c2" d="M9.053 65.018c-.284.636.357 1.065.366 1.636-1.52-1.131-2.388-2.759-3.307-4.348-.348-.648-.936-1.187-.915-2.003.115-.244.266-.423.574-.316zm63.249.3-.744-.37 3.701-5.617c.35-.173.503.04.625.317-1.088 1.956-2.015 4.015-3.582 5.67"/><path fill="#d1d1d1" d="M2.46 54.334c-.582-1.626-1.287-3.228-.986-5.028 1.06 2.02 1.405 4.297 2.272 6.387-.083.281 0 .66-.435.734-.689-.533-.522-1.413-.852-2.093"/><path fill="#d3d3d3" d="M79.248 47.707c.325.497.307 1.06.305 1.618-.65 1.279-.31 2.773-.903 4.077-.244.533-.31 1.146-.757 1.584-.36-.242-.002-.718-.317-.975z"/><path fill="#d8d8d8" d="m2.46 54.334.984 1.997c.895 1.215 1.536 2.557 1.983 3.994l.685 1.981-.34.008c-1.384-2.31-2.598-4.696-3.33-7.302zM1.106 45.34c-.183-.266-.52-.529-.526-.799-.064-3.161-.46-6.333.207-9.478.112 3.426-.263 6.866.32 10.277"/><path fill="#c8c8c8" d="m77.576 54.011.317.975-2.008 4.661q-.313-.157-.626-.317z"/><path fill="#e9e9e9" d="m35.688 81.585 9.635-.008a27.9 27.9 0 0 1-9.635.008"/><path fill="#c8c8c8" d="M5.427 60.325a15.5 15.5 0 0 1-1.983-3.994l.302-.639 2.025 4.295z"/><path fill="#fefefe" d="M34.671 37.454c1.01-.137 1.273.538 1.671.929 2.424 2.382 5.25 4.038 8.56 4.834.678.163 1.443.482 2.008-.215.596-.736.022-1.346-.343-1.947-.98-1.61-1.363-3.345-1.152-5.356.728.453.733 1.19.979 1.747 1.735 3.935 3.707 7.69 7.41 10.178.758.509.486 1.166.38 1.785-1.135 6.637-5.788 11.159-12.954 12.433-4.698.835-9.359.718-13.886-1.056-5.054-1.981-8.516-6.945-8.548-12.362-.002-.377.023-.796.18-1.127 2.056-4.351 2.554-9.011 2.776-13.73.01-.195-.076-.457.349-.604 1.568 2.34 3.27 4.617 5.702 6.233a17.9 17.9 0 0 0 7.044 2.77c.643.108 1.365.285 1.804-.424.444-.717-.047-1.229-.448-1.777-.52-.71-.976-1.466-1.532-2.311"/><path fill="#fafafa" d="M36.552 64.507c.567.296 1.595-.374 1.653.484.055.818-.544 1.722-1.642 1.697-1.028-.023-1.791-.813-1.736-1.648.068-1.021 1.171-.17 1.725-.533"/><path fill="#b7b7b7" d="m19.712 75.614.364-.016 7.635 3.65-.362.03c-2.795-.7-5.315-1.977-7.637-3.664"/><path fill="#020202" d="M47.964 49.858a2.336 2.336 0 0 1-2.25-2.397c.033-1.31 1.052-2.248 2.403-2.212 1.38.037 2.252.97 2.208 2.363-.043 1.342-1.042 2.292-2.361 2.246"/><path fill="#010101" d="M26.184 47.444c.038 1.334-.898 2.361-2.196 2.411-1.323.051-2.315-.885-2.36-2.228-.047-1.405.801-2.33 2.179-2.377 1.367-.046 2.339.85 2.377 2.194"/><path fill="#0b0b0b" d="M36.55 59.008c-1.702-.01-3.258-1.34-3.454-2.958-.046-.382-.132-.823.344-.984.54-.182.646.264.725.64.271 1.284 1.028 2.121 2.346 2.15 1.403.032 2.209-.824 2.48-2.18.07-.347.19-.69.593-.642.521.062.472.514.46.9-.052 1.624-1.712 3.083-3.494 3.074"/></g></svg>