<svg xmlns="http://www.w3.org/2000/svg" xmlns:xlink="http://www.w3.org/1999/xlink" viewBox="0 0 96 96"><defs><linearGradient id="b" x1="50%" x2="50%" y1="0%" y2="100%"><stop offset="0%" stop-color="#984dcc"/><stop offset="100%" stop-color="#5a2099"/></linearGradient><linearGradient id="c" x1="50%" x2="50%" y1="0%" y2="100%"><stop offset="0%" stop-color="#fdf800"/><stop offset="100%" stop-color="#faee00"/></linearGradient><linearGradient id="d" x1="50%" x2="50%" y1="0%" y2="100%"><stop offset="0%" stop-color="#7478dd"/><stop offset="100%" stop-color="#2e3076"/></linearGradient><filter id="a" width="128.6%" height="131.6%" x="-14.3%" y="-15.8%" filterUnits="objectBoundingBox"><feOffset dy="2" in="SourceAlpha" result="shadowOffsetOuter1"/><feGaussianBlur in="shadowOffsetOuter1" result="shadowBlurOuter1" stdDeviation="2"/><feColorMatrix in="shadowBlurOuter1" result="shadowMatrixOuter1" values="0 0 0 0 0 0 0 0 0 0 0 0 0 0 0 0 0 0 0.2 0"/><feMerge><feMergeNode in="shadowMatrixOuter1"/><feMergeNode in="SourceGraphic"/></feMerge></filter></defs><g fill="none" filter="url(#a)" transform="translate(6 10)"><path fill="url(#b)" d="M79.998 72c0 2.21-1.79 4-4 4h-68c-2.21 0-4-1.79-4-4V4c0-2.21 1.79-4 4-4h68c2.21 0 4 1.79 4 4z"/><path fill="#2f2f2f" d="M55.998 32h-28a2 2 0 0 1-2-2V2a2 2 0 0 1 2-2h28a2 2 0 0 1 2 2v28a2 2 0 0 1-2 2"/><circle cx="42" cy="16.002" r="10" fill="#aaada4"/><path fill="url(#c)" d="M82.188 52.514h.048l-35.534-41.57c-2.466-2.884-6.928-2.876-9.384.02L2.888 51.58C1.048 53.4 0 55.412 0 57.484c0 8.938 18.804 16.204 42 16.204s42-7.392 42-16.33c0-1.636-.642-2.748-1.812-4.844" opacity=".8"/><path fill="url(#d)" d="m65.88 34-7.602 11.314L66.842 58h-4.56l-6.016-9.062L49.428 58h-11.43v6h12v4h-16V44h16v4h-12v6h9.554l6.208-8.472-8.212-11.482L50.07 34l5.916 8.118L61.414 34zm-27.882 0v4h-8v20h-4V38h-8v-4z"/></g></svg>