<svg xmlns="http://www.w3.org/2000/svg" xmlns:xlink="http://www.w3.org/1999/xlink" viewBox="0 0 96 96"><defs><linearGradient id="a" x1="50%" x2="50%" y1="2.745%" y2="100%"><stop offset="0%" stop-color="#ffbe7a"/><stop offset="100%" stop-color="#c20000"/></linearGradient><filter id="b" width="128.3%" height="128.6%" x="-14.2%" y="-14.3%" filterUnits="objectBoundingBox"><feOffset dy="2" in="SourceAlpha" result="shadowOffsetOuter1"/><feGaussianBlur in="shadowOffsetOuter1" result="shadowBlurOuter1" stdDeviation="2"/><feColorMatrix in="shadowBlurOuter1" result="shadowMatrixOuter1" values="0 0 0 0 0 0 0 0 0 0 0 0 0 0 0 0 0 0 0.2 0"/><feMerge><feMergeNode in="shadowMatrixOuter1"/><feMergeNode in="SourceGraphic"/></feMerge></filter></defs><g fill="url(#a)" fill-rule="evenodd" filter="url(#b)" transform="translate(5.629 6)"><path d="M44.957.493q-18.74 30.695-7.225 37.902c2.515 1.574 6.557 1.612 16.595-.359q14.95-2.935 29.912-12.912a.324.324 0 0 1 .44.463Q59.562 59.266 45.45 71.585c-14.432 12.598-31.763 20.09-34.462 0-2.698-20.091 3.6-20.091 0-22.027S-3.74 44.937 1.277 29.653Q6.237 14.543 44.565.021a.324.324 0 0 1 .392.472"/></g></svg>