<svg xmlns="http://www.w3.org/2000/svg" xmlns:xlink="http://www.w3.org/1999/xlink" viewBox="0 0 96 96"><defs><radialGradient id="b" cx="48.234%" cy="64.613%" r="51.178%" fx="48.234%" fy="64.613%" gradientTransform="matrix(1 0 0 .99486 0 .003)"><stop offset="0%" stop-color="#d1ed7b"/><stop offset="100%" stop-color="#8ae234"/></radialGradient><linearGradient id="c" x1="-1.996%" x2="95.446%" y1="93.851%" y2="-.041%"><stop offset="0%" stop-opacity="0"/><stop offset="53.66%"/><stop offset="81.77%"/><stop offset="100%" stop-opacity="0"/></linearGradient><filter id="a" width="128.9%" height="140.3%" x="-15.3%" y="-23.1%" filterUnits="objectBoundingBox"><feOffset dy="2" in="SourceAlpha" result="shadowOffsetOuter1"/><feGaussianBlur in="shadowOffsetOuter1" result="shadowBlurOuter1" stdDeviation="2"/><feColorMatrix in="shadowBlurOuter1" result="shadowMatrixOuter1" values="0 0 0 0 0 0 0 0 0 0 0 0 0 0 0 0 0 0 0.2 0"/><feMerge><feMergeNode in="shadowMatrixOuter1"/><feMergeNode in="SourceGraphic"/></feMerge></filter></defs><g fill="none" fill-rule="evenodd" filter="url(#a)" transform="translate(4 9)"><path fill="url(#b)" fill-rule="nonzero" stroke="#8fc31f" stroke-width="2" d="m0 74.186 9.28-9.114C-9.014-8.934 44.242 20.11 77.384 0c-27.346 25.368 25.044 82.144-64.562 68.712L3.83 77.784z"/><path stroke="url(#c)" stroke-width="1.823" d="M11.602 66.316C34.1 18.636 54.024 32.636 69.476 6.618" opacity=".1"/><path fill="#000" fill-opacity=".3" fill-rule="nonzero" d="M50.202 16.576a.97.97 0 0 1-.968.968H37.172a.97.97 0 0 1-.97-.968v-.062a.97.97 0 0 1 .968-.97h12.062a.97.97 0 0 1 .97.968zm0 4a.97.97 0 0 1-.968.968H33.172a.97.97 0 0 1-.97-.968v-.062a.97.97 0 0 1 .968-.97h16.062a.97.97 0 0 1 .97.968zm-16 4a.97.97 0 0 1-.968.968H15.17a.97.97 0 0 1-.968-.968v-.062a.97.97 0 0 1 .968-.97h18.062a.97.97 0 0 1 .97.968zm0 4a.97.97 0 0 1-.968.968H13.17a.97.97 0 0 1-.968-.968v-.062a.97.97 0 0 1 .968-.97h20.062a.97.97 0 0 1 .97.968zm28 6a.97.97 0 0 1-.968.968H41.17a.97.97 0 0 1-.968-.968v-.062a.97.97 0 0 1 .968-.97h20.062a.97.97 0 0 1 .97.968zm-6 6a.97.97 0 0 1-.968.968H35.17a.97.97 0 0 1-.968-.968v-.062a.97.97 0 0 1 .968-.97h20.062a.97.97 0 0 1 .97.968zm0 4a.97.97 0 0 1-.968.968H39.172a.97.97 0 0 1-.97-.968v-.062a.97.97 0 0 1 .968-.97h16.062a.97.97 0 0 1 .97.968zm-10 6a.97.97 0 0 1-.968.968H29.172a.97.97 0 0 1-.97-.968v-.062a.97.97 0 0 1 .968-.97h16.062a.97.97 0 0 1 .97.968zm-6 8a.97.97 0 0 1-.968.968H21.172a.97.97 0 0 1-.97-.968v-.062a.97.97 0 0 1 .968-.97h18.062a.97.97 0 0 1 .97.968zm-16-20a.97.97 0 0 1-.968.968H11.17a.97.97 0 0 1-.968-.968v-.062a.97.97 0 0 1 .968-.97h12.062a.97.97 0 0 1 .97.968zm0-6a.97.97 0 0 1-.968.968H15.17a.97.97 0 0 1-.968-.968v-.062a.97.97 0 0 1 .968-.97h8.062a.97.97 0 0 1 .97.968zm36-4a.97.97 0 0 1-.968.968h-8.062a.97.97 0 0 1-.97-.968v-.062a.97.97 0 0 1 .968-.97h8.062a.97.97 0 0 1 .97.968z"/><g fill-rule="nonzero"><path fill="#036eb8" d="m46.43 52.638 1.048-5.148 33.844-34.986 3.21 6.362-32.214 33.326z"/><path fill="#56a5d1" d="m46.544 46.584 29.482-30.128 6.354-.596-35.75 36.366z"/><path fill="#3e3a39" d="M84.796 18.592a1.94 1.94 0 0 1-2.75.044l-2.794-2.714a1.955 1.955 0 0 1-.044-2.756l2.712-2.8a1.94 1.94 0 0 1 2.75-.042l2.792 2.714c.77.75.79 1.982.042 2.756z"/><path fill="#b5b5b6" d="M84.39 17.434c-.534.556-1.42.57-1.976.032l-2.008-1.95a1.405 1.405 0 0 1-.032-1.978l1.948-2.012a1.39 1.39 0 0 1 1.972-.03l2.01 1.95c.552.538.566 1.424.03 1.978z"/><path fill="#727171" d="m73.794 18.764 6.768-6.996 5.588 5.426-6.772 6.996z"/><path fill="#c9caca" d="m75.15 18.888 5.578-5.768 4.068 3.95-5.58 5.768z"/><path fill="#595757" d="m79.024 14.811 4.13 4.014-.696.718-4.13-4.014zm-1.649 1.771 4.094 3.977-.696.717-4.094-3.977z"/><path fill="#c9a063" d="m40.602 58.682 6.004-12.172s2.002 1.544.314 3.286c-1.684 1.744 1.334-1.686 2.612-.444 1.282 1.244-2.296 4.53-.608 2.788 1.684-1.744 3.502.02 3.502.02z"/><path fill="#231815" d="m42.472 54.89-1.89 3.426s-.52.938.39.378c.912-.558 3.324-2.05 3.324-2.05z"/></g></g></svg>