<svg xmlns="http://www.w3.org/2000/svg" xmlns:xlink="http://www.w3.org/1999/xlink" viewBox="0 0 96 96"><defs><radialGradient id="b" cx="41.735%" cy="57.084%" r="43.464%" fx="41.735%" fy="57.084%" gradientTransform="scale(.99844 1)"><stop offset="0%" stop-color="#0052ff"/><stop offset="100%" stop-color="#000072"/></radialGradient><radialGradient id="c" cx="41.766%" cy="57.135%" r="47.065%" fx="41.766%" fy="57.135%" gradientTransform="matrix(.92875 0 0 1 .03 0)"><stop offset="0%" stop-color="#0052ff"/><stop offset="100%" stop-color="#000072"/></radialGradient><radialGradient id="d" cx="27.697%" cy="48.406%" r="127.402%" fx="27.697%" fy="48.406%" gradientTransform="matrix(.86127 0 0 1 .038 0)"><stop offset="0%" stop-color="#ffd7ff"/><stop offset="100%" stop-color="#4040df" stop-opacity=".498"/></radialGradient><radialGradient id="f" cx="28.044%" cy="43.75%" r="60.133%" fx="28.044%" fy="43.75%" gradientTransform="matrix(.8623 0 0 1 .039 0)"><stop offset="0%" stop-color="#fff" stop-opacity=".498"/><stop offset="100%" stop-color="#00007f" stop-opacity="0"/></radialGradient><linearGradient id="e" x1="35.193%" x2="59.313%" y1="31.474%" y2="63.328%"><stop offset="0%" stop-color="#fff"/><stop offset="100%" stop-color="#fff" stop-opacity="0"/></linearGradient><filter id="a" width="130.8%" height="130.8%" x="-15.4%" y="-15.4%" filterUnits="objectBoundingBox"><feOffset dy="2" in="SourceAlpha" result="shadowOffsetOuter1"/><feGaussianBlur in="shadowOffsetOuter1" result="shadowBlurOuter1" stdDeviation="2"/><feColorMatrix in="shadowBlurOuter1" result="shadowMatrixOuter1" values="0 0 0 0 0 0 0 0 0 0 0 0 0 0 0 0 0 0 0.2 0"/><feMerge><feMergeNode in="shadowMatrixOuter1"/><feMergeNode in="SourceGraphic"/></feMerge></filter></defs><g fill="none" filter="url(#a)" transform="translate(4.843 4.84)"><path fill="url(#b)" stroke="#000" stroke-width="2.312" d="M82.484 43c0 21.742-17.653 39.367-39.429 39.367S3.626 64.742 3.626 43 21.28 3.633 43.056 3.633C64.83 3.633 82.483 21.258 82.483 43Z" transform="rotate(-5.556 43.055 43)"/><path fill="url(#c)" stroke="#00f" stroke-opacity=".188" stroke-width="3.89" d="M77.861 43.202c0 17.75-15.494 32.14-34.606 32.14S8.648 60.953 8.648 43.203s15.494-32.141 34.607-32.141c19.112 0 34.606 14.39 34.606 32.14Z" transform="rotate(-5.97 43.255 43.202)"/><path fill="url(#d)" stroke="#58b8ff" stroke-opacity=".722" d="M50.023 30.037C46.538 29.09 20 32.369 22.83 39.642c3.149 8.28 26.875 9.925 25.955 17.502-.328 2.634-8.416 5.152-14.611 4.885-6.54-.28-11.689-1.602-16.24-6.753-2.858-3.235-4.041-7.166-4.346-11.844-.306-4.678 1.546-9.857 4.133-13.69 5.684-8.423 12.776-13.303 22.617-14.608C63.544 12.17 72.343 31.852 72.264 31.44c-.085-.436-9.293-19.44-31.761-17.555-9.293.78-15.936 5.458-21.36 11.068-3.78 3.912-6.606 9.433-7.395 14.92-1.152 8.011.994 15.076 6.427 20.198 4.554 4.295 11.882 5.871 19.641 6.044 10.9.243 23.59-1.81 23.694-6.328 0-8.154-18.646-10.619-22.588-14.72-7.727-7.883 12.222-6.244 15.759-4.86.34.047-2.878-9.71-4.658-10.17Z"/><path fill="url(#e)" d="M12.232 36.938c3.528 6.385 15.6 1.465 26.436-4.48s21.458-13.08 17.93-19.465c-3.53-6.385-20.34-5.919-29.475-.775-10.751 6.084-18.42 18.336-14.891 24.72"/><path fill="url(#f)" d="M57.63 39.93c0 10.196-9.584 18.461-21.408 18.461-11.823 0-21.408-8.265-21.408-18.46S24.4 21.47 36.222 21.47 57.63 29.736 57.63 39.93"/></g></svg>