<svg xmlns="http://www.w3.org/2000/svg" xmlns:xlink="http://www.w3.org/1999/xlink" viewBox="0 0 96 96"><defs><linearGradient id="b" x1="50%" x2="50%" y1="0%" y2="100%"><stop offset="0%" stop-color="#02e9fe"/><stop offset="100%" stop-color="#048fff"/></linearGradient><filter id="a" width="130%" height="130%" x="-15%" y="-15%" filterUnits="objectBoundingBox"><feOffset dy="2" in="SourceAlpha" result="shadowOffsetOuter1"/><feGaussianBlur in="shadowOffsetOuter1" result="shadowBlurOuter1" stdDeviation="2"/><feColorMatrix in="shadowBlurOuter1" result="shadowMatrixOuter1" values="0 0 0 0 0 0 0 0 0 0 0 0 0 0 0 0 0 0 0.2 0"/><feMerge><feMergeNode in="shadowMatrixOuter1"/><feMergeNode in="SourceGraphic"/></feMerge></filter></defs><g fill="none" filter="url(#a)" transform="translate(8 8)"><path fill="url(#b)" d="M14.91 0h50.18C73.326 0 80 6.675 80 14.91v50.18C80 73.326 73.325 80 65.09 80H14.91C6.674 80 0 73.325 0 65.09V14.91C0 6.674 6.675 0 14.91 0"/><path fill="#fff" d="M60.968 24.998c-5.16-4.05-11.794-5.711-18.096-7.307-5.024-1.26-6.902-1.526-10.186-3.52-2.412-1.526-7.774-4.183-8.242-3.585-.537.532 1.138 2.325 1.808 4.517 1.006 3.119.202 5.643-2.345 7.57-5.897 4.45-13.604 12.22-13.066 22.978.737 14.676 14.274 24.837 30.826 23.773 16.62-1.062 27.812-11.687 28.148-26.366.2-7.104-2.95-13.28-8.847-18.06m-19.569 20.32 2.546-2.655 2.748-2.79c.268-.198.2-.33-.135-.398-.2 0-1.808-.331-3.415-.665l-3.151-.663c-.068-3.653 1.005-5.977 2.815-6.243 2.346-.265 4.757 2.788 5.627 8.367.738 4.717-.87 8.767-3.081 8.965-1.54.2-2.95-1.328-3.954-3.918m20.776.864c-1.408.331-2.548-1.463-3.35-4.118.87-.796 1.608-1.528 2.345-2.124 1.273-1.064 2.345-2.127 2.546-2.325.2-.2.135-.333-.135-.4-.2 0-1.541-.198-2.949-.464-.802-.198-1.743-.331-2.748-.531 0-3.187.873-6.175 2.748-6.508 2.079-.4 3.889 3.52 4.424 7.903.535 5.311-1.073 8.102-2.881 8.567"/></g></svg>