<svg xmlns="http://www.w3.org/2000/svg" xmlns:xlink="http://www.w3.org/1999/xlink" viewBox="0 0 96 96"><defs><linearGradient id="b" x1="50%" x2="50%" y1="0%" y2="100%"><stop offset="0%" stop-color="#f86161"/><stop offset="100%" stop-color="#ef324c"/></linearGradient><filter id="a" width="130.5%" height="127.7%" x="-15.3%" y="-13.9%" filterUnits="objectBoundingBox"><feOffset dy="2" in="SourceAlpha" result="shadowOffsetOuter1"/><feGaussianBlur in="shadowOffsetOuter1" result="shadowBlurOuter1" stdDeviation="2"/><feColorMatrix in="shadowBlurOuter1" result="shadowMatrixOuter1" values="0 0 0 0 0 0 0 0 0 0 0 0 0 0 0 0 0 0 0.2 0"/><feMerge><feMergeNode in="shadowMatrixOuter1"/><feMergeNode in="SourceGraphic"/></feMerge></filter></defs><g fill="none" fill-rule="evenodd" filter="url(#a)" transform="translate(8.683 4.68)"><path fill="#343b45" d="m39.321 4 34.052 19.66v39.321l-34.052 19.66-34.053-19.66V23.66z"/><path fill="url(#b)" fill-rule="nonzero" d="M37.32.536a4 4 0 0 1 4 0l34.053 19.66a4 4 0 0 1 2 3.464v39.32a4 4 0 0 1-2 3.465l-34.052 19.66a4 4 0 0 1-4 0L3.268 66.445a4 4 0 0 1-2-3.464V23.66a4 4 0 0 1 2-3.465Zm2 3.464L5.269 23.66v39.32l34.053 19.661 34.052-19.66V23.66zm0 24.966c2.412-2.186 5.691-3.328 9.228-2.744 4.854.804 8.758 5.017 9.441 10.158.514 3.88-.736 7.454-3.003 9.993l.01.01L39.93 62.306a.836.836 0 0 1-1.221 0L23.643 46.383l.01-.01c-2.272-2.534-3.522-6.108-3.008-9.988.678-5.146 4.587-9.36 9.441-10.163 3.536-.584 6.82.558 9.233 2.744"/></g></svg>