<svg xmlns="http://www.w3.org/2000/svg" xmlns:xlink="http://www.w3.org/1999/xlink" viewBox="0 0 96 96"><defs><linearGradient id="b" x1="50%" x2="50%" y1="0%" y2="100%"><stop offset="0%" stop-color="#44b"/><stop offset="100%" stop-color="#13133b"/></linearGradient><linearGradient id="c" x1="50%" x2="50%" y1="0%" y2="95.891%"><stop offset="0%" stop-color="#39399c"/><stop offset="100%" stop-color="#1d1d7d"/></linearGradient><linearGradient id="d" x1="50%" x2="50%" y1="0%" y2="100%"><stop offset="0%" stop-color="#515151"/><stop offset="54.345%" stop-color="#ececec"/><stop offset="73.737%" stop-color="#d1d1d1"/><stop offset="100%" stop-color="#727272"/></linearGradient><linearGradient id="e" x1="50%" x2="50.002%" y1="43.772%" y2="52.981%"><stop offset="0%" stop-color="#515151"/><stop offset="54.345%" stop-color="#ececec"/><stop offset="100%" stop-color="#727272"/></linearGradient><linearGradient id="f" x1="50%" x2="50%" y1="0%" y2="73.931%"><stop offset="0%" stop-color="#515151"/><stop offset="54.345%" stop-color="#ececec"/><stop offset="100%" stop-color="#727272"/></linearGradient><linearGradient id="g" x1="50%" x2="50.002%" y1="10.494%" y2="68.909%"><stop offset="0%" stop-color="#515151"/><stop offset="54.345%" stop-color="#ececec"/><stop offset="100%" stop-color="#727272"/></linearGradient><linearGradient id="h" x1="50%" x2="50.002%" y1="0%" y2="73.931%"><stop offset="0%" stop-color="#515151"/><stop offset="54.345%" stop-color="#ececec"/><stop offset="100%" stop-color="#727272"/></linearGradient><linearGradient id="i" x1="50%" x2="50%" y1="61.532%" y2="100%"><stop offset="0%" stop-color="#ccccfb"/><stop offset="100%" stop-color="#9b9bff"/></linearGradient><filter id="a" width="139.8%" height="132.5%" x="-19.9%" y="-16.2%" filterUnits="objectBoundingBox"><feOffset dy="2" in="SourceAlpha" result="shadowOffsetOuter1"/><feGaussianBlur in="shadowOffsetOuter1" result="shadowBlurOuter1" stdDeviation="2"/><feColorMatrix in="shadowBlurOuter1" result="shadowMatrixOuter1" values="0 0 0 0 0 0 0 0 0 0 0 0 0 0 0 0 0 0 0.2 0"/><feMerge><feMergeNode in="shadowMatrixOuter1"/><feMergeNode in="SourceGraphic"/></feMerge></filter></defs><g fill="none" fill-rule="evenodd" filter="url(#a)" transform="translate(16.5 9.5)"><path fill="url(#b)" fill-rule="nonzero" stroke="#464646" d="M46.5 12c1.243 0 2.368.504 3.182 1.318A4.5 4.5 0 0 1 51 16.5v52a4.5 4.5 0 0 1-1.318 3.182A4.5 4.5 0 0 1 46.5 73h-30a4.5 4.5 0 0 1-3.182-1.318A4.5 4.5 0 0 1 12 68.5v-52c0-1.243.504-2.368 1.318-3.182A4.5 4.5 0 0 1 16.5 12z"/><path stroke="#000" stroke-opacity=".704" d="M21 73v-6m21 6v-6"/><path fill="url(#c)" fill-rule="nonzero" stroke="#464646" d="M42 73v2.5c0 .414-.168.79-.44 1.06a1.5 1.5 0 0 1-1.06.44h-18a1.5 1.5 0 0 1-1.06-.44A1.5 1.5 0 0 1 21 75.5V73z"/><g fill="url(#d)" fill-rule="nonzero" stroke="#878787" transform="translate(0 13)"><path d="M9.5 0c.414 0 .79.168 1.06.44.272.27.44.646.44 1.06v16c0 .414-.168.79-.44 1.06A1.5 1.5 0 0 1 9.5 19h-6a1.5 1.5 0 0 1-1.06-.44A1.51 1.51 0 0 1 2.08 17H.5L0 10.5l2-.5V1.5c0-.414.168-.79.44-1.06C2.71.167 3.085 0 3.5 0z"/><path d="M53.5 0c-.414 0-.79.168-1.06.44A1.5 1.5 0 0 0 52 1.5v16c0 .414.168.79.44 1.06.27.272.646.44 1.06.44h6c.414 0 .79-.168 1.06-.44.378-.377.555-.955.36-1.56h1.58l.5-6.5-2-.5V1.5c0-.414-.168-.79-.44-1.06A1.5 1.5 0 0 0 59.5 0z"/><path d="M9.5 22c.414 0 .79.168 1.06.44.272.27.44.646.44 1.06v16c0 .414-.168.79-.44 1.06A1.5 1.5 0 0 1 9.5 41h-6a1.5 1.5 0 0 1-1.06-.44A1.5 1.5 0 0 1 2 39.5V35H.5L0 28.5l2-.5v-4.5c0-.414.168-.79.44-1.06A1.5 1.5 0 0 1 3.5 22z"/><path d="M53.5 22c-.414 0-.79.168-1.06.44A1.5 1.5 0 0 0 52 23.5v16c0 .414.168.79.44 1.06.27.272.646.44 1.06.44h6c.414 0 .79-.168 1.06-.44.272-.27.44-.646.44-1.06V35h1.5l.5-6.5-2-.5v-4.5c0-.414-.168-.79-.44-1.06A1.5 1.5 0 0 0 59.5 22z"/><path d="M9.5 44c.414 0 .79.168 1.06.44.272.27.44.646.44 1.06v16c0 .414-.168.79-.44 1.06A1.5 1.5 0 0 1 9.5 63h-6a1.5 1.5 0 0 1-1.06-.44A1.5 1.5 0 0 1 2 61.5V53H.5L0 46.5l2.08-.5a1.51 1.51 0 0 1 .36-1.56A1.5 1.5 0 0 1 3.5 44z"/><path d="M53.5 44c-.414 0-.79.168-1.06.44A1.5 1.5 0 0 0 52 45.5v16c0 .414.168.79.44 1.06.27.272.646.44 1.06.44h6c.414 0 .79-.168 1.06-.44.272-.27.44-.646.44-1.06V53h1.5l.5-6.5-2.08-.5a1.51 1.51 0 0 0-.36-1.56A1.5 1.5 0 0 0 59.5 44z"/></g><path fill="#000" fill-rule="nonzero" d="M14.874 27.5c.845 0 1.54.595 1.619 1.356L16.5 29v4.037c0 .78-.645 1.42-1.47 1.494l-.156.006H12.5v-1h2.374a.53.53 0 0 0 .533-.41l.009-.09V29c0-.245-.192-.45-.445-.492l-.097-.008H12.5v-1zm33.252 0c-.845 0-1.54.595-1.619 1.356L46.5 29v4.037c0 .78.645 1.42 1.47 1.494l.156.006H50.5v-1h-2.374a.53.53 0 0 1-.533-.41l-.009-.09V29c0-.245.192-.45.445-.492l.097-.008H50.5v-1z" opacity=".49"/><rect width="9" height="9" x="14" y="14" stroke="#efefef" opacity=".643" rx="2"/><rect width="9" height="9" x="40" y="14" stroke="#efefef" opacity=".643" rx="2"/><path fill="#999" fill-rule="nonzero" stroke="#4a4a4a" d="m24.766 34.5-3.772 2.232L18.03 38.5l1.649 20h22.03l1.579-20-5.863-4v-4l10.708 5.763L46.319 66.5h-30.63L14.5 36.263 24.766 30.5z"/><g fill-rule="nonzero" stroke="#464646" transform="translate(24)"><rect width="18" height="7" x="-1.5" y="11.5" fill="url(#e)" rx="2" transform="matrix(0 1 1 0 -7.5 7.5)"/><rect width="3" height="15" x="6" y="-2" fill="url(#f)" rx="1.5" transform="matrix(0 1 1 0 2 -2)"/><rect width="10" height="9" x="2.5" y=".5" fill="url(#g)" rx="2" transform="matrix(0 1 1 0 2.5 -2.5)"/><rect width="15" height="15" y="20" fill="url(#h)" rx="2" transform="matrix(0 1 1 0 -20 20)"/></g><path stroke="#4a4a4a" d="m19.679 58.5-3.99 8m26.02-8 4.61 8"/><path fill="#999" fill-rule="nonzero" stroke="#4a4a4a" d="M31.049 37c2.493 0 4.42.752 5.772 2.168 1.413 1.48 2.207 3.705 2.297 6.646l-2.99.582c-.01-2.308-.429-3.977-1.363-5.033C33.931 40.42 32.691 40 31.049 40c-1.606 0-2.825.401-3.656 1.3-.907.984-1.342 2.526-1.399 4.648l-3.005.33c.011-3.111.778-5.464 2.208-7.021C26.55 37.784 28.503 37 31.05 37Z"/><path fill="url(#i)" fill-rule="nonzero" stroke="#4a4a4a" d="M13.5 37.003c3.546 7.103 9.74 14.39 18.054 14.39 8.315 0 12.522-6.46 17.49-14.39-12.046 10.108-22.496 11.144-35.544 0Z"/></g></svg>