<svg xmlns="http://www.w3.org/2000/svg" xmlns:xlink="http://www.w3.org/1999/xlink" viewBox="0 0 96 96"><defs><filter id="c" width="117.2%" height="122.6%" x="-8.6%" y="-8.1%" filterUnits="objectBoundingBox"><feOffset dy="2" in="SourceAlpha" result="shadowOffsetOuter1"/><feGaussianBlur in="shadowOffsetOuter1" result="shadowBlurOuter1" stdDeviation="2"/><feColorMatrix in="shadowBlurOuter1" values="0 0 0 0 0 0 0 0 0 0 0 0 0 0 0 0 0 0 0.2 0"/></filter><filter id="d" width="112.3%" height="116.1%" x="-6.1%" y="-4.8%" filterUnits="objectBoundingBox"><feGaussianBlur in="SourceAlpha" result="shadowBlurInner1" stdDeviation=".5"/><feOffset dy="-1" in="shadowBlurInner1" result="shadowOffsetInner1"/><feComposite in="shadowOffsetInner1" in2="SourceAlpha" k2="-1" k3="1" operator="arithmetic" result="shadowInnerInner1"/><feColorMatrix in="shadowInnerInner1" values="0 0 0 0 0 0 0 0 0 0 0 0 0 0 0 0 0 0 0.2 0"/></filter><path id="a" d="M72.15 15a6 6 0 0 1 5.892 4.87l9.59 50A6 6 0 0 1 81.74 77H12.26a6 6 0 0 1-5.892-7.13l9.59-50A6 6 0 0 1 21.85 15H32c5 0 6.086 2.136 7.054 2.992A11.95 11.95 0 0 0 47 21c3.076 0 5.881-1.157 8.005-3.06C55.948 17.095 57 15 62 15z"/></defs><g fill="none" fill-rule="evenodd"><use xlink:href="#a" fill="#000" filter="url(#c)"/><use xlink:href="#a"/><use xlink:href="#a" fill="#000" filter="url(#d)"/></g></svg>