<svg xmlns="http://www.w3.org/2000/svg" xmlns:xlink="http://www.w3.org/1999/xlink" viewBox="0 0 96 96"><defs><linearGradient id="b" x1="50%" x2="50%" y1="0%" y2="95.091%"><stop offset="0%" stop-color="#fff"/><stop offset="100%" stop-color="#d1d1d1"/></linearGradient><linearGradient id="c" x1="50%" x2="50%" y1="0%" y2="100%"><stop offset="0%" stop-color="#ff7e6c"/><stop offset="100%" stop-color="#ce0000"/></linearGradient><linearGradient id="d" x1="50%" x2="50%" y1="0%" y2="96.465%"><stop offset="0%" stop-color="#fff"/><stop offset="100%" stop-color="#fff" stop-opacity=".847"/></linearGradient><filter id="a" width="132.2%" height="130%" x="-16.1%" y="-15%" filterUnits="objectBoundingBox"><feOffset dy="2" in="SourceAlpha" result="shadowOffsetOuter1"/><feGaussianBlur in="shadowOffsetOuter1" result="shadowBlurOuter1" stdDeviation="2"/><feColorMatrix in="shadowBlurOuter1" result="shadowMatrixOuter1" values="0 0 0 0 0 0 0 0 0 0 0 0 0 0 0 0 0 0 0.2 0"/><feMerge><feMergeNode in="shadowMatrixOuter1"/><feMergeNode in="SourceGraphic"/></feMerge></filter></defs><g fill="none" filter="url(#a)" transform="translate(10.703 8)"><path fill="url(#b)" d="M11.174 0H51.42c6.007 0 10.877 4.85 10.877 10.833v56.334C62.297 73.15 57.427 78 51.42 78H11.174C5.167 78 .297 73.15.297 67.167V10.833C.297 4.85 5.167 0 11.174 0"/><g transform="translate(30.27 35.676)"><circle cx="22.162" cy="22.162" r="22.162" fill="url(#c)"/><path fill="url(#d)" d="m26.613 14 3.822 3.822a1.08 1.08 0 0 1 0 1.529L16.992 32.794a1.08 1.08 0 0 1-.765.317h-3.822a1.08 1.08 0 0 1-1.08-1.081v-3.823c0-.286.113-.561.316-.764L25.084 14a1.08 1.08 0 0 1 1.529 0M31.2 9.413l3.822 3.822a1.08 1.08 0 0 1 0 1.53l-1.53 1.528a1.08 1.08 0 0 1-1.528 0l-3.822-3.822a1.08 1.08 0 0 1 0-1.529l1.529-1.529a1.08 1.08 0 0 1 1.529 0"/></g></g></svg>