<svg xmlns="http://www.w3.org/2000/svg" xmlns:xlink="http://www.w3.org/1999/xlink" viewBox="0 0 96 96"><defs><linearGradient id="b" x1="50%" x2="50%" y1="0%" y2="100%"><stop offset="0%" stop-color="#bc1d1f"/><stop offset="100%" stop-color="#b71f20"/></linearGradient><linearGradient id="d" x1="50%" x2="50%" y1="0%" y2="100%"><stop offset="0%" stop-color="#fff" stop-opacity=".5"/><stop offset="100%" stop-opacity=".1"/></linearGradient><linearGradient id="e" x1="100%" x2="0%" y1="50%" y2="50%"><stop offset="0%" stop-color="#949393"/><stop offset="28.619%" stop-color="#969696"/><stop offset="69.985%" stop-color="#e8e6e6"/><stop offset="100%" stop-color="#d8d8d8"/></linearGradient><linearGradient id="f" x1="50%" x2="50.023%" y1="4.701%" y2="1.293%"><stop offset="0%" stop-color="#fff" stop-opacity=".424"/><stop offset="100%"/></linearGradient><linearGradient id="g" x1="100%" x2="0%" y1="50%" y2="50%"><stop offset="0%" stop-color="#ca8d39"/><stop offset="21.109%" stop-color="#b8710b"/><stop offset="66.325%" stop-color="#ffcd7c"/><stop offset="100%" stop-color="#e7c16b"/></linearGradient><linearGradient id="h" x1="50%" x2="50%" y1="0%" y2="100%"><stop offset="0%" stop-color="#b0670e"/><stop offset="100%" stop-color="#b0670e" stop-opacity="0"/></linearGradient><linearGradient id="i" x1="50%" x2="50%" y1="0%" y2="100%"><stop offset="0%" stop-opacity=".2"/><stop offset="100%" stop-opacity=".397"/></linearGradient><linearGradient id="j" x1="74.644%" x2="21.746%" y1="6.055%" y2="93.655%"><stop offset="0%" stop-color="#bc1d1f"/><stop offset="45.066%" stop-color="#de2f30"/><stop offset="100%" stop-color="#b71f20"/></linearGradient><linearGradient id="k" x1="50%" x2="50%" y1="0%" y2="100%"><stop offset="0%" stop-opacity=".1"/><stop offset="100%" stop-opacity=".2"/></linearGradient><linearGradient id="l" x1="50%" x2="50%" y1="0%" y2="100%"><stop offset="0%" stop-opacity=".1"/><stop offset="100%" stop-opacity=".2"/></linearGradient><filter id="a" width="190%" height="820%" x="-45%" y="-360%" filterUnits="objectBoundingBox"><feGaussianBlur in="SourceGraphic" stdDeviation="6 0"/></filter></defs><g fill="none" fill-rule="evenodd" transform="translate(5 6.362)"><ellipse cx="42" cy="78.138" fill="#000" fill-opacity=".4" filter="url(#a)" rx="20" ry="2.5"/><path fill="url(#b)" stroke="url(#d)" d="M42.5 1.138c8.551 0 16.286 4.247 21.887 11.093 5.634 6.886 9.113 16.4 9.113 26.907 0 10.506-3.479 20.02-9.113 26.907C58.786 72.89 51.05 77.138 42.5 77.138S26.214 72.89 20.613 66.045c-5.634-6.886-9.113-16.4-9.113-26.907s3.479-20.021 9.113-26.907C26.214 5.385 33.95 1.138 42.5 1.138ZM61.855 19.68 26.308 63.578l.344.321c4.274 3.921 9.59 6.239 15.348 6.239 7.05 0 13.441-3.476 18.064-9.116C64.655 55.42 67.5 47.685 67.5 39.138c0-7.373-2.117-14.143-5.645-19.458ZM42 8.138c-7.05 0-13.441 3.476-18.064 9.116-4.591 5.6-7.436 13.336-7.436 21.884 0 7.118 1.973 13.675 5.285 18.902L57.23 14.27l-.357-.318C52.683 10.288 47.547 8.138 42 8.138Z"/><g transform="rotate(74 24.24 65.706)"><path fill="url(#e)" stroke="url(#f)" d="M6 1.5c1.595 0 3.04.212 4.085.56.485.162.88.35 1.147.565L11.5 79.5H.5V3.04c.033-.16.164-.295.333-.427.278-.217.674-.405 1.153-.564C3.026 1.702 4.441 1.5 6 1.5Z"/><path fill="url(#g)" stroke="url(#h)" d="M6 51.5c2.307 0 4.332.656 5.16 1.671l.334 26.329H.5V53.214C1.63 52.194 3.656 51.5 6 51.5Z"/><ellipse cx="6" cy="80" fill="#fff" stroke="url(#i)" stroke-width=".5" rx="5.75" ry="2.75"/><path fill="#000" fill-rule="nonzero" d="M6.454.556 7.93.98l.467-.492.118.051.854.508.914 1.095L8.06 1.43l-.399-.114-1.043.225-.987.113-.195-.016-.503-.145-.175-.054-.972-.143-.653.109-.059.209-1.734.507q-1.118.484-.853.064.264-.42 1.86-1.662.333.208.58.166.245-.04.77-.391L3.85.296l1.117.167.88-.261z"/></g><path fill="url(#j)" d="M57.168 13.551c1.999 1.742 3.785 3.82 5.303 6.164l-36.11 44.59c-1.964-1.795-3.712-3.92-5.187-6.306Z"/><path fill="url(#k)" d="M74.803 24.293q-4.286-2.826-2.857-4.672 1.428-1.847 1.599-6.223-.426 5.3 0 7.888.425 2.588 1.258 3.007"/><path fill="url(#l)" d="M75.913 3.383q-2.607 1.531-1.11 3.982c1.498 2.45 4.706 4.974 3.748 9.581q-.957 4.606-1.052 4.859 5.14-4.029 2.57-9.13c-2.57-5.1-2.839-7.34-1.518-9.292q1.32-1.95-2.638 0"/></g></svg>