<svg xmlns="http://www.w3.org/2000/svg" xmlns:xlink="http://www.w3.org/1999/xlink" viewBox="0 0 96 96"><defs><filter id="a" width="132.8%" height="124.7%" x="-16.4%" y="-12.4%" filterUnits="objectBoundingBox"><feOffset dy="2" in="SourceAlpha" result="shadowOffsetOuter1"/><feGaussianBlur in="shadowOffsetOuter1" result="shadowBlurOuter1" stdDeviation="1.5"/><feColorMatrix in="shadowBlurOuter1" result="shadowMatrixOuter1" values="0 0 0 0 0 0 0 0 0 0 0 0 0 0 0 0 0 0 0.2 0"/><feMerge><feMergeNode in="shadowMatrixOuter1"/><feMergeNode in="SourceGraphic"/></feMerge></filter></defs><g fill="none" fill-rule="evenodd" filter="url(#a)" transform="translate(16 5)"><circle cx="32" cy="32" r="32" fill="#2c2e3a"/><path fill="#d0f7fa" fill-rule="nonzero" d="M25.265 42.288c1.63 5.089 4.362 8.135 7.17 8.135 2.03 0 4.036-1.579 5.636-4.497a.82.82 0 1 1 1.44.79c-1.878 3.423-4.374 5.348-7.076 5.348-3.655 0-6.89-3.522-8.733-9.276a.82.82 0 1 1 1.563-.5m-6.094-8.943c2.081 2.292 4.793 4.437 7.866 6.211 6.9 3.984 14.222 5.244 18.002 3.324l.19-.1.174-.103-.047-.077a2.9 2.9 0 0 1-.353-1.047l-.019-.188-.006-.19a2.872 2.872 0 1 1 1.964 2.726l-.171-.063-.086-.039-.186.127c-4.068 2.682-11.985 1.622-19.567-2.545l-.361-.201-.355-.202c-3.218-1.858-6.062-4.11-8.26-6.53a.82.82 0 1 1 1.215-1.103m18.59-14.199a.82.82 0 0 1-.628.976c-3.025.656-6.238 1.932-9.311 3.706-6.9 3.984-11.653 9.695-11.88 13.929l-.007.214v.202l.09-.002c.37.001.738.074 1.085.218l.171.077.168.09a2.872 2.872 0 1 1-3.343.338l.14-.116.078-.056-.018-.224c-.288-4.864 4.588-11.19 11.988-15.673l.355-.212.352-.206c3.218-1.858 6.59-3.196 9.785-3.889a.82.82 0 0 1 .975.628m-3.228-7.044c.157.27.266.56.327.859l.031.18.01.094.203.097C39.46 15.515 42.5 22.9 42.683 31.55l.006.413.002.408c0 3.716-.527 7.305-1.524 10.418a.82.82 0 0 1-1.563-.5c.945-2.949 1.446-6.37 1.446-9.918 0-7.968-2.57-14.939-6.122-17.252l-.182-.114-.176-.1-.043.079c-.186.32-.433.602-.73.83l-.154.11-.16.1a2.872 2.872 0 1 1 1.05-3.923M47.85 39.945a1.23 1.23 0 1 0 0 2.462 1.23 1.23 0 0 0 0-2.462m-32.903.483a1.23 1.23 0 1 0 2.132 1.23 1.23 1.23 0 0 0-2.132-1.23m34.237-18.985c1.827 3.165.394 7.728-3.668 12.2a.82.82 0 0 1-1.215-1.102c3.593-3.956 4.865-7.846 3.461-10.277-1.014-1.758-3.385-2.706-6.712-2.633a.82.82 0 1 1-.036-1.64c3.904-.087 6.818 1.112 8.17 3.452M26.69 19.324a.82.82 0 1 1-.348 1.604c-5.222-1.133-9.227-.29-10.63 2.142-1.015 1.757-.651 4.284 1.076 7.13a.82.82 0 1 1-1.403.85c-2.026-3.337-2.446-6.46-1.095-8.801 1.828-3.165 6.496-4.205 12.4-2.925m4.74-6.852a1.23 1.23 0 1 0 1.232 2.132 1.23 1.23 0 0 0-1.231-2.132"/><circle cx="32" cy="32" r="2.051" fill="#d0f7fa"/><path fill="#2c2e3a" fill-rule="nonzero" d="m6.654 84 .903-3.591h4.62L13.08 84h3.948l-4.851-15.624H7.683L2.832 84zm4.809-6.489H8.271l.336-1.323c.399-1.554.819-3.381 1.197-5.019h.084c.42 1.596.819 3.465 1.239 5.019zm13.05 6.783c3.78 0 5.965-2.289 5.965-4.893 0-2.205-1.155-3.507-3.087-4.284l-1.953-.777c-1.386-.546-2.373-.882-2.373-1.743 0-.84.714-1.302 1.869-1.302 1.218 0 2.184.42 3.213 1.197l1.869-2.352c-1.365-1.365-3.276-2.058-5.082-2.058-3.318 0-5.67 2.1-5.67 4.725 0 2.268 1.533 3.633 3.17 4.284l1.996.84c1.344.567 2.205.861 2.205 1.764 0 .84-.651 1.365-2.037 1.365-1.24 0-2.688-.651-3.801-1.596l-2.121 2.583c1.617 1.491 3.8 2.247 5.838 2.247M35.927 84l.903-3.591h4.62L42.352 84H46.3l-4.85-15.624h-4.495L32.105 84zm4.81-6.489h-3.193l.336-1.323c.4-1.554.82-3.381 1.197-5.019h.084c.42 1.596.82 3.465 1.24 5.019zM52.693 84v-5.502H54.5L57.377 84h4.2l-3.486-6.195c1.617-.756 2.688-2.226 2.688-4.515 0-3.78-2.772-4.914-6.111-4.914h-5.733V84zm1.68-8.463h-1.68v-4.2h1.68c1.785 0 2.73.483 2.73 1.953s-.945 2.247-2.73 2.247"/></g></svg>