<svg xmlns="http://www.w3.org/2000/svg" xmlns:xlink="http://www.w3.org/1999/xlink" viewBox="0 0 96 96"><defs><linearGradient id="b" x1="50%" x2="50%" y1="0%" y2="100%"><stop offset="0%" stop-color="#ffff70"/><stop offset="100%" stop-color="#ffff3d"/></linearGradient><linearGradient id="c" x1="50%" x2="50%" y1="0%" y2="100%"><stop offset="0%" stop-color="#a30002"/><stop offset="100%" stop-color="#6a0001"/></linearGradient><linearGradient id="d" x1="50%" x2="50%" y1="0%" y2="100%"><stop offset="0%" stop-color="#00df1c"/><stop offset="100%" stop-color="#00bc0c"/></linearGradient><linearGradient id="e" x1="50%" x2="50%" y1="0%" y2="100%"><stop offset="0%" stop-color="#009"/><stop offset="100%" stop-color="#000060"/></linearGradient><filter id="a" width="125.8%" height="130.4%" x="-12.9%" y="-15.2%" filterUnits="objectBoundingBox"><feOffset dy="2" in="SourceAlpha" result="shadowOffsetOuter1"/><feGaussianBlur in="shadowOffsetOuter1" result="shadowBlurOuter1" stdDeviation="2"/><feColorMatrix in="shadowBlurOuter1" result="shadowMatrixOuter1" values="0 0 0 0 0 0 0 0 0 0 0 0 0 0 0 0 0 0 0.2 0"/><feMerge><feMergeNode in="shadowMatrixOuter1"/><feMergeNode in="SourceGraphic"/></feMerge></filter></defs><g fill="none" fill-rule="evenodd" filter="url(#a)" transform="translate(.515 9.095)"><path fill="url(#b)" d="M75.043 55.578c0-5.649-5.262-9.413-10.554-12.868-4.247-2.772-8.174-5.387-12.25-5.387-3.286 0-5.413 1.529-6.936 2.885-1.558 1.388-2.848 2.64-3.296 5.904-.334 2.435-.687 7.58-.687 10.31 0 5.31-1.476 14.166 3.215 18.048 4.692 3.883 10.185 3.313 17.042-.414 7.353-3.997 13.466-12.829 13.466-18.478"/><path fill="url(#c)" d="M38.64 36.356c2.357 0 2.94-2.755 4.514-3.456 2.27-1.01 5.038-.39 5.038-3.285 0-4.902 2.01-13.522-3.746-13.522-3.492 0-9.704 4.032-12.924 7.859-.738.876-2.532 3.765-1.858 5.735 1.232 3.602 6.193 6.669 8.977 6.669"/><ellipse cx="45.543" cy="37.229" fill="#f0fdff" rx="7.585" ry="5.303" transform="rotate(-34 45.543 37.229)"/><path fill="url(#d)" d="M75.043 22.955c10.109-7.432 17.862-9.388 17.862-17.253s-11.424-7.608-20.873.859-18.904 15.21-18.904 22.126c0 6.914 11.807 1.7 21.915-5.732"/><path fill="url(#e)" d="M21.87 63.655c10.11-7.433 16.628-8.76 16.628-16.626 0-3.189-1.331-4.81-3.953-5.445-3.844-.931-10.068.642-15.686 5.676C9.41 55.728.561 62.9.561 69.816c0 1.736 1.321 2.312 2.597 2.675 3.803 1.084 11.143-3.27 18.713-8.836" transform="rotate(-77 0 32.443)scale(-1 1)"/></g></svg>