<svg xmlns="http://www.w3.org/2000/svg" xmlns:xlink="http://www.w3.org/1999/xlink" viewBox="0 0 96 96"><defs><filter id="a" width="125.8%" height="136.4%" x="-12.9%" y="-18.2%" filterUnits="objectBoundingBox"><feOffset dy="2" in="SourceAlpha" result="shadowOffsetOuter1"/><feGaussianBlur in="shadowOffsetOuter1" result="shadowBlurOuter1" stdDeviation="2"/><feColorMatrix in="shadowBlurOuter1" result="shadowMatrixOuter1" values="0 0 0 0 0 0 0 0 0 0 0 0 0 0 0 0 0 0 0.2 0"/><feMerge><feMergeNode in="shadowMatrixOuter1"/><feMergeNode in="SourceGraphic"/></feMerge></filter></defs><g fill-rule="evenodd" filter="url(#a)" transform="translate(1.42 15)"><path d="M59.802 55.701c.874-1.076 1.72-1.985 2.366-3.02.15-.238-.272-1.1-.645-1.336-.564-.357-1.316-.422-1.993-.592-.028-.007-.133.166-.154.265-.319 1.517-.366 3.012.426 4.683m-9.655 2.312c-.136 2.26.6 3.81 1.658 5.236.099.133.593.149.757.025.73-.547 1.468-1.112 2.07-1.79.197-.221.143-1.062-.054-1.176-1.363-.792-2.795-1.468-4.43-2.295m5.523 1.746.436.158c.923-.912 1.87-1.804 2.753-2.754.179-.193.227-.632.156-.912-.355-1.406-2.192-2.522-3.66-2.366-.638.067-.868.355-.756.908.335 1.66.711 3.311 1.071 4.966m5.71-10.773c.681-1.893.79-3.698.218-5.483-.134-.418-.799-.938-1.21-.93-.607.01-1.263.368-1.795.73-.806.55-1.345 1.426-.898 2.354.725 1.509 1.89 2.665 3.686 3.33m4.252-8.012c-.233-.783-.369-1.825-.838-2.686-.735-1.35-1.78-1.27-2.57.062-1.186 1.999-.362 5.27 1.617 6.413.619.358 1.007.082 1.15-.518.233-.991.396-2 .641-3.27m-8.527 12.35c1.078-1.301 1.415-2.97.998-4.357-.343-1.144-.945-2.127-2.234-2.287-1.342-.167-2.291.63-3.05 1.626-.145.192-.16.713-.013.86 1.401 1.41 2.85 2.77 4.299 4.157m-30.167.712c3.401 5.126 8.156 8.454 13.765 10.67-.022-.245-.198-.31-.334-.422-2.082-1.736-4.213-3.419-6.22-5.238-1.519-1.376-2.848-2.958-4.316-4.392-.998-.975-2.04-1.106-2.895-.618m26.796 3.329c.285-2.219-.492-4.651-1.914-6.324-1.823-2.144-3.182-2.008-4.474.504-.147.285-.083.917.132 1.113a76 76 0 0 0 4.17 3.53c.582.459 1.301.743 2.086 1.177m-17.12-33.151c-2.73 1.365-4.429 5.131-3.713 8.341.11.5.45.947.683 1.419.482-.24 1.027-.402 1.435-.732 2.222-1.797 2.5-6.646 1.595-9.028m11.448 35.894.308-.28c.05-2.471-.515-4.778-2.244-6.632-1.123-1.203-2.61-1.6-4.22-1.04-1.554.54-1.783 1.689-.562 2.79 1.222 1.103 2.45 2.206 3.746 3.218.93.726 1.977 1.301 2.972 1.944m-1.805 2.43c-.529-.403-1.031-.72-1.451-1.121-1.845-1.766-3.98-3.342-5.398-5.408-1.143-1.666-2.189-2.545-4.191-2.389-1.497.117-3.01.024-4.6.024.115.288.136.4.196.484q.254.358.535.695a48.5 48.5 0 0 0 8.587 7.99c3.331 2.426 3.618 1.82 5.84.156.059-.044.11-.096.482-.43m-.413-26.067c.315.405.474.65.672.86 2.524 2.666 6.946 3.117 10.434 1.071 2.75-1.612 3.55-5.078 1.843-7.797-.48-.766-.974-.848-1.722-.408-1.578.928-3.181 1.815-4.78 2.706-2.106 1.173-4.217 2.334-6.447 3.568M5.942 25.716c1.6.986 3.228 1.93 4.794 2.966 5.195 3.437 10.365 6.91 15.555 10.354.267.178.623.22.938.327l.279-.32-15.422-21.54.155-.128q1.56 1.922 3.116 3.848c4.338 5.366 8.67 10.737 13.023 16.091.212.26.603.374.91.556-.015-.337.055-.705-.057-1.006-1.865-5.033-3.753-10.058-5.633-15.085-.124-.33-.228-.667-.19-1.061l7.562 16.136c.418-.265.711-.476 1.027-.647.675-.364.78-.72.358-1.468-1.615-2.863-.775-7.67 1.933-10.128 1.268-1.151 2.13-2.106 1.394-3.9-.323-.787.065-1.443.992-1.707 1.721-.49 3.414-1.08 5.14-1.553 2.314-.633 4.516-2.68 5.208-5.515.627-2.57 2.003-5.011 3.352-7.333.879-1.513 2.252-2.757 3.494-4.035.769-.792 1.655-.724 2.544.009 1.85 1.523 3.415 3.352 4.19 5.56.902 2.573.221 5.058-1.691 7.1-.216.23-.534.365-.753.69 6.414.898 10.807 4.333 13.44 9.702 3.29-.946 6.42-1.899 9.583-2.73 1.266-.333 2.596-.456 3.906-.569 1.8-.156 2.632.54 2.73 2.34.087 1.63.018 3.27.018 4.546-1.964.464-3.628.621-5.076 1.264-1.678.744-2.246 2.316-1.71 4.368l-3.246-1.302-.11.15 2.716 3.433c-1.94.057-3.576.22-3.684 2.53l-4.274-.588.982 10.147 19.724 1.83v.153H80.99c-2.539 0-5.078.05-7.614-.024-1.265-.036-2.389.21-3.435.903a64 64 0 0 1-2.596 1.652c-.67.398-.564.833-.043 1.18.664.443 1.396.786 2.103 1.165q6.72 3.6 13.444 7.197l-.187.373c-.854-.369-1.716-.722-2.562-1.108-4.126-1.886-8.244-3.79-12.376-5.662a11 11 0 0 0-1.976-.648c-1.202-.283-2.644.318-3.017 1.43-.15.45.193 1.19.519 1.65 1.817 2.57 3.698 5.092 5.489 7.696l-7.96-7.433c-1.221 1.559-2.313 2.97-3.425 4.366-.687.86-1.339 1.764-2.12 2.532-1.855 1.822-3.766 1.882-5.598.044-.949-.953-1.77-.984-2.797-.352-.156.096-.336.16-.477.274-3.146 2.562-6.306 1.548-9.433-.003-3.208-1.59-5.752-4.031-8.168-6.61-1.532-1.635-3.008-3.328-5.098-4.296-.765-.354-.86-.92-.733-1.712.399-2.459.67-4.938 1.084-7.394.12-.703-.27-.832-.69-1.026-4.419-2.031-8.846-4.045-13.262-6.084-3.378-1.56-6.744-3.15-10.061-4.857l25.357 8.975.231-.376c-.3-.312-.565-.67-.906-.928C18.89 35.745 13.087 31.383 7.299 27c-.493-.373-.893-.868-1.336-1.306z"/></g></svg>