<svg xmlns="http://www.w3.org/2000/svg" xmlns:xlink="http://www.w3.org/1999/xlink" viewBox="0 0 96 96"><defs><linearGradient id="b" x1="50%" x2="61.938%" y1="0%" y2="100%"><stop offset="0%" stop-color="#e1e2df"/><stop offset="15.035%" stop-color="#e3e3e1"/><stop offset="76.48%" stop-color="#7b7d78"/><stop offset="100%" stop-color="#a8a9a3"/></linearGradient><linearGradient id="c" x1="50%" x2="50%" y1="0%" y2="100%"><stop offset="0%" stop-color="#d0d0d0"/><stop offset="100%" stop-color="#4a4a4a"/></linearGradient><linearGradient id="d" x1="38.96%" x2="81.354%" y1="15.473%" y2="50%"><stop offset="0%" stop-color="#979797" stop-opacity="0"/><stop offset="45.099%" stop-color="#b2b2b1"/><stop offset="76.463%" stop-color="#8c8e8a" stop-opacity=".228"/><stop offset="100%" stop-color="#81837f" stop-opacity="0"/></linearGradient><linearGradient id="e" x1="39.213%" x2="80.634%" y1="15.473%" y2="50%"><stop offset="0%" stop-color="#979797" stop-opacity="0"/><stop offset="45.099%" stop-color="#b2b2b1"/><stop offset="76.463%" stop-color="#8c8e8a" stop-opacity=".228"/><stop offset="100%" stop-color="#81837f" stop-opacity="0"/></linearGradient><linearGradient id="f" x1="33.698%" x2="96.297%" y1="15.473%" y2="50%"><stop offset="0%" stop-color="#d2d3d0" stop-opacity="0"/><stop offset="45.099%" stop-color="#fbfbfb"/><stop offset="76.463%" stop-color="#f2f2f1"/><stop offset="100%" stop-color="#e1e2df"/></linearGradient><linearGradient id="g" x1="35.067%" x2="92.41%" y1="15.473%" y2="50%"><stop offset="0%" stop-color="#d2d3d0" stop-opacity="0"/><stop offset="45.099%" stop-color="#fbfbfb"/><stop offset="76.463%" stop-color="#f2f2f1"/><stop offset="100%" stop-color="#e1e2df"/></linearGradient><linearGradient id="h" x1="50%" x2="50%" y1="0%" y2="100%"><stop offset="0%" stop-color="silver"/><stop offset="100%" stop-color="#dbe5d9"/></linearGradient><linearGradient id="i" x1="50%" x2="50%" y1="0%" y2="100%"><stop offset="0%" stop-color="#d7d7d7"/><stop offset="100%" stop-color="#fff"/></linearGradient><linearGradient id="j" x1="50%" x2="50%" y1="0%" y2="100%"><stop offset="3.701%" stop-color="#616668"/><stop offset="100%"/></linearGradient><linearGradient id="k" x1="50%" x2="50%" y1=".656%" y2="99.459%"><stop offset="0%" stop-color="#fff"/><stop offset="100%" stop-color="#fff" stop-opacity=".927"/></linearGradient><filter id="a" width="132%" height="129.3%" x="-16%" y="-14.6%" filterUnits="objectBoundingBox"><feOffset dy="2" in="SourceAlpha" result="shadowOffsetOuter1"/><feGaussianBlur in="shadowOffsetOuter1" result="shadowBlurOuter1" stdDeviation="2"/><feColorMatrix in="shadowBlurOuter1" result="shadowMatrixOuter1" values="0 0 0 0 0 0 0 0 0 0 0 0 0 0 0 0 0 0 0.2 0"/><feMerge><feMergeNode in="shadowMatrixOuter1"/><feMergeNode in="SourceGraphic"/></feMerge></filter></defs><g fill="none" filter="url(#a)" transform="translate(10.986 8)"><path fill="url(#b)" d="M64 .5c2.9 0 5.524 1.175 7.425 3.075S74.5 8.101 74.5 11v60c0 2.9-1.175 5.524-3.075 7.425A10.47 10.47 0 0 1 64 81.5H11c-2.9 0-5.524-1.175-7.425-3.075A10.47 10.47 0 0 1 .5 71V11c0-2.9 1.175-5.524 3.075-7.425S8.101.5 11 .5z"/><path fill="url(#c)" d="M64 0H11l-.355.006a10.97 10.97 0 0 0-7.423 3.216A10.97 10.97 0 0 0 0 11v60l.006.355a10.97 10.97 0 0 0 3.216 7.423A10.97 10.97 0 0 0 11 82h53l.355-.006a10.97 10.97 0 0 0 7.423-3.216A10.97 10.97 0 0 0 75 71V11l-.006-.355a10.97 10.97 0 0 0-3.216-7.423A10.97 10.97 0 0 0 64 0M10.67 1.005 11.008 1H64a9.97 9.97 0 0 1 7.071 2.929 9.96 9.96 0 0 1 2.924 6.74l.005.34V71a9.97 9.97 0 0 1-2.929 7.071 9.96 9.96 0 0 1-6.74 2.924l-.34.005H11a9.97 9.97 0 0 1-7.071-2.929 9.96 9.96 0 0 1-2.924-6.74L1 70.99V11a9.97 9.97 0 0 1 2.929-7.071 9.96 9.96 0 0 1 6.74-2.924"/><path fill="url(#d)" d="M11 47.779v6.496a5 5 0 0 0 4.717 4.992l11.59.656V71c0 5.523-4.477 10-10 10H11C5.477 81 1 76.523 1 71V57.779c0-5.523 4.477-10 10-10"/><path fill="url(#e)" d="M57.692 47.783v6.492a5 5 0 0 0 4.718 4.992l11.59.655V71c0 5.523-4.477 10-10 10h-6c-5.523 0-10-4.477-10-10V57.779c0-5.42 4.312-9.833 9.692-9.996" transform="matrix(-1 0 0 1 122 0)"/><path fill="url(#f)" d="M11 1v8.22a5 5 0 0 0 5 5h8.307v1c0 5.43-4.327 9.848-9.72 9.996l-.28.004H11c-5.523 0-10-4.477-10-10V11C1 5.477 5.477 1 11 1" transform="matrix(1 0 0 -1 0 26.22)"/><path fill="url(#g)" d="M62 .999V9.22a5 5 0 0 0 5 5h7.308v1c0 5.43-4.327 9.848-9.72 9.996l-.28.004h-2.307c-5.523 0-10-4.477-10-10v-4.221c0-5.523 4.477-10 10-10" transform="rotate(180 63.154 13.11)"/><path fill="url(#h)" d="M59 12.5c1.243 0 2.368.504 3.182 1.318A4.5 4.5 0 0 1 63.5 17v40a4.5 4.5 0 0 1-1.318 3.182A4.5 4.5 0 0 1 59 61.5H16a4.5 4.5 0 0 1-3.182-1.318A4.5 4.5 0 0 1 11.5 57V17c0-1.243.504-2.368 1.318-3.182A4.5 4.5 0 0 1 16 12.5z"/><path fill="url(#i)" d="M59 12H16l-.26.007a5 5 0 0 0-3.276 1.457A5 5 0 0 0 11 17v40l.007.26a5 5 0 0 0 1.457 3.276A5 5 0 0 0 16 62h43l.26-.007a5 5 0 0 0 3.276-1.457A5 5 0 0 0 64 57V17l-.007-.26a5 5 0 0 0-1.457-3.276A5 5 0 0 0 59 12m-43.22 1.006.233-.006H59c1.076 0 2.083.426 2.828 1.172a4 4 0 0 1 1.166 2.608l.006.233V57a4 4 0 0 1-1.172 2.828 4 4 0 0 1-2.608 1.166l-.233.006H16a4 4 0 0 1-2.828-1.172 4 4 0 0 1-1.166-2.608L12 56.987V17c0-1.076.426-2.083 1.172-2.828a4 4 0 0 1 2.608-1.166"/><path fill="url(#j)" d="M38 17.5c5.385 0 10.26 2.183 13.789 5.711A19.44 19.44 0 0 1 57.5 37c0 1.904-.274 3.773-.806 5.563a5.48 5.48 0 0 1-.08 4.283l-3.302 6.496a5.48 5.48 0 0 1-3.201 2.734 5.48 5.48 0 0 1-4.197-.33 5.48 5.48 0 0 1-2.693-3.08 5.48 5.48 0 0 1 .185-4.101l3.282-6.453a5.49 5.49 0 0 1 3.608-2.85q.203-1.11.204-2.262c0-3.452-1.4-6.577-3.661-8.839A12.46 12.46 0 0 0 38 24.5a12.46 12.46 0 0 0-8.839 3.661A12.46 12.46 0 0 0 25.5 37q0 1.075.178 2.112c.906.036 1.79.295 2.57.752a5.47 5.47 0 0 1 2.118 2.248l3.178 6.237a5.48 5.48 0 0 1 .33 4.196 5.48 5.48 0 0 1-2.734 3.201 5.48 5.48 0 0 1-4.196.33 5.48 5.48 0 0 1-3.201-2.734l-3.178-6.237a5.5 5.5 0 0 1-.598-2.67A19.5 19.5 0 0 1 18.5 37c0-5.385 2.183-10.26 5.711-13.789A19.44 19.44 0 0 1 38 17.5"/><path fill="url(#k)" d="M38 17a19.93 19.93 0 0 0-14.142 5.858A19.93 19.93 0 0 0 18 37l.007.526a20 20 0 0 0 1.306 6.615l.153.386.002-.109a6 6 0 0 0 .651 2.914l3.178 6.237.141.26a6 6 0 0 0 3.351 2.723 5.98 5.98 0 0 0 4.578-.36A5.98 5.98 0 0 0 34.35 52.7a5.98 5.98 0 0 0-.36-4.578l-3.178-6.237-.148-.272a6 6 0 0 0-2.163-2.18l-.288-.159a6 6 0 0 0-1.862-.6l-.239-.029-.05-.421Q26 37.616 26 37c0-3.226 1.278-6.249 3.515-8.485A11.96 11.96 0 0 1 38 25c3.226 0 6.249 1.278 8.485 3.515A11.96 11.96 0 0 1 50 37l-.008.44q-.024.659-.118 1.304l-.02.122-.201.063a5.98 5.98 0 0 0-3.41 2.956l-3.283 6.453-.128.3a6 6 0 0 0-.083 4.193 5.98 5.98 0 0 0 2.938 3.36 5.98 5.98 0 0 0 4.578.36 5.98 5.98 0 0 0 3.492-2.982l3.302-6.496.126-.3.097-.27a6 6 0 0 0-.025-3.862l-.038-.1-.046.165A20 20 0 0 0 58 37a19.93 19.93 0 0 0-5.858-14.142A19.93 19.93 0 0 0 38 17m0 1c5.108 0 9.895 2.024 13.435 5.565A18.93 18.93 0 0 1 57 37c0 1.663-.214 3.305-.637 4.893l-.198.695.065.161a5 5 0 0 1 .027 3.652l-.105.253-3.286 6.462a4.98 4.98 0 0 1-2.91 2.485 4.98 4.98 0 0 1-3.815-.3 4.98 4.98 0 0 1-2.448-2.801 4.98 4.98 0 0 1 .064-3.483l.11-.257 3.267-6.422a4.99 4.99 0 0 1 3.28-2.59l.315-.076.059-.32c.14-.77.212-1.557.212-2.352 0-3.494-1.386-6.77-3.808-9.192A12.96 12.96 0 0 0 38 24c-3.494 0-6.77 1.386-9.192 3.808A12.96 12.96 0 0 0 25 37c0 .74.062 1.475.185 2.196l.068.4.405.016a5 5 0 0 1 2.338.683 4.97 4.97 0 0 1 1.796 1.807l.135.248 3.171 6.226a4.98 4.98 0 0 1 .3 3.815 4.98 4.98 0 0 1-2.485 2.91 4.98 4.98 0 0 1-3.815.3 4.98 4.98 0 0 1-2.787-2.259l-.128-.238-3.173-6.226a5 5 0 0 1-.543-2.428l-.037-.206A19 19 0 0 1 19 37c0-5.108 2.024-9.895 5.565-13.435A18.93 18.93 0 0 1 38 18"/></g></svg>