<svg xmlns="http://www.w3.org/2000/svg" xmlns:xlink="http://www.w3.org/1999/xlink" viewBox="0 0 96 96"><defs><linearGradient id="c" x1="50%" x2="50%" y1="2.185%" y2="100%"><stop offset="0%" stop-color="#fff"/><stop offset="100%" stop-color="#fff"/></linearGradient><linearGradient id="d" x1="50%" x2="50%" y1=".161%" y2="100%"><stop offset="0%" stop-color="#ff4cc7"/><stop offset="100%" stop-color="#ff1d66"/></linearGradient><linearGradient id="e" x1="34.848%" x2="92.949%" y1="69.644%" y2="35.023%"><stop offset="0%" stop-color="#43d4fe"/><stop offset="100%" stop-color="#00b4ff"/></linearGradient><linearGradient id="f" x1="17.588%" x2="59.251%" y1="89.99%" y2="28.035%"><stop offset="0%" stop-color="#03c5fd"/><stop offset="63.124%" stop-color="#00b4ff"/><stop offset="100%" stop-color="#002ae1"/></linearGradient><linearGradient id="g" x1="31.078%" x2="41.534%" y1="2.566%" y2="90.68%"><stop offset="0%" stop-color="#ff43b4"/><stop offset="100%" stop-color="#ff1d66"/></linearGradient><filter id="a" width="130.8%" height="118.5%" x="-15.4%" y="-9.2%" filterUnits="objectBoundingBox"><feOffset dy="2" in="SourceAlpha" result="shadowOffsetOuter1"/><feGaussianBlur in="shadowOffsetOuter1" result="shadowBlurOuter1" stdDeviation="2"/><feColorMatrix in="shadowBlurOuter1" result="shadowMatrixOuter1" values="0 0 0 0 0 0 0 0 0 0 0 0 0 0 0 0 0 0 0.2 0"/><feMerge><feMergeNode in="shadowMatrixOuter1"/><feMergeNode in="SourceGraphic"/></feMerge></filter><rect id="b" width="78" height="78" x="0" y="51" rx="16"/></defs><g fill="none" fill-rule="evenodd"><g filter="url(#a)" transform="translate(9 -42)"><use xlink:href="#b" fill="url(#c)"/><path fill="url(#d)" d="m26 105 .328.01c3.052.17 5.497 2.707 5.663 5.87l.009.343v2.556l-.009.34c-.166 3.164-2.61 5.7-5.663 5.872L26 120l-.33-.01c-3.05-.171-5.497-2.707-5.661-5.87l-.009-.341v-2.556c0-3.437 2.687-6.223 6-6.223m17.505 0c.83 0 1.504.674 1.504 1.505v7.487a6.005 6.005 0 0 1-12.009 0V106.5a1.5 1.5 0 0 1 3 0v7.5a3 3 0 0 0 6 0v-7.495c0-.831.674-1.505 1.505-1.505m-23.812.776a1.5 1.5 0 0 1 0 2.121L15 112.59v5.892a1.5 1.5 0 0 1-3 0v-5.612a1.5 1.5 0 0 1-.182-.155L7 107.897a1.5 1.5 0 1 1 2.121-2.121l4.226 4.226 4.225-4.226a1.5 1.5 0 0 1 2.121 0M26.001 108l-.26.011c-1.449.133-2.607 1.364-2.73 2.912L23 111.2v2.6c0 1.674 1.206 3.049 2.741 3.189l.26.011.257-.011c1.452-.133 2.606-1.366 2.73-2.912L29 113.8v-2.6l-.012-.277C28.857 109.285 27.57 108 26 108"/><path fill="url(#e)" d="M48.5 105a1.5 1.5 0 0 1 1.5 1.5v5.048l.06-.065 5.423-5.422a1.5 1.5 0 0 1 2.121 2.121l-4.651 4.65 4.651 4.65a1.5 1.5 0 0 1 .103 2.008l-.103.114a1.5 1.5 0 0 1-2.007.103l-.114-.103-5.422-5.422-.062-.066.001 4.38a1.5 1.5 0 0 1-3 0V106.5a1.5 1.5 0 0 1 1.5-1.5m20.995 0c.831 0 1.505.674 1.505 1.505v7.487a6.005 6.005 0 0 1-12.01 0V106.5a1.5 1.5 0 0 1 3 0v7.5a3 3 0 0 0 6 0v-7.495c0-.831.674-1.505 1.505-1.505"/></g><path fill="url(#f)" d="M31.801 24.163 17.947 38.018A8.46 8.46 0 1 1 5.982 26.053l13.855-13.854A8.46 8.46 0 1 1 31.8 24.163" transform="rotate(4 -205.214 506.713)"/><path fill="url(#g)" d="m13.1 1.135 16.97 9.795a8.46 8.46 0 0 1 .936 14.03l-3.837 3.834-5.513-3.183-.047-.027L4.64 15.79A8.46 8.46 0 1 1 13.1 1.135" transform="rotate(4 -205.214 506.713)"/></g></svg>