<svg xmlns="http://www.w3.org/2000/svg" xmlns:xlink="http://www.w3.org/1999/xlink" viewBox="0 0 96 96"><defs><linearGradient id="b" x1="50%" x2="50%" y1="7.697%" y2="98.684%"><stop offset="0%" stop-color="#5bffc4"/><stop offset="100%" stop-color="#008097"/></linearGradient><linearGradient id="c" x1="50%" x2="50%" y1="-2.271%" y2="103.518%"><stop offset="0%" stop-color="#52d6ff"/><stop offset="100%" stop-color="#152bc9"/></linearGradient><linearGradient id="d" x1="50%" x2="50%" y1="0%" y2="100%"><stop offset="0%" stop-color="#fff"/><stop offset="100%" stop-color="#fff" stop-opacity=".94"/></linearGradient><linearGradient id="e" x1="50%" x2="50%" y1="0%" y2="100%"><stop offset="0%" stop-color="#ff986d"/><stop offset="100%" stop-color="#f66464"/></linearGradient><linearGradient id="f" x1="50%" x2="50%" y1="0%" y2="100%"><stop offset="0%" stop-color="#fff"/><stop offset="100%" stop-color="#fff" stop-opacity=".94"/></linearGradient><linearGradient id="g" x1="103.906%" x2="-75.662%" y1="106.323%" y2="-73.701%"><stop offset="0%" stop-color="#5bffc4"/><stop offset="100%" stop-color="#008097"/><stop offset="100%" stop-color="#008097"/></linearGradient><filter id="a" width="130.8%" height="130.8%" x="-15.4%" y="-15.4%" filterUnits="objectBoundingBox"><feOffset dy="2" in="SourceAlpha" result="shadowOffsetOuter1"/><feGaussianBlur in="shadowOffsetOuter1" result="shadowBlurOuter1" stdDeviation="2"/><feColorMatrix in="shadowBlurOuter1" result="shadowMatrixOuter1" values="0 0 0 0 0 0 0 0 0 0 0 0 0 0 0 0 0 0 0.2 0"/><feMerge><feMergeNode in="shadowMatrixOuter1"/><feMergeNode in="SourceGraphic"/></feMerge></filter></defs><g fill="none" filter="url(#a)" transform="translate(9 9)"><path fill="url(#b)" d="M18 0h42c9.941 0 18 8.059 18 18v42c0 9.941-8.059 18-18 18H18C8.059 78 0 69.941 0 60V18C0 8.059 8.059 0 18 0"/><path fill="url(#c)" d="M78 58v2c0 9.941-8.059 18-18 18h-2V65.794L67.167 58z"/><path fill="url(#d)" d="M13 66v11.296A18.04 18.04 0 0 1 1.024 66zm63.976-54H65V.704a18.04 18.04 0 0 1 11.844 10.935z"/><path fill="url(#c)" d="M60 0c2.104 0 4.124.361 6 1.024v21.784L23.824 66h-22.8A18 18 0 0 1 0 60V18C0 8.059 8.059 0 18 0z"/><path fill="url(#e)" d="M38.991 24h6.295L58 34.531v16.09L45.286 60h-6.295L26 50.621v-16.09z"/><path fill="url(#f)" d="M63.5 55v2.5H66v3h-2.501L63.5 64h-5l-.001-3.5H56v-3h2.5V55zm-19-20v3.5H48v5h-3.501L44.5 47h-5l-.001-3.5H36v-5h3.5V35zm-23-18.5V19H25v3h-3.501l.001 3.5h-5l-.001-3.5H13v-3h3.5v-2.5z"/><path fill="url(#g)" d="M19 0v9.222L8.533 20H0v-2C0 8.059 8.059 0 18 0z"/></g></svg>