<svg xmlns="http://www.w3.org/2000/svg" xmlns:xlink="http://www.w3.org/1999/xlink" viewBox="0 0 96 96"><defs><linearGradient id="b" x1="50%" x2="50%" y1="0%" y2="99.765%"><stop offset="0%" stop-color="#482fb4"/><stop offset="100%" stop-color="#aa60cf"/></linearGradient><linearGradient id="c" x1="50%" x2="50%" y1="0%" y2="100%"><stop offset="0%" stop-color="#fff"/><stop offset="100%" stop-color="#fff" stop-opacity=".792"/></linearGradient><filter id="a" width="127.6%" height="127.6%" x="-13.8%" y="-13.8%" filterUnits="objectBoundingBox"><feOffset dy="2" in="SourceAlpha" result="shadowOffsetOuter1"/><feGaussianBlur in="shadowOffsetOuter1" result="shadowBlurOuter1" stdDeviation="2"/><feColorMatrix in="shadowBlurOuter1" result="shadowMatrixOuter1" values="0 0 0 0 0 0 0 0 0 0 0 0 0 0 0 0 0 0 0.2 0"/><feMerge><feMergeNode in="shadowMatrixOuter1"/><feMergeNode in="SourceGraphic"/></feMerge></filter></defs><g fill="none"><g filter="url(#a)" transform="translate(5 5)"><circle cx="43.5" cy="43.5" r="40.5" fill="url(#b)"/><path fill="#f9f9f9" d="M43.5 0C19.476 0 0 19.476 0 43.5S19.476 87 43.5 87 87 67.524 87 43.5 67.524 0 43.5 0m0 3C65.868 3 84 21.132 84 43.5S65.868 84 43.5 84 3 65.868 3 43.5 21.132 3 43.5 3"/></g><path fill="url(#c)" d="M48.5 25C61.479 25 72 35.521 72 48.5S61.479 72 48.5 72 25 61.479 25 48.5 35.521 25 48.5 25m8.919 13H39.674l.364 1.275.136.458c1.257 4.092 3.42 7.207 6.48 9.306l-.366.283c-2.704 2.16-4.78 5.282-6.23 9.342L39.581 60h17.745l-.364-1.275-.136-.458c-1.257-4.093-3.42-7.207-6.48-9.306 2.888-2.172 5.082-5.387 6.596-9.625zm-8.895 12.167.146.088.327.208c2.479 1.632 4.31 4.01 5.5 7.166l.134.371H42.458l.195-.453c1.43-3.242 3.34-5.663 5.727-7.284zM54.541 40l-.195.456c-1.433 3.246-3.346 5.669-5.738 7.29l-.132.086-.146-.087-.327-.208c-2.479-1.632-4.31-4.01-5.5-7.166L42.37 40z"/></g></svg>