<svg xmlns="http://www.w3.org/2000/svg" xmlns:xlink="http://www.w3.org/1999/xlink" viewBox="0 0 96 96"><defs><radialGradient id="b" cx="90.028%" cy="40.55%" r="103.69%" fx="90.028%" fy="40.55%" gradientTransform="matrix(-.7606 .57335 -.64922 -.6717 1.848 .162)"><stop offset="0%" stop-color="#ddc4db"/><stop offset="100%" stop-color="#755672"/></radialGradient><radialGradient id="c" cx="50%" cy="0%" r="111.014%" fx="50%" fy="0%" gradientTransform="matrix(0 .90079 -1 0 .5 -.45)"><stop offset="0%" stop-color="#fff"/><stop offset="100%" stop-color="#18345e"/></radialGradient><filter id="a" width="129.6%" height="129.6%" x="-14.8%" y="-14.8%" filterUnits="objectBoundingBox"><feOffset dy="2" in="SourceAlpha" result="shadowOffsetOuter1"/><feGaussianBlur in="shadowOffsetOuter1" result="shadowBlurOuter1" stdDeviation="2"/><feColorMatrix in="shadowBlurOuter1" result="shadowMatrixOuter1" values="0 0 0 0 0 0 0 0 0 0 0 0 0 0 0 0 0 0 0.2 0"/><feMerge><feMergeNode in="shadowMatrixOuter1"/><feMergeNode in="SourceGraphic"/></feMerge></filter></defs><g fill="none" fill-rule="evenodd" filter="url(#a)" transform="translate(6.993 6.993)"><path fill="url(#b)" d="M40.007 40.007v40c-15.303 0-28.599-8.594-35.325-21.218z"/><path fill="#c00" d="m40.007 40.007-34.641 20c-7.652-13.253-6.858-29.064.712-41.201z"/><path fill="#f57900" d="m40.007 40.007-34.641-20C12.766 7.187 26.192.015 40.002 0q.465 0 .005 40.007"/><path fill="#73d216" d="M40.007 40.007v-40C55.31.007 68.605 8.6 75.332 21.224z"/><path fill="#729fcf" d="m40.007 40.007 34.64-20c7.652 13.252 6.858 29.063-.712 41.2z"/><path fill="url(#c)" d="m40.007 40.007 34.64 20c-7.65 13.252-21.74 20.47-36.037 19.983z"/><path fill="#000" fill-opacity=".304" fill-rule="nonzero" d="M40.007.007c22.091 0 40 17.908 40 40s-17.909 40-40 40-40-17.909-40-40 17.908-40 40-40m0 2c-20.987 0-38 17.013-38 38s17.013 38 38 38 38-17.013 38-38-17.014-38-38-38" opacity=".6"/><path fill="#fff" fill-opacity=".8" fill-rule="nonzero" d="M40.007 2.007c20.986 0 38 17.013 38 38s-17.014 38-38 38-38-17.013-38-38 17.013-38 38-38m0 2c-19.883 0-36 16.117-36 36s16.117 36 36 36 36-16.118 36-36-16.118-36-36-36" opacity=".5"/><path fill="#fff" fill-opacity=".8" fill-rule="nonzero" d="M40.415 68.589c12.402 0 19.734-6.084 19.734-16.146 0-7.878-4.524-11.778-11.232-13.026 5.85-2.106 9.438-6.24 9.438-12.636 0-8.736-6.474-13.338-16.614-13.338-5.538 0-16.244 2.338-19.676 4.132l1.17 8.034c3.12-1.326 11.642-3.586 15.464-3.586 5.616 0 8.736 1.794 8.736 6.708 0 4.758-3.588 7.254-9.438 7.41l-5.226.156v7.722l5.85.156c6.318.156 9.906 2.106 9.906 7.488 0 5.616-3.51 8.346-10.062 8.346-4.134 0-12.713-2.173-15.365-3.811l-1.716 7.8c3.12 1.95 12.479 4.59 19.03 4.59"/></g></svg>