<svg xmlns="http://www.w3.org/2000/svg" xmlns:xlink="http://www.w3.org/1999/xlink" viewBox="0 0 96 96"><defs><linearGradient id="b" x1="51.541%" x2="51.541%" y1="100%" y2="-4.652%"><stop offset="0%" stop-color="#204a87"/><stop offset="100%" stop-color="#84e6f9"/></linearGradient><filter id="a" width="130%" height="130%" x="-15%" y="-15%" filterUnits="objectBoundingBox"><feOffset dy="2" in="SourceAlpha" result="shadowOffsetOuter1"/><feGaussianBlur in="shadowOffsetOuter1" result="shadowBlurOuter1" stdDeviation="2"/><feColorMatrix in="shadowBlurOuter1" result="shadowMatrixOuter1" values="0 0 0 0 0 0 0 0 0 0 0 0 0 0 0 0 0 0 0.2 0"/><feMerge><feMergeNode in="shadowMatrixOuter1"/><feMergeNode in="SourceGraphic"/></feMerge></filter></defs><g fill="none" filter="url(#a)" transform="translate(6 6)"><path fill="#fff" stroke="#729fcf" stroke-linecap="square" stroke-width="1.24" d="M84 42a42 42 0 1 1-84 0 42 42 0 0 1 84 0z"/><path fill="url(#b)" d="M78.832 42a36.832 36.832 0 1 1-73.664 0 36.832 36.832 0 0 1 73.664 0"/><path fill="#fff" d="M46.24 20.24c-4.797 0-13.178 1.235-16.275 4.481-.54.567-13.551.794-21.224 1.446-.531 1.112-.95 1.965-1.369 3.134 8.702.688 15.06 5.392 27.217 19.577-1.063 2.398-5.597 5.249-11.427 6.478-3.92.826-8.754 5.651-11.127 8.955 6.726 8.89 17.97 15.337 29.968 15.337 14.474 0 27.975-8.696 33.995-20.85-.807-.685-2.714-1.83-3.992-2.668-.646-14.032-7.434-23.443-7.434-25.42 0-4.447-12.33-10.47-18.332-10.47"/><path fill="#2e3436" d="M46.436 20.01c-4.874 0-13.386 1.258-16.533 4.556-.61.64-16.944.84-24 1.697-2.089.253-2.598 1.314-2.634 1.519-.023.134-.93.835-.354 1.088.353.156.781.53 1.367.532 10.272.033 16.79 3.908 30.356 19.748 13.23-6.515 20.31-4.038 26.102-3.823.544.02 1.49-.318 1.367-.836-3.735-15.822 1.39-12.101 3.62-12.127-.381-.736-.658-1.353-.658-1.722 0-4.517-12.535-10.633-18.633-10.633"/><path fill="#888a85" d="M5.109 29.258s13.88.055 28.62 2.055c14.884 2.02 14.97 4.11 14.97 4.11-18.474-5.909-28.114-3.74-43.59-6.165"/><path fill="#babdb6" d="M37.04 24.757c.466-.117.942-.14 1.42-.138 6.755.028 4.463-.336 7.164.127 1.219.247 2.373.719 3.52 1.183h-4.421c-1.545-.521-3.105-1.007-4.734-1.183z"/><path fill="#000" d="M62.686 32.036c-1.957-.028-3.55 1.604-1.022 12.31.12.509-.81.841-1.345.821-5.701-.211-12.668-2.648-25.69 3.763-.016-.019-.034-.031-.05-.05-1.062 2.398-5.582 5.25-11.412 6.479-.859.18-1.722.547-2.591 1.046.997 8.575 11.851 9.942 29.527 9.942 18.461 0 22.31-.291 22.35-9.917-.157-.105-.279-.188-.448-.299a47 47 0 0 0-.648-5.856c-1.098-2.207-4.055-13.589-7.674-18.114a6 6 0 0 0-.997-.125M34.579 48.88a214 214 0 0 0-3.04-3.488c-.003-.005-.02.004-.025 0a211 211 0 0 1 3.065 3.488" opacity=".067"/></g></svg>