<svg xmlns="http://www.w3.org/2000/svg" viewBox="0 0 64 64"><rect width="18" height="56" x="-60" y="4" opacity=".2" rx="2.5" ry="2.5" transform="rotate(-90)"/><rect width="18" height="56" x="-59" y="4" fill="#8e8e8e" rx="2.5" ry="2.5" transform="rotate(-90)"/><circle cx="-23.5" cy="47.5" r="2.5" opacity=".2" transform="scale(-1 1)"/><circle cx="-16.5" cy="47.5" r="2.5" opacity=".2" transform="scale(-1 1)"/><circle cx="-9.5" cy="47.5" r="2.5" opacity=".2" transform="scale(-1 1)"/><circle cx="-23.5" cy="46.5" r="2.5" fill="#76ff03" transform="scale(-1 1)"/><circle cx="-16.5" cy="46.5" r="2.5" fill="#ff0" transform="scale(-1 1)"/><circle cx="-9.5" cy="46.5" r="2.5" fill="#ffcd40" transform="scale(-1 1)"/><rect width="18" height="56" x="-42" y="4" opacity=".2" rx="2.5" ry="2.5" transform="rotate(-90)"/><rect width="18" height="56" x="-41" y="4" fill="#8e8e8e" rx="2.5" ry="2.5" transform="rotate(-90)"/><circle cx="-16.5" cy="29.5" r="2.5" opacity=".2" transform="scale(-1 1)"/><circle cx="-9.5" cy="29.5" r="2.5" opacity=".2" transform="scale(-1 1)"/><circle cx="-16.5" cy="28.5" r="2.5" fill="#ff0" transform="scale(-1 1)"/><circle cx="-9.5" cy="28.5" r="2.5" fill="#ffcd40" transform="scale(-1 1)"/><rect width="18" height="56" x="-24" y="4" opacity=".2" rx="2.5" ry="2.5" transform="rotate(-90)"/><rect width="18" height="56" x="-23" y="4" fill="#8e8e8e" rx="2.5" ry="2.5" transform="rotate(-90)"/><circle cx="-9.5" cy="11.5" r="2.5" opacity=".2" transform="scale(-1 1)"/><circle cx="-9.5" cy="10.5" r="2.5" fill="#ffcd40" transform="scale(-1 1)"/><path fill="#fff" d="M57.5 5C58.885 5 60 6.115 60 7.5v1C60 7.115 58.885 6 57.5 6h-51A2.495 2.495 0 0 0 4 8.5v-1C4 6.115 5.115 5 6.5 5Z" opacity=".2"/></svg>