<svg xmlns="http://www.w3.org/2000/svg" xmlns:xlink="http://www.w3.org/1999/xlink" viewBox="0 0 96 96"><defs><linearGradient id="b" x1="50%" x2="50%" y1="0%" y2="100%"><stop offset="0%" stop-color="#bbb"/><stop offset="100%" stop-color="#868686"/></linearGradient><filter id="a" width="130.8%" height="130.8%" x="-15.4%" y="-15.4%" filterUnits="objectBoundingBox"><feOffset dy="2" in="SourceAlpha" result="shadowOffsetOuter1"/><feGaussianBlur in="shadowOffsetOuter1" result="shadowBlurOuter1" stdDeviation="2"/><feColorMatrix in="shadowBlurOuter1" result="shadowMatrixOuter1" values="0 0 0 0 0 0 0 0 0 0 0 0 0 0 0 0 0 0 0.2 0"/><feMerge><feMergeNode in="shadowMatrixOuter1"/><feMergeNode in="SourceGraphic"/></feMerge></filter></defs><g fill="none" fill-rule="evenodd" filter="url(#a)" transform="translate(9 9)"><rect width="78" height="78" fill="#fff" rx="18"/><path fill="#ff1be9" fill-rule="nonzero" d="M13.776 2.977c.635.102 1.08.67 1.044 1.298l-.02.167-.182 1.218c-.142.996-.284 1.084-.417 2.227a99 99 0 0 0-.5 5.58c-.14 2.41-.143 4.469.017 6.056.502 4.968 2.68 10.594 5.404 14.996a1.243 1.243 0 1 1-2.115 1.308c-2.907-4.7-5.219-10.67-5.762-16.054-.176-1.74-.174-3.921-.026-6.45.106-1.817.283-3.749.512-5.722l.166-.37.086-.66.21-1.523.158-1.042a1.243 1.243 0 0 1 1.425-1.03M28.557.5a1.243 1.243 0 0 1 1.624.675l.435 1.068c2.076 5.156 2.616 6.673 2.648 11.778L33.24 24.3c.004 3.062.039 4.596.12 5.152l.023.127a1.243 1.243 0 1 1-2.422.566l-.042-.217c-.151-.925-.181-3-.163-8.486l.023-6.448v-.453c0-5.455-.5-6.612-2.897-12.416a1.243 1.243 0 0 1 .675-1.624"/><path fill="#3b1dd4" fill-rule="nonzero" d="M44.265 1.004a1.243 1.243 0 0 1 1.336 1.142l.064.872.104 1.623c.012.189.023-1.619.034-1.425.056.99.103 1.962.137 2.893l.024.69c.055 1.806.057 3.33-.008 4.492-.295 5.238-1.392 12.3-2.82 16.309-1.68 4.713-4.354 7.501-7.033 7.172-2.13-.262-4.71-2.73-5.142-4.576a1.243 1.243 0 0 1 2.387-.688l.035.122c.2.86 1.961 2.543 3.023 2.674 1.192.146 3.053-1.794 4.388-5.54 1.333-3.74 2.396-10.591 2.679-15.613l.025-.57c.034-1 .025-2.255-.02-3.705a124 124 0 0 0-.118-2.793l-.04-.726c-.032-.574-.066.871-.101.347l-.097-1.364a1.243 1.243 0 0 1 1.143-1.336M58.459 5.51l.445-3.317a1.243 1.243 0 1 1 2.468.3l-.368 2.732c-.35 2.619-.52 2.573-.52 4.72l.007 1.218c.032 2.388.179 3.207.595 4.026l.05.095c.808 1.518 1.192 4.21.773 6.304l-.065.295-.062.235c-.154.55-.38 1.102-.715 1.784l-1.222 2.372c-.063.124-.116.232-.157.315a20 20 0 0 0-1.248 3.21l-.082.3c-.34 1.29-.773 3.627-1.307 6.957l-.408 2.607-1.302 8.618c-.138.885-.25 1.576-.346 2.118l-.202 1.098c-.28 1.59-.793 5.08-1.541 10.411L51.253 75.23c-.078.535-.13.873-.161 1.042a1.243 1.243 0 0 1-2.446-.447l.054-.332 2.613-17.627c.494-3.453.845-5.769 1.06-6.96l.176-.955c.072-.407.154-.907.251-1.518l.464-3.032.83-5.517c.154-1.018.297-1.938.434-2.797l.335-2.06c.472-2.825.86-4.786 1.19-5.921.313-1.08.69-2.073 1.156-3.088l.24-.51c.302-.626 1.265-2.461 1.25-2.432l.125-.248c.275-.56.451-.986.561-1.372l.043-.163.054-.247c.288-1.517-.008-3.593-.541-4.594l-.141-.276c-.624-1.283-.792-2.544-.802-5.868v-.364c0-2.102.15-2.014.461-4.434M17.33 34.21a1.243 1.243 0 0 1 1.749.18c.746.917.857 3.006.732 7.429l-.05 1.54-.154 4.165c-.015.563-.014.837-.003 1.126l.021.463c.05.858.13 1.127.313 1.37.128.168 1.109 1.171 1.335 1.418 1.907 2.075 4.916 8.24 6.167 12.875.322 1.193.629 2.588.92 4.147.28 1.497.533 2.079.76 3.675l.132.959q.108.808.194 1.51l.124 1.054a1.243 1.243 0 0 1-2.472.268l-.08-.683-.13-1.051-.1-.767c-.254-1.88-.546-2.759-.872-4.508-.28-1.5-.573-2.833-.876-3.955-1.156-4.28-3.995-10.097-5.598-11.842l-.895-.939a12 12 0 0 1-.59-.658c-.558-.735-.746-1.439-.822-2.895l-.022-.539c-.01-.382-.005-.788.029-1.756l.172-4.656.017-.623c.076-3.156-.03-5.372-.181-5.558a1.243 1.243 0 0 1 .18-1.75"/><path fill="#ff1be9" fill-rule="nonzero" d="M32.18 29.04a.662.662 0 0 1 .57 1.193l-.088.042-14.157 5.515a.662.662 0 0 1-.57-1.192l.089-.042zM28.82.79a.662.662 0 0 1 .401 1.26l-.093.029L13.78 5.744a.662.662 0 0 1-.402-1.259l.094-.03z"/><path fill="#24f118" fill-rule="nonzero" d="m42.258 25.097.514.401c.187.146.334.265.48.386.37.307.7.614 1.04.97a.696.696 0 0 0 1.008-.96 13 13 0 0 0-1.157-1.08l-.327-.266-.693-.543a.696.696 0 0 0-.865 1.092m3.693 3.853c.454.669.927 1.438 1.423 2.324a.696.696 0 1 0 1.215-.68 33 33 0 0 0-1.487-2.427.696.696 0 1 0-1.151.783m2.702 4.762q.57 1.154 1.18 2.497a.696.696 0 0 0 1.268-.575 83 83 0 0 0-1.2-2.54.696.696 0 1 0-1.248.618m2.29 5.032q.517 1.216 1.06 2.562a.696.696 0 1 0 1.292-.52q-.548-1.358-1.07-2.586a.696.696 0 1 0-1.281.544m2.079 5.144.518 1.353.263.697a.696.696 0 1 0 1.304-.49l-.527-1.389-.26-.673a.696.696 0 1 0-1.298.502"/><path fill="#24f118" fill-rule="nonzero" d="m66.58 15.96-2.09-1.842a.696.696 0 0 0-.92 1.045l2.09 1.841a.696.696 0 0 0 .92-1.044m-4.179-3.684-2.09-1.841a.696.696 0 1 0-.92 1.045l2.09 1.841a.696.696 0 0 0 .92-1.045m-4.179-3.683-2.09-1.841a.696.696 0 1 0-.92 1.045l2.09 1.841a.696.696 0 0 0 .92-1.045M54.043 4.91l-1.022-.9a.696.696 0 0 0-1.156.542l.041 1.422a.696.696 0 1 0 1.392-.04l-.041-1.423-1.157.543 1.022.901a.696.696 0 0 0 .921-1.045m-2.055 3.848.081 2.784a.696.696 0 0 0 1.392-.04l-.081-2.784a.696.696 0 0 0-1.392.04m.163 5.568.081 2.784a.696.696 0 1 0 1.392-.04l-.081-2.784a.696.696 0 0 0-1.392.04m.163 5.568.081 2.784a.696.696 0 0 0 1.392-.04l-.081-2.784a.696.696 0 1 0-1.392.04m.163 5.568.081 2.784a.696.696 0 1 0 1.392-.04l-.081-2.784a.696.696 0 1 0-1.392.04m.163 5.568.081 2.784a.696.696 0 1 0 1.392-.04l-.081-2.784a.696.696 0 0 0-1.392.04m.163 5.568.081 2.784a.696.696 0 0 0 1.392-.04l-.081-2.784a.696.696 0 1 0-1.392.04m.163 5.569.082 2.784a.696.696 0 1 0 1.392-.041l-.082-2.784a.696.696 0 0 0-1.392.04m22.259-5.36-.818 2.663a.696.696 0 1 0 1.33.408l.819-2.662a.696.696 0 0 0-1.331-.409m-1.636 5.325-.818 2.662a.696.696 0 1 0 1.331.41l.818-2.663a.696.696 0 0 0-1.331-.409m-1.636 5.325-.818 2.662a.696.696 0 0 0 1.332.41l.817-2.663a.696.696 0 0 0-1.33-.41m-2.062 4.657-2 1.938a.696.696 0 0 0 .969 1l2-1.938a.696.696 0 0 0-.97-1m-4 3.876-2 1.939a.696.696 0 0 0 .969 1l2-1.939a.696.696 0 0 0-.97-1m-4 3.877-2 1.938a.696.696 0 0 0 .968 1l2-1.938a.696.696 0 0 0-.969-1m-4.224 1.569-2.777-.216a.696.696 0 1 0-.108 1.388l2.777.216a.696.696 0 0 0 .108-1.388m-5.554-.433-2.777-.216a.696.696 0 0 0-.108 1.389l2.777.216a.696.696 0 1 0 .108-1.389m-5.554-.432-1.92-.15.326.112-.72-.47a.696.696 0 1 0-.76 1.168l.72.468a.7.7 0 0 0 .326.111l1.92.15a.696.696 0 0 0 .108-1.389m-4.647-2.028-2.333-1.521a.696.696 0 1 0-.76 1.166l2.333 1.521a.696.696 0 1 0 .76-1.166M37.246 55.5l-2.151-1.403a.696.696 0 0 0-1.044.37l-.066.207a.696.696 0 0 0 1.326.426l.066-.207-.663-.213-.38.584 2.152 1.402a.696.696 0 0 0 .76-1.166m-4.112 1.826-.85 2.653a.696.696 0 1 0 1.326.425l.85-2.652a.696.696 0 0 0-1.326-.426m-1.701 5.305-.851 2.652a.696.696 0 1 0 1.326.425l.85-2.652a.696.696 0 0 0-1.325-.425m-1.702 5.304-.85 2.652a.696.696 0 1 0 1.326.425l.85-2.652a.696.696 0 1 0-1.326-.425M28.03 72.24l-.851 2.652a.696.696 0 1 0 1.326.425l.85-2.652a.696.696 0 0 0-1.325-.425"/><path fill="#ff00e2" fill-rule="nonzero" d="m5.287 23.215 2.01-1.928a.696.696 0 1 0-.964-1.005l-2.01 1.928a.696.696 0 1 0 .964 1.005m4.02-3.855 2.01-1.928a.696.696 0 0 0-.963-1.005l-2.01 1.928a.696.696 0 0 0 .963 1.005m4.021-3.855 2.01-1.928a.696.696 0 1 0-.963-1.005l-2.01 1.927a.696.696 0 0 0 .963 1.006m4.021-3.855 2.01-1.928a.696.696 0 0 0-.963-1.005l-2.01 1.927a.696.696 0 1 0 .963 1.006m4.021-3.856 2.01-.927a.696.696 0 0 0-.963-1.005l-2.01 1.927c-.278.266-.288-.293-.022-.015a.696.696 0 0 0 .985.02m4.02-2.855 2.011-1.927a.696.696 0 1 0-.964-1.006l-2.01 1.928a.696.696 0 0 0 .964 1.005M2.098 44.65l2.767-.31a.696.696 0 0 0-.154-1.384l-2.768.31a.696.696 0 0 0 .155 1.384m5.535-.62 2.768-.309a.696.696 0 0 0-.154-1.384l-2.768.31a.696.696 0 0 0 .154 1.384m5.536-.618 2.768-.31a.696.696 0 0 0-.155-1.384l-2.767.31a.696.696 0 0 0 .154 1.384m3.536-.62 2.768-.309a.696.696 0 0 0-.155-1.384l-2.768.31a.696.696 0 0 0 .155 1.384m5.536-.618 2.768-.31a.696.696 0 0 0-.155-1.384l-2.768.31a.696.696 0 1 0 .155 1.384m5.536-.62.635-.07a.696.696 0 0 0 .607-.822l-.402-2.109a.696.696 0 0 0-1.368.26l.402 2.109.684-.13-.078-.692-.635.07a.696.696 0 0 0 .155 1.385m.32-5.737-.52-2.736a.696.696 0 0 0-1.369.26l.52 2.736a.696.696 0 0 0 1.369-.26m-1.041-5.472-.521-2.736a.696.696 0 0 0-1.368.26l.52 2.736a.696.696 0 0 0 1.369-.26m-1.042-5.472-.52-2.736a.696.696 0 0 0-1.369.26l.521 2.736a.696.696 0 0 0 1.368-.26m-1.041-5.473-.52-2.736a.696.696 0 0 0-1.369.26l.52 2.737a.696.696 0 0 0 1.369-.26m-1.041-5.472-.297-1.559a.696.696 0 0 0-1.178-.36l-.845.848a.696.696 0 0 0 .987.983l.845-.85-1.177-.36.297 1.559a.696.696 0 0 0 1.368-.26m-4.285.903-1.965 1.974a.696.696 0 1 0 .987.982l1.965-1.973a.696.696 0 1 0-.987-.983m-2.49 5.119-.017 2.785a.696.696 0 0 0 1.392.008l.017-2.785a.696.696 0 0 0-1.393-.008m-.034 5.57-.016 2.785a.696.696 0 0 0 1.392.008l.017-2.785a.696.696 0 0 0-1.393-.008m-.033 5.57-.016 2.785a.696.696 0 0 0 1.392.009l.017-2.785a.696.696 0 0 0-1.393-.009"/><path d="M3.509 21.384h2.692v2.349H3.509zM1.265 32.262h2.692v2.349H1.265z"/><path d="M3.409 21.435h3.19v2.707h-3.19zM.617 29.632h3.19v2.707H.617z"/><path stroke="#3731f5" stroke-linejoin="round" stroke-width="1.315" d="M64.876 15.266v2.744h2.678v-2.744zm9.518 20.511v2.743h2.678v-2.743zm-4.159 14.444v2.744h2.678v-2.744zM59.237 60.982v2.744h2.678v-2.744zm-15.368-1.228v2.744h2.678v-2.744zM1.103 43.143v2.744h2.678v-2.744z" opacity=".812"/><path stroke="#3731f5" stroke-linejoin="round" stroke-width=".55" d="M26.808 39.243v2.744h2.678v-2.744z" opacity=".812"/><path stroke="#3731f5" stroke-linejoin="round" stroke-width="1.315" d="M21.45 11.221v2.744h2.679v-2.744z" opacity=".812"/><path stroke="#3731f5" stroke-linejoin="round" stroke-width=".55" d="M30.827 31.298h2.678v-2.744h-2.678zm-14.593 2.095v2.744h2.678v-2.744zm36.588 10.978v2.744H55.5v-2.744zM41.331 23.499v2.744h2.678v-2.744z" opacity=".812"/><path fill="url(#b)" fill-rule="nonzero" d="M57 .803c.476 0 .875.332.98.872l.02.128v38h18c.55 0 1 .416 1 1 0 .376-.323.739-.851.947l-.149.053H58v34a1 1 0 0 1-1 1c-.476 0-.875-.331-.98-.871l-.02-.129v-34H1a.98.98 0 0 1-1-1c0-.375.323-.738.851-.947L1 39.803h55v-38a1 1 0 0 1 1-1" transform="translate(0 .407)"/><path stroke="#3731f5" stroke-linejoin="round" stroke-width="1.315" d="M3.711 21.364v2.743H6.39v-2.743z" opacity=".812"/></g></svg>