<svg xmlns="http://www.w3.org/2000/svg" xmlns:xlink="http://www.w3.org/1999/xlink" viewBox="0 0 96 96"><defs><linearGradient id="b" x1="50%" x2="50%" y1=".158%" y2="100%"><stop offset="0%" stop-color="#ffe8bf"/><stop offset="100%" stop-color="#dfc29a"/></linearGradient><filter id="a" width="155.2%" height="130.9%" x="-27.6%" y="-15.5%" filterUnits="objectBoundingBox"><feOffset dy="2" in="SourceAlpha" result="shadowOffsetOuter1"/><feGaussianBlur in="shadowOffsetOuter1" result="shadowBlurOuter1" stdDeviation="2"/><feColorMatrix in="shadowBlurOuter1" result="shadowMatrixOuter1" values="0 0 0 0 0 0 0 0 0 0 0 0 0 0 0 0 0 0 0.2 0"/><feMerge><feMergeNode in="shadowMatrixOuter1"/><feMergeNode in="SourceGraphic"/></feMerge></filter></defs><g fill="none" fill-rule="evenodd"><g filter="url(#a)" transform="translate(23.132 5.858)"><path fill="url(#b)" d="m15.868 23.687-5.143-8.007-.946-8.402V1.39l4.039.84 5.717 3.442 4.548 6.867 1.315 4.323 1.042-3.499 1.09-8.042L28.607.375 29.956 0l2.252.375 2.09 2.59 1.47 7.304-.952 7.057 3.535 1.968 3.572 4.393 2.172 7.455 3.051 7.722-.082 3.783-4.53 2.69h-.927l-.378 3.22 2.158 3.45 3.013 7.968.746 9.156-2.467 6.606-2.144 3.916-.612 2.396 1.028 2.093H31.868l.34-2.509-5.535-.491-1.805 3H6.374l.673-3.624L.94 67.184 0 55.145l2.087-9.386 4.96-7.591 8.224-6.026.597-2.15z"/><path stroke="#b9843b" stroke-linecap="round" stroke-linejoin="round" stroke-width="2" d="M18.846 26.642c0-1.67-9.067-7.932-9.067-15.245v-10q3.592-.174 9.07 4.018 4.322 3.307 6.549 10.605.397 1.303 1.042 4.195"/><path stroke="#b9843b" stroke-linecap="round" stroke-linejoin="round" stroke-width="2" d="M25.398 16.02q1.982-3.963 1.982-10.11c0-6.146 2.695-7.044 5.462-4.768s3.031 9.62 2.9 11.632q-.133 2.01-.926 4.552m-8.51 0q7.823-.704 12.045 1.968c4.222 2.671 5.259 9.434 7.517 15.342s1.58 9.366-4.297 10.55c-5.877 1.186-15.086 2.517-20.598-4.347s-5.098-10.102-5.098-12.52q0-2.418.796-4.177"/><path stroke="#b9843b" stroke-linecap="round" stroke-linejoin="round" stroke-width="2" d="M16.07 32.142q-6.882 2.814-11.906 10C-.858 49.328-.865 62.116 1.65 68.88q2.514 6.765 5.397 11.637l-1.179 3.624h19.53q1.969-8.523 6.17-13.443c4.2-4.921 7.108-11.557 7.924-15.057q.816-3.501 2.115-10.455"/><path stroke="#b9843b" stroke-linecap="round" stroke-linejoin="round" stroke-width="2" d="M5.035 41.375q-.907 5.267 0 10.767T8.842 63.27l-2.13 20.872h8.559q1.597-9.251 1.597-12.73V63.27m5.496 1.717q-3.51 5.712-4.299 7.471-.787 1.76-2.794 11.684m11.402-3H30.7m9.194-5h-5.066q-2.96 2.236-2.96 4.464v3.536h11.083q-1.577-3.897-.613-5.306c.964-1.41 6.982-6.62 3.973-17.389q-3.01-10.769-4.951-13.274"/><path fill="#2e3436" d="M33.713 32.142c1.381 0 1.381-1.214 1.253-2.5s-1.377-2.526-2.758-2.526c-.505 0-2.413.002-2.643.9-.417 1.626-.002 2.667.69 3.322 1.017.96 2.67.804 3.458.804"/><path stroke="#b9843b" stroke-linecap="round" stroke-linejoin="round" d="m42.535 38.168 2.588 2.285.531-1.922"/><path fill="#ffebcc" d="M20.309 21.508c-1.022-.753-3.602-2.624-5.255-6.06-.889-1.848-1.343-5.472-1.35-5.915-.026-1.447-.236-2.21-.046-2.626.279-.612 1.124-.627 4.665 3.017s2.896 4.173 3.672 8.49c.775 4.315-.115 4.25-1.686 3.094"/></g><circle cx="55.67" cy="34.5" r="1" fill="#fefefe" transform="rotate(-44 55.67 34.5)"/></g></svg>