<svg xmlns="http://www.w3.org/2000/svg" xmlns:xlink="http://www.w3.org/1999/xlink" viewBox="0 0 96 96"><defs><linearGradient id="c" x1="40.625%" x2="40.625%" y1="20.773%" y2="107.266%"><stop offset="0%" stop-color="#abff44"/><stop offset="100%" stop-color="#92d600"/></linearGradient><linearGradient id="d" x1="16.416%" x2="79.691%" y1="0%" y2="100%"><stop offset="0%" stop-color="#a0a0a0"/><stop offset="100%" stop-color="#242424"/></linearGradient><linearGradient id="e" x1="56.561%" x2="56.561%" y1="109.522%" y2="0%"><stop offset="0%" stop-color="#fff" stop-opacity=".2"/><stop offset="100%" stop-color="#fff" stop-opacity="0"/></linearGradient><linearGradient id="f" x1="50%" x2="50%" y1="0%" y2="100%"><stop offset="0%" stop-color="#dadada"/><stop offset="100%" stop-color="#bcbcbc"/></linearGradient><linearGradient id="a" x1="42.432%" x2="42.432%" y1="90.939%" y2="-10.602%"><stop offset="0%" stop-color="#fff" stop-opacity=".2"/><stop offset="100%" stop-color="#fff" stop-opacity="0"/></linearGradient><radialGradient id="g" cx="40.253%" cy="29.072%" r="112.642%" fx="40.253%" fy="29.072%" gradientTransform="matrix(0 .6923 -1 0 .693 .012)"><stop offset="0%" stop-color="#c5c5c5"/><stop offset="100%" stop-color="#414141"/></radialGradient><radialGradient id="h" cx="50%" cy="59.952%" r="80.699%" fx="50%" fy="59.952%" gradientTransform="matrix(.10204 .99027 -.7262 .13914 .884 .021)"><stop offset="0%" stop-color="#7b7b7b"/><stop offset="100%" stop-color="#535353"/></radialGradient><radialGradient id="l" cx="50%" cy="59.952%" r="80.699%" fx="50%" fy="59.952%" gradientTransform="matrix(.10204 .99027 -.7262 .13914 .884 .021)"><stop offset="0%" stop-color="#b6b6b6"/><stop offset="100%" stop-color="#535353"/></radialGradient><path id="j" fill="#4a4a4a" d="M6.622 3.52c3.657-1.944 7.778-1.346 9.204 1.336s-.382 6.433-4.04 8.377-7.778 1.347-9.204-1.335.383-6.432 4.04-8.377m.47.884c-3.219 1.711-4.757 4.9-3.627 7.025s4.634 2.633 7.852.921c3.218-1.71 4.756-4.9 3.626-7.024-1.13-2.125-4.633-2.633-7.851-.922"/><path id="k" fill="url(#a)" d="M6.622 3.521c3.657-1.945 7.778-1.347 9.204 1.335.413.777.555 1.644.459 2.53a5.7 5.7 0 0 0-.58-1.15c-1.398-2.157-3.405-.444-5.71 2.075q-2.306 2.52-8.256 2.24l.405.017C1.77 8.084 3.54 5.161 6.622 3.521"/><filter id="b" width="132.4%" height="132.4%" x="-16.2%" y="-16.2%" filterUnits="objectBoundingBox"><feOffset dy="2" in="SourceAlpha" result="shadowOffsetOuter1"/><feGaussianBlur in="shadowOffsetOuter1" result="shadowBlurOuter1" stdDeviation="2"/><feColorMatrix in="shadowBlurOuter1" result="shadowMatrixOuter1" values="0 0 0 0 0 0 0 0 0 0 0 0 0 0 0 0 0 0 0.2 0"/><feMerge><feMergeNode in="shadowMatrixOuter1"/><feMergeNode in="SourceGraphic"/></feMerge></filter></defs><g fill="none" filter="url(#b)" transform="translate(11 11)"><path fill="url(#c)" d="M37 0c20.435 0 37 16.565 37 37 0 10.65-4.5 20.25-11.702 27l-15.317.001h-.57a.302.302 0 0 1-.1-.586C57.198 59.577 65 49.2 65 37 65 21.536 52.464 9 37 9S9 21.536 9 37s12.536 28 28 28q.502 0 1-.018V65h35a1 1 0 0 1 1 1v7a1 1 0 0 1-1 1H38v-.013Q37.502 74 37 74C16.565 74 0 57.435 0 37S16.565 0 37 0"/><path fill="#000" fill-opacity=".2" d="M37 0c20.435 0 37 16.565 37 37 0 10.65-4.5 20.25-11.702 27l-15.886.001a.302.302 0 0 1-.168-.553l.067-.033C57.198 59.577 65 49.2 65 37 65 21.536 52.464 9 37 9S9 21.536 9 37s12.536 28 28 28q.502 0 1-.018V65h35a1 1 0 0 1 1 1v7a1 1 0 0 1-1 1H38v-.013Q37.502 74 37 74C16.565 74 0 57.435 0 37S16.565 0 37 0m0 1C17.118 1 1 17.118 1 37s16.118 36 36 36l.487-.003.487-.01 1.055-.028-.002.041H73v-7H36.975l-.455-.004C20.725 65.74 8 52.856 8 37 8 20.984 20.984 8 37 8s29 12.984 29 29c0 11.13-6.328 21.056-15.945 25.904l-.196.096h12.039l.093-.087A35.88 35.88 0 0 0 72.996 37.53L73 37C73 17.118 56.882 1 37 1"/><path fill="#fff" fill-opacity=".3" d="M37 0c15.874 0 29.414 9.997 34.666 24.039-1.69 1.727-4.226 4.045-7.386 6.622C61.407 18.251 50.284 9 37 9 21.536 9 9 21.536 9 37c0 2.796.41 5.496 1.173 8.044a129 129 0 0 1-9.83-3.003A37 37 0 0 1 0 37C0 16.565 16.565 0 37 0"/><path fill="url(#d)" d="M23 43v14h-9a1 1 0 0 1-1-1V14a1 1 0 0 1 1-1h9v10h19V13h9a1 1 0 0 1 1 1v42a1 1 0 0 1-1 1h-9V43zm0-3h19V26H23z"/><path fill="#6c6c6c" d="M22 25h21v1H22zm0 15h21v1H22z"/><path fill="#6c6c6c" d="M42 41V25h1v16zm-20 0V25h1v16z"/><path fill="#6c6c6c" d="M23 13v10h19V13h9a1 1 0 0 1 1 1v42a1 1 0 0 1-1 1h-9V43H23v14h-9a1 1 0 0 1-1-1V14a1 1 0 0 1 1-1zm-1 1h-8v42h8V42h21v14h8V14h-8v10H22z"/><path fill="url(#e)" d="M23 13v10h19V13h9a1 1 0 0 1 1 1l.001 22.078Q45.095 40.775 33.477 43H23v1.423a153 153 0 0 1-10 .534V14a1 1 0 0 1 1-1zm19 13H23v14h19z"/><path fill="#dbdbdb" d="M23 13h19v10H23z"/><path fill="#dcdbdb" d="M23 26h19v14H23z"/><path fill="url(#f)" d="M23 43h19v14H23z"/><path fill="#fff" fill-opacity=".2" d="M23 23h19v1H23zm0 17h19v1H23z"/><path fill="url(#g)" d="M64 52h-3V31.111l-21 7.778V60h-3V31l27-10z"/><path fill="#575757" d="M64 21v31h-3V31.111l-21 7.778V60h-3V31zm-1 1.436-25 9.259V59h1V38.193l23-8.519V51h1z"/><path fill="#fff" fill-opacity=".2" d="M64 21v3.752l-.988.66q-9.384 4.683-14.387 5.32l-.29.034q-4.818.511-11.334 6.58L37 31z"/><g transform="translate(23.696 53.123)"><ellipse cx="9.204" cy="8.377" fill="url(#h)" rx="7.5" ry="5.5" transform="rotate(-28 9.204 8.377)"/><use xlink:href="#j"/><use xlink:href="#k"/></g><g transform="translate(47.696 44.622)"><ellipse cx="9.204" cy="8.377" fill="url(#l)" rx="7.5" ry="5.5" transform="rotate(-28 9.204 8.377)"/><use xlink:href="#j"/><use xlink:href="#k"/></g></g></svg>