<svg xmlns="http://www.w3.org/2000/svg" xmlns:xlink="http://www.w3.org/1999/xlink" viewBox="0 0 96 96"><defs><linearGradient id="b" x1="50%" x2="50%" y1="0%" y2="100%"><stop offset="0%" stop-color="#00c880"/><stop offset="100%" stop-color="#00a456"/></linearGradient><linearGradient id="c" x1="50%" x2="50%" y1="0%" y2="100%"><stop offset="0%" stop-color="#eeefef"/><stop offset="100%" stop-color="#d9dada"/></linearGradient><linearGradient id="e" x1="50%" x2="50%" y1="0%" y2="100%"><stop offset="0%" stop-color="#007088"/><stop offset="100%" stop-color="#003d50"/></linearGradient><linearGradient id="f" x1="50%" x2="50%" y1="0%" y2="100%"><stop offset="0%" stop-color="#cf1136"/><stop offset="100%" stop-color="#a20719"/></linearGradient><linearGradient id="g" x1="50%" x2="50%" y1="0%" y2="100%"><stop offset="0%" stop-opacity=".367"/><stop offset="100%" stop-opacity=".367"/></linearGradient><rect id="a" width="78" height="78" x="9" y="9" rx="18"/></defs><g fill="none" fill-rule="evenodd"><mask id="d" fill="#fff"><use xlink:href="#a"/></mask><use xlink:href="#a" fill="url(#b)"/><path fill="url(#c)" d="M36 23h26a6 6 0 0 1 6 6v39a6 6 0 0 1-6 6H36a6 6 0 0 1-6-6V29a6 6 0 0 1 6-6" mask="url(#d)"/><path fill="url(#e)" d="M61 55a1 1 0 0 1 1 1v10a1 1 0 0 1-1 1h-3a1 1 0 0 1-1-1V56a1 1 0 0 1 1-1zm-8 4a1 1 0 0 1 1 1v6a1 1 0 0 1-1 1h-6a1 1 0 0 1-1-1v-6a1 1 0 0 1 1-1zm-11 0a1 1 0 0 1 1 1v6a1 1 0 0 1-1 1h-6a1 1 0 0 1-1-1v-6a1 1 0 0 1 1-1zm0-13a1 1 0 0 1 1 1v6a1 1 0 0 1-1 1h-6a1 1 0 0 1-1-1v-6a1 1 0 0 1 1-1zm11 0a1 1 0 0 1 1 1v6a1 1 0 0 1-1 1h-6a1 1 0 0 1-1-1v-6a1 1 0 0 1 1-1z" mask="url(#d)"/><rect width="5" height="5" x="57" y="46" fill="url(#f)" mask="url(#d)" rx="1"/><path fill="#fff" d="M51 64v1h-1v-1zm2-2v1h-5v-1zm-2-2v1h-1v-1zM40 48v2h2v1h-2v2h-1v-2h-2v-1h2v-2zm12 2v1h-3v-1z" mask="url(#d)"/><rect width="26" height="10" x="36" y="29" fill="url(#g)" mask="url(#d)" rx="2"/><path fill="#fff" fill-rule="nonzero" d="m40.022 65.109.763-.603-1.205-1.336 1.748-.462-.312-.924-1.657.683.12-1.818h-.984l.121 1.818-1.658-.683-.311.924 1.748.462-1.206 1.336.764.603 1.034-1.517z" mask="url(#d)"/></g></svg>