<svg xmlns="http://www.w3.org/2000/svg" xmlns:xlink="http://www.w3.org/1999/xlink" viewBox="0 0 96 96"><defs><linearGradient id="b" x1="50%" x2="50%" y1="0%" y2="100%"><stop offset="0%" stop-color="#449bff"/><stop offset="100%" stop-color="#105ab1"/></linearGradient><linearGradient id="c" x1="50%" x2="49.597%" y1="14.041%" y2="88.094%"><stop offset="0%" stop-color="#ecffff"/><stop offset="79.009%" stop-color="#d8e7e7"/><stop offset="100%" stop-color="#bfc9c9"/></linearGradient><filter id="a" width="126.7%" height="129.7%" x="-13.4%" y="-14.8%" filterUnits="objectBoundingBox"><feOffset dy="2" in="SourceAlpha" result="shadowOffsetOuter1"/><feGaussianBlur in="shadowOffsetOuter1" result="shadowBlurOuter1" stdDeviation="2"/><feColorMatrix in="shadowBlurOuter1" result="shadowMatrixOuter1" values="0 0 0 0 0 0 0 0 0 0 0 0 0 0 0 0 0 0 0.2 0"/><feMerge><feMergeNode in="shadowMatrixOuter1"/><feMergeNode in="SourceGraphic"/></feMerge></filter></defs><g fill="none" fill-rule="evenodd" filter="url(#a)" transform="translate(6 9.106)"><path fill="url(#b)" d="M10 6.894h62c5.523 0 10 4.478 10 10v38c0 5.523-4.477 10-10 10H41l-23 16 .18-16H10c-5.523 0-10-4.477-10-10v-38c0-5.522 4.477-10 10-10"/><path fill="#ecffff" d="m55.05 41.247-11.374 8.302 4.381-13.382-11.41-8.252 14.081.031 4.322-13.402 4.322 13.402 14.081-.031-11.41 8.252 4.381 13.382zM25.9 23.258l-4.585 3.347 1.766-5.395-4.599-3.326 5.676.012 1.742-5.402 1.742 5.402 5.676-.012-4.599 3.326 1.766 5.395z"/><path fill="url(#c)" d="M59.543 6.894h-6.246c-17.47-7.17-34.871-5.15-41.442 5.785-7.694 12.806 2.379 32.987 22.498 45.076 20.12 12.089 42.667 11.508 50.362-1.298 4.381-7.292 3.001-16.976-2.715-26.195l.002-4.175c8.246 11.674 10.46 24.854 4.502 34.77-9.245 15.386-34.66 17.09-56.769 3.806C7.628 51.38-2.8 28.138 6.445 12.753c8.736-14.54 31.917-16.861 53.098-5.86"/></g></svg>