<svg xmlns="http://www.w3.org/2000/svg" xmlns:xlink="http://www.w3.org/1999/xlink" viewBox="0 0 96 96"><defs><linearGradient id="b" x1="50%" x2="50%" y1="0%" y2="100%"><stop offset="0%" stop-color="#c7d0ce"/><stop offset="100%" stop-color="#b5c5c1"/></linearGradient><linearGradient id="c" x1="50%" x2="50%" y1="0%" y2="100%"><stop offset="0%" stop-color="#e8edf2"/><stop offset="100%" stop-color="#cad6e2"/></linearGradient><linearGradient id="d" x1="50%" x2="50%" y1="0%" y2="100%"><stop offset="0%" stop-color="#afb0b0"/><stop offset="100%" stop-color="#bcc2c2"/></linearGradient><linearGradient id="e" x1="50%" x2="50%" y1="0%" y2="100%"><stop offset="0%" stop-color="#e8edf2"/><stop offset="100%" stop-color="#cad6e2"/></linearGradient><linearGradient id="f" x1="50%" x2="50%" y1="0%" y2="100%"><stop offset="0%" stop-color="#1fcfb2"/><stop offset="100%" stop-color="#11b488"/></linearGradient><linearGradient id="g" x1="50%" x2="50%" y1="0%" y2="100%"><stop offset="0%" stop-color="#42a9e2"/><stop offset="100%" stop-color="#1568b2"/></linearGradient><filter id="a" width="132.4%" height="133.8%" x="-16.2%" y="-16.9%" filterUnits="objectBoundingBox"><feOffset dy="2" in="SourceAlpha" result="shadowOffsetOuter1"/><feGaussianBlur in="shadowOffsetOuter1" result="shadowBlurOuter1" stdDeviation="2"/><feColorMatrix in="shadowBlurOuter1" result="shadowMatrixOuter1" values="0 0 0 0 0 0 0 0 0 0 0 0 0 0 0 0 0 0 0.2 0"/><feMerge><feMergeNode in="shadowMatrixOuter1"/><feMergeNode in="SourceGraphic"/></feMerge></filter></defs><g fill="none" filter="url(#a)" transform="translate(11 13)"><path fill="url(#b)" d="M59 0a8 8 0 0 1 8 8v42a8 8 0 0 1-8 8H13a8 8 0 0 1-8-8V8a8 8 0 0 1 8-8z"/><path fill="url(#c)" d="M59 2H13a6 6 0 0 0-5.996 5.775L7 8v42a6 6 0 0 0 5.775 5.996L13 56h46a6 6 0 0 0 5.996-5.775L65 50V8a6 6 0 0 0-5.775-5.996z"/><rect width="23" height="4" x="11" y="9" fill="#1f86dc" rx="1"/><path fill="url(#d)" d="M46 40a1 1 0 0 1 0 2h-7a1 1 0 0 1 0-2zm-21 0a1 1 0 0 1 0 2H12a1 1 0 0 1 0-2zm32 0a1 1 0 0 1 0 2h-7a1 1 0 0 1 0-2zm-26 0a1 1 0 0 1 0 2h-2a1 1 0 0 1 0-2zm19-4a1 1 0 0 1 0 2H39a1 1 0 0 1 0-2zm-35 0a1 1 0 0 1 0 2h-3a1 1 0 0 1 0-2zm8 0a1 1 0 0 1 0 2h-4a1 1 0 0 1 0-2zm29-6a1 1 0 0 1 0 2h-7a1 1 0 0 1 0-2zm-32 0a1 1 0 0 1 0 2h-2a1 1 0 0 1 0-2zm21 0a1 1 0 0 1 0 2h-2a1 1 0 0 1 0-2zm-27 0a1 1 0 0 1 0 2h-2a1 1 0 0 1 0-2zm46 0a1 1 0 0 1 0 2h-5a1 1 0 0 1 0-2zm-32 0a1 1 0 0 1 0 2h-5a1 1 0 0 1 0-2zm18-4a1 1 0 0 1 0 2h-7a1 1 0 0 1 0-2zm-31 0a1 1 0 0 1 0 2h-3a1 1 0 0 1 0-2zm10 0a1 1 0 0 1 0 2h-7a1 1 0 0 1 0-2zm-6-6a1 1 0 0 1 0 2h-7a1 1 0 0 1 0-2zm27 0a1 1 0 0 1 0 2h-7a1 1 0 0 1 0-2zm-20 0a1 1 0 0 1 0 2h-3a1 1 0 0 1 0-2zm27 0a1 1 0 0 1 0 2h-3a1 1 0 0 1 0-2zm-38-4a1 1 0 0 1 0 2h-3a1 1 0 0 1 0-2zm27 0a1 1 0 0 1 0 2h-3a1 1 0 0 1 0-2zm-20 0a1 1 0 0 1 0 2h-3a1 1 0 0 1 0-2zm27 0a1 1 0 0 1 0 2h-3a1 1 0 0 1 0-2zm-16 0a1 1 0 0 1 0 2h-8a1 1 0 0 1 0-2zm27 0a1 1 0 0 1 0 2h-8a1 1 0 0 1 0-2z"/><rect width="74" height="26" y="45" fill="url(#e)" rx="4"/><rect width="23" height="4" x="38" y="9" fill="#11b589" rx="1"/><path fill="url(#f)" d="M6 58v4a2 2 0 0 0 2 2h15v3.105a.5.5 0 0 0 .762.426L33.8 61.354l.816-.502a1 1 0 0 0 0-1.704L23.762 52.47a.5.5 0 0 0-.762.426V56H8a2 2 0 0 0-2 2"/><path fill="url(#g)" d="M38.908 54v4a2 2 0 0 0 2 2h15v3.105a.5.5 0 0 0 .762.426l10.038-6.177.816-.502a1 1 0 0 0 0-1.704L56.67 48.47a.5.5 0 0 0-.762.426V52h-15a2 2 0 0 0-2 2" transform="matrix(-1 0 0 1 106.908 0)"/></g></svg>