<svg xmlns="http://www.w3.org/2000/svg" xmlns:xlink="http://www.w3.org/1999/xlink" viewBox="0 0 96 96"><defs><linearGradient id="b" x1="50%" x2="50%" y1="0%" y2="100%"><stop offset="0%" stop-color="#00df8e"/><stop offset="100%" stop-color="#00b900"/></linearGradient><linearGradient id="c" x1="50%" x2="50%" y1="0%" y2="100%"><stop offset="0%" stop-color="#5cff5c"/><stop offset="100%" stop-color="#00da00"/></linearGradient><filter id="a" width="128.6%" height="128.6%" x="-14.3%" y="-14.3%" filterUnits="objectBoundingBox"><feOffset dy="2" in="SourceAlpha" result="shadowOffsetOuter1"/><feGaussianBlur in="shadowOffsetOuter1" result="shadowBlurOuter1" stdDeviation="2"/><feColorMatrix in="shadowBlurOuter1" result="shadowMatrixOuter1" values="0 0 0 0 0 0 0 0 0 0 0 0 0 0 0 0 0 0 0.2 0"/><feMerge><feMergeNode in="shadowMatrixOuter1"/><feMergeNode in="SourceGraphic"/></feMerge></filter></defs><g fill="none" filter="url(#a)" transform="translate(6 6)"><circle cx="42" cy="42" r="42" fill="url(#b)"/><circle cx="44.5" cy="39.5" r="32.5" fill="#fff"/><path fill="url(#c)" d="M36 26.045v24.91C36 53.19 37.77 55 39.954 55c.694 0 1.376-.187 1.977-.542l21.091-12.455c1.892-1.117 2.54-3.59 1.448-5.525a4 4 0 0 0-1.448-1.48L41.931 22.542c-1.891-1.116-4.31-.454-5.401 1.48a4.1 4.1 0 0 0-.53 2.023"/></g></svg>