<svg xmlns="http://www.w3.org/2000/svg" xmlns:xlink="http://www.w3.org/1999/xlink" viewBox="0 0 96 96"><defs><linearGradient id="b" x1="50%" x2="50%" y1="0%" y2="100%"><stop offset="0%" stop-color="#fff0cc"/><stop offset="68.507%" stop-color="#d6b374"/><stop offset="100%" stop-color="#d4b070"/></linearGradient><linearGradient id="c" x1="50%" x2="50%" y1="0%" y2="61.102%"><stop offset="0%" stop-color="#5d4d31"/><stop offset="100%" stop-color="#bd8c3c"/></linearGradient><linearGradient id="g" x1="45.273%" x2="79.748%" y1="28.502%" y2="61.083%"><stop offset="0%" stop-color="#ffe1aa"/><stop offset="100%" stop-color="#d5b171"/></linearGradient><linearGradient id="h" x1="50%" x2="50%" y1="0%" y2="100%"><stop offset="0%" stop-color="#ff7519"/><stop offset="100%" stop-color="#d03203"/></linearGradient><filter id="a" width="129.6%" height="130.2%" x="-14.8%" y="-15%" filterUnits="objectBoundingBox"><feOffset dy="2" in="SourceAlpha" result="shadowOffsetOuter1"/><feGaussianBlur in="shadowOffsetOuter1" result="shadowBlurOuter1" stdDeviation="2"/><feColorMatrix in="shadowBlurOuter1" result="shadowMatrixOuter1" values="0 0 0 0 0 0 0 0 0 0 0 0 0 0 0 0 0 0 0.2 0"/><feMerge><feMergeNode in="shadowMatrixOuter1"/><feMergeNode in="SourceGraphic"/></feMerge></filter><filter id="e" width="138.9%" height="167.1%" x="-19.4%" y="-24%" filterUnits="objectBoundingBox"><feOffset dy="2" in="SourceAlpha" result="shadowOffsetOuter1"/><feGaussianBlur in="shadowOffsetOuter1" result="shadowBlurOuter1" stdDeviation="2"/><feColorMatrix in="shadowBlurOuter1" values="0 0 0 0 0 0 0 0 0 0 0 0 0 0 0 0 0 0 0.122978584 0"/></filter><path id="d" d="M50.399 54.395q6.126-1.17 10.672-1.034.23 1.032-1.59 1.932t-.747.857a303 303 0 0 1 6.729-1.165c4.133-.677 7.207 2.708 5.037 5.75s-4.708 7.666-11.766 11.353-22.464 2.223-23.33-1.945c-.725-3.485.388-5.436 2.931-8.391 3.223-3.745 8.64-6.702 12.064-7.357"/></defs><g fill="none" fill-rule="evenodd" filter="url(#a)" transform="translate(7.156 7.485)"><path fill="url(#b)" d="M9.946 22.57q-1.35-10.175 6.75-16.4C24.796-.054 32.51-.724 38.746.515c6.237 1.24 9.604 3.975 12.33 8.079q2.728 4.104 3.916 8.167 5.296-.759 10.318-4.563c5.02-3.805 10.741 3.804 12.944 10.371s6.942 25.433-5.787 42.803c-12.73 17.37-40.349 16.058-52.969 12.252q-12.62-3.806-16.866-17.4-1.995-7.872 0-18.005 1.995-10.134 7.314-19.65"/><path fill="#000" fill-opacity=".559" fill-rule="nonzero" d="M38.747.515c6.236 1.24 9.603 3.975 12.33 8.079q2.727 4.104 3.915 8.167 5.296-.759 10.318-4.563c2.749-2.084 5.708-.744 8.185 1.972l.32.362q.158.185.315.377l.308.39.152.2.298.408.291.42.284.43.14.219.272.443q.068.111.133.224l.26.454.251.46.242.465.233.47.223.472.213.474.202.475.192.475.18.474.17.472.284.86.215.687.223.75.15.534.152.559.226.886.15.62.146.645.143.668.139.69.133.71.064.364.123.742.06.38.11.771.102.791.047.402.086.818.04.416.067.844c.62 8.519-.73 19.48-8.367 29.9-10.057 13.723-29.405 15.786-43.31 14.171l-1.046-.13a61 61 0 0 1-5.753-1.03l-.858-.208q-1.054-.264-2.002-.55-12.62-3.806-16.866-17.4-1.995-7.872 0-18.005 1.995-10.134 7.314-19.65-1.35-10.175 6.75-16.399C24.796-.054 32.51-.724 38.746.515m-.195.981c-7.14-1.419-14.254.093-21.247 5.467-5.116 3.932-7.22 9.045-6.368 15.475a1 1 0 0 1-.118.62q-5.243 9.378-7.206 19.354C2.31 49.03 2.31 54.884 3.586 59.925c2.734 8.754 8.112 14.303 16.2 16.742 7.158 2.159 17.058 2.998 26.02 1.781 11.176-1.517 20.224-5.986 25.853-13.667 5.59-7.628 8.15-16.05 8.3-24.878.106-6.25-.97-11.993-2.654-17.016-1.118-3.332-3.064-6.652-5.161-8.673-2.258-2.175-4.36-2.637-6.232-1.22-3.476 2.635-7.072 4.226-10.78 4.757a1 1 0 0 1-1.1-.71q-1.144-3.912-3.79-7.894c-2.836-4.27-6.145-6.549-11.691-7.65"/><path stroke="url(#c)" stroke-linecap="round" stroke-linejoin="round" d="M6.91 43.656q17.455 3.642 25.217 2.428c7.762-1.214 19.662-6.834 21.291-16.114q1.63-9.281 1.172-12.594"/><use xlink:href="#d" fill="#000" filter="url(#e)"/><use xlink:href="#d" fill="url(#g)"/><path fill="#000" d="M27.844 33.166c.868 0 2.179-.062 2.956-.801.519-.493 1.31-1.368 1.672-1.595.824-.518 2.931-1.869 2.931-2.958 0-.446-3.781.594-3.499 0 .52-1.094 2.612-2.31 1.91-2.85-.872-.67-4.74 0-5.97 0-2.762 0-5.184 1.315-5.184 3.953s2.422 4.25 5.184 4.25"/><ellipse cx="27.351" cy="29.289" fill="#fff" rx="3.994" ry="3.35"/><path fill="url(#h)" d="M.455 23.433c.345-.48 1.215-.48 2.193-.548 2.662-.186 7.105.024 8.081.376 1.334.483 10.251 12.086 11.091 13.152.65.826.725 4.561.392 6.209q-.097.48-.392.625-.48.244-1.03.374c-2.905.684-10.972 2.604-14.718-.215-4.457-3.354-5.479-8.59-4.226-10.24q1.253-1.65 3.755-2.183Q.478 26.316.145 25.137c-.333-1.179-.035-1.225.31-1.704"/><ellipse cx="25.344" cy="29.515" fill="#000" rx="2.5" ry="2"/><path stroke="#d11513" stroke-linecap="round" stroke-linejoin="round" d="M5.74 31.515s5.385 6.787 9.034 8.123q3.65 1.337 7.104 1.625"/></g></svg>