<svg xmlns="http://www.w3.org/2000/svg" xmlns:xlink="http://www.w3.org/1999/xlink" viewBox="0 0 16.933 16.933"><g paint-order="stroke markers fill"><path fill="#424242" stroke="#000" stroke-width=".529" d="M1.344 2.381H15.59c.157 0 .284.13.284.29v11.59a.284.29 0 0 1-.285.29H1.344a.284.29 0 0 1-.286-.29V2.671c0-.16.128-.29.286-.29z" opacity=".85"/><path fill="#454b4b" d="M1.344 2.381H15.59c.157 0 .284.13.284.29v11.59a.284.29 0 0 1-.285.29H1.344a.284.29 0 0 1-.286-.29V2.671c0-.16.128-.29.286-.29"/><path d="M8.467 2.381v12.171h7.122a.284.29 0 0 0 .286-.29V2.672a.284.29 0 0 0-.286-.29z" opacity=".15"/><g fill="#fff"><g transform="translate(-.222 -138.93)scale(.50244)"><rect width="4.233" height=".529" x="5.292" y="289.06" ry=".265" transform="translate(4.082 .6)"/><use xlink:href="#a"/></g><g transform="translate(-.222 -138.93)scale(.50244)"><rect width="4.233" height=".529" x="5.292" y="289.06" ry=".265" transform="translate(4.082 .6)"/><use xlink:href="#a"/></g></g><g fill="#fff"><g transform="translate(6.514 -138.93)scale(.50244)"><rect width="4.233" height=".529" x="5.292" y="289.06" ry=".265" transform="translate(4.082 .6)"/><use xlink:href="#a"/></g><g transform="translate(6.514 -138.93)scale(.50244)"><rect width="4.233" height=".529" x="5.292" y="289.06" ry=".265" transform="translate(4.082 .6)"/><use xlink:href="#a"/></g></g></g></svg>