<svg xmlns="http://www.w3.org/2000/svg" xmlns:xlink="http://www.w3.org/1999/xlink" viewBox="0 0 96 96"><defs><linearGradient id="b" x1="50%" x2="75.03%" y1="0%" y2="118.284%"><stop offset="0%" stop-color="#91f1ff"/><stop offset="100%" stop-color="#0000fa"/></linearGradient><linearGradient id="c" x1="48.085%" x2="61.047%" y1="-16.132%" y2="117.212%"><stop offset="0%" stop-color="#07008f"/><stop offset="100%" stop-color="#0000fa"/></linearGradient><linearGradient id="d" x1="38.843%" x2="114.375%" y1="46.873%" y2="53.178%"><stop offset="0%" stop-color="#07008f"/><stop offset="100%" stop-color="#0000fa"/></linearGradient><linearGradient id="e" x1="50%" x2="87.225%" y1="0%" y2="118.284%"><stop offset="0%" stop-color="#91f1ff"/><stop offset="100%" stop-color="#0000fa"/></linearGradient><linearGradient id="g" x1="47.892%" x2="62.163%" y1="-16.132%" y2="117.212%"><stop offset="0%" stop-color="#07008f"/><stop offset="100%" stop-color="#0000fa"/></linearGradient><radialGradient id="f" cx="55.544%" cy="40.339%" r="62.381%" fx="55.544%" fy="40.339%"><stop offset="0%" stop-color="#ff907e"/><stop offset="100%" stop-color="#a50000"/></radialGradient><filter id="a" width="129.8%" height="130.8%" x="-14.9%" y="-15.4%" filterUnits="objectBoundingBox"><feOffset dy="2" in="SourceAlpha" result="shadowOffsetOuter1"/><feGaussianBlur in="shadowOffsetOuter1" result="shadowBlurOuter1" stdDeviation="2"/><feColorMatrix in="shadowBlurOuter1" result="shadowMatrixOuter1" values="0 0 0 0 0 0 0 0 0 0 0 0 0 0 0 0 0 0 0.2 0"/><feMerge><feMergeNode in="shadowMatrixOuter1"/><feMergeNode in="SourceGraphic"/></feMerge></filter></defs><g fill="none" filter="url(#a)" transform="translate(8 9)"><path fill="url(#b)" d="M8.459 0h5L5.752 62.278l53.772 10V78L4.958 68.698 0 67.896z"/><path fill="url(#c)" d="m13.46 0 18.09 14.681L23.968 60 5.752 62.278z"/><path fill="url(#d)" d="m23.968 60 40.452 6.737-4.896 6.021-53.772-10.48z"/><path fill="url(#e)" d="m31.551 14.681 40.863 5.927-7.994 46.129L23.968 60z"/><circle cx="50.459" cy="30" r="30" fill="url(#f)"/><path fill="url(#g)" d="m59.524 72.758 4.896-6.02v5.043L59.524 78z"/></g></svg>