<svg xmlns="http://www.w3.org/2000/svg" xmlns:xlink="http://www.w3.org/1999/xlink" viewBox="0 0 96 96"><defs><linearGradient id="b" x1="50%" x2="50%" y1="0%" y2="100%"><stop offset="0%" stop-color="#ff8aaf"/><stop offset="100%" stop-color="#d40000"/></linearGradient><linearGradient id="c" x1="50%" x2="50%" y1="2.234%" y2="100%"><stop offset="0%" stop-color="#ed6868"/><stop offset="100%" stop-color="#a90000"/></linearGradient><linearGradient id="d" x1="42.254%" x2="50%" y1="28.039%" y2="80.811%"><stop offset="0%" stop-color="#fff"/><stop offset="100%" stop-color="#fff" stop-opacity=".619"/></linearGradient><filter id="a" width="130.8%" height="130.8%" x="-15.4%" y="-15.4%" filterUnits="objectBoundingBox"><feOffset dy="2" in="SourceAlpha" result="shadowOffsetOuter1"/><feGaussianBlur in="shadowOffsetOuter1" result="shadowBlurOuter1" stdDeviation="2"/><feColorMatrix in="shadowBlurOuter1" result="shadowMatrixOuter1" values="0 0 0 0 0 0 0 0 0 0 0 0 0 0 0 0 0 0 0.2 0"/><feMerge><feMergeNode in="shadowMatrixOuter1"/><feMergeNode in="SourceGraphic"/></feMerge></filter></defs><g fill="none" filter="url(#a)" transform="translate(8 9)"><path fill="url(#b)" d="M58.734 1c5.044 0 9.61 2.044 12.916 5.35A18.2 18.2 0 0 1 77 19.266v39.468c0 5.044-2.044 9.61-5.35 12.916A18.2 18.2 0 0 1 58.734 77H19.266c-5.044 0-9.61-2.044-12.916-5.35A18.2 18.2 0 0 1 1 58.734V19.266c0-5.044 2.044-9.61 5.35-12.916A18.2 18.2 0 0 1 19.266 1z"/><path fill="url(#c)" d="M58.734 0H19.266l-.456.005A19.2 19.2 0 0 0 5.643 5.643 19.2 19.2 0 0 0 0 19.266v39.468l.005.456a19.2 19.2 0 0 0 5.638 13.167A19.2 19.2 0 0 0 19.266 78h39.468l.456-.005a19.2 19.2 0 0 0 13.167-5.638A19.2 19.2 0 0 0 78 58.734V19.266l-.005-.456a19.2 19.2 0 0 0-5.638-13.167A19.2 19.2 0 0 0 58.734 0m0 1c5.044 0 9.61 2.044 12.916 5.35a18.2 18.2 0 0 1 5.345 12.472l.005.444v39.468c0 5.044-2.044 9.61-5.35 12.916a18.2 18.2 0 0 1-12.472 5.345l-.444.005H19.266c-5.044 0-9.61-2.044-12.916-5.35a18.2 18.2 0 0 1-5.345-12.472L1 58.734V19.266c0-5.044 2.044-9.61 5.35-12.916a18.2 18.2 0 0 1 12.472-5.345L19.266 1z"/><path fill="#000" d="M17 13.076a9 9 0 0 1 6.072 15.643C29.32 50.611 35.88 61.734 41.757 62.192l.474.03c3.688.19 4.944-1.02 6.646-5.624l1.062-2.975c.354-.97.677-1.793 1.024-2.59 1.19-2.728 2.602-4.962 4.534-6.913 3.56-3.593 8.083-3.4 12.634.195 2.756 2.177 5.699 5.681 8.87 10.53v4.231c0 1.545-.196 3.044-.562 4.475l-.089-.157C68.027 48.8 62.281 44.378 59.05 47.639c-1.454 1.467-2.543 3.191-3.504 5.393-.251.576-.493 1.18-.752 1.876l-.37 1.02c-.263.737-.626 1.767-.623 1.757-2.56 7.174-5.435 10.037-12.433 9.491-8.793-.685-16.09-12.794-22.859-36.226q-.736.125-1.509.126a9 9 0 0 1 0-18"/><path fill="url(#d)" d="M9 0a9 9 0 0 1 6.072 15.643C21.32 37.535 27.88 48.658 33.757 49.116l.474.03c3.688.19 4.944-1.02 6.646-5.624l1.062-2.975c.354-.97.677-1.793 1.024-2.59 1.19-2.728 2.602-4.962 4.534-6.913 3.56-3.593 8.083-3.4 12.634.195 2.756 2.177 5.699 5.681 8.87 10.53V46c0 1.545-.196 3.044-.562 4.475l-.089-.157c-8.323-14.594-14.069-19.016-17.3-15.755-1.454 1.467-2.543 3.191-3.504 5.393-.251.576-.493 1.18-.752 1.876l-.37 1.02c-.263.737-.626 1.767-.623 1.757-2.56 7.174-5.435 10.037-12.433 9.491-8.793-.685-16.09-12.794-22.859-36.226Q9.773 18 9 18A9 9 0 0 1 9 0" transform="translate(8 13.076)"/></g></svg>