<svg xmlns="http://www.w3.org/2000/svg" viewBox="0 0 64 64"><path d="M7.16 10A4.15 4.171 0 0 0 3 14.184v37.632A4.16 4.16 0 0 0 7.16 56H53v-6h8V16h-8v-6H32Z" opacity=".2"/><path fill="#1e88e5" d="M7.161 9A4.15 4.171 0 0 0 3 13.182v37.636A4.16 4.16 0 0 0 7.161 55h25.75V9Zm0 0"/><path d="M19 21a5 5 0 1 1-5-5 5 5 0 0 1 5 5m0 0" opacity=".2"/><path fill="#ff3737" d="M19 20a5 5 0 1 1-5-5 5 5 0 0 1 5 5m0 0"/><path d="M25.154 21a5 5 0 1 1-10.001-.002A5 5 0 0 1 25.154 21m0 0" opacity=".2"/><path fill="#ffc025" d="M25.154 20a5 5 0 1 1-10.001-.002A5 5 0 0 1 25.154 20m0 0"/><path fill="#ff872b" d="M17.072 16.063A5 5 0 0 0 15.152 20a5 5 0 0 0 1.93 3.936A5 5 0 0 0 19 20a5 5 0 0 0-1.929-3.938zm0 0"/><path fill="#9a9996" d="M9 45h18v4H9Zm0 0"/><path fill="#deddda" d="M9 39h10v3H9Zm0 0"/><path fill="#2196f3" d="M32.001 9v46H53v-6h8V15h-8V9Z"/><path d="M35 31.002h9v9h-9zm0 0" opacity=".15"/><path fill="#fff" d="M44 31.002h9v9h-9Zm-9 9h9v9h-9zm0 0" opacity=".2"/><path d="M44 40.002h9v9h-9Zm0 0" opacity=".15"/><path fill="none" stroke="#000" stroke-linecap="round" stroke-width="6" d="M32 7v52" opacity=".2"/><path fill="none" stroke="#e4e4e4" stroke-linecap="round" stroke-width="6" d="M32 6v52"/><path fill="#fff" d="M7.16 9A4.15 4.171 0 0 0 3 13.184v1A4.15 4.171 0 0 1 7.16 10H53V9zM53 15v1h8v-1z" opacity=".2"/><path d="M9 42h10v1H9zm0 7h18v1H9z" opacity=".2"/></svg>