<svg xmlns="http://www.w3.org/2000/svg" xmlns:xlink="http://www.w3.org/1999/xlink" viewBox="0 0 96 96"><defs><linearGradient id="a" x1="50%" x2="50%" y1="0%" y2="100%"><stop offset="0%" stop-color="#6e6e6e"/><stop offset="100%" stop-color="#191919"/></linearGradient><filter id="b" width="142.9%" height="127.3%" x="-21.4%" y="-13.6%" filterUnits="objectBoundingBox"><feOffset dy="2" in="SourceAlpha" result="shadowOffsetOuter1"/><feGaussianBlur in="shadowOffsetOuter1" result="shadowBlurOuter1" stdDeviation="2"/><feColorMatrix in="shadowBlurOuter1" result="shadowMatrixOuter1" values="0 0 0 0 0 0 0 0 0 0 0 0 0 0 0 0 0 0 0.2 0"/><feMerge><feMergeNode in="shadowMatrixOuter1"/><feMergeNode in="SourceGraphic"/></feMerge></filter></defs><g fill="url(#a)" filter="url(#b)" transform="translate(20 4)"><path d="M25.026.017c1.156-.076 2.047.105 2.636.485.555.358.895.89 1.004 1.61.128.85 1.609 2.172 3.87 3.571 2.072 1.28 4.84 2.594 8.076 3.627 7.35 2.345 13.882 6.456 15.158 10.682.857 2.842-.666 6.962-4.807 12.366l-.835-.548c.523-.918.972-3.063 1.386-6.417a4.1 4.1 0 0 0-.493-2.526c-.484-.88-1.266-1.646-2.22-2.314-2.586-1.81-6.425-2.902-9.465-3.423-3.384-.58-7.075-2.243-10.326-4.996-.102 39.981.277 63.751-.01 66.92-.092 1.013-.925 2.867-2.705 4.528-1.433 1.337-3.215 2.546-4.972 3.084-3.644 1.115-7.738 1.626-11.354 1.164-3.185-.407-5.997-1.571-7.854-3.702C.736 82.545.1 80.995.011 79.544c-.101-1.64.494-3.168 1.573-4.497 2.376-2.93 7.146-4.882 11.567-4.882 4.867 0 8.803 1.465 11.875 4.376z"/></g></svg>