<svg xmlns="http://www.w3.org/2000/svg" viewBox="0 0 64 64"><rect width="52" height="44" x="6" y="11" opacity=".2" rx="6" ry="6"/><rect width="52" height="44" x="6" y="10" fill="#e4e4e4" rx="6" ry="6"/><path fill="none" stroke="#000" stroke-linecap="square" stroke-linejoin="round" stroke-width="2" d="M38 29h5v11H22" opacity=".1"/><path fill="none" stroke="#afafb1" stroke-linecap="square" stroke-linejoin="round" stroke-width="2" d="M38 28h5v11H22v6"/><rect width="6" height="16" x="19" y="45" opacity=".2" ry="1"/><rect width="6" height="16" x="19" y="44" fill="#4f4f4f" ry="1"/><circle cx="22" cy="58" r="1" opacity=".2"/><path fill="#50beee" d="M12 10h2v12H6v-6c0-3.37 2.68-6 6-6"/><path fill="#79de7d" d="M14 10h8v12h-8z"/><path fill="#fed65c" d="M22 10h8v12h-8z"/><path fill="#df574d" d="M30 10h8v12h-8z"/><rect width="34" height="14" x="5" y="22" opacity=".1" ry="1"/><path fill="#2aa0ea" d="M5 22c0-.5.504-1 1-1h8v14H6c-.486 0-1-.504-1-1z"/><path fill="#4ec353" d="M14 21h8v14h-8z"/><path fill="#fecd38" d="M22 21h8v14h-8z"/><path fill="#e14134" d="M30 21h8c.5 0 1 .5 1 1v12c0 .5-.5 1-1 1h-8z"/><path fill="#fffefe" d="M5 22c0-.5.5-1 1-1h32c.5 0 1 .5 1 1v1c0-.5-.5-1-1-1H6c-.5 0-1 .5-1 1zm1-6v1c0-3.342 2.644-6 6-6h40c3.342 0 6 2.644 6 6v-1c0-3.342-2.687-6-6-6H12c-3.356 0-6 2.623-6 6" opacity=".2"/><path fill="#fffefe" d="M19 45c0-.565.44-1 1-1h4c.56 0 1 .439 1 1v1c0-.562-.44-1-1-1h-4c-.56 0-1 .436-1 1z" opacity=".1"/><path d="M38 10h14c3.329 0 6 2.671 6 6v5H38z" opacity=".1"/><circle cx="52" cy="16" r="3" opacity=".2"/></svg>