<svg xmlns="http://www.w3.org/2000/svg" xmlns:xlink="http://www.w3.org/1999/xlink" viewBox="0 0 96 96"><defs><linearGradient id="b" x1="0%" x2="86.728%" y1="50%" y2="50%"><stop offset="0%" stop-color="#adadad"/><stop offset="100%" stop-color="#676767"/></linearGradient><linearGradient id="c" x1="-14.81%" x2="100%" y1="38.797%" y2="75.974%"><stop offset="0%" stop-color="#eee"/><stop offset="100%" stop-color="#787878"/></linearGradient><linearGradient id="d" x1="50%" x2="50%" y1="0%" y2="100%"><stop offset="0%" stop-color="#343434"/><stop offset="47.597%" stop-color="#888"/><stop offset="100%"/></linearGradient><linearGradient id="e" x1="100%" x2="0%" y1="75.721%" y2="21.385%"><stop offset="0%" stop-color="#5e5e5e"/><stop offset="100%"/></linearGradient><linearGradient id="f" x1="33.047%" x2="67.667%" y1="0%" y2="92.062%"><stop offset="0%" stop-color="#505050"/><stop offset="17.952%" stop-color="#4c4c4c"/><stop offset="34.811%" stop-color="#252525"/><stop offset="100%" stop-color="#141414"/></linearGradient><linearGradient id="g" x1="50%" x2="50%" y1="0%" y2="100%"><stop offset="0%" stop-color="#313131"/><stop offset="100%" stop-color="#4e4e4e"/></linearGradient><linearGradient id="h" x1="34.788%" x2="82.918%" y1="29.314%" y2="36.556%"><stop offset="0%" stop-color="#3a3a3a"/><stop offset="100%" stop-color="#151515"/></linearGradient><filter id="a" width="131.9%" height="132%" x="-16%" y="-16%" filterUnits="objectBoundingBox"><feOffset dy="2" in="SourceAlpha" result="shadowOffsetOuter1"/><feGaussianBlur in="shadowOffsetOuter1" result="shadowBlurOuter1" stdDeviation="2"/><feColorMatrix in="shadowBlurOuter1" result="shadowMatrixOuter1" values="0 0 0 0 0 0 0 0 0 0 0 0 0 0 0 0 0 0 0.2 0"/><feMerge><feMergeNode in="shadowMatrixOuter1"/><feMergeNode in="SourceGraphic"/></feMerge></filter></defs><g fill="none" fill-rule="evenodd" filter="url(#a)" transform="translate(10.401 11)"><circle cx="10.5" cy="58" r="10" fill="#2f3130" fill-rule="nonzero"/><path fill="url(#b)" fill-rule="nonzero" d="M10.5 47.5C4.701 47.5 0 52.201 0 58s4.701 10.5 10.5 10.5S21 63.799 21 58s-4.701-10.5-10.5-10.5m0 1a9.5 9.5 0 1 1 0 19 9.5 9.5 0 0 1 0-19"/><path fill="url(#c)" fill-rule="nonzero" d="M10.5 63a1 1 0 1 1 0 2 1 1 0 0 1 0-2m4-4a2 2 0 1 1 0 4 2 2 0 0 1 0-4m-7 0a2 2 0 1 1 0 4 2 2 0 0 1 0-4m-3-2a1 1 0 1 1 0 2 1 1 0 0 1 0-2m6 0a1 1 0 1 1 0 2 1 1 0 0 1 0-2m7 0a1 1 0 1 1 0 2 1 1 0 0 1 0-2m-11-5a2 2 0 1 1 0 4 2 2 0 0 1 0-4m8 0a2 2 0 1 1 0 4 2 2 0 0 1 0-4m-4-1a1 1 0 1 1 0 2 1 1 0 0 1 0-2"/><g transform="translate(17.499)"><path fill="#2c2c2c" fill-rule="nonzero" d="M4.1 0h34a4 4 0 0 1 4 4v67a4 4 0 0 1-4 4h-34a4 4 0 0 1-4-4V4a4 4 0 0 1 4-4"/><circle cx="21.001" cy="54" r="15" fill="url(#d)" fill-rule="nonzero"/><path fill="#242424" fill-rule="nonzero" d="M21.001 38.5c-8.56 0-15.5 6.94-15.5 15.5s6.94 15.5 15.5 15.5 15.5-6.94 15.5-15.5-6.94-15.5-15.5-15.5m0 1c8.008 0 14.5 6.492 14.5 14.5s-6.492 14.5-14.5 14.5-14.5-6.492-14.5-14.5 6.492-14.5 14.5-14.5"/><circle cx="21.001" cy="54" r="11" fill="#00a5ff" fill-rule="nonzero"/><g transform="translate(11.001 44)"><circle cx="10" cy="10" r="10" fill="url(#e)"/><circle cx="10" cy="10" r="10" fill="#000" fill-rule="nonzero"/></g><path fill="#c8c8c8" fill-opacity=".2" fill-rule="nonzero" d="M38.1 0c2.21 0 4 1.794 4 4.006V19.75Q13.398 36.772.1 64L.101 4.006a4.003 4.003 0 0 1 4-4.006z"/><path fill="#00a1ff" fill-rule="nonzero" stroke="#363636" d="M34.001 4.5h-26c-.69 0-1.315.28-1.767.732A2.5 2.5 0 0 0 5.5 7v26c0 .69.28 1.315.733 1.768A2.5 2.5 0 0 0 8 35.5h26c.69 0 1.316-.28 1.768-.732A2.5 2.5 0 0 0 36.501 33V7c0-.69-.28-1.315-.732-1.768a2.5 2.5 0 0 0-1.768-.732Z"/><path fill="#fff" fill-opacity=".28" fill-rule="nonzero" d="M34.001 5a2 2 0 0 1 2 2v1.501c-6.844.85-13.934 4.337-19.565 10.217-4.672 4.88-7.586 10.621-8.667 16.267A2 2 0 0 1 6 33V7a2 2 0 0 1 2-2z"/></g><circle cx="58.5" cy="63" r="11" fill="#909090" fill-rule="nonzero"/><circle cx="58.5" cy="64" r="11" fill="url(#f)" fill-rule="nonzero"/><path fill="url(#g)" fill-rule="nonzero" d="M58.5 53c6.075 0 11 4.925 11 11s-4.925 11-11 11-11-4.925-11-11 4.925-11 11-11m0 1c-5.523 0-10 4.477-10 10s4.477 10 10 10 10-4.477 10-10-4.477-10-10-10"/><path fill="#000" fill-rule="nonzero" d="m54.933 59.475 1.41-1.869a2 2 0 0 1 1.201-.756L61.76 56q12.583-8 5.965-9.479c-3.269-.73-6.017-1.063-8.173-1.355-.02-1.193-.009-2.286-.066-3.62 10.891 1.286 14.616 2.75 15.531 6.454 1.217 4.927-3.986 6-7.292 8s-2.362 1.512-4.39 3a142 142 0 0 1-5.292 3.68 2 2 0 0 1-2.385-.125l-.405-.336a2 2 0 0 1-.32-2.744"/><path fill="url(#h)" d="m.403 17.93 1.41-1.87a2 2 0 0 1 1.201-.756l4.216-.85q12.583-8 5.965-9.479c-3.269-.73-6.017-1.063-8.173-1.355-.02-1.193-.009-2.286-.066-3.62 10.891 1.286 14.616 2.75 15.531 6.454 1.217 4.927-3.986 6-7.292 8s-2.362 1.512-4.39 3a142 142 0 0 1-5.292 3.68 2 2 0 0 1-2.385-.125l-.405-.336a2 2 0 0 1-.32-2.744" transform="translate(54.53 41.546)"/></g></svg>