<svg xmlns="http://www.w3.org/2000/svg" xmlns:xlink="http://www.w3.org/1999/xlink" viewBox="0 0 96 96"><defs><linearGradient id="b" x1="50%" x2="50%" y1="0%" y2="100%"><stop offset="0%" stop-color="#25c356"/><stop offset="100%" stop-color="#037e2a"/></linearGradient><linearGradient id="c" x1="60.238%" x2="26.486%" y1="14.203%" y2="79.625%"><stop offset="0%" stop-color="#fff"/><stop offset="100%" stop-color="#fff" stop-opacity=".901"/></linearGradient><filter id="a" width="130.8%" height="130.8%" x="-15.4%" y="-15.4%" filterUnits="objectBoundingBox"><feOffset dy="2" in="SourceAlpha" result="shadowOffsetOuter1"/><feGaussianBlur in="shadowOffsetOuter1" result="shadowBlurOuter1" stdDeviation="2"/><feColorMatrix in="shadowBlurOuter1" result="shadowMatrixOuter1" values="0 0 0 0 0 0 0 0 0 0 0 0 0 0 0 0 0 0 0.2 0"/><feMerge><feMergeNode in="shadowMatrixOuter1"/><feMergeNode in="SourceGraphic"/></feMerge></filter></defs><g fill="none" filter="url(#a)" transform="translate(9 9)"><path fill="url(#b)" d="M18.002 0h42c9.94 0 18 8.059 18 18v42c0 9.941-8.06 18-18 18h-42c-9.942 0-18-8.059-18-18V18c0-9.941 8.058-18 18-18"/><path fill="url(#c)" d="M22.002 0 22 16.999 39 17V0h4v17h6.283c1.94-2.225 3.909-4.08 5.79-5.198q.468-.279.932-.532A6.5 6.5 0 0 1 60 5.498V0c1.376 0 2.715.154 4.001.446v4.728a6.51 6.51 0 0 1 4.871 5.033c2.322 1.044 4.732 2.82 7.325 5.45q.975.986 1.799 1.958.005.192.005.385v6.725c-4.095-5.984-7.175-8.066-10.057-9.673A6.5 6.5 0 0 1 62.502 18a6.49 6.49 0 0 1-4.959-2.297l.07-.047c-5.307 3.398-12.572 14.762-18.611 25.317C34.617 48.636 28 56.47 21.98 60.02a6.5 6.5 0 0 1-12.978-.595Q4.884 56.704 0 51.092v-7.087q5.433 8.26 10.575 11.257A6.48 6.48 0 0 1 15.502 53c.886 0 1.73.177 2.5.498L18.001 40h-18v-4h18V20.999L.001 21v-4l18-.001V0zm11.91 40h-11.91v14.647C26.667 51.222 30.999 44.7 33.914 40M22.002 21v15l14.367.002c.709-1.15 1.602-2.639 2.634-4.32L39 21zm24.086 0h-3.087v4.4a109 109 0 0 1 3.087-4.4"/><path fill="#fff" d="M69.002 36H46.877l.125 3.431L57.527 53 46.002 66.523V70h25v-4h-19l10.389-13-10.389-13h17z"/></g></svg>