<svg xmlns="http://www.w3.org/2000/svg" viewBox="0 0 64 64"><path d="M32 4A29 29 0 0 0 3 33a29 29 0 0 0 29 29h26.1c1.607 0 2.9-1.293 2.9-2.9V6.9C61 5.293 59.707 4 58.1 4Z" opacity=".2"/><path fill="#e4e4e4" d="M32 3A29 29 0 0 0 3 32a29 29 0 0 0 29 29h26.1c1.607 0 2.9-1.293 2.9-2.9V5.9C61 4.293 59.707 3 58.1 3Z"/><path fill="#adadad" fill-rule="evenodd" d="M32.714 15c-.94 0-1.714.678-1.714 1.5v5c0 .822.774 1.5 1.714 1.5h20.572c.94 0 1.714-.678 1.714-1.5v-5c0-.822-.774-1.5-1.714-1.5Zm4.059 14C35.8 29 35 29.678 35 30.5v3c0 .822.8 1.5 1.773 1.5h22.454C60.2 35 61 34.322 61 33.5v-3c0-.822-.8-1.5-1.773-1.5Z"/><path fill="#305483" d="m30.255 32-10.91 2.727v-5.455z"/><path fill="#305483" fill-rule="evenodd" d="M10.22 27.143c1.822-2.324 5.838-13.684 19.07-8.983 0 0-12.08-1.605-13.485 8.723M9.8 36.473c1.82 2.322 6.258 14.101 19.49 9.4 0 0-12.431.453-13.556-8.478"/><path fill-rule="evenodd" d="M14 26c-3.858 0-7 3.142-7 7s3.142 7 7 7 7-3.142 7-7-3.142-7-7-7" opacity=".2"/><path fill="#3594f3" fill-rule="evenodd" d="M14 25c-3.858 0-7 3.142-7 7s3.142 7 7 7 7-3.142 7-7-3.142-7-7-7"/><path fill="#adadad" fill-rule="evenodd" d="M32.714 41c-.94 0-1.714.678-1.714 1.5v5c0 .822.774 1.5 1.714 1.5h20.572c.94 0 1.714-.678 1.714-1.5v-5c0-.822-.774-1.5-1.714-1.5Z"/><path fill="#fff" d="M32 3A29 29 0 0 0 3 32l.021.408A29 29 0 0 1 32 4h26.102A2.89 2.89 0 0 1 61 6.898v-1A2.89 2.89 0 0 0 58.102 3z" opacity=".2"/><path fill-rule="evenodd" d="M32.715 15c-.94 0-1.715.678-1.715 1.5v1c0-.822.775-1.5 1.715-1.5h20.57c.94 0 1.715.678 1.715 1.5v-1c0-.822-.775-1.5-1.715-1.5zm4.058 14c-.971 0-1.773.678-1.773 1.5v1c0-.822.802-1.5 1.773-1.5h22.454c.971 0 1.773.678 1.773 1.5v-1c0-.822-.802-1.5-1.773-1.5zm-4.058 12c-.94 0-1.715.678-1.715 1.5v1c0-.822.775-1.5 1.715-1.5h20.57c.94 0 1.715.678 1.715 1.5v-1c0-.822-.775-1.5-1.715-1.5z" opacity=".2"/><path fill="#fff" fill-rule="evenodd" d="M31 21.5v1c0 .822.775 1.5 1.715 1.5h20.57c.94 0 1.715-.678 1.715-1.5v-1c0 .822-.775 1.5-1.715 1.5h-20.57c-.94 0-1.715-.678-1.715-1.5m4 12v1c0 .822.802 1.5 1.773 1.5h22.454c.971 0 1.773-.678 1.773-1.5v-1c0 .822-.802 1.5-1.773 1.5H36.773C35.802 35 35 34.322 35 33.5m-4 14v1c0 .822.775 1.5 1.715 1.5h20.57c.94 0 1.715-.678 1.715-1.5v-1c0 .822-.775 1.5-1.715 1.5h-20.57c-.94 0-1.715-.678-1.715-1.5" opacity=".2"/></svg>