<svg xmlns="http://www.w3.org/2000/svg" viewBox="0 0 64 64"><path fill-rule="evenodd" d="M14.125 5.002A9 9 0 0 0 5 14v38a9 9 0 1 0 18 0V36.637l1.457 1.543a9 9 0 0 0 13.086 0L39 36.637V52a9 9 0 1 0 18 0V14a9 9 0 0 0-15.543-6.18L31 18.893 20.543 7.82a9 9 0 0 0-6.418-2.818" opacity=".2"/><path fill="none" stroke="#00b1d3" stroke-linecap="round" stroke-linejoin="round" stroke-width="18" d="M14 51V13l17 18 17-18v38"/><circle cx="48" cy="48" r="16" opacity=".2"/><circle cx="48" cy="47" r="16" fill="#6c9832"/><rect width="6" height="22" x="45" y="36" fill="#fff" rx="3" ry="3"/><rect width="6" height="22" x="44" y="-59" fill="#fff" rx="3" ry="3" transform="rotate(90)"/><path fill="#fff" fill-rule="evenodd" d="M14.125 4.002A9 9 0 0 0 5 13v1a9 9 0 0 1 9.125-8.998 9 9 0 0 1 6.418 2.818L31 18.893 41.457 7.82A9 9 0 0 1 57 14v-1a9 9 0 0 0-15.543-6.18L31 17.893 20.543 6.82a9 9 0 0 0-6.418-2.818" opacity=".2"/></svg>