<svg xmlns="http://www.w3.org/2000/svg" xmlns:xlink="http://www.w3.org/1999/xlink" viewBox="0 0 96 96"><defs><linearGradient id="b" x1="50%" x2="50%" y1="0%" y2="100%"><stop offset="0%" stop-color="#8ccf2c"/><stop offset="100%" stop-color="#3da30b"/></linearGradient><filter id="a" width="128.6%" height="128.6%" x="-14.3%" y="-14.3%" filterUnits="objectBoundingBox"><feOffset dy="2" in="SourceAlpha" result="shadowOffsetOuter1"/><feGaussianBlur in="shadowOffsetOuter1" result="shadowBlurOuter1" stdDeviation="2"/><feColorMatrix in="shadowBlurOuter1" result="shadowMatrixOuter1" values="0 0 0 0 0 0 0 0 0 0 0 0 0 0 0 0 0 0 0.2 0"/><feMerge><feMergeNode in="shadowMatrixOuter1"/><feMergeNode in="SourceGraphic"/></feMerge></filter></defs><g fill="none" fill-rule="evenodd" filter="url(#a)" transform="translate(6 6)"><path fill="#fff" fill-rule="nonzero" d="M42 0c23.196 0 42 18.804 42 42S65.196 84 42 84 0 65.196 0 42 18.804 0 42 0"/><path fill="url(#b)" fill-rule="nonzero" d="M42 3C20.46 3 3 20.46 3 42s17.46 39 39 39 39-17.46 39-39S63.54 3 42 3"/><path fill="#fff" d="M47.86 27a6.755 6.755 0 0 1 6.64 8 9.81 9.81 0 0 1-6.374 7.442A7.1 7.1 0 0 1 52.5 51a12.29 12.29 0 0 1-11.84 9H22l4.132-17.706L29 27zm-5.983 19H33l-2 8h8.877A5.28 5.28 0 0 0 45 50a3.22 3.22 0 0 0-3.123-4m1.587-13h-7.87L34 40h8.464a4.08 4.08 0 0 0 4.036-3.5 3.066 3.066 0 0 0-3.036-3.5M67 27l-1.198 6-3.114 6h-3.003v-6.305L60.812 27z"/></g></svg>