<svg xmlns="http://www.w3.org/2000/svg" xmlns:xlink="http://www.w3.org/1999/xlink" viewBox="0 0 96 96"><defs><linearGradient id="b" x1="50%" x2="50%" y1=".839%" y2="104.56%"><stop offset="0%" stop-color="#9f86ff"/><stop offset="100%" stop-color="#043492"/></linearGradient><linearGradient id="c" x1="50%" x2="41.213%" y1="32.264%" y2="119.866%"><stop offset="0%" stop-color="#fff"/><stop offset="100%" stop-color="#fff" stop-opacity=".506"/></linearGradient><filter id="a" width="128.6%" height="128.6%" x="-14.3%" y="-14.3%" filterUnits="objectBoundingBox"><feOffset dy="2" in="SourceAlpha" result="shadowOffsetOuter1"/><feGaussianBlur in="shadowOffsetOuter1" result="shadowBlurOuter1" stdDeviation="2"/><feColorMatrix in="shadowBlurOuter1" result="shadowMatrixOuter1" values="0 0 0 0 0 0 0 0 0 0 0 0 0 0 0 0 0 0 0.2 0"/><feMerge><feMergeNode in="shadowMatrixOuter1"/><feMergeNode in="SourceGraphic"/></feMerge></filter></defs><g fill="none" filter="url(#a)" transform="translate(6 6)"><circle cx="42" cy="42" r="42" fill="url(#b)"/><path fill="url(#c)" d="M23.767 68.89c-.802-1.099-1.222-3.192 0-8.337q1.223-5.146 5.09-18.146a73 73 0 0 0 1.197-5.343c.494-2.68.556-9.035 1.927-12.213 1.372-3.177 4.047-4.781 5.61-3.287q1.563 1.495-1.542 10.093l-2.86 8.086q-1.452 6.639 2.111 7.53c3.562.892 8.881-1.096 11.74-8.356s2.86-10.68 3.304-12.815c.445-2.136 1.8-5.66 4.679-4.538 2.878 1.123.949 8.782 0 11.313-.95 2.531-3.536 6.608-3.923 9.076-.388 2.468.096 4.591 1.663 5.32s3.663 1.202 5.324 0c1.661-1.2 2.333-6.243 3.079-6.075s.878 3.536 0 6.77c-.879 3.233-5.234 7.654-9.68 4.225-2.95-2.643-1.503-7.514-2.333-7.514s-4.051 6.166-6.773 7.514c-2.72 1.349-8.607 1.637-10.399-2.144-1.791-3.78-.515-7.642-1.034-7.642s-1.691 4.356-3.114 9.786q-1.422 5.43-.919 10.397.604 4.434 0 5.642c-.603 1.208-2.345 1.756-3.147.657"/></g></svg>