<svg xmlns="http://www.w3.org/2000/svg" viewBox="0 0 64 64"><circle cx="32" cy="33" r="28" opacity=".2"/><circle cx="32" cy="32" r="28" fill="#ee873f"/><path fill="#fff" d="M32 4A28 28 0 0 0 4 32a28 28 0 0 0 .018.492A28 28 0 0 1 32 5a28 28 0 0 1 27.975 27.492A28 28 0 0 0 60 32 28 28 0 0 0 32 4" opacity=".1"/><path fill-rule="evenodd" d="M11.257 21c-.68.011-1.257.572-1.257 1.26V27H3.244C2.557 27 2 27.565 2 28.26v9.48c0 .695.557 1.26 1.244 1.26H10v4.739c0 1.122 1.372 1.684 2.156.89l9.48-10.739a1.27 1.27 0 0 0 0-1.781l-9.48-10.74a1.24 1.24 0 0 0-.9-.368" opacity=".1"/><path fill="#4f4f4f" fill-rule="evenodd" d="M11.257 20c-.68.011-1.257.572-1.257 1.26V26H3.244C2.557 26 2 26.565 2 27.26v9.48c0 .695.557 1.26 1.244 1.26H10v4.739c0 1.122 1.372 1.684 2.156.89l9.48-10.739a1.27 1.27 0 0 0 0-1.781l-9.48-10.74a1.24 1.24 0 0 0-.9-.368"/><path fill-rule="evenodd" d="M35.062 10.96a3 3 0 0 0-2.788 1.79L22.058 35h10.536L28.4 43.316l-4.356-2.194.904 15.717 1.234-.808 11.934-7.82-4.356-2.195L42.336 29H31.414l6.312-13.75a3 3 0 0 0-2.664-4.29" opacity=".1"/><path fill="#d3201d" fill-rule="evenodd" d="M35.062 9.96a3 3 0 0 0-2.788 1.79L22.058 34h10.536L28.4 42.316l-4.356-2.194.904 15.717 1.234-.808 11.934-7.82-4.356-2.195L42.336 28H31.414l6.312-13.75a3 3 0 0 0-2.664-4.29"/><path fill-rule="evenodd" d="M52.743 21c.68.011 1.257.572 1.257 1.26V27h6.756c.687 0 1.244.565 1.244 1.26v9.48c0 .695-.557 1.26-1.244 1.26H54v4.739c0 1.122-1.372 1.684-2.156.89l-9.48-10.739a1.27 1.27 0 0 1 0-1.781l9.48-10.74c.238-.24.563-.374.9-.368" opacity=".1"/><path fill="#e4e4e4" fill-rule="evenodd" d="M52.743 20c.68.011 1.257.572 1.257 1.26V26h6.756c.687 0 1.244.565 1.244 1.26v9.48c0 .695-.557 1.26-1.244 1.26H54v4.739c0 1.122-1.372 1.684-2.156.89l-9.48-10.739a1.27 1.27 0 0 1 0-1.781l9.48-10.74c.238-.24.563-.374.9-.368"/></svg>