<svg xmlns="http://www.w3.org/2000/svg" xmlns:xlink="http://www.w3.org/1999/xlink" viewBox="0 0 96 96"><defs><linearGradient id="b" x1="50%" x2="50%" y1="0%" y2="100%"><stop offset="0%" stop-color="#fda100"/><stop offset="100%" stop-color="#f96800"/></linearGradient><filter id="a" width="129.3%" height="129.3%" x="-14.6%" y="-14.6%" filterUnits="objectBoundingBox"><feOffset dy="2" in="SourceAlpha" result="shadowOffsetOuter1"/><feGaussianBlur in="shadowOffsetOuter1" result="shadowBlurOuter1" stdDeviation="2"/><feColorMatrix in="shadowBlurOuter1" result="shadowMatrixOuter1" values="0 0 0 0 0 0 0 0 0 0 0 0 0 0 0 0 0 0 0.2 0"/><feMerge><feMergeNode in="shadowMatrixOuter1"/><feMergeNode in="SourceGraphic"/></feMerge></filter></defs><g fill="none" filter="url(#a)" transform="translate(7 7)"><rect width="82" height="82" fill="url(#b)" rx="2"/><path fill="#000" d="M79.974 7H2.026C1.459 7 1 7.448 1 8v71c0 .552.46 1 1.026 1h77.948c.567 0 1.026-.448 1.026-1V8c0-.552-.46-1-1.026-1M80 8v71H2V8z"/><path fill="#000" d="M10 8h1v71h-1zm10 0h1v71h-1zm10 0h1v71h-1zm10 0h1v71h-1zm10 0h1v71h-1zm10 0h1v71h-1zm10 0h1v71h-1z"/><path fill="#000" d="M2 16h78v1H2zm0 9h78v1H2zm0 9h78v1H2zm0 9h78v1H2zm0 9h78v1H2zm0 9h78v1H2zm0 9h78v1H2zm9-69H2a1 1 0 0 0-1 1v3a1 1 0 0 0 1 1h9a1 1 0 0 0 1-1V2a1 1 0 0 0-1-1m0 1v3H2V2zm40-1H14a1 1 0 0 0-1 1v3a1 1 0 0 0 1 1h37a1 1 0 0 0 1-1V2a1 1 0 0 0-1-1m0 1v3H14V2z"/><path fill="#fff" d="M54 2h9v3h-9z"/><path fill="#000" d="M63 1h-9a1 1 0 0 0-1 1v3a1 1 0 0 0 1 1h9a1 1 0 0 0 1-1V2a1 1 0 0 0-1-1m0 1v3h-9V2z"/><path fill="#bfbfbf" d="M41 8h9v8h-9z"/><path fill="#fff" d="M41 8h8v7h-8z"/><path fill="#5c5c5c" d="M51 8h9v8h-9z"/><path fill="#828282" d="M51 8h8v7h-8z"/><path fill="#5c5c5c" d="M51 17h9v8h-9z"/><path fill="#828282" d="M51 17h8v7h-8z"/><path fill="#5c5c5c" d="M51 26h9v8h-9z"/><path fill="#828282" d="M51 26h8v7h-8z"/><path fill="#5c5c5c" d="M41 17h9v8h-9z"/><path fill="#828282" d="M41 17h8v7h-8z"/><path fill="#5c5c5c" d="M41 26h9v8h-9z"/><path fill="#828282" d="M41 26h8v7h-8z"/><path fill="#5c5c5c" d="M31 26h9v8h-9z"/><path fill="#828282" d="M31 26h8v7h-8z"/><path fill="#5c5c5c" d="M31 35h9v8h-9z"/><path fill="#828282" d="M31 35h8v7h-8z"/><path fill="#5c5c5c" d="M11 35h9v8h-9z"/><path fill="#828282" d="M11 35h8v7h-8z"/><path fill="#5c5c5c" d="M11 44h9v8h-9z"/><path fill="#828282" d="M11 44h8v7h-8z"/><path fill="#5c5c5c" d="M61 26h9v8h-9z"/><path fill="#828282" d="M61 26h8v7h-8z"/><path fill="#5c5c5c" d="M61 44h9v8h-9z"/><path fill="#828282" d="M61 44h8v7h-8z"/><path fill="#5c5c5c" d="M51 44h9v8h-9z"/><path fill="#828282" d="M51 44h8v7h-8z"/><path fill="#5c5c5c" d="M41 62h9v8h-9z"/><path fill="#828282" d="M41 62h8v7h-8z"/><path fill="#5c5c5c" d="M31 62h9v8h-9z"/><path fill="#828282" d="M31 62h8v7h-8z"/><path fill="#5c5c5c" d="M71 44h9v8h-9z"/><path fill="#828282" d="M71 44h8v7h-8z"/><path fill="#bfbfbf" d="M41 35h9v8h-9z"/><path fill="#fff" d="M41 35h8v7h-8z"/><path fill="#bfbfbf" d="M41 44h9v8h-9z"/><path fill="#fff" d="M41 44h8v7h-8z"/><path fill="#bfbfbf" d="M41 53h9v8h-9z"/><path fill="#fff" d="M41 53h8v7h-8z"/><path fill="#bfbfbf" d="M51 53h9v8h-9z"/><path fill="#fff" d="M51 53h8v7h-8z"/><path fill="#bfbfbf" d="M31 44h9v8h-9z"/><path fill="#fff" d="M31 44h8v7h-8z"/><path fill="#bfbfbf" d="M31 53h9v8h-9z"/><path fill="#fff" d="M31 53h8v7h-8z"/><path fill="#bfbfbf" d="M21 44h9v8h-9z"/><path fill="#fff" d="M21 44h8v7h-8z"/><path fill="#bfbfbf" d="M21 53h9v8h-9z"/><path fill="#fff" d="M21 53h8v7h-8z"/><path fill="#bfbfbf" d="M21 26h9v8h-9z"/><path fill="#fff" d="M21 26h8v7h-8z"/><path fill="#bfbfbf" d="M21 35h9v8h-9z"/><path fill="#fff" d="M21 35h8v7h-8z"/><path fill="#bfbfbf" d="M61 62h9v8h-9z"/><path fill="#fff" d="M61 62h8v7h-8z"/><path fill="#bfbfbf" d="M71 71h9v8h-9z"/><path fill="#fff" d="M71 71h8v7h-8z"/></g></svg>