<svg xmlns="http://www.w3.org/2000/svg" xmlns:xlink="http://www.w3.org/1999/xlink" viewBox="0 0 96 96"><defs><linearGradient id="b" x1="50%" x2="50%" y1="1.672%" y2="100%"><stop offset="0%" stop-color="#62ff81"/><stop offset="100%" stop-color="#3986b5"/></linearGradient><linearGradient id="c" x1="50%" x2="50%" y1="5.234%" y2="100%"><stop offset="0%" stop-color="#8d0092"/><stop offset="100%" stop-color="#f10037"/></linearGradient><linearGradient id="d" x1="50%" x2="50%" y1="1.09%" y2="100%"><stop offset="0%" stop-color="#ff161d"/><stop offset="100%" stop-color="#ff7b00"/></linearGradient><linearGradient id="e" x1="50%" x2="50%" y1="0%" y2="100%"><stop offset="0%" stop-color="#cbcbcb"/><stop offset="100%" stop-color="#9ca1a4"/></linearGradient><linearGradient id="f" x1="50%" x2="50%" y1="0%" y2="100%"><stop offset="0%" stop-color="#707070"/><stop offset="100%" stop-color="#6e6e6e"/></linearGradient><filter id="a" width="126.1%" height="146.2%" x="-13%" y="-23.1%" filterUnits="objectBoundingBox"><feOffset dy="2" in="SourceAlpha" result="shadowOffsetOuter1"/><feGaussianBlur in="shadowOffsetOuter1" result="shadowBlurOuter1" stdDeviation="2"/><feColorMatrix in="shadowBlurOuter1" result="shadowMatrixOuter1" values="0 0 0 0 0 0 0 0 0 0 0 0 0 0 0 0 0 0 0.2 0"/><feMerge><feMergeNode in="shadowMatrixOuter1"/><feMergeNode in="SourceGraphic"/></feMerge></filter></defs><g fill="none" fill-rule="evenodd" filter="url(#a)" transform="translate(2 22)"><path fill="#fff" d="M12 0h68c6.627 0 12 5.373 12 12v28c0 6.627-5.373 12-12 12H12C5.373 52 0 46.627 0 40V12C0 5.373 5.373 0 12 0"/><path fill="url(#b)" d="M68.752 15h6.909L90.38 37h-6.776z" transform="matrix(-1 0 0 1 159.132 0)"/><path fill="url(#c)" d="M53.184 15h6.836l14.718 22h-6.757z" transform="matrix(-1 0 0 1 127.922 0)"/><path fill="url(#d)" d="M39.115 15h6.909l14.718 22h-6.757z" transform="matrix(-1 0 0 1 99.857 0)"/><path fill="url(#e)" d="m8 15 7.06 11L22 15h6v22h-6V23.931l-6.94 11.194L8 24.734V37H2V15zm28 0v22h-6V15zm9.19 0 14.72 22h-6.76L38.28 15zm15.62 0 14.72 22h-6.76L53.9 15zm13.928 0 14.719 22h-6.758L67.83 15z"/><path fill="url(#f)" d="M28 26.667V37h-6v-9.785q2.94-.312 6-.548M8 29.259V37H2l-.002-6.459A132 132 0 0 1 8 29.26m28-3.062V37h-6V26.522q2.953-.2 6-.325M45.727 26q3.489 0 6.888.098L59.909 37H53.15l-7.435-11Zm15.974.54q3.707.254 7.246.622L75.528 37h-6.757Zm15 1.587c2.672.39 5.243.83 7.698 1.314L89.457 37h-6.758Zm-56.89-.666-4.751 7.664-4.324-6.361a175 175 0 0 1 9.075-1.303"/><path fill="#101010" fill-opacity=".116" fill-rule="nonzero" d="M8 37H2V15h6l7.06 11L22 15h6v22h-6V23.931l-6.94 11.194L8 24.734zm28-22v22h-6V15zm9.19 0 14.72 22h-6.76L38.28 15zm15.62 0 14.72 22h-6.76L53.9 15zm13.928 0 14.719 22h-6.758L67.83 15zM7.453 16H3v20h4V21.483l8.022 11.806L23 20.419V36h4V16h-4.45l-7.482 11.863zM35 16h-4v20h4zm9.656 0h-4.493l13.519 20h4.354zm15.619 0h-4.492l13.519 20h4.354zm13.929 0h-4.492L83.23 36h4.354z"/></g></svg>