<svg xmlns="http://www.w3.org/2000/svg" xmlns:xlink="http://www.w3.org/1999/xlink" viewBox="0 0 96 96"><defs><linearGradient id="b" x1="50%" x2="50%" y1="0%" y2="100%"><stop offset="0%" stop-color="#559aff"/><stop offset="100%" stop-color="#fff" stop-opacity="0"/></linearGradient><linearGradient id="c" x1="50%" x2="50%" y1="0%" y2="100%"><stop offset="0%" stop-color="#51d95f"/><stop offset="100%" stop-color="#fff" stop-opacity="0"/></linearGradient><linearGradient id="d" x1="50%" x2="50%" y1="0%" y2="100%"><stop offset="0%" stop-color="#f1b076"/><stop offset="100%" stop-color="#fff" stop-opacity="0"/></linearGradient><linearGradient id="e" x1="50%" x2="50%" y1="0%" y2="100%"><stop offset="0%" stop-color="#da3f3f"/><stop offset="100%" stop-color="#fff" stop-opacity="0"/></linearGradient><linearGradient id="f" x1="50%" x2="50%" y1="0%" y2="100%"><stop offset="0%" stop-color="#76a8f1"/><stop offset="100%" stop-color="#fff" stop-opacity="0"/></linearGradient><linearGradient id="g" x1="63.064%" x2="33.469%" y1="25.295%" y2="100%"><stop offset="0%" stop-color="#9ac6ff"/><stop offset="50.273%" stop-color="#1254c9"/><stop offset="100%" stop-color="#3b76e1"/></linearGradient><linearGradient id="h" x1="50%" x2="38.633%" y1="28.545%" y2="64.792%"><stop offset="0%" stop-color="#7cb1ff"/><stop offset="100%" stop-color="#245aa8"/></linearGradient><linearGradient id="i" x1="62.014%" x2="33.469%" y1="39.729%" y2="100%"><stop offset="0%" stop-color="#ffc281"/><stop offset="44.358%" stop-color="#e2321b"/><stop offset="100%" stop-color="#faaa70"/></linearGradient><linearGradient id="j" x1="43.587%" x2="50%" y1="-51.978%" y2="122.524%"><stop offset="0%" stop-color="#fd9351"/><stop offset="100%" stop-color="#9f4532"/></linearGradient><linearGradient id="k" x1="28.277%" x2="64.383%" y1="112.258%" y2="39.272%"><stop offset="0%" stop-color="#9eff9a"/><stop offset="65.778%" stop-color="#299000"/><stop offset="100%" stop-color="#2a8e00"/></linearGradient><linearGradient id="l" x1="50%" x2="50%" y1="-10.479%" y2="100%"><stop offset="0%" stop-color="#3f9b14"/><stop offset="100%" stop-color="#3d6600"/></linearGradient><linearGradient id="m" x1="33.469%" x2="66.531%" y1="100%" y2="43.696%"><stop offset="0%" stop-color="#ffda77"/><stop offset="61.275%" stop-color="#e77b00"/><stop offset="100%" stop-color="#ec932d"/></linearGradient><linearGradient id="n" x1="52.242%" x2="33.469%" y1="23.057%" y2="109.304%"><stop offset="0%" stop-color="#cc7b1f"/><stop offset="100%" stop-color="#a86900"/></linearGradient><filter id="a" width="127%" height="126.4%" x="-13.5%" y="-13.2%" filterUnits="objectBoundingBox"><feOffset dy="2" in="SourceAlpha" result="shadowOffsetOuter1"/><feGaussianBlur in="shadowOffsetOuter1" result="shadowBlurOuter1" stdDeviation="2"/><feColorMatrix in="shadowBlurOuter1" result="shadowMatrixOuter1" values="0 0 0 0 0 0 0 0 0 0 0 0 0 0 0 0 0 0 0.2 0"/><feMerge><feMergeNode in="shadowMatrixOuter1"/><feMergeNode in="SourceGraphic"/></feMerge></filter></defs><g fill="none" fill-rule="evenodd" filter="url(#a)" transform="translate(3.139 2.029)"><path fill="url(#b)" d="M35.939 5.991 49.505 4l1.532 21.088-17.398-.424z" transform="rotate(45 42.338 14.544)"/><path fill="url(#c)" d="m64.668 36.444 13.574-1.923 5.078 20.68-18.279.744z" transform="rotate(140 73.994 45.233)"/><path fill="url(#d)" d="m40.707 70.123 12.549-.544 1.224 17.794-15.611.358z" transform="rotate(-135 46.675 78.655)"/><path fill="url(#e)" d="m6.352 39.966 12.619-.354 1.224 17.794L5 58.001z" transform="rotate(-45 12.598 48.806)"/><path fill="url(#f)" d="m35.882 37.976 13.566-1.991 1.532 21.088-18.86.767z" transform="rotate(45 41.55 46.912)"/><path fill="url(#g)" stroke="url(#h)" d="m44.361 4.98 24 17.74v23.75h-24z"/><path fill="url(#i)" stroke="url(#j)" d="m11.861 13.48 24 17.74v23.75h-24z" transform="rotate(-90 23.861 34.471)"/><path fill="url(#k)" stroke="url(#l)" d="m52.861 37.48 24 17.74v23.75h-24z" transform="rotate(90 64.861 58.471)"/><path fill="url(#m)" stroke="url(#n)" d="m20.361 45.98 24 17.74v23.75h-24z" transform="rotate(-180 32.361 66.971)"/></g></svg>