<svg xmlns="http://www.w3.org/2000/svg" viewBox="0 0 64 64"><rect width="56" height="56" x="4" y="5" opacity=".2" rx="2.8" ry="2.8"/><rect width="56" height="56" x="4" y="4" fill="#3f99ed" rx="2.8" ry="2.8"/><path d="M19.973 32.043h-8.54v8.74H7.847v-21.12h3.547v8.74h8.58v-8.74h3.566v21.12h-3.566Z" font-size="12.206" letter-spacing="0" opacity=".2" style="line-height:0%" transform="matrix(1.4019 0 0 1.37313 -1 -1)" word-spacing="0"/><path fill="#fff" d="M19.973 32.043h-8.54v8.74H7.847v-21.12h3.547v8.74h8.58v-8.74h3.566v21.12h-3.566Z" font-size="12.206" letter-spacing="0" style="line-height:0%" transform="matrix(1.4019 0 0 1.37313 -1 -2)" word-spacing="0"/><path d="M53 9v3h-3v3h3v11h3V9Z" opacity=".2"/><path fill="#fff" d="M53 8v3h-3v3h3v11h3V8Z"/><path fill="#fff" d="M6.8 4C5.25 4 4 5.25 4 6.8v1C4 6.25 5.25 5 6.8 5h50.4C58.75 5 60 6.25 60 7.8v-1C60 5.25 58.75 4 57.2 4z" opacity=".2"/></svg>