<svg xmlns="http://www.w3.org/2000/svg" xmlns:xlink="http://www.w3.org/1999/xlink" viewBox="0 0 128 128"><defs><linearGradient id="d" x1="50.002%" x2="50.002%" y1="27.195%" y2="99.995%"><stop offset="0%" stop-color="#a1e494"/><stop offset="100%" stop-color="#309f6e"/></linearGradient><linearGradient id="f" x1="50%" x2="50%" y1="0%" y2="100%"><stop offset="0%" stop-color="#92da84"/><stop offset="20.804%" stop-color="#5fac57"/><stop offset="100%" stop-color="#2c7c59"/></linearGradient><linearGradient id="g" x1="18.989%" x2="61.029%" y1="22.368%" y2="71.175%"><stop offset="0%" stop-color="#5cc093"/><stop offset="100%" stop-color="#05a692" stop-opacity=".11"/></linearGradient><linearGradient id="h" x1="6.423%" x2="84.297%" y1="41.892%" y2="75.206%"><stop offset="0%" stop-color="#4ba481"/><stop offset="100%" stop-color="#55ba8d"/></linearGradient><filter id="a" width="127.1%" height="127.1%" x="-13.6%" y="-13.6%" filterUnits="objectBoundingBox"><feOffset dy="2" in="SourceAlpha" result="shadowOffsetOuter1"/><feGaussianBlur in="shadowOffsetOuter1" result="shadowBlurOuter1" stdDeviation="3"/><feColorMatrix in="shadowBlurOuter1" result="shadowMatrixOuter1" values="0 0 0 0 0 0 0 0 0 0 0 0 0 0 0 0 0 0 0.2 0"/><feMerge><feMergeNode in="shadowMatrixOuter1"/><feMergeNode in="SourceGraphic"/></feMerge></filter><filter id="e" width="100.9%" height="100.9%" x="-.4%" y="-.4%" filterUnits="objectBoundingBox"><feOffset dy="1" in="SourceAlpha" result="shadowOffsetInner1"/><feComposite in="shadowOffsetInner1" in2="SourceAlpha" k2="-1" k3="1" operator="arithmetic" result="shadowInnerInner1"/><feColorMatrix in="shadowInnerInner1" values="0 0 0 0 1 0 0 0 0 1 0 0 0 0 1 0 0 0 0.603720498 0"/></filter><path id="b" d="M59 1c32.036 0 58 25.964 58 58 0 3.965-.385 8.262-1.155 12h-1.949.159-81.11c0-11.26 9.13-21 20.39-21h39.287c-3.784-15.09-17.445-25.89-33.735-25.89-19.213 0-34.778 15.564-34.778 34.777 0 19.212 15.565 34.777 34.778 34.777 8.768 0 16.788-3.24 22.905-8.61h29.046C101.299 103.996 81.656 117 59 117 26.964 117 1 91.036 1 59S26.964 1 59 1"/></defs><g fill="none" fill-rule="evenodd" filter="url(#a)" transform="translate(5 5)"><use xlink:href="#b" fill="url(#d)"/><use xlink:href="#b" fill="#000" filter="url(#e)"/><path fill="url(#f)" fill-rule="nonzero" d="M59 0C26.412 0 0 26.412 0 59s26.412 59 59 59c22.519 0 42.784-12.743 52.73-32.496l.73-1.45H81.417l-.283.25c-6.105 5.358-13.94 8.36-22.246 8.36-18.66 0-33.778-15.117-33.778-33.777s15.118-33.778 33.778-33.778l.47.003c14.864.197 27.57 9.69 31.81 23.396l.147.492H53.336c-11.71 0-21.39 10.08-21.39 22v1h84.713l.165-.798C117.589 67.489 118 63.142 118 59c0-32.588-26.412-59-59-59m0 1c32.036 0 58 25.964 58 58 0 3.965-.385 8.262-1.155 12h-82.9c0-11.26 9.13-21 20.39-21h39.287c-3.784-15.09-17.445-25.89-33.735-25.89-19.213 0-34.778 15.564-34.778 34.777 0 19.212 15.565 34.777 34.778 34.777 8.768 0 16.788-3.24 22.905-8.61h29.046C101.299 103.996 81.656 117 59 117 26.964 117 1 91.036 1 59S26.964 1 59 1"/><path fill="url(#g)" d="M46.766 11.875c25.896 0 46.898 21.048 46.898 47.012 0 4.184-.549 8.246-1.577 12.114L32.945 71c0-11.26 9.13-21 20.39-21h39.287c-3.784-15.09-17.445-25.89-33.735-25.89-19.213 0-34.778 15.564-34.778 34.777 0 19.212 15.565 34.777 34.778 34.777 8.768 0 16.788-3.24 22.905-8.61h29.046C101.299 103.996 81.656 117 59 117 26.964 117 1 91.036 1 59c0-8 1.619-15.621 4.547-22.554 7.948-14.637 23.428-24.571 41.219-24.571" opacity=".63"/><path fill="url(#h)" d="M24.11 58.887c0 19.212 15.564 34.777 34.777 34.777 8.768 0 16.788-3.24 22.905-8.61h29.046C101.299 103.996 81.656 117 59 117c-20.46 0-38.443-10.59-48.768-26.589a57.7 57.7 0 0 1-.85-9.888c0-21.57 11.907-40.345 29.45-50.057-8.908 6.297-14.723 16.677-14.723 28.42"/></g></svg>