<svg xmlns="http://www.w3.org/2000/svg" xmlns:xlink="http://www.w3.org/1999/xlink" viewBox="0 0 96 96"><defs><linearGradient id="b" x1="50%" x2="50%" y1="0%" y2="100%"><stop offset="0%" stop-color="#ffdc00"/><stop offset="100%" stop-color="#ffb600"/></linearGradient><linearGradient id="c" x1="81.962%" x2="47.13%" y1="22.185%" y2="77.095%"><stop offset="0%" stop-color="#2df"/><stop offset="100%" stop-color="#00abf7"/></linearGradient><linearGradient id="d" x1="50%" x2="50%" y1="0%" y2="100%"><stop offset="0%" stop-color="#f07"/><stop offset="100%" stop-color="#ff0042"/></linearGradient><filter id="a" width="128.7%" height="130%" x="-14.4%" y="-15%" filterUnits="objectBoundingBox"><feOffset dy="2" in="SourceAlpha" result="shadowOffsetOuter1"/><feGaussianBlur in="shadowOffsetOuter1" result="shadowBlurOuter1" stdDeviation="2"/><feColorMatrix in="shadowBlurOuter1" result="shadowMatrixOuter1" values="0 0 0 0 0 0 0 0 0 0 0 0 0 0 0 0 0 0 0.2 0"/><feMerge><feMergeNode in="shadowMatrixOuter1"/><feMergeNode in="SourceGraphic"/></feMerge></filter></defs><g fill="none" fill-rule="evenodd" filter="url(#a)" transform="translate(5.707 8.275)"><path fill="url(#b)" d="M6.284 20.992Q17.483 11.23 23.138 6.595a186 186 0 0 1 4.398-3.505C29.43 1.63 30.166.683 31.954.191c1.79-.491 5.096.086 7.19.365 9.46 1.261 12.997 1.232 16.329 1.232s18.504-.91 19.145 0c.12.172.537.537 0 1.302-2.308 3.283-11.124 12.06-23.91 25.48-1.448 1.52-2.637 3.21-3.765 3.66q-1.127.45-7.209-.474-18.948-2.863-27.458-4.428c-2.82-.519-6.959-.837-8.668-1.254-.555-.135-1.93-.515-1.45-1.265q.483-.75 4.126-3.816"/><path fill="url(#c)" d="M.226 30.885q.89-.42 2.527 0l40.56 6.15a3 3 0 0 1 2.47 2.28l8.093 34.454q1.398 5.548 1.398 6.201c0 .654-6.568-1.434-9.243-2.21q-4.575-1.327-20.518-6.178c-.922-.28-4.3-1.189-7.126-2.186-1.819-.642-3.307-1.16-4.106-2.106-1.096-1.3-1.808-5.354-3.219-9.017-1.141-2.963-1.996-6.564-3.527-10.354-.944-2.336-2.926-7.435-5.643-11.904-.572-.94-2.556-4.709-1.666-5.13"/><path fill="url(#d)" d="m52.037 34.008 1.518-1.62Q68.05 16.91 71.882 12.772c1.37-1.478 2.363-2.577 3.407-3.675C76.332 8 78.017 5.922 78.703 6.093s.047 2.5 0 4.078c-.105 3.484-.167 7.542.685 15.303.675 6.145 1.653 10.894 3.115 16.38.326 1.225.98 4.114.98 4.582q0 .468-1.56 2.511L63.846 74.342l-2.072 2.912q-.872 1.228-1.38.934-.51-.295-1.034-3.203l-.853-4.068q-2.829-11.038-4.159-16.635a516 516 0 0 1-2.894-13.042l-.632-2.658a5 5 0 0 1 1.216-4.574"/></g></svg>