<svg xmlns="http://www.w3.org/2000/svg" xmlns:xlink="http://www.w3.org/1999/xlink" viewBox="0 0 96 96"><defs><filter id="a" width="127%" height="131.6%" x="-13.5%" y="-15.8%" filterUnits="objectBoundingBox"><feOffset dy="2" in="SourceAlpha" result="shadowOffsetOuter1"/><feGaussianBlur in="shadowOffsetOuter1" result="shadowBlurOuter1" stdDeviation="2"/><feColorMatrix in="shadowBlurOuter1" result="shadowMatrixOuter1" values="0 0 0 0 0 0 0 0 0 0 0 0 0 0 0 0 0 0 0.2 0"/><feMerge><feMergeNode in="shadowMatrixOuter1"/><feMergeNode in="SourceGraphic"/></feMerge></filter><filter id="d" width="101.1%" height="128.6%" x="-.6%" y="-7.1%" filterUnits="objectBoundingBox"><feOffset dy="1" in="SourceAlpha" result="shadowOffsetOuter1"/><feColorMatrix in="shadowOffsetOuter1" values="0 0 0 0 1 0 0 0 0 1 0 0 0 0 1 0 0 0 0.5 0"/></filter><linearGradient id="b" x1="50%" x2="50%" y1="0%" y2="96.687%"><stop offset="0%" stop-color="#fff6d4"/><stop offset="100%" stop-color="#d3cbb0"/></linearGradient><path id="c" d="M1.104 41.655v-4.642h.038l1.98 4.642h.953l1.982-4.642h.037v4.642h1.104v-6.736H5.906l-2.283 5.283h-.038L1.292 34.92H0v6.736zm7.79 0 .613-1.689h2.821l.613 1.689h1.18l-2.576-6.736H10.29l-2.575 6.736zm3.104-2.594h-2.16l1.066-2.953h.037zm3.743 2.594V36.73h.038l3.368 4.925h1.076v-6.736h-1.114v4.859h-.037l-3.33-4.859h-1.104v6.736zm8.121 0q1.632 0 2.481-.906.812-.868.812-2.462 0-1.604-.812-2.462-.85-.906-2.48-.906H21.4v6.736zm-.207-.943h-1.151v-4.85h1.15q1.264 0 1.84.576.566.566.566 1.849 0 1.245-.566 1.84-.585.585-1.84.585m9.413.943v-.943h-3.915v-2.038h3.528v-.944h-3.528v-1.868h3.754v-.943H28.05v6.736zm5.63 0v-.943h-3.642v-5.793h-1.094v6.736zm3.8 0q1.085 0 1.679-.396.698-.482.698-1.5 0-.68-.33-1.085-.34-.415-1-.538.51-.198.773-.557a1.7 1.7 0 0 0 .274-.962q0-.764-.528-1.217-.567-.48-1.576-.48h-3.085v6.735zm-.302-3.906h-1.689v-1.924h1.708q.67 0 .98.226.294.218.293.698 0 .518-.292.764-.312.237-1 .236m.141 3h-1.83v-2.094h1.859q.735 0 1.075.255.33.255.33.83 0 .555-.453.811-.349.198-.98.198m6.234 1.038q1.33 0 2.066-.68.736-.697.736-2.009V34.92H50.27v4.198q0 .859-.405 1.293-.416.415-1.293.415-.896 0-1.292-.415-.406-.416-.406-1.293V34.92H45.77v4.18q0 1.31.746 2.018.717.67 2.056.67m8.715-.132v-.943h-3.641V34.92H52.55v6.736zm3.8 0q1.085 0 1.68-.396.698-.482.698-1.5 0-.68-.33-1.085-.34-.415-1-.538.509-.198.773-.557a1.7 1.7 0 0 0 .274-.962q0-.764-.529-1.217-.566-.48-1.575-.48h-3.085v6.735zm-.302-3.906h-1.688v-1.924h1.707q.67 0 .981.226.293.218.293.698 0 .518-.293.764-.31.237-1 .236m.142 3h-1.83v-2.094h1.858q.736 0 1.076.255.33.255.33.83 0 .555-.453.811-.35.198-.981.198m8.45.906v-.943h-3.914v-2.038h3.528v-.944h-3.528v-1.868h3.754v-.943h-4.858v6.736zm1.999 0V38.91h1.745q.586 0 .868.245.283.235.34.792l.084.83q.057.576.293.878h1.198q-.35-.378-.406-.99l-.113-1.086q-.112-.981-.99-1.179v-.019q.546-.141.858-.594a1.6 1.6 0 0 0 .283-.934q0-.953-.632-1.472-.585-.462-1.632-.462h-3v6.736zm1.745-3.689h-1.745v-2.104h1.745q.69 0 .99.246.312.235.312.792 0 .51-.311.793-.35.273-.991.273m8.845 3.689 1.802-4.877h-1.17l-1.17 3.537-1.17-3.537h-1.17l1.803 4.877zm6.885 0v-.972h-3.32q.225-.51 1.254-1.188 1.027-.69 1.396-1.085.66-.735.66-1.595 0-.896-.622-1.462-.632-.566-1.613-.566-1.085 0-1.755.736-.642.689-.66 1.82h1.103q.029-.8.34-1.198.312-.424.934-.424.585 0 .877.264.293.274.293.82 0 .567-.444 1.067-.31.33-.924.755-1.18.81-1.547 1.235a2.6 2.6 0 0 0-.67 1.793z"/></defs><g fill="none" filter="url(#a)" transform="translate(3.729 10)"><path fill="url(#b)" d="M44.271 76c20.987 0 38-15.511 38-37.032C82.271 17.446 65.258 0 44.271 0s-38 17.446-38 38.968c0 21.521 17.013 37.032 38 37.032"/><use xlink:href="#c" fill="#000" filter="url(#d)"/><use xlink:href="#c" fill="#000"/></g></svg>