<svg xmlns="http://www.w3.org/2000/svg" xmlns:xlink="http://www.w3.org/1999/xlink" viewBox="0 0 96 96"><defs><linearGradient id="b" x1="50%" x2="50%" y1="0%" y2="100%"><stop offset="0%" stop-color="#cd0200"/><stop offset="100%" stop-color="#900100"/></linearGradient><filter id="a" width="127.3%" height="133.3%" x="-13.6%" y="-16.7%" filterUnits="objectBoundingBox"><feOffset dy="2" in="SourceAlpha" result="shadowOffsetOuter1"/><feGaussianBlur in="shadowOffsetOuter1" result="shadowBlurOuter1" stdDeviation="2"/><feColorMatrix in="shadowBlurOuter1" result="shadowMatrixOuter1" values="0 0 0 0 0 0 0 0 0 0 0 0 0 0 0 0 0 0 0.2 0"/><feMerge><feMergeNode in="shadowMatrixOuter1"/><feMergeNode in="SourceGraphic"/></feMerge></filter></defs><g fill="none" fill-rule="evenodd" filter="url(#a)" transform="translate(2.482 9.03)"><path fill="#fff" stroke="#a10100" d="M44.546 2.388a4.48 4.48 0 0 1 3.44-.079L65.7 9.338l1.346-1.009a4.5 4.5 0 0 1 3.192-.871 4.48 4.48 0 0 1 2.925 1.546l13.254 15.483a2.5 2.5 0 0 1 .601 1.626v44.871l-43.859.5a2.5 2.5 0 0 1-.822-.139L6.262 58.778a5.48 5.48 0 0 1-3.142-2.8 5.48 5.48 0 0 1-.248-4.186L9.375 36.73l-3.567-4.76a5.48 5.48 0 0 1-1.044-4.079 5.48 5.48 0 0 1 2.597-3.925l12.787-7.74-.593-4.098a5.48 5.48 0 0 1 1.037-4.08 5.48 5.48 0 0 1 4.579-2.205l16.42.515.575-1.482a4.5 4.5 0 0 1 2.38-2.49Z"/><path fill="url(#b)" d="M48.333 6.3a3 3 0 0 1 .305.099l18.105 6.898.697-.685a3 3 0 0 1 4.392.197l12.39 14.604-12.508-9.471a4 4 0 0 0-5.26.377L42.484 42.57l22.728-27.972-14.53-2.955a3 3 0 0 0-3.46 2.042L36.866 46.707l6.421-32.11H30.603a2 2 0 0 0-1.959 2.404l6.997 33.972-9.794-28.475-8.687 4.643a3 3 0 0 0-.967 4.472L36.867 58.57 16.806 38.969l-4.827 11.129a3 3 0 0 0 1.45 3.896l29.86 14.393L9.96 56.501a4 4 0 0 1-2.326-5.361l6.407-14.747-3.165-5.432a4 4 0 0 1 1.534-5.522l12.198-6.684-.67-2.682a4 4 0 0 1 3.881-4.97h16.148l.7-2.664a3 3 0 0 1 3.665-2.138m20.141 28.583.092.136 11.471 18.764a6.445 6.445 0 0 1-6.491 9.73l-.228-.04-.296-.064c-2.702-.649-3.37-2.662-4.386-3.796q-.344 1.697.183 3.143.843 2.314 3.482 4.89l.337.323h-11.79q3.363-2.034 4.143-5.406.365-1.577.21-2.869c-1.107 1.162-1.945 3.135-4.244 3.716l-.283.063-.295.05a6.493 6.493 0 0 1-6.62-9.562l.123-.21 11.264-18.72a2 2 0 0 1 3.328-.148"/></g></svg>