<svg xmlns="http://www.w3.org/2000/svg" xmlns:xlink="http://www.w3.org/1999/xlink" viewBox="0 0 96 96"><defs><linearGradient id="b" x1="14.183%" x2="94.11%" y1="15.184%" y2="78.178%"><stop offset="0%" stop-opacity=".3"/><stop offset="100%" stop-opacity="0"/></linearGradient><filter id="a" width="128.6%" height="128.6%" x="-14.3%" y="-14.3%" filterUnits="objectBoundingBox"><feOffset dy="2" in="SourceAlpha" result="shadowOffsetOuter1"/><feGaussianBlur in="shadowOffsetOuter1" result="shadowBlurOuter1" stdDeviation="2"/><feColorMatrix in="shadowBlurOuter1" result="shadowMatrixOuter1" values="0 0 0 0 0 0 0 0 0 0 0 0 0 0 0 0 0 0 0.2 0"/><feMerge><feMergeNode in="shadowMatrixOuter1"/><feMergeNode in="SourceGraphic"/></feMerge></filter></defs><g fill="none" fill-rule="evenodd" filter="url(#a)" transform="translate(6 6)"><rect width="84" height="84" fill="#0072c6" rx="8"/><path fill="url(#b)" d="m10 66 19 18h47.258L84 75V36.134L74 24H60.666L47 10l-6.591 53.582z"/><path fill="#fff" d="M54.831 43.638 74 31.007V54a4 4 0 0 1-4 4H50V41zM50 24h20a4 4 0 0 1 3.616 2.288L54.831 39.373 50 36.235zm-2-14v65l-38-9V17zM29.5 30c-4.694 0-8.5 5.149-8.5 11.5S24.806 53 29.5 53 38 47.851 38 41.5 34.194 30 29.5 30m0 4c2.178 0 4.5 3.141 4.5 7.5S31.678 49 29.5 49 25 45.859 25 41.5s2.322-7.5 4.5-7.5"/></g></svg>