<svg xmlns="http://www.w3.org/2000/svg" xmlns:xlink="http://www.w3.org/1999/xlink" viewBox="0 0 96 96"><defs><linearGradient id="b" x1="50%" x2="50%" y1="0%" y2="97.94%"><stop offset="0%" stop-color="#f26659"/><stop offset="100%" stop-color="#c64431"/></linearGradient><linearGradient id="c" x1="50%" x2="50%" y1="0%" y2="100%"><stop offset="0%" stop-color="#fff"/><stop offset="100%" stop-color="#f8f8f8"/></linearGradient><filter id="a" width="128.6%" height="128.6%" x="-14.3%" y="-14.3%" filterUnits="objectBoundingBox"><feOffset dy="2" in="SourceAlpha" result="shadowOffsetOuter1"/><feGaussianBlur in="shadowOffsetOuter1" result="shadowBlurOuter1" stdDeviation="2"/><feColorMatrix in="shadowBlurOuter1" result="shadowMatrixOuter1" values="0 0 0 0 0 0 0 0 0 0 0 0 0 0 0 0 0 0 0.2 0"/><feMerge><feMergeNode in="shadowMatrixOuter1"/><feMergeNode in="SourceGraphic"/></feMerge></filter></defs><g fill="none" fill-rule="evenodd" filter="url(#a)" transform="translate(6 6)"><circle cx="42" cy="42" r="42" fill="url(#b)"/><path fill="url(#c)" fill-rule="nonzero" d="M42 0c23.196 0 42 18.804 42 42S65.196 84 42 84 0 65.196 0 42 18.804 0 42 0m0 4C21.013 4 4 21.013 4 42s17.013 38 38 38 38-17.013 38-38S62.987 4 42 4"/><path fill="#fefefe" d="m29.141 47.668 5.177 19.318-7.728 2.07-5.176-19.318zm6.97 10.556 31.875-8.542 2.07 7.728-31.875 8.54zm-3.106-11.592 31.875-8.54 2.07 7.727-31.875 8.54zM22.67 23.52l5.176 19.318-7.727 2.07-5.177-19.318zm11.59-3.106 5.177 19.318-7.727 2.07-5.177-19.318zm24.149-6.47 5.176 19.318-19.318 5.176L39.09 19.12z"/></g></svg>