<svg xmlns="http://www.w3.org/2000/svg" xmlns:xlink="http://www.w3.org/1999/xlink" viewBox="0 0 96 96"><defs><linearGradient id="b" x1="50%" x2="50%" y1="0%" y2="100%"><stop offset="0%" stop-color="#d3dadb"/><stop offset="100%" stop-color="#a7b3b4"/></linearGradient><linearGradient id="c" x1="50%" x2="50%" y1="0%" y2="100%"><stop offset="0%" stop-color="#d3dadb"/><stop offset="100%" stop-color="#a7b3b4"/></linearGradient><filter id="a" width="128.6%" height="135.8%" x="-14.3%" y="-17.9%" filterUnits="objectBoundingBox"><feOffset dy="2" in="SourceAlpha" result="shadowOffsetOuter1"/><feGaussianBlur in="shadowOffsetOuter1" result="shadowBlurOuter1" stdDeviation="2"/><feColorMatrix in="shadowBlurOuter1" result="shadowMatrixOuter1" values="0 0 0 0 0 0 0 0 0 0 0 0 0 0 0 0 0 0 0.2 0"/><feMerge><feMergeNode in="shadowMatrixOuter1"/><feMergeNode in="SourceGraphic"/></feMerge></filter></defs><g fill="none" fill-rule="evenodd" filter="url(#a)" transform="translate(6 17)"><path fill="#5d7d8d" d="M36.82 67h11.36a1 1 0 0 0 .98-.804l.6-3A1 1 0 0 0 48.78 62H36.22a1 1 0 0 0-.98 1.196l.6 3a1 1 0 0 0 .98.804"/><path fill="#3b4144" d="M4 6h77v55H4z"/><rect width="84" height="7" fill="url(#b)" rx="2"/><rect width="84" height="5" y="59" fill="url(#c)" rx="1"/><path fill="#007ac6" d="m23 40.436 21.662-21.663 3.536 3.536-21.663 21.662z"/><path fill="#1da7ff" d="M61 45v5H42v-5zM26.536 17.198l9.85 9.85.049-.048 3.536 3.536-.049.049.049.048-3.536 3.535-.048-.048-9.851 9.85L23 40.436l9.851-9.851L23 20.733z"/></g></svg>