<svg xmlns="http://www.w3.org/2000/svg" xmlns:xlink="http://www.w3.org/1999/xlink" viewBox="0 0 96 96"><defs><linearGradient id="b" x1="50%" x2="50%" y1="0%" y2="66.487%"><stop offset="0%" stop-color="#ffd436"/><stop offset="100%" stop-color="#fe9700"/></linearGradient><linearGradient id="c" x1="50%" x2="50%" y1="0%" y2="100%"><stop offset="0%" stop-color="#f7f7f7"/><stop offset="100%" stop-color="#ebebeb"/></linearGradient><linearGradient id="d" x1="6.666%" x2="74.985%" y1="31.553%" y2="73.327%"><stop offset="0%" stop-color="#ffd556"/><stop offset="100%" stop-color="#ffa904"/></linearGradient><linearGradient id="e" x1="50%" x2="50%" y1="0%" y2="100%"><stop offset="0%" stop-color="#ffe869"/><stop offset="100%" stop-color="#ffc81f"/></linearGradient><linearGradient id="f" x1="50%" x2="50%" y1="0%" y2="100%"><stop offset="0%" stop-opacity=".25"/><stop offset="100%" stop-opacity=".409"/></linearGradient><filter id="a" width="130.8%" height="130.9%" x="-15.4%" y="-15.4%" filterUnits="objectBoundingBox"><feOffset dy="2" in="SourceAlpha" result="shadowOffsetOuter1"/><feGaussianBlur in="shadowOffsetOuter1" result="shadowBlurOuter1" stdDeviation="2"/><feColorMatrix in="shadowBlurOuter1" result="shadowMatrixOuter1" values="0 0 0 0 0 0 0 0 0 0 0 0 0 0 0 0 0 0 0.2 0"/><feMerge><feMergeNode in="shadowMatrixOuter1"/><feMergeNode in="SourceGraphic"/></feMerge></filter></defs><g fill="none" filter="url(#a)" transform="translate(9 9)"><path fill="url(#b)" d="m4.16 22.741 29-20.86a10 10 0 0 1 11.68 0l29 20.86A10 10 0 0 1 78 30.859v36.823c0 5.523-4.477 10-10 10H10c-5.523 0-10-4.477-10-10V30.859a10 10 0 0 1 4.16-8.118"/><path fill="url(#c)" d="M18 5.682h41c5.523 0 10 4.477 10 10v42H8v-42c0-5.523 4.477-10 10-10"/><path fill="url(#d)" d="m.242 28.71 69.47 48.826q-.835.145-1.712.146H10c-5.523 0-10-4.477-10-10V30.897c0-.743.083-1.476.242-2.186"/><path fill="url(#e)" d="M78 30.82v36.862c0 5.523-4.477 10-10 10H10c-.804 0-1.587-.095-2.336-.274l69.991-49.19A10 10 0 0 1 78 30.821"/><path fill="url(#f)" d="M40.33 13.266a14.55 14.55 0 0 1 13.602 9.384q.045.118.06.244l.008.125v11.703c0 .533-.401.972-.918 1.032l-.121.007h-5.835a1.04 1.04 0 0 1-1.032-.918l-.007-.121.001-1.244a7.5 7.5 0 0 1-5.758 2.645 7.792 7.792 0 1 1 0-15.584c4.183 0 7.441 3.297 7.62 7.434q.03.114.044.237l.007.121-.001 5.35h4V23.217l-.05-.126c-1.857-4.54-6.315-7.613-11.295-7.742l-.325-.004c-6.886 0-12.33 5.744-12.33 12.63 0 6.78 5.273 12.458 12.013 12.626l.317.004h9.894a1.039 1.039 0 0 1 .121 2.07l-.12.008H40.33c-8.034 0-14.408-6.675-14.408-14.708s6.374-14.708 14.408-14.708m0 9.35a5.714 5.714 0 1 0 0 11.43 5.714 5.714 0 0 0 0-11.43"/></g></svg>