<svg xmlns="http://www.w3.org/2000/svg" xmlns:xlink="http://www.w3.org/1999/xlink" viewBox="0 0 96 96"><defs><linearGradient id="b" x1="50%" x2="50%" y1="0%" y2="100%"><stop offset="0%" stop-color="#de3e80"/><stop offset="100%" stop-color="#9b1442"/></linearGradient><linearGradient id="c" x1="50%" x2="50%" y1="0%" y2="100%"><stop offset="0%" stop-color="#a41a4a"/><stop offset="100%" stop-color="#8f002e"/></linearGradient><linearGradient id="d" x1="50%" x2="50%" y1="0%" y2="100%"><stop offset="0%" stop-color="#ecebeb"/><stop offset="100%" stop-color="#d4d3d3"/></linearGradient><linearGradient id="g" x1="50%" x2="50%" y1="0%" y2="100%"><stop offset="0%" stop-color="#9e1644"/><stop offset="100%" stop-color="#d83b7b"/></linearGradient><linearGradient id="i" x1="50%" x2="50%" y1="0%" y2="100%"><stop offset="0%" stop-color="#ff77b7"/><stop offset="100%" stop-color="#b8446c"/></linearGradient><linearGradient id="j" x1="50%" x2="50%" y1="0%" y2="100%"><stop offset="0%" stop-color="#dfdfdf"/><stop offset="100%" stop-color="#bbb"/></linearGradient><linearGradient id="k" x1="50%" x2="50%" y1="0%" y2="100%"><stop offset="0%" stop-color="#9d1643"/><stop offset="100%" stop-color="#d13673"/></linearGradient><linearGradient id="l" x1="50%" x2="50%" y1="0%" y2="100%"><stop offset="0%" stop-color="#9d1643"/><stop offset="100%" stop-color="#d13673"/></linearGradient><filter id="a" width="127.3%" height="136.4%" x="-13.6%" y="-18.2%" filterUnits="objectBoundingBox"><feOffset dy="2" in="SourceAlpha" result="shadowOffsetOuter1"/><feGaussianBlur in="shadowOffsetOuter1" result="shadowBlurOuter1" stdDeviation="2"/><feColorMatrix in="shadowBlurOuter1" result="shadowMatrixOuter1" values="0 0 0 0 0 0 0 0 0 0 0 0 0 0 0 0 0 0 0.2 0"/><feMerge><feMergeNode in="shadowMatrixOuter1"/><feMergeNode in="SourceGraphic"/></feMerge></filter><filter id="f" width="105.7%" height="120%" x="-2.9%" y="-10%" filterUnits="objectBoundingBox"><feGaussianBlur in="SourceAlpha" result="shadowBlurInner1" stdDeviation="1.5"/><feOffset dy="1" in="shadowBlurInner1" result="shadowOffsetInner1"/><feComposite in="shadowOffsetInner1" in2="SourceAlpha" k2="-1" k3="1" operator="arithmetic" result="shadowInnerInner1"/><feColorMatrix in="shadowInnerInner1" values="0 0 0 0 0 0 0 0 0 0 0 0 0 0 0 0 0 0 0.5 0"/></filter><radialGradient id="h" cx="50%" cy="93.306%" r="100%" fx="50%" fy="93.306%"><stop offset="0%" stop-color="#a4a4a4"/><stop offset="100%" stop-color="#fff"/></radialGradient><rect id="e" width="70" height="20" x="9" y="9" rx="4"/></defs><g fill="none" fill-rule="evenodd" filter="url(#a)" transform="translate(4 15)"><path fill="url(#b)" d="M12 0h64c6.627 0 12 5.373 12 12v42c0 6.627-5.373 12-12 12H12C5.373 66 0 60.627 0 54V12C0 5.373 5.373 0 12 0"/><path fill="url(#c)" fill-rule="nonzero" d="M76 0c6.627 0 12 5.373 12 12v42c0 6.627-5.373 12-12 12H12C5.373 66 0 60.627 0 54V12C0 5.373 5.373 0 12 0zm0 1H12C6.021 1 1.157 5.77 1.004 11.712L1 12v42c0 5.979 4.77 10.843 10.712 10.996L12 65h64c5.979 0 10.843-4.77 10.996-10.712L87 54V12c0-5.979-4.77-10.843-10.712-10.996z"/><circle cx="45" cy="48" r="13" fill="url(#d)"/><use xlink:href="#e" fill="#fafafa"/><use xlink:href="#e" fill="#000" filter="url(#f)"/><path fill="url(#g)" fill-rule="nonzero" d="M75 6H13a7 7 0 0 0-7 7v12a7 7 0 0 0 7 7h62a7 7 0 0 0 7-7V13a7 7 0 0 0-7-7m0 3a4 4 0 0 1 4 4v12a4 4 0 0 1-4 4H13a4 4 0 0 1-4-4V13a4 4 0 0 1 4-4z"/><path fill="#b3b3b5" d="M15 12v14h-1V12zm15 0v14h-1V12zm15 0v14h-1V12zm17 0v14h-1V12zm13 0v14h-1V12zm-4 3v8h-1v-8zm-5 0v8h-1v-8zm-10 0v8h-1v-8zm-17 0v8h-1v-8zm-15 0v8h-1v-8zm26 0v8h-1v-8zm-15 0v8h-1v-8zm-15 0v8h-1v-8z"/><path fill="#de3e80" d="M37 9h1v20h-1z"/><rect width="17" height="3" x="8" y="40" fill="#000" rx="1.5"/><rect width="17" height="3" x="62" y="40" fill="#000" rx="1.5"/><circle cx="45" cy="48" r="10" fill="url(#h)"/><path fill="url(#i)" fill-rule="nonzero" d="M45 37c-6.075 0-11 4.925-11 11s4.925 11 11 11 11-4.925 11-11-4.925-11-11-11m0 1c5.523 0 10 4.477 10 10s-4.477 10-10 10-10-4.477-10-10 4.477-10 10-10"/><path fill="#000" fill-rule="nonzero" d="M45 38c5.523 0 10 4.477 10 10s-4.477 10-10 10-10-4.477-10-10 4.477-10 10-10m0 1a9 9 0 1 0 0 18 9 9 0 0 0 0-18"/><path fill="url(#j)" d="M44 40h1v5h-1z"/><path fill="#000" d="M9.5 47h13a1.5 1.5 0 0 1 0 3h-13a1.5 1.5 0 0 1 0-3m55 0h13a1.5 1.5 0 0 1 0 3h-13a1.5 1.5 0 0 1 0-3"/><rect width="17" height="3" x="8" y="54" fill="#000" rx="1.5"/><rect width="17" height="3" x="62" y="54" fill="#000" rx="1.5"/><path fill="url(#k)" fill-rule="nonzero" d="M23.5 39h-14a2.5 2.5 0 1 0 0 5h14a2.5 2.5 0 1 0 0-5m0 1a1.5 1.5 0 0 1 0 3h-14a1.5 1.5 0 0 1 0-3zm54-1h-14a2.5 2.5 0 1 0 0 5h14a2.5 2.5 0 1 0 0-5m0 1a1.5 1.5 0 0 1 0 3h-14a1.5 1.5 0 0 1 0-3z"/><path fill="url(#l)" fill-rule="nonzero" d="M22.5 46h-13a2.5 2.5 0 1 0 0 5h13a2.5 2.5 0 1 0 0-5m0 1a1.5 1.5 0 0 1 0 3h-13a1.5 1.5 0 0 1 0-3zm55-1h-13a2.5 2.5 0 1 0 0 5h13a2.5 2.5 0 1 0 0-5m0 1a1.5 1.5 0 0 1 0 3h-13a1.5 1.5 0 0 1 0-3z"/><path fill="url(#k)" fill-rule="nonzero" d="M23.5 53h-14a2.5 2.5 0 1 0 0 5h14a2.5 2.5 0 1 0 0-5m0 1a1.5 1.5 0 0 1 0 3h-14a1.5 1.5 0 0 1 0-3zm54-1h-14a2.5 2.5 0 1 0 0 5h14a2.5 2.5 0 1 0 0-5m0 1a1.5 1.5 0 0 1 0 3h-14a1.5 1.5 0 0 1 0-3z"/></g></svg>