<svg xmlns="http://www.w3.org/2000/svg" xmlns:xlink="http://www.w3.org/1999/xlink" viewBox="0 0 96 96"><defs><filter id="a" width="130.9%" height="130%" x="-15.4%" y="-15%" filterUnits="objectBoundingBox"><feOffset dy="2" in="SourceAlpha" result="shadowOffsetOuter1"/><feGaussianBlur in="shadowOffsetOuter1" result="shadowBlurOuter1" stdDeviation="2"/><feColorMatrix in="shadowBlurOuter1" result="shadowMatrixOuter1" values="0 0 0 0 0 0 0 0 0 0 0 0 0 0 0 0 0 0 0.2 0"/><feMerge><feMergeNode in="shadowMatrixOuter1"/><feMergeNode in="SourceGraphic"/></feMerge></filter></defs><g fill="none" filter="url(#a)" transform="translate(9 8)"><path fill="#940707" d="M39.627 52.04c-1.896 6.367-11.734 19.54-22.154 14.607-.634-.3-2.878-1.242-5.046-1.19C3.565 65.671-1.161 53.873.245 44.475c1.648-14.798 10.884-19.27 20.018-14.944 2.192 1.038 4.358 1.736 7.104 1.746 9.754.068 16.644 9.102 12.26 20.762"/><path fill="#6a0202" d="M29.95 34.901c-.513 1.506-3.505 1.85-6.685.768s-5.34-3.182-4.828-4.688c.514-1.506 2.728.006 5.908 1.09 3.18 1.082 6.12 1.324 5.606 2.83"/><path fill="#b00707" d="M29.789 47.76C27.34 56.2 19.349 61.3 11.935 59.15S.497 48.417 2.945 39.977c2.038-7.032 6.896-10.172 11.804-6.408 2.014 1.546 3.206 3.64 8.08 3.892 6.514.334 8.812 3.91 6.96 10.298"/><path fill="#356b02" d="M20.653 31.16s3.15.011 7.96-5.719c0 0 16.58-18.184 28.858-20.048 1.38-.21 2.214.328.052 1.88-1.816 1.304-16.55 8.742-27.04 20.476 0 0-3.636 3.612-2.608 5.576 1.206 2.304-.62 2.574-3.264 2.102-1.116-.2-2.916-.962-3.614-1.646.002-.002-2.534-2.26-.344-2.622"/><path fill="#b30909" d="M70.415 61.157c-1.638 7.246-11.622 22.68-23.618 17.96-.73-.286-3.304-1.17-5.718-.95-9.87.904-16.028-11.902-15.166-22.494.728-16.632 10.696-22.314 21.21-18.174 2.522.994 4.992 1.61 8.056 1.414 10.888-.652 19.252 8.908 15.236 22.244"/><path fill="#810606" d="M57.359 42.923c-.278 1.626-3.504 2.43-7.206 1.798s-6.478-2.462-6.2-4.086c.278-1.626 3.002-.406 6.702.226 3.702.632 6.982.438 6.704 2.062"/><path fill="#59a80a" d="M65.159 4.021s-6.57 9.782 3.36 19.586c0 0 4.226 4.286 5.856 7.47.186.364.724.266.774-.142.276-2.27.886-6.204 1.972-8.336 0 0 3.102-7.266-4.316-10.516 0 .002-6.37-3.604-7.646-8.062"/><path fill="#4d920b" d="M73.759 26.421a56 56 0 0 0-3.756-4.28c-5.206-5.14-5.306-10.186-4.538-13.424 2.444 2.93 5.796 4.89 6.31 5.18l.192.096c5.194 2.276 3.602 6.896 3.232 7.798-.608 1.186-1.078 2.876-1.44 4.63"/><path fill="#4e9a06" d="M41.865 14.343c-6.582 4.14-11.768 10.524-16.774 15.45-1.236 1.218-2.396 1.13-3.04 1.902-.43.514.52 2.288 2.878-.072 5.552-5.556 11.6-12.706 18.226-16.874.568-.356.056-1.266-.512-.908z"/><path fill="#356b02" d="M47.197 39.787s2.592-.482 3.768-7.838c0 0 3.32-20.198 12.404-25.664 1.442-.868 2.834-.542.724 1.688-1.774 1.874-6.526 9.536-9.912 26.066 0 0-1.384 5.028.84 7.152 2.032 1.942-.3 2.766-3.574 2.424-1.376-.144-2.332-.402-3.36-.95 0 .002-3.382-1.912-.89-2.878"/><path fill="#59aa0a" d="M66.129 3.885s-6.912 1.206-13.4-2.368c0 0-7.81-4.824-18.358 2.73-2.758 1.976-7.282.43-11.278-1.77-.42-.232-.848.29-.52.64 3.792 4.04 13.326 12.822 24.45 12.73C61.465 15.73 66.129 3.885 66.129 3.885"/><path fill="#4d920b" d="M46.85 13.35c-6.385 0-12.287-3.037-16.665-6.367.354.036.7.156 1.036.156 1.69 0 3.16-.386 4.362-1.248 3.576-2.56 7.164-3.832 10.67-3.832 3.33 0 5.358 1.208 5.378 1.22 3.936 2.17 7.904 2.57 10.788 2.662-2.28 3.124-6.986 7.408-15.412 7.408z"/><path fill="#4e9a06" d="M57.007 15.08c-3.598 6.891-4.862 15.02-6.702 21.797-.454 1.674-1.5 2.184-1.668 3.176-.112.662 1.602 1.714 2.45-1.512 1.994-7.596 3.616-16.82 7.238-23.76.31-.594-.59-1.122-.9-.526z"/><path fill="#ca1b1b" d="M58.825 58.79c-2.162 8.517-10.872 13.657-19.456 11.48-8.584-2.18-13.79-10.85-11.629-19.37 1.8-7.096 7.092-10.262 12.946-6.456 2.404 1.562 3.91 3.68 9.47 3.938 7.43.348 10.304 3.96 8.668 10.406"/></g></svg>