<svg xmlns="http://www.w3.org/2000/svg" xmlns:xlink="http://www.w3.org/1999/xlink" viewBox="0 0 96 96"><defs><linearGradient id="b" x1="50%" x2="50%" y1="0%" y2="100%"><stop offset="0%" stop-color="#99bae0"/><stop offset="100%" stop-color="#6085be"/></linearGradient><linearGradient id="c" x1="50%" x2="50%" y1="0%" y2="100%"><stop offset="0%" stop-color="#99bae0"/><stop offset="100%" stop-color="#6085be"/></linearGradient><linearGradient id="d" x1="50%" x2="50%" y1="0%" y2="100%"><stop offset="0%" stop-color="#cecaf7"/><stop offset="100%" stop-color="#a09aec"/></linearGradient><filter id="a" width="129.3%" height="139.9%" x="-14.6%" y="-20%" filterUnits="objectBoundingBox"><feOffset dy="2" in="SourceAlpha" result="shadowOffsetOuter1"/><feGaussianBlur in="shadowOffsetOuter1" result="shadowBlurOuter1" stdDeviation="2"/><feColorMatrix in="shadowBlurOuter1" result="shadowMatrixOuter1" values="0 0 0 0 0 0 0 0 0 0 0 0 0 0 0 0 0 0 0.2 0"/><feMerge><feMergeNode in="shadowMatrixOuter1"/><feMergeNode in="SourceGraphic"/></feMerge></filter></defs><g fill="none" filter="url(#a)" transform="translate(7 18)"><circle cx="44.5" cy="23.5" r="23.5" fill="url(#b)"/><path fill="#fff" d="M0 5h31v11H0zm0 13h31v11H0zm52 0h30v11H52zM0 31h31v11H0z"/><path fill="url(#c)" d="M30 32v9H1v-9zm0-13v9H1v-9zm51 0v9H53v-9zM30 6v9H1V6z"/><path fill="url(#d)" d="M39.446 57v-9.636h1.29c2.75 0 3.828 2.747 5.09 1.668 1.262-1.08 1.821-6.083 1.821-8.435q0-3.288-1.82-4.89-1.822-1.605-5.56-1.604H35.61V57zm0-13.053v-7.475h1.612c1.73 0 .943.314 1.641.942q1.048.944 1.048 3.15c0 1.58-.328 1.705-.983 2.376-.656.672.243 1.007-1.304 1.007zm15.6 15.696 1-7.483 1.284-.811-.865-2.317.865-.994v-3.87l3.22-10.065h-4.997l-1.27 9.837-2.994-9.837h-3.271l4.176 15.872v9.668z"/><path fill="#000" d="M47.369 33.603h4.29l2.426 7.967 1.028-7.967h6.122l-3.406 10.645v3.977l-.792.909.903 2.42-1.429.903-1.027 7.686h-3.79V50.04zm3.549 1h-2.252l4.012 15.244.016.128v9.167h1.914l.974-7.28 1.137-.72-.827-2.214.937-1.078v-3.682l.025-.152 3.01-9.413h-3.872l-1.51 11.706zm-10.65-1c2.603 0 4.57.568 5.889 1.728 1.332 1.173 1.99 2.94 1.99 5.266 0 3.436-.766 7.763-1.996 8.815a1.55 1.55 0 0 1-.548.312c-.433.134-.85.04-1.322-.226a5 5 0 0 1-.308-.191l-.813-.57c-.784-.538-1.431-.82-2.193-.866l-.232-.007h-.789V57.5H35.11V33.603zm0 1H36.11V56.5h2.836v-9.636h1.79c1.102 0 1.975.353 2.99 1.047l.97.66c.337.22.421.249.515.227l.096-.03a.6.6 0 0 0 .194-.116c.91-.778 1.646-4.939 1.646-8.055 0-2.058-.556-3.55-1.651-4.515-1.052-.926-2.667-1.425-4.858-1.475zm-1.322 1.369h2.112l.375.006c.864.032 1.182.198 1.366.692.067.18.093.235.177.318l.058.055c.819.737 1.213 1.92 1.213 3.521 0 1.089-.145 1.638-.558 2.138l-.128.144-.44.443c-.097.1-.125.148-.145.265l-.01.079c-.075.597-.41.792-1.327.812l-.179.002h-2.514zm2.279 1-1.279-.001v6.476h1.514q.289-.001.443-.014l.082-.009.008-.05a1.3 1.3 0 0 1 .311-.672l.102-.111.406-.408.046-.048c.295-.324.389-.633.389-1.57 0-1.343-.305-2.26-.882-2.779a1.5 1.5 0 0 1-.455-.642l-.046-.119-.014-.004c-.11-.026-.31-.044-.625-.048"/></g></svg>