<svg xmlns="http://www.w3.org/2000/svg" xmlns:xlink="http://www.w3.org/1999/xlink" viewBox="0 0 96 96"><defs><filter id="a" width="129.3%" height="129.3%" x="-14.6%" y="-14.6%" filterUnits="objectBoundingBox"><feOffset dy="2" in="SourceAlpha" result="shadowOffsetOuter1"/><feGaussianBlur in="shadowOffsetOuter1" result="shadowBlurOuter1" stdDeviation="2"/><feColorMatrix in="shadowBlurOuter1" result="shadowMatrixOuter1" values="0 0 0 0 0 0 0 0 0 0 0 0 0 0 0 0 0 0 0.2 0"/><feMerge><feMergeNode in="shadowMatrixOuter1"/><feMergeNode in="SourceGraphic"/></feMerge></filter></defs><g fill="none" fill-rule="evenodd" filter="url(#a)" transform="translate(7 7)"><path fill="#ffd804" fill-rule="nonzero" d="M41 0c22.644 0 41 18.356 41 41S63.644 82 41 82 0 63.644 0 41 18.356 0 41 0M27.68 65.635l-2.571 2.572a31.4 31.4 0 0 0 10.707 3.866l.245 6.609q1.698.221 3.44.289V68.96a27.8 27.8 0 0 1-11.821-3.326M42.5 68.96v10.01a37.8 37.8 0 0 0 19.231-6.118l-2.535-2.535a34.3 34.3 0 0 1-12.373 4.693l-.597.097-.164-6.563a28 28 0 0 1-3.561.416m-20.21-7.128-7.08 7.077a37.9 37.9 0 0 0 17.926 9.276v-3.588a34.3 34.3 0 0 1-12.067-5.43l-.49-.355 4.527-4.757a28 28 0 0 1-2.816-2.223M49 67.84l.001 3.635a31.4 31.4 0 0 0 10.305-4.837l4.844 4.499a38 38 0 0 0 2.64-2.228l-7.08-7.077A28 28 0 0 1 49 67.84m29.185-18.976h-3.588a34.3 34.3 0 0 1-5.43 12.067l-.355.49-4.757-4.527a28 28 0 0 1-2.223 2.816l7.077 7.08a37.9 37.9 0 0 0 9.276-17.926M14.16 49h-3.635a31.4 31.4 0 0 0 4.837 10.305l-4.499 4.844a38 38 0 0 0 2.228 2.64l7.077-7.08A28 28 0 0 1 14.16 49M41 16c-13.807 0-25 11.193-25 25s11.193 25 25 25 25-11.193 25-25-11.193-25-25-25M13.04 42.5H3.03a37.8 37.8 0 0 0 6.118 19.231l2.535-2.535A34.3 34.3 0 0 1 6.99 46.823l-.097-.597 6.563-.164a28 28 0 0 1-.416-3.561m65.93 0H68.96a27.8 27.8 0 0 1-3.325 11.82l2.572 2.571a31.4 31.4 0 0 0 3.866-10.707l6.609-.245q.221-1.697.289-3.438M13.794 25.11a31.4 31.4 0 0 0-3.866 10.707l-6.609.245a38 38 0 0 0-.289 3.44h10.01a27.8 27.8 0 0 1 3.326-11.821zm59.059-4.84-2.535 2.535a34.3 34.3 0 0 1 4.693 12.373l.097.597-6.563.164q.32 1.747.417 3.562h10.01a37.8 37.8 0 0 0-6.119-19.231M3.815 33.136h3.588a34.3 34.3 0 0 1 5.43-12.067l.355-.49 4.757 4.527a28 28 0 0 1 2.223-2.816l-7.077-7.08a37.9 37.9 0 0 0-9.276 17.926m65.094-17.925-7.077 7.08a28 28 0 0 1 6.008 10.708h3.635a31.4 31.4 0 0 0-4.837-10.305l4.499-4.844a38 38 0 0 0-2.228-2.64M48.864 3.815v3.588a34.3 34.3 0 0 1 12.067 5.43l.49.355-4.527 4.757a28 28 0 0 1 2.816 2.223l7.08-7.077a37.9 37.9 0 0 0-17.926-9.276m-15.865 6.71a31.4 31.4 0 0 0-10.305 4.837l-4.844-4.499a38 38 0 0 0-2.64 2.228l7.08 7.077A28 28 0 0 1 33 14.16zM42.5 3.029v10.01a27.8 27.8 0 0 1 11.82 3.326l2.57-2.572a31.4 31.4 0 0 0-10.707-3.866l-.245-6.609a38 38 0 0 0-3.438-.289M20.269 9.148l2.535 2.535A34.3 34.3 0 0 1 35.177 6.99l.597-.097.164 6.563a28 28 0 0 1 3.562-.417V3.03a37.8 37.8 0 0 0-19.23 6.118"/><path fill="#000060" d="m47.7 42 6.3 7h17a8 8 0 0 1 8 8v17a6 6 0 0 1-6 6H33a6 6 0 0 1-6-6V48a6 6 0 0 1 6-6z"/><path fill="#ededed" d="m63.25 55.204 9.9 9.9-9.193 9.192-4-4.001 5.193-5.191-5.9-5.9zm-20.1 0-9.9 9.9 9.193 9.192 4-4.001-5.193-5.191 5.9-5.9zM53.726 50.7l5.795 1.553L52.274 79.3l-5.795-1.552z"/></g></svg>