<svg xmlns="http://www.w3.org/2000/svg" xmlns:xlink="http://www.w3.org/1999/xlink" viewBox="0 0 96 96"><defs><radialGradient id="g" cx="47.84%" cy="40.528%" r="67.946%" fx="47.84%" fy="40.528%"><stop offset="0%" stop-color="#ffeddf"/><stop offset="100%" stop-color="#ff7612"/></radialGradient><radialGradient id="h" cx="47.84%" cy="75.181%" r="75.181%" fx="47.84%" fy="75.181%" gradientTransform="matrix(0 -1 .43153 0 .154 1.23)"><stop offset="0%" stop-color="#ff9e67"/><stop offset="100%" stop-color="#ff5a00"/></radialGradient><linearGradient id="a" x1="93.347%" x2="67.889%" y1="63.656%" y2="17.704%"><stop offset="0%" stop-color="#ff994f"/><stop offset="100%" stop-color="#ffe3cf"/></linearGradient><linearGradient id="b" x1="50%" x2="50%" y1="0%" y2="100%"><stop offset="0%" stop-color="#c07300"/><stop offset="100%" stop-color="#8c3f00"/></linearGradient><path id="e" fill="url(#a)" d="M18 32.346c10.703-.472 17.088-11.95 17-17 0-7.898-2.003-12.352-6.906-14.111-1.679-.603-3.998.032-6.094 1.111-3.64 1.874-5.829 6.84-7 7-8.552 1.166-14-2.258-14 6 0 9.389 7.611 17 17 17"/><path id="f" fill="url(#b)" d="m16.687 6.003-1.04 1.377-.299.38q-.208.255-.361.414l-.163.16q-.024.026.01.025l.03-.003c-1.718.234-3.11.29-5.39.262l-1.901-.03c-2.81-.03-3.871.106-5.054.75C.775 10.29 0 12.181 0 15.346c0 9.941 8.059 18 18 18 5.234-.23 9.831-2.9 13.32-7.149 2.803-3.414 4.612-7.615 4.679-10.577v-.291C36 6.932 33.727 2.193 28.433.294c-1.864-.67-4.321-.16-6.89 1.163-1.404.723-2.652 1.847-3.944 3.398l-.354.433c-.177.222-.359.455-.557.715M22 2.346c2.096-1.079 4.415-1.714 6.094-1.111 4.815 1.727 6.834 6.055 6.904 13.691l.002.42c.088 5.05-6.297 16.528-17 17-9.389 0-17-7.611-17-17 0-8.258 5.448-4.834 14-6 1.171-.16 3.36-5.126 7-7"/><filter id="d" width="128.2%" height="138.7%" x="-14.1%" y="-19.4%" filterUnits="objectBoundingBox"><feOffset dy="2" in="SourceAlpha" result="shadowOffsetOuter1"/><feGaussianBlur in="shadowOffsetOuter1" result="shadowBlurOuter1" stdDeviation="2"/><feColorMatrix in="shadowBlurOuter1" result="shadowMatrixOuter1" values="0 0 0 0 0 0 0 0 0 0 0 0 0 0 0 0 0 0 0.2 0"/><feMerge><feMergeNode in="shadowMatrixOuter1"/><feMergeNode in="SourceGraphic"/></feMerge></filter></defs><g fill="none" filter="url(#d)" transform="translate(6 17)"><use xlink:href="#e" transform="translate(49 19.654)"/><path fill="#fff" fill-opacity=".2" d="M70.771 21.555c-1.334.687-2.536 1.77-3.79 3.274l-.347.426q-.174.218-.36.458l-1.305 1.722c-.553.711-.906 1.052-1.037 1.07l-.642.081c-1.577.182-2.994.216-5.259.18l-1.439-.025c-2.726-.029-3.75.1-4.834.69C50.205 30.278 49.5 32 49.5 35c0 9.665 7.835 17.5 17.5 17.5 5.057-.223 9.529-2.82 12.933-6.966 2.736-3.332 4.5-7.428 4.566-10.263v-.28c0-8.217-2.178-12.758-7.236-14.573-1.633-.586-3.842-.166-6.185.983zm6.154-.196c4.502 1.616 6.502 5.642 6.573 13.217L83.5 35c.045 2.587-1.652 6.626-4.34 9.9-3.236 3.94-7.456 6.392-12.182 6.6-9.09 0-16.478-7.387-16.478-16.5 0-2.673.565-4.052 1.737-4.69.948-.517 1.973-.61 4.98-.56l.33.007c2.908.056 4.49.016 6.52-.261.478-.065.89-.436 1.547-1.263l.388-.501.678-.902.384-.503c.242-.313.461-.588.686-.858 1.175-1.41 2.285-2.41 3.479-3.024 2.234-1.15 4.313-1.582 5.696-1.086"/><use xlink:href="#f" transform="translate(49 19.654)"/><path fill="#a34800" d="M73.884 31.358c3.909-.469 5.698 1.106 4.988 4.505a.5.5 0 1 1-.979-.204c.558-2.671-.612-3.701-3.89-3.308-3.108.372-4.567 3.221-3.815 5.778.206.703.569 1.173.971 1.308.936.315 2.354-.078 3.002-.843.703-.83.374-1.92-1.45-3.183a.5.5 0 1 1 .57-.822c2.259 1.564 2.784 3.306 1.643 4.652-.914 1.077-2.76 1.59-4.083 1.144-.758-.255-1.323-.987-1.613-1.974-.912-3.106.877-6.6 4.656-7.053"/><use xlink:href="#e" transform="matrix(-1 0 0 1 36 19.654)"/><path fill="#fff" fill-opacity=".2" d="M14.229 21.555c1.334.687 2.536 1.77 3.79 3.274l.347.426q.174.218.36.458l1.305 1.722c.553.711.906 1.052 1.037 1.07l.642.081c1.577.182 2.994.216 5.259.18l1.439-.025c2.726-.029 3.75.1 4.834.69C34.795 30.278 35.5 32 35.5 35c0 9.665-7.835 17.5-17.5 17.5-5.057-.223-9.529-2.82-12.933-6.966C2.331 42.202.567 38.106.501 35.27v-.28c0-8.217 2.178-12.758 7.236-14.573 1.633-.586 3.842-.166 6.185.983zm-6.154-.196c-4.502 1.616-6.502 5.642-6.573 13.217L1.5 35c-.045 2.587 1.652 6.626 4.34 9.9 3.236 3.94 7.456 6.392 12.182 6.6 9.09 0 16.478-7.387 16.478-16.5 0-2.673-.565-4.052-1.737-4.69-.948-.517-1.973-.61-4.98-.56l-.33.007c-2.908.056-4.49.016-6.52-.261-.478-.065-.89-.436-1.547-1.263l-.388-.501-.678-.902-.384-.503a30 30 0 0 0-.686-.858c-1.175-1.41-2.285-2.41-3.479-3.024-2.234-1.15-4.313-1.582-5.696-1.086"/><use xlink:href="#f" transform="matrix(-1 0 0 1 36 19.654)"/><path fill="#a34800" d="M11.116 31.358c-3.909-.469-5.698 1.106-4.988 4.505a.5.5 0 1 0 .979-.204c-.558-2.671.612-3.701 3.89-3.308 3.108.372 4.567 3.221 3.815 5.778-.206.703-.569 1.173-.971 1.308-.936.315-2.354-.078-3.002-.843-.703-.83-.374-1.92 1.45-3.183a.5.5 0 1 0-.57-.822c-2.259 1.564-2.784 3.306-1.643 4.652.914 1.077 2.76 1.59 4.083 1.144.758-.255 1.323-.987 1.613-1.974.912-3.106-.877-6.6-4.656-7.053"/><circle cx="43" cy="33" r="28" fill="url(#g)"/><path fill="#8c3f00" d="M43 4C26.984 4 14 16.984 14 33s12.984 29 29 29 29-12.984 29-29S59.016 4 43 4m0 1c15.464 0 28 12.536 28 28S58.464 61 43 61 15 48.464 15 33 27.536 5 43 5"/><path fill="#fff" fill-opacity=".2" d="M43 5c15.464 0 28 12.536 28 28S58.464 61 43 61 15 48.464 15 33 27.536 5 43 5m0 1C28.088 6 16 18.088 16 33s12.088 27 27 27 27-12.088 27-27S57.912 6 43 6"/><path fill="url(#h)" d="M43 6c13.552 0 24.773 9.985 26.706 23h-.354C67.678 22.924 62.89 19 56.5 19c-6.042 0-10.652 3.509-12.551 9.027-.11.318-.198.973-1.118.973s-1.026-.649-1.159-.962C39.582 23.093 35.172 20 29.5 20c-5.775 0-10.762 3.205-13.094 8.307C18.627 15.633 29.69 6 43 6"/><ellipse cx="52" cy="39" fill="#000" rx="2" ry="4"/><ellipse cx="34" cy="39" fill="#000" rx="2" ry="4"/><circle cx="60.5" cy="46.5" r="2.5" fill="#975825"/><circle cx="25.5" cy="46.5" r="2.5" fill="#975825"/><path fill="#975825" d="M43 57c-7.067 0-13.183-4.073-16.129-10l1.126.001C30.859 52.356 36.504 56 43 56s12.141-3.644 15.003-8.999h1.126C56.183 52.927 50.067 57 42.999 57"/><path fill="#8c3f00" d="M45.5 1a.5.5 0 0 1 .5.5v3a.5.5 0 1 1-1 0v-3a.5.5 0 0 1 .5-.5m-2-1a.5.5 0 0 1 .5.5v4a.5.5 0 1 1-1 0v-4a.5.5 0 0 1 .5-.5m-2 2a.5.5 0 0 1 .5.5v2a.5.5 0 1 1-1 0v-2a.5.5 0 0 1 .5-.5"/></g></svg>