<svg xmlns="http://www.w3.org/2000/svg" xmlns:xlink="http://www.w3.org/1999/xlink" viewBox="0 0 96 96"><defs><linearGradient id="a" x1="45.061%" x2="50%" y1="-9.244%" y2="100%"><stop offset="0%" stop-color="#8c3100"/><stop offset="46.087%" stop-color="#f87f1a"/><stop offset="100%" stop-color="#e15800"/></linearGradient><linearGradient id="m" x1="76.244%" x2="15.061%" y1="37.176%" y2="72.778%"><stop offset="0%" stop-color="#f87f1a"/><stop offset="100%" stop-color="#d25100"/></linearGradient><linearGradient id="o" x1="0%" x2="84.057%" y1="61.617%" y2="34.068%"><stop offset="0%" stop-color="#8c3100"/><stop offset="100%" stop-color="#f87f1a"/></linearGradient><linearGradient id="b" x1="45.061%" x2="50%" y1="-9.244%" y2="100%"><stop offset="0%" stop-color="#8c3100"/><stop offset="46.087%" stop-color="#f87f1a"/><stop offset="100%" stop-color="#e15800"/></linearGradient><linearGradient id="r" x1="76.244%" x2="15.061%" y1="37.176%" y2="72.778%"><stop offset="0%" stop-color="#f87f1a"/><stop offset="100%" stop-color="#d25100"/></linearGradient><linearGradient id="s" x1="0%" x2="84.057%" y1="61.617%" y2="34.068%"><stop offset="0%" stop-color="#8c3100"/><stop offset="100%" stop-color="#f87f1a"/></linearGradient><linearGradient id="c" x1="45.061%" x2="50%" y1="-9.244%" y2="100%"><stop offset="0%" stop-color="#8c3100"/><stop offset="46.087%" stop-color="#f87f1a"/><stop offset="100%" stop-color="#e15800"/></linearGradient><linearGradient id="u" x1="76.244%" x2="15.061%" y1="37.176%" y2="72.778%"><stop offset="0%" stop-color="#f87f1a"/><stop offset="100%" stop-color="#d25100"/></linearGradient><linearGradient id="v" x1="0%" x2="84.057%" y1="61.617%" y2="34.068%"><stop offset="0%" stop-color="#8c3100"/><stop offset="100%" stop-color="#f87f1a"/></linearGradient><linearGradient id="d" x1="45.061%" x2="50%" y1="-9.244%" y2="100%"><stop offset="0%" stop-color="#8c3100"/><stop offset="46.087%" stop-color="#f87f1a"/><stop offset="100%" stop-color="#e15800"/></linearGradient><linearGradient id="x" x1="76.244%" x2="15.061%" y1="37.176%" y2="72.778%"><stop offset="0%" stop-color="#f87f1a"/><stop offset="100%" stop-color="#d25100"/></linearGradient><linearGradient id="y" x1="0%" x2="84.057%" y1="61.617%" y2="34.068%"><stop offset="0%" stop-color="#8c3100"/><stop offset="100%" stop-color="#f87f1a"/></linearGradient><linearGradient id="f" x1="45.061%" x2="50%" y1="-9.244%" y2="100%"><stop offset="0%" stop-color="#8c3100"/><stop offset="46.087%" stop-color="#f87f1a"/><stop offset="100%" stop-color="#e15800"/></linearGradient><linearGradient id="A" x1="76.244%" x2="15.061%" y1="37.176%" y2="72.778%"><stop offset="0%" stop-color="#f87f1a"/><stop offset="100%" stop-color="#d25100"/></linearGradient><linearGradient id="B" x1="0%" x2="84.057%" y1="61.617%" y2="34.068%"><stop offset="0%" stop-color="#8c3100"/><stop offset="100%" stop-color="#f87f1a"/></linearGradient><path id="i" d="M12 0h54c6.627 0 12 5.373 12 12v54c0 6.627-5.373 12-12 12H12C5.373 78 0 72.627 0 66V12C0 5.373 5.373 0 12 0"/><path id="C" d="M10.17 72.654c1.88 0 2.991-1.133 2.991-2.464 0-1.177-.649-1.804-1.639-2.211l-1.067-.451c-.693-.275-1.265-.484-1.265-1.067 0-.539.451-.858 1.166-.858.671 0 1.21.242 1.727.671l.825-1.023c-.66-.671-1.606-1.045-2.552-1.045-1.65 0-2.816 1.023-2.816 2.354 0 1.188.825 1.848 1.65 2.189l1.09.462c.725.308 1.22.495 1.22 1.1 0 .572-.45.935-1.298.935-.715 0-1.485-.363-2.068-.902L7.2 71.466a4.34 4.34 0 0 0 2.97 1.188m5.734-.154v-4.235c.451-.451.77-.693 1.276-.693.605 0 .869.33.869 1.287V72.5h1.617v-3.839c0-1.551-.572-2.475-1.903-2.475-.836 0-1.441.44-1.936.902l.077-1.155v-2.211h-1.617V72.5zm6.758.154c.704 0 1.32-.352 1.859-.814h.044l.11.66h1.32v-3.597c0-1.782-.803-2.717-2.365-2.717-.968 0-1.848.363-2.574.814l.583 1.067c.572-.33 1.122-.583 1.694-.583.759 0 1.023.462 1.056 1.067-2.486.264-3.553.957-3.553 2.277 0 1.045.726 1.826 1.826 1.826m.528-1.265c-.473 0-.814-.209-.814-.693 0-.55.506-.968 2.013-1.155v1.243c-.396.385-.737.605-1.2.605m5.888 1.111v-3.674c.341-.891.924-1.21 1.408-1.21.253 0 .43.033.65.099l.274-1.397a1.7 1.7 0 0 0-.726-.132c-.638 0-1.298.44-1.749 1.243h-.033l-.12-1.089h-1.32v6.16zm5.548.154c.759 0 1.54-.264 2.145-.682l-.55-.99c-.44.275-.88.429-1.386.429-.913 0-1.573-.528-1.705-1.54h3.795c.044-.143.077-.44.077-.748 0-1.694-.88-2.937-2.574-2.937-1.463 0-2.871 1.243-2.871 3.234 0 2.035 1.342 3.234 3.069 3.234m.99-3.861h-2.508c.121-.891.693-1.353 1.342-1.353.792 0 1.166.528 1.166 1.353m4.7 3.861c.639 0 1.255-.352 1.706-.792h.044l.12.638h1.31v-8.778H41.89v2.167l.055.968c-.44-.407-.87-.671-1.562-.671-1.331 0-2.585 1.232-2.585 3.234 0 2.024.99 3.234 2.519 3.234m.419-1.331c-.814 0-1.276-.638-1.276-1.914 0-1.232.583-1.892 1.276-1.892.385 0 .78.121 1.155.462v2.706c-.363.462-.726.638-1.155.638m5.932 1.177v-4.235q.647-.693 1.177-.693c.583 0 .87.33.87 1.287V72.5h1.605v-4.235q.66-.693 1.188-.693c.583 0 .858.33.858 1.287V72.5h1.617v-3.839c0-1.551-.605-2.475-1.914-2.475-.803 0-1.397.484-1.958 1.078-.297-.682-.814-1.078-1.694-1.078-.803 0-1.375.44-1.892.979h-.033l-.12-.825h-1.32v6.16zm9.618-7.15c.55 0 .935-.352.935-.891 0-.528-.385-.88-.935-.88-.561 0-.946.352-.946.88 0 .539.385.891.946.891m.803 7.15v-6.16h-1.617v6.16zm3.16 0v-4.235c.452-.451.77-.693 1.277-.693.605 0 .869.33.869 1.287V72.5h1.617v-3.839c0-1.551-.572-2.475-1.903-2.475-.836 0-1.463.44-2.002.968h-.033l-.121-.814h-1.32v6.16zm7.418.154c.638 0 1.254-.352 1.705-.792h.044l.121.638h1.31v-8.778H69.24v2.167l.055.968c-.44-.407-.869-.671-1.562-.671-1.33 0-2.585 1.232-2.585 3.234 0 2.024.99 3.234 2.52 3.234m.418-1.331c-.814 0-1.276-.638-1.276-1.914 0-1.232.583-1.892 1.276-1.892.385 0 .781.121 1.155.462v2.706c-.363.462-.726.638-1.155.638"/><path id="l" fill="url(#a)" d="M10.921 0c1.475 0 6.146 3.275 6.74 12.097q.594 8.823 0 10.661h-3.243L7.55 18.445q-.853-9.647.225-13.226C8.855 1.64 9.446 0 10.921 0"/><path id="p" fill="url(#b)" d="M6.639 0c.896 0 3.736 1.99 4.096 7.354q.362 5.363 0 6.48H8.764L4.59 11.212q-.519-5.865.137-8.04C5.383.997 5.742 0 6.639 0"/><path id="t" fill="url(#c)" d="M6.275 0c.848 0 3.532 1.882 3.873 6.951q.34 5.07 0 6.126H8.284L4.34 10.598q-.49-5.542.13-7.6C5.087.943 5.427 0 6.274 0"/><path id="w" fill="url(#d)" d="M5.3 0c.715 0 2.982 1.59 3.27 5.87q.288 4.282 0 5.173H6.996L3.664 8.95q-.414-4.68.11-6.418C4.296.796 4.583 0 5.3 0"/><path id="z" fill="url(#f)" d="M4.009 0c.541 0 2.256 1.202 2.474 4.44q.217 3.24 0 3.913h-1.19L2.771 6.77q-.314-3.54.082-4.854C3.25.602 3.467 0 4.01 0"/><filter id="g" width="130.8%" height="130.8%" x="-15.4%" y="-15.4%" filterUnits="objectBoundingBox"><feOffset dy="2" in="SourceAlpha" result="shadowOffsetOuter1"/><feGaussianBlur in="shadowOffsetOuter1" result="shadowBlurOuter1" stdDeviation="2"/><feColorMatrix in="shadowBlurOuter1" result="shadowMatrixOuter1" values="0 0 0 0 0 0 0 0 0 0 0 0 0 0 0 0 0 0 0.2 0"/><feMerge><feMergeNode in="shadowMatrixOuter1"/><feMergeNode in="SourceGraphic"/></feMerge></filter></defs><g fill="none" fill-rule="evenodd" filter="url(#g)" transform="translate(9 9)"><mask id="j" fill="#fff"><use xlink:href="#i"/></mask><use xlink:href="#i" fill="#fff"/><g mask="url(#j)"><use xlink:href="#l" transform="translate(34.413 2.09)"/><path fill="#000" fill-opacity=".414" fill-rule="nonzero" d="M45.334 2.09c.205 0 .47.063.778.194l.21.098c1.952.975 5.259 4.476 5.752 11.805l.055.845.05.81.063 1.154.05 1.08.039 1.004.025.93.01.578.004.805-.004.495-.01.462-.015.428-.021.396-.027.362-.033.329-.018.152-.041.279-.023.127-.05.23q-.025.105-.054.195H48.83l-6.867-4.313-.086-1.025-.076-.99-.033-.482-.059-.936-.047-.901-.035-.866-.025-.83-.013-.795-.002-.759.01-.724.008-.348.027-.67q.12-2.45.556-3.9l.275-.902.174-.552.168-.513.163-.473.16-.435.16-.397c.56-1.321 1.134-1.947 2.045-1.947m0 .921c-.262 0-.492.125-.738.49l-.1.16-.051.09-.104.2-.053.112-.11.246-.114.278-.12.312-.126.348-.202.592-.22.68-.325 1.056q-.293.972-.434 2.466l-.046.56q-.021.288-.036.593l-.026.628q-.01.323-.015.662l-.006.696.005.73.016.763.025.797.036.831.022.428.052.881.062.915.073.947.043.527 6.254 3.928h2.231l.013-.097.033-.313.014-.172.024-.372.019-.412.016-.69.004-.507-.003-.547-.008-.584-.024-.948-.037-1.032-.052-1.116-.065-1.2-.08-1.282-.026-.406c-.256-3.796-1.302-6.771-2.86-8.87-1.1-1.483-2.403-2.368-2.96-2.368"/><path fill="url(#m)" d="M2.003 17.995c1.378-.584 4.73-.876 6.799-.584q2.07.292 8.859 5.347-2.216 3.42-6.188 5.522c-3.973 2.102-7.118 2.884-9.47 1.442C-.347 28.28.021 23.584.021 22.059s.605-3.48 1.982-4.064" transform="translate(34.413 2.09)"/><path fill="#000" fill-opacity=".414" fill-rule="nonzero" d="M43.215 19.501q.53.075 1.371.463l.35.168q.18.09.373.193l.398.218.209.118.436.255.227.137.473.293.497.318.523.343.83.562.887.618.622.443.979.712.684.506q-2.216 3.42-6.188 5.522l-.637.33c-3.673 1.85-6.609 2.476-8.833 1.112-1.436-.881-1.857-2.977-1.968-4.823l-.023-.496-.006-.24-.006-.466.005-.64.015-.863.001-.135c0-1.525.605-3.48 1.982-4.064s4.73-.876 6.799-.584m-.129.912c-1.91-.269-5.097.006-6.31.52-.782.332-1.366 1.621-1.417 3.016l-.024 1.544c-.006.925.023 1.612.115 2.344.203 1.622.685 2.722 1.448 3.19 1.85 1.135 4.523.664 8.557-1.47 2.095-1.109 3.793-2.498 5.105-4.171l.249-.328-.913-.663-.64-.456-.908-.632-.57-.388-.544-.36-.515-.332-.486-.305-.457-.278-.429-.25-.4-.221-.188-.1-.356-.18q-.766-.375-1.227-.464z"/><use xlink:href="#l" transform="rotate(75 15.918 68.629)scale(-1 1)"/><path fill="#000" fill-opacity=".414" fill-rule="nonzero" d="M75.262 24.942c-.053-.197-.183-.437-.39-.7l-.149-.179c-1.446-1.632-5.683-3.92-12.89-2.5l-.83.165-.797.163-1.13.237-1.056.23-.98.223-.905.216-.561.14-.779.205-.477.132-.443.129-.41.126-.377.123-.343.12-.309.116-.142.057-.259.112-.117.054-.208.107q-.096.054-.175.104l.84 3.133 5.943 5.516 1.012-.181.976-.184q.24-.045.474-.092l.92-.186.882-.188.845-.19.808-.19.771-.194.734-.194.697-.197.334-.098.641-.2q2.334-.749 3.622-1.546l.8-.5.489-.31.452-.295.415-.28.378-.268.342-.257c1.132-.883 1.587-1.599 1.352-2.479m-.89.238c.068.254.007.508-.283.841l-.128.138-.073.072-.167.152-.094.08-.21.17-.239.183-.27.196-.303.212-.52.348-.6.388-.935.587q-.864.536-2.27 1.058l-.529.19q-.273.094-.564.188l-.6.187q-.31.094-.635.187l-.671.185-.706.184-.742.183-.776.181-.812.18-.419.09-.864.178-.9.177-.934.175-.52.095-5.413-5.024-.577-2.156.09-.038.294-.112.162-.059.354-.12.392-.123.662-.195.49-.135.528-.139.567-.143.922-.222 1.006-.231 1.092-.24 1.175-.247 1.26-.255.398-.08c3.733-.735 6.878-.494 9.308.467 1.718.68 2.91 1.709 3.054 2.247"/><path fill="url(#o)" d="M2.003 17.995c1.378-.584 4.73-.876 6.799-.584q2.07.292 8.859 5.347-2.216 3.42-6.188 5.522c-3.973 2.102-7.118 2.884-9.47 1.442C-.347 28.28.021 23.584.021 22.059s.605-3.48 1.982-4.064" transform="rotate(75 15.918 68.629)scale(-1 1)"/><path fill="#000" fill-opacity=".414" fill-rule="nonzero" d="M58.992 31.496q-.21-.494-.802-1.205l-.252-.294q-.135-.15-.283-.31l-.314-.33-.168-.17-.36-.355-.19-.184-.406-.38-.436-.4-.467-.415-.757-.657-.826-.696-.59-.486-.94-.762-.666-.53q-2.73 3.026-3.733 7.407l-.153.7c-.837 4.027-.681 7.024 1.212 8.82 1.222 1.16 3.356 1.024 5.167.652l.485-.106q.12-.027.235-.056l.45-.115.619-.17.829-.238.13-.036c1.472-.394 3.205-1.485 3.412-2.966s-.378-4.795-1.196-6.718m-.847.36c.754 1.775 1.313 4.925 1.13 6.23-.117.841-1.212 1.739-2.546 2.15l-1.485.422c-.891.245-1.562.395-2.294.496-1.619.223-2.806.042-3.456-.574-1.575-1.493-1.812-4.197-.794-8.646.528-2.31 1.43-4.31 2.707-6.01l.252-.325.877.71.606.5.846.713.522.451.488.432.455.41.42.392.386.37.353.35.317.328.146.156.266.297q.56.643.765 1.065z"/><use xlink:href="#p" transform="rotate(17 -76.314 135.542)"/><path fill="#000" fill-opacity=".414" fill-rule="nonzero" d="M42.643 30.175c.118.037.262.12.417.252l.105.094c.961.914 2.261 3.536 1.245 7.885l-.118.5-.115.48-.168.682-.162.637-.157.59-.15.545-.097.338-.14.469-.091.287-.088.267-.085.246-.083.226-.08.206-.077.185-.038.085-.073.155-.036.07-.07.124-.066.105-1.886-.577-3.224-3.727.131-.612.132-.588.067-.286.132-.555.133-.532.133-.51.133-.487.134-.464.134-.442.134-.419q.033-.102.067-.2l.134-.386q.506-1.402 1.017-2.168l.32-.475.2-.29.188-.268.179-.246.17-.225.164-.202c.56-.669 1.005-.93 1.535-.769m-.164.536c-.153-.047-.308-.015-.517.154l-.086.075-.046.043-.096.098-.05.055-.108.124-.116.141-.125.16-.135.18-.222.308-.25.357-.376.556q-.343.513-.69 1.356l-.127.317q-.063.164-.126.339l-.127.36q-.063.187-.126.382l-.127.404-.127.425-.127.446-.126.468-.127.49-.063.252-.127.522-.126.542-.127.564-.068.314 2.937 3.395 1.297.396.025-.054.075-.176.039-.097.08-.212.084-.236.132-.398.092-.295.096-.318.099-.341.155-.555.161-.607.169-.658.175-.709.182-.76.056-.24c.526-2.252.447-4.167-.086-5.664-.376-1.058-.976-1.804-1.3-1.903"/><path fill="url(#r)" d="M1.218 10.939c.837-.355 2.874-.533 4.132-.355q1.258.177 5.385 3.25-1.345 2.079-3.76 3.357c-2.416 1.277-4.328 1.752-5.757.876-1.43-.876-1.205-3.731-1.205-4.658s.367-2.116 1.205-2.47" transform="rotate(17 -76.314 135.542)"/><path fill="#000" fill-opacity=".414" fill-rule="nonzero" d="M38.316 39.92q.295.138.715.513l.173.16q.09.084.183.178l.193.197.1.106.208.226.108.12.223.254.232.274.243.292.383.474.406.517.282.368.443.588.308.416q-1.896 1.594-4.579 2.11l-.428.078c-2.465.423-4.282.265-5.333-.923-.678-.767-.55-2.06-.287-3.153l.075-.293.04-.141.079-.271.116-.372.163-.499.024-.078c.27-.886.97-1.915 1.875-2.01.904-.094 2.904.332 4.055.87m-.237.507c-1.062-.496-2.964-.902-3.76-.819-.514.054-1.082.7-1.36 1.501l-.288.894c-.168.536-.273.94-.35 1.383-.17.978-.086 1.704.275 2.111.874.989 2.511 1.19 5.236.666q2.12-.407 3.708-1.517l.203-.146-.413-.548-.29-.378-.416-.53-.263-.326-.252-.306-.24-.285-.228-.264-.217-.242-.205-.221-.193-.2-.092-.092-.174-.168q-.38-.354-.63-.488z"/><use xlink:href="#p" transform="rotate(92 1.117 54.623)scale(-1 1)"/><path fill="#000" fill-opacity=".414" fill-rule="nonzero" d="M55.978 48.778a1.3 1.3 0 0 0-.102-.476l-.055-.13c-.55-1.206-2.607-3.29-7.05-3.745l-.511-.05-.492-.048-.7-.063-.654-.054-.61-.045-.563-.035-.351-.018-.49-.02-.3-.008-.281-.003h-.26l-.241.005-.22.008-.201.013-.093.008-.17.019-.078.01-.14.026q-.066.014-.12.03l-.07 1.97 2.475 4.262.621.075.6.066.292.031.567.055.547.048.525.04.504.033.482.025.461.017.44.01.212.001.408-.001q1.49-.022 2.38-.256l.554-.148.34-.094.314-.09.291-.09.268-.088.244-.089c.815-.312 1.207-.647 1.227-1.2m-.56-.02c-.005.16-.086.297-.313.44l-.1.056-.055.03-.124.058-.069.03-.152.062-.171.063-.192.066-.214.07-.364.11-.418.119-.648.175q-.597.157-1.508.211l-.34.016q-.177.007-.362.01l-.382.002q-.195 0-.403-.005l-.422-.011-.444-.019-.463-.025-.484-.033-.504-.04-.26-.022-.533-.05-.554-.057-.575-.064-.319-.037-2.253-3.883.047-1.356.06-.005.19-.014.105-.005.227-.007.25-.002.42.005.308.008.332.013.355.018.575.034.626.045.677.055.727.065.778.075.246.025c2.3.236 4.085.935 5.327 1.926.878.7 1.388 1.51 1.376 1.849"/><path fill="url(#s)" d="M1.218 10.939c.837-.355 2.874-.533 4.132-.355q1.258.177 5.385 3.25-1.345 2.079-3.76 3.357c-2.416 1.277-4.328 1.752-5.757.876-1.43-.876-1.205-3.731-1.205-4.658s.367-2.116 1.205-2.47" transform="rotate(92 1.117 54.623)scale(-1 1)"/><path fill="#000" fill-opacity=".414" fill-rule="nonzero" d="M45.355 49.697q-.033-.324-.252-.844l-.094-.215-.11-.231-.123-.247-.068-.129-.145-.27-.079-.14-.168-.294-.183-.31-.197-.324-.323-.517-.357-.551-.256-.387-.412-.61-.293-.427q-2.124 1.273-3.486 3.642l-.213.38c-1.202 2.193-1.645 3.962-.863 5.342.504.892 1.769 1.192 2.888 1.298l.3.025.147.009.282.013.39.011.524.009.082.002c.926.033 2.127-.293 2.51-1.118.384-.824.633-2.854.5-4.117m-.556.058c.123 1.166-.112 3.097-.45 3.823-.218.468-1.014.795-1.862.797l-.939-.019a10 10 0 0 1-1.421-.119c-.98-.158-1.64-.474-1.907-.947-.65-1.149-.307-2.763 1.075-5.168q1.075-1.872 2.642-3.012l.204-.145.383.569.264.398.365.565.223.355.207.338.191.32.175.302.159.283.143.266.126.247.057.117.102.22q.21.473.255.755z"/><use xlink:href="#t" transform="rotate(-17 99.04 -16.529)"/><path fill="#000" fill-opacity=".414" fill-rule="nonzero" d="M15.161 26.4q.172-.054.46-.024l.132.018c1.236.208 3.642 1.576 5.144 5.52l.172.456.163.437.23.623.208.585.19.545.17.507.103.316.137.441.081.273.072.256.064.238.055.22.046.204.037.186.016.087.024.16.009.074.011.134.003.117-1.782.545-4.498-1.217-.22-.549-.207-.53-.1-.26-.19-.505-.176-.487-.165-.47-.153-.452-.141-.434-.129-.417-.116-.4-.054-.192-.098-.373q-.346-1.365-.349-2.236v-.542l.002-.332.006-.31.01-.288.016-.266.02-.245c.086-.82.297-1.26.797-1.413m.155.506c-.144.044-.25.151-.324.394l-.028.104-.012.058-.024.127-.01.07-.02.154-.015.172-.014.192-.01.212-.012.36-.007.41v.635q.001.584.175 1.428l.069.315q.036.162.08.332l.09.35q.049.18.104.366l.114.383.125.4.137.417.148.434.159.45.084.232.176.475.188.492.2.51.111.281 4.097 1.108 1.226-.375-.01-.055-.034-.178-.02-.097-.05-.208-.06-.23-.106-.381-.083-.28-.094-.3-.102-.32-.173-.516-.194-.561-.215-.605-.238-.648-.259-.691-.083-.219c-.778-2.043-1.853-3.502-3.061-4.393-.854-.63-1.719-.898-2.025-.804"/><path fill="url(#u)" d="M1.151 10.34c.792-.336 2.717-.503 3.906-.336q1.19.168 5.09 3.073-1.272 1.965-3.555 3.173c-2.282 1.207-4.09 1.656-5.44.828C-.2 16.25.011 13.551.011 12.675s.348-2 1.14-2.335" transform="rotate(-17 99.04 -16.529)"/><path fill="#000" fill-opacity=".414" fill-rule="nonzero" d="M16.922 36.323q.304-.048.831.024l.22.034q.114.019.238.043l.255.052.135.03.282.068.148.037.309.081.327.091.345.101.55.17.591.19.416.14.658.226.46.163q-.641 2.25-2.472 4.074l-.294.288c-1.708 1.634-3.216 2.47-4.667 2.095-.937-.243-1.52-1.324-1.891-2.32l-.096-.268-.045-.132-.08-.254-.106-.353-.136-.477-.022-.074c-.257-.838-.253-2.014.406-2.566s2.451-1.276 3.638-1.463m.082.523c-1.094.173-2.8.86-3.38 1.346-.374.313-.478 1.12-.272 1.895l.246.852c.152.51.284.882.457 1.269.385.857.834 1.38 1.332 1.51 1.207.312 2.597-.396 4.455-2.246q1.447-1.44 2.104-3.15l.082-.221-.613-.211-.428-.143-.605-.195-.38-.117-.358-.107-.339-.096-.318-.086-.298-.076-.278-.065-.256-.055-.121-.023-.226-.04q-.483-.076-.752-.048z"/><use xlink:href="#t" transform="rotate(-122 30.264 8.88)scale(1 -1)"/><path fill="#000" fill-opacity=".414" fill-rule="nonzero" d="M35.445 33.93a1.2 1.2 0 0 0-.331-.32l-.112-.073c-1.07-.654-3.782-1.2-7.504.792l-.428.23-.41.223-.582.32-.54.304-.502.287-.46.27-.285.172-.394.243-.24.153-.222.145-.204.138-.186.131-.169.123-.15.116-.068.056-.124.105-.055.05-.097.093q-.043.045-.078.087l.987 1.58 4.193 2.033.526-.27.505-.265.245-.13.474-.257.453-.252.433-.246.412-.24.391-.236.37-.23.35-.225.168-.11.318-.218q1.157-.804 1.73-1.458l.357-.41.216-.252.199-.237.18-.224.164-.21.144-.2c.474-.675.604-1.145.326-1.589m-.448.28c.08.127.088.277-.014.509l-.048.097-.028.052-.066.112-.038.06-.087.128-.1.14-.116.154-.131.167-.227.279-.265.314-.415.48q-.385.44-1.07.962l-.258.193q-.135.098-.279.199l-.298.203q-.154.104-.318.21l-.337.214-.357.22-.377.225-.396.23-.416.235-.215.12-.445.243-.465.248-.484.253-.27.14-3.818-1.852-.68-1.087.044-.036.143-.111q.038-.03.08-.06l.173-.125.195-.134.331-.218.247-.156.267-.166.287-.173.469-.277.514-.296.56-.315.604-.334.65-.351.205-.11c1.928-1.032 3.696-1.428 5.193-1.308 1.058.085 1.886.45 2.056.722"/><path fill="url(#v)" d="M1.151 10.34c.792-.336 2.717-.503 3.906-.336q1.19.168 5.09 3.073-1.272 1.965-3.555 3.173c-2.282 1.207-4.09 1.656-5.44.828C-.2 16.25.011 13.551.011 12.675s.348-2 1.14-2.335" transform="rotate(-122 30.264 8.88)scale(1 -1)"/><path fill="#000" fill-opacity=".414" fill-rule="nonzero" d="M27.607 40.263q-.198-.236-.644-.527l-.188-.119-.207-.123-.228-.128-.12-.066-.258-.134-.136-.07-.287-.14-.306-.146-.327-.15-.526-.234-.571-.244-.405-.168-.646-.26-.454-.18q-.992 2.121-.807 4.697l.033.41c.217 2.354.806 3.975 2.148 4.644.867.432 2.016-.002 2.95-.51l.248-.14.12-.07.228-.139.31-.197.416-.27.065-.042c.743-.464 1.512-1.354 1.377-2.203s-1.013-2.57-1.785-3.49m-.406.34c.713.85 1.55 2.486 1.668 3.234.077.482-.374 1.16-1.038 1.609l-.745.482a10 10 0 0 1-1.177.657c-.852.395-1.535.495-1.995.266-1.117-.556-1.7-2.002-1.89-4.618q-.145-2.035.479-3.757l.084-.221.6.243.417.173.585.25.363.16.34.155.32.15.296.144.275.138.252.133.23.127.106.061.196.119q.416.26.6.456z"/><use xlink:href="#w" transform="rotate(23 -91.439 77.242)"/><path fill="#000" fill-opacity=".414" fill-rule="nonzero" d="M27.79 43.94a1 1 0 0 1 .31.233l.076.084c.687.805 1.5 2.996.33 6.363l-.134.388-.132.372-.19.527-.182.492-.174.456-.165.42-.105.26-.15.36-.096.22-.092.205-.089.188-.084.173-.08.157-.078.14-.037.065-.07.117-.035.052-.066.093-.061.077-1.449-.615-2.25-3.228.156-.475.155-.456.076-.221.151-.43.15-.411.148-.394.147-.375.145-.357.143-.34.141-.321.07-.154.139-.295q.517-1.071.988-1.636l.294-.35.182-.214.172-.198.163-.18.154-.164.147-.147c.5-.484.875-.655 1.282-.482m-.174.41c-.118-.05-.244-.037-.423.08l-.075.052-.04.03-.084.07-.045.04-.096.089-.104.103-.112.116-.123.132-.202.226-.227.262-.345.41a6.3 6.3 0 0 0-.662 1.02l-.127.24-.128.259-.13.275q-.067.143-.133.293l-.135.31-.136.327-.138.344-.14.36-.14.378-.072.196-.144.403-.146.42-.147.438-.08.243 2.048 2.94.997.423.024-.04.074-.134.039-.074.081-.162.087-.18.138-.305.098-.227.102-.244.107-.263.17-.427.178-.469.189-.508.198-.548.208-.588.065-.186c.605-1.744.702-3.272.404-4.504-.21-.872-.624-1.514-.873-1.62"/><path fill="url(#x)" d="M.972 8.732c.669-.283 2.295-.425 3.299-.283q1.004.141 4.299 2.594-1.075 1.66-3.003 2.68c-1.927 1.02-3.454 1.399-4.595.7s-.962-2.98-.962-3.72.294-1.689.962-1.972" transform="rotate(23 -91.439 77.242)"/><path fill="#000" fill-opacity=".414" fill-rule="nonzero" d="M23.542 51.314q.224.135.525.467l.124.141q.064.075.13.157l.137.173.071.092.146.197.076.104.155.22.162.237.169.253.264.408.279.444.194.316.302.504.21.355q-1.639 1.108-3.811 1.294l-.347.026c-1.992.13-3.422-.147-4.156-1.178-.475-.666-.266-1.682.035-2.527l.084-.226.043-.109.085-.209.124-.285.17-.383.026-.06c.29-.68.93-1.44 1.656-1.439s2.278.506 3.147 1.028m-.23.383c-.802-.482-2.278-.964-2.917-.964-.412 0-.918.465-1.205 1.079l-.303.685a8 8 0 0 0-.394 1.068c-.216.763-.21 1.346.043 1.7.611.857 1.894 1.154 4.1.965q1.718-.146 3.072-.895l.173-.099-.282-.469-.2-.325-.285-.455-.182-.281-.174-.264-.167-.246-.16-.228-.151-.21-.144-.194-.137-.175-.065-.08-.124-.148a2.6 2.6 0 0 0-.46-.44z"/><use xlink:href="#w" transform="rotate(-82 55.47 11.778)scale(1 -1)"/><path fill="#000" fill-opacity=".414" fill-rule="nonzero" d="M36.825 59.821a1 1 0 0 0-.041-.386l-.033-.108c-.337-1.004-1.795-2.83-5.284-3.561l-.402-.084-.386-.078-.55-.109-.516-.097-.48-.086-.445-.075-.277-.044-.386-.056-.239-.032-.222-.026-.207-.022-.192-.016-.175-.012-.16-.006-.075-.002-.137.001-.062.002-.114.009-.098.013-.219 1.558 1.61 3.591.486.11.47.104.23.049.446.09.43.084.413.076.397.068.381.06.365.052.348.044.169.02.324.032q1.185.108 1.91-.004l.453-.071.277-.046.257-.046.239-.047.22-.048.201-.05c.673-.18 1.012-.413 1.074-.85m-.443-.062c-.017.126-.093.228-.285.322l-.084.037-.046.019-.104.036-.057.018-.125.036-.142.036-.158.037-.175.037-.298.057-.342.06-.53.084a6.3 6.3 0 0 1-1.214.042l-.272-.015q-.14-.01-.288-.023l-.303-.03-.32-.037-.334-.045-.35-.051-.366-.06-.381-.066-.397-.073-.204-.04-.42-.084-.435-.091-.45-.1-.25-.055-1.466-3.27.15-1.073h.048l.153.006q.04 0 .083.004l.18.014.2.019.332.038.245.033.262.038.28.044.454.075.493.088.533.1.572.112.611.125.193.04c1.807.38 3.166 1.083 4.07 1.973.638.63.975 1.315.937 1.583"/><path fill="url(#y)" d="M.972 8.732c.669-.283 2.295-.425 3.299-.283q1.004.141 4.299 2.594-1.075 1.66-3.003 2.68c-1.927 1.02-3.454 1.399-4.595.7s-.962-2.98-.962-3.72.294-1.689.962-1.972" transform="rotate(-82 55.47 11.778)scale(1 -1)"/><path fill="#000" fill-opacity=".414" fill-rule="nonzero" d="M28.315 59.664q0-.26-.13-.69l-.057-.18-.067-.192-.078-.206-.042-.108-.094-.227-.05-.118-.11-.247-.118-.261-.13-.274-.214-.437-.237-.468-.17-.329-.277-.518-.197-.363q-1.793.833-3.071 2.6l-.201.284c-1.138 1.64-1.636 3.009-1.131 4.17.326.75 1.305 1.093 2.184 1.27l.237.045.115.02.223.034.309.04.415.052.065.008c.733.103 1.713-.055 2.087-.678.373-.622.74-2.213.74-3.227m-.447 0c0 .936-.347 2.45-.676 2.997-.212.354-.87.547-1.545.478l-.743-.093a8 8 0 0 1-1.119-.214c-.765-.207-1.261-.513-1.435-.911-.42-.966-.013-2.218 1.285-4.013q1.01-1.396 2.349-2.171l.174-.097.257.483.176.338.242.48.148.3.136.285.125.27.114.254.102.239.091.222.08.207.036.098.062.183q.128.394.14.62z"/><use xlink:href="#z" transform="rotate(-4 630.232 -17.229)"/><path fill="#000" fill-opacity=".414" fill-rule="nonzero" d="M6.736 43.641a.8.8 0 0 1 .29.051l.08.03c.739.308 2.04 1.505 2.407 4.176l.042.308.04.296.052.42.046.394.04.367.033.34.018.211.023.295.01.181.009.17.005.157.003.145-.001.134-.003.121-.003.056-.008.103-.005.047-.012.086-.016.073-1.187.083-2.625-1.404-.058-.373-.053-.36-.024-.176-.046-.341-.04-.329-.035-.316-.03-.303-.026-.291-.02-.278-.015-.265-.005-.128-.008-.246q-.02-.9.104-1.442l.078-.338.05-.206.047-.192.048-.178.048-.163.048-.15c.171-.498.365-.741.699-.765m.024.337c-.096.007-.177.059-.258.199l-.033.06-.016.035-.033.076-.017.042-.034.093-.034.105-.036.117-.037.131-.06.222-.062.255-.092.394a5 5 0 0 0-.096.915l-.003.206.002.218.007.23.011.243.016.255.02.267.026.28.03.29.034.304.02.156.04.321.047.334.05.345.03.191 2.39 1.279.818-.057.002-.036.004-.116v-.2l-.004-.151-.012-.253-.011-.186-.015-.2-.018-.214-.033-.346-.04-.377-.048-.408-.054-.437-.062-.468-.02-.148c-.191-1.383-.65-2.446-1.275-3.174-.44-.515-.94-.806-1.144-.792"/><path fill="url(#A)" d="M.735 6.605c.506-.214 1.736-.321 2.496-.214q.759.107 3.252 1.962Q5.669 9.61 4.21 10.38c-1.458.772-2.613 1.059-3.476.53-.863-.53-.727-2.253-.727-2.813S.23 6.819.735 6.605" transform="rotate(-4 630.232 -17.229)"/><path fill="#000" fill-opacity=".414" fill-rule="nonzero" d="M6.406 50.07q.195.015.514.135l.132.053.142.06.151.07.08.038.166.083.086.044.18.095.191.104.2.112.319.184.34.204.24.146.376.236.263.168q-.723 1.31-2.124 2.18l-.225.137c-1.297.772-2.356 1.076-3.205.634-.549-.286-.757-1.043-.844-1.716l-.022-.181-.008-.088-.014-.17-.015-.235-.016-.316-.003-.05c-.04-.558.132-1.29.621-1.538.49-.25 1.71-.442 2.475-.388m-.024.338c-.706-.05-1.866.133-2.297.352-.278.141-.459.629-.442 1.14l.03.567c.022.338.05.589.103.855.116.588.32.979.612 1.13.706.369 1.673.128 3.096-.757q1.106-.689 1.762-1.658l.083-.126-.352-.22-.245-.15-.35-.208-.218-.127-.208-.118-.197-.109-.186-.1-.175-.09-.163-.08-.152-.07-.072-.032-.134-.057a2 2 0 0 0-.462-.139z"/><use xlink:href="#z" transform="rotate(-109 29.42 20.532)scale(1 -1)"/><path fill="#000" fill-opacity=".414" fill-rule="nonzero" d="M18.28 51.242a.8.8 0 0 0-.161-.246l-.06-.062c-.57-.56-2.18-1.29-4.784-.585l-.3.081-.287.08-.408.116-.38.111-.353.107-.326.102-.202.066-.28.095-.171.06-.16.06-.146.056-.135.054-.122.053-.11.05-.051.025-.092.048-.041.023-.074.044-.062.043.388 1.125 2.318 1.868.366-.093.352-.092.171-.046.332-.091.319-.092.304-.09.291-.091.278-.09.264-.09.25-.09.12-.045.23-.09q.834-.333 1.286-.659l.28-.203.17-.126.159-.12.144-.113.132-.108.119-.103c.392-.352.54-.626.431-.942m-.32.11c.031.091.015.186-.082.315l-.044.054-.025.028-.057.06-.032.032-.073.068-.083.073-.094.078-.105.086-.181.14-.21.158-.328.239q-.303.218-.804.445l-.189.083-.201.084-.215.084-.228.084-.241.085-.254.086-.267.085-.28.087-.292.087-.151.043-.312.087-.325.088-.337.088-.188.048-2.11-1.7-.268-.775.032-.016.105-.05.058-.025.127-.053.14-.055.238-.088.175-.062.19-.065.204-.067.332-.105.363-.11.393-.115.424-.121.455-.126.144-.039c1.348-.365 2.505-.357 3.42-.067.646.204 1.109.55 1.176.744"/><path fill="url(#B)" d="M.735 6.605c.506-.214 1.736-.321 2.496-.214q.759.107 3.252 1.962Q5.669 9.61 4.21 10.38c-1.458.772-2.613 1.059-3.476.53-.863-.53-.727-2.253-.727-2.813S.23 6.819.735 6.605" transform="rotate(-109 29.42 20.532)scale(1 -1)"/><path fill="#000" fill-opacity=".414" fill-rule="nonzero" d="M12.49 54.058a2 2 0 0 0-.325-.42l-.1-.101-.111-.107-.123-.112-.066-.059-.141-.12-.075-.063-.158-.129-.17-.135-.181-.14-.295-.221-.32-.234-.228-.163-.364-.254-.258-.177Q8.654 52.8 8.398 54.43l-.038.26c-.203 1.497-.07 2.59.67 3.199.477.393 1.255.289 1.909.107l.175-.052.084-.026.162-.054.222-.078.298-.108.046-.017c.53-.182 1.136-.626 1.174-1.173.038-.548-.262-1.746-.61-2.43m-.301.154c.321.63.607 1.77.573 2.252-.021.311-.4.668-.877.852l-.533.193c-.32.113-.562.185-.827.24-.587.123-1.027.088-1.28-.121-.615-.507-.771-1.49-.513-3.146q.202-1.287.838-2.27l.084-.125.339.237.235.168.328.24.202.151.19.146.177.139.164.132.151.126.138.119.125.112.057.053.105.102q.222.221.308.37z"/></g><g fill-rule="nonzero" mask="url(#j)"><use xlink:href="#C" fill="#000ca7"/><use xlink:href="#C" fill="#657040"/></g></g></svg>