<svg xmlns="http://www.w3.org/2000/svg" xmlns:xlink="http://www.w3.org/1999/xlink" viewBox="0 0 96 96"><defs><linearGradient id="b" x1="62.74%" x2="44.41%" y1="68.241%" y2="53.442%"><stop offset="0%" stop-color="#f00000"/><stop offset="100%"/></linearGradient><linearGradient id="c" x1="41.62%" x2="59.462%" y1="74.366%" y2="48.245%"><stop offset="0%" stop-color="#06439f"/><stop offset="100%"/></linearGradient><linearGradient id="d" x1="53.956%" x2="53.956%" y1=".947%" y2="99.796%"><stop offset="0%" stop-color="#46ceff"/><stop offset="100%" stop-color="#0258d7"/></linearGradient><linearGradient id="e" x1="62.696%" x2="62.696%" y1=".575%" y2="100%"><stop offset="0%" stop-color="#ff5d91"/><stop offset="100%" stop-color="#ac2828"/></linearGradient><filter id="a" width="134.2%" height="129.3%" x="-17.1%" y="-14.6%" filterUnits="objectBoundingBox"><feOffset dy="2" in="SourceAlpha" result="shadowOffsetOuter1"/><feGaussianBlur in="shadowOffsetOuter1" result="shadowBlurOuter1" stdDeviation="2"/><feColorMatrix in="shadowBlurOuter1" result="shadowMatrixOuter1" values="0 0 0 0 0 0 0 0 0 0 0 0 0 0 0 0 0 0 0.2 0"/><feMerge><feMergeNode in="shadowMatrixOuter1"/><feMergeNode in="SourceGraphic"/></feMerge></filter></defs><g fill="none" filter="url(#a)" transform="translate(13.5 7)"><path fill="url(#b)" d="m35.25 0 9.327 6.033q-1 32.293-1 47.967t1 21.95L35.25 82l-9.206-5.946v-3.492c-.753.461-1.578 1.034-2.27 1.458a6.1 6.1 0 0 1-2.393.83q-2.736.257-6.137-1.939-7.134-4.609-11.2-15.593Q.577 47.953.577 38.1q0-10.028 3.467-14.825.956-1.32 2.08-2.078c3.114-2.015 6.207-4.037 9.328-6.05.01-.007.023-.01.034-.018 2.438-1.63 5.466-1.278 9.093 1.066.451.291.896.618 1.335.96V6.05zm-15.6 36a29 29 0 0 0-.073 1.973c0 3.839.658 7.544 1.964 11.125 1.244 3.452 2.896 6.09 4.963 7.902a29 29 0 0 0 .073-2.09q0-5.664-2.027-11.169c-1.263-3.375-2.899-5.955-4.9-7.741"/><path fill="url(#c)" d="m35.25 0-9.673 6.033q2 32.094 2 47.967t-2 21.95l10 6.05 8.5-5.946v-3.492c.77.461 1.614 1.034 2.323 1.458a6.3 6.3 0 0 0 2.446.83c1.864.17 3.959-.474 6.277-1.939q7.295-4.609 11.454-15.593 3.546-9.365 3.546-19.217 0-10.028-3.546-14.825c-.65-.881-1.363-1.572-2.128-2.078-3.184-2.015-6.347-4.037-9.539-6.05-.011-.007-.024-.01-.035-.018-2.493-1.63-5.59-1.278-9.3 1.066a19 19 0 0 0-1.365.96V6.05zm15.8 36c.043.626.073 1.286.073 1.973 0 3.839-.658 7.544-1.964 11.125-1.244 3.452-2.896 6.09-4.963 7.902a29 29 0 0 1-.073-2.09q0-5.664 2.027-11.169 1.896-5.062 4.9-7.741"/><path fill="url(#d)" d="M49.162 74.85c-1.839-.229-3.284-1.271-4.585-3.02v4.167l-9 6.003V12.036L44.587 6v30.585a31.7 31.7 0 0 1 4.575-8.39q2.893-3.879 6.19-5.991 7.197-4.614 11.3 1.03 3.5 4.8 3.499 14.836 0 9.86-3.498 19.232Q62.549 68.295 55.35 72.91q-3.43 2.199-6.189 1.942m-3.078-31.048q-1.933 5.377-1.933 10.914 0 5.535 1.8 8.327 2.2 3.412 6.133.874 4-2.583 6.2-8.836a32.2 32.2 0 0 0 1.867-10.87q0-5.448-1.8-8.24-2.2-3.412-6.067-.916-3.933 2.538-6.2 8.747"/><path fill="url(#e)" d="M21 74.85c1.84-.229 3.287-1.289 4.588-3.038v4.167L35.577 82V12l-10-6v30.585A31.7 31.7 0 0 0 21 28.195q-2.895-3.879-6.192-5.991Q7.606 17.59 3.5 23.234 0 28.035 0 38.07q0 9.86 3.5 19.232Q7.605 68.295 14.808 72.91 18.24 75.108 21 74.85m2.946-31.048Q26 49.179 26 54.716q0 5.535-1.912 8.327-2.338 3.412-6.517.874-4.25-2.583-6.588-8.836A30.5 30.5 0 0 1 9 44.211q0-5.448 1.913-8.24 2.337-3.412 6.445-.916 4.179 2.538 6.588 8.747"/></g></svg>