<svg xmlns="http://www.w3.org/2000/svg" xmlns:xlink="http://www.w3.org/1999/xlink" viewBox="0 0 96 96"><defs><filter id="a" width="130.8%" height="130.8%" x="-15.4%" y="-15.4%" filterUnits="objectBoundingBox"><feOffset dy="2" in="SourceAlpha" result="shadowOffsetOuter1"/><feGaussianBlur in="shadowOffsetOuter1" result="shadowBlurOuter1" stdDeviation="2"/><feColorMatrix in="shadowBlurOuter1" result="shadowMatrixOuter1" values="0 0 0 0 0 0 0 0 0 0 0 0 0 0 0 0 0 0 0.2 0"/><feMerge><feMergeNode in="shadowMatrixOuter1"/><feMergeNode in="SourceGraphic"/></feMerge></filter></defs><g fill="none" fill-rule="evenodd" filter="url(#a)" transform="translate(9 9)"><rect width="78" height="78" fill="#fff" rx="18"/><path fill="#020100" d="M44.824 43.702c1.121 1.91 3.435 3.135 3.307 5.762-2.04 2.339-4.237 4.484-7.129 5.772-1.156.378-2.43 1.409-3.155-.575.47-2.64-1.945-5.496.607-8.045-1.179.987-2.368 1.881-3.848 2.267q-1.217 1.013-2.435 2.022c-1.145.947-2.098.896-2.782-.54-2.207-1.395-3.324-3.724-4.88-5.678-.558-.717-1.016-1.478-1.04-2.424-.414-1.143-.52-2.07 1.021-2.523 1.056-.311 2.013-.955 3.015-1.45 1.264-.416 2.534.07 3.808-.028 1.527-.118 2.12-.813 1.69-2.313q-.043-.465.155-.888c.226-.215.487-.375.774-.496 1.034-.27 2.054-.691 3.156-.334 1.139.784 1.624 2.088 2.468 3.108.977 1.213 1.827 2.517 2.71 3.796.693 1.013 1.758 1.659 2.558 2.567"/><path fill="#e6cd17" d="M57.935 59.825c2.41.483 3.547 2.669 5.332 3.99 1.143.846 2.061 2.145 3.765 1.848.53.891 1.05 1.678 2.22 1.975 1.319.336 1.913 1.248 1.014 2.596l-.673.42c-.168.14-.416.333-.545.254-2.532-1.552-5.645-1.661-8.139-3.296l-.997-.318c-1.94-1.745-4.062-3.181-6.614-3.887-1.18-.985-2.76-1.258-3.958-2.215-.563-.856-.625-2.082-1.82-2.472-.84-1.12-1.379-2.412-2.019-3.641-.675-1.296-.575-2.486.863-3.268 1.275-.262 2.456 2.697 3.808.117l2.571 1.75c.64.799.47 2.28 1.98 2.344l.577 1.184c-1.384 3.15 1.138 2.369 2.635 2.619"/><path fill="#e1c817" d="m23.469 42.263 1.418 1.933c.53 2.112 2.233 4.1.68 6.432l-1.31.786c-2.118 1.04-3.65.21-4.896-1.53-.386-1.316-1.164-2.331-2.372-3.01l.026.026c-.848-2.65-1.814-5.229-3.582-7.45-.61-.764-1.715-1.68-.534-2.75 1.19-1.076 2.35-.744 3.282.494 1.101 2.18 2.013 4.455 3.242 6.805.08.212.467-.342.113-.092-.065.046-.176-.03-.202-.244-.186-1.545-1.89-2.976-.357-4.65 1.332.583 2.122 1.897 2.499 3.006.69 2.03 1.379.042 1.993.244"/><path fill="#9f7c0e" d="m50.254 20.9 1.748-.75c1.3-.186 2.664.154 4.045-.3-1.362-1.784-4.272-.32-5.008-2.834-.723-1.964-2.013-3.03-4.212-2.679-.069.011-.23-.123-.226-.181.01-.158.086-.312.137-.467 2.408-1.365 4.973-.774 7.492-.548.757.068 1.808.914 1.267 1.4-2.237 2.012.54 1.365.92 1.94 2.604.88 4.034 3.07 5.655 5.05.41.407.883.764 1.13 1.313-.975 1.744-3.609-1.303-4.23 1.465-2.046.175-4.103-.125-6.15.141-1.616-.632-2.802-1.578-2.568-3.55"/><path fill="#d9bd14" d="m41.856 41.534-2.78-3.786c.522-1.398-1.727-2.738-.09-4.163.25-.183.52-.33.804-.45.71-.262 1.437-.474 2.132-.776 4.411-1.919 4.563-1.855 6.196 2.604.598.785 1.266 1.478 2.254 1.769.555.176 1.036.452 1.335.976q.128.421-.07.815l-.734.529c-3.216.098-6.057 1.56-9.047 2.482"/><path fill="#424436" d="M63.832 5.292c3.438.543 7.392 3.953 7.698 6.836.137 1.293.477 2.84-1.214 3.599-1.457-.31-2.235-1.845-3.744-2.06-1.584-.572-3.429-.582-4.565-2.118-.467-.708-.744-1.456-.472-2.313.301-.614.801-.976 1.454-1.137.192-.238.9.216.671-.177-.577-.995-.39-1.787.172-2.63"/><path fill="#ebe040" d="m51.637 38.523-.2-.807c-.992-1.346.101-3.113-.906-4.459.151-1.888.782-3.857-.957-5.407-1.17-1.434-2.13-3.12-4.194-3.482-1.576-.175-3.21.219-4.724-.505a1.09 1.09 0 0 1-.472-.793c.773-1.817 2.84-1.799 4.119-2.902L47 20.154c1.295 2.09 3.248 3.635 4.697 5.566 1.38 1.835.645-.792 1.195-.437 1.453.408 1.289 1.649 1.13 2.632-.202 1.254.473 2.004 1.102 2.852.419.95.433 1.946.35 2.955-.436 2.152-1.706 3.674-3.59 4.727z"/><path fill="#e7d829" d="M33.999 35.157a.75.75 0 0 1-.609.145c-2.013 1.045-4.007 1.15-5.975-.119.582-1.759 2.795-2.89 1.993-5.181 1.634-1.351 2.035-3.267 2.382-5.207 1.46-1.256-.122-3.509 1.538-4.7 1.848 1.398 1.593 3.378 1.493 5.326-.084 1.616.05 3.239-.135 4.851-.53 1.584-.262 3.284-.687 4.885"/><path fill="#7d5c0e" d="M15.824 37.754c-.876-1.648-1.918-1.31-3.17-.245 2.705 2.61 4.535 5.55 4.361 9.39-1.549-1.216-1.978-3.13-2.873-4.74-1.378-2.478-2.791-4.508-6.108-3.068-.544.236-1.258.08-1.894.105-1.165.15-.94-.514-.55-1.072.492-.707 1.304-1.067 2.012-1.53 2.755-1.135 5.256-2.992 8.415-3.002.739 1.362 1.502 2.715 1.534 4.327-.614.338-1.182.21-1.727-.165"/><path fill="#d3aa10" d="m66.917 35.034-2.176 2.078c-2.475 1.306-5.373 1.88-6.967 4.639-.81 1.4-1.803.202-2.647-.338a3.2 3.2 0 0 1-.848-1.191c-.306-1.551-.012-2.913 1.264-3.958.8-.287 1.448.227 2.16.407 1.833-.221 3.378-1.443 5.21-1.53-.62-.25-1.683.08-1.737-1.133 3.127-.154 3.427-3.314 5.207-4.899.693.4.938 1.115 1.26 1.778.232.529.432 1.068.405 1.659-.3.862-.88 1.6-1.131 2.488"/><path fill="#e1d028" d="M16.017 33.592 7.9 37.128c-1.292.47-2.453 1.22-3.69 1.783-1.24.565-2.187.273-1.425-1.436 1.36-1.86 3.14-3.211 5.165-4.267 2.415-.033 4.495-1.99 7.049-1.231z"/><path fill="#434434" d="M56.756 17.104c-1.93.555-2.862-1.67-5.156-1.32 1.308-1.248 2.688-.308 3.585-1.483-2.823-1.184-5.718-.04-8.447-.612.145-1.73 1.269-1.893 2.712-1.886 1.536.008 3.219.54 4.542-.786 1.326 1.577 4.015.074 5.082 2.248-.357 1.53.906 4.042-2.318 3.84"/><path fill="#e1cf2e" d="M69.65 16.488c-.56 1.976-.367 4.514-3.724 4.163-.66-.069-1.448 1.106-2.177 1.707-1.426-2.41-.949-5.052-.944-7.635 3.056-.917 6.04-.15 6.844 1.765"/><path fill="#a5810e" d="M46.912 51.973c-1.282.804-1.858 1.831-.58 3.03 1.132 1.064 1.327 2.308 1.187 3.717-2.389-.755-4.876-1.326-6.516-3.484 2.242-2.09 4.287-4.422 7.128-5.772l.696.838c-.051 1.229-1.07 1.35-1.915 1.67"/><path fill="#8a680e" d="M60.91 67.612c3.213.104 6.03 1.342 8.683 3.043-.995 1.713-2.472 3.48-4.405 2.624-2.205-.977-4.176-2.785-4.279-5.667"/><path fill="#e1c717" d="M54.68 30.59c-1.196-.126-2.025-.52-1.548-1.977.359-1.098.637-2.21-.309-3.19q-.609-.562-.157-1.257c2.127-1.079 4.233-1.128 6.308.139-1.063 1.734-2.333 3.379-2.309 5.56a.72.72 0 0 1-.62.334c-.507-.06-.932.18-1.365.39"/><path fill="#916c0e" d="M55.35 41.003c.799-.03 1.522 1.377 2.405-.465 1.296-2.705 4.162-3.265 6.985-3.426-2.12 2.67-4.056 5.55-7.555 6.654-1.2-.052-1.897-.95-2.556-1.728-.385-.455-.385-1.286.721-1.035"/><path fill="#bea11c" d="M33.86 31.073c-.227-3.656.831-7.374-.533-10.976 1.726-1.649 3.276.436 4.934.23.655.865 1.732 1.353 2.161 2.42l.038.683c-.12.181-.257.37-.452.43-4.398 1.325-4.398 1.323-4.54 6.381-.317.704-.876.937-1.608.832"/><path fill="#493307" d="M34.606 48.883c1.765-1.23 2.943-3.317 6.221-4.084-2.514 2.754-3.78 5.082-1.97 7.954.19.303-.65 1.255-1.01 1.907-1.94-1.443-2.246-3.803-3.241-5.777"/><path fill="#95720e" d="M53.363 63.097c3.168-.138 5.063 1.71 6.549 4.197-2.109-.846-4.484.287-6.549-.88-.135-1.859-1.763-.848-2.602-1.354-.683-.746-1.337-1.503-1.111-2.632 1.47-1.07 2.583-.153 3.713.67"/><path fill="#9e790e" d="M56.193 30.071a.7.7 0 0 0 .473-.205c.67.28.6.868.593 1.43-.049 1.809.12 3.673-1.308 5.13-.877 1.157-1.2 2.498-1.3 3.914-.646 1.123.386 2.51-.566 3.584-1.145-1.659-.856-3.894-2.2-5.474.356-1.847 2.413-2.569 2.873-4.347.937-1.18-.004-3.03 1.435-4.032"/><path fill="#e0d031" d="M70.266 70.234c.182-1.382-.483-1.9-1.815-2.037-1.525-.157-1.88-1.164-1.419-2.534a3 3 0 0 1 .055-.525q.302-.42.764-.186c2.362 2.208 2.692 2.119 3.977-1.08q.091-.45.45-.74c1.038-.03 2.103-.308 3.214.362-.97 2.868-2.226 5.458-5.226 6.74"/><path fill="#f6f2b0" d="m52.666 24.166.157 1.256c-.267.466-.114 1.832-.59 1.373-2.025-1.954-5.122-3.169-5.232-6.641 1.287-.636 2.216.29 3.253.746z"/><path fill="#c7a20e" d="M33.366 35.596c1.615 1.39 1.21 2.799-.58 3.125-1.67.303-3.61.69-5.282-.43.281-.856-1.445-1.602-.136-2.514 2.003.066 4-.049 5.998-.18"/><path fill="#f9f7c4" d="M63.205 14.246c.67 2.67.766 5.38.544 8.111l-.547.487c-.549-.028-1.128.022-1.458-.569-.746-1.864-1.793-3.66-1.346-5.8.284-1.359.464-2.8 2.27-3.017q.663.123.537.788"/><path fill="#654608" d="M51.038 17.016c1.276 1.202 2.992.938 4.508 1.265 1.094.236 2.072.743 2.047 1.695-.038 1.462-1.455.854-2.274.874-1.127.027-2.411.446-3.317-.7.2-.56.68-1.21-.495-1.253-2.28-.084-1.115-1.053-.469-1.881"/><path fill="#856412" d="M41.856 41.534c2.584-2.4 5.6-3.224 9.047-2.482-1.593 1.203-3.75 1.229-5.291 2.61-.685.613-1.245 1.074-.788 2.04-1.316-.276-2.447-.805-2.968-2.168"/><path fill="#e4d63e" d="m67.073 31.243-.69-2.133c3.45-1.34 4.353-.895 5.739 2.833-1.83.83-3.46.21-5.049-.7"/><path fill="#f6f3b5" d="M40.422 22.747c-.792-.742-2.97-.247-2.16-2.42l.807-.189c1.404-1.233 2.905-1.801 4.654-.681l.58.711c-.155 2.573-2.564 1.755-3.88 2.579"/><path fill="#88650b" d="M25.568 50.628c.189-2.188-1.121-4.217-.68-6.432l4.5 6.168c-1.334-.805-2.53.411-3.82.264"/><path fill="#f1eb93" d="m15.824 37.754 1.726.164 1.427 1.095c.092 1.77 1.307 3.443.354 5.517-1.766-2.043-2.78-4.33-3.507-6.776"/><path fill="#795a12" d="M16.99 46.875q3.003-.512 2.764 2.526c.223.95.698 1.72 1.284 2.533 1.43 1.978.02 1.79-1.333 1.489-2.01-1.725-1.737-4.396-2.716-6.548"/><path fill="#323735" d="M58.614 13.151c-1.44-.927-3.756.04-4.622-2.134a.48.48 0 0 1 .142-.472c1.09-1.113 2.476-.943 3.837-.891 1.269.14 2.336.53 2.487 2.036-.137 1.087-.42 1.995-1.844 1.461"/><path fill="#f0eb8b" d="M61.176 34.008c.729.876 1.91.106 2.874.862-2.067 1.476-4.395 2.132-6.685 2.87-1.114-2.126 1.112-1.863 1.887-2.639.447-.707 1.175-.919 1.924-1.093"/><path fill="#a07f13" d="M63.205 14.246a.74.74 0 0 1-.128-.32c-.424-1.175.397-1.118 1.135-1.153.934-.043 1.755.754 2.735.368 1.66.162 2.522 1.364 3.368 2.586l-.666.76c-.36-.908-1.273-1.68-1.968-1.316-1.875.983-3.061-.304-4.476-.925"/><path fill="#eee770" d="M46.912 51.973c.276-.971 1.223-1.175 1.914-1.673.894.176 1.444.635 1.346 1.628.091 1.512-.63 2.57-2.103 2.605-2.025.048.304-2.168-1.157-2.56"/><path fill="#ab850a" d="M67.073 31.243c1.705.075 3.442-.081 5.049.7.235 1.914-.4 3.123-2.53 3.118.38-1.623-1.354-1.619-1.929-2.507z"/><path fill="#f8f4bd" d="M63.832 5.292c-.662 2.149 1.365 2.825 2.389 4.304-1.344.215-1.894-1.425-3.071-1.138-1.812.002-4.478 2.367-4.81-1.733 1.325-1.74 3.284.152 4.744-.822z"/><path fill="#f1edad" d="M15 31.977c-2.374.276-4.449 2.265-7.05 1.23 2.268-.874 4.157-3.923 7.05-1.23"/><path fill="#b08f19" d="M19.705 53.423c.314-.036.642-.028.94-.117.764-.228.402-.514.007-.768-1.221-.783-.974-1.984-.899-3.137 1.086 1.601 2.756 1.895 4.504 2.013-1.281 1.204-2.041 3.591-4.552 2.009"/><path fill="#816c25" d="M57.983 10.408q-1.925.067-3.849.137c.319-1.223-2.527-.297-1.404-2.067 1.398-.743 2.974-.602 4.464-.9.57.057.957.366 1.201.872.222.728.094 1.383-.412 1.958"/><path fill="#fdf9e4" d="M63.084 5.903c-.03 1.201-.705 1.5-1.697 1.082-.925-.388-1.86-.395-2.819-.364-.26.184-.477.153-.647-.126 1.36-3.352 3.291-1.706 5.163-.592"/><path fill="#f1eb96" d="M57.935 59.825c-1.773 1.316-3.32-.12-5.28-.21.6-1.457 1.945-1.594 2.645-2.409z"/><path fill="#cea20e" d="M59.252 35.101c-.472.993-2.22 1.072-1.888 2.64q-.705-.658-1.413-1.315c.421-1.714.38-3.545 1.308-5.13.704.786.653 1.764.497 2.664-.26 1.494.746 1.098 1.496 1.141"/><path fill="#fdf9e4" d="M72.278 63.133q-.051.312-.182.601c-1.2 1.42-2.608 2.139-4.47 1.334q-.272.018-.54.07c.697-3.347 2.774-3.116 5.192-2.005"/><path fill="#e7e182" d="m57.921 6.495.647.125c.395 3.437 3.212.834 4.582 1.839l-1.198.787c-1.728 1.87-2.943 1.08-3.955-.763l-.661-.633c-.715-.005-1.473.098-1.854-.742.683-.723 1.628-.404 2.44-.613"/><path fill="#fcf9e0" d="m43.723 19.457-4.653.682c1.682-3.208 2.898-3.386 4.653-.682"/><path fill="#846315" d="M67.663 32.554c1.48.191 2.622.644 1.93 2.507l-2.675-.027c-1.26-1.28-.275-1.886.745-2.48"/><path fill="#9f812b" d="M2.785 37.475c-.02.886.117 1.501 1.252.972 1.236-.577 2.387-1.437 3.864-1.32-.166 1.048-2.185.52-1.76 2.069-1.265.748-2.682.888-3.856.134-.619-.398-.138-1.342.5-1.855"/><path fill="#cea20e" d="M54.085 43.924c.074-1.213-.495-2.527.566-3.584l.7.663c-.111 1.402 1.254 1.82 1.836 2.761-.997.802-2.029.878-3.102.16"/><path fill="#6e5115" d="M50.76 65.06c1.153-1.334 2.31-.522 3.419.047.3.153.451.597.67.907l-1.487.4c-1.091-.019-2.054-.288-2.601-1.354"/><path fill="#f2ee9d" d="M31.79 24.795c.694 1.994-.2 3.946-2.383 5.206.7-1.778.961-3.757 2.383-5.206"/><path fill="#f0ec92" d="M33.366 35.596c-1.971.979-3.958 1.44-5.998.181q.057-.294.048-.594l5.975.118z"/><path fill="#3e4034" d="M55.482 7.108c.605.28 1.446-.03 1.854.742-1.378 1.365-3.054.547-4.606.629.357-1.585 1.744-1.097 2.752-1.37"/><path fill="#ac8d1e" d="M54.723 56.022c-3.972 2.017-1.57-1.35-1.98-2.343 1.15.367 2.227.796 1.98 2.343"/><path fill="#ab8915" d="M53.363 63.097c-1.235-.238-2.398-.878-3.713-.669l-.31-1.236c1.524.249 3.407-.26 4.023 1.905"/><path fill="#fcfcfb" d="M33.86 31.073c.436-.342 1.175-.354 1.224-1.119.324-1.87.853-3.595 2.961-4.215.744.036 1.488.053 2.231.097 4.121.245 4.47.827 2.772 4.615-.85 1.457-1.976 2.644-3.463 3.468a.58.58 0 0 0-.512.198c-.698-.018-1.17 1.025-1.992.423l-3.083.617c-.599-1.343-1.173-2.686-.138-4.084"/><path fill="#513705" d="M34.928 40.984c-.195.907-1.13 1.12-1.875 1.369-1.562.523-3.052 1.89-4.82.957-1.295-.684-.513-2.578 1.201-2.868.836-.141 1.713-.03 2.55-.165 2.096-.34 2.902-.214 2.944.707"/><path fill="#e2d658" d="M37.081 34.54q.998-.214 1.993-.424c-.54 1.212 1.818 2.42.002 3.633-.878-.938-1.626-1.956-1.995-3.209"/><path fill="#e7d724" d="M66.947 13.141c-.098 1.425-.928.625-1.49.46-.857-.25-1.736-.91-2.38.324-2.212-.053-1.891 1.778-1.917 2.961-.04 1.791.367 3.592.584 5.389-1.674-1.713-2.91-3.848-4.988-5.17 2.71-.335 1.108-2.697 1.858-3.954.97.062 1.103-.676 1.297-1.356.607-1.175 1.5-1.334 2.605-.731.965 1.783 3.182.899 4.43 2.077"/><path fill="#e7d119" d="M50.144 27.349c2.205 1.756 1.649 3.848.728 5.984.662 1.347.11 2.476-.643 3.568-1.447 1.006-1.642-1.06-2.668-1.087-.381-2.2-.757-4.401-1.01-6.619a2.2 2.2 0 0 1 .092-.998c.371-.63 1.01-.787 1.654-.939.62-.118 1.241-.146 1.847.09"/><path fill="#886307" d="M47.052 28.511c1.017 2.375.423 4.863.51 7.303-1.784-4.008-1.783-4.004-6.158-2.443-.595.212-1.21.366-1.818.548l2.594-3.373c1.007-2.156 3.285-1.269 4.872-2.035"/><path fill="#f3ee8a" d="M44.91 35.293c.815-.035 1.317.338 1.182.921-.374 1.617-1.748 2.015-3.16 2.217-.592.085-1.222-.288-1.087-.874.378-1.647 1.994-1.73 3.066-2.264"/><path fill="#f4f0a5" d="M50.23 36.901c-.442-1.308.505-2.366.642-3.569 2.383 1.18.297 2.933.564 4.384z"/><path fill="#9e8c37" d="m62.516 11.064-2.605.731c-.056-1.278-1.055-1.245-1.929-1.387l.015-1.925c1.137 1.191 2.376 1.854 3.955.764z"/><path fill="#8a660b" d="M37.818 26.085c-1.497.876-1.283 2.96-2.734 3.869-1.325-2.014-.223-4.18.38-5.833.802-2.2 3.343.108 4.996-.69l5.695.15q.44.43-.034.823c-.73.478-1.559.515-2.39.548-2.094-.274-3.98.554-5.913 1.133"/><path fill="#eee555" d="M56.193 30.071c-.204 1.441.001 3.027-1.435 4.03l-.078-3.511c.086-.591-.229-1.433.607-1.614.716-.155.67.663.906 1.095"/><path fill="#bea11c" d="M46.184 24.134a5 5 0 0 0-.028-.553c1.78.779 2.893 2.264 3.988 3.768l-1.343.615c-1.004-1.187-2.768-1.854-2.617-3.83"/><path fill="#f7f3b4" d="m67.625 65.068 4.47-1.334c1.256 2.235-.478 3.196-1.958 3.76-2.048.779-2.049-1.204-2.512-2.426"/><path fill="#624307" d="M37.818 26.085c1.373-2.307 3.647-1.895 5.778-1.914 2.188.399 3.536 1.553 3.53 3.924q-.019.212-.074.416c-.328.437-.09 1.757-.603 1.374-1.805-1.35-2.904.2-4.27.661l1.404-3.555c-1.922-.619-4.065.54-5.765-.906"/><path fill="#886307" d="M47.126 28.095c-1.581-.944-1.342-3.525-3.53-3.924l2.589-.037c.724 1.377 2.515 2.027 2.616 3.83z"/></g></svg>