<svg xmlns="http://www.w3.org/2000/svg" xmlns:xlink="http://www.w3.org/1999/xlink" viewBox="0 0 96 96"><defs><linearGradient id="a" x1="50%" x2="50%" y1="0%" y2="100%"><stop offset="0%" stop-color="#797eff"/><stop offset="100%" stop-color="#7c63f1"/></linearGradient><filter id="b" width="129.9%" height="127.5%" x="-15%" y="-13.5%" filterUnits="objectBoundingBox"><feOffset dy="2" in="SourceAlpha" result="shadowOffsetOuter1"/><feGaussianBlur in="shadowOffsetOuter1" result="shadowBlurOuter1" stdDeviation="2"/><feColorMatrix in="shadowBlurOuter1" result="shadowMatrixOuter1" values="0 0 0 0 0 0 0 0 0 0 0 0 0 0 0 0 0 0 0.2 0"/><feMerge><feMergeNode in="shadowMatrixOuter1"/><feMergeNode in="SourceGraphic"/></feMerge></filter></defs><g fill="url(#a)" fill-rule="evenodd" filter="url(#b)" transform="translate(7.873 3.5)"><path d="M40.127.5a4 4 0 0 1 4 4v7.994l5.752-5.75a3.799 3.799 0 0 1 5.372 5.373L44.127 23.239V37.49l12.838-7.412 3.764-14.044a3.799 3.799 0 0 1 7.386 1.77l-.048.196-1.797 6.706 6.664-3.846a3.799 3.799 0 0 1 3.798 6.58l-8.484 4.897 9.191 2.464a3.799 3.799 0 1 1-1.966 7.338l-15.295-4.098c-.374-.1-.72-.253-1.032-.448l-11.964 6.906L60.45 52.16l14.79-3.963a3.799 3.799 0 0 1 2.16 7.282l-.194.057-7.451 1.996 6.977 4.029a3.799 3.799 0 1 1-3.798 6.58l-7.855-4.536 2.263 8.447a3.799 3.799 0 1 1-7.339 1.967l-4.098-15.295a4 4 0 0 1-.095-.47L44.127 51.51v14.264l11.124 11.124a3.8 3.8 0 0 1 .148 5.216l-.148.156a3.8 3.8 0 0 1-5.372 0l-5.752-5.75v8.98a4 4 0 1 1-8 0v-8.431l-5.484 5.484-.157.149a3.799 3.799 0 0 1-5.215-5.52l10.856-10.859V50.882l-12.328 7.119q-.015.108-.038.216l-.054.232-4.098 15.294a3.799 3.799 0 0 1-7.386-1.77l.047-.196 2.257-8.424-8.291 4.787a3.799 3.799 0 0 1-3.799-6.58l7.935-4.581-7.474-2.003a3.799 3.799 0 1 1 1.967-7.338l14.813 3.968 12.309-7.107-12.557-7.25-14.647 3.925a3.799 3.799 0 0 1-2.16-7.28l.194-.058 7.307-1.959-7.687-4.438a3.799 3.799 0 1 1 3.799-6.58l8.745 5.049-2.3-8.589a3.799 3.799 0 1 1 7.338-1.966l4.098 15.294q.08.3.11.6l11.9 6.87V22.689L25.271 11.832a3.799 3.799 0 0 1 5.215-5.52l.157.148 5.484 5.484V4.5a4 4 0 0 1 4-4"/></g></svg>