<svg xmlns="http://www.w3.org/2000/svg" xmlns:xlink="http://www.w3.org/1999/xlink" viewBox="0 0 96 96"><defs><linearGradient id="b" x1="50%" x2="50%" y1="0%" y2="100%"><stop offset="0%" stop-color="#fe2f49"/><stop offset="100%" stop-color="#ffc514"/></linearGradient><filter id="a" width="130.8%" height="130.8%" x="-15.4%" y="-15.4%" filterUnits="objectBoundingBox"><feOffset dy="2" in="SourceAlpha" result="shadowOffsetOuter1"/><feGaussianBlur in="shadowOffsetOuter1" result="shadowBlurOuter1" stdDeviation="2"/><feColorMatrix in="shadowBlurOuter1" result="shadowMatrixOuter1" values="0 0 0 0 0 0 0 0 0 0 0 0 0 0 0 0 0 0 0.2 0"/><feMerge><feMergeNode in="shadowMatrixOuter1"/><feMergeNode in="SourceGraphic"/></feMerge></filter></defs><g fill="none" fill-rule="evenodd" filter="url(#a)" transform="translate(9.5 9)"><rect width="78" height="78" fill="url(#b)" rx="18"/><path fill="#fff" fill-rule="nonzero" d="M28.352 55.418q2.793 0 4.619-.586 1.825-.585 2.92-1.621 1.093-1.035 1.699-2.852.605-1.815.605-5.488V26.258H33.06v2.91q-2.5-3.38-6.348-3.379-3.73 0-6.24 2.754t-2.51 7.969q0 4.159 1.914 6.953Q22.317 47 26.496 47q3.75 0 6.211-3.36v3.028q0 1.836-.254 2.52-.37.957-1.094 1.386-1.074.645-3.222.645-1.68 0-2.461-.586-.567-.41-.723-1.504l-6.27-.762q-.018.39-.019.664 0 2.775 2.207 4.58 2.207 1.807 7.48 1.807m-.332-12.852q-1.875 0-3.155-1.533t-1.28-4.834q0-3.144 1.28-4.678t3.252-1.533q2.031 0 3.36 1.563t1.328 4.785q0 3.086-1.387 4.658t-3.398 1.572M54.27 47l8.242-20.742h-5.645l-3.945 10.586a46 46 0 0 0-.586 1.758q-.117.429-.566 1.777l-1.133-3.535-3.907-10.586h-5.76L49.329 47z"/></g></svg>