<svg xmlns="http://www.w3.org/2000/svg" xmlns:xlink="http://www.w3.org/1999/xlink" viewBox="0 0 96 96"><defs><linearGradient id="c" x1="50%" x2="50%" y1=".557%" y2="106.298%"><stop offset="0%" stop-color="#b8b8b8"/><stop offset="100%" stop-color="#787878"/></linearGradient><linearGradient id="d" x1="50%" x2="50%" y1="0%" y2="107.256%"><stop offset="0%" stop-color="#58a1ff"/><stop offset="100%" stop-color="#1646a8"/></linearGradient><radialGradient id="b" cx="51.953%" cy="39.61%" r="63.279%" fx="51.953%" fy="39.61%" gradientTransform="rotate(95.343 .48 .352)scale(1 .77691)"><stop offset="0%" stop-color="#fff"/><stop offset="65.478%" stop-color="#e9ebe9"/><stop offset="100%" stop-color="#a7a7a7"/></radialGradient><filter id="a" width="128.6%" height="128.6%" x="-14.3%" y="-14.3%" filterUnits="objectBoundingBox"><feOffset dy="2" in="SourceAlpha" result="shadowOffsetOuter1"/><feGaussianBlur in="shadowOffsetOuter1" result="shadowBlurOuter1" stdDeviation="2"/><feColorMatrix in="shadowBlurOuter1" result="shadowMatrixOuter1" values="0 0 0 0 0 0 0 0 0 0 0 0 0 0 0 0 0 0 0.2 0"/><feMerge><feMergeNode in="shadowMatrixOuter1"/><feMergeNode in="SourceGraphic"/></feMerge></filter></defs><g fill="none" fill-rule="evenodd" filter="url(#a)" transform="translate(6 6)"><circle cx="42" cy="42" r="42" fill="url(#b)"/><path stroke="url(#c)" stroke-linecap="round" stroke-linejoin="round" d="M39.285 34.78 49.5 51.5m1.697 21.803-2.641 9.596m14.61-16.756 11.486 1.392M43.904 22.054l19.262 2.658M70.082 35.5 63.5 56.687m-51.271-3.841L25.81 34.78M20.5 21.5l-14.489.139m26.399-6.492 3.152-13.908m5.135 65.249L20.5 64.856"/><path fill="url(#d)" d="m49.05 50.8 14.782 5.232v10.29l-12.549 7.479-11.998-7.479zm-36.552 1.718 8.67 12.267-.653 7.241-7.052.79A42 42 0 0 1 1.9 54.53l-.288-2.012zm52.533-39.29q0-.002 14.75 10.567V37.68l-10.007-1.027-7.657-12.002 2.877-11.28.036-.14zm-32.422.843 12.422 7.837-5.572 13.446H25.714l-5.926-14.08z"/><path fill="#2c44c7" fill-rule="nonzero" d="m12.128 33.52 1.656.745q2.94 1.02 4.73.602l-.36.146.033.02q1.331-.331 2.136-.957.32-.531.31-1.307l.03-.05q.396.397.186.746l-.02.033-.333.366-.06.1q.15.09.546-.42.3-.498-.435-1.007-.036-.544-.269-.682l.02-.034q2.639-.587 3.849-1.058 2.3-1.153 2.698-1.818l-.05-.03q.35-.582-.43-1.39.039-.972-1.457-1.87l-.033-.02q-2.294-1.38-4.778-1.31-1.195-.198-3.06.536-.803.808-1.398 1.084-.15.249-.034.432l.25.15.06-.1q-.201-.12-.12-.253l.06-.1.296-.116-.13.103q-.19.316.216.696l.05.03.23.07-.03.05.019.08q.083.049.203-.15l.25.15q.379-.068.468-.216.785-.14.845-.24l.084.05q-.337.296-.436.236l.02.08-.816.755q-2.625 1.997-3.554 2.865l-.03.05.02.08a9.6 9.6 0 0 1-1.148 1.232l-.03.05.033.133-.123.13q-.05.082.14.333l-.13.103-.03.163-.173.1-.05-.03-.047.266q-.04.066-.372-.02l-.02.033.003.07.329.13.033.02zm13.736-3.92.16-.153.08-.133q.416-1.107.283-1.527l.133.08q.363.715.142 1.081-.665.732-.798.652m-1.892-.956q.2-.333-.006-.931.508.509.379.725-.15.25-.373.206m-11.238 4.13-.033-.02q.33-.096 1.088-.794l.05.03-.03.05-.496.449-.05.083.033.02q1.152-.937 1.857-1.057 3.486-2 4.466-3.629.12-.2.2-1.01 1.869.014 3.78 1.162l.06-.1-.515-.31q-1.43-.858-3.195-.856-.084-.05.006-.313 1.62-.135 3.233.834l.166.1q.681.75.362 1.28-.33.55-6.524 2.009l.033.133-.519.186.043.23-.715.135.003.183.58.167q-.041.066.135.263l.36.08-.03.05.003.07.708.176.033.02-.03.05-.053.013.033.02q.08-.132.875.164.117.07-.023.416-.16.266-1.268.414-3.495-.018-4.626-.698m2.975-1.787-.05-.03.03-.05q2.435-1.568 3.597-3.2l.363-1.208.14-.12q.084.051-.357 1.347-.879 1.463-3.723 3.26m-2.665.028.08-.02.11-.296.303-.316 4.323-3.466.03-.05-.05-.03-1.33.332.032.133.962-.282.05.03-1.7 1.4q-1.791 1.321-2.703 2.2l-.16.265.02.08zm4.047 1.55 1.37.393.05-.083q-.332-.2-1.04-.264l-.084-.05.03-.05q.167.1.246-.033l-.555-.017-.03.05zm-3.284 1.963.911.366q1.59.594 3.356.139l-.033-.02q-2.655.35-4.15-.548l-.034-.02zm9.147 8.437.609.117q2.864-.7 6.87-3.565a10 10 0 0 0 1.571-1.635l.02-.033-.013-.053.02-.034.063-.03q.27-.449-.033-1.037l-.083-.05-.02.033q.117.41.036.768-.58.965-1.757 1.908l-.033-.02.02-.033q1.095-.994 1.554-1.758.34-.566-.079-1.224-.21-.104-.45.182-.908.495-1.403 1.17l-.05-.03.04-.066.14-.12-.084-.05q-.605.631-.772.532-3.429.7-5.142.35 1.258-1.417 1.478-1.783l.2-.332q.4-.665.46-1.443l-.392-1.684q-.415-.25-.595.05l-.02.033.068.041-.011-.002q-.21.002-.478.137l-.138.077-.067-.04-.013-.054-.033-.02.003.296.053-.013.033.02.014.053-.157.11a5.2 5.2 0 0 1-.613 1.623l-.13.216q-.249.416-1.824 2.207-.259.432.073.632-.07.569.262.769-.003.383.23.522 1.08.65 4.656.196a22 22 0 0 1-3.653 2.24q-.111.182-.735-.058l-.03.05q-.19.316.335.835m-.992-4.6-.066-.04q-.126-.167-.017-.35l.09-.15 1.691-2.06.39-.649q.24-.398.4-1.343l.02-.033q.082 1.068-.387 1.849l-.22.365q-1.108 1.395-1.674 1.958l-.207.42zm1.75.214.05-.083q.146-.094.312.006 1.98.285 3.802-.227l.033.02-.02.033q-2.916.6-4.177.25m-1.242 1.086q-.133-.08-.242-.349l.123-.016.449.27q.398.238 1.52.37l.066.04-.02.033q-1.596-.168-1.896-.348m9.02 8.61q.593.22.822.177 1.57-.278 4.425-2.318 3.088-2.24 3.588-3.071.54-.898-.093-1.278l-.123.017-.442-.356-.08.133q-.233-.14-.402.143l-.067-.04-.013-.054-.047.153-.133.147-.05-.03a.64.64 0 0 0 .094-.42l.083.05.023.037.01-.016-.13-.576q.18-.3-.953-1.048l-.22-.087q-.432-.26-2.524-.204-3.722.546-4.581 1.976-.194.36-.14.911-.071.455.714 1.221.116.636.648.955l.332.2.699.306.04-.066-.699-.307-.332-.2q-.702-.602-.592-.785.562.61.778.74 1.194.648 1.224.599l.013.053q.84.143 1.653.11l-.785.592q-1.847 1.492-2.24 1.28-.405-.267-.315-.417.053-.126.02-.146-.07.002-.12.086l-.05.083q-.064.144.236.323l.116.07-.04.067-.066-.04a1.4 1.4 0 0 0-.19-.137q-.332-.2-.442-.017-.06.1-.044.336l-.04.067q-.298-.18-.109-.496l-.083-.05q-.23.382.07.562l.033.02.07-.003q-.01.356.355.689zm8.053-4.664-.034-.02.02-.033.243-.33.24-.398.057-.17.053-.013q.21-.35.05-.762l.02-.033q.343.296.053.778l-.19.316q-.27.449-.512.665m-6.762.145q-.482-.289-.093-.938l.1-.166q.54-.897 2.013-1.505l.027-.12.01-.017.033.02-.03.05.05.03q1.355-.52 2.601-.224.067.04.332 1.217l.033.02a5 5 0 0 0-.115-1.088l.02-.033q.082.05.136.49l.022 1.054q.223.043.283-.057l.083.05-.04.067-.053.013q-.832.858-.899.818-.665.39-.948.448l.496-.336-.07-.11q-.05-.03-.482.276-2.379.72-3.51.041m-.37-.402-.032-.02q-.226-.34.013-.739.53-.88 2.24-1.505l.033.02q-1.514.674-2.013 1.505-.21.35-.24.739m-1.456-.174-.033-.02q-.445-.766-.006-1.497.41-.681 2.037-1.356l.05.03-.02.034q-1.278.545-1.86 1.325-.411.683-.168 1.484m17.547-.046.083.05q.033.473.203.642.133.08.193-.02l.06-.1q-.15-.09-.143-.515l.03-.05.163.03q.07.675.635 1.015l.05.03.349.097.032.585.05.03.08-.02.06-.665q.2.12.28-.013l.203.19q.15.09.21-.01l.043-.223.03-.05.086.007q.188-1.064-.075-1.946.665.4.564 1.357-.14.234-.056.283l.05.03.03-.05.12-.312q.136-.981-.662-1.46l-.196-.05q-.302-.816-.668-1.036l-.15-.09q-.231-.14-1.46-.243-1.503-.021-3.256 1.617-1.395.928-3.997 3.753-.483-.29-1.024-.932l-.033-.02q-.09.15.478.672l-.03.05-.033-.02q-.346-.254-.565-.792l-.2-.12-.292.073q-.111.183-.047.492.304 1.111.987 1.521a19.5 19.5 0 0 1-2.097 2.586l.066.04q.116.07.38-.292l.033.02q-.17.282.13.462l.049.03.263.09.003.07.21-.123.12.14.099.06q.974-1.02 2.552-2.177l1.873-.142q.801.21 1.071-.239l.06-.213.02-.033.08-.02q.15.09.21-.01l.03-.05q-.563-.27-2.132-.33l-.05-.03 2.536-2.3q.989-1.08 2.312-1.326m.22 12.373q1.23.74 3.144.531 3.559-.915 4.328-2.196l.02-.033q.26-.432-.063-.875-.136-.828-.883-1.277 0-.565-.283-.736-.132-.87-.997-1.39l-.066-.04q-.997-.6-2.91-.278-3.044.999-3.903 2.428l-.07.117q-.84 1.395.833 2.605l.116.07q.262.768.735 1.074m3.35-4.82-.033-.02q.894-.21 1.55-.02l.05.03.146.247-.05.083-.03-.063q-.682-.41-1.633-.257m-2.626 2.902-.133-.08q-.09-.53.26-1.111l.26-.432q.41-.682 1.594-1.147 1.54-.228 2.338.251l.146.36-.02.033-.08.02-.02.033q.69.62.621.735l.1.06.02-.146.02-.033.05.03.013.053.123-.017q.513.579.223 1.062l-.03.05-.177.142q-3.811 1.035-5.308.137m-.27-.23q-.365-.22-.155-.569l.11-.183.449-.635.05.03q-.47.781-.454 1.357m-1.58.521-.033-.02q-.748-.45-.408-1.806l.03-.05.07-.003.02-.147.523-.681.05.03-.14.233q-.889 1.48-.092 2.41zm1.413 1.64-.183-.11q-.532-.318-.675-.834l.712.586.286.126q1.875.72 3.246.435l.05.03-.63.142q-1.908.165-2.806-.374m7.865 4.885q1.23.74 3.143.53 3.56-.915 4.328-2.195l.02-.033q.26-.432-.062-.875-.136-.828-.884-1.278 0-.566-.282-.735-.133-.871-.997-1.39l-.067-.04q-.998-.6-2.91-.279-3.044.999-3.903 2.43l-.07.116q-.84 1.396.833 2.604l.117.07q.263.768.734 1.075m3.35-4.82-.034-.02q.894-.21 1.55-.02l.05.03.146.247-.05.083-.03-.063q-.682-.41-1.633-.258m-2.627 2.901-.133-.08q-.09-.528.26-1.11l.26-.432q.41-.682 1.594-1.147 1.54-.228 2.338.251l.146.36-.02.033-.08.02-.02.033q.691.619.622.735l.1.06.02-.146.02-.033.05.03.013.053.123-.017q.51.58.222 1.061l-.03.05-.177.143q-3.811 1.035-5.308.136m-.27-.23q-.365-.219-.155-.568l.11-.183.45-.635.049.03q-.47.78-.453 1.357m-1.58.522-.033-.02q-.747-.45-.408-1.806l.03-.05.07-.003.02-.147.523-.681.05.03-.14.232q-.89 1.48-.091 2.412zm1.413 1.64-.183-.11q-.532-.318-.674-.835l.71.586.287.127q1.875.72 3.246.434l.05.03-.629.143q-1.909.165-2.807-.374m6.791 4.715.15-.024.136.15.29-.143.15-.25.09-.262.05.03.05-.083.049.03-.16.38.166.099.19-.542q4.659-2.744 5.89-3.702.432.26 1.243.454l3.3.647q.11-.183.541-.036l-.036-.203.08-.133.18-.186q-.2-.12-.12-.253l.08-.133q.285.126.346.027l.05-.083-1.59-.367-2.74-.9q.915-.92 1.185-1.37l.45-.748q.35-1.148-.133-1.437l-.05-.03-.03.05q.327.626-.083 1.307l-.5.831L72.1 59.44l-.05-.03.05-.083q.306-.246 1.265-1.616.753-1.629-.029-2.098l-.066-.04-.496.11a8.6 8.6 0 0 1-1.124.93l-.03.05.05.143-.44.505-.05-.03.1-.166-.116-.07-.13.216.116.07-.08.133-.05-.03-.036-.09-.033-.02-.08.133-.992.897q-.16.267-.575.017l-1.064-.64a6.4 6.4 0 0 1-1.067-.822l-.183.003-.03.05q.784.652 2.53 1.702l-.02.033-.945-.5-.299-.18a6.4 6.4 0 0 1-1.366-1.115q-.2-.12-.596.05-.249.415.864 1.65.738.465.648.616l.748.45-.745.638q-4.004 2.82-4.113 3.004-.193.472-.043.562l.093-.42.276-.308.05.03q-.434 1.21-.327 1.636.25.15.17.283zm3.41-6.165.05-.083q-.749-.45-1.1-1.068l-.1-.06q.252.672 1.15 1.211"/></g></svg>