<svg xmlns="http://www.w3.org/2000/svg" xmlns:xlink="http://www.w3.org/1999/xlink" viewBox="0 0 96 96"><defs><linearGradient id="b" x1="74.405%" x2="5.754%" y1="9.253%" y2="45.856%"><stop offset="0%" stop-color="#fcfcfc"/><stop offset="100%" stop-color="#0a0a0a"/></linearGradient><linearGradient id="c" x1="50%" x2="69.808%" y1="9.791%" y2="37.795%"><stop offset="0%"/><stop offset="100%" stop-opacity="0"/></linearGradient><linearGradient id="d" x1="9.492%" x2="90.508%" y1="26.435%" y2="74.753%"><stop offset="0%" stop-opacity=".335"/><stop offset="100%"/></linearGradient><filter id="a" width="135.3%" height="131.2%" x="-17.6%" y="-15.6%" filterUnits="objectBoundingBox"><feOffset dy="2" in="SourceAlpha" result="shadowOffsetOuter1"/><feGaussianBlur in="shadowOffsetOuter1" result="shadowBlurOuter1" stdDeviation="2"/><feColorMatrix in="shadowBlurOuter1" result="shadowMatrixOuter1" values="0 0 0 0 0 0 0 0 0 0 0 0 0 0 0 0 0 0 0.2 0"/><feMerge><feMergeNode in="shadowMatrixOuter1"/><feMergeNode in="SourceGraphic"/></feMerge></filter></defs><g fill="none" fill-rule="evenodd" filter="url(#a)" transform="translate(13.668 9.034)"><path fill="url(#b)" d="m1.317 22.772 34.95-21.671a4 4 0 0 1 4.341.08q3.078 2.072 7.345 8.337 6.434 9.448 10.379 30.948L14.266 51.627z"/><path fill="url(#c)" fill-rule="nonzero" d="M36.004.676.682 22.578l13.3 29.637 44.926-11.38-.085-.46a196 196 0 0 0-.59-3.076l-.304-1.491-.155-.734-.315-1.442-.321-1.411-.328-1.38Q53.33 16.53 48.366 9.236c-2.877-4.225-5.362-7.045-7.479-8.47a4.5 4.5 0 0 0-4.883-.09m4.325.92c1.782 1.2 3.905 3.523 6.351 6.966l.57.815.29.422.23.344q2.481 3.755 4.59 9.37l.38 1.037q.188.525.374 1.067l.368 1.098q.273.835.54 1.704l.352 1.175q.349 1.19.686 2.441l.333 1.267q.165.641.328 1.298l.32 1.328.316 1.359.155.69.305 1.406.15.714.297 1.45.29 1.482.2 1.067L14.55 51.039 1.952 22.966 36.53 1.526a3.5 3.5 0 0 1 3.605-.051z"/><path fill="#e32fa6" d="M4.805 26.966Q22.203 66.668 22.203 74.47c8.436-7.124 34.2-15.005 44.005-15.505C62.135 39.614 51.622 6.753 47.482 6.753q-31.89 7.63-42.677 20.213"/><path fill="url(#d)" fill-rule="nonzero" d="M47.482 5.753h-.118l-.114.027q-1.193.285-2.354.578l-1.537.392q-.762.198-1.512.399l-1.485.405-1.46.41-1.434.418q-1.065.316-2.102.637l-1.37.433-1.344.44q-5.989 1.989-10.933 4.233l-1.086.502-1.06.508q-.786.383-1.543.774l-.996.524a61 61 0 0 0-4.592 2.715l-.842.562q-4.555 3.108-7.554 6.605l-.409.477 1.607 3.68L6.86 34.21l1.53 3.58.877 2.074 1.12 2.675 1.324 3.203 1.238 3.044.928 2.32.873 2.22.618 1.597.962 2.536.707 1.913.652 1.811.452 1.291.285.83.527 1.58.243.752.229.726.215.7.297 1.003.18.636.167.61.153.584.139.56.125.532.11.507.098.481.044.231.076.442.063.417.026.198.041.378.016.179.021.338q.007.163.007.313v2.154l1.645-1.39c1.52-1.283 3.753-2.649 6.44-4.016l.911-.456.468-.227.959-.455.986-.453.504-.226 1.024-.45 1.048-.446.532-.221 1.078-.44 1.096-.436.554-.215 1.117-.427 1.13-.42 1.14-.412 1.148-.405 1.154-.396 1.157-.387 1.159-.377 1.158-.367 1.155-.355.576-.173 1.146-.337q.285-.083.57-.163l1.134-.318 1.122-.303 1.109-.289.548-.138 1.085-.266.535-.126 1.055-.241 1.032-.223.508-.105.995-.197.488-.09.953-.168c1.72-.29 3.286-.477 4.637-.546l1.169-.06-.241-1.145a236 236 0 0 0-2.435-10.287l-.58-2.205c-.394-1.48-.805-2.979-1.228-4.483l-.645-2.26a312 312 0 0 0-4.13-13.211l-.527-1.542-.516-1.478-.507-1.423-.662-1.81-.487-1.292-.477-1.234-.313-.79-.463-1.138-.304-.725-.3-.7-.296-.672-.293-.646-.289-.62-.285-.591-.281-.565-.278-.538-.274-.51-.136-.244-.269-.468a23 23 0 0 0-.265-.44l-.262-.413-.258-.384-.255-.355c-.97-1.308-1.865-1.983-2.69-1.983m0 1c1.118 0 2.7 2.396 4.495 6.274l.402.886q.203.455.41.932l.413.977.42 1.02.424 1.058.428 1.097.431 1.132q.109.287.217.579l.435 1.18.437 1.212.438 1.238.438 1.265.439 1.287.656 1.97.435 1.335.434 1.351.43 1.365.427 1.375.633 2.079.621 2.09.407 1.397.4 1.397.394 1.395.575 2.082.373 1.379.363 1.368.354 1.356.343 1.342.332 1.325.32 1.305.308 1.285.294 1.26.281 1.236.267 1.207.252 1.177c-1.596.081-3.615.358-5.914.796l-1.001.197-.513.106-1.049.225-1.076.244-.548.128-1.113.27-1.135.286-1.154.303-1.171.317q-.59.164-1.185.333l-1.197.346-.602.178-1.209.367q-.606.186-1.214.379l-1.218.391-.608.2-1.217.408-.608.208-1.21.423-1.204.433-.598.22-1.188.445q-.59.226-1.174.454l-1.158.462q-.575.232-1.14.468l-1.118.474-1.096.48c-4.33 1.929-8.033 3.976-10.387 5.964q0-.156-.007-.325l-.02-.35-.036-.376-.022-.198-.056-.414-.033-.216-.077-.453-.09-.478-.104-.503-.119-.53-.132-.554-.146-.58-.16-.606-.174-.63-.188-.657-.308-1.033-.34-1.09-.243-.76-.257-.783-.557-1.645-.454-1.301-.32-.9-.334-.924-.348-.95-.548-1.473-.78-2.053-.41-1.065-.642-1.645-.905-2.283-.96-2.385-.757-1.856-.788-1.913-1.1-2.64-1.155-2.743-1.522-3.572-1.61-3.73-1.696-3.891q8.765-10.223 31.46-17.178l1.41-.424.715-.21 1.45-.416 1.475-.41 1.503-.403 1.528-.397 1.555-.39q.784-.195 1.581-.385"/><path fill="#e32fa6" d="m22.126 75.355-.414.589a.492.492 0 0 1-.869-.128Q10.342 44.298.5 26.966v-3.368a1 1 0 0 1 1.754-.656q2.55 2.932 2.551 4.024Q22.82 68.05 22.306 74.854a1 1 0 0 1-.18.501"/><path fill="#000" fill-rule="nonzero" d="M1.5 22.098a1.5 1.5 0 0 0-1.5 1.5v3.5l.065.115q.654 1.152 1.312 2.367l.658 1.232q.33.623.66 1.262l.66 1.294.663 1.326.664 1.357.332.69.667 1.406.668 1.436q.333.726.669 1.467l.67 1.5.673 1.53q.336.774.674 1.563l.675 1.594.677 1.625.339.825.679 1.672.34.848.681 1.72.683 1.752.342.888.685 1.799.687 1.83.688 1.862.69 1.893.69 1.925.693 1.957.694 1.988.695 2.02.697 2.05.699 2.083a.992.992 0 0 0 1.751.258l.415-.589a1.5 1.5 0 0 0 .27-.751l.009-.143q.006-.144.006-.3l-.008-.327-.022-.353a12 12 0 0 0-.037-.378l-.05-.405-.031-.212-.072-.444-.042-.231-.093-.483-.108-.51-.122-.534-.21-.852-.158-.6-.172-.628-.186-.653-.2-.679-.216-.705-.349-1.107-.25-.771-.403-1.206-.435-1.265-.467-1.324-.5-1.383-.715-1.937-.574-1.521-.816-2.122-.873-2.226-.931-2.333-.988-2.438-.778-1.899-.811-1.957-.843-2.018-1.477-3.495-1.246-2.916-1.977-4.573-1.36-3.115-.013-.118c-.123-.816-.857-1.986-2.208-3.595l-.447-.523a1.5 1.5 0 0 0-1.132-.515m0 1a.5.5 0 0 1 .377.172l.206.239.385.458.179.218.33.418.294.39c.688.938 1.034 1.61 1.034 1.973l.042.2 2.086 4.786 1.317 3.055 1.564 3.666.894 2.118.86 2.056.829 1.996 1.052 2.565.994 2.456 1.159 2.916.438 1.119.63 1.627.595 1.565.563 1.503.53 1.442.335.927.32.9.452 1.298.42 1.235.385 1.175.239.748.224.72.21.694.194.666.264.946.23.885.136.555.12.528.107.5.047.24.084.458.036.22.061.416.047.39q.02.187.032.361l.017.334q.01.32-.01.585l-.015.088a.5.5 0 0 1-.075.162l-.406.575-.35-1.05q-.357-1.062-.712-2.107l-.71-2.075-.709-2.041-.707-2.01-.705-1.976-.704-1.944-.703-1.912-.35-.943-.7-1.863a371 371 0 0 0-1.048-2.733l-.696-1.78-.348-.88-.694-1.731-.693-1.7q-.172-.42-.346-.838l-.69-1.65-.345-.813-.688-1.602-.344-.79-.686-1.552-.685-1.52-.683-1.488a193 193 0 0 0-2.379-4.951l-.676-1.341-.338-.659-.674-1.292q-.674-1.277-1.344-2.487L1 26.834v-3.236a.5.5 0 0 1 .5-.5"/><path fill="#4949f8" stroke="#000" stroke-opacity=".6" d="M13.397 28.032q9.763 19.434 13.311 37.934 10.22-7.814 29.794-15.147-4.42-25.853-12.74-34.853-16.783 1.688-30.365 12.066Z"/><path fill="#000" fill-rule="nonzero" d="m38.12 47.099.897-16.501 4.537 11.558q.304.773.245 1.1-.06.328-.633.696l-1.509.933.251.64a57 57 0 0 1 1.976-.819q.96-.376 1.697-.652l.817-.307q.87-.328 2.012-.724 1.14-.399 2.267-.79l-.25-.64-2.493.416q-.532.078-.792-.145-.26-.225-.583-1.05L42 29.204q-.303-.772-.13-1.204.175-.432.902-.889l1.552-.98-.271-.692a19 19 0 0 1-1.309.567 96 96 0 0 1-3.2 1.202q-.808.288-1.483.48l-.795 14.293-10.915-9.897q-.333.186-1.145.506t-1.82.698l-.231.087q-1.812.675-2.25.753l.27.693 2.594-.637 5.332 13.582q.125.32.182.543a.63.63 0 0 1-.036.426 1.3 1.3 0 0 1-.337.416 4.5 4.5 0 0 1-.73.488l-1.393.829.25.639a112 112 0 0 1 3.836-1.532 73 73 0 0 1 3.381-1.177l-.25-.64-2.61.675q-.85.227-1.34-1.025l-4.736-12.064z"/></g></svg>