<svg xmlns="http://www.w3.org/2000/svg" viewBox="0 0 64 64"><rect width="42" height="50" x="12" y="5" opacity=".2" rx="3.818" ry="3.846"/><rect width="42" height="50" x="12" y="4" fill="#e4e4e4" rx="3.818" ry="3.846"/><path fill="#cac9c5" d="M16 37v4h30v-2h4v-2zm0-29v2h20V8Zm0 16h34v8H26v2H16Zm16-5v2H16v-8h34v6z"/><path d="M28 11s-4 .001-4 7.605l.02 13.504 2.015 1L25.977 43H24.94s-.93-.068-.93.863v11.535l.028-.02C24.236 58.504 26.855 61 30.027 61c3.3 0 6-2.7 6-6 0-3.083-2.36-5.643-5.363-5.965l-1.777-5.426c-.163-.49-.604-.596-.887-.613Zm2.02 40.988a2.987 2.987 0 0 1 3.003 3.004 2.987 2.987 0 0 1-3.003 3.004 2.987 2.987 0 0 1-3.004-3.004 2.987 2.987 0 0 1 3.004-3.004" opacity=".1"/><path fill="#858585" d="M25.966 43.818H28V10s-4 0-4 7.604l.02 13.506 2.014 1z"/><path fill="#ed333b" d="M24.01 54.4V42.864c0-.931.932-.864.932-.864h2.81s.892-.13 1.137.608l2.186 6.675z"/><path fill="#ed333b" d="M30.027 48c-3.299 0-6 2.7-6 6s2.701 6 6 6 6-2.7 6-6-2.7-6-6-6m-.008 2.987a2.99 2.99 0 0 1 3.004 3.004 2.99 2.99 0 0 1-3.004 3.005 2.99 2.99 0 0 1-3.005-3.005 2.99 2.99 0 0 1 3.005-3.004"/><path d="M42.54 17.329 19.913 39.954c-.212-.188-.601-.427-1.062-.196l-5.094 2.578c-2.35-1.893-5.828-1.75-8.008.43-2.333 2.333-2.333 6.152 0 8.484 2.243 2.244 5.862 2.33 8.21.258l.005.035 8.156-8.156c.658-.658-.047-1.27-.047-1.27l-.734-.73 6.953-7.035 2.133.719 9.562-9.535c5.377-5.377 2.551-8.207 2.551-8.207M10.003 43.997c.767 0 1.534.295 2.125.886a2.99 2.99 0 0 1 0 4.25 2.99 2.99 0 0 1-4.25 0 2.99 2.99 0 0 1 0-4.25 3 3 0 0 1 2.125-.886" opacity=".1"/><path fill="#858585" d="m20.064 41.68-1.439-1.438 23.913-23.913s2.829 2.828-2.548 8.205l-9.565 9.535-2.13-.716z"/><path fill="#ed333b" d="m13.964 50.545 8.157-8.158c.658-.658-.048-1.268-.048-1.268l-1.986-1.987s-.54-.723-1.234-.374l-6.266 3.173z"/><path fill="#ed333b" d="M14.235 41.765c2.333 2.333 2.333 6.153 0 8.485-2.333 2.333-6.153 2.333-8.485 0-2.333-2.332-2.333-6.152 0-8.485 2.332-2.333 6.152-2.333 8.485 0m-2.106 2.118a2.99 2.99 0 0 0-4.249 0 2.99 2.99 0 0 0 0 4.25 2.99 2.99 0 0 0 4.25 0 2.99 2.99 0 0 0 0-4.25"/><circle cx="-42.923" cy="5.198" r=".91" fill="#3d3846" transform="rotate(45)scale(-1 1)"/><path fill="#fff" d="M15.816 4C13.701 4 12 5.717 12 7.848v1C12 6.718 13.701 5 15.816 5h34.368C52.299 5 54 6.717 54 8.848v-1C54 5.718 52.299 4 50.184 4z" opacity=".2"/></svg>