<svg xmlns="http://www.w3.org/2000/svg" xmlns:xlink="http://www.w3.org/1999/xlink" viewBox="0 0 96 96"><defs><linearGradient id="b" x1="50%" x2="50%" y1="0%" y2="100%"><stop offset="0%" stop-color="#6ad1ff"/><stop offset="100%" stop-color="#269aff"/></linearGradient><linearGradient id="c" x1="50%" x2="50%" y1="1.333%" y2="98.599%"><stop offset="0%" stop-color="#4ec2ff"/><stop offset="100%" stop-color="#198aea"/></linearGradient><linearGradient id="d" x1="50%" x2="50%" y1="0%" y2="100%"><stop offset="0%" stop-color="#e4f7ff"/><stop offset="98.503%" stop-color="#cef"/></linearGradient><linearGradient id="e" x1="50%" x2="50%" y1="0%" y2="100%"><stop offset="0%" stop-color="#3c86dc"/><stop offset="100%" stop-color="#1c4eb7"/></linearGradient><filter id="a" width="130.8%" height="130.8%" x="-15.4%" y="-15.4%" filterUnits="objectBoundingBox"><feOffset dy="2" in="SourceAlpha" result="shadowOffsetOuter1"/><feGaussianBlur in="shadowOffsetOuter1" result="shadowBlurOuter1" stdDeviation="2"/><feColorMatrix in="shadowBlurOuter1" result="shadowMatrixOuter1" values="0 0 0 0 0 0 0 0 0 0 0 0 0 0 0 0 0 0 0.2 0"/><feMerge><feMergeNode in="shadowMatrixOuter1"/><feMergeNode in="SourceGraphic"/></feMerge></filter></defs><g fill="none" fill-rule="evenodd" filter="url(#a)" transform="translate(8.999 9)"><rect width="78" height="78" x=".001" fill="url(#b)" rx="18"/><path fill="url(#c)" d="M55 0v8.999h14l.001-6.59q.51.295.999.621V9h5.592q.285.49.538 1H70v14h8v1h-8v14h8v1h-8v14h8v1h-8v14l5.593.001q-.296.51-.623 1L70 69.999v4.97q-.49.328-1 .623V70H55v8h-1v-8.001H40V78h-1v-8.001H25V78h-1v-8.001H10v6.13q-.51-.255-1.001-.538L9 69.999 3.032 70q-.327-.49-.623-1H9V55H0v-1h9V40H0v-1h9V25H0v-1h9V10H1.872q.254-.51.538-1H9V2.41q.49-.285 1-.538V9h14V0h1v8.999h14V0h1v8.999h14V0zM24 54.999H10v14h14zm15 0H25v14h14zm15 0H40v14h14zm15 0H55v14h14zm-45-15H10v14h14zm15 0H25v14h14zm15 0H40v14h14zm15 0H55v14h14zm-45-15H10v14h14zm15 0H25v14h14zm15 0H40v14h14zm15 0H55v14h14zm-45-15H10v14h14zm15 0H25v14h14zm15 0H40v14h14zm15 0H55v14h14z"/><circle cx="39.001" cy="39" r="30" fill="url(#d)" stroke="#3587dc" stroke-width="3"/><path fill="url(#e)" fill-rule="nonzero" stroke="url(#e)" d="M34.367 37.34q1.026.799 2.936.685t4.645-1.425a164 164 0 0 0 4.703-2.451 65 65 0 0 0 4.36-2.565q1.767-1.14 3.107-1.938a72 72 0 0 0 1.51-.912q1.026-.627 1.169-1.226.142-.598-.827-1.852-.741-.798-2.223-1.71a12.6 12.6 0 0 0-3.021-1.368 10 10 0 0 1-1.054-.314 1.7 1.7 0 0 1-.599-.37 1.2 1.2 0 0 1-.313-.57 21 21 0 0 1-.2-.912q-.228-1.14-1.054-1.14t-1.169.855q-.399 1.026-1.596 2.223a18.5 18.5 0 0 1-2.764 2.251 28 28 0 0 1-3.306 1.91q-1.74.855-3.164 1.197-1.368.342-1.767.94-.399.6.228 1.226 1.938 1.766 4.731-.171a33 33 0 0 0 1.026-.713q.513-.37 1.14-.883A68 68 0 0 1 43.43 30.3q.969.884 2.052 2.024a41 41 0 0 1-5.101 1.966q-2.65.827-5.045.94-1.482.115-1.795.685-.315.57.826 1.425Zm-7.863 21.387.111-.011q.741-.114 1.226-1.283.484-1.168.484-4.19V42.337q.005-4.151.057-7.418.057-3.563.114-5.87.057-2.31.171-3.221.17-1.71.2-2.223.028-.513-.029-1.026a6.2 6.2 0 0 0-.427-1.54q-.314-.74-.941-.74-1.767 0-1.767 3.306.057 3.02.086 5.33.028 2.308.028 4.246t-.028 3.62a207 207 0 0 1-.086 3.39 70 70 0 0 1-3.648 1.625q-1.482.6-2.508.94-1.026.343-1.767.485t-1.425.257q-1.311.228-1.767 1.026t.399 2.109q1.425 2.28 4.047 0 .969-.855 2.736-2.052a171 171 0 0 1 3.819-2.508 790 790 0 0 0-.114 2.736q-.057 1.425-.171 3.135v.912q0 .74-.028 1.681a66 66 0 0 0-.029 1.995v1.853q0 2.565.314 3.505.313.94 1.054.827zm20.46-27.143a51 51 0 0 1-1.795-2.765 54 54 0 0 1-1.625-2.935q.114-.057.513-.456.741-.683 1.824-.884t2.907-.085q.285 0 .77.057.484.057 1.111.228 1.881.513 2.166 1.282.285.77-.855 1.91a17.6 17.6 0 0 1-2.251 1.88 35 35 0 0 1-2.765 1.768Zm-23.94 2.565q.912.456 1.226 0t-.485-1.14q-2.337-1.881-3.249-3.762-.798-1.483-1.596-1.653-.798-.171-1.938 1.026-1.938 2.052.399 3.02 1.824.742 3.335 1.397 1.51.656 2.308 1.112Zm25.622 24.424q1.738.03 2.65-.541 1.083-.684 1.767-1.368a5.1 5.1 0 0 0 1.083-1.625q.399-.94.57-2.223t.171-3.106a605 605 0 0 1-.085-4.36 58 58 0 0 1 .028-3.221q2.451.342 4.332 1.083 1.482.57 2.423.37.94-.2 1.738-1.624.513-.912-.028-1.368-.542-.456-2.366-.627a48 48 0 0 0-2.679-.171 463 463 0 0 0-3.306-.114 68 68 0 0 1 .114-2.366q.057-.77.171-1.396a3.4 3.4 0 0 0-.313-1.881q-.428-.912-.998-.912-.684 0-1.083.655-.399.656-.342 1.625.057 1.14.086 2.223t.028 2.052q-1.995 0-4.389.085t-5.358.2q-2.394.114-4.303.142-1.91.03-2.879-.2-1.539-.34-2.679.172-1.14.513-1.596 1.88-.456 1.198.342 1.768t2.451-.285q.513-.228 1.226-.456a16 16 0 0 1 1.738-.428q1.026-.2 2.48-.342a84 84 0 0 1 3.562-.256q3.078-.114 5.33-.143 2.25-.028 4.075.086a114 114 0 0 0-.142 4.16 48 48 0 0 1-.2 3.763q-.342 3.078-1.026 4.303t-2.109 1.454q-.855.228-2.052.17a19.5 19.5 0 0 1-2.48-.284 21 21 0 0 1-2.479-.599 21 21 0 0 1-1.995-.712q-1.025-.456-1.34-.029-.312.428.257 1.055.741.855 2.423 1.624 1.68.77 3.562 1.254 1.88.485 3.62.513Zm-4.988-8.35q1.026.627 1.254.028.228-.598-.57-1.396a118 118 0 0 1-1.852-1.881 5.2 5.2 0 0 1-.884-1.254 3.9 3.9 0 0 0-1.026-.998q-.57-.37-1.368-.085-1.596.4-1.311 1.88.17.742.77 1.283.598.542 1.852.998.913.342 1.51.598.6.257 1.625.827Z"/></g></svg>