<svg xmlns="http://www.w3.org/2000/svg" xmlns:xlink="http://www.w3.org/1999/xlink" viewBox="0 0 96 96"><defs><linearGradient id="b" x1="50%" x2="50%" y1="0%" y2="100%"><stop offset="0%" stop-color="#533636"/><stop offset="100%" stop-color="#3c1f1f"/></linearGradient><linearGradient id="c" x1="50%" x2="50%" y1="1.677%" y2="98.137%"><stop offset="0%" stop-color="#fff5bb" stop-opacity=".316"/><stop offset="100%" stop-color="#dec651" stop-opacity=".619"/></linearGradient><linearGradient id="d" x1="50%" x2="50%" y1="0%" y2="100%"><stop offset="0%" stop-color="#9a7d50"/><stop offset="100%" stop-color="#735137"/></linearGradient><linearGradient id="e" x1="50%" x2="50%" y1="0%" y2="100%"><stop offset="1.677%" stop-color="#fff5bb"/><stop offset="98.137%" stop-color="#dec651"/></linearGradient><linearGradient id="f" x1="50%" x2="50%" y1="1.677%" y2="98.137%"><stop offset="0%" stop-color="#fff5bb"/><stop offset="100%" stop-color="#dec651"/></linearGradient><filter id="a" width="128.6%" height="132%" x="-14.3%" y="-16%" filterUnits="objectBoundingBox"><feOffset dy="2" in="SourceAlpha" result="shadowOffsetOuter1"/><feGaussianBlur in="shadowOffsetOuter1" result="shadowBlurOuter1" stdDeviation="2"/><feColorMatrix in="shadowBlurOuter1" result="shadowMatrixOuter1" values="0 0 0 0 0 0 0 0 0 0 0 0 0 0 0 0 0 0 0.2 0"/><feMerge><feMergeNode in="shadowMatrixOuter1"/><feMergeNode in="SourceGraphic"/></feMerge></filter></defs><g fill="none" fill-rule="evenodd" filter="url(#a)" transform="translate(6 9)"><rect width="84" height="75" fill="url(#b)" rx="18"/><path fill="#000" fill-opacity=".4" fill-rule="nonzero" d="M66 0c9.941 0 18 8.059 18 18v39c0 9.941-8.059 18-18 18H18C8.059 75 0 66.941 0 57V18C0 8.059 8.059 0 18 0zm0 1H18C8.72 1 1.175 8.437 1.003 17.677L1 18v39c0 9.28 7.437 16.825 16.677 16.997L18 74h48c9.28 0 16.825-7.437 16.997-16.677L83 57V18c0-9.28-7.437-16.825-16.677-16.997z"/><path fill="url(#c)" d="M32 1h20v18H32z"/><path fill="#000" fill-opacity=".397" fill-rule="nonzero" d="M53 0H31v20h22zm-1 1v18H32V1z"/><circle cx="42" cy="43" r="27" fill="url(#d)"/><circle cx="42" cy="43" r="22"/><path fill="#000" fill-opacity=".64" fill-rule="nonzero" d="M42 16c14.912 0 27 12.088 27 27S56.912 70 42 70 15 57.912 15 43s12.088-27 27-27m0 1c-14.36 0-26 11.64-26 26s11.64 26 26 26 26-11.64 26-26-11.64-26-26-26"/><path fill="#000" fill-opacity=".64" fill-rule="nonzero" d="M42 21c12.15 0 22 9.85 22 22s-9.85 22-22 22-22-9.85-22-22 9.85-22 22-22m0 1c-11.598 0-21 9.402-21 21s9.402 21 21 21 21-9.402 21-21-9.402-21-21-21"/><circle cx="9" cy="18" r="5" fill="url(#e)"/><circle cx="75" cy="18" r="5" fill="url(#e)"/><circle cx="9" cy="34" r="5" fill="url(#e)"/><circle cx="75" cy="34" r="5" fill="url(#e)"/><circle cx="9" cy="48" r="5" fill="url(#e)"/><circle cx="75" cy="50" r="5" fill="url(#e)"/><path fill="#000" fill-opacity=".397" fill-rule="nonzero" d="M9 12a6 6 0 1 0 0 12 6 6 0 0 0 0-12m0 1a5 5 0 1 1 0 10 5 5 0 0 1 0-10m66-1a6 6 0 1 0 0 12 6 6 0 0 0 0-12m0 1a5 5 0 1 1 0 10 5 5 0 0 1 0-10M9 28a6 6 0 1 0 0 12 6 6 0 0 0 0-12m0 1a5 5 0 1 1 0 10 5 5 0 0 1 0-10m66-1a6 6 0 1 0 0 12 6 6 0 0 0 0-12m0 1a5 5 0 1 1 0 10 5 5 0 0 1 0-10M9 42a6 6 0 1 0 0 12 6 6 0 0 0 0-12m0 1a5 5 0 1 1 0 10 5 5 0 0 1 0-10m66 1a6 6 0 1 0 0 12 6 6 0 0 0 0-12m0 1a5 5 0 1 1 0 10 5 5 0 0 1 0-10"/><rect width="1" height="4" x="41" y="60" fill="#000" fill-opacity=".308" rx=".5"/><rect width="1" height="4" x="39.014" y="59.896" fill="#000" fill-opacity=".308" rx=".5" transform="rotate(6 39.514 61.896)"/><rect width="1" height="4" x="37.05" y="59.585" fill="#000" fill-opacity=".308" rx=".5" transform="rotate(12 37.55 61.585)"/><rect width="1" height="4" x="35.129" y="59.07" fill="#000" fill-opacity=".308" rx=".5" transform="rotate(18 35.629 61.07)"/><rect width="1" height="4" x="33.272" y="58.357" fill="#000" fill-opacity=".308" rx=".5" transform="rotate(24 33.772 60.357)"/><rect width="1" height="4" x="31.5" y="57.454" fill="#000" fill-opacity=".308" rx=".5" transform="rotate(30 32 59.454)"/><rect width="1" height="4" x="29.832" y="56.371" fill="#000" fill-opacity=".308" rx=".5" transform="rotate(36 30.332 58.371)"/><rect width="1" height="4" x="28.287" y="55.12" fill="#000" fill-opacity=".308" rx=".5" transform="rotate(42 28.787 57.12)"/><rect width="1" height="4" x="26.88" y="53.713" fill="#000" fill-opacity=".308" rx=".5" transform="rotate(48 27.38 55.713)"/><rect width="1" height="4" x="25.629" y="52.168" fill="#000" fill-opacity=".308" rx=".5" transform="rotate(54 26.129 54.168)"/><rect width="1" height="4" x="24.546" y="50.5" fill="#000" fill-opacity=".308" rx=".5" transform="rotate(60 25.046 52.5)"/><rect width="1" height="4" x="23.643" y="48.728" fill="#000" fill-opacity=".308" rx=".5" transform="rotate(66 24.143 50.728)"/><rect width="1" height="4" x="22.93" y="46.871" fill="#000" fill-opacity=".308" rx=".5" transform="rotate(72 23.43 48.871)"/><rect width="1" height="4" x="22.415" y="44.95" fill="#000" fill-opacity=".308" rx=".5" transform="rotate(78 22.915 46.95)"/><rect width="1" height="4" x="22.104" y="42.986" fill="#000" fill-opacity=".308" rx=".5" transform="rotate(84 22.604 44.986)"/><rect width="1" height="4" x="22" y="41" fill="#000" fill-opacity=".308" rx=".5" transform="rotate(90 22.5 43)"/><rect width="1" height="4" x="22.104" y="39.014" fill="#000" fill-opacity=".308" rx=".5" transform="rotate(96 22.604 41.014)"/><rect width="1" height="4" x="22.415" y="37.05" fill="#000" fill-opacity=".308" rx=".5" transform="rotate(102 22.915 39.05)"/><rect width="1" height="4" x="22.93" y="35.129" fill="#000" fill-opacity=".308" rx=".5" transform="rotate(108 23.43 37.129)"/><rect width="1" height="4" x="23.643" y="33.272" fill="#000" fill-opacity=".308" rx=".5" transform="rotate(114 24.143 35.272)"/><rect width="1" height="4" x="24.546" y="31.5" fill="#000" fill-opacity=".308" rx=".5" transform="rotate(120 25.046 33.5)"/><rect width="1" height="4" x="25.629" y="29.832" fill="#000" fill-opacity=".308" rx=".5" transform="rotate(126 26.129 31.832)"/><rect width="1" height="4" x="26.88" y="28.287" fill="#000" fill-opacity=".308" rx=".5" transform="rotate(132 27.38 30.287)"/><rect width="1" height="4" x="28.287" y="26.88" fill="#000" fill-opacity=".308" rx=".5" transform="rotate(138 28.787 28.88)"/><rect width="1" height="4" x="29.832" y="25.629" fill="#000" fill-opacity=".308" rx=".5" transform="rotate(144 30.332 27.629)"/><rect width="1" height="4" x="31.5" y="24.546" fill="#000" fill-opacity=".308" rx=".5" transform="rotate(150 32 26.546)"/><rect width="1" height="4" x="33.272" y="23.643" fill="#000" fill-opacity=".308" rx=".5" transform="rotate(156 33.772 25.643)"/><rect width="1" height="4" x="35.129" y="22.93" fill="#000" fill-opacity=".308" rx=".5" transform="rotate(162 35.629 24.93)"/><rect width="1" height="4" x="37.05" y="22.415" fill="#000" fill-opacity=".308" rx=".5" transform="rotate(168 37.55 24.415)"/><rect width="1" height="4" x="39.014" y="22.104" fill="#000" fill-opacity=".308" rx=".5" transform="rotate(174 39.514 24.104)"/><rect width="1" height="4" x="41" y="22" fill="#000" fill-opacity=".308" rx=".5" transform="rotate(180 41.5 24)"/><rect width="1" height="4" x="42.986" y="22.104" fill="#000" fill-opacity=".308" rx=".5" transform="rotate(-174 43.486 24.104)"/><rect width="1" height="4" x="44.95" y="22.415" fill="#000" fill-opacity=".308" rx=".5" transform="rotate(-168 45.45 24.415)"/><rect width="1" height="4" x="46.871" y="22.93" fill="#000" fill-opacity=".308" rx=".5" transform="rotate(-162 47.371 24.93)"/><rect width="1" height="4" x="48.728" y="23.643" fill="#000" fill-opacity=".308" rx=".5" transform="rotate(-156 49.228 25.643)"/><rect width="1" height="4" x="50.5" y="24.546" fill="#000" fill-opacity=".308" rx=".5" transform="rotate(-150 51 26.546)"/><rect width="1" height="4" x="52.168" y="25.629" fill="#000" fill-opacity=".308" rx=".5" transform="rotate(-144 52.668 27.629)"/><rect width="1" height="4" x="53.713" y="26.88" fill="#000" fill-opacity=".308" rx=".5" transform="rotate(-138 54.213 28.88)"/><rect width="1" height="4" x="55.12" y="28.287" fill="#000" fill-opacity=".308" rx=".5" transform="rotate(-132 55.62 30.287)"/><rect width="1" height="4" x="56.371" y="29.832" fill="#000" fill-opacity=".308" rx=".5" transform="rotate(-126 56.871 31.832)"/><rect width="1" height="4" x="57.454" y="31.5" fill="#000" fill-opacity=".308" rx=".5" transform="rotate(-120 57.954 33.5)"/><rect width="1" height="4" x="58.357" y="33.272" fill="#000" fill-opacity=".308" rx=".5" transform="rotate(-114 58.857 35.272)"/><rect width="1" height="4" x="59.07" y="35.129" fill="#000" fill-opacity=".308" rx=".5" transform="rotate(-108 59.57 37.129)"/><rect width="1" height="4" x="59.585" y="37.05" fill="#000" fill-opacity=".308" rx=".5" transform="rotate(-102 60.085 39.05)"/><rect width="1" height="4" x="59.896" y="39.014" fill="#000" fill-opacity=".308" rx=".5" transform="rotate(-96 60.396 41.014)"/><rect width="1" height="4" x="60" y="41" fill="#000" fill-opacity=".308" rx=".5" transform="rotate(-90 60.5 43)"/><rect width="1" height="4" x="59.896" y="42.986" fill="#000" fill-opacity=".308" rx=".5" transform="rotate(-84 60.396 44.986)"/><rect width="1" height="4" x="59.585" y="44.95" fill="#000" fill-opacity=".308" rx=".5" transform="rotate(-78 60.085 46.95)"/><rect width="1" height="4" x="59.07" y="46.871" fill="#000" fill-opacity=".308" rx=".5" transform="rotate(-72 59.57 48.871)"/><rect width="1" height="4" x="58.357" y="48.728" fill="#000" fill-opacity=".308" rx=".5" transform="rotate(-66 58.857 50.728)"/><rect width="1" height="4" x="57.454" y="50.5" fill="#000" fill-opacity=".308" rx=".5" transform="rotate(-60 57.954 52.5)"/><rect width="1" height="4" x="56.371" y="52.168" fill="#000" fill-opacity=".308" rx=".5" transform="rotate(-54 56.871 54.168)"/><rect width="1" height="4" x="55.12" y="53.713" fill="#000" fill-opacity=".308" rx=".5" transform="rotate(-48 55.62 55.713)"/><rect width="1" height="4" x="53.713" y="55.12" fill="#000" fill-opacity=".308" rx=".5" transform="rotate(-42 54.213 57.12)"/><rect width="1" height="4" x="52.168" y="56.371" fill="#000" fill-opacity=".308" rx=".5" transform="rotate(-36 52.668 58.371)"/><rect width="1" height="4" x="50.5" y="57.454" fill="#000" fill-opacity=".308" rx=".5" transform="rotate(-30 51 59.454)"/><rect width="1" height="4" x="48.728" y="58.357" fill="#000" fill-opacity=".308" rx=".5" transform="rotate(-24 49.228 60.357)"/><rect width="1" height="4" x="46.871" y="59.07" fill="#000" fill-opacity=".308" rx=".5" transform="rotate(-18 47.371 61.07)"/><rect width="1" height="4" x="44.95" y="59.585" fill="#000" fill-opacity=".308" rx=".5" transform="rotate(-12 45.45 61.585)"/><rect width="1" height="4" x="42.986" y="59.896" fill="#000" fill-opacity=".308" rx=".5" transform="rotate(-6 43.486 61.896)"/><path fill="url(#f)" d="M42 10a1 1 0 0 1 1 1v31a1 1 0 0 1-2 0V11a1 1 0 0 1 1-1"/><path fill="#000" fill-opacity=".397" fill-rule="nonzero" d="M42 9a2 2 0 0 0-2 2v31a2 2 0 1 0 4 0V11a2 2 0 0 0-2-2m0 1a1 1 0 0 1 1 1v31a1 1 0 0 1-2 0V11a1 1 0 0 1 1-1"/></g></svg>