<svg xmlns="http://www.w3.org/2000/svg" xmlns:xlink="http://www.w3.org/1999/xlink" viewBox="0 0 96 96"><defs><linearGradient id="b" x1="50%" x2="50%" y1="0%" y2="100%"><stop offset="0%" stop-color="#9fd9fe"/><stop offset="100%" stop-color="#66b1fc"/></linearGradient><linearGradient id="c" x1="50%" x2="50%" y1="0%" y2="100%"><stop offset="0%" stop-color="#a0ffa7"/><stop offset="100%" stop-color="#67ff6e"/></linearGradient><linearGradient id="d" x1="50%" x2="50%" y1="0%" y2="100%"><stop offset="0%" stop-color="#ffb0a0"/><stop offset="100%" stop-color="#ff7867"/></linearGradient><filter id="a" width="128.9%" height="131.6%" x="-14.5%" y="-15.8%" filterUnits="objectBoundingBox"><feOffset dy="2" in="SourceAlpha" result="shadowOffsetOuter1"/><feGaussianBlur in="shadowOffsetOuter1" result="shadowBlurOuter1" stdDeviation="2"/><feColorMatrix in="shadowBlurOuter1" result="shadowMatrixOuter1" values="0 0 0 0 0 0 0 0 0 0 0 0 0 0 0 0 0 0 0.2 0"/><feMerge><feMergeNode in="shadowMatrixOuter1"/><feMergeNode in="SourceGraphic"/></feMerge></filter></defs><g fill="none" fill-rule="evenodd" filter="url(#a)" transform="translate(6 10)"><rect width="58" height="55" x="25" y="21" fill="url(#b)" rx="2"/><path fill="#000" fill-opacity=".578" fill-rule="nonzero" d="M81 21a2 2 0 0 1 2 2v51a2 2 0 0 1-2 2H27a2 2 0 0 1-2-2V23a2 2 0 0 1 2-2zm0 1H27a1 1 0 0 0-.993.883L26 23v51a1 1 0 0 0 .883.993L27 75h54a1 1 0 0 0 .993-.883L82 74V23a1 1 0 0 0-.883-.993z"/><rect width="58" height="55" x="13" y="11" fill="url(#c)" rx="2"/><path fill="#000" fill-opacity=".578" fill-rule="nonzero" d="M69 11a2 2 0 0 1 2 2v51a2 2 0 0 1-2 2H15a2 2 0 0 1-2-2V13a2 2 0 0 1 2-2zm0 1H15a1 1 0 0 0-.993.883L14 13v51a1 1 0 0 0 .883.993L15 65h54a1 1 0 0 0 .993-.883L70 64V13a1 1 0 0 0-.883-.993z"/><rect width="58" height="55" fill="url(#d)" rx="2"/><path fill="#000" fill-opacity=".578" fill-rule="nonzero" d="M56 0a2 2 0 0 1 2 2v51a2 2 0 0 1-2 2H2a2 2 0 0 1-2-2V2a2 2 0 0 1 2-2zm0 1H2a1 1 0 0 0-.993.883L1 2v51a1 1 0 0 0 .883.993L2 54h54a1 1 0 0 0 .993-.883L57 53V2a1 1 0 0 0-.883-.993z"/></g></svg>