<svg xmlns="http://www.w3.org/2000/svg" xmlns:xlink="http://www.w3.org/1999/xlink" viewBox="0 0 96 96"><defs><linearGradient id="c" x1="50%" x2="50%" y1="0%" y2="100%"><stop offset="0%" stop-color="#f34096"/><stop offset="100%" stop-color="#e21e5d"/></linearGradient><linearGradient id="d" x1="50%" x2="50%" y1="0%" y2="100%"><stop offset="0%" stop-color="#f34096"/><stop offset="100%" stop-color="#e21e5d"/></linearGradient><radialGradient id="b" cx="48.657%" cy="47.787%" r="52.363%" fx="48.657%" fy="47.787%"><stop offset="0%" stop-color="#fffbfc"/><stop offset="66.035%" stop-color="#fffafb"/><stop offset="100%" stop-color="#ffe2ec"/></radialGradient><filter id="a" width="130.1%" height="130.1%" x="-15.1%" y="-15.1%" filterUnits="objectBoundingBox"><feOffset dy="2" in="SourceAlpha" result="shadowOffsetOuter1"/><feGaussianBlur in="shadowOffsetOuter1" result="shadowBlurOuter1" stdDeviation="2"/><feColorMatrix in="shadowBlurOuter1" result="shadowMatrixOuter1" values="0 0 0 0 0 0 0 0 0 0 0 0 0 0 0 0 0 0 0.2 0"/><feMerge><feMergeNode in="shadowMatrixOuter1"/><feMergeNode in="SourceGraphic"/></feMerge></filter></defs><g fill="none" filter="url(#a)" transform="translate(7 7)"><circle cx="41.5" cy="41.5" r="41.5" fill="url(#b)" stroke="url(#c)"/><path fill="url(#d)" d="m32.5 37-.001 3.613q.34-.486.754-.947C34.748 38.005 36.657 37 39 37a7.5 7.5 0 0 1 7.117 5.127q.093-.204.253-.5l.086-.155c.349-.616.78-1.23 1.297-1.806C49.248 38.005 51.157 37 53.5 37a7.5 7.5 0 0 1 7.496 7.257L61 44.5v15h-1v-15a6.5 6.5 0 0 0-6.5-6.5c-2.032 0-3.685.87-5.003 2.334a9.3 9.3 0 0 0-1.171 1.631l-.144.264a7 7 0 0 0-.155.312l-.063.145-.079.15c-.035.078-.09.231-.15.475-.13.534-.217 1.258-.232 2.196l-.003.321V59.5h-1v-15A6.5 6.5 0 0 0 39 38c-2.032 0-3.685.87-5.003 2.334a9.3 9.3 0 0 0-1.171 1.631l-.144.264a7 7 0 0 0-.155.312l-.027.06V59.5h-1V37zm-10-13.5v36h-1v-36z"/></g></svg>