<svg xmlns="http://www.w3.org/2000/svg" xmlns:xlink="http://www.w3.org/1999/xlink" viewBox="0 0 128 128"><defs><filter id="a" width="129.6%" height="129.6%" x="-14.8%" y="-14.8%" filterUnits="objectBoundingBox"><feOffset dy="2" in="SourceAlpha" result="shadowOffsetOuter1"/><feGaussianBlur in="shadowOffsetOuter1" result="shadowBlurOuter1" stdDeviation="3"/><feColorMatrix in="shadowBlurOuter1" result="shadowMatrixOuter1" values="0 0 0 0 0 0 0 0 0 0 0 0 0 0 0 0 0 0 0.2 0"/><feMerge><feMergeNode in="shadowMatrixOuter1"/><feMergeNode in="SourceGraphic"/></feMerge></filter><filter id="e" width="100.9%" height="100.9%" x="-.5%" y="-.5%" filterUnits="objectBoundingBox"><feOffset dy="1" in="SourceAlpha" result="shadowOffsetInner1"/><feComposite in="shadowOffsetInner1" in2="SourceAlpha" k2="-1" k3="1" operator="arithmetic" result="shadowInnerInner1"/><feColorMatrix in="shadowInnerInner1" values="0 0 0 0 1 0 0 0 0 1 0 0 0 0 1 0 0 0 0.5 0"/></filter><filter id="h" width="145%" height="137%" x="-22.5%" y="-14.4%" filterUnits="objectBoundingBox"><feMorphology in="SourceAlpha" operator="dilate" radius="4.5" result="shadowSpreadOuter1"/><feOffset dy="2" in="shadowSpreadOuter1" result="shadowOffsetOuter1"/><feMorphology in="SourceAlpha" radius="4.5" result="shadowInner"/><feOffset dy="2" in="shadowInner" result="shadowInner"/><feComposite in="shadowOffsetOuter1" in2="shadowInner" operator="out" result="shadowOffsetOuter1"/><feGaussianBlur in="shadowOffsetOuter1" result="shadowBlurOuter1" stdDeviation="3"/><feColorMatrix in="shadowBlurOuter1" values="0 0 0 0 0 0 0 0 0 0 0 0 0 0 0 0 0 0 0.1 0"/></filter><linearGradient id="c" x1="47.895%" x2="47.895%" y1="2.355%" y2="101.471%"><stop offset="0%" stop-color="#df736d"/><stop offset="100%" stop-color="#901f19"/></linearGradient><linearGradient id="f" x1="47.895%" x2="47.895%" y1="-1.471%" y2="101.471%"><stop offset="0%" stop-color="#bc3c34"/><stop offset="100%" stop-color="#5f1b19"/></linearGradient><path id="b" d="M107 9v90a8 8 0 0 1-8 8H9a8 8 0 0 1-8-8V9a8 8 0 0 1 8-8h90a8 8 0 0 1 8 8"/><path id="g" d="M41.548 26.226C30.58 31 23.937 40.844 21.992 49.09c-1.944 8.246-.692 14.371.863 19.01 1.165 3.474 2.91 6.726 5.126 9.466a40.2 40.2 0 0 0 7.862 7.369c3.213 2.271 9.201 5.087 16.419 5.533 6.338.391 13.247-.869 20.213-5.292 8.56-5.435 12.226-13.6 12.97-20.563.257-2.404.042-6.927-1.121-10.736a22.63 22.63 0 0 0-18.78-15.843l-1.457-.186h-2.076a21.8 21.8 0 0 0-7.374 1.288 20 20 0 0 0-3.606 1.69c-3.384 2.045-5.356 4.704-6.066 5.69-3.61 5.017-3.694 11.545-1.003 16.228 2.627 4.571 7.789 7.588 13.975 5.924 7.89-2.122 9.814-9.666 7.416-18.194-2.399-8.528-5.06-18.363-5.463-20.091a38 38 0 0 0-.22-.875 7.95 7.95 0 0 1 4.278-9.185 8.9 8.9 0 0 1 10.45 2.102l.168.188"/></defs><g fill="none" fill-rule="evenodd" filter="url(#a)" transform="translate(10 10)"><g fill-rule="nonzero"><use xlink:href="#b" fill="url(#c)"/><use xlink:href="#b" fill="#000" filter="url(#e)"/></g><path fill="url(#f)" fill-rule="nonzero" d="M99 0H9a9 9 0 0 0-9 9v90a9 9 0 0 0 9 9h90a9 9 0 0 0 9-9V9a9 9 0 0 0-9-9m0 1a8 8 0 0 1 8 8v90a8 8 0 0 1-8 8H9a8 8 0 0 1-8-8V9a8 8 0 0 1 8-8z"/><path stroke="#712e2a" stroke-linecap="round" stroke-linejoin="round" stroke-width="9" d="M42.548 27.76C31.58 32.537 24.937 42.38 22.992 50.626c-1.944 8.247-.692 14.371.863 19.01 1.165 3.474 2.91 6.726 5.126 9.467a40.2 40.2 0 0 0 7.862 7.368c3.213 2.272 9.201 5.088 16.419 5.533 6.338.392 13.247-.869 20.213-5.292 8.56-5.435 12.226-13.6 12.97-20.563.257-2.403.042-6.927-1.121-10.736q0 0 0 0a22.63 22.63 0 0 0-18.78-15.843l-1.457-.186h0-2.076a21.8 21.8 0 0 0-7.374 1.288 20 20 0 0 0-3.606 1.691c-3.384 2.044-5.356 4.703-6.066 5.69-3.61 5.016-3.694 11.544-1.003 16.228 2.627 4.57 7.789 7.587 13.975 5.924 7.89-2.123 9.814-9.667 7.416-18.194-2.399-8.528-5.06-18.364-5.463-20.092a38 38 0 0 0-.22-.875 7.95 7.95 0 0 1 4.278-9.184 8.9 8.9 0 0 1 10.45 2.101l.168.188h0"/><g stroke-linecap="round" stroke-linejoin="round"><use xlink:href="#g" fill="#000" filter="url(#h)"/><use xlink:href="#g" stroke="#fff" stroke-width="9"/></g></g></svg>