<svg xmlns="http://www.w3.org/2000/svg" xmlns:xlink="http://www.w3.org/1999/xlink" viewBox="0 0 96 96"><defs><linearGradient id="b" x1="50%" x2="50%" y1="53.485%" y2="100%"><stop offset="0%" stop-color="#fdfdfd"/><stop offset="100%" stop-color="#d1d1d1"/></linearGradient><linearGradient id="d" x1="50%" x2="50%" y1="0%" y2="100%"><stop offset="0%" stop-color="#424242"/><stop offset="100%" stop-color="#282828"/></linearGradient><linearGradient id="e" x1="50%" x2="50%" y1="0%" y2="100%"><stop offset="0%" stop-color="#434343"/><stop offset="100%" stop-color="#272727"/></linearGradient><filter id="a" width="131.7%" height="131.7%" x="-15.9%" y="-15.9%" filterUnits="objectBoundingBox"><feOffset dy="2" in="SourceAlpha" result="shadowOffsetOuter1"/><feGaussianBlur in="shadowOffsetOuter1" result="shadowBlurOuter1" stdDeviation="2"/><feComposite in="shadowBlurOuter1" in2="SourceAlpha" operator="out" result="shadowBlurOuter1"/><feColorMatrix in="shadowBlurOuter1" result="shadowMatrixOuter1" values="0 0 0 0 0 0 0 0 0 0 0 0 0 0 0 0 0 0 0.2 0"/><feMerge><feMergeNode in="shadowMatrixOuter1"/><feMergeNode in="SourceGraphic"/></feMerge></filter></defs><g fill="none" fill-rule="evenodd" filter="url(#a)" transform="translate(7 8)"><circle cx="41" cy="41" r="41" fill="url(#b)" stroke="url(#d)"/><path fill="url(#e)" d="M41 0c20.919 0 38.179 15.667 40.687 35.907C79.987 26.299 71.597 19 61.5 19c-11.22 0-20.336 9.015-20.498 20.197l-.005.022.003.281C41 50.822 31.822 60 20.5 60 9.393 60 .348 51.166.01 40.14.466 17.895 18.643 0 41 0m40.991 40.13a42 42 0 0 1-.023 2.501l-.154-.357q.111-.818.156-1.653Z"/><circle cx="63" cy="41" r="6" fill="#2e2e2e"/><circle cx="20" cy="41" r="6" fill="#fff"/></g></svg>