<svg xmlns="http://www.w3.org/2000/svg" viewBox="0 0 64 64"><circle cx="32" cy="33" r="29" opacity=".2"/><circle cx="32" cy="32" r="29" fill="#4caf50"/><path d="M31.078 12.02q-.925.041-1.844.164A20.94 20.94 0 0 0 16.2 19.14c-6.926 7.9-6.935 19.775-.023 27.687s18.672 9.489 27.418 3.672a3 3.004 0 1 0-3.32-5.004A14.946 14.946 0 0 1 20.69 42.88a14.985 14.985 0 0 1 .02-19.777 14.946 14.946 0 0 1 19.586-2.586 3 3.002 0 1 0 3.328-4.996 20.9 20.9 0 0 0-12.547-3.5M45 22.5V30H34a3 3 0 1 0 0 6h11v7.5L58 33Z" opacity=".2"/><path fill="#fff" d="M31.078 11.02q-.925.041-1.844.164A20.94 20.94 0 0 0 16.2 18.14c-6.926 7.9-6.935 19.775-.023 27.687s18.672 9.489 27.418 3.672a3 3.004 0 1 0-3.32-5.004A14.946 14.946 0 0 1 20.69 41.88a14.985 14.985 0 0 1 .02-19.777 14.946 14.946 0 0 1 19.586-2.586 3 3.002 0 1 0 3.328-4.996 20.9 20.9 0 0 0-12.547-3.5M45 21.5V29H34a3 3 0 1 0 0 6h11v7.5L58 32Z"/><path fill="#fff" d="M32 3A29 29 0 0 0 3 32a29 29 0 0 0 .018.488A29 29 0 0 1 32 4a29 29 0 0 1 28.975 28.494A29 29 0 0 0 61 32 29 29 0 0 0 32 3" opacity=".2"/></svg>