<svg xmlns="http://www.w3.org/2000/svg" viewBox="0 0 24 24"><g fill="#536076"><path d="M6 7a1.4 1.4 0 0 0-.553.144C5.15 7.294 5 7.518 5 8v8c0 .482.15.707.447.856.211.105.444.144.553.144h11c.109 0 .342-.039.553-.144.297-.15.447-.374.447-.856V8c0-.482-.15-.707-.447-.856A1.4 1.4 0 0 0 17 7zm0-1h11s2 0 2 2v8c0 2-2 2-2 2H6s-2 0-2-2V8c0-2 2-2 2-2"/><path d="M6.25 8h1.5a.25.25 0 0 1 .25.25v1.5a.25.25 0 0 1-.25.25h-1.5A.25.25 0 0 1 6 9.75v-1.5A.25.25 0 0 1 6.25 8m3 0h1.5a.25.25 0 0 1 .25.25v1.5a.25.25 0 0 1-.25.25h-1.5A.25.25 0 0 1 9 9.75v-1.5A.25.25 0 0 1 9.25 8m3 0h1.5a.25.25 0 0 1 .25.25v1.5a.25.25 0 0 1-.25.25h-1.5a.25.25 0 0 1-.25-.25v-1.5a.25.25 0 0 1 .25-.25m3 0h1.5a.25.25 0 0 1 .25.25v1.5a.25.25 0 0 1-.25.25h-1.5a.25.25 0 0 1-.25-.25v-1.5a.25.25 0 0 1 .25-.25m-9 3h1.5a.25.25 0 0 1 .25.25v1.5a.25.25 0 0 1-.25.25h-1.5a.25.25 0 0 1-.25-.25v-1.5a.25.25 0 0 1 .25-.25m3 0h1.5a.25.25 0 0 1 .25.25v1.5a.25.25 0 0 1-.25.25h-1.5a.25.25 0 0 1-.25-.25v-1.5a.25.25 0 0 1 .25-.25m3 0h1.5a.25.25 0 0 1 .25.25v1.5a.25.25 0 0 1-.25.25h-1.5a.25.25 0 0 1-.25-.25v-1.5a.25.25 0 0 1 .25-.25m3 0h1.5a.25.25 0 0 1 .25.25v1.5a.25.25 0 0 1-.25.25h-1.5a.25.25 0 0 1-.25-.25v-1.5a.25.25 0 0 1 .25-.25m-7 4h6.5c.139 0 .25.056.25.125v.75c0 .07-.111.125-.25.125h-6.5c-.139 0-.25-.056-.25-.125v-.75c0-.07.111-.125.25-.125"/></g></svg>