<svg xmlns="http://www.w3.org/2000/svg" viewBox="0 0 64 64"><path d="M6.8 5C5.25 5 4 6.25 4 7.8v50.4C4 59.75 5.25 61 6.8 61h50.4c1.55 0 2.8-1.25 2.8-2.8V7.8C60 6.25 58.75 5 57.2 5H32Z" opacity=".2"/><path fill="#f3389a" d="M6.8 4H32v56H6.8A2.794 2.794 0 0 1 4 57.2V6.8C4 5.249 5.249 4 6.8 4"/><path fill="#5a50e3" d="M57.2 4H32v56h25.2c1.551 0 2.8-1.249 2.8-2.8V6.8C60 5.249 58.751 4 57.2 4"/><path d="M14.654 13.732a1.336 1.336 0 0 0-.765 2.375L6.053 43h-.037a9 6.747 0 0 0-.016.252A9 6.747 0 0 0 15 50a9 6.747 0 0 0 9-6.748 9 6.747 0 0 0-.012-.252h-.043L15.74 16.676l33.143 7.785L40.055 51h-.04a9 6.747 0 0 0-.015.252A9 6.747 0 0 0 49 58a9 6.747 0 0 0 9-6.748 9 6.747 0 0 0-.012-.252h-.039l-7.326-26.217a1.336 1.336 0 0 0 .111-2.63L15.051 13.77a1.3 1.3 0 0 0-.397-.038m.088 4.448L22.48 43H7.509Zm34.92 8.369L56.494 51H41.53Z" opacity=".1"/><path fill="#3f3f3f" d="M40.016 50a9 6.747 0 0 0-.016.252A9 6.747 0 0 0 49 57a9 6.747 0 0 0 9-6.748 9 6.747 0 0 0-.01-.252Z"/><path fill="none" stroke="#3f3f3f" stroke-linejoin="bevel" stroke-width="1.4" d="m40.7 50.28 9.02-27.124L57.3 50.28"/><path fill="#3f3f3f" d="M6.016 42a9 6.747 0 0 0-.016.252A9 6.747 0 0 0 15 49a9 6.747 0 0 0 9-6.748 9 6.747 0 0 0-.01-.252Z"/><path d="M15.057 40 9.82 42.984 20.21 43Zm34 4-5.797 6.986L54.77 51Z" opacity=".2"/><path fill="#fffb00" d="m54.77 50-11.51-.015L49.056 43Z"/><path fill="none" stroke="#3f3f3f" stroke-linejoin="bevel" stroke-width="1.4" d="m6.7 42.28 8.02-27.524L23.3 42.28"/><path fill="#fffb00" d="m20.211 42.006-10.39-.016 5.235-2.985z"/><path fill="#fff" d="M6.8 4C5.25 4 4 5.25 4 6.8v1C4 6.25 5.25 5 6.8 5h50.4C58.75 5 60 6.25 60 7.8v-1C60 5.25 58.75 4 57.2 4z" opacity=".1"/><path fill="#3f3f3f" d="M29 4h6v56h-6z"/><path fill="#fff" d="M15.057 39 9.82 41.984l1.75.002L15.057 40l3.431 1.998 1.723.002zm34 4-5.797 6.986.828.002L49.057 44l4.898 6h.816z" opacity=".2"/></svg>