<svg xmlns="http://www.w3.org/2000/svg" viewBox="0 0 64 64"><ellipse cx="32" cy="32.001" fill="#4f4f4f" rx="23.999" ry="19.999"/><path d="M40.18 11.96 28 18.4v2L42 13zM28 14.2c-9.28 0-17 7.522-17 16.8 0 .33.036.652.054.976C11.6 23.178 19.068 16.2 28 16.2zm18.172 2.5c-.296 1.36-.058 2.832 1.2 3.75a16.74 16.74 0 0 1 5.573 11.574c.02-.34.054-.678.054-1.024a16.76 16.76 0 0 0-5.627-12.55 3.16 3.16 0 0 1-1.2-1.75M4.054 31.92c-.016.36-.054.714-.054 1.078 0 7.9 3.852 14.902 9.776 19.23 2.228 1.443 4.786-2.172 4.064-4.894-.484 2.144-2.364 3.995-4.064 2.894A23.76 23.76 0 0 1 4.054 31.92m55.891.156C59.367 44.718 48.78 54.799 36 54.799v2c13.144 0 24-10.655 24-23.8 0-.311-.043-.611-.055-.921M23.82 52.039 22 53l14 8v-2z" opacity=".2"/><path fill="#9ccd44" d="M28 4.002v4.2C14.854 8.202 4 18.857 4 32c0 7.9 3.85 14.901 9.774 19.23 2.786 1.804 6.107-4.306 2.856-6.68A16.76 16.76 0 0 1 10.998 32c0-9.276 7.721-16.8 17.001-16.8v4.2l14-7.398z"/><path fill="#5db43e" d="M49.168 12.442c-2.457-.007-4.644 4.93-1.799 7.008a16.76 16.76 0 0 1 5.628 12.551c0 9.278-7.72 16.8-16.998 16.8v-4.2l-14 7.4 14 8v-4.2c13.144 0 24-10.656 24-23.8 0-7.9-3.85-14.901-9.775-19.23a1.96 1.96 0 0 0-1.056-.329"/><path fill="#fff" d="M28 4.002v1l13.09 7.48.91-.48zm0 4.2C14.856 8.201 4 18.856 4 32c0 .102.011.2.018.3C4.396 19.483 15.09 9.202 28 9.202zm21.168 4.241c-1.782-.004-3.41 2.59-3.088 4.809.185-1.93 1.57-3.813 3.088-3.809.352.001.707.103 1.055.328 5.768 4.214 9.56 10.964 9.757 18.606.007-.125.02-.248.02-.375 0-7.9-3.851-14.902-9.777-19.23a1.9 1.9 0 0 0-1.055-.329" opacity=".1"/></svg>