<svg xmlns="http://www.w3.org/2000/svg" xmlns:xlink="http://www.w3.org/1999/xlink" viewBox="0 0 64 64"><defs><path id="a" fill="#f75f5f" d="M34 34v16h13v-5h-3v2h-5v-3l-2-2v-5h7v2h3v-5Z"/></defs><path fill="#8e8e8e" d="M58 40v2H6v-2zm0 6v2H6v-2zm0 6v2H6v-2zm0-30v2H6v-2zm0 6v2H6v-2zm0 6v2H6v-2zm0-18v2H6v-2zm0-6v2H6v-2z"/><path fill="#8e8e8e" d="M24 58h-2V6h2zm-6 0h-2V6h2zm-6 0h-2V6h2zm30 0h-2V6h2zm-6 0h-2V6h2zm-6 0h-2V6h2zm18 0h-2V6h2zm6 0h-2V6h2z"/><path d="M8 52.602v2C8 55.932 9.338 57 11 57h42c1.662 0 3-1.068 3-2.398v-2C56 53.932 54.662 55 53 55H11c-1.662 0-3-1.068-3-2.398" opacity=".2"/><rect width="48" height="48" x="-56" y="-56" fill="#4f4f4f" rx="2.4" ry="3" transform="rotate(90)scale(-1 1)"/><path fill="#fff" d="M11 8c-1.662 0-3 1.069-3 2.398v1C8 10.068 9.338 9 11 9h42c1.662 0 3 1.069 3 2.398v-1C56 9.068 54.662 8 53 8z" opacity=".1"/><path d="M34 35v16h13v-5h-3v2h-5v-3l-2-2v-5h7v2h3v-5Zm0-20v16h13v-5h-3v2h-5v-3l-2-2v-5h7v2h3v-5Z" opacity=".2"/><path fill="#ffa726" d="M34 14v16h13v-5h-3v2h-5v-3l-2-2v-5h7v2h3v-5Zm-14 0h3v18h-3z"/><path fill="#f75f5f" d="M20 32h3v18h-3z"/><path fill="#f75f5f" d="M17 30h9v4h-9z"/><path d="M20 50h3v1h-3Zm-3-16h9v1h-9Z" opacity=".2"/><path fill="#fff" d="M17 30h9v1h-9z" opacity=".2"/><use xlink:href="#a"/><path fill="#ffa726" d="M34 14v16h13v-5h-3v2h-5v-3l-2-2v-5h7v2h3v-5Z"/><use xlink:href="#a"/><path fill="#fff" d="M34 14v1h13v-1Zm3 8v1l2 2v-1Zm7 3v1h3v-1Zm-5 2v1h5v-1Zm-5 7v1h13v-1Zm3 8v1l2 2v-1Zm7 3v1h3v-1Zm-5 2v1h5v-1Z" opacity=".2"/></svg>