<svg xmlns="http://www.w3.org/2000/svg" viewBox="0 0 64 64"><circle cx="32" cy="33" r="28" opacity=".2"/><circle cx="32" cy="32" r="28" fill="#e4e4e4"/><path fill="#fff" d="M32 4A28 28 0 0 0 4 32a28 28 0 0 0 .022.586A28 28 0 0 1 32 5a28 28 0 0 1 27.979 27.414L60 32A28 28 0 0 0 32 4" opacity=".2"/><circle cx="32" cy="33" r="16" opacity=".2"/><circle cx="32" cy="32" r="16" fill="#ff3636"/><path fill="#924ab4" d="M32 16a16 16 0 0 0-9.133 2.887L32 33l9.14-14.125A16 16 0 0 0 32 16"/><path fill="#ffdb4c" d="m32 33-8.22 12.703A16 16 0 0 0 32 48a16 16 0 0 0 8.22-2.295z"/><path fill="#8bdb4c" d="m32 33 8.22 12.705A16 16 0 0 0 47.95 33z"/><path fill="#476bd7" d="M41.14 18.875 32 33h15.95a16 16 0 0 0 .05-1 16 16 0 0 0-6.86-13.125"/><path fill="#f1502f" d="M16.037 33a16 16 0 0 0 7.742 12.703L32 33z"/><circle cx="32" cy="33" r="12" opacity=".1"/><circle cx="32" cy="32" r="12" fill="#4f4f4f"/><path fill="#fff" d="M32 16a16 16 0 0 0-16 16 16 16 0 0 0 .021.58A16 16 0 0 1 32 17a16 16 0 0 1 15.979 15.42A16 16 0 0 0 48 32a16 16 0 0 0-16-16" opacity=".2"/><circle cx="27" cy="29" r="3" opacity=".2"/><circle cx="27" cy="28" r="3" fill="#fff"/></svg>