<svg xmlns="http://www.w3.org/2000/svg" xml:space="preserve" viewBox="0 0 64 64"><path d="M6.8 5C5.25 5 4 6.25 4 7.8V61h8c0-2.32 2.18-4 4.5-4s4.5 1.68 4.5 4h36.2c1.55 0 2.8-1.25 2.8-2.8V7.8C60 6.25 58.75 5 57.2 5H20.8c0 2.32-1.98 4-4.3 4S12 7.32 12 5Z" opacity=".2"/><path fill="#128706" d="M6.8 4A2.794 2.794 0 0 0 4 6.8v45.288l1.184 3.061.53 1.724c.457 1.483.164 1.442 1.658 1.861l3.683.694L12 60c0-2.32 2.18-4 4.5-4s4.5 1.68 4.5 4h36.2c1.551 0 2.8-1.249 2.8-2.8V6.8C60 5.249 58.751 4 57.2 4H20.8c0 2.32-1.98 4-4.3 4S12 6.32 12 4Z"/><path d="M18.25 11C13.68 11 10 14.68 10 19.25v27.5c0 4.57 3.68 8.25 8.25 8.25H24c0-1.523.977-3 2.5-3h11c1.524 0 2.5 1.477 2.5 3h5.75c4.57 0 8.25-3.68 8.25-8.25v-27.5c0-4.57-3.68-8.25-8.25-8.25Z" opacity=".2"/><path fill="#d4d4d4" d="M18.25 10C13.68 10 10 13.68 10 18.25v27.5c0 4.57 3.68 8.25 8.25 8.25H24c0-1.523.977-3 2.5-3h11c1.524 0 2.5 1.477 2.5 3h5.75c4.57 0 8.25-3.68 8.25-8.25v-27.5c0-4.57-3.68-8.25-8.25-8.25Z"/><rect width="34" height="34" x="15" y="16" opacity=".1" ry="3.4"/><rect width="34" height="34" x="15" y="15" fill="#f4f4f4" ry="3.4"/><path fill="#ffac12" d="m4 52 8 8H4Z"/><path fill="#a1a1a1" d="M21 23h17v3H21zm5 6v3h6v-3zm9 0v3h9v-3z"/><path fill="#fff" d="M6.8 4C5.25 4 4 5.25 4 6.8v1C4 6.25 5.25 5 6.8 5H12c0 2.32 2.18 4 4.5 4s4.3-1.68 4.3-4h36.4C58.75 5 60 6.25 60 7.8v-1C60 5.25 58.75 4 57.2 4H20.8c0 2.32-1.98 4-4.3 4S12 6.32 12 4zm11.45 6C13.68 10 10 13.68 10 18.25v1c0-4.57 3.68-8.25 8.25-8.25h27.5c4.57 0 8.25 3.68 8.25 8.25v-1c0-4.57-3.68-8.25-8.25-8.25zM4 52v1l7 7h1z" opacity=".2"/></svg>