<svg xmlns="http://www.w3.org/2000/svg" viewBox="0 0 64 64"><circle cx="32" cy="33" r="28" opacity=".2"/><circle cx="32" cy="32" r="28" fill="#31d0a5"/><path d="m48.03 10.043-7.983 7.982A17 17 0 0 0 32 16a17 17 0 0 0-17 17 17 17 0 0 0 17 17 17 17 0 0 0 8.047-2.025l7.982 7.982a28 28 0 0 0 6.928-6.928l-7.982-7.982A17 17 0 0 0 49 33a17 17 0 0 0-2.025-8.047l7.982-7.982a28 28 0 0 0-6.928-6.928" opacity=".2"/><path fill="#fff" d="M32 4A28 28 0 0 0 4 32a28 28 0 0 0 .033.5A28 28 0 0 1 32 5a28 28 0 0 1 27.967 27.5A28 28 0 0 0 60 32 28 28 0 0 0 32 4" opacity=".2"/><path fill="#cff6ec" d="M48.029 9.042 28.536 28.536v6.928l19.493 19.494a28 28 0 0 0 6.929-6.93L38.928 32l16.03-16.029a28 28 0 0 0-6.93-6.929"/><circle cx="32" cy="32" r="17" fill="#cff6ec"/><circle cx="32" cy="33" r="11" opacity=".1"/><circle cx="32" cy="32" r="11" fill="#2fa37e"/><path fill="#fff" d="m48.03 9.043-7.983 7.982A17 17 0 0 0 32 15a17 17 0 0 0-17 17 17 17 0 0 0 .033.5A17 17 0 0 1 32 16a17 17 0 0 1 8.047 2.025l7.982-7.982a28 28 0 0 1 6.51 6.346l.418-.418a28 28 0 0 0-6.928-6.928m-.718 15.572-.337.338a17 17 0 0 1 1.994 7.547A17 17 0 0 0 49 32a17 17 0 0 0-1.687-7.385m0 15.77a17 17 0 0 1-.337.662l7.564 7.564a28 28 0 0 0 .418-.582z" opacity=".2"/></svg>