<svg xmlns="http://www.w3.org/2000/svg" viewBox="0 0 64 64"><rect width="56" height="56" x="4" y="5" opacity=".2" rx="4.2" ry="4.2"/><rect width="56" height="56" x="4" y="4" fill="#e4e4e4" rx="4.2" ry="4.2"/><path fill="#fff" d="M8.2 4A4.19 4.19 0 0 0 4 8.2v.999A4.19 4.19 0 0 1 8.2 5h47.6A4.19 4.19 0 0 1 60 9.199v-1A4.19 4.19 0 0 0 55.801 4Z" opacity=".2"/><g opacity=".1" transform="translate(0 1)"><rect width="29" height="3" x="23" y="17" rx="1.5" ry="1.5"/><rect width="29" height="3" x="23" y="31" rx="1.5" ry="1.5"/><rect width="29" height="3" x="23" y="45" rx="1.5" ry="1.5"/><rect width="7" height="7" x="10" y="15" rx="1.5" ry="1.5"/><rect width="7" height="7" x="10" y="29" rx="1.5" ry="1.5"/><rect width="7" height="7" x="10" y="43" rx="1.5" ry="1.5"/></g><rect width="29" height="3" x="23" y="17" fill="#989898" rx="1.5" ry="1.5"/><rect width="29" height="3" x="23" y="31" fill="#989898" rx="1.5" ry="1.5"/><rect width="29" height="3" x="23" y="45" fill="#989898" rx="1.5" ry="1.5"/><rect width="7" height="7" x="10" y="15" fill="#686868" rx="1.5" ry="1.5"/><rect width="7" height="7" x="10" y="29" fill="#686868" rx="1.5" ry="1.5"/><rect width="7" height="7" x="10" y="43" fill="#686868" rx="1.5" ry="1.5"/><circle cx="48" cy="47" r="16" opacity=".2"/><circle cx="48" cy="46" r="16" fill="#1ea362"/><path fill="#fff" d="M40 50.436V54h3.564l9.001-9.001-3.564-3.564Zm15.717-8.578a.945.945 0 0 0 0-1.348l-2.227-2.227a.945.945 0 0 0-1.348 0l-1.862 1.873 3.564 3.564Z"/></svg>