<svg xmlns="http://www.w3.org/2000/svg" viewBox="0 0 64 64"><path fill="#03a9f4" d="M60 32V13c0-1.662-1.338-3-3-3H7c-1.662 0-3 1.338-3 3v38c0 1.662 1.338 3 3 3h31l5-17Z"/><path fill="#26c6da" d="M4 44v7c0 1.662 1.338 3 3 3h31l4-10Z"/><path fill="#fff" d="M7 10c-1.662 0-3 1.338-3 3v1c0-1.662 1.338-3 3-3h50c1.662 0 3 1.338 3 3v-1c0-1.662-1.338-3-3-3z" opacity=".2"/><path fill="#4f4f4f" d="M9.61 39.01q-.223-.001-.436.041C8.039 39.283 4 42 4 42v2h36v-2.625c-.684-.077-1.277-.151-1.576-.178-.472-.044-1.806-.27-2.578-.375-.771-.107-1.452-.203-2.03-.256s-3.126-.243-4.982-.357c-1.855-.113-3.595-.209-4.293-.209-.697-.008-2.931.666-4.281.746-1.35.081-2.513.226-3.155.203s-2.7-.821-4.078-1.08c-1.205-.227-2.381-.86-3.418-.859"/><path fill="#ccc" d="M60 32H40.75A2.75 2.75 0 0 0 38 34.75V54Z"/><path fill="#fff" d="M40.75 32A2.75 2.75 0 0 0 38 34.75v1A2.75 2.75 0 0 1 40.75 33H59l1-1z" opacity=".2"/><path d="M60 32 38 54H7c-1.662 0-3-1.338-3-3v1c0 1.662 1.338 3 3 3h31l22-22z" opacity=".2"/><circle cx="18" cy="27" r="8" opacity=".2"/><circle cx="18" cy="26" r="8" fill="#fffa6a"/></svg>