<svg xmlns="http://www.w3.org/2000/svg" viewBox="0 0 64 64"><rect width="32" height="42" x="16" y="14" opacity=".2" rx="2.5" ry="2.5"/><rect width="32" height="42" x="16" y="13" fill="#8e8e8e" rx="2.5" ry="2.5"/><rect width="52" height="40" x="6" y="10" opacity=".2" rx="2.5" ry="2.5"/><path fill="#595959" d="M6 44v2.5C6 47.885 7.115 49 8.5 49h47c1.385 0 2.5-1.115 2.5-2.5V44z"/><path fill="#333" d="M8.5 9A2.495 2.495 0 0 0 6 11.5V44h52V11.5c0-1.385-1.115-2.5-2.5-2.5Z"/><path fill="#fff" d="M6 44h52v1H6zM8.5 9A2.495 2.495 0 0 0 6 11.5v1C6 11.115 7.115 10 8.5 10h47c1.385 0 2.5 1.115 2.5 2.5v-1c0-1.385-1.115-2.5-2.5-2.5z" opacity=".1"/><path d="M32 18c-3.324 0-6 2.676-6 6v2h-1.5c-.831 0-1.5.669-1.5 1.5v9c0 .831.669 1.5 1.5 1.5h15c.831 0 1.5-.669 1.5-1.5v-9c0-.831-.669-1.5-1.5-1.5H38v-2c0-3.324-2.676-6-6-6m0 3c1.662 0 3 1.338 3 3v2h-6v-2c0-1.662 1.338-3 3-3" opacity=".2"/><path fill="#fff" d="M32 17c-3.324 0-6 2.676-6 6v2h-1.5c-.831 0-1.5.669-1.5 1.5v9c0 .831.669 1.5 1.5 1.5h15c.831 0 1.5-.669 1.5-1.5v-9c0-.831-.669-1.5-1.5-1.5H38v-2c0-3.324-2.676-6-6-6m0 3c1.662 0 3 1.338 3 3v2h-6v-2c0-1.662 1.338-3 3-3"/></svg>