<svg xmlns="http://www.w3.org/2000/svg" viewBox="0 0 64 64"><path d="M4 50v2c0 1.662 1.338 3 3 3h50c1.662 0 3-1.338 3-3v-2c0 1.662-1.338 3-3 3H7c-1.662 0-3-1.338-3-3" opacity=".2"/><rect width="44" height="56" x="-54" y="4" fill="#4f4f4f" rx="3" ry="3" transform="rotate(-90)"/><path fill="#fff" d="M7 10c-1.662 0-3 1.338-3 3v1c0-1.662 1.338-3 3-3h50c1.662 0 3 1.338 3 3v-1c0-1.662-1.338-3-3-3z" opacity=".1"/><path fill="#fff" d="M7 10c-1.662 0-3 1.338-3 3v38c0 1.662 1.338 3 3 3h7V10z" opacity=".1"/><path fill-rule="evenodd" d="M63.958 45.848A16 16 0 0 1 48 61a16 16 0 0 1-15.958-14.848A16 16 0 0 0 32 47a16 16 0 0 0 16 16 16 16 0 0 0 16-16 16 16 0 0 0-.043-1.152Z" opacity=".2"/><circle cx="48" cy="46" r="16" fill="#1ea362"/><path fill="#fff" d="M40 50.436V54h3.564l9-9.001-3.563-3.564zm15.717-8.578a.945.945 0 0 0 0-1.348l-2.227-2.227a.945.945 0 0 0-1.348 0l-1.862 1.873 3.564 3.564z"/></svg>