<svg xmlns="http://www.w3.org/2000/svg" viewBox="0 0 64 64"><rect width="56" height="48" x="4" y="9" opacity=".2" rx="3" ry="3"/><rect width="56" height="48" x="4" y="8" fill="#1e88e5" rx="3" ry="3"/><path fill="#fff" d="M7 8c-1.662 0-3 1.338-3 3v1c0-1.662 1.338-3 3-3h50c1.66 0 3 1.338 3 3v-1c0-1.662-1.34-3-3-3Z" opacity=".2"/><rect width="28" height="20" x="36" y="14" opacity=".2" rx="1.2" ry="1.2"/><rect width="28" height="20" x="36" y="13" fill="#ebebeb" rx="1.2" ry="1.2"/><rect width="28" height="20" x="18" y="40" opacity=".2" rx="1.2" ry="1.2"/><rect width="28" height="20" x="18" y="39" fill="#ebebeb" rx="1.2" ry="1.2"/><rect width="28" height="20" y="14" opacity=".2" rx="1.2" ry="1.2"/><rect width="28" height="20" y="13" fill="#ebebeb" rx="1.2" ry="1.2"/></svg>