<svg xmlns="http://www.w3.org/2000/svg" viewBox="0 0 16.933 16.933"><g transform="translate(0 -280.07)"><rect width="13.758" height="13.758" x="1.588" y="281.65" fill="none" stroke="#2454d8" stroke-linecap="round" stroke-linejoin="round" stroke-width=".529" opacity=".75" paint-order="markers stroke fill" rx=".794" ry=".794"/><rect width="13.758" height="13.758" x="1.588" y="281.65" fill="#90a9ff" paint-order="markers stroke fill" rx=".794" ry=".794"/><rect width="10.054" height="1.323" x="3.44" y="292.77" fill="#fff" opacity=".35" paint-order="markers stroke fill" ry=".265"/><g fill="#ccdfff" paint-order="stroke markers fill"><rect width="1.323" height="1.323" x="4.498" y="291.97" ry=".132"/><rect width="1.323" height="1.323" x="6.703" y="291.97" ry=".132"/><rect width="1.323" height="1.323" x="8.908" y="291.97" ry=".132"/><rect width="1.323" height="1.323" x="11.113" y="291.97" ry=".132"/></g><path d="M2.381 281.65a.79.79 0 0 0-.793.794v.264h13.758v-.264a.79.79 0 0 0-.794-.794z" opacity=".35" paint-order="markers stroke fill"/><rect width="2.646" height=".529" x="7.12" y="281.92" opacity=".35" paint-order="stroke markers fill" ry=".265"/></g><path fill="#fff" d="M8.467 5.972c-.782 0-1.411.629-1.411 1.41v.53h.504v-.53c0-.488.418-.906.907-.906.488 0 .907.418.907.907v.529h.504v-.53c0-.781-.63-1.41-1.411-1.41"/><rect width="3.225" height="4.233" x="-11.112" y="-10.583" fill="#fff" rx=".266" ry=".269" transform="rotate(90)scale(-1 1)"/></svg>