<svg xmlns="http://www.w3.org/2000/svg" viewBox="0 0 633 633"><g fill="#4db6ac" data-iconColor="CSharpier Dark"><path d="M263.9 584.7c-28.8-16.7-86.9-50.2-129.2-74.6L58 465.8l.2-149.5.3-149.4 129-74.5C283.1 37.1 316.9 18.1 318 18.8c.8.5 59 34.1 129.3 74.7L575 167.2v298.5l-37.7 21.8c-20.8 12-78.1 45.1-127.3 73.5s-90.5 52.2-91.6 52.8c-1.9 1-8.5-2.5-54.5-29.1m125.3-83.8c39.2-22.6 71.8-41.6 72.4-42.3 1.3-1.3 3-49.1 1.7-48.3C346 478.1 319.7 493 316.9 493c-2.3 0-23.2-11.6-77.8-43.1-41-23.7-74.9-43.6-75.3-44.2-1-1.6-1-176.9 0-178.3.4-.6 34.3-20.6 75.4-44.3 52.3-30.2 75.6-43.1 77.7-43.1 2 0 24.5 12.5 74.8 41.5l71.8 41.5.6-7.3c.3-4 .9-14.4 1.3-23.2l.7-16-73.8-42.5c-40.5-23.4-74.7-42.5-75.8-42.4-1.1 0-45.6 25.3-99 56.2l-97 56v225.4l97.5 56.4c53.6 31 98.1 56.3 98.7 56.4.7 0 33.3-18.5 72.5-41.1M282.1 364c1.4-9.6 2.9-18.3 3.3-19.2.7-1.6 2.4-1.8 14.7-1.8H314v4.8c0 2.6-.9 10.6-2 17.7-2.7 18.3-3.5 16.5 6.5 16.5 4.7 0 8.5-.1 8.6-.2 0-.2 1.3-8.8 2.7-19.3l2.7-19 11.8-.3c6.4-.1 11.7-.4 11.7-.5 0-.2.5-3 1-6.3.6-3.2 1.3-7.3 1.6-9.1l.5-3.2-10.8-.3-10.8-.3.1-9.8c.1-5.4.6-10.8 1.2-12s1.2-3.1 1.4-4.2c.3-1.8 1.2-2 11.1-2.3 12.4-.3 12 .1 13.2-11.5l.7-6.7h-21.1l-.5-4.2c-.4-2.5.4-11.1 1.7-20l2.4-15.8h-19.3l-2.3 17.3c-1.3 9.4-2.5 18.4-2.8 20l-.5 2.7h-24.6l-.6-4.3c-.4-2.5.2-10.2 1.4-18.7 1.1-8 2-15 2-15.7 0-1-2.4-1.3-9.3-1.3h-9.4l-2.8 20-2.8 19.9-10.6.3-10.6.3-.7 5c-.4 2.8-.9 6.7-1.2 8.7l-.6 3.7 9.7.3 9.8.3.3 3c.5 4.1-1.6 20.5-3 23.3-1.1 2.1-1.8 2.2-11 2.2-5.4 0-9.8.3-9.8.8 0 .4-.6 4.6-1.4 9.5l-1.3 8.7h10.4c9.5 0 10.3.2 10.3 1.9 0 1.1-1.1 9.6-2.5 19.1s-2.5 17.4-2.5 17.6c0 .3 3.9.3 8.8.2l8.7-.3zm123.4-17.2c.8-3.6 5.5-34.1 5.5-36.1 0-1.6-1-1.7-10.2-1.5l-10.2.3-2.7 17.5c-3.9 24.7-4.8 22 7.1 22 9.5 0 10-.1 10.5-2.2m62.8-2c.3-2.4.9-6.2 1.3-8.5l.7-4.3H441v-4.2c0-2.4.9-10.3 2.1-17.5l2.2-13.3h24l-.7 9c-.4 5-.9 9.7-1.2 10.5-.8 1.9 2.9 2.1 4.3.3.9-1.1 4.3-20.2 4.3-23.7 0-.8-7.9-1.1-24.5-1.1-13.5 0-24.5.2-24.5.4 0 .3-1.6 10.9-3.5 23.8-2 12.8-3.9 25.4-4.2 28.1l-.6 4.7h49zm32.9-8.8c.9-6.9 2.2-16.2 2.8-20.7l1.2-8.3H518c7.1 0 13.1-.3 13.3-.7.3-.5.8-3.6 1.2-7l.7-6.3h-22.1c-12.2 0-22.1.4-22.1.9 0 .4-1.8 12.9-4 27.7s-4 27-4 27.2c0 .1 4.2.1 9.3 0l9.2-.3zm-87.7-42.2c.2-.7 1.1-5.3 1.8-10.1l1.4-8.8-10.6.3-10.6.3-1.2 8c-1.8 12.7-2.7 11.5 8.7 11.5 7.2 0 10.2-.4 10.5-1.2"/><path d="M289.6 319.3c-.7-5.6 1.3-22.5 2.8-23.5.6-.4 7.4-.8 15-.8h13.9l-.6 6.8c-.3 3.7-1.1 10.2-1.8 14.5l-1.1 7.7h-27.5z"/></g></svg>