<svg xmlns="http://www.w3.org/2000/svg" xmlns:xlink="http://www.w3.org/1999/xlink" viewBox="0 0 96 96"><defs><linearGradient id="c" x1="50%" x2="50%" y1="0%" y2="100%"><stop offset="0%" stop-color="#f85452"/><stop offset="100%" stop-color="#e00504"/></linearGradient><linearGradient id="f" x1="50%" x2="50%" y1="0%" y2="100%"><stop offset="0%" stop-color="#9fe900"/><stop offset="100%" stop-color="#66cf00"/></linearGradient><path id="b" d="M46 38H30L18 26v44H0V0h16l22 22L60 0h16v70H58V26z"/><path id="e" d="M0 10v14h10v10h14V24h10V10H24V0H10v10z"/><filter id="a" width="136.8%" height="140%" x="-18.4%" y="-20%" filterUnits="objectBoundingBox"><feOffset dy="2" in="SourceAlpha" result="shadowOffsetOuter1"/><feGaussianBlur in="shadowOffsetOuter1" result="shadowBlurOuter1" stdDeviation="2"/><feColorMatrix in="shadowBlurOuter1" result="shadowMatrixOuter1" values="0 0 0 0 0 0 0 0 0 0 0 0 0 0 0 0 0 0 0.2 0"/><feMerge><feMergeNode in="shadowMatrixOuter1"/><feMergeNode in="SourceGraphic"/></feMerge></filter></defs><g fill="none" fill-rule="evenodd" filter="url(#a)" transform="translate(10 13)"><mask id="d" fill="#fff"><use xlink:href="#b"/></mask><path fill="url(#c)" fill-rule="nonzero" stroke="#fff" stroke-width="4" d="M46 38H30L18 26v44H0V0h16l22 22L60 0h16v70H58V26z" mask="url(#d)"/><g transform="translate(36 36)"><mask id="g" fill="#fff"><use xlink:href="#e"/></mask><path fill="url(#f)" fill-rule="nonzero" stroke="#fff" stroke-width="4" d="M0 10v14h10v10h14V24h10V10H24V0H10v10z" mask="url(#g)"/></g></g></svg>