<svg xmlns="http://www.w3.org/2000/svg" viewBox="0 0 64 64"><path d="M32 33A28 14 0 0 0 4 47a28 14 0 0 0 28 14 28 14 0 0 0 28-14 28 14 0 0 0-28-14" opacity=".2"/><path fill="#6f8a94" d="M32 32A28 14 0 0 0 4 46a28 14 0 0 0 28 14 28 14 0 0 0 28-14 28 14 0 0 0-28-14"/><path d="M32 19A28 14 0 0 0 4 33a28 14 0 0 0 28 14 28 14 0 0 0 28-14 28 14 0 0 0-28-14" opacity=".2"/><path fill="#9daeb5" d="M32 18A28 14 0 0 0 4 32a28 14 0 0 0 28 14 28 14 0 0 0 28-14 28 14 0 0 0-28-14"/><path d="M32 5A28 14 0 0 0 4 19a28 14 0 0 0 28 14 28 14 0 0 0 28-14A28 14 0 0 0 32 5" opacity=".2"/><path fill="#d1dbe0" d="M32 4A28 14 0 0 0 4 18a28 14 0 0 0 28 14 28 14 0 0 0 28-14A28 14 0 0 0 32 4"/><path fill="#fff" d="M32 4A28 14 0 0 0 4 18a28 14 0 0 0 .041.41A28 14 0 0 1 32 5a28 14 0 0 1 27.953 13.537A28 14 0 0 0 60 18 28 14 0 0 0 32 4" opacity=".2"/><rect width="32" height="32" x="32" y="30" fill="#44ad4d" rx="2.909" ry="2.909"/><path fill="#fff" d="M35 35h10v8H35z"/><path fill="#fff" d="M39 40.18h2v10.182h-2zM53.82 38v2H43.638v-2z" opacity=".5"/><path fill="#fff" d="M35 48h10v8H35zm16-13h10v8H51z"/></svg>