<svg xmlns="http://www.w3.org/2000/svg" viewBox="0 0 64 64"><rect width="56" height="56" x="4" y="5" opacity=".2" rx="11.2" ry="11.2"/><rect width="56" height="56" x="4" y="4" fill="#00b2f7" rx="11.2" ry="11.2"/><path d="M25 14c-4.97 0-9 1.343-9 3s4.03 3 9 3 9-1.343 9-3-4.03-3-9-3m-10 2.738v7c.1 3.143 6.455 4.017 10 4.262.147-.01.323-.029.479-.041A2.38 2.38 0 0 1 27.375 27h3.762c2.116-.64 3.812-1.651 3.863-3.262v-7c-.1 3.143-6.455 4.017-10 4.262-3.545-.245-9.9-1.119-10-4.262m0 8v7c.1 3.143 6.455 4.017 10 4.262v-6.625q.002-.192.033-.377L25 29c-3.545-.245-9.9-1.119-10-4.262M27.375 28c-.762 0-1.375.613-1.375 1.375v19.25c0 .762.613 1.375 1.375 1.375h19.25c.762 0 1.375-.613 1.375-1.375v-19.25c0-.762-.613-1.375-1.375-1.375ZM15 32.738v7c.1 3.143 6.455 4.017 10 4.262v-7c-3.545-.245-9.9-1.119-10-4.262M29 34h5v5h-5zm8 0h8v5h-8zm-8 8h5v5h-5zm8 0h8v5h-8z" opacity=".2"/><path fill="#fff" d="M27.375 27c-.762 0-1.375.613-1.375 1.375v19.25c0 .762.613 1.375 1.375 1.375h19.25c.762 0 1.375-.613 1.375-1.375v-19.25c0-.762-.613-1.375-1.375-1.375zM29 33h5v5h-5zm8 0h8v5h-8zm-8 8h5v5h-5zm8 0h8v5h-8zM25 13c-4.97 0-9 1.343-9 3s4.03 3 9 3 9-1.343 9-3-4.03-3-9-3m-10 2.738v7c.1 3.143 6.455 4.017 10 4.262.147-.01.323-.029.479-.041A2.38 2.38 0 0 1 27.375 26h3.762c2.116-.64 3.812-1.651 3.863-3.262v-7c-.1 3.143-6.455 4.017-10 4.262-3.545-.245-9.9-1.119-10-4.262m0 8v7c.1 3.143 6.455 4.017 10 4.262v-6.625q.002-.192.033-.377L25 28c-3.545-.245-9.9-1.119-10-4.262m0 8v7c.1 3.143 6.455 4.017 10 4.262v-7c-3.545-.245-9.9-1.119-10-4.262"/><path fill="#fff" d="M15.2 4C8.993 4 4 8.994 4 15.2v1C4 9.993 8.994 5 15.2 5h33.6C55.007 5 60 9.994 60 16.2v-1C60 8.993 55.006 4 48.8 4z" opacity=".2"/></svg>