<svg xmlns="http://www.w3.org/2000/svg" viewBox="0 0 16 16"><path fill="currentColor" d="m9.154 2.04.13.009zm-3.388.107-.186.025zm4.474 0 .215.03zm1.084.189.082.02zm-7.51.234-.078.026zm-.724.286q-.048.02-.094.042zm9.863.017.063.033c-.022-.01-.04-.022-.063-.033m-4.978.085c-2.762 0-5.026.49-5.026 1.042s2.298 1.06 5.06 1.06 5.027-.508 5.027-1.06-2.3-1.042-5.061-1.042m-5.442.224-.088.066zm-.381.382c-.016.025-.035.05-.049.075q.023-.038.05-.075m11.713.018.016.022q-.007-.012-.016-.022M2.983 5.072l-.034 2.987c-.006.553 2.266.983 5.027.983s5.064-.46 5.06-1.012l-.024-2.956c-1.11.559-3.017.875-5.029.875s-3.891-.317-5-.877m-.017 3.97L2.958 12c-.002.552 2.272 1.06 5.033 1.06s5.051-.474 5.051-1.026V9.019c-1.11.56-3.03.93-5.042.93s-3.925-.347-5.034-.907m10.931 3.319q-.022.038-.049.075.027-.038.049-.075m-11.777.035.015.022zm11.436.356-.088.066zm-10.571.342c.022.01.04.022.063.033zm10.02.008-.094.043zm-.74.302-.078.026zm-7.67.24.082.02zm.951.178.215.032q-.108-.014-.215-.032m4.875.006-.185.026zm-3.703.123.129.01z" class="ColorScheme-Text" opacity=".25"/><path fill="currentColor" d="M8 2a6 2 0 0 0-6 2v8a6 2 0 0 0 6 2 6 2 0 0 0 6-2V4a6 2 0 0 0-6-2m0 1a5 1 0 0 1 5 1 5 1 0 0 1-5 1 5 1 0 0 1-5-1 5 1 0 0 1 5-1M3 5.102A6 2 0 0 0 8 6a6 2 0 0 0 5-.896V8a5 1 0 0 1-5 1 5 1 0 0 1-5-1zm0 4A6 2 0 0 0 8 10a6 2 0 0 0 5-.896V12a5 1 0 0 1-5 1 5 1 0 0 1-5-1z" class="ColorScheme-Text"/></svg>