<svg xmlns="http://www.w3.org/2000/svg" fill="none" viewBox="12 12 186 186"><g fill="#287eff" stroke="#287eff" data-iconColor="DBML"><path d="M36 127.061v23.012c0 7.592 26.241 18.618 67.359 18.618s67.359-11.026 67.359-18.618v-23.012c-13.852 9.03-40.699 13.703-67.359 13.703S49.852 136.091 36 127.061Z"/><path d="M36.282 85.07v25.67c0 7.591 26.24 18.618 67.359 18.618S171 118.331 171 110.74V85.07c-12.89 9.919-37.63 16.361-67.359 16.361-29.73 0-54.47-6.442-67.36-16.361Z"/><path stroke-linecap="round" stroke-width="10" d="M110.325 39 96.941 88.949"/><path stroke-width="2.8" d="m76.079 79.056.05.022.053.017c.456.152.93.25 1.405.25.78 0 1.473-.313 1.994-.881.571-.623.76-1.41.76-2.158v-.891c0-.751-.196-1.47-.632-2.1-.43-.618-1.031-1.064-1.71-1.38l-.029-.013-.03-.012-19.397-7.968 19.356-7.89c.725-.25 1.356-.687 1.804-1.338.443-.644.638-1.38.638-2.148v-.926c0-.748-.189-1.536-.76-2.158a2.65 2.65 0 0 0-1.994-.882c-.475 0-.949.098-1.405.25l-.053.018-.052.022-26.02 11.05-.01.004-.012.005c-.696.31-1.32.749-1.767 1.366-.458.63-.668 1.358-.668 2.123v1.105c0 .764.21 1.493.668 2.123.448.617 1.07 1.057 1.767 1.366l.012.005.011.005zm55.109 0-.051.022-.052.017a4.5 4.5 0 0 1-1.405.25 2.66 2.66 0 0 1-1.995-.881c-.571-.623-.76-1.41-.76-2.158v-.891c0-.751.197-1.47.633-2.1.429-.618 1.031-1.064 1.709-1.38l.029-.013.03-.012 19.398-7.968-19.356-7.89c-.726-.25-1.357-.687-1.804-1.338-.443-.644-.639-1.38-.639-2.148v-.926c0-.748.189-1.536.76-2.158a2.66 2.66 0 0 1 1.995-.882c.474 0 .948.098 1.405.25l.053.018.051.022 26.021 11.05.011.004.01.005c.697.31 1.32.749 1.768 1.366.457.63.668 1.358.668 2.123v1.105c0 .764-.211 1.493-.668 2.123-.448.617-1.071 1.057-1.768 1.366l-.011.005-.012.005z"/></g></svg>