<svg xmlns="http://www.w3.org/2000/svg" xmlns:xlink="http://www.w3.org/1999/xlink" viewBox="0 0 96 96"><defs><linearGradient id="b" x1="50%" x2="50%" y1="0%" y2="100%"><stop offset="0%" stop-color="#2525c4"/><stop offset="100%" stop-color="#101092"/></linearGradient><filter id="a" width="135.2%" height="133.8%" x="-18.3%" y="-17.6%" filterUnits="objectBoundingBox"><feOffset dy="2" in="SourceAlpha" result="shadowOffsetOuter1"/><feGaussianBlur in="shadowOffsetOuter1" result="shadowBlurOuter1" stdDeviation="2"/><feColorMatrix in="shadowBlurOuter1" result="shadowMatrixOuter1" values="0 0 0 0 0 0 0 0 0 0 0 0 0 0 0 0 0 0 0.2 0"/><feMerge><feMergeNode in="shadowMatrixOuter1"/><feMergeNode in="SourceGraphic"/></feMerge></filter></defs><g fill="none" fill-rule="evenodd" filter="url(#a)" transform="translate(13 11)"><path stroke="#000" stroke-linecap="round" stroke-width="2" d="M41 19.5q-.5 0 1.5 1c2 1 5.5-2 8-4s8-7 12-8.5m-28 2q9-7 10-10m0 28.5q4.5-1.5 8.5 0c4 1.5 2.5 5 6 8q3.5 3 8.5 4.5m-20-5.5q8.5 2 8.5 7c0 5 4 10 4 13q0 3 7.5 4M26.5 20q.5 0-1.5 1c-2 1-5.5-2-8-4S9 10 5 8.5m28 2q-9-7-10-10M23 29q-4.5-1.5-8.5 0c-4 1.5-2.5 5-6 8Q5 40 0 41.5M20 36q-8.5 2-8.5 7c0 5-4 10-4 13q0 3-7.5 4"/><path fill="#7f7f7f" stroke="#000" d="M34 22c5.284 0 10.2 2.497 13.775 6.544C51.283 32.514 53.5 37.973 53.5 44c0 6.046-3.44 9.468-7.17 12.964l-.495.464q-.495.463-.99.933c-.703.673-1.389 1.413-2.08 2.158l-.463.499C39.899 63.587 37.38 66 34 66c-4.554 0-6.315-2.28-8.742-5.538-.506-.678-1.043-1.4-1.647-2.148-.538-.667-1.13-1.352-1.741-2.06-2.99-3.46-6.37-7.443-6.37-12.254 0-6.105 2.02-11.625 5.352-15.603C24.166 24.437 28.776 22 34 22Z"/><path fill="#000" d="M40.152 62.5c-.821.777-1.677 1.475-2.598 2l-7.736.001c-.878-.508-1.617-1.19-2.327-2Zm4.875-5q-.264.249-.527.5c-.496.474-.983.98-1.469 1.5H25.163A55 55 0 0 0 24 58a43 43 0 0 0-.41-.5Zm4.91-5a26 26 0 0 1-1.78 2h-27.13a46 46 0 0 1-1.603-2Zm2.616-5a12.4 12.4 0 0 1-.73 2H17.486a14 14 0 0 1-.876-2Zm.4-5Q53 43.244 53 44q0 .254-.008.5h-36.98A10 10 0 0 1 16 44q0-.757.042-1.5Zm-.861-5q.281.98.479 2H16.383q.176-1.02.43-2Zm-2.103-5q.551.966 1.011 2H17.8q.417-1.034.921-2Zm-3.922-5q.99.93 1.864 2H20.613a20 20 0 0 1 1.732-2Z"/><path fill="#7f7f7f" stroke="#000" d="M34 7.5c.414 0 .79.168 1.06.44.272.27.44.646.44 1.06v2h.5c.414 0 .79.168 1.06.44.272.27.44.646.44 1.06V15h-7v-2.5c0-.414.168-.79.44-1.06A1.5 1.5 0 0 1 32 11h.5V9c0-.414.168-.79.44-1.06A1.5 1.5 0 0 1 34 7.5zM41.5 20v2.5c0 .69-.28 1.315-.732 1.768A2.5 2.5 0 0 1 39 25H29c-.69 0-1.315-.28-1.768-.732A2.5 2.5 0 0 1 26.5 22.5V20z"/><path fill="#7f7f7f" stroke="#000" d="M40.5 13h3.462c.298 3.1-.482 5.38-2.265 6.882C40.045 21.274 37.488 22 34 22s-6.045-.726-7.697-2.118C24.52 18.381 23.74 16.1 24.038 13H27.5v1.5h13z"/><g transform="translate(22 25.5)"><path fill="url(#b)" d="M18 0c9.941 0 18 8.059 18 18 0 2.889-.68 5.62-1.89 8.039l1.769 1.769-.482.481 9.9 9.899a4 4 0 0 1 0 5.657l-.452.452a4 4 0 0 1-5.657 0l-9.9-9.898-.48.48-1.48-1.481A17.9 17.9 0 0 1 18 36C8.059 36 0 27.941 0 18S8.059 0 18 0"/><circle cx="18" cy="18" r="16" fill="gray"/><path fill="#000" d="M27 30.001A14.93 14.93 0 0 1 18 33a14.93 14.93 0 0 1-9-2.999Zm5.46-8A15 15 0 0 1 30 27H6a15 15 0 0 1-2.46-5ZM32.147 13c.553 1.564.854 3.247.854 5H3c0-1.753.3-3.436.854-5ZM18 3a14.96 14.96 0 0 1 11.18 5H6.82C9.566 4.93 13.558 3 18 3"/><path stroke="#fff" stroke-linecap="round" stroke-width="3" d="M11.5 9q-3 2-3.5 5.5" opacity=".83"/></g></g></svg>