<svg xmlns="http://www.w3.org/2000/svg" viewBox="0 0 64 64"><path d="M32 3c-1.571 0-3.144.586-4.32 1.76L3.76 28.685C2.586 29.859 1.999 31.429 2 33s.59 3.14 1.763 4.314l23.92 23.923c2.35 2.349 6.287 2.352 8.636.002l23.918-23.923a6 6 0 0 0 1.322-2.009A6.2 6.2 0 0 0 62 33c0-1.571-.589-3.142-1.763-4.316L36.319 4.76C35.144 3.586 33.572 3 32 3" opacity=".2"/><path fill="#1c71d8" d="M32 2.714c-1.394 0-2.78.518-3.814 1.552L4.266 28.188A5.36 5.36 0 0 0 2.714 32c0 1.392.52 2.776 1.554 3.808l18.304 18.306-.544.464 5.656 5.66c2.35 2.348 6.286 2.35 8.636 0l12.084-12.086-.484-.528 11.812-11.812c.516-.52.904-1.12 1.164-1.77s.39-1.346.39-2.042c0-1.394-.52-2.778-1.554-3.812L35.814 4.266A5.4 5.4 0 0 0 32 2.714"/><path fill="#f5c211" d="M32 2c-1.572 0-3.144.586-4.32 1.76L15.72 15.72l8.14 8.14L40.14 7.58l-3.826-3.826A6.1 6.1 0 0 0 32 2"/><path fill="#2ec27e" d="m40.138 7.582 8.14 8.14L15.72 48.276l-8.14-8.14Z"/><path fill="#ff7800" d="M48.278 15.722 32 32l8.14 8.136L56.416 23.86z"/><path fill="#c061cb" d="m23.86 40.142-8.14 8.136 8.14 8.14z"/><path fill="#e01b24" d="M56.416 23.86 48.278 32l8.14 8.14 3.82-3.824a5.95 5.95 0 0 0 1.32-2.008A6.2 6.2 0 0 0 62 32c0-1.572-.588-3.142-1.764-4.316Z"/><path fill="#813d9c" d="m15.72 32-8.14 8.14 8.142 8.138 8.136-8.136Z"/><path fill="#fff" d="M40.14 7.58 32 15.72l8.14 8.14 8.138-8.14z" opacity=".2"/><path fill="#e01b24" d="M48.278 15.722V32l8.14 8.14 3.82-3.824a5.95 5.95 0 0 0 1.32-2.008A6.2 6.2 0 0 0 62 32c0-1.572-.588-3.142-1.764-4.316l-3.82-3.824z"/><path fill="#e5a50a" d="m15.72 15.722 8.14 8.14 8.138-8.14Z"/><path fill="#ffa348" d="m48.278 32-8.14 8.14 8.138 8.138.002-.004z"/><path fill="#f66151" d="M48.278 32v16.274l8.14-8.136z"/><path fill="#26a269" d="m32 15.722-8.14 8.14L32 31.998z"/><path fill="#1a5fb4" d="M23.86 23.86 15.72 32H32Z"/><path fill="#3584e4" d="m15.72 32 8.14 8.14L32 32z"/><path fill="#613583" d="M15.72 15.722 3.76 27.682A6.08 6.08 0 0 0 2 32.002c0 1.57.59 3.14 1.764 4.314l3.82 3.82 16.274-16.274z"/><path fill="#98c1f1" d="m32 32-8.14 8.14v16.276l16.28-16.28z"/><path fill="#fff" d="M32 2c-1.571 0-3.146.587-4.32 1.762L3.762 27.684A6.07 6.07 0 0 0 2 32c0 .122.024.242.033.363a6.04 6.04 0 0 1 1.729-3.68L27.68 4.763C28.854 3.587 30.429 3 32 3s3.146.587 4.32 1.762l23.918 23.922a6.05 6.05 0 0 1 1.729 3.68c.01-.122.033-.242.033-.364 0-1.571-.587-3.142-1.762-4.316L36.32 3.762C35.146 2.587 33.572 2 32 2" opacity=".1"/></svg>