<svg xmlns="http://www.w3.org/2000/svg" xmlns:xlink="http://www.w3.org/1999/xlink" viewBox="0 0 96 96"><defs><linearGradient id="b" x1="50%" x2="50%" y1="0%" y2="100%"><stop offset=".038%" stop-color="#00297c" stop-opacity=".697"/><stop offset="100%" stop-color="#001646" stop-opacity=".813"/></linearGradient><linearGradient id="c" x1="50%" x2="50%" y1="-2.106%" y2="94.995%"><stop offset="0%" stop-color="#fff" stop-opacity=".712"/><stop offset="100%" stop-color="#fff" stop-opacity=".852"/></linearGradient><radialGradient id="a" cx="43.16%" cy="26.912%" r="73.779%" fx="43.16%" fy="26.912%"><stop offset="0%" stop-color="#95e7ff"/><stop offset="100%" stop-color="#013e81"/></radialGradient></defs><g fill="none" fill-rule="evenodd" transform="translate(5 5)"><circle cx="43" cy="43" r="43" fill="url(#a)"/><path fill="url(#b)" fill-rule="nonzero" d="M43-1C18.7-1-1 18.7-1 43s19.7 44 44 44 44-19.7 44-44S67.3-1 43-1m0 1c23.748 0 43 19.252 43 43S66.748 86 43 86 0 66.748 0 43 19.252 0 43 0"/><path fill="url(#c)" d="M33.851.976q9.36 4.215 17.471 10.828 10.186 8.306 13.996 17.573.599-3.806 0-9.609-.54-5.23-5.944-16.54A43 43 0 0 1 71.18 10.52q3.295 9.48 3.295 15.533 0 7.654-2.401 18.614 1.005 2.897 1.004 11.39 0 7.783-3.25 20.548a43 43 0 0 1-9.812 5.897q1.943-5.415 2.89-9.984 1.18-5.682 1.726-12.18-3.168 6.425-5.619 9.541-2.452 3.117-13.924 15.303l-.404.786a43 43 0 0 1-11.72-1.145q2.715-2.484 6.241-5.848 16.902-16.125 21.5-32.505-.549-6.371-9.384-19.656-8.28-12.452-29.192-21.418a42.7 42.7 0 0 1 11.2-4.304Z"/></g></svg>