<svg xmlns="http://www.w3.org/2000/svg" viewBox="0 0 64 64"><rect width="56" height="50" x="4" y="8" opacity=".2" rx="3.409" ry="3.303"/><rect width="56" height="50" x="4" y="7" fill="#00d093" rx="3.409" ry="3.303"/><rect width="44" height="8" x="10" y="46" opacity=".3" rx="1.375"/><rect width="8" height="8" x="10" y="16" opacity=".2" rx="1.333"/><rect width="8" height="8" x="10" y="15" fill="#fff" rx="1.333"/><rect width="8" height="8" x="10" y="30" opacity=".2" rx="1.333"/><rect width="8" height="8" x="10" y="29" fill="#fff" rx="1.333"/><path fill="#fff" d="M7.41 7C5.522 7 4 8.475 4 10.305v1C4 9.475 5.522 8 7.41 8h49.18C58.478 8 60 9.475 60 11.305v-1C60 8.475 58.478 7 56.59 7z" opacity=".2"/></svg>