<svg xmlns="http://www.w3.org/2000/svg" viewBox="0 0 64 64"><path fill-rule="evenodd" d="M32 57.05c16.017 0 29-10.738 29-25.926C61 15.938 48.017 5.001 32 5S3 15.938 3 31.124c0 8.317 3.893 15.159 10.045 19.828.368.28-.467 5.952-2.852 7.76-.587.446-.209 1.36.525 1.283 2.805-.292 6.924-1.54 9.78-4.97C24.025 56.338 27.914 57.05 32 57.05" opacity=".2"/><path fill="#57c93f" fill-rule="evenodd" d="M32 56.05c16.017 0 29-10.738 29-25.926C61 14.938 48.017 4.001 32 4S3 14.938 3 30.124c0 8.317 3.893 15.159 10.045 19.828.368.28-.467 5.952-2.852 7.76-.587.446-.209 1.36.525 1.283 2.805-.292 6.924-1.54 9.78-4.97C24.025 55.338 27.914 56.05 32 56.05"/><rect width="30" height="4" x="17" y="21" fill="#010101" opacity=".2" rx="2" ry="2"/><rect width="30" height="4" x="17" y="29" fill="#010101" opacity=".2" rx="2" ry="2"/><rect width="30" height="4" x="17" y="37" fill="#010101" opacity=".2" rx="2" ry="2"/><rect width="30" height="4" x="17" y="20" fill="#e4e4e4" rx="2" ry="2"/><rect width="30" height="4" x="17" y="28" fill="#e4e4e4" rx="2" ry="2"/><rect width="30" height="4" x="17" y="36" fill="#e4e4e4" rx="2" ry="2"/><path fill="#fff" fill-rule="evenodd" d="M32 4C15.983 4 3 14.938 3 30.125c0 .16.01.316.014.475C3.31 15.688 16.17 5 32 5c15.84.001 28.703 10.7 28.986 25.625.004-.167.014-.332.014-.5C61 14.938 48.017 4.001 32 4M13.088 51.043c-.194 1.802-1.11 5.316-2.895 6.67-.389.295-.349.79-.068 1.072.024-.024.04-.05.068-.072 2.267-1.72 3.13-6.919 2.895-7.67" opacity=".2"/></svg>