<svg xmlns="http://www.w3.org/2000/svg" xml:space="preserve" viewBox="0 0 396 460"><path fill="#232b33" d="M397 196c0 25.354 0 50.708-.354 76.652-2.107 7.924-4.004 15.228-5.582 22.6-3.164 14.78-8.624 28.728-15.05 42.329-2.404 5.088-4.799 10.235-7.79 14.982-7.642 12.132-14.917 24.598-23.685 35.885-6.827 8.789-15.405 16.308-23.714 23.829-7.058 6.389-14.538 12.416-22.368 17.826-18.059 12.475-37.447 22.34-58.808 28.009-1.064.282-1.774 1.895-2.649 2.888H1.057V1c67.964 0 135.985 0 204.609.362 3.298.834 6.037 1.135 8.681 1.806 11.367 2.888 23.098 4.877 33.956 9.098 13.38 5.2 26.405 11.631 38.873 18.77 10.566 6.049 20.663 13.218 29.97 21.074 9.2 7.765 17.713 16.535 25.49 25.74 7.842 9.282 15.248 19.157 21.308 29.659 6.592 11.423 11.516 23.822 16.982 35.88 6.466 14.262 10.44 29.276 13.17 44.666.485 2.734 1.912 5.3 2.904 7.945M274.906 359.79c17.128-6.51 23.091-25.78 12.242-39.98-5.336-6.985-12.731-9.804-21.403-9.816-36.633-.051-73.265-.202-109.898-.23-28.14-.022-56.282.073-84.422.14-7.687.018-7.696.057-7.699 7.481-.005 12.655-.01 25.31.017 37.965.004 1.768.188 3.534.304 5.585 2.265.103 4.062.256 5.86.256 63.441.017 126.883.042 190.325-.026 4.637-.005 9.272-.704 14.674-1.374m-36.25-204.325c1.041-.523 2.109-1 3.12-1.577 10.378-5.917 15.74-18.05 12.795-28.916-3.068-11.322-12.973-18.859-25.062-18.916-44.824-.21-89.648-.386-134.472-.556-10.31-.04-20.619-.006-31.339-.006v51.265c1.749.098 3.062.236 4.375.236 53.994.007 107.989.018 161.983-.054 2.623-.004 5.245-.747 8.6-1.476M94.5 207.817H63.86v51.354h7.017c27.817 0 55.633.022 83.449-.018 8.16-.012 16.32-.213 24.479-.309 9.246-.108 16.292-4.313 21.27-11.878 5.204-7.904 5.436-16.612 1.288-24.723-4.078-7.973-10.42-13.544-20.433-13.588-28.477-.123-56.953-.538-86.43-.838" data-iconColor="DeepSource"/><path fill="#f0251b" d="M274.523 359.938c-5.019.523-9.654 1.222-14.29 1.227-63.443.068-126.885.043-190.327.026-1.797 0-3.594-.153-5.859-.256-.116-2.05-.3-3.817-.304-5.585-.027-12.655-.022-25.31-.017-37.965.003-7.424.012-7.463 7.699-7.48 28.14-.068 56.281-.163 84.422-.141 36.633.028 73.265.179 109.898.23 8.672.012 16.067 2.831 21.403 9.815 10.85 14.2 4.886 33.47-12.625 40.129"/><path fill="#3cdd9c" d="M238.29 155.632c-2.99.563-5.611 1.306-8.234 1.31-53.994.072-107.989.06-161.983.054-1.313 0-2.626-.138-4.375-.236v-51.265c10.72 0 21.03-.034 31.339.006 44.824.17 89.648.346 134.472.556 12.09.057 21.994 7.594 25.062 18.916 2.944 10.866-2.417 23-12.795 28.916-1.011.576-2.079 1.054-3.486 1.743"/><path fill="#fbb504" d="M95 207.817c28.977.3 57.453.715 85.93.838 10.013.044 16.355 5.615 20.433 13.588 4.148 8.111 3.916 16.82-1.287 24.723-4.98 7.565-12.025 11.77-21.271 11.878-8.16.096-16.32.297-24.48.309-27.815.04-55.631.017-83.448.018H63.86v-51.354z"/></svg>