<svg xmlns="http://www.w3.org/2000/svg" xmlns:xlink="http://www.w3.org/1999/xlink" viewBox="0 0 128 128"><defs><linearGradient id="b" x1="50%" x2="50%" y1="0%" y2="100%"><stop offset="0%" stop-color="#00bffb"/><stop offset="100%" stop-color="#0044e5"/></linearGradient><linearGradient id="c" x1="50%" x2="50%" y1="0%" y2="104.625%"><stop offset="0%" stop-color="#fff"/><stop offset="100%" stop-color="#97d0ee"/></linearGradient><linearGradient id="d" x1=".637%" x2="81.226%" y1="-15.745%" y2="89.963%"><stop offset="0%" stop-color="#f7feff" stop-opacity=".839"/><stop offset="100%" stop-color="#fff" stop-opacity="0"/></linearGradient><linearGradient id="f" x1="50%" x2="50.353%" y1="1.79%" y2="100%"><stop offset="0%" stop-color="#fff"/><stop offset="100%" stop-color="#9cd8f8"/></linearGradient><linearGradient id="g" x1="50%" x2="50%" y1="0%" y2="101.58%"><stop offset="0%" stop-color="#003958" stop-opacity=".298"/><stop offset="100%" stop-color="#005294" stop-opacity=".101"/></linearGradient><linearGradient id="h" x1="50%" x2="50%" y1="0%" y2="100%"><stop offset="0%" stop-color="#e44d4d"/><stop offset="100%" stop-color="#ba2f6c"/></linearGradient><filter id="a" width="120.2%" height="118.8%" x="-10.4%" y="-7.5%" filterUnits="objectBoundingBox"><feOffset dy="2" in="SourceAlpha" result="shadowOffsetOuter1"/><feGaussianBlur in="shadowOffsetOuter1" result="shadowBlurOuter1" stdDeviation="3"/><feColorMatrix in="shadowBlurOuter1" result="shadowMatrixOuter1" values="0 0 0 0 0 0 0 0 0 0 0 0 0 0 0 0 0 0 0.2 0"/><feMerge><feMergeNode in="shadowMatrixOuter1"/><feMergeNode in="SourceGraphic"/></feMerge></filter><filter id="e" width="160.7%" height="126.8%" x="-29.1%" y="-10.8%" filterUnits="objectBoundingBox"><feOffset dy="2" in="SourceAlpha" result="shadowOffsetOuter1"/><feGaussianBlur in="shadowOffsetOuter1" result="shadowBlurOuter1" stdDeviation="3"/><feColorMatrix in="shadowBlurOuter1" result="shadowMatrixOuter1" values="0 0 0 0 0 0 0 0 0 0 0 0 0 0 0 0 0 0 0.2 0"/><feMerge><feMergeNode in="shadowMatrixOuter1"/><feMergeNode in="SourceGraphic"/></feMerge></filter></defs><g fill="none" fill-rule="evenodd"><g filter="url(#a)" transform="rotate(-8 132.214 -21.19)"><rect width="99" height="106.425" fill="url(#b)" rx="15.345"/><path fill="url(#c)" fill-rule="nonzero" d="M83.655 0C92.13 0 99 6.87 99 15.345V91.08c0 8.475-6.87 15.345-15.345 15.345h-68.31C6.87 106.425 0 99.555 0 91.08V15.345C0 6.87 6.87 0 15.345 0zm0 3.96h-68.31C9.057 3.96 3.96 9.057 3.96 15.345V91.08c0 6.288 5.097 11.385 11.385 11.385h68.31c6.288 0 11.385-5.097 11.385-11.385V15.345c0-6.288-5.097-11.385-11.385-11.385"/><path fill="url(#d)" d="M20.546 15.817h.743a2.475 2.475 0 0 1 2.475 2.475V28.44a2.475 2.475 0 0 1-2.475 2.475h-.743a2.475 2.475 0 0 1-2.475-2.475V18.292a2.475 2.475 0 0 1 2.475-2.475m0 58.905h.743a2.475 2.475 0 0 1 2.475 2.475v10.148a2.475 2.475 0 0 1-2.475 2.475h-.743a2.475 2.475 0 0 1-2.475-2.475V77.197a2.475 2.475 0 0 1 2.475-2.475m0-39.352h.743a2.475 2.475 0 0 1 2.475 2.475v10.147a2.475 2.475 0 0 1-2.475 2.475h-.743a2.475 2.475 0 0 1-2.475-2.475V37.845a2.475 2.475 0 0 1 2.475-2.475m10.643 0h.742a2.475 2.475 0 0 1 2.475 2.475v10.147a2.475 2.475 0 0 1-2.475 2.475h-.742a2.475 2.475 0 0 1-2.475-2.475V37.845a2.475 2.475 0 0 1 2.475-2.475m16.335-19.553h.742a2.475 2.475 0 0 1 2.475 2.475V28.44a2.475 2.475 0 0 1-2.475 2.475h-.742a2.475 2.475 0 0 1-2.475-2.475V18.292a2.475 2.475 0 0 1 2.475-2.475m0 58.905h.742a2.475 2.475 0 0 1 2.475 2.475v10.148a2.475 2.475 0 0 1-2.475 2.475h-.742a2.475 2.475 0 0 1-2.475-2.475V77.197a2.475 2.475 0 0 1 2.475-2.475m26.482-58.905h.743a2.475 2.475 0 0 1 2.475 2.475V28.44a2.475 2.475 0 0 1-2.475 2.475h-.743a2.475 2.475 0 0 1-2.475-2.475V18.292a2.475 2.475 0 0 1 2.475-2.475m0 58.905h.743a2.475 2.475 0 0 1 2.475 2.475v10.148a2.475 2.475 0 0 1-2.475 2.475h-.743a2.475 2.475 0 0 1-2.475-2.475V77.197a2.475 2.475 0 0 1 2.475-2.475M57.92 35.37h.742a2.475 2.475 0 0 1 2.475 2.475v10.147a2.475 2.475 0 0 1-2.475 2.475h-.742a2.475 2.475 0 0 1-2.475-2.475V37.845a2.475 2.475 0 0 1 2.475-2.475M36.88 54.427h.743a2.475 2.475 0 0 1 2.475 2.475V67.05a2.475 2.475 0 0 1-2.475 2.475h-.743a2.475 2.475 0 0 1-2.475-2.475V56.902a2.475 2.475 0 0 1 2.475-2.475m42.818 0h.742a2.475 2.475 0 0 1 2.475 2.475V67.05a2.475 2.475 0 0 1-2.475 2.475h-.74a2.475 2.475 0 0 1-2.475-2.475V56.902a2.475 2.475 0 0 1 2.475-2.475m-45.54-38.61a5.693 5.693 0 0 1 5.692 5.693v3.712a5.693 5.693 0 0 1-11.385 0V21.51a5.693 5.693 0 0 1 5.693-5.693m.1 5.165c-.993 0-1.798.805-1.798 1.798v1.172a1.798 1.798 0 0 0 3.595 0V22.78c0-.993-.805-1.798-1.797-1.798m-.1 53.74a5.693 5.693 0 0 1 5.692 5.693v3.712a5.693 5.693 0 0 1-11.385 0v-3.712a5.693 5.693 0 0 1 5.693-5.693m.1 5.165c-.993 0-1.798.805-1.798 1.798v1.172a1.798 1.798 0 0 0 3.595 0v-1.172c0-.993-.805-1.798-1.797-1.798m26.877-64.07a5.693 5.693 0 0 1 5.693 5.693v3.712a5.693 5.693 0 0 1-11.385 0V21.51a5.693 5.693 0 0 1 5.692-5.693m.1 5.165c-.993 0-1.797.805-1.797 1.798v1.172a1.798 1.798 0 0 0 3.595 0V22.78c0-.993-.805-1.798-1.798-1.798m-.1 53.74a5.693 5.693 0 0 1 5.693 5.693v3.712a5.693 5.693 0 0 1-11.385 0v-3.712a5.693 5.693 0 0 1 5.692-5.693m.1 5.165c-.993 0-1.797.805-1.797 1.798v1.172a1.798 1.798 0 0 0 3.595 0v-1.172c0-.993-.805-1.798-1.798-1.798M71.531 35.37a5.693 5.693 0 0 1 5.693 5.692v3.713a5.693 5.693 0 0 1-11.385 0v-3.713a5.693 5.693 0 0 1 5.692-5.692m.1 5.164c-.993 0-1.797.805-1.797 1.798v1.172a1.798 1.798 0 0 0 3.595 0v-1.172c0-.993-.805-1.798-1.798-1.798M50.494 54.427a5.693 5.693 0 0 1 5.692 5.693v3.712a5.693 5.693 0 0 1-11.385 0V60.12a5.693 5.693 0 0 1 5.693-5.693m.1 5.165c-.993 0-1.798.805-1.798 1.798v1.172a1.798 1.798 0 0 0 3.595 0V61.39c0-.993-.805-1.798-1.797-1.798m-26.83-4.422a5.693 5.693 0 0 1 5.692 5.692v3.713a5.693 5.693 0 0 1-11.385 0v-3.713a5.693 5.693 0 0 1 5.693-5.692m.1 5.164c-.993 0-1.798.805-1.798 1.798v1.172a1.798 1.798 0 0 0 3.595 0v-1.172c0-.993-.805-1.798-1.797-1.798m42.965-5.164a5.693 5.693 0 0 1 5.692 5.692v3.713a5.693 5.693 0 0 1-11.385 0v-3.713a5.693 5.693 0 0 1 5.693-5.692m.1 5.164c-.993 0-1.798.805-1.798 1.798v1.172a1.798 1.798 0 0 0 3.595 0v-1.172c0-.993-.805-1.798-1.797-1.798M44.8 35.617a5.693 5.693 0 0 1 5.693 5.693v3.712a5.693 5.693 0 0 1-11.385 0V41.31a5.693 5.693 0 0 1 5.692-5.693m.1 5.165c-.993 0-1.797.805-1.797 1.798v1.172a1.798 1.798 0 0 0 3.595 0V42.58c0-.993-.805-1.798-1.798-1.798" opacity=".759" transform="rotate(-.5 50.494 52.818)"/></g><g filter="url(#e)" transform="rotate(12 -154.45 456.582)"><path fill="url(#f)" d="M2.899 4.696C4.226 2.586 9.922 2.039 15.23 1.99c5.126-.047 11.2-.058 11.827 2.496.648 2.64 1.95 19.835.264 29.251S20.199 46 18.716 51.24s-.726 10.61 2.204 13.936 10.653 2.747 9.983 4.964q-.67 2.217-14.554 2.625-12.768-.151-13.73-2.036c-.351-.685-.22-1.526 1.75-2.226 3.053-1.084 6.653-1.597 8.182-3.327 1.633-1.847 3.428-7.645 1.21-13.936-2.217-6.29-7.016-8.069-9.655-17.502S1.571 6.807 2.9 4.696"/><path fill="url(#g)" fill-rule="nonzero" d="M23.104.301c3.237.45 5.324 1.461 5.877 3.713 1.132 4.613 1.721 22.08.29 30.072-.764 4.267-2.194 7.426-4.554 10.882-.357.523-2.055 2.892-2.463 3.508-.832 1.257-1.337 2.26-1.632 3.302-1.333 4.713-.621 9.357 1.784 12.089.633.718 1.78 1.295 3.534 1.81.422.124.861.24 1.442.386l.723.18c.295.073.506.126.71.179 1.174.305 1.912.557 2.543.932 1.208.718 1.872 1.927 1.44 3.358-.857 2.835-5.751 3.718-16.472 4.032C6.63 74.629 2.04 73.948.855 71.629c-1.066-2.087.121-4.023 2.851-4.993.609-.216 1.24-.414 2.07-.656l.532-.153.195-.056.135-.039.191-.055c2.592-.745 3.71-1.216 4.239-1.813 1.686-1.907 2.496-7.229.826-11.967-.632-1.793-1.454-3.167-3.005-5.224-.13-.174-.266-.353-.45-.592l-.465-.61a70 70 0 0 1-.966-1.293C4.785 41.12 3.314 38.256 2.2 34.27-.293 25.358-.735 6.755 1.223 3.642 2.925.935 7.663.08 15.213.01c3.898-.036 5.89.014 7.89.291M17.595 1.98h-.893q-.744.004-1.47.01c-5.31.05-11.006.595-12.333 2.706-1.328 2.11-1.431 19.608 1.207 29.041s7.438 11.211 9.655 17.502c2.218 6.291.423 12.089-1.21 13.936-1.529 1.73-5.129 2.243-8.182 3.327-1.97.7-2.101 1.54-1.75 2.226q.962 1.885 13.73 2.036 13.884-.408 14.554-2.625c.67-2.217-7.053-1.637-9.983-4.964s-3.686-8.696-2.204-13.936c1.483-5.24 6.92-8.086 8.606-17.502.576-3.215.803-7.337.827-11.477l.002-.887c-.008-7.685-.682-15.212-1.093-16.887-.532-2.169-4.992-2.488-9.463-2.506"/><path fill="url(#h)" fill-rule="nonzero" d="M5.059 21.86c.328-.373 1.452.311 3.144 1.003 1.214.496 2.772.277 3.954-.13 2.797-.965 6.324-6.227 9.364-6.846s3.616.204 3.989.893c.373.688.514 13.507-1.003 18.451-.723 2.355-1.896 5.505-4.681 8.348-1.91 1.95-4.54 2.096-6.82.178-1.68-1.413-4.017-3.973-5.918-9.042-1.26-3.357-2.47-12.355-2.03-12.855"/></g></g></svg>