<svg xmlns="http://www.w3.org/2000/svg" xmlns:xlink="http://www.w3.org/1999/xlink" viewBox="0 0 96 96"><defs><filter id="a" width="127.9%" height="130.8%" x="-14%" y="-15.4%" filterUnits="objectBoundingBox"><feOffset dy="2" in="SourceAlpha" result="shadowOffsetOuter1"/><feGaussianBlur in="shadowOffsetOuter1" result="shadowBlurOuter1" stdDeviation="2"/><feComposite in="shadowBlurOuter1" in2="SourceAlpha" operator="out" result="shadowBlurOuter1"/><feColorMatrix in="shadowBlurOuter1" result="shadowMatrixOuter1" values="0 0 0 0 0 0 0 0 0 0 0 0 0 0 0 0 0 0 0.2 0"/><feMerge><feMergeNode in="shadowMatrixOuter1"/><feMergeNode in="SourceGraphic"/></feMerge></filter><filter id="e" width="102.1%" height="108.3%" x="-1%" y="-2.1%" filterUnits="objectBoundingBox"><feOffset dy="1" in="SourceAlpha" result="shadowOffsetOuter1"/><feColorMatrix in="shadowOffsetOuter1" values="0 0 0 0 0 0 0 0 0 0 0 0 0 0 0 0 0 0 0.1 0"/></filter><filter id="g" width="102.1%" height="108.3%" x="-1%" y="-2.1%" filterUnits="objectBoundingBox"><feOffset dy="1" in="SourceAlpha" result="shadowOffsetInner1"/><feComposite in="shadowOffsetInner1" in2="SourceAlpha" k2="-1" k3="1" operator="arithmetic" result="shadowInnerInner1"/><feColorMatrix in="shadowInnerInner1" result="shadowMatrixInner1" values="0 0 0 0 1 0 0 0 0 1 0 0 0 0 1 0 0 0 0.05 0"/><feOffset dy="-1" in="SourceAlpha" result="shadowOffsetInner2"/><feComposite in="shadowOffsetInner2" in2="SourceAlpha" k2="-1" k3="1" operator="arithmetic" result="shadowInnerInner2"/><feColorMatrix in="shadowInnerInner2" result="shadowMatrixInner2" values="0 0 0 0 0 0 0 0 0 0 0 0 0 0 0 0 0 0 0.5 0"/><feMerge><feMergeNode in="shadowMatrixInner1"/><feMergeNode in="shadowMatrixInner2"/></feMerge></filter><linearGradient id="b" x1="50%" x2="50%" y1="0%" y2="98.139%"><stop offset="0%" stop-color="#fff"/><stop offset="100%" stop-color="#ededed"/></linearGradient><linearGradient id="f" x1="50%" x2="50%" y1="0%" y2="100%"><stop offset="0%" stop-color="#4a4a4a"/><stop offset="97.645%" stop-color="#363636"/></linearGradient><path id="c" d="M63 27h2a2 2 0 0 1 2 2v2a2 2 0 0 1-2 2h-2a2 2 0 0 1-2-2v-2a2 2 0 0 1 2-2m-9 0h2a2 2 0 0 1 2 2v2a2 2 0 0 1-2 2h-2a2 2 0 0 1-2-2v-2a2 2 0 0 1 2-2m-9 0h2a2 2 0 0 1 2 2v2a2 2 0 0 1-2 2h-2a2 2 0 0 1-2-2v-2a2 2 0 0 1 2-2m7 11v2a2 2 0 0 1-2 2h-2a2 2 0 0 1-2-2v-2a2 2 0 0 1 2-2h2a2 2 0 0 1 2 2M36 27h2a2 2 0 0 1 2 2v2a2 2 0 0 1-2 2h-2a2 2 0 0 1-2-2v-2a2 2 0 0 1 2-2m7 11v2a2 2 0 0 1-2 2h-2a2 2 0 0 1-2-2v-2a2 2 0 0 1 2-2h2a2 2 0 0 1 2 2M21 27h8a2 2 0 0 1 2 2v2a2 2 0 0 1-2 2h-8a2 2 0 0 1-2-2v-2a2 2 0 0 1 2-2m0 9h11a2 2 0 0 1 2 2v2a2 2 0 0 1-2 2H21a2 2 0 0 1-2-2v-2a2 2 0 0 1 2-2m35 15H33a2 2 0 0 1-2-2v-2a2 2 0 0 1 2-2h23a2 2 0 0 1 2 2v2a2 2 0 0 1-2 2m-30 0h-5a2 2 0 0 1-2-2v-2a2 2 0 0 1 2-2h5a2 2 0 0 1 2 2v2a2 2 0 0 1-2 2m39-9h-8a2 2 0 0 1-2-2v-2a2 2 0 0 1 2-2h8a2 2 0 0 1 2 2v2a2 2 0 0 1-2 2m0 9h-2a2 2 0 0 1-2-2v-2a2 2 0 0 1 2-2h2a2 2 0 0 1 2 2v2a2 2 0 0 1-2 2"/></defs><g fill="none" fill-rule="evenodd" filter="url(#a)" transform="translate(5 9)"><rect width="86" height="78" fill="url(#b)" rx="15.146"/><g fill-rule="nonzero"><use xlink:href="#c" fill="#000" filter="url(#e)"/><use xlink:href="#c" fill="url(#f)"/><use xlink:href="#c" fill="#000" filter="url(#g)"/></g></g></svg>