<svg xmlns="http://www.w3.org/2000/svg" xmlns:xlink="http://www.w3.org/1999/xlink" viewBox="0 0 128 128"><defs><linearGradient id="e" x1="90.512%" x2="0%" y1="9.219%" y2="67.534%"><stop offset="0%" stop-color="#0ab4ff"/><stop offset="100%" stop-color="#0a51d0"/></linearGradient><linearGradient id="h" x1="0%" x2="50%" y1="10.584%" y2="89.416%"><stop offset="0%" stop-color="#77ffb0"/><stop offset="100%" stop-color="#00bbe2"/></linearGradient><linearGradient id="i" x1="116.402%" x2="-38.686%" y1="-3.463%" y2="95.292%"><stop offset="0%" stop-color="#0037e8"/><stop offset="100%" stop-color="#00c8f8"/></linearGradient><linearGradient id="j" x1="50%" x2="50%" y1="0%" y2="147.589%"><stop offset="0%" stop-color="#fff"/><stop offset="100%" stop-color="#fff" stop-opacity=".558"/></linearGradient><filter id="a" width="119.2%" height="119.2%" x="-9.6%" y="-7.7%" filterUnits="objectBoundingBox"><feOffset dy="2" in="SourceAlpha" result="shadowOffsetOuter1"/><feGaussianBlur in="shadowOffsetOuter1" result="shadowBlurOuter1" stdDeviation="3"/><feColorMatrix in="shadowBlurOuter1" result="shadowMatrixOuter1" values="0 0 0 0 0 0 0 0 0 0 0 0 0 0 0 0 0 0 0.2 0"/><feMerge><feMergeNode in="shadowMatrixOuter1"/><feMergeNode in="SourceGraphic"/></feMerge></filter><filter id="c" width="120.9%" height="116.9%" x="-10.4%" y="-8.3%" filterUnits="objectBoundingBox"><feOffset dy="2" in="SourceAlpha" result="shadowOffsetOuter1"/><feGaussianBlur in="shadowOffsetOuter1" result="shadowBlurOuter1" stdDeviation="2"/><feColorMatrix in="shadowBlurOuter1" values="0 0 0 0 0 0 0 0 0 0.0350400191 0 0 0 0 0.298035553 0 0 0 0.16 0"/></filter><filter id="g" width="123.3%" height="120.4%" x="-11.7%" y="-9.4%" filterUnits="objectBoundingBox"><feOffset dy="2" in="SourceAlpha" result="shadowOffsetOuter1"/><feGaussianBlur in="shadowOffsetOuter1" result="shadowBlurOuter1" stdDeviation="2"/><feColorMatrix in="shadowBlurOuter1" values="0 0 0 0 0.0705882353 0 0 0 0 0.235294118 0 0 0 0 0.180392157 0 0 0 0.152043269 0"/></filter><path id="b" d="M9 0h49a9 9 0 0 1 9 9v28a9 9 0 0 1-9 9H16.95a2.5 2.5 0 0 0-1.68.649L5.016 55.956A3 3 0 0 1 0 53.734V9a9 9 0 0 1 9-9"/><path id="f" d="M31 20h42a9 9 0 0 1 9 9v23a9 9 0 0 1-9 9H38.538a2.5 2.5 0 0 0-1.542.532L26.85 69.476A3 3 0 0 1 22 67.114V29a9 9 0 0 1 9-9"/></defs><g fill="none" fill-rule="evenodd" filter="url(#a)" transform="translate(12 12)"><rect width="104" height="104" fill="#f1fdff" rx="20"/><g fill-rule="nonzero" opacity=".86" transform="translate(11 20)"><use xlink:href="#b" fill="#000" filter="url(#c)"/><use xlink:href="#b" fill="url(#e)"/></g><g transform="matrix(-1 0 0 1 115 20)"><use xlink:href="#f" fill="#000" filter="url(#g)"/><use xlink:href="#f" fill="url(#h)"/></g><path fill="url(#i)" fill-rule="nonzero" d="M67 20v17a9 9 0 0 1-9 9H22V29a9 9 0 0 1 8.735-8.996L31 20z" opacity=".86" transform="translate(11 20)"/><path fill="url(#j)" fill-rule="nonzero" d="M61 26v9h-5v-4h-4v-5z" transform="translate(11 20)"/></g></svg>