<svg xmlns="http://www.w3.org/2000/svg" xmlns:xlink="http://www.w3.org/1999/xlink" viewBox="0 0 64 64"><defs><linearGradient id="b" x1="46.722%" x2="57.974%" y1="0%" y2="100%"><stop offset="0%" stop-color="#d7e4ff"/><stop offset="100%" stop-color="#f4f9ff"/></linearGradient><linearGradient id="c" x1="0%" x2="100%" y1="63.484%" y2="63.484%"><stop offset="0%" stop-color="#f1f6ff"/><stop offset="100%" stop-color="#cddcfa"/></linearGradient><linearGradient id="d" x1="0%" x2="100%" y1="63.484%" y2="63.484%"><stop offset="0%" stop-color="#f1f6ff"/><stop offset="100%" stop-color="#cddcfa"/></linearGradient><linearGradient id="e" x1="50%" x2="50%" y1="0%" y2="38.396%"><stop offset="0%" stop-color="#102956"/><stop offset="100%" stop-color="#2c5a99"/></linearGradient><linearGradient id="f" x1="49.89%" x2="46.631%" y1="3.043%" y2="93.023%"><stop offset="0%" stop-color="#30466a"/><stop offset="26.689%" stop-color="#496da3"/><stop offset="54.086%" stop-color="#4c6c9b"/><stop offset="82.43%" stop-color="#44628d"/><stop offset="100%" stop-color="#214068"/></linearGradient><linearGradient id="g" x1="35.12%" x2="58.976%" y1="53.028%" y2="36.947%"><stop offset="0%" stop-color="#19467e"/><stop offset="100%" stop-color="#0f2e5e"/></linearGradient><linearGradient id="k" x1="50%" x2="50%" y1="0%" y2="100%"><stop offset="0%" stop-color="#4b4b4b"/><stop offset="100%" stop-color="#070707"/></linearGradient><filter id="a" width="140.5%" height="130.5%" x="-19%" y="-13.6%" filterUnits="objectBoundingBox"><feOffset dy="1" in="SourceAlpha" result="shadowOffsetOuter1"/><feGaussianBlur in="shadowOffsetOuter1" result="shadowBlurOuter1" stdDeviation="1.5"/><feColorMatrix in="shadowBlurOuter1" result="shadowMatrixOuter1" values="0 0 0 0 0 0 0 0 0 0 0 0 0 0 0 0 0 0 0.2 0"/><feMerge><feMergeNode in="shadowMatrixOuter1"/><feMergeNode in="SourceGraphic"/></feMerge></filter><filter id="j" width="117.4%" height="117.4%" x="-8.7%" y="-4.3%" filterUnits="objectBoundingBox"><feOffset dy="1" in="SourceAlpha" result="shadowOffsetOuter1"/><feGaussianBlur in="shadowOffsetOuter1" result="shadowBlurOuter1" stdDeviation=".5"/><feColorMatrix in="shadowBlurOuter1" values="0 0 0 0 0 0 0 0 0 0 0 0 0 0 0 0 0 0 0.195230551 0"/></filter><circle id="h" cx="12" cy="12.375" r="11.5"/></defs><g fill="none" fill-rule="evenodd" filter="url(#a)" transform="translate(14.875 1.75)"><g transform="translate(.125 .25)"><path fill="url(#b)" d="M1 5.992A5.997 5.997 0 0 1 7 0h20c3.314 0 6 2.692 6 5.992v45.016A5.997 5.997 0 0 1 27 57H7c-3.314 0-6-2.692-6-5.992z"/><path fill="#000" d="M2 6.002A5 5 0 0 1 6.996 1h19.959a5.006 5.006 0 0 1 5 5.002l.043 44.996a4.99 4.99 0 0 1-5 5.002H7.005A5.005 5.005 0 0 1 2 50.998z"/><path fill="url(#c)" d="M.5 12H1v4H.5a.5.5 0 0 1-.5-.5v-3a.5.5 0 0 1 .5-.5"/><path fill="url(#d)" d="M33.5 13h.5v6h-.5a.5.5 0 0 1-.5-.5v-5a.5.5 0 0 1 .5-.5" transform="matrix(-1 0 0 1 67 0)"/><path fill="url(#c)" d="M.5 18H1v4H.5a.5.5 0 0 1-.5-.5v-3a.5.5 0 0 1 .5-.5"/><path fill="url(#e)" d="M7 2h7.143c.498 0 .927.352 1.025.84l.082.41c.145.727.784 1.25 1.525 1.25h.45c.741 0 1.38-.523 1.525-1.25l.082-.41c.098-.488.527-.84 1.025-.84H27a4 4 0 0 1 4 4v45a4 4 0 0 1-4 4H7a4 4 0 0 1-4-4V6a4 4 0 0 1 4-4"/><path fill="url(#f)" d="M.125 11.364Q16.46 5.516 16.722 3.6q.26-1.917.457-3.577 9.835 4.158 10.946 7.352v26a4 4 0 0 1-4 4h-20a4 4 0 0 1-4-4z" opacity=".796" transform="translate(2.875 17.625)"/><path fill="url(#g)" d="M.125 10.125q5.25-.5 10.25-3.75T17.168 0q5.553 7.318-2.353 10.324c-7.906 3.006-5.946 10.65.523 11.304s6.273 1.241 2.352 5.423S5.352 33.375.125 33.375z" transform="translate(2.875 17.625)"/><rect width="4" height="4" x="6" y="6" fill="#00c4cc" rx="1"/><rect width="4" height="4" x="12" y="6" fill="#ffdd3a" rx="1"/><rect width="4" height="4" x="18" y="6" fill="#e8a1ea" rx="1"/><rect width="4" height="4" x="24" y="6" fill="#969696" rx="1"/><rect width="4" height="4" x="6" y="12" fill="#00dc52" rx="1"/><rect width="4" height="4" x="12" y="12" fill="#ce4b67" rx="1"/><rect width="4" height="4" x="24" y="12" fill="#dd6a60" rx="1"/><rect width="4" height="4" x="6" y="18" fill="#3986fa" rx="1"/><rect width="4" height="4" x="12" y="18" fill="#9e43d0" rx="1"/><rect width="4" height="4" x="18" y="12" fill="#dabf9f" rx="1"/><rect width="4" height="4" x="18" y="18" fill="#666" rx="1"/><rect width="4" height="4" x="6" y="24" fill="#c59f35" rx="1"/><rect width="4" height="4" x="6" y="48" fill="#482ac5" rx="1"/><rect width="4" height="4" x="12" y="48" fill="#1d84fe" rx="1"/><rect width="4" height="4" x="18" y="48" fill="#6fad93" rx="1"/><rect width="4.75" height="4.75" x="24.625" y="48.875" fill="#d8d8d8" rx="1"/><path fill="#fff" fill-opacity=".15" d="M17 4a1 1 0 1 0 0-2 1 1 0 0 0 0 2"/><path fill="#fff" fill-opacity=".15" d="M17 3.5a.5.5 0 1 0 0-1 .5.5 0 0 0 0 1"/></g><g transform="translate(17.625 34.375)"><use xlink:href="#h" fill="#000" filter="url(#j)"/><use xlink:href="#h" fill="#fff"/></g><path fill="url(#k)" d="M19.427 13.875a.25.25 0 0 1 .183.42l-5.677 6.113a.25.25 0 0 1-.433-.17v-3.363h-7a1 1 0 0 1-1-1v-1a1 1 0 0 1 1-1ZM11.25 5.262a.25.25 0 0 1 .25.25v3.363h7a1 1 0 0 1 1 1v1a1 1 0 0 1-1 1H5.573a.25.25 0 0 1-.183-.42l5.677-6.113a.25.25 0 0 1 .183-.08" transform="translate(17.625 34.375)"/></g></svg>