<svg xmlns="http://www.w3.org/2000/svg" xmlns:xlink="http://www.w3.org/1999/xlink" viewBox="0 0 128 128"><defs><linearGradient id="d" x1="50%" x2="50%" y1="0%" y2="98.356%"><stop offset="0%" stop-color="#c6c6c6"/><stop offset="100%" stop-color="#999"/></linearGradient><linearGradient id="f" x1="50%" x2="50%" y1="0%" y2="100%"><stop offset="0%" stop-opacity=".419"/><stop offset="100%" stop-opacity=".625"/></linearGradient><linearGradient id="h" x1="50%" x2="50%" y1="0%" y2="98.356%"><stop offset="0%" stop-color="#6a8aa9"/><stop offset="100%" stop-color="#0e2a47"/></linearGradient><linearGradient id="j" x1="50%" x2="50%" y1="5.774%" y2="97.989%"><stop offset="0%" stop-opacity=".194"/><stop offset="100%" stop-opacity=".674"/></linearGradient><linearGradient id="l" x1="50%" x2="50%" y1="8.649%" y2="131.475%"><stop offset="0%" stop-opacity=".215"/><stop offset="100%" stop-opacity=".306"/></linearGradient><linearGradient id="q" x1="50%" x2="50%" y1="0%" y2="95.99%"><stop offset="0%" stop-opacity=".276"/><stop offset="100%" stop-opacity=".489"/></linearGradient><filter id="a" width="128.6%" height="131.1%" x="-14.3%" y="-15.1%" filterUnits="objectBoundingBox"><feOffset dy="2" in="SourceAlpha" result="shadowOffsetOuter1"/><feGaussianBlur in="shadowOffsetOuter1" result="shadowBlurOuter1" stdDeviation="3"/><feColorMatrix in="shadowBlurOuter1" result="shadowMatrixOuter1" values="0 0 0 0 0 0 0 0 0 0 0 0 0 0 0 0 0 0 0.2 0"/><feMerge><feMergeNode in="shadowMatrixOuter1"/><feMergeNode in="SourceGraphic"/></feMerge></filter><filter id="e" width="101%" height="101%" x="-.5%" y="-.5%" filterUnits="objectBoundingBox"><feOffset dy="1" in="SourceAlpha" result="shadowOffsetInner1"/><feComposite in="shadowOffsetInner1" in2="SourceAlpha" k2="-1" k3="1" operator="arithmetic" result="shadowInnerInner1"/><feColorMatrix in="shadowInnerInner1" values="0 0 0 0 1 0 0 0 0 1 0 0 0 0 1 0 0 0 0.562691215 0"/></filter><filter id="i" width="111.5%" height="112.1%" x="-5.7%" y="-6%" filterUnits="objectBoundingBox"><feMorphology in="SourceAlpha" radius="3" result="shadowSpreadInner1"/><feGaussianBlur in="shadowSpreadInner1" result="shadowBlurInner1" stdDeviation="3.5"/><feOffset dy="1" in="shadowBlurInner1" result="shadowOffsetInner1"/><feComposite in="shadowOffsetInner1" in2="SourceAlpha" k2="-1" k3="1" operator="arithmetic" result="shadowInnerInner1"/><feColorMatrix in="shadowInnerInner1" values="0 0 0 0 0 0 0 0 0 0 0 0 0 0 0 0 0 0 0.370574738 0"/></filter><filter id="n" width="127.8%" height="144.1%" x="-19.4%" y="-28%" filterUnits="objectBoundingBox"><feOffset dx="-3" dy="-2" in="SourceAlpha" result="shadowOffsetOuter1"/><feGaussianBlur in="shadowOffsetOuter1" result="shadowBlurOuter1" stdDeviation="2"/><feColorMatrix in="shadowBlurOuter1" values="0 0 0 0 0 0 0 0 0 0 0 0 0 0 0 0 0 0 0.20388986 0"/></filter><filter id="p" width="116.7%" height="126.5%" x="-13.9%" y="-19.1%" filterUnits="objectBoundingBox"><feOffset dy="1" in="SourceAlpha" result="shadowOffsetInner1"/><feComposite in="shadowOffsetInner1" in2="SourceAlpha" k2="-1" k3="1" operator="arithmetic" result="shadowInnerInner1"/><feColorMatrix in="shadowInnerInner1" values="0 0 0 0 1 0 0 0 0 1 0 0 0 0 1 0 0 0 1 0"/></filter><path id="b" d="M9 1h88a8 8 0 0 1 8 8v83a8 8 0 0 1-8 8H9a8 8 0 0 1-8-8V9a8 8 0 0 1 8-8"/><path id="g" d="M9 5h88a4 4 0 0 1 4 4v83a4 4 0 0 1-4 4H9a4 4 0 0 1-4-4V9a4 4 0 0 1 4-4"/><path id="m" d="M103.08 83.302c-1.315-5.18-5.979-9.019-11.547-9.019-1.62 0-3.16.327-4.57.914C84.548 72.618 81.128 71 77.324 71 70.08 71 64.2 76.847 64.09 84.098A10.76 10.76 0 0 0 57 94.22c0 5.915 4.748 10.712 10.624 10.766l32.687-.006C106.243 104.8 111 99.925 111 93.923c0-5.032-3.344-9.273-7.92-10.62"/><radialGradient id="k" cx="50%" cy="18.931%" r="100%" fx="50%" fy="18.931%"><stop offset="2.576%" stop-color="#b4e09e"/><stop offset="100%" stop-color="#1a8f29"/></radialGradient><radialGradient id="o" cx="50%" cy="10.639%" r="131.018%" fx="50%" fy="10.639%" gradientTransform="matrix(.62937 0 0 1 .185 0)"><stop offset="0%" stop-color="#fff"/><stop offset="99.984%" stop-color="#b8c2cb"/></radialGradient></defs><g fill="none" fill-rule="evenodd" filter="url(#a)" transform="translate(11 11)"><use xlink:href="#b" fill="url(#d)"/><use xlink:href="#b" fill="#000" filter="url(#e)"/><path fill="url(#f)" fill-rule="nonzero" d="M97 0H9a9 9 0 0 0-9 9v83a9 9 0 0 0 9 9h88a9 9 0 0 0 9-9V9a9 9 0 0 0-9-9m0 1a8 8 0 0 1 8 8v83a8 8 0 0 1-8 8H9a8 8 0 0 1-8-8V9a8 8 0 0 1 8-8z"/><use xlink:href="#g" fill="url(#h)"/><use xlink:href="#g" fill="#000" filter="url(#i)"/><path fill="url(#j)" fill-rule="nonzero" d="M97 5a4 4 0 0 1 4 4v83a4 4 0 0 1-4 4H9a4 4 0 0 1-4-4V9a4 4 0 0 1 4-4zm0 1H9a3 3 0 0 0-2.995 2.824L6 9v83a3 3 0 0 0 2.824 2.995L9 95h88a3 3 0 0 0 2.995-2.824L100 92V9a3 3 0 0 0-2.824-2.995z"/><circle cx="91.5" cy="14.5" r="2.5" fill="url(#k)"/><path fill="url(#l)" fill-rule="nonzero" d="M91.5 11a3.5 3.5 0 1 0 0 7 3.5 3.5 0 0 0 0-7m0 1a2.5 2.5 0 1 1 0 5 2.5 2.5 0 0 1 0-5"/><g fill="#fff" fill-rule="nonzero"><path d="M23 13h43l17 17v56H23z" opacity=".5"/><path d="M31 27h31v2H31zm44 11v2H31v-2zm0 24v2H31v-2zM59 73h16v2H59z" opacity=".505"/><path fill-opacity=".5" d="m66 13 17 17H66z"/></g><path fill="#09fd02" d="M6 45h94v3H6z" opacity=".596"/><g fill-rule="nonzero"><use xlink:href="#m" fill="#000" filter="url(#n)"/><use xlink:href="#m" fill="url(#o)"/><use xlink:href="#m" fill="#000" filter="url(#p)"/></g><path fill="url(#q)" fill-rule="nonzero" d="M77.01 70.003c-7.325.16-13.294 5.878-13.876 13.138l-.02.267-.213.095A11.76 11.76 0 0 0 56 94.22c0 6.458 5.185 11.707 11.615 11.766l32.696-.006c6.519-.198 11.689-5.53 11.689-12.057l-.004-.304a12.07 12.07 0 0 0-7.775-10.987l-.324-.118-.017-.063c-1.647-5.388-6.617-9.168-12.347-9.168l-.428.007a12.8 12.8 0 0 0-3.736.685l-.153.054-.054-.054A14.15 14.15 0 0 0 77.324 70zm.314.997c3.804 0 7.224 1.618 9.64 4.197a11.9 11.9 0 0 1 4.57-.914c5.567 0 10.231 3.838 11.545 9.02A11.07 11.07 0 0 1 111 93.922c0 5.904-4.602 10.717-10.399 11.044l-.29.013-32.687.006C61.748 104.932 57 100.136 57 94.22c0-4.664 2.958-8.625 7.089-10.122C64.2 76.847 70.079 71 77.324 71"/></g></svg>