<svg xmlns="http://www.w3.org/2000/svg" xmlns:xlink="http://www.w3.org/1999/xlink" viewBox="0 0 128 128"><defs><linearGradient id="c" x1="50%" x2="50%" y1="-7.925%" y2="95.501%"><stop offset="0%" stop-color="#fff"/><stop offset="100%" stop-color="#c5cfe5"/></linearGradient><linearGradient id="f" x1="50%" x2="50%" y1="0%" y2="100%"><stop offset="0%" stop-color="#00389e" stop-opacity=".17"/><stop offset="100%" stop-color="#002071" stop-opacity=".493"/></linearGradient><linearGradient id="j" x1="125.314%" x2="125.314%" y1="71.813%" y2="0%"><stop offset="0%" stop-color="#00366f" stop-opacity=".294"/><stop offset="100%" stop-color="#5581ae"/></linearGradient><linearGradient id="k" x1="51.001%" x2="51.001%" y1="0%" y2="100%"><stop offset="0%" stop-color="#fefefe"/><stop offset="100%" stop-color="#fff" stop-opacity=".068"/></linearGradient><filter id="a" width="126.7%" height="126.7%" x="-13.3%" y="-13.3%" filterUnits="objectBoundingBox"><feOffset dy="2" in="SourceAlpha" result="shadowOffsetOuter1"/><feGaussianBlur in="shadowOffsetOuter1" result="shadowBlurOuter1" stdDeviation="3"/><feColorMatrix in="shadowBlurOuter1" result="shadowMatrixOuter1" values="0 0 0 0 0 0 0 0 0 0 0 0 0 0 0 0 0 0 0.2 0"/><feMerge><feMergeNode in="shadowMatrixOuter1"/><feMergeNode in="SourceGraphic"/></feMerge></filter><filter id="e" width="102.5%" height="102.5%" x="-1.3%" y="-1.3%" filterUnits="objectBoundingBox"><feOffset dy="-3" in="SourceAlpha" result="shadowOffsetInner1"/><feComposite in="shadowOffsetInner1" in2="SourceAlpha" k2="-1" k3="1" operator="arithmetic" result="shadowInnerInner1"/><feColorMatrix in="shadowInnerInner1" result="shadowMatrixInner1" values="0 0 0 0 0 0 0 0 0 0 0 0 0 0 0 0 0 0 0.13051792 0"/><feOffset dy="2" in="SourceAlpha" result="shadowOffsetInner2"/><feComposite in="shadowOffsetInner2" in2="SourceAlpha" k2="-1" k3="1" operator="arithmetic" result="shadowInnerInner2"/><feColorMatrix in="shadowInnerInner2" result="shadowMatrixInner2" values="0 0 0 0 1 0 0 0 0 1 0 0 0 0 1 0 0 0 1 0"/><feMerge><feMergeNode in="shadowMatrixInner1"/><feMergeNode in="shadowMatrixInner2"/></feMerge></filter><filter id="i" width="153%" height="153%" x="-26.5%" y="-26.5%" filterUnits="objectBoundingBox"><feGaussianBlur in="SourceAlpha" result="shadowBlurInner1" stdDeviation="18"/><feOffset dy="2" in="shadowBlurInner1" result="shadowOffsetInner1"/><feComposite in="shadowOffsetInner1" in2="SourceAlpha" k2="-1" k3="1" operator="arithmetic" result="shadowInnerInner1"/><feColorMatrix in="shadowInnerInner1" values="0 0 0 0 0 0 0 0 0 0 0 0 0 0 0 0 0 0 0.210008741 0"/></filter><path id="b" d="M1 60C1 27.415 27.415 1 60 1s59 26.415 59 59-26.415 59-59 59S1 92.585 1 60"/><path id="g" d="m62.828 69.192 9.9 9.9a4 4 0 0 1 0 5.657l-9.9 9.9a4 4 0 0 1-5.656 0l-9.9-9.9a4 4 0 0 1 0-5.657l9.9-9.9a4 4 0 0 1 5.656 0m-21.92-21.92 9.9 9.9a4 4 0 0 1 0 5.656l-9.9 9.9a4 4 0 0 1-5.657 0l-9.9-9.9a4 4 0 0 1 0-5.656l9.9-9.9a4 4 0 0 1 5.657 0m43.84 0 9.9 9.9a4 4 0 0 1 0 5.656l-9.9 9.9a4 4 0 0 1-5.656 0l-9.9-9.9a4 4 0 0 1 0-5.656l9.9-9.9a4 4 0 0 1 5.657 0m-21.92-21.92 9.9 9.9a4 4 0 0 1 0 5.656l-9.9 9.9a4 4 0 0 1-5.656 0l-9.9-9.9a4 4 0 0 1 0-5.657l9.9-9.9a4 4 0 0 1 5.656 0"/><radialGradient id="h" cx="50%" cy="41.557%" r="40.177%" fx="50%" fy="41.557%"><stop offset="0%" stop-color="#689ed8" stop-opacity=".744"/><stop offset="100%" stop-color="#387bc2" stop-opacity=".772"/></radialGradient></defs><g fill="none" filter="url(#a)" transform="translate(4 4)"><use xlink:href="#b" fill="url(#c)"/><use xlink:href="#b" fill="#000" filter="url(#e)"/><path fill="url(#f)" d="M60 0C26.863 0 0 26.863 0 60s26.863 60 60 60 60-26.863 60-60S93.137 0 60 0m0 1c32.585 0 59 26.415 59 59s-26.415 59-59 59S1 92.585 1 60 27.415 1 60 1"/><use xlink:href="#g" fill="url(#h)"/><use xlink:href="#g" fill="#000" filter="url(#i)"/><path fill="url(#j)" d="m62.828 69.192 9.9 9.9a4 4 0 0 1 0 5.657l-9.9 9.9a4 4 0 0 1-2.623 1.166L60 95.82a4 4 0 0 1-2.828-1.172l-9.9-9.9a4 4 0 0 1 0-5.656l9.9-9.9a4 4 0 0 1 2.623-1.166l.205-.005c1.024 0 2.047.39 2.828 1.171m-4.805.573-.144.134-9.9 9.9a3 3 0 0 0-.135 4.099l.135.144 9.9 9.9a3 3 0 0 0 4.098.134l.144-.135 9.9-9.9a3 3 0 0 0 .135-4.098l-.135-.144-9.9-9.9a3 3 0 0 0-3.948-.258zM40.908 47.272l9.9 9.9a4 4 0 0 1 0 5.656l-9.9 9.9a4 4 0 0 1-2.624 1.166l-.204.005a4 4 0 0 1-2.829-1.171l-9.9-9.9a4 4 0 0 1 0-5.656l9.9-9.9a4 4 0 0 1 2.624-1.166l.205-.005c1.023 0 2.047.39 2.828 1.171m43.84 0 9.9 9.9a4 4 0 0 1 0 5.656l-9.9 9.9a4 4 0 0 1-2.623 1.166l-.205.005a4 4 0 0 1-2.828-1.171l-9.9-9.9a4 4 0 0 1 0-5.656l9.9-9.9a4 4 0 0 1 2.624-1.166l.204-.005c1.024 0 2.048.39 2.829 1.171m-48.646.572-.144.135-9.9 9.9a3 3 0 0 0-.134 4.098l.135.144 9.9 9.9a3 3 0 0 0 4.098.135l.144-.135 9.9-9.9a3 3 0 0 0 .134-4.098l-.134-.144-9.9-9.9a3 3 0 0 0-3.948-.258zm43.841 0-.144.135-9.9 9.9a3 3 0 0 0-.134 4.098l.134.144 9.9 9.9a3 3 0 0 0 4.099.135l.144-.135 9.9-9.9a3 3 0 0 0 .134-4.098l-.135-.144-9.9-9.9a3 3 0 0 0-3.948-.258zM62.828 25.352l9.9 9.9a4 4 0 0 1 0 5.656l-9.9 9.9a4 4 0 0 1-2.623 1.166l-.205.005a4 4 0 0 1-2.828-1.171l-9.9-9.9a4 4 0 0 1 0-5.657l9.9-9.9a4 4 0 0 1 2.623-1.166L60 24.18c1.024 0 2.047.39 2.828 1.172m-4.805.572-.144.135-9.9 9.9a3 3 0 0 0-.135 4.098l.135.144 9.9 9.9a3 3 0 0 0 4.098.134l.144-.134 9.9-9.9a3 3 0 0 0 .135-4.099l-.135-.144-9.9-9.9a3 3 0 0 0-4.098-.134"/><path fill="url(#k)" d="M56.464 68.485a5 5 0 0 1 6.89-.172l.182.172 9.899 9.9a5 5 0 0 1 .172 6.89l-.172.18-9.9 9.9a5 5 0 0 1-6.89.172l-.18-.172-9.9-9.9a5 5 0 0 1-.172-6.89l.172-.18zM60 68.021c-.945 0-1.89.333-2.644.998l-.184.173-9.9 9.9a4 4 0 0 0-.15 5.497l.15.16 9.9 9.9A4 4 0 0 0 60 95.818l.205-.004a4 4 0 0 0 2.437-.992l.186-.175 9.9-9.9a4 4 0 0 0 .15-5.497l-.15-.16-9.9-9.899a4 4 0 0 0-2.623-1.166zM34.544 46.565a5 5 0 0 1 6.89-.172l.181.172 9.9 9.9a5 5 0 0 1 .172 6.89l-.172.18-9.9 9.9a5 5 0 0 1-6.89.172l-.18-.172-9.9-9.9a5 5 0 0 1-.172-6.89l.172-.18zm43.84 0a5 5 0 0 1 6.891-.172l.18.172 9.9 9.9a5 5 0 0 1 .172 6.89l-.172.18-9.9 9.9a5 5 0 0 1-6.89.172l-.18-.172-9.9-9.9a5 5 0 0 1-.172-6.89l.172-.18zm-40.304-.464c-.945 0-1.89.332-2.644.998l-.185.173-9.9 9.9a4 4 0 0 0-.15 5.497l.15.16 9.9 9.899a4 4 0 0 0 2.829 1.171l.204-.005a4 4 0 0 0 2.438-.99l.186-.176 9.9-9.9a4 4 0 0 0 .15-5.497l-.15-.16-9.9-9.899a4 4 0 0 0-2.624-1.166zm43.84 0c-.945 0-1.89.332-2.644.998l-.184.173-9.9 9.9a4 4 0 0 0-.15 5.497l.15.16 9.9 9.899a4 4 0 0 0 2.828 1.171l.205-.005a4 4 0 0 0 2.437-.99l.187-.176 9.9-9.9a4 4 0 0 0 .15-5.497l-.15-.16-9.9-9.899a4 4 0 0 0-2.624-1.166zM56.464 24.645a5 5 0 0 1 6.89-.172l.182.172 9.899 9.9a5 5 0 0 1 .172 6.89l-.172.18-9.9 9.9a5 5 0 0 1-6.89.172l-.18-.172-9.9-9.9a5 5 0 0 1-.172-6.89l.172-.18zM60 24.18c-.945 0-1.89.333-2.644.998l-.184.174-9.9 9.9a4 4 0 0 0-.15 5.497l.15.16 9.9 9.899A4 4 0 0 0 60 51.979l.205-.005a4 4 0 0 0 2.437-.991l.186-.175 9.9-9.9a4 4 0 0 0 .15-5.497l-.15-.16-9.9-9.9a4 4 0 0 0-2.623-1.166z"/></g></svg>