<svg xmlns="http://www.w3.org/2000/svg" viewBox="0 0 64 64"><rect width="56" height="50" x="4" y="8" opacity=".2" rx="4.2" ry="4.167"/><rect width="56" height="50" x="4" y="7" fill="#23b1ff" rx="4.2" ry="4.167"/><path fill="#0c7d40" d="M14.36 38 4.258 54.238A4.19 4.19 0 0 0 8.2 57h17.921z"/><path fill="#0c9950" d="M34.8 29.4 51.6 57H18Z"/><path d="M18.5 14a8.5 8.5 0 1 1 0 17 8.5 8.5 0 0 1 0-17" opacity=".2"/><path fill="#ffdd32" d="M18.5 13a8.5 8.5 0 1 1 0 17 8.5 8.5 0 0 1 0-17"/><path d="M43 22a7 7 0 0 0-6.945 6.225A5.5 5.5 0 0 0 34.5 28a5.5 5.5 0 0 0-5.5 5.5 5.5 5.5 0 0 0 5.5 5.5H50a4 4 0 0 0 4-4 4 4 0 0 0-4-4 4 4 0 0 0-.3.021A7 7 0 0 0 50 29a7 7 0 0 0-7-7" opacity=".2"/><circle cx="34.5" cy="32.5" r="5.5" fill="#fff"/><circle cx="43" cy="28" r="7" fill="#fff"/><circle cx="50" cy="34" r="4" fill="#fff"/><path fill="#fff" d="M34.5 31.28H50V38H34.5z"/><path fill="#fff" d="M8.2 7C5.871 7 4 8.858 4 11.166v1C4 9.858 5.872 8 8.2 8h47.6c2.328 0 4.2 1.858 4.2 4.166v-1C60 8.858 58.128 7 55.8 7zm10.3 6a8.5 8.5 0 0 0-8.484 9 8.5 8.5 0 0 1 16.968 0q.016-.249.016-.5a8.5 8.5 0 0 0-8.5-8.5" opacity=".2"/></svg>