<svg xmlns="http://www.w3.org/2000/svg" viewBox="0 0 64 64"><rect width="56" height="17" x="4" y="44" opacity=".2" rx="2.8" ry="2.8"/><path fill="#e4e4e4" d="M18.25 4h27.5C50.32 4 54 7.705 54 12.275V46.65c0 4.57-3.68 8.25-8.25 8.25h-27.5c-4.57 0-8.25-3.68-8.25-8.25V12.275C10 7.705 13.68 4 18.25 4"/><path d="M20.5 28.001h23l-5.75 5.5L32 38.999l-5.75-5.5Z" opacity=".1"/><path fill="#4caf50" d="M20.5 27.001h23l-5.75 5.5L32 37.999l-5.75-5.5Z"/><path fill="#4caf50" d="M26 9h6v6h-6z" opacity=".8"/><path fill="#4caf50" d="M32 9h6v6h-6z" opacity=".2"/><path fill="#4caf50" d="M26 15h6v6h-6z" opacity=".4"/><path fill="#4caf50" d="M32 15h6v6h-6z" opacity=".9"/><path fill="#4caf50" d="M26 21h6v6h-6z"/><path fill="#4caf50" d="M32 21h6v6h-6z" opacity=".6"/><rect width="56" height="17" x="4" y="43" fill="#4caf50" rx="2.8" ry="2.8"/><path d="M12.4 53h22.4v1H12.4z" opacity=".2"/><path d="M51.5 47a4.5 4.5 0 0 0-4.232 3H32.4v3h14.868a4.5 4.5 0 0 0 4.232 3 4.5 4.5 0 0 0 4.5-4.5 4.5 4.5 0 0 0-4.5-4.5" opacity=".3"/><circle cx="12.5" cy="52.5" r="4.5" opacity=".2"/><circle cx="12.5" cy="51.5" r="4.5" fill="#fff"/><path fill="#fff" d="M12.4 50h22.4v3H12.4z"/><circle cx="31.5" cy="52.5" r="4.5" opacity=".2"/><circle cx="31.5" cy="51.5" r="4.5" fill="#fff"/><path fill="#fff" d="M18.25 4C13.68 4 10 7.705 10 12.275v1C10 8.705 13.68 5 18.25 5h27.5C50.32 5 54 8.705 54 13.275v-1C54 7.705 50.32 4 45.75 4z" opacity=".2"/></svg>