<svg xmlns="http://www.w3.org/2000/svg" xmlns:xlink="http://www.w3.org/1999/xlink" viewBox="0 0 16.933 16.933"><defs><linearGradient id="a" x1="-197.1" x2="-196.91" y1="217.68" y2="219.37" gradientTransform="rotate(-45 -338.07 -140.03)" gradientUnits="userSpaceOnUse"><stop offset="0"/><stop offset="1" stop-opacity="0"/></linearGradient></defs><path fill="#fff" fill-opacity=".976" stroke="#000" stroke-opacity=".268" stroke-width=".529" d="M3.175 2.381c-.293 0-.265.264-.265.53H1.852c-.265 0-.265 0-.265.264v5.556c0 .293.237.53.53.53h12.7a.53.53 0 0 0 .529-.53V3.175c0-.265 0-.265-.265-.265H7.673c0-.265.028-.53-.265-.53z" paint-order="markers stroke fill"/><path fill="#fff" fill-opacity=".976" d="M3.175 2.381c-.293 0-.265.264-.265.53H1.852c-.265 0-.265 0-.265.264v5.556c0 .293.237.53.53.53h12.7a.53.53 0 0 0 .529-.53V3.175c0-.265 0-.265-.265-.265H7.673c0-.265.028-.53-.265-.53z" paint-order="markers stroke fill"/><path fill="none" stroke="#003579" stroke-opacity=".561" stroke-width=".529" d="M8.467 4.233c-.293 0-.382.276-.53.53l-.308.528H.794c-.265 0-.265.265-.265.265v8.996c0 .264.265.264.265.264H16.14c.264 0 .264-.264.264-.264V4.498c0-.265-.264-.265-.264-.265z" paint-order="markers stroke fill"/><path fill="#6ba4e7" d="M8.467 4.233c-.293 0-.382.276-.53.53l-.308.528H.794c-.265 0-.265.265-.265.265v8.996c0 .264.265.264.265.264H16.14c.264 0 .264-.264.264-.264V4.498c0-.265-.264-.265-.264-.265z" paint-order="markers stroke fill"/><rect width="3.704" height=".529" x="3.44" y="2.91" fill-opacity=".267" paint-order="markers stroke fill" rx=".265" ry=".265"/><g stroke-width="4.781" opacity=".3"><path d="M8.553 7.144c-1.47 0-2.68.968-2.813 2.381h-.713l1.054 1.323 1.053-1.323h-.688c.13-1.03 1.026-1.691 2.107-1.691 1.171 0 2.122.935 2.122 2.088 0 1.152-.95 2.088-2.122 2.088a2.13 2.13 0 0 1-1.595-.712l-.515.47a2.84 2.84 0 0 0 2.11.932c1.559 0 2.824-1.245 2.824-2.778 0-1.534-1.265-2.778-2.824-2.778" overflow="visible"/><path d="M8.731 8.202h-.264l-.265 1.852 1.323 1.059v-.265L8.731 9.79z" overflow="visible"/></g><path fill="url(#a)" d="m16.404 11.641-3.174 3.175h2.645a.527.527 0 0 0 .529-.529z" opacity=".1"/></svg>