<svg xmlns="http://www.w3.org/2000/svg" viewBox="0 0 490 512"><path fill="#79919d" d="M57.974 190.485c6.66 15.405 37.43 21.398 128.672 65.627 0 0-110.612 49.082-113.625 50.907-52.341 39.327 1.204 93.871 38.305 71.635 45.015-30.11 97.55-70.362 104.156-72.857-5.795 74.315-17.433 122.423-8.177 134.507 18.365 31.714 65.917 25.72 73.047-11.724 1.084-6.25-11.845-124.057-11.638-124.281 45.201 31.967 104.117 79.392 116.947 79.21 26.352 5.26 62.315-27.24 40.784-62.425-7.495-12.34-13.347-14.148-129.342-64.559 0 0 116.534-52.732 123.747-59.395 27.236-23.664 6.015-83.146-46.155-65.093-3.117 1.618-105.981 75.75-105.981 75.75s18.428-123.303 8.074-136.109c-19.374-33.507-67.199-23.438-72.789 12.396l11.518 122.766-105.775-74.89c-35.517-13.571-73.878 19.595-51.768 58.535" data-iconColor="Default"/></svg>