<svg xmlns="http://www.w3.org/2000/svg" xmlns:xlink="http://www.w3.org/1999/xlink" viewBox="0 0 16.933 16.933"><defs><linearGradient id="a"><stop offset="0"/><stop offset="1" stop-opacity="0"/></linearGradient><linearGradient xlink:href="#a" id="c" x1="-197.1" x2="-196.91" y1="217.68" y2="219.36" gradientTransform="rotate(-45 -197.786 -90.457)scale(.59998)" gradientUnits="userSpaceOnUse"/><linearGradient xlink:href="#a" id="b" x1="-197.1" x2="-196.91" y1="217.68" y2="219.36" gradientTransform="rotate(-45 -195.507 -82.404)scale(.59998)" gradientUnits="userSpaceOnUse"/></defs><g opacity=".35"><path fill="#6ba4e7" d="M3.07 7.09c-.177 0-.237.162-.318.318h-.477a.317.317 0 0 0-.317.317v1.112h3.625l.185-.318c.09-.152.142-.317.317-.317h4.128v-.477a.317.317 0 0 0-.318-.317H5.61c-.093-.15-.14-.318-.317-.318z"/><path stroke="#000" stroke-opacity=".969" stroke-width=".265" d="M3.07 7.091c-.177 0-.237.163-.318.319h-.477a.317.317 0 0 0-.317.316v1.112h3.625l.185-.317c.09-.152.142-.318.317-.318h4.128v-.477a.317.317 0 0 0-.318-.316H5.61c-.093-.15-.14-.319-.317-.319z" opacity=".2"/><path fill="#fff" d="M2.593 7.884c-.088 0-.16.07-.16.159v.794h3.15l.185-.318c.089-.152.142-.317.317-.317h3.652v-.16a.16.16 0 0 0-.159-.158z"/><path fill="#6ba4e7" stroke="#000" stroke-opacity=".16" stroke-width=".265" d="M6.085 8.202c-.175 0-.228.165-.317.317l-.185.318H1.64a.316.316 0 0 0-.317.317v5.08c0 .176.141.318.317.318h8.89a.316.316 0 0 0 .318-.318V8.519a.316.316 0 0 0-.317-.317z" paint-order="markers stroke fill"/><rect width="1.905" height=".317" x="3.228" y="7.249" opacity=".25" paint-order="stroke markers fill" ry=".159"/><path fill="url(#b)" d="m10.848 12.647-1.905 1.905h1.588a.317.317 0 0 0 .317-.318z" opacity=".1"/></g><path fill="#6ba4e7" d="M8.096 3.122c-.176 0-.236.161-.317.317h-.477a.317.317 0 0 0-.317.318v3.175c0 .176.142.317.317.317h7.62a.317.317 0 0 0 .318-.317V3.757a.317.317 0 0 0-.318-.318h-4.286c-.093-.149-.141-.317-.317-.317z" paint-order="markers stroke fill"/><path stroke="#000" stroke-opacity=".969" stroke-width=".265" d="M8.096 3.122c-.176 0-.236.161-.317.317h-.477a.317.317 0 0 0-.317.318v3.175c0 .176.142.317.317.317h7.62a.317.317 0 0 0 .318-.317V3.757a.317.317 0 0 0-.318-.318h-4.286c-.093-.149-.141-.317-.317-.317z" opacity=".1" paint-order="markers stroke fill"/><rect width="7.303" height="3.016" x="7.461" y="3.915" fill="#fff" paint-order="markers stroke fill" ry=".159"/><path fill="#6ba4e7" stroke="#000" stroke-opacity=".16" stroke-width=".265" d="M11.112 4.233c-.175 0-.228.165-.317.317l-.185.318H6.667a.316.316 0 0 0-.317.317v5.08c0 .177.141.318.317.318h8.89a.316.316 0 0 0 .318-.317V4.55a.316.316 0 0 0-.317-.317z" paint-order="stroke fill markers"/><rect width="1.905" height=".317" x="8.255" y="3.28" opacity=".25" paint-order="stroke markers fill" ry=".159"/><path fill="url(#c)" d="m15.875 8.677-1.905 1.906h1.588a.317.317 0 0 0 .317-.318z" opacity=".1"/></svg>