<svg xmlns="http://www.w3.org/2000/svg" viewBox="0 0 16 16"><path fill="currentColor" d="M7.41 1c-.799 1.067-2.526 3.087-3.816 5.285C4.544 5.37 5.518 5.001 6.408 5c2.9-.003 5.372 3.672 4.324 4.05C9.9 7.352 8.526 7.028 7.498 7 6.148 6.965 5.051 8.318 5 9.893c-.118 3.643 5.268 3.21 5.977 4.322.614-.328 1.13-.755 1.48-1.29C14.815 9.318 8.804 3.189 7.41 1M2.115 9.82q-.073.377-.095.742a8 8 0 0 1 .095-.742m-.099 1.122q.002.353.062.69a5 5 0 0 1-.063-.691zm.138 1c.033.118.06.238.106.353-.043-.115-.074-.234-.106-.354zm.389.913c.014.023.02.048.035.07.014.022.034.039.049.06-.014-.021-.033-.038-.047-.06q-.02-.034-.037-.07m.402.52q.068.067.139.13c-.046-.043-.095-.085-.139-.13m7.504 1.088c-.072.03-.149.053-.222.08.074-.027.15-.05.222-.08m-.648.223-.192.05zm-4.522.007q.316.089.647.15a8 8 0 0 1-.47-.107c-.06-.015-.12-.026-.177-.043m3.912.139q-.148.03-.298.055a8 8 0 0 0 .299-.055zm-2.707.096" class="ColorScheme-Text"/><path fill="currentColor" fill-rule="evenodd" d="M6.408 5c-.89 0-1.865.37-2.814 1.285-.685 1.166-1.249 2.38-1.479 3.535a8 8 0 0 0-.095.742 5 5 0 0 0-.008.305v.006q.001.035.004.068a5 5 0 0 0 .062.692v.006c.019.102.049.202.076.302.032.12.063.239.106.354q.11.28.273.543c.018.028.028.06.047.088.014.02.033.038.047.058.032.046.071.087.105.131.07.088.136.178.213.26.044.045.093.087.139.13a4 4 0 0 0 .463.384c.057.04.12.077.18.115.058.037.115.078.175.113l.022.012q.075.046.154.088l.004.002q.268.142.559.26h.002c.164.065.338.12.511.173.042.013.081.03.123.041h.002c.058.017.118.028.176.043a8 8 0 0 0 .717.15q.155.024.312.042c.355.043.714.071 1.075.07l.091-.004a9 9 0 0 0 1.024-.078q.11-.014.219-.03a8 8 0 0 0 .671-.138l.026-.006.213-.056q.188-.057.369-.123l.055-.02c.073-.027.15-.05.222-.08a6 6 0 0 0 .528-.248c-.709-1.113-6.095-.679-5.977-4.322C5.051 8.318 6.148 6.965 7.498 7c1.028.027 2.4.351 3.234 2.05C11.78 8.673 9.308 4.998 6.408 5" class="ColorScheme-Text" opacity=".3"/></svg>