<svg xmlns="http://www.w3.org/2000/svg" xmlns:xlink="http://www.w3.org/1999/xlink" viewBox="0 0 100 94"><defs><mask id="a"><rect width="100%" height="100%" fill="#fff"/><path d="M17.868 46.458q-1.746 0-2.66-1.102-.913-1.146-.913-2.733v-.176q0-1.587.913-2.689.914-1.146 2.66-1.146 1.748 0 2.66 1.146.914 1.102.914 2.69v.175q0 1.588-.913 2.733-.915 1.102-2.66 1.102M14.612 19.42v-5.125h6.512v5.125L19.06 34.582h-2.383zm21.125 27.038q-1.748 0-2.66-1.102-.915-1.146-.914-2.733v-.176q0-1.587.914-2.689.912-1.146 2.66-1.146t2.66 1.146q.915 1.102.914 2.69v.175q0 1.588-.914 2.733-.912 1.102-2.66 1.102M32.481 19.42v-5.125h6.512v5.125l-2.065 15.162h-2.382z"/></mask></defs><g fill="#7942ee" data-iconColor="Detekt" mask="url('#a')"><path fill-rule="evenodd" d="M3.906 0A3.906 3.906 0 0 0 0 3.906v68.946a3.906 3.906 0 0 0 3.906 3.906h41.71c1.399 0 2.37-1.404 2.01-2.756a28.5 28.5 0 0 1-.946-7.303c0-15.695 12.723-28.418 28.418-28.418 2.266 0 4.47.266 6.583.767 1.337.317 2.694-.65 2.694-2.024V3.906A3.906 3.906 0 0 0 80.469 0z" clip-rule="evenodd"/><path d="m98.877 86.87-1.016-1.016-2.725-2.725-1.494-1.493c-.709-.71-.774-1.828-.231-2.672a21.27 21.27 0 0 0 3.394-11.548c0-8.61-5.113-16.044-12.46-19.439a21.3 21.3 0 0 0-7.668-1.925 22 22 0 0 0-1.278-.042c-6.576 0-12.466 2.983-16.395 7.663a21.37 21.37 0 0 0-5.01 13.743c0 .537.026 1.066.065 1.593a21.3 21.3 0 0 0 .633 3.834c.35 1.332.824 2.615 1.41 3.833 3.46 7.18 10.81 12.146 19.297 12.146 3.59 0 6.976-.892 9.95-2.461.825-.435 1.847-.328 2.506.331l1.647 1.647 2.753 2.753 1.2 1.2a3.82 3.82 0 0 0 2.71 1.123 3.834 3.834 0 0 0 2.71-6.545m-23.478-5.715c-4.01 0-7.624-1.728-10.137-4.477a13.8 13.8 0 0 1-2.48-3.834 13.6 13.6 0 0 1-1.025-3.834 14 14 0 0 1-.096-1.593c0-7.575 6.163-13.738 13.739-13.738.43 0 .856.023 1.277.061 1.344.125 2.63.445 3.834.93 1.409.566 2.7 1.36 3.834 2.334 2.93 2.521 4.792 6.253 4.792 10.413 0 7.575-6.162 13.738-13.738 13.738"/></g></svg>