<svg xmlns="http://www.w3.org/2000/svg" viewBox="0 0 64 64"><path d="M7 5C5.338 5 4 6.338 4 8v50c0 1.662 1.338 3 3 3h33l20-20V8c0-1.662-1.338-3-3-3Z" opacity=".2"/><path fill="#ffa234" d="M8 4S4 4 4 8v48c0 4 4 4 4 4h32l20-20V8c0-4-4-4-4-4Z"/><path fill="#ffcd82" d="M60 40H43a3 3 0 0 0-3 3v17z"/><path fill="#fff" d="M43 40a3 3 0 0 0-3 3v1a3 3 0 0 1 3-3h16l1-1z" opacity=".2"/><path fill="#4b4b4b" d="M22 14a10 10 0 0 0-9.16 6H22v8h-9.152A10 10 0 0 0 22 34a10 10 0 0 0 9.152-6H50v-8H31.16A10 10 0 0 0 22 14"/><path fill="#fff" d="M8 4S4 4 4 8v1c0-4 4-4 4-4h48s4 0 4 4V8c0-4-4-4-4-4z" opacity=".2"/></svg>