<svg xmlns="http://www.w3.org/2000/svg" viewBox="0 0 64 64"><path d="M14.667 15.001c-1.478 0-2.667 1.235-2.667 2.769v30.46c0 1.534 1.189 2.77 2.667 2.77H20v-6h12v6h25.334C58.81 51 60 49.764 60 48.23V17.77c0-1.535-1.19-2.77-2.666-2.77Z" opacity=".2"/><path fill="#3da7d6" d="M14.667 14.001c-1.478 0-2.667 1.235-2.667 2.769v30.46c0 1.534 1.189 2.77 2.667 2.77H20v-6h12v6h25.334C58.81 50 60 48.764 60 47.23V16.77c0-1.535-1.19-2.77-2.666-2.77Z"/><rect width="12" height="12" x="30" y="24" fill="#4e4e4e" rx="2.4" ry="2.4"/><path fill="none" stroke="#000" stroke-linecap="round" stroke-linejoin="round" stroke-width="4" d="M6.023 11.024h3.982v41.981" opacity=".2"/><path fill="none" stroke="#b7b7b7" stroke-linecap="round" stroke-linejoin="round" stroke-width="4" d="M6.023 10.024h3.982v41.981"/><path d="M34 45h4v8h-4zm6 0h4v8h-4zm6 0h4v8h-4zm6 0h4v8h-4z" opacity=".2"/><path fill="#f8c44e" d="M34 44h4v8h-4zm6 0h4v8h-4zm6 0h4v8h-4zm6 0h4v8h-4z"/><path fill="#b7b7b7" d="M32 21h2v4h-2zm6 0h2v4h-2zm-6 14h2v4h-2zm6 0h2v4h-2zm7-9v2h-4v-2zm0 6v2h-4v-2zm-14-6v2h-4v-2zm0 6v2h-4v-2z"/><path fill="#fff" d="M6.023 8.023a2 2 0 0 0-1.978 2.487 2 2 0 0 1 1.978-1.487h3.983a2 2 0 0 1 2 2v-1a2 2 0 0 0-2-2zM57.334 14l-42.666.002C13.19 14.002 12 15.236 12 16.77v1c0-1.534 1.19-2.768 2.668-2.768L57.334 15C58.81 15 60 16.235 60 17.77v-1c0-1.535-1.19-2.77-2.666-2.77" opacity=".2"/></svg>