<svg xmlns="http://www.w3.org/2000/svg" viewBox="0 0 64 64"><circle cx="32" cy="33" r="28" opacity=".2"/><circle cx="32" cy="32" r="28" fill="#4f4f4f"/><circle cx="32" cy="32" r="18" opacity=".4"/><circle cx="32" cy="33" r="14" opacity=".2"/><circle cx="32" cy="32" r="14" fill="#1789ba"/><circle cx="32" cy="33" r="8" opacity=".2"/><circle cx="32" cy="32" r="8" fill="#74b8d6"/><path fill="#fff" d="M32 4A28 28 0 0 0 4 32a28 28 0 0 0 .035.5A28 28 0 0 1 32 5a28 28 0 0 1 27.982 27.252L60 32A28 28 0 0 0 32 4" opacity=".1"/></svg>