<svg xmlns="http://www.w3.org/2000/svg" viewBox="0 0 16 16"><path fill="currentColor" d="M2 2C.892 2 0 2.892 0 4v9c0 1.108.892 2 2 2h12c1.108 0 2-.892 2-2V5c0-1.108-.892-2-2-2H6.371c-.58-.023-.605.077-1.039-.357S4.719 2 4 2zm0 1h2c.311 0 .52 0 .998.47.479.472.639.53 1 .53H14c.554 0 1 .446 1 1v1H1V4c0-.554.446-1 1-1M1 7h14v6c0 .554-.446 1-1 1H2c-.554 0-1-.446-1-1z" class="ColorScheme-Text"/><path fill="currentColor" d="M5 8v1h5.5c.831 0 1.5.669 1.5 1.5s-.669 1.5-1.5 1.5H8l1.121-1.121-.707-.707-2.121 2.121L7 13h3.5c1.385 0 2.5-1.115 2.5-2.5S11.885 8 10.5 8zm-1 3a1 1 0 0 0-1 1 1 1 0 0 0 1 1 1 1 0 0 0 1-1 1 1 0 0 0-1-1" class="ColorScheme-Text"/></svg>