<svg xmlns="http://www.w3.org/2000/svg" viewBox="0 0 24 24"><g fill="#536076"><path d="m10.429 5.004 2.142 2h5.367c.106.003 1.062.055 1.062 1v9c0 1-1.071 1-1.071 1H5.07c-1.071 0-1.071-1-1.071-1v-11c0-1 1.071-1 1.071-1zM10.05 6H5.082v11h12.856V8h-5.754z"/><path d="m15.5 11 1.666 1.285-1.666 1.287v-.857c-.92 0-1.666.766-1.666 1.713s.746 1.715 1.666 1.715 1.666-.768 1.666-1.715a.43.43 0 0 1 .123-.303.4.4 0 0 1 .295-.125.423.423 0 0 1 .414.471C17.976 15.871 16.867 17 15.5 17c-1.381 0-2.5-1.152-2.5-2.572s1.119-2.57 2.5-2.57z"/></g></svg>