<svg xmlns="http://www.w3.org/2000/svg" xmlns:xlink="http://www.w3.org/1999/xlink" viewBox="0 0 48 48"><defs><filter id="a" width="132.5%" height="132.5%" x="-16.2%" y="-16.2%" filterUnits="objectBoundingBox"><feOffset dy="1" in="SourceAlpha" result="shadowOffsetOuter1"/><feGaussianBlur in="shadowOffsetOuter1" result="shadowBlurOuter1" stdDeviation="1"/><feColorMatrix in="shadowBlurOuter1" result="shadowMatrixOuter1" values="0 0 0 0 0 0 0 0 0 0 0 0 0 0 0 0 0 0 0.2 0"/><feMerge><feMergeNode in="shadowMatrixOuter1"/><feMergeNode in="SourceGraphic"/></feMerge></filter></defs><g fill="none" filter="url(#a)" transform="translate(4 4)"><circle cx="20" cy="20" r="20" fill="#a348ff"/><path fill="#fff" d="M24 22a6 6 0 1 1 0 12 6 6 0 0 1 0-12m-3.447 3.969a4 4 0 0 0 5.478 5.478zM24 24c-.741 0-1.436.202-2.031.553l5.478 5.478A4 4 0 0 0 24 24m3.994-16.114L28 8v13.07a8 8 0 0 0-11.995 6.634l-2.222-.864q-.29.125-.618.152L13 27H7a2 2 0 0 1-1.995-1.85L5 25V14a2 2 0 0 1 1.85-1.995L7 12h6q.356.001.673.116l.08-.036 12.885-5.011a1 1 0 0 1 1.356.817M34 25.01a1 1 0 0 1 .117 1.993L34 27.01h-1.432a1 1 0 0 1-.116-1.994l.116-.006zM13 14H7v11h6zm22 5a1 1 0 0 1 .117 1.993L35 21h-3.579a1 1 0 0 1-.117-1.993l.117-.007zm-1-6.01a1 1 0 0 1 .117 1.993l-.117.006h-1.432a1 1 0 0 1-.116-1.993l.116-.007z"/></g></svg>