<svg xmlns="http://www.w3.org/2000/svg" viewBox="0 0 16 16"><path fill="#ee6d6d" d="M8.117.001a8 8 0 0 0-5.773 2.344 8 8 0 0 0 0 11.312 8 8 0 0 0 11.312 0 8 8 0 0 0 0-11.312A8 8 0 0 0 8.116 0zm-.219 1a7 7 0 0 1 4.68 1.715L11.174 4.12A8 5 45 0 0 5.75 1.378 7 7 0 0 1 7.898 1M4.871 2.308a7 4 45 0 1 5.594 2.521L8 7.294l-4.55-4.55a7 4 45 0 1 1.421-.436m8.42 1.109a7 7 0 0 1 1.336 6.81 8 5 45 0 0-2.75-5.396zm-10.55.031 4.552 4.553-2.467 2.467a7 4 45 0 1-2.086-7.02m8.433 2.086a7 4 45 0 1 2.086 7.02L8.707 8zm-9.801.24a8 5 45 0 0 2.75 5.397l-1.414 1.414a7 7 0 0 1-1.336-6.81M8 8.708l4.55 4.55a7 4 45 0 1-7.015-2.085zm-3.174 3.174a8 5 45 0 0 5.424 2.742 7 7 0 0 1-6.828-1.338z" color="#5d656b"/></svg>