<svg xmlns="http://www.w3.org/2000/svg" viewBox="0 0 16 16"><path fill="currentColor" d="M13 9a3 1 0 0 0-3 1v5a3 1 0 0 0 3 1 3 1 0 0 0 3-1v-5a3 1 0 0 0-3-1m-.1 1a3 1 0 0 1 .1 0 3 1 0 0 1 2 .258v.482a3 1 0 0 1-2 .26 3 1 0 0 1-2-.3v-.5a3 1 0 0 1 1.9-.2M11 11.74a3 1 0 0 0 2 .26 3 1 0 0 0 2-.26v1a3 1 0 0 1-2 .26 3 1 0 0 1-2-.3zm0 2a3 1 0 0 0 2 .26 3 1 0 0 0 2-.26v1a3 1 0 0 1-2 .26 3 1 0 0 1-2-.3z" color="#da4453"/><path fill="currentColor" d="M1 0v16h8v-3H4l-2-2V8.9c.6-.2 1-.8 1-1.4s-.4-1.2-1-1.4V4c0-1.7 1.3-3 3-3h4c1.66 0 3 1.34 3 3v2.1c-.6.2-1 .8-1 1.4 0 .2 0 .3.1.5H13V0Zm2 14h5v1H3Z" color="#d3dae3"/></svg>