<svg xmlns="http://www.w3.org/2000/svg" viewBox="0 0 16 16"><g fill="currentColor"><path d="M13 9c-1.657 0-3 .448-3 1v5c0 .552 1.343 1 3 1s3-.448 3-1v-5c0-.552-1.343-1-3-1m0 1c.74 0 1.451.093 2 .258v.486c-.55.165-1.262.256-2 .256-.74 0-1.451-.093-2-.258v-.486c.55-.165 1.262-.256 2-.256M6 3v5h2V3Zm0 6v2h2V9z" class="ColorScheme-NegativeText"/><path d="M1 0v16h8v-3H4l-2-2V8.9c.6-.2 1-.8 1-1.4s-.4-1.2-1-1.4V4c0-1.7 1.3-3 3-3h4c1.66 0 3 1.34 3 3v2.1c-.6.2-1 .8-1 1.4 0 .2 0 .3.1.5H13V0Zm2 14h5v1H3Z" color="#d3dae3"/></g></svg>