<svg xmlns="http://www.w3.org/2000/svg" viewBox="0 0 16 16"><path d="M7.512 13.5a.5.5 0 0 1 .5.5v1a.5.5 0 1 1-1 0v-1a.5.5 0 0 1 .5-.5m4.955-1.5.708.707a.5.5 0 0 1-.708.707l-.707-.707a.5.5 0 0 1 .707-.707m-8.783-.504a.5.5 0 0 1 0 .707l-.707.707a.5.5 0 1 1-.707-.707l.707-.707a.5.5 0 0 1 .707 0M8 3.5a4.5 4.5 0 1 1 0 9 4.5 4.5 0 0 1 0-9m0 1a3.5 3.5 0 1 0 0 7 3.5 3.5 0 0 0 0-7m0 .999V10.5a2.5 2.5 0 0 1-2.496-2.336L5.5 8A2.5 2.5 0 0 1 8 5.499m-6 1.49a.5.5 0 1 1 0 1H1a.5.5 0 0 1 0-1zm1.205-4.05.707.707a.5.5 0 0 1-.707.708l-.707-.708a.5.5 0 1 1 .707-.707m9.97-.353a.5.5 0 0 1 0 .707L12.467 4a.5.5 0 0 1-.707-.707l.707-.707a.5.5 0 0 1 .708 0M7.525.5a.5.5 0 0 1 .5.5v1a.5.5 0 1 1-1 0V1a.5.5 0 0 1 .5-.5m7.954 6.998a.5.5 0 0 1-.5.5h-1a.5.5 0 0 1 0-1h1a.5.5 0 0 1 .5.5"/></svg>