<svg xmlns="http://www.w3.org/2000/svg" viewBox="0 0 64 64"><path d="M5.2 5A4.19 4.19 0 0 0 1 9.2v47.6A4.19 4.19 0 0 0 5.2 61H35c15.464 0 28-12.536 28-28S50.464 5 35 5Z" opacity=".2"/><path fill="#00d177" d="M5.2 4A4.19 4.19 0 0 0 1 8.2v47.6A4.19 4.19 0 0 0 5.2 60H35c15.464 0 28-12.536 28-28S50.464 4 35 4Z"/><path d="M17 21a2 2 0 1 0 0 4h24a2 2 0 1 0 0-4zm0 10a2 2 0 1 0 0 4h24a2 2 0 1 0 0-4zm0 10a2 2 0 1 0 0 4h16a2 2 0 1 0 0-4z" opacity=".1"/><path fill="none" stroke="#3f3f3f" stroke-linecap="round" stroke-width="4" d="M17 22h24M17 32h24M17 42h16"/><path fill="#fff" d="M5.2 4A4.19 4.19 0 0 0 1 8.2v1A4.19 4.19 0 0 1 5.2 5H35c15.241 0 27.629 12.18 27.982 27.336.007-.112.018-.223.018-.336C63 16.536 50.464 4 35 4z" opacity=".2"/></svg>