<svg xmlns="http://www.w3.org/2000/svg" xmlns:xlink="http://www.w3.org/1999/xlink" viewBox="0 0 96 96"><defs><linearGradient id="b" x1="30.751%" x2="100%" y1="50%" y2="50%"><stop offset="0%" stop-color="#909090"/><stop offset="40.303%" stop-color="#d5d5d5"/><stop offset="100%" stop-color="#979797"/></linearGradient><linearGradient id="e" x1="50%" x2="50%" y1="0%" y2="99.05%"><stop offset="0%" stop-color="#8b9263"/><stop offset="0%" stop-color="#8b9263"/><stop offset="100%" stop-color="#365941"/></linearGradient><linearGradient id="g" x1="50%" x2="50%" y1="2.371%" y2="100%"><stop offset="0%" stop-color="#899bb7"/><stop offset="100%" stop-color="#cadbed"/></linearGradient><linearGradient id="i" x1="50%" x2="50%" y1="2.371%" y2="100%"><stop offset="0%" stop-color="#f5f4f4"/><stop offset=".077%" stop-color="#d5d6df"/><stop offset="100%" stop-color="#cddff2"/></linearGradient><linearGradient id="l" x1="9.767%" x2="84.975%" y1="37.689%" y2="64.167%"><stop offset="0%" stop-color="#a8c5e8"/><stop offset="100%" stop-color="#5b97ea"/></linearGradient><linearGradient id="o" x1="50%" x2="50%" y1="0%" y2="99.05%"><stop offset="0%" stop-color="#8b9263"/><stop offset="0%" stop-color="#8b9263"/><stop offset="100%" stop-color="#365941"/></linearGradient><linearGradient id="q" x1="0%" x2="100%" y1="50%" y2="50%"><stop offset="0%" stop-color="#f5e5a4"/><stop offset="100%" stop-color="#b5dbfe"/></linearGradient><linearGradient id="r" x1="50%" x2="50%" y1="0%" y2="99.295%"><stop offset="0%" stop-color="#528f4e"/><stop offset="48.971%" stop-color="#4b8e8d"/><stop offset="100%" stop-color="#3384ca"/></linearGradient><linearGradient id="t" x1="50%" x2="50%" y1="2.371%" y2="100%"><stop offset="0%" stop-color="#d5d6df"/><stop offset="100%" stop-color="#cddff2"/></linearGradient><linearGradient id="v" x1="50%" x2="50%" y1="0%" y2="100%"><stop offset="0%" stop-color="#d3d7e1"/><stop offset="100%" stop-color="#b2c1d0"/></linearGradient><linearGradient id="w" x1="50%" x2="50%" y1="0%" y2="100%"><stop offset="0%" stop-color="#d3d7e1"/><stop offset="100%" stop-color="#b2c1d0"/></linearGradient><linearGradient id="x" x1="50%" x2="50%" y1="0%" y2="100%"><stop offset="0%" stop-color="#d3d7e1"/><stop offset="100%" stop-color="#b2c1d0"/></linearGradient><linearGradient id="y" x1="50%" x2="50%" y1="0%" y2="100%"><stop offset="0%" stop-color="#d3d7e1"/><stop offset="100%" stop-color="#b2c1d0"/></linearGradient><linearGradient id="z" x1="50%" x2="50%" y1="0%" y2="100%"><stop offset="0%" stop-color="#d3d7e1"/><stop offset="100%" stop-color="#b2c1d0"/></linearGradient><filter id="a" width="129.3%" height="133.8%" x="-14.6%" y="-16.9%" filterUnits="objectBoundingBox"><feOffset dy="2" in="SourceAlpha" result="shadowOffsetOuter1"/><feGaussianBlur in="shadowOffsetOuter1" result="shadowBlurOuter1" stdDeviation="2"/><feComposite in="shadowBlurOuter1" in2="SourceAlpha" operator="out" result="shadowBlurOuter1"/><feColorMatrix in="shadowBlurOuter1" result="shadowMatrixOuter1" values="0 0 0 0 0 0 0 0 0 0 0 0 0 0 0 0 0 0 0.2 0"/><feMerge><feMergeNode in="shadowMatrixOuter1"/><feMergeNode in="SourceGraphic"/></feMerge></filter><filter id="f" width="102.4%" height="101.8%" x="-1.2%" y="-.9%" filterUnits="objectBoundingBox"><feOffset dx=".5" dy=".5" in="SourceAlpha" result="shadowOffsetInner1"/><feComposite in="shadowOffsetInner1" in2="SourceAlpha" k2="-1" k3="1" operator="arithmetic" result="shadowInnerInner1"/><feColorMatrix in="shadowInnerInner1" values="0 0 0 0 1 0 0 0 0 1 0 0 0 0 1 0 0 0 0.08 0"/></filter><filter id="j" width="104.2%" height="105%" x="-2.1%" y="-2.5%" filterUnits="objectBoundingBox"><feOffset dy="-2" in="SourceAlpha" result="shadowOffsetInner1"/><feComposite in="shadowOffsetInner1" in2="SourceAlpha" k2="-1" k3="1" operator="arithmetic" result="shadowInnerInner1"/><feColorMatrix in="shadowInnerInner1" values="0 0 0 0 0 0 0 0 0 0 0 0 0 0 0 0 0 0 0.13 0"/></filter><filter id="m" width="103.1%" height="104.2%" x="-1.6%" y="-2.1%" filterUnits="objectBoundingBox"><feOffset dy="1" in="SourceAlpha" result="shadowOffsetInner1"/><feComposite in="shadowOffsetInner1" in2="SourceAlpha" k2="-1" k3="1" operator="arithmetic" result="shadowInnerInner1"/><feColorMatrix in="shadowInnerInner1" result="shadowMatrixInner1" values="0 0 0 0 0 0 0 0 0 0 0 0 0 0 0 0 0 0 0.11 0"/><feOffset dy="-1" in="SourceAlpha" result="shadowOffsetInner2"/><feComposite in="shadowOffsetInner2" in2="SourceAlpha" k2="-1" k3="1" operator="arithmetic" result="shadowInnerInner2"/><feColorMatrix in="shadowInnerInner2" result="shadowMatrixInner2" values="0 0 0 0 1 0 0 0 0 1 0 0 0 0 1 0 0 0 0.69 0"/><feMerge><feMergeNode in="shadowMatrixInner1"/><feMergeNode in="shadowMatrixInner2"/></feMerge></filter><filter id="p" width="103.1%" height="104.1%" x="-1.5%" y="-2%" filterUnits="objectBoundingBox"><feOffset dx="1" dy="1" in="SourceAlpha" result="shadowOffsetInner1"/><feComposite in="shadowOffsetInner1" in2="SourceAlpha" k2="-1" k3="1" operator="arithmetic" result="shadowInnerInner1"/><feColorMatrix in="shadowInnerInner1" values="0 0 0 0 1 0 0 0 0 1 0 0 0 0 1 0 0 0 0.08 0"/></filter><filter id="u" width="101.4%" height="112.1%" x="-.6%" y="-6.1%" filterUnits="objectBoundingBox"><feOffset dy="-2" in="SourceAlpha" result="shadowOffsetInner1"/><feComposite in="shadowOffsetInner1" in2="SourceAlpha" k2="-1" k3="1" operator="arithmetic" result="shadowInnerInner1"/><feColorMatrix in="shadowInnerInner1" values="0 0 0 0 0 0 0 0 0 0 0 0 0 0 0 0 0 0 0.13 0"/></filter><path id="c" d="M65.551 5.688c1.847-2.976 5.452-3.936 9.692-2.24 8.315 3.326 8.315 16.628 2.172 22.771-3.509 3.509-8.5 4.66-14.762 3.556a2 2 0 1 1 .695-3.94c5.071.895 8.747.047 11.238-2.444 4.357-4.357 4.357-14.155-.828-16.229-2.521-1.008-4.04-.604-4.808.635-.658 1.06-.59 2.54-.035 3.094.885.885 1.286.885 2.171 0a2 2 0 1 1 2.829 2.828c-2.448 2.448-5.381 2.448-7.829 0-1.955-1.955-2.119-5.48-.535-8.031"/><path id="k" d="M24 15.305h32v24H24z"/><path id="n" d="M12.22 24.39s-1.842-2.028-3.737-1.052C6.174 26.007 0 24.305 0 19.805q0-4.5 4.09-4.15-1.385-6.76 1.563-10.999C8.6.416 16.56-.999 20.338.702s6.59 5.241 6.59 10.603c2.902.82 5.545 2.272 5.545 3.271S12.22 24.391 12.22 24.391"/><path id="s" d="M14.18 55.496 7.696 68.87a1 1 0 0 0 .9 1.436H69.49a1 1 0 0 0 .921-1.39l-5.634-13.282a3 3 0 0 0-2.762-1.828H16.879a3 3 0 0 0-2.699 1.691"/><rect id="h" width="48" height="40" x="16" y="7.305" rx="4"/></defs><g fill="none" fill-rule="evenodd" filter="url(#a)" transform="translate(7 12.695)"><path fill="url(#b)" fill-rule="nonzero" d="M67.5 41.305a3.5 3.5 0 0 1 3.495 3.308l.005.192v1.5h3a1 1 0 0 1 0 2h-3v1h3a1 1 0 0 1 0 2h-3v1h3a1 1 0 0 1 0 2h-3v2a3.5 3.5 0 0 1-3.308 3.495l-.192.005H64a1.5 1.5 0 0 1-.144-2.993l.144-.007h3.5a.5.5 0 0 0 .492-.41l.008-.09v-2h-2a1 1 0 1 1 0-2h2v-1h-2a1 1 0 1 1 0-2h2v-1h-2a1 1 0 1 1 0-2h2v-1.5a.5.5 0 0 0-.41-.492l-.09-.008H61a1.5 1.5 0 0 1-.144-2.993l.144-.007z"/><use xlink:href="#c" fill="url(#e)"/><use xlink:href="#c" fill="#000" filter="url(#f)"/><path fill="url(#g)" d="M21 44.305h38v5a2 2 0 0 1-2 2H23a2 2 0 0 1-2-2z"/><use xlink:href="#h" fill="url(#i)"/><use xlink:href="#h" fill="#000" filter="url(#j)"/><circle cx="56" cy="42.305" r="2" fill="#dbd14b"/><path fill="#b2c2d2" d="M28 41.305a1 1 0 1 1 0 2 1 1 0 0 1 0-2m4 0a1 1 0 1 1 0 2 1 1 0 0 1 0-2m4 0a1 1 0 1 1 0 2 1 1 0 0 1 0-2"/><use xlink:href="#k" fill="url(#l)"/><use xlink:href="#k" fill="#000" filter="url(#m)"/><circle cx="51" cy="21.305" r="2" fill="#ee6225"/><circle cx="51" cy="28.305" r="2" fill="#2fd1f9"/><use xlink:href="#n" fill="url(#o)"/><use xlink:href="#n" fill="#000" filter="url(#p)"/><g transform="translate(11.338 6.305)"><circle cx="2.5" cy="4.5" r="1.5" fill="#76c1f3" transform="rotate(-35 2.5 4.5)"/><circle cx="4.5" cy="2.5" r="1.5" fill="#76c1f3" transform="rotate(-35 4.5 2.5)"/><ellipse cx="6" cy="6" fill="#fff" rx="3" ry="4" transform="rotate(-35 6 6)"/><path fill="#000" d="M7.462 6.574a1 1 0 1 0-1.147-1.639 1 1 0 0 0 1.147 1.639"/></g><g transform="translate(19.338 5.305)"><circle cx="2.5" cy="2.5" r="1.5" fill="#76c1f3" transform="rotate(-35 2.5 2.5)"/><circle cx="5.5" cy="2.5" r="1.5" fill="#76c1f3" transform="rotate(-35 5.5 2.5)"/><path fill="#fff" d="M4 10c1.657 0 2.554-1.79 2.554-4S5.657 2 4 2 1 3.79 1 6s1.343 4 3 4"/><path fill="#000" d="M4.874 7a1 1 0 1 0-1.147-1.638A1 1 0 0 0 4.874 7"/></g><g transform="translate(9.338 12.305)"><ellipse cx="14" cy="7.5" fill="url(#q)" rx="14" ry="7.5"/><circle cx="20" cy="6" r="2" fill="#000"/><path stroke="#ee9241" stroke-linecap="round" d="M4.048 9.082q.526 1.95 2.027 1.951"/></g><path stroke="#000" stroke-linecap="round" d="M2.57 21.387q.772-1.886 2.958-1.582"/><path fill="url(#r)" d="M46.998 3.305c.395 0 .743.26.856.64l.477 1.61a7.9 7.9 0 0 1 0 4.5l-.477 1.61a.893.893 0 0 1-1.712 0l-.478-1.61a8 8 0 0 1-.167-.671q-.066.338-.166.671l-.477 1.61a.893.893 0 0 1-1.712 0l-.478-1.61a8 8 0 0 1-.167-.671q-.066.338-.166.671l-.477 1.61a.893.893 0 0 1-1.712 0l-.478-1.61a7.9 7.9 0 0 1 0-4.5l.478-1.61a.893.893 0 0 1 1.712 0l.477 1.61q.1.333.167.672.067-.339.166-.672l.478-1.61a.893.893 0 0 1 1.712 0l.477 1.61q.1.333.167.672.067-.339.166-.672l.478-1.61c.112-.38.46-.64.856-.64"/><path fill="url(#r)" d="M18.998 35.305c.395 0 .743.26.856.64l.477 1.61a7.9 7.9 0 0 1 0 4.5l-.477 1.61a.893.893 0 0 1-1.712 0l-.478-1.61a8 8 0 0 1-.167-.671q-.067.339-.166.671l-.477 1.61a.893.893 0 0 1-1.712 0l-.478-1.61a8 8 0 0 1-.167-.671q-.067.339-.166.671l-.477 1.61a.893.893 0 0 1-1.712 0l-.478-1.61a7.9 7.9 0 0 1 0-4.5l.478-1.61a.893.893 0 0 1 1.712 0l.477 1.61q.1.333.167.672.067-.339.166-.672l.478-1.61a.893.893 0 0 1 1.712 0l.477 1.61q.1.333.167.672.067-.339.166-.672l.478-1.61c.112-.38.46-.64.856-.64" transform="rotate(-90 15.998 39.805)"/><use xlink:href="#s" fill="url(#t)"/><use xlink:href="#s" fill="#000" filter="url(#u)"/><g fill="#e5e5e7" opacity=".767" transform="translate(12 56.305)"><rect width="15" height="2" x="11.5" y="8.5" stroke="url(#v)" rx=".2"/><rect width="4" height="2" x=".5" y="5.5" stroke="url(#w)" rx=".2"/><rect width="4" height="2" x="12.5" y="5.5" stroke="url(#w)" rx=".2"/><rect width="4" height="2" x="12.5" y="-.5" stroke="url(#w)" rx=".2"/><rect width="4" height="2" x="11.5" y="2.5" stroke="url(#w)" rx=".2"/><rect width="3" height="2" x="1.5" y="2.5" stroke="url(#x)" rx=".2"/><rect width="3" height="2" x="4.5" y="2.5" stroke="url(#x)" rx=".2"/><rect width="3" height="2" x="7.5" y="2.5" stroke="url(#x)" rx=".2"/><rect width="2" height="2" x="4.5" y="5.5" stroke="url(#y)" rx=".2"/><rect width="2" height="2" x="4.5" y="-.5" stroke="url(#y)" rx=".2"/><rect width="2" height="2" x="16.5" y="5.5" stroke="url(#y)" rx=".2"/><rect width="2" height="2" x="16.5" y="-.5" stroke="url(#y)" rx=".2"/><rect width="2" height="2" x="15.5" y="2.5" stroke="url(#y)" rx=".2"/><rect width="2" height="2" x="6.5" y="5.5" stroke="url(#y)" rx=".2"/><rect width="2" height="2" x="6.5" y="-.5" stroke="url(#y)" rx=".2"/><rect width="2" height="2" x="18.5" y="5.5" stroke="url(#y)" rx=".2"/><rect width="2" height="2" x="18.5" y="-.5" stroke="url(#y)" rx=".2"/><rect width="2" height="2" x="17.5" y="2.5" stroke="url(#y)" rx=".2"/><rect width="4" height="2" x="8.5" y="5.5" stroke="url(#w)" rx=".2"/><rect width="4" height="2" x="8.5" y="-.5" stroke="url(#w)" rx=".2"/><rect width="3" height="2" x="20.5" y="5.5" stroke="url(#x)" rx=".2"/><rect width="3" height="2" x="20.5" y="-.5" stroke="url(#x)" rx=".2"/><rect width="4" height="2" x="19.5" y="2.5" stroke="url(#w)" rx=".2"/><rect width="3" height="2" x="8.5" y="8.5" stroke="url(#x)" rx=".2"/><rect width="3" height="2" x="39.5" y="8.5" stroke="url(#x)" rx=".2"/><rect width="3" height="2" x="52.5" y="8.5" stroke="url(#x)" rx=".2"/><rect width="3" height="2" x="51.5" y="5.5" stroke="url(#x)" rx=".2"/><rect width="3" height="2" x="38.5" y="2.5" stroke="url(#x)" rx=".2"/><rect width="3" height="2" x="23.5" y="2.5" stroke="url(#x)" rx=".2"/><rect width="2" height="2" x="26.5" y="2.5" stroke="url(#y)" rx=".2"/><rect width="2" height="2" x="28.5" y="2.5" stroke="url(#y)" rx=".2"/><rect width="5" height="2" x="26.5" y="8.5" stroke="url(#z)" rx=".2"/><rect width="3" height="2" x="50.5" y="2.5" stroke="url(#x)" rx=".2"/><rect width="3" height="2" x="5.5" y="8.5" stroke="url(#x)" rx=".2"/><rect width="3" height="2" x="36.5" y="8.5" stroke="url(#x)" rx=".2"/><rect width="3" height="2" x="49.5" y="8.5" stroke="url(#x)" rx=".2"/><rect width="3" height="2" x="48.5" y="5.5" stroke="url(#x)" rx=".2"/><rect width="3" height="2" x="35.5" y="2.5" stroke="url(#x)" rx=".2"/><rect width="3" height="2" x="26.5" y="5.5" stroke="url(#x)" rx=".2"/><rect width="3" height="2" x="26.5" y="-.5" stroke="url(#x)" rx=".2"/><rect width="3" height="2" x="47.5" y="2.5" stroke="url(#x)" rx=".2"/><rect width="3" height="2" x="36.5" y="5.5" stroke="url(#x)" rx=".2"/><rect width="3" height="2" x="2.5" y="8.5" stroke="url(#x)" rx=".2"/><rect width="3" height="2" x="33.5" y="8.5" stroke="url(#x)" rx=".2"/><rect width="3" height="2" x="46.5" y="8.5" stroke="url(#x)" rx=".2"/><rect width="3" height="2" x="45.5" y="5.5" stroke="url(#x)" rx=".2"/><rect width="3" height="2" x="32.5" y="2.5" stroke="url(#x)" rx=".2"/><rect width="3" height="2" x="38.5" y="-.5" stroke="url(#x)" rx=".2"/><rect width="3" height="2" x="35.5" y="-.5" stroke="url(#x)" rx=".2"/><rect width="3" height="2" x="32.5" y="-.5" stroke="url(#x)" rx=".2"/><rect width="3" height="2" x="23.5" y="5.5" stroke="url(#x)" rx=".2"/><rect width="3" height="2" x="23.5" y="-.5" stroke="url(#x)" rx=".2"/><rect width="3" height="2" x="44.5" y="2.5" stroke="url(#x)" rx=".2"/><rect width="3" height="2" x="49.5" y="-.5" stroke="url(#x)" rx=".2"/><rect width="3" height="2" x="46.5" y="-.5" stroke="url(#x)" rx=".2"/><rect width="3" height="2" x="-.5" y="8.5" stroke="url(#x)" rx=".2"/></g></g></svg>