<svg xmlns="http://www.w3.org/2000/svg" viewBox="0 0 64 64"><rect width="56" height="56" x="4" y="5" opacity=".2" rx="2.8" ry="2.8"/><rect width="56" height="56" x="4" y="4" fill="#4f4f4f" rx="2.8" ry="2.8"/><path d="m26 11-1 2.75V55h6V11Zm7 0v44h4l2-6V11ZM22 22 10 55h6l6-17.334Zm20 27-2 6h14v-6Z" opacity=".2"/><path fill="#16ae16" d="m26 10-1 2.75V54h6V10Zm-4 11L10 54h6l6-17.334Z"/><path fill="#ff8416" d="M33 10v44h4l2-6V10Zm9 38-2 6h14v-6Z"/><path fill="#fff" d="m26 10-1 2.75v1L26 11h5v-1Zm7 0v1h6v-1ZM22 21 10 54h.363L22 22Zm20 27-2 6h.334L42 49h12v-1Z" opacity=".2"/><path fill="#fff" d="M6.8 4C5.25 4 4 5.25 4 6.8v1C4 6.25 5.25 5 6.8 5h50.4A2.796 2.796 0 0 1 60 7.8v-1C60 5.25 58.75 4 57.199 4z" opacity=".1"/></svg>