<svg xmlns="http://www.w3.org/2000/svg" viewBox="0 0 64 64"><rect width="56" height="52" x="4" y="7" opacity=".2" rx="2.8" ry="2.8"/><path fill="#1da0f8" d="M38 58H6.8A2.794 2.794 0 0 1 4 55.2V8.8C4 7.249 5.249 6 6.8 6H34l4 4Z"/><path d="M27.141 32c-.036.265-.141 1-.141 1h8s.019 9.609 2.826 25H38c-3-16-3-26-3-26Z" opacity=".2"/><path fill="#e4e4e4" d="M33 6c-4 10-6 26-6 26h8s0 10 3 26h19.199A2.796 2.796 0 0 0 60 55.199V8.801A2.796 2.796 0 0 0 57.199 6Z"/><path fill="#fff" d="M6.8 6C5.25 6 4 7.25 4 8.8v1C4 8.25 5.25 7 6.8 7h50.4A2.796 2.796 0 0 1 60 9.8v-1C60 7.25 58.75 6 57.199 6Z" opacity=".2"/><path fill="none" stroke="#000" stroke-linecap="round" stroke-width="3" d="M15.5 40.5s4.5 7 16.5 7 16.5-7 16.5-7m-28-19v4m23-4v4" opacity=".2"/><path fill="none" stroke="#4c4c4c" stroke-linecap="round" stroke-width="3" d="M15.5 39.5s4.5 7 16.5 7 16.5-7 16.5-7m-28-19v4m23-4v4"/></svg>