<svg xmlns="http://www.w3.org/2000/svg" viewBox="0 0 64 64"><rect width="56" height="56" x="4" y="5" opacity=".2" rx="5" ry="5"/><rect width="56" height="56" x="4" y="4" fill="#24b8eb" rx="5" ry="5"/><path d="M14.137 12A3.13 3.13 0 0 0 11 15.137v16.726A3.13 3.13 0 0 0 14.137 35H50v16H33V38h-3v12.863A3.13 3.13 0 0 0 33.137 54h16.726A3.13 3.13 0 0 0 53 50.863V35c0-1.738-1.262-3-3-3H14V15h17v14h3V15.137A3.13 3.13 0 0 0 30.863 12z" opacity=".2"/><path fill="#3f3f3f" d="M14.137 11A3.13 3.13 0 0 0 11 14.137v16.726A3.13 3.13 0 0 0 14.137 34H50v16H33V37h-3v12.863A3.13 3.13 0 0 0 33.137 53h16.726A3.13 3.13 0 0 0 53 49.863V34c0-1.738-1.262-3-3-3H14V14h17v14h3V14.137A3.13 3.13 0 0 0 30.863 11z"/><path fill="#fff" d="M9 4C6.23 4 4 6.23 4 9v1c0-2.77 2.23-5 5-5h46c2.77 0 5 2.23 5 5V9c0-2.77-2.23-5-5-5z" opacity=".2"/></svg>