<svg xmlns="http://www.w3.org/2000/svg" viewBox="0 0 64 64"><path d="M32 7c-2.414 2.394-4.258 4.534-5.568 6.42-2.444 3.516-3.28 7.404-3.45 8.5-.08.516-.016 1.72.395 3.404-3.902-3.193-8.83-3.086-14.262-2.074-1.72.32-3.426.858-5.115.75.869 3.283 1.793 5.533 2.773 7.61 1.829 3.87 4.785 6.536 5.65 7.232.587.47 2.54 1.4 5.675 1.947-.35.113-.687.234-1.002.37-4.801 2.06-6.898 6.62-8.371 12.062C8.268 54.906 7.829 56.529 7 58c3.343.642 5.96.929 8.262.947 4.29.035 7.98-1.466 8.984-1.943s4.202-3.19 6.897-8.813c.362-.756.631-1.548.853-2.384 1.324 3.864 2.72 6.688 4.219 8.425 3.409 3.951 8.4 4.581 14.047 4.352 1.749-.071 3.082.068 4.738.416-.387-3.373-.545-6.158-1.217-8.354-1.252-4.092-3.793-7.154-4.55-7.966-.488-.523-2.14-1.631-4.901-2.59 1.642-.03 3.031-.208 4.156-.596 4.94-1.702 7.37-6.096 9.24-11.416.58-1.648 1.336-2.671 2.272-4.078-3.287-.886-6.076-1.926-8.37-2.113-4.275-.35-8.066.877-9.103 1.279-.437.17-1.295.713-2.37 1.684.943-5.074-1.643-9.343-5.3-13.594C33.717 9.93 32.752 8.512 32 7m-.707 31.348.445.41-.258.03q-.093-.222-.187-.44" opacity=".2"/><path fill="#ffb74d" d="M38.736 37.76c6.186.88 9.74 3.11 10.496 3.922s3.299 3.875 4.551 7.968c.672 2.195.83 4.98 1.217 8.353-1.656-.349-2.988-.487-4.737-.416-5.648.228-10.638-.402-14.047-4.353-2.273-2.634-4.309-7.75-6.216-15.232 3.35-.555 6.225-.598 8.736-.241"/><path fill="#fff" d="M35.752 37.531c-1.75-.026-3.659.122-5.752.469.083.328.168.644.252.963 3.24-.516 6.036-.553 8.482-.205 6.186.879 9.741 3.11 10.498 3.922.758.812 3.299 3.874 4.551 7.966.601 1.964.797 4.427 1.108 7.334.037.008.071.012.109.02-.387-3.373-.545-6.158-1.217-8.354-1.252-4.092-3.793-7.154-4.55-7.966-.758-.813-4.313-3.041-10.499-3.92a24 24 0 0 0-2.982-.229" opacity=".2"/><path fill="#ffb74d" d="M34.999 30.448c3.101-5.41 6.49-7.881 7.526-8.283s4.828-1.629 9.104-1.28c2.293.188 5.083 1.227 8.37 2.113-.936 1.406-1.693 2.43-2.273 4.078-1.87 5.32-4.298 9.713-9.238 11.416-3.293 1.135-8.812.499-16.489-.494.719-3.31 1.742-5.355 3-7.55"/><path fill="#fff" d="M50.055 20.826c-3.605.006-6.62.988-7.528 1.34-1.036.402-4.426 2.873-7.527 8.283-1.258 2.196-2.281 4.241-3 7.551l.232.03c.7-2.752 1.639-4.61 2.768-6.58 3.101-5.41 6.49-7.882 7.527-8.284s4.828-1.626 9.104-1.277c2.16.176 4.764 1.105 7.805 1.953.181-.272.367-.545.564-.842-3.287-.886-6.076-1.926-8.37-2.113a19 19 0 0 0-1.575-.06" opacity=".2"/><path fill="#ffb74d" d="M26.402 31.564c-3.142-5.386-3.59-9.549-3.42-10.645s1.005-4.984 3.449-8.5c1.31-1.886 3.154-4.026 5.568-6.42.752 1.512 1.718 2.93 2.857 4.256 3.68 4.278 6.278 8.575 5.282 13.691-.664 3.412-3.433 7.922-8.139 14.052-2.512-2.277-4.321-4.248-5.597-6.434"/><path fill="#fff" d="M32 6c-2.414 2.394-4.258 4.534-5.568 6.42-2.444 3.516-3.28 7.404-3.45 8.5-.034.225-.04.585-.005 1.053l.005-.053c.17-1.096 1.006-4.984 3.45-8.5C27.742 11.534 29.586 9.394 32 7c.752 1.512 1.718 2.93 2.857 4.256 3.019 3.509 5.306 7.03 5.483 11.006.199-4.391-2.214-8.206-5.483-12.006C33.717 8.93 32.752 7.512 32 6" opacity=".2"/><path fill="#ffb74d" d="M23.375 40.219c-6.248.016-10.085-1.682-10.951-2.378s-3.822-3.362-5.65-7.233C5.792 28.532 4.867 26.283 4 23c1.689.107 3.393-.43 5.114-.75 5.556-1.035 10.586-1.126 14.528 2.296 2.628 2.281 5.393 7.32 8.357 14.453-3.235 1.029-6.088 1.213-8.624 1.22"/><path fill="#fff" d="M15.113 21.62c-1.906-.014-3.914.242-5.998.63-1.72.32-3.426.858-5.115.75.092.349.186.68.28 1.006 1.597.037 3.209-.453 4.835-.756 5.556-1.035 10.585-1.125 14.528 2.297 2.514 2.183 5.156 6.914 7.976 13.564.128-.038.252-.07.381-.111-2.964-7.132-5.73-12.172-8.357-14.453-2.464-2.139-5.353-2.906-8.53-2.928" opacity=".2"/><path fill="#ffb74d" d="M31.143 47.192c-2.694 5.623-5.892 8.336-6.896 8.813s-4.695 1.978-8.985 1.943c-2.3-.018-4.918-.305-8.261-.948.829-1.471 1.268-3.093 1.724-4.779 1.473-5.442 3.57-10.002 8.371-12.062C20.296 38.785 25.271 38.573 33 39c-.472 3.353-.764 5.91-1.857 8.191"/><path fill="#fff" d="M26.531 38.803c-4.196.016-7.235.411-9.435 1.355-4.801 2.06-6.898 6.62-8.371 12.063C8.268 53.906 7.829 55.529 7 57c.156.03.304.055.457.084.548-1.218.904-2.52 1.268-3.863 1.473-5.443 3.57-10.003 8.37-12.063 3.18-1.365 8.119-1.58 15.764-1.164L33 39c-2.415-.133-4.562-.205-6.469-.197" opacity=".2"/><path fill="none" stroke="#ffe57f" stroke-linecap="round" stroke-miterlimit="1" stroke-width="12.823" d="M379.8 328.671c-48.198-38.866-62.217-62.495-106.832-111.451" transform="matrix(.1557 -.01223 .01226 .15529 -13.164 7.608)"/><path fill="none" stroke="#ffe57f" stroke-linecap="round" stroke-miterlimit="1" stroke-width="12.823" d="M260.272 212.28c51.135-20.01 87.478-32.822 148.27-45.074" transform="matrix(.15223 -.03478 .03487 .15183 -15.024 14.82)"/><path fill="none" stroke="#ffe57f" stroke-linecap="round" stroke-miterlimit="1" stroke-width="12.823" d="M259.317 215.414c5.836-53.577 11.504-105.83 29.592-157.875" transform="matrix(.15223 -.03478 .03487 .15183 -14.988 14.311)"/><path fill="none" stroke="#ffe57f" stroke-linecap="round" stroke-miterlimit="1" stroke-width="12.823" d="M140.479 106.608c38.372 39.706 73.692 75.196 120.11 106.545" transform="matrix(.15223 -.03478 .03487 .15183 -15.103 14.699)"/><path fill="none" stroke="#ffe57f" stroke-linecap="round" stroke-miterlimit="1" stroke-width="12.823" d="M107.725 265.663c58.955-13.16 91.924-28.917 144.753-55.859" transform="matrix(.14914 -.04622 .04635 .14875 -15.379 18.462)"/><path d="M39.999 38.105c.062 1.512-2.12 1.617-2.135 3.464-.012 1.605-.318 3.018-1.556 3.83-1.239.811-2.829-.044-4.229.017s-2.439 1.032-3.74.331c-1.3-.7-1.318-1.821-2.07-3.041-.75-1.22-2.205-2.11-2.267-3.623-.062-1.512 1.397-2.235 2.045-3.516.649-1.281.47-3.246 1.708-4.058s2.59.172 3.99.11c1.4-.06 2.925-1.074 4.225-.373 1.301.7 1.075 2.495 1.826 3.715s2.14 1.632 2.203 3.144" opacity=".1"/><path fill="#ffe57f" d="M39.999 37.105c.062 1.512-2.12 1.617-2.135 3.464-.012 1.605-.318 3.018-1.556 3.83-1.239.811-2.829-.044-4.229.017s-2.439 1.032-3.74.331c-1.3-.7-1.318-1.821-2.07-3.041-.75-1.22-2.205-2.11-2.267-3.623-.062-1.512 1.397-2.235 2.045-3.516.649-1.281.47-3.246 1.708-4.058s2.59.172 3.99.11c1.4-.06 2.925-1.074 4.225-.373 1.301.7 1.075 2.495 1.826 3.715s2.14 1.632 2.203 3.144"/><path d="M37.512 41.725c-.626 1.226-2.781.003-3.481 1.027-.716 1.046-.811 2.318-2.117 2.245-1.19-.067-.827-2.194-1.814-2.762s-3.182.856-3.736-.444c-.577-1.352 1.763-1.39 1.73-2.867-.031-1.477-2.598-2.306-2.005-3.345.592-1.038 2.742.079 3.726-.496.983-.575 1.122-3.079 2.313-3.083s.915 2.548 1.903 3.116c.987.568 3.294-.694 3.893.34.6 1.035-2.556 1.885-2.553 3.028s2.685 2.176 2.14 3.24" opacity=".1"/><path fill="#fff8e1" d="M37.512 40.725c-.626 1.226-2.781.003-3.481 1.027-.716 1.046-.811 2.318-2.117 2.245-1.19-.067-.827-2.194-1.814-2.762s-3.182.856-3.736-.444c-.577-1.352 1.763-1.39 1.73-2.867-.031-1.477-2.598-2.306-2.005-3.345.592-1.038 2.742.079 3.726-.496.983-.575 1.122-3.079 2.313-3.083s.915 2.548 1.903 3.116c.987.568 3.294-.694 3.893.34.6 1.035-2.556 1.885-2.553 3.028s2.685 2.176 2.14 3.24"/></svg>