<svg xmlns="http://www.w3.org/2000/svg" viewBox="0 0 64 64"><circle cx="32" cy="33" r="28" opacity=".2"/><circle cx="32" cy="32" r="28" fill="#6a6578"/><path fill="#fff" d="M32 4A28 28 0 0 0 4 32a28 28 0 0 0 .021.586A28 28 0 0 1 32 5a28 28 0 0 1 27.979 27.414L60 32A28 28 0 0 0 32 4" opacity=".1"/><path d="M15.999 14.999c64.998 15 3.527 28.25 3.527 28.25-1.217.194-2.05.832-2.79 1.791-.737.958-.777 2.464-.315 3.572.578 1.386 1.405 1.902 2.578 2.386.828.03 3 0 3 0s30.999-10 30.852-19.446C52.78 26.997 42.998 18 15.999 15" opacity=".2"/><path fill="#fff" d="M15.999 13.999c64.998 15 3.527 28.25 3.527 28.25-1.217.194-2.05.832-2.79 1.791-.737.958-.777 2.464-.315 3.572.578 1.386 1.405 1.902 2.578 2.386.828.03 3 0 3 0s30.999-10 30.852-19.446C52.78 25.997 42.998 17 15.999 14"/></svg>