<svg xmlns="http://www.w3.org/2000/svg" viewBox="0 0 64 64"><circle cx="32" cy="33" r="28" opacity=".2"/><path fill="#e69cf7" d="M60 32c0 15.464-12.536 28-28 28-13.087 0-24.077-8.978-27.146-21.111-.558-2.204 1.209-.671 1.209-3.048 0-.264-2.06-4.368-2.052-4.63C4.429 16.11 16.8 4 32 4c15.464 0 28 12.536 28 28"/><path d="M40 16a11 11 0 0 0-11 11l.012.246-5.258 8.764L23.5 36a8.5 8.5 0 0 0-5.662 2.172L4.047 32.078A28 28 0 0 0 4 33a28 28 0 0 0 .938 7.123l10.066 4.45A8.5 8.5 0 0 0 23.5 53a8.5 8.5 0 0 0 8.5-8.5 9 9 0 0 0-.033-.65l9.406-5.946A11 11 0 0 0 51 27a11 11 0 0 0-11-11m0 4a7 7 0 0 1 7 7 7 7 0 0 1-7 7 7 7 0 0 1-7-7 7 7 0 0 1 7-7m0 2a5 5 0 0 0-5 5 5 5 0 0 0 5 5 5 5 0 0 0 5-5 5 5 0 0 0-5-5M23.5 39a5.5 5.5 0 0 1 5.5 5.5 5.5 5.5 0 0 1-5.5 5.5 5.5 5.5 0 0 1-5.293-4.014l3.879 1.715a3.5 3.5 0 1 0 2.828-6.402l-3.879-1.715A5.5 5.5 0 0 1 23.5 39" opacity=".1"/><path fill="#635ad6" d="m30.6 23.6 4.2 9.8 9.9 1.4-15.5 9.8v-7h-7Z"/><path fill="#635ad6" d="M40 15a11 11 0 0 0-11 11 11 11 0 0 0 11 11 11 11 0 0 0 11-11 11 11 0 0 0-11-11m0 4a7 7 0 0 1 7 7 7 7 0 0 1-7 7 7 7 0 0 1-7-7 7 7 0 0 1 7-7M23.5 35a8.5 8.5 0 0 0-8.5 8.5 8.5 8.5 0 0 0 8.5 8.5 8.5 8.5 0 0 0 8.5-8.5 8.5 8.5 0 0 0-8.5-8.5m0 3a5.5 5.5 0 0 1 5.5 5.5 5.5 5.5 0 0 1-5.5 5.5 5.5 5.5 0 0 1-5.5-5.5 5.5 5.5 0 0 1 5.5-5.5"/><circle cx="40" cy="26" r="5" fill="#635ad6"/><path fill="#635ad6" d="M4.047 31.078A28 28 0 0 0 4 32a28 28 0 0 0 .938 7.123l17.148 7.578a3.5 3.5 0 1 0 2.828-6.402z"/><path fill="#fff" d="M32 4C17.1 4 4.918 15.637 4.049 30.318c-.003.05.032.155.062.254C5.343 16.246 17.354 5 32 5c15.296 0 27.719 12.268 27.986 27.5.003-.167.014-.332.014-.5C60 16.536 47.464 4 32 4" opacity=".2"/></svg>