<svg xmlns="http://www.w3.org/2000/svg" viewBox="0 0 5 6"><path fill="#4dd0e1" d="M2.758 4.247V.21h-.883v1.323a1.9 1.9 0 0 0-.95.051c-.611.205-.954.746-.923 1.46.015.319.079.54.217.747.198.298.518.474.985.548.345.055 1.054.018 1.554-.092m-.883-.602c-.456.052-.664-.017-.81-.178C.95 3.34.89 3.162.89 2.943c0-.39.186-.654.512-.728.095-.022.361-.02.472.024zm1.403-2.543h.88V.21h-.88zm-.047 4.444c.517-.268.812-.558.9-1.356.01-.088.031-2.633.031-2.633h-.884v1.016c0 1.51-.019 1.708-.183 2.027-.102.2-.292.367-.576.51-.072.036-.094.052-.08.06.01.006.792.376.792.376" data-iconColor="Django Config"/></svg>