<svg xmlns="http://www.w3.org/2000/svg" viewBox="0 0 16 16"><path fill="#d52a29" d="M12.385 8.8c-.059 0-.114-.013-.171-.017a4.3 4.3 0 0 1-.359 1.225 4.8 4.8 0 0 1-1.232 1.582 5.5 5.5 0 0 1-1.884 1.048 6.4 6.4 0 0 1-1.139.292h-.011a17 17 0 0 1-1.925.07l-3.255.014h-.035A.4.4 0 0 1 2.308 13h-.04l-.026-.013-.026-.013H2.2a.4.4 0 0 1-.053-.039l-.018-.017-.009-.009-.02-.019v-.009c0-.002-.018-.011-.026-.017s0-.007 0-.009l-.013-.026-.022-.029c-.006-.008 0 0 0 0l-.013-.026v-.035c0-.008 0 0 0 0s-.012-.027-.014-.039 0-.007 0-.009a.3.3 0 0 1 0-.061v-.039L2 3.6a.35.35 0 0 1 .308-.344h.044l3.515-.005a8.6 8.6 0 0 1 3.511.582 5.1 5.1 0 0 1 1.3.834A2.5 2.5 0 0 1 12.381 4a2.44 2.44 0 0 1 2.477 2.4 2.44 2.44 0 0 1-2.473 2.4M9.03 5.945v-.009a3.3 3.3 0 0 0-.873-.5 4 4 0 0 0-.943-.268 12 12 0 0 0-1.5-.063L4.2 5.1l.008 6.05h1.559a8.7 8.7 0 0 0 1.665-.124 4.3 4.3 0 0 0 .942-.306 3.2 3.2 0 0 0 .687-.458 2.76 2.76 0 0 0 .98-2.2A2.54 2.54 0 0 0 9.03 5.945" data-iconColor="DLang"/></svg>