<svg xmlns="http://www.w3.org/2000/svg" viewBox="0 0 22 22"><path fill="currentColor" d="M10.969 3Q8.344 3 6 4.264l.778 1.788q1.17-.575 2.107-.825a7.6 7.6 0 0 1 1.936-.25q1.48 0 2.27.662.788.663.788 1.9 0 .664-.172 1.165a3.2 3.2 0 0 1-.591 1q-.42.5-1.764 1.65c-1.1 1.004-2.251 2.786-2.352 4.647h2l-.006-.031q0-1.14.395-1.827.406-.7 1.627-1.763 1.492-1.263 1.986-1.9.506-.638.752-1.35.247-.714.246-1.639 0-2.126-1.344-3.303Q13.312 3 10.969 3.001zM9 17v2h2v-2z" color="#5d656b"/><path fill="#da4453" d="m14.991 13-.99.99 2.01 2.01-2.01 2.01.99.99 2.01-2.01 2.01 2.01.99-.99-2.01-2.01 2.01-2.01-.99-.99-2.01 2.01z"/></svg>