<svg xmlns="http://www.w3.org/2000/svg" xmlns:xlink="http://www.w3.org/1999/xlink" viewBox="0 0 32 32"><defs><filter id="a" width="1.324" height="1.324" x="-.162" y="-.162" color-interpolation-filters="sRGB"><feGaussianBlur stdDeviation="1.215"/></filter><filter id="b" color-interpolation-filters="sRGB"><feGaussianBlur stdDeviation="1.397"/></filter></defs><path d="M35.875 861.375a1 1 0 0 0-.594.281l-3 3c-.823.823-2.22 1.557-3.406 2.032-1.186.474-2.125.718-2.125.718-.426.11-.75.53-.75.969v3c0 .667-.455 2.168-.937 3.375s-.97 2.188-.97 2.188c-.295.608.23 1.442.907 1.437-.005.677.829 1.202 1.438.906 0 0 .98-.486 2.187-.968 1.207-.483 2.708-.938 3.375-.938h3c.44 0 .859-.324.969-.75 0 0 .244-.939.718-2.125.475-1.186 1.209-2.583 2.032-3.406l3-3c.384-.372.384-1.066 0-1.438l-5-5a1.02 1.02 0 0 0-.844-.281" color="#000" enable-background="accumulate" filter="url(#a)" font-family="Sans" font-weight="400" opacity=".2" overflow="visible" style="line-height:normal;-inkscape-font-specification:Sans;text-indent:0;text-align:start;text-decoration-line:none;text-transform:none;block-progression:tb;marker:none" transform="translate(-21.78 -848.318)"/><path d="M33.5 869.375c.288 0 .5.212.5.5a.486.486 0 0 1-.656.469 1 1 0 0 0-.282-.031A1 1 0 0 0 33 870c-.012-.038 0-.037 0-.125 0-.288.212-.5.5-.5" color="#000" enable-background="accumulate" filter="url(#b)" font-family="Sans" font-weight="400" opacity=".6" overflow="visible" style="line-height:normal;-inkscape-font-specification:Sans;text-indent:0;text-align:start;text-decoration-line:none;text-transform:none;block-progression:tb;marker:none" transform="translate(-21.78 -848.318)"/><path fill="#fff" d="M35.875 860.375a1 1 0 0 0-.594.281l-3 3c-.823.823-2.22 1.557-3.406 2.032-1.186.474-2.125.718-2.125.718-.426.11-.75.53-.75.969v3c0 .667-.455 2.168-.937 3.375s-.97 2.188-.97 2.188c-.295.608.23 1.442.907 1.437-.005.677.829 1.202 1.438.906 0 0 .98-.486 2.187-.968 1.207-.483 2.708-.938 3.375-.938h3c.44 0 .859-.324.969-.75 0 0 .244-.939.718-2.125.475-1.186 1.209-2.583 2.032-3.406l3-3c.384-.372.384-1.066 0-1.438l-5-5a1.02 1.02 0 0 0-.844-.281" color="#000" enable-background="accumulate" font-family="Sans" font-weight="400" overflow="visible" style="line-height:normal;-inkscape-font-specification:Sans;text-indent:0;text-align:start;text-decoration-line:none;text-transform:none;block-progression:tb;marker:none" transform="translate(-21.78 -848.318)"/><path fill="#282a33" d="m14.22 13.057-3 3c-2 2-6 3-6 3v3c0 2-2 6-2 6l7.063-7.062a1.4 1.4 0 0 1-.063-.438 1.5 1.5 0 1 1 1.5 1.5c-.148 0-.302-.022-.437-.062L4.22 29.057s4-2 6-2h3s1-4 3-6l3-3z"/></svg>