<svg xmlns="http://www.w3.org/2000/svg" viewBox="0 0 16 16"><path fill="none" stroke="#5d656b" stroke-dashoffset="25.896" stroke-linecap="square" stroke-linejoin="bevel" stroke-miterlimit="4.27" stroke-width="1.116" d="M15.467 8.409c0 .897-.179 1.794-.522 2.623a6.9 6.9 0 0 1-1.486 2.223 6.9 6.9 0 0 1-2.223 1.486 6.9 6.9 0 0 1-2.622.522 6.9 6.9 0 0 1-2.62-.522 6.86 6.86 0 0 1-3.706-3.71 6.9 6.9 0 0 1-.52-2.622 6.86 6.86 0 0 1 4.226-6.332 6.9 6.9 0 0 1 2.62-.522c.897 0 1.793.178 2.622.521a6.9 6.9 0 0 1 2.223 1.486 6.9 6.9 0 0 1 1.486 2.224 6.9 6.9 0 0 1 .522 2.623"/><path fill="#ff2100" fill-opacity=".392" fill-rule="evenodd" stroke="#d40000" stroke-linecap="round" stroke-linejoin="round" stroke-miterlimit="0" d="M5.287.503h2.846v2.856H5.287zM.52 7.622h2.847v2.856H.521zm12.156 3.574h2.846v2.856h-2.846z" color="#000"/></svg>