<svg xmlns="http://www.w3.org/2000/svg" viewBox="0 0 24 24"><path fill="#536076" d="M8.5 14.33c1.675.09 1.749 1.015 1.75 1.613v.137C10.25 17.248 8.5 19 5 19c2.625-1.514 0-3.73 3.5-4.668zm.504 1.096c-.396-.134-.421-.08-.993.134-.624.249-.59.946-.629 1.25-.02.229-.15.876-.15.876q1.305-.399 1.934-1.294.234-.832-.162-.966m4.822-4.19c1.448-1.448 2.673-2.928 3.438-4.13.212-.334.382-.636.506-.896-1.08.538-3.08 2.042-5.002 3.966a32 32 0 0 0-2.261 2.493c.312.235.59.513.824.825a31 31 0 0 0 2.495-2.258m4.748-6.23q.185.024.29.13c.682.685-1.256 3.732-4.33 6.807-1.21 1.21-2.407 2.253-3.534 3.057a3.1 3.1 0 0 0-2-2c.803-1.127 1.852-2.322 3.06-3.531 2.71-2.711 5.46-4.596 6.514-4.463"/></svg>