<svg xmlns="http://www.w3.org/2000/svg" viewBox="0 0 24 24"><path fill="#536076" d="M6.83 4c-3.468 3.232-3.856 8.866-.565 12.398 2.981 3.201 8.157 3.552 11.388.475 2.901-2.762 3.21-7.536.377-10.5-2.514-2.63-6.835-2.902-9.5-.283-2.333 2.293-2.56 6.21-.18 8.603 2.049 2.059 5.52 2.244 7.614.075 1.761-1.825 1.906-4.891-.035-6.707-1.584-1.482-4.218-1.58-5.733.162-1.183 1.36-1.296 3.707.246 4.927.564.446 1.316.549 2.022.498.705-.05 1.462-.413 1.906-1.113.297-.468.4-.985.31-1.539s-.511-1.21-1.193-1.43c-.582-.186-.91-.156-1.275.047-.701.945.546 1.326.482 1.748.012.121-.04.625-.482.753a1.29 1.29 0 0 1-1.553-.75q-.608-1.48.394-2.522c1.145-1.283 3.254-.754 4.06 0 1.592 1.43 1.398 3.582.275 4.982-1.268 1.606-4.522 1.987-6.495-.176-1.796-2.07-1.281-5.339.456-6.783 2.493-2.22 6.272-1.64 8 .356 2.195 2.345 2.066 6.413-.439 8.862-2.395 2.28-7.437 2.527-10.08-.744-2.493-3.212-2.227-7.43.695-10.375z"/></svg>