<svg xmlns="http://www.w3.org/2000/svg" viewBox="0 0 64 64"><rect width="55" height="55" x="5" y="5" opacity=".2" rx="16.5" ry="16.5"/><rect width="55" height="55" x="5" y="4" fill="#795548" rx="16.5" ry="16.5"/><path fill="#6d4c41" d="M21.5 4a16.5 16.5 0 0 0-5.5.95V15h11V4ZM27 15v11h11V15Zm11 0h11V4.95A16.5 16.5 0 0 0 43.5 4H38zm11 0v11h11v-5.5a16.5 16.5 0 0 0-.95-5.5zm0 11H38v11h11zm0 11v11h10.05a16.5 16.5 0 0 0 .95-5.5V37zm0 11H38v11h5.5a16.5 16.5 0 0 0 5.5-.95zm-11 0V37H27v11zm-11 0H16v10.05a16.5 16.5 0 0 0 5.5.95H27Zm-11 0V37H5v5.5c0 1.933.345 3.779.95 5.5zm0-11h11V26H16Zm0-11V15H5.95A16.5 16.5 0 0 0 5 20.5V26Z"/><path fill="#fff" d="M21.5 4C12.359 4 5 11.359 5 20.5v1C5 12.359 12.359 5 21.5 5h22C52.641 5 60 12.359 60 21.5v-1C60 11.359 52.641 4 43.5 4z" opacity=".1"/><path fill="#bdbdbd" d="M26 21h15v25H26z"/><path d="M21 13v7.8c0 2.88 2.23 5.2 5 5.2h15c2.77 0 5-2.32 5-5.2V13h-5v5h-5v-5h-5v5h-5v-5z" opacity=".2"/><path fill="#fff" d="M21 12v7.8c0 2.88 2.23 5.2 5 5.2h15c2.77 0 5-2.32 5-5.2V12h-5v5h-5v-5h-5v5h-5v-5z"/><path d="M21.875 43C19.728 43 18 44.784 18 47v4h31v-4c0-2.216-1.728-4-3.875-4z" opacity=".2"/><path fill="#fff" d="M21.875 42C19.728 42 18 43.784 18 46v4h31v-4c0-2.216-1.728-4-3.875-4z"/></svg>