<svg xmlns="http://www.w3.org/2000/svg" viewBox="0 0 22 22"><g fill="currentColor" class="ColorScheme-Text" transform="translate(3 3)"><path d="M3 0C1.892 0 1 .892 1 2v12c0 1.108.892 2 2 2h10c1.108 0 2-.892 2-2V2c0-1.108-.892-2-2-2zm0 1h10c.554 0 1 .446 1 1v12c0 .554-.446 1-1 1H3c-.554 0-1-.446-1-1V2c0-.554.446-1 1-1" class="ColorScheme-Text"/><path d="M8 13a4 4 0 0 1 0-8h4v4a4 4 0 0 1-4 4m0-2a2 2 0 1 0 0-4 2 2 0 0 0 0 4" class="ColorScheme-Text"/><rect width="1" height="1" x="3" y="2" class="ColorScheme-Text" ry=".5"/><rect width="1" height="1" x="12" y="2" class="ColorScheme-Text" ry=".5"/><rect width="1" height="1" x="3" y="13" class="ColorScheme-Text" ry=".5"/><rect width="1" height="1" x="12" y="13" class="ColorScheme-Text" ry=".5"/></g></svg>