<svg xmlns="http://www.w3.org/2000/svg" xmlns:xlink="http://www.w3.org/1999/xlink" viewBox="0 0 22 22"><defs><linearGradient id="a" x1="102.549%" x2="-2.652%" y1="57.682%" y2="57.682%"><stop offset="0%" stop-color="#0067bc"/><stop offset="4.571%" stop-color="#30ea7f"/><stop offset="9.931%" stop-color="#00d887"/><stop offset="88.945%" stop-color="#00b160"/><stop offset="93.793%" stop-color="#00c165"/><stop offset="100%" stop-color="#008cbd"/></linearGradient><linearGradient id="d" x1="100%" x2="0%" y1="56.43%" y2="56.43%"><stop offset="0%" stop-color="#fff" stop-opacity=".5"/><stop offset="9.936%" stop-color="#fff" stop-opacity=".9"/><stop offset="52.356%" stop-color="#fff" stop-opacity=".7"/><stop offset="87.648%" stop-color="#fff" stop-opacity=".9"/><stop offset="100%" stop-color="#fff" stop-opacity=".5"/></linearGradient><linearGradient id="g" x1="50%" x2="50%" y1="0%" y2="100%"><stop offset="0%" stop-color="#0174ff"/><stop offset="50.85%" stop-color="#01c2ff"/><stop offset="100%" stop-color="#0056ff"/></linearGradient><radialGradient id="f" cx="48.239%" cy="19.103%" r="78.654%" fx="48.239%" fy="19.103%" gradientTransform="matrix(0 1 -.7673 0 .629 -.291)"><stop offset="0%" stop-color="#7cfffe"/><stop offset="100%" stop-color="#d6cde6"/></radialGradient><radialGradient id="h" cx="50%" cy="37.643%" r="62.357%" fx="50%" fy="37.643%"><stop offset="0%" stop-color="#b0ff58"/><stop offset="100%" stop-color="#37ec00"/></radialGradient><filter id="e" width="107.1%" height="125%" x="-3.6%" y="-12.5%" filterUnits="objectBoundingBox"><feMorphology in="SourceAlpha" radius="1" result="shadowSpreadInner1"/><feOffset in="shadowSpreadInner1" result="shadowOffsetInner1"/><feComposite in="shadowOffsetInner1" in2="SourceAlpha" k2="-1" k3="1" operator="arithmetic" result="shadowInnerInner1"/><feColorMatrix in="shadowInnerInner1" values="0 0 0 0 1 0 0 0 0 1 0 0 0 0 1 0 0 0 0.5 0"/></filter><path id="b" d="M4 17c0-1.105.897-2 2.006-2h9.988c1.108 0 2.006.888 2.006 2v1.51c0 .27-.218.49-.499.49H4.497A.49.49 0 0 1 4 18.51z"/></defs><g fill="none" fill-rule="evenodd"><path fill="url(#a)" d="M4 3.994A2 2 0 0 1 6.006 2h9.988C17.102 2 18 2.895 18 3.994V18H4z"/><use xlink:href="#b" fill="url(#d)"/><use xlink:href="#b" fill="#000" filter="url(#e)"/><path fill="url(#f)" stroke="#003d9c" stroke-opacity=".2" d="M4.5 18.5c0 .556.445 1 .998 1h11.004c.548 0 .998-.45.998-1 0-.556-.445-1-.998-1H5.498c-.548 0-.998.45-.998 1Z"/><path fill="url(#g)" d="M17 18v1h-1v-1zm-2 0v1h-1v-1zm-2 0v1h-1v-1zm-2 0v1h-1v-1z"/><path fill="url(#h)" d="M5.5 19a.5.5 0 1 0 0-1 .5.5 0 0 0 0 1"/><path fill="#fff" d="m15 4-4 .736V8h4zM7 5.227V8h3V4.818zM11 9v3.345L15 13V9zM7 9v2.773l3 .409V9z"/></g></svg>