<svg xmlns="http://www.w3.org/2000/svg" viewBox="0 0 64 64"><rect width="56" height="44" x="-61" y="-54" opacity=".2" rx="4" ry="4" transform="rotate(90)scale(-1 1)"/><rect width="56" height="44" x="-60" y="-54" fill="#8e8e8e" rx="4" ry="4" transform="rotate(90)scale(-1 1)"/><path fill="#fff" d="M14 4c-2.216 0-4 1.784-4 4v1c0-2.216 1.784-4 4-4h36c2.216 0 4 1.784 4 4V8c0-2.216-1.784-4-4-4z" opacity=".2"/><path d="M28 40h8v3h-8zm0 5h8v3h-8zm4-21a7 7 0 0 0-7 7 7 7 0 0 0 7 7 7 7 0 0 0 7-7 7 7 0 0 0-7-7m0 3a4 4 0 0 1 4 4 4 4 0 0 1-4 4 4 4 0 0 1-4-4 4 4 0 0 1 4-4m9.189.4-5.657-5.656 5.657-5.657 5.657 5.657zm-12.728-5.656L22.804 27.4l-2.121-2.12 5.657-5.658zm-3.535-3.536-5.657 5.657-2.122-2.121 5.657-5.657z" opacity=".5"/></svg>