<svg xmlns="http://www.w3.org/2000/svg" xmlns:xlink="http://www.w3.org/1999/xlink" viewBox="0 0 128 128"><defs><linearGradient id="b" x1="102.549%" x2="-2.652%" y1="57.682%" y2="57.682%"><stop offset="0%" stop-color="#0067bc"/><stop offset="4.571%" stop-color="#30ea7f"/><stop offset="9.931%" stop-color="#00d887"/><stop offset="88.945%" stop-color="#00b160"/><stop offset="93.793%" stop-color="#00c165"/><stop offset="100%" stop-color="#008cbd"/></linearGradient><linearGradient id="c" x1="100%" x2="0%" y1="56.43%" y2="56.43%"><stop offset="0%" stop-color="#fff" stop-opacity=".5"/><stop offset="8.389%" stop-color="#fff"/><stop offset="52.356%" stop-color="#fff" stop-opacity=".8"/><stop offset="88.168%" stop-color="#fff"/><stop offset="100%" stop-color="#fff" stop-opacity=".5"/></linearGradient><linearGradient id="h" x1="50%" x2="50%" y1="0%" y2="100%"><stop offset="0%" stop-color="#0174ff"/><stop offset="50.85%" stop-color="#01c2ff"/><stop offset="100%" stop-color="#0056ff"/></linearGradient><filter id="a" width="120.8%" height="117.5%" x="-10.4%" y="-7%" filterUnits="objectBoundingBox"><feOffset dy="2" in="SourceAlpha" result="shadowOffsetOuter1"/><feGaussianBlur in="shadowOffsetOuter1" result="shadowBlurOuter1" stdDeviation="3"/><feColorMatrix in="shadowBlurOuter1" result="shadowMatrixOuter1" values="0 0 0 0 0 0 0 0 0 0 0 0 0 0 0 0 0 0 0.2 0"/><feMerge><feMergeNode in="shadowMatrixOuter1"/><feMergeNode in="SourceGraphic"/></feMerge></filter><filter id="f" width="104.5%" height="122.2%" x="-2.3%" y="-5.6%" filterUnits="objectBoundingBox"><feOffset dy="1" in="SourceAlpha" result="shadowOffsetOuter1"/><feColorMatrix in="shadowOffsetOuter1" values="0 0 0 0 1 0 0 0 0 1 0 0 0 0 1 0 0 0 0.3 0"/></filter><filter id="j" width="140%" height="140%" x="-20%" y="-20%" filterUnits="objectBoundingBox"><feOffset dx="-2" dy="-3" in="SourceAlpha" result="shadowOffsetInner1"/><feComposite in="shadowOffsetInner1" in2="SourceAlpha" k2="-1" k3="1" operator="arithmetic" result="shadowInnerInner1"/><feColorMatrix in="shadowInnerInner1" values="0 0 0 0 0.191847778 0 0 0 0 0.912414966 0 0 0 0 0.103665518 0 0 0 0.5 0"/></filter><path id="e" d="M65 99a1 1 0 0 1 1 1v7a1 1 0 1 1-2 0v-7a1 1 0 0 1 1-1m4 0a1 1 0 0 1 1 1v7a1 1 0 1 1-2 0v-7a1 1 0 0 1 1-1m4 0a1 1 0 0 1 1 1v7a1 1 0 1 1-2 0v-7a1 1 0 0 1 1-1m4 0a1 1 0 0 1 1 1v7a1 1 0 1 1-2 0v-7a1 1 0 0 1 1-1m4 0a1 1 0 0 1 1 1v7a1 1 0 1 1-2 0v-7a1 1 0 0 1 1-1m4 0a1 1 0 0 1 1 1v7a1 1 0 1 1-2 0v-7a1 1 0 0 1 1-1"/><path id="i" d="M11.75 107a3.75 3.75 0 1 0 0-7.5 3.75 3.75 0 0 0 0 7.5"/><radialGradient id="d" cx="48.239%" cy="19.103%" r="78.654%" fx="48.239%" fy="19.103%" gradientTransform="matrix(0 1 -.78346 0 .632 -.291)"><stop offset="0%" stop-color="#7cfffe"/><stop offset="100%" stop-color="#d6cde6"/></radialGradient></defs><g fill="none" fill-rule="evenodd"><g filter="url(#a)" transform="translate(16 7)"><path fill="url(#b)" d="M16 0h64c8.837 0 16 7.163 16 16v88H0V16C0 7.163 7.163 0 16 0"/><path fill="url(#c)" d="M10 80h76c5.523 0 10 4.477 10 10v13H0V90c0-5.523 4.477-10 10-10"/><path fill="#fff" fill-opacity=".5" fill-rule="nonzero" d="M86 80c5.523 0 10 4.477 10 10v13H0V90c0-5.523 4.477-10 10-10zm-76 1a9 9 0 0 0-9 9v12h94V90a9 9 0 0 0-8.735-8.996L86 81z"/><path fill="url(#d)" d="M10.5 93h75c5.799 0 10.5 4.701 10.5 10.5S91.299 114 85.5 114h-75C4.701 114 0 109.299 0 103.5S4.701 93 10.5 93"/><path fill="#003d9c" fill-opacity=".2" fill-rule="nonzero" d="M85.5 93c5.799 0 10.5 4.701 10.5 10.5S91.299 114 85.5 114h-75C4.701 114 0 109.299 0 103.5S4.701 93 10.5 93zm0 1h-75a9.5 9.5 0 0 0 0 19h75a9.5 9.5 0 0 0 0-19"/><use xlink:href="#e" fill="#000" filter="url(#f)"/><use xlink:href="#e" fill="url(#h)"/><use xlink:href="#i" fill="#baff76"/><use xlink:href="#i" fill="#000" filter="url(#j)"/><path fill="#54d800" fill-rule="nonzero" d="M11.75 99.5a3.75 3.75 0 1 1 0 7.5 3.75 3.75 0 0 1 0-7.5m0 1a2.75 2.75 0 1 0 0 5.5 2.75 2.75 0 0 0 0-5.5"/></g><path stroke="#fff" stroke-width="2.454" d="M83.829 48.914c0 10.998-8.917 19.915-19.915 19.915S44 59.912 44 48.914 52.917 29 63.914 29 83.83 37.917 83.83 48.914Z"/><path stroke="#fff" stroke-width="2.6" d="M83.183 53.952c-23.487 4.315-34.03-10.592-36.56-14.931"/><path stroke="#fff" stroke-width="2.6" d="M47.135 59.637c.963-5.045 5.796-22.049 27.671-27.393"/><path stroke="#fff" stroke-width="2.6" d="M74.606 65.715c1.846-22.775-13.907-32.648-18.612-35.073"/><path stroke="#fff" stroke-width="2.6" d="M74.072 54.714s-10.486 5.464-16.224 13.17"/><path fill="#fff" d="M67.383 36.475a3.516 3.516 0 0 1-3.515 3.514 3.516 3.516 0 0 1-3.514-3.514 3.516 3.516 0 0 1 3.514-3.514 3.516 3.516 0 0 1 3.515 3.514M56.466 46.3a3.516 3.516 0 0 1-3.514 3.513 3.516 3.516 0 0 1-3.515-3.514 3.516 3.516 0 0 1 3.515-3.514 3.516 3.516 0 0 1 3.514 3.514m21.121 8.428a3.516 3.516 0 0 1-3.515 3.514 3.516 3.516 0 0 1-3.514-3.514 3.516 3.516 0 0 1 3.514-3.514 3.516 3.516 0 0 1 3.515 3.514"/></g></svg>