<svg xmlns="http://www.w3.org/2000/svg" xmlns:xlink="http://www.w3.org/1999/xlink" viewBox="0 0 128 128"><defs><linearGradient id="b" x1="102.549%" x2="-2.652%" y1="57.682%" y2="57.682%"><stop offset="0%" stop-color="#9b58ff"/><stop offset="4.571%" stop-color="#891eff"/><stop offset="11.797%" stop-color="#a054ff"/><stop offset="85.095%" stop-color="#a664ff"/><stop offset="93.793%" stop-color="#8f36fb"/><stop offset="100%" stop-color="#9b58ff"/></linearGradient><linearGradient id="c" x1="100%" x2="0%" y1="56.43%" y2="56.43%"><stop offset="0%" stop-color="#fff" stop-opacity=".5"/><stop offset="9.936%" stop-color="#fff" stop-opacity=".9"/><stop offset="52.356%" stop-color="#fff" stop-opacity=".7"/><stop offset="87.648%" stop-color="#fff" stop-opacity=".9"/><stop offset="100%" stop-color="#fff" stop-opacity=".5"/></linearGradient><linearGradient id="h" x1="50%" x2="50%" y1="0%" y2="100%"><stop offset="0%" stop-color="#0174ff"/><stop offset="50.85%" stop-color="#01c2ff"/><stop offset="100%" stop-color="#0056ff"/></linearGradient><filter id="a" width="120.8%" height="117.5%" x="-10.4%" y="-7%" filterUnits="objectBoundingBox"><feOffset dy="2" in="SourceAlpha" result="shadowOffsetOuter1"/><feGaussianBlur in="shadowOffsetOuter1" result="shadowBlurOuter1" stdDeviation="3"/><feColorMatrix in="shadowBlurOuter1" result="shadowMatrixOuter1" values="0 0 0 0 0 0 0 0 0 0 0 0 0 0 0 0 0 0 0.2 0"/><feMerge><feMergeNode in="shadowMatrixOuter1"/><feMergeNode in="SourceGraphic"/></feMerge></filter><filter id="g" width="104.5%" height="122.2%" x="-2.3%" y="-5.6%" filterUnits="objectBoundingBox"><feOffset dy="1" in="SourceAlpha" result="shadowOffsetOuter1"/><feColorMatrix in="shadowOffsetOuter1" values="0 0 0 0 1 0 0 0 0 1 0 0 0 0 1 0 0 0 0.3 0"/></filter><filter id="j" width="140%" height="140%" x="-20%" y="-20%" filterUnits="objectBoundingBox"><feOffset dx="-2" dy="-3" in="SourceAlpha" result="shadowOffsetInner1"/><feComposite in="shadowOffsetInner1" in2="SourceAlpha" k2="-1" k3="1" operator="arithmetic" result="shadowInnerInner1"/><feColorMatrix in="shadowInnerInner1" values="0 0 0 0 0.607506793 0 0 0 0 0 0 0 0 0 1 0 0 0 0.5 0"/></filter><path id="e" d="M65 99a1 1 0 0 1 1 1v7a1 1 0 1 1-2 0v-7a1 1 0 0 1 1-1m4 0a1 1 0 0 1 1 1v7a1 1 0 1 1-2 0v-7a1 1 0 0 1 1-1m4 0a1 1 0 0 1 1 1v7a1 1 0 1 1-2 0v-7a1 1 0 0 1 1-1m4 0a1 1 0 0 1 1 1v7a1 1 0 1 1-2 0v-7a1 1 0 0 1 1-1m4 0a1 1 0 0 1 1 1v7a1 1 0 1 1-2 0v-7a1 1 0 0 1 1-1m4 0a1 1 0 0 1 1 1v7a1 1 0 1 1-2 0v-7a1 1 0 0 1 1-1"/><path id="i" d="M11.75 107a3.75 3.75 0 1 0 0-7.5 3.75 3.75 0 0 0 0 7.5"/><radialGradient id="d" cx="48.239%" cy="19.103%" r="78.654%" fx="48.239%" fy="19.103%" gradientTransform="matrix(0 1 -.78346 0 .632 -.291)"><stop offset="0%" stop-color="#e6b3ff"/><stop offset="100%" stop-color="#72a3ff"/></radialGradient></defs><g fill="none" fill-rule="evenodd"><g filter="url(#a)" transform="translate(16 7)"><path fill="url(#b)" d="M16 0h64c8.837 0 16 7.163 16 16v88H0V16C0 7.163 7.163 0 16 0"/><path fill="url(#c)" d="M10 80h76c5.523 0 10 4.477 10 10v13H0V90c0-5.523 4.477-10 10-10"/><path fill="#fff" fill-opacity=".5" fill-rule="nonzero" d="M86 80c5.523 0 10 4.477 10 10v13H0V90c0-5.523 4.477-10 10-10zm-76 1a9 9 0 0 0-9 9v12h94V90a9 9 0 0 0-8.735-8.996L86 81z"/><path fill="url(#d)" d="M10.5 93h75c5.799 0 10.5 4.701 10.5 10.5S91.299 114 85.5 114h-75C4.701 114 0 109.299 0 103.5S4.701 93 10.5 93"/><path fill="#003d9c" fill-opacity=".2" fill-rule="nonzero" d="M85.5 93c5.799 0 10.5 4.701 10.5 10.5S91.299 114 85.5 114h-75C4.701 114 0 109.299 0 103.5S4.701 93 10.5 93zm0 1h-75a9.5 9.5 0 0 0 0 19h75a9.5 9.5 0 0 0 0-19"/><use xlink:href="#e" fill="#000" filter="url(#g)"/><use xlink:href="#e" fill="url(#h)"/><use xlink:href="#i" fill="#f076ff"/><use xlink:href="#i" fill="#000" filter="url(#j)"/><path fill="#a50aff" fill-rule="nonzero" d="M11.75 99.5a3.75 3.75 0 1 1 0 7.5 3.75 3.75 0 0 1 0-7.5m0 1a2.75 2.75 0 1 0 0 5.5 2.75 2.75 0 0 0 0-5.5"/></g><g fill="#fff" fill-rule="nonzero"><path d="M64 31c11.598 0 21 9.402 21 21s-9.402 21-21 21-21-9.402-21-21 9.402-21 21-21m0 2.049c-10.466 0-18.951 8.485-18.951 18.951S53.534 70.951 64 70.951 82.951 62.466 82.951 52 74.466 33.049 64 33.049m0 9.22c5.375 0 9.732 4.356 9.732 9.731S69.375 61.732 64 61.732 54.268 57.375 54.268 52s4.357-9.732 9.732-9.732M61 49v1h-1a1 1 0 0 0-1 1v5a1 1 0 0 0 1 1h8a1 1 0 0 0 1-1v-5a1 1 0 0 0-1-1h-1v-1a3 3 0 0 0-6 0m5 0v1h-4v-1a2 2 0 1 1 4 0"/><path d="M64.256 65.83v1.536h-.512v-1.537zm2.398-.255.266 1.513-.504.089-.267-1.513zm-5.308 0 .505.089-.267 1.513-.504-.09zm7.625-.667.525 1.444-.481.175-.526-1.444zm-9.942 0 .482.175-.526 1.444-.481-.175zm12.107-1.06.769 1.331-.444.256-.768-1.33zm-14.272 0 .443.257-.768 1.33-.444-.256zm16.221-1.419.988 1.177-.392.33-.988-1.178zm-18.17 0 .392.33-.988 1.177-.392-.33zm19.843-1.736 1.178.988-.33.392-1.177-.988zm-21.516 0 .329.392-1.177.988-.33-.392zm22.863-2 1.33.768-.256.444-1.33-.769zm-24.21 0 .257.443-1.331.769-.256-.444zm25.188-2.204 1.444.526-.175.481-1.444-.525zm-26.166 0 .175.482-1.444.525-.175-.481zm26.747-2.34 1.513.267-.09.504-1.512-.266zm-27.328 0 .09.505-1.514.266-.089-.504zm29.03-2.405v.512h-1.537v-.512zm-29.195 0v.512h-1.537v-.512zm28.917-2.664.089.504-1.513.267-.09-.505zm-30.176 0 1.513.266-.089.505-1.513-.267zm29.44-2.576.175.481-1.444.526-.175-.482zm-28.704 0 1.444.525-.175.482-1.444-.526zm27.531-2.409.256.444-1.33.768-.257-.443zm-26.358 0 1.33.769-.256.443-1.33-.768zm24.785-2.168.33.392-1.178.988-.329-.392zm-23.212 0 1.177.988-.33.392-1.177-.988zm21.287-1.863.392.33-.988 1.177-.392-.33zm-19.362 0 .988 1.178-.392.329-.988-1.177zm17.142-1.5.444.257-.769 1.33-.443-.256zm-14.922 0 .768 1.331-.443.257-.769-1.331zm12.476-1.09.481.174-.525 1.444-.482-.175zm-10.03 0 .526 1.443-.482.175-.525-1.444zm7.431-.65.504.088-.266 1.513-.505-.089zm-4.832 0 .267 1.512-.505.09-.266-1.514zm2.672-.19v1.537h-.512v-1.537z"/></g></g></svg>