<svg xmlns="http://www.w3.org/2000/svg" viewBox="0 0 16 16"><path fill="currentColor" d="m4.447 1 .002.004L.008 3.508 4 5.986 0 9.004 4.45 11.5 8 9.01 4 6l4-2.492 4 2.506-1.736 1.3A5 5 0 0 1 12 7a5 5 0 0 1 1.793.338L12 5.996l3.99-2.49L11.55 1 8 3.492zM12 8a4 4 0 0 0-4 4 4 4 0 0 0 4 4 4 4 0 0 0 4-4 4 4 0 0 0-4-4m3.97.967.02.03.01-.007zm-1.77.295a3.5 3.5 0 0 1 .433.422l.002.002a3.5 3.5 0 0 1 .713 1.294 4 4 0 0 1 .105.438 4 4 0 0 1 .041.46 4 4 0 0 0-.043-.458 3 3 0 0 0-.105-.438 4 4 0 0 0-.159-.416l-3.18 3.635-.345.406-.39-.375L9.77 12.73a.53.53 0 0 1 0-.72.53.53 0 0 1 .718 0l1.127 1.127 3.018-3.453a3.6 3.6 0 0 0-.434-.422zm-6.987 1.3-2.764 1.94-.888-.498v.371L8 15l.006-.002A5 5 0 0 1 7 12a5 5 0 0 1 .213-1.438" color="#d3dae3"/></svg>