<svg xmlns="http://www.w3.org/2000/svg" xmlns:xlink="http://www.w3.org/1999/xlink" fill="none" viewBox="0 0 24 24"><defs><path id="a" d="M18.337 13.164c.081-.314.168-.623.211-.943.13-.976-.026-1.911-.363-2.825a1.2 1.2 0 0 0-.105-.219c-.167-.262-.465-.271-.638-.012a1.8 1.8 0 0 0-.173.375c-.323.886-.751 1.71-1.424 2.386a6.2 6.2 0 0 1-1.171.92c.078-.312.219-.571.336-.82.461-.98.697-2.013.84-3.074.12-.892.138-1.792-.098-2.665-.43-1.594-1.37-2.743-3.025-3.148-1.672-.41-3.076.096-4.198 1.392-.309.356-.592.734-.9 1.091A4.7 4.7 0 0 1 5.754 6.94c-.222.087-.445.077-.672.08-.195 0-.392.001-.575.077-.559.229-.683.922-.234 1.397.428.454.993.632 1.595.73.735.118 1.414-.12 2.103-.295.653-.166 1.303-.343 1.954-.515.117-.03.268-.084.34.01.064.084-.031.216-.085.314-.158.295-.408.5-.68.684-.695.467-1.434.867-2.084 1.4-1.24 1.019-2.073 2.285-2.27 3.903-.23 1.88.352 3.52 1.591 4.923.816.924 1.808 1.623 2.989 1.991 2.276.71 4.4.382 6.318-1.063 1.965-1.483 2.987-3.507 3.309-5.913.056-.418.08-.844.022-1.267-.07-.518-.372-.649-.793-.347q-.09.064-.183.12c-.01.006-.029-.002-.062-.005M7.219 7.037l.061-.071c.518-.41 1.028-.809 1.446-1.362.114.946.618 1.588 1.47 1.983-.172.07-.31.111-.45.142-1.079.239-2.141.55-3.233.727a1.95 1.95 0 0 1-1.456-.307c-.224-.152-.245-.307-.068-.483.127-.066.267-.049.402-.064q.368-.039.734-.087c.39-.052.715-.261 1.051-.441zm6.549 5.437c.073.05.062.096.049.123-.119.238-.143.28-.27.514-.048.073-.122.057-.17.024a6 6 0 0 0-.472-.292 22 22 0 0 1-1.481-.964.26.26 0 0 1-.118-.198c-.055-.393-.117-.785-.182-1.207.337.247.647.485.968.71.586.408 1.135.823 1.676 1.29m3.912-1.793c.082.082.07.168.08.247a4.9 4.9 0 0 1-.565 2.966 3 3 0 0 1-.222.344c-.194.244-1.635 1.877-1.491 1.982.162.151 2.038-1.202 2.178-1.395.278-.237.508-.605.803-.82.036-.027.076-.082.124-.037.024.022.032.075.029.112-.03.323-.046.65-.1.969-.166.954-.525 1.842-1.011 2.672-.927 1.58-2.211 2.737-4.014 3.229-.795.216-1.607.197-2.422.122a4.7 4.7 0 0 1-2.384-.895c-.105-.076-.146-.154-.14-.282.023-.473.076-.94.227-1.391.157-.473.353-.927.568-1.379a5.6 5.6 0 0 1 1.03-1.503c.742-.766 1.691-1.14 2.705-1.367.573-.128 1.144-.287 1.665-.533a5.85 5.85 0 0 0 2.223-1.856c.274-.372.509-.765.717-1.184m-3.59 1.505c-.98-.788-1.994-1.42-2.937-2.15-.178-.139-.285-.63-.189-.84.141-.306.245-.617.183-.965-.097-.547-.432-.913-.906-1.147-.668-.328-1.009-.854-1.099-1.583a.62.62 0 0 1 .134-.512 3.12 3.12 0 0 1 3.497-.988c1.406.512 2.115 1.608 2.29 3.043.22 1.795-.314 3.463-.974 5.141zm-5.105 2.052c.388-.692.77-1.38 1.22-2.028.036-.052.082-.144.12-.142.285.016.59-.057.85.095.273.16.523.359.798.55-1.037.448-2.003 1-2.988 1.525m-1.205-.372-.027-.017.728-2.768a.17.17 0 0 1 .09-.107c.233-.13.449-.288.72-.39.072.31.138.609.21.907.026.107-.013.185-.079.266q-.318.4-.632.805zm2.757-4.202.184.663c.02.072.021.118-.082.121-.308.01-.616.03-.923.051-.063.005-.11.005-.136-.064-.03-.083.04-.095.084-.12.3-.18.568-.403.873-.65z"/><path id="b" d="M14.09 12.186c-.98-.788-1.994-1.42-2.937-2.15-.178-.139-.285-.63-.189-.84.141-.306.245-.617.183-.965-.097-.547-.432-.913-.906-1.147-.668-.328-1.009-.854-1.099-1.583a.62.62 0 0 1 .134-.512 3.12 3.12 0 0 1 3.497-.988c1.406.512 2.115 1.608 2.29 3.043.22 1.795-.314 3.463-.974 5.141zm3.67-1.258c-.01-.079.002-.165-.08-.246-.208.42-.443.812-.717 1.184a5.84 5.84 0 0 1-2.223 1.856c-.52.246-1.092.405-1.665.534-1.014.226-1.963.6-2.705 1.366-.428.44-.763.943-1.03 1.503-.215.452-.41.907-.568 1.379-.15.45-.204.918-.226 1.391-.007.128.034.206.139.282a4.7 4.7 0 0 0 2.384.895c.815.075 1.627.095 2.422-.122 1.803-.492 3.087-1.649 4.014-3.23.486-.83.845-1.717 1.01-2.671.055-.32.07-.646.1-.97.004-.037-.004-.089-.028-.11-.048-.046-.088.009-.124.035-.295.216-.525.584-.803.82-.14.194-2.016 1.547-2.178 1.396-.144-.105 1.297-1.738 1.491-1.982.075-.099.161-.23.222-.344a4.88 4.88 0 0 0 .565-2.966m-3.992 1.546c.073.05.062.096.049.123-.119.238-.143.28-.27.514-.048.073-.122.057-.17.024a6 6 0 0 0-.472-.292 22 22 0 0 1-1.481-.964.26.26 0 0 1-.118-.198c-.055-.393-.117-.785-.182-1.207.337.247.647.485.968.71.586.408 1.135.823 1.676 1.29m-4.783 1.764c.388-.692.77-1.38 1.22-2.028.036-.052.082-.144.12-.142.285.016.59-.057.85.095.273.16.523.359.798.55-1.037.448-2.003 1-2.988 1.525m-1.232-.389.026.017 1.011-1.304q.314-.405.632-.805c.066-.08.105-.159.079-.266-.072-.298-.138-.597-.21-.908-.271.103-.487.262-.72.39a.17.17 0 0 0-.09.108zm2.784-4.185.184.663c.02.072.021.118-.082.121-.308.01-.616.03-.923.051-.063.005-.11.005-.136-.064-.03-.083.04-.095.084-.12.3-.18.568-.403.873-.65z"/><path id="c" d="m7.22 7.037.06-.071c.518-.41 1.028-.809 1.446-1.362.114.946.618 1.588 1.47 1.983-.172.07-.31.111-.45.142-1.079.239-2.141.55-3.233.727a1.95 1.95 0 0 1-1.456-.307c-.224-.152-.245-.307-.068-.483.127-.066.267-.049.402-.064q.368-.039.734-.087c.39-.052.715-.261 1.051-.441l.043-.038"/></defs><g fill="#f9695e" data-iconColor="Duc"><use xlink:href="#a"/><use xlink:href="#b"/><use xlink:href="#c"/><path d="m7.22 7.037-.018.017.018.018.018-.02zm.06-.071-.015-.02-.003.004zm1.446-1.362.024-.003-.007-.06-.036.049zm1.47 1.983.01.022.051-.02-.05-.024zm-.45.142-.006-.024zm-3.233.727-.004-.024zm-1.456-.307.014-.02zm-.068-.483-.012-.023-.005.005zm.402-.064-.002-.024zm.734-.087.004.025zm1.051-.441.012.022.004-.004zm.043-.038.017-.017-.016-.017-.018.016zm6.549 5.438-.016.019.002.002zm.049.123-.022-.011zm-.27.514.021.013.001-.002zm-.17.024.013-.02zm-.472-.292-.012.021zm-1.481-.964-.014.02zm-.118-.198.024-.004zm-.182-1.207.015-.02-.048-.035.01.058zm.968.71-.014.02zm5.668-.256-.024.003zm-.565 2.966-.021-.011zm-.222.344.02.016zm-1.491 1.982.016-.018-.002-.002zm2.178-1.395-.016-.02-.003.005zm.803-.82.015.02v-.001zm.124-.037-.017.018zm.029.112.024.002zm-.1.969.023.004zm-1.011 2.672.02.012zM13.49 20.95l-.007-.024zm-2.422.122.002-.025zm-2.384-.895-.015.02zm-.14-.282.025.002zm.227-1.391-.024-.008zm.568-1.379-.022-.01zm1.03-1.503.017.017zm2.705-1.367.005.024zm1.665-.533-.01-.022zm2.223-1.856.02.015zm-2.873.32-.015.019.032-.036zm-2.937-2.15-.015.02zm-.189-.84-.022-.01zm.183-.965.024-.004zm-.906-1.147-.011.022zM9.142 5.501l.025-.003zm.134-.512-.02-.015zm3.497-.988.009-.023zm2.29 3.043.025-.003zm-.974 5.141-.022-.009-.006.015.011.012zm-5.104 2.053-.022-.012-.02.037h.042zm1.22-2.028.02.014zm.12-.142v-.024zm.85.095.013-.02zm.798.55.01.023.04-.018-.036-.025zm-2.988 1.525v.028l.012-.006zm-1.232-.39-.024-.006-.004.017.014.01zm.728-2.767-.023-.006zm.09-.107-.01-.022zm.72-.39.025-.006-.007-.027-.026.01zm.21.907-.024.006zm-.079.266-.019-.015zm-.632.805-.019-.015zm1.747-2.898.023-.007-.048.007zm.184.663.024-.006zm-.082.121-.001-.024zm-.923.051-.002-.024zm-.136-.064-.023.009zm.084-.12.012.02zm.873-.65.015.018.01-.007v-.012zm7.143 1.017.018-.018-.024-.024-.016.03zm-9.9 3.184-.014.02.019.013.014-.018zm-.542-6.813.03-.036.03-.035-.036-.032-.03.035-.031.035zm.058-.068c.517-.41 1.029-.81 1.45-1.366l-.04-.03c-.416.55-.923.947-1.44 1.358zm1.406-1.378c.115.955.625 1.604 1.484 2.002l.02-.044C9.362 7.173 8.863 6.538 8.75 5.6zm1.485 1.957a2.6 2.6 0 0 1-.447.14l.01.049c.142-.031.282-.072.455-.144zm-.447.14c-1.08.24-2.14.551-3.231.728l.007.048c1.094-.177 2.16-.489 3.235-.727zm-3.231.728c-.518.084-1-.007-1.438-.303l-.027.04c.448.304.943.397 1.472.311zM5.07 8.129c-.11-.075-.165-.146-.174-.216-.01-.068.023-.144.11-.23l-.035-.035c-.091.09-.137.181-.124.272.013.09.081.172.196.25zM5 7.687a.5.5 0 0 1 .188-.048q.05-.004.101-.005.053-.003.104-.008l-.005-.048-.1.007q-.053.001-.104.005a.5.5 0 0 0-.207.054zm.393-.06q.368-.04.735-.087l-.007-.049q-.365.048-.733.087zm.735-.087c.394-.054.725-.266 1.059-.445l-.024-.043c-.338.182-.658.387-1.042.44zm1.063-.448.021-.019.022-.019-.033-.036-.02.018-.022.02zm.01-.039.034-.034zm6.552 5.442c.034.022.044.041.047.054a.05.05 0 0 1-.006.037l.044.022a.1.1 0 0 0 .01-.07q-.009-.043-.067-.084zm.041.09c-.119.238-.143.28-.269.514l.043.023c.126-.234.15-.276.27-.514zm-.268.512c-.02.03-.043.04-.066.041a.13.13 0 0 1-.071-.023l-.027.04a.17.17 0 0 0 .1.032.13.13 0 0 0 .105-.063zm-.137.018a6 6 0 0 0-.473-.293l-.024.042c.226.13.25.145.47.292zm-.473-.293a22 22 0 0 1-1.48-.963l-.027.04c.484.336.974.67 1.483.965zm-1.479-.963a.3.3 0 0 1-.075-.077.3.3 0 0 1-.033-.105l-.049.007a.3.3 0 0 0 .04.123q.031.052.089.092zm-.108-.182c-.055-.393-.117-.785-.181-1.207l-.049.007c.064.423.127.814.181 1.207zm-.22-1.184c.336.247.647.486.968.71l.028-.04c-.32-.223-.63-.461-.967-.71zm.968.71a20 20 0 0 1 1.674 1.29l.032-.037a20 20 0 0 0-1.678-1.293zm5.658-.272a4.86 4.86 0 0 1-.562 2.952l.043.023c.5-.93.695-1.92.568-2.98zm-.562 2.952a3 3 0 0 1-.22.34l.039.03c.076-.1.162-.231.224-.347zm-.22.34c-.048.06-.174.208-.335.397-.16.189-.354.42-.537.646s-.357.448-.476.62q-.09.13-.132.218a.3.3 0 0 0-.026.075c-.003.02-.002.046.02.06l.028-.039c.002.002-.002.002 0-.013a.3.3 0 0 1 .022-.062 2 2 0 0 1 .129-.211c.117-.17.29-.392.473-.618s.377-.455.537-.644.287-.337.335-.398zm-1.49 2.015q.03.022.069.018a.4.4 0 0 0 .09-.021q.107-.037.26-.12c.201-.11.456-.271.71-.443s.507-.355.705-.507q.151-.115.25-.2a1 1 0 0 0 .132-.126l-.04-.029a1 1 0 0 1-.123.118c-.064.054-.15.122-.248.198-.198.152-.45.334-.704.505a9 9 0 0 1-.706.44q-.152.082-.25.117a.3.3 0 0 1-.08.019q-.029 0-.03-.005zm2.212-1.395c.141-.12.27-.272.398-.42.129-.149.258-.293.404-.399l-.03-.04c-.15.11-.282.258-.411.407-.13.149-.255.298-.392.415zm.802-.819.029-.024.025-.02a.03.03 0 0 1 .019-.005q.006 0 .02.011l.033-.036a.1.1 0 0 0-.05-.023.1.1 0 0 0-.045.011.2.2 0 0 0-.034.025l-.026.022zm.093-.038a.1.1 0 0 1 .017.037.2.2 0 0 1 .003.055l.049.004a.2.2 0 0 0-.004-.07.12.12 0 0 0-.032-.062zm.02.091c-.03.326-.045.65-.1.967l.048.009c.056-.32.071-.649.101-.971zm-.1.967c-.165.95-.522 1.836-1.008 2.664l.043.025c.488-.832.847-1.723 1.013-2.68zm-1.008 2.664c-.924 1.576-2.203 2.728-3.999 3.218l.013.047c1.81-.494 3.1-1.655 4.029-3.24zm-3.999 3.218c-.79.216-1.598.197-2.413.121l-.004.049c.816.075 1.631.095 2.43-.123zm-2.413.121a4.66 4.66 0 0 1-2.372-.89l-.029.04a4.7 4.7 0 0 0 2.397.899zm-2.372-.89a.3.3 0 0 1-.104-.112.3.3 0 0 1-.025-.148l-.049-.003a.34.34 0 0 0 .03.173.4.4 0 0 0 .12.13zm-.129-.26c.022-.472.076-.937.225-1.385l-.047-.016c-.15.454-.204.924-.227 1.398zm.225-1.385c.157-.471.353-.925.567-1.376l-.044-.021c-.215.452-.411.908-.57 1.381zm.567-1.376a5.5 5.5 0 0 1 1.025-1.497l-.035-.034c-.43.442-.766.947-1.034 1.51zm1.025-1.497c.738-.76 1.682-1.133 2.693-1.36l-.01-.047c-1.017.227-1.97.602-2.718 1.373zm2.693-1.36c.574-.128 1.147-.288 1.67-.535l-.02-.044c-.519.244-1.088.404-1.66.532zm1.67-.535a5.9 5.9 0 0 0 2.233-1.863l-.04-.03a5.8 5.8 0 0 1-2.213 1.849zm-.645-1.577c-.49-.395-.99-.75-1.483-1.098s-.983-.688-1.454-1.052l-.03.038c.472.366.962.707 1.456 1.054s.992.702 1.48 1.096zm-2.937-2.15a.4.4 0 0 1-.111-.152 1.1 1.1 0 0 1-.104-.469q0-.116.033-.19l-.044-.02a.5.5 0 0 0-.038.21 1.1 1.1 0 0 0 .109.49.5.5 0 0 0 .125.17zm-.181-.81c.141-.308.248-.625.184-.98l-.048.008c.06.34-.04.646-.181.951zm.184-.98c-.099-.557-.44-.928-.92-1.164l-.021.043c.469.231.797.591.893 1.13zm-.92-1.164c-.659-.325-.995-.844-1.084-1.565l-.049.006c.091.736.436 1.27 1.112 1.602zM9.167 5.498a.7.7 0 0 1 .01-.266.6.6 0 0 1 .118-.227l-.038-.03a.65.65 0 0 0-.128.245.8.8 0 0 0-.01.284zm.128-.493a3.09 3.09 0 0 1 3.47-.981l.017-.046a3.14 3.14 0 0 0-3.525.996zm3.47-.981c1.396.508 2.1 1.596 2.274 3.023l.049-.006c-.176-1.442-.89-2.547-2.306-3.063zm2.274 3.023c.219 1.789-.312 3.45-.972 5.13l.045.017c.66-1.679 1.196-3.351.976-5.153zm-.967 5.156.035-.034zM9.006 14.25c.388-.693.77-1.38 1.219-2.026l-.04-.028c-.45.649-.834 1.338-1.222 2.03zm1.219-2.026.029-.045.03-.046a.2.2 0 0 1 .027-.032l.012-.008.003-.05c-.02 0-.036.01-.048.021a.3.3 0 0 0-.034.04l-.032.049-.028.043zm.098-.131q.109.005.219 0 .11-.004.217-.004a.8.8 0 0 1 .404.095l.025-.042a.85.85 0 0 0-.428-.102q-.11 0-.22.004a3 3 0 0 1-.214 0zm.84.091c.271.16.52.357.796.55l.028-.04c-.273-.191-.526-.391-.8-.552zm.8.507c-1.038.448-2.005 1.001-2.99 1.526l.024.043c.986-.525 1.95-1.077 2.986-1.524zm-2.978 1.523v.049zm-1.209-.36.729-2.766-.047-.013-.729 2.767zm.729-2.766c.011-.043.039-.07.079-.093l-.024-.043a.2.2 0 0 0-.102.123zm.079-.093c.116-.064.23-.137.345-.205a2.4 2.4 0 0 1 .371-.184l-.017-.046a2.5 2.5 0 0 0-.378.187c-.119.07-.229.14-.345.205zm.684-.406c.07.31.137.61.209.908l.048-.012c-.072-.298-.138-.596-.21-.907zm.209.908c.023.096-.01.166-.074.245l.038.03c.068-.083.112-.169.084-.287zm-.074.245q-.319.4-.632.805l.039.03c.21-.269.418-.538.632-.805zm1.11-2.072.185.664.047-.013-.185-.664zm.185.664.009.044q.002.018-.003.025c-.003.007-.016.02-.066.02l.001.05c.054-.002.093-.014.11-.049a.1.1 0 0 0 .007-.05.3.3 0 0 0-.011-.053zm-.06.09c-.309.009-.617.03-.924.05l.003.05c.308-.021.615-.042.922-.051zm-.924.05a.2.2 0 0 1-.072-.002c-.015-.006-.028-.016-.039-.045l-.046.017q.023.059.069.074c.028.01.061.008.091.005zm-.111-.047a.1.1 0 0 1-.005-.037.03.03 0 0 1 .012-.018.1.1 0 0 1 .029-.017l.037-.02-.025-.042-.034.018a.2.2 0 0 0-.04.024.1.1 0 0 0-.027.045.1.1 0 0 0 .007.064zm.073-.091c.303-.18.572-.406.876-.653l-.03-.038c-.306.248-.572.47-.87.649zm.885-.672h-.049zm7.224 1.261c-.01-.073.002-.171-.087-.26l-.035.034c.074.074.063.147.073.232zm-.127-.254c-.208.418-.441.81-.715 1.18l.04.03a8 8 0 0 0 .72-1.188zM7.74 13.869l.014.009.013.008.027-.04-.014-.01-.013-.008zm.06.012 1.01-1.304-.038-.03-1.01 1.304zm10.538-.717h-.05l.097.013zm.211-.943.049.006zm-.363-2.825-.046.017zm-.105-.219.041-.026zm-.638-.012-.041-.027zm-.173.375-.046-.017zm-1.424 2.386.035.035zm-1.171.92-.048-.012-.029.116.102-.062zm.336-.82-.044-.022zm.84-3.074-.048-.006zm-.098-2.665-.047.013zm-3.025-3.148.011-.048zM8.529 4.53l-.037-.032zm-.9 1.091-.037-.031zM5.754 6.94l.018.045zm-.672.08v.048zm-.575.077.018.045zm-.234 1.397.035-.034zm1.595.73.008-.05zm2.103-.295.012.047zm1.954-.515.013.048zm.34.01-.039.03zm-.085.314-.043-.023zm-.68.684.027.04zm-2.084 1.4.031.038zm-2.27 3.903.048.006zm1.591 4.923-.036.033zm2.989 1.991.015-.047zm6.318-1.063.03.039zm3.309-5.913.048.006zm.022-1.267-.048.007zm-.793-.347-.029-.04zm-.183.12-.026-.042zm-.062-.005.004-.05-.053-.005v.055zm-.657-2.483v-.049h-.119l.084.084zm0 0 .044.022.035-.07h-.079zm-9.9 3.185v.05h.161l-.134-.09zm0 0-.04-.03-.06.08h.1zm9.9-3.184-.034.034.048.048.03-.06zm-9.9 3.184.027-.04-.038-.026-.028.036zm10.604-.69c.081-.312.169-.624.212-.949l-.096-.013c-.043.317-.129.622-.21.938zm.213-.949c.131-.985-.027-1.929-.366-2.847l-.092.033c.335.908.49 1.835.36 2.801zM18.23 9.38a1.2 1.2 0 0 0-.11-.23l-.082.053q.06.098.1.21zm-.11-.23c-.09-.141-.22-.22-.357-.223s-.269.07-.363.211l.081.055c.08-.119.183-.17.28-.168s.2.058.277.179zm-.72-.012c-.08.119-.131.257-.178.385l.092.034a1.7 1.7 0 0 1 .167-.364zm-.178.385c-.322.883-.747 1.699-1.412 2.369l.069.069c.68-.684 1.11-1.514 1.435-2.404zm-1.412 2.369a6.2 6.2 0 0 1-1.163.912l.051.084a6.3 6.3 0 0 0 1.181-.927zm-1.09.966c.076-.307.214-.559.333-.812l-.088-.042c-.116.247-.26.512-.34.83zm.333-.812c.464-.985.701-2.024.845-3.087l-.097-.013c-.143 1.058-.378 2.085-.836 3.058zM15.9 8.96c.12-.896.139-1.803-.1-2.685l-.094.026c.234.864.217 1.757.097 2.646zm-.1-2.685c-.433-1.607-1.385-2.773-3.06-3.183l-.024.095c1.634.4 2.564 1.533 2.99 3.114zm-3.06-3.183c-.844-.206-1.623-.183-2.333.058-.71.24-1.348.696-1.914 1.35l.074.064c.556-.643 1.18-1.088 1.871-1.321.69-.234 1.45-.258 2.278-.056zM8.492 4.5q-.231.27-.451.546-.22.278-.449.546l.075.063q.23-.27.45-.547t.449-.544zm-.9 1.092a4.66 4.66 0 0 1-1.856 1.303l.036.091a4.76 4.76 0 0 0 1.895-1.33zM5.736 6.894c-.211.083-.424.074-.654.076v.098c.223-.002.458.008.69-.083zm-.654.076c-.193.002-.4.002-.594.081l.037.091c.174-.071.36-.072.558-.074zm-.594.081c-.594.244-.72.98-.251 1.477l.071-.068c-.429-.453-.305-1.104.217-1.318zm-.251 1.477c.44.465 1.017.645 1.623.743l.016-.096c-.598-.097-1.15-.272-1.568-.715zm1.623.743c.748.122 1.44-.12 2.123-.295l-.024-.095c-.695.177-1.361.41-2.083.294zm2.123-.295c.653-.166 1.304-.343 1.955-.514l-.025-.095c-.652.172-1.302.349-1.954.514zm1.955-.514c.062-.017.122-.036.178-.041q.081-.008.11.033l.078-.059c-.051-.068-.129-.078-.197-.072-.066.006-.14.03-.194.044zm.288-.008c.015.02.016.05-.005.103s-.054.104-.084.158l.086.047c.024-.045.065-.109.089-.168.024-.058.04-.135-.008-.199zm-.089.261c-.153.284-.394.484-.665.666l.055.082c.274-.185.532-.396.697-.701zm-.665.666c-.689.464-1.435.868-2.087 1.403l.063.076c.647-.532 1.379-.927 2.079-1.397zm-2.087 1.403c-1.248 1.025-2.089 2.302-2.288 3.935l.097.012c.196-1.603 1.02-2.859 2.254-3.871zm-2.288 3.935c-.231 1.894.356 3.548 1.604 4.962l.073-.065c-1.23-1.395-1.807-3.021-1.58-4.885zM6.7 19.681c.82.929 1.82 1.633 3.01 2.005l.03-.094c-1.172-.365-2.157-1.058-2.967-1.976zm3.01 2.005c2.291.714 4.432.384 6.363-1.071l-.06-.078c-1.904 1.436-4.012 1.76-6.273 1.055zm6.363-1.071c1.977-1.492 3.004-3.529 3.327-5.946l-.097-.013c-.32 2.396-1.336 4.407-3.29 5.88zm3.327-5.946c.057-.42.081-.85.023-1.28l-.097.014c.056.417.033.838-.023 1.253zm.023-1.28c-.036-.264-.133-.448-.294-.519-.161-.07-.362-.015-.577.14l.057.079c.206-.148.368-.178.48-.129.114.05.203.19.237.443zm-.87-.38q-.088.062-.18.118l.05.084q.095-.058.186-.122zm-.18.118a.03.03 0 0 1 .015-.005h-.004q-.014-.004-.044-.007l-.01.097.038.006.022.002a.1.1 0 0 0 .034-.01zm-.086.037h.098zm-.608-2.532v.098zm-9.9 3.283v-.098zm9.944-3.212-.087-.043zm-.079.013.07-.07zm-9.904 3.12.077.06zm.066-.01-.055.08v.001z" mask="url(#path-1-outside-1_2945_74563)"/><use xlink:href="#a"/><use xlink:href="#b"/><use xlink:href="#c"/></g></svg>