<svg xmlns="http://www.w3.org/2000/svg" viewBox="0 0 64 64"><rect width="56" height="56" x="4" y="5" opacity=".2" ry="11.2"/><rect width="56" height="56" x="4" y="4" fill="#2c4865" ry="11.2"/><path d="M32.123 16c0 .382-.771.027-1.17.088-3.457.536-5.964 3.72-5.951 7.295-.02.515.073 1.076.225 1.639.288 1.07.767 2.052 1.332 2.978 1.285 2.107 2.905 3.91 4.664 5.584.144.138.314.253.498.342a.62.62 0 0 0 .558.014q.277-.123.485-.35a59 59 0 0 0 1.79-1.914c.814-.926 1.59-1.88 2.292-2.902.637-.927 1.205-1.9 1.625-2.957.42-1.05.624-2.133.486-3.272-.23-1.88-.996-3.472-2.367-4.72-1.318-1.198-4.467-3.479-4.467-1.825m-9.957 19a18 18 0 0 0-.687.01q-.78.029-1.55.156c-1.486.244-2.748.889-3.779 1.908-1.76 1.737-2.459 3.811-2.025 6.174.624 3.376 3.807 5.777 7.424 5.75.462.013.98-.04 1.5-.144 1.535-.317 2.841-.974 3.844-2.14.61-.71 1.12-1.478 1.562-2.288.52-.954.954-1.95 1.332-2.955.462-1.217.854-2.46 1.156-3.717.168-.704-.02-1.146-.847-1.389a40 40 0 0 0-3.19-.81c-1.564-.323-3.14-.544-4.74-.555m19.668 0c-1.6.011-3.176.232-4.74.555-1.08.224-2.138.501-3.19.81-.827.243-1.015.685-.847 1.389.302 1.257.694 2.5 1.156 3.717a23 23 0 0 0 1.332 2.955c.442.81.953 1.578 1.562 2.289 1.003 1.165 2.309 1.822 3.844 2.139a7 7 0 0 0 1.5.144c3.617.027 6.8-2.374 7.424-5.75.434-2.363-.265-4.437-2.025-6.174-1.03-1.02-2.293-1.664-3.78-1.908a12 12 0 0 0-1.549-.156 18 18 0 0 0-.687-.01" opacity=".2"/><path fill="#e9ff61" d="M21.55 47.998a7 7 0 0 0 1.5-.144c1.535-.317 2.84-.974 3.842-2.139.61-.71 1.122-1.48 1.563-2.29a23 23 0 0 0 1.332-2.954 31 31 0 0 0 1.157-3.718c.168-.704-.02-1.145-.848-1.388a40 40 0 0 0-3.19-.81c-1.788-.368-3.59-.604-5.427-.546q-.78.03-1.55.157c-1.486.244-2.747.89-3.778 1.909-1.76 1.737-2.46 3.81-2.026 6.172.624 3.376 3.807 5.778 7.424 5.751"/><path fill="#00d1f8" d="M25.003 22.382c0 .515.071 1.077.223 1.64.289 1.07.767 2.05 1.332 2.977 1.285 2.107 2.906 3.91 4.664 5.585.144.138.316.254.5.343a.62.62 0 0 0 .557.013q.276-.122.485-.35a60 60 0 0 0 1.791-1.914 31 31 0 0 0 2.29-2.902c.637-.926 1.207-1.9 1.627-2.957.42-1.05.623-2.134.485-3.273-.23-1.88-.997-3.471-2.368-4.72-1.622-1.474-3.51-2.064-5.636-1.735-3.457.535-5.95 3.719-5.95 7.293"/><path fill="#ff4b4b" d="M42.45 47.998a7 7 0 0 1-1.5-.144c-1.535-.317-2.84-.974-3.842-2.139-.61-.71-1.122-1.48-1.563-2.29a23 23 0 0 1-1.332-2.954 31 31 0 0 1-1.157-3.718c-.168-.704.02-1.145.848-1.388a41 41 0 0 1 3.19-.81c1.788-.368 3.59-.604 5.427-.546q.78.03 1.55.157c1.486.244 2.747.89 3.778 1.909 1.76 1.737 2.46 3.81 2.026 6.172-.624 3.376-3.807 5.778-7.424 5.751"/><path fill="#fff" d="M15.2 4C8.993 4 4 8.994 4 15.2v1C4 9.993 8.994 5 15.2 5h33.6C55.007 5 60 9.994 60 16.2v-1C60 8.993 55.006 4 48.8 4z" opacity=".1"/><path fill="#fff" d="M32.123 15a7.3 7.3 0 0 0-1.17.088c-3.457.536-5.964 3.72-5.951 7.295-.007.17.003.346.02.524.2-3.377 2.628-6.307 5.931-6.819q.598-.091 1.17-.088c1.654.012 3.15.627 4.467 1.824 1.371 1.25 2.137 2.842 2.367 4.721.01.078.013.154.02.23a6 6 0 0 0-.02-1.23c-.23-1.88-.996-3.472-2.367-4.72-1.318-1.198-2.813-1.813-4.467-1.825m-9.957 19a18 18 0 0 0-.687.01q-.78.029-1.55.156c-1.486.244-2.748.889-3.779 1.908-1.554 1.534-2.278 3.33-2.129 5.356.12-1.62.836-3.08 2.13-4.356 1.03-1.02 2.292-1.664 3.779-1.908q.77-.127 1.549-.156a18 18 0 0 1 .687-.01c1.6.011 3.176.232 4.74.555 1.08.224 2.138.501 3.19.81.428.126.681.306.806.547l.041-.158c.168-.704-.02-1.146-.847-1.389a40 40 0 0 0-3.19-.81c-1.564-.323-3.14-.544-4.74-.555m19.668 0c-1.6.011-3.176.232-4.74.555-1.08.224-2.138.501-3.19.81-.827.243-1.015.685-.847 1.389l.04.158c.126-.24.38-.421.807-.547a41 41 0 0 1 3.19-.81c1.564-.323 3.14-.544 4.74-.555q.343-.002.687.01.78.029 1.55.156c1.486.244 2.748.889 3.779 1.908 1.293 1.276 2.01 2.735 2.129 4.356.15-2.026-.575-3.822-2.13-5.356-1.03-1.02-2.292-1.664-3.779-1.908a12 12 0 0 0-1.549-.156 18 18 0 0 0-.687-.01" opacity=".2"/></svg>