<svg xmlns="http://www.w3.org/2000/svg" viewBox="0 0 64 64"><path d="M32 5C16.488 5 4 17.488 4 33s12.488 28 28 28 28-12.488 28-28S47.512 5 32 5m0 16a12 12 0 0 1 12 12 12 12 0 0 1-12 12 12 12 0 0 1-12-12 12 12 0 0 1 12-12" opacity=".2"/><path fill="#858585" d="M32 17a15 15 0 0 0-15 15 15 15 0 0 0 15 15 15 15 0 0 0 15-15 15 15 0 0 0-15-15m0 9a6 6 0 1 1 0 12 6 6 0 0 1 0-12"/><path fill="#e4e4e4" d="M32 4C16.488 4 4 16.488 4 32s12.488 28 28 28 28-12.488 28-28S47.512 4 32 4m0 16a12 12 0 0 1 12 12 12 12 0 0 1-12 12 12 12 0 0 1-12-12 12 12 0 0 1 12-12"/><path fill="#fff" d="M32 4C16.488 4 4 16.488 4 32c0 .113.011.224.018.336C4.369 17.134 16.71 5 32 5s27.63 12.134 27.982 27.336c.007-.112.018-.223.018-.336C60 16.488 47.512 4 32 4M20.05 32.996A12 12 0 0 0 20 34a12 12 0 0 0 .025.5 12 12 0 0 1 .026-.504A12 12 0 0 0 32 45a12 12 0 0 0 11.95-10.996 12 12 0 0 1 .029.592A12 12 0 0 0 44 34a12 12 0 0 0-.05-.996A12 12 0 0 1 32 44a12 12 0 0 1-11.95-11.004" opacity=".2"/><path d="M63.958 45.848A16 16 0 0 1 48 61a16 16 0 0 1-15.958-14.848A16 16 0 0 0 32 47a16 16 0 0 0 16 16 16 16 0 0 0 16-16 16 16 0 0 0-.043-1.152Z" opacity=".2"/><circle cx="48" cy="46" r="16" fill="#ff4d4d"/><path fill="#fff" d="M48 36a10 10 0 0 0-10 10 10 10 0 0 0 10 10 10 10 0 0 0 10-10 10 10 0 0 0-10-10m0 6a4 4 0 0 1 4 4 4 4 0 0 1-4 4 4 4 0 0 1-4-4 4 4 0 0 1 4-4"/></svg>