<svg xmlns="http://www.w3.org/2000/svg" xmlns:xlink="http://www.w3.org/1999/xlink" viewBox="0 0 48 48"><defs><linearGradient id="a" x1="50%" x2="50%" y1="0%" y2="100%"><stop offset="0%" stop-color="#0287fa"/><stop offset="100%" stop-color="#0170d3"/></linearGradient></defs><g fill="none" fill-rule="evenodd" transform="translate(2 2)"><rect width="44" height="44" fill="url(#a)" rx="7.333"/><path fill="#fff" d="M22.122 18.794q5.77-6.083 9.915-6.083c5.122 0 9.274 4.159 9.274 9.289s-4.152 9.289-9.274 9.289q-4.145 0-9.915-6.083-5.768 6.083-9.914 6.083c-5.122 0-9.275-4.159-9.275-9.289s4.153-9.289 9.275-9.289q4.145 0 9.914 6.083M12.1 27.378q2.903 0 7.211-5.256-4.308-5.255-7.211-5.255a5.256 5.256 0 1 0 0 10.51m20.289 0a5.256 5.256 0 0 0 0-10.511q-2.903 0-7.211 5.255 4.309 5.256 7.21 5.256"/></g></svg>