<svg xmlns="http://www.w3.org/2000/svg" viewBox="0 0 32 32"><g fill="#00d6ff" data-iconColor="Earthlyignore" data-themed="true"><path d="m17.45 10.29-3.19 5.48-3.11-5.39Z"/><path d="m17.45 10.29-6.21.09H4.86v-.09L8 4.82h6.3Z"/><path d="m14.26 15.77-3.11 5.47H4.86l-3.11-5.47 3.11-5.48L8 15.58l6.3.19Z"/><path d="M14.26 15.77H8l-3.1-5.48 6.29.09Zm3.19 5.38-2.45.09h-3.85l3.11-5.47 6.2.09Z"/><path d="m20.64 26.53-.09.19h-6.39l-3.1-5.48 3.1-5.38-3 5.38H15l2.37-.09.09.09 3.19 5.29Z"/><path d="M23.65 21.24h-6.2l-.09-.09 3.1-5.47.09.09Z"/><path d="m23.65 21.24-3 5.29-.09-.18-3.1-5.2 6.11-.09Z"/><path d="m26.76 15.68-3.11 5.47-3.1-5.38h-6.2v-.09l3.1-5.39h6.3l3 5.39Z"/><path d="m30 21.15-3.19 5.57h-6.26l3-5.39v-.09l3.11-5.47v-.09h.09Z"/></g></svg>