<svg xmlns="http://www.w3.org/2000/svg" viewBox="0 0 64 64"><path d="M10 56.2v2c0 1.55 1.226 2.8 2.75 2.8h38.5c1.524 0 2.75-1.25 2.75-2.8v-2c0 1.55-1.226 2.8-2.75 2.8h-38.5C11.226 59 10 57.75 10 56.2" opacity=".2"/><path fill="#f58435" d="M54 57.2V6.8C54 5.249 52.774 4 51.25 4h-38.5C11.226 4 10 5.249 10 6.8v50.4c0 1.552 1.226 2.8 2.75 2.8h38.5c1.524 0 2.75-1.248 2.75-2.8"/><path fill="#d6352f" d="M22 24a6 6 0 1 0 6 6h-6zm10 0v4h14v-4zm0 8v4h14v-4zm-16 8v4h24v-4z"/><path fill="#fff" d="M12.75 4C11.226 4 10 5.25 10 6.8v1C10 6.25 11.226 5 12.75 5h38.5C52.774 5 54 6.25 54 7.8v-1C54 5.25 52.774 4 51.25 4z" opacity=".2"/></svg>