<svg xmlns="http://www.w3.org/2000/svg" viewBox="0 0 64 64"><rect width="44" height="56" x="10" y="5" opacity=".2" rx="3" ry="3"/><rect width="44" height="56" x="10" y="4" fill="#e4e4e4" rx="3" ry="3"/><path fill="#4c4c4c" d="M18 46h28v2H18Zm0-6h28v2H18Zm0-6h28v2H18Zm0-6h28v2H18Zm0-6h28v2H18Zm0-6h28v2H18Z"/><path fill="#fff" d="M18 34h14v2H18Zm0-6h28v2H18Zm0-6h28v2H18Zm0-6h28v2H18Z" opacity=".5"/><path fill="#fff" d="M13 4c-1.662 0-3 1.338-3 3v1c0-1.662 1.338-3 3-3h38c1.662 0 3 1.338 3 3V7c0-1.662-1.338-3-3-3z" opacity=".2"/><path d="M5 3C3.338 3 2 4.338 2 6v18c0 1.662 1.338 3 3 3h20l7 7V6c0-1.662-1.338-3-3-3Z" opacity=".2"/><path fill="#ab47bc" d="M5 2C3.338 2 2 3.338 2 5v18c0 1.662 1.338 3 3 3h20l7 7V5c0-1.662-1.338-3-3-3Z"/><path fill="#fff" d="M9 11v6h3l4 4V7l-4 4Z"/><rect width="2" height="6" x="18" y="11" fill="#fff" rx="1" ry="1"/><rect width="2" height="10" x="22" y="9" fill="#fff" rx="1" ry="1"/><path fill="#fff" d="M5 2C3.338 2 2 3.338 2 5v1c0-1.662 1.338-3 3-3h24c1.662 0 3 1.338 3 3V5c0-1.662-1.338-3-3-3z" opacity=".1"/></svg>