<svg xmlns="http://www.w3.org/2000/svg" xmlns:xlink="http://www.w3.org/1999/xlink" viewBox="0 0 96 96"><defs><linearGradient id="b" x1="50%" x2="50%" y1="0%" y2="100%"><stop offset="0%" stop-color="#564a8f"/><stop offset="100%" stop-color="#2b2456"/></linearGradient><linearGradient id="c" x1="50%" x2="50%" y1="0%" y2="100%"><stop offset="0%" stop-color="#fcc50c"/><stop offset="100%" stop-color="#f79305"/></linearGradient><linearGradient id="d" x1="50%" x2="50%" y1="0%" y2="100%"><stop offset="0%" stop-color="#7e70c2"/><stop offset="100%" stop-color="#483d8f"/></linearGradient><linearGradient id="e" x1="50%" x2="50%" y1="0%" y2="100%"><stop offset="0%" stop-color="#fcc50c"/><stop offset="100%" stop-color="#f79305"/></linearGradient><filter id="a" width="127.3%" height="130%" x="-13.6%" y="-15%" filterUnits="objectBoundingBox"><feOffset dy="2" in="SourceAlpha" result="shadowOffsetOuter1"/><feGaussianBlur in="shadowOffsetOuter1" result="shadowBlurOuter1" stdDeviation="2"/><feColorMatrix in="shadowBlurOuter1" result="shadowMatrixOuter1" values="0 0 0 0 0 0 0 0 0 0 0 0 0 0 0 0 0 0 0.2 0"/><feMerge><feMergeNode in="shadowMatrixOuter1"/><feMergeNode in="SourceGraphic"/></feMerge></filter></defs><g fill="none" filter="url(#a)" transform="translate(4 8)"><path fill="url(#b)" d="M87.529 34q.313 1.97.42 4H12.051q.105-2.03.419-4zm-.859-4C82.28 13.865 67.526 2 50 2S17.72 13.865 13.33 30zm.859 16q.313-1.97.42-4H12.051q.105 2.03.419 4zm-.859 4C82.28 66.135 67.526 78 50 78S17.72 66.135 13.33 50z"/><path fill="url(#c)" d="M44 79.802Q42.026 80 40 80C17.909 80 0 62.091 0 40S17.909 0 40 0q2.026 0 4 .198C23.787 2.204 8 19.258 8 40c0 20.741 15.787 37.796 36 39.802"/><path fill="url(#d)" d="M76.161 50C72.136 60.525 61.941 68 50 68c-11.94 0-22.136-7.475-26.161-18z"/><circle cx="73" cy="65" r="15" fill="url(#e)"/><path fill="#fff" d="m71.63 65.873-.575-1.521q-.63-1.615-.687-1.745l-.89-1.985q-.946-2.133-1.819-2.134-1.316 0-2.078 2.468-.557-.204-.557-.594 0-1.15 1.336-2.634 1.337-1.485 2.394-1.485 2.078 0 4.305 5.975l.37.983.427-.686q3.953-6.272 6.662-6.272.705 0 1.65.408l-2.244 2.357q-.445-.13-.631-.13-2.04 0-4.861 4.694l-.538.89.426 1.151q2.45 6.736 4.027 6.736 1.447 0 2.208-2.078.52.333.52.686 0 .927-1.485 2.227-1.485 1.298-2.56 1.298-2.153 0-4.398-6.067l-.52-1.373-.538.946q-3.784 6.495-7.236 6.494-1.299 0-2.208-.649l2.152-2.115q.556.556 1.3.556 2.096 0 4.712-4.23l.965-1.559z"/></g></svg>