<svg xmlns="http://www.w3.org/2000/svg" xmlns:xlink="http://www.w3.org/1999/xlink" viewBox="0 0 96 96"><defs><linearGradient id="b" x1="50%" x2="50%" y1="0%" y2="100%"><stop offset="0%" stop-color="#5eb0ea"/><stop offset="100%" stop-color="#2f6093"/></linearGradient><linearGradient id="c" x1="50%" x2="50%" y1="0%" y2="100%"><stop offset="0%" stop-color="#5eb0ea"/><stop offset="100%" stop-color="#2f6093"/></linearGradient><filter id="a" width="127%" height="128.6%" x="-13.5%" y="-14.3%" filterUnits="objectBoundingBox"><feOffset dy="2" in="SourceAlpha" result="shadowOffsetOuter1"/><feGaussianBlur in="shadowOffsetOuter1" result="shadowBlurOuter1" stdDeviation="2"/><feColorMatrix in="shadowBlurOuter1" result="shadowMatrixOuter1" values="0 0 0 0 0 0 0 0 0 0 0 0 0 0 0 0 0 0 0.2 0"/><feMerge><feMergeNode in="shadowMatrixOuter1"/><feMergeNode in="SourceGraphic"/></feMerge></filter></defs><g fill="none" filter="url(#a)" transform="translate(2 6)"><g transform="translate(13)"><circle cx="38" cy="38" r="38" fill="#3294d8"/><path fill="#77eed9" d="M12.64 27.236c1.492.044-1.259.048.38-.587.104.399-.363.294-.38.587M2.353 38.118c-.344-3.602.429-7.65 1.515-11.236.958-2.823 3.053-8.089 4.66-8.76-.547 1.379 2.16 1.052 2.234-.176 1.687.64.941 2.28 1.99 2.737.526 1.19 2.386.718.28 1.872 1.98-1.56 2.944 1.375.414 1.733-2.189.305-4.602-.04-5.653 2.435.869-1.668 4.273-1.687 2.581-.719.727.42.177.96 1.452 1.486.815-.397 1.088.49-.236.46-.975 1.14-.015-.862-.594-.36.02-.13-.006 1.936-.838.746-.52-.55 1.727-1.392-.128-.583-1.012.908-1.168-.496-1.495.749.026-.209-.98.776-.41 1.233.236.593-2.374-.322-1.891 1.312-1.092-.472-.086.699-.892 1.222.19-.627-.235-.78-.033-1.065.204-.525-.395-.197-.15.497-.025.349-.182.444.245.801-.019 0 .182 1.063-.26 1.074-1.908.811-3.006 2.767-1.793 4.99-.196.91-.746-.031-.998-.448m12.903 15.658c-.487 1.812 2.248-.416 0 0M26.57 7.23c-1.766-.274-.5.07-1.212 1.187-.082 1.035-.799.927-1.286 1.6-.78.32-.224-.842-.92.05.115.352-.482 1.023-1.281 1.083 1.143.569-.087.753.518 1.227-.5-.208.216.685-.586.553-.193 1.022.11.804.018 1.59-.992.57.611.808-.612 1.098 1.516.083-1.712.984-.737-.05-.544.448-.607-.422-.75-.425-.254-.067-.867.838-1.542.444.426-.571-1.01-.312-.726-.788.01.2-.832-1.032-.798-.958-.41-.168-.744-.518-.828-.766.578-.627.651-.314-.082-.352 1.045-.985-1.057.594-.245-.722-.573-.23.206-.56-.84-.61-.52-.235 2.97-2.042.541-.754-1.718.871.895-.945 1.437-1.47C19.789 6.872 23.42 4.9 27.1 3.89c-1.798 1.254-.514 1.109-.144.987-1.126 1.063 1.845-1.317 2.301-.533-.566.467-.57.87-.858 1.478-.352.492-1.612 1.012-1.782 1.323-.06-.152-.495-.02-.048.085M20.48 55.149c-2.548.272-2.625-1.394-5.347-1.434 1.123-2.26-2.15-2.905-3.44-3.159-.982-.16-.777-1.565-2.334-1.109 1.435-.435-.309-1.675-1.346-.774-1.88-.839-2.336-.634-3.246-.715 1.219-.483-2.723-1.756-.426-.454-.742 2.865 2.372 6.65 3.817 9.432 2.488 3.162 5.603 7.962 9.314 8.622 1.853-.09 3.074-1.45 3.253-3.41-.958-2.681 3.06-3.361 1.738-5.93-.403-.752-1.06-1.33-1.983-1.07m39.27-30.253-.04.378zm14.015 12.566c-.053 1.771-.007 7.082-1.219 2.79-.912-1.57.284-4.218-1.704-2.805-1.865-1.122 1.195-.763-.994-1.24-.842-1.857-3.048-.929-4.662-1.298-1.284-.862-3.27.066-3.956-2.059-1.904-.932-.81 1.228-.306 2.023.543 1.664.702-1.14.763 1.003 1.842.411 2.177-2.032 3.158.261 1.737 1.063-.996 3.256-2.491 3.51-1.052 1.06-5.908 3.367-4.893.342-1.399-2.094-2.307-4.422-3.954-6.274-.982-1.248 1.848-4.996-.411-4.38-1.402-.264-2.2.078-3.22-.449-.495-.85-.364-.6-.271-1.32.02.026-.004-1.06-1.044-.9-.348.495-.542.635-.928.217.215.43-.34 1.017.538 1.381-.409-.081-.477 1.304-1.327.158 1.54-.18-.597-.49-.87-1.422.51-1.331-1.641-1.693-2.207-2.824-.64-.59-1.961-.166-.46 1.312.893.951 3.145 1.56 1.294 1.856.376 1.416-.571 1.1-.572-.17-.97-.36-2.226-2.347-3.471-2.46-1.234.94-2.511.113-2.992 1.711-1.565.7-.253 2.117-2.357 2.627-1.173.33-2.855.202-3.004-.685-.416-.523.371-1.673-.154-2.848.971-1.243 4.43.805 3.922-1.819-.268-1.039-1.574-1.317-1.757-1.546 1.247-.277 1.555-.708 2.375-.738 1.05-.47 2.193-2.53 2.66-1.773-.438-1.217 1.691-.471 1.6-1.094.053-.42-.844-1.88.225-1.796 1.743-.74-.928 1.416.844 1.535-.415 1.162 1.521-.331 1.676.233 1.723-.823 3.732.27 3.34-2.23.582-.343 1.998.38 1.333-.676-1.331-1.37 1.969-.59 1.96-1.187 1.766 0-.08-.935-1.104-.38-1.106.729-2.444.017-2.196-1.554-.397-1.008 3.098-1.566 1.402-2.693-1.945-.402-1.046 1.973-2.782 2.25-.952.634-.658 1.916.372 2.685-1.028.33-1.09.46-1.63 1.105.997.8-1.554 2.447-1.694 1.108.068-.578-.57-1.664-.93-2.247-.005.553-2.9 1.461-2.28.359-.215-.107.245-.49-.072-.588-.1-.143-.335-1.225-.115-1.809 1.062-.611 1.53-.552 2.533-1.85.975-.494 1.528-1.521 1.75-1.776.289-.77.909-1.294 1.624-1.434-.236-1.017 1.745-.826 1.9-1.39.48.457 2.442-1.676 1.845-.098.744-.98.545-.2 1.484-.738-.94.616 2.756.22.22.73 1.934.703 3.764.707 5.946 2.148.685 3.111-6.335-.852-3.127 1.27-.849 1.603 2.87 2.369 1.086.838 2.342 1.67 1.274-1.998 3.656-.861-.745-3.048 3.65 1.866 4.822 2.662 6.85 6.51 10.88 15.837 10.826 25.297M44.603 14.659c-.15.548.996.078 0 0m12.193 11.156c-1.416-1.22-2.901-2.1-1.17-3.062-2.172.256-2.652.975-1.62 1.444-1.353.473-2.202.026-.975-.696-1.095-.809-2.222.225-2.6 1.422-.928 1.209 1.058 1.601-.981 2.078 1.534.007.785-.447 2.139-.493 1.645-1.578 3.58 1.079 5.233-.385zm6.473.748c-.85-1.286-1.21.574-1.149-1.084-1.666-1.17-.034-1.23.338-1.948.015-1.299-2.664-.196-2.719.668-.264 1.106.475 2.15 1.395 2.669-1.85 1 .87 2.074 1.638 1.404-.523-1.092-.322-.686-.009-.968-.954-.708.01-.546.506-.741M27.706 3.787c.711.436 1.74.189 1.176-.297.012-.282-2.035.206-1.176.297m.797 7.815c1.641.331 4.215-1.255 2.13-2.314-.851 1.066-2.376-.291-2.27.592-.625.328-1.327-1.1-1.514-.055-1.38.393 2.373.274-.182.856 2.617.27-1.096.597 1.836.92m32.322 42.676c-.809-.212-.998.888-1.334 1.238-1.951.143-.988 2.214-1.867 3.596.998 4.016 3.165-1.092 3.231-3.068-.333-.968.771.296-.03-1.766m.667-12.161c-1.519-.52-3.111 1.672-4.178.048.678-1.263-2.225-1.655-2.218-3.4-.648-1.987-2.136-3.911-2.648-5.953 1.191 2.681 1.444-1.447-.452-.832-1.626.588-3.168-.352-4.752-.757-1.094.902-1.99 2.079-3.399.234-2.77.346-1.831-2.031-2.3-2.429-1.342-.314-3.61-.112-5.203.486-1.604.902-2.825-.57-3.89 1.422-.616 2.392-2.977 3.3-3.866 5.732-.335 1.039.165 3.035-.258 4.205.094 1.244.843 1.402 1.753 2.32.149.787 2.088 3.243 3.898 2.181 2.028.482 4.507-1.617 5.777.434 1.745-.882 1.732 1.224 1.3 2.055-.59 1.31 1.814 2.294 1.964 4.036.803 2.152-2.015 4.415.18 6.588.26 2.405 2.188 4.758 2.244 6.942.83.553 2.376-.293 3.515-.053 2.86-.645 2.858-4.15 4.694-5.162.228-1.508-1.148-3.061 1.561-3.763 2.398-.988.352-3.458.607-5.06-.754-2.474 2.84-3.873 4.166-5.808.59-1.146 1.439-2.182 1.505-3.466"/></g><path fill="#fff" d="m34.514 63.705-1.466 2.178-2.62 3.895-2.088 3.106-.805 1.197.882 1.142c3.964 5.132 12.042 8.473 18.872 8.473 4.089 0 7.554-.58 10.395-1.766 2.946-1.23 5.259-3.136 6.89-5.696C66.185 73.707 67 70.965 67 68.05c0-3.144-.68-5.852-2.065-8.087-1.368-2.205-3.264-3.947-5.657-5.205-2.26-1.188-5.618-2.295-10.112-3.354-.311-.073-3.216-.736-3.886-.905-1.898-.479-2.758-.868-3.32-1.468-.946-.92-.966-1.528-.343-2.201.895-.969 2.778-1.599 4.935-1.454 2.329.223 4.827.977 7.294 2.095a31 31 0 0 1 2.93 1.519c.52.304.879.535 1.053.656l1.687 1.164 1.123-1.714 3.922-5.991.992-1.515-1.41-1.137a26 26 0 0 0-1.237-.922 37 37 0 0 0-3.094-1.967c-1.553-.881-3.11-1.607-4.645-2.123C52.42 34.517 49.607 34 46.776 34c-3.654 0-6.819.559-9.489 1.696-2.758 1.175-4.912 2.92-6.413 5.22-1.487 2.28-2.24 4.763-2.24 7.404 0 4.07 1.605 7.572 4.74 10.377 2.223 1.988 5.854 3.562 10.93 4.818 8.806 2.092 10.858 4.605 8.134 7.443l1.443 1.385-1.28-1.537C51.658 71.592 49.938 72 47.29 72c-2.879 0-7.709-2.394-11.065-6.303zM12.196 34v31c0 3.618-.08 4.212-.525 4.825-.56.75-1.401 1.175-2.534 1.314-1.022.125-2.181.003-3.326-.283a9 9 0 0 1-1.035-.313L2.42 69.62l-.355 2.506-1.045 7.38-.196 1.385 1.233.66c.544.29 1.463.695 2.683 1.092 4.22 1.375 8.697 1.564 12.956-.238a16 16 0 0 0 2.174-1.123c2.675-1.888 4.385-4.603 5.397-7.928.943-3.099 1.185-6.289 1.048-9.022-.012-.236-.024-.41-.034-.512.009-5.069.009-5.069.009-11.507V34z"/><path fill="url(#b)" d="M34.707 33c4.293 5 9.866 7 12.582 7 2.876 0 5.134-.442 6.592-1.657C58 34.05 55 30 44.784 27.574q-7.18-1.777-10.077-4.368-4.073-3.645-4.073-8.886 0-3.375 1.916-6.31 1.915-2.938 5.521-4.474T46.776 2c2.841 0 5.492.576 7.753 1.337 4.403 1.48 8.359 4.672 8.359 4.672L58.966 14s-5.794-4-12.28-4.62C41 9 37 13 40.5 16.399 42 18 44.362 18.326 48.707 19.35q6.517 1.536 9.64 3.177t4.888 4.489T65 34.05q0 3.795-2.112 7.11-2.112 3.313-5.974 4.924t-9.625 1.612C41.697 47.696 33.862 45 30 40z" transform="translate(0 34)"/><path fill="url(#c)" d="M14.196 2H24.29v28s1 11-5.47 15.578c-7.53 4.64-15.82.208-15.82.208l1.045-7.381S10.383 40.891 13.29 37c.854-1.177.906-2.292.906-6z" transform="translate(0 34)"/></g></svg>