<svg xmlns="http://www.w3.org/2000/svg" xmlns:xlink="http://www.w3.org/1999/xlink" viewBox="0 0 96 96"><defs><linearGradient id="b" x1="50%" x2="50%" y1="0%" y2="100%"><stop offset="0%" stop-color="#ffc900"/><stop offset="100%" stop-color="#f90"/></linearGradient><linearGradient id="c" x1="50%" x2="50%" y1="0%" y2="100%"><stop offset="0%" stop-color="#00e0f7"/><stop offset="100%" stop-color="#00bded"/></linearGradient><filter id="a" width="131.6%" height="131.6%" x="-15.8%" y="-15.8%" filterUnits="objectBoundingBox"><feOffset dy="2" in="SourceAlpha" result="shadowOffsetOuter1"/><feGaussianBlur in="shadowOffsetOuter1" result="shadowBlurOuter1" stdDeviation="2"/><feColorMatrix in="shadowBlurOuter1" result="shadowMatrixOuter1" values="0 0 0 0 0 0 0 0 0 0 0 0 0 0 0 0 0 0 0.2 0"/><feMerge><feMergeNode in="shadowMatrixOuter1"/><feMergeNode in="SourceGraphic"/></feMerge></filter></defs><g fill="none" filter="url(#a)" transform="translate(10 10)"><rect width="76" height="76" fill="url(#b)" rx="8"/><path fill="#fff" d="M45.546 76H1.994A2.003 2.003 0 0 1 0 74.006V61.848h10.274l.33 1.594.166.797c.257 1.24.894 2.416 1.956 3.561.762.822 2.526 1.344 5.323 1.344 2.212 0 4.145-.488 5.85-1.461 1.259-.719 1.738-1.475 1.738-2.579 0-.955-.333-1.703-1.097-2.422-.927-.87-3.017-1.797-6.112-2.606L9.31 57.77Q4.075 56.417 0 54.303V19.358q3.281-1.737 7.207-2.838 5.421-1.521 11.585-1.52 6.19-.001 11.54 1.598 5.381 1.606 9.325 4.393c2.701 1.91 4.854 4.235 6.435 6.959 1.627 2.802 2.45 5.817 2.45 8.994v3H24.87l-.105-1.889-.053-.944c-.067-1.209-.528-1.959-1.57-2.562-1.452-.839-3.133-1.261-5.094-1.261-2.312 0-3.948.463-4.968 1.302-.945.776-1.32 1.47-1.32 2.226 0 .511.208 1.065.698 1.716.342.455 2.161 1.283 5.087 2.048l11.12 3.065c7.639 2.032 13.01 4.876 16.129 8.675 3.096 3.77 4.675 7.98 4.675 12.528 0 3.28-.863 6.357-2.572 9.172A22 22 0 0 1 45.546 76"/><path fill="url(#c)" d="M0 68v-3.152h7.833q.557 2.688 2.693 4.992t7.523 2.304q4.087 0 7.338-1.856 3.25-1.855 3.25-5.184 0-2.688-2.043-4.608t-7.43-3.328l-9.102-2.304Q4.212 53.352 0 50.876V22.805q3.525-2.136 8.018-3.397Q13.034 18 18.792 18q5.76 0 10.681 1.472 4.924 1.472 8.452 3.968 3.529 2.497 5.573 6.016 2.043 3.52 2.043 7.488H27.708q-.185-3.329-3.064-4.992-2.88-1.664-6.595-1.664-4.458 0-6.873 1.984t-2.415 4.544q0 1.792 1.3 3.52 1.302 1.728 6.688 3.136l11.145 3.072q10.589 2.816 14.582 7.68t3.994 10.624q0 4.096-2.136 7.616A20 20 0 0 1 41.588 76H8a8 8 0 0 1-8-8"/></g></svg>