<svg xmlns="http://www.w3.org/2000/svg" viewBox="0 0 64 64"><circle cx="32" cy="33" r="28" opacity=".2"/><circle cx="32" cy="32" r="28" fill="#3b6ec5"/><path fill="#fff" d="M32 4A28 28 0 0 0 4 32a28 28 0 0 0 .021.586A28 28 0 0 1 32 5a28 28 0 0 1 27.979 27.414L60 32A28 28 0 0 0 32 4" opacity=".2"/><path d="M52 13.412V22h2v13h-5v7h-6v-9h3v-2.8L35 30v5h5v9h-5v3h5v3h-8v-3h-9v-6h6v-5h-8v-6h5v-5h-5v-3h-3v8.2l-8-.2v-3h5v-8h-5v-3.271A28 28 0 0 0 4.018 32.49 28 28 0 0 0 32 60a28 28 0 0 0 27.828-25H57V25h1.81A28 28 0 0 0 52 13.412" opacity=".2"/><path fill="#53c457" d="M52 12.412V21h2v13h-5v7h-6v-9h3v-2.8L35 29v5h5v9h-5v3h5v3h-8v-3h-9v-6h6v-5h-8v-6h5v-5h-5v-3h-3v8.2l-8-.2v-3h5v-8h-5v-3.271A28 28 0 0 0 4 32a28 28 0 0 0 28 28 28 28 0 0 0 27.898-26H57V24h1.81A28 28 0 0 0 52 12.412"/><circle cx="36" cy="20" r="4" fill="#fff"/></svg>