<svg xmlns="http://www.w3.org/2000/svg" xmlns:xlink="http://www.w3.org/1999/xlink" viewBox="0 0 96 96"><defs><radialGradient id="b" cx="45.319%" cy="42.206%" r="68.314%" fx="45.319%" fy="42.206%"><stop offset="0%" stop-color="#898fdf"/><stop offset="100%" stop-color="#01014f"/><stop offset="100%" stop-color="#01014f"/></radialGradient><radialGradient id="d" cx="16.342%" cy="27.513%" r="57.364%" fx="16.342%" fy="27.513%"><stop offset="0%" stop-color="#fff"/><stop offset="100%" stop-color="#fff" stop-opacity="0"/></radialGradient><linearGradient id="c" x1="50%" x2="50%" y1="0%" y2="100%"><stop offset="0%" stop-color="#5db2fc"/><stop offset="100%" stop-color="#005fb0"/></linearGradient><filter id="a" width="129.3%" height="129.3%" x="-14.6%" y="-14.6%" filterUnits="objectBoundingBox"><feOffset dy="2" in="SourceAlpha" result="shadowOffsetOuter1"/><feGaussianBlur in="shadowOffsetOuter1" result="shadowBlurOuter1" stdDeviation="2"/><feComposite in="shadowBlurOuter1" in2="SourceAlpha" operator="out" result="shadowBlurOuter1"/><feColorMatrix in="shadowBlurOuter1" result="shadowMatrixOuter1" values="0 0 0 0 0 0 0 0 0 0 0 0 0 0 0 0 0 0 0.2 0"/><feMerge><feMergeNode in="shadowMatrixOuter1"/><feMergeNode in="SourceGraphic"/></feMerge></filter></defs><g fill="none" fill-rule="evenodd" filter="url(#a)" transform="translate(7 7)"><circle cx="41" cy="41" r="41" fill="url(#b)"/><path fill="url(#c)" d="M35 2c.893.148 6.5.5 6.5.5S39 3.5 36 3c-1.757-.293 1.44.325 3.5 1.5 1.457.831 1.732 1.732 2 2C43 8 40.5 8 39.5 9s.5 1.5 1 3q.471 1.411-.388 4.152L40 16.5l-2 .5v-1.5q-.5-1.5-2-2t-2-.5q1-2 0-2.5c-1-.5 0-1 0-1.5s-.5-2.5-1-4-1.5.5-2 1.5c-.475.95-1.852 1.449-1.99 1.496L29 8l-2.5 2.5c-1 1-3 2.5-3.5 3s-1 2.5-2.5 3S20 18 20 19s0 .5 1.5 1.5 1.5 3 1.5 4 1 0 1.5 0 0-1.5 0-2.5.5-1 1-1 0-1 0-2.5 1-3 1-3.5 3.5-3.5 2.5-2.5q-1 1-1 3.5.5 1 1.5 1c1 0 0-1.5 0-2 0-.475 1.354-2.755 1.49-3.41l.01-.09v-2q0-.465.862-.066L32 9.5l.5 1.5q0 1.5-1 2.5c-1 1 1 3.5.5 4.5q-.5 1 1 1 2.5 3.5 3.5 3.5.966 0 1.465 4.195L38 27l.5 2.5q-3-.5-4.5-.5-1.4 0-1.493.436l-.007.064L31 31h-1q-.466 0-1.369 1.307l-.131.193L28 34h-1.5l-.5 2-.5.5-1.5 1 1 1-.5 2.5-.024.036c-.154.233-1.021 1.555-1.476 2.464q-.459.916-.076 1.833L23 45.5l1 1.5.5 2 2.5 2.5V55h-2q.5-1.5.5-2 0-.444-.395-1.284L25 51.5h-1.5L21 51q2-1 2-1.5c0-.5-1-3-2.5-4q-1.4-.933-2.364-.56L18 45l-1 .5h-3c-1.5 0 0 3.5 0 6s1.5 3 3 3 1-3 3-2c1.561.78.99 3.084.664 3.82l-.029.06.031-.007c.604-.084 2.653.7 2.823 1.52L23.5 58q0 .933.436 3.173L24 61.5l1.5.5H27l1-.5v-2q0-1.437 2.296-1.038l.204.038.5 1.5.5-1h.5l.5 1 5-2q1 2.5 1 3c0 .5 1.5-1 2 1s3 0 4.5 1-.5 4.5.5 3.5 1 0 4 0h.587c2.673.007 4.446.1 4.913 1.5.5 1.5-2.5 3.5-2.5 5s-2 4.5-2.5 4c-.385-.385-1.067 2.494-2.732 4.523a41 41 0 0 1-6.5.476Q37.358 77.36 36 76c-1.5-1.5-5-5-7.5-6s-1-5-.5-7q.483-1.931-.899-.133L27 63h-3l-3.5-3q-4-3-10-6c-6-3-7.177-16.023-6.177-22.523S7.431 21.402 9.5 18c.559-.918 1.566-2.14 2-3.5.242-.758-1.92 1.564-2 1.5a8 8 0 0 1-.591-.52A41.2 41.2 0 0 1 21.432 4.962L21.5 5c1.5 1-1.282 2.026 0 3 1.016.772 2.116-.616 3-1.5 2-2 8.5-3.5 9-3.5.164 0 1.065-1.072 1.5-1m40 23.5q2 2.5 3 2.5.954 0-.369-1.367L77.5 26.5l1.73-.346A40.9 40.9 0 0 1 82 41c0 9.639-3.326 18.5-8.893 25.5H73q4-7.5 4-9c0-1.5 1.5-3.5 1-5s-2 2.5-2.5 3-1.5 0-2.5-1.5q-1-1.5-1-2-1.5-.5-1-1 .487-.487.026-7.61L71 43v-2.5l.5-.5q0-1-1-2-.96-.96 1.306-1.92L72 36v-1.5c0-.467-.436-1.804-.494-2.794L71.5 31.5V30l2-1.5V27zM53 2l6.398 2.35A41.18 41.18 0 0 1 77.5 22.307V23q-.972-1.176-1.5-1-.495.165-1.38 1.778L74.5 24l-.5-2-1.5-1-1-1.5L71 22l.5 1q-1.5 1 0 2 1.435.956.125 2.828L71.5 28 70 29l-1.5-1v-1.5L66 24v-1l2.5-1-1-1v-1.5l-3-1 1.5-1-.5-2.5-1-1.5V12H63l-1-1v-1l-1 1h-1.5l-1-2-.5-.5-1 .5-1.5-.5V7l-2-.5-1-2H49V2zm4.5 9.5c-.5-1 3 .5 4.5 1.5q1.5 1 3.5 4L64 18l-.5-.5-1-.5-1 .5-.5-1h-1v-3q-2-1-2.5-2m-6.088-1.712L51.5 10l-.5 1q-2-.5-2-1t-1.5-.5q0-1 1.5-1.5 1.435-.479 2.412 1.788"/><circle cx="35.5" cy="35.5" r="31.5" fill="url(#d)" opacity=".42"/><path fill="#fff" d="m31.757 6.033 3.216 4.824-3.64-.26L29.5 15h2.779l5.922-2.733-1.98-2.64 14.008 2.213-7.373 6.635-1.213-1.618L35 20.4v1.8l9.038 1.29 2.427-3.64 8.848 12.535-17.697.737 1.649-2.473-6.589-1.098-7.229 2.976-.896 17.022 7.605 3.38 7.398-1.644-2.025-3.037 17.798 1.483-8.9 11.866-2.237-3.358-8.194 1.821-.526 1.841 6.038 3.45 1.336-1.836 7.482 6.734-13.467 1.496 1.183-1.628-4.796-2.616h-3.562l2.107 3.862 3.177-.212-3.198 4.797-8.793-3.997 3.06-.205-1.656-1.93-6.526-3.046-3.523 5.286-.43-.286q-.564-.497-1.108-1.013l4.35-6.525 8.475 3.954 2.909 3.394 1.065-.07-3.278-6.009h7.44l5.473 2.985.8-1.1-7.5-4.286 1.475-5.158 8.7-1.934-1.386-2.078.008.035-9.482 2.108-10.395-4.62 1.104-20.978 9.773-4.024 8.765 1.461 1.103-1.655L32 24.801V18.6l7.822-4.172-.422-.562.02.042L32.72 17H26.5l2.73-6.553-.534-.038-3.2 4.8-7.346 3.062-6.202-6.202a41 41 0 0 1 2.194-2.048l4.708 4.708 4.652-1.939 1.752-2.627-1.537-.11 2.416-1.208.119-.177.102.067zm.274 66.816-3.009.201 2.207 1.003zm11.125-6.364-2.016 2.771 4.534-.504zM8.551 15.935l1.781 4.454 4.984 4.077 8.216-4.35.936 1.768-8.5 4.5-.053-.1-.235 1.995c-.767 6.644-1.16 11.168-1.18 13.543V42c0 2.443.437 6.525 1.313 12.221l.103.673 7.614 4.758-1.06 1.696-6.57-4.105c-3.494 2.273-5.757 5.146-6.824 8.64l-.112.384-.326-.09q-.63-.81-1.22-1.65c1.207-3.361 3.433-6.187 6.657-8.462l-.325-2.104c-.805-5.314-1.222-9.21-1.249-11.708L12.5 42c0-2.418.397-7.052 1.19-13.933l.251-2.142-5.274-4.314-1.506-3.768q.668-.974 1.39-1.907m-4.09 7.29c.584 2.042 1.879 4.116 3.902 6.217l.344.35.293.294v21.217l-.168.252c-2.43 3.644-3.854 6.417-4.274 8.252a41 41 0 0 1-1.23-2.598c.737-1.746 1.924-3.854 3.56-6.342l.112-.17V30.909l-.068-.069Q4.304 28.116 3.1 25.336a40 40 0 0 1 .878-1.973zm39.01 28.527 3.101 4.651 3.101-4.134zm3.064-26.601-3.151 4.727 6.302-.262zm-5.756-12.78 2.365 3.154 2.627-2.365zm-9.537-4.404-1.959.979 2.743.196z" opacity=".718"/><path fill="#ff8b8b" fill-opacity=".569" d="M3.614 24.145q-.267.59-.515 1.191 1.205 2.779 3.833 5.504l.068.069v19.788l-.111.17c-1.637 2.488-2.824 4.596-3.56 6.342A40.9 40.9 0 0 1 0 41a40.9 40.9 0 0 1 3.457-16.503Z" opacity=".955"/></g></svg>