<svg xmlns="http://www.w3.org/2000/svg" viewBox="0 0 64 64"><path d="M61 33a29 29 0 0 1-28.977 29A29 29 0 0 1 3 33.046 29 29 0 0 1 31.93 4 29 29 0 0 1 61 32.908" opacity=".2"/><path fill="#fb8c15" d="M61 32a29 29 0 0 1-28.977 29A29 29 0 0 1 3 32.046 29 29 0 0 1 31.93 3 29 29 0 0 1 61 31.908"/><path fill="#c04500" fill-rule="evenodd" d="M43.31 35.075C37.933 57.06 28.862 52.638 28.862 52.638c-1.482-1.218-.94-8.663.494-10.561 1.908.079 3.508 1.088 6.546-8.228 3.003-9.205.854-10.478-1.236-11.543-.119-3.886 2.8-8.306 4.938-9.332 0 0 9.056.236 3.706 22.101m-7.266-23.563c-2.319 2.605-3.808 5.996-4.812 9.576 0 0-4.05-2.853-1.908-7.238 2.193-4.479 6.72-2.338 6.72-2.338M26.18 41.366q-2.501 4.66-.66 10.687s-4.267.381-4.512-5.697c-.24-6.082 5.172-4.99 5.172-4.99"/><path fill="none" stroke="#060500" stroke-linecap="round" stroke-linejoin="round" stroke-width="1.5" d="M10.674 35.275c.558-2.397.32-9.168 2.02-8.357s2.965 11.21 4.57 12.262c1.607 1.052.81-5.817 1.855-8.333s1 .478 2.323-1.44 1.506-8.602 2.97-6.231c1.463 2.371 1.292 12.36 2.883 15.324s1.837-3.665 3.48-3.776c1.641-.111 2.14 4.262 3.09 3.45.949-.81.095-3.148.706-6.588.61-3.44.074-8.157 1.735-6.522s2.962 10.79 4.912 12.863.688-4.477 2.889-5.045 4.437 2.205 5.916 2.974" opacity=".2"/><path fill="none" stroke="#fff18f" stroke-linecap="round" stroke-linejoin="round" stroke-width="1.5" d="M10.674 34.275c.558-2.397.32-9.168 2.02-8.357s2.965 11.21 4.57 12.262c1.607 1.052.81-5.817 1.855-8.333s1 .478 2.323-1.44 1.506-8.602 2.97-6.23c1.463 2.37 1.292 12.36 2.883 15.323s1.837-3.665 3.48-3.776c1.641-.111 2.14 4.262 3.09 3.451s.095-3.149.706-6.589c.61-3.44.074-8.157 1.735-6.522s2.962 10.79 4.912 12.863.688-4.477 2.889-5.045 4.437 2.205 5.916 2.974"/><path d="M52 35a3 3 0 0 1-2.997 3A3 3 0 0 1 46 35.005 3 3 0 0 1 48.993 32 3 3 0 0 1 52 34.99" opacity=".2"/><path fill="#fff" d="M52 34a3 3 0 0 1-2.997 3A3 3 0 0 1 46 34.005 3 3 0 0 1 48.993 31 3 3 0 0 1 52 33.99"/><path fill="#fff" d="M31.93 3A29 29 0 0 0 3 32.047l.018.473A29 29 0 0 1 31.93 4a29 29 0 0 1 29.047 28.46L61 32v-.094A29 29 0 0 0 31.93 3" opacity=".2"/></svg>