<svg xmlns="http://www.w3.org/2000/svg" viewBox="0 0 22 22"><path fill="currentColor" d="M11 3a6 6 0 0 0-6 6v1h-.285c-.303 0-.584.082-.83.217l5.347 5.263c.876.862 1.58.813 2.194.612a3 3 0 0 0 1.039-.612l5.447-5.36a1.7 1.7 0 0 0-.627-.12H17V9a6 6 0 0 0-6-6m0 2c2.233 0 4 1.767 4 4v1H7V9c0-2.233 1.767-4 4-4m7.775 5.863-4.445 4.375 3.664 3.608A1.68 1.68 0 0 0 19 17.313v-5.625c0-.302-.085-.58-.225-.825m-15.652.198a1.7 1.7 0 0 0-.123.627v5.624c0 .656.38 1.215.932 1.495l3.53-3.477zm10.398 4.972-.248.244s-.584.585-1.486.881-2.216.246-3.361-.88l-.156-.151L5.35 19h11.185z" color="#d3dae3"/></svg>