<svg xmlns="http://www.w3.org/2000/svg" xmlns:xlink="http://www.w3.org/1999/xlink" viewBox="0 0 128 128"><defs><linearGradient id="c" x1="50%" x2="50%" y1=".841%" y2="99.771%"><stop offset="0%" stop-color="#ec8a66"/><stop offset="100%" stop-color="#bd452c"/></linearGradient><linearGradient id="f" x1="50%" x2="50%" y1="0%" y2="100%"><stop offset="0%" stop-color="#c65438"/><stop offset="100%" stop-color="#731e0b"/></linearGradient><linearGradient id="h" x1="50%" x2="50%" y1="0%" y2="100%"><stop offset="0%" stop-color="#fff"/><stop offset="100%" stop-color="#fff" stop-opacity=".797"/></linearGradient><linearGradient id="j" x1="50%" x2="50%" y1="0%" y2="100%"><stop offset="0%" stop-opacity=".097"/><stop offset="100%" stop-opacity=".301"/></linearGradient><linearGradient id="k" x1="50%" x2="50%" y1="0%" y2="100%"><stop offset="0%" stop-opacity=".097"/><stop offset="100%" stop-opacity=".301"/></linearGradient><filter id="a" width="129.6%" height="129.6%" x="-14.8%" y="-14.8%" filterUnits="objectBoundingBox"><feOffset dy="2" in="SourceAlpha" result="shadowOffsetOuter1"/><feGaussianBlur in="shadowOffsetOuter1" result="shadowBlurOuter1" stdDeviation="3"/><feColorMatrix in="shadowBlurOuter1" result="shadowMatrixOuter1" values="0 0 0 0 0 0 0 0 0 0 0 0 0 0 0 0 0 0 0.2 0"/><feMerge><feMergeNode in="shadowMatrixOuter1"/><feMergeNode in="SourceGraphic"/></feMerge></filter><filter id="e" width="101.9%" height="101.9%" x="-.9%" y="-.9%" filterUnits="objectBoundingBox"><feOffset dy="1" in="SourceAlpha" result="shadowOffsetInner1"/><feComposite in="shadowOffsetInner1" in2="SourceAlpha" k2="-1" k3="1" operator="arithmetic" result="shadowInnerInner1"/><feColorMatrix in="shadowInnerInner1" result="shadowMatrixInner1" values="0 0 0 0 1 0 0 0 0 1 0 0 0 0 1 0 0 0 0.600824956 0"/><feOffset dy="-2" in="SourceAlpha" result="shadowOffsetInner2"/><feComposite in="shadowOffsetInner2" in2="SourceAlpha" k2="-1" k3="1" operator="arithmetic" result="shadowInnerInner2"/><feColorMatrix in="shadowInnerInner2" result="shadowMatrixInner2" values="0 0 0 0 0 0 0 0 0 0 0 0 0 0 0 0 0 0 0.19960118 0"/><feMerge><feMergeNode in="shadowMatrixInner1"/><feMergeNode in="shadowMatrixInner2"/></feMerge></filter><filter id="i" width="101.4%" height="101.2%" x="-.7%" y="-.6%" filterUnits="objectBoundingBox"><feOffset dy="1" in="SourceAlpha" result="shadowOffsetInner1"/><feComposite in="shadowOffsetInner1" in2="SourceAlpha" k2="-1" k3="1" operator="arithmetic" result="shadowInnerInner1"/><feColorMatrix in="shadowInnerInner1" values="0 0 0 0 1 0 0 0 0 1 0 0 0 0 1 0 0 0 1 0"/></filter><rect id="b" width="106" height="106" x="1" y="1" rx="6"/><path id="g" d="M33.002 42.092c0-.44.13-.904-.61-.982-2.595-.27-4.412 1.3-4.416 3.924-.01 5.932.027 12.175-.02 18.107-.016 2.06 1.424 4.119 3.967 3.983.907-.049 1.108-.316 1.099-1.17-.041-3.871-.018-8.053-.018-11.926q.002-5.967-.002-11.936m6.997.785L40 65.35c0 1.74.058 1.881 1.571 1.704.135-.016.525-.057.743-.099.35-.068.997-.355 1.167-.475 1.058-.75 1.524-1.854 1.519-3.29-.021-5.952-.005-12.214-.015-18.166 0-.457-.055-.922-.15-1.369-.275-1.285-1.452-2.284-2.828-2.443-1.941-.234-2.008-.234-2.008 1.665M33.02 75.18c.024-.95-.199-1.26-1.211-1.273-4.668-.064-7.97-2.222-9.973-6.484-.644-1.371-.838-2.854-.841-4.353-.013-6.074-.043-12.148.005-18.222.049-6.258 4.563-10.84 10.803-10.849 1.005-.001 1.227-.307 1.218-1.266-.046-5.043-.004-10.088-.03-15.132-.01-2.003.79-3.512 2.56-4.417 1.754-.896 3.201-.585 4.74.599 4.51 3.469 9.037 6.917 13.533 10.405 1.68 1.302 1.975 3.401.799 4.99-1.18 1.594-3.397 1.93-5.085.665-2.8-2.098-5.544-4.27-8.325-6.392-.32-.245-.716-.598-.996-.503s-.205.732-.208 1.164c-.019 2.913.021 5.826-.029 8.738-.015.876.176 1.13 1.068 1.148 4.794.098 8.318 2.282 10.258 6.75.513 1.18.714 2.432.711 3.73-.015 6.323.027 12.646-.017 18.968-.04 5.783-4.75 10.401-10.538 10.486-1.602.024-1.464-.248-1.463 1.564.002 2.877-.007 5.383.009 8.26.002.366-.262.872.148 1.07.352.17.588-.286.857-.49 2.876-2.174 5.743-4.358 8.622-6.527 1.227-.924 2.564-1.03 3.871-.255 1.283.762 1.94 1.94 1.784 3.48-.098.967-.566 1.763-1.32 2.343-4.622 3.555-9.243 7.111-13.897 10.623-1.514 1.142-3.006 1.281-4.672.346-1.596-.896-2.422-2.307-2.406-4.193.023-2.557.006-5.115.005-7.672-.001-2.558-.042-4.745.02-7.301m35.49-11.052c3.984-2.966 8.3-5.938 12.292-8.892.636-.471.368-.753-.104-1.106-2.1-1.576-4.19-3.167-6.282-4.755-1.781-1.352-3.888-2.717-5.68-4.055-.219-.163-.644-.783-.73.035-.004.032-.067 6.834-.069 9.82 0 2.671.041 5.342.064 8.012l-.001.426v.422c.056.437.212.39.394.213q.035-.033.116-.12m-7.432-26.38c-.009-1.53.555-2.706 1.942-3.359 1.396-.656 2.762-.474 4.015.479 4.408 3.348 8.828 6.682 13.238 10.027 2.686 2.036 5.371 4.075 8.043 6.13 2.702 2.078 2.692 5.376-.045 7.442-7.024 5.3-14.085 10.553-21.085 15.884-2.343 1.785-5.036.945-5.914-.975-.233-.51-.271-1.014-.271-1.542-.001-5.716.107-28.44.077-34.086"/></defs><g fill="none" filter="url(#a)" transform="translate(10 10)"><use xlink:href="#b" fill="url(#c)"/><use xlink:href="#b" fill="#000" filter="url(#e)"/><path fill="url(#f)" d="M99 0H9a9 9 0 0 0-9 9v90a9 9 0 0 0 9 9h90a9 9 0 0 0 9-9V9a9 9 0 0 0-9-9m0 1a8 8 0 0 1 8 8v90a8 8 0 0 1-8 8H9a8 8 0 0 1-8-8V9a8 8 0 0 1 8-8z"/><use xlink:href="#g" fill="url(#h)"/><use xlink:href="#g" fill="#000" filter="url(#i)"/><path fill="url(#j)" d="M32.392 41.11c.555.058.62.334.618.654l-.008.328q.004 5.97.002 11.936l-.006 5.963c-.001 1.343 0 2.685.008 4.004l.016 1.96c.009.853-.192 1.12-1.1 1.169-2.542.136-3.982-1.923-3.966-3.983.024-2.966.026-6.01.024-9.053l-.005-6.065.001-2.99c.004-2.323 1.43-3.82 3.558-3.944l.209-.008q.316-.005.649.03m12.443 2.545c.095.447.15.912.15 1.369l.003 2.999v9.135l.006 4.038.006 1.995c.005 1.435-.461 2.54-1.52 3.289-.169.12-.817.407-1.166.475l-.121.021-.282.038-.34.04a8 8 0 0 1-.66.057h-.105c-.552-.005-.727-.2-.781-.818l-.017-.27-.007-.32L40 65.35V42.528l.007-.317c.03-.83.165-1.087.767-1.104h.1q.209.002.49.032l.643.073c1.376.159 2.553 1.158 2.828 2.443m-12.942-1.574c-1.731-.031-2.833 1-2.912 2.756l-.005.309V59.4l-.02 3.749c-.013 1.679 1.096 2.977 2.736 2.98l.33-.013-.016-2.188-.008-2.88.006-6.401-.003-12.563zm9.12.031-.007.175-.006.418v22.972l.005.25.006.177.294-.026.56-.066.191-.027.067-.012c.044-.008.11-.028.185-.055l.242-.092.222-.095c.063-.03.11-.053.13-.067.751-.532 1.101-1.307 1.097-2.47l-.011-6.036-.004-12.132c0-.376-.044-.77-.128-1.161-.181-.848-.996-1.548-1.97-1.66l-.658-.075zm27.202 2.83.038.003c.076.015.162.081.244.156l.192.181.046.038c.597.446 1.23.895 1.873 1.346l1.94 1.354c.643.452 1.273.904 1.867 1.355q2.09 1.59 4.184 3.175l2.098 1.58q.084.062.157.122l.133.119c.258.255.3.505-.186.865-1.33.985-2.698 1.971-4.076 2.96L72.58 61.16a310 310 0 0 0-4.07 2.967l-.116.12c-.182.176-.338.224-.394-.213l.001-.848-.053-5.34-.01-3.064.019-3.746.049-5.682c.028-.268.092-.381.174-.408zm.774 1.802-.043 5.864-.01 2.564.011 2.664.046 4.691 1.368-.998 7.835-5.625.997-.726.624-.459-6.236-4.72-.485-.358-.817-.587-2.79-1.953z"/><path fill="url(#k)" d="M35.096 12.294c1.968-1.006 3.758-.79 5.593.538l11.948 9.172 1.8 1.394c2.087 1.618 2.505 4.328.99 6.375-1.525 2.06-4.379 2.451-6.489.87l-1.424-1.076-6.508-5.015-.002 6.014-.019 1.978-.007.451.09.003c5.259.108 9.088 2.59 11.155 7.35.547 1.26.798 2.628.794 4.133l-.003 2.088.006 8.265-.002 4.623-.01 2.86L53 63.454c-.044 6.209-5.012 11.227-11.226 11.47l-.388.01-.39-.001.003.5.003 6.862.002.794 7.154-5.417.875-.66c1.556-1.173 3.333-1.296 4.983-.317 1.642.975 2.462 2.539 2.27 4.442-.126 1.228-.724 2.278-1.707 3.034l-10.878 8.336-3.026 2.292c-1.843 1.391-3.764 1.542-5.763.42-1.925-1.08-2.936-2.835-2.917-5.074l.011-2.148-.012-7.317-.008-2.366.006-1.414.011-.88.021-1.108-.229-.004c-5.046-.07-8.696-2.446-10.864-7.059-.658-1.401-.933-2.945-.936-4.776l-.02-9.083v-3.974l.02-4.457.005-.718c.053-6.716 4.875-11.676 11.49-11.837l.529-.006.002-.255-.017-2.566-.005-1.91v-8.898l-.007-1.762c-.012-2.418 1.026-4.25 3.104-5.312m2.32.374c-.592.014-1.207.18-1.865.516-1.77.905-2.57 2.414-2.56 4.417.02 3.783 0 7.566.01 11.35l.02 3.782c.008.908-.19 1.23-1.066 1.263l-.152.003c-6.24.01-10.754 4.59-10.803 10.85a1030 1030 0 0 0-.025 9.11l.02 9.111c.003 1.5.197 2.982.841 4.353 1.953 4.156 5.141 6.31 9.625 6.475l.348.009c1.012.014 1.235.323 1.211 1.273-.035 1.46-.037 2.8-.032 4.158l.01 2.067.002 1.076c0 2.557.018 5.115-.005 7.672-.016 1.886.81 3.297 2.406 4.193.724.406 1.416.61 2.09.616l.202-.004c.806-.04 1.59-.362 2.38-.958 4.654-3.512 9.275-7.068 13.897-10.623.754-.58 1.222-1.376 1.32-2.343.157-1.54-.5-2.718-1.784-3.48q-.786-.465-1.574-.511l-.196-.006c-.718.003-1.426.264-2.1.772-2.88 2.17-5.747 4.353-8.623 6.527l-.1.087-.196.203c-.1.1-.202.19-.316.224l-.078.013a.35.35 0 0 1-.167-.037c-.252-.122-.25-.36-.21-.61l.047-.282q.015-.093.015-.177L40 81.95l-.005-7.204.004-.216.013-.175c.035-.31.141-.397.441-.42l.167-.006.691.003.15-.001C47.25 73.847 51.96 69.229 52 63.446c.044-6.322.002-12.645.017-18.968.003-1.298-.198-2.55-.711-3.73-1.895-4.364-5.301-6.549-9.925-6.74l-.333-.01c-.843-.017-1.06-.245-1.068-1.008v-.14c.038-2.184.025-4.369.024-6.553L40.009 24l-.007-.36c0-.284.02-.552.152-.657l.063-.035.087-.016.093.008c.146.029.308.127.468.243l.348.268c2.781 2.122 5.526 4.294 8.325 6.392a3.76 3.76 0 0 0 2.18.771h.185a3.5 3.5 0 0 0 2.72-1.436c1.176-1.589.88-3.688-.799-4.99L49.32 20.71l-9.03-6.928c-.897-.69-1.763-1.084-2.677-1.114zm25.178 20.816c1.727-.811 3.49-.595 5.045.587L87.17 48.886l1.754 1.346c3.23 2.483 3.21 6.572-.052 9.033L72.056 71.912l-4.265 3.235c-2.7 2.055-6.209 1.315-7.43-1.356-.244-.535-.34-1.046-.358-1.703L60 71.834l.081-29.999-.004-4.082c-.011-1.976.813-3.467 2.517-4.269m4.44 1.384c-1.253-.953-2.619-1.135-4.015-.479-1.387.653-1.95 1.83-1.942 3.359l.005 2.886-.02 10.003-.061 19.978-.001 1.22c0 .527.038 1.03.271 1.54.531 1.163 1.728 1.93 3.109 1.958l.181-.001.183-.01c.797-.057 1.64-.36 2.44-.97 7-5.332 14.062-10.584 21.086-15.885 2.737-2.066 2.747-5.364.045-7.443a1490 1490 0 0 0-8.043-6.13c-4.41-3.344-8.83-6.678-13.238-10.026"/></g></svg>