<svg xmlns="http://www.w3.org/2000/svg" xmlns:ns3="http://www.w3.org/1999/xlink" xmlns:xlink="http://www.w3.org/1999/xlink" viewBox="0 0 128 128"><defs><linearGradient id="a"><stop offset="0" stop-color="#f4f4f4"/><stop offset="1" stop-color="#dbdbdb"/></linearGradient><linearGradient id="d"><stop offset="0" stop-color="#181818" stop-opacity="0"/><stop offset=".5" stop-color="#181818"/><stop offset="1" stop-color="#181818" stop-opacity="0"/></linearGradient><linearGradient id="f"><stop offset="0" stop-color="#181818"/><stop offset="1" stop-color="#181818" stop-opacity="0"/></linearGradient><linearGradient ns3:href="#a" id="k" x1="25.132" x2="25.132" y1=".985" y2="47.013" gradientTransform="matrix(2.62857 0 0 2.52049 .914 -4.358)" gradientUnits="userSpaceOnUse"/><linearGradient ns3:href="#b" id="m" x1="24" x2="24" y1="5.564" y2="42.195" gradientTransform="matrix(2.45946 0 0 3.1081 4.973 -14.595)" gradientUnits="userSpaceOnUse"/><linearGradient id="b"><stop offset="0" stop-color="#fff"/><stop offset=".006" stop-color="#fff" stop-opacity=".235"/><stop offset=".994" stop-color="#fff" stop-opacity=".157"/><stop offset="1" stop-color="#fff" stop-opacity=".392"/></linearGradient><linearGradient ns3:href="#c" id="l" x1="-51.786" x2="-51.786" y1="50.786" y2="2.906" gradientTransform="matrix(2.14563 0 0 2.37913 158.09 -7.746)" gradientUnits="userSpaceOnUse"/><linearGradient id="c"><stop offset="0" stop-opacity=".318"/><stop offset="1" stop-opacity=".24"/></linearGradient><linearGradient ns3:href="#d" id="j" x1="25.058" x2="25.058" y1="47.028" y2="39.999" gradientTransform="matrix(2.8421 0 0 .71429 -4.21 87.43)" gradientUnits="userSpaceOnUse"/><linearGradient ns3:href="#e" id="n" x1="22.004" x2="22.004" y1="47.813" y2="3.364" gradientTransform="matrix(2.65714 0 0 2.64796 -3.995 -7.61)" gradientUnits="userSpaceOnUse"/><linearGradient id="e"><stop offset="0" stop-color="#aaa"/><stop offset="1" stop-color="#c8c8c8"/></linearGradient><radialGradient ns3:href="#f" id="i" cx="4.993" cy="43.5" r="2.5" fx="4.993" fy="43.5" gradientTransform="matrix(5.69496 0 0 1 -52.665 -162.001)" gradientUnits="userSpaceOnUse"/><radialGradient ns3:href="#f" id="g" cx="4.993" cy="43.5" r="2.5" fx="4.993" fy="43.5" gradientTransform="matrix(5.69496 0 0 1 75.335 75.001)" gradientUnits="userSpaceOnUse"/></defs><g stroke-width="1.039" opacity=".2"><path fill="url(#g)" d="M103.789 116.001H118v5h-14.211z" transform="matrix(.92593 0 0 1 4.74 0)"/><path fill="url(#i)" d="M-24.211-121.001H-10v5h-14.211z" transform="matrix(-.92593 0 0 -1 4.74 0)"/><path fill="url(#j)" d="M24.211 116.001h79.579v5H24.211z" transform="matrix(.92593 0 0 1 4.74 0)"/></g><path fill="url(#k)" d="M18 2c21.082 0 92 .007 92 .007V118H18z"/><path fill="none" stroke="url(#l)" stroke-linejoin="round" d="M17.5 1.5c21.311 0 93 .008 93 .008V118.5h-93z"/><path fill="none" stroke="url(#m)" stroke-linecap="round" stroke-linejoin="round" d="M109.5 117.5h-91V2.5h91z"/><path fill="none" stroke="url(#n)" d="M30.5 22.5h6.228zm7.141 0h5.813zm6.726 0h5.148zm5.979 0h2.241zm3.155 0h4.982zm5.978 0H72.6zm13.95 0h10.048zm10.878 0h3.072zm-53.807 6h9.715zm10.795 0h4.65zm5.48 0H49.1zm3.238 0h4.235zm5.149 0h4.317zm5.148 0h6.892zm7.805 0h8.968zm9.798 0h5.979zm6.81 0h1.494zM30.5 34.459h8.22zm9.05 0h13.453zm14.283 0h6.56zm7.39 0h6.145zm6.975 0h5.231zm6.062 0 8.22.082zm8.968.082h13.368ZM30.5 40.5h11.376zm12.29 0h12.289Zm13.119 0h4.899zm5.73 0H73.18zm12.289 0h7.888zm8.801 0h3.156zm3.986 0h1.744zm2.657 0h4.9zm-58.872 6h4.235zm5.563 0h15.694Zm-5.563 10h6.228zm7.141 0h5.73zm6.726 0h5.148zm5.979 0h2.241zm3.155 0h4.982zm5.978 0h13.037zm13.95 0h9.965zm10.795 0h3.155zm3.986 0h7.473zm-57.71 6h10.462zm11.293 0h11.21zm12.04 0h4.318zm5.148 0h10.546zm11.376 0h13.286zm14.2 0h4.898zm-54.057 6h11.376zm12.29 0h12.289Zm13.119 0h4.899zm5.73 0H73.18zm12.289 0h7.888zm8.801 0h3.156zm3.986 0h1.744zm2.657 0h4.9zm-58.872 6h9.715zm10.795 0h4.65zm5.48 0H49.1zm3.238 0h4.235zm5.149 0h4.317zm5.148 0h6.892zm7.805 0h8.968zm9.798 0h5.979zm6.81 0h1.494zM30.5 84.459h8.22zm9.05 0h13.453zm14.283 0h6.56zm7.39 0h6.145zm6.975 0h5.231zm6.062 0 8.22.082zm8.968.082h13.368ZM30.5 90.5h9.715zm10.795 0h4.65zm5.48 0H49.1zm3.238 0h4.235zm5.149 0h4.317zm5.148 0h6.892zm7.805 0h8.968zm9.798 0h5.979zm6.81 0h1.494zm-54.223 6h10.296zm11.21 0h3.238zm4.069 0h7.39zm8.22 0h10.878zm11.791 0h7.39zm8.138 0h1.577zm2.408 0h9.383zm10.38 0h4.898zm-56.216 6h10.296zm11.21 0h4.65zm5.48 0h7.307Zm8.138 0h7.888zm8.801 0h3.156zm3.986 0h1.744zm2.657 0h4.9z"/></svg>