<svg xmlns="http://www.w3.org/2000/svg" xmlns:xlink="http://www.w3.org/1999/xlink" viewBox="0 0 128 128"><defs><linearGradient id="a"><stop offset="0" stop-opacity=".318"/><stop offset="1" stop-opacity=".24"/></linearGradient><linearGradient id="b"><stop offset="0" stop-color="#fff"/><stop offset=".004" stop-color="#fff" stop-opacity=".235"/><stop offset="1" stop-color="#fff" stop-opacity=".157"/><stop offset="1" stop-color="#fff" stop-opacity=".392"/></linearGradient><linearGradient id="c"><stop offset="0" stop-color="#f4f4f4"/><stop offset="1" stop-color="#dbdbdb"/></linearGradient><linearGradient xlink:href="#a" id="t" x1="-51.786" x2="-51.786" y1="50.786" y2="2.906" gradientTransform="matrix(2.69934 0 0 1.8911 182.371 16.15)" gradientUnits="userSpaceOnUse"/><linearGradient xlink:href="#b" id="s" x1="24" x2="24" y1="5.703" y2="42.297" gradientTransform="matrix(3.1081 0 0 2.45945 -10.595 10.973)" gradientUnits="userSpaceOnUse"/><linearGradient xlink:href="#c" id="q" x1="25.132" x2="25.132" y1=".985" y2="47.013" gradientTransform="matrix(3.31428 0 0 1.999 -15.543 18.957)" gradientUnits="userSpaceOnUse"/><linearGradient id="d"><stop offset="0" stop-color="#181818" stop-opacity="0"/><stop offset=".5" stop-color="#181818"/><stop offset="1" stop-color="#181818" stop-opacity="0"/></linearGradient><linearGradient id="k"><stop offset="0" stop-color="#181818"/><stop offset="1" stop-color="#181818" stop-opacity="0"/></linearGradient><linearGradient xlink:href="#d" id="p" x1="25.058" x2="25.058" y1="47.028" y2="39.999" gradientUnits="userSpaceOnUse"/><linearGradient xlink:href="#f" id="r" x1="164.28" x2="164.28" y1="241.651" y2="156.784" gradientTransform="matrix(1.26381 0 0 .97956 -147.75 -125.143)" gradientUnits="userSpaceOnUse"/><linearGradient id="f"><stop offset="0" stop-color="#feaf9d"/><stop offset="1" stop-color="#7f4a98"/></linearGradient><linearGradient id="l"><stop offset="0" stop-color="#ffe6ab"/><stop offset=".82" stop-color="#ffea8a" stop-opacity=".639"/><stop offset="1" stop-color="#e6ff4d" stop-opacity="0"/></linearGradient><linearGradient xlink:href="#h" id="v" x1="27.084" x2="49.414" y1="2.711" y2="25.042" gradientTransform="matrix(5.2083 5.19716 -5.2083 5.19716 -110.547 -112.17)" gradientUnits="userSpaceOnUse"/><linearGradient id="h"><stop offset="0" stop-color="#fff3cb"/><stop offset=".262" stop-color="#fdde76"/><stop offset=".661" stop-color="#f9c440"/><stop offset="1" stop-color="#e48b20"/></linearGradient><linearGradient xlink:href="#i" id="w" x1="71.204" x2="71.204" y1="5.008" y2="44.341" gradientTransform="matrix(3.17696 0 0 3.17823 -207.843 64.018)" gradientUnits="userSpaceOnUse"/><linearGradient id="i"><stop offset="0" stop-color="#fff"/><stop offset=".508" stop-color="#fff" stop-opacity=".235"/><stop offset=".835" stop-color="#fff" stop-opacity=".157"/><stop offset="1" stop-color="#fff" stop-opacity=".392"/></linearGradient><radialGradient xlink:href="#k" id="m" cx="-4.029" cy="93.468" r="35.338" fx="-4.029" fy="93.468" gradientTransform="matrix(1.74033 0 0 .16979 71.011 100.34)" gradientUnits="userSpaceOnUse"/><radialGradient xlink:href="#k" id="n" cx="4.993" cy="43.5" r="2.5" fx="4.993" fy="43.5" gradientTransform="matrix(2.00378 0 0 1.4 27.988 -17.4)" gradientUnits="userSpaceOnUse"/><radialGradient xlink:href="#k" id="o" cx="4.993" cy="43.5" r="2.5" fx="4.993" fy="43.5" gradientTransform="matrix(2.00378 0 0 1.4 -20.012 -104.4)" gradientUnits="userSpaceOnUse"/><radialGradient xlink:href="#l" id="u" cx="10" cy="73" r="30.5" fx="10" fy="73" gradientTransform="matrix(2.46636 0 0 2.4179 -4.611 -30.924)" gradientUnits="userSpaceOnUse"/></defs><path fill="url(#m)" d="M125.5 116.21a61.5 6 0 0 1-123 0 61.5 6 0 1 1 123 0" color="#000" opacity=".2" overflow="visible" style="marker:none"/><g opacity=".4"><path fill="url(#n)" d="M38 40h5v7h-5z" transform="matrix(3.18421 0 0 .71429 -12.421 85.638)"/><path fill="url(#o)" d="M-10-47h5v7h-5z" transform="matrix(-3.18421 0 0 -.71429 -12.421 85.638)"/><path fill="url(#p)" d="M10 40h28v7H10z" transform="matrix(3.18421 0 0 .71429 -12.421 85.638)"/></g><path fill="url(#q)" d="M6 24c26.581 0 116 .006 116 .006V116H6z"/><path fill="url(#r)" d="M10 28h108v84H10z" color="#000" overflow="visible" style="marker:none"/><path fill="none" stroke="url(#s)" stroke-linecap="round" d="M121.5 115.5H6.5v-91h115z"/><path fill="none" stroke="url(#t)" stroke-linejoin="round" d="M5.5 23.5c26.81 0 117 .006 117 .006V116.5H5.5z"/><path fill="url(#u)" fill-rule="evenodd" d="M20.052 70.33c-3.379 0-6.79.244-10.052.677V112h77.196C74.79 87.475 49.375 70.33 20.052 70.33" color="#000" opacity=".6" overflow="visible" style="isolation:auto;mix-blend-mode:normal;solid-color:#000;solid-opacity:1;marker:none"/><path fill="url(#v)" fill-rule="evenodd" d="M20.052 84.791c-3.394 0-6.809.293-10.052.83V112h60.49C59.573 95.778 41.047 84.791 20.053 84.791" color="#000" overflow="visible" style="isolation:auto;mix-blend-mode:normal;solid-color:#000;solid-opacity:1;marker:none"/><path d="M67.306 28a1 1 0 0 0 .086.53c.279.598 1.118.68 2.188.21.954-.42 1.87-.47 2.038-.11.168.361-.162.863-.735 1.114-1.365.6-1.208.835 2.06 3.08 2.53 1.737 3.014 1.79 5.696.618 2.318-1.013 2.945-1.037 2.991-.12.034.67.46 1.001 1.017.786.53-.205.386.197-.316.895-.826.822-.967 1.565-.397 2.102.744.702.063 1.187-4.47 3.177-5.813 2.552-11.571 6.644-15.042 10.693-2.16 2.52-6.211 11.01-5.739 12.025.132.284 1.347.03 2.692-.56 2.012-.884 2.438-1.455 2.406-3.227l-.038-2.153 1.017 1.448 1.021 1.456.838-2.667c.78-2.483.858-2.548 1.196-.992.224 1.033.798 1.638 1.504 1.592.852-.056 1.103.316 1.009 1.48-.115 1.414.143 1.437 2.824.26 2.375-1.043 3.093-1.775 3.675-3.78l.718-2.491.966 1.95c.916 1.853.983 1.864 1.389.226.372-1.5.494-1.579.944-.611.375.805 1.112.844 2.688.151 2.028-.89 1.928-.59-1.47 4.485-2.001 2.989-4.831 8.582-6.29 12.434-2.54 6.703-5.237 18.01-4.188 17.548 1.45-.636 7.538-5.976 7.329-6.427-.135-.29-.286-1.509-.338-2.709-.093-2.16-.077-2.173 1.197-.973 1.799 1.694 3.255.785 3.192-1.993-.056-2.474.857-3.55 1.62-1.912.37.797.697.698 1.837-.54 1.036-1.127 1.156-2.01.466-3.493-.851-1.828-.81-1.929.568-1.195 1.56.832 2.954-.208 2.265-1.69-.261-.56.26-1.008 1.517-1.307 1.052-.251 1.893-.225 1.867.058-.426 4.684-.5 15.97-.128 20.169.448 5.059 2.99 14.213 3.842 13.839.206-.09 1.3-3.147 2.431-6.793 1.31-4.22 1.755-6.995 1.214-7.638-.626-.744-.437-1.198.735-1.713 1.847-.81 2.763-4.467 1.431-5.722-.649-.612-.539-.868.41-.93 1.644-.108 1.443-.545-1.2-2.546-2.086-1.58-2.092-1.597-.218-1.055 1.044.301 2.11.459 2.367.346.736-.323-.622-2.742-1.602-2.853-.486-.056-1.031-.41-1.21-.794-.206-.443.192-.569 1.086-.343 2.493.63 3.445-1.156 1.773-3.332-.81-1.056-1.908-2.131-2.436-2.383-.67-.32-.388-.592.932-.907 1.15-.274 1.74-.749 1.521-1.218-.197-.424.031-.727.5-.674.47.054 1.079-1.26 1.36-2.915.28-1.655.696-3.095.922-3.2C111.206 63.152 115.91 94.03 117 112h1V68.264c-3.229-6.74-6.644-12.543-9.726-15.634-3.857-3.868-4.032-4.435-1.098-3.562 1.643.489 1.751.4 1.658-1.324-.096-1.766-.038-1.751 1.453.246 1.216 1.63 2.604 2.26 6.41 2.908.492.083.844.126 1.303.198V35.151c-.08 0-.159-.008-.24-.008l-3.388.028 2.538-1.133c.394-.176.756-.38 1.09-.592v-5.014L115.808 28h-7.406l-7.303 3.239-.423-2.258c-.054-.287-.167-.65-.252-.981H89.11c-.005.004.01.04.004.043-.023.009-.133-.037-.18-.043zm19.098 20.317c.758.098.875 1.953.017 3.013-.565.697-1.22 1.353-1.453 1.456-.608.266.457-4.099 1.072-4.4a.64.64 0 0 1 .364-.07" opacity=".5"/><path fill="none" stroke="url(#w)" stroke-linejoin="round" d="M69.286 111.71C58.189 96 41 85.793 20.052 85.793c-3.397 0-6.722.295-9.962.848" color="#000" opacity=".8" overflow="visible" style="marker:none"/><path fill="none" stroke="#d25000" d="M70.49 111.699C59.573 95.477 41.047 84.79 20.053 84.79c-3.394 0-6.718.293-9.962.83" color="#000" opacity=".3" overflow="visible" style="isolation:auto;mix-blend-mode:normal;solid-color:#000;solid-opacity:1;marker:none"/><path fill="none" stroke="#000" stroke-linecap="round" d="M10.5 28.5h107v83h-107z" color="#000" opacity=".3" overflow="visible" style="marker:none"/></svg>