<svg xmlns="http://www.w3.org/2000/svg" xmlns:ns3="http://www.w3.org/1999/xlink" xmlns:xlink="http://www.w3.org/1999/xlink" viewBox="0 0 128 128"><defs><linearGradient id="a"><stop offset="0" stop-color="#f4f4f4"/><stop offset="1" stop-color="#dbdbdb"/></linearGradient><linearGradient id="d"><stop offset="0" stop-color="#181818" stop-opacity="0"/><stop offset=".5" stop-color="#181818"/><stop offset="1" stop-color="#181818" stop-opacity="0"/></linearGradient><linearGradient id="q"><stop offset="0" stop-color="#181818"/><stop offset="1" stop-color="#181818" stop-opacity="0"/></linearGradient><linearGradient ns3:href="#a" id="v" x1="25.132" x2="25.132" y1=".985" y2="47.013" gradientTransform="matrix(2.62857 0 0 2.52049 .914 -4.358)" gradientUnits="userSpaceOnUse"/><linearGradient ns3:href="#b" id="x" x1="24" x2="24" y1="5.564" y2="42.195" gradientTransform="matrix(2.45946 0 0 3.1081 4.973 -14.595)" gradientUnits="userSpaceOnUse"/><linearGradient id="b"><stop offset="0" stop-color="#fff"/><stop offset=".006" stop-color="#fff" stop-opacity=".235"/><stop offset=".994" stop-color="#fff" stop-opacity=".157"/><stop offset="1" stop-color="#fff" stop-opacity=".392"/></linearGradient><linearGradient ns3:href="#c" id="w" x1="-51.786" x2="-51.786" y1="50.786" y2="2.906" gradientTransform="matrix(2.14563 0 0 2.37913 158.09 -7.746)" gradientUnits="userSpaceOnUse"/><linearGradient id="c"><stop offset="0" stop-opacity=".318"/><stop offset="1" stop-opacity=".24"/></linearGradient><linearGradient ns3:href="#d" id="u" x1="25.058" x2="25.058" y1="47.028" y2="39.999" gradientTransform="matrix(2.8421 0 0 .71429 -4.21 87.43)" gradientUnits="userSpaceOnUse"/><linearGradient ns3:href="#e" id="N" x1="18.776" x2="18.203" y1="4.038" y2="45.962" gradientTransform="matrix(.88394 0 0 -.88394 42.479 83.099)" gradientUnits="userSpaceOnUse"/><linearGradient id="e"><stop offset="0" stop-color="#fff"/><stop offset="1" stop-color="#fff" stop-opacity="0"/></linearGradient><linearGradient ns3:href="#f" id="M" x1="71.204" x2="71.204" y1="6.238" y2="44.341" gradientTransform="translate(-93.038 6.488)scale(2.18919)" gradientUnits="userSpaceOnUse"/><linearGradient id="f"><stop offset="0" stop-color="#fff"/><stop offset=".508" stop-color="#fff" stop-opacity=".235"/><stop offset=".835" stop-color="#fff" stop-opacity=".157"/><stop offset="1" stop-color="#fff" stop-opacity=".392"/></linearGradient><linearGradient ns3:href="#g" id="H" x1="20.58" x2="24.274" y1="10.775" y2="9.862" gradientUnits="userSpaceOnUse" spreadMethod="reflect"/><linearGradient id="g"><stop offset="0" stop-color="#e6cde2"/><stop offset="1" stop-color="#e6cde2" stop-opacity="0"/></linearGradient><linearGradient ns3:href="#h" id="I" x1="17.495" x2="21.047" y1="11.2" y2="9.796" gradientUnits="userSpaceOnUse" spreadMethod="reflect"/><linearGradient id="h"><stop offset="0" stop-color="#c1cbe4"/><stop offset="1" stop-color="#c1cbe4" stop-opacity="0"/></linearGradient><linearGradient ns3:href="#k" id="J" x1="14.085" x2="16.994" y1="13.046" y2="10.732" gradientUnits="userSpaceOnUse" spreadMethod="reflect"/><linearGradient id="k"><stop offset="0" stop-color="#c4ebdd"/><stop offset="1" stop-color="#c4ebdd" stop-opacity="0"/></linearGradient><linearGradient ns3:href="#l" id="K" x1="12.372" x2="14.609" y1="16.188" y2="13.462" gradientUnits="userSpaceOnUse" spreadMethod="reflect"/><linearGradient id="l"><stop offset="0" stop-color="#ebeec7"/><stop offset="1" stop-color="#ebeec7" stop-opacity="0"/></linearGradient><linearGradient ns3:href="#m" id="L" x1="10.609" x2="9.73" y1="17.886" y2="20.613" gradientUnits="userSpaceOnUse" spreadMethod="reflect"/><linearGradient id="m"><stop offset="0" stop-color="#fcd9cd"/><stop offset="1" stop-color="#fcd9cd" stop-opacity="0"/></linearGradient><linearGradient ns3:href="#n" id="B" x1="21.448" x2="21.448" y1="15.5" y2="32.509" gradientTransform="translate(14.5 11.5)scale(2.0625)" gradientUnits="userSpaceOnUse"/><linearGradient id="n"><stop offset="0" stop-color="#aaa"/><stop offset="1" stop-color="#d4d4d4"/></linearGradient><linearGradient ns3:href="#o" id="z" x1="12.274" x2="35.391" y1="32.416" y2="14.203" gradientTransform="rotate(90 56.994 61.786)scale(2.37145)" gradientUnits="userSpaceOnUse"/><linearGradient id="o" x1="12.274" x2="35.391" y1="32.416" y2="14.203" gradientUnits="userSpaceOnUse"><stop offset="0" stop-color="#dedcde"/><stop offset=".5" stop-color="#f0f0f0"/><stop offset="1" stop-color="#d2d2d2"/></linearGradient><linearGradient ns3:href="#p" id="A" x1="-21.916" x2="-21.916" y1="3" y2="45.033" gradientTransform="translate(117.17 13.122)scale(2.02439)" gradientUnits="userSpaceOnUse"/><linearGradient id="p"><stop offset="0" stop-color="#b4b4b4"/><stop offset="1" stop-color="#969696"/></linearGradient><linearGradient id="r"><stop offset="0"/><stop offset="1" stop-opacity="0"/></linearGradient><linearGradient ns3:href="#g" id="C" x1="20.58" x2="24.274" y1="10.775" y2="9.862" gradientUnits="userSpaceOnUse" spreadMethod="reflect"/><linearGradient ns3:href="#h" id="D" x1="17.495" x2="21.047" y1="11.2" y2="9.796" gradientUnits="userSpaceOnUse" spreadMethod="reflect"/><linearGradient ns3:href="#k" id="E" x1="14.085" x2="16.994" y1="13.046" y2="10.732" gradientUnits="userSpaceOnUse" spreadMethod="reflect"/><linearGradient ns3:href="#l" id="F" x1="12.372" x2="14.609" y1="16.188" y2="13.462" gradientUnits="userSpaceOnUse" spreadMethod="reflect"/><linearGradient ns3:href="#m" id="G" x1="10.609" x2="9.73" y1="17.886" y2="20.613" gradientUnits="userSpaceOnUse" spreadMethod="reflect"/><radialGradient ns3:href="#q" id="t" cx="4.993" cy="43.5" r="2.5" fx="4.993" fy="43.5" gradientTransform="matrix(5.69496 0 0 1 -52.665 -162.001)" gradientUnits="userSpaceOnUse"/><radialGradient ns3:href="#q" id="s" cx="4.993" cy="43.5" r="2.5" fx="4.993" fy="43.5" gradientTransform="matrix(5.69496 0 0 1 75.335 75.001)" gradientUnits="userSpaceOnUse"/><radialGradient ns3:href="#r" id="y" cx="23.335" cy="41.636" r="22.627" fx="23.335" fy="41.636" gradientTransform="matrix(1.94454 0 0 .57447 18.625 70.081)" gradientUnits="userSpaceOnUse"/></defs><g stroke-width="1.039" opacity=".2"><path fill="url(#s)" d="M103.789 116.001H118v5h-14.211z" transform="matrix(.92593 0 0 1 4.74 0)"/><path fill="url(#t)" d="M-24.211-121.001H-10v5h-14.211z" transform="matrix(-.92593 0 0 -1 4.74 0)"/><path fill="url(#u)" d="M24.211 116.001h79.579v5H24.211z" transform="matrix(.92593 0 0 1 4.74 0)"/></g><path fill="url(#v)" d="M18 2c21.082 0 92 .007 92 .007V118H18z"/><path fill="none" stroke="url(#w)" stroke-linejoin="round" d="M17.5 1.5c21.311 0 93 .008 93 .008V118.5h-93z"/><path fill="none" stroke="url(#x)" stroke-linecap="round" stroke-linejoin="round" d="M109.5 117.5h-91V2.5h91z"/><path fill="url(#y)" fill-rule="evenodd" d="M108 94c.002 7.18-19.698 13-44 13s-44.002-5.82-44-13c-.002-7.18 19.698-13 44-13s44.002 5.82 44 13" opacity=".3" overflow="visible" style="marker:none"/><path fill="url(#z)" stroke="url(#A)" d="M105.5 61.707a41.394 41.394 0 0 0-41.5-41.5 41.394 41.394 0 0 0-41.5 41.5 41.394 41.394 0 0 0 41.5 41.5 41.394 41.394 0 0 0 41.5-41.5Zm-24.956 0c0 8.357-8.02 15.845-16.544 15.845-8.691 0-16.544-7.657-16.544-15.845 0-8.355 6.122-17.329 16.544-17.329 10.771 0 16.544 9.14 16.544 17.329z"/><path fill="#fff" fill-opacity=".498" stroke="url(#B)" stroke-linejoin="round" d="M64 44.5c-9.108 0-16.5 7.392-16.5 16.5S54.892 77.5 64 77.5 80.5 70.108 80.5 61 73.108 44.5 64 44.5zm0 8.25A8.253 8.253 0 0 1 72.25 61 8.253 8.253 0 0 1 64 69.25 8.253 8.253 0 0 1 55.75 61 8.253 8.253 0 0 1 64 52.75z" overflow="visible" style="marker:none"/><path fill="url(#C)" d="m15.857 5.73 4.768 10.614A8.3 8.3 0 0 1 24 15.625h.094l.014-11.62c-2.942-.07-5.543.657-8.251 1.726" opacity=".8" transform="rotate(1.618 -429.407 618.165)scale(1.96509)"/><path fill="url(#D)" d="m12.121 7.906 6.931 9.36a8.3 8.3 0 0 1 3.143-1.425l.092-.02-2.43-11.395c-2.889.562-5.32 1.856-7.736 3.48" opacity=".8" transform="translate(15.927 13.693)scale(1.96509)"/><path fill="url(#E)" d="m8.252 11.647 9.214 7.155a8.3 8.3 0 0 1 2.667-2.19l.083-.043-5.35-10.318c-2.645 1.29-4.7 3.201-6.614 5.396" opacity=".8" transform="translate(15.927 13.693)scale(1.96509)"/><path fill="url(#F)" d="M5.633 16.074c7.175 2.242 7.85 7.031 12.777 1.754L10.5 9.132c-2.221 1.93-3.587 4.327-4.867 6.942" opacity=".8" transform="translate(15.927 13.693)scale(1.96509)"/><path fill="url(#G)" d="M7.155 13.193c-1.183 1.752-1.907 3.637-2.525 5.644l11.339 2.976a8.2 8.2 0 0 1 .969-2.22L17 19.5Z" opacity=".8" transform="translate(15.927 13.693)scale(1.96509)"/><path fill="url(#H)" d="m15.857 5.73 4.768 10.614A8.3 8.3 0 0 1 24 15.625h.094l.014-11.62c-2.942-.07-5.543.657-8.251 1.726" opacity=".8" transform="rotate(181.618 56.236 54.926)scale(2.01212)"/><path fill="url(#I)" d="m12.121 7.906 6.931 9.36a8.3 8.3 0 0 1 3.143-1.425l.092-.02-2.43-11.395c-2.889.562-5.32 1.856-7.736 3.48" opacity=".8" transform="translate(112.29 110.068)scale(-2.01212)"/><path fill="url(#J)" d="m8.252 11.647 9.214 7.155a8.3 8.3 0 0 1 2.667-2.19l.083-.043-5.35-10.318c-2.645 1.29-4.7 3.201-6.614 5.396" opacity=".8" transform="translate(112.29 110.068)scale(-2.01212)"/><path fill="url(#K)" d="M5.633 16.074c7.175 2.242 7.85 7.031 12.777 1.754L10.5 9.132c-2.221 1.93-3.587 4.327-4.867 6.942" opacity=".8" transform="translate(112.29 110.068)scale(-2.01212)"/><path fill="url(#L)" d="M7.155 13.193c-1.183 1.752-1.907 3.637-2.525 5.644l11.339 2.976a8.2 8.2 0 0 1 .969-2.22L17 19.5Z" opacity=".8" transform="translate(112.29 110.068)scale(-2.01212)"/><path fill="none" stroke="url(#M)" stroke-linecap="round" stroke-linejoin="round" d="M104.5 61.999c0 22.368-18.134 40.501-40.5 40.501-22.367 0-40.5-18.133-40.5-40.501S41.633 21.5 64 21.5c22.366 0 40.5 18.131 40.5 40.499" color="#000" opacity=".55" overflow="visible" style="marker:none"/><path fill="none" stroke="url(#N)" d="M64 78.5c-9.7 0-17.5-7.8-17.5-17.5S54.3 43.5 64 43.5 81.5 51.3 81.5 61 73.7 78.5 64 78.5z" opacity=".4"/></svg>