<svg xmlns="http://www.w3.org/2000/svg" xmlns:xlink="http://www.w3.org/1999/xlink" viewBox="0 0 128 128"><defs><linearGradient id="i"><stop offset="0" stop-color="#43d6b5"/><stop offset="1" stop-color="#28bca3"/></linearGradient><linearGradient id="j"><stop offset="0"/><stop offset="1" stop-opacity="0"/></linearGradient><linearGradient xlink:href="#a" id="z" x1="24" x2="24" y1="5" y2="43" gradientTransform="matrix(2.45946 0 0 2.8919 4.973 -5.405)" gradientUnits="userSpaceOnUse"/><linearGradient id="a"><stop offset="0" stop-color="#fff"/><stop offset=".027" stop-color="#fff" stop-opacity=".235"/><stop offset=".974" stop-color="#fff" stop-opacity=".157"/><stop offset="1" stop-color="#fff" stop-opacity=".392"/></linearGradient><linearGradient id="k"><stop offset="0" stop-color="#5f5f5f"/><stop offset=".262" stop-color="#4f4f4f"/><stop offset=".705" stop-color="#3b3b3b"/><stop offset="1" stop-color="#2b2b2b"/></linearGradient><linearGradient xlink:href="#b" id="y" x1="24" x2="24" y1="44" y2="3.899" gradientTransform="matrix(2.6 0 0 2.79487 5.8 -3.077)" gradientUnits="userSpaceOnUse"/><linearGradient id="b"><stop offset="0" stop-color="#272727"/><stop offset="1" stop-color="#454545"/></linearGradient><linearGradient xlink:href="#d" id="u" x1="10.654" x2="10.654" y1="1" y2="3" gradientTransform="matrix(2.6 0 0 2.75002 .6 .125)" gradientUnits="userSpaceOnUse"/><linearGradient id="d"><stop offset="0" stop-color="#f5f5f5"/><stop offset="1" stop-color="#e1e1e1"/></linearGradient><linearGradient xlink:href="#f" id="v" x1="24" x2="24" y1="44" y2="3.899" gradientTransform="matrix(2.6 0 0 .28205 5.8 .23)" gradientUnits="userSpaceOnUse"/><linearGradient id="f"><stop offset="0" stop-color="#272727"/><stop offset="1" stop-color="#454545"/></linearGradient><linearGradient xlink:href="#d" id="s" x1="24.627" x2="24.64" y1="3.123" y2="4.883" gradientTransform="matrix(2.66467 0 0 4.09259 4.354 -10.572)" gradientUnits="userSpaceOnUse"/><linearGradient xlink:href="#g" id="t" x1="5.212" x2="54.887" y1=".065" y2=".065" gradientTransform="matrix(1.90095 0 0 1.9881 6.824 .04)" gradientUnits="userSpaceOnUse"/><linearGradient id="g"><stop offset="0" stop-color="#0e9a83"/><stop offset=".96" stop-color="#0e9a83"/><stop offset=".963" stop-color="#c2c2c2"/><stop offset="1" stop-color="#c2c2c2"/></linearGradient><linearGradient id="n"><stop offset="0" stop-color="#181818"/><stop offset="1" stop-color="#181818" stop-opacity="0"/></linearGradient><linearGradient id="o"><stop offset="0" stop-color="#181818"/><stop offset="1" stop-color="#181818" stop-opacity="0"/></linearGradient><linearGradient xlink:href="#h" id="r" x1="25.058" x2="25.058" y1="47.028" y2="39.999" gradientUnits="userSpaceOnUse"/><linearGradient id="h"><stop offset="0" stop-color="#181818" stop-opacity="0"/><stop offset=".5" stop-color="#181818"/><stop offset="1" stop-color="#181818" stop-opacity="0"/></linearGradient><linearGradient xlink:href="#i" id="w" x1="72" x2="72" y1="10" y2="118" gradientUnits="userSpaceOnUse"/><radialGradient xlink:href="#j" id="A" cx="64.389" cy="114.831" r="52.5" fx="64.389" fy="114.831" gradientTransform="matrix(1.33334 0 0 .082 -19.852 -3.924)" gradientUnits="userSpaceOnUse"/><radialGradient xlink:href="#k" id="x" cx="7.496" cy="8.45" r="20" fx="7.496" fy="8.45" gradientTransform="matrix(0 6.53159 -6.42787 0 122.514 -37.83)" gradientUnits="userSpaceOnUse"/><radialGradient xlink:href="#n" id="p" cx="4.993" cy="43.5" r="2.5" fx="4.993" fy="43.5" gradientTransform="matrix(2.00378 0 0 1.4 27.988 -17.4)" gradientUnits="userSpaceOnUse"/><radialGradient xlink:href="#o" id="q" cx="4.993" cy="43.5" r="2.5" fx="4.993" fy="43.5" gradientTransform="matrix(2.00378 0 0 1.4 -20.012 -104.4)" gradientUnits="userSpaceOnUse"/></defs><g opacity=".4"><path fill="url(#p)" d="M38 40h5v7h-5z" transform="matrix(2.78947 0 0 1.85714 -2.947 35.714)"/><path fill="url(#q)" d="M-10-47h5v7h-5z" transform="matrix(-2.78947 0 0 -1.85714 -2.947 35.714)"/><path fill="url(#r)" d="M10 40h28v7H10z" transform="matrix(2.78947 0 0 1.85714 -2.947 35.714)"/></g><path fill="url(#s)" stroke="url(#t)" stroke-linejoin="round" stroke-miterlimit="0" stroke-width="1.017" d="M109.491 10.365c-.784-2.638-.295-6.34-.728-8.856H28.509l.473 7.982"/><path fill="url(#u)" stroke="url(#v)" stroke-linecap="round" stroke-linejoin="round" d="M30.5 12.5H20.1c-1.484 0-2.6-.116-2.6-.268V4.086c0-1.936.644-2.586 2.547-2.586H30.5" color="#000" overflow="visible" style="marker:none"/><rect width="90.299" height="108.981" x="20.192" y="9.494" fill="url(#w)" stroke="#0e9a83" stroke-linecap="round" stroke-linejoin="round" stroke-miterlimit="0" stroke-width="1.019" rx="2" ry="2"/><path fill="#007367" stroke="#007367" stroke-linecap="round" stroke-linejoin="round" stroke-width="2" d="M69.5 37C60.393 37 53 44.393 53 53.5S60.393 70 69.5 70 86 62.607 86 53.5 78.607 37 69.5 37m-6.078 35a.5.5 0 0 0-.1.01c-3.84.78-7.897 2.319-11.142 4.562s-5.7 5.22-6.176 8.864L46 85.5V89a5 5 0 0 0 5 5h37a5 5 0 0 0 5-5v-3.5l-.004-.055c-.406-3.646-3.544-6.925-7.135-9.355s-7.637-4.023-10.27-4.09h-.013z" color="#000" font-family="sans-serif" font-weight="400" opacity=".05" overflow="visible" style="line-height:normal;font-variant-ligatures:normal;font-variant-position:normal;font-variant-caps:normal;font-variant-numeric:normal;font-variant-alternates:normal;font-variant-east-asian:normal;font-feature-settings:normal;font-variation-settings:normal;text-indent:0;text-align:start;text-decoration-line:none;text-decoration-style:solid;text-decoration-color:#000;text-transform:none;text-orientation:mixed;white-space:normal;shape-padding:0;shape-margin:0;inline-size:0;isolation:auto;mix-blend-mode:normal;solid-color:#000;solid-opacity:1;marker:none"/><path fill="#007367" d="M69.5 37C60.393 37 53 44.393 53 53.5S60.393 70 69.5 70 86 62.607 86 53.5 78.607 37 69.5 37m-6.078 35a.5.5 0 0 0-.1.01c-3.84.78-7.897 2.319-11.142 4.562s-5.7 5.22-6.176 8.864L46 85.5V89a5 5 0 0 0 5 5h37a5 5 0 0 0 5-5v-3.5l-.004-.055c-.406-3.646-3.544-6.925-7.135-9.355s-7.637-4.023-10.27-4.09h-.013z" color="#000" font-family="sans-serif" font-weight="400" opacity=".15" overflow="visible" style="line-height:normal;font-variant-ligatures:normal;font-variant-position:normal;font-variant-caps:normal;font-variant-numeric:normal;font-variant-alternates:normal;font-variant-east-asian:normal;font-feature-settings:normal;font-variation-settings:normal;text-indent:0;text-align:start;text-decoration-line:none;text-decoration-style:solid;text-decoration-color:#000;text-transform:none;text-orientation:mixed;white-space:normal;shape-padding:0;shape-margin:0;inline-size:0;isolation:auto;mix-blend-mode:normal;solid-color:#000;solid-opacity:1;marker:none"/><path fill="#fafafa" d="M69.5 36C60.393 36 53 43.393 53 52.5S60.393 69 69.5 69 86 61.607 86 52.5 78.607 36 69.5 36m-6.078 35a.5.5 0 0 0-.1.01c-3.84.78-7.897 2.319-11.142 4.562s-5.7 5.22-6.176 8.864L46 84.5V88a5 5 0 0 0 5 5h37a5 5 0 0 0 5-5v-3.5l-.004-.055c-.406-3.646-3.544-6.925-7.135-9.355s-7.637-4.023-10.27-4.09h-.013z" color="#000" font-family="sans-serif" font-weight="400" overflow="visible" style="line-height:normal;font-variant-ligatures:normal;font-variant-position:normal;font-variant-caps:normal;font-variant-numeric:normal;font-variant-alternates:normal;font-variant-east-asian:normal;font-feature-settings:normal;font-variation-settings:normal;text-indent:0;text-align:start;text-decoration-line:none;text-decoration-style:solid;text-decoration-color:#000;text-transform:none;text-orientation:mixed;white-space:normal;shape-padding:0;shape-margin:0;inline-size:0;isolation:auto;mix-blend-mode:normal;solid-color:#000;solid-opacity:1;marker:none"/><path fill="url(#x)" stroke="url(#y)" stroke-linecap="round" stroke-linejoin="round" d="M30.5 9.5v109H19.771c-1.484 0-2.271-.875-2.271-2.38V9.5z" color="#000" overflow="visible" style="marker:none"/><rect width="91" height="107" x="18.5" y="10.5" fill="none" stroke="url(#z)" stroke-linecap="round" stroke-linejoin="round" opacity=".5" rx="1" ry="1"/><path fill="none" stroke="url(#A)" d="M18.5 3.5h92m-92 2h92m-92 2h92" opacity=".1"/></svg>