<svg xmlns="http://www.w3.org/2000/svg" xmlns:ns3="http://www.w3.org/1999/xlink" xmlns:xlink="http://www.w3.org/1999/xlink" viewBox="0 0 128 128"><defs><linearGradient id="a"><stop offset="0" stop-color="#f4f4f4"/><stop offset="1" stop-color="#dbdbdb"/></linearGradient><linearGradient id="d"><stop offset="0" stop-color="#181818" stop-opacity="0"/><stop offset=".5" stop-color="#181818"/><stop offset="1" stop-color="#181818" stop-opacity="0"/></linearGradient><linearGradient id="f"><stop offset="0" stop-color="#181818"/><stop offset="1" stop-color="#181818" stop-opacity="0"/></linearGradient><linearGradient ns3:href="#a" id="k" x1="25.132" x2="25.132" y1=".985" y2="47.013" gradientTransform="matrix(2.62857 0 0 2.52049 .914 -4.358)" gradientUnits="userSpaceOnUse"/><linearGradient ns3:href="#b" id="m" x1="24" x2="24" y1="5.564" y2="42.195" gradientTransform="matrix(2.45946 0 0 3.1081 4.973 -14.595)" gradientUnits="userSpaceOnUse"/><linearGradient id="b"><stop offset="0" stop-color="#fff"/><stop offset=".006" stop-color="#fff" stop-opacity=".235"/><stop offset=".994" stop-color="#fff" stop-opacity=".157"/><stop offset="1" stop-color="#fff" stop-opacity=".392"/></linearGradient><linearGradient ns3:href="#c" id="l" x1="-51.786" x2="-51.786" y1="50.786" y2="2.906" gradientTransform="matrix(2.14563 0 0 2.37913 158.09 -7.746)" gradientUnits="userSpaceOnUse"/><linearGradient id="c"><stop offset="0" stop-opacity=".318"/><stop offset="1" stop-opacity=".24"/></linearGradient><linearGradient ns3:href="#d" id="j" x1="25.058" x2="25.058" y1="47.028" y2="39.999" gradientTransform="matrix(2.8421 0 0 .71429 -4.21 87.43)" gradientUnits="userSpaceOnUse"/><linearGradient ns3:href="#e" id="n" x1="22.004" x2="22.004" y1="47.813" y2="3.364" gradientTransform="matrix(-2.65714 0 0 2.64796 131.571 -7.61)" gradientUnits="userSpaceOnUse"/><linearGradient id="e"><stop offset="0" stop-color="#aaa"/><stop offset="1" stop-color="#c8c8c8"/></linearGradient><radialGradient ns3:href="#f" id="i" cx="4.993" cy="43.5" r="2.5" fx="4.993" fy="43.5" gradientTransform="matrix(5.69496 0 0 1 -52.665 -162.001)" gradientUnits="userSpaceOnUse"/><radialGradient ns3:href="#f" id="g" cx="4.993" cy="43.5" r="2.5" fx="4.993" fy="43.5" gradientTransform="matrix(5.69496 0 0 1 75.335 75.001)" gradientUnits="userSpaceOnUse"/></defs><g stroke-width="1.039" opacity=".2"><path fill="url(#g)" d="M103.789 116.001H118v5h-14.211z" transform="matrix(.92593 0 0 1 4.74 0)"/><path fill="url(#i)" d="M-24.211-121.001H-10v5h-14.211z" transform="matrix(-.92593 0 0 -1 4.74 0)"/><path fill="url(#j)" d="M24.211 116.001h79.579v5H24.211z" transform="matrix(.92593 0 0 1 4.74 0)"/></g><path fill="url(#k)" d="M18 2c21.082 0 92 .007 92 .007V118H18z"/><path fill="none" stroke="url(#l)" stroke-linejoin="round" d="M17.5 1.5c21.311 0 93 .008 93 .008V118.5h-93z"/><path fill="none" stroke="url(#m)" stroke-linecap="round" stroke-linejoin="round" d="M109.5 117.5h-91V2.5h91z"/><path fill="none" stroke="url(#n)" d="M97.076 22.5h-6.228zm-7.141 0h-5.813zm-6.726 0H78.06zm-5.979 0h-2.242zm-3.155 0h-4.982zm-5.979 0h-13.12Zm-13.95 0H44.1Zm-10.877 0h-3.073Zm53.807 6H87.36zm-10.795 0h-4.65Zm-5.48 0h-2.325zm-3.239 0h-4.234zm-5.148 0h-4.318zm-5.148 0h-6.892zm-7.805 0h-8.968zm-9.799 0h-5.978zm-6.809 0H41.36zm54.223 5.959h-8.22zm-9.051 0H74.573Zm-14.282 0h-6.56zm-7.39 0h-6.145zm-6.975 0h-5.232zm-6.062 0-8.22.082zm-8.968.082H30.98ZM97.076 40.5H85.7Zm-12.29 0H72.497Zm-13.12 0h-4.898zm-5.729 0H54.395Zm-12.289 0H45.76zm-8.802 0h-3.155zm-3.985 0h-1.744zm-2.658 0h-4.899zm58.873 6H92.84Zm-5.564 0H75.82Zm5.564 10h-6.228zm-7.141 0h-5.73zm-6.726 0H78.06zm-5.979 0h-2.242zm-3.155 0h-4.982zm-5.979 0H55.06Zm-13.95 0h-9.964zm-10.794 0h-3.156Zm-3.986 0h-7.473zm57.71 6H86.613Zm-11.293 0h-11.21Zm-12.04 0h-4.318zm-5.148 0H58.049Zm-11.376 0H43.933Zm-14.2 0H38.12Zm54.057 6H85.7Zm-12.29 0H72.497Zm-13.12 0h-4.898zm-5.729 0H54.395Zm-12.289 0H45.76zm-8.802 0h-3.155zm-3.985 0h-1.744zm-2.658 0h-4.899zm58.873 6H87.36zm-10.795 0h-4.65Zm-5.48 0h-2.325zm-3.239 0h-4.234zm-5.148 0h-4.318zm-5.148 0h-6.892zm-7.805 0h-8.968zm-9.799 0h-5.978zm-6.809 0H41.36zm54.223 9.959h-8.22zm-9.051 0H74.573Zm-14.282 0h-6.56zm-7.39 0h-6.145zm-6.975 0h-5.232zm-6.062 0-8.22.082zm-8.968.082H30.98ZM97.076 90.5H87.36zm-10.795 0h-4.65Zm-5.48 0h-2.325zm-3.239 0h-4.234zm-5.148 0h-4.318zm-5.148 0h-6.892zm-7.805 0h-8.968zm-9.799 0h-5.978zm-6.809 0H41.36zm54.223 6H86.779Zm-11.21 0h-3.238zm-4.069 0h-7.39zm-8.22 0H62.699Zm-11.791 0h-7.39zm-8.138 0H52.07zm-2.408 0h-9.383zm-10.38 0h-4.898zm56.216 6H86.779Zm-11.21 0h-4.65Zm-5.48 0h-7.308zm-8.138 0H64.36zm-8.802 0h-3.155zm-3.985 0h-1.744zm-2.658 0h-4.899z"/></svg>