<svg xmlns="http://www.w3.org/2000/svg" xmlns:xlink="http://www.w3.org/1999/xlink" viewBox="0 0 128 128"><defs><linearGradient id="h"><stop offset="0"/><stop offset="1" stop-opacity="0"/></linearGradient><linearGradient xlink:href="#a" id="v" x1="25.086" x2="25.086" y1="-1.362" y2="18.299" gradientTransform="matrix(2.71653 0 0 2.29688 -1.14 20.805)" gradientUnits="userSpaceOnUse"/><linearGradient id="a"><stop offset="0" stop-color="#fff"/><stop offset=".114" stop-color="#fff" stop-opacity=".235"/><stop offset=".939" stop-color="#fff" stop-opacity=".157"/><stop offset="1" stop-color="#fff" stop-opacity=".392"/></linearGradient><linearGradient xlink:href="#b" id="u" x1="24.537" x2="24.537" y1="21.915" y2="9.93" gradientTransform="matrix(2.98161 0 0 2.46902 -7.522 -9.318)" gradientUnits="userSpaceOnUse"/><linearGradient id="b"><stop offset="0" stop-color="#fff"/><stop offset=".331" stop-color="#fff"/><stop offset=".366" stop-color="#fff" stop-opacity=".643"/><stop offset="1" stop-color="#fff" stop-opacity=".391"/></linearGradient><linearGradient xlink:href="#c" id="q" x1="24" x2="24" y1="5.92" y2="42.08" gradientTransform="matrix(2.72973 0 0 2.24324 -1.514 22.162)" gradientUnits="userSpaceOnUse"/><linearGradient id="c"><stop offset="0" stop-color="#fff"/><stop offset=".093" stop-color="#fff" stop-opacity=".235"/><stop offset=".907" stop-color="#fff" stop-opacity=".157"/><stop offset="1" stop-color="#fff" stop-opacity=".392"/></linearGradient><linearGradient xlink:href="#d" id="p" x1="23.452" x2="43.007" y1="30.555" y2="45.934" gradientTransform="matrix(3.20163 0 0 2.92087 -11.268 -5.353)" gradientUnits="userSpaceOnUse"/><linearGradient id="d"><stop offset="0" stop-color="#fff" stop-opacity="0"/><stop offset="1" stop-color="#fff" stop-opacity="0"/></linearGradient><linearGradient xlink:href="#f" id="o" x1="-5.887" x2="-5.887" y1="19.721" y2="43.376" gradientTransform="matrix(3.22108 0 0 3.44727 108.332 -32.505)" gradientUnits="userSpaceOnUse"/><linearGradient id="f"><stop offset="0" stop-color="#e7c591"/><stop offset="1" stop-color="#cfa25e"/></linearGradient><linearGradient xlink:href="#f" id="n" x1="-5.887" x2="-5.887" y1="11.483" y2="22.149" gradientTransform="matrix(3.2211 0 0 3.45057 108.37 -32.985)" gradientUnits="userSpaceOnUse"/><linearGradient xlink:href="#g" id="k" x1="17.554" x2="17.554" y1="46" y2="35" gradientTransform="matrix(4.26087 0 0 2.9091 106.718 -55.82)" gradientUnits="userSpaceOnUse"/><linearGradient id="g"><stop offset="0" stop-opacity="0"/><stop offset=".5"/><stop offset="1" stop-opacity="0"/></linearGradient><radialGradient xlink:href="#h" id="l" cx="5" cy="41.5" r="5" fx="5" fy="41.5" gradientTransform="matrix(2.00577 0 0 3.2 245.822 -194.8)" gradientUnits="userSpaceOnUse"/><radialGradient xlink:href="#h" id="j" cx="5" cy="41.5" r="5" fx="5" fy="41.5" gradientTransform="matrix(2.00577 0 0 3.2 -167.878 -194.8)" gradientUnits="userSpaceOnUse"/></defs><rect width="103" height="103" x="12.5" y="15.502" fill="none" color="#000" opacity=".5" overflow="visible" rx="10" ry="10" style="marker:none"/><g stroke-width="1.035"><path fill="url(#j)" d="M-157.848-78h10v32h-10z" opacity=".4" transform="matrix(-.93413 0 0 -1 -129.223 45)"/><path fill="url(#k)" d="M157.848 46h98v32h-98z" opacity=".4" transform="matrix(.93413 0 0 1 -129.223 45)"/><path fill="url(#l)" d="M255.848-78h10v32h-10z" opacity=".4" transform="matrix(.93413 0 0 -1 -129.223 45)"/></g><path fill="url(#n)" d="M31.227 15.5c-6.225 0-8.708 3.663-11.236 9.333-1.938 4.335-4.193 8.82-5.984 13.067a11.14 11.14 0 0 0-1.507 5.6h103a11.14 11.14 0 0 0-1.507-5.6c-1.84-4.226-3.992-8.756-5.984-13.067-2.605-5.635-5.011-9.333-11.236-9.333Z" color="#000" overflow="visible" style="font-variation-settings:normal;-inkscape-stroke:none;marker:none"/><path fill="url(#o)" d="M23.736 34C19.055 34 12.5 36.484 12.5 46.407v62.095c0 5.54 4.46 10 10 10h83c5.54 0 10-4.46 10-10V47.09c0-6.986-2.81-13.091-11.236-13.091Z" color="#000" overflow="visible" style="font-variation-settings:normal;-inkscape-stroke:none;marker:none"/><path fill="none" stroke="url(#p)" stroke-width=".742" d="M28.73 31.487h69.045c4.032 0 6.527 1.384 8.216 5.188l5.815 15.964v57.548c0 3.631-2.045 5.46-6.075 5.46H21.5c-4.03 0-5.674-2.012-5.674-5.642v-57.37l5.627-16.305c1.124-2.946 3.245-4.844 7.275-4.844z" display="block" opacity=".505" overflow="visible" style="marker:none"/><rect width="101" height="83" x="13.5" y="34.5" fill="none" stroke="url(#q)" stroke-linecap="round" stroke-linejoin="round" opacity=".3" rx="9.363" ry="9.324"/><path fill="url(#u)" d="M59 15h10l.926 19L70 45c-1.173 0-2.348-1.903-3.522-1.903-1.2 0-2.403 1.903-3.606 1.903-.966 0-1.934-1.666-2.902-1.666-.632 0-1.264 1.666-1.896 1.666L58 34z" opacity=".3" overflow="visible" style="marker:none"/><path fill="none" stroke="#804b00" stroke-opacity=".5" d="M31.227 15.5c-6.225 0-8.709 3.675-11.237 9.363-1.938 4.349-4.19 8.849-5.982 13.11A11.2 11.2 0 0 0 12.5 43.59v64.91c0 5.54 4.46 10 10 10h83c5.54 0 10-4.46 10-10V43.59c0-2.052-.555-3.965-1.508-5.617-1.84-4.24-3.99-8.785-5.982-13.11-2.605-5.653-5.012-9.363-11.237-9.363z" color="#000" overflow="visible" style="font-variation-settings:normal;-inkscape-stroke:none;marker:none"/><path fill="none" stroke="url(#v)" stroke-linecap="round" stroke-linejoin="round" d="m112.685 37.406-5.873-12.596c-1.291-2.79-2.494-4.935-3.893-6.27s-3.643-2.04-6.406-2.04H31.299c-2.767 0-4.812.704-6.216 2.032-1.403 1.33-2.597 3.458-3.844 6.252v.004l-6.09 12.766" color="#000" opacity=".15" overflow="visible" style="font-variation-settings:normal;-inkscape-stroke:none;marker:none"/></svg>