<svg xmlns="http://www.w3.org/2000/svg" xmlns:ns3="http://www.w3.org/1999/xlink" xmlns:xlink="http://www.w3.org/1999/xlink" viewBox="0 0 128 128"><defs><linearGradient id="c"><stop offset="0" stop-color="#485a6c"/><stop offset="1" stop-color="#667885"/></linearGradient><linearGradient ns3:href="#a" id="n" x1="24" x2="24" y1="5.683" y2="42.317" gradientTransform="translate(-1.514 1.487)scale(2.72973)" gradientUnits="userSpaceOnUse"/><linearGradient id="a"><stop offset="0" stop-color="#fff"/><stop offset=".085" stop-color="#fff" stop-opacity=".235"/><stop offset=".915" stop-color="#fff" stop-opacity=".157"/><stop offset="1" stop-color="#fff" stop-opacity=".392"/></linearGradient><linearGradient id="d"><stop offset="0" stop-color="#181818"/><stop offset="1" stop-color="#181818" stop-opacity="0"/></linearGradient><linearGradient id="f"><stop offset="0" stop-color="#181818"/><stop offset="1" stop-color="#181818" stop-opacity="0"/></linearGradient><linearGradient ns3:href="#b" id="l" x1="25.058" x2="25.058" y1="47.028" y2="39.999" gradientUnits="userSpaceOnUse"/><linearGradient id="b"><stop offset="0" stop-color="#181818" stop-opacity="0"/><stop offset=".5" stop-color="#181818"/><stop offset="1" stop-color="#181818" stop-opacity="0"/></linearGradient><linearGradient id="h"><stop offset="0"/><stop offset="1" stop-opacity="0"/></linearGradient><linearGradient ns3:href="#c" id="m" x1="90.729" x2="90.729" y1="118.178" y2="15.161" gradientUnits="userSpaceOnUse"/><radialGradient ns3:href="#d" id="j" cx="4.993" cy="43.5" r="2.5" fx="4.993" fy="43.5" gradientTransform="matrix(2.00378 0 0 1.4 27.988 -17.4)" gradientUnits="userSpaceOnUse"/><radialGradient ns3:href="#f" id="k" cx="4.993" cy="43.5" r="2.5" fx="4.993" fy="43.5" gradientTransform="matrix(2.00378 0 0 1.4 -20.012 -104.4)" gradientUnits="userSpaceOnUse"/><radialGradient ns3:href="#h" id="i" cx="-4.029" cy="93.468" r="35.338" fx="-4.029" fy="93.468" gradientTransform="matrix(1.5564 0 0 .16979 70.27 102.13)" gradientUnits="userSpaceOnUse"/></defs><path fill="url(#i)" d="M119 118a55 6 0 0 1-110 0 55 6 0 1 1 110 0" color="#000" opacity=".2" overflow="visible" style="marker:none"/><g opacity=".4"><path fill="url(#j)" d="M38 40h5v7h-5z" transform="matrix(2.8421 0 0 .71429 -4.21 87.429)"/><path fill="url(#k)" d="M-10-47h5v7h-5z" transform="matrix(-2.8421 0 0 -.71429 -4.21 87.429)"/><path fill="url(#l)" d="M10 40h28v7H10z" transform="matrix(2.8421 0 0 .71429 -4.21 87.429)"/></g><rect width="103" height="103" x="12.5" y="15.5" fill="url(#m)" stroke="#273445" stroke-opacity=".5" color="#000" overflow="visible" rx="10" ry="10" style="font-variation-settings:normal;marker:none"/><rect width="101" height="101" x="13.5" y="16.5" fill="none" stroke="url(#n)" stroke-linecap="round" stroke-linejoin="round" opacity=".3" rx="9" ry="9"/><path fill="#fff" d="M63.383 33.373 48.45 48.093a.88.88 0 0 0 0 1.255L63.383 64.07a.88.88 0 0 0 1.234 0L79.55 49.348a.88.88 0 0 0 0-1.254L64.617 33.373a.88.88 0 0 0-1.234 0M44.93 51.641a.88.88 0 0 0-.623.257l-14.93 14.98a.88.88 0 0 0-.006 1.237l14.93 15.223a.88.88 0 0 0 1.258 0L60.49 68.115a.88.88 0 0 0-.006-1.236l-14.931-14.98a.88.88 0 0 0-.623-.258m37.533 1L67.53 66.863a.88.88 0 0 0-.021 1.252L82.44 83.338a.88.88 0 0 0 1.258 0l14.93-15.223a.88.88 0 0 0-.022-1.252l-14.93-14.222a.88.88 0 0 0-1.214 0M64 70.918a.88.88 0 0 0-.625.26L48.443 86.279a.88.88 0 0 0 0 1.239l14.932 15.101a.88.88 0 0 0 1.25 0l14.932-15.101a.88.88 0 0 0 0-1.239L64.625 71.178a.88.88 0 0 0-.625-.26" color="#000" opacity=".03" overflow="visible" style="font-variation-settings:normal;isolation:auto;mix-blend-mode:normal;solid-color:#000;solid-opacity:1;-inkscape-stroke:none;marker:none"/><path fill="#fff" d="M64 71.797 78.932 86.9 64 102 49.068 86.899ZM44.93 52.52 59.863 67.5 44.931 82.722 30 67.5Zm38.14.76L98 67.5 83.07 82.722 68.137 67.5ZM64 34l14.932 14.721L64 63.443 49.068 48.721Z" color="#000" opacity=".07" overflow="visible" style="font-variation-settings:normal;isolation:auto;mix-blend-mode:normal;solid-color:#000;solid-opacity:1;marker:none;-inkscape-stroke:none"/><path fill="#38485a" d="M64 70.797 78.932 85.9 64 101 49.068 85.899ZM44.93 51.52 59.863 66.5 44.931 81.722 30 66.5Zm38.14.76L98 66.5 83.07 81.722 68.137 66.5ZM64 33l14.932 14.721L64 62.443 49.068 47.721Z" color="#000" overflow="visible" style="font-variation-settings:normal;isolation:auto;mix-blend-mode:normal;solid-color:#000;solid-opacity:1;marker:none"/><path fill="#0e141f" d="M64 33 49.068 47.72l1.075 1.06 13.24-13.053a.88.88 0 0 1 1.234 0l13.24 13.052 1.075-1.058zM44.93 51.52 30 66.5l1.041 1.063 13.266-13.311a.88.88 0 0 1 .623-.258.88.88 0 0 1 .623.258l13.267 13.31 1.041-1.062zm38.14.757L68.14 66.5l1.084 1.105 13.24-12.61a.88.88 0 0 1 1.215 0l13.238 12.61L98 66.5zM64 70.797 49.068 85.898l1.04 1.051 13.267-13.418a.88.88 0 0 1 .625-.26.88.88 0 0 1 .625.26L77.893 86.95l1.039-1.05z" color="#000" opacity=".07" overflow="visible" style="font-variation-settings:normal;isolation:auto;mix-blend-mode:normal;solid-color:#000;solid-opacity:1;marker:none"/><path fill="#0e141f" d="M64 33 49.068 47.72l.508.5L64 34l14.424 14.22.508-.5zM44.93 51.52 30 66.5l.494.504L44.93 52.52l14.437 14.484.494-.504zm38.14.757L68.14 66.5l.507.518 14.424-13.74 14.422 13.74L98 66.5zM64 70.797 49.068 85.898l.495.5L64 71.797l14.438 14.601.494-.5z" color="#000" opacity=".15" overflow="visible" style="font-variation-settings:normal;isolation:auto;mix-blend-mode:normal;solid-color:#000;solid-opacity:1;marker:none"/></svg>