<svg xmlns="http://www.w3.org/2000/svg" xmlns:ns3="http://www.w3.org/1999/xlink" xmlns:xlink="http://www.w3.org/1999/xlink" viewBox="0 0 128 128"><defs><linearGradient id="h"><stop offset="0" stop-color="#64baff"/><stop offset="1" stop-color="#3689e6"/></linearGradient><linearGradient id="a"><stop offset="0" stop-color="#f4f4f4"/><stop offset="1" stop-color="#dbdbdb"/></linearGradient><linearGradient id="d"><stop offset="0" stop-color="#181818" stop-opacity="0"/><stop offset=".5" stop-color="#181818"/><stop offset="1" stop-color="#181818" stop-opacity="0"/></linearGradient><linearGradient id="m"><stop offset="0" stop-color="#181818"/><stop offset="1" stop-color="#181818" stop-opacity="0"/></linearGradient><linearGradient ns3:href="#a" id="r" x1="25.132" x2="25.132" y1=".985" y2="47.013" gradientTransform="matrix(2.62857 0 0 2.52049 .914 -4.358)" gradientUnits="userSpaceOnUse"/><linearGradient ns3:href="#b" id="s" x1="24" x2="24" y1="5.564" y2="42.195" gradientTransform="matrix(2.45946 0 0 3.1081 4.973 -14.595)" gradientUnits="userSpaceOnUse"/><linearGradient id="b"><stop offset="0" stop-color="#fff"/><stop offset=".006" stop-color="#fff" stop-opacity=".235"/><stop offset=".994" stop-color="#fff" stop-opacity=".157"/><stop offset="1" stop-color="#fff" stop-opacity=".392"/></linearGradient><linearGradient ns3:href="#c" id="w" x1="-51.786" x2="-51.786" y1="50.786" y2="2.906" gradientTransform="matrix(2.14563 0 0 2.37913 158.09 -7.746)" gradientUnits="userSpaceOnUse"/><linearGradient id="c"><stop offset="0" stop-opacity=".318"/><stop offset="1" stop-opacity=".24"/></linearGradient><linearGradient ns3:href="#d" id="q" x1="25.058" x2="25.058" y1="47.028" y2="39.999" gradientTransform="matrix(2.8421 0 0 .71429 -4.21 87.43)" gradientUnits="userSpaceOnUse"/><linearGradient ns3:href="#e" id="u" x1="22.004" x2="22.004" y1="47.813" y2="3.364" gradientTransform="matrix(2.70423 0 0 2.715 5.393 -10.3)" gradientUnits="userSpaceOnUse"/><linearGradient id="e"><stop offset="0" stop-color="#aaa"/><stop offset="1" stop-color="#c8c8c8"/></linearGradient><linearGradient ns3:href="#f" id="v" x1="8.377" x2="8.377" y1="5.639" y2="42.349" gradientTransform="matrix(2.36996 0 0 3.1081 5.465 -14.595)" gradientUnits="userSpaceOnUse"/><linearGradient id="f"><stop offset="0" stop-color="#fff"/><stop offset=".005" stop-color="#fff" stop-opacity=".235"/><stop offset=".994" stop-color="#fff" stop-opacity=".157"/><stop offset="1" stop-color="#fff" stop-opacity=".392"/></linearGradient><linearGradient ns3:href="#h" id="t" x1="32" x2="32" y1="2.5" y2="117.5" gradientUnits="userSpaceOnUse"/><linearGradient id="n"><stop offset="0"/><stop offset="1" stop-opacity="0"/></linearGradient><linearGradient ns3:href="#i" id="z" x1="18.142" x2="18.142" y1="35" y2="42.041" gradientTransform="matrix(1.01333 0 0 .89963 -.044 3.866)" gradientUnits="userSpaceOnUse"/><linearGradient id="i"><stop offset="0" stop-opacity="0"/><stop offset=".5"/><stop offset="1" stop-opacity="0"/></linearGradient><linearGradient ns3:href="#j" id="A" x1="30.739" x2="45.903" y1="35.285" y2="50.736" gradientTransform="rotate(90 215.8 93.962)scale(5.41006 5.30706)" gradientUnits="userSpaceOnUse"/><linearGradient id="j"><stop offset="0" stop-color="#f0f0f1"/><stop offset="1" stop-color="#cbcdd9"/></linearGradient><linearGradient ns3:href="#l" id="B" x1="75.78" x2="75.78" y1="86" y2="127.036" gradientTransform="matrix(-2 0 0 2.00084 236.5 -127.608)" gradientUnits="userSpaceOnUse"/><linearGradient id="l"><stop offset="0" stop-color="#fff"/><stop offset="1" stop-color="#fff" stop-opacity="0"/></linearGradient><radialGradient ns3:href="#m" id="p" cx="4.993" cy="43.5" r="2.5" fx="4.993" fy="43.5" gradientTransform="matrix(5.69496 0 0 1 -52.665 -162.001)" gradientUnits="userSpaceOnUse"/><radialGradient ns3:href="#m" id="o" cx="4.993" cy="43.5" r="2.5" fx="4.993" fy="43.5" gradientTransform="matrix(5.69496 0 0 1 75.335 75.001)" gradientUnits="userSpaceOnUse"/><radialGradient ns3:href="#n" id="x" cx="7" cy="39.465" r="3.5" fx="7" fy="39.465" gradientTransform="matrix(0 -.89963 .93506 0 -81.63 -32.204)" gradientUnits="userSpaceOnUse"/><radialGradient ns3:href="#n" id="y" cx="7" cy="39.465" r="3.5" fx="7" fy="39.465" gradientTransform="matrix(0 -.89963 .93506 0 -33.63 44.799)" gradientUnits="userSpaceOnUse"/></defs><g stroke-width="1.039" opacity=".2"><path fill="url(#o)" d="M103.789 116.001H118v5h-14.211z" transform="matrix(.92593 0 0 1 4.74 0)"/><path fill="url(#p)" d="M-24.211-121.001H-10v5h-14.211z" transform="matrix(-.92593 0 0 -1 4.74 0)"/><path fill="url(#q)" d="M24.211 116.001h79.579v5H24.211z" transform="matrix(.92593 0 0 1 4.74 0)"/></g><path fill="url(#r)" d="M18 2c21.082 0 92 .007 92 .007V118H18z"/><path fill="none" stroke="url(#s)" stroke-linecap="round" stroke-linejoin="round" d="M109.5 117.5h-91V2.5h91z"/><path fill="url(#t)" d="M32 118.5H18.106c-.365 0-.543-.105-.543-.627V2.173l.159-.476.384-.197H32" color="#000" overflow="visible" style="marker:none"/><path fill="none" stroke="url(#u)" d="M40.5 21.5h6.338zm7.268 0h5.915Zm6.845 0h5.24zm6.084 0h2.282zm3.211 0h5.07zm6.085 0h13.352zm14.197 0h10.226zm-43.69 6h9.887zm10.986 0h4.732zm5.577 0h2.367zm3.296 0h4.31zm5.24 0h4.394zm5.239 0h7.014zm7.944 0h9.126zm9.972 0h6.084zm6.93 0h1.52zM40.5 33.458h8.366zm9.211 0h13.69zm14.535 0h6.677zm7.522 0h6.253zm7.098 0h5.324zm6.17 0 8.365.084zM40.5 39.5h11.577zm12.507 0h12.507zm13.352 0h4.986zm5.831 0h11.747zm12.507 0h8.028zm8.958 0h3.211zm-53.155 6h4.31zm5.662 0h15.972ZM40.5 56.458h8.366zm9.211 0h13.69zm14.535 0h6.677zm7.522 0h6.253zm7.098 0h5.324zm6.17 0 8.365.084zM40.5 62.5h10.648zm11.493 0h11.408zm12.253 0h4.395zm5.24 0h10.732zm11.577 0h13.522zm14.451 0h4.986Zm-55.014 6h11.577zm12.507 0h12.507zm13.352 0h4.986zm5.831 0h11.747zm12.507 0h8.028zm8.958 0h3.211zm-53.155 6h9.887zm10.986 0h4.732zm5.577 0h2.367zm3.296 0h4.31zm5.24 0h4.394zm5.239 0h7.014zm7.944 0h9.126zm9.972 0h6.084zm6.93 0h1.52zM40.5 85.458h8.366zm9.211 0h13.69zm14.535 0h6.677zm7.522 0h6.253zm7.098 0h5.324zm6.17 0 8.365.084zM40.5 91.5h9.887zm10.986 0h4.732zm5.577 0h2.367zm3.296 0h4.31zm5.24 0h4.394zm5.239 0h7.014zm7.944 0h9.126zm9.972 0h6.084zm6.93 0h1.52zm-55.184 6h10.479zm11.408 0h3.296zm4.141 0h7.521zm8.366 0h11.07zm12 0h7.522zm8.282 0h1.606zm2.45 0h9.55Zm-46.647 6h10.479zm11.408 0h4.733zm5.578 0h7.437zm8.282 0h8.028zm8.957 0h3.212zm4.057 0h1.774zm2.704 0h4.986z"/><path fill="none" stroke="url(#v)" d="M32 117.5H18.5V2.5H32" opacity=".5"/><path fill="none" stroke="url(#w)" stroke-linejoin="round" d="m32 1.5 78.5.008V118.5H32"/><path fill="none" stroke="#0d52bf" stroke-linejoin="round" d="M32 118.5H17.5V1.5l14.5.008" opacity=".5"/><g opacity=".3"><path fill="url(#x)" d="M-48-41.65h3.273v6.297H-48z" transform="matrix(1.83333 0 0 -1.42917 126 68.475)"/><path fill="url(#y)" d="M0 35.353h3.273v6.297H0z" transform="matrix(-1.83333 0 0 1.42917 126 68.475)"/><path fill="url(#z)" d="M3.273 35.353h41.455v6.297H3.273z" transform="matrix(-1.83333 0 0 1.42917 126 68.475)"/></g><path fill="url(#A)" fill-rule="evenodd" stroke="#83899a" d="M121.5 45.207 41.213 125.5l80.287-.001Zm-16 37.003v27.29H78.205z" opacity=".8" overflow="visible" style="marker:none"/><path fill="none" stroke="#fff" stroke-linecap="round" d="M98.5 124.493v-2.99" opacity=".3"/><path fill="none" stroke="#83899a" stroke-linecap="round" d="M109.5 125.499v-4.002m-12 4.002v-4.002m-12 4.002v-3.954m-12 3.954v-4.002m-12 4.002v-4.002" opacity=".75"/><path fill="none" stroke="url(#B)" d="M120.5 47.616V124.5H43.627Zm-14 32.174L75.78 110.5h30.72Z" opacity=".5" overflow="visible" style="marker:none"/><path fill="none" stroke="#fff" stroke-linecap="round" d="M110.5 124.493v-2.99m-24 2.99v-2.99m-12 2.99v-2.99m-12 2.99v-2.99M120.503 78.5h-2.99" opacity=".3"/><path fill="none" stroke="#83899a" stroke-linecap="round" d="M121.509 65.5h-4.002m4.002 12h-4.002m4.002 12h-3.954m3.954 12h-4.002m4.002 12h-4.002" opacity=".75"/><path fill="none" stroke="#fff" stroke-linecap="round" d="M120.503 66.5h-2.99m2.99 24h-2.99m2.99 12h-2.99m2.99 12h-2.99" opacity=".3"/></svg>