<svg xmlns="http://www.w3.org/2000/svg" xmlns:ns3="http://www.w3.org/1999/xlink" xmlns:xlink="http://www.w3.org/1999/xlink" viewBox="0 0 128 128"><defs><linearGradient id="a"><stop offset="0" stop-color="#f4f4f4"/><stop offset="1" stop-color="#dbdbdb"/></linearGradient><linearGradient id="d"><stop offset="0" stop-color="#181818" stop-opacity="0"/><stop offset=".5" stop-color="#181818"/><stop offset="1" stop-color="#181818" stop-opacity="0"/></linearGradient><linearGradient id="f"><stop offset="0" stop-color="#181818"/><stop offset="1" stop-color="#181818" stop-opacity="0"/></linearGradient><linearGradient ns3:href="#a" id="k" x1="25.132" x2="25.132" y1=".985" y2="47.013" gradientTransform="matrix(2.62857 0 0 2.52049 .914 -4.358)" gradientUnits="userSpaceOnUse"/><linearGradient ns3:href="#b" id="m" x1="24" x2="24" y1="5.564" y2="42.195" gradientTransform="matrix(2.45946 0 0 3.1081 4.973 -14.595)" gradientUnits="userSpaceOnUse"/><linearGradient id="b"><stop offset="0" stop-color="#fff"/><stop offset=".006" stop-color="#fff" stop-opacity=".235"/><stop offset=".994" stop-color="#fff" stop-opacity=".157"/><stop offset="1" stop-color="#fff" stop-opacity=".392"/></linearGradient><linearGradient ns3:href="#c" id="l" x1="-51.786" x2="-51.786" y1="50.786" y2="2.906" gradientTransform="matrix(2.14563 0 0 2.37913 158.09 -7.746)" gradientUnits="userSpaceOnUse"/><linearGradient id="c"><stop offset="0" stop-opacity=".318"/><stop offset="1" stop-opacity=".24"/></linearGradient><linearGradient ns3:href="#d" id="j" x1="25.058" x2="25.058" y1="47.028" y2="39.999" gradientTransform="matrix(2.8421 0 0 .71429 -4.21 87.43)" gradientUnits="userSpaceOnUse"/><linearGradient ns3:href="#e" id="n" x1="65.598" x2="65.598" y1="4.684" y2="115.91" gradientUnits="userSpaceOnUse"/><linearGradient id="e"><stop offset="0" stop-color="#67614f"/><stop offset="1" stop-color="#4b473a"/></linearGradient><radialGradient ns3:href="#f" id="i" cx="4.993" cy="43.5" r="2.5" fx="4.993" fy="43.5" gradientTransform="matrix(5.69496 0 0 1 -52.665 -162.001)" gradientUnits="userSpaceOnUse"/><radialGradient ns3:href="#f" id="g" cx="4.993" cy="43.5" r="2.5" fx="4.993" fy="43.5" gradientTransform="matrix(5.69496 0 0 1 75.335 75.001)" gradientUnits="userSpaceOnUse"/></defs><g stroke-width="1.039" opacity=".2"><path fill="url(#g)" d="M103.789 116.001H118v5h-14.211z" transform="matrix(.92593 0 0 1 4.74 0)"/><path fill="url(#i)" d="M-24.211-121.001H-10v5h-14.211z" transform="matrix(-.92593 0 0 -1 4.74 0)"/><path fill="url(#j)" d="M24.211 116.001h79.579v5H24.211z" transform="matrix(.92593 0 0 1 4.74 0)"/></g><path fill="url(#k)" d="M18 2c21.082 0 92 .007 92 .007V118H18z"/><path fill="none" stroke="url(#l)" stroke-linejoin="round" d="M17.5 1.5c21.311 0 93 .008 93 .008V118.5h-93z"/><path fill="none" stroke="url(#m)" stroke-linecap="round" stroke-linejoin="round" d="M109.5 117.5h-91V2.5h91z"/><path fill="url(#n)" d="M88.418 38.853a.37.37 0 0 0-.297.02c-.24.118-.452.502-.66 1.125-.49 1.47-3.632 10.614-19.675 13.078a7.975 7.977 0 0 1 4.34 7.097 7.975 7.977 0 0 1-7.977 7.977 7.975 7.977 0 0 1-7.258-4.688 6.33 6.331 0 0 1-5.32 2.914 6.33 6.331 0 0 1-6.285-5.613 6.5 6.5 0 0 1-.789 1.242c-.123-.191-.197-.407-.332-.594-.813-1.124-1.766-2.072-2.781-2.777-1.166-.81-2.378-1.344-3.574-1.52-1.38-.202-2.714.097-3.774.86-1.06.764-1.679 1.933-1.921 3.305-.21 1.188-.137 2.476.265 3.836.35 1.183.91 2.375 1.723 3.5.858 1.188 1.925 2.242 3.043 2.976 1.26.828 2.596 1.311 3.906 1.387.405.023.819-.077 1.191-.133 8.482 6.713 25.32 12.978 36.48 5.816.241.082.484.182.727.266.005.114-.03.23 0 .332l.53-.2c.095.03.166.105.263.133.02.006.045-.006.066 0l.2.196 5.03 1.785c-.206 1.744.659 3.726 2.848 4.562C92.329 87.241 96 89.17 96 89.17c-1.88-6.373-2.566-11.486-7.48-11.035-.915.083-1.604.459-2.117.992l-4.438-2.844h-.2l-.065-.066c5.972-5.869 9.464-16.898 7.347-36.085-.092-.72-.34-1.177-.629-1.278m-42.53 5.836-.266 11.898s.103.366.188.86a6.33 6.331 0 0 1 5.761-3.73 6.33 6.331 0 0 1 5.39 3.023 7.975 7.977 0 0 1 2.63-3.098c-9.585-.506-13.703-8.953-13.703-8.953m6.664 11.812a4.432 4.347 0 0 0-1.32.2 2.194 2.153 0 0 1 1.277 1.953 2.194 2.153 0 0 1-2.196 2.152 2.194 2.153 0 0 1-1.992-1.25 4.432 4.347 0 0 0-.203 1.293 4.432 4.347 0 0 0 4.434 4.347 4.432 4.347 0 0 0 4.43-4.347 4.432 4.347 0 0 0-4.43-4.348m13.335.844a4.432 4.347 0 0 0-1.32.2 2.194 2.153 0 0 1 1.277 1.952 2.194 2.153 0 0 1-2.195 2.153 2.194 2.153 0 0 1-1.988-1.25 4.432 4.347 0 0 0-.203 1.293 4.432 4.347 0 0 0 4.43 4.347 4.432 4.347 0 0 0 4.433-4.347 4.432 4.347 0 0 0-4.434-4.348m-28.85 2.617a2.304 2.575 0 0 1 2.304 2.574 2.304 2.575 0 0 1-2.305 2.575 2.304 2.575 0 0 1-2.304-2.575 2.304 2.575 0 0 1 2.304-2.574" color="#000" overflow="visible" style="isolation:auto;mix-blend-mode:normal;solid-color:#000;solid-opacity:1;marker:none"/></svg>