<svg xmlns="http://www.w3.org/2000/svg" xmlns:ns3="http://www.w3.org/1999/xlink" xmlns:xlink="http://www.w3.org/1999/xlink" viewBox="0 0 128 128"><defs><linearGradient id="a"><stop offset="0" stop-color="#f4f4f4"/><stop offset="1" stop-color="#dbdbdb"/></linearGradient><linearGradient id="d"><stop offset="0" stop-color="#181818" stop-opacity="0"/><stop offset=".5" stop-color="#181818"/><stop offset="1" stop-color="#181818" stop-opacity="0"/></linearGradient><linearGradient id="f"><stop offset="0" stop-color="#181818"/><stop offset="1" stop-color="#181818" stop-opacity="0"/></linearGradient><linearGradient ns3:href="#a" id="k" x1="25.132" x2="25.132" y1=".985" y2="47.013" gradientTransform="matrix(2.62857 0 0 2.52049 .914 -4.358)" gradientUnits="userSpaceOnUse"/><linearGradient ns3:href="#b" id="m" x1="24" x2="24" y1="5.564" y2="42.195" gradientTransform="matrix(2.45946 0 0 3.1081 4.973 -14.595)" gradientUnits="userSpaceOnUse"/><linearGradient id="b"><stop offset="0" stop-color="#fff"/><stop offset=".006" stop-color="#fff" stop-opacity=".235"/><stop offset=".994" stop-color="#fff" stop-opacity=".157"/><stop offset="1" stop-color="#fff" stop-opacity=".392"/></linearGradient><linearGradient ns3:href="#c" id="l" x1="-51.786" x2="-51.786" y1="50.786" y2="2.906" gradientTransform="matrix(2.14563 0 0 2.37913 158.09 -7.746)" gradientUnits="userSpaceOnUse"/><linearGradient id="c"><stop offset="0" stop-opacity=".318"/><stop offset="1" stop-opacity=".24"/></linearGradient><linearGradient ns3:href="#d" id="j" x1="25.058" x2="25.058" y1="47.028" y2="39.999" gradientTransform="matrix(2.8421 0 0 .71429 -4.21 87.43)" gradientUnits="userSpaceOnUse"/><linearGradient ns3:href="#e" id="n" x1="32.725" x2="32.725" y1="4.864" y2="55.102" gradientTransform="translate(-9.94 -9.318)scale(2.31062)" gradientUnits="userSpaceOnUse"/><linearGradient id="e"><stop offset="0" stop-color="#64baff"/><stop offset="1" stop-color="#3689e6"/></linearGradient><radialGradient ns3:href="#f" id="i" cx="4.993" cy="43.5" r="2.5" fx="4.993" fy="43.5" gradientTransform="matrix(5.69496 0 0 1 -52.665 -162.001)" gradientUnits="userSpaceOnUse"/><radialGradient ns3:href="#f" id="g" cx="4.993" cy="43.5" r="2.5" fx="4.993" fy="43.5" gradientTransform="matrix(5.69496 0 0 1 75.335 75.001)" gradientUnits="userSpaceOnUse"/></defs><g stroke-width="1.039" opacity=".2"><path fill="url(#g)" d="M103.789 116.001H118v5h-14.211z" transform="matrix(.92593 0 0 1 4.74 0)"/><path fill="url(#i)" d="M-24.211-121.001H-10v5h-14.211z" transform="matrix(-.92593 0 0 -1 4.74 0)"/><path fill="url(#j)" d="M24.211 116.001h79.579v5H24.211z" transform="matrix(.92593 0 0 1 4.74 0)"/></g><path fill="url(#k)" d="M18 2c21.082 0 92 .007 92 .007V118H18z"/><path fill="none" stroke="url(#l)" stroke-linejoin="round" d="M17.5 1.5c21.311 0 93 .008 93 .008V118.5h-93z"/><path fill="none" stroke="url(#m)" stroke-linecap="round" stroke-linejoin="round" d="M109.5 117.5h-91V2.5h91z"/><path fill="url(#n)" d="M74.882 53.356s-.838-7.817-8.594-8.034-11.74 5.863-11.74 14.548 4.403 15.634 11.949 15.634 8.385-8.685 8.385-8.685l14.464.868s.851 7.844-5.201 13.83c-6.053 5.983-13.482 6.961-18.67 6.92-5.189-.04-12.382.082-19.338-7.043S38 67.348 38 60.55c0-6.8 1.32-15.806 9.59-22.636 5.622-4.642 11.32-6.352 17.02-6.352C88.401 31.561 90 53.506 90 53.506Z" style="marker:none"/></svg>