<svg xmlns="http://www.w3.org/2000/svg" xmlns:ns3="http://www.w3.org/1999/xlink" xmlns:xlink="http://www.w3.org/1999/xlink" viewBox="0 0 128 128"><defs><linearGradient id="a"><stop offset="0" stop-color="#f4f4f4"/><stop offset="1" stop-color="#dbdbdb"/></linearGradient><linearGradient id="d"><stop offset="0" stop-color="#181818" stop-opacity="0"/><stop offset=".5" stop-color="#181818"/><stop offset="1" stop-color="#181818" stop-opacity="0"/></linearGradient><linearGradient id="f"><stop offset="0" stop-color="#181818"/><stop offset="1" stop-color="#181818" stop-opacity="0"/></linearGradient><linearGradient ns3:href="#a" id="k" x1="25.132" x2="25.132" y1=".985" y2="47.013" gradientTransform="matrix(2.62857 0 0 2.52049 .914 -4.358)" gradientUnits="userSpaceOnUse"/><linearGradient ns3:href="#b" id="m" x1="24" x2="24" y1="5.564" y2="42.195" gradientTransform="matrix(2.45946 0 0 3.1081 4.973 -14.595)" gradientUnits="userSpaceOnUse"/><linearGradient id="b"><stop offset="0" stop-color="#fff"/><stop offset=".006" stop-color="#fff" stop-opacity=".235"/><stop offset=".994" stop-color="#fff" stop-opacity=".157"/><stop offset="1" stop-color="#fff" stop-opacity=".392"/></linearGradient><linearGradient ns3:href="#c" id="l" x1="-51.786" x2="-51.786" y1="50.786" y2="2.906" gradientTransform="matrix(2.14563 0 0 2.37913 158.09 -7.746)" gradientUnits="userSpaceOnUse"/><linearGradient id="c"><stop offset="0" stop-opacity=".318"/><stop offset="1" stop-opacity=".24"/></linearGradient><linearGradient ns3:href="#d" id="j" x1="25.058" x2="25.058" y1="47.028" y2="39.999" gradientTransform="matrix(2.8421 0 0 .71429 -4.21 87.43)" gradientUnits="userSpaceOnUse"/><linearGradient ns3:href="#e" id="n" x1="22.104" x2="22.104" y1="40.124" y2="10.035" gradientTransform="matrix(1.80005 0 0 3.8887 12.475 -93.36)" gradientUnits="userSpaceOnUse"/><linearGradient id="e"><stop offset="0" stop-color="#a3a3a3"/><stop offset="1" stop-color="#bababa"/></linearGradient><linearGradient ns3:href="#e" id="o" x1="65" x2="65" y1="-21" y2="-71" gradientTransform="translate(.1 .785)" gradientUnits="userSpaceOnUse"/><radialGradient ns3:href="#f" id="i" cx="4.993" cy="43.5" r="2.5" fx="4.993" fy="43.5" gradientTransform="matrix(5.69496 0 0 1 -52.665 -162.001)" gradientUnits="userSpaceOnUse"/><radialGradient ns3:href="#f" id="g" cx="4.993" cy="43.5" r="2.5" fx="4.993" fy="43.5" gradientTransform="matrix(5.69496 0 0 1 75.335 75.001)" gradientUnits="userSpaceOnUse"/></defs><g stroke-width="1.039" opacity=".2"><path fill="url(#g)" d="M103.789 116.001H118v5h-14.211z" transform="matrix(.92593 0 0 1 4.74 0)"/><path fill="url(#i)" d="M-24.211-121.001H-10v5h-14.211z" transform="matrix(-.92593 0 0 -1 4.74 0)"/><path fill="url(#j)" d="M24.211 116.001h79.579v5H24.211z" transform="matrix(.92593 0 0 1 4.74 0)"/></g><path fill="url(#k)" d="M18 2c21.082 0 92 .007 92 .007V118H18z"/><path fill="none" stroke="url(#l)" stroke-linejoin="round" d="M17.5 1.5c21.311 0 93 .008 93 .008V118.5h-93z"/><path fill="none" stroke="url(#m)" stroke-linecap="round" stroke-linejoin="round" d="M109.5 117.5h-91V2.5h91z"/><path fill="#89adc2" d="M30 44v1h7v-1zm9 0v1h4v-1zm6 0v1h4v-1zm6 0v1h2v-1zm4 0v1h3v-1zm5 0v1h13v-1zm-30 4v1h9v-1zm11 0v1h5v-1zm7 0v1h2v-1zm3 0v1h3v-1zm5 0v1h3v-1zm5 0v1h8v-1zm10 0v1h9v-1zm-41 4v1h10v-1zm12 0v1h12v-1zm-12 4v1h5v-1zm7 0v1h6v-1zm8 0v1h4v-1zm10 8v1h4v-1Zm6 0v1h4v-1Zm6 0v1h6v-1Zm8 0v1h1v-1ZM54 76v1h6v-1zm8 0v1h5v-1Zm7 0v1h4v-1zm-15 4v1h5.04v-1zm7 0v1h12v-1Zm14 0v1h10v-1zm-21 4v1h6v-1zm8 0v1h11v-1zm13 0v1h7v-1zm-21 4v1h5v-1zm7 0v1h4v-1Zm6 0v1h6v-1zm8.045 0v1H77v-1ZM79 88v1h8v-1Zm-25 12v1h7v-1zm9 0v1h4v-1zm5.667 0v1H74v-1ZM76 100v1h7v-1zm9 0v1h13v-1z"/><path fill="#b78ed4" d="M30 60v1h8v-1zm0 4v1h8v-1z"/><path fill="#d48eb3" d="M40 60v1h14v-1zm0 4v1h13v-1zm4 28v1h11v-1zm13 0v1h4v-1zm6 0v1h9v-1zm11 0v1h8v-1Zm10 0v1h2v-1zm4 0v1h1v-1zm3 0v1h5v-1zm-43 4v1h2v-1zm3 0v1h3v-1zm5 0v1h3v-1zm5 0v1h6v-1Zm8 0v1h8v-1zm10 0v1h6v-1zm8 0v1h1v-1z"/><path fill="#de6161" d="M30 100h8v1h-8z"/><path fill="url(#n)" d="M39 5v1h5V5zm-9 4v1h3V9Zm9 4v1h4v-1zm1 4v1h6v-1zm-1 4v1h4v-1zm-2 4v1h5v-1zm-7 4v1h12v-1zm0 4v1h9v-1zm11 0v1h5v-1zm-1 4v1h9v-1z" transform="translate(0 63)"/><path fill="#94d48e" d="M30 68v1h7v-1zm0 8v1h7v-1zm0 4v1h8v-1zm0 4v1h7v-1zm0 4v1h5v-1zm14-52v1h11v-1zm13 0v1h4v-1zm6 0v1h9v-1zm11 0v1h8v-1zm10 0v1h2v-1zm4 0v1h1v-1zm3 0v1h5v-1zm-43 4v1h2v-1zm3 0v1h3v-1zm5 0v1h3v-1zm5 0v1h6v-1zm8 0v1h8v-1zm10 0v1h6v-1zm8 0v1h1v-1zm-57-4v1h12v-1zm0 4v1h9v-1zm11 0v1h5v-1z"/><path fill="url(#o)" d="M30-31v1h7v-1zm9 0v1h4v-1zm5.667 0v1H50v-1zM52-31v1h7v-1zm9 0v1h13v-1z" transform="translate(0 63)"/><path fill="#de6161" d="M30 28h8v1h-8zm10 0h12v1H40Zm14 0h4v1h-4zm7 0h3v1h-3z"/><path fill="#89adc2" d="M73 28h8v1h-8z"/><path fill="#94d48e" d="M30 24h4v1h-4z"/><path fill="#d48eb3" d="M44 20v1h11v-1zm13 0v1h4v-1zm-27 0v1h12v-1z"/></svg>