<svg xmlns="http://www.w3.org/2000/svg" xmlns:ns3="http://www.w3.org/1999/xlink" xmlns:xlink="http://www.w3.org/1999/xlink" viewBox="0 0 128 128"><defs><linearGradient id="a"><stop offset="0" stop-color="#f4f4f4"/><stop offset="1" stop-color="#dbdbdb"/></linearGradient><linearGradient id="d"><stop offset="0" stop-color="#181818" stop-opacity="0"/><stop offset=".5" stop-color="#181818"/><stop offset="1" stop-color="#181818" stop-opacity="0"/></linearGradient><linearGradient id="e"><stop offset="0" stop-color="#181818"/><stop offset="1" stop-color="#181818" stop-opacity="0"/></linearGradient><linearGradient ns3:href="#a" id="j" x1="25.132" x2="25.132" y1=".985" y2="47.013" gradientTransform="matrix(2.62857 0 0 2.52049 .914 -4.358)" gradientUnits="userSpaceOnUse"/><linearGradient ns3:href="#b" id="l" x1="24" x2="24" y1="5.564" y2="42.195" gradientTransform="matrix(2.45946 0 0 3.1081 4.973 -14.595)" gradientUnits="userSpaceOnUse"/><linearGradient id="b"><stop offset="0" stop-color="#fff"/><stop offset=".006" stop-color="#fff" stop-opacity=".235"/><stop offset=".994" stop-color="#fff" stop-opacity=".157"/><stop offset="1" stop-color="#fff" stop-opacity=".392"/></linearGradient><linearGradient ns3:href="#c" id="k" x1="-51.786" x2="-51.786" y1="50.786" y2="2.906" gradientTransform="matrix(2.14563 0 0 2.37913 158.09 -7.746)" gradientUnits="userSpaceOnUse"/><linearGradient id="c"><stop offset="0" stop-opacity=".318"/><stop offset="1" stop-opacity=".24"/></linearGradient><linearGradient ns3:href="#d" id="i" x1="25.058" x2="25.058" y1="47.028" y2="39.999" gradientTransform="matrix(2.8421 0 0 .71429 -4.21 87.43)" gradientUnits="userSpaceOnUse"/><radialGradient ns3:href="#e" id="g" cx="4.993" cy="43.5" r="2.5" fx="4.993" fy="43.5" gradientTransform="matrix(5.69496 0 0 1 -52.665 -162.001)" gradientUnits="userSpaceOnUse"/><radialGradient ns3:href="#e" id="f" cx="4.993" cy="43.5" r="2.5" fx="4.993" fy="43.5" gradientTransform="matrix(5.69496 0 0 1 75.335 75.001)" gradientUnits="userSpaceOnUse"/></defs><g stroke-width="1.039" opacity=".2"><path fill="url(#f)" d="M103.789 116.001H118v5h-14.211z" transform="matrix(.92593 0 0 1 4.74 0)"/><path fill="url(#g)" d="M-24.211-121.001H-10v5h-14.211z" transform="matrix(-.92593 0 0 -1 4.74 0)"/><path fill="url(#i)" d="M24.211 116.001h79.579v5H24.211z" transform="matrix(.92593 0 0 1 4.74 0)"/></g><path fill="url(#j)" d="M18 2c21.082 0 92 .007 92 .007V118H18z"/><path fill="none" stroke="url(#k)" stroke-linejoin="round" d="M17.5 1.5c21.311 0 93 .008 93 .008V118.5h-93z"/><path fill="none" stroke="url(#l)" stroke-linecap="round" stroke-linejoin="round" d="M109.5 117.5h-91V2.5h91z"/><path fill="#0093dd" d="M64 39c-8.864 0-16 7.136-16 16v8h-2v11.375l.812-1.062c1.163-1.562 4.262-3.792 6.688-4.75 1.278-.505 4.347-1.06 7.812-1.438C66.534 66.538 76.4 67 80 63v-8c0-8.864-7.136-16-16-16m1.312 1.938a12.7 12.7 0 0 1 2.25.312c2.69.646 2.993 1.269.375.75-4.117-.816-9.587 1.017-12.937 4.375-1.002 1.004-2.265 2.667-2.813 3.688-1.127 2.103-.95.748.25-1.813 2.194-4.682 7.567-7.622 12.875-7.312M64 47c4.432 0 8 3.568 8 8v8H56v-8c0-4.432 3.568-8 8-8m18 18.313-2.125 1.75c-1.155.982-2.963 2.327-4.063 3-2.25 1.375-7.588 3.312-9.187 3.312-.601 0-.954.146-.813.375.267.432 3.463.238 6.813-.437 1.1-.222 3.652-1.22 5.687-2.25L82 69.188V67.25zm0 4.312-1.125 1.563c-3.731 5.143-9.808 7.993-18.25 8.5-5.639.338-3.574.98 3.187 1 4.581.006 5.614-.133 8.375-1.063 1.728-.581 3.163-1.025 3.25-.937.315.315-3.065 3.112-4.937 4.062-3.586 1.82-6.028 2.331-12.5 2.625-4.598.209-6.485.447-7.375.938-1.133.624-.384.667 14.062.687H82z" color="#000" overflow="visible" style="marker:none"/></svg>