<svg xmlns="http://www.w3.org/2000/svg" xmlns:ns3="http://www.w3.org/1999/xlink" xmlns:xlink="http://www.w3.org/1999/xlink" viewBox="0 0 128 128"><defs><linearGradient id="a"><stop offset="0" stop-color="#f4f4f4"/><stop offset="1" stop-color="#dbdbdb"/></linearGradient><linearGradient id="d"><stop offset="0" stop-color="#181818" stop-opacity="0"/><stop offset=".5" stop-color="#181818"/><stop offset="1" stop-color="#181818" stop-opacity="0"/></linearGradient><linearGradient id="e"><stop offset="0" stop-color="#181818"/><stop offset="1" stop-color="#181818" stop-opacity="0"/></linearGradient><linearGradient ns3:href="#a" id="j" x1="25.132" x2="25.132" y1=".985" y2="47.013" gradientTransform="matrix(2.62857 0 0 2.52049 .914 -4.358)" gradientUnits="userSpaceOnUse"/><linearGradient ns3:href="#b" id="l" x1="24" x2="24" y1="5.564" y2="42.195" gradientTransform="matrix(2.45946 0 0 3.1081 4.973 -14.595)" gradientUnits="userSpaceOnUse"/><linearGradient id="b"><stop offset="0" stop-color="#fff"/><stop offset=".006" stop-color="#fff" stop-opacity=".235"/><stop offset=".994" stop-color="#fff" stop-opacity=".157"/><stop offset="1" stop-color="#fff" stop-opacity=".392"/></linearGradient><linearGradient ns3:href="#c" id="k" x1="-51.786" x2="-51.786" y1="50.786" y2="2.906" gradientTransform="matrix(2.14563 0 0 2.37913 158.09 -7.746)" gradientUnits="userSpaceOnUse"/><linearGradient id="c"><stop offset="0" stop-opacity=".318"/><stop offset="1" stop-opacity=".24"/></linearGradient><linearGradient ns3:href="#d" id="i" x1="25.058" x2="25.058" y1="47.028" y2="39.999" gradientTransform="matrix(2.8421 0 0 .71429 -4.21 87.43)" gradientUnits="userSpaceOnUse"/><radialGradient ns3:href="#e" id="g" cx="4.993" cy="43.5" r="2.5" fx="4.993" fy="43.5" gradientTransform="matrix(5.69496 0 0 1 -52.665 -162.001)" gradientUnits="userSpaceOnUse"/><radialGradient ns3:href="#e" id="f" cx="4.993" cy="43.5" r="2.5" fx="4.993" fy="43.5" gradientTransform="matrix(5.69496 0 0 1 75.335 75.001)" gradientUnits="userSpaceOnUse"/></defs><g stroke-width="1.039" opacity=".2"><path fill="url(#f)" d="M103.789 116.001H118v5h-14.211z" transform="matrix(.92593 0 0 1 4.74 0)"/><path fill="url(#g)" d="M-24.211-121.001H-10v5h-14.211z" transform="matrix(-.92593 0 0 -1 4.74 0)"/><path fill="url(#i)" d="M24.211 116.001h79.579v5H24.211z" transform="matrix(.92593 0 0 1 4.74 0)"/></g><path fill="url(#j)" d="M18 2c21.082 0 92 .007 92 .007V118H18z"/><path fill="none" stroke="url(#k)" stroke-linejoin="round" d="M17.5 1.5c21.311 0 93 .008 93 .008V118.5h-93z"/><path fill="none" stroke="url(#l)" stroke-linecap="round" stroke-linejoin="round" d="M109.5 117.5h-91V2.5h91z"/><path fill="#7e8087" d="M50.5 45c-.831 0-1.5.669-1.5 1.5v27c0 .831.669 1.5 1.5 1.5h25c.831 0 1.5-.669 1.5-1.5v-27c0-.831-.669-1.5-1.5-1.5zm.5 2h2v2h-2zm5 0h14c.554 0 1 .446 1 1v10c0 .554-.446 1-1 1H56c-.554 0-1-.446-1-1V48c0-.554.446-1 1-1m17 0h2v2h-2zm-22 4h2v2h-2zm22 0h2v2h-2zm-22 4h2v2h-2zm22 0h2v2h-2zm-22 4h2v2h-2zm22 0h2v2h-2zm-17 2h14c.554 0 1 .446 1 1v10c0 .554-.446 1-1 1H56c-.554 0-1-.446-1-1V62c0-.554.446-1 1-1m-5 2h2v2h-2zm22 0h2v2h-2zm-22 4h2v2h-2zm22 0h2v2h-2zm-22 4h2v2h-2zm22 0h2v2h-2zm-39 34a3 3 0 0 0-3 3 3 3 0 0 0 3 3 3 3 0 0 0 3-3 3 3 0 0 0-3-3m10 0a3 3 0 0 0-3 3 3 3 0 0 0 3 3 3 3 0 0 0 3-3 3 3 0 0 0-3-3m10 0a3 3 0 0 0-3 3 3 3 0 0 0 3 3 3 3 0 0 0 3-3 3 3 0 0 0-3-3m10 0a3 3 0 0 0-3 3 3 3 0 0 0 3 3 3 3 0 0 0 3-3 3 3 0 0 0-3-3m10 0a3 3 0 0 0-3 3 3 3 0 0 0 3 3 3 3 0 0 0 3-3 3 3 0 0 0-3-3m10 0a3 3 0 0 0-3 3 3 3 0 0 0 3 3 3 3 0 0 0 3-3 3 3 0 0 0-3-3m10 0a3 3 0 0 0-3 3 3 3 0 0 0 3 3 3 3 0 0 0 3-3 3 3 0 0 0-3-3"/></svg>