<svg xmlns="http://www.w3.org/2000/svg" xmlns:xlink="http://www.w3.org/1999/xlink" viewBox="0 0 128 128"><defs><linearGradient id="h"><stop offset="0" stop-color="#64baff"/><stop offset="1" stop-color="#3689e6"/></linearGradient><linearGradient id="a"><stop offset="0" stop-color="#f4f4f4"/><stop offset="1" stop-color="#dbdbdb"/></linearGradient><linearGradient id="d"><stop offset="0" stop-color="#181818" stop-opacity="0"/><stop offset=".5" stop-color="#181818"/><stop offset="1" stop-color="#181818" stop-opacity="0"/></linearGradient><linearGradient id="i"><stop offset="0" stop-color="#181818"/><stop offset="1" stop-color="#181818" stop-opacity="0"/></linearGradient><linearGradient xlink:href="#a" id="m" x1="25.132" x2="25.132" y1=".985" y2="47.013" gradientTransform="matrix(-2.62857 0 0 2.52049 127.086 -4.358)" gradientUnits="userSpaceOnUse"/><linearGradient xlink:href="#b" id="n" x1="24" x2="24" y1="5.564" y2="42.195" gradientTransform="matrix(-2.45946 0 0 3.1081 123.027 -14.595)" gradientUnits="userSpaceOnUse"/><linearGradient id="b"><stop offset="0" stop-color="#fff"/><stop offset=".006" stop-color="#fff" stop-opacity=".235"/><stop offset=".994" stop-color="#fff" stop-opacity=".157"/><stop offset="1" stop-color="#fff" stop-opacity=".392"/></linearGradient><linearGradient xlink:href="#c" id="r" x1="-51.786" x2="-51.786" y1="50.786" y2="2.906" gradientTransform="matrix(-2.14563 0 0 2.37913 -30.09 -7.746)" gradientUnits="userSpaceOnUse"/><linearGradient id="c"><stop offset="0" stop-opacity=".318"/><stop offset="1" stop-opacity=".24"/></linearGradient><linearGradient xlink:href="#d" id="l" x1="25.058" x2="25.058" y1="47.028" y2="39.999" gradientTransform="matrix(2.8421 0 0 .71429 -4.21 87.43)" gradientUnits="userSpaceOnUse"/><linearGradient xlink:href="#e" id="p" x1="22.004" x2="22.004" y1="47.813" y2="3.364" gradientTransform="matrix(-2.70423 0 0 2.715 122.607 -10.3)" gradientUnits="userSpaceOnUse"/><linearGradient id="e"><stop offset="0" stop-color="#aaa"/><stop offset="1" stop-color="#c8c8c8"/></linearGradient><linearGradient xlink:href="#f" id="q" x1="8.377" x2="8.377" y1="5.639" y2="42.349" gradientTransform="matrix(-2.36996 0 0 3.1081 122.535 -14.595)" gradientUnits="userSpaceOnUse"/><linearGradient id="f"><stop offset="0" stop-color="#fff"/><stop offset=".005" stop-color="#fff" stop-opacity=".235"/><stop offset=".994" stop-color="#fff" stop-opacity=".157"/><stop offset="1" stop-color="#fff" stop-opacity=".392"/></linearGradient><linearGradient xlink:href="#h" id="o" x1="32" x2="32" y1="2.5" y2="117.5" gradientTransform="matrix(-1 0 0 1 128 0)" gradientUnits="userSpaceOnUse"/><radialGradient xlink:href="#i" id="k" cx="4.993" cy="43.5" r="2.5" fx="4.993" fy="43.5" gradientTransform="matrix(5.69496 0 0 1 -52.665 -162.001)" gradientUnits="userSpaceOnUse"/><radialGradient xlink:href="#i" id="j" cx="4.993" cy="43.5" r="2.5" fx="4.993" fy="43.5" gradientTransform="matrix(5.69496 0 0 1 75.335 75.001)" gradientUnits="userSpaceOnUse"/></defs><g stroke-width="1.039" opacity=".2"><path fill="url(#j)" d="M103.789 116.001H118v5h-14.211z" transform="matrix(-.92593 0 0 1 123.26 0)"/><path fill="url(#k)" d="M-24.211-121.001H-10v5h-14.211z" transform="matrix(.92593 0 0 -1 123.26 0)"/><path fill="url(#l)" d="M24.211 116.001h79.579v5H24.211z" transform="matrix(-.92593 0 0 1 123.26 0)"/></g><path fill="url(#m)" d="M110 2c-21.082 0-92 .007-92 .007V118h92z"/><path fill="none" stroke="url(#n)" stroke-linecap="round" stroke-linejoin="round" d="M18.5 117.5h91V2.5h-91z"/><path fill="url(#o)" d="M96 118.5h13.894c.365 0 .543-.105.543-.627V2.173l-.159-.476-.384-.197H96" color="#000" overflow="visible" style="marker:none"/><path fill="none" stroke="url(#p)" d="M87.5 21.5h-6.338zm-7.268 0h-5.915Zm-6.845 0h-5.24zm-6.084 0H65.02zm-3.211 0h-5.07zm-6.085 0H44.655Zm-14.197 0H33.584zm43.69 6h-9.887zm-10.986 0h-4.732zm-5.577 0H68.57Zm-3.296 0h-4.31zm-5.24 0h-4.394Zm-5.239 0h-7.014zm-7.944 0h-9.126zm-9.972 0h-6.084zm-6.93 0h-1.52ZM87.5 33.458h-8.366zm-9.211 0h-13.69Zm-14.535 0h-6.677zm-7.522 0H49.98zm-7.098 0H43.81zm-6.17 0-8.365.084zM87.5 39.5H75.923Zm-12.507 0H62.486Zm-13.352 0h-4.986zm-5.831 0H44.063Zm-12.507 0h-8.028zm-8.958 0h-3.211zm53.155 6h-4.31zm-5.662 0H65.866ZM87.5 56.458h-8.366zm-9.211 0h-13.69Zm-14.535 0h-6.677zm-7.522 0H49.98zm-7.098 0H43.81zm-6.17 0-8.365.084zM87.5 62.5H76.852Zm-11.493 0H64.599Zm-12.253 0h-4.395zm-5.24 0H47.782Zm-11.577 0H33.415Zm-14.451 0H27.5Zm55.014 6H75.923Zm-12.507 0H62.486Zm-13.352 0h-4.986zm-5.831 0H44.063Zm-12.507 0h-8.028zm-8.958 0h-3.211zm53.155 6h-9.887zm-10.986 0h-4.732zm-5.577 0H68.57Zm-3.296 0h-4.31zm-5.24 0h-4.394Zm-5.239 0h-7.014zm-7.944 0h-9.126zm-9.972 0h-6.084zm-6.93 0h-1.52ZM87.5 85.458h-8.366zm-9.211 0h-13.69Zm-14.535 0h-6.677zm-7.522 0H49.98zm-7.098 0H43.81zm-6.17 0-8.365.084zM87.5 91.5h-9.887zm-10.986 0h-4.732zm-5.577 0H68.57Zm-3.296 0h-4.31zm-5.24 0h-4.394Zm-5.239 0h-7.014zm-7.944 0h-9.126zm-9.972 0h-6.084zm-6.93 0h-1.52zm55.184 6H77.021Zm-11.408 0h-3.296zm-4.141 0H64.43zm-8.366 0h-11.07Zm-12 0h-7.522zm-8.282 0h-1.606zm-2.45 0h-9.55Zm46.647 6H77.021Zm-11.408 0h-4.733zm-5.578 0h-7.437zm-8.282 0h-8.028zm-8.957 0h-3.212zm-4.057 0h-1.774zm-2.704 0h-4.986z"/><path fill="none" stroke="url(#q)" d="M96 117.5h13.5V2.5H96" opacity=".5"/><path fill="none" stroke="url(#r)" stroke-linejoin="round" d="m96 1.5-78.5.008V118.5H96"/><path fill="none" stroke="#0d52bf" stroke-linejoin="round" d="M96 118.5h14.5V1.5L96 1.508" opacity=".5"/></svg>