<svg xmlns="http://www.w3.org/2000/svg" xmlns:xlink="http://www.w3.org/1999/xlink" viewBox="0 0 128 128"><defs><linearGradient id="i"><stop offset="0" stop-color="#fff"/><stop offset="0" stop-color="#fff" stop-opacity=".235"/><stop offset=".996" stop-color="#fff" stop-opacity=".157"/><stop offset="1" stop-color="#fff" stop-opacity=".392"/></linearGradient><linearGradient id="e"><stop offset="0" stop-color="#b2b2b2"/><stop offset="1" stop-color="#818181"/></linearGradient><linearGradient id="g"><stop offset="0"/><stop offset=".8"/><stop offset=".8" stop-opacity="0"/><stop offset="1" stop-opacity="0"/></linearGradient><linearGradient xlink:href="#a" id="A" x1="24" x2="24" y1="5" y2="43" gradientTransform="translate(-1.514 1.487)scale(2.72973)" gradientUnits="userSpaceOnUse"/><linearGradient id="a"><stop offset="0" stop-color="#fff"/><stop offset=".063" stop-color="#fff" stop-opacity=".235"/><stop offset=".951" stop-color="#fff" stop-opacity=".157"/><stop offset="1" stop-color="#fff" stop-opacity=".392"/></linearGradient><linearGradient id="o"><stop offset="0" stop-color="#181818"/><stop offset="1" stop-color="#181818" stop-opacity="0"/></linearGradient><linearGradient id="p"><stop offset="0" stop-color="#181818"/><stop offset="1" stop-color="#181818" stop-opacity="0"/></linearGradient><linearGradient xlink:href="#b" id="y" x1="25.058" x2="25.058" y1="47.028" y2="39.999" gradientUnits="userSpaceOnUse"/><linearGradient id="b"><stop offset="0" stop-color="#181818" stop-opacity="0"/><stop offset=".5" stop-color="#181818"/><stop offset="1" stop-color="#181818" stop-opacity="0"/></linearGradient><linearGradient id="q"><stop offset="0"/><stop offset="1" stop-opacity="0"/></linearGradient><linearGradient id="c"><stop offset="0" stop-color="#35a445"/><stop offset="1" stop-color="#3bda52"/></linearGradient><linearGradient xlink:href="#c" id="B" x1="37" x2="37" y1="59" y2="5" gradientTransform="matrix(2 0 0 2 3 6)" gradientUnits="userSpaceOnUse"/><linearGradient xlink:href="#c" id="C" x1="37" x2="37" y1="59" y2="5" gradientTransform="matrix(2 0 0 2 3 6)" gradientUnits="userSpaceOnUse"/><linearGradient xlink:href="#c" id="D" x1="37" x2="37" y1="59" y2="5" gradientTransform="matrix(2 0 0 2 3 6)" gradientUnits="userSpaceOnUse"/><linearGradient xlink:href="#c" id="E" x1="37" x2="37" y1="59" y2="5" gradientTransform="matrix(2 0 0 2 3 6)" gradientUnits="userSpaceOnUse"/><linearGradient xlink:href="#c" id="F" x1="37" x2="37" y1="59" y2="5" gradientTransform="matrix(2 0 0 2 3 6)" gradientUnits="userSpaceOnUse"/><linearGradient xlink:href="#c" id="G" x1="37" x2="37" y1="59" y2="5" gradientTransform="matrix(2 0 0 2 3 6)" gradientUnits="userSpaceOnUse"/><linearGradient xlink:href="#c" id="H" x1="37" x2="37" y1="59" y2="5" gradientTransform="matrix(2 0 0 2 1 10)" gradientUnits="userSpaceOnUse"/><linearGradient xlink:href="#c" id="I" x1="37" x2="37" y1="59" y2="5" gradientTransform="matrix(2 0 0 2 -1 -2)" gradientUnits="userSpaceOnUse"/><linearGradient xlink:href="#c" id="J" x1="37" x2="37" y1="59" y2="5" gradientTransform="matrix(2 0 0 2 3 6)" gradientUnits="userSpaceOnUse"/><linearGradient xlink:href="#c" id="K" x1="37" x2="37" y1="59" y2="5" gradientTransform="matrix(2 0 0 2 3 6)" gradientUnits="userSpaceOnUse"/><linearGradient xlink:href="#c" id="L" x1="37" x2="37" y1="59" y2="5" gradientTransform="matrix(2 0 0 2 3 6)" gradientUnits="userSpaceOnUse"/><linearGradient xlink:href="#c" id="M" x1="37" x2="37" y1="59" y2="5" gradientTransform="matrix(2 0 0 2 1 10)" gradientUnits="userSpaceOnUse"/><linearGradient xlink:href="#c" id="N" x1="37" x2="37" y1="59" y2="5" gradientTransform="matrix(2 0 0 2 3 6)" gradientUnits="userSpaceOnUse"/><linearGradient xlink:href="#c" id="O" x1="37" x2="37" y1="59" y2="5" gradientTransform="matrix(2 0 0 2 -1 -2)" gradientUnits="userSpaceOnUse"/><linearGradient xlink:href="#c" id="P" x1="37" x2="37" y1="59" y2="5" gradientTransform="matrix(2 0 0 2 3 6)" gradientUnits="userSpaceOnUse"/><linearGradient xlink:href="#c" id="Q" x1="37" x2="37" y1="59" y2="5" gradientTransform="matrix(2 0 0 2 3 6)" gradientUnits="userSpaceOnUse"/><linearGradient xlink:href="#c" id="R" x1="37" x2="37" y1="59" y2="5" gradientTransform="matrix(2 0 0 2 3 6)" gradientUnits="userSpaceOnUse"/><linearGradient xlink:href="#c" id="S" x1="37" x2="37" y1="59" y2="5" gradientTransform="matrix(2 0 0 2 3 6)" gradientUnits="userSpaceOnUse"/><linearGradient xlink:href="#c" id="T" x1="37" x2="37" y1="59" y2="5" gradientTransform="matrix(2 0 0 2 3 6)" gradientUnits="userSpaceOnUse"/><linearGradient xlink:href="#c" id="U" x1="37" x2="37" y1="59" y2="5" gradientTransform="matrix(2 0 0 2 3 6)" gradientUnits="userSpaceOnUse"/><linearGradient xlink:href="#c" id="V" x1="37" x2="37" y1="59" y2="5" gradientTransform="matrix(2 0 0 2 -1 8)" gradientUnits="userSpaceOnUse"/><linearGradient xlink:href="#c" id="W" x1="37" x2="37" y1="59" y2="5" gradientTransform="matrix(2 0 0 2 3 6)" gradientUnits="userSpaceOnUse"/><linearGradient xlink:href="#c" id="X" x1="37" x2="37" y1="59" y2="5" gradientTransform="matrix(2 0 0 2 3 6)" gradientUnits="userSpaceOnUse"/><linearGradient xlink:href="#c" id="Y" x1="37" x2="37" y1="59" y2="5" gradientTransform="matrix(2 0 0 2 3 6)" gradientUnits="userSpaceOnUse"/><linearGradient xlink:href="#c" id="Z" x1="37" x2="37" y1="59" y2="5" gradientTransform="matrix(2 0 0 2 3 6)" gradientUnits="userSpaceOnUse"/><linearGradient xlink:href="#c" id="aa" x1="37" x2="37" y1="59" y2="5" gradientTransform="matrix(2 0 0 2 3 6)" gradientUnits="userSpaceOnUse"/><linearGradient xlink:href="#c" id="ab" x1="37" x2="37" y1="59" y2="5" gradientTransform="matrix(2 0 0 2 3 0)" gradientUnits="userSpaceOnUse"/><linearGradient xlink:href="#c" id="ac" x1="37" x2="37" y1="59" y2="5" gradientTransform="matrix(2 0 0 2 3 0)" gradientUnits="userSpaceOnUse"/><linearGradient xlink:href="#c" id="ad" x1="37" x2="37" y1="59" y2="5" gradientTransform="matrix(2 0 0 2 3 6)" gradientUnits="userSpaceOnUse"/><linearGradient xlink:href="#c" id="ae" x1="37" x2="37" y1="59" y2="5" gradientTransform="matrix(2 0 0 2 3 6)" gradientUnits="userSpaceOnUse"/><linearGradient xlink:href="#c" id="af" x1="37" x2="37" y1="59" y2="5" gradientTransform="matrix(2 0 0 2 3 0)" gradientUnits="userSpaceOnUse"/><linearGradient xlink:href="#c" id="ag" x1="37" x2="37" y1="59" y2="5" gradientTransform="matrix(2 0 0 2 3 6)" gradientUnits="userSpaceOnUse"/><linearGradient xlink:href="#c" id="ah" x1="37" x2="37" y1="59" y2="5" gradientTransform="matrix(2 0 0 2 3 6)" gradientUnits="userSpaceOnUse"/><linearGradient xlink:href="#c" id="ai" x1="37" x2="37" y1="59" y2="5" gradientTransform="matrix(2 0 0 2 3 6)" gradientUnits="userSpaceOnUse"/><linearGradient xlink:href="#c" id="aj" x1="37" x2="37" y1="59" y2="5" gradientTransform="matrix(2 0 0 2 3 6)" gradientUnits="userSpaceOnUse"/><linearGradient xlink:href="#c" id="ak" x1="37" x2="37" y1="59" y2="5" gradientTransform="matrix(0 2 -2 0 75.012 -38)" gradientUnits="userSpaceOnUse"/><linearGradient xlink:href="#c" id="al" x1="37" x2="37" y1="59" y2="5" gradientTransform="matrix(0 2 -2 0 75.012 -38)" gradientUnits="userSpaceOnUse"/><linearGradient xlink:href="#c" id="am" x1="37" x2="37" y1="59" y2="5" gradientTransform="matrix(2 0 0 2 3 6)" gradientUnits="userSpaceOnUse"/><linearGradient xlink:href="#c" id="ap" x1="37" x2="37" y1="59" y2="5" gradientTransform="matrix(2 0 0 2 3 6)" gradientUnits="userSpaceOnUse"/><linearGradient xlink:href="#c" id="aq" x1="37" x2="37" y1="59" y2="5" gradientTransform="matrix(2 0 0 2 3 6)" gradientUnits="userSpaceOnUse"/><linearGradient xlink:href="#c" id="ar" x1="37" x2="37" y1="59" y2="5" gradientTransform="matrix(2 0 0 2 3 0)" gradientUnits="userSpaceOnUse"/><linearGradient xlink:href="#c" id="as" x1="37" x2="37" y1="59" y2="5" gradientTransform="matrix(2 0 0 2 3 0)" gradientUnits="userSpaceOnUse"/><linearGradient xlink:href="#c" id="at" x1="37" x2="37" y1="59" y2="5" gradientTransform="rotate(90 34.747 28.753)" gradientUnits="userSpaceOnUse"/><linearGradient xlink:href="#c" id="au" x1="37" x2="37" y1="59" y2="5" gradientTransform="rotate(90 34.747 28.753)" gradientUnits="userSpaceOnUse"/><linearGradient id="n"><stop offset="0" stop-color="#00ff27"/><stop offset=".262" stop-color="#458b50"/><stop offset=".705" stop-color="#176121"/><stop offset="1" stop-color="#2b5131"/></linearGradient><linearGradient id="u"><stop offset="0" stop-color="#505050"/><stop offset=".622" stop-color="#2b2b2b"/><stop offset="1" stop-color="#0a0a0a"/></linearGradient><linearGradient xlink:href="#d" id="aC" x1="24.708" x2="24.708" y1="6.077" y2="93.723" gradientTransform="matrix(.62763 0 0 .86712 40.492 23.73)" gradientUnits="userSpaceOnUse"/><linearGradient id="d"><stop offset="0" stop-color="#fff"/><stop offset=".004" stop-color="#fff" stop-opacity=".235"/><stop offset=".996" stop-color="#fff" stop-opacity=".157"/><stop offset="1" stop-color="#fff" stop-opacity=".392"/></linearGradient><linearGradient xlink:href="#e" id="j" x1="79" x2="79" y1="38" y2="40" gradientTransform="translate(0 1)" gradientUnits="userSpaceOnUse"/><linearGradient xlink:href="#g" id="k" x1="98" x2="98" y1="37" y2="42" gradientTransform="translate(0 1)" gradientUnits="userSpaceOnUse"/><linearGradient xlink:href="#i" id="m" x1="26.277" x2="26.277" y1="-38.9" y2="49.9" gradientTransform="matrix(.71572 0 0 .01126 38.193 38.438)" gradientUnits="userSpaceOnUse"/><path id="av" fill="url(#j)" stroke="none" d="M32 35.5h64l-.002 2.486L97.5 38v3h-1.995l-.01-1.5H32.483L32.5 41h-2v-3H32Z"/><path id="aw" fill="none" stroke="url(#k)" d="M32 35.5h64V38h1.5l.044 4h-2.039l-.01-2.5H32.483L32.5 42h-2v-4H32Z"/><path id="ax" fill="#fff" stroke="none" d="M96 38h1v1h-1zm-65 0h1v1h-1z"/><path id="ay" fill="none" stroke="url(#m)" d="M32.5 36.5h63v2h-63z"/><path id="az" fill="#000" stroke="none" d="M33 40h62v1H33z"/><path id="aA" fill="#000" stroke="#000" d="M35.517 28.5h56.966c.563 0 1.017.464 1.017 1.04v76.92c0 .576-.454 1.04-1.017 1.04H35.517a1.026 1.026 0 0 1-1.017-1.04V29.54c0-.576.454-1.04 1.017-1.04"/><radialGradient xlink:href="#n" id="z" cx="6.73" cy="9.957" r="12.672" gradientTransform="matrix(0 25.08328 -30.79425 0 372.817 -208.092)" gradientUnits="userSpaceOnUse"/><radialGradient xlink:href="#o" id="w" cx="4.993" cy="43.5" r="2.5" gradientTransform="matrix(2.00378 0 0 1.4 27.988 -17.4)" gradientUnits="userSpaceOnUse"/><radialGradient xlink:href="#p" id="x" cx="4.993" cy="43.5" r="2.5" gradientTransform="matrix(2.00378 0 0 1.4 -20.012 -104.4)" gradientUnits="userSpaceOnUse"/><radialGradient xlink:href="#q" id="v" cx="-4.029" cy="93.468" r="35.338" gradientTransform="matrix(1.5564 0 0 .16979 70.27 102.13)" gradientUnits="userSpaceOnUse"/><radialGradient xlink:href="#u" id="aB" cx="8.775" cy="7.101" r="14.099" gradientTransform="matrix(0 9.29169 -10.49717 0 138.545 -49.534)" gradientUnits="userSpaceOnUse"/></defs><path fill="url(#v)" d="M119 118a55 6 0 0 1-110 0 55 6 0 1 1 110 0" color="#000" opacity=".2" overflow="visible" style="marker:none"/><g opacity=".4"><path fill="url(#w)" d="M38 40h5v7h-5z" transform="matrix(2.8421 0 0 .71429 -4.21 87.429)"/><path fill="url(#x)" d="M-10-47h5v7h-5z" transform="matrix(-2.8421 0 0 -.71429 -4.21 87.429)"/><path fill="url(#y)" d="M10 40h28v7H10z" transform="matrix(2.8421 0 0 .71429 -4.21 87.429)"/></g><rect width="103" height="103" x="12.5" y="15.5" fill="url(#z)" stroke="#1c2c38" stroke-opacity=".5" color="#000" overflow="visible" rx="10" ry="10" style="marker:none"/><rect width="101" height="101" x="13.5" y="16.5" fill="none" stroke="url(#A)" stroke-linecap="round" stroke-linejoin="round" opacity=".3" rx="9" ry="9"/><path fill="none" stroke="url(#B)" stroke-linecap="square" stroke-width="2" d="M48 32.99v-8l6-5.79v-2.21"/><path fill="none" stroke="url(#C)" stroke-linecap="square" stroke-width="2" d="M96 104H72.014L66 98v-4"/><path fill="none" stroke="url(#D)" stroke-linecap="square" stroke-width="2" d="m35 39.99 7-7v-12L46 17"/><path fill="none" stroke="url(#E)" stroke-linecap="square" stroke-width="2" d="M62 26.99a2 2 0 1 1-4 0 2 2 0 0 1 4 0z"/><path fill="none" stroke="url(#F)" stroke-linecap="square" stroke-width="2" d="M62.014 26.99H88"/><path fill="none" stroke="url(#G)" stroke-linecap="square" stroke-width="2" d="M92 26.99a2 2 0 1 1-4 0 2 2 0 0 1 4 0z"/><path fill="none" stroke="url(#H)" stroke-linecap="square" stroke-width="2" d="M112 22.99a2 2 0 1 1-4 0 2 2 0 0 1 4 0z"/><path fill="none" stroke="url(#I)" stroke-linecap="square" stroke-width="2" d="M110.01 83a2 2 0 1 1-4 0 2 2 0 0 1 4 0z"/><path fill="none" stroke="url(#J)" stroke-linecap="square" stroke-width="2" d="M24 52.012a2 2 0 1 1-4 0 2 2 0 0 1 4 0z"/><path fill="none" stroke="url(#K)" stroke-linecap="square" stroke-width="2" d="M36 31.012a2 2 0 1 1-4 0 2 2 0 0 1 4 0z"/><path fill="none" stroke="url(#L)" stroke-linecap="square" stroke-width="2" d="M34 17v12.012"/><path fill="none" stroke="url(#M)" stroke-linecap="round" stroke-width="2" d="M110 24.976V44l4.5 4.5"/><path fill="none" stroke="url(#N)" stroke-linecap="round" stroke-width="2" d="m105.01 116.99 7-7v-18l-3-3"/><path fill="none" stroke="url(#O)" stroke-linecap="square" stroke-width="2" d="M106.01 83h-24"/><path fill="none" stroke="url(#P)" stroke-linecap="round" stroke-width="2" d="m37 52.012-11-11v-16l-7-7"/><path fill="none" stroke="url(#Q)" stroke-width="2" d="M13 29.012h5l4 4v10L32 53v16l7 7"/><path fill="none" stroke="url(#R)" stroke-linecap="square" stroke-width="2" d="M48.014 112a2 2 0 1 0 4 0 2 2 0 0 0-4 0z"/><path fill="none" stroke="url(#S)" stroke-linecap="square" stroke-width="2" d="M48 112H34.014L28 106V92l4-4"/><path fill="none" stroke="url(#T)" stroke-width="2" d="M28 117v-4l-6-6V95"/><path fill="none" stroke="url(#U)" stroke-linecap="square" stroke-width="2" d="M24 117h0v-2l-6-6V91l10-10V71"/><path fill="none" stroke="url(#V)" stroke-linecap="square" stroke-width="2" d="M103 24v18L90 54.99"/><path fill="none" stroke="url(#W)" stroke-linecap="square" stroke-width="2" d="M20 52.012h-6"/><path fill="none" stroke="url(#X)" stroke-linecap="square" stroke-width="2" d="M24 61.012a2 2 0 1 1-4 0 2 2 0 0 1 4 0z"/><path fill="none" stroke="url(#Y)" stroke-linecap="square" stroke-width="2" d="M20 61.012h-6"/><path fill="none" stroke="url(#Z)" stroke-linecap="square" stroke-width="2" d="M42 105.99a2 2 0 1 1-4 0 2 2 0 0 1 4 0z"/><path fill="none" stroke="url(#aa)" stroke-linecap="square" stroke-width="2" d="M100 103.99a2 2 0 1 1-4 0 2 2 0 0 1 4 0z"/><path fill="none" stroke="url(#ab)" stroke-linecap="square" stroke-width="2" d="M104.01 55a2 2 0 1 0 4 0 2 2 0 0 0-4 0z"/><path fill="none" stroke="url(#ac)" stroke-linecap="square" stroke-width="2" d="M108.01 55H115"/><path fill="none" stroke="url(#ad)" stroke-linecap="square" stroke-width="2" d="M100.01 94a2 2 0 1 1-4 0 2 2 0 0 1 4 0z"/><path fill="none" stroke="url(#ae)" stroke-linecap="square" stroke-width="2" d="M96.01 94h-10"/><path fill="none" stroke="url(#af)" stroke-linecap="square" stroke-width="2" d="M114 76h-10l-6-6V60"/><path fill="none" stroke="url(#ag)" stroke-linecap="square" stroke-width="2" d="M98 16.99v18l-10 10"/><path fill="none" stroke="url(#ah)" stroke-linecap="square" stroke-width="2" d="M42 106h11.986L60 112v4"/><path fill="none" stroke="url(#ai)" stroke-linecap="square" stroke-width="2" d="M82.014 111.99 100 112l6-6.01V96"/><path fill="none" stroke="url(#aj)" stroke-linecap="square" stroke-width="2" d="M82 111.99a2 2 0 1 1-4 0 2 2 0 0 1 4 0z"/><path fill="none" stroke="url(#ak)" stroke-linecap="square" stroke-width="2" d="M70 23a2 2 0 1 1 0-4 2 2 0 0 1 0 4z"/><path fill="none" stroke="url(#al)" stroke-linecap="square" stroke-width="2" d="M70 19v-2"/><path fill="none" stroke="url(#am)" stroke-linecap="round" stroke-width="2" d="m25 65.99-7 7v6"/><path fill="none" stroke="url(#ap)" stroke-linecap="square" stroke-width="2" d="M20 81.012a2 2 0 1 1-4 0 2 2 0 0 1 4 0z"/><path fill="none" stroke="url(#aq)" stroke-linecap="round" stroke-width="2" d="M72.014 20.99 88 21l4-4"/><path fill="none" stroke="url(#ar)" stroke-linecap="square" stroke-width="2" d="M104.01 65a2 2 0 1 0 4 0 2 2 0 0 0-4 0z"/><path fill="none" stroke="url(#as)" stroke-linecap="square" stroke-width="2" d="M108.01 65H115"/><g fill="none" stroke="url(#linearGradient5022)" stroke-linecap="square" transform="matrix(0 -2 2 0 14.988 133)"><path stroke="url(#at)" d="M12.5 26.506a1 1 0 1 1-2 0 1 1 0 0 1 2 0z"/><path stroke="url(#au)" d="M10.5 26.506h-2"/></g><use xlink:href="#av" stroke-linecap="square" stroke-linejoin="round" stroke-opacity=".498" transform="translate(0 51)"/><use xlink:href="#aw" stroke-linecap="square" stroke-opacity=".498" opacity=".8" transform="translate(0 51)"/><use xlink:href="#ax" stroke-linecap="square" stroke-linejoin="round" stroke-opacity=".498" opacity=".5" transform="translate(0 51)"/><use xlink:href="#ay" stroke-linecap="round" opacity=".8" transform="translate(0 51)"/><use xlink:href="#az" stroke-linecap="square" stroke-linejoin="round" stroke-opacity=".498" opacity=".15" transform="translate(0 51)"/><use xlink:href="#av" stroke-linecap="square" stroke-linejoin="round" stroke-opacity=".498" transform="translate(0 9)"/><use xlink:href="#aw" stroke-linecap="square" stroke-opacity=".498" opacity=".8" transform="translate(0 9)"/><use xlink:href="#ax" stroke-linecap="square" stroke-linejoin="round" stroke-opacity=".498" opacity=".5" transform="translate(0 9)"/><use xlink:href="#ay" stroke-linecap="round" opacity=".8" transform="translate(0 9)"/><use xlink:href="#az" stroke-linecap="square" stroke-linejoin="round" stroke-opacity=".498" opacity=".15" transform="translate(0 9)"/><use xlink:href="#av" stroke-linecap="square" stroke-linejoin="round" stroke-opacity=".498" transform="translate(0 -3)"/><use xlink:href="#aw" stroke-linecap="square" stroke-opacity=".498" opacity=".8" transform="translate(0 -3)"/><use xlink:href="#ax" stroke-linecap="square" stroke-linejoin="round" stroke-opacity=".498" opacity=".5" transform="translate(0 -3)"/><use xlink:href="#ay" stroke-linecap="round" opacity=".8" transform="translate(0 -3)"/><use xlink:href="#az" stroke-linecap="square" stroke-linejoin="round" stroke-opacity=".498" opacity=".15" transform="translate(0 -3)"/><use xlink:href="#av" stroke-linecap="square" stroke-linejoin="round" stroke-opacity=".498" transform="translate(0 3)"/><use xlink:href="#aw" stroke-linecap="square" stroke-opacity=".498" opacity=".8" transform="translate(0 3)"/><use xlink:href="#ax" stroke-linecap="square" stroke-linejoin="round" stroke-opacity=".498" opacity=".5" transform="translate(0 3)"/><use xlink:href="#ay" stroke-linecap="round" opacity=".8" transform="translate(0 3)"/><use xlink:href="#az" stroke-linecap="square" stroke-linejoin="round" stroke-opacity=".498" opacity=".15" transform="translate(0 3)"/><use xlink:href="#av" stroke-linecap="square" stroke-linejoin="round" stroke-opacity=".498" transform="matrix(-1 0 0 1 128.05 15)"/><use xlink:href="#aw" stroke-linecap="square" stroke-opacity=".498" opacity=".8" transform="matrix(-1 0 0 1 128.05 15)"/><use xlink:href="#ax" stroke-linecap="square" stroke-linejoin="round" stroke-opacity=".498" opacity=".5" transform="matrix(-1 0 0 1 128.05 15)"/><use xlink:href="#ay" stroke-linecap="round" opacity=".8" transform="matrix(-1 0 0 1 128.05 15)"/><use xlink:href="#az" stroke-linecap="square" stroke-linejoin="round" stroke-opacity=".498" opacity=".15" transform="matrix(-1 0 0 1 128.05 15)"/><use xlink:href="#av" stroke-linecap="square" stroke-linejoin="round" stroke-opacity=".498" transform="translate(0 21)"/><use xlink:href="#aw" stroke-linecap="square" stroke-opacity=".498" opacity=".8" transform="translate(0 21)"/><use xlink:href="#ax" stroke-linecap="square" stroke-linejoin="round" stroke-opacity=".498" opacity=".5" transform="translate(0 21)"/><use xlink:href="#ay" stroke-linecap="round" opacity=".8" transform="translate(0 21)"/><use xlink:href="#az" stroke-linecap="square" stroke-linejoin="round" stroke-opacity=".498" opacity=".15" transform="translate(0 21)"/><use xlink:href="#av" stroke-linecap="square" stroke-linejoin="round" stroke-opacity=".498" transform="translate(0 39)"/><use xlink:href="#aw" stroke-linecap="square" stroke-opacity=".498" opacity=".8" transform="translate(0 39)"/><use xlink:href="#ax" stroke-linecap="square" stroke-linejoin="round" stroke-opacity=".498" opacity=".5" transform="translate(0 39)"/><use xlink:href="#ay" stroke-linecap="round" opacity=".8" transform="translate(0 39)"/><use xlink:href="#az" stroke-linecap="square" stroke-linejoin="round" stroke-opacity=".498" opacity=".15" transform="translate(0 39)"/><use xlink:href="#av" stroke-linecap="square" stroke-linejoin="round" stroke-opacity=".498" transform="translate(0 27)"/><use xlink:href="#aw" stroke-linecap="square" stroke-opacity=".498" opacity=".8" transform="translate(0 27)"/><use xlink:href="#ax" stroke-linecap="square" stroke-linejoin="round" stroke-opacity=".498" opacity=".5" transform="translate(0 27)"/><use xlink:href="#ay" stroke-linecap="round" opacity=".8" transform="translate(0 27)"/><use xlink:href="#az" stroke-linecap="square" stroke-linejoin="round" stroke-opacity=".498" opacity=".15" transform="translate(0 27)"/><use xlink:href="#av" stroke-linecap="square" stroke-linejoin="round" stroke-opacity=".498" transform="translate(0 33)"/><use xlink:href="#aw" stroke-linecap="square" stroke-opacity=".498" opacity=".8" transform="translate(0 33)"/><use xlink:href="#ax" stroke-linecap="square" stroke-linejoin="round" stroke-opacity=".498" opacity=".5" transform="translate(0 33)"/><use xlink:href="#ay" stroke-linecap="round" opacity=".8" transform="translate(0 33)"/><use xlink:href="#az" stroke-linecap="square" stroke-linejoin="round" stroke-opacity=".498" opacity=".15" transform="translate(0 33)"/><use xlink:href="#av" stroke-linecap="square" stroke-linejoin="round" stroke-opacity=".498" transform="translate(0 45)"/><use xlink:href="#aw" stroke-linecap="square" stroke-opacity=".498" opacity=".8" transform="translate(0 45)"/><use xlink:href="#ax" stroke-linecap="square" stroke-linejoin="round" stroke-opacity=".498" opacity=".5" transform="translate(0 45)"/><use xlink:href="#ay" stroke-linecap="round" opacity=".8" transform="translate(0 45)"/><use xlink:href="#az" stroke-linecap="square" stroke-linejoin="round" stroke-opacity=".498" opacity=".15" transform="translate(0 45)"/><use xlink:href="#av" stroke-linecap="square" stroke-linejoin="round" stroke-opacity=".498" transform="translate(0 57)"/><use xlink:href="#aw" stroke-linecap="square" stroke-opacity=".498" opacity=".8" transform="translate(0 57)"/><use xlink:href="#ax" stroke-linecap="square" stroke-linejoin="round" stroke-opacity=".498" opacity=".5" transform="translate(0 57)"/><use xlink:href="#ay" stroke-linecap="round" opacity=".8" transform="translate(0 57)"/><use xlink:href="#az" stroke-linecap="square" stroke-linejoin="round" stroke-opacity=".498" opacity=".15" transform="translate(0 57)"/><use xlink:href="#av" stroke-linecap="square" stroke-linejoin="round" stroke-opacity=".498" transform="translate(0 63)"/><use xlink:href="#aw" stroke-linecap="square" stroke-opacity=".498" opacity=".8" transform="translate(0 63)"/><use xlink:href="#ax" stroke-linecap="square" stroke-linejoin="round" stroke-opacity=".498" opacity=".5" transform="translate(0 63)"/><use xlink:href="#ay" stroke-linecap="round" opacity=".8" transform="translate(0 63)"/><use xlink:href="#az" stroke-linecap="square" stroke-linejoin="round" stroke-opacity=".498" opacity=".15" transform="translate(0 63)"/><use xlink:href="#aA" stroke-linecap="round" stroke-linejoin="round" color="#000" opacity=".3" overflow="visible" style="marker:none"/><use xlink:href="#aA" stroke-linecap="round" stroke-linejoin="round" stroke-width="3" color="#000" opacity=".05" overflow="visible" style="marker:none"/><path fill="url(#aB)" stroke="#000" stroke-linecap="round" stroke-linejoin="round" stroke-opacity=".39" d="M35.517 27.5h56.966c.563 0 1.017.464 1.017 1.04v76.92c0 .576-.454 1.04-1.017 1.04H35.517a1.026 1.026 0 0 1-1.017-1.04V28.54c0-.576.454-1.04 1.017-1.04" color="#000" overflow="visible" style="marker:none"/><path fill="none" stroke="url(#aC)" stroke-linecap="round" d="M35.5 28.5h57v77h-57z" opacity=".4"/><path fill="#fff" d="M55.15 43.497q-1.428 0-2.317.662-.891.66-.893 1.733c0 .487.127.94.378 1.35q.377.614 1.233 1.154-1.008.506-1.468 1.17-.45.662-.45 1.514 0 1.277.937 1.974t2.58.7q1.577 0 2.543-.744.965-.753.964-1.985 0-.779-.493-1.427c-.324-.437-.856-.856-1.605-1.257q.944-.471 1.37-1.066.423-.602.421-1.367 0-1.106-.882-1.755-.877-.656-2.317-.656m-11.57.131v9.989h2.12v-3.554h.91q1.864.001 2.87-.853 1.014-.853 1.014-2.466c0-1.034-.313-1.815-.948-2.334-.63-.524-1.557-.782-2.772-.782zm16.82 0-.379 5.09.844.448q.274-.08.712-.147.438-.076.8-.077 2.006-.001 2.005 1.51 0 1.584-1.94 1.585-.64.001-1.358-.175a5.7 5.7 0 0 1-1.26-.47v1.82q1.026.54 2.696.541 1.924 0 2.958-.902 1.035-.901 1.035-2.575.001-1.416-.86-2.23c-.57-.543-1.344-.81-2.312-.81q-.613 0-1.03.093l-.24.05.185-1.963h3.573v-1.788zm-5.26 1.41q.534 0 .876.274.342.273.34.744 0 .43-.268.76-.267.329-.937.645-.691-.342-.959-.662a1.17 1.17 0 0 1-.257-.743c0-.31.11-.55.328-.733q.336-.282.877-.284m-9.44.323h.965q.871 0 1.276.356.411.354.411 1.098 0 .74-.488 1.132-.485.383-1.462.383H45.7zm9.347 3.904q.87.45 1.254.853.39.395.39.853 0 .554-.39.896-.39.334-1.178.334-.712 0-1.123-.328-.41-.328-.41-.913-.001-1.026 1.457-1.695" font-family="Open Sans" font-size="5" font-weight="700" letter-spacing="0" opacity=".2" style="line-height:125%;-inkscape-font-specification:&quot;Open Sans Bold&quot;" word-spacing="0"/><path fill="none" stroke="#fff" d="M43.414 58.882h6.359zm7.001 0h10.407zm-7.001 4.134h7.515zm8.35 0h3.597zm4.24 0h1.798z" opacity=".2"/></svg>