<svg xmlns="http://www.w3.org/2000/svg" xmlns:ns3="http://www.w3.org/1999/xlink" xmlns:xlink="http://www.w3.org/1999/xlink" viewBox="0 0 128 128"><defs><linearGradient id="a"><stop offset="0" stop-color="#f4f4f4"/><stop offset="1" stop-color="#dbdbdb"/></linearGradient><linearGradient id="d"><stop offset="0" stop-color="#181818" stop-opacity="0"/><stop offset=".5" stop-color="#181818"/><stop offset="1" stop-color="#181818" stop-opacity="0"/></linearGradient><linearGradient id="e"><stop offset="0" stop-color="#181818"/><stop offset="1" stop-color="#181818" stop-opacity="0"/></linearGradient><linearGradient ns3:href="#a" id="k" x1="25.132" x2="25.132" y1=".985" y2="47.013" gradientTransform="matrix(2.62857 0 0 2.52049 .914 -4.358)" gradientUnits="userSpaceOnUse"/><linearGradient ns3:href="#b" id="m" x1="24" x2="24" y1="5.564" y2="42.195" gradientTransform="matrix(2.45946 0 0 3.1081 4.973 -14.595)" gradientUnits="userSpaceOnUse"/><linearGradient id="b"><stop offset="0" stop-color="#fff"/><stop offset=".006" stop-color="#fff" stop-opacity=".235"/><stop offset=".994" stop-color="#fff" stop-opacity=".157"/><stop offset="1" stop-color="#fff" stop-opacity=".392"/></linearGradient><linearGradient ns3:href="#c" id="l" x1="-51.786" x2="-51.786" y1="50.786" y2="2.906" gradientTransform="matrix(2.14563 0 0 2.37913 158.09 -7.746)" gradientUnits="userSpaceOnUse"/><linearGradient id="c"><stop offset="0" stop-opacity=".318"/><stop offset="1" stop-opacity=".24"/></linearGradient><linearGradient ns3:href="#d" id="j" x1="25.058" x2="25.058" y1="47.028" y2="39.999" gradientTransform="matrix(2.8421 0 0 .71429 -4.21 87.43)" gradientUnits="userSpaceOnUse"/><linearGradient id="f"><stop offset="0" stop-color="#919caf"/><stop offset=".262" stop-color="#68758e"/><stop offset=".705" stop-color="#485a6c"/><stop offset="1" stop-color="#444c5c"/></linearGradient><radialGradient ns3:href="#e" id="i" cx="4.993" cy="43.5" r="2.5" fx="4.993" fy="43.5" gradientTransform="matrix(5.69496 0 0 1 -52.665 -162.001)" gradientUnits="userSpaceOnUse"/><radialGradient ns3:href="#e" id="g" cx="4.993" cy="43.5" r="2.5" fx="4.993" fy="43.5" gradientTransform="matrix(5.69496 0 0 1 75.335 75.001)" gradientUnits="userSpaceOnUse"/><radialGradient ns3:href="#f" id="n" cx="6.73" cy="9.957" r="12.672" fx="6.2" fy="9.957" gradientTransform="matrix(0 26.78797 -32.88707 0 393.804 -231.787)" gradientUnits="userSpaceOnUse"/></defs><g stroke-width="1.039" opacity=".2"><path fill="url(#g)" d="M103.789 116.001H118v5h-14.211z" transform="matrix(.92593 0 0 1 4.74 0)"/><path fill="url(#i)" d="M-24.211-121.001H-10v5h-14.211z" transform="matrix(-.92593 0 0 -1 4.74 0)"/><path fill="url(#j)" d="M24.211 116.001h79.579v5H24.211z" transform="matrix(.92593 0 0 1 4.74 0)"/></g><path fill="url(#k)" d="M18 2c21.082 0 92 .007 92 .007V118H18z"/><path fill="none" stroke="url(#l)" stroke-linejoin="round" d="M17.5 1.5c21.311 0 93 .008 93 .008V118.5h-93z"/><path fill="none" stroke="url(#m)" stroke-linecap="round" stroke-linejoin="round" d="M109.5 117.5h-91V2.5h91z"/><path fill="url(#n)" d="M60 32c-.72 0-1.32 2.78-1.672 6.754a22 22 0 0 0-5.316 2.234c-3.071-2.574-5.47-4.127-5.98-3.617l-5.66 5.66c-.511.51 1.042 2.91 3.616 5.98a22 22 0 0 0-2.215 5.317C38.79 54.68 36 55.278 36 56v8c0 .72 2.78 1.32 6.754 1.672A22 22 0 0 0 44.98 71c-2.568 3.066-4.119 5.459-3.609 5.969l5.66 5.66c.51.51 2.9-1.038 5.961-3.602a22 22 0 0 0 5.336 2.2C58.68 85.21 59.278 88 60 88h8c.72 0 1.32-2.78 1.672-6.754a22 22 0 0 0 5.316-2.234c3.071 2.574 5.47 4.127 5.98 3.617l5.66-5.66c.511-.51-1.042-2.91-3.616-5.98a22 22 0 0 0 2.215-5.317C89.21 65.32 92 64.722 92 64v-8c0-.72-2.78-1.32-6.754-1.672A22 22 0 0 0 83.02 49c2.568-3.066 4.119-5.459 3.609-5.969l-5.66-5.66c-.51-.51-2.9 1.038-5.961 3.602a22 22 0 0 0-5.336-2.2C69.32 34.79 68.722 32 68 32Zm4 18a10 10 0 0 1 10 10 10 10 0 0 1-10 10 10 10 0 0 1-10-10 10 10 0 0 1 10-10" color="#000" overflow="visible" style="isolation:auto;mix-blend-mode:normal;solid-color:#000;solid-opacity:1;marker:none"/></svg>