<svg xmlns="http://www.w3.org/2000/svg" xmlns:xlink="http://www.w3.org/1999/xlink" viewBox="0 0 128 128"><defs><linearGradient id="b"><stop offset="0" stop-color="#fff"/><stop offset=".063" stop-color="#fff" stop-opacity=".235"/><stop offset=".951" stop-color="#fff" stop-opacity=".157"/><stop offset="1" stop-color="#fff" stop-opacity=".392"/></linearGradient><linearGradient id="j"><stop offset="0" stop-color="#181818"/><stop offset="1" stop-color="#181818" stop-opacity="0"/></linearGradient><linearGradient id="l"><stop offset="0" stop-color="#181818"/><stop offset="1" stop-color="#181818" stop-opacity="0"/></linearGradient><linearGradient xlink:href="#a" id="q" x1="25.058" x2="25.058" y1="47.028" y2="39.999" gradientUnits="userSpaceOnUse"/><linearGradient id="a"><stop offset="0" stop-color="#181818" stop-opacity="0"/><stop offset=".5" stop-color="#181818"/><stop offset="1" stop-color="#181818" stop-opacity="0"/></linearGradient><linearGradient id="m"><stop offset="0"/><stop offset="1" stop-opacity="0"/></linearGradient><linearGradient id="c"><stop offset="0" stop-color="#cdf87e"/><stop offset=".262" stop-color="#a2e34f"/><stop offset=".661" stop-color="#68b723"/><stop offset="1" stop-color="#1d7e0d"/></linearGradient><linearGradient id="d"><stop offset="0"/><stop offset="1" stop-opacity="0"/></linearGradient><linearGradient xlink:href="#b" id="t" x1="24" x2="24" y1="5" y2="43" gradientTransform="translate(-1.514 1.488)scale(2.72973)" gradientUnits="userSpaceOnUse"/><linearGradient xlink:href="#c" id="u" x1="24.17" x2="24.17" y1="-12.242" y2="48.934" gradientTransform="matrix(1.87273 0 0 1.92308 4.073 6.846)" gradientUnits="userSpaceOnUse"/><linearGradient xlink:href="#d" id="s" x1="23.954" x2="23.954" y1="15.999" y2="19.963" gradientTransform="matrix(2.6 0 0 .75 1.6 29)" gradientUnits="userSpaceOnUse"/><linearGradient xlink:href="#f" id="r" x1="25.132" x2="25.132" y1="15.5" y2="48.396" gradientTransform="matrix(2.36985 0 0 2.2724 7.124 6.271)" gradientUnits="userSpaceOnUse"/><linearGradient id="f"><stop offset="0" stop-color="#fafafa"/><stop offset="1" stop-color="#e2e1de"/></linearGradient><linearGradient id="i"><stop offset="0" stop-color="#fff"/><stop offset=".063" stop-color="#fff" stop-opacity=".235"/><stop offset=".951" stop-color="#fff" stop-opacity=".157"/><stop offset="1" stop-color="#fff" stop-opacity=".392"/></linearGradient><linearGradient xlink:href="#i" id="x" x1="24" x2="24" y1="5" y2="43" gradientTransform="translate(-1.514 1.488)scale(2.72973)" gradientUnits="userSpaceOnUse"/><radialGradient xlink:href="#j" id="o" cx="4.993" cy="43.5" r="2.5" fx="4.993" fy="43.5" gradientTransform="matrix(2.00378 0 0 1.4 27.988 -17.4)" gradientUnits="userSpaceOnUse"/><radialGradient xlink:href="#l" id="p" cx="4.993" cy="43.5" r="2.5" fx="4.993" fy="43.5" gradientTransform="matrix(2.00378 0 0 1.4 -20.012 -104.4)" gradientUnits="userSpaceOnUse"/><radialGradient xlink:href="#m" id="n" cx="-4.029" cy="93.468" r="35.338" fx="-4.029" fy="93.468" gradientTransform="matrix(1.5564 0 0 .16979 70.27 102.132)" gradientUnits="userSpaceOnUse"/><path id="v" fill="#fff" stroke="none" d="M11.465 11.472a1.102 1.047 0 1 1-2.205 0 1.102 1.047 0 1 1 2.205 0"/><path id="w" fill="#126400" stroke="none" d="M11.465 11.472a1.102 1.047 0 1 1-2.205 0 1.102 1.047 0 1 1 2.205 0"/></defs><path fill="url(#n)" d="M119 118.002a55 6 0 0 1-110 0 55 6 0 1 1 110 0" color="#000" opacity=".2" overflow="visible" style="marker:none"/><g opacity=".4"><path fill="url(#o)" d="M38 40h5v7h-5z" transform="matrix(2.8421 0 0 .71429 -4.21 87.43)"/><path fill="url(#p)" d="M-10-47h5v7h-5z" transform="matrix(-2.8421 0 0 -.71429 -4.21 87.43)"/><path fill="url(#q)" d="M10 40h28v7H10z" transform="matrix(2.8421 0 0 .71429 -4.21 87.43)"/></g><rect width="102" height="102" x="13" y="16" fill="url(#r)" color="#000" overflow="visible" rx="5" ry="5" style="marker:none"/><rect width="104" height="3" x="12" y="41" fill="url(#s)" opacity=".15" overflow="visible" rx="0" ry="0" style="marker:none"/><path fill="none" stroke="#000" d="M12.5 40.238v72.644a5.606 5.606 0 0 0 5.618 5.618h91.764a5.606 5.606 0 0 0 5.618-5.618V40.238" opacity=".3"/><path fill="none" stroke="#fff" d="M102.5 91.5h-77zm-.057-35.923L25.5 55.519V104.5h77zM102.5 80.5h-77m77-12h-77m15.052-12.872-.104 48.872M55.51 55.84l-.02 48.66m15-48.83.02 48.83m14.951-49 .078 49" color="#000" opacity=".2" overflow="visible" style="marker:none"/><rect width="101" height="101" x="13.5" y="16.502" fill="none" stroke="url(#t)" stroke-linecap="round" stroke-linejoin="round" rx="5" ry="5"/><path fill="url(#u)" d="M18.118 15.5c-3.112 0-5.618 2.573-5.618 5.77V40.5h103V21.27c0-3.197-2.506-5.77-5.618-5.77z" color="#000" overflow="visible" style="marker:none"/><path fill="none" stroke="#126400" stroke-linecap="round" d="M18.118 15.5c-3.112 0-5.618 2.573-5.618 5.77V40.5h103V21.27c0-3.197-2.506-5.77-5.618-5.77z" color="#000" opacity=".4" overflow="visible" style="marker:none"/><use xlink:href="#v" stroke-width="1.074" color="#000" opacity=".3" overflow="visible" style="marker:none" transform="matrix(2.26786 0 0 2.38722 4 1.613)"/><use xlink:href="#w" stroke-width="1.074" color="#000" opacity=".4" overflow="visible" style="marker:none" transform="matrix(2.26786 0 0 2.38722 4 .613)"/><path fill="none" stroke="url(#x)" stroke-linecap="round" stroke-linejoin="round" d="M18.5 16.5c-2.77 0-5 2.23-5 5v18h101v-18c0-2.77-2.23-5-5-5z" opacity=".5"/><use xlink:href="#v" stroke-width="1.074" color="#000" opacity=".3" overflow="visible" style="marker:none" transform="matrix(2.26786 0 0 2.38722 77 1.613)"/><use xlink:href="#w" stroke-width="1.074" color="#000" opacity=".4" overflow="visible" style="marker:none" transform="matrix(2.26786 0 0 2.38722 77 .613)"/><path fill="none" stroke="#5e553c" d="M102.5 90.5h-77zm-.057-35.923L25.5 54.519V103.5h77zM102.5 79.5h-77m77-12h-77m15.052-12.872-.104 48.872M55.51 54.84l-.02 48.66m15-48.83.02 48.83m14.951-49 .078 49" opacity=".25"/></svg>