<svg xmlns="http://www.w3.org/2000/svg" xmlns:ns3="http://www.w3.org/1999/xlink" xmlns:xlink="http://www.w3.org/1999/xlink" viewBox="0 0 128 128"><defs><linearGradient id="a"><stop offset="0" stop-color="#f4f4f4"/><stop offset="1" stop-color="#dbdbdb"/></linearGradient><linearGradient id="d"><stop offset="0" stop-color="#181818" stop-opacity="0"/><stop offset=".5" stop-color="#181818"/><stop offset="1" stop-color="#181818" stop-opacity="0"/></linearGradient><linearGradient id="e"><stop offset="0" stop-color="#181818"/><stop offset="1" stop-color="#181818" stop-opacity="0"/></linearGradient><linearGradient ns3:href="#a" id="k" x1="25.132" x2="25.132" y1=".985" y2="47.013" gradientTransform="matrix(2.62857 0 0 2.52049 .914 -4.358)" gradientUnits="userSpaceOnUse"/><linearGradient ns3:href="#b" id="m" x1="24" x2="24" y1="5.564" y2="42.195" gradientTransform="matrix(2.45946 0 0 3.1081 4.973 -14.595)" gradientUnits="userSpaceOnUse"/><linearGradient id="b"><stop offset="0" stop-color="#fff"/><stop offset=".006" stop-color="#fff" stop-opacity=".235"/><stop offset=".994" stop-color="#fff" stop-opacity=".157"/><stop offset="1" stop-color="#fff" stop-opacity=".392"/></linearGradient><linearGradient ns3:href="#c" id="l" x1="-51.786" x2="-51.786" y1="50.786" y2="2.906" gradientTransform="matrix(2.14563 0 0 2.37913 158.09 -7.746)" gradientUnits="userSpaceOnUse"/><linearGradient id="c"><stop offset="0" stop-opacity=".318"/><stop offset="1" stop-opacity=".24"/></linearGradient><linearGradient ns3:href="#d" id="j" x1="25.058" x2="25.058" y1="47.028" y2="39.999" gradientTransform="matrix(2.8421 0 0 .71429 -4.21 87.43)" gradientUnits="userSpaceOnUse"/><linearGradient id="f"><stop offset="0" stop-color="#bdff69"/><stop offset=".262" stop-color="#8ed451"/><stop offset=".661" stop-color="#58aa30"/><stop offset="1" stop-color="#2a6c1f"/></linearGradient><radialGradient ns3:href="#e" id="i" cx="4.993" cy="43.5" r="2.5" fx="4.993" fy="43.5" gradientTransform="matrix(5.69496 0 0 1 -52.665 -162.001)" gradientUnits="userSpaceOnUse"/><radialGradient ns3:href="#e" id="g" cx="4.993" cy="43.5" r="2.5" fx="4.993" fy="43.5" gradientTransform="matrix(5.69496 0 0 1 75.335 75.001)" gradientUnits="userSpaceOnUse"/><radialGradient ns3:href="#f" id="n" cx="5.616" cy="9.957" r="12.672" fx="5.085" fy="9.957" gradientTransform="matrix(0 20.51788 -25.1894 0 314.785 -177.218)" gradientUnits="userSpaceOnUse"/></defs><g stroke-width="1.039" opacity=".2"><path fill="url(#g)" d="M103.789 116.001H118v5h-14.211z" transform="matrix(.92593 0 0 1 4.74 0)"/><path fill="url(#i)" d="M-24.211-121.001H-10v5h-14.211z" transform="matrix(-.92593 0 0 -1 4.74 0)"/><path fill="url(#j)" d="M24.211 116.001h79.579v5H24.211z" transform="matrix(.92593 0 0 1 4.74 0)"/></g><path fill="url(#k)" d="M18 2c21.082 0 92 .007 92 .007V118H18z"/><path fill="none" stroke="url(#l)" stroke-linejoin="round" d="M17.5 1.5c21.311 0 93 .008 93 .008V118.5h-93z"/><path fill="none" stroke="url(#m)" stroke-linecap="round" stroke-linejoin="round" d="M109.5 117.5h-91V2.5h91z"/><path fill="url(#n)" d="m68 34-34 6v44l34 6zm2 4v4h8v6h-8v2h8v6h-8v2h8v6h-8v2h8v6h-8v2h8v6h-8v4h24V38Zm10 4h10v6H80Zm0 8h10v6H80Zm-22.687 1.437c.363-.007.562-.015.562 0 0 .03-1.023 2.356-2.312 5.125l-2.376 5 2.376 5c1.29 2.733 2.312 5.074 2.312 5.188 0 .24-1.723.2-3.187-.062-.97-.174-1.018-.283-2.25-3.376-.703-1.762-1.382-3.314-1.5-3.437s-.805 1.212-1.5 2.938c-.696 1.725-1.344 3.208-1.438 3.312s-.95.104-1.937 0l-1.813-.187 2.188-4.626 2.187-4.625-1.937-4.437c-1.061-2.448-1.938-4.639-1.938-4.813 0-.193.732-.312 1.875-.312H48.5l1.063 3c.597 1.642 1.202 3.066 1.312 3.187.11.122.854-1.339 1.625-3.25l1.375-3.437 2-.125c.551-.026 1.074-.055 1.438-.063M80 58h10v6H80Zm0 8h10v6H80Zm0 8h10v6H80Z" color="#000" overflow="visible" style="isolation:auto;mix-blend-mode:normal;solid-color:#000;solid-opacity:1;marker:none"/></svg>