<svg xmlns="http://www.w3.org/2000/svg" xmlns:xlink="http://www.w3.org/1999/xlink" viewBox="0 0 128 128"><defs><linearGradient id="d"><stop offset="0"/><stop offset="1" stop-opacity="0"/></linearGradient><linearGradient xlink:href="#a" id="g" x1="18.142" x2="18.142" y1="35" y2="42.041" gradientTransform="matrix(1.01333 0 0 .89963 -.044 3.866)" gradientUnits="userSpaceOnUse"/><linearGradient id="a"><stop offset="0" stop-opacity="0"/><stop offset=".5"/><stop offset="1" stop-opacity="0"/></linearGradient><linearGradient xlink:href="#b" id="h" x1="30.739" x2="45.903" y1="35.285" y2="50.736" gradientTransform="rotate(90 215.8 93.962)scale(5.41006 5.30706)" gradientUnits="userSpaceOnUse"/><linearGradient id="b"><stop offset="0" stop-color="#f0f0f1"/><stop offset="1" stop-color="#cbcdd9"/></linearGradient><linearGradient xlink:href="#c" id="i" x1="75.78" x2="75.78" y1="86" y2="127.036" gradientTransform="matrix(-2 0 0 2.00084 236.5 -127.608)" gradientUnits="userSpaceOnUse"/><linearGradient id="c"><stop offset="0" stop-color="#fff"/><stop offset="1" stop-color="#fff" stop-opacity="0"/></linearGradient><radialGradient xlink:href="#d" id="e" cx="7" cy="39.465" r="3.5" fx="7" fy="39.465" gradientTransform="matrix(0 -.89963 .93506 0 -81.63 -32.204)" gradientUnits="userSpaceOnUse"/><radialGradient xlink:href="#d" id="f" cx="7" cy="39.465" r="3.5" fx="7" fy="39.465" gradientTransform="matrix(0 -.89963 .93506 0 -33.63 44.799)" gradientUnits="userSpaceOnUse"/></defs><g opacity=".3"><path fill="url(#e)" d="M-48-41.65h3.273v6.297H-48z" transform="matrix(1.83333 0 0 -1.42917 126 68.475)"/><path fill="url(#f)" d="M0 35.353h3.273v6.297H0z" transform="matrix(-1.83333 0 0 1.42917 126 68.475)"/><path fill="url(#g)" d="M3.273 35.353h41.455v6.297H3.273z" transform="matrix(-1.83333 0 0 1.42917 126 68.475)"/></g><path fill="url(#h)" fill-rule="evenodd" stroke="#83899a" d="M121.5 45.207 41.213 125.5l80.287-.001Zm-16 37.003v27.29H78.205z" opacity=".8" overflow="visible" style="marker:none"/><path fill="none" stroke="#fff" stroke-linecap="round" d="M98.5 124.493v-2.99" opacity=".3"/><path fill="none" stroke="#83899a" stroke-linecap="round" d="M109.5 125.499v-4.002m-12 4.002v-4.002m-12 4.002v-3.954m-12 3.954v-4.002m-12 4.002v-4.002" opacity=".75"/><path fill="none" stroke="url(#i)" d="M120.5 47.616V124.5H43.627Zm-14 32.174L75.78 110.5h30.72Z" opacity=".5" overflow="visible" style="marker:none"/><path fill="none" stroke="#fff" stroke-linecap="round" d="M110.5 124.493v-2.99m-24 2.99v-2.99m-12 2.99v-2.99m-12 2.99v-2.99M120.503 78.5h-2.99" opacity=".3"/><path fill="none" stroke="#83899a" stroke-linecap="round" d="M121.509 65.5h-4.002m4.002 12h-4.002m4.002 12h-3.954m3.954 12h-4.002m4.002 12h-4.002" opacity=".75"/><path fill="none" stroke="#fff" stroke-linecap="round" d="M120.503 66.5h-2.99m2.99 24h-2.99m2.99 12h-2.99m2.99 12h-2.99" opacity=".3"/></svg>