<svg xmlns="http://www.w3.org/2000/svg" xmlns:ns3="http://www.w3.org/1999/xlink" xmlns:xlink="http://www.w3.org/1999/xlink" viewBox="0 0 128 128"><defs><linearGradient id="b"><stop offset="0" stop-color="#fff"/><stop offset=".013" stop-color="#fff" stop-opacity=".235"/><stop offset=".983" stop-color="#fff" stop-opacity=".157"/><stop offset="1" stop-color="#fff" stop-opacity=".392"/></linearGradient><linearGradient id="c"><stop offset="0" stop-color="#f4f4f4"/><stop offset="1" stop-color="#dbdbdb"/></linearGradient><linearGradient id="h"><stop offset="0" stop-color="#f4f4f4"/><stop offset="1" stop-color="#dbdbdb"/></linearGradient><linearGradient id="i"><stop offset="0" stop-color="#aaa"/><stop offset="1" stop-color="#c8c8c8"/></linearGradient><linearGradient id="g"><stop offset="0" stop-color="#fff"/><stop offset="1" stop-color="#fff" stop-opacity="0"/></linearGradient><linearGradient id="e"><stop offset="0" stop-color="#f4f4f4"/><stop offset="1" stop-color="#dbdbdb"/></linearGradient><linearGradient id="f"><stop offset="0" stop-color="#aaa"/><stop offset="1" stop-color="#c8c8c8"/></linearGradient><linearGradient id="d"><stop offset="0" stop-color="#fff"/><stop offset="1" stop-color="#fff" stop-opacity="0"/></linearGradient><linearGradient id="a"><stop offset="0" stop-color="#aaa"/><stop offset="1" stop-color="#c8c8c8"/></linearGradient><linearGradient ns3:href="#a" id="J" x1="22.004" x2="22.004" y1="63.218" y2="25.647" gradientTransform="matrix(-2.67884 0 0 -3.96526 136.709 228.726)" gradientUnits="userSpaceOnUse"/><linearGradient ns3:href="#b" id="L" x1="24" x2="24" y1="5.263" y2="41.755" gradientTransform="matrix(-1.78378 0 0 2.1081 128.81 26.905)" gradientUnits="userSpaceOnUse"/><linearGradient ns3:href="#c" id="H" x1="25.132" x2="25.132" y1="15.285" y2="37.546" gradientTransform="matrix(2.9137 0 0 2.95733 -130.385 7.948)" gradientUnits="userSpaceOnUse"/><linearGradient ns3:href="#d" id="G" x1="24" x2="24" y1="14.203" y2="35.721" gradientTransform="matrix(-4.23416 0 0 2.33506 148.71 9.564)" gradientUnits="userSpaceOnUse"/><linearGradient ns3:href="#e" id="E" x1="25.132" x2="25.132" y1="10.061" y2="37.267" gradientTransform="matrix(-4.06566 0 0 2.24212 147.372 8.443)" gradientUnits="userSpaceOnUse"/><linearGradient ns3:href="#f" id="F" x1="-51.833" x2="-51.833" y1="41.012" y2="11.941" gradientTransform="matrix(-3.28301 0 0 2.09829 -94.17 5.944)" gradientUnits="userSpaceOnUse"/><linearGradient ns3:href="#g" id="D" x1="24" x2="24" y1="4.99" y2="36.482" gradientTransform="matrix(-5.986 0 0 .22228 183.82 23.89)" gradientUnits="userSpaceOnUse"/><linearGradient ns3:href="#h" id="B" x1="25.132" x2="25.132" y1="12.629" y2="35.416" gradientTransform="matrix(-5.36954 0 0 .3072 174.335 21.12)" gradientUnits="userSpaceOnUse"/><linearGradient ns3:href="#i" id="C" x1="-51.816" x2="-51.816" y1="38.708" y2="14.686" gradientTransform="matrix(-4.33588 0 0 .28749 -144.67 20.778)" gradientUnits="userSpaceOnUse"/><linearGradient ns3:href="#a" id="M" x1="22.004" x2="22.004" y1="63.218" y2="25.647" gradientTransform="matrix(-2.67884 0 0 -3.96526 136.709 260.726)" gradientUnits="userSpaceOnUse"/><linearGradient id="j"><stop offset="0" stop-color="#181818" stop-opacity="0"/><stop offset=".5" stop-color="#181818"/><stop offset="1" stop-color="#181818" stop-opacity="0"/></linearGradient><linearGradient id="t"><stop offset="0" stop-color="#181818"/><stop offset="1" stop-color="#181818" stop-opacity="0"/></linearGradient><linearGradient id="s"><stop offset="0" stop-color="#181818"/><stop offset="1" stop-color="#181818" stop-opacity="0"/></linearGradient><linearGradient ns3:href="#j" id="x" x1="25.058" x2="25.058" y1="47.028" y2="39.999" gradientTransform="matrix(1.01786 0 0 .9 -.429 4.7)" gradientUnits="userSpaceOnUse"/><linearGradient ns3:href="#a" id="N" x1="22.004" x2="22.004" y1="63.218" y2="25.647" gradientTransform="matrix(-2.67884 0 0 -3.96526 114.396 228.726)" gradientUnits="userSpaceOnUse"/><linearGradient ns3:href="#a" id="O" x1="22.004" x2="22.004" y1="63.218" y2="25.647" gradientTransform="matrix(-2.67884 0 0 3.96526 112.771 -60.726)" gradientUnits="userSpaceOnUse"/><linearGradient ns3:href="#k" id="I" x1="24" x2="24" y1="5.263" y2="41.755" gradientTransform="matrix(1.78378 0 0 2.1081 -128.81 26.905)" gradientUnits="userSpaceOnUse"/><linearGradient id="k"><stop offset="0" stop-color="#fff"/><stop offset=".013" stop-color="#fff" stop-opacity=".235"/><stop offset=".983" stop-color="#fff" stop-opacity=".157"/><stop offset="1" stop-color="#fff" stop-opacity=".392"/></linearGradient><linearGradient id="l"><stop offset="0" stop-opacity=".318"/><stop offset="1" stop-opacity=".24"/></linearGradient><linearGradient ns3:href="#l" id="P" x1="-51.786" x2="-51.786" y1="50.786" y2="2.906" gradientTransform="matrix(-2.63013 0 0 1.66743 -51.336 30.02)" gradientUnits="userSpaceOnUse"/><linearGradient id="m"><stop offset="0" stop-color="#ffa154"/><stop offset="1" stop-color="#f37329"/></linearGradient><linearGradient ns3:href="#m" id="K" x1="14.364" x2="14.364" y1="36.822" y2="117.907" gradientTransform="matrix(-1 0 0 1 128 0)" gradientUnits="userSpaceOnUse"/><linearGradient ns3:href="#m" id="Q" x1="14.364" x2="14.364" y1="36.822" y2="117.907" gradientTransform="matrix(-1 0 0 1 128 0)" gradientUnits="userSpaceOnUse"/><linearGradient ns3:href="#m" id="R" x1="14.364" x2="14.364" y1="36.822" y2="117.907" gradientTransform="matrix(-1 0 0 1 128 0)" gradientUnits="userSpaceOnUse"/><linearGradient ns3:href="#m" id="S" x1="14.364" x2="14.364" y1="36.822" y2="117.907" gradientTransform="matrix(-1 0 0 1 128 0)" gradientUnits="userSpaceOnUse"/><linearGradient id="u"><stop offset="0"/><stop offset="1" stop-opacity="0"/></linearGradient><linearGradient ns3:href="#p" id="V" x1="18.142" x2="18.142" y1="35" y2="42.041" gradientTransform="matrix(1.01333 0 0 .89963 -.044 3.866)" gradientUnits="userSpaceOnUse"/><linearGradient id="p"><stop offset="0" stop-opacity="0"/><stop offset=".5"/><stop offset="1" stop-opacity="0"/></linearGradient><linearGradient ns3:href="#q" id="W" x1="30.739" x2="45.903" y1="35.285" y2="50.736" gradientTransform="rotate(90 215.8 93.962)scale(5.41006 5.30706)" gradientUnits="userSpaceOnUse"/><linearGradient id="q"><stop offset="0" stop-color="#f0f0f1"/><stop offset="1" stop-color="#cbcdd9"/></linearGradient><linearGradient ns3:href="#r" id="X" x1="75.78" x2="75.78" y1="86" y2="127.036" gradientTransform="matrix(-2 0 0 2.00084 236.5 -127.608)" gradientUnits="userSpaceOnUse"/><linearGradient id="r"><stop offset="0" stop-color="#fff"/><stop offset="1" stop-color="#fff" stop-opacity="0"/></linearGradient><radialGradient ns3:href="#s" id="v" cx="4.993" cy="43.5" r="2.5" fx="4.993" fy="43.5" gradientTransform="matrix(1.9036 0 0 1.26 28.739 -10.96)" gradientUnits="userSpaceOnUse"/><radialGradient ns3:href="#t" id="w" cx="4.993" cy="43.5" r="2.5" fx="4.993" fy="43.5" gradientTransform="matrix(1.9036 0 0 1.26 -19.261 -98.66)" gradientUnits="userSpaceOnUse"/><radialGradient ns3:href="#u" id="T" cx="7" cy="39.465" r="3.5" fx="7" fy="39.465" gradientTransform="matrix(0 -.89963 .93506 0 -81.63 -32.204)" gradientUnits="userSpaceOnUse"/><radialGradient ns3:href="#u" id="U" cx="7" cy="39.465" r="3.5" fx="7" fy="39.465" gradientTransform="matrix(0 -.89963 .93506 0 -33.63 44.799)" gradientUnits="userSpaceOnUse"/></defs><g opacity=".15"><path fill="url(#v)" d="M38.25 40.7H43V47h-4.75z" transform="matrix(-3.36842 0 0 1.42857 144.842 55.857)"/><path fill="url(#w)" d="M-9.75-47H-5v6.3h-4.75z" transform="matrix(3.36842 0 0 -1.42857 144.842 55.857)"/><path fill="url(#x)" d="M9.75 40.7h28.5V47H9.75z" transform="matrix(-3.36842 0 0 1.42857 144.842 55.857)"/></g><path fill="url(#B)" stroke="url(#C)" stroke-linejoin="round" d="M99.5 24.5h-71v8h71z" color="#000" opacity=".5" overflow="visible" style="marker:none"/><path fill="none" stroke="url(#D)" stroke-linejoin="round" d="M98.5 25.5h-69v6h69z" color="#000" opacity=".3" overflow="visible" style="marker:none"/><path fill="url(#E)" stroke="url(#F)" stroke-linejoin="round" d="M111.5 30.5h-95v61h95z" color="#000" opacity=".75" overflow="visible" style="marker:none"/><path fill="none" stroke="url(#G)" stroke-linejoin="round" d="M110.5 31.5h-93v58h93z" color="#000" opacity=".45" overflow="visible" style="marker:none"/><path fill="url(#H)" d="M-110 37H-7v81h-103z" color="#000" overflow="visible" style="marker:none" transform="scale(-1 1)"/><path fill="none" stroke="url(#I)" stroke-linecap="square" stroke-linejoin="round" d="M-120.5 37.5h113v80h-113z" color="#000" overflow="visible" style="marker:none" transform="scale(-1 1)"/><path fill="url(#J)" d="M100 89v-2h-4v2zm-5 0v-2H82v2zm5-8v-2h-6v2zm-7 0v-2h-5v2zm-6 0v-2h-3v2zm-4 0v-2h-4v2zm17-8v-2h-7v2zm-8 0v-2h-3v2zm-4 0v-2h-8v2zm12-8v-2h-7v2zm-8 0v-2h-5v2zm-6 0v-2h-7v2z" color="#000" font-family="Sans" font-weight="400" overflow="visible" style="line-height:normal;-inkscape-font-specification:Sans;text-indent:0;text-align:start;text-decoration-line:none;text-transform:none;marker:none"/><path fill="url(#K)" d="M110 118.5h11.5c0-28-.026-57.677 0-82H110" color="#000" overflow="visible" style="marker:none"/><path fill="none" stroke="url(#L)" stroke-linecap="square" stroke-linejoin="round" d="M110.5 117.5h10v-80h-10" opacity=".5"/><path d="M54 47v2h-2v-2zm-3 0v2h-5v-2zm-7 0v2h-6v-2zm40 0v2H72v-2zm-13 0v2h-6v-2zm-7 0v2h-8v-2z" color="#000" font-family="Sans" font-weight="400" opacity=".28" overflow="visible" style="line-height:normal;-inkscape-font-specification:Sans;text-indent:0;text-align:start;text-decoration-line:none;text-transform:none;marker:none"/><path fill="url(#M)" d="M100 105v-2h-7v2zm-8 0v-2h-3v2zm-4 0v-2h-7v2zm12-8v-2h-6v2zm-7 0v-2h-5v2zm-6 0v-2h-8v2z" color="#000" font-family="Sans" font-weight="400" overflow="visible" style="line-height:normal;-inkscape-font-specification:Sans;text-indent:0;text-align:start;text-decoration-line:none;text-transform:none;marker:none"/><path fill="url(#N)" d="M78 89v-2h-5v2zm0-8v-2h-6v2zm1-8v-2h-5v2zm-2-8v-2h-5v2z" color="#000" font-family="Sans" font-weight="400" overflow="visible" style="line-height:normal;-inkscape-font-specification:Sans;text-indent:0;text-align:start;text-decoration-line:none;text-transform:none;marker:none"/><path fill="url(#O)" d="M78 95v2h-7v-2zm-8 0v2h-3v-2zm9 8v2h-7v-2zm-8 0v2h-5v-2zm-6 0v2h-7v-2z" color="#000" font-family="Sans" font-weight="400" overflow="visible" style="line-height:normal;-inkscape-font-specification:Sans;text-indent:0;text-align:start;text-decoration-line:none;text-transform:none;marker:none"/><path fill="none" stroke="#cc3b02" stroke-linejoin="round" d="M110 118.5h11.5c0-28.5-.026-57.678 0-82H110" color="#000" opacity=".5" overflow="visible" style="marker:none"/><path fill="none" stroke="url(#P)" stroke-linejoin="round" d="M110 118.5H6.5v-82H110"/><path fill="url(#Q)" d="M18 82.998a20 20 0 1 0 10.58-17.643L38 82.998z" color="#000" opacity=".5" overflow="visible" style="isolation:auto;mix-blend-mode:normal;solid-color:#000;solid-opacity:1;marker:none"/><path fill="url(#R)" d="M18 82.996c0 9.002 6 16.876 14.663 19.274a19.965 19.965 0 0 0 22.487-8.99C55.185 93.312 38 82.996 38 82.996Z" color="#000" opacity=".5" overflow="visible" style="isolation:auto;mix-blend-mode:normal;solid-color:#000;solid-opacity:1;marker:none"/><path fill="url(#S)" d="M18 83.005c0 8.671 5.804 16.822 14.663 19.275.195-.034 5.337-19.275 5.337-19.275z" color="#000" overflow="visible" style="isolation:auto;mix-blend-mode:normal;solid-color:#000;solid-opacity:1;marker:none"/><g opacity=".3"><path fill="url(#T)" d="M-48-41.65h3.273v6.297H-48z" transform="matrix(1.83333 0 0 -1.42917 126 68.475)"/><path fill="url(#U)" d="M0 35.353h3.273v6.297H0z" transform="matrix(-1.83333 0 0 1.42917 126 68.475)"/><path fill="url(#V)" d="M3.273 35.353h41.455v6.297H3.273z" transform="matrix(-1.83333 0 0 1.42917 126 68.475)"/></g><path fill="url(#W)" fill-rule="evenodd" stroke="#83899a" d="M121.5 45.207 41.213 125.5l80.287-.001Zm-16 37.003v27.29H78.205z" opacity=".8" overflow="visible" style="marker:none"/><path fill="none" stroke="#fff" stroke-linecap="round" d="M98.5 124.493v-2.99" opacity=".3"/><path fill="none" stroke="#83899a" stroke-linecap="round" d="M109.5 125.499v-4.002m-12 4.002v-4.002m-12 4.002v-3.954m-12 3.954v-4.002m-12 4.002v-4.002" opacity=".75"/><path fill="none" stroke="url(#X)" d="M120.5 47.616V124.5H43.627Zm-14 32.174L75.78 110.5h30.72Z" opacity=".5" overflow="visible" style="marker:none"/><path fill="none" stroke="#fff" stroke-linecap="round" d="M110.5 124.493v-2.99m-24 2.99v-2.99m-12 2.99v-2.99m-12 2.99v-2.99M120.503 78.5h-2.99" opacity=".3"/><path fill="none" stroke="#83899a" stroke-linecap="round" d="M121.509 65.5h-4.002m4.002 12h-4.002m4.002 12h-3.954m3.954 12h-4.002m4.002 12h-4.002" opacity=".75"/><path fill="none" stroke="#fff" stroke-linecap="round" d="M120.503 66.5h-2.99m2.99 24h-2.99m2.99 12h-2.99m2.99 12h-2.99" opacity=".3"/></svg>