<svg xmlns="http://www.w3.org/2000/svg" xmlns:xlink="http://www.w3.org/1999/xlink" viewBox="0 0 128 128"><defs><linearGradient id="a"><stop offset="0" stop-color="#fff"/><stop offset=".035" stop-color="#fff" stop-opacity=".235"/><stop offset=".964" stop-color="#fff" stop-opacity=".157"/><stop offset="1" stop-color="#fff" stop-opacity=".392"/></linearGradient><linearGradient id="d"><stop offset="0" stop-color="#505050"/><stop offset=".262" stop-color="#2b2b2b"/><stop offset=".705" stop-color="#0a0a0a"/><stop offset="1"/></linearGradient><linearGradient xlink:href="#a" id="l" x1="40.29" x2="40.29" y1="5.414" y2="42.438" gradientTransform="matrix(3.1081 0 0 2.45946 -10.595 11.973)" gradientUnits="userSpaceOnUse"/><linearGradient id="b"><stop offset="0" stop-color="#dcdcdc"/><stop offset="1" stop-color="#fff"/></linearGradient><linearGradient xlink:href="#b" id="m" x1="20" x2="20" y1="26" y2="13" gradientTransform="translate(9.26 6.245)scale(1.32688)" gradientUnits="userSpaceOnUse"/><linearGradient id="g"><stop offset="0" stop-color="#181818"/><stop offset="1" stop-color="#181818" stop-opacity="0"/></linearGradient><linearGradient id="f"><stop offset="0" stop-color="#181818"/><stop offset="1" stop-color="#181818" stop-opacity="0"/></linearGradient><linearGradient id="c"><stop offset="0" stop-color="#181818" stop-opacity="0"/><stop offset=".5" stop-color="#181818"/><stop offset="1" stop-color="#181818" stop-opacity="0"/></linearGradient><linearGradient xlink:href="#c" id="h" x1="25.058" x2="25.058" y1="47.028" y2="39.999" gradientTransform="matrix(3.92857 0 0 1.28571 -31.286 61.071)" gradientUnits="userSpaceOnUse"/><radialGradient xlink:href="#d" id="k" cx="7.118" cy="9.957" r="12.672" fx="7.118" fy="9.957" gradientTransform="matrix(0 21.79597 -33.6639 0 401.688 -174.347)" gradientUnits="userSpaceOnUse"/><radialGradient xlink:href="#f" id="j" cx="4.993" cy="43.5" r="2.5" fx="4.993" fy="43.5" gradientTransform="matrix(2.40454 0 0 1.8 -20.014 -195.3)" gradientUnits="userSpaceOnUse"/><radialGradient xlink:href="#g" id="i" cx="4.993" cy="43.5" r="2.5" fx="4.993" fy="43.5" gradientTransform="matrix(2.40454 0 0 1.8 105.986 38.7)" gradientUnits="userSpaceOnUse"/></defs><path fill="url(#h)" d="M8 112.5h110v9H8z" opacity=".4"/><path fill="url(#i)" d="M118 112.5h6v9h-6z" opacity=".4"/><path fill="url(#j)" d="M-8-121.5h6v9h-6z" opacity=".4" transform="scale(-1)"/><rect width="117" height="93" x="5.5" y="24.5" fill="url(#k)" color="#000" opacity=".9" overflow="visible" rx="4" ry="4" style="marker:none"/><rect width="115" height="91" x="6.5" y="25.5" fill="none" stroke="url(#l)" stroke-linecap="round" stroke-linejoin="round" opacity=".3" rx="3" ry="3"/><rect width="117" height="93" x="5.5" y="24.5" fill="none" stroke="#000" stroke-linecap="round" stroke-linejoin="round" color="#000" opacity=".7" overflow="visible" rx="4" ry="4" style="marker:none"/><path d="M1.75-.5C1.073-.5.5.073.5.75v13.5c0 .677.573 1.25 1.25 1.25h12.5c.677 0 1.25-.573 1.25-1.25V.75c0-.677-.573-1.25-1.25-1.25zm2.75 2h7v5h-7zm0 7h7v5h-7z" color="#000" opacity=".15" style="marker:none" transform="matrix(2 0 0 2 48 58)"/><path d="M1.75 0A.75.75 0 0 0 1 .75v13.5c0 .415.335.75.75.75h12.5c.415 0 .75-.335.75-.75V.75a.75.75 0 0 0-.75-.75zM2 1h1v1H2zm2.5 0h7c.277 0 .5.223.5.5v5c0 .277-.223.5-.5.5h-7a.5.5 0 0 1-.5-.5v-5c0-.277.223-.5.5-.5M13 1h1v1h-1zM2 3h1v1H2zm11 0h1v1h-1zM2 5h1v1H2zm11 0h1v1h-1zM2 7h1v1H2zm11 0h1v1h-1zM4.5 8h7c.277 0 .5.223.5.5v5c0 .277-.223.5-.5.5h-7a.5.5 0 0 1-.5-.5v-5c0-.277.223-.5.5-.5M2 9h1v1H2zm11 0h1v1h-1zM2 11h1v1H2zm11 0h1v1h-1zM2 13h1v1H2zm11 0h1v1h-1z" color="#000" opacity=".3" style="marker:none" transform="matrix(2 0 0 2 48 58)"/><path fill="url(#m)" d="M1.75 0A.75.75 0 0 0 1 .75v13.5c0 .415.335.75.75.75h12.5c.415 0 .75-.335.75-.75V.75a.75.75 0 0 0-.75-.75zM2 1h1v1H2zm2.5 0h7c.277 0 .5.223.5.5v5c0 .277-.223.5-.5.5h-7a.5.5 0 0 1-.5-.5v-5c0-.277.223-.5.5-.5M13 1h1v1h-1zM2 3h1v1H2zm11 0h1v1h-1zM2 5h1v1H2zm11 0h1v1h-1zM2 7h1v1H2zm11 0h1v1h-1zM4.5 8h7c.277 0 .5.223.5.5v5c0 .277-.223.5-.5.5h-7a.5.5 0 0 1-.5-.5v-5c0-.277.223-.5.5-.5M2 9h1v1H2zm11 0h1v1h-1zM2 11h1v1H2zm11 0h1v1h-1zM2 13h1v1H2zm11 0h1v1h-1z" color="#000" style="marker:none" transform="matrix(2 0 0 2 48 57)"/></svg>