<svg xmlns="http://www.w3.org/2000/svg" xmlns:ns3="http://www.w3.org/1999/xlink" xmlns:xlink="http://www.w3.org/1999/xlink" viewBox="0 0 128 128"><defs><linearGradient id="a"><stop offset="0" stop-color="#f4f4f4"/><stop offset="1" stop-color="#dbdbdb"/></linearGradient><linearGradient id="d"><stop offset="0" stop-color="#181818" stop-opacity="0"/><stop offset=".5" stop-color="#181818"/><stop offset="1" stop-color="#181818" stop-opacity="0"/></linearGradient><linearGradient id="e"><stop offset="0" stop-color="#181818"/><stop offset="1" stop-color="#181818" stop-opacity="0"/></linearGradient><linearGradient ns3:href="#a" id="k" x1="25.132" x2="25.132" y1=".985" y2="47.013" gradientTransform="matrix(2.62857 0 0 2.52049 .914 -4.358)" gradientUnits="userSpaceOnUse"/><linearGradient ns3:href="#b" id="m" x1="24" x2="24" y1="5.564" y2="42.195" gradientTransform="matrix(2.45946 0 0 3.1081 4.973 -14.595)" gradientUnits="userSpaceOnUse"/><linearGradient id="b"><stop offset="0" stop-color="#fff"/><stop offset=".006" stop-color="#fff" stop-opacity=".235"/><stop offset=".994" stop-color="#fff" stop-opacity=".157"/><stop offset="1" stop-color="#fff" stop-opacity=".392"/></linearGradient><linearGradient ns3:href="#c" id="l" x1="-51.786" x2="-51.786" y1="50.786" y2="2.906" gradientTransform="matrix(2.14563 0 0 2.37913 158.09 -7.746)" gradientUnits="userSpaceOnUse"/><linearGradient id="c"><stop offset="0" stop-opacity=".318"/><stop offset="1" stop-opacity=".24"/></linearGradient><linearGradient ns3:href="#d" id="j" x1="25.058" x2="25.058" y1="47.028" y2="39.999" gradientTransform="matrix(2.8421 0 0 .71429 -4.21 87.43)" gradientUnits="userSpaceOnUse"/><linearGradient id="f"><stop offset="0" stop-color="#ffcd7d"/><stop offset=".262" stop-color="#fc8f36"/><stop offset=".705" stop-color="#e23a0e"/><stop offset="1" stop-color="#ac441f"/></linearGradient><radialGradient ns3:href="#e" id="i" cx="4.993" cy="43.5" r="2.5" fx="4.993" fy="43.5" gradientTransform="matrix(5.69496 0 0 1 -52.665 -162.001)" gradientUnits="userSpaceOnUse"/><radialGradient ns3:href="#e" id="g" cx="4.993" cy="43.5" r="2.5" fx="4.993" fy="43.5" gradientTransform="matrix(5.69496 0 0 1 75.335 75.001)" gradientUnits="userSpaceOnUse"/><radialGradient ns3:href="#f" id="n" cx="18.148" cy="16.232" r="12.672" fx="18.148" fy="16.232" gradientTransform="matrix(0 19.73316 -25.12182 0 467.834 -430.494)" gradientUnits="userSpaceOnUse"/><radialGradient ns3:href="#f" id="o" cx="18.148" cy="16.232" r="12.672" fx="18.148" fy="16.232" gradientTransform="matrix(0 19.73316 -25.12182 0 467.834 -430.494)" gradientUnits="userSpaceOnUse"/><radialGradient ns3:href="#f" id="p" cx="18.148" cy="16.232" r="12.672" fx="18.148" fy="16.232" gradientTransform="matrix(0 19.73316 -25.12182 0 467.834 -430.494)" gradientUnits="userSpaceOnUse"/><radialGradient ns3:href="#f" id="q" cx="18.148" cy="16.232" r="12.672" fx="18.148" fy="16.232" gradientTransform="matrix(0 19.73316 -25.12182 0 467.834 -430.494)" gradientUnits="userSpaceOnUse"/><radialGradient ns3:href="#f" id="r" cx="18.148" cy="16.232" r="12.672" fx="18.148" fy="16.232" gradientTransform="matrix(0 19.73316 -25.12182 0 467.834 -430.494)" gradientUnits="userSpaceOnUse"/></defs><g stroke-width="1.039" opacity=".2"><path fill="url(#g)" d="M103.789 116.001H118v5h-14.211z" transform="matrix(.92593 0 0 1 4.74 0)"/><path fill="url(#i)" d="M-24.211-121.001H-10v5h-14.211z" transform="matrix(-.92593 0 0 -1 4.74 0)"/><path fill="url(#j)" d="M24.211 116.001h79.579v5H24.211z" transform="matrix(.92593 0 0 1 4.74 0)"/></g><path fill="url(#k)" d="M18 2c21.082 0 92 .007 92 .007V118H18z"/><path fill="none" stroke="url(#l)" stroke-linejoin="round" d="M17.5 1.5c21.311 0 93 .008 93 .008V118.5h-93z"/><path fill="none" stroke="url(#m)" stroke-linecap="round" stroke-linejoin="round" d="M109.5 117.5h-91V2.5h91z"/><path fill="url(#n)" d="M51.001 32a1.994 1.994 0 0 0-1.999 1.999v38.107c-2.45-1.028-5.512-.67-8.135.953-4.273 2.643-6.123 7.79-4.13 11.492 1.99 3.702 7.066 4.558 11.336 1.913 3.09-1.915 5.024-5.24 4.919-8.455 0-.012.008-.024.008-.04V45.49c.481-.266 1.229.308 1.624.578 4.49 2.717 8.411 7.225 8.69 12.78.24 3.214-.433 6.41-1.36 9.463 4.13-6.792 3.907-16.242-1.194-22.446-3.29-3.432-6.393-7.434-7.76-12.085-.1-.442-.703-1.78-2-1.78" color="#000" overflow="visible" style="isolation:auto;mix-blend-mode:normal;solid-color:#000;solid-opacity:1;marker:none"/><path fill="url(#o)" d="M65.999 72.003A1.994 1.994 0 0 0 64 74c0 1.11.891 2 1.999 2h23.984a1.994 1.994 0 0 0 1.998-1.999 1.994 1.994 0 0 0-1.998-1.998z" color="#000" overflow="visible" style="isolation:auto;mix-blend-mode:normal;solid-color:#000;solid-opacity:1;marker:none"/><path fill="url(#p)" d="M77.999 60.003A1.994 1.994 0 0 0 76 62c0 1.11.891 2 1.999 2H89.99a1.994 1.994 0 0 0 1.998-1.999 1.994 1.994 0 0 0-1.998-1.998z" color="#000" overflow="visible" style="isolation:auto;mix-blend-mode:normal;solid-color:#000;solid-opacity:1;marker:none"/><path fill="url(#q)" d="M77.999 48.003A1.994 1.994 0 0 0 76 50c0 1.11.891 2 1.999 2H89.99a1.994 1.994 0 0 0 1.998-1.999 1.994 1.994 0 0 0-1.998-1.998z" color="#000" overflow="visible" style="isolation:auto;mix-blend-mode:normal;solid-color:#000;solid-opacity:1;marker:none"/><path fill="url(#r)" d="M77.999 36.003A1.994 1.994 0 0 0 76 38c0 1.11.891 2 1.999 2H89.99a1.994 1.994 0 0 0 1.998-1.999 1.994 1.994 0 0 0-1.998-1.998z" color="#000" overflow="visible" style="isolation:auto;mix-blend-mode:normal;solid-color:#000;solid-opacity:1;marker:none"/></svg>