<svg xmlns="http://www.w3.org/2000/svg" xmlns:ns3="http://www.w3.org/1999/xlink" xmlns:xlink="http://www.w3.org/1999/xlink" viewBox="0 0 128 128"><defs><linearGradient id="a"><stop offset="0" stop-color="#f4f4f4"/><stop offset="1" stop-color="#dbdbdb"/></linearGradient><linearGradient id="d"><stop offset="0" stop-color="#181818" stop-opacity="0"/><stop offset=".5" stop-color="#181818"/><stop offset="1" stop-color="#181818" stop-opacity="0"/></linearGradient><linearGradient id="e"><stop offset="0" stop-color="#181818"/><stop offset="1" stop-color="#181818" stop-opacity="0"/></linearGradient><linearGradient ns3:href="#a" id="k" x1="25.132" x2="25.132" y1=".985" y2="47.013" gradientTransform="matrix(2.62857 0 0 2.52049 .914 -4.358)" gradientUnits="userSpaceOnUse"/><linearGradient ns3:href="#b" id="m" x1="24" x2="24" y1="5.564" y2="42.195" gradientTransform="matrix(2.45946 0 0 3.1081 4.973 -14.595)" gradientUnits="userSpaceOnUse"/><linearGradient id="b"><stop offset="0" stop-color="#fff"/><stop offset=".006" stop-color="#fff" stop-opacity=".235"/><stop offset=".994" stop-color="#fff" stop-opacity=".157"/><stop offset="1" stop-color="#fff" stop-opacity=".392"/></linearGradient><linearGradient ns3:href="#c" id="l" x1="-51.786" x2="-51.786" y1="50.786" y2="2.906" gradientTransform="matrix(2.14563 0 0 2.37913 158.09 -7.746)" gradientUnits="userSpaceOnUse"/><linearGradient id="c"><stop offset="0" stop-opacity=".318"/><stop offset="1" stop-opacity=".24"/></linearGradient><linearGradient ns3:href="#d" id="j" x1="25.058" x2="25.058" y1="47.028" y2="39.999" gradientTransform="matrix(2.8421 0 0 .71429 -4.21 87.43)" gradientUnits="userSpaceOnUse"/><linearGradient id="f"><stop offset="0" stop-color="#f89b7e"/><stop offset=".262" stop-color="#e35d4f"/><stop offset=".661" stop-color="#c6262e"/><stop offset="1" stop-color="#690b2c"/></linearGradient><radialGradient ns3:href="#e" id="i" cx="4.993" cy="43.5" r="2.5" fx="4.993" fy="43.5" gradientTransform="matrix(5.69496 0 0 1 -52.665 -162.001)" gradientUnits="userSpaceOnUse"/><radialGradient ns3:href="#e" id="g" cx="4.993" cy="43.5" r="2.5" fx="4.993" fy="43.5" gradientTransform="matrix(5.69496 0 0 1 75.335 75.001)" gradientUnits="userSpaceOnUse"/><radialGradient ns3:href="#f" id="n" cx="8.276" cy="9.994" r="12.672" fx="8.276" fy="9.994" gradientTransform="matrix(0 20.0032 -24.504 0 309.112 -193.387)" gradientUnits="userSpaceOnUse"/></defs><g stroke-width="1.039" opacity=".2"><path fill="url(#g)" d="M103.789 116.001H118v5h-14.211z" transform="matrix(.92593 0 0 1 4.74 0)"/><path fill="url(#i)" d="M-24.211-121.001H-10v5h-14.211z" transform="matrix(-.92593 0 0 -1 4.74 0)"/><path fill="url(#j)" d="M24.211 116.001h79.579v5H24.211z" transform="matrix(.92593 0 0 1 4.74 0)"/></g><path fill="url(#k)" d="M18 2c21.082 0 92 .007 92 .007V118H18z"/><path fill="none" stroke="url(#l)" stroke-linejoin="round" d="M17.5 1.5c21.311 0 93 .008 93 .008V118.5h-93z"/><path fill="none" stroke="url(#m)" stroke-linecap="round" stroke-linejoin="round" d="M109.5 117.5h-91V2.5h91z"/><path fill="url(#n)" d="m68 34-34 6v44l34 6zm6.562 8c-.64.006-1.29.038-1.937.063L70 42.125V52.25l1 .125c1.994.25 6.684.175 9.812-.125 8.418-.807 13.723-3.12 12.813-5.562-1.021-2.74-9.466-4.77-19.063-4.688M94 48.875l-.75.875c-.988 1.188-3.716 2.452-7.063 3.188-2.067.454-4.301.626-9.437.75l-6.75.125v7.812l6.562-.187c5.2-.124 7.227-.302 9.563-.813 3.371-.738 5.998-1.797 7-2.875l.687-.75.125-4.062zm-44.563 3.5h2c1.666 0 2.063.078 2.188.5.083.28 1.248 4.59 2.625 9.563 1.377 4.972 2.555 9.174 2.625 9.374.092.266-.348.392-1.563.376-.917-.013-1.81-.11-2-.188-.189-.077-.53-1.119-.812-2.312l-.563-2.126h-5.312l-.438 1.938-.375 2-1.875.063-1.812.062.125-.5A733 733 0 0 0 46.5 63c1.134-4.17 2.26-8.22 2.5-9.062zm1.875 4.5c-.082.023-.466 1.288-.875 2.938-.436 1.759-.853 3.406-.937 3.687-.135.45.092.562 1.75.562h1.875l-.875-3.437c-.47-1.885-.892-3.595-.938-3.75M94 58.125l-.875.937C90.843 61.534 83.48 63.09 74.437 63l-4.25-.062-.125 3.75-.062 3.75.5.187c1.093.33 11.52-.09 14.125-.562 3.637-.66 6.969-1.785 8.187-2.813l1-.875.125-4.125zm0 9-.875 1.063c-2.13 2.454-8.679 3.902-17.875 3.937H70v7.625l1.562.125c3.166.224 4.318.174 8.188-.125 6.55-.505 11.55-1.836 13.187-3.562l.875-.938.125-4.063z" color="#000" overflow="visible" style="isolation:auto;mix-blend-mode:normal;solid-color:#000;solid-opacity:1;marker:none"/></svg>