<svg xmlns="http://www.w3.org/2000/svg" xmlns:xlink="http://www.w3.org/1999/xlink" viewBox="0 0 128 128"><defs><linearGradient id="h"><stop offset="0" stop-color="#64baff"/><stop offset="1" stop-color="#3689e6"/></linearGradient><linearGradient id="a"><stop offset="0" stop-color="#f4f4f4"/><stop offset="1" stop-color="#dbdbdb"/></linearGradient><linearGradient id="d"><stop offset="0" stop-color="#181818" stop-opacity="0"/><stop offset=".5" stop-color="#181818"/><stop offset="1" stop-color="#181818" stop-opacity="0"/></linearGradient><linearGradient id="i"><stop offset="0" stop-color="#181818"/><stop offset="1" stop-color="#181818" stop-opacity="0"/></linearGradient><linearGradient xlink:href="#a" id="m" x1="25.132" x2="25.132" y1=".985" y2="47.013" gradientTransform="matrix(2.62857 0 0 2.52049 .914 -4.358)" gradientUnits="userSpaceOnUse"/><linearGradient xlink:href="#b" id="n" x1="24" x2="24" y1="5.564" y2="42.195" gradientTransform="matrix(2.45946 0 0 3.1081 4.973 -14.595)" gradientUnits="userSpaceOnUse"/><linearGradient id="b"><stop offset="0" stop-color="#fff"/><stop offset=".006" stop-color="#fff" stop-opacity=".235"/><stop offset=".994" stop-color="#fff" stop-opacity=".157"/><stop offset="1" stop-color="#fff" stop-opacity=".392"/></linearGradient><linearGradient xlink:href="#c" id="r" x1="-51.786" x2="-51.786" y1="50.786" y2="2.906" gradientTransform="matrix(2.14563 0 0 2.37913 158.09 -7.746)" gradientUnits="userSpaceOnUse"/><linearGradient id="c"><stop offset="0" stop-opacity=".318"/><stop offset="1" stop-opacity=".24"/></linearGradient><linearGradient xlink:href="#d" id="l" x1="25.058" x2="25.058" y1="47.028" y2="39.999" gradientTransform="matrix(2.8421 0 0 .71429 -4.21 87.43)" gradientUnits="userSpaceOnUse"/><linearGradient xlink:href="#e" id="p" x1="22.004" x2="22.004" y1="47.813" y2="3.364" gradientTransform="matrix(2.70423 0 0 2.715 5.393 -10.3)" gradientUnits="userSpaceOnUse"/><linearGradient id="e"><stop offset="0" stop-color="#aaa"/><stop offset="1" stop-color="#c8c8c8"/></linearGradient><linearGradient xlink:href="#f" id="q" x1="8.377" x2="8.377" y1="5.639" y2="42.349" gradientTransform="matrix(2.36996 0 0 3.1081 5.465 -14.595)" gradientUnits="userSpaceOnUse"/><linearGradient id="f"><stop offset="0" stop-color="#fff"/><stop offset=".005" stop-color="#fff" stop-opacity=".235"/><stop offset=".994" stop-color="#fff" stop-opacity=".157"/><stop offset="1" stop-color="#fff" stop-opacity=".392"/></linearGradient><linearGradient xlink:href="#h" id="o" x1="32" x2="32" y1="2.5" y2="117.5" gradientUnits="userSpaceOnUse"/><radialGradient xlink:href="#i" id="k" cx="4.993" cy="43.5" r="2.5" fx="4.993" fy="43.5" gradientTransform="matrix(5.69496 0 0 1 -52.665 -162.001)" gradientUnits="userSpaceOnUse"/><radialGradient xlink:href="#i" id="j" cx="4.993" cy="43.5" r="2.5" fx="4.993" fy="43.5" gradientTransform="matrix(5.69496 0 0 1 75.335 75.001)" gradientUnits="userSpaceOnUse"/></defs><g stroke-width="1.039" opacity=".2"><path fill="url(#j)" d="M103.789 116.001H118v5h-14.211z" transform="matrix(.92593 0 0 1 4.74 0)"/><path fill="url(#k)" d="M-24.211-121.001H-10v5h-14.211z" transform="matrix(-.92593 0 0 -1 4.74 0)"/><path fill="url(#l)" d="M24.211 116.001h79.579v5H24.211z" transform="matrix(.92593 0 0 1 4.74 0)"/></g><path fill="url(#m)" d="M18 2c21.082 0 92 .007 92 .007V118H18z"/><path fill="none" stroke="url(#n)" stroke-linecap="round" stroke-linejoin="round" d="M109.5 117.5h-91V2.5h91z"/><path fill="url(#o)" d="M32 118.5H18.106c-.365 0-.543-.105-.543-.627V2.173l.159-.476.384-.197H32" color="#000" overflow="visible" style="marker:none"/><path fill="none" stroke="url(#p)" d="M40.5 21.5h6.338zm7.268 0h5.915Zm6.845 0h5.24zm6.084 0h2.282zm3.211 0h5.07zm6.085 0h13.352zm14.197 0h10.226zm-43.69 6h9.887zm10.986 0h4.732zm5.577 0h2.367zm3.296 0h4.31zm5.24 0h4.394zm5.239 0h7.014zm7.944 0h9.126zm9.972 0h6.084zm6.93 0h1.52zM40.5 33.458h8.366zm9.211 0h13.69zm14.535 0h6.677zm7.522 0h6.253zm7.098 0h5.324zm6.17 0 8.365.084zM40.5 39.5h11.577zm12.507 0h12.507zm13.352 0h4.986zm5.831 0h11.747zm12.507 0h8.028zm8.958 0h3.211zm-53.155 6h4.31zm5.662 0h15.972ZM40.5 56.458h8.366zm9.211 0h13.69zm14.535 0h6.677zm7.522 0h6.253zm7.098 0h5.324zm6.17 0 8.365.084zM40.5 62.5h10.648zm11.493 0h11.408zm12.253 0h4.395zm5.24 0h10.732zm11.577 0h13.522zm14.451 0h4.986Zm-55.014 6h11.577zm12.507 0h12.507zm13.352 0h4.986zm5.831 0h11.747zm12.507 0h8.028zm8.958 0h3.211zm-53.155 6h9.887zm10.986 0h4.732zm5.577 0h2.367zm3.296 0h4.31zm5.24 0h4.394zm5.239 0h7.014zm7.944 0h9.126zm9.972 0h6.084zm6.93 0h1.52zM40.5 85.458h8.366zm9.211 0h13.69zm14.535 0h6.677zm7.522 0h6.253zm7.098 0h5.324zm6.17 0 8.365.084zM40.5 91.5h9.887zm10.986 0h4.732zm5.577 0h2.367zm3.296 0h4.31zm5.24 0h4.394zm5.239 0h7.014zm7.944 0h9.126zm9.972 0h6.084zm6.93 0h1.52zm-55.184 6h10.479zm11.408 0h3.296zm4.141 0h7.521zm8.366 0h11.07zm12 0h7.522zm8.282 0h1.606zm2.45 0h9.55Zm-46.647 6h10.479zm11.408 0h4.733zm5.578 0h7.437zm8.282 0h8.028zm8.957 0h3.212zm4.057 0h1.774zm2.704 0h4.986z"/><path fill="none" stroke="url(#q)" d="M32 117.5H18.5V2.5H32" opacity=".5"/><path fill="none" stroke="url(#r)" stroke-linejoin="round" d="m32 1.5 78.5.008V118.5H32"/><path fill="none" stroke="#0d52bf" stroke-linejoin="round" d="M32 118.5H17.5V1.5l14.5.008" opacity=".5"/></svg>