<svg xmlns="http://www.w3.org/2000/svg" xmlns:ns3="http://www.w3.org/1999/xlink" xmlns:xlink="http://www.w3.org/1999/xlink" viewBox="0 0 128 128"><defs><linearGradient id="a"><stop offset="0" stop-color="#f4f4f4"/><stop offset="1" stop-color="#dbdbdb"/></linearGradient><linearGradient id="d"><stop offset="0" stop-color="#181818" stop-opacity="0"/><stop offset=".5" stop-color="#181818"/><stop offset="1" stop-color="#181818" stop-opacity="0"/></linearGradient><linearGradient id="g"><stop offset="0" stop-color="#181818"/><stop offset="1" stop-color="#181818" stop-opacity="0"/></linearGradient><linearGradient ns3:href="#a" id="m" x1="25.132" x2="25.132" y1=".985" y2="47.013" gradientTransform="matrix(2.62857 0 0 2.52049 .914 -4.358)" gradientUnits="userSpaceOnUse"/><linearGradient ns3:href="#b" id="o" x1="24" x2="24" y1="5.564" y2="42.195" gradientTransform="matrix(2.45946 0 0 3.1081 4.973 -14.595)" gradientUnits="userSpaceOnUse"/><linearGradient id="b"><stop offset="0" stop-color="#fff"/><stop offset=".006" stop-color="#fff" stop-opacity=".235"/><stop offset=".994" stop-color="#fff" stop-opacity=".157"/><stop offset="1" stop-color="#fff" stop-opacity=".392"/></linearGradient><linearGradient ns3:href="#c" id="n" x1="-51.786" x2="-51.786" y1="50.786" y2="2.906" gradientTransform="matrix(2.14563 0 0 2.37913 158.09 -7.746)" gradientUnits="userSpaceOnUse"/><linearGradient id="c"><stop offset="0" stop-opacity=".318"/><stop offset="1" stop-opacity=".24"/></linearGradient><linearGradient ns3:href="#d" id="l" x1="25.058" x2="25.058" y1="47.028" y2="39.999" gradientTransform="matrix(2.8421 0 0 .71429 -4.21 87.43)" gradientUnits="userSpaceOnUse"/><linearGradient ns3:href="#e" id="q" x1="29.944" x2="29.944" y1=".575" y2="34.109" gradientTransform="scale(2)" gradientUnits="userSpaceOnUse"/><linearGradient id="e"><stop offset="0" stop-color="#64baff"/><stop offset="1" stop-color="#3689e6"/></linearGradient><linearGradient ns3:href="#f" id="p" x1="21.073" x2="21.073" y1="46.197" y2="1.417" gradientTransform="scale(2)" gradientUnits="userSpaceOnUse"/><linearGradient id="f"><stop offset="0" stop-color="#abacae"/><stop offset="1" stop-color="#d4d4d4"/></linearGradient><radialGradient ns3:href="#g" id="k" cx="4.993" cy="43.5" r="2.5" fx="4.993" fy="43.5" gradientTransform="matrix(5.69496 0 0 1 -52.665 -162.001)" gradientUnits="userSpaceOnUse"/><radialGradient ns3:href="#g" id="h" cx="4.993" cy="43.5" r="2.5" fx="4.993" fy="43.5" gradientTransform="matrix(5.69496 0 0 1 75.335 75.001)" gradientUnits="userSpaceOnUse"/></defs><g stroke-width="1.039" opacity=".2"><path fill="url(#h)" d="M103.789 116.001H118v5h-14.211z" transform="matrix(.92593 0 0 1 4.74 0)"/><path fill="url(#k)" d="M-24.211-121.001H-10v5h-14.211z" transform="matrix(-.92593 0 0 -1 4.74 0)"/><path fill="url(#l)" d="M24.211 116.001h79.579v5H24.211z" transform="matrix(.92593 0 0 1 4.74 0)"/></g><path fill="url(#m)" d="M18 2c21.082 0 92 .007 92 .007V118H18z"/><path fill="none" stroke="url(#n)" stroke-linejoin="round" d="M17.5 1.5c21.311 0 93 .008 93 .008V118.5h-93z"/><path fill="none" stroke="url(#o)" stroke-linecap="round" stroke-linejoin="round" d="M109.5 117.5h-91V2.5h91z"/><path fill="url(#p)" d="M36 52h32c2.216 0 4 1.784 4 4v32c0 2.216-1.784 4-4 4H36c-2.216 0-4-1.784-4-4V56c0-2.216 1.784-4 4-4" style="marker:none"/><path fill="#555761" d="M47.535 57.928a.63.634 0 0 0-.608.584c-.008.106-.042.42-.095.905q-.142 1.155-.22 1.972a.63.634 0 0 0 0 .004l-.095 1.016a.63.634 0 0 0 0 .004l-.016.159a52 52 0 0 1-3.146.103 36 36 0 0 1-2.578-.091.63.634 0 0 0-.67.686l.204 2.27a.63.634 0 0 0 .588.576c.36.022.822.035 1.398.035 1.254 0 2.586-.07 3.943-.162a84 84 0 0 0-.229 3.988c-.904.507-1.708.986-2.285 1.409a.63.634 0 0 0-.008.004c-3.353 2.541-5.132 5.51-5.132 8.794 0 1.217.259 2.226.873 2.949.613.722 1.552 1.067 2.632 1.067 1.49 0 3.03-.61 4.603-1.575.075.468.176 1.09.21 1.273a.63.634 0 0 0 .84.485l2.337-.873a.63.634 0 0 0 .386-.758 18.4 18.4 0 0 1-.485-2.651c2.551-2.485 4.61-5.591 6.22-9.251 1.097.173 2.045.47 2.803.937a.63.634 0 0 0 .004.004c1.724 1.041 2.503 2.41 2.503 4.361 0 1.89-.847 3.325-2.736 4.512-1.477.935-3.511 1.563-6.11 1.842a.63.634 0 0 0-.462.976l1.39 2.159a.63.634 0 0 0 .615.281c3.113-.443 5.611-1.336 7.473-2.722 2.37-1.768 3.62-4.17 3.62-7.016 0-2.588-1.045-4.78-3.048-6.386a.63.634 0 0 0-.008-.004c-1.266-.987-2.952-1.583-4.918-1.924.116-.356.263-.772.315-1.012a.63.634 0 0 0-.473-.754l-2.384-.556a.63.634 0 0 0-.754.464c-.17.678-.322 1.204-.47 1.699-1.438.155-2.725.42-3.9.77a53 53 0 0 1 .178-2.786c3.31-.363 6.407-.891 9.252-1.611a.63.634 0 0 0 .474-.687l-.253-2.238a.63.634 0 0 0-.793-.54 57 57 0 0 1-8.337 1.624c.113-1.06.233-2.152.395-3.441a.63.634 0 0 0-.584-.71l-2.4-.16a.63.634 0 0 0-.06-.003zm4.606 13.184a24.3 24.3 0 0 1-2.534 4.183c-.039-1.04-.078-2.054-.082-3.473.834-.32 1.724-.517 2.617-.71zm-6.126 2.77c.043 1.875.103 3.628.217 4.957-1.386 1.221-2.635 1.821-3.714 1.821-.193 0-.213-.03-.229-.048s-.07-.11-.07-.365c0-.137-.027-.269-.052-.4.016-.103.051-.21.051-.314l-.004.048c.111-1.441.92-2.987 2.538-4.636a.63.634 0 0 0 .008-.008c.443-.468.84-.723 1.256-1.055z" font-family="Open Sans" font-size="16" font-weight="700" letter-spacing="0" style="line-height:1.25;-inkscape-font-specification:&quot;Open Sans Bold&quot;;marker:none" word-spacing="0"/><path fill="url(#q)" d="M60 28c-2.216 0-4 1.784-4 4v32c0 2.216 1.784 4 4 4h32c2.216 0 4-1.784 4-4V32c0-2.216-1.784-4-4-4z" color="#000" style="marker:none"/><path fill="#fff" d="m73.875 36-8.941 24h4.117l2.48-7.2h8.867L82.91 60h4.16l-8.945-24zM76 39.961l3.578 10.437h-7.226z" color="#000" style="marker:none"/></svg>