<svg xmlns="http://www.w3.org/2000/svg" viewBox="0 0 4.234 4.234"><g transform="translate(-1.323 -292.52)scale(1.0001)"><rect width="3.704" height="3.704" x="1.587" y="292.77" fill="#3c4049" fill-opacity=".8" paint-order="markers stroke fill" rx=".265" ry=".265"/><path fill="#fff" d="M2.646 293.82h.205c.05.002.101.026.136.062l.453.453.459-.453c.052-.046.088-.06.136-.062h.198v.198c0 .057-.006.11-.05.15l-.452.452.447.446c.037.038.055.09.055.143v.198h-.198a.2.2 0 0 1-.143-.055l-.452-.453-.453.453a.2.2 0 0 1-.142.055h-.199v-.198c0-.053.019-.105.056-.143l.453-.446-.453-.453a.18.18 0 0 1-.056-.149z" color="#bebebe" font-weight="400" overflow="visible" style="text-decoration-line:none;text-indent:0;text-transform:none"/></g></svg>