<svg xmlns="http://www.w3.org/2000/svg" xmlns:xlink="http://www.w3.org/1999/xlink" viewBox="0 0 24 24"><defs><filter id="c" width="138.9%" height="138.9%" x="-19.4%" y="-13.9%" filterUnits="objectBoundingBox"><feOffset dy="1" in="SourceAlpha" result="shadowOffsetOuter1"/><feGaussianBlur in="shadowOffsetOuter1" result="shadowBlurOuter1" stdDeviation="1"/><feColorMatrix in="shadowBlurOuter1" values="0 0 0 0 0 0 0 0 0 0 0 0 0 0 0 0 0 0 0.15 0"/></filter><path id="a" d="M21 12a9 9 0 0 1-9 9 9 9 0 0 1-9-9 9 9 0 0 1 9-9 9 9 0 0 1 9 9"/></defs><g fill="none" fill-rule="evenodd"><use xlink:href="#a" fill="#000" filter="url(#c)"/><use xlink:href="#a" fill="#fff"/><path fill="#7ed321" d="M15 6a2 2 0 1 1-1.237 3.572l-3.78 2.16a2 2 0 0 1 0 .537l3.78 2.16a2 2 0 1 1-.745 1.304l-3.78-2.161a2 2 0 1 1 0-3.143l3.78-2.161A2 2 0 0 1 15 6"/></g></svg>