<svg xmlns="http://www.w3.org/2000/svg" viewBox="0 0 4.234 4.234"><g transform="translate(-1.322 -1.322)"><rect width="3.704" height="3.704" x="1.587" y="1.587" fill="#3c4049" fill-opacity=".8" paint-order="markers stroke fill" rx=".265" ry=".265"/><path fill="#fff" fill-rule="evenodd" d="M3.22 2.116v.351a1 1 0 0 0-.311.131l-.248-.248-.31.31.248.248a1 1 0 0 0-.13.31h-.352v.441h.351a1 1 0 0 0 .131.31l-.248.248.31.31.248-.248q.142.092.31.131v.352h.441V4.41a1 1 0 0 0 .31-.13l.248.247.31-.31-.248-.248c.059-.093.1-.2.124-.31h.358v-.44h-.358a1 1 0 0 0-.124-.31l.248-.249-.31-.31-.248.248a1 1 0 0 0-.31-.13v-.352zm.22.882a.441.441 0 1 1 0 .882.441.441 0 1 1 0-.882"/></g></svg>