<svg xmlns="http://www.w3.org/2000/svg" viewBox="0 0 4.234 4.234"><g transform="translate(-1.323 -292.52)scale(1.0001)"><rect width="3.704" height="3.704" x="1.587" y="292.77" fill="#3c4049" fill-opacity=".8" paint-order="markers stroke fill" rx=".265" ry=".265"/><path fill="#fff" d="M3.35 293.47c-.037.001-.069.008-.104.013a1.1 1.1 0 0 0-.91.807 1 1 0 0 0-.034.282h.358c0-.062.011-.13.028-.193a.733.733 0 0 1 .902-.517.7.7 0 0 1 .324.193l-.33.297H4.5v-.882l-.324.323a1.1 1.1 0 0 0-.496-.282 1.1 1.1 0 0 0-.33-.041m.869 1.189a.7.7 0 0 1-.02.187.737.737 0 0 1-.903.523.7.7 0 0 1-.324-.193l.33-.296h-.916v.882l.317-.324c.137.136.312.232.503.283.11.029.216.046.324.04.036 0 .075-.008.11-.013a1.1 1.1 0 0 0 .91-.806c.025-.095.027-.189.027-.283z" color="#000" display="block" overflow="visible"/></g></svg>