<svg xmlns="http://www.w3.org/2000/svg" xmlns:xlink="http://www.w3.org/1999/xlink" viewBox="0 0 24 24"><defs><filter id="c" width="138.9%" height="138.9%" x="-19.4%" y="-13.9%" filterUnits="objectBoundingBox"><feOffset dy="1" in="SourceAlpha" result="shadowOffsetOuter1"/><feGaussianBlur in="shadowOffsetOuter1" result="shadowBlurOuter1" stdDeviation="1"/><feColorMatrix in="shadowBlurOuter1" values="0 0 0 0 0 0 0 0 0 0 0 0 0 0 0 0 0 0 0.15 0"/></filter><path id="a" d="M18 9a9 9 0 0 1-9 9 9 9 0 0 1-9-9 9 9 0 0 1 9-9 9 9 0 0 1 9 9"/></defs><g fill="none" fill-rule="evenodd" transform="translate(3 3)"><use xlink:href="#a" fill="#000" filter="url(#c)"/><use xlink:href="#a" fill="#fff"/><path fill="#ffa200" d="M7 5c0-1.103.897-2 2-2s2 .897 2 2v2H7zm5 2V5c0-1.654-1.346-3-3-3S6 3.346 6 5v2H4.5S4 7 4 7.5v6s0 .5.5.5h9c.5 0 .5-.5.5-.5v-6c0-.5-.5-.5-.5-.5z"/></g></svg>