<svg xmlns="http://www.w3.org/2000/svg" xmlns:xlink="http://www.w3.org/1999/xlink" viewBox="0 0 48 48"><defs><linearGradient id="a" x1="50%" x2="50%" y1="0%" y2="100%"><stop offset="0%" stop-color="#748294"/><stop offset="100%" stop-color="#475261"/></linearGradient></defs><g fill="none" fill-rule="evenodd" transform="translate(5 2)"><circle cx="19.019" cy="23.174" r="19" fill="#ffcd44" stroke="#ffc93b" stroke-width="1.5"/><path fill="#e5603e" d="M4.5 28 11 16.5l16 .5 6 11.5z"/><path fill="#fff" d="m21.734 21.463 3.588-5.518-3.018-1.04zm3.414 1.23 3.588-5.518-3.018-1.04zm-4.553-7.8h-3.193L19 21.278zm-4.55 6.637-3.588-5.518 3.019-1.04zm8.3.445-3.588 5.517 3.019 1.04z"/><path fill="#fff" d="m20.955 21.418-2.89 5.913 3.124.664z"/><path fill="#fff" d="m16.826 21.307 2.889 5.914-3.123.664z"/><path fill="#fff" d="m13.562 21.786 3.589 5.518-3.02 1.04zm-.816.907-3.588-5.518 3.019-1.04zm-3.826.565.912 6.518 2.96-1.196zm19.38-.033-1.026 6.502-2.94-1.247z"/><path fill="url(#a)" d="M.5 33.349s.576-7.298 3.248-14.966C6.707 9.893 12.008.946 17 .946c4.998 0 10.305 8.97 13.264 17.472 2.664 7.655 3.236 14.93 3.236 14.93s-5 9-16.5 9-16.5-9-16.5-9m15.96-9.856c-6.454 0-12.77 3.193-12.77 3.193s12.77-20.753 25.541 0c0 0-6.455-3.193-12.77-3.193" transform="translate(2 .651)"/></g></svg>