<svg xmlns="http://www.w3.org/2000/svg" viewBox="0 0 64 64"><path d="M4 56.2v2C4 59.75 5.25 61 6.8 61h50.4c1.55 0 2.8-1.25 2.8-2.8v-2c0 1.55-1.25 2.8-2.8 2.8H6.8C5.25 59 4 57.75 4 56.2" opacity=".2"/><rect width="56" height="56" x="4" y="4" fill="#c41f5b" rx="2.8" ry="2.8"/><path d="M16 9v32l16 16 16-16H32l16-16H32L48 9z" opacity=".2"/><path fill="#fff" d="M48 40H32v16zm0-16H32v16z"/><path fill="#ea7aa2" d="M48 8H32v16z"/><path fill="#e0e0e0" d="M16 40h16v16zm0-32h16v32H16z"/><path fill="#fff" d="M6.8 4C5.25 4 4 5.25 4 6.8v1.003a2.796 2.796 0 0 1 2.8-2.801h50.4c1.55 0 2.8 1.25 2.8 2.8v-1A2.796 2.796 0 0 0 57.2 4z" opacity=".2"/></svg>