<svg xmlns="http://www.w3.org/2000/svg" viewBox="0 0 64 64"><path d="M4.05 32c-.011.334-.05.662-.05 1 0 15.512 12.488 28 28 28a27.94 27.94 0 0 0 28-28c0-.337-.04-.665-.052-1-.528 15.042-12.775 27-27.95 27C16.826 59 4.579 47.042 4.05 32" opacity=".2"/><rect width="56" height="56" x="4" y="4" fill="#23c197" rx="28" ry="28"/><path d="M24.244 19A2.192 2.108 0 0 0 22 21.11v21.783a2.192 2.108 0 0 0 3.287 1.825l9.809-5.445 9.808-5.447a2.192 2.108 0 0 0 0-3.65l-9.81-5.446-9.808-5.444a2.192 2.108 0 0 0-1.044-.282z" opacity=".2"/><path fill="#fff" d="M24.244 18.001A2.192 2.108 0 0 0 22 20.11v21.783a2.192 2.108 0 0 0 3.287 1.825l9.809-5.444 9.808-5.448a2.192 2.108 0 0 0 0-3.65l-9.81-5.446-9.808-5.445a2.192 2.108 0 0 0-1.043-.282z"/><path fill="#fff" d="M32 4C16.488 4 4 16.488 4 32c0 .114.011.224.018.336C4.369 17.134 16.71 5 32 5s27.63 12.134 27.982 27.336c.007-.112.018-.222.018-.336C60 16.488 47.512 4 32 4" opacity=".2"/></svg>