<svg xmlns="http://www.w3.org/2000/svg" viewBox="0 0 64 64"><circle cx="40" cy="41" r="20" opacity=".2"/><circle cx="40" cy="40" r="20" fill="#2c80a2"/><circle cx="40" cy="41" r="12" opacity=".2"/><circle cx="40" cy="40" r="12" fill="#fff"/><circle cx="24" cy="25" r="20" opacity=".2"/><circle cx="24" cy="24" r="20" fill="#37abc8"/><circle cx="24" cy="25" r="12" opacity=".2"/><circle cx="24" cy="24" r="12" fill="#fff"/><path fill="none" stroke="#000" stroke-linecap="round" stroke-width="2" d="M39.014 44.986s-1.307-9.4-6-14-12-6-12-6" opacity=".2"/><path fill="none" stroke="#ff6e4c" stroke-linecap="round" stroke-width="2" d="M39.014 43.986s-1.307-9.4-6-14-12-6-12-6"/><path fill="none" stroke="#000" stroke-linecap="round" stroke-width="2" d="M25.002 20.997s1.307 9.401 6 14 12 6 12 6" opacity=".2"/><path fill="none" stroke="#ff6e4c" stroke-linecap="round" stroke-width="2" d="M25.002 19.997s1.307 9.401 6 14 12 6 12 6"/><path fill="#fff" d="M24 4A20 20 0 0 0 4 24a20 20 0 0 0 .018.494A20 20 0 0 1 24 5a20 20 0 0 1 19.975 19.49A20 20 0 0 0 44 24 20 20 0 0 0 24 4" opacity=".2"/></svg>