<svg xmlns="http://www.w3.org/2000/svg" viewBox="0 0 64 64"><path d="M32 5A28 28 0 0 0 4 33a28 28 0 0 0 28 28 28 28 0 0 0 28-28A28 28 0 0 0 32 5" opacity=".2"/><path fill="#4c6a8f" d="M32 4A28 28 0 0 0 4 32a28 28 0 0 0 28 28 28 28 0 0 0 28-28A28 28 0 0 0 32 4"/><path d="m32 12 14 22-14 8-14-8Z" opacity=".2"/><path d="m32 54 14-18-14 8-14-8Z" opacity=".2"/><path fill="#fff" d="m32 11 14 22-14 8-14-8Z"/><path fill="#fff" d="m32 53 14-18-14 8-14-8Z"/><path fill="#fff" d="M32 4A28 28 0 0 0 4 32l.021.406A28 28 0 0 1 32 5a28 28 0 0 1 27.979 27.578A28 28 0 0 0 60 32 28 28 0 0 0 32 4" opacity=".2"/></svg>