<svg xmlns="http://www.w3.org/2000/svg" viewBox="0 0 64 64"><circle cx="32" cy="33" r="28" opacity=".2"/><circle cx="32" cy="32" r="28" fill="#846847"/><circle cx="32" cy="33" r="22" opacity=".2"/><circle cx="32" cy="32" r="22" fill="#a4946c"/><path d="m32 11-4.57 13.715L20 21l3.715 7.43L10 33l13.715 4.57L20 45l7.43-3.715L32 55l4.57-13.715L44 45l-3.715-7.43L54 33l-13.715-4.57L44 21l-7.43 3.715Z" opacity=".1"/><path fill="#d8cbb8" d="m20 20 12 12h-6Z"/><path fill="#5d472e" d="m20 20 12 12v-6Z"/><path fill="#d8cbb8" d="M44 44 32 32h6z"/><path fill="#5d472e" d="M44 44 32 32v6z"/><path fill="#d8cbb8" d="M44 20 32 32v-6z"/><path fill="#5d472e" d="M44 20 32 32h6z"/><path fill="#d8cbb8" d="m20 44 12-12v6z"/><path fill="#5d472e" d="m20 44 12-12h-6z"/><path fill="#d8cbb8" d="M32 10v22l-5.5-5.5Z"/><path fill="#5d472e" d="M32 10v22l5.5-5.5z"/><path fill="#d8cbb8" d="M32 54V32l5.5 5.5z"/><path fill="#5d472e" d="M32 54V32l-5.5 5.5z"/><path fill="#d8cbb8" d="M54 32H32l5.5-5.5z"/><path fill="#5d472e" d="M54 32H32l5.5 5.5z"/><path fill="#d8cbb8" d="M10 32h22l-5.5 5.5z"/><path fill="#5d472e" d="M10 32h22l-5.5-5.5Z"/><path fill="#fff" d="M32 4A28 28 0 0 0 4 32a28 28 0 0 0 .018.492A28 28 0 0 1 32 5a28 28 0 0 1 27.975 27.492A28 28 0 0 0 60 32 28 28 0 0 0 32 4" opacity=".1"/></svg>