<svg xmlns="http://www.w3.org/2000/svg" viewBox="0 0 64 64"><rect width="58" height="58" x="3" y="4" opacity=".2" rx="2.9" ry="2.9"/><rect width="58" height="58" x="3" y="3" fill="#4f4f4f" rx="2.9" ry="2.9"/><path d="M28.96 12.698 11 24.034l2.938 8.985L11 41.999 29 53.3v-6.34l-11.523-7.207L18.832 36h10.129v-6H18.797l-1.32-3.754 11.484-7.207Zm6.04 0v6.34l11.547 7.207L45.187 30H35v6h10.188l1.359 3.754L35 46.96v6.34L53 42l-2.945-8.981L53 24.034Z" opacity=".2"/><path fill="#4483ff" d="M53 23.036 35 11.7v6.338l11.547 7.207L45.19 29H35v6h10.189l1.358 3.755L35 45.962V52.3L53 41l-2.943-8.982Z"/><path fill="#844aff" d="M18.833 35h10.13v-6H18.794l-1.318-3.755 11.485-7.207V11.7L11 23.036l2.937 8.982L11 41l18 11.3v-6.338l-11.523-7.207Z"/><path fill="#fff" d="M5.898 3A2.89 2.89 0 0 0 3 5.898v1A2.89 2.89 0 0 1 5.898 4h52.204A2.89 2.89 0 0 1 61 6.898v-1A2.89 2.89 0 0 0 58.102 3zm23.065 8.7L11 23.034l.271.828L28.963 12.7zm6.037 0v1l17.729 11.163.271-.828zm11.252 14.363L45.189 29H35v1h10.19l1.357-3.754zm-28.488.003-.287.18L18.795 30h10.168v-1H18.795zm-3.99 6.452L11 41l.271.17 2.666-8.152zm36.447 0-.164.5 2.672 8.152L53 41zm-32.45 6.42-.294.816L29 46.963v-1zm28.481 0L35 45.963v1l11.547-7.21z" opacity=".1"/></svg>