<svg xmlns="http://www.w3.org/2000/svg" xmlns:xlink="http://www.w3.org/1999/xlink" viewBox="0 0 128 128"><defs><linearGradient id="b" x1="50%" x2="50%" y1="0%" y2="100%"><stop offset="0%" stop-color="#ffe94b"/><stop offset="100%" stop-color="#ffb31b"/></linearGradient><linearGradient id="f" x1="50%" x2="50%" y1="2.989%" y2="97.924%"><stop offset="0%" stop-color="#f9fdee"/><stop offset="100%" stop-color="#fef6cf"/></linearGradient><linearGradient id="h" x1="50%" x2="50%" y1="0%" y2="100%"><stop offset="4.248%" stop-color="#81ef5a"/><stop offset="100%" stop-color="#00bf88"/></linearGradient><filter id="a" width="119.2%" height="119.2%" x="-9.6%" y="-7.7%" filterUnits="objectBoundingBox"><feOffset dy="2" in="SourceAlpha" result="shadowOffsetOuter1"/><feGaussianBlur in="shadowOffsetOuter1" result="shadowBlurOuter1" stdDeviation="3"/><feColorMatrix in="shadowBlurOuter1" result="shadowMatrixOuter1" values="0 0 0 0 0 0 0 0 0 0 0 0 0 0 0 0 0 0 0.2 0"/><feMerge><feMergeNode in="shadowMatrixOuter1"/><feMergeNode in="SourceGraphic"/></feMerge></filter><filter id="d" width="116.7%" height="110.4%" x="-8.3%" y="-2.2%" filterUnits="objectBoundingBox"><feOffset dy="3" in="SourceAlpha" result="shadowOffsetOuter1"/><feGaussianBlur in="shadowOffsetOuter1" result="shadowBlurOuter1" stdDeviation="1.5"/><feColorMatrix in="shadowBlurOuter1" values="0 0 0 0 0.373564347 0 0 0 0 0.184487449 0 0 0 0 0 0 0 0 0.0953565477 0"/></filter><filter id="i" width="103.8%" height="105.7%" x="-1.9%" y="-2.9%" filterUnits="objectBoundingBox"><feOffset dy="-2" in="SourceAlpha" result="shadowOffsetInner1"/><feComposite in="shadowOffsetInner1" in2="SourceAlpha" k2="-1" k3="1" operator="arithmetic" result="shadowInnerInner1"/><feColorMatrix in="shadowInnerInner1" values="0 0 0 0 0 0 0 0 0 0 0 0 0 0 0 0 0 0 0.160868185 0"/></filter><path id="c" d="M22.358 21.53 25 20.717a115 115 0 0 0 17.43-6.956l5.414-2.694a9 9 0 0 1 8.25.12l5.683 3.036A82 82 0 0 0 79 21.05l2.348.634A9 9 0 0 1 88 30.373V58.38a25 25 0 0 1-10.995 20.71l-19.963 13.5a9 9 0 0 1-10.084 0l-19.963-13.5A25 25 0 0 1 16 58.38V30.133a9 9 0 0 1 6.358-8.604"/><path id="g" d="M26.324 42.964q12.483 0 23.144-10.403l.403-.396A9.455 9.455 0 0 0 50.083 19l-.212-.219Q39.04 7.983 26.324 7.982q-12.484 0-23.145 10.403l-.403.395a9.455 9.455 0 0 0-.212 13.167l.212.218q10.829 10.799 23.548 10.799"/></defs><g fill="none" fill-rule="evenodd" filter="url(#a)" transform="translate(12 12)"><rect width="104" height="104" fill="url(#b)" fill-rule="nonzero" rx="22"/><use xlink:href="#c" fill="#000" filter="url(#d)"/><use xlink:href="#c" fill="url(#f)"/><g fill-rule="nonzero"><path fill="#81ee5a" d="M39.082 30.334a2.364 2.364 0 0 1 3.286.613l3.565 5.2a2.364 2.364 0 1 1-3.9 2.673l-3.564-5.2a2.364 2.364 0 0 1 .613-3.286m26.545 0a2.364 2.364 0 0 0-3.286.613l-3.565 5.2a2.364 2.364 0 1 0 3.9 2.673l3.564-5.2a2.364 2.364 0 0 0-.613-3.286M52.5 27a2.5 2.5 0 0 1 2.5 2.5v5.418a2.5 2.5 0 1 1-5 0V29.5a2.5 2.5 0 0 1 2.5-2.5"/><g transform="translate(25.676 27)"><use xlink:href="#g" fill="url(#h)"/><use xlink:href="#g" fill="#000" filter="url(#i)"/></g><path fill="#fdf8d6" d="M52 40.655c6.266 0 11.345 5.08 11.345 11.345S58.265 63.345 52 63.345 40.655 58.265 40.655 52 45.735 40.655 52 40.655m0 4.727a6.618 6.618 0 1 0 0 13.236 6.618 6.618 0 0 0 0-13.236"/></g></g></svg>