<svg xmlns="http://www.w3.org/2000/svg" viewBox="0 0 16 16"><path fill="#fff" d="M7.503 2.008a.5.5 0 0 1 .5.5v1.497h.012q1.524 0 2.944.658l1.138-1.467a.5.5 0 1 1 .79.613L11.85 5.146q1.344.84 2.591 2.297a2.4 2.4 0 0 1 .004 3.112l-.236.27q-2.843 3.178-6.194 3.178-3.485 0-6.426-3.437a2.4 2.4 0 0 1-.004-3.112q1.18-1.385 2.45-2.214l-.942-1.467a.5.5 0 1 1 .842-.54l.968 1.51a7 7 0 0 1 2.1-.664V2.508a.5.5 0 0 1 .5-.5m.512 2.997c-1.925 0-3.73.925-5.446 2.842l-.171.194-.05.06A1.4 1.4 0 0 0 2.26 9.8l.088.115C4.133 12 6.01 13.003 8.015 13.003c1.925 0 3.73-.924 5.446-2.841l.222-.255a1.4 1.4 0 0 0 .087-1.699l-.088-.115C11.897 6.01 10.02 5.005 8.015 5.005M8 6a3 3 0 1 1-2.998 3.113 2 2 0 1 0 2.435-3.06Q7.71 6 8 6"/></svg>