<svg xmlns="http://www.w3.org/2000/svg" viewBox="0 0 64 64"><rect width="56" height="56" x="4" y="5" opacity=".2" rx="3" ry="3"/><rect width="56" height="56" x="4" y="4" fill="#e7b212" rx="3" ry="3"/><path d="M35 19v22h8l14-2H40l17.2-3.2L40 36l17-3H40l17-3H40l17-3H40l17-3-17 1 17-3H40l17-3H39zm8 22v6h3l11-3H43l14-3zM12 19 7 47h14v-6h8V30h-8v-5c8 0 8-6 8-6z" opacity=".1"/><path fill="#4f4f4f" d="M12 18 7 46h14v-6h8V29h-8v-5c8 0 8-6 8-6zm23 0v22h8l14-2H40l17.2-3.2L40 35l17-3H40l17-3H40l17-3H40l17-3-17 1 17-3H40l17-3zm8 22v3l14-3zm0 3v3h3l11-3z"/><path fill="#fff" d="M7 4C5.338 4 4 5.338 4 7v1c0-1.662 1.338-3 3-3h50c1.662 0 3 1.338 3 3V7c0-1.662-1.338-3-3-3z" opacity=".2"/></svg>