<svg xmlns="http://www.w3.org/2000/svg" viewBox="0 0 16 16"><path fill="#fff" fill-rule="evenodd" d="M12.8 1A2.2 2.2 0 0 1 15 3.2v9.6a2.2 2.2 0 0 1-2.2 2.2H3.2A2.2 2.2 0 0 1 1 12.8V3.2A2.2 2.2 0 0 1 3.2 1zM11 14V9H8.959c-.096 1.12-.477 2.031-.926 2.811-.414.713-1.028 1.388-1.39 1.76l-.301.294-.684-.728.336-.34c.34-.357.86-.943 1.174-1.486.401-.7.704-1.411.793-2.311H6v-.94l-1 .5V14zm1.8 0a1.2 1.2 0 0 0 1.2-1.2V9h-2v5zM4 9.06l-1.777.89L2 9.5v3.3a1.2 1.2 0 0 0 1 1.183V13h1zm-2-.12 2-1V5H2zM14 8V5h-2v3zM3.2 2A1.2 1.2 0 0 0 2 3.2V4h2V2zM11 5H9v3h2zm1.8-3h-.299l.399.3L11.625 4H14v-.8A1.2 1.2 0 0 0 12.8 2m-.926 0H8.126L9.4 3.7l-.398.3h1.996l-.398-.3zM5 4h1v1H5v2.44l.777-.39.446.9-.106.05H8V5H7V4h1.375L7.1 2.3l.399-.3H5z"/></svg>