<svg xmlns="http://www.w3.org/2000/svg" viewBox="0 0 16 16"><path fill="#fff" fill-rule="evenodd" d="M3.2 15A2.2 2.2 0 0 1 1 12.8V3.2A2.2 2.2 0 0 1 3.2 1h9.6A2.2 2.2 0 0 1 15 3.2v9.6a2.2 2.2 0 0 1-2.2 2.2zm9.6-13H3.2A1.2 1.2 0 0 0 2 3.2v9.6A1.2 1.2 0 0 0 3.2 14H9v-2.061l-.198.02a43 43 0 0 1-1.904.092q-1.474 0-2.568-.428-1.094-.444-1.713-1.301C2.216 9.752 2 8.938 2 8.082a2.44 2.44 0 0 1 .543-1.43c.603-.764 1.319-1.132 2.137-1.437.209-.057.44-.09.69-.113l.53-.04q.596-.053 1.388-.06L9 5c-.032-.497-.215-1.3-.5-1.533q-.413-.349-1.062-.348-.62 0-.936.238a.71.71 0 0 0-.316.618l.015.238-1.127.143c-.02-.096-.031-.493-.031-.493q0-.871.62-1.332.617-.459 1.694-.459 1.649 0 2.284 1.332a5.3 5.3 0 0 1 1.158-1.347l.873.697q-.048.079-.08.143a.83.83 0 0 0 .096.585c.512.393.816.861 1.144 1.366.087.186.186.37.201.566.035.453-.147.836-.443 1.143-.296.306-1.121.459-1.871.459-.201 0-.497-.028-.719-.08v3.703l.324-.09c.114-.035.227-.073.317-.115q.285-.127.586-.286l.412 1.063a10 10 0 0 1-.776.316c-.253.085-.599.16-.863.223V14h2.8a1.2 1.2 0 0 0 1.2-1.2V3.2A1.2 1.2 0 0 0 12.8 2M9 6H7.725l-.599.005q-.703.012-1.179.058a4.7 4.7 0 0 0-1.062.207 3.4 3.4 0 0 0-.713.324c-.587.471-.848.886-.902 1.338-.022.303-.084.562-.04.787.202 1.013.78 1.359 1.545 1.826q.84.38 2.25.379l.898-.024A22 22 0 0 0 9 10.846zm1.703-2.326c-.264.317-.518.629-.592.935-.065.269-.101.251-.11.484L10 5.906c.17.034.44.063.656.063.349 0 .892-.058 1.03-.174.132-.185.169-.337.158-.477-.04-.22-.12-.408-.223-.583l-.082-.13c-.218-.388-.563-.657-.836-.931"/></svg>