<svg xmlns="http://www.w3.org/2000/svg" viewBox="0 0 16 16"><path fill="#fff" fill-rule="evenodd" d="M12.8 1A2.2 2.2 0 0 1 15 3.2v9.6a2.2 2.2 0 0 1-2.2 2.2H3.2A2.2 2.2 0 0 1 1 12.8V3.2A2.2 2.2 0 0 1 3.2 1zm0 1H3.2A1.2 1.2 0 0 0 2 3.2v9.6A1.2 1.2 0 0 0 3.2 14h9.6a1.2 1.2 0 0 0 1.183-.999L10 13V9h4V8h-4V7h2V5h-1.803C9.8 5.79 9.4 6.3 9.4 6.3l-.8-.6.065-.049C8.94 5.438 10 4.521 10 3h1c0 .709-.165.389-.383 1H12V3h1v1h1v-.8A1.2 1.2 0 0 0 12.8 2M9 3v1H7v2h2v7H3V6h1V4H3V3zM6 7H5v2H4v1h3v1H4v1h4V7H7v2H6zm7 3h-2v2h2zm1-3V5h-1v2zM6 4H5v2h1z"/></svg>