<svg xmlns="http://www.w3.org/2000/svg" viewBox="0 0 16 16"><path fill-rule="evenodd" d="M12.8 1A2.2 2.2 0 0 1 15 3.2v9.6a2.2 2.2 0 0 1-2.2 2.2H3.2A2.2 2.2 0 0 1 1 12.8V3.2A2.2 2.2 0 0 1 3.2 1zM2 12.8A1.2 1.2 0 0 0 3.2 14h9.6a1.2 1.2 0 0 0 1.2-1.2V3.2A1.2 1.2 0 0 0 12.8 2H3.2A1.2 1.2 0 0 0 2 3.2V4h1v4.293L5.293 6H6V4h1v4.293L9.293 6h1.414l-3 3 3 3H9.293L7 9.707V12H5.293L3 9.707V12H2zM12 6c.583 0 1.111.154 1.479.521.367.368.521.896.521 1.479h-1c0-.417-.096-.64-.229-.771C12.639 7.096 12.417 7 12 7s-.639.096-.771.229C11.096 7.36 11 7.583 11 8v2c0 .417.096.639.229.771.132.133.354.229.771.229s.639-.096.771-.229c.133-.132.229-.354.229-.771h1c0 .583-.154 1.111-.521 1.479-.368.367-.896.521-1.479.521s-1.111-.154-1.479-.521C10.154 11.111 10 10.583 10 10V8c0-.583.154-1.11.521-1.479C10.889 6.155 11.417 6 12 6m-6 .707L3.707 9 6 11.293z"/></svg>