<svg xmlns="http://www.w3.org/2000/svg" viewBox="0 0 16 16"><path fill-rule="evenodd" d="M8 0c2.762 0 5 2.31 5 5.16a5.15 5.15 0 0 1-1.797 3.947l-.188.153c-.555.43-.947.99-.986 1.76L10 12H6l-.025-.98c0-.71-.37-1.243-.864-1.659l-.126-.101C3.77 8.32 3 6.84 3 5.16 3 2.31 5.238 0 8 0m0 1C5.797 1 4 2.855 4 5.16c0 1.247.522 2.382 1.415 3.16l.183.15c.865.67 1.377 1.504 1.377 2.525L9.029 11l.001-.03c.049-.956.478-1.74 1.201-2.361l.172-.14C11.406 7.693 12 6.49 12 5.16 12 2.855 10.202 1 8 1m2 12v2c.029 1-1.027 1-1.027 1l-1.98-.001C6.811 15.988 6 15.889 6 15v-2zm-1 1H7v.992l.024.006L8.973 15 9 14.993z"/></svg>