<svg xmlns="http://www.w3.org/2000/svg" viewBox="0 0 16 16"><path fill="#fff" fill-rule="evenodd" d="M12.8 1A2.2 2.2 0 0 1 15 3.2v9.6a2.2 2.2 0 0 1-2.2 2.2H3.2A2.2 2.2 0 0 1 1 12.8V3.2A2.2 2.2 0 0 1 3.2 1zM12 5.46V10H4.945a5.3 5.3 0 0 1-.22 1H12v3H4v-1.377l-.066.125c-.302.529-.605.97-.806 1.249L3.2 14h9.6a1.2 1.2 0 0 0 1.2-1.2V5.496l-.062.5-.287-.053A12 12 0 0 1 12 5.461m-8 0c-.65.243-1.205.385-1.553.462l-.385.074L2 5.503V12.8c0 .269.089.517.238.717l.22-.305c.173-.248.39-.579.608-.96.48-.839.934-1.919.934-2.752zM11 12H5v1h6zm0-6H5v1h5v1H5v1h6zM8 2.703C7.141 3.773 6.066 4.502 5.066 5h2.532l-.875-.584.554-.832 1.5 1L8.5 5h2.434c-1-.498-2.075-1.227-2.934-2.297m-.614-.701L3.2 2A1.2 1.2 0 0 0 2 3.2v1.794l.286-.053c.907-.187 3.379-.849 4.936-2.733zM12.8 2l-4.186.002c1.757 2.325 4.908 2.915 5.387 2.992L14 3.2A1.2 1.2 0 0 0 12.8 2"/></svg>