<svg xmlns="http://www.w3.org/2000/svg" viewBox="0 0 16 16"><path fill-rule="evenodd" d="M12.8 1A2.2 2.2 0 0 1 15 3.2v9.6a2.2 2.2 0 0 1-2.2 2.2H3.2A2.2 2.2 0 0 1 1 12.8V3.2A2.2 2.2 0 0 1 3.2 1zM2 12.8c0 .455.253.851.627 1.055l-.387-.822q2.274-.227 3.012-1.023.377-.38.571-1.009L4 11v1H3v-2h6v2H8v-1H6.958c-.151.72-.413 1.288-.796 1.693q-.915 1.025-3.21 1.28.12.027.248.027h5.692a12.5 12.5 0 0 0-1.87-1.148l.681-.854q1.421.683 2.615 1.592l-.36.41h2.56l-.077-.097a4.6 4.6 0 0 1-.421-.727c-.312-.647-.638-1.474-.948-2.588l-.213-.81A25 25 0 0 1 10.115 5H2zM12.8 2H12l.241.23q.464.464.782.963l-.966.569a6.5 6.5 0 0 0-.91-1.25l.85-.512h-1.433l.467.008A37 37 0 0 0 11.068 4H13v1h-1.883c.149 2.308.582 3.912.83 5.003.205.893.527 1.746.8 2.364l.33.713c.094.19.217.42.359.607l.066.086c.302-.218.498-.573.498-.973V3.2A1.2 1.2 0 0 0 12.8 2M9 8v1H3V8zm0-2v1H3V6zm1.031-4H3.2A1.2 1.2 0 0 0 2 3.2V4h8.07c-.024-.657-.049-1.316-.039-2"/></svg>