<svg xmlns="http://www.w3.org/2000/svg" viewBox="0 0 16 16"><path fill-rule="evenodd" d="M12.8 1A2.2 2.2 0 0 1 15 3.2v9.6a2.2 2.2 0 0 1-2.2 2.2H3.2A2.2 2.2 0 0 1 1 12.8V3.2A2.2 2.2 0 0 1 3.2 1zM3.2 2A1.2 1.2 0 0 0 2 3.2v3.225l.775-.772q1.154.634 2.133 1.442l-.806.98a9.5 9.5 0 0 0-2.1-1.596L2 12.8c0 .27.09.519.24.72a24.2 24.2 0 0 0 1.862-4.534l.98.694A24 24 0 0 1 3.523 14h2.142l.216-.062a6.4 6.4 0 0 0 1.668-.823A4.2 4.2 0 0 0 8.662 12H5v-1h4v-1H6V9h3V8H6V5h3V4H7V2zm6.3 10.588c-.35.52-.846.972-1.377 1.346L8.024 14h2.949l-.096-.066c-.531-.374-1.027-.826-1.377-1.346M14 12h-3.662c.257.394.639.782 1.113 1.115a6.4 6.4 0 0 0 1.703.834c.49-.152.846-.61.846-1.149zM12.8 2H12v2h-2v1h3v3h-3v1h3v1h-3v1h4V3.2A1.2 1.2 0 0 0 12.8 2M9 6H7v1h2zm3 0h-2v1h2zM3.352 2.377q1.268.692 2.306 1.674l-.75.98a14.6 14.6 0 0 0-2.365-1.846zM11 2H8v1h3z"/></svg>