<svg xmlns="http://www.w3.org/2000/svg" viewBox="0 0 16 16"><path fill="#fff" fill-rule="evenodd" d="M12.8 1A2.2 2.2 0 0 1 15 3.2v9.6a2.2 2.2 0 0 1-2.2 2.2H3.2A2.2 2.2 0 0 1 1 12.8V3.2A2.2 2.2 0 0 1 3.2 1zM3.2 2A1.2 1.2 0 0 0 2 3.2v9.6A1.2 1.2 0 0 0 3.2 14h3.873A40 40 0 0 1 5 13.944v-1.447c.944.191 1.838.225 2.965.225q1.778 0 2.668-.446l.361-.19c.388-.212.582-.386.582-.909q0-.89-.611-1.389-.612-.555-1.777-.555c-1.519 0-2.743.647-4.077 1.944l-1-.778c.387-.629.743-1.898 1.066-3.25l.214-.916.275-1.222H3V3.98c.96-.005 1.932-.016 2.945-.047L6.334 2zm9.6 12a1.2 1.2 0 0 0 1.2-1.2V3.2A1.2 1.2 0 0 0 12.8 2H7.611c-.074.556-.203 1.125-.388 1.977l1.345-.061c1.85-.093 3.302-.207 4.432-.34v1.28l-.338.031c-1.189.091-3.026.047-5.717.168l-.156.654c-.273 1.181-.61 2.742-1.012 3.637l.112.054c1.37-.925 2.336-1.388 3.298-1.388q1.835 0 2.834.888c.667.593.979 1.352.979 2.278 0 1.074-.404 1.489-1.256 2.045Q10.521 14 8.076 14z"/></svg>