<svg xmlns="http://www.w3.org/2000/svg" viewBox="0 0 64 64"><rect width="56" height="56" x="4" y="5" opacity=".2" rx="2.8" ry="2.8"/><rect width="56" height="56" x="4" y="4" fill="#4f4f4f" rx="2.8" ry="2.8"/><path d="M8 16v34h5V35h9v-5h-9v-9h9v-5zm17 0v34h14v-5h-9V35h9v-5h-9v-9h9v-5zm17 0v34h5V35h4v15h5V16h-5v14h-4V16z" opacity=".2"/><path fill="#df4545" d="M8 15h5v34H8z"/><path fill="#df4545" d="M22 15v5H8v-5zm0 14v5H8v-5zm3-14h5v34h-5z"/><path fill="#df4545" d="M39 15v5H25v-5zm0 14v5H25v-5zm3-14h5v34h-5z"/><path fill="#df4545" d="M56 29v5H42v-5zM39 44v5H25v-5z"/><path fill="#df4545" d="M51 15h5v34h-5z"/><path fill="#fff" d="M8 15v1h14v-1zm17 0v1h14v-1zm17 0v1h5v-1zm9 0v1h5v-1zM13 29v1h9v-1zm17 0v1h9v-1zm17 0v1h4v-1zM30 44v1h9v-1zM6.8 4C5.25 4 4 5.25 4 6.8v1C4 6.25 5.25 5 6.8 5h50.4C58.75 5 60 6.25 60 7.8v-1C60 5.25 58.75 4 57.2 4z" opacity=".1"/></svg>