<svg xmlns="http://www.w3.org/2000/svg" viewBox="0 0 64 64"><rect width="56" height="56" x="4" y="5" opacity=".2" ry="11.2"/><rect width="56" height="56" x="4" y="4" fill="#3d9a41" ry="11.2"/><path fill="none" stroke="#000" stroke-linecap="round" stroke-linejoin="round" stroke-width="6" d="M12 13h11L12 24v14l25.6-25H52L12 53h15l25-25v14L41 53h11" opacity=".2"/><path fill="none" stroke="#fff" stroke-linecap="round" stroke-linejoin="round" stroke-width="6" d="M12 12h11L12 23v14l25.6-25H52L12 52h15l25-25v14L41 52h11"/><path fill="#fff" d="M15.2 4C8.993 4 4 8.994 4 15.2v1C4 9.993 8.994 5 15.2 5h33.6C55.007 5 60 9.994 60 16.2v-1C60 8.993 55.006 4 48.8 4z" opacity=".2"/></svg>