<svg xmlns="http://www.w3.org/2000/svg" xml:space="preserve" viewBox="0 0 16.933 16.933"><rect width="52" height="52" x="6" y="6" fill="#ececec" stroke="#a8a8a8" stroke-width="2" paint-order="stroke fill markers" rx="8" ry="8" transform="scale(.26458)"/><rect width="13.758" height="13.758" x="1.587" y="1.587" fill="#ccc" paint-order="stroke fill markers" rx="2.117" ry="2.117"/><g transform="translate(.955 .955)scale(.8872)"><circle cx="8.466" cy="8.466" r="7.144" fill="#fff" paint-order="stroke markers fill"/><circle cx="8.466" cy="8.466" r="6.8" fill="none" stroke="#000" stroke-width=".714"/><path fill="none" d="M2.578 5.172h.348v6.246h-.348Z"/><path fill="none" d="M2.715 7.532h.593v.016h-.593Z"/><path d="M2.267 5.111h.687v6.718h-.687Zm2.507.825h.687v2.427h-.687Zm.158 3.814h.687v4.71h-.687Zm4.321-.717h.687v5.937h-.687Zm2.183-6.565h.687v4.134h-.687zm.021 6.242h.687v5.67h-.687zM3.413 4.353v-.687h5.251v.687z"/><path d="M4.808 6.625v-.687h7.27v.687zm6.649 2.62v-.687h3.651v.687zm-6.522 1.176v-.687h2.44v.687z"/><circle cx="5.12" cy="8.311" r=".37" stroke="#000" stroke-width=".714"/><circle cx="7.562" cy="10.077" r=".37" stroke="#000" stroke-width=".714"/><circle cx="9.592" cy="8.8" r=".438" stroke="#000" stroke-width=".845"/><circle cx="9.102" cy="3.977" r=".37" stroke="#000" stroke-width=".714"/></g></svg>