<svg xmlns="http://www.w3.org/2000/svg" viewBox="0 0 32 32"><g stroke-linejoin="round"><path fill="#e9e9e9" d="M10 2h20v28H10z"/><g stroke-width="1.429"><path d="M10 29h20v1H10z" opacity=".15"/><path fill="#4d4d4d" d="M12 6v1h10V6zm0 2v1h9V8zm0 2v1h10v-1z"/><path fill="#da4453" d="M24 6v1h4V6zm0 4v1h4v-1z"/><path fill="#27ae60" d="M24 8h4v1h-4z"/></g><path d="M10 2h1v27h-1zm19 0h1v27h-1z" opacity=".15"/></g><path fill="#3496ce" d="M3 16c-.554 0-1 .446-1 1v8a1 1.5 0 0 1 1 1.5A1 1.5 0 0 1 2 28v1c0 .554.446 1 1 1h20c.554 0 1-.446 1-1V17c0-.554-.446-1-1-1z"/><path fill="#144769" d="M2 17h22v3H2z"/><g stroke-linejoin="round" transform="translate(0 -15)"><rect width="4" height="3" x="4" y="36" fill="#b9daec" rx=".5"/><path fill="#1f5b83" d="M6 41v1h3v-1zm4 0v1h3v-1zm4 0v1h3v-1zm4 0v1h3v-1z"/></g></svg>