<svg xmlns="http://www.w3.org/2000/svg" viewBox="0 0 22 22"><path fill="currentColor" d="M19.893 11c-.008-.92-1.262-1.644-2.796-1.644h-3.202c-.436 0-.6-.077-.865-.366L7.75 3.28a.8.8 0 0 0-.6-.28H6.144c-.202 0-.32.187-.226.397L8.653 9.35l-3.997.444-1.425-2.54c-.11-.195-.273-.28-.53-.28h-.35c-.21 0-.35.14-.35.35v7.354c0 .21.14.35.35.35h.35c.257 0 .42-.085.53-.28L4.656 12.2l3.997.451-2.735 5.952c-.093.21.024.397.226.397H7.15c.226 0 .429-.101.6-.28l5.281-5.71c.265-.288.429-.366.865-.366h3.202c1.534 0 2.788-.733 2.796-1.644z" color="#d3dae3"/></svg>