<svg xmlns="http://www.w3.org/2000/svg" xmlns:xlink="http://www.w3.org/1999/xlink" viewBox="0 0 96 96"><defs><linearGradient id="b" x1="50%" x2="50%" y1="0%" y2="100%"><stop offset="0%" stop-color="#fff"/><stop offset="100%" stop-color="#f0f0f0"/></linearGradient><filter id="a" width="131.6%" height="131.6%" x="-15.8%" y="-15.8%" filterUnits="objectBoundingBox"><feOffset dy="2" in="SourceAlpha" result="shadowOffsetOuter1"/><feGaussianBlur in="shadowOffsetOuter1" result="shadowBlurOuter1" stdDeviation="2"/><feComposite in="shadowBlurOuter1" in2="SourceAlpha" operator="out" result="shadowBlurOuter1"/><feColorMatrix in="shadowBlurOuter1" result="shadowMatrixOuter1" values="0 0 0 0 0 0 0 0 0 0 0 0 0 0 0 0 0 0 0.2 0"/><feMerge><feMergeNode in="shadowMatrixOuter1"/><feMergeNode in="SourceGraphic"/></feMerge></filter></defs><g fill="none" fill-rule="evenodd" filter="url(#a)" transform="translate(10 10)"><path fill="url(#b)" d="M8 0h60a8 8 0 0 1 8 8v60a8 8 0 0 1-8 8H8a8 8 0 0 1-8-8V8a8 8 0 0 1 8-8"/><path fill="#c7c7c7" d="M38 29v5h32v1H38v5h-1v-5H6v-1h31v-5z"/><path fill="#d8d8d8" d="M6 50h64v1H6z"/><path fill="#909090" d="M6 44h64v1H6zm31 1h1v25h-1z"/><text fill="#000" font-family="Charter-Bold, Charter" font-size="10" font-weight="bold">
                <tspan x="7" y="16">RADIOGRAM</tspan>
            </text><text fill="#000" font-family="Charter-Bold, Charter" font-size="5" font-weight="bold">
                <tspan x="12" y="23">VIA AMATEYR RADIO</tspan>
            </text><text fill="#000" font-family="Charter-Bold, Charter" font-size="4" font-weight="bold">
                <tspan x="6" y="33">CUSTOM</tspan>
            </text><text fill="#000" font-family="Charter-Bold, Charter" font-size="4" font-weight="bold">
                <tspan x="40" y="33">MSG V2</tspan>
            </text><text fill="#000" font-family="Charter-Bold, Charter" font-size="4" font-weight="bold">
                <tspan x="40" y="49">MSG V2</tspan>
            </text><text fill="#000" font-family="Charter-Bold, Charter" font-size="4" font-weight="bold">
                <tspan x="40" y="39">SITREP V2</tspan>
            </text><text fill="#000" font-family="Charter-Bold, Charter" font-size="4" font-weight="bold">
                <tspan x="6" y="39">TEMPLATES</tspan>
            </text><text fill="#000" font-family="STSongti-SC-Bold, Songti SC" font-size="4" font-weight="bold" letter-spacing="-.1">
                <tspan x="39" y="57">AMRRON SPOT </tspan>
                <tspan x="39" y="61">CAP RIDAIO </tspan>
                <tspan x="39" y="65">ICS-206 EXAMPLE</tspan>
                <tspan x="39" y="69">HICS-253</tspan>
            </text></g></svg>