<svg xmlns="http://www.w3.org/2000/svg" xmlns:xlink="http://www.w3.org/1999/xlink" viewBox="0 0 96 96"><defs><linearGradient id="b" x1="50%" x2="50%" y1="0%" y2="100%"><stop offset="0%" stop-color="#4f4f4f"/><stop offset="100%" stop-color="#2c2c2c"/></linearGradient><linearGradient id="c" x1="0%" x2="100%" y1="50%" y2="50%"><stop offset="0%" stop-color="#b8b8b8"/><stop offset="100%" stop-color="#1b1b1b"/></linearGradient><linearGradient id="d" x1="50%" x2="50%" y1="8.7%" y2="100%"><stop offset="0%" stop-color="#686868"/><stop offset="100%" stop-color="#1b1b1b"/></linearGradient><filter id="a" width="131.6%" height="131.6%" x="-15.8%" y="-15.8%" filterUnits="objectBoundingBox"><feOffset dy="2" in="SourceAlpha" result="shadowOffsetOuter1"/><feGaussianBlur in="shadowOffsetOuter1" result="shadowBlurOuter1" stdDeviation="2"/><feComposite in="shadowBlurOuter1" in2="SourceAlpha" operator="out" result="shadowBlurOuter1"/><feColorMatrix in="shadowBlurOuter1" result="shadowMatrixOuter1" values="0 0 0 0 0 0 0 0 0 0 0 0 0 0 0 0 0 0 0.2 0"/><feMerge><feMergeNode in="shadowMatrixOuter1"/><feMergeNode in="SourceGraphic"/></feMerge></filter></defs><g fill="none" fill-rule="evenodd" filter="url(#a)" transform="translate(10 10)"><rect width="76" height="76" fill="#161616" rx="8"/><path fill="#fff107" d="M0 7h76v21H0z"/><path fill="#c6a003" d="M0 7h76v1H0zm0 20h76v1H0z"/><path fill="#5b5b5b" d="M0 30h76v2H0zm0 3h76v2H0z"/><path fill="#5b5b5b" d="M25 76V34h1v42z" opacity=".482"/><path fill="#5b5b5b" d="M71 48h5v2h-5z"/><path fill="#aaa288" d="M69 52h7v2h-7zm0 10h7v2h-7zm3-20h4v2h-4z"/><path fill="#ff7c3c" fill-opacity=".328" d="M72 37h4v3h-4z"/><path fill="#5b5b5b" d="M71 58h5v2h-5zm0 11h5v2h-5z"/><circle cx="48" cy="55" r="18" fill="url(#b)" stroke="#b8b8b8"/><circle cx="48" cy="45" r="5" fill="url(#c)" stroke="#6d6d6d"/><circle cx="12" cy="43" r="5" fill="url(#d)" stroke="#6d6d6d"/><circle cx="12" cy="65" r="5" fill="url(#d)" stroke="#6d6d6d"/><rect width="3" height="1" x="7" y="37" fill="#9df95a" fill-opacity=".54" rx=".5" transform="matrix(1 0 0 -1 0 75)"/><rect width="3" height="1" y="49" fill="#f9ef5a" fill-opacity=".32" rx=".5" transform="matrix(1 0 0 -1 0 99)"/><rect width="3" height="1" x="19" y="49" fill="#f9ef5a" fill-opacity=".32" rx=".5" transform="matrix(1 0 0 -1 0 99)"/><rect width="5" height="1" x="18" y="70" fill="#f9ef5a" fill-opacity=".32" rx=".5" transform="matrix(1 0 0 -1 0 141)"/><rect width="4" height="3" x="28" y="69" fill="#b8b8b8" fill-opacity=".448" rx="1.5" transform="matrix(1 0 0 -1 0 141)"/><rect width="2" height="1" x="14" y="70" fill="#f9ef5a" fill-opacity=".32" rx=".5" transform="matrix(1 0 0 -1 0 141)"/><rect width="2" height="1" x="1" y="70" fill="#f9ef5a" fill-opacity=".32" rx=".5" transform="matrix(1 0 0 -1 0 141)"/><rect width="3" height="2" x="7" y="57" fill="#9df95a" fill-opacity=".54" rx="1" transform="matrix(1 0 0 -1 0 116)"/><rect width="3" height="2" x="14" y="57" fill="#9df95a" fill-opacity=".32" opacity=".61" rx="1" transform="matrix(1 0 0 -1 0 116)"/><rect width="3" height="1" x="15" y="37" fill="#9df95a" fill-opacity=".32" opacity=".61" rx=".5" transform="matrix(1 0 0 -1 0 75)"/><path fill="#161616" d="M29 10v7h-1v-7zm5 0v7h-1v-3h-2v-1h2v-3zm2 4v2h3v1h-4v-3zm8 2v1h-2v-1zm10 0v1h-2v-1zm10 0v1h-2v-1zm-14-6v7h-4v-7zm10 0v7h-1v-6h-3v-1zm-2 5v2h-2v-2zm-16 0v1h-1v-1zm3-1v2h-1v-2zm7 1v1h-1v-1zm3-1v2h-1v-2zm7 1v1h-1v-1zm3-1v2h-1v-2zm-16-3h-2v5h2zm-11 2v1h-2v-1zm7-3v1h-3v2h2v1h-3v-4zm10 0v1h-3v2h2v1h-3v-4zm10 0v1h-3v2h2v1h-3v-4zm-34 0v3h-1v-3zm8 1v2h-1v-2zm-3 0v1h-1v-1zm2-1v1h-2v-1zm30 3h4v1h-4zM39 23v1h3v1h-4v-2zm13-3v1h-3v1h3v3h-4v-1h3v-1h-3v-3zm4 0v5h-3v-1h2v-1h-2v-1h2v-1h-2v-1zm2 0v2h2v-2h1v5h-1v-2h-3v-3zm6 2v3h-1v-3zm-17-2v5h-4v-5zm-1 1h-2v3h2zm-4 1v1h-3v-1zm27-1v2h-2v-2zm-4-1v2h-1v-1h-2v-1zm-23 0v1h-4v-1z"/><rect width="17" height="2" x="15" y="23" fill="#d8b073" rx="1"/><path fill="#a68008" d="M0 16v-4a1 1 0 0 1 1-1h8a1 1 0 0 1 1 1v4a1 1 0 0 1-1 1h3.5a.5.5 0 1 1 0 1H.5a.5.5 0 1 1 0-1H1a1 1 0 0 1-1-1"/><rect width="4" height="2" x="26" y="20" fill="#c99d59" rx="1"/><g opacity=".682" transform="translate(11 19)"><rect width="4" height="2" fill="#c99d59" rx="1"/><rect width="4" height="2" x="2" fill="#c97f59" rx="1"/><rect width="4" height="2" x="4" fill="#c99d59" rx="1"/></g><rect width="5" height="4" y="20" fill="#7f5008" opacity=".694" rx="2"/><rect width="8" height="4" x="1" y="12" fill="#7f5008" opacity=".694" rx="2"/></g></svg>