<svg xmlns="http://www.w3.org/2000/svg" viewBox="0 0 64 64"><rect width="50" height="50" x="9" y="6" opacity=".2" rx="2.778" ry="2.778"/><rect width="50" height="50" x="9" y="5" fill="#7ab8e8" rx="2.778" ry="2.778"/><rect width="42" height="42" x="7" y="16" opacity=".2" rx="2.8" ry="2.8"/><rect width="42" height="42" x="7" y="15" fill="#5093c8" rx="2.8" ry="2.8"/><rect width="30" height="30" x="5" y="30" opacity=".2" rx="2.727" ry="2.727"/><rect width="30" height="30" x="5" y="29" fill="#0077d3" rx="2.727" ry="2.727"/><path d="M13 36v18h4v-7h10v-3H17v-5h10v-3H17Z" opacity=".2"/><path fill="#fff" d="M13 35v18h4v-7h10v-3H17v-5h10v-3H17Z"/><path fill="#fff" d="M11.777 5A2.77 2.77 0 0 0 9 7.777v1A2.77 2.77 0 0 1 11.777 6h44.446A2.77 2.77 0 0 1 59 8.777v-1A2.77 2.77 0 0 0 56.223 5z" opacity=".2"/></svg>