<svg xmlns="http://www.w3.org/2000/svg" xmlns:xlink="http://www.w3.org/1999/xlink" viewBox="0 0 96 96"><defs><linearGradient id="b" x1="50%" x2="38.02%" y1="47.933%" y2="65.609%"><stop offset="0%" stop-color="#e7c27c"/><stop offset="100%" stop-color="#f5e3b3"/></linearGradient><linearGradient id="c" x1="87.228%" x2="16.825%" y1="1.471%" y2="98.529%"><stop offset="0%" stop-color="#deab72"/><stop offset="100%" stop-color="#9d6f40"/></linearGradient><linearGradient id="d" x1="87.228%" x2="16.825%" y1="5.072%" y2="94.928%"><stop offset="0%" stop-color="#deab72"/><stop offset="100%" stop-color="#9d6f40"/></linearGradient><linearGradient id="e" x1="87.228%" x2="16.825%" y1="3.635%" y2="96.365%"><stop offset="0%" stop-color="#deab72"/><stop offset="100%" stop-color="#9d6f40"/></linearGradient><linearGradient id="f" x1="87.228%" x2="16.825%" y1="9.209%" y2="90.791%"><stop offset="0%" stop-color="#deab72"/><stop offset="100%" stop-color="#9d6f40"/></linearGradient><linearGradient id="g" x1="53.71%" x2="46.234%" y1="74.633%" y2="22.53%"><stop offset="0%" stop-color="#a67a49"/><stop offset="100%" stop-color="#926639"/></linearGradient><linearGradient id="h" x1="53.229%" x2="46.722%" y1="74.633%" y2="22.53%"><stop offset="0%" stop-color="#a67a49"/><stop offset="100%" stop-color="#926639"/></linearGradient><linearGradient id="i" x1="53.96%" x2="45.981%" y1="74.633%" y2="22.53%"><stop offset="0%" stop-color="#a67a49"/><stop offset="100%" stop-color="#926639"/></linearGradient><linearGradient id="j" x1="53.593%" x2="46.353%" y1="74.633%" y2="22.53%"><stop offset="0%" stop-color="#a67a49"/><stop offset="100%" stop-color="#926639"/></linearGradient><linearGradient id="k" x1="91.587%" x2="7.141%" y1="50%" y2="50%"><stop offset="0%" stop-color="#ca965d"/><stop offset="100%" stop-color="#b78c59"/></linearGradient><linearGradient id="l" x1="91.587%" x2="7.141%" y1="50%" y2="50%"><stop offset="0%" stop-color="#ca965d"/><stop offset="100%" stop-color="#b78c59"/></linearGradient><linearGradient id="m" x1="91.587%" x2="7.141%" y1="50%" y2="50%"><stop offset="0%" stop-color="#ca965d"/><stop offset="100%" stop-color="#b78c59"/></linearGradient><linearGradient id="n" x1="91.587%" x2="7.141%" y1="50%" y2="50%"><stop offset="0%" stop-color="#ca965d"/><stop offset="100%" stop-color="#b78c59"/></linearGradient><filter id="a" width="132.4%" height="133.8%" x="-16.2%" y="-16.9%" filterUnits="objectBoundingBox"><feOffset dy="2" in="SourceAlpha" result="shadowOffsetOuter1"/><feGaussianBlur in="shadowOffsetOuter1" result="shadowBlurOuter1" stdDeviation="2"/><feComposite in="shadowBlurOuter1" in2="SourceAlpha" operator="out" result="shadowBlurOuter1"/><feColorMatrix in="shadowBlurOuter1" result="shadowMatrixOuter1" values="0 0 0 0 0 0 0 0 0 0 0 0 0 0 0 0 0 0 0.2 0"/><feMerge><feMergeNode in="shadowMatrixOuter1"/><feMergeNode in="SourceGraphic"/></feMerge></filter></defs><g fill="none" fill-rule="evenodd" filter="url(#a)" transform="translate(12 14)"><path fill="url(#b)" d="M6.777 45.482a1 1 0 0 1 .94-.276L60.963 57.43a1 1 0 0 1 .554 1.603l-6.05 7.488a1 1 0 0 1-1.033.338L50 65.684V70.5a.5.5 0 0 1-.5.5h-2a.5.5 0 0 1-.5-.5v-5.611l-20-5.302V64.5a.5.5 0 0 1-.5.5h-2a.5.5 0 0 1-.5-.5v-5.708L5 53.755V58.5a.5.5 0 0 1-.5.5h-2a.5.5 0 0 1-.5-.5v-5.541l-.344-.091a1 1 0 0 1-.345-.167l-.097-.084a1 1 0 0 1-.018-1.414Z"/><path fill="url(#c)" d="M0 .725 27 6v21.325L0 20.299z" transform="translate(0 30)"/><path fill="#fff" d="m18.608 49.077 7.045 1.703a.5.5 0 0 1 .383.486v2.995a.5.5 0 0 1-.634.482l-7.045-1.953a.5.5 0 0 1-.366-.482v-2.745a.5.5 0 0 1 .617-.486" opacity=".62"/><path fill="#000" d="m1.628 40.522 7.036 1.858a.5.5 0 0 1 .372.484v.76a.5.5 0 0 1-.628.483l-7.036-1.859A.5.5 0 0 1 1 41.765v-.76a.5.5 0 0 1 .628-.483" opacity=".305"/><path fill="#cf5353" d="m1.615 35.682 7.036 1.665a.5.5 0 0 1 .385.486v2.535a.5.5 0 0 1-.615.486L1.385 39.19A.5.5 0 0 1 1 38.703v-2.535a.5.5 0 0 1 .615-.486" opacity=".481"/><path fill="#000" d="m19.658 50.297 4.943 1.319a.5.5 0 0 1 .37.483v.759a.5.5 0 0 1-.628.483L19.4 52.022a.5.5 0 0 1-.371-.483v-.759a.5.5 0 0 1 .629-.483" opacity=".16"/><path fill="url(#d)" d="m0 0 31 5.924v23.462L0 21.325z" transform="translate(27 36)"/><path fill="#fff" d="m30.609 45.216 7.197 1.6a.5.5 0 0 1 .391.489v4.494a.5.5 0 0 1-.613.487l-7.197-1.673a.5.5 0 0 1-.387-.487v-4.422a.5.5 0 0 1 .609-.488" opacity=".506"/><path fill="#000" d="m30.609 41.628 7.045 1.571a.5.5 0 0 1 .391.488v.77a.5.5 0 0 1-.609.488l-7.045-1.571a.5.5 0 0 1-.391-.488v-.77a.5.5 0 0 1 .609-.488" opacity=".481"/><path fill="#cf5353" d="m53.56 52.678 1.12.274a.5.5 0 0 1 .38.486v.764a.5.5 0 0 1-.619.486l-1.12-.275a.5.5 0 0 1-.38-.486v-.764a.5.5 0 0 1 .62-.485" opacity=".481"/><path fill="#000" d="m31.668 46.537 3.604.84a.5.5 0 0 1 .387.486v.768a.5.5 0 0 1-.614.487l-3.604-.84a.5.5 0 0 1-.387-.487v-.767a.5.5 0 0 1 .614-.487m19.014 8.22 3.991.929a.5.5 0 0 1 .387.487v4.824a.18.18 0 0 1-.211.176l-.199-.036-.025-.005-4.172-.99a.5.5 0 0 1-.384-.486v-4.412a.5.5 0 0 1 .613-.487" opacity=".16"/><path fill="url(#e)" d="m0 0 27 4v22L0 20.725z" transform="translate(0 10)"/><path fill="#fff" d="m18.587 26.601 7.033 1.2a.5.5 0 0 1 .416.493v3.01a.5.5 0 0 1-.601.49l-7.033-1.45a.5.5 0 0 1-.399-.489v-2.76a.5.5 0 0 1 .584-.494" opacity=".62"/><path fill="#000" d="m1.6 18.121 7.035 1.425a.5.5 0 0 1 .4.49v.774a.5.5 0 0 1-.598.49L1.4 19.875a.5.5 0 0 1-.401-.49v-.774a.5.5 0 0 1 .6-.49" opacity=".305"/><path fill="#cf5353" d="m1.595 13.347 7.036 1.358a.5.5 0 0 1 .405.491v2.544a.5.5 0 0 1-.595.49l-7.036-1.358a.5.5 0 0 1-.405-.49v-2.545a.5.5 0 0 1 .595-.49" opacity=".481"/><path fill="#000" d="M19.015 27.635 25 28.737v1.794l-5.985-1.102z" opacity=".16"/><path fill="url(#f)" d="m0 0 31 4.758V28L0 22z" transform="translate(27 14)"/><path fill="#fff" d="m30.58 22.886 7 1.13a.5.5 0 0 1 .42.494v4.506a.5.5 0 0 1-.585.493l-7-1.203a.5.5 0 0 1-.415-.493V23.38a.5.5 0 0 1 .58-.493" opacity=".506"/><path fill="#000" d="m30.577 19.09 5.035.782a.5.5 0 0 1 .423.494v.782a.5.5 0 0 1-.577.494l-5.035-.782a.5.5 0 0 1-.423-.494v-.782a.5.5 0 0 1 .577-.494" opacity=".481"/><path fill="#cf5353" d="m48.61 21.94 7.004 1.102a.5.5 0 0 1 .422.494v.782a.5.5 0 0 1-.578.494l-7.003-1.103a.5.5 0 0 1-.422-.494v-.781a.5.5 0 0 1 .577-.494" opacity=".481"/><path fill="#000" d="m31.585 23.734 3.638.603a.5.5 0 0 1 .419.494v.78a.5.5 0 0 1-.582.493l-3.639-.603a.5.5 0 0 1-.418-.493v-.78a.5.5 0 0 1 .582-.494m19.074 7.988 3.99.728a.5.5 0 0 1 .411.492v4.804a.18.18 0 0 1-.211.177l-.212-.039-4.158-.758a.5.5 0 0 1-.41-.492v-4.42a.5.5 0 0 1 .59-.492" opacity=".16"/><path fill="url(#g)" d="M16 20.382V39.61l-8 9.924V28.216z" transform="translate(58 6)"/><path fill="url(#h)" d="M8 28.216v21.318l-8 9.928V36z" transform="translate(58 6)"/><path fill="url(#i)" d="M16 0v20.382l-8 7.834V6.378z" transform="translate(58 6)"/><path fill="url(#j)" d="M8 6.378v21.838L0 36V12.758z" transform="translate(58 6)"/><path fill="url(#k)" d="M11.718 4.749 22.342 0 45.65 2.739l-9.534 5.437z"/><path fill="url(#l)" d="M36.116 8.176 45.65 2.74 74 6l-8 6.378z"/><path fill="url(#m)" d="m0 10 11.718-5.251 24.398 3.427L27 14z"/><path fill="url(#n)" d="m27 14 9.116-5.824L66 12.378l-8 6.38z"/></g></svg>