<svg xmlns="http://www.w3.org/2000/svg" viewBox="0 0 64 64"><path d="M4 52v2c0 1.662 1.25 3 2.8 3h50.4c1.55 0 2.8-1.338 2.8-3v-2c0 1.662-1.25 3-2.8 3H6.8C5.25 55 4 53.662 4 52" opacity=".2"/><rect width="56" height="47.999" x="-60" y="8" fill="#826f3d" rx="2.8" ry="3" transform="scale(-1 1)"/><path d="M8 13h47.999v28H8z" opacity=".2"/><path fill="#fff" d="M8 12h47.999v28H8z"/><g fill="#ff6e6e"><path d="M28 24v4H16v-4zm0-8v4H16v-4z"/><path d="M16 16h4v20h-4z"/></g><circle cx="52.999" cy="49" r="3" fill="#01d900"/><path d="M8 42h28v2H8z" opacity=".4"/><path fill="#fff" d="M6.8 8C5.25 8 4 9.338 4 11v1c0-1.662 1.25-3 2.8-3h50.4c1.55 0 2.8 1.338 2.8 3v-1c0-1.662-1.25-3-2.8-3z" opacity=".2"/><g fill="#ff6e6e"><path d="M34 36h-4V24h4zm8 0h-4V24h4zm8 0h-4V24h4z"/><path d="M50 24v4H30v-4z"/></g><path d="M8 46h28v2H8zm0 4h28v2H8z" opacity=".4"/></svg>