<svg xmlns="http://www.w3.org/2000/svg" fill-rule="evenodd" stroke-linejoin="round" stroke-miterlimit="1.414" clip-rule="evenodd" viewBox="0 0 24 24"><path fill="#00bcd4" d="M20 18H4V8h16m0-2h-8l-2-2H4c-1.11 0-2 .89-2 2v12a2 2 0 0 0 2 2h16a2 2 0 0 0 2-2V8a2 2 0 0 0-2-2" data-folderColor="Cubit"/><path fill="#b2ebf2" d="m15.384 19.228-1.963-1.183v-2.35l1.963 1.137zm-3.859-5.087 4.064-2.45 4.057 2.446 2.277-1.318L15.589 9l-6.34 3.823zm6.063 1.188-2-1.206-2.005 1.21 1.999 1.157zm2.285-.867v4.739l-4.094 2.468v2.691l6.421-3.858v-7.374zm-4.489 7.199-4.08-2.46V14.47L9 13.136v7.366l6.384 3.85zm2.373-5.974-1.978 1.145v2.405l1.978-1.192z" data-folderIconColor="Cubit"/></svg>