<svg xmlns="http://www.w3.org/2000/svg" xml:space="preserve" fill-rule="evenodd" stroke-linejoin="round" stroke-miterlimit="1.414" clip-rule="evenodd" viewBox="0 0 24 24"><path fill="#ff5252" d="M20 18H4V8h16m0-2h-8l-2-2H4c-1.11 0-2 .89-2 2v12a2 2 0 0 0 2 2h16a2 2 0 0 0 2-2V8a2 2 0 0 0-2-2" data-folderColor="Private"/><path fill="#ffcdd2" d="M17.249 9.26a5.945 5.945 0 0 0-5.943 5.944 5.945 5.945 0 0 0 5.943 5.943 5.945 5.945 0 0 0 5.943-5.943A5.945 5.945 0 0 0 17.25 9.26m0 10.698a4.753 4.753 0 0 1-4.754-4.755c0-1.1.374-2.11 1.004-2.912l6.662 6.662a4.7 4.7 0 0 1-2.912 1.005M21 18.115l-6.662-6.662a4.7 4.7 0 0 1 2.912-1.005 4.753 4.753 0 0 1 4.754 4.755c0 1.1-.374 2.11-1.004 2.912" data-folderIconColor="Private"/></svg>