<svg xmlns="http://www.w3.org/2000/svg" fill-rule="evenodd" stroke-linejoin="round" stroke-miterlimit="1.414" clip-rule="evenodd" viewBox="0 0 24 24"><path fill="#d81b60" d="M20 18H4V8h16m0-2h-8l-2-2H4c-1.11 0-2 .89-2 2v12a2 2 0 0 0 2 2h16a2 2 0 0 0 2-2V8a2 2 0 0 0-2-2" data-folderColor="Jest"/><path fill="#f8bbd0" d="M16.36 14.993 14.77 10.3h6.755l-1.595 4.706a2 2 0 0 0-.202.063l-1.577-3.216-1.58 3.197a2 2 0 0 0-.212-.057m-5.196 7.682c2.125 1.492 4.482-1.396 7.693-1.76 1.843-.109 3.096-1.238 2.382-2.985-1.327.818-2.568-.254-2.56-1.329H17.67c-.033.96-.755 1.715-1.875 1.603-.876 1.31-1.891 2.047-3.043 2.421-.779-.36-1.512-1.234-1.18-2.404a1.6 1.6 0 0 1-.42-.105c-1.072 2-1.204 3.58.01 4.559m1.582-6.074a.99.99 0 1 0-1.981 0 .99.99 0 0 0 1.98 0m8.555-.01" data-folderIconColor="Jest"/></svg>