<svg xmlns="http://www.w3.org/2000/svg" viewBox="0 0 64 64"><rect width="56" height="36" x="4" y="22" opacity=".2" rx="2.8" ry="2.8"/><path fill="#4d646f" d="M4 46.2C4 47.751 5.249 49 6.8 49h50.4c1.551 0 2.8-1.249 2.8-2.8V15.8c0-1.551-1.249-2.8-2.8-2.8H32c-4.2 0-5.6-6-9.8-6H6.8A2.794 2.794 0 0 0 4 9.8"/><rect width="56" height="36" x="4" y="20" opacity=".2" rx="2.8" ry="2.8"/><rect width="48" height="22" x="8" y="16" fill="#e4e4e4" rx="2.8" ry="2.8"/><rect width="56" height="36" x="4" y="21" fill="#607d8b" rx="2.8" ry="2.8"/><path fill="#fff" d="M6.8 7C5.25 7 4 8.25 4 9.8v1.001A2.795 2.795 0 0 1 6.8 8h15.4c4.2 0 5.601 6 9.801 6H57.2a2.796 2.796 0 0 1 2.8 2.801v-1A2.796 2.796 0 0 0 57.199 13H32c-4.2 0-5.601-6-9.801-6Z" opacity=".1"/><path fill="#222c31" d="M33 31a6 6 0 0 0-5.527 3.668c-.75-.43-1.6-.666-2.473-.668a5 5 0 0 0-5 5q.004.507.11 1.004L20 40a4 4 0 0 0 0 8 4 4 0 0 0 2.164-.643q-.076-.315-.117-.642l-.004-.033A6 6 0 0 1 22 46c0-2.702 1.862-4.92 4.338-5.66.049-.192.126-.371.19-.557l.001-.01c.01-.03.015-.06.026-.09q.01-.026.023-.052l.004-.008q.172-.466.402-.898l.004-.01.002-.004.002-.002C28.155 36.526 30.366 35 33 35h.002c2.428.001 4.594 1.291 5.855 3.266A6 6 0 0 0 39 37a6 6 0 0 0-6-6m0 6a5 5 0 0 0-5 5 4 4 0 0 0 0 8h17a3 3 0 0 0 0-6 3 3 0 0 0-1.008.18q.006-.09.008-.18a4 4 0 0 0-6.187-3.348A5 5 0 0 0 33 37"/></svg>