<svg xmlns="http://www.w3.org/2000/svg" xml:space="preserve" fill-rule="evenodd" stroke-linejoin="round" stroke-miterlimit="1.414" clip-rule="evenodd" viewBox="0 0 24 24"><path fill="#ac7b69" fill-rule="nonzero" d="M10 4H4c-1.11 0-2 .89-2 2v12c0 1.097.903 2 2 2h16c1.097 0 2-.903 2-2V8a2 2 0 0 0-2-2h-8z" data-folderColor="Meteor"/><path fill="#efebe9" d="m8.4 8.55 13.154 13.933s.448.316.791-.052.08-.738.08-.738zm4.165 1.317 10.017 10.799s.448.316.791-.053.08-.737.08-.737zm-2.926 2.818 10.017 10.8s.448.315.791-.053.08-.738.08-.738zM16.086 11l6.999 7.544s.313.22.552-.037.055-.515.055-.515zm-5.483 4.951 6.998 7.545s.314.22.553-.037.055-.515.055-.515zm9.08-3.319 3.172 3.43s.154.104.273-.017.027-.241.027-.241zm-7.329 6.796 3.172 3.43s.155.103.273-.017.028-.242.028-.242z" data-folderIconColor="Meteor"/></svg>