<svg xmlns="http://www.w3.org/2000/svg" xmlns:xlink="http://www.w3.org/1999/xlink" viewBox="0 0 128 128"><defs><filter id="a" width="128.6%" height="133.3%" x="-14.3%" y="-16.7%" filterUnits="objectBoundingBox"><feOffset dy="2" in="SourceAlpha" result="shadowOffsetOuter1"/><feGaussianBlur in="shadowOffsetOuter1" result="shadowBlurOuter1" stdDeviation="3"/><feColorMatrix in="shadowBlurOuter1" result="shadowMatrixOuter1" values="0 0 0 0 0 0 0 0 0 0 0 0 0 0 0 0 0 0 0.2 0"/><feMerge><feMergeNode in="shadowMatrixOuter1"/><feMergeNode in="SourceGraphic"/></feMerge></filter><filter id="c" width="101.8%" height="102.1%" x="-.9%" y="-1%" filterUnits="objectBoundingBox"><feOffset dy="2" in="SourceAlpha" result="shadowOffsetInner1"/><feComposite in="shadowOffsetInner1" in2="SourceAlpha" k2="-1" k3="1" operator="arithmetic" result="shadowInnerInner1"/><feColorMatrix in="shadowInnerInner1" values="0 0 0 0 1 0 0 0 0 1 0 0 0 0 1 0 0 0 0.5 0"/></filter><filter id="g" width="101.8%" height="102.7%" x="-.9%" y="-1.4%" filterUnits="objectBoundingBox"><feOffset dy="2" in="SourceAlpha" result="shadowOffsetInner1"/><feComposite in="shadowOffsetInner1" in2="SourceAlpha" k2="-1" k3="1" operator="arithmetic" result="shadowInnerInner1"/><feColorMatrix in="shadowInnerInner1" values="0 0 0 0 1 0 0 0 0 1 0 0 0 0 1 0 0 0 0.5 0"/></filter><path id="b" d="M63 6a9.75 9.75 0 0 0 9 6h36a4 4 0 0 1 4 4v76a4 4 0 0 1-4 4H4a4 4 0 0 1-4-4V4a4 4 0 0 1 4-4h50a9.75 9.75 0 0 1 9 6"/><path id="d" d="M0 0h112v69a4 4 0 0 1-4 4H4a4 4 0 0 1-4-4z"/><radialGradient id="e" cx="50%" cy="0%" r="116.795%" fx="50%" fy="0%" gradientTransform="matrix(.06172 .9955 -.64886 .0947 .47 -.498)"><stop offset="0%" stop-color="#d8eaff"/><stop offset="100%" stop-color="#a1c8e7"/></radialGradient></defs><g fill="none" fill-rule="evenodd"><g filter="url(#a)" transform="translate(8 22)"><use xlink:href="#b" fill="#a3c6eb"/><use xlink:href="#b" fill="#000" filter="url(#c)"/><path stroke="#5c889c" stroke-linejoin="square" d="M54 .5a9.24 9.24 0 0 1 5.131 1.554 9.24 9.24 0 0 1 3.407 4.138 10.24 10.24 0 0 0 3.776 4.587A10.24 10.24 0 0 0 72 12.5h36c.966 0 1.841.392 2.475 1.025A3.5 3.5 0 0 1 111.5 16v76c0 .966-.392 1.841-1.025 2.475A3.5 3.5 0 0 1 108 95.5H4a3.5 3.5 0 0 1-2.475-1.025A3.5 3.5 0 0 1 .5 92V4c0-.966.392-1.841 1.025-2.475A3.5 3.5 0 0 1 4 .5Z"/><path fill="#fff" stroke="#5c889c" d="M103 16.5c.966 0 1.841.392 2.475 1.025A3.5 3.5 0 0 1 106.5 20v34c0 .966-.392 1.841-1.025 2.475A3.5 3.5 0 0 1 103 57.5H9a3.5 3.5 0 0 1-2.475-1.025A3.5 3.5 0 0 1 5.5 54V20c0-.966.392-1.841 1.025-2.475A3.5 3.5 0 0 1 9 16.5Z"/><g transform="translate(0 23)"><use xlink:href="#d" fill="url(#e)"/><use xlink:href="#d" fill="#000" filter="url(#g)"/><path stroke="#5c819c" stroke-linejoin="square" d="M111.5.5V69c0 .966-.392 1.841-1.025 2.475A3.5 3.5 0 0 1 108 72.5H4a3.5 3.5 0 0 1-2.475-1.025A3.5 3.5 0 0 1 .5 69V.5z"/></g></g><g transform="translate(39.951 56.964)"><path fill="#2a4052" fill-opacity=".4" stroke="#3e6f84" d="M24.5.5a23.93 23.93 0 0 1 16.97 7.03A23.93 23.93 0 0 1 48.5 24.5a23.93 23.93 0 0 1-7.03 16.97A23.93 23.93 0 0 1 24.5 48.5a23.93 23.93 0 0 1-16.97-7.03A23.93 23.93 0 0 1 .5 24.5 23.93 23.93 0 0 1 7.53 7.53 23.93 23.93 0 0 1 24.5.5Zm0 7.5a16.45 16.45 0 0 0-11.667 4.833A16.45 16.45 0 0 0 8 24.5c0 4.556 1.847 8.681 4.833 11.667A16.45 16.45 0 0 0 24.5 41c4.556 0 8.681-1.847 11.667-4.833A16.45 16.45 0 0 0 41 24.5c0-4.556-1.847-8.681-4.833-11.667A16.45 16.45 0 0 0 24.5 8Z"/><path stroke="#3e6f84" stroke-width=".5" d="M24.5 2.75a21.68 21.68 0 0 1 15.38 6.37 21.68 21.68 0 0 1 6.37 15.38 21.68 21.68 0 0 1-6.37 15.38 21.68 21.68 0 0 1-15.38 6.37 21.68 21.68 0 0 1-15.38-6.37A21.68 21.68 0 0 1 2.75 24.5 21.68 21.68 0 0 1 9.12 9.12 21.68 21.68 0 0 1 24.5 2.75Z"/><path stroke="#3e6f84" stroke-width=".5" d="M24.5 1.25c6.42 0 12.233 2.602 16.44 6.81a23.18 23.18 0 0 1 6.81 16.44c0 6.42-2.602 12.233-6.81 16.44a23.18 23.18 0 0 1-16.44 6.81 23.18 23.18 0 0 1-16.44-6.81A23.18 23.18 0 0 1 1.25 24.5c0-6.42 2.602-12.233 6.81-16.44A23.18 23.18 0 0 1 24.5 1.25Z"/><path stroke="#3e6f84" stroke-width=".5" d="M24.5 5.75a18.7 18.7 0 0 1 13.258 5.492A18.7 18.7 0 0 1 43.25 24.5a18.7 18.7 0 0 1-5.492 13.258A18.7 18.7 0 0 1 24.5 43.25a18.7 18.7 0 0 1-13.258-5.492A18.7 18.7 0 0 1 5.75 24.5a18.7 18.7 0 0 1 5.492-13.258A18.7 18.7 0 0 1 24.5 5.75Z"/><path stroke="#3e6f84" stroke-width=".5" d="M24.5 4.25a20.2 20.2 0 0 1 14.319 5.931A20.2 20.2 0 0 1 44.75 24.5a20.2 20.2 0 0 1-5.931 14.319A20.2 20.2 0 0 1 24.5 44.75a20.2 20.2 0 0 1-14.319-5.931A20.2 20.2 0 0 1 4.25 24.5a20.2 20.2 0 0 1 5.931-14.319A20.2 20.2 0 0 1 24.5 4.25Z"/><circle cx="24.5" cy="24.5" r="17.25" stroke="#0070dd" stroke-opacity=".15" stroke-width=".5"/><path fill="#2a4052" fill-opacity=".4" d="M24.5 10.5c7.732 0 14 6.268 14 14s-6.268 14-14 14-14-6.268-14-14 6.268-14 14-14m6.462 7.523a1.976 1.976 0 0 0-2.325-1.55l-6.049 1.21A1.976 1.976 0 0 0 21 19.62l.001 9.38A2.5 2.5 0 1 0 22 31v-9.953a.66.66 0 0 1 .537-.648l6.683-1.253a.66.66 0 0 1 .78.648l.001 6.707a2.5 2.5 0 1 0 .999 2V18.409q0-.196-.038-.387"/><path fill="#3e6f84" fill-rule="nonzero" d="M24.5 10.5c7.732 0 14 6.268 14 14s-6.268 14-14 14-14-6.268-14-14 6.268-14 14-14m0 1c-7.18 0-13 5.82-13 13s5.82 13 13 13 13-5.82 13-13-5.82-13-13-13"/><path fill="#3e6f84" fill-rule="nonzero" d="m22.392 16.702-.171.04A2.976 2.976 0 0 0 20 19.62v7.916l-.044-.006q-.225-.03-.456-.03a3.5 3.5 0 0 0 0 7l.192-.005A3.5 3.5 0 0 0 23 31v-9.67l6-1.125v4.831l-.044-.006Q28.73 25 28.5 25a3.5 3.5 0 1 0 3.5 3.5V18.41a2.976 2.976 0 0 0-3.56-2.918zm8.57 1.32q.038.192.038.388V28.5a2.5 2.5 0 1 1-.999-2L30 19.795a.66.66 0 0 0-.78-.648L22.537 20.4a.66.66 0 0 0-.537.648V31a2.5 2.5 0 1 1-.999-2L21 19.62c0-.942.665-1.753 1.588-1.938l6.049-1.21a1.976 1.976 0 0 1 2.325 1.55"/></g></g></svg>