<svg xmlns="http://www.w3.org/2000/svg" xml:space="preserve" fill-rule="evenodd" stroke-linejoin="round" stroke-miterlimit="1.414" clip-rule="evenodd" viewBox="0 0 24 24"><path fill="#607d8b" fill-rule="nonzero" d="M10 4H4c-1.11 0-2 .89-2 2v12c0 1.097.903 2 2 2h16c1.097 0 2-.903 2-2V8a2 2 0 0 0-2-2h-8z" data-folderColor="Husky"/><path fill="#eceff1" d="M21.2 18c-.012.47-.92.796-.55 1.262.815.115.445.655.891.839-.79 1.285-2.063 1.445-3.275.64a1.44 1.44 0 0 0-1.074-.211c-.185.297.09.331.266.374.85.17 1.711 1.486 4.593.232.385-.161.326-.637.16-1.011.319-.136.339-.491.386-.947.313-1.028-.716-.94-1.397-1.178m-4.531-2.233a3.9 3.9 0 0 0-1.212.506c.483.284.674.622 1.211.516s.527-.45.316-.853a.32.32 0 0 0-.316-.17M18.937 9c-.656.03-1.22 1.787-1.889 3.033-1.923.8-2.404-.238-3.032-.067-1.07-2.18-2.658-4.366-3.087-1.766.095 1.963-.689 2.125-.62 4.927 0 0-1.4 2.812-.827 5.302A3.32 3.32 0 0 0 12.246 23c.1-.717 1.225-2.335.917-2.713-.77-.942-.528-3.25 1.42-3.488.266-1.941 1.586-1.576 1.45-2.137-.424-1.76 1.402-.939 1.709-.362.55.914.938 1.813 1.388 2.238a4.7 4.7 0 0 0 1.395.855c-.163-.1-1.563-1.287-1.973-2.238a6.3 6.3 0 0 1-.222-1.862c.711-.111.997 1.084 1.769 2.169a.22.22 0 0 1 0 .193c-.106-.056-.143-.197-.271-.214-.117 0-.21.165-.21.368s.153.277.364.372a1.78 1.78 0 0 0 .896.839l-.95-2.78c-.035-1.74.15-3.481-.859-5.222A.4.4 0 0 0 18.937 9m.009.555c.052 0 .1.035.144.116.527.989.546 3.312.542 4.134-.25-.57-.624-1.526-1.805-1.818 0 0 .69-2.424 1.119-2.432m-7.074.221c.24 0 .513.14.829.717.506.923.869 1.537 1.046 1.857.36.65-.158.136-.321 1.806a.79.79 0 0 1-.4.655 5.4 5.4 0 0 1-1.158-2.535c-.505.75.326 1.907.34 2.897a2.13 2.13 0 0 1-1.13.014c-.26-.13-.345-1.715.137-2.945.4-1.026.21-2.329.388-2.386.123-.039.124-.079.269-.08" data-folderIconColor="Husky"/></svg>