<svg xmlns="http://www.w3.org/2000/svg" xml:space="preserve" fill-rule="evenodd" stroke-linejoin="round" stroke-miterlimit="1.414" clip-rule="evenodd" viewBox="0 0 24 24"><path fill="#f9a825" fill-rule="nonzero" d="M10 4H4c-1.11 0-2 .89-2 2v12c0 1.097.903 2 2 2h16c1.097 0 2-.903 2-2V8a2 2 0 0 0-2-2h-8z" data-folderColor="Composer"/><path fill="#ffecb3" d="M22.477 21.459c-.043-.069.056-.558.146-.733.052-.103.12-.343.15-.532.125-.745.279-1.35.45-1.76.365-.862.399-.99.343-1.23a.9.9 0 0 1-.026-.339.54.54 0 0 0-.017-.236c-.03-.081-.03-.133.005-.171.038-.052.012-.107-.133-.279-.1-.115-.176-.218-.168-.222.009-.009.086-.043.168-.077l.15-.07.043-.586c.025-.321.038-.583.038-.583-.004 0-.192.056-.424.129a5 5 0 0 1-.471.129c-.06 0-.116-.112-.3-.626-.12-.326-.142-.429-.12-.643.025-.295-.078-.976-.206-1.358-.172-.514-.54-1.347-.717-1.425-.15-.073-.257-.055-.312.043-.056.107-.052.12.15.587l.154.36-.265-.21c-.596-.463-1.17-.776-1.496-.814-.206-.026-.214-.022-.261.107-.03.073-.086.141-.129.15-.056.017-.077.064-.077.184 0 .15.034.193.441.582.24.227.42.416.403.42a2.5 2.5 0 0 1-.364-.222c-.27-.18-.364-.223-.519-.227-.36 0-.35.248.018.51.128.094.385.321.565.51l.335.343-.3.051c-.472.086-.66.146-.707.24-.09.167-.035.214.463.377.265.09.523.201.578.249.172.158.391.285.622.362q.227.072.274.172a.34.34 0 0 0 .146.145c.069.03.12.112.172.283.039.133.06.253.047.266a4 4 0 0 1-.39.133l-.368.116.312.556c.287.519.317.558.429.545.142-.013.142-.013.021.188l-.094.16.099.18q.095.187.068.278c-.025.081-.043.069-.128-.116a3 3 0 0 0-.6-.793c-.317-.257-.45-.308-.861-.312l-.386-.01-.201-.192a2 2 0 0 0-.446-.317c-.236-.116-.278-.125-.784-.125h-.536l-.407.214c-.523.27-1.063.802-1.401 1.372-.125.21-.227.36-.227.338l-.039-.218c-.034-.176-.034-.18.095-.193.124-.013.133-.026.222-.399.052-.214.107-.429.125-.476.025-.086 0-.098-.36-.189-.292-.072-.386-.111-.386-.167 0-.133.124-.527.184-.6a.4.4 0 0 0 .082-.154c.008-.047.098-.133.21-.193.3-.163.316-.184.63-.789.226-.441.35-.63.594-.891.172-.184.313-.351.313-.369 0-.072-.176-.265-.24-.265l1.685-1.194-.19-.223s-2.403 1.673-2.416 1.673-.064-.128-.115-.282l-.09-.279.295-.278c.313-.296.381-.411.3-.51-.039-.047-.116-.026-.442.133-.218.107-.553.24-.75.304-.33.103-.36.103-.432.039-.18-.163-.296-.065-.742.625-.09.137-.175.248-.192.248-.022 0-.129-.167-.244-.377a5 5 0 0 0-.296-.471c-.116-.125-.227-.12-.261.008-.043.172.15.956.459 1.903.098.296.103.313.03.351-.07.035-.073.06-.03.172.034.094.068.12.124.103.064-.017.103.03.201.253.125.274.125.278.056.527-.039.141-.069.257-.073.261 0 .004-.107-.017-.236-.051-.39-.103-.364-.133-.42.501-.03.313-.051.6-.051.638 0 .052.056.082.197.103l.197.026-.03.257c-.026.206-.017.274.038.334.073.078.095.545.108 2.22l.004.604.163.051c.202.069.308.16.308.274 0 .056.069.138.184.219.1.068.476.343.832.608.39.288.547.407.599.479.848.593 2.658 1.638 2.658 1.638l-.073.159c-.116.235-.309.904-.279.951l1.86-1.15z" data-folderIconColor="Composer"/></svg>