<svg xmlns="http://www.w3.org/2000/svg" fill-rule="evenodd" stroke-linejoin="round" stroke-miterlimit="1.414" clip-rule="evenodd" viewBox="0 0 24 24"><path fill="#5c6bc0" d="M20 18H4V8h16m0-2h-8l-2-2H4c-1.11 0-2 .89-2 2v12a2 2 0 0 0 2 2h16a2 2 0 0 0 2-2V8a2 2 0 0 0-2-2" data-folderColor="Packages"/><path fill="#c5cae9" d="m22.857 12.037-.888-1.073a.96.96 0 0 0-.742-.345h-7.666a.93.93 0 0 0-.735.351l-.888 1.067a1.27 1.27 0 0 0-.294.818v7.986c0 .703.569 1.278 1.278 1.278h8.944c.703 0 1.278-.575 1.278-1.278v-7.986c0-.313-.109-.594-.287-.818m-5.463 2.734 3.514 3.514h-2.236v1.278h-2.556v-1.278H13.88zM13 11.896l.523-.638h7.667l.594.638z" data-folderIconColor="Packages"/></svg>