<svg xmlns="http://www.w3.org/2000/svg" xmlns:xlink="http://www.w3.org/1999/xlink" viewBox="0 0 128 128"><defs><filter id="a" width="128.6%" height="133.3%" x="-14.3%" y="-16.7%" filterUnits="objectBoundingBox"><feOffset dy="2" in="SourceAlpha" result="shadowOffsetOuter1"/><feGaussianBlur in="shadowOffsetOuter1" result="shadowBlurOuter1" stdDeviation="3"/><feColorMatrix in="shadowBlurOuter1" result="shadowMatrixOuter1" values="0 0 0 0 0 0 0 0 0 0 0 0 0 0 0 0 0 0 0.2 0"/><feMerge><feMergeNode in="shadowMatrixOuter1"/><feMergeNode in="SourceGraphic"/></feMerge></filter><filter id="c" width="101.8%" height="102.1%" x="-.9%" y="-1%" filterUnits="objectBoundingBox"><feOffset dy="2" in="SourceAlpha" result="shadowOffsetInner1"/><feComposite in="shadowOffsetInner1" in2="SourceAlpha" k2="-1" k3="1" operator="arithmetic" result="shadowInnerInner1"/><feColorMatrix in="shadowInnerInner1" values="0 0 0 0 1 0 0 0 0 1 0 0 0 0 1 0 0 0 0.5 0"/></filter><filter id="g" width="101.8%" height="102.7%" x="-.9%" y="-1.4%" filterUnits="objectBoundingBox"><feOffset dy="2" in="SourceAlpha" result="shadowOffsetInner1"/><feComposite in="shadowOffsetInner1" in2="SourceAlpha" k2="-1" k3="1" operator="arithmetic" result="shadowInnerInner1"/><feColorMatrix in="shadowInnerInner1" values="0 0 0 0 1 0 0 0 0 1 0 0 0 0 1 0 0 0 0.5 0"/></filter><path id="b" d="M63 6a9.75 9.75 0 0 0 9 6h36a4 4 0 0 1 4 4v76a4 4 0 0 1-4 4H4a4 4 0 0 1-4-4V4a4 4 0 0 1 4-4h50a9.75 9.75 0 0 1 9 6"/><path id="d" d="M0 0h112v69a4 4 0 0 1-4 4H4a4 4 0 0 1-4-4z"/><radialGradient id="f" cx="50%" cy="0%" r="116.795%" fx="50%" fy="0%" gradientTransform="matrix(.06172 .9955 -.64886 .0947 .47 -.498)"><stop offset="0%" stop-color="#d8fff0"/><stop offset="100%" stop-color="#8cd3b2"/></radialGradient></defs><g fill="none" fill-rule="evenodd"><g filter="url(#a)" transform="translate(8 22)"><use xlink:href="#b" fill="#85d3b5"/><use xlink:href="#b" fill="#000" filter="url(#c)"/><path stroke="#548f6b" stroke-linejoin="square" d="M54 .5a9.24 9.24 0 0 1 5.131 1.554 9.24 9.24 0 0 1 3.407 4.138 10.24 10.24 0 0 0 3.776 4.587A10.24 10.24 0 0 0 72 12.5h36c.966 0 1.841.392 2.475 1.025A3.5 3.5 0 0 1 111.5 16v76c0 .966-.392 1.841-1.025 2.475A3.5 3.5 0 0 1 108 95.5H4a3.5 3.5 0 0 1-2.475-1.025A3.5 3.5 0 0 1 .5 92V4c0-.966.392-1.841 1.025-2.475A3.5 3.5 0 0 1 4 .5Z"/><path fill="#fff" stroke="#548f6b" d="M103 16.5c.966 0 1.841.392 2.475 1.025A3.5 3.5 0 0 1 106.5 20v34c0 .966-.392 1.841-1.025 2.475A3.5 3.5 0 0 1 103 57.5H9a3.5 3.5 0 0 1-2.475-1.025A3.5 3.5 0 0 1 5.5 54V20c0-.966.392-1.841 1.025-2.475A3.5 3.5 0 0 1 9 16.5Z"/><g transform="translate(0 23)"><use xlink:href="#d" fill="url(#f)"/><use xlink:href="#d" fill="#000" filter="url(#g)"/><path stroke="#498a6c" stroke-linejoin="square" d="M111.5.5V69c0 .966-.392 1.841-1.025 2.475A3.5 3.5 0 0 1 108 72.5H4a3.5 3.5 0 0 1-2.475-1.025A3.5 3.5 0 0 1 .5 69V.5z"/></g></g><g stroke="#357650"><path fill="#003d21" fill-opacity=".337" d="M40.735 74a8.97 8.97 0 0 1 6.364 2.636A8.97 8.97 0 0 1 49.735 83c0 2.749-1.133 5.544-2.86 7.635-1.65 1.997-3.849 3.365-6.14 3.365s-4.49-1.368-6.14-3.365c-1.727-2.091-2.86-4.886-2.86-7.635a8.97 8.97 0 0 1 2.636-6.364A8.97 8.97 0 0 1 40.735 74ZM87.5 70a8.97 8.97 0 0 1 6.364 2.636A8.97 8.97 0 0 1 96.5 79c0 2.749-1.133 5.544-2.86 7.635C91.99 88.632 89.79 90 87.5 90s-4.49-1.368-6.14-3.365C79.633 84.544 78.5 81.749 78.5 79a8.97 8.97 0 0 1 2.636-6.364A8.97 8.97 0 0 1 87.5 70Zm-26-12a8.97 8.97 0 0 1 6.364 2.636A8.97 8.97 0 0 1 70.5 67c0 2.749-1.133 5.544-2.86 7.635C65.99 76.632 63.79 78 61.5 78s-4.49-1.368-6.14-3.365C53.633 72.544 52.5 69.749 52.5 67a8.97 8.97 0 0 1 2.636-6.364A8.97 8.97 0 0 1 61.5 58Z"/><path stroke-linecap="round" d="M61.5 81c0 15.714.502 23.933 1.235 33.307M89.5 93c0 11.724-2.123 10.64-1.994 17.634M39.5 97c0 9.065 6.368 8.226 5.983 13.634"/></g></g></svg>