<svg xmlns="http://www.w3.org/2000/svg" xml:space="preserve" fill-rule="evenodd" stroke-linejoin="round" stroke-miterlimit="1.414" clip-rule="evenodd" viewBox="0 0 24 24"><path fill="#93254a" d="M20 18H4V8h16m0-2h-8l-2-2H4c-1.11 0-2 .89-2 2v12a2 2 0 0 0 2 2h16a2 2 0 0 0 2-2V8a2 2 0 0 0-2-2" data-folderColor="Wine"/><path fill="#f13c6f" d="M13.2 10.462c.411-1.295 4.523-1.912 5.12-1.09 0 0 2.832 6.005.478 9.406-.24.935.4 3.691 1.042 3.65.643-.042 1.654-.217 2.3.202.44.286-.479 1.078-2.649 1.483-2.907.542-3.89.1-3.386-.454.273-.301 1.662-.676 1.865-.893.575-.617.043-3.256-.697-3.729-3-1.186-4.073-8.575-4.073-8.575m4.799 8.194c2.463-1.586.532-7.556.532-7.556-1.7-1.073-1.074 3.418-4.422 1.534 0 0 1.018 5.252 3.89 6.022" data-folderIconColor="Wine"/></svg>