<svg xmlns="http://www.w3.org/2000/svg" fill="none" viewBox="0 0 24 24"><path fill="#4caf50" d="M20 18H4V8h16m0-2h-8l-2-2H4c-1.11 0-2 .89-2 2v12a2 2 0 0 0 2 2h16a2 2 0 0 0 2-2V8a2 2 0 0 0-2-2" data-folderColor="Playwright"/><path fill="#a5d6a7" d="M15.358 19.46v-.896l-2.489.706s.184-1.068 1.482-1.437a2.16 2.16 0 0 1 1.007-.057v-3.674h1.246a7.5 7.5 0 0 0-.377-.966c-.183-.37-.37-.125-.794.23-.299.25-1.054.783-2.19 1.089-1.137.306-2.056.225-2.44.158-.544-.093-.828-.213-.801.201.023.364.11.93.308 1.676.431 1.618 1.854 4.734 4.543 4.01.702-.19 1.198-.563 1.541-1.04zm-4.015-2.947 1.91-.504s-.056.735-.772.924-1.139-.42-1.139-.42Z" data-folderIconColor="Playwright"/><path fill="#a5d6a7" d="M22.55 14.145c-.498.087-1.69.195-3.162-.2-1.473-.394-2.45-1.084-2.838-1.408-.548-.46-.79-.78-1.027-.296-.21.426-.48 1.12-.74 2.091-.562 2.104-.984 6.541 2.5 7.475 3.482.933 5.336-3.121 5.9-5.224.26-.971.373-1.706.405-2.18.036-.538-.333-.382-1.039-.258Zm-6.999 1.74s.549-.854 1.48-.59c.931.265 1.003 1.295 1.003 1.295zm2.272 3.831c-1.637-.48-1.89-1.786-1.89-1.786l4.4 1.23s-.888 1.03-2.51.556m1.556-2.684s.548-.853 1.479-.588c.93.265 1.004 1.295 1.004 1.295z" data-folderIconColor="Playwright"/></svg>