<svg xmlns="http://www.w3.org/2000/svg" xml:space="preserve" fill-rule="evenodd" stroke-linejoin="round" stroke-miterlimit="1.414" clip-rule="evenodd" viewBox="0 0 24 24"><path fill="#42a5f5" fill-rule="nonzero" d="M10 4H4c-1.11 0-2 .89-2 2v12c0 1.097.903 2 2 2h16c1.097 0 2-.903 2-2V8a2 2 0 0 0-2-2h-8z" data-folderColor="Appstore"/><path fill="#bbdefb" d="m14.37 15.517 1.15-2.004a.316.316 0 0 0-.115-.43l-.818-.468a.314.314 0 0 0-.429.115l-3.79 6.6a.313.313 0 0 0 .116.428l.818.47c.15.086.343.034.43-.115zm7.714-.602h-2.762c.325.61.627 1.182.839 1.588.146.28.262.502.304.576q.064.118.094.243h1.525a.284.284 0 0 0 .284-.284V15.2a.284.284 0 0 0-.284-.284zm-6.713 0-1.381 2.407h3.749a52 52 0 0 1-1.117-2.407zm-3.122 0H9.07a.284.284 0 0 0-.284.284v1.839c0 .156.128.283.284.283h1.797zm-1.214 5.674-.818-.47c-.15-.085-.288-.015-.308.157l-.142 1.232c-.02.171.081.232.224.135l1.057-.72c.143-.097.137-.248-.013-.334m8.932-3.236-.017-.031c-.076-.14-.266-.506-.517-.981l-.009-.018q-.027-.055-.058-.111l-.044-.082-.037-.072-.067-.127-.021-.04-.1-.189c-.576-1.09-1.3-2.431-1.746-3.136-.781-1.236-1.825-3.296-2.117-3.15-.408.204.856 2.819 1.273 3.801s2.05 4.748 2.377 4.913c.329.163.455.072.673-.018.219-.091.61-.393.41-.758zm.932 1.94-.39-.748a.347.347 0 0 0-.46-.154l-.47.242a.31.31 0 0 0-.116.448l.493.778a.354.354 0 0 0 .476.117l.336-.201a.37.37 0 0 0 .132-.483zm-.12 1.082c-.123.118-.414.373-.061.869.352.496 1.138.519 1.242.848 0 0 .247-2.522-1.18-1.717z" data-folderIconColor="Appstore"/></svg>