<svg xmlns="http://www.w3.org/2000/svg" xmlns:xlink="http://www.w3.org/1999/xlink" xml:space="preserve" viewBox="0 0 128 128"><defs><linearGradient id="a"><stop offset="0" stop-color="#fff"/><stop offset=".084" stop-color="#fff" stop-opacity=".235"/><stop offset=".951" stop-color="#fff" stop-opacity=".157"/><stop offset="1" stop-color="#fff" stop-opacity=".392"/></linearGradient><linearGradient id="e"><stop offset="0" stop-color="#fff"/><stop offset=".092" stop-color="#fff" stop-opacity=".235"/><stop offset=".951" stop-color="#fff" stop-opacity=".157"/><stop offset="1" stop-color="#fff" stop-opacity=".392"/></linearGradient><linearGradient xlink:href="#a" id="n" x1="9.465" x2="9.465" y1="5.695" y2="42.888" gradientTransform="matrix(2.73057 0 0 2.72973 -1.534 11.47)" gradientUnits="userSpaceOnUse"/><linearGradient id="c"><stop offset="0" stop-color="#fff"/><stop offset=".104" stop-color="#fff" stop-opacity=".235"/><stop offset=".896" stop-color="#fff" stop-opacity=".157"/><stop offset="1" stop-color="#fff" stop-opacity=".392"/></linearGradient><linearGradient id="d"><stop offset="0" stop-opacity=".318"/><stop offset="1" stop-opacity=".24"/></linearGradient><linearGradient xlink:href="#b" id="m" x1="74.839" x2="74.839" y1="4.536" y2="49.779" gradientTransform="matrix(2.60791 0 0 2.50827 -128.995 13.88)" gradientUnits="userSpaceOnUse"/><linearGradient id="b"><stop offset="0" stop-color="#f4f4f4"/><stop offset="1" stop-color="#dbdbdb"/></linearGradient><linearGradient xlink:href="#c" id="r" x1="24" x2="24" y1="5.754" y2="42.244" gradientTransform="matrix(2.72973 0 0 1.97297 -1.514 33.649)" gradientUnits="userSpaceOnUse"/><linearGradient xlink:href="#d" id="p" x1="225.287" x2="225.287" y1="103.372" y2="-12.009" gradientTransform="matrix(.8075 0 0 .89472 -120.875 44.352)" gradientUnits="userSpaceOnUse"/><linearGradient xlink:href="#e" id="o" x1="36.753" x2="36.753" y1="8.629" y2="42.731" gradientTransform="matrix(2.73057 0 0 2.72973 -1.534 11.47)" gradientUnits="userSpaceOnUse"/><linearGradient xlink:href="#f" id="q" x1="87.027" x2="87.027" y1="-30.801" y2="141.496" gradientTransform="matrix(.50413 0 0 .4353 -7.512 56.908)" gradientUnits="userSpaceOnUse"/><linearGradient id="f"><stop offset="0" stop-color="#efdfc4"/><stop offset="1" stop-color="#e7c591"/></linearGradient><linearGradient id="h"><stop offset="0" stop-color="#181818"/><stop offset="1" stop-color="#181818" stop-opacity="0"/></linearGradient><linearGradient xlink:href="#g" id="l" x1="25.058" x2="25.058" y1="47.028" y2="39.999" gradientUnits="userSpaceOnUse"/><linearGradient id="g"><stop offset="0" stop-color="#181818" stop-opacity="0"/><stop offset=".5" stop-color="#181818"/><stop offset="1" stop-color="#181818" stop-opacity="0"/></linearGradient><radialGradient xlink:href="#h" id="j" cx="4.993" cy="43.5" r="2.5" fx="4.993" fy="43.5" gradientTransform="matrix(2.00378 0 0 1.4 27.988 -17.4)" gradientUnits="userSpaceOnUse"/><radialGradient xlink:href="#h" id="k" cx="4.993" cy="43.5" r="2.5" fx="4.993" fy="43.5" gradientTransform="matrix(2.00378 0 0 1.4 -20.012 -104.4)" gradientUnits="userSpaceOnUse"/></defs><g stroke-width=".791"><path fill="url(#j)" d="M38 40h5v7h-5z" opacity=".3" transform="matrix(2.8421 0 0 1.14286 -4.21 68.286)"/><path fill="url(#k)" d="M-10-47h5v7h-5z" opacity=".3" transform="matrix(-2.8421 0 0 -1.14286 -4.21 68.286)"/><path fill="url(#l)" d="M10 40h28v7H10z" opacity=".3" transform="matrix(2.8421 0 0 1.14286 -4.21 68.286)"/></g><path fill="url(#m)" d="M22.494 26A9.463 9.463 0 0 0 13 35.494V53h102v-9.506A9.463 9.463 0 0 0 105.506 34H61.473c-4.182 0-7.758-3.429-11.217-6.064A9.46 9.46 0 0 0 44.496 26Z" color="#000" overflow="visible" style="font-variation-settings:normal;-inkscape-stroke:none;marker:none"/><rect width="104" height="22" x="12" y="41" fill="#b6802e" fill-rule="evenodd" opacity=".05" paint-order="markers fill stroke" rx="12" ry="12"/><rect width="102" height="22" x="13" y="42" fill="#b6802e" fill-rule="evenodd" opacity=".1" paint-order="markers fill stroke" rx="11" ry="12"/><path fill="none" stroke="url(#n)" stroke-linecap="round" stroke-linejoin="round" d="M61.473 34.502c-4.466 0-8.109-3.563-11.534-6.172a8.94 8.94 0 0 0-5.449-1.83H22.48a8.936 8.936 0 0 0-8.98 8.978v15.696" color="#000" overflow="visible" style="font-variation-settings:normal;-inkscape-stroke:none;marker:none"/><path fill="none" stroke="url(#o)" stroke-linecap="round" stroke-linejoin="round" d="M114.469 51.174v-7.696a8.933 8.933 0 0 0-8.978-8.976H61.458" color="#000" overflow="visible" style="font-variation-settings:normal;-inkscape-stroke:none;marker:none"/><path fill="none" stroke="url(#p)" stroke-linejoin="round" d="M115.5 53v-9.5c0-5.54-4.46-10-10-10H61.473c-3.894 0-7.418-3.303-10.907-5.961A9.97 9.97 0 0 0 44.5 25.5h-22c-5.54 0-10 4.46-10 10V53" color="#000" overflow="visible" style="font-variation-settings:normal;-inkscape-stroke:none;marker:none"/><rect width="103" height="75" x="12.5" y="43.5" fill="url(#q)" stroke="#987124" stroke-opacity=".498" color="#000" overflow="visible" rx="10" ry="10" style="font-variation-settings:normal;-inkscape-stroke:none;marker:none"/><rect width="101" height="73" x="13.5" y="44.5" fill="none" stroke="url(#r)" stroke-linecap="round" stroke-linejoin="round" opacity=".5" rx="9" ry="9"/><path fill="#fff" d="M75 60a8 8 0 0 0-8 8c0 .601.124 1.187.25 1.75l-10.875 6.313A8 8 0 0 0 51 74a8 8 0 1 0 0 16c2.063 0 3.956-.78 5.375-2.062L67.25 94.25c-.126.563-.25 1.15-.25 1.75a8 8 0 1 0 8-8 8.02 8.02 0 0 0-5.25 1.938l-10.937-6.313c.106-.52.187-1.073.187-1.625s-.08-1.104-.187-1.625l10.937-6.312A8.02 8.02 0 0 0 75 76a8 8 0 1 0 0-16" color="#000" opacity=".3" overflow="visible" style="marker:none"/><path fill="#7e5514" fill-opacity=".971" d="M75 59a8 8 0 0 0-8 8c0 .6.124 1.187.25 1.75l-10.875 6.313A8 8 0 0 0 51 73a8 8 0 1 0 0 16c2.063 0 3.956-.78 5.375-2.062L67.25 93.25c-.126.563-.25 1.15-.25 1.75a8 8 0 1 0 8-8 8.02 8.02 0 0 0-5.25 1.938l-10.937-6.313c.106-.52.187-1.073.187-1.625s-.08-1.104-.187-1.625l10.937-6.312A8.02 8.02 0 0 0 75 75a8 8 0 1 0 0-16" color="#000" opacity=".6" overflow="visible" style="marker:none"/></svg>