<svg xmlns="http://www.w3.org/2000/svg" xmlns:xlink="http://www.w3.org/1999/xlink" viewBox="0 0 128 128"><defs><linearGradient id="e" x1="50%" x2="50%" y1="0%" y2="11.796%"><stop offset="0%" stop-color="#fff"/><stop offset="100%" stop-color="#cef5ff"/></linearGradient><linearGradient id="j" x1="66.942%" x2="46.177%" y1="57.383%" y2="40.193%"><stop offset="0%" stop-color="#5700fc"/><stop offset="100%" stop-color="#5867ff" stop-opacity="0"/></linearGradient><linearGradient id="k" x1="79.239%" x2="25.942%" y1="77.19%" y2="4.533%"><stop offset="0%" stop-color="#d1c0ff"/><stop offset="100%" stop-color="#8375ff"/></linearGradient><linearGradient id="l" x1="60.702%" x2="44.657%" y1="25.945%" y2="86.932%"><stop offset="0%" stop-color="#5c3fff"/><stop offset="100%" stop-color="#816aff" stop-opacity=".054"/></linearGradient><linearGradient id="m" x1="50%" x2="50%" y1="-22.147%" y2="100%"><stop offset="0%" stop-color="#b6a2ff"/><stop offset="100%" stop-color="#6249f0"/></linearGradient><linearGradient id="n" x1="50%" x2="50%" y1="0%" y2="392.791%"><stop offset="0%" stop-color="#fff" stop-opacity=".8"/><stop offset="100%" stop-color="#882aff" stop-opacity=".117"/></linearGradient><linearGradient id="o" x1="50%" x2="50%" y1="-22.147%" y2="100%"><stop offset="0%" stop-color="#caa2ff" stop-opacity=".3"/><stop offset="100%" stop-color="#6249f0"/></linearGradient><linearGradient id="p" x1="50%" x2="50%" y1="0%" y2="100%"><stop offset="0%" stop-color="#fff" stop-opacity=".1"/><stop offset="100%" stop-color="#c6b9ff"/></linearGradient><linearGradient id="q" x1="18.526%" x2="79.239%" y1="55.584%" y2="40.499%"><stop offset="0%" stop-color="#b9b7ff"/><stop offset="100%" stop-color="#8174ff"/></linearGradient><filter id="a" width="128.8%" height="133.3%" x="-14.4%" y="-16.7%" filterUnits="objectBoundingBox"><feOffset dy="2" in="SourceAlpha" result="shadowOffsetOuter1"/><feGaussianBlur in="shadowOffsetOuter1" result="shadowBlurOuter1" stdDeviation="3"/><feComposite in="shadowBlurOuter1" in2="SourceAlpha" operator="out" result="shadowBlurOuter1"/><feColorMatrix in="shadowBlurOuter1" result="shadowMatrixOuter1" values="0 0 0 0 0 0 0 0 0 0 0 0 0 0 0 0 0 0 0.2 0"/><feMerge><feMergeNode in="shadowMatrixOuter1"/><feMergeNode in="SourceGraphic"/></feMerge></filter><filter id="c" width="108.9%" height="121.7%" x="-4.5%" y="-10.8%" filterUnits="objectBoundingBox"><feOffset in="SourceAlpha" result="shadowOffsetOuter1"/><feGaussianBlur in="shadowOffsetOuter1" result="shadowBlurOuter1" stdDeviation="1.5"/><feColorMatrix in="shadowBlurOuter1" values="0 0 0 0 0 0 0 0 0 0 0 0 0 0 0 0 0 0 0.2 0"/></filter><filter id="f" width="106.9%" height="116.9%" x="-3.5%" y="-8.4%" filterUnits="objectBoundingBox"><feOffset dy="1" in="SourceAlpha" result="shadowOffsetInner1"/><feComposite in="shadowOffsetInner1" in2="SourceAlpha" k2="-1" k3="1" operator="arithmetic" result="shadowInnerInner1"/><feColorMatrix in="shadowInnerInner1" values="0 0 0 0 1 0 0 0 0 1 0 0 0 0 1 0 0 0 0.5 0"/></filter><radialGradient id="h" cx="50%" cy="0%" r="97.162%" fx="50%" fy="0%" gradientTransform="matrix(0 1 -.65766 0 .5 -.5)"><stop offset="0%" stop-color="#7859ff"/><stop offset="100%" stop-color="#5a2dff"/></radialGradient><rect id="b" width="101" height="41.5" x="5" y="16" rx="9"/><path id="g" d="M0 0h111v59c0 7.732-6.268 14-14 14H14C6.268 73 0 66.732 0 59z"/></defs><g fill="none" fill-rule="evenodd" filter="url(#a)" transform="translate(9 23)"><path fill="#4a00d5" d="M62 5.5a9.38 9.38 0 0 0 8.542 5.5H97c7.732 0 14 6.268 14 14v57c0 7.732-6.268 14-14 14H14C6.268 96 0 89.732 0 82V14C0 6.268 6.268 0 14 0h39.458c3.68 0 7.02 2.15 8.542 5.5"/><use xlink:href="#b" fill="#000" filter="url(#c)"/><use xlink:href="#b" fill="url(#e)"/><use xlink:href="#b" fill="#000" filter="url(#f)"/><g transform="translate(0 23)"><mask id="i" fill="#fff"><use xlink:href="#g"/></mask><use xlink:href="#g" fill="url(#h)"/><g mask="url(#i)"><path fill="url(#j)" d="m0 66 50.019 19.22 26.02-10L26.019 56z" transform="translate(5 -9)"/><path fill="url(#j)" d="m24 66 50.019 19.22 26.02-10L50.019 56z" transform="matrix(-1 0 0 1 129.039 -9)"/><path fill="url(#k)" d="M33.5 20v34l-26-10V24.756L26.333 32z" transform="translate(21.5 17)"/><path fill="url(#l)" d="m7.5 10 26 10-6 18-20-7.691z" opacity=".5" transform="translate(21.5 17)"/><path fill="url(#m)" d="m7.5 10 26 10-7.167 12-26-10z" transform="translate(21.5 17)"/><path fill="url(#n)" d="m7.5 10 26 10 26.019-10-26-10z" transform="translate(21.5 17)"/><path fill="url(#o)" d="m33.5 20 26.019-10-26-10z" transform="translate(21.5 17)"/><path stroke="url(#p)" d="M8.893 10 33.5 19.464 58.126 10 33.52.536z" transform="translate(21.5 17)"/><path fill="url(#q)" d="M59.5 24.756V44l-26 10V20l7.167 12z" transform="translate(21.5 17)"/><path fill="url(#l)" d="m33.5 10 26 10-6 18-20-7.691z" opacity=".5" transform="matrix(-1 0 0 1 114.5 17)"/><path fill="url(#m)" d="m40.667 10 26 10L59.5 32l-26-10z" transform="matrix(-1 0 0 1 121.667 17)"/><g transform="translate(9 -9)"><circle cx="58" cy="26" r="2" fill="#ffd506"/><circle cx="31" cy="23" r="1" fill="#ff00fe"/><circle cx="4" cy="20" r="2" fill="#4000e0"/><path fill="#4000e0" d="m41.562 10 3.682 1.562-1.562 3.682L40 13.682z"/><path fill="#eb5959" d="m82.148 32 1.841.781-.781 1.841-1.841-.781z"/><path fill="#4000e0" d="m49.414 36 1.414 1.414-1.414 1.414L48 37.414z"/><path fill="#ff00fe" d="m45.414 38 1.414 1.414-1.414 1.414L44 39.414z" opacity=".2"/><path fill="#8a0991" d="m41.414 40 1.414 1.414-1.414 1.414L40 41.414z"/><path fill="#ffd506" d="m47.414 42 1.414 1.414-1.414 1.414L46 43.414z"/><circle cx="49" cy="31" r="1" fill="#fff"/><circle cx="53" cy="39" r="1" fill="#6d39ff"/><circle cx="41" cy="39" r="1" fill="#fff"/><path fill="#8a0991" d="m49.414 20 1.414 1.414-1.414 1.414L48 21.414z"/><path fill="#fff" d="m43.903 31.999 1.236 3.804-1.902.618L42 32.617z" opacity=".6"/><path fill="#6d39ff" d="m55.414 18 1.414 1.414-1.414 1.414L54 19.414z"/><path fill="#4000e0" d="m23.414 22 1.414 1.414-1.414 1.414L22 23.414z"/><path fill="#9757ff" d="m37.414 24 1.414 1.414-1.414 1.414L36 25.414z"/><path fill="#ffd506" d="m23.414 18 1.414 1.414-1.414 1.414L22 19.414z"/><path fill="#7dac00" d="M67.414 23.172 70.242 26l-2.828 2.828L64.586 26z" opacity=".9"/><path fill="#8a0991" d="m65.414 20 1.414 1.414-1.414 1.414L64 21.414z"/><path fill="#00c894" d="m63.071 34 1.414 1.414-2.828 2.828-1.414-1.414z"/><path fill="#6d39ff" d="m32 37.172 1.414 1.414L32 40l-1.414-1.414z"/><path fill="#ff00fe" d="m40 35.172 1.414 1.414L40 38l-1.414-1.414z" opacity=".3"/><path fill="#fff" d="m58.728 37.374.484 1.94-1.94.484-.484-1.94z" opacity=".3"/><path fill="#9757ff" d="m54.828 32 2.828 2.828-2.828 2.828L52 34.828z"/><path fill="#00c894" d="m62.243 8 4.243 4.243-4.243 4.243L58 12.243z"/><path fill="#396eff" d="m80.067 0 9.135 4.067-4.067 9.135L76 9.135z"/><path fill="#88a1ff" d="M2.416 9.326 9.968 0l9.326 7.552-7.552 9.326z"/><path fill="#ff8100" fill-opacity=".8" d="m4.243 24 4.243 4.243-4.243 4.243L0 28.243z"/><path fill="#7dac00" d="m22.148 42 1.841.781-.781 1.841-1.841-.781z" opacity=".5"/><path fill="#ff00fe" d="m22.829 32 2.828 2.828-1.414 1.414-2.828-2.828z"/><path fill="#fe002e" d="m16 29-1.176.618.225-1.309-.951-.927 1.314-.191L16 26l.588 1.191 1.314.191-.951.927.225 1.309zm43.403 2.599-.567 1.201-.608-1.18-1.318-.169.935-.943-.247-1.305 1.186.597 1.164-.638-.201 1.313.967.91zm-22-20-.567 1.201-.608-1.18-1.318-.169.935-.943-.247-1.305 1.186.597 1.164-.638-.201 1.313.967.91z"/><path fill="#fe9d0b" d="m41.403 29.599-.567 1.201-.608-1.18-1.318-.169.935-.943-.247-1.305 1.186.597 1.164-.638-.201 1.313.967.91zM57.104 8.196l-.85 1.801-.913-1.771-1.976-.251 1.402-1.416-.371-1.957 1.779.896 1.747-.958-.303 1.969 1.451 1.366zM44.502 43.397l-.283.6-.305-.59-.658-.083.466-.473-.123-.652.593.299.583-.32-.101.657.483.455zm6.809-1.711-.502.434-.038-.663-.568-.345.618-.24.153-.647.42.514.662-.055-.359.56.257.611z"/><path fill="#88a1ff" d="m78.243 18 2.829 2.829-4.243 4.243L74 22.243z" opacity=".8"/><path fill="#00c894" d="m22 9.236 5.706-1.854 1.854 5.706-5.706 1.854z"/><path fill="#eb5959" d="m30.779 26.291 3.97.488-.488 3.97-3.97-.488z"/></g></g></g></g></svg>