<svg xmlns="http://www.w3.org/2000/svg" xmlns:xlink="http://www.w3.org/1999/xlink" fill="none" viewBox="0 0 24 24"><defs><mask id="a"><path fill="#fff" d="M14.147 19.273a.04.04 0 0 0-.013-.058.04.04 0 0 0-.02-.005h-2.37a.74.74 0 0 1-.744-.746l.003-3.458c0-.147.038-.29.11-.417l1.267-2.212a.75.75 0 0 1 .649-.377h7.683a.444.444 0 0 1 .377.682l-.826 1.324a.13.13 0 0 0 .11.2h1.872c.362 0 .655.295.655.657v3.318c0 .371-.094.736-.272 1.06-.226.41-.59.989-.821 1.408a1.03 1.03 0 0 1-.898.53H13.7a.445.445 0 0 1-.446-.471.45.45 0 0 1 .076-.227z" data-folderIconColor="SST"/><path fill="#000" d="M15.258 18.925a.46.46 0 0 0-.38.197l-.975 1.388a.134.134 0 0 0 .04.192q.031.02.07.02h6.73a.69.69 0 0 0 .6-.349c.176-.306.478-.752.66-1.068a.254.254 0 0 0-.093-.346.25.25 0 0 0-.127-.034zm-1.898-1.932a.83.83 0 0 0-.648.318l-.797 1.022a.259.259 0 0 0 .204.418h2.326a.5.5 0 0 1 .449-.284h4.496a.53.53 0 0 0 .45-.253l.612-1.002a.16.16 0 0 0-.056-.221.16.16 0 0 0-.08-.022z"/><path fill="#000" d="M20.506 18.094a.244.244 0 0 0 .206.373h1.305a.38.38 0 0 0 .38-.381v-3.048a.373.373 0 0 0-.372-.373h-6.086a.67.67 0 0 0-.564.31c-.216.34-.467.883-.68 1.218a.194.194 0 0 0 .065.27q.046.027.098.027h5.78a.48.48 0 0 1 .407.736c-.184.296-.387.624-.54.868"/><path fill="#000" d="M19.443 14.207a.15.15 0 0 0 .124-.068l.865-1.327a.17.17 0 0 0-.055-.237.2.2 0 0 0-.086-.024h-6.584a.71.71 0 0 0-.71.711v2.514a.725.725 0 0 0 .757.723h.093c.003-.02.75-1.315 1.164-1.95a.76.76 0 0 1 .632-.342z"/></mask></defs><path fill="#ff7043" d="M20 18H4V8h16m0-2h-8l-2-2H4c-1.11 0-2 .89-2 2v12a2 2 0 0 0 2 2h16a2 2 0 0 0 2-2V8a2 2 0 0 0-2-2" data-folderColor="SST"/><g fill="#fafafa" mask="url(#a)"><path d="M14.147 19.273a.04.04 0 0 0-.013-.058.04.04 0 0 0-.02-.005h-2.37a.74.74 0 0 1-.744-.746l.003-3.458c0-.147.038-.29.11-.417l1.267-2.212a.75.75 0 0 1 .649-.377h7.683a.444.444 0 0 1 .377.682l-.826 1.324a.13.13 0 0 0 .11.2h1.872c.362 0 .655.295.655.657v3.318c0 .371-.094.736-.272 1.06-.226.41-.59.989-.821 1.408a1.03 1.03 0 0 1-.898.53H13.7a.445.445 0 0 1-.446-.471.45.45 0 0 1 .076-.227z" data-folderIconColor="SST"/><path d="M15.258 18.925a.46.46 0 0 0-.38.197l-.975 1.388a.134.134 0 0 0 .04.192q.031.02.07.02h6.73a.69.69 0 0 0 .6-.349c.176-.306.478-.752.66-1.068a.254.254 0 0 0-.093-.346.25.25 0 0 0-.127-.034zm-1.898-1.932a.83.83 0 0 0-.648.318l-.797 1.022a.259.259 0 0 0 .204.418h2.326a.5.5 0 0 1 .449-.284h4.496a.53.53 0 0 0 .45-.253l.612-1.002a.16.16 0 0 0-.056-.221.16.16 0 0 0-.08-.022z"/><path d="M20.506 18.094a.244.244 0 0 0 .206.373h1.305a.38.38 0 0 0 .38-.381v-3.048a.373.373 0 0 0-.372-.373h-6.086a.67.67 0 0 0-.564.31c-.216.34-.467.883-.68 1.218a.194.194 0 0 0 .065.27q.046.027.098.027h5.78a.48.48 0 0 1 .407.736c-.184.296-.387.624-.54.868"/><path d="M19.443 14.207a.15.15 0 0 0 .124-.068l.865-1.327a.17.17 0 0 0-.055-.237.2.2 0 0 0-.086-.024h-6.584a.71.71 0 0 0-.71.711v2.514a.725.725 0 0 0 .757.723h.093c.003-.02.75-1.315 1.164-1.95a.76.76 0 0 1 .632-.342z"/></g></svg>