<svg xmlns="http://www.w3.org/2000/svg" xml:space="preserve" fill-rule="evenodd" stroke-linejoin="round" stroke-miterlimit="1.414" clip-rule="evenodd" viewBox="0 0 24 24"><path fill="#607d8b" d="M20 18H4V8h16m0-2h-8l-2-2H4c-1.11 0-2 .89-2 2v12a2 2 0 0 0 2 2h16a2 2 0 0 0 2-2V8a2 2 0 0 0-2-2" data-folderColor="Logs"/><path fill="#b0bec5" d="M19.04 18.616h-4.706v-1.345h4.706m2.017-1.344h-6.723v-1.345h6.723m0-1.344h-6.723v-1.345h6.723m1.345-2.69h-9.413a1.34 1.34 0 0 0-1.345 1.345v9.413a1.345 1.345 0 0 0 1.345 1.344h9.412a1.345 1.345 0 0 0 1.345-1.344v-9.413c0-.746-.605-1.344-1.345-1.344" data-folderIconColor="Logs"/></svg>