<svg xmlns="http://www.w3.org/2000/svg" fill-rule="evenodd" stroke-linejoin="round" stroke-miterlimit="1.414" clip-rule="evenodd" viewBox="0 0 24 24"><path fill="#d81b60" fill-rule="nonzero" d="M10 4H4c-1.11 0-2 .89-2 2v12c0 1.097.903 2 2 2h16c1.097 0 2-.903 2-2V8a2 2 0 0 0-2-2h-8z" data-folderColor="Math"/><path fill="#f8bbd0" d="M19.32 12.103a1.4 1.4 0 0 0-1.519 1.274l-.175 2.023H19.6v1.4h-2.1l-.308 3.549a2.79 2.79 0 0 1-3.031 2.541 2.8 2.8 0 0 1-2.142-1.309l1.05-1.05c.168.518.63.917 1.211.966.77.07 1.449-.497 1.519-1.274L16.1 16.8H14v-1.4h2.219l.189-2.149a2.79 2.79 0 0 1 3.031-2.541 2.8 2.8 0 0 1 2.142 1.309l-1.05 1.05a1.4 1.4 0 0 0-1.211-.966" data-folderIconColor="Math"/></svg>