<svg xmlns="http://www.w3.org/2000/svg" xml:space="preserve" fill-rule="evenodd" stroke-linejoin="round" stroke-miterlimit="1.414" clip-rule="evenodd" viewBox="0 0 24 24"><path fill="#0277bd" d="M20 18H4V8h16m0-2h-8l-2-2H4c-1.11 0-2 .89-2 2v12a2 2 0 0 0 2 2h16a2 2 0 0 0 2-2V8a2 2 0 0 0-2-2" data-folderColor="Less"/><path fill="#b3e5fc" d="M15.625 8.868h-.329c-.392-.004-.72.21-1.005.433-.312.245-.578.564-.662.992-.047.25-.037.47-.037.688v1.726c0 .61-.227 1.062-.534 1.359-.174.171-.544.328-.964.47v.779c.373.103.731.242.93.418.33.288.567.702.567 1.244v2.015c0 .67.16 1.18.625 1.53.465.349 1.006.523 1.625.54l.414-.003v-1.005c-.323-.095-.503-.204-.632-.328-.233-.211-.364-.553-.364-1.029V17.07c-.01-.553-.099-.986-.3-1.3q-.303-.468-1.18-.822.969-.444 1.3-1.158c.13-.283.18-.665.18-1.145v-1.492c0-.492.114-.838.312-1.035q.164-.16.565-.266l.42.003v-.988zm4.557 0h.329c.392-.004.72.21 1.005.433.311.245.578.564.661.992.048.25.038.47.038.688v1.726c0 .61.227 1.062.534 1.359.174.171.543.328.964.47v.779c-.373.103-.732.242-.93.418-.33.288-.568.702-.568 1.244v2.015c0 .67-.16 1.18-.624 1.53-.465.349-1.006.523-1.625.54l-.414-.003v-1.005c.323-.095.502-.204.632-.328.232-.211.364-.553.364-1.029V17.07c.01-.553.098-.986.3-1.3q.302-.468 1.18-.822-.97-.444-1.3-1.158c-.13-.283-.18-.665-.18-1.145v-1.492c0-.492-.114-.838-.312-1.035-.108-.107-.3-.195-.565-.266l-.42.003v-.988z" data-folderIconColor="Less"/></svg>