<svg xmlns="http://www.w3.org/2000/svg" xml:space="preserve" fill-rule="evenodd" stroke-linejoin="round" stroke-miterlimit="1.414" clip-rule="evenodd" viewBox="0 0 24 24"><path fill="#4caf50" fill-rule="nonzero" d="M10 4H4c-1.11 0-2 .89-2 2v12c0 1.097.903 2 2 2h16c1.097 0 2-.903 2-2V8a2 2 0 0 0-2-2h-8z" data-folderColor="Woodpecker"/><path fill="#e8f5e9" d="M14.379 8.823c.344.327.475.657.856.701l.011.002c-.176.182-.327.42-.433.727-.114.329-.146.686-.184 1.098-.057.614-.12 1.309-.467 2.18-.746 1.878-.336 3.49.1 5.196.2.78.404 1.589.493 2.432a.26.26 0 0 0 .19.223.26.26 0 0 0 .276-.097c.068-.094.157-.24.258-.427.252.997.407 1.839.535 2.609a.26.26 0 0 0 .455.123c.864-1.04 1.129-2.591.655-3.802.138-.73.42-1.335.72-1.975.16-.345.324-.696.465-1.07.068-.025.17-.094.237-.132l.512-.295-.077.316a.26.26 0 0 0 .503.122l.204-.857.386-.885a.259.259 0 1 0-.474-.206l-.346.8-.715.412a6 6 0 0 0 .152-.894c.13-1.458-.215-2.722-.92-3.38-.048-.047-.062-.084-.073-.078.028-.036.074-.078.107-.112.685-.508 1.814-.044 2.496.225.176.07.262-.101.094-.201-.585-.346-1.784-1.259-2.456-1.858-.094-.083-.158-.182-.267-.274-.725-1.28-2.45-.529-3.266-.675a.03.03 0 0 0-.027.052m3.294 1.77c-.018.373-.181.54-.3.662-.065.067-.128.131-.157.222-.071.214.002.453.198.643.592.552.877 1.658.761 2.958-.087.986-.434 1.728-.801 2.515-.31.662-.629 1.347-.773 2.178a.26.26 0 0 0 .016.144c.306.73.341 1.859-.201 2.838a29 29 0 0 0-.591-2.613c.59-1.347 1.26-3.525.876-5.3-.098-.45-.392-.984-.717-1.263-.062-.054-.12-.071-.148-.05-.025.018-.045.071-.019.133.165.38.264.78.368 1.283.338 1.633-.287 3.747-.85 5.035l-.035.077-.137.295a24 24 0 0 0-.4-1.752c-.413-1.622-.803-3.155-.12-4.876.375-.941.445-1.708.502-2.324.035-.38.065-.707.158-.976.271-.781.918-.953 1.423-.855.49.094.972.478.947 1.026m-.86.186a.353.353 0 1 0 .22-.67.353.353 0 1 0-.22.67" data-folderIconColor="Woodpecker"/></svg>