<svg xmlns="http://www.w3.org/2000/svg" viewBox="0 0 64 64"><rect width="56" height="36" x="4" y="22" opacity=".2" rx="2.8" ry="2.8"/><path fill="#ccc" d="M4 46.2C4 47.751 5.249 49 6.8 49h50.4c1.551 0 2.8-1.249 2.8-2.8V15.8c0-1.551-1.249-2.8-2.8-2.8H32c-4.2 0-5.6-6-9.8-6H6.8A2.794 2.794 0 0 0 4 9.8"/><rect width="56" height="36" x="4" y="20" opacity=".2" rx="2.8" ry="2.8"/><rect width="48" height="22" x="8" y="16" fill="#fff" rx="2.8" ry="2.8"/><rect width="56" height="36" x="4" y="21" fill="#e4e4e4" rx="2.8" ry="2.8"/><path fill="#fff" d="M6.8 7C5.25 7 4 8.25 4 9.8v1.001A2.795 2.795 0 0 1 6.8 8h15.4c4.2 0 5.601 6 9.801 6H57.2a2.796 2.796 0 0 1 2.8 2.801v-1A2.796 2.796 0 0 0 57.199 13H32c-4.2 0-5.601-6-9.801-6Z" opacity=".1"/><path fill="#4f4f4f" d="M32.414 29.008A10.01 10.01 0 0 0 22 39h-2l3 3 3-3h-2a7.99 7.99 0 0 1 6.275-7.812 7.99 7.99 0 0 1 8.989 4.458 7.99 7.99 0 0 1-2.436 9.733 7.99 7.99 0 0 1-10.03-.3c-1.013-.867-2.312.655-1.298 1.52a10.01 10.01 0 0 0 12.535.376 10.01 10.01 0 0 0 3.043-12.166 10.01 10.01 0 0 0-8.664-5.801m-.43 3.978A1 1 0 0 0 31 34v4.863a1 1 0 0 0 .041.434l.027.074a1 1 0 0 0 .21.332l2.921 3.897a1 1 0 0 0 1.602-1.2L33 38.666V34a1 1 0 0 0-1.016-1.014"/></svg>