<svg xmlns="http://www.w3.org/2000/svg" xml:space="preserve" fill-rule="evenodd" stroke-linejoin="round" stroke-miterlimit="1.414" clip-rule="evenodd" viewBox="0 0 24 24"><path fill="#ff7043" fill-rule="nonzero" d="M10 4H4c-1.11 0-2 .89-2 2v12c0 1.097.903 2 2 2h16c1.097 0 2-.903 2-2V8a2 2 0 0 0-2-2h-8z" data-folderColor="DevContainer"/><path fill="#ffccbc" d="M12.831 23.326c-5.108-2.945-5.108-10.347 0-13.292s11.529.756 11.529 6.646-6.42 9.591-11.529 6.646m3.712-5.646-2.697-2.697-.848.849 1.848 1.848-1.848 1.848.848.849zm3.958-.147-1.848-1.848 1.848-1.848-.849-.848-2.696 2.696 2.696 2.697z" data-folderIconColor="DevContainer"/></svg>