<svg xmlns="http://www.w3.org/2000/svg" fill-rule="evenodd" stroke-linejoin="round" stroke-miterlimit="1.414" clip-rule="evenodd" viewBox="0 0 24 24"><path fill="#8d6e63" d="M20 18H4V8h16m0-2h-8l-2-2H4c-1.11 0-2 .89-2 2v12a2 2 0 0 0 2 2h16a2 2 0 0 0 2-2V8a2 2 0 0 0-2-2" data-folderColor="Mocks"/><path fill="#bcaaa4" d="M16.5 9.75c-2.017 0-3.442.915-3.442.915L12 14.25h9l-1.058-3.585S18.518 9.75 16.5 9.75m0 6c-2.047 0-4.957.405-5.152.442-.78.21-1.41.42-1.906.616-.757.255-1.192.442-1.192.442h16.5s-.435-.187-1.192-.442a18 18 0 0 0-1.928-.616s-3.015-.442-5.13-.442M13.125 18a2.625 2.625 0 0 0-2.625 2.625 2.625 2.625 0 0 0 2.625 2.625 2.625 2.625 0 0 0 2.625-2.625c0-.12 0-.24-.022-.352.24-.053.495-.098.772-.09.277 0 .532.037.773.09-.023.112-.023.232-.023.352a2.625 2.625 0 0 0 2.625 2.625 2.625 2.625 0 0 0 2.625-2.625A2.625 2.625 0 0 0 19.875 18a2.62 2.62 0 0 0-2.437 1.643 3 3 0 0 0-.938-.143 3 3 0 0 0-.937.143A2.62 2.62 0 0 0 13.125 18m0 .75A1.875 1.875 0 0 1 15 20.625a1.875 1.875 0 0 1-1.875 1.875 1.875 1.875 0 0 1-1.875-1.875 1.875 1.875 0 0 1 1.875-1.875m6.75 0a1.875 1.875 0 0 1 1.875 1.875 1.875 1.875 0 0 1-1.875 1.875A1.875 1.875 0 0 1 18 20.625a1.875 1.875 0 0 1 1.875-1.875" data-folderIconColor="Mocks"/></svg>