<svg xmlns="http://www.w3.org/2000/svg" fill-rule="evenodd" stroke-linejoin="round" stroke-miterlimit="1.414" clip-rule="evenodd" viewBox="0 0 24 24"><path fill="#ef5350" d="M20 18H4V8h16m0-2h-8l-2-2H4c-1.11 0-2 .89-2 2v12a2 2 0 0 0 2 2h16a2 2 0 0 0 2-2V8a2 2 0 0 0-2-2" data-folderColor="Syntax"/><path fill="#ffcdd2" d="M19.499 18.78H20.8l-3.184-8.097H16.46l-3.183 8.096h1.302l.697-1.868h3.513zm-3.75-3.116 1.29-3.437 1.288 3.437zm9.443.369-5.039 5.038-2.285-2.292-.88.878 3.172 3.17 5.91-5.916z" data-folderIconColor="Syntax"/></svg>