<svg xmlns="http://www.w3.org/2000/svg" xml:space="preserve" fill-rule="evenodd" stroke-linejoin="round" stroke-miterlimit="1.414" clip-rule="evenodd" viewBox="0 0 24 24"><path fill="#42a5f5" d="M20 18H4V8h16m0-2h-8l-2-2H4c-1.11 0-2 .89-2 2v12a2 2 0 0 0 2 2h16a2 2 0 0 0 2-2V8a2 2 0 0 0-2-2" data-folderColor="Mail"/><path fill="#bbdefb" d="m21.6 14.4-4.8 3-4.8-3v-1.2l4.8 3 4.8-3m0-1.2H12c-.666 0-1.2.534-1.2 1.2v7.2a1.2 1.2 0 0 0 1.2 1.2h9.6a1.2 1.2 0 0 0 1.2-1.2v-7.2a1.2 1.2 0 0 0-1.2-1.2" data-folderIconColor="Mail"/></svg>