<svg xmlns="http://www.w3.org/2000/svg" xml:space="preserve" fill-rule="evenodd" stroke-linejoin="round" stroke-miterlimit="1.414" clip-rule="evenodd" viewBox="0 0 486 512"><path fill="#0288d1" fill-rule="nonzero" d="M420 378H84V168h336m0-42H252l-42-42H84c-23.31 0-42 18.69-42 42v252a42 42 0 0 0 42 42h336a42 42 0 0 0 42-42V168c0-23.31-18.9-42-42-42" data-folderColor="SQL"/><path fill="#b2dfdb" d="M308.97 418.566c-3.9 6.5-9.646 11.754-12.663 19.428-6.302 13.591-3.863 43.014-7.838 43.064-4.64 2.226-11.954-11.136-15.073-19.101-7.894-20.144-9.361-52.582-2.415-75.768 9.619-30.589 10.219-28.989-3.014-43.391-12.234-17.857-18.056-46.824-25.927-67.348-12.065-26.84-40.507-49.398-25.323-59.574 5.462-4.578 23.807 4.497 37.447 13.49 9.634 6.353 15.936 13.097 18.024 13.061 23.012-.627 32.012.373 69.339 22.666 34.754 23.567 63.169 57.117 82.607 97.137 4.827 16.766 28.133 71.37 44.013 99.08 4.102 5.883 19.937 9.038 27.134 12.303 17.18 5.772 20.519 8.587 44.62 27.2 4.28 3.237 17.434 10.334 18.09 16.185-21.206-.618-37.4 1.497-51.248 7.77-3.936 1.782-10.21 1.828-10.853 7.125 3.41 3.707.31 9.107 18.087 26.55 18.085 16.223 26.823 17.557 48.84 30.437 21.098 14.62 21.374 19.16 25.925 20.72v-.646c-4.48-10.574-4.22-9.068-12.058-17.486-28.417-38.135-49.278-35.52-57.883-53.747 23.094-8.889 35.066-5.721 56.68-13.6v-2.59c-14.665-23.263-56.548-57.798-94.117-70.089-24.018-45.812-34.07-78.394-46.378-104.754C409.119 299.78 340.8 222.4 278.82 227.532c-4.048-1.817-8.26-7.137-12.059-9.713-15.123-10.262-53.915-32.58-65.116-3.237-7.073 18.521 10.57 36.596 16.88 45.978 4.43 6.584 10.1 13.965 13.264 21.37 3.098 8.024 2.211 13.97 18.09 53.1 11.738 25.383 13.928 17.935 16.278 27.2-3.723 5.595-3.935 14.28-6.028 21.37-16.929 56.4 9.63 123.047 35.574 112.032 13.294-5.786 8.824-28.168 14.276-43.092 7.754 14.527 10.154 33.327 45.417 61.872 6.264 5.08 12.978 14.33 20.982 17.25-8.287-5.744-15.407-14.403-22.188-23.726-10.987-16.02-20.698-33.556-29.543-51.809-14.495-28.897-11.408-34.377-15.677-37.561m-20.06-132.192c-4.11-9.707-5.687-7.476-10.04-12.263-4.37-.086-7.55.615-10.817 1.38-.18.116-.135.351.014.642 2.084 4.6 6.347 7.56 8.925 11.522l5.96 13.438c4.425-3.172 6.001-8.37 5.958-14.72" data-folderIconColor="SQL"/></svg>