<svg xmlns="http://www.w3.org/2000/svg" xml:space="preserve" fill-rule="evenodd" stroke-linejoin="round" stroke-miterlimit="1.414" clip-rule="evenodd" viewBox="0 0 24 24"><path fill="#673ab7" d="M20 18H4V8h16m0-2h-8l-2-2H4c-1.11 0-2 .89-2 2v12a2 2 0 0 0 2 2h16a2 2 0 0 0 2-2V8a2 2 0 0 0-2-2" data-folderColor="Themes"/><path fill="#bbdefb" d="M21.043 15.266a1.07 1.07 0 0 1-1.07-1.07 1.07 1.07 0 0 1 1.07-1.071 1.07 1.07 0 0 1 1.07 1.07 1.07 1.07 0 0 1-1.07 1.071m-2.141-2.855a1.07 1.07 0 0 1-1.07-1.07 1.07 1.07 0 0 1 1.07-1.071 1.07 1.07 0 0 1 1.07 1.07 1.07 1.07 0 0 1-1.07 1.071m-3.569 0a1.07 1.07 0 0 1-1.07-1.07 1.07 1.07 0 0 1 1.07-1.071 1.07 1.07 0 0 1 1.07 1.07 1.07 1.07 0 0 1-1.07 1.071m-2.141 2.855a1.07 1.07 0 0 1-1.07-1.07 1.07 1.07 0 0 1 1.07-1.071 1.07 1.07 0 0 1 1.07 1.07 1.07 1.07 0 0 1-1.07 1.071m3.925-6.424a6.424 6.424 0 0 0-6.423 6.424 6.424 6.424 0 0 0 6.423 6.424 1.07 1.07 0 0 0 1.071-1.07c0-.28-.107-.53-.278-.715a1.1 1.1 0 0 1-.271-.713 1.07 1.07 0 0 1 1.07-1.071h1.263a3.57 3.57 0 0 0 3.57-3.569c0-3.154-2.877-5.71-6.425-5.71" data-folderIconColor="Themes"/></svg>