<svg xmlns="http://www.w3.org/2000/svg" xmlns:xlink="http://www.w3.org/1999/xlink" viewBox="0 0 16.933 16.933"><defs><linearGradient id="a" x1="-197.1" x2="-196.91" y1="217.68" y2="219.36" gradientTransform="rotate(-45 -1277.723 -529.25)scale(3.7796)" gradientUnits="userSpaceOnUse"><stop offset="0"/><stop offset="1" stop-opacity="0"/></linearGradient></defs><path fill="#fff" fill-opacity=".976" stroke="#000" stroke-opacity=".268" stroke-width=".529" d="M3.175 2.381c-.293 0-.265.264-.265.53H1.852c-.265 0-.265 0-.265.264v5.556c0 .293.237.53.53.53h12.7a.53.53 0 0 0 .529-.53V3.175c0-.265 0-.265-.265-.265H7.673c0-.265.028-.53-.265-.53z" paint-order="markers stroke fill"/><path fill="#fff" fill-opacity=".976" d="M3.175 2.381c-.293 0-.265.264-.265.53H1.852c-.265 0-.265 0-.265.264v5.556c0 .293.237.53.53.53h12.7a.53.53 0 0 0 .529-.53V3.175c0-.265 0-.265-.265-.265H7.673c0-.265.028-.53-.265-.53z" paint-order="markers stroke fill"/><path fill="none" stroke="#003579" stroke-opacity=".561" stroke-width=".529" d="M8.467 4.233c-.293 0-.382.276-.53.53l-.308.528H.794c-.265 0-.265.265-.265.265v8.996c0 .264.265.264.265.264H16.14c.264 0 .264-.264.264-.264V4.498c0-.265-.264-.265-.264-.265z" paint-order="markers stroke fill"/><path fill="#6ba4e7" d="M8.467 4.233c-.293 0-.382.276-.53.53l-.308.528H.794c-.265 0-.265.265-.265.265v8.996c0 .264.265.264.265.264H16.14c.264 0 .264-.264.264-.264V4.498c0-.265-.264-.265-.264-.265z" paint-order="markers stroke fill"/><path fill="url(#a)" d="m62 43.998-11.998 12h10C61.11 55.998 62 55.108 62 54z" opacity=".1" transform="scale(.26458)"/><rect width="3.704" height=".529" x="3.44" y="2.91" fill-opacity=".267" paint-order="markers stroke fill" rx=".265" ry=".265"/></svg>