<svg xmlns="http://www.w3.org/2000/svg" xml:space="preserve" fill-rule="evenodd" stroke-linejoin="round" stroke-miterlimit="1.414" clip-rule="evenodd" viewBox="0 0 24 24"><path fill="#ef5350" fill-rule="nonzero" d="M10 4H4c-1.11 0-2 .89-2 2v12c0 1.097.903 2 2 2h16c1.097 0 2-.903 2-2V8a2 2 0 0 0-2-2h-8z" data-folderColor="Redis"/><path fill="#ffcdd2" d="m15.355 12.049.288.583-1.019.383 1.419.163.442.722.28-.672 1.22-.13-.934-.37.23-.592-.93.292zm1.97 2.085 1.942.78 2.173-.862-1.958-.77zm-7.754 2.03 5.716 2.4c.543.265 1.096.249 1.806-.125 2.178-1.031 4.908-2.088 5.974-2.684.24-.17.229-.128.229-.953 0-.394-.002-.715-.007-.715a1.2 1.2 0 0 1-.29.254c-1.026.575-3.492 1.557-5.728 2.573-.572.28-1.145.534-1.729.307-2.459-1.056-5.567-2.288-6.228-2.643a1.1 1.1 0 0 1-.353-.296v1.482c.138.154.355.283.61.4m4.545-.79 2.277.958 1.008-1.449zm.815 5.488c1.043.524 1.468.375 2.269-.026 2.167-.995 4.832-2.091 5.809-2.592.099-.072.195-.157.285-.264 0 0-.002-1.457-.007-1.457-.244.522-3.393 1.582-5.974 2.821-.742.362-1.248.617-2.167.174-2.339-1.051-5.644-2.249-6.082-2.67l-.104-.099v1.457l.118.111c.324.364 3.158 1.324 5.853 2.545m2.274 2.352c.58-.278 1.01-.47 2.904-1.286 2.631-1.133 2.916-1.27 3.117-1.5l.07-.079s-.003-1.455-.005-1.455a.5.5 0 0 0-.07.078c-.172.215-.515.38-3.189 1.531-1.744.753-2.275.988-2.849 1.262-.84.407-1.21.444-1.894.174l-5.817-2.462c-.207-.104-.417-.252-.465-.328l-.046-.07v.742c0 .85-.015.787.213.942.252.17.627.335 3.115 1.367 1.74.723 2.367.986 2.675 1.125.985.519 1.487.31 2.24-.041m-4.896-8.47c-1.184-.263-1.184-.924 0-1.187s2.673.068 2.673.593-1.488.857-2.673.594" data-folderIconColor="Redis"/></svg>