<svg xmlns="http://www.w3.org/2000/svg" xml:space="preserve" fill-rule="evenodd" stroke-linejoin="round" stroke-miterlimit="1.414" clip-rule="evenodd" viewBox="0 0 24 24"><path fill="#546e7a" fill-rule="nonzero" d="M10 4H4c-1.11 0-2 .89-2 2v12c0 1.097.903 2 2 2h16c1.097 0 2-.903 2-2V8a2 2 0 0 0-2-2h-8z" data-folderColor="Internal"/><path fill="#cfd8dc" d="M16.793 8.358c-.325 0-.65.123-.916.383l-5.2 5.2a1.283 1.283 0 0 0 0 1.832l5.2 5.2a1.283 1.283 0 0 0 1.833 0l5.199-5.2a1.283 1.283 0 0 0 0-1.833l-5.2-5.199a1.3 1.3 0 0 0-.916-.383m-.65 3.25h1.3v3.899h-1.3zm0 5.2h1.3v1.3h-1.3z" data-folderIconColor="Internal"/></svg>