<svg xmlns="http://www.w3.org/2000/svg" xml:space="preserve" fill-rule="evenodd" stroke-linejoin="round" stroke-miterlimit="1.414" clip-rule="evenodd" viewBox="0 0 24 24"><path fill="#0288d1" d="M20 18H4V8h16m0-2h-8l-2-2H4c-1.11 0-2 .89-2 2v12a2 2 0 0 0 2 2h16a2 2 0 0 0 2-2V8a2 2 0 0 0-2-2" data-folderColor="ViewModels"/><path fill="#b3e5fc" d="M18.224 18.651v-.935l1.783-1.035-1.783-1.035v-.935l2.775 1.66v.619zm-.694.001-2.775-1.669v-.604l2.775-1.67v.937l-1.77 1.035 1.77 1.036zM13.814 8.71c-.748 0-1.355.571-1.355 1.276v10.201c-.001.706.606 1.278 1.355 1.278h8.126c.75 0 1.356-.572 1.355-1.278v-10.2c0-.706-.607-1.277-1.355-1.277zm8.126 8.927v2.55h-8.126v-7.012h8.126v3.188z" data-folderIconColor="ViewModels"/></svg>