<svg xmlns="http://www.w3.org/2000/svg" fill-rule="evenodd" stroke-linejoin="round" stroke-miterlimit="1.414" clip-rule="evenodd" viewBox="0 0 24 24"><path fill="#00b0ff" d="M20 18H4V8h16m0-2h-8l-2-2H4c-1.11 0-2 .89-2 2v12a2 2 0 0 0 2 2h16a2 2 0 0 0 2-2V8a2 2 0 0 0-2-2" data-folderColor="Notifications"/><path fill="#b3e5fc" d="M21.706 11.619h-9.2c-.633 0-1.144.517-1.144 1.15l-.006 10.35 2.3-2.3h8.05c.632 0 1.15-.518 1.15-1.15v-6.9c0-.633-.518-1.15-1.15-1.15m-4.025 6.9h-1.15v-1.15h1.15zm0-2.3h-1.15v-2.3h1.15z" data-folderIconColor="Notifications"/></svg>