<svg xmlns="http://www.w3.org/2000/svg" xml:space="preserve" viewBox="0 0 24 24"><path fill="#1dacd6" d="M10 4H4c-1.1 0-2 .9-2 2v12c0 1.1.9 2 2 2h16c1.1 0 2-.9 2-2V8c0-1.1-.9-2-2-2h-8z" data-folderColor="Article"/><path fill="#b3e5fc" d="M21.6 15.5v4.1c0 .9-.5 1.3-1.4 1.3h-5.9c-.8 0-1.3-.5-1.3-1.4v-8.3c0-.9.5-1.3 1.3-1.3h5.9c.8 0 1.3.5 1.3 1.4.1 1.4.1 2.8.1 4.2m-3.7-3.7v3h2.4v-3zM14.2 16h6.1v-.6h-6.1zm6.1.7h-6.1v.6h6.1zm-6.1 1.8h6.1v-.6h-6.1zm0-6.7v.6h3v-.6zm0 1.2v.6h3V13zm3 1.8v-.6h-3v.6z" data-folderIconColor="Article"/></svg>