<svg xmlns="http://www.w3.org/2000/svg" xmlns:xlink="http://www.w3.org/1999/xlink" viewBox="0 0 16.933 16.933"><defs><linearGradient id="a" x1="-197.1" x2="-196.91" y1="217.68" y2="219.37" gradientTransform="rotate(-45 -338.07 -140.03)" gradientUnits="userSpaceOnUse"><stop offset="0"/><stop offset="1" stop-opacity="0"/></linearGradient></defs><path fill="#fff" fill-opacity=".976" stroke="#000" stroke-opacity=".268" stroke-width=".529" d="M3.175 2.381c-.293 0-.265.264-.265.53H1.852c-.265 0-.265 0-.265.264v5.556c0 .293.237.53.53.53h12.7a.53.53 0 0 0 .529-.53V3.175c0-.265 0-.265-.265-.265H7.673c0-.265.028-.53-.265-.53z" paint-order="markers stroke fill"/><path fill="#fff" fill-opacity=".976" d="M3.175 2.381c-.293 0-.265.264-.265.53H1.852c-.265 0-.265 0-.265.264v5.556c0 .293.237.53.53.53h12.7a.53.53 0 0 0 .529-.53V3.175c0-.265 0-.265-.265-.265H7.673c0-.265.028-.53-.265-.53z" paint-order="markers stroke fill"/><path fill="none" stroke="#003579" stroke-opacity=".561" stroke-width=".529" d="M8.467 4.233c-.293 0-.382.276-.53.53l-.308.528H.794c-.265 0-.265.265-.265.265v8.996c0 .264.265.264.265.264H16.14c.264 0 .264-.264.264-.264V4.498c0-.265-.264-.265-.264-.265z" paint-order="markers stroke fill"/><path fill="#6ba4e7" d="M8.467 4.233c-.293 0-.382.276-.53.53l-.308.528H.794c-.265 0-.265.265-.265.265v8.996c0 .264.265.264.265.264H16.14c.264 0 .264-.264.264-.264V4.498c0-.265-.264-.265-.264-.265z" paint-order="markers stroke fill"/><rect width="3.704" height=".529" x="3.44" y="2.91" fill-opacity=".267" paint-order="markers stroke fill" rx=".265" ry=".265"/><path d="M6.085 7.144v5.82h4.763V8.997L8.996 7.144zm.265.264h2.381V9.26h1.852v3.44H6.35zm2.646.133 1.455 1.455H8.996z" opacity=".3"/><path d="M6.35 7.408V12.7h4.233V9.26H8.731V7.408z" opacity=".15"/><path fill="url(#a)" d="m16.404 11.641-3.174 3.175h2.645a.527.527 0 0 0 .529-.529z" opacity=".1"/></svg>