<svg xmlns="http://www.w3.org/2000/svg" fill="none" viewBox="0 0 24 24"><path fill="#47c5fb" d="M10 4H4c-1.11 0-2 .89-2 2v12a2 2 0 0 0 2 2h16a2 2 0 0 0 2-2V8a2 2 0 0 0-2-2h-8z" data-folderColor="Dart"/><g fill="#bbdefb" data-folderIconColor="Dart"><path d="m14.917 11.5.875 7.292-2.34-2.34a1.17 1.17 0 0 1-.231-1.318z"/><path d="M19.968 9.843a1.31 1.31 0 0 0-1.551-.228l-3.5 1.885v5.933c0 .31.123.607.341.825l.534.534h6.416v-1.459l2.042-3.208z"/><path d="M14.917 11.5h6.225c.31 0 .606.123.825.342l2.283 2.283v4.667h-2.042zm7.291 7.292h-6.416l1.75 1.75h4.666z"/></g></svg>