<svg xmlns="http://www.w3.org/2000/svg" xml:space="preserve" fill-rule="evenodd" stroke-linejoin="round" stroke-miterlimit="1.414" clip-rule="evenodd" viewBox="0 0 24 24"><path fill="#009688" d="M20 18H4V8h16m0-2h-8l-2-2H4c-1.11 0-2 .89-2 2v12a2 2 0 0 0 2 2h16a2 2 0 0 0 2-2V8a2 2 0 0 0-2-2" data-folderColor="Perl"/><path fill="#b2dfdb" d="M15.817 21.542c-.066.132-.344.04-.649-.066-.304-.106-1.337-.53-1.933-1.205-.595-.675-.9-1.576-.874-2.436s.265-1.218.663-1.774c.397-.556 1.496-1.377 1.84-1.589s.808-.57 1.032-.86c.226-.292.345-.53.332-.927-.014-.398.026-.755.013-.887-.013-.133-.013-.397.105-.345.12.053.133.199.133.345s-.04.74-.08 1.323-.503 1.073-.847 1.417-1.337 1.417-1.708 1.946a2.97 2.97 0 0 0-.516 1.814c.04.595.185 1.178.741 1.8s.94.914 1.231 1.06c.292.145.583.251.517.384m.487.636c-.095.116-.258.186-.278.139s.118-.073.22-.186c.092-.104.067-.297.133-.3.055-.002.02.231-.075.347m.24-.967c-.185.238-.939-.583-1.336-1.06-.398-.476-.795-1.443-.808-2.197-.013-.755.41-1.456.715-1.88s.9-1.152 1.06-1.483c.158-.331.33-.688.383-1.152s0-2.119 0-2.119-.013-.728.106-.648c.12.08.146.543.146.966s.04 2.25-.093 2.74-.437 1.033-.768 1.51-.715 1.483-.702 2.105.371 1.642.649 2.065c.28.425.753 1.019.649 1.153m.397 1.236c-.055 0-.034-.165-.034-.368s-.019-.37.034-.37c.048 0 .034.165.034.37s.01.368-.034.368m.864-.136c-.02.046-.184-.023-.279-.14-.095-.115-.129-.348-.075-.346.066.003.042.196.135.3.1.112.238.14.219.186m.847-.772c-.239.095-.39.198-.592.01-.325-.303-.633-.334-1.04-.443-.113-.03-.192-.281-.233-.372a5.4 5.4 0 0 1-.318-.929c-.384-1.532-.078-3.067.31-4.565a8 8 0 0 0 .277-1.939c.003-.347-.045-.69-.086-1.035-.018-.146-.086-.508.092-.23.072.112.203-.047.215.082.009.1.02.816.06 1.069.098.61.851.99 1.315 1.28 1.063.664 2.504 1.543 2.706 2.906.265 1.782-.65 3.323-2.706 4.166M23.3 16.9c0-4.908-5.35-7.993-9.607-5.539s-4.257 8.623 0 11.078 9.607-.63 9.607-5.539" data-folderIconColor="Perl"/></svg>