<svg xmlns="http://www.w3.org/2000/svg" xml:space="preserve" viewBox="0 0 32 32"><path fill="#d65c75" d="M26 23.4H5.2v-13H26m0-2.6H15.6L13 5.2H5.2a2.59 2.59 0 0 0-2.6 2.6v15.6A2.6 2.6 0 0 0 5.2 26H26a2.6 2.6 0 0 0 2.6-2.6v-13A2.6 2.6 0 0 0 26 7.8" data-folderColor="Orders"/><path fill="#ebebeb" d="M27.9 16v9.7c0 .2 0 .3-.1.5-.1 1-.6 1.5-1.6 1.6-.1 0-.3 0-.4.1h-7.7c-.1 0-.3 0-.4-.1-.9-.1-1.4-.5-1.5-1.4 0-.2-.1-.5-.1-.7v-9.9c0-.2 0-.3.1-.5.1-1 .5-1.5 1.5-1.6.2 0 .3 0 .5-.1h7.5c.1 0 .3 0 .4.1 1 .1 1.4.5 1.6 1.4.1.3.1.6.2.9M22 18.7h2.4c.2 0 .3 0 .4-.1.4-.1.6-.5.5-.9s-.4-.7-.8-.7h-4.9c-.6 0-1 .3-1 .8s.4.8.9.8c.9.1 1.7.1 2.5.1m.1 1.7h-2.4q-.9 0-.9.9c0 .5.4.8.9.8h4.8c.6 0 .9-.3.9-.8s-.4-.9-.9-.9zm-.9 3.3h-1.6c-.5 0-.9.3-.9.8s.4.8.9.8h3.2c.6 0 .9-.3.9-.8s-.4-.8-.9-.8z" data-folderIconColor="Orders"/></svg>