<svg xmlns="http://www.w3.org/2000/svg" viewBox="0 0 24 24"><path fill="#689f38" d="M20 18H4V8h16m0-2h-8l-2-2H4c-1.11 0-2 .89-2 2v12a2 2 0 0 0 2 2h16a2 2 0 0 0 2-2V8a2 2 0 0 0-2-2" data-folderColor="Gitea"/><path fill="#689f38" d="m17.398 20.605-3.173-1.525a.634.634 0 0 1-.295-.845l1.525-3.172a.634.634 0 0 1 .845-.295l.678.325-.003-2.73.417-.003.003 2.928s1.435.605 2.078 1.002c.092.058.255.17.322.36a.64.64 0 0 1-.025.483l-1.525 3.172a.637.637 0 0 1-.848.3" data-folderIconColor="Gitea"/><g fill="#dcedc8" data-folderIconColor="Gitea"><path d="M23.068 12.245c-.103-.102-.24-.1-.24-.1s-2.93.165-4.448.2q-.498.013-.99.017v2.93l-.415-.197-.002-2.73c-.725.01-2.23-.055-2.23-.055s-3.535-.177-3.92-.213c-.245-.014-.563-.052-.975.038-.218.045-.838.185-1.345.673-1.125 1.002-.838 2.597-.803 2.837.043.293.173 1.105.793 1.813 1.144 1.402 3.61 1.37 3.61 1.37s.302.722.764 1.387c.625.828 1.268 1.473 1.893 1.55 1.575 0 4.723-.003 4.723-.003s.3.003.707-.257c.35-.213.663-.585.663-.585s.322-.345.772-1.133a8 8 0 0 0 .353-.7s1.38-2.927 1.38-5.777c-.028-.863-.24-1.015-.29-1.065M10.64 17.348c-.647-.213-.922-.468-.922-.468s-.478-.335-.718-.995c-.413-1.105-.035-1.78-.035-1.78s.21-.562.963-.75c.344-.093.774-.078.774-.078s.178 1.486.393 2.356c.18.73.62 1.942.62 1.942s-.652-.077-1.075-.227m7.508 2.69s-.153.362-.49.385c-.145.01-.258-.03-.258-.03l-.132-.053-2.823-1.375s-.272-.142-.32-.39c-.055-.202.068-.452.068-.452l1.357-2.798s.12-.242.305-.325a.6.6 0 0 1 .113-.038c.202-.052.45.07.45.07l2.767 1.343s.315.143.383.405a.7.7 0 0 1-.045.43c-.158.385-1.375 2.828-1.375 2.828"/><path d="M15.67 18.003a.45.45 0 0 0-.433.345.45.45 0 0 0 .228.5.45.45 0 0 0 .568-.135.45.45 0 0 0-.046-.578l.6-1.228a.5.5 0 0 0 .155-.012.44.44 0 0 0 .178-.09 6 6 0 0 1 .665.335.5.5 0 0 1 .187.185c.048.138-.047.373-.047.373-.058.19-.46 1.014-.46 1.014a.45.45 0 0 0-.443.313.446.446 0 1 0 .758-.165l.14-.283c.125-.26.338-.76.338-.76.022-.042.142-.257.067-.532-.063-.285-.315-.418-.315-.418-.305-.197-.73-.38-.73-.38s0-.102-.028-.177a.5.5 0 0 0-.097-.157l.352-.725q-.152-.074-.305-.153l-.362.738a.449.449 0 0 0-.355.73z"/></g></svg>