<svg xmlns="http://www.w3.org/2000/svg" xml:space="preserve" fill-rule="evenodd" stroke-linejoin="round" stroke-miterlimit="1.414" clip-rule="evenodd" viewBox="0 0 24 24"><path fill="#ff7043" d="M20 18H4V8h16m0-2h-8l-2-2H4c-1.11 0-2 .89-2 2v12a2 2 0 0 0 2 2h16a2 2 0 0 0 2-2V8a2 2 0 0 0-2-2" data-folderColor="Crates"/><path fill="#ffccbc" d="M10.916 8.915h12.585v2.797H10.916zm.7 3.496h11.186V21.5H11.615zm3.846 2.098a.35.35 0 0 0-.35.35v1.049h4.195v-1.05a.35.35 0 0 0-.35-.349z" data-folderIconColor="Crates"/></svg>