<svg xmlns="http://www.w3.org/2000/svg" fill-rule="evenodd" stroke-linejoin="round" stroke-miterlimit="1.414" clip-rule="evenodd" viewBox="0 0 24 24"><path fill="#ef5350" fill-rule="nonzero" d="M10 4H4c-1.11 0-2 .89-2 2v12c0 1.097.903 2 2 2h16c1.097 0 2-.903 2-2V8a2 2 0 0 0-2-2h-8z" data-folderColor="Gulp"/><path fill="#ffcdd2" d="M14.516 16.093a595 595 0 0 1-.481-4.983c.002-.042-.225-.076-.505-.076h-.509V9.1h3.966V5.35l1.872-1.125c1.14-.685 1.978-1.125 2.143-1.125.4 0 .867.506.867.94 0 .189-.057.421-.127.517-.07.095-.722.53-1.45.965l-1.322.793-.056 2.785h3.972v1.933h-.98L20.916 21H15z" data-folderIconColor="Gulp"/></svg>