<svg xmlns="http://www.w3.org/2000/svg" xml:space="preserve" fill-rule="evenodd" stroke-linejoin="round" stroke-miterlimit="1.414" clip-rule="evenodd" viewBox="0 0 24 24"><path fill="#ffa000" fill-rule="nonzero" d="M10 4H4c-1.11 0-2 .89-2 2v12c0 1.097.903 2 2 2h16c1.097 0 2-.903 2-2V8a2 2 0 0 0-2-2h-8z" data-folderColor="Bitcoin"/><path fill="#ffecb3" d="M16.68 13.92c-.233.93-1.68.457-2.13.33l.412-1.635c.466.135 1.958.33 1.718 1.305m-2.332 1.17-.45 1.808c.555.142 2.272.69 2.527-.33.27-1.066-1.523-1.343-2.078-1.478m7.928 1.725a7.495 7.495 0 0 1-9.09 5.46 7.496 7.496 0 0 1-5.46-9.09 7.497 7.497 0 1 1 14.55 3.63m-5.617-4.777.337-1.35-.825-.188-.33 1.297c-.217-.052-.435-.105-.66-.15l.33-1.327-.818-.195-.337 1.343c-.18-.046-.36-.083-.525-.128l-1.133-.285-.224.878s.614.142.6.15c.337.082.397.292.382.48l-.922 3.697a.32.32 0 0 1-.375.202c.007.008-.6-.15-.6-.15l-.405.938 1.064.27c.203.052.398.105.593.15l-.345 1.365.825.21.338-1.358c.225.06.442.113.652.173l-.338 1.343.825.21.346-1.366c1.387.263 2.452.158 2.887-1.11.375-1.012 0-1.612-.75-1.995.54-.142.945-.48 1.058-1.214.15-.998-.616-1.53-1.65-1.89" data-folderIconColor="Bitcoin"/></svg>