<svg xmlns="http://www.w3.org/2000/svg" fill-rule="evenodd" stroke-linejoin="round" stroke-miterlimit="1.414" clip-rule="evenodd" viewBox="0 0 24 24"><path fill="#4db6ac" fill-rule="nonzero" d="M10 4H4c-1.11 0-2 .89-2 2v12c0 1.097.903 2 2 2h16c1.097 0 2-.903 2-2V8a2 2 0 0 0-2-2h-8z" data-folderColor="Core"/><path fill="#e0f2f1" d="M16.5 15.75a.75.75 0 0 1 .75.75.75.75 0 0 1-.75.75.75.75 0 0 1-.75-.75.75.75 0 0 1 .75-.75m-5.835-5.085c1.073-1.072 3.398-.592 5.835 1.005 2.438-1.598 4.763-2.077 5.835-1.005s.593 3.398-1.005 5.835c1.598 2.438 2.078 4.763 1.005 5.835s-3.398.593-5.835-1.005c-2.437 1.598-4.762 2.078-5.835 1.005-1.072-1.072-.592-3.398 1.005-5.835-1.598-2.437-2.077-4.762-1.005-5.835m8.49 3.18c.457.465.877.938 1.267 1.41 1.035-1.598 1.41-2.97.848-3.525-.555-.562-1.927-.187-3.525.848q.711.583 1.41 1.267m-5.31 5.31a22 22 0 0 1-1.267-1.41c-1.035 1.598-1.41 2.97-.848 3.525.555.563 1.928.188 3.525-.848q-.711-.583-1.41-1.267M11.73 11.73c-.562.555-.187 1.928.848 3.525q.583-.711 1.267-1.41c.465-.458.938-.877 1.41-1.267-1.598-1.035-2.97-1.41-3.525-.848m3.18 6.36a21 21 0 0 0 1.59 1.433 21 21 0 0 0 1.59-1.433 21 21 0 0 0 1.433-1.59 21 21 0 0 0-1.433-1.59 21 21 0 0 0-1.59-1.433c-.525.428-1.065.908-1.59 1.433a21 21 0 0 0-1.433 1.59c.428.525.908 1.065 1.433 1.59m6.36 3.18c.563-.555.188-1.927-.848-3.525q-.583.711-1.267 1.41-.699.684-1.41 1.267c1.598 1.035 2.97 1.41 3.525.848" data-folderIconColor="Core"/></svg>