<svg xmlns="http://www.w3.org/2000/svg" xml:space="preserve" viewBox="0 0 32 32"><path fill="#8690ba" d="M13 5.2H5.2a2.59 2.59 0 0 0-2.6 2.6v15.6c0 1.426 1.174 2.6 2.6 2.6H26c1.426 0 2.6-1.174 2.6-2.6v-13A2.6 2.6 0 0 0 26 7.8H15.6z" data-folderColor="Empties"/><path fill="#e9eaea" d="M16.8 25.3c-2.2-3.4-1.2-7 .9-9 2.2-2 5.6-2.4 8.1-.8-.5.4-.9.9-1.4 1.3-.2.1-.5.1-.8.1-1.8-.5-3.4 0-4.7 1.4-1.2 1.4-1.5 3-.9 4.7.1.2.2.4.3.7.2-.2.4-.3.5-.5l8.7-8.7.4-.4c.6-.6 1.3-.7 1.7-.2.5.5.4 1.1-.2 1.7-.4.5-.9.9-1.4 1.3-.3.3-.4.5-.1.9 1.4 2.4 1.4 4.8-.1 7.1s-3.7 3.3-6.4 3.1c-.9-.1-1.8-.5-2.7-.7 0-.1-.1-.2-.1-.3.5-.4 1-.9 1.5-1.3.2-.1.5-.1.7 0 1.9.4 3.5 0 4.8-1.5 1.2-1.5 1.4-3.1.7-4.9-.1-.1-.1-.2-.4-.6-.2.3-.3.6-.5.8-2.9 3-5.9 5.9-8.9 8.9l-.3.3c-.5.4-1.1.4-1.5 0s-.5-1.1 0-1.5c.7-.7 1.4-1.3 2.1-1.9" data-folderIconColor="Empties"/></svg>