<svg xmlns="http://www.w3.org/2000/svg" xml:space="preserve" fill-rule="evenodd" stroke-linejoin="round" stroke-miterlimit="1.414" clip-rule="evenodd" viewBox="0 0 24 24"><path fill="#e57373" d="M20 18H4V8h16m0-2h-8l-2-2H4c-1.11 0-2 .89-2 2v12a2 2 0 0 0 2 2h16a2 2 0 0 0 2-2V8a2 2 0 0 0-2-2" data-folderColor="Cake"/><path fill="#ffcdd2" d="M17.63 13.791c.398.87.165 2.134-.662 2.668a1.957 1.957 0 0 1-2.864-.884L9 17.815v4.674h13.498v-4.098a1.36 1.36 0 0 1-.522-.858 1.27 1.27 0 0 1-.53-.713 1.28 1.28 0 0 1-.934-.815 1.28 1.28 0 0 1-1.01-.946c-.404-.114-.663-.355-.797-.744-.35.017-.736-.137-1.076-.524m3.989 7.635H9.844v-.719H21.62zm0-2.396H9.844v-.75H21.62zm-4.86-5.37a1.3 1.3 0 0 0-.422-.192c-.042-.186-.087-.37-.111-.49-.164-.81-.531-1.598-1.264-2.03a.57.57 0 0 0-.85.405c-.045.333.174.502.434.633.538.27.848.783 1.054 1.341q.02.06.043.137a1.46 1.46 0 1 0 1.116.196m-.353 1.016a.365.365 0 1 1 0-.73.365.365 0 0 1 0 .73m7.232 3.671v4.142h-.777v-4.258a.98.98 0 0 1-.458-.828V17.4a.98.98 0 0 1-.705-.85.99.99 0 0 1-.95-.823.986.986 0 0 1-.984-.923.98.98 0 0 1-.856-.722.978.978 0 1 1 .824-1.223.98.98 0 0 1 1.098.915c.447.04.815.382.884.82.51 0 .937.39.982.887.53.013.955.445.955.978v.002a.979.979 0 0 1-.013 1.885" data-folderIconColor="Cake"/></svg>