<svg xmlns="http://www.w3.org/2000/svg" fill-rule="evenodd" stroke-linejoin="round" stroke-miterlimit="1.414" clip-rule="evenodd" viewBox="0 0 24 24"><path fill="#c17900" d="M20 18H4V8h16m0-2h-8l-2-2H4c-1.11 0-2 .89-2 2v12a2 2 0 0 0 2 2h16a2 2 0 0 0 2-2V8a2 2 0 0 0-2-2" data-folderColor="Grunt"/><path fill="#ffecb3" d="M12.166 10.247a2.617 2.617 0 0 1 3.863.344c.336.199.328.209.351-.091a1.31 1.31 0 0 1 .834-1.118 1.25 1.25 0 0 0 .263.731A1.55 1.55 0 0 1 18.706 9a1.11 1.11 0 0 0 .044.989A2.07 2.07 0 0 1 19.8 9.6c-.331.57-.388 1.02-.173 1.077a.3.3 0 0 0 .351-.086c1.237-1.453 3.246-1.254 3.863-.3-1.234.232-1.463.485-1.273 1.161a.11.11 0 0 0 .132.086c.878.086 1.229.688.746 1.333a1.165 1.165 0 0 0 .044 1.5c.937.651.547 1.42-.878 2.02a.73.73 0 0 0-.527.6c0 .645.088 1.848.088 1.848a1.77 1.77 0 0 0 .79-1.161 1.992 1.992 0 0 1-.659 3.4c-.39.1-.656 1.169-2.107 1.375a5.6 5.6 0 0 1-1.668.516 3.77 3.77 0 0 1-2.457-.469 2.94 2.94 0 0 1-2.151-1.29.2.2 0 0 0-.175-.129 1.971 1.971 0 0 1-.7-3.4 1.96 1.96 0 0 0 .79 1.2c.117-1.287.318-2.2-.483-2.536A1.84 1.84 0 0 1 12 15.187c-.046-.649.77-.787.78-1.2V13.3s-.307-.6-.4-.817c-.127-.685.383-.9 1.054-.989.155-.463.333-.9-1.268-1.247" data-folderIconColor="Grunt"/></svg>