<svg xmlns="http://www.w3.org/2000/svg" fill-rule="evenodd" stroke-linejoin="round" stroke-miterlimit="1.414" clip-rule="evenodd" viewBox="0 0 24 24"><path fill="#00bcd4" d="M20 18H4V8h16m0-2h-8l-2-2H4c-1.11 0-2 .89-2 2v12a2 2 0 0 0 2 2h16a2 2 0 0 0 2-2V8a2 2 0 0 0-2-2" data-folderColor="Meta"/><path fill="#b2ebf2" d="M12.2 12.6h-1.1v7.7c0 .605.495 1.1 1.1 1.1h7.7v-1.1h-7.7zm8.8-2.2h-6.6c-.605 0-1.1.495-1.1 1.1v6.6c0 .605.495 1.1 1.1 1.1H21c.605 0 1.1-.495 1.1-1.1v-6.6c0-.605-.495-1.1-1.1-1.1m-.55 4.95h-5.5v-1.1h5.5zm-2.2 2.2h-3.3v-1.1h3.3zm2.2-4.4h-5.5v-1.1h5.5z" data-iconColor="Meta"/></svg>