<svg xmlns="http://www.w3.org/2000/svg" xml:space="preserve" fill-rule="evenodd" stroke-linejoin="round" stroke-miterlimit="1.414" clip-rule="evenodd" viewBox="0 0 24 24"><path fill="#f06292" fill-rule="nonzero" d="M10 4H4c-1.11 0-2 .89-2 2v12c0 1.097.903 2 2 2h16c1.097 0 2-.903 2-2V8a2 2 0 0 0-2-2h-8z" data-folderColor="Aurelia"/><path fill="#f8bbd0" d="m17.633 12.918-1.469-2.2 1.426-.952 1.468 2.2zm5.02 9.31-2.901 1.937-2.861-4.287 2.902-1.936zm-5.554-.407-2.208 1.474-.962-1.44 2.21-1.474zm4.945-5.381.96 1.44-1.425.952-.961-1.44zm-8.89-.532-2.21 1.474-1.468-2.201 2.209-1.474zm3.654-2.439-2.902 1.936-2.852-4.274 2.902-1.936zm-6.204-1.184.548.82-.82.548-.549-.82zm2.958 9.839.547.82-.82.548-.548-.82zM9 19.32l12.84-8.588 2.52 3.572-12.957 8.646z" data-folderIconColor="Aurelia"/></svg>