<svg xmlns="http://www.w3.org/2000/svg" fill="none" viewBox="0 0 24 24"><path fill="#1e88e5" d="M20 18H4V8h16m0-2h-8l-2-2H4c-1.11 0-2 .89-2 2v12a2 2 0 0 0 2 2h16a2 2 0 0 0 2-2V8a2 2 0 0 0-2-2" data-folderColor="TotVS"/><path fill="#eceff1" fill-rule="evenodd" d="M15.576 8.107c-4.414.764-6.863 5.515-4.88 9.47 2.48 4.942 9.818 4.902 12.227-.068 2.365-4.88-1.904-10.344-7.347-9.402m.574 2.226c2.517.493 5.114 1.261 5.205 1.54.253.77.25 4.623-.005 5.092-.063.118-1.18-.011-2.033-.236l-.342-.09-.001-.416c-.004-1.248-.134-2.429-.284-2.575-.171-.168-1.28-.519-2.981-.944l-1.082-.27-.014-.255c-.032-.572.114-1.859.227-1.995.062-.075.308-.047 1.31.15m-3.236 1.809c.49.063 1.06.17 1.458.275l.175.046.03.939c.055 1.758.113 2.03.463 2.182.438.191 2.035.648 3.538 1.012l.331.08-.01.623c-.01.701-.08 1.329-.17 1.542l-.06.144-.256-.03c-.953-.108-4.08-.854-5.44-1.298-.597-.195-.742-.27-.793-.415-.225-.63-.224-4.677.001-5.088.053-.095.078-.096.733-.012" clip-rule="evenodd" data-folderIconColor="TotVS"/></svg>