<svg xmlns="http://www.w3.org/2000/svg" fill-rule="evenodd" stroke-linejoin="round" stroke-miterlimit="1.41" clip-rule="evenodd" viewBox="0 0 32 32"><path fill="#fbc02d" d="M26 23.4H5.2v-13H26m0-2.6H15.6L13 5.2H5.2a2.59 2.59 0 0 0-2.6 2.6v15.6A2.6 2.6 0 0 0 5.2 26H26a2.6 2.6 0 0 0 2.6-2.6v-13A2.6 2.6 0 0 0 26 7.8" data-folderColor="Bicep"/><path fill="#ffecb3" d="M15 25s1.15-11.115 4-15l4 1-1 3h-2v7h2c1.9-2.915 5.381-4.255 7.755-3.19 3.134 1.453 2.85 5.831 0 7.769C27.475 27.137 20.699 28.885 15 25" data-folderIconColor="Bicep"/></svg>