<svg xmlns="http://www.w3.org/2000/svg" xml:space="preserve" fill-rule="evenodd" stroke-linejoin="round" stroke-miterlimit="1.414" clip-rule="evenodd" viewBox="0 0 24 24"><path fill="#009688" d="M20 18H4V8h16m0-2h-8l-2-2H4c-1.11 0-2 .89-2 2v12a2 2 0 0 0 2 2h16a2 2 0 0 0 2-2V8a2 2 0 0 0-2-2" data-folderColor="Nuxt"/><path fill="#80eec0" d="M13.984 10.705c-.367 0-.735.182-.945.543l-4.58 7.875c-.42.723.105 1.627.945 1.627h3.577a1.05 1.05 0 0 1-.221-1.324l3.469-5.945-1.3-2.233a1.08 1.08 0 0 0-.945-.543m4.631 1.826a.9.9 0 0 0-.783.444l-3.79 6.445c-.349.591.087 1.33.782 1.33h7.582c.696 0 1.13-.739.782-1.33l-3.791-6.445a.9.9 0 0 0-.782-.444" data-folderIconColor="Nuxt"/></svg>