<svg xmlns="http://www.w3.org/2000/svg" xml:space="preserve" fill-rule="evenodd" stroke-linejoin="round" stroke-miterlimit="1.414" clip-rule="evenodd" viewBox="0 0 24 24"><path fill="#0277bd" fill-rule="nonzero" d="M10 4H4c-1.11 0-2 .89-2 2v12c0 1.097.903 2 2 2h16c1.097 0 2-.903 2-2V8a2 2 0 0 0-2-2h-8z" data-folderColor="WebComponents"/><g fill="#b3e5fc" data-folderIconColor="WebComponents"><path d="M15.06 11.95h7.085l-1.56-2.704H16.62zm4.762 2.83h3.919l-1.41-2.377h-3.928m3.768 5.657h-7.12l1.56 2.705h3.991z"/><path d="M16.612 20.765 13.278 15l3.378-5.764h-3.653L9.678 15l3.325 5.764zm3.21-5.533h3.919l-1.41 2.376h-3.928"/></g></svg>