<svg xmlns="http://www.w3.org/2000/svg" xml:space="preserve" viewBox="0 0 24 24"><path fill="#f26b00" d="M10 4H4c-1.11 0-2 .89-2 2v12c0 1.097.903 2 2 2h16c1.097 0 2-.903 2-2V8a2 2 0 0 0-2-2h-8z" data-folderColor="Platform.io"/><path fill="#ffecb3" d="M16.962 20.299c-1.01-1.613-.583-5.367 2.055-5.903.723-.116 1.608.36 1.87 1.415.658 2.239-3.218 5.374-3.925 4.488m-3.021 0c-.707.886-4.583-2.25-3.924-4.488.26-1.056 1.146-1.531 1.87-1.415 2.637.536 3.063 4.29 2.054 5.903m4.718-9.504a.906.906 0 0 0 .75-1.23.9.9 0 0 0-1.537-.224.904.904 0 0 0 .243 1.331l-.44 1.587c-1.752-.41-2.967-.38-4.638.037l-.436-1.643a.9.9 0 0 0 .108-1.434.9.9 0 0 0-1.469.507.898.898 0 0 0 .876 1.067l.437 1.648C10.85 13.006 9 14.243 9 16.95c.038 3.91 5.175 7.408 6.36 7.41 1.183 0 6.36-3.575 6.373-7.41 0-2.749-1.827-3.983-3.525-4.537zm-5.537 6.891a.817.817 0 1 0-1.634 0 .817.817 0 0 0 1.634 0m6.24 0a.817.817 0 1 0-1.634 0 .817.817 0 0 0 1.634 0" data-folderIconColor="Platform.io"/></svg>