<svg xmlns="http://www.w3.org/2000/svg" fill="none" viewBox="0 0 24 24"><path fill="#26a69a" d="M20 18H4V8h16m0-2h-8l-2-2H4c-1.11 0-2 .89-2 2v12a2 2 0 0 0 2 2h16a2 2 0 0 0 2-2V8a2 2 0 0 0-2-2" data-folderColor="Conductor"/><g fill="#b2ebf2" data-folderIconColor="Conductor"><path fill-rule="evenodd" d="M10.518 14.051q.241.082.494.082.227 0 .446-.067v4.09c0 .144.077.278.202.35l3.91 2.276a1 1 0 0 1 .765-.356 1 1 0 0 1 .822.428q.02.028.037.057l.013.023.03.055.015.03.022.052.015.037.015.05.013.047.01.045.01.06.004.035q.005.049.005.1 0 .079-.012.154v.02c-.085.476-.499.84-.994.84a1.01 1.01 0 0 1-.955-.69l-4.194-2.44a1.36 1.36 0 0 1-.673-1.171zm10.975-2.487a1.012 1.012 0 0 1 .66 1.777v4.814a1.35 1.35 0 0 1-.672 1.171l-3.602 2.094a1.6 1.6 0 0 0-.309-.915l3.442-2a.4.4 0 0 0 .202-.352v-4.6a1.017 1.017 0 0 1-.533-1.575c0-.003.005-.005.005-.008a1 1 0 0 1 .075-.09v-.004a1.2 1.2 0 0 1 .209-.165q.041-.024.082-.045l.025-.012a1 1 0 0 1 .11-.043l.072-.02q.112-.026.232-.027zM16.337 9c.232 0 .464.06.673.182l3.624 2.106c-.27.183-.475.446-.586.752l-3.51-2.038a.4.4 0 0 0-.2-.055.4.4 0 0 0-.203.055l-4.131 2.402a1.02 1.02 0 0 1-.646 1.129l-.01.002q-.046.016-.092.027l-.02.006-.09.017h-.025a.6.6 0 0 1-.112.01 1 1 0 0 1-.244-.03q-.014-.002-.027-.007a1 1 0 0 1-.224-.092l-.06-.038a1.01 1.01 0 0 1-.454-.847 1.02 1.02 0 0 1 1.012-1.017q.217 0 .406.088l4.246-2.47A1.35 1.35 0 0 1 16.337 9" clip-rule="evenodd"/><path d="m17.434 14.966.645-.469a.56.56 0 0 1 .33-.107h.246a.41.41 0 0 0 .416.326h.747c.232 0 .422-.174.422-.386v-.329c0-.214-.19-.386-.422-.386h-.747a.414.414 0 0 0-.416.329h-.247a1 1 0 0 0-.59.192l-.646.468a.56.56 0 0 1-.329.107h-1.43a.57.57 0 0 0-.322-.1h-2.088a.567.567 0 0 0-.566.567v1.104c0 .311.254.565.566.565h2.088a.57.57 0 0 0 .322-.1h1.43q.182.002.329.108l.645.468c.172.125.38.192.591.192h.247a.41.41 0 0 0 .416.327h.747c.232 0 .422-.175.422-.387v-.329c0-.214-.19-.386-.422-.386h-.747a.414.414 0 0 0-.416.327h-.247a.56.56 0 0 1-.33-.108l-.644-.468a1 1 0 0 0-.59-.192h-1.19v-.344h2.998a.41.41 0 0 0 .416.327h.748c.232 0 .421-.175.421-.387v-.329c0-.214-.19-.386-.42-.386h-.748a.41.41 0 0 0-.417.329h-2.998v-.344h1.19a1 1 0 0 0 .59-.192zm1.662-.902h.692v.206h-.692zm0 3.122h.692v.207h-.692zm0-1.562h.692v.206h-.692zm-4.005.772h-2.088a.12.12 0 0 1-.083-.034.12.12 0 0 1-.034-.083v-1.104c0-.065.052-.117.117-.117h2.088c.065 0 .117.052.117.117v1.104a.117.117 0 0 1-.117.117"/></g></svg>