<svg xmlns="http://www.w3.org/2000/svg" fill-rule="evenodd" stroke-linejoin="round" stroke-miterlimit="1.414" clip-rule="evenodd" viewBox="0 0 24 24"><path fill="#607d8b" d="M20 18H4V8h16m0-2h-8l-2-2H4c-1.11 0-2 .89-2 2v12a2 2 0 0 0 2 2h16a2 2 0 0 0 2-2V8a2 2 0 0 0-2-2" data-folderColor="Constants"/><path fill="#cfd8dc" d="M13.065 12.56H11.25a.607.607 0 0 0-.605.605v7.264c0 .333.272.605.605.605h1.816a.607.607 0 0 0 .605-.605v-7.264a.607.607 0 0 0-.605-.605zm8.474 0h-1.816a.607.607 0 0 0-.605.605v7.264c0 .333.272.605.605.605h1.816a.607.607 0 0 0 .605-.605v-7.264a.607.607 0 0 0-.605-.605m-4.237 0h-1.816a.607.607 0 0 0-.605.605v7.264c0 .333.272.605.605.605h1.816a.607.607 0 0 0 .605-.605v-7.264a.607.607 0 0 0-.605-.605" data-folderIconColor="Constants"/></svg>