<svg xmlns="http://www.w3.org/2000/svg" xml:space="preserve" fill-rule="evenodd" stroke-linejoin="round" stroke-miterlimit="1.414" clip-rule="evenodd" viewBox="0 0 24 24"><path fill="#009688" d="M20 18H4V8h16m0-2h-8l-2-2H4c-1.11 0-2 .89-2 2v12a2 2 0 0 0 2 2h16a2 2 0 0 0 2-2V8a2 2 0 0 0-2-2" data-folderColor="CNAB"/><path fill="#b2dfdb" d="M16.328 17.612h4.968v4.968h-4.968zm5.092-6.832h-4.347v3.354l-1.987-3.975-3.105 6.21h6.21l-.62-1.242h3.85zm-7.866 0-2.774 5.382V10.78zM9 9v4.347h.621V9.621h3.726V9zm9.73 0v.621h3.726v3.726h.62V9zm3.726 11.013v3.726h-3.727v.621h4.348v-4.347zm-7.538 1.016c1.189-2.06-.31-4.651-2.69-4.653s-3.877 2.588-2.685 4.65 4.185 2.063 5.375.003" data-folderIconColor="CNAB"/></svg>