<svg xmlns="http://www.w3.org/2000/svg" viewBox="0 0 16 16"><path fill="currentColor" d="M2.094 1.658v.002c-.03 0-.054 0-.069.018-.479.479 6.067 6.488 6.067 6.488l2.453 2.334c-.791 1.845 1.688 1.875 2.223 2.81.235.41-.052.968-.479.997.85.28 1.992-1.35 1.649-2.27-.41-1.099-.826-1.574-1.606-1.908-.322-.138-1.142-.15-1.428.012L8.633 7.627s-5.61-5.888-6.54-5.969m1.035 5.834c-.217.001-.285.316-.285.746.04.85.579 3.33 3.25 5.137 2.249 1.522 6.366.971 6.299.107-.905-1.124-2.42-.422-2.44-3.113-.88.01-1.828-.13-1.793.24.148 1.552-2.313.433-3.267-1.15-.958-1.451-1.485-1.966-1.764-1.965zm3.506 1.916c-.146 0-.263.049-.319.145-.11.192.069.506.403.699s.695.192.806 0-.07-.505-.404-.697c-.167-.096-.486.001-.486-.145z" color="#5d656b"/></svg>