<svg xmlns="http://www.w3.org/2000/svg" xml:space="preserve" viewBox="0 0 24 24"><path fill="#78909c" d="M20 18H4V8h16m0-2h-8l-2-2H4c-1.11 0-2 .89-2 2v12a2 2 0 0 0 2 2h16a2 2 0 0 0 2-2V8a2 2 0 0 0-2-2" data-folderColor="Domain"/><path fill="#cfd8dc" d="M17.3 21.7c-3.4 0-6.2-2.8-6.2-6.2s2.8-6.2 6.2-6.2 6.2 2.8 6.2 6.2-2.8 6.2-6.2 6.2m1-6.2v2.3q0 .3.3.3h1.5q.3 0 .3-.3V14c0-.1 0-.2-.2-.3l-2.7-2.1c-.2-.1-.3-.1-.4 0-.9.7-1.7 1.4-2.6 2.1-.1.1-.2.2-.2.3v3.8q0 .3.3.3H16c.3 0 .3-.1.3-.3v-2.3z" data-folderIconColor="Domain"/></svg>