<svg xmlns="http://www.w3.org/2000/svg" xml:space="preserve" fill-rule="evenodd" stroke-linejoin="round" stroke-miterlimit="1.414" clip-rule="evenodd" viewBox="0 0 24 24"><path fill="#fbc02d" d="M20 18H4V8h16m0-2h-8l-2-2H4c-1.11 0-2 .89-2 2v12a2 2 0 0 0 2 2h16a2 2 0 0 0 2-2V8a2 2 0 0 0-2-2" data-folderColor="Firebase"/><path fill="#fff9c4" d="m23.724 18.322-4.204 2.333a.89.89 0 0 1-.864 0l-4.147-2.333 7.516-7.574.202-.057q.26-.001.288.23zm-6.134-7.459-2.62 4.349 1.094-6.883q.027-.231.288-.23c.115 0 .19.035.23.144l1.239 2.275zm2.591.725-5.5 5.524 4.175-7.085c.058-.115.144-.167.26-.167s.19.052.23.167z" data-folderIconColor="Firebase"/></svg>