<svg xmlns="http://www.w3.org/2000/svg" xml:space="preserve" fill-rule="evenodd" stroke-linejoin="round" stroke-miterlimit="1.414" clip-rule="evenodd" viewBox="0 0 24 24"><path fill="#d32f2f" d="M20 18H4V8h16m0-2h-8l-2-2H4c-1.11 0-2 .89-2 2v12a2 2 0 0 0 2 2h16a2 2 0 0 0 2-2V8a2 2 0 0 0-2-2" data-folderColor="Dub"/><path fill="#f48fb1" d="M15.993 18.71c-.911-.525-.911-1.847 0-2.372s2.058.135 2.058 1.186-1.146 1.712-2.058 1.186m2.285-2.943a.484.484 0 1 0-.967 0 .484.484 0 0 0 .967 0m3.928-3.017h-3.782v4.995c0 .982-.883 1.557-1.76 1.55-.864-.007-1.723-.581-1.723-1.55v-1.678c0-1.384-.493-2.132-1.142-2.667-.593-.488-1.278-.65-2.64-.65H9v7.85h3.248c.787-.018 1.331-.379 1.764-.814a3 3 0 0 1-.768-1.154c-.282.366-.594.659-1.06.713h-1.885v-5.24h1.436c1.24-.066 1.905.866 1.905 1.642v2.112c0 1.315 1.28 2.751 2.946 2.751 1.987 0 3.163-1.576 3.163-3.019v-3.418h2.372c1.125 0 1.125 1.752 0 1.752h-1.868v1.283H21.9c1.303 0 1.474 1.873.306 2.094h-2.513c-.239.476-.605.898-1.048 1.297h3.678c.936 0 2.034-.862 2.034-2.458 0-.6-.318-1.178-.64-1.553 1.424-1.51.29-3.775-1.51-3.838" data-folderIconColor="Dub"/></svg>