<svg xmlns="http://www.w3.org/2000/svg" fill-rule="evenodd" stroke-linejoin="round" stroke-miterlimit="1.414" clip-rule="evenodd" viewBox="0 0 24 24"><path fill="#bdbdbd" d="M20 18H4V8h16m0-2h-8l-2-2H4c-1.11 0-2 .89-2 2v12a2 2 0 0 0 2 2h16a2 2 0 0 0 2-2V8a2 2 0 0 0-2-2" data-folderColor="Keys"/><path fill="#fff" d="M16.935 16.425a3.54 3.54 0 0 0-3.339-2.363 3.55 3.55 0 0 0-3.545 3.545 3.55 3.55 0 0 0 3.545 3.546 3.54 3.54 0 0 0 3.339-2.364h2.57v2.364h2.364v-2.364h1.182v-2.364zm-3.339 2.364c-.65 0-1.182-.532-1.182-1.182s.532-1.182 1.182-1.182 1.182.532 1.182 1.182-.532 1.182-1.182 1.182" data-folderIconColor="Keys"/></svg>