<svg xmlns="http://www.w3.org/2000/svg" xml:space="preserve" fill-rule="evenodd" stroke-linejoin="round" stroke-miterlimit="1.414" clip-rule="evenodd" viewBox="0 0 24 24"><path fill="#689f38" d="M20 18H4V8h16m0-2h-8l-2-2H4c-1.11 0-2 .89-2 2v12a2 2 0 0 0 2 2h16a2 2 0 0 0 2-2V8a2 2 0 0 0-2-2" data-folderColor="Buildkite"/><path fill="#dcedc8" d="m24.36 14.095-5.08 2.585v-5.129zm-5.44-2.367-4.62 2.279v5.128l4.62-2.278zm-4.98 2.278L9 11.55v5.129l4.94 2.454zm5.34 3.078v4.725l5.08-2.585v-4.725z" data-folderIconColor="Buildkite"/></svg>