<svg xmlns="http://www.w3.org/2000/svg" fill-rule="evenodd" stroke-linejoin="round" stroke-miterlimit="1.414" clip-rule="evenodd" viewBox="0 0 24 24"><path fill="#009688" fill-rule="nonzero" d="M10 4H4c-1.11 0-2 .89-2 2v12c0 1.097.903 2 2 2h16c1.097 0 2-.903 2-2V8a2 2 0 0 0-2-2h-8z" data-folderColor="Lottie"/><path fill="#b2dfdb" d="M22.681 10.2c-3.563 0-4.878 2.541-5.937 4.583l-.698 1.305c-1.123 2.165-1.962 3.48-4.123 3.48a1.02 1.02 0 0 0-1.023 1.023 1.02 1.02 0 0 0 1.023 1.022c3.564 0 4.878-2.541 5.938-4.583l.692-1.305c1.124-2.165 1.963-3.48 4.124-3.48a1.02 1.02 0 0 0 1.023-1.023 1.02 1.02 0 0 0-1.023-1.022z" data-folderIconColor="Lottie"/></svg>