<svg xmlns="http://www.w3.org/2000/svg" viewBox="0 0 64 64"><rect width="56" height="36" x="4" y="22" opacity=".2" rx="2.8" ry="2.8"/><path fill="#bea389" d="M4 46.2C4 47.751 5.249 49 6.8 49h50.4c1.551 0 2.8-1.249 2.8-2.8V15.8c0-1.551-1.249-2.8-2.8-2.8H32c-4.2 0-5.6-6-9.8-6H6.8A2.794 2.794 0 0 0 4 9.8"/><rect width="56" height="36" x="4" y="20" opacity=".2" rx="2.8" ry="2.8"/><rect width="48" height="22" x="8" y="16" fill="#e4e4e4" rx="2.8" ry="2.8"/><rect width="56" height="36" x="4" y="21" fill="#d1bfae" rx="2.8" ry="2.8"/><path fill="#fff" d="M6.8 7C5.25 7 4 8.25 4 9.8v1.001A2.795 2.795 0 0 1 6.8 8h15.4c4.2 0 5.601 6 9.801 6H57.2a2.796 2.796 0 0 1 2.8 2.801v-1A2.796 2.796 0 0 0 57.199 13H32c-4.2 0-5.601-6-9.801-6Z" opacity=".1"/><path fill="#a38d7b" d="M24 28c-1.662 0-3 1.338-3 3v4c0 1.662 1.338 3 3 3h4c1.662 0 3-1.338 3-3v-4c0-1.662-1.338-3-3-3zm12 0c-1.662 0-3 1.338-3 3v4c0 1.662 1.338 3 3 3h4c1.662 0 3-1.338 3-3v-4c0-1.662-1.338-3-3-3zM24 40c-1.662 0-3 1.338-3 3v4c0 1.662 1.338 3 3 3h4c1.662 0 3-1.338 3-3v-4c0-1.662-1.338-3-3-3zm13 0c-.554 0-1 .446-1 1v2h-1.5c-1.29 0-1.978 1.518-1.129 2.488l3.5 4a1.5 1.5 0 0 0 2.258 0l3.5-4c.849-.97.16-2.488-1.129-2.488H40v-2c0-.554-.446-1-1-1z"/></svg>