<svg xmlns="http://www.w3.org/2000/svg" fill="none" viewBox="0 0 60 60"><path fill="#f90" d="M25 10H10c-2.775 0-5 2.225-5 5v30c0 2.742 2.258 5 5 5h40c2.742 0 5-2.258 5-5V20a5 5 0 0 0-5-5H30z" data-folderColor="Storage"/><path fill="#ffd391" d="m29.307 31.533 14.2 6.713V56.27l-14.2-6.714zm29.286.027-14.2 6.713v18.024l14.2-6.713zM43.95 25.473l14.077 5.484-14.077 6.619-13.983-6.62z" data-folderIconColor="Storage"/><path fill="#f90" fill-rule="evenodd" d="m39.456 27.191-3.846 1.491 14.765 6.652-.085 6.554 3.23-1.604-.026-6.92z" clip-rule="evenodd" data-folderColor="Storage"/></svg>