<svg xmlns="http://www.w3.org/2000/svg" fill-rule="evenodd" stroke-linejoin="round" stroke-miterlimit="1.414" clip-rule="evenodd" viewBox="0 0 24 24"><path fill="#ef5350" d="M20 18H4V8h16m0-2h-8l-2-2H4c-1.11 0-2 .89-2 2v12a2 2 0 0 0 2 2h16a2 2 0 0 0 2-2V8a2 2 0 0 0-2-2" data-folderColor="App"/><path fill="#ffcdd2" d="M11.375 11.618h3.081V8.537h-3.081zm4.622 9.244h3.081V17.78h-3.081zm-4.622 0h3.081V17.78h-3.081zm0-4.622h3.081v-3.081h-3.081zm4.622 0h3.081v-3.081h-3.081zm4.622-7.703v3.081H23.7V8.537zm-4.622 3.081h3.081V8.537h-3.081zm4.622 4.622H23.7v-3.081h-3.081zm0 4.622H23.7V17.78h-3.081z" data-folderIconColor="App"/></svg>