<svg xmlns="http://www.w3.org/2000/svg" xml:space="preserve" fill-rule="evenodd" stroke-linejoin="round" stroke-miterlimit="1.414" clip-rule="evenodd" viewBox="0 0 24 24"><path fill="#f06292" fill-rule="nonzero" d="M10 4H4c-1.11 0-2 .89-2 2v12c0 1.097.903 2 2 2h16c1.097 0 2-.903 2-2V8a2 2 0 0 0-2-2h-8z" data-folderColor="Archetype"/><path fill="#f8bbd0" d="M23.419 20.708v1.51l-1.282-.834-3.41-6.408c.47-.15.897-.391 1.267-.712zm-3.56-9.17a2.136 2.136 0 0 1-2.136 2.135h-.313l-4.101 7.711-1.282.833v-1.509l4.123-7.747a2.14 2.14 0 0 1 .17-3.019 2.12 2.12 0 0 1 1.403-.54V7.976a.71.71 0 0 1 .712.712v.84a2.125 2.125 0 0 1 1.424 2.008m-1.424 0a.71.71 0 0 0-.712-.712.71.71 0 0 0-.712.712.71.71 0 0 0 .712.712.71.71 0 0 0 .712-.712" data-folderIconColor="Archetype"/></svg>