<svg xmlns="http://www.w3.org/2000/svg" xml:space="preserve" stroke-miterlimit="10" viewBox="0 0 24 24"><path fill="#c62828" d="M10 4H4c-1.11 0-2 .89-2 2v12c0 1.097.903 2 2 2h16c1.097 0 2-.903 2-2V8a2 2 0 0 0-2-2h-8z" data-folderColor="OpenShift"/><g fill="#ffcdd2" data-folderIconColor="OpenShift"><path d="M22.75 14.124a5.4 5.4 0 0 0-.466-.791l-1.91.695q.33.34.561.756zm-8.444 2.113-1.911.695q.038.458.151.906l1.815-.661a3.6 3.6 0 0 1-.055-.94"/><path d="M18.547 13.583c.385.18.735.43 1.032.735l1.91-.696a5.43 5.43 0 0 0-2.133-1.774 5.47 5.47 0 0 0-7.263 2.642 5.4 5.4 0 0 0-.493 2.731l1.91-.695c.032-.424.14-.84.318-1.226a3.554 3.554 0 0 1 4.719-1.717m2.037 3.49c-.031.426-.14.841-.32 1.227a3.554 3.554 0 0 1-4.719 1.718 3.5 3.5 0 0 1-1.034-.734l-1.906.693a5.4 5.4 0 0 0 2.131 1.776 5.47 5.47 0 0 0 7.262-2.644 5.4 5.4 0 0 0 .493-2.73z"/><path d="m21.054 14.741-1.815.66a3.56 3.56 0 0 1 .444 2l1.906-.693a5.5 5.5 0 0 0-.535-1.967m-8.389 3.053-1.815.661c.167.665.457 1.292.854 1.85l1.906-.693a3.57 3.57 0 0 1-.944-1.818m9.807-4.174a5 5 0 0 0-.189-.287l-1.91.695q.125.13.235.271zm-8.175 3a3 3 0 0 1 .007-.383l-1.91.695a5 5 0 0 0 .043.365zm8.192-.24-1.906.694q-.031.419-.161.82l2.075-.757a5.5 5.5 0 0 0-.008-.757m-9.885 3.598q.221.31.486.59l2.075-.757a3.5 3.5 0 0 1-.655-.527z"/></g></svg>