<svg xmlns="http://www.w3.org/2000/svg" style="isolation:isolate" viewBox="0 0 20 18"><path fill="#1976d2" d="M16 14.4H3.2v-8H16m0-1.6H9.6L8 3.2H3.2c-.888 0-1.6.712-1.6 1.6v9.6A1.6 1.6 0 0 0 3.2 16H16a1.6 1.6 0 0 0 1.6-1.6v-8A1.6 1.6 0 0 0 16 4.8" data-folderColor="Strategy"/><path fill="#4fc3f7" d="m11.783 9.92 1.043 1.039-.644.644-1.039-1.044-1.038 1.044-.644-.644 1.043-1.039-1.043-1.039.644-.644 1.038 1.043 1.039-1.043.644.644m5.898 5.897-.644-.644-1.039 1.043-1.039-1.043-.644.644 1.043 1.039-1.043 1.039.644.644 1.039-1.043L18.08 17.5l.644-.644-1.044-1.039m.223-5.294-1.461 1.892-.717-.576.531-.681a4.12 4.12 0 0 0-3.021 2.55 2.041 2.041 0 1 1-1.184-.386q.178.002.354.036a5.11 5.11 0 0 1 3.697-3.093l-.649-.49.576-.717m-2.844 6.305a1.134 1.134 0 1 0-2.269 0 1.134 1.134 0 0 0 2.269 0" data-folderIconColor="Strategy"/></svg>