<svg xmlns="http://www.w3.org/2000/svg" xml:space="preserve" fill-rule="evenodd" stroke-linejoin="round" stroke-miterlimit="1.414" clip-rule="evenodd" viewBox="0 0 24 24"><path fill="#795548" d="M20 18H4V8h16m0-2h-8l-2-2H4c-1.11 0-2 .89-2 2v12a2 2 0 0 0 2 2h16a2 2 0 0 0 2-2V8a2 2 0 0 0-2-2" data-folderColor="NuGet"/><path fill="#bcaaa4" d="M15.57 11.112h4.566a4.224 4.224 0 0 1 4.224 4.224v4.565a4.224 4.224 0 0 1-4.224 4.224h-4.565a4.224 4.224 0 0 1-4.224-4.224v-4.565a4.224 4.224 0 0 1 4.224-4.224m-3.583-.384c0-1.145-1.249-1.865-2.242-1.292s-.993 2.012 0 2.584 2.242-.147 2.242-1.292m4.266 4.181c0-1.211-1.32-1.972-2.37-1.367s-1.05 2.129 0 2.734 2.37-.155 2.37-1.367m6.187 4.992c0-2.094-2.283-3.41-4.1-2.363s-1.815 3.68 0 4.727 4.1-.269 4.1-2.364" data-folderIconColor="NuGet"/></svg>