<svg xmlns="http://www.w3.org/2000/svg" viewBox="0 0 64 64"><rect width="56" height="36" x="4" y="22" opacity=".2" rx="2.8" ry="2.8"/><path fill="#727272" d="M4 46.2C4 47.751 5.249 49 6.8 49h50.4c1.551 0 2.8-1.249 2.8-2.8V15.8c0-1.551-1.249-2.8-2.8-2.8H32c-4.2 0-5.6-6-9.8-6H6.8A2.794 2.794 0 0 0 4 9.8"/><rect width="56" height="36" x="4" y="20" opacity=".2" rx="2.8" ry="2.8"/><rect width="48" height="22" x="8" y="16" fill="#e4e4e4" rx="2.8" ry="2.8"/><rect width="56" height="36" x="4" y="21" fill="#8e8e8e" rx="2.8" ry="2.8"/><path fill="#fff" d="M6.8 7C5.25 7 4 8.25 4 9.8v1.001A2.795 2.795 0 0 1 6.8 8h15.4c4.2 0 5.601 6 9.801 6H57.2a2.796 2.796 0 0 1 2.8 2.801v-1A2.796 2.796 0 0 0 57.199 13H32c-4.2 0-5.601-6-9.801-6Z" opacity=".1"/><path fill="#323232" d="M32.673 27.002a1.73 1.73 0 0 0-1.074.426l-5.336 4.541c-.292.261-.489.61-.549.992l-.52 3.361.44.24c1.226.785 2.881 2.072 3.75 4.151v.002q.12.287.219.586a14 14 0 0 1 2.24-.289c-.665-1.915-.891-3.453-.834-4.739.068-1.533.534-2.698 1.023-3.679 0 0 .246-.477.367-.705.36-.681.679-1.289.848-1.924.181-.695.207-1.296-.094-2.26l-.277-.699a2 2 0 0 0-.203-.004m1.547.795c.228.929.185 1.696-.004 2.424v.002c-.207.781-.574 1.453-.932 2.132l-.357.688c-.462.927-.858 1.919-.918 3.273-.053 1.205.181 2.726.91 4.709a7.4 7.4 0 0 1 2.018.418c1.83.667 3.485 2.186 4.802 4.944.556-.883 1.831-2.905 2.147-3.424a.84.84 0 0 0-.069-.942c-.55-.715-1.839-1.966-2.414-3.306-.59-1.383-.397-3.534-.404-4.576 0-.399-.115-.797-.381-1.098Zm-9.203 9.566-2.868 6.287a1.65 1.65 0 0 0 .334 1.852l4.723 4.16.158-.31c2.036-4.04 1.932-6.265 1.098-8.25l-.002-.002c-.748-1.792-2.205-2.951-3.356-3.688Zm7.293 4.639a8 8 0 0 0-.342.006c-.684.023-1.39.122-2.11.267.372 1.926.041 4.266-1.601 7.526l-.102.199c.05 0 1.225-.01 2.655.092 1.463.1 3.615.45 5.082.847 1.14.308 1.781-.587 2.443-1.734.35-.607.63-1.28.799-1.703l-.281-.65c-1.244-2.621-2.689-3.897-4.258-4.469-.726-.264-1.491-.377-2.285-.381"/></svg>