<svg xmlns="http://www.w3.org/2000/svg" xml:space="preserve" fill-rule="evenodd" stroke-linejoin="round" stroke-miterlimit="1.414" clip-rule="evenodd" viewBox="0 0 24 24"><path fill="#9c27b0" fill-rule="nonzero" d="M10 4H4c-1.11 0-2 .89-2 2v12c0 1.097.903 2 2 2h16c1.097 0 2-.903 2-2V8a2 2 0 0 0-2-2h-8z" data-folderColor="Stencil"/><g fill="#c792ea" stroke="#c792ea" stroke-width=".75" data-folderIconColor="Stencil"><path d="M20.375 19.65c0 .55-.8 1-1.35 1h-2.15c-.55 0-1.35-.45-1.35-1v-.05h4.85zm0-1.15h-3.5c-.55 0-1.35-.45-1.35-1h3.5c.55 0 1.35.45 1.35 1zm0-2.1h-4.8v-.05c0-.55.8-1 1.35-1h2.2c.55 0 1.35.45 1.35 1v.05z"/><path d="M19.575 13.325c1.65 0 3.05 1.35 3.05 3.05v3.25c0 1.65-1.35 3.05-3.05 3.05h-3.2c-1.65 0-3.05-1.35-3.05-3.05v-3.25c0-1.65 1.35-3.05 3.05-3.05h3.2m0-.5h-3.2c-1.95 0-3.55 1.6-3.55 3.55v3.25c0 1.95 1.6 3.55 3.55 3.55h3.25c1.95 0 3.55-1.6 3.55-3.55v-3.25c-.05-1.95-1.65-3.55-3.6-3.55z"/></g></svg>