<svg xmlns="http://www.w3.org/2000/svg" fill-rule="evenodd" stroke-linejoin="round" stroke-miterlimit="1.414" clip-rule="evenodd" viewBox="0 0 24 24"><path fill="#5c6bc0" d="M20 18H4V8h16m0-2h-8l-2-2H4c-1.11 0-2 .89-2 2v12a2 2 0 0 0 2 2h16a2 2 0 0 0 2-2V8a2 2 0 0 0-2-2" data-folderColor="Projects"/><path fill="#c5cae9" d="M15.6 10.8H18a1.2 1.2 0 0 1 1.2 1.2v1.2h2.4a1.2 1.2 0 0 1 1.2 1.2V21a1.2 1.2 0 0 1-1.2 1.2H12a1.2 1.2 0 0 1-1.2-1.2v-6.6c0-.666.534-1.2 1.2-1.2h2.4V12c0-.666.534-1.2 1.2-1.2m2.4 2.4V12h-2.4v1.2z" data-folderIconColor="Projects"/></svg>