<svg xmlns="http://www.w3.org/2000/svg" fill-rule="evenodd" stroke-linejoin="round" stroke-miterlimit="1.414" clip-rule="evenodd" viewBox="0 0 24 24"><path fill="#8d6e63" d="M20 18H4V8h16m0-2h-8l-2-2H4c-1.11 0-2 .89-2 2v12a2 2 0 0 0 2 2h16a2 2 0 0 0 2-2V8a2 2 0 0 0-2-2" data-folderColor="Scratch"/><path fill="#bcaaa4" d="m13.5 23 .75-.75.75.75.75-.75.75.75.75-.75.75.75.75-.75.75.75.75-.75.75.75.75-.75.75.75V13l-.75.75L21 13l-.75.75-.75-.75-.75.75L18 13l-.75.75-.75-.75-.75.75L15 13l-.75.75-.75-.75m7.5 3.5h-6v-1h6m0 3h-6v-1h6m0 3h-6v-1h6z" data-folderIconColor="Scratch"/></svg>