<svg xmlns="http://www.w3.org/2000/svg" fill="none" viewBox="0 0 24 24"><path fill="#ffb74d" d="M20 18H4V8h16m0-2h-8l-2-2H4c-1.11 0-2 .89-2 2v12a2 2 0 0 0 2 2h16a2 2 0 0 0 2-2V8a2 2 0 0 0-2-2" data-folderColor="Parcel"/><path fill="#ffe0b2" d="M12.292 14.376a.57.57 0 0 1-.272-.364.62.62 0 0 1 .06-.458L12.937 12a.56.56 0 0 1 .269-.252l4.473-2.64A.52.52 0 0 1 18.004 9c.12 0 .234.036.326.108l4.513 2.664c.108.06.2.156.251.276l.829 1.512a.613.613 0 0 1-.206.816l-.571.348V17.7a.6.6 0 0 1-.303.528l-4.513 2.664a.52.52 0 0 1-.326.108.52.52 0 0 1-.325-.108l-4.513-2.664a.6.6 0 0 1-.222-.22.6.6 0 0 1-.081-.308v-3.324a.56.56 0 0 1-.571 0m5.712-4.086v4.02l3.405-2.01zm-3.999 7.056 3.428 2.028v-4.026l-3.428-2.022zm7.998 0v-1.932l-2.856 1.74a.57.57 0 0 1-.571.006v2.214zm-2.942-1.53 3.588-2.178-.332-.606-3.587 2.178z" data-folderIconColor="Parcel"/></svg>