<svg xmlns="http://www.w3.org/2000/svg" xml:space="preserve" fill-rule="evenodd" stroke-linejoin="round" stroke-miterlimit="1.414" clip-rule="evenodd" viewBox="0 0 24 24"><path fill="#5d4037" fill-rule="nonzero" d="M10 4H4c-1.11 0-2 .89-2 2v12c0 1.097.903 2 2 2h16c1.097 0 2-.903 2-2V8a2 2 0 0 0-2-2h-8z" data-folderColor="Deno"/><path fill="#d7ccc8" d="M10.772 20.228c-1.466-1.775-1.732-3.442-1.77-4.876-.032-1.166.45-2.109 1.27-2.913 1.093-1.073 2.445-1.6 3.89-2.007 1.47-.414 2.85-.164 4.228.333.514.185 1.046.316 1.543.55 1.18.554 2.206 1.327 3.144 2.225.586.562 1.035 1.206 1.206 2.017.126.597.08 1.2-.011 1.79-.178 1.15-.596 2.21-1.306 3.144a7.2 7.2 0 0 1-1.438 1.404c-.404.302-.783.647-1.204.926a.32.32 0 0 1 .016-.23c.126-.261.103-.538.101-.89-.101-1.089-.255-2.251-.307-3.418-.058-1.302-.317-2.366-1.032-3.413a4.5 4.5 0 0 0-1.458-1.328c-.81-.36-.877-.493-2.572-.264-.896.169-1.833.424-2.786.974 0 0 .122.06.267.2.099.097.108.219.055.38-.044.134-.134.23-.29.22-.227-.017-.371-.166-.386-.32-.006-.074-.012-.206.052-.3-.587.454-.86.873-1.073 1.407-.082.203-.061.41-.029.62.114.74.817 1.221 1.401 1.34.42.087.85.119 1.278.15.943.072 2.08-.274 2.958-.57.181-.062.473-.175.566.123.097.306-.323.463-.528.514-.245.06-.737.263-.737.263.294 1.758.318 3.326.14 4.858a12 12 0 0 1-2.06-.415c-.953-.304-1.577-.615-3.128-2.494m3.565-5.633c-.258.007-.496.093-.524.405-.025.268.138.384.384.393.279.011.48-.091.521-.391.004-.266-.129-.415-.38-.407" data-folderIconColor="Deno"/></svg>