<svg xmlns="http://www.w3.org/2000/svg" viewBox="0 0 64 64"><rect width="56" height="36" x="4" y="22" opacity=".2" rx="2.8" ry="2.8"/><path fill="#bea389" d="M4 46.2C4 47.751 5.249 49 6.8 49h50.4c1.551 0 2.8-1.249 2.8-2.8V15.8c0-1.551-1.249-2.8-2.8-2.8H32c-4.2 0-5.6-6-9.8-6H6.8A2.794 2.794 0 0 0 4 9.8"/><rect width="56" height="36" x="4" y="20" opacity=".2" rx="2.8" ry="2.8"/><rect width="48" height="22" x="8" y="16" fill="#e4e4e4" rx="2.8" ry="2.8"/><rect width="56" height="36" x="4" y="21" fill="#d1bfae" rx="2.8" ry="2.8"/><path fill="#fff" d="M6.8 7C5.25 7 4 8.25 4 9.8v1.001A2.795 2.795 0 0 1 6.8 8h15.4c4.2 0 5.601 6 9.801 6H57.2a2.796 2.796 0 0 1 2.8 2.801v-1A2.796 2.796 0 0 0 57.199 13H32c-4.2 0-5.601-6-9.801-6Z" opacity=".1"/><path fill="#a38d7b" d="M31.333 31c-2.857.003-5.394 1.99-6.309 4.942-1.847.968-3.022 3.005-3.024 5.24C22 44.395 24.388 47 27.333 47c1.308-.003 2.569-.529 3.544-1.48q.228.021.456.026a6.2 6.2 0 0 0 2.817-.693 5 5 0 0 0 2.516.693c2.946 0 5.335-2.606 5.334-5.82 0-3.213-2.388-5.818-5.333-5.818h-.011c-1.257-1.828-3.228-2.904-5.323-2.908"/></svg>