<svg xmlns="http://www.w3.org/2000/svg" viewBox="0 0 64 64"><rect width="56" height="36" x="4" y="22" opacity=".2" rx="2.8" ry="2.8"/><path fill="#60924b" d="M4 46.2C4 47.751 5.249 49 6.8 49h50.4c1.551 0 2.8-1.249 2.8-2.8V15.8c0-1.551-1.249-2.8-2.8-2.8H32c-4.2 0-5.6-6-9.8-6H6.8A2.794 2.794 0 0 0 4 9.8"/><rect width="56" height="36" x="4" y="20" opacity=".2" rx="2.8" ry="2.8"/><rect width="48" height="22" x="8" y="16" fill="#e4e4e4" rx="2.8" ry="2.8"/><rect width="56" height="36" x="4" y="21" fill="#87b158" rx="2.8" ry="2.8"/><path fill="#fff" d="M6.8 7C5.25 7 4 8.25 4 9.8v1.001A2.795 2.795 0 0 1 6.8 8h15.4c4.2 0 5.601 6 9.801 6H57.2a2.796 2.796 0 0 1 2.8 2.801v-1A2.796 2.796 0 0 0 57.199 13H32c-4.2 0-5.601-6-9.801-6Z" opacity=".1"/><path fill="#2f3e1f" d="M30.5 30a4.49 4.49 0 0 0-4.5 4.5c0 .772.195 1.499.535 2.133a6.985 6.985 0 0 1 8.461-1.957L35 34.5c0-2.491-2.009-4.5-4.5-4.5m-5 1a2.49 2.49 0 0 0-2.5 2.5q-.001.154.016.3a6 6 0 0 1 2.175-.745 5.5 5.5 0 0 1 .997-1.957A2.5 2.5 0 0 0 25.5 31m10.396 2q-.052 0-.103.004a5.5 5.5 0 0 1 .16 2.223A7.1 7.1 0 0 1 37.9 37.24a5.5 5.5 0 0 1 1.6-.24 6 6 0 0 1 .5.023V37c0-2.215-1.785-4-4-4zm-10.88 1.098A4.99 4.99 0 0 0 21 39c0 1.712.857 3.22 2.164 4.121a3 3 0 0 1 1.914-1.09 6.95 6.95 0 0 1 .84-4.492 5.47 5.47 0 0 1-.902-3.441M32 35c-3.32 0-6 2.68-6 6s2.68 6 6 6 6-2.68 6-6-2.68-6-6-6m7.5 3a4.5 4.5 0 0 0-1.11.146A7 7 0 0 1 39 41a7 7 0 0 1-2.207 5.082A4.5 4.5 0 0 0 39.5 47a4.5 4.5 0 0 0 4.5-4.5 4.5 4.5 0 0 0-4.5-4.5M20 39.125A3.995 3.995 0 0 0 17 43c0 2.215 1.785 4 4 4 .694 0 1.346-.176 1.914-.484a2.97 2.97 0 0 1-.238-2.524 6 6 0 0 1-2.672-4.867zM44.973 43a5.47 5.47 0 0 1-1.5 3.297c.366.43.913.703 1.527.703 1.11 0 2-.89 2-2s-.89-2-2-2zm-19.68.012A1.99 1.99 0 0 0 23.5 45c0 1.11.89 2 2 2 .712 0 1.333-.366 1.688-.922a7 7 0 0 1-1.891-3.066z"/></svg>