<svg xmlns="http://www.w3.org/2000/svg" viewBox="0 0 64 64"><rect width="56" height="36" x="4" y="22" opacity=".2" rx="2.8" ry="2.8"/><path fill="#147eb8" d="M4 46.2C4 47.751 5.249 49 6.8 49h50.4c1.551 0 2.8-1.249 2.8-2.8V15.8c0-1.551-1.249-2.8-2.8-2.8H32c-4.2 0-5.6-6-9.8-6H6.8A2.794 2.794 0 0 0 4 9.8"/><rect width="56" height="36" x="4" y="20" opacity=".2" rx="2.8" ry="2.8"/><rect width="48" height="22" x="8" y="16" fill="#e4e4e4" rx="2.8" ry="2.8"/><rect width="56" height="36" x="4" y="21" fill="#57b8ec" rx="2.8" ry="2.8"/><path fill="#fff" d="M6.8 7C5.25 7 4 8.25 4 9.8v1.001A2.795 2.795 0 0 1 6.8 8h15.4c4.2 0 5.601 6 9.801 6H57.2a2.796 2.796 0 0 1 2.8 2.801v-1A2.796 2.796 0 0 0 57.199 13H32c-4.2 0-5.601-6-9.801-6Z" opacity=".1"/><path fill="#106796" d="m34 29-4 .605v14.47L34 43v-5.59L38 44l4-1.5-5-6 5.002-6.498L38.122 29 34 35.559zm-8.145 3.924a.37.37 0 0 0-.261.11l-1.573 1.571c-.145.146-.11.353 0 .526l1.627 2.555a7 7 0 0 0-.312.771l-.014.033-2.95.656c-.201.045-.372.166-.372.372v1.964c0 .206.17.327.371.372l2.951.656.024.056q.128.385.302.75l-1.627 2.553c-.11.173-.145.38 0 .526l1.573 1.572a.37.37 0 0 0 .523 0l2.551-1.625q.377.183.773.316l.051.022.654 2.949a.37.37 0 0 0 .372.371h2.22c.205 0 .327-.17.371-.371l.655-3.04a6.5 6.5 0 0 0 .873-.403l2.49 1.78a.37.37 0 0 0 .523 0l1.573-1.571c.145-.146.11-.353 0-.526l-.948-1.437-.1.037a.5.5 0 0 1-.603-.21l-.996-1.64A5.502 5.502 0 0 1 26 40.5a5.5 5.5 0 0 1 3.5-5.12v-1.095l-.008.035-.064.028a7 7 0 0 0-.764.308l-2.547-1.623a.37.37 0 0 0-.262-.11"/></svg>