<svg xmlns="http://www.w3.org/2000/svg" fill="none" viewBox="0 0 24 24"><path fill="#ab47bc" d="M20 18H4V8h16m0-2h-8l-2-2H4c-1.11 0-2 .89-2 2v12a2 2 0 0 0 2 2h16a2 2 0 0 0 2-2V8a2 2 0 0 0-2-2" data-folderColor="Decorators"/><path fill="#e1bee7" d="M17.65 21.08a5.75 5.75 0 0 1-2.306-.469 6 6 0 0 1-1.896-1.279 6 6 0 0 1-1.28-1.896 5.8 5.8 0 0 1-.468-2.306q0-1.235.469-2.313a6.03 6.03 0 0 1 3.175-3.169 5.8 5.8 0 0 1 2.306-.468q1.235 0 2.313.468a6.06 6.06 0 0 1 3.168 3.17q.47 1.078.469 2.312v.863q0 .877-.602 1.495a2 2 0 0 1-1.48.617q-.537 0-.997-.238a2.2 2.2 0 0 1-.759-.625 2.96 2.96 0 0 1-2.112.863q-1.235 0-2.104-.87a2.87 2.87 0 0 1-.871-2.105q0-1.235.87-2.105t2.105-.87 2.105.87.87 2.105v.863q0 .431.268.676a.9.9 0 0 0 .624.246.9.9 0 0 0 .625-.246q.268-.245.268-.676v-.863q0-1.949-1.406-3.354T17.65 10.37t-3.355 1.406Q12.89 13.18 12.89 15.13t1.405 3.354q1.407 1.406 3.355 1.406h2.975v1.19zm0-4.165q.744 0 1.264-.52.521-.521.521-1.265t-.52-1.264a1.72 1.72 0 0 0-1.265-.52q-.744 0-1.264.52t-.521 1.264.52 1.265q.522.52 1.265.52" data-folderIconColor="Decorators"/></svg>