<svg xmlns="http://www.w3.org/2000/svg" fill-rule="evenodd" stroke-linejoin="round" stroke-miterlimit="1.414" clip-rule="evenodd" viewBox="0 0 24 24"><path fill="#5c6bc0" fill-rule="nonzero" d="M10 4H4c-1.11 0-2 .89-2 2v12c0 1.097.903 2 2 2h16c1.097 0 2-.903 2-2V8a2 2 0 0 0-2-2h-8z" data-folderColor="Projects"/><path fill="#c5cae9" d="M15.6 10.8H18a1.2 1.2 0 0 1 1.2 1.2v1.2h2.4a1.2 1.2 0 0 1 1.2 1.2V21a1.2 1.2 0 0 1-1.2 1.2H12a1.2 1.2 0 0 1-1.2-1.2v-6.6c0-.666.534-1.2 1.2-1.2h2.4V12c0-.666.534-1.2 1.2-1.2m2.4 2.4V12h-2.4v1.2z" data-folderIconColor="Projects"/></svg>