<svg xmlns="http://www.w3.org/2000/svg" xmlns:xlink="http://www.w3.org/1999/xlink" viewBox="0 0 128 128"><defs><linearGradient id="l"><stop offset="0"/><stop offset="1" stop-opacity="0"/></linearGradient><linearGradient id="k"><stop offset="0" stop-color="#424242"/><stop offset="1" stop-color="#dbdbdb"/></linearGradient><linearGradient id="h"><stop offset="0"/><stop offset="1" stop-opacity="0"/></linearGradient><linearGradient id="g"><stop offset="0"/><stop offset="1" stop-opacity="0"/></linearGradient><linearGradient id="f"><stop offset="0"/><stop offset="1" stop-opacity="0"/></linearGradient><linearGradient id="c"><stop offset="0" stop-color="#8d909a"/><stop offset="1" stop-color="#d9d9d9"/></linearGradient><linearGradient id="d"><stop offset="0" stop-color="#fff"/><stop offset="1" stop-color="#fff" stop-opacity="0"/></linearGradient><linearGradient id="b"><stop offset="0" stop-color="#fff"/><stop offset="1" stop-color="#fff" stop-opacity="0"/></linearGradient><linearGradient id="a"><stop offset="0"/><stop offset="1" stop-opacity="0"/></linearGradient><linearGradient xlink:href="#a" id="s" x1="24" x2="24" y1="15.502" y2="45" gradientTransform="matrix(2.40945 .11082 0 2.4064 12.475 4.422)" gradientUnits="userSpaceOnUse"/><linearGradient xlink:href="#a" id="r" x1="24" x2="24" y1="13.506" y2="43" gradientTransform="matrix(2.40945 .88653 0 2.4064 7.07 -3.274)" gradientUnits="userSpaceOnUse"/><linearGradient xlink:href="#b" id="q" x1="12.25" x2="17.125" y1="20.231" y2="34.174" gradientTransform="matrix(2.16008 0 0 3.2093 18.454 -9.375)" gradientUnits="userSpaceOnUse"/><linearGradient xlink:href="#c" id="n" x1="11.931" x2="21.515" y1="26.411" y2="26.411" gradientTransform="matrix(2.95034 0 0 3.47162 1.476 -19.306)" gradientUnits="userSpaceOnUse" spreadMethod="reflect"/><linearGradient xlink:href="#a" id="t" x1="24" x2="24" y1="15.502" y2="45" gradientTransform="matrix(2.40945 .11082 0 2.4064 1.724 4.422)" gradientUnits="userSpaceOnUse"/><linearGradient xlink:href="#d" id="p" x1="23.5" x2="23.5" y1="10.996" y2="39.851" gradientTransform="matrix(3.0601 0 0 4.68262 -6.982 -66.778)" gradientUnits="userSpaceOnUse"/><linearGradient xlink:href="#f" id="u" x1="34.44" x2="34.44" y1="18.596" y2="46.219" gradientTransform="matrix(1.79186 0 0 1.79468 5.765 8.424)" gradientUnits="userSpaceOnUse"/><linearGradient xlink:href="#g" id="v" x1="35.095" x2="35.095" y1="19.21" y2="42.53" gradientTransform="matrix(1.79186 0 0 1.79468 5.765 6.424)" gradientUnits="userSpaceOnUse"/><linearGradient xlink:href="#h" id="w" x1="41.25" x2="41.25" y1="19.833" y2="40.715" gradientTransform="matrix(1.79186 0 0 1.79468 5.765 6.424)" gradientUnits="userSpaceOnUse"/><linearGradient xlink:href="#i" id="z" x1="32.181" x2="32.181" y1="13.829" y2="28.903" gradientTransform="matrix(3.80502 0 0 -1.7722 -53.235 57.726)" gradientUnits="userSpaceOnUse"/><linearGradient id="i"><stop offset="0" stop-color="#fff"/><stop offset=".091" stop-color="#fff" stop-opacity=".235"/><stop offset=".818" stop-color="#fff" stop-opacity=".157"/><stop offset="1" stop-color="#fff" stop-opacity=".392"/></linearGradient><linearGradient id="j"><stop offset="0" stop-color="#8d909a"/><stop offset="1" stop-color="#e5e5e5"/></linearGradient><linearGradient xlink:href="#j" id="x" x1="34.613" x2="19.314" y1="26.411" y2="26.411" gradientTransform="matrix(2.80693 0 0 2.53341 3.651 -4.55)" gradientUnits="userSpaceOnUse" spreadMethod="reflect"/><radialGradient xlink:href="#d" id="o" cx="19.308" cy="21.029" r="14.5" fx="19.308" fy="21.029" gradientTransform="matrix(0 4.04104 -3.99615 0 124.285 -35.815)" gradientUnits="userSpaceOnUse" spreadMethod="pad"/><radialGradient xlink:href="#k" id="A" cx="32" cy="13.583" r="7.5" fx="32" fy="13.583" gradientTransform="matrix(1.79186 0 0 1.19646 6.765 11.914)" gradientUnits="userSpaceOnUse"/><radialGradient xlink:href="#j" id="y" cx="25.72" cy="3.129" r="7" fx="25.72" fy="3.129" gradientTransform="matrix(5.83826 -3.15582 -1.05714 -2.28571 -85.527 119.82)" gradientUnits="userSpaceOnUse"/><radialGradient xlink:href="#l" id="m" cx="64" cy="105.438" r="37" fx="64" fy="105.438" gradientTransform="matrix(1 0 0 .33953 0 73.639)" gradientUnits="userSpaceOnUse"/></defs><ellipse cx="64" cy="109.438" fill="url(#m)" rx="37" ry="12.563"/><path fill="url(#n)" d="M29.5 33.355v73.093c0 6.707 10.766 13.052 35.408 13.052S98.5 113.155 98.5 106.448V33.355z" overflow="visible" style="marker:none"/><path fill="none" stroke="#161b28" stroke-opacity=".498" d="M29.5 33.355v73.093c0 6.707 10.766 13.052 35.408 13.052S98.5 113.155 98.5 106.448V33.355z" overflow="visible" style="marker:none"/><path fill="url(#o)" d="M30 30.352v74.598c0 6.791 15.232 14.439 34 14.439s34-7.648 34-14.439V30.352z" opacity=".4" overflow="visible" style="marker:none"/><path fill="none" stroke="url(#p)" stroke-linecap="round" stroke-linejoin="round" d="M30.5 27.49v79.342c0 6.462 26.555 11.449 34.43 11.707s32.569-5.245 32.569-11.707c0-4.96-.144-74.385 0-79.343.134-4.624-12.192-10.989-32.57-10.989-20.377 0-34.429 6.336-34.429 10.99" opacity=".15" overflow="visible" style="marker:none"/><path fill="url(#q)" d="m46.535 39.933 10.8 2.04V120l-10.8-2.608z" opacity=".2" overflow="visible" style="marker:none"/><path fill="url(#r)" d="M38.914 41.195c2.002.737 2.688 2.94 2.688 4.94v63.755c0 2-.686 3.016-2.688 2.28s-2.688-2.94-2.688-4.94V43.475c0-2 .686-3.017 2.688-2.28m50.172.43c-2.002.737-2.688 2.847-2.688 4.846v62.824c0 2 .686 3.017 2.688 2.28s2.688-2.94 2.688-4.94V43.78c0-2-.686-2.89-2.688-2.153" opacity=".15" overflow="visible" style="marker:none"/><path fill="url(#s)" d="M76.543 44.008c-2.002.092-2.718 1.776-2.718 3.776v63.755c0 2 .716 3.535 2.718 3.443s2.688-1.776 2.688-3.776V47.451c0-2-.686-3.535-2.688-3.443" opacity=".3" overflow="visible" style="marker:none"/><path fill="url(#t)" d="M51.457 44.008c2.002.092 2.688 1.776 2.688 3.776v63.755c0 2-.686 3.535-2.688 3.443s-2.718-1.776-2.718-3.776V47.451c0-2 .716-3.535 2.718-3.443M64 45.802c-2.002.092-2.688 1.776-2.688 3.776v63.755c0 2 .686 3.536 2.688 3.444S66.749 115 66.749 113V49.245c0-2-.747-3.535-2.749-3.443" opacity=".3" overflow="visible" style="marker:none"/><path fill="none" stroke="url(#u)" stroke-width=".5" d="M38.914 41.626c2.002.736 2.688 2.509 2.688 4.508v63.756c0 2-.686 3.016-2.688 2.28s-2.688-2.94-2.688-4.94V43.475c0-2 .686-2.586 2.688-1.85zm50.172 0c-2.002.736-2.688 2.846-2.688 4.845v62.824c0 2 .686 3.017 2.688 2.28s2.688-2.94 2.688-4.94V43.78c0-2-.686-2.89-2.688-2.153z" opacity=".351" overflow="visible" style="marker:none"/><path fill="none" stroke="url(#v)" stroke-width=".5" d="M51.457 44.008c2.002.092 2.688 1.776 2.688 3.776v63.755c0 2-.686 3.535-2.688 3.443s-2.718-1.776-2.718-3.776V47.451c0-2 .716-3.535 2.718-3.443zM64 45.802c-2.002.092-2.688 1.776-2.688 3.776v63.755c0 2 .686 3.536 2.688 3.444S66.749 115 66.749 113V49.245c0-2-.747-3.535-2.749-3.443z" opacity=".433" overflow="visible" style="marker:none"/><path fill="none" stroke="url(#w)" stroke-width=".5" d="M76.543 44.008c-2.002.092-2.718 1.776-2.718 3.776v63.755c0 2 .716 3.535 2.718 3.443s2.688-1.776 2.688-3.776V47.451c0-2-.686-3.535-2.688-3.443z" opacity=".463" overflow="visible" style="marker:none"/><path fill="url(#x)" d="M64 22.514c-10.798 0-20.619.567-27.545 2.427-3.465.931-6.126 2.185-7.807 3.252-1.749 1.112-2.148 2.393-2.148 3.04v9.828c0 .646.394 1.969 2.148 3.084 1.67 1.06 4.335 2.407 7.807 3.34 6.9 1.853 16.729 3.029 27.545 3.029s20.645-1.176 27.545-3.03c3.476-.934 6.142-2.325 7.807-3.382 1.733-1.101 2.148-2.263 2.148-2.909v-9.838c0-.323-.095-.799-.41-1.375-.315-.575-.856-1.224-1.738-1.785-1.71-1.085-4.363-2.094-7.807-3.02-6.916-1.857-16.74-2.661-27.545-2.661" color="#000" overflow="visible" style="marker:none"/><path fill="none" stroke="#161b28" stroke-opacity=".498" d="M64 22.5c-20.71 0-37.5 3.656-37.5 8.924v9.538C26.5 46.23 43.29 50.5 64 50.5s37.5-4.27 37.5-9.538v-9.538c0-5.268-16.79-8.924-37.5-8.924Z" color="#000" overflow="visible" style="marker:none"/><path fill="url(#y)" d="M101.098 31.503a37 9 0 1 0-74 0 37 9 0 0 0 74 0" color="#000" opacity=".7" overflow="visible" style="marker:none"/><path fill="none" stroke="url(#z)" stroke-linecap="round" stroke-linejoin="round" d="M100.5 32.004a36.5 8.5 0 1 0-73 0 36.5 8.5 0 0 0 73 0" color="#000" opacity=".7" overflow="visible" style="marker:none"/><ellipse cx="53" cy="30" opacity=".1" rx="4" ry="2"/><ellipse cx="75" cy="30" opacity=".1" rx="4" ry="2"/><path fill="url(#A)" stroke="#161b28" stroke-opacity=".498" d="M50.5 29.08v-7.042c0-1.846 2.005-4.538 5.845-4.538h15.519c3.84 0 5.636 2.692 5.636 4.538v7.042c0 1.846-5 1.846-5 0v-5.196c0-1.846-2.556-1.384-2.556-1.384h-11.68s-2.764-.462-2.764 1.384v5.196c0 1.846-5 1.846-5 0z"/></svg>