<svg xmlns="http://www.w3.org/2000/svg" fill-rule="evenodd" stroke-linejoin="round" stroke-miterlimit="1.414" clip-rule="evenodd" viewBox="0 0 24 24"><path fill="#7e57c2" fill-rule="nonzero" d="M10 4H4c-1.11 0-2 .89-2 2v12c0 1.097.903 2 2 2h16c1.097 0 2-.903 2-2V8a2 2 0 0 0-2-2h-8z" data-folderColor="Amplication"/><path fill="#e1bee7" d="M10 16.526c0 3.366 2.466 6.13 5.638 6.517V10.009C12.466 10.395 10 13.16 10 16.526m12.8 0c0-3.383-2.491-6.165-5.697-6.526v13.06h5.689v-6.354q.01-.09.008-.18" data-folderIconColor="Amplication"/></svg>