<svg xmlns="http://www.w3.org/2000/svg" xml:space="preserve" fill-rule="evenodd" stroke-linejoin="round" stroke-miterlimit="1.414" clip-rule="evenodd" viewBox="0 0 24 24"><path fill="#689f38" d="M20 18H4V8h16m0-2h-8l-2-2H4c-1.11 0-2 .89-2 2v12a2 2 0 0 0 2 2h16a2 2 0 0 0 2-2V8a2 2 0 0 0-2-2" data-folderColor="Coverage"/><path fill="#dcedc8" d="m16.955 17.786-2.367-2.367.834-.834 1.533 1.526 3.9-3.9.834.84m-3.55-4.733-5.326 2.367v3.55c0 3.285 2.272 6.356 5.326 7.102 3.053-.746 5.325-3.817 5.325-7.102v-3.55z" data-folderIconColor="Coverage"/></svg>