<svg xmlns="http://www.w3.org/2000/svg" fill-rule="evenodd" stroke-linejoin="round" stroke-miterlimit="1.414" clip-rule="evenodd" viewBox="0 0 24 24"><path fill="#ff7043" d="M20 18H4V8h16m0-2h-8l-2-2H4c-1.11 0-2 .89-2 2v12a2 2 0 0 0 2 2h16a2 2 0 0 0 2-2V8a2 2 0 0 0-2-2" data-folderColor="Injection"/><path fill="#ffecb3" d="m16.205 19.026-.994-.987.994-.994.987.994.987-.994-.987-.987.987-.987.994.987.987-.987-1.981-1.981-4.949 4.949 1.981 1.981zM10.556 21.7l2.184-2.177-1.484-1.484 6.923-6.93L19.67 12.6l.98-.994-.98-.994.98-.987 2.975 2.975-.987.98-.994-.98-.994.98 1.491 1.491-6.93 6.923-1.484-1.484-3.171 3.178z" data-folderIconColor="Injection"/></svg>