<svg xmlns="http://www.w3.org/2000/svg" xmlns:xlink="http://www.w3.org/1999/xlink" viewBox="0 0 128 128"><defs><linearGradient id="c" x1="50%" x2="50%" y1="0%" y2="26.353%"><stop offset="0%" stop-color="#1fb0ea"/><stop offset="100%" stop-color="#2c7fe2"/></linearGradient><linearGradient id="h" x1="50%" x2="50%" y1="0%" y2="11.796%"><stop offset="0%" stop-color="#fff"/><stop offset="100%" stop-color="#cef5ff"/></linearGradient><linearGradient id="j" x1="56.426%" x2="56.426%" y1="0%" y2="115.461%"><stop offset="0%" stop-color="#5ccdf1"/><stop offset="100%" stop-color="#1881dc"/></linearGradient><linearGradient id="m" x1="52.084%" x2="52.084%" y1="4.908%" y2="100%"><stop offset="0%" stop-color="#fff"/><stop offset="100%" stop-color="#fff" stop-opacity=".6"/></linearGradient><filter id="a" width="118%" height="120.8%" x="-9%" y="-8.3%" filterUnits="objectBoundingBox"><feOffset dy="2" in="SourceAlpha" result="shadowOffsetOuter1"/><feGaussianBlur in="shadowOffsetOuter1" result="shadowBlurOuter1" stdDeviation="3"/><feColorMatrix in="shadowBlurOuter1" result="shadowMatrixOuter1" values="0 0 0 0 0 0 0 0 0 0 0 0 0 0 0 0 0 0 0.2 0"/><feMerge><feMergeNode in="shadowMatrixOuter1"/><feMergeNode in="SourceGraphic"/></feMerge></filter><filter id="g" width="108.9%" height="121.7%" x="-4.5%" y="-10.8%" filterUnits="objectBoundingBox"><feOffset in="SourceAlpha" result="shadowOffsetOuter1"/><feGaussianBlur in="shadowOffsetOuter1" result="shadowBlurOuter1" stdDeviation="1.5"/><feColorMatrix in="shadowBlurOuter1" values="0 0 0 0 0 0 0 0 0 0 0 0 0 0 0 0 0 0 0.2 0"/></filter><filter id="i" width="106.9%" height="116.9%" x="-3.5%" y="-8.4%" filterUnits="objectBoundingBox"><feOffset dy="1" in="SourceAlpha" result="shadowOffsetInner1"/><feComposite in="shadowOffsetInner1" in2="SourceAlpha" k2="-1" k3="1" operator="arithmetic" result="shadowInnerInner1"/><feColorMatrix in="shadowInnerInner1" values="0 0 0 0 1 0 0 0 0 1 0 0 0 0 1 0 0 0 0.5 0"/></filter><filter id="l" width="218.2%" height="218.2%" x="-59.1%" y="-50%" filterUnits="objectBoundingBox"><feOffset dy="4" in="SourceAlpha" result="shadowOffsetOuter1"/><feGaussianBlur in="shadowOffsetOuter1" result="shadowBlurOuter1" stdDeviation="8"/><feColorMatrix in="shadowBlurOuter1" values="0 0 0 0 0 0 0 0 0 0.42745098 0 0 0 0 0.968627451 0 0 0 0.5 0"/></filter><path id="b" d="M62 6a9.75 9.75 0 0 0 9 6h26c7.732 0 14 6.268 14 14v56c0 7.732-6.268 14-14 14H14C6.268 96 0 89.732 0 82V14C0 6.268 6.268 0 14 0h39a9.75 9.75 0 0 1 9 6"/><path id="k" d="M64 54c12.15 0 22 9.85 22 22s-9.85 22-22 22-22-9.85-22-22 9.85-22 22-22m0 2.75c-10.631 0-19.25 8.619-19.25 19.25S53.369 95.25 64 95.25 83.25 86.631 83.25 76 74.631 56.75 64 56.75m.268 33.738v1.61h-.536v-1.61zm-3.048-.267.528.093-.28 1.586-.528-.094zm5.56 0 .28 1.585-.529.094-.28-1.586zm2.427-.699.55 1.513-.503.184-.551-1.513zm-10.414 0 .504.184-.55 1.513-.505-.184zm12.683-1.11.805 1.395-.465.268-.804-1.394zm-14.952 0 .464.269-.804 1.394-.465-.268zm16.994-1.486 1.035 1.233-.411.345-1.035-1.233zm-19.036 0 .41.345-1.034 1.233-.41-.345zm20.789-1.819 1.233 1.035-.345.41-1.233-1.034zm-22.542 0 .345.411-1.233 1.035-.345-.411zm23.952-2.095 1.394.804-.268.465-1.394-.805zm-25.362 0 .268.464-1.394.805-.268-.465zM64 67a4 4 0 0 1 4 4v3h1.5a1.5 1.5 0 0 1 1.5 1.5v7a1.5 1.5 0 0 1-1.5 1.5h-11a1.5 1.5 0 0 1-1.5-1.5v-7a1.5 1.5 0 0 1 1.5-1.5H60v-3a4 4 0 0 1 4-4m13.706 13.703 1.513.55-.184.505-1.513-.55zm-27.412 0 .184.504-1.513.55-.184-.503zm28.02-2.451 1.586.28-.094.528-1.585-.28zm-28.628 0 .093.528-1.585.28-.094-.529zm30.412-2.52v.536h-1.61v-.536zm-30.586 0v.536h-1.61v-.536zM64 69a2 2 0 0 0-2 2v3h4v-3a2 2 0 0 0-2-2m-15.806 3.94 1.585.28-.093.528-1.586-.28zm31.612 0 .094.529-1.586.28-.093-.529zm-30.841-2.698 1.513.55-.184.505-1.513-.55zm30.07 0 .184.504-1.513.551-.184-.504zm-1.228-2.523.268.465-1.394.804-.268-.464zm-27.614 0 1.394.805-.268.464-1.394-.804zm25.966-2.272.345.411-1.233 1.035-.345-.411zm-24.318 0 1.233 1.035-.345.41-1.233-1.034zm22.3-1.95.412.344-1.035 1.233-.41-.345zm-20.283 0 1.035 1.232-.411.345-1.035-1.233zm17.958-1.572.465.268-.805 1.394-.464-.268zm-15.632 0 .804 1.394-.464.268-.805-1.394zm13.07-1.144.504.184-.55 1.513-.505-.184zm-10.508 0 .551 1.513-.504.184-.55-1.513zm7.785-.68.529.093-.28 1.585-.528-.093zm-5.062 0 .28 1.585-.529.093-.28-1.585zm2.8-.199v1.61h-.537v-1.61z"/><rect id="e" width="101" height="41.5" x="5" y="16" rx="9"/></defs><g fill="none" fill-rule="evenodd"><g filter="url(#a)" transform="translate(9 16)"><mask id="d" fill="#fff"><use xlink:href="#b"/></mask><use xlink:href="#b" fill="url(#c)"/><g mask="url(#d)"><use xlink:href="#e" fill="#000" filter="url(#g)"/><use xlink:href="#e" fill="url(#h)"/><use xlink:href="#e" fill="#000" filter="url(#i)"/></g><g fill="url(#j)" mask="url(#d)"><path d="M0 23h111v59c0 7.732-6.268 14-14 14H14C6.268 96 0 89.732 0 82z"/></g></g><use xlink:href="#k" fill="#000" filter="url(#l)"/><use xlink:href="#k" fill="url(#m)"/></g></svg>