<svg xmlns="http://www.w3.org/2000/svg" xml:space="preserve" fill-rule="evenodd" stroke-linejoin="round" stroke-miterlimit="1.414" clip-rule="evenodd" viewBox="0 0 24 24"><path fill="#00897b" d="M20 18H4V8h16m0-2h-8l-2-2H4c-1.11 0-2 .89-2 2v12a2 2 0 0 0 2 2h16a2 2 0 0 0 2-2V8a2 2 0 0 0-2-2" data-folderColor="Pipe"/><path fill="#b2dfdb" d="M23.284 16.949h-1.288v1.288h-3.864v-1.932h1.288v-1.288h-1.288v-3.22a1.29 1.29 0 0 0-1.288-1.288H11.69V9.22h-1.288v5.152h1.288v-1.288h3.864v1.932h-1.288v1.288h1.288v3.22a1.29 1.29 0 0 0 1.289 1.288h5.152V22.1h1.288" data-folderIconColor="Pipe"/></svg>