<svg xmlns="http://www.w3.org/2000/svg" xml:space="preserve" fill-rule="evenodd" stroke-linejoin="round" stroke-miterlimit="1.414" clip-rule="evenodd" viewBox="0 0 24 24"><path fill="#b3e5fc" d="M20 18H4V8h16m0-2h-8l-2-2H4c-1.11 0-2 .89-2 2v12a2 2 0 0 0 2 2h16a2 2 0 0 0 2-2V8a2 2 0 0 0-2-2" data-folderColor="Azure Pipelines"/><path fill="#0077db" d="M11.264 19.712h.939v1.877h1.877v.939h-2.816zm.626-4.693h2.88l2.317-3.338a.94.94 0 0 1 .78-.417h4.192a.47.47 0 0 1 .469.47v4.19a.94.94 0 0 1-.417.781l-3.338 2.317v2.88c0 .346-.28.626-.625.626h-2.19l-.94-.939 1.174-1.173-.939-.939-1.173 1.174-.939-.939 1.174-1.173-.939-.939-1.173 1.173-.939-.938v-2.19c0-.346.28-.626.626-.626m9.23-.939c0-1.08-1.177-1.758-2.114-1.219s-.936 1.898 0 2.438 2.114-.14 2.114-1.219" data-folderIconColor="Azure Pipelines"/></svg>