<svg xmlns="http://www.w3.org/2000/svg" xml:space="preserve" fill-rule="evenodd" stroke-linejoin="round" stroke-miterlimit="1.414" clip-rule="evenodd" viewBox="0 0 24 24"><path fill="#0277bd" fill-rule="nonzero" d="M10 4H4c-1.11 0-2 .89-2 2v12c0 1.097.903 2 2 2h16c1.097 0 2-.903 2-2V8a2 2 0 0 0-2-2h-8z" data-folderColor="Dropbox"/><path fill="#b3e5fc" d="m9 17.49 4.518 2.948 3.163-2.637-4.556-2.812zm4.518-7.95L9 12.488l3.124 2.501 4.556-2.812zm10.842 2.947-4.518-2.946-3.162 2.636 4.555 2.812zm-7.68 5.314 3.162 2.637 4.518-2.949-3.124-2.5zm.01.567-3.172 2.63-1.357-.886v.994l4.528 2.713 4.528-2.713v-.994l-1.357.886z" data-folderIconColor="Dropbox"/></svg>