<svg xmlns="http://www.w3.org/2000/svg" xml:space="preserve" fill-rule="evenodd" stroke-linejoin="round" stroke-miterlimit="1.414" clip-rule="evenodd" viewBox="0 0 24 24"><path fill="#b3e5fc" d="M20 18H4V8h16m0-2h-8l-2-2H4c-1.11 0-2 .89-2 2v12a2 2 0 0 0 2 2h16a2 2 0 0 0 2-2V8a2 2 0 0 0-2-2" data-folderColor="Azure Devops"/><path fill="#0077db" d="M23.6 11.2v7.792l-3.2 2.624-4.96-1.808V21.6l-2.808-3.672 8.184.64v-7.016Zm-2.728.392L16.28 8.8v1.832l-4.216 1.24-1.264 1.624v3.688l1.808.8v-4.728Z" data-folderIconColor="Azure Devops"/></svg>