<svg xmlns="http://www.w3.org/2000/svg" viewBox="0 0 16 16"><g fill="currentColor" class="ColorScheme-Text" color="#5d656b"><path d="M3 0c-.554 0-1 .446-1 1-.554 0-1 .446-1 1v3h1V2h1V1h4v1h7v1h1V2c0-.554-.446-1-1-1H8c0-.554-.446-1-1-1z" paint-order="fill markers stroke"/><path d="M8 3 7 5H1c-.554 0-1 .446-1 1v8c0 .554.446 1 1 1h9v-1H1V6h6.732l.875-2H15v5h1V4c0-.5-.5-1-1-1z"/><path d="m8.607 4-.875 2H1v8h9v-4c0-.554.446-1 1-1h4V4z" opacity=".25"/></g><path fill="currentColor" d="M13 10v2h-2v1h2v2h1v-2h2v-1h-2v-2z" class="ColorScheme-Text"/></svg>