<svg xmlns="http://www.w3.org/2000/svg" xml:space="preserve" fill-rule="evenodd" stroke-linejoin="round" stroke-miterlimit="1.414" clip-rule="evenodd" viewBox="0 0 24 24"><path fill="#039be5" fill-rule="nonzero" d="M10 4H4c-1.11 0-2 .89-2 2v12c0 1.097.903 2 2 2h16c1.097 0 2-.903 2-2V8a2 2 0 0 0-2-2h-8z" data-folderColor="Yarn"/><path fill="#b3e5fc" d="M15.511 10.479S16.1 8.7 16.637 9.045a9 9 0 0 1 .763 1.443 1.23 1.23 0 0 1 .711-.234 5.8 5.8 0 0 1-1.033 5.771 4.57 4.57 0 0 1 1.436 4.55c1.378 0 2.087-1.342 3.845-1.425a.541.541 0 0 1 .234 1.055c-1.222.173-2.427 1.538-4.89 2.232-.318.484-2.216.43-3.71.564-1.581.017-1.173-1.216-.6-1.425a5 5 0 0 1-.459-.383c-.398 2.107-1.477 1.465-2.134 1.284-.509-.271.036-.906.036-.906-.5.213-.886-.725-.828-1.646a2.7 2.7 0 0 1 .873-1.447 4.25 4.25 0 0 1 1.906-4.032 2.02 2.02 0 0 1-.314-2.629c.985-.274 1.176-1.443 3.038-1.338" data-folderIconColor="Yarn"/></svg>