<svg xmlns="http://www.w3.org/2000/svg" xml:space="preserve" fill-rule="evenodd" stroke-linejoin="round" stroke-miterlimit="1.414" clip-rule="evenodd" viewBox="0 0 24 24"><path fill="#ff7043" d="M10 4H4c-1.11 0-2 .89-2 2v12c0 1.097.903 2 2 2h16c1.097 0 2-.903 2-2V8a2 2 0 0 0-2-2h-8z" data-folderColor="Haxe"/><path fill="#ffccbc" d="M22.917 19.675 21.579 17l1.337-2.674.034-.067V11.05h-3.209l-.067.033L17 12.42l-2.675-1.336-.066-.033H11.05v3.209l.033.067L12.421 17l-1.338 2.675-.033.067v3.208h3.209l.067-.034L17 21.578l2.674 1.339.067.033h3.209v-3.208Zm-1.955-2.937-3.7-3.702 4.93-1.231Zm-7.926 0-1.233-4.93 4.934 1.233Zm0 .525 3.7 3.7-4.93 1.233Zm7.927 0 1.233 4.93-4.93-1.232Z" data-folderIconColor="Haxe"/></svg>