<svg xmlns="http://www.w3.org/2000/svg" xml:space="preserve" fill-rule="evenodd" stroke-linejoin="round" stroke-miterlimit="1.414" clip-rule="evenodd" viewBox="0 0 24 24"><path fill="#6cac23" d="M20 18H4V8h16m0-2h-8l-2-2H4c-1.11 0-2 .89-2 2v12a2 2 0 0 0 2 2h16a2 2 0 0 0 2-2V8a2 2 0 0 0-2-2" data-folderColor="MongoDB"/><path fill="#a5d6a7" d="M17.882 9c-.307 1.84-3.482 3.376-3.482 7.86 0 4.056 2.233 5.293 2.693 5.485.843-.882.712-8.17.79-13.345m-.3 15.028v-1.476c1.11-.498.468-9.315.41-12.554.392 1.037 2.962 3.643 2.962 6.863s-1.418 4.714-2.644 5.596v1.504c-.036.56-.683.481-.729.067" data-folderIconColor="MongoDB"/></svg>