<svg xmlns="http://www.w3.org/2000/svg" viewBox="0 0 16 16"><path fill="currentColor" d="M4.572 1a.23.23 0 0 0-.228.19l-.172 1.193a3.5 3.5 0 0 0-.783.441l-1.153-.451a.234.234 0 0 0-.28.098l-.927 1.558a.22.22 0 0 0 .057.287l.975.747q-.031.216-.032.439c0 .148.014.293.032.437l-.975.747a.22.22 0 0 0-.057.287l.926 1.558a.23.23 0 0 0 .281.098l1.153-.451q.358.268.783.441l.172 1.194a.23.23 0 0 0 .228.189h1.852a.23.23 0 0 0 .228-.19l.172-1.193a3.5 3.5 0 0 0 .783-.441l1.153.45c.104.039.223 0 .281-.097l.926-1.558a.22.22 0 0 0-.057-.287l-.974-.747q.03-.215.03-.437-.001-.223-.03-.44l.976-.746a.22.22 0 0 0 .057-.287l-.926-1.558a.23.23 0 0 0-.281-.098l-1.153.451a3.5 3.5 0 0 0-.783-.441l-.172-1.194A.236.236 0 0 0 6.424 1zm.926 2.926c.895 0 1.62.705 1.62 1.576s-.725 1.574-1.62 1.574-1.617-.703-1.617-1.574.722-1.576 1.617-1.576m5.121 4.08a.17.17 0 0 0-.2.1l-.333.85a2.5 2.5 0 0 0-.645.189l-.754-.541a.17.17 0 0 0-.22.019l-.944.988a.17.17 0 0 0-.01.225l.577.725a3 3 0 0 0-.1.32 3 3 0 0 0-.053.33l-.837.377a.166.166 0 0 0-.09.201l.394 1.32a.17.17 0 0 0 .188.121l.914-.126q.21.262.486.466l-.082.914a.175.175 0 0 0 .133.18l1.34.332a.17.17 0 0 0 .197-.098l.336-.851q.337-.052.643-.188l.754.541a.17.17 0 0 0 .22-.021l.944-.988a.17.17 0 0 0 .01-.223l-.577-.729q.06-.154.1-.318.038-.166.053-.33l.84-.377a.166.166 0 0 0 .09-.201l-.395-1.32a.174.174 0 0 0-.188-.122l-.914.127a2.7 2.7 0 0 0-.486-.466l.082-.914a.176.176 0 0 0-.135-.18zm-.322 2.308a1.215 1.215 0 0 1 1.375 1.475 1.19 1.19 0 0 1-1.45.875 1.215 1.215 0 0 1-.896-1.453c.115-.483.508-.824.97-.897" color="#5d656b"/></svg>