<svg xmlns="http://www.w3.org/2000/svg" xml:space="preserve" fill-rule="evenodd" stroke-linejoin="round" stroke-miterlimit="1.414" clip-rule="evenodd" viewBox="0 0 24 24"><path fill="#a564ef" d="M20 18H4V8h16m0-2h-8l-2-2H4c-1.11 0-2 .89-2 2v12a2 2 0 0 0 2 2h16a2 2 0 0 0 2-2V8a2 2 0 0 0-2-2" data-folderColor="Arttext"/><path fill="#e1bee7" d="M16.154 19.79c-3.405-1.962-3.405-6.898 0-8.86s7.686.503 7.686 4.43-4.28 6.394-7.686 4.43m.426-4.623c-.807.393-.892 1.11-.86 1.413.187 1.78 2.12 1.85 3.68.85.609.74 1.474.76 2.41.505l.01-1.074c0-.053-.065-.041-.065-.041-.352.2-.895.145-.862-.427-.047-.98.07-2.595-.092-3.004-.201-.509-.618-.938-1.641-1.089-1.447-.16-2.296.287-2.766.684-.708.598-.34 1.485.137 1.565 1.059.178 1.041-.541 1.305-.876.313-.405.97-.4 1.228-.064.137.178.105.657.091.982-1.128.076-2.047.318-2.575.576m2.603 1.331c-.635.333-1.324.612-1.584.018-.157-.552.465-.885 1.556-.99z" data-folderIconColor="Arttext"/></svg>