<svg xmlns="http://www.w3.org/2000/svg" viewBox="0 0 24 24"><path fill="#ba68c8" d="M20 18H4V8h16m0-2h-8l-2-2H4c-1.11 0-2 .89-2 2v12a2 2 0 0 0 2 2h16a2 2 0 0 0 2-2V8a2 2 0 0 0-2-2" data-folderColor="Styled"/><path fill="#e1bee7" d="M18.165 21.33a5.165 5.165 0 1 1 0-10.33c2.84 0 5.165 2.066 5.165 4.649a3.1 3.1 0 0 1-3.099 3.098h-.93c-.155 0-.258.104-.258.259 0 .051.052.103.052.155.206.258.31.568.31.878.051.723-.517 1.291-1.24 1.291m0-9.297a4.132 4.132 0 1 0 0 8.264c.155 0 .258-.103.258-.258 0-.104-.051-.155-.051-.207-.207-.258-.31-.516-.31-.826 0-.723.568-1.291 1.291-1.291h.878a2.066 2.066 0 0 0 2.066-2.066c0-2.015-1.86-3.616-4.132-3.616m-2.84 3.099c.412 0 .774.361.774.775a.794.794 0 0 1-.775.774.794.794 0 0 1-.774-.774c0-.414.361-.775.774-.775Zm1.549-2.066c.413 0 .774.361.774.775a.794.794 0 0 1-.774.775.794.794 0 0 1-.775-.775c0-.413.361-.775.775-.775m2.582 0c.413 0 .775.361.775.775a.794.794 0 0 1-.775.775.794.794 0 0 1-.774-.775c0-.413.361-.775.774-.775m1.55 2.066c.413 0 .774.361.774.775a.794.794 0 0 1-.774.774.794.794 0 0 1-.775-.774c0-.414.361-.775.775-.775" data-folderIconColor="Styled"/></svg>