<svg xmlns="http://www.w3.org/2000/svg" fill="none" viewBox="0 0 24 24"><path fill="#03a9f4" d="M10 4H4c-1.11 0-2 .89-2 2v12c0 1.097.903 2 2 2h16c1.097 0 2-.903 2-2V8a2 2 0 0 0-2-2h-8z" data-folderColor="Mac"/><g fill="#89ddff" data-iconColor="Mac"><path d="M17.066 11.495H9.6v11.45h7.857a9.3 9.3 0 0 1-.311-2.053c-2.05.12-4.013-.414-5.412-1.026l.251-.587c1.717.736 3.44 1.06 5.155.973q.019-.904.195-1.855h-2.42c-.037-2.687.891-4.887 2.151-6.902m-4.038 1.819h.638v1.542h-.638z"/><path d="M17.86 20.19q1.67-.194 3.319-.91l.254.585a12.4 12.4 0 0 1-3.57.97 8.6 8.6 0 0 0 .342 2.11h5.332v-11.45h-5.62c-1.444 2.191-2.16 4.157-2.266 6.184h2.57a12 12 0 0 0-.36 2.511m1.824-5.334h-.638v-1.542h.638zm-1.767-3.361q.468-.712 1.04-1.458L18.39 9.6c-.5.651-.938 1.28-1.324 1.895zm-.461 11.45q.282 1.051.818 2.015l.627-.349a8.2 8.2 0 0 1-.698-1.666z"/></g></svg>