<svg xmlns="http://www.w3.org/2000/svg" viewBox="0 0 64 64"><rect width="56" height="36" x="4" y="22" opacity=".2" rx="2.8" ry="2.8"/><path fill="#3f51b5" d="M4 46.2C4 47.751 5.249 49 6.8 49h50.4c1.551 0 2.8-1.249 2.8-2.8V15.8c0-1.551-1.249-2.8-2.8-2.8H32c-4.2 0-5.6-6-9.8-6H6.8A2.794 2.794 0 0 0 4 9.8"/><rect width="56" height="36" x="4" y="20" opacity=".2" rx="2.8" ry="2.8"/><rect width="48" height="22" x="8" y="16" fill="#e4e4e4" rx="2.8" ry="2.8"/><rect width="56" height="36" x="4" y="21" fill="#5c6bc0" rx="2.8" ry="2.8"/><path fill="#fff" d="M6.8 7C5.25 7 4 8.25 4 9.8v1.001A2.795 2.795 0 0 1 6.8 8h15.4c4.2 0 5.601 6 9.801 6H57.2a2.796 2.796 0 0 1 2.8 2.801v-1A2.796 2.796 0 0 0 57.199 13H32c-4.2 0-5.601-6-9.801-6Z" opacity=".1"/><path fill="#202543" d="M32.787 43.393c-1.601.744-3.089.736-4.089.664-1.192-.086-2.152-.412-2.573-.698a.568.568 0 1 0-.637.941c.678.459 1.876.8 3.128.89q.319.024.696.025c1.09 0 2.474-.104 3.954-.792a.568.568 0 0 0-.479-1.03m6.314-.842c.054-4.936.562-14.262-8.886-13.508-9.328.751-6.855 10.605-6.994 13.905-.123 1.746-.702 3.88-1.521 6.052h2.521c.26-.92.45-1.831.532-2.698q.228.159.489.306c.282.167.525.388.782.622.6.547 1.281 1.168 2.611 1.245q.134.008.267.008c1.346 0 2.266-.589 3.006-1.062.354-.227.66-.423.948-.517.819-.256 1.534-.67 2.068-1.196a4 4 0 0 0 .234-.253A44 44 0 0 0 36.316 49H41.7c-1.294-1.996-2.627-3.953-2.599-6.449m-14.977-2.685c-.093-1.611.678-2.965 1.721-3.026s1.964 1.196 2.057 2.806v.001q.007.13.007.258c-.33.083-.629.204-.896.345l-.003-.036v-.001c-.089-.914-.577-1.604-1.091-1.542-.513.063-.857.855-.767 1.769.039.399.153.755.313 1.025-.04.031-.152.113-.281.208l-.358.262c-.388-.51-.654-1.242-.702-2.068m10.569 3.981c-.037.851-1.151 1.652-2.179 1.973l-.006.002c-.428.139-.809.383-1.213.641-.678.434-1.38.883-2.393.883q-.101 0-.202-.006c-.928-.054-1.362-.449-1.911-.95-.29-.264-.59-.538-.976-.764l-.009-.005c-.834-.471-1.352-1.056-1.385-1.567q-.023-.382.336-.652c.52-.39.869-.645 1.099-.814.256-.187.334-.243.391-.298l.133-.128c.477-.464 1.276-1.241 2.503-1.241.75 0 1.58.289 2.464.857.416.271.779.396 1.238.555.315.109.673.232 1.152.437l.008.004c.446.183.974.518.95 1.072Zm-.246-2a5 5 0 0 0-.269-.123c-.432-.184-.778-.31-1.065-.41.159-.31.257-.697.266-1.118.022-1.023-.494-1.854-1.152-1.855-.659-.002-1.21.826-1.232 1.849v.1a5.8 5.8 0 0 0-1.195-.405l-.005-.116v-.001c-.038-1.863 1.106-3.406 2.554-3.445s2.653 1.439 2.691 3.303v.001c.017.843-.208 1.618-.593 2.22"/></svg>