<svg xmlns="http://www.w3.org/2000/svg" xmlns:xlink="http://www.w3.org/1999/xlink" viewBox="0 0 128 128"><defs><filter id="a" width="128.6%" height="133.3%" x="-14.3%" y="-16.7%" filterUnits="objectBoundingBox"><feOffset dy="2" in="SourceAlpha" result="shadowOffsetOuter1"/><feGaussianBlur in="shadowOffsetOuter1" result="shadowBlurOuter1" stdDeviation="3"/><feColorMatrix in="shadowBlurOuter1" result="shadowMatrixOuter1" values="0 0 0 0 0 0 0 0 0 0 0 0 0 0 0 0 0 0 0.2 0"/><feMerge><feMergeNode in="shadowMatrixOuter1"/><feMergeNode in="SourceGraphic"/></feMerge></filter><filter id="c" width="101.8%" height="102.1%" x="-.9%" y="-1%" filterUnits="objectBoundingBox"><feOffset dy="2" in="SourceAlpha" result="shadowOffsetInner1"/><feComposite in="shadowOffsetInner1" in2="SourceAlpha" k2="-1" k3="1" operator="arithmetic" result="shadowInnerInner1"/><feColorMatrix in="shadowInnerInner1" values="0 0 0 0 1 0 0 0 0 1 0 0 0 0 1 0 0 0 0.5 0"/></filter><filter id="g" width="101.8%" height="102.7%" x="-.9%" y="-1.4%" filterUnits="objectBoundingBox"><feOffset dy="2" in="SourceAlpha" result="shadowOffsetInner1"/><feComposite in="shadowOffsetInner1" in2="SourceAlpha" k2="-1" k3="1" operator="arithmetic" result="shadowInnerInner1"/><feColorMatrix in="shadowInnerInner1" values="0 0 0 0 1 0 0 0 0 1 0 0 0 0 1 0 0 0 0.5 0"/></filter><path id="b" d="M63 6a9.75 9.75 0 0 0 9 6h36a4 4 0 0 1 4 4v76a4 4 0 0 1-4 4H4a4 4 0 0 1-4-4V4a4 4 0 0 1 4-4h50a9.75 9.75 0 0 1 9 6"/><path id="d" d="M0 0h112v69a4 4 0 0 1-4 4H4a4 4 0 0 1-4-4z"/><path id="h" d="M45.993 0A4 4 0 0 1 50 3.998v27.004A4.003 4.003 0 0 1 45.993 35H4.007A4 4 0 0 1 0 31.002V3.998A4.003 4.003 0 0 1 4.007 0zM42 4a3 3 0 1 0 0 6 3 3 0 0 0 0-6"/><radialGradient id="e" cx="50%" cy="0%" r="116.795%" fx="50%" fy="0%" gradientTransform="matrix(.06172 .9955 -.64886 .0947 .47 -.498)"><stop offset="0%" stop-color="#d8eaff"/><stop offset="100%" stop-color="#a1c8e7"/></radialGradient></defs><g fill="none" fill-rule="evenodd"><g filter="url(#a)" transform="translate(8 22)"><use xlink:href="#b" fill="#a3c6eb"/><use xlink:href="#b" fill="#000" filter="url(#c)"/><path stroke="#5c889c" stroke-linejoin="square" d="M54 .5a9.24 9.24 0 0 1 5.131 1.554 9.24 9.24 0 0 1 3.407 4.138 10.24 10.24 0 0 0 3.776 4.587A10.24 10.24 0 0 0 72 12.5h36c.966 0 1.841.392 2.475 1.025A3.5 3.5 0 0 1 111.5 16v76c0 .966-.392 1.841-1.025 2.475A3.5 3.5 0 0 1 108 95.5H4a3.5 3.5 0 0 1-2.475-1.025A3.5 3.5 0 0 1 .5 92V4c0-.966.392-1.841 1.025-2.475A3.5 3.5 0 0 1 4 .5Z"/><path fill="#fff" stroke="#5c889c" d="M103 16.5c.966 0 1.841.392 2.475 1.025A3.5 3.5 0 0 1 106.5 20v34c0 .966-.392 1.841-1.025 2.475A3.5 3.5 0 0 1 103 57.5H9a3.5 3.5 0 0 1-2.475-1.025A3.5 3.5 0 0 1 5.5 54V20c0-.966.392-1.841 1.025-2.475A3.5 3.5 0 0 1 9 16.5Z"/><g transform="translate(0 23)"><use xlink:href="#d" fill="url(#e)"/><use xlink:href="#d" fill="#000" filter="url(#g)"/><path stroke="#5c819c" stroke-linejoin="square" d="M111.5.5V69c0 .966-.392 1.841-1.025 2.475A3.5 3.5 0 0 1 108 72.5H4a3.5 3.5 0 0 1-2.475-1.025A3.5 3.5 0 0 1 .5 69V.5z"/></g></g><g transform="translate(39 62)"><use xlink:href="#h" fill="#2a4052" fill-opacity=".4"/><mask id="i" fill="#fff"><use xlink:href="#h"/></mask><path stroke="#3e6f84" d="M45.993-.5a4.5 4.5 0 0 1 4.5 4.25l.007.248v27.004a4.48 4.48 0 0 1-1.32 3.181 4.5 4.5 0 0 1-2.94 1.31l-.247.007H4.007a4.5 4.5 0 0 1-4.5-4.25l-.007-.248V3.998A4.48 4.48 0 0 1 .82.817a4.5 4.5 0 0 1 2.94-1.31L4.007-.5zM42 4.5c-.69 0-1.315.28-1.768.732A2.5 2.5 0 0 0 39.5 7c0 .69.28 1.315.732 1.768A2.5 2.5 0 0 0 42 9.5c.69 0 1.315-.28 1.768-.732A2.5 2.5 0 0 0 44.5 7c0-.69-.28-1.315-.732-1.768A2.5 2.5 0 0 0 42 4.5Z"/><path fill="#2a4052" fill-opacity=".4" stroke="#3e6f84" d="M19.563 9.77c1.003 0 2 .484 2.764 1.425l20.11 24.75H-3.312l20.11-24.75c.763-.94 1.76-1.424 2.764-1.424Z" mask="url(#i)"/><path fill="#2a4052" fill-opacity=".4" stroke="#3e6f84" d="M32.854 15.089c.984 0 1.959.49 2.708 1.438L52.914 38.5h-40.12l17.351-21.973c.749-.948 1.725-1.438 2.71-1.438Z" mask="url(#i)"/></g></g></svg>