<svg xmlns="http://www.w3.org/2000/svg" xml:space="preserve" viewBox="0 0 24 24"><path fill="#f44336" d="M10 4H4c-1.11 0-2 .89-2 2v12c0 1.097.903 2 2 2h16c1.097 0 2-.903 2-2V8a2 2 0 0 0-2-2h-8z" data-folderColor="PDF"/><path fill="#ffcdd2" fill-rule="evenodd" d="M16.458 16.164a9 9 0 0 1-.606 1.44c-.12.228-.252.444-.3.624l.066-.024a11.3 11.3 0 0 1 2.004-.558 2 2 0 0 1-.246-.192c-.36-.306-.672-.75-.918-1.29m3.888 2.286c-.102.114-.282.18-.546.18a4.4 4.4 0 0 1-1.8-.444c-1.032.114-1.8.252-2.418.45l-.108.042c-.744 1.272-1.296 1.842-1.782 1.842a.54.54 0 0 1-.264-.066l-.288-.186-.018-.03a.55.55 0 0 1-.03-.324c.066-.318.408-.822 1.128-1.272q.173-.125.534-.294c.18-.312.372-.678.576-1.08.306-.618.498-1.23.648-1.758v-.006c-.222-.726-.354-1.164-.132-1.962.054-.228.252-.462.474-.462h.144c.138 0 .27.048.366.144.396.396.21 1.362.012 2.16q-.017.055-.024.084c.24.678.582 1.224.96 1.536.156.12.33.24.522.348q.405-.044.774-.042c.744 0 1.194.132 1.368.414.06.096.09.21.072.33a.58.58 0 0 1-.168.396M21 11.4h-8.4c-.666 0-1.2.534-1.2 1.2V21a1.2 1.2 0 0 0 1.2 1.2H21a1.2 1.2 0 0 0 1.2-1.2v-8.4a1.2 1.2 0 0 0-1.2-1.2m-.9 6.624c-.06-.06-.3-.21-1.14-.21-.042 0-.084 0-.138.06.438.192.864.306 1.14.306q.061-.002.114-.012h.024c.03-.012.048-.018.054-.078-.012-.018-.024-.042-.054-.066m-5.502.876a3 3 0 0 0-.288.186c-.426.39-.696.786-.726 1.014.27-.09.624-.486 1.014-1.2m1.812-4.146.03-.024c.042-.192.06-.36.096-.492l.018-.096c.06-.342.048-.516-.054-.66l-.09-.03-.042.072c-.102.252-.096.69.042 1.23" data-folderIconColor="PDF"/></svg>