<svg xmlns="http://www.w3.org/2000/svg" xml:space="preserve" fill-rule="evenodd" stroke-linejoin="round" stroke-miterlimit="1.414" clip-rule="evenodd" viewBox="0 0 24 24"><path fill="#d14748" fill-rule="nonzero" d="M10 4H4c-1.11 0-2 .89-2 2v12c0 1.097.903 2 2 2h16c1.097 0 2-.903 2-2V8a2 2 0 0 0-2-2h-8z" data-folderColor="Rust"/><path fill="#ffcdd2" d="m21.52 15.865-.47-.29c0-.046-.008-.092-.013-.137l.4-.377a.16.16 0 0 0-.054-.27l-.516-.193-.04-.133.32-.447a.16.16 0 0 0 .019-.16.16.16 0 0 0-.12-.098l-.544-.089-.065-.122.229-.503a.16.16 0 0 0-.153-.228l-.552.019-.087-.107.126-.533a.16.16 0 0 0-.194-.197l-.537.127q-.051-.043-.107-.085l.02-.552a.16.16 0 0 0-.072-.14.16.16 0 0 0-.16-.013l-.502.229-.122-.066-.086-.544a.16.16 0 0 0-.098-.123.16.16 0 0 0-.16.018l-.448.32-.132-.04-.188-.515a.16.16 0 0 0-.27-.056l-.377.404-.137-.011-.29-.473a.16.16 0 0 0-.276 0l-.29.47-.134.016-.38-.406a.16.16 0 0 0-.27.054l-.193.516-.133.04-.447-.32a.16.16 0 0 0-.255.104l-.088.544-.122.068-.502-.23a.16.16 0 0 0-.16.014.16.16 0 0 0-.072.14l.02.552q-.054.042-.107.087L12.196 12a.16.16 0 0 0-.196.197l.129.538q-.045.052-.087.107l-.552-.02a.16.16 0 0 0-.153.23l.229.5q-.034.06-.066.122l-.544.086a.16.16 0 0 0-.105.254l.32.448-.04.133-.515.196a.16.16 0 0 0-.054.27l.404.379c-.006.043-.006.089-.013.134l-.473.29a.16.16 0 0 0 0 .276l.473.29c.007.05.007.092.013.137l-.406.377a.16.16 0 0 0 .054.27l.518.193.04.134-.32.447a.16.16 0 0 0-.018.156.16.16 0 0 0 .123.098l.544.088c.02.042.043.08.065.123l-.228.501a.16.16 0 0 0 .152.23l.552-.02.088.106-.13.537a.16.16 0 0 0 .196.193l.538-.126.107.087-.02.553a.16.16 0 0 0 .23.152l.502-.23q.06.034.122.066l.085.547a.16.16 0 0 0 .098.123.16.16 0 0 0 .16-.018l.447-.32.133.04.194.516a.16.16 0 0 0 .27.054l.378-.404q.068.009.138.014l.288.466a.16.16 0 0 0 .274 0l.29-.47.137-.01.377.4a.16.16 0 0 0 .27-.054l.193-.516.134-.04.447.32a.16.16 0 0 0 .16.018.16.16 0 0 0 .098-.123l.088-.544.123-.066.502.229a.16.16 0 0 0 .228-.152l-.019-.553.106-.087.534.128a.16.16 0 0 0 .151-.043.16.16 0 0 0 .041-.15l-.126-.538q.044-.052.087-.107l.552.02a.16.16 0 0 0 .14-.072.16.16 0 0 0 .012-.16l-.229-.501.066-.123.544-.088a.16.16 0 0 0 .104-.254l-.32-.447.04-.134.516-.193a.16.16 0 0 0 .102-.12.16.16 0 0 0-.048-.146l-.4-.377.014-.137.466-.29a.16.16 0 0 0 0-.275m-3.146 3.895a.333.333 0 1 1 .395-.255.334.334 0 0 1-.395.255m-.16-1.08a.3.3 0 0 0-.359.234l-.167.778a4.1 4.1 0 0 1-3.411-.012l-.167-.778a.303.303 0 0 0-.36-.233l-.687.147a4 4 0 0 1-.355-.418h3.344c.038 0 .063-.008.063-.042V17.17c0-.034-.025-.041-.063-.041h-.978v-.75h1.057a.665.665 0 0 1 .65.56c.042.165.135.702.198.874a.85.85 0 0 0 .591.577h1.667a.4.4 0 0 0 .06-.005 4 4 0 0 1-.379.445l-.703-.152Zm-4.624 1.064a.333.333 0 1 1 .256-.395.33.33 0 0 1-.256.397Zm-1.27-5.142a.332.332 0 1 1-.438-.17.333.333 0 0 1 .438.17m-.387.924.716-.32a.303.303 0 0 0 .151-.398l-.145-.334h.58v2.614h-1.17a4 4 0 0 1-.16-1.12 4 4 0 0 1 .023-.44Zm3.141-.253v-.77h1.381a.515.515 0 0 1 .504.406.514.514 0 0 1-.604.364h-1.28Zm5.018.693q0 .153-.011.303h-.421a.058.058 0 0 0-.06.069v.193a.495.495 0 0 1-.48.578.46.46 0 0 1-.48-.22 1.44 1.44 0 0 0-.666-1.12 1.51 1.51 0 0 0 .839-1.163 1.31 1.31 0 0 0-.64-1.079 1.8 1.8 0 0 0-.88-.289h-4.341a4.1 4.1 0 0 1 2.289-1.292l.512.534a.303.303 0 0 0 .428.01l.573-.546a4.1 4.1 0 0 1 2.8 1.995l-.392.885a.304.304 0 0 0 .155.4l.754.336q.02.202.02.406Zm-4.338-4.48a.332.332 0 1 1-.012.47.33.33 0 0 1 .01-.467Zm3.89 3.13a.332.332 0 1 1 .168.438.333.333 0 0 1-.169-.436Z" data-folderIconColor="Rust"/></svg>