<svg xmlns="http://www.w3.org/2000/svg" fill-rule="evenodd" stroke-linejoin="round" stroke-miterlimit="1.414" clip-rule="evenodd" viewBox="0 0 24 24"><path fill="#039be5" fill-rule="nonzero" d="M10 4H4c-1.11 0-2 .89-2 2v12c0 1.097.903 2 2 2h16c1.097 0 2-.903 2-2V8a2 2 0 0 0-2-2h-8z" data-folderColor="Electron"/><path fill="#b3e5fc" stroke="#b3e5fc" stroke-width=".3" d="M14.054 12.27c.362.067.261.613-.101.547-2.877-.535-4.893.602-3.367 3.417.182.32-.301.596-.484.276-1.817-3.183.54-4.886 3.952-4.24zm7.255 5.398c2.572-3.145 1.44-5.483-1.653-5.522-.367-.004-.374.552-.007.556 2.737-.011 3.389 2.014 1.234 4.608-.237.289.198.633.426.358zm-2.705 4.933c.188-.312-.28-.603-.477-.287-1.556 2.462-3.458 1.703-4.609-1.266-.124-.353-.65-.169-.525.185 1.018 3.11 3.718 4.48 5.611 1.368zM16.9 17.063a.782.782 0 1 0-1.564 0 .782.782 0 0 0 1.564 0zm-6.836 2.527c.09-2.471 3.69-5.624 7.936-6.709.365-.079.247-.622-.118-.543-3.921.868-8.573 4.354-8.377 7.405-.68.41-.673 1.406.02 1.804.7.402 1.581-.103 1.581-.908 0-.605-.497-1.04-1.042-1.05zm11.53 1.927c.5.325 1.224.176 1.516-.408.36-.72-.202-1.565-1.008-1.519a1.048 1.048 0 0 0-.884 1.499c-2.445 1.063-6.987-.716-9.657-3.546-.245-.27-.657.104-.413.374 2.533 2.8 7.68 5.065 10.445 3.6zm-4.424-11.47c0-.687-.687-1.22-1.383-.994a1.047 1.047 0 0 0-.372 1.776 1.06 1.06 0 0 0 1.598-.226c1.9 1.256 3.079 5.549 1.823 10.092-.11.352.423.516.532.165 1.142-3.688.524-9.148-2.198-10.812z" data-folderIconColor="Electron"/></svg>