<svg xmlns="http://www.w3.org/2000/svg" fill-rule="evenodd" stroke-linejoin="round" stroke-miterlimit="1.41" clip-rule="evenodd" viewBox="0 0 24 24"><path fill="#4caf50" fill-rule="nonzero" d="M10 4H4c-1.11 0-2 .89-2 2v12c0 1.1.9 2 2 2h16c1.1 0 2-.9 2-2V8a2 2 0 0 0-2-2h-8z" data-folderColor="Drizzle"/><path fill="#c8e6c9" d="m8.927 20.453 2.188-4.036a1.06 1.06 0 0 0-.401-1.424 1.016 1.016 0 0 0-1.397.41L7.13 19.437a1.06 1.06 0 0 0 .401 1.425 1 1 0 0 0 .496.13 1.02 1.02 0 0 0 .9-.54m7.213 0 2.189-4.036a1.06 1.06 0 0 0-.402-1.424 1.016 1.016 0 0 0-1.396.41l-2.19 4.034a1.06 1.06 0 0 0 .402 1.425 1 1 0 0 0 .497.13 1.02 1.02 0 0 0 .9-.54m-2.027-3.648 2.328-4.032a1.055 1.055 0 0 0-.363-1.429 1.013 1.013 0 0 0-1.4.37l-2.33 4.032a1.056 1.056 0 0 0 .364 1.429 1 1 0 0 0 .518.144 1.02 1.02 0 0 0 .883-.514m7.217 0 2.328-4.032a1.055 1.055 0 0 0-.362-1.429 1.013 1.013 0 0 0-1.401.37l-2.329 4.032a1.056 1.056 0 0 0 .363 1.429 1 1 0 0 0 .518.144 1.02 1.02 0 0 0 .883-.514" data-folderIconColor="Drizzle"/></svg>