<svg xmlns="http://www.w3.org/2000/svg" xml:space="preserve" fill-rule="evenodd" stroke-linejoin="round" stroke-miterlimit="1.414" clip-rule="evenodd" viewBox="0 0 24 24"><path fill="#e57373" d="M20 18H4V8h16m0-2h-8l-2-2H4c-1.11 0-2 .89-2 2v12a2 2 0 0 0 2 2h16a2 2 0 0 0 2-2V8a2 2 0 0 0-2-2" data-folderColor="Dist"/><path fill="#ffcdd2" d="M18.575 11.113h-2.576V9.825h2.576m3.864 1.288h-2.576V9.825l-1.288-1.288h-2.576L14.71 9.825v1.288h-2.577c-.715 0-1.288.573-1.288 1.288v7.085a1.29 1.29 0 0 0 1.288 1.288H22.44a1.29 1.29 0 0 0 1.288-1.288V12.4c0-.715-.58-1.288-1.288-1.288" data-folderIconColor="Dist"/></svg>