<svg xmlns="http://www.w3.org/2000/svg" xmlns:xlink="http://www.w3.org/1999/xlink" xml:space="preserve" fill-rule="evenodd" stroke-linejoin="round" stroke-miterlimit="1.414" clip-rule="evenodd" viewBox="0 0 24 24"><defs><path id="a" d="M17.245 22.834a.587.587 0 0 1-1.047-.356l-.121-8.07h5.426c.983 0 1.531 1.135.92 1.904z"/></defs><path fill="#26a69a" d="M20 18H4V8h16m0-2h-8l-2-2H4c-1.11 0-2 .89-2 2v12a2 2 0 0 0 2 2h16a2 2 0 0 0 2-2V8a2 2 0 0 0-2-2" data-folderColor="Supabase"/><g fill="#b2dfdb" data-folderIconColor="Supabase"><use xlink:href="#a"/><use xlink:href="#a"/><path d="M15.038 9.849a.587.587 0 0 1 1.047.356l.053 8.07H10.78c-.983 0-1.531-1.135-.92-1.905z"/></g></svg>