<svg xmlns="http://www.w3.org/2000/svg" xml:space="preserve" fill-rule="evenodd" stroke-linejoin="round" stroke-miterlimit="1.414" clip-rule="evenodd" viewBox="0 0 24 24"><path fill="#ff5252" d="M20 18H4V8h16m0-2h-8l-2-2H4c-1.11 0-2 .89-2 2v12a2 2 0 0 0 2 2h16a2 2 0 0 0 2-2V8a2 2 0 0 0-2-2" data-folderColor="Angular"/><path fill="#ffcdd2" d="m18.034 9.132 5.692 2.028-.863 7.534-4.829 2.672-4.83-2.672-.862-7.534zm0 1.352-3.56 7.985H15.8l.714-1.79h3.027l.714 1.79h1.32zm1.043 5.087h-2.08l1.037-2.492z" data-folderIconColor="Angular"/></svg>