<svg xmlns="http://www.w3.org/2000/svg" xml:space="preserve" stroke-miterlimit="10" viewBox="0 0 24 24"><path fill="#f78c6c" d="M10 4H4c-1.11 0-2 .89-2 2v12c0 1.1.9 2 2 2h16c1.1 0 2-.9 2-2V8a2 2 0 0 0-2-2h-8z" data-folderColor="Islands"/><path fill="#ffe0b2" d="M21 21c-.973 0-1.946-.329-2.8-.931-1.708 1.197-3.892 1.197-5.6 0-.854.602-1.827.931-2.8.931H8.4v1.4h1.4a6.1 6.1 0 0 0 2.8-.7c1.75.91 3.85.91 5.6 0a6.1 6.1 0 0 0 2.8.7h1.4V21zm.546-.7H21c-.826 0-1.652-.28-2.394-.805l-.406-.28-.406.28a4.16 4.16 0 0 1-2.394.77 4.17 4.17 0 0 1-2.408-.77l-.392-.28-.399.28c-.749.525-1.575.805-2.401.805h-.546c.371-1.022 1.652-2.8 6.146-2.8 1.4 0 2.1.168 2.1.168.476-.959 1.281-3.129.7-5.894l.742.497c.231 1.001.658 2.954-.182 5.684 1.841.595 2.534 1.645 2.786 2.345m.854-7.987a3.5 3.5 0 0 0-2.394-1.442q.124.149.238.329a3.52 3.52 0 0 1-.315 4.165c.413-1.015.371-2.212-.273-3.213-.056-.056-.084-.112-.126-.175a3.35 3.35 0 0 0-1.064-.973 3.52 3.52 0 0 0-2.45 3.346c0 .371.056.721.154 1.05a3.46 3.46 0 0 1-.658-2.051c0-1.162.56-2.184 1.428-2.828a3.5 3.5 0 0 0-2.142.525q-.462.285-.798.686a3.53 3.53 0 0 1 1.4-1.652 3.4 3.4 0 0 1 2.373-.497 3.6 3.6 0 0 0-.742-.763 3.5 3.5 0 0 0-.931-.504c.7.021 1.428.252 2.037.707.308.231.553.511.763.812.042 0 .084-.007.133-.007a3.52 3.52 0 0 1 3.367 2.485" data-folderIconColor="Islands"/></svg>