<svg xmlns="http://www.w3.org/2000/svg" fill-rule="evenodd" stroke-linejoin="round" stroke-miterlimit="1.414" clip-rule="evenodd" viewBox="0 0 24 24"><path fill="#ff8a65" d="M20 18H4V8h16m0-2h-8l-2-2H4c-1.11 0-2 .89-2 2v12a2 2 0 0 0 2 2h16a2 2 0 0 0 2-2V8a2 2 0 0 0-2-2" data-folderColor="UI"/><path fill="#fbe9e7" d="M11.475 21.4q-.39 0-.682-.292-.293-.293-.293-.683v-5.85q0-.39.293-.682.292-.293.682-.293h11.05q.39 0 .683.293.292.292.292.682v5.85q0 .39-.292.682-.293.293-.683.293Zm2.389-1.95h.796v-1.544h1.544v-.812H14.66V15.55h-.796v1.544H12.32v.812h1.544z" data-folderIconColor="UI"/></svg>