<svg xmlns="http://www.w3.org/2000/svg" xml:space="preserve" fill-rule="evenodd" stroke-linejoin="round" stroke-miterlimit="1.414" clip-rule="evenodd" viewBox="0 0 24 24"><path fill="#6aab20" fill-rule="nonzero" d="M10 4H4c-1.11 0-2 .89-2 2v12c0 1.097.903 2 2 2h16c1.097 0 2-.903 2-2V8a2 2 0 0 0-2-2h-8z" data-folderColor="Vim"/><path fill="#f0f4c3" d="M14.18 23h-1.117l-.323-.185v-9.547h-.54l-.2-.197v-.839l.216-.232H16.5l.266.259v.795l-.207.246h-.469v3.95l4.036-3.95h-.667l-.234-.25v-.836l.216-.2h4.342l.217.218v.786Z" data-folderIconColor="Vim"/></svg>