<svg xmlns="http://www.w3.org/2000/svg" xml:space="preserve" fill-rule="evenodd" stroke-linejoin="round" stroke-miterlimit="1.414" clip-rule="evenodd" viewBox="0 0 24 24"><path fill="#ea7130" d="M20 18H4V8h16m0-2h-8l-2-2H4c-1.11 0-2 .89-2 2v12a2 2 0 0 0 2 2h16a2 2 0 0 0 2-2V8a2 2 0 0 0-2-2" data-folderColor="Chef"/><path fill="#ffccbc" d="m15.11 17.294-.9.394c-.7-1.812.554-3.64 2.443-3.743v.98c-1.153.079-1.942 1.173-1.543 2.369m2.378.985.355.915a2.75 2.75 0 0 0 1.485-1.583h-1.083a1.77 1.77 0 0 1-.757.668m-.835 1.137v-.98a1.74 1.74 0 0 1-1.062-.443l-.695.695a2.7 2.7 0 0 0 1.757.728m1.19-5.248-.355.914c.31.142.574.376.757.669h1.087a2.8 2.8 0 0 0-1.489-1.583m6.517 1.583c-.145-1.031-.518-2.156-1.055-3.036l-.95.591c.436.728.724 1.63.857 2.445zm0 1.86h-1.149c-.823 4.864-6.908 7.74-11.082 3.83l-.791.79c4.944 4.522 12.108 1.301 13.022-4.62m-13.725 1.655a6.6 6.6 0 0 1-.513-2.453H9a7.8 7.8 0 0 0 .611 2.904zm5.986-7.499v-1.035c-2.402.096-4.329 1.389-5.29 3.621l.961.376c.763-1.808 2.38-2.887 4.329-2.962m4.82 3.984h1.052c-.345-1.955-1.714-3.82-3.561-4.58l-.375.962c1.157.469 2.476 1.813 2.884 3.618m-1.616 1.86c-.592 1.894-2.863 2.952-4.722 1.88-2.158-1.246-2.158-4.375 0-5.62 1.86-1.073 4.13-.015 4.722 1.88h.998c-.619-2.64-3.698-4.159-6.203-2.714-2.798 1.615-2.798 5.673 0 7.287 2.505 1.445 5.584-.073 6.203-2.713zm1.719 0c-.528 2.183-2.473 3.893-4.721 3.94v1.078c3.168-.088 5.324-2.5 5.82-5.018zm-9.781-.798H10.68c.04 1.934 1.22 4.281 3.699 5.34l.4-.996a4.97 4.97 0 0 1-3.017-4.344m-2.14-3.126 1.04.406c1.657-3.984 6.649-5.085 9.906-2.725l.67-.899c-3.913-2.857-9.636-1.42-11.617 3.218" data-folderIconColor="Chef"/></svg>