<svg xmlns="http://www.w3.org/2000/svg" fill-rule="evenodd" stroke-linejoin="round" stroke-miterlimit="1.414" clip-rule="evenodd" viewBox="0 0 24 24"><path fill="#ff7043" d="M20 18H4V8h16m0-2h-8l-2-2H4c-1.11 0-2 .89-2 2v12a2 2 0 0 0 2 2h16a2 2 0 0 0 2-2V8a2 2 0 0 0-2-2" data-folderColor="Custom"/><path fill="#ffccbc" d="M18.755 10.609a.52.52 0 0 0-.368.157l-7.166 7.166v2.574h2.573l7.176-7.157a.515.515 0 0 0 0-.74l-1.844-1.843a.53.53 0 0 0-.371-.157m-.765 7.813-2.084 2.084h7.813v-2.084z" data-folderIconColor="Custom"/></svg>