<svg xmlns="http://www.w3.org/2000/svg" fill-rule="evenodd" stroke-linejoin="round" stroke-miterlimit="1.414" clip-rule="evenodd" viewBox="0 0 24 24"><path fill="#ec407a" fill-rule="nonzero" d="M10 4H4c-1.11 0-2 .89-2 2v12c0 1.097.903 2 2 2h16c1.097 0 2-.903 2-2V8a2 2 0 0 0-2-2h-8z" data-folderColor="Debian"/><path fill="#fce4ec" d="m16.754 17.297.25-.215c-.207.05-.418.052-.63.032-.254.004.049.132.38.183m.986-.523a1.6 1.6 0 0 0 .301-.675c-.034.168-.126.314-.212.468-.476.3-.045-.178 0-.36-.512.644-.07.387-.089.567m.504-1.312c.031-.458-.09-.314-.13-.139.047.025.085.324.13.139M15.41 9.197c.136.025.293.043.271.076.149-.033.183-.063-.271-.076m-.082 9.559a3 3 0 0 1-.977-.748c.146.214.304.423.508.586-.346-.117-.806-.836-.941-.865.595 1.065 2.415 1.869 3.368 1.47-.441.016-1 .009-1.496-.174-.191-.098-.444-.292-.446-.356-.01.025-.025.05-.016.087m5.487-4.267c.004-.233.064-.124.088-.181-.046-.027-.166-.206-.24-.55.054-.08.142.21.215.222-.047-.273-.127-.481-.13-.69-.21-.442-.075.058-.246-.19-.225-.701.186-.163.214-.481.34.493.535 1.257.624 1.574a6.5 6.5 0 0 0-.312-1.121c.103.043-.167-.795.134-.24-.321-1.183-1.375-2.288-2.345-2.807.118.11.268.245.214.267-.482-.287-.397-.31-.466-.43-.393-.16-.419.012-.679 0-.74-.393-.883-.351-1.565-.597l.031.145c-.49-.164-.572.062-1.102 0-.032-.025.17-.091.336-.115-.474.062-.452-.094-.916.017.114-.08.235-.134.358-.202-.387.024-.924.225-.758.042-.632.282-1.752.677-2.381 1.267l-.02-.133c-.289.346-1.257 1.034-1.334 1.482l-.077.018c-.15.254-.247.542-.366.803-.196.334-.288.129-.26.181-.385.782-.577 1.44-.742 1.978.118.177.002 1.062.047 1.77-.194 3.5 2.455 6.896 5.351 7.68.425.152 1.056.147 1.593.162-.634-.181-.716-.096-1.332-.31-.445-.21-.543-.45-.859-.723l.125.22c-.618-.219-.36-.27-.863-.43l.134-.174c-.2-.016-.531-.338-.622-.517l-.219.009c-.264-.325-.404-.56-.393-.74l-.071.126c-.08-.138-.97-1.22-.508-.968-.086-.078-.2-.127-.323-.351l.094-.107c-.222-.286-.409-.652-.395-.774.119.16.2.19.282.217-.56-1.39-.592-.076-1.016-1.415l.09-.007c-.07-.104-.111-.217-.167-.327l.04-.39c-.404-.466-.113-1.983-.055-2.815.04-.338.337-.699.562-1.264l-.137-.023c.262-.458 1.499-1.84 2.072-1.769.277-.348-.055 0-.11-.089.61-.63.801-.445 1.213-.559.443-.263-.38.103-.17-.1.767-.196.543-.445 1.543-.545.106.06-.245.093-.333.171.64-.313 2.022-.242 2.92.174 1.042.487 2.214 1.926 2.26 3.281l.053.014c-.027.539.082 1.162-.107 1.734l.129-.271c.014.411-.12.611-.243.964l-.22.11c-.18.35.017.222-.112.5-.281.25-.853.782-1.036.83-.133-.002.091-.157.12-.218-.376.258-.301.388-.877.545l-.017-.037c-1.419.667-3.39-.656-3.363-2.46-.016.115-.043.085-.075.132-.073-.929.429-1.861 1.275-2.242.829-.41 1.8-.242 2.393.311-.326-.427-.975-.88-1.743-.837-.753.012-1.458.49-1.693 1.01-.385.242-.43.936-.599 1.063-.226 1.662.426 2.38 1.528 3.225.09.06.1.093.093.124 1.3.485 2.644.367 3.77-.536.285-.223.598-.602.689-.607-.137.205.023.098-.082.279.285-.46-.124-.187.295-.794l.155.213c-.057-.382.474-.846.42-1.45.123-.184.086.433.007.624.18-.471.047-.547.094-.936.05.13.115.27.148.408-.117-.456.12-.767.179-1.032-.058-.026-.181.2-.21-.338m-7.254 3.153c.167.227.3.473.514.65-.154-.3-.268-.423-.478-.829-.07-.031-.065.077-.036.179m.432-.194c-.089-.098-.142-.216-.2-.334.056.207.171.384.278.565zm6.516-.012a4.4 4.4 0 0 0 .48-1.509l-.037.094a4.5 4.5 0 0 1-.443 1.415M16.065 9c-.238.02-.475.032-.709.062l.104.014c.171-.063.423-.035.605-.076m-6.577 3.555c.177-.398-.048-.143-.068-.249.027.354-.272.487.068.25m-.352.898c-.22.282-.101.342-.124.534.08-.245.094-.392.124-.534" data-folderIconColor="Debian"/></svg>