<svg xmlns="http://www.w3.org/2000/svg" xml:space="preserve" fill-rule="evenodd" stroke-linejoin="round" stroke-miterlimit="1.414" clip-rule="evenodd" viewBox="0 0 24 24"><path fill="#ff7043" d="M10 4H4c-1.1 0-2 .9-2 2v12c0 1.1.9 2 2 2h16c1.1 0 2-.9 2-2V8c0-1.1-.9-2-2-2h-8z" data-folderColor="Navigation"/><path fill="#ffccbc" d="M16.8 16.45a1.75 1.75 0 0 1-1.75-1.75 1.75 1.75 0 0 1 1.75-1.75 1.75 1.75 0 0 1 1.75 1.75 1.75 1.75 0 0 1-1.75 1.75m0-6.65a4.9 4.9 0 0 0-4.9 4.9c0 3.675 4.9 9.1 4.9 9.1s4.9-5.425 4.9-9.1a4.9 4.9 0 0 0-4.9-4.9" data-folderIconColor="Navigation"/>/&gt;</svg>