<svg xmlns="http://www.w3.org/2000/svg" xml:space="preserve" viewBox="0 0 24 24"><path fill="#78909c" d="M10 4H4c-1.1 0-2 .9-2 2v12c0 1.1.9 2 2 2h16c1.1 0 2-.9 2-2V8c0-1.1-.9-2-2-2h-8z" data-folderColor="KiVy"/><path fill="#cfd8dc" d="M17.3 9.3c-3.4 0-6.2 2.8-6.2 6.2s2.8 6.2 6.2 6.2 6.2-2.8 6.2-6.2-2.7-6.2-6.2-6.2m-3.9 3.4s1.6 1.2 1.6 1.7c0 .4-1.6 1.7-1.6 1.7zm1.8 5.6s-1.5-1.3-1.5-1.7 1.5-1.7 1.5-1.7zm2.4.1c-.2 0-1.5-1.4-1.7-1.6s-.3-.7-.3-.7v-3.4l2.8 2.8s.9.8.9 1.2c.1.2-1.5 1.7-1.7 1.7m2.3-2.1L18 14.5l4.1-.4z" data-folderIconColor="KiVy"/></svg>