<svg xmlns="http://www.w3.org/2000/svg" xml:space="preserve" fill-rule="evenodd" stroke-linejoin="round" stroke-miterlimit="1.414" clip-rule="evenodd" viewBox="0 0 24 24"><path fill="#ffb300" d="M20 18H4V8h16m0-2h-8l-2-2H4c-1.11 0-2 .89-2 2v12a2 2 0 0 0 2 2h16a2 2 0 0 0 2-2V8a2 2 0 0 0-2-2" data-folderColor="Views"/><path fill="#ffe0b2" d="M13.3 22.14 12.29 10.8h11.109l-1.012 11.339-4.55 1.261zm4.094-2.933-3.6-2.165v-.784l3.6-2.165v1.214l-2.297 1.343 2.297 1.343zm.9-.002v-1.212l2.313-1.343-2.313-1.342v-1.213l3.6 2.154v.802z" data-folderIconColor="Views"/></svg>