<svg xmlns="http://www.w3.org/2000/svg" fill-rule="evenodd" stroke-linejoin="round" stroke-miterlimit="1.414" clip-rule="evenodd" viewBox="0 0 24 24"><path fill="#ffc63a" d="M20 18H4V8h16m0-2h-8l-2-2H4c-1.11 0-2 .89-2 2v12a2 2 0 0 0 2 2h16a2 2 0 0 0 2-2V8a2 2 0 0 0-2-2" data-folderColor="Pinia"/><g fill="none"><g fill="#52ce63"><path d="M17.388 14.87c.968-.923.673-2.064-.204-3.446s-2.642-1.875-2.971-1.561-.402 2.557.474 3.94c.877 1.382 1.733 1.989 2.701 1.066"/><path d="M18.225 14.997c.717 1.13 1.674.716 2.86-.413s1.676-3.292 1.433-3.676c-.244-.384-2.095-.365-3.28.764s-1.729 2.196-1.013 3.325"/><path d="M17.834 14.376c1.189.146 1.657-.953 1.875-2.729s-.681-3.653-1.086-3.703-1.763 1.55-1.981 3.326.002 2.96 1.192 3.106"/></g><path fill="#fff9c4" d="M17.534 22.23c2.494 0 4.516-.724 4.516-4.01s-2.022-5.98-4.516-5.98c-2.493 0-4.514 2.696-4.514 5.98s2.02 4.01 4.514 4.01" data-folderIconColor="Pinia"/></g></svg>