<svg xmlns="http://www.w3.org/2000/svg" xml:space="preserve" fill-rule="evenodd" stroke-linejoin="round" stroke-miterlimit="1.414" clip-rule="evenodd" viewBox="0 0 24 24"><path fill="#ec407a" d="M20 18H4V8h16m0-2h-8l-2-2H4c-1.11 0-2 .89-2 2v12a2 2 0 0 0 2 2h16a2 2 0 0 0 2-2V8a2 2 0 0 0-2-2" data-folderColor="Animations"/><path fill="#f8bbd0" d="M21.944 12.474a4.87 4.87 0 0 1 0 6.885 4.88 4.88 0 0 1-4.918 1.2c-.959.3-1.992.3-2.95 0a4.88 4.88 0 0 1-4.919-1.2 4.87 4.87 0 0 1 0-6.885 4.88 4.88 0 0 1 4.918-1.2 4.95 4.95 0 0 1 2.951 0 4.88 4.88 0 0 1 4.918 1.2m-9.836 6.885a4.87 4.87 0 0 1 0-6.885 3.45 3.45 0 0 0-1.967.983 3.477 3.477 0 0 0 0 4.918c.556.556 1.244.88 1.967.984m2.95 0a4.87 4.87 0 0 1 0-6.885 3.45 3.45 0 0 0-1.966.983 3.477 3.477 0 0 0 0 4.918c.555.556 1.244.88 1.967.984m5.901-5.902a3.45 3.45 0 0 0-1.967-.983 4.87 4.87 0 0 1 0 6.885 3.45 3.45 0 0 0 1.967-.984 3.477 3.477 0 0 0 0-4.918m-4.918 0a3.477 3.477 0 0 0 0 4.918q.444.444.984.689a3.3 3.3 0 0 0 .984-.689 3.477 3.477 0 0 0 0-4.918 3.3 3.3 0 0 0-.984-.688 3.3 3.3 0 0 0-.984.688" data-folderIconColor="Animations"/></svg>