<svg xmlns="http://www.w3.org/2000/svg" viewBox="0 0 16 16"><path fill="currentColor" d="M7 2v2.133a4 4 0 0 0-1.027.426L4.465 3.05 3.05 4.465l1.508 1.508A4 4 0 0 0 4.13 7H2v2h2.133a4 4 0 0 0 .426 1.027L3.05 11.535l1.414 1.414 1.508-1.508A4 4 0 0 0 7 11.87V14h2v-2.133a4 4 0 0 0 1.027-.426l1.508 1.508 1.414-1.414-1.508-1.508A4 4 0 0 0 11.87 9H14V7h-2.133a4 4 0 0 0-.426-1.027l1.508-1.508-1.414-1.414-1.508 1.508A4 4 0 0 0 9 4.13V2zm1 4a2 2 0 0 1 2 2 2 2 0 0 1-2 2 2 2 0 0 1-2-2 2 2 0 0 1 2-2" color="#5d656b"/></svg>