<svg xmlns="http://www.w3.org/2000/svg" xmlns:xlink="http://www.w3.org/1999/xlink" viewBox="0 0 128 128"><defs><linearGradient id="c"><stop offset="0" stop-color="#ffe16b"/><stop offset="1" stop-color="#f9c440"/></linearGradient><linearGradient xlink:href="#a" id="i" x1="24.624" x2="24.624" y1="9.874" y2="36.147" gradientTransform="matrix(4.51192 0 0 4.5076 -32.931 -42.508)" gradientUnits="userSpaceOnUse"/><linearGradient id="a"><stop offset="0" stop-color="#fff"/><stop offset=".334" stop-color="#fff" stop-opacity=".235"/><stop offset=".679" stop-color="#fff" stop-opacity=".157"/><stop offset="1" stop-color="#fff" stop-opacity=".392"/></linearGradient><linearGradient xlink:href="#b" id="h" x1="11.566" x2="15.215" y1="22.292" y2="33.955" gradientTransform="translate(7.946 -8.325)scale(2.66667)" gradientUnits="userSpaceOnUse"/><linearGradient id="b"><stop offset="0" stop-color="#fff" stop-opacity=".275"/><stop offset="1" stop-color="#fff" stop-opacity="0"/></linearGradient><linearGradient id="d"><stop offset="0"/><stop offset="1" stop-opacity="0"/></linearGradient><linearGradient xlink:href="#c" id="g" x1="64.992" x2="64.992" y1="2.029" y2="120.246" gradientUnits="userSpaceOnUse"/><radialGradient xlink:href="#d" id="f" cx="62.625" cy="4.625" r="10.625" fx="62.625" fy="4.625" gradientTransform="matrix(5.8353 0 0 2.25883 -301.436 93.553)" gradientUnits="userSpaceOnUse"/></defs><path fill="url(#f)" fill-rule="evenodd" d="M126 104c0 13.255-27.758 24-62 24S2 117.255 2 104s27.758-24 62-24 62 10.745 62 24" opacity=".3" overflow="visible" style="marker:none"/><path fill="url(#g)" stroke="#ad5f00" stroke-linejoin="round" stroke-opacity=".498" stroke-width=".992" d="M64 2.496c4.15 0 17.533 33.397 20.892 35.835 3.358 2.437 39.286 4.832 40.569 8.776 1.282 3.944-26.375 26.98-27.658 30.924-1.282 3.944 7.54 38.821 4.182 41.259-3.358 2.437-33.834-16.723-37.985-16.723s-34.627 19.16-37.985 16.723 5.464-37.315 4.182-41.26c-1.283-3.943-28.94-26.979-27.658-30.923s37.211-6.339 40.57-8.776C46.466 35.893 59.848 2.496 64 2.496Z" overflow="visible" style="marker:none"/><path fill="url(#h)" d="M64.063 3.375c-.003 0-.06.062-.063.062h-.125a1 1 0 0 0-.125 0h-.062l-.125.063c-.004 0-.06-.002-.063 0-.003 0-.06.06-.062.062h-.125c-.003.001-.06.061-.063.063-.003.001-.06-.002-.062 0-.003.001-.06.06-.063.062l-.062.063c-.003.001-.06-.002-.063 0l-.062.062-.063.063-.062.062-.125.125-.063.063-.062.062-.063.063c-.002.002.002.06 0 .062-.045.065-9.744 14.132-18.625 34.75-12.773 2.06-29.597 4.344-39.187 7.25l-.125.063c-.005.001-.059.06-.063.062s-.12-.002-.125 0l-.125.063c-.004.002-.059.06-.062.062l-.063.063-.125.062-.062.063c-.004.003-.06.121-.063.125-.003.003-.122.059-.125.062l-.062.125-.063.063-.062.125c-.003.004.001.058 0 .062l-.063.125c-.002.004-.061.058-.062.063s0 .12 0 .125c-.002.004-.062.12-.063.125v.75c0 .004.061.12.063.125 0 .004-.002.12 0 .125 0 .004.06.058.062.062s-.002.121 0 .125.06.059.063.063l.062.125.063.125C10.645 58.379 19.472 66.136 27.125 74l.125.125c.003.003.059.06.063.062.003.003.12.06.125.063.003.003.058.06.062.062l.125.063c.004.002.058.06.063.062s.12-.002.125 0l.125.063c.004.001.058.061.062.062h.25c.005 0 .12.062.125.063h.188c.004 0 .12-.062.125-.063h.125l84.75-15.25h.187c.003 0 .06-.061.063-.062h.062c.003-.001.06-.062.063-.063.003 0 .06.002.062 0 .003-.001.06-.06.063-.062s.06.001.062 0l.063-.063c.003-.001.06.002.062 0 .003-.001.06-.06.063-.062l.062-.063c.002-.002.06.002.063 0l.062-.062.063-.063s-.013-.05 0-.062h.062A3150 3150 0 0 1 124 49.437l.063-.062.062-.063c.002-.002-.002-.06 0-.062.001-.003.061-.06.063-.063 0-.002.06-.06.062-.062v-.063l.063-.062v-.063c0-.002.061-.06.062-.062v-.125c.001-.003.062-.06.063-.063v-.25c0-.002.062-.06.062-.062v-.438c0-.002-.062-.06-.062-.062v-.25c-.001-.003-.062-.06-.063-.063v-.125c0-.002-.061.003-.062 0v-.125l-.063-.062v-.063c0-.002-.06-.06-.062-.062-.001-.003-.061-.06-.063-.063 0-.002.002-.06 0-.062s-.06.002-.062 0 .002-.06 0-.063l-.063-.062-.062-.063-.063-.062-.062-.063c-.002-.002-.06.002-.063 0-.002-.001.002-.06 0-.062l-.062-.063c-.002-.001-.06.002-.063 0l-.062-.062c-.002-.002-.06.001-.063 0l-.062-.063h-.063c-.002 0-.06-.061-.062-.062h-.063l-.062-.063h-.063c-12.197-3.485-26.383-5.161-39-7.187C77.275 23.53 65.823 4.558 65.75 4.437l-.062-.062c-.002-.003.001-.06 0-.063l-.063-.062-.062-.063c-.002-.002.001-.06 0-.062l-.063-.063L65.438 4l-.063-.063-.062-.062-.063-.063-.062-.062c-.003-.002-.06.001-.063 0l-.062-.063c-.003-.001-.06.002-.063 0l-.062-.062c-.003-.002-.06 0-.063 0l-.062-.063h-.063c-.003 0-.06-.061-.062-.062h-.125c-.003-.001-.06-.062-.063-.063h-.375c-.003 0-.06-.062-.062-.062" opacity=".8" overflow="visible" style="marker:none"/><path fill="none" stroke="url(#i)" stroke-linejoin="round" stroke-width=".992" d="M64.007 3.462c.061 0-.076-.021-.312.156s-.551.513-.907.937c-.71.848-1.568 2.126-2.5 3.688-1.864 3.123-4.046 7.366-6.187 11.687-2.14 4.322-4.26 8.725-6.063 12.22-.901 1.746-1.72 3.256-2.437 4.437-.717 1.18-1.22 2.01-1.938 2.53-.717.521-1.655.748-3 1.063-1.344.316-3.027.621-4.968.938-3.882.633-8.727 1.302-13.5 2s-9.484 1.444-13.032 2.25c-1.773.403-3.254.805-4.28 1.219a6 6 0 0 0-1.157.593c-.241.17-.3.278-.281.22.019-.06-.002.096.093.374.096.279.27.657.563 1.125.587.937 1.552 2.165 2.75 3.531 2.396 2.733 5.767 6.104 9.219 9.47 3.451 3.364 6.98 6.71 9.75 9.5 1.384 1.394 2.597 2.642 3.5 3.687.902 1.044 1.507 1.813 1.78 2.656.275.843.21 1.78.095 3.156-.116 1.376-.358 3.09-.657 5.031-.598 3.884-1.469 8.688-2.28 13.438-.813 4.75-1.545 9.444-1.876 13.062-.165 1.81-.232 3.366-.156 4.47.038.55.1.999.187 1.28s.206.349.157.313c-.05-.036.048.036.343.031a6 6 0 0 0 1.282-.187c1.074-.269 2.546-.816 4.218-1.532 3.346-1.431 7.57-3.573 11.844-5.812s8.58-4.576 12.094-6.344c1.757-.884 3.32-1.622 4.594-2.156 1.274-.535 2.176-.906 3.062-.906s1.79.371 3.063.906c1.273.534 2.838 1.272 4.593 2.156 3.512 1.768 7.793 4.105 12.063 6.344s8.532 4.38 11.875 5.812c1.671.716 3.114 1.263 4.187 1.532.537.134.987.182 1.282.187s.393-.067.343-.031.07-.031.157-.313c.086-.281.15-.73.187-1.28.076-1.104.01-2.66-.156-4.47-.33-3.618-1.063-8.312-1.875-13.062s-1.683-9.554-2.281-13.438c-.3-1.941-.541-3.655-.657-5.03s-.18-2.314.094-3.157c.275-.844.878-1.612 1.781-2.656.904-1.045 2.115-2.293 3.5-3.688 2.772-2.79 6.295-6.135 9.75-9.5s6.851-6.736 9.25-9.469c1.2-1.366 2.162-2.594 2.75-3.53.294-.47.467-.847.563-1.126s.074-.434.094-.375c.019.059-.04-.05-.282-.219-.241-.17-.642-.387-1.156-.593-1.027-.414-2.506-.816-4.281-1.22-3.55-.805-8.255-1.551-13.031-2.25-4.777-.697-9.616-1.366-13.5-2-1.943-.316-3.655-.621-5-.937-1.346-.315-2.283-.541-3-1.062s-1.222-1.35-1.938-2.531-1.537-2.69-2.437-4.438c-1.8-3.494-3.926-7.897-6.063-12.219s-4.295-8.564-6.156-11.687c-.93-1.562-1.79-2.84-2.5-3.688-.355-.424-.67-.76-.906-.937s-.374-.156-.313-.156z" opacity=".8" overflow="visible" style="marker:none"/></svg>