<svg xmlns="http://www.w3.org/2000/svg" fill-rule="evenodd" stroke-linejoin="round" stroke-miterlimit="1.41" clip-rule="evenodd" viewBox="0 0 24 24"><path fill="#00838f" fill-rule="nonzero" d="M10 4H4c-1.11 0-2 .89-2 2v12c0 1.1.9 2 2 2h16c1.1 0 2-.9 2-2V8a2 2 0 0 0-2-2h-8z" data-folderColor="Storyblok"/><path fill="none" d="M12.3 10.06h9.66v9.9H12.3z"/><g fill="#b2ebf2" data-folderIconColor="Storyblok"><path d="M18.12 15.572h-2.528v1.186h2.46c.15 0 .282-.059.39-.153a.56.56 0 0 0 .157-.413.7.7 0 0 0-.133-.429c-.097-.117-.206-.191-.35-.191zm.085-1.435c.11-.07.156-.226.156-.43q-.002-.264-.133-.39a.5.5 0 0 0-.316-.116h-2.316v1.068h2.27a.6.6 0 0 0 .339-.132"/><path d="M22.214 9.64h-9.879a.56.56 0 0 0-.565.554v9.859c0 .3.253.488.554.488h1.458v1.969l1.814-1.958h6.618c.3 0 .492-.187.492-.499v-9.847c0-.305-.192-.554-.507-.554zm-1.661 7.991a1.5 1.5 0 0 1-.542.55 2.4 2.4 0 0 1-.804.351c-.304.078-.632.14-.97.14h-4.455v-7.024h5.059c.253 0 .468.051.667.16.187.102.366.242.507.402a1.88 1.88 0 0 1 .425 1.217 1.95 1.95 0 0 1-.254.944 1.57 1.57 0 0 1-.753.674c.402.117.718.312.956.605.226.3.34.69.34 1.178q0 .466-.188.803z"/></g></svg>