<svg xmlns="http://www.w3.org/2000/svg" xml:space="preserve" fill-rule="evenodd" stroke-linejoin="round" stroke-miterlimit="1.414" clip-rule="evenodd" viewBox="0 0 24 24"><path fill="#fbc02d" fill-rule="nonzero" d="M10 4H4c-1.11 0-2 .89-2 2v12c0 1.097.903 2 2 2h16c1.097 0 2-.903 2-2V8a2 2 0 0 0-2-2h-8z" data-folderColor="CVS"/><path fill="#ffecb3" d="M12.464 19.134c.002-.125-.088-.112-.19-.08 0 0-.362.24-.251.571s.595.19.686.14c.067-.13-.052-.189-.086-.18-.273.011-.444-.085-.16-.45m-.607 1.207a.974.974 0 1 1 .977-1.686.974.974 0 0 1-.977 1.686m-.852 2.146c-.576-.226-.813-.51-1.068-.907-.278-.432-.15-.928-.15-.928 1.766-5.358 7.144-5.09 10.343-2.336.819-2.1 2.941-2.378 4.17-2.368.527 3.002-2.607 3.786-2.752 4.22 2.307 1.32 2.485 2.624 2.352 3.62-.934.559-2.213.141-3.903-1.435-2.154 1.538-4.662 2.533-8.658.868 2.069-.464 2.311-.967 2.385-1.368 0 0-1.573 1.083-2.719.634m9.922-11.159-.277-1.992c-.004-.033.088-.096.11-.032l.522 1.945.763-1.913c.02-.057.106-.009.095.04l-.495 1.913c-.013.05 0 .09.039.055l1.52-1.206c.134-.065.1.038.074.057l-1.381 1.346c-.013.043.037.082.087.071l1.845-.256c.062-.016.109.02.08.09l-1.98.482c-.047.018-.027.037 0 .056l1.811.712c.083.027.174.116.025.109l-1.862-.507c-.04.006-.091.031-.045.078l1.211 1.523c.04.072.056.146-.036.111l-1.42-1.451c-.04-.007-.05.02-.04.07l.26 1.894c-.014.095-.058.049-.086.018l-.505-1.872c-.02-.044-.068-.037-.102.047l-.702 1.839c-.054.04-.068-.036-.059-.08l.5-1.908c.01-.029-.013-.04-.047-.016L19.278 13.8c-.049.029-.085.03-.087-.047l1.417-1.403c.037-.082.004-.13-.077-.13l-1.896.336c-.12-.038-.03-.077-.024-.115l1.882-.463c.035-.046.01-.112-.04-.136l-1.845-.707c-.077-.058-.065-.112.008-.126.635.17 1.27.34 1.963.533.09.014.132.001.047-.079l-1.23-1.498c-.02-.094.045-.12.11-.043zM9.68 16.558l.15.316.337-.01-.228-.379zm-.335 1.027a.693.693 0 1 1 .695-1.2.693.693 0 0 1-.695 1.2m6.422-5.806.335.703.749-.023-.507-.841zm-.746 2.287c-1.026-.592-1.026-2.08 0-2.67 1.027-.592 2.316.151 2.316 1.334s-1.29 1.927-2.316 1.336m-3.512-.763.251.53.564-.018-.381-.634zm-.562 1.722a1.162 1.162 0 0 1 0-2.011 1.165 1.165 0 0 1 1.744 1.005c0 .892-.971 1.452-1.744 1.006" data-folderIconColor="CVS"/></svg>