<svg xmlns="http://www.w3.org/2000/svg" viewBox="0 0 16 16"><path fill="currentColor" d="M2 1C.892 1 0 1.892 0 3v9c0 1.108.892 2 2 2h7v-1H2c-.554 0-1-.446-1-1V6h14v1h1V4c0-1.108-.892-2-2-2H6.371c-.58-.023-.605.077-1.039-.357S4.719 1 4 1zm0 1h2c.311 0 .52 0 .998.47.479.472.639.53 1 .53H14c.554 0 1 .446 1 1v1H1V3c0-.554.446-1 1-1" class="ColorScheme-Text"/><path fill="currentColor" d="M13 8c-1.108 0-2 .892-2 2-.554 0-1 .446-1 1v2c0 .554.446 1 1 1h4c.554 0 1-.446 1-1v-2c0-.554-.446-1-1-1 0-1.108-.892-2-2-2m0 1c.554 0 1 .446 1 1h-2c0-.554.446-1 1-1m-2 2h4v2h-4z" class="ColorScheme-Text"/></svg>