<svg xmlns="http://www.w3.org/2000/svg" viewBox="0 0 24 24"><path fill="#26c6da" d="M20 18H4V8h16m0-2h-8l-2-2H4c-1.11 0-2 .89-2 2v12a2 2 0 0 0 2 2h16a2 2 0 0 0 2-2V8a2 2 0 0 0-2-2" data-folderColor="Tauri"/><g fill="#ffecb3" data-folderIconColor="Tauri"><path d="M19.81 13.59a1.2 1.2 0 1 1-2.4.001 1.2 1.2 0 0 1 2.4 0Zm-3.22 2.238a1.2 1.2 0 1 0 0 2.401 1.2 1.2 0 0 0 0-2.4Z"/><path fill-rule="evenodd" d="M21.097 17.438c-.482.312-1.02.53-1.582.644.163-.465.217-.962.158-1.451a3.22 3.22 0 1 0-3.678-4.917 5.4 5.4 0 0 0-1.757.513 4.583 4.583 0 1 1 6.86 5.211Zm-6.805-4.376 1.125.136a3.2 3.2 0 0 1 .142-.638 4.6 4.6 0 0 0-1.266.502Z" clip-rule="evenodd"/><path fill-rule="evenodd" d="M14.096 13.182a4.6 4.6 0 0 1 1.594-.65 3.2 3.2 0 0 0-.18 1.457 3.22 3.22 0 1 0 3.694 4.912 5.4 5.4 0 0 0 1.757-.508 4.583 4.583 0 1 1-6.865-5.211m6.805 4.376-.022.011z" clip-rule="evenodd"/></g></svg>