<svg xmlns="http://www.w3.org/2000/svg" xml:space="preserve" fill-rule="evenodd" stroke-linejoin="round" stroke-miterlimit="1.414" clip-rule="evenodd" viewBox="0 0 24 24"><path fill="#039be5" fill-rule="nonzero" d="M10 4H4c-1.11 0-2 .89-2 2v12c0 1.097.903 2 2 2h16c1.097 0 2-.903 2-2V8a2 2 0 0 0-2-2h-8z" data-folderColor="Bloc"/><path fill="#b3e5fc" d="M15.416 9 9 12.975v7.376l6.416 4.009 6.424-4.01v-7.375zm4.68 4.66-4.68 2.718-4.68-2.717 4.68-2.9zm-9.6.555 4.62 2.681v5.512l-4.62-2.887zm5.22 8.193v-5.512l4.619-2.681v5.306z" data-folderIconColor="Bloc"/></svg>