<svg xmlns="http://www.w3.org/2000/svg" fill-rule="evenodd" stroke-linejoin="round" stroke-miterlimit="1.414" clip-rule="evenodd" viewBox="0 0 24 24"><path fill="#26a69a" fill-rule="nonzero" d="M10 4H4c-1.11 0-2 .89-2 2v12c0 1.097.903 2 2 2h16c1.097 0 2-.903 2-2V8a2 2 0 0 0-2-2h-8z" data-folderColor="SSO"/><path fill="#b2dfdb" d="M12.6 17.5a1.4 1.4 0 0 1-1.4-1.4 1.4 1.4 0 0 1 1.4-1.4 1.4 1.4 0 0 1 1.4 1.4 1.4 1.4 0 0 1-1.4 1.4m3.955-2.8a4.19 4.19 0 0 0-3.955-2.8 4.2 4.2 0 0 0-4.2 4.2 4.2 4.2 0 0 0 4.2 4.2 4.19 4.19 0 0 0 3.955-2.8H19.6v2.8h2.8v-2.8h1.4v-2.8z" data-folderIconColor="SSO"/></svg>