<svg xmlns="http://www.w3.org/2000/svg" fill="none" viewBox="0 0 24 24"><path fill="#d63aff" d="M10 4H4c-1.11 0-2 .89-2 2v12c0 1.097.903 2 2 2h16c1.097 0 2-.903 2-2V8a2 2 0 0 0-2-2h-8z" data-folderColor="JWT"/><g fill="#e1bee7" fill-rule="evenodd" clip-rule="evenodd" data-folderIconColor="JWT"><path d="M18.448 15.022 18.437 12h-1.685l.011 3.022.843 1.157zM16.763 20.2v3.034h1.685V20.2l-.842-1.157z"/><path d="m18.448 20.2 1.775 2.45 1.36-.989-1.776-2.449-1.359-.438zm-1.685-5.178-1.786-2.45-1.36.99 1.776 2.448 1.37.439z"/><path d="m15.393 16.01-2.876-.932L12 16.673l2.876.944 1.36-.45zm3.572 2.045.842 1.157 2.876.933.517-1.596-2.876-.932-1.36.438Zm1.359-.438 2.876-.944-.517-1.595-2.876.932-.842 1.157zm-5.448 0L12 18.549l.517 1.596 2.876-.933.842-1.157z"/><path d="m15.393 19.212-1.775 2.449 1.359.989 1.786-2.45v-1.426zm4.414-3.202 1.775-2.449-1.359-.988-1.775 2.449v1.427l1.36-.439Z"/></g></svg>