<svg xmlns="http://www.w3.org/2000/svg" viewBox="0 0 64 64"><rect width="56" height="36" x="4" y="22" opacity=".2" rx="2.8" ry="2.8"/><path fill="#12806a" d="M4 46.2C4 47.751 5.249 49 6.8 49h50.4c1.551 0 2.8-1.249 2.8-2.8V15.8c0-1.551-1.249-2.8-2.8-2.8H32c-4.2 0-5.6-6-9.8-6H6.8A2.794 2.794 0 0 0 4 9.8"/><rect width="56" height="36" x="4" y="20" opacity=".2" rx="2.8" ry="2.8"/><rect width="48" height="22" x="8" y="16" fill="#e4e4e4" rx="2.8" ry="2.8"/><rect width="56" height="36" x="4" y="21" fill="#16a085" rx="2.8" ry="2.8"/><path fill="#fff" d="M6.8 7C5.25 7 4 8.25 4 9.8v1.001A2.795 2.795 0 0 1 6.8 8h15.4c4.2 0 5.601 6 9.801 6H57.2a2.796 2.796 0 0 1 2.8 2.801v-1A2.796 2.796 0 0 0 57.199 13H32c-4.2 0-5.601-6-9.801-6Z" opacity=".1"/><path fill="#08382e" d="m26.412 28-1.414 1.414 2.304 2.304a3 3 0 0 0-.297 1.289 3 3 0 0 0 2 2.823v8.348A3 3 0 0 0 27.007 47a3 3 0 0 0 2.999 2.999A3 3 0 0 0 33.005 47a3 3 0 0 0-2-2.823v-8.348a3 3 0 0 0 .289-.121l4.006 4.005a3 3 0 0 0-.296 1.289 3 3 0 0 0 2.999 2.999 3 3 0 0 0 2.998-2.999 3 3 0 0 0-2.998-2.998 3 3 0 0 0-1.289.296l-4.006-4.005a3 3 0 0 0 .297-1.289 3 3 0 0 0-2.999-2.999 3 3 0 0 0-1.289.297l-2.303-2.302Z"/></svg>