<svg xmlns="http://www.w3.org/2000/svg" xml:space="preserve" fill-rule="evenodd" stroke-linejoin="round" stroke-miterlimit="1.414" clip-rule="evenodd" viewBox="0 0 24 24"><path fill="#607d8b" d="M20 18H4V8h16m0-2h-8l-2-2H4c-1.11 0-2 .89-2 2v12a2 2 0 0 0 2 2h16a2 2 0 0 0 2-2V8a2 2 0 0 0-2-2" data-folderColor="Jinja"/><g fill="#cfd8dc" data-folderIconColor="Jinja"><path d="M9.875 11.625q3.828.472 6.563.469 2.69-.003 6.437-.469v1.719q-3.747.466-6.437.469-2.735.002-6.563-.469z"/><path d="m12.844 13.008-.875 8.508 1.906-.008.281-8zM19.688 13l.851 8.5h-1.883l-.281-8z"/><path d="M9.797 15.172h13v1h-13z"/><path d="M15.797 13h1v2.375h-1z"/></g></svg>