<svg xmlns="http://www.w3.org/2000/svg" fill="none" viewBox="0 0 24 24"><path fill="#e51358" d="M20 18H4V8h16m0-2h-8l-2-2H4c-1.11 0-2 .89-2 2v12a2 2 0 0 0 2 2h16a2 2 0 0 0 2-2V8a2 2 0 0 0-2-2" data-folderColor="Fluig"/><g fill="#eceff1" data-folderIconColor="Fluig"><path d="M17.703 8.04c-.433.093-.766.32-.791.537-.031.23.006.31.222.484.173.133.322.2.625.266.958.213 1.502.022 1.502-.524 0-.293-.248-.644-.52-.737-.222-.075-.754-.089-1.038-.027m1.817 1.377c-.321.142-.457.337-.426.622.03.324.204.63.698 1.243.513.64.587.781.643 1.221.018.195.13.573.241.84.111.261.266.714.352 1.003.118.404.229.64.489 1.025.6.906 1.02 1.896 1.02 2.42 0 .21.086.289.172.165.1-.133.495-1.168.6-1.568.266-1.03.359-2.504.21-3.397-.21-1.26-.89-2.366-1.91-3.086-.748-.528-1.557-.719-2.089-.488m-2.49.404c-.106.076-.124.129-.1.275.044.222.254.382.55.413.192.023.254.01.39-.093.142-.098.16-.142.136-.28-.08-.342-.674-.533-.976-.315m.4 1.483c-.302.15-.32.373-.147 1.51.037.244.055.524.03.621-.086.413-.642.83-1.916 1.435-.438.208-.828.404-.853.426-.03.027-.037.266-.024.537.03.546.179.924.575 1.439.562.741 1.606 1.474 2.633 1.851.377.138.42.134.649-.04.877-.67 1.335-1.762 1.137-2.73-.074-.36-.18-.613-.587-1.4-.266-.519-.297-.865-.1-1.131.069-.09.347-.347.619-.564.272-.222.513-.449.531-.506.08-.214-.556-.902-1.118-1.208-.526-.284-1.138-.387-1.428-.24m-3.177.764c-.303.08-.556.368-.556.63 0 .502.822.64 1.316.222.322-.266.334-.661.031-.817-.136-.066-.6-.084-.791-.035"/><path d="M19.582 13.466c-.766.612-.779.714-.216 1.74.488.897.544 1.066.538 1.714 0 .488-.019.6-.174.91-.21.44-.506.826-.902 1.182-.173.15-.309.293-.309.31 0 .04.173.067.872.129 1.273.116 2.114-.124 2.49-.706.112-.182.13-.284.124-.893 0-.82-.08-1.092-.643-2.189-.204-.404-.414-.879-.463-1.056-.248-.844-.575-1.55-.723-1.55-.044 0-.31.186-.594.409m-6.879-.209c-.847.222-1.916 1.141-2.35 2.011-.246.506-.389 1.226-.345 1.74.043.472.16.942.228.911.025-.009.062-.12.08-.244.056-.324.372-.715.823-1.017.377-.257 1.434-.777 2.51-1.239.296-.129.55-.266.568-.31.173-.431.204-1.022.068-1.302-.241-.48-.933-.723-1.582-.55"/><path d="M13.246 15.823c-1.292.56-1.922.964-2.262 1.443-.699.99-.056 2.007 1.656 2.625.668.244 1.224.328 2.139.328 1.143 0 1.817-.142 2.738-.577.173-.084.322-.173.322-.19 0-.019-.186-.099-.408-.174-.921-.31-1.842-.822-2.43-1.35-.686-.622-1.013-1.248-1.02-1.95-.005-.24-.024-.434-.043-.434s-.333.128-.692.28"/><path d="M17.808 19.735c-.488.267-1.131.489-1.768.613-.414.076-.686.098-1.322.098-.921 0-1.484-.085-2.294-.351l-.488-.16.185.138c.26.2 1.107.595 1.645.772 2.132.702 4.673.502 6.607-.515.365-.19.865-.524.865-.572 0-.014-.34-.018-.754-.005-.624.013-.871 0-1.378-.08a29 29 0 0 0-.773-.115c-.11-.018-.253.03-.525.177"/></g></svg>