<svg xmlns="http://www.w3.org/2000/svg" fill-rule="evenodd" stroke-linejoin="round" stroke-miterlimit="1.414" clip-rule="evenodd" viewBox="0 0 24 24"><path fill="#26a69a" d="M20 18H4V8h16m0-2h-8l-2-2H4c-1.11 0-2 .89-2 2v12a2 2 0 0 0 2 2h16a2 2 0 0 0 2-2V8a2 2 0 0 0-2-2" data-folderColor="SSO"/><path fill="#b2dfdb" d="M12.6 17.5a1.4 1.4 0 0 1-1.4-1.4 1.4 1.4 0 0 1 1.4-1.4 1.4 1.4 0 0 1 1.4 1.4 1.4 1.4 0 0 1-1.4 1.4m3.955-2.8a4.19 4.19 0 0 0-3.955-2.8 4.2 4.2 0 0 0-4.2 4.2 4.2 4.2 0 0 0 4.2 4.2 4.19 4.19 0 0 0 3.955-2.8H19.6v2.8h2.8v-2.8h1.4v-2.8z" data-folderIconColor="SSO"/></svg>