<svg xmlns="http://www.w3.org/2000/svg" xml:space="preserve" fill-rule="evenodd" stroke-linejoin="round" stroke-miterlimit="1.414" clip-rule="evenodd" viewBox="0 0 24 24"><path fill="#009688" fill-rule="nonzero" d="M10 4H4c-1.11 0-2 .89-2 2v12c0 1.097.903 2 2 2h16c1.097 0 2-.903 2-2V8a2 2 0 0 0-2-2h-8z" data-folderColor="Icons"/><path fill="#b2dfdb" d="M22.75 19.825a.64.64 0 0 1-.344.572l-5.135 2.886a.6.6 0 0 1-.371.117.6.6 0 0 1-.37-.117l-5.136-2.886a.64.64 0 0 1-.344-.572v-5.85c0-.247.136-.461.344-.572l5.135-2.886a.6.6 0 0 1 .371-.117c.137 0 .267.039.37.117l5.136 2.886c.208.11.344.325.344.572zm-5.85-8.027-3.874 2.177 3.874 2.178 3.874-2.178z" data-folderIconColor="Icons"/></svg>