<svg xmlns="http://www.w3.org/2000/svg" xml:space="preserve" fill-rule="evenodd" stroke-linejoin="round" stroke-miterlimit="1.414" clip-rule="evenodd" viewBox="0 0 24 24"><path fill="#448aff" fill-rule="nonzero" d="M10 4H4c-1.11 0-2 .89-2 2v12c0 1.097.903 2 2 2h16c1.097 0 2-.903 2-2V8a2 2 0 0 0-2-2h-8z" data-folderColor="Contract"/><path fill="#bbdefb" d="M23.4 23.4h-14V22h14zm-11.06-3.29-.49.49-.98-.98-.98.98-.49-.49.98-.98-.98-.98.49-.49.98.98.98-.98.49.49-.98.98zm7.014-2.009c0-.406-.504-.861-1.512-1.379-1.281-.644-2.142-1.169-2.59-1.554q-.68-.586-.679-1.309 0-1.867 1.911-3.094c1.274-.819 2.317-1.232 3.115-1.232q.779 0 1.127.273c.224.175.35.483.35.924q.002.292-.259.511c-.168.14-.308.21-.399.21q-.114-.002-.427-.203l-.406-.182c-.329 0-.987.231-1.988.7q-1.491.693-1.491 1.575c0 .357.168.679.518.959q.523.441 1.876 1.071c.721.329 1.302.679 1.75 1.078.42.378.637.826.637 1.351 0 .938-.658 1.687-1.981 2.219q-1.976.807-3.773.805c-1.008 0-1.533-.343-1.533-1.022 0-.252.133-.413.35-.525q.345-.168.7-.168l.525.091.504.091q1.027.002 2.212-.343c.791-.224 1.281-.511 1.463-.847" data-folderIconColor="Contract"/></svg>