<svg xmlns="http://www.w3.org/2000/svg" xml:space="preserve" fill-rule="evenodd" stroke-linejoin="round" stroke-miterlimit="1.414" clip-rule="evenodd" viewBox="0 0 24 24"><path fill="#42a5f5" d="M20 18H4V8h16m0-2h-8l-2-2H4c-1.11 0-2 .89-2 2v12a2 2 0 0 0 2 2h16a2 2 0 0 0 2-2V8a2 2 0 0 0-2-2" data-folderColor="Recoil"/><g fill="#b3e5fc" data-folderIconColor="Recoil"><path d="m15.438 17.145.039-.006 1.041-.099-1.602-1.758a2.9 2.9 0 0 1-.756-1.953h-.87a3.76 3.76 0 0 0 .984 2.538zm3.075 2.085-1.08.102 1.602 1.755a2.9 2.9 0 0 1 .753 1.953h.87a3.76 3.76 0 0 0-.984-2.538z"/><path d="M20.811 15.771a2.17 2.17 0 0 0-1.878-1.74l-.189-.027a1.49 1.49 0 0 1-1.302-1.473v-.6a1.584 1.584 0 1 0-.867-.012v.612a2.36 2.36 0 0 0 2.061 2.334l.189.024c.699.09 1.044.6 1.137 1.053s-.03 1.062-.639 1.41a2.2 2.2 0 0 1-.9.291l-2.871.27a3.1 3.1 0 0 0-1.254.399c-.828.48-1.242 1.398-1.05 2.337s.924 1.62 1.875 1.74l.189.027a1.49 1.49 0 0 1 1.302 1.47v.54a1.584 1.584 0 1 0 .867.009v-.546a2.355 2.355 0 0 0-2.061-2.334l-.189-.024c-.699-.09-1.044-.6-1.134-1.056s.027-1.059.636-1.41a2.2 2.2 0 0 1 .9-.288l2.871-.27a3.1 3.1 0 0 0 1.254-.402 2.17 2.17 0 0 0 1.05-2.334z"/></g></svg>