<svg xmlns="http://www.w3.org/2000/svg" xml:space="preserve" fill-rule="evenodd" stroke-linejoin="round" stroke-miterlimit="1.414" clip-rule="evenodd" viewBox="0 0 24 24"><path fill="#78909c" d="M20 18H4V8h16m0-2h-8l-2-2H4c-1.11 0-2 .89-2 2v12a2 2 0 0 0 2 2h16a2 2 0 0 0 2-2V8a2 2 0 0 0-2-2" data-folderColor="Cypress"/><g fill="#616161" data-folderIconColor="Cypress" transform="matrix(.08 0 0 .08 10 10)"><circle cx="90" cy="90" r="86"/><path fill="#fff" d="M64 56c7.55 0 14.488 2.777 19.96 7.423L75.9 74.43C73.151 71.056 69.503 69 65.5 69 56.94 69 50 78.402 50 90s6.94 21 15.5 21c4.307 0 8.204-2.38 11.013-6.223l7.743 11.545C78.739 121.121 71.686 124 64 124c-17.673 0-32-15.222-32-34s14.327-34 32-34m21.5 2.587h17.704l12.273 51.081 13.68-51.08h17.962l-23.502 70.151q-1.263 3.026-5.264 7.49c-4.002 4.466-5.077 4.587-9.094 7.006s-4.305 2.486-8.402 3.532a26.2 26.2 0 0 1-8.356.747L90 136.229q6.382-1.4 10.089-3.012 3.706-1.611 7.138-4.478z"/></g></svg>