<svg xmlns="http://www.w3.org/2000/svg" xml:space="preserve" fill-rule="evenodd" stroke-linejoin="round" stroke-miterlimit="1.414" clip-rule="evenodd" viewBox="0 0 24 24"><path fill="#9575cd" fill-rule="nonzero" d="M10 4H4c-1.11 0-2 .89-2 2v12c0 1.097.903 2 2 2h16c1.097 0 2-.903 2-2V8a2 2 0 0 0-2-2h-8z" data-folderColor="PDM"/><path fill="#d1c4e9" d="m20.243 11.194 1.626.94a.32.32 0 0 1 .16.275v4.52a.32.32 0 0 1-.16.274l-.987.57-.142-.08-.497-.287zm-6.003 4.212 5.37 3.102-1.655.956a.32.32 0 0 1-.318 0l-3.914-2.26a.32.32 0 0 1-.16-.276v-1.131l.04-.021zm1.27-.733 3.462-1.998v3.996zm3.462-3.465-5.408 3.121v-1.92c0-.114.06-.218.159-.275l3.915-2.26a.32.32 0 0 1 .317 0l1.018.587v.3zm-1.97-2.435a1.59 1.59 0 0 1 1.589 0l3.914 2.26c.491.283.795.807.795 1.376v4.52c0 .567-.304 1.091-.795 1.374l-3.914 2.26a1.59 1.59 0 0 1-1.59 0l-3.914-2.258a1.59 1.59 0 0 1-.794-1.377v-4.52c0-.567.302-1.091.794-1.374z" data-folderIconColor="PDM"/></svg>