<svg xmlns="http://www.w3.org/2000/svg" xml:space="preserve" fill-rule="evenodd" stroke-linejoin="round" stroke-miterlimit="1.414" clip-rule="evenodd" viewBox="0 0 24 24"><path fill="#6cac23" d="M20 18H4V8h16m0-2h-8l-2-2H4c-1.11 0-2 .89-2 2v12a2 2 0 0 0 2 2h16a2 2 0 0 0 2-2V8a2 2 0 0 0-2-2" data-folderColor="Vendors"/><path fill="#a5d6a7" d="M17.39 12.544a2.05 2.05 0 0 0 2.05-2.05 2.05 2.05 0 0 0-2.05-2.052 2.05 2.05 0 0 0-2.05 2.051 2.05 2.05 0 0 0 2.05 2.051m0 2.42a9 9 0 0 0-6.152-2.42v7.52c2.392 0 4.539.923 6.152 2.42a9 9 0 0 1 6.153-2.42v-7.52c-2.393 0-4.54.923-6.153 2.42" data-folderIconColor="Vendors"/></svg>