<svg xmlns="http://www.w3.org/2000/svg" xml:space="preserve" fill-rule="evenodd" stroke-linejoin="round" stroke-miterlimit="1.414" clip-rule="evenodd" viewBox="0 0 24 24"><path fill="#03a9f4" fill-rule="nonzero" d="M10 4H4c-1.11 0-2 .89-2 2v12c0 1.097.903 2 2 2h16c1.097 0 2-.903 2-2V8a2 2 0 0 0-2-2h-8z" data-folderColor="Mercurial"/><path fill="#89ddff" d="M11.531 15.49c0-1.201-1.309-1.956-2.35-1.356s-1.041 2.11 0 2.71 2.35-.154 2.35-1.355m-1.714.069c.028-.523.854-.925 1.15-.455.241.38-.243.88-.61.975-.387.102-.568.002-.54-.52m.265 1.088c.062-.056.376-.033.66-.185.284-.153.62-.487.68-.962.036-.28.047-.209.06-.057-.043.79-.77 1.226-1.185 1.283-.112.016-.31.006-.215-.079m6.016-7.957c-5.514.682-5.602 6.485-.743 7.864 4.205 1.194.868 3.862.966 5.638s3.656 2.42 6.462-2.244c2.756-4.582-.582-12.013-6.685-11.258m.896 8.07c-.197-.132-.668-.407-1.635-.724-.8-.262-1.207-.487-1.406-.655.624.276 1.125.38 1.747.539 1.317.395 1.62.511 1.648 1.015-.013.277-.145-.035-.354-.175m2.441 2.667c1.214.15 2.518-2.366 2.812-3.901.287-1.496.427.096.149 1.124-.331 1.219-1.474 3.106-2.24 3.98-.587.67-1.243.949-2.034 1.066-1.647.321.1-2.42 1.313-2.27m2.054 1.81c-.755.904-1.861 1.713-3.108 1.81-.332.05-.58.008-.561-.207.024-.284.359-.104.844-.222 1.743-.423 2.5-1.296 3.542-2.935.812-1.276 1.166-2.69 1.193-2.96.08.326-.44 2.595-1.91 4.514m-9.99-2.76c-1.59.917-1.59 3.224 0 4.141s3.592-.235 3.592-2.07-2-2.989-3.591-2.071m1.51 2.482c.713-.237 1.097-1.816 1.188-1.111.18 1.391-.777 1.78-1.09 1.862-1.054.276-1.176-.394-.097-.751m1.858-.13c-.145.976-1.068 1.697-1.854 1.724-.16.016-.37-.053-.174-.094.237-.05 1.615-.407 1.938-1.54.1-.353.119-.282.09-.09" data-folderIconColor="Mercurial"/></svg>