<svg xmlns="http://www.w3.org/2000/svg" fill="none" viewBox="0 0 24 24"><path fill="#bf360c" d="M20 18H4V8h16m0-2h-8l-2-2H4c-1.11 0-2 .89-2 2v12a2 2 0 0 0 2 2h16a2 2 0 0 0 2-2V8a2 2 0 0 0-2-2" data-folderColor="RedwoodJS"/><path fill="#ffccbc" fill-rule="evenodd" d="m14.761 10.78 2.394 1.613a.34.34 0 0 0 .182.056.33.33 0 0 0 .182-.056l2.395-1.619a.32.32 0 0 0-.045-.551l-2.394-1.17a.33.33 0 0 0-.287 0l-2.387 1.17a.322.322 0 0 0-.04.557m3.389 2.119c0 .107.053.207.142.268l1.919 1.294a.325.325 0 0 0 .398-.025l1.61-1.421a.32.32 0 0 0-.015-.494l-1.537-1.213a.33.33 0 0 0-.385-.015l-1.99 1.344a.33.33 0 0 0-.142.262m-4.773 1.761c.077.069.117.17.107.273a.32.32 0 0 1-.162.246l-1.146.678a.33.33 0 0 1-.368-.024.32.32 0 0 1-.108-.352l.424-1.316a.32.32 0 0 1 .223-.214.32.32 0 0 1 .302.07zm6.215.138-2.071-1.4a.33.33 0 0 0-.364 0l-2.072 1.4a.33.33 0 0 0-.142.245c-.005.1.035.197.11.265l2.07 1.828a.33.33 0 0 0 .432 0l2.07-1.828a.325.325 0 0 0-.033-.51m-5.526-.362-1.608-1.421a.328.328 0 0 1 .013-.5l1.537-1.22a.33.33 0 0 1 .388-.014l1.988 1.343a.323.323 0 0 1 0 .542l-1.918 1.295a.33.33 0 0 1-.4-.025m8.257 2.041-1.637-.967a.325.325 0 0 0-.382.036l-2.001 1.763a.323.323 0 0 0 .094.543l2.776 1.11a.326.326 0 0 0 .418-.168l.86-1.902a.323.323 0 0 0-.128-.415m.227-2.312.424 1.316h-.004a.326.326 0 0 1-.477.376l-1.147-.678a.32.32 0 0 1-.157-.246.32.32 0 0 1 .108-.273l.727-.64a.33.33 0 0 1 .302-.07c.106.03.19.11.224.215m-6.072 3.44a.32.32 0 0 0-.103-.296l-2.001-1.763a.325.325 0 0 0-.382-.036l-1.637.967a.326.326 0 0 0-.131.413l.862 1.902a.326.326 0 0 0 .418.168l2.774-1.11a.32.32 0 0 0 .2-.244m.982.543 2.227.89a.324.324 0 0 1 .058.566l-2.228 1.528a.33.33 0 0 1-.182.058.33.33 0 0 1-.182-.058l-2.226-1.528a.321.321 0 0 1 .063-.566l2.227-.89a.33.33 0 0 1 .244 0" clip-rule="evenodd" data-folderIconColor="RedwoodJS"/></svg>