<svg xmlns="http://www.w3.org/2000/svg" xml:space="preserve" fill-rule="evenodd" stroke-linejoin="round" stroke-miterlimit="1.414" clip-rule="evenodd" viewBox="0 0 24 24"><path fill="#0288d1" fill-rule="nonzero" d="M10 4H4c-1.11 0-2 .89-2 2v12c0 1.097.903 2 2 2h16c1.097 0 2-.903 2-2V8a2 2 0 0 0-2-2h-8z" data-folderColor="Hasura"/><g fill="#b2ebf2" data-folderIconColor="Hasura"><path d="M23.097 14.54c.388-1.196.154-3.582-.597-4.462a.228.228 0 0 0-.364.028l-.925 1.44a.717.717 0 0 1-.952.152 6.4 6.4 0 0 0-3.493-1.03 6.4 6.4 0 0 0-3.494 1.03.72.72 0 0 1-.951-.153l-.926-1.439a.228.228 0 0 0-.363-.028c-.752.882-.985 3.268-.597 4.462.129.398.163.818.088 1.226-.076.405-.152.894-.152 1.235 0 3.498 2.864 6.332 6.393 6.332 3.532 0 6.393-2.836 6.393-6.332 0-.34-.075-.83-.151-1.235a2.5 2.5 0 0 1 .09-1.226m-6.333 7.38c-2.73 0-4.949-2.2-4.949-4.904q0-.132.008-.262c.098-1.843 1.228-3.417 2.826-4.167a4.9 4.9 0 0 1 2.117-.472c.757 0 1.474.168 2.116.473 1.599.75 2.729 2.326 2.827 4.167q.008.131.008.263c-.002 2.702-2.223 4.902-4.953 4.902"/><path d="m18.91 18.904-1.265-2.173-1.085-1.811a.14.14 0 0 0-.123-.07h-1.036a.14.14 0 0 0-.124.073.14.14 0 0 0 .001.14l1.038 1.728-1.392 2.104a.14.14 0 0 0 .12.217h1.043a.14.14 0 0 0 .12-.064l.753-1.165.675 1.16c.026.044.073.07.123.07h1.029a.14.14 0 0 0 .123-.07.14.14 0 0 0 0-.14"/></g></svg>