<svg xmlns="http://www.w3.org/2000/svg" xml:space="preserve" fill-rule="evenodd" stroke-linejoin="round" stroke-miterlimit="1.414" clip-rule="evenodd" viewBox="0 0 24 24"><path fill="#039be5" d="M20 18H4V8h16m0-2h-8l-2-2H4c-1.11 0-2 .89-2 2v12a2 2 0 0 0 2 2h16a2 2 0 0 0 2-2V8a2 2 0 0 0-2-2" data-folderColor="Docker"/><path fill="#b3e5fc" d="M11.754 19.104c-.434 0-.83-.355-.83-.79s.356-.79.83-.79.83.356.83.79-.395.79-.83.79m10.189-4.305c-.08-.631-.474-1.145-.987-1.54l-.198-.158-.158.198c-.316.355-.434.987-.395 1.46.04.356.158.712.356.988-.158.08-.356.158-.514.237-.355.119-.71.158-1.066.158H8.753l-.04.237c-.079.75.04 1.54.356 2.251l.158.276v.04c.948 1.58 2.646 2.29 4.502 2.29 3.554 0 6.476-1.54 7.858-4.857.909.04 1.817-.197 2.251-1.066l.119-.198-.198-.118c-.513-.316-1.224-.356-1.816-.198m-5.094-.631h-1.54v1.54h1.54zm0-1.935h-1.54v1.54h1.54zm0-1.975h-1.54v1.54h1.54zm1.895 3.91h-1.54v1.54h1.54zm-5.726 0h-1.54v1.54h1.54zm1.935 0h-1.54v1.54h1.54zm-3.83 0h-1.54v1.54h1.54zm3.83-1.935h-1.54v1.54h1.54zm-1.935 0h-1.54v1.54h1.54z" data-folderIconColor="Docker"/></svg>