<svg xmlns="http://www.w3.org/2000/svg" viewBox="0 0 16 16"><path fill="#f62459" d="M7.623 1.996c-.08 0-.51.17-.523.205v.002c-.017.05.04.042.255-.031.194-.066.362-.176.268-.176m3.65.106c-.028-.042-.054.06-.058.261h-.002c-.003.194.004.252.031.23.05-.038.085-.27.059-.402a.3.3 0 0 0-.03-.09m-1.609.05a.6.6 0 0 0-.25.067c-.12.067-.12.066-.443.015a8 8 0 0 0-.707-.072c-.333-.017-.383-.013-.383.027q.001.048-.158.08c-.087.019-.215.06-.285.094s-.135.055-.145.045c-.009-.008.001-.017.025-.017.036-.001.037-.006-.002-.032q-.06-.039.016-.025c.076.007.172-.03.172-.066 0-.034-.167-.038-.275-.01-.043.01-.067.032-.057.056.01.027-.02.046-.1.059-.064.01-.166.031-.226.045-.106.025-.107.023-.04-.022.039-.026.071-.057.071-.072 0-.05-.097-.026-.316.08-.121.058-.244.1-.274.09-.108-.033-1.277.934-1.525 1.262-.058.076-.112.12-.145.11-.035-.008-.071.025-.105.09a8 8 0 0 1-.248.4c-.244.375-.323.522-.381.716a2 2 0 0 1-.088.244c-.023.05-.064.235-.09.41-.046.322-.093.461-.144.43-.015-.006-.035 0-.043.012-.042.065-.119.685-.143 1.143-.025.483-.023.53.035.675.034.085.116.36.182.608.263.997.354 1.288.523 1.666.507 1.136 1.328 2.046 2.584 2.865.572.373 1.495.739 2.139.846v-.008c.164.023.449.041.869.031.533-.006.672-.016.932-.076.197-.046.304-.085.304-.111 0-.036-.04-.039-.164-.028-.838.073-1.05.049-1.47-.177-.301-.162-.39-.19-.305-.092.057.066-.038.061-.266-.014-.1-.033-.215-.06-.256-.06-.064 0-.07-.007-.043-.057.053-.094.039-.123-.062-.123-.103 0-.224-.05-.422-.18-.099-.068-.143-.077-.213-.058-.077.02-.108.007-.234-.102-.2-.173-.253-.237-.254-.299-.001-.056-.064-.068-.113-.023-.02.017-.148-.073-.34-.233-.171-.143-.294-.26-.274-.27.066-.02.038-.09-.05-.122q-.213-.08-.182-.18c.015-.046-.016-.087-.137-.185a1.4 1.4 0 0 1-.203-.194c-.043-.063-.04-.065.047-.053.135.02.113-.035-.09-.24-.195-.197-.322-.267-.447-.244-.057.011-.11-.006-.182-.064-.142-.114-.295-.337-.246-.354.026-.009.004-.05-.062-.115a.47.47 0 0 1-.133-.266.5.5 0 0 0-.108-.238c-.189-.194-.287-.507-.457-1.443-.139-.768-.14-.751-.011-1.297.088-.375.093-.446.029-.446-.061 0-.063.01.049-.261.25-.61.717-1.275.984-1.399.121-.056.203-.15.203-.236 0-.024-.022-.026-.049-.016-.038.015-.036.003.012-.062.122-.162.276-.276.512-.38.14-.06.255-.132.277-.171.034-.061.032-.067-.031-.05-.038.01-.065.02-.059.01l.256-.224c.223-.197.57-.418.465-.297-.023.027-.029.055-.012.065.016.009.048-.003.069-.027.046-.053.316-.178.593-.272.567-.192 1.363-.24 1.832-.11.551.154 1.133.5 1.596.948.322.311.529.598.647.894a.7.7 0 0 0 .09.176c.048.03.256.851.277 1.096.015.185.03.24.066.24.04 0 .044.045.035.256-.01.237-.017.264-.105.352-.091.09-.094.103-.074.285l.021.19-.19.288c-.17.258-.499.66-.359.44.042-.068.044-.084.008-.084-.025 0-.105.088-.178.195a1 1 0 0 1-.425.383 9 9 0 0 0-.268.139 1.7 1.7 0 0 1-.812.183c-.613 0-1.26-.293-1.66-.754-.167-.192-.407-.62-.407-.726 0-.031-.015-.051-.043-.041-.033.012-.052-.037-.078-.207a1.5 1.5 0 0 1 .016-.678c.088-.445.334-.792.779-1.092.314-.212.53-.27.97-.27.315.003.404.014.542.069a1 1 0 0 0 .203.064c.088-.002-.204-.185-.434-.273a1.4 1.4 0 0 0-.55-.11c-.506-.021-.894.128-1.268.487-.212.203-.418.518-.418.637 0 .027-.03.093-.064.148-.14.216-.221.904-.145 1.217.207.855.625 1.304 1.625 1.752.317.14.408.223.172.154-.217-.063-.517-.187-.615-.254-.108-.074-.13-.076-.13-.017 0 .03-.057.01-.193-.073-.106-.064-.205-.111-.22-.101-.08.048.444.395.797.53.52.192 1.108.273 1.548.202.26-.042.696-.226.647-.273q-.031-.021-.121.01c-.151.055-.485.114-.768.136-.216.017-.305.01-.455-.035l-.185-.055.376-.02a3.3 3.3 0 0 0 1.036-.2 2.92 2.92 0 0 0 1.53-1.291c.13-.224.173-.264.173-.157 0 .085.076.057.09-.033a.5.5 0 0 0-.028-.177.35.35 0 0 1 0-.239c.033-.118.04-.125.088-.086.118.096.132.092.113-.043-.01-.07.004-.242.032-.38.027-.14.051-.335.054-.436l.006-.184.018.172c.019.178.074.237.092.098.01-.074-.027-.264-.073-.39-.022-.058-.02-.058.028 0 .076.088.087.042.035-.15a1.2 1.2 0 0 1-.027-.425c.02-.244.003-.29-.075-.215-.05.047-.14-.135-.144-.289-.002-.084-.023-.136-.067-.17a.6.6 0 0 1-.123-.148l-.06-.102.088.069c.049.037.095.062.103.052.008-.007-.027-.086-.078-.174a3 3 0 0 1-.135-.263c-.07-.178-.223-.304-.256-.21-.006.018-.042-.026-.08-.097l-.068-.13.07-.01a.2.2 0 0 0 .106-.053c.029-.036.066-.007.207.16.095.112.268.345.385.518s.217.3.224.28c.015-.043-.05-.165-.277-.523a2 2 0 0 1-.184-.324.4.4 0 0 0-.05-.13l-.051-.096.066.056c.117.1.11.027-.014-.138a4.13 4.13 0 0 0-2.088-1.467c-.266-.088-.334-.09-.265-.01.036.043.03.043-.057 0a.5.5 0 0 1-.136-.096c-.031-.035-.106-.048-.19-.045m-1.605.13c.023-.012.05-.01.06 0v.001c.01.006-.008.018-.04.018q-.057-.003-.02-.02m.216.027c.073-.01.186-.01.25 0 .06.002.004.011-.132.011-.138 0-.192-.001-.118-.011m.454.03c.03-.01.079-.01.109 0 .03.005.005.015-.055.015S8.7 2.35 8.73 2.34m-.758.01c.034-.007.055-.003.045.012s-.04.028-.065.028c-.064 0-.053-.02.02-.04m.994.022c.023-.01.05-.01.06 0v.002c.01.006-.008.018-.04.018q-.057-.003-.02-.02m-1.184.025h.11l-.125.024v.002a2 2 0 0 0-.19.043q-.06.02.018-.026a.44.44 0 0 1 .187-.043m-.79.124a1 1 0 0 1-.21.082c-.15.049-.23.06-.252.039s-.08-.017-.183.017a1.6 1.6 0 0 0-.242.102l-.09.05.084-.064c.122-.095.407-.187.437-.14.017.026.075.02.233-.032.115-.036.215-.064.222-.054m.41.003c.006.007-.064.033-.155.059-.182.051-.184.053-.184.035s.323-.108.338-.094m-1.409.288c.01 0-.01.025-.04.058a.3.3 0 0 1-.073.06c-.01 0 .01-.027.04-.06.032-.033.064-.058.073-.058m-.369.3c.002.002-.01.014-.027.035-.041.052-.069.067-.069.043 0-.006.025-.03.055-.052q.038-.029.041-.026M3.18 5.885c-.08-.003-.08.002-.078.172 0 .097.011.175.023.175.057 0 .154-.168.145-.253-.007-.076-.023-.094-.09-.094m7.476.412q-.045-.01-.068.07c-.014.053 0 .103.049.166.118.154.192.062.107-.133-.027-.063-.059-.097-.088-.103m2.063.021c.01.022.008.049-.002.059-.01.011-.019-.007-.018-.04.002-.034.01-.043.02-.019m-9.592.524c-.028-.01-.04.037-.04.168 0 .099.01.2.02.226s.031.047.047.047c.046 0 .02-.426-.027-.441m7.602.25c-.015-.01-.037.058-.05.148a.5.5 0 0 1-.083.233l-.063.068.014-.074c.008-.042.024-.121.037-.174.035-.149-.027-.117-.088.045-.07.188-.065.242.018.275.138.054.172.038.209-.101.042-.16.045-.397.006-.42m-.606.93a.5.5 0 0 0-.15.048 2 2 0 0 1-.29.092c-.142.03-.198.091-.11.125h.001c.021.007.116.018.211.018.171.002.173 0 .262-.135.049-.075.083-.139.076-.149m-2.533.677c-.067 0-.014.085.152.246.098.096.183.174.188.174s.008-.016.008-.037c0-.044-.308-.383-.348-.383m-.096.299c-.013 0-.023.038-.023.084 0 .086.116.201.435.42v.002c.083.054.148.082.155.062.012-.034-.522-.568-.567-.568m.744.357.086.05c.047.027.086.052.086.062 0 .024-.026.011-.098-.049z"/></svg>