<svg xmlns="http://www.w3.org/2000/svg" xml:space="preserve" fill-rule="evenodd" stroke-linejoin="round" stroke-miterlimit="1.414" clip-rule="evenodd" viewBox="0 0 24 24"><path fill="#039be5" d="M20 18H4V8h16m0-2h-8l-2-2H4c-1.11 0-2 .89-2 2v12a2 2 0 0 0 2 2h16a2 2 0 0 0 2-2V8a2 2 0 0 0-2-2" data-folderColor="Client"/><path fill="#b3e5fc" d="M21.985 18.967h-2.466v-4.316h2.466m.617-1.233h-3.7a.617.617 0 0 0-.616.617V20.2a.617.617 0 0 0 .616.617h3.7a.617.617 0 0 0 .616-.617v-6.165a.617.617 0 0 0-.616-.617m-11.714-1.233h11.097v-1.233H10.888a1.233 1.233 0 0 0-1.234 1.233v6.782H8.421v1.85h8.632v-1.85h-6.165z" data-folderIconColor="Client"/></svg>