<svg xmlns="http://www.w3.org/2000/svg" viewBox="0 0 24 24"><path fill="#ffab00" d="M20 18H4V8h16m0-2h-8l-2-2H4c-1.11 0-2 .89-2 2v12a2 2 0 0 0 2 2h16a2 2 0 0 0 2-2V8a2 2 0 0 0-2-2" data-folderColor="FAQ"/><path fill="#ffe57f" d="M17 9c-3.3 0-6 2.7-6 6s2.7 6 6 6 6-2.7 6-6-2.7-6-6-6m.6 10.2h-1.2V18h1.2zm1.2-4.6-.5.6c-.4.4-.7.8-.7 1.7h-1.2v-.3c0-.7.3-1.3.7-1.7l.7-.8c.2-.2.4-.5.4-.8 0-.7-.5-1.2-1.2-1.2s-1.2.5-1.2 1.2h-1.2c0-1.3 1.1-2.4 2.4-2.4s2.4 1.1 2.4 2.4c0 .4-.2.9-.6 1.3" data-folderIconColor="FAQ"/></svg>