<svg xmlns="http://www.w3.org/2000/svg" xml:space="preserve" fill-rule="evenodd" stroke-linejoin="round" stroke-miterlimit="1.414" clip-rule="evenodd" viewBox="0 0 24 24"><path fill="#ff5252" d="M20 18H4V8h16m0-2h-8l-2-2H4c-1.11 0-2 .89-2 2v12a2 2 0 0 0 2 2h16a2 2 0 0 0 2-2V8a2 2 0 0 0-2-2" data-folderColor="Mobile"/><path fill="#ffcdd2" d="M10.337 9.759h10.435A1.23 1.23 0 0 1 22 10.987v1.227h-2.456v-1.227h-7.98v7.366h5.525v1.228h-6.753a1.23 1.23 0 0 1-1.227-1.228v-7.366a1.23 1.23 0 0 1 1.227-1.228m8.594 3.683h3.684a.614.614 0 0 1 .613.614v6.138a.614.614 0 0 1-.613.614H18.93a.614.614 0 0 1-.613-.614v-6.138a.614.614 0 0 1 .613-.614m.614 1.228v4.297H22V14.67z" data-folderIconColor="Mobile"/></svg>