<svg xmlns="http://www.w3.org/2000/svg" xml:space="preserve" fill-rule="evenodd" stroke-linejoin="round" stroke-miterlimit="1.414" clip-rule="evenodd" viewBox="0 0 24 24"><path fill="#6aab20" d="M20 18H4V8h16m0-2h-8l-2-2H4c-1.11 0-2 .89-2 2v12a2 2 0 0 0 2 2h16a2 2 0 0 0 2-2V8a2 2 0 0 0-2-2" data-folderColor="Vim"/><path fill="#f0f4c3" d="M14.18 23h-1.117l-.323-.185v-9.547h-.54l-.2-.197v-.839l.216-.232H16.5l.266.259v.795l-.207.246h-.469v3.95l4.036-3.95h-.667l-.234-.25v-.836l.216-.2h4.342l.217.218v.786Z" data-folderIconColor="Vim"/></svg>