<svg xmlns="http://www.w3.org/2000/svg" xmlns:xlink="http://www.w3.org/1999/xlink" viewBox="0 0 128 128"><defs><linearGradient id="e" x1="50%" x2="50%" y1="0%" y2="11.796%"><stop offset="0%" stop-color="#fff"/><stop offset="100%" stop-color="#cef5ff"/></linearGradient><linearGradient id="h" x1="50%" x2="50%" y1="0%" y2="100%"><stop offset="0%" stop-color="#1850d2"/><stop offset="100%" stop-color="#8bc5ff"/></linearGradient><linearGradient id="k" x1="50%" x2="50%" y1="20.953%" y2="100%"><stop offset="0%" stop-color="#0e3bac"/><stop offset="100%" stop-color="#1a0570"/></linearGradient><linearGradient id="m" x1="22.015%" x2="62.934%" y1="68.876%" y2="31.044%"><stop offset="0%" stop-color="#ffc8c8"/><stop offset="100%" stop-color="#4c82f4"/></linearGradient><linearGradient id="n" x1="22.015%" x2="63.689%" y1="65.92%" y2="29.337%"><stop offset="0%" stop-color="#ffc8c8"/><stop offset="100%" stop-color="#4381ff"/></linearGradient><filter id="a" width="128.8%" height="133.3%" x="-14.4%" y="-16.7%" filterUnits="objectBoundingBox"><feOffset dy="2" in="SourceAlpha" result="shadowOffsetOuter1"/><feGaussianBlur in="shadowOffsetOuter1" result="shadowBlurOuter1" stdDeviation="3"/><feComposite in="shadowBlurOuter1" in2="SourceAlpha" operator="out" result="shadowBlurOuter1"/><feColorMatrix in="shadowBlurOuter1" result="shadowMatrixOuter1" values="0 0 0 0 0 0 0 0 0 0 0 0 0 0 0 0 0 0 0.2 0"/><feMerge><feMergeNode in="shadowMatrixOuter1"/><feMergeNode in="SourceGraphic"/></feMerge></filter><filter id="d" width="108.9%" height="121.7%" x="-4.5%" y="-10.8%" filterUnits="objectBoundingBox"><feOffset in="SourceAlpha" result="shadowOffsetOuter1"/><feGaussianBlur in="shadowOffsetOuter1" result="shadowBlurOuter1" stdDeviation="1.5"/><feColorMatrix in="shadowBlurOuter1" values="0 0 0 0 0 0 0 0 0 0 0 0 0 0 0 0 0 0 0.2 0"/></filter><filter id="f" width="106.9%" height="116.9%" x="-3.5%" y="-8.4%" filterUnits="objectBoundingBox"><feOffset dy="1" in="SourceAlpha" result="shadowOffsetInner1"/><feComposite in="shadowOffsetInner1" in2="SourceAlpha" k2="-1" k3="1" operator="arithmetic" result="shadowInnerInner1"/><feColorMatrix in="shadowInnerInner1" values="0 0 0 0 1 0 0 0 0 1 0 0 0 0 1 0 0 0 0.5 0"/></filter><filter id="l" width="110.3%" height="130%" x="-5.1%" y="-15%" filterUnits="objectBoundingBox"><feGaussianBlur in="SourceAlpha" result="shadowBlurInner1" stdDeviation="3"/><feOffset dy="6" in="shadowBlurInner1" result="shadowOffsetInner1"/><feComposite in="shadowOffsetInner1" in2="SourceAlpha" k2="-1" k3="1" operator="arithmetic" result="shadowInnerInner1"/><feColorMatrix in="shadowInnerInner1" values="0 0 0 0 0.13973199 0 0 0 0 0.558172091 0 0 0 0 0.763472577 0 0 0 0.303357111 0"/></filter><path id="g" d="M0 0h111v59c0 7.732-6.268 14-14 14H14C6.268 73 0 66.732 0 59z"/><path id="j" d="M0 70.5C16.795 65 15.802 42.226 31.4 44s19.767 3.938 26.6 0 10-15.528 24-13.149 27.025 15.183 35.025 19.415L110 70.5z"/><rect id="b" width="101" height="41.5" x="5" y="16" rx="9"/></defs><g fill="none" fill-rule="evenodd" filter="url(#a)" transform="translate(9 23)"><path fill="#003bae" d="M62 5.75a9.56 9.56 0 0 0 8.77 5.75H97c7.732 0 14 6.268 14 14V82c0 7.732-6.268 14-14 14H14C6.268 96 0 89.732 0 82V14C0 6.268 6.268 0 14 0h39.23A9.56 9.56 0 0 1 62 5.75"/><use xlink:href="#b" fill="#000" filter="url(#d)"/><use xlink:href="#b" fill="url(#e)"/><use xlink:href="#b" fill="#000" filter="url(#f)"/><g transform="translate(0 23)"><mask id="i" fill="#fff"><use xlink:href="#g"/></mask><use xlink:href="#g" fill="url(#h)"/><g mask="url(#i)"><g transform="translate(.5 3.5)"><g transform="translate(8 26)"><circle cx="16" cy="16" r="8" fill="#f66161"/><path fill="#ffa279" fill-rule="nonzero" d="M16 24a8 8 0 1 0 0-16 8 8 0 0 0 0 16m0 4C9.373 28 4 22.627 4 16S9.373 4 16 4s12 5.373 12 12-5.373 12-12 12" opacity=".5"/><path fill="#ffa279" fill-rule="nonzero" d="M16 28c6.627 0 12-5.373 12-12S22.627 4 16 4 4 9.373 4 16s5.373 12 12 12m0 4C7.163 32 0 24.837 0 16S7.163 0 16 0s16 7.163 16 16-7.163 16-16 16" opacity=".2"/></g><use xlink:href="#j" fill="url(#k)"/><use xlink:href="#j" fill="#000" filter="url(#l)"/><path fill="url(#m)" d="M29.273 6c2.872 0 5.257 2.136 5.732 4.945 1.747.651 2.995 2.37 2.995 4.388C38 17.911 35.965 20 33.455 20h-10.91C20.035 20 18 17.91 18 15.333s2.035-4.666 4.545-4.666q.53 0 1.025.119C24.106 8.056 26.456 6 29.273 6" opacity=".7"/><path fill="url(#n)" d="M91.782 0c4.02 0 7.36 2.746 8.025 6.358C102.253 7.195 104 9.405 104 12c0 3.314-2.85 6-6.364 6H82.364C78.849 18 76 15.314 76 12s2.85-6 6.364-6q.741.002 1.433.153C84.548 2.643 87.837 0 91.782 0" opacity=".7"/></g></g></g></g></svg>