<svg xmlns="http://www.w3.org/2000/svg" fill-rule="evenodd" stroke-linejoin="round" stroke-miterlimit="1.414" clip-rule="evenodd" viewBox="0 0 24 24"><path fill="#00796b" d="M20 18H4V8h16m0-2h-8l-2-2H4c-1.11 0-2 .89-2 2v12a2 2 0 0 0 2 2h16a2 2 0 0 0 2-2V8a2 2 0 0 0-2-2" data-folderColor="e2e"/><path fill="#e0f2f1" d="M20.67 20.8c-.26.78-.975 1.3-1.82 1.3h-6.5a1.915 1.915 0 0 1-1.95-1.95v-.65h7.93c.26.78.975 1.3 1.82 1.3zm.78-11.7c1.105 0 1.95.845 1.95 1.95v.65h-1.3v-.65c0-.39-.26-.65-.65-.65s-.65.26-.65.65v8.45h-.65c-.39 0-.65-.26-.65-.65v-.65h-7.15v-7.15c0-1.105.845-1.95 1.95-1.95zm-7.15 2.6V13h4.55v-1.3zm0 2.6v1.3h3.9v-1.3z" data-folderIconColor="e2e"/></svg>