<svg xmlns="http://www.w3.org/2000/svg" xmlns:xlink="http://www.w3.org/1999/xlink" viewBox="0 0 48 48"><defs><linearGradient id="a" x1="90.7%" x2="35.327%" y1="6.565%" y2="64.144%"><stop offset="0%" stop-color="#93def2"/><stop offset="100%" stop-color="#5abadf"/></linearGradient></defs><g fill="none" fill-rule="evenodd"><path fill="#5abadf" d="M5 7.998A3 3 0 0 1 8.008 5h22.994L43 17.01v22.983A3.01 3.01 0 0 1 40.002 43H7.998A3.004 3.004 0 0 1 5 40.002z"/><path fill="url(#a)" d="m30.959 5.013 12 12V8.01a2.997 2.997 0 0 0-2.997-2.997z" transform="matrix(-1 0 0 -1 73.917 22.025)"/><path fill="#fff" d="M20.136 26.232c-.072.72-.096 1.344-.096 1.824.024 1.368.408 1.968.888 2.184.216.096.36.024.36-.216.048-1.272.192-2.592.36-3.84a5.6 5.6 0 0 1 1.032.144c.216.072.312 0 .264-.216-.096-.504-.36-.984-1.08-1.224a50 50 0 0 1 1.752-6.984c.216-.648.24-1.176 0-1.752-.24-.6-.312-.648-.552-.984s-.48-.336-.864-.024c-2.544 2.088-5.88 6.84-7.752 10.104a14 14 0 0 1-1.08-.12c-.36-.048-.408.048-.288.36.072.168.264.528.792.816a13 13 0 0 0-.648 1.368c-.504 1.344-.408 2.064-.12 2.448.12.168.336.168.432-.048a38 38 0 0 1 1.824-3.456c1.128.024 3.072-.264 4.776-.384m-3.864-1.056c1.824-2.856 4.008-5.76 5.832-7.8-.744 1.872-1.416 4.896-1.776 7.392-1.128.024-2.592.288-4.056.408M31.008 22.2c.048-.936-.432-1.728-1.464-1.728-1.2 0-3.096 1.08-5.04 3.912-1.992 2.904-1.536 5.952.696 5.952 1.152 0 2.232-.888 3-1.872 0 1.128.672 1.896 1.968 1.968 1.32.072 2.832-1.248 3.456-2.568.312-.672.312-1.272.216-1.488s-.264-.192-.384.024c-.84 1.656-2.16 3.288-3.144 3.336-.816.048-.792-.984-.192-2.328.576-1.272 1.776-3.072 2.304-4.152.576-1.2.384-2.232.024-2.664q-.252-.324-.576.144c-.264.384-.552.888-.864 1.464m-2.088 3.72c-1.224 2.112-2.472 3.648-3.456 3.624-.936-.024-.624-2.136.648-4.2 1.32-2.136 3.072-3.696 3.84-3.624.696.072.48 1.56-1.032 4.2"/></g></svg>