<svg xmlns="http://www.w3.org/2000/svg" viewBox="0 0 24 24"><g fill="#536076"><path d="M8.5 5C10.421 5 12 6.579 12 8.5a3.1 3.1 0 0 1-.162.941l-.076.223 2.812-4.219a1 1 0 0 1 1.286-.335l.115.068.812.562a1 1 0 0 1 .326 1.27l-.062.107-3.875 5.815c.622-.564 1.426-.932 2.324-.932 1.921 0 3.5 1.579 3.5 3.5S17.421 19 15.5 19a3.515 3.515 0 0 1-3.5-3.5c0-.33.067-.641.162-.941l.076-.223-2.812 4.219a1 1 0 0 1-1.286.335l-.115-.068-.812-.562a1 1 0 0 1-.326-1.27l.062-.107 3.875-5.815c-.622.564-1.426.932-2.324.932A3.515 3.515 0 0 1 5 8.5C5 6.579 6.579 5 8.5 5m6.922 1.034L7.795 17.428l.836.588 7.59-11.442zM15.5 13c-1.44 0-2.5 1.06-2.5 2.5s1.06 2.5 2.5 2.5 2.5-1.06 2.5-2.5-1.06-2.5-2.5-2.5m-7-7C7.06 6 6 7.06 6 8.5S7.06 11 8.5 11 11 9.94 11 8.5 9.94 6 8.5 6"/><path d="M15.5 14c.864 0 1.5.636 1.5 1.5s-.636 1.5-1.5 1.5-1.5-.636-1.5-1.5.636-1.5 1.5-1.5m0 1a.5.5 0 1 0 0 1 .5.5 0 0 0 0-1m-7-8c.864 0 1.5.636 1.5 1.5S9.364 10 8.5 10 7 9.364 7 8.5 7.636 7 8.5 7m0 1a.5.5 0 1 0 0 1 .5.5 0 0 0 0-1"/></g></svg>