<svg xmlns="http://www.w3.org/2000/svg" viewBox="0 0 64 64"><rect width="56" height="56" x="4" y="5" opacity=".2" rx="2.8" ry="2.8"/><rect width="56" height="56" x="4" y="4" fill="#fa4778" rx="2.8" ry="2.8"/><path fill="#fff" d="M6.8 4C5.25 4 4 5.25 4 6.8v1C4 6.25 5.25 5 6.8 5h50.4A2.796 2.796 0 0 1 60 7.8v-1C60 5.25 58.75 4 57.199 4z" opacity=".2"/><path fill="none" stroke="#000" stroke-linejoin="round" stroke-width="4" d="M20 17v32l10-12h8l2-10H30h10l2-10Z" opacity=".2"/><path fill="none" stroke="#fff" stroke-linejoin="round" stroke-width="4" d="M20 16v32l10-12h8l2-10H30h10l2-10Z"/></svg>