<svg xmlns="http://www.w3.org/2000/svg" xmlns:xlink="http://www.w3.org/1999/xlink" viewBox="0 0 96 96"><defs><linearGradient id="b" x1="50%" x2="50%" y1="0%" y2="100%"><stop offset="0%" stop-color="#b1bf59"/><stop offset="100%" stop-color="#798b2d"/></linearGradient><linearGradient id="c" x1="50%" x2="50%" y1="0%" y2="100%"><stop offset="0%" stop-color="#dbf468"/><stop offset="100%" stop-color="#a3c63f"/></linearGradient><linearGradient id="d" x1="50%" x2="50%" y1="0%" y2="100%"><stop offset="0%" stop-color="#1c4c9d"/><stop offset="100%" stop-color="#0c2564"/></linearGradient><linearGradient id="e" x1="50%" x2="50%" y1="0%" y2="100%"><stop offset="0%" stop-color="#fff36b"/><stop offset="100%" stop-color="#ffe239"/></linearGradient><linearGradient id="f" x1="0%" x2="50%" y1="20.367%" y2="72.963%"><stop offset="0%" stop-color="#fff"/><stop offset="100%" stop-color="#fff" stop-opacity="0"/></linearGradient><filter id="a" width="130.4%" height="136.4%" x="-15.2%" y="-18.2%" filterUnits="objectBoundingBox"><feOffset dy="2" in="SourceAlpha" result="shadowOffsetOuter1"/><feGaussianBlur in="shadowOffsetOuter1" result="shadowBlurOuter1" stdDeviation="2"/><feComposite in="shadowBlurOuter1" in2="SourceAlpha" operator="out" result="shadowBlurOuter1"/><feColorMatrix in="shadowBlurOuter1" result="shadowMatrixOuter1" values="0 0 0 0 0 0 0 0 0 0 0 0 0 0 0 0 0 0 0.2 0"/><feMerge><feMergeNode in="shadowMatrixOuter1"/><feMergeNode in="SourceGraphic"/></feMerge></filter></defs><g fill="none" fill-rule="evenodd" filter="url(#a)" transform="translate(9 15)"><path fill="url(#b)" d="M27 0h36l11.755 5.877a6 6 0 0 1 3.315 5.25l.851 43.817a6 6 0 0 1-3.655 5.64L62.5 66H27a6 6 0 0 1-6-6V6a6 6 0 0 1 6-6"/><rect width="71" height="66" fill="url(#c)" rx="10"/><rect width="66" height="54" x="2" y="2" fill="#000001" rx="8"/><rect width="60" height="48" x="5" y="5" fill="url(#d)" rx="5"/><circle cx="57.5" cy="60.5" r="3.5" fill="url(#e)"/><circle cx="9" cy="59" r="2" fill="url(#e)"/><circle cx="15" cy="59" r="2" fill="url(#e)"/><circle cx="21" cy="59" r="2" fill="url(#e)"/><circle cx="27" cy="59" r="2" fill="url(#e)"/><path fill="url(#f)" d="M57.5 5Q54 22.5 37 35T5 45V10a5 5 0 0 1 5-5z" opacity=".573"/></g></svg>