<svg xmlns="http://www.w3.org/2000/svg" viewBox="0 0 64 64"><path d="M41.585 21.56c-2.188-1.503-3.342-4.778-4.946-6.18-.902-.789-.887-1.388.289-1.317 1.142.068 2.703.396 4.575 1.374 0 0-.688-6.873-3.668-10.366-.782-.917-.663-1.258.46-.885 2.45.812 5.898 3.154 7.787 6.495 0 0 4.529-6.835 10.826-6.678 1.178.029 1.25.757.277 1.45-2.304 1.64-6.108 5.142-6.167 10.065 0 0 1.45-1.617 4.214-1.442 1.79.114 3.96 1.481 6.249 3.486.9.789.583 1.495-.594 1.548-2.68.12-7.142.56-8.919 2.984 0 0 2.628-.359 3.05.648.411.982.011 2.798-1.59 3.116-4.021.801-8.42-1.945-11.843-4.297z" opacity=".2"/><path d="M57.117 44.766a16.175 20.704 14.613 0 1-20.942 15.795 16.175 20.704 14.613 0 1-10.292-24.219 16.175 20.704 14.613 0 1 20.944-15.795 16.175 20.704 14.613 0 1 10.29 24.22" opacity=".2"/><path d="M35.572 15 3.2 15.092l14.837 26.07v16.841H13V61h13v-2.997h-5V41.28z" opacity=".2"/><path fill="#e4e4e4" d="M35.572 14 3.2 14.092l14.837 26.07v16.841H13V60h13v-2.997h-5V40.28z"/><path fill="#b31f13" d="M8.168 17.043c.729 1.473 6.654 11.831 8.053 14.056.81 1.29 1.711 2.34 2.299 2.683.516.301 1.108.325 1.62.06.56-.288 1.668-1.564 2.471-2.846 1.317-2.101 7.29-12.535 7.998-13.953z"/><path fill="#76ae17" d="M41.585 20.56c-2.188-1.503-3.342-4.778-4.946-6.18-.902-.789-.887-1.388.289-1.317 1.142.068 2.703.396 4.575 1.374 0 0-.688-6.873-3.668-10.366-.782-.917-.663-1.258.46-.885 2.45.812 5.898 3.154 7.787 6.495 0 0 4.529-6.835 10.826-6.678 1.178.029 1.25.757.277 1.45-2.304 1.64-6.108 5.142-6.167 10.065 0 0 1.45-1.617 4.214-1.442 1.79.114 3.96 1.481 6.249 3.486.9.789.583 1.495-.594 1.548-2.68.12-7.142.56-8.919 2.984 0 0 2.628-.359 3.05.648.411.982.011 2.798-1.59 3.116-4.021.801-8.42-1.945-11.843-4.297z"/><path fill="#9b7528" d="M57.117 43.766a16.175 20.704 14.613 0 1-20.942 15.795 16.175 20.704 14.613 0 1-10.292-24.219 16.175 20.704 14.613 0 1 20.944-15.795 16.175 20.704 14.613 0 1 10.29 24.22"/><path d="M47.795 19.743a1.455 1.47 5.164 0 0-.06 1.554l1.468 2.57a1.47 1.484 5.164 0 0 2.008.542l1.903-1.112a16.175 20.776 14.618 0 0-5.32-3.554m-3.367-.713a16.175 20.776 14.618 0 0-5.943.936l.68 1.193a1.47 1.484 5.164 0 0 2.008.542l2.547-1.488a1.44 1.455 5.164 0 0 .708-1.183m1.142 2.32a1.47 1.484 5.164 0 0-1.116.15l-2.547 1.486a1.47 1.484 5.164 0 0-.54 2.027l1.467 2.572a1.47 1.484 5.164 0 0 2.007.542l2.548-1.49a1.47 1.484 5.164 0 0 .54-2.027l-1.467-2.57a1.47 1.484 5.164 0 0-.892-.69m8.514 3.095-2.14 1.248a1.47 1.484 5.164 0 0-.54 2.028l1.467 2.572a1.47 1.484 5.164 0 0 2.008.541l1.956-1.141a16.175 20.776 14.618 0 0-2.752-5.25zm-16.962-3.893a16.175 20.776 14.618 0 0-4.818 3.465l.491.86a1.47 1.484 5.164 0 0 2.009.541l2.546-1.488a1.47 1.484 5.164 0 0 .54-2.028zm2.08 4.51a1.47 1.484 5.164 0 0-1.116.152l-2.548 1.489a1.47 1.484 5.164 0 0-.54 2.028l1.468 2.569a1.47 1.484 5.164 0 0 2.007.541l2.548-1.486a1.47 1.484 5.164 0 0 .54-2.028l-1.467-2.572a1.47 1.484 5.164 0 0-.892-.69m10.037 2.706a1.47 1.484 5.164 0 0-1.116.151l-2.548 1.49a1.47 1.484 5.164 0 0-.54 2.027l1.468 2.57a1.47 1.484 5.164 0 0 2.008.54l2.547-1.485a1.47 1.484 5.164 0 0 .54-2.028l-1.467-2.572a1.47 1.484 5.164 0 0-.892-.691m8.027 3.382-1.652.966a1.47 1.484 5.164 0 0-.54 2.027l1.47 2.567a1.47 1.484 5.164 0 0 1.437.73 16.175 20.776 14.618 0 0-.714-6.294m-26.022-6.02a16.175 20.776 14.618 0 0-2.848 4.012c.012-.007.025-.005.036-.011l2.55-1.486a1.47 1.484 5.164 0 0 .54-2.028l-.277-.483zm1.589 3.647a1.47 1.484 5.164 0 0-1.117.153l-2.55 1.485a1.47 1.484 5.164 0 0-.54 2.028l1.47 2.57a1.47 1.484 5.164 0 0 2.008.542l2.548-1.487a1.47 1.484 5.164 0 0 .54-2.028l-1.469-2.567a1.47 1.484 5.164 0 0-.89-.694zm10.037 2.708a1.47 1.484 5.164 0 0-1.116.152l-2.547 1.486a1.47 1.484 5.164 0 0-.54 2.028l1.468 2.57a1.47 1.484 5.164 0 0 2.007.54l2.549-1.485a1.47 1.484 5.164 0 0 .54-2.028l-1.469-2.568a1.47 1.484 5.164 0 0-.89-.693zm10.038 2.707a1.47 1.484 5.164 0 0-1.115.153l-2.547 1.486a1.47 1.484 5.164 0 0-.54 2.028l1.468 2.569a1.47 1.484 5.164 0 0 2.007.541l2.55-1.485a1.47 1.484 5.164 0 0 .54-2.028l-1.47-2.568a1.47 1.484 5.164 0 0-.892-.694Zm-16.405 1.009a1.47 1.484 5.164 0 0-1.116.152l-2.547 1.487a1.47 1.484 5.164 0 0-.54 2.027l1.468 2.57a1.47 1.484 5.164 0 0 2.007.541l2.548-1.486a1.47 1.484 5.164 0 0 .54-2.028l-1.468-2.57a1.47 1.484 5.164 0 0-.892-.693m10.038 2.707a1.47 1.484 5.164 0 0-1.116.153l-2.548 1.486a1.47 1.484 5.164 0 0-.54 2.028l1.468 2.569a1.47 1.484 5.164 0 0 2.008.541L48.36 43.2a1.47 1.484 5.164 0 0 .54-2.028l-1.468-2.569a1.47 1.484 5.164 0 0-.89-.694m10.04 2.708a1.47 1.484 5.164 0 0-1.117.153l-2.55 1.485a1.47 1.484 5.164 0 0-.54 2.028l1.47 2.57a1.463 1.477 5.164 0 0 1.983.55 16.175 20.776 14.618 0 0 1.291-3.694 16.175 20.776 14.618 0 0 .467-2.201l-.112-.195a1.47 1.484 5.164 0 0-.891-.694zM26.756 32.64a16.175 20.776 14.618 0 0-.872 2.645 16.175 20.776 14.618 0 0-.744 4.174 1.47 1.484 5.164 0 0 .594-.186l2.55-1.485a1.47 1.484 5.164 0 0 .54-2.028l-1.469-2.57a1.47 1.484 5.164 0 0-.6-.549zm3.378 6.282a1.47 1.484 5.164 0 0-1.115.15l-2.55 1.485a1.47 1.484 5.164 0 0-.54 2.027l1.47 2.572a1.47 1.484 5.164 0 0 2.008.541l2.547-1.487a1.47 1.484 5.164 0 0 .54-2.028l-1.467-2.568a1.47 1.484 5.164 0 0-.892-.69zm10.038 2.707a1.47 1.484 5.164 0 0-1.116.15l-2.547 1.486a1.47 1.484 5.164 0 0-.54 2.027l1.468 2.571a1.47 1.484 5.164 0 0 2.007.542l2.548-1.488a1.47 1.484 5.164 0 0 .54-2.028l-1.467-2.567a1.47 1.484 5.164 0 0-.892-.691zm10.038 2.707a1.47 1.484 5.164 0 0-1.116.15l-2.547 1.486a1.47 1.484 5.164 0 0-.54 2.028l1.467 2.57a1.47 1.484 5.164 0 0 2.008.542l2.55-1.487a1.47 1.484 5.164 0 0 .54-2.028l-1.47-2.568a1.47 1.484 5.164 0 0-.891-.691zm-16.405 1.01a1.47 1.484 5.164 0 0-1.116.15l-2.547 1.486a1.47 1.484 5.164 0 0-.54 2.028l1.467 2.572a1.47 1.484 5.164 0 0 2.007.542l2.549-1.49a1.47 1.484 5.164 0 0 .54-2.027l-1.468-2.57a1.47 1.484 5.164 0 0-.892-.69m10.037 2.708a1.47 1.484 5.164 0 0-1.114.15l-2.549 1.486a1.47 1.484 5.164 0 0-.54 2.027l1.469 2.573a1.47 1.484 5.164 0 0 2.008.541l2.548-1.489a1.47 1.484 5.164 0 0 .54-2.028l-1.468-2.569a1.47 1.484 5.164 0 0-.892-.69zm10.042 2.708a1.47 1.484 5.164 0 0-1.115.15l-2.55 1.485a1.47 1.484 5.164 0 0-.54 2.028l.567.994a16.175 20.776 14.618 0 0 3.774-4.59c-.047-.018-.087-.054-.136-.067m-28.777-6.647a16.175 20.776 14.618 0 0 .621 3.687 1.45 1.464 5.164 0 0 .4-1.902zm2.33 4.947a1.47 1.484 5.164 0 0-1.116.15l-.155.09a16.175 20.776 14.618 0 0 2.752 5.25l.339-.199a1.47 1.484 5.164 0 0 .54-2.027l-1.468-2.576a1.47 1.484 5.164 0 0-.892-.69zm10.037 2.708a1.47 1.484 5.164 0 0-1.114.15l-2.549 1.49a1.47 1.484 5.164 0 0-.54 2.028l1.468 2.57a1.47 1.484 5.164 0 0 2.007.542l2.548-1.488a1.47 1.484 5.164 0 0 .54-2.028l-1.467-2.573a1.47 1.484 5.164 0 0-.892-.691zm10.04 2.707a1.47 1.484 5.164 0 0-1.117.15l-2.548 1.49a1.47 1.484 5.164 0 0-.54 2.028l.634 1.112a16.175 20.776 14.618 0 0 5.157-2.87l-.695-1.217a1.47 1.484 5.164 0 0-.892-.691m-16.407 1.01a1.47 1.484 5.164 0 0-1.116.15l-.102.06a16.175 20.776 14.618 0 0 3.369 2.686l-1.26-2.204a1.47 1.484 5.164 0 0-.89-.692m10.037 2.707a1.47 1.484 5.164 0 0-1.116.15l-2.548 1.489-.012.012a16.175 20.776 14.618 0 0 5.007-.187l-.44-.77a1.47 1.484 5.164 0 0-.891-.694" opacity=".3"/><path fill="#fff" d="M35.572 14 3.2 14.092l.569.998 31.25-.088zM13 57.004v1h5.037v-1zm8 0v1h5v-1zM56.908 3.002C50.611 2.845 46.082 9.68 46.082 9.68c-1.889-3.341-5.337-5.682-7.787-6.494-1.122-.373-1.241-.032-.46.884q.007.008.01.014c.135.023.258.038.45.102 2.45.812 5.898 3.153 7.787 6.494 0 0 4.529-6.835 10.826-6.678.277.007.487.056.643.13.548-.58.353-1.105-.643-1.13m-19.98 10.06c-1.036-.061-1.169.395-.57 1.043.145-.038.327-.057.57-.043 1.142.069 2.704.397 4.576 1.376 0 0-.049-.435-.147-1.067-1.805-.918-3.318-1.242-4.43-1.309m18.304.014c-2.558-.162-3.936 1.163-4.134 1.367a10 10 0 0 0-.08 1.075s1.451-1.617 4.214-1.442c1.791.113 3.96 1.482 6.248 3.486q.169.149.282.29c.369-.284.316-.766-.282-1.29-2.288-2.004-4.457-3.373-6.248-3.486m-1.896 7.965c-.101-.005-.174.005-.272.004-.424.301-.8.645-1.095 1.049 0 0 2.627-.359 3.049.648.043.104.072.22.097.34.096-.482.057-.97-.097-1.34-.211-.503-.972-.665-1.682-.701" opacity=".2"/></svg>