<svg xmlns="http://www.w3.org/2000/svg" viewBox="0 0 64 64"><circle cx="32" cy="33" r="28" opacity=".2"/><circle cx="32" cy="32" r="28" fill="#235b92"/><path fill="#fff" d="M32 4A28 28 0 0 0 4 32a28 28 0 0 0 .018.492A28 28 0 0 1 32 5a28 28 0 0 1 27.975 27.492A28 28 0 0 0 60 32 28 28 0 0 0 32 4" opacity=".1"/><path d="M28 15.261a18.2 18.2 0 0 0-6.921 3.224L20.8 19c1.853-1.203 4.784-1.081 6.98-1.312zm8 .009.394 4.339a14 14 0 0 1 6.478 9.05l6.978.821A18.2 18.2 0 0 0 36 15.27m-19.742 8.668a18.2 18.2 0 0 0-2.097 5.54l1.241-.146c.008-2.11.856-5.394.856-5.394" opacity=".2"/><path fill="#fff" d="M28 14.262a18.2 18.2 0 0 0-6.921 3.224L20.8 18c1.853-1.203 4.784-1.081 6.98-1.312zm8 .008.394 4.34a14 14 0 0 1 6.478 9.05l6.978.82A18.2 18.2 0 0 0 36 14.27m-19.742 8.668a18.2 18.2 0 0 0-2.097 5.54l1.241-.145c.008-2.11.856-5.395.856-5.395"/><path fill="#363636" d="M14.148 35.52A18.2 18.2 0 0 0 28 49.73l-.477-5.242a14 14 0 0 1-11.332-8.726zm35.692.004-7.938.93a14 14 0 0 1-5.238 5.984l-.664 7.3a18.2 18.2 0 0 0 13.84-14.215"/><path d="M32 2.2 29 30 8.2 33 29 36l3 27.8L35 36l20.8-3L35 30Z" opacity=".2"/><path fill="#f75151" d="M32 1.2 29 29 8.2 32 29 35l3 27.8L35 35l20.8-3L35 29Z"/><path d="M14.148 35.52c.07.348.156.688.245 1.029l1.798.213a14 14 0 0 0 11.332 8.726l.383 4.217.094.025-.477-5.242a14 14 0 0 1-11.332-8.726zm35.692.003-7.938.93a14 14 0 0 1-5.238 5.984L36 49.739c.032-.007.062-.018.094-.025l.57-6.276a14 14 0 0 0 5.238-5.984l7.694-.9c.088-.34.175-.682.244-1.03" opacity=".1"/></svg>