<svg xmlns="http://www.w3.org/2000/svg" viewBox="0 0 64 64"><ellipse cx="31.5" cy="39" opacity=".2" rx="27.5" ry="18"/><ellipse cx="31.5" cy="38" fill="#19e91f" rx="27.5" ry="18"/><path fill="#fff" d="M31.5 20A27.5 18 0 0 0 4 38a27.5 18 0 0 0 .031.586A27.5 18 0 0 1 31.5 21a27.5 18 0 0 1 27.469 17.414A27.5 18 0 0 0 59 38a27.5 18 0 0 0-27.5-18" opacity=".2"/><path d="M17.5 7A10.5 15 0 0 0 7 22a10.5 15 0 0 0 10.5 15A10.5 15 0 0 0 28 22 10.5 15 0 0 0 17.5 7m24 0A9.5 13.5 0 0 0 32 20.5 9.5 13.5 0 0 0 41.5 34 9.5 13.5 0 0 0 51 20.5 9.5 13.5 0 0 0 41.5 7" opacity=".2"/><ellipse cx="41.5" cy="19.5" fill="#eceeeb" rx="9.5" ry="13.5"/><path d="M12 46v-3l6-2.778 5 3L32 40l8 3 6-3 5 3v3l-5-3-6 3-8-3-9 3-5-3z" opacity=".1"/><path fill="#115b39" d="M12 45v-3l6-2.778 5 3L32 39l8 3 6-3 5 3v3l-5-3-6 3-8-3-9 3-5-3z"/><ellipse cx="17.5" cy="21" fill="#eceeeb" rx="10.5" ry="15"/><circle cx="20.5" cy="22.5" r="2.5" fill="#4f4f4f"/><circle cx="39.5" cy="22.5" r="2.5" fill="#4f4f4f"/><path fill="#fff" d="M17.5 6A10.5 15 0 0 0 7 21a10.5 15 0 0 0 .014.404A10.5 15 0 0 1 17.5 7a10.5 15 0 0 1 10.486 14.596A10.5 15 0 0 0 28 21 10.5 15 0 0 0 17.5 6m24 0A9.5 13.5 0 0 0 32 19.5a9.5 13.5 0 0 0 .014.414A9.5 13.5 0 0 1 41.5 7a9.5 13.5 0 0 1 9.486 13.086A9.5 13.5 0 0 0 51 19.5 9.5 13.5 0 0 0 41.5 6" opacity=".2"/></svg>