<svg xmlns="http://www.w3.org/2000/svg" xmlns:xlink="http://www.w3.org/1999/xlink" viewBox="0 0 96 96"><defs><linearGradient id="b" x1="50%" x2="50%" y1="0%" y2="100%"><stop offset="0%" stop-color="#38b7fa"/><stop offset="100%" stop-color="#1a80f3"/></linearGradient><linearGradient id="h" x1="50%" x2="50%" y1="50%" y2="100%"><stop offset="0%" stop-color="#dbd9d2"/><stop offset="100%" stop-color="#b4b1a6"/></linearGradient><linearGradient id="i" x1="50%" x2="50%" y1="50%" y2="100%"><stop offset="0%" stop-color="#dbd9d2"/><stop offset="100%" stop-color="#b4b1a6"/></linearGradient><linearGradient id="k" x1="50%" x2="50%" y1="0%" y2="100%"><stop offset="0%" stop-color="#544338"/><stop offset="100%" stop-color="#80634e"/></linearGradient><linearGradient id="o" x1="50%" x2="50%" y1="50%" y2="100%"><stop offset="0%" stop-color="#dbd9d2"/><stop offset="100%" stop-color="#b4b1a6"/></linearGradient><linearGradient id="p" x1="50%" x2="50%" y1="50%" y2="100%"><stop offset="0%" stop-color="#dbd9d2"/><stop offset="100%" stop-color="#b4b1a6"/></linearGradient><linearGradient id="q" x1="50%" x2="50%" y1="50%" y2="100%"><stop offset="0%" stop-color="#dbd9d2"/><stop offset="100%" stop-color="#b4b1a6"/></linearGradient><linearGradient id="r" x1="50%" x2="50%" y1="50%" y2="100%"><stop offset="0%" stop-color="#c0beb4"/><stop offset="100%" stop-color="#a8a59a"/></linearGradient><linearGradient id="s" x1="50%" x2="50%" y1="50%" y2="100%"><stop offset="0%" stop-color="#c0beb4"/><stop offset="100%" stop-color="#a8a59a"/></linearGradient><linearGradient id="u" x1="50%" x2="50%" y1="0%" y2="100%"><stop offset="0%" stop-color="#dbd9d2"/><stop offset="100%" stop-color="#b4b1a6"/></linearGradient><linearGradient id="x" x1="50%" x2="50%" y1="50%" y2="100%"><stop offset="0%" stop-color="#dbd9d2"/><stop offset="100%" stop-color="#b4b1a6"/></linearGradient><filter id="a" width="129.3%" height="145.1%" x="-14.6%" y="-22%" filterUnits="objectBoundingBox"><feOffset dy="2" in="SourceAlpha" result="shadowOffsetOuter1"/><feGaussianBlur in="shadowOffsetOuter1" result="shadowBlurOuter1" stdDeviation="2"/><feComposite in="shadowBlurOuter1" in2="SourceAlpha" operator="out" result="shadowBlurOuter1"/><feColorMatrix in="shadowBlurOuter1" result="shadowMatrixOuter1" values="0 0 0 0 0 0 0 0 0 0 0 0 0 0 0 0 0 0 0.2 0"/><feMerge><feMergeNode in="shadowMatrixOuter1"/><feMergeNode in="SourceGraphic"/></feMerge></filter><filter id="c" width="148%" height="131.2%" x="-24%" y="-15.6%" filterUnits="objectBoundingBox"><feOffset dy="2" in="SourceAlpha" result="shadowOffsetOuter1"/><feGaussianBlur in="shadowOffsetOuter1" result="shadowBlurOuter1" stdDeviation="2"/><feColorMatrix in="shadowBlurOuter1" result="shadowMatrixOuter1" values="0 0 0 0 0 0 0 0 0 0 0 0 0 0 0 0 0 0 0.15 0"/><feMerge><feMergeNode in="shadowMatrixOuter1"/><feMergeNode in="SourceGraphic"/></feMerge></filter><filter id="g" width="118.4%" height="136.8%" x="-9.2%" y="-13.2%" filterUnits="objectBoundingBox"><feOffset dy="1" in="SourceAlpha" result="shadowOffsetOuter1"/><feGaussianBlur in="shadowOffsetOuter1" result="shadowBlurOuter1" stdDeviation="1"/><feColorMatrix in="shadowBlurOuter1" values="0 0 0 0 0 0 0 0 0 0 0 0 0 0 0 0 0 0 0.1 0"/></filter><filter id="l" width="110%" height="110%" x="-5%" y="-5%" filterUnits="objectBoundingBox"><feOffset dy="-1" in="SourceAlpha" result="shadowOffsetInner1"/><feComposite in="shadowOffsetInner1" in2="SourceAlpha" k2="-1" k3="1" operator="arithmetic" result="shadowInnerInner1"/><feColorMatrix in="shadowInnerInner1" values="0 0 0 0 0 0 0 0 0 0 0 0 0 0 0 0 0 0 0.27 0"/></filter><filter id="n" width="125%" height="125%" x="-12.5%" y="-12.5%" filterUnits="objectBoundingBox"><feOffset dy="1" in="SourceAlpha" result="shadowOffsetInner1"/><feComposite in="shadowOffsetInner1" in2="SourceAlpha" k2="-1" k3="1" operator="arithmetic" result="shadowInnerInner1"/><feColorMatrix in="shadowInnerInner1" values="0 0 0 0 0 0 0 0 0 0 0 0 0 0 0 0 0 0 0.27 0"/></filter><filter id="v" width="106.5%" height="107%" x="-3.2%" y="-3.5%" filterUnits="objectBoundingBox"><feGaussianBlur in="SourceAlpha" result="shadowBlurInner1" stdDeviation="1"/><feOffset dy="1" in="shadowBlurInner1" result="shadowOffsetInner1"/><feComposite in="shadowOffsetInner1" in2="SourceAlpha" k2="-1" k3="1" operator="arithmetic" result="shadowInnerInner1"/><feColorMatrix in="shadowInnerInner1" values="0 0 0 0 0 0 0 0 0 0 0 0 0 0 0 0 0 0 0.14 0"/></filter><filter id="y" width="125%" height="142.9%" x="-12.5%" y="-21.4%" filterUnits="objectBoundingBox"><feGaussianBlur in="SourceAlpha" result="shadowBlurInner1" stdDeviation="1.5"/><feOffset in="shadowBlurInner1" result="shadowOffsetInner1"/><feComposite in="shadowOffsetInner1" in2="SourceAlpha" k2="-1" k3="1" operator="arithmetic" result="shadowInnerInner1"/><feColorMatrix in="shadowInnerInner1" values="0 0 0 0 0 0 0 0 0 0 0 0 0 0 0 0 0 0 0.09 0"/></filter><circle id="j" cx="25" cy="33" r="5"/><circle id="m" cx="25" cy="33" r="2"/><path id="e" d="M21 17q1.5 4-1.649 6-3.023 1.92-12.549 3.84a1 1 0 0 0-.802.98V35a1 1 0 0 0 1 1h36a1 1 0 0 0 1-1v-7.151a1 1 0 0 0-.835-.987Q31.605 24.931 29.622 23q-2.055-2-1.027-6z"/><path id="t" d="M2 34c.5 6 0 12 5.5 21S22 64 22 67.5V75a2 2 0 0 0 2 2h2a2 2 0 0 0 2-2v-7.5c0-3 11-5 14.5-11s5.5-13 6-22.5H45c0 3.5-1 18.5-12 24H17C10 55.5 5 42 5 34z"/><radialGradient id="d" cx="50%" cy="27.782%" r="72.218%" fx="50%" fy="27.782%" gradientTransform="matrix(0 1 -1.14547 0 .818 -.222)"><stop offset="0%" stop-color="#dbd9d2"/><stop offset="100%" stop-color="#a8a496"/></radialGradient><ellipse id="w" cx="25" cy="62.5" rx="6" ry="3.5"/></defs><g fill="none" fill-rule="evenodd" filter="url(#a)" transform="translate(7 6)"><circle cx="41" cy="41" r="41" fill="url(#b)"/><g filter="url(#c)" transform="translate(16 3)"><path fill="url(#d)" d="M8 36c1 5 5.5 19 17.5 19S42 41.5 43 36z"/><use xlink:href="#e" fill="#000" filter="url(#g)"/><use xlink:href="#e" fill="url(#h)"/><rect width="6" height="4" y="30" fill="url(#i)" rx="1"/><rect width="6" height="4" x="44" y="30" fill="url(#i)" rx="1"/><use xlink:href="#j" fill="url(#k)"/><use xlink:href="#j" fill="#000" filter="url(#l)"/><use xlink:href="#m" fill="#544338"/><use xlink:href="#m" fill="#000" filter="url(#n)"/><rect width="10" height="5" x="20" y="13" fill="url(#o)" rx="1"/><path fill="url(#p)" d="M18.173 11.862 25 2l6.827 9.862A2 2 0 0 1 30.183 15H19.817a2 2 0 0 1-1.644-3.138"/><path fill="url(#q)" d="M25 5.5c2.21 0 4-.596 4-1.977C29 2.143 27.21 0 25 0s-4 2.142-4 3.523c0 1.38 1.79 1.977 4 1.977"/><path fill="url(#r)" d="M21 54h8v4a1 1 0 0 1-1 1h-6a1 1 0 0 1-1-1z"/><rect width="10" height="3" x="20" y="52" fill="url(#s)" rx="1"/><use xlink:href="#t" fill="url(#u)"/><use xlink:href="#t" fill="#000" filter="url(#v)"/><use xlink:href="#w" fill="url(#x)"/><use xlink:href="#w" fill="#000" filter="url(#y)"/></g></g></svg>