<svg xmlns="http://www.w3.org/2000/svg" viewBox="0 0 64 64"><rect width="44.402" height="44.402" x="23.76" y="-21.49" opacity=".2" rx="5.8" ry="5.8" transform="rotate(45)"/><rect width="44.402" height="44.402" x="23.05" y="-22.2" fill="#4a515e" rx="5.8" ry="5.8" transform="rotate(45)"/><path d="M32 33v9.263L22.737 33 32 23.737 42 33zm0-22L10 33l22 22 10-9.864V33h12z" opacity=".2"/><path fill="#fff" d="M32 32v9.263L22.737 32 32 22.737 42 32zm0-22L10 32l22 22 10-9.864V32h12z"/><path fill="#fff" d="M32 3a5.78 5.78 0 0 0-4.102 1.703L4.703 27.898A5.78 5.78 0 0 0 3.025 32.5a5.78 5.78 0 0 1 1.678-3.602L27.898 5.703a5.79 5.79 0 0 1 8.204 0l23.195 23.195a5.78 5.78 0 0 1 1.678 3.602 5.78 5.78 0 0 0-1.678-4.602L36.102 4.703A5.78 5.78 0 0 0 32 3" opacity=".1"/></svg>