<svg xmlns="http://www.w3.org/2000/svg" xmlns:xlink="http://www.w3.org/1999/xlink" viewBox="0 0 96 96"><defs><filter id="a" width="148.1%" height="134.7%" x="-24.1%" y="-17.3%" filterUnits="objectBoundingBox"><feOffset dy="2" in="SourceAlpha" result="shadowOffsetOuter1"/><feGaussianBlur in="shadowOffsetOuter1" result="shadowBlurOuter1" stdDeviation="2"/><feComposite in="shadowBlurOuter1" in2="SourceAlpha" operator="out" result="shadowBlurOuter1"/><feColorMatrix in="shadowBlurOuter1" result="shadowMatrixOuter1" values="0 0 0 0 0 0 0 0 0 0 0 0 0 0 0 0 0 0 0.2 0"/><feMerge><feMergeNode in="shadowMatrixOuter1"/><feMergeNode in="SourceGraphic"/></feMerge></filter></defs><g fill="none" filter="url(#a)" transform="translate(21 11)"><path fill="#73a6e5" stroke="#000" d="M44.664 31.521a4 4 0 0 1-2.828 1.172c-1.819 6.925-3.963 11.988-6.716 15.259-2.735 3.25-9.725 6.567-16.059 7.417-4.478.601-8.516.035-11.742-1.768C4.254 51.887 1.91 49.059.62 45.02c-2.347-7.35-.88-16.61 3.297-26.045C7.41 11.085 12.49 4.008 16.42 1.584a13.8 13.8 0 0 1 5.397-1.936C25.6-.877 29.34.025 33.273 1.885c.59.28 1.164.57 1.776.897l1.281.697a4 4 0 0 1 1.921 2.384 4 4 0 0 1-.327 3.044 4 4 0 0 1-2.384 1.92 4 4 0 0 1-3.044-.326l-1.064-.582a35 35 0 0 0-1.58-.802c-2.609-1.234-4.934-1.823-6.934-1.545a5.8 5.8 0 0 0-2.299.821c-2.378 1.467-6.517 7.34-9.386 13.82-3.43 7.747-4.661 15.148-2.992 20.373.639 2 1.744 3.381 3.319 4.176 1.657.837 3.812 1.03 6.437.678 4.46-.598 9.6-2.972 11.003-4.64 1.552-1.844 2.968-4.957 4.19-9.294-5.986.853-12.486 2.164-13.594 3.038a4 4 0 0 1-2.946.832 4 4 0 0 1-2.672-1.495 4 4 0 0 1-.832-2.946 4 4 0 0 1 1.495-2.672c3.458-2.728 19.833-5.57 27.195-5.57 1.105 0 2.105.447 2.828 1.171a4 4 0 0 1 1.172 2.829 4 4 0 0 1-1.172 2.828Z"/><path fill="#ff8a8a" stroke="#000" d="m52.012 21.774 1.996 10.912a4 4 0 0 1-.645 2.993 4 4 0 0 1-2.573 1.66 4 4 0 0 1-2.9-.584 4 4 0 0 1-1.71-2.432l-.727-3.954c-3.97.096-7.567 1.467-10.843 4.233-3.383 2.856-6.42 7.186-9.18 13.112-2.414 5.182-2.506 9.721-.733 13.31 1.432 2.9 4.05 4.973 6.656 5.507 4.217.865 10.367-2.324 14.108-5.963a4 4 0 0 1 2.844-1.132 4 4 0 0 1 2.812 1.21 4 4 0 0 1 1.132 2.845 4 4 0 0 1-1.21 2.812c-5.483 5.333-13.932 9.576-21.294 8.065-5.01-1.028-9.695-4.687-12.22-9.8-2.86-5.788-2.788-12.843.653-20.232 3.292-7.07 7.152-12.442 11.544-16.1 4.3-3.581 9.11-5.527 14.406-5.818a3.995 3.995 0 0 1 3.272-3.66 4 4 0 0 1 2.902.583 4 4 0 0 1 1.71 2.433Z"/><path fill="#000" d="m26.718 45.861.757-2.255-2.141 1.037c-2.305 1.116-5.037 1.984-7.403 2.302q-.402.054-.77.087l-.655.06-.205.626c-.814 2.495-1.252 4.96-1.313 7.356l-.026 1.037L16 56.1a26 26 0 0 0 3.128-.234 31 31 0 0 0 4.206-.88l.653-.183.071-.675c.191-1.801.722-3.71 1.599-5.702l.226-.5q.51-1.096.835-2.064"/><path fill="#73a6e5" d="M21.886.143c3.69-.512 7.337.38 11.173 2.194.583.276 1.15.563 1.75.884l1.282.697a3.5 3.5 0 0 1-3.355 6.144l-1.069-.584-.15-.08a33 33 0 0 0-1.45-.733c-2.718-1.285-5.138-1.877-7.218-1.588a6.3 6.3 0 0 0-2.492.89c-2.42 1.493-6.66 7.443-9.582 14.044-3.49 7.885-4.707 15.415-3.01 20.727 1.39 4.351 4.873 5.926 10.299 5.198 4.6-.618 9.874-3.098 11.318-4.814 2.005-2.382 3.048 1.973 4.484-4.474.42-1.887 1.732-4.664 3.62-4.244 1.886.42 2.692-1.886 2.272 0-1.658 7.45-2.147 9.812-5.02 13.226-2.68 3.185-9.542 6.411-15.743 7.244-8.466 1.136-15.33-1.967-17.899-10.006-2.316-7.253-.84-16.388 3.279-25.69C7.817 11.4 12.805 4.4 16.682 2.01A13.3 13.3 0 0 1 21.886.143"/></g></svg>