<svg xmlns="http://www.w3.org/2000/svg" xmlns:xlink="http://www.w3.org/1999/xlink" viewBox="0 0 96 96"><defs><linearGradient id="b" x1="67.615%" x2="50%" y1="0%" y2="100%"><stop offset="0%" stop-color="#ffe000"/><stop offset="100%" stop-color="#ffbd00"/></linearGradient><linearGradient id="c" x1="80.042%" x2="50%" y1="0%" y2="100%"><stop offset="0%" stop-color="#c9c9c9"/><stop offset="100%" stop-color="#999"/></linearGradient><filter id="a" width="132.4%" height="128.6%" x="-16.2%" y="-14.3%" filterUnits="objectBoundingBox"><feOffset dy="2" in="SourceAlpha" result="shadowOffsetOuter1"/><feGaussianBlur in="shadowOffsetOuter1" result="shadowBlurOuter1" stdDeviation="2"/><feColorMatrix in="shadowBlurOuter1" result="shadowMatrixOuter1" values="0 0 0 0 0 0 0 0 0 0 0 0 0 0 0 0 0 0 0.2 0"/><feMerge><feMergeNode in="shadowMatrixOuter1"/><feMergeNode in="SourceGraphic"/></feMerge></filter></defs><g fill="none" filter="url(#a)" transform="translate(9 8)"><path fill="url(#b)" d="m46.42 47.37 4.724-8.242-13.103-7.565-4.776 8.212zm-.952 1.644c-1.58 2.7-2.37 5.56-2.365 7.911l-.02 8.809c-4.714 3.42-11.188 3.965-16.54.875-5.363-3.097-8.126-8.968-7.517-14.76l7.622-4.424c2.04-1.17 4.121-3.285 5.67-6.003zm6.62-11.535 4.724-8.242-13.039-7.528-4.776 8.211zm5.669-9.89 2.863-4.997c1.635-2.671 5.13-3.552 7.843-1.986l1.54.889c2.937-6.971.298-15.186-6.41-19.059C56.898-1.429 48.45.392 43.883 6.414l1.54.89c2.712 1.565 3.697 5.033 2.2 7.785l-2.895 4.977z"/><path fill="url(#c)" d="M62.324 23.633a3.79 3.79 0 0 1 5.189-1.382l2.464 1.423c1.819 1.05 3.29 3.608 3.286 5.714L73.2 65.596c-.003 2.094-1.469 4.673-3.273 5.734L49.875 83.123c-2.703 1.59-4.863.342-4.793-2.804l.53-24.096c.045-2.076.932-5.257 1.978-7.07ZM42.008 7.526l2.465 1.423a3.79 3.79 0 0 1 1.397 5.184l-14.734 25.52c-1.047 1.813-3.359 4.171-5.133 5.249L5.4 57.409c-2.69 1.633-4.85.386-4.825-2.75L.762 31.4c.017-2.093 1.517-4.652 3.33-5.703l31.324-18.16c1.822-1.056 4.774-1.061 6.592-.011"/></g></svg>