<svg xmlns="http://www.w3.org/2000/svg" viewBox="0 0 64 64"><circle cx="32" cy="33" r="28" opacity=".2"/><path fill="#3584e4" d="M56.249 18a28 28 0 0 1 0 28l-24.25-14Z"/><path fill="#a347ba" d="M56.249 46a28 28 0 0 1-24.25 14V32z"/><path fill="#33d17a" d="M32 4a28 28 0 0 1 24.249 14l-24.25 14Z"/><path fill="#f6d32d" d="M7.751 18A28 28 0 0 1 32 4v28Z"/><path fill="#ff7800" d="M7.751 46a28 28 0 0 1 0-28L32 32Z"/><path fill="#fff" d="M32 4A28 28 0 0 0 4 32a28 28 0 0 0 .018.492A28 28 0 0 1 32 5a28 28 0 0 1 27.975 27.492A28 28 0 0 0 60 32 28 28 0 0 0 32 4" opacity=".2"/><path fill="#ed333b" d="M32 60A28 28 0 0 1 7.75 46L32 32Z"/><path d="m45.736 16.818-17.011 17.01c-1.363 2.042-.682 4.086-2.725 6.129L28.043 42c2.044-2.043 4.806-1.34 6.131-2.724l17.011-17.01Z" opacity=".2"/><path fill="#fff" d="m45.736 15.818-17.011 17.01c-1.363 2.042-.682 4.086-2.725 6.129L28.043 41c2.044-2.043 4.806-1.34 6.131-2.724l17.011-17.01Z"/><path d="M55.74 8a4.26 4.26 0 0 0-3.028 1.269l-.002-.002-4.381 4.381-2.74-2.739c-.638-.638-1.277 0-1.277 0l-2.028 2.028s-.639.639 0 1.278l11.5 11.5c.64.64 1.279 0 1.279 0l2.028-2.027c.638-.639 0-1.278 0-1.278l-2.74-2.738 4.357-4.357.025-.025A4.26 4.26 0 0 0 60 12.26 4.26 4.26 0 0 0 55.74 8" font-weight="400" opacity=".1" overflow="visible"/><path fill="#3f3f3f" d="M55.74 7a4.26 4.26 0 0 0-3.028 1.269l-.002-.002-4.381 4.381-2.74-2.739c-.638-.638-1.277 0-1.277 0l-2.028 2.028s-.639.64 0 1.278l11.5 11.501c.64.64 1.279 0 1.279 0l2.028-2.028c.638-.639 0-1.277 0-1.277l-2.74-2.74 4.357-4.356.025-.025A4.26 4.26 0 0 0 60 11.26 4.26 4.26 0 0 0 55.74 7" font-weight="400" overflow="visible"/></svg>