<svg xmlns="http://www.w3.org/2000/svg" viewBox="0 0 64 64"><rect width="20" height="32" x="22" y="30" opacity=".2" rx="8" ry="8"/><rect width="20" height="32" x="22" y="29" fill="#4f4f4f" rx="8" ry="8"/><rect width="8" height="24" x="28" y="33" opacity=".3" rx="4" ry="4"/><path d="M40 3.68V22l-8 4-8-4V3.695A20 20 0 0 0 12 22a20 20 0 0 0 20 20 20 20 0 0 0 20-20A20 20 0 0 0 40 3.68" opacity=".2"/><path fill="#8e8e8e" d="M40 2.68V17l-8 6-8-6V2.695A20 20 0 0 0 12 21c0 11.046 8.954 20 20 20s20-8.954 20-20A20 20 0 0 0 40 2.68"/><path fill="#fff" d="M40 2.68v1A19.99 19.99 0 0 1 51.984 21.6c.006-.2.016-.399.016-.6A20 20 0 0 0 40 2.68m-16 .015A20 20 0 0 0 12 21c0 .204.01.405.016.607A19.99 19.99 0 0 1 24 3.695zM24 17v1l8 6 8-6v-1l-8 6z" opacity=".1"/></svg>