<svg xmlns="http://www.w3.org/2000/svg" xmlns:xlink="http://www.w3.org/1999/xlink" viewBox="0 0 96 96"><defs><linearGradient id="b" x1="50%" x2="50%" y1="0%" y2="100%"><stop offset="0%" stop-color="#74e183"/><stop offset="100%" stop-color="#40bf4c"/></linearGradient><linearGradient id="c" x1="50%" x2="50%" y1="0%" y2="100%"><stop offset="0%" stop-color="#ee6959"/><stop offset="100%" stop-color="#d8382d"/></linearGradient><linearGradient id="d" x1="50%" x2="50%" y1="0%" y2="100%"><stop offset="0%" stop-color="#9b9b9b"/><stop offset="100%" stop-color="#666"/></linearGradient><filter id="a" width="132%" height="132%" x="-16%" y="-16%" filterUnits="objectBoundingBox"><feOffset dy="2" in="SourceAlpha" result="shadowOffsetOuter1"/><feGaussianBlur in="shadowOffsetOuter1" result="shadowBlurOuter1" stdDeviation="2"/><feComposite in="shadowBlurOuter1" in2="SourceAlpha" operator="out" result="shadowBlurOuter1"/><feColorMatrix in="shadowBlurOuter1" result="shadowMatrixOuter1" values="0 0 0 0 0 0 0 0 0 0 0 0 0 0 0 0 0 0 0.2 0"/><feMerge><feMergeNode in="shadowMatrixOuter1"/><feMergeNode in="SourceGraphic"/></feMerge></filter></defs><g fill="none" fill-rule="evenodd" filter="url(#a)" transform="translate(10 11)"><path fill="url(#b)" d="M41 17v7h11v6H41v7h-6v-7H24v-6h11v-7zm-19 7-1 6-2.5-.5L20 24zm33 0 1.5 5.5-2.5.5-1-6zm-43.5-6.5q1.5 2 3 3.5 1.334 1.333 3.062 2.272L18 23.5l-2 5Q13 27 10.5 25q-2.334-1.866-3.36-4.169L7 20.5zm52 0 4.5 3-.14.331Q66.834 23.134 64.5 25a31 31 0 0 1-5.5 3.5l-2-5 .438-.228A13.2 13.2 0 0 0 60.5 21q1.5-1.5 3-3.5m-54-4 1 2-5 2.5-1-2.5zm56 0 5 2-1 2.5-5-2.5zM6 0l6 9H9v3H3l.147-2.903L0 9zm63 0 6 9-3.147.097L72 12h-6V9h-3z"/><path fill="url(#c)" d="M24 40h28v6H24z"/><path fill="url(#d)" d="M33.471 47.738v6.742c-2.48.884-4.235 2.664-4.235 5.52 0 4.339 2.633 7.789 8.382 7.789s8.176-2.732 8.176-7.43c0-3.065-1.502-4.921-3.793-5.841L42 60h-5V48h15v5h-3.35c1.803 2.203 2.903 4.93 2.903 7.947C51.553 68.68 45.732 74.5 38 74.5s-14-5.82-14-13.553c0-6.63 3.576-11.855 9.471-13.21"/></g></svg>