<svg xmlns="http://www.w3.org/2000/svg" xmlns:xlink="http://www.w3.org/1999/xlink" viewBox="0 0 96 96"><defs><linearGradient id="b" x1="50%" x2="50%" y1="0%" y2="100%"><stop offset="0%" stop-color="#f5f5f5"/><stop offset="100%" stop-color="#f1f1f1"/></linearGradient><linearGradient id="c" x1="50%" x2="50%" y1="0%" y2="100%"><stop offset="0%" stop-color="#dbdbdb"/><stop offset="100%" stop-color="#b4b4b4"/></linearGradient><linearGradient id="e" x1="38.331%" x2="69.039%" y1="4.634%" y2="89.54%"><stop offset="0%" stop-color="#d2d2cb"/><stop offset="100%" stop-color="#7b7d78"/></linearGradient><linearGradient id="f" x1="50%" x2="50%" y1="0%" y2="100%"><stop offset="0%" stop-color="#828181"/><stop offset="45.24%" stop-color="#b7b7b7"/><stop offset="100%" stop-color="#8a8a8a"/></linearGradient><linearGradient id="g" x1="50%" x2="50%" y1="0%" y2="100%"><stop offset="0%" stop-color="#f4f4f4"/><stop offset="100%" stop-color="#e2e2e2"/></linearGradient><linearGradient id="h" x1="50%" x2="50%" y1="0%" y2="100%"><stop offset="0%" stop-color="#b3daff" stop-opacity=".79"/><stop offset="100%" stop-color="#a0dadf" stop-opacity=".79"/></linearGradient><filter id="a" width="145.2%" height="140.2%" x="-27.4%" y="-15.9%" filterUnits="objectBoundingBox"><feOffset dy="2" in="SourceAlpha" result="shadowOffsetOuter1"/><feGaussianBlur in="shadowOffsetOuter1" result="shadowBlurOuter1" stdDeviation="2"/><feComposite in="shadowBlurOuter1" in2="SourceAlpha" operator="out" result="shadowBlurOuter1"/><feColorMatrix in="shadowBlurOuter1" result="shadowMatrixOuter1" values="0 0 0 0 0 0 0 0 0 0 0 0 0 0 0 0 0 0 0.2 0"/><feMerge><feMergeNode in="shadowMatrixOuter1"/><feMergeNode in="SourceGraphic"/></feMerge></filter><filter id="d" width="134.4%" height="135.6%" x="-17.2%" y="-17.8%" filterUnits="objectBoundingBox"><feOffset dy="2" in="SourceAlpha" result="shadowOffsetOuter1"/><feGaussianBlur in="shadowOffsetOuter1" result="shadowBlurOuter1" stdDeviation="1.5"/><feColorMatrix in="shadowBlurOuter1" result="shadowMatrixOuter1" values="0 0 0 0 0 0 0 0 0 0 0 0 0 0 0 0 0 0 0.16 0"/><feMerge><feMergeNode in="shadowMatrixOuter1"/><feMergeNode in="SourceGraphic"/></feMerge></filter></defs><g fill="none" fill-rule="evenodd" filter="url(#a)" transform="translate(10 9)"><path fill="#f5f5f5" stroke="#9e9e9e" d="M49.5 45.207 36.207 58.5H9a4.5 4.5 0 0 1-3.182-1.318A4.5 4.5 0 0 1 4.5 54V4c0-1.243.504-2.368 1.318-3.182A4.5 4.5 0 0 1 9-.5h36c1.243 0 2.368.504 3.182 1.318A4.5 4.5 0 0 1 49.5 4z"/><path fill="#f5f5f5" stroke="#9e9e9e" d="M53.5 48.207 40.207 61.5H13a4.5 4.5 0 0 1-3.182-1.318A4.5 4.5 0 0 1 8.5 57V7c0-1.243.504-2.368 1.318-3.182A4.5 4.5 0 0 1 13 2.5h36c1.243 0 2.368.504 3.182 1.318A4.5 4.5 0 0 1 53.5 7z"/><path fill="#f5f5f5" stroke="#9e9e9e" d="M56.5 51.207 43.207 64.5H16a4.5 4.5 0 0 1-3.182-1.318A4.5 4.5 0 0 1 11.5 60V10c0-1.243.504-2.368 1.318-3.182A4.5 4.5 0 0 1 16 5.5h36c1.243 0 2.368.504 3.182 1.318A4.5 4.5 0 0 1 56.5 10z"/><path fill="#757575" d="M49 41a1 1 0 0 1 1 1v1a1 1 0 0 1-1 1H21a1 1 0 0 1-1-1v-1a1 1 0 0 1 1-1zm-4-6a1 1 0 0 1 1 1v1a1 1 0 0 1-1 1H21a1 1 0 0 1-1-1v-1a1 1 0 0 1 1-1zm-4-6a1 1 0 0 1 1 1v1a1 1 0 0 1-1 1H21a1 1 0 0 1-1-1v-1a1 1 0 0 1 1-1zm6-6a1 1 0 0 1 1 1v1a1 1 0 0 1-1 1H21a1 1 0 0 1-1-1v-1a1 1 0 0 1 1-1zm2-6a1 1 0 0 1 1 1v1a1 1 0 0 1-1 1H21a1 1 0 0 1-1-1v-1a1 1 0 0 1 1-1zm-2-6a1 1 0 0 1 1 1v1a1 1 0 0 1-1 1H21a1 1 0 0 1-1-1v-1a1 1 0 0 1 1-1z" opacity=".417"/><g transform="translate(29 14)"><path fill="#d8d8d8" stroke="#7b7d78" d="M44.5 45.207 31.207 58.5H4a4.5 4.5 0 0 1-3.182-1.318A4.5 4.5 0 0 1-.5 54V4C-.5 2.757.004 1.632.818.818A4.5 4.5 0 0 1 4-.5h36c1.243 0 2.368.504 3.182 1.318A4.5 4.5 0 0 1 44.5 4z"/><path fill="url(#b)" stroke="#fff" d="M43.5 44.793 30.793 57.5H4a3.5 3.5 0 0 1-2.475-1.025A3.5 3.5 0 0 1 .5 54V4c0-.966.392-1.841 1.025-2.475A3.5 3.5 0 0 1 4 .5h36c.966 0 1.841.392 2.475 1.025A3.5 3.5 0 0 1 43.5 4z"/><path fill="url(#c)" d="M31.123 58v-8.956a4 4 0 0 1 3.98-4L44 45z"/><rect width="28" height="3" x="8" y="7" fill="#757575" rx="1"/><rect width="30" height="3" x="8" y="13" fill="#f87776" rx="1"/><rect width="28" height="3" x="8" y="19" fill="#757575" rx="1"/><rect width="22" height="3" x="8" y="25" fill="#74f574" rx="1"/><rect width="26" height="3" x="8" y="31" fill="#757575" rx="1"/><rect width="30" height="3" x="8" y="37" fill="#757575" rx="1"/></g><g filter="url(#d)" transform="matrix(-1 0 0 1 61 23)"><path fill="url(#e)" d="M22 0c12.15 0 22 9.85 22 22 0 3.83-.98 7.433-2.7 10.57l17.2 14.954a5.4 5.4 0 0 1 .6 7.54l-.414.494a5.4 5.4 0 0 1-7.684.61L33.495 40.95l-.124-.112A21.9 21.9 0 0 1 22 44C9.85 44 0 34.15 0 22S9.85 0 22 0m-.4 4.5c-9.444 0-17.1 7.656-17.1 17.1s7.656 17.1 17.1 17.1 17.1-7.656 17.1-17.1S31.044 4.5 21.6 4.5"/><rect width="31" height="9" x="30.793" y="40.065" fill="#ababab" rx="4.5" transform="rotate(41 46.293 44.565)"/><rect width="27" height="5.4" x="32.642" y="41.734" fill="url(#f)" rx="2.7" transform="rotate(41 46.142 44.434)"/><path fill="#fff" fill-opacity=".406" d="m58.494 49.536.042.07a4.502 4.502 0 0 1-6.385 5.955q.039-2.512 2.28-4.47 1.953-1.705 4.063-1.555m-17.55-15.584.327.284q-2.83-.165-4.556 1.655-1.669 1.757-1.85 4.694a4.5 4.5 0 0 1 6.078-6.633"/><path fill="url(#g)" d="M22 1c11.598 0 21 9.402 21 21s-9.402 21-21 21S1 33.598 1 22 10.402 1 22 1m0 4C12.611 5 5 12.611 5 22s7.611 17 17 17 17-7.611 17-17S31.389 5 22 5"/><circle cx="22" cy="22" r="16" fill="url(#h)" stroke="#4572ab" stroke-width="2"/><ellipse cx="22" cy="22.5" fill="#fff" fill-opacity=".356" rx="13" ry="13.5"/><path fill="#fff" fill-opacity=".356" d="M24.198 20.145C22.22 17.745 14.928 9 22.069 9 29.211 9 35 15.115 35 22.658s-8.432.362-10.802-2.513"/></g></g></svg>