<svg xmlns="http://www.w3.org/2000/svg" viewBox="0 0 22 22"><path fill="currentColor" d="m6.041 5 4.965 3.545L15.969 5zM6 9.88V17h10V9.89l-3.83 2.737a2.01 2.01 0 0 1-2.326 0z" class="ColorScheme-Text" opacity=".3"/><path fill="currentColor" d="M4.037 5a1 .999 0 0 0-1.035 1.041L3 6.07v9.937c0 .547.44 1 .992.994H5V7.94l5.426 3.873a1 .999 0 0 0 1.162 0L17 7.95V17h.98c.577 0 1.02-.446 1.02-.984V5.99l-.002-.01a1 1 0 0 0-.072-.348l-.022-.053a1 1 0 0 0-.18-.26l-.05-.05a1 1 0 0 0-.242-.162 1 1 0 0 0-.1-.041 1 1 0 0 0-.28-.057C18.035 5.01 18.02 5 18 5l-.006.01a1 1 0 0 0-.576.184l-6.412 4.58-6.412-4.58A1 .999 0 0 0 4.037 5" class="ColorScheme-Text"/></svg>