<svg xmlns="http://www.w3.org/2000/svg" xmlns:xlink="http://www.w3.org/1999/xlink" viewBox="0 0 96 96"><defs><linearGradient id="b" x1="40.314%" x2="34.497%" y1="53.644%" y2="47.805%"><stop offset="0%" stop-color="#f5f1f4"/><stop offset="100%" stop-color="#bebebe"/></linearGradient><linearGradient id="c" x1="50%" x2="50%" y1="0%" y2="100%"><stop offset="0%" stop-color="#f35cd2"/><stop offset="100%" stop-color="#e32fa6"/></linearGradient><linearGradient id="d" x1="50%" x2="50%" y1="0%" y2="100%"><stop offset="0%" stop-color="#f35cd2"/><stop offset="100%" stop-color="#e32fa6"/></linearGradient><linearGradient id="e" x1="50%" x2="50%" y1="0%" y2="100%"><stop offset="0%" stop-color="#5c5cf3"/><stop offset="100%" stop-color="#2f2fe3"/></linearGradient><filter id="a" width="138.8%" height="132.9%" x="-19.4%" y="-16.5%" filterUnits="objectBoundingBox"><feOffset dy="2" in="SourceAlpha" result="shadowOffsetOuter1"/><feGaussianBlur in="shadowOffsetOuter1" result="shadowBlurOuter1" stdDeviation="2"/><feComposite in="shadowBlurOuter1" in2="SourceAlpha" operator="out" result="shadowBlurOuter1"/><feColorMatrix in="shadowBlurOuter1" result="shadowMatrixOuter1" values="0 0 0 0 0 0 0 0 0 0 0 0 0 0 0 0 0 0 0.2 0"/><feMerge><feMergeNode in="shadowMatrixOuter1"/><feMergeNode in="SourceGraphic"/></feMerge></filter></defs><g fill="none" fill-rule="evenodd" filter="url(#a)" transform="translate(15 9)"><path fill="url(#b)" stroke="#000" d="M48.398 6.517 3.493 26.67.567 24.682a.7.7 0 0 1-.294-.448c5.454-6.212 11.795-11.115 19.2-15.315Q30.612 2.605 39.629-.44a.7.7 0 0 1 .639.1l7.983 5.88a.7.7 0 0 1 .148.978Z"/><path fill="url(#c)" stroke="#000" d="M15.336 47.424c3.407 6.078 6.26 16.142 8.54 30.2-.302.942-.687 1.099-.902 1.128l-2.68-1.518q-4.867-16.176-8.975-26.389Q7.101 40.358-.954 23.285L4.014 26.3q6.075 11.767 11.322 21.124Z"/><path fill="url(#d)" stroke="#000" d="M46.861 64.725q-7.328 4.01-22.748 13.39l-.553.335-.186-.618a593 593 0 0 0-8.557-26.169Q10.311 38.91 3.62 26.454c6.113-6.001 13.383-10.462 21.92-13.987 8.53-3.523 16.09-5.66 22.676-6.42 4.856 10.506 8.268 18.81 10.752 25.21q2.36 6.074 7.75 25.037c.105.448.03.855-.161 1.18a1.47 1.47 0 0 1-.942.69q-11.767 2.74-18.754 6.56Z"/><path fill="url(#e)" stroke="#000" d="M44.632 57.418q-5.2 2.321-15.636 9.246c-.573.242-1.005.243-1.351.128a1.4 1.4 0 0 1-.888-.865q-4.157-11.42-6.224-17.92-2.096-6.593-7.489-18.644a1.497 1.497 0 0 1 .601-1.901q8.427-5.024 13.808-7.508 5.406-2.496 15.966-6.038a1.496 1.496 0 0 1 1.84.794q4.86 10.538 7.674 17.968 2.804 7.398 5.777 18.893c.097.438.017.843-.182 1.166a1.48 1.48 0 0 1-.947.674q-7.83 1.725-12.949 4.007Z"/><path fill="#000" fill-rule="nonzero" d="m34.19 49.47-.265-.659q-1.674.603-2.396.202-.723-.402-1.245-1.695l-4.748-11.75.114-.047 12.47 12.362.698-.282.197-17.833.19-.077 5.127 12.689q.476 1.18.034 1.763-.443.585-1.58 1.088l.266.66 8.62-3.483-.267-.66q-1.338.483-2 .234-.66-.25-1.24-1.682l-4.634-11.472q-.61-1.508-.284-2.09.325-.58 1.603-1.215l-.267-.66-6.54 2.644-.229 14.07-.215.087-9.964-9.953-6.541 2.643.266.66q1.335-.422 1.977-.29.643.13 1.073 1.195l4.978 12.322q.415 1.026.179 1.719-.238.693-1.714 1.305l.266.659z"/></g></svg>