<svg xmlns="http://www.w3.org/2000/svg" viewBox="0 0 64 64"><path d="M32.168 7a26 26 0 0 0-10.137 2.01A25.92 25.92 0 0 0 8.01 42.97a25.92 25.92 0 0 0 33.959 14.022 25.92 25.92 0 0 0 14.021-33.96A25.92 25.92 0 0 0 32.168 7M32 19a14 14 0 0 1 14 14 14 14 0 0 1-14 14 14 14 0 0 1-14-14 14 14 0 0 1 14-14" opacity=".2"/><path fill="#e4e4e4" d="M32.168 6a26 26 0 0 0-10.137 2.01A25.92 25.92 0 0 0 8.01 41.97a25.92 25.92 0 0 0 33.959 14.022 25.92 25.92 0 0 0 14.021-33.96A25.92 25.92 0 0 0 32.168 6M32 18a14 14 0 0 1 14 14 14 14 0 0 1-14 14 14 14 0 0 1-14-14 14 14 0 0 1 14-14"/><path fill="#fff" d="M32.168 6a26 26 0 0 0-10.137 2.01A25.92 25.92 0 0 0 6.014 32.447 25.92 25.92 0 0 1 22.03 9.007a26 26 0 0 1 10.137-2.009A25.92 25.92 0 0 1 55.99 23.029a26 26 0 0 1 1.996 9.526c.07-3.5-.562-7.074-1.996-10.524A25.92 25.92 0 0 0 32.168 6m13.81 26.412A14 14 0 0 1 32 46a14 14 0 0 1-13.979-13.414 14 14 0 0 0-.021.412 14 14 0 0 0 14 14 14 14 0 0 0 14-14 14 14 0 0 0-.021-.586" opacity=".2"/><path d="M32.167 4a26.4 26.4 0 0 0-9.653 1.789 2.425 2.448 0 0 0-1.402 3.158l4.307 11.417a2.425 2.448 0 0 0 3.129 1.419 9.6 9.6 0 0 1 3.45-.645 9.6 9.6 0 0 1 3.44.653 2.425 2.448 0 0 0 3.135-1.414l4.315-11.433a2.425 2.448 0 0 0-1.405-3.16C38.543 4.651 35.395 4.016 32.167 4M7.062 21.953a2.448 2.425 0 0 0-2.273 1.561A26.4 26.4 0 0 0 3 33.167c.017 3.228.652 6.376 1.783 9.316a2.448 2.425 0 0 0 3.161 1.405l11.433-4.312a2.448 2.425 0 0 0 1.414-3.137 9.6 9.6 0 0 1-.653-3.442 9.6 9.6 0 0 1 .645-3.45 2.448 2.425 0 0 0-1.42-3.128L7.948 22.112a2.448 2.425 0 0 0-.885-.16m49.876 0a2.448 2.425 0 0 0-.885.159l-11.417 4.307a2.448 2.425 0 0 0-1.419 3.129 9.6 9.6 0 0 1 .645 3.45 9.6 9.6 0 0 1-.653 3.44 2.448 2.425 0 0 0 1.414 3.138l11.433 4.312a2.448 2.425 0 0 0 3.16-1.405c1.132-2.94 1.767-6.088 1.784-9.316a26.4 26.4 0 0 0-1.789-9.653 2.448 2.425 0 0 0-2.273-1.561M36.388 44.05a2.425 2.448 0 0 0-.95.16 9.6 9.6 0 0 1-3.44.652 9.6 9.6 0 0 1-3.45-.645 2.425 2.448 0 0 0-3.129 1.42l-4.307 11.416a2.425 2.448 0 0 0 1.402 3.158A26.4 26.4 0 0 0 32.167 62c3.228-.017 6.376-.652 9.316-1.783a2.425 2.448 0 0 0 1.405-3.161l-4.315-11.433a2.425 2.448 0 0 0-2.185-1.573" opacity=".2"/><path fill="#e74c3c" d="M32.167 3a26.4 26.4 0 0 0-9.653 1.789 2.425 2.448 0 0 0-1.402 3.158l4.307 11.417a2.425 2.448 0 0 0 3.129 1.419 9.6 9.6 0 0 1 3.45-.645 9.6 9.6 0 0 1 3.44.653 2.425 2.448 0 0 0 3.135-1.414l4.315-11.433a2.425 2.448 0 0 0-1.405-3.16C38.543 3.651 35.395 3.016 32.167 3M7.062 20.953a2.448 2.425 0 0 0-2.273 1.561A26.4 26.4 0 0 0 3 32.167c.017 3.228.652 6.376 1.783 9.316a2.448 2.425 0 0 0 3.161 1.405l11.433-4.312a2.448 2.425 0 0 0 1.414-3.137 9.6 9.6 0 0 1-.653-3.442 9.6 9.6 0 0 1 .645-3.45 2.448 2.425 0 0 0-1.42-3.128L7.948 21.112a2.448 2.425 0 0 0-.885-.16m49.876 0a2.448 2.425 0 0 0-.885.159l-11.417 4.307a2.448 2.425 0 0 0-1.419 3.129 9.6 9.6 0 0 1 .645 3.45 9.6 9.6 0 0 1-.653 3.44 2.448 2.425 0 0 0 1.414 3.138l11.433 4.312a2.448 2.425 0 0 0 3.16-1.405c1.132-2.94 1.767-6.088 1.784-9.316a26.4 26.4 0 0 0-1.789-9.653 2.448 2.425 0 0 0-2.273-1.561M36.388 43.05a2.425 2.448 0 0 0-.95.16 9.6 9.6 0 0 1-3.44.652 9.6 9.6 0 0 1-3.45-.645 2.425 2.448 0 0 0-3.129 1.42l-4.307 11.416a2.425 2.448 0 0 0 1.402 3.158A26.4 26.4 0 0 0 32.167 61c3.228-.017 6.376-.652 9.316-1.783a2.425 2.448 0 0 0 1.405-3.161l-4.315-11.433a2.425 2.448 0 0 0-2.185-1.573"/></svg>