<svg xmlns="http://www.w3.org/2000/svg" viewBox="0 0 16.933 16.933"><rect width="15.875" height="12.171" x=".529" y="2.381" fill="none" stroke="#262a2f" stroke-opacity=".784" stroke-width=".529" paint-order="markers stroke fill" ry=".265"/><rect width="15.875" height="12.171" x=".529" y="2.381" fill="#636a78" paint-order="markers stroke fill" ry=".265"/><path fill="#4a4f59" d="M.794 2.381a.264.264 0 0 0-.265.265v.793h15.875v-.793a.264.264 0 0 0-.264-.265z" paint-order="stroke markers fill"/><rect width="1.058" height=".529" x="1.587" y="2.645" opacity=".35" paint-order="stroke markers fill" ry=".265"/><rect width="2.646" height=".529" x="7.144" y="2.645" opacity=".35" paint-order="stroke markers fill" ry=".265"/><rect width=".529" height=".529" x="15.081" y="2.645" fill="#fff" opacity=".8" paint-order="stroke markers fill" ry=".265"/><rect width=".794" height=".529" x="14.023" y="2.645" opacity=".35" paint-order="stroke markers fill" ry=".265"/><rect width=".529" height=".529" x="13.229" y="2.645" opacity=".35" paint-order="stroke markers fill" ry=".265"/><path fill="#fff" d="M3.97 13.493a.53.53 0 0 0-.53.53v.529h10.054v-.53a.53.53 0 0 0-.53-.529z" opacity=".15" paint-order="stroke markers fill"/><g fill="#999ea7" paint-order="stroke markers fill"><rect width="1.323" height="1.323" x="4.498" y="12.7" ry=".132"/><rect width="1.323" height="1.323" x="6.703" y="12.7" ry=".132"/><rect width="1.323" height="1.323" x="8.908" y="12.7" ry=".132"/><rect width="1.323" height="1.323" x="11.113" y="12.7" ry=".132"/></g></svg>