<svg xmlns="http://www.w3.org/2000/svg" xmlns:xlink="http://www.w3.org/1999/xlink" viewBox="0 0 48 48"><defs><linearGradient id="a" x1="90.7%" x2="35.327%" y1="6.565%" y2="64.144%"><stop offset="0%" stop-color="#93def2"/><stop offset="100%" stop-color="#5abadf"/></linearGradient></defs><g fill="none" fill-rule="evenodd"><path fill="#fff" d="m31.794 22.402.888-1.8-1 13.078.014.093.016.001-.037.003v.006l-13.071.887.049-.03.006.015.007-.022 8.077-4.796.769.246-.156-.61 1.093-.65.506-.667 2.633-5.336.664-.043zm-.1 11.37-.017-.015-.001.014zM29.86 17.107l-3.01 1.664-1.9-1.686zM15 31.146l1.261-2.3-1.02-2.74z"/><path fill="#5abadf" d="m15.173 26.02 1.026 2.91 4.46-1 5.091-4.73 1.437-4.564-2.262-1.598-3.847 1.44c-1.212 1.127-3.563 3.357-3.648 3.4s-1.553 2.818-2.257 4.143"/><path fill="#fff" d="M18.777 20.79c2.626-2.604 6.012-4.143 7.311-2.832s-.078 4.497-2.705 7.1c-2.626 2.604-5.97 4.227-7.268 2.916-1.3-1.31.035-4.58 2.662-7.184"/><path fill="#fff" d="m27.165 18.614 5.06 4.139-6.466.432 1.74 6.89c2.046-2.152 3.882-4.465 4.782-7.326h-.006c.34-1.043.547-2.306.267-3.38h.004c-.29-1.225-1.177-2.016-2.69-2.263l-.01.005-.009-.001-2.693 1.487.002.002-.018.01zm-8.826 15.293.324.758c-1.065-.03-3.567-.082-3.663-3.55l1.19-2.177.001-.014q.003-.003.008 0l.003-.007.005.011c.178.147 1.359 3.057 2.132 4.98m2.36-6.009-2.04 6.754c1.781-.167 3.343-.717 4.76-1.504l.005.009c1.475-.8 2.658-1.76 3.734-2.793q.16-.145.316-.293L20.7 27.895h-.003z"/><path fill="#5abadf" d="M5 7.998A3 3 0 0 1 7.998 5H31.02L43 17.02v22.974A3.01 3.01 0 0 1 40.002 43H7.998A3.004 3.004 0 0 1 5 40.002z"/><path fill="url(#a)" d="m31 5 12 12V7.997A2.997 2.997 0 0 0 40.003 5z" transform="matrix(-1 0 0 -1 74 22)"/><path fill="#fff" d="M20 31.5c0 .552.453 1 .997 1h6.006c.55 0 .997-.444.997-1 0-.552-.453-1-.997-1h-6.006a.996.996 0 0 0-.997 1m.863-2.489c.075.27.365.489.628.489h5.018c.271 0 .553-.22.628-.489l1.726-6.13c.075-.27.013-.683-.132-.913l-4.462-7.044c-.149-.234-.393-.229-.538 0l-4.462 7.044a1.3 1.3 0 0 0-.132.913z"/><circle cx="23.988" cy="22.033" r="1.542" fill="#5abadf" transform="matrix(1 0 0 -1 0 44.066)"/><path fill="#5abadf" d="M24.5 22.5V14h-1v8.5z"/></g></svg>