<svg xmlns="http://www.w3.org/2000/svg" xmlns:xlink="http://www.w3.org/1999/xlink" viewBox="0 0 128 128"><defs><linearGradient id="d" x1="50%" x2="50%" y1="0%" y2="99.794%"><stop offset="0%" stop-color="#9ba6c1"/><stop offset="100%" stop-color="#778eb2"/></linearGradient><linearGradient id="g" x1="50%" x2="7.994%" y1="50%" y2="88.893%"><stop offset="0%" stop-color="#fff" stop-opacity=".1"/><stop offset="100%" stop-color="#fff" stop-opacity=".3"/></linearGradient><filter id="b" width="125%" height="120.2%" x="-12.5%" y="-8.3%" filterUnits="objectBoundingBox"><feOffset dy="2" in="SourceAlpha" result="shadowOffsetOuter1"/><feGaussianBlur in="shadowOffsetOuter1" result="shadowBlurOuter1" stdDeviation="3.5"/><feColorMatrix in="shadowBlurOuter1" values="0 0 0 0 0.474509804 0 0 0 0 0.558835447 0 0 0 0 0.701960784 0 0 0 0.5 0"/></filter><filter id="f" width="124.6%" height="124.6%" x="-12.3%" y="-8.8%" filterUnits="objectBoundingBox"><feOffset dy="1" in="SourceAlpha" result="shadowOffsetOuter1"/><feGaussianBlur in="shadowOffsetOuter1" result="shadowBlurOuter1" stdDeviation="1"/><feComposite in="shadowBlurOuter1" in2="SourceAlpha" operator="out" result="shadowBlurOuter1"/><feColorMatrix in="shadowBlurOuter1" values="0 0 0 0 0 0 0 0 0 0 0 0 0 0 0 0 0 0 0.05 0"/></filter><path id="a" d="M92 105a9 9 0 0 1-9 9H9a9 9 0 0 1-9-9V9a9 9 0 0 1 9-9h54.5L92 28.5z"/><path id="e" d="M63.5 0 92 28.5H72.5a9 9 0 0 1-9-9z"/></defs><g fill="none" fill-rule="evenodd"><g transform="translate(18 7)"><use xlink:href="#a" fill="#000" filter="url(#b)"/><use xlink:href="#a" fill="url(#d)"/></g><g transform="translate(18 7)"><use xlink:href="#e" fill="#000" filter="url(#f)"/><use xlink:href="#e" fill="url(#g)"/></g><path fill="#fff" d="M64 43q-1.21.003-2.414.127-1.145.115-2.255.337l-.098.014c-.696.141-1.376.325-2.049.525l-.286.075q-1.138.352-2.226.811a24 24 0 0 0-5.925 3.6 24 24 0 0 0-3.188 3.178l-.084.099a24 24 0 0 0-1.083 1.448c-.122.173-.248.34-.365.516a24 24 0 0 0-.746 1.219c-.166.284-.337.565-.492.857a24 24 0 0 0-.548 1.13c-.161.346-.32.691-.464 1.045q-.215.544-.404 1.097c-.136.388-.272.775-.389 1.172q-.148.522-.271 1.05c-.103.418-.206.835-.286 1.261q-.108.605-.183 1.214c-.051.377-.103.753-.136 1.135A24 24 0 0 0 40 67q.003 1.21.127 2.414a23.84 23.84 0 0 0 4.087 11.133l.061.089q.258.37.53.731l.004-.023C49.192 87.19 56.153 91 64 91c4.507 0 8.715-1.272 12.323-3.445l.005.005.146-.099a24 24 0 0 0 2.039-1.392q.71-.543 1.378-1.134.27-.243.534-.493.556-.524 1.078-1.082.311-.33.61-.67c.327-.378.638-.766.942-1.163q.25-.322.487-.652c.32-.447.617-.908.905-1.378q.18-.285.352-.577c.285-.495.546-1.006.796-1.523q.148-.296.286-.595a23 23 0 0 0 .614-1.524q.14-.366.268-.736a24 24 0 0 0 .44-1.514q.105-.384.197-.773c.109-.483.193-.974.272-1.467q.082-.487.145-.975c.05-.423.076-.851.103-1.28q.065-.765.08-1.533-.002-1.213-.122-2.395l-.005-.019a24 24 0 0 0-.337-2.255c-.007-.032-.008-.066-.014-.098a24 24 0 0 0-.525-2.049c-.027-.09-.043-.186-.07-.276l-.01-.033a24 24 0 0 0-1.819-4.303 24 24 0 0 0-2.587-3.825 24 24 0 0 0-3.179-3.188l-.08-.07-.018-.014a24 24 0 0 0-1.448-1.083c-.173-.122-.34-.248-.516-.366a24 24 0 0 0-1.219-.745c-.284-.166-.565-.337-.857-.492a24 24 0 0 0-1.13-.548 24 24 0 0 0-1.045-.465 24 24 0 0 0-1.097-.403 24 24 0 0 0-1.172-.389q-.522-.148-1.05-.271c-.418-.103-.835-.206-1.26-.286a24 24 0 0 0-1.215-.183c-.377-.051-.752-.103-1.134-.136A24 24 0 0 0 64 43m-3.647 3.464 3.242 7.613 5.548-4.711v13.162L82 73l-3.952 2.628-10.982-.113 6.15 8.341A19.16 19.16 0 0 1 64 86.2c-8 0-14.827-4.853-17.719-11.784 1.514-5.848 3.775-11.494 7.013-14.644 1.381-5.084 4.077-9.292 7.06-13.308M64.172 64.6l.001 2.044L68.8 67c-.595-1.439-1.89-2.102-4.628-2.4"/></g></svg>