<svg xmlns="http://www.w3.org/2000/svg" xmlns:xlink="http://www.w3.org/1999/xlink" viewBox="0 0 48 48"><defs><linearGradient id="a" x1="90.7%" x2="35.327%" y1="6.565%" y2="64.144%"><stop offset="0%" stop-color="#93def2"/><stop offset="100%" stop-color="#5abadf"/></linearGradient></defs><g fill="none" fill-rule="evenodd"><path fill="#5abadf" d="M5 7.998A3 3 0 0 1 8.008 5h22.994L43 17.01v22.983A3.01 3.01 0 0 1 40.002 43H7.998A3.004 3.004 0 0 1 5 40.002z"/><path fill="#fff" d="M12 10h2.667L16 11l-1.333 1H12zm6 2h-2.667L14 13l1.333 1H18zm0 4h-2.667L14 17l1.333 1H18zm-6-2h2.667L16 15l-1.333 1H12zm6 6h-2.667L14 21l1.333 1H18zm-6-2h2.667L16 19l-1.333 1H12zm6 6h-2.667L14 25l1.333 1H18zm-6-2h2.667L16 23l-1.333 1H12zm6 6h-2.667L14 29l1.333 1H18zm-6-2h2.667L16 27l-1.333 1H12zm3 11c3 0 1-2.62 1-4s0-2-1-2-1 .62-1 2-2 4 1 4m0-.635a1 1 0 1 0 0-2 1 1 0 0 0 0 2"/><path fill="url(#a)" d="m30.959 5.013 12 12V8.01a2.997 2.997 0 0 0-2.997-2.997z" transform="matrix(-1 0 0 -1 73.917 22.025)"/></g></svg>