<svg xmlns="http://www.w3.org/2000/svg" viewBox="0 0 64 64"><rect width="56" height="56" x="4" y="5" opacity=".2" rx="4.2" ry="4.2"/><rect width="56" height="56" x="4" y="4" fill="#e4e4e4" rx="4.2" ry="4.2"/><path d="M14.834 13A2.83 2.83 0 0 0 12 15.834v11.332A2.83 2.83 0 0 0 14.834 30h11.332A2.83 2.83 0 0 0 29 27.166V15.834A2.83 2.83 0 0 0 26.166 13Zm23 0A2.83 2.83 0 0 0 35 15.834v11.332A2.83 2.83 0 0 0 37.834 30h11.332A2.83 2.83 0 0 0 52 27.166V15.834A2.83 2.83 0 0 0 49.166 13Zm-23 23A2.83 2.83 0 0 0 12 38.834v11.332A2.83 2.83 0 0 0 14.834 53h11.332A2.83 2.83 0 0 0 29 50.166V38.834A2.83 2.83 0 0 0 26.166 36ZM43.5 36c-1.385 0-2.5 1.275-2.5 2.857V44h-4.785a1.214 1.125 0 0 0-.86 1.92l7.286 6.75a1.214 1.125 0 0 0 1.718 0l7.286-6.75a1.214 1.125 0 0 0-.86-1.92H46v-5.143C46 37.275 44.885 36 43.5 36" opacity=".1"/><rect width="17" height="17" x="12" y="12" fill="#03a9f4" rx="2.833" ry="2.833"/><rect width="17" height="17" x="35" y="12" fill="#ff9107" rx="2.833" ry="2.833"/><rect width="17" height="17" x="12" y="35" fill="#f44336" rx="2.833" ry="2.833"/><path fill="#4caf50" d="M43.5 35c1.385 0 2.5 1.274 2.5 2.857v8.286C46 47.726 44.885 49 43.5 49S41 47.726 41 46.143v-8.286C41 36.274 42.115 35 43.5 35"/><path fill="#4caf50" d="M36.214 43a1.214 1.125 0 0 0-.859 1.92l7.286 6.75a1.214 1.125 0 0 0 1.718 0l7.286-6.75a1.214 1.125 0 0 0-.859-1.92Z"/><path fill="#fff" d="M8.2 4A4.19 4.19 0 0 0 4 8.2v1A4.19 4.19 0 0 1 8.2 5h47.6A4.19 4.19 0 0 1 60 9.2v-1A4.19 4.19 0 0 0 55.8 4z" opacity=".2"/></svg>