<svg xmlns="http://www.w3.org/2000/svg" xmlns:xlink="http://www.w3.org/1999/xlink" viewBox="0 0 48 48"><defs><linearGradient id="a" x1="90.7%" x2="35.327%" y1="6.565%" y2="64.144%"><stop offset="0%" stop-color="#93def2"/><stop offset="100%" stop-color="#5abadf"/></linearGradient></defs><g fill="none" fill-rule="evenodd"><path fill="#5abadf" d="M5 7.998A3 3 0 0 1 7.998 5H31.02L43 17.02v22.974A3.01 3.01 0 0 1 40.002 43H7.998A3.004 3.004 0 0 1 5 40.002z"/><path fill="url(#a)" d="m31 5 12 12V7.997A2.997 2.997 0 0 0 40.003 5z" transform="matrix(-1 0 0 -1 74 22)"/><path fill="#fff" d="M13 18.896c0-.552.447-1.032.999-1.073L25 17a.91.91 0 0 1 .999.92v12.158c0 .55-.447.962-.999.92l-11-.821a1.096 1.096 0 0 1-1-1.073z"/><path fill="#5abadf" d="m20.47 26.872-1.157-4.292-1.172 4.292q-.137.49-.218.7a.93.93 0 0 1-.28.382q-.2.168-.533.168a.9.9 0 0 1-.442-.1.77.77 0 0 1-.28-.283 1.8 1.8 0 0 1-.176-.435 24 24 0 0 1-.122-.466l-1.192-4.82a2.8 2.8 0 0 1-.107-.64q0-.277.195-.468a.67.67 0 0 1 .484-.19q.394 0 .532.254.136.254.24.737l.937 4.18 1.05-3.912q.117-.449.21-.683a1 1 0 0 1 .302-.405q.21-.171.572-.171.366 0 .568.178a1 1 0 0 1 .281.388q.078.21.21.693l1.06 3.912.937-4.18a5 5 0 0 1 .13-.513.8.8 0 0 1 .21-.332q.148-.146.432-.146.283 0 .48.188a.62.62 0 0 1 .198.47q0 .201-.107.64l-1.191 4.82a9 9 0 0 1-.203.715.95.95 0 0 1-.274.398q-.192.171-.544.171-.332 0-.532-.166a.9.9 0 0 1-.279-.373 10 10 0 0 1-.22-.71"/><path fill="#fff" d="M32 19.002 24.998 19C25 19 25 28.998 25 28.998l7.002.002C32 29 32 19.002 32 19.002m-8 0A1 1 0 0 1 24.998 18h7.004c.551 0 .998.456.998 1.002v9.996A1 1 0 0 1 32.002 30h-7.004c-.551 0-.998-.456-.998-1.002z"/><path fill="#fff" d="M26 21.5h5a.5.5 0 1 0 0-1h-5a.5.5 0 1 0 0 1m0 3h5a.5.5 0 1 0 0-1h-5a.5.5 0 1 0 0 1m0 3h5a.5.5 0 1 0 0-1h-5a.5.5 0 1 0 0 1"/></g></svg>