<svg xmlns="http://www.w3.org/2000/svg" viewBox="0 0 64 64"><g transform="translate(-22.518 -24.518)scale(1.7037)"><path fill="#b3b3b3" stroke="#8f8f8f" stroke-linecap="round" stroke-width="1.174" d="m32 36.695-4.696 3.522c0 4.109-.587 4.109-3.522 5.87v1.174h16.435v-1.174c-2.935-1.761-3.522-1.761-3.522-5.87z" paint-order="stroke fill markers"/><path fill="#b3b3b3" d="m32 36.696-4.696 3.522c0 4.108-.587 4.108-3.521 5.87l8.217.586 8.217-.587c-2.934-1.76-3.521-1.76-3.521-5.87z"/><path fill="#ccc" d="M23.783 46.087v1.174h16.435v-1.174z"/><rect width="30.522" height="21.13" x="16.739" y="19.087" fill="#303030" stroke="#1a1a1a" stroke-linecap="round" stroke-width="1.174" paint-order="stroke fill markers" ry="1.174"/><path fill="#6a60cb" d="M19.087 21.435h25.826V37.87H19.087z"/><circle cx="32" cy="33.174" r="2.348" fill="#f9f9f9"/><path fill="#f9f9f9" d="M32 23.783c-3.354.001-6.543 1.79-8.217 4.696l2.123 1.176c1.256-2.178 3.58-3.525 6.094-3.524s4.836 1.348 6.092 3.526l2.125-1.178c-1.675-2.906-4.863-4.697-8.217-4.696m0 3.522a5.86 5.86 0 0 0-5.076 2.94l2.029 1.17a3.517 3.517 0 0 1 6.094.001l2.032-1.174A5.86 5.86 0 0 0 32 27.305"/></g></svg>