<svg xmlns="http://www.w3.org/2000/svg" viewBox="0 0 64 64"><rect width="58" height="58" x="3" y="4" opacity=".2" rx="17.4" ry="17.4"/><rect width="58" height="58" x="3" y="3" fill="#e4e4e4" rx="17.4" ry="17.4"/><path fill="#3084e9" d="M22 15a7 7 0 1 0 0 14h20V15Z"/><path fill="#aeaeae" d="M22 35v14h20a7 7 0 0 0 0-14z"/><path d="M22 15a7 7 0 0 0-7 7q.006.219.025.438A7 7 0 0 1 22 16h20v-1zm0 20v1h20a7 7 0 0 1 6.975 6.492A7 7 0 0 0 49 42a7 7 0 0 0-7-7Z" opacity=".1"/><path d="M42 16a7 7 0 0 0-7 7 7 7 0 0 0 7 7 7 7 0 0 0 7-7 7 7 0 0 0-7-7M22 36a7 7 0 0 0-7 7 7 7 0 0 0 7 7 7 7 0 0 0 7-7 7 7 0 0 0-7-7" opacity=".2"/><circle cx="42" cy="22" r="7" fill="#fff"/><circle cx="22" cy="42" r="7" fill="#fff"/><path fill="#fff" d="M20.398 3A17.36 17.36 0 0 0 3 20.398v1A17.36 17.36 0 0 1 20.398 4h23.204A17.36 17.36 0 0 1 61 21.398v-1A17.36 17.36 0 0 0 43.602 3z" opacity=".2"/></svg>