<svg xmlns="http://www.w3.org/2000/svg" xmlns:xlink="http://www.w3.org/1999/xlink" viewBox="0 0 128 128"><defs><linearGradient id="d" x1="50%" x2="50%" y1="0%" y2="97.95%"><stop offset="0%" stop-color="#ba58ff"/><stop offset="100%" stop-color="#7e21ff"/></linearGradient><linearGradient id="g" x1="50%" x2="7.994%" y1="50%" y2="88.893%"><stop offset="0%" stop-color="#fff" stop-opacity=".1"/><stop offset="100%" stop-color="#fff" stop-opacity=".3"/></linearGradient><filter id="c" width="125%" height="120.2%" x="-12.5%" y="-8.3%" filterUnits="objectBoundingBox"><feOffset dy="2" in="SourceAlpha" result="shadowOffsetOuter1"/><feGaussianBlur in="shadowOffsetOuter1" result="shadowBlurOuter1" stdDeviation="3.5"/><feColorMatrix in="shadowBlurOuter1" values="0 0 0 0 0.497310222 0 0 0 0 0 0 0 0 0 0.911005435 0 0 0 0.5 0"/></filter><filter id="f" width="124.6%" height="124.6%" x="-12.3%" y="-8.8%" filterUnits="objectBoundingBox"><feOffset dy="1" in="SourceAlpha" result="shadowOffsetOuter1"/><feGaussianBlur in="shadowOffsetOuter1" result="shadowBlurOuter1" stdDeviation="1"/><feComposite in="shadowBlurOuter1" in2="SourceAlpha" operator="out" result="shadowBlurOuter1"/><feColorMatrix in="shadowBlurOuter1" values="0 0 0 0 0 0 0 0 0 0 0 0 0 0 0 0 0 0 0.05 0"/></filter><path id="a" d="M92 105a9 9 0 0 1-9 9H9a9 9 0 0 1-9-9V9a9 9 0 0 1 9-9h54.5L92 28.5z"/><path id="e" d="M63.5 0 92 28.5H72.5a9 9 0 0 1-9-9z"/></defs><g fill="none" fill-rule="evenodd"><g transform="translate(18 7)"><use xlink:href="#a" fill="#000" filter="url(#c)"/><use xlink:href="#a" fill="url(#d)"/></g><g transform="translate(18 7)"><use xlink:href="#e" fill="#000" filter="url(#f)"/><use xlink:href="#e" fill="url(#g)"/></g><path fill="#fff" d="M49.5 88s1.395-1.621 2.605-3.374c3.468-5.019 4.762-10.359 4.222-15.844-.425-4.321-1.957-8.506-4.24-12.433a39 39 0 0 0-2.98-4.401C49.106 52 81 52 81 52a1 1 0 0 0 0-2H47c-.879 0-1.33 1.052-.725 1.689q.086.09.334.372c.277.318.588.693.924 1.121a37 37 0 0 1 2.825 4.173c2.15 3.696 3.585 7.617 3.979 11.623.494 5.025-.685 9.891-3.877 14.511a29 29 0 0 1-2.529 3.146A1 1 0 0 0 47 86h-6a1 1 0 0 0-1 1v6a1 1 0 0 0 1 1h6a1 1 0 0 0 1-1v-3h28.1a5.002 5.002 0 0 0 9.9-1 5 5 0 0 0-9.9-1zM81 86a3 3 0 1 1 0 6 3 3 0 0 1 0-6m-35 2v4h-4v-4z"/></g></svg>