<svg xmlns="http://www.w3.org/2000/svg" viewBox="0 0 16 16"><path fill="currentColor" d="M8.023.803a1 1 0 0 0-.962.66L5.43 5.969H2a1 1 0 0 0-.598 1.8L4.3 9.935l-1.045 4.011a1 1 0 0 0 1.543 1.07l3.205-2.253 3.205 2.252a1 1 0 0 0 1.543-1.07l-1.047-4.012 2.895-2.16A1 1 0 0 0 14 5.969h-3.43L8.941 1.463a1 1 0 0 0-.918-.66m-.023 1 1.764 4.87a.433.46 0 0 0 .404.296H14l-3.186 2.379a.433.46 0 0 0-.168.5l1.135 4.347-3.54-2.488a.433.46 0 0 0-.48 0l-3.538 2.49 1.13-4.347a.433.46 0 0 0-.165-.5L2 6.969h3.832a.433.46 0 0 0 .406-.295z" class="ColorScheme-Text"/><path fill="currentColor" d="m8 1.803-1.762 4.87a.433.46 0 0 1-.405.296H2l3.187 2.38a.433.46 0 0 1 .167.5l-1.132 4.349 3.54-2.49a.433.46 0 0 1 .478 0l3.542 2.488-1.135-4.348a.433.46 0 0 1 .167-.5L14 6.969h-3.833a.433.46 0 0 1-.403-.295z" class="ColorScheme-Text" opacity=".25"/></svg>