<svg xmlns="http://www.w3.org/2000/svg" xmlns:xlink="http://www.w3.org/1999/xlink" viewBox="0 0 48 48"><defs><linearGradient id="a" x1="90.7%" x2="35.327%" y1="6.565%" y2="64.144%"><stop offset="0%" stop-color="#93def2"/><stop offset="100%" stop-color="#5abadf"/></linearGradient></defs><g fill="none" fill-rule="evenodd"><path fill="#5abadf" d="M5 7.998A3 3 0 0 1 8.008 5h22.994L43 17.01v22.983A3.01 3.01 0 0 1 40.002 43H7.998A3.004 3.004 0 0 1 5 40.002z"/><path fill="#fff" d="M22 29.997c0-.55.45-.997 1.007-.997h11.986c.556 0 1.007.453 1.007.997v6.006c0 .55-.45.997-1.007.997H23.007A1.006 1.006 0 0 1 22 36.003zm3.365.122h2.927q.42 0 .61.132t.19.435q0 .185-.223.488a33 33 0 0 1-.505.67 7 7 0 0 0-.584.912 7.4 7.4 0 0 0-.701 1.907q-.045.228-.097.593-.053.366-.092.558-.093.45-.262.622a.6.6 0 0 1-.45.174.54.54 0 0 1-.43-.187q-.165-.186-.164-.551 0-.282.12-.765.117-.483.386-1.158a11.2 11.2 0 0 1 1.626-2.797h-2.351q-.369 0-.552-.134-.182-.135-.182-.42 0-.303.193-.391.195-.088.54-.088m7.826 2.988-2.197 2.457h2.351q.285 0 .43.134.147.134.146.345a.42.42 0 0 1-.143.33q-.143.127-.433.127h-3.252q-.342 0-.512-.15a.52.52 0 0 1-.169-.408q0-.154.119-.31.118-.156.492-.573l.718-.796q.324-.355.6-.666.277-.309.46-.525.182-.215.292-.369h-1.784q-.37 0-.559-.066-.188-.066-.188-.347 0-.207.142-.33.143-.123.407-.123h2.755q.382 0 .587.112.204.113.204.403a.7.7 0 0 1-.127.37 2 2 0 0 1-.132.16q-.084.094-.207.225M12 10h2.667L16 11l-1.333 1H12zm6 2h-2.667L14 13l1.333 1H18zm0 4h-2.667L14 17l1.333 1H18zm-6-2h2.667L16 15l-1.333 1H12zm6 6h-2.667L14 21l1.333 1H18zm-6-2h2.667L16 19l-1.333 1H12zm6 6h-2.667L14 25l1.333 1H18zm-6-2h2.667L16 23l-1.333 1H12zm6 6h-2.667L14 29l1.333 1H18zm-6-2h2.667L16 27l-1.333 1H12zm3 11c3 0 1-2.62 1-4s0-2-1-2-1 .62-1 2-2 4 1 4m0-.635a1 1 0 1 0 0-2 1 1 0 0 0 0 2"/><path fill="url(#a)" d="m30.959 5.013 12 12V8.01a2.997 2.997 0 0 0-2.997-2.997z" transform="matrix(-1 0 0 -1 73.917 22.025)"/></g></svg>