<svg xmlns="http://www.w3.org/2000/svg" xmlns:xlink="http://www.w3.org/1999/xlink" viewBox="0 0 256 256"><defs><linearGradient id="d" x1="50%" x2="50%" y1="0%" y2="100%"><stop offset="0%" stop-color="#ac92ff"/><stop offset="100%" stop-color="#804ee2"/></linearGradient><linearGradient id="g" x1="50%" x2="7.994%" y1="50%" y2="88.893%"><stop offset="0%" stop-color="#fff" stop-opacity=".1"/><stop offset="100%" stop-color="#fff" stop-opacity=".3"/></linearGradient><filter id="c" width="125%" height="120.2%" x="-12.5%" y="-8.3%" filterUnits="objectBoundingBox"><feOffset dy="4" in="SourceAlpha" result="shadowOffsetOuter1"/><feGaussianBlur in="shadowOffsetOuter1" result="shadowBlurOuter1" stdDeviation="7"/><feColorMatrix in="shadowBlurOuter1" values="0 0 0 0 0.538881273 0 0 0 0 0.186318598 0 0 0 0 1 0 0 0 0.5 0"/></filter><filter id="f" width="124.6%" height="124.6%" x="-12.3%" y="-8.8%" filterUnits="objectBoundingBox"><feOffset dy="2" in="SourceAlpha" result="shadowOffsetOuter1"/><feGaussianBlur in="shadowOffsetOuter1" result="shadowBlurOuter1" stdDeviation="2"/><feComposite in="shadowBlurOuter1" in2="SourceAlpha" operator="out" result="shadowBlurOuter1"/><feColorMatrix in="shadowBlurOuter1" values="0 0 0 0 0 0 0 0 0 0 0 0 0 0 0 0 0 0 0.05 0"/></filter><path id="a" d="M184 210c0 9.941-8.059 18-18 18H18c-9.941 0-18-8.059-18-18V18C0 8.059 8.059 0 18 0h109l57 57z"/><path id="e" d="m127 0 57 57h-39c-9.941 0-18-8.059-18-18z"/></defs><g fill="none" fill-rule="evenodd"><g transform="translate(36 14)"><use xlink:href="#a" fill="#000" filter="url(#c)"/><use xlink:href="#a" fill="url(#d)"/></g><g transform="translate(36 14)"><use xlink:href="#e" fill="#000" filter="url(#f)"/><use xlink:href="#e" fill="url(#g)"/></g><path fill="#fff8f8" fill-opacity=".5" d="M104 115v24H36v-24zm116 0v24h-68v-24zm-80 0v24h-24v-6h20v-12h-20v-6z"/><path fill="#f4f4f4" d="M144 107a4 4 0 0 1 4 4v32a4 4 0 0 1-4 4h-32a4 4 0 0 1-4-4v-32a4 4 0 0 1 4-4zm-32 36h32v-32h-32v14h18v4h-18z"/><path fill="#fff" d="M99.98 172c5.543 0 10.02 4.455 10.02 10 0 5.528-4.477 10-10.02 10H96l14.615 14.615L126 172h4l16 36h-4.6l-3.8-8h-19.2l-3.8 8H106l-16-16c-.083 0-.114 1.563-.117 3.71v1.004c.001.806.006 1.665.012 2.537l.006.749c.033 4 .099 8 .099 8h-4v-36zm60 0c5.543 0 10.02 4.455 10.02 10 0 5.528-4.477 10-10.02 10H156l16 16h-6l-16-16c-.083 0-.114 1.563-.117 3.71v1.004c.001.806.006 1.665.012 2.537l.006.749c.033 4 .099 8 .099 8h-4v-36zm-31.885 4L120 196h16zm-28.115 0H90q-.681 0 0 12h9.98a6 6 0 0 0 6.02-6c0-3.332-2.682-6-6.02-6m60 0H150q-.681 0 0 12h9.98a6 6 0 0 0 6.02-6c0-3.332-2.682-6-6.02-6"/></g></svg>