<svg xmlns="http://www.w3.org/2000/svg" xmlns:xlink="http://www.w3.org/1999/xlink" viewBox="0 0 48 48"><defs><linearGradient id="a" x1="90.7%" x2="35.327%" y1="6.565%" y2="64.144%"><stop offset="0%" stop-color="#93def2"/><stop offset="100%" stop-color="#5abadf"/></linearGradient></defs><g fill="none" fill-rule="evenodd"><path fill="#5abadf" d="M5 7.998A3 3 0 0 1 7.998 5H31.02L43 17.02v22.974A3.01 3.01 0 0 1 40.002 43H7.998A3.004 3.004 0 0 1 5 40.002z"/><path fill="url(#a)" d="m31 5 12 12V7.997A2.997 2.997 0 0 0 40.003 5z" transform="matrix(-1 0 0 -1 74 22)"/><path fill="#fff" d="M14 31h19V20H14zm-1-11.001c0-.552.439-.999.999-.999H33c.552 0 .999.447.999.999V31a.993.993 0 0 1-.999.999H14a1 1 0 0 1-.999-.999z"/><path fill="#fff" d="M31.5 23a.5.5 0 1 0 0-1h-11a.5.5 0 1 0 0 1zm0 3a.5.5 0 1 0 0-1h-11a.5.5 0 1 0 0 1zm0 3a.5.5 0 1 0 0-1h-11a.5.5 0 1 0 0 1zM14 19h4v12h-4z"/></g></svg>