<svg xmlns="http://www.w3.org/2000/svg" viewBox="0 0 64 64"><path d="M15.2 5h33.6C51.12 5 53 6.892 53 9.226v47.548C53 59.108 51.12 61 48.8 61H15.2c-2.32 0-4.2-1.892-4.2-4.226V9.226C11 6.892 12.88 5 15.2 5m0 0" opacity=".2"/><path fill="#e4e4e4" d="M15.2 4h33.6C51.12 4 53 5.892 53 8.226v47.548C53 58.108 51.12 60 48.8 60H15.2c-2.32 0-4.2-1.892-4.2-4.226V8.226C11 5.892 12.88 4 15.2 4m0 0"/><path d="M21 25a4 4 0 0 0-4 4 4 4 0 0 0 4 4 4 4 0 0 0 4-4 4 4 0 0 0-4-4m11 0a4 4 0 0 0-4 4 4 4 0 0 0 4 4 4 4 0 0 0 4-4 4 4 0 0 0-4-4m11 0a4 4 0 0 0-4 4 4 4 0 0 0 4 4 4 4 0 0 0 4-4 4 4 0 0 0-4-4M21 36a4 4 0 0 0-4 4 4 4 0 0 0 4 4 4 4 0 0 0 4-4 4 4 0 0 0-4-4m11 0a4 4 0 0 0-4 4 4 4 0 0 0 4 4 4 4 0 0 0 4-4 4 4 0 0 0-4-4m11 0c-2.21 0-4 1.654-4 3.695v11.61C39 53.345 40.79 55 43 55s4-1.654 4-3.695v-11.61C47 37.655 45.21 36 43 36M21 47a4 4 0 0 0-4 4 4 4 0 0 0 4 4 4 4 0 0 0 4-4 4 4 0 0 0-4-4m11 0a4 4 0 0 0-4 4 4 4 0 0 0 4 4 4 4 0 0 0 4-4 4 4 0 0 0-4-4" opacity=".1"/><path fill="#3faf7f" d="M18.999 18H45a2 2 0 0 0 2-2v-4c0-1.105-.894-2-1.999-2H19a2 2 0 0 0-2 2v4c0 1.105.894 2 1.999 2m0 0"/><circle cx="32" cy="50" r="4" fill="#4f4f4f"/><path fill="#ff7800" d="M43 35c2.21 0 4 1.653 4 3.694v11.612C47 52.346 45.21 54 43 54s-4-1.653-4-3.694V38.694C39 36.654 40.79 35 43 35m0 0"/><path fill="#fff" d="M15.2 4C12.88 4 11 5.893 11 8.227v1C11 6.893 12.88 5 15.2 5h33.6C51.12 5 53 6.893 53 9.227v-1C53 5.893 51.12 4 48.8 4z" opacity=".2"/><path d="M18.998 10A2 2 0 0 0 17 12v1c0-1.105.893-2 1.998-2h26.004c1.105 0 1.998.895 1.998 2v-1c0-1.105-.893-2-1.998-2z" opacity=".2"/><circle cx="21" cy="28" r="4" fill="#858585"/><circle cx="32" cy="28" r="4" fill="#858585"/><circle cx="43" cy="28" r="4" fill="#858585"/><circle cx="21" cy="39" r="4" fill="#4f4f4f"/><circle cx="32" cy="39" r="4" fill="#4f4f4f"/><circle cx="21" cy="50" r="4" fill="#4f4f4f"/></svg>