<svg xmlns="http://www.w3.org/2000/svg" xmlns:xlink="http://www.w3.org/1999/xlink" viewBox="0 0 128 128"><defs><linearGradient id="d" x1="50%" x2="50%" y1="0%" y2="99.794%"><stop offset="0%" stop-color="#9ba6c1"/><stop offset="100%" stop-color="#778eb2"/></linearGradient><linearGradient id="g" x1="50%" x2="7.994%" y1="50%" y2="88.893%"><stop offset="0%" stop-color="#fff" stop-opacity=".1"/><stop offset="100%" stop-color="#fff" stop-opacity=".3"/></linearGradient><filter id="c" width="125%" height="120.2%" x="-12.5%" y="-8.3%" filterUnits="objectBoundingBox"><feOffset dy="2" in="SourceAlpha" result="shadowOffsetOuter1"/><feGaussianBlur in="shadowOffsetOuter1" result="shadowBlurOuter1" stdDeviation="3.5"/><feColorMatrix in="shadowBlurOuter1" values="0 0 0 0 0.474509804 0 0 0 0 0.558835447 0 0 0 0 0.701960784 0 0 0 0.5 0"/></filter><filter id="f" width="124.6%" height="124.6%" x="-12.3%" y="-8.8%" filterUnits="objectBoundingBox"><feOffset dy="1" in="SourceAlpha" result="shadowOffsetOuter1"/><feGaussianBlur in="shadowOffsetOuter1" result="shadowBlurOuter1" stdDeviation="1"/><feComposite in="shadowBlurOuter1" in2="SourceAlpha" operator="out" result="shadowBlurOuter1"/><feColorMatrix in="shadowBlurOuter1" values="0 0 0 0 0 0 0 0 0 0 0 0 0 0 0 0 0 0 0.05 0"/></filter><path id="a" d="M92 105a9 9 0 0 1-9 9H9a9 9 0 0 1-9-9V9a9 9 0 0 1 9-9h54.5L92 28.5z"/><path id="e" d="M63.5 0 92 28.5H72.5a9 9 0 0 1-9-9z"/></defs><g fill="none" fill-rule="evenodd"><g transform="translate(18 7)"><use xlink:href="#a" fill="#000" filter="url(#c)"/><use xlink:href="#a" fill="url(#d)"/></g><g transform="translate(18 7)"><use xlink:href="#e" fill="#000" filter="url(#f)"/><use xlink:href="#e" fill="url(#g)"/></g><path fill="#fff" d="M60.538 38C48.986 38 40 47.833 40 59.396 40 70.958 48.115 79.6 59.667 79.6c14.563-.954 17.457-22.136 4.755-19.652-.153.503 3.562 1.955 3.827 4.594.52 5.186-3.534 8.31-8.598 7.326-3.7-.72-8.17-3.884-9.037-7.035-.802-2.914-.403-6.412.449-8.735 4.02-10.964 18.218-13.868 23.223-13.73-3.915-2.982-8.221-4.362-13.748-4.368m7.795 10.4c-14.563.954-17.457 22.136-4.755 19.652.153-.503-3.562-1.955-3.827-4.594-.52-5.186 3.534-8.31 8.598-7.326 3.7.72 8.17 3.884 9.037 7.035.802 2.914.403 6.412-.448 8.735-4.021 10.964-18.22 13.868-23.224 13.73 3.915 2.982 8.221 4.362 13.748 4.368C79.014 90 88 80.167 88 68.604 88 57.042 79.885 48.4 68.333 48.4"/></g></svg>