<svg xmlns="http://www.w3.org/2000/svg" xmlns:xlink="http://www.w3.org/1999/xlink" viewBox="0 0 48 48"><defs><linearGradient id="a" x1="90.7%" x2="35.327%" y1="6.565%" y2="64.144%"><stop offset="0%" stop-color="#93def2"/><stop offset="100%" stop-color="#5abadf"/></linearGradient></defs><g fill="none" fill-rule="evenodd"><path fill="#5abadf" d="M5 7.998A3 3 0 0 1 8.008 5H31l12 12v22.992A3.01 3.01 0 0 1 40.002 43H7.998A3.004 3.004 0 0 1 5 40.002z"/><path fill="url(#a)" d="m31 5 12 12V7.997A2.997 2.997 0 0 0 40.003 5z" transform="matrix(-1 0 0 -1 74 22)"/><path fill="#fff" d="M32.876 26.496q-.095.566-.258 1.107-.614.156-1.29.304a29 29 0 0 1-3.48.553c-1.483.132-2.728.08-3.642-.181-2.686-.768-3.492-2.635-2.543-4.428a2.9 2.9 0 0 1 .975-1.085 3.3 3.3 0 0 1 1.403-.517.75.75 0 1 0-.082-1.498c-.567.031-1.357.236-2.153.766-.6.4-1.103.941-1.469 1.632-1.396 2.639-.143 5.544 3.457 6.572 1.122.32 2.537.38 4.187.233a30 30 0 0 0 3.918-.637 9 9 0 0 1-.737 1.134q-.523.134-1.142.258c-1.619.324-3.253.489-4.762.411-1.334-.068-2.491-.325-3.423-.79-3.27-1.636-4.166-5.965-2.25-8.361q.433-.539.923-.946a5.6 5.6 0 0 1 2.108-1.12c.418-.116.731-.153.884-.153a.75.75 0 1 0 0-1.5c-1.029 0-2.497.408-3.952 1.62a8 8 0 0 0-1.134 1.161c-2.508 3.135-1.382 8.573 2.75 10.64 1.137.568 2.492.87 4.017.947 1.278.066 2.618-.026 3.962-.231A9 9 0 1 1 33 24.943c-.591.118-1.225.236-1.878.346-.783.133-1.542.245-2.257.332-2.353.284-4.074.214-4.241-.037-.244-.366-.204-.473.122-.669.166-.1.341-.164.436-.187a.75.75 0 0 0-.364-1.456 3.2 3.2 0 0 0-.844.357c-.994.596-1.374 1.623-.598 2.787.663.995 2.54 1.072 5.669.694.74-.09 1.523-.205 2.327-.342.517-.087 1.022-.18 1.504-.272"/></g></svg>