<svg xmlns="http://www.w3.org/2000/svg" viewBox="0 0 64 64"><path d="M9.564 5h44.872A2.554 2.554 0 0 1 57 7.56v45.13c0 1.419-1.144 2.31-2.564 2.31h-29.38L19.5 62l-5.556-7h-4.38C8.144 55 7 54.11 7 52.69V7.559A2.554 2.554 0 0 1 9.564 5" opacity=".2"/><path fill="#e4e4e4" d="M9.564 4h44.872A2.554 2.554 0 0 1 57 6.559v45.13C57 53.108 55.856 54 54.436 54h-29.38L19.5 61l-5.556-7h-4.38C8.144 54 7 53.108 7 51.688V6.558A2.554 2.554 0 0 1 9.564 4"/><path d="M14.098 13c-.595 0-1.098.503-1.098 1.097v3.805c0 .594.503 1.098 1.098 1.098h3.804c.595 0 1.098-.504 1.098-1.098v-3.805c0-.594-.503-1.097-1.098-1.097ZM28 13a3 3 0 1 0 0 6h20a3 3 0 1 0 0-6zM14.098 41c-.595 0-1.098.503-1.098 1.097v3.805c0 .594.503 1.098 1.098 1.098h3.804c.595 0 1.098-.504 1.098-1.098v-3.805c0-.594-.503-1.097-1.098-1.097ZM28 41a3 3 0 1 0 0 6h20a3 3 0 1 0 0-6z" opacity=".1"/><path fill="#00c7c5" d="M7 22h50v14H7z"/><path d="M14.098 27c-.595 0-1.098.503-1.098 1.097v3.805c0 .594.503 1.098 1.098 1.098h3.804c.595 0 1.098-.504 1.098-1.098v-3.805c0-.594-.503-1.097-1.098-1.097ZM28 27a3 3 0 1 0 0 6h20a3 3 0 1 0 0-6z" opacity=".2"/><path fill="#fff" d="M14.096 26C13.5 26 13 26.504 13 27.099v3.805A1.11 1.11 0 0 0 14.096 32h3.808A1.11 1.11 0 0 0 19 30.904V27.1c0-.595-.501-1.099-1.096-1.099z"/><path fill="#898989" d="M14.096 12C13.5 12 13 12.504 13 13.099v3.805A1.11 1.11 0 0 0 14.096 18h3.808A1.11 1.11 0 0 0 19 16.904V13.1c0-.595-.501-1.099-1.096-1.099Z"/><path fill="#fff" stroke="#fff" stroke-linecap="round" stroke-width="6" d="M28 29h20"/><path fill="none" stroke="#898989" stroke-linecap="round" stroke-width="6" d="M28 15h20"/><path fill="#898989" d="M14.096 40C13.5 40 13 40.504 13 41.099v3.805A1.11 1.11 0 0 0 14.096 46h3.808A1.11 1.11 0 0 0 19 44.904V41.1c0-.595-.501-1.099-1.096-1.099Z"/><path fill="none" stroke="#898989" stroke-linecap="round" stroke-width="6" d="M28 43h20"/><path fill="#fff" d="M9.563 4A2.553 2.553 0 0 0 7 6.559v1A2.553 2.553 0 0 1 9.563 5h44.875A2.553 2.553 0 0 1 57 7.559v-1A2.553 2.553 0 0 0 54.438 4z" opacity=".2"/></svg>