<svg xmlns="http://www.w3.org/2000/svg" xmlns:xlink="http://www.w3.org/1999/xlink" viewBox="0 0 48 48"><defs><linearGradient id="a" x1="90.7%" x2="35.327%" y1="6.565%" y2="64.144%"><stop offset="0%" stop-color="#93def2"/><stop offset="100%" stop-color="#5abadf"/></linearGradient></defs><g fill="none" fill-rule="evenodd"><path fill="#5abadf" d="M5 7.998A3 3 0 0 1 8.008 5h22.994L43 17.01v22.983A3.01 3.01 0 0 1 40.002 43H7.998A3.004 3.004 0 0 1 5 40.002z"/><path fill="url(#a)" d="m30.959 5.013 12 12V8.01a2.997 2.997 0 0 0-2.997-2.997z" transform="matrix(-1 0 0 -1 73.917 22.025)"/><path fill="#fff" d="M15.975 31H13.35q-.57 0-.812-.255t-.243-.811v-6.457q0-.57.249-.818.25-.249.806-.249h2.783q.615 0 1.066.076.451.077.809.293a2.12 2.12 0 0 1 .896 1.075q.123.337.123.712 0 1.29-1.289 1.887 1.694.54 1.694 2.098 0 .72-.37 1.298a2.2 2.2 0 0 1-.996.852q-.392.165-.902.232t-1.19.067m-.13-3.814h-1.81v2.507h1.87q1.763 0 1.763-1.271 0-.65-.457-.943-.457-.294-1.365-.293m-1.81-3.47v2.221h1.594q.65 0 1.005-.123a.96.96 0 0 0 .542-.468q.146-.246.146-.551 0-.651-.463-.864-.462-.214-1.412-.214zm9.803 5.99-1.377-5.474v5.93q0 .492-.22.738a.74.74 0 0 1-.583.246.74.74 0 0 1-.574-.243q-.222-.243-.223-.74v-6.798q0-.562.293-.759.294-.195.791-.196h.54q.486 0 .705.088a.6.6 0 0 1 .326.316q.105.228.24.745l1.248 4.705 1.248-4.705q.135-.516.24-.745a.6.6 0 0 1 .325-.316q.22-.088.706-.088h.54q.498 0 .79.196.294.196.293.76v6.796q0 .492-.22.738a.75.75 0 0 1-.588.246.73.73 0 0 1-.568-.246q-.223-.246-.223-.738v-5.93l-1.377 5.473q-.135.534-.22.782a1.1 1.1 0 0 1-.313.454q-.23.205-.633.205a.95.95 0 0 1-.516-.131.95.95 0 0 1-.328-.337 2 2 0 0 1-.184-.454zm10.43-2.052h-1.594v2.432q0 .521-.246.791a.8.8 0 0 1-.621.27.81.81 0 0 1-.633-.267q-.24-.267-.24-.782v-6.621q0-.575.263-.82.264-.247.838-.247h2.233q.99 0 1.523.152.527.147.911.487t.583.832q.2.492.2 1.107 0 1.312-.81 1.99-.808.675-2.407.676m-.422-3.937h-1.172v2.625h1.172q.615 0 1.028-.13.412-.128.63-.421.216-.293.217-.768 0-.568-.334-.925-.375-.381-1.541-.381"/></g></svg>