<svg xmlns="http://www.w3.org/2000/svg" xmlns:xlink="http://www.w3.org/1999/xlink" viewBox="0 0 48 48"><defs><linearGradient id="a" x1="90.7%" x2="35.327%" y1="6.565%" y2="64.144%"><stop offset="0%" stop-color="#93def2"/><stop offset="100%" stop-color="#5abadf"/></linearGradient></defs><g fill="none" fill-rule="evenodd"><path fill="#5abadf" d="M5 7.998A3 3 0 0 1 8.008 5h22.994L43 17.01v22.983A3.01 3.01 0 0 1 40.002 43H7.998A3.004 3.004 0 0 1 5 40.002z"/><path fill="url(#a)" d="m30.959 5.013 12 12V8.01a2.997 2.997 0 0 0-2.997-2.997z" transform="matrix(-1 0 0 -1 73.917 22.025)"/><path fill="#fff" d="M23.241 30.31c0 .21.163.38.383.38h.752a.385.385 0 0 0 .383-.38.375.375 0 0 0-.383-.379h-.752a.385.385 0 0 0-.383.38m.38-.379h.758v-3.414h-.758zm-.38-10.241c0-.21.163-.38.383-.38h.752c.211 0 .383.176.383.38 0 .21-.163.379-.383.379h-.752a.385.385 0 0 1-.383-.38m.38.379h.758v3.414h-.758zm-4.931 5.69a.375.375 0 0 1-.38-.383v-.752c0-.211.176-.383.38-.383.21 0 .379.163.379.383v.752a.385.385 0 0 1-.38.383m.379-.38v-.758h3.414v.758zm10.241.38c.21 0 .38-.163.38-.383v-.752a.385.385 0 0 0-.38-.383.375.375 0 0 0-.379.383v.752c0 .211.176.383.38.383m-.379-.38v-.758h-3.414v.758zm-9.215-3.589a.375.375 0 0 1 .003-.54l.531-.531a.385.385 0 0 1 .54-.003.375.375 0 0 1-.003.54l-.532.53a.385.385 0 0 1-.539.003m.537 0 .536-.537 2.414 2.414-.536.536zm6.973 7.51a.375.375 0 0 0 .54-.003l.53-.532a.385.385 0 0 0 .003-.539.375.375 0 0 0-.539.003l-.531.531a.385.385 0 0 0-.003.54m0-.537.537-.537-2.414-2.413-.536.536zM28.3 21.79a.375.375 0 0 0-.003-.54l-.532-.531a.385.385 0 0 0-.539-.003.375.375 0 0 0 .003.54l.531.53c.15.15.396.147.54.003m-.537 0-.537-.537-2.413 2.414.536.536zm-6.974 7.51a.375.375 0 0 1-.539-.003l-.531-.532a.385.385 0 0 1-.003-.539.375.375 0 0 1 .54.003l.53.531c.15.15.147.396.003.54m0-.537-.536-.537 2.414-2.413.536.536z"/><circle cx="24" cy="25" r="1.897" fill="#fff"/><path fill="#fff" d="M24 17.793a7.207 7.207 0 1 1 0 14.414 7.207 7.207 0 0 1 0-14.414m0 1.897a5.31 5.31 0 1 1 0 10.62 5.31 5.31 0 0 1 0-10.62"/><path fill="#fff" d="M24.516 32.937a.374.374 0 0 0 .268-.363.385.385 0 0 0-.383-.38h-.752c-.22 0-.383.17-.383.38 0 .165.113.311.268.361-.177.604-.48 1.8-.268 2.294a.822.822 0 0 0 1.518 0c.21-.492-.091-1.688-.268-2.292M23.508 17.05a.374.374 0 0 0-.267.363c0 .203.172.38.383.38h.752c.22 0 .383-.17.383-.38a.385.385 0 0 0-.268-.361c.177-.604.48-1.8.268-2.294a.822.822 0 0 0-1.518 0c-.21.492.09 1.688.267 2.292m-4.755 13.917a.374.374 0 0 0 .445-.068.385.385 0 0 0-.003-.539l-.531-.531a.375.375 0 0 0-.539-.003.385.385 0 0 0-.066.445c-.552.302-1.612.934-1.812 1.433a.822.822 0 0 0 1.073 1.072c.498-.199 1.13-1.257 1.433-1.81m10.52-11.946a.374.374 0 0 0-.446.068.385.385 0 0 0 .003.539l.531.531c.156.156.39.15.539.003.116-.117.14-.3.066-.445.552-.302 1.612-.934 1.811-1.433a.822.822 0 0 0-1.072-1.073c-.498.2-1.13 1.258-1.433 1.81m-13.197 6.492a.374.374 0 0 0 .363.267c.203 0 .38-.172.38-.383v-.752c0-.22-.17-.383-.38-.383a.385.385 0 0 0-.361.268c-.604-.177-1.8-.48-2.294-.268a.822.822 0 0 0 0 1.518c.492.21 1.688-.09 2.292-.267m15.886-1.008a.374.374 0 0 0-.363-.268.385.385 0 0 0-.38.383v.752c0 .22.17.383.38.383a.385.385 0 0 0 .361-.268c.604.177 1.8.48 2.294.268a.822.822 0 0 0 0-1.518c-.493-.21-1.688.091-2.292.268m-2.02 5.792a.374.374 0 0 0-.067-.445.385.385 0 0 0-.54.002l-.53.532a.375.375 0 0 0-.003.539c.116.116.3.14.444.066.302.552.935 1.612 1.433 1.811a.822.822 0 0 0 1.073-1.073c-.199-.497-1.257-1.13-1.81-1.432m-11.945-10.52a.374.374 0 0 0 .068.446.384.384 0 0 0 .538-.003l.532-.531a.375.375 0 0 0 .002-.54.385.385 0 0 0-.444-.066c-.302-.551-.934-1.611-1.433-1.81a.822.822 0 0 0-1.073 1.072c.199.498 1.258 1.13 1.81 1.432"/><circle cx="24" cy="25" r="1.138" fill="#5abadf"/></g></svg>