<svg xmlns="http://www.w3.org/2000/svg" xmlns:xlink="http://www.w3.org/1999/xlink" viewBox="0 0 48 48"><defs><linearGradient id="a" x1="90.7%" x2="35.327%" y1="6.565%" y2="64.144%"><stop offset="0%" stop-color="#93def2"/><stop offset="100%" stop-color="#5abadf"/></linearGradient></defs><g fill="none" fill-rule="evenodd"><path fill="#5abadf" d="M5 7.998A3 3 0 0 1 7.998 5H31.02L43 17.02v22.974A3.01 3.01 0 0 1 40.002 43H7.998A3.004 3.004 0 0 1 5 40.002z"/><path fill="url(#a)" d="m31 5 12 12V7.997A2.997 2.997 0 0 0 40.003 5z" transform="matrix(-1 0 0 -1 74 22)"/><path fill="#fff" d="m29.604 17.988.531 9.581c-.878-.219-1.96-.033-2.877.124-1.725.296-2.93 1.605-2.69 2.924.238 1.318 1.83 2.148 3.556 1.852 1.7-.292 3.97-.681 3.62-2.98l-.695-12.53a.75.75 0 0 0-.245-.515 1 1 0 0 0-.67-.401L19.34 14.526a1 1 0 0 0-.452.04.75.75 0 0 0-.779.808l.784 9.994c-.87-.202-1.932-.02-2.834.135-1.725.296-2.93 1.605-2.69 2.923.238 1.319 1.83 2.148 3.556 1.852 1.686-.289 3.933-.674 3.628-2.922l-.843-10.759zM19.6 33.632c-.66 0-1.176.21-1.548.642-.36.408-.534.936-.534 1.59 0 .648.174 1.176.534 1.584.372.42.888.636 1.548.636q.981 0 1.548-.63.54-.602.54-1.59 0-.992-.54-1.596-.567-.638-1.548-.636m0 .618c.444 0 .786.138 1.026.426q.352.432.354 1.188-.002.754-.354 1.176-.36.424-1.026.426c-.444 0-.792-.15-1.032-.444q-.35-.43-.348-1.158c0-.492.114-.876.348-1.164q.367-.45 1.032-.45m4.608-.618c-.636 0-1.14.216-1.512.66q-.53.621-.528 1.584-.002.956.528 1.56.566.648 1.59.648a3.5 3.5 0 0 0 1.038-.144c.294-.096.552-.228.78-.408V35.72h-1.836v.6h1.134v.882c-.144.084-.294.15-.462.198q-.27.072-.576.072-.783 0-1.152-.432-.342-.407-.342-1.164c0-.528.126-.93.384-1.218.234-.276.552-.408.954-.408q.488-.002.786.204a1 1 0 0 1 .384.618h.708c-.078-.48-.27-.834-.576-1.074q-.476-.368-1.302-.366m4.536 0c-.636 0-1.14.216-1.512.66q-.53.621-.528 1.584-.002.956.528 1.56.565.648 1.59.648a3.5 3.5 0 0 0 1.038-.144c.294-.096.552-.228.78-.408V35.72h-1.836v.6h1.134v.882c-.144.084-.294.15-.462.198q-.27.072-.576.072-.783 0-1.152-.432-.342-.407-.342-1.164c0-.528.126-.93.384-1.218.234-.276.552-.408.954-.408q.488-.002.786.204a1 1 0 0 1 .384.618h.708c-.078-.48-.27-.834-.576-1.074q-.475-.368-1.302-.366"/></g></svg>