<svg xmlns="http://www.w3.org/2000/svg" xmlns:xlink="http://www.w3.org/1999/xlink" viewBox="0 0 128 128"><defs><linearGradient id="d" x1="50%" x2="50%" y1="0%" y2="100%"><stop offset="0%" stop-color="#d3b88d"/><stop offset="12.908%" stop-color="#b2956b"/><stop offset="13.678%" stop-color="#d5bb91"/><stop offset="100%" stop-color="#c09b68"/></linearGradient><linearGradient id="g" x1="50%" x2="50%" y1="0%" y2="100%"><stop offset="0%" stop-color="#eae2cd" stop-opacity=".74"/><stop offset="41.851%" stop-color="#d9c392"/><stop offset="44.375%" stop-color="#f8e6bb" stop-opacity=".925"/><stop offset="46.826%" stop-color="#ead8a7" stop-opacity=".829"/><stop offset="100%" stop-color="#fcdca0" stop-opacity=".596"/></linearGradient><filter id="a" width="129.1%" height="129.1%" x="-14.5%" y="-14.5%" filterUnits="objectBoundingBox"><feOffset dy="2" in="SourceAlpha" result="shadowOffsetOuter1"/><feGaussianBlur in="shadowOffsetOuter1" result="shadowBlurOuter1" stdDeviation="3"/><feColorMatrix in="shadowBlurOuter1" result="shadowMatrixOuter1" values="0 0 0 0 0 0 0 0 0 0 0 0 0 0 0 0 0 0 0.2 0"/><feMerge><feMergeNode in="shadowMatrixOuter1"/><feMergeNode in="SourceGraphic"/></feMerge></filter><filter id="f" width="103.2%" height="105%" x="-1.6%" y="-1.5%" filterUnits="objectBoundingBox"><feOffset dy="1" in="SourceAlpha" result="shadowOffsetOuter1"/><feColorMatrix in="shadowOffsetOuter1" values="0 0 0 0 0 0 0 0 0 0 0 0 0 0 0 0 0 0 0.08 0"/></filter><path id="b" d="M.445 13.634 3.309 7.31A12.44 12.44 0 0 1 14.639 0H95.36c4.885 0 9.317 2.859 11.331 7.309l2.864 6.325a5 5 0 0 1 .445 2.062V100c0 5.523-4.477 10-10 10H10c-5.523 0-10-4.477-10-10V15.696a5 5 0 0 1 .445-2.062"/><path id="e" d="M40.5 0 39 15v18.293a.25.25 0 0 0 .444.157l3.61-4.47a1.5 1.5 0 0 1 2.356.028l3.453 4.49a.5.5 0 0 0 .786.009l3.655-4.527a1.5 1.5 0 0 1 2.356.028l3.453 4.49a.5.5 0 0 0 .786.009l3.684-4.562a1.5 1.5 0 0 1 2.334 0l3.629 4.493a.25.25 0 0 0 .444-.16L69.75 15 68.5 0z"/></defs><g fill="none" fill-rule="evenodd" filter="url(#a)" transform="translate(9 9)"><use xlink:href="#b" fill="url(#d)"/><path fill="#714736" fill-rule="nonzero" d="m75.17 64.07-.549 1.155c.812-2.437.344-5.092.458-7.388l-.226-.06c-.198-5.774-5.223-11.91-9.691-13.987-3.855-1.768-9.786-2.072-12.526-.74.377-.33 1.88-.47 1.427-.726-4.291.423-3.332 1.487-6.622 2.321-.901.866 2.633-.694.732.428-1.765.484-2.586-.305-5.201 2.383.233.373 1.66-1.106.47.379-2.458-.302-7.762 5.586-8.889 7.538l.59.1c-.967 2.408-2.24 3.943-2.412 5.385-.25 3.546-1.497 10.014.233 12l-.168 1.66c.237.47.418.949.712 1.392l-.384.03c1.82 5.707 1.955.107 4.359 6.033-.35-.116-.701-.244-1.21-.925-.06.52.741 2.08 1.691 3.297l-.402.457c.53.957 1.018 1.167 1.386 1.5-1.979-1.073 1.835 3.536 2.18 4.123l.303-.539c-.045.775.558 1.775 1.688 3.158l.94-.037c.388.763 1.805 2.137 2.665 2.202l-.572.741c2.158.68 1.048.9 3.7 1.834l-.535-.94c1.353 1.166 1.77 2.186 3.68 3.08 2.647.917 2.998.554 5.714 1.326-2.302-.064-5.01-.04-6.83-.689C39.46 97.22 28.097 82.74 28.927 67.825c-.191-3.02.302-6.792-.204-7.543.71-2.299 1.533-5.1 3.188-8.433-.12-.224.272.652 1.113-.773.51-1.113.927-2.339 1.57-3.421l.33-.076c.331-1.912 4.486-4.841 5.722-6.315l.085.563c2.698-2.514 7.506-4.2 10.213-5.4-.711.783 1.592-.077 3.252-.177-.523.29-1.044.518-1.534.86 1.992-.473 1.897.193 3.932-.074-.714.103-1.582.385-1.444.492 2.275.261 2.623-.699 4.727-.002l-.133-.618c2.925 1.048 3.537.87 6.715 2.546 1.114.054 1.227-.683 2.91-.002.297.517-.067.614 2.004 1.837.23-.092-.413-.672-.92-1.135 4.16 2.21 8.682 6.922 10.062 11.963-1.294-2.365-.133 1.207-.578 1.02.576 1.543 1.047 3.138 1.34 4.784-.384-1.35-1.216-4.61-2.676-6.711-.12 1.356-1.883-.937-.919 2.05.734 1.058.148-1.074 1.054.807.015.893.358 1.781.557 2.945-.31-.05-.692-1.287-.918-.942.314 1.464.83 2.228 1.026 2.34-.1.245-.361-.229-.38.767.122 2.293.647 1.326.897 1.435-.253 1.129-1.27 2.456-.767 4.398-.144-.589-.426-1.18-.639-1.738-.197 1.658.37 1.981-.401 3.99.555-1.81.495-3.446-.028-2.659.232 2.575-2.051 4.55-1.803 6.18l-.663-.908c-1.797 2.588-.043 1.425-1.264 3.386.449-.77-.235-.317.348-1.19-.388.022-1.729 1.639-2.958 2.59-4.826 3.844-10.587 4.347-16.166 2.277-.217.177.995 1.121 1.89 1.578 2.125.78 4.528.811 6.42.742-4.09 1.7-11.894-1.725-14.447-6.268.576.125 2.555 3.194 4.037 3.691-.875-.697-1.553-1.584-2.181-2.496 1.184 1.35 2.621 2.454 4.192 3.184-.1-.379.434-.455-.308-.953-4.73-3.601-7.524-6.661-6.554-13.747.72-.541.914-3.497 2.568-4.531 1.008-2.215 4.03-4.254 7.26-4.307 3.296-.178 6.079 1.75 7.475 3.57-2.543-2.359-6.708-3.074-10.26-1.328-3.633 1.626-5.787 5.6-5.473 9.558.135-.196.255-.075.32-.562-.111 7.692 8.343 13.33 14.429 10.485l.071.16c2.469-.67 2.15-1.222 3.764-2.322-.126.258-1.087.917-.513.93.784-.208 3.234-2.474 4.441-3.54.553-1.185-.295-.64.477-2.131l.944-.467c.526-1.507 1.106-2.36 1.04-4.114"/><use xlink:href="#e" fill="#000" filter="url(#f)"/><use xlink:href="#e" fill="url(#g)"/></g></svg>