<svg xmlns="http://www.w3.org/2000/svg" xmlns:xlink="http://www.w3.org/1999/xlink" viewBox="0 0 48 48"><defs><linearGradient id="a" x1="90.7%" x2="35.327%" y1="6.565%" y2="64.144%"><stop offset="0%" stop-color="#93def2"/><stop offset="100%" stop-color="#5abadf"/></linearGradient></defs><g fill="none" fill-rule="evenodd"><path fill="#5abadf" d="M5 7.998A3 3 0 0 1 7.998 5H31.02L43 17.02v22.974A3.01 3.01 0 0 1 40.002 43H7.998A3.004 3.004 0 0 1 5 40.002z"/><path fill="url(#a)" d="m31 5 12 12V7.997A2.997 2.997 0 0 0 40.003 5z" transform="matrix(-1 0 0 -1 74 22)"/><path fill="#fff" d="M25 19.5h8a.5.5 0 1 0 0-1h-8a.5.5 0 1 0 0 1m0 4h8a.5.5 0 1 0 0-1h-8a.5.5 0 1 0 0 1m-9 4h17a.5.5 0 1 0 0-1H16a.5.5 0 1 0 0 1m0 4h17a.5.5 0 1 0 0-1H16a.5.5 0 1 0 0 1m4.169-8.31-.342-.899h-2.91l-.342.918q-.2.537-.342.725t-.463.188a.68.68 0 0 1-.484-.2.6.6 0 0 1-.21-.454q0-.147.049-.303t.161-.435l1.831-4.648.188-.48q.11-.282.235-.467a.95.95 0 0 1 .327-.3q.203-.115.5-.115.303 0 .506.114a1 1 0 0 1 .327.296q.124.18.21.388.086.207.217.554l1.87 4.62q.22.527.22.766 0 .249-.208.457a.68.68 0 0 1-.5.207.6.6 0 0 1-.498-.227 1.5 1.5 0 0 1-.178-.322 19 19 0 0 1-.164-.384m-2.871-1.988h2.139l-1.08-2.954z"/></g></svg>