<svg xmlns="http://www.w3.org/2000/svg" xmlns:xlink="http://www.w3.org/1999/xlink" viewBox="0 0 48 48"><defs><linearGradient id="a" x1="90.7%" x2="35.327%" y1="6.565%" y2="64.144%"><stop offset="0%" stop-color="#93def2"/><stop offset="100%" stop-color="#5abadf"/></linearGradient></defs><g fill="none" fill-rule="evenodd"><path fill="#5abadf" d="M5 7.998A3 3 0 0 1 8.008 5H31l12 12v22.992A3.01 3.01 0 0 1 40.002 43H7.998A3.004 3.004 0 0 1 5 40.002z"/><path fill="url(#a)" d="m31 5 12 12V7.997A2.997 2.997 0 0 0 40.003 5z" transform="matrix(-1 0 0 -1 74 22)"/><path fill="#fff" d="M18.106 15.4h10.469l.378 3.544h-.616a6.4 6.4 0 0 0-1.1-1.794q-.713-.84-1.302-.963a4.6 4.6 0 0 0-.686-.071 21 21 0 0 0-.862-.018H20.57l5.103 6.726v.239l-5.798 6.955h7.012q.465 0 .862-.23.396-.221.695-.574.316-.372.563-.831.246-.46.405-.848l.589.185-1.038 3.88H18v-.433l6.123-7.415-6.017-7.954zm-2.612 18.498 1.068 1.452L15.356 37h.804l.78-1.146.774 1.146h.804l-1.206-1.65 1.068-1.452h-.798l-.642.948-.648-.948zm4.59.036v1.23h-1.236v.564h1.236v1.236h.564v-1.236h1.23v-.564h-1.23v-1.23zm2.124-.036 1.23 3.03-.546 1.26h.732l1.68-4.29h-.744l-.786 2.208-.822-2.208zm3.426.648v.564h3.03v-.564zm0 1.242v.564h3.03v-.564zm3.54-1.89v.558h1.656l-1.716 2.082V37h2.736v-.558h-1.836l1.74-2.106v-.438z"/></g></svg>