<svg xmlns="http://www.w3.org/2000/svg" xmlns:xlink="http://www.w3.org/1999/xlink" viewBox="0 0 48 48"><defs><linearGradient id="a" x1="90.7%" x2="35.327%" y1="6.565%" y2="64.144%"><stop offset="0%" stop-color="#93def2"/><stop offset="100%" stop-color="#5abadf"/></linearGradient></defs><g fill="none" fill-rule="evenodd"><path fill="#5abadf" d="M5 7.998A3 3 0 0 1 8.008 5h22.994L43 17.01v22.983A3.01 3.01 0 0 1 40.002 43H7.998A3.004 3.004 0 0 1 5 40.002z"/><path fill="#fff" d="M12 10h2.667L16 11l-1.333 1H12zm6 2h-2.667L14 13l1.333 1H18zm0 4h-2.667L14 17l1.333 1H18zm-6-2h2.667L16 15l-1.333 1H12zm6 6h-2.667L14 21l1.333 1H18zm-6-2h2.667L16 19l-1.333 1H12zm6 6h-2.667L14 25l1.333 1H18zm-6-2h2.667L16 23l-1.333 1H12zm6 6h-2.667L14 29l1.333 1H18zm-6-2h2.667L16 27l-1.333 1H12zm3 11c3 0 1-2.62 1-4s0-2-1-2-1 .62-1 2-2 4 1 4m0-.635a1 1 0 1 0 0-2 1 1 0 0 0 0 2M30.316 24.79c2.424-2.487.631-3.789.631-3.789s.316 1.263 0 1.895c-.315.631-1.579 1.579-2.526 2.21-.947.632-1.579 2.21 1.263 4.106 0 0-.947-1.264-.947-2.211s1.554-2.185 1.579-2.21m2.842-.631s-2.21.316-3.158 1.579c-.947 1.263 0 1.895.316 2.526.316.632 0 1.58 0 1.58s1.895-1.58.631-2.527c-1.263-.948 2.21-3.158 2.21-3.158m-5.053 5.053s-2.842.315-2.842.947 3.79 1.579 7.58-.316c0 0-3.79.632-5.685.316s.947-.947.947-.947m-1.133 4.45s-2.843.316-2.843.948 9.029 1.549 10.608-.346c0 0-1.535.506-3.474.632-1.943.126-4.29-.128-5.239-.286-1.895-.316.948-.947.948-.947m.502 1.871s-1.34-.317-1.263.31c.057.47 4.426.682 7.17-.116.916-.266 1.651-.645 1.985-1.163 0 0-.83.612-2.739.973-1.913.362-3.877.347-4.838.306-1.919-.082-.315-.31-.315-.31m2.842-4.11c-1.895.315-2.154.391-2.842.315s-.316-.632-.316-.632-1.263.316-.632.948c.632.631 3.79.315 6-.316 0 0-.315-.632-2.21-.316m-.233 1.732c-1.393.232-1.583.288-2.09.232-.505-.056-.231-.464-.231-.464s-.929.232-.465.696c.465.465 2.786.233 4.411-.232 0 0-.232-.464-1.625-.232m4.338-2.996c0-.947-1.263-.632-1.263-.632s1.579-.631 2.21.316c.632.947-1.579 2.526-2.526 2.526 0 0 1.58-1.263 1.58-2.21"/><path fill="url(#a)" d="m30.959 5.013 12 12V8.01a2.997 2.997 0 0 0-2.997-2.997z" transform="matrix(-1 0 0 -1 73.917 22.025)"/></g></svg>