<svg xmlns="http://www.w3.org/2000/svg" xmlns:xlink="http://www.w3.org/1999/xlink" viewBox="0 0 48 48"><defs><linearGradient id="a" x1="90.7%" x2="35.327%" y1="6.565%" y2="64.144%"><stop offset="0%" stop-color="#93def2"/><stop offset="100%" stop-color="#5abadf"/></linearGradient></defs><g fill="none" fill-rule="evenodd"><path fill="#5abadf" d="M5 7.998A3 3 0 0 1 8.008 5h22.994L43 17.01v22.983A3.01 3.01 0 0 1 40.002 43H7.998A3.004 3.004 0 0 1 5 40.002z"/><path fill="url(#a)" d="m30.959 5.013 12 12V8.01a2.997 2.997 0 0 0-2.997-2.997z" transform="matrix(-1 0 0 -1 73.917 22.025)"/><path fill="#fff" d="M18.764 23.846h-1.899v6.24q0 .54-.24.8a.8.8 0 0 1-.621.26.82.82 0 0 1-.63-.263q-.243-.264-.243-.797v-6.24h-1.899q-.444 0-.662-.197a.67.67 0 0 1-.216-.518q0-.335.225-.527.225-.194.653-.194h5.532q.45 0 .67.2a.67.67 0 0 1 .22.52.66.66 0 0 1-.222.52q-.223.196-.668.196m1.992 6.24v-6.768q0-.527.24-.79a.8.8 0 0 1 .621-.264q.393 0 .636.26.243.261.243.794v6.768q0 .533-.243.797a.82.82 0 0 1-.636.263.8.8 0 0 1-.618-.266q-.243-.266-.243-.794m8.818-6.334h-3.428v2.197h2.866q.398 0 .594.179.197.18.197.477 0 .3-.2.475-.199.176-.591.176h-2.866v2.83q0 .54-.243.8a.82.82 0 0 1-.624.26.82.82 0 0 1-.63-.263q-.243-.264-.243-.797v-6.61q0-.375.112-.612a.7.7 0 0 1 .348-.345q.237-.11.607-.109h4.101q.417 0 .618.185a.62.62 0 0 1 .203.483.63.63 0 0 1-.203.49q-.201.183-.618.184m7.248 0h-3.427v2.197h2.865q.398 0 .594.179.197.18.197.477 0 .3-.2.475-.199.176-.591.176h-2.865v2.83q0 .54-.244.8a.82.82 0 0 1-.624.26.82.82 0 0 1-.63-.263q-.243-.264-.243-.797v-6.61q0-.375.112-.612a.7.7 0 0 1 .348-.345q.237-.11.607-.109h4.101q.417 0 .618.185a.62.62 0 0 1 .203.483.63.63 0 0 1-.203.49q-.201.183-.618.184"/></g></svg>