<svg xmlns="http://www.w3.org/2000/svg" xmlns:xlink="http://www.w3.org/1999/xlink" viewBox="0 0 48 48"><defs><linearGradient id="a" x1="90.7%" x2="35.327%" y1="6.565%" y2="64.144%"><stop offset="0%" stop-color="#93def2"/><stop offset="100%" stop-color="#5abadf"/></linearGradient></defs><g fill="none" fill-rule="evenodd"><path fill="#5abadf" d="M5 7.998A3 3 0 0 1 8.008 5h22.994L43 17.01v22.983A3.01 3.01 0 0 1 40.002 43H7.998A3.004 3.004 0 0 1 5 40.002z"/><path fill="url(#a)" d="m31 5 12 12V7.997A2.997 2.997 0 0 0 40.003 5z" transform="matrix(-1 0 0 -1 74 22)"/><path fill="#fff" d="M24.336 26.883q0 .547-.27 1.183-.27.638-.847 1.25-.579.614-1.477.997-.898.382-2.094.382A7.3 7.3 0 0 1 18 30.523a4.6 4.6 0 0 1-1.348-.535 4.6 4.6 0 0 1-1.113-.957 5.7 5.7 0 0 1-.773-1.207 6.3 6.3 0 0 1-.48-1.426 7.8 7.8 0 0 1-.161-1.609q0-1.383.402-2.477a5.3 5.3 0 0 1 1.153-1.87 5 5 0 0 1 1.758-1.184 5.7 5.7 0 0 1 2.148-.406q1.39 0 2.477.554 1.085.555 1.664 1.371.578.817.578 1.543 0 .399-.282.703a.9.9 0 0 1-.68.305q-.444 0-.667-.21-.223-.212-.496-.727-.453-.852-1.067-1.274t-1.511-.422q-1.43 0-2.278 1.086-.847 1.086-.847 3.086 0 1.336.375 2.223t1.062 1.324 1.61.438q1 0 1.69-.497.693-.495 1.044-1.457.148-.453.367-.738t.703-.285q.414 0 .711.29a.96.96 0 0 1 .297.718m1.75 2.226.289-1.46q-1.078-.024-1.078-.86 0-.39.27-.637.27-.246.792-.246h.368l.445-2.273h-.813q-.507 0-.785-.254a.81.81 0 0 1-.277-.621q0-.39.27-.63.27-.237.792-.237h1.164l.368-1.79a4 4 0 0 1 .191-.71.9.9 0 0 1 .29-.391.8.8 0 0 1 .48-.133q.414 0 .632.219a.76.76 0 0 1 .22.562q0 .08-.134.79l-.289 1.453h1.711l.375-1.79q.078-.405.149-.656a.9.9 0 0 1 .254-.422q.183-.171.535-.171.405 0 .629.21.222.211.222.57 0 .165-.02.321-.019.157-.05.3-.03.145-.04.184l-.288 1.47q1.117.023 1.117.866 0 .391-.266.625-.266.235-.789.235h-.398l-.469 2.273h.867q.524 0 .79.25a.83.83 0 0 1 .265.633.8.8 0 0 1-.262.621q-.261.238-.793.238h-1.203l-.367 1.797a9 9 0 0 1-.152.664.9.9 0 0 1-.254.41q-.187.176-.54.176-.39 0-.616-.218a.76.76 0 0 1-.227-.57q0-.321.11-.798l.288-1.46h-1.726l-.367 1.796q-.141.665-.293.957-.153.293-.653.293-.398 0-.625-.218a.76.76 0 0 1-.226-.57q0-.18.043-.403zm4.57-5.476H28.93l-.461 2.273h1.742z"/></g></svg>