<svg xmlns="http://www.w3.org/2000/svg" xmlns:xlink="http://www.w3.org/1999/xlink" viewBox="0 0 48 48"><defs><linearGradient id="a" x1="90.7%" x2="35.327%" y1="6.565%" y2="64.144%"><stop offset="0%" stop-color="#93def2"/><stop offset="100%" stop-color="#5abadf"/></linearGradient></defs><g fill="none" fill-rule="evenodd"><path fill="#5abadf" d="M5 7.998A3 3 0 0 1 7.998 5H31.02L43 17.02v22.974A3.01 3.01 0 0 1 40.002 43H7.998A3.004 3.004 0 0 1 5 40.002z"/><path fill="url(#a)" d="m31 5 12 12V7.997A2.997 2.997 0 0 0 40.003 5z" transform="matrix(-1 0 0 -1 74 22)"/><path fill="#fff" d="M24.795 14.833c.14-.317.288-.482.397-.525.03-.011.049-.008.104.038.32.267.48 1.05.22 2.052a14 14 0 0 1-.584 1.68c-.333-1.421-.412-2.617-.137-3.245m8.55 12.686c.59.325.576.455.052.653-.862.325-2.167.066-3.435-.881 1.684-.126 2.866-.057 3.383.228M16.415 30.6c-.496.16-.866.21-1.083.19.188-.394.897-.917 1.843-1.144l.741-.178c-.575.596-1.09 1-1.502 1.132m9.197-2.742c1.67-.285 3.14-.477 4.35-.567a7 7 0 0 1-.385-.311c-2.053-1.78-3.931-5.86-4.645-8.902-1.437 3.508-4.71 8.999-7.016 11.39 2.838-.676 5.156-1.177 7.696-1.61m-8.788.33c-1.558.375-2.785 1.368-3.003 2.417-.312 1.504 1.149 2.034 3.052 1.423 1.265-.406 3.06-2.427 4.797-4.945a168 168 0 0 0-4.846 1.104m10.143-11.413c.393-1.514.114-2.895-.711-3.582-.984-.82-2.235-.329-2.834 1.037-.656 1.494-.029 4.764 1.264 7.87 1.088-2.048 1.933-3.984 2.281-5.325m1.627 11.338c1.778 1.542 3.835 2.027 5.333 1.463 1.694-.64 1.88-2.414.141-3.371-1.17-.645-3.62-.602-7.203-.067.546.777 1.129 1.455 1.729 1.975M25.36 26.38a98 98 0 0 0-3.69.704 52 52 0 0 0 3.016-4.983c.603 1.446 1.35 2.858 2.179 4.038q-.723.107-1.505.241"/></g></svg>