<svg xmlns="http://www.w3.org/2000/svg" xmlns:xlink="http://www.w3.org/1999/xlink" viewBox="0 0 48 48"><defs><linearGradient id="a" x1="90.7%" x2="35.327%" y1="6.565%" y2="64.144%"><stop offset="0%" stop-color="#93def2"/><stop offset="100%" stop-color="#5abadf"/></linearGradient></defs><g fill="none" fill-rule="evenodd"><path fill="#5abadf" d="M5 7.998A3 3 0 0 1 7.998 5H31.02L43 17.02v22.974A3.01 3.01 0 0 1 40.002 43H7.998A3.004 3.004 0 0 1 5 40.002z"/><path fill="url(#a)" d="m31 5 12 12V7.997A2.997 2.997 0 0 0 40.003 5z" transform="matrix(-1 0 0 -1 74 22)"/><path fill="#fff" d="M21.985 17c-.886.014-1.944.246-3.254.787l-1.716 5.96c1.388-.573 2.478-.841 3.397-.834 1.393.01 2.367.59 3.278 1.204l1.729-5.936c-.946-.64-1.956-1.203-3.434-1.18m4.34 1.813-1.717 5.96c1.51 1.023 3.33 1.866 6.675.37L33 19.193c-3.489 1.442-5.165.636-6.675-.381m-6.354 5.245c-.886.021-1.937.249-3.243.786h-.023L15 30.781c3.496-1.445 5.149-.613 6.664.405l1.74-5.984c-.943-.64-1.957-1.18-3.433-1.144m4.35 1.716L22.594 31.7c1.512 1.025 3.196 1.85 6.688.405l1.657-5.781c-3.558 1.216-5.103.47-6.616-.549"/></g></svg>