<svg xmlns="http://www.w3.org/2000/svg" xmlns:xlink="http://www.w3.org/1999/xlink" viewBox="0 0 16.933 16.933"><defs><clipPath id="a"><circle cx="1184.5" cy="675.5" r="16.5" fill="#1c99e0" opacity=".228" transform="translate(-40.845 -23.293)scale(1.0345)"/></clipPath></defs><rect width="16.933" height="16.933" y="-.003" fill="none" opacity=".75" rx="0" ry="0"/><path fill="#555" d="M2.381.265h12.171v15.61H2.382z" color="#000" overflow="visible"/><path fill="none" stroke="#373737" stroke-linecap="round" stroke-linejoin="round" stroke-width=".265" d="m2.249.132 12.435.001v15.874H2.249z" color="#000" overflow="visible"/><path fill="#fff" d="M4.234 5.292v.529H12.7v-.53zm0 1.058v.53H12.7v-.53zm0 1.058v.53H9.17a2.63 2.63 0 0 1 2.299 0h1.232v-.53zm0 1.059v.529h3.795a2.7 2.7 0 0 1 .401-.53zm7.974 0c.155.157.29.336.402.529h.09v-.53zM4.234 9.525v.529h3.452c.018-.183.058-.36.112-.53zm0 1.058v.53h3.563a2.6 2.6 0 0 1-.111-.53zm0 1.058v.53H8.43a2.7 2.7 0 0 1-.4-.53z"/><circle cx="1184.5" cy="675.5" r="16.5" fill="#188ed2" stroke="#035d8f" stroke-width=".948" clip-path="url(#a)" transform="translate(-154.93 -83.916)scale(.13951)"/><path fill="#8bcef3" d="M3064-1099.7a15.256 15.267 0 0 0-1.284.093q1.16.5 2.198 1.062c-2.935 1.462-5.228 3.303-6.976 5.353a18.5 18.5 0 0 0-4.055-.675 16 16 0 0 0-1.842.01 15.256 15.267 0 0 0-.712.953c1.536-.185 3.262-.111 5.048.25a25.9 25.9 0 0 0-6.809 3.37 15.256 15.267 0 0 0-.387 1.387 24.8 24.8 0 0 1 7.75-4.016 19.5 19.5 0 0 0-2.852 5.822 21 21 0 0 0-.627 2.814c-.452-.074-.9-.133-1.343-.168a14.5 14.5 0 0 0-3.287.106 15.256 15.267 0 0 0 .065.888c1.336-.204 2.866-.209 4.452.052-.417 3.813.236 7.432 1.49 10.117a15.256 15.267 0 0 0 1.232.86.44.44 0 0 0-.017-.394c-1.424-2.525-2.256-6.361-1.835-10.415 1.182.263 2.376.675 3.527 1.257q.184.096.367.196c-1.535 3.28-2.102 6.684-1.853 9.459a15.256 15.267 0 0 0 .928.51v-.01c-.056-.402-.088-.83-.103-1.268a.4.4 0 0 0 .082-.11c.807-1.943 2.346-4.068 4.45-5.915a14.8 14.8 0 0 1 2.845 4.322 21 21 0 0 0-3.825 4.209 15.256 15.267 0 0 0 .938.202 20.3 20.3 0 0 1 3.233-3.554c.41 1.1.735 2.312.955 3.643a15.256 15.267 0 0 0 .863-.127 20 20 0 0 0-1.113-4.102q.405-.32.833-.62a18.7 18.7 0 0 1 5.253-2.585c.323 1.594.516 3.323.555 5.189a15.256 15.267 0 0 0 .853-.617 29.6 29.6 0 0 0-.569-4.808 19 19 0 0 1 2.89-.504c-.335 1.8-.898 3.43-1.602 4.774a15.256 15.267 0 0 0 1.654-1.587c.366-1.01.662-2.103.863-3.259.442-.022.893-.021 1.35-.014a15.256 15.267 0 0 0 .414-.863 22 22 0 0 0-1.63.006c.186-1.432.231-2.942.102-4.486.863.1 1.745.27 2.64.497a15.256 15.267 0 0 0 .066-.884 21 21 0 0 0-2.795-.497 21 21 0 0 0-.363-2.05 19.6 19.6 0 0 0-2.061-5.284 30.7 30.7 0 0 1 4.685 2.395 15.256 15.267 0 0 0-.442-1.285 32 32 0 0 0-3.041-1.545 27 27 0 0 1 2.284-.107 15.256 15.267 0 0 0-.51-.867 26 26 0 0 0-3.428.295l-.302-.106c-1.517-2.261-3.611-4.362-6.397-6.121q.75-.315 1.555-.6l.01-.007a15.256 15.267 0 0 0-1.5-.363q-.503.2-.983.415a27 27 0 0 0-1.267-.68 15.256 15.267 0 0 0-.62-.013m1.84 1.676c2.54 1.514 4.496 3.302 5.972 5.237-3.405-1.023-6.697-1.3-9.76-1.032-.939.082-1.852.22-2.744.398 1.681-1.763 3.829-3.34 6.531-4.603m-1.145 4.983c2.271.037 4.649.397 7.09 1.155-2.424.572-4.542 1.494-6.367 2.663a20 20 0 0 0-5.713-3.386 24.6 24.6 0 0 1 4.99-.432m-6.47.86a19.1 19.1 0 0 1 6.433 3.472 19.6 19.6 0 0 0-4.08 3.886 21 21 0 0 0-2.088 3.263c-.12-.065-.239-.134-.36-.195a16.2 16.2 0 0 0-3.812-1.357c.135-.906.329-1.817.6-2.725a18.7 18.7 0 0 1 3.308-6.344m14.652.95a18.7 18.7 0 0 1 2.284 5.6q.205.893.322 1.782a19.4 19.4 0 0 0-5.37.428 20.1 20.1 0 0 0-4.017-5.202c1.916-1.194 4.165-2.108 6.78-2.608m-7.541 3.108a19.2 19.2 0 0 1 3.9 4.911q-1.056.286-2.048.675a21 21 0 0 0-5.544 3.24 15 15 0 0 0-2.39-1.824 19.7 19.7 0 0 1 2.017-3.16 18.8 18.8 0 0 1 4.065-3.842m9.051 5.103q.59.003 1.192.045c.143 1.596.09 3.156-.116 4.626a20 20 0 0 0-3.223.545 23.5 23.5 0 0 0-1.716-4.818 18.4 18.4 0 0 1 3.863-.398m-4.73.607a22.4 22.4 0 0 1 1.744 4.843 19.5 19.5 0 0 0-5.569 2.71c-.233.164-.457.336-.681.508a15.7 15.7 0 0 0-2.877-4.315 20 20 0 0 1 5.233-3.054q1.04-.405 2.15-.692m-10.787 2.08c.733.457 1.44.986 2.106 1.6-1.618 1.429-2.916 3.016-3.829 4.597.196-1.96.758-4.104 1.723-6.197" color="#000" style="-inkscape-stroke:none" transform="matrix(.15089 0 0 .15078 -452.01 173.84)"/></svg>