<svg xmlns="http://www.w3.org/2000/svg" xmlns:xlink="http://www.w3.org/1999/xlink" viewBox="0 0 48 48"><defs><linearGradient id="a" x1="90.7%" x2="35.327%" y1="6.565%" y2="64.144%"><stop offset="0%" stop-color="#93def2"/><stop offset="100%" stop-color="#5abadf"/></linearGradient></defs><g fill="none" fill-rule="evenodd"><path fill="#fff" d="M13.47 26.152a1 1 0 1 0 1.06 1.696l8-5a1 1 0 0 0 0-1.696l-8-5a1 1 0 1 0-1.06 1.696L20.113 22zM21 30h10a1 1 0 0 0 0-2H21a1 1 0 0 0 0 2"/><path fill="#5abadf" d="M5 7.998A3 3 0 0 1 8.008 5h22.994L43 17.01v22.983A3.01 3.01 0 0 1 40.002 43H7.998A3.004 3.004 0 0 1 5 40.002z"/><path fill="url(#a)" d="m30.959 5.013 12 12V8.01a2.997 2.997 0 0 0-2.997-2.997z" transform="matrix(-1 0 0 -1 73.917 22.025)"/><path fill="#fff" d="M24.045 17.5c3.839-3.939 1-6 1-6s.5 2 0 3-2.5 2.5-4 3.5-2.5 3.5 2 6.5c0 0-1.5-2-1.5-3.5s2.46-3.46 2.5-3.5m4.5-1s-3.5.5-5 2.5 0 3 .5 4 0 2.5 0 2.5 3-2.5 1-4 3.5-5 3.5-5m-8 8s-4.5.5-4.5 1.5 6 2.5 12-.5c0 0-6 1-9 .5s1.5-1.5 1.5-1.5m-1.795 7.048s-4.5.5-4.5 1.5S28.545 35.5 31.045 32.5c0 0-2.43.8-5.5 1-3.076.2-6.793-.202-8.295-.452-3-.5 1.5-1.5 1.5-1.5m.797 2.961s-2.123-.502-2.002.491c.092.744 7.009 1.08 11.355-.184 1.45-.421 2.613-1.02 3.142-1.841 0 0-1.315.968-4.337 1.54-3.03.573-6.138.55-7.66.485-3.038-.13-.498-.49-.498-.49M24.045 28c-3 .5-3.41.621-4.5.5s-.5-1-.5-1-2 .5-1 1.5 6 .5 9.5-.5c0 0-.5-1-3.5-.5m-.368 2.744c-2.205.367-2.507.456-3.308.367-.8-.088-.368-.735-.368-.735s-1.47.368-.735 1.103 4.411.368 6.984-.367c0 0-.367-.736-2.573-.368M30.545 26c0-1.5-2-1-2-1s2.5-1 3.5.5-2.5 4-4 4c0 0 2.5-2 2.5-3.5"/></g></svg>