<svg xmlns="http://www.w3.org/2000/svg" xmlns:xlink="http://www.w3.org/1999/xlink" viewBox="0 0 48 48"><defs><linearGradient id="a" x1="90.7%" x2="35.327%" y1="6.565%" y2="64.144%"><stop offset="0%" stop-color="#93def2"/><stop offset="100%" stop-color="#5abadf"/></linearGradient></defs><g fill="none" fill-rule="evenodd"><path fill="#5abadf" d="M5 7.998A3 3 0 0 1 8.008 5h22.994L43 17.01v22.983A3.01 3.01 0 0 1 40.002 43H7.998A3.004 3.004 0 0 1 5 40.002z"/><path fill="url(#a)" d="m31 5 12 12V7.997A2.997 2.997 0 0 0 40.003 5z" transform="matrix(-1 0 0 -1 74 22)"/><path fill="#fff" d="M28.116 16.476c-.468-.972-1.512-1.404-2.088-.792s-.756 1.692-.18 2.664c.54.936 1.548 1.044 2.016.54s.72-1.476.252-2.412M22.248 33.54c2.016 0 4.284-1.512 5.364-3.744.432-.9.54-1.656.252-2.232-.144-.288-.396-.324-.576 0-1.08 2.484-3.06 4.86-4.68 4.932-1.152.072-1.224-1.332-.36-3.42.756-1.8 2.268-4.248 3.024-5.832.864-1.8.576-3.348.036-3.924-.288-.324-.54-.216-.864.216-1.332 1.872-3.708 6.12-4.608 8.748-1.008 2.952-.324 5.256 2.412 5.256"/></g></svg>