<svg xmlns="http://www.w3.org/2000/svg" viewBox="0 0 64 64"><rect width="50" height="50" x="7" y="11" opacity=".2" rx="4.167" ry="4.167"/><rect width="50" height="50" x="7" y="10" fill="#795548" rx="4.167" ry="4.167"/><path d="M13 17h38v38H13Z" opacity=".2"/><path fill="#fff" d="M13 16h38v38H13Z"/><path d="M31.734 5c-1.33.015-2.781.442-4.353 1.777L18 13.973V22h28v-8.027l-9.38-7.196C34.941 5.353 33.402 4.964 32 5.004A7 7 0 0 0 31.734 5M32 11a3 3 0 0 1 3 3 3 3 0 0 1-3 3 3 3 0 0 1-3-3 3 3 0 0 1 3-3" opacity=".1"/><path fill="#b5b5b5" d="M31.734 4c-1.33.015-2.781.442-4.353 1.777L18 12.973V21h28v-8.027l-9.38-7.196C34.941 4.353 33.402 3.964 32 4.004A7 7 0 0 0 31.734 4M32 10a3 3 0 0 1 3 3 3 3 0 0 1-3 3 3 3 0 0 1-3-3 3 3 0 0 1 3-3m-8 16h16v3H24zm0 18h10v3H24zm0-12h16v3H24zm0 6h16v3H24z"/><path fill="#fff" d="M11.166 10A4.156 4.156 0 0 0 7 14.166v1A4.156 4.156 0 0 1 11.166 11H25v-1zM39 10v1h13.834A4.156 4.156 0 0 1 57 15.166v-1A4.156 4.156 0 0 0 52.834 10z" opacity=".1"/><path fill="#fff" d="M31.734 4c-1.33.015-2.781.442-4.353 1.777L18 12.973v1l9.38-7.196C28.954 5.442 30.404 5.015 31.735 5q.135-.001.266.004c1.403-.04 2.942.349 4.62 1.773L46 13.973v-1l-9.38-7.196C34.941 4.353 33.402 3.964 32 4.004A7 7 0 0 0 31.734 4m-2.67 9.5A3 3 0 0 0 29 14a3 3 0 0 0 3 3 3 3 0 0 0 3-3 3 3 0 0 0-.064-.5A3 3 0 0 1 32 16a3 3 0 0 1-2.936-2.5" opacity=".2"/></svg>