<svg xmlns="http://www.w3.org/2000/svg" viewBox="0 0 64 64"><rect width="56" height="50" x="4" y="8" opacity=".2" rx="4.2" ry="4.167"/><rect width="56" height="50" x="4" y="7" fill="#4f4f4f" rx="4.2" ry="4.167"/><g opacity=".2"><rect width="16.763" height="5.588" x="-17.21" y="30.21" rx="1.397" ry="1.397" transform="matrix(.724 -.6898 .724 .6898 0 0)"/><rect width="16.763" height="5.588" x="19.03" y="-6.04" rx="1.397" ry="1.397" transform="matrix(.724 .6898 .724 -.6898 0 0)"/></g><rect width="17" height="6" x="26" y="30" opacity=".2" rx="1.5" ry="1.5"/><rect width="17" height="6" x="26" y="29" fill="#33c839" rx="1.5" ry="1.5"/><rect width="16.763" height="5.588" x="-16.49" y="29.48" fill="#24873b" rx="1.397" ry="1.397" transform="matrix(.72401 -.68979 .72401 .68979 0 0)"/><rect width="16.763" height="5.588" x="18.31" y="-5.31" fill="#62c9ea" rx="1.397" ry="1.397" transform="matrix(.72401 .68979 .72401 -.68979 0 0)"/><path fill="#fff" d="M8.2 7C5.871 7 4 8.86 4 11.168v1C4 9.86 5.872 8 8.2 8h47.6c2.328 0 4.2 1.86 4.2 4.168v-1C60 8.86 58.128 7 55.8 7z" opacity=".1"/><path d="m17.5 23.998-.526.5 3.563 3.394c.175.167.384.282.606.344l1.342-1.279a1.426 1.359 0 0 1-1.948-.065z" opacity=".2"/><rect width="16.763" height="5.588" x="18.31" y="-5.31" fill="#62c9ea" rx="1.397" ry="1.397" transform="matrix(.72401 .68979 .72401 -.68979 0 0)"/><rect width="16.763" height="5.588" x="18.31" y="-5.31" fill="#33c839" rx="1.397" ry="1.397" transform="matrix(.72401 .68979 .72401 -.68979 0 0)"/><path fill="#fff" d="M13.457 13.002a1.423 1.356 0 0 0-1.01.4l-2.023 1.928a1.31 1.31 0 0 0-.321 1.465 1.433 1.366 0 0 1 .321-.465l2.023-1.927a1.476 1.476 0 0 1 2.022 0l10.115 9.634a1.433 1.366 0 0 1 .318.464 1.31 1.31 0 0 0-.318-1.464l-10.115-9.634a1.47 1.47 0 0 0-1.012-.401M27.5 29c-.83 0-1.5.67-1.5 1.501v1c0-.832.67-1.5 1.5-1.5h14c.831 0 1.5.668 1.5 1.5v-1c0-.831-.668-1.5-1.5-1.5Z" opacity=".2"/></svg>