<svg xmlns="http://www.w3.org/2000/svg" xmlns:xlink="http://www.w3.org/1999/xlink" viewBox="0 0 48 48"><defs><linearGradient id="a" x1="90.7%" x2="35.327%" y1="6.565%" y2="64.144%"><stop offset="0%" stop-color="#93def2"/><stop offset="100%" stop-color="#5abadf"/></linearGradient></defs><g fill="none" fill-rule="evenodd"><path fill="#5abadf" d="M5 7.998A3 3 0 0 1 8.008 5h22.994L43 17.01v22.983A3.01 3.01 0 0 1 40.002 43H7.998A3.004 3.004 0 0 1 5 40.002z"/><path fill="url(#a)" d="m30.959 5.013 12 12V8.01a2.997 2.997 0 0 0-2.997-2.997z" transform="matrix(-1 0 0 -1 73.917 22.025)"/><path fill="#fff" d="M33.167 24.917a1.833 1.833 0 1 0 0 3.666 1.833 1.833 0 0 0 0-3.666m-6.111 1.222a.611.611 0 1 0 0 1.222.611.611 0 0 0 0-1.222m3.966-5.56a1.833 1.833 0 1 0 1.833 3.175 1.833 1.833 0 0 0-1.833-3.175m-2.026 3.567a1.222 1.222 0 1 0 .633 2.361 1.222 1.222 0 0 0-.633-2.361m-2.656.547a.611.611 0 1 0 .612 1.058.611.611 0 0 0-.611-1.058m.655-6.798a1.833 1.833 0 1 0 3.175 1.833 1.833 1.833 0 0 0-3.175-1.833m.029 4.102a1.222 1.222 0 1 0 1.728 1.728 1.222 1.222 0 0 0-1.728-1.728m-2.026 1.801a.611.611 0 1 0 1.058.611.611.611 0 0 0-1.058-.61m-2.832-6.216a1.833 1.833 0 1 0 3.666 0 1.833 1.833 0 0 0-3.666 0m2.076 3.538a1.222 1.222 0 1 0 2.361.633 1.222 1.222 0 0 0-2.361-.633m-.854 2.573a.611.611 0 1 0 1.222 0 .611.611 0 0 0-1.222 0m-5.56-3.966a1.833 1.833 0 1 0 3.175-1.833 1.833 1.833 0 0 0-3.175 1.833m3.567 2.026a1.222 1.222 0 1 0 2.361-.633 1.222 1.222 0 0 0-2.361.633m.547 2.656a.611.611 0 1 0 1.058-.612.611.611 0 0 0-1.058.611m-6.798-.655a1.833 1.833 0 1 0 1.833-3.175 1.833 1.833 0 0 0-1.833 3.175m4.102-.029a1.222 1.222 0 1 0 1.728-1.728 1.222 1.222 0 0 0-1.728 1.728m1.801 2.026a.611.611 0 1 0 .611-1.058.611.611 0 0 0-.61 1.058m-6.216 2.832a1.833 1.833 0 1 0 0-3.666 1.833 1.833 0 0 0 0 3.666m3.538-2.076a1.222 1.222 0 1 0 .633-2.361 1.222 1.222 0 0 0-.633 2.361m2.573.854a.611.611 0 1 0 0-1.222.611.611 0 0 0 0 1.222m.226 2.054-1.214 3.211h2.432zm-.505-.86h1.014l2.52 6.451h-.93l-.602-1.655h-2.981l-.603 1.655h-.943zm7.239 4.019q-.964 0-1.335.22-.372.221-.372.753 0 .423.277.674.28.246.76.246.661 0 1.059-.467.402-.471.402-1.248v-.178zm1.586-.328v2.761h-.795v-.734a1.75 1.75 0 0 1-.679.652q-.405.208-.994.208-.743 0-1.184-.415-.435-.42-.436-1.12 0-.816.544-1.231.549-.415 1.634-.415h1.115v-.078q0-.549-.363-.847-.36-.302-1.011-.302-.415 0-.808.1a3.2 3.2 0 0 0-.757.297v-.734q.437-.17.847-.25.41-.087.8-.087 1.05 0 1.568.544.519.545.519 1.65"/></g></svg>