<svg xmlns="http://www.w3.org/2000/svg" viewBox="0 0 64 64"><rect width="16" height="16" x="15" y="6" fill="#f84e4e" rx="2" ry="2"/><rect width="16" height="16" x="15" y="24" fill="#f84e4e" rx="2" ry="2"/><rect width="16" height="16" x="15" y="42" fill="#f84e4e" rx="2" ry="2"/><rect width="16" height="16" x="33" y="42" fill="#f84e4e" rx="2" ry="2"/><path fill="#fff" d="M17 6c-1.108 0-2 .892-2 2v1c0-1.108.892-2 2-2h12c1.108 0 2 .892 2 2V8c0-1.108-.892-2-2-2zm0 18c-1.108 0-2 .892-2 2v1c0-1.108.892-2 2-2h12c1.108 0 2 .892 2 2v-1c0-1.108-.892-2-2-2zm0 18c-1.108 0-2 .892-2 2v1c0-1.108.892-2 2-2h12c1.108 0 2 .892 2 2v-1c0-1.108-.892-2-2-2zm18 0c-1.108 0-2 .892-2 2v1c0-1.108.892-2 2-2h12c1.108 0 2 .892 2 2v-1c0-1.108-.892-2-2-2z" opacity=".2"/><path d="M15 20v1c0 1.108.892 2 2 2h12c1.108 0 2-.892 2-2v-1c0 1.108-.892 2-2 2H17c-1.108 0-2-.892-2-2m0 18v1c0 1.108.892 2 2 2h12c1.108 0 2-.892 2-2v-1c0 1.108-.892 2-2 2H17c-1.108 0-2-.892-2-2m0 18v1c0 1.108.892 2 2 2h12c1.108 0 2-.892 2-2v-1c0 1.108-.892 2-2 2H17c-1.108 0-2-.892-2-2m18 0v1c0 1.108.892 2 2 2h12c1.108 0 2-.892 2-2v-1c0 1.108-.892 2-2 2H35c-1.108 0-2-.892-2-2" opacity=".2"/></svg>