<svg xmlns="http://www.w3.org/2000/svg" xmlns:xlink="http://www.w3.org/1999/xlink" viewBox="0 0 128 128"><defs><linearGradient id="d" x1="50%" x2="50%" y1="0%" y2="99.794%"><stop offset="0%" stop-color="#9ba6c1"/><stop offset="100%" stop-color="#778eb2"/></linearGradient><linearGradient id="g" x1="50%" x2="7.994%" y1="50%" y2="88.893%"><stop offset="0%" stop-color="#fff" stop-opacity=".1"/><stop offset="100%" stop-color="#fff" stop-opacity=".3"/></linearGradient><filter id="c" width="125%" height="120.2%" x="-12.5%" y="-8.3%" filterUnits="objectBoundingBox"><feOffset dy="2" in="SourceAlpha" result="shadowOffsetOuter1"/><feGaussianBlur in="shadowOffsetOuter1" result="shadowBlurOuter1" stdDeviation="3.5"/><feColorMatrix in="shadowBlurOuter1" values="0 0 0 0 0.474509804 0 0 0 0 0.558835447 0 0 0 0 0.701960784 0 0 0 0.5 0"/></filter><filter id="f" width="124.6%" height="124.6%" x="-12.3%" y="-8.8%" filterUnits="objectBoundingBox"><feOffset dy="1" in="SourceAlpha" result="shadowOffsetOuter1"/><feGaussianBlur in="shadowOffsetOuter1" result="shadowBlurOuter1" stdDeviation="1"/><feComposite in="shadowBlurOuter1" in2="SourceAlpha" operator="out" result="shadowBlurOuter1"/><feColorMatrix in="shadowBlurOuter1" values="0 0 0 0 0 0 0 0 0 0 0 0 0 0 0 0 0 0 0.05 0"/></filter><path id="a" d="M92 105a9 9 0 0 1-9 9H9a9 9 0 0 1-9-9V9a9 9 0 0 1 9-9h54.5L92 28.5z"/><path id="e" d="M63.5 0 92 28.5H72.5a9 9 0 0 1-9-9z"/></defs><g fill="none" fill-rule="evenodd"><g transform="translate(18 7)"><use xlink:href="#a" fill="#000" filter="url(#c)"/><use xlink:href="#a" fill="url(#d)"/></g><g transform="translate(18 7)"><use xlink:href="#e" fill="#000" filter="url(#f)"/><use xlink:href="#e" fill="url(#g)"/></g><path fill="#fff" d="M64 40c-13.255 0-24 10.745-24 24s10.745 24 24 24 24-10.745 24-24-10.745-24-24-24m-2.404 4.587c.28-.03.635.017.917 0 .034.134-.203.609-.522 1.306-2.032 4.44-2.147 9.643-.261 12.422.341.504.65.982.65 1.044s-.368.128-.784.128c-.977 0-1.901-.594-3.79-2.09-.84-.664-1.928-1.221-2.35-1.305-.664-.133-.843-.076-1.702.783-.798.799-1.044 1.23-1.044 1.962 0 2.773 3.29 4.97 9.408 6.268 8.31 1.761 10.358 3.345 10.587 7.714.288 5.48-2.63 9.612-9.02 12.81-.762.382-1.247.527-1.567.65-.141-.013-.247.013-.388 0-.054-.17-.134-.561-.134-1.306 0-2.91-1.144-5.905-2.873-7.58-.464-.45-1.767-1.4-2.88-2.09-1.112-.688-2.233-1.486-2.484-1.828-.414-.566-.445-.915-.127-1.962.58-1.91 1.269-2.978 2.612-4.185.704-.633 1.41-1.16 1.567-1.172.156-.012-.894-.332-2.478-.656-1.583-.325-3.905-1.006-5.103-1.44-2.19-.792-5.14-2.452-6.267-3.656-.048-.051-.093-.089-.134-.134 1.615-6.433 6.145-11.702 12.154-14.243 1.257-.532 2.556-.899 3.924-1.179.681-.139 1.385-.19 2.089-.26m19.607 9.804c.491.303 2.343 4.317 2.873 6.274.683 2.527.634 6.898 0 9.409-.241.955-.547 1.85-.65 1.962s-.478-.528-.917-1.306-1.842-2.434-3.007-3.663c-3.363-3.549-3.893-5.398-2.484-8.23.71-1.428 3.805-4.681 4.185-4.446"/></g></svg>