<svg xmlns="http://www.w3.org/2000/svg" xmlns:xlink="http://www.w3.org/1999/xlink" viewBox="0 0 128 128"><defs><linearGradient id="d" x1="50%" x2="50%" y1="0%" y2="99.372%"><stop offset="0%" stop-color="#ffbc2a"/><stop offset="100%" stop-color="#e77b00"/></linearGradient><linearGradient id="g" x1="50%" x2="7.994%" y1="50%" y2="88.893%"><stop offset="0%" stop-color="#fff" stop-opacity=".1"/><stop offset="100%" stop-color="#fff" stop-opacity=".3"/></linearGradient><filter id="b" width="125%" height="120.2%" x="-12.5%" y="-8.3%" filterUnits="objectBoundingBox"><feOffset dy="2" in="SourceAlpha" result="shadowOffsetOuter1"/><feGaussianBlur in="shadowOffsetOuter1" result="shadowBlurOuter1" stdDeviation="3.5"/><feColorMatrix in="shadowBlurOuter1" values="0 0 0 0 0.874509804 0 0 0 0 0.498039216 0 0 0 0 0.0588235294 0 0 0 0.5 0"/></filter><filter id="f" width="124.6%" height="124.6%" x="-12.3%" y="-8.8%" filterUnits="objectBoundingBox"><feOffset dy="1" in="SourceAlpha" result="shadowOffsetOuter1"/><feGaussianBlur in="shadowOffsetOuter1" result="shadowBlurOuter1" stdDeviation="1"/><feComposite in="shadowBlurOuter1" in2="SourceAlpha" operator="out" result="shadowBlurOuter1"/><feColorMatrix in="shadowBlurOuter1" values="0 0 0 0 0 0 0 0 0 0 0 0 0 0 0 0 0 0 0.05 0"/></filter><path id="a" d="M92 105a9 9 0 0 1-9 9H9a9 9 0 0 1-9-9V9a9 9 0 0 1 9-9h54.5L92 28.5z"/><path id="e" d="M63.5 0 92 28.5H72.5a9 9 0 0 1-9-9z"/></defs><g fill="none" fill-rule="evenodd"><g opacity=".9" transform="translate(18 7)"><use xlink:href="#a" fill="#000" filter="url(#b)"/><use xlink:href="#a" fill="url(#d)"/></g><g transform="translate(18 7)"><use xlink:href="#e" fill="#000" filter="url(#f)"/><use xlink:href="#e" fill="url(#g)"/></g><path fill="#fff" d="M83.003 54A2.995 2.995 0 0 1 86 57.002v27.996A3 3 0 0 1 83.003 88l-17.589-.001 8.293 8.294a1 1 0 0 1 .083 1.32l-.083.094a1 1 0 0 1-1.414 0l-7.243-7.242-.05 10.54a1 1 0 0 1-.888.989l-.117.006a1 1 0 0 1-.995-1.005l.051-10.632-7.344 7.344a1 1 0 0 1-1.32.083l-.094-.083a1 1 0 0 1 0-1.414l8.292-8.294L44.997 88a2.995 2.995 0 0 1-2.992-2.825L42 84.998V57.002A3 3 0 0 1 44.997 54Zm0 2H44.997A1 1 0 0 0 44 57.002v27.996A.995.995 0 0 0 44.997 86h38.006A1 1 0 0 0 84 84.998V57.002A.995.995 0 0 0 83.003 56M51 63a1 1 0 0 1 1 1v16h25a1 1 0 0 1 0 2H51a1 1 0 0 1-1-1V64a1 1 0 0 1 1-1m38-15a1 1 0 0 1 0 2H39a1 1 0 0 1 0-2ZM56 60h4v16h-4Zm8 4h4v12h-4Zm8 4h4v8h-4Z"/></g></svg>