<svg xmlns="http://www.w3.org/2000/svg" xmlns:xlink="http://www.w3.org/1999/xlink" viewBox="0 0 48 48"><defs><linearGradient id="a" x1="90.7%" x2="35.327%" y1="6.565%" y2="64.144%"><stop offset="0%" stop-color="#93def2"/><stop offset="100%" stop-color="#5abadf"/></linearGradient></defs><g fill="none" fill-rule="evenodd"><path fill="#5abadf" d="M5 7.998A3 3 0 0 1 7.998 5H31.02L43 17.02v22.974A3.01 3.01 0 0 1 40.002 43H7.998A3.004 3.004 0 0 1 5 40.002z"/><path fill="url(#a)" d="m31 5 12 12V7.997A2.997 2.997 0 0 0 40.003 5z" transform="matrix(-1 0 0 -1 74 22)"/><circle cx="24" cy="25" r="9" fill="#fff"/><path fill="#5abadf" d="M20.602 21.362c.52-.528-1.04-1.056.52-2.113s2.082 1.585 3.643 1.585 1.561-1.056 3.122 0 1.561 3.168-.52 2.64-3.643-1.584-3.643.528S18 24.531 18 22.418s2.082-.528 2.602-1.056m8.557 5.508c.155.438.883-.295 1.051.875.168 1.171-1.006.53-1.36 2.023s-1.48.388-2.505.976c-.375.215-.018 1.368-.995 1.484-1.177.139-2.598-.414-3.018-.518-.768-.191-2.02-1.505-.01-1.491s.016-.437.994-1.484c.436-.467 1.677.184 2.512.018 1.033-.206 1.588-1.194.928-1.516-1.195-.582 1.327-2.707 2.52-2.124 1.195.582-.273 1.318-.117 1.757m-10.662 1.463S17.117 27 18.957 27s2.758 2 1.379 2-1.84-.667-1.84-.667"/></g></svg>