<svg xmlns="http://www.w3.org/2000/svg" xmlns:xlink="http://www.w3.org/1999/xlink" viewBox="0 0 48 48"><defs><linearGradient id="a" x1="90.7%" x2="35.327%" y1="6.565%" y2="64.144%"><stop offset="0%" stop-color="#93def2"/><stop offset="100%" stop-color="#5abadf"/></linearGradient></defs><g fill="none" fill-rule="evenodd"><path fill="#5abadf" d="M5 7.998A3 3 0 0 1 7.998 5H31.02L43 17.02v22.974A3.01 3.01 0 0 1 40.002 43H7.998A3.004 3.004 0 0 1 5 40.002z"/><path fill="url(#a)" d="m31 5 12 12V7.997A2.997 2.997 0 0 0 40.003 5z" transform="matrix(-1 0 0 -1 74 22)"/><path fill="#fff" d="M24 33a7 7 0 1 0 0-14 7 7 0 0 0 0 14m-2.108-10.425c.379-.353-.757-.705.379-1.409 1.135-.704 1.514 1.056 2.649 1.056s1.135-.704 2.27 0c1.136.705 1.136 2.113-.378 1.76-1.514-.351-2.649-1.055-2.649.353S20 24.687 20 23.279c0-1.409 1.514-.352 1.892-.704m6.32 4.395c.102.332.648-.248.741.644s-.744.43-1.039 1.582-1.084.334-1.844.81c-.277.174-.047 1.048-.76 1.16-.858.137-1.877-.251-2.18-.32-.552-.127-1.43-1.102.03-1.141 1.46-.04.024-.335.76-1.16.329-.37 1.214.098 1.825-.05.756-.184 1.183-.954.711-1.184-.853-.416 1.032-2.106 1.885-1.69s-.231 1.017-.13 1.349m-7.88 1.697s-.92-.667.306-.667 1.839 1 .92 1c-.92 0-1.227-.333-1.227-.333m-4.137-.75v1.935l-6.877-2.98v-1.655l6.877-2.98v1.948l-4.792 1.845zm22.162-1.046-6.877 2.994v-1.934l4.806-1.887-4.806-1.86v-1.92l6.877 2.966z"/></g></svg>