<svg xmlns="http://www.w3.org/2000/svg" viewBox="0 0 64 64"><rect width="56" height="56" x="4" y="4" fill="#37dbad" rx="28" ry="28"/><path d="M32 17c-8.837 0-16 7.164-16 16s7.163 16 16 16h10s1.874 0 2-2c0-2-2-2-2-2H32c-6.628 0-12-5.372-12-12 0-6.627 5.372-12 12-12 6.627 0 12 5.373 12 12v2a2 2 0 0 1-4 0v-2a8 8 0 1 0-8 8c2.092 0 3.98-.822 5.406-2.137A6 6 0 0 0 42 41a6 6 0 0 0 6-6v-2c0-8.835-7.164-16-16-16m0 12a4 4 0 1 1 0 8 4 4 0 0 1 0-8" opacity=".2"/><path fill="#fff" d="M32 16c-8.837 0-16 7.164-16 16s7.163 16 16 16h10s1.874 0 2-2c0-2-2-2-2-2H32c-6.628 0-12-5.372-12-12 0-6.627 5.372-12 12-12 6.627 0 12 5.373 12 12v2a2 2 0 0 1-4 0v-2a8 8 0 1 0-8 8c2.092 0 3.98-.821 5.406-2.136A6 6 0 0 0 42 40a6 6 0 0 0 6-6v-2c0-8.836-7.164-16-16-16m0 12a4 4 0 1 1 0 8 4 4 0 0 1 0-8"/><path d="M59.982 32.664C59.631 47.866 47.29 60 32 60S4.371 47.868 4.018 32.668c-.007.11-.018.22-.018.332 0 15.512 12.488 28 28 28s28-12.488 28-28c0-.113-.011-.224-.018-.336" opacity=".2"/><path fill="#fff" d="M32 4C16.488 4 4 16.488 4 32c0 .114.011.224.018.336C4.369 17.134 16.71 5 32 5s27.63 12.134 27.982 27.336c.007-.112.018-.222.018-.336C60 16.488 47.512 4 32 4" opacity=".2"/></svg>