<svg xmlns="http://www.w3.org/2000/svg" viewBox="0 0 64 64"><path d="M17 5 4 18v30l13 13h32l11-12v-9L49 29H24.6L35 40h14v8H17V18h43L46 5Z" opacity=".2"/><path fill="#95d25f" d="M10 47h46l-7 13H17Zm7-43-7 13h50L46 4Z"/><path fill="#50a635" d="M49 39v21l11-12v-9z"/><path fill="#37b4ee" d="M35 39h25L49 28H24.6ZM17 4 4 17v30l13 13V17Z"/><path fill="#229ed1" d="M4 47h13v13Zm0-30h13V4Z"/><path fill="#fff" d="M17 4 4 17v1L17 5h29l12.924 12H60L46 4zm7.6 24 .945 1H49l11 11v-1L49 28zM17 47v1h32v-1z" opacity=".2"/></svg>