<svg xmlns="http://www.w3.org/2000/svg" viewBox="0 0 64 64"><path d="M56.778 31.998c-.317.78-.99 1.525-2.058 2.13l-42.244 24.12c-1.805 1.052-3.385.956-4.398-.03C7.413 57.551 7 56.467 7 55.067v2c0 1.4.413 2.484 1.078 3.153 1.013.986 2.593 1.081 4.398.031l42.242-24.124c1.972-1.115 2.645-2.685 2.059-4.13z" opacity=".2"/><path fill="#eb4d27" d="M54.72 28.852 12.478 4.724c-1.805-1.017-3.42-.922-4.401.033C7.38 5.425 7 6.507 7 7.908v48.16c0 1.4.412 2.483 1.077 3.151 1.013.987 2.596 1.083 4.401.032l42.243-24.128c3.04-1.719 3.04-4.52 0-6.27z"/><path fill="#fff" d="M9.969 4c-.752.016-1.4.28-1.89.758C7.38 5.426 7 6.506 7 7.906V8.91c0-1.4.381-2.48 1.078-3.148.49-.478 1.139-.742 1.89-.758.753-.016 1.607.218 2.509.726l42.242 24.125c1.298.747 2.02 1.686 2.205 2.649.265-1.295-.457-2.645-2.205-3.65L12.477 4.727c-.902-.51-1.756-.743-2.508-.727" opacity=".2"/><path fill="#ffd739" d="M32 10a20.9 20.9 0 0 0-7.704 1.477l-.006-.004-.072.031a21 21 0 0 0-1.608.73l-.298.145a22 22 0 0 0-1.507.875l-.297.18a21 21 0 0 0-1.34.969 21 21 0 0 0-.367.273c-.394.319-.763.662-1.133 1.008a21 21 0 0 0-.426.387q-.684.676-1.304 1.414l-.075.082a21 21 0 0 0-3.953 7.327l-.027.102a21 21 0 0 0-.48 1.934l-.04.242a21 21 0 0 0-.257 1.774A21 21 0 0 0 11 31c0 .66.038 1.312.098 1.958l.047.394q.094.84.254 1.66l.054.274a20.9 20.9 0 0 0 2.13 5.78 21 21 0 0 0 2.37 3.458 21.06 21.06 0 0 0 8.325 6.012c.034.012.058-.008.09 0a21 21 0 0 0 2.128.706L52.23 36.546A21 21 0 0 0 53 31c0-.906-.076-1.792-.188-2.668a21 21 0 0 0-.082-.618l-.016-.006C51.13 17.678 42.474 10 32 10"/><circle cx="32" cy="31" r="13" fill="#ff8c00"/><path fill="#fff" d="M32 10c-2.722 0-5.315.534-7.703 1.477l-.006-.004-.072.03a21 21 0 0 0-1.61.731l-.297.145a22 22 0 0 0-1.507.875l-.297.18a21 21 0 0 0-1.34.968 21 21 0 0 0-.367.274 20 20 0 0 0-1.133 1.008 21 21 0 0 0-.426.386q-.684.678-1.305 1.414l-.074.082a21 21 0 0 0-3.953 7.329l-.027.101a21 21 0 0 0-.48 1.934l-.04.242c-.108.584-.2 1.171-.258 1.773A21 21 0 0 0 11 31c0 .171.015.339.025.508a21 21 0 0 1 .08-1.559c.059-.602.15-1.19.258-1.773l.04-.242a20 20 0 0 1 .48-1.934l.027-.104a20.95 20.95 0 0 1 3.953-7.326l.075-.082q.619-.736 1.304-1.414a21 21 0 0 1 .426-.387c.37-.345.739-.689 1.133-1.007a21 21 0 0 1 .367-.274 21 21 0 0 1 1.34-.969l.297-.18c.491-.31.991-.605 1.508-.874l.296-.145a21 21 0 0 1 1.61-.73l.072-.031.006.003A20.9 20.9 0 0 1 32 11.004c10.474 0 19.13 7.677 20.715 17.707l.015.006a21 21 0 0 1 .083.619q.135 1.07.167 2.166A21 21 0 0 0 53 31c0-.906-.075-1.792-.187-2.668a21 21 0 0 0-.083-.617l-.015-.006C51.13 17.679 42.474 10 32 10" opacity=".2"/></svg>