<svg xmlns="http://www.w3.org/2000/svg" viewBox="0 0 64 64"><circle cx="32" cy="33" r="28" opacity=".2"/><path fill="#109f5b" d="M8.7 16.504c-.482.732-.927 1.516-1.379 2.293A28 28 0 0 0 4.001 32c0 15.464 12.535 26 27.999 26l13.689-20.063c-1.062 1.73-5.487 3.945-7.375 5.035-6.042 3.488-13.715 1.234-17.203-4.809l-12.41-21.66Z"/><path fill="#dd4d3e" d="M19.145 37.731 7.766 18.02c4.098-7.094 10.648-11.306 16.746-13C27.31 4.248 29.502 4.059 32 4c3.325 0 14.87.822 22.688 11.649A28 28 0 0 1 56.207 18H32c-2.669.299-4.189 1.706-5.058 3.711l9.504 16.465-11.559 4.941"/><path fill="#ffce41" d="M43.375 40.281 32 58c.075.002.149.008.223.008C46.411 57.788 59.998 48.564 60 32a28 28 0 0 0-3.793-14H32.032c-.031 0 4.444 1.996 6.332 3.086 4.824 2.786 5.328 12.735 5.339 16.762l.809.469"/><path fill="#fff" d="M32 4A28 28 0 0 0 4 32a28 28 0 0 0 .035.5A28 28 0 0 1 32 5a28 28 0 0 1 27.982 27.252L60 32A28 28 0 0 0 32 4" opacity=".2"/><circle cx="32" cy="33" r="14" opacity=".2"/><circle cx="32" cy="32" r="14" fill="#fff"/><circle cx="32" cy="32" r="11" fill="#4587f3"/><path fill="#4f4f4f" d="M4.29 36A28 28 0 0 0 32 60a28 28 0 0 0 27.711-24Z"/><path d="M18 40.999v12h5.338c1.478 0 2.662-1.955 2.662-3.432 0-.922-.464-2.197-1.172-2.87.708-.674 1.172-1.744 1.172-2.666 0-1.477-1.184-3.032-2.662-3.032h-4.006Zm1.332 1.036h4.006c.762 0 1.33 1.235 1.33 1.996 0 .762-.569 1.963-1.33 2.002h-4.006Zm16.598.964c0 .864.011 1.29.011 2h-1.343v1.032h1.351c.015 2.31.065 4.353.34 5.316.199.696.634 1.239 1.195 1.457.562.218 1.115.195 1.782.195v-1.336c-.667 0-1.113-.024-1.301-.097-.189-.074-.256-.116-.391-.586-.185-.65-.247-2.649-.277-4.949h1.301v-1.032h-1.313c-.004-.713-.019-1.134-.019-2Zm-5.307 2c-.724 0-1.362.158-1.912.485q-.81.488-1.268 1.394c-.295.605-.443 1.734-.443 2.578 0 .864.162 1.188.488 1.774q.505.878 1.391 1.324.887.445 2.064.445.842 0 1.453-.129a6.2 6.2 0 0 0 1.239-.375v-1.009q-.643.26-1.256.406a6.5 6.5 0 0 1-1.375.129q-1.224 0-1.912-.676c-.549-.634-.634-1.649-.694-2.334H34v-.133c0-.7-.135-1.712-.41-2.23a2.83 2.83 0 0 0-1.162-1.219q-.765-.431-1.805-.43m12.438 0c-.561 0-1.05.043-1.457.129a6.3 6.3 0 0 0-1.239.371v1.11a9 9 0 0 1 1.256-.407A6.6 6.6 0 0 1 43 46.074q1.222 0 1.908.675c.214.219.377.851.492 1.227l-.875.027q-2.305.064-3.414.77c-.739.46-1.111.818-1.111 1.674 0 .877.286 1.526.85 1.943q.844.609 2.129.609 1.178-.001 1.863-.34c.261-.128.513-.306.76-.515v.855H47v-3.761c0-.864-.162-1.888-.488-2.473a3.3 3.3 0 0 0-1.391-1.324c-.591-.298-1.276-.442-2.06-.442m-12.454 1.032q1.026-.001 1.502.617c.215.273.327 1.024.401 1.412h-3.955c.112-.411.272-1.175.525-1.44q.565-.59 1.527-.589m-11.275 1.034h4.006c.762 0 1.33 1.741 1.33 2.502 0 .762-.568 2.496-1.33 2.496h-4.006Zm26.248 1.887s-.165 2.327-.279 2.413q-.792.596-1.973.598-.758-.002-1.252-.34c-.317-.225-.472-.675-.472-1.157 0-.546.219-.669.666-.969q.687-.45 2.449-.517Z" opacity=".2"/><path fill="#fff" d="M18 40v12h5.338C24.816 52 26 50.045 26 48.568c0-.922-.464-2.197-1.172-2.871.708-.673 1.172-1.743 1.172-2.665C26 41.555 24.816 40 23.338 40Zm1.332 1.036h4.006c.762 0 1.33 1.234 1.33 1.996s-.569 1.963-1.33 2.001h-4.006ZM35.93 42c0 .864.011 1.29.011 2h-1.343v1.032h1.351c.015 2.309.065 4.353.34 5.316.199.696.634 1.238 1.195 1.457.562.218 1.115.195 1.782.195v-1.336c-.667 0-1.113-.024-1.301-.098-.189-.073-.256-.115-.391-.586-.185-.649-.247-2.648-.277-4.948h1.301V44h-1.313c-.004-.714-.019-1.134-.019-2Zm-5.307 2c-.724 0-1.362.158-1.912.484q-.81.489-1.268 1.395c-.295.604-.443 1.734-.443 2.578 0 .864.162 1.188.488 1.773q.505.878 1.391 1.325.887.445 2.064.445.842 0 1.453-.129a6.3 6.3 0 0 0 1.239-.375v-1.009c-.428.172-.848.31-1.256.406a6.6 6.6 0 0 1-1.375.129q-1.224 0-1.912-.676c-.549-.633-.634-1.651-.694-2.334H34v-.133c0-.701-.135-1.712-.41-2.231a2.83 2.83 0 0 0-1.162-1.218q-.765-.431-1.805-.43m12.438 0c-.561 0-1.05.043-1.457.129a6.3 6.3 0 0 0-1.239.371v1.109c.428-.172.848-.31 1.256-.406A6.6 6.6 0 0 1 43 45.074q1.222 0 1.908.676c.214.219.377.851.492 1.227l-.875.027q-2.305.064-3.414.769c-.739.46-1.111.818-1.111 1.674 0 .878.286 1.526.85 1.944q.844.609 2.129.609 1.178-.001 1.863-.34c.261-.128.513-.306.76-.515V52H47v-3.762c0-.863-.162-1.887-.488-2.472a3.3 3.3 0 0 0-1.391-1.325c-.591-.297-1.276-.441-2.06-.441m-12.454 1.031q1.026 0 1.502.617c.215.274.327 1.025.401 1.413h-3.955c.112-.411.272-1.175.525-1.44q.565-.59 1.527-.59m-11.275 1.035h4.006c.762 0 1.33 1.74 1.33 2.502s-.568 2.496-1.33 2.496h-4.006Zm26.248 1.887.022 2.118a2 2 0 0 1-.301.295c-.528.395-1.186.597-1.973.597q-.758-.001-1.252-.34c-.317-.224-.472-.675-.472-1.156 0-.546.219-.669.666-.969q.687-.452 2.449-.518Z"/></svg>