<svg xmlns="http://www.w3.org/2000/svg" viewBox="0 0 64 64"><path d="M8.422 5A4.42 4.42 0 0 0 4 9.422v47.156A4.42 4.42 0 0 0 8.422 61H48l12-12V9.422A4.42 4.42 0 0 0 55.578 5H48Z" opacity=".2"/><path fill="#fff" d="M48 16H16v32h32z"/><path fill="#ea4335" d="m48 60 12-12H48Z"/><path fill="#fbbc04" d="M60 16H48v32h12z"/><path fill="#34a853" d="M48 48H16v12h32z"/><path fill="#188038" d="M4 48v7.579A4.42 4.42 0 0 0 8.421 60H16V48Z"/><path fill="#1967d2" d="M60 16V8.421A4.42 4.42 0 0 0 55.579 4H48v12z"/><path fill="#4285f4" d="M48 4H8.421A4.42 4.42 0 0 0 4 8.421V48h12V16h32z"/><path d="M27.486 25q-1.906 0-3.136.973-1.228.971-1.682 2.244l2.297.941c.173-.505.476-.959.877-1.318q.602-.536 1.625-.535 1.048.001 1.728.548.682.547.682 1.463 0 1.029-.762 1.62C28.607 31.33 27.981 32 27.238 32H26v1.986h1.375c.859.08 1.585.027 2.16.48q.863.68.863 1.755 0 1.051-.818 1.732-.818.68-1.957.68-1.115.002-1.898-.647-.787-.65-1.104-1.834l-2.32.94q.567 1.922 2.068 2.916 1.499.996 3.258.992c1.013 0 1.926-.205 2.738-.605q1.217-.602 1.91-1.653.693-1.05.692-2.392 0-1.34-.729-2.301a4.4 4.4 0 0 0-1.867-1.43v-.135q.863-.447 1.455-1.285t.592-2.045q.001-1.182-.635-2.133-.637-.947-1.762-1.486Q28.897 25 27.486 25m11.653 0-4.819 3.393 1.344 1.988L38 28.484V41h2.986V25z" opacity=".1"/><path fill="#4285f4" d="m38 27.485-2.337 1.895-1.343-1.988L39.14 24h1.847v16H38ZM24.37 39.007q-1.501-.994-2.07-2.915l2.32-.94q.317 1.183 1.104 1.834.784.65 1.9.648 1.137 0 1.955-.68.819-.682.82-1.733 0-1.075-.863-1.755c-.575-.454-1.301-.4-2.16-.48H26V31h1.239c.742 0 1.367-.67 1.876-1.064q.762-.592.762-1.62 0-.917-.682-1.463-.681-.548-1.729-.549-1.023 0-1.625.536a3.14 3.14 0 0 0-.876 1.318l-2.297-.94q.455-1.273 1.682-2.245Q25.58 24 27.486 24q1.41-.001 2.535.536 1.124.538 1.762 1.485.636.952.635 2.133 0 1.208-.592 2.045-.591.837-1.454 1.285v.135a4.4 4.4 0 0 1 1.866 1.43q.728.96.729 2.3 0 1.342-.692 2.393-.694 1.05-1.91 1.653-1.218.603-2.738.605-1.759.004-3.257-.993"/><path fill="#fff" d="M8.422 4A4.42 4.42 0 0 0 4 8.422v1A4.42 4.42 0 0 1 8.422 5h47.156A4.42 4.42 0 0 1 60 9.422v-1A4.42 4.42 0 0 0 55.578 4z" opacity=".2"/></svg>