<svg xmlns="http://www.w3.org/2000/svg" viewBox="0 0 64 64"><rect width="14" height="14" x="-61" y="-18" opacity=".2" rx="1.4" ry="1.4" transform="rotate(90)scale(-1 1)"/><rect width="14" height="14" x="-61" y="-32" opacity=".2" rx="1.4" ry="1.4" transform="rotate(90)scale(-1 1)"/><rect width="14" height="14" x="-61" y="-46" opacity=".2" rx="1.4" ry="1.4" transform="rotate(90)scale(-1 1)"/><rect width="14" height="14" x="-60" y="-18" fill="#5ba8da" rx="1.4" ry="1.4" transform="rotate(90)scale(-1 1)"/><rect width="14" height="14" x="-60" y="-32" fill="#2d89c3" rx="1.4" ry="1.4" transform="rotate(90)scale(-1 1)"/><rect width="14" height="14" x="-60" y="-46" fill="#5ba8da" rx="1.4" ry="1.4" transform="rotate(90)scale(-1 1)"/><rect width="14" height="14" x="-47" y="-18" opacity=".2" rx="1.4" ry="1.4" transform="rotate(90)scale(-1 1)"/><rect width="14" height="14" x="-46" y="-18" fill="#fc965f" rx="1.4" ry="1.4" transform="rotate(90)scale(-1 1)"/><rect width="14" height="14" x="-47" y="-32" opacity=".2" rx="1.4" ry="1.4" transform="rotate(90)scale(-1 1)"/><rect width="14" height="14" x="-46" y="-32" fill="#5ba8da" rx="1.4" ry="1.4" transform="rotate(90)scale(-1 1)"/><rect width="14" height="14" x="-47" y="-46" opacity=".2" rx="1.4" ry="1.4" transform="rotate(90)scale(-1 1)"/><rect width="14" height="14" x="-46" y="-46" fill="#d83535" rx="1.4" ry="1.4" transform="rotate(90)scale(-1 1)"/><rect width="14" height="14" x="-47" y="-60" opacity=".2" rx="1.4" ry="1.4" transform="rotate(90)scale(-1 1)"/><rect width="14" height="14" x="-46" y="-60" fill="#dd5252" rx="1.4" ry="1.4" transform="rotate(90)scale(-1 1)"/><rect width="14" height="14" x="-33" y="-18" opacity=".2" rx="1.4" ry="1.4" transform="rotate(90)scale(-1 1)"/><rect width="14" height="14" x="-32" y="-18" fill="#fc7c35" rx="1.4" ry="1.4" transform="rotate(90)scale(-1 1)"/><rect width="14" height="14" x="-33" y="-32" opacity=".2" rx="1.4" ry="1.4" transform="rotate(90)scale(-1 1)"/><rect width="14" height="14" x="-32" y="-32" fill="#d83535" rx="1.4" ry="1.4" transform="rotate(90)scale(-1 1)"/><rect width="14" height="14" x="-33" y="-46" opacity=".2" rx="1.4" ry="1.4" transform="rotate(90)scale(-1 1)"/><rect width="14" height="14" x="-32" y="-46" fill="#dd5252" rx="1.4" ry="1.4" transform="rotate(90)scale(-1 1)"/><rect width="14" height="14" x="-19" y="-18" opacity=".2" rx="1.4" ry="1.4" transform="rotate(90)scale(-1 1)"/><rect width="14" height="14" x="-18" y="-18" fill="#fc965f" rx="1.4" ry="1.4" transform="rotate(90)scale(-1 1)"/><rect width="14" height="14" x="-19" y="-32" opacity=".2" rx="1.4" ry="1.4" transform="rotate(90)scale(-1 1)"/><rect width="14" height="14" x="-18" y="-32" fill="#fc7c35" rx="1.4" ry="1.4" transform="rotate(90)scale(-1 1)"/><path fill="#fff" d="M47.398 32c-.775 0-1.398.623-1.398 1.398v1c0-.775.623-1.398 1.398-1.398h11.204c.775 0 1.398.623 1.398 1.398v-1c0-.775-.623-1.398-1.398-1.398zm-14-14c-.775 0-1.398.623-1.398 1.398v1c0-.775.623-1.398 1.398-1.398h11.204c.775 0 1.398.623 1.398 1.398v-1c0-.775-.623-1.398-1.398-1.398zm-28-14C4.623 4 4 4.623 4 5.398v1C4 5.623 4.623 5 5.398 5h11.204C17.377 5 18 5.623 18 6.398v-1C18 4.623 17.377 4 16.602 4zm14 0C18.623 4 18 4.623 18 5.398v1C18 5.623 18.623 5 19.398 5h11.204C31.377 5 32 5.623 32 6.398v-1C32 4.623 31.377 4 30.602 4z" opacity=".2"/></svg>