<svg xmlns="http://www.w3.org/2000/svg" viewBox="0 0 64 64"><rect width="56" height="56" x="4" y="5" opacity=".2" rx="2.8" ry="2.8"/><rect width="56" height="56" x="4" y="4" fill="#3b8b38" rx="2.8" ry="2.8"/><path d="M8 36a10 10 0 0 1 10-10 10 10 0 0 1 4.403 1.028L39.429 10H44v4.571l-2 2V22h-5.429L34 24.571V30h-5.429l-1.602 1.602A10 10 0 0 1 28 36a10 10 0 0 1-10 10A10 10 0 0 1 8 36m4 2a4 4 0 0 0 4 4 4 4 0 0 0 4-4 4 4 0 0 0-4-4 4 4 0 0 0-4 4" opacity=".2"/><path fill="#fff" d="M8 35a10 10 0 0 1 10-10 10 10 0 0 1 4.403 1.028L39.429 9H44v4.571l-2 2V21h-5.429L34 23.571V29h-5.429l-1.602 1.602A10 10 0 0 1 28 35a10 10 0 0 1-10 10A10 10 0 0 1 8 35m4 2a4 4 0 0 0 4 4 4 4 0 0 0 4-4 4 4 0 0 0-4-4 4 4 0 0 0-4 4"/><circle cx="48" cy="47" r="16" fill-opacity=".2"/><circle cx="48" cy="46" r="16" fill="#8bc34a"/><path fill="#fff" d="M6.8 4C5.25 4 4 5.25 4 6.8v1C4 6.25 5.25 5 6.8 5h50.4A2.796 2.796 0 0 1 60 7.8v-1C60 5.25 58.75 4 57.199 4z" opacity=".1"/><path fill="#fff" d="m38 44.808 2.829-2.829 9.192 9.193L47.193 54z"/><path fill="#fff" d="m47.193 54-2.828-2.828 12.728-12.728 2.828 2.828z"/></svg>