<svg xmlns="http://www.w3.org/2000/svg" viewBox="0 0 16 16"><path fill="currentColor" d="M8.78 2.002a.18.18 0 0 0-.143.044.2.2 0 0 0-.069.141l-.226 2.486c-.01.115.069.218.176.229a5 5 0 0 1 1.771.531.2.2 0 0 0 .149.008.2.2 0 0 0 .11-.105l1.013-2.25a.214.214 0 0 0-.09-.278 7.5 7.5 0 0 0-2.692-.806zm-1.864.037a7.6 7.6 0 0 0-2.66.918.216.216 0 0 0-.08.28l1.092 2.208c.034.07.102.11.171.11a.2.2 0 0 0 .09-.024 5 5 0 0 1 1.752-.604c.107-.015.18-.12.166-.234l-.312-2.477c-.015-.114-.113-.193-.219-.177m5.986 1.797a.2.2 0 0 0-.13.076L11.3 5.849a.22.22 0 0 0-.041.153c.005.054.03.105.07.14.483.421.888.923 1.207 1.494a.2.2 0 0 0 .168.102q.052 0 .1-.03l2-1.28a.2.2 0 0 0 .088-.128.22.22 0 0 0-.022-.158 8.4 8.4 0 0 0-1.826-2.262.2.2 0 0 0-.143-.044zm-10.04.207a.2.2 0 0 0-.141.05A8.5 8.5 0 0 0 .977 6.427a.23.23 0 0 0-.016.16.2.2 0 0 0 .092.124L3.098 7.91a.185.185 0 0 0 .263-.084 5.6 5.6 0 0 1 1.155-1.543.2.2 0 0 0 .064-.143.22.22 0 0 0-.047-.152L2.994 4.113a.2.2 0 0 0-.133-.07zm12.53 3.79-2.224.747c-.102.034-.159.152-.127.261a6 6 0 0 1 .234 1.961.22.22 0 0 0 .051.15.2.2 0 0 0 .135.07l2.328.114h.008c.103 0 .188-.087.193-.199a9.1 9.1 0 0 0-.355-2.967c-.032-.11-.14-.17-.242-.136zm-10.779.24a.2.2 0 0 0-.115.06.23.23 0 0 0-.037.255l1.72 3.457a2 2 0 0 0 .523 1.582c.345.37.802.573 1.288.573.487 0 .945-.204 1.29-.573a2 2 0 0 0 .532-1.379 2 2 0 0 0-.533-1.38 1.75 1.75 0 0 0-1.287-.573h-.002l-.1.002-3.153-1.994a.2.2 0 0 0-.125-.03zM.518 8.14a.2.2 0 0 0-.149.02.2.2 0 0 0-.09.127 9.2 9.2 0 0 0-.27 2.65c.006.112.091.2.194.2h.01l2.326-.116a.2.2 0 0 0 .135-.068.22.22 0 0 0 .05-.15 6 6 0 0 1 .178-1.752c.028-.112-.033-.226-.136-.256z" color="#d3dae3"/></svg>