<svg xmlns="http://www.w3.org/2000/svg" viewBox="0 0 16 16"><path fill="currentColor" d="M2.713 1a.64.64 0 0 0-.455.19C2.09 1.356 2 1.627 2 1.978v12.039c0 .35.098.62.258.787.243.246.623.27 1.056.008l10.14-6.032c.73-.43.73-1.129 0-1.566l-.411-.246-.186-.11A4.994 4.994 0 0 0 8 3c-.46 0-.897.083-1.32.2L3.314 1.181A1.16 1.16 0 0 0 2.713 1M8 4l.02.002a3.99 3.99 0 0 1 3.578 2.281c.035.074.076.145.107.22l.002.007q.115.29.186.601.019.09.035.182c.04.23.072.465.072.707 0 .17-.027.33-.047.494l-5.406 3.223-.055-.02a4 4 0 0 1-.34-.164q-.118-.058-.232-.127a4 4 0 0 1-.266-.181 4 4 0 0 1-.25-.194 4 4 0 0 1-.22-.205 4 4 0 0 1-.213-.226 4 4 0 0 1-.37-.51 4 4 0 0 1-.15-.26 4 4 0 0 1-.129-.285c-.04-.098-.084-.194-.117-.295-.036-.11-.061-.227-.088-.342-.02-.088-.048-.175-.062-.265A4 4 0 0 1 4 8a4 4 0 0 1 4-4m0 2a2 2 0 0 0-2 2 2 2 0 0 0 2 2 2 2 0 0 0 2-2 2 2 0 0 0-2-2" color="#d3dae3"/></svg>