<svg xmlns="http://www.w3.org/2000/svg" viewBox="0 0 24 24"><g fill="#536076"><path d="m12 17.085 3.179-5.187.095-.13c.085-.1.157-.212.241-.375.033-.062.051-.099.124-.248a7 7 0 0 1 .135-.271c.149-.39.225-.798.226-1.208C16 7.657 14.224 6 12 6S8 7.657 8 9.662q.002.644.253 1.27.03.077.084.182.075.143.193.33c.06.096.266.41.292.45zM12 5c2.761 0 5 2.089 5 4.666a4.4 4.4 0 0 1-.316 1.627c-.2.368-.336.759-.653 1.127L12 19l-4.031-6.584c-.192-.299-.497-.732-.649-1.123A4.4 4.4 0 0 1 7 9.666C7 7.089 9.239 5 12 5"/><path d="m10.026 10.322.019.083c.01.054.023.108.026.122l.067.2.012.029A2.005 2.005 0 0 0 12 12c.74 0 1.42-.41 1.756-1.045l.032-.068A1.96 1.96 0 0 0 14 10a2 2 0 0 0-.217-.907A2 2 0 0 0 10 9.991c0 .055.003.11.002.116l.009.084c.005.058.013.114.015.13M12 7a3 3 0 0 1 2.865 3.887 3 3 0 0 1-.185.453q-.014.027-.026.055A3 3 0 0 1 12 13a3 3 0 0 1-2.984-2.713l-.004-.043a3 3 0 0 1 .004-.543A3 3 0 0 1 12 7"/></g></svg>