<svg xmlns="http://www.w3.org/2000/svg" viewBox="0 0 64 64"><path d="M13.91 9a1.97 1.97 0 0 0-1.398.583l-3.965 3.965-3.965 3.964a1.973 1.973 0 0 0 0 2.797l3.965 3.965 5.363 5.363 5.363 5.364 5.364-5.364L30 24.274l-5.363-5.363-5.364-5.363-3.964-3.965A1.97 1.97 0 0 0 13.91 9m26.817 26-5.364 5.364L30 45.727l5.363 5.364 5.364 5.363 3.964 3.965a1.973 1.973 0 0 0 2.797 0l3.965-3.965 3.965-3.965a1.973 1.973 0 0 0 0-2.797l-3.965-3.965-5.363-5.363z" opacity=".2"/><circle cx="-18.286" cy="45.962" r="5.57" opacity=".2" transform="rotate(-45)"/><path fill="#0e427e" d="M13.91 8.645c-.338 0-.675.132-.94.396l-7.929 7.927a1.315 1.315 0 0 0 0 1.881l40.11 40.11a1.315 1.315 0 0 0 1.881 0l7.927-7.927a1.315 1.315 0 0 0 0-1.881L14.849 9.044a1.33 1.33 0 0 0-.939-.4"/><path fill="#1565c0" d="M4.581 16.51a1.976 1.976 0 0 0 0 2.799l3.965 3.965 5.364-5.364-5.364-5.364ZM15.01 31.13l5.835-5.835 5.835 5.835-5.835 5.835z"/><path fill="#039be5" d="m20.84 25.3 5.835-5.835L32.51 25.3l-5.835 5.835z"/><path fill="#1565c0" d="m19.28 12.545-5.364 5.364 5.364 5.364 5.364-5.364z"/><path fill="#039be5" d="m13.912 17.914-5.364 5.363 5.364 5.364 5.363-5.364zm-5.366-5.368 5.364 5.364 5.362-5.364-3.965-3.965a1.976 1.976 0 0 0-2.797 0zm32.182 42.908 3.965 3.965a1.976 1.976 0 0 0 2.797 0l3.965-3.965-5.365-5.364z"/><path fill="#1565c0" d="m46.09 50.09 5.364 5.364 3.965-3.965a1.976 1.976 0 0 0 0-2.798l-3.965-3.965Z"/><path fill="#039be5" d="m46.094 39.36-5.364 5.363 5.364 5.364 5.364-5.364z"/><path fill="#1565c0" d="m40.726 44.728-5.364 5.363 5.364 5.364 5.364-5.364z"/><path fill="#039be5" d="m32.52 48.64 5.835-5.835 5.835 5.835-5.835 5.835z"/><path fill="#1565c0" d="m38.35 42.81 5.835-5.835 5.835 5.835-5.835 5.835z"/><circle cx="-17.579" cy="45.255" r="5.57" fill="#455a64" transform="rotate(-45)"/><path fill="#455a64" d="m56 8-4.21 8.102-2.9 8.209-3.998-5.203-5.203-3.998 8.21-2.9z"/><circle cx="33.234" cy="45.962" r="4" opacity=".2" transform="rotate(-45)"/><circle cx="33.941" cy="45.255" r="4" fill="#607d8b" transform="rotate(-45)"/><rect width="15.342" height="31.017" x="38.29" y="-13.79" opacity=".2" rx="2.668" ry="2.668" transform="rotate(45)"/><rect width="15.342" height="31.017" x="37.58" y="-14.5" fill="#607d8b" rx="2.668" ry="2.668" transform="rotate(45)"/><path d="M61.613 26.262c-6.317 6.317-16.558 6.317-22.875 0s-6.317-16.558 0-22.875z" opacity=".2"/><path fill="#e4e4e4" d="M61.613 25.262c-6.317 6.317-16.558 6.317-22.875 0s-6.317-16.558 0-22.875z"/><path fill="#fff" d="M56.059 4a4 4 0 0 0-2.887 1.172 4 4 0 0 0-1.135 3.34 4 4 0 0 1 1.135-2.34A4 4 0 0 1 56.059 5a4 4 0 0 1 2.77 1.172 4 4 0 0 1 1.134 2.32 4 4 0 0 0-1.135-3.32A4 4 0 0 0 56.058 4" opacity=".1"/><path fill="#fff" d="M13.91 8c-.506 0-1.013.194-1.4.582l-3.965 3.963-3.963 3.965a1.97 1.97 0 0 0-.508 1.9c.086-.328.25-.642.508-.9l3.963-3.965 3.965-3.963a1.976 1.976 0 0 1 2.799 0l3.964 3.963 5.364 5.365 4.863 4.863.5-.5-5.363-5.363-5.364-5.365-3.964-3.963A1.97 1.97 0 0 0 13.91 8m27.377 26.56-.5.5 5.303 5.303 5.365 5.364 3.963 3.964c.258.259.422.573.508.9a1.97 1.97 0 0 0-.508-1.9l-3.963-3.964-5.365-5.364z" opacity=".2"/></svg>