<svg xmlns="http://www.w3.org/2000/svg" viewBox="0 0 64 64"><path d="M6 10c-2.216 0-4 1.882-4 4.219V50.78C2 53.118 3.784 55 6 55s4-1.882 4-4.219V48.98c.142.01.283.021.428.021H16v6h5v-6h3v6h5v-6h3v6h5v-6h19.572C59.58 49 62 46.547 62 43.5v-22c0-3.047-2.42-5.5-5.428-5.5H10.428a6 6 0 0 0-.428.021V14.22C10 11.882 8.216 10 6 10" opacity=".2"/><rect width="57" height="33" x="5" y="15" fill="#4f4f4f" rx="5.429" ry="5.5"/><circle cx="22.5" cy="32.5" r="10.5" opacity=".2"/><circle cx="22.5" cy="31.5" r="10.5" fill="#fff"/><circle cx="46.5" cy="32.5" r="8.5" opacity=".2"/><circle cx="46.5" cy="31.5" r="8.5" fill="#fff"/><path fill="#34ae72" d="M21 23h3v17h-3z"/><path fill="#4f4f4f" d="M16 47h5v7h-5z"/><path fill="#34ae72" d="M45 25h3v13h-3z"/><rect width="8" height="45" x="2" y="9" fill="#4f4f4f" rx="4" ry="4.219"/><path fill="#34ae72" d="M31 30v3H14v-3z"/><path fill="#34ae72" d="m29.571 36.444-2.121 2.122-12.02-12.021 2.12-2.122z"/><path fill="#34ae72" d="m15.43 36.444 2.12 2.122 12.021-12.021-2.121-2.122z"/><circle cx="22.5" cy="31.5" r="4.5" fill="#34ae72"/><path fill="#34ae72" d="M53 30v3H40v-3z"/><path fill="#34ae72" d="m52.156 35.03-2.121 2.121-9.193-9.192 2.122-2.121z"/><path fill="#34ae72" d="m40.842 35.03 2.122 2.121 9.192-9.192-2.121-2.121z"/><path fill="#4f4f4f" d="M24 47h5v7h-5zm8 0h5v7h-5z"/><path fill="#fff" d="M6 9c-2.216 0-4 1.882-4 4.219v1C2 11.882 3.784 10 6 10s4 1.882 4 4.219v-1C10 10.882 8.216 9 6 9m4.428 6a6 6 0 0 0-.428.021v1a5 5 0 0 1 .428-.021h46.144C59.58 16 62 18.453 62 21.5v-1c0-3.047-2.42-5.5-5.428-5.5z" opacity=".1"/></svg>