<svg xmlns="http://www.w3.org/2000/svg" viewBox="0 0 64 64"><rect width="56" height="56" x="4" y="5" opacity=".2" rx="28" ry="28"/><rect width="56" height="56" x="4" y="4" fill="#2869b6" rx="28" ry="28"/><path d="m32.144 6.4-3.24.37-4.006 1.098-.758.738 2.484 1.71v.98l-1.624.98 1.954 2.572.866-.488 1.082-1.716a37 37 0 0 0 4.76-1.836l1.14-3.308zm-7.676.244-1.398.2-.664.656-1.08.16-.97.454-.474.226-.284.386 1.406.242.54-.488 1.08-.24c.742-.362 1.488-.606 2.274-.86zm-6.386 2.938-.214.488.104 1.226-.862.736-.544 1.346h1.082l.544-1.22q.696-.5 1.406-.982l1.08.366 2.166 1.47 1.08-.98-1.19-.49-.542-1.1-2.056-.246-.108-.614-.974.246-.428.856zm27.71.98-2.05.492-1.304.856v.734l-2.052 1.348.43 1.958 1.196-.856.754.856.862.492.544-1.47-.324-.86.324-.612L45.36 12h.542l-.542 1.626v1.1c.496-.134 1.01-.18 1.52-.24l-1.412.974-.104.614-1.62 1.344-1.63-.364v-.98l-.76.488.33 1.138h-1.192l-.648.82-.812.918-1.458.308.864.852.22.86h-1.084l-1.374.734v2.206h.616l.594.672 1.352-.672.54-1.348.976-.612.214-.488 1.62-.368.868.976.974.492-.54 1.102.868-.246.428-1.098-1.08-1.226h.432l1.086.856.216 1.222.968 1.106.22-1.598.54-.242c.536.554.958 1.386 1.408 2.012l1.62.124.978.434-.434.614-.976.89h-1.402l-1.844-.644-.974.12-.7.798-2.002-2.02-1.41-.368-2.056.242-1.84.494c-1.032 1.168-2.908 2.332-3.886 3.546l-1.192 2.82.544.61-.972 1.468 1.08 2.574c.92 1.04 2.7 2.076 3.62 3.118l1.354-1.16.594.676 1.456-.92.488.646h2.466l.836.852-.52 1.684L44.36 42.7l-.056 2.02.76 1.472-.81 1.222c-.054.9-.054 1.794-.054 2.696.442 1.22 1.182 2.438 1.6 3.668l.298 1.41a28 28 0 0 0 5.25-3.942l-.742-.832 1.25-1.04 1.046-.738.544-.608-.324-1.352V43.25l1.112-2.082 1.188-1.348 1.3-3.18v-.86c-.64.08-1.264.148-1.89.192l1.294-1.292 1.784-1.226.976-1.1v-1.226l-.652-1.22-.862.974-.65-.73-.976-.738v-1.59l1.14 1.286 1.242-.184c.568.514 1.124 1.004 1.622 1.59l.126-.138a27.86 27.86 0 0 0-7.666-16.76c-.234-.24-.48-.5-.67-.688-.324-.316-.666-.612-1.004-.91l-.306.504-1.08 1.222L47.742 12h1.406l.648-.458-2.596-.488zm-30.584.04q-.24.176-.474.356l.212.952s-.992.11-1.564.184A27.86 27.86 0 0 0 4.05 32.028q.02.564.06 1.124l.34.548 2.272 1.346 2.274.614.968 1.226 1.516 1.1.868-.122.648.292v.2l-.864 2.324-.652.98.22.488-.7 1.836 2.1 3.552 1.392 1.71.864 1.222-.106 2.574.82.998a28 28 0 0 0 5.138 2.812l1.092-.384 1.3-2.69-.54-.736.752-1.522 1.426-.368.96-1.54-.312-2.444 1.978-1.836.218-1.836c-1.776-.88-4.02-1.788-5.78-2.696l-.868-1.714-1.62-.168-.864-2.024-2.164.246-1.84-2.14-1.95 2.004v.274c-.59-.17-1.312-.194-1.836-.516l-.438-1.222v-1.352l-1.296.124.328-2.57h-.758l-.758.98-.758.364-1.08-.61-.11-1.348.214-1.468 1.624-1.222h1.298l.214-.74 1.626.368 1.046 1.474.22-2.45 2.2-1.714.756-2.348L17 22.972l.868-.706 1.944-.372.974-1.464h-2.92l1.84-1.43h1.298l1.84-.6.214-.736-.652-.61-.754-.246.22-.734-.544-1.1-1.3.484.218-.978-1.516-.856-1.188 2.08.106.738-1.19.488-.76 1.59-.32-1.466-2.058-.86-.324-1.1L15.7 13.5l1.19-1.1.11-1.346-.648-.37zm21.16.874-1.568.488-.706-.12h-.004l-.11.734 1.04.488 1.996-.86zm-15.582.922-.864.614 1.082.734h.868v-.86zm17.092 2.816v.736l.434.492v1.1l-.22 1.47 1.194-.246.866-.856-.758-.734a22 22 0 0 0-.862-1.96zm-.428 1.47-.762.246.22 1.344.97-.484zM22.52 18.89l.324 1.708.648-.972zm28.25 9.548 1.246 1.406 1.46 3.12.864.98-.434 1.102.82.93c-.378.026-.752.056-1.14.056-.69-1.448-1.206-2.9-1.73-4.414l-1.204-1.04-.484-1.778z" opacity=".2"/><path fill="#64dd17" d="m32.146 5.4-3.244.37-4.004 1.099-.756.735 2.485 1.716v.979l-1.627.98 1.954 2.571.866-.49 1.082-1.713a38 38 0 0 0 4.758-1.838l1.14-3.306zm-7.68.246-1.397.2-.662.657-1.085.157-.967.455-.47.227-.288.385 1.406.243.54-.49 1.084-.242c.742-.361 1.485-.605 2.272-.86zm-6.383 2.936-.217.49.106 1.225-.864.735-.54 1.346h1.082l.542-1.223c.466-.329.93-.663 1.405-.98l1.083.369 2.163 1.468 1.082-.98-1.192-.49-.541-1.1-2.057-.247-.106-.613-.973.247-.433.856zm27.71.98-2.051.492-1.305.856v.735l-2.051 1.344.43 1.962 1.194-.858.756.858.864.49.54-1.469-.322-.858.322-.613L45.36 11h.542l-.542 1.624v1.102c.497-.135 1.008-.18 1.518-.244l-1.409.98-.106.612-1.621 1.345-1.627-.366v-.979l-.757.49.327 1.135h-1.193l-.646.822-.817.917-1.456.308.864.854.219.854h-1.084l-1.372.737v2.206h.616l.592.672 1.354-.672.539-1.347.976-.613.215-.49 1.623-.364.867.977.973.49-.542 1.102.868-.246.431-1.097-1.082-1.225h.434l1.083.854.216 1.224.97 1.102.217-1.593.543-.244c.535.554.955 1.386 1.406 2.012l1.621.123.977.434-.434.613-.974.89h-1.407l-1.841-.643-.973.12-.7.798-2.005-2.02-1.407-.367-2.058.244-1.84.49c-1.031 1.169-2.91 2.333-3.887 3.549l-1.19 2.818.542.61-.973 1.469 1.083 2.573c.92 1.04 2.698 2.078 3.616 3.12l1.357-1.163.594.675 1.456-.918.49.646h2.464l.835.853-.518 1.684L44.36 41.7l-.054 2.02.757 1.47-.81 1.224c-.052.9-.054 1.795-.054 2.696.444 1.221 1.182 2.436 1.6 3.667l.415 1.96v.981h.178l.592-.735h1.026c.382-.266.749-.551 1.117-.837l1.37-1.55-.268-.795 1.408-1.228-1.03-1.159 1.246-1.04 1.05-.738.542-.607-.325-1.353v-3.424l1.113-2.083 1.19-1.346 1.298-3.182v-.86c-.64.082-1.263.147-1.89.192l1.293-1.293 1.787-1.225.976-1.1V30.13l-.651-1.225-.867.98-.648-.734-.973-.736v-1.59l1.137 1.284 1.246-.183c.565.514 1.122 1.005 1.62 1.592l.123-.14a27.86 27.86 0 0 0-7.661-16.758c-.235-.242-.483-.501-.676-.69-.322-.315-.663-.612-1.001-.91l-.307.502-1.082 1.225L47.742 11h1.405l.651-.456-2.598-.49zm-30.585.04q-.239.177-.476.356l.213.952s-.988.108-1.56.182C7.64 16.21 4.006 23.643 4 31.975c.225.37.448.725.448.725l2.272 1.344 2.275.616.972 1.225 1.515 1.1.866-.12.648.293v.196l-.863 2.324-.651.982.215.49L11 42.983l2.103 3.552 1.389 1.71.865 1.224-.108 2.572 1.208 1.47-.357 1.553a28 28 0 0 0 3.965 2.254l.504-.502.323-.856 1.409-.492 1.299-2.692-.542-.734.756-1.521 1.423-.37.963-1.537-.312-2.445 1.976-1.836.219-1.839c-1.775-.88-4.018-1.786-5.782-2.693l-.867-1.714-1.621-.168-.864-2.023-2.163.244-1.84-2.14-1.95 2.005v.272c-.589-.17-1.313-.192-1.838-.514l-.434-1.225V33.19l-1.299.122q.162-1.284.328-2.57h-.756l-.76.98-.755.366-1.084-.61-.109-1.348.216-1.469 1.624-1.225h1.296l.216-.735 1.624.367 1.05 1.47.218-2.45 2.198-1.711.756-2.35 1.512-.054.868-.707 1.946-.37.973-1.467h-2.92L19.708 18h1.296l1.84-.602.216-.732-.651-.613-.756-.245.218-.734-.542-1.102-1.299.487.217-.98-1.516-.854-1.186 2.08.106.736-1.192.49-.756 1.59-.324-1.468-2.056-.859-.325-1.101L15.7 12.5l1.193-1.102.106-1.344-.648-.37zm21.16.874-1.568.49-.708-.123h-.003l-.11.735 1.04.49 1.997-.86zm-15.582.924-.864.612 1.081.735h.867v-.858zm17.094 2.814v.737l.434.49v1.102l-.218 1.468 1.191-.243.864-.859-.756-.733a22 22 0 0 0-.865-1.96Zm-.43 1.47-.76.245.218 1.346.97-.486zm-14.93 2.207.323 1.708.648-.976zm28.248 9.545 1.246 1.408 1.462 3.121.864.98-.434 1.1.822.933c-.378.025-.754.052-1.143.052-.689-1.448-1.207-2.897-1.73-4.41l-1.201-1.04-.488-1.777z"/><path fill="#fff" d="M32 4C16.488 4 4 16.488 4 32c0 .113.011.224.018.336C4.369 17.134 16.71 5 32 5s27.63 12.134 27.982 27.336c.007-.112.018-.223.018-.336C60 16.488 47.512 4 32 4" opacity=".2"/></svg>