<svg xmlns="http://www.w3.org/2000/svg" viewBox="0 0 16 16"><path fill="#26a2c1" d="M11.676 7.93 9.762 1 0 3.54 3.056 15l9.857-2.592L12 9.117l-1.465-.632a2.02 2.02 0 0 1-1.4.582 1.842 1.842 0 1 1 1.905-1.841 1.8 1.8 0 0 1-.052.43zM7.6 4.523a.9.9 0 0 0-.284.2v.009l.011.02c.159.137.397.348.673.629a2.2 2.2 0 0 0-.367.266 10 10 0 0 0-.604-.561l-.01-.009a1.7 1.7 0 0 0-.109.306s-.225-.791-.325-.991a3.8 3.8 0 0 0 1.015.131m-2.33 9.4a1.485 1.485 0 0 1-1.891-.652 1.39 1.39 0 0 1 1.151-1.422 10.6 10.6 0 0 1-.122-6.336L4.38 5.5a.9.9 0 0 0-.35-.024 3.7 3.7 0 0 0 .786-.639c.023.222.258 1.011.258 1.011a2 2 0 0 0-.239-.192 10.15 10.15 0 0 0 .134 6.089 1.336 1.336 0 0 1 1.628.7 1.444 1.444 0 0 1-1.332 1.475Zm5.445-1.46a1.485 1.485 0 0 1-1.892-.652 1.19 1.19 0 0 1 .728-1.232 10 10 0 0 0-1.037-.223l.324-.126L7.289 8.8a2.7 2.7 0 0 1-.445.155 3 3 0 0 1-.334.062l-.61 1.956h.332a2.35 2.35 0 0 0-.765.751 11 11 0 0 0-.267-1.077l.258.231.578-1.855A1.145 1.145 0 0 1 4.952 8.3a1.46 1.46 0 0 1 1.333-1.471l.021-.005a9 9 0 0 0-.736-.712l.342.063-.395-1.4a1.4 1.4 0 0 1-1.676-.7 1.46 1.46 0 0 1 1.332-1.468 1.485 1.485 0 0 1 1.891.652 1.37 1.37 0 0 1-1.11 1.407l.385 1.364.281-.175a1.93 1.93 0 0 0-.247.954 2.5 2.5 0 0 1 .427-.056 2.3 2.3 0 0 0-.037.41 2.39 2.39 0 0 0 1.91 2.313l.442.406.143-.3a2.1 2.1 0 0 0 .327.972 2.4 2.4 0 0 1 .567-.222h.012a11 11 0 0 0-.309-1.072 2.2 2.2 0 0 0 .413-.185 11 11 0 0 1 .342 1.189 1.246 1.246 0 0 1 1.432.725 1.444 1.444 0 0 1-1.332 1.475ZM12.546 8.4l-.066.145-1.312-.612-.234.488 1.318.614-.06.147 3.454 1.518.354-.782z" data-iconColor="Graphviz"/></svg>