<svg xmlns="http://www.w3.org/2000/svg" xml:space="preserve" viewBox="0 0 244.182 235.382"><path fill="#fca227" d="M168.623 202.681c-.062 0-3.499-2.562-7.637-5.695a31547 31547 0 0 0-20.288-15.338 35946 35946 0 0 1-15.67-11.842l-2.904-2.198-6.754 5.105-9.251 6.99a3709 3709 0 0 0-4.514 3.412l-8.546 6.467-8.584 6.497-5.444 4.122-3.39 2.564 10.774 8.245c14.96 11.448 29.348 22.214 29.93 22.613 1.18.81 2.844 1.47 4.261 1.69.367.057 1.215.084 1.887.06 1.809-.068 3.372-.526 4.899-1.434.656-.39 3.788-2.747 29.846-22.485 7.876-5.966 11.528-8.773 11.385-8.773"/><path fill="#fc6d27" d="M4.245 92.562c-1.59 4.017-2.898 8.897-3.569 13.32-.812 5.357-.896 11.4-.232 16.764 1.94 15.663 9.672 29.876 21.732 39.95.629.525 12.915 9.778 27.304 20.562l26.162 19.607 3.389-2.564 5.444-4.122 8.584-6.497 8.546-6.467c1.11-.84 3.14-2.375 4.514-3.412l9.251-6.99 6.754-5.105 2.904 2.198c1.597 1.21 8.649 6.538 15.67 11.842a31560 31560 0 0 1 20.288 15.338c4.138 3.133 7.575 5.695 7.637 5.695.143 0 52.031-38.899 53.222-39.899 6.677-5.608 11.762-11.968 15.586-19.49 3.85-7.576 5.997-15.27 6.657-23.866.126-1.638.126-6.86 0-8.659-.391-5.587-1.498-12.026-3.685-16.992l-.689-1.563-.268.092-2.19.489c-11.768 2.629-22.733 7.175-33.104 13.449-2.236 1.353-5.622 3.6-7.575 5.026-.79.578-17.843 13.465-37.893 28.638s-36.495 27.587-36.545 27.587-2.323-1.687-5.05-3.747L104.99 154.6l-29.786-22.517c-17.506-13.246-26.916-20.34-28.251-21.296A112.5 112.5 0 0 0 14.317 94.71c-1.992-.604-6.3-1.762-7.327-1.97-.816-.164-2.503-.545-2.533-.57-.055-.048.066-.31-.212.391"/><path fill="#e24329" d="M117.09 163.746c-2.728-2.06-8.172-6.176-12.1-9.145l-29.786-22.517c-17.507-13.246-26.917-20.339-28.252-21.295a112.5 112.5 0 0 0-32.636-16.078c-1.991-.604-6.3-1.761-7.326-1.969-.816-.165-2.503-.545-2.533-.571-.055-.048 33.272-86.847 33.585-87.47A8.67 8.67 0 0 1 42.517.573c1.165-.471 2.122-.618 3.658-.563 1.173.042 1.544.102 2.392.39 2.292.774 3.96 2.199 4.969 4.244.323.654 3.935 11.58 11.788 35.659l11.323 34.715 45.478.002 45.479.002.72-2.193c.397-1.205 5.524-16.903 11.395-34.884C186.545 17.04 190.532 4.99 190.78 4.52c1.029-1.964 2.8-3.427 5.034-4.16.857-.28 1.097-.31 2.609-.315 1.448-.006 1.773.027 2.494.254 1.58.496 2.71 1.174 3.784 2.268.939.958 1.533 1.976 2.25 3.854l16.72 43.672c8.857 23.134 16.077 42.088 16.045 42.12-.033.033-.154.074-.27.092-.115.017-1.1.237-2.189.489-11.75 2.713-22.733 7.176-33.104 13.45-2.236 1.352-5.622 3.599-7.575 5.025-.79.578-17.842 13.465-37.892 28.637s-36.495 27.587-36.546 27.587c-.05 0-2.323-1.686-5.05-3.746z"/></svg>