<svg xmlns="http://www.w3.org/2000/svg" fill-rule="evenodd" stroke-linejoin="round" stroke-miterlimit="2" clip-rule="evenodd" viewBox="0 0 24 24"><g fill="#00a672" data-iconColor="Gridsome"><path d="M22 12c0-5.519-4.481-10-10-10S2 6.481 2 12s4.481 10 10 10 10-4.481 10-10"/><path fill="#fff" fill-rule="nonzero" d="M14.514 12.068c0-.663.543-1.2 1.212-1.2l1.765-.001c.669 0 1.228.538 1.228 1.201s-.559 1.2-1.228 1.2h-1.765a1.206 1.206 0 0 1-1.212-1.2m-3.703.002a1.203 1.203 0 1 1 2.407 0 1.203 1.203 0 0 1-2.407 0"/><path fill="#fff" d="M13.183 6.453a1.17 1.17 0 0 1-1.123 1.22c-2.793.116-4.498 2.305-4.415 4.384a1.163 1.163 0 0 1-1.114 1.218 1.21 1.21 0 0 1-1.242-1.143c-.136-3.387 2.693-6.736 6.674-6.801a1.17 1.17 0 0 1 1.22 1.122"/><path fill="#fff" d="M5.285 12.006a6.664 6.664 0 0 0 6.77 6.713c4.009-.143 6.905-3.625 6.664-6.733a1.233 1.233 0 0 0-1.275-1.115 1.17 1.17 0 0 0-1.115 1.227c.09 1.889-1.652 4.202-4.331 4.277-2.129.052-4.26-1.619-4.353-4.22a1.163 1.163 0 0 1-1.114 1.12 1.21 1.21 0 0 1-1.242-1.143z"/></g></svg>