<svg xmlns="http://www.w3.org/2000/svg" xmlns:xlink="http://www.w3.org/1999/xlink" viewBox="0 0 96 96"><defs><linearGradient id="b" x1="50%" x2="50%" y1="0%" y2="100%"><stop offset="0%" stop-color="#ffe9bf"/><stop offset="100%" stop-color="#f7d9a6"/></linearGradient><linearGradient id="c" x1="50%" x2="50%" y1="0%" y2="100%"><stop offset="0%" stop-color="#8f6100"/><stop offset="100%" stop-color="#563200"/></linearGradient><filter id="a" width="131.6%" height="131.6%" x="-15.8%" y="-15.8%" filterUnits="objectBoundingBox"><feOffset dy="2" in="SourceAlpha" result="shadowOffsetOuter1"/><feGaussianBlur in="shadowOffsetOuter1" result="shadowBlurOuter1" stdDeviation="2"/><feColorMatrix in="shadowBlurOuter1" result="shadowMatrixOuter1" values="0 0 0 0 0 0 0 0 0 0 0 0 0 0 0 0 0 0 0.2 0"/><feMerge><feMergeNode in="shadowMatrixOuter1"/><feMergeNode in="SourceGraphic"/></feMerge></filter></defs><g fill="none" filter="url(#a)" transform="translate(10 10)"><rect width="76" height="76" fill="url(#b)" rx="10"/><path fill="url(#c)" d="M35 5c2-4 5.501-2.748 5.526-2.738.841.171 1.474.92 1.474 1.817a1.85 1.85 0 0 1-1.842 1.854 1.85 1.85 0 0 1-1.842-1.854q.001-.318.1-.603C37.332 3.75 36 5 35.59 5.917l-4.774 6.726q.062-.02.131-.036c2.119-.506 6.16-.46 5.895 4.078-.21 1.056-1.117 1.854-2.21 1.854a2.217 2.217 0 0 1-2.21-2.224 2.22 2.22 0 0 1 1.697-2.165c-1.038-.892-3.277-.835-3.799-.808l-5.267 7.422 16.579-.37v2.224l-2.948 3.708v20.022l-6.263-4.45c-4.268 2.15-8.081 3.004-11.421 3.048v7.706h2.609c.204-1.258 1.432-2.225 2.917-2.225s2.714.967 2.918 2.225h5.385a1.471 1.471 0 0 1 2.75.741 1.471 1.471 0 0 1-2.75.742H29.19c-.473.877-1.488 1.483-2.664 1.483-1.175 0-2.19-.606-2.663-1.483H21v6.863c1.08.385 1.842 1.317 1.842 2.406 0 1.434-1.32 2.596-2.947 2.596s-2.948-1.162-2.948-2.596c0-1.089.762-2.021 1.842-2.406v-6.863h-2.862c-.473.877-1.488 1.483-2.664 1.483s-2.19-.606-2.664-1.483H4.961a1.471 1.471 0 0 1-2.75-.742 1.47 1.47 0 0 1 2.75-.741h5.385c.204-1.258 1.432-2.225 2.917-2.225s2.713.967 2.918 2.225h2.608v-7.797c-4.021-.386-7.251-1.931-9.65-3.601-3.139 5.094-5.564 4.02-5.59 4.013a1.85 1.85 0 0 1-1.625-1.68 1.85 1.85 0 0 1 1.674-2.01 1.846 1.846 0 0 1 1.996 1.686c.018.21 1.406-.263 2.58-2.72-2.722-2.12-4.121-4.206-4.121-4.206S-4.79 24.843 4.789 9.64C16.211-7.045 35 5 35 5m-2.947 22.438H21v7.328c3.08-4.58 7.119-3.517 7.154-3.504a2.584 2.584 0 0 1 2.057 2.536 2.58 2.58 0 0 1-2.571 2.587 2.58 2.58 0 0 1-2.571-2.587q.002-.444.139-.842c-1.26.415-2.366 1.898-2.734 2.269-.26.26-.883 1.072-1.359 1.659l-.115.142v5.614s4.985 1.075 10.754-2.41l.299-.185zm-13.264 1.854-6.631 8.899s2.21 2.596 6.631 4.079zM5.526 10.382S-5.526 30.404 11.79 41.157l-.063-.047c-.993-.762-13.273-10.683-6.2-30.728m30.21 13.72H23.212l-1.843 1.853h12.527v14.832h1.842zM18.422 4.078s-.367.138-.972.434l-.254.126C14.177 6.17 6.632 10.975 6.632 20.764c0 9.376 3.554 14.361 4.005 14.956l.035.046.012.015 7.737-10.197V19.54c-.966-.547-2.656-1.348-3.932-1.11a2.776 2.776 0 0 1 .491 3.387 2.734 2.734 0 0 1-3.748 1.01c-1.175-.682-1.659-2.107-1.233-3.373 2.303-4.621 6.166-2.931 8.309-1.18l.113.094zM21 3.708v19.28L32.421 7.417S27.631 3.337 21 3.708" transform="translate(18 6)"/></g></svg>