<svg xmlns="http://www.w3.org/2000/svg" viewBox="0 0 24 24"><path fill="#536076" d="M12 6v9.023h3.002c.939 0 1.769-.372 2.299-.959.53-.586.709-1.336.699-2.066s-.206-1.466-.732-2.043c-.53-.577-1.35-.955-2.27-.955h-2.002V6zM6.006 7l-.008 1h3.008a1 1 0 0 1 1 1v1.018H8.002c-1.716 0-2.94.74-3.002 2.484-.022 1.22.434 2.447 3.002 2.521h3.004v-5.93c0-1.17-.887-2.081-2.084-2.081zM13 10h2.002a2.012 2.012 0 0 1 0 4.023H13zm-5.454 1 2.46.018v3.005l-2.46-.017a1.502 1.502 0 0 1-.239-2.989q.12-.017.239-.017m-.544 4.293-2.354 2.353a.5.5 0 1 0 .707.708l1.647-1.647 2 2 2-2 2 2 2-2 2 2 2.353-2.353a.5.5 0 1 0-.707-.708l-1.646 1.647-2-2-2 2-2-2-2 2z"/></svg>