<svg xmlns="http://www.w3.org/2000/svg" viewBox="0 0 24 24"><path fill="#536076" d="m15.123 7.617 1.262 1.263.493-.49-1.265-1.265zm.488-1.615c.182 0 .365.071.506.213l1.67 1.67a.71.71 0 0 1 0 1.011l-1.404 1.397-2.672-2.674 1.396-1.404a.7.7 0 0 1 .504-.213m-2.86 3.992L7 15.744v1.258h1.258l5.751-5.75zM12.75 8.58l2.674 2.672-6.752 6.75H6V15.33zm2.302 5.042 3.657 3.655a1.006 1.006 0 0 1-1.305 1.526l-.101-.088-3.67-3.67 1.237-1.237q.092-.086.182-.186M10.49 4.996a5.5 5.5 0 0 1 2.954.86l-.731.718a4.5 4.5 0 0 0-2.223-.578 4.48 4.48 0 0 0-4.5 4.5c0 .787.198 1.525.547 2.166l-.727.716a5.46 5.46 0 0 1-.82-2.882c0-3.025 2.471-5.5 5.5-5.5"/></svg>