<svg xmlns="http://www.w3.org/2000/svg" viewBox="0 0 24 24"><g fill="#536076"><path d="m10.992 5.02.01 5.74c.51-.44 1.17-.71 1.871-.71h.125l-.008-5.03zm-1.434 6 .62.902c.129-.334.32-.64.557-.902zm5.277-.54.821-.43h-.523zM9 10.02h1l-.002-.999L9.99 4.02h3.998l.01 6h2.375l-.717 1.03h-2.783c-.974 0-1.875.834-1.875 1.845v1.986l-3.34-4.861z"/><path d="M16.459 12.05c.308 0 .547.356.547.845v5.218c0 .488-.24.844-.547.844h-3.906c-.308 0-.547-.356-.547-.844v-5.218c0-.489.239-.844.547-.844zm-.453.97h-3v1h1v3h-1v1h3v-1h-1v-3h1zM5 18v1h6.258c-.157-.135-.256-.287-.256-.45V18z"/></g></svg>