<svg xmlns="http://www.w3.org/2000/svg" viewBox="0 0 64 64"><path d="M13.273 5c-1.06 0-1.964.778-2.132 1.836-1.964 12.339-1.223 22.056.937 29.637.037.128.08.232.117.355 1.21 4.12 2.833 7.615 4.672 10.535a37 37 0 0 0 3.063 4.188l.002.004c4.604 5.441 9.61 8.109 12.113 9.252a2.13 2.13 0 0 0 1.65.052c4.124-1.573 10.22-6.066 14.92-14.713 3.802-6.993 6.58-16.676 6.373-29.554 0-.042-.006-.08-.007-.121a94 94 0 0 0-.665-9.55A2.16 2.183 0 0 0 52.174 5h-8.791z" opacity=".2"/><path fill="#3f51b5" d="M13.273 4a2.17 2.17 0 0 0-2.133 1.837c-1.963 12.339-1.222 22.055.938 29.636 1.22 4.282 3.145 5.662 5.04 8.67.977 1.55 1.758 5.162 2.812 6.408 4.605 5.444 9.61 8.112 12.114 9.255a2.14 2.14 0 0 0 1.652.053c4.124-1.573 10.219-6.067 14.919-14.713 3.801-6.994 6.58-16.675 6.374-29.553-.048-3.043-2.254-4.888-2.662-8.295-.13-1.096.537-1.99-.556-1.99L43.53 4Z"/><path fill="#fff" d="M13.273 4c-1.06 0-1.964.778-2.132 1.836-.795 4.996-1.142 9.556-1.135 13.725.047-3.895.403-8.127 1.135-12.725A2.17 2.17 0 0 1 13.273 5H43.53l8.242 1.307c.327 0 .485.089.565.23.08-.72.26-1.23-.565-1.23L43.53 4zm39.075 3.43a3.5 3.5 0 0 0-.02.867c.408 3.407 2.612 5.252 2.66 8.295.008.493.005.974.004 1.459q.017-1.21-.004-2.46c-.048-3.002-2.191-4.84-2.64-8.161" opacity=".1"/><path d="M43.383 5 12.248 35.996c1.204 4.047 2.805 7.488 4.62 10.367a37 37 0 0 0 3.062 4.188l.002.004c.155.183.312.356.468.533l34.586-34.432a94 94 0 0 0-.67-9.734A2.16 2.183 0 0 0 52.174 5z" opacity=".2"/><path fill="#fff" d="M43.382 4 12.016 35.227c1.226 4.387 2.921 8.074 4.85 11.137a37 37 0 0 0 3.066 4.191l35.054-34.898a94 94 0 0 0-.67-9.735A2.16 2.183 0 0 0 52.174 4Z"/></svg>