<svg xmlns="http://www.w3.org/2000/svg" xmlns:xlink="http://www.w3.org/1999/xlink" viewBox="0 0 96 96"><defs><linearGradient id="b" x1="50%" x2="50%" y1="0%" y2="100%"><stop offset="0%" stop-color="#bbc263"/><stop offset="100%" stop-color="#788318"/></linearGradient><linearGradient id="c" x1="50%" x2="50%" y1="0%" y2="100%"><stop offset="0%" stop-color="#fff"/><stop offset="100%" stop-color="#fff" stop-opacity=".497"/></linearGradient><linearGradient id="d" x1="50%" x2="50%" y1="0%" y2="100%"><stop offset="0%" stop-color="#fff"/><stop offset="100%" stop-color="#fff" stop-opacity=".497"/></linearGradient><linearGradient id="e" x1="50%" x2="50%" y1="0%" y2="100%"><stop offset="0%" stop-color="#757575"/><stop offset="100%" stop-color="#fff" stop-opacity=".625"/></linearGradient><linearGradient id="f" x1="50%" x2="50%" y1="0%" y2="100%"><stop offset="0%" stop-color="#d1e332" stop-opacity=".184"/><stop offset="100%" stop-color="#efff62"/></linearGradient><linearGradient id="g" x1="50%" x2="50%" y1="0%" y2="100%"><stop offset="0%" stop-color="#fff355"/><stop offset="100%" stop-color="#ffc233"/></linearGradient><linearGradient id="h" x1="50%" x2="50%" y1="0%" y2="100%"><stop offset="0%" stop-color="#75a5d5"/><stop offset="100%" stop-color="#3c71b6"/></linearGradient><linearGradient id="i" x1="50%" x2="50%" y1="0%" y2="100%"><stop offset="0%" stop-color="#75a5d5"/><stop offset="100%" stop-color="#3c71b6"/></linearGradient><linearGradient id="j" x1="50%" x2="50%" y1="0%" y2="100%"><stop offset="0%" stop-color="#75a5d5"/><stop offset="100%" stop-color="#3c71b6"/></linearGradient><filter id="a" width="133.8%" height="132%" x="-16.9%" y="-16%" filterUnits="objectBoundingBox"><feOffset dy="2" in="SourceAlpha" result="shadowOffsetOuter1"/><feGaussianBlur in="shadowOffsetOuter1" result="shadowBlurOuter1" stdDeviation="2"/><feColorMatrix in="shadowBlurOuter1" result="shadowMatrixOuter1" values="0 0 0 0 0 0 0 0 0 0 0 0 0 0 0 0 0 0 0.2 0"/><feMerge><feMergeNode in="shadowMatrixOuter1"/><feMergeNode in="SourceGraphic"/></feMerge></filter></defs><g fill="none" fill-rule="evenodd" filter="url(#a)" transform="translate(9 9)"><path fill="url(#b)" d="M8 19v44a2 2 0 0 0 2 2h4v8a2 2 0 0 0 2 2h45.84a2 2 0 0 0 2-1.96L64 65h4a2 2 0 0 0 2-2V19a4 4 0 0 0-4-4H12a4 4 0 0 0-4 4"/><g transform="translate(12 20)"><rect width="32" height="16" x="3" y="3" fill="#4d5250" rx="2"/><path fill="#838380" stroke="#979797" d="M5.5 5.5h27v11h-27z"/><path fill="url(#c)" d="M6.5 0a.5.5 0 0 1 .5.5v4a.5.5 0 0 1-1 0v-4a.5.5 0 0 1 .5-.5m4 0a.5.5 0 0 1 .5.5v4a.5.5 0 1 1-1 0v-4a.5.5 0 0 1 .5-.5m4 0a.5.5 0 0 1 .5.5v4a.5.5 0 1 1-1 0v-4a.5.5 0 0 1 .5-.5m4 0a.5.5 0 0 1 .5.5v4a.5.5 0 1 1-1 0v-4a.5.5 0 0 1 .5-.5m4 0a.5.5 0 0 1 .5.5v4a.5.5 0 1 1-1 0v-4a.5.5 0 0 1 .5-.5m4 0a.5.5 0 0 1 .5.5v4a.5.5 0 1 1-1 0v-4a.5.5 0 0 1 .5-.5m4 0a.5.5 0 0 1 .5.5v4a.5.5 0 1 1-1 0v-4a.5.5 0 0 1 .5-.5"/><path fill="url(#d)" d="M-1.5 9a.5.5 0 0 1 .5.5v4a.5.5 0 1 1-1 0v-4a.5.5 0 0 1 .5-.5m4 0a.5.5 0 0 1 .5.5v4a.5.5 0 1 1-1 0v-4a.5.5 0 0 1 .5-.5m4 0a.5.5 0 0 1 .5.5v4a.5.5 0 1 1-1 0v-4a.5.5 0 0 1 .5-.5" transform="matrix(0 1 1 0 -9 9)"/><path fill="url(#d)" d="M31.5 9a.5.5 0 0 1 .5.5v4a.5.5 0 1 1-1 0v-4a.5.5 0 0 1 .5-.5m4 0a.5.5 0 0 1 .5.5v4a.5.5 0 1 1-1 0v-4a.5.5 0 0 1 .5-.5m4 0a.5.5 0 0 1 .5.5v4a.5.5 0 1 1-1 0v-4a.5.5 0 0 1 .5-.5" transform="rotate(90 35.5 11.5)"/><path fill="url(#e)" d="M6.5 17a.5.5 0 0 1 .5.5v4a.5.5 0 1 1-1 0v-4a.5.5 0 0 1 .5-.5m4 0a.5.5 0 0 1 .5.5v4a.5.5 0 1 1-1 0v-4a.5.5 0 0 1 .5-.5m4 0a.5.5 0 0 1 .5.5v4a.5.5 0 1 1-1 0v-4a.5.5 0 0 1 .5-.5m4 0a.5.5 0 0 1 .5.5v4a.5.5 0 1 1-1 0v-4a.5.5 0 0 1 .5-.5m4 0a.5.5 0 0 1 .5.5v4a.5.5 0 1 1-1 0v-4a.5.5 0 0 1 .5-.5m4 0a.5.5 0 0 1 .5.5v4a.5.5 0 1 1-1 0v-4a.5.5 0 0 1 .5-.5m4 0a.5.5 0 0 1 .5.5v4a.5.5 0 1 1-1 0v-4a.5.5 0 0 1 .5-.5" transform="matrix(1 0 0 -1 0 39)"/></g><path fill="#fff" fill-opacity=".32" fill-rule="nonzero" d="M59 27v7h-6v3.041l9 7.733V56l-38-.001V56H13v-2h9v-7h30V33h6v-6zm-6 11.358V49H24v6h37v-9.775z"/><path fill="url(#f)" d="M19 63a1 1 0 0 1 1 1v8a1 1 0 0 1-1 1h-2a1 1 0 0 1-1-1v-8a1 1 0 0 1 1-1zm30 0a1 1 0 0 1 1 1v8a1 1 0 0 1-1 1h-2a1 1 0 0 1-1-1v-8a1 1 0 0 1 1-1zm-24 0a1 1 0 0 1 1 1v8a1 1 0 0 1-1 1h-2a1 1 0 0 1-1-1v-8a1 1 0 0 1 1-1zm30 0a1 1 0 0 1 1 1v8a1 1 0 0 1-1 1h-2a1 1 0 0 1-1-1v-8a1 1 0 0 1 1-1zm-24 0a1 1 0 0 1 1 1v8a1 1 0 0 1-1 1h-2a1 1 0 0 1-1-1v-8a1 1 0 0 1 1-1zm30 0a1 1 0 0 1 1 1v8a1 1 0 0 1-1 1h-2a1 1 0 0 1-1-1v-8a1 1 0 0 1 1-1zm-24 0a1 1 0 0 1 1 1v8a1 1 0 0 1-1 1h-2a1 1 0 0 1-1-1v-8a1 1 0 0 1 1-1zm6 0a1 1 0 0 1 1 1v8a1 1 0 0 1-1 1h-2a1 1 0 0 1-1-1v-8a1 1 0 0 1 1-1z"/><path fill="url(#g)" d="M8 37.277c0 8.837 7.163 16 16 16 4.66 0 8.855-1.992 11.78-5.172-1.357 8.598-8.8 15.172-17.78 15.172-9.941 0-18-8.059-18-18C0 38.09 4.214 31.885 10.306 29A15.9 15.9 0 0 0 8 37.277"/><path fill="url(#h)" d="M38 3v6h8.5L38 17.5V22h16v-6h-7l7-7V3z"/><path fill="url(#i)" d="M56 1v3.158h4.25L56 8.632V11h8V7.842h-3.5L64 4.158V1z"/><path fill="url(#j)" d="M66 0v1.895h2.656L66 4.579V6h5V4.105h-2.187L71 1.895V0z"/></g></svg>