<svg xmlns="http://www.w3.org/2000/svg" viewBox="0 0 64 64"><rect width="56" height="36" x="4" y="26" opacity=".2" rx="2.8" ry="2.769"/><rect width="56" height="36" x="4" y="25" fill="#4f4f4f" rx="2.8" ry="2.769"/><circle cx="20" cy="44" r="12" opacity=".2"/><circle cx="44" cy="44" r="12" opacity=".2"/><circle cx="20" cy="43" r="12" fill="#e4e4e4"/><circle cx="20" cy="43" r="5" fill="#4f4f4f"/><rect width="56" height="22" x="4" y="4" opacity=".2" rx="2.8" ry="3.143"/><rect width="56" height="22" x="4" y="3" fill="#4f4f4f" rx="2.8" ry="3.143"/><rect width="48" height="14" x="8" y="8" opacity=".2" rx="2.987" ry="3.148"/><rect width="48" height="14" x="8" y="7" fill="#63a535" rx="2.987" ry="3.148"/><circle cx="15" cy="14" r="3" fill="#4f4f4f"/><path fill="#983a0e" d="M46 11h6v6h-6z"/><path fill="#f7bf32" d="M48 13h2v2h-2z"/><circle cx="23" cy="14" r="3" fill="#4f4f4f"/><circle cx="31" cy="14" r="3" fill="#4f4f4f"/><circle cx="44" cy="43" r="12" fill="#e4e4e4"/><circle cx="44" cy="43" r="5" fill="#4f4f4f"/><path fill="#fff" d="M6.8 3C5.25 3 4 4.403 4 6.145v1C4 5.403 5.25 4 6.8 4h50.4C58.75 4 60 5.403 60 7.145v-1C60 4.403 58.75 3 57.2 3z" opacity=".1"/><path fill="#fff" d="M10.988 7C9.333 7 8 8.405 8 10.148v1C8 9.405 9.333 8 10.988 8h42.024C54.667 8 56 9.405 56 11.148v-1C56 8.405 54.667 7 53.012 7z" opacity=".1"/></svg>