<svg xmlns="http://www.w3.org/2000/svg" viewBox="0 0 64 64"><circle cx="32" cy="33" r="28" opacity=".2"/><circle cx="32" cy="32" r="28" fill="#f37b21"/><path fill="#fff" d="M32 4A28 28 0 0 0 4 32a28 28 0 0 0 .035.5A28 28 0 0 1 32 5a28 28 0 0 1 27.982 27.252L60 32A28 28 0 0 0 32 4" opacity=".2"/><path d="M32 11a22 22 0 0 0-22 22 22 22 0 0 0 22 22 22 22 0 0 0 22-22 22 22 0 0 0-22-22m-8 8h6.641l8.939 21.811 4.67-1.881 1.49 3.72L37.391 46h-.01l-5.83-14.23L21.34 47 18 44.99l11.711-17.701L27.949 23H24z" opacity=".2"/><path fill="#fff" d="M32 10a22 22 0 0 0-22 22 22 22 0 0 0 22 22 22 22 0 0 0 22-22 22 22 0 0 0-22-22m-8 8h6.641l8.939 21.811 4.67-1.881 1.49 3.72L37.391 45h-.01l-5.83-14.23L21.34 46 18 43.99l11.711-17.701L27.949 22H24z"/></svg>