<svg xmlns="http://www.w3.org/2000/svg" viewBox="0 0 64 64"><circle cx="32" cy="33" r="28" opacity=".2"/><circle cx="32" cy="32" r="28" fill="#522f17"/><path fill="#fff" d="M32 4A28 28 0 0 0 4 32a28 28 0 0 0 .035.5A28 28 0 0 1 32 5a28 28 0 0 1 27.982 27.252L60 32A28 28 0 0 0 32 4" opacity=".1"/><path d="M32 11a22 22 0 0 0-22 22 22 22 0 0 0 22 22 22 22 0 0 0 22-22 22 22 0 0 0-22-22m-8 8h6.641l8.939 21.811 4.67-1.881 1.49 3.72L37.391 46h-.01l-5.83-14.23L21.34 47 18 44.99l11.711-17.701L27.949 23H24z" opacity=".2"/><path fill="#a38976" d="M32 10a22 22 0 0 0-22 22 22 22 0 0 0 22 22 22 22 0 0 0 22-22 22 22 0 0 0-22-22m-8 8h6.641l8.939 21.811 4.67-1.881 1.49 3.72L37.391 45h-.01l-5.83-14.23L21.34 46 18 43.99l11.711-17.701L27.949 22H24z"/><circle cx="47" cy="48" r="15" opacity=".2"/><circle cx="47" cy="47" r="15" fill="#42a1cd"/><path fill="#fff" d="M46.13 51c.36-.47.99-.95 1.66-1.48.67-.52 1.43-1.11 2.08-1.95.64-.85 1.12-2.01 1.12-3.37 0-1.87-1.09-3.18-2.07-3.7s-1.93-.5-1.93-.5H47s-.94-.02-1.93.5c-.95.5-1.98 1.74-2.06 3.5h2.68c.13-1.19 1.31-1.2 1.31-1.2s1.33 0 1.33 1.4c0 .74-.19 1.15-.54 1.62-.36.47-.92.94-1.59 1.46s-1.43 1.11-2.08 1.95c-.64.85-1.12 2.01-1.12 3.37V54h8v-3"/></svg>