<svg xmlns="http://www.w3.org/2000/svg" viewBox="0 0 22 22"><path fill="currentColor" d="M4.96 2C3.875 2 3 2.875 3 3.96v14.08C3 19.126 3.875 20 4.96 20h6.079c1.087 0 1.96-.874 1.96-1.96V3.96A1.954 1.954 0 0 0 11.04 2H7zM5 3h1c0 .554.446 1 1 1h2c.554 0 1-.446 1-1h1c.554 0 1 .446 1 1v14c0 .554-.446 1-1 1H5c-.554 0-1-.446-1-1V4c0-.554.446-1 1-1m10 1v1a4 4 0 0 1 0 8v1a5 5 0 0 0 0-10m0 2v1a2 2 0 1 1 0 4v1a3 3 0 1 0 0-6m0 2a1 1 0 1 0 0 2 1 1 0 0 0 0-2" class="ColorScheme-Text"/><rect width="4" height=".5" x="5" y="18.5" fill="currentColor" class="ColorScheme-Text" opacity=".5" rx=".25" ry=".25" transform="translate(1 -1)"/></svg>