<svg xmlns="http://www.w3.org/2000/svg" viewBox="0 0 64 64"><circle cx="32" cy="33" r="28" opacity=".2"/><circle cx="32" cy="32" r="28" fill="#5d2ad7"/><path d="M19 11a2 2 0 0 0-2 2v40a2 2 0 0 0 2 2h26a2 2 0 0 0 2-2V13a2 2 0 0 0-2-2zm2 4h22v36H21V22Zm0 7a7 7 0 0 0 7 7 7 7 0 0 0 7-7 7 7 0 0 0-7-7 7 7 0 0 0-7 7m0 18c0 6.051 4.949 11 11 11s11-4.949 11-11-4.949-11-11-11-11 4.949-11 11m11-7c3.89 0 7 3.11 7 7s-3.11 7-7 7-7-3.11-7-7 3.11-7 7-7" opacity=".2"/><path fill="none" stroke="#fff" stroke-linecap="round" stroke-linejoin="round" stroke-width="4" d="M19 12h26v40H19Z"/><circle cx="32" cy="39" r="9" fill="none" stroke="#b388ff" stroke-linecap="round" stroke-linejoin="round" stroke-width="4"/><circle cx="28" cy="21" r="7" fill="#fff"/><path fill="#fff" d="M32 4A28 28 0 0 0 4 32a28 28 0 0 0 .035.5A28 28 0 0 1 32 5a28 28 0 0 1 27.982 27.252L60 32A28 28 0 0 0 32 4" opacity=".1"/></svg>