<svg xmlns="http://www.w3.org/2000/svg" xmlns:xlink="http://www.w3.org/1999/xlink" viewBox="0 0 96 96"><defs><radialGradient id="b" cx="42.936%" cy="45.093%" r="55.36%" fx="42.936%" fy="45.093%"><stop offset="0%" stop-color="#39e1fb"/><stop offset="100%" stop-color="#002d81"/></radialGradient><radialGradient id="e" cx="42.065%" cy="42.526%" r="59.439%" fx="42.065%" fy="42.526%" gradientTransform="matrix(.04387 .96597 -.99904 .04241 .827 0)"><stop offset="0%" stop-color="#fdfdfd"/><stop offset="100%" stop-color="#fafafa" stop-opacity=".727"/></radialGradient><linearGradient id="c" x1="2.738%" x2="76.285%" y1="40.143%" y2="59.612%"><stop offset="0%" stop-color="#154383"/><stop offset="100%" stop-color="#2a67b3"/></linearGradient><linearGradient id="d" x1="76.96%" x2="50%" y1="14.27%" y2="100%"><stop offset="0%" stop-color="#2a67b3"/><stop offset="100%" stop-color="#03224e"/></linearGradient><filter id="a" width="128.9%" height="129.3%" x="-14.5%" y="-14.6%" filterUnits="objectBoundingBox"><feOffset dy="2" in="SourceAlpha" result="shadowOffsetOuter1"/><feGaussianBlur in="shadowOffsetOuter1" result="shadowBlurOuter1" stdDeviation="2"/><feComposite in="shadowBlurOuter1" in2="SourceAlpha" operator="out" result="shadowBlurOuter1"/><feColorMatrix in="shadowBlurOuter1" result="shadowMatrixOuter1" values="0 0 0 0 0 0 0 0 0 0 0 0 0 0 0 0 0 0 0.2 0"/><feMerge><feMergeNode in="shadowMatrixOuter1"/><feMergeNode in="SourceGraphic"/></feMerge></filter></defs><g fill="none" fill-rule="evenodd" filter="url(#a)" transform="translate(7 7)"><circle cx="41" cy="41" r="41" fill="url(#b)"/><path fill="url(#c)" d="M.053 38.907Q15.869 48 39.325 48q27.5 0 43-7l-.325.145C81.93 61.348 67.247 78.11 47.97 81.41a71 71 0 0 1-7.986.577C17.809 81.447 0 63.304 0 41q0-1.02.05-2.026Z" opacity=".485"/><path fill="url(#d)" d="M65.754 8.313C75.624 15.8 82 27.656 82 41c0 22.644-18.356 41-41 41a40.84 40.84 0 0 1-26.507-9.72q22.462-3.305 36.832-21.78 15.93-20.481 14.459-41.79Z" opacity=".485"/><path fill="url(#e)" d="M30 77.14c1.5.5 2.5-.5 3 .5q.5 1 0 2.5-2-.5-2 0c0 .5 4.5.5 4.5.5l1 .5 2-1.5q1-1.5 1-1c0 .5.5 0 1 .5s.5-.5 1-.5 3-.5 3.5 0-1 1.5.5 1q1.5-.5 2-1 .5-1 1.5-.5c1 .5 1.5 0 2.5 0s2.5-1 2.5-.5c0 .376-.282 1.599-.423 2.396A41 41 0 0 1 41 82c-3.78 0-7.439-.511-10.914-1.469.117-.174.273-.532-.086-.891-.5-.5-1.5 0-2-.5s-1-1.5-1-2 1 .5 1.5.5 0-1 1.5-.5M24.5 5H22l-1.5 1.5Q18 7 18.5 8t2 1L22 6.5h5V5l1-1.5h1.5L28 5v3q0 1-2 2-1.5-.5-1.5 0T22 11l1 1h1.5l1.5-1q1.5 1 0 1c-1.5 0-3 1-3 1l.006-.013c.053-.115.39-.918-1.006.013-1.5 1-2.5.5-3.5 1.5s-1 1.5-2 2.5-3 2-3 2.5-1 1-1 1-1-3-1 0q0 3-1 3l-1.5 1v-2q.5-1-1-1c-1.5 0-2.5 1-2.5 2s-2 .5-2 2-1 3.5 0 3.5 1.5-2.5 3-2.5 0 .5 0 1.5v5S7 34.5 8 34.5s4.5-1.5 4.5-1.5h.032c.297.007 2.568.1 3.968 1.5C18 36 22 37 22 37l2.5 2.5v3H28q1.5 0 1.5 1.5 3.5 1 4 1t2 .5l-1 3q.5.5-1 1.5t0 5q-1 1.5-1.5 1.5c-.5 0 0 1.5-2.5 1.5S26 57 26 58s-1 1 0 2 1 2 1 2l-.016.023L26 63.5 23 65l1.5 1.5-1.5 1q-1-1-1 0t-1.5 3l2.5 2q1.5 3-1 2c-2.5-1-3.5.5-3.5-2s-2-3-2-4-2-1-1-3.5-2-7-2-7 2.5-3 0-3-4.5.5-4.5-4-2.5-4-2.5-5.5.5-2 1.5-4 0-1.5 0-3S9.5 36 8 36q-1.5 0-2.5-1.5V33L2 30.5a3 3 0 0 1-.67.1C4.55 18.285 13.352 8.228 24.87 3.295Q25.253 5 24.5 5m40.289 2.604.425.307c7.405 5.428 12.921 13.282 15.376 22.391l-.09.198-2 2.5-.5-2-3.297-4.71L74.5 26v-1l-2-2.5-3.5-1q.5 1 3 2.5t6 9q1 2.5 1 3c0 .5-.5 2.5-.5 2.5l-.012.025L77.5 40.5q.5.5.5 1c0 .5-1 1.5-1.5 1.5s0 2 0 2l-1.899 6.646L74.5 52l-1 2-1 1.5-.451 2.256L72 58h-2c-.5 0 .5 1.5.5 2.5q0 .916-.84 1.413L69.5 62 68 63l-1 1.5s-2.5-.5-3-.5-1 0-.5-3.5-.5-1-.5-1.5 2.5-1 1.5-2-.5-1.5-.5-3.5c0-1.913.915-3.826.994-4.426L65 49v-1.5c0-1 .5-1.5.5-2.5s-.5-.5-1-1.5-1.5-2-1.5-2.5c0-.475.451-.499.496-1.786L63.5 39v-1.5c0-1-4-.5-4-1q0-.5-2 0l-1 1s-.5 0-1.5-.5-1 1-1.5 1.5c-.475.475-.95-.404-1.425-.922L52 37.5l-1-1c-.5-.5-3-.5-3-1s.5-1.5 1-2-1-1-2-1.5-1-1.5 0-1.5 0-1 0-1.5-1.5-1.5-1.5-2.5 1-1 1.5-2c.444-.889.494-.593.5-.867v-1.248c.003-.388.042-.427.5-.885.5-.5 1 0 2 0s0-.5 0-1 .5-.5 1-2.5c.157-.629.512-.911.924-1.004l.059-.011-.108-.09c-.417-.29-.833 0-1.25-.29L50.5 16.5c-.5-.5-1.5-.5-1.5-1q0-.467-.436-2.24L48.5 13h3s.5-.5.5-1-.5 0-.5 0l-.077-.02c-.366-.09-1.923-.48-1.923-.48s0-.5-.5-1q-.5-.5 0-.5l-.5-2 1.307.436L50 8.5h1.5l.494.494L52 9h2.5l.5-2.5q1.121-2.242 9.789 1.104m-54.521 17.85.232.046v1H12l1.784.892.216.108h2l-2 1h-2q-.625 0-.078-.879L12 27.5h-1.5Q8 26 8 25.5q0-.476 2.268-.045M62.5 11.5c-.5 0 0 1.5.5 1.5s1 1 1 1.5-.5 0-.5.5q0 .444-.395.494L63 15.5l-2-2c-.5-.5-2-1.5-2.5-1.5s.5.5-.5 0q-1-.5-.5.5 1 1 1.5 1c.5 0 1 .5 1.5.5.242 0 .934.148 1 .5q.025.132-.5.5-.5 1.5-1.5 2c-1 .5 0-.5 0-1.5 0-.952-.454-.09-.929-.438L58.5 15l-1-1c-.437-.437-.492-.11-.499-.02L57 14s-1-.5-2-.5q-.933 0-.56.436l.06.064v2.5q0 .466-1.307.498L53 17l-.063.057.04.01a4.7 4.7 0 0 1 1.017.43C54 17.5 54.5 17 55 16.5s.5 0 1.5 0 .5.5 1.5-.5q.959-.959.54.839L58.5 17l1.5 1.5q1 0 2 .5c1 .5 2.5 1.5 3 1.5s.5-.5.5-1.5 1 .5 1 1q0 .5 1.5.5l.75-.375.243-.122L69 20v-2q0-.928-.862-.995L68 17h-2.5c-.5 0-.5-.5-1-1s0-.5 0-1q0-.5.5-1h1.5c1 0 0-.5-.5-.5q-.75 0-1.5-1.5c-.5-1-1.5-.5-2-.5m-10.462 5.476-.055.009L52 17q.459.459.917.076l.02-.019-.074-.02a2.2 2.2 0 0 0-.825-.061M50 3l1.307.436.193.064H53l1 1q-.5.5-.5 1c0 .1.02.26.052.452l.008.051c.105.017.094.068.033.145l-.005.005.02.108c.137.705.358 1.6.388 1.724L54 8s-1-.5-1.5-.5c-.472 0 .394 0 .491-.421L53 7l-.001-.001L52.5 7q.459-.458.076-.497L52.5 6.5h-1q-1 .5-1 1c0 .5-.5 0-1.5-.5s.5-1-.5-1.5q-.94-.471-.11-.498L48.5 5l1.5-.5-1-1v-1c0-.5 1 .5 1 .5M39.5.027V3h-1L38 4s-2.797 1.864-3.89 1.993L34 6h-2.5q-.954 0-.087-1.822L31.5 4l1-1V1.5a4.5 4.5 0 0 0-.41-.528A41 41 0 0 1 39.5.027m2.92 3.897L42.5 4l1 1h-3Q42 4.5 42 4q0-.459.42-.076"/></g></svg>