<svg xmlns="http://www.w3.org/2000/svg" xml:space="preserve" viewBox="0 0 64 64"><rect width="52" height="52" x="6" y="6" fill="#4d4d4d" stroke="#1f1f1f" stroke-width="2" paint-order="stroke fill markers" rx="8" ry="8"/><rect width="52" height="52" x="6" y="6" fill="#4d4d4d" paint-order="stroke fill markers" rx="8" ry="8"/><path fill="#fff766" d="M27.074 14v3.977l-7.176 2.577v4.918l-2.24 2.92v8.455l2.24 3.017-2.24 6.957L32.013 50l14.33-3.18-2.238-6.956 2.239-3.017v-8.455l-2.24-2.92v-4.917l-7.176-2.578V14zm4.957 11.514c3.958 0 7.176 3.216 7.176 7.174a7.183 7.183 0 0 1-7.176 7.176 7.16 7.16 0 0 1-7.176-7.176 7.17 7.17 0 0 1 7.176-7.174"/></svg>