<svg xmlns="http://www.w3.org/2000/svg" viewBox="0 0 64 64"><path fill="#959595" d="M29 40.4h6v16.8h-6z"/><rect width="6" height="22" x="55" y="-43" opacity=".2" rx="3" ry="2.75" transform="rotate(90)"/><rect width="34" height="42" x="-49" y="5" opacity=".2" rx="2.125" ry="2.1" transform="scale(-1 1)"/><rect width="6" height="22" x="54" y="-43" fill="#4f4f4f" rx="3" ry="2.75" transform="rotate(90)"/><rect width="34" height="42" x="-49" y="4" fill="#83562d" rx="2.125" ry="2.1" transform="scale(-1 1)"/><circle cx="32" cy="21" r="13" fill="#3f3f3f"/><circle cx="32" cy="22" r="10" opacity=".2"/><circle cx="32" cy="21" r="10" fill="#636363"/><circle cx="32" cy="21" r="4" fill="#3f3f3f"/><circle cx="19.5" cy="8.5" r="1.5" opacity=".4"/><circle cx="44.5" cy="8.5" r="1.5" opacity=".4"/><circle cx="19.5" cy="41.5" r="1.5" opacity=".4"/><circle cx="44.5" cy="41.5" r="1.5" opacity=".4"/><path fill="#fff" d="M17.125 4A2.11 2.11 0 0 0 15 6.1v1c0-1.164.948-2.1 2.125-2.1h29.75C48.052 5 49 5.936 49 7.1v-1c0-1.164-.948-2.1-2.125-2.1zM32 11a10 10 0 0 0-10 10 10 10 0 0 0 .021.586A10 10 0 0 1 32 12a10 10 0 0 1 9.979 9.414A10 10 0 0 0 42 21a10 10 0 0 0-10-10" opacity=".1"/></svg>