<svg xmlns="http://www.w3.org/2000/svg" viewBox="0 0 64 64"><path d="M32 5A28 28 0 0 0 4 33a28 28 0 0 0 7.986 19.576c-1.451.865-2.891 1.724-4.166 2.61-.332.507-.33.603.034 1.158.38.581.456.6 1.931.463 1.95-.202 3.8-.67 5.55-1.346A28 28 0 0 0 32 61a28 28 0 0 0 14.938-4.33c1.555.31 3.828.287 6.488.164 4.374-.203 5.877-.504 6.463-1.293.46-1.896-1.641-2.26-3.733-3.023a35 35 0 0 1-3.01-1.19A28 28 0 0 0 60 33 28 28 0 0 0 32 5" opacity=".2"/><circle cx="32" cy="32" r="28" fill="#fdbdbd"/><path d="M25.654 9.072c-.504.043-.814.265-1.045.678-.299.536-.305.73-.037 1.379 1.208 2.923 1.248 3.244 1.354 7.867.224 10.765.56 18.893-6.725 28.59-1.715 1.668-4.129 3.146-6.56 4.598a28 28 0 0 0 3.558 2.931c6.216-2.71 11-8.252 13.68-15.17l1.254-2.59c6.08 8.686 6.506 12.23 14.146 18.659.142.119.315.222.51.314a28 28 0 0 0 6.707-5.303c-7.2-3.396-12.762-8.986-17.914-15.836l-2.512-3.222c.27-6.678-.434-10.512.965-17.58.435-1.516.442-1.682.104-2.336-.416-.803-2.625-1.775-5.27-2.578-1.011-.307-1.71-.444-2.215-.4m21.147 7.035a3.8 3.8 0 0 0-1.156.094c-.551.129-.733 1.26-.733 1.78 0 1.228-1.328 2.99-5.267 6.931-3.86 3.862-4.182 4.381-3.15 5.104 2.739.667 5.677-2.46 8.333-3.483 3.585-2.088 4.58-2.35 6.215-2.918 1.512-.525 2.132-1.254 1.887-2.215-1.495-2.22-3.515-5.103-6.13-5.293m-33.408 3.891c-.577-.028-.904.26-1.217.854-.226.427-.208.743.094 1.65 1.092 2.962 4.567 7.485 7.326 7.643 2.053.116 2.77-2.244 2.238-4.65-.477-1.142-3.454-3.271-5.736-4.45-1.304-.673-2.13-1.019-2.705-1.047" opacity=".1"/><path fill="#df1a1a" d="M7.854 55.344c-.363-.555-.366-.65-.034-1.158 3.6-2.5 8.486-4.786 11.38-7.6 7.285-9.698 6.95-17.826 6.725-28.59-.106-4.624-.144-4.944-1.352-7.867-.268-.65-.263-.843.036-1.379.461-.825 1.237-.891 3.26-.277 2.644.803 4.855 1.775 5.27 2.578.34.655.332.82-.103 2.336-1.4 7.068-.695 10.902-.965 17.58l2.51 3.221c5.994 7.968 12.535 14.244 21.575 17.329 2.091.764 4.194 1.128 3.733 3.024-.586.789-2.088 1.09-6.462 1.292-3.88.18-6.978.165-8.148-.82-7.64-6.428-8.065-9.971-14.146-18.657l-1.253 2.588c-3.54 9.142-10.754 15.895-20.095 16.862-1.475.137-1.55.12-1.93-.462m28.64-26.328c-1.03-.722-.71-1.243 3.15-5.104 3.94-3.942 5.269-5.703 5.269-6.932 0-.52.18-1.652.731-1.78 3.184-.742 5.579 2.662 7.287 5.2.245.96-.377 1.69-1.889 2.215-1.635.568-2.63.83-6.215 2.918-2.656 1.024-5.593 4.15-8.332 3.483M12.27 21.502c-.301-.907-.32-1.222-.094-1.65.626-1.189 1.314-1.155 3.922.192 2.282 1.178 5.26 3.309 5.736 4.45.533 2.406-.183 4.767-2.236 4.65-2.759-.157-6.236-4.68-7.328-7.642"/><path fill="#fff" d="M32 4A28 28 0 0 0 4 32a28 28 0 0 0 .021.586A28 28 0 0 1 32 5a28 28 0 0 1 27.979 27.414L60 32A28 28 0 0 0 32 4" opacity=".2"/></svg>