<svg xmlns="http://www.w3.org/2000/svg" viewBox="0 0 24 24"><path fill="currentColor" d="m16.95 5.637-1.876 1.875a8 8 0 0 0-1.898-.442q-.587-.067-1.176-.066c-1.55.015-3.112.37-4.463 1.135-.538.35-1.185.803-1.672 1.26-.765.749-1.422 1.624-1.865 2.604.653 1.44 1.734 2.661 3.043 3.539l-1.406 1.406 1.414 1.414 1.869-1.869c.614.22 1.25.379 1.904.444 1.928.217 3.945-.115 5.639-1.069.538-.35 1.185-.803 1.672-1.26.766-.75 1.422-1.626 1.865-2.605-.654-1.441-1.736-2.665-3.047-3.543l1.41-1.41zM12 9.004c.453-.01.886.106 1.281.3l-3.969 3.97c-.321-.667-.425-1.436-.175-2.157.369-1.23 1.576-2.127 2.863-2.113m2.695 1.715c.196.397.314.832.305 1.285.052 1.766-1.709 3.29-3.45 2.96a2.6 2.6 0 0 1-.837-.263l1.932-1.933.035-.034.037-.035.017-.02z" color="#5c616c"/></svg>