<svg xmlns="http://www.w3.org/2000/svg" fill="none" viewBox="0 0 224 224"><path fill="#f9a825" d="M31.896 155.538q-2.112 0-3.552-1.344Q27 152.754 27 150.642v-46.08q0-2.208 1.344-3.552 1.44-1.344 3.552-1.344 2.208 0 3.552 1.344t1.344 3.552v46.08q0 2.112-1.344 3.552-1.344 1.344-3.552 1.344m39.456 19.2q-2.112 0-3.552-1.344-1.344-1.44-1.344-3.552v-23.616q0-5.472-2.016-8.928t-5.472-5.088q-3.36-1.728-7.776-1.728-4.032 0-7.296 1.632t-5.184 4.416q-1.92 2.688-1.92 6.24h-6.048q0-6.048 2.88-10.752 2.976-4.8 8.064-7.584t11.424-2.784q6.624 0 11.808 2.88 5.28 2.784 8.256 8.256 3.072 5.472 3.072 13.44v23.616q0 2.112-1.44 3.552-1.344 1.344-3.456 1.344m-39.456 0q-2.112 0-3.552-1.344Q27 171.954 27 169.842v-42.816q0-2.208 1.344-3.552 1.44-1.344 3.552-1.344 2.208 0 3.552 1.344t1.344 3.552v42.816q0 2.112-1.344 3.552-1.344 1.344-3.552 1.344m65.531 22.368q-2.112 0-3.552-1.44-1.344-1.344-1.344-3.456v-43.776q.096-7.584 3.552-13.632t9.408-9.504q5.952-3.552 13.44-3.552 7.584 0 13.536 3.552 5.952 3.456 9.408 9.504 3.552 6.048 3.552 13.632t-3.264 13.632q-3.168 5.952-8.736 9.504-5.568 3.456-12.576 3.456-5.664 0-10.464-2.304a25.4 25.4 0 0 1-8.064-6.432v25.92q0 2.112-1.344 3.456-1.344 1.44-3.552 1.44m21.504-30.72q4.896 0 8.736-2.304 3.84-2.4 6.048-6.432 2.304-4.128 2.304-9.216 0-5.184-2.304-9.216-2.208-4.128-6.048-6.432-3.84-2.4-8.736-2.4-4.8 0-8.736 2.4-3.84 2.304-6.048 6.432-2.208 4.032-2.208 9.216 0 5.088 2.208 9.216 2.208 4.032 6.048 6.432 3.936 2.304 8.736 2.304m73.183 8.256a5.7 5.7 0 0 1-1.824-.288q-.864-.288-1.632-1.248l-16.8-20.16-3.456-3.456-16.704-19.776q-1.248-1.536-1.344-3.264-.096-1.824.96-3.072t3.168-1.248q2.304 0 3.648 1.632l16.416 19.584 2.496 2.304 18.048 21.6q1.44 1.728 1.344 3.456 0 1.632-1.248 2.784-1.152 1.152-3.072 1.152m-36.672 0q-1.92 0-3.072-1.152-1.056-1.248-1.056-2.976t1.344-3.456l16.32-20.448 5.184 7.296-15.264 19.2q-1.44 1.536-3.456 1.536m23.712-24.672-6.624-5.664 15.456-20.544q.768-.96 1.632-1.248a4.7 4.7 0 0 1 1.92-.384q2.112 0 3.168 1.344 1.056 1.248.96 3.072 0 1.824-1.344 3.552zM112.43 26s-4.208 3.585-8.508 7.109c-4.424-.141-13.087.91-17.779 2.74C81.795 32.908 78 29.67 78 29.67s-3.26 5.982-5.28 9.491c-3.043 1.733-6.088 3.668-8.79 6.229-3.152-1.323-6.806-2.974-6.93-3.008 4.17 9.006 6.982 18.026 14.627 23.454 12.158-20.556 68.664-18.655 81.087-.11 8.019-4.472 11.134-14.107 14.286-23.004-.34.124-4.637 1.664-7.411 2.792-1.664-1.936-5.586-4.906-7.807-6.34a412 412 0 0 0-5.194-9.737s-3.633 2.9-7.861 6.074c-5.693-1.128-12.585-2.49-18.388-2.149A282 282 0 0 1 112.43 26M61.314 61.52l10.048 25.997c17.421 24.603 61.913 26.304 81.3.485 4.582-11.065 10.78-26.623 10.78-26.623-4.977 7.896-13.073 13.337-18.067 16.256-3.544 2.076-11.705 3.351-11.705 3.351L112.182 69.08 90.608 80.735s-8.074-1.378-11.728-3.203c-7.374-4.208-12.334-9.185-17.562-16.009z" data-iconColor="HappyX"/></svg>