<svg xmlns="http://www.w3.org/2000/svg" xmlns:xlink="http://www.w3.org/1999/xlink" viewBox="0 0 96 96"><defs><linearGradient id="b" x1="13.721%" x2="89.931%" y1="50%" y2="50%"><stop offset="0%" stop-color="#d9dcd5"/><stop offset="44.278%" stop-color="#ededed"/><stop offset="100%" stop-color="#d0d1c7"/></linearGradient><linearGradient id="c" x1="50%" x2="50%" y1="0%" y2="100%"><stop offset="0%" stop-color="#ececeb"/><stop offset="100%" stop-color="#c0c6b4"/></linearGradient><linearGradient id="d" x1="50%" x2="50%" y1="0%" y2="100%"><stop offset="0%" stop-color="#3351c9"/><stop offset="100%" stop-color="#3b6be3"/></linearGradient><linearGradient id="h" x1="50%" x2="50%" y1="0%" y2="100%"><stop offset="0%" stop-color="#304ab2"/><stop offset="100%" stop-color="#3a6ae1"/></linearGradient><linearGradient id="i" x1="50%" x2="50%" y1="0%" y2="100%"><stop offset="0%" stop-color="#7388f8"/><stop offset="100%" stop-color="#5566f7"/></linearGradient><linearGradient id="j" x1="50%" x2="50%" y1="0%" y2="100%"><stop offset="0%" stop-color="#3a6ae1"/><stop offset="100%" stop-color="#304ab2"/></linearGradient><filter id="a" width="138.1%" height="127.6%" x="-19%" y="-13.8%" filterUnits="objectBoundingBox"><feOffset dy="2" in="SourceAlpha" result="shadowOffsetOuter1"/><feGaussianBlur in="shadowOffsetOuter1" result="shadowBlurOuter1" stdDeviation="2"/><feComposite in="shadowBlurOuter1" in2="SourceAlpha" operator="out" result="shadowBlurOuter1"/><feColorMatrix in="shadowBlurOuter1" result="shadowMatrixOuter1" values="0 0 0 0 0 0 0 0 0 0 0 0 0 0 0 0 0 0 0.2 0"/><feMerge><feMergeNode in="shadowMatrixOuter1"/><feMergeNode in="SourceGraphic"/></feMerge></filter><filter id="g" width="140%" height="103.6%" x="-20%" y="-2%" filterUnits="objectBoundingBox"><feOffset dy="1" in="SourceAlpha" result="shadowOffsetOuter1"/><feGaussianBlur in="shadowOffsetOuter1" result="shadowBlurOuter1" stdDeviation=".5"/><feColorMatrix in="shadowBlurOuter1" values="0 0 0 0 0 0 0 0 0 0 0 0 0 0 0 0 0 0 0.13 0"/></filter><path id="e" d="M14.949 28.986h10v46l-.132.103a7.9 7.9 0 0 1-9.868-.103z"/></defs><g fill="none" fill-rule="evenodd" filter="url(#a)" transform="translate(18 4)"><g transform="translate(35.949 54.986)"><path fill="url(#b)" d="m0 4 4.32 23.04a2 2 0 0 0 1.126 1.447Q8.716 30 13.5 30q4.755 0 7.642-1.495a2 2 0 0 0 1.038-1.368L27 4z"/><ellipse cx="13.5" cy="4" fill="url(#c)" rx="13.5" ry="4"/></g><path fill="#324fb9" d="M10.949 74.986v7.157q2.51 4.075 9 4.075t9-4.075v-7.157z"/><ellipse cx="19.949" cy="74.486" fill="url(#d)" rx="9" ry="4.5"/><use xlink:href="#e" fill="#000" filter="url(#g)"/><use xlink:href="#e" fill="url(#h)"/><path fill="#3250bb" d="M.511 11.21c3.312 11.327 6.467 24.147 7.135 34.677s-2.05 11.387-3.823 16.058c-1.773 4.672.604 8.582 3.823 7.838 3.219-.743 3.043-5.466 0-4.776s2.32-.775 3.303-13.018c.982-12.242-2.635-17.702-2.635-21.003q0-3.3 6.809 0v-3.3q-3.195-5.542-5.156-9.68C8.005 13.867 5.679 12.218.51 11.21"/><path fill="url(#i)" d="M13.853.03a1.5 1.5 0 1 1-.123 2.997l-.099-.003 3.904 23.001q.545-.03 1.114-.037l.3-.002c4.418 0 8 1.12 8 2.5 0 1.381-3.582 2.5-8 2.5-2.627 0-4.959-.395-6.417-1.006a1.5 1.5 0 0 1-1.073-.605l-.015-.021c-.234-.198-.39-.407-.458-.624l-2.254-3.084c-.345-.48-.647-.905-1.04-1.465a103 103 0 0 1-2.965-4.425l-.482-.776C.566 12.97-.908 8.534.564 5.404 2.415 1.47 6.94-.252 13.853.03M3.279 6.68c-.894 1.9.455 5.785 3.759 11.112l.228.365a92 92 0 0 0 2.089 3.162l1.484 2.115.228.319c.501.699 1.073 1.48 2.174 2.98.905-.287 2.032-.507 3.293-.632L12.614 3c-5.157-.037-8.19 1.248-9.335 3.681"/><path fill="url(#j)" d="M45.949 53.084v1.902a2 2 0 0 0 2 2h2a2 2 0 0 0 2-2v-5a6 6 0 0 0-6-6h-21v8l18.905-.9a2 2 0 0 1 2.095 1.998"/></g></svg>