<svg xmlns="http://www.w3.org/2000/svg" xmlns:xlink="http://www.w3.org/1999/xlink" viewBox="0 0 96 96"><defs><linearGradient id="b" x1="0%" x2="103.387%" y1="100%" y2="100%"><stop offset="0%" stop-color="#d23434"/><stop offset="5.93%" stop-color="#db3c3c"/><stop offset="15.373%" stop-color="#a00606"/><stop offset="81.637%" stop-color="#a10808"/><stop offset="88.577%" stop-color="#ec4c4c"/><stop offset="100%" stop-color="#900"/></linearGradient><linearGradient id="c" x1="50%" x2="50%" y1="0%" y2="100%"><stop offset="0%" stop-color="#ff5d5d"/><stop offset="100%" stop-color="#900"/></linearGradient><linearGradient id="d" x1="50%" x2="50%" y1="1.601%" y2="100%"><stop offset="0%" stop-color="#fff"/><stop offset="100%" stop-color="#fff" stop-opacity=".759"/></linearGradient><linearGradient id="e" x1="50%" x2="81.889%" y1="50%" y2="85.389%"><stop offset="0%" stop-color="#afafaf"/><stop offset="39.576%" stop-color="#f5f5f5"/><stop offset="100%" stop-color="#fff"/></linearGradient><linearGradient id="f" x1="29.379%" x2="59.114%" y1="15.253%" y2="43.62%"><stop offset="0%" stop-color="#ff5d5d"/><stop offset="43.783%" stop-color="#ba1b1b"/><stop offset="71.06%" stop-color="#d33e3e"/><stop offset="100%" stop-color="#900"/></linearGradient><filter id="a" width="130.8%" height="130.8%" x="-15.4%" y="-15.4%" filterUnits="objectBoundingBox"><feOffset dy="2" in="SourceAlpha" result="shadowOffsetOuter1"/><feGaussianBlur in="shadowOffsetOuter1" result="shadowBlurOuter1" stdDeviation="2"/><feColorMatrix in="shadowBlurOuter1" result="shadowMatrixOuter1" values="0 0 0 0 0 0 0 0 0 0 0 0 0 0 0 0 0 0 0.2 0"/><feMerge><feMergeNode in="shadowMatrixOuter1"/><feMergeNode in="SourceGraphic"/></feMerge></filter></defs><g fill="none" fill-rule="evenodd" filter="url(#a)" transform="translate(9 9)"><rect width="78" height="78" fill="url(#b)" rx="18"/><path fill="url(#c)" d="M18 0h42c9.941 0 18 8.059 18 18v37c0 9.389-7.611 17-17 17H17C7.611 72 0 64.389 0 55V18C0 8.059 8.059 0 18 0"/><path fill="url(#d)" fill-rule="nonzero" d="M59.82 39.07c-1.826-1.958-5.48-3.067-10.7-3.067-2.805 0-6.002.26-9.526.913-1.957-1.957-3.98-4.24-5.872-6.916-1.37-1.892-2.545-3.85-3.588-5.807C32.22 17.733 33.2 12.514 33.2 8.73c0-4.241-1.5-8.678-5.937-8.678-1.37 0-2.675.848-3.393 2.023-1.957 3.588-1.11 11.418 2.349 19.117-1.305 3.85-2.61 7.568-4.306 11.679-1.436 3.458-3.132 7.112-4.894 10.374C7.102 47.29.708 51.988.12 55.642c-.26 1.37.196 2.675 1.175 3.654.326.26 1.63 1.37 3.784 1.37 6.59 0 13.506-10.831 17.03-17.421a193 193 0 0 1 8.09-2.545 80 80 0 0 1 8.612-1.957c6.916 6.329 13.05 7.373 16.116 7.373 3.784 0 5.155-1.566 5.611-2.871.718-1.631.196-3.458-.652-4.437zm-7.046 4.958a6 6 0 0 1-1.5-.196c-3.459-.848-6.656-2.61-9.918-5.35 3.197-.522 5.872-.652 7.568-.652 1.893 0 3.524.065 4.568.391 1.24.261 3.197 1.11 2.805 3.523-.26 1.37-1.63 2.284-3.523 2.284m-15.594-6.59a100 100 0 0 0-7.438 1.762c-2.088.587-4.24 1.174-6.394 1.957 1.174-2.284 2.153-4.502 3.067-6.59 1.109-2.61 1.957-5.22 2.87-7.699.914 1.566 1.892 3.132 2.871 4.502 1.631 2.153 3.328 4.241 5.024 6.068M25.37 3.184c.392-.718 1.11-1.11 1.697-1.11 1.892 0 2.218 2.219 2.218 3.98 0 2.937-.913 7.439-2.414 12.593-2.61-7.177-2.805-13.114-1.5-15.463M15.519 46.05c-4.568 7.7-9.005 12.528-11.679 12.528-.522 0-.978-.196-1.37-.457-.522-.522-.783-1.174-.652-1.957.522-2.74 5.676-6.59 13.701-10.113" transform="translate(8.5 3.058)"/><path fill="url(#e)" d="M78 45H66c-8.837 0-16 7.163-16 16v11h12c8.837 0 16-7.163 16-16z"/><path fill="url(#f)" d="M78 45H66c-8.837 0-16 7.163-16 16v11z"/></g></svg>