<svg xmlns="http://www.w3.org/2000/svg" viewBox="0 0 24 24"><path fill="#5c6bc0" d="M13.646 1.844c.804.244 2.131.987 2.131 1.19 0 .057-.176.175-.39.263-.699.29-.726.43-.262 1.373.232.472.418 1.022.413 1.222-.01.517.466 1.7.983 2.436.602.857.314 2.475-.42 2.357-.142-.023-.495-.06-.783-.083-.428-.034-.572-.118-.767-.449-.173-.293-.396-.447-.79-.546-.636-.16-.952-.3-1.384-.614l-.312-.225.312.613c.17.336.94 1.252 1.706 2.035 2.02 2.06 2.477 3.232 1.554 3.984-.398.325-.442.425-.418.964.037.85-.034.87-3.22.87-3.109 0-3.292-.047-3.143-.787.075-.378.03-.482-.36-.831l-.447-.398.26-.603c.144-.331.285-.927.313-1.325l.052-.723-.282.892-.28.892-.308-.882c-.408-1.163-.39-1.583.091-2.146.215-.25.39-.542.39-.649s-.19.055-.423.357c-.528.687-.564.685-.75-.054-.185-.737-.118-.973.458-1.601.625-.68.564-.796-.124-.233l-.575.472-.15-.596c-.15-.6.058-1.25.402-1.25.151 0 .767-.652.767-.813 0-.065-.114-.012-.254.118-.139.13-.428.338-.643.464l-.389.23-.086-.461c-.132-.7.143-1.144.85-1.379.681-.227.916-.361.916-.526 0-.065-.192-.04-.427.057-1.043.422-1.136.4-1-.221.143-.663.514-1.015 1.08-1.027.785-.018 1.001-.235.244-.244C6.937 3.95 8.02 2.649 9.29 2.632c.76-.01.765-.011.329-.169-1.536-.556 2.299-1.144 4.027-.62m-2.272.824a6 6 0 0 1 .634.457c.204.169.433.307.51.307.24 0-.184-.401-.703-.667-.528-.269-.886-.348-.442-.097m-.329.279c0 .094.088.287.196.427.179.234.184.219.053-.172-.148-.446-.248-.548-.248-.255m-.5 3.38c-.699.886-.848 2.224-.368 3.296.191.429.196.43.107.053-.219-.927-.103-2.11.25-2.579.59-.776.6-1.515.011-.77m3.68-.143c.172.276.464.395.743.3q.177-.06-.197-.306c-.51-.336-.758-.333-.545.006m-2.646 3.36c-.002.129 1.273 1.778 1.883 2.435.507.547 1 1.649 1 2.239 0 .586.29.689.372.13.13-.888-.282-1.629-1.819-3.271-.542-.58-1.086-1.192-1.21-1.36-.122-.167-.225-.244-.225-.173m2.747 8.083c.14.075.278.345.328.636.056.334.287.737.682 1.188.956 1.092 1.023 1.07-3.304 1.07h-3.75v-.304c0-.169.18-.476.406-.69.496-.471.777-.987.777-1.425 0-.18.104-.389.23-.462.297-.174 4.31-.184 4.63-.013m-1.836.396c0 .074.348.132.78.132.43 0 .817-.06.862-.132.052-.082-.24-.131-.78-.131-.488 0-.862.057-.862.131m4.01 2.968c.545.258.808.545.923 1.009l.09.361h-5.468c-5.985 0-5.757.032-5.246-.746.5-.764.894-.826 5.277-.828 3.358-.003 4.058.03 4.424.204m-2.563.186c-.23.141.063.218.958.25.85.031 1.319-.072 1.201-.263-.09-.144-1.923-.133-2.159.013" data-iconColor="Huff"/></svg>