<svg xmlns="http://www.w3.org/2000/svg" viewBox="0 0 64 64"><rect width="56" height="56" x="4" y="5" opacity=".2" rx="16.8" ry="16.8"/><rect width="56" height="56" x="4" y="4" fill="#00897b" rx="16.8" ry="16.8"/><rect width="33.506" height="33.506" x="29.21" y="-16.05" opacity=".2" ry="4.094" transform="rotate(45)"/><rect width="33.506" height="33.506" x="28.5" y="-16.75" fill="#76d740" ry="4.094" transform="rotate(45)"/><path d="m28.523 12.785-1.59 1.59a3.63 3.63 0 0 1 3.88.84l19.023 19.023a3.64 3.64 0 0 1 .898 3.72l1.528-1.528a5 5 0 0 0-1.453-3.164L31.785 14.242a5 5 0 0 0-3.262-1.457M21 24.063c-.425 0-.85.162-1.176.488l-7.273 7.273a1.66 1.66 0 0 0 0 2.352l7.273 7.273c.652.652 1.7.652 2.352 0l7.273-7.273c.652-.652.652-1.7 0-2.352l-7.273-7.273A1.66 1.66 0 0 0 21 24.063m11 11c-.425 0-.85.162-1.176.488l-7.273 7.273a1.66 1.66 0 0 0 0 2.352l7.273 7.273c.652.652 1.7.652 2.352 0l7.273-7.273c.652-.652.652-1.7 0-2.352l-7.273-7.273A1.66 1.66 0 0 0 32 35.063" opacity=".2"/><path fill="#fff" d="m28.522 11.786-1.59 1.59a3.64 3.64 0 0 1 3.881.84l19.022 19.022a3.64 3.64 0 0 1 .9 3.72l1.527-1.529a5.02 5.02 0 0 0-1.455-3.163L31.785 13.244a5 5 0 0 0-3.263-1.458"/><rect width="13.612" height="13.612" x="30.67" y=".97" fill="#fff" ry="1.663" transform="rotate(45)"/><path fill="#9ee976" d="m19.587 23.788-.646.646a1.48 1.48 0 0 1 1.577.341l7.727 7.728c.413.413.534.997.366 1.511l.62-.62a2.04 2.04 0 0 0-.59-1.286l-7.728-7.728a2.03 2.03 0 0 0-1.326-.592"/><rect width="13.612" height="13.612" x="46.23" y=".97" fill="#fff" ry="1.663" transform="rotate(45)"/><path fill="#9ee976" d="m30.587 34.788-.646.646a1.48 1.48 0 0 1 1.577.341l7.727 7.728c.413.413.534.997.366 1.511l.62-.62a2.04 2.04 0 0 0-.59-1.286l-7.728-7.728a2.03 2.03 0 0 0-1.326-.592"/><rect width="4.831" height="4.831" x="37.93" y="8.96" fill="#6c6c6c" ry=".59" transform="rotate(45)"/><path fill="#fff" d="m19.982 33.653-.229.23a.52.52 0 0 1 .56.12l2.742 2.743c.147.147.19.354.13.537l.22-.22a.72.72 0 0 0-.21-.457l-2.742-2.743c-.13-.13-.3-.2-.47-.21"/><rect width="4.831" height="4.831" x="32.42" y="8.94" fill="#6c6c6c" ry=".59" transform="rotate(45)"/><path fill="#fff" d="m16.101 29.745-.229.229a.52.52 0 0 1 .56.121l2.742 2.743c.147.146.19.354.13.536l.22-.22a.72.72 0 0 0-.21-.456l-2.742-2.743c-.13-.13-.3-.2-.47-.21"/><rect width="4.831" height="4.831" x="37.96" y="3.54" fill="#6c6c6c" ry=".59" transform="rotate(45)"/><path fill="#fff" d="m23.837 29.844-.23.229a.52.52 0 0 1 .56.121l2.743 2.743c.147.146.19.354.13.536l.22-.22a.72.72 0 0 0-.21-.456l-2.742-2.743a.73.73 0 0 0-.47-.21"/><rect width="4.831" height="4.831" x="32.27" y="3.58" fill="#6c6c6c" ry=".59" transform="rotate(45)"/><path fill="#fff" d="m19.784 25.853-.23.23a.52.52 0 0 1 .56.12l2.743 2.743c.146.147.19.354.13.537l.22-.22a.72.72 0 0 0-.21-.457l-2.743-2.743a.72.72 0 0 0-.47-.21"/><path fill="#fff" d="M20.8 4C11.495 4 4 11.494 4 20.8v1C4 12.495 11.494 5 20.8 5h22.4C52.505 5 60 12.494 60 21.8v-1C60 11.495 52.506 4 43.2 4z" opacity=".1"/><path fill="#fff" d="M32 10a4.08 4.08 0 0 0-2.895 1.203L11.203 29.105a4.07 4.07 0 0 0-1.168 3.397 4.07 4.07 0 0 1 1.168-2.397l17.902-17.902a4.08 4.08 0 0 1 5.79 0l17.902 17.902a4.07 4.07 0 0 1 1.168 2.397 4.07 4.07 0 0 0-1.168-3.397L34.895 11.203A4.08 4.08 0 0 0 32 10" opacity=".2"/></svg>