<svg xmlns="http://www.w3.org/2000/svg" viewBox="0 0 64 64"><rect width="56" height="56" x="4" y="5" opacity=".2" rx="2.9" ry="2.9"/><path fill="#2b855b" d="M6.9 4h50.2C58.707 4 60 5.293 60 6.9v50.2c0 1.607-1.293 2.9-2.9 2.9H15l-1-.5L4.5 50 4 49V6.9C4 5.293 5.293 4 6.9 4"/><path fill="#ffb923" d="M4 49v8.1C4 58.707 5.293 60 6.9 60H15z"/><rect width="42" height="42" x="11" y="12" opacity=".2" rx="2.1" ry="2.1"/><rect width="42" height="42" x="11" y="11" fill="#c1c1c1" rx="2.1" ry="2.1"/><path fill="#4e4e4e" d="M29 27h6v20h-6zm0-10h6v6h-6z"/><path fill="#fff" d="M6.898 4A2.89 2.89 0 0 0 4 6.898v1A2.89 2.89 0 0 1 6.898 5h50.204A2.89 2.89 0 0 1 60 7.898v-1A2.89 2.89 0 0 0 57.102 4Z" opacity=".1"/><path fill="#fff" d="M13.102 11A2.1 2.1 0 0 0 11 13.102v1c0-1.164.938-2.102 2.102-2.102h37.796c1.164 0 2.102.938 2.102 2.102v-1A2.1 2.1 0 0 0 50.898 11z" opacity=".2"/></svg>