<svg xmlns="http://www.w3.org/2000/svg" viewBox="0 0 64 64"><rect width="56" height="56" x="4" y="4" fill="#4694d7" rx="3" ry="3"/><path d="M30 19a10 10 0 0 1-10 10 10 10 0 0 1-10-10A10 10 0 0 1 20 9a10 10 0 0 1 10 10" opacity=".2"/><path fill="#fff" d="M30 18a10 10 0 0 1-10 10 10 10 0 0 1-10-10A10 10 0 0 1 20 8a10 10 0 0 1 10 10"/><path fill="#4d4d4d" d="M30 46a10 10 0 0 1-10 10 10 10 0 0 1-10-10 10 10 0 0 1 10-10 10 10 0 0 1 10 10"/><path fill="#fff" d="M7 4C5.338 4 4 5.338 4 7v1c0-1.662 1.338-3 3-3h50c1.662 0 3 1.338 3 3V7c0-1.662-1.338-3-3-3z" opacity=".1"/><path d="M4 57v1c0 1.662 1.338 3 3 3h50c1.662 0 3-1.338 3-3v-1c0 1.662-1.338 3-3 3H7c-1.662 0-3-1.338-3-3m50-10a10 10 0 0 0-10-10 10 10 0 0 0-10 10 10 10 0 0 0 10 10 10 10 0 0 0 10-10" opacity=".2"/><path fill="#fff" d="M54 46a10 10 0 0 0-10-10 10 10 0 0 0-10 10 10 10 0 0 0 10 10 10 10 0 0 0 10-10"/><path fill="#4d4d4d" d="M54 18A10 10 0 0 0 44 8a10 10 0 0 0-10 10 10 10 0 0 0 10 10 10 10 0 0 0 10-10"/></svg>