<svg xmlns="http://www.w3.org/2000/svg" xmlns:xlink="http://www.w3.org/1999/xlink" viewBox="0 0 128 128"><defs><linearGradient id="c" x1="50%" x2="50%" y1="0%" y2="98.768%"><stop offset="0%" stop-color="#a3c3de"/><stop offset="100%" stop-color="#2273bd"/></linearGradient><linearGradient id="f" x1="50%" x2="50%" y1="0%" y2="100%"><stop offset="0%" stop-color="#015480" stop-opacity=".466"/><stop offset="100%" stop-color="#00396d" stop-opacity=".749"/></linearGradient><linearGradient id="g" x1="50%" x2="50%" y1="0%" y2="110.486%"><stop offset="0%" stop-opacity=".124"/><stop offset="100%" stop-opacity=".208"/></linearGradient><linearGradient id="i" x1="100%" x2="-18.276%" y1="60.423%" y2="60.423%"><stop offset="0%" stop-color="#b3e0fd"/><stop offset="100%" stop-color="#1560a6"/></linearGradient><linearGradient id="k" x1="19.706%" x2="86.286%" y1="29.863%" y2="75.138%"><stop offset="0%" stop-color="#fff"/><stop offset="100%" stop-color="#fff" stop-opacity=".715"/></linearGradient><filter id="a" width="125.4%" height="130.8%" x="-12.7%" y="-15.4%" filterUnits="objectBoundingBox"><feOffset dy="2" in="SourceAlpha" result="shadowOffsetOuter1"/><feGaussianBlur in="shadowOffsetOuter1" result="shadowBlurOuter1" stdDeviation="3"/><feColorMatrix in="shadowBlurOuter1" result="shadowMatrixOuter1" values="0 0 0 0 0 0 0 0 0 0 0 0 0 0 0 0 0 0 0.2 0"/><feMerge><feMergeNode in="shadowMatrixOuter1"/><feMergeNode in="SourceGraphic"/></feMerge></filter><filter id="e" width="101.8%" height="102.2%" x="-.9%" y="-1.1%" filterUnits="objectBoundingBox"><feOffset dy="2" in="SourceAlpha" result="shadowOffsetInner1"/><feComposite in="shadowOffsetInner1" in2="SourceAlpha" k2="-1" k3="1" operator="arithmetic" result="shadowInnerInner1"/><feColorMatrix in="shadowInnerInner1" values="0 0 0 0 1 0 0 0 0 1 0 0 0 0 1 0 0 0 0.260653409 0"/></filter><filter id="j" width="106.9%" height="102.4%" x="-3.4%" y="-1.2%" filterUnits="objectBoundingBox"><feGaussianBlur in="SourceAlpha" result="shadowBlurInner1" stdDeviation=".5"/><feOffset dy="1" in="shadowBlurInner1" result="shadowOffsetInner1"/><feComposite in="shadowOffsetInner1" in2="SourceAlpha" k2="-1" k3="1" operator="arithmetic" result="shadowInnerInner1"/><feColorMatrix in="shadowInnerInner1" values="0 0 0 0 1 0 0 0 0 1 0 0 0 0 1 0 0 0 0.5 0"/></filter><filter id="l" width="252.4%" height="131.1%" x="-76.2%" y="-15.5%" filterUnits="objectBoundingBox"><feOffset dy="2" in="SourceAlpha" result="shadowOffsetOuter1"/><feGaussianBlur in="shadowOffsetOuter1" result="shadowBlurOuter1" stdDeviation="3"/><feColorMatrix in="shadowBlurOuter1" result="shadowMatrixOuter1" values="0 0 0 0 0 0 0 0 0 0 0 0 0 0 0 0 0 0 0.2 0"/><feMerge><feMergeNode in="shadowMatrixOuter1"/><feMergeNode in="SourceGraphic"/></feMerge></filter><filter id="n" width="105.3%" height="101%" x="-2.6%" y="-.5%" filterUnits="objectBoundingBox"><feOffset dx="1" dy="1" in="SourceAlpha" result="shadowOffsetInner1"/><feComposite in="shadowOffsetInner1" in2="SourceAlpha" k2="-1" k3="1" operator="arithmetic" result="shadowInnerInner1"/><feColorMatrix in="shadowInnerInner1" values="0 0 0 0 1 0 0 0 0 1 0 0 0 0 1 0 0 0 1 0"/></filter><path id="b" d="m107.358 4.083 10.634 82.084Q88.704 90.25 77.19 91.375c-30.509 2.978-46.532 3.267-48.306 3.267-3.667 0-8.557-1.222-9.78-4.887q-.215-.65-.67-3.53-1.411-8.928-10.088-75.366 1.169.524 1.41.594 2.98.88 6.965 1.149c5.11.346 22.327-.131 49.433-2.967q11.671-1.221 41.204-5.552"/><path id="h" d="m3.074 4.072 26.74 72.907q-9.006 5.423-8.785 11.375l.014.253q.026.363-.022.413-.03.03-.118-.19l-.056-.153-.11-.36-.33-1.18-.506-1.876-.908-3.439-2.158-8.296-4.375-17L1.286 12.764Q.332 9.242.86 6.674q.528-2.565 2.214-2.602"/><path id="m" d="M1 1h19v100.887H1z"/></defs><g fill="none" fill-rule="evenodd"><g filter="url(#a)" transform="translate(0 13)"><g transform="rotate(2 -4.358 113.928)"><g transform="rotate(-4 63.169 49.362)"><use xlink:href="#b" fill="url(#c)"/><use xlink:href="#b" fill="#000" filter="url(#e)"/></g><path fill="url(#f)" fill-rule="nonzero" d="m117.992 86.167-8.23 1.137-5.303.72-4.927.657-5.17.674-4.119.523-3.743.46-3.366.397-3.385.377-2.56.263-3.52.338-4.214.39-4.005.352-3.055.258-4.331.348-4.676.351-3.683.256-2.29.15-3.186.195-3.34.186-3.32.164-3.104.131-2.435.083-2.461.058-.685.007c-3.667 0-8.557-1.222-9.78-4.887l-.05-.172-.057-.227-.097-.443-.11-.568-.122-.692-.137-.816-.157-.993-.296-1.98-.617-4.35-.905-6.584-2.547-18.996-4.648-35.31-1.015-7.765.936.41.367.148.107.036q2.752.812 6.358 1.104l.831.06.493.024.55.021.608.017 1.02.016.75.004 1.45-.005 1.278-.016 2.12-.046 1.949-.059 1.678-.062 2.246-.097L33 12.321l3.064-.168 2.728-.167 2.296-.152 3.01-.214 2.52-.19 3.288-.265 3.44-.294 2.135-.191 3.68-.344 3.05-.298 3.142-.32 2.586-.277 2.815-.325 2.705-.33 2.975-.377 3.245-.424 4.128-.554 3.83-.526 4.811-.673 8.302-1.187 6.608-.962zm-1.12-.855L106.497 5.22l-7.962 1.155-6.03.86-6.873.956-4.938.668-4.96.648-3.881.484-2.585.306-1.567.177-1.443.155-1.775.184-2.63.265-2.587.253-2.543.24-4.135.37-3.209.271-3.115.249-2.272.172-2.215.158-2.858.192-2.072.13-2.66.151-1.917.1-1.847.086-1.775.074-1.7.06-1.625.048-1.04.025-1.003.02-1.438.017-.912.005-.98-.001-.782-.008-.723-.014-.661-.02-.598-.025-.533-.031q-3.772-.255-6.698-1.051l-.395-.112 5.192 39.5 2.48 18.538 1.138 8.314.788 5.543.263 1.737.216 1.318.159.894.102.52.086.386.048.183.021.069c.87 2.605 4.386 4.126 8.51 4.2l.439.002 1.124-.014 2.046-.052 2.552-.09 3.002-.13 2.892-.143 2.074-.112 2.771-.162 2.866-.18 1.963-.13 2.004-.14 3.086-.224 3.18-.244 2.17-.173 3.336-.277 3.428-.297 2.337-.209 3.584-.331 4.377-.423 1.894-.197 2.535-.28 3.318-.387 2.608-.316 3.984-.498 3.724-.478 6.841-.903 6.835-.925 6.614-.912z" transform="rotate(-4 63.169 49.362)"/><path fill="url(#g)" d="M34.503 74.419a1 1 0 0 0-.831 1.144l.384 2.426a1 1 0 0 0 1.144.83l35.432-5.611a1 1 0 0 0 .83-1.144l-.383-2.426a1 1 0 0 0-1.144-.83zm39.607-6.273a1 1 0 0 0-.83 1.144l.383 2.425a1 1 0 0 0 1.144.832l21.13-3.347a1 1 0 0 0 .83-1.144l-.384-2.425a1 1 0 0 0-1.144-.832zm-34.574-4.674a1 1 0 0 0-.832 1.144l.385 2.425a1 1 0 0 0 1.144.831l48.634-7.703a1 1 0 0 0 .831-1.144l-.384-2.425a1 1 0 0 0-1.144-.831zM51.17 51.479a1 1 0 0 0-.831 1.144l.384 2.425a1 1 0 0 0 1.144.831L92.8 49.396a1 1 0 0 0 .831-1.144l-.384-2.425a1 1 0 0 0-1.144-.832zM32.466 54.44a1 1 0 0 0-.83 1.144l.383 2.426a1 1 0 0 0 1.144.83l12.328-1.952a1 1 0 0 0 .831-1.144l-.384-2.425a1 1 0 0 0-1.144-.832Zm51.416-17.166a1 1 0 0 0-.83 1.144l.383 2.426a1 1 0 0 0 1.144.83l5.726-.906a1 1 0 0 0 .832-1.144l-.384-2.426a1 1 0 0 0-1.145-.83zm-16.969 2.65a1 1 0 0 0-.834 1.142l.385 2.429a1 1 0 0 0 1.14.831L79.3 42.51a1 1 0 0 0 .835-1.142l-.385-2.428a1 1 0 0 0-1.141-.832zm5.5-10.984a1 1 0 0 0-.832 1.145l.384 2.425a1 1 0 0 0 1.144.831l16.728-2.65a1 1 0 0 0 .832-1.143l-.384-2.426a1 1 0 0 0-1.145-.831zM83.162 17.1l-23.924 4.07a1 1 0 0 0-.82 1.142l.384 2.425a1 1 0 0 0 1.145.832l.01-.002 23.924-4.07a1 1 0 0 0 .82-1.142l-.384-2.425a1 1 0 0 0-1.144-.832z" opacity=".273"/><use xlink:href="#h" fill="url(#i)"/><use xlink:href="#h" fill="#000" filter="url(#j)"/></g><path fill="url(#k)" fill-rule="nonzero" d="M55.228 30.429a1.11 1.11 0 0 1 0-1.666 1.373 1.373 0 0 1 1.82 0l9.554 8.745c.502.46.502 1.205 0 1.665l-9.554 8.745c-.503.46-1.318.46-1.82 0a1.11 1.11 0 0 1 0-1.666l8.417-7.703a.28.28 0 0 0 .094-.209.28.28 0 0 0-.094-.208zM33.83 38.63l8.417 7.704a1.11 1.11 0 0 1 0 1.666c-.503.46-1.317.46-1.82 0l-9.554-8.745a1.11 1.11 0 0 1 0-1.666l9.554-8.744a1.373 1.373 0 0 1 1.82 0c.502.46.502 1.205 0 1.665l-8.417 7.704a.28.28 0 0 0-.094.208c0 .078.034.153.094.208m17.693-11.244c.712.154 1.155.822.99 1.49l-5.072 20.666c-.165.67-.874 1.086-1.586.932-.71-.154-1.154-.822-.99-1.49l5.073-20.667c.164-.669.874-1.086 1.585-.931" transform="rotate(-5 48.737 38.93)"/></g><g filter="url(#l)" transform="rotate(15 -1.17 373.724)"><use xlink:href="#m" fill="#fff" fill-opacity=".604"/><use xlink:href="#m" fill="#000" filter="url(#n)"/><path fill="#000" fill-opacity=".392" fill-rule="nonzero" d="M20 0H1a1 1 0 0 0-1 1v100.887a1 1 0 0 0 1 1h19a1 1 0 0 0 1-1V1a1 1 0 0 0-1-1m0 1v100.887H1V1z"/><path fill="#000" fill-opacity=".101" d="M16 1h4v100.887h-4z"/><path fill="#000" fill-opacity=".153" fill-rule="nonzero" d="M19.5 97.5v1h-4v-1zm0-4v1h-8v-1zm0-5v1h-4v-1zm0-5v1h-8v-1zm0-5v1h-4v-1zm0-5v1h-8v-1zm0-5v1h-4v-1zm0-5v1h-8v-1zm0-5v1h-4v-1zm0-4v1h-8v-1zm0-5v1h-4v-1zm0-5v1h-8v-1zm0-5v1h-4v-1zm0-5v1h-8v-1zm0-5v1h-4v-1zm0-5v1h-8v-1zm0-4v1h-4v-1zm-8-4v-1h8v1zm8-6v1h-4v-1zm-8-4v-1h8v1z"/></g></g></svg>