<svg xmlns="http://www.w3.org/2000/svg" xmlns:xlink="http://www.w3.org/1999/xlink" viewBox="0 0 96 96"><defs><linearGradient id="b" x1="50%" x2="50%" y1="0%" y2="100%"><stop offset="0%" stop-color="#2570b7"/><stop offset="100%" stop-color="#204a87"/></linearGradient><linearGradient id="c" x1="50%" x2="50%" y1="0%" y2="100%"><stop offset="0%" stop-color="#a3c2e1"/><stop offset="100%" stop-color="#6a8fc0"/></linearGradient><linearGradient id="d" x1="50%" x2="50%" y1="0%" y2="100%"><stop offset="0%" stop-color="#378bd5"/><stop offset="100%" stop-color="#3566a8"/></linearGradient><linearGradient id="e" x1="50%" x2="50%" y1="0%" y2="100%"><stop offset="0%" stop-color="#fff"/><stop offset="100%" stop-color="#fff" stop-opacity=".669"/></linearGradient><linearGradient id="f" x1="50%" x2="50%" y1=".266%" y2="60.948%"><stop offset=".074%" stop-color="#fff"/><stop offset="100%" stop-color="#fff" stop-opacity="0"/></linearGradient><filter id="a" width="131.6%" height="131.6%" x="-15.8%" y="-15.8%" filterUnits="objectBoundingBox"><feOffset dy="2" in="SourceAlpha" result="shadowOffsetOuter1"/><feGaussianBlur in="shadowOffsetOuter1" result="shadowBlurOuter1" stdDeviation="2"/><feComposite in="shadowBlurOuter1" in2="SourceAlpha" operator="out" result="shadowBlurOuter1"/><feColorMatrix in="shadowBlurOuter1" result="shadowMatrixOuter1" values="0 0 0 0 0 0 0 0 0 0 0 0 0 0 0 0 0 0 0.2 0"/><feMerge><feMergeNode in="shadowMatrixOuter1"/><feMergeNode in="SourceGraphic"/></feMerge></filter></defs><g fill="none" fill-rule="evenodd" filter="url(#a)" transform="translate(10 10)"><path fill="#babeb7" d="M20 10h2v27h-2zm22.884 5.309 1.732 1-13.5 23.382-1.732-1zm14.307 18.575 1 1.732-23.382 13.5-1-1.732zM63 53v2H36v-2z"/><circle cx="21" cy="55" r="21" fill="url(#b)"/><circle cx="21" cy="55" r="19" fill="url(#c)"/><circle cx="21" cy="55" r="17" fill="url(#d)"/><path fill="url(#e)" d="M23 49v16h3v2H16v-2h3V51h-3v-2zm-2-8a2 2 0 1 1 0 4 2 2 0 0 1 0-4"/><circle cx="21" cy="7" r="6.5" fill="#73d216" stroke="#4f9b06"/><circle cx="46" cy="13" r="6.5" fill="#c20303" stroke="#a50404"/><circle cx="63" cy="32" r="6.5" fill="#797d76" stroke="#565753"/><circle cx="69" cy="54" r="6.5" fill="#e5ce00" stroke="#e4a814"/><circle cx="21" cy="7" r="5" fill="url(#f)" opacity=".414"/><circle cx="46" cy="13" r="5" fill="url(#f)" opacity=".414"/><circle cx="63" cy="32" r="5" fill="url(#f)" opacity=".414"/><circle cx="69" cy="54" r="5" fill="url(#f)" opacity=".414"/></g></svg>