<svg xmlns="http://www.w3.org/2000/svg" viewBox="0 0 64 64"><rect width="38" height="55" x="13" y="6" opacity=".2" rx="2.6" ry="2.6"/><rect width="38" height="55" x="13" y="5" fill="#8e8e8e" rx="2.6" ry="2.6"/><rect width="32" height="44" x="16" y="8" opacity=".6" rx="1.3" ry="1.315"/><circle cx="32" cy="56" r="2" fill="#474747"/><circle cx="48" cy="47" r="16" opacity=".2"/><circle cx="48" cy="46" r="16" fill="#fc9300"/><path fill="#fff" d="M44.377 38.002a5 5 0 0 0-.342.002c-2.094-.082-3.96 1.311-4.898 2.996-1.777 3.192-1.23 7.552 0 11 .873 2.448 2.954 6 4.924 6 1.969 0 1.957-1 3.939-1 1.987 0 1.975 1 3.949 1 1.975 0 4.116-3.924 4.936-6 1.159-2.936 1.781-7.808 0-11-.94-1.685-2.812-3.078-4.91-2.996-1.876-.082-3.014 1-3.975 1-.899 0-1.953-.951-3.623-1.002"/><path fill="#fff" d="M45 33c3 0 2.996 2.234 3 5-3 0-3-2-3-5"/><circle cx="58" cy="45" r="4" fill="#fc9300"/><path fill="#fff" d="M15.6 5C14.159 5 13 6.16 13 7.6v1C13 7.16 14.159 6 15.6 6h32.8C49.841 6 51 7.16 51 8.6v-1C51 6.16 49.841 5 48.4 5z" opacity=".2"/></svg>