<svg xmlns="http://www.w3.org/2000/svg" viewBox="0 0 24 24"><g fill="#536076"><path d="M12 5a3 3 0 1 0 0 6 3 3 0 0 0 0-6m0-1a4 4 0 1 1 0 8 4 4 0 0 1 0-8m-.007 9.986H12zM5.23 19h6.385A5.4 5.4 0 0 1 11 16.5c0-.886.217-1.74.614-2.503-2.982.167-5.54 2.21-6.383 5.003M12 12.986c.187.002.943.013 1.682.028A4.5 4.5 0 0 0 12 16.5c0 1.418.679 2.673 1.713 3.5H4c.503-3.996 3.972-7.009 8-7.014"/><path d="M16.5 14a2.5 2.5 0 1 0 0 5 2.5 2.5 0 0 0 0-5m0-1a3.5 3.5 0 1 1 0 7 3.5 3.5 0 0 1 0-7"/><path d="m15.086 14.379 1.414 1.414 1.414-1.414.707.707-1.414 1.414 1.414 1.414-.707.707-1.414-1.414-1.414 1.414-.707-.707 1.414-1.414-1.414-1.414z"/></g></svg>