<svg xmlns="http://www.w3.org/2000/svg" viewBox="0 0 24 24"><path fill="#536076" d="M12.78 5q-.74.001-1.604.184-.849.184-1.623.826a3.4 3.4 0 0 0-.866 1.178q-.289.643-.29 1.287 0 .532.199 1.064.196.515.576.92.38.404.94.66.556.24 1.279.24h.289q.144-.021.289-.039-.072.165-.127.332a1.2 1.2 0 0 0-.053.385q0 .423.162.715.18.276.377.533-.304.02-.72.055a9.7 9.7 0 0 0-1.838.37 4.6 4.6 0 0 0-.885.42q-.794.48-1.084 1.104-.305.643-.305 1.139 0 .514.233.973.235.479.722.843.487.372 1.21.59.737.221 1.712.221 1.154 0 2.04-.312.9-.295 1.497-.792.593-.476.9-1.101.306-.623.307-1.266 0-.478-.127-.845a2.4 2.4 0 0 0-.344-.66 3 3 0 0 0-.486-.553q-.27-.257-.558-.514l-.649-.516a6 6 0 0 1-.308-.293q-.162-.182-.163-.494.001-.314.163-.515.163-.202.343-.385.29-.222.559-.461.27-.256.486-.55.218-.312.344-.698.127-.386.127-.899 0-.515-.145-.921-.144-.403-.343-.696a2.6 2.6 0 0 0-.414-.515 5 5 0 0 0-.38-.348V5.66h1.12L16.496 5zm-1.135.607q.558 0 .973.348.434.33.72.846.289.514.432 1.101.145.587.145 1.082 0 .26-.072.645a1.34 1.34 0 0 1-.38.697q-.215.222-.558.367a1.6 1.6 0 0 1-.664.149h-.004q-.574-.001-1.006-.33a3.2 3.2 0 0 1-.703-.846 4.5 4.5 0 0 1-.416-1.066 4.7 4.7 0 0 1-.127-1.028q0-.367.073-.717a1.7 1.7 0 0 1 .322-.642q.216-.276.56-.442a1.6 1.6 0 0 1 .704-.164m.634 8.19h.467q.09.001.197.02.505.367.885.66t.615.57q.233.276.342.55.126.295.127.643h.002q-.001.864-.685 1.414-.668.57-1.97.57-1.461 0-2.325-.624-.849-.625-.848-1.616 0-.496.18-.826a2.4 2.4 0 0 1 .957-.9q.27-.112.414-.166a8 8 0 0 1 .595-.164q.304-.058.577-.094.27-.018.47-.037"/></svg>