<svg xmlns="http://www.w3.org/2000/svg" viewBox="0 0 24 24"><g fill="none"><path fill="#5c616c" d="M11 4.04c-3.324 0-6 2.676-6 6v4l-1 4 4-2h3c.819 0 1.597-.165 2.307-.459a4 4 0 0 1-.252-.99A5 5 0 0 1 11 15.04H6v-5c0-2.77 2.23-5 5-5s5 2.23 5 5c0 .048-.007.093-.008.14.323-.083.658-.14 1.008-.14 0-3.324-2.676-6-6-6"/><path fill="#3665cd" stroke="#5c616c" d="M17.5 11.002H17v.038h.5v-.038h-1v.038h.5v.462q.192 0 .375.027l.125-.003zm-.5 7.903-.447.892h.894zm-.35-2.995-.492.273.638.024zm.706.003-.138.295.628-.023zm1.025.171-1.348 2.87-1.41-2.867a2.5 2.5 0 1 1 2.758-.002Z"/></g></svg>