<svg xmlns="http://www.w3.org/2000/svg" viewBox="0 0 24 24"><g fill="none"><path fill="#536076" d="M15.308 6.132c-.822-.475-1.996-.016-2.839 1.03-.543-1.228-1.555-1.976-2.472-1.73-.916.245-1.422 1.4-1.279 2.734-1.252-.483-2.498-.294-2.972.528-.475.822-.016 1.996 1.029 2.838-1.227.543-1.974 1.557-1.728 2.473.246.917 1.4 1.42 2.734 1.276q.118-.313.295-.623c.476-.492 1.26-1.063 2.06-1.372a2 2 0 0 1-.26-.574 2 2 0 1 1 1.822 1.478c.131.847.03 1.807-.157 2.467l-.001.001a4.4 4.4 0 0 1-.393.567c.543 1.227 1.556 1.975 2.472 1.73.917-.246 1.42-1.4 1.277-2.734 1.252.484 2.498.294 2.972-.528.475-.822.016-1.996-1.03-2.838 1.228-.544 1.977-1.558 1.731-2.474-.245-.917-1.4-1.42-2.734-1.276.484-1.253.295-2.499-.527-2.973m-4.774 11.702q-.04.035-.082.068l.011-.008c.024-.018.047-.041.071-.06m-2.91-.503.005.019q.033.1.074.191l.01.02a2 2 0 0 1-.089-.23m1.807 1.059a2 2 0 0 1-.223.034l.021-.002q.1-.01.202-.032m-1.65-.686.007.015c.036.063.08.117.123.173a2 2 0 0 1-.13-.188m1.04.713c.076.01.15.02.228.02l-.016.001c-.072 0-.142-.011-.212-.02M11.12 6.87q.373.42 1.105 2.201l.971-1.217q.698-.882 1.386-.912.66.02.46 1.386-.42 1.282-.726 1.949-.006.003 1.352-.148.86-.119 1.423.076c.565.195.608.575.444.828-.163.252-.316.555-1.31 1.015q-.585.245-1.27.548l1.34 1.095q.561.546.71.981c.15.435-.067.695-.315.748-.247.052-.687.173-1.675-.215a76 76 0 0 0-1.28-.494l.143 1.383q.114.864-.116 1.468c-.23.604-.67.492-.997.226q-.328-.266-.433-.478l.133-.253a7.4 7.4 0 0 0 .3-2.025c.003 0 2.022-.595 2.043-2.984-.061-.39-.076-1.832-2.043-2.718-.3-.075-1.894-.578-3.268.947q-.855 1.023-.643 2.548-1.233.672-1.697 1.447c-.01.005-1.02-.01-1.15-.581-.03-.195.164-.66.892-1.095a35 35 0 0 1 1.773-.805L7.378 10.74q-1.025-.951-.752-1.557c.072-.098.298-.28.858-.28q.56 0 2.404.788l-.073-.705-.118-1.077q-.022-1.286.557-1.505c.16-.03.458-.025.865.466"/><path fill="#000" d="M10.138 13.285a2 2 0 0 0 1.56.903c.133.847.03 1.809-.157 2.469-.832 1.44-2.274 2.153-3.233 1.6-.96-.555-1.063-2.16-.232-3.599.477-.493 1.262-1.064 2.062-1.373M9.921 14.5q-1.014.63-1.118.916c-.104.286-.37.821-.25 1.557.135.605.579.55 1.139.24q.5-.366.661-.582l.244-.356q.172-.662.169-1.248-.555-.276-.845-.527" opacity=".3"/></g></svg>