<svg xmlns="http://www.w3.org/2000/svg" viewBox="0 0 24 24"><g fill="none"><path fill="#536076" d="M15.5 15h1.072a.8.8 0 0 0 .274-.073c.116-.057.154-.113.154-.327v-4.2c0-.214-.038-.27-.154-.327a.8.8 0 0 0-.274-.073H9.406a.7.7 0 0 0-.257.07c-.112.056-.149.112-.149.33v4.2c0 .219.185.4.428.4H13.5l1 1.333zM9.406 9h7.166S18 9 18 10.4v4.2c0 1.4-1.428 1.4-1.428 1.4H16l-1.5 2-1.5-2H9.428A1.41 1.41 0 0 1 8 14.6v-4.2C8 9 9.406 9 9.406 9"/><path fill="#000" d="M15 6.4c0-.214-.038-.27-.154-.327A.8.8 0 0 0 14.572 6H7.406a.7.7 0 0 0-.257.07C7.037 6.126 7 6.182 7 6.4v1.028q.123-.08.257-.148c.427-.213.832-.28 1.15-.28H15zM7.406 5h7.166S16 5 16 6.4v1.686c-.232-.062-.428-.086-.428-.086H8.406S7 8 7 9.4v2.53c-.58-.179-1-.702-1-1.33V6.4C6 5 7.406 5 7.406 5" opacity=".3"/></g></svg>