<svg xmlns="http://www.w3.org/2000/svg" viewBox="0 0 24 24"><path fill="#536076" d="m13.372 15 .167-.462.022-.058c.11-.3.203-.551.277-.74.182-.467.365-.823.783-1.574l.091-.163c.57-1.027.78-1.552.788-2.071C15.5 7.742 13.911 6 12 6S8.5 7.741 8.5 9.938c-.003.538.203 1.053.796 2.1l.073.13c.425.748.61 1.103.793 1.572a41 41 0 0 1 .299.798l.167.462zM12 5c2.485 0 4.5 2.208 4.5 4.932-.024 1.46-1.183 2.767-1.73 4.172A91 91 0 0 0 14.076 16H9.924s-.45-1.27-.694-1.896c-.547-1.405-1.739-2.696-1.73-4.172C7.5 7.208 9.515 5 12 5m-2 12h4v2h-4z"/></svg>