<svg xmlns="http://www.w3.org/2000/svg" viewBox="0 0 24 24"><g fill="#303030"><path d="M7.758 7.758c-.674.674-.663 1.887.097 2.874l.26.338-.064.423c-.034.223-.051.42-.051.607a4 4 0 0 0 4 4c.185 0 .382-.017.61-.051l.42-.063.338.26c.987.76 2.2.77 2.874.096s.664-1.887-.096-2.874l-.26-.337.063-.421c.034-.228.051-.425.051-.61a4 4 0 0 0-4-4c-.186 0-.384.017-.607.051l-.423.064-.338-.26c-.451-.348-.954-.55-1.433-.586-.572-.044-1.082.13-1.441.489M9.275 6.27c.676.053 1.364.326 1.967.792.248-.038.5-.063.758-.063a5 5 0 0 1 5 5c0 .258-.025.51-.062.758 1.037 1.346 1.077 3.126.011 4.191-1.065 1.066-2.845 1.026-4.191-.011-.248.037-.5.062-.758.062a5 5 0 0 1-5-5c0-.258.025-.51.063-.758-1.038-1.346-1.078-3.126-.012-4.191.587-.588 1.394-.843 2.224-.78"/><path d="M11.904 9h.002c1.517 0 2.301.781 2.301 1.24 0 .46-.227.53-.6.53-.724 0-.426-.85-1.783-.85-.449 0-1.01.2-1.01.71 0 .412.497.563 1.374.774 1.32.345 2.312.689 2.312 1.871 0 1.149-.958 1.725-2.477 1.725s-2.488-.885-2.488-1.344.178-.574.55-.574c.726 0 .63.965 1.985.965.45 0 1.115-.2 1.115-.713 0-.41-.035-.552-.998-.805-1.027-.136-2.687-.46-2.687-1.71C9.5 9.67 10.387 9 11.904 9"/></g></svg>