<svg xmlns="http://www.w3.org/2000/svg" viewBox="0 0 24 24"><g fill="#303030"><path d="M12 5a3 3 0 1 0 0 6 3 3 0 0 0 0-6m0-1a4 4 0 1 1 0 8 4 4 0 0 1 0-8m-.007 9.988H12zM5.23 19h6.385A5.4 5.4 0 0 1 11 16.5c0-.885.217-1.739.613-2.5-2.982.167-5.54 2.208-6.382 5M12 12.988c.187.002.943.011 1.682.026A4.5 4.5 0 0 0 12 16.5c0 1.418.679 2.673 1.713 3.5H4c.503-3.996 3.972-7.007 8-7.012"/><path d="M16.5 14a2.5 2.5 0 1 0 0 5 2.5 2.5 0 0 0 0-5m0-1a3.5 3.5 0 1 1 0 7 3.5 3.5 0 0 1 0-7"/><path d="M16 14h1v2h2v1h-3v-1z"/></g></svg>