<svg xmlns="http://www.w3.org/2000/svg" viewBox="0 0 64 64"><rect width="45.231" height="34" x="-58" y="-49" opacity=".2" rx="2.692" ry="2.656" transform="rotate(90)scale(-1 1)"/><rect width="45" height="34" x="-57" y="-49" fill="#8e8e8e" rx="2.678" ry="2.656" transform="rotate(90)scale(-1 1)"/><rect width="45" height="52" x="-51" y="-58" opacity=".2" rx="2.812" ry="2.5" transform="rotate(90)scale(-1 1)"/><rect width="45" height="52" x="-50" y="-58" fill="#e4e4e4" rx="2.812" ry="2.5" transform="rotate(90)scale(-1 1)"/><path fill="#fff" d="M8.5 5C7.115 5 6 6.255 6 7.813v1C6 7.255 7.115 6 8.5 6h47C56.885 6 58 7.255 58 8.813v-1C58 6.255 56.885 5 55.5 5z" opacity=".2"/><rect width="44" height="32" x="10" y="-41" fill="#4f4f4f" rx="2" ry="2" transform="scale(1 -1)"/><circle cx="-46" cy="50" r="3" opacity=".2" transform="rotate(-90)"/><circle cx="-45" cy="50" r="3" fill="#afafb1" transform="rotate(-90)"/><path fill="#68c7ff" d="M14 37.316c0 .379.382.684.857.684H23V12h-8.143c-.475 0-.857.305-.857.684v20.527z"/><path fill="#248afd" d="M23 38h7V12h-7v21.211z"/><path fill="#7767c0" d="M30 38h6V12h-6v21.211z"/><path fill="#248afd" d="M36 38h7V12h-7v21.211z"/><path fill="#50beee" d="M43 38h6.059c.521 0 .941-.305.941-.684V12.684c0-.379-.42-.684-.941-.684H43v25.316z"/><path d="M14.857 12c-.474 0-.857.305-.857.684v1c0-.38.383-.684.857-.684H49.06c.521 0 .941.305.941.684v-1c0-.38-.42-.684-.941-.684zM12.1 45c-.61 0-1.1.446-1.1 1v1c0 .554.49 1 1.1 1h.8c.61 0 1.1-.446 1.1-1v-1c0-.554-.49-1-1.1-1zm5 0c-.61 0-1.1.446-1.1 1v1c0 .554.49 1 1.1 1h.8c.61 0 1.1-.446 1.1-1v-1c0-.554-.49-1-1.1-1z" opacity=".2"/><rect width="3" height="3" x="11" y="44" fill="#8e8e8e" rx="1.1" ry="1"/><rect width="3" height="3" x="16" y="44" fill="#8e8e8e" rx="1.1" ry="1"/></svg>