<svg xmlns="http://www.w3.org/2000/svg" viewBox="0 0 64 64"><path d="M60 33a28 28 0 0 1-28 28A28 28 0 0 1 4 33 28 28 0 0 1 32 5a28 28 0 0 1 28 28" opacity=".2"/><path fill="#4f4f4f" d="M60 32a28 28 0 0 1-28 28A28 28 0 0 1 4 32 28 28 0 0 1 32 4a28 28 0 0 1 28 28"/><path d="m15.637 22-4.95 7H21.45l-7.875 15h16.912l7.875-15h5.637l-7.875 15h5.639l11.533-21.969.017-.031H25.124z" opacity=".2"/><path fill="#fff" d="M36.399 21h5.637l-11.55 22H24.85zm11.275 0h5.637l-11.55 22h-5.637z"/><path fill="#fff" d="m15.637 21-4.95 7H21.45l3.674-7zm20.761 0-3.673 7h16.463l4.124-7z"/><path fill="#4485e8" d="M30.761 21H36.4L24.85 43h-5.64z"/><path fill="#69b0ec" d="M25.124 21h5.637l-11.55 22h-5.637z"/><path fill="#fff" d="M32 4A28 28 0 0 0 4 32a28 28 0 0 0 .021.586A28 28 0 0 1 32 5a28 28 0 0 1 27.979 27.414L60 32A28 28 0 0 0 32 4" opacity=".1"/></svg>