<svg xmlns="http://www.w3.org/2000/svg" xmlns:xlink="http://www.w3.org/1999/xlink" viewBox="0 0 48 48"><defs><linearGradient id="a" x1="90.7%" x2="35.327%" y1="6.565%" y2="64.144%"><stop offset="0%" stop-color="#93def2"/><stop offset="100%" stop-color="#5abadf"/></linearGradient></defs><g fill="none" fill-rule="evenodd"><path fill="#fff" d="M24 34a9 9 0 1 0 0-18 9 9 0 0 0 0 18m0-1.143-5-7h10zm2-7h-4v-8h4z"/><path fill="#5abadf" d="M5 7.998A3 3 0 0 1 8.008 5h22.994L43 17.01v22.983A3.01 3.01 0 0 1 40.002 43H7.998A3.004 3.004 0 0 1 5 40.002z"/><path fill="url(#a)" d="m31 5 12 12V7.997A2.997 2.997 0 0 0 40.003 5z" transform="matrix(-1 0 0 -1 74 22)"/><path fill="#fff" d="M19.526 25.981h-2.39v3.648q0 .782-.37 1.186-.368.405-.931.405-.589 0-.95-.4-.36-.4-.36-1.174v-9.931q0-.862.396-1.23.396-.37 1.257-.37h3.348q1.485 0 2.286.229.79.22 1.366.73t.875 1.247q.299.738.299 1.661 0 1.97-1.213 2.984t-3.613 1.015m-.632-5.906h-1.758v3.938h1.758q.922 0 1.542-.194t.945-.632.325-1.152q0-.852-.5-1.389-.564-.57-2.312-.57m15.196 8.007q0 .993-.484 1.7-.483.708-1.428 1.073t-2.298.365q-1.292 0-2.215-.396-.923-.395-1.362-.989-.44-.593-.44-1.19 0-.396.282-.677a.97.97 0 0 1 .711-.281q.378 0 .58.184.203.184.387.519.369.641.884.958.514.316 1.401.316.72 0 1.183-.32.46-.322.461-.735 0-.634-.48-.922-.477-.29-1.577-.554-1.239-.307-2.017-.646t-1.243-.892q-.466-.555-.466-1.363 0-.72.43-1.362.431-.642 1.27-1.024.84-.382 2.026-.382.932 0 1.675.193.743.194 1.239.519t.756.72.259.774a.9.9 0 0 1-.277.677q-.277.263-.786.263a.96.96 0 0 1-.629-.21 4 4 0 0 1-.593-.633 2.2 2.2 0 0 0-.642-.563q-.369-.21-1.002-.21-.65 0-1.08.276-.432.277-.431.69 0 .377.316.62.316.24.853.4.536.158 1.476.386 1.116.273 1.824.65.708.379 1.072.893t.365 1.173"/></g></svg>