<svg xmlns="http://www.w3.org/2000/svg" viewBox="0 0 24 24"><path fill="#536076" d="M17.046 6.049 5.238 8.109v.022L5.562 10h1.676l1.417-2.44 3.07 2.44h1.46l1.186-1.593L16.658 10h1.087zM8.938 9.062 7.812 11H4.72l-.47-2.719s-.172-.982.813-1.156l11.81-2.062s.061-.03.156-.032c.287-.002.872.105 1.002.844L18.938 11h-2.594l-1.75-1.219L13.688 11h-2.313zM5 12v1h1v-1zm2 0v1h1v-1zm2 0v1h1v-1zm2 0v1h1v-1zm2 0v1h1v-1zm2 0v1h1v-1zm2 0v1h1v-1zm2 0v1h1v-1zm-.547 2.178.985-.178.31 1.719c.174.985-.812 1.156-.812 1.156L7.125 18.969s-.983.172-1.156-.813L5.423 15l-.177-1h1.019l.688 3.98q.007 0 11.81-2.09c-.013.002.02-.01.044-.024-.006.009-.037.067-.043.03l-.133-.738-.046-.252z"/></svg>