<svg xmlns="http://www.w3.org/2000/svg" xmlns:xlink="http://www.w3.org/1999/xlink" viewBox="0 0 128 128"><defs><linearGradient id="d" x1="50%" x2="50%" y1="0%" y2="100%"><stop offset="0%" stop-color="#28dcb1"/><stop offset="100%" stop-color="#00af9d"/></linearGradient><linearGradient id="g" x1="50%" x2="7.994%" y1="50%" y2="88.893%"><stop offset="0%" stop-color="#fff" stop-opacity=".1"/><stop offset="100%" stop-color="#fff" stop-opacity=".3"/></linearGradient><filter id="b" width="125%" height="120.2%" x="-12.5%" y="-8.3%" filterUnits="objectBoundingBox"><feOffset dy="2" in="SourceAlpha" result="shadowOffsetOuter1"/><feGaussianBlur in="shadowOffsetOuter1" result="shadowBlurOuter1" stdDeviation="3.5"/><feColorMatrix in="shadowBlurOuter1" values="0 0 0 0 0.262745098 0 0 0 0 0.71372549 0 0 0 0 0.607843137 0 0 0 0.5 0"/></filter><filter id="f" width="124.6%" height="124.6%" x="-12.3%" y="-8.8%" filterUnits="objectBoundingBox"><feOffset dy="1" in="SourceAlpha" result="shadowOffsetOuter1"/><feGaussianBlur in="shadowOffsetOuter1" result="shadowBlurOuter1" stdDeviation="1"/><feComposite in="shadowBlurOuter1" in2="SourceAlpha" operator="out" result="shadowBlurOuter1"/><feColorMatrix in="shadowBlurOuter1" values="0 0 0 0 0 0 0 0 0 0 0 0 0 0 0 0 0 0 0.05 0"/></filter><path id="a" d="M92 105a9 9 0 0 1-9 9H9a9 9 0 0 1-9-9V9a9 9 0 0 1 9-9h54.5L92 28.5z"/><path id="e" d="M63.5 0 92 28.5H72.5a9 9 0 0 1-9-9z"/></defs><g fill="none" fill-rule="evenodd"><g transform="translate(18 7)"><use xlink:href="#a" fill="#000" filter="url(#b)"/><use xlink:href="#a" fill="url(#d)"/></g><g transform="translate(18 7)"><use xlink:href="#e" fill="#000" filter="url(#f)"/><use xlink:href="#e" fill="url(#g)"/></g><path fill="#fff" d="M86 46v36H41.915V46zm-2 2H44v32h40zm-25 4 7 15 4-8 12 18.986-36 .022zm-9 50h3.194c4.125 0 6.308-2.493 6.308-6.975 0-4.5-2.183-7.025-6.42-7.025H50zm2-2V90h.931c2.963 0 4.569 1.575 4.569 5.025 0 3.432-1.606 4.975-4.569 4.975zm16.132 0C66.097 100 64 98.1 64 96.155v-2.31C64 91.898 66.09 90 68.132 90c1.07 0 2.172.25 2.868 1l1.731-1.024C71.575 88.729 69.914 88 68.132 88 64.732 88 62 90.612 62 93.845v2.31C62 99.39 64.742 102 68.132 102c1.842 0 3.546-.77 4.701-2.08L71 99c-.693.786-1.757 1-2.868 1M78 88v14h-2V88z"/></g></svg>