<svg xmlns="http://www.w3.org/2000/svg" viewBox="0 0 24 24"><g fill="#536076"><path d="M10.94 8.064a9 9 0 0 1 1.05-.06c1.455.014 2.833.355 3.927.973.634.412 1.16.801 1.518 1.136a8 8 0 0 1 1.45 1.891 7.64 7.64 0 0 1-2.436 2.675l-1.764.894a7 7 0 0 1-1.622.37c-1.786.203-3.579-.125-4.98-.912-.635-.413-1.16-.801-1.518-1.136a8 8 0 0 1-1.45-1.892 7.64 7.64 0 0 1 2.44-2.678l1.764-.892a7 7 0 0 1 1.621-.37m-2.014-.552-1.88.949c-1.31.878-2.392 2.102-3.046 3.543.443.98 1.1 1.855 1.865 2.605.487.457 1.134.91 1.672 1.26 1.694.954 3.711 1.287 5.639 1.069a8 8 0 0 0 1.904-.444l1.877-.951c1.31-.878 2.39-2.1 3.043-3.54-.443-.979-1.099-1.854-1.865-2.605-.487-.456-1.134-.909-1.672-1.26C15.113 7.374 13.55 7.02 12 7.005q-.59-.001-1.176.066a8 8 0 0 0-1.898.442"/><path d="m6.687 6-.707.707L17.293 18.02l.707-.707zM12 9.004a2.76 2.76 0 0 0-1.281.3l3.969 3.97c.321-.667.425-1.436.175-2.157-.369-1.23-1.575-2.128-2.863-2.113m-2.695 1.715A2.8 2.8 0 0 0 9 12.004c-.052 1.766 1.709 3.29 3.45 2.96a2.6 2.6 0 0 0 .837-.263l-1.932-1.933-.035-.034-.037-.035-.017-.02z"/></g></svg>