<svg xmlns="http://www.w3.org/2000/svg" xmlns:xlink="http://www.w3.org/1999/xlink" viewBox="0 0 128 128"><defs><linearGradient id="d" x1="50%" x2="50%" y1="0%" y2="100%"><stop offset="0%" stop-color="#28dcb1"/><stop offset="100%" stop-color="#00af9d"/></linearGradient><linearGradient id="g" x1="50%" x2="7.994%" y1="50%" y2="88.893%"><stop offset="0%" stop-color="#fff" stop-opacity=".1"/><stop offset="100%" stop-color="#fff" stop-opacity=".3"/></linearGradient><filter id="c" width="125%" height="120.2%" x="-12.5%" y="-8.3%" filterUnits="objectBoundingBox"><feOffset dy="2" in="SourceAlpha" result="shadowOffsetOuter1"/><feGaussianBlur in="shadowOffsetOuter1" result="shadowBlurOuter1" stdDeviation="3.5"/><feColorMatrix in="shadowBlurOuter1" values="0 0 0 0 0.262745098 0 0 0 0 0.71372549 0 0 0 0 0.607843137 0 0 0 0.5 0"/></filter><filter id="f" width="124.6%" height="124.6%" x="-12.3%" y="-8.8%" filterUnits="objectBoundingBox"><feOffset dy="1" in="SourceAlpha" result="shadowOffsetOuter1"/><feGaussianBlur in="shadowOffsetOuter1" result="shadowBlurOuter1" stdDeviation="1"/><feComposite in="shadowBlurOuter1" in2="SourceAlpha" operator="out" result="shadowBlurOuter1"/><feColorMatrix in="shadowBlurOuter1" values="0 0 0 0 0 0 0 0 0 0 0 0 0 0 0 0 0 0 0.05 0"/></filter><path id="a" d="M92 105a9 9 0 0 1-9 9H9a9 9 0 0 1-9-9V9a9 9 0 0 1 9-9h54.5L92 28.5z"/><path id="e" d="M63.5 0 92 28.5H72.5a9 9 0 0 1-9-9z"/></defs><g fill="none" fill-rule="evenodd"><g transform="translate(18 7)"><use xlink:href="#a" fill="#000" filter="url(#c)"/><use xlink:href="#a" fill="url(#d)"/></g><g transform="translate(18 7)"><use xlink:href="#e" fill="#000" filter="url(#f)"/><use xlink:href="#e" fill="url(#g)"/></g><path fill="#fff" d="M62.132 88c1.782 0 3.443.73 4.6 1.976L65 91c-.696-.75-1.798-1-2.868-1C60.09 90 58 91.898 58 93.845v2.31c0 1.946 2.097 3.845 4.132 3.845 1.111 0 2.175-.214 2.868-1l1.833.92c-1.155 1.31-2.859 2.08-4.7 2.08C58.741 102 56 99.389 56 96.155v-2.31C56 90.612 58.732 88 62.132 88M74 88c3.317 0 6 2.611 6 5.845v2.31c0 3.233-2.673 5.845-6 5.845-3.317 0-6-2.611-6-5.845v-2.31C68 90.612 70.673 88 74 88m-20 0v14h-2V88zm20 2c-2.221 0-4 1.676-4 3.762v2.476c0 2.084 1.788 3.762 4 3.762 2.221 0 4-1.676 4-3.762v-2.476C78 91.678 76.212 90 74 90m12-44v36H41.915V46zm-2 2H44v32h40zm-25 4 7 15 4-8 12 18.986-36 .022z"/></g></svg>