<svg xmlns="http://www.w3.org/2000/svg" xmlns:xlink="http://www.w3.org/1999/xlink" viewBox="0 0 128 128"><defs><linearGradient id="d" x1="50%" x2="50%" y1="0%" y2="100%"><stop offset="0%" stop-color="#327dff"/><stop offset="100%" stop-color="#1066ff"/></linearGradient><linearGradient id="g" x1="50%" x2="7.994%" y1="50%" y2="88.893%"><stop offset="0%" stop-color="#fff" stop-opacity=".1"/><stop offset="100%" stop-color="#fff" stop-opacity=".3"/></linearGradient><filter id="c" width="125%" height="120.2%" x="-12.5%" y="-8.3%" filterUnits="objectBoundingBox"><feOffset dy="2" in="SourceAlpha" result="shadowOffsetOuter1"/><feGaussianBlur in="shadowOffsetOuter1" result="shadowBlurOuter1" stdDeviation="3.5"/><feColorMatrix in="shadowBlurOuter1" values="0 0 0 0 0.0391387195 0 0 0 0 0.388542822 0 0 0 0 1 0 0 0 0.5 0"/></filter><filter id="f" width="124.6%" height="124.6%" x="-12.3%" y="-8.8%" filterUnits="objectBoundingBox"><feOffset dy="1" in="SourceAlpha" result="shadowOffsetOuter1"/><feGaussianBlur in="shadowOffsetOuter1" result="shadowBlurOuter1" stdDeviation="1"/><feComposite in="shadowBlurOuter1" in2="SourceAlpha" operator="out" result="shadowBlurOuter1"/><feColorMatrix in="shadowBlurOuter1" values="0 0 0 0 0 0 0 0 0 0 0 0 0 0 0 0 0 0 0.05 0"/></filter><path id="a" d="M92 105a9 9 0 0 1-9 9H9a9 9 0 0 1-9-9V9a9 9 0 0 1 9-9h54.5L92 28.5z"/><path id="e" d="M63.5 0 92 28.5H72.5a9 9 0 0 1-9-9z"/></defs><g fill="none" fill-rule="evenodd"><g transform="translate(18 7)"><use xlink:href="#a" fill="#000" filter="url(#c)"/><use xlink:href="#a" fill="url(#d)"/></g><g transform="translate(18 7)"><use xlink:href="#e" fill="#000" filter="url(#f)"/><use xlink:href="#e" fill="url(#g)"/></g><path fill="#fff" d="M42 50v38h4V72.057h9.333C61.201 72.057 66 67.12 66 61.03 66 54.95 61.224 50 55.333 50zm34.68 10c6.42 0 9.93 2.723 10.631 8.272h-3.91c-.352-1.644-1.004-2.878-2.007-3.597-1.103-.822-2.707-1.233-4.763-1.233-1.806 0-3.21.308-4.212 1.028q-1.656 1.002-1.655 2.774c0 1.13.702 2.106 2.206 2.877.953.462 2.758 1.028 5.366 1.747 3.109.77 5.315 1.593 6.669 2.466 2.056 1.336 3.109 3.134 3.109 5.446 0 5.446-3.66 8.22-10.982 8.22-6.82 0-10.53-3.083-11.132-9.196h3.911c.301 2.106 1.053 3.596 2.157 4.52q1.654 1.234 4.964 1.234c4.613 0 6.97-1.541 6.97-4.521 0-1.49-.853-2.62-2.457-3.443-.853-.41-2.708-.976-5.516-1.695-3.059-.77-5.215-1.541-6.419-2.363-2.005-1.233-2.958-2.929-2.958-5.19 0-2.26.953-4.007 2.908-5.342C71.365 60.668 73.772 60 76.68 60M55.6 54c3.529 0 6.4 3.143 6.4 7 0 3.853-2.882 7-6.4 7H46V54Z"/></g></svg>