<svg xmlns="http://www.w3.org/2000/svg" viewBox="0 0 22 22"><path fill="none" d="M0 0h22v22H0z"/><path fill="currentColor" d="M11 3C7.692 3 5 5.692 5 9l.002.057c.014 2.321.86 3.509 1.62 4.394C7.386 14.344 8 14.893 8 16.5V19h2v1h2v-1h2v-2.5c0-1.607.634-2.304 1.39-3.25.75-.936 1.589-2.104 1.606-4.187L17 9c0-3.308-2.692-6-6-6m0 1c2.767 0 5 2.233 5 5 0 1.875-.647 2.696-1.39 3.625-.663.828-1.337 1.843-1.495 3.375H8.881c-.164-1.504-.85-2.44-1.502-3.201C6.644 11.942 6 11.139 6 9c0-2.767 2.233-5 5-5M9.146 9.146l-1.5 1.5.708.708L9.5 10.207l1.146 1.147h.708l1.146-1.147 1.146 1.147.708-.708-1.5-1.5h-.708L11 10.293 9.854 9.146z" color="#d3dae3"/></svg>