<svg xmlns="http://www.w3.org/2000/svg" viewBox="0 0 64 64"><path d="M57 57.4V10.6H19.773c-4.935 1.336-4.477 2.937-4.773 4.5v42.3c.877 3.214 3.346 3.321 5.727 3.6h31.5c1.961-.089 4.164-.864 4.773-3.6" opacity=".2"/><path fill="#c2352a" d="M57 56.4V9.6H19.773c-4.935 1.336-4.477 2.937-4.773 4.5v42.3c.877 3.214 3.346 3.321 5.727 3.6h31.5c1.961-.089 4.164-.864 4.773-3.6"/><path d="M49 8.714v48.285H11.773C6.838 55.62 7.296 53.97 7 52.356V8.714c.877-3.317 3.346-3.427 5.727-3.715h31.5c1.961.092 4.164.892 4.773 3.715" opacity=".2"/><path fill="#e4e4e4" d="M49 7.714V56H11.773C6.838 54.621 7.296 52.97 7 51.357V7.714C7.877 4.398 10.346 4.287 12.727 4h31.5c1.961.092 4.164.892 4.773 3.714"/><path fill="#90caf9" d="m45 20-9 1v9h9z"/><path fill="#bdbdbd" d="M45 9H30v11l15-3z"/><path fill="#ffcc80" d="M27 9H11v14l16-3z"/><path fill="#ff8a80" d="m45 45-34-6v14h34z"/><path fill="#bdbdbd" d="m34 21-23 4v12l23 4zm11 11h-9v9l9 2z"/><path d="M49 8.733v48.533c0-1.822.709-4.267 4-4.267s4 2.356 4 4.267V8.733c0-3.734-4-3.734-4-3.734s-4 0-4 3.734" opacity=".2"/><path fill="#df574d" d="M49 7.733v48.534c0-1.822.709-4.267 4-4.267s4 2.355 4 4.267V7.733C57 4 53 4 53 4s-4 0-4 3.733"/><path fill="#fff" d="M44.227 4c1.96.092 4.164.892 4.773 3.715v1C48.391 5.892 46.188 5.092 44.227 5h-31.5c-2.382.287-4.85.399-5.727 3.715v-1C7.877 4.399 10.345 4.287 12.727 4ZM53 4s4 .001 4 3.734v1C57 5.001 53 5 53 5s-4 .001-4 3.734v-1C49 4.001 53 4 53 4" opacity=".2"/><path d="m15 5-8 8h2.273c2.382-.287 4.85-.399 5.727-3.715Z" opacity=".2"/><path fill="#fafafa" d="m15 4-8 8h2.273c2.382-.287 4.85-.399 5.727-3.715z"/></svg>