<svg xmlns="http://www.w3.org/2000/svg" viewBox="0 0 64 64"><rect width="44" height="56" x="10" y="4" opacity=".2" rx="3" ry="3"/><rect width="44" height="56" x="10" y="3" fill="#3d65c2" rx="3" ry="3"/><path d="M13 3c-1.662 0-3 1.338-3 3v50c0 1.662 1.338 3 3 3h5V3zm19 9v10H22v8h10v22h8V30h10v-8H40V12Z" opacity=".2"/><path fill="#ffd972" d="M32 11v10H22v8h10v22h8V29h10v-8H40V11z"/><circle cx="48" cy="47" r="16" opacity=".2"/><circle cx="48" cy="46" r="16" fill="#ff982d"/><path fill="#fff" d="M48 36c-5.523 0-10 4.477-10 10s4.477 10 10 10 10-4.477 10-10-4.477-10-10-10m0 2a8 8 0 1 1 0 16 8 8 0 0 1 0-16m-1 2v7h7v-2h-5v-5Z"/><path fill="#fff" d="M13 3c-1.662 0-3 1.338-3 3v1c0-1.662 1.338-3 3-3h38c1.662 0 3 1.338 3 3V6c0-1.662-1.338-3-3-3z" opacity=".1"/></svg>