<svg xmlns="http://www.w3.org/2000/svg" viewBox="0 0 64 64"><path d="M12.812 4C11.254 4 10 5.271 10 6.85v51.3c0 1.579 1.254 2.85 2.812 2.85h39.376C53.746 61 55 59.729 55 58.15V21l-14.063-2.75L38 4Z" opacity=".2"/><path fill="#1fa872" d="M12.812 3C11.254 3 10 4.271 10 5.85v51.3c0 1.579 1.254 2.85 2.812 2.85h39.375C53.747 60 55 58.729 55 57.15V20l-14.063-2.75L38 3Z"/><path d="M55 21 38 4v14.167A2.827 2.827 0 0 0 40.833 21Z" opacity=".2"/><path fill="#49d19c" d="M55 20 38 3v14.167A2.827 2.827 0 0 0 40.833 20Z"/><path d="M46.55 25a1.4 1.4 0 0 0-.966.426l-8.16 8.16A8.5 8.5 0 0 0 32.5 32a8.5 8.5 0 0 0-5.48 2.017L38.99 45.99A8.5 8.5 0 0 0 41 40.5a8.5 8.5 0 0 0-1.582-4.928l8.156-8.156A1.408 1.408 0 0 0 46.551 25M26.01 35.01A8.5 8.5 0 0 0 24 40.5a8.5 8.5 0 0 0 1.582 4.928l-8.148 8.148a1.408 1.408 0 1 0 1.99 1.99l8.15-8.152A8.5 8.5 0 0 0 32.5 49a8.5 8.5 0 0 0 5.48-2.018Z" opacity=".2"/><path fill="#fff" d="M32.5 31a8.5 8.5 0 0 0-5.481 2.017L38.99 44.99A8.5 8.5 0 0 0 41 39.5a8.5 8.5 0 0 0-8.5-8.5m-6.491 3.01A8.5 8.5 0 0 0 24 39.5a8.5 8.5 0 0 0 8.5 8.5 8.5 8.5 0 0 0 5.481-2.017Z"/><path fill="#fff" d="M46.55 24a1.4 1.4 0 0 0-.967.426L32.726 37.283c1.496-.096 1.883.815 2.106 1.875l12.741-12.742A1.408 1.408 0 0 0 46.551 24M30.54 39.469 17.433 52.577a1.408 1.408 0 1 0 1.99 1.99L32.51 41.48c-.982-.179-1.872-.498-1.969-2.012"/><path fill="#fff" d="M12.813 3C11.254 3 10 4.27 10 5.85v1C10 5.27 11.254 4 12.813 4H38V3Z" opacity=".2"/></svg>