<svg xmlns="http://www.w3.org/2000/svg" viewBox="0 0 16.933 16.933"><rect width="64" height="64" y="988.362" fill="none" opacity=".75" rx="0" ry="0" transform="translate(0 -261.504)scale(.26458)"/><path fill="#fc8f36" d="M2.381.265h12.171V15.61H2.382z" color="#000" overflow="visible" style="marker:none"/><path fill="none" d="m2.249.132 12.435.001v15.61H2.25z" opacity=".3"/><path fill="none" stroke="#b85700" stroke-linejoin="round" stroke-opacity=".776" stroke-width=".265" d="m2.249.132 12.435.001v15.61H2.25z"/><path fill="#fff" d="M4.002 13.442q0-.245.169-.41a.56.56 0 0 1 .411-.168q.238 0 .403.168.168.165.168.41a.55.55 0 0 1-.168.406.55.55 0 0 1-.403.165.56.56 0 0 1-.411-.165.55.55 0 0 1-.169-.406m-.033-2.61v.962c1.228 0 2.225.999 2.225 2.229h.964c0-1.762-1.43-3.19-3.19-3.19zM3.97 8.73v1.063a4.23 4.23 0 0 1 4.224 4.23H9.26A5.294 5.294 0 0 0 3.97 8.73" font-family="Bitstream Vera Serif" font-size="13.59" font-weight="700" style="line-height:125%;text-align:start"/></svg>