<svg xmlns="http://www.w3.org/2000/svg" viewBox="0 0 64 64"><circle cx="32" cy="33" r="28" opacity=".2"/><circle cx="32" cy="32" r="28" fill="#009688"/><path d="M32 16a17 17 0 0 0-10.955 4.025L26.805 30l7.941-13.756A17 17 0 0 0 32 16m5.758 1.027L32 27h15.896a17 17 0 0 0-10.138-9.973m-18.9 5.207A17 17 0 0 0 15 33c.002 1.006.094 2.01.273 3h11.532zM37.194 30l7.948 13.766A17 17 0 0 0 49 33a17 17 0 0 0-.273-3Zm0 6-7.941 13.756A17 17 0 0 0 32 50a17 17 0 0 0 10.955-4.025zm-21.091 3a17 17 0 0 0 10.138 9.973L32 39Z" opacity=".2"/><path fill="#fff" d="M32 15a17 17 0 0 0-10.955 4.025L26.805 29l7.941-13.756A17 17 0 0 0 32 15m5.758 1.027L32 26h15.896a17 17 0 0 0-10.138-9.973m-18.9 5.207A17 17 0 0 0 15 32c.002 1.006.094 2.01.273 3h11.532zM37.194 29l7.948 13.766A17 17 0 0 0 49 32a17 17 0 0 0-.273-3zm0 6-7.941 13.756A17 17 0 0 0 32 49a17 17 0 0 0 10.955-4.025zm-21.091 3a17 17 0 0 0 10.138 9.973L32 38Z"/><path fill="#fff" d="M32 4A28 28 0 0 0 4 32a28 28 0 0 0 .021.586A28 28 0 0 1 32 5a28 28 0 0 1 27.979 27.414L60 32A28 28 0 0 0 32 4" opacity=".2"/></svg>