<svg xmlns="http://www.w3.org/2000/svg" viewBox="0 0 64 64"><rect width="56" height="56" x="4" y="5" opacity=".2" rx="4.2" ry="4.2"/><path fill="#ff7800" d="M55.8 4H32v56h23.8a4.19 4.19 0 0 0 4.2-4.2V8.2A4.19 4.19 0 0 0 55.8 4"/><path fill="#4f4f4f" d="M8.2 4H32v56H8.2A4.19 4.19 0 0 1 4 55.8V8.2A4.19 4.19 0 0 1 8.2 4"/><path fill="#fff" d="M32 32v28H8.2A4.19 4.19 0 0 1 4 55.8V32ZM8.2 4A4.19 4.19 0 0 0 4 8.2v1A4.19 4.19 0 0 1 8.2 5h47.6A4.19 4.19 0 0 1 60 9.2v-1A4.19 4.19 0 0 0 55.8 4z" opacity=".1"/><path d="M40 47v3h13v-3zm0-7v3h13v-3zM12 18v3h13v-3zm5 21v5h-5v3h5v5h3v-5h5v-3h-5v-5z" opacity=".1"/><path fill="#fff" d="M40 46v3h13v-3zm0-7v3h13v-3zM12 17v3h13v-3zm5 21v5h-5v3h5v5h3v-5h5v-3h-5v-5z"/></svg>