<svg xmlns="http://www.w3.org/2000/svg" viewBox="0 0 64 64"><rect width="56" height="56" x="4" y="5" opacity=".2" rx="6" ry="6"/><rect width="50" height="56" x="4" y="4" fill="#4f4f4f" rx="6" ry="6"/><path d="m17 13 3 2v40l19-17-1-1V15l-4-2Zm13 6 2 1v14l-6 5V19Z" opacity=".2"/><path fill="#e4e4e4" d="m17 12 3 2v40l19-17-1-1V14l-4-2Zm13 6 2 1v14l-6 5V18Z"/><path fill="#f14c21" d="M48 48v12h6c3.324 0 6-2.676 6-6v-6z"/><path fill="#ce3535" d="M48 37h12v12H48z"/><path fill="#a52727" d="M48 26h12v12H48z"/><path fill="#8044ba" d="M48 14h12v12H48z"/><path fill="#4454ba" d="M47.91 4c.054.326.09.659.09 1v10h12v-5c0-3.324-2.676-6-6-6z"/><path fill="#fff" d="M10 4c-3.324 0-6 2.676-6 6v1c0-3.324 2.676-6 6-6h44c3.324 0 6 2.676 6 6v-1c0-3.324-2.676-6-6-6Z" opacity=".1"/></svg>