<svg xmlns="http://www.w3.org/2000/svg" viewBox="0 0 64 64"><path d="M9 10.86v44.325C9 57.844 11.043 60 13.563 60H37l16-16V10.86Z" opacity=".2"/><path fill="#fecd38" d="M9 10v44.198C9 56.85 11.043 59 13.563 59H37l16-15.955V10Z"/><path d="M9 10h44v1H9z" opacity=".1"/><path d="M53 34H9v.6h44zm0 4H9v.6h44zm0-8H9v.6h44zm0-4H9v.6h44zm0-4H9v.6h44zm0-4H9v.6h44zm0-4H9v.6h44zm0 28H9v.6h44zm-13 4H9v.6h31zm0 4H9v.6h31zm0 4H9v.6h31z" opacity=".15"/><path fill="#5d5d5d" d="M20 10h-2v49h2z"/><path fill="#795548" d="M13.563 3C11.035 3 9 5.148 9 7.815V10h44V7.815C53 5.148 50.965 3 48.438 3Z"/><path fill="#fff" d="M13.563 3C11.035 3 9 5.15 9 7.816v1C9 6.15 11.035 4 13.563 4h34.875C50.965 4 53 6.15 53 8.816v-1C53 5.15 50.965 3 48.438 3z" opacity=".1"/><path fill="#ffe69b" d="M53 43H41.424C38.981 43 37 45.054 37 47.586V59Z"/><path d="M56.855 14c-.514 0-1.029.197-1.421.59l-1.422 1.422-1.422 1.422 1.422 1.421 2.133 2.133 1.421 1.422 1.422-1.422 1.422-1.422a2.01 2.01 0 0 0 0-2.843l-2.133-2.133a2 2 0 0 0-1.422-.59m.711 8.41L56.133 21 54 18.867l.004-.004-1.414-1.43-18.48 18.481v.004l-.555 3.039L33 42l3.043-.555 3.035-.554h.004z" opacity=".1"/><path fill="#ed333b" d="m54.012 15.01 1.421-1.42a2.01 2.01 0 0 1 2.846 0l2.132 2.131c.785.786.785 2.06 0 2.846l-1.422 1.421a2.01 2.01 0 0 1-2.845 0l-2.132-2.132a2.01 2.01 0 0 1 0-2.845m0 0"/><path fill="#ffd888" d="m36.042 40.446-2.488-2.488.553-3.041 4.976 4.976zm0 0"/><path fill="#424048" d="m33 41 .554-3.042 2.488 2.488zm0 0"/><path fill="#5b5962" d="M52.59 16.433 34.108 34.915l1.28 1.28.141.143 2.135 2.132 1.418 1.424 18.484-18.485L56.135 20 54 17.867l.002-.002z"/><path fill="#c5c4c2" d="m52.59 16.432 1.422-1.421 4.977 4.977-1.423 1.422zm0 0"/></svg>