<svg xmlns="http://www.w3.org/2000/svg" viewBox="0 0 64 64"><rect width="56" height="52" x="4" y="7" opacity=".2" rx="2.8" ry="2.8"/><rect width="56" height="52" x="4" y="6" fill="#5e5c64" rx="2.8" ry="2.8"/><circle cx="32" cy="23" r="12" opacity=".1"/><circle cx="32" cy="22" r="12" fill="#c0bfbc"/><circle cx="32" cy="19" r="4" opacity=".2"/><circle cx="32" cy="18" r="4" fill="#3f6d83"/><rect width="28" height="6" x="18" y="41" opacity=".1" rx="1.6" ry="1.6"/><rect width="28" height="6" x="18" y="40" fill="#c0bfbc" rx="1.6" ry="1.6"/><path fill="#fff" d="M6.8 6C5.25 6 4 7.25 4 8.8v1C4 8.25 5.25 7 6.8 7h50.4A2.796 2.796 0 0 1 60 9.8v-1C60 7.25 58.75 6 57.199 6z" opacity=".1"/><path d="M19.6 40c-.887 0-1.6.713-1.6 1.6v1c0-.887.713-1.6 1.6-1.6h24.8c.887 0 1.6.713 1.6 1.6v-1c0-.887-.713-1.6-1.6-1.6zM30 25a5.984 5.984 0 0 0-5.918 5.008A12 12 0 0 0 32 33a12 12 0 0 0 7.918-2.992A5.984 5.984 0 0 0 34 25Z" opacity=".2"/><path fill="#3f6d83" d="M30 24a5.984 5.984 0 0 0-5.918 5.008A12 12 0 0 0 32 32a12 12 0 0 0 7.918-2.992A5.984 5.984 0 0 0 34 24Z"/><g transform="translate(1 1)"><circle cx="48" cy="47" r="15" opacity=".2"/><circle cx="48" cy="46" r="15" fill="#62a0ea"/><path fill="#fff" d="m46 38-.18 2.11a6.3 6.3 0 0 0-1.83 1.06l-1.92-.9-2 3.46 1.74 1.21a6.3 6.3 0 0 0-.1 1.06 6.3 6.3 0 0 0 .1 1.07l-1.74 1.2 2 3.46 1.91-.9a6.3 6.3 0 0 0 1.84 1.06L46 54h4l.18-2.11a6.3 6.3 0 0 0 1.83-1.06l1.92.9 2-3.46-1.74-1.21a6.3 6.3 0 0 0 .1-1.06 6.3 6.3 0 0 0-.1-1.06l1.74-1.21-2-3.46-1.91.9a6.3 6.3 0 0 0-1.84-1.06L50 38Zm2 5.72A2.29 2.29 0 0 1 50.29 46 2.29 2.29 0 0 1 48 48.29 2.29 2.29 0 0 1 45.71 46 2.29 2.29 0 0 1 48 43.72"/></g></svg>