<svg xmlns="http://www.w3.org/2000/svg" viewBox="0 0 64 64"><rect width="56" height="44" x="4" y="11" opacity=".2" rx="3"/><path fill="#5d5d5d" d="M24 54V10H7c-1.662 0-3 1.338-3 3v38c0 1.662 1.338 3 3 3z"/><path fill="#3f3f3f" d="M24 54h33c1.662 0 3-1.338 3-3V13c0-1.662-1.338-3-3-3H24z"/><path d="M9 24v18h5V29h6v-5h-6z" opacity=".2"/><path fill="#e97e10" d="M9 23v18h5V28h6v-5h-6z"/><rect width="14" height="5" x="28" y="17" opacity=".2" rx="2.5"/><rect width="18" height="5" x="28" y="26" opacity=".2" rx="2.5"/><rect width="18" height="5" x="28" y="44" opacity=".2" rx="2.5"/><rect width="18" height="5" x="37" y="35" opacity=".2" rx="2.5"/><rect width="9" height="5" x="45" y="17" opacity=".2" rx="2.5"/><rect width="14" height="5" x="28" y="16" fill="#fff" rx="2.5"/><rect width="18" height="5" x="28" y="25" fill="#fecd38" rx="2.5"/><path d="M24 10h1v44h-1z" opacity=".1"/><rect width="18" height="5" x="28" y="43" fill="#fecd38" rx="2.5"/><rect width="18" height="5" x="37" y="34" fill="#fff" rx="2.5"/><rect width="9" height="5" x="45" y="16" fill="#df574d" rx="2.5"/><path fill="#fff" d="M7 10c-1.662 0-3 1.338-3 3v1c0-1.662 1.338-3 3-3h50c1.662 0 3 1.338 3 3v-1c0-1.662-1.338-3-3-3z" opacity=".1"/></svg>