<svg xmlns="http://www.w3.org/2000/svg" viewBox="0 0 64 64"><circle cx="32" cy="33" r="28" opacity=".2"/><circle cx="32" cy="32" r="28" fill="#e64b4b"/><path fill="#fff" d="M32 4A28 28 0 0 0 4 32a28 28 0 0 0 .035.5A28 28 0 0 1 32 5a28 28 0 0 1 27.982 27.252L60 32A28 28 0 0 0 32 4" opacity=".1"/><path d="M32 3c-10.8.01-20.64 6.24-25.27 16C6.73 19 22 8.8 22 21c0 0 4-6 10-6s10 6 10 6c0-12.2 15.3-2 15.3-2C52.66 9.23 42.81 3 32 3" opacity=".2"/><path fill="#18aa4f" d="M32 2C21.2 2 11.36 8.24 6.73 18 6.73 18 22 7.8 22 20c0 0 4-6 10-6s10 6 10 6c0-12.2 15.3-2 15.3-2C52.66 8.23 42.81 2 32 2"/><path fill="#fff" d="M32 2c-10.8.01-20.64 6.24-25.27 16 0 0 .287-.189.758-.475A28 28 0 0 1 32 3a28.01 28.01 0 0 1 24.541 14.525c.472.286.76.475.76.475A28.02 28.02 0 0 0 32 2" opacity=".1"/><path fill="none" stroke="#fff" stroke-linecap="round" stroke-width="4" d="M51.59 22a22 22 0 0 1 0 20.01" opacity=".7"/><path fill="none" stroke="#fff" stroke-linecap="round" stroke-width="4" d="M47.09 48A22 22 0 0 1 38 53.16" opacity=".5"/><path d="M28 33c0 2.2 1.8 4 4 4 8 0 16-3 16-4s-8-4-16-4c-2.2 0-4 1.8-4 4" opacity=".1"/><path fill="#e4e4e4" d="M28 32c0 2.2 1.8 4 4 4 8 0 16-3 16-4s-8-4-16-4c-2.2 0-4 1.8-4 4"/><circle cx="32" cy="33" r="2" opacity=".1"/><circle cx="32" cy="32" r="2" fill="#4f4f4f"/></svg>