<svg xmlns="http://www.w3.org/2000/svg" viewBox="0 0 64 64"><rect width="50" height="56" x="7" y="5" opacity=".2" rx="5.6" ry="5.6"/><rect width="50" height="56" x="7" y="4" fill="#62a0ea" rx="5.6" ry="5.6"/><path fill="#3368aa" d="M11 8h42v12H11zm0 26h42v14H11z"/><path d="M11 8h42v1H11z" opacity=".2"/><path fill="#fff" d="M11 30h42v1H11z" opacity=".2"/><path d="M11 34h42v1H11z" opacity=".2"/><path fill="#fff" d="M12.6 4A5.587 5.587 0 0 0 7 9.6v1C7 7.497 9.497 5 12.6 5h38.8c3.103 0 5.6 2.497 5.6 5.6v-1C57 6.497 54.503 4 51.4 4z" opacity=".2"/><path fill="#d4a782" d="M11 13h25v17H11z"/><path fill="#ead3c1" d="M14 16h8v3h-8z"/><path fill="#b5835a" d="M36 19h17v11H36z"/><path fill="#ead3c1" d="M14 21h4v2h-4z"/><path fill="#dac1ad" d="M39 22h8v3h-8zm0 5h5v2h-5z"/><path fill="#d4a782" d="M28 39h25v17H28z"/><path fill="#ead3c1" d="M31 42h8v3h-8z"/><path fill="#b5835a" d="M11 45h17v11H11z"/><path fill="#ead3c1" d="M31 47h4v2h-4z"/><path fill="#dac1ad" d="M14 48h8v3h-8zm0 5h5v2h-5z"/></svg>