<svg xmlns="http://www.w3.org/2000/svg" viewBox="0 0 64 64"><path d="M8.2 5A4.19 4.19 0 0 0 4 9.2v47.6A4.19 4.19 0 0 0 8.2 61h19.6a4.19 4.19 0 0 0 4.2-4.2 4.19 4.19 0 0 0 4.2 4.2h19.6a4.19 4.19 0 0 0 4.2-4.2V9.2A4.19 4.19 0 0 0 55.8 5H36.2A4.19 4.19 0 0 0 32 9.2 4.19 4.19 0 0 0 27.8 5Z" opacity=".2"/><rect width="28" height="56" x="32" y="4" fill="#e4e4e4" rx="4.2" ry="4.2"/><path d="M36.2 4A4.19 4.19 0 0 0 32 8.2v47.6a4.19 4.19 0 0 0 4.2 4.2H40V4Z" opacity=".1"/><rect width="28" height="56" x="4" y="4" fill="#e4e4e4" rx="4.2" ry="4.2"/><path d="M24 4v56h3.8a4.19 4.19 0 0 0 4.2-4.2V8.2A4.19 4.19 0 0 0 27.8 4z" opacity=".15"/><path d="m36 16-8 6H4v8h24l8-6h24v-8zm0 20-8 6H4v8h24l8-6h24v-8z" opacity=".1"/><path fill="#fbc02d" d="m36 15-8 6H4v8h24l8-6h24v-8z"/><path fill="#2e7d32" d="m36 35-8 6H4v8h24l8-6h24v-8z"/><path fill="#fff" d="M8.2 4A4.19 4.19 0 0 0 4 8.2v1A4.19 4.19 0 0 1 8.2 5h19.6A4.19 4.19 0 0 1 32 9.2 4.19 4.19 0 0 1 36.2 5h19.6A4.19 4.19 0 0 1 60 9.2v-1A4.19 4.19 0 0 0 55.8 4H36.2A4.19 4.19 0 0 0 32 8.2 4.19 4.19 0 0 0 27.8 4Z" opacity=".2"/><path fill="#9e9e9e" d="M35 8a1 1 0 1 1 .001 1.999A1 1 0 0 1 35 8m0 42a1 1 0 1 1 .001 1.999A1 1 0 0 1 35 50m0 4a1 1 0 1 1 .001 1.999A1 1 0 0 1 35 54M29 8a1 1 0 1 1 .001 1.999A1 1 0 0 1 29 8m0 46a1 1 0 1 1 .001 1.999A1 1 0 0 1 29 54m0 0"/><path d="M26 46.001C26 51.523 21.523 56 15.999 56 10.477 56 6 51.523 6 46.001 6 40.477 10.477 36 15.999 36 21.523 36 26 40.477 26 46.001M58 20c0 5.523-4.477 10-10 10s-10-4.477-10-10 4.477-10 10-10 10 4.477 10 10m0 0" opacity=".1"/><path fill="#9e9d24" d="M26 45.001C26 50.523 21.523 55 15.999 55 10.477 55 6 50.523 6 45.001 6 39.477 10.477 35 15.999 35 21.523 35 26 39.477 26 45.001m0 0"/><path fill="#fff176" d="M58 19c0 5.523-4.477 10-10 10s-10-4.477-10-10S42.477 9 48 9s10 4.477 10 10m0 0"/><path d="M15.95 38c-1.746-.036-2.653 2.075-1.428 3.324l2.53 2.653H9.687c-2.25-.123-2.25 4.102 0 3.979h7.365l-2.53 2.653c-1.923 1.883 1.023 4.71 2.813 2.7L24 45.955l-6.665-7.331A1.95 1.95 0 0 0 15.95 38" opacity=".2"/><path fill="#eee" d="M15.95 37c-1.746-.036-2.653 2.075-1.428 3.324l2.53 2.653H9.687c-2.25-.123-2.25 4.102 0 3.979h7.365l-2.53 2.653c-1.923 1.883 1.023 4.71 2.813 2.7L24 44.955l-6.665-7.331A1.95 1.95 0 0 0 15.95 37"/><path d="M48.05 12c1.746-.036 2.653 2.075 1.428 3.324l-2.53 2.653h7.365c2.25-.123 2.25 4.102 0 3.979h-7.365l2.53 2.653c1.923 1.883-1.023 4.71-2.813 2.7L40 19.955l6.665-7.331A1.95 1.95 0 0 1 48.05 12" opacity=".2"/><path fill="#6d4c41" d="M48.05 11c1.746-.036 2.653 2.075 1.428 3.324l-2.53 2.653h7.365c2.25-.123 2.25 4.102 0 3.979h-7.365l2.53 2.653c1.923 1.883-1.023 4.71-2.813 2.7L40 18.955l6.665-7.331A1.95 1.95 0 0 1 48.05 11"/><path fill="#9e9e9e" d="M29 12a1 1 0 1 1 .001 1.999A1 1 0 0 1 29 12m0 0"/></svg>