<svg xmlns="http://www.w3.org/2000/svg" viewBox="0 0 64 64"><rect width="56" height="56" x="4" y="5" opacity=".2" ry="14"/><rect width="56" height="56" x="4" y="4" fill="#3f3f3f" ry="14"/><path fill="none" stroke="#757575" stroke-linecap="round" stroke-linejoin="round" stroke-width="2" d="M50 48h-4m-4 0h-4m-4 0h-4m-4 0h-4m-4 0h-4m36-10h-4m-4 0h-4m-4 0h-4m-4 0h-4m-4 0h-4m4 0h-4m36-11h-4m-4 0h-4m-4 0h-4"/><path d="M33.004 5v17.498c-.032.382.113.675.603.382l4.893-4.306 4.893 4.306c.49.293.635 0 .603-.382V5H38.5ZM15 19a3 3 0 0 0-3 3 3 3 0 0 0 3 3 3 3 0 0 0 3-3 3 3 0 0 0-3-3m0 8a3 3 0 0 0-3 3v17a3 3 0 0 0 3 3 3 3 0 0 0 3-3v-2.397l6.164 4.77a3 3 0 0 0 4.209-.538 3 3 0 0 0-.537-4.209l-7.8-6.037 7.833-6.244a3 3 0 0 0 .477-4.215 3 3 0 0 0-2.01-1.11 3 3 0 0 0-2.205.634L18 32.54V30a3 3 0 0 0-3-3" opacity=".2"/><path fill="none" stroke="#757575" stroke-linecap="round" stroke-linejoin="round" stroke-width="2" d="M26 27h-4m-4 0h-4m36-11h-4m-4 0h-4m-4 0h-4m-4 0h-4m-4 0h-4"/><path fill="#ffc540" d="M33.004 4v17.497c-.031.382.113.677.604.385l4.892-4.308 4.892 4.308c.49.292.635-.003.604-.385V4H38.5z"/><path fill="none" stroke="#fff" stroke-linecap="round" stroke-linejoin="round" stroke-width="6" d="M15 29v17m11-17-10.023 7.988M26 46l-10.023-7.756"/><path fill="#fff" d="M18 4C10.244 4 4 10.244 4 18v1c0-7.756 6.244-14 14-14h28c7.756 0 14 6.244 14 14v-1c0-7.756-6.244-14-14-14z" opacity=".1"/><circle cx="15" cy="21" r="3" fill="#ffc540"/><path fill="#fff" d="M15 18a3 3 0 0 0-3 3 3 3 0 0 0 .047.5A3 3 0 0 1 15 19a3 3 0 0 1 2.955 2.492A3 3 0 0 0 18 21a3 3 0 0 0-3-3" opacity=".2"/></svg>