<svg xmlns="http://www.w3.org/2000/svg" viewBox="0 0 64 64"><path d="M10 56v2c0 1.662 1.338 3 3 3h38c1.662 0 3-1.338 3-3v-2c0 1.662-1.338 3-3 3H13c-1.662 0-3-1.338-3-3" opacity=".2"/><path fill="#e4e4e4" d="M54 57V7c0-1.662-1.338-3-3-3H13c-1.662 0-3 1.338-3 3v50c0 1.662 1.338 3 3 3h38c1.662 0 3-1.338 3-3"/><path fill="#fff" d="M13 4c-1.662 0-3 1.338-3 3v1c0-1.662 1.338-3 3-3h38c1.662 0 3 1.338 3 3V7c0-1.662-1.338-3-3-3z" opacity=".1"/><path fill="#9daabc" d="M18 16h24v2H18zm0 6h28v2H18zm0 6h24v2H18zm0 6h20v2H18zm0 6h24v2H18zm0 6h20v2H18z"/><path fill="#4992ff" d="M38 30h2v10h-2z"/></svg>