<svg xmlns="http://www.w3.org/2000/svg" viewBox="0 0 64 64"><rect width="60" height="60" x="-63" y="-62" opacity=".2" rx="3" ry="3" transform="rotate(90)scale(-1 1)"/><rect width="60" height="60" x="-62" y="-62" fill="#af903d" rx="3" ry="3" transform="rotate(90)scale(-1 1)"/><path fill="#fff" d="M5 2C3.338 2 2 3.338 2 5v1c0-1.662 1.338-3 3-3h54c1.662 0 3 1.338 3 3V5c0-1.662-1.338-3-3-3z" opacity=".2"/><path fill="#fece43" d="M5 2C3.338 2 2 3.338 2 5v9h12V2Zm9 12v12h12V14Zm12 0h12V2H26Zm12 0v12h12V14Zm12 0h12V5c0-1.662-1.338-3-3-3h-9zm0 12v12h12V26Zm0 12H38v12h12zm0 12v12h9c1.662 0 3-1.338 3-3v-9Zm-12 0H26v12h12Zm-12 0V38H14v12Zm-12 0H2v9c0 1.662 1.338 3 3 3h9zm0-12V26H2v12zm12 0h12V26H26Z"/><path d="M2 14v1h12v-1zm24 0v1h12v-1zm24 0v1h12v-1zM14 26v1h12v-1zm24 0v1h12v-1zM2 38v1h12v-1zm24 0v1h12v-1zm24 0v1h12v-1zM14 50v1h12v-1zm24 0v1h12v-1z" opacity=".2"/><path fill="#fff" d="M5 2C3.338 2 2 3.338 2 5v1c0-1.662 1.338-3 3-3h9V2zm21 0v1h12V2zm24 0v1h9c1.662 0 3 1.338 3 3V5c0-1.662-1.338-3-3-3zM14 14v1h12v-1zm24 0v1h12v-1zM2 26v1h12v-1zm24 0v1h12v-1zm24 0v1h12v-1zM14 38v1h12v-1zm24 0v1h12v-1zM2 50v1h12v-1zm24 0v1h12v-1zm24 0v1h12v-1z" opacity=".2"/><path fill="none" stroke="#000" stroke-linecap="round" stroke-linejoin="round" stroke-width="6" d="M43 22H21v11h22v11H21" opacity=".1"/><path fill="none" stroke="#434176" stroke-linecap="round" stroke-linejoin="round" stroke-width="6" d="M43 21H21v11h22v11H21"/></svg>