<svg xmlns="http://www.w3.org/2000/svg" xmlns:xlink="http://www.w3.org/1999/xlink" viewBox="0 0 96 96"><defs><linearGradient id="b" x1="50%" x2="50%" y1="5.01%" y2="100%"><stop offset="0%" stop-color="#b4efff"/><stop offset="100%" stop-color="#31b1ec"/></linearGradient><linearGradient id="c" x1="50%" x2="50%" y1="5.01%" y2="100%"><stop offset="0%" stop-color="#b4efff"/><stop offset="100%" stop-color="#31b1ec"/></linearGradient><linearGradient id="d" x1="50%" x2="50%" y1="5.01%" y2="100%"><stop offset="0%" stop-color="#b4efff"/><stop offset="100%" stop-color="#31b1ec"/></linearGradient><linearGradient id="e" x1="50%" x2="50%" y1="5.01%" y2="100%"><stop offset="0%" stop-color="#b4efff"/><stop offset="100%" stop-color="#31b1ec"/></linearGradient><filter id="a" width="129.4%" height="131.4%" x="-14.7%" y="-15.7%" filterUnits="objectBoundingBox"><feOffset dy="2" in="SourceAlpha" result="shadowOffsetOuter1"/><feGaussianBlur in="shadowOffsetOuter1" result="shadowBlurOuter1" stdDeviation="2"/><feColorMatrix in="shadowBlurOuter1" result="shadowMatrixOuter1" values="0 0 0 0 0 0 0 0 0 0 0 0 0 0 0 0 0 0 0.2 0"/><feMerge><feMergeNode in="shadowMatrixOuter1"/><feMergeNode in="SourceGraphic"/></feMerge></filter></defs><g fill="none" fill-rule="evenodd" filter="url(#a)" transform="translate(6 9.498)"><path fill="url(#b)" d="m1 25.76 32.92 20.184A8.96 8.96 0 0 0 32 51.502a8.96 8.96 0 0 0 1.43 4.87L1 75.47z"/><path fill="url(#c)" d="M80.71 25.76v49.71L47.76 56.064A8.96 8.96 0 0 0 49 51.502a8.96 8.96 0 0 0-1.696-5.26z"/><path fill="url(#d)" d="M40.355 1.002v41.522a9 9 0 0 0-6.747 3.842L1 25.356z"/><path fill="url(#e)" d="m40.355 1.002 40.356 24.355-33.356 20.957a8.99 8.99 0 0 0-7-3.806z"/><path fill="#386a7f" fill-rule="nonzero" d="M0 25.76v49.71a1 1 0 0 0 1.507.862l32.43-19.099a1 1 0 0 0 .334-1.403A7.96 7.96 0 0 1 33 51.502a7.96 7.96 0 0 1 1.707-4.94 1 1 0 0 0-.264-1.47L1.523 24.906A1 1 0 0 0 0 25.76m2 1.785 30.493 18.697-.144.24A9.96 9.96 0 0 0 31 51.502l.007.363a10 10 0 0 0 .886 3.772l.179.374L2 73.72zm78.188-2.638L46.781 45.39a1 1 0 0 0-.288 1.437A7.96 7.96 0 0 1 48 51.502a7.96 7.96 0 0 1-1.102 4.054 1 1 0 0 0 .354 1.37l32.951 19.406a1 1 0 0 0 1.508-.862V25.76a1 1 0 0 0-1.523-.853m-.478 2.639V73.72L49.085 55.684l.025-.052a10 10 0 0 0 .89-4.13l-.007-.375a9.95 9.95 0 0 0-1.111-4.224l-.187-.341z"/><path fill="#386a7f" fill-rule="nonzero" d="M39.83.151.473 24.507a1 1 0 0 0-.016 1.69l32.609 21.01a1 1 0 0 0 1.362-.27 8 8 0 0 1 5.997-3.415 1 1 0 0 0 .93-.998V1.002a1 1 0 0 0-1.527-.85m-.475 2.645v38.84l-.036.007a10 10 0 0 0-5.735 3.15l-.206.235L2.872 25.374z"/><path fill="#386a7f" fill-rule="nonzero" d="M39.355 1.002v41.506a1 1 0 0 0 .961 1 7.99 7.99 0 0 1 6.223 3.383 1 1 0 0 0 1.348.27l33.356-20.957a1 1 0 0 0-.016-1.703L40.872.145a1 1 0 0 0-1.517.857m2 1.772 37.448 22.6-31.216 19.613a10 10 0 0 0-6.232-3.394z"/></g></svg>