<svg xmlns="http://www.w3.org/2000/svg" viewBox="0 0 64 64"><path d="M55.06 16.604 32 30.162 8.951 16.607A6.38 6.38 0 0 0 7 21.184v3.466l3 1.838v3.477l7 4.115v-3.377l3 1.697v3.444l5 2.941v-3.33l3 1.697v3.397l4 2.351 3-1.763v-3.344l6-3.656v3.584l3-1.877V32.4l3.02-1.779-.032 3.467L54 29.965v-3.477l3-1.838v-3.466a6.37 6.37 0 0 0-1.94-4.58"/><path d="M32.148 5v.002a6.341 6.367 0 0 0-3.32.847L10.172 16.668a6.341 6.367 0 0 0-1.281 1.004A6.38 6.38 0 0 0 7 22.183v21.633a6.341 6.367 0 0 0 3.172 5.514l18.656 10.816a6.341 6.367 0 0 0 6.344 0L53.828 49.33A6.341 6.367 0 0 0 57 43.816V22.183c0-.46-.052-.913-.148-1.355a6.341 6.367 0 0 0-.022-.076 6.4 6.4 0 0 0-.406-1.203 6.341 6.367 0 0 0-.067-.135 6 6 0 0 0-.302-.559l.006-.004a6.341 6.367 0 0 0-.04-.048 6 6 0 0 0-.304-.444 6.341 6.367 0 0 0-.035-.058h-.01a6 6 0 0 0-.563-.647 6.341 6.367 0 0 0-.048-.05 6.341 6.367 0 0 0-1.233-.936L35.172 5.849A6.341 6.367 0 0 0 32.148 5" opacity=".2"/><path fill="#474747" d="M8.383 17.3A6.341 6.367 0 0 0 7 21.183v21.634a6.341 6.367 0 0 0 3.171 5.513L28.83 59.147a6.341 6.367 0 0 0 6.342 0L53.83 48.33A6.341 6.367 0 0 0 57 42.817V21.183a6.341 6.367 0 0 0-1.318-3.883z"/><path fill="#545454" d="M7.955 17.86A6.341 6.367 0 0 0 7 21.183v21.634a6.341 6.367 0 0 0 3.171 5.513L28.83 59.147A6.341 6.367 0 0 0 32 60V32Z"/><path fill="#3d3d3d" d="m32 46.7 5-2.895v3.674l-5 2.896z"/><path fill="#323232" d="m48 37.512 5-3.094v3.674l-5 3.095z"/><path fill="#363636" d="m36 51.294 5-3.195v3.674l-5 3.196z"/><path fill="#3e3e3e" d="m49 45.781 5-2.815v3.674l-5 2.816z"/><path fill="#393939" d="m42 39.35 10-6.112v3.674l-10 6.113z"/><path fill="#4b4b4b" d="m29 45.002 3 1.698v3.675l-3-1.698zm-10 3.535 5 2.816v3.674l-5-2.815Z"/><path fill="#424242" d="m15 39.35 5 3.135v3.674l-5-3.134z"/><path fill="#494949" d="m11 34.756 5 2.955v3.674l-5-2.954Z"/><path fill="#4b4b4b" d="m7 39.35 4 2.557v3.674l-4-2.556z"/><path fill="#3b3b3b" d="m7 28.325 2 1.319v3.674L7 32z"/><path fill="#3c3c3c" d="m39 48.178 5-3.394v3.675l-5 3.394z"/><path d="M55.06 17.603 32 31.162 8.951 17.607A6.38 6.38 0 0 0 7 22.183v3.467l3 1.838v3.476l7 4.116v-3.377l3 1.697v3.443l5 2.942v-3.33l3 1.697v3.396l4 2.352 3-1.764v-3.343l6-3.657v3.584l3-1.877V33.4l3.02-1.78-.032 3.467L54 30.964v-3.476l3-1.838v-3.467c0-1.727-.7-3.38-1.94-4.58" opacity=".2"/><path fill="#638f01" d="M55.06 16.604 32 30.162V42.9l3-1.763v-3.344l6-3.656v3.583l3-1.876V32.4l3.02-1.779-.032 3.467L54 29.965v-3.477l3-1.838v-3.466a6.37 6.37 0 0 0-1.94-4.58"/><path fill="#74a011" d="M8.951 16.607A6.38 6.38 0 0 0 7 21.184v3.466l3 1.838v3.477l7 4.115v-3.377l3 1.697v3.444l5 2.941v-3.33l3 1.697v3.397l4 2.351V30.162z"/><path fill="#8ec115" d="M32.15 4v.003a6.341 6.367 0 0 0-3.321.847L10.17 15.668a6.341 6.367 0 0 0-2.216 2.192L32 32l24.061-14.148a6.341 6.367 0 0 0-2.232-2.184L35.17 4.85A6.341 6.367 0 0 0 32.15 4"/><path fill="#fff" d="M32.148 4v.002a6.341 6.367 0 0 0-3.32.848L10.172 15.668a6.341 6.367 0 0 0-1.281 1.004A6.38 6.38 0 0 0 7 21.184v1a6.38 6.38 0 0 1 1.89-4.512 6.341 6.367 0 0 1 1.282-1.004L28.828 5.85a6.341 6.367 0 0 1 3.32-.848V5a6.341 6.367 0 0 1 3.024.85l18.656 10.818a6.341 6.367 0 0 1 1.233.936 6.341 6.367 0 0 1 .048.05q.306.306.563.647h.01a6.341 6.367 0 0 1 .035.058q.163.216.304.444a6.341 6.367 0 0 1 .04.049l-.006.003q.164.272.302.56a6.341 6.367 0 0 1 .067.134q.262.58.406 1.203a6.341 6.367 0 0 1 .022.076q.146.665.148 1.356v-1q-.002-.692-.148-1.356a6.341 6.367 0 0 0-.022-.076 6.4 6.4 0 0 0-.406-1.203 6.341 6.367 0 0 0-.067-.135 6 6 0 0 0-.302-.559l.006-.003a6.341 6.367 0 0 0-.04-.05 6 6 0 0 0-.304-.443 6.341 6.367 0 0 0-.035-.058h-.01a6 6 0 0 0-.563-.647 6.341 6.367 0 0 0-.048-.05 6.341 6.367 0 0 0-1.233-.936L35.172 4.85A6.341 6.367 0 0 0 32.148 4" opacity=".2"/></svg>