<svg xmlns="http://www.w3.org/2000/svg" xmlns:xlink="http://www.w3.org/1999/xlink" viewBox="0 0 64 64"><defs><linearGradient id="a" x1="16.851" x2="16.674" y1="17.784" y2="9.476" gradientTransform="matrix(2.2858 0 0 2.5 -6.14 -12.17)" gradientUnits="userSpaceOnUse"><stop offset="0" stop-color="#fff"/><stop offset="1" stop-color="#fff" stop-opacity="0"/></linearGradient></defs><path d="M10 55v2c0 2.216 1.784 4 4 4h36c2.216 0 4-1.784 4-4v-2c0 2.216-1.784 4-4 4H14c-2.216 0-4-1.784-4-4" opacity=".2"/><rect width="56" height="44" x="-60" y="-54" fill="#e4e4e4" rx="4" ry="4" transform="rotate(90)scale(-1 1)"/><rect width="32" height="20" x="16" y="12" fill="url(#a)" opacity=".15" rx="1.142" ry="1.25"/><rect width="28" height="16" x="18" y="14" fill="#333" rx="0" ry="0"/><path fill="#fff" d="M14 4c-2.216 0-4 1.784-4 4v1c0-2.216 1.784-4 4-4h36c2.216 0 4 1.784 4 4V8c0-2.216-1.784-4-4-4zm5.6 35c-.776 0-1.4.624-1.4 1.4v2.8h-2.8c-.776 0-1.4.624-1.4 1.4v2.8c0 .776.624 1.4 1.4 1.4h2.8v2.8c0 .776.624 1.4 1.4 1.4h2.8c.776 0 1.4-.624 1.4-1.4v-2.8h2.8c.776 0 1.4-.624 1.4-1.4v-2.8c0-.776-.624-1.4-1.4-1.4h-2.8v-2.8c0-.776-.624-1.4-1.4-1.4z" opacity=".2"/><g fill="#fff" opacity=".2" transform="matrix(2 0 0 2 -2 15)"><circle cx="24.5" cy="13.5" r="1.5"/><circle cx="20.5" cy="13.5" r="1.5"/><circle cx="24.5" cy="17.5" r="1.5"/><circle cx="20.5" cy="17.5" r="1.5"/></g><g transform="matrix(2 0 0 2 -2 14)"><circle cx="24.5" cy="13.5" r="1.5" fill="#ef5646"/><circle cx="20.5" cy="13.5" r="1.5" fill="#ef5646"/><circle cx="24.5" cy="17.5" r="1.5" fill="#eb9200"/><circle cx="20.5" cy="17.5" r="1.5" fill="#eb9200"/></g><path fill="#4f4f4f" d="M20 38c-1.108 0-2 .892-2 2v2h-2c-1.108 0-2 .892-2 2v2c0 1.108.892 2 2 2h2v2c0 1.108.892 2 2 2h2c1.108 0 2-.892 2-2v-2h2c1.108 0 2-.892 2-2v-2c0-1.108-.892-2-2-2h-2v-2c0-1.108-.892-2-2-2z"/></svg>