<svg xmlns="http://www.w3.org/2000/svg" viewBox="0 0 512 512"><path fill="#ba68c8" d="M27 446.37h18.762q27.696 0 33.205-13.113 5.51-13.113 5.51-125.591v-98.783Q84.475 92.326 79.71 80.377 74.947 68.431 51.122 68.43H27V50.072q49.435 2.04 97.68 2.04 40.203 0 72.962-2.04V68.43h-22.93q-21.145 0-26.505 4.954-5.361 4.954-6.254 25.06-1.49 31.18-1.49 111.021v100.532q0 113.353 5.063 124.863t32.461 11.51h19.655v18.358q-36.63-2.04-79.812-2.04-50.328 0-90.83 2.04zm187.45-154.564q4.998-42.075 26.823-73.411 21.825-31.338 56.203-45.75 34.38-14.414 75.23-8.311 59.19 8.842 90.197 52.57 31.005 43.73 23.398 107.754-8.985 75.612-60.681 113.191-46.153 33.754-103.954 25.12-55.58-8.303-85.582-54.519-30.003-46.216-21.635-116.644m54.815-13.842q-7.463 62.805 10.713 110.978 18.174 48.173 62.36 54.774 33.624 5.023 57.66-19.934 24.036-24.955 30.81-81.97 5.471-46.036-2.753-81.552-8.224-35.515-26.403-53.902-18.18-18.384-42.912-22.08-21.954-3.279-41.049 6.28t-29.86 28.741q-14.69 26.043-18.566 58.665" data-iconColor="Io"/></svg>