<svg xmlns="http://www.w3.org/2000/svg" xmlns:xlink="http://www.w3.org/1999/xlink" viewBox="0 0 128 128"><defs><filter id="a" width="129.4%" height="116.7%" x="-14.7%" y="-6.7%" filterUnits="objectBoundingBox"><feOffset dy="2" in="SourceAlpha" result="shadowOffsetOuter1"/><feGaussianBlur in="shadowOffsetOuter1" result="shadowBlurOuter1" stdDeviation="3"/><feColorMatrix in="shadowBlurOuter1" result="shadowMatrixOuter1" values="0 0 0 0 0 0 0 0 0 0 0 0 0 0 0 0 0 0 0.2 0"/><feMerge><feMergeNode in="shadowMatrixOuter1"/><feMergeNode in="SourceGraphic"/></feMerge></filter></defs><g fill="none" fill-rule="evenodd" filter="url(#a)" transform="translate(30 4)"><path fill="silver" d="M13.09 0h41.82C62.138 0 68 5.861 68 13.09v93.82c0 7.229-5.861 13.09-13.09 13.09H13.09C5.862 120 0 114.139 0 106.91V13.09C0 5.862 5.861 0 13.09 0"/><path fill="#000" d="m12.91 2 42.07.01c6.022 0 10.904 4.878 10.91 10.9l.11 94.18c.006 6.026-4.874 10.915-10.899 10.92h-.01L12.909 118C6.884 118 2 113.116 2 107.09V12.91C2 6.883 6.884 2 12.91 2"/><path fill="#232323" d="M19.556 6.19c0 2.104 1.74 3.81 3.888 3.81h20c2.148 0 3.89-1.706 3.89-3.81 0-1.185.955-2.147 2.14-2.155L55.114 4C60.023 3.97 64 7.849 64 12.66v94.626c0 4.812-3.983 8.714-8.885 8.714h-42.23C7.978 116 4 112.101 4 107.292V13.028c0-4.81 3.983-8.733 8.885-8.764l4.704-.03a1.955 1.955 0 0 1 1.967 1.955"/><path fill="#a4a4a4" d="M24.864 8.727a1.364 1.364 0 1 0 0-2.727 1.364 1.364 0 0 0 0 2.727m17.311-.363a1 1 0 1 0 0-2 1 1 0 0 0 0 2"/><path stroke="#979797" stroke-linecap="round" d="M30.51 7.5h6.99"/></g></svg>