<svg xmlns="http://www.w3.org/2000/svg" viewBox="0 0 64 64"><circle cx="32" cy="33" r="28" opacity=".2"/><circle cx="32" cy="32" r="28" fill="#e42f58"/><path d="M39.348 20.992c-2.332.148-4.424 1.512-4.817 1.704-1.255-.36-2.686-1.107-4.36-1.392-5.793-.982-10.696.586-13.157 2.295-3.223 2.237-3.135 4.75-3.4 5.793-.165.647-1.63 1.841-1.613 2.678.028 1.094.713 1.447.713 1.447.614-.048 1.532-.487 2.317-.81 1.164-.478 1.254-.738 4.437-1.214 1.463-.219 3.004-.283 4.151-.293.446.943 1.557 2.883 3.479 3.812 1.143.525 2.86.76 3.62.91l2.22.328v-.898h-.003s-1.863-.772-3.01-1.919c-.484-.486-.489-1.063-.623-1.641 1.767.332 3.343.585 7.069 2.011 3.431 1.314 5.775 3.224 5.777 3.226l.003.003.005.005v-.898l-.008-.006c-.03-.039-2.434-3.02-6.479-5.014-3.341-1.647-6.085-2.463-9.888-2.647-3.947-.192-6.572.267-6.857.314.338-.672 1.024-1.837 2.865-2.7 2.727-1.282 7.016-1.494 11.942-.239 6.957 1.776 9.331 5.097 12.324 8.222 3.183 3.323 5.934 8.905 5.937 8.911l.003.006L52 43v-.904l-.026-.07c-.133-.446-.96-3.136-2.357-5.714-1.842-3.398-3.424-5.826-6.063-8.292-1.84-1.373-3.714-3.243-3.393-4.048.829-1.09 3.074-1.758 3.083-1.758h.006v-.9s-1.42-.482-3.903-.322m2.786 16.025s.022.02 0 0" opacity=".2"/><path fill="#fff" d="M39.348 19.992c-2.332.148-4.424 1.512-4.817 1.704-1.255-.36-2.686-1.107-4.36-1.392-5.793-.982-10.696.586-13.157 2.295-3.223 2.237-3.135 4.75-3.4 5.793-.165.647-1.63 1.841-1.613 2.678.028 1.094.713 1.447.713 1.447.614-.048 1.532-.487 2.317-.81 1.164-.478 1.254-.738 4.437-1.214 1.463-.219 3.004-.283 4.151-.293.446.943 1.557 2.883 3.479 3.812 1.143.525 2.86.76 3.62.91l2.22.328v-.898h-.003s-1.863-.772-3.01-1.919c-.484-.486-.489-1.063-.623-1.641 1.767.332 3.343.585 7.069 2.011 3.431 1.314 5.775 3.224 5.777 3.226l.003.003.005.005v-.898l-.008-.006c-.03-.039-2.434-3.02-6.479-5.014-3.341-1.647-6.085-2.463-9.888-2.647-3.947-.192-6.572.267-6.857.314.338-.672 1.024-1.837 2.865-2.7 2.727-1.282 7.016-1.494 11.942-.239 6.957 1.776 9.331 5.097 12.324 8.222 3.183 3.323 5.934 8.905 5.937 8.911l.003.006L52 42v-.904l-.026-.07c-.133-.446-.96-3.136-2.357-5.714-1.842-3.398-3.424-5.826-6.063-8.292-1.84-1.373-3.714-3.243-3.393-4.048.829-1.09 3.074-1.758 3.083-1.758h.006v-.9s-1.42-.482-3.903-.322m2.786 16.025s.022.02 0 0"/><path fill="#fff" d="M32 4A28 28 0 0 0 4 32a28 28 0 0 0 .033.482A28 28 0 0 1 32 5a28 28 0 0 1 27.982 27.242L60 32A28 28 0 0 0 32 4" opacity=".2"/></svg>