<svg xmlns="http://www.w3.org/2000/svg" viewBox="0 0 64 64"><circle cx="32" cy="33" r="28" opacity=".2"/><circle cx="32" cy="32" r="28" fill="#fecd38"/><path fill="#fff" d="M32 4A28 28 0 0 0 4 32a28 28 0 0 0 .021.586A28 28 0 0 1 32 5a28 28 0 0 1 27.979 27.414L60 32A28 28 0 0 0 32 4" opacity=".2"/><path d="M16.537 40A16 16 0 0 0 32 52a16 16 0 0 0 15.463-12z"/><ellipse cx="22" cy="24" opacity=".2" rx="6" ry="7"/><ellipse cx="22" cy="23" fill="#fff" rx="6" ry="7"/><ellipse cx="42" cy="24" opacity=".2" rx="6" ry="7"/><ellipse cx="42" cy="23" fill="#fff" rx="6" ry="7"/><circle cx="23" cy="25" r="3"/><circle cx="41" cy="25" r="3"/><path fill="#fff" d="M20 40h24v2H20z"/><ellipse cx="32" cy="50.5" fill="#df574d" rx="5" ry="1.5"/></svg>