<svg xmlns="http://www.w3.org/2000/svg" viewBox="0 0 24 24"><g fill="#536076"><path d="M9.6 6 6.023 9.575l-.025.027v4.796l3.575 3.577.028.025h4.795l3.578-3.575.024-.027V9.602l-3.575-3.577L14.396 6zm-.383-1h5.562l.313.281 3.625 3.625.281.313v5.562l-.281.313-3.625 3.625-.313.281H9.217l-.313-.281-3.625-3.625-.281-.313V9.22l.281-.313 3.625-3.625z"/><path d="M8.998 10.852v2.296L10.85 15h2.296l1.852-1.852v-2.296L13.146 9H10.85zM10.436 8h3.125l2.437 2.438v3.124L13.561 16h-3.125l-2.438-2.437v-3.126z"/></g></svg>