<svg xmlns="http://www.w3.org/2000/svg" viewBox="0 0 512 512"><path fill="#5c6bc0" d="M219.037 27h252.928v66.036h-41.411c-17.201 0-26.39 11.58-26.39 25.14v246.909c0 68.25-49.829 96.213-49.829 96.213s-34.08 26.215-94.375 26.215-142.423 6.573-186.989-43.236c-19.497-21.791-30.818-41.402-30.104-73.03.646-28.6 11.55-49.28 41.452-64.618 53.293-27.336 134.948-2.77 114.086 66.848-5.816 19.409-26.673 25.93-27.49 33.806-1.44 13.861 3.519 27.517 14.668 27.517 35.232 0 52.961 7.247 71.102-.111 33.06-13.412 30.364-54.658 30.364-54.658V114.384c0-14.766-13.981-21.348-24.467-21.348h-43.545z" data-iconColor="J"/></svg>