<svg xmlns="http://www.w3.org/2000/svg" xmlns:xlink="http://www.w3.org/1999/xlink" viewBox="0 0 128 128"><defs><mask id="b"><circle cx="64" cy="64" r="64" fill="#fff"/></mask><mask id="a"><circle cx="64" cy="64" r="64"/><path fill="#fff" d="M-28-44v172h92a32 32 0 0 0 32-32 32 32 0 0 0-32-32c-17.673 0-32-14.327-32-32S46.327 0 64 0v-44z"/><circle cx="64" cy="96" r="16"/><circle cx="29.27" cy="76.154" r="8"/><circle cx="17.836" cy="51.673" r="4"/></mask></defs><g fill="#eb4040" data-iconColor="Jakt" mask="url(#a)"><circle cx="64" cy="64" r="64" fill="#000"/><path d="M-28-44v172h92a32 32 0 0 0 32-32 32 32 0 0 0-32-32c-17.673 0-32-14.327-32-32S46.327 0 64 0v-44z" mask="url(#b)"/><circle cx="64" cy="96" r="16" fill="#000"/><circle cx="29.27" cy="76.154" r="8" fill="#000"/><circle cx="17.836" cy="51.673" r="4" fill="#000"/></g></svg>