<svg xmlns="http://www.w3.org/2000/svg" viewBox="0 0 64 64"><path fill="none" stroke="#000" stroke-linecap="round" stroke-linejoin="round" stroke-width="6" d="M58 31v22.3c0 4.35-1.35 5.7-5.7 5.7H11.7C7.35 59 6 57.65 6 53.3V47" opacity=".2"/><path fill="#fff" d="M6 6h52v52H6z"/><path fill="none" stroke="#000" stroke-linecap="round" stroke-linejoin="round" stroke-width="6" d="M6 35V12.7C6 8.35 7.35 7 11.7 7h40.6c4.35 0 5.7 1.35 5.7 5.7V19" opacity=".2"/><path fill="none" stroke="#4256e3" stroke-linecap="round" stroke-linejoin="round" stroke-width="6" d="M6 34V11.7C6 7.35 7.35 6 11.7 6h40.6c4.35 0 5.7 1.35 5.7 5.7V18"/><path fill="none" stroke="#c46fff" stroke-linecap="round" stroke-linejoin="round" stroke-width="6" d="M58 30v22.3c0 4.35-1.35 5.7-5.7 5.7H11.7C7.35 58 6 56.65 6 52.3V46"/><path fill="none" stroke="#4256e3" stroke-linecap="round" stroke-linejoin="round" stroke-width="6" d="M32 16v32M18 16v32m28-32v32"/><circle cx="32" cy="42" r="6" opacity=".2"/><circle cx="32" cy="41" r="6" fill="#c46fff"/><circle cx="18" cy="24" r="6" opacity=".2"/><circle cx="18" cy="23" r="6" fill="#c46fff"/><circle cx="46" cy="31" r="6" opacity=".2"/><circle cx="46" cy="30" r="6" fill="#c46fff"/><path fill="#fff" d="M11.7 3c-2.486 0-4.848.344-6.602 2.098S3 9.214 3 11.699v1c0-2.485.344-4.847 2.098-6.601S9.214 4 11.699 4h40.602c2.485 0 4.847.344 6.601 2.098S61 10.214 61 12.699v-1c0-2.485-.344-4.847-2.098-6.601S54.786 3 52.301 3z" opacity=".1"/></svg>