<svg xmlns="http://www.w3.org/2000/svg" xmlns:xlink="http://www.w3.org/1999/xlink" viewBox="0 0 96 96"><defs><radialGradient id="b" cx="50%" cy="9.87%" r="93.71%" fx="50%" fy="9.87%"><stop offset="0%" stop-color="#fff"/><stop offset="100%" stop-color="#511183"/></radialGradient><radialGradient id="e" cx="51.638%" cy="38.152%" r="61.869%" fx="51.638%" fy="38.152%"><stop offset="0%" stop-color="#ffbb35"/><stop offset="100%" stop-color="#fff"/></radialGradient><linearGradient id="g" x1="50%" x2="50%" y1="9.87%" y2="103.581%"><stop offset="0%" stop-color="#4a077e"/><stop offset="100%" stop-color="#fcfafd"/></linearGradient><linearGradient id="h" x1="50%" x2="50%" y1="0%" y2="100%"><stop offset="0%" stop-color="#393939"/><stop offset="100%"/></linearGradient><filter id="a" width="128.6%" height="128.6%" x="-14.3%" y="-14.3%" filterUnits="objectBoundingBox"><feOffset dy="2" in="SourceAlpha" result="shadowOffsetOuter1"/><feGaussianBlur in="shadowOffsetOuter1" result="shadowBlurOuter1" stdDeviation="2"/><feColorMatrix in="shadowBlurOuter1" result="shadowMatrixOuter1" values="0 0 0 0 0 0 0 0 0 0 0 0 0 0 0 0 0 0 0.2 0"/><feMerge><feMergeNode in="shadowMatrixOuter1"/><feMergeNode in="SourceGraphic"/></feMerge></filter><filter id="f" width="115.6%" height="115.6%" x="-7.8%" y="-7.8%" filterUnits="objectBoundingBox"><feGaussianBlur in="SourceAlpha" result="shadowBlurInner1" stdDeviation="3"/><feOffset in="shadowBlurInner1" result="shadowOffsetInner1"/><feComposite in="shadowOffsetInner1" in2="SourceAlpha" k2="-1" k3="1" operator="arithmetic" result="shadowInnerInner1"/><feColorMatrix in="shadowInnerInner1" values="0 0 0 0 0 0 0 0 0 0 0 0 0 0 0 0 0 0 1 0"/></filter><path id="c" d="M42 10c-17.673 0-32 14.327-32 32s14.327 32 32 32 32-14.327 32-32-14.327-32-32-32"/></defs><g fill="none" fill-rule="evenodd" filter="url(#a)" transform="translate(6 6)"><path fill="url(#b)" fill-rule="nonzero" d="M42 0c23.196 0 42 18.804 42 42S65.196 84 42 84 0 65.196 0 42 18.804 0 42 0"/><use xlink:href="#c" fill="url(#e)"/><use xlink:href="#c" fill="#000" filter="url(#f)"/><path stroke="url(#g)" stroke-width="2" d="M42 9c9.113 0 17.363 3.694 23.335 9.665C71.306 24.637 75 32.887 75 42s-3.694 17.363-9.665 23.335C59.363 71.306 51.113 75 42 75s-17.363-3.694-23.335-9.665C12.694 59.363 9 51.113 9 42s3.694-17.363 9.665-23.335C24.637 12.694 32.887 9 42 9Z"/><path fill="url(#h)" d="M54 20v3h-2l.001 4.1a5.002 5.002 0 0 1 0 9.8L52 39h9v2h-9v7.018l10.496 8.396-1.25 1.561L51.278 50h-.377l-9.967 7.975-1.25-1.561L50 48.16V41h-9v-2h9v-2.1a5.002 5.002 0 0 1 0-9.8V23H34.475L25 33.667V61h38v3H22V20zm-22.197 3H25v7.659z"/><path fill="#fff" d="m52.751 33.784.303.036-.247.541c-1.201-.416-2.64-.303-3.044-.05l-.07.05-.509-.325c.602-.49 1.985-.421 3.567-.252M49.5 30a.5.5 0 1 1 0 1 .5.5 0 0 1 0-1m4 0a.5.5 0 1 1 0 1 .5.5 0 0 1 0-1"/></g></svg>