<svg xmlns="http://www.w3.org/2000/svg" xmlns:xlink="http://www.w3.org/1999/xlink" viewBox="0 0 96 96"><defs><linearGradient id="b" x1="49.993%" x2="50.005%" y1="40.572%" y2="61.667%"><stop offset="0%" stop-color="#feffb5"/><stop offset="49.574%" stop-color="#f3b95a"/><stop offset="100%" stop-color="#ffde86"/></linearGradient><linearGradient id="d" x1="30.476%" x2="46.374%" y1="8.357%" y2="84.138%"><stop offset="0%" stop-color="#e7f0f6"/><stop offset="54.483%" stop-color="#86afcb"/><stop offset="100%" stop-color="#e2eef6"/></linearGradient><linearGradient id="e" x1="4.55%" x2="94.278%" y1="58.495%" y2="58.495%"><stop offset="0%" stop-color="#f7cf77"/><stop offset="100%" stop-color="#ffde86" stop-opacity="0"/></linearGradient><linearGradient id="f" x1="4.55%" x2="94.278%" y1="58.495%" y2="58.495%"><stop offset="0%" stop-color="#f7cf77"/><stop offset="100%" stop-color="#ffde86" stop-opacity="0"/></linearGradient><linearGradient id="g" x1="4.55%" x2="94.278%" y1="58.495%" y2="58.495%"><stop offset="0%" stop-color="#f7cf77"/><stop offset="100%" stop-color="#ffde86" stop-opacity="0"/></linearGradient><linearGradient id="h" x1="4.55%" x2="94.278%" y1="58.495%" y2="58.495%"><stop offset="0%" stop-color="#f7cf77"/><stop offset="100%" stop-color="#ffde86" stop-opacity="0"/></linearGradient><linearGradient id="i" x1="4.55%" x2="94.278%" y1="58.495%" y2="58.495%"><stop offset="0%" stop-color="#f7cf77"/><stop offset="100%" stop-color="#ffde86" stop-opacity="0"/></linearGradient><linearGradient id="j" x1="4.55%" x2="94.278%" y1="58.495%" y2="58.495%"><stop offset="0%" stop-color="#f7cf77"/><stop offset="100%" stop-color="#ffde86" stop-opacity="0"/></linearGradient><linearGradient id="k" x1="4.55%" x2="94.278%" y1="58.495%" y2="58.495%"><stop offset="0%" stop-color="#f7cf77"/><stop offset="100%" stop-color="#ffde86" stop-opacity="0"/></linearGradient><linearGradient id="l" x1="0%" x2="100%" y1="50%" y2="50%"><stop offset="0%" stop-color="#8f3283"/><stop offset="50.207%" stop-color="#ed285b"/><stop offset="100%" stop-color="#ffbe62"/></linearGradient><radialGradient id="c" cx="46.04%" cy="16.203%" r="101.945%" fx="46.04%" fy="16.203%" gradientTransform="matrix(.03824 .9925 -.88935 .35048 .587 -.352)"><stop offset="0%" stop-color="#ffc456"/><stop offset="36.53%" stop-color="#e24e67"/><stop offset="58.254%" stop-color="#a62685"/><stop offset="100%" stop-color="#f4ac62"/></radialGradient><filter id="a" width="126.1%" height="152.2%" x="-13%" y="-26.1%" filterUnits="objectBoundingBox"><feOffset dy="2" in="SourceAlpha" result="shadowOffsetOuter1"/><feGaussianBlur in="shadowOffsetOuter1" result="shadowBlurOuter1" stdDeviation="2"/><feComposite in="shadowBlurOuter1" in2="SourceAlpha" operator="out" result="shadowBlurOuter1"/><feColorMatrix in="shadowBlurOuter1" result="shadowMatrixOuter1" values="0 0 0 0 0 0 0 0 0 0 0 0 0 0 0 0 0 0 0.2 0"/><feMerge><feMergeNode in="shadowMatrixOuter1"/><feMergeNode in="SourceGraphic"/></feMerge></filter></defs><g fill="none" fill-rule="evenodd" filter="url(#a)" transform="translate(2 26)"><path fill="url(#b)" d="M9.11 34.182c-1.846.16-8.691 3.724-9.087 4.822-.397 1.099 4.492 3.924 9.087 3.616q4.596-.31 8.42-4.79-6.573-3.81-8.42-3.648"/><path fill="url(#c)" d="M15.142 38.62q-4.86-4.438-6.032-4.438c-1.171 0 12.122-1.215 15.833-2.96s23.227-2.072 25.34-3.28c2.113-1.209 23.371-6.062 24.378-3.636q1.008 2.427 0 6.412 1.179 4.566 0 6.448c-1.179 1.882-15.33 7.173-23.426 7.173s-28.754-.635-32.983-.794q-4.23-.16-9.142-.925z"/><path fill="url(#d)" d="M75.535 23.636c.925 3.014-.204 6.424-.29 6.698-.086.275 3.316 4.221 2.608 6.15q.81-1.428.77-3.295l2.075 3.295q.504-1.372 0-3.295.945.832 3.905 1.923-1.71-2.687-2.72-3.565c-1.44-1.254-3.37-1.871-4.03-1.871-1.683 0 1.37-3.222-2.318-6.04"/><path fill="url(#e)" d="M54.605 32.6c-.396 1.098 5.216 11.727 13.702 7.17q1.114-.599 6.141-5.254-2.998-6.915-5.164-7.705c-4.331-1.582-14.283 4.69-14.68 5.789" opacity=".2" transform="rotate(171 61.862 0)scale(1 -1)"/><path fill="url(#f)" d="M56.527 27.795c-4.302.382-9.646 4.97-10.042 6.069-.396 1.098 4.213 8.267 8.81 7.959 1.709-.115 6.567.27 9.475-.415q2.303-.543 4.998-4.635-2.745-7.39-4.91-8.181c-4.332-1.582-7.511-.87-8.331-.797" opacity=".2" transform="rotate(172 55.688 0)scale(1 -1)"/><path fill="url(#f)" d="M49.066 29.222c-4.302.382-9.646 4.97-10.042 6.069-.396 1.098 4.213 8.268 8.81 7.96 1.709-.116 6.567.27 9.475-.416q2.303-.543 4.998-4.635-2.745-7.39-4.91-8.181c-4.332-1.581-7.511-.87-8.331-.797" opacity=".2" transform="rotate(172 48.127 0)scale(1 -1)"/><path fill="url(#g)" d="M40.482 30.263c-4.302.382-9.382 6.397-9.778 7.495-.396 1.099 3.95 6.841 8.545 6.533 1.71-.115 6.568.27 9.476-.415q2.304-.543 5.323-6.606-3.07-5.42-5.235-6.21c-4.332-1.582-7.511-.87-8.331-.797" opacity=".2" transform="rotate(172 39.764 0)scale(1 -1)"/><path fill="url(#h)" d="M33.179 30.266c-4.302.382-8.75 7.401-9.147 8.5-.396 1.098 3.319 5.836 7.914 5.528 1.71-.115 6.569.27 9.476-.415q2.304-.543 5.323-6.606-3.07-5.42-5.235-6.21c-4.332-1.582-7.51-.87-8.331-.797" opacity=".2" transform="rotate(172 32.774 0)scale(1 -1)"/><path fill="url(#i)" d="M25.975 30.94c-4.302.381-8.484 7.887-8.88 8.985-.397 1.099 3.171 4.64 7.767 4.33 1.71-.114 5.993-.887 8.9-1.572q2.304-.543 5.898-5.448-3.77-3.996-5.936-4.786c-4.332-1.581-6.929-1.582-7.75-1.51" opacity=".2" transform="rotate(172 25.733 0)scale(1 -1)"/><path fill="url(#j)" d="M17.81 33.026c-4.302.381-7.377 5.814-7.773 6.913-.396 1.098 3.171 4.639 7.767 4.33 1.71-.114 5.235-2.069 8.143-2.754q2.303-.543 5.761-4.528-5.213-2.724-7.379-3.515c-4.331-1.581-5.7-.52-6.52-.446" opacity=".2" transform="rotate(172 18.169 0)scale(1 -1)"/><path fill="url(#k)" d="M7.256 34.54c-4.301.382-6.012 4.243-6.408 5.341-.396 1.099 2.28 3.609 6.877 3.3 1.709-.114 6.125-1.038 9.033-1.723q2.304-.544 4.98-3.741a1278 1278 0 0 0-7.736-2.872c-4.332-1.582-5.926-.377-6.746-.304" opacity=".2" transform="rotate(172 8.573 0)scale(1 -1)"/><path fill="#393939" d="M.023 39.004q33.634-.59 46.735-2.159 13.1-1.567 44.265-12.256-6.274 3.58-11.375 5.516c-11.048 4.196-23.54 7.18-31.653 8.304Q30.21 40.875.023 39.004"/><path fill="#f26560" fill-rule="nonzero" stroke="#712c7f" d="M11.63 30.672c2.325 0 4.005-.588 5.069-1.764.952-1.12 1.428-2.8 1.428-5.096V10.288H14.85V23.7q0 2.142-.756 3.108c-.504.644-1.316.98-2.408.98-1.988 0-2.968-1.148-2.968-3.444v-.616H5.443v.644q0 2.94 1.596 4.62c1.036 1.12 2.576 1.68 4.592 1.68Z"/><path fill="#d3d3d3" fill-rule="nonzero" stroke="#712c7f" d="M46.863 28.616c1.656 0 3.024-.48 4.128-1.416.864-.768 1.44-1.752 1.728-2.904h-2.736c-.336.696-.696 1.2-1.104 1.512-.528.384-1.2.576-2.04.576-.984 0-1.752-.312-2.28-.912s-.84-1.488-.936-2.64h9.288c0-2.232-.504-3.984-1.488-5.232-1.08-1.392-2.64-2.064-4.68-2.064-1.848 0-3.312.624-4.368 1.896-1.104 1.248-1.632 2.784-1.632 4.632 0 2.064.576 3.672 1.728 4.848 1.08 1.128 2.544 1.704 4.392 1.704Zm3.192-7.848H43.67q.252-1.476 1.008-2.232c.528-.528 1.224-.768 2.136-.768 1.92 0 3 .984 3.24 3Zm11.352 7.512v-2.256h-1.632c-.288 0-.48-.072-.624-.216-.144-.168-.192-.384-.192-.672v-7.008h2.76v-2.256h-2.76v-4.008l-2.736 1.128v2.88H53.99v2.256h2.232v7.008c0 1.008.24 1.752.72 2.28q.756.864 2.376.864zm7.752.336c1.656 0 3.024-.48 4.128-1.416.864-.768 1.44-1.752 1.728-2.904h-2.736c-.336.696-.696 1.2-1.104 1.512-.528.384-1.2.576-2.04.576-.984 0-1.752-.312-2.28-.912s-.84-1.488-.936-2.64h9.288c0-2.232-.504-3.984-1.488-5.232-1.08-1.392-2.64-2.064-4.68-2.064-1.848 0-3.312.624-4.368 1.896-1.104 1.248-1.632 2.784-1.632 4.632 0 2.064.576 3.672 1.728 4.848 1.08 1.128 2.544 1.704 4.392 1.704Zm3.192-7.848h-6.384q.252-1.476 1.008-2.232c.528-.528 1.224-.768 2.136-.768 1.92 0 3 .984 3.24 3Zm7.728 7.512v-6.576c0-1.056.312-1.896.984-2.544.576-.576 1.224-.84 1.944-.84.576 0 1.152.072 1.776.264v-2.736c-.432-.216-.96-.312-1.56-.312-.768 0-1.416.216-1.968.672-.456.336-.84.816-1.176 1.44v-1.776h-2.712V28.28z"/><path fill="url(#l)" fill-rule="nonzero" d="m15.273 7.28.65-1.79h2.99l.65 1.79h1.25L18.083.14h-1.33l-2.73 7.14zm3.29-2.75h-2.29l1.13-3.13h.04zm3.79 4.73V6.57c.42.56.94.85 1.54.85.74 0 1.33-.27 1.75-.81.39-.5.59-1.13.59-1.89 0-.8-.2-1.44-.6-1.94q-.66-.81-1.8-.81-1.02 0-1.56.69v-.55h-1.06v7.15zm1.27-2.76c-.37 0-.67-.15-.91-.45-.27-.33-.4-.77-.4-1.31v-.08c0-.52.1-.93.32-1.24.24-.36.58-.53 1.03-.53q.75 0 1.11.54c.19.3.29.73.29 1.29s-.11.99-.32 1.29c-.24.32-.62.49-1.12.49m4.96.92c.45 0 .84-.08 1.17-.23.29-.14.54-.33.74-.59v.68h1.06v-3.3q0-.945-.48-1.44c-.36-.38-.93-.57-1.69-.57-.66 0-1.18.11-1.56.35-.45.26-.73.68-.84 1.25l1.13.09c.06-.27.21-.47.43-.6.19-.12.44-.17.76-.17.74 0 1.11.33 1.11 1.01v.2l-1.13.03q-1.14.03-1.77.48c-.46.31-.68.76-.68 1.34 0 .43.16.78.48 1.06.31.27.73.41 1.27.41m.26-.87c-.25 0-.45-.07-.61-.19a.53.53 0 0 1-.23-.45c0-.62.45-.94 1.36-.96l1.05-.03v.26c0 .4-.16.73-.46.99-.3.25-.67.38-1.11.38m6.01.87c.67 0 1.21-.17 1.61-.5.41-.34.68-.86.8-1.56h-1.13c-.09.75-.51 1.13-1.27 1.13-.44 0-.77-.16-.99-.47-.24-.32-.35-.77-.35-1.34 0-.56.12-1 .36-1.31.24-.32.57-.47.99-.47.34 0 .62.08.83.24.2.16.34.4.41.73h1.13c-.1-.65-.36-1.13-.77-1.45-.4-.3-.93-.45-1.6-.45q-1.215 0-1.89.81c-.42.49-.63 1.13-.63 1.91 0 .8.21 1.45.64 1.95q.66.78 1.86.78m4.25-.14V4.39c0-.44.1-.79.31-1.07q.3-.42.84-.42c.39 0 .68.12.88.37.17.23.26.57.26 1.01v3h1.14v-3.2c0-.69-.15-1.21-.44-1.56-.31-.37-.78-.55-1.41-.55-.33 0-.62.06-.87.19-.28.14-.52.35-.71.64V0h-1.14v7.28zm6.68.14c.69 0 1.26-.2 1.72-.59.36-.32.6-.73.72-1.21h-1.14c-.14.29-.29.5-.46.63-.22.16-.5.24-.85.24-.41 0-.73-.13-.95-.38s-.35-.62-.39-1.1h3.87c0-.93-.21-1.66-.62-2.18-.45-.58-1.1-.86-1.95-.86-.77 0-1.38.26-1.82.79-.46.52-.68 1.16-.68 1.93 0 .86.24 1.53.72 2.02.45.47 1.06.71 1.83.71m1.33-3.27h-2.66q.105-.615.42-.93c.22-.22.51-.32.89-.32.8 0 1.25.41 1.35 1.25"/><path fill="#d3d3d3" fill-rule="nonzero" stroke="#712c7f" d="M23.51 28.28V16.472h.097l5.04 11.808h2.424l5.04-11.808h.096V28.28h2.808V11.144h-3.288l-5.808 13.44h-.096l-5.832-13.44h-3.288V28.28z"/></g></svg>