<svg xmlns="http://www.w3.org/2000/svg" viewBox="0 0 2048 2048"><path fill="#00cdac" d="M1868.25 882.837q-87.39-110.445-222.72-110.458-131.422 0-220.425 107.584-89.032 107.596-89.025 257.877 0 165.06 94.935 281.28t236.85 116.205q84.75 0 165.24-35.73t112.02-76.785q10.507-13.118 10.515-27.105a38.7 38.7 0 0 0-7.89-24.225c-5.25-6.84-11.4-10.26-18.39-10.26q-9.225 0-21.69 12.315-42.705 41.895-110.37 67.35t-129.435 25.455q-111.038 0-186.255-81.72-75.24-81.698-89.685-215.58h562.395q1.305-175.725-86.07-286.203m-475.665 216.408q17.078-115.8 86.715-186.432t166.23-70.628q96.57 0 166.545 71.45t86.4 185.61zM922.878 593.346q0-24.638-7.884-35.314t-20.367-10.682q-11.826 0-19.71 10.677t-7.884 35.314v203.67H765.197q-19.71 0-28.251 9.856T728.4 831.51q0 15.607 8.541 25.458t28.251 9.855h101.837v459.087q0 96.075 57.158 152.745t153.738 56.67q74.228 0 155.385-31.62 81.135-31.612 102.165-58.725a36.1 36.1 0 0 0 8.535-22.995 38.7 38.7 0 0 0-7.875-24.225q-7.897-10.26-18.405-10.26-8.55 0-21.675 10.68-36.135 26.28-101.19 47.22-65.025 20.948-120.885 20.94-74.25 0-112.672-40.245t-38.435-100.185V866.823h299.597q19.71 0 28.26-9.855 8.528-9.855 8.535-24.638 0-15.589-8.535-25.459t-28.26-9.855H922.878zM569.893 1556.67q0 84.578-43.362 142.08t-113.66 57.495l-174.107-.825q-19.71 0-28.251 9.855t-8.541 25.455 8.541 25.05q8.53 9.427 28.251 9.45h175.42q55.189 0 95.266-25.455 57.807-36.967 86.724-96.09t28.909-147.015V797.016H242.049q-20.372 0-28.58 9.855t-8.212 24.639q0 15.608 8.541 25.458t28.251 9.855h327.844v689.85ZM430.5 211.5h51c5.619 1.446 14.624 1.026 21 3 54.692 16.934 97.568 34.562 133.5 70.5l15 13.5v3l4.5 3v3c1.278 1.887 4.725 4.112 6 6v3l4.5 3c19.139 29.237 29.066 90.813 12 130.5-23.151 53.834-68.769 89.777-123 112.5-22.464 9.413-51.285 11.624-76.5 18h-18c-20.464 5.036-43.95-1.978-64.5-1.5-15.283.356-34.869 7.472-52.5 3-10.365-2.63-23.908-1.254-34.5-4.5-29.55-9.058-57.477-15.174-81-30-32.721-20.623-75.816-70.674-55.5-129l15-28.5c2.508-3.525 9.882-8.1 12-12l3-18 13.5-34.5a232.4 232.4 0 0 1 105-90c22.95-9.9 49.081-13.992 75-21 9.043-2.445 27.534 2.25 34.5-3m-16.5 54c-5.12 3.645-32.303 4.845-40.5 7.5-27.068 8.765-52.474 19.461-73.5 34.5l-6 7.5c-5.87 4.329-12.697 7.214-15 15h6c5.77-5.142 15.287-3.526 24-6 28.58-8.115 79.587-6.613 106.5 1.5L429 327c45.059 17.1 77.067 31.557 102 69l4.5 3c6.224 9.492 18.656 44.781 13.5 64.5-1.927 7.371-6.28 27.309-12 36-3.334 5.067-8.316 7.545-10.5 15h7.5c5.988-6.11 16.313-5.89 24-10.5 24.28-14.558 42.735-29.193 58.5-52.5 1.884-2.787 6.038-5.804 7.5-9 4.392-9.6 7.701-22.677 10.5-33 6.039-22.28-9.526-53.908-16.5-64.5-30.736-46.678-72.059-62.1-133.5-78-17.424-4.51-49.898-1.488-70.5-1.5M346.5 348c-3.867 2.76-10.75 0-16.5 1.5l-39 7.5c-43.767 15.009-80.684 37.2-93 84-8.33 31.65 22.757 62.976 37.5 73.5 20.447 14.593 38.55 23.375 66 31.5 8.216 2.432 18.174 2.619 25.5 4.5h18c12.83 3.122 33.113 1.616 45-1.5h10.5c8.219-2.208 18.384-3.048 27-6a233.6 233.6 0 0 0 61.5-31.5c5.525-4.033 9.437-10.8 13.5-16.5 4.21-5.9 10.482-12.38 13.5-19.5 9.717-22.93.206-53.863-10.5-69-27.368-38.692-91.674-58.537-159-58.5" data-iconColor="JTE"/></svg>