<svg xmlns="http://www.w3.org/2000/svg" xmlns:xlink="http://www.w3.org/1999/xlink" viewBox="0 0 96 96"><defs><linearGradient id="b" x1="50%" x2="50%" y1="0%" y2="100%"><stop offset="0%" stop-color="#9fec76"/><stop offset="100%" stop-color="#54d377"/></linearGradient><linearGradient id="c" x1="50%" x2="50%" y1="0%" y2="100%"><stop offset="0%" stop-color="#f7b758"/><stop offset="100%" stop-color="#e7862c"/></linearGradient><linearGradient id="d" x1="50%" x2="50%" y1="0%" y2="100%"><stop offset="0%" stop-color="#ef9d44"/><stop offset="100%" stop-color="#dc5508"/></linearGradient><linearGradient id="e" x1="50%" x2="50%" y1="0%" y2="100%"><stop offset="0%" stop-color="#f55d7a"/><stop offset="100%" stop-color="#e73c50"/></linearGradient><linearGradient id="f" x1="50%" x2="50%" y1="0%" y2="100%"><stop offset="0%" stop-color="#d285c6"/><stop offset="100%" stop-color="#a55a96"/></linearGradient><linearGradient id="g" x1="50%" x2="50%" y1="0%" y2="100%"><stop offset="0%" stop-color="#4fc1e2"/><stop offset="100%" stop-color="#278dc1"/></linearGradient><linearGradient id="h" x1="50%" x2="50%" y1="0%" y2="100%"><stop offset="0%" stop-color="#a3c5e3"/><stop offset="100%" stop-color="#7ba8d7"/></linearGradient><linearGradient id="i" x1="50%" x2="50%" y1="0%" y2="100%"><stop offset="0%" stop-color="#fff641"/><stop offset="100%" stop-color="#dccc11"/></linearGradient><linearGradient id="j" x1="50%" x2="50%" y1="0%" y2="100%"><stop offset="0%" stop-color="#ffda4d"/><stop offset="100%" stop-color="#edae25"/></linearGradient><filter id="a" width="129.3%" height="129.3%" x="-14.6%" y="-14.6%" filterUnits="objectBoundingBox"><feOffset dy="2" in="SourceAlpha" result="shadowOffsetOuter1"/><feGaussianBlur in="shadowOffsetOuter1" result="shadowBlurOuter1" stdDeviation="2"/><feComposite in="shadowBlurOuter1" in2="SourceAlpha" operator="out" result="shadowBlurOuter1"/><feColorMatrix in="shadowBlurOuter1" result="shadowMatrixOuter1" values="0 0 0 0 0 0 0 0 0 0 0 0 0 0 0 0 0 0 0.2 0"/><feMerge><feMergeNode in="shadowMatrixOuter1"/><feMergeNode in="SourceGraphic"/></feMerge></filter></defs><g fill="none" fill-rule="evenodd" filter="url(#a)" transform="translate(7 7)"><circle cx="41" cy="41" r="40" fill="#fff" stroke="url(#b)" stroke-width="2"/><path fill="url(#c)" d="M41 4v37L14.837 14.837C21.533 8.141 30.783 4 41 4"/><path fill="url(#d)" d="M14.837 14.837 41 41H4c0-10.217 4.141-19.467 10.837-26.163"/><path fill="url(#e)" d="M41 41 14.837 67.163C8.141 60.467 4 51.217 4 41z"/><path fill="url(#f)" d="M41 41v37c-10.217 0-19.467-4.141-26.163-10.837z"/><path fill="url(#g)" d="m41 41 26.121 26.205C60.43 73.875 51.196 78 41 78z"/><path fill="url(#h)" d="M78 41c0 10.239-4.159 19.506-10.879 26.205L41 41Z"/><path fill="url(#i)" d="M67.163 14.837C73.859 21.533 78 30.783 78 41H41Z"/><path fill="url(#j)" d="M41 4c10.245 0 19.518 4.164 26.218 10.892L41 41Z"/><path fill="#fff" d="M42 3v34.126c.367.095.713.24 1.031.427l24.132-24.13 1.414 1.414-24.13 24.132c.188.318.333.665.427 1.031H79v2H44.874a4 4 0 0 1-.427 1.031l24.13 24.132-1.414 1.414-24.132-24.13a4 4 0 0 1-1.03.427L42 79h-2V44.874a4 4 0 0 1-1.031-.427l-24.132 24.13-1.414-1.414 24.13-24.132a4 4 0 0 1-.427-1.03L3 42v-2h34.126a4 4 0 0 1 .427-1.031l-24.13-24.132 1.414-1.414 24.132 24.13A4 4 0 0 1 40 37.126V3z"/></g></svg>