<svg xmlns="http://www.w3.org/2000/svg" viewBox="0 0 64 64"><circle cx="17" cy="47" r="13" opacity=".2"/><circle cx="32" cy="20" r="13" opacity=".2"/><circle cx="47" cy="47" r="13" opacity=".2"/><circle cx="17" cy="46" r="13" fill="#c2352a"/><circle cx="17" cy="47" r="9" opacity=".1"/><circle cx="17" cy="46" r="9" fill="#e67a73"/><circle cx="32" cy="19" r="13" fill="#46a249"/><circle cx="32" cy="20" r="9" opacity=".1"/><circle cx="32" cy="19" r="9" fill="#7bde7f"/><circle cx="47" cy="46" r="13" fill="#8e53ab"/><circle cx="47" cy="47" r="9" opacity=".1"/><circle cx="47" cy="46" r="9" fill="#ba96cc"/><path fill="#fff" d="M47 37a9 9 0 0 0-9 9 9 9 0 0 0 .023.363A9 9 0 0 1 47 38a9 9 0 0 1 8.973 8.469A9 9 0 0 0 56 46a9 9 0 0 0-9-9m0-4a13 13 0 0 0-13 13 13 13 0 0 0 .02.449A13 13 0 0 1 47 34a13 13 0 0 1 12.975 12.5A13 13 0 0 0 60 46a13 13 0 0 0-13-13M32 10a9 9 0 0 0-9 9 9 9 0 0 0 .023.363A9 9 0 0 1 32 11a9 9 0 0 1 8.973 8.469A9 9 0 0 0 41 19a9 9 0 0 0-9-9m0-4a13 13 0 0 0-13 13 13 13 0 0 0 .02.449A13 13 0 0 1 32 7a13 13 0 0 1 12.975 12.5A13 13 0 0 0 45 19 13 13 0 0 0 32 6M17 37a9 9 0 0 0-9 9 9 9 0 0 0 .023.363A9 9 0 0 1 17 38a9 9 0 0 1 8.973 8.469A9 9 0 0 0 26 46a9 9 0 0 0-9-9m0-4A13 13 0 0 0 4 46a13 13 0 0 0 .02.449A13 13 0 0 1 17 34a13 13 0 0 1 12.975 12.5A13 13 0 0 0 30 46a13 13 0 0 0-13-13" opacity=".1"/></svg>