<svg xmlns="http://www.w3.org/2000/svg" xmlns:xlink="http://www.w3.org/1999/xlink" viewBox="0 0 96 96"><defs><linearGradient id="b" x1="50%" x2="50%" y1="0%" y2="100%"><stop offset="0%" stop-color="#c8e8ff"/><stop offset="33.359%" stop-color="#296ba1"/><stop offset="67.821%" stop-color="#6cc4da"/><stop offset="100%" stop-color="#7dbdc6"/></linearGradient><linearGradient id="d" x1="50%" x2="50%" y1="0%" y2="100%"><stop offset="0%" stop-color="#4e85b8"/><stop offset="51.785%" stop-color="#056c99"/><stop offset="100%" stop-color="#68a0b6"/></linearGradient><linearGradient id="e" x1="50%" x2="50%" y1="0%" y2="100%"><stop offset="0%" stop-color="#c8e8ff"/><stop offset="33.359%" stop-color="#296ba1"/><stop offset="67.821%" stop-color="#6cc4da"/><stop offset="100%" stop-color="#7dbdc6"/></linearGradient><linearGradient id="f" x1="50%" x2="50%" y1="0%" y2="100%"><stop offset="0%" stop-color="#4e85b8"/><stop offset="51.785%" stop-color="#056c99"/><stop offset="100%" stop-color="#68a0b6"/></linearGradient><linearGradient id="g" x1="50%" x2="50%" y1="0%" y2="100%"><stop offset="0%" stop-color="#c8e8ff"/><stop offset="33.359%" stop-color="#296ba1"/><stop offset="67.821%" stop-color="#6cc4da"/><stop offset="100%" stop-color="#7dbdc6"/></linearGradient><linearGradient id="h" x1="50%" x2="50%" y1="0%" y2="100%"><stop offset="0%" stop-color="#4e85b8"/><stop offset="51.785%" stop-color="#056c99"/><stop offset="100%" stop-color="#68a0b6"/></linearGradient><filter id="a" width="130.8%" height="130.8%" x="-15.4%" y="-15.4%" filterUnits="objectBoundingBox"><feOffset dy="2" in="SourceAlpha" result="shadowOffsetOuter1"/><feGaussianBlur in="shadowOffsetOuter1" result="shadowBlurOuter1" stdDeviation="2"/><feComposite in="shadowBlurOuter1" in2="SourceAlpha" operator="out" result="shadowBlurOuter1"/><feColorMatrix in="shadowBlurOuter1" result="shadowMatrixOuter1" values="0 0 0 0 0 0 0 0 0 0 0 0 0 0 0 0 0 0 0.2 0"/><feMerge><feMergeNode in="shadowMatrixOuter1"/><feMergeNode in="SourceGraphic"/></feMerge></filter></defs><g fill="none" fill-rule="evenodd" filter="url(#a)" transform="translate(9 9)"><rect width="78" height="78" fill="#fff" rx="12"/><path fill="#d3fbff" d="M50.5 61a6.5 6.5 0 1 1 0 13 6.5 6.5 0 0 1 0-13m-24-1a6.5 6.5 0 1 1 0 13 6.5 6.5 0 0 1 0-13m38-15a6.5 6.5 0 1 1 0 13 6.5 6.5 0 0 1 0-13m-25-2a6.5 6.5 0 1 1 0 13 6.5 6.5 0 0 1 0-13m-26 0a6.5 6.5 0 1 1 0 13 6.5 6.5 0 0 1 0-13m39-14a6.5 6.5 0 1 1 0 13 6.5 6.5 0 0 1 0-13m-26-1a6.5 6.5 0 1 1 0 13 6.5 6.5 0 0 1 0-13m13-16a6.5 6.5 0 1 1 0 13 6.5 6.5 0 0 1 0-13"/><g transform="translate(7 8)"><path fill="url(#b)" stroke="url(#d)" d="M45.5 2.5h3v46h-3z" transform="rotate(-39 47 25.5)"/><path fill="url(#b)" stroke="url(#d)" d="M30.5 15.5h3v46h-3z" transform="rotate(-39 32 38.5)"/><path fill="url(#b)" stroke="url(#d)" d="M17.5.5h3v46h-3z" transform="rotate(45 19 23.5)"/><path fill="url(#e)" stroke="url(#f)" d="M24.5 35.5h3v22h-3z" transform="rotate(45 26 46.5)"/><circle cx="32.5" cy="6.5" r="6.5" fill="url(#g)" stroke="url(#h)"/><circle cx="32.5" cy="37.5" r="6.5" fill="url(#g)" stroke="url(#h)"/><circle cx="19.5" cy="54.5" r="6.5" fill="url(#g)" stroke="url(#h)"/><circle cx="43.5" cy="55.5" r="6.5" fill="url(#g)" stroke="url(#h)"/><circle cx="57.5" cy="39.5" r="6.5" fill="url(#g)" stroke="url(#h)"/><circle cx="19.5" cy="22.5" r="6.5" fill="url(#g)" stroke="url(#h)"/><circle cx="6.5" cy="37.5" r="6.5" fill="url(#g)" stroke="url(#h)"/><circle cx="45.5" cy="23.5" r="6.5" fill="url(#g)" stroke="url(#h)"/></g></g></svg>