<svg xmlns="http://www.w3.org/2000/svg" viewBox="0 0 22 22"><path fill="none" d="M0 0h22v22H0z"/><path fill="currentColor" d="M11 3a1.5 1.5 0 0 0-1.5 1.5 1.5 1.5 0 0 0 .168.686A5 5 0 0 0 6 10a3.5 6 0 0 1-3 5.932V17h10v-1H4.805A4.5 7 0 0 0 7 10a4 4 0 0 1 4-4 4 4 0 0 1 4 4 4.5 7 0 0 0 .443 3h1.03A3.5 6 0 0 1 16 10a5 5 0 0 0-3.666-4.818A1.5 1.5 0 0 0 12.5 4.5 1.5 1.5 0 0 0 11 3" class="ColorScheme-Text"/><path fill="currentColor" fill-opacity=".6" d="M14 14v6h2v-6zm3 0v6h2v-6z" class="ColorScheme-Text"/></svg>