<svg xmlns="http://www.w3.org/2000/svg" viewBox="0 0 64 64"><path d="M4 6s0 17 3 20c8.4 8.4 20-3 20-3zm56 0L37 23s11.6 11.4 20 3c3-3 3-20 3-20" opacity=".2"/><path fill="#b73c0d" d="M4 5s0 17 3 20c8.4 8.4 20-3 20-3zm56 0L37 22s11.6 11.4 20 3c3-3 3-20 3-20"/><path fill="#fff" d="M4 5s.015.74.018 1.014L26.39 22.549c.377-.33.61-.549.61-.549zm56 0L37 22s.233.218.61.549L59.981 6.014C59.985 5.74 60 5 60 5" opacity=".1"/><circle cx="32" cy="37" r="25" opacity=".2"/><circle cx="32" cy="36" r="25" fill="#e5490e"/><path d="m18 34-5 3 11 8 5-3zm28 0-11 8 5 3 11-8z" opacity=".1"/><path fill="#4f4f4f" d="m18 33-5 3 11 8 5-3zm28 0-11 8 5 3 11-8z"/><path fill="#fff" d="M32 11A25 25 0 0 0 7 36a25 25 0 0 0 .021.586A25 25 0 0 1 32 12a25 25 0 0 1 24.979 24.414L57 36a25 25 0 0 0-25-25" opacity=".2"/></svg>