<svg xmlns="http://www.w3.org/2000/svg" viewBox="0 0 64 64"><circle cx="32" cy="33" r="28" opacity=".2"/><circle cx="32" cy="32" r="28" fill="#e4e4e4"/><path fill="#fff" d="M32 4A28 28 0 0 0 4 32a28 28 0 0 0 .021.586A28 28 0 0 1 32 5a28 28 0 0 1 27.979 27.414L60 32A28 28 0 0 0 32 4" opacity=".2"/><circle cx="25" cy="23" r="8" opacity=".1"/><circle cx="25" cy="22" r="8" fill="#3c88e7"/><circle cx="44" cy="35" r="8" opacity=".1"/><circle cx="44" cy="34" r="8" fill="#5dc15c"/><circle cx="25" cy="44" r="8" opacity=".1"/><circle cx="25" cy="43" r="8" fill="#e74c3c"/></svg>