<svg xmlns="http://www.w3.org/2000/svg" viewBox="0 0 64 64"><path d="m21 47 8 3 3 11 3-11 8-3v-1h-8V7h-6v39h-8z" opacity=".2"/><path fill="#b2b2b2" d="m21 46 8 3 3 11 3-11 8-3v-1h-8V6h-6v39h-8z"/><path fill="#d33e33" d="M21 17h22v29H21z"/><path d="M27.5 5a1.5 1.5 0 1 0 0 3h9a1.5 1.5 0 1 0 0-3z" opacity=".2"/><path fill="#e4e4e4" d="M27.5 4a1.5 1.5 0 1 0 0 3h9a1.5 1.5 0 1 0 0-3z"/><path d="M26 41h3l3-3 3 3h3l-6-6z" opacity=".1"/><path fill="#3f3f3f" d="M26 40h3l3-3 3 3h3l-6-6z"/><path d="M35 25h3v8h-3z" opacity=".1"/><path fill="#3f3f3f" d="M35 24h3v8h-3z"/><path d="M19.5 16a1.5 1.5 0 1 0 0 3h25a1.5 1.5 0 1 0 0-3z" opacity=".2"/><path fill="#e4e4e4" d="M19.418 15.2a1.398 1.4 0 1 0 0 2.8h25.164a1.398 1.4 0 1 0 0-2.8z"/><path fill="#fff" d="M19.418 15.2a1.398 1.4 0 0 0-1.229 2.1 1.398 1.4 0 0 1 1.229-.7h25.164a1.398 1.4 0 0 1 1.229.7 1.398 1.4 0 0 0-1.229-2.1z" opacity=".2"/><path fill="#e4e4e4" d="M19.5 15a1.5 1.5 0 1 0 0 3h25a1.5 1.5 0 1 0 0-3z"/><path fill="#fff" d="M27.5 4a1.5 1.5 0 0 0-1.434 2A1.5 1.5 0 0 1 27.5 5h9a1.5 1.5 0 0 1 1.434 1A1.5 1.5 0 0 0 36.5 4zm-8 11a1.5 1.5 0 0 0-1.434 2 1.5 1.5 0 0 1 1.434-1h25a1.5 1.5 0 0 1 1.434 1 1.5 1.5 0 0 0-1.434-2z" opacity=".2"/></svg>