<svg xmlns="http://www.w3.org/2000/svg" viewBox="0 0 64 64"><rect width="40" height="50" x="12" y="5" opacity=".2" rx="3" ry="3"/><rect width="40" height="50" x="12" y="4" fill="#4f4f4f" rx="3" ry="3"/><path d="M15.107 5A3 3 0 0 0 12 7.998v44a3 3 0 0 0 2.3 2.918l25 6a3 3 0 0 0 3.7-2.918v-44a3 3 0 0 0-2.3-2.918l-25-6a3 3 0 0 0-.593-.08" opacity=".2"/><path fill="#1f8ac9" d="M15.107 4A3 3 0 0 0 12 6.998v44a3 3 0 0 0 2.3 2.918l25 6a3 3 0 0 0 3.7-2.918v-44a3 3 0 0 0-2.3-2.918l-25-6a3 3 0 0 0-.593-.08"/><circle cx="35" cy="36" r="3" opacity=".2"/><circle cx="35" cy="35" r="3" fill="#fff"/><path fill="#fff" d="M15.107 4A3 3 0 0 0 12 6.998v1a3 3 0 0 1 3.7-2.918l25 6a3 3 0 0 1 2.3 2.918v-1a3 3 0 0 0-2.3-2.918l-25-6a3 3 0 0 0-.593-.08" opacity=".2"/></svg>