<svg xmlns="http://www.w3.org/2000/svg" viewBox="0 0 64 64"><path d="M22 37v2c0 1.662 1.338 3 3 3h32c1.662 0 3-1.338 3-3v-2c0 1.662-1.338 3-3 3H25c-1.662 0-3-1.338-3-3M4 55v2c0 1.662 1.338 3 3 3h32c1.662 0 3-1.338 3-3v-2c0 1.662-1.338 3-3 3H7c-1.662 0-3-1.338-3-3" opacity=".2"/><rect width="38" height="38" x="4" y="-60" fill="#4f4f4f" rx="3" ry="3" transform="rotate(90)"/><path d="M40 17v3h3v-3zm6 0v3h3v-3zm-1.252 5.078q-3.57 0-5.682 2.295c-1.397 1.52-2.097 3.78-2.097 6.377 0 2.512.737 4.604 2.21 6.078q2.225 2.21 6.022 2.21 1.516 0 2.99-.312A15 15 0 0 0 51 37.82v-2.266c-.926.492-1.794.86-2.738 1.106q-1.402.368-2.905.369-2.593 0-4.052-1.402c-.964-.945-1.502-2.833-1.616-4.627h11.987v-1.06c0-2.361-.625-4.425-1.871-5.795q-1.856-2.068-5.057-2.068m.027 2.209q1.928 0 3.09 1.275c.784.85 1.184 2.004 1.203 3.43l-9.295.015c.133-1.492.633-2.666 1.502-3.488q1.319-1.232 3.5-1.232" opacity=".2"/><path fill="#fff" d="M40 16v3h3v-3zm6 0v3h3v-3zm-1.252 5.078q-3.57 0-5.682 2.295c-1.397 1.52-2.097 3.78-2.097 6.377 0 2.513.737 4.605 2.21 6.078q2.225 2.211 6.022 2.211 1.516 0 2.99-.312A15 15 0 0 0 51 36.82v-2.265c-.926.49-1.794.86-2.738 1.105q-1.402.37-2.905.37-2.593 0-4.052-1.403c-.964-.945-1.502-2.832-1.616-4.627h11.987v-1.059c0-2.361-.625-4.425-1.871-5.795q-1.856-2.068-5.057-2.068m.027 2.21q1.928 0 3.09 1.275c.784.85 1.184 2.003 1.203 3.43l-9.295.015c.133-1.493.633-2.667 1.502-3.488q1.319-1.233 3.5-1.233"/><rect width="38" height="38" x="21" y="-42" fill="#e4e4e4" rx="3" ry="3" transform="rotate(90)"/><path fill="#fff" d="M25 4c-1.662 0-3 1.338-3 3v1c0-1.662 1.338-3 3-3h32c1.662 0 3 1.338 3 3V7c0-1.662-1.338-3-3-3zM7 21c-1.662 0-3 1.338-3 3v1c0-1.662 1.338-3 3-3h32c1.662 0 3 1.338 3 3v-1c0-1.662-1.338-3-3-3z" opacity=".1"/><path d="M28.568 47.176q-3.3 0-4.573.734c-.848.49-1.273 1.624-1.273 2.805q0 1.411.947 2.246.963.82 2.605.82 2.265 0 3.626-1.554c.917-1.046 1.176-2.733 1.176-4.46v-.59zM34 46.081V56h-3v-2.866c-.62.98-1.12 1.704-2.045 2.174q-1.392.693-3.404.692-2.546 0-4.056-1.382Q20 53.22 20 50.89c0-1.814.622-3.481 1.865-4.403 1.253-.921 3.118-1.447 5.594-1.382h3.618v-.259c0-1.219-.415-1.86-1.244-2.522-2.542-1.5-6.347-1.186-8.834.017v-2.148c.996-.374 2.178-.653 3.115-.835q1.406-.288 2.738-.288 3.596 0 5.372 1.814c1.184 1.21 1.776 2.743 1.776 5.2M24.827 32 29 37h-2.264l-4.824-5z" opacity=".2"/><path fill="#3f3f3f" d="M28.568 46.176q-3.3 0-4.573.735c-.848.49-1.273 1.624-1.273 2.804q0 1.412.947 2.246.963.822 2.605.821 2.265 0 3.626-1.555c.917-1.046 1.176-2.733 1.176-4.46v-.59zM34 45.083V55h-3v-2.866c-.62.98-1.12 1.704-2.045 2.174q-1.392.693-3.404.692-2.545 0-4.056-1.382Q20 52.22 20 49.89c0-1.814.621-3.481 1.865-4.402 1.253-.922 3.118-1.447 5.594-1.383h3.618v-.259c0-1.219-.415-1.86-1.244-2.522-2.542-1.5-6.347-1.186-8.834.017v-2.148c.996-.374 2.178-.652 3.115-.835q1.406-.288 2.738-.288 3.596 0 5.372 1.814c1.184 1.21 1.776 2.743 1.776 5.2M24.827 31 29 36h-2.264l-4.824-5z"/></svg>