<svg xmlns="http://www.w3.org/2000/svg" viewBox="0 0 64 64"><rect width="40" height="60" x="12" y="3" opacity=".2" rx="3" ry="3"/><path fill="#e4e4e4" d="M15 2c-1.662 0-3 1.338-3 3v3h40V5c0-1.662-1.338-3-3-3zm-3 52v5c0 1.662 1.338 3 3 3h34c1.662 0 3-1.338 3-3v-5z"/><path fill="#3f3f3f" d="M12 8h40v46H12z"/><rect width="10" height="2" x="27" y="4" fill="#333" rx="1.25" ry="1"/><path fill="#fff" d="M15 2c-1.662 0-3 1.338-3 3v1c0-1.662 1.338-3 3-3h34c1.662 0 3 1.338 3 3V5c0-1.662-1.338-3-3-3z" opacity=".2"/><rect width="6" height="6" x="29" y="55" fill="#4d4d4d" rx="1.5" ry="1.5"/><rect width="6" height="3" x="40" y="56" fill="#4d4d4d" rx="1.5" ry="1.5"/><rect width="6" height="3" x="18" y="56" fill="#4d4d4d" rx="1.5" ry="1.5"/><circle cx="40" cy="5" r="1" fill="#333"/><path d="M34.031 14.949 28 16v20.773L34 36l-.031-9.363L41.047 37 48 36l-8-10.727 8.027-9-7.039-1.296-7.019 9Zm-12.683 5.305a.25.25 0 0 0-.157.074l-2.07 2.094a.27.27 0 0 0-.035.34l2.5 3.84a10.6 10.6 0 0 0-1.059 2.714l-4.316 1.059a.275.275 0 0 0-.211.262v2.726c0 .124.091.233.211.262l4.316 1.059c.231.96.587 1.877 1.059 2.714l-2.5 3.84a.27.27 0 0 0 .035.34l2.07 2.094a.27.27 0 0 0 .329.031l3.917-2.402c.769.448 1.972.808 2.848 1.047l.918 4.433a.26.26 0 0 0 .254.219h3.086a.26.26 0 0 0 .254-.219l.918-4.433c.876-.239 2.079-.599 2.848-1.047l3.917 2.402a.27.27 0 0 0 .329-.031l2.07-2.094a.27.27 0 0 0 .035-.34l-2.082-3.199-.258.039-1.461-2.14A9 9 0 0 1 31 41.063a9 9 0 0 1-9-9 9 9 0 0 1 5-8.055v-1.965c-.57.19-1.131.405-1.562.656l-3.918-2.402a.3.3 0 0 0-.172-.043" opacity=".2"/><path fill="#fff" d="M34.031 13.949 28 15v20.773L34 35l-.031-9.363L41.047 36 48 35l-8-10.727 8.027-9-7.039-1.296-7.019 9Zm-12.683 5.305a.25.25 0 0 0-.157.074l-2.07 2.094a.27.27 0 0 0-.035.34l2.5 3.84a10.6 10.6 0 0 0-1.059 2.714l-4.316 1.059a.275.275 0 0 0-.211.262v2.726c0 .124.091.233.211.262l4.316 1.059c.231.96.587 1.877 1.059 2.714l-2.5 3.84a.27.27 0 0 0 .035.34l2.07 2.094a.27.27 0 0 0 .329.031l3.917-2.402c.769.448 1.972.808 2.848 1.047l.918 4.433a.26.26 0 0 0 .254.219h3.086a.26.26 0 0 0 .254-.219l.918-4.433c.876-.239 2.079-.599 2.848-1.047l3.917 2.402a.27.27 0 0 0 .329-.031l2.07-2.094a.27.27 0 0 0 .035-.34l-2.082-3.199-.258.039-1.461-2.14A9 9 0 0 1 31 40.063a9 9 0 0 1-9-9 9 9 0 0 1 5-8.055v-1.965c-.57.19-1.131.405-1.562.656l-3.918-2.402a.3.3 0 0 0-.172-.043"/><path d="M12 8h40v1H12z" opacity=".2"/><path fill="#fff" d="M12 54h40v1H12z" opacity=".2"/></svg>