<svg xmlns="http://www.w3.org/2000/svg" viewBox="0 0 24 24"><g fill="#303030" transform="translate(4 4)"><path d="M2 1c-.556 0-1 .444-1 1v12c0 .556.444 1 1 1h12c.556 0 1-.444 1-1V2c0-.556-.444-1-1-1zm0-1h12c1.108 0 2 .892 2 2v12c0 1.108-.892 2-2 2H2c-1.108 0-2-.892-2-2V2C0 .892.892 0 2 0"/><path d="m7.66 4-.088 1.035-.598.22a3 3 0 0 0-.867.497l-.486.401-.954-.444-.335.576.863.595-.113.634a3 3 0 0 0-.045.484q0 .25.044.495l.11.633-.858.59.333.574.948-.443.486.399a3 3 0 0 0 .87.494l.602.218L7.659 12h.684l.087-1.035.598-.22c.316-.116.609-.284.867-.497l.486-.401.955.444.335-.575-.864-.596.113-.634q.044-.245.045-.487 0-.25-.042-.495l-.11-.631.858-.59-.335-.573-.948.443-.486-.399a3 3 0 0 0-.87-.494l-.602-.218L8.342 4zm-.92-1h2.522l.111 1.32c.422.153.815.377 1.162.66l1.205-.562 1.262 2.164-1.094.752q.057.33.057.666a4 4 0 0 1-.06.662l1.097.756-1.262 2.164-1.209-.562a4 4 0 0 1-1.158.664L9.262 13H6.74l-.111-1.32a4 4 0 0 1-1.162-.66l-1.205.562-1.26-2.164 1.094-.752A4 4 0 0 1 4.037 8q.002-.333.06-.662l-1.095-.756 1.26-2.164 1.209.562a4 4 0 0 1 1.158-.664z"/><circle cx="8" cy="8" r="1"/></g></svg>