<svg xmlns="http://www.w3.org/2000/svg" viewBox="0 0 24 24"><path fill="#536076" d="M16.15 5.026 4.995 7.083v.04L5.305 9h1.506l1.374-2.495L11.161 9h1.318l1.152-1.634L15.857 9h.96zM8.475 8.053 7.402 10H4.457l-.451-2.732s-.165-.988.773-1.163l11.252-2.074s.058-.03.153-.03c.271-.002.827.106.95.849l.864 5.15h-2.469l-.861-.633-.807-.592-.565.802-.298.423h-2.201zM4 11v1h1v-1zm2 0v1h1v-1zm2 0v1h1v-1zm2 0v1h1v-1zm2 0v1h1v-1zm2 0v1h1v-1zm2 0v1h1v-1zm2 0v1h1v-1zm-8 3H5.002v1H7.22L10 17.66zm-5.998-1H11v7l-4.182-4H4.002zM13 13v3c1.07-.58 1.7-1.7 1.7-3zm3.91 0c0 2.57-1.59 4.76-3.91 5.5V20c3.15-.78 5.41-3.6 5.41-7z"/></svg>