<svg xmlns="http://www.w3.org/2000/svg" viewBox="0 0 64 64"><path d="M4 56.2v2C4 59.75 5.25 61 6.8 61h50.4c1.55 0 2.8-1.25 2.8-2.8v-2c0 1.55-1.25 2.8-2.8 2.8H6.8C5.25 59 4 57.75 4 56.2" opacity=".2"/><rect width="56" height="56" x="4" y="4" fill="#e4e4e4" rx="2.8" ry="2.8"/><rect width="17.482" height="17.482" x="-37.02" y="-8.74" fill="#49a2d6" rx=".874" ry=".874" transform="rotate(45)scale(-1 1)"/><rect width="17.482" height="17.482" x="-54" y="-25.72" fill="#caa52a" rx=".874" ry=".874" transform="rotate(45)scale(-1 1)"/><rect width="17.482" height="17.482" x="-54" y="8.24" fill="#e94a63" rx=".874" ry=".874" transform="rotate(45)scale(-1 1)"/><rect width="17.482" height="17.482" x="-70.96" y="-8.74" fill="#6eaa53" rx=".874" ry=".874" transform="rotate(45)scale(-1 1)"/><path fill="#fff" d="M6.8 4C5.25 4 4 5.25 4 6.8v1.003a2.796 2.796 0 0 1 2.8-2.801h50.4c1.55 0 2.8 1.25 2.8 2.8v-1A2.796 2.796 0 0 0 57.2 4z" opacity=".2"/></svg>