<svg xmlns="http://www.w3.org/2000/svg" viewBox="0 0 64 64"><path d="M4 52.2v2C4 55.75 5.25 57 6.8 57h50.4c1.55 0 2.8-1.25 2.8-2.8v-2c0 1.55-1.25 2.8-2.8 2.8H6.8C5.25 55 4 53.75 4 52.2" opacity=".2"/><path fill="#e3af4a" d="M60 53.2V10.8C60 9.25 58.75 8 57.2 8H6.8A2.794 2.794 0 0 0 4 10.8v42.4C4 54.752 5.249 56 6.8 56h50.4c1.55 0 2.8-1.249 2.8-2.8"/><rect width="39.999" height="32" x="12" y="17" opacity=".2" rx="2.7" ry="2.912"/><rect width="39.999" height="32" x="12" y="16" fill="#faff84" rx="2.7" ry="2.912"/><rect width="16" height="6" x="24" y="29" opacity=".2" rx="2.644" ry="2.736"/><rect width="16" height="6" x="24" y="28" fill="#4e4e4e" rx="2.644" ry="2.736"/><path fill="#fff" d="M6.8 8C5.25 8 4 9.25 4 10.8v1C4 10.25 5.25 9 6.8 9h50.4c1.55 0 2.8 1.25 2.8 2.8v-1C60 9.25 58.75 8 57.2 8z" opacity=".2"/></svg>