<svg xmlns="http://www.w3.org/2000/svg" viewBox="0 0 64 64"><path d="M4.05 32c-.011.334-.05.662-.05 1 0 15.512 12.488 28 28 28a27.94 27.94 0 0 0 28-28c0-.337-.04-.665-.052-1-.528 15.042-12.775 27-27.95 27C16.826 59 4.579 47.042 4.05 32" opacity=".2"/><rect width="56" height="56" x="4" y="4" fill="#587de6" rx="28" ry="28"/><path d="M32.001 16c-5.6 0-10.285 2.674-10 9.332V30h-1.667c-1.292 0-2.333.935-2.333 2.201v13.514c0 1.266 1.04 2.285 2.333 2.285h23.334c1.293 0 2.334-1.02 2.334-2.285V32.2c0-1.266-1.022-2.201-2.334-2.201h-1.666v-4.668c0-6.651-4.41-9.326-10.01-9.326zm0 4c2.8 0 6 .96 6 5.332V30H26v-4.668C26 21.005 29.2 20 32 20" opacity=".5"/><path fill="#fff" d="M32 4C16.488 4 4 16.488 4 32c0 .114.011.224.018.336C4.369 17.134 16.71 5 32 5s27.63 12.134 27.982 27.336c.007-.112.018-.222.018-.336C60 16.488 47.512 4 32 4" opacity=".2"/></svg>