<svg xmlns="http://www.w3.org/2000/svg" viewBox="0 0 64 64"><path d="M6 54.398v2A2.6 2.6 0 0 0 8.602 59h46.796A2.6 2.6 0 0 0 58 56.398v-2A2.6 2.6 0 0 1 55.398 57H8.602A2.6 2.6 0 0 1 6 54.398" opacity=".2"/><rect width="52" height="52" x="-58" y="-58" fill="#4e91d9" rx="2.6" ry="2.6" transform="rotate(90)scale(-1 1)"/><path fill="#fff" d="M12 34h8v2h-8z"/><path fill="#ffeb5d" d="m43 10 .667 1.734 1.739-.546-.906 1.617L46 13.86l-1.797.281.132 1.86L43 14.734 41.665 16l.132-1.86L40 13.86l1.5-1.054-.906-1.617 1.738.546z"/><path fill="#742424" d="M46 44h-8v-2h8z"/><path fill="#ad3131" d="M38 44h-8v-2h8z"/><path fill="#742424" d="M30 44h-8v-2h8z"/><path fill="#ad3131" d="M22 44h-8v-2h8z"/><path fill="#742424" d="M14 44H6v-2h8zm44 0h-4v-2h4z"/><path fill="#ad3131" d="M42 46h-8v-2h8z"/><path fill="#742424" d="M34 46h-8v-2h8z"/><path fill="#ad3131" d="M26 46h-8v-2h8z"/><path fill="#742424" d="M18 46h-8v-2h8z"/><path fill="#ad3131" d="M10 46H6v-2h4zm44-2h-8v-2h8zm4 2h-8v-2h8z"/><path fill="#742424" d="M50 46h-8v-2h8zM22 20h4v2h-4z"/><path fill="#ad3131" d="M26 20h8v2h-8z"/><path fill="#742424" d="M34 20h8v2h-8z"/><path fill="#ad3131" d="M42 20h8v2h-8z"/><path fill="#742424" d="M50 20h8v2h-8zM6 20h4v2H6z"/><path fill="#ad3131" d="M22 18h8v2h-8z"/><path fill="#742424" d="M30 18h8v2h-8z"/><path fill="#ad3131" d="M38 18h8v2h-8z"/><path fill="#742424" d="M46 18h8v2h-8z"/><path fill="#ad3131" d="M54 18h4v2h-4zM6 18h4v2H6z"/><path fill="#fff" d="M12 16h2v24h-2zm6 0h2v24h-2z"/><path fill="#fff" d="M12 26h8v2h-8zm0-8h8v2h-8z"/><path fill="#fff" d="M8.602 6A2.597 2.597 0 0 0 6 8.602v1A2.597 2.597 0 0 1 8.602 7h46.796A2.597 2.597 0 0 1 58 9.602v-1A2.597 2.597 0 0 0 55.398 6z" opacity=".2"/></svg>