<svg xmlns="http://www.w3.org/2000/svg" xmlns:xlink="http://www.w3.org/1999/xlink" viewBox="0 0 96 96"><defs><linearGradient id="b" x1="50%" x2="50%" y1="0%" y2="100%"><stop offset="0%" stop-color="#444"/><stop offset="100%"/></linearGradient><linearGradient id="c" x1="50%" x2="50%" y1="0%" y2="100%"><stop offset="0%" stop-color="#5e9a94"/><stop offset="100%" stop-color="#30615b"/></linearGradient><filter id="a" width="135.3%" height="132%" x="-17.6%" y="-16%" filterUnits="objectBoundingBox"><feOffset dy="2" in="SourceAlpha" result="shadowOffsetOuter1"/><feGaussianBlur in="shadowOffsetOuter1" result="shadowBlurOuter1" stdDeviation="2"/><feComposite in="shadowBlurOuter1" in2="SourceAlpha" operator="out" result="shadowBlurOuter1"/><feColorMatrix in="shadowBlurOuter1" result="shadowMatrixOuter1" values="0 0 0 0 0 0 0 0 0 0 0 0 0 0 0 0 0 0 0.2 0"/><feMerge><feMergeNode in="shadowMatrixOuter1"/><feMergeNode in="SourceGraphic"/></feMerge></filter></defs><g fill="none" fill-rule="evenodd" filter="url(#a)" transform="translate(14 11)"><path fill="url(#b)" fill-rule="nonzero" d="M59.125 1.501a4 4 0 0 1-.625 5.623q-10.148 8.118-18.826 13.734l-1.065.682a146 146 0 0 1-9.47 5.504q5.796 9.943 11.95 17.413l.669.805c5.984 7.133 13.878 14.847 17.568 17.483a4 4 0 0 1-4.65 6.51c-4.462-3.187-13.3-11.865-19.763-19.712q-6.732-8.176-12.971-18.96c-2.231.995-4.29 1.809-6.06 2.38-.432 3.153-.89 6.133-1.348 8.71l-.097.543c-1.365 7.506-3.57 16.158-6.616 25.97a4 4 0 1 1-7.64-2.371c2.955-9.523 5.083-17.87 6.385-25.03l.187-1.057C8.631 28.92 10.501 11.083 10.501 4a4 4 0 1 1 8 0c0 4.309-.617 12.058-1.507 20.01 5.225-2.185 12.195-5.896 18.334-9.868Q43.65 8.758 53.502.877a4 4 0 0 1 5.623.624"/><path fill="url(#c)" d="M64.198 46.5c-1.757-5.903-5.528-11-12.697-11-6 0-11 6-11 18s5.5 17.5 14 17.5c4.878 0 7.897-2.417 9.51-6.23l.111-.269 3.13.001c-3.405 5.988-9.633 9.998-16.75 9.998-10.77 0-19.5-9.178-19.5-20.5s8.73-20.5 19.5-20.5c3.54 0 6.859.992 9.72 2.725.891.303 1.962.636 2.78.636q1.232 0 1-3.36h3L67 43.068l.002.003V46.5z"/></g></svg>