<svg xmlns="http://www.w3.org/2000/svg" viewBox="0 0 24 24"><path fill="#29b6f6" d="M12.033 1.737c-.25-.003-.5.11-.729.337Q6.686 6.686 2.078 11.31c-.144.144-.229.346-.341.521v.41c.16.223.294.474.485.666a3260 3260 0 0 0 8.936 8.937c.193.192.443.325.666.486h.41c.205-.142.436-.256.609-.428q4.569-4.561 9.133-9.127c.47-.47.472-1.005.006-1.472l-9.218-9.217c-.23-.23-.48-.347-.731-.35m-1.062 4.545 1.386.832c.702.422 1.403.846 2.109 1.262l.04.026.016.013.017.013c.061.056.089.123.088.224a510 510 0 0 0 0 3.794.5.5 0 0 1-.007.094c-.015.069-.054.103-.142.109l-.044.002-.136-.003c-.323-.006-.648-.001-.998-.001v-2.541l.004-.668c0-.147-.039-.231-.17-.308-.893-.528-1.78-1.066-2.67-1.6-.051-.03-.101-.065-.173-.111l.001-.003h-.001zm.362 3.39c.068-.003.119.043.173.138q.128.22.264.44l.015.025q.145.23.292.47l-1.915 1.176c-.337.207-.673.417-1.014.617-.113.067-.154.143-.154.277.01.977.01 1.955.014 2.932V16h-1.31c-.004-.053-.014-.112-.014-.17-.005-1.25-.006-2.501-.015-3.751 0-.142.045-.222.164-.294a467 467 0 0 0 3.353-2.054l.016-.01.032-.017.016-.008.033-.013.012-.004.028-.005zm5.677 3.126.314.54.346.594v.001c-.158.094-.298.178-.438.259l-3.097 1.798c-.106.062-.189.071-.3.01l-.893-.496-1.524-.843-.895-.493c-.035-.02-.068-.044-.129-.085h.001l.137-.25.495-.902 1.446.795c.442.243.886.483 1.323.734.121.07.212.072.334 0 .894-.525 1.792-1.043 2.689-1.563.057-.034.118-.061.191-.1" data-iconColor="KL"/></svg>