<svg xmlns="http://www.w3.org/2000/svg" xmlns:xlink="http://www.w3.org/1999/xlink" viewBox="0 0 128 128"><defs><linearGradient id="b" x1="50%" x2="50%" y1="0%" y2="100%"><stop offset="0%" stop-color="#f0fbee"/><stop offset="100%" stop-color="#b1e2f7"/></linearGradient><linearGradient id="f" x1="80.797%" x2="16.842%" y1="17.938%" y2="83.862%"><stop offset="0%" stop-color="#8333ff"/><stop offset="100%" stop-color="#2d2df0"/></linearGradient><linearGradient id="i" x1="77.514%" x2="18.075%" y1="10.345%" y2="87.056%"><stop offset="0%" stop-color="#0ab4ff"/><stop offset="100%" stop-color="#0a51d0"/></linearGradient><linearGradient id="l" x1="92.831%" x2="11.074%" y1="28.169%" y2="75.209%"><stop offset="0%" stop-color="#37fbb3"/><stop offset="100%" stop-color="#2184dc"/></linearGradient><linearGradient id="o" x1="56.876%" x2="56.876%" y1="0%" y2="91.235%"><stop offset="0%" stop-color="#fff"/><stop offset="100%" stop-color="#fff" stop-opacity=".769"/></linearGradient><linearGradient id="p" x1="53.569%" x2="53.569%" y1="3.289%" y2="102.766%"><stop offset="0%" stop-color="#fff" stop-opacity=".3"/><stop offset="100%" stop-color="#bfced6" stop-opacity=".138"/></linearGradient><linearGradient id="s" x1="50%" x2="50%" y1="0%" y2="100%"><stop offset="0%" stop-color="#fff"/><stop offset="100%" stop-color="#d1eae4"/><stop offset="100%" stop-color="#edf2de"/></linearGradient><linearGradient id="t" x1="50%" x2="50%" y1="6.026%" y2="100%"><stop offset="0%" stop-color="#577fb3"/><stop offset="100%" stop-color="#192469"/></linearGradient><filter id="a" width="131.6%" height="131.6%" x="-14.9%" y="-14.9%" filterUnits="objectBoundingBox"><feOffset dy="2" in="SourceAlpha" result="shadowOffsetOuter1"/><feGaussianBlur in="shadowOffsetOuter1" result="shadowBlurOuter1" stdDeviation="3"/><feColorMatrix in="shadowBlurOuter1" result="shadowMatrixOuter1" values="0 0 0 0 0 0 0 0 0 0 0 0 0 0 0 0 0 0 0.2 0"/><feMerge><feMergeNode in="shadowMatrixOuter1"/><feMergeNode in="SourceGraphic"/></feMerge></filter><filter id="d" width="130%" height="130%" x="-15%" y="-9%" filterUnits="objectBoundingBox"><feOffset dy="3" in="SourceAlpha" result="shadowOffsetOuter1"/><feGaussianBlur in="shadowOffsetOuter1" result="shadowBlurOuter1" stdDeviation="2"/><feColorMatrix in="shadowBlurOuter1" values="0 0 0 0 0 0 0 0 0 0.0350400191 0 0 0 0 0.298035553 0 0 0 0.15 0"/></filter><filter id="h" width="130%" height="130%" x="-15%" y="-9%" filterUnits="objectBoundingBox"><feOffset dy="3" in="SourceAlpha" result="shadowOffsetOuter1"/><feGaussianBlur in="shadowOffsetOuter1" result="shadowBlurOuter1" stdDeviation="2"/><feColorMatrix in="shadowBlurOuter1" values="0 0 0 0 0 0 0 0 0 0.0350400191 0 0 0 0 0.298035553 0 0 0 0.15 0"/></filter><filter id="k" width="130%" height="130%" x="-15%" y="-9%" filterUnits="objectBoundingBox"><feOffset dy="3" in="SourceAlpha" result="shadowOffsetOuter1"/><feGaussianBlur in="shadowOffsetOuter1" result="shadowBlurOuter1" stdDeviation="2"/><feColorMatrix in="shadowBlurOuter1" values="0 0 0 0 0.0715196752 0 0 0 0 0.236045063 0 0 0 0 0.181359068 0 0 0 0.15 0"/></filter><filter id="n" width="114.4%" height="144.9%" x="-7.2%" y="-14.3%" filterUnits="objectBoundingBox"><feOffset dy="2" in="SourceAlpha" result="shadowOffsetOuter1"/><feGaussianBlur in="shadowOffsetOuter1" result="shadowBlurOuter1" stdDeviation="1.5"/><feColorMatrix in="shadowBlurOuter1" values="0 0 0 0 0 0 0 0 0 0 0 0 0 0 0 0 0 0 0.1 0"/></filter><filter id="r" width="128.9%" height="128.9%" x="-16.7%" y="-16.7%" filterUnits="objectBoundingBox"><feOffset dx="-1" dy="-1" in="SourceAlpha" result="shadowOffsetOuter1"/><feGaussianBlur in="shadowOffsetOuter1" result="shadowBlurOuter1" stdDeviation="2"/><feColorMatrix in="shadowBlurOuter1" values="0 0 0 0 0 0 0 0 0 0 0 0 0 0 0 0 0 0 0.1 0"/></filter><circle id="c" cx="25.5" cy="25.25" r="25"/><circle id="g" cx="48.5" cy="25.25" r="25"/><circle id="j" cx="71.5" cy="25.25" r="25"/><circle id="q" cx="22.5" cy="22.5" r="22.5"/><path id="m" d="M24 65v-4l3.526-3.737 5.187 9.227a1 1 0 0 0 .872.51h6.094a.75.75 0 0 0 .644-1.134l-8.11-13.583 7.59-8.017A.75.75 0 0 0 39.256 43H33.43a1 1 0 0 0-.726.312L24 52.5V45a2 2 0 0 0-2-2h-3a2 2 0 0 0-2 2v20a2 2 0 0 0 2 2h3a2 2 0 0 0 2-2m25 .5V50l4.444 15.904A1.5 1.5 0 0 0 54.888 67h2.924a1.5 1.5 0 0 0 1.46-1.156L63 50v15.5a1.5 1.5 0 0 0 1.5 1.5h3a1.5 1.5 0 0 0 1.5-1.5V45a2 2 0 0 0-2-2h-5.434a2 2 0 0 0-1.942 1.52l-3.28 13.261-3.455-13.284A2 2 0 0 0 50.954 43H45a2 2 0 0 0-2 2v20.5a1.5 1.5 0 0 0 1.5 1.5h3a1.5 1.5 0 0 0 1.5-1.5m34.25 2c2.219 0 3.932-.68 5.39-1.32q2.188-.96 3.407-2.82a7.26 7.26 0 0 0 1.219-4.063q0-1.875-.914-3.39-.915-1.517-2.922-2.54-1.913-.974-6.213-1.928l-.436-.095q-1.874-.39-2.375-.844-.516-.438-.515-.984 0-.75.625-1.274.624-.523 1.859-.523 1.365 0 2.191.58l.16.123c.329.27.642.41.883.82a6 6 0 0 1 .128.23 1 1 0 0 0 .883.528h4.377a1 1 0 0 0 1-1l-.002-.066q-.061-.928-.34-1.517c-.458-.968-1.084-1.766-1.882-2.331-1.536-1.089-3.596-1.836-6.523-1.836-2.385 0-4.435.503-5.805 1.102q-2.055.898-3.078 2.468-1.023 1.571-1.023 3.336 0 2.688 2 4.422 1.894 1.656 6.223 2.685l.417.096q2.844.626 3.625 1.328.782.704.782 1.594 0 .938-.82 1.649c-.548.474-1.436.57-2.446.57-1.354 0-2.286-.323-3.016-1.25a3.8 3.8 0 0 1-.434-.683q-.123-.255-.26-.806a1 1 0 0 0-.97-.761h-4.779a1 1 0 0 0-.984 1.176l.086.45q.088.416.175.704c.42 1.368 1.114 2.586 2.088 3.56 1.5 1.5 4.323 2.61 8.219 2.61"/></defs><g fill="none" fill-rule="evenodd" filter="url(#a)" transform="translate(9 8)"><rect width="110" height="110" fill="url(#b)" rx="24.5"/><path fill="#000" fill-opacity=".04" fill-rule="nonzero" d="M85.5-1h-61C10.417-1-1 10.417-1 24.5v61C-1 99.583 10.417 111 24.5 111h61c14.083 0 25.5-11.417 25.5-25.5v-61C111 10.417 99.583-1 85.5-1m0 1C99.031 0 110 10.969 110 24.5v61c0 13.531-10.969 24.5-24.5 24.5h-61C10.969 110 0 99.031 0 85.5v-61C0 10.969 10.969 0 24.5 0z"/><g fill-rule="nonzero" opacity=".704" transform="translate(6.5 29.75)"><use xlink:href="#c" fill="#000" filter="url(#d)"/><use xlink:href="#c" fill="url(#f)"/></g><g fill-rule="nonzero" opacity=".86" transform="translate(6.5 29.75)"><use xlink:href="#g" fill="#000" filter="url(#h)"/><use xlink:href="#g" fill="url(#i)"/></g><g opacity=".855" transform="translate(6.5 29.75)"><use xlink:href="#j" fill="#000" filter="url(#k)"/><use xlink:href="#j" fill="url(#l)"/></g><g fill-rule="nonzero"><use xlink:href="#m" fill="#000" filter="url(#n)"/><use xlink:href="#m" fill="url(#o)"/></g><path fill="url(#p)" fill-rule="nonzero" d="M83.25 43.25c2.927 0 4.987.747 6.523 1.836.798.565 1.424 1.363 1.882 2.331q.24.505.318 1.259l.022.258.002.066a1 1 0 0 1-.883.993l-.117.007H86.62a1 1 0 0 1-.883-.529 6 6 0 0 0-.128-.229c-.207-.352-.466-.504-.743-.71l-.3-.232q-.745-.523-1.924-.575l-.267-.006q-1.234 0-1.86.523-.624.525-.624 1.274 0 .546.515.984.464.42 2.114.788l.697.151q4.3.954 6.213 1.928 2.007 1.023 2.922 2.54.914 1.515.914 3.39a7.26 7.26 0 0 1-1.22 4.062q-1.218 1.86-3.405 2.82c-1.368.601-2.96 1.236-4.98 1.313l-.411.008c-3.896 0-6.719-1.11-8.219-2.61-.974-.974-1.667-2.192-2.088-3.56a7 7 0 0 1-.131-.504l-.044-.2-.086-.45a1 1 0 0 1 .868-1.17l.116-.006h4.778a1 1 0 0 1 .971.761q.137.552.26.806c.121.248.265.466.434.683.73.927 1.662 1.25 3.016 1.25 1.01 0 1.898-.096 2.445-.57q.82-.711.82-1.649 0-.89-.78-1.593-.736-.663-3.298-1.255l-.745-.17q-4.329-1.029-6.223-2.685-2-1.734-2-4.422 0-1.766 1.023-3.336 1.024-1.57 3.078-2.468c1.29-.564 3.18-1.043 5.388-1.097zM24 61v4a2 2 0 0 1-1.85 1.995L22 67h-3a2 2 0 0 1-1.995-1.85L17 65V45a2 2 0 0 1 1.85-1.995L19 43h3a2 2 0 0 1 1.995 1.85L24 45v7.5l8.704-9.188a1 1 0 0 1 .61-.305L33.43 43h5.827a.75.75 0 0 1 .615 1.18l-.07.086-7.589 8.017 8.11 13.583a.75.75 0 0 1-.543 1.127l-.1.007h-6.094a1 1 0 0 1-.807-.41l-.065-.1-5.187-9.227zm35.272 4.844a1.5 1.5 0 0 1-1.322 1.15l-.138.006h-2.924a1.5 1.5 0 0 1-1.4-.96l-.044-.136L49 50v15.5a1.5 1.5 0 0 1-1.356 1.493L47.5 67h-3a1.5 1.5 0 0 1-1.493-1.356L43 65.5V45a2 2 0 0 1 1.85-1.995L45 43h5.954a2 2 0 0 1 1.889 1.344l.046.153 3.455 13.284 3.28-13.261a2 2 0 0 1 1.78-1.514l.162-.006H67a2 2 0 0 1 1.995 1.85L69 45v20.5a1.5 1.5 0 0 1-1.356 1.493L67.5 67h-3a1.5 1.5 0 0 1-1.493-1.356L63 65.5V50zM83.25 44.25c-2.043 0-3.982.396-5.404 1.018-1.199.524-2.07 1.223-2.641 2.098-.578.887-.861 1.81-.861 2.79 0 1.503.542 2.701 1.658 3.67 1.063.928 2.863 1.728 5.385 2.364l.405.098.407.095c2.06.452 3.388.939 4.08 1.561.722.65 1.112 1.446 1.112 2.337 0 .928-.408 1.748-1.166 2.404-.724.628-1.66.815-3.1.815-1.7 0-2.892-.475-3.803-1.634a4.8 4.8 0 0 1-.545-.86c-.1-.205-.19-.468-.28-.799L78.445 60l-4.778-.001.081.422.078.342q.038.154.074.273c.383 1.246 1.003 2.311 1.84 3.148 1.412 1.412 4.096 2.316 7.511 2.316 1.701 0 3.02-.371 4.988-1.236 1.285-.564 2.268-1.378 2.973-2.453a6.26 6.26 0 0 0 1.055-3.514c0-1.07-.257-2.022-.77-2.874-.507-.84-1.34-1.563-2.52-2.165-1.121-.571-2.976-1.159-5.539-1.744l-.433-.098-.427-.093c-1.42-.296-2.333-.62-2.818-1.06-.555-.472-.868-1.07-.868-1.747 0-.804.344-1.506.983-2.04.62-.52 1.463-.757 2.501-.757 1.01 0 1.875.207 2.602.657l.195.128.382.292.077.056c.385.28.617.505.84.883l.073.128.076.137h4.377c-.033-.502-.12-.888-.246-1.155-.397-.84-.92-1.493-1.556-1.943-1.519-1.076-3.431-1.652-5.945-1.652M22 44h-3a1 1 0 0 0-.993.883L18 45v20a1 1 0 0 0 .883.993L19 66h3a1 1 0 0 0 .993-.883L23 65v-4.397l4.732-5.016L33.585 66h5.653l-8.271-13.854L38.676 44H33.43L23 55.01V45a1 1 0 0 0-.77-.974l-.113-.02zm45 0h-3v21.5a.5.5 0 0 0 .41.492l.09.008h3a.5.5 0 0 0 .492-.41L68 65.5V45a1 1 0 0 0-1-1m-16.046 0h-2.592l6.045 21.635a.5.5 0 0 0 .399.358l.082.007h2.924a.5.5 0 0 0 .46-.304l.027-.081L63.384 44h-1.818a1 1 0 0 0-.938.651l-.033.109-4.227 17.088-4.447-17.1a1 1 0 0 0-.967-.748M48 44h-3a1 1 0 0 0-.993.883L44 45v20.5a.5.5 0 0 0 .41.492l.09.008h3a.5.5 0 0 0 .492-.41L48 65.5z"/><g fill-rule="nonzero" transform="translate(69 69)"><use xlink:href="#q" fill="#000" filter="url(#r)"/><use xlink:href="#q" fill="url(#s)"/><path fill="url(#t)" d="M17.242 15a4.5 4.5 0 1 1 .502-4h11.7a7.057 7.057 0 0 1 7.056 7.057c0 3.818-3.032 6.814-6.82 6.94l-.237.003h-13.5C14.318 25 13 26.431 13 28.057a2.943 2.943 0 0 0 2.77 2.938l.173.005H30v-3.5a.5.5 0 0 1 .057-.232l.043-.068a.5.5 0 0 1 .7-.1l6.667 5a.5.5 0 0 1 0 .8l-6.667 5a.5.5 0 0 1-.8-.4V35H15.943A6.943 6.943 0 0 1 9 28.057c0-3.755 2.98-6.927 6.704-7.053l.24-.004h13.5c1.687 0 3.056-1.255 3.056-2.943a3.057 3.057 0 0 0-2.877-3.052l-.18-.005Z"/></g></g></svg>