<svg xmlns="http://www.w3.org/2000/svg" viewBox="0 0 64 64"><path d="M9.778 12A2.757 2.757 0 0 0 7 14.75v32.5C7 48.774 8.24 50 9.778 50H35l5 6 5-6h9.224A2.757 2.757 0 0 0 57 47.25v-32.5A2.76 2.76 0 0 0 54.22 12z" opacity=".2"/><path fill="#4f4f4f" d="M9.778 11A2.757 2.757 0 0 0 7 13.75v32.5C7 47.774 8.24 49 9.778 49H35l5 6 5-6h9.224A2.757 2.757 0 0 0 57 46.25v-32.5A2.76 2.76 0 0 0 54.22 11z"/><path fill="#fff" d="M9.777 11A2.76 2.76 0 0 0 7 13.75v1A2.76 2.76 0 0 1 9.777 12h44.446A2.757 2.757 0 0 1 57 14.75v-1A2.757 2.757 0 0 0 54.223 11z" opacity=".1"/><circle cx="16.5" cy="20.5" r="15.5" opacity=".2"/><circle cx="16.5" cy="19.5" r="15.5" fill="#4daaf5"/><path fill="#fff" d="M15 10v13h3V10zm0 15v3h3v-3z"/></svg>