<svg xmlns="http://www.w3.org/2000/svg" viewBox="0 0 64 64"><path d="M30.046 21.918A14 14 0 0 0 30 23a14 14 0 0 0 14 14 14 14 0 0 0 14-14 14 14 0 0 0-.046-.918A14 14 0 0 1 44 35a14 14 0 0 1-13.954-13.082m-24 20A14 14 0 0 0 6 43a14 14 0 0 0 14 14 14 14 0 0 0 14-14 14 14 0 0 0-.046-.918A14 14 0 0 1 19.997 55 14 14 0 0 1 6.044 41.918Z" opacity=".2"/><path fill="#f23737" d="M44 8a14 14 0 0 0-14 14 14 14 0 0 0 14 14 14 14 0 0 0 14-14A14 14 0 0 0 44 8"/><path fill="#37a0f2" d="M20 28A14 14 0 0 0 6 42a14 14 0 0 0 14 14 14 14 0 0 0 14-14 14 14 0 0 0-14-14"/><path fill="#fff" d="M44 8a14 14 0 0 0-14 14 14 14 0 0 0 .021.41A14 14 0 0 1 44 9a14 14 0 0 1 13.977 13.547A14 14 0 0 0 58 22 14 14 0 0 0 44 8M20 28A14 14 0 0 0 6 42a14 14 0 0 0 .021.41A14 14 0 0 1 20 29a14 14 0 0 1 13.977 13.547A14 14 0 0 0 34 42a14 14 0 0 0-14-14" opacity=".2"/></svg>