<svg xmlns="http://www.w3.org/2000/svg" viewBox="0 0 64 64"><path d="M4 56v2c0 2.474 1.366 3.572 2.965 3.886L6.8 62h50.398l-.191-.133C59.968 61.242 60 58 60 58v-2s-.032 3.242-2.992 3.867L57.2 60H6.802l.164-.114C5.366 59.571 4 58.473 4 56" opacity=".2"/><path fill="#fe9700" d="M5.274 22.655c-.057.037-.11.081-.164.123l-.033.024v.004A2.78 2.78 0 0 0 4 25.002v24.397c0 4 3.154 4 4 4h47.998s4 0 4-4V25.002c0-.917-.444-1.721-1.12-2.231l.011-.016L32 3.003S5.11 22.78 5.275 22.657z"/><path fill="#fff" d="M31.998 3.006c-.003.002-26.889 19.774-26.725 19.65v-.004c-.057.038-.11.085-.164.127l-.03.022v.004A2.78 2.78 0 0 0 4 25v1c0-.896.426-1.683 1.078-2.195V23.8l.031-.024c.055-.042.107-.087.164-.125v.004c-.164.124 26.722-19.65 26.725-19.652H32l26.889 19.75-.014.016A2.78 2.78 0 0 1 59.998 26v-1c0-.918-.445-1.719-1.123-2.229l.014-.017L32 3.006z" opacity=".1"/><rect width="43.999" height="35.999" x="10" y="9" fill="#ebebeb" rx="3" ry="2.998"/><path fill="#fec006" d="m4 25 52 36H8c-2 0-4-.99-4-3.957Z"/><path fill="#fecd38" d="M55.999 61c4 0 4-3.957 4-3.957V25L8 61z"/><path fill="#848484" d="m32 15-8 10h4v9c0 .652.366 1 1 1h6c.632 0 1-.348 1-1v-9h4z"/></svg>