<svg xmlns="http://www.w3.org/2000/svg" viewBox="0 0 22 22"><path fill="currentColor" d="M15 4 3 7.418v6.164l1 .285v2.434l6 1.7v-2.425L15 17V5.043zm4.03.428-.772.63A11 11 0 0 1 20 10.998a11 11 0 0 1-1.75 5.932l.783.642A12 12 0 0 0 21 10.998a12 12 0 0 0-1.97-6.57m-5.03.9v10.344L4 12.824V8.176zm2.69 1.016-.782.639A8 8 0 0 1 17 10.998a8 8 0 0 1-1.09 4.018l.781.64A9 9 0 0 0 18 10.998a9 9 0 0 0-1.31-4.654M2 7.704l-1 .284v5.024l1 .285zm3 6.449 4 1.138v1.426l-4-1.133z" color="#d3dae3"/><path fill="none" d="M0 0h22v22H0z"/></svg>