<svg xmlns="http://www.w3.org/2000/svg" xmlns:xlink="http://www.w3.org/1999/xlink" viewBox="0 0 64 64"><defs><path id="a" fill="#42a5f5" d="M13.5 47h9s1.5 0 1.5 1.5-1.5 1.5-1.5 1.5h-9S12 50 12 48.5s1.5-1.5 1.5-1.5m0-13h9s1.5 0 1.5 1.5-1.5 1.5-1.5 1.5h-9s-1.5.1-1.5-1.5c0-1.5 1.5-1.5 1.5-1.5m0-26h9S24 8 24 9.5 22.5 11 22.5 11h-9s-1.5.1-1.5-1.5C12 8 13.5 8 13.5 8"/><path id="b" fill="#1e88e5" d="M29.5 53h13s1.5 0 1.5 1.5-1.5 1.5-1.5 1.5h-13S28 56 28 54.5s1.5-1.5 1.5-1.5m0-6h21s1.5 0 1.5 1.5-1.5 1.5-1.5 1.5h-21s-1.5.1-1.5-1.5c0-1.5 1.5-1.5 1.5-1.5m0-7h13s1.5 0 1.5 1.5-1.5 1.5-1.5 1.5h-13S28 43 28 41.5s1.5-1.5 1.5-1.5m0-6h21s1.5 0 1.5 1.5-1.5 1.5-1.5 1.5h-21s-1.5.1-1.5-1.5c0-1.5 1.5-1.5 1.5-1.5m0-20h13s1.5 0 1.5 1.5-1.5 1.5-1.5 1.5h-13S28 17 28 15.5s1.5-1.5 1.5-1.5m0-6h21S52 8 52 9.5 50.5 11 50.5 11h-21s-1.5.1-1.5-1.5C28 8 29.5 8 29.5 8"/></defs><rect width="48" height="56" x="8" y="5" opacity=".2" rx="3.2" ry="3.2"/><rect width="48" height="56" x="8" y="4" fill="#ccc" rx="3.2" ry="3.2"/><path fill="#fff" d="M11.199 4A3.19 3.19 0 0 0 8 7.2v1A3.19 3.19 0 0 1 11.199 5h41.602A3.19 3.19 0 0 1 56 8.2v-1A3.19 3.19 0 0 0 52.801 4z" opacity=".2"/><path d="M29.5 54h13s1.5 0 1.5 1.5-1.5 1.5-1.5 1.5h-13S28 57 28 55.5s1.5-1.5 1.5-1.5m0-6h21s1.5 0 1.5 1.5-1.5 1.5-1.5 1.5h-21s-1.5.1-1.5-1.5c0-1.5 1.5-1.5 1.5-1.5m0-7h13s1.5 0 1.5 1.5-1.5 1.5-1.5 1.5h-13S28 44 28 42.5s1.5-1.5 1.5-1.5m0-6h21s1.5 0 1.5 1.5-1.5 1.5-1.5 1.5h-21s-1.5.1-1.5-1.5c0-1.5 1.5-1.5 1.5-1.5m0-20h13s1.5 0 1.5 1.5-1.5 1.5-1.5 1.5h-13S28 18 28 16.5s1.5-1.5 1.5-1.5m0-6h21S52 9 52 10.5 50.5 12 50.5 12h-21s-1.5.1-1.5-1.5C28 9 29.5 9 29.5 9m-16 39h9s1.5 0 1.5 1.5-1.5 1.5-1.5 1.5h-9S12 51 12 49.5s1.5-1.5 1.5-1.5m0-13h9s1.5 0 1.5 1.5-1.5 1.5-1.5 1.5h-9s-1.5.1-1.5-1.5c0-1.5 1.5-1.5 1.5-1.5m0-26h9S24 9 24 10.5 22.5 12 22.5 12h-9s-1.5.1-1.5-1.5C12 9 13.5 9 13.5 9m16 45h13s1.5 0 1.5 1.5-1.5 1.5-1.5 1.5h-13S28 57 28 55.5s1.5-1.5 1.5-1.5m0-6h21s1.5 0 1.5 1.5-1.5 1.5-1.5 1.5h-21s-1.5.1-1.5-1.5c0-1.5 1.5-1.5 1.5-1.5m0-7h13s1.5 0 1.5 1.5-1.5 1.5-1.5 1.5h-13S28 44 28 42.5s1.5-1.5 1.5-1.5m0-6h21s1.5 0 1.5 1.5-1.5 1.5-1.5 1.5h-21s-1.5.1-1.5-1.5c0-1.5 1.5-1.5 1.5-1.5m0-20h13s1.5 0 1.5 1.5-1.5 1.5-1.5 1.5h-13S28 18 28 16.5s1.5-1.5 1.5-1.5m0-6h21S52 9 52 10.5 50.5 12 50.5 12h-21s-1.5.1-1.5-1.5C28 9 29.5 9 29.5 9m0 19h13s1.5 0 1.5 1.5-1.5 1.5-1.5 1.5h-13S28 31 28 29.5s1.5-1.5 1.5-1.5m0-6h21s1.5 0 1.5 1.5-1.5 1.5-1.5 1.5h-21s-1.5.1-1.5-1.5c0-1.5 1.5-1.5 1.5-1.5m-16 26h9s1.5 0 1.5 1.5-1.5 1.5-1.5 1.5h-9S12 51 12 49.5s1.5-1.5 1.5-1.5m0-13h9s1.5 0 1.5 1.5-1.5 1.5-1.5 1.5h-9s-1.5.1-1.5-1.5c0-1.5 1.5-1.5 1.5-1.5m0-26h9S24 9 24 10.5 22.5 12 22.5 12h-9s-1.5.1-1.5-1.5C12 9 13.5 9 13.5 9m0 13h9s1.5 0 1.5 1.5-1.5 1.5-1.5 1.5h-9s-1.5.1-1.5-1.5c0-1.5 1.5-1.5 1.5-1.5" opacity=".1"/><path fill="#e64a19" d="M13.5 21h9s1.5 0 1.5 1.5-1.5 1.5-1.5 1.5h-9s-1.5.1-1.5-1.5c0-1.5 1.5-1.5 1.5-1.5"/><use xlink:href="#a"/><path fill="#bf360c" d="M29.5 27h13s1.5 0 1.5 1.5-1.5 1.5-1.5 1.5h-13S28 30 28 28.5s1.5-1.5 1.5-1.5m0-6h21s1.5 0 1.5 1.5-1.5 1.5-1.5 1.5h-21s-1.5.1-1.5-1.5c0-1.5 1.5-1.5 1.5-1.5"/><use xlink:href="#b"/><use xlink:href="#a"/><use xlink:href="#b"/><circle cx="32" cy="24" r="16" fill="#fff" opacity=".3"/><path d="M32 7c9.9 0 18 8.1 18 18s-8.1 18-18 18-18-8.1-18-18S22.1 7 32 7m0 4c-7.7 0-14 6.2-14 14 0 7.7 6.3 14 14 14s14-6.3 14-14c0-7.8-6.3-14-14-14" opacity=".1"/><path fill="#4f4f4f" d="M32 6c9.9 0 18 8.1 18 18s-8.1 18-18 18-18-8.1-18-18S22.1 6 32 6m0 4c-7.7 0-14 6.2-14 14 0 7.7 6.3 14 14 14s14-6.3 14-14c0-7.8-6.3-14-14-14"/></svg>