<svg xmlns="http://www.w3.org/2000/svg" viewBox="0 0 64 64"><circle cx="32" cy="33" r="28" opacity=".2"/><circle cx="32" cy="32" r="28" fill="#604d97"/><path fill="#fff" d="M32 4A28 28 0 0 0 4 32a28 28 0 0 0 .021.586A28 28 0 0 1 32 5a28 28 0 0 1 27.979 27.414L60 32A28 28 0 0 0 32 4" opacity=".1"/><path d="M32 22s-1 1-2 3c-2.608 5.215-5 11-11 11-7 0-11-5-11-5s1 13 12 13c8 0 12-5 12-5s4 5 12 5c11 0 12-13 12-13s-4 5-11 5c-6 0-8.392-5.785-11-11-1-2-2-3-2-3" opacity=".2"/><path fill="#e3c4fb" d="M32 21s-1 1-2 3c-2.608 5.215-5 11-11 11-7 0-11-5-11-5s1 13 12 13c8 0 12-5 12-5s4 5 12 5c11 0 12-13 12-13s-4 5-11 5c-6 0-8.392-5.785-11-11-1-2-2-3-2-3" style="font-variant-east_asian:normal"/></svg>