<svg xmlns="http://www.w3.org/2000/svg" viewBox="0 0 16.933 16.933"><path fill="#fff" fill-opacity=".976" stroke="#000" stroke-opacity=".268" stroke-width=".529" d="M3.175 2.38c-.293 0-.265.264-.265.53H1.852c-.265 0-.265 0-.265.264V8.73c0 .293.237.53.53.53h12.7a.53.53 0 0 0 .529-.53V3.174c0-.265 0-.265-.265-.265H7.673c0-.265.028-.53-.265-.53z" paint-order="markers stroke fill"/><path fill="#fff" fill-opacity=".976" d="M3.175 2.38c-.293 0-.265.264-.265.53H1.852c-.265 0-.265 0-.265.264V8.73c0 .293.237.53.53.53h12.7a.53.53 0 0 0 .529-.53V3.174c0-.265 0-.265-.265-.265H7.673c0-.265.028-.53-.265-.53z" paint-order="markers stroke fill"/><path fill="none" stroke="#003779" stroke-opacity=".561" stroke-width=".529" d="M8.467 4.23c-.293 0-.382.276-.53.53l-.308.528H.794c-.265 0-.265.265-.265.265v8.996c0 .264.265.264.265.264H16.14c.264 0 .264-.264.264-.264V4.495c0-.265-.264-.265-.264-.265z" paint-order="markers stroke fill"/><path fill="#6ba4e7" d="M8.467 4.23c-.293 0-.382.276-.53.53l-.308.528H.794c-.265 0-.265.265-.265.265v8.996c0 .264.265.264.265.264H16.14c.264 0 .264-.264.264-.264V4.495c0-.265-.264-.265-.264-.265z" paint-order="markers stroke fill"/><path fill="#3d6fab" stroke="#f2f2f2" stroke-linejoin="round" stroke-width=".529" d="M8.229 10.939c-.304.225-.769.959-.914.672-.072-.041-.188-3.331-.03-3.458.139-.11 3.154 1.733 3.011 1.925-.018.197-.704.259-1.056.39l.76 1.258-.944.524z" paint-order="stroke fill markers"/></svg>