<svg xmlns="http://www.w3.org/2000/svg" viewBox="0 0 64 64"><rect width="56" height="56" x="4" y="5" opacity=".2" rx="4.2" ry="4.2"/><rect width="56" height="56" x="4" y="4" fill="#533f3f" rx="4.2" ry="4.2"/><path d="M54 54.988 43.001 44v10.988z" opacity=".2"/><path fill="#008052" d="M54 53.988 43.001 43v10.988z"/><path d="m43 33 11-11H43Z" opacity=".2"/><path fill="#005680" d="m43 32 11-11H43Z"/><path fill="#f02e00" d="M21 19.4h11v25.2H21z"/><path d="m10 11 22 22V11Z" opacity=".2"/><path fill="#ffb900" d="m10 10 22 22V10Z"/><path d="M32 33 10 55h22z" opacity=".2"/><path fill="#ff8900" d="M32 32 10 54h22z"/><path fill="#006c80" d="M54 43 43 32v11z"/><path d="M43 44.012 53.999 55V44.012Z" opacity=".2"/><path fill="#00aa80" d="M43 43.012 53.999 54V43.012Z"/><path d="M43 22 32 33h11z" opacity=".2"/><path fill="#008900" d="M43 21 32 32h11z"/><path d="M54 11 43 22h11z" opacity=".2"/><path fill="teal" d="M54 10 43 21h11z"/><path fill="#fff" d="M8.2 4A4.19 4.19 0 0 0 4 8.2v1A4.19 4.19 0 0 1 8.2 5h47.6A4.19 4.19 0 0 1 60 9.2v-1A4.19 4.19 0 0 0 55.8 4z" opacity=".1"/><path fill="#fff" d="m10 10 1 1h21v-1zm44 0L43 21h1l10-10zM43 21 32 32h1l10-10zM31.5 32.5 10 54h1l21-21zM43 43.012l1 1h9.998v-1z" opacity=".2"/><path fill="#fff" d="M43 32v1l10 10h1z" opacity=".1"/></svg>