<svg xmlns="http://www.w3.org/2000/svg" viewBox="0 0 64 64"><rect width="56" height="56" x="4" y="5" opacity=".2" rx="2.8" ry="2.8"/><rect width="56" height="56" x="4" y="4" fill="#8e8e8e" rx="2.8" ry="2.8"/><path fill="none" stroke="#3f3f3f" stroke-width="4" d="M12 39h20V25h20"/><path d="M32 22a4 4 0 1 0 0 8 4 4 0 0 0 0-8m20 0a4 4 0 1 0 0 8 4 4 0 0 0 0-8M12 36a4 4 0 1 0 0 8 4 4 0 0 0 0-8m20 0a4 4 0 1 0 0 8 4 4 0 0 0 0-8" opacity=".2"/><path fill="#fff" d="M32 21a4 4 0 1 0 0 8 4 4 0 0 0 0-8m20 0a4 4 0 1 0 0 8 4 4 0 0 0 0-8M12 35a4 4 0 1 0 0 8 4 4 0 0 0 0-8m20 0a4 4 0 1 0 0 8 4 4 0 0 0 0-8"/><path fill="#fff" d="M6.8 4C5.25 4 4 5.25 4 6.8v1C4 6.25 5.25 5 6.8 5h50.4C58.75 5 60 6.25 60 7.8v-1C60 5.25 58.75 4 57.2 4z" opacity=".1"/></svg>