<svg xmlns="http://www.w3.org/2000/svg" viewBox="0 0 24 24"><path fill="#303030" d="m7.525 4 2.903 1.28a11.5 11.5 0 0 1-1.801 2.534L4.818 4.02h-.806v.949l3.722 3.705a11.5 11.5 0 0 1-2.375 1.594l-.79-1.786-.54-1.255-.013 3.023.224.506c-.081.03-.158.07-.24.1v1.308c.253-.079.494-.185.74-.28l1.936 4.366c-.862.335-1.754.615-2.676.814v1.27c1.1-.222 2.158-.551 3.178-.957l1.135 2.562h1.332l-1.35-3.046a18.7 18.7 0 0 0 4.588-3.092l3.424 3.408A23.7 23.7 0 0 1 12.67 20h2.22a25 25 0 0 0 2.294-1.92l1.867 1.86.888.01.006-.856-1.884-1.877A25 25 0 0 0 20 14.987v-2.15a23.6 23.6 0 0 1-2.812 3.509l-3.42-3.408a18.7 18.7 0 0 0 3.308-4.733l2.86 1.26.003-1.346-2.367-1.025c.406-.988.739-2.012.971-3.076h-1.27c-.208.891-.49 1.753-.83 2.586L12.04 4.695c.09-.226.196-.445.274-.677h-1.317c-.024.066-.058.126-.084.191L10.432 4zm4.03 1.775 4.392 1.934a17.5 17.5 0 0 1-3.054 4.357L9.5 8.686a12.8 12.8 0 0 0 2.055-2.91m-2.946 3.77 3.399 3.383a17.5 17.5 0 0 1-4.215 2.834l-1.934-4.367c1-.497 1.92-1.12 2.75-1.85"/></svg>