<svg xmlns="http://www.w3.org/2000/svg" viewBox="0 0 24 24"><g fill="#303030"><path d="m15 3.861 5 5-7.176 5.4a5 5 0 0 0-.144-.404c.2.51.32 1.062.32 1.643a4.5 4.5 0 0 1-1.32 3.18 4.5 4.5 0 0 1-.785.629l-2.096-2.096-1.903 1.394a3.5 3.5 0 0 1-1.505-1.502l1.396-1.904-2.094-2.094A4.5 4.5 0 0 1 8.5 11a4.5 4.5 0 0 1 1.236.178L15 4zM6.641 17.15l.248.265 1.994-1.47q2.055 1.978 2.1 2.018 1.48-1.497.79-3.716l.778-.328-.297-.437 6.235-4.733-3.307-3.27-4.619 6.296-.409-.289q-.136.226-.348.805-2.1-.891-3.786.726l2.064 2.096z"/><path d="m6.914 4.086 3.672 3.672-2.828 2.828-3.672-3.67zm-1.41 2.843 2.272 2.237 1.41-1.431L6.895 5.52zm10.738 6.485 3.672 3.672-2.828 2.83-3.672-3.672zm-1.397 2.846 2.27 2.233 1.37-1.381-2.24-2.274zM4.748 17.914 4 19.014l1 1 1.02-.748a4.5 4.5 0 0 1-1.272-1.272z"/></g></svg>