<svg xmlns="http://www.w3.org/2000/svg" viewBox="0 0 64 64"><path fill="none" stroke="#000" stroke-linecap="round" stroke-linejoin="round" stroke-width="6" d="M26 47 14 58m12 0V28.8" opacity=".2"/><path fill="none" stroke="#9c9c9c" stroke-linecap="round" stroke-linejoin="round" stroke-width="6" d="M26 46 14 57"/><rect width="16.233" height="8.824" x="56.14" y="1.3" opacity=".2" rx="1.794" ry="1.815" transform="matrix(.86072 .50908 -.49098 .87117 0 0)"/><path fill="none" stroke="#757575" stroke-linecap="round" stroke-linejoin="round" stroke-width="6" d="M26 57V27.8"/><rect width="16.233" height="8.824" x="55.65" y=".44" fill="#607582" rx="1.794" ry="1.815" transform="matrix(.86072 .50908 -.49098 .87117 0 0)"/><rect width="22.746" height="12.364" x="36.83" y="-.47" opacity=".2" rx="2.513" ry="2.544" transform="matrix(.86072 .50908 -.49098 .87117 0 0)"/><path fill="#fff" d="M48.55 29.395a1.765 1.765 0 0 0-1.76.902l-2.552 4.523c-.25.443-.281.94-.152 1.393.038-.133.081-.266.152-.393l2.551-4.523a1.765 1.765 0 0 1 1.762-.902c.23.029.458.107.672.234l10.882 6.437c.417.247.697.638.82 1.075a1.84 1.84 0 0 0-.82-2.075L49.223 29.63a1.8 1.8 0 0 0-.672-.234" opacity=".1"/><rect width="22.746" height="12.364" x="36.34" y="-1.33" fill="#4b626d" rx="2.513" ry="2.544" transform="matrix(.86072 .50908 -.49098 .87117 0 0)"/><circle cx="10" cy="12.6" r="7" opacity=".2"/><circle cx="10" cy="11.6" r="7" fill="#00baff"/><path fill="#fff" d="M10 4.602a7 7 0 0 0-7 7 7 7 0 0 0 .02.494A7 7 0 0 1 10 5.602a7 7 0 0 1 6.98 6.488 7 7 0 0 0 .02-.488 7 7 0 0 0-7-7" opacity=".2"/><rect width="30.265" height="16.451" x="11.67" y="-2.51" opacity=".2" rx="3.344" ry="3.385" transform="matrix(.86072 .50908 -.49098 .87117 0 0)"/><path fill="#fff" d="M32.791 18.281a2.48 2.48 0 0 0-2.107 1.282l-3.575 6.34a2.48 2.48 0 0 0-.255 1.736c.047-.25.122-.5.255-.737l3.575-6.34a2.47 2.47 0 0 1 2.468-1.261c.322.041.642.147.942.324l15.254 9.02a2.52 2.52 0 0 1 1.183 1.705c.205-1.044-.231-2.142-1.183-2.705l-15.254-9.02a2.46 2.46 0 0 0-1.303-.344" opacity=".1"/><rect width="30.265" height="16.451" x="11.18" y="-3.37" fill="#37474f" rx="3.344" ry="3.385" transform="matrix(.86072 .50908 -.49098 .87117 0 0)"/><path fill="#fff" d="M12.262 4.008a3.31 3.31 0 0 0-2.645 1.699l-4.754 8.434a3.42 3.42 0 0 0-.394 2.19 3.4 3.4 0 0 1 .394-1.19l4.754-8.434a3.31 3.31 0 0 1 2.645-1.7c.638-.045 1.296.1 1.894.454l20.293 12a3.38 3.38 0 0 1 1.62 2.467c.205-1.349-.393-2.742-1.62-3.467l-20.293-12a3.25 3.25 0 0 0-1.894-.453" opacity=".1"/></svg>