<svg xmlns="http://www.w3.org/2000/svg" viewBox="0 0 24 24"><path fill="#303030" d="M10 6c3.665 0 6.666 2.409 6.969 5.475q.029.199.031.4l-.004.05.004.06h-.008c-.075 2.117-2.287 3.806-4.992 3.806a6.2 6.2 0 0 1-2.24-.418c1.063.986 2.568 1.606 4.24 1.606 3.222 0 4.834-2.284 4.834-5.102S17.222 6.002 14 6.002c3.866 0 6 2.496 6 5.877s-2.134 6.123-6 6.123c-3.742 0-6.788-2.569-6.98-5.799a3 3 0 0 1-.02-.318v-.01c0-2.163 2.239-3.916 5-3.916a6.2 6.2 0 0 1 1.793.266A6.38 6.38 0 0 0 10 6.996c-3.222 0-4.834 2.234-4.834 4.988S6.778 17.75 10 17.75c-3.866 0-6-2.461-6-5.766C4 8.68 6.134 6 10 6m-1.56 7.742q2.763 1.405 4.543.937 1.782-.469 2.766-1.64.633-1.343-.324-3.254-.274-.144-2.241-.77-2.189-.122-3.078.324Q7.1 10.663 8.44 13.742"/></svg>