<svg xmlns="http://www.w3.org/2000/svg" viewBox="0 0 24 24"><g fill="none"><path fill="#536076" d="M12 4a8 8 0 1 0 0 16 8 8 0 0 0 0-16m0 1a7 7 0 1 1 0 14 7 7 0 0 1 0-14"/><path fill="#000" d="m4.035 11.264-.004.07.008-.059q-.001-.006-.004-.011m.98 1.18A7 7 0 0 0 12 19a7 7 0 0 0 6.977-6.547C17.603 13.378 14.987 14 12 14c-2.997-.001-5.616-.627-6.984-1.557M5.08 16c.095.164.19.33.297.486A8 8 0 0 1 5.08 16m13.598.398a8 8 0 0 1-.233.327q.121-.16.233-.327m-13.063.407a8 8 0 0 0 .239.31c-.084-.1-.158-.206-.237-.31zm12.602.226a8 8 0 0 1-.27.305c.09-.1.184-.2.27-.305m-12.096.381c.086.093.17.189.26.277a8 8 0 0 1-.26-.277m11.568.207a8 8 0 0 1-.277.26c.093-.086.189-.17.277-.26m-11.025.328c.1.09.2.184.305.27a8 8 0 0 1-.305-.27m10.451.201a8 8 0 0 1-.31.237c.104-.079.21-.153.31-.237m-9.84.297q.16.121.327.233a8 8 0 0 1-.327-.233m9.211.178a8 8 0 0 1-.486.297c.164-.095.33-.19.486-.297m-6.419 1.132v.003zm.792.155" opacity=".3"/></g></svg>