<svg xmlns="http://www.w3.org/2000/svg" viewBox="0 0 24 24"><path fill="#536076" d="M12.78 6.002a.18.18 0 0 0-.143.044.2.2 0 0 0-.069.141l-.226 2.486c-.01.115.069.218.176.229a5 5 0 0 1 1.771.531.2.2 0 0 0 .149.008.2.2 0 0 0 .11-.105l1.013-2.25a.214.214 0 0 0-.09-.278 7.5 7.5 0 0 0-2.692-.806m-1.864.037a7.6 7.6 0 0 0-2.66.918.216.216 0 0 0-.08.28l1.092 2.208c.034.07.102.11.171.11q.046 0 .09-.024a5 5 0 0 1 1.752-.604c.107-.015.18-.12.166-.234l-.312-2.477c-.015-.114-.113-.193-.219-.177m5.986 1.797a.2.2 0 0 0-.13.076L15.3 9.849a.22.22 0 0 0-.041.153c.005.054.03.105.07.14.483.421.888.923 1.207 1.494a.2.2 0 0 0 .168.102q.052 0 .1-.03l2-1.28a.2.2 0 0 0 .088-.128.22.22 0 0 0-.022-.158 8.4 8.4 0 0 0-1.826-2.262.2.2 0 0 0-.143-.044m-10.04.207a.2.2 0 0 0-.141.05 8.5 8.5 0 0 0-1.744 2.334.23.23 0 0 0-.016.16.2.2 0 0 0 .092.124l2.045 1.199a.185.185 0 0 0 .263-.084 5.6 5.6 0 0 1 1.155-1.543.2.2 0 0 0 .064-.143.22.22 0 0 0-.047-.152L6.994 8.113a.2.2 0 0 0-.133-.07m12.53 3.79-2.224.747c-.102.034-.159.152-.127.261a6 6 0 0 1 .234 1.961.22.22 0 0 0 .051.15.2.2 0 0 0 .135.07l2.328.114h.008c.103 0 .188-.087.193-.199q.01-.207.01-.4c0-.875-.123-1.738-.365-2.567-.032-.11-.14-.17-.242-.136m-8.776 2.64.588 1.182-.027.284a1.01 1.01 0 0 0 .26.806.75.75 0 0 0 .555.255.75.75 0 0 0 .558-.255c.17-.182.264-.426.264-.697s-.095-.517-.264-.698a.75.75 0 0 0-.556-.255h-.043l-.32.02-.273-.172zm-1.878-2.37 3.155 1.994q.048-.003.1-.002c.487 0 .945.204 1.288.573.344.368.533.859.533 1.38 0 .522-.189 1.01-.533 1.38a1.75 1.75 0 0 1-1.289.572 1.75 1.75 0 0 1-1.287-.573 2 2 0 0 1-.523-1.582L8.46 12.388a.23.23 0 0 1 .037-.256.2.2 0 0 1 .115-.058.2.2 0 0 1 .125.03m-4.22.037a.2.2 0 0 0-.149.02.2.2 0 0 0-.09.127 9.2 9.2 0 0 0-.27 2.65c.006.112.091.2.194.2h.01l2.326-.116a.2.2 0 0 0 .135-.068.22.22 0 0 0 .05-.15 6 6 0 0 1 .178-1.753c.028-.11-.033-.225-.136-.256z"/></svg>