<svg xmlns="http://www.w3.org/2000/svg" viewBox="0 0 24 24"><g fill="#303030"><path d="M6.5 8.596h3.33v.639H7.25v1.428h2.438v.64H7.249V13.5H6.5zm4.437-.069c.144 0 .268.042.364.138q.144.134.144.35a.5.5 0 0 1-.151.357.52.52 0 0 1-.357.138.5.5 0 0 1-.357-.138.5.5 0 0 1-.145-.357q0-.215.145-.35a.48.48 0 0 1 .357-.138m-.364 1.422h.728v3.55h-.728zM12.365 8.5h.728v5h-.728zm3.139 1.353c.577 0 1.023.192 1.325.59.275.358.42.852.426 1.484h-2.692c.027.343.117.611.282.797.164.178.391.274.68.274q.381-.001.618-.178c.123-.096.226-.254.322-.46h.728c-.082.33-.24.611-.487.83q-.464.405-1.175.406c-.522 0-.94-.165-1.243-.488q-.495-.513-.494-1.387c0-.529.15-.968.467-1.325.302-.364.72-.543 1.243-.543m.02.597c-.274 0-.487.076-.652.24-.151.159-.254.385-.295.688h1.916q-.103-.928-.969-.928M4 7h16v1H4zm0 7h16v1H4z"/><path d="M4 7h1v8H4zm15 0h1v8h-1zm-1.04-1.853.707.707L7.354 17.167l-.708-.707z"/></g></svg>