<svg xmlns="http://www.w3.org/2000/svg" viewBox="0 0 64 64"><path d="M5.5 11c-.831 0-1.5.593-1.5 1.332v5.336C4 18.407 4.669 19 5.5 19h9c.831 0 1.5-.593 1.5-1.332v-5.336c0-.739-.669-1.332-1.5-1.332Zm44 0c-.831 0-1.5.593-1.5 1.332v5.336c0 .739.669 1.332 1.5 1.332h9c.831 0 1.5-.593 1.5-1.332v-5.336c0-.739-.669-1.332-1.5-1.332Zm-44 18c-.831 0-1.5.593-1.5 1.332v5.336C4 36.407 4.669 37 5.5 37h9c.831 0 1.5-.593 1.5-1.332v-5.336c0-.739-.669-1.332-1.5-1.332Zm44 0c-.831 0-1.5.593-1.5 1.332v5.336c0 .739.669 1.332 1.5 1.332h9c.831 0 1.5-.593 1.5-1.332v-5.336c0-.739-.669-1.332-1.5-1.332Zm0 18c-.831 0-1.5.593-1.5 1.332v5.336c0 .739.669 1.332 1.5 1.332h9c.831 0 1.5-.593 1.5-1.332v-5.336c0-.739-.669-1.332-1.5-1.332Z" opacity=".2"/><rect width="56" height="40" x="-61" y="-52" opacity=".2" rx="3.111" ry="2.857" transform="rotate(90)scale(-1 1)"/><rect width="12" height="8" x="4" y="28" fill="#fc0" rx="1.5" ry="1.333"/><rect width="12" height="8" x="4" y="10" fill="#fc0" rx="1.5" ry="1.333"/><rect width="12" height="8" x="48" y="28" fill="#fc0" rx="1.5" ry="1.333"/><rect width="12" height="8" x="48" y="46" fill="#fc0" rx="1.5" ry="1.333"/><rect width="12" height="8" x="48" y="10" fill="#fc0" rx="1.5" ry="1.333"/><path fill="#fff" d="M5.5 10c-.831 0-1.5.593-1.5 1.332v1C4 11.593 4.669 11 5.5 11h9c.831 0 1.5.593 1.5 1.332v-1c0-.739-.669-1.332-1.5-1.332zm44 0c-.831 0-1.5.593-1.5 1.332v1c0-.739.669-1.332 1.5-1.332h9c.831 0 1.5.593 1.5 1.332v-1c0-.739-.669-1.332-1.5-1.332zm-44 18c-.831 0-1.5.593-1.5 1.332v1C4 29.593 4.669 29 5.5 29h9c.831 0 1.5.593 1.5 1.332v-1c0-.739-.669-1.332-1.5-1.332zm44 0c-.831 0-1.5.593-1.5 1.332v1c0-.739.669-1.332 1.5-1.332h9c.831 0 1.5.593 1.5 1.332v-1c0-.739-.669-1.332-1.5-1.332zm0 18c-.831 0-1.5.593-1.5 1.332v1c0-.739.669-1.332 1.5-1.332h9c.831 0 1.5.593 1.5 1.332v-1c0-.739-.669-1.332-1.5-1.332z" opacity=".2"/><rect width="56" height="40" x="-60" y="-52" fill="#757d96" rx="3.111" ry="2.857" transform="rotate(90)scale(-1 1)"/><path fill="#57c33c" d="M20 26h12v12H20z"/><path fill="#ffd735" d="M32 26h12v12H32z"/><path fill="#ff741b" d="M20 14h12v12H20z"/><path fill="#7994ff" d="M32 14h12v12H32z"/><path fill="#dc61b8" d="M32 38h12v12H32z"/><path d="M20 26h24v1H20zm0 12h24v1H20zm12 12h12v1H32z" opacity=".2"/><path fill="#fff" d="M14.855 4C13.273 4 12 5.386 12 7.11v1C12 6.385 13.273 5 14.855 5h34.29C50.727 5 52 6.386 52 8.11v-1C52 5.385 50.727 4 49.145 4z" opacity=".1"/></svg>