<svg xmlns="http://www.w3.org/2000/svg" xmlns:xlink="http://www.w3.org/1999/xlink" viewBox="0 0 96 96"><defs><radialGradient id="f" cx="50%" cy="50%" r="311.874%" fx="50%" fy="50%" gradientTransform="matrix(.16667 0 0 .14268 .417 .429)"><stop offset="0%" stop-color="#8dbaef"/><stop offset="14.646%" stop-color="#69a2e0" stop-opacity=".882"/><stop offset="25.785%" stop-color="#a0c6f0"/><stop offset="35.481%" stop-color="#71a4db" stop-opacity=".862"/><stop offset="47.796%" stop-color="#a5c4e6"/><stop offset="67.036%" stop-color="#90bcec" stop-opacity=".829"/><stop offset="100%" stop-color="#bcd3f0" stop-opacity="0"/></radialGradient><radialGradient id="j" cx="50%" cy="50%" r="61.505%" fx="50%" fy="50%" gradientTransform="matrix(0 .46667 -1 0 1 .267)"><stop offset="0%" stop-color="#8fb6e8"/><stop offset="100%" stop-color="#81b0ed" stop-opacity=".209"/></radialGradient><radialGradient id="k" cx="50%" cy="50%" r="70.546%" fx="50%" fy="50%" gradientTransform="matrix(0 .86486 -1 0 1 .068)"><stop offset="0%" stop-color="#fff"/><stop offset="100%" stop-color="#fff" stop-opacity=".209"/></radialGradient><radialGradient id="b" cx="50%" cy="50%" r="62.384%" fx="50%" fy="50%" gradientTransform="matrix(-.48077 0 0 -1.25957 .74 1.13)"><stop offset="0%" stop-color="#6a9ee3"/><stop offset="100%" stop-color="#6ba0e6" stop-opacity="0"/></radialGradient><radialGradient id="d" cx="50%" cy="50%" r="59.985%" fx="50%" fy="50%" gradientTransform="matrix(-.5 0 0 -1.25957 .75 1.13)"><stop offset="0%" stop-color="#6a9ee3"/><stop offset="100%" stop-color="#6ba0e6" stop-opacity="0"/></radialGradient><linearGradient id="h" x1="50%" x2="50%" y1="0%" y2="100%"><stop offset="0%" stop-color="#dbe6f4"/><stop offset="35.859%" stop-color="#c1dbfd"/><stop offset="49.771%" stop-color="#a3c7f4"/><stop offset="100%" stop-color="#5c9aeb"/></linearGradient><linearGradient id="i" x1="50%" x2="50%" y1="0%" y2="100%"><stop offset="0%" stop-color="#76a7e8"/><stop offset="100%" stop-color="#bbd2ed"/></linearGradient><linearGradient id="a" x1="50%" x2="50%" y1="0%" y2="100%"><stop offset="0%" stop-color="#f1f6f9"/><stop offset="100%" stop-color="#dfeaf0" stop-opacity=".591"/></linearGradient><linearGradient id="c" x1="50%" x2="50%" y1="0%" y2="100%"><stop offset="0%" stop-color="#f1f6f9"/><stop offset="100%" stop-color="#dfeaf0" stop-opacity=".591"/></linearGradient><path id="p" fill="url(#a)" d="M9 12.5Q4 8.5 0 6c3.5-.5 5.5 1 6.5 1Q5.5 6 3 3q5 1 6.5 3-1.5-3-3-5 6 2 6 4.5c1-1 .5-2.5 4.5-4.5-1 1.5-1.5 2.5-1.5 4.5 1.5-3 3-4.5 5-5.5-.5 1.5-2 5-2 6 1-1 2.796-4.09 5-4-.651 1.303-2.5 4.5-3 5.5C22 6 24 3.5 26 3.5c-2.5 2-6.694 9-6 9z"/><path id="q" fill="url(#b)" d="M9 12.5Q4 8.5 0 6c3.5-.5 5.5 1 6.5 1Q5.5 6 3 3q5 1 6.5 3-1.5-3-3-5 6 2 6 4.5c1-1 .5-2.5 4.5-4.5-1 1.5-1.5 2.5-1.5 4.5 1.5-3 3-4.5 5-5.5-.5 1.5-2 5-2 6 1-1 2.796-4.09 5-4-.651 1.303-2.5 4.5-3 5.5C22 6 24 3.5 26 3.5c-2.5 2-6.694 9-6 9z"/><path id="r" fill="url(#c)" d="M6.23 9Q2.77 6.12 0 4.32c2.423-.36 3.808.72 4.5.72q-.693-.72-2.423-2.88 3.462.72 4.5 2.16Q5.539 2.16 4.5.72q4.154 1.44 4.154 3.24c.692-.72.346-1.8 3.115-3.24-.692 1.08-1.038 1.8-1.038 3.24C11.769 1.8 12.808.72 14.192 0c-.346 1.08-1.384 3.6-1.384 4.32.692-.72 1.936-2.944 3.461-2.88-.45.938-1.73 3.24-2.077 3.96C15.231 4.32 16.615 2.52 18 2.52 16.27 3.96 13.365 9 13.846 9z"/><path id="s" fill="url(#d)" d="M6.23 9Q2.77 6.12 0 4.32c2.423-.36 3.808.72 4.5.72q-.693-.72-2.423-2.88 3.462.72 4.5 2.16Q5.539 2.16 4.5.72q4.154 1.44 4.154 3.24c.692-.72.346-1.8 3.115-3.24-.692 1.08-1.038 1.8-1.038 3.24C11.769 1.8 12.808.72 14.192 0c-.346 1.08-1.384 3.6-1.384 4.32.692-.72 1.936-2.944 3.461-2.88-.45.938-1.73 3.24-2.077 3.96C15.231 4.32 16.615 2.52 18 2.52 16.27 3.96 13.365 9 13.846 9z"/><filter id="e" width="133.3%" height="130.4%" x="-16.7%" y="-15.2%" filterUnits="objectBoundingBox"><feOffset dy="2" in="SourceAlpha" result="shadowOffsetOuter1"/><feGaussianBlur in="shadowOffsetOuter1" result="shadowBlurOuter1" stdDeviation="2"/><feComposite in="shadowBlurOuter1" in2="SourceAlpha" operator="out" result="shadowBlurOuter1"/><feColorMatrix in="shadowBlurOuter1" result="shadowMatrixOuter1" values="0 0 0 0 0 0 0 0 0 0 0 0 0 0 0 0 0 0 0.2 0"/><feMerge><feMergeNode in="shadowMatrixOuter1"/><feMergeNode in="SourceGraphic"/></feMerge></filter><filter id="g" width="100%" height="100%" x="0%" y="0%" filterUnits="objectBoundingBox"><feGaussianBlur in="SourceGraphic"/></filter></defs><g fill="none" fill-rule="evenodd" filter="url(#e)" transform="translate(12 9)"><ellipse cx="36" cy="73" fill="url(#f)" filter="url(#g)" opacity=".825" rx="36" ry="6"/><path fill="url(#h)" stroke="url(#i)" d="M63.604 38.786 37.33 71.126a1.5 1.5 0 0 1-1.01.547c-.367.038-.75-.06-1.064-.3L8.153 38.796a1.5 1.5 0 0 1-.34-1.096 1.495 1.495 0 0 1 1.514-1.362l13.002.169V2c0-.414.168-.79.44-1.06a1.5 1.5 0 0 1 1.06-.44h25c.414 0 .79.168 1.06.44.272.27.44.646.44 1.06v34.507l12.09-.166c.415-.006.792.157 1.067.425a1.495 1.495 0 0 1 .118 2.02Z"/><path fill="url(#j)" d="M26.447 13.404V41.17l.893-3.35.894 3.829.447-4.787.447 4.787.893-4.787v6.223l.894-12.925v12.925l.894-14.84 1.787 13.404.893-3.83v3.83l1.34-23.936v23.936l1.341-6.702.894 6.223.893-6.223.447 7.66.894-16.277.447 16.276 1.34-9.574.447 8.617.447-20.585L43.426 45l.893-8.617.447 5.266V27.766l1.34 13.883.447-8.138.447 6.223V6.702l-1.787 11.49-.447-9.575-.447 6.223-.447-6.223-.893 5.266-.447-5.266-.447 9.096-.894-12.447-.893 7.18-.894-6.701v9.574l-1.34-9.096-.447 8.139-1.34-5.266v4.787l-.894-7.18-.894 6.701V0l-.893 15.32V2.393l-1.34 10.532V2.872l-1.341 9.575-.447-8.617-.894 10.532V1.915l-.893 12.447V2.394l-.894 16.276-.447-14.36-.446 7.66L26 4.308z" transform="matrix(-1 0 0 1 73 0)"/><path fill="url(#k)" d="m33.51 30 .894 10.553V31.65l1.34 7.255V31.98l1.341 6.595.447-5.936.894 7.256V31.32l.893 8.575V31.65l.894 11.213.447-9.894.446 5.277.894-5.277-.447 6.266v6.196l1.17-3.164v3.298l.894-4.947.894 4.617V36l.893 10.553V37.65l1.34 7.255V37.98l1.341 6.595.447-5.936.894 7.256V37.32l.893 8.575V37.65l.894 11.213.447-9.894.446 5.277.894-5.277-.447 6.266v19.128l-.893-2.309-.894 2.638-.447-3.297-.447 3.297-.893-3.297v4.287l-.894-8.904v8.904l-.894-10.224-1.787 9.234-.893-2.638v2.638l-1.34-16.489v16.49l-1.341-4.618-.894 4.288-.893-4.288-.447 5.277-.603-7.555-.12.895-.307-1.13-.31 7.79-1.171-5.755v.085l-.013-.148-.157-.778-.447 5.936-.447-14.18L35.574 67l-.893-5.936-.447 3.627V58.19l-.304-.896-1.036 7.398-.447-5.606L32 63.372v-5.266l-1.17-4.032-.894 4.288-.893-4.288-.447 5.277-.894-11.213-.447 11.213-1.34-6.596-.447 5.936-.447-14.18L24.574 61l-.893-5.936-.447 3.627v-9.563l-1.34 9.563-.447-5.606L21 57.372V34.617l1.787 7.915.447-6.596.447 4.287.447-4.287.893 3.628.447-3.628.447 6.266.894-8.574.893 4.946.894-4.617v6.596l1.34-6.266.447 5.607 1.34-3.628v3.298l.894-4.947.894 4.617z" opacity=".222"/><use xlink:href="#p" transform="translate(17 26)"/><use xlink:href="#q" transform="translate(17 26)"/><g opacity=".362" transform="matrix(1 0 0 -1 17 51)"><use xlink:href="#p"/><use xlink:href="#q"/></g><use xlink:href="#r" transform="translate(39 29)"/><use xlink:href="#s" transform="translate(39 29)"/><g opacity=".362" transform="matrix(1 0 0 -1 39 47)"><use xlink:href="#r"/><use xlink:href="#s"/></g></g></svg>