<svg xmlns="http://www.w3.org/2000/svg" viewBox="0 0 64 64"><path d="M34 19a2 2 0 1 0 .001 4.001A2 2 0 0 0 34 19m-24 4a2 2 0 1 0 .001 4.001A2 2 0 0 0 10 23m7.504 2c-.562.026-1.215.599-.54 1.39.96 1.128 1.466 3.134.61 3.536-.86.402-.799-1.495-.875-2.504-.075-1.01-2.457-1.618-3.336-.367-.879 1.25.005 2.599.875 2.87.87.274 1.007 1.304 1.524 2.372s3.04.8 3.656 0c.615-.801 1-2.29-.2-3.664-1.198-1.374-.836-2.65-1.16-3.352-.08-.175-.251-.263-.445-.281v.004a1 1 0 0 0-.11-.004m7.457 0-.063.008v-.004a1 1 0 0 0-.273.082c-.706.317-.944 1.346-.016 3.515.93 2.17 2.255 3.673 2.961 3.356.707-.317.522-2.331-.406-4.5-.787-1.84-1.557-2.493-2.203-2.457m19.785 0c-.715.016-1.022 1.436-1.203 2.773-.193 1.427-.921 2.898-.293 3.184.871.38 1.317-1.957 2.3-2.832.985-.876.166-2.915-.655-3.105v-.004a.6.6 0 0 0-.149-.016M52 25a2 2 0 1 0 .001 4.001A2 2 0 0 0 52 25m-30.578 1a1.502 1.502 0 0 0 .078 3 1.5 1.5 0 0 0 0-3zm17.59.93c-.914.067-1.823 1.618-2.27 2.695-.511 1.23.107 3.629-1.097 4.527-1.205.9-2.086.923-2.688.563s.516-.313-.156-1.684c-.673-1.37-2.282-.939-2.703.13-.422 1.067.45 1.018.148 1.648-.3.63-3.06.71-3.633-1.18-.572-1.89-2.606-3.947-3.238-3.438-.632.51.075 2.388 1.73 3.887s-.424 2.308-1.863 1.18c-1.439-1.13-3.131.857-4.441 2.187-1.312 1.329-2.481 1.418-3.414.621-.932-.795-.111-2.957-1.188-5.132-1.075-2.176-3.215-1.092-3.515.378s2.699 2.458 2.117 3.274-2.908.831-3.594-.707c-.684-1.539-2.177-1.04-2.207.219s1.157.18 2.082 1.101c0 0 16.862 23.801 23.89 23.801 7.03 0 23.895-23.8 23.895-23.8 2.811-2.8-.407-1.6-1.07-.97-.662.63-2.712 1.14-2.953.45s2.293-1.846 3.015-2.625c.723-.78 1.43-2.997.262-3.809s-2.825.655-3.543 1.734c-.722 1.08-.094 3.828-1.058 4.668s-1.496.33-1.676-.39c-.182-.72 2.081-1.73 1.133-3.52-.95-1.79-2.704-.979-3.516-.14-.812.84.487 2.133.789 3.453.3 1.32-2.78 1.285-3.984.804s-1.598-3.495-2.11-3.675-1.616 1.6-3.273 1.09c-1.656-.51-.281-1.527.23-2.727.512-1.2 1.324-4.09.29-4.543a.8.8 0 0 0-.391-.07M4.422 30a1.502 1.502 0 0 0 .078 3 1.5 1.5 0 0 0 0-3zm55 2a1.502 1.502 0 0 0 .078 3 1.5 1.5 0 0 0 0-3z" opacity=".2"/><rect width="22" height="40" x="22" y="4" fill="#2c96ff" rx="5.5" ry="5.517"/><path fill="#275ce3" d="M34 18a2 2 0 1 0 .001 4.001A2 2 0 0 0 34 18m-24 4a2 2 0 1 0 .001 4.001A2 2 0 0 0 10 22m7.504 2c-.562.026-1.215.599-.54 1.39.96 1.128 1.466 3.134.61 3.536-.86.402-.799-1.495-.875-2.504-.075-1.01-2.457-1.618-3.336-.367-.879 1.25.005 2.599.875 2.87.87.274 1.007 1.304 1.524 2.372s3.04.8 3.656 0c.615-.801 1-2.29-.2-3.664-1.198-1.374-.836-2.65-1.16-3.352-.08-.175-.251-.263-.445-.281v.004a1 1 0 0 0-.11-.004m7.457 0-.063.008v-.004a1 1 0 0 0-.273.082c-.706.317-.944 1.346-.016 3.515.93 2.17 2.255 3.673 2.961 3.356.707-.317.522-2.331-.406-4.5-.787-1.84-1.557-2.493-2.203-2.457m19.785 0c-.715.016-1.022 1.436-1.203 2.773-.193 1.427-.921 2.898-.293 3.184.871.38 1.317-1.957 2.3-2.832.985-.876.166-2.915-.655-3.105v-.004a.6.6 0 0 0-.149-.016M52 24a2 2 0 1 0 .001 4.001A2 2 0 0 0 52 24m-30.578 1a1.502 1.502 0 0 0 .078 3 1.5 1.5 0 0 0 0-3zm17.59.93c-.914.067-1.823 1.618-2.27 2.695-.511 1.23.107 3.629-1.097 4.527-1.205.9-2.086.923-2.688.563s.516-.313-.156-1.684c-.673-1.37-2.282-.939-2.703.13-.422 1.067.45 1.018.148 1.648-.3.63-3.06.71-3.633-1.18-.572-1.89-2.606-3.947-3.238-3.438-.632.51.075 2.388 1.73 3.887s-.424 2.308-1.863 1.18c-1.439-1.13-3.131.857-4.441 2.187-1.312 1.329-2.481 1.418-3.414.621-.932-.795-.111-2.957-1.188-5.132-1.075-2.176-3.215-1.092-3.515.378s2.699 2.458 2.117 3.274-2.908.831-3.594-.707c-.684-1.539-2.177-1.04-2.207.219s1.157.18 2.082 1.101c0 0 16.862 23.801 23.89 23.801 7.03 0 23.895-23.8 23.895-23.8 2.811-2.8-.407-1.6-1.07-.97-.662.63-2.712 1.14-2.953.45s2.293-1.846 3.015-2.625c.723-.78 1.43-2.997.262-3.809s-2.825.655-3.543 1.734c-.722 1.08-.094 3.828-1.058 4.668s-1.496.33-1.676-.39c-.182-.72 2.081-1.73 1.133-3.52-.95-1.79-2.704-.979-3.516-.14-.812.84.487 2.133.789 3.453.3 1.32-2.78 1.285-3.984.804s-1.598-3.495-2.11-3.675-1.616 1.6-3.273 1.09c-1.656-.51-.281-1.527.23-2.727.512-1.2 1.324-4.09.29-4.543a.8.8 0 0 0-.391-.07M4.422 29a1.502 1.502 0 0 0 .078 3 1.5 1.5 0 0 0 0-3zm55 2a1.502 1.502 0 0 0 .078 3 1.5 1.5 0 0 0 0-3z"/><path fill="#fff" d="M27.5 4C24.453 4 22 6.46 22 9.516v1A5.495 5.495 0 0 1 27.5 5h11c3.047 0 5.5 2.46 5.5 5.516v-1A5.495 5.495 0 0 0 38.5 4z" opacity=".2"/></svg>