<svg xmlns="http://www.w3.org/2000/svg" viewBox="0 0 64 64"><path d="M6 19v2c0 1.108.892 2 2 2h12c1.108 0 2-.892 2-2v-2c0 1.108-.892 2-2 2H8c-1.108 0-2-.892-2-2m18 0v2c0 1.108.892 2 2 2h12c1.108 0 2-.892 2-2v-2c0 1.108-.892 2-2 2H26c-1.108 0-2-.892-2-2m18 0v2c0 1.108.892 2 2 2h12c1.108 0 2-.892 2-2v-2c0 1.108-.892 2-2 2H44c-1.108 0-2-.892-2-2M6 37v2c0 1.108.892 2 2 2h12c1.108 0 2-.892 2-2v-2c0 1.108-.892 2-2 2H8c-1.108 0-2-.892-2-2m18 0v2c0 1.108.892 2 2 2h12c1.108 0 2-.892 2-2v-2c0 1.108-.892 2-2 2H26c-1.108 0-2-.892-2-2m18 0v2c0 1.108.892 2 2 2h12c1.108 0 2-.892 2-2v-2c0 1.108-.892 2-2 2H44c-1.108 0-2-.892-2-2M6 55v2c0 1.108.892 2 2 2h12c1.108 0 2-.892 2-2v-2c0 1.108-.892 2-2 2H8c-1.108 0-2-.892-2-2m18 0v2c0 1.108.892 2 2 2h12c1.108 0 2-.892 2-2v-2c0 1.108-.892 2-2 2H26c-1.108 0-2-.892-2-2m18 0v2c0 1.108.892 2 2 2h12c1.108 0 2-.892 2-2v-2c0 1.108-.892 2-2 2H44c-1.108 0-2-.892-2-2" opacity=".2"/><rect width="16" height="16" x="6" y="6" fill="#d55045" rx="2" ry="2"/><rect width="16" height="16" x="24" y="6" fill="#ffc539" rx="2" ry="2"/><rect width="16" height="16" x="42" y="6" fill="#94d551" rx="2" ry="2"/><rect width="16" height="16" x="6" y="24" fill="#94d551" rx="2" ry="2"/><rect width="16" height="16" x="24" y="24" fill="#4b95d5" rx="2" ry="2"/><rect width="16" height="16" x="42" y="24" fill="#94d551" rx="2" ry="2"/><rect width="16" height="16" x="6" y="42" fill="#4b95d5" rx="2" ry="2"/><rect width="16" height="16" x="24" y="42" fill="#ffc539" rx="2" ry="2"/><rect width="16" height="16" x="42" y="42" fill="#d55045" rx="2" ry="2"/><path fill="#fff" d="M8 6c-1.108 0-2 .892-2 2v1c0-1.108.892-2 2-2h12c1.108 0 2 .892 2 2V8c0-1.108-.892-2-2-2zm18 0c-1.108 0-2 .892-2 2v1c0-1.108.892-2 2-2h12c1.108 0 2 .892 2 2V8c0-1.108-.892-2-2-2zm18 0c-1.108 0-2 .892-2 2v1c0-1.108.892-2 2-2h12c1.108 0 2 .892 2 2V8c0-1.108-.892-2-2-2zM8 24c-1.108 0-2 .892-2 2v1c0-1.108.892-2 2-2h12c1.108 0 2 .892 2 2v-1c0-1.108-.892-2-2-2zm18 0c-1.108 0-2 .892-2 2v1c0-1.108.892-2 2-2h12c1.108 0 2 .892 2 2v-1c0-1.108-.892-2-2-2zm18 0c-1.108 0-2 .892-2 2v1c0-1.108.892-2 2-2h12c1.108 0 2 .892 2 2v-1c0-1.108-.892-2-2-2zM8 42c-1.108 0-2 .892-2 2v1c0-1.108.892-2 2-2h12c1.108 0 2 .892 2 2v-1c0-1.108-.892-2-2-2zm18 0c-1.108 0-2 .892-2 2v1c0-1.108.892-2 2-2h12c1.108 0 2 .892 2 2v-1c0-1.108-.892-2-2-2zm18 0c-1.108 0-2 .892-2 2v1c0-1.108.892-2 2-2h12c1.108 0 2 .892 2 2v-1c0-1.108-.892-2-2-2z" opacity=".2"/></svg>