<svg xmlns="http://www.w3.org/2000/svg" viewBox="0 0 64 64"><path d="M4.05 32c-.011.334-.05.662-.05 1 0 15.512 12.488 28 28 28a27.94 27.94 0 0 0 28-28c0-.337-.04-.665-.052-1-.528 15.042-12.775 27-27.95 27C16.826 59 4.579 47.042 4.05 32" opacity=".2"/><rect width="56" height="56" x="4" y="4" fill="#a94912" rx="28" ry="28"/><path d="M32 13a12 12 0 0 0-12 12 12 12 0 0 0 8.132 11.344L30 55h4l1.864-18.652A12 12 0 0 0 44 25a12 12 0 0 0-12-12m0 2a8 8 0 0 1 8 8 8 8 0 0 1-8 8 8 8 0 0 1-8-8 8 8 0 0 1 8-8" opacity=".2"/><path fill="#eda458" d="M32 12a12 12 0 0 0-12 12 12 12 0 0 0 12 12 12 12 0 0 0 12-12 12 12 0 0 0-12-12m0 2a8 8 0 0 1 8 8 8 8 0 0 1-8 8 8 8 0 0 1-8-8 8 8 0 0 1 8-8"/><path fill="#eda458" d="M28 34h8l-2 20h-4z"/><path d="M40 37v4H24v-4z" opacity=".2"/><path fill="#f56161" d="M40 36v4H24v-4z"/><path fill="#fff" d="M32 4C16.488 4 4 16.488 4 32c0 .114.011.224.018.336C4.369 17.134 16.71 5 32 5s27.63 12.134 27.982 27.336c.007-.112.018-.222.018-.336C60 16.488 47.512 4 32 4" opacity=".2"/></svg>