<svg xmlns="http://www.w3.org/2000/svg" viewBox="0 0 64 64"><rect width="32" height="48" x="4" y="12" fill-opacity=".2" rx="2" ry="2"/><rect width="32" height="48" x="4" y="11" fill="#f57f17" rx="2" ry="2"/><rect width="32" height="48" x="28" y="5" fill-opacity=".2" rx="2" ry="2"/><path fill="#fff" d="M6 11c-1.108 0-2 .892-2 2v1c0-1.108.892-2 2-2h28c1.108 0 2 .892 2 2v-1c0-1.108-.892-2-2-2z" opacity=".2"/><rect width="32" height="48" x="28" y="4" fill="#00b0ff" rx="2" ry="2"/><path d="M44.51 14C39.22 14 35 18.04 35 23h4c0-2.47 2.89-5 5.52-5 2.64 0 4.48 2.23 4.48 4.7 0 1.23-.23 2.3-.85 3.14l-2.97 2.83C43.57 30.45 42 32.67 42 35v2h5v-1.63c0-2.79 1.38-4.08 2.97-5.58l2.15-2.06c1.36-1.28 1.88-3.08 1.88-5.05 0-4.96-4.2-8.68-9.49-8.68M42 40v5h5v-4.99Z" opacity=".2"/><path fill="#fff" d="M44.51 13C39.22 13 35 17.04 35 22h4c0-2.47 2.89-5 5.52-5 2.64 0 4.48 2.23 4.48 4.7 0 1.23-.23 2.3-.85 3.14l-2.97 2.83C43.57 29.46 42 31.67 42 34v2h5v-1.63c0-2.79 1.38-4.08 2.97-5.58l2.15-2.06c1.36-1.28 1.88-3.08 1.88-5.05 0-4.96-4.2-8.68-9.49-8.68M42 39v5h5v-4.99Z"/><path fill="#fff" d="M30 4c-1.108 0-2 .892-2 2v1c0-1.108.892-2 2-2h28c1.108 0 2 .892 2 2V6c0-1.108-.892-2-2-2z" opacity=".2"/></svg>