<svg xmlns="http://www.w3.org/2000/svg" viewBox="0 0 24 24"><path fill="#303030" d="m17.78 5.975.01.06c.688.137 1.21.784 1.208 1.494a1.48 1.48 0 0 1-.8 1.305l.599 4.203c.685.14 1.203.784 1.201 1.492.002.8-.659 1.477-1.477 1.477-.817 0-1.525-.676-1.523-1.477-.001-.549.336-1.054.809-1.322l-.59-4.17-3.096 5.5c.232.273.378.623.377.992.002.8-.659 1.477-1.477 1.477-.817 0-1.525-.676-1.523-1.477-.001-.45.228-.872.57-1.158l-1.562-4.367a1.54 1.54 0 0 1-1.047-.432l-2.482 1.24c.01.072.021.144.021.217.002.8-.659 1.477-1.477 1.477-.817 0-1.525-.676-1.523-1.477-.002-.8.706-1.523 1.523-1.523.395 0 .75.17 1.014.433l2.48-1.24c-.006-.056-.017-.112-.017-.17-.002-.8.706-1.523 1.523-1.523.818 0 1.479.723 1.477 1.523.001.46-.22.873-.559 1.147l1.543 4.334.04-.004c.079 0 .156.012.232.025l3.121-5.554a1.42 1.42 0 0 1-.377-.948c-.002-.8.706-1.523 1.523-1.523.078 0 .153.013.227.025zm-7.282 3a.5.5 0 1 0 0-1 .5.5 0 0 0 0 1M17.5 8a.5.5 0 1 0 0-1 .5.5 0 0 0 0 1m-12 3.5a.5.5 0 1 0 0-1 .5.5 0 0 0 0 1M13 16a.5.5 0 1 0 0-1 .5.5 0 0 0 0 1m5.5-1a.5.5 0 1 0 0-1 .5.5 0 0 0 0 1"/></svg>