<svg xmlns="http://www.w3.org/2000/svg" viewBox="0 0 24 24"><path fill="#303030" d="M17.52 6.004c-.818 0-1.526.723-1.524 1.523-.002.8.706 1.477 1.524 1.477.817 0 1.478-.676 1.476-1.477.002-.8-.659-1.523-1.476-1.523m-7 1c-.818 0-1.526.723-1.524 1.523-.002.8.706 1.477 1.524 1.477.817 0 1.478-.676 1.476-1.477.002-.8-.659-1.523-1.476-1.523m-5 4c-.818 0-1.526.723-1.524 1.523-.002.8.706 1.477 1.524 1.477a1.48 1.48 0 0 0 1.39-1h13.086v-1h-13.1c-.21-.566-.744-1-1.376-1m13 3c-.818 0-1.526.723-1.524 1.523-.002.8.706 1.477 1.524 1.477.817 0 1.478-.676 1.476-1.477.002-.8-.659-1.523-1.476-1.523m-5.5 1c.817 0 1.478.723 1.476 1.523.002.8-.659 1.477-1.476 1.477-.818 0-1.526-.676-1.524-1.477-.002-.8.706-1.523 1.524-1.523M5.5 13a.5.5 0 1 1 0-1 .5.5 0 0 1 0 1m5-4a.5.5 0 1 1 0-1 .5.5 0 0 1 0 1m7-1a.5.5 0 1 1 0-1 .5.5 0 0 1 0 1m1 8a.5.5 0 1 1 0-1 .5.5 0 0 1 0 1M13 17a.5.5 0 1 0 0-1 .5.5 0 0 0 0 1"/></svg>