<svg xmlns="http://www.w3.org/2000/svg" viewBox="0 0 22 22"><path fill="currentColor" d="M18.566 3.003c-.134-.013-.343.018-.729.116-.769.195-.93.254-.922.422.005.094.055.179.192.332l-.565.562-.154-.154a.2.2 0 0 0-.153-.063.2.2 0 0 0-.152.063l-.219.219 1.653 1.623.205-.205a.215.215 0 0 0 0-.305l-.15-.15.564-.565c.146.13.227.178.326.19.162.018.2-.174.406-.94.204-.756.152-.809-.025-.986-.085-.085-.144-.145-.277-.159m-3.06 1.854-4.804 4.805 1.637 1.635 4.82-4.817Zm-6.114 5a.22.22 0 0 0-.159.067L4.204 14.95a.224.224 0 0 0 0 .319l2.524 2.521c.088.088.23.089.318 0l5.027-5.026a.224.224 0 0 0 0-.318L9.552 9.924a.23.23 0 0 0-.16-.066M3.72 16.199l-.559.557a.547.547 0 0 0 0 .775l1.309 1.31a.55.55 0 0 0 .777 0l.557-.557z" color="#d3dae3"/><path fill="currentColor" d="M14.637 12a.62.628 0 0 0-.637.628v6.744a.62.628 0 0 0 .929.544l2.88-1.686 2.881-1.686a.62.628 0 0 0 0-1.088l-2.88-1.685-2.881-1.687a.62.628 0 0 0-.292-.084" color="#4285f4"/></svg>