<svg xmlns="http://www.w3.org/2000/svg" viewBox="0 0 64 64"><rect width="5" height="58" x="-53" y="-61" opacity=".2" rx="2.083" ry="2.417" transform="rotate(90)scale(-1 1)"/><rect width="52" height="36" x="6" y="12" opacity=".2" rx="2.5" ry="2.5"/><rect width="5" height="58" x="-52" y="-61" fill="#595959" rx="2.083" ry="2.417" transform="rotate(90)scale(-1 1)"/><path fill="#595959" d="M8.5 11A2.495 2.495 0 0 0 6 13.5V16h52v-2.5c0-1.385-1.115-2.5-2.5-2.5Z"/><path fill="#fff" d="M8.5 11A2.495 2.495 0 0 0 6 13.5v1C6 13.115 7.115 12 8.5 12h47c1.384 0 2.5 1.115 2.5 2.5v-1c0-1.385-1.116-2.5-2.5-2.5z" opacity=".1"/><path fill="#333" d="M6 16v28.5C6 45.885 7.115 47 8.5 47h47c1.385 0 2.5-1.115 2.5-2.5V16Z"/><path d="M6 16h52v1H6z" opacity=".2"/><circle cx="32" cy="14" r="1" fill="#333"/><path fill="#fff" d="M5.416 47C4.077 47 3 47.93 3 49.084v.832c0 .029.008.056.01.084.052-1.114 1.1-2 2.406-2h53.168c1.305 0 2.354.886 2.406 2 .002-.028.01-.055.01-.084v-.832C61 47.93 59.923 47 58.584 47z" opacity=".1"/></svg>