<svg xmlns="http://www.w3.org/2000/svg" viewBox="0 0 64 64"><circle cx="32" cy="33" r="28" opacity=".2"/><circle cx="32" cy="32" r="28" fill="#3f3f3f"/><path d="M45.548 21.103c.37-2.145.913-3.494 1.515-3.497h.001c1.122.004 2.03 4.682 2.03 10.457s-.91 10.457-2.033 10.457c-.46 0-.885-.795-1.227-2.127-.54 4.876-1.662 8.229-2.96 8.229-1.005 0-1.907-2.014-2.512-5.19-.413 6.04-1.454 10.325-2.67 10.325-.762 0-1.458-1.698-1.973-4.463C35.099 51.001 33.669 55 32 55c-1.668 0-3.101-3.998-3.718-9.706-.511 2.765-1.207 4.463-1.974 4.463-1.216 0-2.253-4.285-2.67-10.325-.605 3.176-1.504 5.19-2.51 5.19-1.298 0-2.42-3.351-2.961-8.229-.34 1.336-.767 2.127-1.228 2.127-1.123 0-2.033-4.681-2.033-10.457 0-5.775.91-10.457 2.033-10.457.603 0 1.142 1.353 1.516 3.497.6-3.7 1.572-6.103 2.672-6.103 1.306 0 2.438 3.4 2.973 8.337.524-3.594 1.32-5.884 2.21-5.884 1.247 0 2.308 4.505 2.7 10.79.74-3.223 1.809-5.244 2.993-5.244s2.253 2.023 2.991 5.243c.394-6.284 1.454-10.79 2.701-10.79.89 0 1.683 2.291 2.21 5.884C40.437 18.4 41.57 15 42.875 15c1.096 0 2.073 2.405 2.672 6.103M12 27.035c0-2.582.516-4.675 1.154-4.675s1.153 2.093 1.153 4.675-.516 4.675-1.153 4.675c-.638 0-1.154-2.094-1.154-4.675m37.693 0c0-2.582.516-4.675 1.153-4.675.638 0 1.154 2.093 1.154 4.675s-.516 4.675-1.154 4.675-1.153-2.094-1.153-4.675" opacity=".2"/><path fill="#ad52ff" d="M45.548 20.103c.37-2.145.913-3.494 1.515-3.497h.001c1.122.004 2.03 4.682 2.03 10.457s-.91 10.457-2.033 10.457c-.46 0-.885-.795-1.227-2.127-.54 4.876-1.662 8.229-2.96 8.229-1.005 0-1.907-2.014-2.512-5.19-.413 6.04-1.454 10.325-2.67 10.325-.762 0-1.458-1.698-1.973-4.463C35.099 50.001 33.669 54 32 54c-1.668 0-3.101-3.998-3.718-9.706-.511 2.765-1.207 4.463-1.974 4.463-1.216 0-2.253-4.285-2.67-10.325-.605 3.176-1.504 5.19-2.51 5.19-1.298 0-2.42-3.351-2.961-8.229-.34 1.336-.767 2.127-1.228 2.127-1.123 0-2.033-4.681-2.033-10.457 0-5.775.91-10.457 2.033-10.457.603 0 1.142 1.353 1.516 3.497.6-3.7 1.572-6.103 2.672-6.103 1.306 0 2.438 3.4 2.973 8.337.524-3.594 1.32-5.884 2.21-5.884 1.247 0 2.308 4.505 2.7 10.79.74-3.223 1.809-5.244 2.993-5.244s2.253 2.023 2.991 5.243c.394-6.284 1.454-10.79 2.701-10.79.89 0 1.683 2.291 2.21 5.884C40.437 17.4 41.57 14 42.875 14c1.096 0 2.073 2.405 2.672 6.103M12 26.035c0-2.582.516-4.675 1.154-4.675s1.153 2.093 1.153 4.675-.516 4.675-1.153 4.675c-.638 0-1.154-2.094-1.154-4.675m37.693 0c0-2.582.516-4.675 1.153-4.675.638 0 1.154 2.093 1.154 4.675s-.516 4.675-1.154 4.675-1.153-2.094-1.153-4.675"/><path fill="#fff" d="M32 4A28 28 0 0 0 4 32a28 28 0 0 0 .035.5A28 28 0 0 1 32 5a28 28 0 0 1 27.982 27.252L60 32A28 28 0 0 0 32 4" opacity=".1"/><path fill="#fff" d="M21.127 14c-1.1 0-2.073 2.405-2.672 6.104-.374-2.144-.913-3.499-1.516-3.499-1.122 0-2.033 4.682-2.033 10.458 0 .17.008.33.01.5.052-5.539.934-9.958 2.023-9.958.603 0 1.142 1.355 1.516 3.499.6-3.7 1.572-6.104 2.672-6.104 1.306 0 2.437 3.4 2.973 8.336.524-3.593 1.318-5.883 2.209-5.883 1.247 0 2.308 4.505 2.7 10.79.74-3.223 1.81-5.245 2.995-5.245 1.184 0 2.253 2.023 2.99 5.244.394-6.284 1.454-10.789 2.701-10.789.89 0 1.683 2.29 2.21 5.883C40.437 18.399 41.57 15 42.876 15c1.096 0 2.073 2.406 2.672 6.104.37-2.145.912-3.496 1.514-3.499h.001c1.089.004 1.97 4.42 2.022 9.958.002-.17.01-.33.01-.5 0-5.776-.91-10.454-2.032-10.458h-.002c-.601.003-1.143 1.354-1.513 3.499-.6-3.698-1.576-6.104-2.672-6.104-1.306 0-2.439 3.4-2.973 8.336-.526-3.593-1.32-5.883-2.209-5.883-1.247 0-2.307 4.505-2.7 10.79-.738-3.222-1.807-5.245-2.991-5.245s-2.255 2.022-2.994 5.244c-.393-6.284-1.454-10.789-2.701-10.789-.89 0-1.685 2.29-2.21 5.883-.533-4.937-1.664-8.336-2.97-8.336m-7.973 7.36c-.637 0-1.154 2.093-1.154 4.675 0 .172.007.334.012.5.062-2.344.547-4.176 1.142-4.176s1.079 1.832 1.14 4.176c.005-.166.013-.328.013-.5 0-2.582-.516-4.676-1.153-4.676m37.692 0c-.637 0-1.153 2.093-1.153 4.675 0 .172.008.334.012.5.062-2.344.546-4.176 1.14-4.176.596 0 1.081 1.832 1.143 4.176.005-.166.012-.328.012-.5 0-2.582-.517-4.676-1.154-4.676" opacity=".1"/></svg>