<svg xmlns="http://www.w3.org/2000/svg" viewBox="0 0 64 64"><g transform="translate(0 -988.362)"><circle cx="32" cy="1021.362" r="28" opacity=".2"/><circle cx="32" cy="1020.362" r="28" fill="#d2a35c"/><path d="M46.523 1000.366q-2.516-.001-4.832 1.328-2.266 1.28-4.28 3.735-1.965 2.404-3.575 5.933-1.61 3.479-2.766 7.88-.806 3.12-1.613 5.269-.805 2.147-1.66 3.578c-1.242-.478-2.468-1.916-3.676-2.223a13 13 0 0 0-3.625-.512q-1.46 0-2.668.461a8.2 8.2 0 0 0-2.012 1.125c-.57.444-1.023.918-1.359 1.43-.302.515-.457 2.045-.457 2.488q0 1.073 1.008 1.79 1.007.715 3.023.714 5.337.001 9.012-2.812a98 98 0 0 0 4.73 1.941q2.468.87 5.438.871 3.373.002 5.387-1.43c1.342-.988 2.112-2.251 2.918-4.093.033-.206-.01-.343-.145-.41q-.152-.153-.355 0c-.571 1.16-.991 1.893-1.864 2.507q-1.31.921-3.828.922-3.02-.001-5.535-.668a60 60 0 0 1-4.734-1.586c2.08-2.49 3.712-6.02 4.886-10.59q1.057-4.296 2.063-7.16t2.164-4.55c.772-1.16 1.613-1.815 2.52-2.258.94-.478 2.044-.711 3.32-.711q1.408.001 2.312.512.957.46 1.41 1.226c.303.512.475.926.508 1.54.034.613-.052 1.823-.254 2.437q-.05.258.149.359c.168.07.323.054.457-.05.335-.58.65-1.914.953-2.8.302-.923.457-1.73.457-2.412 0-1.057-.323-1.94-.96-2.656q-.957-1.125-2.517-1.125m-28.242 26.68c1.443 0 2.803.2 4.078.61 1.276.409 2.536 1.942 3.778 2.487a6.1 6.1 0 0 1-2.621 1.532c-.94.238-2.01.359-3.22.359-1.375 0-2.454-.22-3.226-.664-.738-.443-1.105-2.056-1.105-2.738q0-1.586 2.316-1.586m4.719 8.316a3 3 0 0 0-3 3 3 3 0 0 0 3 3 3 3 0 0 0 3-3 3 3 0 0 0-3-3m16 0a3 3 0 0 0-3 3 3 3 0 0 0 3 3 3 3 0 0 0 3-3 3 3 0 0 0-3-3m-8 4a3 3 0 0 0-3 3 3 3 0 0 0 3 3 3 3 0 0 0 3-3 3 3 0 0 0-3-3" opacity=".2"/><path fill="#fff" d="M46.523 999.366q-2.516-.001-4.832 1.328-2.266 1.28-4.28 3.735-1.965 2.404-3.575 5.933-1.61 3.479-2.766 7.88-.806 3.12-1.613 5.269-.805 2.147-1.66 3.578c-1.242-.478-2.468-1.916-3.676-2.223a13 13 0 0 0-3.625-.512q-1.46 0-2.668.461a8.2 8.2 0 0 0-2.012 1.125c-.57.444-1.023.918-1.359 1.43-.302.515-.457 2.045-.457 2.488q0 1.073 1.008 1.79 1.007.715 3.023.714 5.337.001 9.012-2.812a98 98 0 0 0 4.73 1.941q2.468.87 5.438.871 3.373.002 5.387-1.43c1.342-.988 2.112-2.251 2.918-4.093.033-.206-.01-.343-.145-.41q-.152-.153-.355 0c-.571 1.16-.991 1.893-1.864 2.507q-1.31.921-3.828.922-3.02-.001-5.535-.668a60 60 0 0 1-4.734-1.586c2.08-2.49 3.712-6.02 4.886-10.59q1.057-4.296 2.063-7.16t2.164-4.55c.772-1.16 1.613-1.815 2.52-2.258.94-.478 2.044-.711 3.32-.711q1.408.001 2.312.512.957.46 1.41 1.226c.303.512.475.926.508 1.54.034.613-.052 1.823-.254 2.437q-.05.258.149.359c.168.07.323.054.457-.05.335-.58.65-1.914.953-2.8.302-.923.457-1.73.457-2.412 0-1.057-.323-1.94-.96-2.656q-.957-1.125-2.517-1.125m-28.242 26.68c1.443 0 2.803.2 4.078.61 1.276.409 2.536 1.942 3.778 2.487a6.1 6.1 0 0 1-2.621 1.532c-.94.238-2.01.359-3.22.359-1.375 0-2.454-.22-3.226-.664-.738-.443-1.105-2.056-1.105-2.738q0-1.586 2.316-1.586m4.719 8.316a3 3 0 0 0-3 3 3 3 0 0 0 3 3 3 3 0 0 0 3-3 3 3 0 0 0-3-3m16 0a3 3 0 0 0-3 3 3 3 0 0 0 3 3 3 3 0 0 0 3-3 3 3 0 0 0-3-3m-8 4a3 3 0 0 0-3 3 3 3 0 0 0 3 3 3 3 0 0 0 3-3 3 3 0 0 0-3-3"/><path fill="#fff" d="M32 992.362a28 28 0 0 0-28 28 28 28 0 0 0 .018.492A28 28 0 0 1 32 993.362a28 28 0 0 1 27.975 27.492 28 28 0 0 0 .025-.492 28 28 0 0 0-28-28" opacity=".2"/></g></svg>