<svg xmlns="http://www.w3.org/2000/svg" xml:space="preserve" viewBox="0 0 1793.77 1538.57"><path fill="#5f4d36" d="M934.87 1166.46c41.84-2.2 75.14-17.07 99.91-44.59 24.77-27.53 37.16-58.9 37.16-94.13 0-38.53-12.38-71.01-37.16-97.43-24.77-26.42-58.08-45.14-99.91-56.15v292.31zm-67.71-786.08c-40.74 2.2-72.66 15.41-95.79 39.63-23.12 24.22-34.68 52.29-34.68 84.22 0 33.03 11.29 63.03 33.86 90 22.57 26.98 54.77 43.21 96.61 48.72V380.37zm0 1013.98v-64.41c-61.66-5.5-114.22-15.97-157.71-31.38q-65.235-23.115-107.34-66.06c-28.07-28.63-48.72-64.13-61.93-106.52s-19.82-92.76-19.82-151.11h198.18c4.4 35.23 10.18 64.41 17.34 87.53s16.51 41.84 28.07 56.15 25.6 25.05 42.11 32.2c16.51 7.16 36.88 12.39 61.1 15.69V847.72Q784.585 826.255 723.49 799c-40.74-18.16-74.59-39.63-101.57-64.41-26.97-24.77-47.34-53.4-61.1-85.88q-20.64-48.72-20.64-116.43c0-42.93 8.26-83.39 24.77-121.38 16.51-37.98 39.36-71.29 68.53-99.91 29.18-28.63 63.58-51.19 103.22-67.71 39.63-16.51 83.12-25.32 130.46-26.42v-72.67h67.71v72.67c203.68 6.6 310.47 113.4 320.38 320.38h-194.87c-5.5-59.45-18.44-99.91-38.81-121.38s-49.27-33.31-86.7-35.51V664.4c73.76 24.22 132.94 47.89 177.53 71.01s78.72 47.61 102.39 73.49q35.505 38.805 47.07 85.05c7.71 30.83 11.56 66.61 11.56 107.34 0 48.44-7.98 92.2-23.94 131.29-15.97 39.08-38.81 72.94-68.54 101.56q-44.58 42.945-107.34 67.71c-41.84 16.51-88.08 25.87-138.72 28.07v64.41h-67.71z" data-iconColor="Latte"/><path d="M462.33 1411.31c-54.32 0-98.33-4.78-132.03-14.33-33.7-9.56-59.85-24.14-78.46-43.76s-30.93-44.51-36.97-74.69-9.05-65.38-9.05-105.62c0-9.05.5-22.13 1.51-39.23s1.76-35.21 2.27-54.32c.5-19.11 1.26-36.97 2.26-53.56 1.01-16.6 1.51-28.42 1.51-35.46 0-58.34-8.8-99.08-26.41-122.22-17.6-23.13-50.05-34.7-97.33-34.7V703.66c47.28 0 79.72-11.82 97.33-35.46 17.6-23.64 26.41-64.63 26.41-122.97 0-7.04-.5-18.86-1.51-35.46s-1.76-33.95-2.26-52.06-1.26-35.71-2.27-52.81-1.51-30.18-1.51-39.23c0-40.24 3.02-75.45 9.05-105.62 6.03-30.18 18.36-55.08 36.97-74.69 18.61-19.62 44.76-34.2 78.46-43.76q50.55-14.34 132.03-14.34h55.83v123.73h-33.2c-44.26 0-74.18 7.04-89.78 21.12-15.59 14.08-23.39 38.73-23.39 73.94 0 45.27 1.51 90.03 4.53 134.29s4.53 89.02 4.53 134.29c0 21.12-4.53 40.49-13.58 58.09q-13.575 26.4-35.46 46.77c-14.59 13.58-31.69 24.4-51.3 32.44-19.62 8.05-39.98 13.58-61.11 16.6q31.68 4.53 61.11 16.59c19.61 8.05 36.72 18.86 51.3 32.44q21.885 20.37 35.46 46.77c9.05 17.6 13.58 36.97 13.58 58.09 0 45.27-1.51 90.28-4.53 135.04s-4.53 89.78-4.53 135.05c0 35.21 7.79 59.85 23.39 73.94 15.59 14.08 45.52 21.12 89.78 21.12h33.2v123.73h-55.83zm813.28 0v-123.73h33.2c44.26 0 74.19-7.04 89.78-21.12s23.39-38.73 23.39-73.94c0-45.27-1.51-90.28-4.53-135.05-3.02-44.76-4.53-89.78-4.53-135.04 0-21.12 4.53-40.49 13.58-58.09q13.575-26.4 35.46-46.77c14.59-13.58 31.69-24.4 51.3-32.44q29.415-12.075 61.11-16.59c-21.12-3.02-41.5-8.55-61.11-16.6-19.62-8.05-36.72-18.86-51.3-32.44q-21.885-20.37-35.46-46.77c-9.05-17.6-13.58-36.97-13.58-58.09 0-45.27 1.51-90.03 4.53-134.29s4.53-89.02 4.53-134.29c0-35.21-7.8-59.85-23.39-73.94-15.59-14.08-45.52-21.12-89.78-21.12h-33.2V127.27h55.83q81.48 0 132.03 14.34c33.7 9.55 59.85 24.14 78.46 43.76 18.61 19.61 30.93 44.51 36.97 74.69 6.03 30.17 9.05 65.38 9.05 105.62 0 9.05-.5 22.13-1.51 39.23s-1.76 34.7-2.26 52.81-1.26 35.46-2.27 52.06c-1.01 16.59-1.51 28.41-1.51 35.46 0 58.34 8.8 99.33 26.41 122.97q26.4 35.46 97.32 35.46v129.76c-47.28 0-79.72 11.57-97.32 34.7-17.6 23.14-26.41 63.88-26.41 122.22 0 7.04.5 18.86 1.51 35.46s1.76 34.45 2.27 53.56c.5 19.11 1.26 37.22 2.26 54.32 1.01 17.1 1.51 30.18 1.51 39.23 0 40.24-3.02 75.44-9.05 105.62-6.04 30.18-18.36 55.07-36.97 74.69-18.61 19.61-44.76 34.2-78.46 43.76-33.7 9.55-77.7 14.33-132.03 14.33h-55.83z" class="fil2"/></svg>