<svg xmlns="http://www.w3.org/2000/svg" viewBox="0 0 64 64"><rect width="56" height="56" x="4" y="5" opacity=".2" rx="2.8" ry="2.8"/><rect width="56" height="56" x="4" y="4" fill="#009d8b" rx="2.8" ry="2.8"/><path fill="#0ac6b0" d="M6.8 4A2.794 2.794 0 0 0 4 6.8V10h56V6.8C60 5.249 58.751 4 57.2 4Z"/><path fill="none" stroke="#000" stroke-linecap="round" stroke-linejoin="round" stroke-width="8" d="m15.998 31 10 12 22-22" opacity=".2"/><path fill="none" stroke="#fff" stroke-linecap="round" stroke-linejoin="round" stroke-width="8" d="m15.998 30 10 12 22-22"/><path d="M4 10h56v1H4z" opacity=".1"/><path fill="#fff" d="M6.8 4C5.25 4 4 5.25 4 6.8v1C4 6.25 5.25 5 6.8 5h50.4C58.75 5 60 6.25 60 7.8v-1C60 5.25 58.75 4 57.2 4z" opacity=".2"/></svg>