<svg xmlns="http://www.w3.org/2000/svg" xmlns:xlink="http://www.w3.org/1999/xlink" viewBox="0 0 120 110"><defs><path id="a" d="M15.912 110c8.787 0 15.911-7.117 15.911-15.896S24.7 78.207 15.912 78.207C7.124 78.208 0 85.325 0 94.105S7.124 110 15.912 110"/></defs><g fill="#01dff2" data-iconColor="Leo"><use xlink:href="#a"/><use xlink:href="#a"/><use xlink:href="#a"/><use xlink:href="#a"/><use xlink:href="#a"/><use xlink:href="#a"/><use xlink:href="#a"/><use xlink:href="#a"/><use xlink:href="#a"/><use xlink:href="#a"/><use xlink:href="#a"/><use xlink:href="#a"/><use xlink:href="#a"/><use xlink:href="#a"/><use xlink:href="#a"/><use xlink:href="#a"/><use xlink:href="#a"/><use xlink:href="#a"/><use xlink:href="#a"/><use xlink:href="#a"/><use xlink:href="#a"/><use xlink:href="#a"/><use xlink:href="#a"/><use xlink:href="#a"/><use xlink:href="#a"/><use xlink:href="#a"/><use xlink:href="#a"/><use xlink:href="#a"/><use xlink:href="#a"/><use xlink:href="#a"/><use xlink:href="#a"/><use xlink:href="#a"/><use xlink:href="#a"/><use xlink:href="#a"/><use xlink:href="#a"/><use xlink:href="#a"/><use xlink:href="#a"/><use xlink:href="#a"/><use xlink:href="#a"/><use xlink:href="#a"/><use xlink:href="#a"/><use xlink:href="#a"/><use xlink:href="#a"/><use xlink:href="#a"/><use xlink:href="#a"/><use xlink:href="#a"/><use xlink:href="#a"/><use xlink:href="#a"/><use xlink:href="#a"/><use xlink:href="#a"/><use xlink:href="#a"/><use xlink:href="#a"/><use xlink:href="#a"/><use xlink:href="#a"/><use xlink:href="#a"/><use xlink:href="#a"/><use xlink:href="#a"/><use xlink:href="#a"/><use xlink:href="#a"/><use xlink:href="#a"/><use xlink:href="#a"/><use xlink:href="#a"/><use xlink:href="#a"/><use xlink:href="#a"/><use xlink:href="#a"/><use xlink:href="#a"/><use xlink:href="#a"/><use xlink:href="#a"/><use xlink:href="#a"/><use xlink:href="#a"/><use xlink:href="#a"/><use xlink:href="#a"/><use xlink:href="#a"/><use xlink:href="#a"/><use xlink:href="#a"/><use xlink:href="#a"/><use xlink:href="#a"/><use xlink:href="#a"/><use xlink:href="#a"/><use xlink:href="#a"/><use xlink:href="#a"/><use xlink:href="#a"/><use xlink:href="#a"/><use xlink:href="#a"/><use xlink:href="#a"/><use xlink:href="#a"/><path d="M16.31 109.283c8.788 0 15.912-7.117 15.912-15.896S25.098 77.49 16.31 77.49.398 84.607.398 93.387c0 8.779 7.124 15.896 15.912 15.896"/><path d="M16.709 108.606c8.787 0 15.911-7.117 15.911-15.897 0-8.779-7.124-15.896-15.911-15.896C7.92 76.813.797 83.93.797 92.709s7.124 15.897 15.912 15.897"/><path d="M17.105 107.889c8.788 0 15.912-7.118 15.912-15.897s-7.124-15.896-15.912-15.896S1.193 83.213 1.193 91.992s7.124 15.897 15.912 15.897"/><path d="M17.507 107.171c8.788 0 15.912-7.117 15.912-15.896s-7.124-15.897-15.912-15.897S1.596 82.496 1.596 91.275 8.72 107.17 17.507 107.17"/><path d="M17.906 106.454c8.788 0 15.912-7.117 15.912-15.896s-7.124-15.896-15.912-15.896S1.994 81.779 1.994 90.558s7.124 15.896 15.912 15.896"/><path d="M18.306 105.737c8.788 0 15.912-7.117 15.912-15.896s-7.124-15.897-15.912-15.897S2.395 81.061 2.395 89.841s7.123 15.896 15.911 15.896"/><path d="M18.703 105.02c8.787 0 15.911-7.117 15.911-15.896S27.49 73.227 18.703 73.227c-8.788 0-15.912 7.117-15.912 15.897 0 8.779 7.124 15.896 15.912 15.896"/><path d="M19.101 104.343c8.788 0 15.912-7.117 15.912-15.897S27.889 72.55 19.1 72.55 3.19 79.667 3.19 88.446s7.124 15.897 15.912 15.897"/><path d="M19.539 103.625c8.787 0 15.911-7.117 15.911-15.896s-7.124-15.897-15.91-15.897c-8.788 0-15.912 7.118-15.912 15.897s7.124 15.896 15.912 15.896"/><path d="M19.941 102.909c8.788 0 15.912-7.118 15.912-15.897S28.729 71.116 19.94 71.116 4.029 78.233 4.029 87.012s7.124 15.897 15.912 15.897"/><path d="M20.337 102.191c8.788 0 15.912-7.117 15.912-15.896s-7.124-15.897-15.912-15.897S4.426 77.516 4.426 86.295s7.124 15.896 15.911 15.896"/><path d="M20.738 101.473c8.788 0 15.912-7.117 15.912-15.896s-7.124-15.896-15.912-15.896S4.826 76.798 4.826 85.577s7.124 15.896 15.912 15.896"/><path d="M21.134 100.757c8.788 0 15.912-7.117 15.912-15.896s-7.124-15.897-15.912-15.897S5.223 76.081 5.223 84.861s7.124 15.896 15.911 15.896"/><path d="M21.535 100.079c8.788 0 15.911-7.117 15.911-15.896s-7.123-15.896-15.911-15.896S5.623 75.404 5.623 84.183s7.124 15.896 15.912 15.896"/><path d="M21.933 99.363c8.788 0 15.912-7.117 15.912-15.896S30.72 67.57 21.933 67.57 6.021 74.687 6.021 83.467s7.124 15.896 15.912 15.896"/><path d="M22.332 98.646c8.787 0 15.911-7.117 15.911-15.897 0-8.779-7.124-15.896-15.911-15.896-8.788 0-15.912 7.117-15.912 15.896s7.124 15.897 15.912 15.897"/><path d="M22.73 97.928c8.788 0 15.912-7.117 15.912-15.897S31.518 66.135 22.73 66.135 6.818 73.252 6.818 82.03s7.124 15.897 15.912 15.897"/><path d="M23.13 97.21c8.788 0 15.912-7.116 15.912-15.896 0-8.779-7.124-15.896-15.912-15.896S7.22 72.535 7.22 81.314s7.124 15.897 15.911 15.897"/><path d="M23.529 96.494c8.788 0 15.912-7.118 15.912-15.897s-7.124-15.896-15.912-15.896S7.617 71.818 7.617 80.597s7.124 15.897 15.912 15.897"/><path d="M23.93 95.777c8.787 0 15.91-7.117 15.91-15.897 0-8.779-7.123-15.896-15.91-15.896-8.788 0-15.912 7.117-15.912 15.896s7.124 15.897 15.911 15.897"/><path d="M24.326 95.1c8.788 0 15.911-7.118 15.911-15.897s-7.123-15.896-15.911-15.896S8.414 70.424 8.414 79.203s7.124 15.896 15.912 15.896"/><path d="M24.726 94.383c8.788 0 15.912-7.117 15.912-15.897S33.514 62.59 24.726 62.59 8.814 69.707 8.814 78.486s7.124 15.897 15.912 15.897"/><path d="M25.123 93.665c8.787 0 15.911-7.117 15.911-15.896S33.91 61.873 25.123 61.873c-8.788 0-15.912 7.117-15.912 15.896s7.124 15.896 15.912 15.896"/><path d="M25.523 92.948c8.788 0 15.912-7.117 15.912-15.896S34.31 61.155 25.523 61.155 9.611 68.272 9.611 77.052c0 8.779 7.124 15.896 15.912 15.896"/><path d="M25.92 92.23c8.787 0 15.911-7.116 15.911-15.896 0-8.779-7.124-15.896-15.912-15.896s-15.911 7.117-15.911 15.896 7.124 15.897 15.912 15.897"/><path d="M26.322 91.514c8.788 0 15.912-7.117 15.912-15.896S35.11 59.72 26.322 59.72 10.41 66.838 10.41 75.618s7.124 15.896 15.912 15.896"/><path d="M26.72 90.836c8.788 0 15.912-7.117 15.912-15.896S35.508 59.044 26.72 59.044 10.81 66.16 10.81 74.94s7.124 15.896 15.911 15.896"/><path d="M27.12 90.12c8.788 0 15.912-7.118 15.912-15.897s-7.124-15.896-15.911-15.896c-8.788 0-15.912 7.117-15.912 15.896S18.333 90.12 27.121 90.12"/><path d="M27.517 89.402c8.788 0 15.912-7.117 15.912-15.896s-7.124-15.897-15.912-15.897-15.911 7.117-15.911 15.897 7.123 15.896 15.911 15.896"/><path d="M27.916 88.685c8.787 0 15.911-7.117 15.911-15.897 0-8.779-7.124-15.896-15.911-15.896-8.788 0-15.912 7.117-15.912 15.896s7.124 15.897 15.912 15.897"/><path d="M28.314 87.968c8.788 0 15.912-7.117 15.912-15.896s-7.124-15.897-15.912-15.897-15.912 7.117-15.912 15.897c0 8.779 7.124 15.896 15.912 15.896"/><path d="M28.71 87.25c8.788 0 15.912-7.116 15.912-15.896 0-8.779-7.124-15.896-15.911-15.896-8.788 0-15.912 7.117-15.912 15.896s7.124 15.897 15.912 15.897"/><path d="M29.11 86.534c8.789 0 15.913-7.118 15.913-15.897S37.899 54.741 29.11 54.741s-15.912 7.117-15.912 15.896 7.124 15.897 15.912 15.897"/><path d="M29.51 85.856c8.787 0 15.911-7.117 15.911-15.896s-7.124-15.896-15.912-15.896S13.598 61.18 13.598 69.96s7.123 15.896 15.911 15.896"/><path d="M29.949 85.139c8.787 0 15.911-7.118 15.911-15.897s-7.123-15.896-15.91-15.896-15.912 7.117-15.912 15.896 7.124 15.896 15.912 15.896"/><path d="M30.347 84.422c8.788 0 15.912-7.117 15.912-15.896s-7.124-15.897-15.912-15.897-15.912 7.118-15.912 15.897 7.124 15.896 15.912 15.896"/><path d="M30.748 83.705c8.787 0 15.911-7.117 15.911-15.897 0-8.779-7.124-15.896-15.911-15.896-8.788 0-15.912 7.117-15.912 15.896s7.124 15.897 15.912 15.897"/><path d="M31.144 82.988c8.788 0 15.912-7.117 15.912-15.896s-7.124-15.897-15.912-15.897-15.912 7.117-15.912 15.897 7.124 15.896 15.912 15.896"/><path d="M31.545 82.271c8.787 0 15.911-7.117 15.911-15.896s-7.124-15.897-15.912-15.897-15.911 7.118-15.911 15.897S22.757 82.27 31.545 82.27"/><path d="M31.943 81.594c8.788 0 15.912-7.117 15.912-15.897S40.73 49.801 31.943 49.801 16.03 56.918 16.03 65.697s7.124 15.897 15.912 15.897"/><path d="M32.343 80.876c8.788 0 15.912-7.117 15.912-15.896s-7.124-15.897-15.912-15.897-15.911 7.118-15.911 15.897 7.124 15.896 15.911 15.896"/><path d="M32.74 80.16c8.788 0 15.911-7.118 15.911-15.897S41.528 48.367 32.74 48.367s-15.912 7.117-15.912 15.896S23.952 80.16 32.74 80.16"/><path d="M33.138 79.443c8.788 0 15.912-7.117 15.912-15.897 0-8.779-7.124-15.896-15.912-15.896s-15.911 7.117-15.911 15.896 7.124 15.897 15.911 15.897"/><path d="M33.539 78.725c8.787 0 15.911-7.117 15.911-15.896s-7.124-15.896-15.91-15.896c-8.788 0-15.912 7.117-15.912 15.896s7.124 15.896 15.912 15.896"/><path d="M33.937 78.008c8.788 0 15.912-7.117 15.912-15.896s-7.124-15.897-15.912-15.897-15.912 7.117-15.912 15.897 7.124 15.896 15.912 15.896"/><path d="M34.336 77.29c8.787 0 15.911-7.117 15.911-15.896s-7.124-15.896-15.911-15.896c-8.788 0-15.912 7.117-15.912 15.896S25.548 77.29 34.336 77.29"/><path d="M34.734 76.614c8.788 0 15.912-7.117 15.912-15.897s-7.124-15.896-15.912-15.896-15.912 7.117-15.912 15.896 7.124 15.897 15.912 15.897"/><path d="M35.134 75.896c8.788 0 15.912-7.117 15.912-15.896s-7.124-15.897-15.912-15.897S19.223 51.222 19.223 60s7.124 15.896 15.911 15.896"/><path d="M35.533 75.18c8.788 0 15.911-7.118 15.911-15.897s-7.123-15.896-15.911-15.896S19.62 50.504 19.62 59.283 26.745 75.18 35.533 75.18"/><path d="M35.931 74.463c8.788 0 15.912-7.117 15.912-15.897 0-8.779-7.124-15.896-15.912-15.896S20.02 49.787 20.02 58.566s7.123 15.897 15.911 15.897"/><path d="M36.332 73.745c8.787 0 15.911-7.117 15.911-15.896S45.12 41.952 36.332 41.952 20.42 49.069 20.42 57.849c0 8.779 7.124 15.896 15.912 15.896"/><path d="M36.728 73.028c8.788 0 15.912-7.117 15.912-15.896s-7.124-15.897-15.912-15.897-15.912 7.117-15.912 15.897 7.124 15.896 15.912 15.896"/><path d="M37.129 72.35c8.787 0 15.911-7.117 15.911-15.896s-7.124-15.896-15.91-15.896c-8.788 0-15.912 7.117-15.912 15.896S28.34 72.35 37.129 72.35"/><path d="M37.525 71.634c8.788 0 15.912-7.117 15.912-15.897s-7.124-15.896-15.912-15.896-15.912 7.117-15.912 15.896 7.124 15.897 15.912 15.897"/><path d="M37.925 70.916c8.788 0 15.912-7.117 15.912-15.896s-7.124-15.897-15.912-15.897-15.911 7.118-15.911 15.897 7.124 15.896 15.911 15.896"/><path d="M38.285 70.319c8.788 0 15.911-7.117 15.911-15.897s-7.123-15.896-15.911-15.896-15.912 7.117-15.912 15.896S29.497 70.32 38.285 70.32"/><path d="M38.644 69.682c8.788 0 15.912-7.117 15.912-15.896s-7.124-15.897-15.912-15.897-15.912 7.117-15.912 15.897c0 8.779 7.124 15.896 15.912 15.896"/><path d="M38.96 69.084c8.788 0 15.912-7.117 15.912-15.897 0-8.779-7.124-15.896-15.911-15.896-8.788 0-15.912 7.117-15.912 15.896s7.124 15.897 15.912 15.897"/><path d="M39.32 68.487c8.788 0 15.911-7.117 15.911-15.897S48.109 36.694 39.32 36.694 23.408 43.81 23.408 52.59s7.124 15.897 15.912 15.897"/><path d="M39.64 67.849c8.788 0 15.912-7.118 15.912-15.897S48.428 36.056 39.64 36.056s-15.91 7.117-15.91 15.896S30.852 67.85 39.64 67.85"/><path d="M39.998 67.25c8.787 0 15.911-7.116 15.911-15.896 0-8.779-7.124-15.896-15.911-15.896-8.788 0-15.912 7.117-15.912 15.896s7.124 15.897 15.912 15.897"/><path d="M40.359 66.653c8.788 0 15.912-7.117 15.912-15.896S49.147 34.86 40.359 34.86s-15.912 7.117-15.912 15.897 7.124 15.896 15.912 15.896"/><path d="M40.677 66.016c8.788 0 15.912-7.117 15.912-15.897 0-8.779-7.124-15.896-15.912-15.896S24.766 41.34 24.766 50.12c0 8.779 7.124 15.896 15.911 15.896"/><path d="M41.035 65.418c8.788 0 15.911-7.117 15.911-15.896s-7.123-15.896-15.911-15.896-15.912 7.117-15.912 15.896 7.124 15.896 15.912 15.896"/><path d="M41.394 64.82c8.788 0 15.912-7.116 15.912-15.896s-7.124-15.896-15.912-15.896-15.912 7.117-15.912 15.896 7.124 15.897 15.912 15.897"/><path d="M41.714 64.184c8.788 0 15.912-7.117 15.912-15.896S50.502 32.39 41.714 32.39s-15.911 7.117-15.911 15.897c0 8.779 7.124 15.896 15.911 15.896"/><path d="M42.074 63.586c8.788 0 15.911-7.117 15.911-15.897 0-8.779-7.123-15.896-15.911-15.896S26.162 38.91 26.162 47.689s7.124 15.897 15.912 15.897"/><path d="M42.39 62.989c8.788 0 15.912-7.117 15.912-15.897S51.178 31.196 42.39 31.196s-15.91 7.117-15.91 15.896S33.602 62.99 42.39 62.99"/><path d="M42.752 62.35c8.787 0 15.911-7.117 15.911-15.896S51.54 30.558 42.752 30.558 26.84 37.675 26.84 46.454 33.964 62.35 42.752 62.35"/><path d="M43.109 61.753c8.788 0 15.912-7.117 15.912-15.896S51.897 29.96 43.109 29.96s-15.912 7.118-15.912 15.897 7.124 15.896 15.912 15.896"/><path d="M43.427 61.116c8.788 0 15.912-7.117 15.912-15.897s-7.124-15.896-15.912-15.896-15.911 7.117-15.911 15.896 7.124 15.897 15.911 15.897"/><path d="M43.787 60.518c8.787 0 15.911-7.117 15.911-15.896s-7.124-15.896-15.911-15.896c-8.788 0-15.912 7.117-15.912 15.896s7.124 15.896 15.912 15.896"/><path d="M44.148 59.92c8.788 0 15.912-7.116 15.912-15.896 0-8.779-7.124-15.896-15.912-15.896s-15.912 7.117-15.912 15.896 7.124 15.897 15.912 15.897"/><path d="M44.464 59.283c8.788 0 15.912-7.117 15.912-15.897S53.252 27.49 44.464 27.49s-15.911 7.117-15.911 15.896 7.124 15.896 15.911 15.896"/><path d="M44.822 58.685c8.788 0 15.911-7.117 15.911-15.897 0-8.779-7.123-15.896-15.911-15.896S28.91 34.01 28.91 42.79s7.124 15.896 15.912 15.896"/><path d="M45.142 58.088c8.788 0 15.912-7.117 15.912-15.897 0-8.779-7.124-15.896-15.912-15.896S29.23 33.412 29.23 42.19s7.124 15.897 15.912 15.897"/><path d="M45.504 57.45c8.787 0 15.911-7.117 15.911-15.896s-7.124-15.897-15.911-15.897c-8.788 0-15.912 7.117-15.912 15.897 0 8.779 7.124 15.896 15.912 15.896"/><path d="M45.86 56.852c8.789 0 15.913-7.117 15.913-15.896S54.649 25.06 45.86 25.06s-15.912 7.117-15.912 15.896 7.124 15.896 15.912 15.896"/><path d="M46.18 56.255c8.787 0 15.91-7.117 15.91-15.897 0-8.779-7.123-15.896-15.91-15.896-8.788 0-15.912 7.117-15.912 15.896s7.124 15.897 15.911 15.897"/><path d="M46.539 55.618c8.787 0 15.911-7.117 15.911-15.897s-7.124-15.896-15.91-15.896c-8.788 0-15.912 7.117-15.912 15.896s7.124 15.897 15.912 15.897"/><path d="M46.898 55.02c8.788 0 15.912-7.117 15.912-15.897 0-8.779-7.124-15.896-15.912-15.896s-15.912 7.117-15.912 15.897c0 8.779 7.124 15.896 15.912 15.896"/><path d="M47.216 54.422c8.788 0 15.912-7.117 15.912-15.896s-7.124-15.897-15.912-15.897-15.911 7.118-15.911 15.897 7.124 15.896 15.911 15.896"/><path d="M47.576 53.785c8.788 0 15.911-7.118 15.911-15.897s-7.123-15.896-15.911-15.896-15.912 7.117-15.912 15.896 7.124 15.897 15.912 15.897"/><path d="M47.894 53.187c8.788 0 15.912-7.117 15.912-15.897 0-8.779-7.124-15.896-15.912-15.896S31.982 28.511 31.982 37.29s7.124 15.897 15.912 15.897"/><path d="M48.254 52.59c8.787 0 15.911-7.118 15.911-15.897s-7.124-15.897-15.912-15.897-15.911 7.117-15.911 15.897 7.124 15.896 15.912 15.896"/><path d="M48.61 51.952c8.789 0 15.912-7.117 15.912-15.896S57.4 20.159 48.611 20.159s-15.912 7.117-15.912 15.897c0 8.779 7.124 15.896 15.912 15.896"/><path d="M48.93 51.354c8.787 0 15.91-7.117 15.91-15.896s-7.123-15.896-15.91-15.896c-8.788 0-15.912 7.117-15.912 15.896s7.124 15.896 15.911 15.896"/><path d="M49.29 50.757c8.788 0 15.912-7.117 15.912-15.896s-7.124-15.897-15.911-15.897c-8.788 0-15.912 7.117-15.912 15.897s7.124 15.896 15.912 15.896"/><path d="M49.65 50.12c8.788 0 15.912-7.118 15.912-15.897S58.438 18.327 49.65 18.327s-15.912 7.117-15.912 15.896S40.862 50.12 49.65 50.12"/><path d="M49.966 49.522c8.788 0 15.912-7.117 15.912-15.897 0-8.779-7.124-15.896-15.912-15.896s-15.911 7.117-15.911 15.896 7.124 15.897 15.911 15.897"/><path d="M50.328 48.924c8.787 0 15.911-7.117 15.911-15.896S59.115 17.13 50.328 17.13c-8.788 0-15.912 7.117-15.912 15.897s7.124 15.896 15.912 15.896"/><path d="M50.648 48.287c8.788 0 15.912-7.118 15.912-15.897s-7.124-15.896-15.912-15.896S34.736 23.61 34.736 32.39s7.124 15.896 15.912 15.896"/><path d="M51.004 47.689c8.787 0 15.911-7.117 15.911-15.897 0-8.779-7.124-15.896-15.912-15.896s-15.911 7.117-15.911 15.896S42.216 47.69 51.004 47.69"/><path d="M51.363 47.091c8.788 0 15.912-7.117 15.912-15.896S60.15 15.298 51.363 15.298 35.45 22.415 35.45 31.195 42.575 47.09 51.363 47.09"/><path d="M51.683 46.454c8.788 0 15.912-7.117 15.912-15.896S60.47 14.66 51.683 14.66s-15.911 7.117-15.911 15.897c0 8.779 7.123 15.896 15.911 15.896"/><path d="M52.043 45.856c8.787 0 15.911-7.117 15.911-15.896S60.83 14.063 52.043 14.063c-8.788 0-15.912 7.117-15.912 15.897s7.124 15.896 15.911 15.896"/><path d="M52.398 45.26c8.788 0 15.912-7.118 15.912-15.897s-7.124-15.897-15.912-15.897-15.912 7.117-15.912 15.897 7.124 15.896 15.912 15.896"/><path d="M52.72 44.621c8.788 0 15.912-7.117 15.912-15.896S61.508 12.829 52.72 12.829s-15.91 7.117-15.91 15.896 7.124 15.896 15.911 15.896"/><path d="M53.08 44.024c8.787 0 15.911-7.117 15.911-15.897 0-8.779-7.124-15.896-15.911-15.896-8.788 0-15.912 7.117-15.912 15.896s7.124 15.897 15.912 15.897"/><path d="M53.398 43.426c8.788 0 15.912-7.117 15.912-15.896s-7.124-15.897-15.912-15.897S37.486 18.75 37.486 27.53c0 8.779 7.124 15.896 15.912 15.896"/><path d="M53.757 42.789c8.788 0 15.912-7.117 15.912-15.897 0-8.779-7.124-15.896-15.912-15.896s-15.911 7.117-15.911 15.896S44.97 42.79 53.757 42.79"/><path d="M54.117 42.191c8.788 0 15.911-7.117 15.911-15.896s-7.124-15.897-15.911-15.897c-8.788 0-15.912 7.118-15.912 15.897S45.33 42.19 54.117 42.19"/><path d="M54.435 41.594c8.788 0 15.912-7.117 15.912-15.897S63.223 9.801 54.435 9.801s-15.912 7.117-15.912 15.896 7.124 15.897 15.912 15.897"/><path d="M54.793 40.956c8.787 0 15.911-7.117 15.911-15.897 0-8.779-7.124-15.896-15.911-15.896-8.788 0-15.912 7.117-15.912 15.897 0 8.779 7.124 15.896 15.911 15.896"/><path d="M55.154 40.359c8.788 0 15.911-7.117 15.911-15.897 0-8.779-7.123-15.896-15.911-15.896s-15.912 7.117-15.912 15.896S46.366 40.36 55.154 40.36"/><path d="M55.474 39.761c8.788 0 15.912-7.117 15.912-15.896S64.262 7.968 55.474 7.968s-15.911 7.117-15.911 15.897c0 8.779 7.123 15.896 15.911 15.896"/><path d="M55.832 39.123c8.787 0 15.911-7.117 15.911-15.896S64.62 7.331 55.832 7.331 39.92 14.448 39.92 23.227s7.124 15.896 15.912 15.896"/><path d="M56.15 38.526c8.788 0 15.912-7.117 15.912-15.897 0-8.779-7.124-15.896-15.912-15.896S40.238 13.85 40.238 22.629s7.124 15.897 15.912 15.897"/><path d="M56.507 37.928c8.788 0 15.912-7.117 15.912-15.896S65.295 6.135 56.507 6.135s-15.911 7.117-15.911 15.897c0 8.779 7.124 15.896 15.911 15.896"/><path d="M56.869 37.29c8.787 0 15.911-7.116 15.911-15.895S65.656 5.498 56.87 5.498c-8.788 0-15.912 7.117-15.912 15.897 0 8.779 7.124 15.896 15.912 15.896"/><path d="M57.187 36.693c8.788 0 15.912-7.117 15.912-15.896S65.975 4.9 57.187 4.9s-15.912 7.118-15.912 15.897S48.4 36.693 57.187 36.693"/><path d="M57.546 36.096c8.788 0 15.912-7.117 15.912-15.897S66.334 4.303 57.546 4.303 41.635 11.42 41.635 20.199s7.124 15.897 15.911 15.897"/><path d="M57.904 35.458c8.788 0 15.911-7.117 15.911-15.897 0-8.779-7.123-15.896-15.911-15.896s-15.912 7.117-15.912 15.896 7.124 15.897 15.912 15.897"/><path d="M58.222 34.86c8.788 0 15.912-7.116 15.912-15.896S67.01 3.068 58.222 3.068 42.31 10.185 42.31 18.964s7.124 15.897 15.912 15.897"/><path d="M58.582 34.263c8.787 0 15.911-7.117 15.911-15.896S67.37 2.47 58.582 2.47 42.67 9.587 42.67 18.367c0 8.779 7.124 15.896 15.912 15.896"/><path d="M58.9 33.626c8.788 0 15.912-7.117 15.912-15.897 0-8.779-7.124-15.896-15.912-15.896S42.988 8.95 42.988 17.729 50.112 33.626 58.9 33.626"/><path d="M59.261 33.028c8.788 0 15.912-7.117 15.912-15.897S68.049 1.235 59.26 1.235 43.35 8.352 43.35 17.13s7.124 15.897 15.911 15.897"/><path d="M59.619 32.43c8.787 0 15.911-7.117 15.911-15.896S68.406.638 59.62.638c-8.788 0-15.912 7.117-15.912 15.896s7.124 15.897 15.912 15.897"/><path d="M59.937 31.793c8.788 0 15.912-7.117 15.912-15.897C75.849 7.117 68.725 0 59.937 0S44.025 7.117 44.025 15.896s7.124 15.897 15.912 15.897"/><path d="M60.974 33.626c8.788 0 15.912-7.117 15.912-15.897 0-8.779-7.124-15.896-15.912-15.896S45.063 8.95 45.063 17.729s7.123 15.897 15.911 15.897"/><path d="M62.011 35.458c8.788 0 15.912-7.117 15.912-15.897 0-8.779-7.124-15.896-15.912-15.896S46.1 10.782 46.1 19.561s7.124 15.897 15.911 15.897"/><path d="M63.007 37.25c8.788 0 15.912-7.116 15.912-15.896 0-8.779-7.124-15.896-15.912-15.896s-15.911 7.117-15.911 15.896 7.124 15.897 15.911 15.897"/><path d="M64.046 39.084c8.788 0 15.912-7.117 15.912-15.897 0-8.779-7.124-15.896-15.912-15.896s-15.911 7.117-15.911 15.896 7.124 15.897 15.911 15.897"/><path d="M65.08 40.916c8.787 0 15.911-7.117 15.911-15.897 0-8.779-7.124-15.896-15.911-15.896-8.788 0-15.912 7.117-15.912 15.896s7.124 15.897 15.912 15.897"/><path d="M66.078 42.709c8.787 0 15.911-7.117 15.911-15.897 0-8.779-7.124-15.896-15.911-15.896-8.788 0-15.912 7.117-15.912 15.896S57.29 42.71 66.078 42.71"/><path d="M67.115 44.542c8.788 0 15.911-7.117 15.911-15.897 0-8.779-7.123-15.896-15.911-15.896s-15.912 7.117-15.912 15.896 7.124 15.897 15.912 15.897"/><path d="M68.156 46.375c8.788 0 15.911-7.117 15.911-15.897 0-8.779-7.123-15.896-15.911-15.896s-15.912 7.117-15.912 15.896 7.124 15.897 15.912 15.897"/><path d="M69.15 48.167c8.788 0 15.912-7.117 15.912-15.897 0-8.779-7.124-15.896-15.912-15.896S53.238 23.491 53.238 32.27s7.124 15.897 15.912 15.897"/><path d="M70.187 50c8.788 0 15.912-7.117 15.912-15.897 0-8.779-7.124-15.896-15.912-15.896s-15.912 7.117-15.912 15.896S61.4 50 70.187 50"/><path d="M71.224 51.833c8.788 0 15.912-7.117 15.912-15.896S80.012 20.04 71.224 20.04s-15.912 7.117-15.912 15.897c0 8.779 7.124 15.896 15.912 15.896"/><path d="M72.222 53.626c8.788 0 15.912-7.117 15.912-15.897 0-8.779-7.124-15.896-15.912-15.896S56.311 28.95 56.311 37.729s7.123 15.897 15.911 15.897"/><path d="M73.257 55.457c8.788 0 15.912-7.117 15.912-15.896s-7.124-15.896-15.912-15.896-15.911 7.117-15.911 15.896 7.124 15.896 15.911 15.896"/><path d="M74.295 57.25c8.787 0 15.911-7.116 15.911-15.896 0-8.779-7.124-15.896-15.912-15.896s-15.911 7.117-15.911 15.896 7.124 15.897 15.911 15.897"/><path d="M75.33 59.083c8.787 0 15.911-7.117 15.911-15.896S84.117 27.29 75.33 27.29c-8.788 0-15.912 7.117-15.912 15.896s7.124 15.896 15.912 15.896"/><path d="M76.328 60.916c8.787 0 15.911-7.117 15.911-15.896s-7.124-15.897-15.911-15.897c-8.788 0-15.912 7.118-15.912 15.897s7.124 15.896 15.912 15.896"/><path d="M77.367 62.71c8.787 0 15.911-7.118 15.911-15.897s-7.124-15.897-15.911-15.897c-8.788 0-15.912 7.118-15.912 15.897s7.124 15.896 15.912 15.896"/><path d="M78.402 64.542c8.788 0 15.912-7.117 15.912-15.897 0-8.779-7.124-15.896-15.912-15.896S62.49 39.866 62.49 48.645s7.124 15.897 15.912 15.897"/><path d="M79.398 66.374c8.788 0 15.912-7.117 15.912-15.896S88.186 34.58 79.398 34.58s-15.912 7.117-15.912 15.896 7.124 15.897 15.912 15.897"/><path d="M80.433 68.167c8.788 0 15.912-7.117 15.912-15.896S89.22 36.374 80.433 36.374s-15.912 7.118-15.912 15.897 7.124 15.896 15.912 15.896"/><path d="M81.474 70c8.788 0 15.912-7.118 15.912-15.897s-7.124-15.897-15.912-15.897-15.912 7.118-15.912 15.897 7.124 15.896 15.912 15.896"/><path d="M82.47 71.833c8.788 0 15.912-7.117 15.912-15.896S91.258 40.04 82.47 40.04s-15.91 7.117-15.91 15.897c0 8.779 7.124 15.896 15.911 15.896"/><path d="M83.507 73.625c8.788 0 15.912-7.117 15.912-15.896s-7.124-15.896-15.912-15.896-15.911 7.117-15.911 15.896 7.124 15.896 15.911 15.896"/><path d="M84.543 75.458c8.787 0 15.911-7.117 15.911-15.896S93.33 43.666 84.543 43.666c-8.788 0-15.912 7.117-15.912 15.896s7.124 15.896 15.912 15.896"/><path d="M85.54 77.29c8.788 0 15.912-7.117 15.912-15.896s-7.124-15.896-15.911-15.896c-8.788 0-15.912 7.117-15.912 15.896S76.753 77.29 85.54 77.29"/><path d="M86.578 79.083c8.787 0 15.911-7.117 15.911-15.896S95.365 47.29 86.578 47.29c-8.788 0-15.912 7.117-15.912 15.896s7.124 15.896 15.912 15.896"/><path d="M87.615 80.916c8.788 0 15.911-7.117 15.911-15.897 0-8.779-7.123-15.896-15.911-15.896S71.703 56.24 71.703 65.019s7.124 15.897 15.912 15.897"/><path d="M88.61 82.749c8.789 0 15.913-7.117 15.913-15.897 0-8.779-7.124-15.896-15.912-15.896s-15.912 7.117-15.912 15.896S79.823 82.75 88.611 82.75"/><path d="M89.646 84.542c8.788 0 15.912-7.117 15.912-15.897 0-8.779-7.124-15.896-15.912-15.896s-15.912 7.117-15.912 15.896 7.124 15.897 15.912 15.897"/><path d="M90.685 86.374c8.788 0 15.912-7.117 15.912-15.896s-7.124-15.896-15.912-15.896-15.912 7.117-15.912 15.896 7.124 15.896 15.912 15.896"/><path d="M91.683 88.207c8.788 0 15.912-7.117 15.912-15.896s-7.124-15.897-15.912-15.897-15.912 7.117-15.912 15.897c0 8.779 7.124 15.896 15.912 15.896"/><path d="M92.718 90c8.788 0 15.912-7.117 15.912-15.897 0-8.779-7.124-15.896-15.912-15.896s-15.911 7.117-15.911 15.896S83.93 90 92.718 90"/><path d="M93.755 91.832c8.788 0 15.912-7.117 15.912-15.896S102.543 60.04 93.755 60.04s-15.911 7.117-15.911 15.896 7.124 15.896 15.911 15.896"/><path d="M94.752 93.625c8.787 0 15.911-7.117 15.911-15.897 0-8.779-7.124-15.896-15.912-15.896S78.84 68.949 78.84 77.728s7.124 15.897 15.911 15.897"/><path d="M95.789 95.458c8.787 0 15.911-7.117 15.911-15.897 0-8.779-7.124-15.896-15.911-15.896-8.788 0-15.912 7.117-15.912 15.896s7.124 15.897 15.912 15.897"/><path d="M96.826 97.29c8.787 0 15.911-7.116 15.911-15.896 0-8.779-7.124-15.896-15.911-15.896-8.788 0-15.912 7.117-15.912 15.896s7.124 15.897 15.912 15.897"/><path d="M97.822 99.084c8.788 0 15.911-7.117 15.911-15.897 0-8.779-7.123-15.896-15.911-15.896S81.91 74.408 81.91 83.187s7.124 15.897 15.912 15.897"/><path d="M98.86 100.916c8.789 0 15.913-7.117 15.913-15.897 0-8.779-7.124-15.896-15.912-15.896S82.949 76.24 82.949 85.019s7.124 15.897 15.912 15.897"/><path d="M99.896 102.749c8.788 0 15.912-7.117 15.912-15.896s-7.124-15.897-15.912-15.897-15.912 7.117-15.912 15.897c0 8.779 7.124 15.896 15.912 15.896"/><path d="M100.894 104.542c8.788 0 15.912-7.117 15.912-15.897 0-8.779-7.124-15.896-15.912-15.896s-15.912 7.117-15.912 15.896 7.124 15.897 15.912 15.897"/><path d="M101.931 106.374c8.788 0 15.912-7.117 15.912-15.897 0-8.779-7.124-15.896-15.912-15.896s-15.912 7.117-15.912 15.896 7.124 15.897 15.912 15.897"/><path d="M102.966 108.207c8.788 0 15.912-7.117 15.912-15.896s-7.124-15.896-15.912-15.896-15.911 7.117-15.911 15.896 7.124 15.896 15.911 15.896"/><path d="M104.005 110c8.788 0 15.912-7.117 15.912-15.896s-7.124-15.897-15.912-15.897-15.911 7.118-15.911 15.897S95.218 110 104.005 110"/></g></svg>