<svg xmlns="http://www.w3.org/2000/svg" viewBox="0 0 64 64"><path d="m20.8 21.8-4.95 4.95L30.503 41H36v5h4v4h6v5h3v4.698L50.302 61H60Z" opacity=".2"/><path fill="#e8973e" d="m20.8 20.8-4.95 4.95L30.503 40H36v5h4v4h6v5h3v4.698L50.302 60H60Z"/><path d="M25.75 16.85 20.8 21.8 60 61v-9.898z" opacity=".2"/><path fill="#f0c550" d="M25.75 15.85 20.8 20.8 60 60v-9.898z"/><path fill="#fff" d="M25.75 15.852 20.8 20.8l.5.5 4.45-4.45L60 51.102v-1z" opacity=".2"/><circle cx="21" cy="22" r="17" opacity=".2"/><circle cx="21" cy="21" r="17" fill="#f0c550"/><circle cx="17" cy="18" r="7" opacity=".2"/><circle cx="17" cy="17" r="7" fill="#fff"/><path fill="#fff" d="M21 4A17 17 0 0 0 4 21a17 17 0 0 0 .021.58A17 17 0 0 1 21 5a17 17 0 0 1 16.979 16.42A17 17 0 0 0 38 21 17 17 0 0 0 21 4" opacity=".2"/></svg>