<svg xmlns="http://www.w3.org/2000/svg" viewBox="0 0 24 24"><g fill="#303030"><path d="M12 6c-3.302 0-6 2.698-6 6s2.698 6 6 6 6-2.698 6-6-2.698-6-6-6m0-1c3.854 0 7 3.146 7 7s-3.146 7-7 7-7-3.146-7-7 3.146-7 7-7"/><path d="M9.974 15.44c.099.058.208.114.337.176q.093.046.19.087c.166.066.343.12.571.175q.112.03.208.05c.019.002.023.003.06.01.216.037.434.058.64.06L12 16l.047-.003.14-.009c.06 0 .126-.004.173-.007.068-.006.13-.015.285-.04l.135-.022.054-.012.055-.014c.203-.045.397-.104.627-.193l.077-.038.035-.016c.023-.01.023-.01.062-.03a4 4 0 0 0 .457-.248l.082-.048.115-.086c.14-.1.267-.205.41-.339.031-.027.064-.057.055-.045l.091-.1a4 4 0 0 0 .357-.438l.036-.046.034-.055.067-.11c.089-.144.165-.285.255-.477.02-.041.02-.041.02-.037.018-.05.018-.05.02-.05l.009-.027.022-.06a4.2 4.2 0 0 0 .254-.998c.003-.04.006-.08.01-.174l.005-.083a1.2 1.2 0 0 0 .007-.225 4 4 0 0 0-.013-.277 4 4 0 0 0-.044-.371 4 4 0 0 0-.062-.264 4 4 0 0 0-.172-.557 5 5 0 0 0-.092-.196 4 4 0 0 0-.17-.331zm2.17.571-.011-.002zm.623-.088-.006.001zm3.204-3.293.002.02-.004-.091h.225l-.227-.03c-.001.03.001.057.004.1m.005-.178.778.076-.772-.11zm.031-.342-.002-.013zm-.472-3.643q.06.062.115.127.206.22.383.465.105.14.197.287.163.26.291.54.059.117.11.235c.095.242.163.47.219.703q.04.15.07.303.043.246.06.496.014.165.016.332l.004.045-.002.031q-.003.12-.012.239-.006.14-.017.279c-.005.052-.012.08-.016.11q-.025.191-.064.376l-.028.106q-.081.345-.209.67l-.021.06-.041.108-.057.11a5 5 0 0 1-.289.538l-.07.115-.047.078-.082.108q-.194.27-.42.511l-.088.096-.125.113a5 5 0 0 1-.482.397q-.052.04-.106.078l-.04.03-.138.081a5 5 0 0 1-.539.291l-.095.045c-.034.015-.065.035-.098.05l-.041.013a5 5 0 0 1-.766.236l-.03.008-.128.03-.162.025a6 6 0 0 1-.328.045q-.128.009-.254.011c-.068.003-.136.012-.205.012a5 5 0 0 1-.834-.078l-.062-.01a5 5 0 0 1-.286-.066 5 5 0 0 1-.672-.207 5 5 0 0 1-.279-.127 5 5 0 0 1-1.402-.977z"/></g></svg>