<svg xmlns="http://www.w3.org/2000/svg" viewBox="0 0 64 64"><path d="M4 56v2c0 1.662 1.338 3 3 3h50c1.662 0 3-1.338 3-3v-2c0 1.662-1.338 3-3 3H7c-1.662 0-3-1.338-3-3" opacity=".2"/><path fill="#2d4a5d" d="M32 4H7C5.338 4 4 5.338 4 7v25h28z"/><path fill="#1f8fd7" d="M32 4h25c1.662 0 3 1.338 3 3v25H32zm0 56H7c-1.662 0-3-1.338-3-3V32h28z"/><path fill="#2d4a5d" d="M32 60h25c1.662 0 3-1.338 3-3V32H32z"/><path fill="#fff" d="M7 4C5.338 4 4 5.338 4 7v1c0-1.662 1.338-3 3-3h50c1.662 0 3 1.338 3 3V7c0-1.662-1.338-3-3-3z" opacity=".1"/></svg>