<svg xmlns="http://www.w3.org/2000/svg" xmlns:xlink="http://www.w3.org/1999/xlink" viewBox="0 0 96 96"><defs><linearGradient id="b" x1="50%" x2="50%" y1="0%" y2="100%"><stop offset="0%" stop-color="#fff9f9"/><stop offset="100%" stop-color="#e8e8e8"/></linearGradient><linearGradient id="c" x1="50%" x2="50%" y1="0%" y2="100%"><stop offset="0%" stop-color="#50c242"/><stop offset="100%" stop-color="#1f8f35"/></linearGradient><linearGradient id="d" x1="50%" x2="50%" y1="0%" y2="100%"><stop offset="0%" stop-color="#3ece67"/><stop offset="100%" stop-color="#1e8f35"/></linearGradient><filter id="a" width="129.3%" height="129.3%" x="-14.6%" y="-14.6%" filterUnits="objectBoundingBox"><feOffset dy="2" in="SourceAlpha" result="shadowOffsetOuter1"/><feGaussianBlur in="shadowOffsetOuter1" result="shadowBlurOuter1" stdDeviation="2"/><feComposite in="shadowBlurOuter1" in2="SourceAlpha" operator="out" result="shadowBlurOuter1"/><feColorMatrix in="shadowBlurOuter1" result="shadowMatrixOuter1" values="0 0 0 0 0 0 0 0 0 0 0 0 0 0 0 0 0 0 0.2 0"/><feMerge><feMergeNode in="shadowMatrixOuter1"/><feMergeNode in="SourceGraphic"/></feMerge></filter></defs><g fill="none" fill-rule="evenodd" filter="url(#a)" transform="translate(7 7)"><circle cx="41" cy="41" r="40" fill="url(#b)" stroke="#e2e2e2" stroke-width="2"/><path fill="url(#c)" fill-rule="nonzero" d="M54.099 58.212q.88-.317 2.011-.098a3.9 3.9 0 0 1 1.441.574q.617.413.992 1 .735 1.242.425 2.845l-.425 2.966H53.5q-.1.663-.143.967c-.048.347-.1.898.043 1.115s.44.287.8.358q.684.132.985-.225.303-.357.427-.748h2.493c-.205 1.052-.781 2.305-1.55 2.824a3.4 3.4 0 0 1-1.282.557q-.715.154-1.54-.005-1.13-.22-1.828-.845a3.3 3.3 0 0 1-.97-1.484 3.3 3.3 0 0 1-.143-1.153q.024-.63.166-1.36l.765-3.935q.142-.73.355-1.325a3.3 3.3 0 0 1 .565-1.015q.574-.694 1.456-1.013M47.028 58q.456 0 .936.156t.864.516c.256.24.46.55.624.924q.24.543.192 1.76-.192 1.841-1.68 8.956h-2.72l2-8.424c.077-.497.077-.727-.131-.983q-.312-.384-.888-.384-.696 0-.96.432c-.176.288-.281.572-.445 1.175l-2 8.184h-2.65l2.13-8.424c.128-.45.004-.8-.204-1.056s-.38-.432-.764-.432q-.696 0-.96.432c-.176.288-.201.608-.424 1.296a393 393 0 0 0-1.84 8.136q-1.006.048-2.938.048l2.33-12.168h2.496l-.214 1.176c.256-.384.609-.688.969-.936S41.74 58 42.3 58q.792 0 1.32.384t.864.84a5.2 5.2 0 0 1 1.008-.864q.552-.36 1.536-.36m-19.274-3-2.237 12.334h4.691v2.754H22L25 55zm7.954 3.688-2.288 11.4h-2.712l2.288-11.4zm19.782 1.789c-.43 0-.609 0-1.053.455q-.443.456-.58 2.474h2.482l.176-1.304c.048-.47.09-.9-.078-1.17s-.517-.455-.947-.455" opacity=".885"/><path fill="url(#d)" d="M52.524 44.304c2.25 4.22 7.802 10.657 8.98 13.114-1.19.437-8.007-8.664-12.154-12.27 1.085.128 2.115-.114 3.075-.772ZM24.178 8.532c2.243 1.565 13.594 15.7 15.648 16.276 2.053.576 2.871-3.82 4.613-13.079.728 6.051.938 16.362 4.1 17.857s12.473 1.473 15.957 1.468h.467c-3.733 1.997-11.381 2.293-11.801 4.602-.644-1.03-1.474-2.114-2.466-3.256-4.166-4.793-10.24-7.253-12.74-5.08-2.502 2.175-.123 7.92 4.044 12.714 1.428 1.643 2.82 2.94 4.157 3.822-2.137 1.151-1.95 8.251-3.02 10.743-1.137-6.705-.726-12.606-3.311-16.073s-12.224-2.668-19.393-2.668c6.67-1.815 13.807-2.808 13.807-5.24s-17-11.785-19.85-14c8.174 2.604 15.956 8.679 19.164 8.679S25.63 12.062 24.178 8.532m30.11 29.312c3.209 3.505 12.26 9.066 15.305 11.52-2.662.622-10.557-5.74-14.955-7.984.274-1.062.148-2.223-.33-3.482Z"/><circle cx="35" cy="56" r="2" fill="#b9d530" fill-rule="nonzero" opacity=".885"/></g></svg>