<svg xmlns="http://www.w3.org/2000/svg" viewBox="0 0 16 16"><path fill="#6aab20" d="m10.554 2.78.739.755 1.1.084a.13.13 0 0 1 .119.114L14 14.1l-4.026.9ZM9.6 15 2 13.536l1.037-8.225c.05-.37.062-.382.444-.505l1.232-.393C4.976 3.263 5.817 1 7.577 1a.91.91 0 0 1 .711.419A1.64 1.64 0 0 1 9.78 2.8l.4-.128ZM8.051 1.995a2.39 2.39 0 0 0-1.182 1.731l1.36-.433a3.6 3.6 0 0 0-.178-1.298M5.255 4.24 6.33 3.9a3.01 3.01 0 0 1 1.424-2.336.4.4 0 0 0-.226-.078c-1.264 0-1.974 1.707-2.273 2.754m3.1 1.776a2.2 2.2 0 0 0-1.063-.21 2.55 2.55 0 0 0-2.765 2.579c0 1.557 1.511 1.6 1.511 2.547a.53.53 0 0 1-.545.543 2.53 2.53 0 0 1-1.295-.62l-.357 1.216a2.67 2.67 0 0 0 2.019.855 1.984 1.984 0 0 0 1.939-2.2c0-1.7-1.842-1.98-1.842-2.707a.7.7 0 0 1 .86-.662 2.34 2.34 0 0 1 1.014.25Zm.34-2.87.659-.21a1.3 1.3 0 0 0-.815-1.03 3.8 3.8 0 0 1 .152 1.24Z" data-iconColor="Liquid"/></svg>