<svg xmlns="http://www.w3.org/2000/svg" viewBox="0 0 64 64"><rect width="40" height="52" x="-52" y="6" fill="#4f4f4f" rx="2.5" ry="2.6" transform="scale(-1 1)"/><circle cx="-36" cy="32" r="18" opacity=".4" transform="rotate(-90)"/><circle cx="-37" cy="-32" r="14" opacity=".2" transform="rotate(90)scale(-1 1)"/><circle cx="-36" cy="-32" r="14" fill="#fec006" transform="rotate(90)scale(-1 1)"/><circle cx="-36" cy="-32" r="6" fill="#3f3f3f" transform="rotate(90)scale(-1 1)"/><circle cx="14" cy="-20" r="2" opacity=".4" transform="rotate(90)"/><circle cx="14" cy="-44" r="2" opacity=".4" transform="rotate(90)"/><path d="M12 55.398v1C12 57.838 13.115 59 14.5 59h35c1.384 0 2.5-1.162 2.5-2.602v-1C52 56.838 50.884 58 49.5 58h-35c-1.385 0-2.5-1.162-2.5-2.602" opacity=".2"/><path fill="#fff" d="M14.5 6C13.115 6 12 7.16 12 8.6v1C12 8.16 13.115 7 14.5 7h35C50.884 7 52 8.16 52 9.6v-1C52 7.16 50.884 6 49.5 6z" opacity=".1"/></svg>