<svg xmlns="http://www.w3.org/2000/svg" viewBox="0 0 64 64"><rect width="56" height="56" x="4" y="5" opacity=".2" rx="4" ry="4"/><rect width="56" height="56" x="4" y="4" fill="#f39d21" rx="4" ry="4"/><path fill="#5d5441" d="m33 26-17.8 6L18 60h25l4-27z"/><path fill="#8c8164" d="m15 32 3 28h12l3-34z"/><path d="m35 9-22 9-2 13 4 2 18-6 14 7 4-1 2-13z" opacity=".2"/><path fill="#423d2b" d="m35 8-22 9-2 13 4 2 18-6 14 7 4-1 2-13z"/><path fill="#2b2b2b" d="m11 30 4 2 18-6 14 7 4-1-17.6-8.4z"/><path fill="#675f47" d="m35 8-23 9-1 13 22.4-6.4z"/><path d="m22 39-5.99 2 .39 4 5.6-2Zm-5.4 8 .392 3.938L20 50v-4z" opacity=".2"/><path fill="#a19374" d="m22 38-5.99 2 .39 4 5.6-2Zm-5.4 8 .392 3.938L20 49v-4z"/><path fill="#fff" d="m35 8-23 9-1 13 .074.037L12 18l23-9 17.86 10.914L53 19z" opacity=".1"/><path fill="#fff" d="M8 4C5.784 4 4 5.784 4 8v1c0-2.216 1.784-4 4-4h48c2.216 0 4 1.784 4 4V8c0-2.216-1.784-4-4-4z" opacity=".2"/></svg>