<svg xmlns="http://www.w3.org/2000/svg" viewBox="0 0 64 64"><rect width="32" height="42" x="16" y="14" opacity=".2" rx="2.5" ry="2.5"/><rect width="32" height="42" x="16" y="13" fill="#8e8e8e" rx="2.5" ry="2.5"/><rect width="52" height="40" x="6" y="10" opacity=".2" rx="2.5" ry="2.5"/><path fill="#3f3f3f" d="M6 44v2.5C6 47.885 7.115 49 8.5 49h47c1.385 0 2.5-1.115 2.5-2.5V44z"/><path fill="#0095e5" d="M8.5 9A2.495 2.495 0 0 0 6 11.5V44h52V11.5c0-1.385-1.115-2.5-2.5-2.5Z"/><path d="M6 44h52v1H6z" opacity=".2"/><path fill="#fff" d="M8.5 9A2.495 2.495 0 0 0 6 11.5v1C6 11.115 7.115 10 8.5 10h47c1.385 0 2.5 1.115 2.5 2.5v-1c0-1.385-1.115-2.5-2.5-2.5z" opacity=".2"/><path d="M43 14a7 7 0 0 0-7 7 7 7 0 0 0 7 7 7 7 0 0 0 7-7 7 7 0 0 0-7-7m-14 4a3 3 0 0 0-3 3 3 3 0 0 0 3 3 3 3 0 0 0 3-3 3 3 0 0 0-3-3m-10 6a5 5 0 0 0-5 5 5 5 0 0 0 5 5 5 5 0 0 0 5-5 5 5 0 0 0-5-5m27.942 8.941a2 2 0 0 0-2 2 2 2 0 0 0 2 2 2 2 0 0 0 2-2 2 2 0 0 0-2-2M36 34a4 4 0 0 0-4 4 4 4 0 0 0 4 4 4 4 0 0 0 4-4 4 4 0 0 0-4-4" opacity=".2"/><circle cx="43" cy="20" r="7" fill="#f0f9fd"/><circle cx="19" cy="28" r="5" fill="#c4e7f5"/><circle cx="36" cy="37" r="4" fill="#a6daf0"/><circle cx="29" cy="20" r="3" fill="#c4e7f5"/><circle cx="46.941" cy="33.941" r="2" fill="#d3edf8"/><circle cx="48" cy="47" r="16" opacity=".2"/><circle cx="48" cy="46" r="16" fill="#c149c0"/><path fill="#fff" d="M45.73 37v.002l-.2 2.37a7.135 7.071 0 0 0-2.085 1.194l-2.175-1.013L39 43.449l1.975 1.36a7.135 7.071 0 0 0-.11 1.191 7.135 7.071 0 0 0 .104 1.2L39 48.552l2.27 3.896 2.17-1.013a7.135 7.071 0 0 0 2.09 1.189l.2 2.375h4.54l.2-2.371a7.135 7.071 0 0 0 2.085-1.195l2.174 1.015 2.269-3.896-1.973-1.36a7.135 7.071 0 0 0 .11-1.193 7.135 7.071 0 0 0-.104-1.197L57 43.449l-2.27-3.896-2.17 1.011a7.135 7.071 0 0 0-2.09-1.189L50.27 37zM48 43a3 3 0 0 1 3 3 3 3 0 0 1-3 3 3 3 0 0 1-3-3 3 3 0 0 1 3-3"/></svg>