<svg xmlns="http://www.w3.org/2000/svg" xmlns:xlink="http://www.w3.org/1999/xlink" viewBox="0 0 96 96"><defs><linearGradient id="b" x1="50%" x2="50%" y1="0%" y2="100%"><stop offset="0%" stop-color="#1ab9ff"/><stop offset="100%" stop-color="#0b83ff"/></linearGradient><linearGradient id="c" x1="50%" x2="50%" y1="0%" y2="100%"><stop offset="0%" stop-color="#785ed5"/><stop offset="100%" stop-color="#4330ab"/></linearGradient><linearGradient id="d" x1="50%" x2="50%" y1="0%" y2="100%"><stop offset="0%" stop-color="#8469da"/><stop offset="100%" stop-color="#4d38b3"/></linearGradient><filter id="a" width="132.9%" height="138.1%" x="-16.4%" y="-19%" filterUnits="objectBoundingBox"><feOffset dy="2" in="SourceAlpha" result="shadowOffsetOuter1"/><feGaussianBlur in="shadowOffsetOuter1" result="shadowBlurOuter1" stdDeviation="2"/><feComposite in="shadowBlurOuter1" in2="SourceAlpha" operator="out" result="shadowBlurOuter1"/><feColorMatrix in="shadowBlurOuter1" result="shadowMatrixOuter1" values="0 0 0 0 0 0 0 0 0 0 0 0 0 0 0 0 0 0 0.2 0"/><feMerge><feMergeNode in="shadowMatrixOuter1"/><feMergeNode in="SourceGraphic"/></feMerge></filter></defs><g fill="none" fill-rule="evenodd" filter="url(#a)" transform="translate(13.846 16.996)"><path fill="url(#b)" fill-rule="nonzero" d="m51.768 63.004 8.342-23.912h-2.936a48.6 48.6 0 0 1-9.02 15.912c-2.797 3.3-10.817 4.812-15.852 4.812H23.66q-5.034 0-5.034-2.601V6.125q0-2.937 3.273-2.937h6.88V0H0v3.188h7.048q2.769 0 2.769 3.02v49.496q0 2.35-1.091 3.23-1.09.882-3.608.882H0v3.188z"/><path fill="#fff" stroke="url(#c)" stroke-width="2" d="M66.154 45.004h-37c-1.38 0-2.63-.56-3.535-1.465a4.98 4.98 0 0 1-1.465-3.535v-20c0-1.38.56-2.63 1.465-3.536a4.98 4.98 0 0 1 3.535-1.464h4.233l-1.848-8.776 19.4 8.776h15.215c1.38 0 2.63.56 3.536 1.464a4.98 4.98 0 0 1 1.464 3.536v20c0 1.38-.56 2.63-1.464 3.535a4.98 4.98 0 0 1-3.536 1.465Z"/><path fill="url(#d)" d="M57.654 29.004a.5.5 0 0 1 .5.5v1a.5.5 0 0 1-.5.5h-28a.5.5 0 0 1-.5-.5v-1a.5.5 0 0 1 .5-.5zm-5-5a.5.5 0 0 1 .5.5v1a.5.5 0 0 1-.5.5h-23a.5.5 0 0 1-.5-.5v-1a.5.5 0 0 1 .5-.5zm13-5a.5.5 0 0 1 .5.5v1a.5.5 0 0 1-.5.5h-36a.5.5 0 0 1-.5-.5v-1a.5.5 0 0 1 .5-.5z"/></g></svg>