<svg xmlns="http://www.w3.org/2000/svg" xmlns:xlink="http://www.w3.org/1999/xlink" viewBox="0 0 96 96"><defs><linearGradient id="b" x1="86.086%" x2="21.392%" y1="86.965%" y2="11.351%"><stop offset="0%" stop-color="#ff689a"/><stop offset="100%" stop-color="#eb132c"/></linearGradient><filter id="a" width="129.3%" height="129.3%" x="-14.6%" y="-14.6%" filterUnits="objectBoundingBox"><feOffset dy="2" in="SourceAlpha" result="shadowOffsetOuter1"/><feGaussianBlur in="shadowOffsetOuter1" result="shadowBlurOuter1" stdDeviation="2"/><feComposite in="shadowBlurOuter1" in2="SourceAlpha" operator="out" result="shadowBlurOuter1"/><feColorMatrix in="shadowBlurOuter1" result="shadowMatrixOuter1" values="0 0 0 0 0 0 0 0 0 0 0 0 0 0 0 0 0 0 0.2 0"/><feMerge><feMergeNode in="shadowMatrixOuter1"/><feMergeNode in="SourceGraphic"/></feMerge></filter></defs><g fill="none" fill-rule="evenodd" filter="url(#a)" transform="translate(7 7)"><circle cx="41" cy="41" r="41" fill="#1b1b1b"/><circle cx="41" cy="41" r="36" fill="url(#b)"/><path fill="#fff" stroke="#1b1b1b" stroke-width="2" d="M19.347 28.26Q26.058 22.5 30 22.5q3.982 0 9.433 5.877a1 1 0 0 1 .054 1.296q-4.704 6.015-9.153 6.015-4.416 0-11.004-5.926a1 1 0 0 1 .017-1.502Z"/><path fill="#1b1b1b" d="M21.5 31H38q-4.657 4.846-7.5 5t-9-5"/><path fill="#1b1b1b" d="M30 33.5c2.21 0 4-1.12 4-2.5s-1.79-2.5-4-2.5-4 1.12-4 2.5 1.79 2.5 4 2.5"/><path fill="#fff" stroke="#1b1b1b" stroke-width="2" d="M49.15 29.856q6.711-5.76 10.653-5.76 3.983 0 9.432 5.877a1 1 0 0 1 .055 1.296q-4.704 6.015-9.154 6.015-4.415 0-11.003-5.926a1 1 0 0 1 .017-1.502Z"/><path fill="#1b1b1b" d="M51.303 32.596h16.5q-4.657 4.847-7.5 5-2.843.154-9-5"/><path fill="#1b1b1b" d="M59.803 35.096c2.209 0 4-1.12 4-2.5s-1.791-2.5-4-2.5-4 1.12-4 2.5 1.79 2.5 4 2.5"/><path fill="#fff" stroke="#1b1b1b" stroke-width="2" d="m25.445 47.22 28.726 1.595a2 2 0 0 1 1.577 3.071Q47.717 64.5 40.5 64.5q-7.196 0-16.82-14.16a2 2 0 0 1 1.765-3.12Z"/></g></svg>