<svg xmlns="http://www.w3.org/2000/svg" fill-rule="evenodd" stroke-linejoin="round" stroke-miterlimit="1.414" clip-rule="evenodd" viewBox="0 0 500 500"><path fill="#1de9b6" d="M149.235 46c-3.563 0-7.088.165-10.558.518-3.47.352-6.88.906-10.24 1.594-3.36.687-6.649 1.544-9.882 2.55a102 102 0 0 0-9.482 3.466 103 103 0 0 0-9.045 4.343 104 104 0 0 0-8.526 5.18 103 103 0 0 0-7.93 5.936 104 104 0 0 0-7.33 6.654 104 104 0 0 0-6.655 7.332 103 103 0 0 0-5.936 7.929c-1.856 2.746-3.59 5.6-5.18 8.526a103 103 0 0 0-4.343 9.045 102 102 0 0 0-3.466 9.482 102 102 0 0 0-2.55 9.882c-.688 3.36-1.242 6.77-1.594 10.24S46 145.672 46 149.235v201.53c0 3.563.165 7.088.518 10.558.352 3.47.906 6.88 1.594 10.24.687 3.36 1.544 6.649 2.55 9.882a102 102 0 0 0 3.466 9.482 103 103 0 0 0 4.343 9.045c1.59 2.926 3.324 5.78 5.18 8.526a103 103 0 0 0 5.936 7.93 104 104 0 0 0 6.654 7.33 104 104 0 0 0 7.332 6.655 103 103 0 0 0 7.929 5.936c2.746 1.856 5.6 3.59 8.526 5.18a103 103 0 0 0 9.045 4.343q4.632 1.958 9.482 3.466a102 102 0 0 0 9.882 2.55c3.36.688 6.77 1.242 10.24 1.594s6.995.518 10.558.518h201.53c3.563 0 7.088-.166 10.558-.518s6.88-.906 10.24-1.594c3.36-.687 6.649-1.504 9.882-2.51s6.395-2.2 9.482-3.506a103 103 0 0 0 9.045-4.343c2.926-1.59 5.78-3.324 8.526-5.18a103 103 0 0 0 7.93-5.936 104 104 0 0 0 7.33-6.654 104 104 0 0 0 6.655-7.332 103 103 0 0 0 5.936-7.929c1.856-2.746 3.59-5.6 5.18-8.526a103 103 0 0 0 4.343-9.045q1.958-4.633 3.466-9.482a102 102 0 0 0 2.55-9.882c.688-3.36 1.242-6.769 1.594-10.24s.518-6.995.518-10.558v-201.53c0-3.563-.165-7.088-.518-10.558-.352-3.47-.906-6.88-1.594-10.24a102 102 0 0 0-2.55-9.882 102 102 0 0 0-3.466-9.482 103 103 0 0 0-4.343-9.045 104 104 0 0 0-5.18-8.526 103 103 0 0 0-5.936-7.93 104 104 0 0 0-6.654-7.33 104 104 0 0 0-7.332-6.655 103 103 0 0 0-7.929-5.936c-2.746-1.856-5.6-3.59-8.526-5.18a103 103 0 0 0-9.045-4.343 102 102 0 0 0-9.482-3.466 102 102 0 0 0-9.882-2.55c-3.36-.688-6.77-1.242-10.24-1.594S354.328 46 350.765 46Zm206.79 91.402h.079a20 20 0 0 1 3.068.239 20 20 0 0 1 3.108.717 20 20 0 0 1 2.908 1.235 20 20 0 0 1 2.71 1.634 20 20 0 0 1 2.39 2.071 20 20 0 0 1 2.072 2.391 20 20 0 0 1 1.674 2.71 20 20 0 0 1 1.195 2.908 20 20 0 0 1 .757 3.108 20 20 0 0 1 .239 3.147 20 20 0 0 1-.24 3.148 20 20 0 0 1-.756 3.068 20 20 0 0 1-1.195 2.949 20 20 0 0 1-1.674 2.709 20 20 0 0 1-2.072 2.39 20 20 0 0 1-2.39 2.033 20 20 0 0 1-2.71 1.673 20 20 0 0 1-2.908 1.195 20 20 0 0 1-3.108.757 20 20 0 0 1-3.148.24c-2.666 0-5.22.118-7.69.318s-4.843.48-7.132.877c-2.289.396-4.49.886-6.614 1.474a62 62 0 0 0-6.136 2.072 60 60 0 0 0-5.737 2.59 60 60 0 0 0-5.34 3.147 63 63 0 0 0-4.98 3.666 72 72 0 0 0-4.741 4.184 84 84 0 0 0-4.463 4.661 104 104 0 0 0-4.303 5.18 131 131 0 0 0-4.143 5.658 170 170 0 0 0-4.025 6.096c-2.668 4.222-5.31 8.747-7.968 13.547s-5.317 9.878-8.089 15.22l-13.666 25.74c-2.614 5.036-5.32 10.231-8.168 15.458a365 365 0 0 1-4.423 7.85c-1.511 2.617-3.044 5.257-4.661 7.849a209 209 0 0 1-5.06 7.69c-1.744 2.537-3.53 5.038-5.42 7.49a146 146 0 0 1-5.936 7.212 126 126 0 0 1-6.415 6.813 113 113 0 0 1-7.012 6.336 104 104 0 0 1-7.65 5.777 99 99 0 0 1-8.328 5.1c-2.902 1.592-5.922 3.09-9.084 4.423-3.162 1.332-6.48 2.502-9.921 3.546-1.721.521-3.465 1.03-5.26 1.474s-3.628.833-5.498 1.195-3.789.68-5.738.956c-1.948.278-3.907.53-5.936.718s-4.104.342-6.216.438-4.257.12-6.455.12a20.2 20.2 0 0 1-7.73-1.515 20.2 20.2 0 0 1-6.574-4.382 20.2 20.2 0 0 1-4.342-6.535 20.2 20.2 0 0 1-1.554-7.73 20.2 20.2 0 0 1 1.554-7.73 20.2 20.2 0 0 1 4.342-6.534 20.2 20.2 0 0 1 6.575-4.382 20.2 20.2 0 0 1 7.73-1.514c2.665 0 5.22-.119 7.69-.32 2.469-.2 4.842-.48 7.131-.876a69 69 0 0 0 6.614-1.474 62 62 0 0 0 6.136-2.072 60 60 0 0 0 5.738-2.59 60 60 0 0 0 5.339-3.147 63 63 0 0 0 4.98-3.666 72 72 0 0 0 4.742-4.184 84 84 0 0 0 4.462-4.661c1.458-1.644 2.863-3.376 4.263-5.18a131 131 0 0 0 4.144-5.658 170 170 0 0 0 4.064-6.096c2.668-4.222 5.271-8.747 7.93-13.547 2.657-4.8 5.355-9.878 8.127-15.22l13.746-25.779c2.614-5.037 5.32-10.192 8.168-15.42 1.424-2.613 2.872-5.271 4.383-7.889a265 265 0 0 1 4.702-7.809 208 208 0 0 1 5.02-7.69 172 172 0 0 1 5.459-7.49 145 145 0 0 1 5.897-7.212 127 127 0 0 1 6.454-6.813 113 113 0 0 1 7.013-6.336 103 103 0 0 1 7.61-5.777 100 100 0 0 1 8.367-5.14 98 98 0 0 1 9.084-4.383 100 100 0 0 1 9.882-3.546c1.72-.521 3.505-1.03 5.299-1.474a110 110 0 0 1 5.498-1.195c1.87-.363 3.75-.68 5.698-.956 1.949-.278 3.947-.53 5.977-.718 2.029-.188 4.103-.342 6.215-.438 2.086-.095 4.206-.118 6.375-.12" data-iconColor="Lottie"/></svg>