<svg xmlns="http://www.w3.org/2000/svg" viewBox="0 0 16 16"><path fill="#26a2c1" d="M3 7.077c-.012.186.082 1.291.12 1.937a23 23 0 0 0 .13 2.374 3.72 3.72 0 0 0 1.35 2.581 6.3 6.3 0 0 0 3.022 1 6.8 6.8 0 0 0 2.93-.408 3.24 3.24 0 0 0 1.77-1.96 3.13 3.13 0 0 0-.207-2.475 3.45 3.45 0 0 0-2.091-1.344 5.83 5.83 0 0 0-3.092.1 4.75 4.75 0 0 0-1.876 1.143.464.464 0 0 0-.068.677.525.525 0 0 0 .766 0 2.75 2.75 0 0 1 1-.678c.149-.016.187.091.124.213a2.1 2.1 0 0 0-.042 1.536 1.92 1.92 0 0 0 1.283 1.067 2.02 2.02 0 0 0 1.822-.554 1.82 1.82 0 0 0 .352-1.75.49.49 0 0 0-.456-.3.25.25 0 0 0-.187.192 1.4 1.4 0 0 1 .083.213.4.4 0 0 1-.621.214.53.53 0 0 1-.1-.64.88.88 0 0 1 .828-.3 1.67 1.67 0 0 1 1.3.747 2.13 2.13 0 0 1-.083 1.963 2.88 2.88 0 0 1-1.9 1.11 5.23 5.23 0 0 1-2.712-.256 2.83 2.83 0 0 1-1.884-2.006 15.5 15.5 0 0 1-.13-2.48 2.94 2.94 0 0 0-.373-1.6 1.07 1.07 0 0 0-.843-.464c-.137-.017-.226.048-.215.148m1.627-5.1a.77.77 0 0 0-.492.778A47 47 0 0 0 5.479 8.17a.68.68 0 0 0 .635.3.7.7 0 0 0 .348-.57 40 40 0 0 0-1.007-5.476.765.765 0 0 0-.827-.445ZM7.4 1a.86.86 0 0 0-.6.784 53 53 0 0 0 .59 5.923.51.51 0 0 0 .589.409.525.525 0 0 0 .421-.546 46 46 0 0 0-.248-5.938A.8.8 0 0 0 7.4 1m2.965.833a.76.76 0 0 0-.667.588A48 48 0 0 0 9.2 7.8a.463.463 0 0 0 .924.06 41 41 0 0 0 .8-5.324.735.735 0 0 0-.562-.7ZM12.6 3.579a.64.64 0 0 0-.623.409A39 39 0 0 0 11 8.332a.393.393 0 0 0 .77.149A33 33 0 0 0 13 4.211a.61.61 0 0 0-.4-.632" data-iconColor="LSL"/></svg>