<svg xmlns="http://www.w3.org/2000/svg" viewBox="0 0 64 64"><path d="M4 56.2v2C4 59.75 5.25 61 6.8 61h50.4c1.55 0 2.8-1.25 2.8-2.8v-2c0 1.55-1.25 2.8-2.8 2.8H6.8C5.25 59 4 57.75 4 56.2" opacity=".2"/><rect width="56" height="56" x="4" y="4" fill="#f58411" rx="2.8" ry="2.8"/><path fill="#fff" d="M6.8 4C5.25 4 4 5.25 4 6.8v1.003a2.796 2.796 0 0 1 2.8-2.801h50.4c1.55 0 2.8 1.25 2.8 2.8v-1A2.796 2.796 0 0 0 57.2 4z" opacity=".2"/><path d="M32 17a6 6 0 0 0-6 6c0 .462.088.88.188 1.312l-6.438 4a6 6 0 1 0 0 9.375l6.438 4c-.1.432-.188.85-.188 1.312a6 6 0 1 0 2.25-4.688l-6.44-4c.1-.431.19-.85.19-1.311s-.088-.88-.188-1.312l6.438-4A6 6 0 1 0 32 17m14 0a6 6 0 0 0-6 6 6 6 0 0 0 6 6 6 6 0 0 0 6-6 6 6 0 0 0-6-6m0 20a6 6 0 0 0-6 6 6 6 0 0 0 6 6 6 6 0 0 0 6-6 6 6 0 0 0-6-6" opacity=".2"/><path fill="#fff" d="M32 16a6 6 0 0 0-6 6c0 .462.088.88.188 1.312l-6.438 4a6 6 0 1 0 0 9.375l6.438 4c-.1.432-.188.85-.188 1.312a6 6 0 1 0 2.25-4.688l-6.44-4c.1-.431.19-.85.19-1.311s-.088-.88-.188-1.312l6.438-4A6 6 0 1 0 32 16m14 0a6 6 0 0 0-6 6 6 6 0 0 0 6 6 6 6 0 0 0 6-6 6 6 0 0 0-6-6m0 20a6 6 0 0 0-6 6 6 6 0 0 0 6 6 6 6 0 0 0 6-6 6 6 0 0 0-6-6"/></svg>