<svg xmlns="http://www.w3.org/2000/svg" xmlns:xlink="http://www.w3.org/1999/xlink" viewBox="0 0 96 96"><defs><linearGradient id="b" x1="50%" x2="50%" y1="0%" y2="100%"><stop offset="0%" stop-color="#1566b1"/><stop offset="100%" stop-color="#093679"/></linearGradient><filter id="a" width="128.6%" height="128.6%" x="-14.3%" y="-14.3%" filterUnits="objectBoundingBox"><feOffset dy="2" in="SourceAlpha" result="shadowOffsetOuter1"/><feGaussianBlur in="shadowOffsetOuter1" result="shadowBlurOuter1" stdDeviation="2"/><feColorMatrix in="shadowBlurOuter1" result="shadowMatrixOuter1" values="0 0 0 0 0 0 0 0 0 0 0 0 0 0 0 0 0 0 0.2 0"/><feMerge><feMergeNode in="shadowMatrixOuter1"/><feMergeNode in="SourceGraphic"/></feMerge></filter></defs><g fill="none" fill-rule="evenodd" filter="url(#a)" transform="translate(6 6)"><circle cx="42" cy="42" r="42" fill="url(#b)" fill-rule="nonzero"/><path fill="#659ad4" fill-rule="nonzero" d="M37.955 75.043c16.546 2.032 31.742-8.225 36.268-23.562L67.42 49.2c-3.46 12.212-15.492 20.408-28.6 18.798a26.45 26.45 0 0 1-19.036-11.884l3.098-2.068-12.003-4.643-.496 12.986 3.463-2.311a33.63 33.63 0 0 0 24.109 14.966m34.587-41.69-13.515-5.068 4.075-2.666a26.45 26.45 0 0 0-19.724-10.403c-12.079-.633-22.682 6.876-26.38 17.685l-6.775-2.331C14.939 16.85 28.408 7.323 43.749 8.127a33.63 33.63 0 0 1 25.3 13.52l3.493-2.654z"/><text fill="#f40" font-family="LucidaGrande, Lucida Grande" font-size="12.6">
      <tspan x="4.8" y="44.8">luckyBackup</tspan>
    </text></g></svg>