<svg xmlns="http://www.w3.org/2000/svg" viewBox="0 0 64 64"><path d="M38 61h22l-5-24H43z" opacity=".2"/><path fill="#5c5c5c" d="M38 60h22l-5-24H43z"/><rect width="6" height="20" x="29" y="19" opacity=".2" rx="3" ry="3"/><rect width="6" height="20" x="29" y="18" fill="#674f4f" rx="3" ry="3"/><rect width="12" height="14" x="40" y="4" fill="#5c5c5c" rx="3" ry="3"/><rect width="22" height="26" x="38" y="16" opacity=".2" rx="3" ry="3"/><rect width="22" height="26" x="38" y="15" fill="#838181" rx="3" ry="3"/><rect width="12" height="14" x="12" y="4" fill="#5c5c5c" rx="3" ry="3"/><path d="M4 61h22l-5-24H9z" opacity=".2"/><path fill="#5c5c5c" d="M4 60h22l-5-24H9z"/><rect width="22" height="26" x="4" y="16" opacity=".2" rx="3" ry="3"/><rect width="22" height="26" x="4" y="15" fill="#838181" rx="3" ry="3"/><rect width="34" height="14" x="15" y="22" opacity=".2" rx="3" ry="3"/><path fill="#fff" d="M32 18c-1.662 0-3 1.338-3 3v1c0-1.662 1.338-3 3-3s3 1.338 3 3v-1c0-1.662-1.338-3-3-3" opacity=".1"/><rect width="34" height="14" x="15" y="21" fill="#6f6d6d" rx="3" ry="3"/><circle cx="47" cy="47.199" r="16" opacity=".2"/><circle cx="47" cy="46.199" r="16" fill="#07b3ff"/><path fill="#fff" d="M44 38v9.342A3.5 3.5 0 0 0 42.5 47a3.5 3.5 0 0 0-3.5 3.5 3.5 3.5 0 0 0 3.5 3.5 3.5 3.5 0 0 0 3.5-3.5 3.5 3.5 0 0 0-.04-.5H46v-8h7v5.342A3.5 3.5 0 0 0 51.5 47a3.5 3.5 0 0 0-3.5 3.5 3.5 3.5 0 0 0 3.5 3.5 3.5 3.5 0 0 0 3.5-3.5 3.5 3.5 0 0 0-.04-.5H55V38h-9z"/><path fill="#fff" d="M43 4c-1.662 0-3 1.338-3 3v1c0-1.662 1.338-3 3-3h6c1.662 0 3 1.338 3 3V7c0-1.662-1.338-3-3-3z" opacity=".1"/><path fill="#fff" d="M41 15c-1.662 0-3 1.338-3 3v1c0-1.662 1.338-3 3-3h16c1.662 0 3 1.338 3 3v-1c0-1.662-1.338-3-3-3z" opacity=".2"/><path fill="#fff" d="M15 4c-1.662 0-3 1.338-3 3v1c0-1.662 1.338-3 3-3h6c1.662 0 3 1.338 3 3V7c0-1.662-1.338-3-3-3z" opacity=".1"/><path fill="#fff" d="M7 15c-1.662 0-3 1.338-3 3v1c0-1.662 1.338-3 3-3h16c1.662 0 3 1.338 3 3v-1c0-1.662-1.338-3-3-3zm11 6c-1.662 0-3 1.338-3 3v1c0-1.662 1.338-3 3-3h28c1.662 0 3 1.338 3 3v-1c0-1.662-1.338-3-3-3z" opacity=".2"/></svg>