<svg xmlns="http://www.w3.org/2000/svg" viewBox="0 0 24 24"><g fill="#536076"><path d="M13.272 17h-.003zm-.208-.5A2 2 0 0 1 13 16v-1.001a2 2 0 0 1 .064-.5A2 2 0 0 1 13 14v-1a2 2 0 0 1 2-2h4V8c0-.556-.444-1-1-1H6c-.556 0-1 .444-1 1v8c0 .556.444 1 1 1h7q0-.256.064-.5M6 6h12c1.108 0 2 .892 2 2v4h-5a1 1 0 0 0-1 1v1a1 1 0 0 0 .135.5A1 1 0 0 0 14 15v1a1 1 0 0 0 .135.5A1 1 0 0 0 14 17v1H6c-1.108 0-2-.892-2-2V8c0-1.108.892-2 2-2"/><path d="M15 13v1h5v-1zm0 2v1h5v-1zm0 2v1h5v-1zM6 8l6 3 6-3v1l-6 3-6-3z"/></g></svg>