<svg xmlns="http://www.w3.org/2000/svg" viewBox="0 0 24 24"><path fill="#536076" d="M14.79 5a3.05 3.05 0 0 0-2.413 1.19l-5.684 7.273a3.27 3.27 0 0 0-.672 2.355c.087.853.49 1.62 1.133 2.159l.37.31a3.04 3.04 0 0 0 2.273.695 3.05 3.05 0 0 0 2.072-1.158l3.834-4.906c.683-.874.552-2.158-.29-2.865l-.194-.162a1.93 1.93 0 0 0-1.237-.453c-.598 0-1.156.274-1.53.753l-3.83 4.899a.767.767 0 0 0 .107 1.05.7.7 0 0 0 .454.167.71.71 0 0 0 .56-.278l3.828-4.898a.515.515 0 0 1 .739-.08l.193.162a.55.55 0 0 1 .191.367.55.55 0 0 1-.113.399L10.76 16.87a1.63 1.63 0 0 1-1.29.635c-.377 0-.747-.135-1.04-.381l-.37-.309a1.72 1.72 0 0 1-.605-1.154 1.75 1.75 0 0 1 .36-1.26l5.683-7.273a1.63 1.63 0 0 1 1.29-.637c.377 0 .747.135 1.04.381l.37.31c.71.596.82 1.677.245 2.413a.76.76 0 0 0-.156.549.75.75 0 0 0 .264.501.707.707 0 0 0 1.013-.109c.52-.665.76-1.502.672-2.355a3.22 3.22 0 0 0-1.13-2.159l-.37-.31A3.04 3.04 0 0 0 14.79 5"/></svg>