<svg xmlns="http://www.w3.org/2000/svg" viewBox="0 0 24 24"><g fill="#303030"><path d="M19.006 10.317V8.004c0-.556-.444-1-1-1h-12c-.556 0-1 .444-1 1v8c0 .556.444 1 1 1h6.93V14.94a2 2 0 0 1 1.008-1.737 3.517 3.517 0 0 1 3.492-3.263 3.46 3.46 0 0 1 1.57.376m.944 3.624.056.002zM6.006 6.004h12c1.108 0 2 .892 2 2v5.94l-.07-.003v-.5c0-1.368-1.132-2.5-2.5-2.5a2.515 2.515 0 0 0-2.5 2.5v.5a1 1 0 0 0-1 1v3q0 .032.002.063H6.006c-1.108 0-2-.892-2-2v-8c0-1.108.892-2 2-2"/><path d="m6.006 8.004 6 3 6-3v1l-6 3-6-3zm11.43 3.937a1.5 1.5 0 0 1 1.5 1.5v1.5h1v3h-5v-3h1v-1.5a1.5 1.5 0 0 1 1.5-1.5m0 1a.5.5 0 0 0-.5.5v1.5h1v-1.5a.5.5 0 0 0-.5-.5M16 16v1h3v-1z"/></g></svg>