<svg xmlns="http://www.w3.org/2000/svg" viewBox="0 0 24 24"><g fill="#536076"><path d="M8.5 8C7.211 8 6 9.73 6 12s1.211 4 2.5 4 2.5-1.73 2.5-4-1.211-4-2.5-4m3.5 4c0 2.761-1.567 5-3.5 5S5 14.761 5 12s1.567-5 3.5-5S12 9.239 12 12m1 0c0 2.27 1.211 4 2.5 4s2.5-1.73 2.5-4-1.211-4-2.5-4S13 9.73 13 12m-1 0c0-2.761 1.567-5 3.5-5S19 9.239 19 12s-1.567 5-3.5 5-3.5-2.239-3.5-5"/><path d="M9 12a2 2 0 1 1 0 4 2 2 0 0 1 0-4m0 1a1 1 0 1 0 0 2 1 1 0 0 0 0-2m7-1a2 2 0 1 1 0 4 2 2 0 0 1 0-4m0 1a1 1 0 1 0 0 2 1 1 0 0 0 0-2"/></g></svg>