<svg xmlns="http://www.w3.org/2000/svg" viewBox="0 0 24 24"><g fill="#536076"><path d="M19 9V7c0-.556-.444-1-1-1H6c-.556 0-1 .444-1 1v8c0 .556.444 1 1 1h5v-4a3 3 0 0 1 3-3zM6 5h12c1.108 0 2 .892 2 2v3.283A1.96 1.96 0 0 0 19 10h-5a2 2 0 0 0-2 2v5H6c-1.108 0-2-.892-2-2V7c0-1.108.892-2 2-2"/><path d="M18.006 7.004v1L14.014 10H13a1 1 0 0 0-.993.883L12 11 6.006 8.005v-1l6 3zM19 11c.554 0 1 .446 1 1v5c0 .554-.446 1-1 1h-5c-.554 0-1-.446-1-1v-5c0-.554.446-1 1-1zm-2 3h-1v1h1zm-2-2h-1v5h1v-3h1v-1h-1zm2 2h1v3h1v-5h-1v1h-1z"/></g></svg>