<svg xmlns="http://www.w3.org/2000/svg" viewBox="0 0 24 24"><g fill="#303030"><path d="M6 7.004c-.556 0-1 .444-1 1v8c0 .556.444 1 1 1h12c.556 0 1-.444 1-1v-8c0-.556-.444-1-1-1zm0-1h12c1.108 0 2 .892 2 2v8c0 1.108-.892 2-2 2H6c-1.108 0-2-.892-2-2v-8c0-1.108.892-2 2-2"/><path d="M12 9a1 1 0 1 0 0 2 1 1 0 0 0 0-2m0-1a2 2 0 1 1 0 4 2 2 0 0 1 0-4m2.732 6.84c-.42-.504-1.26-.84-2.732-.84-1.47 0-2.311.337-2.732.84a1.4 1.4 0 0 0-.114.16h5.693a1.3 1.3 0 0 0-.115-.16M12 13c4-.002 4 2.4 4 2.4v.6H8v-.6s0-2.398 4-2.4"/></g></svg>