<svg xmlns="http://www.w3.org/2000/svg" xmlns:xlink="http://www.w3.org/1999/xlink" viewBox="0 0 64 64"><defs><path id="a" d="M12 15v2H9v2h3v6H9v2h3v2h2v-2h4v2h2v-2h3v-2h-3v-6h3v-2h-3v-2h-2v2h-4v-2zm2 4h4v6h-4zm12 8v2h12v-2z"/></defs><use xlink:href="#a" opacity=".2"/><rect width="48" height="56" x="-56" y="-60" fill="#4f4f4f" rx="3" ry="3" transform="rotate(90)scale(-1 1)"/><use xlink:href="#a" opacity=".2"/><path fill="#fff" d="M12 14v2H9v2h3v6H9v2h3v2h2v-2h4v2h2v-2h3v-2h-3v-6h3v-2h-3v-2h-2v2h-4v-2zm2 4h4v6h-4zm12 8v2h12v-2z"/><path fill="#fff" d="M7 8c-1.662 0-3 1.338-3 3v1c0-1.662 1.338-3 3-3h50c1.662 0 3 1.338 3 3v-1c0-1.662-1.338-3-3-3z" opacity=".1"/><path d="M4 53v1c0 1.662 1.338 3 3 3h50c1.662 0 3-1.338 3-3v-1c0 1.662-1.338 3-3 3H7c-1.662 0-3-1.338-3-3" opacity=".2"/><circle cx="47" cy="46" r="16" fill="#16a086"/><path fill="#fff" d="M46.966 54 41 46h4v-8h4v8h4z"/><path d="M31.025 46.5a16 16.002 0 0 0-.025.498A16 16.002 0 0 0 47 63a16 16.002 0 0 0 16-16.002 16 16.002 0 0 0-.018-.492A16 16.002 0 0 1 47 62a16 16.002 0 0 1-15.975-15.5" opacity=".2"/></svg>