<svg xmlns="http://www.w3.org/2000/svg" viewBox="0 0 24 24"><path fill="#303030" d="M4 4v16h16V4zm1 1h4v4.707C6.56 9.211 5.003 8.157 5 7zm5 0h4v4.873a15.8 15.8 0 0 1-4 0zm5 0h4v2c-.003 1.157-1.56 2.211-4 2.707zM5 8.928c.886.804 2.298 1.432 4 1.777v2.59c-1.702.345-3.114.973-4 1.777zm14 .008v6.128c-.889-.801-2.3-1.426-4-1.77v-2.589c1.7-.343 3.111-.968 4-1.77m-9 1.931a16 16 0 0 0 2 .133 16 16 0 0 0 2-.13v2.26a16 16 0 0 0-2-.13 16 16 0 0 0-2 .133zM12 14c.677 0 1.351.043 2 .127V19h-4v-4.873A16 16 0 0 1 12 14m-3 .293V19H5v-2c.003-1.157 1.56-2.211 4-2.707m6 0c2.44.496 3.997 1.55 4 2.707v2h-4z"/></svg>