<svg xmlns="http://www.w3.org/2000/svg" viewBox="0 0 64 64"><rect width="56" height="56" x="4" y="5" opacity=".2" rx="28" ry="28"/><rect width="56" height="56" x="4" y="4" fill="#3f3f3f" rx="28" ry="28"/><path d="M14 25.564h4v9.056l2 1.132v8.212l-6-3.603z" opacity=".2"/><path fill="#137fb0" d="M14 24.564h4v9.056l2 1.132v8.212l-6-3.603z"/><path d="m42 36.661-15.692 9.06L32 49.008l10-5.776ZM14 18.993l24.093 13.91-6.112 3.527L14 26.048Z" opacity=".2"/><path d="M22 36.661v6.571l10 5.773 5.692-3.284z" opacity=".2"/><path fill="#0ea3e7" d="m14 17.993 24.093 13.911-6.112 3.526L14 25.05Z"/><path d="M50 25.564h-4v9.056l-2 1.132v8.212l6-3.603z" opacity=".2"/><path fill="#0ea3e7" d="m42 35.661-15.692 9.06L32 48.008l10-5.776Z"/><path fill="#35cfee" d="M22 35.661v6.571l10 5.773 5.692-3.284z"/><path fill="#229eb5" d="M50 24.564h-4v9.056l-2 1.132v8.212l6-3.603z"/><path d="m50 18.993-24.093 13.91 6.112 3.527L50 26.048Z" opacity=".2"/><path fill="#35cfee" d="M50 17.993 25.907 31.904l6.112 3.526L50 25.05Z"/><path fill="#fff" d="M32 4C16.488 4 4 16.488 4 32c0 .113.011.224.018.336C4.369 17.134 16.71 5 32 5s27.63 12.134 27.982 27.336c.007-.112.018-.223.018-.336C60 16.488 47.512 4 32 4" opacity=".1"/></svg>