<svg xmlns="http://www.w3.org/2000/svg" viewBox="0 0 264 140"><g fill="#e6a345" data-iconColor="Master UI"><path d="M233.24 76.617c-6.912-12.234-12.726-14.051-18.394-14.051-8.322 0-14.105 7.694-17.8 14.522l-14.766 30.311 4.021 6.6a55.07 55.07 0 0 0 74.1 23.251l3.836-2Zm-202.244 0c6.912-12.234 12.726-14.051 18.4-14.051 8.319 0 14.1 7.694 17.8 14.522l14.76 30.311-4.02 6.6a55.07 55.07 0 0 1-74.102 23.249l-3.836-2Z"/><path d="M202.056 16.511c-10.764-21.712-43.073-22.2-54.024-.329l-15.913 30.479-15.916-30.477c-10.948-21.875-43.257-21.383-54.024.329l-20.7 40.058c9.828-11.156 23.61-4.582 29.6 6.77l22.33 41.1 11.422 21.841a30.27 30.27 0 0 0 13.006 13.233c4.38 2.285 11.355 3.411 14.28 3.411s9.9-1.126 14.28-3.411a30.28 30.28 0 0 0 13-13.233l11.422-21.841 22.33-41.1c6-11.352 19.777-17.926 29.6-6.77Z"/></g></svg>