<svg xmlns="http://www.w3.org/2000/svg" viewBox="0 0 64 64"><rect width="56" height="56" x="4" y="5" opacity=".2" rx="16.8" ry="16.8"/><rect width="56" height="56" x="4" y="4" fill="#4f4f4f" rx="16.8" ry="16.8"/><path d="M46 21v24h4V21Zm-30 8a4 4 0 0 0-4 4 4 4 0 0 0 4 4 4 4 0 0 0 4-4 4 4 0 0 0-4-4m12 0a4 4 0 0 0-4 4 4 4 0 0 0 4 4 4 4 0 0 0 4-4 4 4 0 0 0-4-4m12 0a4 4 0 0 0-4 4 4 4 0 0 0 4 4 4 4 0 0 0 4-4 4 4 0 0 0-4-4" opacity=".2"/><circle cx="28" cy="32" r="4" fill="#fff"/><circle cx="16" cy="32" r="4" fill="#fff"/><circle cx="40" cy="32" r="4" fill="#fff"/><path fill="#5279ff" d="M46 20h4v24h-4z"/><path fill="#fff" d="M20.8 4C11.495 4 4 11.494 4 20.8v1C4 12.495 11.494 5 20.8 5h22.4C52.505 5 60 12.494 60 21.8v-1C60 11.495 52.506 4 43.2 4z" opacity=".1"/><path fill="#fff" d="M46 20v1h4v-1z" opacity=".1"/></svg>