<svg xmlns="http://www.w3.org/2000/svg" viewBox="0 0 64 64"><circle cx="32" cy="33" r="28" opacity=".2"/><circle cx="32" cy="32" r="28" fill="#e4e4e4"/><path d="M31.96 13a20 20 0 0 0-15.886 7.906l3.453 2.074A16 16 0 0 1 32 17a16 16 0 0 1 16 16 16 16 0 0 1-16 16 16 16 0 0 1-12.48-5.988l-3.454 2.074A20 20 0 0 0 32 53a20 20 0 0 0 20-20 20 20 0 0 0-20-20zM12 20.563v24.863l20.715-12.43ZM32 21a12 12 0 0 0-9 4.066l3.516 2.11A8 8 0 0 1 31.879 25H32a8 8 0 0 1 8 8 8 8 0 0 1-8 8 8 8 0 0 1-5.492-2.184l-3.516 2.114A12 12 0 0 0 32 45a12 12 0 0 0 12-12 12 12 0 0 0-12-12" opacity=".1"/><path fill="#83ad39" d="M31.96 12a20 20 0 0 0-15.886 7.906l3.453 2.074A16 16 0 0 1 32 16a16 16 0 0 1 16 16 16 16 0 0 1-16 16 16 16 0 0 1-12.48-5.988l-3.454 2.074A20 20 0 0 0 32 52a20 20 0 0 0 20-20 20 20 0 0 0-20-20zM12 19.563v24.863l20.715-12.43ZM32 20a12 12 0 0 0-9 4.066l3.516 2.11A8 8 0 0 1 31.879 24H32a8 8 0 0 1 8 8 8 8 0 0 1-8 8 8 8 0 0 1-5.492-2.184l-3.516 2.114A12 12 0 0 0 32 44a12 12 0 0 0 12-12 12 12 0 0 0-12-12"/><path fill="#fff" d="M32 4A28 28 0 0 0 4 32a28 28 0 0 0 .006.49A28 28 0 0 1 32 5a28 28 0 0 1 27.994 27.488A28 28 0 0 0 60 32 28 28 0 0 0 32 4" opacity=".2"/></svg>