<svg xmlns="http://www.w3.org/2000/svg" viewBox="0 0 64 64"><path d="M4.05 32c-.011.334-.05.662-.05 1 0 15.512 12.488 28 28 28s28-12.488 28-28c0-.338-.039-.665-.05-1C59.42 47.042 47.172 59 32 59 16.824 59 4.576 47.042 4.05 32" opacity=".2"/><path fill="#fecd38" d="M32 4C16.488 4 4 16.488 4 32s12.488 28 28 28 28-12.488 28-28S47.512 4 32 4"/><path fill="#fff" d="M32 17v12h12L32 49V37H20z" opacity=".4"/><path fill="#fff" d="M32 4C16.488 4 4 16.488 4 32c0 .098.011.194.018.291C4.392 17.111 16.726 5 32 5c15.27 0 27.602 12.104 27.982 27.28.006-.094.018-.186.018-.28C60 16.488 47.512 4 32 4" opacity=".2"/><path fill="#3f3f3f" d="M32 16v12h12L32 48V36H20z"/><circle cx="48" cy="47" r="16" opacity=".2"/><circle cx="48" cy="46" r="16" fill="#4daaf5"/><path fill="#fff" d="M45 44h6v12h-6zm0-8h6v6h-6z"/></svg>