<svg xmlns="http://www.w3.org/2000/svg" viewBox="0 0 64 64"><path d="M20 46v9c0 3 3 3 3 3h29s3 0 3-3v-9H25z" opacity=".2"/><path fill="#ff0" d="M25 45h5v12h-5z"/><path fill="#38732b" d="M20 45v9c0 3 3 3 3 3h2V45Zm10 0h5v12h-5z"/><path fill="#ff0" d="M35 45h5v12h-5z"/><path fill="#38732b" d="M40 45h5v12h-5z"/><path fill="#ff0" d="M45 45h5v12h-5z"/><path fill="#38732b" d="M55 45v9c0 3-3 3-3 3h-2V45Z"/><path fill="none" stroke="#000" stroke-linecap="round" stroke-linejoin="round" stroke-width="6" d="M5 10h6v44" opacity=".2"/><rect width="42" height="54" x="-53" y="-62" opacity=".2" rx="2.625" ry="2.7" transform="rotate(90)scale(-1 1)"/><rect width="42" height="54" x="-52" y="-62" fill="#5bbd41" rx="2.625" ry="2.7" transform="rotate(90)scale(-1 1)"/><path fill="#fff" d="M10.7 10C9.202 10 8 11.17 8 12.625v1C8 12.171 9.203 11 10.7 11h48.6c1.497 0 2.7 1.17 2.7 2.625v-1C62 11.171 60.797 10 59.3 10z" opacity=".2"/><path fill="none" stroke="#000" stroke-linecap="round" stroke-linejoin="round" stroke-width="5" d="M22.5 20.5h18l-18 24h18" opacity=".1"/><path fill="none" stroke="#3f3f3f" stroke-linecap="round" stroke-linejoin="round" stroke-width="5" d="M22.5 19.5h18l-18 24h18"/><path fill="none" stroke="#000" stroke-linecap="round" stroke-linejoin="round" stroke-width="3" d="M46.5 19.5h8l-8 12h8" opacity=".1"/><path fill="none" stroke="#3f3f3f" stroke-linecap="round" stroke-linejoin="round" stroke-width="3" d="M46.5 18.5h8l-8 12h8"/><path fill="none" stroke="#e4e4e4" stroke-linecap="round" stroke-linejoin="round" stroke-width="6" d="M5 9h6v44"/></svg>