<svg xmlns="http://www.w3.org/2000/svg" viewBox="0 0 16 16"><path fill="#26a2c1" d="M13.924 5.537c0 .241-.007.483-.005.725v2.832c0 .128 0 .256-.012.385-.01.759 0 1.518-.009 2.278v1.142c-.875 0-1.751.009-2.626-.006h-.044a1.5 1.5 0 0 1-.2-.639c0-.929-.005-1.858.006-2.786a11.5 11.5 0 0 0-.066-1.768q-.115.208-.238.412l-.04.075c-.234.385-.447.781-.663 1.174-.194.366-.4.724-.6 1.088q-.1.19-.211.38l-.04.069c-.745-.045-1.492-.041-2.238-.052q-.461-.8-.916-1.6c-.177-.3-.337-.6-.522-.9a4 4 0 0 1-.21-.332 9 9 0 0 0-.166-.269l-.061.025a1.5 1.5 0 0 0-.151.314q.021 1.094.057 2.189a17 17 0 0 1 0 2.18 3.04 3.04 0 0 1-1.484.48l-.155.022-.071.045H2V2.3l.056.03q.26-.03.522-.054c.986-.094 1.972-.188 2.959-.265.269.611.522 1.228.78 1.843.567 1.322 1.083 2.663 1.664 3.98q.092-.225.191-.451c.172-.4.338-.8.515-1.192q.318-.75.645-1.5.247-.58.5-1.159c.181-.4.338-.82.534-1.219h.093c.466.007.932 0 1.4 0h.841c.166.422.365.833.5 1.267a2 2 0 0 1 .413-.6 2 2 0 0 0-.413.6c-.13-.434-.33-.845-.5-1.267h.459c.284 0 .567-.005.85.018v3.294ZM2.086 9.9c.005.871-.005 1.743.009 2.614-.015-.871 0-1.742-.009-2.614m-.021-7.55c.012.027.028.06.035.079-.021.928-.013 1.855-.01 2.783 0-.928-.01-1.856.01-2.783-.007-.019-.023-.052-.035-.079M2.1 12.94c.223.009.446.007.669.008-.223-.001-.447.001-.669-.008m1.8-3.069a7.7 7.7 0 0 0 .67-1.564 7.7 7.7 0 0 1-.67 1.564m7.927 1.714q.067-.108.131-.216c.21-.521.419-1.043.6-1.575.093-.277.192-.553.276-.833s.179-.581.262-.873c-.083.292-.175.582-.262.873s-.183.556-.276.833c-.181.532-.39 1.054-.6 1.575a5 5 0 0 1-.129.216Zm.363-4.891a1.03 1.03 0 0 1-.224-.74 1.03 1.03 0 0 0 .224.74 2.7 2.7 0 0 0 1-1.155 2.7 2.7 0 0 1-.998 1.156Zm1.726-2.634v.885-.435l.002-.449Z" data-iconColor="Maya"/></svg>