<svg xmlns="http://www.w3.org/2000/svg" xmlns:xlink="http://www.w3.org/1999/xlink" viewBox="0 0 96 96"><defs><linearGradient id="b" x1="3.389%" x2="96.611%" y1="58.676%" y2="32.501%"><stop offset="0%" stop-color="#94ff94"/><stop offset="100%" stop-color="#02f203"/></linearGradient><linearGradient id="c" x1="100%" x2="25.516%" y1="91.322%" y2="27.494%"><stop offset="0%" stop-color="#c4c4ff"/><stop offset="100%" stop-color="#0000f1"/></linearGradient><linearGradient id="d" x1="100%" x2="18.419%" y1="8.678%" y2="72.757%"><stop offset="0%" stop-color="#ffc0c0"/><stop offset="100%" stop-color="red"/></linearGradient><linearGradient id="e" x1="33.995%" x2="100%" y1="38.736%" y2="95.747%"><stop offset="0%" stop-color="#f3f4fc"/><stop offset="100%" stop-color="#4847c1"/></linearGradient><filter id="a" width="131.6%" height="131.6%" x="-15.8%" y="-15.8%" filterUnits="objectBoundingBox"><feOffset dy="2" in="SourceAlpha" result="shadowOffsetOuter1"/><feGaussianBlur in="shadowOffsetOuter1" result="shadowBlurOuter1" stdDeviation="2"/><feComposite in="shadowBlurOuter1" in2="SourceAlpha" operator="out" result="shadowBlurOuter1"/><feColorMatrix in="shadowBlurOuter1" result="shadowMatrixOuter1" values="0 0 0 0 0 0 0 0 0 0 0 0 0 0 0 0 0 0 0.2 0"/><feMerge><feMergeNode in="shadowMatrixOuter1"/><feMergeNode in="SourceGraphic"/></feMerge></filter></defs><g fill="none" fill-rule="evenodd" filter="url(#a)" transform="translate(10 10)"><path fill="url(#b)" d="M15 26v2h-2v1h1v1h1v1h20v19H15v1h-1v1h-1v1h2v2H7v-8h2v2h1v-1h1v-1h1V34h-1v-1h-1v-1H9v2H7v-8zm16 9H16v11h15z"/><path fill="url(#c)" d="M44 63v2h-1v1h-1v1h2v2h-8v-8h2v2h1v-1h1v-1h1V44h20v-1h1v-1h1v-1h-2v-2h8v8h-2v-2h-1v1h-1v1h-1v14h1v1h1v1h1v-2h2v8h-8v-2h2v-1h-1v-1h-1v-2zm16-15H45v11h15z"/><path fill="url(#d)" d="m33 30-.001-16H32v-1h-1v-1h-1v2h-2V6h8v2h-2v1h1v1h1v1h16.999L53 10h1V9h1V8h-2V6h8v8h-2v-2h-1v1h-1v1h-1.001v14H57v1h1v1h1v-2h2v8h-8v-2h2v-1h-1v-1h-1v-2zm19-15H37v11h15z"/><path fill="url(#e)" fill-rule="nonzero" d="M46 0v44H0v-4h42V0z" transform="matrix(-1 0 0 -1 46 44)"/><path fill="url(#e)" fill-rule="nonzero" d="M76 32v44H30v-4h42V32z"/></g></svg>