<svg xmlns="http://www.w3.org/2000/svg" viewBox="0 0 64 64"><path fill="#e4e4e4" d="M57.2 8H6.8C5.249 8 4 9.338 4 11v42c0 1.662 1.249 3 2.8 3h50.4c1.551 0 2.8-1.338 2.8-3V11c0-1.662-1.248-3-2.8-3"/><path d="M4 11c0-1.662 1.249-3 2.8-3H32v48H6.8C5.249 56 4 54.662 4 53z" opacity=".15"/><path d="M8 12h12v2H8zm0 6h18v2H8zm0 6h20v2H8zm0 6h14v2H8zm0 6h18v2H8z" opacity=".6"/><path fill="#c2352a" d="M36 14v36h6V34l6 16h8v-6h-4l-4-10h8V14zm6 6h8v8h-8z"/><path fill="#fff" d="M6.8 8C5.25 8 4 9.338 4 11v1c0-1.662 1.25-3 2.8-3h50.4c1.55 0 2.8 1.338 2.8 3v-1c0-1.662-1.25-3-2.8-3z" opacity=".2"/><path d="M4 53v1c0 1.662 1.25 3 2.8 3h50.4c1.55 0 2.8-1.338 2.8-3v-1c0 1.662-1.25 3-2.8 3H6.8C5.25 56 4 54.662 4 53" opacity=".2"/></svg>