<svg xmlns="http://www.w3.org/2000/svg" image-rendering="optimizeSpeed" viewBox="0 0 64 64"><rect width="52" height="52" x="6" y="6" fill="#3e4245" stroke="#adadad" stroke-width="2" paint-order="stroke markers fill" rx="2" ry="2"/><rect width="52" height="52" x="6" y="6" fill="#f2f2f2" paint-order="stroke markers fill" rx="2" ry="2"/><path d="M12 15h24v2H12z" opacity=".35"/><circle cx="43" cy="16" r="2" fill="#3db8ff"/><circle cx="43" cy="16" r="1.333" fill="#8cd5ff"/><circle cx="51" cy="16" r="2" fill="#60b305"/><circle cx="51" cy="16" r="1.333" fill="#72d406"/><path d="M12 31h24v2H12zm0 16h24v2H12z" opacity=".35"/><rect width="52" height="1" x="6" y="23" fill="#00000f" fill-rule="evenodd" opacity=".15" paint-order="fill markers stroke" rx="0" ry="0"/><rect width="52" height="1" x="6" y="39" fill="#00000f" fill-rule="evenodd" opacity=".15" paint-order="fill markers stroke" rx="0" ry="0"/><circle cx="43" cy="32" r="2" fill="#3db8ff"/><circle cx="43" cy="32" r="1.333" fill="#8cd5ff"/><circle cx="51" cy="32" r="2" fill="#60b305"/><circle cx="51" cy="32" r="1.333" fill="#72d406"/><circle cx="43" cy="48" r="2" fill="#3db8ff"/><circle cx="43" cy="48" r="1.333" fill="#8cd5ff"/><circle cx="51" cy="48" r="2" fill="#60b305"/><circle cx="51" cy="48" r="1.333" fill="#72d406"/></svg>