<svg xmlns="http://www.w3.org/2000/svg" viewBox="0 0 64 64"><path d="M9.479 5a5.5 5.5 0 0 0-5.5 5.5 5.5 5.5 0 0 0 5.5 5.5 5.5 5.5 0 0 0 4.882-2.977c1.815.765 3.784 1.999 5.297 4.016 2.045 2.726 2.89 6.456 3.25 9.316A24 18 0 0 0 8 43a24 18 0 0 0 24 18 24 18 0 0 0 24-18 24 18 0 0 0-14.928-16.654c.362-2.86 1.206-6.584 3.248-9.307 1.514-2.018 3.484-3.253 5.3-4.018A5.5 5.5 0 0 0 54.5 16a5.5 5.5 0 0 0 5.5-5.5A5.5 5.5 0 0 0 54.5 5a5.5 5.5 0 0 0-5.49 5.23c-2.311.898-4.917 2.446-6.93 5.13-2.409 3.212-3.403 7.184-3.814 10.286A24 18 0 0 0 32 25a24 18 0 0 0-6.285.633c-.413-3.1-1.411-7.066-3.817-10.274-2.012-2.683-4.618-4.231-6.93-5.129A5.5 5.5 0 0 0 9.479 5" opacity=".2"/><path fill="#4f4f4f" d="M9.418 8a1.4 1.4 0 1 0-.078 2.799s6.57.242 10.318 5.24c3.752 5.003 3.522 13.498 3.522 13.498a1.4 1.4 0 1 0 2.799.127s.567-9.107-4.08-15.305C17.246 8.158 9.417 8 9.417 8"/><circle cx="9.479" cy="9.5" r="5.5" fill="#fcde4b"/><path fill="#4f4f4f" d="M54.56 8s-7.829.158-12.48 6.36c-4.648 6.197-4.078 15.304-4.078 15.304a1.4 1.4 0 1 0 2.797-.127s-.23-8.495 3.521-13.498c3.75-4.998 10.319-5.24 10.319-5.24A1.4 1.4 0 1 0 54.56 8"/><circle cx="-54.5" cy="9.5" r="5.5" fill="#fcde4b" transform="scale(-1 1)"/><ellipse cx="32" cy="42" fill="#fcde4b" rx="24" ry="18"/><path fill="#fff" d="M9.479 4a5.5 5.5 0 0 0-5.5 5.5 6 6 0 0 0 .025.486A5.5 5.5 0 0 1 9.479 5a5.5 5.5 0 0 1 5.474 5.014 6 6 0 0 0 .026-.514 5.5 5.5 0 0 0-5.5-5.5M54.5 4A5.5 5.5 0 0 0 49 9.5a6 6 0 0 0 .025.514A5.5 5.5 0 0 1 54.5 5a5.5 5.5 0 0 1 5.475 4.986A6 6 0 0 0 60 9.5 5.5 5.5 0 0 0 54.5 4M32 24A24 18 0 0 0 8 42a24 18 0 0 0 .027.582A24 18 0 0 1 32 25a24 18 0 0 1 23.973 17.418A24 18 0 0 0 56 42a24 18 0 0 0-24-18" opacity=".2"/><path d="M18 30a10 7 0 0 0-10 7 10 7 0 0 0 10 7 10 7 0 0 0 10-7 10 7 0 0 0-10-7m28 0a10 7 0 0 0-10 7 10 7 0 0 0 10 7 10 7 0 0 0 10-7 10 7 0 0 0-10-7M32 46c-2.1 0-1.6 1-3 1-1.02 0-2-.14-2 .56 0 1.4.8 6.44 5 6.44s5-5.04 5-6.44c0-.7-.98-.56-2-.56-1.4 0-.9-1-3-1" opacity=".1"/><ellipse cx="18" cy="36" fill="#53d953" rx="10" ry="7"/><ellipse cx="18" cy="34" fill="#fff" rx="4" ry="3"/><ellipse cx="46" cy="36" fill="#53d953" rx="10" ry="7"/><path fill="#f9548f" d="M27 46.56c0-.7.98-.56 2-.56 1.4 0 .9-1 3-1s1.6 1 3 1c1.02 0 2-.14 2 .56 0 1.4-.8 6.44-5 6.44s-5-5.04-5-6.44"/><ellipse cx="46" cy="34" fill="#fff" rx="4" ry="3"/></svg>