<svg xmlns="http://www.w3.org/2000/svg" viewBox="0 0 24 24"><g fill="#536076"><path d="M10 6a2 2 0 1 0 0 4 2 2 0 0 0 0-4m0-1a3 3 0 1 1 0 6 3 3 0 0 1 0-6m5 2.95v.048c0 1-.3 1.958-.843 2.768.246.149.535.232.84.232.885 0 1.593-.689 1.593-1.525 0-.801-.648-1.467-1.479-1.524zm2.59 1.523c0 1.395-1.161 2.525-2.594 2.525a2.6 2.6 0 0 1-2.18-1.17 3.99 3.99 0 0 0 1.122-3.527l.017-.012c.304-.22.67-.34 1.045-.34 1.43-.002 2.59 1.13 2.59 2.524M10 12.996C16 12.99 16 17 16 17v1H4v-1.033c.017-.384.321-3.968 6-3.97m1.058 1.07c-.639-.085-1.308-.062-2.038-.032q-3.697.418-4 2.94h9.99c-.335-1.956-1.992-2.74-3.952-2.907"/><path d="M15 12.998c4.8 0 4.992 2.765 5 2.986v1.014h-3s-.01-1.34-.95-2.6c-.374-.5-.905-.977-1.603-1.377.181-.008.357-.021.553-.021Zm2.173 1.287q.498.832.693 1.73.823-.02 1.137-.023c-.238-1.297-1.677-1.668-1.83-1.707"/></g></svg>