<svg xmlns="http://www.w3.org/2000/svg" viewBox="0 0 64 64"><rect width="52" height="32" x="6" y="17" opacity=".2" rx="2.6" ry="2.6"/><rect width="52" height="32" x="6" y="16" fill="#419d45" rx="2.6" ry="2.6"/><g opacity=".2"><rect width="9" height="15" x="9" y="24" rx="1" ry="1"/><rect width="9" height="15" x="21" y="24" rx="1" ry="1"/><rect width="9" height="15" x="34" y="24" rx="1" ry="1"/><rect width="9" height="15" x="46" y="24" rx="1" ry="1"/></g><path d="M10 46h3v4h-3zm4 0h3v4h-3zm4 0h3v4h-3zm4 0h3v4h-3zm4 0h3v4h-3zm5 0h3v4h-3zm4 0h3v4h-3zm4 0h3v4h-3zm4 0h3v4h-3zm4 0h3v4h-3zm4 0h3v4h-3z" opacity=".2"/><path fill="#f8c44e" d="M10 45h3v4h-3zm4 0h3v4h-3zm4 0h3v4h-3zm4 0h3v4h-3zm4 0h3v4h-3zm5 0h3v4h-3zm4 0h3v4h-3zm4 0h3v4h-3zm4 0h3v4h-3zm4 0h3v4h-3zm4 0h3v4h-3z"/><g fill="#37474f"><rect width="9" height="15" x="9" y="23" rx="1" ry="1"/><rect width="9" height="15" x="21" y="23" rx="1" ry="1"/><rect width="9" height="15" x="34" y="23" rx="1" ry="1"/><rect width="9" height="15" x="46" y="23" rx="1" ry="1"/></g><path fill="#fff" d="M8.6 16C7.16 16 6 17.159 6 18.6v1C6 18.159 7.16 17 8.6 17h46.8c1.441 0 2.6 1.159 2.6 2.6v-1c0-1.441-1.159-2.6-2.6-2.6zm1.4 7c-.554 0-1 .446-1 1v1c0-.554.446-1 1-1h7c.554 0 1 .446 1 1v-1c0-.554-.446-1-1-1Zm12 0c-.554 0-1 .446-1 1v1c0-.554.446-1 1-1h7c.554 0 1 .446 1 1v-1c0-.554-.446-1-1-1Zm13 0c-.554 0-1 .446-1 1v1c0-.554.446-1 1-1h7c.554 0 1 .446 1 1v-1c0-.554-.446-1-1-1Zm12 0c-.554 0-1 .446-1 1v1c0-.554.446-1 1-1h7c.554 0 1 .446 1 1v-1c0-.554-.446-1-1-1Z" opacity=".1"/></svg>