<svg xmlns="http://www.w3.org/2000/svg" viewBox="0 0 24 24"><g fill="none"><path fill="#000" d="M8.799 4.77a5 5 0 0 1 .8.013c1.017.102 1.819.506 2.569.881l.248.124c.66.325 1.295.606 2.059.683.858.086 1.902-.08 3.357-.807l.336-.168.168.336c.772 1.545.982 2.751.88 3.768-.1 1.016-.505 1.818-.88 2.568l-.124.248c-.325.659-.606 1.295-.683 2.059-.086.858.08 1.902.807 3.357l.168.336-.336.168c-1.545.772-2.751.982-3.768.88-1.016-.1-1.818-.505-2.568-.88l-.248-.124c-.66-.325-1.295-.606-2.059-.683-.858-.086-1.902.08-3.357.807l-.336.168-.168-.336c-.772-1.545-.982-2.751-.88-3.768.1-1.016.505-1.818.88-2.568s.72-1.448.807-2.307c.086-.858-.08-1.902-.807-3.357l-.168-.336.336-.168c1.159-.58 2.126-.842 2.967-.895m2.197 1.457c-2.12-1.151-4.244.13-4.245.13q1.348 2.288.166 5.209-.313.543-.698 1.424-1.033 1.915.185 4.382.068-.386 1.187-.662c.984-.297 2.225-.257 3.331.13.425.124 1.705.807 2.578 1.15 1.911.681 3.708-.343 3.744-.364-.501-.436-.921-2.707-.621-3.795.472-1.946.802-1.788 1.401-3.385.591-1.648-.213-3.318-.354-3.709-2.46 1.392-4.563.617-6.674-.51" opacity=".3"/><path fill="#536076" d="M4 4v3h3V4zm13 0v3h3V4zM4 17v3h3v-3zm16 0v3h-3v-3zm-1 1h-1v1h1zM6 18v1H5v-1zM6 5v1H5V5zm13 0v1h-1V5z"/></g></svg>