<svg xmlns="http://www.w3.org/2000/svg" viewBox="0 0 64 64"><rect width="56" height="56" x="4" y="5" opacity=".2" rx="28" ry="28"/><rect width="56" height="56" x="4" y="4" fill="#4f4f4f" rx="28" ry="28"/><path d="M32 11c-12.188 0-22 9.812-22 22 0 4.017 1.083 7.765 2.949 11H51.05A21.93 21.93 0 0 0 54 33c0-12.188-9.812-22-22-22" opacity=".2"/><path fill="#ffe485" d="M32 10c-12.188 0-22 9.812-22 22 0 4.017 1.083 7.765 2.949 11H51.05A21.93 21.93 0 0 0 54 32c0-12.188-9.812-22-22-22"/><path fill="none" stroke="#000" stroke-linecap="round" stroke-width="3" d="M14.125 26.4s5.5-6.875 17.875-6.875S49.875 26.4 49.875 26.4" opacity=".3"/><path fill="none" stroke="#e93232" stroke-linecap="round" stroke-width="3" d="M39.405 20.433c7.19 1.868 10.47 5.967 10.47 5.967"/><circle cx="32" cy="43" r="6" fill="#4f4f4f"/><path fill="#fff" d="M32 4C16.488 4 4 16.488 4 32c0 .168.01.333.014.5C4.28 17.221 16.656 5 32 5s27.72 12.221 27.986 27.5c.003-.167.014-.332.014-.5C60 16.488 47.512 4 32 4" opacity=".1"/><path fill="#fff" d="M32 10c-12.188 0-22 9.812-22 22 0 .145.013.287.016.432A21.945 21.945 0 0 1 32 11a21.945 21.945 0 0 1 21.984 21.432c.003-.145.016-.287.016-.432 0-12.188-9.812-22-22-22" opacity=".2"/><path d="M32 37a6 6 0 0 0-6 6 6 6 0 0 0 .025.498A6 6 0 0 1 32 38a6 6 0 0 1 5.975 5.502A6 6 0 0 0 38 43a6 6 0 0 0-6-6" opacity=".2"/></svg>