<svg xmlns="http://www.w3.org/2000/svg" xmlns:xlink="http://www.w3.org/1999/xlink" viewBox="0 0 24 24"><defs><mask id="a"><path fill="#fff" d="M0 50.88c0-7.52 5.34-16.71 11.81-20.46L59.63 2.81c6.5-3.75 17.13-3.75 23.63 0l47.82 27.61c6.5 3.75 11.82 13 11.82 20.46v55.22c0 7.5-5.32 16.71-11.82 20.46l-47.82 27.61c-6.5 3.75-17.13 3.75-23.63 0l-47.82-27.61C5.32 122.81 0 113.56 0 106.1Z"/></mask></defs><g fill="#ef5350" data-iconColor="Metro" mask="url(#a)" transform="translate(2.732 1.82)scale(.12929)"><path d="M0 50.88c0-7.52 5.34-16.71 11.81-20.46L59.63 2.81c6.5-3.75 17.13-3.75 23.63 0l47.82 27.61c6.5 3.75 11.82 13 11.82 20.46v55.22c0 7.5-5.32 16.71-11.82 20.46l-47.82 27.61c-6.5 3.75-17.13 3.75-23.63 0l-47.82-27.61C5.32 122.81 0 113.56 0 106.1Z"/><path fill="#fff" d="M71.45 141.66a11.1 11.1 0 0 1-5.52-1.4l-44.49-25.69a11.53 11.53 0 0 1-5.51-9.55V53.65a11.53 11.53 0 0 1 5.51-9.55l44.5-25.69a11.75 11.75 0 0 1 11 0l44.49 25.69a11.51 11.51 0 0 1 5.51 9.55v51.37a11.52 11.52 0 0 1-5.5 9.55l-44.48 25.69a11.1 11.1 0 0 1-5.51 1.4m-43.7-37.09 43.7 25.23 43.7-25.23V54.1l-43.7-25.23-43.7 25.23Z"/><path d="M71.45 128.5a6.64 6.64 0 0 1-3.32-.89L18.52 98.97a6.65 6.65 0 0 1-3.33-5.76V35.93a6.65 6.65 0 0 1 10.15-5.68l46.16 28 46.16-28a6.65 6.65 0 0 1 10.09 5.68v57.28a6.64 6.64 0 0 1-3.32 5.76l-49.66 28.64a6.7 6.7 0 0 1-3.32.89M28.48 89.36l43 24.81 43-24.81V47.74l-39.51 24a6.63 6.63 0 0 1-6.9 0l-39.52-24z"/><path fill="#fff" d="M126.96 107.98h-11.81V61.19L74.51 85.87a5.88 5.88 0 0 1-6.13 0L27.75 61.19v46.79H15.93V50.69a5.92 5.92 0 0 1 9-5l46.52 28.22 46.54-28.27a5.91 5.91 0 0 1 9 5z"/></g></svg>