<svg xmlns="http://www.w3.org/2000/svg" viewBox="0 0 22 22"><path fill="currentColor" d="M11 2C9.338 2 8 3.338 8 5v7c0 1.662 1.338 3 3 3s3-1.338 3-3V5c0-1.662-1.338-3-3-3m0 1c1.108 0 2 .892 2 2v7c0 1.108-.892 2-2 2s-2-.892-2-2V5c0-1.108.892-2 2-2" class="ColorScheme-Text"/><path fill="currentColor" d="M6.5 10c-.277 0-.5.223-.5.5V12a4.99 4.99 0 0 0 4.5 4.975V19h-2a.499.499 0 1 0 0 1h5a.499.499 0 1 0 0-1h-2v-2.025A4.99 4.99 0 0 0 16 12v-1.5a.499.499 0 1 0-1 0V12c0 2.216-1.784 4-4 4s-4-1.784-4-4v-1.5c0-.277-.223-.5-.5-.5" class="ColorScheme-Text"/></svg>