<svg xmlns="http://www.w3.org/2000/svg" viewBox="0 0 64 64"><path d="M54 58.2V19H10v39.2c0 1.551 1.227 2.8 2.75 2.8h38.5c1.523 0 2.75-1.249 2.75-2.8" opacity=".2"/><path fill="#e4e4e4" d="M54 57.2V18H10v39.2c0 1.551 1.227 2.8 2.75 2.8h38.5c1.523 0 2.75-1.249 2.75-2.8"/><path fill="#b8b8b8" d="M20 10h24l10 8H10Z"/><path fill="#a3a3a3" d="M20 4h24v6H20zm24 6 10 8H36Z"/><path fill="#b8b8b8" d="M36 18v42h15.429C52.853 60 54 58.751 54 57.2V18Z"/><path fill="none" stroke="#000" stroke-linecap="round" stroke-linejoin="round" stroke-width="4" d="M29 46.943V30.972m-11.983 0 5.983 8 6-8M17.017 46.943V30.972" opacity=".2"/><path fill="none" stroke="#3a86c5" stroke-linecap="round" stroke-linejoin="round" stroke-width="4" d="M29 45.972V30m-11.983 0L23 38l6-8M17.017 45.972V30"/><path fill="none" stroke="#000" stroke-linecap="round" stroke-width="4" d="M41.028 30.972h8m-4 16v-16" opacity=".2"/><path fill="none" stroke="#3a86c5" stroke-linecap="round" stroke-width="4" d="M41.028 30h8m-4 16V30"/><path fill="#fff" d="M20 4v1h24V4z" opacity=".1"/></svg>