<svg xmlns="http://www.w3.org/2000/svg" viewBox="0 0 64 64"><rect width="54" height="54" x="-60" y="-59" opacity=".2" rx="6" ry="6" transform="rotate(90)scale(-1 1)"/><rect width="6" height="6" x="5" y="17" fill="#9bca6b" ry="0"/><rect width="6" height="6" x="11" y="35" fill="#583c28" ry="0"/><rect width="6" height="6" x="-35" y="35" fill="#b8845b" ry="0" transform="scale(-1 1)"/><rect width="6" height="6" x="-29" y="35" fill="#785439" ry="0" transform="scale(-1 1)"/><rect width="6" height="6" x="-35" y="29" fill="#956b49" ry="0" transform="scale(-1 1)"/><rect width="6" height="6" x="23" y="29" fill="#785439" ry="0"/><rect width="6" height="6" x="-29" y="23" fill="#583c28" ry="0" transform="scale(-1 1)"/><rect width="6" height="6" x="53" y="11" fill="#9bca6b" ry="0"/><path fill="#72b248" d="M11 5v6H5c0-6 6-6 6-6"/><rect width="6" height="6" x="-41" y="-47" fill="#b8845b" ry="0" transform="scale(-1)"/><rect width="6" height="6" x="17" y="35" fill="#785439" ry="0"/><rect width="6" height="6" x="17" y="29" fill="#583c28" ry="0"/><rect width="6" height="6" x="-41" y="29" fill="#6b6b6b" ry="0" transform="scale(-1 1)"/><rect width="6" height="6" x="35" y="23" fill="#956b49" ry="0"/><rect width="6" height="6" x="-23" y="17" fill="#60a036" ry="0" transform="scale(-1 1)"/><rect width="6" height="6" x="-47" y="35" fill="#956b49" ry="0" transform="scale(-1 1)"/><rect width="6" height="6" x="11" y="11" fill="#9bca6b" ry="0"/><rect width="6" height="6" x="29" y="17" fill="#72b248" ry="0"/><rect width="6" height="6" x="35" y="17" fill="#56962c" ry="0"/><rect width="6" height="6" x="41" y="17" fill="#60a036" ry="0"/><rect width="6" height="6" x="-47" y="23" fill="#72b248" ry="0" transform="scale(-1 1)"/><rect width="6" height="6" x="-17" y="29" fill="#785439" ry="0" transform="scale(-1 1)"/><rect width="6" height="6" x="-29" y="17" fill="#56962c" ry="0" transform="scale(-1 1)"/><rect width="6" height="6" x="-11" y="11" fill="#60a036" ry="0" transform="scale(-1 1)"/><rect width="6" height="6" x="-53" y="53" fill="#785439" ry="0" transform="scale(-1 1)"/><rect width="6" height="6" x="23" y="53" fill="#785439" ry="0"/><rect width="6" height="6" x="29" y="53" fill="#956b49" ry="0"/><rect width="6" height="6" x="17" y="-59" fill="#956b49" ry="0" transform="scale(1 -1)"/><rect width="6" height="6" x="-41" y="-59" fill="#785439" ry="0" transform="scale(-1)"/><rect width="6" height="6" x="17" y="47" fill="#583c28" ry="0"/><rect width="6" height="6" x="23" y="47" fill="#6b6b6b" ry="0"/><rect width="6" height="6" x="35" y="47" fill="#785439" ry="0"/><rect width="6" height="6" x="29" y="47" fill="#583c28" ry="0"/><rect width="6" height="6" x="47" y="47" fill="#583c28" ry="0"/><rect width="6" height="6" x="-17" y="-53" fill="#6b6b6b" ry="0" transform="scale(-1)"/><rect width="6" height="6" x="11" y="-59" fill="#b8845b" ry="0" transform="scale(1 -1)"/><rect width="6" height="6" x="-53" y="35" fill="#b8845b" ry="0" transform="scale(-1 1)"/><rect width="6" height="6" x="-53" y="29" fill="#956b49" ry="0" transform="scale(-1 1)"/><rect width="6" height="6" x="47" y="5" fill="#9bca6b" ry="0"/><rect width="6" height="6" x="47" y="17" fill="#72b248" ry="0"/><rect width="6" height="6" x="-47" y="5" fill="#72b248" ry="0" transform="scale(-1 1)"/><rect width="6" height="6" x="35" y="5" fill="#60a036" ry="0"/><rect width="6" height="6" x="11" y="5" fill="#72b248" ry="0"/><rect width="6" height="6" x="17" y="5" fill="#56962c" ry="0"/><rect width="6" height="6" x="29" y="5" fill="#56962c" ry="0"/><rect width="6" height="6" x="23" y="5" fill="#72b248" ry="0"/><rect width="6" height="6" x="-11" y="-29" fill="#b8845b" ry="0" transform="scale(-1)"/><rect width="6" height="6" x="5" y="-53" fill="#b8845b" ry="0" transform="scale(1 -1)"/><rect width="6" height="6" x="5" y="35" fill="#956b49" ry="0"/><rect width="6" height="6" x="5" y="29" fill="#583c28" ry="0"/><rect width="6" height="6" x="-23" y="23" fill="#b8845b" ry="0" transform="scale(-1 1)"/><rect width="6" height="6" x="41" y="11" fill="#56962c" ry="0"/><rect width="6" height="6" x="47" y="11" fill="#60a036" ry="0"/><rect width="6" height="6" x="-35" y="11" fill="#56962c" ry="0" transform="scale(-1 1)"/><rect width="6" height="6" x="35" y="11" fill="#72b248" ry="0"/><path fill="#72b248" d="M53 5s6 0 6 6h-6z"/><rect width="6" height="6" x="-23" y="11" fill="#56962c" ry="0" transform="scale(-1 1)"/><rect width="6" height="6" x="53" y="23" fill="#56962c" ry="0"/><rect width="6" height="6" x="23" y="11" fill="#9bca6b" ry="0"/><rect width="6" height="6" x="-23" y="41" fill="#b8845b" ry="0" transform="scale(-1 1)"/><rect width="6" height="6" x="11" y="-47" fill="#785439" ry="0" transform="scale(1 -1)"/><rect width="6" height="6" x="23" y="-47" fill="#583c28" ry="0" transform="scale(1 -1)"/><rect width="6" height="6" x="29" y="-47" fill="#785439" ry="0" transform="scale(1 -1)"/><rect width="6" height="6" x="41" y="-35" fill="#785439" ry="0" transform="scale(1 -1)"/><rect width="6" height="6" x="53" y="-35" fill="#785439" ry="0" transform="scale(1 -1)"/><path fill="#583c28" d="M11 59v-6H5s0 6 6 6"/><rect width="6" height="6" x="-11" y="41" fill="#6b6b6b" ry="0" transform="scale(-1 1)"/><rect width="6" height="6" x="-41" y="29" fill="#6b6b6b" ry="0" transform="scale(-1 1)"/><rect width="6" height="6" x="-17" y="23" fill="#6b6b6b" ry="0" transform="scale(-1 1)"/><rect width="6" height="6" x="-53" y="-29" fill="#6b6b6b" ry="0" transform="scale(-1)"/><rect width="6" height="6" x="-59" y="17" fill="#b8845b" ry="0" transform="scale(-1 1)"/><rect width="6" height="6" x="41" y="53" fill="#b8845b" ry="0"/><rect width="6" height="6" x="-47" y="41" fill="#785439" ry="0" transform="scale(-1 1)"/><rect width="6" height="6" x="-59" y="41" fill="#956b49" ry="0" transform="scale(-1 1)"/><rect width="6" height="6" x="-17" y="-23" fill="#785439" ry="0" transform="scale(-1)"/><rect width="6" height="6" x="47" y="41" fill="#6b6b6b" ry="0"/><rect width="6" height="6" x="-35" y="23" fill="#b8845b" ry="0" transform="scale(-1 1)"/><rect width="6" height="6" x="53" y="47" fill="#785439" ry="0"/><path fill="#6b6b6b" d="M53 53h6c0 6-6 6-6 6z"/><rect width="6" height="6" x="35" y="35" fill="#785439" ry="0"/><rect width="6" height="6" x="53" y="-41" fill="#583c28" ry="0" transform="scale(1 -1)"/><rect width="6" height="6" x="41" y="-53" fill="#785439" ry="0" transform="scale(1 -1)"/><path fill="#fff" d="M11 5c-3.324 0-6 2.676-6 6v1c0-3.324 2.676-6 6-6h42c3.324 0 6 2.676 6 6v-1c0-3.324-2.676-6-6-6z" opacity=".2"/></svg>