<svg xmlns="http://www.w3.org/2000/svg" viewBox="0 0 64 64"><path d="M4 50v2c0 1.662 1.338 3 3 3h50c1.662 0 3-1.338 3-3v-2c0 1.662-1.338 3-3 3H7c-1.662 0-3-1.338-3-3" opacity=".2"/><rect width="44" height="56" x="-54" y="-60" fill="#995d27" rx="3" ry="3" transform="rotate(90)scale(-1 1)"/><path fill="#fff" d="M7 10c-1.662 0-3 1.338-3 3v1c0-1.662 1.338-3 3-3h50c1.662 0 3 1.338 3 3v-1c0-1.662-1.338-3-3-3z" opacity=".1"/><path d="M48 33c0-16.615-6.666-18-20-18S8 16.385 8 33c0 16.616 6.667 18 20 18s20-1.384 20-18" opacity=".2"/><path fill="#57c2ff" d="M48 32c0-16.615-6.666-18-20-18S8 15.385 8 32c0 16.616 6.667 18 20 18s20-1.384 20-18"/><path fill="#323232" d="M50 40v2h8v-2zm0 3v2h8v-2zm0 3v2h8v-2z"/><g opacity=".2" transform="matrix(2 0 0 2 0 -2)"><circle cx="27" cy="11" r="2"/><circle cx="27" cy="16" r="2"/></g><circle cx="54" cy="19" r="4" fill="#fff"/><circle cx="54" cy="29" r="4" fill="#fff"/><path fill="#fff" d="M28 14C14.667 14 8 15.385 8 32c0 .177.012.327.014.5C8.154 16.38 14.808 15 28 15s19.846 1.38 19.986 17.5c.002-.173.014-.323.014-.5 0-16.615-6.666-18-20-18" opacity=".2"/></svg>