<svg xmlns="http://www.w3.org/2000/svg" viewBox="0 0 16 16"><path fill="currentColor" d="M8 5a3 3 0 0 1 2.209.975l.789-.457-.178 1.474.004.008h-.004l-.121 1L8.4 7.018l.909-.526A2 2 0 0 0 8 6a2 2 0 0 0-1.73 1H5.173A3 3 0 0 1 8 5M5.299 8.018 7.598 9l-.897.518A2 2 0 0 0 8 10a2 2 0 0 0 1.73-1h1.096A3 3 0 0 1 8 11a3 3 0 0 1-2.197-.963L5 10.5l.18-1.49L5.176 9h.004z" class="ColorScheme-Text"/><path fill="currentColor" d="M7.998 0a2.5 2.5 0 0 0-.814.156l-.02.008-.018.006C6.012.617 3.38 1.49 1.955 2.059l-.012.004-.011.005c-.23.099-.557.308-.739.637s-.189.619-.19.848L1 8.895c-.001 1.494.474 2.739 1.473 3.709.996.968 2.396 1.77 4.47 3.035.318.197.685.361 1.051.361.36 0 .74-.164 1.057-.361 2.046-1.237 3.447-2.035 4.449-3.006 1.004-.974 1.495-2.228 1.496-3.736L15 3.555c0-.23-.004-.522-.191-.858-.188-.335-.535-.552-.784-.646l-.01-.002-.01-.004C12.642 1.559 10.022.628 8.86.17L8.84.164 8.82.156A2.5 2.5 0 0 0 7.998 0m0 1c.137 0 .284.028.494.102 1.208.476 3.815 1.4 5.178 1.884.265.101.33.24.33.569l-.004 5.34c-.002 2.681-1.355 3.404-5.473 5.894-.265.165-.392.211-.529.211-.128 0-.258-.046-.523-.211C3.298 12.245 1.998 11.558 2 8.895l.004-5.34c0-.33.064-.459.32-.569 1.354-.54 3.982-1.408 5.19-1.884A1.5 1.5 0 0 1 7.998 1" class="ColorScheme-Text"/></svg>