<svg xmlns="http://www.w3.org/2000/svg" fill="none" viewBox="-20 -20 540 540"><g fill="#18e299" data-iconColor="Mintlify"><path d="M130.833 179.492a172.13 172.13 0 0 1 49.485-119.517h-.058L59.006 181.228h.058q-.678.534-1.273 1.158a173.17 173.17 0 0 0-16.264 226.302l122.469-122.469 1.274-1.216a171.95 171.95 0 0 1-34.437-105.511m294.424 125.479a173.41 173.41 0 0 1-179.479 39.53 169.9 169.9 0 0 1-45.492-24.482l-1.273 1.273-122.47 122.412a173.4 173.4 0 0 0 226.244-16.264l1.216-1.215z"/><path d="M477.232 181.228V16a8 8 0 0 0-8-8H304.004a172.7 172.7 0 0 0-122.47 50.759l-1.215 1.215a172.07 172.07 0 0 0-43.929 77.383 176.2 176.2 0 0 1 42.135-5.614 172.4 172.4 0 0 1 105.511 34.495 172.65 172.65 0 0 1 59.44 80.508 174.04 174.04 0 0 1 4.399 102.096 171.8 171.8 0 0 0 77.382-43.929l1.216-1.158a172.7 172.7 0 0 0 50.759-122.527"/></g></svg>