<svg xmlns="http://www.w3.org/2000/svg" viewBox="0 0 64 64"><circle cx="32" cy="33" r="28" opacity=".2"/><circle cx="32" cy="32" r="28" fill="#afd817"/><path fill="#3f3f3f" d="M42.634 15.175 9.999 49.31a28 28 0 0 0 3.891 4.041l32.794-34.303z"/><path fill="none" stroke="#3f3f3f" stroke-width="5.6" d="M19.066 44.356c-.255-.747 3.928-5.619 3.414-8.182-1.406-7.006-3.674-8.622 3.167-14.676M22.83 38.783c.746.254 3.893-2.43 6.27-2.29 7.133.419 9.9 2.507 15.987-3.53"/><circle cx="26" cy="21" r="6" opacity=".1"/><circle cx="26" cy="20" r="6" fill="#4f4f4f"/><path d="m46.506 26 6.5 6.5-6.5 6.5-6.5-6.5z" opacity=".1"/><path fill="#4f4f4f" d="m46.5 25.003 6.5 6.5-6.5 6.5-6.5-6.5z"/><path d="m50.2 11.999-3.751 14L36.2 15.752Z" opacity=".1"/><path fill="#4f4f4f" d="m50.2 10.999-3.751 14L36.2 14.752Z"/><path fill="#fff" d="M32 4A28 28 0 0 0 4 32a28 28 0 0 0 .018.492A28 28 0 0 1 32 5a28 28 0 0 1 27.975 27.492A28 28 0 0 0 60 32 28 28 0 0 0 32 4" opacity=".2"/></svg>