<svg xmlns="http://www.w3.org/2000/svg" viewBox="0 0 64 64"><path d="M4 50v2c0 1.662 1.338 3 3 3h50c1.662 0 3-1.338 3-3v-2c0 1.662-1.338 3-3 3H7c-1.662 0-3-1.338-3-3" opacity=".2"/><rect width="44" height="56" x="-54" y="-60" fill="#e4e4e4" rx="3" ry="3" transform="rotate(90)scale(-1 1)"/><path d="M10 17v32h4V17Zm6 0v32h7V17Zm9 0v32h2V17Zm4 0v32h6V17Zm9 0v32h7V17Zm10 0v32h2V17Zm4 0v32h2V17Z" opacity=".2"/><path fill="#fff" d="M7 10c-1.662 0-3 1.338-3 3v1c0-1.662 1.338-3 3-3h50c1.662 0 3 1.338 3 3v-1c0-1.662-1.338-3-3-3z" opacity=".2"/><path fill="#df574d" d="M10 16h4v32h-4zm6 0h7v32h-7z"/><path fill="#4bae4f" d="M29 16h6v32h-6z"/><path fill="#248afd" d="M38 16h7v32h-7zm10 0h2v32h-2z"/><path fill="#4bae4f" d="M52 16h2v32h-2zm-27 0h2v32h-2z"/></svg>