<svg xmlns="http://www.w3.org/2000/svg" viewBox="0 0 64 64"><rect width="56" height="50" x="4" y="8" opacity=".2" rx="4.2" ry="4.167"/><rect width="56" height="50" x="4" y="7" fill="#4f4f4f" rx="4.2" ry="4.167"/><rect width="17" height="6" x="26" y="30" opacity=".2" rx="1.417" ry="1.5"/><rect width="17" height="6" x="26" y="29" fill="#fff" rx="1.417" ry="1.5"/><rect width="16.763" height="5.588" x="-17.21" y="30.21" opacity=".2" rx="1.397" ry="1.397" transform="matrix(.724 -.6898 .724 .6898 0 0)"/><rect width="16.763" height="5.588" x="-16.49" y="29.48" fill="#a2a2a2" rx="1.397" ry="1.397" transform="matrix(.724 -.6898 .724 .6898 0 0)"/><rect width="16.763" height="5.588" x="19.03" y="-6.04" opacity=".2" rx="1.397" ry="1.397" transform="matrix(.724 .6898 .724 -.6898 0 0)"/><rect width="16.763" height="5.588" x="18.31" y="-5.31" fill="#fff" rx="1.397" ry="1.397" transform="matrix(.724 .6898 .724 -.6898 0 0)"/><path fill="#fff" d="M8.2 7C5.871 7 4 8.86 4 11.168v1C4 9.86 5.872 8 8.2 8h47.6c2.328 0 4.2 1.86 4.2 4.168v-1C60 8.86 58.128 7 55.8 7z" opacity=".1"/><rect width="30" height="30" x="33" y="33" opacity=".2" rx="15" ry="15"/><rect width="30" height="30" x="33" y="32" fill="#0278f3" rx="15" ry="15"/><path fill="#fff" d="M48 37c-5.523 0-10 4.477-10 10s4.477 10 10 10 10-4.477 10-10-4.477-10-10-10m-1.002 1.911c.117-.012.265.007.383 0 .014.056-.085.254-.218.544-.847 1.85-.895 4.018-.109 5.176.142.21.27.41.27.435s-.152.053-.326.053c-.407 0-.792-.247-1.579-.87-.35-.277-.803-.509-.98-.544-.276-.055-.35-.032-.708.326-.333.333-.435.513-.435.818 0 1.155 1.37 2.071 3.92 2.611 3.462.734 4.316 1.394 4.411 3.215.12 2.283-1.096 4.005-3.758 5.337-.318.16-.52.22-.653.27-.06-.004-.103.006-.162 0-.023-.07-.056-.233-.056-.543 0-1.213-.476-2.46-1.197-3.159-.193-.187-.736-.583-1.2-.87s-.93-.62-1.035-.762c-.172-.236-.185-.381-.053-.817.242-.797.529-1.241 1.089-1.744.293-.264.587-.483.652-.489.065-.005-.372-.138-1.032-.273s-1.627-.42-2.126-.6c-.912-.33-2.142-1.022-2.612-1.523-.02-.022-.038-.037-.055-.056a8.76 8.76 0 0 1 5.064-5.935 8.6 8.6 0 0 1 1.635-.49c.284-.059.577-.08.87-.11m8.17 4.085c.205.127.976 1.799 1.197 2.614.285 1.053.264 2.875 0 3.92-.1.399-.228.772-.27.818-.044.047-.2-.22-.383-.544s-.767-1.014-1.253-1.526c-1.401-1.479-1.622-2.25-1.035-3.43.296-.594 1.586-1.95 1.744-1.852"/></svg>