<svg xmlns="http://www.w3.org/2000/svg" viewBox="0 0 64 64"><path d="M19.946 38.876c-1.115 1.37.21 3.948.21 3.948s10.741 15.411 12.327 17.198c1.592 1.792 3.418.882 2.084-1.592a130 130 0 0 1-.896-1.715l-6.684-11.16-2.864-4.785c-.9-1.383-1.384-2.1-2.736-2.506 0 0-1.109.303-1.44.612m.834-.56a1.7 1.7 0 0 0-.504.252z" opacity=".2"/><path d="M34.248 5.011c-7.396.597-11.91 27.057-11.262 33.824-.056-.033-.119-.056-.176-.088.291.451 1.467 7.836 1.784 8.344 3.325 5.336 6.979 6.608 9.205 9.91 3.549-.012 9.422 4.176 14.34 3.994 3.276-.12 7.717-4.113 6.853-16.204-.86-12.085-15.917-8.145-15.94-8.145 3.07-2.187 5.54-4.692 8.031-5.94 2.812-1.746-.945-6.985-4.403-13.202-2.884-5.186-5.185-11.586-6.914-12.255a3.36 3.36 0 0 0-1.518-.238" opacity=".2"/><path fill="none" stroke="#3f3f3f" stroke-width="2" d="M11.698 29.7c5.188.38 6.835 2.5 9.101 9.3"/><path fill="#e4e4e4" d="M34.248 4.011c-7.396.597-11.91 27.057-11.262 33.824-.056-.033-.119-.056-.176-.088.291.451 1.467 7.836 1.784 8.344 3.325 5.336 6.979 6.608 9.205 9.91 3.549-.012 9.422 4.176 14.34 3.994 3.276-.12 7.717-4.113 6.853-16.204-.86-12.085-15.917-8.145-15.94-8.145 3.07-2.187 5.54-4.692 8.031-5.94 2.812-1.746-.945-6.985-4.403-13.202-2.884-5.186-5.185-11.586-6.914-12.255a3.36 3.36 0 0 0-1.518-.238"/><path fill="#fff" d="M34.248 4.01c-7.063.57-11.486 24.688-11.305 32.754.166-8.893 4.514-31.206 11.305-31.754.493-.04 1 .034 1.518.238 1.728.67 4.03 7.07 6.916 12.256 2.44 4.387 5.017 8.28 5.341 10.808.423-2.422-2.553-6.795-5.341-11.808-2.886-5.187-5.188-11.586-6.916-12.256a3.4 3.4 0 0 0-1.518-.238m9.633 31.025a22 22 0 0 0-3.094.29c-.563.443-1.13.888-1.734 1.32.023 0 15.08-3.939 15.94 8.146.05.71.08 1.387.095 2.043a40 40 0 0 0-.096-3.043c-.536-7.553-6.619-8.848-11.111-8.756m-21.07 2.713c.037.058.089.238.152.496a16 16 0 0 1-.018-.431c-.044-.023-.09-.04-.134-.065" opacity=".2"/><path fill="#3f3f3f" d="M19.946 37.876c-1.115 1.37.21 3.948.21 3.948s10.741 15.411 12.327 17.198c1.592 1.792 3.418.882 2.084-1.592a130 130 0 0 1-.896-1.715l-6.684-11.16-2.864-4.785c-.9-1.383-1.384-2.1-2.736-2.506 0 0-1.109.303-1.44.612m.834-.56a1.7 1.7 0 0 0-.504.252z"/><circle cx="21" cy="40" r="4" opacity=".2"/><circle cx="21" cy="39" r="4" fill="#4f4f4f"/><circle cx="11.5" cy="30.499" r="2.5" opacity=".2"/><circle cx="11.5" cy="29.5" r="2.5" fill="#4f4f4f"/><path fill="#4f4f4f" d="M27.178 15.142c-.134 0-.354.014-.569.022q-.47 1.467-.883 3.005c2.67-.58 5.637.656 7.074 2.907-.05-.78-.25-1.54-.59-2.24-1.026-2.095-2.626-3.693-5.032-3.694m-2.721 8.49a95 95 0 0 0-.511 2.784c2.189.156 4.871 1.097 5.895 2.702-.05-.78-.25-1.54-.59-2.24-.843-1.714-2.855-2.883-4.794-3.246"/></svg>