<svg xmlns="http://www.w3.org/2000/svg" viewBox="0 0 22 22"><path fill="currentColor" d="M12.363 3a1 1 0 0 0-.82.486L9.639 6.66 4.44 4.104A1 1 0 0 0 3.021 5.2l.967 4.7a1 1 0 0 0 .012.126v3.147A3 3 0 0 1 5 13a3 3 0 0 1 1 .176v-1.803l4 1.693v3.375l-2.041-.927A3 3 0 0 1 8 16a3 3 0 0 1-.426 1.535l2.89 1.317a1 1 0 0 0 .708.128l.086-.017.012-.004 5.988-1.596a1 1 0 0 0 .742-.967v-5.283l1.91-4.199a1 1 0 0 0-.556-1.35l-6.6-2.5a1 1 0 0 0-.39-.064m.465 2.23 4.82 1.827-1.158 2.547-4.802-1.989a1 1 0 0 0-.206-.144zm-7.44 1.567L7.997 8.08l-2.228.56zm6.079 2.892 2.355.975-2.05.516zm-2.024.09.196.963-1.5-.635zM16 12.18v3.45l-4 1.064v-3.51z" color="#d3dae3"/><circle cx="5" cy="16" r="2" fill="currentColor" color="#4285f4"/></svg>