<svg xmlns="http://www.w3.org/2000/svg" viewBox="0 0 64 64"><rect width="56" height="28" x="4" y="33" opacity=".2" rx="4.2" ry="4.2"/><rect width="34" height="6" x="4" y="-18" fill="#8e8e8e" ry="3" transform="rotate(90)"/><rect width="56" height="28" x="4" y="32" fill="#4f4f4f" rx="4.2" ry="4.2"/><circle cx="48" cy="47" r="6" opacity=".2"/><circle cx="48" cy="46" r="6" fill="#c0f957"/><circle cx="32" cy="47" r="6" opacity=".2"/><circle cx="32" cy="46" r="6" fill="#91af5b"/><path fill="#fff" d="M15 4c-1.662 0-3 1.338-3 3v1c0-1.662 1.338-3 3-3s3 1.338 3 3V7c0-1.662-1.338-3-3-3M8.2 32A4.19 4.19 0 0 0 4 36.2v1A4.19 4.19 0 0 1 8.2 33h47.6a4.19 4.19 0 0 1 4.2 4.2v-1a4.19 4.19 0 0 0-4.2-4.2z" opacity=".1"/></svg>