<svg xmlns="http://www.w3.org/2000/svg" viewBox="0 0 64 64"><circle cx="32" cy="33" r="28" opacity=".2"/><circle cx="32" cy="32" r="28" fill="#e4accb"/><path fill="#fff" d="M32 4A28 28 0 0 0 4 32a28 28 0 0 0 .021.586A28 28 0 0 1 32 5a28 28 0 0 1 27.979 27.414L60 32A28 28 0 0 0 32 4" opacity=".2"/><circle cx="32" cy="33" r="20" opacity=".2"/><circle cx="32" cy="32" r="20" fill="#e4e4e4"/><path d="M4 44h11V33l3 3 3-3v11h11l-3-22-8-3-3 3-3-3-8 3z" opacity=".1"/><path fill="#ee5364" d="M4 43h11V32l3 3 3-3v11h11l-3-22-8-3-3 3-3-3-8 3z"/><path d="M35 11v11l5-11zm-6 5 3 6v-6zm14 0-3 6 6-3zm-9 6a13 11 0 0 0-13 11 13 11 0 0 0 13 11 13 11 0 0 0 13-11 13 11 0 0 0-13-11m-.5 8a4.5 3 0 0 1 4.5 3 4.5 3 0 0 1-4.5 3 4.5 3 0 0 1-4.5-3 4.5 3 0 0 1 4.5-3" opacity=".1"/><path fill="#96b92f" d="M35 10v11l5-11zm-6 5 3 6v-6zm14 0-3 6 6-3zm-9 6a13 11 0 0 0-13 11 13 11 0 0 0 13 11 13 11 0 0 0 13-11 13 11 0 0 0-13-11m-.5 8a4.5 3 0 0 1 4.5 3 4.5 3 0 0 1-4.5 3 4.5 3 0 0 1-4.5-3 4.5 3 0 0 1 4.5-3"/><path d="m39 47 2-28 19-3v9H49v2h6v7h-6v5h9l2 8z" opacity=".1"/><path fill="#34a0e8" d="m39 46 2-28 19-3v9H49v2h6v7h-6v5h9l2 8z"/></svg>