<svg xmlns="http://www.w3.org/2000/svg" viewBox="0 0 64 64"><circle cx="32" cy="33" r="28" opacity=".2"/><circle cx="32" cy="32" r="27.3" fill="#ff8843"/><path fill="#f7be65" d="M12.334 51.832a28 28 0 0 0 9.748 6.279v-6.279z"/><path fill="#f8c362" d="M22.082 51.832v6.279A28 28 0 0 0 32 60v-8.168z"/><path fill="#f8c86a" d="M32 51.832V60a28 28 0 0 0 9.918-1.89v-6.278z"/><path fill="#f8cc71" d="M41.918 51.832v6.279a28 28 0 0 0 9.748-6.279z"/><path fill="#f8c692" d="M51.832 41.918v9.748a28 28 0 0 0 6.279-9.748z"/><path fill="#f8c389" d="M41.923 41.912v9.915h9.748l.167-.167v-9.748z"/><path fill="#f8be85" d="M41.91 41.91h-9.916v9.916h9.916z"/><path fill="#f7b882" d="M32 41.91h-9.916v9.916H32z"/><path fill="#f7b380" d="M12.173 41.912v9.76l.156.155h9.759v-9.915z"/><path fill="#f6ac82" d="M5.89 41.918a28 28 0 0 0 6.278 9.748v-9.748z"/><path fill="#f5a397" d="M4 32a28 28 0 0 0 1.89 9.918h6.278V32Z"/><path fill="#f6a998" d="M12.16 32h9.916v9.916H12.16z"/><path fill="#f7ae98" d="M22.09 32h9.916v9.916H22.09z"/><path fill="#f7b49b" d="M32 32h9.916v9.916H32z"/><path fill="#f8baa1" d="M41.91 32h9.916v9.916H41.91z"/><path fill="#f8bfa5" d="M51.832 32v9.918h6.279A28 28 0 0 0 60 32Z"/><path fill="#f8b7aa" d="M51.832 22.082V32H60a28 28 0 0 0-1.824-9.918z"/><path fill="#f7b3a5" d="M51.84 22.09h-9.916v9.916h9.916z"/><path fill="#f7ada0" d="M41.91 22.09h-9.916v9.916h9.916z"/><path fill="#f6a59f" d="M32 22.09h-9.916v9.916H32z"/><path fill="#f4a19f" d="M22.09 22.09h-9.916v9.916h9.916z"/><path fill="#f29c9f" d="M5.89 22.082A28 28 0 0 0 4 32h8.168v-9.918z"/><path fill="#f096a6" d="M12.168 12.334a28 28 0 0 0-6.279 9.748h6.279Z"/><path fill="#f29aa8" d="m12.34 12.162-.178.178v9.737h9.915v-9.915z"/><path fill="#f49ea9" d="M22.09 12.16h9.916v9.916H22.09z"/><path fill="#f5a5a8" d="M32 12.16h9.916v9.916H32z"/><path fill="#f7abaa" d="M41.912 12.162v9.915h9.915V12.23l-.068-.068z"/><path fill="#f7b1ad" d="M51.832 12.236v9.846h6.344a28 28 0 0 0-6.344-9.846"/><path fill="#f5a2af" d="M41.918 5.824v6.344h9.846a28 28 0 0 0-9.846-6.344"/><path fill="#f49caf" d="M32 4v8.168h9.918V5.824A28 28 0 0 0 32 4"/><path fill="#f297af" d="M32 4a28 28 0 0 0-9.918 1.89v6.278H32Z"/><path fill="#f094ae" d="M22.082 5.89a28 28 0 0 0-9.748 6.278h9.748z"/><path fill="#fff" d="M32 4A28 28 0 0 0 4 32a28 28 0 0 0 .033.482A28 28 0 0 1 32 5a28 28 0 0 1 27.982 27.242L60 32A28 28 0 0 0 32 4" opacity=".2"/></svg>