<svg xmlns="http://www.w3.org/2000/svg" viewBox="0 0 16 16"><path fill="currentColor" d="M3 1c-1.108 0-2 .892-2 2v10c0 1.108.892 2 2 2h10c1.108 0 2-.892 2-2V3c0-1.108-.892-2-2-2zm0 1h1v2c0 .554.446 1 1 1h6c.554 0 1-.446 1-1V2h1c.554 0 1 .446 1 1v10c0 .554-.446 1-1 1H3c-.554 0-1-.446-1-1V3c0-.554.446-1 1-1m2 0h1v1h1V2h2v1h1V2h1v2H5zm-1 8c-.554 0-1 .446-1 1v1c0 .554.446 1 1 1v-2h1v2h1v-2h1v2c.554 0 1-.446 1-1v-1c0-.554-.446-1-1-1zm6 0c-.554 0-1 .446-1 1v1c0 .554.446 1 1 1h2c.554 0 1-.446 1-1v-1c0-.554-.446-1-1-1zm0 1h2v1h-2z" color="#d3dae3"/></svg>