<svg xmlns="http://www.w3.org/2000/svg" viewBox="0 0 64 64"><path d="M6.8 61C5.25 61 4 59.75 4 58.2v-2C4 57.75 5.25 59 6.8 59h50.4c1.55 0 2.8-1.25 2.8-2.8v2c0 1.55-1.25 2.8-2.8 2.8H32Z" opacity=".2"/><path fill="#f7c73c" d="M32 4H6.8A2.794 2.794 0 0 0 4 6.8V32h28z"/><path fill="#21d789" d="M32 4h25.2C58.751 4 60 5.249 60 6.8V32H32Zm0 56H6.8A2.794 2.794 0 0 1 4 57.2V32h28z"/><path fill="#2086e7" d="M32 60h25.2c1.551 0 2.8-1.249 2.8-2.8V32H32Z"/><path fill="#fff" d="M6.8 4C5.25 4 4 5.25 4 6.8v1C4 6.25 5.25 5 6.8 5h50.4C58.75 5 60 6.25 60 7.8v-1C60 5.25 58.75 4 57.2 4z" opacity=".2"/><path fill="#3f3f3f" d="M12 12h40v40H12z"/><path fill="none" stroke="#000" stroke-linecap="round" stroke-width="2" d="M15.014 46h16" opacity=".2"/><path fill="none" stroke="#fff" stroke-linecap="round" stroke-width="2" d="M15.014 45h16"/><path fill="none" stroke="#000" stroke-linecap="round" stroke-linejoin="round" stroke-width="2" d="M25.008 33.986v-16m-10 0 4.992 8 5.008-8m-10 16v-16" opacity=".2"/><path fill="none" stroke="#fff" stroke-linecap="round" stroke-linejoin="round" stroke-width="2" d="M25.008 32.986v-16m-10 0 4.992 8 5.008-8m-10 16v-16"/><path fill="none" stroke="#000" stroke-linecap="round" stroke-linejoin="bevel" stroke-width="2" d="M29.014 26.052s8 .929 8-4-8-4-8-4m0 16v-16" opacity=".2"/><path fill="none" stroke="#fff" stroke-linecap="round" stroke-linejoin="bevel" stroke-width="2" d="M29.014 25.052s8 .929 8-4-8-4-8-4m0 16v-16"/><path fill="none" stroke="#000" stroke-linecap="round" stroke-linejoin="round" stroke-width="2" d="M41.006 31.999s1.01 2.002 4 2.001c2.992-.001 4-2.001 4-4.001 0-8.429-8 .422-7.976-7.981-.024-2.019.944-4.019 3.976-4.019s4 2 4 2" opacity=".2"/><path fill="none" stroke="#fff" stroke-linecap="round" stroke-linejoin="round" stroke-width="2" d="M41.006 30.999s1.01 2.002 4 2.001c2.992-.001 4-2.001 4-4.001 0-8.429-8 .422-7.976-7.981-.024-2.019.944-4.019 3.976-4.019s4 2 4 2"/></svg>