<svg xmlns="http://www.w3.org/2000/svg" viewBox="0 0 64 64"><rect width="48" height="56" x="14" y="5" opacity=".2" rx="2.8" ry="2.8"/><path fill="#185c37" d="M62 46v11.2c0 1.551-1.25 2.8-2.8 2.8H16.8a2.794 2.794 0 0 1-2.8-2.8V31h23l1 1Z"/><path fill="#21a366" d="M16.8 4H38l24 14v15H39l-1-1-24-14V6.8C14 5.249 15.249 4 16.8 4"/><path fill="#33c481" d="M38 4h21.2C60.75 4 62 5.249 62 6.8V18H38Z"/><path fill="#107c41" d="M38 32h24v14H38ZM14 18h24v14H14Z"/><path d="M14 18h48v1H14Zm0 14h48v1H14Zm0 14h48v1H14Z" opacity=".1"/><path fill="#fff" d="M16.801 4A2.796 2.796 0 0 0 14 6.8v1C14 6.25 15.25 5 16.801 5H59.2C60.75 5 62 6.25 62 7.8v-1C62 5.25 60.75 4 59.2 4Z" opacity=".2"/><rect width="32" height="32" x="2" y="17" opacity=".2" rx="2.8" ry="2.8"/><rect width="32" height="32" x="2" y="16" fill="#0e6f3a" rx="2.8" ry="2.8"/><path fill="#fff" d="m9.067 42 6.471-10.028L9.611 22h4.77l3.849 7.727L22.4 22h4.38l-6.081 9.916L26.933 42h-4.658l-4.24-7.936L13.753 42Z"/></svg>