<svg xmlns="http://www.w3.org/2000/svg" viewBox="0 0 64 64"><circle cx="32" cy="33" r="28" opacity=".2"/><circle cx="32" cy="32" r="28" fill="#e4e4e4"/><path d="M32 15a7 7 0 1 0 0 14 7 7 0 0 0 0-14m0 19c-13.999.008-14 8.862-14 8.862v3.6S20.585 52 32 52s14-5.538 14-5.538v-3.6S46 33.994 32.003 34z" opacity=".1"/><path fill="#188eee" d="M32 14a7 7 0 1 0 0 14 7 7 0 0 0 0-14m0 19c-13.999.008-14 8.862-14 8.862v3.6S20.585 51 32 51s14-5.538 14-5.538v-3.6S46 32.994 32.003 33z"/><path fill="#fff" d="M32 4A28 28 0 0 0 4 32a28 28 0 0 0 .018.492A28 28 0 0 1 32 5a28 28 0 0 1 27.975 27.492A28 28 0 0 0 60 32 28 28 0 0 0 32 4" opacity=".2"/></svg>