<svg xmlns="http://www.w3.org/2000/svg" viewBox="0 0 64 64"><rect width="46" height="56" x="-53" y="-60" opacity=".2" rx="2.876" ry="2.8" transform="rotate(90)scale(-1 1)"/><rect width="46" height="56" x="-52" y="-60" fill="#863ea7" rx="2.876" ry="2.8" transform="rotate(90)scale(-1 1)"/><path d="M25.61 19A1.574 1.532 0 0 0 24 20.53v18.938a1.574 1.532 0 0 0 2.36 1.327l8.426-4.734 8.426-4.735a1.574 1.532 0 0 0 0-2.654l-8.426-4.734-8.426-4.732a1.574 1.532 0 0 0-.75-.206" opacity=".2"/><path fill="#fff" d="M25.61 18A1.574 1.532 0 0 0 24 19.53v18.938a1.574 1.532 0 0 0 2.36 1.327l8.426-4.734 8.426-4.735a1.574 1.532 0 0 0 0-2.654l-8.426-4.734-8.426-4.732a1.574 1.532 0 0 0-.75-.206"/><rect width="6" height="6" x="50" y="13" opacity=".3" rx="1.35" ry="1.306"/><rect width="6" height="6" x="50" y="40" opacity=".3" rx="1.35" ry="1.306"/><rect width="6" height="6" x="50" y="31" opacity=".3" rx="1.35" ry="1.306"/><rect width="6" height="6" x="50" y="22" opacity=".3" rx="1.35" ry="1.306"/><rect width="6" height="6" x="8" y="13" opacity=".3" rx="1.35" ry="1.306"/><rect width="6" height="6" x="8" y="40" opacity=".3" rx="1.35" ry="1.306"/><rect width="6" height="6" x="8" y="31" opacity=".3" rx="1.35" ry="1.306"/><rect width="6" height="6" x="8" y="22" opacity=".3" rx="1.35" ry="1.306"/><path fill="#fff" d="M6.8 6C5.25 6 4 7.282 4 8.875v1C4 8.282 5.25 7 6.8 7h50.4C58.75 7 60 8.282 60 9.875v-1C60 7.282 58.75 6 57.2 6z" opacity=".1"/><path d="M56.91 25a3 3 0 0 0-.594.078l-22 5.145A3 3 0 0 0 32 33.145V54h6V35.523l16-3.742V50h6V28a3 3 0 0 0-3.09-3" opacity=".2"/><path fill="none" stroke="#ff5722" stroke-linejoin="round" stroke-width="6" d="M35 53V32.143L57 27v22"/><circle cx="31" cy="54" r="7" opacity=".2"/><circle cx="31" cy="53" r="7" fill="#ff9800"/><circle cx="53" cy="50" r="7" opacity=".2"/><circle cx="53" cy="49" r="7" fill="#ff9800"/><path fill="#fff" d="M53 42a7 7 0 0 0-7 7 7 7 0 0 0 .025.445A7 7 0 0 1 53 43a7 7 0 0 1 6.975 6.477A7 7 0 0 0 60 49a7 7 0 0 0-7-7m-22 4a7 7 0 0 0-7 7 7 7 0 0 0 .025.445A7 7 0 0 1 31 47a7 7 0 0 1 6.975 6.477A7 7 0 0 0 38 53a7 7 0 0 0-7-7m25.91-22a3 3 0 0 0-.594.078l-22 5.145A3 3 0 0 0 32 32.145v1a3 3 0 0 1 2.316-2.922l22-5.145A3 3 0 0 1 56.91 25 3 3 0 0 1 60 28v-1a3 3 0 0 0-3.09-3" opacity=".2"/></svg>