<svg xmlns="http://www.w3.org/2000/svg" viewBox="0 0 64 64"><rect width="58" height="58" x="3" y="4" opacity=".2" rx="17.4" ry="17.4"/><rect width="58" height="58" x="3" y="3" fill="#e3b36b" rx="17.4" ry="17.4"/><path fill="none" stroke="#fff" stroke-linejoin="round" stroke-width="6" d="M14 53V14l18 26 18-26v39" opacity=".35"/><path d="M29 20.003v12h-6.879l7.414 10.707c1.194 1.72 3.736 1.72 4.93 0l7.414-10.707H35v-12z" opacity=".1"/><path fill="#4f4f4f" d="m22.121 31 7.414 10.707c1.194 1.72 3.736 1.72 4.93 0L41.879 31h-7.293L32 34.734 29.414 31Z"/><path fill="#4f4f4f" d="M29 19h6v16h-6z"/><path fill="#fff" d="M20.398 3A17.36 17.36 0 0 0 3 20.398v1A17.36 17.36 0 0 1 20.398 4h23.204A17.36 17.36 0 0 1 61 21.398v-1A17.36 17.36 0 0 0 43.602 3z" opacity=".2"/></svg>