<svg xmlns="http://www.w3.org/2000/svg" viewBox="0 0 64 64"><rect width="56" height="56" x="4" y="5" opacity=".2" rx="2.8" ry="2.8"/><rect width="56" height="56" x="4" y="4" fill="#3f3f3f" rx="2.8" ry="2.8"/><path d="M49.941 16.998a2 2 0 0 0-.546.094l-18 5.699A2 2 0 0 0 30 24.697v16.41a3.871 7.072 80.198 0 0-3.59.063 3.871 7.072 80.198 0 0-6.387 4.996 3.871 7.072 80.198 0 0 7.567 2.66A3.871 7.072 80.198 0 0 34 44.197V26.162l14-4.434v13.38a3.871 7.072 80.198 0 0-3.59.062 3.871 7.072 80.198 0 0-6.387 4.996 3.871 7.072 80.198 0 0 7.567 2.66A3.871 7.072 80.198 0 0 52 38.197v-19.2a2 2 0 0 0-2.059-2m-39.27 9.992a.7.7 0 0 0-.323 1.305l7.625 4.613-7.637 4.793a.7.7 0 1 0 .746 1.184l8.598-5.399a.7.7 0 0 0-.008-1.191l-8.602-5.2a.7.7 0 0 0-.398-.105" opacity=".2"/><ellipse cx="19.981" cy="47.854" fill="#dadf18" rx="7.072" ry="3.871" transform="matrix(.98631 -.1649 .15238 .98832 0 0)"/><ellipse cx="38.687" cy="44.904" fill="#dadf18" rx="7.072" ry="3.871" transform="matrix(.98631 -.1649 .15238 .98832 0 0)"/><path fill="none" stroke="#dadf18" stroke-linejoin="round" stroke-width="4" d="M32 43.2V23.7L50 18v19.2"/><path fill="none" stroke="#eecc7b" stroke-linecap="round" stroke-linejoin="round" stroke-width="1.4" d="m10.709 26.696 8.599 5.2-8.6 5.399"/><path fill="#fff" d="M6.8 4C5.25 4 4 5.25 4 6.8v1C4 6.25 5.25 5 6.8 5h50.4C58.75 5 60 6.25 60 7.8v-1C60 5.25 58.75 4 57.2 4z" opacity=".1"/></svg>