<svg xmlns="http://www.w3.org/2000/svg" viewBox="0 0 128 128"><path fill="#31a8ff" d="M27.978 8h50l30.043 29.918.001 74.06c0 4.432-3.612 8.022-8.044 8.022h-72c-4.432 0-8-3.568-8-8V16c0-4.432 3.568-8 8-8"/><path fill-opacity=".2" d="M77.978 8v22c0 4.432 3.61 7.923 8.043 7.923l22-.005z"/><path fill="#fff" d="M39.568 102.853V68.036c0-.237.102-.373.339-.373.575 0 1.116 0 1.895-.033.812-.034 1.658-.034 2.571-.068s1.895-.034 2.944-.068 2.064-.034 3.079-.034c2.775 0 5.075.339 6.97 1.05a12.1 12.1 0 0 1 4.534 2.774 10.8 10.8 0 0 1 2.47 3.857 13 13 0 0 1 .778 4.399q0 4.365-2.03 7.207c-1.353 1.895-3.248 3.316-5.447 4.128-2.301.846-4.839 1.15-7.613 1.15-.812 0-1.354 0-1.692-.033s-.812-.034-1.455-.034v10.861c.034.237-.135.44-.372.474h-6.565c-.27 0-.406-.136-.406-.44m7.377-28.66v11.37c.473.034.913.067 1.32.067h1.793c1.32 0 2.639-.203 3.89-.609 1.083-.304 2.03-.947 2.775-1.793.71-.846 1.05-1.996 1.05-3.485a5.57 5.57 0 0 0-.779-3.012 4.9 4.9 0 0 0-2.369-1.928c-1.251-.508-2.605-.71-3.992-.677-.88 0-1.658 0-2.301.034-.677-.034-1.15 0-1.387.034m39.317 9.305a12 12 0 0 0-3.248-1.15c-1.252-.271-2.504-.44-3.79-.44-.676-.034-1.387.067-2.03.236-.44.102-.812.339-1.049.677-.169.27-.27.609-.27.914s.135.609.338.88c.304.371.71.676 1.15.913.778.406 1.59.778 2.403 1.116a24.5 24.5 0 0 1 5.21 2.47 7.9 7.9 0 0 1 2.673 2.809 7.3 7.3 0 0 1 .779 3.485 7.87 7.87 0 0 1-1.32 4.5 8.5 8.5 0 0 1-3.79 3.012c-1.658.71-3.688 1.082-6.124 1.082-1.556 0-3.079-.135-4.602-.44a13.7 13.7 0 0 1-3.45-1.082c-.238-.136-.407-.373-.373-.643V95.95c0-.101.034-.237.135-.304s.203-.034.305.034a14.5 14.5 0 0 0 4.195 1.658c1.286.338 2.64.507 3.993.507 1.286 0 2.2-.169 2.808-.474a1.57 1.57 0 0 0 .914-1.42c0-.474-.27-.914-.812-1.354s-1.658-.948-3.316-1.59a20.7 20.7 0 0 1-4.805-2.437 8.8 8.8 0 0 1-2.571-2.876 7.26 7.26 0 0 1-.778-3.45c0-1.456.406-2.843 1.15-4.095a8.34 8.34 0 0 1 3.553-3.113c1.59-.812 3.586-1.184 5.989-1.184 1.387 0 2.808.101 4.195.304 1.015.136 1.997.406 2.91.778.136.034.271.17.339.305.034.135.067.27.067.406v5.515a.42.42 0 0 1-.169.339c-.304.067-.474.067-.609 0" class="st1"/></svg>