<svg xmlns="http://www.w3.org/2000/svg" viewBox="0 0 128 128"><path fill="#ff61f6" d="M27.978 8h50l30.043 29.918.001 74.06c0 4.432-3.612 8.022-8.044 8.022h-72c-4.432 0-8-3.568-8-8V16c0-4.432 3.568-8 8-8"/><path fill-opacity=".2" d="M77.978 8v22c0 4.432 3.61 7.923 8.043 7.923l22-.005z"/><path fill="#fff" d="m65.949 70.69-9.474 15.63L66.58 102.9c.063.126.095.252.063.379s-.157.031-.347.063h-7.232c-.505 0-.852-.032-1.073-.348-.663-1.326-1.358-2.62-2.021-3.947-.663-1.295-1.39-2.621-2.148-3.979s-1.515-2.716-2.273-4.105h-.063c-.664 1.358-1.39 2.716-2.116 4.073s-1.453 2.716-2.148 4.043c-.726 1.326-1.452 2.684-2.179 3.979-.126.315-.379.347-.726.347H37.37c-.127 0-.221.063-.221-.095a.44.44 0 0 1 .063-.347l9.82-16.105-9.568-16.2c-.094-.127-.126-.253-.063-.316.063-.095.19-.127.316-.127h7.169c.157 0 .315.032.442.064a.9.9 0 0 1 .315.284c.6 1.358 1.295 2.716 2.021 4.073.758 1.358 1.485 2.685 2.274 4.011a70 70 0 0 1 2.116 4.01h.063c.663-1.389 1.358-2.747 2.053-4.073s1.42-2.653 2.147-3.98 1.421-2.683 2.116-3.978c.031-.126.095-.253.19-.316a.6.6 0 0 1 .41-.063h6.663a.29.29 0 0 1 .347.221c.032.032-.031.158-.094.221m14.59 33.316c-2.338.032-4.674-.442-6.79-1.421-1.99-.916-3.632-2.432-4.769-4.295-1.168-1.926-1.737-4.326-1.737-7.2a12.97 12.97 0 0 1 1.737-6.663 13.1 13.1 0 0 1 5.021-4.895c2.21-1.231 4.864-1.831 7.99-1.831.158 0 .379 0 .663.031s.6.032.979.063v-9.979c0-.22.095-.347.316-.347h6.41c.158-.032.284.095.316.221v30.126c0 .569.032 1.2.063 1.895.063.663.095 1.295.127 1.832 0 .22-.095.41-.316.505a24 24 0 0 1-5.148 1.516c-1.61.284-3.22.442-4.863.442m3.095-6.316V83.794a8 8 0 0 0-.853-.158c-.347-.031-.694-.063-1.042-.063-1.231 0-2.463.253-3.568.821-1.074.537-1.99 1.327-2.684 2.337s-1.043 2.369-1.043 4.01a8.8 8.8 0 0 0 .537 3.253c.316.853.79 1.61 1.421 2.242a5.46 5.46 0 0 0 2.148 1.264c.852.284 1.737.41 2.62.41.474 0 .917-.031 1.327-.063.41.032.758-.032 1.137-.158" class="st1"/></svg>