<svg xmlns="http://www.w3.org/2000/svg" xmlns:xlink="http://www.w3.org/1999/xlink" viewBox="0 0 128 128"><defs><linearGradient id="a"><stop offset="0" stop-color="#fff"/><stop offset="1" stop-color="#fff" stop-opacity=".5"/></linearGradient><linearGradient id="b"><stop offset="0" stop-color="#fff"/><stop offset="1" stop-color="#fff" stop-opacity=".5"/></linearGradient><linearGradient xlink:href="#a" id="d" x1="-553.27" x2="-666.12" y1="525.91" y2="413.05" gradientTransform="matrix(.29965 0 0 .29961 -85.056 -167.514)" gradientUnits="userSpaceOnUse"/><linearGradient xlink:href="#b" id="e" x1="-666.12" x2="-553.27" y1="413.04" y2="525.91" gradientTransform="matrix(.29965 0 0 .29961 -85.056 -167.529)" gradientUnits="userSpaceOnUse"/></defs><path fill="#cc72dd" d="M27.978 8h50l30.043 29.918.001 74.06c0 4.432-3.612 8.022-8.044 8.022h-72c-4.432 0-8-3.568-8-8V16c0-4.432 3.568-8 8-8"/><path fill-opacity=".2" d="M77.978 8v22c0 4.432 3.61 7.923 8.043 7.923l22-.005z"/><path fill="url(#d)" fill-rule="evenodd" d="M-267.812-38.442c-7.017-2.419-15.613 3.365-15.613 14.949 0 18.914 14.017 20.63 15.716 20.63 12.267 0 23.95-10.138 23.95-24.01 0-15.419-13.392-23.96-23.95-23.96 2.924-.405 15.762 3.165 15.762 20.712 0 11.442-9.586 17.671-15.82 15.01-.144-.054-7.055-2.78-7.055-11.686 0-8.868 7.01-11.645 7.01-11.645" color="#000" transform="matrix(1.25002 0 0 1.25 398.703 107.578)"/><path fill="url(#e)" fill-rule="evenodd" d="M-267.809-50.848c-12.267 0-23.949 10.14-23.949 24.012 0 15.419 13.39 23.959 23.95 23.959l-.045-.008c-2.133-.072-15.57-2.082-15.57-20.623 0-11.584 8.594-17.368 15.61-14.949l-.017.008.006.002c.143.053 7.053 2.78 7.053 11.685 0 8.868-7.028 11.616-7.028 11.616l.01.011.022.01c6.234 2.662 15.82-3.57 15.82-15.012 0-14.252-8.47-19.281-13.217-20.45l-.004-.003a15 15 0 0 0-2.64-.258z" transform="matrix(1.25002 0 0 1.25 398.703 107.578)"/></svg>