<svg xmlns="http://www.w3.org/2000/svg" xmlns:xlink="http://www.w3.org/1999/xlink" xml:space="preserve" viewBox="0 0 128 128"><defs><linearGradient id="d"><stop offset=".267" stop-color="#0091cc"/><stop offset=".5" stop-color="#33c4ff"/><stop offset=".626" stop-color="#0091cc"/></linearGradient><linearGradient id="c"><stop offset=".344" stop-color="#d97808"/><stop offset=".5" stop-color="#f9aa4e"/><stop offset=".711" stop-color="#d87808"/></linearGradient><linearGradient id="b"><stop offset=".353" stop-color="#b20056"/><stop offset=".5" stop-color="#ff1a88"/><stop offset=".675" stop-color="#b20056"/></linearGradient><linearGradient id="a"><stop offset=".029" stop-color="#6c1bbb"/><stop offset=".099" stop-color="#9e55e7"/><stop offset=".231" stop-color="#6c1bbb"/></linearGradient><linearGradient xlink:href="#a" id="f" x1="-160.461" x2="-109.947" y1="37.623" y2="37.623" gradientTransform="translate(171.666)" gradientUnits="userSpaceOnUse"/><linearGradient xlink:href="#b" id="g" x1="-139.278" x2="-119.175" y1="116" y2="90.883" gradientTransform="translate(171.666)" gradientUnits="userSpaceOnUse"/><linearGradient xlink:href="#c" id="e" x1="-86.536" x2="-55.011" y1="113.208" y2="83.874" gradientTransform="translate(171.666)" gradientUnits="userSpaceOnUse"/><linearGradient xlink:href="#d" id="h" x1="-80.276" x2="-75.33" y1="31.295" y2="12" gradientTransform="translate(171.666)" gradientUnits="userSpaceOnUse"/></defs><path fill="url(#e)" d="M116.675 74.876c-3.027 16.23-16.296 30.39-31.544 38.332-1.863 1.036-4.074 1.611-6.17 1.726h32.36c3.142 0 5.354-2.302 5.354-5.18z"/><path fill="url(#f)" d="M51.956 43.566 50.559 44.6c-7.915 5.526-31.893 23.252-37.364 15.54-5.354-7.482.35-28.662 14.084-38.907.233-.23.582-.345.815-.575 15.016-10.475 26.19-8.979 31.66-1.382 5.122 7.137-.581 18.418-7.798 24.289"/><path fill="#ffbd00" d="M100.613 106.759c-.233.23-.466.345-.815.575-15.015 10.475-26.19 8.98-31.66 1.382-5.122-7.137.582-18.418 7.798-24.288l1.397-1.036c7.915-5.41 31.894-23.252 37.248-15.54 5.47 7.482-.116 28.662-13.968 38.907"/><path fill="url(#g)" d="M58.706 114.012c-7.682 5.41-29.798-.46-39.925-14.734a3.5 3.5 0 0 1-.582-.805c-9.893-14.389-8.264-25.21-.698-30.39 7.45-5.18 19.09.807 24.91 8.289.232.345.465.575.698.92 5.47 7.713 23.396 31.425 15.597 36.72"/><path fill="#9327ff" d="M51.957 43.566c-10.709 4.719-33.523 14.388-36.898 6.56-2.91-6.56 2.444-19.913 12.222-28.892.232-.23.582-.345.814-.575 15.016-10.475 26.19-8.979 31.66-1.382 5.122 7.137-.581 18.418-7.798 24.289"/><path fill="url(#h)" d="M110.62 60.031c-7.45 5.18-19.09-.805-24.91-8.288-.232-.345-.465-.575-.698-.92-5.587-7.828-23.513-31.54-15.83-36.835 7.682-5.41 29.914.46 40.041 14.734.233.345.465.575.698.92 9.778 14.39 8.265 25.094.699 30.39"/><path fill="#00c8ff" d="M110.62 60.026c-7.449 5.18-19.089-.806-24.909-8.288-4.772-10.936-13.968-32.461-6.285-35.684 6.984-2.993 21.417 2.993 30.613 13.583 9.66 14.388 8.148 25.094.582 30.389"/><path fill="#ffce00" d="M100.613 106.76c-.233.23-.466.346-.815.576-15.015 10.475-26.19 8.979-31.66 1.381-5.122-7.136.582-18.417 7.798-24.288 10.71-4.72 33.524-14.388 36.9-6.56 3.025 6.56-2.33 19.913-12.223 28.892"/><path fill="#fb006d" d="M48.696 111.94c-6.984 2.993-21.417-2.877-30.497-13.467-9.893-14.389-8.264-25.21-.698-30.39 7.45-5.18 19.09.807 24.91 8.289 4.772 10.82 13.967 32.345 6.285 35.569"/></svg>