<svg xmlns="http://www.w3.org/2000/svg" xml:space="preserve" viewBox="0 0 128 128"><path fill="#f6f5f4" d="M27.977 8h50l30.043 29.918.001 74.06c0 4.432-3.612 8.022-8.044 8.022h-72c-4.432 0-8-3.568-8-8V16c0-4.432 3.568-8 8-8"/><path fill="#deddda" d="M77.977 8v22c0 4.432 3.61 7.924 8.042 7.924l22.001-.006Z"/><path fill="#deddda" d="m33.978 35.99 35.99.02c1.108 0 2 .891 2 2 0 1.107-.892 2-2 2l-35.99-.02c-1.108 0-2-.891-2-2 0-1.107.892-2 2-2m0-8 35.99.02c1.108 0 2 .891 2 2 0 1.107-.892 2-2 2l-35.99-.02c-1.108 0-2-.891-2-2 0-1.107.892-2 2-2" paint-order="markers stroke fill"/><rect width="64" height="4" x="31.978" y="60" fill="#deddda" paint-order="markers stroke fill" rx="2" ry="2"/><rect width="64" height="4" x="31.978" y="52" fill="#deddda" paint-order="markers stroke fill" rx="2" ry="2"/><rect width="64" height="4" x="31.978" y="44" fill="#deddda" paint-order="markers stroke fill" rx="2" ry="2"/><path fill="#deddda" d="m71.929 84.004 22.049-.008c1.108 0 2 .892 2 2s-.892 2-2 2l-22.05.008c-1.107 0-2-.892-2-2s.893-2 2-2" paint-order="markers stroke fill"/><path fill="#494949" d="M35.906 67.995v.49c1.418 0 1.645 0 1.645.917v11.034c0 .916-.224.916-1.645.916v.49h6.966c2.591 0 4.273-1.845 4.273-3.69 0-1.826-1.663-3.385-3.828-3.53 1.941-.383 3.3-1.68 3.3-3.221 0-1.682-1.66-3.409-4.274-3.409zm2.959 6.48v-5.188c0-.692.038-.795.845-.795h2.58c1.99 0 2.878 1.627 2.878 2.889 0 1.547-1.23 3.095-3.404 3.095zm.845 6.887c-.803 0-.842-.103-.842-.795v-5.762h3.725c2.072 0 3.082 1.858 3.082 3.35 0 1.49-1.147 3.207-3.342 3.207m8.668-8.452c0-.872.103-.975 1.573-.975v-.49c-.689.02-1.746.061-2.275.061s-1.585-.038-2.273-.061v.49c1.403 0 1.502.103 1.502.974v7.476c0 .87-.096.973-1.502.973v.49c.688-.019 1.745-.057 2.273-.057.53 0 1.583.038 2.275.058v-.49c-1.47 0-1.573-.1-1.573-.974m2.739-8.945v.489c1.342 0 1.44.122 1.44.954v7.518c0 .833-.098.954-1.44.954v.49h6.13c2.252 0 3.675-1.377 3.675-2.792 0-1.317-1.301-2.432-3.066-2.653 1.441-.301 2.597-1.214 2.597-2.39 0-1.274-1.418-2.57-3.631-2.57zm2.754 4.755v-3.391c0-.808.103-.869.82-.869h1.97c1.868 0 2.175 1.576 2.175 2.06 0 .726-.532 2.2-2.668 2.2zm0 .41h3.05c1.726 0 2.277 1.564 2.277 2.428 0 .926-.67 2.325-2.52 2.325h-1.993c-.711 0-.81-.06-.81-.884m-12.452 3.569H32.321l-.343 4.49h.365c.262-3.363.55-3.952 3.7-3.952h1.12c.388.06.388.308.388.775V96.41c0 .734-.061.958-1.772.958h-.576v.49a155 155 0 0 1 2.985-.038c.993 0 2.012.02 2.985.038v-.49h-.566c-1.686 0-1.746-.224-1.746-.958V85.356c0-.448 0-.692.366-.775h1.114c3.107 0 3.411.586 3.673 3.953h.366"/><path fill="#494949" d="M54.156 98.873h-.366c-.445 3.01-.708 4.647-4.28 4.647h-2.818c-.81 0-.848-.102-.848-.8v-5.676h1.915c1.916 0 2.098.701 2.098 2.415h.327v-5.282h-.327c0 1.685-.182 2.373-2.098 2.373h-1.915v-5.032c0-.684.038-.787.848-.787h2.778c3.142 0 3.507 1.249 3.792 3.933h.365l-.487-4.49H42.858v.557c1.438 0 1.669 0 1.669.913V102.6c0 .913-.227.913-1.669.913v.49h10.567"/><path fill="#494949" d="m59.71 90.173 3.004-4.343c.3-.426.913-1.304 2.579-1.326v-.49c-.465.038-1.237.038-1.724.038-.669 0-1.502 0-2.008-.038v.49c.65.06.81.468.81.795 0 .242-.1.406-.243.608l-2.68 3.888-3.005-4.397c-.141-.221-.161-.285-.161-.346 0-.183.221-.529.894-.548v-.49c-.65.038-1.643.038-2.313.038-.525 0-1.54 0-2.03-.038v.49c1.115 0 1.48.042 1.928.673l3.917 5.752-3.532 5.16c-.872 1.263-2.191 1.285-2.58 1.285v.49c.465-.038 1.237-.038 1.724-.038.548 0 1.502 0 2.008.038v-.49c-.628-.061-.81-.468-.81-.795 0-.262.1-.407.202-.55l3.248-4.741 3.532 5.192c.16.225.16.285.16.346 0 .16-.182.51-.893.551v.49c.65-.038 1.644-.038 2.313-.038.525 0 1.54 0 2.033.038v-.49c-1.3 0-1.505-.1-1.909-.672"/><path fill="#deddda" d="m71.929 92.004 22.049-.008c1.108 0 2 .892 2 2s-.892 2-2 2l-22.05.008c-1.107 0-2-.892-2-2s.893-2 2-2m.001 8 22.049-.008c1.108 0 2 .892 2 2s-.892 2-2 2l-22.05.008c-1.107 0-2-.892-2-2s.893-2 2-2M71.929 76l22.049-.008c1.108 0 2 .892 2 2s-.892 2-2 2L71.928 80c-1.107 0-2-.892-2-2s.893-2 2-2m.001-8 22.049-.008c1.108 0 2 .892 2 2s-.892 2-2 2L71.928 72c-1.107 0-2-.892-2-2s.893-2 2-2" paint-order="markers stroke fill"/></svg>