<svg xmlns="http://www.w3.org/2000/svg" xmlns:xlink="http://www.w3.org/1999/xlink" viewBox="0 0 128 128"><defs><linearGradient xlink:href="#a" id="d" x1="42" x2="86" y1="31.5" y2="31.5" gradientTransform="translate(29.714 38.634)scale(.53571)" gradientUnits="userSpaceOnUse"/><linearGradient id="a"><stop offset="0" stop-color="#971211"/><stop offset=".418" stop-color="#e9423f"/><stop offset=".808" stop-color="#971311"/><stop offset="1" stop-color="#e72a27"/></linearGradient><linearGradient xlink:href="#b" id="c" x1="20" x2="108" y1="64" y2="64" gradientTransform="translate(29.714 38.634)scale(.53571)" gradientUnits="userSpaceOnUse"/><linearGradient id="b" x1="48" x2="464" y1="44" y2="44" gradientTransform="matrix(.21154 0 0 .25 -143.435 37.95)" gradientUnits="userSpaceOnUse"><stop offset="0" stop-color="#981311"/><stop offset=".045" stop-color="#e9423e"/><stop offset=".091" stop-color="#971311"/><stop offset=".909" stop-color="#971311"/><stop offset=".955" stop-color="#e9433f"/><stop offset="1" stop-color="#971311"/></linearGradient></defs><path fill="#f6f5f4" d="M27.996 8H77.97l30.027 29.918.001 74.06c0 4.432-3.61 8.022-8.04 8.022H27.996A7.98 7.98 0 0 1 20 112V16c0-4.432 3.566-8 7.996-8"/><path fill="#deddda" d="M77.97 8v22c0 4.432 3.609 7.924 8.038 7.924l21.99-.006Z"/><path fill="url(#c)" d="M87.571 47.209V98.63c0 2.376-2.102 4.29-4.714 4.29H45.143c-2.612 0-4.714-1.914-4.714-4.29V47.21c0-2.377 2.102-4.29 4.714-4.29h37.714c2.612 0 4.714 1.913 4.714 4.29" style="marker:none"/><path fill="#c61715" d="M44.713 42.92h38.574c2.367 0 4.284 1.697 4.284 3.791v17.06c0 2.093-1.917 3.791-4.284 3.791H44.713c-2.367 0-4.284-1.698-4.284-3.792V46.711c0-2.094 1.917-3.792 4.284-3.792m0 0"/><path fill="url(#d)" d="M75.786 55.509c0 3.402-5.277 6.16-11.786 6.16-6.51 0-11.786-2.758-11.786-6.16V49.08c0-2.91 6.534.268 11.786.268 5.194 0 11.786-3.168 11.786-.268z"/><path fill="#e72825" d="M75.786 49.08A11.786 6.16 0 0 1 64 55.24a11.786 6.16 0 0 1-11.786-6.16A11.786 6.16 0 0 1 64 42.92a11.786 6.16 0 0 1 11.786 6.16"/></svg>