<svg xmlns="http://www.w3.org/2000/svg" viewBox="0 0 128 128"><path fill="#f36" d="M27.978 8h50l30.043 29.918.001 74.06c0 4.432-3.612 8.022-8.044 8.022h-72c-4.432 0-8-3.568-8-8V16c0-4.432 3.568-8 8-8"/><path fill-opacity=".2" d="M77.978 8v22c0 4.432 3.61 7.923 8.043 7.923l22-.005z"/><path fill="#fff" d="M53.232 70.586v32.527c0 .347-.158.505-.442.505H46.6c-.284 0-.41-.158-.41-.505V70.586c0-.284.158-.41.442-.41h6.158a.357.357 0 0 1 .41.316c.032.031.032.063.032.094m18.253 33.41c-2.337.033-4.674-.441-6.79-1.42-1.99-.916-3.632-2.432-4.768-4.295-1.169-1.926-1.737-4.326-1.737-7.2a12.97 12.97 0 0 1 1.737-6.663 13.1 13.1 0 0 1 5.02-4.895c2.211-1.231 4.864-1.831 7.99-1.831.158 0 .38 0 .663.031s.6.032.98.063v-9.979c0-.22.094-.347.315-.347h6.41c.159-.032.285.095.316.221v30.126c0 .569.032 1.2.064 1.895.063.663.094 1.295.126 1.832 0 .22-.095.41-.316.505a24 24 0 0 1-5.147 1.516 27.6 27.6 0 0 1-4.863.442m3.094-6.316V83.786a8 8 0 0 0-.852-.158c-.348-.031-.695-.063-1.042-.063-1.232 0-2.464.253-3.569.821-1.074.537-1.99 1.327-2.684 2.337s-1.042 2.369-1.042 4.01a8.8 8.8 0 0 0 .537 3.253 6.2 6.2 0 0 0 1.42 2.242 5.46 5.46 0 0 0 2.148 1.264c.853.284 1.737.41 2.621.41.474 0 .916-.031 1.326-.063.411.032.79-.032 1.137-.158" class="st1"/></svg>