<svg xmlns="http://www.w3.org/2000/svg" xmlns:xlink="http://www.w3.org/1999/xlink" viewBox="0 0 128 128"><defs><linearGradient xlink:href="#a" id="c" x1="56" x2="56" y1="230" y2="254" gradientUnits="userSpaceOnUse"/><linearGradient id="a"><stop offset="0" stop-color="#113e74"/><stop offset=".161" stop-color="#1a5fb4"/><stop offset=".271" stop-color="#76aaeb"/><stop offset=".396" stop-color="#154a8d"/><stop offset="1" stop-color="#1a5fb4"/></linearGradient><linearGradient id="b"><stop offset="0" stop-color="#f58b8f"/><stop offset="1" stop-color="#ed333b"/></linearGradient><radialGradient xlink:href="#b" id="d" cx="32.041" cy="21.086" r="25.203" fx="32.041" fy="21.086" gradientTransform="matrix(1.36607 0 0 .99257 -11.73 .238)" gradientUnits="userSpaceOnUse"/></defs><path fill="#d3e3f9" d="M27.977 8h50l30.043 29.918.001 74.06c0 4.432-3.612 8.022-8.044 8.022h-72c-4.432 0-8-3.568-8-8V16c0-4.432 3.568-8 8-8"/><path fill="#99c1f1" d="M77.977 8v22c0 4.432 3.61 7.924 8.042 7.924l22.001-.006Z"/><path fill="#1a5fb4" fill-rule="evenodd" d="M85.809 230v12.617h2.382V230ZM87 230v12.617M79.62 230v12.617h4.76V230Zm2.38 0v12.617M75.809 230v12.617h2.382V230ZM77 230v12.617M71.809 230v12.617h2.382V230ZM73 230v12.617M67.809 230v12.617h2.382V230ZM69 230v12.617M59.428 230v12.617h7.144V230ZM63 230v12.617M49.809 230v12.617h2.382V230ZM51 230v12.617M53.62 230v12.617h4.76V230Zm2.38 0v12.617M43.62 230v12.617h4.76V230Zm2.38 0v12.617M39.809 230v12.617h2.382V230ZM41 230v12.617M35.809 230v12.617h2.382V230ZM37 230v12.617M29.62 230v12.617h4.76V230Zm2.38 0v12.617M25.809 230v12.617h2.382V230ZM27 230v12.617" color="#000" style="-inkscape-stroke:none" transform="matrix(.97182 0 0 1.11065 8.606 -175.45)"/><path fill="#99c1f1" d="m22.216 254 1.197 5.068-3.9-3.279-1.453 2.592 5.01 1.658-5.044 1.59 1.434 2.64 3.955-3.304-1.2 5.035h3.411l-1.102-4.959 3.834 3.314 1.477-2.619-4.979-1.685 5.118-1.426-1.453-2.62-4.034 3.085 1.137-5.09Zm16 0 1.197 5.068-3.9-3.279-1.453 2.592 5.01 1.658-5.044 1.59 1.434 2.64 3.955-3.304-1.2 5.035h3.411l-1.102-4.959 3.834 3.314 1.477-2.619-4.979-1.685 5.118-1.426-1.453-2.62-4.034 3.085 1.137-5.09Zm16 0 1.197 5.068-3.9-3.279-1.453 2.592 5.01 1.658-5.044 1.59 1.434 2.64 3.955-3.304-1.2 5.035h3.411l-1.102-4.959 3.834 3.314 1.477-2.619-4.979-1.685 5.118-1.426-1.453-2.62-4.034 3.085 1.137-5.09Zm16 0 1.197 5.068-3.9-3.279-1.453 2.592 5.01 1.658-5.044 1.59 1.434 2.64 3.955-3.304-1.2 5.035h3.411l-1.102-4.959 3.834 3.314 1.477-2.619-4.979-1.685 5.118-1.426-1.453-2.62-4.034 3.085 1.137-5.09Zm16 0 1.197 5.068-3.9-3.279-1.453 2.592 5.01 1.658-5.044 1.59 1.434 2.64 3.955-3.304-1.2 5.035h3.411l-1.102-4.959 3.834 3.314 1.477-2.619-4.979-1.685 5.118-1.426-1.453-2.62-4.034 3.085 1.137-5.09Z" font-family="Cantarell" font-weight="800" letter-spacing="2" style="line-height:1000%;-inkscape-font-specification:&quot;Cantarell Ultra-Bold&quot;" transform="translate(20 -101.044)scale(.78571)" word-spacing="0"/><g paint-order="markers stroke fill" transform="translate(-2.022 -178)"><path fill="url(#c)" d="M40 212h16v20a4 4 45 0 0 4 4 4 4 45 0 1 4 4v14.155l-8-6-8 6V240a4 4 45 0 0-4-4 4 4 45 0 1-4-4z"/><path fill="url(#d)" d="M50.415 49.472c-1.972 2.019-5.398 1.266-7.878 2.613-2.288 1.243-3.342 4.436-5.909 4.874-2.781.475-5.111-2.148-7.909-2.516-2.582-.34-5.31 1.624-7.645.47-2.53-1.251-2.873-4.743-4.92-6.685-1.889-1.792-5.251-1.807-6.461-4.114-1.311-2.498.463-5.524-.051-8.299-.475-2.56-3.186-4.55-2.81-7.126.408-2.792 3.623-4.197 4.837-6.744 1.121-2.351.097-5.554 1.916-7.417 1.972-2.019 5.398-1.266 7.878-2.613 2.288-1.243 3.342-4.436 5.909-4.874 2.781-.475 5.111 2.148 7.909 2.516 2.582.34 5.31-1.624 7.645-.47 2.53 1.251 2.873 4.743 4.92 6.685 1.889 1.792 5.251 1.807 6.461 4.114 1.311 2.498-.463 5.524.051 8.299.475 2.56 3.186 4.55 2.81 7.126-.408 2.792-3.623 4.197-4.837 6.744-1.121 2.351-.097 5.554-1.916 7.417" transform="translate(23.804 188.016)scale(.75516)"/><rect width="28" height="28" x="34" y="199.293" fill="#a9141b" rx="20" ry="20"/><rect width="28" height="28" x="34" y="198" fill="#e01b24" rx="20" ry="20"/></g></svg>