<svg xmlns="http://www.w3.org/2000/svg" xml:space="preserve" viewBox="0 0 128 128"><path fill="#a7f175" d="M27.996 8h49.975L108 37.918l.001 74.06c0 4.432-3.61 8.022-8.04 8.022H27.996A7.98 7.98 0 0 1 20 112V16c0-4.432 3.566-8 7.996-8"/><path fill-opacity=".2" d="M77.971 8v22c0 4.432 3.61 7.923 8.043 7.923l22-.005Z"/><path d="M61.973 91.628c-4.01 0-6.56-2.433-6.56-5.518 0-13.204 34.72-15.847 34.72-29.869 0-8.554-9.908-12.24-22.557-12.24-7.694 0-16.393 1.424-24.473 3.972V64.7C55.01 56.028 68.238 52.316 76.76 52.316c5.358 0 8.994 1.495 8.994 4.173 0 11.036-47.888 9.288-47.888 33.134 0 9.14 6.286 14.377 15.128 14.377 13.375 0 23.492-12.997 31.06-28.842l1.534.551c-3.987 9.682-12.235 20.299-13.842 27.124h17.22V67.526h-3.977c-5.773 12.543-14.232 24.102-23.016 24.102" clip-rule="evenodd"/></svg>