<svg xmlns="http://www.w3.org/2000/svg" xmlns:xlink="http://www.w3.org/1999/xlink" xml:space="preserve" viewBox="0 0 128 128"><defs><linearGradient id="b"><stop offset="0" stop-color="#cd0000"/><stop offset="1" stop-color="#a40000"/></linearGradient><linearGradient id="a"><stop offset="0" stop-color="#700000"/><stop offset=".042" stop-color="#e50000"/><stop offset=".083" stop-color="#700000"/><stop offset=".917" stop-color="#700000"/><stop offset=".958" stop-color="#e50000"/><stop offset="1" stop-color="#700000"/></linearGradient><linearGradient xlink:href="#a" id="c" x1="48" x2="464" y1="44" y2="44" gradientTransform="matrix(.25 0 0 .25 0 53)" gradientUnits="userSpaceOnUse"/><linearGradient xlink:href="#b" id="d" x1="64" x2="64" y1="10" y2="114" gradientUnits="userSpaceOnUse"/><radialGradient id="e" cx="0" cy="0" r="1" gradientTransform="rotate(45 -90.333 -25.438)scale(31.32432 35.72783)" gradientUnits="userSpaceOnUse"><stop offset=".579" stop-color="#fff"/><stop offset=".873" stop-color="#e6e6e6"/></radialGradient><clipPath id="f" clipPathUnits="userSpaceOnUse"><rect width="100" height="100" x="-88" y="12" fill="#fff" stroke-width=".098" rx="18.066"/></clipPath></defs><rect width="104" height="84" x="12" y="32" fill="url(#c)" rx="8" ry="8" style="marker:none"/><rect width="104" height="100" x="12" y="12" fill="url(#d)" rx="8" ry="8" style="marker:none"/><path fill="url(#e)" d="M-14.758 62.049A23.193 23.193 0 0 1-37.95 85.242 23.193 23.193 0 0 1-61.145 62.05 23.193 23.193 0 0 1-37.95 38.855 23.193 23.193 0 0 1-14.758 62.05M-38 23.426c-21.262 0-38.574 17.312-38.574 38.574S-59.262 100.574-38 100.574.574 83.262.574 62-16.738 23.426-38 23.426m0 7.031c17.462 0 31.543 14.08 31.543 31.543 0 17.462-14.08 31.543-31.543 31.543-17.462 0-31.543-14.08-31.543-31.543 0-17.462 14.08-31.543 31.543-31.543" clip-path="url(#f)" transform="translate(102)"/></svg>