<svg xmlns="http://www.w3.org/2000/svg" xml:space="preserve" viewBox="0 0 128 128"><path fill="#f6f5f4" d="M27.977 8h50l30.043 29.918.001 74.06c0 4.432-3.612 8.022-8.044 8.022h-72c-4.432 0-8-3.568-8-8V16c0-4.432 3.568-8 8-8"/><path fill="#deddda" d="M77.977 8v22c0 4.432 3.61 7.924 8.042 7.924l22.001-.006Z"/><path fill="#51b710" d="M42.561 103.407c-.184-.514-3.147-30.367-3.147-31.711 0-.375-.09-.593-.198-.483-.11.109-.418 2.552-.685 5.428s-.681 5.475-.92 5.775c-.253.317-1.069.494-1.943.42-1.195-.1-1.534-.32-1.64-1.071-.104-.723.073-.946.748-.946.485 0 .97-.236 1.077-.525s.652-5.51 1.212-11.605c.56-6.093 1.21-11.272 1.445-11.507.719-.718 1.743.003 1.77 1.247.034 1.598 3.223 33.159 3.324 32.896.044-.115.774-6.072 1.622-13.237 1.49-12.583 1.574-13.032 2.473-13.16 1.13-.16.947-.905 2.86 11.672.823 5.422 1.552 9.912 1.618 9.978.11.11 3.206-16.52 3.206-17.22 0-.168.443-.305.985-.305.933 0 1.067.378 2.57 7.249.873 3.987 1.721 7.396 1.886 7.576s.624-.86 1.023-2.311c2.138-7.782 2.371-8.37 3.276-8.233.641.097 1.182.931 2.088 3.22.673 1.698 1.508 3.77 1.856 4.605l.634 1.516 1.663-2.504c.981-1.478 1.965-2.503 2.401-2.503.497 0 1.29 1.067 2.42 3.255.924 1.791 1.775 3.256 1.89 3.256.116 0 .967-1.465 1.892-3.256s1.988-3.312 2.364-3.381c.437-.08 1.393.868 2.65 2.63l1.967 2.756 1.8-1.054c1.153-.676 2.436-1.055 3.577-1.055 1.6 0 1.764.094 1.644.94-.104.722-.495.998-1.69 1.191-.855.139-2.317.756-3.248 1.372-.93.616-1.974 1.12-2.318 1.12s-1.415-1.067-2.378-2.372l-1.752-2.37-1.939 3.737c-1.13 2.18-2.2 3.737-2.568 3.737s-1.434-1.548-2.557-3.713l-1.926-3.714-1.646 2.555c-2.415 3.747-2.994 3.57-5.021-1.536l-1.627-4.097-.992 3.361c-2.534 8.582-2.796 9.246-3.658 9.246-.727 0-1.013-.832-2.352-6.835-.839-3.759-1.61-6.92-1.715-7.024s-.937 3.916-1.85 8.935c-1.523 8.37-1.734 9.136-2.554 9.253-1.098.157-.983.614-2.74-10.924-.763-5.013-1.44-9.063-1.505-8.998-.064.064-.863 6.486-1.775 14.27s-1.774 14.338-1.915 14.566c-.362.586-1.457.514-1.682-.111"/></svg>