<svg xmlns="http://www.w3.org/2000/svg" xmlns:xlink="http://www.w3.org/1999/xlink" xml:space="preserve" viewBox="0 0 128 128"><defs><linearGradient xlink:href="#a" id="c" x1="461.963" x2="45.963" y1="204" y2="204" gradientTransform="matrix(.25 0 0 .25 .51 53.12)" gradientUnits="userSpaceOnUse"/><linearGradient id="a"><stop offset="0" stop-color="#d6ab00"/><stop offset=".042" stop-color="#f8e45c"/><stop offset=".083" stop-color="#d6ab00"/><stop offset=".917" stop-color="#d6ab00"/><stop offset=".958" stop-color="#f8e45c"/><stop offset="1" stop-color="#d6ab00"/></linearGradient><linearGradient id="b"><stop offset="0" stop-color="#be980a"/><stop offset="1" stop-color="#d6ab00"/></linearGradient><radialGradient xlink:href="#b" id="d" cx="405" cy="151" r="48" fx="405" fy="151" gradientTransform="matrix(1.46 -1.46 .0296 .0296 -490.52 677.7)" gradientUnits="userSpaceOnUse"/></defs><path fill="url(#c)" d="M20 16.12h88c4.432 0 8 3.568 8 8v84c0 4.432-3.568 8-8 8H20c-4.432 0-8-3.568-8-8v-84c0-4.432 3.568-8 8-8" style="marker:none"/><path fill="#fed22a" d="M20 12.12h88c4.432 0 8 3.568 8 8v76c0 4.432-3.568 8-8 8H20c-4.432 0-8-3.568-8-8v-76c0-4.432 3.568-8 8-8" style="marker:none"/><path fill="#ffc800" d="m116 80.12-24 24h16c4.432 0 8-3.568 8-8z" style="marker:none"/><path fill="url(#d)" d="M100 80.12c-4.432 0-8 3.568-8 8v16l24-24z" style="marker:none"/><path fill-opacity=".059" d="M116 100.774a7.47 7.47 0 0 1-7.492 7.346h-.5v1h.5a8.49 8.49 0 0 0 7.492-4.483zm-42 7.346 34 1v-1z"/><path fill-opacity=".043" d="M116 104.774a7.47 7.47 0 0 1-7.492 7.346h-.5v1h.5a8.49 8.49 0 0 0 7.463-4.428c.013-.19.029-.379.029-.572zm-42 7.346 34 1v-1z"/><path d="M62.886 82.067c-5.992-.219-11.646-3.27-15.636-7.652-1.143-1.415-2.922-4.093-1.002-5.518 2.514.068 3.216 3.177 5.068 4.434 3.454 3.119 7.957 5.158 12.659 5.116 4.953.087 10.55-1.103 13.651-5.318 2.125-2.659 1.832-6.601-.266-9.183-3.743-4.776-9.755-6.981-15.495-8.251-4.804-1.02-10.206-.93-14.261-4.064-2.416-1.826-2.985-5.314-1.657-7.96 2.555-5.424 8.447-8.385 14.127-9.358 3.112-.545 6.777-.001 8.97 2.448.569.64 2.691 4.504.466 3.055-2.213-1.048-4.515-2.288-7.05-2.045-4.499.323-9.15 2.124-12.097 5.644-1.277 1.484-2.231 4.18-.241 5.522 3.731 2.409 8.385 2.197 12.578 3.194 6.86 1.365 13.906 4.373 18.04 10.264 2.485 3.465 2.714 8.337.434 11.964-2.219 4.175-6.878 6.37-11.335 7.262a27.5 27.5 0 0 1-6.953.446"/></svg>