<svg xmlns="http://www.w3.org/2000/svg" xmlns:xlink="http://www.w3.org/1999/xlink" viewBox="0 0 128 128"><defs><linearGradient id="b" gradientUnits="userSpaceOnUse"><stop offset="0" stop-color="#333"/><stop offset="1" stop-color="#9d8c68"/></linearGradient><linearGradient xlink:href="#a" id="u" x1="42" x2="93" y1="273" y2="273" gradientTransform="matrix(.62745 0 0 1 35.647 -144)"/><linearGradient xlink:href="#a" id="q" x1="42" x2="93" y1="273" y2="273" gradientTransform="matrix(.9804 0 0 1 4.824 -148)"/><linearGradient xlink:href="#b" id="g" x1="20" x2="96" y1="94.063" y2="94.063" gradientTransform="translate(-9.6 -11.6)scale(1.08)"/><linearGradient id="i" x1="100" x2="108" y1="83" y2="83" gradientTransform="translate(-9.6 -11.6)scale(1.08)" gradientUnits="userSpaceOnUse"><stop offset="0" stop-color="#f6f5f4"/><stop offset=".5" stop-color="#f6f5f4"/><stop offset="1" stop-color="#c0bfbc"/></linearGradient><linearGradient xlink:href="#b" id="j" x1="20" x2="96" y1="92" y2="92" gradientTransform="translate(-9.6 -11.6)scale(1.08)"/><linearGradient id="k" x1="20" x2="96" y1="66" y2="66" gradientTransform="translate(-9.6 -11.6)scale(1.08)" gradientUnits="userSpaceOnUse"><stop offset="0" stop-color="#323232"/><stop offset=".023" stop-color="#4d4d4d"/><stop offset=".091" stop-color="#9d8c68"/><stop offset="1" stop-color="#c0b59e"/></linearGradient><clipPath id="m"><use xlink:href="#c"/></clipPath><clipPath id="s"><use xlink:href="#c"/></clipPath><path id="c" d="M0 0h192v152H0z"/><path id="e" d="M0 0h128v128H0z"/><mask id="o"><g filter="url(#d)"><use xlink:href="#e" fill-opacity=".1"/></g></mask><mask id="t"><g filter="url(#d)"><use xlink:href="#e" fill-opacity=".1"/></g></mask><filter id="d" width="1" height="1" x="0" y="0"><feColorMatrix in="SourceGraphic" values="0 0 0 0 1 0 0 0 0 1 0 0 0 0 1 0 0 0 1 0"/></filter></defs><linearGradient id="a" gradientUnits="userSpaceOnUse"><stop offset="0" stop-opacity="0"/><stop offset=".2"/><stop offset=".8" stop-opacity=".949"/><stop offset="1" stop-opacity="0"/></linearGradient><path fill="url(#g)" d="M20.64 61.975h64.8a8.64 8.64 0 0 1 8.64 8.64v38.745a8.64 8.64 0 0 1-8.64 8.64h-64.8a8.64 8.64 0 0 1-8.64-8.64V70.615a8.64 8.64 0 0 1 8.64-8.64m0 0"/><path fill="url(#i)" d="M22.8 40.24v75.6h62.64a8.62 8.62 0 0 0 8.64-8.64V48.88a8.62 8.62 0 0 0-8.64-8.64zm0 0"/><path fill="url(#j)" d="M12 72.64v30.24h73.44a8.62 8.62 0 0 0 8.64-8.64V81.28a8.62 8.62 0 0 0-8.64-8.64zm0 0"/><path fill="url(#k)" d="M12 18.64v90.72a8.62 8.62 0 0 1 8.64-8.64h64.8a8.62 8.62 0 0 0 8.64-8.64V18.64A8.62 8.62 0 0 0 85.44 10h-64.8A8.64 8.64 0 0 0 12 18.64m0 0"/><path fill="#f6f5f4" d="M20.64 102.88h4.32a6.48 6.48 0 0 1 6.48 6.48 6.48 6.48 0 0 1-6.48 6.48h-4.32a6.48 6.48 0 0 1-6.48-6.48 6.48 6.48 0 0 1 6.48-6.48m0 0"/><g clip-path="url(#m)" mask="url(#o)" transform="translate(-18.24 -28.88)scale(1.08)"><path fill="url(#q)" d="M46 124h50v2H46Zm0 0"/></g><g clip-path="url(#s)" mask="url(#t)" transform="translate(-19.867 -34.4)scale(1.06667)"><path fill="url(#u)" d="M62 128h32v2H62Zm0 0"/></g><g fill="none" stroke="#00000f" opacity=".1" transform="matrix(-.90698 0 0 .90698 123.256 -148.326)"><path stroke-width="6" d="m36 250-8 8" enable-background="new"/><path stroke-linecap="round" stroke-width="12" d="m28 258-14 14" enable-background="new"/><circle cx="58" cy="228" r="30.118" stroke-linejoin="round" stroke-width="3.765" opacity="1"/></g><circle cx="70.651" cy="54.894" r="27.153" fill="#fff" enable-background="new" opacity=".5"/><circle cx="-70.651" cy="56.651" r="27.316" fill="none" stroke="#1a5fb4" stroke-linejoin="round" stroke-width="3.414" transform="scale(-1 1)"/><circle cx="-70.651" cy="54.837" r="27.316" fill="none" stroke="#62a0ea" stroke-linejoin="round" stroke-width="3.414" transform="scale(-1 1)"/><path fill="none" stroke="#fff" stroke-linecap="round" stroke-width="1.814" d="M113.28 93.837 98.766 79.326" enable-background="new" opacity=".154"/></svg>