<svg xmlns="http://www.w3.org/2000/svg" viewBox="0 0 128 128"><path fill="#f6f5f4" d="M27.977 8h50l30.043 29.918.001 74.06c0 4.432-3.612 8.022-8.044 8.022h-72c-4.432 0-8-3.568-8-8V16c0-4.432 3.568-8 8-8"/><path fill="#deddda" d="M77.977 8v22c0 4.432 3.61 7.924 8.042 7.924l22.001-.006Z"/><path fill="#af6d63" d="m53.727 59.879 3.353-1.353 3.214-.97 3.077-.451 3.456-.209 3.803.278 2.938.728 3.837 1.422 2.328 1.083 1.854 1.005 1.031.598s.307.124.99.775c0 0 .838.551 1.278 1.132 0 0 .927.743 1.294 1.283 0 0 .787.617 1.332 1.541 0 0 1.367 1.567 1.972 2.711 0 0 .343.36.96 1.507l-1.35.827-1.673.797-2.543.81-2.175.477-2.48.43-1.858.06-2.334.05-2.42-.184-3.324-.711-2.787-.908-2.517-1.3-3.02-1.605-1.684-1.33-4.745-4.97-1.037-2.333z"/><path fill="#1f67a3" fill-opacity=".996" d="M91.387 72.541c.155-.685.217-1.545.325-2.23l-1.268.648z"/><path fill="#2093cd" d="M91.712 70.312c1.215-7.663-.629-15.178-8.188-20.387-2.863-1.972-5.923-3.316-9.23-4.347-3.382-1.054-7.447-1.79-11.226-1.64-4.266.17-8.454 1.358-12.49 2.852-.01 2.507.384 5.661 1.201 8.197.094-.018.258-.058.363-.078 8.206-1.694 16.087-1.308 24.087 2.705 2.717 1.363 3.356 1.781 6.37 4.1-.41-.254.594.631.182.388a37 37 0 0 1 2.849 2.53c1.476 1.473 2.706 3.11 3.854 4.82.336.5.96 1.507.96 1.507z"/><path fill="#2068a4" d="M50.583 46.788c-2.364.874-4.606 1.976-6.593 3.38l.784 3.19 1.124 3.244.392-.128c.48-.193 1.185-.328 1.77-.54l.907-.255 1.338-.349 1.474-.343-.709-2.804-.42-3.275z"/><path fill="#606f6f" d="M43.99 50.168c-3.034 2.143-5.47 4.989-6.828 8.797l2.394-.033 2.084-.033 2.078-1.276 2.18-1.022-1.124-3.242z"/><path fill="#888e53" d="M37.16 58.97a19 19 0 0 0-.56 1.881 23 23 0 0 0-.344 1.696l.52.054.635-.734 2.005-1.57 2.224-1.398z"/><path fill="#854a1b" d="m45.898 56.602 1.434 3.104s-.944-.217-1.46-.324-.737-.171-1.757-.29l-2.475-.193 1.04-.638 1.038-.638z"/><path fill="#a37114" d="m41.64 58.899 1.3.082s1.17.086 2.081.21c.95.15 2.311.515 2.311.515l.581 1.127 1.118 1.652-.889.803-1.173 1.03-2.01-.618-1.987-.522-1.998-.35-1.216-.153-1.704-.042-1.278-.031.635-.736.955-.828s.873-.717 2.162-1.44z"/><path fill="#ca853b" d="m49.031 62.485 1.918 2.38 3.204 3.458s-1.82-1.341-2.26-1.577l-1.585-.853c-.529-.283-.578-.286-1.31-.704-.153-.087-.825-.312-2.03-.87z"/><path fill="#51b710" d="M36.255 62.547c-.844 5.155.086 10.49 2.085 15.55 0 0 .673-1.807 1.023-2.712.29-.754.697-1.55 1.057-2.294.414-.85.896-1.66 1.416-2.446.653-.987 1.394-1.919 2.13-2.839a55 55 0 0 1 1.585-1.869l1.418-1.62L45.966 64l-2.016-.6-1.956-.443-2.235-.282-2.983-.074z"/><path fill="#64c22e" d="M38.34 78.097c2.89 7.311 8.013 14.048 13.254 18.838 2.15 1.965 4.758 4.284 7.63 5.693l.639-.61 1.348-1.63 1.33-1.926.396-1.096c1.64-7.5 1.577-14.5-2.12-21.123l-.619-1.048a28 28 0 0 0-1.058-1.579c-.685-.951-1.466-1.793-2.225-2.662l-1.736-1.728s-1.185-1.128-1.844-1.609c-.453-.33-1.441-.871-1.441-.871l-2.896-1.556-2.03-.872a73 73 0 0 1-1.355 1.43c-1.114 1.27-1.525 1.73-2.198 2.588-.562.716-1.64 2.266-1.64 2.266-1.508 2.453-1.587 2.978-1.886 3.583-.611 1.239-.601 1.267-.84 1.898a78 78 0 0 0-.709 2.014"/><path fill="#5baf3d" d="M59.224 102.628q.54.266 1.093.485l.78-1.37 1.038-2.061.406-1.22-.665.963-.665.962-.674.815-.675.815z"/><path fill="#b0655b" d="m90.444 70.959.943 1.582-1.253.974-3.202 1.471-2.934.908-2.981.613-3.276.392-3.397-.024-2.665-.27-2.933-.515-2.2-.54-2.297-.686-.884-1.891-1.219-2.106-.867-1.241-1-1.254 1.447 1.128 1.013.614 1.063.566 1.18.627 1.26.65 1.258.65 2.48.808 1.968.456 1.663.355 2.42.184 3.262-.08 3.41-.46 2.744-.659 1.68-.535 1.968-.89z"/><path fill="#b86652" d="M60.317 103.113c1.605.635 3.28.951 4.996.742 6.146-.747 11.838-7.027 15.569-11.466 4.453-5.297 8.794-12.594 10.505-19.848l-1.253.974-2.45 1.125-2.219.8-2.957.76-2.36.41-2.406.29-1.7-.013-4.363-.282-4.033-.784-3.397-.957c.19.346.323.853.465 1.168.103.21.479 1.315.612 1.875a56 56 0 0 1 .773 3.666c.057.422.113.893.15 1.318 0 0-.02-.037.057.79.004.948.052 1.982.005 2.925-.405 3.378-1.029 5.812-2.213 9.107l-.736 1.483c-.155.284-.26.473-.39.698l-.43.568-.926 2.249-.52 1.031z"/><path fill="#fff" d="M61.109 53.95c-5.027-.031-10.094.978-15.211 2.652 2.49 7.34 8.707 11.263 13.034 17.269 5.437 7.546 5.597 15.889 3.61 24.591l.43-.568c4.86-8.355 4.38-18.925-.826-27.027-2.494-3.88-6.418-6.71-8.266-11.012 2.669-.905 5.177-1.94 7.983-2.393 8.188-1.32 15.2 1.34 22.036 5.572-1.807-2.52-5.1-4.13-7.817-5.494-4.958-2.487-9.946-3.558-14.973-3.59"/></svg>