<svg xmlns="http://www.w3.org/2000/svg" xml:space="preserve" viewBox="0 0 128 128"><path fill="#f6f5f4" d="M27.978 8h50l30.043 29.918v74.06c0 4.432-3.611 8.022-8.043 8.022h-72c-4.432 0-8-3.568-8-8V16c0-4.432 3.568-8 8-8"/><path fill="#deddda" d="M77.978 8v22c0 4.432 3.61 7.923 8.042 7.923l22-.005z"/><path fill="#a2abab" d="M45.238 103.393c-.11-.29-.202-8.524-.202-18.298 0-16.905-.03-17.772-.6-17.772-.33 0-2.156.524-4.058 1.164s-3.619 1.165-3.816 1.165c-.436 0-6.174-13.514-6.168-14.528.004-.648.971-1.044 9.59-3.916 5.272-1.758 9.876-3.155 10.23-3.105s3.3-1.033 6.545-2.405l5.9-2.496.005-2.55c.003-1.404.098-2.793.21-3.087.113-.294.996-.909 1.963-1.366 2.05-.97 2.823-2.235 2.823-4.625 0-2.809-1.702-4.84-4.054-4.84-2.378 0-3.707 1.155-4.221 3.668-.275 1.344-1.124 1.975-1.956 1.453-1.309-.82-.74-3.727 1.138-5.805 2.886-3.194 7.977-2.733 10.57.957.853 1.214 1.026 1.806 1.13 3.879.194 3.835-.915 6.12-3.647 7.514l-1.29.657.006 2.073.005 2.072 5.9 2.496c3.245 1.372 6.19 2.454 6.545 2.405s4.958 1.347 10.23 3.105c8.619 2.872 9.587 3.268 9.59 3.916.006 1.014-5.732 14.528-6.168 14.528-.197 0-1.915-.524-3.816-1.165-1.902-.64-3.728-1.164-4.058-1.164-.57 0-.6.867-.6 17.772 0 9.774-.091 18.009-.202 18.298-.18.471-2.145.526-18.762.526s-18.58-.055-18.762-.526m37.06-19.578V65.04l4.392 1.474c2.416.81 4.503 1.36 4.637 1.224s1.439-3.066 2.898-6.508c1.722-4.06 2.518-6.311 2.267-6.405-1.467-.552-17.391-5.8-17.597-5.8-.14 0-.26.336-.264.748-.013 1.337-1.188 3.378-2.794 4.853-2.799 2.57-6.76 3.862-11.837 3.862-5.078 0-9.038-1.292-11.837-3.862-1.606-1.475-2.781-3.516-2.794-4.853-.004-.412-.117-.748-.25-.748-.865 0-17.723 5.886-17.723 6.188 0 .454 4.94 12.173 5.28 12.525.133.137 2.218-.414 4.633-1.224l4.393-1.474v37.549h36.596zM69.49 57.117c2.483-.617 4.791-1.85 6.309-3.367 1.039-1.038 1.765-2.301 1.457-2.532-.063-.046-3.013-1.32-6.557-2.831-3.824-1.63-6.71-2.677-7.098-2.575-1.562.408-12.896 5.405-12.902 5.687-.015.747 1.615 2.565 3.287 3.666 3.961 2.609 9.872 3.353 15.504 1.952m-12.207-9.09c3.408-1.464 6.431-2.662 6.718-2.662s3.31 1.198 6.718 2.661 6.36 2.662 6.56 2.662.362-.425.362-.944c0-.909-.233-1.044-6.238-3.607l-6.238-2.664-.097-2.344-.097-2.345 1.533-.742c2.298-1.113 3.232-2.74 3.399-5.92.115-2.193.023-2.772-.638-4.038-.425-.813-1.34-1.929-2.033-2.48-1.037-.825-1.638-1.027-3.399-1.139-1.848-.118-2.34-.018-3.618.73-1.892 1.11-2.912 2.746-2.98 4.787-.05 1.47.001 1.576.772 1.576.693 0 .858-.196 1.024-1.219.544-3.344 3.451-4.98 6.276-3.53 1.854.953 2.686 2.454 2.686 4.849 0 2.558-1.187 4.494-3.001 4.892-1.585.348-1.95 1.083-2.058 4.136l-.098 2.787-6.238 2.663c-6.004 2.564-6.238 2.7-6.238 3.608 0 .52.164.944.364.944s3.151-1.198 6.56-2.662"/><path fill="#af6d63" d="m59.169 71.025 1.584-.639 1.52-.459 1.453-.213 1.633-.098 1.797.131 1.389.344 1.813.672 1.1.512.876.475.488.282s.145.059.467.366c0 0 .396.261.604.535 0 0 .438.352.612.607 0 0 .372.291.63.728 0 0 .645.74.931 1.281 0 0 .162.17.454.712l-.638.391-.79.377-1.202.382-1.028.226-1.173.203-.877.029-1.103.023-1.144-.087-1.57-.336-1.318-.429-1.19-.614-1.426-.759-.796-.628-2.243-2.35-.49-1.101z"/><path fill="#1f67a3" fill-opacity=".996" d="M76.965 77.01c.074-.325.103-.731.154-1.054l-.6.305z"/><path fill="#2093cd" d="M77.12 75.956c.573-3.622-.298-7.173-3.87-9.635-1.353-.932-2.8-1.567-4.362-2.054-1.598-.498-3.52-.846-5.305-.775-2.016.08-3.995.642-5.903 1.348-.004 1.184.182 2.675.568 3.874.045-.009.122-.028.172-.037 3.878-.8 7.602-.619 11.382 1.278 1.284.644 1.586.842 3.01 1.937-.193-.12.281.299.087.184.468.378.925.776 1.346 1.196.698.695 1.279 1.47 1.821 2.277.159.237.454.712.454.712z"/><path fill="#2068a4" d="M57.683 64.839c-1.117.413-2.177.934-3.116 1.597l.37 1.508.532 1.533.185-.06c.227-.092.56-.156.836-.256l.43-.12.631-.165.697-.162-.335-1.326-.199-1.547z"/><path fill="#606f6f" d="M54.567 66.436c-1.433 1.013-2.585 2.358-3.226 4.157l1.131-.015.985-.016.981-.603 1.03-.483-.53-1.532z"/><path fill="#888e53" d="M51.34 70.596a9 9 0 0 0-.265.889 11 11 0 0 0-.163.801l.246.026.3-.347.948-.743 1.05-.66z"/><path fill="#854a1b" d="m55.469 69.477.678 1.466s-.447-.102-.69-.153c-.244-.05-.349-.08-.83-.137l-1.17-.09.49-.302.492-.302z"/><path fill="#a37114" d="m53.457 70.562.614.039s.553.04.984.099c.449.07 1.092.243 1.092.243l.274.533.528.78-.42.38-.554.487-.95-.292-.939-.247-.944-.165-.575-.072-.805-.02-.604-.015.3-.348.452-.39s.412-.34 1.021-.682z"/><path fill="#ca853b" d="m56.95 72.257.906 1.124 1.514 1.635s-.86-.634-1.068-.746l-.749-.402c-.25-.134-.273-.136-.62-.333-.072-.041-.39-.148-.958-.412z"/><path fill="#51b710" d="M50.912 72.286c-.399 2.436.04 4.958.985 7.349 0 0 .318-.854.483-1.282.138-.356.33-.732.5-1.084.196-.402.424-.784.67-1.156a19 19 0 0 1 1.006-1.342c.243-.303.495-.592.749-.883l.67-.765-.474-.15-.953-.284-.924-.21-1.056-.132-1.41-.035z"/><path fill="#64c22e" d="M51.897 79.635c1.366 3.455 3.787 6.638 6.264 8.902 1.016.929 2.248 2.024 3.605 2.69l.302-.289.637-.77.629-.91.187-.517c.775-3.545.745-6.853-1.002-9.983l-.292-.495a13 13 0 0 0-.5-.746c-.324-.45-.693-.847-1.052-1.258l-.82-.817s-.56-.533-.871-.76c-.215-.156-.682-.412-.682-.412l-1.368-.735-.96-.412a35 35 0 0 1-.64.676c-.526.6-.72.818-1.039 1.223-.265.338-.775 1.07-.775 1.07-.712 1.16-.75 1.408-.89 1.694-.29.585-.285.599-.397.897-.146.385-.336.952-.336.952"/><path fill="#5baf3d" d="M61.766 91.227q.256.126.517.23l.368-.649.49-.973.193-.577-.314.455-.315.455-.318.385-.32.385z"/><path fill="#b0655b" d="m76.52 76.261.445.748-.592.46-1.513.696-1.386.428-1.41.29-1.547.185-1.605-.011-1.26-.128-1.386-.243-1.04-.255-1.085-.324-.418-.894-.576-.995-.41-.587-.472-.592.683.533.48.29.502.267.558.297.594.307.595.307 1.173.382.93.215.785.168 1.144.087 1.541-.038 1.612-.217 1.297-.311.793-.253.93-.42z"/><path fill="#b86652" d="M62.283 91.456c.758.3 1.55.45 2.36.351 2.905-.353 5.595-3.32 7.358-5.419 2.104-2.503 4.156-5.95 4.965-9.38l-.593.461-1.157.532-1.049.378-1.397.359-1.116.194-1.137.136-.803-.005-2.062-.133-1.906-.371-1.605-.452c.09.163.152.403.22.552.048.099.226.621.289.886.137.574.266 1.147.365 1.732.027.2.053.422.07.623 0 0-.008-.017.028.374.002.447.025.936.002 1.382-.191 1.596-.486 2.746-1.046 4.303l-.347.701c-.074.135-.123.224-.185.33l-.203.268-.438 1.063-.245.487z"/><path fill="#fff" d="M62.657 68.224c-2.376-.015-4.77.462-7.188 1.253 1.177 3.468 4.115 5.322 6.16 8.16 2.569 3.567 2.644 7.509 1.705 11.621l.203-.268c2.297-3.948 2.07-8.943-.39-12.772-1.178-1.833-3.033-3.17-3.906-5.204 1.261-.428 2.446-.917 3.773-1.131 3.869-.624 7.182.633 10.413 2.633-.854-1.19-2.41-1.952-3.694-2.596a15.74 15.74 0 0 0-7.076-1.696"/></svg>