<svg xmlns="http://www.w3.org/2000/svg" xmlns:xlink="http://www.w3.org/1999/xlink" xml:space="preserve" viewBox="0 0 128 128"><defs><linearGradient id="a"><stop offset="0" stop-color="#ff42ff"/><stop offset=".48" stop-color="#d092f6"/><stop offset=".81" stop-color="#71c7ea"/><stop offset="1" stop-color="#00dae5"/></linearGradient><linearGradient xlink:href="#a" id="c" x1="64" x2="64" y1="8" y2="112" gradientUnits="userSpaceOnUse"/></defs><linearGradient id="b" x1="12" x2="116" y1="64" y2="64" gradientUnits="userSpaceOnUse"><stop offset="0" stop-color="#007780"/><stop offset=".05" stop-color="#00efef"/><stop offset=".1" stop-color="#00c2c2"/><stop offset=".9" stop-color="#00a4a4"/><stop offset=".95" stop-color="#00efef"/><stop offset="1" stop-color="#007780"/></linearGradient><path fill="url(#b)" d="M20 22h88a8 8 0 0 1 8 8v78a8 8 0 0 1-8 8H20a8 8 0 0 1-8-8V30a8 8 0 0 1 8-8m0 0"/><path fill="url(#c)" d="M20 12h88a8 8 0 0 1 8 8v80a8 8 0 0 1-8 8H20a8 8 0 0 1-8-8V20a8 8 0 0 1 8-8m0 0"/><path fill="#241f31" d="M20 14h88c3.313 0 6 2.688 6 6v80a6 6 0 0 1-6 6H20c-3.312 0-6-2.687-6-6V20c0-3.312 2.688-6 6-6m0 0"/><path fill="#fefefe" d="m61.848 27.399-6.056 6.204-.008.005-.022.026 6.659 1.339c-.947 4.183-3.91 7.238-7.42 7.238-4.277 0-7.738-4.523-7.738-10.106S50.727 22 55.001 22c2.971 0 5.553 2.188 6.847 5.399m-25.264 0-6.055 6.204-.008.005-.022.026 6.659 1.339c-.947 4.183-3.91 7.238-7.42 7.238-4.277 0-7.738-4.523-7.738-10.106S25.464 22 29.738 22c2.971 0 5.553 2.188 6.846 5.399"/></svg>