<svg xmlns="http://www.w3.org/2000/svg" xmlns:xlink="http://www.w3.org/1999/xlink" viewBox="0 0 128 128"><defs><linearGradient id="b" x1="0" x2="118.926" y1="269.463" y2="269.463" gradientTransform="matrix(1 0 0 .98333 0 -168.033)" gradientUnits="userSpaceOnUse"><stop offset="0" stop-color="#787878"/><stop offset=".414" stop-color="#cbcbcb"/><stop offset=".813" stop-color="#787878"/><stop offset="1" stop-color="#a9a9a9"/></linearGradient><linearGradient xlink:href="#a" id="d" x1="32" x2="32" y1="10" y2="55" gradientTransform="matrix(2.14286 0 0 2.10525 -4.571 -5.421)" gradientUnits="userSpaceOnUse"/><linearGradient id="a"><stop offset="0" stop-color="#3584e4"/><stop offset="1" stop-color="#62a0ea"/></linearGradient></defs><path fill="url(#b)" d="M124 66c0 32.585-26.863 59-60 59S4 98.585 4 66 30.863 7 64 7s60 26.415 60 59m0 0"/><ellipse cx="64" cy="61.947" fill="#fff" rx="60" ry="58.947"/><ellipse cx="64" cy="61.947" opacity=".2" rx="17.143" ry="16.842"/><path d="M58.286 37.798c-1.583 0-2.857 1.252-2.857 2.807V51.98s3.097 2.674 3.097 4.479-3.097 4.48-3.097 4.48v24.577c0 1.555 1.274 2.807 2.857 2.807h11.428c1.583 0 2.857-1.252 2.857-2.807V74.185l-.028-.039s-3.23-2.788-3.23-4.67c-.001-1.885 3.23-4.677 3.23-4.677l.028-.039V40.605c0-1.555-1.274-2.807-2.857-2.807z" opacity=".1"/><path fill="#394045" d="M58.286 36.684c-1.583 0-2.857 1.252-2.857 2.807v11.376s3.097 2.674 3.097 4.48c0 1.804-3.097 4.478-3.097 4.478v24.578c0 1.555 1.274 2.807 2.857 2.807h11.428c1.583 0 2.857-1.252 2.857-2.807V73.071l-.028-.038s-3.23-2.789-3.23-4.671c-.001-1.884 3.23-4.677 3.23-4.677l.028-.038V39.49c0-1.555-1.274-2.807-2.857-2.807z"/><path fill="url(#d)" d="M64 15.632c-25.966 0-47.143 20.804-47.143 46.315S38.034 108.263 64 108.263s47.143-20.805 47.143-46.316c0-25.51-21.177-46.315-47.143-46.315m0 10.526c20.19 0 36.429 15.953 36.429 35.79 0 19.836-16.238 35.788-36.429 35.788-20.19 0-36.429-15.952-36.429-35.789 0-19.836 16.238-35.79 36.429-35.79"/><path fill="#fff" d="M64 3A60 58.947 0 0 0 4 61.947a60 58.947 0 0 0 .046 1.234A60 58.947 0 0 1 64 5.105a60 58.947 0 0 1 59.954 57.714 60 58.947 0 0 0 .046-.872A60 58.947 0 0 0 64 3" opacity=".2"/><path fill-opacity=".1" fill-rule="evenodd" d="M82.047 111.369c17.574-7.596 29.874-25.282 29.874-45.863 0-27.546-20.576-49.857-47.73-49.857-27.18 0-48.023 22.336-48.023 49.857 0 27.442 21.9 49.725 48.957 49.854h-.253c-28.503 0-51.63-23.43-51.63-52.319s21.944-52.348 50.45-52.348c28.504 0 50.185 23.433 50.185 52.323 0 21.799-13.155 40.477-31.834 48.353zm-18.2 4.575c31.86 0 59.108-25.909 59.108-58.18 0-3-.004-5.938-.433-8.808 1.078 4.443 1.432 9.062 1.432 13.866 0 32.269-27.071 58.178-60.261 58.178C34.432 121 8.97 99.43 4.77 71.354c6.148 25.56 31.949 44.59 59.078 44.59" opacity=".5"/></svg>