<svg xmlns="http://www.w3.org/2000/svg" xmlns:xlink="http://www.w3.org/1999/xlink" xml:space="preserve" viewBox="0 0 128 128"><defs><linearGradient id="b"><stop offset="0"/><stop offset=".029" stop-color="#fffeec"/><stop offset=".058"/><stop offset=".942"/><stop offset=".971" stop-color="#fffeec"/><stop offset="1"/></linearGradient><linearGradient xlink:href="#a" id="c" x1="11.823" x2="115.823" y1="268" y2="268" gradientTransform="translate(0 -172)" gradientUnits="userSpaceOnUse"/><linearGradient id="a"><stop offset="0" stop-color="#bcebf1"/><stop offset=".029" stop-color="#fffeec"/><stop offset=".058" stop-color="#bcebf1"/><stop offset=".942" stop-color="#bcebf1"/><stop offset=".971" stop-color="#fffeec"/><stop offset="1" stop-color="#bcebf1"/></linearGradient><linearGradient xlink:href="#b" id="d" x1="12" x2="116" y1="42.002" y2="42.002" gradientUnits="userSpaceOnUse"/></defs><path fill="url(#c)" d="M20 24.7h88c4.432 0 8 3.568 8 8V108c0 4.432-3.568 8-8 8H20c-4.432 0-8-3.568-8-8V32.7c0-4.432 3.568-8 8-8"/><path fill="url(#d)" d="M20 16h88a8 8 0 0 1 8 8v36.004a8 8 0 0 1-8 8H20a8 8 0 0 1-8-8V24a8 8 0 0 1 8-8" opacity=".9"/><path fill="#fffeec" d="M20 12h88a8 8 0 0 1 8 8v36.004a8 8 0 0 1-8 8H20a8 8 0 0 1-8-8V20a8 8 0 0 1 8-8"/></svg>