<svg xmlns="http://www.w3.org/2000/svg" xmlns:xlink="http://www.w3.org/1999/xlink" xml:space="preserve" viewBox="0 0 128 128"><defs><linearGradient id="a"><stop offset="0" stop-color="#7316a6"/><stop offset=".042" stop-color="#be6aec"/><stop offset=".083" stop-color="#7416a7"/><stop offset=".917" stop-color="#7416a7"/><stop offset=".958" stop-color="#be6aec"/><stop offset="1" stop-color="#7416a7"/></linearGradient><linearGradient xlink:href="#a" id="c" x1="12" x2="116" y1="66" y2="66" gradientUnits="userSpaceOnUse"/><linearGradient id="b"><stop offset="0" stop-color="#b350e8"/><stop offset="1" stop-color="#9619de"/></linearGradient><linearGradient xlink:href="#b" id="d" x1="116" x2="51.398" y1="12" y2="101.233" gradientUnits="userSpaceOnUse"/></defs><rect width="104" height="100" x="12" y="16" fill="url(#c)" rx="8" ry="8" style="marker:none"/><rect width="104" height="100" x="12" y="12" fill="url(#d)" rx="8" ry="8" style="marker:none"/><path fill="#fff" d="m64.063 30.81-12.916 5.74-12.916 5.738.038 9.79c.04 10.438.043 10.469.515 13.267.8 4.736 2.947 9.875 5.92 14.168C49.202 86.007 55.71 90.85 62.661 92.88c.578.169 1.2.308 1.381.31s.823-.139 1.426-.314c9.77-2.84 18.248-11.03 22.193-21.438.944-2.49 1.56-4.97 1.943-7.816.15-1.115.165-2.06.165-11.3V42.234l-12.854-5.713Zm-.062 16.748c3.953 0 7.19 3.238 7.19 7.191v3.594a3.585 3.585 0 0 1 3.595 3.595v8.989c0 .997-.802 1.797-1.799 1.797H55.013c-.997 0-1.8-.8-1.8-1.797v-8.989a3.585 3.585 0 0 1 3.597-3.595v-3.594c0-3.953 3.238-7.191 7.191-7.191m0 3.595c-2.022 0-3.596 1.574-3.596 3.596v3.594h7.19v-3.594c0-2.022-1.572-3.596-3.594-3.596"/></svg>