<svg xmlns="http://www.w3.org/2000/svg" xmlns:xlink="http://www.w3.org/1999/xlink" viewBox="0 0 128 128"><defs><linearGradient id="a"><stop offset="0" stop-color="#0b5124"/><stop offset=".409" stop-color="#43e57d"/><stop offset=".805" stop-color="#0b5124"/><stop offset="1" stop-color="#2ce26d"/></linearGradient><linearGradient xlink:href="#a" id="b" x1="10" x2="118" y1="66" y2="66" gradientTransform="matrix(1.11111 0 0 1.0926 -7.111 -6.111)" gradientUnits="userSpaceOnUse"/></defs><path fill="url(#b)" d="M124 66c0-32.66-26.786-59-60-59S4 33.34 4 66s26.786 59 60 59 60-26.34 60-59"/><path fill="#1ed760" d="M124 62c0-32.66-26.786-59-60-59S4 29.34 4 62s26.786 59 60 59 60-26.34 60-59"/><path fill="none" stroke="#191515" stroke-linecap="round" stroke-width="10.625" d="M28.643 44.09C44.714 37.767 79 37.767 101.5 50.41"/><path fill="none" stroke="#191515" stroke-linecap="round" stroke-width="8.5" d="M31.857 62c15-4.214 49.286-2.107 62.143 6.321M34 80.964c12.857-3.16 38.571-3.16 53.571 4.215"/></svg>