<svg xmlns="http://www.w3.org/2000/svg" xmlns:xlink="http://www.w3.org/1999/xlink" viewBox="0 0 128 128"><defs><linearGradient id="a"><stop offset="0" stop-color="#3584e4"/><stop offset="1" stop-color="#62a0ea"/></linearGradient><linearGradient id="b"><stop offset="0" stop-color="#99c1f1"/><stop offset="1" stop-color="#c3e5e7"/></linearGradient><linearGradient xlink:href="#a" id="d" x1="64" x2="480" y1="756" y2="756" gradientUnits="userSpaceOnUse"/><linearGradient xlink:href="#b" id="g" x1="152.898" x2="447.309" y1="-38.797" y2="316" gradientUnits="userSpaceOnUse"/><filter id="c" width="1.024" height="1.024" x="-.012" y="-.012" color-interpolation-filters="sRGB"><feGaussianBlur stdDeviation="2.08"/></filter><filter id="f" width="1.217" height="1.269" x="-.108" y="-.134" color-interpolation-filters="sRGB"><feGaussianBlur stdDeviation="18.8"/></filter><clipPath id="e" clipPathUnits="userSpaceOnUse"><path fill="#c9b8a7" stroke-width="26.067" d="M192-164H88s-40 0-40 40V4h416v-96s0-40-40-40H224Z" enable-background="new" style="marker:none"/></clipPath></defs><g fill="#c9b8a7"><path fill="#000" d="M88-162s-40 0-40 40L47.965 6h.033l-.033 248.094L424 254c40 0 40-40 40-40V-90s0-40-40-40H224l-32-32z" enable-background="new" filter="url(#c)" opacity=".2" style="marker:none" transform="translate(-.293 52.435)scale(.25116)"/><path fill="url(#d)" d="M208 672H104s-40 0-40 40v128h416v-96s0-40-40-40H240Z" enable-background="new" style="marker:none" transform="translate(-4.312 -157.536)scale(.25116)"/><path fill="#000" d="m256-80-32 32H88S48-48 48-8v264h376c40 0 40-40 40-40V-40c0-40-40-40-40-40z" clip-path="url(#e)" enable-background="new" filter="url(#f)" opacity=".1" style="marker:none" transform="translate(-.293 52.435)scale(.25116)"/><path fill="url(#g)" d="m256-84-32 32H88s-40 0-40 40v264h376c40 0 40-40 40-40V-44c0-40-40-40-40-40z" enable-background="new" style="marker:none" transform="translate(-.293 52.435)scale(.25116)"/><path fill="#99c1f1" d="M480 1042s0 40-40 40l-375.998.094-.004 6L440 1088c40 0 40-40 40-40z" enable-background="new" style="font-variation-settings:normal;marker:none" transform="translate(-4.312 -157.536)scale(.25116)"/><path fill="#fff" d="m272 752-32 32H104s-40 0-40 40v4c0-40 40-42 40-42h136.591l32-32H440c5.38 0 40 2 40 42v-4c0-40-40-40-40-40z" enable-background="new" opacity=".3" style="marker:none" transform="translate(-4.312 -157.536)scale(.25116)"/></g><path fill="#438de6" d="M63.255 51.027c-3.414.136-6.764 1.086-9.993 2.282-1.89.699-3.681 1.58-5.27 2.702-2.426 1.714-4.376 3.991-5.462 7.038l1.916-.027-1.917.03q-.258.724-.448 1.506-.165.675-.276 1.356c-.675 4.124.068 8.392 1.668 12.44 2.31 5.849 6.41 11.238 10.603 15.07 1.72 1.572 3.806 3.427 6.103 4.555q.432.212.875.388c1.284.508 2.624.76 3.997.593 4.917-.598 9.47-5.622 12.455-9.173 3.562-4.237 7.036-10.075 8.404-15.878l-1.002.78-1.96.9 1.96-.901 1.002-.779c.124-.548.173-1.236.26-1.784.971-6.13-.504-12.142-6.55-16.309-2.291-1.578-4.74-2.652-7.384-3.477-2.706-.844-5.959-1.432-8.981-1.312m-9.94 3.84.018.243-.015-.107zm.32 2.592.058.308-.036-.144zm8.053 1.578c4.022.025 8.011.882 11.977 2.871q.014.008.03.014l.09.045.14.07c2.12 1.064 4.607 2.33 5.996 4.267-5.47-3.386-11.079-5.514-17.63-4.458-2.244.362-4.25 1.19-6.385 1.915q.177.41.384.801l.002.003.108.166.072.163c1.2 2.111 2.985 3.81 4.548 5.674l.002.002.003.003q.413.49.798 1.002l.002.001q.365.484.693.994.527.82.974 1.68l.003.004c.046.09.082.183.127.273.208.416.411.834.591 1.261.08.152.147.34.21.518.052.146.1.285.15.396l.001.002c.084.173.383 1.052.49 1.498v.003c.245.857.414 1.73.55 2.608.017.108.049.213.067.322a22 22 0 0 1 .166 1.683v.006c.003.757.042 1.583.003 2.338-.01.074-.027.128-.036.201a20.2 20.2 0 0 1-1.634 6.756c-.042.117-.058.208-.101.327l-.589 1.187c-.124.227-.209.377-.312.558l-.344.455c1.59-6.962 1.462-13.636-2.887-19.674-1.2-1.666-2.578-3.13-3.955-4.579l-.007-.006a96 96 0 0 1-2.143-2.315l-.282-.304-.272-.337a29 29 0 0 1-.893-1.108l-.37-.46-.308-.455q-.174-.249-.34-.502l-.246-.363-.23-.444c-.533-.915-1.02-1.872-1.383-2.942l.314-.101h.001c.18-.073.4-.135.63-.198q.393-.12.784-.235l.03-.008.015-.004.682-.191 1.07-.279 1.144-.267.021-.005.015-.003q.008 0 .015-.003l.175-.038.101-.02c.283-.059.561-.082.844-.134 2.118-.398 4.23-.647 6.33-.634zm-13.865 4.092.27.02c.072.01.089.014.152.022-.187-.018-.277-.03-.422-.042m-3.413.937-.11.073.034-.026zm7.314 3.844c.141.057.232.093.274.117l.006.005-.006-.004zm11.538 4.2 1.525.812-.945-.501zm3.539 1.852 1.992.649-.01-.002zm15.701.056-1.344.428-.009.001zM66.9 76.528l.03.007-.012-.002zm3.198.624.046.008.024.003-.024-.002z"/></svg>