<svg xmlns="http://www.w3.org/2000/svg" xmlns:xlink="http://www.w3.org/1999/xlink" viewBox="0 0 128 128"><defs><linearGradient xlink:href="#a" id="b" x1="2689.252" x2="2918.07" y1="-1106.803" y2="-1106.803" gradientUnits="userSpaceOnUse"/><linearGradient id="a"><stop offset="0" stop-color="#62a0ea"/><stop offset=".058" stop-color="#afd4ff"/><stop offset=".122" stop-color="#62a0ea"/><stop offset=".873" stop-color="#62a0ea"/><stop offset=".956" stop-color="#c0d5ea"/><stop offset="1" stop-color="#62a0ea"/></linearGradient></defs><g stroke-width="1.264"><path fill="#438de6" d="M21.978 11.986a9.956 9.979 0 0 0-9.978 10v86.033a9.956 9.979 0 0 0 9.978 10h84.044a9.956 9.979 0 0 0 9.978-10V35.931a11.973 12 0 0 0-11.974-12H58a6.49 6.505 0 0 1-5.799-3.58l-1.503-2.993A9.74 9.762 0 0 0 42 11.986z"/><path fill="url(#b)" d="M2808.014-1273.645a21.9 21.9 0 0 0-15.465 6.343c-5.003 4.955-11.848 11.22-18.993 11.22h-62.35a21.906 21.906 0 0 0-21.954 21.952v118.618a21.906 21.906 0 0 0 21.954 21.953h184.91a21.906 21.906 0 0 0 21.954-21.953v-136.18a21.906 21.906 0 0 0-21.955-21.953z" transform="matrix(.45451 0 0 .45552 -1210.292 616.157)"/><path fill="#a4caee" d="M65.978 31.986a9.954 9.976 0 0 0-7.029 2.89c-2.273 2.257-5.385 5.11-8.632 5.11H21.978a9.956 9.979 0 0 0-9.978 10v55.978a9.956 9.979 0 0 0 9.978 10h84.044a9.956 9.979 0 0 0 9.978-10V41.986a9.956 9.979 0 0 0-9.979-10z"/></g><path fill="#438de6" d="M43.636 59.985a2.903 2.903 0 0 0-2.909 2.909v26.182a2.903 2.903 0 0 0 2.91 2.909h40.727a2.903 2.903 0 0 0 2.909-2.91v-26.18a2.903 2.903 0 0 0-2.91-2.91zm0 8.727h40.728V80.35H43.636Zm8.728 2.91a2.91 2.91 0 0 0-2.91 2.908 2.91 2.91 0 0 0 2.91 2.91 2.91 2.91 0 0 0 2.909-2.91 2.91 2.91 0 0 0-2.91-2.909m5.818 0v5.817h11.636V71.62zm17.454 0a2.91 2.91 0 0 0-2.909 2.908 2.91 2.91 0 0 0 2.91 2.91 2.91 2.91 0 0 0 2.908-2.91 2.91 2.91 0 0 0-2.909-2.909M55.273 83.257h17.454l2.91 5.818H52.363Z"/></svg>