<svg xmlns="http://www.w3.org/2000/svg" xmlns:xlink="http://www.w3.org/1999/xlink" viewBox="0 0 128 128"><defs><linearGradient xlink:href="#a" id="b" x1="2689.252" x2="2918.07" y1="-1106.803" y2="-1106.803" gradientUnits="userSpaceOnUse"/><linearGradient id="a"><stop offset="0" stop-color="#62a0ea"/><stop offset=".058" stop-color="#afd4ff"/><stop offset=".122" stop-color="#62a0ea"/><stop offset=".873" stop-color="#62a0ea"/><stop offset=".956" stop-color="#c0d5ea"/><stop offset="1" stop-color="#62a0ea"/></linearGradient></defs><g stroke-width="1.264"><path fill="#438de6" d="M21.978 11.986a9.956 9.979 0 0 0-9.978 10v86.033a9.956 9.979 0 0 0 9.978 10h84.044a9.956 9.979 0 0 0 9.978-10V35.931a11.973 12 0 0 0-11.974-12H58a6.49 6.505 0 0 1-5.799-3.58l-1.503-2.993A9.74 9.762 0 0 0 42 11.986z"/><path fill="url(#b)" d="M2808.014-1273.645a21.9 21.9 0 0 0-15.465 6.343c-5.003 4.955-11.848 11.22-18.993 11.22h-62.35a21.906 21.906 0 0 0-21.954 21.952v118.618a21.906 21.906 0 0 0 21.954 21.953h184.91a21.906 21.906 0 0 0 21.954-21.953v-136.18a21.906 21.906 0 0 0-21.955-21.953z" transform="matrix(.45451 0 0 .45552 -1210.292 616.157)"/><path fill="#a4caee" d="M65.978 31.986a9.954 9.976 0 0 0-7.029 2.89c-2.273 2.257-5.385 5.11-8.632 5.11H21.978a9.956 9.979 0 0 0-9.978 10v55.978a9.956 9.979 0 0 0 9.978 10h84.044a9.956 9.979 0 0 0 9.978-10V41.986a9.956 9.979 0 0 0-9.979-10z"/></g><path fill="#438de6" d="M62 65.985v1.86c-2.93.523-4.64 2.265-4.64 4.866 0 2.375 1.452 3.97 4.085 4.43l3.555.625c1.61.274 2.234.711 2.234 1.617 0 .992-1.086 1.57-2.906 1.57-1.867 0-3.414-.648-5.375-2.242l-2.219 2.883c1.485 1.266 3.344 2.133 5.266 2.508v1.883h4V84.14c3.21-.531 5.117-2.398 5.117-5.148 0-2.5-1.64-4.086-4.758-4.594l-3.343-.555c-1.368-.234-1.914-.633-1.914-1.437 0-.875.984-1.407 2.601-1.407 1.711 0 3.258.602 4.969 1.915l2.094-2.93c-1.29-1.04-3-1.781-4.766-2.11v-1.89zm2-6c-8.836 0-16 7.164-16 16s7.164 16 16 16 16-7.164 16-16-7.164-16-16-16m0 4c6.625 0 12 5.375 12 12s-5.375 12-12 12-12-5.375-12-12 5.375-12 12-12m0 0"/></svg>