<svg xmlns="http://www.w3.org/2000/svg" xmlns:xlink="http://www.w3.org/1999/xlink" viewBox="0 0 128 128"><defs><linearGradient id="a"><stop offset="0" stop-color="#3584e4"/><stop offset="1" stop-color="#62a0ea"/></linearGradient><linearGradient id="b"><stop offset="0" stop-color="#99c1f1"/><stop offset="1" stop-color="#c3e5e7"/></linearGradient><linearGradient xlink:href="#a" id="d" x1="64" x2="480" y1="756" y2="756" gradientUnits="userSpaceOnUse"/><linearGradient xlink:href="#b" id="g" x1="152.898" x2="447.309" y1="-38.797" y2="316" gradientUnits="userSpaceOnUse"/><filter id="c" width="1.024" height="1.024" x="-.012" y="-.012" color-interpolation-filters="sRGB"><feGaussianBlur stdDeviation="2.08"/></filter><filter id="f" width="1.217" height="1.269" x="-.108" y="-.134" color-interpolation-filters="sRGB"><feGaussianBlur stdDeviation="18.8"/></filter><clipPath id="e" clipPathUnits="userSpaceOnUse"><path fill="#c9b8a7" stroke-width="26.067" d="M192-164H88s-40 0-40 40V4h416v-96s0-40-40-40H224Z" enable-background="new" style="marker:none"/></clipPath></defs><g fill="#c9b8a7"><path fill="#000" d="M88-162s-40 0-40 40L47.965 6h.033l-.033 248.094L424 254c40 0 40-40 40-40V-90s0-40-40-40H224l-32-32z" enable-background="new" filter="url(#c)" opacity=".2" style="marker:none" transform="translate(-.293 52.435)scale(.25116)"/><path fill="url(#d)" d="M208 672H104s-40 0-40 40v128h416v-96s0-40-40-40H240Z" enable-background="new" style="marker:none" transform="translate(-4.312 -157.536)scale(.25116)"/><path fill="#000" d="m256-80-32 32H88S48-48 48-8v264h376c40 0 40-40 40-40V-40c0-40-40-40-40-40z" clip-path="url(#e)" enable-background="new" filter="url(#f)" opacity=".1" style="marker:none" transform="translate(-.293 52.435)scale(.25116)"/><path fill="url(#g)" d="m256-84-32 32H88s-40 0-40 40v264h376c40 0 40-40 40-40V-44c0-40-40-40-40-40z" enable-background="new" style="marker:none" transform="translate(-.293 52.435)scale(.25116)"/><path fill="#99c1f1" d="M480 1042s0 40-40 40l-375.998.094-.004 6L440 1088c40 0 40-40 40-40z" enable-background="new" style="font-variation-settings:normal;marker:none" transform="translate(-4.312 -157.536)scale(.25116)"/><path fill="#fff" d="m272 752-32 32H104s-40 0-40 40v4c0-40 40-42 40-42h136.591l32-32H440c5.38 0 40 2 40 42v-4c0-40-40-40-40-40z" enable-background="new" opacity=".3" style="marker:none" transform="translate(-4.312 -157.536)scale(.25116)"/></g><path fill="#438de6" d="M67.479 51.252c-.42 0-.843.019-1.26.006H60.03c-1.534-.035-3.022 1.07-3.349 2.585-.205.845-.102 1.713-.13 2.573v1.787H44.845c-2.503 0-4.561 2.058-4.561 4.561V78.73c0 2.02 1.362 3.71 3.194 4.301v11.66c0 2.502 2.053 4.561 4.556 4.561h31.932c2.503 0 4.556-2.059 4.556-4.561V83.173c1.833-.488 3.194-2.43 3.194-4.443V62.764c0-2.5-2.052-4.561-4.555-4.561H71.448c-.01-1.275.019-2.548-.018-3.822-.107-1.462-1.253-2.774-2.703-3.034a6.6 6.6 0 0 0-1.249-.095m-7.383 2.981q.055-.002.112 0h7.767c.476-.012.531.5.497.858v3.112h-8.938c.006-1.192-.011-2.388.011-3.58.055-.3.294-.373.55-.39zm-15.25 6.703H83.16c1.045 0 1.822.78 1.822 1.828V78.73c0 1.048-.777 1.828-1.822 1.828H71.756v-5.022c0-2.503-2.058-4.561-4.561-4.561h-6.39c-2.503 0-4.554 2.06-4.554 4.56v5.023H44.845c-1.045 0-1.828-.783-1.828-1.828V62.764c0-1.045.784-1.828 1.828-1.828m15.96 12.772h6.389c1.044 0 1.827.783 1.827 1.828v6.383c0 1.045-.782 1.828-1.827 1.828h-6.39c-1.045 0-1.827-.783-1.827-1.828v-1.207l.006-5.176c0-1.048.777-1.828 1.822-1.828m-14.594 9.577H56.83c.614 1.754 1.999 3.195 3.976 3.195h6.389c1.976 0 3.361-1.441 3.975-3.195h10.624v11.406c0 1.045-.782 1.828-1.827 1.828H48.034c-1.046 0-1.822-.782-1.822-1.828z"/></svg>