<svg xmlns="http://www.w3.org/2000/svg" xmlns:xlink="http://www.w3.org/1999/xlink" viewBox="0 0 128 128"><defs><linearGradient id="a"><stop offset="0" stop-color="#3584e4"/><stop offset="1" stop-color="#62a0ea"/></linearGradient><linearGradient id="b"><stop offset="0" stop-color="#99c1f1"/><stop offset="1" stop-color="#c3e5e7"/></linearGradient><linearGradient xlink:href="#a" id="d" x1="64" x2="480" y1="756" y2="756" gradientUnits="userSpaceOnUse"/><linearGradient xlink:href="#b" id="g" x1="152.898" x2="447.309" y1="-38.797" y2="316" gradientUnits="userSpaceOnUse"/><filter id="c" width="1.024" height="1.024" x="-.012" y="-.012" color-interpolation-filters="sRGB"><feGaussianBlur stdDeviation="2.08"/></filter><filter id="f" width="1.217" height="1.269" x="-.108" y="-.134" color-interpolation-filters="sRGB"><feGaussianBlur stdDeviation="18.8"/></filter><clipPath id="e" clipPathUnits="userSpaceOnUse"><path fill="#c9b8a7" stroke-width="26.067" d="M192-164H88s-40 0-40 40V4h416v-96s0-40-40-40H224Z" enable-background="new" style="marker:none"/></clipPath></defs><g fill="#c9b8a7"><path fill="#000" d="M88-162s-40 0-40 40L47.965 6h.033l-.033 248.094L424 254c40 0 40-40 40-40V-90s0-40-40-40H224l-32-32z" enable-background="new" filter="url(#c)" opacity=".2" style="marker:none" transform="translate(-.293 52.435)scale(.25116)"/><path fill="url(#d)" d="M208 672H104s-40 0-40 40v128h416v-96s0-40-40-40H240Z" enable-background="new" style="marker:none" transform="translate(-4.312 -157.536)scale(.25116)"/><path fill="#000" d="m256-80-32 32H88S48-48 48-8v264h376c40 0 40-40 40-40V-40c0-40-40-40-40-40z" clip-path="url(#e)" enable-background="new" filter="url(#f)" opacity=".1" style="marker:none" transform="translate(-.293 52.435)scale(.25116)"/><path fill="url(#g)" d="m256-84-32 32H88s-40 0-40 40v264h376c40 0 40-40 40-40V-44c0-40-40-40-40-40z" enable-background="new" style="marker:none" transform="translate(-.293 52.435)scale(.25116)"/><path fill="#99c1f1" d="M480 1042s0 40-40 40l-375.998.094-.004 6L440 1088c40 0 40-40 40-40z" enable-background="new" style="font-variation-settings:normal;marker:none" transform="translate(-4.312 -157.536)scale(.25116)"/><path fill="#fff" d="m272 752-32 32H104s-40 0-40 40v4c0-40 40-42 40-42h136.591l32-32H440c5.38 0 40 2 40 42v-4c0-40-40-40-40-40z" enable-background="new" opacity=".3" style="marker:none" transform="translate(-4.312 -157.536)scale(.25116)"/></g><path fill="#438de6" d="M78.638 94.833c-4.223-.092-8.073-1.3-11.32-4.083-2.738-2.366-4.455-5.382-5.012-8.955-.835-5.242.603-9.882 3.758-14.01 3.387-4.455 7.47-6.775 12.991-7.75 4.732-.834 9.186-.37 13.224 2.367 3.664 2.505 5.938 5.892 6.541 10.347.789 6.263-1.02 11.367-5.335 15.728-3.063 3.108-6.82 5.057-11.136 5.939-1.252.232-2.505.278-3.711.417M89.68 76.09c-.046-.603-.046-1.067-.14-1.531-.834-4.594-5.056-7.192-9.464-6.171-4.315.974-7.098 3.712-8.12 8.073-.835 3.62.928 7.284 4.269 8.769 2.551 1.114 5.103.974 7.562-.278 3.666-1.903 5.661-4.872 5.893-8.862m-26.4-6.913c-2.922.742-4.918 1.299-7.795 2.041-.695.186-.741.232-1.344-.463-.697-.79-1.207-1.3-2.181-1.763-2.923-1.44-5.753-1.022-8.398.695-3.155 2.041-4.78 5.057-4.733 8.816.046 3.711 2.599 6.774 6.264 7.283 3.155.418 5.8-.695 7.888-3.062.417-.51.788-1.066 1.252-1.716H45.28c-.975 0-1.207-.603-.882-1.392.603-1.438 1.717-3.851 2.366-5.057.14-.278.464-.742 1.16-.742h16.889c-.093 1.252-.093 2.505-.279 3.758-.51 3.34-1.763 6.402-3.805 9.093-3.34 4.408-7.701 7.146-13.223 7.888-4.546.603-8.768-.279-12.48-3.062-3.434-2.599-5.382-6.032-5.893-10.3-.603-5.058.882-9.604 3.944-13.595 3.295-4.315 7.656-7.052 12.991-8.026 4.361-.789 8.537-.279 12.295 2.273 2.46 1.624 4.222 3.85 5.382 6.542.278.417.093.65-.463.789" class="st0"/></svg>