<svg xmlns="http://www.w3.org/2000/svg" xmlns:xlink="http://www.w3.org/1999/xlink" viewBox="0 0 128 128"><defs><linearGradient id="a"><stop offset="0" stop-color="#3584e4"/><stop offset="1" stop-color="#62a0ea"/></linearGradient><linearGradient id="b"><stop offset="0" stop-color="#99c1f1"/><stop offset="1" stop-color="#c3e5e7"/></linearGradient><linearGradient xlink:href="#a" id="e" x1="64" x2="480" y1="756" y2="756" gradientUnits="userSpaceOnUse"/><linearGradient xlink:href="#b" id="h" x1="152.898" x2="447.309" y1="-38.797" y2="316" gradientUnits="userSpaceOnUse"/><linearGradient xlink:href="#c" id="j" x1="174.074" x2="132.276" y1="215.549" y2="141.753" gradientUnits="userSpaceOnUse"/><linearGradient id="c" x1="174.074" x2="132.276" y1="215.549" y2="141.753" gradientUnits="userSpaceOnUse"><stop offset="0" stop-color="#438de6" stop-opacity=".4"/><stop offset="0" stop-color="#438de6" stop-opacity=".4"/><stop offset=".41" stop-color="#438de6" stop-opacity=".6"/><stop offset=".99" stop-color="#438de6" stop-opacity=".8"/><stop offset="1" stop-color="#438de6"/></linearGradient><linearGradient id="k" x1="194.895" x2="141.028" y1="153.558" y2="117.409" gradientUnits="userSpaceOnUse"><stop offset="0" stop-color="#438de6"/><stop offset="0" stop-color="#438de6"/><stop offset=".99" stop-color="#438de6" stop-opacity=".9"/><stop offset="1" stop-color="#438de6" stop-opacity=".9"/></linearGradient><linearGradient id="l" x1="151.795" x2="97.93" y1="217.785" y2="181.638" gradientUnits="userSpaceOnUse"><stop offset="0" stop-color="#438de6"/><stop offset="0" stop-color="#438de6"/><stop offset=".99" stop-color="#438de6" stop-opacity=".8"/><stop offset="1" stop-color="#438de6" stop-opacity=".8"/></linearGradient><linearGradient id="m" x1="38.696" x2="47.047" y1="127.391" y2="181.661" gradientUnits="userSpaceOnUse"><stop offset="0" stop-color="#438de6" stop-opacity="0"/><stop offset="0" stop-color="#438de6" stop-opacity="0"/><stop offset=".23" stop-color="#438de6" stop-opacity=".6"/><stop offset=".46" stop-color="#438de6"/><stop offset=".99" stop-color="#438de6" stop-opacity=".8"/><stop offset="1" stop-color="#438de6" stop-opacity=".8"/></linearGradient><linearGradient id="n" x1="96.133" x2="99.21" y1="76.715" y2="132.102" gradientUnits="userSpaceOnUse"><stop offset="0" stop-color="#438de6" stop-opacity="0"/><stop offset="0" stop-color="#438de6" stop-opacity="0"/><stop offset=".23" stop-color="#438de6" stop-opacity=".6"/><stop offset=".56" stop-color="#438de6" stop-opacity=".8"/><stop offset=".99" stop-color="#438de6"/><stop offset="1" stop-color="#438de6"/></linearGradient><linearGradient id="o" x1="147.103" x2="156.314" y1="25.521" y2="65.216" gradientUnits="userSpaceOnUse"><stop offset="0" stop-color="#438de6" stop-opacity="0"/><stop offset="0" stop-color="#438de6" stop-opacity="0"/><stop offset=".18" stop-color="#438de6" stop-opacity=".6"/><stop offset=".4" stop-color="#438de6" stop-opacity=".8"/><stop offset=".99" stop-color="#438de6"/><stop offset="1" stop-color="#438de6"/></linearGradient><linearGradient id="p" x1="118.976" x2="158.669" y1="11.541" y2="-8.305" gradientUnits="userSpaceOnUse"><stop offset="0" stop-color="#438de6" stop-opacity="0"/><stop offset="0" stop-color="#438de6" stop-opacity="0"/><stop offset=".54" stop-color="#438de6" stop-opacity=".6"/><stop offset=".99" stop-color="#438de6" stop-opacity=".8"/><stop offset="1" stop-color="#438de6" stop-opacity=".8"/></linearGradient><linearGradient id="q" x1="3.903" x2="7.17" y1="113.555" y2="146.263" gradientUnits="userSpaceOnUse"><stop offset="0" stop-color="#438de6" stop-opacity="0"/><stop offset="0" stop-color="#438de6" stop-opacity="0"/><stop offset=".31" stop-color="#438de6" stop-opacity=".4"/><stop offset=".99" stop-color="#438de6" stop-opacity=".6"/><stop offset="1" stop-color="#438de6" stop-opacity=".6"/></linearGradient><linearGradient id="r" x1="-18.556" x2="135.015" y1="155.105" y2="-2.809" gradientTransform="translate(39.933 51.251)scale(.24294)" gradientUnits="userSpaceOnUse"><stop offset="0" stop-color="#438de6" stop-opacity=".8"/><stop offset="0" stop-color="#438de6" stop-opacity=".8"/><stop offset=".07" stop-color="#438de6" stop-opacity="0"/><stop offset=".17" stop-color="#438de6" stop-opacity="0"/><stop offset=".27" stop-color="#438de6" stop-opacity=".6"/><stop offset=".33" stop-color="#438de6"/><stop offset=".46" stop-color="#438de6" stop-opacity=".8"/><stop offset=".72" stop-color="#438de6" stop-opacity=".8"/><stop offset=".99" stop-color="#438de6" stop-opacity=".4"/><stop offset="1" stop-color="#438de6" stop-opacity=".4"/></linearGradient><linearGradient id="s" x1="99.075" x2="52.818" y1="171.033" y2="159.617" gradientTransform="translate(39.933 51.251)scale(.24294)" gradientUnits="userSpaceOnUse"><stop offset="0" stop-color="#438de6"/><stop offset="0" stop-color="#438de6"/><stop offset=".54" stop-color="#438de6" stop-opacity=".8"/><stop offset=".99" stop-color="#438de6" stop-opacity=".6"/><stop offset="1" stop-color="#438de6" stop-opacity=".6"/></linearGradient><linearGradient id="t" x1="178.526" x2="137.433" y1="115.515" y2="78.684" gradientTransform="translate(39.933 51.251)scale(.24294)" gradientUnits="userSpaceOnUse"><stop offset="0" stop-color="#438de6"/><stop offset="0" stop-color="#438de6"/><stop offset=".99" stop-color="#438de6" stop-opacity=".8"/><stop offset="1" stop-color="#438de6" stop-opacity=".8"/></linearGradient><linearGradient id="u" x1="193.624" x2="173.154" y1="47.937" y2="26.054" gradientTransform="translate(39.933 51.251)scale(.24294)" gradientUnits="userSpaceOnUse"><stop offset="0" stop-color="#438de6"/><stop offset="0" stop-color="#438de6"/><stop offset=".99" stop-color="#438de6" stop-opacity=".8"/><stop offset="1" stop-color="#438de6" stop-opacity=".8"/></linearGradient><linearGradient id="x" x1="26.67" x2="9.989" y1="197.336" y2="140.742" gradientTransform="translate(39.933 51.251)scale(.24294)" gradientUnits="userSpaceOnUse"><stop offset="0" stop-color="#438de6"/><stop offset="0" stop-color="#438de6"/><stop offset=".43" stop-color="#438de6" stop-opacity=".8"/><stop offset=".99" stop-color="#438de6" stop-opacity=".6"/><stop offset="1" stop-color="#438de6" stop-opacity=".6"/></linearGradient><linearGradient id="y" x1="154.641" x2="192.039" y1="9.798" y2="26.306" gradientTransform="translate(39.933 51.251)scale(.24294)" gradientUnits="userSpaceOnUse"><stop offset="0" stop-color="#438de6" stop-opacity=".6"/><stop offset="0" stop-color="#438de6" stop-opacity=".6"/><stop offset=".44" stop-color="#438de6" stop-opacity=".8"/><stop offset=".99" stop-color="#438de6"/><stop offset="1" stop-color="#438de6"/></linearGradient><radialGradient id="v" cx="143.832" cy="79.388" r="50.358" gradientTransform="translate(39.933 51.251)scale(.24294)" gradientUnits="userSpaceOnUse"><stop offset="0" stop-color="#438de6" stop-opacity=".8"/><stop offset="0" stop-color="#438de6" stop-opacity=".8"/><stop offset=".99" stop-color="#438de6"/><stop offset="1" stop-color="#438de6"/></radialGradient><radialGradient id="w" cx="74.092" cy="145.751" r="66.944" gradientTransform="translate(39.933 51.251)scale(.24294)" gradientUnits="userSpaceOnUse"><stop offset="0" stop-color="#438de6" stop-opacity=".8"/><stop offset="0" stop-color="#438de6" stop-opacity=".8"/><stop offset=".99" stop-color="#438de6"/><stop offset="1" stop-color="#438de6"/></radialGradient><filter id="d" width="1.024" height="1.024" x="-.012" y="-.012" color-interpolation-filters="sRGB"><feGaussianBlur stdDeviation="2.08"/></filter><filter id="g" width="1.217" height="1.269" x="-.108" y="-.134" color-interpolation-filters="sRGB"><feGaussianBlur stdDeviation="18.8"/></filter><clipPath id="f" clipPathUnits="userSpaceOnUse"><path fill="#c9b8a7" stroke-width="26.067" d="M192-164H88s-40 0-40 40V4h416v-96s0-40-40-40H224Z" enable-background="new" style="marker:none"/></clipPath></defs><g fill="#c9b8a7"><path fill="#000" d="M88-162s-40 0-40 40L47.965 6h.033l-.033 248.094L424 254c40 0 40-40 40-40V-90s0-40-40-40H224l-32-32z" enable-background="new" filter="url(#d)" opacity=".2" style="marker:none" transform="translate(-.293 52.435)scale(.25116)"/><path fill="url(#e)" d="M208 672H104s-40 0-40 40v128h416v-96s0-40-40-40H240Z" enable-background="new" style="marker:none" transform="translate(-4.312 -157.536)scale(.25116)"/><path fill="#000" d="m256-80-32 32H88S48-48 48-8v264h376c40 0 40-40 40-40V-40c0-40-40-40-40-40z" clip-path="url(#f)" enable-background="new" filter="url(#g)" opacity=".1" style="marker:none" transform="translate(-.293 52.435)scale(.25116)"/><path fill="url(#h)" d="m256-84-32 32H88s-40 0-40 40v264h376c40 0 40-40 40-40V-44c0-40-40-40-40-40z" enable-background="new" style="marker:none" transform="translate(-.293 52.435)scale(.25116)"/><path fill="#99c1f1" d="M480 1042s0 40-40 40l-375.998.094-.004 6L440 1088c40 0 40-40 40-40z" enable-background="new" style="font-variation-settings:normal;marker:none" transform="translate(-4.312 -157.536)scale(.25116)"/><path fill="#fff" d="m272 752-32 32H104s-40 0-40 40v4c0-40 40-42 40-42h136.591l32-32H440c5.38 0 40 2 40 42v-4c0-40-40-40-40-40z" enable-background="new" opacity=".3" style="marker:none" transform="translate(-4.312 -157.536)scale(.25116)"/></g><path fill="url(#j)" fill-rule="evenodd" d="m198.13 39.95-44.63 90.46-113.12 67.17 146.469-9.939z" clip-rule="evenodd" transform="translate(39.933 51.251)scale(.24294)"/><path fill="url(#k)" fill-rule="evenodd" d="M187.089 187.54 174.5 100.65l-34.291 45.28z" clip-rule="evenodd" transform="translate(39.933 51.251)scale(.24294)"/><path fill="url(#l)" fill-rule="evenodd" d="M187.259 187.54 95.03 180.3l-54.16 17.091z" clip-rule="evenodd" transform="translate(39.933 51.251)scale(.24294)"/><path fill="url(#m)" fill-rule="evenodd" d="m41 197.41 23.04-75.48-50.7 10.841z" clip-rule="evenodd" transform="translate(39.933 51.251)scale(.24294)"/><path fill="url(#n)" fill-rule="evenodd" d="M140.2 146.18 119 63.14l-60.67 56.87z" clip-rule="evenodd" transform="translate(39.933 51.251)scale(.24294)"/><path fill="url(#o)" fill-rule="evenodd" d="m193.32 64.31-57.35-46.84L120 69.1z" clip-rule="evenodd" transform="translate(39.933 51.251)scale(.24294)"/><path fill="url(#p)" fill-rule="evenodd" d="m166.5.77-33.73 18.64L111.49.52z" clip-rule="evenodd" transform="translate(39.933 51.251)scale(.24294)"/><path fill="url(#q)" fill-rule="evenodd" d="m0 158.09 14.13-25.77-11.43-30.7z" clip-rule="evenodd" transform="translate(39.933 51.251)scale(.24294)"/><path fill="#438de6" fill-rule="evenodd" d="m40.404 75.703 2.794 7.925 12.14-2.724 13.86-12.88L73.109 55.6l-6.159-4.35-10.47 3.92c-3.3 3.068-9.7 9.14-9.932 9.253-.228.117-4.227 7.675-6.144 11.28" clip-rule="evenodd"/><path fill="url(#r)" fill-rule="evenodd" d="M50.214 61.467c7.15-7.09 16.367-11.277 19.904-7.709 3.535 3.57-.213 12.242-7.363 19.329s-16.253 11.505-19.787 7.937c-3.538-3.567.097-12.47 7.246-19.557" clip-rule="evenodd"/><path fill="url(#s)" fill-rule="evenodd" d="m49.894 99.203 5.553-18.396 18.444 5.926c-6.668 6.253-14.085 11.54-23.997 12.47" clip-rule="evenodd"/><path fill="url(#t)" fill-rule="evenodd" d="m69.222 67.987 4.735 18.755c5.57-5.857 10.57-12.154 13.019-19.943Z" clip-rule="evenodd"/><path fill="url(#u)" fill-rule="evenodd" d="M86.927 66.894c1.895-5.719 2.333-13.923-6.603-15.446l-7.332 4.05z" clip-rule="evenodd"/><path fill="#438de6" fill-rule="evenodd" d="M39.933 89.575c.263 9.438 7.072 9.58 9.973 9.662l-6.7-15.648Z" clip-rule="evenodd"/><path fill="url(#v)" fill-rule="evenodd" d="M69.248 68.017c4.281 2.63 12.908 7.914 13.083 8.012.272.153 3.72-5.814 4.502-9.186z" clip-rule="evenodd"/><path fill="url(#w)" fill-rule="evenodd" d="m55.44 80.807 7.424 14.324c4.39-2.38 7.828-5.282 10.976-8.389z" clip-rule="evenodd"/><path fill="url(#x)" fill-rule="evenodd" d="m43.176 83.608-1.051 12.526c1.984 2.712 4.715 2.947 7.58 2.736-2.073-5.158-6.213-15.47-6.529-15.262" clip-rule="evenodd"/><path fill="url(#y)" fill-rule="evenodd" d="m72.949 55.53 14.749 2.07c-.788-3.336-3.205-5.489-7.325-6.162z" clip-rule="evenodd"/></svg>