<svg xmlns="http://www.w3.org/2000/svg" xmlns:xlink="http://www.w3.org/1999/xlink" xml:space="preserve" viewBox="0 0 128 128"><defs><linearGradient id="a"><stop offset="0" stop-color="#3584e4"/><stop offset="1" stop-color="#62a0ea"/></linearGradient><linearGradient id="b"><stop offset="0" stop-color="#99c1f1"/><stop offset="1" stop-color="#c3e5e7"/></linearGradient><linearGradient xlink:href="#a" id="d" x1="64" x2="480" y1="756" y2="756" gradientUnits="userSpaceOnUse"/><linearGradient xlink:href="#b" id="g" x1="152.898" x2="447.309" y1="-38.797" y2="316" gradientUnits="userSpaceOnUse"/><filter id="c" width="1.024" height="1.024" x="-.012" y="-.012" color-interpolation-filters="sRGB"><feGaussianBlur stdDeviation="2.08"/></filter><filter id="f" width="1.217" height="1.269" x="-.108" y="-.134" color-interpolation-filters="sRGB"><feGaussianBlur stdDeviation="18.8"/></filter><clipPath id="e" clipPathUnits="userSpaceOnUse"><path fill="#c9b8a7" stroke-width="26.067" d="M192-164H88s-40 0-40 40V4h416v-96s0-40-40-40H224Z" enable-background="new" style="marker:none"/></clipPath></defs><g fill="#c9b8a7"><path fill="#000" d="M88-162s-40 0-40 40L47.965 6h.033l-.033 248.094L424 254c40 0 40-40 40-40V-90s0-40-40-40H224l-32-32z" enable-background="new" filter="url(#c)" opacity=".2" style="marker:none" transform="translate(-.293 52.435)scale(.25116)"/><path fill="url(#d)" d="M208 672H104s-40 0-40 40v128h416v-96s0-40-40-40H240Z" enable-background="new" style="marker:none" transform="translate(-4.312 -157.536)scale(.25116)"/><path fill="#000" d="m256-80-32 32H88S48-48 48-8v264h376c40 0 40-40 40-40V-40c0-40-40-40-40-40z" clip-path="url(#e)" enable-background="new" filter="url(#f)" opacity=".1" style="marker:none" transform="translate(-.293 52.435)scale(.25116)"/><path fill="url(#g)" d="m256-84-32 32H88s-40 0-40 40v264h376c40 0 40-40 40-40V-44c0-40-40-40-40-40z" enable-background="new" style="marker:none" transform="translate(-.293 52.435)scale(.25116)"/><path fill="#99c1f1" d="M480 1042s0 40-40 40l-375.998.094-.004 6L440 1088c40 0 40-40 40-40z" enable-background="new" style="font-variation-settings:normal;marker:none" transform="translate(-4.312 -157.536)scale(.25116)"/><path fill="#fff" d="m272 752-32 32H104s-40 0-40 40v4c0-40 40-42 40-42h136.591l32-32H440c5.38 0 40 2 40 42v-4c0-40-40-40-40-40z" enable-background="new" opacity=".3" style="marker:none" transform="translate(-4.312 -157.536)scale(.25116)"/></g><path fill="#438de6" d="m41.2 92.39 2.37 4.093a5.6 5.6 0 0 0 2.03 2.03l8.462-14.646H37.138c0 .954.247 1.908.739 2.77z"/><path fill="#438de6" d="M64 66.637 55.538 51.99a5.6 5.6 0 0 0-2.03 2.031L37.877 81.098a5.6 5.6 0 0 0-.739 2.77h16.924z" opacity=".6"/><path fill="#438de6" d="M82.4 98.513a5.6 5.6 0 0 0 2.03-2.03l.985-1.693 4.708-8.153a5.6 5.6 0 0 0 .739-2.77H73.937l3.601 7.077z" opacity=".9"/><path fill="#438de6" d="m64 66.637 8.462-14.647a5.4 5.4 0 0 0-2.77-.738H58.308a5.7 5.7 0 0 0-2.77.738zm9.938 17.23H54.062L45.6 98.513a5.4 5.4 0 0 0 2.77.739h31.26a5.7 5.7 0 0 0 2.77-.739z" opacity=".8"/><path fill="#438de6" d="m82.308 67.56-7.816-13.54a5.6 5.6 0 0 0-2.03-2.03L64 66.636l9.938 17.23h16.893c0-.954-.246-1.907-.739-2.769z" opacity=".7"/></svg>