<svg xmlns="http://www.w3.org/2000/svg" xmlns:xlink="http://www.w3.org/1999/xlink" viewBox="0 0 128 128"><defs><linearGradient id="a"><stop offset="0" stop-color="#3584e4"/><stop offset="1" stop-color="#62a0ea"/></linearGradient><linearGradient id="b"><stop offset="0" stop-color="#99c1f1"/><stop offset="1" stop-color="#c3e5e7"/></linearGradient><linearGradient xlink:href="#a" id="d" x1="64" x2="480" y1="756" y2="756" gradientUnits="userSpaceOnUse"/><linearGradient xlink:href="#b" id="g" x1="152.898" x2="447.309" y1="-38.797" y2="316" gradientUnits="userSpaceOnUse"/><filter id="c" width="1.024" height="1.024" x="-.012" y="-.012" color-interpolation-filters="sRGB"><feGaussianBlur stdDeviation="2.08"/></filter><filter id="f" width="1.217" height="1.269" x="-.108" y="-.134" color-interpolation-filters="sRGB"><feGaussianBlur stdDeviation="18.8"/></filter><clipPath id="e" clipPathUnits="userSpaceOnUse"><path fill="#c9b8a7" stroke-width="26.067" d="M192-164H88s-40 0-40 40V4h416v-96s0-40-40-40H224Z" enable-background="new" style="marker:none"/></clipPath></defs><g fill="#c9b8a7"><path fill="#000" d="M88-162s-40 0-40 40L47.965 6h.033l-.033 248.094L424 254c40 0 40-40 40-40V-90s0-40-40-40H224l-32-32z" enable-background="new" filter="url(#c)" opacity=".2" style="marker:none" transform="translate(-.293 52.435)scale(.25116)"/><path fill="url(#d)" d="M208 672H104s-40 0-40 40v128h416v-96s0-40-40-40H240Z" enable-background="new" style="marker:none" transform="translate(-4.312 -157.536)scale(.25116)"/><path fill="#000" d="m256-80-32 32H88S48-48 48-8v264h376c40 0 40-40 40-40V-40c0-40-40-40-40-40z" clip-path="url(#e)" enable-background="new" filter="url(#f)" opacity=".1" style="marker:none" transform="translate(-.293 52.435)scale(.25116)"/><path fill="url(#g)" d="m256-84-32 32H88s-40 0-40 40v264h376c40 0 40-40 40-40V-44c0-40-40-40-40-40z" enable-background="new" style="marker:none" transform="translate(-.293 52.435)scale(.25116)"/><path fill="#99c1f1" d="M480 1042s0 40-40 40l-375.998.094-.004 6L440 1088c40 0 40-40 40-40z" enable-background="new" style="font-variation-settings:normal;marker:none" transform="translate(-4.312 -157.536)scale(.25116)"/><path fill="#fff" d="m272 752-32 32H104s-40 0-40 40v4c0-40 40-42 40-42h136.591l32-32H440c5.38 0 40 2 40 42v-4c0-40-40-40-40-40z" enable-background="new" opacity=".3" style="marker:none" transform="translate(-4.312 -157.536)scale(.25116)"/></g><path fill="#438de6" d="M53.855 51.252a2.802 2.802 0 0 0-.014 5.605l1.368 5.147c-5.325 1.768-11.104 5.633-11.104 14.09.119 12.22 16.167 23.148 19.872 23.156l.004.002c3.698 0 19.874-11.17 19.914-23.158 0-8.588-5.71-12.445-11.014-14.175l1.397-5.035a2.802 2.802 0 1 0-1.694-.39l-1.372 4.942c-3.92-.997-7.23-.921-7.23-.921s-3.328-.018-7.26 1.036l-1.364-5.133a2.803 2.803 0 0 0-1.503-5.166m-1.597 16.812q.441-.018.866.05C61.367 69.79 62.7 81.52 59.545 86.56c-2.21 2.77-14.322-7.029-12.263-14.026.714-2.886 2.921-4.384 4.976-4.47m24.016 0c2.054.087 4.262 1.585 4.975 4.47 2.059 6.998-10.053 16.797-12.263 14.027-3.155-5.04-1.82-16.77 6.421-18.447q.425-.068.867-.05m-2.34 7.701a2.553 2.553 0 0 0-2.553 2.553 2.553 2.553 0 0 0 2.553 2.552 2.553 2.553 0 0 0 2.552-2.553 2.553 2.553 0 0 0-2.553-2.552m-19.5.079a2.553 2.553 0 0 0-2.553 2.552 2.553 2.553 0 0 0 2.553 2.553 2.553 2.553 0 0 0 2.553-2.553 2.553 2.553 0 0 0-2.553-2.552m20.263.986a.645.645 0 0 1 0 1.29.645.645 0 0 1 0-1.29m-21.026.08a.645.645 0 0 1 0 1.289.645.645 0 0 1 0-1.29"/></svg>