<svg xmlns="http://www.w3.org/2000/svg" xmlns:xlink="http://www.w3.org/1999/xlink" viewBox="0 0 128 128"><defs><linearGradient id="a"><stop offset="0" stop-color="#3584e4"/><stop offset="1" stop-color="#62a0ea"/></linearGradient><linearGradient id="b"><stop offset="0" stop-color="#99c1f1"/><stop offset="1" stop-color="#c3e5e7"/></linearGradient><linearGradient xlink:href="#a" id="d" x1="64" x2="480" y1="756" y2="756" gradientUnits="userSpaceOnUse"/><linearGradient xlink:href="#b" id="g" x1="152.898" x2="447.309" y1="-38.797" y2="316" gradientUnits="userSpaceOnUse"/><filter id="c" width="1.024" height="1.024" x="-.012" y="-.012" color-interpolation-filters="sRGB"><feGaussianBlur stdDeviation="2.08"/></filter><filter id="f" width="1.217" height="1.269" x="-.108" y="-.134" color-interpolation-filters="sRGB"><feGaussianBlur stdDeviation="18.8"/></filter><clipPath id="e" clipPathUnits="userSpaceOnUse"><path fill="#c9b8a7" stroke-width="26.067" d="M192-164H88s-40 0-40 40V4h416v-96s0-40-40-40H224Z" enable-background="new" style="marker:none"/></clipPath></defs><g fill="#c9b8a7"><path fill="#000" d="M88-162s-40 0-40 40L47.965 6h.033l-.033 248.094L424 254c40 0 40-40 40-40V-90s0-40-40-40H224l-32-32z" enable-background="new" filter="url(#c)" opacity=".2" style="marker:none" transform="translate(-.293 52.435)scale(.25116)"/><path fill="url(#d)" d="M208 672H104s-40 0-40 40v128h416v-96s0-40-40-40H240Z" enable-background="new" style="marker:none" transform="translate(-4.312 -157.536)scale(.25116)"/><path fill="#000" d="m256-80-32 32H88S48-48 48-8v264h376c40 0 40-40 40-40V-40c0-40-40-40-40-40z" clip-path="url(#e)" enable-background="new" filter="url(#f)" opacity=".1" style="marker:none" transform="translate(-.293 52.435)scale(.25116)"/><path fill="url(#g)" d="m256-84-32 32H88s-40 0-40 40v264h376c40 0 40-40 40-40V-44c0-40-40-40-40-40z" enable-background="new" style="marker:none" transform="translate(-.293 52.435)scale(.25116)"/><path fill="#99c1f1" d="M480 1042s0 40-40 40l-375.998.094-.004 6L440 1088c40 0 40-40 40-40z" enable-background="new" style="font-variation-settings:normal;marker:none" transform="translate(-4.312 -157.536)scale(.25116)"/><path fill="#fff" d="m272 752-32 32H104s-40 0-40 40v4c0-40 40-42 40-42h136.591l32-32H440c5.38 0 40 2 40 42v-4c0-40-40-40-40-40z" enable-background="new" opacity=".3" style="marker:none" transform="translate(-4.312 -157.536)scale(.25116)"/></g><path fill="#438de6" d="M63.717 51.252c-1.957.009-3.827.176-5.472.467-4.846.856-5.725 2.648-5.725 5.952v4.365h11.45v1.454H48.223c-3.328 0-6.242 2-7.154 5.806-1.051 4.362-1.098 7.084 0 11.638.814 3.39 2.758 5.806 6.086 5.806h3.938v-5.232c0-3.78 3.27-7.114 7.153-7.114h11.438c3.184 0 5.726-2.621 5.726-5.819V57.671c0-3.103-2.618-5.434-5.726-5.952a36 36 0 0 0-5.966-.467m-6.192 3.51c1.182 0 2.148.982 2.148 2.189 0 1.202-.966 2.175-2.148 2.175-1.188 0-2.15-.973-2.15-2.175 0-1.207.962-2.19 2.15-2.19"/><path fill="#438de6" d="M76.837 63.49v5.085c0 3.943-3.342 7.26-7.154 7.26H58.245c-3.133 0-5.725 2.682-5.725 5.82v10.904c0 3.103 2.698 4.929 5.725 5.82 3.625 1.065 7.101 1.258 11.438 0 2.883-.836 5.726-2.515 5.726-5.82v-4.364H63.97V86.74h17.163c3.329 0 4.569-2.321 5.726-5.806 1.196-3.587 1.145-7.036 0-11.638-.822-3.313-2.393-5.806-5.725-5.806zm-6.433 27.614c1.187 0 2.149.973 2.149 2.176 0 1.207-.962 2.189-2.15 2.189-1.182 0-2.148-.982-2.148-2.19 0-1.202.966-2.175 2.149-2.175"/></svg>