<svg xmlns="http://www.w3.org/2000/svg" xmlns:xlink="http://www.w3.org/1999/xlink" viewBox="0 0 128 128"><defs><linearGradient id="a"><stop offset="0" stop-color="#3584e4"/><stop offset="1" stop-color="#62a0ea"/></linearGradient><linearGradient id="b"><stop offset="0" stop-color="#99c1f1"/><stop offset="1" stop-color="#c3e5e7"/></linearGradient><linearGradient xlink:href="#a" id="d" x1="64" x2="480" y1="756" y2="756" gradientUnits="userSpaceOnUse"/><linearGradient xlink:href="#b" id="g" x1="152.898" x2="447.309" y1="-38.797" y2="316" gradientUnits="userSpaceOnUse"/><filter id="c" width="1.024" height="1.024" x="-.012" y="-.012" color-interpolation-filters="sRGB"><feGaussianBlur stdDeviation="2.08"/></filter><filter id="f" width="1.217" height="1.269" x="-.108" y="-.134" color-interpolation-filters="sRGB"><feGaussianBlur stdDeviation="18.8"/></filter><clipPath id="e" clipPathUnits="userSpaceOnUse"><path fill="#c9b8a7" stroke-width="26.067" d="M192-164H88s-40 0-40 40V4h416v-96s0-40-40-40H224Z" enable-background="new" style="marker:none"/></clipPath></defs><g fill="#c9b8a7"><path fill="#000" d="M88-162s-40 0-40 40L47.965 6h.033l-.033 248.094L424 254c40 0 40-40 40-40V-90s0-40-40-40H224l-32-32z" enable-background="new" filter="url(#c)" opacity=".2" style="marker:none" transform="translate(-.293 52.435)scale(.25116)"/><path fill="url(#d)" d="M208 672H104s-40 0-40 40v128h416v-96s0-40-40-40H240Z" enable-background="new" style="marker:none" transform="translate(-4.312 -157.536)scale(.25116)"/><path fill="#000" d="m256-80-32 32H88S48-48 48-8v264h376c40 0 40-40 40-40V-40c0-40-40-40-40-40z" clip-path="url(#e)" enable-background="new" filter="url(#f)" opacity=".1" style="marker:none" transform="translate(-.293 52.435)scale(.25116)"/><path fill="url(#g)" d="m256-84-32 32H88s-40 0-40 40v264h376c40 0 40-40 40-40V-44c0-40-40-40-40-40z" enable-background="new" style="marker:none" transform="translate(-.293 52.435)scale(.25116)"/><path fill="#99c1f1" d="M480 1042s0 40-40 40l-375.998.094-.004 6L440 1088c40 0 40-40 40-40z" enable-background="new" style="font-variation-settings:normal;marker:none" transform="translate(-4.312 -157.536)scale(.25116)"/><path fill="#fff" d="m272 752-32 32H104s-40 0-40 40v4c0-40 40-42 40-42h136.591l32-32H440c5.38 0 40 2 40 42v-4c0-40-40-40-40-40z" enable-background="new" opacity=".3" style="marker:none" transform="translate(-4.312 -157.536)scale(.25116)"/></g><path fill="#3f8ae5" d="M50.22 59.948v7.139h-7.14v5.355h7.139v7.139h5.355v-7.139h7.139v-5.355h-7.139v-7.14zm-3.698-6.396a8.4 8.4 0 0 0-6.053 2.518 8.48 8.48 0 0 0-2.47 6.047l.013 26.377v.007c.035 3.412 2.541 5.83 5.316 6.45 2.776.618 6.074-.49 7.596-3.543l3.358-6.736H73.95l3.358 6.736c1.513 3.036 4.754 4.16 7.487 3.535 2.732-.625 5.164-3.046 5.207-6.435v-.014l-.069-26.39c0-4.712-3.839-8.552-8.55-8.552zm-.027 3.126h34.888c3.04 0 5.425 2.384 5.425 5.425l.068 26.364c-.025 1.988-1.262 3.086-2.777 3.432s-3.104-.1-3.993-1.883l-4.23-8.47H52.357l-4.231 8.47c-.88 1.765-2.53 2.237-4.116 1.883-1.585-.353-2.853-1.46-2.873-3.426l-.013-26.376v-.007a5.32 5.32 0 0 1 1.562-3.822l.007-.007v-.007a5.25 5.25 0 0 1 3.801-1.576zm37.71 18.756a3.5 3.5 0 0 1-3.5 3.5 3.5 3.5 0 0 1-3.5-3.5 3.5 3.5 0 0 1 3.5-3.5 3.5 3.5 0 0 1 3.5 3.5m-7.493-11.098a3.5 3.5 0 0 1-3.5 3.5 3.5 3.5 0 0 1-3.5-3.5 3.5 3.5 0 0 1 3.5-3.5 3.5 3.5 0 0 1 3.5 3.5" paint-order="stroke fill markers"/></svg>