<svg xmlns="http://www.w3.org/2000/svg" xmlns:xlink="http://www.w3.org/1999/xlink" viewBox="0 0 128 128"><defs><linearGradient id="a"><stop offset="0" stop-color="#3584e4"/><stop offset="1" stop-color="#62a0ea"/></linearGradient><linearGradient id="b"><stop offset="0" stop-color="#99c1f1"/><stop offset="1" stop-color="#c3e5e7"/></linearGradient><linearGradient xlink:href="#a" id="d" x1="64" x2="480" y1="756" y2="756" gradientUnits="userSpaceOnUse"/><linearGradient xlink:href="#b" id="g" x1="152.898" x2="447.309" y1="-38.797" y2="316" gradientUnits="userSpaceOnUse"/><filter id="c" width="1.024" height="1.024" x="-.012" y="-.012" color-interpolation-filters="sRGB"><feGaussianBlur stdDeviation="2.08"/></filter><filter id="f" width="1.217" height="1.269" x="-.108" y="-.134" color-interpolation-filters="sRGB"><feGaussianBlur stdDeviation="18.8"/></filter><clipPath id="e" clipPathUnits="userSpaceOnUse"><path fill="#c9b8a7" stroke-width="26.067" d="M192-164H88s-40 0-40 40V4h416v-96s0-40-40-40H224Z" enable-background="new" style="marker:none"/></clipPath></defs><g fill="#c9b8a7"><path fill="#000" d="M88-162s-40 0-40 40L47.965 6h.033l-.033 248.094L424 254c40 0 40-40 40-40V-90s0-40-40-40H224l-32-32z" enable-background="new" filter="url(#c)" opacity=".2" style="marker:none" transform="translate(-.293 52.435)scale(.25116)"/><path fill="url(#d)" d="M208 672H104s-40 0-40 40v128h416v-96s0-40-40-40H240Z" enable-background="new" style="marker:none" transform="translate(-4.312 -157.536)scale(.25116)"/><path fill="#000" d="m256-80-32 32H88S48-48 48-8v264h376c40 0 40-40 40-40V-40c0-40-40-40-40-40z" clip-path="url(#e)" enable-background="new" filter="url(#f)" opacity=".1" style="marker:none" transform="translate(-.293 52.435)scale(.25116)"/><path fill="url(#g)" d="m256-84-32 32H88s-40 0-40 40v264h376c40 0 40-40 40-40V-44c0-40-40-40-40-40z" enable-background="new" style="marker:none" transform="translate(-.293 52.435)scale(.25116)"/><path fill="#99c1f1" d="M480 1042s0 40-40 40l-375.998.094-.004 6L440 1088c40 0 40-40 40-40z" enable-background="new" style="font-variation-settings:normal;marker:none" transform="translate(-4.312 -157.536)scale(.25116)"/><path fill="#fff" d="m272 752-32 32H104s-40 0-40 40v4c0-40 40-42 40-42h136.591l32-32H440c5.38 0 40 2 40 42v-4c0-40-40-40-40-40z" enable-background="new" opacity=".3" style="marker:none" transform="translate(-4.312 -157.536)scale(.25116)"/></g><g fill="#3f8ae5" fill-rule="evenodd" class="st0" clip-rule="evenodd" color="#000"><path d="M231.767 85.045c-.558 0-.997-.558-.997-1.195 0-.678.439-1.196.997-1.196h4.941c.558 0 .997.558.997 1.196 0 .677-.439 1.195-.997 1.195zm1.474 11.996a1.2 1.2 0 0 1 1.196 1.196c0 .677-.558 1.195-1.196 1.195h-15.144a2.84 2.84 0 0 1-1.993-.837 2.77 2.77 0 0 1-.837-1.992V55.116c0-.797.32-1.475.837-1.993a2.77 2.77 0 0 1 1.993-.837h34.553c.757 0 1.475.319 1.993.837s.837 1.196.837 1.993v19.249c0 .677-.558 1.195-1.196 1.195a1.2 1.2 0 0 1-1.196-1.195v-19.25a.36.36 0 0 0-.12-.278.36.36 0 0 0-.278-.12h-34.593c-.12 0-.2.04-.28.12-.08.04-.119.16-.119.279v41.567c0 .12.04.2.12.279s.159.12.279.12h15.144zm-1.474-33.078c-.558 0-.997-.558-.997-1.196 0-.677.439-1.195.997-1.195h13.829c.558 0 .996.558.996 1.195 0 .678-.438 1.196-.996 1.196zm-.315 10.162c-.558 0-.997-.558-.997-1.195 0-.678.439-1.196.997-1.196h13.829c.558 0 .996.558.996 1.196 0 .677-.438 1.195-.996 1.195z" style="-inkscape-stroke:none" transform="translate(-162.757 4.23)scale(.95536)"/><path d="M78.456 53.678a4 4 0 0 0-.688.035H45.605c-2.027-.057-3.473 1.989-3.172 3.898.01 13.079-.023 26.158.017 39.236.152 1.963 2.18 3.115 4.003 2.844 4.644-.02 9.293.043 13.935-.031 2.158-.396 1.272-3.723-.781-3.189-2.666.092-5.5.012-8.23.038H45.69V56.974h32.874c.022 6.206-.043 12.416.033 18.62.404 2.168 3.735 1.256 3.19-.801-.011-6.077.022-12.157-.017-18.234-.132-1.717-1.702-2.815-3.314-2.88m-32.85.971h33.009c1.94-.022 2.42 2.02 2.235 3.568v17.058c-.742 1.68-1.72-.319-1.349-1.331v-17.06c-.229-1.28-1.748-.73-2.664-.849H45.603c-1.275.253-.734 1.74-.85 2.665v37.897c.23 1.28 1.75.73 2.666.848H60.11c1.62.779-.403 1.651-1.37 1.31-4.524-.031-9.055.058-13.573-.049-1.768-.311-1.899-2.202-1.797-3.638V56.885c-.03-1.188 1.048-2.265 2.235-2.236m4.323 7.633c-.23 0-.38.153-.38.383v3.501c0 .23.152.381.38.381h4.076c.228 0 .38-.153.38-.381v-3.502c0-.23-.153-.38-.38-.38zm21.811.255q-.165.004-.347.048H58.663c-2.08.049-1.703 3.641.363 3.22 4.382-.022 8.767.048 13.146-.033 1.775-.455 1.237-3.28-.433-3.235m-13.076.986h13.213c1.334.919-.373 1.671-1.333 1.347h-11.88c-.633-.082-.663-1.296 0-1.347m12.776 8.722q-.166.004-.348.049H58.362c-2.079.048-1.702 3.642.364 3.22 4.381-.023 8.767.047 13.146-.033 1.775-.456 1.237-3.28-.433-3.236m-18.182.198a.52.52 0 0 0-.359.12l-2.132 1.712-.648-.684c-.266-.267-.722-.23-1.065.037-.305.304-.38.724-.115.991l1.22 1.255.076.077c.267.267.608.305.875.114l2.665-2.207c.304-.23.343-.726.077-1.068a.76.76 0 0 0-.594-.347m5.105.788h13.213c1.335.919-.373 1.672-1.332 1.347H58.36c-.633-.081-.663-1.296 0-1.347m16.433 6.282c-.533 0-.99.456-.99.99v1.522c-.685.153-1.333.42-1.943.723l-1.179-1.179a.965.965 0 0 0-1.372 0l-1.446 1.447a.965.965 0 0 0 0 1.369l1.029 1.029a8.2 8.2 0 0 0-.838 1.865h-1.638c-.533 0-.99.458-.99.991v2.056c0 .533.457.989.99.989h1.524c.152.686.418 1.334.722 1.943l-1.178 1.179a.965.965 0 0 0 0 1.37l1.446 1.447a.965.965 0 0 0 1.371 0l1.065-1.065a8.2 8.2 0 0 0 1.867.838v1.676c0 .533.456.988.989.988h2.056c.533 0 .99-.455.99-.988V97.18c.687-.153 1.334-.42 1.943-.724l1.18 1.18a.965.965 0 0 0 1.37 0l1.447-1.447a.965.965 0 0 0 0-1.372l-1.065-1.065a8.2 8.2 0 0 0 .838-1.866h1.636c.533 0 .99-.456.99-.989v-2.056c0-.534-.458-.991-.99-.991h-1.523c-.153-.685-.42-1.331-.724-1.94l1.181-1.181a.965.965 0 0 0 0-1.37l-1.447-1.448c-.382-.38-1.028-.38-1.333 0l-1.065 1.066a8.2 8.2 0 0 0-1.866-.836v-1.639c0-.533-.459-.989-.99-.989zm-24.867 2.911c-.23 0-.38.152-.38.38v3.503c0 .23.152.381.38.381h4.076c.228 0 .38-.153.38-.381v-3.502c0-.229-.153-.38-.38-.38zm13.32.253q-.165.004-.346.05h-4.239c-2.08.048-1.703 3.641.363 3.22 1.553-.023 3.108.047 4.656-.034 1.775-.455 1.237-3.28-.433-3.236m-2.136.98a31 31 0 0 1 2.44.056c1.055 1.247-.73 1.465-1.62 1.297-1.143-.035-2.307.068-3.44-.05-.455-.269-.437-1.24.17-1.297.814.017 1.633 0 2.45-.005m14.404 1.908a4.04 4.04 0 0 1 4.037 4.036 4.04 4.04 0 0 1-4.037 4.036 4.04 4.04 0 0 1-4.035-4.036 4.04 4.04 0 0 1 4.035-4.036"/></g></svg>