<svg xmlns="http://www.w3.org/2000/svg" xmlns:xlink="http://www.w3.org/1999/xlink" viewBox="0 0 128 128"><defs><linearGradient xlink:href="#a" id="b" x1="2689.252" x2="2918.07" y1="-1106.803" y2="-1106.803" gradientUnits="userSpaceOnUse"/><linearGradient id="a"><stop offset="0" stop-color="#62a0ea"/><stop offset=".058" stop-color="#afd4ff"/><stop offset=".122" stop-color="#62a0ea"/><stop offset=".873" stop-color="#62a0ea"/><stop offset=".956" stop-color="#c0d5ea"/><stop offset="1" stop-color="#62a0ea"/></linearGradient></defs><g stroke-width="1.264"><path fill="#438de6" d="M21.978 11.986a9.956 9.979 0 0 0-9.978 10v86.033a9.956 9.979 0 0 0 9.978 10h84.044a9.956 9.979 0 0 0 9.978-10V35.931a11.973 12 0 0 0-11.974-12H58a6.49 6.505 0 0 1-5.799-3.58l-1.503-2.993A9.74 9.762 0 0 0 42 11.986z"/><path fill="url(#b)" d="M2808.014-1273.645a21.9 21.9 0 0 0-15.465 6.343c-5.003 4.955-11.848 11.22-18.993 11.22h-62.35a21.906 21.906 0 0 0-21.954 21.952v118.618a21.906 21.906 0 0 0 21.954 21.953h184.91a21.906 21.906 0 0 0 21.954-21.953v-136.18a21.906 21.906 0 0 0-21.955-21.953z" transform="matrix(.45451 0 0 .45552 -1210.292 616.157)"/><path fill="#a4caee" d="M65.978 31.986a9.954 9.976 0 0 0-7.029 2.89c-2.273 2.257-5.385 5.11-8.632 5.11H21.978a9.956 9.979 0 0 0-9.978 10v55.978a9.956 9.979 0 0 0 9.978 10h84.044a9.956 9.979 0 0 0 9.978-10V41.986a9.956 9.979 0 0 0-9.979-10z"/></g><path fill="#438de6" d="m61.517 61.822-20.405 11.04 20.504 12.913 18.298-11.139h.653v9.057c-.012.099-.025.21-.025.32s.012.222.025.333v2.883c.086 2.194 1.392 3.82 2.526 4.905a12.3 12.3 0 0 0 2.255 1.688l1.54-2.76s-.801-.444-1.627-1.22c-.8-.764-1.454-1.738-1.527-2.662a3.17 3.17 0 0 0 3.142-3.167c-.013-1.75-1.417-3.166-3.155-3.166v-9.365H79.57zm.099 9.561c1.737 0 3.154.703 3.154 1.578s-1.417 1.577-3.154 1.577c-1.738 0-3.155-.702-3.155-1.577s1.417-1.578 3.155-1.578m-12.52 10.794c-.036.284-.098.567-.098.863 0 5.754 5.644 10.424 12.618 10.424s12.617-4.67 12.617-10.424c0-.222-.086-.431-.098-.653l-12.52 7.923zm0 0"/></svg>