<svg xmlns="http://www.w3.org/2000/svg" xmlns:xlink="http://www.w3.org/1999/xlink" viewBox="0 0 128 128"><defs><linearGradient id="a"><stop offset="0" stop-color="#3584e4"/><stop offset="1" stop-color="#62a0ea"/></linearGradient><linearGradient id="b"><stop offset="0" stop-color="#99c1f1"/><stop offset="1" stop-color="#c3e5e7"/></linearGradient><linearGradient xlink:href="#a" id="d" x1="64" x2="480" y1="756" y2="756" gradientUnits="userSpaceOnUse"/><linearGradient xlink:href="#b" id="g" x1="152.898" x2="447.309" y1="-38.797" y2="316" gradientUnits="userSpaceOnUse"/><filter id="c" width="1.024" height="1.024" x="-.012" y="-.012" color-interpolation-filters="sRGB"><feGaussianBlur stdDeviation="2.08"/></filter><filter id="f" width="1.217" height="1.269" x="-.108" y="-.134" color-interpolation-filters="sRGB"><feGaussianBlur stdDeviation="18.8"/></filter><clipPath id="e" clipPathUnits="userSpaceOnUse"><path fill="#c9b8a7" stroke-width="26.067" d="M192-164H88s-40 0-40 40V4h416v-96s0-40-40-40H224Z" enable-background="new" style="marker:none"/></clipPath></defs><g fill="#c9b8a7"><path fill="#000" d="M88-162s-40 0-40 40L47.965 6h.033l-.033 248.094L424 254c40 0 40-40 40-40V-90s0-40-40-40H224l-32-32z" enable-background="new" filter="url(#c)" opacity=".2" style="marker:none" transform="translate(-.293 52.435)scale(.25116)"/><path fill="url(#d)" d="M208 672H104s-40 0-40 40v128h416v-96s0-40-40-40H240Z" enable-background="new" style="marker:none" transform="translate(-4.312 -157.536)scale(.25116)"/><path fill="#000" d="m256-80-32 32H88S48-48 48-8v264h376c40 0 40-40 40-40V-40c0-40-40-40-40-40z" clip-path="url(#e)" enable-background="new" filter="url(#f)" opacity=".1" style="marker:none" transform="translate(-.293 52.435)scale(.25116)"/><path fill="url(#g)" d="m256-84-32 32H88s-40 0-40 40v264h376c40 0 40-40 40-40V-44c0-40-40-40-40-40z" enable-background="new" style="marker:none" transform="translate(-.293 52.435)scale(.25116)"/><path fill="#99c1f1" d="M480 1042s0 40-40 40l-375.998.094-.004 6L440 1088c40 0 40-40 40-40z" enable-background="new" style="font-variation-settings:normal;marker:none" transform="translate(-4.312 -157.536)scale(.25116)"/><path fill="#fff" d="m272 752-32 32H104s-40 0-40 40v4c0-40 40-42 40-42h136.591l32-32H440c5.38 0 40 2 40 42v-4c0-40-40-40-40-40z" enable-background="new" opacity=".3" style="marker:none" transform="translate(-4.312 -157.536)scale(.25116)"/></g><path fill="#438de6" d="M63.684 51.012c-13.137 0-23.684 10.874-23.684 24 0 13.253 10.746 24 24 24s24-10.747 24-24-10.746-24-24-24zm-5.907 7.382a1.86 1.86 0 0 1 1.57 1.172 1.25 1.25 0 0 1-1.16 1.313c-.68 0-1.23.55-1.23 1.23v3.55a2.396 2.396 0 0 1-2.39 2.403 2.403 2.403 0 0 0-2.403 2.39 2.393 2.393 0 0 1-2.39 2.392 2.386 2.386 0 0 0-2.391 2.39 2.386 2.386 0 0 0 2.39 2.39 2.38 2.38 0 0 1 2.391 2.403v8.567a17.96 17.96 0 0 1-6.047-13.43c0-4.477 1.688-8.79 4.7-12.082l.164-.153a17 17 0 0 1 2.285-2.05l.117-.094a17.8 17.8 0 0 1 4.406-2.39zm13.594 1.301h1.781a18 18 0 0 1 3.914 3.106q-.157.035-.316.035h-5.379a1.56 1.56 0 0 1-1.558-1.57c0-.88.69-1.57 1.558-1.57m-6.152 2.613c.96 0 1.734.774 1.734 1.746v1.899a1.74 1.74 0 0 1-1.734 1.746 1.75 1.75 0 0 1-1.746-1.746v-1.899c0-.972.785-1.746 1.746-1.746m6.867 2.016h6.258c2.285 3 3.562 6.656 3.644 10.43a2.1 2.1 0 0 1-1.324.504l-3.387-.024c-2.015 0-3.644 1.64-3.656 3.656v4.043a2.376 2.376 0 0 1-2.379 2.391 2.38 2.38 0 0 1-2.402-2.39V80.32c.27-.937-.27-1.91-1.195-2.191a2.176 2.176 0 0 1-2.18-2.18v-3.715a2.554 2.554 0 0 1 2.355-2.754 2.143 2.143 0 0 0 2.145-2.133v-.902c0-1.172.95-2.121 2.121-2.133zm0 0"/></svg>