<svg xmlns="http://www.w3.org/2000/svg" xmlns:xlink="http://www.w3.org/1999/xlink" viewBox="0 0 128 128"><defs><linearGradient xlink:href="#a" id="b" x1="2689.252" x2="2918.07" y1="-1106.803" y2="-1106.803" gradientUnits="userSpaceOnUse"/><linearGradient id="a"><stop offset="0" stop-color="#62a0ea"/><stop offset=".058" stop-color="#afd4ff"/><stop offset=".122" stop-color="#62a0ea"/><stop offset=".873" stop-color="#62a0ea"/><stop offset=".956" stop-color="#c0d5ea"/><stop offset="1" stop-color="#62a0ea"/></linearGradient></defs><g stroke-width="1.264"><path fill="#438de6" d="M21.978 11.986a9.956 9.979 0 0 0-9.978 10v86.033a9.956 9.979 0 0 0 9.978 10h84.044a9.956 9.979 0 0 0 9.978-10V35.931a11.973 12 0 0 0-11.974-12H58a6.49 6.505 0 0 1-5.799-3.58l-1.503-2.993A9.74 9.762 0 0 0 42 11.986z"/><path fill="url(#b)" d="M2808.014-1273.645a21.9 21.9 0 0 0-15.465 6.343c-5.003 4.955-11.848 11.22-18.993 11.22h-62.35a21.906 21.906 0 0 0-21.954 21.952v118.618a21.906 21.906 0 0 0 21.954 21.953h184.91a21.906 21.906 0 0 0 21.954-21.953v-136.18a21.906 21.906 0 0 0-21.955-21.953z" transform="matrix(.45451 0 0 .45552 -1210.292 616.157)"/><path fill="#a4caee" d="M65.978 31.986a9.954 9.976 0 0 0-7.029 2.89c-2.273 2.257-5.385 5.11-8.632 5.11H21.978a9.956 9.979 0 0 0-9.978 10v55.978a9.956 9.979 0 0 0 9.978 10h84.044a9.956 9.979 0 0 0 9.978-10V41.986a9.956 9.979 0 0 0-9.979-10z"/></g><path fill="#438de6" d="M75.292 91.984c-3.257-.071-6.227-1.002-8.733-3.15-2.111-1.825-3.436-4.151-3.865-6.908-.645-4.044.465-7.623 2.899-10.808 2.612-3.437 5.762-5.226 10.022-5.978 3.65-.644 7.086-.286 10.2 1.826 2.827 1.932 4.581 4.545 5.047 7.982.608 4.831-.788 8.768-4.116 12.133-2.363 2.398-5.261 3.9-8.59 4.581-.967.18-1.933.215-2.864.322m8.519-14.46c-.036-.465-.036-.823-.108-1.18-.644-3.544-3.9-5.549-7.301-4.761-3.329.751-5.476 2.863-6.264 6.228-.644 2.791.716 5.619 3.293 6.764 1.968.86 3.937.752 5.834-.215 2.828-1.467 4.367-3.758 4.546-6.836m-20.366-5.333c-2.255.573-3.794 1.002-6.013 1.575-.537.143-.572.18-1.038-.358-.537-.608-.93-1.002-1.682-1.36-2.255-1.11-4.438-.788-6.479.537-2.433 1.575-3.686 3.901-3.65 6.8.035 2.864 2.004 5.226 4.832 5.62 2.433.322 4.474-.537 6.085-2.363.322-.393.608-.823.966-1.324h-6.908c-.752 0-.93-.465-.68-1.074.465-1.11 1.324-2.97 1.825-3.9.108-.215.358-.573.895-.573h13.028c-.071.966-.071 1.932-.214 2.899-.394 2.577-1.36 4.939-2.935 7.015-2.578 3.4-5.942 5.512-10.201 6.085-3.508.465-6.765-.215-9.628-2.363-2.649-2.004-4.152-4.653-4.546-7.946-.465-3.9.68-7.408 3.043-10.487 2.541-3.329 5.906-5.44 10.021-6.192 3.365-.608 6.586-.214 9.485 1.754 1.897 1.253 3.257 2.97 4.152 5.047.215.322.072.5-.358.608" class="st0"/></svg>