<svg xmlns="http://www.w3.org/2000/svg" xmlns:xlink="http://www.w3.org/1999/xlink" viewBox="0 0 128 128"><defs><linearGradient id="a"><stop offset="0" stop-color="#3584e4"/><stop offset="1" stop-color="#62a0ea"/></linearGradient><linearGradient id="b"><stop offset="0" stop-color="#99c1f1"/><stop offset="1" stop-color="#c3e5e7"/></linearGradient><linearGradient xlink:href="#a" id="d" x1="64" x2="480" y1="756" y2="756" gradientTransform="translate(-4.312 -157.536)scale(.25116)" gradientUnits="userSpaceOnUse"/><linearGradient xlink:href="#b" id="h" x1="152.898" x2="447.309" y1="-38.797" y2="316" gradientTransform="translate(-.293 52.435)scale(.25116)" gradientUnits="userSpaceOnUse"/><filter id="c" width="1.024" height="1.024" x="-.012" y="-.012" color-interpolation-filters="sRGB"><feGaussianBlur stdDeviation="2.08"/></filter><filter id="f" width="1.217" height="1.269" x="-.108" y="-.134" color-interpolation-filters="sRGB"><feGaussianBlur stdDeviation="18.8"/></filter><clipPath id="e" clipPathUnits="userSpaceOnUse"><path fill="#c9b8a7" stroke-width="26.067" d="M192-164H88s-40 0-40 40V4h416v-96s0-40-40-40H224Z" enable-background="new" style="marker:none"/></clipPath></defs><path d="M88-162s-40 0-40 40L47.965 6h.033l-.033 248.094L424 254c40 0 40-40 40-40V-90s0-40-40-40H224l-32-32z" enable-background="new" filter="url(#c)" opacity=".2" style="marker:none" transform="translate(-.293 52.435)scale(.25116)"/><path fill="url(#d)" d="M47.93 11.244H21.81s-10.047 0-10.047 10.047v32.148h104.483V29.328s0-10.047-10.046-10.047H55.967Z" enable-background="new" style="marker:none"/><path d="m256-80-32 32H88S48-48 48-8v264h376c40 0 40-40 40-40V-40c0-40-40-40-40-40z" clip-path="url(#e)" enable-background="new" filter="url(#f)" opacity=".1" style="marker:none" transform="translate(-.293 52.435)scale(.25116)"/><path fill="url(#h)" d="m64.004 31.337-8.037 8.037H21.81s-10.046 0-10.046 10.047v66.306H106.2c10.046 0 10.046-10.046 10.046-10.046V41.384c0-10.047-10.046-10.047-10.046-10.047z" enable-background="new" style="marker:none"/><path fill="#99c1f1" d="M116.246 104.174s0 10.047-10.046 10.047l-94.437.023v1.507l94.437-.024c10.046 0 10.046-10.046 10.046-10.046z" enable-background="new" style="font-variation-settings:normal;marker:none"/><path fill="#fff" d="m64.004 31.337-8.037 8.037H21.81s-10.046 0-10.046 10.047v1.005c0-10.047 10.046-10.55 10.046-10.55h34.307l8.037-8.036H106.2c1.35 0 10.046.502 10.046 10.548v-1.004c0-10.047-10.046-10.047-10.046-10.047z" enable-background="new" opacity=".3" style="marker:none"/><g fill="#438de6"><path d="M83.566 68.346v3.404h3.404v-3.404h1.702v3.404h3.404v1.702h-3.404v3.403h3.404v1.702h-3.404v3.404H86.97v-3.404h-3.404v3.404h-1.702v-3.404H78.46v-1.702h3.404v-3.403H78.46v-1.703h3.404v-3.403zm3.404 5.105h-3.404v3.404h3.404z"/><path d="M65.014 51.251c8.878 0 16.63 4.822 20.782 11.989l-.04-.07-10.447 6.015c-2.058-3.484-5.83-5.836-10.159-5.884l-.136-.001c-6.6 0-11.951 5.35-11.951 11.95a11.9 11.9 0 0 0 1.576 5.93c2.06 3.596 5.933 6.022 10.375 6.022 4.47 0 8.364-2.457 10.414-6.092l-.05.088 10.43 6.042c-4.106 7.106-11.751 11.913-20.527 12.009l-.267.002c-8.907 0-16.68-4.852-20.821-12.057a23.9 23.9 0 0 1-3.18-11.943c0-13.255 10.746-24 24-24z"/></g></svg>