<svg xmlns="http://www.w3.org/2000/svg" xmlns:xlink="http://www.w3.org/1999/xlink" viewBox="0 0 128 128"><defs><linearGradient id="a"><stop offset="0" stop-color="#3584e4"/><stop offset="1" stop-color="#62a0ea"/></linearGradient><linearGradient id="b"><stop offset="0" stop-color="#99c1f1"/><stop offset="1" stop-color="#c3e5e7"/></linearGradient><linearGradient xlink:href="#a" id="d" x1="64" x2="480" y1="756" y2="756" gradientUnits="userSpaceOnUse"/><linearGradient xlink:href="#b" id="g" x1="152.898" x2="447.309" y1="-38.797" y2="316" gradientUnits="userSpaceOnUse"/><filter id="c" width="1.024" height="1.024" x="-.012" y="-.012" color-interpolation-filters="sRGB"><feGaussianBlur stdDeviation="2.08"/></filter><filter id="f" width="1.217" height="1.269" x="-.108" y="-.134" color-interpolation-filters="sRGB"><feGaussianBlur stdDeviation="18.8"/></filter><clipPath id="e" clipPathUnits="userSpaceOnUse"><path fill="#c9b8a7" stroke-width="26.067" d="M192-164H88s-40 0-40 40V4h416v-96s0-40-40-40H224Z" enable-background="new" style="marker:none"/></clipPath></defs><g fill="#c9b8a7"><path fill="#000" d="M88-162s-40 0-40 40L47.965 6h.033l-.033 248.094L424 254c40 0 40-40 40-40V-90s0-40-40-40H224l-32-32z" enable-background="new" filter="url(#c)" opacity=".2" style="marker:none" transform="translate(-.293 52.435)scale(.25116)"/><path fill="url(#d)" d="M208 672H104s-40 0-40 40v128h416v-96s0-40-40-40H240Z" enable-background="new" style="marker:none" transform="translate(-4.312 -157.536)scale(.25116)"/><path fill="#000" d="m256-80-32 32H88S48-48 48-8v264h376c40 0 40-40 40-40V-40c0-40-40-40-40-40z" clip-path="url(#e)" enable-background="new" filter="url(#f)" opacity=".1" style="marker:none" transform="translate(-.293 52.435)scale(.25116)"/><path fill="url(#g)" d="m256-84-32 32H88s-40 0-40 40v264h376c40 0 40-40 40-40V-44c0-40-40-40-40-40z" enable-background="new" style="marker:none" transform="translate(-.293 52.435)scale(.25116)"/><path fill="#99c1f1" d="M480 1042s0 40-40 40l-375.998.094-.004 6L440 1088c40 0 40-40 40-40z" enable-background="new" style="font-variation-settings:normal;marker:none" transform="translate(-4.312 -157.536)scale(.25116)"/><path fill="#fff" d="m272 752-32 32H104s-40 0-40 40v4c0-40 40-42 40-42h136.591l32-32H440c5.38 0 40 2 40 42v-4c0-40-40-40-40-40z" enable-background="new" opacity=".3" style="marker:none" transform="translate(-4.312 -157.536)scale(.25116)"/></g><path fill="#438de6" d="M64 51.012c-13.248 0-24 10.757-24 24s10.752 24 24 24 24-10.758 24-24-10.752-24-24-24m-.717 2.86q1.572-.045 3.162.148c4.797.579 8.883 2.552 12.309 5.937 3.145 3.11 5.088 6.85 5.876 11.226a20.5 20.5 0 0 1 .292 4.855c-.2 3.35-1.141 6.471-2.846 9.366l-.005.007-.001.003h-.002c.008-.014.003-.008-.006 0-6.034.014-12.063.056-18.093-.004-2.835-.03-4.856-1.962-5.28-4.53-.488-2.951 1.54-5.734 4.54-6.172 1.23-.177 2.332.058 3.431.655.986.54 2.241.23 2.776-.734.524-.946.148-2.132-.799-2.698l-.001-.001c-4.64-2.769-10.943-.756-13.134 4.18-2.047 4.622-.27 9.83 4.198 12.203h.001a8.54 8.54 0 0 0 4.023 1.017h.001c5.13-.004 10.26 0 15.391 0-.039.042-.086.098-.125.139l-.004.003-.001.001c-.692.733-1.466 1.066-2.467 1.063H63.945c-2.397 0-4.502-.723-6.39-2.18-2.379-1.836-3.742-4.222-4.071-7.2v-.002c-.523-4.684 2.078-9.006 6.3-10.845 1.572-.685 3.211-.945 4.932-.856h.001c.421.02.877.105 1.357.195l.001.001c1.11.205 2.215-.467 2.442-1.56v-.002c.218-1.04-.5-2.076-1.59-2.302a14.3 14.3 0 0 0-4.074-.254h-.002c-2.595.204-5.002 1.02-7.132 2.526-3.329 2.346-5.432 5.586-6.078 9.632-1.243 7.825 3.957 15.174 11.733 16.57.87.157 1.76.235 2.634.244h.001c2.37.02 4.736.01 7.104.006-1.156.438-2.34.786-3.574.964-1.28.186-2.56.337-3.794.306h-.001c-4.334-.1-8.004-1.672-11.048-4.776-2.276-2.322-3.715-5.07-4.233-8.264-.844-5.232.526-9.743 4.158-13.616q3.442-3.667 8.406-4.572v.001c.906-.165 1.852-.24 2.81-.29h.002c.565-.033 1.089-.21 1.485-.558s.633-.874.63-1.436c-.007-1.118-.994-2.013-2.181-1.982-2.138.048-4.267.345-6.308 1.105-6.147 2.288-10.324 6.623-12.356 12.865-.767 2.349-.987 4.776-.79 7.198.025.306.115.577.16.876-.62-1.592-1.11-3.224-1.3-4.944-.648-5.86.791-11.083 4.475-15.689v-.001c3.243-4.027 7.416-6.487 12.5-7.477a19.4 19.4 0 0 1 3.129-.347" color="#000" style="-inkscape-stroke:none"/></svg>