<svg xmlns="http://www.w3.org/2000/svg" xmlns:xlink="http://www.w3.org/1999/xlink" viewBox="0 0 128 128"><defs><linearGradient id="a"><stop offset="0" stop-color="#3584e4"/><stop offset="1" stop-color="#62a0ea"/></linearGradient><linearGradient id="b"><stop offset="0" stop-color="#99c1f1"/><stop offset="1" stop-color="#c3e5e7"/></linearGradient><linearGradient xlink:href="#a" id="d" x1="64" x2="480" y1="756" y2="756" gradientUnits="userSpaceOnUse"/><linearGradient xlink:href="#b" id="g" x1="152.898" x2="447.309" y1="-38.797" y2="316" gradientUnits="userSpaceOnUse"/><filter id="c" width="1.024" height="1.024" x="-.012" y="-.012" color-interpolation-filters="sRGB"><feGaussianBlur stdDeviation="2.08"/></filter><filter id="f" width="1.217" height="1.269" x="-.108" y="-.134" color-interpolation-filters="sRGB"><feGaussianBlur stdDeviation="18.8"/></filter><clipPath id="e" clipPathUnits="userSpaceOnUse"><path fill="#c9b8a7" stroke-width="26.067" d="M192-164H88s-40 0-40 40V4h416v-96s0-40-40-40H224Z" enable-background="new" style="marker:none"/></clipPath></defs><g fill="#c9b8a7"><path fill="#000" d="M88-162s-40 0-40 40L47.965 6h.033l-.033 248.094L424 254c40 0 40-40 40-40V-90s0-40-40-40H224l-32-32z" enable-background="new" filter="url(#c)" opacity=".2" style="marker:none" transform="translate(-.293 52.435)scale(.25116)"/><path fill="url(#d)" d="M208 672H104s-40 0-40 40v128h416v-96s0-40-40-40H240Z" enable-background="new" style="marker:none" transform="translate(-4.312 -157.536)scale(.25116)"/><path fill="#000" d="m256-80-32 32H88S48-48 48-8v264h376c40 0 40-40 40-40V-40c0-40-40-40-40-40z" clip-path="url(#e)" enable-background="new" filter="url(#f)" opacity=".1" style="marker:none" transform="translate(-.293 52.435)scale(.25116)"/><path fill="url(#g)" d="m256-84-32 32H88s-40 0-40 40v264h376c40 0 40-40 40-40V-44c0-40-40-40-40-40z" enable-background="new" style="marker:none" transform="translate(-.293 52.435)scale(.25116)"/><path fill="#99c1f1" d="M480 1042s0 40-40 40l-375.998.094-.004 6L440 1088c40 0 40-40 40-40z" enable-background="new" style="font-variation-settings:normal;marker:none" transform="translate(-4.312 -157.536)scale(.25116)"/><path fill="#fff" d="m272 752-32 32H104s-40 0-40 40v4c0-40 40-42 40-42h136.591l32-32H440c5.38 0 40 2 40 42v-4c0-40-40-40-40-40z" enable-background="new" opacity=".3" style="marker:none" transform="translate(-4.312 -157.536)scale(.25116)"/></g><path fill="#438de6" fill-rule="evenodd" d="M78.358 54.273a.3.3 0 0 0-.082.014 37 37 0 0 1-2.128.635.26.26 0 0 0-.19.248v3.368a.257.257 0 0 0 .258.256c.082 0 .162-.04.21-.111l.889-1.28a.4.4 0 0 1 .259-.16h.027a.4.4 0 0 1 .269.079l1.358 1.078a.26.26 0 0 0 .16.056.26.26 0 0 0 .256-.257v-3.177c0-.097.035-.19.102-.26a.255.255 0 0 0 .032-.302.254.254 0 0 0-.278-.122q-.18.04-.386.041a2.7 2.7 0 0 1-.69-.097.2.2 0 0 0-.066-.009m-2.142 5.901a.257.257 0 0 0-.257.257v1.407c0 .114.075.212.183.245 1.398.423 2.426.997 3.053 1.705a.26.26 0 0 0 .283.07.255.255 0 0 0 .165-.24v-3.235a.257.257 0 0 0-.256-.256l-.045.005a3 3 0 0 1-.57.042zm6.874-3.217a.257.257 0 0 0-.256.256v11.61c0 .141.115.256.256.256h3.035c.14 0 .256-.115.256-.256v-11.61a.257.257 0 0 0-.256-.256zM73.2 73.383a.384.384 0 0 1-.384-.384v-6.36a.257.257 0 0 0-.256-.256.26.26 0 0 0-.208.106 19 19 0 0 1-3.036 3.266.386.386 0 0 1-.532-.032l-.274-.295a.386.386 0 0 1-.031-.483c1.49-2.11 2.738-5.114 3.512-8.457a.257.257 0 0 0-.25-.314h-2.698a.384.384 0 0 1-.373-.29l-.114-.457a.382.382 0 0 1 .374-.476h3.63c.14 0 .256-.116.256-.257v-2.692a.26.26 0 0 0-.092-.197.26.26 0 0 0-.212-.055 54 54 0 0 1-3.47.52h-.007c-.21 0-.355-.108-.405-.268l-.093-.297a.38.38 0 0 1 .244-.475c2.713-.926 6.23-2.657 8.006-3.941a.384.384 0 0 1 .467.011l2.74 2.19a.383.383 0 0 1 .03.571 1 1 0 0 1-.13.108.256.256 0 0 0 .141.469q.076.002.146.032l2.413 1.042 3.62.02a.26.26 0 0 0 .207-.102l.812-1.09a.383.383 0 0 1 .535-.08l2.65 1.94a.383.383 0 0 1 .093.522q-.21.313-.753.524a.25.25 0 0 0-.165.238v13.764c0 .493-1.209 1.045-2.827 1.045a.384.384 0 0 1-.385-.383v-1.55a.257.257 0 0 0-.256-.257H83.09a.257.257 0 0 0-.256.256v1.026c0 .283-.476 1.342-2.806 1.342a.385.385 0 0 1-.385-.384V66.92a.256.256 0 0 0-.41-.203c-.259.196-.567.3-.894.3-.42 0-.83-.188-1.186-.546a.4.4 0 0 1-.109-.218c-.069-.492-.277-1.076-.602-1.688a.255.255 0 0 0-.289-.13.26.26 0 0 0-.194.249v7.63c-.075.553-1.163 1.068-2.325 1.068zm-2.824 15.836-1.148-3.507-8 8.814 11.628 3.69-.679-3.244c11.47-5.78 12.668-10.841 14.247-15.93l-6.195-1.095c-1.461 6.179-5.32 9.333-9.853 11.272M56.461 60.01l1.148 3.507 8-8.814-11.627-3.69.679 3.244c-11.471 5.78-12.668 10.841-14.247 15.929l6.194 1.096c1.462-6.179 5.32-9.333 9.853-11.273m-4.89 34.842h-8.13l-1.46 4.16h-4.557l7.714-20.63h4.943l7.505 20.63H53zm-1.222-3.537-2.829-8.066-2.83 8.066z"/></svg>