<svg xmlns="http://www.w3.org/2000/svg" xmlns:xlink="http://www.w3.org/1999/xlink" viewBox="0 0 128 128"><defs><linearGradient id="a"><stop offset="0" stop-color="#3584e4"/><stop offset="1" stop-color="#62a0ea"/></linearGradient><linearGradient id="b"><stop offset="0" stop-color="#99c1f1"/><stop offset="1" stop-color="#c3e5e7"/></linearGradient><linearGradient xlink:href="#a" id="d" x1="64" x2="480" y1="756" y2="756" gradientUnits="userSpaceOnUse"/><linearGradient xlink:href="#b" id="g" x1="152.898" x2="447.309" y1="-38.797" y2="316" gradientUnits="userSpaceOnUse"/><filter id="c" width="1.024" height="1.024" x="-.012" y="-.012" color-interpolation-filters="sRGB"><feGaussianBlur stdDeviation="2.08"/></filter><filter id="f" width="1.217" height="1.269" x="-.108" y="-.134" color-interpolation-filters="sRGB"><feGaussianBlur stdDeviation="18.8"/></filter><clipPath id="e" clipPathUnits="userSpaceOnUse"><path fill="#c9b8a7" stroke-width="26.067" d="M192-164H88s-40 0-40 40V4h416v-96s0-40-40-40H224Z" enable-background="new" style="marker:none"/></clipPath></defs><g fill="#c9b8a7"><path fill="#000" d="M88-162s-40 0-40 40L47.965 6h.033l-.033 248.094L424 254c40 0 40-40 40-40V-90s0-40-40-40H224l-32-32z" enable-background="new" filter="url(#c)" opacity=".2" style="marker:none" transform="translate(-.293 52.435)scale(.25116)"/><path fill="url(#d)" d="M208 672H104s-40 0-40 40v128h416v-96s0-40-40-40H240Z" enable-background="new" style="marker:none" transform="translate(-4.312 -157.536)scale(.25116)"/><path fill="#000" d="m256-80-32 32H88S48-48 48-8v264h376c40 0 40-40 40-40V-40c0-40-40-40-40-40z" clip-path="url(#e)" enable-background="new" filter="url(#f)" opacity=".1" style="marker:none" transform="translate(-.293 52.435)scale(.25116)"/><path fill="url(#g)" d="m256-84-32 32H88s-40 0-40 40v264h376c40 0 40-40 40-40V-44c0-40-40-40-40-40z" enable-background="new" style="marker:none" transform="translate(-.293 52.435)scale(.25116)"/><path fill="#99c1f1" d="M480 1042s0 40-40 40l-375.998.094-.004 6L440 1088c40 0 40-40 40-40z" enable-background="new" style="font-variation-settings:normal;marker:none" transform="translate(-4.312 -157.536)scale(.25116)"/><path fill="#fff" d="m272 752-32 32H104s-40 0-40 40v4c0-40 40-42 40-42h136.591l32-32H440c5.38 0 40 2 40 42v-4c0-40-40-40-40-40z" enable-background="new" opacity=".3" style="marker:none" transform="translate(-4.312 -157.536)scale(.25116)"/></g><path fill="#438de6" d="M38.2 98.41c-.55-.84-3.185-6.762-3.606-8.106a5.5 5.5 0 0 1-.166-2.313c.171-1.145.242-1.226 1.415-1.626 1.949-.664 2.34-.578 2.625.58l.247 1 2.134.084c1.173.046 2.769.007 3.546-.088l1.413-.171-.16-1.246a209 209 0 0 0-.304-2.246l-.142-1h5.356c4.927 0 5.357-.037 5.35-.467-.005-.256-.123-2.026-.263-3.933-.14-1.906-.263-5.935-.273-8.952-.016-5.095-.055-5.518-.537-5.931-.384-.329-.52-.787-.52-1.751 0-1.282.018-1.31.934-1.482l.933-.175v-3.039c0-1.738-.114-3.109-.267-3.203-.146-.09-.266-.878-.266-1.75v-1.584h7.2v1.547c0 .85-.107 1.66-.237 1.8-.3.322-.677 5.72-.4 5.72.114 0 3.374-.309 7.245-.686s7.207-.621 7.415-.542c.544.21.524 2.981-.023 3.191-.314.12-.401.662-.404 2.495-.004 2.624-.707 11.448-.942 11.83-.28.452.723.253 4.246-.845 1.925-.6 4.34-1.327 5.366-1.616 1.027-.29 3.232-.94 4.9-1.443 1.67-.505 3.126-.917 3.239-.917.452 0 .495 1.38.12 3.888-.735 4.898-1.939 8.373-3.942 11.373-1.562 2.34-5.404 6.267-9.243 9.448l-3.327 2.757H38.594zm26.338-13.275c2.925-.73 3.523-.989 3.854-1.674.155-.32.459-3.463.676-6.983.366-5.945.362-6.457-.055-7.2-.697-1.241-1.986-1.777-4.032-1.676-1.867.093-2.925.631-3.447 1.755-.182.391-.285 3.456-.285 8.467 0 9.087-.387 8.228 3.289 7.311m23.761-6.822c.097-.384.103-.77.015-.859-.216-.216-.656.51-.66 1.09-.007.717.449.554.646-.23z"/></svg>