<svg xmlns="http://www.w3.org/2000/svg" xmlns:xlink="http://www.w3.org/1999/xlink" viewBox="0 0 128 128"><defs><linearGradient id="a"><stop offset="0" stop-color="#3584e4"/><stop offset="1" stop-color="#62a0ea"/></linearGradient><linearGradient id="b"><stop offset="0" stop-color="#99c1f1"/><stop offset="1" stop-color="#c3e5e7"/></linearGradient><linearGradient xlink:href="#a" id="d" x1="64" x2="480" y1="756" y2="756" gradientUnits="userSpaceOnUse"/><linearGradient xlink:href="#b" id="g" x1="152.898" x2="447.309" y1="-38.797" y2="316" gradientUnits="userSpaceOnUse"/><filter id="c" width="1.024" height="1.024" x="-.012" y="-.012" color-interpolation-filters="sRGB"><feGaussianBlur stdDeviation="2.08"/></filter><filter id="f" width="1.217" height="1.269" x="-.108" y="-.134" color-interpolation-filters="sRGB"><feGaussianBlur stdDeviation="18.8"/></filter><clipPath id="e" clipPathUnits="userSpaceOnUse"><path fill="#c9b8a7" stroke-width="26.067" d="M192-164H88s-40 0-40 40V4h416v-96s0-40-40-40H224Z" enable-background="new" style="marker:none"/></clipPath></defs><g fill="#c9b8a7"><path fill="#000" d="M88-162s-40 0-40 40L47.965 6h.033l-.033 248.094L424 254c40 0 40-40 40-40V-90s0-40-40-40H224l-32-32z" enable-background="new" filter="url(#c)" opacity=".2" style="marker:none" transform="translate(-.293 52.435)scale(.25116)"/><path fill="url(#d)" d="M208 672H104s-40 0-40 40v128h416v-96s0-40-40-40H240Z" enable-background="new" style="marker:none" transform="translate(-4.312 -157.536)scale(.25116)"/><path fill="#000" d="m256-80-32 32H88S48-48 48-8v264h376c40 0 40-40 40-40V-40c0-40-40-40-40-40z" clip-path="url(#e)" enable-background="new" filter="url(#f)" opacity=".1" style="marker:none" transform="translate(-.293 52.435)scale(.25116)"/><path fill="url(#g)" d="m256-84-32 32H88s-40 0-40 40v264h376c40 0 40-40 40-40V-44c0-40-40-40-40-40z" enable-background="new" style="marker:none" transform="translate(-.293 52.435)scale(.25116)"/><path fill="#99c1f1" d="M480 1042s0 40-40 40l-375.998.094-.004 6L440 1088c40 0 40-40 40-40z" enable-background="new" style="font-variation-settings:normal;marker:none" transform="translate(-4.312 -157.536)scale(.25116)"/><path fill="#fff" d="m272 752-32 32H104s-40 0-40 40v4c0-40 40-42 40-42h136.591l32-32H440c5.38 0 40 2 40 42v-4c0-40-40-40-40-40z" enable-background="new" opacity=".3" style="marker:none" transform="translate(-4.312 -157.536)scale(.25116)"/></g><path fill="#438de6" d="M46.824 64.88a1.37 1.37 0 0 0-1.398.943l-1.979 6.086a1.372 1.372 0 0 0 1.928 1.646l4.032-2.055a1.37 1.37 0 0 0 .6-1.844l-2.055-4.032a1.37 1.37 0 0 0-1.128-.745m-.091 3.327a1.4 1.4 0 0 1 .3.061 1.37 1.37 0 0 1 .882 1.728 1.37 1.37 0 0 1-1.729.88 1.37 1.37 0 0 1-.88-1.727 1.37 1.37 0 0 1 1.427-.942m7.843 18.589a1.4 1.4 0 0 0-.194.017l-4.47.708a1.372 1.372 0 0 0-.592 2.463l5.178 3.762a1.372 1.372 0 0 0 2.16-1.324l-.707-4.47a1.37 1.37 0 0 0-1.375-1.156m-1.384 1.85a1.37 1.37 0 0 1 .867.26 1.37 1.37 0 0 1 .303 1.916 1.37 1.37 0 0 1-1.915.304 1.37 1.37 0 0 1-.304-1.916 1.37 1.37 0 0 1 1.049-.564m20.232-1.85a1.37 1.37 0 0 0-1.373 1.157l-.708 4.47a1.372 1.372 0 0 0 2.16 1.323l5.177-3.762a1.372 1.372 0 0 0-.59-2.463l-4.47-.708a1.4 1.4 0 0 0-.196-.017m1.386 1.85a1.37 1.37 0 0 1 1.048.564 1.37 1.37 0 0 1-.303 1.916 1.37 1.37 0 0 1-1.916-.304 1.37 1.37 0 0 1 .303-1.916 1.37 1.37 0 0 1 .868-.26m6.368-23.767a1.37 1.37 0 0 0-1.128.745l-2.054 4.032a1.37 1.37 0 0 0 .599 1.844l4.032 2.055a1.372 1.372 0 0 0 1.927-1.646l-1.978-6.086a1.37 1.37 0 0 0-1.196-.943 1.4 1.4 0 0 0-.202 0m.09 3.328a1.37 1.37 0 0 1 1.428.942 1.37 1.37 0 0 1-.88 1.727 1.37 1.37 0 0 1-1.73-.88 1.37 1.37 0 0 1 .881-1.728 1.4 1.4 0 0 1 .3-.061M60.8 54.652a1.372 1.372 0 0 0-.97 2.34l3.2 3.2a1.37 1.37 0 0 0 1.94 0l3.199-3.2a1.372 1.372 0 0 0-.97-2.34zm3.2.914a1.37 1.37 0 0 1 1.37 1.371A1.37 1.37 0 0 1 64 58.309a1.37 1.37 0 0 1-1.372-1.372A1.37 1.37 0 0 1 64 55.566m0-2.029c-11.968 0-21.714 9.746-21.714 21.714S52.032 96.965 64 96.965s21.714-9.746 21.714-21.714S75.968 53.537 64 53.537m0 2.022a1.37 1.37 0 0 1 1.371 1.371 1.37 1.37 0 0 1-.253.756A17.57 17.57 0 0 1 80.346 68.7a1.37 1.37 0 0 1 .62-.438 1.37 1.37 0 0 1 1.73.88 1.37 1.37 0 0 1-.881 1.73 1.37 1.37 0 0 1-.76.01 17.7 17.7 0 0 1 .545 4.37c0 5.434-2.443 10.28-6.294 13.505a1.37 1.37 0 0 1 .552.447 1.37 1.37 0 0 1-.304 1.916 1.37 1.37 0 0 1-1.915-.304 1.4 1.4 0 0 1-.253-.66A17.55 17.55 0 0 1 64 92.85a17.55 17.55 0 0 1-9.39-2.7 1.4 1.4 0 0 1-.248.664 1.37 1.37 0 0 1-1.915.304 1.37 1.37 0 0 1-.304-1.916 1.37 1.37 0 0 1 .552-.447A17.55 17.55 0 0 1 46.4 75.251c0-1.504.189-2.963.541-4.356a1.37 1.37 0 0 1-.755-.025 1.37 1.37 0 0 1-.88-1.728 1.37 1.37 0 0 1 1.727-.88 1.37 1.37 0 0 1 .63.426 17.57 17.57 0 0 1 15.22-11.002 1.37 1.37 0 0 1-.254-.756A1.37 1.37 0 0 1 64 55.56m19.91 13.726a.69.69 0 0 0-.226.653l.535 2.69a.686.686 0 0 0 1.133.374l1.975-1.79a.686.686 0 0 0-.23-1.155l-2.51-.899a.69.69 0 0 0-.678.127m1.355 1.573.293.105-.23.209zm-.373 1.636 1.974-1.791-2.51-.9zm-2.53-6.979a.69.69 0 0 0-.093.685l1.05 2.534a.686.686 0 0 0 1.184.146l1.587-2.142a.686.686 0 0 0-.45-1.087l-2.637-.392a.69.69 0 0 0-.64.256M84 66.795l.308.045-.186.25zm-.048 1.676 1.587-2.142-2.636-.392zM80.11 62.12a.69.69 0 0 0 .042.69l1.524 2.28a.686.686 0 0 0 1.19-.088l1.139-2.41a.686.686 0 0 0-.654-.978l-2.662.13a.69.69 0 0 0-.579.376m1.856.935.31-.016-.133.282zm.28 1.654 1.139-2.41-2.663.13zm-5.007-5.48a.69.69 0 0 0 .176.668l1.939 1.94a.686.686 0 0 0 1.15-.318l.647-2.586a.686.686 0 0 0-.832-.833l-2.586.647a.69.69 0 0 0-.494.482m2.002.555.302-.076-.076.302zm.598 1.568.646-2.586-2.586.646zm-5.98-4.398a.69.69 0 0 0 .302.621l2.281 1.524a.686.686 0 0 0 1.066-.536l.13-2.663a.686.686 0 0 0-.979-.654l-2.41 1.139a.69.69 0 0 0-.39.57m2.072.154.28-.133-.014.31zm.892 1.42.13-2.661-2.41 1.138zM70.1 55.384a.69.69 0 0 0 .418.55l2.534 1.05a.686.686 0 0 0 .94-.735L73.6 53.61a.686.686 0 0 0-1.087-.45l-2.141 1.587a.69.69 0 0 0-.272.635m2.062-.254.25-.185.045.307zm1.152 1.22-.392-2.637L70.78 55.3zm-7.207-1.775a.69.69 0 0 0 .517.458l2.69.535a.686.686 0 0 0 .78-.903l-.9-2.51a.686.686 0 0 0-1.154-.23L66.25 53.9a.69.69 0 0 0-.143.675m1.972-.65.21-.231.104.293zm1.368.97-.899-2.509-1.79 1.975zm-7.415-.333a.69.69 0 0 0 .597.348h2.742a.686.686 0 0 0 .589-1.039l-1.372-2.285a.686.686 0 0 0-1.176 0L62.04 53.87a.69.69 0 0 0-.008.69m1.808-1.024.16-.267.16.267zm1.531.686L64 51.937l-1.371 2.286zm-7.338 1.12a.69.69 0 0 0 .653.224l2.69-.535a.686.686 0 0 0 .375-1.133l-1.791-1.974a.686.686 0 0 0-1.154.23l-.9 2.509a.69.69 0 0 0 .127.678m1.574-1.357.105-.293.209.23zm1.636.374-1.791-1.975-.9 2.51zm-6.979 2.529a.69.69 0 0 0 .684.093l2.534-1.05a.686.686 0 0 0 .147-1.184l-2.142-1.587a.686.686 0 0 0-1.087.45l-.393 2.637a.69.69 0 0 0 .257.64m1.279-1.638.045-.307.25.185zm1.677.048-2.142-1.587-.392 2.637zm-6.351 3.842a.69.69 0 0 0 .69-.042l2.28-1.524a.686.686 0 0 0-.088-1.19l-2.41-1.139a.686.686 0 0 0-.979.654l.13 2.663a.69.69 0 0 0 .377.578m.935-1.855-.016-.311.281.133zm1.654-.28-2.41-1.14.13 2.663zm-5.48 5.006a.69.69 0 0 0 .668-.175l1.94-1.94a.686.686 0 0 0-.319-1.15l-2.586-.647a.686.686 0 0 0-.832.833l.647 2.585a.69.69 0 0 0 .482.494m.555-2.002-.076-.302.302.076zm1.568-.598-2.586-.646.646 2.586zm-4.398 5.98a.69.69 0 0 0 .621-.302l1.524-2.28a.686.686 0 0 0-.537-1.067l-2.662-.13a.686.686 0 0 0-.654.98L45.134 65a.69.69 0 0 0 .57.39m.154-2.071-.133-.282.31.016zm1.42-.893-2.662-.13 1.139 2.41zm-3.146 6.723a.69.69 0 0 0 .55-.417l1.05-2.534a.686.686 0 0 0-.734-.941l-2.637.392a.686.686 0 0 0-.45 1.087l1.587 2.142a.69.69 0 0 0 .634.271m-.253-2.062-.186-.25.308-.045zm1.22-1.152-2.637.392 1.587 2.142zm-1.775 7.208a.69.69 0 0 0 .458-.517l.535-2.69a.686.686 0 0 0-.904-.78l-2.509.9a.686.686 0 0 0-.23 1.153L42.649 73a.69.69 0 0 0 .675.143m-.65-1.973-.231-.209.293-.105zm.97-1.368-2.509.899 1.974 1.79zm-.334 7.415a.69.69 0 0 0 .349-.596V73.88a.686.686 0 0 0-1.039-.589l-2.285 1.372a.686.686 0 0 0 0 1.177l2.285 1.371a.69.69 0 0 0 .69.008zm-1.023-1.808-.267-.16.267-.16zm.686-1.531-2.286 1.371 2.286 1.372zm1.119 7.338a.69.69 0 0 0 .225-.653l-.535-2.69a.686.686 0 0 0-1.133-.375l-1.975 1.791a.686.686 0 0 0 .23 1.154l2.51.9a.69.69 0 0 0 .678-.127m-1.356-1.574-.293-.105.23-.208zm.373-1.635-1.974 1.79 2.51.9zm2.53 6.978a.69.69 0 0 0 .093-.684l-1.05-2.534a.686.686 0 0 0-1.184-.146l-1.587 2.141a.686.686 0 0 0 .45 1.088l2.637.392a.69.69 0 0 0 .64-.257M44 83.708l-.308-.045.186-.25zm.048-1.677-1.587 2.142 2.636.392zm3.842 6.352a.69.69 0 0 0-.042-.69l-1.524-2.28a.686.686 0 0 0-1.19.087l-1.139 2.41a.686.686 0 0 0 .654.979l2.662-.13a.69.69 0 0 0 .579-.376m-1.856-.935-.31.015.133-.281zm-.28-1.654-1.139 2.41 2.663-.13zm5.007 5.48a.69.69 0 0 0-.176-.669l-1.939-1.94a.686.686 0 0 0-1.15.319l-.647 2.586a.686.686 0 0 0 .832.832l2.586-.646a.69.69 0 0 0 .494-.483m-2.002-.556-.302.076.076-.302zm-.598-1.567-.646 2.586 2.586-.647zm5.98 4.397a.69.69 0 0 0-.302-.62l-2.281-1.525a.686.686 0 0 0-1.066.537l-.13 2.662a.686.686 0 0 0 .979.654l2.41-1.138a.69.69 0 0 0 .39-.57m-2.072-.154-.28.134.015-.311zm-.892-1.42-.13 2.662 2.41-1.139zM57.9 95.12a.69.69 0 0 0-.418-.55l-2.534-1.05a.686.686 0 0 0-.94.735l.392 2.636a.686.686 0 0 0 1.087.45l2.142-1.586a.69.69 0 0 0 .271-.635m-2.062.253-.25.186-.045-.308zm-1.152-1.22.392 2.637 2.142-1.586zm7.207 1.775a.69.69 0 0 0-.517-.458l-2.69-.535a.686.686 0 0 0-.78.904l.9 2.51a.686.686 0 0 0 1.154.229l1.79-1.974a.69.69 0 0 0 .143-.676m-1.972.651-.21.23-.104-.292zm-1.368-.971.899 2.51 1.79-1.975zm7.415.334a.69.69 0 0 0-.597-.348H62.63a.686.686 0 0 0-.589 1.038l1.372 2.286a.686.686 0 0 0 1.176 0l1.372-2.286a.69.69 0 0 0 .008-.69m-1.808 1.023-.16.267-.16-.267zm-1.531-.686L64 98.565l1.371-2.286zm7.338-1.119a.69.69 0 0 0-.653-.225l-2.69.535a.686.686 0 0 0-.375 1.134l1.791 1.974a.686.686 0 0 0 1.154-.23l.9-2.51a.69.69 0 0 0-.127-.678m-1.574 1.357-.105.293-.209-.23zm-1.636-.374 1.791 1.974.9-2.51zm6.979-2.53a.69.69 0 0 0-.684-.093l-2.534 1.05a.686.686 0 0 0-.147 1.185l2.142 1.586a.686.686 0 0 0 1.087-.45l.393-2.636a.69.69 0 0 0-.257-.641m-1.279 1.638-.045.308-.25-.186zm-1.677-.047 2.142 1.586.392-2.636zm6.351-3.842a.69.69 0 0 0-.69.041l-2.28 1.524a.686.686 0 0 0 .088 1.19l2.41 1.14a.686.686 0 0 0 .979-.655l-.13-2.662a.69.69 0 0 0-.377-.578m-.935 1.855.016.31-.281-.133zm-1.654.28 2.41 1.139-.13-2.662zm5.48-5.007a.69.69 0 0 0-.668.176l-1.94 1.94a.686.686 0 0 0 .319 1.15l2.586.646a.686.686 0 0 0 .832-.832l-.647-2.586a.69.69 0 0 0-.482-.494m-.555 2.002.076.302-.302-.076zm-1.568.598 2.586.647-.646-2.586zm4.398-5.98a.69.69 0 0 0-.621.303l-1.524 2.28a.686.686 0 0 0 .537 1.066l2.662.13a.686.686 0 0 0 .654-.979l-1.139-2.41a.69.69 0 0 0-.57-.39m-.154 2.072.133.281-.31-.015zm-1.42.892 2.662.13-1.139-2.41zm3.146-6.723a.69.69 0 0 0-.55.418l-1.05 2.534a.686.686 0 0 0 .734.94l2.637-.391a.686.686 0 0 0 .45-1.088l-1.587-2.141a.69.69 0 0 0-.634-.272m.253 2.062.186.25-.308.045zm-1.22 1.152 2.637-.392-1.587-2.142zm1.775-7.207a.69.69 0 0 0-.458.517l-.535 2.69a.686.686 0 0 0 .904.78l2.509-.9a.686.686 0 0 0 .23-1.154l-1.975-1.79a.69.69 0 0 0-.675-.143m.65 1.973.231.209-.293.104zm-.97 1.368 2.509-.9-1.974-1.79zm.334-7.416a.69.69 0 0 0-.349.597v2.743a.686.686 0 0 0 1.039.588l2.285-1.371a.686.686 0 0 0 0-1.177l-2.285-1.372a.69.69 0 0 0-.69-.007zm1.023 1.808.267.16-.267.16zm1.6.16-2.286-1.371v2.743zM48 63.366a.23.23 0 0 0-.228.228v5.029a.23.23 0 0 0 .228.228h4.343V80.28h-6.628a.23.23 0 0 0-.229.228v5.029a.23.23 0 0 0 .229.228H64a.23.23 0 0 0 .229-.228v-5.029A.23.23 0 0 0 64 80.28h-3.886v-3.2h4.343c1.191 0 1.866.485 2.35 1.25.484.766.742 1.83.97 2.911.227 1.082.425 2.18.847 3.04s1.124 1.484 2.233 1.484h11.428a.23.23 0 0 0 .229-.228V76.85a.23.23 0 0 0-.229-.228h-2.742a.23.23 0 0 0-.229.228v.915c0 .87-.242 1.466-.591 1.854-.35.388-.816.577-1.306.603-.982.051-2.018-.571-2.222-1.588-.237-1.189-.825-2.243-1.414-3.009a6 6 0 0 0-.846-.913c-.094-.08-.179-.135-.264-.191 1.516-.895 2.53-1.97 3.005-3.127.516-1.256.47-2.577.024-3.767-.893-2.38-3.37-4.262-6.214-4.262zm12.114 5.485h5.715c.876 0 1.512.22 1.92.526s.594.693.594 1.074-.186.768-.594 1.074-1.044.526-1.92.526h-5.715z" color="#000" style="-inkscape-stroke:none"/></svg>