<svg xmlns="http://www.w3.org/2000/svg" xmlns:xlink="http://www.w3.org/1999/xlink" viewBox="0 0 128 128"><defs><linearGradient id="a"><stop offset="0" stop-color="#3584e4"/><stop offset="1" stop-color="#62a0ea"/></linearGradient><linearGradient id="b"><stop offset="0" stop-color="#99c1f1"/><stop offset="1" stop-color="#c3e5e7"/></linearGradient><linearGradient xlink:href="#a" id="d" x1="64" x2="480" y1="756" y2="756" gradientTransform="translate(-4.312 -157.536)scale(.25116)" gradientUnits="userSpaceOnUse"/><linearGradient xlink:href="#b" id="h" x1="152.898" x2="447.309" y1="-38.797" y2="316" gradientTransform="translate(-.293 52.435)scale(.25116)" gradientUnits="userSpaceOnUse"/><filter id="c" width="1.024" height="1.024" x="-.012" y="-.012" color-interpolation-filters="sRGB"><feGaussianBlur stdDeviation="2.08"/></filter><filter id="f" width="1.217" height="1.269" x="-.108" y="-.134" color-interpolation-filters="sRGB"><feGaussianBlur stdDeviation="18.8"/></filter><clipPath id="e" clipPathUnits="userSpaceOnUse"><path fill="#c9b8a7" stroke-width="26.067" d="M192-164H88s-40 0-40 40V4h416v-96s0-40-40-40H224Z" enable-background="new" style="marker:none"/></clipPath></defs><path d="M88-162s-40 0-40 40L47.965 6h.033l-.033 248.094L424 254c40 0 40-40 40-40V-90s0-40-40-40H224l-32-32z" enable-background="new" filter="url(#c)" opacity=".2" style="marker:none" transform="translate(-.293 52.435)scale(.25116)"/><path fill="url(#d)" d="M47.93 11.244H21.81s-10.047 0-10.047 10.047v32.148h104.483V29.328s0-10.047-10.046-10.047H55.967Z" enable-background="new" style="marker:none"/><path d="m256-80-32 32H88S48-48 48-8v264h376c40 0 40-40 40-40V-40c0-40-40-40-40-40z" clip-path="url(#e)" enable-background="new" filter="url(#f)" opacity=".1" style="marker:none" transform="translate(-.293 52.435)scale(.25116)"/><path fill="url(#h)" d="m64.004 31.337-8.037 8.037H21.81s-10.046 0-10.046 10.047v66.306H106.2c10.046 0 10.046-10.046 10.046-10.046V41.384c0-10.047-10.046-10.047-10.046-10.047z" enable-background="new" style="marker:none"/><path fill="#99c1f1" d="M116.246 104.174s0 10.047-10.046 10.047l-94.437.023v1.507l94.437-.024c10.046 0 10.046-10.046 10.046-10.046z" enable-background="new" style="font-variation-settings:normal;marker:none"/><path fill="#fff" d="m64.004 31.337-8.037 8.037H21.81s-10.046 0-10.046 10.047v1.005c0-10.047 10.046-10.55 10.046-10.55h34.307l8.037-8.036H106.2c1.35 0 10.046.502 10.046 10.548v-1.004c0-10.047-10.046-10.047-10.046-10.047z" enable-background="new" opacity=".3" style="marker:none"/><path fill="#438de6" d="M64.73 51.377a24.06 24.06 0 0 0-23.844 22.11l-3.902 1.869-.513.256-.013.015a6.5 6.5 0 0 0-2.818 5.896 17.45 17.45 0 0 0 2.492 8.649c2.623 4.552 6.72 7.673 10.188 7.673a5.03 5.03 0 0 0 2.537-.72v-.032l3.164-1.541a24.06 24.06 0 0 0 36.85-19.162l2.84-1.617.043-.03a6.3 6.3 0 0 0 1.897-2.299l.05-.138a9.45 9.45 0 0 0 .69-3.772 19.4 19.4 0 0 0-2.862-8.779 16.95 16.95 0 0 0-6.026-5.528 7.2 7.2 0 0 0-2.666-.754 1.23 1.23 0 0 0-.694.163l-3.728 1.799A24.06 24.06 0 0 0 64.78 51.25Zm.17 1.533c3.273.01 6.524.839 9.32 2.493.982.687 1.943 1.697 2.135 2.926q0-.017.006.037-.002-.019-.006-.037c.003.036.033.303.03.39.007.48-.1.928-.287 1.34q.275-.61.282-1.253c-.008.77-.318 1.522-.906 2.21a4.2 4.2 0 0 0 .602-.92l-.027.056a4.4 4.4 0 0 1-.604.896 6.8 6.8 0 0 1-1.515 1.277c-2.753 1.712-6.135 2.232-9.3 2.276-1.3.033-2.6-.092-3.88-.345l-.294-.05c-2.818-.697-6.807-1.973-7.154-5.42.013-1.604 1.266-2.84 2.537-3.62 2.73-1.517 5.917-2.276 9.082-2.276zm10.556 8.129-.026.03zm7.37-6.612a6.2 6.2 0 0 1 2.341.687 16 16 0 0 1 5.7 5.268 19.1 19.1 0 0 1 2.667 8.28 8.65 8.65 0 0 1-.65 3.512l.043-.002-.05.138a5.5 5.5 0 0 1-1.604 1.917l-2.406 1.36-.047.029v-.225a24.06 24.06 0 0 0-9.69-19.27h.02l3.424-1.653a.8.8 0 0 1 .241-.028zm-7.522 6.807c-.544.59-1.287 1.136-2.21 1.619l-.003-.011c.925-.483 1.669-1.025 2.21-1.608ZM45.607 72.809c1.687.007 3.338.828 4.704 1.808 3.078 2.276 5.246 5.636 6.416 9.234.631 2.558 1.34 5.68-.264 8.042a6 6 0 0 1-1.184 1.34l-.034-.035c-1.524.733-3.035 1.47-4.574 2.19.505-.77.765-1.672.847-2.602.49-3.511-.331-7.175-2.276-10.123-1.764-3.186-4.595-6.026-8.063-7.262-.484-.146-.978-.266-1.48-.303 1.404-.674 2.795-1.353 4.204-2.025a4.9 4.9 0 0 1 1.687-.288zm36.634.312q.546-.004 1.099.119c1.946.45 2.97 2.384 3.186 4.227.423 3.642-.923 7.261-2.948 10.253-1.571 2.276-3.642 4.357-6.264 5.332-1.568.581-3.512.594-4.791-.641-1.819-1.804-1.832-4.64-1.374-7.002l.107-.561c1.008-3.945 3.274-7.695 6.612-10.102 1.279-.895 2.796-1.627 4.379-1.634zm-43.137 2.796c.286 0 .573.016.856.032 1.934.245 3.62 1.483 5.073 2.666 2.514 2.19 4.27 5.16 5.289 8.302.698 2.168.96 4.552.312 6.763-.083.228-.163.458-.251.685v.026c-.785 2.233-3.425 3.057-5.528 2.385-2.623-.763-4.747-2.688-6.416-4.812-2.515-3.273-4.097-7.37-3.815-11.554.236-1.706 1.222-3.555 2.883-4.249.507-.22 1.053-.275 1.6-.275z"/></svg>