<svg xmlns="http://www.w3.org/2000/svg" xmlns:xlink="http://www.w3.org/1999/xlink" viewBox="0 0 128 128"><defs><linearGradient id="a"><stop offset="0" stop-color="#3584e4"/><stop offset="1" stop-color="#62a0ea"/></linearGradient><linearGradient id="b"><stop offset="0" stop-color="#99c1f1"/><stop offset="1" stop-color="#c3e5e7"/></linearGradient><linearGradient xlink:href="#a" id="d" x1="64" x2="480" y1="756" y2="756" gradientUnits="userSpaceOnUse"/><linearGradient xlink:href="#b" id="g" x1="152.898" x2="447.309" y1="-38.797" y2="316" gradientUnits="userSpaceOnUse"/><filter id="c" width="1.024" height="1.024" x="-.012" y="-.012" color-interpolation-filters="sRGB"><feGaussianBlur stdDeviation="2.08"/></filter><filter id="f" width="1.217" height="1.269" x="-.108" y="-.134" color-interpolation-filters="sRGB"><feGaussianBlur stdDeviation="18.8"/></filter><clipPath id="e" clipPathUnits="userSpaceOnUse"><path fill="#c9b8a7" stroke-width="26.067" d="M192-164H88s-40 0-40 40V4h416v-96s0-40-40-40H224Z" enable-background="new" style="marker:none"/></clipPath></defs><g fill="#c9b8a7"><path fill="#000" d="M88-162s-40 0-40 40L47.965 6h.033l-.033 248.094L424 254c40 0 40-40 40-40V-90s0-40-40-40H224l-32-32z" enable-background="new" filter="url(#c)" opacity=".2" style="marker:none" transform="translate(-.293 52.435)scale(.25116)"/><path fill="url(#d)" d="M208 672H104s-40 0-40 40v128h416v-96s0-40-40-40H240Z" enable-background="new" style="marker:none" transform="translate(-4.312 -157.536)scale(.25116)"/><path fill="#000" d="m256-80-32 32H88S48-48 48-8v264h376c40 0 40-40 40-40V-40c0-40-40-40-40-40z" clip-path="url(#e)" enable-background="new" filter="url(#f)" opacity=".1" style="marker:none" transform="translate(-.293 52.435)scale(.25116)"/><path fill="url(#g)" d="m256-84-32 32H88s-40 0-40 40v264h376c40 0 40-40 40-40V-44c0-40-40-40-40-40z" enable-background="new" style="marker:none" transform="translate(-.293 52.435)scale(.25116)"/><path fill="#99c1f1" d="M480 1042s0 40-40 40l-375.998.094-.004 6L440 1088c40 0 40-40 40-40z" enable-background="new" style="font-variation-settings:normal;marker:none" transform="translate(-4.312 -157.536)scale(.25116)"/><path fill="#fff" d="m272 752-32 32H104s-40 0-40 40v4c0-40 40-42 40-42h136.591l32-32H440c5.38 0 40 2 40 42v-4c0-40-40-40-40-40z" enable-background="new" opacity=".3" style="marker:none" transform="translate(-4.312 -157.536)scale(.25116)"/></g><path fill="#438de6" d="M87.494 73.114a4.1 4.1 0 0 1 1.312-2.882 4.13 4.13 0 0 1 2.968-1.11 4.153 4.153 0 0 1 3.994 4.284 4.13 4.13 0 0 1-1.311 2.88 4.1 4.1 0 0 1-2.971 1.111 4.15 4.15 0 0 1-3.99-4.283zm11.059 4.073c.188-.124.326-.227.384-.25L99 76.84c-.159-1-1.649-5.845-2.775-7.01-.31-.318-.559-.631-1.062-.926-4.078-2.375-13.746-3.809-14.2-3.874l-.077.021-.03.07-.044 2.228c-.988-.332-8.167-2.65-14.898-2.884-5.708-.201-14.02-.94-25.036 5.834l-.326.202c-5.182 3.233-8.76 7.22-10.63 11.85-.588 1.458-1.376 4.746-.595 7.84.337 1.353.965 2.712 1.812 3.929 1.914 2.749 5.124 4.573 8.583 4.881 4.88.437 8.578-1.756 9.893-5.862.904-2.833 0-6.99-3.466-9.11-2.819-1.727-5.85-1.334-7.61-.171-1.525 1.011-2.388 2.583-2.374 4.309.035 3.062 2.672 4.69 4.568 4.694.55 0 1.104-.096 1.728-.299.222-.068.43-.151.661-.294l.072-.042.046-.03-.013.009a1.56 1.56 0 0 0 .692-1.287q.001-.211-.06-.425a1.556 1.556 0 0 0-1.784-1.1l-.107.025-.145.044-.21.073c-.437.107-.764.116-.834.119-.222-.015-1.314-.341-1.314-1.537V88.1c0-.44.176-.747.274-.916.339-.532 1.269-1.055 2.524-.945 1.649.142 2.838.988 3.625 2.583.73 1.482.54 3.307-.493 4.642-1.025 1.324-2.85 1.887-5.278 1.626-2.448-.271-4.517-1.68-5.675-3.873-1.134-2.143-1.196-4.684-.16-6.637 2.477-4.678 7.158-4.629 9.724-4.185 3.798.659 8.118 4.162 9.65 8.207.248.645.374 1.156.484 1.623l.166.698 4.29 2.095.056.043.104-.01.018-.124c-.027-.096-.09-.184-.188-1.384-.082-1.066-.248-3.982 1.22-5.428.57-.565 1.44-1.07 2.126-1.23 2.811-.688 6.11-.214 9.227 3.395 1.614 1.864 2.4 2.714 2.796 3.095l.137.124.163.121c.13.07 5.362 2.48 5.362 2.48l.107-.026.003-.111c-.035-.04-3.317-4.281-2.733-7.773.46-2.781 2.674-2.53 5.736-2.183 1 .116 2.137.247 3.316.273 3.289.021 6.832-.586 9.015-1.541 1.413-.615 2.314-1.023 2.88-1.537.203-.168.308-.441.418-.736l.077-.194c.092-.238.226-.74.285-1.015.022-.122.04-.25-.049-.318l-.302.056c-.959.577-3.356 1.67-5.596 1.717-2.781.056-8.384-2.798-8.968-3.102l-.056-.065a526 526 0 0 0-1.159-2.744c4.034 2.658 7.378 4.127 9.94 4.353 2.852.254 5.073-1.302 6.023-1.967zm-6.34-3.69c-.709 0-1.28-.383-1.28-.852 0-.474.571-.855 1.28-.855.707 0 1.28.38 1.28.855 0 .469-.573.852-1.28.852m-.473-3.155a2.85 2.85 0 0 0-2.067.77 2.86 2.86 0 0 0-.914 2.009 2.897 2.897 0 0 0 2.784 2.992c.773.023 1.51-.25 2.073-.776a2.892 2.892 0 0 0-1.875-4.995z"/></svg>