<svg xmlns="http://www.w3.org/2000/svg" xmlns:xlink="http://www.w3.org/1999/xlink" viewBox="0 0 128 128"><defs><linearGradient xlink:href="#a" id="b" x1="2689.252" x2="2918.07" y1="-1106.803" y2="-1106.803" gradientUnits="userSpaceOnUse"/><linearGradient id="a"><stop offset="0" stop-color="#62a0ea"/><stop offset=".058" stop-color="#afd4ff"/><stop offset=".122" stop-color="#62a0ea"/><stop offset=".873" stop-color="#62a0ea"/><stop offset=".956" stop-color="#c0d5ea"/><stop offset="1" stop-color="#62a0ea"/></linearGradient></defs><g stroke-width="1.264"><path fill="#438de6" d="M21.978 11.986a9.956 9.979 0 0 0-9.978 10v86.033a9.956 9.979 0 0 0 9.978 10h84.044a9.956 9.979 0 0 0 9.978-10V35.931a11.973 12 0 0 0-11.974-12H58a6.49 6.505 0 0 1-5.799-3.58l-1.503-2.993A9.74 9.762 0 0 0 42 11.986z"/><path fill="url(#b)" d="M2808.014-1273.645a21.9 21.9 0 0 0-15.465 6.343c-5.003 4.955-11.848 11.22-18.993 11.22h-62.35a21.906 21.906 0 0 0-21.954 21.952v118.618a21.906 21.906 0 0 0 21.954 21.953h184.91a21.906 21.906 0 0 0 21.954-21.953v-136.18a21.906 21.906 0 0 0-21.955-21.953z" transform="matrix(.45451 0 0 .45552 -1210.292 616.157)"/><path fill="#a4caee" d="M65.978 31.986a9.954 9.976 0 0 0-7.029 2.89c-2.273 2.257-5.385 5.11-8.632 5.11H21.978a9.956 9.979 0 0 0-9.978 10v55.978a9.956 9.979 0 0 0 9.978 10h84.044a9.956 9.979 0 0 0 9.978-10V41.986a9.956 9.979 0 0 0-9.979-10z"/></g><path fill="#438de6" d="M61 59.985v6h-3.187l6.187 7 6.187-7H67v-6zm1.906 14c-.172 0-.281.295-.281.656v2.281a6.2 6.2 0 0 0-1.938.813l-1.625-1.625c-.255-.256-.533-.373-.656-.25l-1.531 1.531c-.122.123-.003.4.25.656l1.625 1.625a6.2 6.2 0 0 0-.813 1.938h-2.28c-.362 0-.657.108-.657.281v2.188c0 .172.295.28.656.28h2.281a6.2 6.2 0 0 0 .813 1.938l-1.625 1.625c-.256.256-.372.534-.25.657l1.531 1.53c.123.123.401.004.656-.25l1.625-1.624c.586.37 1.242.654 1.938.812v2.282c0 .36.109.656.281.656h2.188c.172 0 .281-.295.281-.656v-2.282a6.2 6.2 0 0 0 1.937-.812l1.625 1.625c.256.255.534.372.657.25l1.531-1.531c.122-.122.003-.401-.25-.657l-1.625-1.625c.37-.586.654-1.241.812-1.937h2.282c.361 0 .656-.109.656-.281V81.89c0-.173-.295-.281-.656-.281h-2.282a6.2 6.2 0 0 0-.812-1.938l1.625-1.625c.255-.255.372-.534.25-.656l-1.531-1.531c-.123-.123-.401-.004-.657.25l-1.625 1.625a6.2 6.2 0 0 0-1.937-.813v-2.28c0-.362-.109-.657-.281-.657zM64 80.204a2.79 2.79 0 0 1 2.781 2.78A2.79 2.79 0 0 1 64 85.767a2.79 2.79 0 0 1-2.781-2.781A2.79 2.79 0 0 1 64 80.204" overflow="visible" style="marker:none"/></svg>