<svg xmlns="http://www.w3.org/2000/svg" xmlns:xlink="http://www.w3.org/1999/xlink" viewBox="0 0 128 128"><defs><linearGradient id="a"><stop offset="0" stop-color="#3584e4"/><stop offset="1" stop-color="#62a0ea"/></linearGradient><linearGradient id="b"><stop offset="0" stop-color="#99c1f1"/><stop offset="1" stop-color="#c3e5e7"/></linearGradient><linearGradient xlink:href="#a" id="d" x1="64" x2="480" y1="756" y2="756" gradientUnits="userSpaceOnUse"/><linearGradient xlink:href="#b" id="g" x1="152.898" x2="447.309" y1="-38.797" y2="316" gradientUnits="userSpaceOnUse"/><filter id="c" width="1.024" height="1.024" x="-.012" y="-.012" color-interpolation-filters="sRGB"><feGaussianBlur stdDeviation="2.08"/></filter><filter id="f" width="1.217" height="1.269" x="-.108" y="-.134" color-interpolation-filters="sRGB"><feGaussianBlur stdDeviation="18.8"/></filter><clipPath id="e" clipPathUnits="userSpaceOnUse"><path fill="#c9b8a7" stroke-width="26.067" d="M192-164H88s-40 0-40 40V4h416v-96s0-40-40-40H224Z" enable-background="new" style="marker:none"/></clipPath></defs><g fill="#c9b8a7"><path fill="#000" d="M88-162s-40 0-40 40L47.965 6h.033l-.033 248.094L424 254c40 0 40-40 40-40V-90s0-40-40-40H224l-32-32z" enable-background="new" filter="url(#c)" opacity=".2" style="marker:none" transform="translate(-.293 52.435)scale(.25116)"/><path fill="url(#d)" d="M208 672H104s-40 0-40 40v128h416v-96s0-40-40-40H240Z" enable-background="new" style="marker:none" transform="translate(-4.312 -157.536)scale(.25116)"/><path fill="#000" d="m256-80-32 32H88S48-48 48-8v264h376c40 0 40-40 40-40V-40c0-40-40-40-40-40z" clip-path="url(#e)" enable-background="new" filter="url(#f)" opacity=".1" style="marker:none" transform="translate(-.293 52.435)scale(.25116)"/><path fill="url(#g)" d="m256-84-32 32H88s-40 0-40 40v264h376c40 0 40-40 40-40V-44c0-40-40-40-40-40z" enable-background="new" style="marker:none" transform="translate(-.293 52.435)scale(.25116)"/><path fill="#99c1f1" d="M480 1042s0 40-40 40l-375.998.094-.004 6L440 1088c40 0 40-40 40-40z" enable-background="new" style="font-variation-settings:normal;marker:none" transform="translate(-4.312 -157.536)scale(.25116)"/><path fill="#fff" d="m272 752-32 32H104s-40 0-40 40v4c0-40 40-42 40-42h136.591l32-32H440c5.38 0 40 2 40 42v-4c0-40-40-40-40-40z" enable-background="new" opacity=".3" style="marker:none" transform="translate(-4.312 -157.536)scale(.25116)"/></g><path fill="#3a87e5" d="m40.74 48.983-2.398 3.224 7.467 5.635c-1.663 2.841-1.916 6.44-.341 9.586 1.374 2.746 3.86 4.588 6.644 5.26l-.054.018c.204.055.352.321.364.495l.002-.004-.187 11.11-.07-.106c0 .21-.218.425-.383.481l.035.008a10 10 0 0 0-1.853.709c-4.94 2.472-6.96 8.538-4.487 13.48 2.472 4.94 8.539 6.96 13.48 4.487 4.94-2.473 6.961-8.54 4.489-13.48-1.425-2.847-4.045-4.723-6.955-5.329l.034-.011c-.112-.03-.205-.125-.27-.232l.186-11.137.01.015c0-.211.217-.426.382-.482l-.049-.011a10 10 0 0 0 2.163-.784 10 10 0 0 0 1.885-1.23l-.008.023c.153-.12.434-.122.573-.017l8.986 6.781c.073.055.055.177.056.265-1.166 2.649-1.194 5.778.194 8.552 2.473 4.94 8.54 6.961 13.48 4.49 4.94-2.473 6.96-8.542 4.487-13.482s-8.538-6.96-13.48-4.488a10 10 0 0 0-1.897 1.24l.006-.014c-.165.13-.47.093-.616-.002l.07.14-8.886-6.706c-.16-.12-.18-.412-.13-.567l-.005.005c1.13-2.631 1.146-5.724-.227-8.47-2.473-4.94-8.541-6.96-13.482-4.487-.518.26-.994.565-1.446.898zm13.917 7.913a6 6 0 0 1 5.186 3.339 5.996 5.996 0 0 1-2.693 8.086 6 6 0 0 1-8.089-2.692 5.996 5.996 0 0 1 2.693-8.087 6.05 6.05 0 0 1 2.903-.646M79.823 75.76a6 6 0 0 1 5.186 3.336 6 6 0 0 1-2.693 8.09 5.996 5.996 0 0 1-8.087-2.693 6 6 0 0 1 2.693-8.09 6.04 6.04 0 0 1 2.901-.643M54.667 88.347a6 6 0 0 1 5.187 3.338 5.997 5.997 0 0 1-2.694 8.087 5.996 5.996 0 0 1-8.087-2.693 5.996 5.996 0 0 1 2.692-8.087 6.05 6.05 0 0 1 2.902-.645" color="#000" enable-background="new" font-family="sans-serif" font-weight="400" overflow="visible" style="line-height:normal;font-variant-ligatures:normal;font-variant-position:normal;font-variant-caps:normal;font-variant-numeric:normal;font-variant-alternates:normal;font-feature-settings:normal;text-indent:0;text-align:start;text-decoration-line:none;text-decoration-style:solid;text-decoration-color:#000;text-transform:none;text-orientation:mixed;white-space:normal;shape-padding:0;isolation:auto;mix-blend-mode:normal;solid-color:#000;solid-opacity:1;marker:none"/></svg>