<svg xmlns="http://www.w3.org/2000/svg" xmlns:xlink="http://www.w3.org/1999/xlink" xml:space="preserve" viewBox="0 0 128 128"><defs><linearGradient xlink:href="#a" id="b" x1="2689.252" x2="2918.07" y1="-1106.803" y2="-1106.803" gradientUnits="userSpaceOnUse"/><linearGradient id="a"><stop offset="0" stop-color="#62a0ea"/><stop offset=".058" stop-color="#afd4ff"/><stop offset=".122" stop-color="#62a0ea"/><stop offset=".873" stop-color="#62a0ea"/><stop offset=".956" stop-color="#c0d5ea"/><stop offset="1" stop-color="#62a0ea"/></linearGradient></defs><g stroke-width="1.264"><path fill="#438de6" d="M21.978 11.986a9.956 9.979 0 0 0-9.978 10v86.033a9.956 9.979 0 0 0 9.978 10h84.044a9.956 9.979 0 0 0 9.978-10V35.931a11.973 12 0 0 0-11.974-12H58a6.49 6.505 0 0 1-5.799-3.58l-1.503-2.993A9.74 9.762 0 0 0 42 11.986z"/><path fill="url(#b)" d="M2808.014-1273.645a21.9 21.9 0 0 0-15.465 6.343c-5.003 4.955-11.848 11.22-18.993 11.22h-62.35a21.906 21.906 0 0 0-21.954 21.952v118.618a21.906 21.906 0 0 0 21.954 21.953h184.91a21.906 21.906 0 0 0 21.954-21.953v-136.18a21.906 21.906 0 0 0-21.955-21.953z" transform="matrix(.45451 0 0 .45552 -1210.292 616.157)"/><path fill="#a4caee" d="M65.978 31.986a9.954 9.976 0 0 0-7.029 2.89c-2.273 2.257-5.385 5.11-8.632 5.11H21.978a9.956 9.979 0 0 0-9.978 10v55.978a9.956 9.979 0 0 0 9.978 10h84.044a9.956 9.979 0 0 0 9.978-10V41.986a9.956 9.979 0 0 0-9.979-10z"/></g><path fill="#438de6" d="M54 62.131c-3.29 0-6 2.652-6 5.87v15.65c0 3.218 2.71 5.87 6 5.87h6c2 0 2-1.956 2-1.956s0-1.957-2-1.957h-6c-1.125 0-2-.856-2-1.956V69.957h22c1.125 0 2 .856 2 1.956v1.957c0 1.956 2 1.956 2 1.956s2 0 2-1.956v-1.957c0-3.217-2.71-5.869-6-5.869h-7.172l-3.414-3.34A2.02 2.02 0 0 0 62 62.132zm0 3.913h7.172l2 1.957H52c0-1.1.875-1.957 2-1.957m17.69 9.567c-.615 0-1.23.204-1.731.613l-4.486 3.657a3.57 3.57 0 0 0-1.318 2.756v5.9c0 1.907 1.582 3.448 3.513 3.448h8.044c1.93 0 3.513-1.541 3.513-3.447v-5.9a3.57 3.57 0 0 0-1.318-2.757l-4.486-3.657a2.74 2.74 0 0 0-1.731-.613m0 3.047 4.303 3.508v.002a.6.6 0 0 1 .227.47v5.9a.504.504 0 0 1-.508.485H73.7v-4.42a.997.997 0 0 0-1.006-.984h-2.01a.997.997 0 0 0-1.006.984v4.42h-2.01a.504.504 0 0 1-.51-.485v-5.9a.6.6 0 0 1 .228-.47l.002-.003z"/></svg>