<svg xmlns="http://www.w3.org/2000/svg" xmlns:xlink="http://www.w3.org/1999/xlink" viewBox="0 0 128 128"><defs><linearGradient id="a"><stop offset="0" stop-color="#3584e4"/><stop offset="1" stop-color="#62a0ea"/></linearGradient><linearGradient id="b"><stop offset="0" stop-color="#99c1f1"/><stop offset="1" stop-color="#c3e5e7"/></linearGradient><linearGradient xlink:href="#a" id="d" x1="64" x2="480" y1="756" y2="756" gradientUnits="userSpaceOnUse"/><linearGradient xlink:href="#b" id="g" x1="152.898" x2="447.309" y1="-38.797" y2="316" gradientUnits="userSpaceOnUse"/><filter id="c" width="1.024" height="1.024" x="-.012" y="-.012" color-interpolation-filters="sRGB"><feGaussianBlur stdDeviation="2.08"/></filter><filter id="f" width="1.217" height="1.269" x="-.108" y="-.134" color-interpolation-filters="sRGB"><feGaussianBlur stdDeviation="18.8"/></filter><clipPath id="e" clipPathUnits="userSpaceOnUse"><path fill="#c9b8a7" stroke-width="26.067" d="M192-164H88s-40 0-40 40V4h416v-96s0-40-40-40H224Z" enable-background="new" style="marker:none"/></clipPath></defs><g fill="#c9b8a7"><path fill="#000" d="M88-162s-40 0-40 40L47.965 6h.033l-.033 248.094L424 254c40 0 40-40 40-40V-90s0-40-40-40H224l-32-32z" enable-background="new" filter="url(#c)" opacity=".2" style="marker:none" transform="translate(-.293 52.435)scale(.25116)"/><path fill="url(#d)" d="M208 672H104s-40 0-40 40v128h416v-96s0-40-40-40H240Z" enable-background="new" style="marker:none" transform="translate(-4.312 -157.536)scale(.25116)"/><path fill="#000" d="m256-80-32 32H88S48-48 48-8v264h376c40 0 40-40 40-40V-40c0-40-40-40-40-40z" clip-path="url(#e)" enable-background="new" filter="url(#f)" opacity=".1" style="marker:none" transform="translate(-.293 52.435)scale(.25116)"/><path fill="url(#g)" d="m256-84-32 32H88s-40 0-40 40v264h376c40 0 40-40 40-40V-44c0-40-40-40-40-40z" enable-background="new" style="marker:none" transform="translate(-.293 52.435)scale(.25116)"/><path fill="#99c1f1" d="M480 1042s0 40-40 40l-375.998.094-.004 6L440 1088c40 0 40-40 40-40z" enable-background="new" style="font-variation-settings:normal;marker:none" transform="translate(-4.312 -157.536)scale(.25116)"/><path fill="#fff" d="m272 752-32 32H104s-40 0-40 40v4c0-40 40-42 40-42h136.591l32-32H440c5.38 0 40 2 40 42v-4c0-40-40-40-40-40z" enable-background="new" opacity=".3" style="marker:none" transform="translate(-4.312 -157.536)scale(.25116)"/></g><path fill="#3f8ae5" d="m67.225 61.412-50.9 4.701.55 5.975 50.9-4.701zM21.2 61.4c-4.3-2.5-9.8-1.1-12.3 3.1-2.5 4.3-1.1 9.8 3.1 12.3 4.3 2.5 9.8 1.1 12.3-3.1s1.1-9.7-3.1-12.3M60 69.3c2.7 4.2 8.3 5.4 12.4 2.7 4.2-2.7 5.4-8.3 2.7-12.4-2.7-4.2-8.3-5.4-12.4-2.7-4.2 2.6-5.4 8.2-2.7 12.4m9.965-6.609-4.93 3.418 19 27.4 4.93-3.42zM77.6 91c-.4 4.9 3.2 9.3 8.2 9.8 5 .4 9.3-3.2 9.8-8.2.4-4.9-3.2-9.3-8.2-9.8-5-.4-9.4 3.2-9.8 8.2m18.084-53.908-30.1 25 3.832 4.615 30.102-25zM94.7 47.8c4.7 1.6 9.8-.9 11.4-5.6s-.9-9.8-5.6-11.4-9.8.9-11.4 5.6.9 9.8 5.6 11.4m-36-36C32.944 11.8 12 32.744 12 58.5s20.944 46.7 46.7 46.7 46.7-20.943 46.7-46.7c0-25.756-20.944-46.7-46.7-46.7m0 6c22.514 0 40.7 18.187 40.7 40.7S81.214 99.2 58.7 99.2C36.187 99.2 18 81.015 18 58.5c0-22.513 18.187-40.7 40.7-40.7" color="#000" style="-inkscape-stroke:none" transform="translate(33.66 45.63)scale(.53116)"/></svg>