<svg xmlns="http://www.w3.org/2000/svg" xmlns:xlink="http://www.w3.org/1999/xlink" viewBox="0 0 128 128"><defs><linearGradient xlink:href="#a" id="b" x1="2689.252" x2="2918.07" y1="-1106.803" y2="-1106.803" gradientUnits="userSpaceOnUse"/><linearGradient id="a"><stop offset="0" stop-color="#62a0ea"/><stop offset=".058" stop-color="#afd4ff"/><stop offset=".122" stop-color="#62a0ea"/><stop offset=".873" stop-color="#62a0ea"/><stop offset=".956" stop-color="#c0d5ea"/><stop offset="1" stop-color="#62a0ea"/></linearGradient></defs><g stroke-width="1.264"><path fill="#438de6" d="M21.978 11.986a9.956 9.979 0 0 0-9.978 10v86.033a9.956 9.979 0 0 0 9.978 10h84.044a9.956 9.979 0 0 0 9.978-10V35.931a11.973 12 0 0 0-11.974-12H58a6.49 6.505 0 0 1-5.799-3.58l-1.503-2.993A9.74 9.762 0 0 0 42 11.986z"/><path fill="url(#b)" d="M2808.014-1273.645a21.9 21.9 0 0 0-15.465 6.343c-5.003 4.955-11.848 11.22-18.993 11.22h-62.35a21.906 21.906 0 0 0-21.954 21.952v118.618a21.906 21.906 0 0 0 21.954 21.953h184.91a21.906 21.906 0 0 0 21.954-21.953v-136.18a21.906 21.906 0 0 0-21.955-21.953z" transform="matrix(.45451 0 0 .45552 -1210.292 616.157)"/><path fill="#a4caee" d="M65.978 31.986a9.954 9.976 0 0 0-7.029 2.89c-2.273 2.257-5.385 5.11-8.632 5.11H21.978a9.956 9.979 0 0 0-9.978 10v55.978a9.956 9.979 0 0 0 9.978 10h84.044a9.956 9.979 0 0 0 9.978-10V41.986a9.956 9.979 0 0 0-9.979-10z"/></g><path fill="#438de6" d="M63.79 59.985c-8.759 0-15.79 7.25-15.79 16 0 8.836 7.164 16 16 16s16-7.164 16-16-7.164-16-16-16zm-3.938 4.922c.468.039.875.343 1.046.781a.834.834 0 0 1-.773.875.82.82 0 0 0-.82.82v2.367c0 .883-.711 1.602-1.594 1.602s-1.594.711-1.602 1.594c0 .875-.71 1.594-1.593 1.594a1.59 1.59 0 0 0-1.594 1.593c0 .883.71 1.594 1.594 1.594.882 0 1.601.711 1.593 1.602v5.71a11.97 11.97 0 0 1-4.03-8.953c0-2.984 1.124-5.859 3.132-8.054l.11-.102c.468-.5.976-.96 1.523-1.367l.078-.063a12 12 0 0 1 2.937-1.593zm9.062.867h1.188c.96.562 1.836 1.258 2.609 2.07a1 1 0 0 1-.211.024h-3.586a1.04 1.04 0 0 1-1.039-1.047c0-.586.46-1.047 1.04-1.047m-4.101 1.742c.64 0 1.156.516 1.156 1.164v1.266a1.16 1.16 0 0 1-1.156 1.164 1.17 1.17 0 0 1-1.165-1.164V68.68c0-.648.524-1.164 1.164-1.164m4.578 1.344h4.171a11.9 11.9 0 0 1 2.43 6.953c-.25.21-.554.328-.883.336l-2.257-.016a2.446 2.446 0 0 0-2.438 2.438v2.695a1.584 1.584 0 0 1-1.586 1.594 1.587 1.587 0 0 1-1.601-1.594v-1.742a1.186 1.186 0 0 0-.797-1.461 1.45 1.45 0 0 1-1.453-1.453v-2.477a1.703 1.703 0 0 1 1.57-1.836c.789 0 1.422-.632 1.43-1.421v-.602c0-.781.632-1.414 1.414-1.422zm0 0"/></svg>