<svg xmlns="http://www.w3.org/2000/svg" xmlns:xlink="http://www.w3.org/1999/xlink" viewBox="0 0 128 128"><defs><linearGradient id="a"><stop offset="0" stop-color="#3584e4"/><stop offset="1" stop-color="#62a0ea"/></linearGradient><linearGradient id="b"><stop offset="0" stop-color="#99c1f1"/><stop offset="1" stop-color="#c3e5e7"/></linearGradient><linearGradient xlink:href="#a" id="d" x1="64" x2="480" y1="756" y2="756" gradientUnits="userSpaceOnUse"/><linearGradient xlink:href="#b" id="g" x1="152.898" x2="447.309" y1="-38.797" y2="316" gradientUnits="userSpaceOnUse"/><filter id="c" width="1.024" height="1.024" x="-.012" y="-.012" color-interpolation-filters="sRGB"><feGaussianBlur stdDeviation="2.08"/></filter><filter id="f" width="1.217" height="1.269" x="-.108" y="-.134" color-interpolation-filters="sRGB"><feGaussianBlur stdDeviation="18.8"/></filter><clipPath id="e" clipPathUnits="userSpaceOnUse"><path fill="#c9b8a7" stroke-width="26.067" d="M192-164H88s-40 0-40 40V4h416v-96s0-40-40-40H224Z" enable-background="new" style="marker:none"/></clipPath></defs><g fill="#c9b8a7"><path fill="#000" d="M88-162s-40 0-40 40L47.965 6h.033l-.033 248.094L424 254c40 0 40-40 40-40V-90s0-40-40-40H224l-32-32z" enable-background="new" filter="url(#c)" opacity=".2" style="marker:none" transform="translate(-.293 52.435)scale(.25116)"/><path fill="url(#d)" d="M208 672H104s-40 0-40 40v128h416v-96s0-40-40-40H240Z" enable-background="new" style="marker:none" transform="translate(-4.312 -157.536)scale(.25116)"/><path fill="#000" d="m256-80-32 32H88S48-48 48-8v264h376c40 0 40-40 40-40V-40c0-40-40-40-40-40z" clip-path="url(#e)" enable-background="new" filter="url(#f)" opacity=".1" style="marker:none" transform="translate(-.293 52.435)scale(.25116)"/><path fill="url(#g)" d="m256-84-32 32H88s-40 0-40 40v264h376c40 0 40-40 40-40V-44c0-40-40-40-40-40z" enable-background="new" style="marker:none" transform="translate(-.293 52.435)scale(.25116)"/><path fill="#99c1f1" d="M480 1042s0 40-40 40l-375.998.094-.004 6L440 1088c40 0 40-40 40-40z" enable-background="new" style="font-variation-settings:normal;marker:none" transform="translate(-4.312 -157.536)scale(.25116)"/><path fill="#fff" d="m272 752-32 32H104s-40 0-40 40v4c0-40 40-42 40-42h136.591l32-32H440c5.38 0 40 2 40 42v-4c0-40-40-40-40-40z" enable-background="new" opacity=".3" style="marker:none" transform="translate(-4.312 -157.536)scale(.25116)"/></g><path fill="#3f8ae5" d="M64.053 62.232c-7.255 0-13.405 4.919-15.311 11.583-1.657-3.535-5.247-6.011-9.381-6.011-5.687 0-10.361 4.674-10.361 10.36 0 5.687 4.674 10.363 10.36 10.363 4.135 0 7.725-2.478 9.382-6.013 1.906 6.665 8.056 11.585 15.311 11.585 7.202 0 13.32-4.846 15.276-11.436 1.687 3.455 5.232 5.864 9.308 5.864C94.324 88.527 99 83.851 99 78.165c0-5.687-4.676-10.361-10.363-10.361-4.076 0-7.621 2.407-9.308 5.862-1.955-6.59-8.074-11.434-15.276-11.434m0 6.082a9.806 9.806 0 0 1 9.853 9.85 9.807 9.807 0 0 1-9.853 9.853 9.806 9.806 0 0 1-9.85-9.852 9.804 9.804 0 0 1 9.85-9.851m-24.692 5.572c2.4 0 4.28 1.879 4.28 4.279s-1.88 4.28-4.28 4.28-4.28-1.88-4.28-4.28 1.88-4.28 4.28-4.28m49.276 0c2.4 0 4.281 1.879 4.281 4.279s-1.881 4.28-4.28 4.28-4.28-1.88-4.28-4.28 1.88-4.28 4.28-4.28" color="#000" enable-background="accumulate" font-family="sans-serif" font-weight="400" overflow="visible" style="line-height:normal;text-indent:0;text-align:start;text-decoration-line:none;text-decoration-style:solid;text-decoration-color:#000;text-transform:none;white-space:normal;isolation:auto;mix-blend-mode:normal;solid-color:#000;solid-opacity:1"/></svg>