<svg xmlns="http://www.w3.org/2000/svg" xmlns:xlink="http://www.w3.org/1999/xlink" viewBox="0 0 128 128"><defs><linearGradient id="a"><stop offset="0" stop-color="#3584e4"/><stop offset="1" stop-color="#62a0ea"/></linearGradient><linearGradient id="b"><stop offset="0" stop-color="#99c1f1"/><stop offset="1" stop-color="#c3e5e7"/></linearGradient><linearGradient xlink:href="#a" id="d" x1="64" x2="480" y1="756" y2="756" gradientUnits="userSpaceOnUse"/><linearGradient xlink:href="#b" id="g" x1="152.898" x2="447.309" y1="-38.797" y2="316" gradientUnits="userSpaceOnUse"/><filter id="c" width="1.024" height="1.024" x="-.012" y="-.012" color-interpolation-filters="sRGB"><feGaussianBlur stdDeviation="2.08"/></filter><filter id="f" width="1.217" height="1.269" x="-.108" y="-.134" color-interpolation-filters="sRGB"><feGaussianBlur stdDeviation="18.8"/></filter><clipPath id="e" clipPathUnits="userSpaceOnUse"><path fill="#c9b8a7" stroke-width="26.067" d="M192-164H88s-40 0-40 40V4h416v-96s0-40-40-40H224Z" enable-background="new" style="marker:none"/></clipPath></defs><g fill="#c9b8a7"><path fill="#000" d="M88-162s-40 0-40 40L47.965 6h.033l-.033 248.094L424 254c40 0 40-40 40-40V-90s0-40-40-40H224l-32-32z" enable-background="new" filter="url(#c)" opacity=".2" style="marker:none" transform="translate(-.293 52.435)scale(.25116)"/><path fill="url(#d)" d="M208 672H104s-40 0-40 40v128h416v-96s0-40-40-40H240Z" enable-background="new" style="marker:none" transform="translate(-4.312 -157.536)scale(.25116)"/><path fill="#000" d="m256-80-32 32H88S48-48 48-8v264h376c40 0 40-40 40-40V-40c0-40-40-40-40-40z" clip-path="url(#e)" enable-background="new" filter="url(#f)" opacity=".1" style="marker:none" transform="translate(-.293 52.435)scale(.25116)"/><path fill="url(#g)" d="m256-84-32 32H88s-40 0-40 40v264h376c40 0 40-40 40-40V-44c0-40-40-40-40-40z" enable-background="new" style="marker:none" transform="translate(-.293 52.435)scale(.25116)"/><path fill="#99c1f1" d="M480 1042s0 40-40 40l-375.998.094-.004 6L440 1088c40 0 40-40 40-40z" enable-background="new" style="font-variation-settings:normal;marker:none" transform="translate(-4.312 -157.536)scale(.25116)"/><path fill="#fff" d="m272 752-32 32H104s-40 0-40 40v4c0-40 40-42 40-42h136.591l32-32H440c5.38 0 40 2 40 42v-4c0-40-40-40-40-40z" enable-background="new" opacity=".3" style="marker:none" transform="translate(-4.312 -157.536)scale(.25116)"/></g><path fill="#438de6" d="M52.554 82.223c.014.771.26 2.27.628 3.44.776 2.478 2.091 4.77 3.921 6.79 1.878 2.076 4.191 3.743 6.862 4.927 2.808 1.243 5.85 1.877 9.01 1.872a22.1 22.1 0 0 0 9.005-1.903c2.672-1.196 4.982-2.87 6.857-4.948 1.83-2.028 3.143-4.324 3.92-6.801.391-1.252.638-2.522.737-3.797a17.3 17.3 0 0 0-.122-3.77 17.5 17.5 0 0 0-2.5-6.843c-1.194-1.925-2.732-3.61-4.561-5.029l.004-.003-18.459-14.173q-.023-.02-.048-.038c-1.21-.93-3.247-.926-4.58.006-1.346.942-1.5 2.5-.302 3.483l-.005.006 7.699 6.26-23.466.025h-.031c-1.94.002-3.805 1.275-4.173 2.883-.38 1.638.938 2.997 2.954 3.005l-.003.007 11.894-.023L36.571 83.89l-.081.06c-2.002 1.534-2.65 4.083-1.389 5.697 1.28 1.64 4.002 1.643 6.025.009l11.583-9.48s-.169 1.28-.155 2.048zm29.765 4.286c-2.387 2.431-5.728 3.81-9.344 3.817-3.62.007-6.962-1.36-9.348-3.787a11.1 11.1 0 0 1-2.552-3.994 10.4 10.4 0 0 1-.586-4.463c.127-1.491.57-2.914 1.28-4.2a11.6 11.6 0 0 1 2.838-3.377c2.32-1.89 5.274-2.914 8.363-2.918 3.093-.004 6.044 1.01 8.366 2.894a11.5 11.5 0 0 1 2.836 3.366 10.5 10.5 0 0 1 1.284 4.199 10.4 10.4 0 0 1-.588 4.46 11.2 11.2 0 0 1-2.549 4.003M65.26 78.23c.11-1.97 1.075-3.707 2.531-4.938 1.428-1.209 3.35-1.948 5.447-1.948 2.095 0 4.017.74 5.446 1.948 1.455 1.231 2.42 2.967 2.531 4.936.11 2.025-.703 3.906-2.131 5.301-1.456 1.418-3.527 2.308-5.846 2.308s-4.394-.89-5.849-2.308c-1.429-1.395-2.24-3.276-2.13-5.299" clip-rule="evenodd"/></svg>