<svg xmlns="http://www.w3.org/2000/svg" xmlns:xlink="http://www.w3.org/1999/xlink" viewBox="0 0 128 128"><defs><linearGradient xlink:href="#a" id="h" x1="88.596" x2="536.596" y1="-449.394" y2="-449.394" gradientTransform="matrix(.1116 0 0 .11409 -101.484 243.372)" gradientUnits="userSpaceOnUse"/><linearGradient id="a"><stop offset="0" stop-color="#77767b"/><stop offset=".036" stop-color="#c0bfbc"/><stop offset=".071" stop-color="#9a9996"/><stop offset=".929" stop-color="#9a9996"/><stop offset=".964" stop-color="#c0bfbc"/><stop offset="1" stop-color="#77767b"/></linearGradient><linearGradient id="e"><stop offset="0" stop-color="#50dbb5"/><stop offset="1" stop-color="#4a86cf"/></linearGradient><linearGradient id="c"><stop offset="0" stop-color="#f46e6e"/><stop offset="1" stop-color="#ef2929"/></linearGradient><linearGradient xlink:href="#b" id="k" x1="461.963" x2="45.963" y1="204" y2="204" gradientTransform="matrix(.25 0 0 .25 -12.484 311.383)" gradientUnits="userSpaceOnUse"/><linearGradient id="b"><stop offset="0" stop-color="#a60c0c"/><stop offset=".042" stop-color="#ef2929"/><stop offset=".083" stop-color="#a60c0c"/><stop offset=".917" stop-color="#a60c0c"/><stop offset=".958" stop-color="#ef2929"/><stop offset="1" stop-color="#a60c0c"/></linearGradient><linearGradient xlink:href="#c" id="l" x1="-161.849" x2="-161.849" y1="-9.335" y2="82.249" gradientTransform="translate(210.173 279.734)" gradientUnits="userSpaceOnUse"/><radialGradient xlink:href="#e" id="j" cx="106.667" cy="-60.348" r="225" fx="106.667" fy="-60.348" gradientTransform="matrix(.22559 0 0 .1449 -105.053 171.613)" gradientUnits="userSpaceOnUse"/><clipPath id="f" clipPathUnits="userSpaceOnUse"/></defs><g transform="matrix(1.4 0 0 1.4 178.235 -195.668)"><g stroke-width="1.188" clip-path="url(#f)" transform="matrix(.0826 0 0 .08445 -111.355 134.759)"><path fill="#9a9996" d="M429.482 475.975h224.804c13.947 0 25.176 10.982 25.176 24.623v261.4c0 13.641-11.229 24.623-25.176 24.623H429.482c-13.948 0-25.176-10.982-25.176-24.623v-261.4c0-13.641 11.228-24.623 25.176-24.623" style="font-variation-settings:normal;marker:none"/><path fill="#818084" d="M404.306 394.64h275.156v310.646H404.306z"/></g><rect width="50" height="34.683" x="-91.596" y="157.417" fill="url(#h)" rx="4.545" ry="4.545" style="marker:none"/><rect width="50" height="38.636" x="-91.596" y="151.192" fill="#deddda" rx="4.545" ry="4.545" style="marker:none"/><rect width="45.455" height="32.955" x="-89.323" y="153.464" fill="#241f31" rx="2.273" ry="2.273" style="marker:none"/><rect width="43.182" height="30.564" x="-88.187" y="154.718" fill="url(#j)" rx="1.019" ry="1.019" style="marker:none"/></g><g transform="translate(8.764 -167.987)scale(.76923)"><rect width="104" height="100" x="-.993" y="274.383" fill="url(#k)" rx="8" ry="8" style="marker:none"/><path fill-opacity=".059" d="M103.007 359.038a7.47 7.47 0 0 1-7.492 7.345h-.5v1h.5a8.49 8.49 0 0 0 7.492-4.482zm-42 7.345 34 1v-1z"/><path fill-opacity=".043" d="M103.007 363.038a7.47 7.47 0 0 1-7.492 7.345h-.5v1h.5a8.49 8.49 0 0 0 7.463-4.428c.013-.19.03-.379.03-.572zm-42 7.345 34 1v-1z"/><rect width="104" height="92" x="-.993" y="270.383" fill="#babdb6" rx="8" ry="8" style="marker:none"/><path fill="url(#l)" d="M7.007 270.383c-4.432 0-8 3.568-8 8v10.399h21.895v-18.399zm19.37 0v18.399h49.261v-18.399zm54.736 0v18.399h21.894v-10.399c0-4.432-3.568-8-8-8zM-.993 294.916v18.399h49.264v-18.399zm54.737 0v18.399h49.263v-18.399Zm-54.737 24.53v18.396h21.895v-18.396zm27.37 0v18.396h49.261v-18.396zm54.736 0v18.396h21.894v-18.396zM-.993 343.975v10.408a7.98 7.98 0 0 0 7.969 7.998l41.295-.008v-18.398zm54.737 0v18.398h41.459a7.977 7.977 0 0 0 7.804-7.99v-10.408zm41.443 18.398-88.18.01h88c.06 0 .12-.008.18-.01" style="marker:none"/><path fill="#888d81" d="M48.276 362.38h5.46l.001 11.998H48.27v-11.993c0-.003.006-.006.006-.006" paint-order="stroke fill markers"/></g></svg>