<svg xmlns="http://www.w3.org/2000/svg" xmlns:xlink="http://www.w3.org/1999/xlink" viewBox="0 0 128 128"><defs><linearGradient xlink:href="#a" id="b" x1="2689.252" x2="2918.07" y1="-1106.803" y2="-1106.803" gradientUnits="userSpaceOnUse"/><linearGradient id="a"><stop offset="0" stop-color="#62a0ea"/><stop offset=".058" stop-color="#afd4ff"/><stop offset=".122" stop-color="#62a0ea"/><stop offset=".873" stop-color="#62a0ea"/><stop offset=".956" stop-color="#c0d5ea"/><stop offset="1" stop-color="#62a0ea"/></linearGradient></defs><g stroke-width="1.264"><path fill="#438de6" d="M21.978 11.986a9.956 9.979 0 0 0-9.978 10v86.033a9.956 9.979 0 0 0 9.978 10h84.044a9.956 9.979 0 0 0 9.978-10V35.931a11.973 12 0 0 0-11.974-12H58a6.49 6.505 0 0 1-5.799-3.58l-1.503-2.993A9.74 9.762 0 0 0 42 11.986z"/><path fill="url(#b)" d="M2808.014-1273.645a21.9 21.9 0 0 0-15.465 6.343c-5.003 4.955-11.848 11.22-18.993 11.22h-62.35a21.906 21.906 0 0 0-21.954 21.952v118.618a21.906 21.906 0 0 0 21.954 21.953h184.91a21.906 21.906 0 0 0 21.954-21.953v-136.18a21.906 21.906 0 0 0-21.955-21.953z" transform="matrix(.45451 0 0 .45552 -1210.292 616.157)"/><path fill="#a4caee" d="M65.978 31.986a9.954 9.976 0 0 0-7.029 2.89c-2.273 2.257-5.385 5.11-8.632 5.11H21.978a9.956 9.979 0 0 0-9.978 10v55.978a9.956 9.979 0 0 0 9.978 10h84.044a9.956 9.979 0 0 0 9.978-10V41.986a9.956 9.979 0 0 0-9.979-10z"/></g><path fill="#438de6" d="M66.298 59.985c-.277 0-.556.012-.832.004h-4.089c-1.013-.023-1.996.705-2.211 1.705-.136.558-.064 1.133-.083 1.7v1.182H51.35c-1.17 0-2.108.94-2.108 2.109v10.541c0 1.17.938 2.109 2.108 2.109h8.433v-4.217c0-1.17.94-2.108 2.109-2.108h4.216c1.17 0 2.109.939 2.109 2.108v4.217h8.433c1.17 0 2.108-.94 2.108-2.109V66.685c0-1.17-.938-2.109-2.108-2.109h-7.733c-.007-.841.011-1.683-.013-2.524-.07-.966-.825-1.833-1.783-2.005a4.3 4.3 0 0 0-.823-.062m-4.876 1.968h5.201c.314-.008.352.332.33.568v2.055h-5.901c.004-.787-.007-1.577.008-2.363.036-.2.192-.25.362-.26m.47 13.165v6.325h4.216v-6.325zM51.35 81.443v8.434c0 1.169.939 2.108 2.108 2.108h21.084c1.17 0 2.108-.939 2.108-2.108v-8.434h-8.433c0 1.17-.94 2.108-2.109 2.108h-4.216a2.1 2.1 0 0 1-2.109-2.108z"/></svg>