<svg xmlns="http://www.w3.org/2000/svg" xmlns:xlink="http://www.w3.org/1999/xlink" viewBox="0 0 128 128"><defs><linearGradient id="a"><stop offset="0" stop-color="#3584e4"/><stop offset="1" stop-color="#62a0ea"/></linearGradient><linearGradient id="b"><stop offset="0" stop-color="#99c1f1"/><stop offset="1" stop-color="#c3e5e7"/></linearGradient><linearGradient xlink:href="#a" id="d" x1="64" x2="480" y1="756" y2="756" gradientTransform="translate(-4.312 -157.536)scale(.25116)" gradientUnits="userSpaceOnUse"/><linearGradient xlink:href="#b" id="h" x1="152.898" x2="447.309" y1="-38.797" y2="316" gradientTransform="translate(-.293 52.435)scale(.25116)" gradientUnits="userSpaceOnUse"/><filter id="c" width="1.024" height="1.024" x="-.012" y="-.012" color-interpolation-filters="sRGB"><feGaussianBlur stdDeviation="2.08"/></filter><filter id="f" width="1.217" height="1.269" x="-.108" y="-.134" color-interpolation-filters="sRGB"><feGaussianBlur stdDeviation="18.8"/></filter><clipPath id="e" clipPathUnits="userSpaceOnUse"><path fill="#c9b8a7" stroke-width="26.067" d="M192-164H88s-40 0-40 40V4h416v-96s0-40-40-40H224Z" enable-background="new" style="marker:none"/></clipPath></defs><path d="M88-162s-40 0-40 40L47.965 6h.033l-.033 248.094L424 254c40 0 40-40 40-40V-90s0-40-40-40H224l-32-32z" enable-background="new" filter="url(#c)" opacity=".2" style="marker:none" transform="translate(-.293 52.435)scale(.25116)"/><path fill="url(#d)" d="M47.93 11.244H21.81s-10.047 0-10.047 10.047v32.148h104.483V29.328s0-10.047-10.046-10.047H55.967Z" enable-background="new" style="marker:none"/><path d="m256-80-32 32H88S48-48 48-8v264h376c40 0 40-40 40-40V-40c0-40-40-40-40-40z" clip-path="url(#e)" enable-background="new" filter="url(#f)" opacity=".1" style="marker:none" transform="translate(-.293 52.435)scale(.25116)"/><path fill="url(#h)" d="m64.004 31.337-8.037 8.037H21.81s-10.046 0-10.046 10.047v66.306H106.2c10.046 0 10.046-10.046 10.046-10.046V41.384c0-10.047-10.046-10.047-10.046-10.047z" enable-background="new" style="marker:none"/><path fill="#99c1f1" d="M116.246 104.174s0 10.047-10.046 10.047l-94.437.023v1.507l94.437-.024c10.046 0 10.046-10.046 10.046-10.046z" enable-background="new" style="font-variation-settings:normal;marker:none"/><path fill="#fff" d="m64.004 31.337-8.037 8.037H21.81s-10.046 0-10.046 10.047v1.005c0-10.047 10.046-10.55 10.046-10.55h34.307l8.037-8.036H106.2c1.35 0 10.046.502 10.046 10.548v-1.004c0-10.047-10.046-10.047-10.046-10.047z" enable-background="new" opacity=".3" style="marker:none"/><path fill="#438de6" d="m88.315 70.423-.07-.18-6.846-17.865a1.8 1.8 0 0 0-.704-.848 1.83 1.83 0 0 0-2.095.112 1.83 1.83 0 0 0-.608.922l-4.622 14.14H54.655l-4.622-14.14a1.8 1.8 0 0 0-.607-.924 1.83 1.83 0 0 0-2.095-.113 1.8 1.8 0 0 0-.704.848l-6.859 17.857-.068.18a12.71 12.71 0 0 0 4.216 14.69l.023.02.062.044 10.428 7.809 5.158 3.904 3.143 2.372a2.11 2.11 0 0 0 2.556 0l3.142-2.372 5.159-3.905 10.49-7.855.025-.021a12.716 12.716 0 0 0 4.211-14.675Z" class="cls-1"/></svg>