<svg xmlns="http://www.w3.org/2000/svg" xmlns:xlink="http://www.w3.org/1999/xlink" viewBox="0 0 128 128"><defs><linearGradient xlink:href="#a" id="d" x1="953.275" x2="944.207" y1="350.856" y2="359.924" gradientUnits="userSpaceOnUse"/><linearGradient id="a"><stop offset="0" stop-color="#e9b96e"/><stop offset="1" stop-color="#dc9321"/></linearGradient><linearGradient xlink:href="#b" id="e" x1="418.838" x2="428.919" y1="227" y2="216.919" gradientUnits="userSpaceOnUse"/><linearGradient id="b"><stop offset="0" stop-color="#bcbcb4"/><stop offset="1" stop-color="#eeeeec"/></linearGradient><linearGradient id="c"><stop offset="0" stop-color="#505050"/><stop offset="1"/></linearGradient><radialGradient xlink:href="#c" id="f" cx="450.948" cy="225.395" r="40" fx="450.948" fy="225.395" gradientTransform="translate(-305.28 49.12)scale(1.64648)" gradientUnits="userSpaceOnUse"/></defs><path fill="#f6f5f4" d="M27.977 8h50l30.043 29.918.001 74.06c0 4.432-3.612 8.022-8.044 8.022h-72c-4.432 0-8-3.568-8-8V16c0-4.432 3.568-8 8-8"/><path fill="#deddda" d="M77.977 8v22c0 4.432 3.61 7.924 8.042 7.924l22.001-.006Z"/><g stroke-width=".166" transform="translate(-89.051 2.925)scale(.37714)"><path fill="url(#d)" d="m931.516 348.484 108 108c4.656 4.85 12.388 4.928 17.142.174s4.676-12.486-.174-17.142L964.97 348c-10.383-8.905-24.97-8-33.453.484" color="#000" font-family="sans-serif" font-weight="400" overflow="visible" style="line-height:normal;font-variant-ligatures:normal;font-variant-position:normal;font-variant-caps:normal;font-variant-numeric:normal;font-variant-alternates:normal;font-feature-settings:normal;text-indent:0;text-align:start;text-decoration-line:none;text-decoration-style:solid;text-decoration-color:#000;text-transform:none;text-orientation:mixed;white-space:normal;shape-padding:0;isolation:auto;mix-blend-mode:normal;solid-color:#000;solid-opacity:1" transform="translate(-600 -212)"/><path fill="url(#e)" d="M391.832 163.838a16.002 16.002 0 0 0-11.146 27.476l56 56a16.002 16.002 0 1 0 22.628-22.628l-56-56a16 16 0 0 0-11.482-4.848" color="#000" font-family="sans-serif" font-weight="400" overflow="visible" style="line-height:normal;font-variant-ligatures:normal;font-variant-position:normal;font-variant-caps:normal;font-variant-numeric:normal;font-variant-alternates:normal;font-feature-settings:normal;text-indent:0;text-align:start;text-decoration-line:none;text-decoration-style:solid;text-decoration-color:#000;text-transform:none;text-orientation:mixed;white-space:normal;shape-padding:0;isolation:auto;mix-blend-mode:normal;solid-color:#000;solid-opacity:1"/><path fill="url(#f)" d="M440 400c-22.091 0-40 17.909-40 40s17.909 40 40 40h40v-40c0-22.091-17.909-40-40-40" style="marker:none" transform="translate(0 -212)"/><circle cx="436" cy="-208.355" r="6.355" fill="#7a8599" color="#000" overflow="visible" style="marker:none" transform="scale(1 -1)"/></g></svg>