<svg xmlns="http://www.w3.org/2000/svg" xmlns:xlink="http://www.w3.org/1999/xlink" viewBox="0 0 128 128"><defs><radialGradient xlink:href="#a" id="c" cx="413.639" cy="226.773" r="192" fx="413.639" fy="226.773" gradientTransform="rotate(-60 14.009 111.098)scale(.46264 .28262)" gradientUnits="userSpaceOnUse"/><radialGradient xlink:href="#b" id="d" cx="521.89" cy="228.371" r="192" fx="521.89" fy="228.371" gradientTransform="matrix(0 .27843 -.28405 0 110.847 -251.311)" gradientUnits="userSpaceOnUse"/><linearGradient id="a"><stop offset="0" stop-color="#50db81"/><stop offset="1" stop-color="#8ff0a4" stop-opacity=".004"/></linearGradient><linearGradient id="b"><stop offset="0" stop-color="#4a86cf"/><stop offset="1" stop-color="#87bae1" stop-opacity="0"/></linearGradient></defs><path fill="#f6f5f4" d="M27.977 8h50l30.043 29.918.001 74.06c0 4.432-3.612 8.022-8.044 8.022h-72c-4.432 0-8-3.568-8-8V16c0-4.432 3.568-8 8-8"/><path fill="#deddda" d="M77.977 8v22c0 4.432 3.61 7.924 8.042 7.924l22.001-.006Z"/><rect width="16" height="4" x="79.978" y="100" fill="#deddda" paint-order="markers stroke fill" rx="2" ry="2"/><rect width="16" height="4" x="79.978" y="92" fill="#deddda" paint-order="markers stroke fill" rx="2" ry="2"/><rect width="16" height="4" x="79.978" y="84" fill="#deddda" paint-order="markers stroke fill" rx="2" ry="2"/><rect width="16" height="4" x="79.978" y="76" fill="#deddda" paint-order="markers stroke fill" rx="2" ry="2"/><rect width="16" height="4" x="79.978" y="68" fill="#deddda" paint-order="markers stroke fill" rx="2" ry="2"/><rect width="16" height="4" x="79.978" y="60" fill="#deddda" paint-order="markers stroke fill" rx="2" ry="2"/><rect width="16" height="4" x="79.978" y="52" fill="#deddda" paint-order="markers stroke fill" rx="2" ry="2"/><rect width="64" height="4" x="31.978" y="44" fill="#deddda" paint-order="markers stroke fill" rx="2" ry="2"/><rect width="40" height="4" x="31.978" y="36" fill="#deddda" paint-order="markers stroke fill" rx="2" ry="1.325"/><rect width="40" height="4" x="31.978" y="28" fill="#deddda" paint-order="markers stroke fill" rx="2" ry="1.325"/><rect width="42" height="50.035" x="31.978" y="-104" fill="url(#c)" rx="4" ry="4" style="marker:none" transform="scale(1 -1)"/><rect width="42" height="50.035" x="31.978" y="-104" fill="url(#d)" rx="4" ry="4" style="marker:none" transform="scale(1 -1)"/></svg>