<svg xmlns="http://www.w3.org/2000/svg" xmlns:xlink="http://www.w3.org/1999/xlink" xml:space="preserve" viewBox="0 0 128 128"><defs><linearGradient id="a"><stop offset="0" stop-color="#152671"/><stop offset=".042" stop-color="#6d83e4"/><stop offset=".083" stop-color="#152671"/><stop offset=".917" stop-color="#152671"/><stop offset=".958" stop-color="#6d82e4"/><stop offset="1" stop-color="#152671"/></linearGradient><linearGradient xlink:href="#a" id="c" x1="48" x2="464" y1="44" y2="44" gradientTransform="matrix(.25 0 0 .25 0 53)" gradientUnits="userSpaceOnUse"/><linearGradient id="b" x1="128" x2="128" y1="41.25" y2="256" gradientTransform="translate(-100 12)scale(.39063)" gradientUnits="userSpaceOnUse"><stop stop-color="#152671"/><stop offset="1" stop-color="#5669bd"/></linearGradient><linearGradient xlink:href="#b" id="d" x1="63.757" x2="64" y1="24.731" y2="114" gradientUnits="userSpaceOnUse"/></defs><rect width="104" height="84" x="12" y="32" fill="url(#c)" rx="8" ry="8" style="marker:none"/><rect width="104" height="100" x="12" y="12" fill="url(#d)" rx="8" ry="8" style="marker:none"/><path fill="#fff" d="M63.757 28.41a2.15 2.15 0 0 0-2.004 2.145v26.2L37.41 32.34a2.1 2.1 0 0 0-2.97 0 2.11 2.11 0 0 0 0 2.98L58.85 59.8H32.8a2.15 2.15 0 1 0 0 4.302h25.957L34.445 88.488a2.11 2.11 0 0 0 0 2.98 2.1 2.1 0 0 0 2.968 0l24.34-24.411v26.091a2.15 2.15 0 1 0 4.301 0V67.025L90.425 91.47l.004.004a2.1 2.1 0 0 0 2.965-.004 2.11 2.11 0 0 0 0-2.98L69.077 64.101h26.125a2.15 2.15 0 0 0 2.149-2.149l-.004-.004a2.15 2.15 0 0 0-2.152-2.148H68.99l24.408-24.48a2.11 2.11 0 0 0 0-2.981h-.008a2.1 2.1 0 0 0-2.969 0L66.054 56.78V30.555a2.15 2.15 0 0 0-2.297-2.145"/></svg>