<svg xmlns="http://www.w3.org/2000/svg" xmlns:xlink="http://www.w3.org/1999/xlink" xml:space="preserve" viewBox="0 0 128 128"><defs><linearGradient id="d" x1="0" x2="118.926" y1="269.463" y2="269.463" gradientTransform="matrix(1 0 0 .98333 -118 -175.033)" gradientUnits="userSpaceOnUse"><stop offset="0"/><stop offset=".414" stop-color="#fff"/><stop offset=".813"/><stop offset="1" stop-color="#cdcdcd"/></linearGradient><linearGradient id="n" x1="148.44" x2="351.56" y1="351.56" y2="148.44" gradientTransform="matrix(.24002 0 0 .23603 3.991 2.99)" gradientUnits="userSpaceOnUse" href="#a"/><linearGradient id="a"><stop offset=".5" stop-color="#bf0000"/><stop offset="1" stop-color="red"/></linearGradient><linearGradient id="m" x1="364.25" x2="114.96" y1="27.66" y2="460.42" gradientTransform="matrix(.24002 0 0 .23603 3.991 2.99)" gradientUnits="userSpaceOnUse" href="#b"/><linearGradient id="b"><stop offset="0" stop-color="maroon"/><stop offset="1" stop-color="#300"/></linearGradient><linearGradient id="l" x1="135.75" x2="385.04" y1="472.42" y2="39.64" gradientTransform="matrix(.24002 0 0 .23603 3.991 2.99)" gradientUnits="userSpaceOnUse" href="#c"/><linearGradient id="c"><stop offset="0" stop-color="red"/><stop offset="1" stop-color="#f66"/></linearGradient><linearGradient xlink:href="#d" id="j" x1="-104.643" x2="3.357" y1="176.512" y2="176.512" gradientTransform="matrix(1.11111 0 0 1.0926 120.27 -126.856)" gradientUnits="userSpaceOnUse"/><linearGradient xlink:href="#c" id="e" x1="135.75" x2="385.04" y1="472.42" y2="39.64" gradientTransform="matrix(.24002 0 0 .23603 3.991 6.99)" gradientUnits="userSpaceOnUse"/><linearGradient xlink:href="#b" id="f" x1="364.25" x2="114.96" y1="27.66" y2="460.42" gradientTransform="matrix(.24002 0 0 .23603 3.991 6.99)" gradientUnits="userSpaceOnUse"/><linearGradient xlink:href="#a" id="h" x1="148.44" x2="351.56" y1="351.56" y2="148.44" gradientTransform="matrix(.24002 0 0 .23603 3.991 6.99)" gradientUnits="userSpaceOnUse"/></defs><path fill="url(#e)" d="M94 14.902 33.993 117.096A60.005 59.002 0 0 0 115.961 95.5a60.005 59.002 0 0 0-21.962-80.598"/><path fill="url(#f)" d="M94 14.902a60.005 59.002 0 0 0-81.962 21.596 60.005 59.002 0 0 0 21.96 80.594l.01.009 60-102.194z"/><path fill="#fff" d="M36.575 118.492a59 59 0 0 1-4.99-2.832v-4l59.843-98.154a59 59 0 0 1 4.989 2.832l-59.842 98.154Z"/><path fill="#fff" d="M33.994 65.997a30.003 29.503 0 1 0 60.005 0 30.003 29.503 0 1 0-60.005 0"/><path fill="url(#h)" d="M39.623 65.997a24.379 23.973 0 1 0 48.757 0 24.379 23.973 0 0 0-48.757 0"/><path fill="url(#j)" d="M124 66a60 59 0 0 1-60 59A60 59 0 0 1 4 66 60 59 0 0 1 64 7a60 59 0 0 1 60 59" opacity=".5"/><path fill="url(#l)" d="M94 10.902 33.993 113.096A60.005 59.002 0 0 0 115.961 91.5a60.005 59.002 0 0 0-21.962-80.598"/><path fill="url(#m)" d="M94 10.902a60.005 59.002 0 0 0-81.962 21.596 60.005 59.002 0 0 0 21.96 80.594l.01.009 60-102.194z"/><path fill="#fff" d="M36.575 114.492a58.962 57.981 0 0 1-4.99-2.832L91.429 9.506a58.962 57.981 0 0 1 4.989 2.832z"/><path fill="#fff" d="M33.994 61.997a30.003 29.503 0 1 0 60.005 0 30.003 29.503 0 1 0-60.005 0"/><path fill="url(#n)" d="M39.623 61.997a24.379 23.973 0 1 0 48.757 0 24.379 23.973 0 0 0-48.757 0"/></svg>