<svg xmlns="http://www.w3.org/2000/svg" xmlns:xlink="http://www.w3.org/1999/xlink" xml:space="preserve" enable-background="new" viewBox="0 0 128 128"><defs><linearGradient id="a"><stop offset="0" stop-color="#2e114a"/><stop offset=".042" stop-color="#61249e"/><stop offset=".083" stop-color="#2e114a"/><stop offset=".917" stop-color="#2e114a"/><stop offset=".958" stop-color="#62249e"/><stop offset="1" stop-color="#2e114a"/></linearGradient><linearGradient xlink:href="#a" id="c" x1="48" x2="464" y1="44" y2="44" gradientTransform="matrix(.25 0 0 .25 0 53)" gradientUnits="userSpaceOnUse"/><linearGradient xlink:href="#b" id="d" x1="64" x2="64" y1="12" y2="112" gradientUnits="userSpaceOnUse"/><linearGradient id="b" x1="512" x2="512" y1="100" y2="924" gradientTransform="translate(-112.136 -.136)scale(.12136)" gradientUnits="userSpaceOnUse"><stop stop-color="#2e114a"/><stop offset=".943" stop-color="#07051b"/></linearGradient><linearGradient id="e" x1="511.5" x2="511.5" y1="210.416" y2="812.584" gradientTransform="translate(1.925 -.136)scale(.12136)" gradientUnits="userSpaceOnUse"><stop stop-color="#2e114a"/><stop offset=".943" stop-color="#07051b"/></linearGradient><linearGradient id="g" x1="271.391" x2="271.391" y1="814" y2="209" gradientUnits="userSpaceOnUse"><stop stop-opacity=".73"/><stop offset="1" stop-color="#f1f1f1" stop-opacity=".94"/></linearGradient><linearGradient id="h" x1="172.133" x2="814" y1="251.539" y2="814" gradientUnits="userSpaceOnUse"><stop stop-color="#6ad2fa"/><stop offset=".495" stop-color="#7669fa"/><stop offset=".745" stop-color="#8850e4"/><stop offset="1" stop-color="#ce0ebb"/></linearGradient><linearGradient id="j" x1="284.297" x2="284.297" y1="792" y2="227" gradientUnits="userSpaceOnUse"><stop stop-opacity=".73"/><stop offset="1" stop-color="#f1f1f1" stop-opacity=".94"/></linearGradient><linearGradient id="k" x1="513.915" x2="513.915" y1="230" y2="395.12" gradientTransform="translate(1.925 -.136)scale(.12136)" gradientUnits="userSpaceOnUse"><stop stop-color="#621ea6" stop-opacity=".89"/><stop offset="1" stop-color="#cccad1" stop-opacity="0"/></linearGradient><linearGradient id="l" x1="512.464" x2="512.464" y1="585.234" y2="586.234" gradientTransform="translate(1.925 -.136)scale(.12136)" gradientUnits="userSpaceOnUse"><stop stop-opacity="0"/><stop offset=".229" stop-opacity=".37"/><stop offset=".646" stop-opacity=".047"/><stop offset="1" stop-opacity="0"/></linearGradient><linearGradient id="n" x1="511.38" x2="511.38" y1="407.017" y2="621.306" gradientUnits="userSpaceOnUse"><stop stop-color="#e9e9e9"/><stop offset="1" stop-color="#a59ade"/></linearGradient><filter id="f" width="645" height="642.167" x="189" y="194.416" color-interpolation-filters="sRGB" filterUnits="userSpaceOnUse"><feFlood flood-opacity="0" result="BackgroundImageFix"/><feColorMatrix in="SourceAlpha" result="hardAlpha" values="0 0 0 0 0 0 0 0 0 0 0 0 0 0 0 0 0 0 127 0"/><feOffset dy="4"/><feGaussianBlur stdDeviation="2"/><feComposite in2="hardAlpha" operator="out"/><feColorMatrix values="0 0 0 0 0 0 0 0 0 0 0 0 0 0 0 0 0 0 0.25 0"/><feBlend in2="BackgroundImageFix" result="effect1_dropShadow_1_2"/><feBlend in="SourceGraphic" in2="effect1_dropShadow_1_2" result="shape"/></filter><filter id="i" width="573" height="568.5" x="225" y="227" color-interpolation-filters="sRGB" filterUnits="userSpaceOnUse"><feFlood flood-opacity="0" result="BackgroundImageFix"/><feBlend in="SourceGraphic" in2="BackgroundImageFix" result="shape"/><feColorMatrix in="SourceAlpha" result="hardAlpha" values="0 0 0 0 0 0 0 0 0 0 0 0 0 0 0 0 0 0 127 0"/><feOffset/><feGaussianBlur stdDeviation="8"/><feComposite in2="hardAlpha" k2="-1" k3="1" operator="arithmetic"/><feColorMatrix values="0 0 0 0 0 0 0 0 0 0 0 0 0 0 0 0 0 0 1 0"/><feBlend in2="shape" result="effect1_innerShadow_1_2"/></filter><filter id="m" width="450.579" height="237.289" x="286.091" y="392.017" color-interpolation-filters="sRGB" filterUnits="userSpaceOnUse"><feFlood flood-opacity="0" result="BackgroundImageFix"/><feColorMatrix in="SourceAlpha" result="hardAlpha" values="0 0 0 0 0 0 0 0 0 0 0 0 0 0 0 0 0 0 127 0"/><feOffset dy="-4"/><feGaussianBlur stdDeviation="5.5"/><feComposite in2="hardAlpha" operator="out"/><feColorMatrix values="0 0 0 0 1 0 0 0 0 1 0 0 0 0 1 0 0 0 0.14 0"/><feBlend in2="BackgroundImageFix" result="effect1_dropShadow_1_2"/><feColorMatrix in="SourceAlpha" result="hardAlpha" values="0 0 0 0 0 0 0 0 0 0 0 0 0 0 0 0 0 0 127 0"/><feOffset dy="4"/><feGaussianBlur stdDeviation="2"/><feComposite in2="hardAlpha" operator="out"/><feColorMatrix values="0 0 0 0 0 0 0 0 0 0 0 0 0 0 0 0 0 0 0.25 0"/><feBlend in2="effect1_dropShadow_1_2" result="effect2_dropShadow_1_2"/><feBlend in="SourceGraphic" in2="effect2_dropShadow_1_2" result="shape"/></filter></defs><rect width="104" height="84" x="12" y="32" fill="url(#c)" rx="8" ry="8" style="marker:none"/><rect width="104" height="100" x="12" y="12" fill="url(#d)" rx="8" ry="8" style="marker:none"/><path fill="url(#e)" fill-rule="evenodd" d="M64.651 25.554a1.46 1.46 0 0 0-1.302 0L28.094 43.18a1.46 1.46 0 0 0-.805 1.303v34.91c0 .552.311 1.057.805 1.303l35.255 17.628c.41.205.892.205 1.302 0l35.255-17.628c.494-.246.805-.75.805-1.302v-34.91c0-.552-.311-1.056-.805-1.303z" clip-rule="evenodd"/><g fill="none" filter="url(#f)" shape-rendering="crispEdges" transform="translate(1.925 -.136)scale(.12136)"><path fill="url(#g)" fill-opacity=".2" d="M506.133 211.683a12 12 0 0 1 10.734 0l290.5 145.25A12 12 0 0 1 814 367.666v287.668a12 12 0 0 1-6.633 10.733l-290.5 145.25a12 12 0 0 1-10.734 0l-290.5-145.25A12 12 0 0 1 209 655.334V367.666a12 12 0 0 1 6.633-10.733z"/><path stroke="url(#h)" stroke-linecap="square" stroke-linejoin="round" stroke-width="32" d="M506.133 211.683a12 12 0 0 1 10.734 0l290.5 145.25A12 12 0 0 1 814 367.666v287.668a12 12 0 0 1-6.633 10.733l-290.5 145.25a12 12 0 0 1-10.734 0l-290.5-145.25A12 12 0 0 1 209 655.334V367.666a12 12 0 0 1 6.633-10.733z"/></g><g fill="none" filter="url(#i)" transform="translate(1.925 -.136)scale(.12136)"><path fill="url(#j)" fill-opacity=".2" d="M512.5 227 798 371v282.5l-287.5 142-285.5-142V371Z"/></g><path fill="url(#k)" fill-opacity=".3" d="M63.94 27.534 29.23 44.828l34.71 17.657 34.83-17.657Z"/><path fill="none" stroke="url(#l)" stroke-width=".121" d="M37.958 70.888h51.97"/><g fill="none" filter="url(#m)" transform="translate(1.925 -.136)scale(.12136)"><path fill="url(#n)" fill-rule="evenodd" d="M297.091 421.017c0-7.732 6.268-14 14-14h400.578c7.732 0 14 6.268 14 14v186.289c0 7.732-6.268 14-14 14H311.091c-7.732 0-14-6.268-14-14zm35.714 26.715a5 5 0 0 1 5-5h25.715a5 5 0 0 1 5 5v97.145a5 5 0 0 1-5 5h-25.715a5 5 0 0 1-5-5zm76.43-5a5 5 0 0 0-5 5v97.145a5 5 0 0 0 5 5h25.715a5 5 0 0 0 5-5v-97.145a5 5 0 0 0-5-5zm66.43 5a5 5 0 0 1 5-5h25.715a5 5 0 0 1 5 5v97.145a5 5 0 0 1-5 5h-25.715a5 5 0 0 1-5-5zm76.601-5.161a5 5 0 0 0-5 5v97.145a5 5 0 0 0 5 5h25.715a5 5 0 0 0 5-5v-97.145a5 5 0 0 0-5-5z" clip-rule="evenodd"/></g><path fill="#472ea8" d="M37.98 70.931h52.01v2.878c0 .804-.652 1.456-1.456 1.456h-49.1a1.456 1.456 0 0 1-1.456-1.456z"/></svg>