<svg xmlns="http://www.w3.org/2000/svg" xmlns:xlink="http://www.w3.org/1999/xlink" xml:space="preserve" viewBox="0 0 128 128"><defs><linearGradient id="a"><stop offset="0" stop-color="#ad9d00"/><stop offset=".042" stop-color="#fff27a"/><stop offset=".083" stop-color="#ad9c00"/><stop offset=".917" stop-color="#ad9c00"/><stop offset=".958" stop-color="#fff27a"/><stop offset="1" stop-color="#ad9c00"/></linearGradient><linearGradient xlink:href="#a" id="b" x1="48" x2="464" y1="44" y2="44" gradientTransform="matrix(.25 0 0 .25 0 53)" gradientUnits="userSpaceOnUse"/></defs><rect width="104" height="84" x="12" y="32" fill="url(#b)" rx="8" ry="8" style="marker:none"/><rect width="104" height="100" x="12" y="12" fill="#ffe812" rx="8" ry="8" style="marker:none"/><path d="M64 26.063c-22.437 0-40.625 14.34-40.625 32.03 0 11.438 7.605 21.473 19.043 27.14-.622 2.146-4 13.806-4.135 14.722 0 0-.08.689.365.951.446.263.971.059.971.059 1.278-.179 14.822-9.692 17.166-11.344a51.4 51.4 0 0 0 7.215.504c22.437 0 40.625-14.34 40.625-32.031S86.437 26.063 64 26.063m-28.46 22.46h12a2.3 2.3 0 0 1 2.3 2.295 2.3 2.3 0 0 1-2.3 2.295h-3.657v13.924c0 1.234-1.051 2.238-2.344 2.238s-2.344-1.004-2.344-2.238V53.113H35.54a2.3 2.3 0 0 1-2.3-2.295 2.3 2.3 0 0 1 2.3-2.295m19.864 0c1.531.035 2.732 1.192 3.127 2.317l5.604 14.75c.713 2.215.091 3.035-.555 3.332a3.6 3.6 0 0 1-1.49.322c-.978 0-1.724-.397-1.95-1.035l-1.16-3.037h-7.148l-1.16 3.039c-.225.637-.972 1.033-1.95 1.033a3.6 3.6 0 0 1-1.49-.322c-.646-.298-1.266-1.118-.554-3.328l5.605-14.756c.395-1.122 1.595-2.28 3.121-2.315m12.649 0c1.319 0 2.392 1.052 2.392 2.344v13.77h4.98c1.24 0 2.247.964 2.247 2.148s-1.008 2.149-2.246 2.149h-7.52c-1.238 0-2.246-.964-2.246-2.149V50.867c0-1.292 1.074-2.344 2.393-2.344m12.875 0a2.346 2.346 0 0 1 2.343 2.344v5.037l6.54-6.539a1.82 1.82 0 0 1 1.298-.521c.586 0 1.173.253 1.614.693.41.41.656.936.69 1.484.033.553-.151 1.06-.518 1.428l-5.34 5.34 5.767 7.643a2.33 2.33 0 0 1 .451 1.736 2.33 2.33 0 0 1-.91 1.547 2.32 2.32 0 0 1-1.41.472 2.33 2.33 0 0 1-1.871-.931l-5.496-7.283-.815.814V66.9a2.35 2.35 0 0 1-2.343 2.344 2.346 2.346 0 0 1-2.344-2.344V50.867a2.346 2.346 0 0 1 2.344-2.344M55.406 54.37l-2.342 6.65h4.684z"/></svg>