<svg xmlns="http://www.w3.org/2000/svg" xml:space="preserve" viewBox="0 0 128 128"><linearGradient id="a" x1="28" x2="116" y1="-276" y2="-276" gradientTransform="rotate(180 68 -94.564)" gradientUnits="userSpaceOnUse"><stop offset="0" stop-color="#b0b0b0"/><stop offset=".045" stop-color="#fff"/><stop offset=".091" stop-color="#b0b0b0"/><stop offset=".909" stop-color="#b0b0b0"/><stop offset=".955" stop-color="#fff"/><stop offset="1" stop-color="#b0b0b0"/></linearGradient><path fill="url(#a)" d="M28 62.874a8 8 0 0 0-8 8v24a8 8 0 0 0 8 8h2.771l15.131 15.132 15.133-15.132H100a8 8 0 0 0 8-8v-24a8 8 0 0 0-8-8z"/><path fill="#e4e4e4" d="M29.125 12.524A9.126 9.126 0 0 0 20 21.649v68.1a9.126 9.126 0 0 0 9.125 9.125h1.646l15.131 15.132 15.133-15.132h37.84A9.126 9.126 0 0 0 108 89.749v-68.1a9.126 9.126 0 0 0-9.125-9.125z"/><path fill="#00c7c5" d="M20 44.513h88v24.496H20z"/><path fill="#fff" d="M32.488 51.512c-1.046 0-1.928.882-1.928 1.922v6.659c0 1.04.882 1.917 1.928 1.917h6.704c1.046 0 1.928-.878 1.928-1.917v-6.66c0-1.039-.882-1.921-1.928-1.921z"/><path fill="#898989" d="M32.488 27.016c-1.046 0-1.928.882-1.928 1.922v6.659c0 1.04.882 1.917 1.928 1.917h6.704c1.046 0 1.928-.877 1.928-1.917v-6.659c0-1.04-.882-1.922-1.928-1.922z"/><path fill="#fff" stroke="#fff" stroke-linecap="round" stroke-width="10.529" d="M56.96 56.76h35.2"/><path fill="none" stroke="#898989" stroke-linecap="round" stroke-width="10.529" d="M56.96 32.265h35.2"/><path fill="#898989" d="M32.488 76.007c-1.046 0-1.928.883-1.928 1.923v6.658c0 1.04.882 1.917 1.928 1.917h6.704c1.046 0 1.928-.877 1.928-1.917V77.93c0-1.04-.882-1.923-1.928-1.923z"/><path fill="none" stroke="#898989" stroke-linecap="round" stroke-width="10.529" d="M56.96 81.256h35.2"/></svg>