<svg xmlns="http://www.w3.org/2000/svg" xmlns:xlink="http://www.w3.org/1999/xlink" xml:space="preserve" viewBox="0 0 128 128"><defs><linearGradient id="a" gradientUnits="userSpaceOnUse"><stop offset="0" stop-color="#333"/><stop offset="1" stop-color="#4c0905"/></linearGradient><linearGradient id="s" x1="204" x2="268" y1="-64" y2="-64" gradientTransform="rotate(90 58.049 -15.36)scale(.65574)" gradientUnits="userSpaceOnUse"><stop offset="0" stop-color="#807e81"/><stop offset="1" stop-color="#737274"/></linearGradient><linearGradient id="q" x1="64" x2="64" y1="262.5" y2="232" gradientTransform="translate(42.688 -73.41)scale(.65574)" gradientUnits="userSpaceOnUse"><stop offset="0" stop-color="#9a9996"/><stop offset="1" stop-color="#77767b"/></linearGradient><path id="d" d="M0 0h128v128H0z"/><path id="f" d="M0 0h192v152H0z"/><radialGradient id="r" cx="-243.067" cy="-74.6" r="28.267" gradientTransform="matrix(0 -.65574 -.65574 0 42.688 -73.41)" gradientUnits="userSpaceOnUse"><stop offset="0" stop-color="#a09fa1"/><stop offset="1" stop-color="#444446"/></radialGradient></defs><linearGradient id="b" gradientUnits="userSpaceOnUse"><stop offset="0" stop-color="#333"/><stop offset="1" stop-color="#4b0905"/></linearGradient><linearGradient xlink:href="#a" id="g" x1="20" x2="96" y1="94.063" y2="94.063" gradientTransform="translate(-9.6 -11.6)scale(1.08)"/><linearGradient id="h" x1="100" x2="108" y1="83" y2="83" gradientTransform="translate(-9.6 -11.6)scale(1.08)" gradientUnits="userSpaceOnUse"><stop offset="0" stop-color="#f6f5f4"/><stop offset=".5" stop-color="#f6f5f4"/><stop offset="1" stop-color="#c0bfbc"/></linearGradient><linearGradient xlink:href="#b" id="i" x1="20" x2="96" y1="92" y2="92" gradientTransform="translate(-9.6 -11.6)scale(1.08)"/><linearGradient id="j" x1="20" x2="96" y1="66" y2="66" gradientTransform="translate(-9.6 -11.6)scale(1.08)" gradientUnits="userSpaceOnUse"><stop offset="0" stop-color="#323232"/><stop offset=".023" stop-color="#4d4d4d"/><stop offset=".091" stop-color="#63292a"/><stop offset="1" stop-color="#8d2e2d"/></linearGradient><filter id="c" width="1" height="1" x="0" y="0"><feColorMatrix in="SourceGraphic" values="0 0 0 0 1 0 0 0 0 1 0 0 0 0 1 0 0 0 1 0"/></filter><mask id="l"><g filter="url(#c)"><use xlink:href="#d" fill-opacity=".1"/></g></mask><linearGradient id="e" gradientUnits="userSpaceOnUse"><stop offset="0" stop-opacity="0"/><stop offset=".2"/><stop offset=".8" stop-opacity=".949"/><stop offset="1" stop-opacity="0"/></linearGradient><linearGradient xlink:href="#e" id="m" x1="42" x2="93" y1="273" y2="273" gradientTransform="matrix(.9804 0 0 1 4.824 -148)"/><clipPath id="k"><use xlink:href="#f"/></clipPath><mask id="o"><g filter="url(#c)"><use xlink:href="#d" fill-opacity=".1"/></g></mask><linearGradient xlink:href="#e" id="p" x1="42" x2="93" y1="273" y2="273" gradientTransform="matrix(.62745 0 0 1 35.647 -144)"/><clipPath id="n"><use xlink:href="#f"/></clipPath><path fill="url(#g)" d="M20.64 61.975h64.8a8.64 8.64 0 0 1 8.64 8.64v38.745a8.64 8.64 0 0 1-8.64 8.64h-64.8a8.64 8.64 0 0 1-8.64-8.64V70.615a8.64 8.64 0 0 1 8.64-8.64m0 0"/><path fill="url(#h)" d="M22.8 40.24v75.6h62.64a8.62 8.62 0 0 0 8.64-8.64V48.88a8.62 8.62 0 0 0-8.64-8.64zm0 0"/><path fill="url(#i)" d="M12 72.64v30.24h73.44a8.62 8.62 0 0 0 8.64-8.64V81.28a8.62 8.62 0 0 0-8.64-8.64zm0 0"/><path fill="url(#j)" d="M12 18.64v90.72a8.62 8.62 0 0 1 8.64-8.64h64.8a8.62 8.62 0 0 0 8.64-8.64V18.64A8.62 8.62 0 0 0 85.44 10h-64.8A8.64 8.64 0 0 0 12 18.64m0 0"/><path fill="#f6f5f4" d="M20.64 102.88h4.32a6.48 6.48 0 0 1 6.48 6.48 6.48 6.48 0 0 1-6.48 6.48h-4.32a6.48 6.48 0 0 1-6.48-6.48 6.48 6.48 0 0 1 6.48-6.48m0 0"/><g clip-path="url(#k)" mask="url(#l)" transform="translate(-18.24 -28.88)scale(1.08)"><path fill="url(#m)" d="M46 124h50v2H46Zm0 0"/></g><g clip-path="url(#n)" mask="url(#o)" transform="translate(-20.315 -34.955)scale(1.08)"><path fill="url(#p)" d="M62 128h32v2H62Zm0 0"/></g><path fill="#9a9996" stroke="#232428" stroke-linecap="round" stroke-linejoin="round" stroke-width="5.246" d="M86.622 119.377h-3.934l-1.311-10.492h6.557zm0 0"/><path fill="#9a9996" stroke="#9a9996" stroke-linecap="round" stroke-linejoin="round" stroke-width="5.246" d="M82.688 45.934h3.934l1.312 10.492h-6.557zm0 0"/><path fill="#9a9996" stroke="#232428" stroke-linecap="round" stroke-linejoin="round" stroke-width="5.246" d="M47.934 84.623v-3.934l10.492-1.312v6.557zm73.443-3.934v3.934l-10.492 1.311v-6.557zM51.87 65.998l1.968-3.406L63.58 66.7l-3.278 5.679zm65.57 33.315-1.968 3.407-9.74-4.109 3.278-5.681zM64.591 51.839l3.407-1.968 6.383 8.43L68.7 61.58zm40.129 61.634-3.407 1.967-6.384-8.43 5.682-3.278zm-36.722 1.967-3.407-1.967 4.109-9.741 5.68 3.278zm33.314-65.568 3.407 1.967-4.109 9.741-5.681-3.279zM53.838 102.72l-1.967-3.407 8.43-6.383 3.278 5.681zm61.634-40.128 1.968 3.406-8.43 6.381-3.279-5.679zm0 0"/><path fill="#f6f5f4" stroke="#878688" stroke-linecap="round" stroke-linejoin="round" stroke-width="5.246" d="M86.622 118.066h-3.934l-1.311-10.492h6.557zm-3.934-73.443h3.934l1.312 10.492h-6.557zM47.934 83.311v-3.934l10.492-1.311v6.557zm73.443-3.934v3.934l-10.492 1.312v-6.557zM51.87 64.687l1.968-3.407 9.741 4.109-3.278 5.678zm65.57 33.314-1.968 3.407-9.74-4.108 3.278-5.682zM64.591 50.527l3.407-1.967 6.383 8.43-5.681 3.278zm40.129 61.634-3.407 1.968-6.384-8.43 5.682-3.279zm-36.722 1.968-3.407-1.967 4.109-9.742 5.68 3.279zm33.314-65.569 3.407 1.967-4.109 9.742-5.681-3.279zm-47.474 52.848-1.967-3.407 8.43-6.383 3.278 5.682zm61.634-40.128 1.968 3.407-8.43 6.38-3.279-5.678zm0 0"/><path fill="none" stroke="url(#q)" stroke-width="15.738" d="M108.262 82.656c0 13.038-10.569 23.606-23.607 23.606S61.05 95.694 61.05 82.656s10.568-23.607 23.606-23.607 23.607 10.569 23.607 23.607zm0 0"/><path fill="none" stroke="#a09fa1" stroke-width="13.115" d="M109.573 81.344c0 13.763-11.155 24.918-24.918 24.918S59.737 95.107 59.737 81.344s11.155-24.918 24.918-24.918 24.918 11.155 24.918 24.918zm0 0"/><path fill="none" stroke="url(#r)" stroke-linecap="square" stroke-linejoin="round" stroke-width="3.279" d="M84.655 63.967c-9.598 0-17.377 7.78-17.377 17.377 0 9.598 7.78 17.377 17.377 17.377 9.598 0 17.377-7.779 17.377-17.377s-7.779-17.377-17.377-17.377zm0 0"/><path fill="#232428" d="M81.799 66.225v8.336l-7.924 7.925h-8.42v5.715h8.42l7.924 7.926v8.346h5.713v-8.348l7.924-7.924h8.343v-5.715h-8.343l-7.924-7.924v-8.337zm2.818 10.416c.831 0 1.5.669 1.5 1.5v5.709h6c.831 0 1.5.669 1.5 1.5 0 .83-.669 1.5-1.5 1.5h-6v6.29c0 .832-.669 1.5-1.5 1.5-.83 0-1.5-.668-1.5-1.5v-6.29h-6c-.83 0-1.5-.67-1.5-1.5 0-.831.67-1.5 1.5-1.5h6v-5.71c0-.83.67-1.5 1.5-1.5"/><path fill="#232428" d="M84.617 76.64c-.83 0-1.5.67-1.5 1.5v5.71h-6c-.83 0-1.5.669-1.5 1.5 0 .83.67 1.5 1.5 1.5h6v6.29c0 .832.67 1.5 1.5 1.5.831 0 1.5-.668 1.5-1.5v-6.29h6c.831 0 1.5-.67 1.5-1.5 0-.831-.669-1.5-1.5-1.5h-6v-5.71c0-.83-.669-1.5-1.5-1.5" opacity=".6"/><path fill="#58585a" d="M81.799 62.225v8.336l-7.924 7.925h-8.42v5.715h8.42l7.924 7.926v8.346h5.713v-8.348l7.924-7.924h8.343v-5.715h-8.343l-7.924-7.924v-8.337zm2.818 10.416c.831 0 1.5.669 1.5 1.5v5.709h6c.831 0 1.5.669 1.5 1.5 0 .83-.669 1.5-1.5 1.5h-6v6.29c0 .832-.669 1.5-1.5 1.5-.83 0-1.5-.668-1.5-1.5v-6.29h-6c-.83 0-1.5-.67-1.5-1.5 0-.831.67-1.5 1.5-1.5h6v-5.71c0-.83.67-1.5 1.5-1.5"/><path fill="none" stroke="url(#s)" stroke-linecap="square" stroke-linejoin="round" stroke-width="5.246" d="M84.655 102.328c-11.588 0-20.983-9.396-20.983-20.984s9.395-20.983 20.983-20.983 20.984 9.395 20.984 20.983-9.396 20.984-20.984 20.984zm0 0"/></svg>