<svg xmlns="http://www.w3.org/2000/svg" xmlns:xlink="http://www.w3.org/1999/xlink" xml:space="preserve" viewBox="0 0 128 128"><defs><linearGradient xlink:href="#a" id="c" x1="58.965" x2="108.879" y1="84.639" y2="26.819" gradientTransform="translate(0 .02)" gradientUnits="userSpaceOnUse"/><linearGradient id="a"><stop offset="0" stop-color="#4675b4"/><stop offset="1" stop-color="#82acf0"/></linearGradient><linearGradient id="b" x1="37.001" x2="123.273" y1="121.847" y2="121.847" gradientTransform="matrix(.9985 0 0 .98183 .185 3.376)" gradientUnits="userSpaceOnUse"><stop offset="0" stop-color="#29456a"/><stop offset=".37" stop-color="#8dabd3"/><stop offset=".788" stop-color="#29456a"/><stop offset="1" stop-color="#9fb8da"/></linearGradient></defs><path fill="url(#b)" d="M64 7C30.862 7 3.996 33.414 4 65.998 4 98.583 30.862 125 64 125c33.138-.004 60-26.417 60-59.002C124 33.418 97.138 7 64 7"/><path fill="url(#c)" d="M64 3C30.862 3 3.996 29.414 4 61.998 4 94.583 30.862 121 64 121c33.138-.004 60-26.417 60-59.002C124 29.418 97.138 3 64 3"/><path fill="#fff" d="M90.33 89.9 64 27.116 37.67 89.9Zm-45.14-5.24 18.733-44.27 18.734 44.27H68.961l-4.998-19.504-4.998 19.504z"/></svg>