<svg xmlns="http://www.w3.org/2000/svg" xmlns:xlink="http://www.w3.org/1999/xlink" xml:space="preserve" viewBox="0 0 128 128"><defs><linearGradient id="a"><stop offset="0" stop-color="#0c8841"/><stop offset=".042" stop-color="#6df2a7"/><stop offset=".083" stop-color="#0c8841"/><stop offset=".917" stop-color="#0c8841"/><stop offset=".958" stop-color="#6df2a7"/><stop offset="1" stop-color="#0c8841"/></linearGradient><linearGradient xlink:href="#a" id="b" x1="12" x2="116" y1="66" y2="66" gradientUnits="userSpaceOnUse"/></defs><rect width="104" height="100" x="12" y="16" fill="url(#b)" rx="8" ry="8" style="marker:none"/><rect width="104" height="100" x="12" y="12" fill="#14e76f" rx="8" ry="8" style="marker:none"/><path fill="#242b2d" d="M37.237 41.667A4.664 4.664 0 0 1 41.898 37h16.969a6.66 6.66 0 0 1 6.432 4.947l10.839 40.64c.2.753 1.309.608 1.309-.172V37h13.316v45.333A4.664 4.664 0 0 1 86.102 87H69.008a6.66 6.66 0 0 1-6.427-4.926l-10.719-39.68c-.203-.751-1.308-.604-1.308.174V87H37.237Z"/></svg>