<svg xmlns="http://www.w3.org/2000/svg" xmlns:xlink="http://www.w3.org/1999/xlink" viewBox="0 0 128 128"><defs><linearGradient xlink:href="#a" id="g" x1="-120.161" x2="246.161" y1="395" y2="395" gradientTransform="matrix(.25 0 0 .25 48.25 6.25)" gradientUnits="userSpaceOnUse"/><linearGradient id="a"><stop offset="0" stop-color="#c7c6c3"/><stop offset=".024" stop-color="#e8e7e3"/><stop offset=".069" stop-color="#cbcac7"/><stop offset=".917" stop-color="#cbcac7"/><stop offset=".96" stop-color="#eae8e4"/><stop offset="1" stop-color="#acaba8"/></linearGradient><linearGradient xlink:href="#c" id="j" x1="1376" x2="1376" y1="2692" y2="2932" gradientTransform="matrix(1.15 0 0 1.08108 -1519.4 -2800.027)" gradientUnits="userSpaceOnUse"/><linearGradient id="c"><stop offset="0" stop-color="#f6f5f4"/><stop offset="1" stop-color="#fff"/></linearGradient><linearGradient xlink:href="#d" id="k" x1="1449" x2="1449" y1="2596" y2="2652" gradientTransform="matrix(.25 0 0 .25 -280 -634)" gradientUnits="userSpaceOnUse"/><linearGradient id="d"><stop offset="0" stop-color="#deddda"/><stop offset="1" stop-color="#9a9996"/></linearGradient><clipPath id="h" clipPathUnits="userSpaceOnUse"><rect width="368" height="320" x="-121" y="67" fill="#813d9c" stroke-width=".25" rx="24" ry="24" style="marker:none"/></clipPath></defs><path fill="none" stroke="#deddda" stroke-linecap="round" stroke-width="4" d="M18 21h92"/><rect width="92" height="80" x="18" y="27" fill="url(#g)" rx="6" ry="6" style="marker:none"/><g clip-path="url(#h)" transform="matrix(.25 0 0 .25 48.25 6.25)"><rect width="368" height="320" x="-121" y="67" fill="url(#j)" rx="24" ry="24" style="marker:none"/><path fill="#d5d3cf" d="M143 307h40a8 8 45 0 1 8 8 8 8 135 0 1-8 8h-40a8 8 45 0 1-8-8 8 8 135 0 1 8-8m0-40h40a8 8 45 0 1 8 8 8 8 135 0 1-8 8h-40a8 8 45 0 1-8-8 8 8 135 0 1 8-8m0-40h40a8 8 45 0 1 8 8 8 8 135 0 1-8 8h-40a8 8 45 0 1-8-8 8 8 135 0 1 8-8m0-40h40a8 8 45 0 1 8 8 8 8 135 0 1-8 8h-40a8 8 45 0 1-8-8 8 8 135 0 1 8-8m0-40h40a8 8 45 0 1 8 8 8 8 135 0 1-8 8h-40a8 8 45 0 1-8-8 8 8 135 0 1 8-8" style="marker:none"/><path fill="#d5d3cf" stroke="#204a87" stroke-width=".007" d="M86.543 258.984a72 72 0 0 1-36.789 55.058c-3.868 2.13-10.51 4.882-14.752 6.11a72 72 0 0 1-64.945-12.918c-3.45-2.758-8.533-7.842-11.29-11.29a72 72 0 0 1-12.92-64.946c1.229-4.242 3.98-10.884 6.111-14.752a72 72 0 0 1 55.058-36.789c4.39-.488 7.984 3.14 7.984 7.558V243a8 8 45 0 0 8 8h55.985c4.419 0 8.046 3.595 7.558 7.984z" style="marker:none"/><path fill="#d5d3cf" stroke="#204a87" stroke-width=".007" d="M38.984 163.452c33.378 3.683 59.88 30.186 63.564 63.564.484 4.39-3.144 7.984-7.563 7.984H39a8 8 45 0 1-8-8v-55.985c0-4.419 3.595-8.047 7.984-7.563z" style="marker:none"/><path fill-opacity=".085" d="M-129 403V83H63Z"/><path fill="#fff" fill-opacity=".506" d="M247 403V83H55Z"/></g><rect width="104" height="16" x="12" y="15" fill="url(#k)" rx="8" ry="8" style="marker:none"/></svg>