<svg xmlns="http://www.w3.org/2000/svg" xmlns:xlink="http://www.w3.org/1999/xlink" viewBox="0 0 128 128"><defs><linearGradient xlink:href="#a" id="k" x1="-135.783" x2="-33.635" y1="63.046" y2="63.046" gradientTransform="translate(148.391)" gradientUnits="userSpaceOnUse"/><linearGradient id="a"><stop offset="0"/><stop offset=".41" stop-color="gray"/><stop offset=".81"/><stop offset="1" stop-color="#737373"/></linearGradient><linearGradient id="h"><stop offset="0" stop-color="#00f644"/><stop offset=".5" stop-color="#07ee48"/><stop offset="1" stop-color="#31c55a"/></linearGradient><linearGradient id="i"><stop offset="0" stop-color="#f6f400" stop-opacity=".99"/><stop offset="1" stop-color="#00f6e0" stop-opacity="0"/></linearGradient><linearGradient xlink:href="#b" id="n" x1="-105.645" x2="-105.663" y1="73.79" y2="63.482" gradientTransform="translate(148.391)" gradientUnits="userSpaceOnUse"/><linearGradient id="b"><stop offset="0" stop-color="#7b7b7b"/><stop offset="1" stop-color="silver"/></linearGradient><linearGradient xlink:href="#c" id="o" x1="33.125" x2="104.198" y1="36.535" y2="36.535" gradientUnits="userSpaceOnUse"/><linearGradient id="c"><stop offset=".01" stop-color="#99b9ff"/><stop offset=".04" stop-color="#1863ff"/><stop offset=".96" stop-color="#1863ff"/><stop offset=".99" stop-color="#99baff"/></linearGradient><linearGradient xlink:href="#d" id="p" x1="39.539" x2="103.185" y1="85.683" y2="85.683" gradientUnits="userSpaceOnUse"/><linearGradient id="d"><stop offset=".01" stop-color="#99b9ff"/><stop offset=".05" stop-color="#1863ff"/><stop offset=".96" stop-color="#1863ff"/><stop offset=".99" stop-color="#99baff"/></linearGradient><linearGradient xlink:href="#e" id="q" x1="-101.891" x2="-44.426" y1="94.435" y2="4.543" gradientTransform="translate(148.391)" gradientUnits="userSpaceOnUse"/><linearGradient id="e"><stop offset="0" stop-color="#00ae9b"/><stop offset="0" stop-color="#7ff6dc"/><stop offset="1" stop-color="#fff6dc"/></linearGradient><linearGradient id="j"><stop offset="0" stop-color="#00f644"/><stop offset="1" stop-color="#00f644" stop-opacity="0"/></linearGradient><radialGradient xlink:href="#h" id="l" cx="-56.816" cy="63.116" r="51.074" fx="-56.816" fy="63.116" gradientTransform="rotate(78.882 -25.295 173.663)scale(1.66557 .9634)" gradientUnits="userSpaceOnUse"/><radialGradient xlink:href="#i" id="m" cx="26.412" cy="27.891" r="21.727" fx="26.412" fy="27.891" gradientTransform="rotate(-25.27 141.82 14.669)scale(1.53547 .83916)" gradientUnits="userSpaceOnUse"/><radialGradient xlink:href="#j" id="r" cx="18.455" cy="23.909" r="7.364" fx="18.455" fy="23.909" gradientTransform="matrix(1.76524 -.94949 .34752 1.1499 -7.336 30.337)" gradientUnits="userSpaceOnUse"/></defs><path fill="url(#k)" d="M63.682 16.361c-28.09 0-51.074 20.822-51.074 46.686s22.984 46.683 51.074 46.683 51.074-20.82 51.074-46.683c0-25.864-22.984-46.686-51.074-46.686" overflow="visible"/><path fill="url(#l)" d="M63.682 12.361c-28.09 0-51.074 20.822-51.074 46.686s22.984 46.683 51.074 46.683 51.074-20.82 51.074-46.683c0-25.864-22.984-46.686-51.074-46.686" overflow="visible"/><path fill="url(#m)" d="M102.257 67.824a46.255 39.671 0 0 1-46.255 39.671 46.255 39.671 0 0 1-46.255-39.67 46.255 39.671 0 0 1 46.255-39.672 46.255 39.671 0 0 1 46.255 39.671"/><path fill="url(#n)" d="M5.122 54.041a.73.73 0 0 0-.729.713c-.035 1.763.557 3.034 1.377 3.934.667.732 1.425 1.197 2.125 1.693-.546.76-1.065 1.496-1.188 2.116-.16.812.08 1.537.422 2.049.343.511.75.87 1.026 1.205.276.334.42.587.433.945.028.751-.107 1.048-.265 1.252s-.433.365-.836.62c-.403.254-.918.633-1.26 1.289s-.503 1.526-.443 2.761a.73.73 0 0 0 .718.694l113.937 1.502a.73.73 0 0 0 .668-.414c.487-1.02.676-1.927.662-2.862-.013-.934-.202-1.88-.412-3.14-.095-.573.406-1.521 1.064-2.735.66-1.214 1.39-2.722 1.135-4.526a1 1 0 0 0-.035-.142c-.331-.93-.327-1.954-.541-3.122-.213-1.167-.714-2.463-2.047-3.648a.73.73 0 0 0-.484-.184z" overflow="visible"/><path fill="url(#o)" fill-rule="evenodd" d="m73.864 48.46-5.063-.194 35.164-39.723c.176-.2.233-.665.233-.665V3.934L58.028 7a.93.93 0 0 0-.858.57L33.13 61.377s-.01 3.872 0 4.01a.93.93 0 0 0 .796.857l20.565 2.893z" overflow="visible"/><path fill="url(#p)" fill-rule="evenodd" d="M73.864 48.46 54.49 69.136l-14.947 50.988-.005 3.96c0 .791 1.062 1.275 1.643.583l61.785-73.601c.162-.193.218-.638.218-.638l-.007-4.068z" overflow="visible"/><path fill="url(#q)" fill-rule="evenodd" d="M58.028 3a.93.93 0 0 0-.858.57L33.2 60.967a.93.93 0 0 0 .726 1.277l20.565 2.893-14.916 54.692a.929.929 0 0 0 1.607.84l61.785-73.602a.929.929 0 0 0-.676-1.526l-33.49-1.275 35.164-39.723A.929.929 0 0 0 103.27 3Z" overflow="visible"/><path fill="url(#r)" d="M46.548 40.308A12.999 12.155 0 0 1 33.55 52.462a12.999 12.155 0 0 1-13-12.154 12.999 12.155 0 0 1 13-12.155 12.999 12.155 0 0 1 12.998 12.155"/></svg>