<svg xmlns="http://www.w3.org/2000/svg" xmlns:xlink="http://www.w3.org/1999/xlink" xml:space="preserve" viewBox="0 0 128 128"><defs><linearGradient id="a"><stop offset="0" stop-color="#333"/><stop offset=".042" stop-color="#666"/><stop offset=".083" stop-color="#333"/><stop offset=".917" stop-color="#333"/><stop offset=".958" stop-color="#666"/><stop offset="1" stop-color="#333"/></linearGradient><linearGradient xlink:href="#a" id="b" x1="48" x2="464" y1="44" y2="44" gradientTransform="matrix(.25 0 0 .25 0 53)" gradientUnits="userSpaceOnUse"/></defs><rect width="104" height="84" x="12" y="32" fill="url(#b)" rx="8" ry="8" style="marker:none"/><rect width="104" height="100" x="12" y="12" fill="#161617" rx="8" ry="8" style="marker:none"/><path fill="#fff" fill-rule="evenodd" d="M64 33.037a5.657 5.657 0 1 0 0 11.314 5.657 5.657 0 0 0 0-11.314m-13.2 5.657c0-7.29 5.91-13.2 13.2-13.2s13.2 5.91 13.2 13.2-5.91 13.2-13.2 13.2a13.14 13.14 0 0 1-6.28-1.587l-5.678 5.678c.429.791.779 1.63 1.04 2.509h21.836c1.622-5.453 6.673-9.429 12.653-9.429 7.29 0 13.2 5.91 13.2 13.2s-5.91 13.2-13.2 13.2a13.14 13.14 0 0 1-6.28-1.587l-5.678 5.678a13.14 13.14 0 0 1 1.587 6.28c0 7.29-5.91 13.2-13.2 13.2s-13.2-5.91-13.2-13.2 5.91-13.2 13.2-13.2c2.273 0 4.412.575 6.28 1.587l5.678-5.678a13 13 0 0 1-1.04-2.509H53.082c-1.622 5.453-6.673 9.429-12.653 9.429-7.29 0-13.2-5.91-13.2-13.2s5.91-13.2 13.2-13.2c2.274 0 4.413.575 6.28 1.587l5.678-5.678a13.14 13.14 0 0 1-1.587-6.28m7.543 47.142a5.657 5.657 0 1 1 11.314 0 5.657 5.657 0 0 1-11.314 0M40.429 56.608a5.657 5.657 0 1 0 0 11.314 5.657 5.657 0 0 0 0-11.314m41.485 5.657a5.657 5.657 0 1 1 11.314 0 5.657 5.657 0 0 1-11.314 0" clip-rule="evenodd"/></svg>