<svg xmlns="http://www.w3.org/2000/svg" xml:space="preserve" viewBox="0 0 128 128"><linearGradient id="a" x1="12" x2="116" y1="64" y2="64" gradientUnits="userSpaceOnUse"><stop offset="0" stop-color="#42413e"/><stop offset=".05" stop-color="#7c7a74"/><stop offset=".1" stop-color="#64625e"/><stop offset=".9" stop-color="#54534f"/><stop offset=".95" stop-color="#7c7a74"/><stop offset="1" stop-color="#42413e"/></linearGradient><linearGradient id="b" x1="12" x2="112.041" y1="60" y2="80.988" gradientUnits="userSpaceOnUse"><stop offset="0" stop-color="#77756f"/><stop offset=".384" stop-color="#c0bfbc"/><stop offset=".721" stop-color="#76756f"/><stop offset="1" stop-color="#a8a7a3"/></linearGradient><path fill="url(#a)" d="M20 22h88a8 8 0 0 1 8 8v78a8 8 0 0 1-8 8H20a8 8 0 0 1-8-8V30a8 8 0 0 1 8-8m0 0"/><path fill="url(#b)" d="M20 12h88a8 8 0 0 1 8 8v80a8 8 0 0 1-8 8H20a8 8 0 0 1-8-8V20a8 8 0 0 1 8-8m0 0"/><path fill="#282828" d="M20 14h88c3.313 0 6 2.688 6 6v80a6 6 0 0 1-6 6H20c-3.312 0-6-2.687-6-6V20c0-3.312 2.688-6 6-6m0 0"/><path fill="#fbf1c7" d="M34.87 31.225a15.6 15.6 0 0 0-2.347-.43c-3.558-.34-4.701-.028-6.496 1.773-2.46 2.47-1.961 5.977 1.268 8.983 7 6.517 7.113 10.886.415 15.815-2.757 2.028-4.753 6.796-3.893 9.294 1.081 3.145 5.2 4.348 8.795 2.573 3.372-1.665 7.192-7.356 9.797-14.16.217-.567.43-1.143.629-1.723a51 51 0 0 0 1.512-5.348c1.22-5.447.922-9.686-.862-12.234-1.114-1.59-5.241-3.635-8.818-4.544z"/><g fill="#fbf1c7" transform="translate(-1633.33 -438.415)scale(.86538)"><ellipse cx="1934.693" cy="540.293" rx="2" ry="2.276"/><ellipse cx="1939.069" cy="543.356" rx="1.624" ry="1.786"/><ellipse cx="1941.361" cy="547.069" rx="1.333" ry="1.5"/><ellipse cx="1921.883" cy="536.069" rx="3.81" ry="4.5"/><ellipse cx="1929.193" cy="537.569" rx="2.5" ry="3"/></g><path fill="#fbf1c7" d="M47.846 64h22.212v4.038H47.846z"/></svg>