<svg xmlns="http://www.w3.org/2000/svg" viewBox="0 0 128 128"><path fill="#f6f5f4" d="M27.978 8h50l30.043 29.918.001 74.06c0 4.432-3.612 8.022-8.044 8.022h-72c-4.432 0-8-3.568-8-8V16c0-4.432 3.568-8 8-8"/><path fill="#deddda" d="M77.978 8v22c0 4.432 3.61 7.923 8.043 7.923l22-.005z"/><path fill-opacity=".034" d="M27.978 8c-4.432 0-8 3.568-8 8v94.666L63.978 8z"/><path fill="#fff" fill-opacity=".456" d="m108.022 110.771-.002-72.853L77.977 8h-14Z"/><path fill="#deddda" fill-rule="evenodd" d="M60.967 61.75 47.125 89.435 40.782 76.75h-4.907A1.875 1.875 0 0 0 34 78.625a1.875 1.875 0 0 0 1.875 1.875h2.593l8.657 17.314L63.282 65.5h28.842a1.875 1.875 0 0 0 1.875-1.875 1.875 1.875 0 0 0-1.875-1.875z" color="#000" style="-inkscape-stroke:none"/><path fill="#deddda" d="M36.001 103h11c1.108 0 2 .554 2 1.242v1.266c0 .688-.892 1.242-2 1.242h-11c-1.108 0-2-.554-2-1.242v-1.266c0-.688.892-1.242 2-1.242m22.476 0h11c1.108 0 2 .554 2 1.242v1.266c0 .688-.892 1.242-2 1.242h-11c-1.108 0-2-.554-2-1.242v-1.266c0-.688.892-1.242 2-1.242m22.476 0h11c1.108 0 2 .554 2 1.242v1.266c0 .688-.892 1.242-2 1.242h-11c-1.108 0-2-.554-2-1.242v-1.266c0-.688.892-1.242 2-1.242" paint-order="markers stroke fill"/><path fill="#928f98" d="M90.252 95.5h-10v-2.167h2.75l-4.708-6.458-4.709 6.458h2.792V95.5h-8.208v-2.167h2.875l5.958-8.208-6.583-9.084h-2.667v-2.166h9.667v2.166h-2.584l4.542 6.25 4.542-6.25h-2.917v-2.166h8.333v2.166H86.46l-5.791 8 6.75 9.292h2.833z" aria-label="x" font-family="DejaVu Math TeX Gyre" font-size="48" style="line-height:1.25;-inkscape-font-specification:&quot;DejaVu Math TeX Gyre&quot;"/></svg>