<svg xmlns="http://www.w3.org/2000/svg" xmlns:xlink="http://www.w3.org/1999/xlink" viewBox="0 0 16 16"><defs><clipPath id="b"><path d="M0 0h192v152H0z"/></clipPath><filter id="a" width="1" height="1" x="0" y="0"><feColorMatrix in="SourceGraphic" values="0 0 0 0 1 0 0 0 0 1 0 0 0 0 1 0 0 0 1 0"/></filter><mask id="c"><g filter="url(#a)"><path fill-opacity=".1" d="M0 0h16v16H0z"/></g></mask></defs><g clip-path="url(#b)" mask="url(#c)" transform="translate(-130 -9)"><path d="M72.113 33.383c-25.691 0-46.52 20.828-46.52 46.52q.013.503.036 1.007c.39-25.398 21.082-45.789 46.484-45.805 25.29.012 45.938 20.227 46.485 45.512q.023-.357.035-.715c0-25.691-20.828-46.52-46.52-46.52m0 0"/></g><path d="M7.998 0C5.876 0 3.843.84 2.343 2.34a8 8 0 0 0 0 11.316 8 8 0 0 0 11.314 0 8 8 0 0 0 0-11.315A8 8 0 0 0 7.998 0m0 1.694q.6.005 1.188.125a1.2 1.2 0 1 1-2.389.154q.005-.08.017-.154a6 6 0 0 1 1.184-.125m-3.254.926a3.3 3.3 0 0 0 .239 1.888 3.3 3.3 0 0 0 1.596 1.629l-.004.012v5.91q.001.019.008.02H6.6l1.427 1.387 1.387-1.386h.012q.007-.002.008-.02v-1.33l.582-.59-.582-.58v-.145l.933-.95-.933-.93V6.138a3.31 3.31 0 0 0 1.823-3.513c.436.254.84.562 1.2.917a6.305 6.305 0 1 1-8.917 0 6.4 6.4 0 0 1 1.205-.921zm2.36 4.289h.413q.007.002.008.016v4.706q-.001.019-.008.02h-.412q-.007-.001-.008-.02V6.925q.001-.014.008-.016m0 0"/></svg>