<svg xmlns="http://www.w3.org/2000/svg" xmlns:xlink="http://www.w3.org/1999/xlink" viewBox="0 0 128 128"><defs><linearGradient xlink:href="#a" id="d" x1="18.23" x2="150" y1="150" y2="0" gradientTransform="matrix(.7526 0 0 .74005 64 62)" gradientUnits="userSpaceOnUse"/><linearGradient id="a"><stop offset="0" stop-color="#0082c9"/><stop offset="1" stop-color="#1cafff"/></linearGradient><linearGradient id="b" x1="0" x2="118.926" y1="269.463" y2="269.463" gradientTransform="matrix(1 0 0 .98333 0 -168.033)" gradientUnits="userSpaceOnUse"><stop offset="0" stop-color="#07476a"/><stop offset=".414" stop-color="#49b9f4"/><stop offset=".813" stop-color="#07476a"/><stop offset="1" stop-color="#30aef2"/></linearGradient></defs><path fill="url(#b)" d="M124 66c0 32.585-26.863 59-60 59S4 98.585 4 66 30.863 7 64 7s60 26.415 60 59m0 0"/><ellipse cx="64" cy="62" fill="url(#d)" fill-rule="evenodd" rx="60" ry="59"/><path fill="#fff" d="M64.077 39.378c-10.476 0-19.355 6.984-22.107 16.446-2.392-5.019-7.574-8.535-13.544-8.535-8.21 0-14.959 6.636-14.959 14.71 0 8.073 6.749 14.712 14.959 14.712 5.97 0 11.152-3.518 13.544-8.538 2.752 9.463 11.631 16.449 22.107 16.449 10.398 0 19.232-6.88 22.054-16.237 2.436 4.906 7.555 8.326 13.44 8.326 8.21 0 14.962-6.64 14.962-14.713S107.78 47.29 99.57 47.29c-5.885 0-11.004 3.418-13.44 8.323-2.822-9.355-11.656-16.234-22.054-16.234m0 8.635c7.908 0 14.225 6.21 14.225 13.985 0 7.777-6.317 13.989-14.225 13.989s-14.222-6.212-14.222-13.989c0-7.776 6.314-13.985 14.222-13.985m-35.651 7.91c3.464 0 6.18 2.669 6.18 6.075s-2.716 6.078-6.18 6.078c-3.465 0-6.178-2.67-6.178-6.078 0-3.406 2.713-6.074 6.178-6.074m71.145 0c3.465 0 6.18 2.669 6.18 6.075s-2.715 6.078-6.18 6.078-6.177-2.67-6.177-6.078c0-3.406 2.713-6.074 6.177-6.074" color="#000" font-family="sans-serif" font-weight="400" overflow="visible" style="line-height:normal;text-indent:0;text-align:start;text-decoration-line:none;text-decoration-style:solid;text-decoration-color:#000;text-transform:none;white-space:normal;isolation:auto;mix-blend-mode:normal;solid-color:#000;solid-opacity:1"/></svg>