<svg xmlns="http://www.w3.org/2000/svg" xmlns:xlink="http://www.w3.org/1999/xlink" viewBox="0 0 16 16"><defs><clipPath id="b"><path d="M0 0h192v152H0z"/></clipPath><filter id="a" width="1" height="1" x="0" y="0"><feColorMatrix in="SourceGraphic" values="0 0 0 0 1 0 0 0 0 1 0 0 0 0 1 0 0 0 1 0"/></filter><mask id="c"><g filter="url(#a)"><path fill-opacity=".1" d="M0 0h16v16H0z"/></g></mask></defs><g clip-path="url(#b)" mask="url(#c)" transform="translate(-161 -7)"><path d="M72.113 33.383c-25.691 0-46.52 20.828-46.52 46.52q.013.503.036 1.007c.39-25.398 21.082-45.789 46.484-45.805 25.29.012 45.938 20.227 46.485 45.512q.023-.357.035-.715c0-25.691-20.828-46.52-46.52-46.52m0 0"/></g><path d="M7.998 0C5.876 0 3.843.84 2.344 2.34a8.003 8.003 0 0 0 0 11.316 7.98 7.98 0 0 0 6.238 2.32.6.6 0 0 1-.01-.119V14.28a6.3 6.3 0 0 1-5.033-1.82 6.31 6.31 0 0 1 0-8.918 6.4 6.4 0 0 1 1.205-.922 3.33 3.33 0 0 0 .238 1.889c.324.715.89 1.293 1.598 1.629l-.004.011v5.91q.001.02.008.022H6.6l1.425 1.387.547-.547v-.277c0-.552.357-1.02.862-1.204v-.71l.47-.477v-.18l.002-.043-.472-.468v-.145l.933-.951-.933-.93V6.137a3.31 3.31 0 0 0 1.822-3.514 6 6 0 0 1 1.201.918 6.3 6.3 0 0 1 1.842 4.578c.573.473.94 1.174.94 1.953v1.285l.023.002a8.01 8.01 0 0 0-1.606-9.02A8 8 0 0 0 7.998 0m0 1.693q.6.005 1.188.125.012.077.013.155a1.202 1.202 0 0 1-2.402 0q.006-.08.017-.155.59-.119 1.184-.125m-.893 5.215h.413c.004 0 .007.01.007.018v4.705q0 .019-.007.02h-.413q-.006-.001-.007-.02V6.926c0-.008.003-.018.007-.018"/><path fill="none" d="M12 6h16v16H12z"/><path fill="red" d="M12.571 8a2.293 2.293 0 0 0-2.285 2.286v1.143a1.14 1.14 0 0 0-1.143 1.142v2.858a.57.57 0 0 0 .571.571h5.715a.57.57 0 0 0 .571-.571V12.57a1.14 1.14 0 0 0-1.143-1.142v-1.143A2.293 2.293 0 0 0 12.571 8m0 1.143c.643 0 1.143.5 1.143 1.143v1.143H11.43v-1.143c0-.643.5-1.143 1.142-1.143"/></svg>