<svg xmlns="http://www.w3.org/2000/svg" xmlns:xlink="http://www.w3.org/1999/xlink" viewBox="0 0 128 128"><defs><linearGradient xlink:href="#a" id="b" x1="12" x2="116" y1="66" y2="66" gradientUnits="userSpaceOnUse"/><linearGradient id="a"><stop offset="0" stop-color="#888a85"/><stop offset=".036" stop-color="#e4e4e4"/><stop offset=".073" stop-color="#888a85"/><stop offset=".927" stop-color="#888a85"/><stop offset=".961" stop-color="#e4e4e4"/><stop offset="1" stop-color="#888a85"/></linearGradient></defs><rect width="104" height="100" x="12" y="16" fill="url(#b)" rx="8" ry="8" style="marker:none"/><rect width="104" height="100" x="12" y="12" fill="#e4e4e4" rx="8" ry="8" style="marker:none"/><path fill="#2c69c8" d="M87.29 64.254a9.1 9.1 0 0 0-3.442.534c-.84.3-1.278.986-1.278.986s.524-.212 1.711-.46c4.843-1.008 11.784 6.488-3.225 14.286a1.2 1.2 0 0 1-.305.394c17.54-4.61 14.097-15.378 6.54-15.74m-33.308-.791c-1.915.051-6.387.464-11.597 2.982-8.211 3.973 20.307 5.78 35.073 1.898 1.536-1.047 3.656-1.957 3.656-1.957s-6.038 1.08-12.054 1.586c-7.363.617-15.275.737-19.238.209-9.391-1.254 5.15-4.708 5.15-4.708s-.353-.025-.993-.008m-2.394 10.387c-13.551 4.5 7.54 9.6 26.475 4.062a9.5 9.5 0 0 1-3.294-2.009c-9.251 1.783-14.599 1.73-21.372 1.033-5.236-.544-1.81-3.086-1.81-3.086m1.92 9.704c-12.299 3.437 7.48 10.54 23.14 3.825a28.5 28.5 0 0 1-4.396-2.148c-6.987 1.322-10.232 1.42-16.57.695-5.234-.6-2.173-2.372-2.173-2.372"/><path fill="#2c69c8" d="M45.55 89.038c-5.285-.201-17.285 5.08-7.04 6.739 31.93 5.18 58.204-2.336 49.921-6.072 0 0 2.262 1.868-2.49 3.309-9.04 2.738-37.622 3.564-45.563.11-2.855-1.241 2.498-2.967 4.18-3.329 1.757-.38 2.765-.304 2.765-.304-.396-.278-1.015-.423-1.77-.453"/><path fill="#2c69c8" d="M93.503 92.424s-1.008 2.581-11.907 4.631c-12.297 2.316-27.463 2.048-36.459.566 0 0 1.844 1.52 11.312 2.126 14.406.922 36.53-.506 37.054-7.326"/><path fill="#fa7800" d="M72.662 20c3.354 13.206-11.825 17.2-17.302 25.427-3.732 5.606 1.826 11.622 9.408 18.461-2.957-6.682-12.98-12.526.008-22.783C80.969 28.321 72.662 20 72.662 20"/><path fill="#fa7800" d="M81.842 36.339s-27.382 6.844-14.3 21.914c3.86 4.443-1.016 8.445-1.016 8.445s9.8-5.062 5.3-11.395c-4.204-5.908-7.432-8.845 10.016-18.964"/></svg>