<svg xmlns="http://www.w3.org/2000/svg" xmlns:xlink="http://www.w3.org/1999/xlink" viewBox="0 0 128 128"><defs><linearGradient id="a"><stop offset="0" stop-color="#fff" stop-opacity="0"/><stop offset=".03" stop-color="#fff" stop-opacity=".4"/><stop offset=".07" stop-color="#fff" stop-opacity="0"/><stop offset=".443" stop-color="#fff" stop-opacity="0"/><stop offset=".503" stop-color="#fff" stop-opacity=".4"/><stop offset=".56" stop-color="#fff" stop-opacity="0"/><stop offset=".932" stop-color="#fff" stop-opacity="0"/><stop offset=".972" stop-color="#fff" stop-opacity=".4"/><stop offset="1" stop-color="#fff" stop-opacity="0"/></linearGradient><linearGradient xlink:href="#a" id="b" x1="153.848" x2="251.428" y1="64.854" y2="64.854" gradientTransform="translate(-138.638 1.146)" gradientUnits="userSpaceOnUse"/></defs><path fill="#df6277" d="M64 12 40.615 52.5 64 66l23.381-13.5 1.016-28.754C77.72 17.58 66.7 12 64.001 12Z"/><path fill="#fb9168" d="M88.397 23.746 64 66l23.381 13.5L110.767 39c-1.35-2.338-11.69-9.09-22.37-15.254"/><path fill="#f3db6c" d="M110.766 39 64 66l23.381 13.5L112.79 66c0-12.33-.673-24.661-2.023-27z"/><path fill="#487f5f" d="M64 66v27h46.766c1.35-2.338 2.023-14.668 2.023-27z"/><path fill="#2c4d77" d="M64 66v27l24.397 15.254C99.076 102.09 109.416 95.338 110.766 93v-4z"/><path fill="#3b264a" d="M64 66 40.615 79.5 64 120c2.7 0 13.718-5.58 24.397-11.746v-4z"/><path fill="#563d2a" d="M17.235 39c-2.7 4.677-2.7 49.324 0 54l1.047-.604L64 66.001V39Z"/><path fill="#2e261e" d="M40.615 52.5 17.235 89v4c2.7 4.677 41.365 27 46.764 27V66Z"/><path fill="#99cd61" d="M64 12c-5.4 0-44.065 22.324-46.765 27L64 66Z"/><path fill="url(#b)" d="M63.999 12c-5.4 0-44.064 22.323-46.764 27s-2.7 49.315 0 53.998l-.002.002c2.7 4.677 41.366 27 46.766 27 2.7 0 13.717-5.58 24.396-11.746 10.679-6.165 21.02-12.916 22.37-15.254s2.022-14.67 2.023-27h.002c0-12.33-.674-24.662-2.024-27s-11.69-9.089-22.369-15.254h-.002C77.717 17.581 66.7 12 64.001 12Z"/><path fill="#df6277" d="M64 8 40.615 48.5 64 62l23.381-13.5 1.016-28.754C77.72 13.58 66.7 8 64.001 8Z"/><path fill="#fb9168" d="M88.397 19.746 64 62l23.381 13.5L110.767 35c-1.35-2.338-11.69-9.09-22.37-15.254"/><path fill="#f3db6c" d="M110.766 35 64 62l23.381 13.5L112.79 62c0-12.33-.673-24.661-2.023-27z"/><path fill="#7ab392" d="M64 62v27h46.766c1.35-2.338 2.023-14.668 2.023-27z"/><path fill="#4b7cbc" d="M64 62v27l24.397 15.254C99.076 98.09 109.416 91.338 110.766 89Z"/><path fill="#6f488c" d="M64 62 40.615 75.5 64 116c2.7 0 13.718-5.58 24.397-11.746z"/><path fill="#4d3f33" d="M40.615 48.5 17.235 89c2.7 4.677 41.365 27 46.764 27V62Z"/><path fill="#7a573b" d="M17.235 35c-2.7 4.677-2.7 49.324 0 54L64 62V35Z"/><path fill="#99cd61" d="M64 8c-5.4 0-44.065 22.324-46.765 27L64 62Z"/><path fill="#fff" d="M64.007 35.006c-2.7 0-22.032 11.162-23.378 13.498l23.378 40.494 23.386-40.494c-1.346-2.343-20.686-13.506-23.386-13.506"/><path fill="#dfdfdf" d="M40.627 48.5 64.007 89c2.7 0 22.035-11.162 23.384-13.5s1.35-24.662 0-27L64.007 62Z"/><path fill="#d6d2d2" d="M40.621 48.5c-1.35 2.339-1.35 24.663 0 27 1.35 2.34 20.68 13.5 23.381 13.5V62Z"/></svg>