<svg xmlns="http://www.w3.org/2000/svg" xmlns:xlink="http://www.w3.org/1999/xlink" xml:space="preserve" viewBox="0 0 128 128"><defs><linearGradient id="a" x1="0" x2="118.926" y1="269.463" y2="269.463" gradientTransform="matrix(1 0 0 .98333 0 -168.033)" gradientUnits="userSpaceOnUse"><stop offset="0" stop-color="#1a1d23"/><stop offset=".414" stop-color="#51596c"/><stop offset=".813" stop-color="#1a1d23"/><stop offset="1" stop-color="#454d5e"/></linearGradient><linearGradient id="b" x1="0" x2="118.926" y1="269.463" y2="269.463" gradientTransform="matrix(1 0 0 .98333 0 -168.033)" gradientUnits="userSpaceOnUse"><stop offset="0" stop-color="#3f4388"/><stop offset=".414" stop-color="#b6b9dd"/><stop offset=".813" stop-color="#3f4488"/><stop offset="1" stop-color="#a4a8d5"/></linearGradient><linearGradient xlink:href="#a" id="c" x1="117" x2="157.781" y1="120.391" y2="120.391" gradientTransform="translate(-33.781 -17.781)" gradientUnits="userSpaceOnUse"/></defs><path fill="url(#b)" d="M124 66c0 32.585-26.863 59-60 59S4 98.585 4 66 30.863 7 64 7s60 26.415 60 59m0 0"/><ellipse cx="64" cy="62" fill="#9397cd" paint-order="stroke fill markers" rx="60" ry="59"/><circle cx="103.609" cy="102.609" r="20.391" fill="url(#c)" class="st1"/><circle cx="103.609" cy="100.609" r="20.391" fill="#262a33" class="st1"/><path fill="#fff" d="M105.367 94.515v14.883h-5.32l7.312 6.797 7.312-6.797h-5.32V94.515Zm-5.977-9.492-7.312 6.797h5.32v14.883h3.984V91.82h5.32zm-35.402-4.504s-2.472-.242-4.418-1.556C57.637 77.638 44.723 68.57 44.723 68.57v17.965s.105 2.086 2.449 2.086h33.633c2.343 0 2.449-2.086 2.449-2.086V68.57s-12.914 9.08-14.86 10.394c-1.933 1.326-4.406 1.556-4.406 1.556m0-45.137s-15.972-.519-19.265 16.905v11.869s.14 1.267 3.773 3.849c3.633 2.58 13.031 9.84 15.504 9.84 2.46 0 11.871-7.26 15.504-9.84 3.633-2.582 3.773-3.85 3.773-3.85V52.288c-3.316-17.424-19.289-16.905-19.289-16.905m10.934 23.38H53.055v-6.464c2.215-8.654 10.933-8.77 10.933-8.77s8.719.116 10.934 8.77z" class="st2"/></svg>