<svg xmlns="http://www.w3.org/2000/svg" xmlns:xlink="http://www.w3.org/1999/xlink" xml:space="preserve" viewBox="0 0 128 128"><defs><linearGradient id="a" x1="32" x2="480.707" y1="63.397" y2="63.397" gradientTransform="translate(.013 57.398)scale(.2496)" gradientUnits="userSpaceOnUse"><stop offset="0" stop-color="#1b744b"/><stop offset=".033" stop-color="#2dbf7c" stop-opacity=".996"/><stop offset=".085" stop-color="#1c764c" stop-opacity=".98"/><stop offset=".925" stop-color="#155a3a" stop-opacity=".98"/><stop offset=".969" stop-color="#2fc781" stop-opacity=".969"/><stop offset="1" stop-color="#1b724a" stop-opacity=".969"/></linearGradient><linearGradient id="b" x1="94.021" x2="94.021" y1="194.219" y2="234.219" gradientTransform="matrix(.25 0 0 .2496 137.553 42.744)" gradientUnits="userSpaceOnUse"><stop offset="0" stop-color="#f9f06b"/><stop offset=".512" stop-color="#fcf7ac"/><stop offset="1" stop-color="#f9f06b"/></linearGradient><linearGradient xlink:href="#a" id="c" x1="48" x2="464" y1="44" y2="44" gradientTransform="matrix(.25 0 0 .25 0 53)" gradientUnits="userSpaceOnUse"/><linearGradient xlink:href="#b" id="d" x1="-64" x2="-64" y1="17" y2="107" gradientUnits="userSpaceOnUse"/></defs><rect width="104" height="84" x="12" y="32" fill="url(#c)" rx="8" ry="8" style="marker:none"/><rect width="104" height="100" x="12" y="12" fill="#2ec27e" rx="8" ry="8" style="marker:none"/><path fill="url(#d)" d="M-101.5 34a3.75 3.75 0 0 1-3.75 3.75A3.75 3.75 0 0 1-109 34a3.75 3.75 0 0 1 3.75-3.75A3.75 3.75 0 0 1-101.5 34m71.25-11.25A3.75 3.75 0 0 1-34 26.5a3.75 3.75 0 0 1-3.75-3.75A3.75 3.75 0 0 1-34 19a3.75 3.75 0 0 1 3.75 3.75m11.25 0a3.75 3.75 0 0 1-3.75 3.75 3.75 3.75 0 0 1-3.75-3.75A3.75 3.75 0 0 1-22.75 19 3.75 3.75 0 0 1-19 22.75M-19 34a3.75 3.75 0 0 1-3.75 3.75A3.75 3.75 0 0 1-26.5 34a3.75 3.75 0 0 1 3.75-3.75A3.75 3.75 0 0 1-19 34m-82.5 11.25a3.75 3.75 0 0 1-3.75 3.75 3.75 3.75 0 0 1-3.75-3.75 3.75 3.75 0 0 1 3.75-3.75 3.75 3.75 0 0 1 3.75 3.75m0 11.25a3.75 3.75 0 0 1-3.75 3.75A3.75 3.75 0 0 1-109 56.5a3.75 3.75 0 0 1 3.75-3.75 3.75 3.75 0 0 1 3.75 3.75m82.5 0a3.75 3.75 0 0 1-3.75 3.75 3.75 3.75 0 0 1-3.75-3.75 3.75 3.75 0 0 1 3.75-3.75A3.75 3.75 0 0 1-19 56.5m0-11.25A3.75 3.75 0 0 1-22.75 49a3.75 3.75 0 0 1-3.75-3.75 3.75 3.75 0 0 1 3.75-3.75A3.75 3.75 0 0 1-19 45.25m-22.5-22.5a3.75 3.75 0 0 1-3.75 3.75A3.75 3.75 0 0 1-49 22.75 3.75 3.75 0 0 1-45.25 19a3.75 3.75 0 0 1 3.75 3.75m-11.25 0a3.75 3.75 0 0 1-3.75 3.75 3.75 3.75 0 0 1-3.75-3.75A3.75 3.75 0 0 1-56.5 19a3.75 3.75 0 0 1 3.75 3.75m-15 0a3.75 3.75 0 0 1-3.75 3.75 3.75 3.75 0 0 1-3.75-3.75A3.75 3.75 0 0 1-71.5 19a3.75 3.75 0 0 1 3.75 3.75m-11.25 0a3.75 3.75 0 0 1-3.75 3.75 3.75 3.75 0 0 1-3.75-3.75A3.75 3.75 0 0 1-82.75 19 3.75 3.75 0 0 1-79 22.75m-11.25 22.5A3.75 3.75 0 0 1-94 49a3.75 3.75 0 0 1-3.75-3.75A3.75 3.75 0 0 1-94 41.5a3.75 3.75 0 0 1 3.75 3.75m0 11.25A3.75 3.75 0 0 1-94 60.25a3.75 3.75 0 0 1-3.75-3.75A3.75 3.75 0 0 1-94 52.75a3.75 3.75 0 0 1 3.75 3.75m60 0A3.75 3.75 0 0 1-34 60.25a3.75 3.75 0 0 1-3.75-3.75A3.75 3.75 0 0 1-34 52.75a3.75 3.75 0 0 1 3.75 3.75m0-11.25A3.75 3.75 0 0 1-34 49a3.75 3.75 0 0 1-3.75-3.75A3.75 3.75 0 0 1-34 41.5a3.75 3.75 0 0 1 3.75 3.75m0-11.25A3.75 3.75 0 0 1-34 37.75 3.75 3.75 0 0 1-37.75 34 3.75 3.75 0 0 1-34 30.25 3.75 3.75 0 0 1-30.25 34m-11.25 0a3.75 3.75 0 0 1-3.75 3.75A3.75 3.75 0 0 1-49 34a3.75 3.75 0 0 1 3.75-3.75A3.75 3.75 0 0 1-41.5 34m-11.25 0a3.75 3.75 0 0 1-3.75 3.75A3.75 3.75 0 0 1-60.25 34a3.75 3.75 0 0 1 3.75-3.75A3.75 3.75 0 0 1-52.75 34m-15 0a3.75 3.75 0 0 1-3.75 3.75A3.75 3.75 0 0 1-75.25 34a3.75 3.75 0 0 1 3.75-3.75A3.75 3.75 0 0 1-67.75 34M-79 34a3.75 3.75 0 0 1-3.75 3.75A3.75 3.75 0 0 1-86.5 34a3.75 3.75 0 0 1 3.75-3.75A3.75 3.75 0 0 1-79 34m-11.25 0A3.75 3.75 0 0 1-94 37.75 3.75 3.75 0 0 1-97.75 34 3.75 3.75 0 0 1-94 30.25 3.75 3.75 0 0 1-90.25 34M-79 101.25a3.75 3.75 0 0 1-3.75 3.75 3.75 3.75 0 0 1-3.75-3.75 3.75 3.75 0 0 1 3.75-3.75 3.75 3.75 0 0 1 3.75 3.75m-22.5 0a3.75 3.75 0 0 1-3.75 3.75 3.75 3.75 0 0 1-3.75-3.75 3.75 3.75 0 0 1 3.75-3.75 3.75 3.75 0 0 1 3.75 3.75m71.25 0A3.75 3.75 0 0 1-34 105a3.75 3.75 0 0 1-3.75-3.75A3.75 3.75 0 0 1-34 97.5a3.75 3.75 0 0 1 3.75 3.75m11.25 0a3.75 3.75 0 0 1-3.75 3.75 3.75 3.75 0 0 1-3.75-3.75 3.75 3.75 0 0 1 3.75-3.75 3.75 3.75 0 0 1 3.75 3.75M-19 90a3.75 3.75 0 0 1-3.75 3.75A3.75 3.75 0 0 1-26.5 90a3.75 3.75 0 0 1 3.75-3.75A3.75 3.75 0 0 1-19 90m-82.5-22.5a3.75 3.75 0 0 1-3.75 3.75A3.75 3.75 0 0 1-109 67.5a3.75 3.75 0 0 1 3.75-3.75 3.75 3.75 0 0 1 3.75 3.75m0 11.25a3.75 3.75 0 0 1-3.75 3.75 3.75 3.75 0 0 1-3.75-3.75 3.75 3.75 0 0 1 3.75-3.75 3.75 3.75 0 0 1 3.75 3.75m0 11.25a3.75 3.75 0 0 1-3.75 3.75A3.75 3.75 0 0 1-109 90a3.75 3.75 0 0 1 3.75-3.75A3.75 3.75 0 0 1-101.5 90m33.75 11.25A3.75 3.75 0 0 1-71.5 105a3.75 3.75 0 0 1-3.75-3.75 3.75 3.75 0 0 1 3.75-3.75 3.75 3.75 0 0 1 3.75 3.75m15 0A3.75 3.75 0 0 1-56.5 105a3.75 3.75 0 0 1-3.75-3.75 3.75 3.75 0 0 1 3.75-3.75 3.75 3.75 0 0 1 3.75 3.75m11.25 0a3.75 3.75 0 0 1-3.75 3.75 3.75 3.75 0 0 1-3.75-3.75 3.75 3.75 0 0 1 3.75-3.75 3.75 3.75 0 0 1 3.75 3.75m22.5-22.5a3.75 3.75 0 0 1-3.75 3.75 3.75 3.75 0 0 1-3.75-3.75A3.75 3.75 0 0 1-22.75 75 3.75 3.75 0 0 1-19 78.75m0-11.25a3.75 3.75 0 0 1-3.75 3.75 3.75 3.75 0 0 1-3.75-3.75 3.75 3.75 0 0 1 3.75-3.75A3.75 3.75 0 0 1-19 67.5m-71.25 0A3.75 3.75 0 0 1-94 71.25a3.75 3.75 0 0 1-3.75-3.75A3.75 3.75 0 0 1-94 63.75a3.75 3.75 0 0 1 3.75 3.75m0 11.25A3.75 3.75 0 0 1-94 82.5a3.75 3.75 0 0 1-3.75-3.75A3.75 3.75 0 0 1-94 75a3.75 3.75 0 0 1 3.75 3.75m0 11.25A3.75 3.75 0 0 1-94 93.75 3.75 3.75 0 0 1-97.75 90 3.75 3.75 0 0 1-94 86.25 3.75 3.75 0 0 1-90.25 90M-79 90a3.75 3.75 0 0 1-3.75 3.75A3.75 3.75 0 0 1-86.5 90a3.75 3.75 0 0 1 3.75-3.75A3.75 3.75 0 0 1-79 90m11.25 0a3.75 3.75 0 0 1-3.75 3.75A3.75 3.75 0 0 1-75.25 90a3.75 3.75 0 0 1 3.75-3.75A3.75 3.75 0 0 1-67.75 90m15 0a3.75 3.75 0 0 1-3.75 3.75A3.75 3.75 0 0 1-60.25 90a3.75 3.75 0 0 1 3.75-3.75A3.75 3.75 0 0 1-52.75 90m11.25 0a3.75 3.75 0 0 1-3.75 3.75A3.75 3.75 0 0 1-49 90a3.75 3.75 0 0 1 3.75-3.75A3.75 3.75 0 0 1-41.5 90m11.25 0A3.75 3.75 0 0 1-34 93.75 3.75 3.75 0 0 1-37.75 90 3.75 3.75 0 0 1-34 86.25 3.75 3.75 0 0 1-30.25 90m0-11.25A3.75 3.75 0 0 1-34 82.5a3.75 3.75 0 0 1-3.75-3.75A3.75 3.75 0 0 1-34 75a3.75 3.75 0 0 1 3.75 3.75m0-11.25A3.75 3.75 0 0 1-34 71.25a3.75 3.75 0 0 1-3.75-3.75A3.75 3.75 0 0 1-34 63.75a3.75 3.75 0 0 1 3.75 3.75" transform="scale(-1 1)"/><path fill="#3d3846" d="M49.6 45h28.8c1.988 0 3.6 1.633 3.6 3.648v28.704C82 79.367 80.388 81 78.4 81H49.6c-1.988 0-3.6-1.633-3.6-3.648V48.648C46 46.633 47.612 45 49.6 45"/><path fill="#5e5c64" d="M49.6 43h28.8c1.988 0 3.6 1.633 3.6 3.648v28.704C82 77.367 80.388 79 78.4 79H49.6c-1.988 0-3.6-1.633-3.6-3.648V46.648C46 44.633 47.612 43 49.6 43"/><path fill="#77767b" d="M50.8 56.924h18v2.4h-18zm0 4.8h9.6v4.8h-9.6zm10.8 0h13.2v4.8H61.6zm0 0"/></svg>