<svg xmlns="http://www.w3.org/2000/svg" viewBox="0 0 16 16"><path fill="currentColor" d="M11.94.5a4 4 0 0 0-.975.139 3.998 3.998 0 1 0 2.07 7.724A4 4 0 0 0 11.94.5M12 1.643a.57.57 0 0 1 .572.571v2.857a.57.57 0 0 1-.571.571.57.57 0 0 1-.571-.571V2.214a.57.57 0 0 1 .57-.571m0 4.57a.57.57 0 0 1 .572.572.57.57 0 0 1-.571.571.57.57 0 0 1-.571-.571.57.57 0 0 1 .57-.572" color="#ff9800"/><path d="M1.732 1.502q-.062 0-.123.002C.384 1.556-.428 2.823.24 3.873l.064.064 6.707.737-.012-.172a5 5 0 0 1 .611-2.369L1.86 1.51a2 2 0 0 0-.127-.008M.888 5.008l4.66 8.132c.584-.095.693-.246 1.055-.748l2.519-3.814a5 5 0 0 1-1.967-2.881Zm9.105 4.068L7.427 12.96l-.582.808c-.26.312-.778.311-.973-.062l.584.996c.13.187.26.311.389.435.712.56 1.878.499 2.46-.373l3.666-5.37A5 5 0 0 1 12 9.5a5 5 0 0 1-2.006-.425" color="#dfdfdf" opacity=".35"/></svg>