<svg xmlns="http://www.w3.org/2000/svg" viewBox="0 0 16 16"><path d="m11.94.5-.175.008a3.998 3.998 0 1 0 1.27 7.854A4 4 0 0 0 11.939.5M10.5 2.502a.5.5 0 0 1 .354.146L12 3.794l1.146-1.146a.5.5 0 0 1 .707 0 .5.5 0 0 1 0 .707L12.707 4.5l1.146 1.146a.5.5 0 0 1 0 .707.5.5 0 0 1-.707 0L12 5.208l-1.146 1.146a.5.5 0 0 1-.707 0 .5.5 0 0 1 0-.707L11.293 4.5l-1.146-1.146a.5.5 0 0 1 0-.707.5.5 0 0 1 .353-.146" class="ColorScheme-Text"/><path d="M1.732 1.502q-.062 0-.123.002C.384 1.556-.428 2.823.24 3.873l.064.064 6.707.737-.012-.172a5 5 0 0 1 .611-2.37L1.86 1.51a2 2 0 0 0-.127-.008M.888 5.008l4.66 8.132c.584-.095.693-.246 1.055-.748l2.519-3.814a5 5 0 0 1-1.967-2.881Zm9.105 4.068L7.427 12.96l-.582.808c-.26.312-.778.311-.973-.062l.584.996c.13.187.26.311.389.435.712.56 1.878.499 2.46-.373l3.666-5.37A5 5 0 0 1 12 9.5a5 5 0 0 1-2.006-.425" class="ColorScheme-Text" color="#dfdfdf" opacity=".35"/></svg>