<svg xmlns="http://www.w3.org/2000/svg" xmlns:xlink="http://www.w3.org/1999/xlink" xml:space="preserve" viewBox="0 0 128 128"><defs><linearGradient id="a"><stop offset="0" stop-color="#31394a"/><stop offset=".042" stop-color="#919db6"/><stop offset=".083" stop-color="#31394a"/><stop offset=".917" stop-color="#31394a"/><stop offset=".958" stop-color="#919db6"/><stop offset="1" stop-color="#31394a"/></linearGradient><linearGradient xlink:href="#a" id="b" x1="12" x2="116" y1="66" y2="66" gradientUnits="userSpaceOnUse"/></defs><rect width="104" height="100" x="12" y="16" fill="url(#b)" rx="8" ry="8" style="marker:none"/><rect width="104" height="100" x="12" y="12" fill="#5a6988" rx="8" ry="8" style="marker:none"/><path fill="#fefefe" d="M16.875 73.718v-.78H18.5v-1.563h1.625v-1.562h1.625V68.25h1.625v-1.562H25v-1.563h1.625v1.562H25v1.563h-1.625v1.562H21.75v1.563h-1.625v1.562H18.5V74.5h-1.625zm0-7.812v-.781H18.5v-1.562h1.625v1.562H18.5v1.562h-1.625zM41.25 54.968v-.78h1.625v-1.563H44.5v-1.562h1.625v1.562H44.5v1.562h-1.625v1.563H41.25zm32.5-4.687V49.5h-1.625v-1.562H70.5V30.749h3.25v1.562h1.625v18.75H73.75zM67.25 37v-7.813h1.625v15.625H67.25ZM51 33.093v-.78h1.625V30.75h1.625v-1.562h1.625v1.562H54.25v1.562h-1.625v1.563H51Z"/><path fill="#bfcadb" d="M42.875 106.531v-.781H41.25v-1.562h-1.625v-1.563H38v-1.562h-1.625V99.5H34.75v-1.562h-1.625v-1.563H31.5v-1.562h-1.625V93.25H28.25v-1.562h-1.625v-1.563H25v-1.562h-1.625V87H21.75v-1.562h-1.625v-1.563H18.5v-1.562h-1.625V80.75H15.25v-1.562h-1.625v-1.563H12V74.5h1.625v1.562h1.625v1.563h1.625v1.562H18.5v1.563h1.625v1.562h1.625v1.563h1.625v1.562H25V87h1.625v1.562h1.625v1.563h1.625v1.562H31.5v1.563h1.625v1.562h1.625v1.563h1.625v1.562H38V99.5h1.625v1.562h1.625v1.563h1.625v1.562H44.5v1.563h1.625v1.562h-3.25zm71.5-81.25V24.5h-1.625v-1.562h-1.625v-1.563H109.5v-1.562h-1.625V18.25h-1.625v-1.562h-1.625v-1.563H103v-1.562h-1.625V12h3.25v1.562h1.625v1.563h1.625v1.562h1.625v1.563h1.625v1.562h1.625v1.563h1.625v1.562H116v3.125h-1.625z"/><path fill="#2be7f4" d="M34.75 92.468v-.78h1.625v-1.563H38v-1.562h1.625V87h1.625v-1.562h1.625v-1.563H44.5V87h-1.625v1.562H41.25v1.563h-1.625v1.562H38v1.563h-3.25zm-3.25-3.125v-.78h-1.625V87H28.25v-1.562h1.625v-1.563H31.5v-1.562h1.625V80.75h1.625v-1.562h1.625v-1.563H38v1.562h1.625v1.563h1.625v1.562h-1.625v1.563H38v1.562h-1.625V87H34.75v1.562h-1.625v1.563H31.5Zm-6.5-7.03V80.75h1.625v-1.562h1.625v-1.563h1.625v-1.562H31.5V74.5h3.25v1.562h-1.625v1.563H31.5v1.562h-1.625v1.563H28.25v1.562h-1.625v1.563H25Zm27.625-7.032V74.5h1.625v-1.562h1.625v-1.563H57.5v-1.562h1.625V68.25h1.625v-1.562h1.625v-1.563H64v-1.562h1.625V62h1.625v-1.562h1.625v-1.563H70.5v-1.562h1.625V55.75h1.625v-1.562H77v1.562h-1.625v1.562H73.75v1.563h-1.625v1.562H70.5V62h-1.625v1.562H67.25v1.563h-1.625v1.562H64v1.563h-1.625v1.562H60.75v1.563h-1.625v1.562H57.5V74.5h-1.625v1.562h-3.25zm-3.25-3.125v-.781H47.75v-1.562h-1.625V68.25h1.625v-1.562h1.625v-1.563H51v-1.562h1.625V62h1.625v-1.562h1.625v-1.563H57.5v-1.562h1.625V55.75h1.625v-1.562h1.625v-1.563H64v-1.562h1.625V49.5h1.625v-1.562h3.25V49.5h1.625v3.125H70.5v1.562h-1.625v1.563H67.25v1.562h-1.625v1.563H64v1.562h-1.625V62H60.75v1.562h-1.625v1.563H57.5v1.562h-1.625v1.563H54.25v1.562h-1.625v1.563H51v1.562h-1.625zm-6.5-7.031v-1.563H44.5V62h1.625v-1.562h1.625v-1.563h1.625v-1.562H51V55.75h1.625v-1.562h1.625v-1.563h1.625v-1.562H57.5V49.5h1.625v-1.562h1.625v-1.563h1.625v-1.562H64V43.25h1.625v3.125H64v1.562h-1.625V49.5H60.75v1.562h-1.625v1.563H57.5v1.562h-1.625v1.563H54.25v1.562h-1.625v1.563H51v1.562h-1.625V62H47.75v1.562h-1.625v1.563H44.5v1.562h-1.625zM86.75 42.468v-.78h1.625v-1.563H90v-1.562h1.625V37h1.625v-1.562h1.625v-1.563H96.5v-1.562h1.625V30.75h1.625v-1.562h1.625v-1.563H103v-1.562h1.625V24.5h1.625v-1.562h1.625v-1.563h1.625V24.5h-1.625v1.562h-1.625v1.563h-1.625v1.562H103v1.563h-1.625v1.562H99.75v1.563h-1.625v1.562H96.5V37h-1.625v1.562H93.25v1.563h-1.625v1.562H90v1.563h-3.25zm-3.25-3.125v-.78h-1.625V37H80.25v-1.562h1.625v-1.563H83.5v-1.562h1.625V30.75h1.625v-1.562h1.625v-1.563H90v-1.562h1.625V24.5h1.625v-1.562h1.625v-1.563H96.5v-1.562h1.625V18.25h1.625v-1.562h1.625v-1.563H103v1.562h1.625v1.563h1.625v1.562h-1.625v1.563H103v1.562h-1.625V24.5H99.75v1.562h-1.625v1.563H96.5v1.562h-1.625v1.563H93.25v1.562h-1.625v1.563H90v1.562h-1.625V37H86.75v1.562h-1.625v1.563H83.5Zm-6.5-7.03V30.75h1.625v-1.562h1.625v-1.563h1.625v-1.562H83.5V24.5h1.625v-1.562h1.625v-1.563h1.625v-1.562H90V18.25h1.625v-1.562h1.625v-1.563h1.625v-1.562H96.5V12h3.25v1.562h-1.625v1.563H96.5v1.562h-1.625v1.563H93.25v1.562h-1.625v1.563H90v1.562h-1.625V24.5H86.75v1.562h-1.625v1.563H83.5v1.562h-1.625v1.563H80.25v1.562h-1.625v1.563H77Z"/><path fill="#f57479" d="M12 70.593v-.78h1.625V68.25h1.625v-1.562h1.625v1.562H15.25v1.562h-1.625v1.563H12Zm8.125-7.812V62h1.625v-1.562h1.625v-1.563H25v-1.562h1.625V55.75h1.625v-1.562h1.625v-1.563H31.5v-1.562h1.625V49.5h1.625v-1.562h1.625v-1.563H38v-1.562h1.625V43.25h1.625v-1.562h1.625v-1.563H44.5v-1.562h1.625V37h1.625v-1.562h1.625v-1.563H51v1.562h-1.625V37H47.75v1.562h-1.625v1.563H44.5v1.562h-1.625v1.563H41.25v1.562h-1.625v1.563H38v1.562h-1.625V49.5H34.75v1.562h-1.625v1.563H31.5v1.562h-1.625v1.563H28.25v1.562h-1.625v1.563H25v1.562h-1.625V62H21.75v1.562h-1.625zM38 58.093v-.78h1.625V55.75h1.625v1.562h-1.625v1.563H38Zm8.125-7.812V49.5h1.625v-1.562h1.625v-1.563H51v-1.562h1.625V43.25h1.625v-1.562h1.625v-1.563H57.5v1.562h-1.625v1.563H54.25v1.562h-1.625v1.563H51v1.562h-1.625V49.5H47.75v1.562h-1.625zm9.75-21.875v-.781H57.5v-1.562h1.625V24.5h1.625v-1.562h1.625v-1.563H64v-1.562h1.625V18.25h1.625v-1.562h1.625v-1.563H70.5v-1.562h1.625V12h1.625v1.562h-1.625v1.563H70.5v1.562h-1.625v1.563H67.25v1.562h-1.625v1.563H64v1.562h-1.625V24.5H60.75v1.562h-1.625v1.563H57.5v1.562h-1.625zM70.5 26.843v-.78h1.625V24.5h1.625v-1.562h1.625v-1.563H77v-1.562h3.25V18.25h3.25v-1.562h3.25v-1.563h1.625v-1.562H90V12h1.625v1.562H90v1.563h-1.625v1.562H86.75v1.563H83.5v1.562h-3.25v1.563H77v1.562h-1.625V24.5H73.75v1.562h-1.625v1.563H70.5Z"/><path fill="#8a9ab3" d="M46.125 106.531v-.781H44.5v-1.562h-1.625v-1.563H41.25v-1.562h-1.625V99.5H38v-1.562h-1.625v-1.563H34.75v-1.562h-1.625V93.25H31.5v-1.562h-1.625v-1.563H28.25v-1.562h-1.625V87H25v-1.562h-1.625v-1.563H21.75v-1.562h-1.625V80.75H18.5v-1.562h-1.625v-1.563H15.25v-1.562h-1.625V74.5H12v-1.562h1.625V74.5h1.625v1.562h1.625v1.563H18.5v1.562h1.625v1.563h1.625v1.562h1.625v1.563H25v1.562h1.625V87h1.625v1.562h1.625v1.563H31.5v1.562h1.625v1.563h1.625v1.562h1.625v1.563H38v1.562h1.625V99.5h1.625v1.562h1.625v1.563H44.5v1.562h1.625v1.563h1.625v1.562h-1.625zm68.25-79.688v-.78h-1.625V24.5h-1.625v-1.562H109.5v-1.563h-1.625v-1.562h-1.625V18.25h-1.625v-1.562H103v-1.563h-1.625v-1.562H99.75V12h1.625v1.562H103v1.563h1.625v1.562h1.625v1.563h1.625v1.562h1.625v1.563h1.625v1.562h1.625V24.5h1.625v1.562H116v1.563h-1.625z"/><path fill="#0094e8" d="M34.75 94.031v-.781h1.625v1.562H34.75zm-4.875-4.688v-.78H28.25V87h1.625v1.562H31.5v1.563h-1.625zm-6.5-6.25v-.78H25v1.562h-1.625z"/><path fill="#fe0043" d="M46.125 103.405v-.78H44.5v-1.562h-1.625V99.5H41.25v-1.562h-1.625v-1.563H38v-1.562h-1.625V93.25H38v-1.562h1.625v-1.563h1.625v-1.562h1.625V87H44.5v-1.562h1.625V87h1.625v1.562H51v1.563h4.875v-1.562H57.5v-3.126h1.625V80.75H57.5v-1.562h-1.625v-1.563H54.25v-1.562h1.625V74.5H57.5v-1.562h1.625v-1.563h1.625v-1.562h1.625V68.25H64v-1.562h1.625v-1.563h1.625v-1.562h1.625V62H70.5v-1.562h1.625v-1.563h1.625v-1.562h1.625V55.75h3.25v1.562h1.625v1.563h1.625v1.562h9.75v-1.562h1.625V49.5h-1.625v-3.125H90v-1.562h-1.625V43.25H90v-1.562h1.625v-1.563h1.625v-1.562h1.625V37H96.5v-1.562h1.625v-1.563h1.625v-1.562h1.625V30.75H103v-1.562h1.625v-1.563h1.625v-1.562h1.625V24.5h1.625v-1.562h1.625V24.5h1.625v1.562h1.625v1.563H116v12.5h-1.625v1.562h-1.625v1.563h-1.625v1.562H109.5v1.563h-1.625v1.562h-1.625V49.5h-1.625v1.562H103v1.563h-1.625v1.562H99.75v1.563h-1.625v1.562H96.5v1.563h-1.625v1.562H93.25V62h-1.625v1.562H90v1.563h-1.625v1.562H86.75v1.563h-1.625v1.562H83.5v1.563h-1.625v1.562H80.25V74.5h-1.625v1.562H77v1.563h-1.625v1.562H73.75v1.563h-1.625v1.562H70.5v1.563h-1.625v1.562H67.25V87h-1.625v1.562H64v1.563h-1.625v1.562H60.75v1.563h-1.625v1.562H57.5v1.563h-1.625v1.562H54.25V99.5h-1.625v1.562H51v1.563h-3.25v1.562h-1.625zm3.25-4.687v-.78H51v-1.563h1.625v-1.562h1.625V93.25h1.625v-1.562H54.25v1.562h-1.625v1.562H51v1.563h-1.625v1.562H47.75V99.5h1.625zm9.75-6.25v-.78h1.625v-1.563h1.625v-1.562H64V87h1.625v-1.562h1.625v-1.563h1.625v-1.562H70.5V80.75h1.625v-1.562h1.625v-1.563h1.625v-1.562H77V74.5h1.625v-1.562h1.625v-1.563h1.625v-1.562H83.5V68.25h1.625v-1.562h1.625v-1.563h1.625v-1.562H90V62h-9.75v1.562h-1.625v1.563H77v1.562h-1.625v1.563H73.75v1.562h-1.625v1.563H70.5v1.562h-1.625V74.5H67.25v1.562h-1.625v1.563H64v1.562h-1.625v1.563H60.75v4.687h-1.625v4.688H57.5v3.125h1.625zm35.75-43.75v-.78H96.5v-1.563h1.625v-1.562h1.625V43.25h1.625v-3.125H103V37h1.625v-3.125h1.625v-1.562h1.625V30.75h1.625v-1.562h1.625v-1.563h1.625v-1.562h-1.625v1.562H109.5v1.562h-1.625v1.563h-1.625v1.562h-1.625v1.563H103V37h-1.625v3.125H99.75v3.125h-1.625v1.562H96.5v1.563h-1.625v1.562H93.25V49.5h1.625zm-61.75 41.407v-1.563h1.625V87h1.625v-1.562H38v-1.563h1.625v-1.562h3.25v3.124H41.25V87h-1.625v1.562H38v1.563h-1.625v1.562h-3.25zm-6.5-6.25v-1.563h1.625V80.75h1.625v-1.562H31.5v-1.563h1.625v-1.562h3.25v3.124H34.75v1.563h-1.625v1.562H31.5v1.563h-1.625v1.562h-3.25zm-3.25-2.344v-.781H21.75v-1.562h-1.625v-1.563H18.5v-1.562h-1.625V74.5H15.25v-1.562h-1.625v-3.126H12v-4.687h1.625v-1.562h1.625V62h1.625v-1.562H18.5v-1.563h1.625v-1.562h1.625V55.75h1.625v-1.562H25v-1.563h1.625v-1.562h1.625V49.5h1.625v-1.562H31.5v-1.563h4.875v-1.562H38V43.25h1.625v-1.562h1.625v-1.563h1.625v-1.562H44.5V37h1.625v-1.562h1.625v-1.563h1.625v-1.562H51V30.75h1.625v-1.562h1.625v-1.563h1.625v-1.562H57.5V24.5h1.625v-1.562h1.625v-1.563h1.625v-1.562H64V18.25h1.625v-1.562h1.625v-1.563h1.625v-1.562H70.5V12h1.625v1.562h1.625V12H90v1.562h1.625V12H96.5v1.562h-1.625v1.563H93.25v1.562h-1.625v1.563H90v1.562h-1.625v1.563H86.75v1.562h-1.625V24.5H83.5v1.562h-1.625v1.563H80.25v1.562h-1.625v1.563H77v1.562h-1.625V30.75H73.75v-1.562H70.5v-1.563h-9.75v1.562h-1.625v9.375h1.625v1.563h1.625v1.562H64v3.125h-1.625v1.563H60.75v1.562h-1.625V49.5H57.5v1.562h-1.625v1.563H54.25v1.562h-1.625v1.563H51v1.562h-1.625v1.563H47.75v1.562h-1.625V62H44.5v1.562h-1.625v1.563H41.25v-1.562h-1.625V62H38v-1.562h-4.875V62h-3.25v1.562H28.25v4.688h1.625v3.125H31.5v1.562h1.625V74.5H31.5v1.562h-1.625v1.563H28.25v1.562h-1.625v1.563H25v1.562h-1.625zM18.5 73.718v-.78h1.625v-1.563h1.625v-1.562h1.625V68.25H25v-1.562h1.625v-1.563H25v1.562h-1.625v1.563H21.75v1.562h-1.625v1.563H18.5v1.562h-1.625V74.5H18.5zm-3.25-4.687v-.781h1.625v-1.562H18.5v-1.563h1.625v-1.562h1.625V62h1.625v-1.562H25V62h3.25v-1.562h4.875v-1.563h6.5v-1.562h1.625V55.75h1.625v-1.562H44.5v-1.563h1.625v-1.562h1.625V49.5h1.625v-1.562H51v-1.563h1.625v-1.562h1.625V43.25h1.625v-1.562H57.5V30.749h-1.625v-1.562H57.5v-1.562h1.625v-1.562h1.625V24.5h1.625v-1.562H64v-1.563h1.625v-1.562h1.625V18.25h1.625v-1.562H70.5v-1.563h1.625v-1.562H70.5v1.562h-1.625v1.562H67.25v1.563h-1.625v1.562H64v1.563h-1.625v1.562H60.75V24.5h-1.625v1.562H57.5v1.563h-1.625v1.562H54.25v1.563h-1.625v1.562H51v1.563h-1.625v1.562H47.75V37h-1.625v1.562H44.5v1.563h-1.625v1.562H41.25v1.563h-1.625v1.562H38v1.563h-1.625v1.562H34.75V49.5h-1.625v1.562H31.5v1.563h-1.625v1.562H28.25v1.563h-1.625v1.562H25v1.563h-1.625v1.562H21.75V62h-1.625v1.562H18.5v1.563h-1.625v1.562H15.25v1.563h-1.625v1.562h1.625zM25 59.655v-.781h1.625v-1.562h1.625v-1.563h1.625v-1.562H31.5v-1.562h1.625v-1.562h1.625V49.5h1.625v-1.562H38v-1.563h1.625v-1.562h1.625V43.25h1.625v-1.562H44.5v-1.563h1.625v-1.562h1.625V37h1.625v-1.562H51v-1.563h1.625v-1.562h1.625V30.75h1.625v1.562H54.25v1.563h-1.625v1.562H51V37h-1.625v1.562H47.75v1.563h-1.625v1.562H44.5v1.563h-1.625v1.562H44.5v1.563h1.625v1.562h1.625V49.5h-1.625v1.562H44.5V49.5h-1.625v-1.562H41.25v-1.563h-1.625v1.562H38V49.5h-1.625v1.562H34.75v1.563h-1.625v1.562H31.5v1.563h-1.625v1.562H28.25v1.563h-1.625v1.562H25Zm47.125-32.813v-.78h1.625v-1.563h1.625v-1.562H77v-1.562h3.25v-1.562h3.25V18.25h3.25v-1.562h1.625v-1.563H90v-1.562h-1.625v1.562H86.75v1.562H83.5v1.563h-3.25v1.562H77v1.563h-1.625v1.562H73.75V24.5h-1.625v1.562H70.5v1.563h1.625zM51 72.937v-1.562h1.625v-1.562h1.625V68.25h1.625v-1.562H57.5v-1.563h1.625v-1.562h1.625V62h1.625v-1.562H64v-1.563h1.625v-1.562h1.625V55.75h1.625v-1.562H70.5v-1.563h1.625v-1.562h1.625v1.562h1.625v1.562H73.75v1.563h-1.625v1.562H70.5v1.563h-1.625v1.562H67.25V62h-1.625v1.562H64v1.563h-1.625v1.562H60.75v1.563h-1.625v1.562H57.5v1.563h-1.625v1.562H54.25V74.5H51Zm-6.5-6.25v-1.562h1.625v-1.562h1.625V62h1.625v-1.562H51v-1.563h1.625v-1.562h1.625V55.75h1.625v-1.562H57.5v-1.563h1.625v-1.562h1.625V49.5h1.625v-1.562H64v-1.563h1.625v-1.562h1.625v1.562h1.625v1.562H67.25V49.5h-1.625v1.562H64v1.563h-1.625v1.562H60.75v1.563h-1.625v1.562H57.5v1.563h-1.625v1.562H54.25V62h-1.625v1.562H51v1.563h-1.625v1.562H47.75v1.563H44.5zm40.625-26.562v-1.563h1.625V37h1.625v-1.562H90v-1.563h1.625v-1.562h1.625V30.75h1.625v-1.562H96.5v-1.563h1.625v-1.562h1.625V24.5h1.625v-1.562H103v-1.563h1.625v-1.562h3.25v3.124h-1.625V24.5h-1.625v1.562H103v1.563h-1.625v1.562H99.75v1.563h-1.625v1.562H96.5v1.563h-1.625v1.562H93.25V37h-1.625v1.562H90v1.563h-1.625v1.562h-3.25zm-6.5-6.25v-1.563h1.625V30.75h1.625v-1.562H83.5v-1.563h1.625v-1.562h1.625V24.5h1.625v-1.562H90v-1.563h1.625v-1.562h1.625V18.25h1.625v-1.562H96.5v-1.563h1.625v-1.562h3.25v3.124H99.75v1.563h-1.625v1.562H96.5v1.563h-1.625v1.562H93.25V24.5h-1.625v1.562H90v1.563h-1.625v1.562H86.75v1.563h-1.625v1.562H83.5v1.563h-1.625v1.562h-3.25z"/><path fill="#9d2734" d="M46.125 104.968v-.78H44.5v-1.563h-1.625v-1.562H41.25V99.5h-1.625v-1.562H38v-1.563h-1.625v-1.562H38v1.562h1.625v1.562h1.625V99.5h1.625v1.562H44.5v1.563h1.625v1.562h1.625v-1.562H51v-1.562h1.625V99.5h1.625v-1.562h1.625v-1.563H57.5v-1.562h1.625V93.25h1.625v-1.562h1.625v-1.563H64v-1.562h1.625V87h1.625v-1.562h1.625v-1.563H70.5v-1.562h1.625V80.75h1.625v-1.562h-1.625v-1.563H70.5v-1.562h-1.625v-3.126h3.25V74.5h1.625v1.562h1.625v1.563H77v-1.562h1.625V74.5h1.625v-1.562h1.625v-1.563H83.5v-1.562h1.625V68.25h1.625v-1.562h1.625v-1.563H90v-1.562h1.625V62h1.625v-1.562h1.625v-1.563H96.5v-1.562h1.625V55.75h1.625v-1.562h1.625v-1.563H103v-1.562h1.625V49.5h1.625v-1.562h1.625v-1.563h1.625v-1.562h1.625V43.25h1.625v-1.562h1.625v-1.563H116v1.562h-1.625v1.563h-1.625v1.562h-1.625v1.563H109.5v1.562h-1.625V49.5h-1.625v1.562h-1.625v1.563H103v1.562h-1.625v1.563H99.75v1.562h-1.625v1.563H96.5v1.562h-1.625V62H93.25v1.562h-1.625v1.563H90v1.562h-1.625v1.563H86.75v1.562h-1.625v1.563H83.5v1.562h-1.625V74.5H80.25v1.562h-1.625v1.563H77v1.562h-1.625v1.563H73.75v1.562h-1.625V87H70.5v1.562h-1.625v1.563H67.25v1.562h-1.625v1.563H64v1.562h-1.625v1.563H60.75v1.562h-1.625V99.5H57.5v1.562h-1.625v1.563H54.25v1.562h-1.625v1.563h-6.5zm29.25-26.562v-.781H73.75v1.562h1.625zM47.75 98.718v-.78h1.625v-1.563H51v-1.562h1.625V93.25h1.625v-1.562h1.625v1.562H54.25v1.562h-1.625v1.563H51v1.562h-1.625V99.5H47.75zm-14.625-6.25v-.78H31.5v-1.563h1.625v1.562h1.625v1.563h-1.625zm-6.5-6.25v-.78H25v-1.563h1.625v1.562h1.625V87h-1.625zm-4.875-4.687v-.781h-1.625v-1.562H18.5v-1.563h-1.625v-1.562H15.25V74.5h-1.625v-1.562H12v-1.563h1.625v1.562h1.625V74.5h1.625v1.562H18.5v1.563h1.625v1.562h1.625v1.563h1.625v1.562H21.75zm71.5-32.813v-.78h1.625v-1.563H96.5v-1.562h1.625V43.25h1.625v-3.125h1.625V37H103v-3.125h1.625v-1.562h1.625V30.75h1.625v-1.562h1.625v-1.563h1.625v-1.562h1.625v1.562h-1.625v1.562H109.5v1.563h-1.625v1.562h-1.625v1.563h-1.625V37H103v3.125h-1.625v3.125H99.75v1.562h-1.625v1.563H96.5v1.562h-1.625V49.5H93.25z"/><path fill="#394365" d="M91.625 109.655v-.78H90v-1.562h-1.625v1.562H86.75v-1.562h-1.625v1.562H83.5v-1.562h-1.625v-1.563H80.25v1.562h-1.625v-1.562H77v1.562h-1.625v-1.562H73.75v-1.562h-1.625v1.562H70.5v-1.562h-1.625v-1.563H67.25v1.562h-1.625v-1.562H64v-1.562h-1.625V99.5H64v-1.562h1.625v-1.563h1.625v-1.562h1.625V93.25H70.5v1.562h1.625v1.563h1.625v1.562h1.625V99.5H77v1.562h1.625V99.5h1.625v1.562h1.625v1.563H83.5v1.562h1.625v-1.562h1.625v1.562h1.625v1.563H90v1.562h1.625v-1.562h1.625v1.562h1.625v1.563H96.5v-1.562h1.625v1.562h1.625v-1.562h1.625v1.562H103v1.562h-1.625v-1.562H99.75v1.562h-1.625v-1.562H96.5v1.562h-1.625v-1.562H93.25v1.562h-1.625zm1.625-1.562v-.78h-1.625v1.562h1.625zm-8.125-1.562v-.781h1.625v1.562h1.625v-1.562H86.75v-1.562h-1.625v1.562H83.5v-1.562h-1.625v-1.563H80.25v-1.562h-1.625v1.562H77v-1.562h-1.625V99.5H73.75v-1.562h-1.625v-1.563H70.5v-1.562h-1.625v1.562H67.25v1.562h-1.625V99.5H64v1.562h1.625v1.563h1.625v-1.562h1.625v1.562H70.5v1.562h1.625v-1.562h1.625v1.562h1.625v1.563H77v-1.562h1.625v1.562h1.625v-1.562h1.625v1.562H83.5v1.562h1.625zm-9.75-3.125v-.781H73.75v-1.562h-1.625v1.562H70.5v-1.562h-1.625V99.5H67.25v1.562h-1.625V99.5h1.625v-1.562h1.625v-1.563H70.5v1.562h1.625V99.5h1.625v1.562h1.625v1.563H77v1.562h-1.625zm-3.25-3.125V99.5H70.5v-1.562h-1.625V99.5H70.5v1.562h1.625zm6.5 3.125v-.781h1.625v1.562h-1.625zm26 6.25v-.781h1.625v1.562h-1.625zM44.5 108.093v-.78h3.25v-1.563h6.5v-1.562h1.625v-1.563h3.25v1.562H57.5v1.563h-1.625v1.562H51v1.563h-6.5zm58.5-12.5v-.78h-1.625V93.25H99.75v1.562h-1.625V93.25H96.5v1.562h-1.625V93.25H93.25v-1.562h-1.625v1.562H90v-1.562h-1.625v1.562H86.75v-1.562h-1.625v-1.563H83.5v1.562h-1.625v-1.562H80.25v-1.562h-1.625v1.562H77v-1.562h-4.875V87h1.625v-4.688h1.625V80.75H77v-1.562h1.625v-1.563h1.625v-1.562h1.625V74.5H83.5v-1.562h1.625v-1.563h1.625v-1.562h1.625V68.25H90v-1.562h1.625v-1.563h1.625v-1.562h1.625V62H96.5v-1.562h1.625v-1.563h1.625v-1.562h1.625V55.75H103v-1.562h4.875v1.562h-1.625v1.562h-1.625v1.563H103v1.562h-1.625V62H99.75v1.562h-1.625v1.563H96.5v1.562h-1.625v1.563H93.25v1.562h-1.625v1.563H90v1.562h-1.625V74.5H86.75v1.562h-1.625v1.563H83.5v1.562h-1.625v1.563H80.25v1.562h1.625v1.563H83.5v1.562h1.625V87h1.625v-1.562h1.625V87H90v1.562h1.625v1.563h1.625v-1.562h1.625v1.562H96.5v1.562h1.625v-1.562h1.625v1.562h1.625v1.563H103v1.562h1.625V93.25h1.625v1.562h1.625v1.563h-1.625v-1.562h-1.625v1.562H103Zm-6.5-3.125v-.78h-1.625v-1.563H93.25v1.562h1.625v1.563H96.5zm3.25 0v-.78h-1.625v1.562h1.625zm-11.375-1.562v-.781H90v1.562h1.625v-1.562H90v-1.562h-1.625V87H86.75v1.562h-1.625V87H83.5v-1.562h-1.625v-1.563H80.25v-1.562h-1.625v1.562H77v1.562h-1.625V87H77v1.562h1.625V87h1.625v1.562h1.625v1.563H83.5v-1.562h1.625v1.562h1.625v1.562h1.625zm-1.625-1.563v-.78h1.625v1.562H86.75zm-4.875-1.562V87H80.25v-1.562h-1.625V87H77v-1.562h1.625v-1.563h1.625v1.562h1.625V87H83.5v1.562h-1.625zm27.625 7.812v-.78h1.625v1.562H109.5Zm3.25 0v-.78h1.625v1.562h-1.625ZM51 87.781V87h-3.25v-1.562h-1.625v-1.563H44.5v-1.562h-1.625V80.75H41.25v-1.562h-1.625v-1.563H38v-1.562h-1.625V74.5H34.75v-1.562h-1.625v-1.563H31.5v-1.562h-1.625V68.25H28.25v-4.688h1.625V62h3.25v-1.562H28.25V62H25v-1.562h1.625v-1.563h1.625v-1.562h1.625V55.75H31.5v-1.562h1.625v-1.563h1.625v-1.562h1.625V49.5H38v-1.562h1.625v-1.563h1.625v1.562h1.625V49.5H44.5v3.125h-1.625v1.562H41.25v1.563h-1.625v1.562H38v1.563h-4.875v1.562H38V62h1.625v1.562h1.625v1.563h1.625v1.562H44.5v1.563h1.625v1.562h1.625v1.563h1.625v1.562H51V74.5h1.625v1.562h1.625v1.563h1.625v1.562H57.5v6.25h-1.625v3.125H51Zm30.875-28.125v-.781H80.25v-1.562h-1.625V55.75H77v-1.562h-1.625v-1.563H73.75v-1.562h-1.625V49.5H70.5v-1.562h-1.625v-1.563H67.25v-1.562h-1.625V43.25H64v-1.562h-1.625v-1.563H60.75v-1.562h-1.625v-9.376h1.625v-1.562h9.75v1.562h3.25v1.563h1.625v1.562H77v1.563h1.625v1.562h1.625V37h1.625v1.562H83.5v1.563h1.625v1.562h1.625v1.563h1.625v1.562H90v1.563h1.625V49.5h1.625v9.375h-1.625v1.562h-9.75zm-6.5-17.969v-9.375H73.75V30.75H70.5v17.187h1.625V49.5h1.625v1.562h1.625zM68.875 37v-7.813H67.25v15.625h1.625zm-22.75 10.156v-.781H44.5v-1.562h-1.625V43.25H44.5v-1.562h1.625v-1.563h1.625v-1.562h1.625V37H51v-1.562h1.625v-1.563h1.625v-1.562h1.625V30.75H57.5v9.375h-1.625v1.562H54.25v1.563h-1.625v1.562H51v1.563h-1.625v1.562h-3.25zm66.625-.781v-1.563h1.625V43.25H116v3.125h-1.625v1.562h-1.625z"/><path fill="#3e2731" d="M52.625 104.968v-.78h1.625v-1.563h1.625v-1.562H57.5V99.5h1.625v-1.562h1.625v-1.563h1.625v-1.562H64V93.25h1.625v-1.562h1.625v-1.563h1.625v-1.562H70.5V87h1.625v-4.688h1.625V80.75h1.625v-1.562H77v-1.563h1.625v-1.562h1.625V74.5h1.625v-1.562H83.5v-1.563h1.625v-1.562h1.625V68.25h1.625v-1.562H90v-1.563h1.625v-1.562h1.625V62h1.625v-1.562H96.5v-1.563h1.625v-1.562h1.625V55.75h1.625v-1.562H103v-1.563h1.625v-1.562h1.625V49.5h1.625v-1.562h1.625v-1.563h1.625v-1.562h1.625V43.25h1.625v-1.562H116v1.562h-1.625v1.562h-1.625v1.563h-1.625v1.562H109.5V49.5h-1.625v1.562h-1.625v1.563h-1.625v1.562H103v1.563h-1.625v1.562H99.75v1.563h-1.625v1.562H96.5V62h-1.625v1.562H93.25v1.563h-1.625v1.562H90v1.563h-1.625v1.562H86.75v1.563h-1.625v1.562H83.5V74.5h-1.625v1.562H80.25v1.563h-1.625v1.562H77v1.563h-1.625v1.562H73.75V87h-1.625v1.562H70.5v1.563h-1.625v1.562H67.25v1.563h-1.625v1.562H64v1.563h-1.625v1.562H60.75V99.5h-1.625v1.562H57.5v1.563h-1.625v1.562H54.25v1.563h-1.625z"/><path fill="#252a43" d="M57.5 91.687v-1.562h1.625v-4.688H57.5v3.125h-1.625v1.563H51v-1.562h-3.25V87h-1.625v-1.562H44.5v-1.563h-1.625v-1.562H41.25V80.75h-1.625v-1.562H38v-1.563h-1.625v-1.562H34.75V74.5h-1.625v-1.562H31.5v-1.563h-1.625v-1.562H31.5v1.562h1.625v1.562h1.625V74.5h1.625v1.562H38v1.563h1.625v1.562h1.625v1.563h1.625v1.562H44.5v1.563h1.625v1.562h1.625V87H51v1.562h4.875v-3.125H57.5V80.75h1.625v4.687h1.625V80.75h1.625v-1.562H64v-1.563h1.625v-1.562h1.625V74.5h1.625v1.562H70.5v1.563h1.625v3.125H70.5v1.562h-1.625v1.563H67.25v1.562h-1.625V87H64v1.562h-1.625v1.563H60.75v1.562h-1.625v1.563H57.5Zm16.25-16.406V74.5h-1.625v-1.562H70.5v-1.563h1.625v-1.562h1.625V68.25h1.625v-1.562H77v-1.563h1.625v-1.562h1.625V62H90v1.562h-1.625v1.563H86.75v1.562h-1.625v1.563H83.5v1.562h-1.625v1.563H80.25v1.562h-1.625V74.5H77v1.562h-3.25z"/><path fill="#171324" d="M57.5 101.843v-.78h1.625V99.5h1.625v-1.562h1.625v-1.563H64v-1.562h1.625V93.25h1.625v-1.562h1.625v-1.563H70.5v-1.562h1.625v3.124H70.5v1.563h-1.625v1.562H67.25v1.563h-1.625v1.562H64V99.5h-1.625v1.562H60.75v1.563H57.5ZM15.25 60.437v-1.562h1.625v-1.562H18.5V55.75h1.625v-1.562h1.625v-1.563h1.625v-1.562H25V49.5h1.625v-1.562h3.25V49.5H28.25v1.562h-1.625v1.563H25v1.562h-1.625v1.563H21.75v1.562h-1.625v1.563H18.5v1.562h-1.625V62H15.25zm89.375-7.031v-.781h1.625v-1.562h1.625V49.5h1.625v-1.562h1.625v-1.563h1.625v6.25h-1.625v1.562h-6.5zM67.25 13.562V12h3.25v1.562h-1.625v1.563H67.25z"/></svg>