<svg xmlns="http://www.w3.org/2000/svg" xmlns:xlink="http://www.w3.org/1999/xlink" xml:space="preserve" viewBox="0 0 128 128"><defs><linearGradient id="b" x1="759.677" x2="219.425" y1="79.312" y2="1003.199" gradientTransform="matrix(.13219 0 0 -.13219 -164.743 116.895)" gradientUnits="userSpaceOnUse"><stop offset=".066" stop-color="#47ffdc"/><stop offset=".45" stop-color="#6461ff"/><stop offset="1" stop-color="#412c99"/></linearGradient><linearGradient id="a" x1="536.482" x2="292.819" y1="1113.179" y2="64.084" gradientTransform="matrix(.13219 0 0 -.13219 -164.743 116.895)" gradientUnits="userSpaceOnUse"><stop offset=".48" stop-color="#0d9b80" stop-opacity="0"/><stop offset=".994" stop-color="#0d9b80"/></linearGradient><linearGradient id="e" x1="536.482" x2="292.819" y1="1113.179" y2="64.084" gradientTransform="matrix(.13219 0 0 -.13219 7.071 116.14)" gradientUnits="userSpaceOnUse"><stop offset=".48" stop-color="#24ecc6" stop-opacity="0"/><stop offset=".994" stop-color="#24ecc6"/></linearGradient><linearGradient id="f" x1="759.677" x2="219.425" y1="79.312" y2="1003.199" gradientTransform="matrix(.13219 0 0 -.13219 7.071 116.14)" gradientUnits="userSpaceOnUse"><stop offset=".066" stop-color="#abffef"/><stop offset=".45" stop-color="#cac9ff"/><stop offset="1" stop-color="#6d4aff"/></linearGradient><linearGradient xlink:href="#a" id="c" x1="536.482" x2="292.819" y1="1113.179" y2="64.084" gradientTransform="matrix(.13219 0 0 -.13219 7.075 120.14)" gradientUnits="userSpaceOnUse"/><linearGradient xlink:href="#b" id="d" x1="759.677" x2="219.425" y1="79.312" y2="1003.199" gradientTransform="matrix(.13219 0 0 -.13219 7.071 120.14)" gradientUnits="userSpaceOnUse"/></defs><path fill="#322273" fill-rule="evenodd" d="M52.825 113.835c4.336 7.839 15.453 8.275 20.357.78l45.83-69.849c4.865-7.402.212-17.343-8.592-18.347L20.347 16.095c-9.61-1.11-16.445 9.107-11.778 17.568z" class="st3" clip-rule="evenodd"/><path fill="url(#c)" fill-rule="evenodd" d="M52.825 113.835c4.336 7.839 15.453 8.275 20.357.78l45.83-69.849c4.865-7.402.212-17.343-8.592-18.347L20.347 16.08C10.75 14.984 3.902 25.19 8.582 33.65z" clip-rule="evenodd"/><path fill="url(#d)" d="m59.47 100.405-4.07 6.12c-1.226 1.832-6.769-4.278-6.769-4.278v4l4.19 7.601c.754 1.348 1.693 2.485 2.79 3.397 5.195 4.363 13.51 3.583 17.58-2.617l45.83-69.848c1.412-2.148 2.022-4.509 1.962-6.804-.009-.338.032-2.721-.005-3.056 0 0-4.675-7.818-10.548-8.488L20.343 16.095c-7.19-.831-13.28 8.028-13.28 8.028-.213 5.128.141 6.904 1.502 9.54l.357.647v-4l76.682 12.87c4.891.569 7.469 6.08 4.759 10.192z"/><path fill="#6d4aff" fill-rule="evenodd" d="M52.822 109.835c4.335 7.839 15.452 8.275 20.357.78l45.83-69.849c4.864-7.402.21-17.343-8.593-18.347L20.343 12.095c-9.61-1.11-16.444 9.107-11.778 17.568Z" class="st3" clip-rule="evenodd"/><path fill="url(#e)" fill-rule="evenodd" d="M52.822 109.835c4.335 7.839 15.452 8.275 20.357.78l45.83-69.849c4.864-7.402.21-17.343-8.593-18.347L20.343 12.08c-9.597-1.096-16.444 9.11-11.765 17.57Z" clip-rule="evenodd"/><path fill="url(#f)" d="m59.47 96.405-4.07 6.12c-1.653 2.472-5.341 2.326-6.769-.278l4.19 7.601c.754 1.348 1.693 2.485 2.79 3.397 5.195 4.363 13.51 3.583 17.58-2.617l45.83-69.848c4.865-7.403.212-17.344-8.592-18.348L20.343 12.095c-9.61-1.11-16.444 9.107-11.778 17.568l.357.647 76.682 8.87c4.891.569 7.469 6.08 4.76 10.192z"/></svg>