<svg xmlns="http://www.w3.org/2000/svg" viewBox="0 0 16 16"><path d="m1.732 1-.123.002C.385 1.054-.428 2.32.24 3.37l.064.065 10.749 1.181a.88.88 0 0 1 .7.432l.003.006a.87.87 0 0 1-.057.931l-4.272 6.472-.582.809c-.26.31-.779.31-.973-.063l.584.996c.13.187.26.311.389.436.712.56 1.878.498 2.46-.373l6.41-9.396c.362-.506.353-1.108.097-1.595l.002-.002-.02-.033q-.007-.017-.017-.034l-.017-.025a1.69 1.69 0 0 0-1.276-.8L1.86 1.006A2 2 0 0 0 1.732 1M.888 4.505l4.66 8.132c.584-.095.693-.245 1.054-.748l4.16-6.298Z" color="#dfdfdf"/></svg>