<svg xmlns="http://www.w3.org/2000/svg" xmlns:xlink="http://www.w3.org/1999/xlink" viewBox="0 0 128 128"><defs><linearGradient id="a"><stop offset="0" stop-color="#77767b"/><stop offset=".036" stop-color="#c0bfbc"/><stop offset=".071" stop-color="#9a9996"/><stop offset=".929" stop-color="#9a9996"/><stop offset=".964" stop-color="#c0bfbc"/><stop offset="1" stop-color="#77767b"/></linearGradient><linearGradient xlink:href="#a" id="d" x1="88.596" x2="536.596" y1="-449.394" y2="-449.394" gradientTransform="matrix(.23214 0 0 .2373 -8.567 203.735)" gradientUnits="userSpaceOnUse"/><linearGradient id="b"><stop offset="0" stop-color="#0a9e8c"/><stop offset="1" stop-color="#076e62"/></linearGradient><radialGradient xlink:href="#b" id="e" cx="106.667" cy="-60.348" r="225" fx="106.667" fy="-60.348" gradientTransform="matrix(.46923 0 0 .30139 -15.99 54.476)" gradientUnits="userSpaceOnUse"/><clipPath id="c" clipPathUnits="userSpaceOnUse"/></defs><g stroke-width="1.188" clip-path="url(#c)" transform="matrix(.1718 0 0 .17566 -29.097 -22.18)"><path fill="#9a9996" d="M429.482 475.975h224.804c13.947 0 25.176 10.982 25.176 24.623v261.4c0 13.641-11.229 24.623-25.176 24.623H429.482c-13.948 0-25.176-10.982-25.176-24.623v-261.4c0-13.641 11.228-24.623 25.176-24.623" style="font-variation-settings:normal;marker:none"/><path fill="#818084" d="M404.306 394.64h275.156v310.646H404.306z"/></g><rect width="104" height="72.141" x="12" y="24.95" fill="url(#d)" rx="9.455" ry="9.455" style="marker:none"/><rect width="104" height="80.364" x="12" y="12" fill="#deddda" rx="9.455" ry="9.455" style="marker:none"/><rect width="94.545" height="68.545" x="16.727" y="16.727" fill="#241f31" rx="4.727" ry="4.727" style="marker:none"/><rect width="89.818" height="63.573" x="19.091" y="19.336" fill="url(#e)" rx="2.119" ry="2.119" style="marker:none"/><path fill="#30dd81" d="m84.59 54.676 7.584-7.583c1.167-1.167 1.167-2.975 0-4.142-1.166-1.167-2.975-1.167-4.141 0l-8.634 8.633A34.06 34.06 0 0 0 64 47.91a34.55 34.55 0 0 0-15.516 3.675l-8.691-8.633c-1.167-1.167-2.975-1.167-4.142 0s-1.167 2.975 0 4.142l7.642 7.641C34.658 61.093 29 71.301 29 82.91h70c0-11.608-5.658-21.875-14.409-28.233zM51.5 70.41h-5v-5h5zm29.999 0h-5v-5h5z"/><path fill="#fff" d="M78.999 63.41a4.375 4.375 0 0 1 4.375 4.374 4.375 4.375 0 0 1-4.375 4.375 4.375 4.375 0 0 1-4.375-4.375 4.375 4.375 0 0 1 4.375-4.375m-30.029.001a4.375 4.375 0 0 1 4.375 4.374 4.375 4.375 0 0 1-4.375 4.375 4.375 4.375 0 0 1-4.375-4.375 4.375 4.375 0 0 1 4.375-4.375"/></svg>