<svg xmlns="http://www.w3.org/2000/svg" viewBox="0 0 16 16"><path d="M6.008 2.068C2.726 2.068.044 4.75.045 8.031c0 3.282 2.681 5.963 5.963 5.963L7 14v-2l-.986-.006h-.008a3.946 3.946 0 0 1-3.961-3.963c0-2.2 1.76-3.963 3.96-3.963a3.96 3.96 0 0 1 3.67 2.473 1 1 0 0 0 .393.453h5.057q.072.001.142.008a4.5 4.5 0 0 0-3.714-1.97c-.15 0-.29.047-.438.062-1.053-1.826-2.96-3.024-5.107-3.026"/><path fill="#26a269" d="M12.164 8.02a3.98 3.98 0 0 0-2.977 1.168 4 4 0 1 0 5.659 5.656 4 4 0 0 0-2.682-6.824m-.195.744c.507 0 1 .391 1 1.017v2.114l.492-.49a.996.996 0 0 1 1.414 0c.415.415.363 1.054-.008 1.476l-2.113 2.058c-.549.453-1.001.453-1.586-.087l-2.113-2.059c-.305-.298-.222-1.108.119-1.389.346-.329.876-.488 1.416 0l.367.366V9.78a1.02 1.02 0 0 1 1.012-1.017" class="success"/></svg>