<svg xmlns="http://www.w3.org/2000/svg" xmlns:xlink="http://www.w3.org/1999/xlink" viewBox="0 0 128 128"><defs><linearGradient id="b"><stop offset="0" stop-color="#4d4d4d"/><stop offset="1" stop-color="#404040"/></linearGradient><linearGradient id="a"><stop offset="0" stop-color="#262626"/><stop offset=".042" stop-color="#4f4f4f"/><stop offset=".083" stop-color="#262626"/><stop offset=".917" stop-color="#262626"/><stop offset=".958" stop-color="#4f4f4f"/><stop offset="1" stop-color="#262626"/></linearGradient><linearGradient xlink:href="#a" id="c" x1="48" x2="464" y1="44" y2="44" gradientTransform="matrix(.25 0 0 .25 0 53)" gradientUnits="userSpaceOnUse"/><linearGradient id="e" x1="0" x2="1" y1="0" y2="0" gradientTransform="matrix(5.14161 -17.1923 14.55232 5.94813 67.068 88.812)" gradientUnits="userSpaceOnUse"><stop offset="0" stop-color="#ff9700"/><stop offset=".53" stop-color="#f48e00"/><stop offset="1" stop-color="#d06f00"/></linearGradient><linearGradient xlink:href="#b" id="d" x1="64" x2="64" y1="12" y2="112" gradientUnits="userSpaceOnUse"/></defs><rect width="104" height="84" x="12" y="32" fill="url(#c)" rx="8" ry="8" style="marker:none"/><rect width="104" height="100" x="12" y="12" fill="url(#d)" rx="8" ry="8" style="marker:none"/><path fill="url(#e)" fill-rule="evenodd" d="M94.018 62.23c0-.914-.676-1.441-1.505-1.18L35.478 79.138c-.83.263-1.504 1.219-1.504 2.131v18.485c0 .914.674 1.443 1.504 1.18l57.035-18.085c.83-.263 1.505-1.22 1.505-2.133z" clip-rule="evenodd"/><path fill="#ff9800" fill-rule="evenodd" d="M33.974 61.641c0 .914.674 1.87 1.504 2.134l57.044 18.087c.83.264 1.504-.265 1.504-1.177V62.199c0-.913-.674-1.869-1.504-2.132L35.478 41.979c-.83-.263-1.504.264-1.504 1.178z" clip-rule="evenodd"/><path fill="#ff9800" fill-rule="evenodd" d="M94.018 24.247c0-.914-.676-1.443-1.505-1.18L35.478 41.153c-.83.263-1.504 1.22-1.504 2.133V61.77c0 .914.674 1.441 1.504 1.18l57.035-18.087c.83-.263 1.505-1.219 1.505-2.131z" clip-rule="evenodd"/></svg>