<svg xmlns="http://www.w3.org/2000/svg" viewBox="0 0 16 16"><path d="M7.39.918c-3.06.864-4.901 3.839-5.273 4.45-.371.61-1.383 3.455.02 5.634 1.344 2.088 3.754 2.3 6.006 1.394v-.959c-3.232 1.036-6.349-1.184-5.659-4.986C3.178 2.633 7.391.918 7.391.918m6.055 5.178q-.192.547-.441 1.078.098-.052.201-.088c.105-.332.182-.669.24-.99" class="st0"/><path fill-opacity=".8" d="M7.39.918s-2.715.242-5.495 4.03c-2.781 3.787-1.856 9.184 2.261 9.86 1.424.235 2.777-.047 3.987-.619v-1.793c-2.252.906-4.662.694-6.006-1.394-1.403-2.179-.391-5.024-.02-5.635.372-.61 2.212-3.585 5.274-4.449m6.223 3.31s.026 1.48-.408 2.858a1.5 1.5 0 0 1 .51-.086h.053c.22-1.192.073-2.083-.155-2.771" class="st1"/><path fill-opacity=".4" d="M9.863.121a7.2 7.2 0 0 0-2.295.344 10 10 0 0 0-1.42.596c-.055.028-.1.058-.154.087-.435.234-.874.504-1.398.864.668-.445 2.743-1.703 4.85-1.703 2.557 0 4.158 1.864 4.52 3.449.218.948.317 2.043.114 3.242h.768c.173-.99.163-1.862.047-2.518-.248-1.397-.804-2.8-2.41-3.718C11.68.304 10.744.13 9.862.12m-1.72 14.371-.159.076c-2.756 1.329-5.586.182-5.586.182s.61.608 1.735.967c.002 0 2.039.487 4.01-.31zM4.689 15.86q.063.013.127.024-.064-.011-.127-.024" class="st2"/><path fill-opacity=".6" d="M9.813 0C6.68 0 4.37 2.166 4.37 2.166 5.623 1.293 6.397.861 7.568.465s3.31-.62 4.916.299c1.607.918 2.163 2.321 2.41 3.718.117.656.127 1.527-.046 2.518h.58q.117 0 .23.018c.177-1.808-.259-3.29-.638-4.069C14.38 1.637 12.944 0 9.813 0m-1.67 15.406c-1.972.798-4.01.31-4.01.31 1.101.364 2.648.363 3.902.083l.145-.035a1.5 1.5 0 0 1-.037-.336z" class="st3"/><path d="M9.714 8h1.715c.314 0 .571.258.571.572v6.857a.573.573 0 0 1-.571.571H9.714a.573.573 0 0 1-.571-.571V8.572c0-.314.257-.572.571-.572m4 0h1.715c.314 0 .571.258.571.572v6.857a.573.573 0 0 1-.571.571h-1.715a.573.573 0 0 1-.571-.571V8.572c0-.314.257-.572.571-.572m0 0"/></svg>