<svg xmlns="http://www.w3.org/2000/svg" xmlns:xlink="http://www.w3.org/1999/xlink" xml:space="preserve" viewBox="0 0 16 16"><defs><linearGradient id="a"><stop offset="0" stop-color="#848484"/><stop offset="1" stop-color="#9c9c9c" stop-opacity=".9"/></linearGradient><linearGradient xlink:href="#a" id="b" x1="0" x2="16" y1="8" y2="8" gradientUnits="userSpaceOnUse"/></defs><path fill="url(#b)" d="M8 5.777c-.553 0-1.11.183-1.527.555-.419.372-.696.934-.696 1.668s.28 1.296.698 1.668.972.555 1.525.555 1.11-.183 1.527-.555c.419-.372.696-.934.696-1.668s-.28-1.296-.698-1.668S8.553 5.777 8 5.777M2.934 0A2.93 2.93 0 0 0 0 2.934v10.132A2.93 2.93 0 0 0 2.934 16h10.132A2.93 2.93 0 0 0 16 13.066V2.934A2.93 2.93 0 0 0 13.066 0Zm2.843 2.2L7.34 4.9a.09.09 0 0 0 .094.043Q7.71 4.891 8 4.89q.29.002.566.054A.09.09 0 0 0 8.66 4.9l1.563-2.7 1.69.978-1.561 2.699a.09.09 0 0 0 .007.103c.246.287.44.62.569.983a.09.09 0 0 0 .084.058h3.12V8.98h-3.12a.09.09 0 0 0-.084.058 3.1 3.1 0 0 1-.569.983.09.09 0 0 0-.007.103l1.56 2.7-1.69.978L8.66 11.1a.09.09 0 0 0-.094-.043A3 3 0 0 1 8 11.11a3 3 0 0 1-.566-.054.09.09 0 0 0-.094.043l-1.563 2.7-1.69-.978 1.561-2.699a.09.09 0 0 0-.007-.103 3.1 3.1 0 0 1-.569-.983.09.09 0 0 0-.084-.058h-3.12V7.02h3.12a.09.09 0 0 0 .084-.058 3.1 3.1 0 0 1 .569-.983.09.09 0 0 0 .007-.103l-1.56-2.7Z" overflow="visible"/></svg>