<svg xmlns="http://www.w3.org/2000/svg" viewBox="0 0 16 16"><path d="M6.008 2.068C2.726 2.068.044 4.75.045 8.031c0 3.282 2.681 5.963 5.963 5.963L7 14v-2l-.986-.006h-.008a3.946 3.946 0 0 1-3.961-3.963c0-2.2 1.76-3.963 3.96-3.963a3.96 3.96 0 0 1 3.67 2.473 1 1 0 0 0 .393.453h5.057q.072.001.142.008a4.5 4.5 0 0 0-3.714-1.97c-.15 0-.29.047-.438.062-1.053-1.826-2.96-3.024-5.107-3.026"/><path fill="#e01b24" d="M11.731 8.028a4 4 0 1 0 3.114 6.816 4 4 0 0 0-3.114-6.816m-1.129 1.57c.254 0 .512.102.707.297l.707.707.707-.707a1 1 0 1 1 1.415 1.414l-.708.707.708.707a1 1 0 0 1-1.415 1.414l-.707-.707-.707.707a.999.999 0 1 1-1.414-1.414l.707-.707-.707-.707a1 1 0 0 1 0-1.414c.196-.195.453-.297.707-.297m0 0" class="error"/></svg>