<svg xmlns="http://www.w3.org/2000/svg" xmlns:xlink="http://www.w3.org/1999/xlink" xml:space="preserve" viewBox="0 0 128 128"><defs><linearGradient id="a" x1="37.001" x2="123.273" y1="121.847" y2="121.847" gradientTransform="matrix(.9985 0 0 .98183 .185 3.376)" gradientUnits="userSpaceOnUse"><stop offset="0" stop-color="#1543a3"/><stop offset=".37" stop-color="#618deb"/><stop offset=".788" stop-color="#1543a3"/><stop offset="1" stop-color="#618deb"/></linearGradient></defs><path fill="url(#a)" d="M64 7C30.862 7 3.996 33.414 4 65.998 4 98.583 30.862 125 64 125c33.138-.004 60-26.417 60-59.002C124 33.418 97.138 7 64 7"/><path fill="#1b56d2" fill-opacity=".4" d="M82.787 38.613 37.333 96.19l29.241 24.753v4c27.828-1.155 50.754-20.946 56.198-47.01v-4z"/><ellipse cx="64" cy="62" fill="#326ce5" rx="60" ry="59"/><path fill="#1b56d2" d="M82.787 34.613 37.333 92.19l29.241 28.753c27.828-1.155 50.754-20.946 56.198-47.01Z"/><path fill="#fff" d="M37.333 92.189v-38.97c0-14.482 11.94-26.222 26.667-26.222s26.667 11.74 26.667 26.223v38.97c0-.001-25.803 20.515-53.334-.001"/><path fill="#e2e1e0" d="M90.667 53.22c0-14.483-11.94-26.223-26.667-26.223l-.135.004v74.301c15.56-.178 26.802-9.113 26.802-9.113z"/><path fill="#d48b07" d="M56.726 57.074 64 53.035l7.272 4.039L64 77.94z"/><path fill="#bf7908" d="m63.999 77.94 7.272-20.866L64 53.035l-.135.075v24.444z"/><g fill="#273b7a" transform="matrix(.23437 0 0 .23047 4 3)"><circle cx="211.747" cy="216.316" r="9.481"/><circle cx="298.667" cy="216.316" r="9.481"/></g></svg>