<svg xmlns="http://www.w3.org/2000/svg" xml:space="preserve" viewBox="0 0 128 128"><path fill="#f6f5f4" d="M27.977 8h50l30.043 29.918.001 74.06c0 4.432-3.612 8.022-8.044 8.022h-72c-4.432 0-8-3.568-8-8V16c0-4.432 3.568-8 8-8"/><path fill="#deddda" d="M77.977 8v22c0 4.432 3.61 7.924 8.042 7.924l22.001-.006Z"/><path fill="#ca3c32" d="M46.32 103.92a14.699 14.699 0 1 1 14.717-14.7 14.715 14.715 0 0 1-14.717 14.7"/><path fill="#9259a3" d="M81.647 103.92a14.699 14.699 0 1 1 14.715-14.7 14.715 14.715 0 0 1-14.715 14.699"/><path fill="#399746" d="M63.992 73.317a14.699 14.699 0 1 1 14.699-14.699 14.68 14.68 0 0 1-14.699 14.7"/></svg>