<svg xmlns="http://www.w3.org/2000/svg" xmlns:xlink="http://www.w3.org/1999/xlink" xml:space="preserve" viewBox="0 0 128 128"><defs><linearGradient id="a"><stop offset="0" stop-color="#3c98bb"/><stop offset="1" stop-color="#29b1b0"/></linearGradient><linearGradient xlink:href="#a" id="b" x1="33.339" x2="77.978" y1="108.121" y2="37.923" gradientUnits="userSpaceOnUse"/></defs><path fill="url(#b)" d="M27.978 8h50l30.043 29.918.001 74.06c0 4.432-3.612 8.022-8.044 8.022h-72c-4.432 0-8-3.568-8-8V16c0-4.432 3.568-8 8-8"/><path fill-opacity=".2" d="M77.978 8v22c0 4.432 3.61 7.923 8.043 7.923l22-.005z"/><path fill="#fff" d="M65.634 88.616q0 4.176 1.198 5.604 1.2 1.43 4.358 1.429 3.268 0 8.389-3.297l2.178 3.626Q72.171 104 65.961 104t-9.805-2.967q-3.595-3.075-3.595-10.769V61.473h-5.447l-.871-4.066 6.318-1.978v-5.385L65.634 44v12.088L78.49 55.1l-1.198 7.143-11.657-.44z"/></svg>