<svg xmlns="http://www.w3.org/2000/svg" xmlns:xlink="http://www.w3.org/1999/xlink" viewBox="0 0 128 128"><defs><linearGradient xlink:href="#a" id="G" x1="25.456" x2="25.456" y1="22.471" y2="31.342" gradientTransform="matrix(1 0 0 -1 -2.057 63.327)" gradientUnits="userSpaceOnUse"/><linearGradient id="a"><stop offset="0" stop-opacity=".486"/><stop offset="1" stop-color="#5e5e5e" stop-opacity=".216"/></linearGradient><linearGradient xlink:href="#b" id="F" x1="27.027" x2="29.22" y1="21.026" y2="42.758" gradientTransform="translate(6.986 3.992)scale(1.76423)" gradientUnits="userSpaceOnUse"/><linearGradient id="b"><stop offset="0"/><stop offset="1" stop-color="#545454"/></linearGradient><linearGradient xlink:href="#a" id="D" x1="25.456" x2="25.456" y1="22.471" y2="31.342" gradientUnits="userSpaceOnUse"/><linearGradient id="l"><stop offset="0" stop-color="#083de2"/><stop offset=".564" stop-color="#0638d7"/><stop offset="1" stop-color="#041f78"/></linearGradient><linearGradient xlink:href="#b" id="n" x1="27.027" x2="29.22" y1="21.026" y2="42.758" gradientTransform="translate(-.324 -.744)" gradientUnits="userSpaceOnUse"/><linearGradient id="m"><stop offset="0" stop-color="#fff"/><stop offset=".333" stop-color="#fff"/><stop offset="1" stop-color="gray"/></linearGradient><linearGradient xlink:href="#c" id="z" x1="-104.584" x2="-4.029" y1="62.026" y2="62.026" gradientTransform="translate(119.982)" gradientUnits="userSpaceOnUse"/><linearGradient id="c"><stop offset="0"/><stop offset=".41" stop-color="gray"/><stop offset=".81"/><stop offset="1" stop-color="#666"/></linearGradient><linearGradient xlink:href="#d" id="y" x1="15.568" x2="43.591" y1="5.25" y2="47.773" gradientTransform="translate(4.914 -2.009)scale(1.93898)" gradientUnits="userSpaceOnUse"/><linearGradient id="d"><stop offset="0" stop-color="#f46363"/><stop offset="1" stop-color="#9f0000"/></linearGradient><linearGradient xlink:href="#d" id="x" x1="15.568" x2="43.591" y1="5.25" y2="47.773" gradientTransform="translate(-.945 -1.98)scale(1.93837)" gradientUnits="userSpaceOnUse"/><linearGradient xlink:href="#d" id="w" x1="15.568" x2="43.591" y1="5.25" y2="47.773" gradientTransform="translate(2.42 -2.909)scale(1.9239)" gradientUnits="userSpaceOnUse"/><linearGradient xlink:href="#d" id="v" x1="15.568" x2="43.591" y1="5.25" y2="47.773" gradientTransform="translate(4.918 1.385)scale(1.93898)" gradientUnits="userSpaceOnUse"/><linearGradient xlink:href="#d" id="u" x1="15.568" x2="43.591" y1="5.25" y2="47.773" gradientTransform="translate(-.942 1.395)scale(1.93837)" gradientUnits="userSpaceOnUse"/><linearGradient xlink:href="#d" id="t" x1="15.568" x2="43.591" y1="5.25" y2="47.773" gradientTransform="translate(2.424 3.255)scale(1.9239)" gradientUnits="userSpaceOnUse"/><linearGradient xlink:href="#e" id="s" x1="68.84" x2="117.063" y1="43.435" y2="43.435" gradientUnits="userSpaceOnUse"/><linearGradient id="e"><stop offset=".93"/><stop offset=".97" stop-color="#737373"/><stop offset="1"/></linearGradient><linearGradient xlink:href="#f" id="r" x1="68.881" x2="117.106" y1="88.418" y2="88.418" gradientUnits="userSpaceOnUse"/><linearGradient id="f"><stop offset=".43"/><stop offset=".5" stop-color="#737373"/><stop offset=".57"/></linearGradient><linearGradient xlink:href="#g" id="q" x1="10.895" x2="58.77" y1="43.353" y2="43.353" gradientUnits="userSpaceOnUse"/><linearGradient id="g"><stop offset="0"/><stop offset=".03" stop-color="#737373"/><stop offset=".07"/></linearGradient><linearGradient xlink:href="#f" id="p" x1="10.924" x2="58.809" y1="88.483" y2="88.483" gradientUnits="userSpaceOnUse"/><linearGradient xlink:href="#h" id="o" x1="40.236" x2="88.084" y1="90.814" y2="90.814" gradientUnits="userSpaceOnUse"/><linearGradient id="h"><stop offset="0"/><stop offset=".04" stop-color="#737373"/><stop offset=".1"/><stop offset=".9"/><stop offset=".96" stop-color="#737373"/><stop offset="1"/></linearGradient><radialGradient xlink:href="#l" id="B" cx="29.727" cy="27.727" r="13.79" fx="29.727" fy="27.727" gradientTransform="matrix(1.13636 0 0 1.0989 -4.853 -1.822)" gradientUnits="userSpaceOnUse"/><radialGradient xlink:href="#m" id="A" cx="29.511" cy="23.535" r="26.856" fx="29.511" fy="23.535" gradientTransform="rotate(-1.445 1245.397 130.255)scale(2.0725 .94537)" gradientUnits="userSpaceOnUse"/><filter id="H" width="1.033" height="1.16" x="-.017" y="-.08"><feGaussianBlur stdDeviation=".359"/></filter><filter id="E" width="1.033" height="1.151" x="-.017" y="-.075"><feGaussianBlur stdDeviation=".356"/></filter><clipPath id="C" clipPathUnits="userSpaceOnUse"><path fill="none" fill-rule="evenodd" stroke="url(#n)" stroke-width="2" d="M1.526 29.128s17.271-11.13 28.284-11.352 37.472 12.732 37.472 12.732-26.727 10.845-37.871 10.816c-11.065-.03-27.885-12.196-27.885-12.196Z"/></clipPath></defs><path fill="#f6f5f4" d="M27.996 8h49.975l30.028 29.918.001 74.06c0 4.432-3.61 8.022-8.04 8.022H27.996A7.98 7.98 0 0 1 20 112V16c0-4.432 3.566-8 7.996-8" enable-background="new"/><path fill="#deddda" d="M77.972 8v22c0 4.432 3.609 7.923 8.039 7.923L108 37.918Z" enable-background="new"/><g transform="translate(27.077 36.996)scale(.57692)"><path fill="url(#o)" fill-rule="evenodd" d="M64.553 65.629 41.48 109.678l-1.245-1.371v4A3.693 3.693 0 0 0 43.93 116h40.46a3.693 3.693 0 0 0 3.694-3.693v-4l-1.064 1.543z" enable-background="new"/><path fill="url(#p)" fill-rule="evenodd" d="M14.486 68.379c-1.406.05-3.562-.309-3.562-.309v4c0 .575.133 1.141.39 1.655l.319.521 19.982 32.781.117.194a3.693 3.693 0 0 0 6.176.015l.307-.566 20.594-38.137-44.041-.152z" enable-background="new"/><path fill="url(#q)" fill-rule="evenodd" d="M34.772 23.084c-1.135 0-2.206.52-2.907 1.412l-.455.746-19.896 32.64-.002.005-.618-1.955v4a3.693 3.693 0 0 0 3.49 3.69l.428-.003 43.957-.152L38.144 25.27l-.263-.486a3.7 3.7 0 0 0-3.11-1.701m-22.973 34.43" enable-background="new"/><path fill="url(#r)" fill-rule="evenodd" d="m113.498 68.299-.19.002-44.427.152 21.027 38.373.112.201a3.693 3.693 0 0 0 6.132.346l.373-.613 19.842-32.553.367-.601a3.7 3.7 0 0 0 .372-1.614v-4s-2.035.344-3.608.307" enable-background="new"/><path fill="url(#s)" fill-rule="evenodd" d="M93.15 23.168a3.69 3.69 0 0 0-3.158 1.78l-.156.284L68.84 63.547l44.11.152.81.002a3.693 3.693 0 0 0 3.303-3.672v-4l-.934 1.381-19.758-32.355-.137-.227a3.7 3.7 0 0 0-3.084-1.66" enable-background="new"/><path fill-rule="evenodd" d="M43.88 16c-1.52 0-3.692-.307-3.692-.307v4c0 .492.098.979.289 1.432l.312.588L64.514 66.37l23.008-44.773.224-.438a3.7 3.7 0 0 0 .305-1.467v-4S86.056 16 84.357 16z" enable-background="new"/><path fill="url(#t)" fill-rule="evenodd" d="M43.88 12a3.693 3.693 0 0 0-3.692 3.693 3.7 3.7 0 0 0 .289 1.432l.312.588L64.514 62.37l23.008-44.773.224-.438a3.7 3.7 0 0 0 .305-1.467A3.693 3.693 0 0 0 84.357 12Z" enable-background="new"/><path fill="url(#u)" fill-rule="evenodd" d="M93.15 19.168a3.69 3.69 0 0 0-3.158 1.78l-.156.284L68.84 59.547l44.11.152.81.002a3.693 3.693 0 0 0 3.303-3.672 3.7 3.7 0 0 0-.452-1.77l-.185-.302L96.37 21.055l-.137-.227a3.7 3.7 0 0 0-3.084-1.66" enable-background="new"/><path fill="url(#v)" fill-rule="evenodd" d="M34.772 19.084a3.7 3.7 0 0 0-2.907 1.412l-.455.746-19.896 32.64-.002.005-.014.023a3.7 3.7 0 0 0-.604 2.022 3.693 3.693 0 0 0 3.49 3.69l.428-.003 43.957-.152L38.144 21.27l-.263-.486a3.7 3.7 0 0 0-3.11-1.701M14.588 52.238a4 4 0 0 0-.486.035 4 4 0 0 1 .486-.035m-.66.067a4 4 0 0 0-.303.064 4 4 0 0 1 .303-.064m-.496.127a4 4 0 0 0-.284.103 4 4 0 0 1 .284-.103m-.461.187a4 4 0 0 0-.244.129 4 4 0 0 1 .244-.129m-.442.254a4 4 0 0 0-.205.148 4 4 0 0 1 .205-.148m-.386.295a4 4 0 0 0-.202.197 4 4 0 0 1 .202-.197m-.344.346a4 4 0 0 0-.178.232 4 4 0 0 1 .178-.232" enable-background="new"/><path fill="url(#w)" fill-rule="evenodd" d="M64.553 61.629 40.777 106.38l-.207.39a3.7 3.7 0 0 0-.334 1.536A3.693 3.693 0 0 0 43.93 112h40.46a3.693 3.693 0 0 0 3.694-3.693 3.7 3.7 0 0 0-.334-1.537l-.152-.295z" enable-background="new"/><path fill="url(#x)" fill-rule="evenodd" d="m113.498 64.299-.19.002-44.427.152 21.027 38.373.112.201a3.69 3.69 0 0 0 3.18 1.817 3.7 3.7 0 0 0 2.952-1.47l.373-.614 19.842-32.553.367-.601a3.7 3.7 0 0 0 .372-1.614 3.693 3.693 0 0 0-3.608-3.693" enable-background="new"/><path fill="url(#y)" fill-rule="evenodd" d="M14.486 64.379a3.693 3.693 0 0 0-3.562 3.691 3.7 3.7 0 0 0 .39 1.655l.319.521 19.982 32.781.117.194a3.7 3.7 0 0 0 3.094 1.675 3.7 3.7 0 0 0 3.082-1.66l.307-.566 20.594-38.137-44.041-.152z" enable-background="new"/><path fill="url(#z)" d="M58.549 42.855c-8.415.177-18.522 4.506-26.703 8.711-8.182 4.206-14.389 8.373-14.389 8.373l-2.052-.624-.006 2.005 1.98 1.493s6.05 4.56 14.09 9.124 18.023 9.24 26.547 9.264c8.51.024 21.875-4.054 33.396-8.078s21.051-8.053 21.051-8.053l3.49-1.474-.004-2.003-3.37.28s-9.44-4.815-20.854-9.592-24.61-9.606-33.176-9.426m.074 3.528c7.066-.149 20.465 4.436 31.738 9.154 8.006 3.35 13.687 6.084 17.09 7.758a349 349 0 0 1-17.203 6.496c-11.401 3.982-24.913 7.901-32.223 7.88-7.181-.02-16.99-4.36-24.814-8.802-5.719-3.246-9.493-5.873-11.6-7.383 2.174-1.391 6.032-3.794 11.846-6.783 7.984-4.104 17.95-8.169 25.166-8.32" enable-background="accumulate" overflow="visible"/><path fill="url(#A)" fill-rule="evenodd" d="M18.44 59.404s24.515-16.456 40.147-16.785c15.632-.328 53.189 18.826 53.189 18.826S73.839 77.48 58.02 77.436c-15.706-.044-39.58-18.032-39.58-18.032" enable-background="new"/><ellipse cx="29.727" cy="27.727" stroke="url(#B)" stroke-width="5.141" clip-path="url(#C)" enable-background="new" rx="11.364" ry="10.909" transform="matrix(1.41942 0 0 1.47855 17.861 15.657)"/><path fill="url(#D)" fill-rule="evenodd" d="M6.685 30.959s13.638-9.746 21.856-10.028 29.442 11.313 29.442 11.313-21.725-9.264-31.113-7.97c-9.372 1.29-20.185 6.685-20.185 6.685" enable-background="new" filter="url(#E)" transform="translate(7.557 5.304)scale(1.76423)"/><path fill="none" stroke="url(#F)" stroke-width="3.528" d="M18.44 59.404s24.515-16.456 40.147-16.785c15.632-.328 53.189 18.826 53.189 18.826S73.839 77.48 58.02 77.436c-15.706-.044-39.58-18.032-39.58-18.032Z" enable-background="new"/><path fill="url(#G)" fill-rule="evenodd" d="M5.014 32.244s14.28-10.516 22.499-10.799 29.184 10.542 29.184 10.542-21.467-8.492-30.855-7.2c-9.372 1.291-20.828 7.457-20.828 7.457" enable-background="new" filter="url(#H)" transform="matrix(1.76423 0 0 -1.76423 11.186 117.027)"/></g></svg>