<svg xmlns="http://www.w3.org/2000/svg" xmlns:xlink="http://www.w3.org/1999/xlink" xml:space="preserve" viewBox="0 0 128 128"><defs><linearGradient xlink:href="#a" id="b" x1="174.074" x2="132.276" y1="215.549" y2="141.753" gradientUnits="userSpaceOnUse"/><linearGradient id="a" x1="174.074" x2="132.276" y1="215.549" y2="141.753" gradientUnits="userSpaceOnUse"><stop offset="0" stop-color="#fff" stop-opacity=".4"/><stop offset="0" stop-color="#fff" stop-opacity=".4"/><stop offset=".41" stop-color="#fff" stop-opacity=".6"/><stop offset=".99" stop-color="#fff" stop-opacity=".8"/><stop offset="1" stop-color="#fff"/></linearGradient><linearGradient id="d" x1="194.895" x2="141.028" y1="153.558" y2="117.409" gradientUnits="userSpaceOnUse"><stop offset="0" stop-color="#fff"/><stop offset="0" stop-color="#fff"/><stop offset=".99" stop-color="#fff" stop-opacity=".9"/><stop offset="1" stop-color="#fff" stop-opacity=".9"/></linearGradient><linearGradient id="e" x1="151.795" x2="97.93" y1="217.785" y2="181.638" gradientUnits="userSpaceOnUse"><stop offset="0" stop-color="#fff"/><stop offset="0" stop-color="#fff"/><stop offset=".99" stop-color="#fff" stop-opacity=".8"/><stop offset="1" stop-color="#fff" stop-opacity=".8"/></linearGradient><linearGradient id="f" x1="38.696" x2="47.047" y1="127.391" y2="181.661" gradientUnits="userSpaceOnUse"><stop offset="0" stop-color="#fff" stop-opacity="0"/><stop offset="0" stop-color="#fff" stop-opacity="0"/><stop offset=".23" stop-color="#fff" stop-opacity=".6"/><stop offset=".46" stop-color="#fff" stop-opacity=".6"/><stop offset=".99" stop-color="#fff" stop-opacity=".8"/><stop offset="1" stop-color="#fff" stop-opacity=".8"/></linearGradient><linearGradient id="g" x1="96.133" x2="99.21" y1="76.715" y2="132.102" gradientUnits="userSpaceOnUse"><stop offset="0" stop-color="#fff" stop-opacity="0"/><stop offset="0" stop-color="#fff" stop-opacity="0"/><stop offset=".23" stop-color="#fff" stop-opacity=".6"/><stop offset=".56" stop-color="#fff" stop-opacity=".8"/><stop offset=".99" stop-color="#fff"/><stop offset="1" stop-color="#fff"/></linearGradient><linearGradient id="h" x1="147.103" x2="156.314" y1="25.521" y2="65.216" gradientUnits="userSpaceOnUse"><stop offset="0" stop-color="#fff" stop-opacity="0"/><stop offset="0" stop-color="#fff" stop-opacity="0"/><stop offset=".18" stop-color="#fff" stop-opacity=".6"/><stop offset=".4" stop-color="#fff" stop-opacity=".8"/><stop offset=".99" stop-color="#fff"/><stop offset="1" stop-color="#fff"/></linearGradient><linearGradient id="i" x1="118.976" x2="158.669" y1="11.541" y2="-8.305" gradientUnits="userSpaceOnUse"><stop offset="0" stop-color="#fff" stop-opacity="0"/><stop offset="0" stop-color="#fff" stop-opacity="0"/><stop offset=".54" stop-color="#fff" stop-opacity=".6"/><stop offset=".99" stop-color="#fff" stop-opacity=".8"/><stop offset="1" stop-color="#fff" stop-opacity=".8"/></linearGradient><linearGradient id="j" x1="3.903" x2="7.17" y1="113.555" y2="146.263" gradientUnits="userSpaceOnUse"><stop offset="0" stop-color="#fff" stop-opacity="0"/><stop offset="0" stop-color="#fff" stop-opacity="0"/><stop offset=".31" stop-color="#fff" stop-opacity=".4"/><stop offset=".99" stop-color="#fff" stop-opacity=".6"/><stop offset="1" stop-color="#fff" stop-opacity=".6"/></linearGradient><linearGradient id="k" x1="-18.556" x2="135.015" y1="155.105" y2="-2.809" gradientTransform="translate(-520.968 -41.776)" gradientUnits="userSpaceOnUse"><stop offset="0" stop-color="#fff" stop-opacity=".8"/><stop offset="0" stop-color="#fff" stop-opacity=".8"/><stop offset=".07" stop-color="#fff" stop-opacity="0"/><stop offset=".17" stop-color="#fff" stop-opacity="0"/><stop offset=".27" stop-color="#fff" stop-opacity=".6"/><stop offset=".33" stop-color="#fff"/><stop offset=".46" stop-color="#fff" stop-opacity=".8"/><stop offset=".72" stop-color="#fff" stop-opacity=".8"/><stop offset=".99" stop-color="#fff" stop-opacity=".4"/><stop offset="1" stop-color="#fff" stop-opacity=".4"/></linearGradient><linearGradient id="l" x1="99.075" x2="52.818" y1="171.033" y2="159.617" gradientTransform="translate(-520.968 -41.776)" gradientUnits="userSpaceOnUse"><stop offset="0" stop-color="#fff"/><stop offset="0" stop-color="#fff"/><stop offset=".54" stop-color="#fff" stop-opacity=".8"/><stop offset=".99" stop-color="#fff" stop-opacity=".6"/><stop offset="1" stop-color="#fff" stop-opacity=".6"/></linearGradient><linearGradient id="m" x1="178.526" x2="137.433" y1="115.515" y2="78.684" gradientTransform="translate(-520.968 -41.776)" gradientUnits="userSpaceOnUse"><stop offset="0" stop-color="#fff"/><stop offset="0" stop-color="#fff"/><stop offset=".99" stop-color="#fff" stop-opacity=".8"/><stop offset="1" stop-color="#fff" stop-opacity=".8"/></linearGradient><linearGradient id="n" x1="193.624" x2="173.154" y1="47.937" y2="26.054" gradientTransform="translate(-520.968 -41.776)" gradientUnits="userSpaceOnUse"><stop offset="0" stop-color="#fff"/><stop offset="0" stop-color="#fff"/><stop offset=".99" stop-color="#fff" stop-opacity=".8"/><stop offset="1" stop-color="#fff" stop-opacity=".8"/></linearGradient><linearGradient id="q" x1="26.67" x2="9.989" y1="197.336" y2="140.742" gradientTransform="translate(-520.968 -41.776)" gradientUnits="userSpaceOnUse"><stop offset="0" stop-color="#fff"/><stop offset="0" stop-color="#fff"/><stop offset=".43" stop-color="#fff" stop-opacity=".8"/><stop offset=".99" stop-color="#fff" stop-opacity=".6"/><stop offset="1" stop-color="#fff" stop-opacity=".6"/></linearGradient><linearGradient id="r" x1="154.641" x2="192.039" y1="9.798" y2="26.306" gradientTransform="translate(-520.968 -41.776)" gradientUnits="userSpaceOnUse"><stop offset="0" stop-color="#fff" stop-opacity=".6"/><stop offset="0" stop-color="#fff" stop-opacity=".6"/><stop offset=".44" stop-color="#fff" stop-opacity=".8"/><stop offset=".99" stop-color="#fff"/><stop offset="1" stop-color="#fff"/></linearGradient><radialGradient id="o" cx="143.832" cy="79.388" r="50.358" gradientTransform="translate(-520.968 -41.776)" gradientUnits="userSpaceOnUse"><stop offset="0" stop-color="#fff" stop-opacity=".8"/><stop offset="0" stop-color="#fff" stop-opacity=".8"/><stop offset=".99" stop-color="#fff"/><stop offset="1" stop-color="#fff"/></radialGradient><radialGradient id="p" cx="74.092" cy="145.751" r="66.944" gradientTransform="translate(-520.968 -41.776)" gradientUnits="userSpaceOnUse"><stop offset="0" stop-color="#fff" stop-opacity=".8"/><stop offset="0" stop-color="#fff" stop-opacity=".8"/><stop offset=".99" stop-color="#fff"/><stop offset="1" stop-color="#fff"/></radialGradient></defs><path fill="#be1a0d" d="M27.978 8h50l30.043 29.918.001 74.06c0 4.432-3.612 8.022-8.044 8.022h-72c-4.432 0-8-3.568-8-8V16c0-4.432 3.568-8 8-8"/><path fill="#fff" fill-opacity=".3" d="M77.978 8v22c0 4.432 3.61 7.923 8.043 7.923l22-.005z"/><g fill-rule="evenodd" clip-rule="evenodd"><path fill="url(#b)" d="m40.38 197.58 146.469-9.939L198.13 39.95l-44.63 90.46z" transform="translate(34 44.166)scale(.30283)"/><path fill="url(#d)" d="m140.209 145.93 46.88 41.61-12.589-86.89z" transform="translate(34 44.166)scale(.30283)"/><path fill="url(#e)" d="m40.87 197.391 146.389-9.851-92.229-7.24z" transform="translate(34 44.166)scale(.30283)"/><path fill="url(#f)" d="M13.34 132.771 41 197.41l23.04-75.48z" transform="translate(34 44.166)scale(.30283)"/><path fill="url(#g)" d="m58.33 120.01 81.87 26.17L119 63.14z" transform="translate(34 44.166)scale(.30283)"/><path fill="url(#h)" d="m120 69.1 73.32-4.79-57.35-46.84z" transform="translate(34 44.166)scale(.30283)"/><path fill="url(#i)" d="m111.49.52 55.01.25-33.73 18.64z" transform="translate(34 44.166)scale(.30283)"/><path fill="url(#j)" d="M2.7 101.62 0 158.09l14.13-25.77z" transform="translate(34 44.166)scale(.30283)"/><path fill="#fff" d="m34.589 74.646 3.482 9.878 15.133-3.395L70.48 65.073l4.876-15.486-7.677-5.421-13.052 4.885c-4.113 3.824-12.092 11.392-12.38 11.534-.285.146-5.27 9.567-7.659 14.06"/><path fill="url(#k)" d="M-478.648.274c29.43-29.18 67.37-46.42 81.93-31.73 14.55 14.69-.88 50.39-30.31 79.56s-66.9 47.36-81.45 32.67c-14.56-14.68.4-51.33 29.83-80.5" transform="translate(191.766 56.817)scale(.30283)"/><path fill="url(#l)" d="m-479.968 155.604 22.86-75.72 75.92 24.39c-27.45 25.74-57.98 47.5-98.78 51.33" transform="translate(191.766 56.817)scale(.30283)"/><path fill="url(#m)" d="m-400.408 27.114 19.49 77.2c22.93-24.11 43.51-50.03 53.589-82.09z" transform="translate(191.766 56.817)scale(.30283)"/><path fill="url(#n)" d="M-327.528 22.614c7.8-23.54 9.6-57.31-27.181-63.58l-30.18 16.67z" transform="translate(191.766 56.817)scale(.30283)"/><path fill="#fff" d="M34.001 91.937c.327 11.766 8.816 11.941 12.431 12.044L38.08 84.476z"/><path fill="url(#o)" d="M-400.3 27.234c17.62 10.83 53.132 32.58 53.852 32.98 1.119.63 15.31-23.93 18.53-37.81z" transform="translate(191.766 56.817)scale(.30283)"/><path fill="url(#p)" d="m-457.138 79.884 30.56 58.96c18.07-9.8 32.22-21.74 45.18-34.53z" transform="translate(191.766 56.817)scale(.30283)"/><path fill="url(#q)" d="m-507.618 91.414-4.33 51.56c8.17 11.16 19.41 12.13 31.2 11.26-8.53-21.23-25.57-63.68-26.87-62.82" transform="translate(191.766 56.817)scale(.30283)"/><path fill="url(#r)" d="m-385.068-24.166 60.71 8.52c-3.24-13.73-13.19-22.59-30.15-25.36z" transform="translate(191.766 56.817)scale(.30283)"/></g></svg>