<svg xmlns="http://www.w3.org/2000/svg" viewBox="0 0 128 128"><path fill="#cc1018" d="M27.978 8h50l30.043 29.918.001 74.06c0 4.432-3.612 8.022-8.044 8.022h-72c-4.432 0-8-3.568-8-8V16c0-4.432 3.568-8 8-8"/><path fill="#fff" fill-opacity=".3" d="M77.978 8v22c0 4.432 3.61 7.923 8.043 7.923l22-.005z"/><path fill="#fff" d="M34 49.253v-5.256h43.523v5.256zm11.14 10.949v-5.256h43.523v5.256zM62.083 71.15v-5.255H94v5.256zM45.14 82.1v-5.256h43.523V82.1zm16.943 10.949v-5.256H94v5.256zm0 10.948v-5.255H94v5.255z" aria-label="— — – — – –" font-family="Source Code Pro" font-size="56" letter-spacing="-25" style="line-height:.15;-inkscape-font-specification:&quot;Source Code Pro&quot;" word-spacing="0"/></svg>