<svg xmlns="http://www.w3.org/2000/svg" viewBox="0 0 128 128"><path fill="#649ad2" d="M27.978 8h50l30.043 29.918.001 74.06c0 4.432-3.612 8.022-8.044 8.022h-72c-4.432 0-8-3.568-8-8V16c0-4.432 3.568-8 8-8"/><path fill="#00589c" d="M77.978 8v22c0 4.432 3.61 7.923 8.043 7.923l22-.005z"/><path fill="#fff" fill-rule="evenodd" d="M34 44.002v60h15v-22.5h30v22.5h15v-60H79v22.5H49v-22.5z"/><path fill="#649ad2" d="M71.04 75.67v3.333h3.332V75.67h3.334v-3.334h-3.334v-3.333h-3.333v3.333h-3.333v3.334zm12.5 0v3.333h3.332V75.67h3.334v-3.334h-3.334v-3.333H83.54v3.333h-3.333v3.334z"/></svg>