<svg xmlns="http://www.w3.org/2000/svg" viewBox="0 0 16 16"><path d="M13.714 1S16 1 16 3.286H0C0 1 2.251 1 2.251 1ZM16 10.143c0 2.286-2.286 2.286-2.286 2.286h-1.143l-2.285 3.428L8 12.43H2.286A2.28 2.28 0 0 1 0 10.143Z" class="ColorScheme-Text" opacity=".35"/><path d="M2.286 4.429A2.28 2.28 0 0 0 0 6.714 2.28 2.28 0 0 0 2.286 9 2.28 2.28 0 0 0 4.57 6.714 2.28 2.28 0 0 0 2.286 4.43M8 4.43a2.28 2.28 0 0 0-2.286 2.285A2.28 2.28 0 0 0 8 9a2.28 2.28 0 0 0 2.286-2.286A2.28 2.28 0 0 0 8 4.43m5.714 0a2.28 2.28 0 0 0-2.285 2.285A2.28 2.28 0 0 0 13.714 9 2.28 2.28 0 0 0 16 6.714a2.28 2.28 0 0 0-2.286-2.285" class="ColorScheme-Text"/></svg>