<svg xmlns="http://www.w3.org/2000/svg" viewBox="0 0 16 16"><path fill-rule="evenodd" d="M7.963.003 7.948.001c-.687 0-1.156.194-1.224.46-.035.054-.077.105-.096.169l-.644 3.174c.965.7 3.066.7 4.031 0L9.371.63c-.004-.014-.016-.023-.02-.036l.003-.005c0-.082-.056-.163-.144-.238a.7.7 0 0 0-.284-.186A3 3 0 0 0 8-.001zm-2.806 6.6-.65 2.199H3.45a.7.7 0 0 0-.646.43l-1.75 5.8A.7.7 0 0 0 1.7 16h12.6a.7.7 0 0 0 .645-.969l-1.75-5.799a.7.7 0 0 0-.645-.43h-1.056l-.652-2.199c-1.924.766-3.541.962-5.685 0m6.437 2.535.576 1.95a.7.7 0 0 1-.304.794c-1.098.674-2.498 1.005-3.893 1.018s-2.795-.288-3.874-1.04a.7.7 0 0 1-.27-.772l.55-1.86c.754.441 4.169 1.755 7.215-.09" color="#dfdfdf"/></svg>