<svg xmlns="http://www.w3.org/2000/svg" xmlns:xlink="http://www.w3.org/1999/xlink" xml:space="preserve" viewBox="0 0 128 128"><defs><linearGradient id="h"><stop offset="0" stop-color="#473838"/><stop offset=".036" stop-color="#d0a99f"/><stop offset=".067" stop-color="#483838"/><stop offset=".928" stop-color="#483838"/><stop offset=".967" stop-color="#d0a99f"/><stop offset="1" stop-color="#483838"/></linearGradient><linearGradient id="g"><stop offset=".301" stop-color="#574242"/><stop offset=".301" stop-color="#765151"/><stop offset=".703" stop-color="#765151"/><stop offset=".703" stop-color="#895d5d"/></linearGradient><linearGradient id="f"><stop offset=".3" stop-color="#574242"/><stop offset=".3" stop-color="#765151"/><stop offset=".699" stop-color="#765151"/><stop offset=".7" stop-color="#895d5d"/></linearGradient><linearGradient id="d"><stop offset="0" stop-color="#333"/><stop offset=".408" stop-color="gray"/><stop offset=".81" stop-color="#333"/><stop offset="1" stop-color="#666"/></linearGradient><linearGradient id="e"><stop offset="0" stop-color="#333"/><stop offset=".408" stop-color="gray"/><stop offset=".81" stop-color="#333"/><stop offset="1" stop-color="#666"/></linearGradient><linearGradient id="c"><stop offset=".301" stop-color="#916f6f"/><stop offset=".301" stop-color="#aa8383"/><stop offset=".703" stop-color="#aa8383"/><stop offset=".703" stop-color="#b79595"/></linearGradient><linearGradient id="b"><stop offset=".3" stop-color="#916f6f"/><stop offset=".3" stop-color="#aa8383"/><stop offset=".699" stop-color="#aa8383"/><stop offset=".7" stop-color="#b79595"/></linearGradient><linearGradient id="a"><stop offset=".497" stop-color="#b79595"/><stop offset=".501" stop-color="#aa8383"/></linearGradient><linearGradient xlink:href="#a" id="q" x1="-92.793" x2="-92.793" y1="70.314" y2="95.798" gradientTransform="translate(156.78 -.556)" gradientUnits="userSpaceOnUse"/><linearGradient xlink:href="#b" id="l" x1="10.222" x2="16.91" y1="47.271" y2="47.271" gradientTransform="translate(-.236 -6.804)" gradientUnits="userSpaceOnUse"/><linearGradient xlink:href="#c" id="n" x1="110.827" x2="117.514" y1="47.271" y2="47.271" gradientTransform="translate(.5 -6.804)" gradientUnits="userSpaceOnUse"/><linearGradient xlink:href="#d" id="p" x1="32.932" x2="50.57" y1="111.547" y2="111.547" gradientTransform="translate(-.012 .699)" gradientUnits="userSpaceOnUse"/><linearGradient xlink:href="#e" id="j" x1="32.932" x2="50.57" y1="111.547" y2="111.547" gradientTransform="translate(44.408 .699)" gradientUnits="userSpaceOnUse"/><linearGradient xlink:href="#f" id="k" x1="10.222" x2="16.91" y1="47.271" y2="47.271" gradientTransform="translate(-.236 -4.804)" gradientUnits="userSpaceOnUse"/><linearGradient xlink:href="#g" id="m" x1="110.827" x2="117.514" y1="47.271" y2="47.271" gradientTransform="translate(.5 -4.804)" gradientUnits="userSpaceOnUse"/><linearGradient xlink:href="#a" id="o" x1="-92.793" x2="-92.793" y1="70.314" y2="95.798" gradientTransform="translate(156.78 -.556)" gradientUnits="userSpaceOnUse"/><linearGradient xlink:href="#h" id="i" x1="12" x2="116" y1="82.301" y2="82.301" gradientTransform="translate(-.012 .699)" gradientUnits="userSpaceOnUse"/></defs><path fill="url(#i)" d="M19.988 57.5h88c4.432 0 8 3.569 8 8.002v34.995a7.984 7.984 0 0 1-8 8.003h-88c-4.432 0-8-3.57-8-8.003V65.502a7.984 7.984 0 0 1 8-8.002" style="marker:none"/><path fill="#725858" d="M19.988 53.5h88c4.432 0 8 3.569 8 8.002v34.995a7.984 7.984 0 0 1-8 8.003h-88c-4.432 0-8-3.57-8-8.003V61.502a7.984 7.984 0 0 1 8-8.002" style="marker:none"/><path fill="url(#j)" d="M77.34 108.5a8.937 8.937 0 0 0 17.638 0v-4H77.339Z" class="cls-1"/><path fill="#d0a99f" d="M19.988 28.51c-4.432 0-8 3.57-8 8.006V82.51h104V36.516a7.986 7.986 0 0 0-8-8.006z" color="#000" font-family="sans-serif" font-weight="400" overflow="visible" style="line-height:normal;font-variant-ligatures:normal;font-variant-position:normal;font-variant-caps:normal;font-variant-numeric:normal;font-variant-alternates:normal;font-variant-east-asian:normal;font-feature-settings:normal;font-variation-settings:normal;text-indent:0;text-align:start;text-decoration-line:none;text-decoration-style:solid;text-decoration-color:#000;text-transform:none;text-orientation:mixed;white-space:normal;shape-padding:0;shape-margin:0;inline-size:0;isolation:auto;mix-blend-mode:normal;solid-color:#000;solid-opacity:1;-inkscape-stroke:none;marker:none"/><path fill="url(#k)" fill-rule="evenodd" d="M11.81 36.982h3.039c1.008 0 1.824 1.189 1.824 2.654V45.3c0 1.465-.816 2.655-1.824 2.655H11.81c-1.009 0-1.824-1.19-1.824-2.655v-5.663c0-1.465.815-2.654 1.824-2.654m0 15.219h3.039c1.008 0 1.824 1.189 1.824 2.654v5.663c0 1.466-.816 2.655-1.824 2.655H11.81c-1.009 0-1.824-1.19-1.824-2.655v-5.663c0-1.465.815-2.654 1.824-2.654m0 14.865h3.039c1.008 0 1.824 1.19 1.824 2.655v5.662c0 1.466-.816 2.655-1.824 2.655H11.81c-1.009 0-1.824-1.19-1.824-2.655v-5.662c0-1.466.815-2.655 1.824-2.655"/><path fill="url(#l)" fill-rule="evenodd" d="M11.81 34.982h3.039c1.008 0 1.824 1.189 1.824 2.654V43.3c0 1.465-.816 2.655-1.824 2.655H11.81c-1.009 0-1.824-1.19-1.824-2.655v-5.663c0-1.465.815-2.654 1.824-2.654m0 15.219h3.039c1.008 0 1.824 1.189 1.824 2.654v5.663c0 1.466-.816 2.655-1.824 2.655H11.81c-1.009 0-1.824-1.19-1.824-2.655v-5.663c0-1.465.815-2.654 1.824-2.654m0 14.865h3.039c1.008 0 1.824 1.19 1.824 2.655v5.662c0 1.466-.816 2.655-1.824 2.655H11.81c-1.009 0-1.824-1.19-1.824-2.655v-5.662c0-1.466.815-2.655 1.824-2.655"/><path fill="url(#m)" fill-rule="evenodd" d="M113.151 36.982h3.04c1.008 0 1.823 1.189 1.823 2.654V45.3c0 1.465-.815 2.655-1.822 2.655h-3.04c-1.008 0-1.825-1.19-1.825-2.655v-5.663c0-1.465.817-2.654 1.824-2.654m0 15.219h3.04c1.008 0 1.823 1.189 1.823 2.654v5.663c0 1.466-.815 2.655-1.822 2.655h-3.04c-1.008 0-1.825-1.19-1.825-2.655v-5.663c0-1.465.817-2.654 1.824-2.654m0 14.865h3.04c1.008 0 1.823 1.19 1.823 2.655v5.662c0 1.466-.815 2.655-1.822 2.655h-3.04c-1.008 0-1.825-1.19-1.825-2.655v-5.662c0-1.466.817-2.655 1.824-2.655"/><path fill="url(#n)" fill-rule="evenodd" d="M113.151 34.982h3.04c1.008 0 1.823 1.189 1.823 2.654V43.3c0 1.465-.815 2.655-1.822 2.655h-3.04c-1.008 0-1.825-1.19-1.825-2.655v-5.663c0-1.465.817-2.654 1.824-2.654m0 15.219h3.04c1.008 0 1.823 1.189 1.823 2.654v5.663c0 1.466-.815 2.655-1.822 2.655h-3.04c-1.008 0-1.825-1.19-1.825-2.655v-5.663c0-1.465.817-2.654 1.824-2.654m0 14.865h3.04c1.008 0 1.823 1.19 1.823 2.655v5.662c0 1.466-.815 2.655-1.822 2.655h-3.04c-1.008 0-1.825-1.19-1.825-2.655v-5.662c0-1.466.817-2.655 1.824-2.655"/><path fill-rule="evenodd" d="M75.212 61.9a.44.44 0 0 0-.336.048S69.234 65.25 63.6 65.25c-5.52 0-11.281-3.303-11.281-3.303a.44.44 0 0 0-.604.16.44.44 0 0 0 .16.606s5.856 3.422 11.725 3.422c5.977 0 11.728-3.424 11.728-3.424a.44.44 0 0 0 .157-.605.44.44 0 0 0-.272-.205"/><path d="M84.658 39.721c4.601 0 8.318 4.585 8.318 10.241s-3.717 10.243-8.318 10.243-8.317-4.585-8.317-10.243 3.723-10.241 8.317-10.241m-41.941 0c4.601 0 8.318 4.585 8.318 10.241s-3.717 10.243-8.318 10.243S34.4 55.62 34.4 49.962s3.723-10.241 8.317-10.241" class="cls-1"/><path d="M84.835 44.455a3.008 3.008 0 1 1-3.008 3.008 3.01 3.01 0 0 1 3.008-3.008m.797 8.848a1.327 1.327 0 1 1-1.328 1.327 1.327 1.327 0 0 1 1.328-1.327m-42.915-8.848a3.008 3.008 0 1 1-3.008 3.008 3.01 3.01 0 0 1 3.008-3.008m.796 8.848a1.327 1.327 0 1 1-1.327 1.327 1.327 1.327 0 0 1 1.327-1.327" class="cls-5"/><path fill="#725858" d="M35.907 62.72a5.074 2.239 30 0 1 3.275 4.476 5.074 2.239 30 0 1-5.514-.598 5.074 2.239 30 0 1-3.274-4.475 5.074 2.239 30 0 1 5.513.598m61.674-.596a2.239 5.074 60 0 1-3.274 4.475 2.239 5.074 60 0 1-5.513.598 2.239 5.074 60 0 1 3.274-4.475 2.239 5.074 60 0 1 5.513-.598" class="cls-7"/><path fill="url(#o)" d="M51.245 76.66v11.68l12.743-5.84zm12.743 5.84 12.742 5.84V76.66Z" color="#000" font-family="sans-serif" font-weight="400" overflow="visible" style="line-height:normal;font-variant-ligatures:normal;font-variant-position:normal;font-variant-caps:normal;font-variant-numeric:normal;font-variant-alternates:normal;font-variant-east-asian:normal;font-feature-settings:normal;font-variation-settings:normal;text-indent:0;text-align:start;text-decoration-line:none;text-decoration-style:solid;text-decoration-color:#000;text-transform:none;text-orientation:mixed;white-space:normal;shape-padding:0;shape-margin:0;inline-size:0;isolation:auto;mix-blend-mode:normal;solid-color:#000;solid-opacity:1;-inkscape-stroke:none"/><path fill="url(#p)" d="M32.92 108.5a8.937 8.937 0 0 0 17.638 0v-4H32.919Z" class="cls-1"/><path d="M32.92 104.5a8.937 8.937 0 0 0 17.638 0zm44.42 0a8.937 8.937 0 0 0 17.638 0z" class="cls-1"/><path fill="url(#q)" d="M51.245 76.66v11.68l12.743-5.84zm12.743 5.84 12.742 5.84V76.66Z" color="#000" font-family="sans-serif" font-weight="400" overflow="visible" style="line-height:normal;font-variant-ligatures:normal;font-variant-position:normal;font-variant-caps:normal;font-variant-numeric:normal;font-variant-alternates:normal;font-variant-east-asian:normal;font-feature-settings:normal;font-variation-settings:normal;text-indent:0;text-align:start;text-decoration-line:none;text-decoration-style:solid;text-decoration-color:#000;text-transform:none;text-orientation:mixed;white-space:normal;shape-padding:0;shape-margin:0;inline-size:0;isolation:auto;mix-blend-mode:normal;solid-color:#000;solid-opacity:1;-inkscape-stroke:none"/></svg>