<svg xmlns="http://www.w3.org/2000/svg" xmlns:xlink="http://www.w3.org/1999/xlink" xml:space="preserve" viewBox="0 0 128 128"><defs><linearGradient id="c"><stop offset="0" stop-color="red"/><stop offset=".03" stop-color="#f99"/><stop offset=".1" stop-color="red"/><stop offset=".9" stop-color="red"/><stop offset=".99" stop-color="#f99"/><stop offset="1" stop-color="red"/></linearGradient><linearGradient id="b"><stop offset="0" stop-color="#001d54"/><stop offset=".03" stop-color="#0051eb"/><stop offset=".07" stop-color="#001d54"/><stop offset=".47" stop-color="#001d54"/><stop offset=".56" stop-color="#0051eb"/><stop offset=".62" stop-color="#001d54"/><stop offset=".9" stop-color="#001d54"/><stop offset=".99" stop-color="#0051eb"/><stop offset="1" stop-color="#001d54"/></linearGradient><linearGradient id="a"><stop offset="0" stop-color="#585858"/><stop offset=".052" stop-color="#ccc"/><stop offset=".104" stop-color="#989898"/><stop offset=".402" stop-color="#cdcdcd"/><stop offset=".93" stop-color="#989898"/><stop offset=".98" stop-color="#ccc"/><stop offset="1" stop-color="#585858"/></linearGradient><linearGradient xlink:href="#a" id="f" x1="12" x2="77.534" y1="65.958" y2="65.958" gradientTransform="translate(0 14.595)" gradientUnits="userSpaceOnUse"/><linearGradient xlink:href="#b" id="e" x1="82.215" x2="115.999" y1="65.958" y2="65.958" gradientTransform="translate(0 14.595)" gradientUnits="userSpaceOnUse"/><linearGradient xlink:href="#c" id="d" x1="82.215" x2="115.999" y1="65.958" y2="65.958" gradientTransform="translate(0 14.595)" gradientUnits="userSpaceOnUse"/></defs><path fill="url(#d)" d="M83.838 82.894c-.896 0-1.623.725-1.623 1.621v12.873a1.89 1.89 0 0 0 1.889 1.889h30.96c.563 0 .936-.46.936-.94v-4.003s-1.158.837-1.25.746l-12.505-10.881a4.45 4.45 0 0 0-3.15-1.305z"/><path fill="url(#e)" d="M84.104 61.83a1.89 1.89 0 0 0-1.889 1.888v12.873c0 .896.727 1.622 1.623 1.621h15.256a4.45 4.45 0 0 0 3.15-1.304l13.483-13.483a.9.9 0 0 0 .273-.654v-4.037c-.141-.311-1.828 1.127-2.232 1.127z"/><path fill="url(#f)" d="M58.81 45.835v53.442c-15.506-.129-28.086-14.779-28.086-32.767 0-8.115 2.544-15.547 6.749-21.276.308-.42.461-.805.467-1.128.003-.13.044-3.954 0-4.063-.167-.4-.955 1.536-1.728 1.605l-16.345 1.457c-1.502.134-3.254 1.106-3.821 2.503C13.45 51.998 12 59.07 12 66.51c0 28.317 20.98 51.364 46.81 51.485l15.994.005a2.73 2.73 0 0 0 2.73-2.73V45.836a2.73 2.73 0 0 0-2.73-2.73H61.54a2.73 2.73 0 0 0-2.73 2.73"/><path d="M58.81 41.835v53.442c-15.506-.129-28.086-14.779-28.086-32.767 0-8.115 2.544-15.547 6.749-21.276.892-1.215.485-2.129-1.023-2.129H19.867c-1.508 0-3.254 1.106-3.821 2.503C13.45 47.998 12 55.07 12 62.51c0 28.317 20.98 51.364 46.81 51.485l15.994.005a2.73 2.73 0 0 0 2.73-2.73V41.836a2.73 2.73 0 0 0-2.73-2.73H61.54a2.73 2.73 0 0 0-2.73 2.73M84.104 57.83a1.89 1.89 0 0 0-1.889 1.888v12.873a1.62 1.62 0 0 0 1.623 1.621h15.256a4.45 4.45 0 0 0 3.15-1.304l13.483-13.483a.935.935 0 0 0-.662-1.595zm-.266 21.064a1.62 1.62 0 0 0-1.623 1.621v12.873a1.89 1.89 0 0 0 1.889 1.889h30.96a.935.935 0 0 0 .663-1.596L102.244 80.2a4.45 4.45 0 0 0-3.15-1.305z"/></svg>