<svg xmlns="http://www.w3.org/2000/svg" xmlns:xlink="http://www.w3.org/1999/xlink" xml:space="preserve" viewBox="0 0 128 128"><defs><linearGradient id="a"><stop offset="0" stop-color="#2b383f"/><stop offset="1" stop-color="#172024"/></linearGradient><linearGradient xlink:href="#a" id="d" x1="64" x2="64" y1="14" y2="106" gradientUnits="userSpaceOnUse"/></defs><linearGradient id="b" x1="12" x2="116" y1="64" y2="64" gradientUnits="userSpaceOnUse"><stop offset="0" stop-color="#3d3846"/><stop offset=".05" stop-color="#77767b"/><stop offset=".1" stop-color="#5e5c64"/><stop offset=".9" stop-color="#504e56"/><stop offset=".95" stop-color="#77767b"/><stop offset="1" stop-color="#3d3846"/></linearGradient><linearGradient id="c" x1="12" x2="112.041" y1="60" y2="80.988" gradientUnits="userSpaceOnUse"><stop offset="0" stop-color="#77767b"/><stop offset=".384" stop-color="#9a9996"/><stop offset=".721" stop-color="#77767b"/><stop offset="1" stop-color="#68666f"/></linearGradient><path fill="url(#b)" d="M20 22h88a8 8 0 0 1 8 8v78a8 8 0 0 1-8 8H20a8 8 0 0 1-8-8V30a8 8 0 0 1 8-8m0 0"/><path fill="url(#c)" d="M20 12h88a8 8 0 0 1 8 8v80a8 8 0 0 1-8 8H20a8 8 0 0 1-8-8V20a8 8 0 0 1 8-8m0 0"/><path fill="url(#d)" d="M20 14h88c3.313 0 6 2.688 6 6v80a6 6 0 0 1-6 6H20c-3.312 0-6-2.687-6-6V20c0-3.312 2.688-6 6-6m0 0"/><path fill-opacity=".13" fill-rule="evenodd" d="m50.06 52.444-.022 2.33-11.966-17.667 1.108-1.13z"/><path fill="#4e49ee" d="M89.214 82.83h8.212c1.026-8.617 2.493-25.997 3.446-45.66h-7.845c-.22 4.64-1.027 32.257-1.32 34.54h-.22a8156 8156 0 0 0-5.572-20.842h-4.473c-1.906 7.365-3.226 12.888-5.206 20.842h-.293c-.22-2.283-1.466-29.9-1.613-34.54h-8.138c.953 19.663 2.346 37.043 3.372 45.66h8.065l5.646-21.873zM37.173 49.322c0-1.915 1.906-3.094 6.525-3.094l-1.54 8.47c-2.859-1.915-4.985-3.683-4.985-5.376m12.318 20.915c0 1.988-1.98 3.314-6.526 3.535l1.613-8.985c2.86 1.915 4.913 3.609 4.913 5.45m-8.065 18.41 1.393-8.321c11.07-1.031 15.397-5.523 15.397-10.458 0-5.081-6.16-9.058-11.805-12.52l2.053-10.899c2.346.221 5.133.663 8.432 1.326l.953-7.585c-2.493-.369-4.839-.516-7.039-.663l1.687-8.101-7.259-.074-1.393 8.248c-11.071.884-15.397 5.524-15.397 10.458 0 5.008 6.159 8.837 11.804 12.151L38.2 73.624c-2.64-.147-5.865-.589-9.604-1.252l-1.467 7.586c3.153.368 6.086.589 8.725.663l-1.613 7.953z" font-family="Operator Mono" font-size="47.978" font-weight="400" style="line-height:1.25;-inkscape-font-specification:&quot;Operator Mono&quot;"/></svg>