<svg xmlns="http://www.w3.org/2000/svg" viewBox="0 0 16 16"><path d="M.923 3.693A.92.92 0 0 0 0 4.616v5.231a2.456 2.456 0 0 0 2.461 2.461h7.692a.92.92 0 0 0 .923-.923v-5.23a2.456 2.456 0 0 0-2.46-2.462H2.46Zm14.49 0c-.196-.013-.42.076-.632.274-.748.696-1.623 1.282-2.236 2.113-.252.342-.236.797-.238 1.224q.002.35 0 .697.002.346 0 .697c.002.426-.014.879.238 1.22.613.832 1.488 1.418 2.236 2.114.212.198.436.287.632.274.327-.023.58-.332.58-.906 0-1.124.017-2.26 0-3.4.017-1.138 0-2.277 0-3.4 0-.575-.253-.884-.58-.907"/></svg>