<svg xmlns="http://www.w3.org/2000/svg" xmlns:xlink="http://www.w3.org/1999/xlink" xml:space="preserve" viewBox="0 0 128 128"><defs><linearGradient id="a"><stop offset="0" stop-color="#999"/><stop offset=".043" stop-color="#ebebeb"/><stop offset=".072" stop-color="#b2b2b2"/><stop offset=".66" stop-color="#9e9e9e"/><stop offset=".7" stop-color="#ebebeb"/><stop offset=".74" stop-color="#999"/><stop offset=".96" stop-color="#a9a9a9"/><stop offset=".99" stop-color="#ebebeb"/><stop offset="1" stop-color="#999"/></linearGradient><linearGradient xlink:href="#a" id="b" x1="12" x2="127.999" y1="72" y2="72" gradientUnits="userSpaceOnUse"/></defs><path fill="url(#b)" d="M20 16c-4.432 0-8 3.568-8 8v84c0 4.432 3.568 8 8 8h65.094l1.607 6v.006a8.16 8.16 0 0 0 5.719 5.719l.006.002.006.002a8 8 0 0 0 2.093.271 8.1 8.1 0 0 0 5.68-2.308l.03-.026 9.968-9.97 5.492-5.49v-.003l9.932-9.931a8.07 8.07 0 0 0 2.09-7.832v-.002A8.15 8.15 0 0 0 122 86.72l-.006-.002L116 85.113V24c0-4.432-3.568-8-8-8z" style="marker:none"/><path fill="#fff" d="M20 12c-4.432 0-8 3.568-8 8v84c0 4.432 3.568 8 8 8h65.094l1.607 6v.006a8.16 8.16 0 0 0 5.719 5.719l.006.002.006.002a8 8 0 0 0 2.093.271 8.1 8.1 0 0 0 5.68-2.309l.03-.025 9.968-9.97 5.492-5.49v-.003l9.932-9.932a8.07 8.07 0 0 0 2.09-7.832v-.001A8.15 8.15 0 0 0 122 82.72l-.006-.002L116 81.113V20c0-4.432-3.568-8-8-8z" style="marker:none"/><path fill="#089949" d="M94.524 119c-.27 0-.54-.033-.8-.102a3.11 3.11 0 0 1-2.197-2.198l-9.28-34.643a3.1 3.1 0 0 1 .799-2.992 3.08 3.08 0 0 1 2.992-.8l34.654 9.282a3.104 3.104 0 0 1 1.398 5.19l-25.365 25.365a3.18 3.18 0 0 1-2.201.898m-4.898-33.362 6.504 24.278 17.774-17.774zM26.7 17c-5.345 0-9.7 4.175-9.7 9.304v71.395c0 5.125 4.351 9.3 9.7 9.3h53.356c1.793 0 3.24-1.4 3.24-3.109s-1.447-3.095-3.229-3.095h-25.9V54.163h49.842q.273 0 .533-.045v23.216c0 1.708 1.446 3.094 3.228 3.094s3.229-1.385 3.229-3.094V26.301c0-5.124-4.352-9.3-9.701-9.3zm0 6.209h74.612c1.782 0 3.229 1.385 3.229 3.094v21.714a3 3 0 0 0-.533-.047H54.167V32.487c0-1.708-1.386-3.095-3.094-3.095s-3.095 1.387-3.095 3.095v15.484H32.599c-1.708 0-3.095 1.388-3.095 3.096s1.387 3.096 3.095 3.096h15.38v46.632H26.7c-1.782 0-3.229-1.387-3.229-3.096V26.304c0-1.709 1.447-3.094 3.229-3.094"/></svg>