<svg xmlns="http://www.w3.org/2000/svg" xmlns:xlink="http://www.w3.org/1999/xlink" xml:space="preserve" viewBox="0 0 128 128"><defs><linearGradient id="d"><stop offset=".5" stop-color="#fff"/><stop offset="1" stop-color="#fff" stop-opacity="0"/></linearGradient><linearGradient id="c"><stop offset="0" stop-color="#0d78e2"/><stop offset=".208" stop-color="#0c72de"/><stop offset=".445" stop-color="#0954ce" stop-opacity=".503"/><stop offset=".595" stop-color="#0954ce" stop-opacity="0"/></linearGradient><linearGradient id="b"><stop offset="0" stop-color="#0e85eb"/><stop offset="1" stop-color="#0955cc"/></linearGradient><linearGradient xlink:href="#a" id="e" x1="48" x2="464" y1="44" y2="44" gradientTransform="matrix(.25 0 0 .25 0 53)" gradientUnits="userSpaceOnUse"/><linearGradient xlink:href="#b" id="f" x1="64" x2="64" y1="10" y2="114" gradientUnits="userSpaceOnUse"/><linearGradient id="a"><stop offset="0" stop-color="#042c6c"/><stop offset=".042" stop-color="#4489f8"/><stop offset=".083" stop-color="#042c6c"/><stop offset=".917" stop-color="#042c6c"/><stop offset=".958" stop-color="#4489f8"/><stop offset="1" stop-color="#042c6c"/></linearGradient><linearGradient xlink:href="#c" id="h" x1="131.227" x2="131.227" y1="-41.383" y2="22.428" gradientUnits="userSpaceOnUse"/><linearGradient xlink:href="#d" id="g" x1="48" x2="48" y1="0" y2="100.516" gradientUnits="userSpaceOnUse"/></defs><rect width="104" height="84" x="12" y="32" fill="url(#e)" rx="8" ry="8" style="marker:none"/><rect width="104" height="100" x="12" y="12" fill="url(#f)" rx="8" ry="8" style="marker:none"/><path fill="url(#g)" fill-rule="evenodd" d="M9 6a3 3 0 0 0-3 3v66H0V9a9 9 0 0 1 9-9h80.379c4.009 0 6.016 4.847 3.182 7.682L43.055 57.188H57V51h6v7.688a4.5 4.5 0 0 1-4.5 4.5H37.055L26.743 73.5H73.5V36h6v37.5a6 6 0 0 1-6 6H20.743L10.243 90H87a3 3 0 0 0 3-3V21h6v66a9 9 0 0 1-9 9H6.621c-4.009 0-6.016-4.847-3.182-7.682L52.757 39H39v6h-6v-7.5a4.5 4.5 0 0 1 4.5-4.5h21.257l10.5-10.5H22.5V60h-6V22.5a6 6 0 0 1 6-6h52.757L85.757 6Z" clip-rule="evenodd" transform="translate(37.5 35.5)scale(.55208)"/><path fill="url(#h)" d="m151.95-43.09-.655.539.757.07zm-4.251 3.497-22.062 18.15L99.32.207l31.906 11.964 31.906 11.965-2.053-12.338-18.013-1.679z" transform="rotate(-5.324 1037.762 873.463)scale(1.16564)"/><path fill="#fff" fill-opacity=".5" d="M23.494 17A6.49 6.49 0 0 0 17 23.494v77.012A6.49 6.49 0 0 0 23.494 107h81.012a6.49 6.49 0 0 0 6.494-6.494V23.494A6.49 6.49 0 0 0 104.506 17Zm0 .988h81.012a5.483 5.483 0 0 1 5.506 5.506v77.012a5.483 5.483 0 0 1-5.506 5.506H23.494a5.483 5.483 0 0 1-5.506-5.506V23.494a5.483 5.483 0 0 1 5.506-5.506" overflow="visible" style="marker:none"/><path fill="#fff" fill-opacity=".02" d="M25.209 17.988v2.489H20.74v-1.76a5.5 5.5 0 0 0-1 .736v1.024h-.861a5.5 5.5 0 0 0-.514 1h1.375v4.468h-1.752v1h1.752v4.471h-1.752v1h1.752v4.469h-1.752v1h1.752v4.47h-1.752v1h1.752v4.471h-1.752v1h1.752v4.467h-1.752v1h1.752v4.473h-1.752v1h1.752v4.47h-1.752v1h1.752v4.47h-1.752v1h1.752v4.468h-1.752v1h1.752v4.469h-1.752v1h1.752v4.472h-1.752v1h1.752v4.47h-1.752v1h1.752v4.47h-1.752v1h1.752v4.468h-1.375q.207.53.514 1h.861v1.024q.457.424 1 .736v-1.76h4.469v2.489h1v-2.489h4.47v2.489h1v-2.489h4.47v2.489h1v-2.489h4.47v2.489h1v-2.489h4.47v2.489h1v-2.489h4.47v2.489h1v-2.489h4.47v2.489h1v-2.489H63.5v2.489h1v-2.489h4.469v2.489h1v-2.489h4.47v2.489h1v-2.489h4.47v2.489h1v-2.489h4.47v2.489h1v-2.489h4.47v2.489h1v-2.489h4.47v2.489h1v-2.489h4.47v2.489h1v-2.489h4.47v1.76a5.5 5.5 0 0 0 1-.736v-1.024h.862q.306-.47.514-1h-1.375v-4.468h1.752v-1h-1.752v-4.47h1.752v-1h-1.752v-4.47h1.752v-1h-1.752v-4.472h1.752v-1h-1.752v-4.47h1.752v-1h-1.752v-4.468h1.752v-1h-1.752v-4.469h1.752v-1h-1.752v-4.47h1.752v-1h-1.752v-4.473h1.752v-1h-1.752v-4.467h1.752v-1h-1.752v-4.47h1.752v-1h-1.752v-4.471h1.752v-1h-1.752v-4.469h1.752v-1h-1.752v-4.47h1.752v-1h-1.752v-4.47h1.375a5.5 5.5 0 0 0-.514-1h-.861v-1.023a5.5 5.5 0 0 0-1-.736v1.76h-4.47v-2.489h-1v2.489h-4.472v-2.489h-1v2.489H91.85v-2.489h-1v2.489h-4.471v-2.489h-1v2.489h-4.47v-2.489h-1v2.489h-4.47v-2.489h-1v2.489h-4.47v-2.489h-1v2.489H64.5v-2.489h-1v2.489h-4.47v-2.489h-1v2.489h-4.471v-2.489h-1v2.489h-4.47v-2.489h-1v2.489h-4.47v-2.489h-1v2.489h-4.47v-2.489h-1v2.489h-4.47v-2.489h-1v2.489h-4.47v-2.489zm-4.469 3.489h4.469v4.468H20.74zm5.469 0h4.47v4.468h-4.47zm5.47 0h4.47v4.468h-4.47zm5.47 0h4.47v4.468h-4.47zm5.47 0h4.47v4.468h-4.47zm5.47 0h4.47v4.468h-4.47zm5.47 0h4.47v4.468h-4.47zm5.47 0H63.5v4.468h-4.47zm5.471 0h4.469v4.468H64.5zm5.469 0h4.47v4.468h-4.47zm5.47 0h4.47v4.468h-4.47zm5.47 0h4.47v4.468h-4.47zm5.47 0h4.47v4.468h-4.47zm5.47 0h4.47v4.468h-4.47zm5.47 0h4.47v4.468h-4.47zm5.47 0h4.47v4.468h-4.47zM20.74 26.945h4.469v4.471H20.74zm5.469 0h4.47v4.471h-4.47zm5.47 0h4.47v4.471h-4.47zm5.47 0h4.47v4.471h-4.47zm5.47 0h4.47v4.471h-4.47zm5.47 0h4.47v4.471h-4.47zm5.47 0h4.47v4.471h-4.47zm5.47 0H63.5v4.471h-4.47zm5.471 0h4.469v4.471H64.5zm5.469 0h4.47v4.471h-4.47zm5.47 0h4.47v4.471h-4.47zm5.47 0h4.47v4.471h-4.47zm5.47 0h4.47v4.471h-4.47zm5.47 0h4.47v4.471h-4.47zm5.47 0h4.47v4.471h-4.47zm5.47 0h4.47v4.471h-4.47zM20.74 32.416h4.469v4.469H20.74zm5.469 0h4.47v4.469h-4.47zm5.47 0h4.47v4.469h-4.47zm5.47 0h4.47v4.469h-4.47zm5.47 0h4.47v4.469h-4.47zm5.47 0h4.47v4.469h-4.47zm5.47 0h4.47v4.469h-4.47zm5.47 0H63.5v4.469h-4.47zm5.471 0h4.469v4.469H64.5zm5.469 0h4.47v4.469h-4.47zm5.47 0h4.47v4.469h-4.47zm5.47 0h4.47v4.469h-4.47zm5.47 0h4.47v4.469h-4.47zm5.47 0h4.47v4.469h-4.47zm5.47 0h4.47v4.469h-4.47zm5.47 0h4.47v4.469h-4.47zM20.74 37.885h4.469v4.47H20.74zm5.469 0h4.47v4.47h-4.47zm5.47 0h4.47v4.47h-4.47zm5.47 0h4.47v4.47h-4.47zm5.47 0h4.47v4.47h-4.47zm5.47 0h4.47v4.47h-4.47zm5.47 0h4.47v4.47h-4.47zm5.47 0H63.5v4.47h-4.47zm5.471 0h4.469v4.47H64.5zm5.469 0h4.47v4.47h-4.47zm5.47 0h4.47v4.47h-4.47zm5.47 0h4.47v4.47h-4.47zm5.47 0h4.47v4.47h-4.47zm5.47 0h4.47v4.47h-4.47zm5.47 0h4.47v4.47h-4.47zm5.47 0h4.47v4.47h-4.47zm-82.049 5.47h4.469v4.471H20.74zm5.469 0h4.47v4.471h-4.47zm5.47 0h4.47v4.471h-4.47zm5.47 0h4.47v4.471h-4.47zm5.47 0h4.47v4.471h-4.47zm5.47 0h4.47v4.471h-4.47zm5.47 0h4.47v4.471h-4.47zm5.47 0H63.5v4.471h-4.47zm5.471 0h4.469v4.471H64.5zm5.469 0h4.47v4.471h-4.47zm5.47 0h4.47v4.471h-4.47zm5.47 0h4.47v4.471h-4.47zm5.47 0h4.47v4.471h-4.47zm5.47 0h4.47v4.471h-4.47zm5.47 0h4.47v4.471h-4.47zm5.47 0h4.47v4.471h-4.47zM20.74 48.826h4.469v4.467H20.74zm5.469 0h4.47v4.467h-4.47zm5.47 0h4.47v4.467h-4.47zm5.47 0h4.47v4.467h-4.47zm5.47 0h4.47v4.467h-4.47zm5.47 0h4.47v4.467h-4.47zm5.47 0h4.47v4.467h-4.47zm5.47 0H63.5v4.467h-4.47zm5.471 0h4.469v4.467H64.5zm5.469 0h4.47v4.467h-4.47zm5.47 0h4.47v4.467h-4.47zm5.47 0h4.47v4.467h-4.47zm5.47 0h4.47v4.467h-4.47zm5.47 0h4.47v4.467h-4.47zm5.47 0h4.47v4.467h-4.47zm5.47 0h4.47v4.467h-4.47zM20.74 54.293h4.469v4.473H20.74zm5.469 0h4.47v4.473h-4.47zm5.47 0h4.47v4.473h-4.47zm5.47 0h4.47v4.473h-4.47zm5.47 0h4.47v4.473h-4.47zm5.47 0h4.47v4.473h-4.47zm5.47 0h4.47v4.473h-4.47zm5.47 0H63.5v4.473h-4.47zm5.471 0h4.469v4.473H64.5zm5.469 0h4.47v4.473h-4.47zm5.47 0h4.47v4.473h-4.47zm5.47 0h4.47v4.473h-4.47zm5.47 0h4.47v4.473h-4.47zm5.47 0h4.47v4.473h-4.47zm5.47 0h4.47v4.473h-4.47zm5.47 0h4.47v4.473h-4.47zM20.74 59.766h4.469v4.47H20.74zm5.469 0h4.47v4.47h-4.47zm5.47 0h4.47v4.47h-4.47zm5.47 0h4.47v4.47h-4.47zm5.47 0h4.47v4.47h-4.47zm5.47 0h4.47v4.47h-4.47zm5.47 0h4.47v4.47h-4.47zm5.47 0H63.5v4.47h-4.47zm5.471 0h4.469v4.47H64.5zm5.469 0h4.47v4.47h-4.47zm5.47 0h4.47v4.47h-4.47zm5.47 0h4.47v4.47h-4.47zm5.47 0h4.47v4.47h-4.47zm5.47 0h4.47v4.47h-4.47zm5.47 0h4.47v4.47h-4.47zm5.47 0h4.47v4.47h-4.47zm-82.049 5.47h4.469v4.47H20.74zm5.469 0h4.47v4.47h-4.47zm5.47 0h4.47v4.47h-4.47zm5.47 0h4.47v4.47h-4.47zm5.47 0h4.47v4.47h-4.47zm5.47 0h4.47v4.47h-4.47zm5.47 0h4.47v4.47h-4.47zm5.47 0H63.5v4.47h-4.47zm5.471 0h4.469v4.47H64.5zm5.469 0h4.47v4.47h-4.47zm5.47 0h4.47v4.47h-4.47zm5.47 0h4.47v4.47h-4.47zm5.47 0h4.47v4.47h-4.47zm5.47 0h4.47v4.47h-4.47zm5.47 0h4.47v4.47h-4.47zm5.47 0h4.47v4.47h-4.47zm-82.049 5.47h4.469v4.468H20.74zm5.469 0h4.47v4.468h-4.47zm5.47 0h4.47v4.468h-4.47zm5.47 0h4.47v4.468h-4.47zm5.47 0h4.47v4.468h-4.47zm5.47 0h4.47v4.468h-4.47zm5.47 0h4.47v4.468h-4.47zm5.47 0H63.5v4.468h-4.47zm5.471 0h4.469v4.468H64.5zm5.469 0h4.47v4.468h-4.47zm5.47 0h4.47v4.468h-4.47zm5.47 0h4.47v4.468h-4.47zm5.47 0h4.47v4.468h-4.47zm5.47 0h4.47v4.468h-4.47zm5.47 0h4.47v4.468h-4.47zm5.47 0h4.47v4.468h-4.47zM20.74 76.173h4.469v4.469H20.74zm5.469 0h4.47v4.469h-4.47zm5.47 0h4.47v4.469h-4.47zm5.47 0h4.47v4.469h-4.47zm5.47 0h4.47v4.469h-4.47zm5.47 0h4.47v4.469h-4.47zm5.47 0h4.47v4.469h-4.47zm5.47 0H63.5v4.469h-4.47zm5.471 0h4.469v4.469H64.5zm5.469 0h4.47v4.469h-4.47zm5.47 0h4.47v4.469h-4.47zm5.47 0h4.47v4.469h-4.47zm5.47 0h4.47v4.469h-4.47zm5.47 0h4.47v4.469h-4.47zm5.47 0h4.47v4.469h-4.47zm5.47 0h4.47v4.469h-4.47zm-82.049 5.47h4.469v4.472H20.74zm5.469 0h4.47v4.472h-4.47zm5.47 0h4.47v4.472h-4.47zm5.47 0h4.47v4.472h-4.47zm5.47 0h4.47v4.472h-4.47zm5.47 0h4.47v4.472h-4.47zm5.47 0h4.47v4.472h-4.47zm5.47 0H63.5v4.472h-4.47zm5.471 0h4.469v4.472H64.5zm5.469 0h4.47v4.472h-4.47zm5.47 0h4.47v4.472h-4.47zm5.47 0h4.47v4.472h-4.47zm5.47 0h4.47v4.472h-4.47zm5.47 0h4.47v4.472h-4.47zm5.47 0h4.47v4.472h-4.47zm5.47 0h4.47v4.472h-4.47zM20.74 87.115h4.469v4.47H20.74zm5.469 0h4.47v4.47h-4.47zm5.47 0h4.47v4.47h-4.47zm5.47 0h4.47v4.47h-4.47zm5.47 0h4.47v4.47h-4.47zm5.47 0h4.47v4.47h-4.47zm5.47 0h4.47v4.47h-4.47zm5.47 0H63.5v4.47h-4.47zm5.471 0h4.469v4.47H64.5zm5.469 0h4.47v4.47h-4.47zm5.47 0h4.47v4.47h-4.47zm5.47 0h4.47v4.47h-4.47zm5.47 0h4.47v4.47h-4.47zm5.47 0h4.47v4.47h-4.47zm5.47 0h4.47v4.47h-4.47zm5.47 0h4.47v4.47h-4.47zm-82.049 5.47h4.469v4.47H20.74zm5.469 0h4.47v4.47h-4.47zm5.47 0h4.47v4.47h-4.47zm5.47 0h4.47v4.47h-4.47zm5.47 0h4.47v4.47h-4.47zm5.47 0h4.47v4.47h-4.47zm5.47 0h4.47v4.47h-4.47zm5.47 0H63.5v4.47h-4.47zm5.471 0h4.469v4.47H64.5zm5.469 0h4.47v4.47h-4.47zm5.47 0h4.47v4.47h-4.47zm5.47 0h4.47v4.47h-4.47zm5.47 0h4.47v4.47h-4.47zm5.47 0h4.47v4.47h-4.47zm5.47 0h4.47v4.47h-4.47zm5.47 0h4.47v4.47h-4.47zm-82.049 5.47h4.469v4.468H20.74zm5.469 0h4.47v4.468h-4.47zm5.47 0h4.47v4.468h-4.47zm5.47 0h4.47v4.468h-4.47zm5.47 0h4.47v4.468h-4.47zm5.47 0h4.47v4.468h-4.47zm5.47 0h4.47v4.468h-4.47zm5.47 0H63.5v4.468h-4.47zm5.471 0h4.469v4.468H64.5zm5.469 0h4.47v4.468h-4.47zm5.47 0h4.47v4.468h-4.47zm5.47 0h4.47v4.468h-4.47zm5.47 0h4.47v4.468h-4.47zm5.47 0h4.47v4.468h-4.47zm5.47 0h4.47v4.468h-4.47zm5.47 0h4.47v4.468h-4.47z"/></svg>