<svg xmlns="http://www.w3.org/2000/svg" viewBox="0 0 64 64"><path d="M10 55v2c0 2.216 1.784 4 4 4h36c2.216 0 4-1.784 4-4v-2c0 2.216-1.784 4-4 4H14c-2.216 0-4-1.784-4-4" opacity=".2"/><rect width="56" height="44" x="-60" y="-54" fill="#8e8e8e" rx="4" ry="4" transform="rotate(90)scale(-1 1)"/><rect width="44" height="49" x="10" y="4" fill="#b7b7b7" rx="4" ry="4"/><path fill="#fff" d="M14 4c-2.216 0-4 1.784-4 4v1c0-2.216 1.784-4 4-4h36c2.216 0 4 1.784 4 4V8c0-2.216-1.784-4-4-4z" opacity=".1"/><path d="M47.958 25.848A16 16 0 0 1 32 41a16 16 0 0 1-15.958-14.848A16 16 0 0 0 16 27a16 16 0 0 0 16 16 16 16 0 0 0 16-16 16 16 0 0 0-.043-1.152Z" opacity=".2"/><circle cx="32" cy="26" r="16" fill="#e4e4e4"/><circle cx="48.5" cy="57.5" r="1.5" opacity=".2"/><circle cx="48.5" cy="56.5" r="1.5" fill="#b7b7b7"/><circle cx="43.5" cy="57.5" r="1.5" opacity=".2"/><circle cx="43.5" cy="56.5" r="1.5" fill="#b7b7b7"/><rect width="26" height="3" x="13" y="56" fill="#fff" opacity=".2" rx="2" ry="1.5"/><rect width="26" height="3" x="13" y="55" fill="#3b3a36" rx="2" ry="1.5"/><rect width="6" height="22" x="29" y="15" fill="#db4539" rx="3" ry="3"/><rect width="6" height="22" x="23" y="-43" fill="#db4539" rx="3" ry="3" transform="rotate(90)"/></svg>