<svg xmlns="http://www.w3.org/2000/svg" viewBox="0 0 64 64"><rect width="56" height="56" x="4" y="5" opacity=".2" rx="2.8" ry="2.8"/><rect width="45" height="56" x="15" y="4" fill="#6b9fff" rx="2.8" ry="2.8"/><path fill="#5e8ad8" d="M6.8 4C5.25 4 4 5.25 4 6.8v50.4A2.796 2.796 0 0 0 6.8 60H18V4Z"/><rect width="6" height="6" x="8" y="10" opacity=".2" rx=".75" ry=".75"/><rect width="6" height="6" x="8" y="9" fill="#6b9fff" rx=".75" ry=".75"/><rect width="6" height="6" x="8" y="18" opacity=".2" rx=".75" ry=".75"/><rect width="6" height="6" x="8" y="17" fill="#6b9fff" rx=".75" ry=".75"/><rect width="6" height="6" x="8" y="26" opacity=".2" rx=".75" ry=".75"/><rect width="6" height="6" x="8" y="25" fill="#6b9fff" rx=".75" ry=".75"/><path d="M32 35h24v3H32z" opacity=".2"/><path fill="#fff" d="M32 34h24v3H32z"/><path d="M42 15h14v14H42z" opacity=".2"/><path d="M32 9h14v14H32z" opacity=".2"/><path fill="#fff" d="M42 14h14v14H42z"/><path fill="#0f56d9" d="M32 8h14v14H32z"/><path fill="#fff" d="M6.8 4C5.25 4 4 5.25 4 6.8v1C4 6.25 5.25 5 6.8 5h50.4A2.796 2.796 0 0 1 60 7.8v-1C60 5.25 58.75 4 57.199 4z" opacity=".2"/></svg>