<svg xmlns="http://www.w3.org/2000/svg" viewBox="0 0 64 64"><rect width="56" height="34" x="4" y="26" opacity=".2" rx="2.8" ry="2.8"/><path fill="#b7b7b7" d="M12 7h40v20H12z"/><rect width="56" height="34" x="4" y="25" fill="#4f4f4f" rx="2.8" ry="2.8"/><path fill="#fff" d="M12 7v1h40V7z" opacity=".2"/><path d="M16 11h10v6H16zm22 0h10v6H38z" opacity=".5"/><path d="M16 32h32v4H16zm4 8h24v4H20zm4 8h16v4H24z" opacity=".4"/><circle cx="48" cy="47" r="16" opacity=".2"/><circle cx="48" cy="46" r="16" fill="#42b546"/><path fill="#fff" d="M46 36v8h-8v4h8v8h4v-8h8v-4h-8v-8Z"/><path fill="#fff" d="M6.8 25C5.25 25 4 26.25 4 27.801v1A2.796 2.796 0 0 1 6.8 26h50.4a2.796 2.796 0 0 1 2.8 2.801v-1A2.796 2.796 0 0 0 57.199 25z" opacity=".1"/></svg>