<svg xmlns="http://www.w3.org/2000/svg" viewBox="0 0 64 64"><rect width="56" height="56" x="4" y="5" opacity=".2" rx="5" ry="5"/><rect width="56" height="56" x="4" y="4" fill="#cd9c6d" rx="5" ry="5"/><circle cx="32" cy="32" r="13.5" fill="none" stroke="#1f170f" stroke-width="3"/><path fill="#1f170f" d="M29 24v8h-5l8 8 8-8h-5v-8Z"/><path fill="#e3c4a9" d="M26 54h12v6H26zm0-50h12v6H26z"/><circle cx="48" cy="47" r="16" opacity=".2"/><circle cx="48" cy="46" r="16" fill="#42b546"/><path fill="#fff" d="M46 36v8h-8v4h8v8h4v-8h8v-4h-8v-8Z"/><path fill="#fff" d="M9 4C6.23 4 4 6.23 4 9v1c0-2.77 2.23-5 5-5h46c2.77 0 5 2.23 5 5V9c0-2.77-2.23-5-5-5z" opacity=".2"/></svg>