<svg xmlns="http://www.w3.org/2000/svg" viewBox="0 0 64 64"><rect width="32" height="42" x="16" y="14" opacity=".2" rx="2.6" ry="2.6"/><rect width="32" height="42" x="16" y="13" fill="#8e8e8e" rx="2.6" ry="2.6"/><rect width="52" height="40" x="6" y="10" opacity=".2" rx="2.6" ry="2.6"/><rect width="52" height="40" x="6" y="9" fill="#4f4f4f" rx="2.6" ry="2.6"/><rect width="44" height="32" x="10" y="13" fill="#6b9fff" rx="0" ry="0"/><path fill="#fff" d="M10 45h44v1H10z" opacity=".1"/><circle cx="48" cy="47" r="16" opacity=".2"/><circle cx="48" cy="46" r="16" fill="#0f56d9"/><path fill="#fff" d="M48 34a12 12 0 0 0-7.645 2.762L44.535 44l5.653-9.791A12 12 0 0 0 48 34m4.178.766L48 42h11.299a12 12 0 0 0-7.121-7.234m-13.297 3.441A12 12 0 0 0 36 46q.002 1.007.17 2h8.365ZM51.465 44l5.654 9.793A12 12 0 0 0 60 46a12 12 0 0 0-.17-2Zm0 4-5.653 9.791q1.085.204 2.188.209a12 12 0 0 0 7.645-2.762Zm-14.764 2a12 12 0 0 0 7.121 7.234L48 50Z"/><path fill="#fff" d="M8.6 9C7.16 9 6 10.159 6 11.6v1C6 11.159 7.16 10 8.6 10h46.8c1.441 0 2.6 1.159 2.6 2.6v-1c0-1.441-1.159-2.6-2.6-2.6z" opacity=".1"/></svg>