<svg xmlns="http://www.w3.org/2000/svg" viewBox="0 0 64 64"><rect width="56" height="56" x="4" y="5" opacity=".2" rx="2.8" ry="2.8"/><rect width="45" height="45" x="15" y="4" fill="#6b9fff" rx="2.8" ry="2.8"/><path fill="#446191" d="M15 46v11l3 3h39.199A2.796 2.796 0 0 0 60 57.199V46Z"/><path fill="#29353b" d="M6.8 4C5.25 4 4 5.25 4 6.8v50.4A2.796 2.796 0 0 0 6.8 60H18V4z"/><rect width="6" height="6" x="8" y="10" opacity=".2" rx=".75" ry=".75"/><rect width="6" height="6" x="8" y="9" fill="#fff" rx=".75" ry=".75"/><rect width="6" height="6" x="8" y="19" opacity=".2" rx=".75" ry=".75"/><path d="M27.942 12c-3.923-.055-3.923 6.005 0 5.949 3.819 0 7.542 1.67 10.023 4.574A13 13 0 0 1 41.031 30H35l9 12 9-12h-6.18c-.215-4.102-1.731-8.065-4.445-11.242C38.795 14.566 33.455 12 27.942 12" opacity=".2"/><path fill="#fff" d="M27.942 11c-3.923-.055-3.923 6.005 0 5.949 3.819 0 7.542 1.67 10.023 4.574A13 13 0 0 1 41.031 29H35l9 12 9-12h-6.18c-.215-4.102-1.731-8.065-4.445-11.242C38.795 13.566 33.455 11 27.942 11"/><rect width="6" height="6" x="8" y="28" opacity=".2" rx=".75" ry=".75"/><rect width="6" height="6" x="8" y="18" fill="#fff" rx=".75" ry=".75"/><rect width="6" height="6" x="8" y="51" opacity=".2" rx=".75" ry=".75"/><rect width="6" height="6" x="8" y="27" fill="#fff" rx=".75" ry=".75"/><rect width="6" height="6" x="31" y="51" opacity=".2" rx=".75" ry=".75"/><rect width="6" height="6" x="8" y="50" fill="#fff" rx=".75" ry=".75"/><rect width="6" height="6" x="40" y="51" opacity=".2" rx=".75" ry=".75"/><rect width="6" height="6" x="31" y="50" fill="#fff" rx=".75" ry=".75"/><rect width="6" height="6" x="49" y="51" opacity=".2" rx=".75" ry=".75"/><rect width="6" height="6" x="40" y="50" fill="#fff" rx=".75" ry=".75"/><rect width="6" height="6" x="49" y="50" fill="#fff" rx=".75" ry=".75"/><path fill="#fff" d="M6.8 4C5.25 4 4 5.25 4 6.8v1C4 6.25 5.25 5 6.8 5h50.4A2.796 2.796 0 0 1 60 7.8v-1C60 5.25 58.75 4 57.199 4z" opacity=".2"/></svg>