<svg xmlns="http://www.w3.org/2000/svg" viewBox="0 0 64 64"><path d="M42 19a7 7 0 0 0-7 7 7 7 0 0 0 7 7 7 7 0 0 0 7-7 7 7 0 0 0-7-7m.002 19.002C28.002 38.003 28 46.861 28 46.861v3.602S30.307 55.938 42 56s14-5.537 14-5.537v-3.602s.001-8.86-13.998-8.859M22 9a7 7 0 0 0-7 7 7 7 0 0 0 7 7 7 7 0 0 0 7-7 7 7 0 0 0-7-7m.002 19.002C8.002 28.003 8 36.861 8 36.861v3.602S10.307 45.938 22 46s14-5.537 14-5.537v-3.602s.001-8.86-13.998-8.859" opacity=".2"/><path fill="#38a334" d="M22 8a7 7 0 0 0-7 7 7 7 0 0 0 7 7 7 7 0 0 0 7-7 7 7 0 0 0-7-7m.002 19.002C8.002 27.003 8 35.861 8 35.861v3.602S10.307 44.938 22 45s14-5.537 14-5.537v-3.602s.001-8.86-13.998-8.859"/><path fill="#0f56d9" d="M42 18a7 7 0 0 0-7 7 7 7 0 0 0 7 7 7 7 0 0 0 7-7 7 7 0 0 0-7-7m.002 19.002C28.002 37.003 28 45.861 28 45.861v3.602S30.307 54.938 42 55s14-5.537 14-5.537v-3.602s.001-8.86-13.998-8.859"/><path fill="#fff" d="M22 8a7 7 0 0 0-7 7 7 7 0 0 0 .057.5A7 7 0 0 1 22 9a7 7 0 0 1 6.963 6.324A7 7 0 0 0 29 15a7 7 0 0 0-7-7m20 10a7 7 0 0 0-7 7 7 7 0 0 0 .057.5A7 7 0 0 1 42 19a7 7 0 0 1 6.963 6.324A7 7 0 0 0 49 25a7 7 0 0 0-7-7m-19.998 9.002C8.002 27.003 8 35.861 8 35.861v1s.002-8.858 14.002-8.859S36 36.861 36 36.861v-1s.001-8.86-13.998-8.859m20 10C28.002 37.003 28 45.861 28 45.861v1s.002-8.858 14.002-8.859S56 46.861 56 46.861v-1s.001-8.86-13.998-8.859" opacity=".2"/></svg>