<svg xmlns="http://www.w3.org/2000/svg" viewBox="180 -500 400 200"><path fill="#cb0000" d="M315-596c-3.2 2.2-6 4.8-5.8 6 .2 1 .4 3.2.6 4.8 0 1.6 2.4 5.6 5.2 8.8 4.4 5.4 6.2 6 22.4 7.2 21.6 1.8 26.6 4.6 26.6 14.8-.2 6.2-.6 6.8-2.6 4.2-6.6-8.4-13.6-10.8-33.2-10.6-16 0-21.4 1-33 5.4-22.4 8.8-28 7-37.2-13l-4.4-9.6-5.8 4.2c-7 5-7.2 7.2-.8 19.8 8.8 17.2 16.6 19.6 36.2 10.6 10.4-4.8 14.4-5.4 32.8-5.4 25.2-.2 31 2.4 33 14.2 1.8 10.8 7 22.2 14.4 32 3.6 4.8 5.6 8.6 4.6 8.6-3.2 0-57.6-15.4-70.8-20-6.6-2.2-12.6-3.4-13.4-2.6-2 2.2 1.6 25.2 5.2 33.8 5 12 4.8 12.2-13.4 10.4-9.2-1-23.6-2.8-32-4.2l-15.6-2.6v4.6c0 14.8 17.4 44.2 39.4 66.8l14.8 15.2-7.2 6.2c-17.8 15.8-58.8 39.4-85.4 49.4-5.4 2-9.6 4.2-9.6 5 0 1 6.4 7.6 14.4 15 33.6 31 79.6 54.4 126 63.8 23.6 4.8 78.2 4.4 98.8-.8 31-8 58.8-24.8 79.4-48.6 28-32.2 47.6-71.6 56.4-114.2 3.8-18.8 4-19.2 9.6-19.4 2.4 0 6.2-.8 8.4-1.6 3.6-1.4 3.2-2-3.6-5.4l-7.6-4 11.2-3.6c6.2-2 10.8-4 10-4.8-.6-.6-5.8-2.6-11.4-4.4l-10.4-3-3.4-14.4c-4.8-19.2-11.6-32-24.6-46-19.4-21-42-29.8-72-28.2-27.4 1.6-45.8 9.6-67.4 29l-7.4 6.6-3.4-8.4c-2.2-5.6-3.2-13.8-3.2-24 .2-25.8-2.2-28.4-27.2-30.6-21.8-2-22.4-2.2-26.6-12-2.2-5-4.2-9-4.4-9-.4 0-3.2 1.8-6.6 4m207.6 107.4 6.4 3.4-8.8 1.2c-9 1.4-14.2 5.8-14.2 12.2 0 11.8 13.4 21.8 24.8 18.4 8-2.2 12.6-11 9.4-17.8-1.2-2.6-1.4-4.8-.4-4.8 3.2 0 4.4 10.6 2 16.4-2.8 6.6-11 11.6-19.4 11.6-8.8 0-22.4-8.2-26.6-16-5.2-9.6-4.8-15.4 2-22.2s15-7.6 24.8-2.4m13.2 12.4c1.6 2.8 1.4 4.4-.6 6-3.6 3-9.2.6-9.2-3.6 0-7 6.6-8.6 9.8-2.4" data-iconColor="MyBatis"/></svg>