<svg xmlns="http://www.w3.org/2000/svg" viewBox="0 0 64 64"><path d="M11.167 5h41.666C55.142 5 57 6.873 57 9.2V39L35 61H11.167C8.858 61 7 59.127 7 56.8V9.2C7 6.873 8.858 5 11.167 5" opacity=".2"/><path fill="#ffc107" d="M11.167 4h41.666C55.142 4 57 5.873 57 8.2V38L35 60H11.167C8.858 60 7 58.127 7 55.8V8.2C7 5.873 8.858 4 11.167 4"/><path fill="#ffdd7a" d="M57 38H37.75A2.75 2.75 0 0 0 35 40.75V60Z"/><path fill="#fff" d="M11.168 4C8.86 4 7 5.872 7 8.2v1C7 6.871 8.86 5 11.168 5h41.664C55.14 5 57 6.872 57 9.2v-1C57 5.871 55.14 4 52.832 4zM37.75 38A2.75 2.75 0 0 0 35 40.75v1A2.75 2.75 0 0 1 37.75 39H56l1-1z" opacity=".2"/></svg>