<svg xmlns="http://www.w3.org/2000/svg" viewBox="0 0 64 64"><rect width="56" height="45" x="4" y="10" opacity=".2" ry="5.625"/><rect width="56" height="45" x="4" y="9" fill="#3f3f3f" ry="5.625"/><path d="M10 21v23h16V31s0-4 6-4c4 0 4 4 4 4v13h18V28s0-7-14.533-7C32 21 26 24 26 24v-3z" opacity=".2"/><path fill="#fff" d="M10 20v23h16V30s0-4 6-4c4 0 4 4 4 4v13h18V27s0-7-14.533-7C32 20 26 23 26 23v-3z"/><path fill="#fff" d="M9.625 9A5.613 5.613 0 0 0 4 14.625v1A5.613 5.613 0 0 1 9.625 10h44.75A5.613 5.613 0 0 1 60 15.625v-1A5.613 5.613 0 0 0 54.375 9z" opacity=".1"/></svg>