<svg xmlns="http://www.w3.org/2000/svg" viewBox="0 0 64 64"><path d="m32 5 2.731 14.27 7.984-12.138-2.937 14.228 12.021-8.16-8.158 12.022 14.226-2.936-12.135 7.983L60 33l-14.27 2.731 12.138 7.985-14.228-2.938L51.8 52.8l-12.022-8.16 2.936 14.227-7.983-12.135L32 61l-2.731-14.27-7.985 12.138 2.938-14.228L12.2 52.8l8.16-12.021-14.228 2.936 12.136-7.984L4 33.001l14.27-2.732-12.138-7.984 14.228 2.937L12.202 13.2l12.02 8.158-2.937-14.226 7.984 12.135z" opacity=".2"/><path fill="#663892" d="m32 4 2.731 14.27 7.984-12.138-2.937 14.228 12.021-8.16-8.158 12.022 14.226-2.936-12.135 7.983L60 32l-14.27 2.731 12.138 7.985-14.228-2.938L51.8 51.8l-12.022-8.16 2.936 14.227-7.983-12.135L32 60l-2.731-14.27-7.985 12.138 2.938-14.228L12.2 51.8l8.16-12.021-14.228 2.936 12.136-7.984L4 32.001l14.27-2.732-12.138-7.984 14.228 2.937L12.202 12.2l12.02 8.158-2.937-14.226 7.984 12.135z"/><path d="M22.223 5.001a4.195 4.194 0 0 0-4.037 3.01L4.2 55.526a4.195 4.194 0 1 0 8.047 2.365l9.816-33.35 5.892 21.5a4.195 4.194 0 0 0 8.09 0l5.892-21.5 9.816 33.35a4.195 4.194 0 1 0 8.047-2.365L45.814 8.011a4.195 4.194 0 0 0-8.07.074L32 29.054 26.257 8.085a4.195 4.194 0 0 0-4.034-3.084" opacity=".2"/><path fill="none" stroke="#2a94ef" stroke-linecap="round" stroke-linejoin="round" stroke-width="8.393" d="m8.214 55.746 13.992-47.55L32 43.96l9.794-35.764 13.992 47.55"/><path fill="#fff" d="M22.213 4a4.2 4.2 0 0 0-4.041 3.016l-14 47.595a4.2 4.2 0 0 0-.139 1.698 4 4 0 0 1 .139-.698l14-47.595A4.2 4.2 0 0 1 22.212 5a4.2 4.2 0 0 1 4.038 3.092L32 29.096l5.75-21.004a4.2 4.2 0 0 1 8.078-.076L59.83 55.61a4 4 0 0 1 .137.68 4.2 4.2 0 0 0-.137-1.68L45.828 7.016a4.2 4.2 0 0 0-8.078.076L32 28.096 26.25 7.092A4.2 4.2 0 0 0 22.213 4" opacity=".1"/></svg>