<svg xmlns="http://www.w3.org/2000/svg" viewBox="0 0 64 64"><path fill="#3f3f3f" d="m16 34 6-12h19.224L48 34Z"/><rect width="36" height="18" x="14" y="12" opacity=".2" rx="3" ry="3"/><rect width="48" height="18" x="8" y="33" opacity=".2" rx="3" ry="3"/><rect width="48" height="18" x="8" y="32" fill="#8e8e8e" rx="3" ry="3"/><path fill="#fff" d="M11 32c-1.662 0-3 1.338-3 3v7h48v-7c0-1.662-1.338-3-3-3Z" opacity=".1"/><rect width="14" height="22" x="46" y="35" opacity=".2" rx="1.5" ry="1.5"/><rect width="14" height="22" x="4" y="35" opacity=".2" rx="1.5" ry="1.5"/><path fill="#fff" d="M11 32c-1.662 0-3 1.338-3 3v1c0-1.662 1.338-3 3-3h42c1.662 0 3 1.338 3 3v-1c0-1.662-1.338-3-3-3z" opacity=".2"/><rect width="14" height="22" x="4" y="34" fill="#4f4f4f" rx="1.5" ry="1.5"/><rect width="36" height="18" x="14" y="11" fill="#8e8e8e" rx="3" ry="3"/><rect width="14" height="22" x="46" y="34" fill="#4f4f4f" rx="1.5" ry="1.5"/><g fill="#3f3f3f" transform="matrix(2 0 0 2 0 1)"><rect width="3" height="3" x="8" y="6" rx=".75" ry=".75"/><rect width="3" height="3" x="12" y="6" rx=".75" ry=".75"/><rect width="3" height="3" x="17" y="6" rx=".75" ry=".75"/><rect width="3" height="3" x="21" y="6" rx=".75" ry=".75"/><rect width="3" height="3" x="21" y="10" rx=".75" ry=".75"/><rect width="3" height="3" x="17" y="10" rx=".75" ry=".75"/><rect width="3" height="3" x="12" y="10" rx=".75" ry=".75"/><rect width="3" height="3" x="8" y="10" rx=".75" ry=".75"/></g><path fill="#fff" d="M17 11c-1.662 0-3 1.338-3 3v1c0-1.662 1.338-3 3-3h30c1.662 0 3 1.338 3 3v-1c0-1.662-1.338-3-3-3z" opacity=".2"/><path fill="#3f3f3f" d="M4 49h14v5H4zm0-10h14v5H4zm42 5h14v5H46zm1.5-10c-.831 0-1.5.669-1.5 1.5V39h14v-3.5c0-.831-.669-1.5-1.5-1.5zM46 54v.5c0 .831.669 1.5 1.5 1.5h11c.831 0 1.5-.669 1.5-1.5V54z"/></svg>