<svg xmlns="http://www.w3.org/2000/svg" viewBox="0 0 64 64"><path d="M4.05 32c-.011.334-.05.662-.05 1 0 15.512 12.488 28 28 28a27.94 27.94 0 0 0 28-28c0-.338-.04-.666-.05-1C59.42 47.042 47.172 59 32 59 16.825 59 4.578 47.042 4.05 32" opacity=".2"/><rect width="54" height="54" x="-59" y="-59" fill="#d6d6d6" rx="27" ry="27" transform="rotate(90)scale(-1 1)"/><path d="M32 5.03a27.92 27.919 0 0 0-19.796 8.2 27.8 27.799 0 0 0-6.154 9.263 28 27.999 0 0 0-2 9.508A27.88 27.88 0 0 0 19.62 56.13c-.226-.12-.454-.228-.676-.356l10.594 1.886q.12.08.25.146c.906.462 1.838.852 2.788 1.194a27.9 27.9 0 0 0 27.376-27 28 27.999 0 0 0-2-9.507A27.8 27.799 0 0 0 51.8 13.23 27.928 27.927 0 0 0 32 5.03m-8.34 3.14-.058.094c.032.024.048.046.066.052 1.886.65 3.602 1.61 5.218 2.75l-3.164 9.53-.046.015c-.648.268-1.308.506-1.946.796-2.626 1.194-5.188 2.516-7.6 4.102l-6.25-3.694a2 2 0 0 1 .11-.568c.42-1.116.834-2.24 1.308-3.336q.55-1.262 1.236-2.456.446-.492.92-.968A26 26 0 0 1 23.66 8.17m18.262.582a26.1 26.1 0 0 1 8.62 5.735 26 26 0 0 1 5.368 7.772 26.6 26.6 0 0 0-5-2.688 16 16 0 0 0-.84-.308l-8.25-9.3q.086-.601.102-1.211m-3.382 2.08q.854-.012 1.718.046l8.378 9.443c-.288.912-.57 1.828-.906 2.72-.592 1.566-1.224 3.116-1.854 4.668l-12.172 1.25a10 10 0 0 0-.454-.562c-1.436-1.628-2.884-3.246-4.328-4.868l.038-.042-1.746-1.748 3.388-10.2c.234-.06.47-.113.706-.14 1.842-.185 3.686-.395 5.532-.501.566-.032 1.13-.06 1.7-.068M8.872 23.277l6.32 3.738v.16a48.8 48.798 0 0 0 1.016 10.098l.008.036-4.902 7.681a4 4 0 0 1-.314-.174 19.4 19.4 0 0 1-3.694-2.973 26.4 26.4 0 0 1-.852-14.706q.786-1.55 1.796-2.978c.21-.292.4-.598.622-.882m37.156 6.2c1.53 2.244 2.978 4.534 4.238 6.944q.348.666.694 1.348L44.91 49.05l-.102.018a55 54.998 0 0 1-9.89.954l-6.036-10.437q1.41-2.616 2.794-5.246.938-1.784 1.86-3.582zm12.104 5.542a26.08 26.08 0 0 1-7.59 16.55q-1.494 1.495-3.156 2.695a24 24 0 0 0-.944-4.304l6.262-11.683c1.724-.786 3.384-1.674 4.928-2.778q.304-.214.5-.48m-40.75 3.768.364.094c3.06.82 6.18 1.402 9.32 1.858q.274.04.47.064l5.866 10.143a223 223 0 0 1-3.102 4.266q-.262.35-.554.684l-12.5-2.232a39 39 0 0 1-3.906-5.66c-.288-.51-.612-1.01-.856-1.542z" opacity=".2"/><path fill="#4f4f4f" d="M21.464 6.049a27.9 27.9 0 0 0-9.263 6.15A27.92 27.92 0 0 0 4 32a27.9 27.9 0 0 0 2.05 10.536 27.9 27.9 0 0 0 6.151 9.263 27.8 27.8 0 0 0 9.263 6.15A27.9 27.9 0 0 0 32.001 60a27.92 27.92 0 0 0 19.8-8.2 27.8 27.8 0 0 0 6.15-9.263A27.9 27.9 0 0 0 60 32c0-3.636-.69-7.182-2.049-10.537a27.9 27.9 0 0 0-6.15-9.263 27.8 27.8 0 0 0-9.264-6.151A27.9 27.9 0 0 0 32.001 4c-3.637 0-7.181.69-10.537 2.049M10.998 43.788c-1.349-.847-2.591-1.822-3.692-2.97a26.4 26.4 0 0 1-.852-14.71 23.5 23.5 0 0 1 1.794-2.975c.208-.294.4-.6.624-.884l6.319 3.739v.159a48.8 48.8 0 0 0 1.016 10.097l.007.038-4.9 7.683a4 4 0 0 1-.316-.177m18.788 12.99a24 24 0 0 0 3.363 1.407 26.26 26.26 0 0 1-14.206-3.44l10.592 1.887q.122.078.25.145m-.038-1.912-12.5-2.228a39 39 0 0 1-3.908-5.662c-.288-.511-.61-1.007-.853-1.54l4.896-7.676q.162.039.366.092c3.063.82 6.18 1.402 9.318 1.859q.273.04.467.062l5.869 10.146a225 225 0 0 1-3.1 4.264q-.264.35-.555.683m20.796-4.322a26 26 0 0 1-3.157 2.693 24 24 0 0 0-.946-4.304l6.262-11.681c1.724-.786 3.388-1.676 4.932-2.78q.305-.216.5-.479a26.1 26.1 0 0 1-7.59 16.55m-.278-15.149q.348.666.693 1.348l-6.048 11.282q-.052.013-.103.02a55 55 0 0 1-9.888.951l-6.036-10.436a655 655 0 0 0 2.794-5.247 401 401 0 0 0 1.858-3.58l12.49-1.283c1.53 2.244 2.98 4.536 4.24 6.945m-2.534-13.381c-.593 1.565-1.228 3.114-1.858 4.666l-12.169 1.25a10 10 0 0 0-.455-.561c-1.437-1.627-2.883-3.245-4.327-4.866q.02-.024.04-.044-.875-.872-1.75-1.747l3.388-10.2a5 5 0 0 1 .706-.139c1.842-.187 3.686-.399 5.532-.506 1.13-.063 2.267-.1 3.417-.018l8.382 9.447c-.289.911-.57 1.825-.906 2.718m2.811-8.556a26.1 26.1 0 0 1 5.369 7.775 26.6 26.6 0 0 0-5.001-2.688 15 15 0 0 0-.84-.31l-8.25-9.3c.057-.4.087-.803.1-1.209a26.1 26.1 0 0 1 8.622 5.732m-26.94-6.22c.033.024.048.044.067.05 1.885.651 3.601 1.61 5.218 2.749l-3.165 9.53a.3.3 0 0 0-.047.017c-.647.268-1.308.507-1.945.798-2.627 1.194-5.188 2.516-7.601 4.101l-6.245-3.694a1.9 1.9 0 0 1 .109-.57c.42-1.117.832-2.24 1.306-3.336a25 25 0 0 1 1.236-2.454q.446-.493.922-.97A26.1 26.1 0 0 1 23.661 7.14q-.03.045-.058.095"/><path fill="#fff" d="M32 4C16.488 4 4 16.488 4 32c0 .114.011.224.018.336C4.369 17.134 16.71 5 32 5s27.63 12.134 27.982 27.336c.007-.112.018-.222.018-.336C60 16.488 47.512 4 32 4" opacity=".2"/></svg>