<svg xmlns="http://www.w3.org/2000/svg" viewBox="0 0 64 64"><rect width="58" height="58" x="3" y="4" opacity=".2" rx="8.4" ry="8.4"/><rect width="58" height="58" x="3" y="3" fill="#5d44c8" rx="8.4" ry="8.4"/><path fill="none" stroke="#000" stroke-linejoin="round" stroke-width="6" d="M11 33h34.913S50 33.2 50 39s-3.983 6-3.983 6H11m0-24h34.913S50 21.2 50 27s-3.983 6-3.983 6H11" opacity=".2"/><path fill="none" stroke="#fff" stroke-linejoin="round" stroke-width="6" d="M11 32h34.913S50 32.2 50 38s-3.983 6-3.983 6H11m0-24h34.913S50 20.2 50 26s-3.983 6-3.983 6H11"/><path fill="#fff" d="M11.4 3A8.38 8.38 0 0 0 3 11.4v1C3 7.747 6.747 4 11.4 4h41.2c4.653 0 8.4 3.747 8.4 8.4v-1C61 6.747 57.253 3 52.6 3z" opacity=".1"/></svg>