<svg xmlns="http://www.w3.org/2000/svg" viewBox="0 0 64 64"><path fill="#278e33" d="M41 41v18h15.3c1.496 0 2.7-1.204 2.7-2.7V41z"/><path fill="#1e4f77" d="M23 41h18v18H23z"/><path fill="#278e33" d="M5 41v15.3C5 57.796 6.204 59 7.7 59H23V41z"/><path d="M5 24h18v18H5z" opacity=".2"/><path fill="#20c931" d="M5 23h18v18H5z"/><path d="M23 24h18v18H23z" opacity=".2"/><path fill="#3182c6" d="M23 23h18v18H23z"/><path d="M41 24h18v18H41z" opacity=".2"/><path fill="#20c931" d="M41 23h18v18H41z"/><path d="M41 6v18h18V8.7C59 7.204 57.796 6 56.3 6z" opacity=".2"/><path fill="#66fe76" d="M41 5v18h18V7.7C59 6.204 57.796 5 56.3 5z"/><path d="M23 6h18v18H23z" opacity=".2"/><path fill="#4799e2" d="M23 5h18v18H23z"/><path d="M7.7 6A2.694 2.694 0 0 0 5 8.7V24h18V6z" opacity=".2"/><path fill="#66b7fe" d="M7.7 5A2.694 2.694 0 0 0 5 7.7V23h18V5z"/><path d="M5 56.3v1C5 58.797 6.203 60 7.7 60h48.6c1.497 0 2.7-1.203 2.7-2.7v-1c0 1.496-1.203 2.7-2.7 2.7H7.7A2.693 2.693 0 0 1 5 56.3" opacity=".2"/><path fill="#fff" d="M7.7 5A2.693 2.693 0 0 0 5 7.7v1C5 7.202 6.203 6 7.7 6h48.6C57.798 6 59 7.203 59 8.7v-1C59 6.202 57.797 5 56.3 5z" opacity=".2"/></svg>