<svg xmlns="http://www.w3.org/2000/svg" xmlns:xlink="http://www.w3.org/1999/xlink" viewBox="0 0 96 96"><defs><linearGradient id="b" x1="50%" x2="50%" y1="0%" y2="100%"><stop offset="0%" stop-color="#c5c5c5"/><stop offset="100%" stop-color="#989898"/></linearGradient><filter id="a" width="130.8%" height="130.8%" x="-15.4%" y="-15.4%" filterUnits="objectBoundingBox"><feOffset dy="2" in="SourceAlpha" result="shadowOffsetOuter1"/><feGaussianBlur in="shadowOffsetOuter1" result="shadowBlurOuter1" stdDeviation="2"/><feColorMatrix in="shadowBlurOuter1" result="shadowMatrixOuter1" values="0 0 0 0 0 0 0 0 0 0 0 0 0 0 0 0 0 0 0.2 0"/><feMerge><feMergeNode in="shadowMatrixOuter1"/><feMergeNode in="SourceGraphic"/></feMerge></filter></defs><g fill="none" fill-rule="evenodd" filter="url(#a)" transform="translate(9 9)"><rect width="78" height="78" fill="url(#b)" rx="18"/><path fill="#fff" d="m46.084 13.017 28.055 27.75-28.864 28.51h-11.05l28.621-28.51-21.887-22.36zm-3.566-3.74L15.19 37.047l21.92 22.264-5.146 5.282L4.522 37.048 31.965 9.277zm-8.292 19.877c1.68-2.27 1.68-6.568 3.126-6.053s4.102 3.396 5.945 8.507-.78 10.685 1.34 11.698q2.119 1.014 2.045-9.873.628 0 2.023 3.987c1.394 3.987 0 8.891-1.395 10.88-1.394 1.988-8.69 6.954-15.17.548-6.482-6.406.405-17.424 2.086-19.694"/></g></svg>