<svg xmlns="http://www.w3.org/2000/svg" viewBox="0 0 64 64"><path d="M6 53.168v2C6 56.738 7.29 58 8.89 58h46.22c1.6 0 2.89-1.262 2.89-2.832v-2C58 54.738 56.71 56 55.11 56H8.89C7.29 56 6 54.738 6 53.168" opacity=".2"/><rect width="34" height="51.999" x="-57" y="-58" fill="#5f7c8a" rx="2.834" ry="2.888" transform="rotate(90)scale(-1 1)"/><path d="M56 43a3 3 0 0 1-3 3 3 3 0 0 1-3-3 3 3 0 0 1 3-3 3 3 0 0 1 3 3" opacity=".2"/><path fill="#fff" d="M8.89 23C7.29 23 6 24.262 6 25.832v1C6 25.262 7.29 24 8.89 24h46.22c1.6 0 2.89 1.262 2.89 2.832v-1C58 24.262 56.71 23 55.11 23z" opacity=".2"/><path d="M50 35a3 3 0 0 1-3 3 3 3 0 0 1-3-3 3 3 0 0 1 3-3 3 3 0 0 1 3 3" opacity=".2"/><path fill="#fff" d="M50 34a3 3 0 0 1-3 3 3 3 0 0 1-3-3 3 3 0 0 1 3-3 3 3 0 0 1 3 3"/><path d="M20 35a3 3 0 0 1-3 3 3 3 0 0 1-3-3 3 3 0 0 1 3-3 3 3 0 0 1 3 3m2.666-27h18.666C42.81 8 44 9.241 44 10.783v19.478c0 4.174-9.334 6.958-12 9.74-2.666-2.782-12-5.566-12-9.74V10.784C20 9.242 21.19 8 22.666 8" opacity=".2"/><path fill="#10c36e" d="M22.666 7h18.666C42.81 7 44 8.243 44 9.784v19.478c0 4.174-9.334 6.958-12 9.74-2.666-2.782-12-5.566-12-9.74V9.784c0-1.542 1.19-2.783 2.666-2.783z"/><path fill="#fff" d="M20 34a3 3 0 0 1-3 3 3 3 0 0 1-3-3 3 3 0 0 1 3-3 3 3 0 0 1 3 3"/><path d="M16 43a3 3 0 0 1-3 3 3 3 0 0 1-3-3 3 3 0 0 1 3-3 3 3 0 0 1 3 3" opacity=".2"/><path fill="#fff" d="M16 42a3 3 0 0 1-3 3 3 3 0 0 1-3-3 3 3 0 0 1 3-3 3 3 0 0 1 3 3"/><path d="M26 43a3 3 0 0 1-3 3 3 3 0 0 1-3-3 3 3 0 0 1 3-3 3 3 0 0 1 3 3" opacity=".2"/><path fill="#fff" d="M26 42a3 3 0 0 1-3 3 3 3 0 0 1-3-3 3 3 0 0 1 3-3 3 3 0 0 1 3 3"/><path d="M36 43a3 3 0 0 1-3 3 3 3 0 0 1-3-3 3 3 0 0 1 3-3 3 3 0 0 1 3 3" opacity=".2"/><path fill="#fff" d="M36 42a3 3 0 0 1-3 3 3 3 0 0 1-3-3 3 3 0 0 1 3-3 3 3 0 0 1 3 3"/><path d="M46 43a3 3 0 0 1-3 3 3 3 0 0 1-3-3 3 3 0 0 1 3-3 3 3 0 0 1 3 3" opacity=".2"/><path fill="#fff" d="M46 42a3 3 0 0 1-3 3 3 3 0 0 1-3-3 3 3 0 0 1 3-3 3 3 0 0 1 3 3m10 0a3 3 0 0 1-3 3 3 3 0 0 1-3-3 3 3 0 0 1 3-3 3 3 0 0 1 3 3"/><rect width="43.999" height="6" x="10" y="47" opacity=".2" rx="1.466" ry="1.5"/><path d="m35.095 30-3.942-6.8L29 24.934V30h-3V14h3v6.844L34.92 14h3.962l-5.388 6.6 5.62 9.4z" opacity=".2"/><path fill="#fff" d="m35.095 29-3.942-6.8L29 23.934V29h-3V13h3v6.844L34.92 13h3.962l-5.388 6.6 5.62 9.4z"/></svg>