<svg xmlns="http://www.w3.org/2000/svg" viewBox="0 0 64 64"><path d="M56.782 10H7.218C4.888 10 3 11.919 3 14.286v36.428C3 53.081 4.889 55 7.218 55h49.564C59.112 55 61 53.081 61 50.714V14.286C61 11.919 59.111 10 56.782 10" opacity=".2"/><path fill="#4f4f4f" d="M56.782 9H7.218C4.888 9 3 10.919 3 13.286v36.428C3 52.081 4.889 54 7.218 54h49.564C59.112 54 61 52.081 61 49.714V13.286C61 10.919 59.111 9 56.782 9"/><path fill="#fff" d="M7.219 9C4.889 9 3 10.918 3 13.285v1C3 11.918 4.89 10 7.219 10H56.78c2.331 0 4.22 1.918 4.22 4.285v-1C61 10.918 59.11 9 56.781 9z" opacity=".1"/><circle cx="11.5" cy="18.5" r="2.5" opacity=".2"/><circle cx="11.5" cy="17.5" r="2.5" fill="#42d081"/><path d="M20 22a9 9 0 0 0-9 9 9 9 0 0 0 9 9 9 9 0 0 0 9-9 9 9 0 0 0-9-9m24 0a9 9 0 0 0-9 9 9 9 0 0 0 9 9 9 9 0 0 0 9-9 9 9 0 0 0-9-9" opacity=".2"/><path fill="#9a9996" d="M20 21a9 9 0 0 0-9 9 9 9 0 0 0 9 9 9 9 0 0 0 9-9 9 9 0 0 0-9-9m24 0a9 9 0 0 0-9 9 9 9 0 0 0 9 9 9 9 0 0 0 9-9 9 9 0 0 0-9-9"/><path d="M20 25a6 6 0 0 0-6 6 6 6 0 0 0 6 6 6 6 0 0 0 6-6 6 6 0 0 0-6-6m24 0a6 6 0 0 0-6 6 6 6 0 0 0 6 6 6 6 0 0 0 6-6 6 6 0 0 0-6-6" opacity=".2"/><path fill="#dd85d5" d="M20 24a6 6 0 0 0-6 6 6 6 0 0 0 6 6 6 6 0 0 0 6-6 6 6 0 0 0-6-6m24 0a6 6 0 0 0-6 6 6 6 0 0 0 6 6 6 6 0 0 0 6-6 6 6 0 0 0-6-6"/><path fill="#fff" d="M20 24a6 6 0 0 0-6 6 6 6 0 0 0 .057.5A6 6 0 0 1 20 25a6 6 0 0 1 5.96 5.352A6 6 0 0 0 26 30a6 6 0 0 0-6-6m24 0a6 6 0 0 0-6 6 6 6 0 0 0 .057.5A6 6 0 0 1 44 25a6 6 0 0 1 5.977 5.5A6 6 0 0 0 50 30a6 6 0 0 0-6-6" opacity=".2"/><rect width="14" height="6" x="25" y="44" opacity=".2" rx="3" ry="3"/><rect width="14" height="6" x="25" y="43" fill="#afafb1" rx="3" ry="3"/><path fill="#fff" d="M28 43a2.993 2.993 0 0 0-2.957 3.5A2.99 2.99 0 0 1 28 44h8a2.99 2.99 0 0 1 2.957 2.5q.042-.244.043-.5c0-1.662-1.338-3-3-3z" opacity=".2"/></svg>