<svg xmlns="http://www.w3.org/2000/svg" viewBox="0 0 64 64"><path d="M31.672 8c-1.684.048-2.728 1.24-3.473 1.797L4 28v26.086c0 .756.223 1.461.61 2.059l-.032.015C5.291 57.263 6.595 58 8.098 58h47.804c1.503 0 2.807-.737 3.52-1.84l-.031-.015a3.8 3.8 0 0 0 .609-2.06V28L35.8 9.797C35.057 9.24 34.013 8.048 32.329 8c-.105-.003-.218.01-.328.016-.11-.007-.223-.019-.328-.016" opacity=".2"/><path fill="#2e49a4" d="m4 27 28-8.4L60 27l-4.2 23.8H8.2Z"/><path fill="#3c60d8" d="M31.673 7c-1.684.049-2.727 1.24-3.472 1.795L4 27h56L35.8 8.795c-.746-.556-1.789-1.746-3.473-1.794-.105-.004-.217.007-.327.013-.11-.006-.222-.016-.327-.013"/><rect width="24" height="24" x="20" y="21" fill="#fff" rx="2.595" ry="2.595"/><path fill="#3052c3" d="M4 27v26.087c0 1.002.39 1.913 1.034 2.604.75.804 4.175-.877 5.396-.895l20.315-.302c39.188 1.942.06-6.585.06-6.585z"/><path fill="#4971f3" d="M60 27v26.087c0 1.002-.39 1.913-1.034 2.604-.75.804-4.175-.877-5.396-.895l-20.315-.302c-39.188 1.942-.06-6.585-.06-6.585z"/><path fill="#3d62dd" d="M30 22.61c-1.882.21-3.264.99-4 1.695V33a6 6 0 1 0 6-6 9 9 0 0 0-1 .055v4.093c.238-.097.743-.147 1-.148a2 2 0 1 1-2 2z"/><path fill="#fff" d="M60 27 33.195 47.91s-20.33 4.433-16.959 6.176c2.554-2.034 16.96-5.176 16.96-5.176L60 28z" opacity=".1"/><path fill="#fff" d="M4 27v1l26.805 20.91s14.405 3.142 16.959 5.176c3.37-1.743-16.96-6.176-16.96-6.176z" opacity=".1"/><path fill="#3c60d8" d="M31.683 41c-1.629.034-2.638.852-3.36 1.234L4.577 55.16C5.29 56.262 6.595 57 8.098 57h47.804c1.503 0 2.809-.738 3.522-1.841L35.676 42.234c-.72-.382-1.73-1.2-3.36-1.234-.1-.002-.21.005-.316.01-.107-.005-.215-.012-.317-.01"/><path fill="#fff" d="M31.672 7c-1.684.048-2.728 1.24-3.473 1.797L4 27h1.33L28.2 9.797c.744-.556 1.788-1.749 3.472-1.797.105-.003.218.01.328.016.11-.007.223-.02.328-.016 1.684.048 2.728 1.24 3.473 1.797L58.67 27H60L35.8 8.797C35.057 8.24 34.013 7.048 32.329 7c-.105-.003-.218.01-.328.016-.11-.007-.223-.019-.328-.016" opacity=".1"/></svg>