<svg xmlns="http://www.w3.org/2000/svg" viewBox="0 0 64 64"><rect width="56" height="56" x="4" y="5" opacity=".2" rx="8.4" ry="8.4"/><rect width="56" height="56" x="4" y="4" fill="#e4e4e4" rx="8.4" ry="8.4"/><path d="M7 25v5h3v14h5V30h6v14h5V30h3v-5z" opacity=".1"/><path fill="#f9548f" d="M7 24v5h3v14h5V29h6v14h5V29h3v-5z"/><path d="M43.2 7.8S54 22 54 33c0 12-10.8 22.4-10.8 22.4S57 47 57 33 43.2 7.8 43.2 7.8m-5.6 8.4S46 25 46 33c0 8.4-8.4 16.8-8.4 16.8S49 44 49 33 37.6 16.2 37.6 16.2M32 21.8s5 5.6 5 11.2-5 11.2-5 11.2S40 40 40 33s-8-11.2-8-11.2" opacity=".1"/><path fill="#333" d="M43.2 6.8S54 21 54 32c0 12-10.8 22.4-10.8 22.4S57 46 57 32 43.2 6.8 43.2 6.8m-5.6 8.4S46 24 46 32c0 8.4-8.4 16.8-8.4 16.8S49 43 49 32 37.6 15.2 37.6 15.2M32 20.8s5 5.6 5 11.2-5 11.2-5 11.2S40 39 40 32s-8-11.2-8-11.2"/><path fill="#fff" d="M12.4 4A8.38 8.38 0 0 0 4 12.4v1C4 8.747 7.747 5 12.4 5h39.2c4.653 0 8.4 3.747 8.4 8.4v-1C60 7.747 56.253 4 51.6 4z" opacity=".2"/></svg>