<svg xmlns="http://www.w3.org/2000/svg" viewBox="0 0 64 64"><path d="m45.926 33.078 4.383 9.383c8.272-1.723 9.544-4.306 9.593-4.45.05-.143.098-.24.098-.335v-.574s-.02-.03-.05-.07v.69c-2.001-1.955-8.42-3.71-14.024-4.644" opacity=".2"/><path d="m45.805 32.762-6.985 9.586c4.526 5.416 9.229 9.699 12.774 10.629.097.014.195.027.281.027.098-.048.146-.143.195-.238.147-.192 2.84-4.5-6.265-20.004m-31.817 7.683-.785 2.27c-2.888 7.513-1.418 9.86-1.32 10.05.049.096.097.191.195.239.196 0 .39-.046.586-.094h.008c2.604-.726 6.414-2.996 12.031-9.457zm-.345-16.111c-3.084-7.752-1.566-10.192-1.468-10.336.196-.24.44-.43.685-.574l8.518-5.312c-.735 3.398 1.125 8.614 4.014 14.69z" opacity=".2"/><ellipse cx="32" cy="31.994" fill="#4b5b90" rx="16.8" ry="16.417"/><path fill="#4767b5" d="M45.413 30.982C58.189 32.992 60 36.102 60 36.102v.574c0 .096-.049.191-.098.335s-1.322 2.728-9.594 4.45z"/><path fill="#4b5b90" d="M13.203 41.715c-2.888 7.513-1.42 9.857-1.322 10.049.05.096.098.191.196.24.196 0 .392-.049.587-.097 0 0 5.337 1.224 11.456-7.293l2.006-1.765-12.138-3.404Z"/><path fill="#2f4479" d="M32.294 13.05c-7-7.464-10.378-7.034-10.574-7.034a.9.9 0 0 0-.342.096c-.245.096-.49.861-.49.861s-1.468 4.164 4.455 15.266zm6.119 28.856c9.496 10.624 12.825 10.001 12.825 10.001.196.048.44.096.636.096.098-.048.147-.143.196-.24.147-.19 2.84-4.497-6.266-20.002z"/><path d="M4.934 37c-.34.248-.654.501-.926.766a.8.8 0 0 0 .09.246c.098.24 2.447 5.026 22.027 5.84l-1.309-2.066C11.42 41.079 6.6 38.46 4.934 37" opacity=".2"/><path fill="#4767b5" d="M26.126 42.85c-19.58-.814-21.93-5.6-22.028-5.839A.7.7 0 0 1 4 36.676c.049-.335.734-.957.734-.957s5.19-3.11 13.853-4.785z"/><path fill="#4b5b90" d="M39.636 21.09c5.14-11.82 3.133-14.5 3.133-14.5-.049-.143-.098-.334-.147-.478-.098-.048-.195-.048-.342-.096-.245-.048-5.58-.717-16.84 14.691z"/><path fill="#0084db" d="M13.643 22.334c-3.084-7.752-1.566-10.192-1.468-10.336.196-.24.44-.43.685-.574l8.518-5.312c-.735 3.398 1.125 8.614 4.014 14.69Z"/><path fill="#0cb4ff" d="M40.666 20.355c-1.469-.048-5.925-.266-8.666-.266-25.014 0-27.755 5.246-27.902 5.533-.098.287-.098.574-.098.91v10.24c2.448-2.393 7.783-4.068 14.294-5.025 4.21-.574 8.42-.909 12.678-.957l5.503.144c1.125.03 5.659-10.483 4.19-10.579m1.304 11.178c6.073.598 15.486 2.75 17.982 5.19v-9.857c0-.287-.049-.622-.098-.909-.049-.144-2.576-4.013-13.555-4.8z"/><path d="M42.623 7.112c1.224 5.647-3.622 16.556-10.377 26.558C21.763 48.645 15.7 52.284 12.126 53.05l8.762 5.552a4.4 4.4 0 0 0 .833.382c.196 0 5.191 1.126 17.62-15.791.49-.527 1.715-2.487 2.645-3.875 13.608-20.48 10.28-25.842 10.134-26.081a2.6 2.6 0 0 0-.687-.575Z" opacity=".2"/><path fill="#fff" d="M32 20.09c-25.014 0-27.755 5.244-27.902 5.531-.098.287-.098.575-.098.91v1c0-.335 0-.623.098-.91.147-.287 2.888-5.531 27.902-5.531 2.741 0 7.196.218 8.664.265.105.007.176.07.223.176.118-.7.074-1.156-.223-1.176-1.468-.047-5.923-.265-8.664-.265m14.297 1.066-4.328 10.375c.124.013.262.031.396.05l3.932-9.425c10.98.788 13.506 4.657 13.555 4.801.049.287.097.623.097.91v-1c0-.287-.048-.623-.097-.91-.05-.144-2.575-4.013-13.555-4.8" opacity=".2"/><path fill="#00ccfa" d="M42.623 6.112c1.224 5.647-3.622 16.556-10.377 26.558C21.763 47.645 15.7 51.284 12.126 52.05l8.762 5.552a4.4 4.4 0 0 0 .833.382c.196 0 5.191 1.126 17.62-15.791.49-.527 1.715-2.487 2.645-3.875 13.608-20.48 10.28-25.842 10.134-26.081a2.6 2.6 0 0 0-.687-.575Z"/><path d="M30.972 31.791c-4.235.048-8.422.378-12.608.946a181 181 0 0 0 3.943 6.34C35.915 59.56 42.28 58.748 42.574 58.7a4.4 4.4 0 0 0 .831-.385l8.468-5.264c-5.545-1.197-14.117-11.04-20.319-20.575l-.383-.684Z" opacity=".2"/><path fill="#fff" d="M42.623 6.111q.113.521.158 1.1l8.653 5.451c.244.144.49.335.685.574.045.073.379.628.447 1.922.103-2.029-.392-2.833-.447-2.922a2.6 2.6 0 0 0-.685-.574zm.168 2.535c-.28 6.016-4.691 15.358-10.545 24.024C21.763 47.646 15.7 51.285 12.127 52.05l1.086.688c3.677-1.252 9.538-5.504 19.033-19.068 6.19-9.166 10.764-19.082 10.545-25.024" opacity=".2"/><path fill="#0084db" d="M30.972 30.791c-4.235.048-8.422.378-12.608.946a181 181 0 0 0 3.943 6.34C35.915 58.56 42.28 57.748 42.574 57.7a4.4 4.4 0 0 0 .831-.385l8.468-5.264c-5.545-1.197-14.117-11.04-20.319-20.575l-.383-.684Z"/><path d="M30.973 30.791c-4.26.048-8.47.383-12.68.957-6.51.957-11.845 2.63-14.293 5.023v1.002c2.448-2.392 7.782-4.07 14.293-5.027 4.21-.574 8.42-.91 12.68-.957l1.164.031c.037-.053.072-.099.11-.152.185-.275.363-.554.546-.83zm14.37 1.193c-.18.302-.353.596-.542.907 5.835.874 13.014 2.745 15.148 4.832v-1c-2.071-2.023-8.875-3.833-14.605-4.739" opacity=".2"/><path fill="#fff" d="m21.377 6.111-8.518 5.313a2.6 2.6 0 0 0-.683.574c-.055.08-.543.871-.444 2.879.07-1.275.4-1.814.444-1.879.196-.24.439-.43.683-.574l8.381-5.227c.023-.378.063-.743.137-1.086m-.145 2.178c-.15 3.043 1.284 7.209 3.456 11.973.148-.008.292-.017.443-.024-2.186-4.664-3.733-8.799-3.899-11.949m9.74 22.502-.542.01 1.125 1.674c5.81 8.934 13.7 18.14 19.234 20.25l1.084-.674c-5.545-1.197-14.116-11.041-20.318-20.576l-.38-.678z" opacity=".1"/></svg>