<svg xmlns="http://www.w3.org/2000/svg" viewBox="0 0 64 64"><rect width="40" height="40" x="-45" y="-44" opacity=".2" rx="5.714" ry="5.714" transform="rotate(90)scale(-1 1)"/><rect width="40" height="40" x="-44" y="-44" fill="#2e72be" rx="5.714" ry="5.714" transform="rotate(90)scale(-1 1)"/><rect width="40" height="40" x="-53" y="-52" opacity=".2" rx="5.714" ry="5.714" transform="rotate(90)scale(-1 1)"/><rect width="40" height="40" x="-52" y="-52" fill="#459df7" rx="5.714" ry="5.714" transform="rotate(90)scale(-1 1)"/><rect width="40" height="40" x="-61" y="-60" opacity=".2" rx="5.714" ry="5.714" transform="rotate(90)scale(-1 1)"/><rect width="40" height="40" x="-60" y="-60" fill="#90c2fa" rx="5.714" ry="5.714" transform="rotate(90)scale(-1 1)"/><path fill="#f34e51" d="M39.004 34.002a13.66 8.854 38.859 0 0-6.312 3.473 13.66 8.854 38.859 0 0 7.29 15.547 13.66 8.854 38.859 0 0 15.326-.494 13.66 8.854 38.859 0 0-7.29-15.547A13.66 8.854 38.859 0 0 39.004 34"/><path d="M41.484 39.004a8.602 6.246 32.313 0 1 3.72.656 8.602 6.246 32.313 0 1 6.705 9.305 8.602 6.246 32.313 0 1-9.112 3.377 8.602 6.246 32.313 0 1-6.706-9.305 8.602 6.246 32.313 0 1 5.393-4.033" opacity=".2"/><path fill="#fff" d="M41.484 38.004a8.602 6.246 32.313 0 1 3.72.656 8.602 6.246 32.313 0 1 6.705 9.305 8.602 6.246 32.313 0 1-9.112 3.377 8.602 6.246 32.313 0 1-6.706-9.305 8.602 6.246 32.313 0 1 5.393-4.033"/><path fill="#fff" d="M9.715 4A5.703 5.703 0 0 0 4 9.715v1A5.703 5.703 0 0 1 9.715 5h28.57A5.703 5.703 0 0 1 44 10.715v-1A5.703 5.703 0 0 0 38.285 4zm8 8A5.703 5.703 0 0 0 12 17.715v1A5.703 5.703 0 0 1 17.715 13h28.57A5.703 5.703 0 0 1 52 18.715v-1A5.703 5.703 0 0 0 46.285 12zm8 8A5.703 5.703 0 0 0 20 25.715v1A5.703 5.703 0 0 1 25.715 21h28.57A5.703 5.703 0 0 1 60 26.715v-1A5.703 5.703 0 0 0 54.285 20z" opacity=".1"/></svg>