<svg xmlns="http://www.w3.org/2000/svg" viewBox="0 0 64 64"><circle cx="32" cy="33" r="28" opacity=".2"/><circle cx="32" cy="32" r="28" fill="#e4e4e4"/><path d="M50.611 19 19 27.424 22.389 40l13.982-3.727A4.5 4.5 0 0 0 39 38.736V45.5a1.5 1.5 0 0 0 1.5 1.5H53v-3H42v-5.264a4.5 4.5 0 0 0 3-4.236 5 5 0 0 0-.035-.516L54 31.576ZM10 30l3.346 13L20 37.66l-1.672-6.5z" opacity=".1"/><path fill="#3f3f3f" d="m19 26.429 31.611-8.424L54 30.58l-31.612 8.424zM10 29l3.345 13L20 36.66l-1.673-6.5Zm29 7h3v8.5h-3z"/><path fill="#3f3f3f" d="M40.5 43H53v3H40.5z"/><circle cx="40.5" cy="44.5" r="1.5" fill="#3f3f3f"/><circle cx="40.5" cy="33.5" r="4.5" fill="#3f3f3f"/><path fill="#fff" d="M32 4A28 28 0 0 0 4 32a28 28 0 0 0 .021.586A28 28 0 0 1 32 5a28 28 0 0 1 27.979 27.414L60 32A28 28 0 0 0 32 4" opacity=".2"/></svg>