<svg xmlns="http://www.w3.org/2000/svg" viewBox="0 0 64 64"><rect width="34" height="56" x="-49" y="-60" opacity=".2" rx="3" ry="3" transform="rotate(90)scale(-1 1)"/><rect width="34" height="56" x="-48" y="-60" fill="#e4e4e4" rx="3" ry="3" transform="rotate(90)scale(-1 1)"/><path fill="#fff" d="M7 14c-1.662 0-3 1.338-3 3v1c0-1.662 1.338-3 3-3h50c1.662 0 3 1.338 3 3v-1c0-1.662-1.338-3-3-3z" opacity=".2"/><rect width="26" height="48" x="-45" y="-56" opacity=".2" rx="2" ry="2" transform="rotate(90)scale(-1 1)"/><rect width="26" height="48" x="-44" y="-56" fill="#263238" rx="2" ry="2" transform="rotate(90)scale(-1 1)"/><path d="M12 30c-.554 0-1 .446-1 1v2c0 .554.446 1 1 1h18c.554 0 1-.446 1-1v-2c0-.554-.446-1-1-1zm23 0c-.554 0-1 .446-1 1v2c0 .554.446 1 1 1h3c.554 0 1-.446 1-1v-2c0-.554-.446-1-1-1zm8 0c-.554 0-1 .446-1 1v2c0 .554.446 1 1 1h9c.554 0 1-.446 1-1v-2c0-.554-.446-1-1-1zm-31 7c-.554 0-1 .446-1 1v2c0 .554.446 1 1 1h12c.554 0 1-.446 1-1v-2c0-.554-.446-1-1-1zm17 0c-.554 0-1 .446-1 1v2c0 .554.446 1 1 1h18c.554 0 1-.446 1-1v-2c0-.554-.446-1-1-1z" opacity=".2"/><rect width="20" height="4" x="11" y="29" fill="#fafafa" rx="1" ry="1"/><rect width="5" height="4" x="34" y="29" fill="#e0e0e0" rx="1" ry="1"/><rect width="11" height="4" x="42" y="29" fill="#f5f5f5" rx="1" ry="1"/><rect width="14" height="4" x="11" y="36" fill="#f5f5f5" rx="1" ry="1"/><rect width="20" height="4" x="28" y="36" fill="#bdbdbd" rx="1" ry="1"/></svg>