<svg xmlns="http://www.w3.org/2000/svg" xmlns:xlink="http://www.w3.org/1999/xlink" viewBox="0 0 96 96"><defs><linearGradient id="b" x1="100%" x2="3.391%" y1="50%" y2="50%"><stop offset="0%" stop-color="#299d01"/><stop offset="100%" stop-color="#1f7f0c"/></linearGradient><linearGradient id="f" x1="0%" x2="100%" y1="44.19%" y2="44.19%"><stop offset="0%" stop-color="#55ca37"/><stop offset="100%" stop-color="#37ae27"/></linearGradient><filter id="a" width="130.4%" height="133.3%" x="-15.2%" y="-16.7%" filterUnits="objectBoundingBox"><feOffset dy="2" in="SourceAlpha" result="shadowOffsetOuter1"/><feGaussianBlur in="shadowOffsetOuter1" result="shadowBlurOuter1" stdDeviation="2"/><feComposite in="shadowBlurOuter1" in2="SourceAlpha" operator="out" result="shadowBlurOuter1"/><feColorMatrix in="shadowBlurOuter1" result="shadowMatrixOuter1" values="0 0 0 0 0 0 0 0 0 0 0 0 0 0 0 0 0 0 0.2 0"/><feMerge><feMergeNode in="shadowMatrixOuter1"/><feMergeNode in="SourceGraphic"/></feMerge></filter><filter id="e" width="121.2%" height="106.3%" x="-5.6%" y="-3.3%" filterUnits="objectBoundingBox"><feOffset dx="2" in="SourceAlpha" result="shadowOffsetOuter1"/><feGaussianBlur in="shadowOffsetOuter1" result="shadowBlurOuter1" stdDeviation="1"/><feColorMatrix in="shadowBlurOuter1" values="0 0 0 0 0 0 0 0 0 0 0 0 0 0 0 0 0 0 0.15 0"/></filter><path id="c" d="m1.717 1.764 33.638 34.573a1 1 0 0 1 .035 1.358L1.751 76.005A1 1 0 0 1 0 75.345V2.463a1 1 0 0 1 1.717-.698"/></defs><g fill="none" fill-rule="evenodd" filter="url(#a)" transform="translate(12 9)"><path fill="url(#b)" d="M0 2.555v72.818a1 1 0 0 0 1.452.892L77.144 37.94a1 1 0 0 0-.037-1.803L1.415 1.645A1 1 0 0 0 0 2.555" opacity=".724"/><use xlink:href="#c" fill="#000" filter="url(#e)"/><use xlink:href="#c" fill="url(#f)"/></g></svg>