<svg xmlns="http://www.w3.org/2000/svg" viewBox="0 0 64 64"><path d="M46 8.751A28 28 0 0 0 7.751 19 28 28 0 0 0 18 57.249 28 28 0 0 0 56.249 47 28 28 0 0 0 46 8.751" opacity=".2"/><path fill="#42b8fe" d="M46 7.751A28 28 0 0 0 7.751 18 28 28 0 0 0 18 56.249 28 28 0 0 0 56.249 46 28 28 0 0 0 46 7.751"/><path fill="#fff" d="M32.66 4.008A28 28 0 0 0 7.75 18a28 28 0 0 0-3.705 14.28A28 28 0 0 1 7.75 19 28 28 0 0 1 32.66 5.008 28 28 0 0 1 46 8.75a28 28 0 0 1 13.945 24.195l.008.242A28 28 0 0 0 46 7.75a28 28 0 0 0-13.34-3.742" opacity=".2"/><path d="m46.15 15.008-1.78 5.478L50 21.699l-5.131 2.614 3.122 4.838-5.476-1.78L41.301 33l-2.614-5.132-4.838 3.122 1.78-5.476L30 24.3l5.132-2.614-3.122-4.838 5.477 1.78L38.7 13l2.613 5.132z" opacity=".2"/><path fill="#fff" d="m46.15 14.009-1.78 5.477L50 20.7l-5.131 2.613 3.122 4.838-5.476-1.78L41.301 32l-2.614-5.132-4.838 3.122 1.78-5.476-5.63-1.214 5.132-2.614-3.122-4.838 5.477 1.781L38.699 12l2.614 5.131z"/><path fill="none" stroke="#000" stroke-linecap="round" stroke-linejoin="round" stroke-width="3" d="M17.5 7.485c-6 22 1.692 38.456 17 54" opacity=".2"/><path fill="none" stroke="#3f3f3f" stroke-linecap="round" stroke-linejoin="round" stroke-width="3" d="M17.5 6.5c-6 22 1.692 38.456 17 54"/><path fill="none" stroke="#000" stroke-linecap="round" stroke-linejoin="round" stroke-width="3" d="M59.5 32.485c-15.762 15.681-33 19-53 13" opacity=".2"/><path fill="none" stroke="#3f3f3f" stroke-linecap="round" stroke-linejoin="round" stroke-width="3" d="M59.5 31.5c-15.762 15.682-33 19-53 13"/></svg>