<svg xmlns="http://www.w3.org/2000/svg" viewBox="0 0 16 16"><path fill="#d3dae3" d="M2.499 3c-.831 0-1.5.669-1.5 1.5v7c0 .831.669 1.5 1.5 1.5h9.006a2.5 2.5 0 0 1-.453-1H2.499a.5.5 0 0 1-.5-.5V4.514l5.691 4.38c.016.014.035.018.051.028a.56.56 0 0 0 .258.07q.045 0 .088-.008a.5.5 0 0 0 .115-.035q.029-.012.055-.027c.016-.01.036-.014.05-.027L14 4.512v4.54a2.5 2.5 0 0 1 1 .448v-5c0-.83-.669-1.5-1.5-1.5zm.477 1h10.049L8 7.871z" color="#000" style="isolation:auto;mix-blend-mode:normal"/><path fill="currentColor" d="M13.501 10a1.5 1.5 0 0 0-1.5 1.5 1.5 1.5 0 0 0 1.5 1.5 1.5 1.5 0 0 0 1.5-1.5 1.5 1.5 0 0 0-1.5-1.5" color="#5294e2"/></svg>