<svg xmlns="http://www.w3.org/2000/svg" viewBox="0 0 64 64"><path d="m29.691 9 13.856 24 3.463-6-4.041-7 4.699-8.139L46 9h-3.607l-2.887 5.002L36.617 9ZM19.299 23l-4.041 7H5.75L4 33l1.75 3h6.043l-3.006 5.207 3.483 5.969L26.227 23Zm6.928 20 3.464 6h8.082l4.62 8H46l1.668-2.861L44.701 49h5.965l3.5-6Zm-5.774-10-3.463 6 4.041 7-4.699 8.139L18 57h3.607l2.887-5.002L27.383 57h6.926ZM51.73 18.824 37.773 43h6.928l4.041-7h9.508L60 33l-1.75-3h-6.043l3.006-5.207ZM18 9l-1.668 2.861L19.299 17h-5.965l-3.5 6h27.939l-3.464-6h-8.082l-4.62-8Z" opacity=".2"/><path fill="#3f77b7" d="m20.453 32-3.463 6 4.041 7-4.699 8.139L18 56h3.607l2.887-5.002L27.383 56h6.926ZM51.73 17.824 37.773 42h6.928l4.041-7h9.508L60 32l-1.75-3h-6.043l3.006-5.207ZM18 8l-1.668 2.861L19.299 16h-5.965l-3.5 6h27.939l-3.464-6h-8.082l-4.62-8Z"/><path fill="#6db9de" d="m29.691 8 13.856 24 3.463-6-4.041-7 4.699-8.139L46 8h-3.607l-2.887 5.002L36.617 8ZM19.299 22l-4.041 7H5.75L4 32l1.75 3h6.043l-3.006 5.207 3.483 5.969L26.227 22Zm6.928 20 3.464 6h8.082l4.62 8H46l1.668-2.861L44.701 48h5.965l3.5-6Z"/><path fill="#fff" d="m29.691 8 .579 1h6.347l2.889 5.002L42.393 9H46l1.377 2.363.291-.502L46 8h-3.607l-2.887 5.002L36.617 8Zm13.567 11.5-.289.5 3.752 6.5.289-.5ZM18.721 23l-3.463 6H5.75L4 32l.291.5L5.75 30h9.508l4.041-7Zm-7.506 13-2.428 4.207.291.498L11.793 36Zm15.012 6 .578 1h26.777l.584-1Zm18.474 7 2.676 4.637.291-.498L45.279 49Z" opacity=".2"/><path d="m19.299 22-.578 1h6.927l.579-1Z" opacity=".2"/><path d="m33.732 16 3.465 6h.576l-3.464-6zM20.453 32l-3.463 6 .289.5 3.463-6z" opacity=".1"/><path fill="#fff" d="M33.732 16h-7.505l-4.62-8H18l-1.668 2.861.291.502L18 9h3.607l4.62 8h8.082m-20.975-1-3.5 6h.584l2.916-5h5.965l-.578-1Zm38.396 1.824L37.773 42h.579L51.73 18.824l3.192 5.471.291-.502ZM52.785 29l-.578 1h6.043l1.459 2.5L60 32l-1.75-3Zm-32.043 3.5-.289.5L33.73 56h.579Zm0 13-4.41 7.639.291.498L21.031 46Z" opacity=".1"/></svg>