<svg xmlns="http://www.w3.org/2000/svg" viewBox="0 0 64 64"><path d="m16 27 16 34 16-34L32 5z" opacity=".2"/><path fill="#3f3f3f" d="m16 26 16 34 16-34L32 4z"/><circle cx="32" cy="27" r="8" opacity=".2"/><circle cx="32" cy="26" r="8" fill="#e33755"/><path d="M32 5 16.285 26.607 32 60V21l15.6 5.85.115-.243z" opacity=".2"/><path fill="#4f4f4f" d="M32 22V4L16 26Z"/><path fill="#5e5e5e" d="M32 4v16l16 6zm0 16-16 6 16 34Z"/><path fill="#fff" d="M32 4 16 26l1-.375L32 5l15 20.625L48 26z" opacity=".1"/></svg>