<svg xmlns="http://www.w3.org/2000/svg" viewBox="0 0 24 24"><path fill="#536076" d="M19.496 4.996a.5.5 0 0 1 .508.555c-.411 4.348-2.387 7.303-5.356 9.601l.352.352-3.5 3.5-3.5-3.5 2.684-2.684c-.124-.77-.285-1.56-.551-2.336-.416-1.213-1.036-2.34-1.932-3.15S6.138 6.004 4.5 6.004a.5.5 0 1 1 0-1c1.856 0 3.307.623 4.373 1.588 1.066.964 1.752 2.248 2.205 3.568.226.66.378 1.3.5 1.922l2.326 2.326c2.867-2.15 4.713-4.817 5.104-8.951a.5.5 0 0 1 .488-.461m-8.01 8.438-2.121 2.113 2.122 2.045 2.08-2.045z"/></svg>