<svg xmlns="http://www.w3.org/2000/svg" viewBox="0 0 24 24"><path fill="#303030" d="M19.39 5.344a.5.5 0 0 1 .508.453c.254 1.858-.14 4.323-1.392 6.389a7.7 7.7 0 0 1-3.012 2.816h1.592a1.5 1.5 0 1 1 .002.998H15v2H9v-2H6.912a1.5 1.5 0 1 1 .002-.998h1.434a7.57 7.57 0 0 1-2.98-2.822C4.14 10.112 3.78 7.647 4.061 5.79a.5.5 0 1 1 .987.15c-.243 1.594.088 3.896 1.178 5.732.65 1.096 1.555 2.026 2.773 2.603V12h6v2.193c1.146-.582 2.016-1.476 2.652-2.525 1.115-1.838 1.476-4.142 1.258-5.736a.5.5 0 0 1 .48-.588M5.5 16a.5.5 0 1 0 0-1 .5.5 0 0 0 0 1m13 0a.5.5 0 1 0 0-1 .5.5 0 0 0 0 1m-6.582-.219 2.114-1.1v-1.69h-4.016v1.781zm-1.889.224v1.02h3.967v-1.041h-.307l-1.76.89-1.73-.87z"/></svg>