<svg xmlns="http://www.w3.org/2000/svg" xmlns:xlink="http://www.w3.org/1999/xlink" viewBox="0 0 48 48"><defs><linearGradient id="a" x1="90.7%" x2="35.327%" y1="6.565%" y2="64.144%"><stop offset="0%" stop-color="#93def2"/><stop offset="100%" stop-color="#5abadf"/></linearGradient></defs><g fill="none" fill-rule="evenodd"><path fill="#5abadf" d="M5 7.998A3 3 0 0 1 7.998 5H31.02L43 17.02v22.974A3.01 3.01 0 0 1 40.002 43H7.998A3.004 3.004 0 0 1 5 40.002z"/><path fill="url(#a)" d="m31 5 12 12V7.997A2.997 2.997 0 0 0 40.003 5z" transform="matrix(-1 0 0 -1 74 22)"/><path fill="#fff" d="M18.297 21.426q0-1.113.715-2.256t2.086-1.893 3.199-.75q1.7 0 3 .627t2.01 1.705.709 2.344q0 .996-.405 1.746t-.96 1.295q-.558.545-1.999 1.834a8 8 0 0 0-.638.639q-.24.275-.358.504a2.5 2.5 0 0 0-.181.457q-.065.228-.194.802-.222 1.22-1.394 1.22-.61 0-1.026-.4-.416-.398-.416-1.183 0-.984.305-1.705.305-.72.809-1.266.504-.544 1.359-1.294.75-.657 1.084-.99.334-.334.562-.745a1.8 1.8 0 0 0 .229-.89 2.07 2.07 0 0 0-.697-1.582q-.697-.645-1.8-.645-1.288 0-1.898.65-.61.651-1.03 1.916-.399 1.325-1.513 1.325-.655 0-1.107-.463-.45-.463-.451-1.002m5.719 12.844q-.715 0-1.248-.463-.534-.463-.534-1.295 0-.739.516-1.242a1.74 1.74 0 0 1 1.266-.504q.738 0 1.242.504.504.503.504 1.242 0 .82-.528 1.289a1.78 1.78 0 0 1-1.218.469"/></g></svg>