<svg xmlns="http://www.w3.org/2000/svg" xmlns:xlink="http://www.w3.org/1999/xlink" viewBox="0 0 32 32"><defs><filter id="a" width="1.257" height="1.257" x="-.128" y="-.128" color-interpolation-filters="sRGB"><feGaussianBlur stdDeviation="1.177"/></filter></defs><path d="M16.075 5.938c-6.075 0-11 4.925-11 11s4.925 11 11 11 11-4.925 11-11-4.925-11-11-11" color="#000" enable-background="accumulate" filter="url(#a)" font-family="Sans" font-weight="400" opacity=".2" overflow="visible" style="line-height:normal;-inkscape-font-specification:Sans;text-indent:0;text-align:start;text-decoration-line:none;text-transform:none;marker:none"/><circle cx="16" cy="16" r="11" fill="#ed1515"/><path fill="#fff" d="M9.636 9.636a9 9 0 0 0 0 12.728 9 9 0 0 0 12.728 0 9 9 0 0 0 0-12.728 9 9 0 0 0-12.728 0m1.414 1.414a7 7 0 0 1 9.137-.652L10.4 20.186a7 7 0 0 1 .65-9.136m.763 10.552 9.787-9.788a7 7 0 0 1-.65 9.136 7 7 0 0 1-9.137.652"/></svg>