<svg xmlns="http://www.w3.org/2000/svg" viewBox="0 0 16 16"><path fill="#fff" d="m8.976 12 1.222 1.314a2.63 2.63 0 0 1-2.442 1.687c-1.45 0-2.625-1.194-2.625-2.667q0-.17.02-.333zM2.729 2.342l10.296 11.077a.5.5 0 1 1-.732.68L1.997 3.024a.5.5 0 0 1 .732-.681m.788 3.784.832.895c-.24.975-.61 1.924-1.106 2.827l-.091.159h3.972l.929 1H2.256a.5.5 0 0 1-.454-.71l.05-.085q.277-.414.514-.845a10.6 10.6 0 0 0 1.151-3.241m4.498-5.119c1.997 0 3.702 1.64 3.823 3.667l.015.265a10.5 10.5 0 0 0 1.298 4.438q.156.285.33.559l.187.288a.5.5 0 0 1-.412.783h-1.138l-.947-1h1.188l-.084-.147a11.5 11.5 0 0 1-1.39-4.473l-.03-.389-.016-.264c-.09-1.504-1.36-2.727-2.824-2.727h-.519c-1.039 0-1.981.616-2.472 1.512l-.713-.753c.694-1.055 1.877-1.759 3.185-1.759z"/></svg>