<svg xmlns="http://www.w3.org/2000/svg" xmlns:xlink="http://www.w3.org/1999/xlink" viewBox="0 0 48 48"><defs><linearGradient id="b" x1="50%" x2="50%" y1=".951%" y2="98.321%"><stop offset="0%" stop-color="#4bf9ac"/><stop offset="100%" stop-color="#15af6f"/></linearGradient><linearGradient id="c" x1="50%" x2="50%" y1="0%" y2="100%"><stop offset="0%" stop-opacity=".05"/><stop offset="100%" stop-opacity=".1"/></linearGradient><filter id="a" width="115.9%" height="115.9%" x="-8%" y="-5.7%" filterUnits="objectBoundingBox"><feOffset dy="1" in="SourceAlpha" result="shadowOffsetOuter1"/><feGaussianBlur in="shadowOffsetOuter1" result="shadowBlurOuter1" stdDeviation="1"/><feColorMatrix in="shadowBlurOuter1" result="shadowMatrixOuter1" values="0 0 0 0 0 0 0 0 0 0 0 0 0 0 0 0 0 0 0.2 0"/><feMerge><feMergeNode in="shadowMatrixOuter1"/><feMergeNode in="SourceGraphic"/></feMerge></filter></defs><g fill="none" filter="url(#a)" transform="translate(2 2)"><circle cx="22" cy="22" r="22" fill="url(#b)"/><path fill="url(#c)" d="M22 0c12.15 0 22 9.85 22 22s-9.85 22-22 22S0 34.15 0 22 9.85 0 22 0m0 1C10.402 1 1 10.402 1 22s9.402 21 21 21 21-9.402 21-21S33.598 1 22 1"/><g fill="#fff"><path d="M22.005 31.774c-5.937 0-10.75-4.813-10.75-10.75l.001-.012h2.735l-3.49-4-3.495 4h2.5l-.001.012c0 6.904 5.596 12.5 12.5 12.5 3.489 0 6.642-1.433 8.909-3.739l-1.152-1.331a10.7 10.7 0 0 1-7.757 3.32m15.002-10.762h-2.503c-.006-6.898-5.6-12.488-12.499-12.488a12.46 12.46 0 0 0-8.916 3.746l1.152 1.331a10.7 10.7 0 0 1 7.763-3.327c5.933 0 10.743 4.807 10.749 10.738H30.03l3.436 3.998zm-30.153-.098v-.003l-.002.003z"/><path d="M26.523 27.536a1 1 0 0 1-.707-.293l-5.523-5.524a1 1 0 0 1-.293-.707v-6.939a1 1 0 1 1 2 0v6.525l5.23 5.231a.999.999 0 0 1-.707 1.707"/></g></g></svg>