<svg xmlns="http://www.w3.org/2000/svg" viewBox="0 0 16 16"><path d="M8.26 1.007c1.997 0 3.701 1.64 3.822 3.667l.016.265c.091 1.538.53 3.047 1.297 4.438q.156.285.33.559l.187.288a.5.5 0 0 1-.412.783h-11a.5.5 0 0 1-.454-.71l.05-.085q.278-.414.515-.845a10.5 10.5 0 0 0 1.291-4.428l.016-.265c.12-2.027 1.825-3.667 3.823-3.667zm0 1h-.52c-1.463 0-2.734 1.223-2.824 2.727l-.016.264a11.5 11.5 0 0 1-1.413 4.85l-.091.159h9.207l-.084-.147a11.5 11.5 0 0 1-1.39-4.473l-.03-.389-.015-.264c-.09-1.504-1.361-2.727-2.825-2.727M10.604 12q.02.165.02.334c0 1.473-1.175 2.667-2.625 2.667s-2.625-1.194-2.625-2.667q0-.17.02-.334z"/></svg>