<svg xmlns="http://www.w3.org/2000/svg" xmlns:xlink="http://www.w3.org/1999/xlink" viewBox="0 0 48 48"><defs><linearGradient id="b" x1="50%" x2="50%" y1=".858%" y2="100%"><stop offset="0%" stop-color="#65deff"/><stop offset="100%" stop-color="#0058d2"/></linearGradient><linearGradient id="c" x1="50%" x2="50%" y1="0%" y2="100%"><stop offset="0%" stop-opacity=".05"/><stop offset="100%" stop-opacity=".1"/></linearGradient><filter id="a" width="115.9%" height="115.9%" x="-8%" y="-5.7%" filterUnits="objectBoundingBox"><feOffset dy="1" in="SourceAlpha" result="shadowOffsetOuter1"/><feGaussianBlur in="shadowOffsetOuter1" result="shadowBlurOuter1" stdDeviation="1"/><feColorMatrix in="shadowBlurOuter1" result="shadowMatrixOuter1" values="0 0 0 0 0 0 0 0 0 0 0 0 0 0 0 0 0 0 0.2 0"/><feMerge><feMergeNode in="shadowMatrixOuter1"/><feMergeNode in="SourceGraphic"/></feMerge></filter></defs><g fill="none" filter="url(#a)" transform="translate(2 2)"><circle cx="22" cy="22" r="22" fill="url(#b)"/><path fill="url(#c)" d="M22 0c12.15 0 22 9.85 22 22s-9.85 22-22 22S0 34.15 0 22 9.85 0 22 0m0 1C10.402 1 1 10.402 1 22s9.402 21 21 21 21-9.402 21-21S33.598 1 22 1"/><path fill="#fff" d="M17.195 11.7c2.386-1.38 7.553-1.772 8.679.425 5.47.385 3.392 7.53 2.666 8.912 1.255.679.585 3.72-.656 3.72-.199.872-1.115 3.311-2.01 3.893 0 .815-.713 3.605 2.666 4.647q2.485.765 5.505 2.205A18.02 18.02 0 0 1 22 40.095a18.03 18.03 0 0 1-12.092-4.633q3.165-1.31 5.417-2.165c2.999-1.139 2.474-3.533 2.474-4.647-.405-.48-1.955-1.977-1.955-3.894-1.897-.246-1.897-3.358-.764-3.72-1.924-3.605-.272-7.955 2.115-9.335"/></g></svg>