<svg xmlns="http://www.w3.org/2000/svg" xmlns:xlink="http://www.w3.org/1999/xlink" viewBox="0 0 48 48"><defs><linearGradient id="b" x1="50%" x2="50%" y1="0%" y2="100%"><stop offset="0%" stop-color="#fada00"/><stop offset="100%" stop-color="#f38c00"/></linearGradient><linearGradient id="c" x1="50%" x2="50%" y1="0%" y2="100%"><stop offset="0%" stop-opacity=".05"/><stop offset="100%" stop-opacity=".1"/></linearGradient><filter id="a" width="115.9%" height="115.9%" x="-8%" y="-5.7%" filterUnits="objectBoundingBox"><feOffset dy="1" in="SourceAlpha" result="shadowOffsetOuter1"/><feGaussianBlur in="shadowOffsetOuter1" result="shadowBlurOuter1" stdDeviation="1"/><feColorMatrix in="shadowBlurOuter1" result="shadowMatrixOuter1" values="0 0 0 0 0 0 0 0 0 0 0 0 0 0 0 0 0 0 0.2 0"/><feMerge><feMergeNode in="shadowMatrixOuter1"/><feMergeNode in="SourceGraphic"/></feMerge></filter></defs><g fill="none" fill-rule="evenodd"><g fill-rule="nonzero" filter="url(#a)" transform="translate(2 2)"><circle cx="22" cy="22" r="22" fill="url(#b)"/><path fill="#fff" d="M30 18h-2v-3.04C28 11.618 25.396 9 22.072 9h-.127C18.667 9 16 11.674 16 14.96V18h-2a1 1 0 0 0-1 1v11a1 1 0 0 0 1 1h16a1 1 0 0 0 1-1V19a1 1 0 0 0-1-1m-12-3.04c0-2.479 2.006-3.96 3.945-3.96h.127C24.003 11 26 12.481 26 14.96V18h-8z"/><path fill="url(#c)" d="M22 0c12.15 0 22 9.85 22 22s-9.85 22-22 22S0 34.15 0 22 9.85 0 22 0m0 1C10.402 1 1 10.402 1 22s9.402 21 21 21 21-9.402 21-21S33.598 1 22 1"/></g><path fill="#f7b200" d="m21.22 26.66 2.262 2.133L26.985 25 31 31H17.976z"/><circle cx="20.5" cy="23.5" r="1.5" fill="#f7b200"/></g></svg>