<svg xmlns="http://www.w3.org/2000/svg" viewBox="0 0 22 22"><path fill="currentColor" d="M10.418 4a6 6 0 0 0-1.738.24c-.833.33-1.517.633-.739 1.043a14.6 14.6 0 0 1 4.069 3.154 15.3 15.3 0 0 1 2.29 3.354A5 5 0 0 1 17 11a5 5 0 0 1 .932.09c-.179-1.571-.82-3.239-2.037-4.586C14.386 4.834 12.32 4.007 10.418 4m7.406.006a2 2 0 0 0-.658.07c-.498.142-.978.508-1.445.897.318.264.629.543.916.861.11.123.21.252.312.379a2 2 0 0 1 .405-.145c.358-.081.967.15 1.25.252.375.007.449-.56.365-.959-.099-.467-.406-.799-.598-1.113a.87.87 0 0 0-.547-.242M7.25 6.023c-.044.033-.087.059-.13.092-3.311 2.512-5.165 8.063-3.495 10.03 1.616 1.903 5.495 2.347 8.59 1.293A5 5 0 0 1 12 16a5 5 0 0 1 1.5-3.57 14.3 14.3 0 0 0-2.232-3.323 13.6 13.6 0 0 0-3.79-2.937h-.001l-.002-.002c-.074-.04-.15-.098-.225-.145" color="#d3dae3"/><path fill="currentColor" d="M17.28 12.01a3.999 3.999 0 1 0-.56 7.98 3.999 3.999 0 0 0 .56-7.98M15 14h.707l.232.232L17 15.293l1.06-1.06.233-.233H19v.707l-.232.232L17.707 16l1.06 1.06.233.233V18h-.707l-.232-.232L17 16.707l-1.06 1.06-.233.233H15v-.707l.232-.232L16.293 16l-1.06-1.06-.233-.233z" color="#4285f4"/></svg>