<svg xmlns="http://www.w3.org/2000/svg" viewBox="0 0 22 22"><path fill="currentColor" d="M10.418 4a6 6 0 0 0-1.739.24c-.832.33-1.516.633-.738 1.043a14.6 14.6 0 0 1 4.068 3.155c1.915 2.12 3.102 4.659 3.647 7.164.154.866.904.099 1.211-.219 1.681-1.747 1.597-6.033-.973-8.879C14.386 4.834 12.32 4.008 10.418 4m7.406.006a2 2 0 0 0-.658.07c-.498.142-.979.508-1.446.897.32.264.63.543.917.861.11.123.21.252.312.38.12-.058.25-.11.404-.145.359-.082.968.15 1.25.252.376.006.45-.56.366-.96-.099-.467-.406-.799-.598-1.113a.87.87 0 0 0-.547-.242M7.25 6.024c-.043.032-.087.058-.13.092-3.31 2.511-5.164 8.063-3.495 10.029 1.944 2.289 7.167 2.475 10.354.47.275-.172.526-.361.766-.56a2 2 0 0 1-.072-.28l.007.038c-.51-2.347-1.626-4.728-3.412-6.705a13.6 13.6 0 0 0-3.79-2.938h-.002l-.002-.002c-.074-.039-.149-.098-.225-.144" color="#d3dae3"/></svg>