<svg xmlns="http://www.w3.org/2000/svg" viewBox="0 0 64 64"><rect width="56" height="56" x="4" y="5" opacity=".2" rx="8" ry="8"/><rect width="56" height="56" x="4" y="4" fill="#e4e4e4" rx="8" ry="8"/><rect width="41" height="41" x="11.5" y="12.5" fill="none" stroke="#000" stroke-width="3" opacity=".2" rx="6.2" ry="6.2"/><rect width="41" height="41" x="11.5" y="11.5" fill="none" stroke="#4e4e4e" stroke-width="3" rx="6.2" ry="6.2"/><path fill="none" stroke="#000" stroke-linecap="round" stroke-linejoin="round" stroke-width="3" d="M20.5 42.5v-19l10 19v-19l6.5 19 6.5-19" opacity=".2"/><path fill="none" stroke="#a867c0" stroke-linecap="round" stroke-linejoin="round" stroke-width="3" d="M20.5 41.5v-19l10 19v-19l6.5 19 6.5-19"/><path fill="#fff" d="M12 4c-4.432 0-8 3.568-8 8v1c0-4.432 3.568-8 8-8h40c4.432 0 8 3.568 8 8v-1c0-4.432-3.568-8-8-8z" opacity=".2"/></svg>