<svg xmlns="http://www.w3.org/2000/svg" viewBox="0 0 64 64"><g transform="translate(0 -280.067)"><rect width="53" height="53" x="5" y="285.07" fill="#3f3f3f" rx="1.71" ry="1.606"/><path d="M4.416 284.067c-.785 0-1.416.63-1.416 1.416v14.168c0 .784.631 1.416 1.416 1.416h14.168c.785 0 1.416-.632 1.416-1.416v-14.168c0-.785-.631-1.416-1.416-1.416zm20 0c-.785 0-1.416.63-1.416 1.416v14.168c0 .784.631 1.416 1.416 1.416h14.168c.785 0 1.416-.632 1.416-1.416v-14.168c0-.785-.631-1.416-1.416-1.416zm20 0c-.785 0-1.416.63-1.416 1.416v14.168c0 .784.631 1.416 1.416 1.416h14.168c.785 0 1.416-.632 1.416-1.416v-14.168c0-.785-.631-1.416-1.416-1.416zm-40 20c-.785 0-1.416.63-1.416 1.416v14.168c0 .784.631 1.416 1.416 1.416h14.168c.785 0 1.416-.632 1.416-1.416v-14.168c0-.785-.631-1.416-1.416-1.416zm20 0c-.785 0-1.416.63-1.416 1.416v14.168c0 .784.631 1.416 1.416 1.416h14.168c.785 0 1.416-.632 1.416-1.416v-14.168c0-.785-.631-1.416-1.416-1.416zm20 0c-.785 0-1.416.63-1.416 1.416v14.168c0 .784.631 1.416 1.416 1.416h14.168c.785 0 1.416-.632 1.416-1.416v-14.168c0-.785-.631-1.416-1.416-1.416zm-40 20c-.785 0-1.416.63-1.416 1.416v14.168c0 .784.631 1.416 1.416 1.416h14.168c.785 0 1.416-.632 1.416-1.416v-14.168c0-.785-.631-1.416-1.416-1.416zm20 0c-.785 0-1.416.63-1.416 1.416v14.168c0 .784.631 1.416 1.416 1.416h14.168c.785 0 1.416-.632 1.416-1.416v-14.168c0-.785-.631-1.416-1.416-1.416zm20 0c-.785 0-1.416.63-1.416 1.416v14.168c0 .784.631 1.416 1.416 1.416h14.168c.785 0 1.416-.632 1.416-1.416v-14.168c0-.785-.631-1.416-1.416-1.416z" opacity=".2"/><path fill="#b7e267" d="M4.417 283.067c-.785 0-1.417.632-1.417 1.416v14.167c0 .785.632 1.417 1.417 1.417h14.166c.785 0 1.417-.632 1.417-1.417v-14.167c0-.784-.632-1.416-1.417-1.416z"/><path fill="#3bd3e0" d="M24.417 283.067c-.785 0-1.417.632-1.417 1.416v14.167c0 .785.632 1.417 1.417 1.417h14.166c.785 0 1.417-.632 1.417-1.417v-14.167c0-.784-.632-1.416-1.417-1.416zm20 0c-.785 0-1.417.632-1.417 1.416v14.167c0 .785.632 1.417 1.417 1.417h14.166c.785 0 1.417-.632 1.417-1.417v-14.167c0-.784-.632-1.416-1.417-1.416z"/><path fill="#b7e267" d="M4.417 303.067c-.785 0-1.417.631-1.417 1.416v14.167c0 .785.632 1.417 1.417 1.417h14.166c.785 0 1.417-.632 1.417-1.417v-14.167c0-.785-.632-1.416-1.417-1.416z"/><path fill="#509b1e" d="M24.417 303.067c-.785 0-1.417.631-1.417 1.416v14.167c0 .785.632 1.417 1.417 1.417h14.166c.785 0 1.417-.632 1.417-1.417v-14.167c0-.785-.632-1.416-1.417-1.416z"/><path fill="#3bd3e0" d="M44.417 303.067c-.785 0-1.417.631-1.417 1.416v14.167c0 .785.632 1.417 1.417 1.417h14.166c.785 0 1.417-.632 1.417-1.417v-14.167c0-.785-.632-1.416-1.417-1.416z"/><path fill="#509b1e" d="M4.417 323.067c-.785 0-1.417.631-1.417 1.416v14.167c0 .785.632 1.417 1.417 1.417h14.166c.785 0 1.417-.632 1.417-1.417v-14.167c0-.785-.632-1.416-1.417-1.416z"/><path fill="#007aa0" d="M24.417 323.067c-.785 0-1.417.631-1.417 1.416v14.167c0 .785.632 1.417 1.417 1.417h14.166c.785 0 1.417-.632 1.417-1.417v-14.167c0-.785-.632-1.416-1.417-1.416zm20 0c-.785 0-1.417.631-1.417 1.416v14.167c0 .785.632 1.417 1.417 1.417h14.166c.785 0 1.417-.632 1.417-1.417v-14.167c0-.785-.632-1.416-1.417-1.416z"/><path fill="#fff" d="M4.416 283.067c-.785 0-1.416.631-1.416 1.416v1c0-.785.631-1.416 1.416-1.416h14.168c.785 0 1.416.631 1.416 1.416v-1c0-.785-.631-1.416-1.416-1.416zm20 0c-.785 0-1.416.631-1.416 1.416v1c0-.785.631-1.416 1.416-1.416h14.168c.785 0 1.416.631 1.416 1.416v-1c0-.785-.631-1.416-1.416-1.416zm20 0c-.785 0-1.416.631-1.416 1.416v1c0-.785.631-1.416 1.416-1.416h14.168c.785 0 1.416.631 1.416 1.416v-1c0-.785-.631-1.416-1.416-1.416zm-40 20c-.785 0-1.416.631-1.416 1.416v1c0-.785.631-1.416 1.416-1.416h14.168c.785 0 1.416.631 1.416 1.416v-1c0-.785-.631-1.416-1.416-1.416zm20 0c-.785 0-1.416.631-1.416 1.416v1c0-.785.631-1.416 1.416-1.416h14.168c.785 0 1.416.631 1.416 1.416v-1c0-.785-.631-1.416-1.416-1.416zm20 0c-.785 0-1.416.631-1.416 1.416v1c0-.785.631-1.416 1.416-1.416h14.168c.785 0 1.416.631 1.416 1.416v-1c0-.785-.631-1.416-1.416-1.416zm-40 20c-.785 0-1.416.631-1.416 1.416v1c0-.785.631-1.416 1.416-1.416h14.168c.785 0 1.416.631 1.416 1.416v-1c0-.785-.631-1.416-1.416-1.416zm20 0c-.785 0-1.416.631-1.416 1.416v1c0-.785.631-1.416 1.416-1.416h14.168c.785 0 1.416.631 1.416 1.416v-1c0-.785-.631-1.416-1.416-1.416zm20 0c-.785 0-1.416.631-1.416 1.416v1c0-.785.631-1.416 1.416-1.416h14.168c.785 0 1.416.631 1.416 1.416v-1c0-.785-.631-1.416-1.416-1.416z" opacity=".2"/></g></svg>