<svg xmlns="http://www.w3.org/2000/svg" viewBox="0 0 16 16"><path fill="#e44f31" d="M1 7.13V3.735A1.75 1.75 0 0 1 2.764 2h10.472A1.75 1.75 0 0 1 15 3.735V14H9.189a10 10 0 0 1-.459-1.485 2 2 0 0 0-.022-.371 1 1 0 0 0-.159-.2 1.8 1.8 0 0 1-.279-.775c-.011-.242-.1-.463-.115-.7-.005-.116.008-.237 0-.35a1 1 0 0 0-.036-.266l.03-.075a1.2 1.2 0 0 1 .351-.015c.139 0 .271.008.41.016a4 4 0 0 0 .818-.032A2.1 2.1 0 0 0 10.77 9.3a2.6 2.6 0 0 0 .823-1.057 1.85 1.85 0 0 1 .293-.734 3.7 3.7 0 0 1 .9-.3.64.64 0 0 1 .435-.073c.12.024.336.161.386-.03a.3.3 0 0 1-.077-.1c.224-.022.006-.53-.085-.632a1.17 1.17 0 0 0-.6-.291 1.9 1.9 0 0 0-.818-.11 1.33 1.33 0 0 1-.716-.175 1.11 1.11 0 0 0-1.031.336.7.7 0 0 1-.18.269.9.9 0 0 0-.025.3c-.036.116-.09.519-.148.662a.69.69 0 0 1-.418.538 1.6 1.6 0 0 1-.763-.04c-.142-.051-.383-.132-.5-.18A1.07 1.07 0 0 1 7.6 7.21c-.06-.1-.64-1.286-.725-1.49a1.6 1.6 0 0 0-.375-.562.73.73 0 0 0-.675-.315.9.9 0 0 0-.459.164 2.2 2.2 0 0 0-.263.465c-.063.1-.172.377-.273.608a1 1 0 0 1-.178.342.26.26 0 0 1-.39-.022 6 6 0 0 1-.374-.6c-.375-.64-.522-.928-.952-.931-.547 0-.588.3-.829.74A3.07 3.07 0 0 1 1 7.13m0 3.93V14h2.713s.219-.831.268-1a3 3 0 0 0 .119-.366 1.4 1.4 0 0 0-.014-.361 1.2 1.2 0 0 1 .328-.637c.1-.223.164-.476.249-.7a1.16 1.16 0 0 1 .432-.637 5 5 0 0 0-.574-.056 11 11 0 0 1-1.091-.2 7 7 0 0 1-.71-.243 1.8 1.8 0 0 0-.58-.37.41.41 0 0 0-.306.175 3 3 0 0 0-.123.371 2.3 2.3 0 0 1-.205.369A5 5 0 0 0 1 11.06m7.544 2.491c-.052-.108-.118-.317-.161-.412a2.6 2.6 0 0 0-.23-.385.6.6 0 0 1-.211-.369 6.5 6.5 0 0 0-.473-1.409A2.2 2.2 0 0 0 7 10.4a1.9 1.9 0 0 0-.547-.371 1.7 1.7 0 0 0-.982 1.063 6 6 0 0 0-.41.681 2.2 2.2 0 0 1-.273.678 1.9 1.9 0 0 0-.394.675c-.02.051-.176.874-.176.874h4.5l-.008-.019a5 5 0 0 0-.166-.43" data-iconColor="OCaml"/></svg>