<svg xmlns="http://www.w3.org/2000/svg" viewBox="0 0 24 24"><path fill="#536076" d="M11.5 6a.499.499 0 1 0 0 1 .499.499 0 1 0 0-1m-5 1a.499.499 0 1 0 0 1 .499.499 0 1 0 0-1M11 7v4a1.99 1.99 0 0 0-1.557.754L6.314 9.25A5.98 5.98 0 0 1 11 7m-1 1.107q-1.278.309-2.164 1.034.01.006 1.612 1.309l.553-.312zm1 .393a.499.499 0 1 0 1 0 .499.499 0 1 0-1 0m0 2a.499.499 0 1 0 1 0 .499.499 0 1 0-1 0m2.345.636q.23.291.382.632l3.083-.257a5.97 5.97 0 0 0-1.827-2.998zm1.364-4.072a6.97 6.97 0 0 1 3.262 5.354l-4.989.416a1.99 1.99 0 0 0-.923-1.527zM7.5 12a.499.499 0 1 0 0 1 .499.499 0 1 0 0-1m2 0a.499.499 0 1 0 0 1 .499.499 0 1 0 0-1m2 0a.499.499 0 1 0 0 1 .499.499 0 1 0 0-1m0 2a.499.499 0 1 0 0 1 .499.499 0 1 0 0-1m2 0a.499.499 0 1 0 0 1 .499.499 0 1 0 0-1m-3.916.416c.361.362.862.584 1.416.584v3a5 5 0 0 1-3.54-1.46zm.114 1.305q-.735.732-.73.733.45.268 1.03.408v-1.034zM11 16.5a.499.499 0 1 0 1 0 .499.499 0 1 0-1 0m4.5-.5a.499.499 0 1 0 0 1 .499.499 0 1 0 0-1"/></svg>