<svg xmlns="http://www.w3.org/2000/svg" viewBox="0 0 24 24"><g fill="none"><path fill="#536076" d="M6 6v2.996h-.992v.01H6V18h12v-1H7V9.006h4.469l-3 3H7.008v1h1.875l4.123-4.123 2.123 2.123.006-.004.004.004 2.828-2.828c.003.005-.707-.707-.707-.707l-2.125 2.125-2.127-2.125-.002.002-.002-.002-1.527 1.525H7V6z"/><path fill="#536076" d="m11.6 13-2 2H7.006v1h3v-.008l.008.008 2-2h1.591l2 2h2.401v-1H16.02l-2-2h-1.415z"/><path fill="#000" d="m17.46 7.67-2.32 2.331-.004-.004-.006.004-2.123-2.123-4.123 4.123H7.009v5h11V8.223z" opacity=".3"/></g></svg>