<svg xmlns="http://www.w3.org/2000/svg" viewBox="0 0 24 24"><g fill="none"><path fill="#536076" d="M6 6v12h12v-1H7v-1h3.006v-.008l.008.008 2-2h1.591l2 2h2.4v-1H16.02l-2-2H11.6l-2 2H7v-2.004h2v-.008l.008.008.996-.996H12v-1h-1v-1h-1v1.996l-.703-.703-.703.703H7V6zm4 0v2h1V7h1V6zm4 0v1h1v1h1V6zm-1 1.59-1.703 1.703.707.707.996-.996.996.996.707-.707zM15 10v1h-1v1h2v-2zm3 0-1 1h1z"/><path fill="#000" d="m13 9-1.996 2H12v1h-1.994l-.998 1h-3.01v4h5l2-.008 5 .008v-6h-2v1h-2v-1h1z" opacity=".3"/></g></svg>