<svg xmlns="http://www.w3.org/2000/svg" viewBox="0 0 64 64"><rect width="56" height="56" x="4" y="5" opacity=".2" rx="14" ry="14"/><rect width="56" height="56" x="4" y="4" fill="#9f6ce4" rx="14" ry="14"/><path d="M24 29a4 4.125 0 0 0-4 4.125v13.75A4 4.125 0 0 0 24 51a4 4.125 0 0 0 4-4.125v-13.75A4 4.125 0 0 0 24 29m16 0a4 4.125 0 0 0-4 4.125v13.75A4 4.125 0 0 0 40 51a4 4.125 0 0 0 4-4.125v-13.75A4 4.125 0 0 0 40 29" opacity=".1"/><path d="M32 15c-9.941 0-18 8.137-18 18.078V40a6 6 0 0 0 6 6V34a6 6 0 0 0-2 .355v-1.277C18 25.431 24.353 19 32 19s14 6.431 14 14.078v1.266A6 6 0 0 0 44 34v12a6 6 0 0 0 6-6v-6.922C50 23.137 41.941 15 32 15" opacity=".2"/><path fill="#fff" d="M32 14c-9.941 0-18 8.136-18 18.077V39h4v-6.923C18 24.43 24.353 18 32 18s14 6.43 14 14.077V39h4v-6.923C50 22.136 41.941 14 32 14"/><path fill="#f9bb0e" d="M20 33a6 6 0 0 0-6 6 6 6 0 0 0 6 6z"/><path fill="#4c2d8a" d="M24 28a4 4.125 0 0 0-4 4.125v13.75A4 4.125 0 0 0 24 50Z"/><path fill="#6a44bc" d="M24 28v22a4 4.125 0 0 0 4-4.125v-13.75A4 4.125 0 0 0 24 28"/><path fill="#4c2d8a" d="M40 28a4 4.125 0 0 1 4 4.125v13.75A4 4.125 0 0 1 40 50Z"/><path fill="#6a44bc" d="M40 28v22a4 4.125 0 0 1-4-4.125v-13.75A4 4.125 0 0 1 40 28"/><path fill="#f9bb0e" d="M44 33a6 6 0 0 1 6 6 6 6 0 0 1-6 6z"/><path fill="#fff" d="M18 4C10.244 4 4 10.244 4 18v1c0-7.756 6.244-14 14-14h28c7.756 0 14 6.244 14 14v-1c0-7.756-6.244-14-14-14z" opacity=".2"/></svg>