<svg xmlns="http://www.w3.org/2000/svg" viewBox="0 0 16 16"><path fill="currentColor" d="M3 1.002c-1.108 0-2 .892-2 2v10c0 1.108.892 2 2 2h10c1.108 0 2-.892 2-2v-10c0-1.108-.892-2-2-2zm2.496 1.967q1.17 0 1.832.67.663.668.662 1.847 0 1.177-.662 1.846-.663.67-1.832.67-1.168 0-1.834-.67Q2.999 6.663 3 5.486q0-1.179.662-1.847.667-.67 1.834-.67m0 .906q-.572 0-.887.422t-.316 1.19q0 .763.316 1.187.315.422.887.422.575 0 .89-.422.315-.424.315-1.188 0-.765-.314-1.19-.315-.42-.89-.421zM9.064 7.15h1.879q1.01 0 1.461.305.456.306.455.979 0 .354-.166.605a.97.97 0 0 1-.48.367q.404.117.625.432t.221.773q0 .703-.475 1.047-.475.345-1.443.344H9.064zm1.252.852v1.027h.692q.295 0 .447-.131.153-.129.154-.382 0-.251-.154-.381-.152-.133-.447-.133zm-.002 1.879v1.269h.735q.377 0 .566-.158.192-.16.192-.482 0-.315-.188-.471-.19-.158-.57-.158z" color="#d3dae3"/></svg>