<svg xmlns="http://www.w3.org/2000/svg" viewBox="0 0 24 24"><path fill="#f6901f" d="M2.222 3.198v5.667c.255-.092.621-.635.736-.766.201-.23.237-.525.338-.71.227-.422.267-.712.785-.712.241 0 .337.056.5.275.114.152.31.434.402.622.106.217.28.511.355.57a.6.6 0 0 0 .164.097c.084.032.154-.026.21-.07.072-.058.103-.174.17-.33.095-.224.2-.492.259-.586.102-.161.137-.354.248-.447.164-.137.377-.147.436-.158.329-.065.478.158.64.303.106.094.25.285.354.54.08.2.182.384.225.5.041.11.143.289.204.502.055.194.202.343.258.435 0 0 .085.24.605.459.113.047.34.124.476.174.226.082.445.071.724.038.198 0 .306-.288.396-.518.054-.136.105-.526.14-.637.033-.108-.046-.191.021-.286.08-.11.126-.116.171-.26.098-.307.66-.323.977-.323.264 0 .23.256.678.169.256-.05.504.033.776.105.229.06.444.13.573.281.084.098.291.588.08.61.02.024.035.069.073.093-.047.185-.252.054-.365.03-.154-.032-.262.005-.412.071-.256.114-.631.1-.854.287-.19.157-.19.51-.278.707 0 0-.245.631-.781 1.017-.137.1-.405.337-.989.428a3.7 3.7 0 0 1-.775.03c-.132-.006-.256-.013-.388-.015-.077 0-.338-.009-.325.016l-.03.073.017.097c.011.059.014.106.016.16.004.11-.009.225-.003.337.011.231.097.442.108.676.012.26.14.535.265.747.047.081.12.09.15.19.037.114.003.235.02.357a4.7 4.7 0 0 0 .424 1.4c.262-.044.524-.138.865-.189.625-.092 1.493-.045 2.05-.097 1.413-.133 2.179.58 3.447.288V3.198zm1.141 7.866-.033.002c-.112.018-.22.056-.29.17-.057.092-.076.25-.116.356-.045.123-.124.239-.193.356-.128.216-.356.41-.455.62q-.03.067-.054.142v2.401c.115.02.235.044.37.08.993.265 1.236.287 2.21.176l.091-.012c.075-.155.132-.684.18-.847.038-.126.09-.226.11-.354.018-.121-.002-.237-.013-.347-.027-.277.202-.376.311-.614.099-.215.156-.46.237-.68.079-.21.2-.509.409-.615-.025-.03-.435-.043-.544-.054a4 4 0 0 1-.354-.05c-.221-.045-.463-.088-.68-.14a7 7 0 0 1-.67-.233c-.21-.097-.354-.35-.516-.357m4.05.586c-.523.105-.686.618-.932 1.024-.136.225-.28.416-.387.655-.1.22-.09.464-.26.652a1.8 1.8 0 0 0-.372.65c-.016.048-.062.549-.112.667l.777-.055c.724.05.515.327 1.646.266l1.785-.055a5 5 0 0 0-.16-.415c-.05-.103-.113-.306-.155-.395a2.4 2.4 0 0 0-.218-.37c-.13-.153-.16-.164-.198-.356a6.4 6.4 0 0 0-.449-1.358c-.107-.215-.284-.397-.447-.553-.142-.137-.462-.368-.518-.357m10.365-4.848v2h2v10h-10v-2h-2v4h14v-14Z" data-iconColor="Opam"/></svg>