<svg xmlns="http://www.w3.org/2000/svg" viewBox="0 0 64 64"><circle cx="32" cy="33" r="28" opacity=".2"/><circle cx="32" cy="32" r="28" fill="#4bae4f"/><path d="M20 43h24V23H20Zm2-18h9v4h-9zm11 0h9v4h-9zm-11 6h9v4h-9zm11 0h9v4h-9zm-11 6h9v4h-9zm11 0h9v4h-9z" opacity=".2"/><path fill="#fff" d="M20 42h24V22H20Zm2-18h9v4h-9zm11 0h9v4h-9zm-11 6h9v4h-9zm11 0h9v4h-9zm-11 6h9v4h-9zm11 0h9v4h-9z"/><path fill="#fff" d="M32 4A28 28 0 0 0 4 32a28 28 0 0 0 .021.586A28 28 0 0 1 32 5a28 28 0 0 1 27.979 27.414L60 32A28 28 0 0 0 32 4" opacity=".2"/></svg>