<svg xmlns="http://www.w3.org/2000/svg" viewBox="0 0 16.933 16.933"><path fill="#ed1528" stroke="#b50f1e" stroke-width=".529" d="M8.467 1.322a7.144 7.144 0 0 0-7.144 7.144 7.144 7.144 0 0 0 7.144 7.144 7.144 7.144 0 0 0 7.144-7.144 7.144 7.144 0 0 0-7.144-7.144zm0 1.588a4.498 5.556 0 0 1 4.497 5.557 4.498 5.556 0 0 1-4.497 5.556 4.498 5.556 0 0 1-4.498-5.556A4.498 5.556 0 0 1 8.467 2.91z" opacity=".9" paint-order="stroke markers fill"/><path fill="#ff1b2d" d="M8.467 1.322a7.144 7.144 0 1 0 0 14.288 7.144 7.144 0 0 0 0-14.288m0 2.118c2.045 0 3.704 2.25 3.704 5.027s-1.659 5.027-3.704 5.027-3.705-2.251-3.705-5.027S6.421 3.44 8.467 3.44" paint-order="stroke markers fill"/><path fill="#af0e0e" d="M10.186 2.646c-1.446 0-2.756.61-3.728 1.6.579-.508 1.267-.807 2.009-.806 2.045 0 3.704 2.25 3.704 5.027s-1.659 5.027-3.704 5.027c-.741 0-1.43-.299-2.01-.807.973.99 2.283 1.6 3.73 1.6 2.995 0 5.423-2.606 5.423-5.82s-2.428-5.821-5.424-5.821M4.798 7.81l-.008.069zM4.79 9.053l.008.069z" paint-order="stroke markers fill"/></svg>