<svg xmlns="http://www.w3.org/2000/svg" viewBox="0 0 16 16"><path fill="currentColor" fill-rule="evenodd" d="M8 0a20 20 0 0 1-2.814 4.19A23 23 0 0 1 3.434 6h9.097a22 22 0 0 1-1.66-1.701A19 19 0 0 1 8 0m1.553.775A19 19 0 0 0 11.62 3.64c.848.965 1.67 1.735 2.436 2.361h.447l-1.441-4.002c-1.062.022-2.28-.465-3.069-.918-.16-.095-.3-.2-.441-.305zM6.4.852c-.992.613-2.36 1.166-3.459 1.15 0 0-.913 2.553-1.433 3.998h.41A22 22 0 0 0 4.43 3.533 20.6 20.6 0 0 0 6.4.852M1.305 7a.26.26 0 0 0-.172.068.4.4 0 0 0-.13.287l-.001.002v.002L1 7.397v.002q0 .038.008.074l.002.006.177.92.06.308a.45.45 0 0 0 .093.196.3.3 0 0 0 .074.062q.06.035.127.035h.256l3.846-.012h.473l.03.002.012-.002h4.199L14.203 9h.256a.27.27 0 0 0 .195-.09v-.002a.4.4 0 0 0 .1-.201l.06-.309.178-.92.006-.037V7.44a.5.5 0 0 0-.06-.289.4.4 0 0 0-.065-.08h-.002l-.02-.015-.005-.006-.026-.016h-.002l-.027-.014h-.002l-.027-.01h-.002A.3.3 0 0 0 14.7 7H5.97zm4.722 2.984.086.004h-.497l-3.432.01c.24 1.81.458 5 1.689 5.002h1.59l-1.45-2.508c-.022-.04-.015-.095.018-.123l2.032-1.724.773-.657h-.678l.088-.004a1.2 1.2 0 0 1-.219 0m3.727 0 .088.004h-.678l.773.657 2.032 1.724c.033.028.04.083.017.123L10.537 15h1.582c1.223 0 1.453-3.191 1.697-5.002l-3.43-.01h-.5l.087-.004a1.2 1.2 0 0 1-.22 0z" class="ColorScheme-Text"/><path fill="currentColor" fill-rule="evenodd" d="m7.578 10-1.692 3.996h4.227L8.423 10z" class="ColorScheme-Text" opacity=".3"/></svg>