<svg xmlns="http://www.w3.org/2000/svg" xmlns:xlink="http://www.w3.org/1999/xlink" viewBox="0 0 48 48"><defs><linearGradient id="a" x1="90.7%" x2="35.327%" y1="6.565%" y2="64.144%"><stop offset="0%" stop-color="#93def2"/><stop offset="100%" stop-color="#5abadf"/></linearGradient></defs><g fill="none" fill-rule="evenodd"><path fill="#5abadf" d="M5 7.998A3 3 0 0 1 7.998 5H31.02L43 17.02v22.974A3.01 3.01 0 0 1 40.002 43H7.998A3.004 3.004 0 0 1 5 40.002z"/><path fill="url(#a)" d="m31 5 12 12V7.997A2.997 2.997 0 0 0 40.003 5z" transform="matrix(-1 0 0 -1 74 22)"/><path fill="#fff" d="m24.5 15.29 4.231 6.678c.145.23.207.643.132.913l-1.726 6.13c-.075.268-.357.489-.628.489h-5.018c-.263 0-.553-.219-.628-.489l-1.726-6.13a1.3 1.3 0 0 1 .132-.913L23.5 15.29v5.28a1.543 1.543 0 1 0 1 .008zM20 31.5c0 .552.453 1 .997 1h6.006c.55 0 .997-.444.997-1 0-.552-.453-1-.997-1h-6.006a.996.996 0 0 0-.997 1"/></g></svg>