<svg xmlns="http://www.w3.org/2000/svg" viewBox="0 0 64 64"><path d="M12.75 5C11.226 5 10 6.249 10 7.8v50.4c0 1.55 1.227 2.8 2.75 2.8h38.5c1.522 0 2.75-1.25 2.75-2.8V23l-14-4-4-14Z" opacity=".2"/><path fill="#2095f2" d="M12.75 4C11.226 4 10 5.249 10 6.8v50.4c0 1.55 1.227 2.8 2.75 2.8h38.5c1.522 0 2.75-1.25 2.75-2.8V22l-14-4-4-14Z"/><path d="M54 23 36 5v15.188A2.806 2.806 0 0 0 38.813 23Z" opacity=".2"/><path fill="#7cc0f5" d="M54 22 36 4v15.188A2.806 2.806 0 0 0 38.813 22Z"/><path fill="#fff" d="M12.75 4C11.226 4 10 5.25 10 6.8v1C10 6.25 11.226 5 12.75 5H36V4z" opacity=".2"/><path d="M32 28c-7.732 0-14 6.268-14 14s6.268 14 14 14 14-6.268 14-14-6.268-14-14-14m-1.402 2.676c.163-.017.37.01.535 0 .02.078-.119.355-.305.761-1.185 2.59-1.252 5.626-.152 7.247.199.293.379.573.379.609s-.215.074-.457.074c-.57 0-1.11-.346-2.211-1.219-.49-.387-1.125-.712-1.371-.761-.388-.078-.492-.044-.993.457-.466.466-.609.718-.609 1.144 0 1.618 1.92 2.9 5.488 3.657 4.847 1.027 6.042 1.95 6.176 4.5.168 3.196-1.535 5.606-5.262 7.472-.444.223-.727.307-.914.38-.082-.008-.144.006-.226 0-.032-.1-.078-.328-.078-.763 0-1.697-.668-3.444-1.676-4.422-.27-.262-1.03-.817-1.68-1.218-.649-.402-1.303-.868-1.449-1.067-.242-.33-.26-.534-.074-1.144.338-1.115.74-1.737 1.523-2.442.41-.369.823-.676.914-.683s-.521-.194-1.445-.383a26 26 0 0 1-2.977-.84c-1.277-.462-2.998-1.43-3.656-2.133-.028-.03-.054-.051-.078-.078a12.26 12.26 0 0 1 7.09-8.308 12 12 0 0 1 2.289-.688c.397-.081.808-.11 1.219-.152m11.437 5.719c.287.177 1.367 2.518 1.676 3.66.399 1.474.37 4.024 0 5.488-.14.557-.319 1.08-.379 1.145s-.28-.308-.535-.762c-.256-.454-1.074-1.42-1.754-2.137-1.962-2.07-2.271-3.148-1.45-4.8.415-.834 2.22-2.731 2.442-2.594" opacity=".2"/><path fill="#fff" d="M32 27c-7.732 0-14 6.268-14 14s6.268 14 14 14 14-6.268 14-14-6.268-14-14-14m-1.402 2.676c.163-.017.37.01.535 0 .02.078-.119.355-.305.761-1.185 2.59-1.252 5.626-.152 7.247.199.293.379.573.379.609s-.215.074-.457.074c-.57 0-1.11-.346-2.211-1.219-.49-.387-1.125-.712-1.371-.761-.388-.078-.492-.044-.993.457-.466.466-.609.718-.609 1.144 0 1.618 1.92 2.9 5.488 3.657 4.847 1.027 6.042 1.95 6.176 4.5.168 3.196-1.535 5.606-5.262 7.472-.444.223-.727.307-.914.38-.082-.008-.144.006-.226 0-.032-.1-.078-.328-.078-.763 0-1.697-.668-3.444-1.676-4.422-.27-.262-1.03-.817-1.68-1.218-.649-.402-1.303-.868-1.449-1.067-.242-.33-.26-.534-.074-1.144.338-1.115.74-1.737 1.523-2.442.41-.369.823-.676.914-.683s-.521-.194-1.445-.383a26 26 0 0 1-2.977-.84c-1.277-.462-2.998-1.43-3.656-2.133-.028-.03-.054-.051-.078-.078a12.26 12.26 0 0 1 7.09-8.308 12 12 0 0 1 2.289-.688c.397-.081.808-.11 1.219-.152m11.437 5.719c.287.177 1.367 2.518 1.676 3.66.399 1.474.37 4.024 0 5.488-.14.557-.319 1.08-.379 1.145s-.28-.308-.535-.762c-.256-.454-1.074-1.42-1.754-2.137-1.962-2.07-2.271-3.148-1.45-4.8.415-.834 2.22-2.731 2.442-2.594"/></svg>