<svg xmlns="http://www.w3.org/2000/svg" viewBox="0 0 64 64"><path d="M12.75 5C11.226 5 10 6.249 10 7.8v50.4c0 1.55 1.227 2.8 2.75 2.8h38.5c1.522 0 2.75-1.25 2.75-2.8V23l-14-4-4-14Z" opacity=".2"/><path fill="#f3ae16" d="M12.75 4C11.226 4 10 5.249 10 6.8v50.4c0 1.55 1.227 2.8 2.75 2.8h38.5c1.522 0 2.75-1.25 2.75-2.8V22l-14-4-4-14Z"/><path d="M54 23 36 5v15.188A2.806 2.806 0 0 0 38.813 23Z" opacity=".2"/><path fill="#f8ce71" d="M54 22 36 4v15.187A2.807 2.807 0 0 0 38.813 22Z"/><path fill="#fff" d="M12.75 4C11.226 4 10 5.25 10 6.8v1C10 6.25 11.226 5 12.75 5H36V4z" opacity=".2"/><path d="M24 29c-4.42 0-8 3.58-8 8s3.58 8 8 8c.11-.01.22-.01.33-.02l-4.15 6.46c-.46.66.02 1.57.82 1.57h18c.81 0 1.28-.9.82-1.57l-2.85-4.43H46c1.11 0 2-.89 2-2v-10c0-1.11-.89-2-2-2H36c-1.11 0-2 .89-2 2v7.37l-2.24-3.49c.16-.62.24-1.25.24-1.88 0-4.42-3.58-8-8-8Zm12 6h10v10H36Z" opacity=".2"/><path fill="#fafafa" d="M36 32c-1.11 0-2 .89-2 2v10c0 1.11.89 2 2 2h10c1.11 0 2-.89 2-2V34c0-1.11-.89-2-2-2Zm0 2h10v10H36Z"/><circle cx="24" cy="36" r="8" fill="#fafafa"/><path fill="#fde9b6" d="M30 36c-.33 0-.64.16-.82.43l-9 14c-.46.66.02 1.57.82 1.57h18c.81 0 1.28-.9.82-1.57l-9-14A.98.98 0 0 0 30 36"/></svg>