<svg xmlns="http://www.w3.org/2000/svg" xml:space="preserve" viewBox="0 0 24 24"><g fill="#c62828" data-iconColor="OpenShift"><path d="M20.5 8.177a8 8 0 0 0-.666-1.13l-2.729.993c.314.323.584.686.802 1.08zM8.437 11.195l-2.73.993q.055.657.216 1.294l2.593-.944a5 5 0 0 1-.08-1.343"/><path d="M14.495 7.404c.55.258 1.05.614 1.475 1.05l2.729-.994a7.76 7.76 0 0 0-3.048-2.535C11.75 3.105 7.095 4.799 5.276 8.7a7.75 7.75 0 0 0-.705 3.902l2.73-.993c.044-.607.198-1.2.454-1.752a5.08 5.08 0 0 1 6.74-2.453m2.91 4.987a5 5 0 0 1-.458 1.752 5.077 5.077 0 0 1-6.74 2.454 5 5 0 0 1-1.477-1.049l-2.723.99a7.74 7.74 0 0 0 3.045 2.538c3.901 1.819 8.555.125 10.374-3.777.57-1.217.812-2.56.704-3.9z"/><path d="m18.077 9.059-2.593.944c.486.869.707 1.862.634 2.856l2.724-.99a7.9 7.9 0 0 0-.765-2.81m-11.984 4.36-2.593.946a7.9 7.9 0 0 0 1.22 2.643l2.723-.991a5.1 5.1 0 0 1-1.35-2.597m14.012-5.962a7 7 0 0 0-.27-.41l-2.73.992q.179.186.336.387zM8.426 11.743a5 5 0 0 1 .01-.548l-2.73.993q.023.263.063.522z"/><path d="m20.13 11.4-2.724.99q-.045.6-.23 1.172l2.964-1.08a8 8 0 0 0-.01-1.082M6.006 16.54q.316.442.694.843L9.666 16.3a5 5 0 0 1-.936-.753z"/></g></svg>