<svg xmlns="http://www.w3.org/2000/svg" xmlns:xlink="http://www.w3.org/1999/xlink" viewBox="0 0 128 128"><defs><linearGradient id="d" x1="50%" x2="50%" y1="0%" y2="100%"><stop offset="0%" stop-color="#f33c3c"/><stop offset="99.628%" stop-color="#dc2121"/></linearGradient><linearGradient id="g" x1="50%" x2="7.994%" y1="50%" y2="88.893%"><stop offset="0%" stop-color="#fff" stop-opacity=".1"/><stop offset="100%" stop-color="#fff" stop-opacity=".3"/></linearGradient><filter id="c" width="125%" height="120.2%" x="-12.5%" y="-8.3%" filterUnits="objectBoundingBox"><feOffset dy="2" in="SourceAlpha" result="shadowOffsetOuter1"/><feGaussianBlur in="shadowOffsetOuter1" result="shadowBlurOuter1" stdDeviation="3.5"/><feColorMatrix in="shadowBlurOuter1" values="0 0 0 0 0.6622226 0 0 0 0 0 0 0 0 0 0 0 0 0 0.5 0"/></filter><filter id="f" width="124.6%" height="124.6%" x="-12.3%" y="-8.8%" filterUnits="objectBoundingBox"><feOffset dy="1" in="SourceAlpha" result="shadowOffsetOuter1"/><feGaussianBlur in="shadowOffsetOuter1" result="shadowBlurOuter1" stdDeviation="1"/><feComposite in="shadowBlurOuter1" in2="SourceAlpha" operator="out" result="shadowBlurOuter1"/><feColorMatrix in="shadowBlurOuter1" values="0 0 0 0 0 0 0 0 0 0 0 0 0 0 0 0 0 0 0.05 0"/></filter><path id="a" d="M92 105a9 9 0 0 1-9 9H9a9 9 0 0 1-9-9V9a9 9 0 0 1 9-9h54.5L92 28.5z"/><path id="e" d="M63.5 0 92 28.5H72.5a9 9 0 0 1-9-9z"/></defs><g fill="none" fill-rule="evenodd"><g transform="translate(18 7)"><use xlink:href="#a" fill="#000" filter="url(#c)"/><use xlink:href="#a" fill="url(#d)"/></g><g transform="translate(18 7)"><use xlink:href="#e" fill="#000" filter="url(#f)"/><use xlink:href="#e" fill="url(#g)"/></g><path fill="#fff" d="M62.49 44c-3.238 0-5.863 1.817-5.863 4.059.095.836.623 1.892.902 2.255 1.353 1.804 1.353 2.931 1.015 3.608H47.608A3.6 3.6 0 0 0 44 57.529v9.133c.676.338 1.804.338 3.608-1.015.362-.279 1.418-.808 2.255-.902 2.241 0 4.059 2.625 4.059 5.863s-1.818 5.863-4.06 5.863c-.687-.012-1.733-.627-2.254-.902-1.804-1.353-2.932-1.353-3.608-1.015v11.838A3.6 3.6 0 0 0 47.608 90h14.544c.338-.676.338-1.804-1.015-3.608-.279-.362-.808-1.418-.902-2.255 0-2.241 2.625-4.059 5.863-4.059s5.863 1.818 5.863 4.06c-.012.687-.627 1.733-.902 2.254-1.353 1.804-1.353 2.932-1.015 3.608h6.427a3.6 3.6 0 0 0 3.607-3.608V76.358c.677-.338 1.804-.338 3.608 1.015.521.275 1.567.89 2.255.902 2.242 0 4.059-2.625 4.059-5.863s-1.817-5.863-4.059-5.863c-.836.094-1.892.623-2.255.902-1.804 1.353-2.931 1.353-3.608 1.015V57.529a3.6 3.6 0 0 0-3.607-3.607H66.436c-.338-.677-.338-1.804 1.015-3.608.275-.521.89-1.567.902-2.255 0-2.242-2.625-4.059-5.863-4.059"/></g></svg>