<svg xmlns="http://www.w3.org/2000/svg" viewBox="0 0 64 64"><path fill="#8e8e8e" d="M58 40v2H6v-2zm0 6v2H6v-2zm0 6v2H6v-2zm0-30v2H6v-2zm0 6v2H6v-2zm0 6v2H6v-2zm0-18v2H6v-2zm0-6v2H6v-2z"/><path fill="#8e8e8e" d="M24 58h-2V6h2zm-6 0h-2V6h2zm-6 0h-2V6h2zm30 0h-2V6h2zm-6 0h-2V6h2zm-6 0h-2V6h2zm18 0h-2V6h2zm6 0h-2V6h2z"/><path d="M8 52.602v2C8 55.932 9.338 57 11 57h42c1.662 0 3-1.068 3-2.398v-2C56 53.932 54.662 55 53 55H11c-1.662 0-3-1.068-3-2.398" opacity=".2"/><rect width="48" height="48" x="-56" y="-56" fill="#4f4f4f" rx="2.4" ry="3" transform="rotate(90)scale(-1 1)"/><path fill="#fff" d="M11 8c-1.662 0-3 1.069-3 2.398v1C8 10.068 9.338 9 11 9h42c1.662 0 3 1.069 3 2.398v-1C56 9.068 54.662 8 53 8z" opacity=".1"/><rect width="40" height="40" x="-53" y="-52.002" opacity=".2" rx="20" ry="20" transform="rotate(90)scale(-1 1)"/><rect width="40" height="40" x="-52" y="-52.002" fill="#3b6ec5" rx="20" ry="20" transform="rotate(90)scale(-1 1)"/><path d="M28.002 23v10.54a4 4 0 1 0 2 3.46V27h8v6.54a4 4 0 1 0 2 3.46V23h-1z" opacity=".2"/><path fill="#fff" d="M28.002 22v10.54a4 4 0 1 0 2 3.46V26h8v6.54a4 4 0 1 0 2 3.46V22h-1z"/><path fill="#fff" d="M32.002 12c-11.08 0-20 8.92-20 20 0 .168.008.333.012.5C12.278 21.654 21.09 13 32.002 13s19.724 8.654 19.988 19.5c.004-.167.012-.332.012-.5 0-11.08-8.92-20-20-20" opacity=".2"/></svg>