<svg xmlns="http://www.w3.org/2000/svg" viewBox="0 0 64 64"><path d="M32 33A28 14 0 0 0 4 47a28 14 0 0 0 28 14 28 14 0 0 0 28-14 28 14 0 0 0-28-14" opacity=".2"/><path fill="#6f8a94" d="M32 32A28 14 0 0 0 4 46a28 14 0 0 0 28 14 28 14 0 0 0 28-14 28 14 0 0 0-28-14"/><path d="M32 19A28 14 0 0 0 4 33a28 14 0 0 0 28 14 28 14 0 0 0 28-14 28 14 0 0 0-28-14" opacity=".2"/><path fill="#9daeb5" d="M32 18A28 14 0 0 0 4 32a28 14 0 0 0 28 14 28 14 0 0 0 28-14 28 14 0 0 0-28-14"/><path d="M32 5A28 14 0 0 0 4 19a28 14 0 0 0 28 14 28 14 0 0 0 28-14A28 14 0 0 0 32 5" opacity=".2"/><path fill="#d1dbe0" d="M32 4A28 14 0 0 0 4 18a28 14 0 0 0 28 14 28 14 0 0 0 28-14A28 14 0 0 0 32 4"/><path fill="#fff" d="M32 4A28 14 0 0 0 4 18a28 14 0 0 0 .041.41A28 14 0 0 1 32 5a28 14 0 0 1 27.953 13.537A28 14 0 0 0 60 18 28 14 0 0 0 32 4" opacity=".2"/><path fill-rule="evenodd" d="M63.958 45.848A16 16 0 0 1 48 61a16 16 0 0 1-15.958-14.848A16 16 0 0 0 32 47a16 16 0 0 0 16 16 16 16 0 0 0 16-16 16 16 0 0 0-.043-1.152Z" opacity=".2"/><circle cx="21" cy="23" r="8" fill="#44ad4d" transform="matrix(2 0 0 2 6 0)"/><path fill="#fff" d="m57 46-7 4-7 4V38l7 4z"/></svg>