<svg xmlns="http://www.w3.org/2000/svg" viewBox="0 0 64 64"><path fill-rule="evenodd" d="M55.934 11.68 45.179 23.04H23.67l-1.1 10.846-1.588 2.711L26 51.997l-9 9.004h11.148c.7 0 1.321-.441 1.538-1.094l1.673-5.035c.16-.48.546-.857 1.038-1.014l1.286-.408a1.65 1.65 0 0 1 1.451.224l4.378 3.111a1.65 1.65 0 0 0 1.902 0l3.925-2.789a1.56 1.56 0 0 0 .587-1.768l-1.672-5.035a1.55 1.55 0 0 1 .23-1.418l.795-1.07c.304-.41.79-.712 1.308-.712H52c.7 0 1.321-.382 1.538-1.033l1.5-4.512a1.56 1.56 0 0 0-.588-1.77l-4.38-3.111a1.57 1.57 0 0 1-.666-1.279v-1.323c0-.506.248-.982.667-1.28l4.776-3.566c.419-.298 1.087-1.895 1.087-2.401z" opacity=".2"/><path fill="#418fde" fill-rule="evenodd" d="M55.934 10.679 45.179 22.04H23.67l-1.1 10.846-1.588 2.71 1.588 10.847L13.28 60h14.868c.7 0 1.321-.44 1.538-1.092l1.673-5.035a1.6 1.6 0 0 1 1.038-1.015l1.286-.409a1.65 1.65 0 0 1 1.451.224l4.378 3.112a1.65 1.65 0 0 0 1.902 0l3.925-2.79a1.56 1.56 0 0 0 .587-1.767l-1.672-5.035a1.55 1.55 0 0 1 .23-1.419l.795-1.07c.304-.41.79-.711 1.308-.711H52c.7 0 1.321-.383 1.538-1.034l1.5-4.512a1.56 1.56 0 0 0-.588-1.768l-4.38-3.112a1.57 1.57 0 0 1-.666-1.28v-1.322c0-.506.248-.982.667-1.28l4.776-3.567c.419-.298 1.087-1.893 1.087-2.4z"/><path fill-rule="evenodd" d="M14.872 5 8.1 11.981 8 61.001h9l9-9.004v-1l-9-35.014 31 8.003v1l7.934-9.003L55.832 5z" opacity=".2"/><path fill="#e5454c" fill-rule="evenodd" d="m14.872 4-6.77 6.98L8 60h9l9-9.003-3.184-31.476 25.182 4.464 7.935-9.003L55.832 4z"/><path fill="#f9f9f9" fill-rule="evenodd" d="m14.872 4-6.77 6.98L8 60l.101-48.02L14.871 5h40.971l.148 9.992.01-.01L55.842 4zm7.946 16.52 3.09 30.475H26L22.92 20.54z" opacity=".2"/><path fill-rule="evenodd" d="M17 51.997h8l1-1V40.972l14 .02V31.99H26v-7.003h22v-9.003H17z" opacity=".2"/><path fill="#e4e4e4" fill-rule="evenodd" d="M17 50.995h9V39.97l14 .02v-9.003H26v-7h22V14.98H17z"/></svg>