<svg xmlns="http://www.w3.org/2000/svg" viewBox="0 0 64 64"><path d="M11.13 11.346 31.565 5H55.8A4.19 4.19 0 0 1 60 9.2v47.6a4.19 4.19 0 0 1-4.2 4.2H8.2A4.19 4.19 0 0 1 4 56.8V40.684l4.306-26.46c.374-2.296.602-2.188 2.824-2.878" opacity=".2"/><path fill="#02c9fd" d="M11.13 10.346 31.565 4H55.8A4.19 4.19 0 0 1 60 8.2v47.6a4.19 4.19 0 0 1-4.2 4.2H8.2A4.19 4.19 0 0 1 4 55.8V39.684l4.306-26.46c.374-2.296.602-2.188 2.824-2.878"/><path d="M30.375 23c-.762 0-1.375.613-1.375 1.375v8.25c0 .762.613 1.375 1.375 1.375h8.25c.762 0 1.375-.613 1.375-1.375v-8.25c0-.762-.613-1.375-1.375-1.375Zm14 0c-.762 0-1.375.613-1.375 1.375v8.25c0 .762.613 1.375 1.375 1.375h8.25c.762 0 1.375-.613 1.375-1.375v-8.25c0-.762-.613-1.375-1.375-1.375Zm-14 14c-.762 0-1.375.613-1.375 1.375v8.25c0 .762.613 1.375 1.375 1.375h8.25c.762 0 1.375-.613 1.375-1.375v-8.25c0-.762-.613-1.375-1.375-1.375Zm14 0c-.762 0-1.375.613-1.375 1.375v8.25c0 .762.613 1.375 1.375 1.375h8.25c.762 0 1.375-.613 1.375-1.375v-8.25c0-.762-.613-1.375-1.375-1.375Z" opacity=".2"/><path fill="#115267" d="M8.2 4A4.2 4.2 0 0 0 4 8.2v32.2l3.842-4.993L22.9 60h8.4L12.496 29.356 32 4Z"/><path fill="#fff" d="M30.375 36c-.762 0-1.375.613-1.375 1.375v8.25c0 .762.613 1.375 1.375 1.375h8.25c.762 0 1.375-.613 1.375-1.375v-8.25c0-.762-.613-1.375-1.375-1.375Z"/><rect width="7" height="7" x="31" y="38" fill="#bbe9ff" ry=".292"/><path fill="#00789d" d="M44.375 15c-.762 0-1.375.595-1.375 1.333v1.334c0 .738.613 1.333 1.375 1.333h8.25c.762 0 1.375-.595 1.375-1.333v-1.334c0-.738-.613-1.333-1.375-1.333Zm-14 0c-.762 0-1.375.595-1.375 1.333v1.334c0 .738.613 1.333 1.375 1.333h8.25c.762 0 1.375-.595 1.375-1.333v-1.334c0-.738-.613-1.333-1.375-1.333Z"/><path fill="none" stroke="#0097d7" stroke-width="1.167" d="m32.032 41.662 1.294 1.556a.5.5 0 0 0 .798 0l2.987-3.59"/><path fill="#fff" d="M44.375 36c-.762 0-1.375.613-1.375 1.375v8.25c0 .762.613 1.375 1.375 1.375h8.25c.762 0 1.375-.613 1.375-1.375v-8.25c0-.762-.613-1.375-1.375-1.375Zm0-14c-.762 0-1.375.613-1.375 1.375v8.25c0 .762.613 1.375 1.375 1.375h8.25c.762 0 1.375-.613 1.375-1.375v-8.25c0-.762-.613-1.375-1.375-1.375Zm-14 0c-.762 0-1.375.613-1.375 1.375v8.25c0 .762.613 1.375 1.375 1.375h8.25c.762 0 1.375-.613 1.375-1.375v-8.25c0-.762-.613-1.375-1.375-1.375Z"/><path fill="#fff" d="m32 4-.873 1.137.437-.137h24.237A4.19 4.19 0 0 1 60 9.2v-1A4.19 4.19 0 0 0 55.8 4Z" opacity=".2"/><path fill="#fff" d="M8.2 4A4.2 4.2 0 0 0 4 8.2v1A4.2 4.2 0 0 1 8.2 5h23.03L32 4Z" opacity=".1"/></svg>