<svg xmlns="http://www.w3.org/2000/svg" viewBox="0 0 64 64"><rect width="57" height="57" x="4" y="4" opacity=".2" rx="4.275" ry="4.275"/><rect width="57" height="57" x="4" y="3" fill="#2ec27e" rx="4.275" ry="4.275"/><path fill="#26a269" d="M21 3h3v57h-3zm20 0h3v57h-3z"/><path fill="#26a269" d="M61 20v3H4v-3zm0 20v3H4v-3z"/><circle cx="32.5" cy="32.5" r="7.5" opacity=".2"/><circle cx="32.5" cy="31.5" r="7.5" fill="#fff"/><circle cx="52.5" cy="52.5" r="7.5" opacity=".2"/><circle cx="52.5" cy="51.5" r="7.5" fill="#fff"/><circle cx="52.5" cy="32.5" r="7.5" opacity=".1"/><circle cx="52.5" cy="31.5" r="7.5" fill="#3d3846"/><circle cx="32.5" cy="52.5" r="7.5" opacity=".1"/><circle cx="32.5" cy="51.5" r="7.5" fill="#3d3846"/><path fill="#fff" d="M8.275 3A4.266 4.266 0 0 0 4 7.275v1A4.266 4.266 0 0 1 8.275 4h48.45A4.266 4.266 0 0 1 61 8.275v-1A4.266 4.266 0 0 0 56.725 3z" opacity=".2"/></svg>