<svg xmlns="http://www.w3.org/2000/svg" viewBox="0 0 64 64"><path d="M9 11.86v44.325C9 58.844 11.043 61 13.563 61H40l16-16V11.86Z" opacity=".2"/><path fill="#1eb28d" d="M9 11v44.198C9 57.85 11.043 60 13.563 60H40l16-15.955V11Z"/><path d="M9 14v41.198C9 57.85 11.043 60 13.563 60H20V14Z" opacity=".3"/><path fill="#5edfbf" d="M13.563 4C11.035 4 9 6.148 9 8.815V14h47V8.815C56 6.148 53.965 4 51.438 4Z"/><path fill="#fff" d="M13.563 4C11.035 4 9 6.15 9 8.816v1C9 7.15 11.035 5 13.563 5h37.875C53.965 5 56 7.15 56 9.816v-1C56 6.15 53.965 4 51.438 4z" opacity=".2"/><path fill="#5edfbf" d="M56 44H44.424C41.981 44 40 46.054 40 48.586V60Z"/><path fill="#fff" d="M56 44H44.424C41.981 44 40 46.057 40 48.586v1C40 47.056 42 45 44.424 45H55Z" opacity=".2"/><path fill="#dfdfdf" d="M24 22h28v3H24zm0 7h28v3H24zm0 7h27v3H24zm0 7h10v3H24z"/><path d="M34.11 40.918v-.004l4.972 4.977L60.41 24.566a2.01 2.01 0 0 0 0-2.843l-2.133-2.133a2.005 2.005 0 0 0-2.843 0zl-.554 3.039L33 47l3.043-.555 3.035-.554h.004" opacity=".2"/><path fill="#999" d="m54.012 20.01 1.421-1.42a2.01 2.01 0 0 1 2.846 0l2.132 2.131c.785.786.785 2.06 0 2.846l-1.422 1.421a2.01 2.01 0 0 1-2.845 0l-2.132-2.132a2.01 2.01 0 0 1 0-2.845"/><path fill="#c4c4c4" d="m36.042 45.446-2.488-2.488.553-3.041 4.976 4.976z"/><path fill="#424048" d="m33 46 .554-3.042 2.488 2.488z"/><path fill="#999" d="M52.59 21.433 34.108 39.915l1.28 1.28.141.143 2.135 2.132 1.418 1.424 18.484-18.485L56.135 25 54 22.867l.002-.002z"/><path fill="#c4c4c4" d="m52.59 21.432 1.422-1.421 4.977 4.977-1.423 1.422z"/><path fill="#010101" d="M9 14h47v1H9z" opacity=".2"/></svg>