<svg xmlns="http://www.w3.org/2000/svg" viewBox="0 0 64 64"><rect width="56" height="56" x="4" y="5" opacity=".2" rx="16.8" ry="16.8"/><rect width="56" height="56" x="4" y="4" fill="#524e6e" rx="16.8" ry="16.8"/><path d="M18.066 13a8.01 8.01 0 0 0-7.437 4.89 8.01 8.01 0 0 0 1.687 8.743A8 8 0 0 0 16 28.746V51a2 2 0 0 0 2 2 2 2 0 0 0 2-2V28.746q.528-.137 1.043-.348A8.015 8.015 0 0 0 26 21a2 2 0 0 0-2-2 2 2 0 0 0-2 2 3.99 3.99 0 0 1-2.48 3.699 4 4 0 1 1-1.485-7.7 2 2 0 0 0 2.016-1.98A2 2 0 0 0 18.066 13M32 13a2 2 0 0 0-2 2v22.254a8 8 0 0 0-3.684 2.113 8.01 8.01 0 0 0-1.687 8.742A8.01 8.01 0 0 0 32.07 53a2 2 0 0 0 1.98-2.019A2 2 0 0 0 32.036 49a3.99 3.99 0 0 1-3.722-2.446 3.99 3.99 0 0 1 .847-4.37 3.99 3.99 0 0 1 4.363-.884A3.99 3.99 0 0 1 36 45a2 2 0 0 0 2 2 2 2 0 0 0 2-2 8.015 8.015 0 0 0-6-7.746V15a2 2 0 0 0-2-2m14.066 0a8.01 8.01 0 0 0-7.437 4.89 8.01 8.01 0 0 0 1.687 8.743A8 8 0 0 0 44 28.746V51a2 2 0 0 0 2 2 2 2 0 0 0 2-2V28.746q.528-.137 1.043-.348A8.015 8.015 0 0 0 54 21a2 2 0 0 0-2-2 2 2 0 0 0-2 2 3.99 3.99 0 0 1-2.48 3.699c-1.505.62-3.218.272-4.364-.883s-1.476-2.872-.843-4.371 2.095-2.46 3.722-2.445a2 2 0 0 0 2.016-1.98A2 2 0 0 0 46.066 13" opacity=".2"/><path fill="none" stroke="#4580ff" stroke-linecap="round" stroke-linejoin="round" stroke-width="4" d="M18 50V26m5.998-5.998a6 6 0 0 1-3.716 5.548 6 6 0 0 1-6.545-1.324 6 6 0 0 1-1.267-6.557 6 6 0 0 1 5.58-3.667"/><path fill="none" stroke="#a757ff" stroke-linecap="round" stroke-linejoin="round" stroke-width="4" d="M32 14v24m6 6a6 6 0 0 0-3.717-5.55 6 6 0 0 0-6.545 1.325 6 6 0 0 0-1.267 6.557 6 6 0 0 0 5.58 3.667"/><path fill="none" stroke="#e859e9" stroke-linecap="round" stroke-linejoin="round" stroke-width="4" d="M46 50V26m5.998-5.998a6 6 0 0 1-3.716 5.548 6 6 0 0 1-6.545-1.324 6 6 0 0 1-1.267-6.557 6 6 0 0 1 5.58-3.667"/><path fill="#fff" d="M20.8 4C11.495 4 4 11.494 4 20.8v1C4 12.495 11.494 5 20.8 5h22.4C52.505 5 60 12.494 60 21.8v-1C60 11.495 52.506 4 43.2 4z" opacity=".1"/><path fill="#fff" d="M18.066 12a8.01 8.01 0 0 0-7.437 4.89 8 8 0 0 0-.613 3.606A8.01 8.01 0 0 1 18.066 13a2 2 0 0 1 1.922 1.5 2 2 0 0 0 .063-.48A2 2 0 0 0 18.066 12M32 12a2 2 0 0 0-2 2v1a2 2 0 0 1 2-2 2 2 0 0 1 2 2v-1a2 2 0 0 0-2-2m14.066 0a8.01 8.01 0 0 0-7.437 4.89 8 8 0 0 0-.613 3.606A8.01 8.01 0 0 1 46.066 13a2 2 0 0 1 1.92 1.496 2 2 0 0 0 .065-.476A2 2 0 0 0 46.066 12M24 18a2 2 0 0 0-2 2c0 1.627-.976 3.08-2.48 3.7a4 4 0 0 1-5.493-3.194 3.98 3.98 0 0 0 1.13 3.31A4 4 0 0 0 18.077 25a4 4 0 0 0 1.442-.3A3.99 3.99 0 0 0 22 21a2 2 0 0 1 2-2 2 2 0 0 1 1.973 1.666Q26 20.336 26 20a2 2 0 0 0-2-2m28 0a2 2 0 0 0-2 2c0 1.627-.976 3.08-2.48 3.7a3.99 3.99 0 0 1-4.364-.884 4 4 0 0 1-1.129-2.31 3.98 3.98 0 0 0 1.13 3.31 3.99 3.99 0 0 0 4.363.883A3.99 3.99 0 0 0 50 21a2 2 0 0 1 2-2 2 2 0 0 1 1.973 1.666Q54 20.336 54 20a2 2 0 0 0-2-2M30 36.254a8 8 0 0 0-3.684 2.113 8 8 0 0 0-2.3 6.137 8 8 0 0 1 2.3-5.137A8 8 0 0 1 30 37.254zm4 0v1q.528.136 1.043.348a8.02 8.02 0 0 1 4.93 6.73A2 2 0 0 0 40 44a8.015 8.015 0 0 0-6-7.746m-5.973 8.244a4 4 0 0 0 .285 2.057A3.99 3.99 0 0 0 32.036 49a2 2 0 0 1 1.953 1.5 2 2 0 0 0 .063-.52A2 2 0 0 0 32.035 48a3.99 3.99 0 0 1-3.722-2.445 4 4 0 0 1-.286-1.057" opacity=".2"/></svg>