<svg xmlns="http://www.w3.org/2000/svg" viewBox="0 0 64 64"><circle cx="31.5" cy="32.5" r="28.5" opacity=".2"/><circle cx="31.5" cy="31.5" r="28.5" fill="#28b628"/><circle cx="31.5" cy="32.5" r="19.5" opacity=".2"/><circle cx="31.5" cy="31.5" r="19.5" fill="#fff"/><path fill="#28b628" d="M35.526 16.736A6289 6289 0 0 0 31.5 31.5s9.58-2.383 14.764-4.097a15.32 15.32 0 0 0-10.738-10.667"/><path d="M35.525 16.736C34.145 21.756 31.5 31.5 31.5 31.5l.293-.076c.338-1.246 2.452-9.033 3.732-13.688a15.32 15.32 0 0 1 10.436 9.762c.095-.03.21-.065.303-.096a15.32 15.32 0 0 0-10.739-10.666" opacity=".2"/><path fill="#4f4f4f" fill-rule="evenodd" d="m29.45 32.941-9.093-8.405 12.55 6.62 2.772 4.523z"/><path fill="#4f4f4f" fill-rule="evenodd" d="m30.637 30.873 19.527-4.944-17.536 7.487-6.7.87z"/><path fill="#4f4f4f" d="M31.5 15a1.5 1.5 0 0 0-1.5 1.5 1.5 1.5 0 0 0 1.5 1.5 1.5 1.5 0 0 0 1.5-1.5 1.5 1.5 0 0 0-1.5-1.5m-15 15a1.5 1.5 0 0 0-1.5 1.5 1.5 1.5 0 0 0 1.5 1.5 1.5 1.5 0 0 0 1.5-1.5 1.5 1.5 0 0 0-1.5-1.5m30 0a1.5 1.5 0 0 0-1.5 1.5 1.5 1.5 0 0 0 1.5 1.5 1.5 1.5 0 0 0 1.5-1.5 1.5 1.5 0 0 0-1.5-1.5m-15 15a1.5 1.5 0 0 0-1.5 1.5 1.5 1.5 0 0 0 1.5 1.5 1.5 1.5 0 0 0 1.5-1.5 1.5 1.5 0 0 0-1.5-1.5"/><path fill="#fff" d="M31.5 3A28.5 28.5 0 0 0 3 31.5a29 29 0 0 0 .021.582A28.5 28.5 0 0 1 31.5 4a28.5 28.5 0 0 1 28.479 27.918L60 31.5A28.5 28.5 0 0 0 31.5 3" opacity=".2"/></svg>