<svg xmlns="http://www.w3.org/2000/svg" viewBox="0 0 64 64"><rect width="56" height="44" x="4" y="11" opacity=".2" rx="5.6" ry="5.6"/><path fill="#e01b24" d="M9.6 10C6.5 10 4 12.5 4 15.6v32.8C4 51.5 6.5 54 9.6 54H32l1-1V11l-1-1Z"/><circle cx="18" cy="33" r="6" opacity=".1"/><circle cx="18" cy="32" r="6" fill="#e4e4e4"/><path fill="#e4e4e4" d="M32 10v44h22.4c3.103 0 5.6-2.497 5.6-5.6V15.6c0-3.103-2.497-5.6-5.6-5.6z"/><path d="M52 27h4v12h-4Zm-6 0h4v12h-4Zm-10 0v12l10-6Z" opacity=".1"/><path fill="#4f4f4f" d="M52 26h4v12h-4Zm-6 0h4v12h-4Zm-10 0v12l10-6Z"/><path fill="#fff" d="M9.6 10A5.587 5.587 0 0 0 4 15.6v1C4 13.497 6.497 11 9.6 11h44.8c3.103 0 5.6 2.497 5.6 5.6v-1c0-3.103-2.497-5.6-5.6-5.6z" opacity=".2"/></svg>