<svg xmlns="http://www.w3.org/2000/svg" viewBox="0 0 64 64"><rect width="50" height="56" x="7" y="5" opacity=".2" rx="5.556"/><rect width="50" height="56" x="7" y="4" fill="#e4e4e4" rx="5.556"/><path fill="#fff" d="M12.555 4A5.54 5.54 0 0 0 7 9.555v1A5.54 5.54 0 0 1 12.555 5h38.89A5.54 5.54 0 0 1 57 10.555v-1A5.54 5.54 0 0 0 51.445 4Z" opacity=".2"/><rect width="26" height="3" x="19" y="34" fill="#b5b5b5" ry="1.5"/><rect width="26" height="3" x="19" y="46" fill="#b5b5b5" ry="1.5"/><rect width="26" height="3" x="19" y="22" fill="#b5b5b5" ry="1.5"/><circle cx="17" cy="17" r="15" opacity=".1"/><circle cx="17" cy="16" r="15" fill="#4565e3"/><path fill="#fff" d="M11.955 9.112a13.413 15.333 16.976 0 0-2.445.481 13.413 15.333 16.976 0 0-4.215 2.13L9.01 13.8a13.413 15.333 16.976 0 1 .443-.152 13.413 15.333 16.976 0 1 9.619 1.133l-3.454 2.084 5.188 2.29 5.19 2.291.002-5.424.002-5.421-4.038 2.436a13.413 15.333 16.976 0 0-7.555-3.908 13.413 15.333 16.976 0 0-2.452-.017"/></svg>