<svg xmlns="http://www.w3.org/2000/svg" viewBox="0 0 64 64"><circle cx="32.5" cy="32.5" r="28.5" opacity=".2"/><circle cx="32.5" cy="31.5" r="28.5" fill="#01ace5"/><path d="M25 18v7h-7v3h7v3h-7v3h7v3h-7v3h7v7h3v-7h3v7h3v-7h3v7h3v-7h7v-3h-7v-3h7v-3h-7v-3h7v-3h-7v-7h-3v7h-3v-7h-3v7h-3v-7zm3 10h3v3h-3zm6 0h3v3h-3zm-6 6h3v3h-3zm6 0h3v3h-3z" opacity=".2"/><path fill="#fff" d="M47 33v-3H18v3z"/><path fill="#fff" d="M34 17h-3v29h3z"/><path fill="#fff" d="M47 39v-3H18v3z"/><path fill="#fff" d="M40 17h-3v29h3z"/><path fill="#fff" d="M47 27v-3H18v3z"/><path fill="#fff" d="M28 17h-3v29h3z"/><path d="M41.08 44H23.92A2.92 2.92 0 0 1 21 41.08V23.92A2.92 2.92 0 0 1 23.92 21h17.16A2.92 2.92 0 0 1 44 23.92v17.16A2.92 2.92 0 0 1 41.08 44" opacity=".1"/><path fill="#515151" d="M41.08 43H23.92A2.92 2.92 0 0 1 21 40.08V22.92A2.92 2.92 0 0 1 23.92 20h17.16A2.92 2.92 0 0 1 44 22.92v17.16A2.92 2.92 0 0 1 41.08 43"/><path d="M25.5 24a1.5 1.5 0 1 0 0 3 1.5 1.5 0 0 0 0-3m8.57 2L29 34.03l2.156-.086L29.93 39 35 30.97l-2.156.087z" opacity=".2"/><circle cx="25.5" cy="24.5" r="1.5" fill="#fff"/><path fill="#fff" d="M34.071 25 29 33.029l2.156-.085L29.93 38 35 29.972l-2.156.084z"/><path fill="#fff" d="M32.5 3A28.5 28.5 0 0 0 4 31.5a29 29 0 0 0 .035.5A28.5 28.5 0 0 1 32.5 4a28.5 28.5 0 0 1 28.48 27.76l.02-.26A28.5 28.5 0 0 0 32.5 3" opacity=".2"/></svg>