<svg xmlns="http://www.w3.org/2000/svg" viewBox="0 0 64 64"><rect width="56" height="56" x="4" y="5" opacity=".2" ry="12.445"/><rect width="56" height="56" x="4" y="4" fill="#009f9f" ry="12.445"/><path d="M14.008 15 14 25.992 24.99 26 25 15.008Zm14 0L28 25.992 38.99 26 39 15.008Zm-14 14L14 39.992 24.99 40 25 29.008Zm14.012 0L28 50.98l21.984.02L50 29.02Z" opacity=".2"/><path fill="#fff" d="M14.008 14 14 24.992 24.99 25 25 14.008zm14 0L28 24.992 38.99 25 39 14.008zm-14 14L14 38.992 24.99 39 25 28.008zm14.012 0L28 49.98l21.984.02L50 28.02z"/><path fill="#fff" d="M16.445 4A12.42 12.42 0 0 0 4 16.445v1A12.42 12.42 0 0 1 16.445 5h31.11A12.42 12.42 0 0 1 60 17.445v-1A12.42 12.42 0 0 0 47.555 4z" opacity=".1"/></svg>