<svg xmlns="http://www.w3.org/2000/svg" viewBox="0 0 64 64"><rect width="56" height="56" x="4" y="5" opacity=".2" rx="2.8" ry="2.8"/><rect width="56" height="56" x="4" y="4" fill="#616bdd" rx="2.8" ry="2.8"/><path fill="#fff" d="M6.8 4C5.25 4 4 5.25 4 6.8v1C4 6.25 5.25 5 6.8 5h50.4A2.796 2.796 0 0 1 60 7.8v-1C60 5.25 58.75 4 57.199 4z" opacity=".1"/><rect width="10" height="10" x="15" y="16" fill="#fff" opacity=".1" rx="1.4" ry="1.4"/><rect width="10" height="10" x="27" y="16" fill="#fff" opacity=".1" rx="1.4" ry="1.4"/><rect width="10" height="10" x="39" y="16" fill="#fff" opacity=".1" rx="1.4" ry="1.4"/><rect width="10" height="10" x="27" y="28" fill="#fff" opacity=".1" rx="1.4" ry="1.4"/><rect width="10" height="10" x="27" y="40" fill="#fff" opacity=".1" rx="1.4" ry="1.4"/><rect width="10" height="10" x="15" y="15" fill="#30356e" rx="1.4" ry="1.4"/><rect width="10" height="10" x="27" y="15" fill="#30356e" rx="1.4" ry="1.4"/><rect width="10" height="10" x="39" y="15" fill="#30356e" rx="1.4" ry="1.4"/><rect width="10" height="10" x="27" y="27" fill="#30356e" rx="1.4" ry="1.4"/><rect width="10" height="10" x="27" y="39" fill="#30356e" rx="1.4" ry="1.4"/></svg>