<svg xmlns="http://www.w3.org/2000/svg" xmlns:xlink="http://www.w3.org/1999/xlink" viewBox="0 0 128 128"><defs><linearGradient id="b" x1="50%" x2="50%" y1="0%" y2="100%"><stop offset="0%" stop-color="#0ecb04"/><stop offset="100%" stop-color="#008972"/></linearGradient><linearGradient id="d" x1="50%" x2="50%" y1="0%" y2="100%"><stop offset="0%" stop-color="#c3ffbf" stop-opacity=".305"/><stop offset="100%" stop-color="#83e991" stop-opacity=".779"/></linearGradient><linearGradient id="e" x1="84.48%" x2="44.518%" y1="31.667%" y2="76.327%"><stop offset="0%" stop-color="#fff"/><stop offset="100%" stop-color="#d6ddf6"/></linearGradient><linearGradient id="f" x1="72.583%" x2="50%" y1="28.22%" y2="78.775%"><stop offset="0%" stop-color="#fff"/><stop offset="100%" stop-color="#d7ffc6"/></linearGradient><linearGradient id="k" x1="70.381%" x2="57.203%" y1="71.097%" y2="57.701%"><stop offset="0%" stop-color="#c6c6c6"/><stop offset="53.052%" stop-color="#e7e7e7"/><stop offset="100%" stop-color="#f4f4f4"/></linearGradient><linearGradient id="l" x1="80.472%" x2="50%" y1="22.839%" y2="80.867%"><stop offset="0%" stop-opacity=".035"/><stop offset="100%" stop-opacity=".08"/></linearGradient><linearGradient id="q" x1="0%" x2="99.213%" y1="50%" y2="50%"><stop offset="0%" stop-color="#fff" stop-opacity="0"/><stop offset="49.798%" stop-color="#fff" stop-opacity=".892"/><stop offset="100%" stop-color="#fff" stop-opacity="0"/></linearGradient><radialGradient id="g" cx="52.324%" cy="53.481%" r="63.701%" fx="52.324%" fy="53.481%" gradientTransform="matrix(-.46422 .84842 -.94101 -.66944 1.27 .449)"><stop offset="0%"/><stop offset="100%" stop-opacity=".148"/></radialGradient><radialGradient id="m" cx="50%" cy="50%" r="94.578%" fx="50%" fy="50%" gradientTransform="matrix(.4588 0 0 .3047 .27 .348)"><stop offset="0%" stop-color="#ebff26"/><stop offset="100%" stop-color="#f2ff3d" stop-opacity="0"/></radialGradient><radialGradient id="o" cx="50%" cy="50%" r="520.71%" fx="50%" fy="50%" gradientTransform="matrix(.0945 0 0 .072 .453 .464)"><stop offset="0%" stop-color="#f7ff81" stop-opacity=".995"/><stop offset="100%" stop-color="#f8ff98" stop-opacity="0"/></radialGradient><radialGradient id="p" cx="50%" cy="50%" r="1628.518%" fx="50%" fy="50%" gradientTransform="matrix(.0302 0 0 .0131 .485 .493)"><stop offset="0%" stop-color="#fff" stop-opacity=".995"/><stop offset="100%" stop-color="#fff" stop-opacity="0"/></radialGradient><filter id="a" width="118%" height="117.2%" x="-8.6%" y="-6.9%" filterUnits="objectBoundingBox"><feOffset dy="2" in="SourceAlpha" result="shadowOffsetOuter1"/><feGaussianBlur in="shadowOffsetOuter1" result="shadowBlurOuter1" stdDeviation="3"/><feColorMatrix in="shadowBlurOuter1" result="shadowMatrixOuter1" values="0 0 0 0 0 0 0 0 0 0 0 0 0 0 0 0 0 0 0.2 0"/><feMerge><feMergeNode in="shadowMatrixOuter1"/><feMergeNode in="SourceGraphic"/></feMerge></filter><filter id="c" width="132%" height="131.5%" x="-16%" y="-13%" filterUnits="objectBoundingBox"><feOffset dy="2" in="SourceAlpha" result="shadowOffsetOuter1"/><feGaussianBlur in="shadowOffsetOuter1" result="shadowBlurOuter1" stdDeviation="3.5"/><feColorMatrix in="shadowBlurOuter1" result="shadowMatrixOuter1" values="0 0 0 0 0 0 0 0 0 0 0 0 0 0 0 0 0 0 0.21 0"/><feMerge><feMergeNode in="shadowMatrixOuter1"/><feMergeNode in="SourceGraphic"/></feMerge></filter><filter id="i" width="119.4%" height="117.4%" x="-9.7%" y="-4.4%" filterUnits="objectBoundingBox"><feOffset dy="1" in="SourceAlpha" result="shadowOffsetOuter1"/><feGaussianBlur in="shadowOffsetOuter1" result="shadowBlurOuter1" stdDeviation=".5"/><feColorMatrix in="shadowBlurOuter1" values="0 0 0 0 0 0 0 0 0 0 0 0 0 0 0 0 0 0 0.05 0"/></filter><filter id="n" width="107.9%" height="117.1%" x="-3.9%" y="-8.6%" filterUnits="objectBoundingBox"><feGaussianBlur in="SourceGraphic" stdDeviation="1.25"/></filter><path id="h" d="M73.998-.167s-1.415 5.646-2.644 7.578c-1.946 3.058-4.154 2.322-5.916 4.889s-1.1 4.433-5.16 7.822c-2.177 1.817-6.924 2.69-6.924 2.69 12.641 0 20.644-14.135 20.644-22.98"/></defs><g fill="none" fill-rule="evenodd" filter="url(#a)" transform="translate(6 6)"><circle cx="58" cy="58" r="58" fill="url(#b)"/><g filter="url(#c)" transform="translate(10.814 21)"><path fill="#0ea141" d="M28.186 22.373h38c5.523 0 10 4.477 10 10V63c0 5.523-4.477 10-10 10h-38c-5.522 0-10-4.477-10-10V32.373c0-5.523 4.478-10 10-10"/><path fill="#96ff8f" fill-opacity=".703" fill-rule="nonzero" d="M28.135 72h1.897v1h-1.846l-.155-.002.016-1zm5.897 0v1h-2v-1zm4 0v1h-2v-1zm4 0v1h-2v-1zm4 0v1h-2v-1zm4 0v1h-2v-1zm4 0v1h-2v-1zm4 0v1h-2v-1zm4 0v1h-2v-1zm4 0v1h-2v-1zm3.468-.63.368.93a10 10 0 0 1-1.924.546l-.175-.985a9 9 0 0 0 1.73-.49m-44.952-.136q.824.365 1.71.559l-.214.977a10 10 0 0 1-1.901-.621zm48.029-1.897.71.705c-.47.473-.987.9-1.542 1.272l-.557-.83a9 9 0 0 0 1.389-1.147m-50.96-.185q.62.66 1.356 1.185l-.58.814q-.82-.584-1.506-1.316zm52.935-2.825.929.37a10 10 0 0 1-.923 1.775l-.836-.548a9 9 0 0 0 .83-1.597m-54.841-.291q.305.851.774 1.624l-.855.519a10 10 0 0 1-.86-1.806zm56.475-3.273V63q0 .9-.153 1.757l-.985-.174A9 9 0 0 0 75.186 63v-.236zm-57-.308v.567q.002.661.098 1.307l-.99.146A10 10 0 0 1 18.186 63v-.546zm57-3.692v2h-1v-2zm-57-.308v2l-1-.001v-2zm57-3.692v2h-1v-2zm-57-.308v2l-1-.001v-2zm57-3.692v2h-1v-2zm-57-.308v2l-1-.001v-2zm57-3.692v2h-1v-2zm-57-.308v2l-1-.001v-2zm57-3.692v2h-1v-2zm-57-.308v2l-1-.001v-2zm57-3.692v2h-1v-2zm-57-.308v2l-1-.001v-2zm57-3.692v2h-1v-2zm-57-.308v2l-1-.001v-2zm57-2.082v.39h-1v-.414a9 9 0 0 0-.119-1.444l.987-.162q.131.796.132 1.63m-57.817-1.91.981.19a9 9 0 0 0-.164 1.72v.082l-1-.001v-.081q.002-.981.183-1.91m56.243-1.26a9 9 0 0 0-.8-1.612l.848-.532c.353.562.651 1.162.888 1.791zm-54.71-2.433.828.561a9 9 0 0 0-.855 1.584l-.924-.385c.259-.62.578-1.21.951-1.76m52.801-.604a9 9 0 0 0-1.366-1.174l.574-.82q.824.577 1.516 1.304zm-49.4-1.355a9 9 0 0 0-1.406 1.125l-.7-.716q.718-.701 1.564-1.249zm46.785-1.648-.391.92a9 9 0 0 0-1.718-.532l.198-.98a10 10 0 0 1 1.91.592m-43.38.33a9 9 0 0 0-1.736.47l-.357-.933a10 10 0 0 1 1.93-.523zm39.478-1.12q.507 0 1.002.05l-.002.95h-3v-1zm-4 0v1h-2v-1zm-4 0v1h-2v-1zm-4 0v1h-2v-1zm-4 0v1h-2v-1zm-4 0v1h-2v-1zm-4 0v1h-2v-1zm-4 0v1h-2v-1zm-4 0v1h-2v-1zm-4 0v1h-2v-1z"/><path fill="url(#d)" d="M27.186 45h30a1 1 0 0 1 1 1v1a1 1 0 0 1-1 1h-30a1 1 0 0 1-1-1v-1a1 1 0 0 1 1-1m0 6h4a1 1 0 0 1 1 1v1a1 1 0 0 1-1 1h-4a1 1 0 0 1-1-1v-1a1 1 0 0 1 1-1m9 0h13a1 1 0 0 1 1 1v1a1 1 0 0 1-1 1h-13a1 1 0 0 1-1-1v-1a1 1 0 0 1 1-1m18 0h13a1 1 0 0 1 1 1v1a1 1 0 0 1-1 1h-13a1 1 0 0 1-1-1v-1a1 1 0 0 1 1-1m-27 6h27a1 1 0 0 1 1 1v1a1 1 0 0 1-1 1h-27a1 1 0 0 1-1-1v-1a1 1 0 0 1 1-1m16 6h18a1 1 0 0 1 1 1v1a1 1 0 0 1-1 1h-18a1 1 0 0 1-1-1v-1a1 1 0 0 1 1-1m-16 0h11a1 1 0 0 1 1 1v1a1 1 0 0 1-1 1h-11a1 1 0 0 1-1-1v-1a1 1 0 0 1 1-1" opacity=".359"/><path fill="url(#e)" d="M28.186 0h28.378q5.078 1.853 11.379 7.333 6.001 5.22 8.243 13.051v23.497h-58V10c0-5.523 4.478-10 10-10"/><path fill="url(#f)" d="M28.186 0h38c5.523 0 10 4.477 10 10v34h-58V10c0-5.523 4.478-10 10-10"/><path fill="url(#g)" fill-opacity=".28" d="M52.208 1h13.978a9 9 0 0 1 9 9v11.153q-1.35-7.988-9.093-13.763Q59.34 2.35 52.208 1"/><g transform="rotate(-90 63.676 11.322)"><use xlink:href="#h" fill="#000" filter="url(#i)"/><use xlink:href="#h" fill="url(#k)"/></g><path fill="url(#l)" d="M27.186 15h16a1 1 0 0 1 1 1v1a1 1 0 0 1-1 1h-16a1 1 0 0 1-1-1v-1a1 1 0 0 1 1-1m0 6h16a1 1 0 0 1 1 1v1a1 1 0 0 1-1 1h-16a1 1 0 0 1-1-1v-1a1 1 0 0 1 1-1m21-12h14a1 1 0 0 1 1 1v1a1 1 0 0 1-1 1h-14a1 1 0 0 1-1-1v-1a1 1 0 0 1 1-1m-21 0h16a1 1 0 0 1 1 1v1a1 1 0 0 1-1 1h-16a1 1 0 0 1-1-1v-1a1 1 0 0 1 1-1m0 24h11a1 1 0 0 1 1 1v7a1 1 0 0 1-1 1h-11a1 1 0 0 1-1-1v-7a1 1 0 0 1 1-1m21-18h19a1 1 0 0 1 1 1v7a1 1 0 0 1-1 1h-19a1 1 0 0 1-1-1v-7a1 1 0 0 1 1-1m-5 24h24a1 1 0 0 1 1 1v1a1 1 0 0 1-1 1h-24a1 1 0 0 1-1-1v-1a1 1 0 0 1 1-1m0-6h19a1 1 0 0 1 1 1v1a1 1 0 0 1-1 1h-19a1 1 0 0 1-1-1v-1a1 1 0 0 1 1-1m-16-6h4a1 1 0 0 1 1 1v1a1 1 0 0 1-1 1h-4a1 1 0 0 1-1-1v-1a1 1 0 0 1 1-1m9 0h30a1 1 0 0 1 1 1v1a1 1 0 0 1-1 1h-30a1 1 0 0 1-1-1v-1a1 1 0 0 1 1-1"/><path fill="url(#m)" d="M0 19.48 47.678 0l47.678 17.43V27L48.292 43.745 0 29.05z" filter="url(#n)" opacity=".799" transform="translate(0 21.763)"/><path fill="url(#o)" d="M7.373 18.186h80.61v7.619H7.373z" transform="translate(0 21.763)"/><path fill="url(#p)" d="M2.949 20.644h89.458v2.703H2.949z" opacity=".953" transform="translate(0 21.763)"/><path fill="url(#q)" d="M20.644 21.627h54.068v1H20.644z" opacity=".953" transform="translate(0 21.763)"/></g></g></svg>