<svg xmlns="http://www.w3.org/2000/svg" viewBox="0 0 64 64"><rect width="32" height="42" x="16" y="14" opacity=".2" rx="2.5" ry="2.5"/><rect width="32" height="42" x="16" y="13" fill="#a5a5a5" rx="2.5" ry="2.5"/><rect width="52" height="40" x="6" y="10" opacity=".2" rx="2.5" ry="2.5"/><path fill="#e4e4e4" d="M6 44v2.5C6 47.885 7.115 49 8.5 49h47c1.385 0 2.5-1.115 2.5-2.5V44z"/><path fill="#8c5edc" d="M8.5 9A2.495 2.495 0 0 0 6 11.5V44h52V11.5c0-1.385-1.115-2.5-2.5-2.5Z"/><path fill="#fff" d="M6 44h52v1H6zM8.5 9A2.495 2.495 0 0 0 6 11.5v1C6 11.115 7.115 10 8.5 10h47c1.385 0 2.5 1.115 2.5 2.5v-1c0-1.385-1.115-2.5-2.5-2.5z" opacity=".2"/><path d="M32.016 17.523a18.2 18.2 0 0 0-10.602 3.387 1 1 0 1 0 1.16 1.63 16.23 16.23 0 0 1 18.875.015 1 1 0 0 0 1.164-1.627 18.2 18.2 0 0 0-10.597-3.405m.043 4.987a13.3 13.3 0 0 0-7.805 2.484 1 1 0 0 0 1.164 1.627 11.3 11.3 0 0 1 13.244.057 1 1 0 1 0 1.18-1.616 13.3 13.3 0 0 0-7.783-2.552m-.016 5.021a8.37 8.37 0 0 0-5.006 1.627 1 1 0 1 0 1.184 1.612 6.38 6.38 0 0 1 7.613.039 1 1 0 1 0 1.201-1.6 8.38 8.38 0 0 0-4.992-1.678M32 32.5a2 2 0 0 0-2 2 2 2 0 0 0 2 2 2 2 0 0 0 2-2 2 2 0 0 0-2-2" opacity=".2"/><path fill="none" stroke="#fff" stroke-linecap="round" stroke-linejoin="round" stroke-width="2" d="M21.994 20.724a17.23 17.23 0 0 1 20.036.018"/><path fill="#fff" d="M32 31.5a2 2 0 0 0-2 2 2 2 0 0 0 2 2 2 2 0 0 0 2-2 2 2 0 0 0-2-2"/><path fill="none" stroke="#fff" stroke-linecap="round" stroke-linejoin="round" stroke-width="2" d="M24.835 24.808a12.31 12.31 0 0 1 14.417.063m-11.624 4.092a7.385 7.385 0 0 1 8.806.046"/></svg>