<svg xmlns="http://www.w3.org/2000/svg" xmlns:xlink="http://www.w3.org/1999/xlink" viewBox="0 0 96 96"><defs><linearGradient id="b" x1="50%" x2="50%" y1="0%" y2="100%"><stop offset="0%" stop-color="#df6459"/><stop offset="100%" stop-color="#bc342d"/></linearGradient><linearGradient id="c" x1="50%" x2="50%" y1="0%" y2="100%"><stop offset="0%" stop-color="#bb86cd"/><stop offset="100%" stop-color="#864e9f"/></linearGradient><linearGradient id="d" x1="50%" x2="50%" y1="0%" y2="100%"><stop offset="0%" stop-color="#61be47"/><stop offset="100%" stop-color="#328a22"/></linearGradient><filter id="a" width="126.7%" height="129.3%" x="-13.3%" y="-14.6%" filterUnits="objectBoundingBox"><feOffset dy="2" in="SourceAlpha" result="shadowOffsetOuter1"/><feGaussianBlur in="shadowOffsetOuter1" result="shadowBlurOuter1" stdDeviation="2"/><feColorMatrix in="shadowBlurOuter1" result="shadowMatrixOuter1" values="0 0 0 0 0 0 0 0 0 0 0 0 0 0 0 0 0 0 0.2 0"/><feMerge><feMergeNode in="shadowMatrixOuter1"/><feMergeNode in="SourceGraphic"/></feMerge></filter></defs><g fill="none" filter="url(#a)" transform="translate(3 7)"><path fill="url(#b)" d="M0 61.5C0 72.822 9.178 82 20.5 82S41 72.822 41 61.5 31.822 41 20.5 41 0 50.178 0 61.5"/><path fill="url(#c)" d="M49 61.5C49 72.822 58.178 82 69.5 82S90 72.822 90 61.5a20.5 20.5 0 1 0-41 0"/><path fill="url(#d)" d="M24 20.5C24 31.822 33.178 41 44.5 41S65 31.822 65 20.5 55.822 0 44.5 0 24 9.178 24 20.5"/></g></svg>