<svg xmlns="http://www.w3.org/2000/svg" viewBox="0 0 64 64"><rect width="44" height="56" x="10" y="5" opacity=".2" rx="3" ry="3"/><rect width="44" height="56" x="10" y="4" fill="#4f4f4f" rx="3" ry="3"/><rect width="34" height="46" x="15" y="10" opacity=".1" rx="2"/><rect width="34" height="46" x="15" y="9" fill="#6c6c6c" rx="2"/><path fill="#fff" d="M17 9c-1.108 0-2 .892-2 2v1c0-1.108.892-2 2-2h30c1.108 0 2 .892 2 2v-1c0-1.108-.892-2-2-2z" opacity=".1"/><rect width="6" height="11" x="12" y="19" opacity=".1" rx="1.5" ry="1.375"/><rect width="6" height="11" x="12" y="18" fill="#8e8e8e" rx="1.5" ry="1.375"/><rect width="6" height="11" x="12" y="36" opacity=".1" rx="1.5" ry="1.375"/><rect width="6" height="11" x="12" y="35" fill="#8e8e8e" rx="1.5" ry="1.375"/><path fill="#fff" d="M13 4c-1.662 0-3 1.338-3 3v1c0-1.662 1.338-3 3-3h38c1.662 0 3 1.338 3 3V7c0-1.662-1.338-3-3-3z" opacity=".1"/><circle cx="-43" cy="-32" r="5" opacity=".1" transform="rotate(90)scale(-1 1)"/><circle cx="-42" cy="-32" r="5" fill="#37474f" transform="rotate(90)scale(-1 1)"/><circle cx="-22" cy="32" r="10" opacity=".1" transform="rotate(-90)"/><circle cx="-21" cy="32" r="10" fill="#d9d9d9" transform="rotate(-90)"/><path fill="none" stroke="#000" stroke-width="2" d="M32 27.666V31m0-20v20m-5-18.66 10 17.32M23.34 16l17.32 10M22 21h20m-18.66 5 17.32-10M27 29.66l10-17.32" opacity=".2"/><circle cx="32" cy="22" r="6" opacity=".1"/><circle cx="-21" cy="32" r="6" fill="#b3b3b3" transform="rotate(-90)"/><circle cx="-21" cy="-32" r="4" fill="#37474f" transform="rotate(90)scale(-1 1)"/><circle cx="-21" cy="-32" r="3" fill="#b3b3b3" transform="rotate(90)scale(-1 1)"/><path fill="none" stroke="#000" stroke-linecap="round" stroke-width="4" d="M32 52v-9" opacity=".2"/><path fill="none" stroke="#bdbdbd" stroke-linecap="round" stroke-width="4" d="M32 51v-9"/><circle cx="-43" cy="-32" r="3" opacity=".2" transform="rotate(90)scale(-1 1)"/><circle cx="-42" cy="-32" r="3" fill="#eee" transform="rotate(90)scale(-1 1)"/><path fill="#fff" d="M32 39a3 3 0 0 0-3 3 3 3 0 0 0 .047.5A3 3 0 0 1 32 40a3 3 0 0 1 2.955 2.492A3 3 0 0 0 35 42a3 3 0 0 0-3-3" opacity=".2"/><path d="M12 22h6v3h-6zm0 17h6v3h-6z" opacity=".1"/></svg>