<svg xmlns="http://www.w3.org/2000/svg" viewBox="0 0 64 64"><path d="M8 25.404V56.18C8 57.742 9.26 59 10.824 59h42.352A2.816 2.816 0 0 0 56 56.18V25.403L32 47.142Z" opacity=".2"/><path fill="#858585" d="M32.106 3c-1.331-.004-2.667.652-4.012 1.982L8 24.404l24 25.134 24-25.134L36.094 4.98C34.766 3.67 33.438 3.005 32.106 3"/><path fill="#fff" d="M32.107 3c-1.331-.004-2.668.653-4.013 1.982L8 24.404l.496.52L28.094 5.982c1.345-1.33 2.682-1.986 4.013-1.982 1.332.005 2.659.668 3.987 1.98l19.412 18.942.494-.518L36.094 4.98C34.766 3.668 33.439 3.005 32.107 3" opacity=".1"/><rect width="40" height="44" x="12" y="8" fill="#fff" rx="4.286" ry="4.258"/><path fill="#b7b7b7" d="M8 24.404V55.18C8 56.742 9.26 58 10.824 58h42.352A2.816 2.816 0 0 0 56 55.18V24.403L32 46.142Z"/><path fill="#dedede" d="M32.108 37c-1.332-.004-2.67.64-4.015 1.944L8.843 57.2a2.83 2.83 0 0 0 1.98.801h42.353c.775 0 1.474-.307 1.983-.804L36.095 38.944c-1.328-1.287-2.656-1.94-3.987-1.944"/><path fill="#fff" d="M32.107 37c-1.331-.004-2.668.64-4.013 1.943L8.844 57.2c.176.172.382.31.6.432l18.65-17.688c1.345-1.304 2.682-1.947 4.013-1.943 1.332.004 2.659.656 3.987 1.943l18.47 17.684c.216-.121.419-.26.594-.432L36.094 38.943c-1.328-1.287-2.655-1.939-3.987-1.943" opacity=".2"/><path d="M60 48a14 14 0 0 1-14 14 14 14 0 0 1-14-14 14 14 0 0 1 14-14 14 14 0 0 1 14 14" opacity=".2"/><path fill="#9141ac" d="M60 47a14 14 0 0 1-14 14 14 14 0 0 1-14-14 14 14 0 0 1 14-14 14 14 0 0 1 14 14"/><circle cx="46" cy="47" r="11" fill="#fff"/><path fill="none" stroke="#68676b" stroke-linecap="round" stroke-linejoin="round" stroke-width="2.063" d="M41.1 41.962 46 47"/><circle cx="22.863" cy="61.662" r="3" fill="#42403c" overflow="visible" transform="rotate(-24.04)"/></svg>