<svg xmlns="http://www.w3.org/2000/svg" viewBox="0 0 64 64"><path d="M32 5A28 28 0 0 0 4 33a28 28 0 0 0 28 28 28 28 0 0 0 28-28A28 28 0 0 0 32 5" opacity=".2"/><path fill="#ff9426" d="M32 4A28 28 0 0 0 4 32a28 28 0 0 0 28 28 28 28 0 0 0 28-28A28 28 0 0 0 32 4"/><circle cx="32" cy="33" r="24" opacity=".2"/><circle cx="32" cy="32" r="24" fill="#fff"/><path fill="#f8e12e" d="M46.102 17.818c-1.755-1.772-3.756-3.061-4.937-3.468-.005.007.032-.034.027-.028-.143.414-6.364 14.85-6.364 14.85l14.85-6.364c-.455-1.23-1.822-3.219-3.576-4.99M31.944 12c-2.495-.012-4.821.491-5.944 1.039.002.008-.002-.047 0-.039.191.394 6 15 6 15l6-15c-1.191-.548-3.564-.988-6.056-1"/><path fill="#f9a726" d="M17.897 17.818c1.756-1.772 3.756-3.061 4.938-3.468.005.007-.032-.034-.028-.028.144.414 6.364 14.85 6.364 14.85l-14.849-6.364c.455-1.23 1.821-3.219 3.575-4.99m28.284 28.284c1.773-1.755 3.062-3.756 3.468-4.937-.006-.005.035.032.028.028-.413-.144-14.849-6.364-14.849-6.364l6.364 14.849c1.229-.455 3.219-1.822 4.989-3.576m-28.363 0c-1.772-1.755-3.061-3.756-3.468-4.937.007-.005-.035.032-.028.028.413-.144 14.85-6.364 14.85-6.364l-6.364 14.849c-1.23-.455-3.219-1.822-4.99-3.576M12 31.944c-.012-2.495.491-4.821 1.039-5.944.008.002-.047-.001-.039 0 .394.191 15 6 15 6l-15 6c-.548-1.191-.988-3.564-1-6.056m40 0c.012-2.495-.491-4.821-1.04-5.944-.008.002.048-.001.04 0-.394.191-15 6-15 6l15 6c.547-1.191.988-3.564 1-6.056M31.944 52c-2.495.012-4.821-.491-5.944-1.039.002-.008-.002.047 0 .039.191-.394 6-15 6-15l6 15c-1.191.548-3.564.988-6.056 1"/><path fill="#fff" d="M32 4A28 28 0 0 0 4 32l.021.406A28 28 0 0 1 32 5a28 28 0 0 1 27.979 27.578A28 28 0 0 0 60 32 28 28 0 0 0 32 4" opacity=".2"/></svg>