<svg xmlns="http://www.w3.org/2000/svg" viewBox="0 0 64 64"><path d="M10 27v34h22v-4h22V27zM4 6h11v11H4zm22 0h11v11H26z" opacity=".2"/><path fill="#91d136" d="M54 27h-6l-1-1h-9l-1 1H26l-1-1h-8l-1 1h-6v33h12l1-1 1-19 29-1 1-1z"/><path fill="#4f4f4f" d="M32 38h22v18H32l-1-2V39z"/><path fill="#2f2f2f" d="M21 38h11v11l-1 1h-9l-1-1z"/><path fill="#d4deac" d="M21 49h11v11H21z"/><path fill="#7bb429" d="M4 5h11v11H4zm22 0h11v11H26z"/><path d="M32 38h22v1H32z" opacity=".2"/><path fill="#fff" d="M10 27h44v1H10zM4 5h11v1H4zm22 0h11v1H26z" opacity=".2"/><path fill="#7bb429" d="M15 16h11v11H15zm22 0h11v11H37z"/><path fill="#fff" d="M15 16h11v1H15zm22 0h11v1H37z" opacity=".2"/></svg>