<svg xmlns="http://www.w3.org/2000/svg" viewBox="0 0 64 64"><rect width="28" height="8" x="18" y="53" opacity=".2" rx="13.735" ry="3.893"/><path d="M12.02 11q-.018.497-.02 1c0 13.85 8.92 25 20 25s20-11.15 20-25c0-.336-.01-.668-.02-1Z" opacity=".2"/><path fill="#8899a6" d="M30 32h4v20h-4z"/><rect width="28" height="8" x="18" y="52" fill="#8899a6" rx="13.735" ry="3.893"/><path fill="#8899a6" d="M20 53.865 32 49l12 4.865Z"/><path fill="#ccd6dd" d="M17.2 10c0 12.41 7.492 22.4 16.8 22.4S50.8 22.41 50.8 10Z"/><path fill="#8899a6" d="M12.02 10q-.018.497-.02 1c0 13.85 8.92 25 20 25s20-11.15 20-25c0-.336-.01-.668-.02-1Z"/><path fill="#ccd6dd" d="M16 12c0 11.08 7.136 20 16 20s16-8.92 16-20Z"/><ellipse cx="32" cy="10" fill="#ccd6dd" rx="20" ry="6"/><path fill="#795548" d="M33 18a23 23 0 0 0-11.528 3.156C23.508 25.242 27.45 28 32 28c4.876 0 9.052-3.168 10.934-7.742A23 23 0 0 0 33 18"/><path fill="none" stroke="#fff" stroke-linecap="round" stroke-width="4" d="M17 12s5 2 15 2 15-2 15-2"/><path fill="#fff" d="M32 4a20 6 0 0 0-20 6 20 6 0 0 0 .102.5A20 6 0 0 1 32 5a20 6 0 0 1 19.91 5.441A20 6 0 0 0 52 10a20 6 0 0 0-20-6" opacity=".2"/></svg>