<svg xmlns="http://www.w3.org/2000/svg" viewBox="0 0 64 64"><rect width="56" height="50" x="4" y="8" opacity=".2" rx="4.2" ry="4.167"/><rect width="56" height="50" x="4" y="7" fill="#4f4f4f" rx="4.2" ry="4.167"/><g opacity=".2" transform="translate(0 16)"><rect width="16.763" height="5.588" x="-17.21" y="30.21" rx="1.397" ry="1.397" transform="matrix(.724 -.6898 .724 .6898 0 0)"/><rect width="16.763" height="5.588" x="19.03" y="-6.04" rx="1.397" ry="1.397" transform="matrix(.724 .6898 .724 -.6898 0 0)"/></g><rect width="17" height="6" x="26" y="46" opacity=".2" rx="1.5" ry="1.5"/><rect width="17" height="6" x="26" y="45" fill="#62c9ea" rx="1.5" ry="1.5"/><rect width="16.763" height="5.588" x="-28.088" y="41.078" fill="#5f96a8" rx="1.397" ry="1.397" transform="matrix(.72401 -.68979 .72401 .68979 0 0)"/><rect width="16.763" height="5.588" x="29.908" y="-16.908" fill="#62c9ea" rx="1.397" ry="1.397" transform="matrix(.72401 .68979 .72401 -.68979 0 0)"/><path fill="#fff" d="M8.2 7C5.871 7 4 8.86 4 11.168v1C4 9.86 5.872 8 8.2 8h47.6c2.328 0 4.2 1.86 4.2 4.168v-1C60 8.86 58.128 7 55.8 7z" opacity=".1"/><path d="m17.5 39.998-.526.5 3.563 3.395c.175.166.384.28.605.343l1.343-1.279a1.48 1.48 0 0 1-1.948-.065z" opacity=".2"/><rect width="16.763" height="5.588" x="29.908" y="-16.908" fill="#62c9ea" rx="1.397" ry="1.397" transform="matrix(.72401 .68979 .72401 -.68979 0 0)"/><rect width="16.763" height="5.588" x="29.908" y="-16.908" fill="#62c9ea" rx="1.397" ry="1.397" transform="matrix(.72401 .68979 .72401 -.68979 0 0)"/></svg>