<svg xmlns="http://www.w3.org/2000/svg" xmlns:xlink="http://www.w3.org/1999/xlink" viewBox="0 0 64 64"><defs><linearGradient xlink:href="#a" id="b" x1="5" x2="29" y1="4" y2="21" gradientTransform="matrix(2 0 0 2 -2 0)" gradientUnits="userSpaceOnUse"/><linearGradient id="a"><stop offset="0" stop-color="#1c71d8"/><stop offset=".5" stop-color="#aa63cd"/><stop offset="1" stop-color="#ffa348"/></linearGradient><linearGradient xlink:href="#a" id="c" x1="14" x2="46" y1="16" y2="48" gradientUnits="userSpaceOnUse"/></defs><rect width="56" height="56" x="4" y="5" opacity=".2" rx="2" ry="2"/><rect width="56" height="56" x="4" y="4" fill="#e4e4e4" rx="2" ry="2"/><path d="M8 42h48v1H8z" opacity=".1"/><path fill="url(#b)" d="M8 8h48v34H8z"/><circle cx="30" cy="32" r="16" fill="url(#c)"/><circle cx="30" cy="32" r="16" fill="#fff" opacity=".2"/><circle cx="49" cy="15" r="5" fill="#fff" opacity=".5"/><path fill="#fff" d="M6 4c-1.108 0-2 .892-2 2v1c0-1.108.892-2 2-2h52c1.108 0 2 .892 2 2V6c0-1.108-.892-2-2-2z" opacity=".2"/><path fill="#fff" d="m16 38 4-8s2-4 5-4 5 4 5 4l8 16-8 2-8-2-4-4h-6Z" opacity=".5"/><path fill="#fff" d="m30 48 6-14s2-4 5-4 5 4 5 4v2l4 6h-6l-4 4Z" opacity=".4"/><path d="M30 15a18 18 0 0 0-18 18 18 18 0 0 0 18 18 18 18 0 0 0 18-18 18 18 0 0 0-18-18m0 4a14 14 0 0 1 14 14 14 14 0 0 1-14 14 14 14 0 0 1-14-14 14 14 0 0 1 14-14" opacity=".1"/><path fill="#4f4f4f" d="M30 14a18 18 0 0 0-18 18 18 18 0 0 0 18 18 18 18 0 0 0 18-18 18 18 0 0 0-18-18m0 4a14 14 0 0 1 14 14 14 14 0 0 1-14 14 14 14 0 0 1-14-14 14 14 0 0 1 14-14"/></svg>