<svg xmlns="http://www.w3.org/2000/svg" viewBox="0 0 64 64"><path d="M32 61A28 28 0 0 1 4 33.001a28 28 0 0 1 .044-1.172A28 28 0 0 0 31.999 59a28 28 0 0 0 27.955-26.827 28 28 0 0 1 .044.828A28 28 0 0 1 31.999 61Z" opacity=".2"/><rect width="56" height="56" x="4" y="4" fill="#8ac249" rx="27.999" ry="27.999"/><path d="M51.78 12.22 12.218 51.78a27.91 27.91 0 0 0 39.56 0 27.913 27.913 0 0 0 0-39.561z" opacity=".1"/><path fill="#f2f2f2" d="m12.22 51.78 17.308-22.253 2.342 2.342 2.603 2.603z"/><path fill="#f34235" d="M51.78 12.22 29.525 29.53l4.945 4.945z"/><path fill="#fff" d="M51.78 12.22 12.218 51.78a27.913 27.913 0 0 1 0-39.561 27.913 27.913 0 0 1 39.56 0z" opacity=".2"/><path fill="#fff" d="M32 4.002a28 28 0 0 0-28 28 28 28 0 0 0 .018.492A28 28 0 0 1 32 5.002a28 28 0 0 1 27.975 27.49A28 28 0 0 0 60 32 28 28 0 0 0 32 4.002" opacity=".2"/></svg>