<svg xmlns="http://www.w3.org/2000/svg" viewBox="0 0 64 64"><rect width="44" height="56" x="10" y="5" opacity=".2" rx="3" ry="3"/><rect width="44" height="56" x="10" y="4" fill="#e97e10" rx="3" ry="3"/><path d="M38 5v28l4-4 4 4V5Z" opacity=".2"/><path fill="#e4e4e4" d="M38 4v28l4-4 4 4V4z"/><path d="M13 4c-1.662 0-3 1.338-3 3v50c0 1.662 1.338 3 3 3h5V4z" opacity=".2"/><path fill="#fff" d="M13 4c-1.662 0-3 1.338-3 3v1c0-1.662 1.338-3 3-3h38c1.662 0 3 1.338 3 3V7c0-1.662-1.338-3-3-3z" opacity=".2"/></svg>