<svg xmlns="http://www.w3.org/2000/svg" viewBox="0 0 64 64"><circle cx="32" cy="33" r="28" opacity=".2"/><circle cx="32" cy="32" r="28" fill="#4caf50"/><path d="M31.284 16a30 30 0 0 0-5.747.526c-6.306 1.212-10.69 4.155-12.085 8.107-.448 1.27-.529 2.1-.39 4.042.471 6.621 2.9 12.36 6.95 16.419 2.732 2.738 6.122 4.448 9.59 4.839.28.032.937.062 1.46.066 2.34.02 4.484-.487 6.697-1.585 2.428-1.205 4.711-3.15 6.477-5.517.221-.297.424-.567.454-.6.031-.037.199.08.417.293 1.736 1.691 4.322 2.281 6.334 1.444 3.188-1.327 5.286-5.577 4.416-8.945-.171-.661-.602-1.59-.994-2.139-1.185-1.662-3.149-2.695-5.152-2.712-.83-.006-.774.075-.583-.84.207-.998.278-2.443.16-3.188-.507-3.193-2.665-5.81-6.311-7.65-3.289-1.66-7.456-2.544-11.693-2.56m18.33 17.769q.205.002.416.039c1.63.28 2.687 1.734 2.457 3.38-.223 1.59-1.29 3.221-2.344 3.581-.563.192-1.434.067-2.014-.29-.562-.346-1.053-.937-1.254-1.506-.09-.258-.088-.29.147-1.012.133-.41.408-1.41.609-2.222l.365-1.475.387-.193a2.7 2.7 0 0 1 1.232-.302" opacity=".2"/><path fill="#fff" d="M31.284 15a30 30 0 0 0-5.747.526c-6.306 1.212-10.69 4.155-12.085 8.107-.448 1.27-.529 2.1-.39 4.042.471 6.621 2.9 12.36 6.95 16.419 2.732 2.738 6.122 4.448 9.59 4.839.28.032.937.062 1.46.066 2.34.02 4.484-.487 6.697-1.585 2.428-1.205 4.711-3.15 6.477-5.517.221-.297.424-.567.454-.6.031-.037.199.08.417.293 1.736 1.691 4.322 2.281 6.334 1.444 3.188-1.327 5.286-5.577 4.416-8.945-.171-.661-.602-1.59-.994-2.139-1.185-1.662-3.149-2.695-5.152-2.712-.83-.006-.774.075-.583-.84.207-.998.278-2.443.16-3.188-.507-3.193-2.665-5.81-6.311-7.65-3.289-1.66-7.456-2.544-11.693-2.56m18.33 17.769q.205.002.416.039c1.63.28 2.687 1.734 2.457 3.38-.223 1.59-1.29 3.221-2.344 3.581-.563.192-1.434.067-2.014-.29-.562-.346-1.053-.937-1.254-1.506-.09-.258-.088-.29.147-1.012.133-.41.408-1.41.609-2.222l.365-1.475.387-.193a2.7 2.7 0 0 1 1.232-.302"/><path fill="#c0ca33" d="M31.5 17A15.5 8.5 0 0 1 47 25.5 15.5 8.5 0 0 1 31.5 34 15.5 8.5 0 0 1 16 25.5 15.5 8.5 0 0 1 31.5 17"/><path fill="#fff" d="M32 4A28 28 0 0 0 4 32a28 28 0 0 0 .035.5A28 28 0 0 1 32 5a28 28 0 0 1 27.982 27.252L60 32A28 28 0 0 0 32 4" opacity=".2"/><path d="M31.5 17A15.5 8.5 0 0 0 16 25.5a15.5 8.5 0 0 0 .06.5 15.5 8.5 0 0 1 15.44-8 15.5 8.5 0 0 1 15.455 7.879A15.5 8.5 0 0 0 47 25.5 15.5 8.5 0 0 0 31.5 17" opacity=".2"/></svg>