<svg xmlns="http://www.w3.org/2000/svg" viewBox="0 0 64 64"><rect width="56" height="44" x="4" y="16" opacity=".2" ry="6"/><rect width="56" height="44" x="4" y="15" fill="#e97e10" ry="6"/><rect width="8" height="8" x="34" y="29" fill="#fff" opacity=".6" ry="2"/><rect width="8" height="8" x="46" y="41" fill="#fff" opacity=".6" ry="2"/><path fill="#643106" d="M10 9c-3.324 0-6 2.676-6 6v6h56v-6c0-3.324-2.676-6-6-6Z"/><path fill="#fff" d="M10 9c-3.324 0-6 2.676-6 6v1c0-3.324 2.676-6 6-6h44c3.324 0 6 2.676 6 6v-1c0-3.324-2.676-6-6-6Z" opacity=".1"/><rect width="6" height="12" x="14" y="5" fill="#351a03" ry="3"/><rect width="6" height="12" x="44" y="5" fill="#351a03" ry="3"/><path fill="none" stroke="#fff" stroke-linecap="round" stroke-linejoin="round" stroke-width="2" d="m35 45 2 2.417L42 42"/><rect width="8" height="8" x="46" y="29" fill="#fff" ry="2"/><rect width="8" height="8" x="22" y="29" fill="#fff" ry="2"/><rect width="8" height="8" x="22" y="41" fill="#fff" ry="2"/><rect width="8" height="8" x="10" y="41" fill="#fff" ry="2"/><path d="M4 21h56v1H4z" opacity=".2"/></svg>