<svg xmlns="http://www.w3.org/2000/svg" xmlns:xlink="http://www.w3.org/1999/xlink" viewBox="0 0 96 96"><defs><linearGradient id="b" x1="50%" x2="50%" y1="0%" y2="100%"><stop offset="0%" stop-color="#4b4b4b"/><stop offset="100%"/></linearGradient><filter id="a" width="130%" height="130%" x="-15%" y="-15%" filterUnits="objectBoundingBox"><feOffset dy="2" in="SourceAlpha" result="shadowOffsetOuter1"/><feGaussianBlur in="shadowOffsetOuter1" result="shadowBlurOuter1" stdDeviation="2"/><feColorMatrix in="shadowBlurOuter1" result="shadowMatrixOuter1" values="0 0 0 0 0 0 0 0 0 0 0 0 0 0 0 0 0 0 0.2 0"/><feMerge><feMergeNode in="shadowMatrixOuter1"/><feMergeNode in="SourceGraphic"/></feMerge></filter></defs><g fill="none" filter="url(#a)" transform="translate(8 8)"><path fill="url(#b)" d="M76 80H4c-2.21 0-4-1.79-4-4V4c0-2.21 1.79-4 4-4h72c2.21 0 4 1.79 4 4v72c0 2.21-1.79 4-4 4"/><path fill="#fff" d="M61.448 32.382 50.878 6.196l-6.784 15.348s-1.936-.548-3.298-.548-3.298.548-3.298.548L30.714 6.196l-10.57 26.186s-4.22 8.71 2.356 18.462l16.596 22.972a2 2 0 0 0 3.264-.03l15.93-22.942c6.58-9.752 3.158-18.462 3.158-18.462"/><ellipse cx="30.049" cy="42.204" fill="#000" rx="4.85" ry="9.834" transform="rotate(-39.47 30.049 42.204)"/><ellipse cx="51.375" cy="42.242" fill="#000" rx="4.85" ry="9.834" transform="rotate(-140.53 51.375 42.242)"/><path fill="#000" d="M45.594 65.062a1 1 0 0 1-.864-.496l-3.998-6.858-3.946 6.812a1.002 1.002 0 0 1-1.732-1.002l4.806-8.3c.178-.308.508-.498.864-.5h.002c.356 0 .686.188.864.496l4.866 8.344a.998.998 0 0 1-.862 1.504"/></g></svg>