<svg xmlns="http://www.w3.org/2000/svg" viewBox="0 0 64 64"><circle cx="32" cy="33" r="28" opacity=".2"/><circle cx="32" cy="32" r="28" fill="#29d682"/><path fill="#fff" d="M32 4A28 28 0 0 0 4 32a28 28 0 0 0 .021.586A28 28 0 0 1 32 5a28 28 0 0 1 27.979 27.414L60 32A28 28 0 0 0 32 4" opacity=".2"/><path d="M23 16v8h-8v4h8v3h-8v4h8v3h-8v4h8v8h4v-8h3v8h4v-8h3v8h4v-8h8v-4h-8v-3h8v-4h-8v-3h8v-4h-8v-8h-4v8h-3v-8h-4v8h-3v-8z" opacity=".2"/><path fill="#e4e4e4" d="M23 15v8h-8v4h8v3h-8v4h8v3h-8v4h8v8h4v-8h3v8h4v-8h3v8h4v-8h8v-4h-8v-3h8v-4h-8v-3h8v-4h-8v-8h-4v8h-3v-8h-4v8h-3v-8z"/><rect width="22" height="22" x="21" y="22" opacity=".1" rx="3" ry="3"/><rect width="22" height="22" x="21" y="21" fill="#3f3f3f" rx="3" ry="3"/><circle cx="26" cy="26" r="3" fill="#fff"/></svg>