<svg xmlns="http://www.w3.org/2000/svg" viewBox="0 0 64 64"><rect width="45" height="56" x="-55" y="-60" opacity=".2" rx="2.813" ry="2.8" transform="rotate(90)scale(-1 1)"/><rect width="45" height="56" x="-54" y="-60" fill="#e2d144" rx="2.813" ry="2.8" transform="rotate(90)scale(-1 1)"/><path d="M12 9h3v22h-3zm6 0h3v11h-3zm24 0h3v17h-3zM8 34v17h11V34zm3 3h5v11h-5zM24 9h3v11h-3zm6 0h3v11h-3zm6 0h3v11h-3zm12 0h3v11h-3zm6 0h3v11h-3z" opacity=".5"/><path fill="#fff" d="M6.8 9A2.8 2.8 0 0 0 4 11.813v1A2.8 2.8 0 0 1 6.8 10h50.4a2.8 2.8 0 0 1 2.8 2.813v-1A2.8 2.8 0 0 0 57.2 9z" opacity=".2"/></svg>