<svg xmlns="http://www.w3.org/2000/svg" viewBox="0 0 64 64"><rect width="56" height="56" x="4" y="4" opacity=".2" rx="3" ry="3"/><path fill="#6aa22a" d="M60 31v25c0 1.662-1.338 3-3 3H30V31Z"/><path fill="#71c454" d="M4 29v27c0 1.662 1.338 3 3 3h25V29Z"/><path fill="#86d478" d="M7 3C5.338 3 4 4.338 4 6v25h30V3Z"/><path fill="#36862c" d="M57 3c1.662 0 3 1.338 3 3v25H32V3Z"/><path fill="#fff" d="M7 3C5.338 3 4 4.338 4 6v1c0-1.662 1.338-3 3-3h50c1.662 0 3 1.338 3 3V6c0-1.662-1.338-3-3-3z" opacity=".2"/><circle cx="46" cy="47" r="16" opacity=".2"/><circle cx="46" cy="46" r="16" fill="#3f3f3f"/><path fill="#3f3f3f" d="M18 12v6h-6v2h6v6h2v-6h6v-2h-6v-6Zm22 6v2h12v-2ZM12.476 39 11 40.478 16.524 46 11 51.522 12.476 53l5.523-5.524L23.522 53 25 51.522 19.475 46 25 40.478 23.522 39l-5.523 5.524Z"/><path fill="#ebebeb" d="M40 42v2h12v-2Zm0 6v2h12v-2Z"/></svg>