<svg xmlns="http://www.w3.org/2000/svg" viewBox="0 0 64 64"><path d="M10 16v44h39.691C52.08 60 54 58.131 54 55.809V20.19c0-2.32-1.921-4.19-4.309-4.19Z" opacity=".2"/><path fill="#e4e4e4" d="M10 15v44h39.691C52.08 59 54 57.131 54 54.809V19.19c0-2.32-1.921-4.19-4.309-4.19Z"/><path d="M10 5v50h40.875C52.606 55 54 53.48 54 51.592V8.408C54 6.52 52.606 5 50.875 5H29Z" opacity=".1"/><path fill="#fa5e4a" d="M16 54h8v10l-4-3.75L16 64Zm0 0"/><path fill="#229460" d="M10 4v50h40.875C52.606 54 54 52.48 54 50.592V7.408C54 5.52 52.606 4 50.875 4H29Z"/><path fill="#2ec27e" d="M10 11h44v35H10Zm0 0"/><path fill="#fff" d="M10 4v1h40.875C52.606 5 54 6.52 54 8.408v-1C54 5.52 52.606 4 50.875 4H29Z" opacity=".2"/><path d="m24.434 19-6.325 18.816-2.109.399V39h6v-.785l-1.785-.399L21.684 33h7.113l1.844 4.816-2.641.399V39h8v-.785l-2.355-.399L27.062 19Zm.648 3.527 3.285 8.5h-5.863ZM41.828 25c-1.216 0-2.726.167-4.328.5v3h.934l.504-1.746c.82-.447 1.827-.668 2.816-.668q1.096 0 1.613.656c.356.438.59 1.116.59 2.04v2.19l-2.547.055c-1.503.029-2.35.23-3.14.543q-1.189.456-1.739 1.34-.532.871-.531 2.215C36 37.789 37.191 39 39.574 39c1.75 0 3.342-.54 4.469-1.625l.23 1.625H48v-.648l-1-.36v-9.34c-.009-1.236-.4-2.154-1.121-2.754-.712-.599-2.528-.898-4.05-.898M44 32.02v4.625c-.494.228-.888.422-1.383.574-.484.142-.765.21-1.437.21-1.414 0-2.121-.696-2.121-2.37q0-1.57.699-2.243c.474-.447 1.073-.69 2.398-.738z" opacity=".1"/><path fill="#3f3f3f" d="m24.434 18-6.325 18.816-2.109.399V38h6v-.785l-1.785-.399L21.684 32h7.113l1.844 4.816-2.641.399V38h8v-.785l-2.355-.399L27.062 18Zm.648 3.527 3.285 8.5h-5.863ZM41.828 24c-1.216 0-2.726.167-4.328.5v3h.934l.504-1.746c.82-.447 1.827-.668 2.816-.668q1.096 0 1.613.656c.356.438.59 1.116.59 2.04v2.19l-2.547.055c-1.503.029-2.35.23-3.14.543q-1.189.456-1.739 1.34-.532.871-.531 2.215C36 36.789 37.191 38 39.574 38c1.75 0 3.342-.54 4.469-1.625l.23 1.625H48v-.648l-1-.36v-9.34c-.009-1.236-.4-2.154-1.121-2.754-.712-.599-2.528-.898-4.05-.898M44 31.02v4.625c-.494.228-.888.422-1.383.574-.484.142-.765.21-1.437.21-1.414 0-2.121-.696-2.121-2.37q0-1.57.699-2.243c.474-.447 1.073-.69 2.398-.738z"/></svg>