<svg xmlns="http://www.w3.org/2000/svg" viewBox="0 0 64 64"><path d="M23.29 57.643c-9.406-1.46-16.418-7.406-18.704-15.863-.818-3.024-.775-7.708.1-11.006C7.574 19.9 17.515 11.114 29.91 8.477c3.183-.677 9.478-.625 12.408.103 9.323 2.316 15.235 7.85 17.218 16.117.742 3.093.58 7.77-.382 10.982-1.452 4.852-3.742 8.606-7.584 12.432-7.504 7.475-18.232 11.091-28.279 9.532" opacity=".2"/><path fill="#4f4f4f" d="M23.29 56.643c-9.406-1.46-16.418-7.406-18.704-15.863-.818-3.024-.775-7.708.1-11.006C7.574 18.9 17.515 10.114 29.91 7.477c3.183-.677 9.478-.625 12.408.103 9.323 2.316 15.235 7.85 17.218 16.117.742 3.093.58 7.77-.382 10.982-1.452 4.852-3.742 8.606-7.584 12.432-7.504 7.475-18.232 11.091-28.279 9.532"/><path d="M50.834 16.281 35.33 19.838 26 17.723v4.256l-12 2.753v5.7l16.008-3.655.002-.013A3.5 3.5 0 0 1 33.5 23a3.5 3.5 0 0 1 3.227 2.152l15.976-3.6a21.5 21.5 0 0 0-1.869-5.27m2.328 8.803-5.658 1.297c-.13.833-.28 1.64-.488 2.385-1.05 3.742-2.893 6.482-8.282 8.818-5.852 2.537-16.77 4.335-24.734 6.11v5.683c3.38-.781 7.658-1.567 12-2.473V50h8v-4.977c2.523-.689 4.914-1.455 6.977-2.35 6.608-2.863 10.043-7.463 11.433-12.42.355-1.264.594-2.543.766-3.832q.026-.2.023-.402c-.004-.319-.02-.626-.037-.934M27 31.209l-13 2.916v5.82l13-2.918z" opacity=".2"/><path fill="#ff4b4b" d="m53.162 24.084-5.658 1.297c-.13.833-.28 1.64-.49 2.385-1.048 3.742-2.89 6.482-8.279 8.818-5.852 2.538-16.771 4.335-24.735 6.11v5.682c7.54-1.741 19.4-3.417 26.977-6.703 6.608-2.865 10.043-7.464 11.433-12.42.354-1.265.593-2.545.765-3.834q.028-.2.025-.401c-.004-.319-.022-.625-.038-.934"/><path fill="#ff4b4b" d="m14 33.124 13-2.916v5.82l-13 2.916zm36.834-17.843L14 23.732v5.7l16.008-3.655.002-.013A4 4 0 0 1 30 25.5a3.5 3.5 0 0 1 3.5-3.5 3.5 3.5 0 0 1 3.227 2.152l15.976-3.6a21.5 21.5 0 0 0-1.869-5.27M26 43.44h8v5.556h-8z"/><path fill="#ff4b4b" d="m26 16.722 9.8 2.222-1.4 1.945-4.814 1.389H26Z"/><path fill="#fff" d="M36.207 7c-2.338-.02-4.705.138-6.297.477C17.514 10.113 7.574 18.9 4.688 29.773c-.464 1.744-.651 3.856-.637 5.92.048-1.735.248-3.457.636-4.92C7.575 19.901 17.515 11.113 29.91 8.477c1.592-.339 3.96-.496 6.297-.477 2.338.02 4.644.218 6.11.582 9.322 2.316 15.235 7.846 17.218 16.113.272 1.133.405 2.482.434 3.889.029-1.765-.098-3.49-.434-4.889-1.983-8.267-7.896-13.797-17.219-16.113-1.465-.364-3.771-.563-6.109-.582" opacity=".1"/><path fill="#fff" d="M50.834 15.281 35.33 18.838 26 16.723v1l9.33 2.115 15.504-3.557a21.8 21.8 0 0 1 1.633 4.324l.236-.052a21.5 21.5 0 0 0-1.869-5.272M26 20.98l-12 2.753v1l12-2.753zm27.162 3.105-5.658 1.297c-.13.833-.28 1.64-.488 2.385-1.05 3.742-2.893 6.482-8.282 8.818-5.852 2.537-16.77 4.335-24.734 6.11v1c7.964-1.775 18.882-3.573 24.734-6.11 5.389-2.336 7.232-5.076 8.282-8.818.208-.745.358-1.552.488-2.385l5.658-1.297.014.336q.026-.2.023-.402c-.004-.319-.02-.626-.037-.934M27 30.209l-13 2.916v1l13-2.916z" opacity=".2"/></svg>