<svg xmlns="http://www.w3.org/2000/svg" viewBox="0 0 64 64"><path d="m11.763 10.928.981 7.819c.205 1.778.558 3.548.527 5.336-.017.893-.164 1.804-.597 2.589-.216.39-.504.748-.859 1.02a2.54 2.54 0 0 1-1.224.522c-.724.094-1.442-.164-2.108-.46-.664-.297-1.324-.643-2.044-.744a3.47 3.47 0 0 0-2.067.372c-.63.33-1.158.836-1.543 1.43-.771 1.19-.95 3.659-.758 5.061.144 1.062.505 2.122 1.21 2.936a3.7 3.7 0 0 0 1.278.962 3 3 0 0 0 1.58.249c.74-.092 1.408-.479 2.08-.802a5.5 5.5 0 0 1 1.048-.396 2.45 2.45 0 0 1 1.112-.032c.394.088.753.3 1.041.583.29.28.506.628.662.998.308.743.367 1.56.404 2.362a58.4 58.4 0 0 1-1.083 14.31c3.274 1.15 6.5 2.036 9.918 2.647 1.132.204 2.307.374 3.422.093.559-.14 1.093-.396 1.518-.781s.735-.905.823-1.471c.064-.421.006-.586-.12-.993s-.322-.793-.53-1.167c-.418-.746-1.109-1.512-1.273-2.351-.144-.746-.01-1.535.326-2.218.338-.682.874-1.258 1.502-1.692 1.258-.863 3.04-1.14 4.569-1.153 1.4-.011 3.149.198 4.339.934.594.369 1.113.866 1.463 1.47.352.602.528 1.313.46 2.004-.057.533-.253 1.044-.494 1.522-.24.48-.526.837-.774 1.312-.247.477-.758.98-.835 1.509-.075.53-.009.825.268 1.285.197.327.49.588.816.789s.683.345 1.044.475c2.341.83 4.993.914 7.445.502a14.54 14.54 0 0 0 6.681-3.011l-1.345-9.272c-.218-1.63-.549-2.96-.504-4.604.02-.822.263-1.656.649-2.383.19-.367.447-.695.76-.967a2.6 2.6 0 0 1 1.088-.565 3 3 0 0 1 1.176-.01c.389.07.765.197 1.132.34.735.285 1.455.641 2.237.745.722.098 1.47-.03 2.13-.334a4.4 4.4 0 0 0 1.67-1.37c.871-1.165 1.165-3.398.986-4.837-.147-1.171-.606-2.327-1.421-3.185a4.2 4.2 0 0 0-1.452-1.004 3.66 3.66 0 0 0-1.743-.27c-.788.076-1.518.42-2.257.7a6.3 6.3 0 0 1-1.134.338c-.39.072-.794.085-1.18-.002-.584-.129-1.104-.482-1.482-.943-.379-.462-.62-1.025-.745-1.609-.252-1.163.24-2.37.41-3.548.572-3.95.993-7.527 1.063-11.518-3.495-1.116-7.49-1.896-11.134-2.33-1.121-.134-2.287-.23-3.355.132-.536.18-1.036.478-1.412.897-.376.416-.62.962-.632 1.523-.01.395.195.788.361 1.147.167.359.491.69.732 1.003.481.63.76.72 1.062 1.453.331.802.325 1.726.04 2.546s-.841 1.535-1.53 2.068-1.51.886-2.36 1.083-1.928.24-2.801.189c-1.405-.083-2.938-.426-4.062-1.27a4.4 4.4 0 0 1-1.343-1.594 3.53 3.53 0 0 1-.333-2.042c.143-.94.965-1.257 1.427-2.089.232-.416.546-.847.678-1.303.133-.456.183-.946.081-1.41a2.6 2.6 0 0 0-.728-1.278 3.5 3.5 0 0 0-1.265-.774c-.939-.34-1.963-.339-2.96-.28a28.2 28.2 0 0 0-10.713 2.807" opacity=".2"/><path fill="#33d17a" d="m11.763 9.928.981 7.819c.205 1.778.558 3.548.527 5.336-.017.893-.164 1.804-.597 2.589-.216.39-.504.748-.859 1.02a2.54 2.54 0 0 1-1.224.522c-.724.094-1.442-.164-2.108-.46-.664-.297-1.324-.643-2.044-.744a3.47 3.47 0 0 0-2.067.372c-.63.33-1.158.836-1.543 1.43-.771 1.19-.95 3.659-.758 5.061.144 1.062.505 2.122 1.21 2.936a3.7 3.7 0 0 0 1.278.962 3 3 0 0 0 1.58.249c.74-.092 1.408-.479 2.08-.802a5.5 5.5 0 0 1 1.048-.396 2.45 2.45 0 0 1 1.112-.032c.394.088.753.3 1.041.583.29.28.506.628.662.998.308.743.367 1.56.404 2.362a58.4 58.4 0 0 1-1.083 14.31c3.274 1.15 6.5 2.036 9.918 2.647 1.132.204 2.307.374 3.422.093.559-.14 1.093-.396 1.518-.781s.735-.905.823-1.471c.064-.421.006-.586-.12-.993s-.322-.793-.53-1.167c-.418-.746-1.109-1.512-1.273-2.351-.144-.746-.01-1.535.326-2.218.338-.682.874-1.258 1.502-1.692 1.258-.863 3.04-1.14 4.569-1.153 1.4-.011 3.149.198 4.339.934.594.369 1.113.866 1.463 1.47.352.602.528 1.313.46 2.004-.057.533-.253 1.044-.494 1.522-.24.48-.526.837-.774 1.312-.247.477-.758.98-.835 1.509-.075.53-.009.825.268 1.285.197.327.49.588.816.789s.683.345 1.044.475c2.341.83 4.993.914 7.445.502a14.54 14.54 0 0 0 6.681-3.011l-1.345-9.272c-.218-1.63-.549-2.96-.504-4.604.02-.822.263-1.656.649-2.383.19-.367.447-.695.76-.967a2.6 2.6 0 0 1 1.088-.565 3 3 0 0 1 1.176-.01c.389.07.765.197 1.132.34.735.285 1.455.641 2.237.745.722.098 1.47-.03 2.13-.334a4.4 4.4 0 0 0 1.67-1.37c.871-1.165 1.165-3.398.986-4.837-.147-1.171-.606-2.327-1.421-3.185a4.2 4.2 0 0 0-1.452-1.004 3.66 3.66 0 0 0-1.743-.27c-.788.076-1.518.42-2.257.7a6.3 6.3 0 0 1-1.134.338c-.39.072-.794.085-1.18-.002-.584-.129-1.104-.482-1.482-.943-.379-.462-.62-1.025-.745-1.609-.252-1.163.24-2.37.41-3.548.572-3.95.993-7.527 1.063-11.518-3.495-1.116-7.49-1.896-11.134-2.33-1.121-.134-2.287-.23-3.355.132-.536.18-1.036.478-1.412.897-.376.416-.62.962-.632 1.523-.01.395.195.788.361 1.147.167.359.491.69.732 1.003.481.63.76.72 1.062 1.453.331.802.325 1.726.04 2.546s-.841 1.535-1.53 2.068-1.51.886-2.36 1.083-1.928.24-2.801.189c-1.405-.083-2.938-.426-4.062-1.27a4.4 4.4 0 0 1-1.343-1.594 3.53 3.53 0 0 1-.333-2.042c.143-.94.965-1.257 1.427-2.089.232-.416.546-.847.678-1.303.133-.456.183-.946.081-1.41a2.6 2.6 0 0 0-.728-1.278 3.5 3.5 0 0 0-1.265-.774c-.939-.34-1.963-.339-2.96-.28a28.2 28.2 0 0 0-10.713 2.807"/><path fill="#fff" d="M39.178 7a5.3 5.3 0 0 0-1.658.252c-.536.18-1.037.478-1.413.896-.376.417-.62.963-.63 1.524a1.5 1.5 0 0 0 .084.48c.1-.37.289-.718.546-1.004.376-.418.877-.715 1.413-.896 1.068-.36 2.234-.265 3.355-.13 3.632.431 7.61 1.206 11.096 2.316.01-.332.033-.652.039-.989-3.495-1.116-7.49-1.894-11.135-2.328A13 13 0 0 0 39.178 7m-15.951.092q-.378.006-.752.03a28.2 28.2 0 0 0-10.713 2.806l.119.945a28.2 28.2 0 0 1 10.594-2.752c.996-.058 2.022-.06 2.96.28.47.17.909.425 1.264.773.353.347.62.787.727 1.27.054-.33.073-.666.002-.99a2.6 2.6 0 0 0-.729-1.28 3.5 3.5 0 0 0-1.263-.774c-.704-.254-1.457-.317-2.21-.308m14.61 8.017a4 4 0 0 1-.167.713c-.286.82-.84 1.534-1.527 2.067-.69.533-1.512.887-2.362 1.084-.85.196-1.928.238-2.8.187-1.405-.082-2.939-.426-4.063-1.27a4.4 4.4 0 0 1-1.344-1.593 3.7 3.7 0 0 1-.324-1.068l-.008.027a3.53 3.53 0 0 0 .332 2.04c.305.63.782 1.173 1.344 1.595 1.124.843 2.658 1.187 4.062 1.27.873.05 1.952.008 2.801-.188.85-.197 1.671-.551 2.362-1.084.687-.533 1.241-1.248 1.527-2.067.19-.547.244-1.14.168-1.713m-24.585 8.307c-.045.784-.2 1.568-.578 2.256a3.3 3.3 0 0 1-.86 1.021 2.54 2.54 0 0 1-1.222.522c-.724.093-1.444-.166-2.11-.461-.663-.297-1.322-.643-2.043-.744a3.47 3.47 0 0 0-2.066.373c-.63.33-1.16.835-1.545 1.43-.662 1.02-.867 2.95-.797 4.373.054-1.234.284-2.583.797-3.373.386-.595.915-1.1 1.545-1.43a3.47 3.47 0 0 1 2.066-.373c.72.1 1.38.447 2.043.744.666.295 1.386.554 2.11.46a2.54 2.54 0 0 0 1.222-.52c.356-.274.644-.632.86-1.022.433-.785.58-1.696.597-2.59.004-.222-.012-.444-.019-.666m37.258.912c-.043.4-.06.796.025 1.188.126.584.368 1.147.746 1.609s.898.814 1.483.943c.385.086.79.074 1.18.002.387-.07.764-.195 1.132-.338.74-.28 1.47-.624 2.258-.699a3.66 3.66 0 0 1 1.742.27c.55.224 1.045.575 1.453 1.004.816.858 1.273 2.014 1.42 3.185.017.137.01.306.018.455a8 8 0 0 0-.018-1.455c-.147-1.171-.604-2.327-1.42-3.185a4.2 4.2 0 0 0-1.453-1.004 3.66 3.66 0 0 0-1.742-.27c-.788.075-1.519.419-2.258.7a6.3 6.3 0 0 1-1.133.337c-.39.072-.794.084-1.18-.002-.584-.129-1.104-.481-1.482-.943s-.62-1.025-.746-1.61c-.013-.062-.016-.124-.025-.187m-.37 16.332c-.004.071-.017.142-.019.213-.045 1.643.288 2.973.506 4.604l1.213 8.369.13-.098-1.343-9.271c-.182-1.36-.43-2.52-.486-3.817m-37.595 2.707a58.4 58.4 0 0 1-1.14 10.676l.173.059c.654-3.55.976-7.134.967-10.735m25.234 6.17c-.076.47-.239.924-.453 1.35-.24.48-.527.837-.775 1.312-.247.477-.757.98-.834 1.508-.048.339-.03.582.054.832.145-.467.56-.914.78-1.34.248-.475.534-.832.775-1.312.24-.479.436-.99.492-1.522a3 3 0 0 0-.039-.828m-12.633.338c-.059.38-.057.768.016 1.145.164.839.854 1.605 1.272 2.351.208.374.403.758.529 1.166.03.095.041.154.062.229.021-.078.047-.155.059-.235.064-.42.005-.587-.121-.994s-.321-.792-.53-1.166c-.417-.746-1.107-1.512-1.27-2.351-.01-.048-.01-.097-.017-.145" opacity=".2"/></svg>