<svg xmlns="http://www.w3.org/2000/svg" viewBox="0 0 64 64"><rect width="56" height="56" x="4" y="5" opacity=".2" rx="5.6" ry="5.6"/><rect width="56" height="56" x="4" y="4" fill="#4caf50" rx="5.6" ry="5.6"/><path d="M26 4h10v27H26z" opacity=".2"/><path fill="#fff" d="M31 4h3v3h-3zm-3 21h3v3h-3z"/><path fill="#4b4b4b" d="M31 25c3.75 0 3.75 5.6 5 5.6v7c0 .776-.557 1.4-1.25 1.4h-7.5c-.692 0-1.25-.624-1.25-1.4v-7c1.25 0 1.25-5.6 5-5.6"/><path d="M30.668 32C28.083 32 26 34.103 26 36.71v9.58c0 2.607 2.083 4.71 4.668 4.71h.664C33.917 51 36 48.897 36 46.29v-9.58c0-2.607-2.083-4.71-4.668-4.71ZM31 42a4.001 4.001 0 1 1-.002 8.002A4.001 4.001 0 0 1 31 42" opacity=".2"/><path fill="#fff" d="M30.668 31C28.083 31 26 33.103 26 35.71v9.58c0 2.607 2.083 4.71 4.668 4.71h.664C33.917 50 36 47.897 36 45.29v-9.58c0-2.607-2.083-4.71-4.668-4.71ZM31 41a4.001 4.001 0 1 1-.002 8.002A4.001 4.001 0 0 1 31 41"/><path fill="#909090" d="M30.984 27A1 .997 0 0 0 30 28.01v5.98a1 .997 0 1 0 2 0v-5.98A1 .997 0 0 0 30.984 27"/><path fill="#fff" d="M28 7h3v3h-3zm3 3h3v3h-3zm-3 3h3v3h-3zm3 3h3v3h-3zm-3 3h3v3h-3zm3 3h3v3h-3z"/><path fill="#fff" d="M9.6 4A5.587 5.587 0 0 0 4 9.6v1C4 7.497 6.497 5 9.6 5h44.8c3.103 0 5.6 2.497 5.6 5.6v-1C60 6.497 57.503 4 54.4 4z" opacity=".2"/></svg>