<svg xmlns="http://www.w3.org/2000/svg" viewBox="0 0 64 64"><path d="M12.666 3.144A9.277 9.357 0 0 0 5 12.357v41.287a9.277 9.357 0 0 0 13.914 8.103l35.447-20.644a9.277 9.357 0 0 0 0-16.205L18.914 4.254a9.277 9.357 0 0 0-6.248-1.11" opacity=".2"/><path fill="#4263e7" d="M12.666 2.144C8.233 2.932 5.001 6.817 5 11.357v30.859l4.426 5.449c.001 7.202.676 9.075 6.86 5.475L50.42 40.31c6.183-3.601 5.146-8.73-1.037-12.332L30.308 9.89 18.914 3.254a9.2 9.2 0 0 0-6.248-1.11"/><path fill="#cd5dd9" d="M30.17 9.808C20.582 17.098 15 28.486 15 40.572q0 1.486.11 2.96c.433 5.798 4.697 4.795 7.625 9.84l29.482-14.928c6.182-3.603 4.868-10.114-1.314-13.716l-6.378-6.559z"/><path fill="#fe8668" d="M44.075 17.908C35.765 22.385 31 31.094 31 40.572c0 1.067.037 2.13.126 3.182.248 2.976 2.564 1.101 3.933 3.784l15.914-7.296c4.985-2.905 9.339-9.457 6.285-13.722a9.3 9.3 0 0 0-2.896-2.622z"/><path fill="#ffb44f" d="M57.075 26.295C49.427 26.567 43 32.879 43 40.572c0 1.001.215 1.998.521 2.973.253.805 1.397-.272 1.704.494l5.026-1.542 4.11-2.394c4.858-2.829 6.134-9.324 2.715-13.808"/><path fill="#32c080" d="M5 42v10.645a9.277 9.357 0 0 0 13.913 8.102l32.19-18.746z"/><path fill="#fff" d="M13.953 2.006a9.277 9.357 0 0 0-1.285.137A9.277 9.357 0 0 0 5 11.357v1a9.277 9.357 0 0 1 7.668-9.214 9.277 9.357 0 0 1 1.285-.137 9.277 9.357 0 0 1 4.961 1.25L54.361 24.9a9.277 9.357 0 0 1 4.59 7.559 9.277 9.357 0 0 0-4.59-8.559L18.914 3.256a9.277 9.357 0 0 0-4.96-1.25" opacity=".1"/><path fill="#fff" d="M5 42v1h44.387l1.717-1z" opacity=".2"/></svg>