<svg xmlns="http://www.w3.org/2000/svg" viewBox="0 0 64 64"><rect width="56" height="56" x="4" y="5" opacity=".2" rx="2.8" ry="2.8"/><rect width="56" height="56" x="4" y="4" fill="#7767c0" rx="2.8" ry="2.8"/><rect width="44" height="44" x="10" y="11" opacity=".2" rx="2.75" ry="2.75"/><rect width="44" height="44" x="10" y="10" fill="#e4e4e4" rx="2.75" ry="2.75"/><path d="M32 17a16 16 0 0 0-16 16 16 16 0 0 0 16 16 16 16 0 0 0 16-16 16 16 0 0 0-16-16m0 4a12 12 0 0 1 12 12 12 12 0 0 1-12 12 12 12 0 0 1-12-12 12 12 0 0 1 12-12" opacity=".1"/><path fill="#7767c0" d="M32 16a16 16 0 0 0-16 16 16 16 0 0 0 16 16 16 16 0 0 0 16-16 16 16 0 0 0-16-16m0 4a12 12 0 0 1 12 12 12 12 0 0 1-12 12 12 12 0 0 1-12-12 12 12 0 0 1 12-12"/><rect width="6" height="11" x="7" y="19" opacity=".1" rx="1.5" ry="1.375"/><rect width="6" height="11" x="7" y="18" fill="#8e8e8e" rx="1.5" ry="1.375"/><rect width="6" height="11" x="7" y="36" opacity=".1" rx="1.5" ry="1.375"/><rect width="6" height="11" x="7" y="35" fill="#8e8e8e" rx="1.5" ry="1.375"/><path fill="#fff" d="M6.8 4C5.25 4 4 5.25 4 6.8v1C4 6.25 5.25 5 6.8 5h50.4C58.75 5 60 6.25 60 7.8v-1C60 5.25 58.75 4 57.2 4z" opacity=".1"/><path fill="#fff" d="M12.75 10A2.744 2.744 0 0 0 10 12.75v1A2.744 2.744 0 0 1 12.75 11h38.5A2.744 2.744 0 0 1 54 13.75v-1A2.744 2.744 0 0 0 51.25 10z" opacity=".2"/><path d="M7 22h6v3H7zm0 17h6v3H7zm28-15h-6v6h3v1l-3 1v10h6v-6l-3-1 3-1z" opacity=".1"/><path fill="#394045" d="M35 23h-6v6h3v1l-3 1v10h6v-6l-3-1 3-1z"/></svg>