<svg xmlns="http://www.w3.org/2000/svg" viewBox="0 0 64 64"><path d="M8 56.2v2c0 1.55 1.338 2.8 3 2.8h42c1.662 0 3-1.25 3-2.8v-2c0 1.55-1.338 2.8-3 2.8H11c-1.662 0-3-1.25-3-2.8" opacity=".2"/><path fill="#e4e4e4" d="M56 57.2V6.8C56 5.249 54.662 4 53 4H11C9.338 4 8 5.249 8 6.8v50.4c0 1.552 1.338 2.8 3 2.8h42c1.662 0 3-1.249 3-2.8"/><path fill="none" stroke="#4f4f4f" stroke-width="4" d="M14 16h19.8s14.203.7 14.2 16-14.2 16-14.2 16H14"/><path fill="#4f4f4f" fill-rule="evenodd" d="M18 15.2V54h-4l6 4 6-4h-4V15.2z"/><path fill="#fff" d="M11 4C9.338 4 8 5.25 8 6.8v1C8 6.25 9.338 5 11 5h42c1.662 0 3 1.25 3 2.8v-1C56 5.25 54.662 4 53 4z" opacity=".2"/></svg>