<svg xmlns="http://www.w3.org/2000/svg" viewBox="0 0 64 64"><rect width="58" height="46" x="4" y="-55" opacity=".2" rx="4.146" ry="4.6" transform="rotate(90)"/><rect width="58" height="46" x="3" y="-55" fill="#8d8d8d" rx="4.146" ry="4.6" transform="rotate(90)"/><path fill="#01dfd8" d="M15 34.875V10.078S15 9 16.097 9h31.806C49 9 49 10.078 49 10.078v24.797"/><path d="M15 35.875v18.348S15 56 16.594 56H37l12-12v-8.125z" opacity=".2"/><path fill="#e4e4e4" d="M15 34.875h34V43l-7.969 4.305L37 55H16.594C15 55 15 53.224 15 53.224Z"/><path fill="#ccc" d="M37 55V44.636S37 43 38.636 43H49Z"/><rect width="58" height="6" x="3" y="33" opacity=".2" rx="1.45" ry="1.5"/><rect width="58" height="6" x="3" y="32" fill="#fff" rx="1.45" ry="1.5"/><path fill="#fff" d="M13.602 3C11.053 3 9 4.848 9 7.145v1C9 5.848 11.053 4 13.602 4h36.796C52.947 4 55 5.848 55 8.145v-1C55 4.848 52.947 3 50.398 3z" opacity=".1"/><path fill="#fff" d="M16.098 9C15 9 15 10.078 15 10.078v1S15 10 16.098 10h31.804C49 10 49 11.078 49 11.078v-1S49 9 47.902 9z" opacity=".2"/></svg>