<svg xmlns="http://www.w3.org/2000/svg" viewBox="0 0 64 64"><path d="m32 5-3.984 14.611a14 14 0 0 0-3.196 1.4L14 15l6.012 10.82a14 14 0 0 0-1.4 3.196L4 33l14.611 3.984a14 14 0 0 0 1.4 3.196L14 51l10.848-5.994a14 14 0 0 0 3.168 1.385L32 61l3.984-14.61a14 14 0 0 0 3.168-1.384L50 51l-5.994-10.848a14 14 0 0 0 1.385-3.168L60 33l-14.594-3.98a14 14 0 0 0-1.386-3.198L50 15l-10.822 5.98a14 14 0 0 0-3.198-1.386Z" opacity=".2"/><path fill="#42a5f5" d="m32 4-6 22-22 6 22 6 6 22 6-22 22-6-22-6z"/><path fill="#fff" d="m32 4-6 22-22 6 1.834.5L26 27l6-22 6 22 20.166 5.5L60 32l-22-6z" opacity=".2"/><path fill="#1565c0" d="m14 14 6.012 10.82A14 14 0 0 0 18 32a14 14 0 0 0 2.012 7.18L14 50l10.848-5.994A14 14 0 0 0 32 46a14 14 0 0 0 7.152-1.994L50 50l-5.994-10.848A14 14 0 0 0 46 32a14 14 0 0 0-1.98-7.178L50 14l-10.822 5.98A14 14 0 0 0 32 18a14 14 0 0 0-7.18 2.012Z"/><path fill="#fff" d="m14 14 .803 1.447 10.017 5.565A14 14 0 0 1 32 19a14 14 0 0 1 7.178 1.98l10.027-5.54L50 14l-10.822 5.98A14 14 0 0 0 32 18a14 14 0 0 0-7.18 2.012zm5.744 11.34A14 14 0 0 0 18 32a14 14 0 0 0 .035.5 14 14 0 0 1 1.977-6.68zm24.541.002-.265.48a14 14 0 0 1 1.945 6.666A14 14 0 0 0 46 32a14 14 0 0 0-1.715-6.658m-.014 14.29a14 14 0 0 1-.265.52l5.2 9.409L50 50zm-24.527.028L14 50l.8-.443 5.212-9.377a14 14 0 0 1-.268-.52" opacity=".1"/><circle cx="32" cy="33" r="10" opacity=".2"/><circle cx="32" cy="32" r="10" fill="#fff"/><circle cx="32" cy="32" r="6" fill="#5d5d5d"/><path fill="#fff" d="M32 26a6 6 0 0 0-6 6 6 6 0 0 0 .035.5A6 6 0 0 1 32 27a6 6 0 0 1 5.97 5.412A6 6 0 0 0 38 32a6 6 0 0 0-6-6" opacity=".1"/></svg>