<svg xmlns="http://www.w3.org/2000/svg" viewBox="0 0 64 64"><path d="M55 41V7.8C55 6.249 53.712 5 52.112 5H11.889C10.288 5 9 6.249 9 7.8v50.4c0 1.551 1.288 2.8 2.888 2.8H35Z" opacity=".2"/><path fill="#e4e4e4" d="M55 40V6.8C55 5.249 53.712 4 52.112 4H11.889C10.288 4 9 5.249 9 6.8v50.4c0 1.551 1.288 2.8 2.888 2.8H35Z"/><path d="M15.125 9h12.75C29.052 9 30 9.937 30 11.1v15.8c0 1.163-.948 2.1-2.125 2.1h-12.75A2.11 2.11 0 0 1 13 26.9V11.1c0-1.163.948-2.1 2.125-2.1" opacity=".1"/><path d="M34 8v4h17V8ZM13 41v4h27v-4z" opacity=".3"/><path fill="#fff" d="M37.946 40C36.314 40 35 41.274 35 42.857V60l20-20Z"/><path d="M34 16v4h17v-4zM13 33v4h38v-4zm21-9v4h17v-4z" opacity=".3"/><path fill="#2196f3" d="M15.125 8h12.75C29.052 8 30 8.937 30 10.1v15.8c0 1.163-.948 2.1-2.125 2.1h-12.75A2.11 2.11 0 0 1 13 25.9V10.1c0-1.163.948-2.1 2.125-2.1"/><path fill="#2158f3" d="M27.167 17 21.5 25l-4.25-5L13 24.907v.993c0 1.163.948 2.1 2.125 2.1h12.75A2.11 2.11 0 0 0 30 25.9V21Z"/><circle cx="18.5" cy="14.5" r="2.5" opacity=".2"/><circle cx="18.5" cy="13.5" r="2.5" fill="#ffeb3b"/><path fill="#fff" d="M18.5 11a2.5 2.5 0 0 0-2.5 2.5 2.5 2.5 0 0 0 .05.498A2.5 2.5 0 0 1 18.5 12a2.5 2.5 0 0 1 2.45 2.002A2.5 2.5 0 0 0 21 13.5a2.5 2.5 0 0 0-2.5-2.5m-6.613-7C10.287 4 9 5.25 9 6.8v1C9 6.25 10.287 5 11.887 5h40.226C53.713 5 55 6.25 55 7.8v-1C55 5.25 53.713 4 52.113 4z" opacity=".2"/></svg>