<svg xmlns="http://www.w3.org/2000/svg" viewBox="0 0 64 64"><rect width="56" height="56" x="6" y="5" opacity=".2" rx="4" ry="4"/><rect width="56" height="56" x="6" y="4" fill="#e4e4e4" rx="4" ry="4"/><path d="M10 42h48v1H10z" opacity=".1"/><path fill="#3068c1" d="M58 8v34H10l16-25Z"/><path fill="#fff" d="M10 4C7.784 4 6 5.784 6 8v1c0-2.216 1.784-4 4-4h48c2.216 0 4 1.784 4 4V8c0-2.216-1.784-4-4-4z" opacity=".2"/><path fill="#d63a60" d="M10 42V8h48Z"/><circle cx="14" cy="38" r="11" fill="#9a46ab"/><path d="M14 25q-.197.002-.387.027A14 14 0 0 0 0 39a14 14 0 0 0 14 14 14 14 0 0 0 13.973-13.613q.025-.19.027-.387V28c0-1.662-1.338-3-3-3Zm0 4a10 10 0 0 1 10 10 10 10 0 0 1-10 10A10 10 0 0 1 4 39a10 10 0 0 1 10-10" opacity=".1"/><path fill="#b0b0b0" d="M14 24q-.197.002-.387.027A14 14 0 0 0 0 38a14 14 0 0 0 14 14 14 14 0 0 0 13.973-13.613q.025-.19.027-.387V27c0-1.662-1.338-3-3-3zm0 4a10 10 0 0 1 10 10 10 10 0 0 1-10 10A10 10 0 0 1 4 38a10 10 0 0 1 10-10"/><circle cx="24.5" cy="27.5" r="1.5" fill="#535353"/></svg>