<svg xmlns="http://www.w3.org/2000/svg" viewBox="0 0 64 64"><path fill-rule="evenodd" d="M16.19 8.041c-4.49-.105-8.188 3.509-8.189 8.004v20.969l.007.014c-.01 5.333-.001 10.666-.007 16-.074 4.03 3.302 7.72 7.326 7.972 1.601.178 3.151-.27 4.564-.987.037-.018.073-.031.111-.051l.133-.076q.444-.236.867-.502h.001l31.002-17.94c3.524-1.951 5.029-6.722 3.235-10.336-.82-1.874-2.468-3.18-4.235-4.11l-.124-.046-30.879-17.84a8 8 0 0 0-3.812-1.07" opacity=".2"/><path fill="#f75952" d="M8.007 36.555c-.008 5.134 0 10.27-.006 15.404-.026 1.414.37 2.786 1.067 3.983 1.298 2.23 3.642 3.854 6.26 4.019 1.6.179 3.15-.27 4.563-.99.037-.019.074-.032.112-.052l.132-.076q.324-.173.638-.362z"/><path fill="#d86079" d="M8.001 19.012v16.871l.005.015.002.685L20.76 58.486l.113-.065.13-.08v-.004l7.392-4.295z"/><path fill="#c26493" d="M11.81 7.99a8.04 8.04 0 0 0-3.809 6.847v4.175l20.395 35.03 7.642-4.438z"/><path fill="#ac68ae" d="m11.81 7.99 24.228 41.614 7.642-4.438L22.973 9.599l-2.97-1.724a8 8 0 0 0-3.813-1.072 7.93 7.93 0 0 0-4.38 1.187"/><path fill="#966ecb" d="M22.973 9.599 43.68 45.166l7.64-4.437-12.912-22.178z"/><path fill="#7975f1" d="m38.431 18.563 12.901 22.16.674-.393c3.524-1.957 5.028-6.746 3.234-10.373a7 7 0 0 0-.346-.68c-.889-1.525-2.342-2.63-3.888-3.447l-.124-.045z"/><path fill-rule="evenodd" d="M16.19 5.002c-4.49-.105-8.188 3.509-8.189 8.004v20.968l.007.015c-.01 5.333-.001 10.666-.007 16-.074 4.029 3.302 7.72 7.326 7.972 1.601.178 3.151-.27 4.564-.987.037-.019.073-.031.111-.051l.133-.076q.444-.237.867-.502h.001l31.002-17.941c3.524-1.95 5.029-6.721 3.235-10.335-.82-1.875-2.468-3.18-4.235-4.111l-.124-.045-30.879-17.84a8 8 0 0 0-3.812-1.07" opacity=".2"/><path fill="#e4e4e4" fill-rule="evenodd" d="M16.19 4.002c-4.49-.105-8.188 3.509-8.189 8.004v20.968l.007.015c-.01 5.333-.001 10.666-.007 16-.074 4.029 3.302 7.72 7.326 7.972 1.601.178 3.151-.27 4.564-.987.037-.019.073-.031.111-.051l.133-.076q.444-.237.867-.502h.001l31.002-17.941c3.524-1.95 5.029-6.721 3.235-10.335-.82-1.875-2.468-3.18-4.235-4.111l-.124-.045-30.879-17.84a8 8 0 0 0-3.812-1.07"/><path fill="none" stroke="#000" stroke-linecap="round" stroke-linejoin="round" stroke-width="4" d="M26 21v22" opacity=".1"/><path fill="none" stroke="#c26493" stroke-linecap="round" stroke-linejoin="round" stroke-width="4" d="M26 20v22"/><path fill="none" stroke="#000" stroke-linecap="round" stroke-linejoin="round" stroke-width="4" d="M20 30v4" opacity=".1"/><path fill="none" stroke="#d86079" stroke-linecap="round" stroke-linejoin="round" stroke-width="4" d="M20 29v4"/><path fill="none" stroke="#000" stroke-linecap="round" stroke-linejoin="round" stroke-width="4" d="M32 28v8" opacity=".1"/><path fill="none" stroke="#ac68ae" stroke-linecap="round" stroke-linejoin="round" stroke-width="4" d="M32 27v8"/><circle cx="14" cy="32" r="2" opacity=".1"/><circle cx="38" cy="32" r="2" opacity=".1"/><circle cx="44" cy="32" r="2" opacity=".1"/><circle cx="14" cy="31" r="2" fill="#f75952"/><circle cx="38" cy="31" r="2" fill="#966ecb"/><circle cx="44" cy="31" r="2" fill="#7975f1"/><path fill="#fff" fill-rule="evenodd" d="M16.19 4.002c-4.491-.105-8.187 3.508-8.188 8.004v1a8 8 0 0 1 12-6.934l30.879 17.84.123.045c1.767.93 3.416 2.237 4.236 4.111.441.889.683 1.847.744 2.817.082-1.303-.151-2.623-.744-3.817-.82-1.874-2.469-3.18-4.236-4.111l-.123-.045-30.879-17.84a8 8 0 0 0-3.813-1.07M8.005 33.986l.002.002z" opacity=".2"/></svg>