<svg xmlns="http://www.w3.org/2000/svg" viewBox="0 0 64 64"><rect width="56" height="56" x="4" y="5" opacity=".2" ry="10"/><rect width="56" height="52" x="4" y="8" fill="#2c8ffd" ry="10"/><path d="M14 5h36c5.54 0 10 4.46 10 10v6L32 37 4 21v-6C4 9.46 8.46 5 14 5" opacity=".2"/><path fill="#c4e9f9" d="M14 4h36c5.54 0 10 4.46 10 10v6L32 36 4 20v-6C4 8.46 8.46 4 14 4"/><path fill="#fff" d="M14 4C8.46 4 4 8.46 4 14v1C4 9.46 8.46 5 14 5h36c5.54 0 10 4.46 10 10v-1c0-5.54-4.46-10-10-10z" opacity=".2"/></svg>