<svg xmlns="http://www.w3.org/2000/svg" viewBox="0 0 64 64"><rect width="32" height="52" x="16" y="6" fill="#343944" paint-order="markers stroke fill" rx="4" ry="4"/><rect width="28" height="47" x="18" y="8" fill="#4c5263" stroke="#17181e" stroke-linecap="round" stroke-opacity=".588" paint-order="fill markers stroke" rx="2.154" ry="2.089"/><path fill="#2c303a" d="M26 8.48h11L36 10h-9z" paint-order="fill markers stroke"/><path fill="#fff" d="M29 24a1 1 0 1 0 0 2 1 1 0 0 0 0-2m7 0-2 2 4 4-4 4 2 2 6-6-2-2zm-10 6a2 2 0 1 0 0 4 2 2 0 0 0 0-4m5 6a3 3 0 1 0 0 6 3 3 0 0 0 0-6"/></svg>