<svg xmlns="http://www.w3.org/2000/svg" viewBox="0 0 64 64"><rect width="56" height="56" x="4" y="5" opacity=".2" rx="8" ry="8"/><rect width="56" height="56" x="4" y="4" fill="#f14729" rx="8" ry="8"/><path d="M15 16v34h34V16zm5 5h24v5L34 36l4 4 6-6v11H20v-6l10-10-4-4-6 6z" opacity=".2"/><path fill="#fff" d="M15 15v34h34V15zm5 5h24v5L34 35l4 4 6-6v11H20v-6l10-10-4-4-6 6z"/><path fill="#fff" d="M12 4c-4.432 0-8 3.568-8 8v1c0-4.432 3.568-8 8-8h40c4.432 0 8 3.568 8 8v-1c0-4.432-3.568-8-8-8z" opacity=".2"/></svg>