<svg xmlns="http://www.w3.org/2000/svg" viewBox="0 0 64 64"><path d="M12 23a2 2 0 0 0-2 2v6H6a2 2 0 0 0-2 2 2 2 0 0 0 2 2h14v5a2 2 0 0 0 2 2 2 2 0 0 0 2-2v-5h16v5a2 2 0 0 0 2 2 2 2 0 0 0 2-2v-5h14a2 2 0 0 0 2-2 2 2 0 0 0-2-2h-4v-6a2 2 0 0 0-2-2 2 2 0 0 0-2 2v6H34v-6a2 2 0 0 0-2-2 2 2 0 0 0-2 2v6H14v-6a2 2 0 0 0-2-2" opacity=".2"/><path fill="none" stroke="#bfbdba" stroke-linecap="round" stroke-width="4" d="M52 31v-7m-20 7v-7m-20 7v-7"/><path d="M12 11a8 8 0 1 0 0 16 8 8 0 0 0 0-16m20 0a8 8 0 1 0 0 16 8 8 0 0 0 0-16m20 0a8 8 0 1 0 0 16 8 8 0 0 0 0-16M22 39a8 8 0 1 0 0 16 8 8 0 0 0 0-16m20 0a8 8 0 1 0 0 16 8 8 0 0 0 0-16" opacity=".2"/><path fill="none" stroke="#bfbdba" stroke-linecap="round" stroke-width="4" d="M6 32h52m-36 7v-7m20 7v-7"/><path fill="#f8e35c" d="M30 46a8 8 0 1 1-16 0 8 8 0 0 1 16 0m0 0"/><path fill="#eb333a" d="M50 46a8 8 0 1 1-16 0 8 8 0 0 1 16 0m0 0"/><path fill="#57e387" d="M40 18a8 8 0 1 1-16 0 8 8 0 0 1 16 0m0 0"/><path fill="#619ee8" d="M60 18a8 8 0 1 1-16 0 8 8 0 0 1 16 0m0 0"/><path fill="#ff7800" d="M20 18a8 8 0 1 1-16 0 8 8 0 0 1 16 0m0 0"/><path fill="#fff" d="M12 10a8 8 0 0 0-7.984 8.5 8 8 0 0 1 15.968 0Q20 18.252 20 18a8 8 0 0 0-8-8m20 0a8 8 0 0 0-7.984 8.5 8 8 0 0 1 15.968 0Q40 18.252 40 18a8 8 0 0 0-8-8m20 0a8 8 0 0 0-7.984 8.5 8 8 0 0 1 15.968 0Q60 18.252 60 18a8 8 0 0 0-8-8M42 38a8 8 0 0 0-7.984 8.5 8 8 0 0 1 15.968 0Q50 46.252 50 46a8 8 0 0 0-8-8m-20 0a8 8 0 0 0-7.984 8.5 8 8 0 0 1 15.968 0Q30 46.252 30 46a8 8 0 0 0-8-8" opacity=".2"/></svg>