<svg xmlns="http://www.w3.org/2000/svg" viewBox="0 0 64 64"><path d="M54 39c0 12.15-9.85 22-22 22s-22-9.85-22-22 9.85-22 22-22 22 9.85 22 22m0 0" opacity=".2"/><path fill="#ff9800" d="M54 38c0 12.15-9.85 22-22 22s-22-9.85-22-22 9.85-22 22-22 22 9.85 22 22m0 0"/><path d="M54 33c0 12.15-9.85 22-22 22s-22-9.85-22-22 9.85-22 22-22 22 9.85 22 22m0 0" opacity=".1"/><path fill="#ffeb3b" d="M54 32c0 12.15-9.85 22-22 22s-22-9.85-22-22 9.85-22 22-22 22 9.85 22 22m0 0"/><path d="M54 27c0 12.15-9.85 22-22 22s-22-9.85-22-22S19.85 5 32 5s22 9.85 22 22m0 0" opacity=".1"/><path fill="#d546e6" d="M54 26c0 12.15-9.85 22-22 22s-22-9.85-22-22S19.85 4 32 4s22 9.85 22 22m0 0"/><path fill="#fff" d="M32 4c-12.15 0-22 9.85-22 22 0 .168.01.333.014.5C10.28 14.58 20.017 5 32 5s21.72 9.58 21.986 21.5c.004-.167.014-.332.014-.5 0-12.15-9.85-22-22-22" opacity=".2"/><path fill="none" stroke="#000" stroke-dashoffset="26.4" stroke-linecap="round" stroke-width="2" d="M22.438 18.46a12.21 12.502 0 0 1 14.754-3.177 12.21 12.502 0 0 1 6.52 13.92 12.21 12.502 0 0 1-11.654 9.793 12.21 12.502 0 0 1-12.06-9.264" opacity=".2"/><path fill="none" stroke="#000" stroke-linecap="round" stroke-linejoin="round" stroke-width="2" d="M25 20h-4v-4z" opacity=".2"/><path fill="none" stroke="#ffc9ff" stroke-dashoffset="26.4" stroke-linecap="round" stroke-width="2" d="M21.914 18.148a12.21 12.502 0 0 1 14.697-4.139 12.21 12.502 0 0 1 7.186 13.766 12.21 12.502 0 0 1-11.526 10.214 12.21 12.502 0 0 1-12.273-9.257"/><path fill="none" stroke="#ffc9ff" stroke-linecap="round" stroke-linejoin="round" stroke-width="2" d="M25 19h-4v-4z"/><path fill="none" stroke="#000" stroke-linecap="round" stroke-width="2" d="m37 30-5-3v-7" opacity=".2"/><path fill="none" stroke="#ffc9ff" stroke-linecap="round" stroke-width="2" d="m37 29-5-3v-7"/></svg>