<svg xmlns="http://www.w3.org/2000/svg" viewBox="0 0 64 64"><circle cx="32" cy="33" r="28" opacity=".2"/><circle cx="32" cy="32" r="28" fill="#6492fd"/><path d="M22.186 18C19.884 18 18 19.465 18 22s1.884 4 4.186 4h14.859c.22 0 .36.24.252.451l-3.83 8.176c-.14.22.112.486.306.322C33.773 34.95 46 25.817 46 22c0-2.044-1.884-4.001-4.186-4Zm8.191 13.002a.2.2 0 0 0-.15.049S18 40.183 18 44c0 2.044 1.884 4.001 4.186 4h19.628C44.116 48 46 46.535 46 44s-1.884-4-4.186-4H26.955c-.22 0-.36-.24-.252-.451l3.83-8.176c.105-.166-.01-.355-.156-.371" opacity=".2"/><path fill="#fff" d="M46 21c0 3.817-12.227 12.949-12.227 12.949-.194.164-.447-.1-.307-.322l3.832-8.175c.107-.213-.032-.452-.252-.452H22.185C19.883 25 18 23.535 18 21s1.883-4 4.185-4h19.63C44.117 16.999 46 18.956 46 21"/><path fill="#fff" d="M18 43c0-3.817 12.227-12.949 12.227-12.949.194-.164.447.1.307.322l-3.832 8.175c-.107.213.032.452.252.452h14.861C44.117 39 46 40.465 46 43s-1.883 4-4.185 4h-19.63C19.883 47.001 18 45.044 18 43"/><path fill="#fff" d="M32 4A28 28 0 0 0 4 32a28 28 0 0 0 .006.49A28 28 0 0 1 32 5a28 28 0 0 1 27.994 27.488A28 28 0 0 0 60 32 28 28 0 0 0 32 4" opacity=".2"/></svg>