<svg xmlns="http://www.w3.org/2000/svg" viewBox="0 0 64 64"><path d="M12.4 11a2.8 2.8 0 0 0-1.98.82l-5.6 5.6A2.8 2.8 0 0 0 4 19.4v32.9a2.8 2.8 0 0 0 2.8 2.8h44.8a2.8 2.8 0 0 0 1.98-.82l5.6-5.6A2.8 2.8 0 0 0 60 46.7V13.8a2.8 2.8 0 0 0-2.8-2.8Z" opacity=".2"/><path fill="#c31031" d="M12.4 10a2.8 2.8 0 0 0-1.98.82l-5.6 5.6A2.8 2.8 0 0 0 4 18.4v32.9a2.8 2.8 0 0 0 2.8 2.8h44.8a2.8 2.8 0 0 0 1.98-.82l5.6-5.6A2.8 2.8 0 0 0 60 45.7V12.8a2.8 2.8 0 0 0-2.8-2.8Z"/><path d="m15 19-5 5v18l5 5h17l-6-6H15v-5h11v-6H15v-5h11l6-6zm22 0-5 5v7l5 5h12v5H32l6 6h11l5-5v-7l-5-5H37v-5h11l6-6z" opacity=".2"/><path fill="#fff" d="m15 18-5 5v18l5 5h17l-6-6H15v-5h11v-6H15v-5h11l6-6zm22 0-5 5v7l5 5h12v5H32l6 6h11l5-5v-7l-5-5H37v-5h11l6-6z"/><path fill="#fff" d="M12.4 10c-.742 0-1.455.295-1.98.82l-5.6 5.6A2.8 2.8 0 0 0 4 18.4v1c0-.742.295-1.455.82-1.98l5.6-5.6A2.8 2.8 0 0 1 12.4 11h44.8a2.8 2.8 0 0 1 2.8 2.8v-1a2.8 2.8 0 0 0-2.8-2.8z" opacity=".1"/></svg>