<svg xmlns="http://www.w3.org/2000/svg" viewBox="0 0 64 64"><path d="M16.6 5C9.62 5 4 10.62 4 17.6v30.8C4 55.38 9.62 61 16.6 61h30.8C54.38 61 60 55.38 60 48.4V17.6C60 10.62 54.38 5 47.4 5Z" opacity=".2"/><path fill="#ff7f2a" d="M17 4C10.02 4 4.4 9.62 4.4 16.6v30.8C4.4 54.38 10.02 60 17 60h30.8c6.98 0 12.6-5.62 12.6-12.6V16.6C60.4 9.62 54.78 4 47.8 4Z"/><path d="M20.75 5c.722 3.296 1.65 7.806 2.375 8.004 1.063.29-.52-4.79-.918-8.004zm11.965 0c-.252 2.661-2.127 4.96-2.55 6.047-.658 1.687-3.466 4.534-1.966 5.843.787.688 2.176-1.008 2.653-1.722 1.8-2.696.49-.786 3.597-7.145.561-1.148 1.026-1.838 1.235-3.023zM11.559 6.047a12.5 12.5 0 0 0-3.422 2.222c1.372 1.854 2.806 4.05 3.77 6.461C14.25 20.6 9.37 25.207 10 30.664c.388 3.366 2.804 4.533 6.07 6.016.265.157.532.309.805.445.845.422 1.855.897 2.926 1.367 1.555.842 3.195 1.884 4.84 3.328 2.595 2.278 6.515.73 8.566.504 1.99-.22 4.277.94 4.277.125a.36.36 0 0 0-.047-.172c1.955-.17 5.353-1.044 8.415-3.781 5.536-4.95 4.68-9.168 11.543-12.98.793-.441 1.827-.83 2.605-1.192v-6.723c0-.772-.08-1.524-.21-2.257-.614-.096-1.283-.19-1.83-.29-.356-1.392-3.205-3.051-5.827-3.484-2.63-.434-6.989-1.039-11.895 1.047-2.414 1.026-6.734 2.207-6.191 3.879.19.583.563.866 1.101.95-.634.27-1.233.528-1.703.714-5.459 2.162-7.793-.642-11.843-.559-1.773.037-3.921 1.03-6.758 2.602.346-2.118.44-4.253-.262-5.988-1.59-3.928-2.54-4.922-3.023-8.168M60 39.469c-.655.408-1.444 1.161-2.383 2.378-4.785 6.203-9.036 7.797-17.012 10.278-7.975 2.481-16.04-.747-20.738-3.367-1.238-.69-4.608-4.764-5.672-3.524-1.063 1.24.892 3.704 1.778 4.59s7.883 5.67 15.77 6.91c6.71 1.056 19.32-2.836 22.51-5.14 1.894-1.367 4.082-3.167 5.747-4.852Z" opacity=".1"/><path fill="#fff" d="M48.09 13.063a35 35 0 0 0-1.453.007c-1.226.036-2.362.146-3.27.367-3.633.887-7.777 2.874-9.922 3.723-5.459 2.162-7.793-.642-11.843-.558-2.067.042-4.58 1.334-8.184 3.394-2.002 1.145-1.863 7.442-1.863 9.746s2.484 4.965 5.32 6.383 7.444 3.41 10.457 3.941c3.013.532 7.531 1.105 8.95 1.238 1.417.133 5.772-.413 9.57-3.808 5.536-4.95 4.68-9.168 11.543-12.98.793-.441 1.827-.83 2.605-1.192v-6.722c0-.772-.08-1.525-.21-2.258-.792-.123-1.763-.24-2.306-.375-1.464-.366-5.856-.86-9.394-.906"/><path fill="#383838" d="M34.047 15.495c.472 1.455 2.069 1.07 4.59.271.709-.242 3.01-1.27 6.129-1.751 3.335-.515 2.89-.48 7.372.026 3.303.373 5.656 1.659 5.85.45.234-1.46-2.95-3.44-5.854-3.92-2.63-.433-6.99-1.038-11.896 1.048-2.414 1.026-6.734 2.205-6.191 3.876m-4.457 7.558c-1.064.576-3.988 3.278-5.273 3.411s-1.816-.576-2.88-.177-6.602 2.127-7.266 2.57c-.665.443-.886 1.33-.443 1.728.443.399 5.893.753 6.646 1.152s5.228 2.614 6.513 2.57 6.026.354 7.842-.4c1.817-.752 4.918-5.449 6.558-6.645s3.544-2.703 5.36-3.235c1.817-.531 3.944-1.95 4.742-3.012.797-1.064 1.019-2.039 0-2.26-1.02-.222-2.437 1.108-3.678 1.373-1.24.266-5.228.266-7.62 0-2.393-.265-10.413 3.013-10.501 2.925"/><circle cx="33" cy="29" r="7" fill="#8af258"/><circle cx="32" cy="28" r="2" fill="#383838"/><path fill="#383838" d="M44.063 19.961c-3.752-.9-8.498.054-11.242.72-2.515.61-4.877 1.957-5.842 2.89-.513.496-1.596 1.44-2.172 1.716-.436.209-1.053.267-1.664.178-.793-.116-1.402-.645-1.683-1.615-.357-1.236-.682-2.301-.211-3.68a.356.356 0 0 0-.67-.239c-.65 1.82-.695 3.61-.227 5.018s1.492 2.45 2.902 2.598c.954.1 1.727-.085 2.392-.444.666-.358 1.228-.876 1.861-1.434 1.267-1.115 2.808-2.437 5.904-3.273 6.499-1.755 3.545-1.593 10.67-1.726a.355.355 0 0 0-.018-.709"/><path fill="#383838" d="M50.51 18.113c-.372.056-.733.21-1.114.388-1.895 1.144-3.337 1.44-5.484 1.292-1.341-.094-2.77-.227-4.027-.094-2.482.261-4.198 1.318-4.198 1.318l.466.753s1.547-.95 3.827-1.19c1.123-.119 2.518 0 3.871.093 1.353.095 2.241.036 3.296-.245 1.016-.27 1.916-.792 2.625-1.124.355-.166.66-.28.864-.31.206-.03.265-.013.344.066.14.14.196.255.216.377s.006.275-.1.498c-.211.448-.795 1.118-1.839 1.977-.98.808-1.93 1.447-3.44 2.03a21.7 21.7 0 0 0-4.663 2.497c-1.761 1.231-1.875 2.492-3.84 4.258-1.238 1.113-2.758 2.666-4.579 2.88-5.26.619-6.637-.628-10.018-1.423-2.14-.503-4.25-1.174-6.032-1.334-.89-.08-1.662-.161-2.149-.31-.243-.075-.409-.167-.493-.244s-.106-.124-.11-.244c-.013-.379.073-.5.37-.692.299-.191.839-.365 1.546-.548 1.414-.367 3.483-.815 5.815-2.116l-.432-.775c-2.213 1.235-4.159 1.658-5.605 2.032-.723.187-1.328.353-1.805.66a1.67 1.67 0 0 0-.776 1.472c.012.336.168.652.4.864.23.213.512.34.83.438.635.194 1.43.263 2.326.343 1.792.162 3.974.346 5.705 1.24 3.391 1.755 6.145 3.687 11.536 3.053 2.17-.256 4.733-2.183 5.806-3.8 1.073-1.619 1.874-2.888 3.262-3.936.98-.74 1.863-1.762 3.36-2.826 1.308-.93 2.396-1.885 3.546-2.832 1.087-.895 1.755-1.607 2.077-2.287.16-.34.231-.687.177-1.02a1.6 1.6 0 0 0-.465-.858c-.297-.296-.726-.376-1.097-.32"/><path fill="#383838" d="M20.75 4c.723 3.296 1.65 7.804 2.374 8.002 1.063.29-.52-4.787-.919-8.002zm11.964 0c-.252 2.662-2.128 4.96-2.551 6.047-.658 1.687-3.464 4.534-1.964 5.844.787.687 2.175-1.009 2.652-1.723 1.8-2.696.49-.784 3.596-7.143.561-1.148 1.028-1.84 1.236-3.025ZM11.56 5.047A12.5 12.5 0 0 0 8.137 7.27c1.372 1.854 2.805 4.05 3.768 6.462 2.344 5.87-2.533 10.476-1.904 15.933.686 5.954 7.615 4.992 14.638 11.157 2.595 2.278 6.518.727 8.57.5 1.989-.219 4.276.94 4.276.126 0-.886-3.957-2.04-7.42-2.187-3.623-.152-7.41-4.127-12.19-4.961-2.612-.457-5.184-2.736-2.475-2.882 2.006-1.491 2.415-2.257-.258-2.97-4.727.834 1.788-9.435-.559-15.233-1.59-3.928-2.538-4.921-3.022-8.168M60 38.467c-.655.41-1.443 1.162-2.382 2.38-4.785 6.202-9.038 7.797-17.013 10.278s-16.039-.746-20.737-3.366c-1.238-.69-4.608-4.766-5.672-3.525-1.063 1.24.889 3.703 1.775 4.589s7.885 5.669 15.772 6.91c6.71 1.055 19.32-2.835 22.51-5.138 1.892-1.367 4.082-3.169 5.747-4.854Z"/><path fill="#fff" d="M16.602 4A12.575 12.575 0 0 0 4 16.602v1C4 10.622 9.621 5 16.602 5h30.796C54.378 5 60 10.621 60 17.602v-1C60 9.622 54.379 4 47.398 4z" opacity=".2"/></svg>