<svg xmlns="http://www.w3.org/2000/svg" viewBox="0 0 64 64"><path d="M57.222 11A2.77 2.77 0 0 1 60 13.778v33.43A2.783 2.783 0 0 1 57.222 50H49.39S48 49.986 48 51.375v6.751c.001 2.209-1.427 3.59-2.569 2.485l-6.966-6.638-3.243-3.134c-.698-.89-1.132-.839-2.195-.839h-20.25A2.783 2.783 0 0 1 10 47.209V13.778A2.77 2.77 0 0 1 12.778 11z" opacity=".2"/><path fill="#22759b" d="M57.222 10A2.77 2.77 0 0 1 60 12.778v33.43A2.783 2.783 0 0 1 57.222 49H49.39S48 48.986 48 50.375v6.751c.001 2.209-1.427 3.59-2.569 2.485l-6.966-6.638-3.243-3.134c-.698-.89-1.132-.839-2.195-.839h-20.25A2.783 2.783 0 0 1 10 46.209V12.778A2.77 2.77 0 0 1 12.778 10z"/><path fill="#fff" d="M12.777 10A2.77 2.77 0 0 0 10 12.777v1A2.77 2.77 0 0 1 12.777 11h44.446A2.77 2.77 0 0 1 60 13.777v-1A2.77 2.77 0 0 0 57.223 10z" opacity=".1"/><path d="M6.778 5A2.77 2.77 0 0 0 4 7.778v33.43A2.783 2.783 0 0 0 6.778 44h7.833S16 43.986 16 45.375v6.751c-.001 2.209 1.427 3.59 2.569 2.485l6.966-6.638 3.243-3.134c.698-.89 1.132-.839 2.195-.839h20.25A2.783 2.783 0 0 0 54 41.209V7.778A2.77 2.77 0 0 0 51.222 5Z" opacity=".2"/><path fill="#38e0e4" d="M6.778 4A2.77 2.77 0 0 0 4 6.778v33.43A2.783 2.783 0 0 0 6.778 43h7.833S16 42.986 16 44.375v6.751c-.001 2.209 1.427 3.59 2.569 2.485l6.966-6.638 3.243-3.134c.698-.89 1.132-.839 2.195-.839h20.25A2.783 2.783 0 0 0 54 40.209V6.778A2.77 2.77 0 0 0 51.222 4Z"/><path d="M12.748 14a2.709 2.5 0 1 0 0 5h32.504a2.709 2.5 0 1 0 0-5zm.035 8a2.744 2.5 0 1 0 0 5h27.434a2.744 2.5 0 1 0 0-5zm.049 8a2.792 2.5 0 1 0 0 5h22.336a2.792 2.5 0 1 0 0-5z" opacity=".2"/><path fill="#fff" d="M12.747 13a2.709 2.5 0 1 0 0 5h32.506a2.709 2.5 0 1 0 0-5zm.036 8a2.744 2.5 0 1 0 0 5h27.434a2.744 2.5 0 1 0 0-5zm.049 8a2.792 2.5 0 1 0 0 5h22.336a2.792 2.5 0 1 0 0-5z"/><path fill="#fff" d="M6.777 4A2.77 2.77 0 0 0 4 6.777v1A2.77 2.77 0 0 1 6.777 5h44.446A2.77 2.77 0 0 1 54 7.777v-1A2.77 2.77 0 0 0 51.223 4z" opacity=".2"/></svg>