<svg xmlns="http://www.w3.org/2000/svg" xmlns:xlink="http://www.w3.org/1999/xlink" viewBox="0 0 96 96"><defs><linearGradient id="b" x1=".765%" x2="100%" y1="50%" y2="50%"><stop offset="0%" stop-color="#bdd3ff"/><stop offset="22.792%" stop-color="#e5f7fc"/><stop offset="53.868%" stop-color="#dff2fc"/><stop offset="100%" stop-color="#94baff"/></linearGradient><linearGradient id="c" x1="50%" x2="50%" y1="11.26%" y2="100%"><stop offset="0%" stop-color="#5a7fbf"/><stop offset="100%" stop-color="#3a63ad"/></linearGradient><linearGradient id="f" x1="50%" x2="50%" y1="0%" y2="96.017%"><stop offset="0%" stop-color="#d1d1d1"/><stop offset="100%" stop-color="#919191"/></linearGradient><filter id="a" width="152.2%" height="137.2%" x="-26.1%" y="-18.6%" filterUnits="objectBoundingBox"><feOffset dy="2" in="SourceAlpha" result="shadowOffsetOuter1"/><feGaussianBlur in="shadowOffsetOuter1" result="shadowBlurOuter1" stdDeviation="2"/><feColorMatrix in="shadowBlurOuter1" result="shadowMatrixOuter1" values="0 0 0 0 0 0 0 0 0 0 0 0 0 0 0 0 0 0 0.2 0"/><feMerge><feMergeNode in="shadowMatrixOuter1"/><feMergeNode in="SourceGraphic"/></feMerge></filter><filter id="e" width="151%" height="150.4%" x="-25.5%" y="-25.2%" filterUnits="objectBoundingBox"><feOffset dy="2" in="SourceAlpha" result="shadowOffsetOuter1"/><feGaussianBlur in="shadowOffsetOuter1" result="shadowBlurOuter1" stdDeviation="2"/><feColorMatrix in="shadowBlurOuter1" result="shadowMatrixOuter1" values="0 0 0 0 0 0 0 0 0 0 0 0 0 0 0 0 0 0 0.2 0"/><feMerge><feMergeNode in="shadowMatrixOuter1"/><feMergeNode in="SourceGraphic"/></feMerge></filter><radialGradient id="d" cx="34.303%" cy="52.32%" r="153.795%" fx="34.303%" fy="52.32%" gradientTransform="matrix(0 1 -.45515 0 .581 .18)"><stop offset="0%" stop-color="#e6ecff"/><stop offset="83.275%" stop-color="#9dc2ff"/><stop offset="84.189%" stop-color="#9cc2ff"/><stop offset="100%" stop-color="#97bfff"/></radialGradient></defs><g fill="none" fill-rule="evenodd"><g filter="url(#a)" transform="translate(16 13)"><path fill="url(#b)" stroke="url(#c)" d="M45.5 32v26c0 .752-.588 1.434-1.524 2.073-1.13.772-2.791 1.46-4.849 2.042C35 63.281 29.297 64 23 64c-6.22 0-11.859-.7-15.974-1.842-2.056-.57-3.726-1.247-4.883-2.005C1.18 59.52.561 58.848.504 58.106L.5 32z"/><path fill="url(#b)" stroke="url(#c)" d="M45.5 7v26c0 .752-.588 1.434-1.524 2.073-1.13.772-2.791 1.46-4.849 2.042C35 38.281 29.297 39 23 39c-6.22 0-11.859-.7-15.974-1.842-2.056-.57-3.726-1.247-4.883-2.005C1.18 34.52.561 33.848.504 33.106L.5 7z"/><ellipse cx="23" cy="6.5" fill="url(#d)" stroke="#5a7fbf" rx="22.5" ry="6"/></g><g filter="url(#e)" transform="translate(43.298 42.499)"><path fill="#9f5f3f" stroke="#3f3f5f" d="m23.409 27.703 3.495-3.495 3.989 3.989-3.496 3.495z"/><circle cx="16.186" cy="16.186" r="16.186" fill="#fffbf0"/><rect width="7" height="21" x="32.968" y="26.468" fill="#9f5f3f" stroke="#3f3f5f" rx="2" transform="rotate(-45 36.468 36.968)"/><path fill="url(#f)" fill-rule="nonzero" d="M16.186 0c8.94 0 16.186 7.247 16.186 16.186s-7.247 16.186-16.186 16.186S0 25.125 0 16.186 7.247 0 16.186 0m0 4C9.456 4 4 9.456 4 16.186s5.456 12.186 12.186 12.186 12.186-5.456 12.186-12.186S22.916 4 16.186 4"/></g></g></svg>