<svg xmlns="http://www.w3.org/2000/svg" viewBox="0 0 64 64"><path d="M10 56v2c0 1.662 1.338 3 3 3h38c1.662 0 3-1.338 3-3v-2c0 1.662-1.338 3-3 3H13c-1.662 0-3-1.338-3-3" opacity=".2"/><path fill="#5fbb20" d="M54 57V7c0-1.662-1.338-3-3-3H13c-1.662 0-3 1.338-3 3v50c0 1.662 1.338 3 3 3h38c1.662 0 3-1.338 3-3"/><path fill="#fff" d="M13 4c-1.662 0-3 1.338-3 3v1c0-1.662 1.338-3 3-3h38c1.662 0 3 1.338 3 3V7c0-1.662-1.338-3-3-3z" opacity=".1"/><path fill="#209dbb" d="M51.25 60c1.524 0 2.75-1.314 2.75-2.948V32H10v25.052C10 58.686 11.226 60 12.75 60Z"/><path fill="#4c4c4c" d="M18 12h28v2H18zm0 6h28v2H18zm0 6h28v2H18z"/><path fill="#fff" d="M18 38h28v2H18zm0 6h28v2H18zm0 6h28v2H18z"/></svg>