<svg xmlns="http://www.w3.org/2000/svg" viewBox="0 0 64 64"><circle cx="32" cy="33" r="28" opacity=".2"/><circle cx="32" cy="32" r="28" fill="#1c64d8"/><path d="M18.281 11c-1.857 0-4.351 2.102-4.351 4h-3.34a28 28 0 0 0-1.5 2H10v2H7.824A28 28 0 0 0 4 33a28 28 0 0 0 9.93 21.36V42.723c0-1.898-2.8-3.437-4.657-3.437s-3.312-2.252-3.312-4.153c0-1.898 1.455-3.875 3.312-3.875 1.858 0 4.657-1.1 4.657-3 0-1.898.076-3.355 1.933-3.355s4.188-1.541 4.188-3.441v-4.817c0-.977.548-1.77 1.504-1.77.959-.058 2.443.126 2.37-2.25.073-1.624-1.925-1.583-2.94-1.624.493 0-2.084.113-2.704 0m25.367 7.18c-1.794 0-3.25 1.49-3.25 3.325v1.414c0 1.834-.854 3.324-2.648 3.324-2.158.164-3.91 2.085-3.75 4.293v5.797c0 1.883 1.029 4.468 2.871 4.468 1.968 0 3.129 1.607 3.129 3.157v3.27c0 2.065.878 3.773 2.898 3.773 2.02-.002 3.104-1.71 3.102-3.774v-6.304c0-1.514.588-3.764 1.637-4.833 1.047-1.068 2.469-3.068 3.949-3.066l1.945.016a3.22 3.22 0 0 0 2.301-.97c.608-.62.95-1.466.95-2.347v-8.218c0-1.835-1.455-3.325-3.25-3.325z" opacity=".2"/><path fill="none" stroke="#000" stroke-width="4" d="M50 34.4v14.159C50 52.046 46.4 55 43.597 55H28.71c-2.583 0-6.219-.975-6.586-3.273C20.92 44.2 23.6 43 13.24 43" opacity=".2"/><path fill="#26a269" d="M40.399 20.503v1.416c0 1.834-.856 3.322-2.65 3.322-2.158.164-3.91 2.085-3.75 4.293v5.8c0 1.883 1.028 4.466 2.87 4.466 1.968 0 3.131 1.606 3.131 3.156v3.269C40 48.29 40.88 50 42.9 50c2.019-.002 3.102-1.712 3.1-3.775v-6.303c0-1.513.589-3.765 1.638-4.833 1.046-1.068 2.468-3.066 3.948-3.065l1.945.013a3.2 3.2 0 0 0 2.3-.968c.607-.622.95-1.466.95-2.346v-8.22c0-1.834-1.454-3.322-3.25-3.322h-9.883c-1.794 0-3.25 1.488-3.25 3.322M18.281 10c-1.857 0-4.351 2.102-4.351 4h-3.34a28 28 0 0 0-1.5 2H10v2H7.824A28 28 0 0 0 4 32a28 28 0 0 0 9.93 21.36V41.72c0-1.898-2.799-3.437-4.656-3.437s-3.312-2.25-3.312-4.15c0-1.899 1.455-3.875 3.312-3.875s4.656-1.1 4.656-3 .076-3.355 1.933-3.355 4.19-1.542 4.19-3.442v-4.816c0-.977.548-1.77 1.503-1.77.96-.059 2.444.125 2.371-2.25C24 10 22 10.041 20.984 10c.494 0-2.083.114-2.703 0"/><path fill="#fff" d="M32 4A28 28 0 0 0 4 32a28 28 0 0 0 .033.482A28 28 0 0 1 32 5a28 28 0 0 1 27.982 27.242L60 32A28 28 0 0 0 32 4" opacity=".2"/><path fill="none" stroke="#ed9700" stroke-width="4" d="M50 33.4v14.159C50 51.046 46.4 54 43.597 54H28.71c-2.583 0-6.219-.975-6.586-3.273C20.92 43.2 23.6 42 13.24 42"/><path fill="#fff" d="M52 40a1.999 1.999 0 1 1-4 0 1.999 1.999 0 1 1 4 0m0 0"/><path d="M15 43.001A4 4 0 0 1 11 47a4 4 0 1 1 0-8 4 4 0 0 1 4 4.001m0 0" opacity=".2"/><path fill="#fff" d="M15 42.001A4 4 0 0 1 11 46a4 4 0 1 1 0-8 4 4 0 0 1 4 4.001M52 48a1.999 1.999 0 1 1-4 0 1.999 1.999 0 1 1 4 0m-6 6a1.999 1.999 0 1 1-4 0 1.999 1.999 0 1 1 4 0m-8 0a1.999 1.999 0 1 1-4 0 1.999 1.999 0 1 1 4 0m-8 0a1.999 1.999 0 1 1-4 0 1.999 1.999 0 1 1 4 0m-6-4a1.999 1.999 0 1 1-4 0 1.999 1.999 0 1 1 4 0m-4-8a1.999 1.999 0 1 1-4 0 1.999 1.999 0 1 1 4 0m0 0"/><path d="M27.594 5h28.812C58.391 5 60 6.628 60 8.636v22.728C60 33.372 58.391 35 56.406 35H27.594C25.609 35 24 33.372 24 31.364V8.636C24 6.628 25.609 5 27.594 5m0 0" opacity=".1"/><path fill="#463c5f" d="M27.594 4h28.812C58.391 4 60 5.628 60 7.636v22.728C60 32.372 58.391 34 56.406 34H27.594C25.609 34 24 32.372 24 30.364V7.636C24 5.628 25.609 4 27.594 4m0 0"/><path d="m33.6 11 5.09 15.673 3.32-2.918 2.158 2.657a1.565 1.565 0 0 0 2.243.21 1.664 1.664 0 0 0 .203-2.3l-2.188-2.693 3.174-2.792Z" opacity=".2"/><path fill="#fff" d="m33.6 10 5.09 15.673 3.32-2.918 2.158 2.657a1.565 1.565 0 0 0 2.243.21 1.664 1.664 0 0 0 .203-2.3l-2.188-2.693 3.174-2.792Z"/><path fill="#fff" d="M27.594 4C25.609 4 24 5.629 24 7.637v1C24 6.629 25.61 5 27.594 5h28.812C58.391 5 60 6.629 60 8.637v-1C60 5.629 58.39 4 56.406 4z" opacity=".1"/></svg>