<svg xmlns="http://www.w3.org/2000/svg" viewBox="0 0 64 64"><rect width="56" height="56" x="4" y="5" opacity=".2" rx="4.48" ry="4.48"/><rect width="56" height="56" x="4" y="4" fill="#cbcbcb" rx="4.48" ry="4.48"/><path d="M10.824 9C9.26 9 8 10.16 8 11.6v7.8c0 1.44 1.26 2.6 2.824 2.6h42.352C54.74 22 56 20.84 56 19.4v-7.8c0-1.44-1.26-2.6-2.824-2.6zm0 17C9.26 26 8 27.16 8 28.6v7.8c0 1.44 1.26 2.6 2.824 2.6h42.352C54.74 39 56 37.84 56 36.4v-7.8c0-1.44-1.26-2.6-2.824-2.6z" opacity=".2"/><rect width="48" height="13" x="8" y="-21" fill="#fff" rx="2.824" ry="2.6" transform="scale(1 -1)"/><path d="M12 12h30v5H12Z" opacity=".2"/><rect width="48" height="13" x="8" y="-38" fill="#fff" rx="2.824" ry="2.6" transform="scale(1 -1)"/><path d="M32 38h21.176C54.741 38 56 36.84 56 35.4v-7.8c0-1.44-1.26-2.6-2.824-2.6H32Z" opacity=".07"/><path d="M12 29h18v5H12Z" opacity=".2"/><rect width="48" height="14" x="8" y="-57" opacity=".1" rx="2.824" ry="2.8" transform="scale(1 -1)"/><rect width="48" height="14" x="8" y="-56" fill="#3584e4" rx="2.824" ry="2.8" transform="scale(1 -1)"/><path fill="#8ccbfd" d="M22 46h20v6H22Z"/><path fill="#5f5f5f" d="M43 33v-3h-9v3h8.115zm11.001-21-2.25 2.5-2.25 2.5-2.25-2.5-2.25-2.5h4.5zM54 33v-3h-9v3h8.115z"/><path fill="#5f5f5f" d="M48 36h3v-9h-3v8.115z"/><path fill="#fff" d="M8.48 4A4.47 4.47 0 0 0 4 8.48v1A4.47 4.47 0 0 1 8.48 5h47.04A4.47 4.47 0 0 1 60 9.48v-1A4.47 4.47 0 0 0 55.52 4z" opacity=".2"/></svg>