<svg xmlns="http://www.w3.org/2000/svg" viewBox="0 0 64 64"><rect width="45" height="56" x="10" y="5" opacity=".2" rx="4.2" ry="4.2"/><rect width="45" height="56" x="10" y="4" fill="#e4e4e4" rx="4.2" ry="4.2"/><path d="M14 42v6h33v-3h4v-3z" opacity=".2"/><rect width="16.987" height="17" x="34" y="21" fill="#ff4d39" rx="0" ry="0"/><path d="M34.907 35.65c3.168-.914 6.293-2.6 8.726-4.846.985-.932 1.72-2.668 1.234-4.028-.5-1.396-2.341-1.96-3.706-1.68-2.01.348-3.852 2.181-4.143 4.273-.29 1.85.971 3.766 2.563 4.608 2.128 1.13 4.675 1.224 7 .758 1.58-.333 3.095-.98 4.419-1.906l-.013-2.756c-2.28 2.506-5.73 3.99-9.127 3.705-1.678-.141-3.48-1.27-3.957-2.976-.456-1.582.654-3.558 2.064-4.287 1.011-.55 2.365-.895 3.373-.155.946.716.825 2.433.185 3.313-1.043 1.428-2.638 2.568-4.057 3.585a25 25 0 0 1-4.56 2.392" opacity=".2"/><path fill="#fff" d="M34.907 34.65c3.168-.914 6.293-2.6 8.726-4.846.985-.932 1.72-2.668 1.234-4.028-.5-1.396-2.341-1.96-3.706-1.68-2.01.348-3.852 2.181-4.143 4.273-.29 1.85.971 3.766 2.563 4.608 2.128 1.13 4.675 1.224 7 .758 1.58-.333 3.095-.98 4.419-1.906l-.013-2.756c-2.28 2.506-5.73 3.99-9.127 3.705-1.678-.141-3.48-1.27-3.957-2.976-.456-1.582.654-3.558 2.064-4.287 1.011-.55 2.365-.895 3.373-.155.946.716.825 2.433.185 3.313-1.043 1.428-2.638 2.568-4.057 3.585a25 25 0 0 1-4.56 2.392"/><path d="M14 9v3h21V9Z" opacity=".4"/><path d="M31 18v7H14V15h37v3zM14 28h17v8h-6v3H14Z" opacity=".2"/><path fill="#fff" d="M14.2 4A4.19 4.19 0 0 0 10 8.2v1A4.19 4.19 0 0 1 14.2 5h36.6A4.19 4.19 0 0 1 55 9.2v-1A4.19 4.19 0 0 0 50.8 4z" opacity=".2"/></svg>