<svg xmlns="http://www.w3.org/2000/svg" viewBox="0 0 64 64"><path d="M5.999 8A2.006 2.006 0 0 0 4 10.014v45.97C4 57.098 4.894 58 5.999 58h5.862c1.105 0 2.145-.902 2.139-2.015V18h2.001c1.105 0 2.49-.042 3.566.2 2.08.467 3.75 1.75 4.214 3.847.24 1.085.218 2.903.218 4.017v29.92c0 1.114.476 2.016 1.58 2.016h6.46C33.145 58 34 57.098 34 55.985V50h8.001v5.985C42 57.098 42.955 58 44.06 58h5.92A2.023 2.023 0 0 0 52 55.985V50h6.012C59.126 50 60 49.084 60 47.98v-5.92A2.06 2.06 0 0 0 58.012 40H52v-6.012C52 32.874 51.084 32 49.98 32h-5.92c-1.105 0-2.06.874-2.06 1.988V40h-8V26.145c0-1.114.052-2.924-.082-4.028-.808-6.661-6.14-12.858-12.49-13.948-1.087-.187-2.323-.17-3.428-.17Z" opacity=".2"/><path fill="#ffa834" d="M5.999 7A2.006 2.006 0 0 0 4 9.014v45.97C4 56.098 4.894 57 5.999 57h5.862c1.105 0 2.145-.902 2.139-2.015V17h2.001c1.105 0 2.49-.042 3.566.2 2.08.467 3.75 1.75 4.214 3.847.24 1.085.218 2.903.218 4.017v29.92c0 1.114.476 2.016 1.58 2.016h6.46C33.145 57 34 56.098 34 54.985V49h8.001v5.985C42 56.098 42.955 57 44.06 57h5.92A2.023 2.023 0 0 0 52 54.985V49h6.012C59.126 49 60 48.084 60 46.98v-5.92A2.06 2.06 0 0 0 58.012 39H52v-6.012C52 31.874 51.084 31 49.98 31h-5.92c-1.105 0-2.06.874-2.06 1.988V39h-8V25.145c0-1.114.052-2.924-.082-4.028-.808-6.661-6.14-12.858-12.49-13.948-1.087-.187-2.323-.17-3.428-.17Z"/><path fill="#fff" d="M6 7c-1.105 0-2 .902-2 2.016v1C4 8.902 4.895 8 6 8h12c1.105 0 2.342-.019 3.43.168 6.348 1.09 11.68 7.288 12.488 13.95.057.466.078 1.052.086 1.653.006-.932.003-1.92-.086-2.654-.809-6.661-6.14-12.86-12.488-13.949C20.342 6.981 19.105 7 18 7Zm38.059 23.998A2.057 2.057 0 0 0 42 32.987v1a2.057 2.057 0 0 1 2.059-1.989h5.921c1.105 0 2.02.875 2.02 1.989v-1c0-1.114-.915-1.989-2.02-1.989zM34 39v1h8v-1h-.336zm18 0v1h6.012A2.06 2.06 0 0 1 60 42.059v-1A2.06 2.06 0 0 0 58.012 39Z" opacity=".2"/></svg>