<svg xmlns="http://www.w3.org/2000/svg" xml:space="preserve" viewBox="0 0 64 64"><path d="M19.5 15a2.495 2.495 0 0 0-2.5 2.5v35c0 1.385 1.115 2.5 2.5 2.5h25c1.385 0 2.5-1.115 2.5-2.5v-35c0-1.385-1.115-2.5-2.5-2.5H32Z" opacity=".2"/><path fill="#cdcdcd" d="M19.5 14a2.495 2.495 0 0 0-2.5 2.5v35c0 1.385 1.115 2.5 2.5 2.5h25c1.385 0 2.5-1.115 2.5-2.5v-35c0-1.385-1.115-2.5-2.5-2.5z"/><path fill="#444" d="M9.5 9A2.495 2.495 0 0 0 7 11.5v32.6h50V11.5c0-1.385-1.115-2.5-2.5-2.5z"/><path d="M7 45v2.5C7 48.885 8.115 50 9.5 50h45c1.385 0 2.5-1.115 2.5-2.5V45H32Z" opacity=".2"/><path fill="#e4e4e4" d="M7 44v2.5C7 47.885 8.115 49 9.5 49h45c1.385 0 2.5-1.115 2.5-2.5V44z"/><path fill="#fff" d="M9.5 9A2.495 2.495 0 0 0 7 11.5v1C7 11.115 8.115 10 9.5 10h45c1.385 0 2.5 1.115 2.5 2.5v-1c0-1.385-1.115-2.5-2.5-2.5z" opacity=".1"/><circle cx="-47" cy="48" r="16" opacity=".2" transform="scale(-1 1)"/><circle cx="-47" cy="47" r="16" fill="#0f88ef" transform="scale(-1 1)"/><path fill="#fff" d="M45 41h4v12h-4z"/><path fill="#fff" d="M47.477 35.125a.852.874 82.469 0 1 .2.166.852.874 82.469 0 1 .097.135l1.553 2.635 1.558 2.639a.852.874 82.469 0 1-.76 1.28l-3.131.01-3.124.01a.852.874 82.469 0 1-.753-1.274l1.57-2.65 1.576-2.647a.852.874 82.469 0 1 1.214-.304m0 23.75a.874.852 7.531 0 0 .2-.166.874.852 7.531 0 0 .097-.135l1.553-2.635 1.558-2.639a.874.852 7.531 0 0-.76-1.28l-3.131-.01L43.87 52a.874.852 7.531 0 0-.753 1.274l1.57 2.65 1.576 2.647a.874.852 7.531 0 0 1.214.304"/></svg>