<svg xmlns="http://www.w3.org/2000/svg" xml:space="preserve" viewBox="0 0 64 64"><rect width="24" height="32" x="28" y="9" opacity=".2" rx="2" ry="2"/><rect width="24" height="32" x="12" y="27" opacity=".2" rx="2" ry="2"/><rect width="24" height="32" x="28" y="8" fill="#595959" rx="2" ry="2"/><path fill="#333" d="M22 4c-1.108 0-2 .892-2 2v26.1h40V6c0-1.108-.892-2-2-2Z"/><path d="M20 33v2c0 1.108.892 2 2 2h36c1.108 0 2-.892 2-2v-2z" opacity=".2"/><path fill="#696969" d="M20 32v2c0 1.108.892 2 2 2h36c1.108 0 2-.892 2-2v-2z"/><rect width="24" height="32" x="12" y="26" fill="#cdcdcd" rx="2" ry="2"/><path fill="#444" d="M6 22c-1.108 0-2 .892-2 2v26.1h40V24c0-1.108-.892-2-2-2z"/><circle cx="54" cy="35" r="8" opacity=".2"/><path fill="#fff" d="M22 4c-1.108 0-2 .892-2 2v1c0-1.108.892-2 2-2h36c1.108 0 2 .892 2 2V6c0-1.108-.892-2-2-2zM6 22c-1.108 0-2 .892-2 2v1c0-1.108.892-2 2-2h36c1.108 0 2 .892 2 2v-1c0-1.108-.892-2-2-2z" opacity=".1"/><circle cx="54" cy="34" r="8" fill="#0ba037"/><path fill="none" stroke="#fff" stroke-linecap="round" stroke-linejoin="round" stroke-width="2" d="m51 34 2.5 3 3.5-6"/><path d="M4 51v2c0 1.108.892 2 2 2h36c1.108 0 2-.892 2-2v-2z" opacity=".2"/><path fill="#e4e4e4" d="M4 50v2c0 1.108.892 2 2 2h36c1.108 0 2-.892 2-2v-2z"/><circle cx="38" cy="53" r="8" opacity=".2"/><circle cx="38" cy="52" r="8" fill="#f34235"/></svg>