<svg xmlns="http://www.w3.org/2000/svg" xml:space="preserve" viewBox="0 0 64 64"><path d="M19.5 15a2.495 2.495 0 0 0-2.5 2.5v35c0 1.385 1.115 2.5 2.5 2.5h25c1.385 0 2.5-1.115 2.5-2.5v-35c0-1.385-1.115-2.5-2.5-2.5H32Z" opacity=".2"/><path fill="#cdcdcd" d="M19.5 14a2.495 2.495 0 0 0-2.5 2.5v35c0 1.385 1.115 2.5 2.5 2.5h25c1.385 0 2.5-1.115 2.5-2.5v-35c0-1.385-1.115-2.5-2.5-2.5z"/><path fill="#444" d="M9.5 9A2.495 2.495 0 0 0 7 11.5v32.6h50V11.5c0-1.385-1.115-2.5-2.5-2.5z"/><path d="M7 45v2.5C7 48.885 8.115 50 9.5 50h45c1.385 0 2.5-1.115 2.5-2.5V45H32Z" opacity=".2"/><path fill="#e4e4e4" d="M7 44v2.5C7 47.885 8.115 49 9.5 49h45c1.385 0 2.5-1.115 2.5-2.5V44z"/><path fill="#fff" d="M9.5 9A2.495 2.495 0 0 0 7 11.5v1C7 11.115 8.115 10 9.5 10h45c1.385 0 2.5 1.115 2.5 2.5v-1c0-1.385-1.115-2.5-2.5-2.5z" opacity=".1"/><circle cx="-47" cy="48" r="16" opacity=".2" transform="scale(-1 1)"/><circle cx="-47" cy="47" r="16" fill="#0f88ef" transform="scale(-1 1)"/><path fill="none" stroke="#fff" stroke-linecap="round" stroke-linejoin="round" stroke-width="4" d="M48.976 54.752a8 8 0 0 0 6.023-7.617 8 8 0 0 0-5.763-7.816 8 8 0 0 0-9.057 3.501"/><path fill="#fff" d="M38.005 39a.975.982 0 0 1 .29.054.975.982 0 0 1 .171.08l3.02 1.758 3.028 1.758a.975.982 0 0 1 0 1.7l-3.028 1.761-3.02 1.757a.975.982 0 0 1-1.462-.848L37 43.502l.004-3.52A.975.982 0 0 1 38.005 39"/></svg>