<svg xmlns="http://www.w3.org/2000/svg" xml:space="preserve" viewBox="0 0 64 64"><path d="M19.5 15a2.495 2.495 0 0 0-2.5 2.5v35c0 1.385 1.115 2.5 2.5 2.5h25c1.385 0 2.5-1.115 2.5-2.5v-35c0-1.385-1.115-2.5-2.5-2.5H32Z" opacity=".2"/><path fill="#595959" d="M44.5 14c1.385 0 2.5 1.115 2.5 2.5v35c0 1.385-1.115 2.5-2.5 2.5H32V14Z"/><path fill="#333" d="M54.5 9c1.385 0 2.5 1.115 2.5 2.5v32.6H32V9Z"/><path fill="#cdcdcd" d="M19.5 14a2.495 2.495 0 0 0-2.5 2.5v35c0 1.385 1.115 2.5 2.5 2.5H32V14Z"/><path fill="#444" d="M9.5 9A2.495 2.495 0 0 0 7 11.5v32.6h25V9Z"/><path d="M7 45v2.5C7 48.885 8.115 50 9.5 50h45c1.385 0 2.5-1.115 2.5-2.5V45H32Z" opacity=".2"/><path fill="#696969" d="M57 44v2.5c0 1.385-1.115 2.5-2.5 2.5H32v-5z"/><path fill="#e4e4e4" d="M7 44v2.5C7 47.885 8.115 49 9.5 49H32v-5z"/><path fill="none" stroke="#000" stroke-dashoffset="2.25" stroke-linecap="round" stroke-linejoin="round" stroke-width="6" d="M32 8v49" opacity=".2"/><path fill="#fff" d="M9.5 9A2.495 2.495 0 0 0 7 11.5v1C7 11.115 8.115 10 9.5 10h45c1.385 0 2.5 1.115 2.5 2.5v-1c0-1.385-1.115-2.5-2.5-2.5z" opacity=".1"/><path fill="none" stroke="#ff9800" stroke-dashoffset="2.25" stroke-linecap="round" stroke-linejoin="round" stroke-width="6" d="M32 7v49"/><path fill="#fff" d="M32 4a3 3 0 0 0-3 3v1a3 3 0 0 1 3-3 3 3 0 0 1 3 3V7a3 3 0 0 0-3-3" opacity=".2"/></svg>