<svg xmlns="http://www.w3.org/2000/svg" xmlns:xlink="http://www.w3.org/1999/xlink" viewBox="0 0 128 128"><defs><linearGradient id="c" x1="50%" x2="50%" y1="0%" y2="98.947%"><stop offset="0%" stop-color="#f7f7f7"/><stop offset="100%" stop-color="#f6f6f6"/></linearGradient><linearGradient id="e" x1="56.91%" x2="6.899%" y1="0%" y2="86.29%"><stop offset="0%" stop-color="#1b90ff"/><stop offset="47.525%" stop-color="#53a0fd"/><stop offset="100%" stop-color="#68ffad"/></linearGradient><linearGradient id="f" x1="56.869%" x2="7.155%" y1="0%" y2="86.29%"><stop offset="0%" stop-color="#1b90ff"/><stop offset="47.525%" stop-color="#53a0fd"/><stop offset="100%" stop-color="#68ffad"/></linearGradient><linearGradient id="g" x1="56.912%" x2="96.087%" y1="0%" y2="71.03%"><stop offset="0%" stop-color="#a197ff"/><stop offset="100%" stop-color="#60ffa4"/></linearGradient><linearGradient id="h" x1="88.125%" x2="-.287%" y1="18.3%" y2="92.174%"><stop offset="0%" stop-color="#dd61fa"/><stop offset="100%" stop-color="#ffdc5a"/></linearGradient><linearGradient id="i" x1="96.391%" x2="-.034%" y1="20.704%" y2="84.727%"><stop offset="0%" stop-color="#fa6196"/><stop offset="100%" stop-color="#ffd849"/></linearGradient><linearGradient id="j" x1="95.792%" x2="0%" y1="11.871%" y2="70.141%"><stop offset="0%" stop-color="#ff9532"/><stop offset="100%" stop-color="#ffff46"/></linearGradient><linearGradient id="n" x1="50%" x2="7.994%" y1="50%" y2="88.893%"><stop offset="0%" stop-color="#fff" stop-opacity=".1"/><stop offset="100%" stop-color="#fff" stop-opacity=".3"/></linearGradient><filter id="b" width="125%" height="120.2%" x="-12.5%" y="-8.3%" filterUnits="objectBoundingBox"><feOffset dy="2" in="SourceAlpha" result="shadowOffsetOuter1"/><feGaussianBlur in="shadowOffsetOuter1" result="shadowBlurOuter1" stdDeviation="3.5"/><feColorMatrix in="shadowBlurOuter1" values="0 0 0 0 0 0 0 0 0 0 0 0 0 0 0 0 0 0 0.1 0"/></filter><filter id="m" width="124.6%" height="124.6%" x="-12.3%" y="-8.8%" filterUnits="objectBoundingBox"><feOffset dy="1" in="SourceAlpha" result="shadowOffsetOuter1"/><feGaussianBlur in="shadowOffsetOuter1" result="shadowBlurOuter1" stdDeviation="1"/><feComposite in="shadowBlurOuter1" in2="SourceAlpha" operator="out" result="shadowBlurOuter1"/><feColorMatrix in="shadowBlurOuter1" values="0 0 0 0 0 0 0 0 0 0 0 0 0 0 0 0 0 0 0.05 0"/></filter><path id="a" d="M92 105a9 9 0 0 1-9 9H9a9 9 0 0 1-9-9V9a9 9 0 0 1 9-9h54.5L92 28.5z"/><path id="k" d="M63.5 0 92 28.5H72.5a9 9 0 0 1-9-9z"/></defs><g fill="none" fill-rule="evenodd"><g transform="translate(18 7)"><mask id="d" fill="#fff"><use xlink:href="#a"/></mask><use xlink:href="#a" fill="#000" filter="url(#b)"/><use xlink:href="#a" fill="url(#c)"/><g mask="url(#d)"><path fill="url(#e)" d="M50.908 152.672c-10.16-11.015-15.969-35.244-7.286-56.27C58.95 59.28 109.494 38.519 76.659 10.944c66.999 17.621 64.015 117.34 32.835 142.933-6.665 5.47-13.415 8.53-19.917 9.883z" transform="rotate(222 -31.694 55.072)scale(-1 1)"/><path fill="url(#f)" d="M50.908 152.672c-10.16-11.015-15.969-35.244-7.286-56.27C58.95 59.28 109.494 38.519 76.659 10.944c66.999 17.621 64.015 117.34 32.835 142.933-6.665 5.47-13.415 8.53-19.917 9.883z" transform="rotate(222 -31.694 55.072)scale(-1 1)"/><path fill="url(#g)" d="M84.788 15.562c57.884 23.686 53.804 115.587 24.053 140.005-6.665 5.47-13.414 8.531-19.917 9.884l-37.43-10.733c-1.427-9.765-1.033-20.26 1.976-30.459 14.006-47.472 73.28-79.43 29.484-108.998a91 91 0 0 1 1.834.301" transform="rotate(222 -31.694 56.031)scale(-1 1)"/><path fill="url(#h)" d="M109.937 17.513c35.56 34.48 28.969 105.48 3.364 126.495-6.664 5.47-13.414 8.53-19.916 9.883l-37.299-10.695c.46-9.045 2.607-18.384 6.93-27.08 21.299-42.834 83.08-63.304 46.356-98.797z" transform="rotate(222 -31.694 49.39)scale(-1 1)"/><path fill="url(#i)" d="M153.908 24.898c1.948 28.316-6.46 56.347-20.992 68.275-6.665 5.47-13.414 8.531-19.917 9.884L75.932 92.428c2.536-6.31 6.125-12.413 10.882-17.802 20.801-23.562 57.427-31.885 67.094-49.728" transform="rotate(42 -52.592 -82.565)scale(1 -1)"/><path fill="url(#j)" d="M163.779 27.977c-3.183 6.233-8.55 17.06-13.009 20.719-6.665 5.47-11.929 2.88-18.432 4.232q-16.935 2.605-24.104.55-4.427-1.269-10.682-10.524a46 46 0 0 1 3.9-2.014c21.436-9.797 48.754-5.095 62.327-12.963" transform="rotate(42 22.401 -82.565)scale(1 -1)"/></g></g><g transform="translate(18 7)"><use xlink:href="#k" fill="#000" filter="url(#m)"/><use xlink:href="#k" fill="url(#n)"/></g><path fill="#000" fill-opacity=".1" fill-rule="nonzero" d="m81.707 6.5.147.146 28.5 28.5.146.147V112a9.5 9.5 0 0 1-9.5 9.5H27a9.5 9.5 0 0 1-9.5-9.5V16A9.5 9.5 0 0 1 27 6.5zM81.5 7H27a9 9 0 0 0-9 9v96a9 9 0 0 0 9 9h74a9 9 0 0 0 9-9V35.5z"/></g></svg>