<svg xmlns="http://www.w3.org/2000/svg" viewBox="0 0 64 64"><circle cx="32" cy="33" r="28" opacity=".2"/><circle cx="32" cy="32" r="28" fill="#795548"/><path fill="#fff" d="M22.296 30.085c-.463-.306-.309-1.222.567-2.037 1.236-1.274 2.554-1.325 3.172-.663.257.204 1.081 1.178 1.081 1.178l3.95-3.91-.942-1.176c-1.185-1.172.051-2.357.051-2.357 3.348-3.26 7.8-3.729 7.8-3.729l.05-.652c-9.424-2.394-12.742 1.681-14.03 2.955l-2.73 2.7c-.669.662 0 2.546-.978 3.616-.463.459-1.081.662-1.545.662z"/><rect width="4.348" height="7.246" x="-9.24" y="31.02" fill="#fff" rx="1.449" transform="rotate(-45)"/><path fill="#fff" d="M32 4A28 28 0 0 0 4 32a28 28 0 0 0 .035.5A28 28 0 0 1 32 5a28 28 0 0 1 27.982 27.252L60 32A28 28 0 0 0 32 4" opacity=".1"/><path d="M37.129 17.54c-1.446.301-4.491 1.182-6.953 3.58 0 0-.836.803-.47 1.741.16-.444.47-.742.47-.742 3.347-3.26 7.799-3.728 7.799-3.728l.05-.65c-.31-.08-.6-.137-.896-.202m-12.043 9.429c-.646-.035-1.45.282-2.223 1.078-.364.339-.602.695-.724 1.017l.37.372c.103-.13.217-.261.354-.39 1.236-1.273 2.554-1.323 3.172-.661.076.06.203.192.342.342l16.738 19.312a2.783 2.783 0 0 0 3.924.281 2.78 2.78 0 0 0 .914-2.593 2.78 2.78 0 0 1-.914 1.593 2.783 2.783 0 0 1-3.924-.28L26.377 27.726a4 4 0 0 0-.342-.342c-.232-.249-.562-.395-.95-.416m-8.992 2.008c-.19.513-.082 1.11.332 1.523l3.074 3.074a1.445 1.445 0 0 0 2.049 0l1.025-1.025a1.44 1.44 0 0 0 .332-1.524 1.4 1.4 0 0 1-.332.524l-1.025 1.025a1.445 1.445 0 0 1-2.049 0L16.426 29.5a1.4 1.4 0 0 1-.332-.523" opacity=".2"/></svg>