<svg xmlns="http://www.w3.org/2000/svg" viewBox="0 0 64 64"><path d="M12 27.2h40v15.4S49.143 51 32 51s-20-8.4-20-8.4Z" opacity=".2"/><path fill="#4d4d4d" d="M12 26.2h40v15.4S49.143 50 32 50s-20-8.4-20-8.4Z"/><path d="M31.341 12.019a5.89 2.945 0 0 0-3.504.842L5.722 23.92a5.89 2.945 0 0 0 0 4.162l22.115 11.056a5.89 2.945 0 0 0 8.326 0l22.115-11.056a5.89 2.945 0 0 0 0-4.162L36.163 12.86a5.89 2.945 0 0 0-4.822-.841" opacity=".2"/><path fill="#666" d="M31.341 11.019a5.89 2.945 0 0 0-3.504.842L5.722 22.92a5.89 2.945 0 0 0 0 4.162l22.115 11.056a5.89 2.945 0 0 0 8.326 0l22.115-11.056a5.89 2.945 0 0 0 0-4.162L36.163 11.86a5.89 2.945 0 0 0-4.822-.841"/><path d="m32.271 23.018-20.789 3.207c-1.967.164-3.302 1.345-3.88 2.421C7.016 29.737 7 30.8 7 30.8v9.275a1.125 1.167 0 0 0-.729.865l-2.25 11.666A1.125 1.167 0 0 0 5.125 54h6.752a1.125 1.167 0 0 0 1.103-1.395L10.73 40.94a1.125 1.167 0 0 0-.729-.865v-9.199s.02-.394.244-.81.445-.78 1.522-.854l.125-.014 20.838-3.215a1.5 1.5 0 0 0 1.253-1.71 1.5 1.5 0 0 0-1.71-1.254" opacity=".2"/><path fill="none" stroke="#ffbd21" stroke-linecap="round" stroke-linejoin="round" stroke-width="3" d="m32.5 23.5-20.838 3.214c-3.087.214-3.162 3.123-3.162 3.123V41.8"/><path fill="#ff8000" d="M7.375 39a1.125 1.167 0 0 0-1.103.939l-2.25 11.666A1.125 1.167 0 0 0 5.125 53h6.752a1.125 1.167 0 0 0 1.103-1.395L10.73 39.94A1.125 1.167 0 0 0 9.625 39z"/><path fill="#fff" d="M32.66 11.018a5.89 2.945 0 0 0-1.318.002 5.89 2.945 0 0 0-3.506.841L5.723 22.92a5.89 2.945 0 0 0-1.59 2.58 5.89 2.945 0 0 1 1.59-1.58l22.113-11.06a5.89 2.945 0 0 1 3.506-.841 5.89 2.945 0 0 1 4.822.841l22.113 11.06a5.89 2.945 0 0 1 1.631 1.58 5.89 2.945 0 0 0-1.63-2.58L36.163 11.86a5.89 2.945 0 0 0-3.504-.843" opacity=".1"/></svg>