<svg xmlns="http://www.w3.org/2000/svg" viewBox="0 0 64 64"><path d="M32 4C15.934 4 3 16.934 3 33s12.934 29 29 29 29-12.934 29-29S48.066 4 32 4" opacity=".2"/><path fill="#4f4f4f" d="M32 3C15.934 3 3 15.934 3 32s12.934 29 29 29 29-12.934 29-29S48.066 3 32 3"/><circle cx="45.962" cy=".707" r="23" opacity=".1" transform="rotate(45)"/><circle cx="45.255" r="23" fill="#5d5d5d" transform="rotate(45)"/><circle cx="21" cy="22" r="3" opacity=".2"/><circle cx="21" cy="21" r="3" fill="#fecd38"/><circle cx="43" cy="44" r="3" opacity=".2"/><circle cx="43" cy="43" r="3" fill="#79de7d"/><circle cx="22" cy="-43" r="3" opacity=".2" transform="rotate(90)"/><circle cx="21" cy="-43" r="3" fill="#df574d" transform="rotate(90)"/><circle cx="44" cy="-21" r="3" opacity=".2" transform="rotate(90)"/><circle cx="43" cy="-21" r="3" fill="#50beee" transform="rotate(90)"/><path fill="#fff" d="M32 3C15.934 3 3 15.934 3 32c0 .11.011.219.018.328C3.374 16.576 16.159 4 32 4s28.626 12.576 28.982 28.328c.007-.11.018-.217.018-.328C61 15.934 48.066 3 32 3" opacity=".1"/><path d="M32 28c-2.759 0-5 2.241-5 5s2.241 5 5 5 5-2.241 5-5-2.241-5-5-5" opacity=".2"/><path fill="#ccc" d="M32 27c-2.759 0-5 2.241-5 5s2.241 5 5 5 5-2.241 5-5-2.241-5-5-5"/><path fill="#fff" d="M32 27a5.003 5.003 0 0 0-4.975 5.5A5.003 5.003 0 0 1 32 28a5.003 5.003 0 0 1 4.975 4.5Q37 32.253 37 32c0-2.759-2.241-5-5-5" opacity=".2"/></svg>