<svg xmlns="http://www.w3.org/2000/svg" viewBox="0 0 24 24"><path fill="currentColor" d="M17.514 15A9.6 9.6 0 0 1 15 17.514V24h9v-9z" class="ColorScheme-Text" opacity=".65"/><path fill="currentColor" d="M10 .5a9.5 9.5 0 0 0-4.5 17.867V5.5h12.867A9.5 9.5 0 0 0 10 .5m4.5 14v3.867a9.55 9.55 0 0 0 3.867-3.867z" class="ColorScheme-Text" opacity=".15"/><path fill="currentColor" d="M10 0C4.483 0 0 4.483 0 10c0 3.897 2.242 7.268 5.5 8.918v-1.129A8.98 8.98 0 0 1 1 10c0-4.977 4.024-9 9-9a8.98 8.98 0 0 1 7.79 4.5h1.128C17.268 2.242 13.897 0 10 0m7.79 14.5a9 9 0 0 1-3.29 3.29v1.128a10.04 10.04 0 0 0 4.418-4.418z" class="ColorScheme-Text"/><path fill="currentColor" d="M5.5 24V5.5H24v9h-9.5V24z" class="ColorScheme-Text" opacity=".35"/><path fill="currentColor" d="M5 5v19h1V6h18V5zm9 9v10h1v-9h9v-1z" class="ColorScheme-Text"/><path fill="currentColor" d="M9 9v2h2V9zm4 0v2h2V9zm4 0v2h2V9zm4 0v2h2V9zM9 13v2h2v-2zm0 4v2h2v-2zm0 4v2h2v-2z" class="ColorScheme-Text"/></svg>