<svg xmlns="http://www.w3.org/2000/svg" viewBox="0 0 24 24"><path fill="currentColor" d="M19.5 10a9.5 9.5 0 1 1-19 0 9.5 9.5 0 0 1 19 0" class="ColorScheme-Text" opacity=".15"/><path fill="currentColor" d="M18.066 15A9.6 9.6 0 0 1 15 18.053V24h9v-9z" class="ColorScheme-Text" opacity=".5"/><path fill="currentColor" d="M18.367 5.5A9.45 9.45 0 0 1 19.5 10c0 1.629-.41 3.16-1.133 4.5H24v-9zM5.5 18.367V24h9v-5.633A9.45 9.45 0 0 1 10 19.5c-1.629 0-3.16-.41-4.5-1.133" class="ColorScheme-Text" opacity=".35"/><path fill="currentColor" d="M18.066 5q.3.482.541 1H24V5zm.541 9a10 10 0 0 1-.541 1H24v-1zM5 18.066V24h1v-5.393a10 10 0 0 1-1-.54m10 0q-.482.3-1 .541V24h1zM9 21h2v2H9zM21 9h2v2h-2z" class="ColorScheme-Text"/><path fill="currentColor" d="M10 0C4.483 0 0 4.483 0 10s4.483 10 10 10 10-4.483 10-10S15.517 0 10 0m0 1c4.977 0 9 4.024 9 9s-4.024 9-9 9-9-4.024-9-9 4.024-9 9-9" class="ColorScheme-Text"/></svg>