<svg xmlns="http://www.w3.org/2000/svg" xmlns:xlink="http://www.w3.org/1999/xlink" viewBox="0 0 24 24"><defs><path id="a" fill="currentColor" d="M19.5 10a9.5 9.5 0 1 1-19 0 9.5 9.5 0 0 1 19 0"/><path id="b" fill="currentColor" d="M10 0C4.483 0 0 4.483 0 10s4.483 10 10 10 10-4.483 10-10S15.517 0 10 0m0 1c4.977 0 9 4.024 9 9s-4.024 9-9 9-9-4.024-9-9 4.024-9 9-9"/></defs><path fill="currentColor" d="M18.367 5.5A9.45 9.45 0 0 1 19.5 10H24V5.5zM5.5 18.367V24H10v-4.5c-1.629 0-3.16-.41-4.5-1.133" class="ColorScheme-Text" opacity=".35"/><path fill="currentColor" d="M18.066 5q.3.482.541 1H24V5zM5 18.066V24h1v-5.393a10 10 0 0 1-1-.541M21 9v1h2V9zM9 21v2h1v-2z" class="ColorScheme-Text"/><path fill="currentColor" d="M19.5 10a9.5 9.5 0 0 1-9.5 9.5V24h14V10z" class="ColorScheme-Text" opacity=".5"/><g fill="currentColor" class="ColorScheme-Text"><use xlink:href="#a" class="ColorScheme-Text" opacity=".15"/><use xlink:href="#b" class="ColorScheme-Text"/><use xlink:href="#a" class="ColorScheme-Text" opacity=".15"/><use xlink:href="#b" class="ColorScheme-Text"/><use xlink:href="#a" class="ColorScheme-Text" opacity=".15"/><use xlink:href="#b" class="ColorScheme-Text"/></g></svg>