<svg xmlns="http://www.w3.org/2000/svg" viewBox="0 0 24 24"><path fill="#536076" d="M12.281 3q2.347 0 4.162 1.13Q18.5 5.427 18.5 7.616q0 1.837-1.258 2.897l-2.299 1.857c-.758.487-.76.752-.76 1.631h-5.04c-.277-2.153.637-2.487 1.347-3.162.194-.189 1.008-.811 1.96-1.621.592-.505 1.066-.785 1.066-1.365q0-.614-.51-.99-.484-.377-1.16-.376c-.5 0-1.36.188-1.385 1.766l.023.777H5.5c0-.942.193-2.182.58-2.873q.557-1.06 1.67-1.79C8.976 3.548 10.265 3 12.281 3m-2.245 1.334Q6.742 5.58 6.582 8.022h2.833Q9.756 5.479 12 5.479c2.125.122 2.575 1.915 2.544 2.543-.113.555-.202.793-.792 1.412q-.624.564-2.95 2.485-.646.432-.646 1.084h.138a921 921 0 0 1 2.987 0q.086-.767.753-1.148c.72-.582 2.787-2.13 3.041-2.614.333-.437.9-2.224-.262-3.503-1.163-1.279-3.545-2.247-6.777-1.404M10 17v3h3v-3zm-1-1h5v5H9z"/></svg>