<svg xmlns="http://www.w3.org/2000/svg" viewBox="0 0 64 64"><rect width="56" height="36" x="4" y="22" opacity=".2" rx="2.8" ry="2.8"/><path fill="#7c7c7d" d="M4 46.2C4 47.751 5.249 49 6.8 49h50.4c1.551 0 2.8-1.249 2.8-2.8V15.8c0-1.551-1.249-2.8-2.8-2.8H32c-4.2 0-5.6-6-9.8-6H6.8A2.794 2.794 0 0 0 4 9.8"/><rect width="56" height="36" x="4" y="20" opacity=".2" rx="2.8" ry="2.8"/><rect width="48" height="22" x="8" y="16" fill="#e4e4e4" rx="2.8" ry="2.8"/><rect width="56" height="36" x="4" y="21" fill="#5294e2" rx="2.8" ry="2.769"/><path fill="#f06292" d="M6.8 21C5.249 21 4 22.235 4 23.77v13.288L20.237 21Z"/><path fill="#e25252" d="M20.237 21 4 37.058v14.855L35.257 21Z"/><path fill="#ee923a" d="M35.257 21 4 51.913v2.318C4 55.765 5.249 57 6.8 57h7.074l36.4-36z"/><path fill="#e2b322" d="m50.274 21-36.4 36H28.89L60 26.233v-2.464C60 22.235 58.751 21 57.2 21Z"/><path fill="#16a085" d="M60 26.233 28.891 57h15.017L60 41.085Z"/><path fill="#fff" d="M6.8 7C5.25 7 4 8.25 4 9.8v1.001A2.795 2.795 0 0 1 6.8 8h15.4c4.2 0 5.601 6 9.801 6H57.2a2.796 2.796 0 0 1 2.8 2.801v-1A2.796 2.796 0 0 0 57.199 13H32c-4.2 0-5.601-6-9.801-6Z" opacity=".1"/><path d="M19.225 22 4 37.059v1L20.236 22zm15.02 0L4 51.914v1L35.256 22zm15.017 0L13.873 57h1.012l35.388-35zM60 26.232 28.89 57h1.012L60 27.232zm0 14.854L43.908 57h1.012L60 42.086z" opacity=".1"/></svg>