<svg xmlns="http://www.w3.org/2000/svg" xml:space="preserve" viewBox="0 0 182.785 182.785"><path fill="#4fadf1" d="M30.835 0h59.198L59.548 28.713zm73.347 88.891L8.733 182.785h63.972l62.687-62.686zM64.707 44.479a8 8 0 0 1-.465.42L27.694 79.323l32.146 32.146L173.155 0H111.91L64.815 44.359c-.037.039-.069.081-.108.12m82.894 138.306-26.841-26.841-26.841 26.841zm3.701-57.382-19.935 19.935 37.448 37.448h6.47a7.5 7.5 0 0 0 7.5-7.5V93.919zM11.258 74.198c.109-.124.215-.251.334-.369.231-.231.477-.438.729-.632l36.303-34.193L9.621 0H7.5A7.5 7.5 0 0 0 0 7.5v77.302zm5.512 15.415L0 105.408v64.926l49.146-48.345zm166.015-16.908V11.568l-67.909 66.803 31.122 31.122z" data-iconColor="Parquet"/></svg>