<svg xmlns="http://www.w3.org/2000/svg" viewBox="0 0 64 64"><rect width="42" height="56" x="10" y="5" opacity=".2" rx="5" ry="5"/><rect width="42" height="56" x="10" y="4" fill="#e4e4e4" rx="5" ry="5"/><path fill="#ababab" d="M14.5 7A1.5 1.5 0 0 0 13 8.5a1.5 1.5 0 0 0 1.5 1.5A1.5 1.5 0 0 0 16 8.5 1.5 1.5 0 0 0 14.5 7m33 0A1.5 1.5 0 0 0 46 8.5a1.5 1.5 0 0 0 1.5 1.5A1.5 1.5 0 0 0 49 8.5 1.5 1.5 0 0 0 47.5 7m-33 15a1.5 1.5 0 0 0-1.5 1.5 1.5 1.5 0 0 0 1.5 1.5 1.5 1.5 0 0 0 1.5-1.5 1.5 1.5 0 0 0-1.5-1.5m33 0a1.5 1.5 0 0 0-1.5 1.5 1.5 1.5 0 0 0 1.5 1.5 1.5 1.5 0 0 0 1.5-1.5 1.5 1.5 0 0 0-1.5-1.5m-33 32a1.5 1.5 0 0 0-1.5 1.5 1.5 1.5 0 0 0 1.5 1.5 1.5 1.5 0 0 0 1.5-1.5 1.5 1.5 0 0 0-1.5-1.5m33 0a1.5 1.5 0 0 0-1.5 1.5 1.5 1.5 0 0 0 1.5 1.5 1.5 1.5 0 0 0 1.5-1.5 1.5 1.5 0 0 0-1.5-1.5M20 6c-2 0-2 2-2 2 0 2.227-1.784 4-4 4-2 0-2 2-2 2v3.5c0 1.366 1.176 2.5 2.5 2.5 1.97 0 3.5 1.591 3.5 3.5 0 .977-.428 1.847-1 2.5-3.126 3.571-5 7.859-5 12.5v.723C12 49.593 20.507 58 31 58s19-8.407 19-18.777V38.5c0-4.014-1.873-8.929-5-12.5-.638-.728-1-1.567-1-2.5 0-1.911 1.569-3.5 3.5-3.5 0 0 2.5 0 2.5-2v-4s0-2-2-2c-2.218 0-4-1.775-4-4 0 0 0-2-2-2Z"/><path d="M20 6c-2 0-2 2-2 2 0 2.227-1.784 4-4 4-2 0-2 2-2 2v1s0-2 2-2c2.216 0 4-1.773 4-4 0 0 0-2 2-2h22c2 0 2 2 2 2 0 2.225 1.782 4 4 4 2 0 2 2 2 2v-1s0-2-2-2c-2.218 0-4-1.775-4-4 0 0 0-2-2-2Zm-5.5 1A1.5 1.5 0 0 0 13 8.5a1.5 1.5 0 0 0 .135.5A1.5 1.5 0 0 1 14.5 8a1.5 1.5 0 0 1 1.385.932A1.5 1.5 0 0 0 16 8.5 1.5 1.5 0 0 0 14.5 7m33 0A1.5 1.5 0 0 0 46 8.5a1.5 1.5 0 0 0 .135.5A1.5 1.5 0 0 1 47.5 8a1.5 1.5 0 0 1 1.385.932A1.5 1.5 0 0 0 49 8.5 1.5 1.5 0 0 0 47.5 7m-33 15a1.5 1.5 0 0 0-1.5 1.5 1.5 1.5 0 0 0 .135.5 1.5 1.5 0 0 1 1.365-1 1.5 1.5 0 0 1 1.385.932A1.5 1.5 0 0 0 16 23.5a1.5 1.5 0 0 0-1.5-1.5m33 0a1.5 1.5 0 0 0-1.5 1.5 1.5 1.5 0 0 0 .135.5 1.5 1.5 0 0 1 1.365-1 1.5 1.5 0 0 1 1.385.932A1.5 1.5 0 0 0 49 23.5a1.5 1.5 0 0 0-1.5-1.5m-29.541 1.994c-.115.775-.486 1.466-.959 2.006-3.126 3.571-5 7.859-5 12.5v.723c0 .045.004.089.004.134C12.042 34.771 13.906 30.534 17 27c.572-.653 1-1.523 1-2.5 0-.172-.017-.34-.041-.506m26.08.006q-.037.245-.039.5c0 .933.362 1.772 1 2.5 3.093 3.532 4.956 8.378 4.996 12.367 0-.048.004-.096.004-.144V38.5c0-4.014-1.873-8.929-5-12.5-.522-.595-.855-1.266-.961-2M14.5 54a1.5 1.5 0 0 0-1.5 1.5 1.5 1.5 0 0 0 .135.5 1.5 1.5 0 0 1 1.365-1 1.5 1.5 0 0 1 1.385.932A1.5 1.5 0 0 0 16 55.5a1.5 1.5 0 0 0-1.5-1.5m33 0a1.5 1.5 0 0 0-1.5 1.5 1.5 1.5 0 0 0 .135.5 1.5 1.5 0 0 1 1.365-1 1.5 1.5 0 0 1 1.385.932A1.5 1.5 0 0 0 49 55.5a1.5 1.5 0 0 0-1.5-1.5" opacity=".2"/><circle cx="31" cy="40" r="2" opacity=".2"/><path d="M31 26a14 14 0 0 0-14 14 14 14 0 0 0 14 14 14 14 0 0 0 14-14 14 14 0 0 0-14-14m0 9a5 5 0 0 1 5 5 5 5 0 0 1-5 5 5 5 0 0 1-5-5 5 5 0 0 1 5-5" opacity=".2"/><path fill="#248afd" d="M36 39v1l9-1Zm-5-14v9h-1Zm0 0v9a5 5 0 0 1 5 5h9a14 14 0 0 0-14-14"/><path fill="#514694" d="M31 44v9l-1-9Zm5-5a5 5 0 0 1-5 5v9a14 14 0 0 0 14-14Z"/><path fill="#fecd38" d="m17 39 9-1v1Zm0 0a14 14 0 0 0 14 14v-9a5 5 0 0 1-5-5Z"/><path fill="#4bae4f" d="M31 25a14 14 0 0 0-14 14h9a5 5 0 0 1 5-5Z"/><circle cx="31" cy="39" r="2" fill="#e4e4e4"/></svg>