<svg xmlns="http://www.w3.org/2000/svg" viewBox="0 0 24 24"><path fill="#536076" d="M17.502 3.947a1.5 1.5 0 1 1-1.375 2.094c-1.988.427-3.853 1.2-5.436 2.346 1.335 1.252 2.639 1.985 3.78 2.193 1.157.21 2.15-.052 3.008-.825l.17-.161.705.707c-1.102 1.103-2.549 1.539-4.061 1.263-1.434-.26-2.923-1.138-4.393-2.548-.18.156-.362.312-.533.48 1.505 1.528 2.542 3.195 2.813 4.684.26 1.43-.114 2.804-1.085 3.881l-.177.187-.705-.707c.895-.897 1.209-1.946.984-3.182-.22-1.21-1.104-2.71-2.504-4.136-1.304 1.528-2.23 3.462-2.603 5.838a1.499 1.499 0 1 1-2.069 1.386c0-.676.451-1.242 1.065-1.43.948-6.33 5.658-9.887 10.984-10.988a1.49 1.49 0 0 1 1.432-1.082M5.5 17a.5.5 0 1 0 0 1 .5.5 0 0 0 0-1m12-12a.5.5 0 1 0 0 1 .5.5 0 0 0 0-1"/></svg>