<svg xmlns="http://www.w3.org/2000/svg" viewBox="0 0 64 64"><rect width="48" height="48" x="-63" y="-56" opacity=".2" rx="12" ry="15" transform="rotate(90)scale(-1 1)"/><rect width="48" height="48" x="-50" y="-56" fill="#8e8e8e" rx="5" ry="5" transform="rotate(90)scale(-1 1)"/><rect width="48" height="48" x="-62" y="-56" fill="#8e8e8e" rx="12" ry="15" transform="rotate(90)scale(-1 1)"/><rect width="36" height="38" x="14" y="8" fill="#333" rx="1.5" ry="1.5"/><circle cx="19" cy="52" r="3" fill="#4d4d4d"/><circle cx="44" cy="52" r="3" fill="#4d4d4d"/><path fill="#4d4d4d" d="M42 2h4v4h-4z"/><circle cx="32" cy="54" r="4" fill="#4d4d4d"/><path fill="#fff" d="M13 2c-2.77 0-5 2.23-5 5v1c0-2.77 2.23-5 5-5h38c2.77 0 5 2.23 5 5V7c0-2.77-2.23-5-5-5z" opacity=".2"/></svg>