<svg xmlns="http://www.w3.org/2000/svg" viewBox="0 0 64 64"><rect width="56" height="56" x="4" y="5" opacity=".2" rx="4.2" ry="4.2"/><rect width="56" height="56" x="4" y="4" fill="#0b4d9c" rx="4.2" ry="4.2"/><path d="M30.637 17C23.082 17 17 23.132 17 30.75v5.5C17 43.868 23.082 50 30.637 50h2.726c2.107 0 4.092-.49 5.87-1.344L45.34 55l4.86-4.31-5.942-6.176A13.76 13.76 0 0 0 47 36.25v-5.5C47 23.132 40.918 17 33.363 17Zm.636 6h1.454C36.756 23 40 26.902 40 31.75v3.5c0 4.847-3.244 8.75-7.273 8.75h-1.454C27.244 44 24 40.097 24 35.25v-3.5c0-4.848 3.244-8.75 7.273-8.75" opacity=".2"/><path fill="#fff" d="M30.637 16C23.082 16 17 22.132 17 29.75v5.5C17 42.868 23.082 49 30.637 49h2.726C40.918 49 47 42.868 47 35.25v-5.5C47 22.132 40.918 16 33.363 16zm.636 6h1.454C36.756 22 40 25.902 40 30.75v3.5c0 4.847-3.244 8.75-7.273 8.75h-1.454C27.244 43 24 39.097 24 34.25v-3.5c0-4.848 3.244-8.75 7.273-8.75"/><path fill="#fff" d="m36.2 44.503 1.715 1.783L45.34 54l4.86-4.311-7.425-7.715-1.9-1.974Z"/><path d="M4 9v13h22.222C27.762 22 29 20.712 29 19.111V11.89C29 10.289 27.761 9 26.222 9Z" opacity=".1"/><path fill="#e46200" d="M4 8v13h22.222C27.762 21 29 19.712 29 18.111V10.89C29 9.289 27.761 8 26.222 8Z"/><path d="M7 12v7h1v-2.969h1.375q.937 0 1.51-.293c.753-.376 1.086-1.05 1.115-1.562q0-1.04-.627-1.608Q10.748 12 9.467 12Zm7 0v7h1.998q1.381 0 2.191-.922T19 15.44q0-1.704-.791-2.566Q17.428 12 16.104 12Zm7 0v7h1v-3h3v-1h-3v-2h4v-1ZM8 13h1.41c1.03.071 1.608.083 1.59 1.064-.016.87-1.262.842-1.883.936H8Zm7 0h.906q1.046 0 1.569.588.523.578.525 1.861 0 1.291-.549 1.92-.536.63-1.697.631H15Z" opacity=".1"/><path fill="#fff" d="M7 11v7h1v-2.969h1.375q.937 0 1.51-.293c.753-.376 1.086-1.05 1.115-1.562q0-1.04-.627-1.608Q10.748 11 9.467 11zm7 0v7h1.998q1.381 0 2.191-.922T19 14.44q0-1.704-.791-2.566Q17.428 11 16.104 11zm7 0v7h1v-3h3v-1h-3v-2h4v-1zM8 12h1.41c1.03.071 1.608.083 1.59 1.064-.016.87-1.262.842-1.883.936H8zm7 0h.906q1.046 0 1.569.588.523.578.525 1.861 0 1.291-.549 1.92-.536.63-1.697.631H15z"/><path fill="#fff" d="M8.2 4A4.19 4.19 0 0 0 4 8.2v1A4.19 4.19 0 0 1 8.2 5h47.6A4.19 4.19 0 0 1 60 9.2v-1A4.19 4.19 0 0 0 55.8 4z" opacity=".1"/></svg>