<svg xmlns="http://www.w3.org/2000/svg" xml:space="preserve" fill-rule="evenodd" stroke-linejoin="round" viewBox="0 0 83.392 36.8"><path fill="#ff8a65" d="M58.44 24.74S23.412 31.76.021 13.523C1.263 2.808 6.566-6.676 14.348-13.348c-.214-2.238-.253-4.25-.18-6.519 2.31.334 4.606 1 6.61 1.979a41.54 41.54 0 0 1 20.73-5.507c7.585 0 14.7 2.026 20.834 5.566 1.638-.934 3.235-1.585 5.05-2.226.405 2.055.6 4.192.652 6.182 9.299 7.663 15.23 19.266 15.23 32.243 0 23.051-18.714 41.765-41.766 41.765-23.05 0-41.774-18.72-41.764-41.766.8.56 26.377 18.134 58.695 6.371ZM20.561 45.929l5.356 8.762C14.199 51.135 2.405 35.714 1.348 21.2c9.418 6.024 20.647 9.229 31.217 9.525l-8.5 2.724c2.888 1.79 6.245 3.951 9.285 5.76q-6.581-.227-13.162-.45l11.374 7.707ZM45.912 20.9s4.08-6.861 11.982-4.6c0 0-4.105 6.33-11.983 4.6m-10.047 0s-4.08-6.861-11.983-4.6c0 0 4.104 6.33 11.983 4.6m20.977-31.764c1.55 3.233 5.186 4.671 8.17 5.002 1.272-3.682 1.218-7.702.797-11.46-3.516 1.511-6.725 3.786-8.967 6.458M17.896-6.03c2.123-.415 3.995-1.3 5.396-2.51 1.064-.92 1.856-2.027 2.28-3.263-2.47-2.884-5.933-4.794-9.45-5.654.07 4.044.53 8.183 1.774 11.427" data-iconColor="Pest"/></svg>