<svg xmlns="http://www.w3.org/2000/svg" xmlns:xlink="http://www.w3.org/1999/xlink" viewBox="0 0 96 96"><defs><linearGradient id="b" x1="50%" x2="50%" y1="0%" y2="100%"><stop offset="0%" stop-color="#545454"/><stop offset="100%" stop-color="#2a2a2a"/></linearGradient><filter id="a" width="128.6%" height="128.6%" x="-14.3%" y="-14.3%" filterUnits="objectBoundingBox"><feOffset dy="2" in="SourceAlpha" result="shadowOffsetOuter1"/><feGaussianBlur in="shadowOffsetOuter1" result="shadowBlurOuter1" stdDeviation="2"/><feColorMatrix in="shadowBlurOuter1" result="shadowMatrixOuter1" values="0 0 0 0 0 0 0 0 0 0 0 0 0 0 0 0 0 0 0.2 0"/><feMerge><feMergeNode in="shadowMatrixOuter1"/><feMergeNode in="SourceGraphic"/></feMerge></filter></defs><g fill="none" fill-rule="evenodd" filter="url(#a)" transform="translate(6 6)"><rect width="84" height="84" fill="#f6ce31" rx="10"/><rect width="80" height="80" x="2" y="2" fill="url(#b)" fill-rule="nonzero" rx="8"/><path fill="#f6ce31" fill-rule="nonzero" d="M65.327 16.74A20.9 20.9 0 0 1 68 27c0 11.598-9.402 21-21 21-3.22 0-6.272-.725-9-2.02v-9.6A12.96 12.96 0 0 0 47 40c7.18 0 13-5.82 13-13a12.94 12.94 0 0 0-1.849-6.686zm-8.714-8.415-3.893 6.998A12.95 12.95 0 0 0 47 14a12.96 12.96 0 0 0-9 3.62v-9.6A20.9 20.9 0 0 1 47 6c3.464 0 6.733.839 9.613 2.325"/><path fill="#f6ce31" fill-rule="nonzero" d="M40 78h-4a8 8 0 0 1-8-8V16a2 2 0 0 0-2-2h-2V6h4a8 8 0 0 1 8 8v54a2 2 0 0 0 2 2h2zm2 0v-8h8v8zM22 14h-8V6h8z"/></g></svg>