<svg xmlns="http://www.w3.org/2000/svg" viewBox="0 0 64 64"><rect width="56" height="56" x="4" y="5" opacity=".2" rx="2.8" ry="2.8"/><rect width="56" height="56" x="4" y="4" fill="#4f4f4f" rx="2.8" ry="2.8"/><path d="M56 9h-6v6h6zm0 42h-6v6h6zM42 9h-6v6h6zm0 42h-6v6h6zM28 9h-6v6h6zm0 42h-6v6h6zM14 9H8v6h6zm0 42H8v6h6z" opacity=".2"/><path fill="#fff" d="M56 8h-6v6h6zm0 42h-6v6h6zM42 8h-6v6h6zm0 42h-6v6h6zM28 8h-6v6h6zm0 42h-6v6h6zM14 8H8v6h6zm0 42H8v6h6z"/><path fill="#fff" d="M6.8 4C5.25 4 4 5.25 4 6.8v1C4 6.25 5.25 5 6.8 5h50.4C58.75 5 60 6.25 60 7.8v-1C60 5.25 58.75 4 57.2 4z" opacity=".1"/><path d="M30 35c-2.368 3.826-7.612 5.136-11.712 2.926-4.1-2.208-5.505-7.1-3.138-10.926Z" opacity=".2"/><path fill="#beff4c" d="M30 34c-2.368 3.826-7.612 5.136-11.712 2.926-4.1-2.208-5.505-7.1-3.138-10.926z"/><path fill="#2c2c2c" d="M22.11 29.75V30c-.432 2.205.418 4.84 2.61 7.742l.077-.015c-1.07-2.043-.895-4.32.146-6.452z"/><path d="M34 35c2.368 3.826 7.612 5.136 11.712 2.926 4.1-2.208 5.505-7.1 3.138-10.926z" opacity=".2"/><path fill="#beff4c" d="M34 34c2.368 3.826 7.612 5.136 11.712 2.926 4.1-2.208 5.505-7.1 3.138-10.926z"/><path fill="#2c2c2c" d="M41.89 29.75V30c.432 2.205-.418 4.84-2.61 7.742l-.077-.016c1.07-2.042.895-4.32-.146-6.45z"/></svg>