<svg xmlns="http://www.w3.org/2000/svg" viewBox="0 0 16 16"><path fill="#bb80b3" d="M5.323 10.323a1.2 1.2 0 0 0-.782-1.039c-.196-.072-.365-.204-.559-.284a4.5 4.5 0 0 0-.674-.244.41.41 0 0 0-.442.179.31.31 0 0 0 .055.386c.093.131.2.256.3.378.172.2.355.4.523.607a.96.96 0 0 1 .274.679 2.14 2.14 0 0 1-.757 1.437.3.3 0 0 1-.194.066 1.25 1.25 0 0 1-.733-.317.351.351 0 0 1 .082-.622 2 2 0 0 0 .2-.117.4.4 0 0 0 .135-.518.8.8 0 0 0-.167-.248c-.357-.313-.708-.637-1.09-.922A3.54 3.54 0 0 1 .014 7.02 5.54 5.54 0 0 1 .9 3.582 2.37 2.37 0 0 1 1.916 2.6a6.5 6.5 0 0 1 .984-.291 6.8 6.8 0 0 1 2.8-.251 1.98 1.98 0 0 1 1.7 1.317 3.5 3.5 0 0 1 .168 1.572A2.71 2.71 0 0 1 5.582 7.23a.78.78 0 0 1-.982-.314c-.2-.265-.364-.553-.542-.832-.026-.041-.045-.089-.067-.134s-.045-.086-.068-.13a3.1 3.1 0 0 0 .437 1.293.79.79 0 0 0 .6.4 2.66 2.66 0 0 0 2.472-1.019 3.55 3.55 0 0 0 .631-2.944c-.038-.21-.103-.415-.149-.623a.22.22 0 0 1 .162-.281A2 2 0 0 1 8.27 2.6a8.3 8.3 0 0 1 2.506-.146 6 6 0 0 1 2.67.857 5.82 5.82 0 0 1 2.478 3.326 2.4 2.4 0 0 1 .076.626c0 .141-.09.178-.2.089a3 3 0 0 1-.341-.321c-.1-.107-.177-.23-.273-.343-.074-.088-.139-.075-.174.035l-.062.2a4.8 4.8 0 0 1-1.135 2.038.57.57 0 0 0-.158.312 5 5 0 0 0-.012.9c.062.642.158 1.281.233 1.922a.576.576 0 0 1-.432.7 3 3 0 0 1-.777.17c-.418.028-.84.008-1.26.008a1.11 1.11 0 0 0-.409-1.13c.085-.335.184-.653.243-.978a.86.86 0 0 0-.189-.757.486.486 0 0 0-.628-.146 2.32 2.32 0 0 1-1.978.125.52.52 0 0 0-.7.226 1.6 1.6 0 0 0-.242.956c.026.42.1.835.16 1.253.032.234 0 .294-.236.354a5.1 5.1 0 0 1-1.627.1l-.077-.019a1.03 1.03 0 0 0-.526-1.123 2.42 2.42 0 0 0 .125-1.507ZM2.087 8.6a.6.6 0 0 0 .166-.289.7.7 0 0 0-.381-.705.26.26 0 0 0-.322.062q-.321.356-.637.713a.7.7 0 0 0-.093.136.191.191 0 0 0 .145.312c.109.027.222.032.335.048a1.3 1.3 0 0 0 .788-.271ZM2.111 6a.354.354 0 0 0-.352-.342.36.36 0 0 0-.358.354.355.355 0 0 0 .363.333.347.347 0 0 0 .349-.344Z" data-iconColor="PHP"/></svg>