<svg xmlns="http://www.w3.org/2000/svg" viewBox="0 0 64 64"><rect width="56" height="56" x="4" y="5" opacity=".2" rx="2.8" ry="2.8"/><rect width="56" height="56" x="4" y="4" fill="#4f4f4f" rx="2.8" ry="2.8"/><path fill="none" stroke="#180f06" stroke-linecap="round" stroke-linejoin="bevel" stroke-width="4" d="M10 32.972s8 1.321 8-3.828c0-5.148-7.972-4.2-7.972-4.2m0 16v-16" opacity=".2"/><path fill="none" stroke="#a287e9" stroke-linecap="round" stroke-linejoin="bevel" stroke-width="4" d="M10 31.972s8 1.321 8-3.828c0-5.148-7.972-4.2-7.972-4.2m0 16v-16"/><path fill="none" stroke="#180f06" stroke-linecap="round" stroke-linejoin="round" stroke-width="4" d="M38 40.972v-16m-11.983 0L32 33l6-8.028m-11.983 16v-16" opacity=".2"/><path fill="none" stroke="#ffb042" stroke-linecap="round" stroke-linejoin="round" stroke-width="4" d="M38 39.972v-16m-11.983 0L32 32l6-8.028m-11.983 16v-16"/><path fill="none" stroke="#180f06" stroke-linecap="round" stroke-linejoin="bevel" stroke-width="4" d="M46 34.972h8m-8 5.972V29.209m8 11.735V29.209m-8 0s-.178-4.264 4-4.264 4 4.264 4 4.264" opacity=".2"/><path fill="none" stroke="#ffb042" stroke-linecap="round" stroke-linejoin="bevel" stroke-width="4" d="M46 33.972h8m-8 5.972V28.209m8 11.735V28.209m-8 0s-.178-4.264 4-4.264 4 4.264 4 4.264"/><path fill="#fff" d="M6.8 4C5.25 4 4 5.25 4 6.8v1C4 6.25 5.25 5 6.8 5h50.4C58.75 5 60 6.25 60 7.8v-1C60 5.25 58.75 4 57.2 4z" opacity=".1"/></svg>