<svg xmlns="http://www.w3.org/2000/svg" viewBox="0 0 319 477"><g fill="none" fill-rule="evenodd" transform="translate(-34 -24)"><g fill="#52ce63"><path d="M179.607 255.646c32.272-30.748 22.425-68.778-6.804-114.86S84.737 78.31 73.761 88.767c-10.977 10.458-13.41 85.229 15.819 131.31 29.229 46.083 57.754 66.317 90.027 35.569"/><path d="M207.511 259.902c23.876 37.642 55.795 23.878 95.303-13.764 39.51-37.642 55.891-109.749 47.77-122.551s-69.83-12.161-109.338 25.481-57.61 73.191-33.735 110.834"/><path d="M194.457 239.193c39.645 4.868 55.235-31.757 62.504-90.96 7.27-59.202-22.696-121.774-36.18-123.43s-58.783 51.676-66.052 110.878.084 98.644 39.728 103.512"/></g><path fill="#ffc63a" d="M184.473 501C267.593 501 335 476.855 335 367.355S267.592 168 184.473 168 34 257.855 34 367.355 101.355 501 184.473 501" data-iconColor="Pinia"/><ellipse cx="260.5" cy="335" fill="#eaadcc" rx="21.5" ry="10"/><ellipse cx="102.5" cy="329" fill="#eaadcc" rx="21.5" ry="10" transform="rotate(7 102.5 329)"/><path stroke="#000" stroke-linecap="round" stroke-linejoin="round" stroke-width="6" d="M198.248 331.459q-9.707 7.888-22.422 6.435-12.717-1.453-18.85-10.556"/><path fill="#000" d="M114.983 279.418a21.44 21.44 0 0 1 15.414 5.762 21.43 21.43 0 0 1 6.824 14.974 21.43 21.43 0 0 1-5.763 15.414 21.43 21.43 0 0 1-14.975 6.824 21.43 21.43 0 0 1-15.413-5.763 21.43 21.43 0 0 1-6.823-14.975 21.43 21.43 0 0 1 5.762-15.413 21.43 21.43 0 0 1 14.974-6.823"/><path fill="#fff" d="M116.112 297.39a7.001 7.001 0 0 0-13.992.488 7 7 0 0 0 13.992-.489"/><path fill="#000" d="M245.253 284.875a21.43 21.43 0 0 1 15.414 5.762 21.43 21.43 0 0 1 6.824 14.974 21.43 21.43 0 0 1-5.763 15.414 21.43 21.43 0 0 1-14.974 6.824 21.43 21.43 0 0 1-15.413-5.763 21.43 21.43 0 0 1-6.824-14.975 21.43 21.43 0 0 1 5.763-15.412 21.43 21.43 0 0 1 14.973-6.824"/><g fill="#fff"><path fill-rule="nonzero" stroke="#fff" stroke-width="3" d="M134.223 300.259c.356 10.212-7.633 18.778-17.845 19.134-10.21.357-18.776-7.63-19.133-17.843-.356-10.211 7.631-18.777 17.842-19.134 10.212-.357 18.78 7.631 19.136 17.843zm5.996-.21c-.472-13.523-11.818-24.102-25.341-23.63s-24.101 11.817-23.63 25.34c.473 13.524 11.817 24.103 25.34 23.63 13.524-.471 24.103-11.816 23.631-25.34zm124.273 5.666c.357 10.213-7.63 18.779-17.843 19.135-10.21.357-18.777-7.63-19.134-17.843-.357-10.211 7.632-18.777 17.843-19.134s18.778 7.631 19.134 17.842zm5.997-.209c-.472-13.523-11.817-24.102-25.34-23.63s-24.103 11.817-23.63 25.34c.472 13.524 11.817 24.103 25.34 23.63 13.524-.471 24.102-11.816 23.63-25.34z"/><path d="M246.381 302.846a7 7 0 1 0-13.992.49 7 7 0 0 0 13.992-.49"/></g></g></svg>