<svg xmlns="http://www.w3.org/2000/svg" viewBox="0 0 64 64"><path d="M4 52v2s0 3.012 3 3l50.2-.2A2.8 2.8 0 0 0 60 54v-2a2.8 2.8 0 0 1-2.8 2.802l-50.2.2 50.187-.188a2.85 2.85 0 0 0 2-.813c-.547.6-1.307 1-2.187 1H7c-3 .012-3-3-3-3Zm3 5h50c.88 0 1.64-.4 2.188-1a2.85 2.85 0 0 1-2 .813z" opacity=".2"/><path fill="#ff766a" d="M7 8c-1.662 0-3 1.338-3 3v33h56V11c0-1.662-1.338-3-3-3zm52.188 47a2.84 2.84 0 0 1-2 .812L7 56h50c.88 0 1.64-.4 2.188-1"/><path fill="#fff" d="M7 8c-1.662 0-3 1.338-3 3v1c0-1.662 1.338-3 3-3h50c1.662 0 3 1.338 3 3v-1c0-1.662-1.338-3-3-3z" opacity=".2"/><path fill-rule="evenodd" d="M44 19a8 8 0 1 1 0 16 8 8 0 0 1 0-16" opacity=".2"/><path fill="#fffee4" fill-rule="evenodd" d="M44 18a8 8 0 1 1 0 16 8 8 0 0 1 0-16"/><path fill="#d22f7a" d="M4 44v9s0 3.012 3 3l50.2-.2A2.8 2.8 0 0 0 60 53v-9z"/><path d="M4 44v-1.6s4.039-2.667 5.174-2.9c1.135-.232 2.476-.043 3.854.218 1.378.259 3.435.61 4.077.631.642.023 1.804-.056 3.154-.137 1.35-.08 3.586-.154 4.283-.146.697 0 2.438.096 4.293.21s4.403.303 4.981.356 1.258.15 2.03.257a89 89 0 0 0 2.578.309c.473.043 1.568.193 2.838.31s3.304.157 3.892.114c.587-.043 1.818-.478 3.19-.879 1.371-.4 2.884-.767 4.034-.677C53.528 40.157 60 42.4 60 42.4V44H10.8z"/><path fill-rule="evenodd" d="M63.958 46.894A15 15 0 0 1 49 61a15 15 0 0 1-14.958-13.894A15 15 0 0 0 34 48a15 15 0 0 0 15 15 15 15 0 0 0 15-15 15 15 0 0 0-.042-1.106" opacity=".2"/><circle cx="49" cy="47" r="15" fill="#42a1cd"/><path fill="#fff" d="m46 39-1 1h-3.469C40.001 40 40 41.5 40 41.5v11c0 1.506 1.531 1.5 1.531 1.5H56.5c1.5 0 1.5-1.5 1.5-1.5v-11c0-1.5-1.5-1.5-1.5-1.5H53l-1-1zm3 3a5 5 0 1 1 0 10 5 5 0 0 1 0-10m0 2a3 3 0 1 0 0 6 3 3 0 0 0 0-6"/></svg>