<svg xmlns="http://www.w3.org/2000/svg" viewBox="0 0 64 64"><rect width="56" height="56" x="4" y="5" opacity=".2" rx="4" ry="4"/><rect width="56" height="56" x="4" y="4" fill="#81d4fa" rx="4" ry="4"/><path fill="#248afd" d="M60 36H4v20c0 2.216 1.784 4 4 4h48c2.216 0 4-1.784 4-4z"/><path d="M24 5v4h-8v4h12V5Zm-8 8h-4v4h4Zm0 4v4h4v-4Zm0 4h-4v16h4Zm0 16v8h8v-4h-4v-4Zm0 8h-4v4h4Zm0 4v11h4V49Zm-4 0H8v11h4ZM36 5v4h4V5Zm4 4v4h8V9Zm8 4v4h4v-4Zm0 4h-4v4h4Zm0 4v16h4V21Zm0 16h-4v4h-4v4h8Zm0 8v4h4v-4Zm4 4v11h4V49Zm-4 0h-4v11h4ZM20 25v4h4v-4Zm4 4v4h4v-4Zm12-4v4h4v-4Zm0 4h-4v4h4Zm-8 8v4h8v-4Z" opacity=".2"/><path fill="#5d5d5d" d="M24 4v4h-8v4h12V4Zm-8 8h-4v4h4Zm0 4v4h4v-4Zm0 4h-4v16h4Zm0 16v8h8v-4h-4v-4Zm0 8h-4v4h4Zm0 4v12h4V48Zm-4 0H8v12h4ZM36 4v4h4V4Zm4 4v4h8V8Zm8 4v4h4v-4Zm0 4h-4v4h4Zm0 4v16h4V20Zm0 16h-4v4h-4v4h8Zm0 8v4h4v-4Zm4 4v12h4V48Zm-4 0h-4v12h4ZM20 24v4h4v-4Zm4 4v4h4v-4Zm12-4v4h4v-4Zm0 4h-4v4h4Zm-8 8v4h8v-4Z"/><path fill="#fff" d="M20 44v4h4v12h4V44Zm16 0v16h4V48h4v-4Z"/><path fill="#df574d" d="M16 44v4h4v-4zm4 4v12h4V48Zm-4 0h-4v12h4zm12-4v4h4v-4zm4 4v4h4v-4zm12-4v4h4v-4zm4 4v12h4V48Zm-4 0h-4v12h4z"/><path d="M24 21v8h4v4h-4v-4h-4v-4h-4v12h4v4h4v4h16v-4h4v-4h4v-8h-4v-4h-4v4h-4v4h-4v-4h4v-4h4v-4Zm4 16h8v4h-8Z" opacity=".2"/><path fill="#ffecb3" d="M24 20v8h4v4h-4v-4h-4v-4h-4v12h4v4h4v4h16v-4h4v-4h4v-8h-4v-4h-4v4h-4v4h-4v-4h4v-4h4v-4Zm4 16h8v4h-8Z"/><path d="M28 5v8H16v4h4v4h-4v4h8v-4h16v4h4v4h4v-8h-4v-4h4v-4h-8V9h-4V5Z" opacity=".2"/><path fill="#fecd38" d="M28 4v8H16v4h4v4h-4v4h8v-4h16v4h4v4h4v-8h-4v-4h4v-4h-8V8h-4V4Z"/><path fill="#f48fb1" d="M32 44v4h4v-4zm0 4h-4v12h8v-8h-4z"/><path fill="#fff" d="M8 4C5.784 4 4 5.784 4 8v1c0-2.216 1.784-4 4-4h48c2.216 0 4 1.784 4 4V8c0-2.216-1.784-4-4-4z" opacity=".2"/></svg>