<svg xmlns="http://www.w3.org/2000/svg" viewBox="0 0 64 64"><path d="M8.2 5A4.19 4.19 0 0 0 4 9.2v47.6A4.19 4.19 0 0 0 8.2 61h47.6a4.19 4.19 0 0 0 4.2-4.2V9.2A4.19 4.19 0 0 0 55.8 5H32Z" opacity=".2"/><path fill="#3b274f" d="M8.2 4A4.19 4.19 0 0 0 4 8.2V53h56V8.2A4.19 4.19 0 0 0 55.8 4H32Z"/><path d="M18 12v7h-7v21h7v7h28v-7h7V19h-7v-7H25Zm14 7h7v21H25V26h7z" opacity=".2"/><path fill="#5491df" d="M18 43v-4h-7V18h7v-7h7v7h-7v14h7v14h-7z"/><path fill="#df605d" d="M39 43v-4h7v-7h-7V11h7v7h7v21h-7v7h-7z"/><path fill="#37955a" d="M25 43v-4h14v7H25v-2.8Zm0-28.5V11h14v7H25z"/><path fill="#23192d" d="M4 53v2.8A4.19 4.19 0 0 0 8.2 60h47.6a4.19 4.19 0 0 0 4.2-4.2V53H32Z"/><path fill="#f7e4d7" d="M18 18h7v7h-7zm7 0h7v7h-7zm-7 7h7v7h-7zm21 7h7v7h-7z"/><path fill="#fff" d="M8.2 4A4.19 4.19 0 0 0 4 8.2v1A4.19 4.19 0 0 1 8.2 5h47.6A4.19 4.19 0 0 1 60 9.2v-1A4.19 4.19 0 0 0 55.8 4z" opacity=".1"/><path fill="#fff" d="M18 11v1h28v-1zm-7 7v1h7v-1zm35 0v1h7v-1zM25 39v1h14v-1z" opacity=".2"/><path d="M4 53h56v1H4z" opacity=".2"/></svg>