<svg xmlns="http://www.w3.org/2000/svg" viewBox="0 0 64 64"><rect width="61" height="11" x="2" y="50" opacity=".2" rx="2.773" ry="2.75"/><rect width="51" height="51" x="7" y="3" fill="#3c94e7" rx="5.667" ry="5.667"/><rect width="61" height="11" x="2" y="49" fill="#4f4f4f" rx="2.773" ry="2.75"/><path d="M11.098 44C10.49 44 10 44.49 10 45.098v8.804c0 .608.49 1.098 1.098 1.098h8.804C20.51 55 21 54.51 21 53.902v-8.804C21 44.49 20.51 44 19.902 44Zm17 0C27.49 44 27 44.49 27 45.098v8.804c0 .608.49 1.098 1.098 1.098h8.804C37.51 55 38 54.51 38 53.902v-8.804C38 44.49 37.51 44 36.902 44Zm17 0C44.49 44 44 44.49 44 45.098v8.804c0 .608.49 1.098 1.098 1.098h8.804C54.51 55 55 54.51 55 53.902v-8.804C55 44.49 54.51 44 53.902 44Z" opacity=".2"/><path fill="#fff" d="M19.903 43h-8.806c-.608 0-1.097.49-1.097 1.097v8.806c0 .608.49 1.097 1.097 1.097h8.806c.608 0 1.097-.49 1.097-1.097v-8.806c0-.608-.49-1.097-1.097-1.097"/><path d="M32.5 7.9a4.2 4.2 0 0 0-2.797 1.075c-.08.07-.167.135-.242.213A4.5 4.5 0 0 0 28 12.5a4.5 4.5 0 0 0 3.084 4.268v2.265H25v2.834h6.084V33.4c0 1.417-1.952 2.255-2.885 2.133-4.182-.548-7.576-1.45-9.53-3.26l2.866.145-2.443-2.277-2.444-2.278c-.922 2.087-1.03 4.16-1.148 6.389l1.514-1.49c.728 2.999 10.656 4.889 12.058 6.123L32.5 41.9l3.426-3.013c1.405-1.237 11.334-3.133 12.05-6.135l1.524 1.5c0-2.27-.494-4.257-1.148-6.389l-2.444 2.278-2.074 2.277 2.502-.145c-1.948 1.804-5.328 2.71-9.494 3.26-.945.125-2.924-.716-2.924-2.133V21.867H40v-2.834h-6.082v-2.27A4.5 4.5 0 0 0 37 12.5a4.5 4.5 0 0 0-1.445-3.295A4.23 4.23 0 0 0 32.5 7.9m0 3.1a1.5 1.5 0 1 1 0 3 1.5 1.5 0 0 1 0-3" opacity=".3"/><path fill="#fff" d="M53.903 43h-8.806c-.608 0-1.097.49-1.097 1.097v8.806c0 .608.49 1.097 1.097 1.097h8.806c.608 0 1.097-.49 1.097-1.097v-8.806c0-.608-.49-1.097-1.097-1.097m-17 0h-8.806c-.608 0-1.097.49-1.097 1.097v8.806c0 .608.49 1.097 1.097 1.097h8.806c.608 0 1.097-.49 1.097-1.097v-8.806c0-.608-.49-1.097-1.097-1.097"/><path fill="#fff" d="M12.666 3A5.653 5.653 0 0 0 7 8.666v1A5.653 5.653 0 0 1 12.666 4h39.668A5.653 5.653 0 0 1 58 9.666v-1A5.653 5.653 0 0 0 52.334 3z" opacity=".2"/></svg>