<svg xmlns="http://www.w3.org/2000/svg" viewBox="0 0 64 64"><rect width="56" height="56" x="4" y="5" opacity=".2" rx="2.8" ry="2.8"/><rect width="56" height="56" x="4" y="4" fill="#3f3f3f" rx="2.8" ry="2.8"/><path d="M20.5 16h8.625L43.5 31.583 29.125 50H20.5l14.375-18.417M20.5 16" opacity=".2"/><path fill="#ffb81b" d="M20.5 15h8.625L43.5 30.583 29.125 49H20.5l14.375-18.417M20.5 15"/><path fill="#fff" d="M6.8 4C5.25 4 4 5.25 4 6.8v1C4 6.25 5.25 5 6.8 5h50.4C58.75 5 60 6.25 60 7.8v-1C60 5.25 58.75 4 57.2 4z" opacity=".1"/><path fill="#fff" d="m20.5 15 .922 1h7.703l13.953 15.125.422-.541L29.125 15zm13.953 16.125L20.5 49h.781l13.594-17.416z" opacity=".2"/></svg>