<svg xmlns="http://www.w3.org/2000/svg" viewBox="0 0 64 64"><circle cx="32" cy="33" r="28" opacity=".2"/><circle cx="32" cy="32" r="28" fill="#f43e37"/><path d="M32 11c-12.15 0-22 9.85-22 22s9.85 22 22 22v-6c-9.113 0-16-6.887-16-16s6.887-16 16-16 16 6.887 16 16h6c0-12.15-9.85-22-22-22m-.012 10A12 12 0 0 0 20 33a12 12 0 0 0 12 12v-4a8 8 0 0 1-8-8 8 8 0 0 1 8-8 8 8 0 0 1 8 8h4a12 12 0 0 0-12-12z" opacity=".2"/><path fill="#fff" d="M32 10c-12.15 0-22 9.85-22 22s9.85 22 22 22v-6c-9.113 0-16-6.887-16-16s6.887-16 16-16 16 6.887 16 16h6c0-12.15-9.85-22-22-22"/><path fill="#fff" d="M31.987 20A12 12 0 0 0 20 32a12 12 0 0 0 12 12v-4a8 8 0 0 1-8-8 8 8 0 0 1 8-8 8 8 0 0 1 8 8h4a12 12 0 0 0-12-12z"/><path fill="#fff" d="M32 4A28 28 0 0 0 4 32a28 28 0 0 0 .006.49A28 28 0 0 1 32 5a28 28 0 0 1 27.994 27.488A28 28 0 0 0 60 32 28 28 0 0 0 32 4" opacity=".2"/></svg>