<svg xmlns="http://www.w3.org/2000/svg" xmlns:xlink="http://www.w3.org/1999/xlink" viewBox="0 0 72 72"><defs><path id="a" d="M56 48h4a2 2 0 0 1 2 2v6a2 2 0 0 1-2 2h-4zm0-12h4a2 2 0 0 1 2 2v6a2 2 0 0 1-2 2h-4zm0-12h4a2 2 0 0 1 2 2v6a2 2 0 0 1-2 2h-4zm0-12h4a2 2 0 0 1 2 2v6a2 2 0 0 1-2 2h-4z"/><path id="b" d="M15 60V49h42v11c0 1.648-1.352 3-3 3H18c-1.648 0-3-1.352-3-3"/><path id="c" d="M58 14v38c0 2.2-1.8 4-4 4H18c-2.2 0-4 1.8-4 4V14c0-3.32 2.68-6 6-6h32c3.32 0 6 2.68 6 6"/><mask id="d" width="72" height="72" x="0" y="0" fill="#fff" maskUnits="userSpaceOnUse"><use xlink:href="#a"/><use xlink:href="#b" stroke-width="2"/><use xlink:href="#c"/><rect width="27" height="9" x="23" y="16" fill="#000" rx="2"/></mask></defs><g fill="#a35cff" data-iconColor="Polyglot Notebooks" mask="url(#d)"><use xlink:href="#a"/><use xlink:href="#b"/><use xlink:href="#c"/><rect width="27" height="9" x="23" y="16" fill="#fff" rx="2"/></g></svg>