<svg xmlns="http://www.w3.org/2000/svg" viewBox="0 0 64 64"><path d="M6.1 5C4.936 5 4 5.936 4 7.1v9.8c0 1.164.936 2.1 2.1 2.1h9.8c1.164 0 2.1-.936 2.1-2.1V7.1c0-1.164-.936-2.1-2.1-2.1Zm21 0c-1.164 0-2.1.936-2.1 2.1v9.8c0 1.164.936 2.1 2.1 2.1h9.8c1.164 0 2.1-.936 2.1-2.1V7.1c0-1.164-.936-2.1-2.1-2.1Zm21 0c-1.164 0-2.1.936-2.1 2.1v9.8c0 1.164.936 2.1 2.1 2.1h9.8c1.164 0 2.1-.936 2.1-2.1V7.1c0-1.164-.936-2.1-2.1-2.1Zm-42 21c-1.164 0-2.1.936-2.1 2.1v9.8c0 1.164.936 2.1 2.1 2.1h9.8c1.164 0 2.1-.936 2.1-2.1v-9.8c0-1.164-.936-2.1-2.1-2.1Zm21 0c-1.164 0-2.1.936-2.1 2.1v9.8c0 1.164.936 2.1 2.1 2.1h9.8c1.164 0 2.1-.936 2.1-2.1v-9.8c0-1.164-.936-2.1-2.1-2.1Zm21 0c-1.164 0-2.1.936-2.1 2.1v9.8c0 1.164.936 2.1 2.1 2.1h9.8c1.164 0 2.1-.936 2.1-2.1v-9.8c0-1.164-.936-2.1-2.1-2.1Zm-42 21c-1.164 0-2.1.936-2.1 2.1v9.8c0 1.164.936 2.1 2.1 2.1h9.8c1.164 0 2.1-.936 2.1-2.1v-9.8c0-1.164-.936-2.1-2.1-2.1Zm21 0c-1.164 0-2.1.936-2.1 2.1v9.8c0 1.164.936 2.1 2.1 2.1h9.8c1.164 0 2.1-.936 2.1-2.1v-9.8c0-1.164-.936-2.1-2.1-2.1Zm21 0c-1.164 0-2.1.936-2.1 2.1v9.8c0 1.164.936 2.1 2.1 2.1h9.8c1.164 0 2.1-.936 2.1-2.1v-9.8c0-1.164-.936-2.1-2.1-2.1Z" opacity=".2"/><rect width="14" height="14" x="25" y="46" fill="#38c5d7" rx="2.1" ry="2.1"/><rect width="14" height="14" x="4" y="25" fill="#ffe55a" rx="2.1" ry="2.1"/><rect width="14" height="14" x="25" y="25" fill="#88f7f0" rx="2.1" ry="2.1"/><rect width="14" height="14" x="46" y="25" fill="#ffad00" rx="2.1" ry="2.1"/><rect width="14" height="14" x="4" y="4" fill="#38c5d7" rx="2.1" ry="2.1"/><rect width="14" height="14" x="25" y="4" fill="#ffe55a" rx="2.1" ry="2.1"/><rect width="14" height="14" x="46" y="4" fill="#38c5d7" rx="2.1" ry="2.1"/><rect width="14" height="14" x="4" y="46" fill="#88f7f0" rx="2.1" ry="2.1"/><rect width="14" height="14" x="46" y="46" fill="#ffe55a" rx="2.1" ry="2.1"/><path fill="#fff" d="M6.1 4C4.936 4 4 4.936 4 6.1v1C4 5.936 4.936 5 6.1 5h9.8c1.164 0 2.1.936 2.1 2.1v-1c0-1.164-.936-2.1-2.1-2.1zm21 0c-1.164 0-2.1.936-2.1 2.1v1c0-1.164.936-2.1 2.1-2.1h9.8c1.164 0 2.1.936 2.1 2.1v-1c0-1.164-.936-2.1-2.1-2.1zm21 0c-1.164 0-2.1.936-2.1 2.1v1c0-1.164.936-2.1 2.1-2.1h9.8c1.164 0 2.1.936 2.1 2.1v-1c0-1.164-.936-2.1-2.1-2.1zm-42 21c-1.164 0-2.1.936-2.1 2.1v1c0-1.164.936-2.1 2.1-2.1h9.8c1.164 0 2.1.936 2.1 2.1v-1c0-1.164-.936-2.1-2.1-2.1zm21 0c-1.164 0-2.1.936-2.1 2.1v1c0-1.164.936-2.1 2.1-2.1h9.8c1.164 0 2.1.936 2.1 2.1v-1c0-1.164-.936-2.1-2.1-2.1zm21 0c-1.164 0-2.1.936-2.1 2.1v1c0-1.164.936-2.1 2.1-2.1h9.8c1.164 0 2.1.936 2.1 2.1v-1c0-1.164-.936-2.1-2.1-2.1zm-42 21c-1.164 0-2.1.936-2.1 2.1v1c0-1.164.936-2.1 2.1-2.1h9.8c1.164 0 2.1.936 2.1 2.1v-1c0-1.164-.936-2.1-2.1-2.1zm21 0c-1.164 0-2.1.936-2.1 2.1v1c0-1.164.936-2.1 2.1-2.1h9.8c1.164 0 2.1.936 2.1 2.1v-1c0-1.164-.936-2.1-2.1-2.1zm21 0c-1.164 0-2.1.936-2.1 2.1v1c0-1.164.936-2.1 2.1-2.1h9.8c1.164 0 2.1.936 2.1 2.1v-1c0-1.164-.936-2.1-2.1-2.1z" opacity=".2"/></svg>