<svg xmlns="http://www.w3.org/2000/svg" viewBox="0 0 64 64"><circle cx="32" cy="33" r="28" opacity=".2"/><circle cx="32" cy="32" r="28" fill="#48b9c7"/><path d="M26.219 11.004c-2.531.06-5.415 1.44-6.887 2.459s-4.472 3.057-4.531 5.035c0 1.319.706 2.398 1.353 3.717.648 1.319 9.36 19.065 11.95 21.883 1.353 1.439 3.236 1.02 3.648-.3.412-1.318-.058-2.757-.588-4.136l-2.826-7.494c3.296-1.2 5.65-3.657 7.062-6.715v-.121c.707-1.499.884-3.597.295-6.295-.588-2.698-2.177-5.034-4.414-6.533-1.471-.96-2.531-1.56-5.062-1.5m-2.112 5.469q.21.022.463.107c.412.12.767.42 1.06.66 1.472 1.2 2.59 2.997 3.12 4.856a7.534 7.674 0 0 1 .117 2.877c0 .48-.059.84-.353 1.32-.295.48-1 .84-1.354.78-.353-.06-.647-.3-.941-.6-1.236-1.26-2.354-3.778-2.766-4.977-.386-1.124-1.446-5.253.654-5.023M43.824 21c-.836.014-1.793.237-2.176.592-.51.473-.962 1.42-1.246 3.312-.963 6.921-1.302 12.6-.283 13.014.85.355 1.474-.237 4.533-5.916l1.586-3.135c.623-1.36 1.416-3.253 1.643-4.14.226-.888.17-1.598-.51-2.248a5.098 5.324 0 0 0-2.775-1.42 4 4 0 0 0-.772-.059m-3.488 20a2.2 2.2 0 0 0-.615.084c-.853.216-1.462.92-1.645 1.57s-.06 1.46.61 1.948c.67.487 1.827.487 2.314.216.487-.27.79-.704.912-1.191.32-1.137-.247-2.604-1.576-2.627m-20.078 6C19.007 47 18 47.892 18 49s1.007 2 2.258 2h23.484C44.993 51 46 50.108 46 49s-1.007-2-2.258-2Z" opacity=".2"/><rect width="28" height="4" x="18" y="46" fill="#fff" rx="2.258" ry="2"/><path fill="#fff" d="M35.401 24.453c-1.412 3.057-3.767 5.516-7.063 6.715l2.825 7.494c.53 1.379 1.001 2.818.589 4.137s-2.296 1.738-3.65.3c-2.59-2.818-11.3-20.565-11.948-21.884S14.8 18.817 14.8 17.498c.059-1.978 3.06-4.017 4.532-5.036s4.356-2.398 6.887-2.458 3.59.54 5.062 1.499c2.237 1.499 3.826 3.837 4.415 6.535.588 2.698.412 4.796-.295 6.295m-6.65-3.238c-.53-1.858-1.649-3.657-3.12-4.856-.295-.24-.648-.54-1.06-.66-2.708-.899-1.53 3.718-1.118 4.917s1.53 3.717 2.766 4.976c.294.3.589.54.942.6s1.06-.3 1.354-.78.353-.84.353-1.319a7.534 7.674 0 0 0-.118-2.878m13.163 21.533c-.122.487-.427.92-.914 1.19s-1.644.27-2.314-.216c-.67-.487-.791-1.3-.608-1.948.182-.65.791-1.353 1.644-1.57 1.765-.487 2.557 1.245 2.192 2.544m-1.793-5.71c-1.02-.414-.68-6.093.283-13.014.283-1.893.737-2.84 1.246-3.313.51-.473 2.04-.71 2.946-.532a5.098 5.324 0 0 1 2.776 1.42c.68.65.736 1.36.51 2.247-.227.888-1.02 2.78-1.643 4.141l-1.586 3.135c-3.06 5.68-3.682 6.27-4.532 5.916"/><path fill="#fff" d="M32 4A28 28 0 0 0 4 32a28 28 0 0 0 .018.492A28 28 0 0 1 32 5a28 28 0 0 1 27.975 27.492A28 28 0 0 0 60 32 28 28 0 0 0 32 4" opacity=".2"/></svg>