<svg xmlns="http://www.w3.org/2000/svg" viewBox="0 0 64 64"><circle cx="32" cy="33" r="28" opacity=".2"/><circle cx="32" cy="32" r="28" fill="#08bdc7"/><circle cx="32" cy="33" r="15" fill="none" stroke="#000" stroke-width="4" opacity=".2"/><circle cx="32" cy="32" r="15" fill="none" stroke="#90e1e6" stroke-width="4"/><path d="M42 16a7 7 0 0 0-7 7 7 7 0 0 0 7 7 7 7 0 0 0 7-7 7 7 0 0 0-7-7m-23 3a7 7 0 0 0-7 7 7 7 0 0 0 7 7 7 7 0 0 0 7-7 7 7 0 0 0-7-7m13 10a4 4 0 0 0-4 4 4 4 0 0 0 4 4 4 4 0 0 0 4-4 4 4 0 0 0-4-4m2 11a7 7 0 0 0-7 7 7 7 0 0 0 7 7 7 7 0 0 0 7-7 7 7 0 0 0-7-7" opacity=".2"/><circle cx="19" cy="25" r="7" fill="#fff"/><circle cx="42" cy="22" r="7" fill="#fff"/><circle cx="34" cy="46" r="7" fill="#fff"/><circle cx="32" cy="32" r="4" fill="#fff"/><path fill="#fff" d="M32 4A28 28 0 0 0 4 32a28 28 0 0 0 .035.5A28 28 0 0 1 32 5a28 28 0 0 1 27.982 27.252L60 32A28 28 0 0 0 32 4" opacity=".2"/></svg>