<svg xmlns="http://www.w3.org/2000/svg" viewBox="0 0 1000 1000"><g fill="#ffb74d" fill-rule="evenodd" data-iconColor="PostHTML"><path d="M501 329.8c-67.2 0-120.9-14.2-178-39.6-31.1-13.9-70.7-23.2-105-23.2-113.8 0-206 92.2-206 206s92.2 206 206 206c34.2 0 76.4-8.3 104.8-23.1 52.5-27.2 111-39.7 178.2-39.7s117 14.3 174.3 39.8c30.9 13.8 74.5 23 108.7 23 113.8 0 206-92.2 206-206s-92.2-206-206-206c-34.2 0-80.5 8.3-108.9 23.1-52.4 27.2-106.9 39.7-174.1 39.7"/><path d="M991 473c0-113.9-92.3-206.2-206.2-206.2-34.3 0-59.8 0-109 23.1S335.1 534.6 244.7 565.8c-90.5 31.1-185.9-7.8-213.2-87-12.7-37.2-8.3-76.5 9.4-111.1C22.5 398.5 12 434.5 12 473c0 113.9 92.3 206.2 206.2 206.2 34.2 0 66.3 0 104.9-23.1C361.8 633 666 411.3 756.5 380.2c90.4-31.2 185.8 7.8 213.1 87 16.4 47.6 4.4 98.9-27.4 139.1 30.4-36 48.8-82.5 48.8-133.3"/></g></svg>