<svg xmlns="http://www.w3.org/2000/svg" viewBox="0 0 16 16"><path fill="#ea7130" d="M14.368 2.465h-5.1V1h-.9L1 2.306V13.7L8.278 15h.989v-1.628h4.773a1.4 1.4 0 0 0 .806-.158 1.96 1.96 0 0 0 .154-.985V3.1a.577.577 0 0 0-.632-.635M5.665 8.54a2.3 2.3 0 0 1-1.165.15v1.91l-.95-.082V5.301c.864.042 1.91-.35 2.626.313a2.02 2.02 0 0 1-.511 2.926m8.577 4.06H9.267v-1.019h3.817v-.651H9.267v-.814h3.817v-.651H9.269v-.957a2.19 2.19 0 0 0 1.91-.192 2.24 2.24 0 0 0 .98-1.778h-2.096V4.412l-.8.164V3.233h4.975V12.6Zm-3.861-8.528a2.27 2.27 0 0 1 2.095 2.137h-2.095zM4.5 6.182a.95.95 0 0 1 .913.228 1.2 1.2 0 0 1 .021 1.068 1.03 1.03 0 0 1-.908.342A19 19 0 0 1 4.5 6.182" data-iconColor="Powerpoint"/></svg>