<svg xmlns="http://www.w3.org/2000/svg" viewBox="0 0 64 64"><circle cx="32" cy="47" r="14" opacity=".2"/><circle cx="32" cy="46" r="14" fill="#fecd38"/><path d="M18 47h28s14-2 14-8c0-13-19-20-19-20H23S4 26 4 39c0 6 14 8 14 8" opacity=".2"/><path fill="#3ad74a" d="M18 46h28s14-2 14-8c0-13-19-20-19-20H23S4 25 4 38c0 6 14 8 14 8"/><path fill="#fff" d="M23 18S4 25 4 38c0 .129.015.254.027.379C4.622 25.78 23 19 23 19h18s18.378 6.78 18.973 19.379c.012-.125.027-.25.027-.379 0-13-19-20-19-20z" opacity=".2"/><path d="M32 5c5 0 14 14 14 39 0 11-14 11-14 11s-14 0-14-11c0-25 9-39 14-39" opacity=".2"/><path fill="#c2352a" d="M32 4c5 0 14 14 14 39 0 11-14 11-14 11s-14 0-14-11c0-25 9-39 14-39"/><ellipse cx="32" cy="38.5" opacity=".2" rx="6" ry="8.5"/><ellipse cx="32" cy="37.5" fill="#4789d2" rx="6" ry="8.5"/><path fill="#fff" d="M32 29a6 8.5 0 0 0-6 8.5 6 8.5 0 0 0 .016.57A6 8.5 0 0 1 32 30a6 8.5 0 0 1 5.984 7.93A6 8.5 0 0 0 38 37.5a6 8.5 0 0 0-6-8.5" opacity=".2"/><path fill="#fff" d="M32 4c-5 0-14 14-14 39 0 .072.007.14.008.21C18.196 18.71 27.053 5 32 5s13.804 13.71 13.992 38.21c.001-.07.008-.138.008-.21 0-25-9-39-14-39" opacity=".2"/></svg>