<svg xmlns="http://www.w3.org/2000/svg" viewBox="0 0 512 512"><path fill="#ee6292" d="M295.044 70.705H60.916c-13.242-.602-12.664-19.398 0-19.505h234.128c12.729.193 13.184 18.852 0 19.505m-234.13 78.019c-13.24-.602-12.66-19.398 0-19.505h136.609c12.725.193 13.18 18.852 0 19.505zm97.523-39.01c-13.238-.601-12.66-19.397 0-19.504H353.56c12.725.192 13.18 18.852 0 19.504zM314.55 129.22c12.725.193 13.182 18.852.001 19.505h-78.095c-13.238-.602-12.66-19.398 0-19.505zm38.935 19.505c-13.239-.602-12.66-19.398 0-19.505h19.58c12.726.193 13.18 18.852 0 19.505zm-292.572 39.01c-13.238-.602-12.66-19.398 0-19.505H100c12.725.192 13.18 18.852 0 19.504zm234.057 0c-13.238-.602-12.66-19.398 0-19.505h97.6c12.726.192 13.18 18.852 0 19.504zm-156.038 0c-13.238-.602-12.66-19.398 0-19.505h19.581c12.725.192 13.18 18.852 0 19.504zM60.913 421.79c-13.238-.6-12.66-19.397 0-19.504H100c12.725.192 13.18 18.852 0 19.504zm78.02 0c-13.24-.6-12.66-19.397 0-19.504h19.58c12.725.192 13.18 18.852 0 19.504zM294.97 226.743c-13.238-.601-12.66-19.398 0-19.505h97.6c12.726.193 13.18 18.852 0 19.505zm-234.057 0c-13.238-.601-12.66-19.398 0-19.505h97.6c12.725.193 13.18 18.852 0 19.505zm0 156.038c-13.238-.601-12.66-19.397 0-19.505h97.6c12.725.193 13.18 18.852 0 19.505zm0 78.019c-13.238-.601-12.66-19.397 0-19.505h97.6c12.725.193 13.18 18.852 0 19.505zm0-195.048c-13.238-.601-12.66-19.397 0-19.504h19.581c12.725.192 13.18 18.852 0 19.504zm58.514 0c-13.238-.601-12.66-19.397 0-19.504h58.591c12.725.192 13.18 18.852 0 19.504zm97.524 0c-13.238-.601-12.66-19.397 0-19.504h156.115c12.725.192 13.18 18.852 0 19.504zm78.02 39.01c-13.24-.601-12.66-19.397 0-19.505h58.59c12.725.193 13.18 18.852 0 19.505zm-117.03 0c-13.238-.601-12.66-19.397 0-19.505h78.096c12.725.193 13.18 18.852 0 19.505zm-117.028 0c-13.238-.601-12.66-19.397 0-19.505h78.096c12.725.193 13.18 18.852 0 19.505zm0 39.01c-13.238-.602-12.66-19.398 0-19.505h19.581c12.725.192 13.18 18.852 0 19.504zm58.514 0c-13.238-.602-12.66-19.398 0-19.505h175.62c12.725.192 13.18 18.852 0 19.504zM60.913 109.713c-13.238-.601-12.66-19.397 0-19.504h58.554c12.773.192 13.23 18.852 0 19.504z" data-iconColor="Prettier Config"/></svg>