<svg xmlns="http://www.w3.org/2000/svg" viewBox="0 0 24 24"><path fill="#536076" d="M6 4.004v14.994h5.758a4.5 4.5 0 0 1 6.235-6.247c0-1.013 0-4.872-.002-5.58L14.6 4.004zm0-1h8.994l3.996 3.732c.004 1.655.002 7.297 0 9.498a3.5 3.5 0 1 0-3.49 3.764H6s-1 0-1-.934V3.94c0-.7.563-.89.844-.933.093-.017.156-.002.156-.002m10.995 14.353a1.7 1.7 0 0 0 .243-.847c0-.944-.776-1.72-1.718-1.72-.943 0-1.72.776-1.72 1.72 0 .943.776 1.719 1.72 1.719.279 0 .57-.085.847-.244l.4-.228zm-.132 1.497-.437.205a2.6 2.6 0 0 1-.906.17 2.726 2.726 0 0 1-2.72-2.72 2.73 2.73 0 0 1 2.72-2.72 2.73 2.73 0 0 1 2.718 2.72c0 .318-.063.623-.169.907l-.206.438.103.058a1 1 0 0 1 .116.098l1.844 1.812a.751.751 0 1 1-1.063 1.063l-1.843-1.813a1 1 0 0 1-.098-.115z"/></svg>