<svg xmlns="http://www.w3.org/2000/svg" viewBox="0 0 64 64"><rect width="56" height="56" x="4" y="5" opacity=".2" rx="7" ry="7"/><rect width="56" height="56" x="4" y="4" fill="#2e4153" rx="7" ry="7"/><path d="M19.656 15c-2.597 0-4.228.655-4.914 1.965-.343.68-.57 1.287-.668 1.82-.049.534-.074 1.365-.074 2.48V61h12V49.79c1.813 2.23 5.299 3.347 9.316 3.347q6.026.001 11.317-5.602C50.21 43.8 52 38.66 52 33.711s-1.79-9.304-5.367-13.04-7.37-5.597-11.387-5.597c-3.969 0-7.318 1.259-9.18 3.781-.147-1.26-.858-2.2-1.789-2.832-.882-.679-2.024-1.023-4.62-1.023m12.246 14c1.825 0 3.292.632 4.414 1.895C37.44 32.11 38 33.495 38 35.039s-.608 2.92-1.824 4.137C35.006 40.392 33.55 41 31.82 41q-2.524 0-4.207-1.824Q26 37.283 26 35.039q0-2.248 1.613-4.144C28.69 29.632 30.125 29 31.903 29" opacity=".2"/><path fill="#fff" d="M19.656 14c-2.597 0-4.228.655-4.914 1.965-.343.68-.57 1.287-.668 1.82-.049.534-.074 1.365-.074 2.48V60h12V48.79c1.813 2.23 5.299 3.347 9.316 3.347q6.026.001 11.317-5.602C50.21 42.8 52 37.66 52 32.711s-1.79-9.304-5.367-13.04-7.37-5.597-11.387-5.597c-3.969 0-7.318 1.259-9.18 3.781-.147-1.26-.858-2.2-1.789-2.832-.882-.679-2.024-1.023-4.62-1.023m12.246 14c1.825 0 3.292.632 4.414 1.895Q38 31.72 38 34.039c0 1.544-.608 2.92-1.824 4.137C35.006 39.392 33.55 40 31.82 40q-2.524 0-4.207-1.824Q26 36.283 26 34.039c0-1.497.537-2.881 1.613-4.144S30.125 28 31.903 28"/><path fill="#fff" d="M11 4c-3.878 0-7 3.122-7 7v1c0-3.878 3.122-7 7-7h42c3.878 0 7 3.122 7 7v-1c0-3.878-3.122-7-7-7z" opacity=".1"/></svg>