<svg xmlns="http://www.w3.org/2000/svg" viewBox="0 0 32 32"><filter id="a" color-interpolation-filters="sRGB"><feGaussianBlur stdDeviation=".657"/></filter><path d="M23.93 745.112a.9.9 0 0 0-.362.072.93.93 0 0 0-.568.73l.002 16.497a1 1 0 0 0 1.299.865l3.076-1.273 1.697 2.27a2.265 2.265 0 0 0 4.092-1.696l-.402-2.805 3.074-1.275q.135-.068.248-.18a1 1 0 0 0 .059-1.35l-11.663-11.665a.92.92 0 0 0-.552-.19" filter="url(#a)" opacity=".2" transform="translate(-20 -741.362)"/><path fill="#fff" d="M3.93 2.75a.9.9 0 0 0-.362.072.93.93 0 0 0-.568.73l.002 16.497a1 1 0 0 0 1.299.865l3.076-1.273 1.697 2.27a2.265 2.265 0 0 0 4.092-1.696l-.402-2.805 3.074-1.275q.135-.068.248-.18a1 1 0 0 0 .059-1.35L4.482 2.94a.92.92 0 0 0-.552-.19"/><path d="M4 3.873 3.996 19.85l3.352-1.766 2.271 2.73a1.402 1.402 0 0 0 2.389-.988l-.326-3.539 3.619-1.119z"/><path d="M60.5 1138.375a6.5 6.5 0 1 0 0 13 6.5 6.5 0 0 0 0-13" filter="url(#a)" opacity=".2" transform="translate(-40 -1121.362)"/><circle cx="394.5" cy="487.862" r="10.5" fill="#fff" transform="rotate(-45 -205.041 432.302)scale(.61905)"/><path fill="#d4497f" d="M16.61 18.611a5.5 5.5 0 0 0-1.578 4.407l2.993-2.992a3.5 3.5 0 0 1 4.95 0 3.5 3.5 0 0 1 .812 1.309l1.512-1.512a5.5 5.5 0 0 0-.91-1.212 5.5 5.5 0 0 0-7.778 0"/><path fill="#46a7ac" d="M15.7 25.178a5.5 5.5 0 0 0 .91 1.212 5.5 5.5 0 0 0 7.779 0 5.5 5.5 0 0 0 1.579-4.408l-2.994 2.993a3.5 3.5 0 0 1-4.95 0 3.5 3.5 0 0 1-.811-1.31z"/></svg>