<svg xmlns="http://www.w3.org/2000/svg" viewBox="0 0 32 32"><filter id="a" color-interpolation-filters="sRGB"><feGaussianBlur stdDeviation=".657"/></filter><path d="M23.93 745.112a.9.9 0 0 0-.362.072.93.93 0 0 0-.568.73l.002 16.497a1 1 0 0 0 1.299.865l3.076-1.273 1.697 2.27a2.265 2.265 0 0 0 4.092-1.696l-.402-2.805 3.074-1.275q.135-.068.248-.18a1 1 0 0 0 .059-1.35l-11.663-11.665a.92.92 0 0 0-.552-.19" filter="url(#a)" opacity=".2" transform="translate(-20 -741.362)"/><path fill="#fff" d="M3.93 2.75a.9.9 0 0 0-.362.072.93.93 0 0 0-.568.73l.002 16.497a1 1 0 0 0 1.299.865l3.076-1.273 1.697 2.27a2.265 2.265 0 0 0 4.092-1.696l-.402-2.805 3.074-1.275q.135-.068.248-.18a1 1 0 0 0 .059-1.35L4.482 2.94a.92.92 0 0 0-.552-.19"/><path d="M4 3.873 3.996 19.85l3.352-1.766 2.271 2.73a1.402 1.402 0 0 0 2.389-.988l-.326-3.539 3.619-1.119z"/><path d="M60.5 1138.375a6.5 6.5 0 1 0 0 13 6.5 6.5 0 0 0 0-13" filter="url(#a)" opacity=".2" transform="translate(-40 -1121.362)"/><circle cx="20.501" cy="22.501" r="6.5" fill="#fff"/><path fill="#d4497f" d="M20.5 17a5.5 5.5 0 0 0-4.232 2H20.5a3.5 3.5 0 0 1 3.5 3.5 3.5 3.5 0 0 1-.351 1.5h2.138A5.5 5.5 0 0 0 26 22.5a5.5 5.5 0 0 0-5.5-5.5"/><path fill="#46a7ac" d="M15.213 21A5.5 5.5 0 0 0 15 22.5a5.5 5.5 0 0 0 5.5 5.5 5.5 5.5 0 0 0 4.233-2H20.5a3.5 3.5 0 0 1-3.5-3.5 3.5 3.5 0 0 1 .352-1.5z"/></svg>