<svg xmlns="http://www.w3.org/2000/svg" viewBox="0 0 456 512"><path fill="#f03e25" d="M437.353 248.102c0-56.006-22.469-106.713-58.822-143.736-6.756-20.612-5.977-49.104 2.59-62.073 2.99-4.528 6.177-8.912 9.6-13.838-30.411-5.18-56.277 3.532-73.61 25.231-2.102 2.645-4.058 4.202-6.105 4.963-52.895-21.109-105.573-20.924-158.036.109-2.155-.725-4.202-2.3-6.412-5.072-17.316-21.681-43.181-30.412-73.61-25.231 16.928 19.512 21.26 44.105 11.9 76.817-72.879 81.79-68.744 161.578-32.35 253.364 3.38 9.812 10.504 42.663 8.26 71.89l41.568-38.037c7.535 6.956 17.787 13.223 30.14 18.566-25.819 18.174-27.443 53.958-5.198 75.133-5.704-22.276 8.477-42.68 32.26-43.417 23.838-.36 39.418 24.217 31.697 45.029 14.305-12.473 23.96-35.295 11.737-59.628a339.6 339.6 0 0 0 58.45.942c-10.573 22.668-3.654 43.36 10.434 57.056-6.165-20.671 8.296-43.696 32.26-43.417 26.745.31 38.579 25.552 31.697 45.029 19.61-15.966 26.413-51.736.145-74.028 12.788-4.89 23.673-10.723 32.078-17.243l35.936 32.875c-5.358-74.336 34.242-112.586 33.391-181.284M50.76 309.332l-7.698-23.039 10.215 9.4 15.85-5.596zm3.948 16.484 10.216 9.4 15.849-5.597-18.367 19.236zm25.105-34.306 9.491 10.143 16.211-4.402-19.76 17.805zm-7.607 97.466-7.698-23.04 10.215 9.4 15.85-5.596zm25.43-32.767-7.698-23.04 10.216 9.401 15.849-5.597zm17.407-57.653 9.491 10.143 16.211-4.402-19.761 17.805zm270.445-4.293-5.941 23.547-19.762-17.805 16.212 4.383 9.49-10.143zm-60.932 12.788 16.21 4.401 9.492-10.143-5.941 23.547zm43.127 51.911-18.367-19.236 15.849 5.597 10.216-9.4zm25.412 32.767-18.366-19.236 15.849 5.597 10.215-9.4zm9.8-40.12-18.367-19.237 15.849 5.597 10.215-9.4zm11.646-39.505-18.367-19.236 15.85 5.597 10.215-9.4zm-181.91-108.107c-21.029 0-38.073 17.053-38.073 38.1 0 16.791 11.846 31.318 19.272 45.536l18.82 34.922 28.727-53.977c4.637-8.73 9.346-16.247 9.346-26.499 0-21.029-17.044-38.082-38.092-38.082m33.165 66.175c-5.579 10.524-33.056 62.074-33.056 62.074v.018s-17.95-33.147-21.627-40.175c-7.028-13.44-17.429-26.887-20.925-42.066-31.044 24.545-78.814 25.02-109.775-6.998-43.439-44.922-21.787-120.208 38.879-135.19 56.817-14.033 108.243 34.604 100.396 90.042 9.374-2.856 18.623-2.588 27.99.729-7.903-46.744 27.25-93.997 79.12-94.609 62.422-.735 102.565 66.673 72.085 121.045-25.806 46.033-85.967 53.733-123.206 22.469-1.703 8.096-5.787 14.963-9.88 22.661m-124.634-79.09c-4.614-2.66-4.614-9.348 0-12.008s10.414.683 10.414 6.004-5.8 8.664-10.414 6.003m2.308 24.162c-16.434-9.474-16.434-33.288 0-42.762 16.433-9.474 37.086 2.433 37.086 21.38s-20.653 30.856-37.086 21.382m187.052.416c-16.433-9.474-16.433-33.287 0-42.762 16.434-9.474 37.087 2.433 37.087 21.381s-20.653 30.855-37.087 21.381m-196.154 12.536c-27.168-15.663-27.168-55.032 0-70.695s61.313 4.022 61.313 35.347-34.145 51.011-61.313 35.348M328.196 191.1c-4.614-2.66-4.614-9.347 0-12.007s10.414.683 10.414 6.004-5.8 8.664-10.414 6.003m-4.33 38.727c-27.169-15.663-27.169-55.033 0-70.695 27.168-15.663 61.313 4.022 61.313 35.347s-34.145 51.01-61.313 35.348" data-iconColor="Prolog"/></svg>