<svg xmlns="http://www.w3.org/2000/svg" viewBox="0 0 64 64"><path d="M26.888 54.54c1.843.329 6.79 2.079 9.284-1.478l21.737-31.826c2.493-3.556.523-6.72-3.783-7.165L11.018 9.567c-4.76-.444-5.783 2.937-6.176 6.907l19.717 35.12Z" opacity=".2"/><path fill="#3974ff" d="M26.888 53.54c1.843.329 6.79 2.078 9.284-1.478l21.737-31.826c2.493-3.557.523-6.72-3.783-7.165L11.018 8.567c-4.76-.445-5.783 2.936-6.176 6.907l19.717 35.119Z"/><path d="M10.063 8.002a7 7 0 0 0-.433.008c-4.286.185-7.127 4.714-4.79 8.464l.227.227 37.625 4.219c1.146.102 2 .724 2.46 1.558v.004c.54.98.54 2.249-.195 3.328L30 48.927l-2.043 2.89c-.906 1.112-2.718 1.112-3.398-.222l2.04 3.555c.452.667.905 1.11 1.358 1.554 2.493 2 6.574 1.78 8.614-1.332L59.008 21.81c1.269-1.81 1.236-3.96.34-5.699l.011-.004c-.02-.04-.048-.077-.07-.117-.021-.04-.036-.082-.058-.121-.02-.035-.052-.064-.075-.098-.907-1.51-2.483-2.648-4.453-2.851L10.508 8.03a7 7 0 0 0-.445-.028" opacity=".2"/><path fill="#21ffff" d="m29.999 47.926-2.04 2.89c-.906 1.11-2.72 1.11-3.4-.223l2.04 3.556c.454.667.907 1.112 1.36 1.556 2.493 2 6.573 1.778 8.612-1.334l22.437-33.563c1.328-1.893 1.242-4.164.221-5.941-.896-1.562-4.473-1.201-6.487-1.409l-41.87-4.007c-4.76-.445-5.612.73-3.119 4.73l.227.223 35.638 4.267c1.074.095.968 1.894 1.447 2.648.632.997.666 2.352-.108 3.49z"/><path fill="#917bff" d="M9.63 7.007c-4.285.185-7.126 4.714-4.789 8.465l.226.226 37.625 4.22c1.148.102 2 .727 2.461 1.562l14.205-6.373a5.91 5.91 0 0 0-4.657-3.19L10.507 7.028a6.5 6.5 0 0 0-.876-.021"/><path fill="#fff" d="M10.064 7.002a7 7 0 0 0-.433.004c-3.41.147-5.894 3.045-5.596 6.111.26-2.668 2.561-4.98 5.596-5.111a6.5 6.5 0 0 1 .877.023L54.7 12.916c1.968.203 3.546 1.342 4.453 2.85.024.034.054.065.075.101.024.043.042.09.066.133q.032.053.062.107l-.01.004c.33.642.542 1.34.616 2.055a5.66 5.66 0 0 0-.615-3.055l.01-.004-.063-.107c-.024-.044-.042-.09-.066-.133-.021-.036-.05-.067-.075-.101-.907-1.508-2.485-2.647-4.453-2.85L10.508 7.029a7 7 0 0 0-.444-.027M45.49 23.486a3.3 3.3 0 0 1-.533 1.323L29.998 47.926l-2.039 2.888c-.907 1.112-2.72 1.113-3.4-.22l1.113 1.94c.782.238 1.715-.018 2.287-.72l2.039-2.888 14.959-23.117a3.2 3.2 0 0 0 .533-2.323" opacity=".2"/></svg>