<svg xmlns="http://www.w3.org/2000/svg" xmlns:xlink="http://www.w3.org/1999/xlink" viewBox="0 0 96 96"><defs><linearGradient id="b" x1="50%" x2="50%" y1="0%" y2="100%"><stop offset="0%" stop-color="#3574ff"/><stop offset="100%" stop-color="#6fe3ff"/></linearGradient><linearGradient id="d" x1="50%" x2="50%" y1="0%" y2="100%"><stop offset="0%" stop-color="#2f3ee4"/><stop offset="100%" stop-color="#3286ff"/></linearGradient><linearGradient id="e" x1="50%" x2="50%" y1="0%" y2="100%"><stop offset="0%" stop-color="#2f63e5"/><stop offset="100%" stop-color="#fff"/></linearGradient><linearGradient id="f" x1="32.359%" x2="100%" y1="1.456%" y2="98.544%"><stop offset="0%" stop-color="#fff"/><stop offset="67.906%" stop-color="#def"/><stop offset="100%" stop-color="#abd0f5"/></linearGradient><linearGradient id="g" x1="26.093%" x2="100%" y1="1.456%" y2="98.544%"><stop offset="0%" stop-color="#3d47e1"/><stop offset="100%" stop-color="#58a4ff"/></linearGradient><linearGradient id="h" x1="50.311%" x2="61.009%" y1="35.055%" y2="53.75%"><stop offset="0%" stop-color="#fcc"/><stop offset="36.141%" stop-color="#ff3e3e"/><stop offset="100%" stop-color="#ee2828"/></linearGradient><linearGradient id="i" x1="47.979%" x2="56.113%" y1="11.989%" y2="50%"><stop offset="0%" stop-color="#fcc"/><stop offset="36.141%" stop-color="#ff3e3e"/><stop offset="100%" stop-color="#ee2828"/></linearGradient><filter id="a" width="136.1%" height="131%" x="-18.1%" y="-15.5%" filterUnits="objectBoundingBox"><feOffset dy="2" in="SourceAlpha" result="shadowOffsetOuter1"/><feGaussianBlur in="shadowOffsetOuter1" result="shadowBlurOuter1" stdDeviation="2"/><feComposite in="shadowBlurOuter1" in2="SourceAlpha" operator="out" result="shadowBlurOuter1"/><feColorMatrix in="shadowBlurOuter1" result="shadowMatrixOuter1" values="0 0 0 0 0 0 0 0 0 0 0 0 0 0 0 0 0 0 0.2 0"/><feMerge><feMergeNode in="shadowMatrixOuter1"/><feMergeNode in="SourceGraphic"/></feMerge></filter></defs><g fill="none" fill-rule="evenodd" filter="url(#a)" transform="translate(12 6)"><path fill="url(#b)" stroke="url(#d)" d="M56.07 61.546c-5.112 7.54-13 12.83-24.683 12.96q-.885 6.566-1.063 9.076H16.203l2.97-9.171c-4.27-.712-7.588-2.18-9.968-4.38C6.697 67.715 5.22 64.58 4.79 60.62c-.78-7.191 1.75-14.604 3.47-19.612.926-2.696 1.825-4.751 1.343-5.353q-.258-.323-.58-.425c-.245-.079-.515-.067-.805-.003-.934.207-2.04.928-3.278 1.716-.384.244-.781.496-1.188.745q-.235.144-.47.282a34 34 0 0 1-.241-.493C2.199 35.718-.5 29.459-.5 27.497c9.944-4.255 15.618-4.172 18.829-2.264 2.08 1.236 3.176 3.236 3.618 5.56.547 2.879.075 6.256-.696 9.171-.42 1.588-.999 3.336-1.598 5.144-1.515 4.578-3.19 9.558-2.632 13.285.196 1.305.674 2.45 1.565 3.346.738.742 1.754 1.31 3.104 1.67l.473-1.658C25.413 50.378 37.131 9.76 36.298 7.794c-.06-.142-.311-.378-.73-.695h15.757c-.457.366-.755.635-.87.794-1.082 1.49-6.474 21.355-10.77 37.095-2.277 8.345-4.243 15.544-5.093 18.295 5.89-1.762 9.761-6.195 12.32-11.437 4.792-9.822 5.002-22.503 4.976-26.377h12.098c.838 11.263-.938 25.785-7.916 36.077Z"/><path stroke="url(#e)" d="M55.242 60.985c-5.004 7.382-12.765 12.523-24.292 12.523-1.026 4.345-1.377 7.226-1.547 9.074H17.578l2.91-8.988C15.892 73 12.35 71.577 9.885 69.297c-2.34-2.163-3.7-5.095-4.1-8.786-.764-7.036 1.74-14.283 3.421-19.179 1.16-3.38 1.734-5.61 1.177-6.304-.314-.39-.669-.628-1.055-.752-.403-.129-.846-.132-1.326-.026-1.02.226-2.242.985-3.598 1.848q-.343.218-.698.441C2.773 34.52.753 29.81.522 27.83c8.916-3.46 14.266-3.538 17.296-1.737 1.826 1.084 2.76 2.855 3.146 4.886.522 2.742.054 5.956-.68 8.73-.416 1.57-.988 3.297-1.58 5.085-1.57 4.74-3.25 9.896-2.671 13.747.229 1.528.804 2.858 1.844 3.903.934.94 2.248 1.653 4.054 2.053.732-.855.937-1.573 1.194-2.471C26.236 51.14 36.778 13.925 37.246 8.099h12.02c-1.656 4.15-6.583 22.11-10.545 36.626-2.592 9.497-4.776 17.503-5.363 19.112q-.11.302-.347.863.466-.09.936-.206c6.69-1.642 11.047-6.439 13.863-12.21 4.516-9.255 5.046-21.004 5.078-25.815h10.163c.662 10.92-1.143 24.685-7.809 34.516Z" opacity=".739"/><path fill="url(#f)" fill-rule="nonzero" stroke="url(#g)" d="M52.328 15.698a3.5 3.5 0 0 1 3.355 4.501h-4.355l.988-4.5zm11.5 3.5q0 .507-.043 1h-4.023q.065-.49.066-1a7.5 7.5 0 0 0-6.644-7.451l.86-3.921c5.538.829 9.784 5.605 9.784 11.372Zm8 0q0 .504-.025 1h-4.007q.032-.495.032-1c0-7.682-5.59-14.06-12.924-15.286L55.763 0c9.131 1.623 16.065 9.6 16.065 19.198Z"/><path fill="#fff" d="M50.05 7.6c-1.073 1.478-6.395 20.947-10.686 36.665q-1.244.227-2.536.433-5.146.825-9.577.941c4.512-16.089 10.096-36.652 9.508-38.04ZM.675 27.234c22.065-8.435 22.342 4.1 20.092 12.601-.434 1.642-1.039 3.456-1.66 5.33q-6.194-.98-10.4-3.926c1.057-3.076 1.808-5.246 1.285-5.9-1.245-1.551-3.277-.111-5.757 1.457Q1.474 32.913.44 27.327ZM63.52 25.97c.194 2.87.217 5.946.028 9.101q-4.912 3.78-12.683 6.342c1.364-6.514 1.525-12.596 1.525-15.443Z" opacity=".292"/><path fill="url(#h)" stroke="#fff" d="m39.5 60.594-8.947 8.82A1.5 1.5 0 0 1 28 68.344V47.793l2.94-2.94a1.5 1.5 0 0 1 2.56 1.061v16.357l.5-.507v-3.192l2.947-2.905a1.5 1.5 0 0 1 2.553 1.069zM51 28.667V49.27l-8.947 8.82a1.5 1.5 0 0 1-2.553-1.068V36.36l2.955-2.87A1.5 1.5 0 0 1 45 34.568v16.325l.5-.506v-19.89l2.948-2.9A1.5 1.5 0 0 1 51 28.668Zm12 8.782-8.446 8.343A1.5 1.5 0 0 1 52 44.725v-5.75l2.95-2.891a1.5 1.5 0 0 1 2.55 1.07v.357-5.497l-2.446 2.416a1.5 1.5 0 0 1-2.554-1.068v-9.76l7.949-7.81A1.5 1.5 0 0 1 63 16.862v5.383l-5.5 4.277v-.871 3.308l2.953-2.876A1.5 1.5 0 0 1 63 27.157z"/><path fill="url(#i)" stroke="#fff" d="m27.208 52.15-.155 12.17a10.5 10.5 0 0 1-3.226 7.44l-2.515 2.415.198 4.172-3.456 3.411A1.5 1.5 0 0 1 15.5 80.69V60.07l9.156-9.008a1.5 1.5 0 0 1 2.552 1.088Z"/></g></svg>