<svg xmlns="http://www.w3.org/2000/svg" viewBox="0 0 64 64"><path fill="#45c034" d="M35 5h5v52h-5z"/><path fill="#e7d324" d="M30 5h5v52h-5z"/><path fill="#c033e3" d="M45 5h5v52h-5z"/><path fill="#3266b4" d="M40 5h5v52h-5z"/><path fill="#8b5a3a" d="M15 5h5v52h-5z"/><path fill="#4f4f4f" d="M10 5h5v52h-5z"/><path fill="#ff7d27" d="M25 5h5v52h-5z"/><path fill="#f24040" d="M20 5h5v52h-5z"/><path fill="#80809d" d="M50 5h5v52h-5z"/><rect width="55" height="22" x="5" y="37" opacity=".2" rx="3.75" ry="4.125"/><rect width="55" height="22" x="5" y="36" fill="#9e9c89" rx="3.75" ry="4.125"/><path fill="none" stroke="#000" stroke-width="3" d="M12 54.5h5.5v-13h16v13h7v-13h7v13H53" opacity=".2"/><path fill="none" stroke="#d6d5cd" stroke-width="3" d="M12 53.5h5.5v-13h16v13h7v-13h7v13H53"/><path fill="#f9f9f9" d="M8.75 36C6.673 36 5 37.84 5 40.125v1C5 38.84 6.673 37 8.75 37h47.5c2.078 0 3.75 1.84 3.75 4.125v-1C60 37.84 58.328 36 56.25 36z" opacity=".2"/><path fill="#f9f9f9" d="M10 5h45v1H10z" opacity=".1"/></svg>