<svg xmlns="http://www.w3.org/2000/svg" xmlns:xlink="http://www.w3.org/1999/xlink" viewBox="0 0 96 96"><defs><linearGradient id="b" x1="52.645%" x2="44.859%" y1="43.571%" y2="50%"><stop offset="0%" stop-color="#d7d1bb"/><stop offset="100%" stop-color="#aca794"/></linearGradient><linearGradient id="c" x1="50%" x2="50%" y1="0%" y2="100%"><stop offset="0%" stop-color="#b5ae95"/><stop offset="100%" stop-color="#a09a86"/></linearGradient><linearGradient id="d" x1="50%" x2="50%" y1="0%" y2="100%"><stop offset="0%" stop-color="#cbc6b0"/><stop offset="100%" stop-color="#b7ad8c"/></linearGradient><linearGradient id="e" x1="50%" x2="50%" y1="0%" y2="100%"><stop offset="0%" stop-color="#c2bdad"/><stop offset="100%" stop-color="#d5ceb4"/></linearGradient><filter id="a" width="130.8%" height="130.4%" x="-15.4%" y="-15.2%" filterUnits="objectBoundingBox"><feOffset dy="2" in="SourceAlpha" result="shadowOffsetOuter1"/><feGaussianBlur in="shadowOffsetOuter1" result="shadowBlurOuter1" stdDeviation="2"/><feComposite in="shadowBlurOuter1" in2="SourceAlpha" operator="out" result="shadowBlurOuter1"/><feColorMatrix in="shadowBlurOuter1" result="shadowMatrixOuter1" values="0 0 0 0 0 0 0 0 0 0 0 0 0 0 0 0 0 0 0.2 0"/><feMerge><feMergeNode in="shadowMatrixOuter1"/><feMergeNode in="SourceGraphic"/></feMerge></filter></defs><g fill="none" fill-rule="evenodd" filter="url(#a)" transform="translate(9 8.5)"><path fill="url(#b)" d="M4.56 22.475q-3.413-1.2-4.223-3.474T.662 5.093h4.912z" transform="translate(20.98 55.056)"/><path fill="url(#c)" d="M4.031 6.08q-2.187 7.5-2.47 13.694 1.995 2.796 3.565 2.796c1.57 0 23.228.704 25.615 0 2.387-.703 4.604-.45 4.604-1.934V5.093Q15.32 6.88 4.031 6.08" transform="translate(20.98 55.056)"/><path stroke="url(#d)" stroke-linecap="round" stroke-linejoin="round" d="M4.52 20.944h4v-11h11v11h5v-11h4v11h3" transform="translate(20.98 55.056)"/><path fill="url(#e)" d="M.662 5.093c1.075 1 1.534.656 6.807 1.351 2.2.29 6.634 1.015 10.551.672 7.688-.672 16.032-.314 16.747-.672 2-1-1.747-5-2.747-6-5-1-22 0-25 0S1.662 2.094.662 5.094" transform="translate(20.98 55.056)"/><path stroke="#2f2f2f" stroke-linecap="round" stroke-width="2" d="M15.392 29.865Q25 36.5 28 42.5t3 15"/><path stroke="#8c5c3d" stroke-linecap="round" stroke-width="2" d="M22 25.5q5.5 7 8 13.5t3 18.5"/><path stroke="#b71b1b" stroke-linecap="round" stroke-width="2" d="M28 22q3.5 8.5 5 17t2 18.5"/><path stroke="#dc6b1f" stroke-linecap="round" stroke-width="2" d="M33 21.5q1.5 7 2.5 17t1.5 19"/><path stroke="#debf13" stroke-linecap="round" stroke-width="2" d="m38.5 20 .5 37.5"/><path fill="#1c1c1c" fill-rule="nonzero" d="M38.5.5c.279 0 .508.221.517.5l.48 13.88c.275.244.46.588.496.976L40 16v4a1.5 1.5 0 0 1-2.993.144L37 20v-4c0-.446.195-.847.504-1.121l.479-13.88A.517.517 0 0 1 38.5.5m-8.461.102a.52.52 0 0 1 .581.423l2.407 13.678c.307.204.537.52.627.897l.027.143.557 3.96a1.5 1.5 0 0 1-2.944.56l-.027-.142-.557-3.96a1.5 1.5 0 0 1 .343-1.182L29.596 1.17a.52.52 0 0 1 .443-.567m-8.629 3.53a.52.52 0 0 1 .656.293l5.199 12.878a1.5 1.5 0 0 1 .8.748l.055.133 1.368 3.76a1.5 1.5 0 0 1-2.763 1.159l-.056-.134-1.368-3.759a1.5 1.5 0 0 1 .09-1.226L21.094 4.78a.52.52 0 0 1 .316-.647m-9.782 6.162a.52.52 0 0 1 .709.125l8.16 11.239c.364.049.709.231.956.531l.087.116 2.236 3.317a1.5 1.5 0 0 1-2.4 1.793l-.087-.116-2.237-3.316a1.5 1.5 0 0 1-.209-1.211l-7.364-11.774a.52.52 0 0 1 .15-.704M1.226 18.536a.52.52 0 0 1 .712-.1l11.233 8.167c.362-.066.747 0 1.074.21l.119.083 3.152 2.463a1.5 1.5 0 0 1-1.73 2.447l-.117-.083-3.152-2.463a1.5 1.5 0 0 1-.574-1.087L1.301 19.25a.52.52 0 0 1-.075-.715"/><path stroke="#7d7d9c" stroke-linecap="round" stroke-width="2" d="M62.608 29.865Q53 36.5 50 42.5t-3 15"/><path stroke="#b924dd" stroke-linecap="round" stroke-width="2" d="M56 25.5q-5.5 7-8 13.5t-3 18.5"/><path stroke="#3a72c6" stroke-linecap="round" stroke-width="2" d="M50 22q-3.5 8.5-5 17t-2 18.5"/><path stroke="#4eb042" stroke-linecap="round" stroke-width="2" d="M45 21.5q-1.5 7-2.5 17t-1.5 19"/><path fill="#1c1c1c" fill-rule="nonzero" d="M47.961.602a.52.52 0 0 0-.581.423l-2.407 13.678c-.307.204-.537.52-.627.897l-.027.143-.557 3.96a1.5 1.5 0 0 0 2.944.56l.027-.142.557-3.96a1.5 1.5 0 0 0-.343-1.182l1.457-13.81a.52.52 0 0 0-.443-.567m8.629 3.531a.52.52 0 0 0-.656.293l-5.199 12.878a1.5 1.5 0 0 0-.8.748l-.055.133-1.368 3.76a1.5 1.5 0 0 0 2.763 1.159l.056-.134 1.368-3.759a1.5 1.5 0 0 0-.09-1.226L56.906 4.78a.52.52 0 0 0-.316-.647m9.782 6.162a.52.52 0 0 0-.709.125l-8.16 11.239a1.5 1.5 0 0 0-.956.531l-.087.116-2.236 3.317a1.5 1.5 0 0 0 2.4 1.793l.087-.116 2.237-3.316c.249-.37.312-.81.209-1.211l7.364-11.774a.52.52 0 0 0-.15-.704m10.403 8.241a.52.52 0 0 0-.712-.1l-11.233 8.167a1.5 1.5 0 0 0-1.074.21l-.119.083-3.152 2.463a1.5 1.5 0 0 0 1.73 2.447l.117-.083 3.152-2.463c.352-.274.548-.674.574-1.087l10.642-8.922a.52.52 0 0 0 .075-.715"/><rect width="18" height="4" x="30" y="56.5" fill="#000" rx="1"/></g></svg>