<svg xmlns="http://www.w3.org/2000/svg" viewBox="0 0 64 64"><rect width="56" height="56" x="4" y="5" opacity=".2" rx="3" ry="3"/><rect width="56" height="56" x="4" y="4" fill="#8e8e8e" rx="3" ry="3"/><path d="M31 9c-11.046 0-20 8.954-20 20v28h14v-8.918c1.894.595 3.909.918 6 .918 1.828 0 3.591-.267 5.273-.727L45 57l9-9-7.016-7.016C49.495 37.642 51 33.502 51 29c0-11.046-8.954-20-20-20" opacity=".2"/><path fill="#ddd" d="M31 8c-11.046 0-20 8.954-20 20v28h14v-8.918c1.894.595 3.909.918 6 .918 1.828 0 3.591-.267 5.273-.727L45 56l9-9-7.016-7.016C49.495 36.642 51 32.502 51 28c0-11.046-8.954-20-20-20"/><path d="M31 13a16 16 0 0 0-16 16v24h6V41.471A16 16 0 0 0 31 45a16 16 0 0 0 16-16 16 16 0 0 0-16-16" opacity=".2"/><path fill="#333" d="M31 12a16 16 0 0 0-16 16v24h6V40.471A16 16 0 0 0 31 44a16 16 0 0 0 16-16 16 16 0 0 0-16-16"/><circle cx="31" cy="29" r="10" opacity=".2"/><circle cx="31" cy="28" r="10" fill="#fff"/><path fill="#fff" d="M31 12a16 16 0 0 0-16 16v1a16 16 0 0 1 16-16 16 16 0 0 1 15.979 15.58A16 16 0 0 0 47 28a16 16 0 0 0-16-16" opacity=".1"/><path fill="#fff" d="M7 4C5.338 4 4 5.338 4 7v1c0-1.662 1.338-3 3-3h50c1.662 0 3 1.338 3 3V7c0-1.662-1.338-3-3-3z" opacity=".2"/></svg>