<svg xmlns="http://www.w3.org/2000/svg" xmlns:xlink="http://www.w3.org/1999/xlink" viewBox="0 0 96 96"><defs><linearGradient id="b" x1="50%" x2="50%" y1="0%" y2="100%"><stop offset="0%" stop-color="#ffab97"/><stop offset="100%" stop-color="#fe7b67"/></linearGradient><filter id="a" width="127.3%" height="127.3%" x="-13.6%" y="-13.6%" filterUnits="objectBoundingBox"><feOffset dy="2" in="SourceAlpha" result="shadowOffsetOuter1"/><feGaussianBlur in="shadowOffsetOuter1" result="shadowBlurOuter1" stdDeviation="2"/><feColorMatrix in="shadowBlurOuter1" result="shadowMatrixOuter1" values="0 0 0 0 0 0 0 0 0 0 0 0 0 0 0 0 0 0 0.2 0"/><feMerge><feMergeNode in="shadowMatrixOuter1"/><feMergeNode in="SourceGraphic"/></feMerge></filter></defs><g fill="none" filter="url(#a)" transform="translate(4 4)"><circle cx="44" cy="44" r="44" fill="url(#b)"/><path fill="#fff" d="M52.143 49.533a264 264 0 0 1-8.372 12.26c.439.033.88.055 1.327.055A17.614 17.614 0 0 0 60.483 35.67c-3.27 5.86-6.65 11.239-8.34 13.862m-14.85 10.484c2.895-3.869 6.214-8.623 9.835-14.265 3.405-5.31 6.525-10.568 9.037-15.224a17.61 17.61 0 1 0-18.873 29.49"/><path fill="#fff" d="M26.264 77.187a2.63 2.63 0 0 1-1.676-.578c-1.564-1.253-2.378-4.136 3.455-16.02 3.542-7.198 8.808-16.23 14.478-24.776 4.648-7.007 9.206-13.132 12.832-17.24 4.945-5.602 8.015-7.47 10.268-6.25.752.406 1.635 1.324 1.567 3.386-.194 5.967-8.55 20.979-16.303 33.018s-17.816 25.7-22.886 28.04a4.1 4.1 0 0 1-1.735.42m37.668-61.878c-.63.22-2.4 1.193-6.173 5.476-3.155 3.583-6.967 8.634-11.024 14.611-5.533 8.157-10.897 17.093-14.712 24.52-4.765 9.326-5.323 12.745-5.323 13.84.994-.49 3.838-2.506 10.211-10.767 5.087-6.593 10.898-15.21 15.935-23.64 9.522-15.902 11.22-22.411 11.086-24.04"/><circle cx="66.313" cy="33.159" r="2.509" fill="#fff"/></g></svg>