<svg xmlns="http://www.w3.org/2000/svg" viewBox="0 0 64 64"><path fill="#2297fd" d="M5 20h36c1.662 0 3 1.338 3 3v36c0 1.662-1.338 3-3 3H5c-1.662 0-3-1.338-3-3V23c0-1.662 1.338-3 3-3"/><path d="M26.624 51h-9.232l-1.457 4H10l8.48-24h7.04L34 55h-5.935zm-7.76-5h6.272l-3.128-9.374z" opacity=".2"/><path fill="#fff" d="M26.624 50h-9.232l-1.457 4H10l8.48-24h7.04L34 54h-5.935zm-7.76-5h6.272l-3.128-9.374z"/><path fill="#fff" d="M5 20c-1.662 0-3 1.338-3 3v1c0-1.662 1.338-3 3-3h36c1.662 0 3 1.338 3 3v-1c0-1.662-1.338-3-3-3z" opacity=".2"/><path fill="#f3af3f" d="M23 2h36c1.662 0 3 1.338 3 3v36c0 1.662-1.338 3-3 3H23c-1.662 0-3-1.338-3-3V5c0-1.662 1.338-3 3-3"/><path d="M32 13v24h10.398q4.85 0 7.225-1.703Q52 33.592 52 30.119q0-2.265-1.107-3.824c-.738-1.04-1.778-1.91-3.123-2.295 1.052-.396 1.854-.846 2.408-1.66q.83-1.238.83-2.99 0-3.327-2.28-4.838Q46.469 13 41.407 13Zm6 4h3.21q1.373 0 2.081.648.709.634.709 1.852 0 1.234-.709 1.867t-2.08.633H38Zm0 10h3.447q1.785 0 2.668.752.885.736.885 2.225 0 1.519-.9 2.271-.884.752-2.653.752H38Z" opacity=".2"/><path fill="#fff" d="M32 12v24h10.398q4.85 0 7.225-1.703Q52 32.592 52 29.119q0-2.265-1.107-3.824c-.738-1.04-1.778-1.91-3.123-2.295 1.052-.396 1.854-.846 2.408-1.66q.83-1.238.83-2.99 0-3.327-2.28-4.838Q46.469 12 41.407 12Zm6 4h3.21q1.373 0 2.081.648.709.634.709 1.852 0 1.234-.709 1.867t-2.08.633H38Zm0 10h3.447q1.785 0 2.668.752.885.736.885 2.225 0 1.519-.9 2.271-.884.752-2.653.752H38Z"/><path fill="#fff" d="M23 2c-1.662 0-3 1.338-3 3v1c0-1.662 1.338-3 3-3h36c1.662 0 3 1.338 3 3V5c0-1.662-1.338-3-3-3z" opacity=".2"/><path d="M2 59v1c0 1.662 1.338 3 3 3h36c1.662 0 3-1.338 3-3v-1c0 1.662-1.338 3-3 3H5c-1.662 0-3-1.338-3-3" opacity=".2"/><path d="M20 41v1c0 1.662 1.338 3 3 3h36c1.662 0 3-1.338 3-3v-1c0 1.662-1.338 3-3 3H23c-1.662 0-3-1.338-3-3" opacity=".5"/></svg>