<svg xmlns="http://www.w3.org/2000/svg" xmlns:xlink="http://www.w3.org/1999/xlink" viewBox="0 0 96 96"><defs><linearGradient id="b" x1="50%" x2="50%" y1="0%" y2="100%"><stop offset="0%" stop-color="#525658"/><stop offset="100%" stop-color="#272a2c"/></linearGradient><filter id="a" width="128.6%" height="128.6%" x="-14.3%" y="-14.3%" filterUnits="objectBoundingBox"><feOffset dy="2" in="SourceAlpha" result="shadowOffsetOuter1"/><feGaussianBlur in="shadowOffsetOuter1" result="shadowBlurOuter1" stdDeviation="2"/><feColorMatrix in="shadowBlurOuter1" result="shadowMatrixOuter1" values="0 0 0 0 0 0 0 0 0 0 0 0 0 0 0 0 0 0 0.2 0"/><feMerge><feMergeNode in="shadowMatrixOuter1"/><feMergeNode in="SourceGraphic"/></feMerge></filter></defs><g fill="none" filter="url(#a)" transform="translate(6 6)"><circle cx="42" cy="42" r="42" fill="url(#b)"/><path fill="#91d931" d="M42 4c20.987 0 38 17.013 38 38S62.987 80 42 80 4 62.987 4 42 21.013 4 42 4m0 4C23.222 8 8 23.222 8 42s15.222 34 34 34 34-15.222 34-34S60.778 8 42 8"/><path fill="#8de006" d="M53 48c-6 0-9-3.674-9-6.578V29.005a2 2 0 1 1 4-.003V40c0 1.73 2 4 5 4s5.02-2.578 5.02-4V29.003c0-1.106.883-2.003 1.99-2.003 1.099 0 1.99.892 1.99 2v17.02C62 55.426 56 58 53 58c-6 0-7.33-1.69-8.449-2.574-.234-.185-.751-1.026-.151-2.226s2.008-.845 2.291-.666c2.974 1.884 11.329 2.892 11.329-6.514 0 0-1.02 1.98-5.02 1.98"/><path fill="#91d931" d="M31 26c4.97 0 9 4.925 9 11s-4.03 11-9 11-9-4.925-9-11 4.03-11 9-11m0 4c-2.761 0-5 3.134-5 7s2.239 7 5 7 5-3.134 5-7-2.239-7-5-7"/><path fill="#91d931" d="M22 38h4v20h-4z"/></g></svg>