<svg xmlns="http://www.w3.org/2000/svg" viewBox="0 0 64 64"><rect width="56" height="55.61" x="4" y="5.39" opacity=".2" rx="2.8" ry="2.78"/><rect width="56" height="55.61" x="4" y="4" fill="#eef4f7" rx="2.8" ry="2.78"/><path fill="#fff" d="M6.8 4C5.249 4 4 5.24 4 6.78v1.39c0-1.54 1.249-2.78 2.8-2.78h50.4c1.551 0 2.8 1.24 2.8 2.78V6.78C60 5.24 58.751 4 57.2 4Z" opacity=".2"/><path fill="none" stroke="#000" stroke-linecap="round" stroke-linejoin="round" stroke-width="3" d="M36.5 40.5v12h6m10-1s0 1-3 1-3-3.018-3-6c0-2.985 0-6 3-6s3 1 3 1m-27 6h6m-6 5v-9s0-3 3-3 3 3 3 3v9m16-29h6m0 6v-12m-6 12v-12m-11 11s1 1 3 1 3-1.5 3-3c0-6-6 0-6-6 0-1.5 1-3 3-3s3 1 3 1m-17 6h6m-6 5v-9s0-3 3-3 3 3 3 3v9" opacity=".1"/><path fill="none" stroke="#0051cb" stroke-linecap="round" stroke-linejoin="round" stroke-width="3" d="M36.5 39.5v12h6m10-1s0 1-3 1-3-3.018-3-6c0-2.985 0-6 3-6s3 1 3 1m-27 6h6m-6 5v-9s0-3 3-3 3 3 3 3v9m16-29h6m0 6v-12m-6 12v-12m-11 11s1 1 3 1 3-1.5 3-3c0-6-6 0-6-6 0-1.5 1-3 3-3s3 1 3 1m-17 6h6m-6 5v-9s0-3 3-3 3 3 3 3v9"/><path fill="none" stroke="#000" stroke-linecap="round" stroke-linejoin="round" stroke-width="4" d="M19 50s0 2-4 2-4-4-4-8 0-8 4-8 4 2 4 2m-8-17h8m0 8V13m-8 16V13" opacity=".1"/><path fill="none" stroke="#0051cb" stroke-linecap="round" stroke-linejoin="round" stroke-width="4" d="M19 49s0 2-4 2-4-4-4-8 0-8 4-8 4 2 4 2m-8-17h8m0 8V12m-8 16V12"/></svg>