<svg xmlns="http://www.w3.org/2000/svg" viewBox="0 0 64 64"><path d="M4 56v2c0 1.662 1.338 3 3 3h50c1.662 0 3-1.338 3-3v-2c0 1.662-1.338 3-3 3H7c-1.662 0-3-1.338-3-3" opacity=".2"/><rect width="56" height="56" x="-60" y="-60" fill="#e4e4e4" rx="3" ry="3" transform="rotate(90)scale(-1 1)"/><path fill="#fff" d="M7 4C5.338 4 4 5.338 4 7v1c0-1.662 1.338-3 3-3h50c1.662 0 3 1.338 3 3V7c0-1.662-1.338-3-3-3z" opacity=".2"/><path fill="#707070" fill-rule="evenodd" d="M6.8 60 32 34.8 57.2 60Z"/><path fill="#9f9f9f" fill-rule="evenodd" d="M60 57.2 34.8 32 60 6.8Z"/><path fill="#fff" fill-rule="evenodd" d="m34.476 29.4-4.953 4.953L55.05 59.877H57c1.662 0 3-1.338 3-3v-1.949z"/><path fill="#fff" fill-rule="evenodd" d="M55.05 4 4 55v1.95c0 1.661 1.338 3 3 3h1.95L60 8.75V6.8c0-1.662-1.339-3-3-3h-1.95z"/></svg>