<svg xmlns="http://www.w3.org/2000/svg" viewBox="0 0 64 64"><rect width="56" height="56" x="4" y="5" opacity=".2" rx="2.8" ry="2.8"/><rect width="56" height="56" x="4" y="4" fill="#3f3f3f" rx="2.8" ry="2.8"/><path d="M13 19v22h20v6h7V19H20Zm31 0v28h7V19Zm-24 7h13v8H20Z" opacity=".2"/><path fill="#fff" d="M13 18h7v22h-7z"/><path fill="#fff" d="M40 18v7H13v-7z"/><path fill="#fff" d="M40 46h-7V18h7z"/><path fill="#fff" d="M40 33v7H13v-7zm11 13h-7V18h7z"/><path fill="#fff" d="M6.8 4C5.25 4 4 5.25 4 6.8v1C4 6.25 5.25 5 6.8 5h50.4C58.75 5 60 6.25 60 7.8v-1C60 5.25 58.75 4 57.2 4z" opacity=".1"/></svg>