<svg xmlns="http://www.w3.org/2000/svg" viewBox="0 0 64 64"><rect width="48" height="38" x="8" y="14" fill="#a7abad" ry="0"/><rect width="6" height="3" x="40" y="42" fill="#e4e4e4" ry="1"/><path d="M6.4 5C5.625 5 5 5.625 5 6.4v11.2c0 .775.625 1.4 1.4 1.4h51.2c.775 0 1.4-.625 1.4-1.4V6.4c0-.775-.625-1.4-1.4-1.4zm0 39c-.775 0-1.4.625-1.4 1.4v14.2c0 .775.625 1.4 1.4 1.4h51.2c.775 0 1.4-.625 1.4-1.4V45.4c0-.775-.625-1.4-1.4-1.4z" opacity=".2"/><rect width="54" height="14" x="5" y="4" fill="#e31c1c" ry="1.4"/><rect width="28" height="21" x="18" y="20" fill="#4f4f4f" ry="2.8"/><rect width="6" height="3" x="48" y="42" fill="#e4e4e4" ry="1"/><path fill="#666" d="M14 36h2v7h-2z"/><rect width="6" height="3" x="12" y="42" fill="gray" ry=".8"/><rect width="54" height="17" x="5" y="43" fill="#e31c1c" ry="1.4"/><circle cx="15" cy="36" r="4" opacity=".1"/><circle cx="15" cy="35" r="4" fill="#4f4f4f"/><path fill="#fff" d="M6.4 4C5.625 4 5 4.625 5 5.4v1C5 5.625 5.625 5 6.4 5h51.2c.775 0 1.4.625 1.4 1.4v-1c0-.775-.625-1.4-1.4-1.4zm0 39c-.775 0-1.4.625-1.4 1.4v1c0-.775.625-1.4 1.4-1.4h51.2c.775 0 1.4.625 1.4 1.4v-1c0-.775-.625-1.4-1.4-1.4z" opacity=".2"/><path fill="#fff" fill-rule="evenodd" d="M35 23 21 37h7l5-5v5l6-5v5l4-4V23l-8 7z"/></svg>