<svg xmlns="http://www.w3.org/2000/svg" xmlns:xlink="http://www.w3.org/1999/xlink" viewBox="0 0 96 96"><defs><linearGradient id="a" x1="50%" x2="50%" y1="0%" y2="100%"><stop offset="0%" stop-color="#aaa"/><stop offset="100%" stop-color="#999"/></linearGradient><linearGradient id="b" x1="50%" x2="50%" y1="0%" y2="100%"><stop offset="0%" stop-color="#5fc7d7"/><stop offset="100%" stop-color="#3fa6bf"/></linearGradient><linearGradient id="g" x1="50%" x2="50%" y1="0%" y2="100%"><stop offset="0%" stop-color="#00bdd5"/><stop offset="100%" stop-color="#08a"/></linearGradient><path id="e" fill="url(#a)" d="M13 0v27q-9.5-2.5-9.5-13.5T13 0"/><path id="f" fill="url(#b)" d="M2 13.5c0 5.14 2.154 9.776 5.609 13.056C3.066 23.978 0 19.097 0 13.5S3.066 3.022 7.61.444A17.95 17.95 0 0 0 2 13.5"/><filter id="d" width="132.9%" height="132.9%" x="-16.4%" y="-16.4%" filterUnits="objectBoundingBox"><feOffset dy="2" in="SourceAlpha" result="shadowOffsetOuter1"/><feGaussianBlur in="shadowOffsetOuter1" result="shadowBlurOuter1" stdDeviation="2"/><feComposite in="shadowBlurOuter1" in2="SourceAlpha" operator="out" result="shadowBlurOuter1"/><feColorMatrix in="shadowBlurOuter1" result="shadowMatrixOuter1" values="0 0 0 0 0 0 0 0 0 0 0 0 0 0 0 0 0 0 0.2 0"/><feMerge><feMergeNode in="shadowMatrixOuter1"/><feMergeNode in="SourceGraphic"/></feMerge></filter></defs><g fill="none" fill-rule="evenodd" filter="url(#d)" transform="translate(9 12)"><use xlink:href="#e" transform="matrix(-1 0 0 1 67 16.5)"/><use xlink:href="#f" transform="matrix(-1 0 0 1 67 16.5)"/><path fill="url(#g)" d="M43.5 0C59.792 0 73 10 73 33c0 16.408-6.721 25.945-16.49 30.064L65.5 73h-11l-7.2-7.68a39 39 0 0 1-3.8.18c-16.292 0-29-10.5-29-34.5 0-18.5 12.708-31 29-31m0 7C31.246 7 23 17.378 23 31.5c0 18.32 8.246 27 20.5 27s21-7.943 21-25.5-8.746-26-21-26"/><use xlink:href="#e" transform="translate(0 16.5)"/><use xlink:href="#f" transform="translate(0 16.5)"/></g></svg>