<svg xmlns="http://www.w3.org/2000/svg" viewBox="0 0 64 64"><circle cx="32" cy="33" r="28" opacity=".2"/><circle cx="32" cy="32" r="28" fill="#3f3f3f"/><circle cx="32" cy="33" r="22" opacity=".2"/><path fill="#ffbd2d" d="M32.001 10a21.9 21.9 0 0 0-15.542 6.459 21.93 21.93 0 0 0 0 31.082A21.9 21.9 0 0 0 32.001 54z"/><path fill="#42d973" d="M32 10a21.9 21.9 0 0 1 15.542 6.459 21.93 21.93 0 0 1 0 31.082A21.9 21.9 0 0 1 32 54z"/><path fill="#3b9fff" d="m32 32 15.542 15.542a21.93 21.93 0 0 0 0-31.084z"/><path fill="#eb3b3b" d="M32 32 16.458 16.458a21.93 21.93 0 0 0 0 31.084z"/><circle cx="32" cy="32" r="12" fill="#3f3f3f"/><circle cx="36" cy="26" r="4" fill="#fff"/><circle cx="32" cy="32" r="3" fill="#fff"/><path fill="#fff" d="M32 4A28 28 0 0 0 4 32a28 28 0 0 0 .033.482A28 28 0 0 1 32 5a28 28 0 0 1 27.982 27.242L60 32A28 28 0 0 0 32 4" opacity=".1"/><path fill="#fff" d="M32 10a22 22 0 0 0-22 22 22 22 0 0 0 .033.482A22 22 0 0 1 32 11a22 22 0 0 1 21.982 21.238L54 32a22 22 0 0 0-22-22" opacity=".2"/></svg>