<svg xmlns="http://www.w3.org/2000/svg" viewBox="0 0 64 64"><path d="M12.313 11c-.528 0-1.03.217-1.395.601l-7.383 7.782a1.9 1.9 0 0 0-.433.808l-.016-.008a2 2 0 0 0-.086.543v29.735c0 1.945 1.254 3.455 2.36 4.011 1.105.557 2.152.528 2.152.528h44.172c.528 0 1.034-.221 1.398-.606l7.387-7.777c.021-.023.027-.055.047-.078.156-.182.28-.387.359-.61.003-.007.01-.012.012-.02l-.008-.003c.07-.203.121-.414.121-.633V15.54c0-1.945-1.254-3.452-2.36-4.008S56.489 11 56.489 11z" opacity=".2"/><path fill="#4cdb5d" d="M12.314 10c-.528 0-1.033.219-1.397.603l-7.383 7.78A1.95 1.95 0 0 0 3 19.725l5.683 14.806c.698 1.817-2.979 14.53-1.873 15.086 1.105.556 5.857-2.492 5.857-2.492L48.57 48.5c.528 0 2.398-.99 2.762-1.375l9.133-1.508c.343-.362.534-.843.534-1.343V14.54c0-1.945-1.253-3.453-2.359-4.01-1.104-.556-2.15-.53-2.15-.53Z"/><path fill="#31ae3e" d="M3.085 19.183a2 2 0 0 0-.085.543V49.46c0 1.945 1.253 3.455 2.358 4.012S7.511 54 7.511 54h44.174a1.93 1.93 0 0 0 1.398-.604l7.384-7.78c.192-.203.33-.445.42-.705z"/><path d="M3.086 19.184a2 2 0 0 0-.086.543v1c0-.186.035-.368.086-.543l57.31 25.507.073-.074c.192-.203.328-.447.418-.707z" opacity=".1"/><path d="M44.703 21.012c-4.822 0-8.703 3.866-8.703 8.668v6.664c0 4.801 3.881 8.668 8.703 8.668h1.34A8.66 8.66 0 0 0 50 44.043v-3.031h-5.297c-2.666 0-4.687-2.014-4.687-4.668V29.68c0-2.655 2.021-4.668 4.687-4.668H50V21.98a8.66 8.66 0 0 0-3.957-.968zm-22.348.05c-4.63 0-8.355 3.849-8.355 8.63v6.636c0 4.78 3.726 8.629 8.355 8.629h1.29c.371 0 .73-.034 1.09-.082L27.397 49l3.286-1.687-2.305-3.872C30.568 41.89 32 39.29 32 36.328v-6.637c0-4.78-3.726-8.628-8.355-8.628zm.02 3.95h1.25c2.489 0 4.375 2.013 4.375 4.668v6.664c0 2.654-1.886 4.668-4.375 4.668h-1.25c-2.489 0-4.375-2.014-4.375-4.668V29.68c0-2.655 1.886-4.668 4.375-4.668" opacity=".2"/><path fill="#fff" d="M44.703 20C39.881 20 36 23.867 36 28.668v6.664C36 40.133 39.881 44 44.703 44h1.34A8.66 8.66 0 0 0 50 43.031V40h-5.297c-2.666 0-4.687-2.013-4.687-4.668v-6.664c0-2.655 2.021-4.668 4.687-4.668H50v-3.031A8.66 8.66 0 0 0 46.043 20zm-22.348.05c-4.63 0-8.355 3.85-8.355 8.63v6.636c0 4.78 3.726 8.63 8.355 8.63h1.29c.371 0 .73-.035 1.09-.083l2.663 4.125 3.286-1.687-2.305-3.871C30.568 40.877 32 38.277 32 35.316V28.68c0-4.78-3.726-8.63-8.355-8.63zm.02 3.95h1.25C26.114 24 28 26.013 28 28.668v6.664C28 37.987 26.114 40 23.625 40h-1.25C19.886 40 18 37.987 18 35.332v-6.664C18 26.013 19.886 24 22.375 24"/><path fill="#fff" d="M12.313 10c-.528 0-1.03.217-1.395.602l-7.383 7.78a1.9 1.9 0 0 0-.433.81l-.016-.008a2 2 0 0 0-.086.543v1c0-.186.035-.368.086-.543l.016.007a1.9 1.9 0 0 1 .433-.808l7.383-7.781A1.92 1.92 0 0 1 12.313 11h44.175s1.047-.025 2.153.531C59.746 12.087 61 13.594 61 15.54v-1c0-1.945-1.254-3.452-2.36-4.008S56.489 10 56.489 10z" opacity=".2"/></svg>