<svg xmlns="http://www.w3.org/2000/svg" xmlns:xlink="http://www.w3.org/1999/xlink" viewBox="0 0 96 96"><defs><linearGradient id="b" x1="50%" x2="50%" y1="0%" y2="100%"><stop offset="0%" stop-color="#444"/><stop offset="100%"/></linearGradient><linearGradient id="c" x1="50%" x2="50%" y1="0%" y2="100%"><stop offset="0%" stop-color="#ff5252"/><stop offset="100%" stop-color="red"/></linearGradient><filter id="a" width="132%" height="134.8%" x="-16%" y="-17.4%" filterUnits="objectBoundingBox"><feOffset dy="2" in="SourceAlpha" result="shadowOffsetOuter1"/><feGaussianBlur in="shadowOffsetOuter1" result="shadowBlurOuter1" stdDeviation="2"/><feComposite in="shadowBlurOuter1" in2="SourceAlpha" operator="out" result="shadowBlurOuter1"/><feColorMatrix in="shadowBlurOuter1" result="shadowMatrixOuter1" values="0 0 0 0 0 0 0 0 0 0 0 0 0 0 0 0 0 0 0.2 0"/><feMerge><feMergeNode in="shadowMatrixOuter1"/><feMergeNode in="SourceGraphic"/></feMerge></filter></defs><g fill="none" fill-rule="evenodd" filter="url(#a)" transform="translate(10 14)"><path fill="url(#b)" fill-rule="nonzero" d="M37.475 33.521 50.209 68.35l-2.046.036-1.007-2.738-17.553-1.42-1.338 4.122h-1.993l1.782-5.54.001-.006h.001zm6.92 24.62-10.579 4.422 12.58 1.018zm-11.803-3.118-2.21 6.807 11.115-4.646zm8.441-6.027-6.672 4.4 9.101 2.207zm-5.53-2.934-1.729 5.323 5.632-3.712zm2.088-6.427-1.468 4.52 3.69 1.523z"/><path fill="url(#c)" d="M22.406 1.26c2.023 4.444-13.887 10.323-16.07 28.096-2.184 17.773 17.78 29.902 16.07 34.762C20.336 69.996-3.687 50.84.486 27.702 4.798 3.79 20.382-3.185 22.406 1.26m29.825 0c2.023-4.445 17.608 2.53 21.92 26.442C78.323 50.84 54.3 69.996 52.23 64.118c-1.712-4.86 18.253-16.99 16.07-34.762C66.116 11.583 50.206 5.704 52.23 1.259m-25.034 9.746c1.344 2.932-9.269 7.082-11.118 18.845-1.848 11.762 12.254 20.873 11.118 24.079-1.375 3.877-18.486-9.51-15.024-24.733 3.388-14.895 13.68-21.122 15.024-18.19m20.243 0c1.344-2.931 11.635 3.296 15.023 18.191C65.926 44.42 48.814 57.807 47.44 53.93c-1.137-3.206 12.966-12.317 11.117-24.08S46.096 13.939 47.44 11.007m-16.375 8.312c.806 1.773-5.889 5.043-6.759 12.132s7.773 12.041 6.759 14.267c-.923 2.026-11-5.862-9.338-15.09 1.718-9.537 8.531-13.082 9.338-11.309m12.507 0c.806-1.773 7.619 1.772 9.337 11.309 1.663 9.228-8.414 17.116-9.337 15.09-1.014-2.226 7.628-7.179 6.758-14.267-.87-7.089-7.565-10.36-6.758-12.132m-10.082 5.95c.506 1.3-2.373 2.44-3.319 6.366-.945 3.927 4.712 6.503 3.84 8.107-.655 1.208-6.697-3.61-5.3-8.687 1.207-4.389 4.274-7.085 4.78-5.786m7.656 0c.505-1.299 3.573 1.397 4.78 5.786 1.396 5.076-4.645 9.895-5.301 8.687-.871-1.604 4.786-4.18 3.84-8.107s-3.824-5.067-3.319-6.366m-3.613 3.31a4 4 0 1 1 0 8 4 4 0 0 1 0-8"/></g></svg>