<svg xmlns="http://www.w3.org/2000/svg" xmlns:xlink="http://www.w3.org/1999/xlink" viewBox="0 0 96 96"><defs><linearGradient id="b" x1="50%" x2="50%" y1="0%" y2="100%"><stop offset="0%" stop-color="#eee"/><stop offset="100%" stop-color="#d8d8d8"/></linearGradient><linearGradient id="e" x1="50%" x2="50%" y1="0%" y2="100%"><stop offset="0%" stop-color="#eee"/><stop offset="100%" stop-color="#d8d8d8"/></linearGradient><linearGradient id="g" x1="50%" x2="50%" y1="0%" y2="98.699%"><stop offset="0%" stop-color="#41bff1"/><stop offset="100%" stop-color="#1a89db"/></linearGradient><filter id="a" width="130.4%" height="130.8%" x="-15.2%" y="-15.4%" filterUnits="objectBoundingBox"><feOffset dy="2" in="SourceAlpha" result="shadowOffsetOuter1"/><feGaussianBlur in="shadowOffsetOuter1" result="shadowBlurOuter1" stdDeviation="2"/><feColorMatrix in="shadowBlurOuter1" result="shadowMatrixOuter1" values="0 0 0 0 0 0 0 0 0 0 0 0 0 0 0 0 0 0 0.2 0"/><feMerge><feMergeNode in="shadowMatrixOuter1"/><feMergeNode in="SourceGraphic"/></feMerge></filter><filter id="f" width="105.1%" height="105.1%" x="-2.6%" y="-2.6%" filterUnits="objectBoundingBox"><feGaussianBlur in="SourceAlpha" result="shadowBlurInner1" stdDeviation="1.5"/><feOffset dx="1" dy="1" in="shadowBlurInner1" result="shadowOffsetInner1"/><feComposite in="shadowOffsetInner1" in2="SourceAlpha" k2="-1" k3="1" operator="arithmetic" result="shadowInnerInner1"/><feColorMatrix in="shadowInnerInner1" result="shadowMatrixInner1" values="0 0 0 0 1 0 0 0 0 1 0 0 0 0 1 0 0 0 0.54 0"/><feGaussianBlur in="SourceAlpha" result="shadowBlurInner2" stdDeviation="1.5"/><feOffset dx="-1" dy="-1" in="shadowBlurInner2" result="shadowOffsetInner2"/><feComposite in="shadowOffsetInner2" in2="SourceAlpha" k2="-1" k3="1" operator="arithmetic" result="shadowInnerInner2"/><feColorMatrix in="shadowInnerInner2" result="shadowMatrixInner2" values="0 0 0 0 0 0 0 0 0 0 0 0 0 0 0 0 0 0 0.1 0"/><feMerge><feMergeNode in="shadowMatrixInner1"/><feMergeNode in="shadowMatrixInner2"/></feMerge></filter><filter id="h" width="148.5%" height="204.3%" x="-24%" y="-52.2%" filterUnits="objectBoundingBox"><feOffset dy="2" in="SourceAlpha" result="shadowOffsetOuter1"/><feGaussianBlur in="shadowOffsetOuter1" result="shadowBlurOuter1" stdDeviation="2"/><feColorMatrix in="shadowBlurOuter1" result="shadowMatrixOuter1" values="0 0 0 0 0 0 0 0 0 0 0 0 0 0 0 0 0 0 0.18 0"/><feMerge><feMergeNode in="shadowMatrixOuter1"/><feMergeNode in="SourceGraphic"/></feMerge></filter><path id="c" d="M39 0c21.54 0 39 17.46 39 39S60.54 78 39 78 0 60.54 0 39 17.46 0 39 0m0 10c-16.016 0-29 12.984-29 29s12.984 29 29 29 29-12.984 29-29-12.984-29-29-29"/></defs><g fill="none" fill-rule="evenodd" filter="url(#a)" transform="translate(8 9)"><path fill="url(#b)" d="M57.097 72.06 59.578 63H69l8.598 10.105a1 1 0 0 1-.762 1.648H59.578z"/><use xlink:href="#c" fill="url(#e)"/><use xlink:href="#c" fill="#000" filter="url(#f)"/><circle cx="39" cy="39" r="29" fill="url(#g)"/><g fill-rule="nonzero" filter="url(#h)" transform="translate(13.5 27.5)"><path fill="#fff" stroke="#fff" d="M18.1 22.04q1.05 0 1.89-.36t1.44-.99q1.23-1.23 1.23-3.24H19.6q-.06.51-.345 1.02t-1.155.51q-.69 0-1.095-.39t-.405-1.11v-2.07h6.06v-4.2q0-2.04-1.2-3.39-.6-.63-1.455-.99T18.1 6.47q-1.44 0-2.445.6T14.11 8.66q-.33.6-.45 1.38t-.12 1.71v5.01q0 .93.12 1.71t.45 1.38q.54.99 1.545 1.59t2.445.6Zm1.5-9.03h-3v-1.74q0-.87.405-1.305T18.1 9.53t1.095.435.405 1.305zm8.96 8.88v-9.03q0-.93.3-1.56t.78-1.02q.45-.39 1.005-.555t1.035-.165.93.18V6.5q-1.32 0-2.22.48T28.56 8.3V6.68H25.5v15.21zm9 0V11.66q0-1.02.33-1.56t1.2-.54q.72 0 1.11.48t.39 1.32v10.53h3.06V11.66q0-1.02.33-1.56t1.2-.54q.72 0 1.11.48t.39 1.32v10.53h3.06V10.22q0-1.02-.3-1.725t-.78-1.155-1.08-.645-1.17-.195q-1.23 0-1.92.45t-1.26 1.08q-.42-.57-1.08-1.05T40.5 6.5q-1.05 0-1.725.465A4.4 4.4 0 0 0 37.62 8.15h-.06V6.68H34.5v15.21z"/><path fill="#ffc002" d="M12.14 0H0v3.88l3.54-.001V22.36H8.6V3.879l3.54.001z"/></g></g></svg>