<svg xmlns="http://www.w3.org/2000/svg" xmlns:xlink="http://www.w3.org/1999/xlink" viewBox="0 0 96 96"><defs><linearGradient id="b" x1="50%" x2="50%" y1="0%" y2="100%"><stop offset="0%" stop-color="#bae04e"/><stop offset="100%" stop-color="#e2f7a9"/></linearGradient><filter id="a" width="130.8%" height="129.3%" x="-15.4%" y="-14.6%" filterUnits="objectBoundingBox"><feOffset dy="2" in="SourceAlpha" result="shadowOffsetOuter1"/><feGaussianBlur in="shadowOffsetOuter1" result="shadowBlurOuter1" stdDeviation="2"/><feColorMatrix in="shadowBlurOuter1" result="shadowMatrixOuter1" values="0 0 0 0 0 0 0 0 0 0 0 0 0 0 0 0 0 0 0.2 0"/><feMerge><feMergeNode in="shadowMatrixOuter1"/><feMergeNode in="SourceGraphic"/></feMerge></filter></defs><g fill="none" fill-rule="evenodd" filter="url(#a)" transform="translate(9 7)"><path fill="url(#b)" d="M37 0h4c20.435 0 37 16.565 37 37v9c0 19.882-16.118 36-36 36h-6C16.118 82 0 65.882 0 46v-9C0 16.565 16.565 0 37 0"/><path fill="#fff" d="M38.5 18C48.556 18 56 28.124 56 40c0 8.73-4.022 16.512-10.147 20.023L52.5 68H46l-5.338-6.16Q39.603 62 38.5 62C28.444 62 21 51.876 21 40s7.444-22 17.5-22m0 5C31.596 23 26 30.611 26 40s5.596 17 12.5 17S51 49.389 51 40s-5.596-17-12.5-17m.5 7a4 4 0 0 1 4 4v13a4 4 0 1 1-8 0V34a4 4 0 0 1 4-4"/></g></svg>