<svg xmlns="http://www.w3.org/2000/svg" viewBox="0 0 64 64"><circle cx="31.5" cy="32.5" r="28.5" opacity=".2"/><circle cx="31.5" cy="31.5" r="28.5" fill="#86c14d"/><path d="M24.208 16.618A17.5 17.5 0 0 0 14 32.5 17.5 17.5 0 0 0 31.5 50 17.5 17.5 0 0 0 49 32.5a17.5 17.5 0 0 0-10.208-15.87v.341a14.58 14.58 0 0 1 7.291 12.612A14.583 14.583 0 0 1 31.5 44.167a14.583 14.583 0 0 1-14.583-14.584 14.58 14.58 0 0 1 7.291-12.606Z" opacity=".2"/><path fill="#3f3f3f" d="M24.208 15.618A17.5 17.5 0 0 0 14 31.5 17.5 17.5 0 0 0 31.5 49 17.5 17.5 0 0 0 49 31.5a17.5 17.5 0 0 0-10.208-15.87v.341a14.58 14.58 0 0 1 7.291 12.612A14.583 14.583 0 0 1 31.5 43.167a14.583 14.583 0 0 1-14.583-14.584 14.58 14.58 0 0 1 7.291-12.606Z"/><path d="M29 41v14.375L31.5 64l2.5-8.625V41l-2.5-7z" opacity=".2"/><path fill="#3f3f3f" d="M29 40v14.375L31.5 63l2.5-8.625V40l-2.5-7z"/><path fill="#fff" d="M31.5 3A28.5 28.5 0 0 0 3 31.5a29 29 0 0 0 .021.582A28.5 28.5 0 0 1 31.5 4a28.5 28.5 0 0 1 28.479 27.918L60 31.5A28.5 28.5 0 0 0 31.5 3" opacity=".1"/></svg>