<svg xmlns="http://www.w3.org/2000/svg" xmlns:xlink="http://www.w3.org/1999/xlink" viewBox="0 0 96 96"><defs><linearGradient id="c" x1="3.543%" x2="100%" y1="40.102%" y2="40.102%"><stop offset="0%" stop-color="#218bd6"/><stop offset="13.233%" stop-color="#44b6fb"/><stop offset="33.767%" stop-color="#93e6ff"/><stop offset="61.111%" stop-color="#41b2f9"/><stop offset="100%" stop-color="#035cbe"/></linearGradient><linearGradient id="i" x1="9.55%" x2="100%" y1="25.229%" y2="55.851%"><stop offset="0%" stop-color="#1f7fcb"/><stop offset="56.935%" stop-color="#2183e1"/><stop offset="100%" stop-color="#043c80"/></linearGradient><linearGradient id="j" x1="12.313%" x2="98.914%" y1="1.317%" y2="61.81%"><stop offset="0%" stop-color="#fff" stop-opacity=".147"/><stop offset="100%" stop-color="#fff" stop-opacity="0"/></linearGradient><linearGradient id="m" x1="46.181%" x2="50%" y1="0%" y2="100%"><stop offset="0%" stop-color="#fff" stop-opacity=".427"/><stop offset="100%" stop-color="#fff" stop-opacity=".055"/></linearGradient><linearGradient id="n" x1="6.818%" x2="87.867%" y1="51.618%" y2="56.643%"><stop offset="0%" stop-color="#fff" stop-opacity=".673"/><stop offset="100%" stop-color="#fff" stop-opacity="0"/></linearGradient><filter id="a" width="130.8%" height="130.8%" x="-15.4%" y="-15.4%" filterUnits="objectBoundingBox"><feOffset dy="2" in="SourceAlpha" result="shadowOffsetOuter1"/><feGaussianBlur in="shadowOffsetOuter1" result="shadowBlurOuter1" stdDeviation="2"/><feColorMatrix in="shadowBlurOuter1" result="shadowMatrixOuter1" values="0 0 0 0 0 0 0 0 0 0 0 0 0 0 0 0 0 0 0.2 0"/><feMerge><feMergeNode in="shadowMatrixOuter1"/><feMergeNode in="SourceGraphic"/></feMerge></filter><filter id="e" width="102.7%" height="105.9%" x="-1.3%" y="-3%" filterUnits="objectBoundingBox"><feGaussianBlur in="SourceAlpha" result="shadowBlurInner1" stdDeviation=".5"/><feOffset dy="1" in="shadowBlurInner1" result="shadowOffsetInner1"/><feComposite in="shadowOffsetInner1" in2="SourceAlpha" k2="-1" k3="1" operator="arithmetic" result="shadowInnerInner1"/><feColorMatrix in="shadowInnerInner1" values="0 0 0 0 0.537254902 0 0 0 0 0.878431373 0 0 0 0 0.996078431 0 0 0 0.37 0"/></filter><filter id="h" width="103.8%" height="104.4%" x="-1.9%" y="-2.2%" filterUnits="objectBoundingBox"><feGaussianBlur in="SourceAlpha" result="shadowBlurInner1" stdDeviation="1"/><feOffset dy="-1" in="shadowBlurInner1" result="shadowOffsetInner1"/><feComposite in="shadowOffsetInner1" in2="SourceAlpha" k2="-1" k3="1" operator="arithmetic" result="shadowInnerInner1"/><feColorMatrix in="shadowInnerInner1" result="shadowMatrixInner1" values="0 0 0 0 0.0352941176 0 0 0 0 0.28627451 0 0 0 0 0.556862745 0 0 0 0.61 0"/><feGaussianBlur in="SourceAlpha" result="shadowBlurInner2" stdDeviation=".5"/><feOffset dy="1" in="shadowBlurInner2" result="shadowOffsetInner2"/><feComposite in="shadowOffsetInner2" in2="SourceAlpha" k2="-1" k3="1" operator="arithmetic" result="shadowInnerInner2"/><feColorMatrix in="shadowInnerInner2" result="shadowMatrixInner2" values="0 0 0 0 0.57254902 0 0 0 0 0.898039216 0 0 0 0 1 0 0 0 0.5 0"/><feMerge><feMergeNode in="shadowMatrixInner1"/><feMergeNode in="shadowMatrixInner2"/></feMerge></filter><filter id="k" width="152.9%" height="152.9%" x="-26.5%" y="-26.5%" filterUnits="objectBoundingBox"><feOffset dy="2" in="SourceAlpha" result="shadowOffsetOuter1"/><feGaussianBlur in="shadowOffsetOuter1" result="shadowBlurOuter1" stdDeviation="1"/><feColorMatrix in="shadowBlurOuter1" result="shadowMatrixOuter1" values="0 0 0 0 0 0 0 0 0 0 0 0 0 0 0 0 0 0 0.12 0"/><feMerge><feMergeNode in="shadowMatrixOuter1"/><feMergeNode in="SourceGraphic"/></feMerge></filter><radialGradient id="g" cx="50%" cy="52.89%" r="60.46%" fx="50%" fy="52.89%" gradientTransform="matrix(.8718 0 0 .83557 .064 .087)"><stop offset="0%" stop-color="#191c1f"/><stop offset="60.614%" stop-color="#0f7ac6"/><stop offset="77.49%" stop-color="#3dacf6"/><stop offset="100%" stop-color="#49beff"/></radialGradient><radialGradient id="l" cx="50%" cy="72.275%" r="100%" fx="50%" fy="72.275%"><stop offset="0%" stop-color="#47a6f3"/><stop offset="100%" stop-color="#2c48c7"/></radialGradient><path id="b" d="M2.177 33.729q4.994-11.09 8.826-17.6C14.836 9.62 24.66 0 39.348 0s23.815 9.121 26.145 12.993q2.331 3.871 10.812 20.736-9.276-13.534-18.007-16.864c-8.731-3.331-23.564-3.872-35.773 0q-12.207 3.87-20.348 16.864"/><path id="f" d="M39 10c21.54 0 39 15.222 39 34S60.54 78 39 78 0 62.778 0 44s17.46-34 39-34m0 11c-16.016 0-29 11.193-29 25s12.984 25 29 25 29-11.193 29-25-12.984-25-29-25"/></defs><g fill="none" fill-rule="evenodd" filter="url(#a)" transform="translate(9 9)"><use xlink:href="#b" fill="url(#c)"/><use xlink:href="#b" fill="#000" filter="url(#e)"/><use xlink:href="#f" fill="url(#g)"/><use xlink:href="#f" fill="#000" filter="url(#h)"/><path fill="url(#i)" d="M16.55 30.176Q21.27 48.293 39 48.293q17.399 0 23.07-17.443C65.79 35.052 68 40.304 68 46c0 13.807-12.984 25-29 25S10 59.807 10 46c0-5.937 2.4-11.39 6.41-15.679Z"/><path fill="url(#j)" d="m16.394 30.34.257.215-.102-.38q4.197 16.11 18.681 17.896 9.374 10.82 2.386 12.449C27.591 62.857 15.8 57.967 10.75 51.673A21.8 21.8 0 0 1 10 46c0-5.78 2.276-11.103 6.098-15.338Z"/><g filter="url(#k)" transform="translate(30 31)"><circle cx="17" cy="17" r="17.5" fill="url(#l)" stroke="#1d58af" opacity=".953"/><path fill="url(#m)" d="M15.265 22.085q.47.46 2.106 1.028l2.137.566 1.19.788h1.725l1.642 1.17h.742l-.742 1.526-.795 1.574-.085.168-.028.056.513.646q.513.154 0 .555-.513.4-1.247 1.814v.72h-2.915q-.99-1.561-1.564 0-.328.895-.883 1.306L17 34q-.677 0-1.341-.052l-.394-.35-1.95.001-.141-.031.509-1.592.518-1.414-1.037-.4v-1.2l-1.027-1.8v-1.525l.527-1.17.5-1.354 1.037-1.028q.594-.46 1.064 0M31.845 9l.723 1.16A16.9 16.9 0 0 1 34 17c0 3.227-.9 6.244-2.46 8.814h-.827l1.131-1.756.803-1.432v-1.548l-.803-.774v-.734l-1.13 1.508-2.012-1.508-.583-3.376.516-1.74.067-.223 1.21-1.286v-1.81h1.37zm-19.1-6.15-.608 1.088.607 1.744h.995l-1.602 1.091h3.168v1.099l-1.566.559L12.137 9l1.602 1.228h3.397l1.336 1.413-1.336 1.357h-1.085l-.746.962q.746.677 1.831.677 1.012 0 1.299 1.042l.037.155v2.793l-2.42 1.103v-1.103h-1.473l-2.442 1.103v2.125h-.88L10.092 20.8v-1.07h-.955q0-3.276.955-3.277.913 0-.794-.567l-.16-.052L8.5 17.71v2.02l-.701-1.103-1.631-1.971L6 16.453l.764-2.493 1.035-3.732v-.572L9.137 8.43v-.56l.955-1.098v-1.09L9.137 2.85zM17 0c4.987 0 9.473 2.148 12.583 5.569l.874 2h-.816l-.694.73-.828 1.397q.369 2.976 0 2.825-.37-.15-1.714-3.521V6.925L24.058 5.49h-.806l-1.6 1.434h-1.389L19.715 9l.548.696h-1.79L17.828 8.3l.643-1.374V4.738h-2.744l.767.753v2.808l-.767-.73v-.644l-.423-.152V4.738l-.708-.706q-.707-1.182 0-1.182h1.898l1.334-.63h-2.524l-1.67-1.159.962-.598q.18-.183.358-.34Q15.961 0 17 0"/><path fill="url(#n)" d="M17 0c5.476 0 10.348 2.59 13.457 6.611v.48q-8.512-3.681-16.32-1.929Q7.737 6.6.862 11.644C3.105 4.88 9.482 0 17 0" opacity=".62"/></g></g></svg>