<svg xmlns="http://www.w3.org/2000/svg" viewBox="0 0 64 64"><path fill="#00e600" d="M32.156 4.002a6.8 6.8 0 0 0-3.454.85L9.298 15.667C7.258 16.804 6 18.907 6 21.181v21.634c0 2.274 1.257 4.376 3.298 5.514l19.405 10.816c1.05.586 2.226.87 3.398.853 1.105-.017.869-1.227 1.859-1.779l19.302-10.61c2.041-1.138 3.71-2.212 3.71-4.488V21.592c0-.774.883-1.94.61-2.641a6.43 6.43 0 0 0-2.88-3.285L35.299 4.849A6.8 6.8 0 0 0 32.156 4z"/><path fill="#00bc00" d="M6.524 18.715A6.595 6.367 0 0 0 6 21.182v21.633a6.595 6.367 0 0 0 3.297 5.515l19.407 10.817a6.595 6.367 0 0 0 3.296.847V32.25z"/><path fill="#009200" d="M57.483 18.712 32 32.249v27.744a6.595 6.367 0 0 0 3.297-.847l19.405-10.817A6.595 6.367 0 0 0 58 42.812V21.18a6.595 6.367 0 0 0-.517-2.469"/><path fill="#fff" d="M32.156 4.002a6.595 6.372 0 0 0-3.452.852L9.296 15.678a6.595 6.372 0 0 0-3.297 5.52v1.001a6.595 6.372 0 0 1 3.297-5.521L28.704 5.854a6.595 6.372 0 0 1 3.452-.852 6.595 6.372 0 0 1 3.14.852l19.407 10.824a6.595 6.372 0 0 1 3.296 5.521v-1.001a6.595 6.372 0 0 0-3.296-5.52L35.296 4.854a6.595 6.372 0 0 0-3.139-.852" opacity=".2"/><path d="M6 41.802a6.595 6.372 0 0 0 .002.073v-.073zm.002 1v1a6.595 6.372 0 0 0 3.297 5.517l19.407 10.828a6.595 6.372 0 0 0 6.594 0l19.405-10.828a6.595 6.372 0 0 0 3.296-5.518v-1a6.595 6.372 0 0 1-3.296 5.518L35.299 59.147a6.595 6.372 0 0 1-6.594 0L9.299 48.319a6.595 6.372 0 0 1-3.297-5.518" opacity=".2"/><path fill="#fff" d="M6.524 18.715A6.595 6.367 0 0 0 6 21.182v1a6.595 6.367 0 0 1 .524-2.467L32 33.25v-1z" opacity=".2"/><path fill="#fff" d="M57.483 18.712 32 32.249v1l25.483-13.537A6.595 6.367 0 0 1 58 22.181v-1a6.595 6.367 0 0 0-.517-2.469" opacity=".1"/><path d="M28 16 9 17l2 25 6-1 3 10 9-4-5-6 5-1zm5 0 1 34h15l4-10-4-7 3-8-4-9zm-17 7h6v10h-6zm24 0h5v8h-5zm0 13h5v7h-5z" opacity=".2"/><path fill="#ffbb32" d="M28 15 9 16l2 25 6-1 3 10 9-4-5-6 5-1zm5 0 1 34h15l4-10-4-7 3-8-4-9zm-17 7h6v10h-6zm24 0h5v8h-5zm0 13h5v7h-5z"/><path fill="#fd6447" d="m28.738 32.725-17.941 5.74L11 41l6-1 3 10 9-4-5-6 5-1zm21.508 1.455L45 36.584V42h-5v-3.125l-6.215 2.848L34 49h15l4-10z"/><path fill="#fff" d="M28 15 9 16l.08.996L28 16l.959 23.008L29 39zm5 0 .03 1H48l3.797 8.543L52 24l-4-9zm7 15v1h5v-1zm-24 2v1h6v-1zm33.227.396L49 33l3.766 6.588L53 39zm-24.512 8.461L24 41l4.393 5.27L29 46zM40 42v1h5v-1z" opacity=".2"/><path fill="#fff" d="m28.738 32.725-17.941 5.74.078.974 17.863-5.714.221 5.283L29 39zm21.508 1.455L45 36.584v1l5.246-2.404 2.52 4.408L53 39zM40 38.875l-6.215 2.848.03.986L40 39.875zm-15.285 1.982L24 41l4.393 5.27L29 46zM40 42v1h5v-1z" opacity=".1"/></svg>