<svg xmlns="http://www.w3.org/2000/svg" viewBox="0 0 24 24"><g fill="#303030"><path d="m11.153 6-.132 1.563-.598.22a4.6 4.6 0 0 0-1.33.762l-.487.402-1.436-.67-.84 1.44 1.302.896-.112.634a4.4 4.4 0 0 0-.07.753q0 .384.066.76l.109.633-1.295.89.84 1.44 1.43-.666.486.398c.397.325.848.581 1.332.757l.602.219.132 1.569h1.694l.132-1.563.598-.22a4.6 4.6 0 0 0 1.33-.762l.487-.402 1.436.67.84-1.44-1.302-.896.112-.634A4.4 4.4 0 0 0 16.55 12q0-.384-.066-.76l-.109-.633 1.295-.89-.84-1.44-1.43.666-.486-.398a4.6 4.6 0 0 0-1.332-.757l-.602-.219L12.847 6zm-.919-1h3.532l.156 1.848a5.6 5.6 0 0 1 1.625.923l1.687-.787L19 10.016l-1.531 1.052q.08.463.08.932-.003.467-.084.928L19 13.984l-1.766 3.032-1.691-.79a5.6 5.6 0 0 1-1.621.93L13.766 19h-3.532l-.156-1.848a5.6 5.6 0 0 1-1.625-.923l-1.687.787L5 13.984l1.531-1.052a5.5 5.5 0 0 1-.08-.932q.003-.467.084-.928L5 10.016l1.766-3.032 1.691.79a5.6 5.6 0 0 1 1.621-.93z"/><path d="m13 9-.7 2.1 2.7.9-4 3 .7-2.1L9 12z"/></g></svg>