<svg xmlns="http://www.w3.org/2000/svg" viewBox="0 0 64 64"><circle cx="32" cy="33" r="28" opacity=".2"/><circle cx="32" cy="32" r="28" fill="#1c62ba"/><path d="m25.464 13.002-.04.002a4.31 4.31 0 0 0-3.917 2.243c-.734 1.341-.729 2.675.4 4.023 1.064 1.566 2.795 2.781 4.707 3.35 1.582.47 2.848.487 4.386-.189.003 9.212 0 19.782 0 29.006-.102.989.063 1.563.973 1.507.616.16 1.279-.033 1.604-.465s.39-.92.431-1.407.03-.987.04-1.42a4.3 4.3 0 0 1 .136-1.03c.4-1.943 1.585-3.443 3.07-4.868 1.485-1.423 3.255-2.738 4.69-4.319 2.45-2.69 2.776-6.803.622-9.79-.23-.318-.843-1.335-1.332-2.153-.244-.408-.462-.774-.608-1.01-.073-.117-.103-.176-.187-.281-.021-.027.022-.043-.189-.165-.053-.033-.133-.083-.307-.084a.75.75 0 0 0-.533.29c-.194.305-.099.388-.09.444.037.222.053.177.075.226l.009.016c1.23 2.508 2.658 5.146 2.004 7.653-.852 3.065-3.974 5.11-7.279 5.607l-.187.021c-.052-7.106-.024-14.638-.024-21.89a.6.6 0 0 0-.047-.238c-1.29-3.141-4.928-5.159-8.358-5.079zm14 13.982.027.043c-.023-.027-.021-.038-.026-.043" opacity=".2"/><path fill="#fff" d="m25.464 12.002-.04.002a4.31 4.31 0 0 0-3.917 2.243c-.734 1.341-.729 2.675.4 4.023 1.064 1.566 2.795 2.781 4.707 3.35 1.582.47 2.848.487 4.386-.189.003 9.212 0 19.782 0 29.006-.102.989.063 1.563.973 1.507.616.16 1.279-.033 1.604-.465s.39-.92.431-1.407.03-.987.04-1.42a4.3 4.3 0 0 1 .136-1.03c.4-1.943 1.585-3.443 3.07-4.868 1.485-1.423 3.255-2.738 4.69-4.319 2.45-2.69 2.776-6.803.622-9.79-.23-.318-.843-1.335-1.332-2.153-.244-.408-.462-.774-.608-1.01-.073-.117-.103-.176-.187-.281-.021-.027.022-.043-.189-.165-.053-.033-.133-.083-.307-.084a.75.75 0 0 0-.533.29c-.194.305-.099.388-.09.444.037.222.053.177.075.226l.009.016c1.23 2.508 2.658 5.146 2.004 7.653-.852 3.065-3.974 5.11-7.279 5.607l-.187.021c-.052-7.106-.024-14.638-.024-21.89a.6.6 0 0 0-.047-.238c-1.29-3.141-4.928-5.159-8.358-5.079zm14 13.982.027.043c-.023-.027-.021-.038-.026-.043"/><path fill="#fff" d="M32 4A28 28 0 0 0 4 32a28 28 0 0 0 .035.5A28 28 0 0 1 32 5a28 28 0 0 1 27.982 27.252L60 32A28 28 0 0 0 32 4" opacity=".1"/></svg>