<svg xmlns="http://www.w3.org/2000/svg" viewBox="0 0 64 64"><circle cx="32" cy="33" r="28" opacity=".2"/><circle cx="32" cy="32" r="28" fill="#cee5fd"/><path fill="#66adff" d="M31.946 4c-3.538 0-6.906.674-10.018 1.857-.227.208-.52.367-.754.347-.031-.003-.064-.024-.095-.035a28 28 0 0 0-4.37 2.316c.18.29.233.614-.136.77-.063.028-.797.128-1.07.121a27.7 27.7 0 0 0-9.027 11.112c.033-.005.185-.018.218-.02.305-.005.518.09.811.152.27.055.489.236.723.254.665.05.825-.466 1.367-.755.56.08.932-.094 1.439-.038.344.038.594.406.862.427.227.022.425-.212.644-.178.213.033.58.495.614.755.043.322-.238.613-.146.967.34.345.955.415 1.439.613.315-.26.041-.74 0-1.116 0-.165.022-.312 0-.464-.03-.259-.14-.496-.143-.717 0-1.021.826-1.5 1.512-1.903.298-.176.532-.484.79-.613.364-.182.635-.224.936-.393.545-.306 1.012-.551 1.439-.897.197-.463.019-1.084.035-1.542.197-.12.366.052.576.035.328-.068.356-.531.542-.716.108-.106.405-.182.54-.287.327-.257.434-.644.72-.755.103-.041.34-.03.502-.074.212-.056.516-.308.862-.426.227-.08.744-.094.83-.18.106-.11 0-.413.036-.575.175-.81 1.398-.982 2.12-1.255.508-.192 1.028-.543 1.584-.435-.108.385-.627.249-.54.716.122.65.993-.185 1.222-.281.44-.185 1.192-.298 1.768-.506.504-.185 1.41-.465.934-1.042-.397-.023-.589.465-.934.613-.24.038-.194-.2-.398-.22-.194-.022-.302.18-.501.146-.198-.033-.476-.343-.507-.574-.079-.6.508-.847.756-1.294-.164-.542-.915-.11-1.37-.322.043-.323.379-.546.757-.607.31-.053 1.004-.026 1.189.139.107.09 0 .317.18.468.184.165.409.148.647.109.086-.41-.533-.307-.466-.577.486-.317 1.277-.057 1.871-.145.343-.05.702-.292 1.006-.462.288-.164.663-.449.97-.18.083.293-.267.39-.43.535-.551.49-1.118 1.049-1.546 1.616.263.256.74.128 1.184.18.173.024.392.075.575.108.215.038.443.027.611.07.302.074.383.397.682.397.492 0 .498-.532.22-.864.087-.339.225-.515.106-.752-.221-.442-1.034-.023-1.076-.574-.027-.358.3-.342.43-.61-.06-.692.568-.742.501-1.362-.03-.259-.248-.263-.43-.505-.09-.12-.138-.349-.244-.452-.84-.074-1.688-.12-2.548-.12ZM17.47 9.65c.168.024.37.203.573.218.192.005.35-.105.468-.074.301.08.428.533.146.755-.235.03-.327-.102-.504-.071-.489.083-.676 1.038-1.041 1.006-.344-.03-.53-.866-.18-1.115.021-.218-.16-.253-.15-.468.104-.132.4-.274.685-.251zm-1.619.112c.1.003.176.027.214.07-.048.383-.348.358-.644.537-.511.308-.807.777-.97 1.435-.047.192-.55.699-.794.648-.57-.12.157-1.17.287-1.329.145-.176.338-.331.507-.536.165-.197.272-.464.43-.574.174-.12.67-.263.97-.251m4.257 1.29c.183.003.347.033.422.107-.117.474-1.14.349-1.515.178.024-.18.305-.228.54-.252.166-.004.371-.038.553-.033m-2.328.875a1.3 1.3 0 0 1 .373.058c-.332.276-.69.432-1.258.612-.273.086-.745.193-.792-.112-.056-.374.4-.287.65-.32.314-.044.659-.226 1.027-.238m35.724 2.127a.7.7 0 0 0-.068.301c.022.174.212.34.255.574.022.125-.058.393 0 .506.173.336.626.094.95.112-.368-.506-.736-1.013-1.136-1.493zm1.839 2.47c-.052.247-.22.57-.357.776-.313.476-.739.498-1.189.752-.375.212-.536.566-.756.935-.238.399-.385.64-.287 1.217-.322.636-.808 1.026-1.474 1.329-.197.089-.466.121-.647.252-.144.103-.226.38-.43.61-.252.28-.517.398-.65.612-.102.165-.137.494-.251.716-.154.302-.48.45-.682.755-.093.141-.154.427-.255.612-.228.414-.617.711-.576 1.075.042.351.442.413.469.72 0 .172-.114.278-.107.467 0 .275.192.469.214.68.053.534-.182.746-.282 1.11-.048.175-.027.37-.075.507-.087.266-.46.507-.468.823 0 .224.23.404.249.719 0 .217-.107.448-.068.648.077.39.775.845 1.08 1.148.406.406.939.72 1.114 1.149.147.363.147.836.43 1.11.21.202.559.328.828.538.25.197.523.366.791.575.438.342 1.1 1.023 1.798.97.364-.026.737-.323 1.15-.396a5.5 5.5 0 0 1 1.406-.071c.328.032.666.229 1.008.213.36-.023.774-.289 1.183-.467a8 8 0 0 1 1.178-.419A28 28 0 0 0 60 32a27.9 27.9 0 0 0-4.658-15.476zM8.945 25.933c-.598.032-.99.06-1.329.213-.778.353-.628 1.403-1.405 1.651-.27.086-.639.09-.935.145-.255.047-.567.186-.83.18-.074 0-.078-.016-.17-.045-.07.44-.148.984-.17 1.48.74.142 1.023 1.091 1.677 1.415.18.088.413.093.644.145.186.041.327.12.507.18.38.13.846.114 1.15.249.459.203.795 1.063 1.19 1.293.022.232-.045.544.035.717.186.252.45.196.756.36.367.198.48.709.828.865.12.053.42.046.61.104.477.144.633.694 1.042.574.268-.079.247-.354.29-.61.177-.192.37-.495.647-.5.447-.023.486.46.649.894.092.245.332.458.394.716.112.446.057 1.782-.038 2.048-.113.327-.557.466-.83.829-.13.17-.19.419-.288.538-.176.214-.438.27-.57.468-.074.111-.147.35-.219.5-.216.457-.505.78-.323 1.33.076.225.43.376.43.642 0 .312-.666.592-.718.935-.038.255.207.71.288 1.042.06.25.534.407.682.574.252.283.454.684.685 1.04.456.698.813 1.55 1.257 2.228.235.354.565.673.72 1.041.081.186.07.408.144.575.257.579 1.392 1.183 1.977 1.47.275.134.579.182.83.32.382.213 1.137.783 1.33 1.116.17.3.278 1.03.361 1.507.111.63.001 1.114.036 1.796.022.37.14.74.145 1.11.002.13-.079.125-.085.257l.016.139A27.7 27.7 0 0 0 31.941 60q1.122 0 2.221-.084c.033-.055.064-.124.102-.176.169-.221.319-.415.43-.61.106-.655-.262-1.113-.107-1.687.172-.644 1.065-1.038 1.69-1.329.216-.1.436-.262.611-.322.434-.15.974-.07 1.37-.214.674-.246.745-.967 1.077-1.58.157-.29.364-.581.394-.788.027-.185-.068-.36-.038-.58.033-.216.227-.404.288-.642.078-.31.112-.766.112-1.113 0-.284-.133-.534-.145-.79-.046-.931.337-1.035.682-1.542.173-.252.238-.539.359-.72.58-.862 1.585-1.279 1.512-2.583-.024-.432-.295-1.407-.614-1.545-.182-.08-.6-.005-.862-.107-.85-.316-1.35-1.368-2.23-1.435-.189-.023-.361.077-.573.073-.349-.022-.874-.243-1.26-.287-.246-.026-.573.073-.72 0-.225-.109-.248-.522-.43-.645-.145-.1-.428-.134-.647-.219-.355-.136-.636-.294-1.044-.322-.127-.005-.283.06-.43.038-.227-.038-.405-.305-.614-.432-.261-.159-.503-.236-.611-.462.236-.773-.416-.989-.575-1.436-.076-.21-.042-.461-.107-.648-.094-.267-.359-.422-.65-.645-.52-.4-.982-.775-1.725-.867-.328-.041-.652.098-1.047.074-.419-.027-.944-.392-1.257-.75-.305-.348-.453-.661-.718-.828-.251-.161-.585-.156-.756-.32-.076-.07-.064-.193-.146-.36-.126-.262-.338-.407-.18-.72-.288-.147-.295.273-.61.219-.279-.396-.515-.584-1.15-.468-.29.054-.453.42-.791.43-.278.023-.497-.31-.863-.361-.277-.038-.592.075-.79.038-.306-.061-.401-.316-.682-.5-.205-.135-.605-.365-.72-.361-.362.023-.62.767-1.118.503-.242-.307.395-.468.107-.755-.218-.217-.4.099-.575.219-.2.138-.388.274-.608.355-.494.185-.803.088-1.19.288-.357.184-.372.494-.575.86-.165.302-.542.74-.791.758-.302.023-.59-.42-.863-.538-.824-.356-1.223.316-1.907.325-.635.023-1.542-1.023-1.51-1.619 0-.363.21-.915.252-1.364.039-.358.284-.573.288-.9 0-.436-.58-.771-.863-.823-.672-.123-1.605.27-2.375-.038-.147-.243.172-.412.255-.648.046-.135.019-.314.068-.462.085-.229.326-.406.433-.648.08-.185.1-.452.18-.681.094-.261.268-.43.288-.613a.8.8 0 0 0-.254-.68zm9.616 7.598c.243.023.274.526.025.566-.269.042-.406-.42-.146-.541a.2.2 0 0 1 .12-.022z"/><path d="m39 13.851-6 3.508v10.533l6-3.487zm-11.254 1.12C21.435 14.937 9.053 15.958 9 29.492 8.965 38.472 13.142 40.75 17.39 41c3.518.207 7.085-.874 8.349-1.625 5.474-2.54 8.373-4.024 13.433-6.988 2.756-1.612 9.29-3.459 9.29 4.113 0 7.571-6.46 9.354-9.462 9.191v-11.02l-6 3.465v12.66c.371.075 3.748.258 5.68.269 6.311.034 16.267-.456 16.32-13.99.064-16.42-13.524-11.873-16.312-10.216-5.362 3.167-8.463 5.153-13.524 8.117-2.755 1.612-9.625 2.662-9.625-4.91 0-7.571 6.46-8.92 9.461-8.758V32.53l6-3.261V15.24c-.37-.076-1.322-.26-3.254-.27M31 39.234l-6 2.932v10.58l6-3.488z" opacity=".1"/><path fill="#054694" d="m39 12.852-6 3.507v10.533l6-3.486zm-11.254 1.12c-6.311-.035-18.693.986-18.746 14.52-.035 8.98 4.142 11.258 8.39 11.508 3.518.207 7.085-.874 8.349-1.625 5.474-2.54 8.373-4.023 13.433-6.988 2.756-1.612 9.29-3.459 9.29 4.113s-6.46 9.354-9.462 9.191V33.672l-6 3.464v12.66c.371.075 3.748.258 5.68.269 6.311.034 16.267-.456 16.32-13.99.064-16.42-13.524-11.873-16.312-10.216-5.362 3.167-8.463 5.153-13.524 8.118-2.755 1.612-9.625 2.661-9.625-4.91 0-7.572 6.46-8.92 9.461-8.759v11.223l6-3.262V14.24c-.37-.076-1.322-.26-3.254-.27M31 38.233l-6 2.932v10.58l6-3.488z"/><path fill="#fff" d="M32 4A28 28 0 0 0 4 32a28 28 0 0 0 .033.482A28 28 0 0 1 32 5a28 28 0 0 1 27.982 27.242L60 32A28 28 0 0 0 32 4" opacity=".2"/></svg>