<svg xmlns="http://www.w3.org/2000/svg" viewBox="0 0 24 24"><g fill="#303030"><path d="m8.19 4.066.453.653c.263-.046.533-.047.796-.002l.452-.65 1.298.75-.337.716q.13.155.23.328.099.174.168.364l.791.064v1.5l-.791.066a2.4 2.4 0 0 1-.398.69l.337.719-1.298.75-.453-.655a2.4 2.4 0 0 1-.795.002l-.454.653-1.298-.752.338-.715a2.4 2.4 0 0 1-.397-.692l-.791-.066v-1.5l.791-.066a2.3 2.3 0 0 1 .397-.69l-.338-.717zm-.586 2.975q.106.309.133.379c.025.07.101.253.137.318q.036.065.193.255l.248.296q.414.076.583.1.168.026.409-.025l.455-.075.142-.166q.23-.267.27-.33a3 3 0 0 0 .147-.284l.08-.231.085-.237-.192-.535-.12-.22a1 1 0 0 0-.165-.207l-.247-.284a4.5 4.5 0 0 0-.754-.114q-.096 0-.279.039l-.414.075q-.195.231-.314.377a1.5 1.5 0 0 0-.203.334z"/><path d="M9.02 6.184a.857.857 0 1 1 .043 1.713.857.857 0 0 1-.043-1.713m3.574 4.843-.596.221a3 3 0 0 0-.856.495l-.49.408-.941-.444-.33.572.855.594-.11.63a2.9 2.9 0 0 0-.002.986l.108.628-.851.59.33.572.934-.44.49.403c.256.212.546.378.859.493l.6.219.086 1.038h.66l.085-1.033.597-.221c.311-.115.6-.283.856-.495l.49-.407.94.443.33-.572-.856-.595.112-.63c.03-.164.044-.33.045-.487q0-.249-.043-.495l-.11-.63.853-.591-.33-.572-.935.44-.49-.403a2.9 2.9 0 0 0-.857-.493l-.599-.22-.087-1.039h-.66zm-.834-2.035h2.5l.111 1.32c.418.154.807.377 1.15.66l1.194-.562 1.25 2.166-1.084.752q.058.33.058.664a4 4 0 0 1-.06.664l1.086.754-1.25 2.166-1.197-.564c-.343.285-.731.51-1.149.664l-.11 1.316h-2.5l-.109-1.318a3.9 3.9 0 0 1-1.152-.66l-1.193.562-1.25-2.166 1.084-.752a3.9 3.9 0 0 1 .002-1.328l-1.086-.754 1.25-2.166 1.197.565a3.9 3.9 0 0 1 1.148-.664z"/><path d="M13.01 12.564a1.429 1.429 0 1 1 .002 2.858 1.429 1.429 0 0 1-.002-2.858"/></g></svg>