<svg xmlns="http://www.w3.org/2000/svg" viewBox="0 0 24 24"><path fill="#303030" d="M8.815 8.222a1.5 1.5 0 1 0-1.615.747l.288.06.315-.064a1.5 1.5 0 0 0 .64-.298l.226-.18zM7.2 14.932a1.5 1.5 0 1 0 .6-.001l-.295-.06zm3.968-4.115c-.11.212-.167.447-.168.683a1.5 1.5 0 1 0 1.502-1.5 1.5 1.5 0 0 0-.97.357l-.227.194zM7.5 5a2.5 2.5 0 0 1 2.191 3.703l1.194.893A2.5 2.5 0 0 1 12.5 9a2.5 2.5 0 1 1-2.5 2.5c0-.398.097-.79.28-1.143L9.065 9.45A2.5 2.5 0 0 1 8 9.945v4.006a2.5 2.5 0 1 1-1 .002V9.95A2.5 2.5 0 0 1 7.5 5m8 8 .219.188L19 16h-2v3h-3v-3h-2l3.281-2.812zm-.476 5.007h.978V15.02h.305l-.81-.695-.84.695h.367z"/></svg>