<svg xmlns="http://www.w3.org/2000/svg" viewBox="0 0 16 16"><path d="M9.5 1a.5.5 0 0 1 .5.5V2a2 2 0 0 1 2 2v2a2 2 0 0 1 2 2v5a2 2 0 0 1-2 2H8a2 2 0 0 1-1.732-.999L4 14a2 2 0 0 1-2-2V4a2 2 0 0 1 2-2v-.5a.5.5 0 0 1 .5-.5zM12 7H8a1 1 0 0 0-1 1v5a1 1 0 0 0 1 1h4a1 1 0 0 0 1-1V8a1 1 0 0 0-1-1m-2-4v.5a.5.5 0 0 1-.5.5h-5a.5.5 0 0 1-.5-.5V3a1 1 0 0 0-.993.883L3 4v8a1 1 0 0 0 .883.993L4 13h2V8a2 2 0 0 1 .053-.46 2 2 0 0 1 .787-1.17A2 2 0 0 1 8 6h3V4a1 1 0 0 0-.77-.974l-.113-.02zm.5 8a.5.5 0 1 1 0 1h-2a.5.5 0 1 1 0-1zm1-2a.5.5 0 1 1 0 1h-3a.5.5 0 0 1 0-1zM9 2H5v1h4z"/></svg>