<svg xmlns="http://www.w3.org/2000/svg" xmlns:xlink="http://www.w3.org/1999/xlink" viewBox="0 0 96 96"><defs><linearGradient id="b" x1="98.775%" x2="9.041%" y1="49.758%" y2="32.029%"><stop offset="0%" stop-color="#af4600"/><stop offset="35.756%" stop-color="#ffdda8"/><stop offset="72.089%" stop-color="#ffb091"/><stop offset="100%" stop-color="#d8d8d8"/></linearGradient><linearGradient id="c" x1="100%" x2="9.041%" y1="50%" y2="32.029%"><stop offset="0%" stop-color="#494949"/><stop offset="34.59%" stop-color="#acacac"/><stop offset="72.901%" stop-color="#505050"/><stop offset="100%" stop-color="#d8d8d8"/></linearGradient><linearGradient id="d" x1="100%" x2="9.041%" y1="50%" y2="32.029%"><stop offset="0%" stop-color="#f29c64"/><stop offset="35.756%" stop-color="#ffd75f"/><stop offset="72.089%" stop-color="#d48937"/><stop offset="100%" stop-color="#d8d8d8"/></linearGradient><linearGradient id="e" x1="100%" x2="5.433%" y1="50%" y2="-14.314%"><stop offset="0%" stop-color="#c8c8c8"/><stop offset="35.756%" stop-color="#e3e3e3"/><stop offset="72.089%" stop-color="#929292"/><stop offset="100%" stop-color="#d8d8d8"/></linearGradient><linearGradient id="f" x1="100%" x2="5.433%" y1="50%" y2="-14.314%"><stop offset="0%" stop-color="#c9854e"/><stop offset="35.756%" stop-color="#ffecb4"/><stop offset="72.089%" stop-color="#d48937"/><stop offset="100%" stop-color="#d8d8d8"/></linearGradient><filter id="a" width="129.3%" height="133%" x="-15%" y="-16.7%" filterUnits="objectBoundingBox"><feOffset dy="2" in="SourceAlpha" result="shadowOffsetOuter1"/><feGaussianBlur in="shadowOffsetOuter1" result="shadowBlurOuter1" stdDeviation="2"/><feColorMatrix in="shadowBlurOuter1" result="shadowMatrixOuter1" values="0 0 0 0 0 0 0 0 0 0 0 0 0 0 0 0 0 0 0.2 0"/><feMerge><feMergeNode in="shadowMatrixOuter1"/><feMergeNode in="SourceGraphic"/></feMerge></filter></defs><g fill="none" fill-rule="evenodd" filter="url(#a)" transform="translate(6 8)"><path fill="#d8d8d8" d="M1.039 7.766 12.548 4Q10.06 58.66 22.789 73.064L7.621 69.921Q-2.813 41.763 1.039 7.766"/><path stroke="#6993bd" stroke-width="1.2" d="M1.592 8.217Q-2.122 41.664 8.07 69.4l13.191 2.734C13.495 61.782 10.407 39.374 11.91 4.84z"/><path fill="#fff" fill-rule="nonzero" d="m9.188 21.953 1.998.094c-.946 19.934 2.324 37.664 8.574 49.227l-2.363-1.032c-6.444-11.924-9.17-28.021-8.209-48.29"/><path fill="#fff" d="m12.505 4 47.752 2.605-.552 58.962-37.186 7.315Q10.193 58.892 12.505 4"/><path stroke="#86b0ef" stroke-width="4" d="M14.422 6.108c-1.271 33.788 1.785 55.402 8.88 64.581l34.419-6.77.518-55.421z"/><path fill="#fff" d="M14.992 7.598 57.716 9.93l-.493 52.754-33.756 6.076Q12.532 51.204 14.992 7.6"/><path stroke="#3468b7" stroke-width="1.2" d="M15.558 8.23c-1.546 28.354 1.204 48.318 8.206 59.866l32.864-5.915.483-51.684z"/><path fill="red" fill-rule="nonzero" d="m34.13 37.892.683 5.558 2.223-.273c2.362-.29 3.487-1.472 3.248-3.417-.24-1.946-1.568-2.431-3.93-2.141zm13.814 15.315-5.559.682-4.701-6.814-2.39.294.894 7.281-4.975.61-2.539-20.676 7.588-.931c4.418-.543 8.271.507 8.885 5.51.372 3.029-.806 5.148-2.823 6.412z"/><path fill="#fff" d="m14 22 4.38 5.572L22.919 22l3.084 5.572L30.314 22l4.103 5.572L39.113 22l3.175 5.572L47.152 22l3.223 5.572L55.069 22l1.321 5.572 2.874-4.485"/><path stroke="#3166b7" stroke-width="1.2" d="m58.183 23.662 1.066.025-.49-.923zm-1.535 2.396-.763 1.19 1.089.186zm-6.182.474-.55.653.978.087zm-8.075.01-.555.635.973.098zm-7.942.061-.49.582.941.031zm-8.363-.12-.558.722 1 .076zm-7.698.129-.473.581.937.008zm-3.13-3.982-.786-1-.486.97z"/><path fill="#fff" fill-rule="nonzero" stroke="#c2c2c2" stroke-width="1.2" d="m0 23.971 12.481-2.788 47.827 1.394V6.626L12.481 4 0 7.667z"/><circle cx="39" cy="13" r="3" fill="#010101" fill-rule="nonzero"/><path fill="#e5e5e5" fill-rule="nonzero" d="M2 9.456 11.409 8q.159 9.224 1.738 11.041L2.945 21.253z"/><path fill="url(#b)" fill-rule="nonzero" stroke="#cd8d2e" d="m47.875 69.253 22.99 5.384 12.424-46.239L81.868 0 64.645 22.675z"/><path fill="url(#c)" fill-rule="nonzero" stroke="#000" d="M82.523 13.084 81.868 0l-8.495 11.184q3.037-1.473 5.239-.968 2.202.504 3.91 2.868Z"/><path fill="url(#d)" fill-rule="nonzero" stroke="#a95c01" d="M64.55 64.986q3.97 0 8.552.85 2.986-9.573 2.986-11.565l7.089-25.05c0-5.437-6.265-8.442-10.075-8.442-2.303 0-6.833.367-9.867 5.226Q53.337 52.042 52.47 55.513q-1.818 3.504-1.386 4.433c1.634 3.513 8.225 5.04 13.467 5.04Z"/><path fill="url(#e)" fill-rule="nonzero" stroke="#8b8b8b" stroke-width="1.2" d="M64.55 64.986q3.97 0 8.552.85 2.986-9.573 2.986-11.565C76.088 49.3 70.17 46 63.544 46s-9.744 4.192-11.075 9.513q-1.818 3.504-1.386 4.433c1.634 3.513 8.225 5.04 13.467 5.04Z"/><path fill="url(#f)" fill-rule="nonzero" stroke="#a95c01" stroke-width="1.2" d="M61.55 70c3.97 0 10.491 4.034 10.491 1.265 0-1.265 2.104-7.527 2.104-9.52 0-4.97-5.967-9.745-12.595-9.745-6.627 0-9.872 3.747-11.202 9.068l-2.91 6.893Q56.307 70 61.55 70Z"/><ellipse cx="60" cy="71" fill="#e48e37" fill-rule="nonzero" stroke="#ca701a" stroke-width="2" rx="12" ry="9"/></g></svg>