<svg xmlns="http://www.w3.org/2000/svg" viewBox="0 0 24 24"><path fill="#303030" d="M11.749 6.936c-.106.182-.505.852-.593 1.004a10 10 0 0 0-.459.87c-.133.252-.197.476-.197.69 0 .833.667 1.5 1.5 1.5s1.5-.667 1.5-1.5c0-.255-.055-.48-.194-.747a8 8 0 0 0-.432-.808c-.096-.161-.503-.833-.604-1.005q-.14-.236-.264-.456-.12.219-.257.452M12 4c.486 1.703 1.694 3.172 2.219 4.344.184.348.281.733.281 1.156 0 1.385-1.115 2.5-2.5 2.5a2.495 2.495 0 0 1-2.5-2.5c0-.423.129-.808.313-1.156C10.337 7.172 11.513 5.703 12 4M7.249 14.936c-.106.182-.505.852-.593 1.004a10 10 0 0 0-.459.87c-.133.252-.197.476-.197.69 0 .833.667 1.5 1.5 1.5S9 18.333 9 17.5c0-.255-.055-.48-.194-.747a8 8 0 0 0-.432-.808c-.096-.161-.503-.833-.604-1.005q-.14-.236-.264-.456-.12.219-.257.452M7.5 12c.487 1.703 1.694 3.172 2.219 4.344.184.348.281.733.281 1.156 0 1.385-1.115 2.5-2.5 2.5A2.495 2.495 0 0 1 5 17.5c0-.423.129-.808.313-1.156.524-1.172 1.7-2.642 2.187-4.344m8.749 2.936c-.106.182-.505.852-.593 1.004a10 10 0 0 0-.459.87c-.133.252-.197.476-.197.69 0 .833.667 1.5 1.5 1.5s1.5-.667 1.5-1.5c0-.255-.055-.48-.194-.747a8 8 0 0 0-.432-.808c-.096-.161-.503-.833-.604-1.005q-.14-.236-.264-.456-.12.219-.257.452M16.5 12c.486 1.703 1.694 3.172 2.219 4.344.183.348.281.733.281 1.156 0 1.385-1.115 2.5-2.5 2.5a2.495 2.495 0 0 1-2.5-2.5c0-.423.129-.808.313-1.156.524-1.172 1.7-2.642 2.187-4.344"/></svg>