<svg xmlns="http://www.w3.org/2000/svg" viewBox="0 0 64 64"><circle cx="32" cy="33" r="28" opacity=".2"/><circle cx="32" cy="32" r="28" fill="#00abb3"/><path d="M27.852 15C22.286 15 18 19.153 18 24.719v2.242c0 4.11 2.467 7.647 6 9.219v-4.067c-1.454-1.207-2-3.067-2-5.152v-2.242C22 21.087 24.22 19 27.852 19h8.293C39.776 19 42 21.087 42 24.719v2.242c0 3.632-2.224 6.05-5.855 6.039H30a2 2 0 1 0-4 0v12.117C26 45.99 25.351 47 24 47s-2-.654-2-1.828v-6.363c0-1.03-.987-1.809-2.016-1.809S18 37.78 18 38.809v6.582C18 48.476 20.914 51 24 51s6-2.324 6-5.61V37h4v8.39c0 3.086 2.914 5.61 6 5.61s6.078-2.525 6-5.61v-6.58c0-1.03-.971-1.809-2-1.809s-2 .78-2 1.809v6.363C42 46.346 41.003 47 40 47s-2.056-.814-2-1.684v-8.519c4.483-1.027 8-5.046 8-9.836v-2.242C46 19.153 41.71 15 36.145 15ZM14 29c-1.1 0-2 .913-2 2.012v7.023c0 2.595 1.676 4.818 4 5.645V31.012C16 29.913 15.1 29 14 29m36 0c-1.1 0-2 .913-2 2.012V43.68c2.324-.827 4-3.05 4-5.645v-7.023C52 29.913 51.1 29 50 29" opacity=".2"/><path fill="#fff" d="M27.852 14C22.286 14 18 18.153 18 23.719v2.242c0 4.11 2.467 7.647 6 9.219v-4.067c-1.454-1.207-2-3.067-2-5.152v-2.242C22 20.087 24.22 18 27.852 18h8.293C39.776 18 42 20.087 42 23.719v2.242c0 3.632-2.224 6.05-5.855 6.039H30a2 2 0 1 0-4 0v12.117C26 44.99 25.351 46 24 46s-2-.654-2-1.828v-6.363c0-1.03-.987-1.809-2.016-1.809S18 36.78 18 37.809v6.582C18 47.476 20.914 50 24 50s6-2.324 6-5.61V36h4v8.39c0 3.086 2.914 5.61 6 5.61s6.078-2.525 6-5.61v-6.58c0-1.03-.971-1.809-2-1.809s-2 .78-2 1.809v6.363C42 45.346 41.003 46 40 46s-2.056-.814-2-1.684v-8.519c4.483-1.027 8-5.046 8-9.836v-2.242C46 18.153 41.71 14 36.145 14ZM14 28c-1.1 0-2 .913-2 2.012v7.023c0 2.595 1.676 4.818 4 5.645V30.012C16 28.913 15.1 28 14 28m36 0c-1.1 0-2 .913-2 2.012V42.68c2.324-.827 4-3.05 4-5.645v-7.023C52 28.913 51.1 28 50 28"/><path fill="#fff" d="M32 4A28 28 0 0 0 4 32a28 28 0 0 0 .033.482A28 28 0 0 1 32 5a28 28 0 0 1 27.982 27.242L60 32A28 28 0 0 0 32 4" opacity=".2"/></svg>