<svg xmlns="http://www.w3.org/2000/svg" viewBox="0 0 24 24"><path fill="#f44336" d="M6.463 21.452h-.015l-.001-.012a7 7 0 0 1-.647-.062 4.6 4.6 0 0 1-1.172-.329 3.35 3.35 0 0 1-1.663-1.605 4.2 4.2 0 0 1-.316-.889 6 6 0 0 1-.161-1.252l-.009-.17 1.384-2.529q-.039-.036-.076-.073l-.092-.091v-.01a2.3 2.3 0 0 1-.436-.759 3 3 0 0 1-.158-.998c0-.459.083-.963.249-1.5a9 9 0 0 1 .689-1.586c.597-1.093 1.437-2.189 2.426-3.172l.188-.181h.007a16 16 0 0 1 2.249-1.816c.863-.568 1.696-.985 2.475-1.241.575-.184 1.081-.273 1.548-.273q.52 0 .954.155a2.16 2.16 0 0 1 1.203 1.037l2.958-1.568.105.017c.679.115 1.265.332 1.741.645.454.297.82.684 1.091 1.148.161.28.287.591.376.924.105.396.159.833.159 1.301v.445h-.026l-1.03 13.51-13.41.915v.019h-.004v.01l-.292-.009-.293.02zm1.084-1.305 11.751-.802.753-9.882-5.309.398 1.862 7.284-7.335-2.344zm-3.805-2.72c.029.456.108.861.234 1.204.118.32.275.583.479.802q.18.188.401.327.271.168.616.271.166.051.357.084L4.26 16.484zm2.955 1.565 1.409-4.542q-.55.272-1.059.442c-.56.189-1.079.286-1.542.286a3 3 0 0 1-.457-.034zm8.138-3.725-1.367-5.349c-.435.577-.927 1.14-1.468 1.678l-.004.004a17.3 17.3 0 0 1-2.419 1.988zM7.168 7.486a13 13 0 0 0-1.597 1.977c-.466.711-.821 1.432-1.025 2.083-.131.428-.197.807-.193 1.123v.008q-.006.32.087.583v.003a1 1 0 0 0 .234.384.9.9 0 0 0 .328.206q.211.074.502.074c.328 0 .723-.075 1.144-.217a8.4 8.4 0 0 0 1.422-.656c1.016-.577 2.07-1.388 3.048-2.348a14 14 0 0 0 1.784-2.155c.474-.719.833-1.433 1.034-2.064.128-.399.196-.78.196-1.101q0-.318-.084-.559a1 1 0 0 0-.231-.373.85.85 0 0 0-.344-.214l-.005-.002a1.6 1.6 0 0 0-.535-.083c-.336 0-.725.072-1.156.215h-.003a8 8 0 0 0-1.417.632C9.329 5.574 8.293 6.37 7.36 7.304l-.189.182zm8.213-1.979c-.014.418-.1.876-.255 1.363a8.6 8.6 0 0 1-.694 1.569q-.053.097-.111.198l4.537-.284zm4.787 2.457.101-1.339v-.062c0-.399-.049-.767-.147-1.091a2.3 2.3 0 0 0-.478-.862 2.2 2.2 0 0 0-.544-.438l-.004-.002a3.2 3.2 0 0 0-.953-.354l-1.708.953z" data-iconColor="RBS Config"/></svg>