<svg xmlns="http://www.w3.org/2000/svg" viewBox="0 0 64 64"><path d="M32.001 27c-1.857 0-3.714.418-5.089 1.253L6.06 40.91c-2.748 1.669-2.746 4.51.003 6.18l20.85 12.657c2.748 1.67 7.428 1.67 10.177 0L57.94 47.09c2.748-1.669 2.746-4.51-.003-6.18L37.09 28.254C35.716 27.418 33.86 27 32.001 27" opacity=".2"/><path fill="#af2d2c" d="M32.001 26c-1.857 0-3.714.418-5.089 1.253L6.06 39.91c-2.748 1.669-2.746 4.51.003 6.18l20.85 12.657c2.748 1.67 7.428 1.67 10.177 0L57.94 46.09c2.748-1.669 2.746-4.51-.003-6.18L37.09 27.254C35.716 26.418 33.86 26 32.001 26"/><path d="M32.001 16c-1.857 0-3.714.418-5.089 1.253L6.06 29.91c-2.748 1.669-2.746 4.51.003 6.18l20.85 12.657c2.748 1.67 7.428 1.67 10.177 0L57.94 36.09c2.748-1.669 2.746-4.51-.003-6.18L37.09 17.254C35.716 16.418 33.86 16 32.001 16" opacity=".2"/><path fill="#da3837" d="M32.001 15c-1.857 0-3.714.418-5.089 1.253L6.06 28.91c-2.748 1.669-2.746 4.51.003 6.18l20.85 12.657c2.748 1.67 7.428 1.67 10.177 0L57.94 35.09c2.748-1.669 2.746-4.51-.003-6.18L37.09 16.254C35.716 15.418 33.86 15 32.001 15"/><path d="M32.001 5c-1.857 0-3.714.418-5.089 1.253L6.06 18.91c-2.748 1.669-2.746 4.51.003 6.18l20.85 12.657c2.748 1.67 7.428 1.67 10.177 0L57.94 25.09c2.748-1.669 2.746-4.51-.003-6.18L37.09 6.254C35.716 5.418 33.86 5 32.001 5" opacity=".2"/><path fill="#e0504d" d="M32.001 4c-1.857 0-3.714.418-5.089 1.253L6.06 17.91c-2.748 1.669-2.746 4.51.003 6.18l20.85 12.657c2.748 1.67 7.428 1.67 10.177 0L57.94 24.09c2.748-1.669 2.746-4.51-.003-6.18L37.09 5.254C35.716 4.418 33.86 4 32.001 4"/><path d="m40.002 14.696-5.11.695-1.144 3.61-1.847-4.028-5.9-.696 4.402-2.081L29.083 9l4.12 2.114 3.887-1.669-1.05 3.305z" opacity=".2"/><path fill="#fff" d="m37.09 8.445-1.05 3.305 3.962 1.946-5.11.695-1.144 3.61-1.847-4.028-5.9-.696 4.402-2.081L29.083 8l4.12 2.114z"/><path d="m36.003 26.999-3.626 8-8.375-5.229z" opacity=".2"/><path fill="#fff" d="m32.377 33.998-8.375-5.228L36.003 26z"/><ellipse cx="19" cy="21" opacity=".2" rx="7" ry="4"/><ellipse cx="19" cy="20" fill="#fff" rx="7" ry="4"/><path d="m43.997 26.001-8-4.743 8-5.257Z" opacity=".25"/><path d="m51.997 20.749-8 5.252v-10z" opacity=".4"/><path fill="#fff" d="M32.002 4c-1.857 0-3.716.418-5.09 1.252L6.061 17.91c-1.577.957-2.243 2.302-2.01 3.588.174-.954.84-1.878 2.01-2.588L26.912 6.252C28.286 5.418 30.145 5 32.002 5s3.713.418 5.088 1.252L57.937 18.91c1.173.712 1.84 1.638 2.012 2.594.235-1.288-.432-2.635-2.011-3.594L37.09 5.252C35.715 4.418 33.86 4 32.002 4" opacity=".2"/></svg>