<svg xmlns="http://www.w3.org/2000/svg" viewBox="0 0 64 64"><circle cx="32" cy="33" r="28" opacity=".2"/><circle cx="32" cy="32" r="28" fill="#bfee00"/><path fill="#fff" d="M32 4A28 28 0 0 0 4 32a28 28 0 0 0 .021.586A28 28 0 0 1 32 5a28 28 0 0 1 27.979 27.414L60 32A28 28 0 0 0 32 4" opacity=".2"/><path d="M23 11c-3 0-7 3-7 3l1 1s4-3 6-3h1c2 0 6 3 6 3l1-1s-4-3-7-3zm0 3c-3 0-5 3-5 3l1 1s2-3 4-3h1c2 0 4 3 4 3l1-1s-2-3-5-3zm0 4-3 7H5.18A28 28 0 0 0 4 33a28 28 0 0 0 1.521 9H28l4 6 4-6h22.484A28 28 0 0 0 60 33a28 28 0 0 0-1.19-8H44l-3-7-3 7H26z" opacity=".2"/><path fill="#162d50" d="M23 10c-3 0-7 3-7 3l1 1s4-3 6-3h1c2 0 6 3 6 3l1-1s-4-3-7-3zm0 3c-3 0-5 3-5 3l1 1s2-3 4-3h1c2 0 4 3 4 3l1-1s-2-3-5-3zm0 4-3 7H5.18A28 28 0 0 0 4 32a28 28 0 0 0 1.521 9H28l4 6 4-6h22.484A28 28 0 0 0 60 32a28 28 0 0 0-1.19-8H44l-3-7-3 7H26z"/><path d="M25 31v6h3v-6zm11 0v6h3v-6z" opacity=".2"/><path fill="#fae" d="M25 30v6h3v-6zm11 0v6h3v-6z"/></svg>