<svg xmlns="http://www.w3.org/2000/svg" viewBox="0 0 64 64"><path fill="none" stroke="#000" stroke-linejoin="round" stroke-width="8" d="M8 55h48L32 13Z" opacity=".2"/><path fill="none" stroke="#fecd38" stroke-linejoin="round" stroke-width="8" d="M8 54h48L32 12Z"/><path fill="none" stroke="#3f3f3f" stroke-linejoin="round" stroke-width="4" d="M9 54h46L32 13Z"/><path fill="#fecd38" d="M9 54h46L32 13Z"/><path fill="#3f3f3f" d="M30 30h4v20h-4z"/><path fill="none" stroke="#3f3f3f" stroke-linejoin="round" stroke-width="3" d="M32 46c0-4-3-6-7-6"/><path fill="#3f3f3f" d="m32 24-5 7h10zM20 40l7 4v-8z"/><path fill="#fff" d="M32 8a4 4 0 0 0-3.473 2.016l-24 42a4 4 0 0 0-.466 2.297 4 4 0 0 1 .466-1.297l24-42A4 4 0 0 1 32 9a4 4 0 0 1 3.473 2.016l24 42a4 4 0 0 1 .486 1.423 4 4 0 0 0-.486-2.423l-24-42A4 4 0 0 0 32 8" opacity=".2"/></svg>