<svg xmlns="http://www.w3.org/2000/svg" viewBox="0 0 64 64"><path d="M6.75 6A2.744 2.744 0 0 0 4 8.75v49.5A2.744 2.744 0 0 0 6.75 61h49.5A2.744 2.744 0 0 0 59 58.25V8.75A2.744 2.744 0 0 0 56.25 6z" opacity=".2"/><rect width="11" height="11" x="4" y="16" fill="#e2731c" ry="0"/><rect width="11" height="11" x="4" y="38" fill="#e2731c" ry="0"/><path fill="#a3d341" d="M4 49v8.25A2.744 2.744 0 0 0 6.75 60H15V49z"/><rect width="11" height="11" x="48" y="16" fill="#e2731c" ry="0"/><rect width="11" height="11" x="48" y="38" fill="#e2731c" ry="0"/><path fill="#a3d341" d="M48 49v11h8.25A2.744 2.744 0 0 0 59 57.25V49z"/><rect width="11" height="11" x="26" y="16" fill="#e2731c" ry="0"/><rect width="11" height="11" x="26" y="38" fill="#e2731c" ry="0"/><rect width="11" height="11" x="26" y="49" fill="#a3d341" ry="0"/><rect width="11" height="11" x="15" y="5" fill="#e2731c" ry="0"/><rect width="11" height="11" x="15" y="27" fill="#6b6bd8" ry="0"/><rect width="11" height="11" x="15" y="49" fill="#e2731c" ry="0"/><rect width="11" height="11" x="37" y="5" fill="#e2731c" ry="0"/><rect width="11" height="11" x="37" y="27" fill="#e2731c" ry="0"/><rect width="11" height="11" x="37" y="49" fill="#e2731c" ry="0"/><path d="M6.75 6A2.744 2.744 0 0 0 4 8.75V17h11V6z" opacity=".2"/><path fill="#a3d341" d="M6.75 5A2.744 2.744 0 0 0 4 7.75V16h11V5z"/><rect width="11" height="11" x="4" y="28" opacity=".2" ry="0"/><rect width="11" height="11" x="4" y="27" fill="#a3d341" ry="0"/><path d="M48 6v11h11V8.75A2.744 2.744 0 0 0 56.25 6z" opacity=".2"/><path fill="#a3d341" d="M48 5v11h11V7.75A2.744 2.744 0 0 0 56.25 5z"/><rect width="11" height="11" x="48" y="28" opacity=".2" ry="0"/><rect width="11" height="11" x="48" y="27" fill="#a3d341" ry="0"/><rect width="11" height="11" x="26" y="6" opacity=".2" ry="0"/><rect width="11" height="11" x="26" y="5" fill="#a3d341" ry="0"/><rect width="11" height="11" x="26" y="28" opacity=".2" ry="0"/><rect width="11" height="11" x="26" y="27" fill="#a3d341" ry="0"/><rect width="11" height="11" x="15" y="17" opacity=".2" ry="0"/><rect width="11" height="11" x="15" y="16" fill="#a3d341" ry="0"/><rect width="11" height="11" x="15" y="39" opacity=".2" ry="0"/><rect width="11" height="11" x="15" y="38" fill="#a3d341" ry="0"/><rect width="11" height="11" x="37" y="17" opacity=".2" ry="0"/><rect width="11" height="11" x="37" y="16" fill="#a3d341" ry="0"/><rect width="11" height="11" x="37" y="39" opacity=".2" ry="0"/><rect width="11" height="11" x="37" y="38" fill="#a3d341" ry="0"/><path fill="#fff" d="M6.75 5A2.744 2.744 0 0 0 4 7.75v1A2.744 2.744 0 0 1 6.75 6h49.5A2.744 2.744 0 0 1 59 8.75v-1A2.744 2.744 0 0 0 56.25 5z" opacity=".2"/></svg>