<svg xmlns="http://www.w3.org/2000/svg" viewBox="0 0 64 64"><rect width="56" height="56" x="4" y="5" opacity=".2" rx="2.8" ry="2.8"/><rect width="56" height="56" x="4" y="4" fill="#c73638" rx="2.8" ry="2.8"/><path d="M4 39v18.2C4 58.751 5.249 60 6.8 60h50.4c1.551 0 2.8-1.249 2.8-2.8V39Z" opacity=".3"/><path fill="#2f2f2f" d="M11 11h42v36H11z"/><path fill="#fff" d="M21 23h6v10h-6zm16 0h6v10h-6z"/><path d="M25 51h14v4H25z" opacity=".4"/><path d="M11 11h42v1H11zm10 22h6v1h-6zm16 0h6v1h-6z" opacity=".2"/><path fill="#fff" d="M6.8 4C5.25 4 4 5.25 4 6.8v1C4 6.25 5.25 5 6.8 5h50.4C58.75 5 60 6.25 60 7.8v-1C60 5.25 58.75 4 57.2 4z" opacity=".2"/></svg>