<svg xmlns="http://www.w3.org/2000/svg" xmlns:xlink="http://www.w3.org/1999/xlink" viewBox="0 0 96 96"><defs><linearGradient id="b" x1="50%" x2="50%" y1="0%" y2="100%"><stop offset="0%" stop-color="#f4c948"/><stop offset="100%" stop-color="#fae67e"/></linearGradient><linearGradient id="c" x1="50%" x2="50%" y1="0%" y2="100%"><stop offset="0%" stop-color="#c88d43"/><stop offset="100%" stop-color="#956134"/></linearGradient><linearGradient id="d" x1="50%" x2="50%" y1="0%" y2="100%"><stop offset="0%" stop-color="#ffe390"/><stop offset="100%" stop-color="#fae67e"/></linearGradient><linearGradient id="f" x1="50%" x2="50%" y1="0%" y2="100%"><stop offset="0%" stop-color="#e85c5c"/><stop offset="100%" stop-color="#cc2f2f"/></linearGradient><linearGradient id="g" x1="50%" x2="50%" y1="0%" y2="100%"><stop offset="0%" stop-color="#efefef"/><stop offset="100%" stop-color="#efefef"/></linearGradient><linearGradient id="h" x1="50%" x2="50%" y1="0%" y2="99.484%"><stop offset="0%" stop-color="#a1cfff"/><stop offset="100%" stop-color="#428aff"/></linearGradient><filter id="a" width="133.3%" height="128.9%" x="-16.7%" y="-14.5%" filterUnits="objectBoundingBox"><feOffset dy="2" in="SourceAlpha" result="shadowOffsetOuter1"/><feGaussianBlur in="shadowOffsetOuter1" result="shadowBlurOuter1" stdDeviation="2"/><feColorMatrix in="shadowBlurOuter1" result="shadowMatrixOuter1" values="0 0 0 0 0 0 0 0 0 0 0 0 0 0 0 0 0 0 0.2 0"/><feMerge><feMergeNode in="shadowMatrixOuter1"/><feMergeNode in="SourceGraphic"/></feMerge></filter><filter id="e" width="148%" height="136.4%" x="-24%" y="-18.2%" filterUnits="objectBoundingBox"><feOffset dy="2" in="SourceAlpha" result="shadowOffsetOuter1"/><feGaussianBlur in="shadowOffsetOuter1" result="shadowBlurOuter1" stdDeviation="2"/><feColorMatrix in="shadowBlurOuter1" result="shadowMatrixOuter1" values="0 0 0 0 0 0 0 0 0 0 0 0 0 0 0 0 0 0 0.203999126 0"/><feMerge><feMergeNode in="shadowMatrixOuter1"/><feMergeNode in="SourceGraphic"/></feMerge></filter></defs><g fill="none" fill-rule="evenodd"><g filter="url(#a)" transform="translate(8.732 4.738)"><path fill="url(#b)" d="M11.701 5.982 55.173.484a4 4 0 0 1 4.45 3.321l10.84 66.142a4 4 0 0 1-3.384 4.608l-54.43 7.734a4 4 0 0 1-4.522-3.398L0 21.644z"/><path fill="url(#c)" fill-rule="nonzero" d="M37.822 55.958q.375-1.125 1.5-1.75-6.124-1.5-9.25-4.75h6.25q.25 0 1.25.125h1.75v-1.875a4.7 4.7 0 0 1-1.125.125q-1.5.125-1.875.125h-6.5q.25-.875.375-2.25h4.25q.625 0 3 .25v-1.875a4.7 4.7 0 0 1-1.125.125q-1.5.125-1.875.125h-4.25v-2.125h3.875q.125 0 .875.125h2q-.25-1-.125-2.375v-.625q-.124-1.375.125-2.375-2.124.25-2.75.125h-4v-2.125h1.5q1.125.125 3 .25-.25-1.625-.25-2.375v-1.25h2.375q.501.125 1.125.125.625.125 1.375.125v-1.875q-1.125.25-2.5.125h-2.375v-.625q0-1.75.5-2 .5-.5.125-.5l-2.5-.375q.125 1 .125 2.625v.875h-7.25v-.75q-.124-1.125.5-1.625.25-.125.125-.25 0-.125-.25-.25l-2.25-.375q.126 2 .25 2.625v.625h-2q-1.5.125-2.375-.125v1.875q1.5-.125 2.375-.25h2v1.25q0 .25-.125 1-.125 1.125-.125 1.375 2.125-.125 2.875-.25h2v2.125h-4q-1.75.125-2.875-.125v1.25q0 .625.125 1.375v.875q-.125.25-.125.75v1.125h2.125q.626-.125.875-.125h3.875v2.125h-4.875q-.999 0-2.625-.25v1.875q.375.125 1.5-.125.876-.125 1.125-.125h4.875q-.125 1.375-.375 2.25h-6.25q-.874 0-2.5-.25v1.875h1.375q.876-.125 1.125-.125h5.75q-2.375 3.375-9 4.5 1.125 1.375 1.25 2 6.5-2 9.125-5.625 3.876 3.874 8.875 5.625m-20.5-23.125 1.25-1.5q-.999-.75-4.875-3.75l-1.25 1.5a620 620 0 0 1 4.875 3.75m15.375.75h-7.25v-2h7.25zm-16.875 7.125 1-1.875a121 121 0 0 0-3.5-2.125q-.624-.375-1.25-.875l-1.25 1.625q2.625 1.5 5 3.25m12.625 0h-5v-2.125h5zm6.625 0h-4.875v-2.125h4.875zM13.947 54.583q1.376-3.5 4.25-9.875l-1.5-1.625q-3.25 8.25-5.125 10.5z" transform="rotate(-6 25.072 41.27)"/><path fill="url(#d)" d="m11.701 5.982 1.282 9.897a4 4 0 0 1-3.433 4.478L0 21.644z"/></g><g filter="url(#e)" transform="translate(36.24 24.76)"><path fill="#fff" d="m15.063 37.346 5.582 2.844-6.302 12.369-5.582-2.844z"/><path fill="url(#f)" d="M5.923 47.63h5.53a2 2 0 0 1 2 2v10.016a4.765 4.765 0 0 1-9.53 0V49.629a2 2 0 0 1 2-2" transform="rotate(27 8.688 56.02)"/><path fill="#700" fill-opacity=".184" fill-rule="nonzero" d="M14.96 49.8a2 2 0 0 1 .875 2.69l-4.548 8.924a4.765 4.765 0 0 1-8.49-4.327l4.547-8.924a2 2 0 0 1 2.69-.874zm-.453.89L9.58 48.18a1 1 0 0 0-1.287.336l-.058.1-4.548 8.925a3.765 3.765 0 0 0 6.617 3.589l.092-.17 4.548-8.925a1 1 0 0 0-.337-1.286z"/><circle cx="25.272" cy="24.272" r="23.772" fill="url(#g)" stroke="#fff"/><circle cx="25.272" cy="24.272" r="20.393" fill="url(#h)"/><path fill="#f9f9f9" fill-rule="nonzero" d="m16.792 34.24 2.706-6h10.409l2.673 6h3.768l-9.596-24H23.3l-9.745 24zm12.102-9.014H20.51l4.2-10.592z"/></g></g></svg>