<svg xmlns="http://www.w3.org/2000/svg" fill="none" viewBox="0 0 24 24"><path fill="#ff5722" fill-rule="evenodd" d="m6.924 3.47 4.72 3.18a.64.64 0 0 0 .718.001l4.725-3.192a.633.633 0 0 0-.09-1.087L12.277.064a.66.66 0 0 0-.567 0L7.003 2.372a.635.635 0 0 0-.079 1.098m6.683 4.18c0 .21.105.408.28.527l3.784 2.554a.64.64 0 0 0 .786-.05l3.174-2.803a.633.633 0 0 0-.028-.974l-3.031-2.393a.65.65 0 0 0-.76-.028l-3.925 2.65a.64.64 0 0 0-.28.516m-9.412 3.473a.64.64 0 0 1 .211.538.62.62 0 0 1-.32.485l-2.259 1.337a.645.645 0 0 1-.727-.048.64.64 0 0 1-.213-.693l.836-2.596a.64.64 0 0 1 .441-.421.63.63 0 0 1 .596.139zm12.257.27-4.086-2.76a.65.65 0 0 0-.717 0l-4.086 2.76a.65.65 0 0 0-.28.486.65.65 0 0 0 .215.52l4.082 3.606a.645.645 0 0 0 .854 0l4.082-3.605a.64.64 0 0 0-.064-1.006m-10.898-.712L2.383 7.878a.647.647 0 0 1 .025-.985L5.44 4.486a.66.66 0 0 1 .764-.028l3.921 2.65a.638.638 0 0 1 0 1.07l-3.78 2.552a.65.65 0 0 1-.79-.05m16.282 4.026-3.228-1.908a.64.64 0 0 0-.754.071l-3.946 3.477a.636.636 0 0 0 .187 1.07l5.474 2.19a.64.64 0 0 0 .825-.332l1.697-3.752a.636.636 0 0 0-.255-.816m.448-4.561.836 2.596h-.007a.64.64 0 0 1-.095.57.643.643 0 0 1-.845.172l-2.263-1.338a.62.62 0 0 1-.309-.485.63.63 0 0 1 .212-.538l1.435-1.263a.65.65 0 0 1 .595-.139c.21.06.375.219.441.425m-11.973 6.786a.63.63 0 0 0-.205-.585L6.16 12.87a.64.64 0 0 0-.753-.071l-3.228 1.908a.644.644 0 0 0-.259.813l1.7 3.751c.141.313.506.46.826.332l5.47-2.19a.64.64 0 0 0 .394-.481m1.937 1.07 4.39 1.754a.639.639 0 0 1 .115 1.116l-4.394 3.014A.64.64 0 0 1 12 24a.65.65 0 0 1-.359-.114l-4.39-3.014a.63.63 0 0 1-.276-.595.65.65 0 0 1 .401-.52l4.39-1.755a.66.66 0 0 1 .482 0" clip-rule="evenodd" data-iconColor="RedwoodJS"/></svg>