<svg xmlns="http://www.w3.org/2000/svg" xmlns:xlink="http://www.w3.org/1999/xlink" viewBox="0 0 48 48"><defs><linearGradient id="b" x1="50%" x2="50%" y1="0%" y2="100%"><stop offset="0%" stop-color="#fada00"/><stop offset="100%" stop-color="#f38c00"/></linearGradient><linearGradient id="c" x1="50%" x2="50%" y1="0%" y2="100%"><stop offset="0%" stop-opacity=".05"/><stop offset="100%" stop-opacity=".1"/></linearGradient><filter id="a" width="115.9%" height="115.9%" x="-8%" y="-5.7%" filterUnits="objectBoundingBox"><feOffset dy="1" in="SourceAlpha" result="shadowOffsetOuter1"/><feGaussianBlur in="shadowOffsetOuter1" result="shadowBlurOuter1" stdDeviation="1"/><feColorMatrix in="shadowBlurOuter1" result="shadowMatrixOuter1" values="0 0 0 0 0 0 0 0 0 0 0 0 0 0 0 0 0 0 0.2 0"/><feMerge><feMergeNode in="shadowMatrixOuter1"/><feMergeNode in="SourceGraphic"/></feMerge></filter></defs><g fill="none" fill-rule="evenodd" filter="url(#a)" transform="translate(2 2)"><circle cx="22" cy="22" r="22" fill="url(#b)" fill-rule="nonzero"/><path fill="url(#c)" fill-rule="nonzero" d="M22 0c12.15 0 22 9.85 22 22s-9.85 22-22 22S0 34.15 0 22 9.85 0 22 0m0 1C10.402 1 1 10.402 1 22s9.402 21 21 21 21-9.402 21-21S33.598 1 22 1"/><path stroke="#fff" stroke-linecap="round" stroke-linejoin="round" stroke-width="2" d="M33.405 16.008A12.52 12.52 0 0 0 22.27 9.213c-6.914 0-12.519 5.605-12.519 12.518S15.355 34.25 22.269 34.25a12.5 12.5 0 0 0 10.027-5.023q.486-.65.887-1.36"/><path fill="#fff" d="M36 8v10H26z"/></g></svg>