<svg xmlns="http://www.w3.org/2000/svg" viewBox="0 0 64 64"><path d="M31.718 5.001q-1.295.012-2.583.142a1.01 1.01 0 0 0-.898.854l-.543 3.54q-1.889.346-3.698.988L21.764 7.74a1.01 1.01 0 0 0-1.204-.29 28 28 0 0 0-4.968 2.876 1.01 1.01 0 0 0-.35 1.188l1.296 3.321a24 24 0 0 0-2.717 2.696l-3.3-1.283a1.01 1.01 0 0 0-1.186.35 28 28 0 0 0-2.872 4.976 1.01 1.01 0 0 0 .292 1.202l2.717 2.182c-.22.608-.441 1.214-.611 1.837l-.005.016c-.16.623-.263 1.258-.372 1.892l-3.479.533a1.01 1.01 0 0 0-.854.896 28 28 0 0 0-.008 5.737 1.01 1.01 0 0 0 .854.899l3.54.54q.346 1.888.988 3.698l-2.786 2.23a1.01 1.01 0 0 0-.292 1.204 28 28 0 0 0 2.878 4.97 1.01 1.01 0 0 0 1.188.348l3.316-1.294a24 24 0 0 0 2.701 2.717l-1.283 3.3a1.01 1.01 0 0 0 .35 1.189 28 28 0 0 0 4.978 2.87 1.01 1.01 0 0 0 1.202-.29l2.18-2.72c.607.22 1.213.444 1.837.614l.015.003c.624.159 1.259.265 1.893.374l.532 3.473a1.01 1.01 0 0 0 .896.854 28 28 0 0 0 5.737.01 1.01 1.01 0 0 0 .9-.853l.542-3.54q1.887-.345 3.695-.985l2.232 2.786a1.01 1.01 0 0 0 1.205.29 28 28 0 0 0 4.97-2.878 1.01 1.01 0 0 0 .348-1.186l-1.294-3.318a24 24 0 0 0 2.714-2.702l3.3 1.284a1.01 1.01 0 0 0 1.186-.348 28 28 0 0 0 2.873-4.979 1.01 1.01 0 0 0-.293-1.204l-2.717-2.177c.22-.61.444-1.217.614-1.842l.003-.013c.16-.624.264-1.259.374-1.893l3.476-.535a1.01 1.01 0 0 0 .854-.893 28 28 0 0 0 .008-5.738 1.01 1.01 0 0 0-.854-.898l-3.54-.54A24 24 0 0 0 54.475 25l2.788-2.235a1.01 1.01 0 0 0 .29-1.204 28 28 0 0 0-2.878-4.968 1.01 1.01 0 0 0-1.188-.35l-3.318 1.294a24 24 0 0 0-2.699-2.715l1.284-3.297a1.01 1.01 0 0 0-.35-1.189 28 28 0 0 0-4.977-2.872 1.01 1.01 0 0 0-1.201.292l-2.18 2.717c-.608-.22-1.215-.441-1.84-.611l-.015-.005c-.624-.16-1.258-.265-1.892-.375l-.53-3.476a1.01 1.01 0 0 0-.896-.854q-1.573-.165-3.155-.15" opacity=".2"/><path fill="#cdd2d3" d="M31.718 4.001q-1.295.012-2.583.142a1.01 1.01 0 0 0-.898.854l-.543 3.54q-1.889.346-3.698.988L21.764 6.74a1.01 1.01 0 0 0-1.204-.29 28 28 0 0 0-4.968 2.876 1.01 1.01 0 0 0-.35 1.188l1.296 3.321a24 24 0 0 0-2.717 2.696l-3.3-1.283a1.01 1.01 0 0 0-1.186.35 28 28 0 0 0-2.872 4.976 1.01 1.01 0 0 0 .292 1.202l2.717 2.182c-.22.608-.441 1.213-.611 1.837l-.005.016c-.16.623-.263 1.258-.372 1.892l-3.479.532a1.01 1.01 0 0 0-.854.897 28 28 0 0 0-.008 5.737 1.01 1.01 0 0 0 .854.899l3.54.54q.346 1.888.988 3.698l-2.786 2.23a1.01 1.01 0 0 0-.292 1.204 28 28 0 0 0 2.878 4.97 1.01 1.01 0 0 0 1.188.348l3.316-1.294a24 24 0 0 0 2.701 2.717l-1.283 3.3a1.01 1.01 0 0 0 .35 1.189 28 28 0 0 0 4.978 2.87 1.01 1.01 0 0 0 1.202-.29l2.18-2.72c.607.22 1.213.444 1.837.614l.015.003c.624.159 1.259.265 1.893.374l.532 3.473a1.01 1.01 0 0 0 .896.854 28 28 0 0 0 5.737.01 1.01 1.01 0 0 0 .9-.853l.542-3.54q1.887-.345 3.695-.985l2.232 2.786a1.01 1.01 0 0 0 1.205.29 28 28 0 0 0 4.97-2.879 1.01 1.01 0 0 0 .348-1.185l-1.294-3.319a24 24 0 0 0 2.714-2.7l3.3 1.283a1.01 1.01 0 0 0 1.186-.348 28 28 0 0 0 2.873-4.979 1.01 1.01 0 0 0-.293-1.204l-2.717-2.177c.22-.61.444-1.217.614-1.842l.003-.014c.16-.623.264-1.258.374-1.892l3.476-.535a1.01 1.01 0 0 0 .854-.893 28 28 0 0 0 .008-5.738 1.01 1.01 0 0 0-.854-.899l-3.54-.54A24 24 0 0 0 54.475 24l2.788-2.235a1.01 1.01 0 0 0 .29-1.204 28 28 0 0 0-2.878-4.968 1.01 1.01 0 0 0-1.188-.35l-3.318 1.294a24 24 0 0 0-2.699-2.715l1.284-3.297a1.01 1.01 0 0 0-.35-1.189 28 28 0 0 0-4.977-2.872 1.01 1.01 0 0 0-1.201.292l-2.18 2.717c-.608-.22-1.215-.441-1.84-.611l-.015-.005c-.624-.16-1.258-.265-1.892-.375l-.53-3.476a1.01 1.01 0 0 0-.896-.854q-1.573-.165-3.155-.15"/><rect width="36" height="36" x="14" y="15" opacity=".1" rx="18"/><rect width="36" height="36" x="14" y="14" fill="#1486ff" rx="18"/><path d="M32 15c-1.307 0-2.578.144-3.804.406L26.6 18.6l-2.412-1.808a17.95 17.95 0 0 0-9.228 10.425l3.54-1.416 2.7 1.8.9-2.7 11.7-6.3-.713-3.565c-.36-.02-.721-.035-1.087-.035m13.33 5.911-.73 2.19.9.899-3.6 5.4 1.8 6.3 5.97.747c.214-1.116.33-2.266.33-3.447 0-3.082-.771-5.976-2.125-8.508L46.4 24l.536-1.074a18 18 0 0 0-1.606-2.015M14.357 29.4a18.3 18.3 0 0 0-.343 3.043L20.3 34.8l-.9-2.7-1.8-2.7zm5.943 5.4 4.5 10.8v3.904A18 18 0 0 0 32 51c.179 0 .354-.007.533-.012L38.3 41.1 23.9 33Z" opacity=".2"/><path fill="#55f38d" d="M32 14c-1.307 0-2.578.144-3.804.406L26.6 17.6l-2.412-1.808a17.95 17.95 0 0 0-9.228 10.425l3.54-1.416 2.7 1.8.9-2.7 11.7-6.3-.713-3.565c-.36-.02-.721-.035-1.087-.035m13.33 5.911-.73 2.19.9.899-3.6 5.4 1.8 6.3 5.97.747c.214-1.116.33-2.266.33-3.447 0-3.082-.771-5.976-2.125-8.508L46.4 23l.536-1.074a18 18 0 0 0-1.606-2.015M14.357 28.4a18.3 18.3 0 0 0-.343 3.043L20.3 33.8l-.9-2.7-1.8-2.7zm5.943 5.4 4.5 10.8v3.904A18 18 0 0 0 32 50c.179 0 .354-.007.533-.012L38.3 40.1 23.9 32Z"/><path fill="#fff" d="M31.719 4.002a28 28 0 0 0-2.584.14 1.01 1.01 0 0 0-.899.856l-.543 3.54q-1.887.346-3.697.987L21.764 6.74a1.01 1.01 0 0 0-1.203-.29 28 28 0 0 0-4.97 2.874 1.01 1.01 0 0 0-.349 1.19l.057.144a1 1 0 0 1 .293-.334A28 28 0 0 1 20.56 7.45a1.01 1.01 0 0 1 1.203.291l2.232 2.785a24 24 0 0 1 3.697-.988l.543-3.539a1.01 1.01 0 0 1 .899-.855 28 28 0 0 1 5.738.01 1.01 1.01 0 0 1 .897.853l.529 3.476c.634.11 1.269.213 1.892.373l.016.006c.624.17 1.231.392 1.84.612l2.18-2.717a1.01 1.01 0 0 1 1.2-.293 28 28 0 0 1 4.975 2.873 1 1 0 0 1 .295.332l.057-.145a1.01 1.01 0 0 0-.352-1.187 28 28 0 0 0-4.974-2.873 1.01 1.01 0 0 0-1.201.293l-2.18 2.717c-.609-.22-1.216-.442-1.84-.612l-.016-.006c-.623-.16-1.258-.265-1.892-.375l-.53-3.474a1.01 1.01 0 0 0-.896-.856q-1.573-.163-3.154-.148m16.037 10.084-.285.734a24 24 0 0 1 2.697 2.715l3.318-1.293a1.01 1.01 0 0 1 1.19.35 28 28 0 0 1 2.834 4.88 1.01 1.01 0 0 0 .043-.911 28 28 0 0 0-2.877-4.97 1.01 1.01 0 0 0-1.19-.349l-3.318 1.293a24 24 0 0 0-2.412-2.45m-31.506.012a24 24 0 0 0-2.43 2.431l-3.299-1.283a1.01 1.01 0 0 0-1.185.352 28 28 0 0 0-2.873 4.974 1.01 1.01 0 0 0 .043.908 28 28 0 0 1 2.83-4.882 1.01 1.01 0 0 1 1.185-.352l3.3 1.285a24 24 0 0 1 2.716-2.697zM9.195 24.734c-.121.35-.236.703-.334 1.06l-.006.017c-.159.623-.262 1.256-.37 1.89l-3.48.533a1.01 1.01 0 0 0-.855.897 28 28 0 0 0-.136 3.394 28 28 0 0 1 .136-2.394 1.01 1.01 0 0 1 .856-.897l3.478-.53c.11-.635.212-1.27.371-1.893l.006-.016c.17-.624.392-1.23.612-1.838zm45.53.067-.25.199q.642 1.807.988 3.693l3.539.541a1.01 1.01 0 0 1 .855.899c.08.779.116 1.561.13 2.344a28 28 0 0 0-.13-3.344 1.01 1.01 0 0 0-.855-.899l-3.54-.54a24 24 0 0 0-.737-2.893M9.277 40.203 6.74 42.234a1.01 1.01 0 0 0-.293 1.205l.043.09a1 1 0 0 1 .25-.295l2.785-2.23c-.093-.264-.163-.534-.248-.8m45.528.067q-.136.39-.278.777l2.717 2.178a1 1 0 0 1 .25.293l.043-.09a1.01 1.01 0 0 0-.293-1.203zm-7.053 10.638c-.098.086-.188.18-.287.264l1.238 3.172a1.01 1.01 0 0 0 .057-.854zm-31.508.006-.998 2.566a1.01 1.01 0 0 0 .057.854l1.226-3.154c-.099-.085-.187-.18-.285-.266" opacity=".2"/></svg>