<svg xmlns="http://www.w3.org/2000/svg" viewBox="0 0 24 24"><g fill="#303030"><path d="M10 6a2 2 0 1 0 0 4 2 2 0 0 0 0-4m0-1a3 3 0 1 1 0 6 3 3 0 0 1 0-6m5 3c0 1.001-.301 1.96-.844 2.77.247.15.537.234.844.234.886 0 1.594-.689 1.594-1.525 0-.838-.708-1.528-1.594-1.528zm0-1.049c1.433 0 2.594 1.132 2.594 2.528 0 1.395-1.161 2.525-2.594 2.525a2.6 2.6 0 0 1-2.184-1.174 3.99 3.99 0 0 0 1.1-3.64A2.6 2.6 0 0 1 15 6.95M10 14c-2.324.001-3.711.618-4.45 1.602a2.8 2.8 0 0 0-.486 1.019c-.05.196-.064.335-.064.383a5808 5808 0 0 0 7 0V15c0-.272.054-.531.153-.767C11.543 14.08 10.829 14 10 14m0-1c1.955-.001 3.266.427 4.154 1H14a1 1 0 0 0-1 1v2a1 1 0 0 0 1 1c3.517.002-9.12.007-10 .004v-1s0-4 6-4.004"/><path d="M16 13v2h-2v1h2v2h1v-2h2v-1h-2v-2z"/></g></svg>