<svg xmlns="http://www.w3.org/2000/svg" xmlns:xlink="http://www.w3.org/1999/xlink" viewBox="0 0 32 32"><defs><filter id="a" width="1.299" height="1.2" x="-.15" y="-.1" color-interpolation-filters="sRGB"><feGaussianBlur stdDeviation=".812"/></filter></defs><path d="M4.96 4.734a1 1 0 0 0-.96 1l.002 15.233a1 1 0 0 0 .715.957l7.484 2.232a1 1 0 0 0 1.178-.506l3.543-6.959a1 1 0 0 0-.201-1.177L5.689 5.01a1 1 0 0 0-.728-.276M6 8.068l8.803 8.38L11.975 22l-5.973-1.78Z" color="#000" enable-background="accumulate" filter="url(#a)" font-family="sans-serif" font-weight="400" opacity=".35" overflow="visible" paint-order="stroke fill markers" style="line-height:normal;font-variant-ligatures:normal;font-variant-position:normal;font-variant-caps:normal;font-variant-numeric:normal;font-variant-alternates:normal;font-feature-settings:normal;text-indent:0;text-align:start;text-decoration-line:none;text-decoration-style:solid;text-decoration-color:#000;text-transform:none;text-orientation:mixed;white-space:normal;shape-padding:0;isolation:auto;mix-blend-mode:normal;solid-color:#000;solid-opacity:1" transform="matrix(-1 0 0 1 32 0)"/><path fill="#fff" d="M4.96 4A1 1 0 0 0 4 5l.002 15.232a1 1 0 0 0 .715.957l7.484 2.233a1 1 0 0 0 1.178-.506l3.543-6.959a1 1 0 0 0-.201-1.178L5.689 4.275A1 1 0 0 0 4.961 4M6 7.334l8.803 8.379-2.828 5.553-5.973-1.78Z" color="#000" enable-background="accumulate" font-family="sans-serif" font-weight="400" overflow="visible" paint-order="stroke fill markers" style="line-height:normal;font-variant-ligatures:normal;font-variant-position:normal;font-variant-caps:normal;font-variant-numeric:normal;font-variant-alternates:normal;font-feature-settings:normal;text-indent:0;text-align:start;text-decoration-line:none;text-decoration-style:solid;text-decoration-color:#000;text-transform:none;text-orientation:mixed;white-space:normal;shape-padding:0;isolation:auto;mix-blend-mode:normal;solid-color:#000;solid-opacity:1" transform="matrix(-1 0 0 1 32 0)"/><path fill="#282a33" d="m27 5-.002 15.232-7.485 2.23-3.544-6.959z" paint-order="stroke fill markers"/></svg>