<svg xmlns="http://www.w3.org/2000/svg" viewBox="0 0 24 24"><g fill="#ed1846" data-iconColor="Riot"><path d="M3 3.165C3 3.074 3.074 3 3.165 3h12.232c3.243 0 5.872 2.64 5.872 5.897v1.145a.165.165 0 0 1-.164.165h-3.586a.165.165 0 0 1-.165-.165V8.897a1.96 1.96 0 0 0-1.957-1.966H7.079a.165.165 0 0 0-.164.165v13.428a.16.16 0 0 1-.165.162A3.924 3.924 0 0 1 3 16.76z"/><path d="M10.342 10.862a.16.16 0 0 0-.161.165 3.92 3.92 0 0 0 3.911 3.766h2.61c.36 0 .652.293.652.655v5.076a.16.16 0 0 0 .165.162 3.924 3.924 0 0 0 3.75-3.927v-1.31c0-2.534-2.045-4.587-4.567-4.587z"/></g></svg>