<svg xmlns="http://www.w3.org/2000/svg" viewBox="0 0 512 512"><path fill="#ffcb6b" d="m192.935 326.542 37.248-38.801a8.25 8.25 0 0 1 6.974-2.48 8.27 8.27 0 0 1 6.165 4.096L288.7 368.56c3.575 5.563 6.495 7.57 7.917 7.593 1.492-.001 4.666-2.015 8.677-7.829l21.393-34.559a8.27 8.27 0 0 1 7.03-3.916H450.4c8.67-57.916.73-124.855.73-124.855s-4.482-75.709-73.413-120.888c-42.15 37.99-84.148 41.527-123.704 41.527h-.98c-34.73-.05-77.729-.119-118.1-44.28-44.5 27.859-73.023 74.147-77.384 135.217v105.837s.035 1.485.269 4.135zM316.546 203.34h59.114v40.515h-59.114zm-181.274 0H298.84v40.515H135.272zm22.456-134.034c26.92-11.868 58.18-18.107 92.477-18.107 43.478 0 77.57 7.9 104.295 20.12-33.6 27.152-66.045 29.537-101.431 29.507-37.133-.053-66.327-2.512-95.341-31.52m289.657 277.079c1.41 13.023-7.833 38.684-19.356 50.846-44.65 47.131-77.647 67.174-216.558 63.04-107.948-3.213-143.498-80.221-151.16-117.193h136.148a8.27 8.27 0 0 0 5.965-2.542l32.04-33.376 39.987 69.794q.096.17.2.333c6.426 10.087 13.724 15.268 21.69 15.4l.31.002c7.963 0 15.495-5.103 22.39-15.174a8 8 0 0 0 .208-.319l19.073-30.811z" data-iconColor="Robot"/></svg>