<svg xmlns="http://www.w3.org/2000/svg" xmlns:xlink="http://www.w3.org/1999/xlink" viewBox="0 0 96 96"><defs><linearGradient id="b" x1="50%" x2="50%" y1="0%" y2="100%"><stop offset="0%" stop-color="#44b"/><stop offset="100%" stop-color="#13133b"/></linearGradient><linearGradient id="c" x1="50%" x2="50%" y1="0%" y2="95.891%"><stop offset="0%" stop-color="#39399c"/><stop offset="100%" stop-color="#1d1d7d"/></linearGradient><linearGradient id="d" x1="50%" x2="50%" y1="0%" y2="100%"><stop offset="0%" stop-color="#515151"/><stop offset="54.345%" stop-color="#ececec"/><stop offset="73.737%" stop-color="#d1d1d1"/><stop offset="100%" stop-color="#727272"/></linearGradient><linearGradient id="e" x1="50%" x2="50.002%" y1="43.772%" y2="52.981%"><stop offset="0%" stop-color="#515151"/><stop offset="54.345%" stop-color="#ececec"/><stop offset="100%" stop-color="#727272"/></linearGradient><linearGradient id="f" x1="50%" x2="50%" y1="0%" y2="73.931%"><stop offset="0%" stop-color="#515151"/><stop offset="54.345%" stop-color="#ececec"/><stop offset="100%" stop-color="#727272"/></linearGradient><linearGradient id="g" x1="50%" x2="50.002%" y1="10.494%" y2="68.909%"><stop offset="0%" stop-color="#515151"/><stop offset="54.345%" stop-color="#ececec"/><stop offset="100%" stop-color="#727272"/></linearGradient><linearGradient id="h" x1="50%" x2="50.002%" y1="0%" y2="73.931%"><stop offset="0%" stop-color="#515151"/><stop offset="54.345%" stop-color="#ececec"/><stop offset="100%" stop-color="#727272"/></linearGradient><linearGradient id="i" x1="50%" x2="50%" y1="61.532%" y2="100%"><stop offset="0%" stop-color="#ccccfb"/><stop offset="100%" stop-color="#9b9bff"/></linearGradient><filter id="a" width="137.5%" height="132.5%" x="-18.8%" y="-16.9%" filterUnits="objectBoundingBox"><feOffset dy="2" in="SourceAlpha" result="shadowOffsetOuter1"/><feGaussianBlur in="shadowOffsetOuter1" result="shadowBlurOuter1" stdDeviation="2"/><feComposite in="shadowBlurOuter1" in2="SourceAlpha" operator="out" result="shadowBlurOuter1"/><feColorMatrix in="shadowBlurOuter1" result="shadowMatrixOuter1" values="0 0 0 0 0 0 0 0 0 0 0 0 0 0 0 0 0 0 0.2 0"/><feMerge><feMergeNode in="shadowMatrixOuter1"/><feMergeNode in="SourceGraphic"/></feMerge></filter></defs><g fill="none" fill-rule="evenodd" filter="url(#a)" transform="translate(16 9)"><path fill="url(#b)" stroke="#464646" d="M50.182 71.182A4.5 4.5 0 0 1 47 72.5H17a4.5 4.5 0 0 1-3.182-1.318A4.5 4.5 0 0 1 12.5 68V16c0-1.243.504-2.368 1.318-3.182A4.5 4.5 0 0 1 17 11.5h30c1.243 0 2.368.504 3.182 1.318A4.5 4.5 0 0 1 51.5 16v52a4.5 4.5 0 0 1-1.318 3.182Z"/><path stroke="#000" stroke-opacity=".704" d="M21.5 72.5v-6m21 6v-6"/><path fill="url(#c)" stroke="#464646" d="M41 76.5H23a1.5 1.5 0 0 1-1.06-.44A1.5 1.5 0 0 1 21.5 75v-2.5h21V75c0 .414-.168.79-.44 1.06a1.5 1.5 0 0 1-1.06.44Z"/><g fill="url(#d)" stroke="#878787" transform="translate(0 12)"><path d="M1 17.5.5 11l2-.5V2c0-.414.168-.79.44-1.06C3.21.667 3.585.5 4 .5h6c.414 0 .79.168 1.06.44.272.27.44.646.44 1.06v16c0 .414-.168.79-.44 1.06a1.5 1.5 0 0 1-1.06.44H4a1.5 1.5 0 0 1-1.06-.44 1.51 1.51 0 0 1-.36-1.56z"/><path d="m63 17.5.5-6.5-2-.5V2c0-.414-.168-.79-.44-1.06A1.5 1.5 0 0 0 60 .5h-6c-.414 0-.79.168-1.06.44A1.5 1.5 0 0 0 52.5 2v16c0 .414.168.79.44 1.06.27.272.646.44 1.06.44h6c.414 0 .79-.168 1.06-.44.378-.377.555-.955.36-1.56z"/><path d="M11.5 24v16c0 .414-.168.79-.44 1.06a1.5 1.5 0 0 1-1.06.44H4a1.5 1.5 0 0 1-1.06-.44A1.5 1.5 0 0 1 2.5 40v-4.5H1L.5 29l2-.5V24c0-.414.168-.79.44-1.06A1.5 1.5 0 0 1 4 22.5h6c.414 0 .79.168 1.06.44.272.27.44.646.44 1.06Z"/><path d="M52.5 24v16c0 .414.168.79.44 1.06.27.272.646.44 1.06.44h6c.414 0 .79-.168 1.06-.44.272-.27.44-.646.44-1.06v-4.5H63l.5-6.5-2-.5V24c0-.414-.168-.79-.44-1.06A1.5 1.5 0 0 0 60 22.5h-6c-.414 0-.79.168-1.06.44A1.5 1.5 0 0 0 52.5 24Z"/><path d="M11.5 46v16c0 .414-.168.79-.44 1.06a1.5 1.5 0 0 1-1.06.44H4a1.5 1.5 0 0 1-1.06-.44A1.5 1.5 0 0 1 2.5 62v-8.5H1L.5 47l2.08-.5a1.51 1.51 0 0 1 .36-1.56A1.5 1.5 0 0 1 4 44.5h6c.414 0 .79.168 1.06.44.272.27.44.646.44 1.06Z"/><path d="M52.5 46v16c0 .414.168.79.44 1.06.27.272.646.44 1.06.44h6c.414 0 .79-.168 1.06-.44.272-.27.44-.646.44-1.06v-8.5H63l.5-6.5-2.08-.5a1.51 1.51 0 0 0-.36-1.56A1.5 1.5 0 0 0 60 44.5h-6c-.414 0-.79.168-1.06.44A1.5 1.5 0 0 0 52.5 46Z"/></g><path fill="#000" fill-rule="nonzero" d="M15.374 27c.845 0 1.54.595 1.619 1.356L17 28.5v4.037c0 .78-.645 1.42-1.47 1.494l-.156.006H13v-1h2.374a.53.53 0 0 0 .533-.41l.009-.09V28.5c0-.245-.192-.45-.445-.492L15.374 28H13v-1zm33.252 0c-.845 0-1.54.595-1.619 1.356L47 28.5v4.037c0 .78.645 1.42 1.47 1.494l.156.006H51v-1h-2.374a.53.53 0 0 1-.533-.41l-.009-.09V28.5c0-.245.192-.45.445-.492l.097-.008H51v-1z" opacity=".49"/><rect width="9" height="9" x="14.5" y="13.5" stroke="#efefef" opacity=".643" rx="2"/><rect width="9" height="9" x="40.5" y="13.5" stroke="#efefef" opacity=".643" rx="2"/><path fill="#999" stroke="#4a4a4a" d="m25.266 34-3.772 2.232L18.53 38l1.649 20h22.03l1.58-20-5.864-4v-4l10.708 5.763L46.819 66H16.19L15 35.763 25.266 30z"/><g stroke="#464646" transform="translate(24.5)"><rect width="18" height="7" x="-1.5" y="11" fill="url(#e)" rx="2" transform="matrix(0 1 1 0 -7 7)"/><rect width="3" height="15" x="6" y="-2.5" fill="url(#f)" rx="1.5" transform="matrix(0 1 1 0 2.5 -2.5)"/><rect width="10" height="9" x="2.5" fill="url(#g)" rx="2" transform="matrix(0 1 1 0 3 -3)"/><rect width="15" height="15" y="19.5" fill="url(#h)" rx="2" transform="matrix(0 1 1 0 -19.5 19.5)"/></g><path stroke="#4a4a4a" d="m20.179 58-3.99 8m26.02-8 4.61 8"/><path fill="#999" stroke="#4a4a4a" d="m39.618 45.314-2.99.582c-.01-2.308-.429-3.977-1.363-5.033-.834-.943-2.074-1.363-3.716-1.363-1.606 0-2.825.401-3.656 1.3-.907.984-1.342 2.526-1.399 4.648l-3.005.33c.011-3.111.778-5.464 2.208-7.021 1.353-1.473 3.306-2.257 5.852-2.257 2.493 0 4.42.752 5.772 2.168 1.413 1.48 2.207 3.705 2.297 6.646Z"/><path fill="url(#i)" stroke="#4a4a4a" d="M14 36.503c3.546 7.103 9.74 14.39 18.054 14.39 8.315 0 12.522-6.46 17.49-14.39-12.046 10.108-22.496 11.144-35.544 0Z"/></g></svg>