<svg xmlns="http://www.w3.org/2000/svg" viewBox="0 0 64 64"><rect width="55.999" height="6" x="4" y="40" opacity=".2" rx="1.4" ry="1.5"/><rect width="55.999" height="6" x="4" y="39" fill="#0a6ab1" rx="1.4" ry="1.5"/><path d="M6 39h52v1H6z" opacity=".2"/><path fill="#239af3" d="M12.831 13s-2.75.297-3.3 3.227l-3.53 14.038V39H58v-4.68c0-1.169-.214-1.32-1.088-1.32H30V14.009S29.953 13 28.967 13z"/><path d="M12.95 16c-.02.004-.093.013-.31.137-.241.14-.398.161-.523.816a3 3 0 0 1-.039.168l-3.277 12.88h11.2V16ZM7 32v4a2 2 0 1 0 0-4" opacity=".2"/><path fill="#fff" d="M9 33a2 2 0 0 1-2 2v-4a2 2 0 0 1 2 2"/><path d="M16 32h4v1h-4z" opacity=".3"/><path fill="#fff" d="M12.948 15H20v14H8.8l3.28-12.88a2.86 2.826 0 0 0 .036-.168c.124-.655.283-.677.525-.816.216-.125.287-.132.307-.136"/><circle cx="17" cy="45" r="7" opacity=".2"/><circle cx="17" cy="44" r="7" fill="#4f4f4f"/><circle cx="47" cy="45" r="7" opacity=".2"/><circle cx="47" cy="44" r="7" fill="#4f4f4f"/><circle cx="17" cy="44" r="3" opacity=".4"/><circle cx="47" cy="44" r="3" opacity=".4"/><path fill="#fff" d="M12.832 13s-2.752.297-3.3 3.227L6 30.266v1l3.531-14.04c.55-2.929 3.301-3.226 3.301-3.226h16.137C29.954 14 30 15.008 30 15.008v-1S29.954 13 28.969 13zM30 33v1h26.91c.875 0 1.09.151 1.09 1.32v-1c0-1.169-.215-1.32-1.09-1.32z" opacity=".2"/></svg>