<svg xmlns="http://www.w3.org/2000/svg" viewBox="0 0 64 64"><rect width="56" height="56" x="4" y="5" opacity=".2" rx="2.8" ry="2.8"/><rect width="56" height="56" x="4" y="4" fill="#4f4f4f" rx="2.8" ry="2.8"/><path d="M28 23v32h6V43h3.91l9.117 12h7.54l-9.5-12.504A9.95 9.95 0 0 0 52 33c0-5.523-4.425-10-9.883-10H34Zm6 6h5.707C42.113 29 44 30.565 44 33s-1.887 4-4.293 4H34Zm-24 2v24h6V37h9v-6c-3.023-.013-6.671.707-9 2.055V31Z" opacity=".2"/><path fill="#fff" d="m41.79 37.184-4.778 3.632L47.027 54h7.54z"/><path fill="#9c9c9c" d="M10 30h6v24h-6z"/><path fill="#9c9c9c" d="M25 30v6H11.4c3.226-3.91 8.368-6.023 13.6-6"/><path fill="#fff" d="M28 22h6v32h-6z"/><path fill="#fff" d="M28 22v20h14.118C47.576 42 52 37.523 52 32s-4.424-10-9.882-10Zm6 6h5.706C42.112 28 44 29.565 44 32s-1.888 4-4.294 4H34Z"/><path fill="#fff" d="M6.8 4C5.25 4 4 5.25 4 6.8v1C4 6.25 5.25 5 6.8 5h50.4C58.75 5 60 6.25 60 7.8v-1C60 5.25 58.75 4 57.2 4z" opacity=".1"/></svg>