<svg xmlns="http://www.w3.org/2000/svg" viewBox="0 0 64 64"><path d="M32 6c-.69.003-1.033.201-2.242 1.291-4.648 4.19-11.898 6.274-21.014 5.665-4.488-.3-4.75-.103-4.744 3.56.002 1.091.101 3.683.222 5.762.887 15.328 4.05 22.615 12.151 28.547 3.559 2.606 8.45 5.3 13.327 7.344 1.083.454 2.099.827 2.256.831.01 0 .032-.005.044-.005s.034.005.044.005c.157-.004 1.173-.377 2.256-.83 4.877-2.044 9.768-4.739 13.327-7.345 8.1-5.932 11.264-13.22 12.151-28.547.12-2.079.22-4.67.222-5.762.006-3.663-.256-3.86-4.744-3.56-9.116.61-16.366-1.476-21.014-5.665C33.032 6.201 32.69 6.003 32 6" opacity=".2"/><path fill="#ed5125" d="M32 5c-.69.003-1.033.201-2.242 1.291-4.648 4.19-11.898 6.274-21.014 5.665-4.488-.3-4.75-.103-4.744 3.56.002 1.091.101 3.683.222 5.762.887 15.328 4.05 22.615 12.151 28.547 3.559 2.606 8.45 5.3 13.327 7.344 1.083.454 2.099.827 2.256.831.01 0 .032-.005.044-.005s.034.005.044.005c.157-.004 1.173-.377 2.256-.83 4.877-2.044 9.768-4.739 13.327-7.345 8.1-5.932 11.264-13.22 12.151-28.547.12-2.079.22-4.67.222-5.762.006-3.663-.256-3.86-4.744-3.56-9.116.61-16.366-1.476-21.014-5.665C33.032 5.201 32.69 5.003 32 5"/><path d="M32 20.66v4.238c2.084.768 4.018 1.763 5.709 2.977C42.156 31.068 45 35.619 45 42h4c0-7.619-3.656-13.568-8.959-17.375-2.405-1.727-5.136-3.04-8.041-3.965m0 7.367v4.407c.549.284 1.066.59 1.541.918 2.943 2.035 4.522 4.726 4.459 8.617l4 .062c.082-5.109-2.34-9.31-6.184-11.969A19.6 19.6 0 0 0 32 28.027" opacity=".2"/><path d="M32 10.564c-5.684 4.884-13.887 7.027-23.523 6.383-.233-.015-.26-.006-.461-.017.014 1.033.091 3.256.199 5.117.43 7.426 1.42 12.627 3.056 16.457s3.845 6.442 7.465 9.094c3.21 2.35 7.91 4.955 12.51 6.882.282.119.503.201.754.3V40.5a5.5 5.5 0 0 1-5.5 5.5 5.5 5.5 0 0 1-5.5-5.5 5.5 5.5 0 0 1 5.5-5.5 5.5 5.5 0 0 1 5.5 5.5v-8.066c-2.852-1.478-6.661-2.347-11.04-2.434l.08-4c4.036.08 7.767.735 10.96 2.027v-3.129C28.603 23.648 24.806 23 21 23v-4c3.748 0 7.5.547 11 1.66z" opacity=".2"/><path fill="#d3d3d3" d="M32 9.564c-5.684 4.884-13.887 7.027-23.523 6.383-.233-.015-.26-.006-.461-.017.014 1.033.091 3.256.199 5.117.43 7.426 1.42 12.627 3.056 16.457s3.845 6.442 7.465 9.094c3.21 2.35 7.91 4.955 12.51 6.882.282.119.503.201.754.3V39.5a5.5 5.5 0 0 1-5.5 5.5 5.5 5.5 0 0 1-5.5-5.5 5.5 5.5 0 0 1 5.5-5.5 5.5 5.5 0 0 1 5.5 5.5v-8.066c-2.852-1.478-6.661-2.347-11.04-2.434l.08-4c4.036.08 7.767.735 10.96 2.027v-3.129C28.603 22.648 24.806 22 21 22v-4c3.748 0 7.5.547 11 1.66z"/><path fill="#fff" d="M32 19.66v4.238c2.084.768 4.018 1.763 5.709 2.977C42.156 30.068 45 34.619 45 41h4c0-7.619-3.656-13.568-8.959-17.375-2.405-1.727-5.136-3.04-8.041-3.965m0 7.367v4.407c.549.284 1.066.59 1.541.918 2.943 2.035 4.522 4.726 4.459 8.617l4 .062c.082-5.109-2.34-9.31-6.184-11.968A19.6 19.6 0 0 0 32 27.027"/><path fill="#fff" d="M32 5c-.69.003-1.033.201-2.242 1.291-4.648 4.19-11.898 6.275-21.014 5.666-4.488-.3-4.75-.105-4.744 3.559 0 .076.009.262.01.353.044-3.002.544-3.192 4.734-2.912 9.116.61 16.366-1.477 21.014-5.666C30.968 6.201 31.31 6.003 32 6c.69.003 1.033.201 2.242 1.291 4.648 4.19 11.898 6.275 21.014 5.666 4.19-.28 4.69-.09 4.734 2.912.001-.09.01-.277.01-.353.006-3.664-.256-3.859-4.744-3.559-9.116.61-16.366-1.477-21.014-5.666C33.032 5.201 32.69 5.003 32 5" opacity=".2"/><path fill="#fff" d="M32 9.564c-5.684 4.884-13.887 7.027-23.523 6.383-.233-.015-.26-.006-.461-.017.003.23.02.67.029 1.002.17.008.214 0 .432.015 9.636.644 17.839-1.499 23.523-6.383zM21 22v1c3.806 0 7.603.647 11 1.898v-1C28.603 22.648 24.806 22 21 22m-.02 7-.02 1c4.379.087 8.188.956 11.04 2.434v-1C29.152 29.958 25.35 29.09 20.98 29m10.975 10.842A5.5 5.5 0 0 1 26.5 45a5.5 5.5 0 0 1-5.434-5 6 6 0 0 0-.066.5 5.5 5.5 0 0 0 5.5 5.5 5.5 5.5 0 0 0 5.5-5.5 6 6 0 0 0-.045-.658" opacity=".2"/></svg>