<svg xmlns="http://www.w3.org/2000/svg" viewBox="0 0 24 24"><g fill="#536076"><path d="m10 10 4 2-4 2z"/><path d="M13 5v1.09c.89.15 1.736.5 2.473 1.023l.77-.77 1.413 1.415-.771.771c.525.736.876 1.58 1.03 2.471H19v2h-1.09c-.15.89-.5 1.736-1.023 2.473l.77.77-1.415 1.413-.771-.771A6 6 0 0 1 13 17.915V19h-2v-1.09a6 6 0 0 1-2.473-1.023l-.77.77-1.413-1.415.771-.771A6 6 0 0 1 6.085 13H5v-2h1.09a6 6 0 0 1 1.023-2.473l-.77-.77 1.415-1.413.771.771A6 6 0 0 1 11 6.085V5zm-1 2a5 5 0 1 0 0 10 5 5 0 0 0 0-10"/></g></svg>