<svg xmlns="http://www.w3.org/2000/svg" viewBox="0 0 24 24"><g fill="#303030"><path d="M10.997 8h1.01v4.825l1.729-1.51.707.707-2.943 2.806-2.7-2.796.713-.71 1.484 1.503z"/><path d="M10.571 5h1.858v1.012c.827.14 1.611.465 2.296.95l.714-.714 1.313 1.313-.716.716c.487.683.814 1.467.956 2.294H18v1.858h-1.012a5.6 5.6 0 0 1-.95 2.296l.714.714-1.313 1.313-.716-.716a5.6 5.6 0 0 1-2.294.956V18H10.57v-1.012a5.6 5.6 0 0 1-2.296-.95l-.714.714-1.313-1.313.716-.716a5.6 5.6 0 0 1-.956-2.294H5V10.57h1.012a5.6 5.6 0 0 1 .95-2.296l-.714-.714L7.56 6.248l.716.716a5.6 5.6 0 0 1 2.294-.956zm.929 11.143a4.643 4.643 0 1 0 0-9.286 4.643 4.643 0 0 0 0 9.286"/></g></svg>