<svg xmlns="http://www.w3.org/2000/svg" viewBox="0 0 24 24"><g fill="#303030"><path d="M11 5h2v1.09a6 6 0 0 1 2.473 1.023l.77-.77 1.413 1.415-.771.771A6 6 0 0 1 17.915 11H19v2h-1.09a6 6 0 0 1-1.023 2.473l.77.77-1.415 1.413-.771-.771A6 6 0 0 1 13 17.915V19h-2v-1.09a6 6 0 0 1-2.473-1.023l-.77.77-1.413-1.415.771-.771A6 6 0 0 1 6.085 13H5v-2h1.09a6 6 0 0 1 1.023-2.473l-.77-.77 1.415-1.413.771.771A6 6 0 0 1 11 6.085zm1 12a5 5 0 1 0 0-10 5 5 0 0 0 0 10"/><path d="M10 9h4v1h-4zm0 2h4v1h-4zm0 2h4v1h-4z"/></g></svg>