<svg xmlns="http://www.w3.org/2000/svg" viewBox="0 0 64 64"><path d="M14.908 5C8.865 5 4 9.932 4 16.059V40.94C4 47.068 8.865 52 14.908 52H19V5ZM45 14v47h4.092C55.135 61 60 56.068 60 49.941V25.06C60 18.932 55.135 14 49.092 14Zm-16.068 9-.74 4H24.54l-.523 3h3.677l-.986 6H22.97l-.522 3h3.766l-.988 5h2.841l.987-5h4.16l-.988 5h2.841l.987-5h3.718l.524-3H36.55l.988-6h3.8l.524-3H38.03l.742-4h-2.841l-.74 4H31.03l.742-4zm1.607 7h4.156l-.986 6h-4.158Z" opacity=".2"/><path fill="#02ace5" d="M19 4v47h-4.09C8.864 51 4 46.068 4 39.941V15.06C4 8.932 8.865 4 14.91 4Z"/><path fill="#ff4a3e" d="M45 13v47h4.09C55.136 60 60 55.068 60 48.941V24.06C60 17.932 55.135 13 49.09 13Zm-9.068 9-.741 4h-1.966l-.522 3h1.993l-.987 6h-2.054l-.522 3h2.081l-.987 5h2.841l.987-5h3.719l.522-3H36.55l.99-6h3.8l.523-3h-3.831l.741-4z"/><path fill="#02ace5" d="m28.932 22-.741 4h-3.65l-.523 3h3.678l-.987 6h-3.738l-.522 3h3.765l-.987 5h2.841l.987-5h2.078l.522-3H29.55l.99-6h2.163l.522-3h-2.193l.741-4z"/><path fill="#fff" d="M14.908 4C8.865 4 4 8.932 4 15.059v1C4 9.932 8.865 5 14.908 5H19V4zM45 13v1h4.092C55.135 14 60 18.932 60 25.059v-1C60 17.932 55.135 13 49.092 13zm-16.068 9-.74 4H24.54l-.523 3h.173l.35-2h3.65l.74-4h2.657l.185-1zm7 0-.74 4h-3.975l-.186 1h4.16l.74-4h2.657l.185-1zm2.285 4-.186 1h3.658l.174-1zM27.53 30l-.822 5H22.97l-.522 3h.174l.348-2h3.738l.986-6zm7 0-.822 5h-3.994l-.164 1h4.158l.986-6zm2.184 5-.164 1h3.572l.174-1zm-10.697 4-.791 4h.197l.79-4zm7 0-.791 4h.197l.79-4z" opacity=".2"/></svg>