<svg xmlns="http://www.w3.org/2000/svg" xmlns:xlink="http://www.w3.org/1999/xlink" viewBox="0 0 128 128"><defs><linearGradient id="c" x1="50%" x2="50%" y1="-2.143%" y2="100%"><stop offset="0%" stop-color="#7e7c7f"/><stop offset="13.973%" stop-color="#cbcbcb"/><stop offset="100%" stop-color="#787878"/></linearGradient><linearGradient id="f" x1="0%" x2="100%" y1="50.005%" y2="50%"><stop offset="0%" stop-color="#e7e7e7" stop-opacity="0"/><stop offset="49.866%" stop-color="#fff" stop-opacity=".602"/><stop offset="100%" stop-color="#fff" stop-opacity="0"/></linearGradient><linearGradient id="j" x1="50%" x2="50%" y1="0%" y2="100%"><stop offset="0%" stop-color="#c1c1c1"/><stop offset="100%" stop-color="#848384"/></linearGradient><linearGradient id="l" x1="50%" x2="50%" y1="-2.759%" y2="100%"><stop offset="0%" stop-color="#858585"/><stop offset="100%" stop-color="#5a5a5a"/></linearGradient><linearGradient id="m" x1="50%" x2="50%" y1="0%" y2="99.796%"><stop offset="0%" stop-color="#262c46"/><stop offset="100%" stop-color="#2f3045"/></linearGradient><linearGradient id="n" x1="50%" x2="50%" y1="-9.456%" y2="106.75%"><stop offset="0%" stop-color="#6b6a6d"/><stop offset="100%" stop-color="#d2d3d7"/></linearGradient><linearGradient id="p" x1="50%" x2="50%" y1="0%" y2="100%"><stop offset="0%" stop-color="#cfd6e0"/><stop offset="100%" stop-color="#6d6d6d"/></linearGradient><linearGradient id="r" x1="50%" x2="50%" y1="-2.759%" y2="97.642%"><stop offset="0%" stop-opacity=".494"/><stop offset="100%" stop-opacity=".885"/></linearGradient><linearGradient id="u" x1="50%" x2="50%" y1="0%" y2="100%"><stop offset="0%" stop-color="#d7dee6"/><stop offset="100%" stop-color="#aaabae"/></linearGradient><linearGradient id="v" x1="50%" x2="50%" y1="0%" y2="100%"><stop offset="0%" stop-color="#ebeef2"/><stop offset="100%" stop-color="#d5d6d7"/></linearGradient><linearGradient id="z" x1="50%" x2="50%" y1="0%" y2="100%"><stop offset="0%" stop-color="#f3f9fc"/><stop offset="100%" stop-color="#dedede"/></linearGradient><linearGradient id="B" x1="50%" x2="50%" y1="0%" y2="100%"><stop offset="0%" stop-color="#e0e0e0"/><stop offset="98.421%" stop-color="#6d6d6d"/></linearGradient><linearGradient id="D" x1="50%" x2="50%" y1="-18.646%" y2="100%"><stop offset="0%" stop-color="#c9c9c9"/><stop offset="100%" stop-color="#a6a6a6"/></linearGradient><linearGradient id="F" x1="50%" x2="50%" y1=".889%" y2="97.642%"><stop offset="0%" stop-opacity=".264"/><stop offset="100%" stop-opacity=".214"/></linearGradient><linearGradient id="K" x1="0%" x2="100%" y1="53.928%" y2="53.928%"><stop offset="0%" stop-color="#c0bebf"/><stop offset="36.898%" stop-color="#bcbbbb"/><stop offset="100%" stop-color="#848482"/></linearGradient><linearGradient id="L" x1="50%" x2="50%" y1=".325%" y2="100%"><stop offset="0%" stop-opacity=".125"/><stop offset="100%" stop-opacity=".175"/></linearGradient><filter id="a" width="130.8%" height="130.2%" x="-15.4%" y="-15.1%" filterUnits="objectBoundingBox"><feOffset dy="2" in="SourceAlpha" result="shadowOffsetOuter1"/><feGaussianBlur in="shadowOffsetOuter1" result="shadowBlurOuter1" stdDeviation="3"/><feColorMatrix in="shadowBlurOuter1" result="shadowMatrixOuter1" values="0 0 0 0 0 0 0 0 0 0 0 0 0 0 0 0 0 0 0.2 0"/><feMerge><feMergeNode in="shadowMatrixOuter1"/><feMergeNode in="SourceGraphic"/></feMerge></filter><filter id="e" width="114.4%" height="114.2%" x="-7.2%" y="-7.1%" filterUnits="objectBoundingBox"><feGaussianBlur in="SourceAlpha" result="shadowBlurInner1" stdDeviation="4"/><feOffset dy="-7" in="shadowBlurInner1" result="shadowOffsetInner1"/><feComposite in="shadowOffsetInner1" in2="SourceAlpha" k2="-1" k3="1" operator="arithmetic" result="shadowInnerInner1"/><feColorMatrix in="shadowInnerInner1" values="0 0 0 0 1 0 0 0 0 1 0 0 0 0 1 0 0 0 0.157998252 0"/></filter><filter id="g" width="101%" height="100%" x="-.5%" y="0%" filterUnits="objectBoundingBox"><feGaussianBlur in="SourceGraphic"/></filter><filter id="i" width="102.3%" height="105.3%" x="-1.2%" y="-1.3%" filterUnits="objectBoundingBox"><feOffset dy="2" in="SourceAlpha" result="shadowOffsetOuter1"/><feColorMatrix in="shadowOffsetOuter1" values="0 0 0 0 1 0 0 0 0 1 0 0 0 0 1 0 0 0 0.5 0"/></filter><filter id="k" width="101.2%" height="103.9%" x="-.6%" y="-.7%" filterUnits="objectBoundingBox"><feOffset dy="1" in="SourceAlpha" result="shadowOffsetInner1"/><feComposite in="shadowOffsetInner1" in2="SourceAlpha" k2="-1" k3="1" operator="arithmetic" result="shadowInnerInner1"/><feColorMatrix in="shadowInnerInner1" values="0 0 0 0 1 0 0 0 0 1 0 0 0 0 1 0 0 0 0.58326049 0"/></filter><filter id="q" width="103.6%" height="103.6%" x="-1.8%" y="-1.8%" filterUnits="objectBoundingBox"><feOffset dy="1" in="SourceAlpha" result="shadowOffsetInner1"/><feComposite in="shadowOffsetInner1" in2="SourceAlpha" k2="-1" k3="1" operator="arithmetic" result="shadowInnerInner1"/><feColorMatrix in="shadowInnerInner1" values="0 0 0 0 1 0 0 0 0 1 0 0 0 0 1 0 0 0 0.58326049 0"/></filter><filter id="t" width="163.6%" height="163.6%" x="-31.8%" y="-22.7%" filterUnits="objectBoundingBox"><feOffset dy="2" in="SourceAlpha" result="shadowOffsetOuter1"/><feGaussianBlur in="shadowOffsetOuter1" result="shadowBlurOuter1" stdDeviation="2"/><feColorMatrix in="shadowBlurOuter1" values="0 0 0 0 0 0 0 0 0 0 0 0 0 0 0 0 0 0 0.297885708 0"/></filter><filter id="y" width="180%" height="180%" x="-40%" y="-20%" filterUnits="objectBoundingBox"><feOffset dy="2" in="SourceAlpha" result="shadowOffsetOuter1"/><feGaussianBlur in="shadowOffsetOuter1" result="shadowBlurOuter1" stdDeviation="1"/><feColorMatrix in="shadowBlurOuter1" values="0 0 0 0 0 0 0 0 0 0 0 0 0 0 0 0 0 0 0.308238636 0"/></filter><filter id="E" width="108.3%" height="108.3%" x="-4.2%" y="-4.2%" filterUnits="objectBoundingBox"><feOffset dy="1" in="SourceAlpha" result="shadowOffsetInner1"/><feComposite in="shadowOffsetInner1" in2="SourceAlpha" k2="-1" k3="1" operator="arithmetic" result="shadowInnerInner1"/><feColorMatrix in="shadowInnerInner1" values="0 0 0 0 1 0 0 0 0 1 0 0 0 0 1 0 0 0 0.58326049 0"/></filter><filter id="H" width="108.3%" height="108.3%" x="-4.2%" y="-4.2%" filterUnits="objectBoundingBox"><feOffset dy="1" in="SourceAlpha" result="shadowOffsetInner1"/><feComposite in="shadowOffsetInner1" in2="SourceAlpha" k2="-1" k3="1" operator="arithmetic" result="shadowInnerInner1"/><feColorMatrix in="shadowInnerInner1" values="0 0 0 0 1 0 0 0 0 1 0 0 0 0 1 0 0 0 0.58326049 0"/></filter><filter id="J" width="333.3%" height="129.2%" x="-116.7%" y="-10.4%" filterUnits="objectBoundingBox"><feOffset dy="2" in="SourceAlpha" result="shadowOffsetOuter1"/><feGaussianBlur in="shadowOffsetOuter1" result="shadowBlurOuter1" stdDeviation="2"/><feColorMatrix in="shadowBlurOuter1" values="0 0 0 0 0 0 0 0 0 0 0 0 0 0 0 0 0 0 0.197388549 0"/></filter><circle id="o" cx="26" cy="26" r="14"/><circle id="s" cx="26" cy="26" r="11"/><circle id="x" cx="26" cy="26" r="5"/><circle id="C" cx="82" cy="37" r="6"/><circle id="G" cx="82" cy="81" r="6"/><path id="b" d="M2.297 7.665 7.486 2.39A8 8 0 0 1 13.189 0h77.497a8 8 0 0 1 5.657 2.343l5.314 5.314A8 8 0 0 1 104 13.314V98a8 8 0 0 1-8 8H8a8 8 0 0 1-8-8V13.275a8 8 0 0 1 2.297-5.61"/><path id="h" d="M95 24v70a3 3 0 0 1-3 3H12a3 3 0 0 1-3-3V24a3 3 0 0 1 3-3h80a3 3 0 0 1 3 3"/><path id="I" d="M82 35a3 3 0 0 1 3 3v42a3 3 0 0 1-6 0V38a3 3 0 0 1 3-3"/><radialGradient id="w" cx="50%" cy="24.773%" r="94.159%" fx="50%" fy="24.773%"><stop offset="0%" stop-color="#e09e9e"/><stop offset="100%" stop-color="#8f1a1a"/></radialGradient></defs><g fill="none" fill-rule="evenodd" filter="url(#a)" transform="translate(12 11)"><use xlink:href="#b" fill="url(#c)"/><use xlink:href="#b" fill="#000" filter="url(#e)"/><path stroke="url(#f)" stroke-linecap="square" d="M.5 12.5h102.827" filter="url(#g)"/><use xlink:href="#h" fill="#000" filter="url(#i)"/><use xlink:href="#h" fill="url(#j)"/><use xlink:href="#h" fill="#000" filter="url(#k)"/><path fill="url(#l)" fill-rule="nonzero" d="M92 20H12a4 4 0 0 0-4 4v70a4 4 0 0 0 4 4h80a4 4 0 0 0 4-4V24a4 4 0 0 0-4-4m0 1a3 3 0 0 1 3 3v70a3 3 0 0 1-3 3H12a3 3 0 0 1-3-3V24a3 3 0 0 1 3-3z"/><g transform="translate(14 33)"><circle cx="26" cy="26" r="24" fill="url(#m)"/><path fill="url(#n)" fill-rule="nonzero" d="M26 0C11.64 0 0 11.64 0 26s11.64 26 26 26 26-11.64 26-26S40.36 0 26 0m0 2c13.255 0 24 10.745 24 24S39.255 50 26 50 2 39.255 2 26 12.745 2 26 2"/><use xlink:href="#o" fill="url(#p)"/><use xlink:href="#o" fill="#000" filter="url(#q)"/><path fill="url(#r)" fill-rule="nonzero" d="M26 11c-8.284 0-15 6.716-15 15s6.716 15 15 15 15-6.716 15-15-6.716-15-15-15m0 1c7.732 0 14 6.268 14 14s-6.268 14-14 14-14-6.268-14-14 6.268-14 14-14"/><use xlink:href="#s" fill="#000" filter="url(#t)"/><use xlink:href="#s" fill="url(#u)"/><path fill="url(#v)" fill-rule="nonzero" d="M26 15c6.075 0 11 4.925 11 11s-4.925 11-11 11-11-4.925-11-11 4.925-11 11-11m0 1c-5.523 0-10 4.477-10 10s4.477 10 10 10 10-4.477 10-10-4.477-10-10-10"/><circle cx="21" cy="20" r="1" fill="url(#w)"/><mask id="A" fill="#fff"><use xlink:href="#x"/></mask><use xlink:href="#x" fill="#000" filter="url(#y)"/><use xlink:href="#x" fill="url(#z)"/><g fill="#000" fill-opacity=".1" mask="url(#A)"><path d="m26 25.981-3.06 5.948 5.908.103z"/><path d="m26 25.98-1.439 6.55 5.734-1.454z"/><path d="m25.999 25.981.28 6.702 5.168-2.91z"/><path d="m26 25.98 1.977 6.4 4.252-4.168z"/></g><g fill="#000" fill-opacity=".1" mask="url(#A)"><path d="m26 25.981 3.001-5.815h-6.002z"/><path d="m26 25.98 1.346-6.369-5.8 1.505z"/><path d="m26 25.98-.402-6.49L20.4 22.4z"/><path d="m26 25.98-2.122-6.168-4.245 4.113z"/></g><path fill="url(#B)" fill-rule="nonzero" d="M26 20a6 6 0 1 0 0 12 6 6 0 0 0 0-12m0 1a5 5 0 1 1 0 10 5 5 0 0 1 0-10"/><path fill="#7d8090" d="M26 4h1v2h-1zm3.741.24.985.173-.347 1.97-.985-.174zm3.642.885.94.342-.684 1.88-.94-.342zm3.434 1.505.866.5-1 1.732-.866-.5zm3.12 2.079.766.642-1.286 1.532-.766-.642zm2.712 2.588.642.766-1.532 1.286-.642-.766zm2.221 3.02.5.866-1.732 1-.5-.866zm1.663 3.36.342.94-1.88.684-.342-.94zm1.054 3.597.174.985-1.97.347-.174-.985zM48 25v1h-2v-1zm-.24 3.741-.173.985-1.97-.347.174-.985zm-.885 3.642-.342.94-1.88-.684.342-.94zm-1.505 3.434-.5.866-1.732-1 .5-.866zm-2.079 3.12-.642.766-1.532-1.286.642-.766zm-2.588 2.712-.766.642-1.286-1.532.766-.642zm-3.02 2.221-.866.5-1-1.732.866-.5zm-3.36 1.663-.94.342-.684-1.88.94-.342zm-3.597 1.054-.985.174-.347-1.97.985-.174zM27 47h-1v-2h1zm-3.741-.24-.985-.173.347-1.97.985.174zm-3.642-.885-.94-.342.684-1.88.94.342zm-3.434-1.505-.866-.5 1-1.732.866.5zm-3.12-2.079-.766-.642 1.286-1.532.766.642zm-2.712-2.588-.642-.766 1.532-1.286.642.766zm-2.221-3.02-.5-.866 1.732-1 .5.866zm-1.663-3.36-.342-.94 1.88-.684.342.94zm-1.054-3.597-.174-.985 1.97-.347.174.985zM5 26v-1h2v1zm.24-3.741.173-.985 1.97.347-.174.985zm.885-3.642.342-.94 1.88.684-.342.94zm1.505-3.434.5-.866 1.732 1-.5.866zm2.079-3.12.642-.766 1.532 1.286-.642.766zm2.588-2.712.766-.642 1.286 1.532-.766.642zm3.02-2.221.866-.5 1 1.732-.866.5zm3.36-1.663.94-.342.684 1.88-.94.342zm3.597-1.054.985-.174.347 1.97-.985.174z"/></g><use xlink:href="#C" fill="url(#D)"/><use xlink:href="#C" fill="#000" filter="url(#E)"/><path fill="url(#F)" fill-rule="nonzero" d="M82 30a7 7 0 1 0 0 14 7 7 0 0 0 0-14m0 1a6 6 0 1 1 0 12 6 6 0 0 1 0-12"/><use xlink:href="#G" fill="url(#D)"/><use xlink:href="#G" fill="#000" filter="url(#H)"/><path fill="url(#F)" fill-rule="nonzero" d="M82 74a7 7 0 1 0 0 14 7 7 0 0 0 0-14m0 1a6 6 0 1 1 0 12 6 6 0 0 1 0-12"/><use xlink:href="#I" fill="#000" filter="url(#J)"/><use xlink:href="#I" fill="url(#K)"/><path fill="url(#L)" fill-rule="nonzero" d="M82 34a4 4 0 0 0-4 4v42a4 4 0 1 0 8 0V38a4 4 0 0 0-4-4m0 1a3 3 0 0 1 3 3v42a3 3 0 0 1-6 0V38a3 3 0 0 1 3-3"/></g></svg>