<svg xmlns="http://www.w3.org/2000/svg" viewBox="0 0 32 32"><path fill="currentColor" d="M1.15 13.879a2.993 2.993 0 0 0 0 4.243L13.88 30.85a2.993 2.993 0 0 0 4.242 0L30.85 18.122a2.993 2.993 0 0 0 0-4.243L18.121 1.151a2.993 2.993 0 0 0-4.242 0zm.708.707 9.192-9.192 2.869 2.868a2.5 2.5 0 0 0 .313 3.142 2.5 2.5 0 0 0 1.268.68v9.244a2.5 2.5 0 0 0-1.268.683 2.5 2.5 0 0 0 0 3.535 2.5 2.5 0 0 0 3.536 0 2.5 2.5 0 0 0 0-3.535 2.5 2.5 0 0 0-1.268-.683v-9.244a2.5 2.5 0 0 0 .874-.366l3.616 3.615a2.5 2.5 0 0 0 .313 3.142 2.5 2.5 0 0 0 3.536 0 2.5 2.5 0 0 0 0-3.535 2.5 2.5 0 0 0-3.146-.318L18.08 11.01a2.5 2.5 0 0 0-.313-3.141 2.5 2.5 0 0 0-3.146-.318l-2.865-2.864 2.829-2.829a1.996 1.996 0 0 1 2.828 0l12.728 12.728a1.996 1.996 0 0 1 0 2.829L17.414 30.143a1.996 1.996 0 0 1-2.828 0L1.858 17.415a1.996 1.996 0 0 1 0-2.829m13.08-6.01a1.5 1.5 0 0 1 2.122 0 1.5 1.5 0 0 1 0 2.121 1.5 1.5 0 0 1-2.121 0 1.5 1.5 0 0 1 0-2.121m0 14.142a1.5 1.5 0 0 1 2.122 0 1.5 1.5 0 0 1 0 2.121 1.5 1.5 0 0 1-2.121 0 1.5 1.5 0 0 1 0-2.121m7.072-7.071a1.5 1.5 0 0 1 2.121 0 1.5 1.5 0 0 1 0 2.12 1.5 1.5 0 0 1-2.121 0 1.5 1.5 0 0 1 0-2.12" color="#5d656b"/></svg>