<svg xmlns="http://www.w3.org/2000/svg" xmlns:xlink="http://www.w3.org/1999/xlink" viewBox="0 0 96 96"><defs><linearGradient id="c" x1="50%" x2="50%" y1="0%" y2="100%"><stop offset="0%" stop-color="#0ecb04"/><stop offset="100%" stop-color="#008972"/></linearGradient><linearGradient id="f" x1="50%" x2="50%" y1="0%" y2="100%"><stop offset="0%" stop-color="#c3ffbf" stop-opacity=".305"/><stop offset="100%" stop-color="#83e991" stop-opacity=".779"/></linearGradient><linearGradient id="g" x1="84.48%" x2="44.518%" y1="31.33%" y2="76.81%"><stop offset="0%" stop-color="#fff"/><stop offset="100%" stop-color="#d6ddf6"/></linearGradient><linearGradient id="h" x1="72.583%" x2="50%" y1="27.94%" y2="79.145%"><stop offset="0%" stop-color="#fff"/><stop offset="100%" stop-color="#d7ffc6"/></linearGradient><linearGradient id="m" x1="68.42%" x2="56.51%" y1="71.097%" y2="57.701%"><stop offset="0%" stop-color="#c6c6c6"/><stop offset="53.052%" stop-color="#e7e7e7"/><stop offset="100%" stop-color="#f4f4f4"/></linearGradient><linearGradient id="n" x1="80.472%" x2="50%" y1="28.441%" y2="74.5%"><stop offset="0%" stop-opacity=".035"/><stop offset="100%" stop-opacity=".08"/></linearGradient><linearGradient id="s" x1="0%" x2="99.213%" y1="50%" y2="50%"><stop offset="0%" stop-color="#fff" stop-opacity="0"/><stop offset="49.798%" stop-color="#fff" stop-opacity=".892"/><stop offset="100%" stop-color="#fff" stop-opacity="0"/></linearGradient><radialGradient id="i" cx="52.324%" cy="53.481%" r="64.153%" fx="52.324%" fy="53.481%" gradientTransform="matrix(-.46095 .84243 -.91149 -.68143 1.252 .458)"><stop offset="0%"/><stop offset="100%" stop-opacity=".148"/></radialGradient><radialGradient id="o" cx="50%" cy="50%" r="94.578%" fx="50%" fy="50%" gradientTransform="matrix(.45876 0 0 .30467 .27 .348)"><stop offset="0%" stop-color="#ebff26"/><stop offset="100%" stop-color="#f2ff3d" stop-opacity="0"/></radialGradient><radialGradient id="q" cx="50%" cy="50%" r="520.71%" fx="50%" fy="50%" gradientTransform="matrix(.09451 0 0 .07199 .453 .464)"><stop offset="0%" stop-color="#f7ff81" stop-opacity=".995"/><stop offset="100%" stop-color="#f8ff98" stop-opacity="0"/></radialGradient><radialGradient id="r" cx="50%" cy="50%" r="1628.518%" fx="50%" fy="50%" gradientTransform="matrix(.03022 0 0 .01306 .485 .493)"><stop offset="0%" stop-color="#fff" stop-opacity=".995"/><stop offset="100%" stop-color="#fff" stop-opacity="0"/></radialGradient><filter id="b" width="142.5%" height="128.9%" x="-20.5%" y="-14.5%" filterUnits="objectBoundingBox"><feOffset dy="2" in="SourceAlpha" result="shadowOffsetOuter1"/><feGaussianBlur in="shadowOffsetOuter1" result="shadowBlurOuter1" stdDeviation="2"/><feColorMatrix in="shadowBlurOuter1" result="shadowMatrixOuter1" values="0 0 0 0 0 0 0 0 0 0 0 0 0 0 0 0 0 0 0.2 0"/><feMerge><feMergeNode in="shadowMatrixOuter1"/><feMergeNode in="SourceGraphic"/></feMerge></filter><filter id="d" width="147%" height="153.8%" x="-23.7%" y="-27.9%" filterUnits="objectBoundingBox"><feOffset dy="2" in="SourceAlpha" result="shadowOffsetOuter1"/><feGaussianBlur in="shadowOffsetOuter1" result="shadowBlurOuter1" stdDeviation="2.5"/><feColorMatrix in="shadowBlurOuter1" result="shadowMatrixOuter1" values="0 0 0 0 0 0 0 0 0 0 0 0 0 0 0 0 0 0 0.21 0"/><feMerge><feMergeNode in="shadowMatrixOuter1"/><feMergeNode in="SourceGraphic"/></feMerge></filter><filter id="l" width="126.9%" height="123%" x="-13.5%" y="-5.7%" filterUnits="objectBoundingBox"><feOffset dy="1" in="SourceAlpha" result="shadowOffsetOuter1"/><feGaussianBlur in="shadowOffsetOuter1" result="shadowBlurOuter1" stdDeviation=".5"/><feColorMatrix in="shadowBlurOuter1" values="0 0 0 0 0 0 0 0 0 0 0 0 0 0 0 0 0 0 0.05 0"/></filter><filter id="p" width="108.2%" height="117.9%" x="-4.1%" y="-8.9%" filterUnits="objectBoundingBox"><feGaussianBlur in="SourceGraphic" stdDeviation=".938"/></filter><path id="a" d="M21.713 16.382h25.03a7.5 7.5 0 0 1 7.5 7.5V44.5a7.5 7.5 0 0 1-7.5 7.5h-25.03a7.5 7.5 0 0 1-7.5-7.5V23.882a7.5 7.5 0 0 1 7.5-7.5"/><path id="j" d="M52.944-1.27s-1.019 4.175-1.904 5.603c-1.4 2.261-2.99 1.717-4.26 3.615-1.269 1.897-.792 3.278-3.716 5.783-1.567 1.343-4.985 2.404-4.985 2.404 9.102 0 14.865-10.866 14.865-17.405"/><mask id="e" width="40.029" height="35.618" x="0" y="0" fill="#fff" maskContentUnits="userSpaceOnUse" maskUnits="objectBoundingBox"><use xlink:href="#a"/></mask></defs><g fill="none" fill-rule="evenodd" filter="url(#b)" transform="translate(6 6)"><circle cx="41.5" cy="41.5" r="41.5" fill="url(#c)"/><g filter="url(#d)" transform="translate(7.787 15)"><use xlink:href="#a" fill="#0ea141" stroke="#96ff8f" stroke-dasharray="1 1" stroke-opacity=".703" stroke-width="2" mask="url(#e)"/><path fill="url(#f)" d="M44.463 43a.75.75 0 0 1 .75.75v.5a.75.75 0 0 1-.75.75h-12.5a.75.75 0 0 1-.75-.75v-.5a.75.75 0 0 1 .75-.75zm-17 0a.75.75 0 0 1 .75.75v.5a.75.75 0 0 1-.75.75h-7.5a.75.75 0 0 1-.75-.75v-.5a.75.75 0 0 1 .75-.75zm12-4a.75.75 0 0 1 .75.75v.5a.75.75 0 0 1-.75.75h-19.5a.75.75 0 0 1-.75-.75v-.5a.75.75 0 0 1 .75-.75zm-17-3a.75.75 0 0 1 .75.75v.5a.75.75 0 0 1-.75.75h-2.5a.75.75 0 0 1-.75-.75v-.5a.75.75 0 0 1 .75-.75zm14 0a.75.75 0 0 1 .75.75v.5a.75.75 0 0 1-.75.75h-9.5a.75.75 0 0 1-.75-.75v-.5a.75.75 0 0 1 .75-.75zm13 0a.75.75 0 0 1 .75.75v.5a.75.75 0 0 1-.75.75h-9.5a.75.75 0 0 1-.75-.75v-.5a.75.75 0 0 1 .75-.75zm-8-4a.75.75 0 0 1 .75.75v.5a.75.75 0 0 1-.75.75h-21.5a.75.75 0 0 1-.75-.75v-.5a.75.75 0 0 1 .75-.75z" opacity=".359"/><path fill="url(#g)" d="M21.713 0h18.784q3.53 1.294 7.911 5.12 4.173 3.645 5.805 9.113V30.54h-40V7.5a7.5 7.5 0 0 1 7.5-7.5"/><path fill="url(#h)" d="M21.713 0h25a7.5 7.5 0 0 1 7.5 7.5v23.04h-40V7.5a7.5 7.5 0 0 1 7.5-7.5"/><path fill="url(#i)" fill-opacity=".28" d="M37.28 0h9.463a7.5 7.5 0 0 1 7.5 7.5v7.011q-1.389-5.75-6.964-9.91Q42.416.973 37.281 0"/><g transform="rotate(-90 45.511 7.433)"><use xlink:href="#j" fill="#000" filter="url(#l)"/><use xlink:href="#j" fill="url(#m)"/></g><path fill="url(#n)" d="M27.463 22a.75.75 0 0 1 .75.75v4.5a.75.75 0 0 1-.75.75h-7.5a.75.75 0 0 1-.75-.75v-4.5a.75.75 0 0 1 .75-.75zm21 4a.75.75 0 0 1 .75.75v.5a.75.75 0 0 1-.75.75h-16.5a.75.75 0 0 1-.75-.75v-.5a.75.75 0 0 1 .75-.75zm-3-4a.75.75 0 0 1 .75.75v.5a.75.75 0 0 1-.75.75h-13.5a.75.75 0 0 1-.75-.75v-.5a.75.75 0 0 1 .75-.75zm-22-4a.75.75 0 0 1 .75.75v.5a.75.75 0 0 1-.75.75h-3.5a.75.75 0 0 1-.75-.75v-.5a.75.75 0 0 1 .75-.75zm26 0a.75.75 0 0 1 .75.75v.5a.75.75 0 0 1-.75.75h-21.5a.75.75 0 0 1-.75-.75v-.5a.75.75 0 0 1 .75-.75zm-18-3a.75.75 0 0 1 .75.75v.5a.75.75 0 0 1-.75.75h-11.5a.75.75 0 0 1-.75-.75v-.5a.75.75 0 0 1 .75-.75zm17-4a.75.75 0 0 1 .75.75v4.5a.75.75 0 0 1-.75.75h-12.5a.75.75 0 0 1-.75-.75v-4.5a.75.75 0 0 1 .75-.75zm-17 0a.75.75 0 0 1 .75.75v.5a.75.75 0 0 1-.75.75h-11.5a.75.75 0 0 1-.75-.75v-.5a.75.75 0 0 1 .75-.75zm13-4a.75.75 0 0 1 .75.75v.5a.75.75 0 0 1-.75.75h-8.5a.75.75 0 0 1-.75-.75v-.5a.75.75 0 0 1 .75-.75zm-13 0a.75.75 0 0 1 .75.75v.5a.75.75 0 0 1-.75.75h-11.5a.75.75 0 0 1-.75-.75v-.5a.75.75 0 0 1 .75-.75z"/><path fill="url(#o)" d="M0 14.027 34.331 0l34.332 12.551v6.89L34.774 31.5 0 20.918z" filter="url(#p)" opacity=".799" transform="translate(0 14.612)"/><path fill="url(#q)" d="M5.309 13.096h58.045v5.486H5.309z" transform="translate(0 14.612)"/><path fill="url(#r)" d="M2.124 14.865H66.54v1.947H2.124z" opacity=".953" transform="translate(0 14.612)"/><path fill="url(#s)" d="M14.865 15.573h38.933v1H14.865z" opacity=".953" transform="translate(0 14.612)"/></g></g></svg>