<svg xmlns="http://www.w3.org/2000/svg" viewBox="0 0 64 64"><rect width="56" height="51" x="4" y="7" opacity=".2" rx="3.409" ry="3.369"/><rect width="56" height="51" x="4" y="6" fill="#b49478" rx="3.409" ry="3.369"/><path fill="#3f3f3f" d="M11 17h42v34H11z"/><path d="M11 22v6h42v-6zm0 11v6h42v-6zm0 12v6h42v-6z" opacity=".2"/><path fill="#2e7034" d="M11 17v34h5V17Zm14 0v34h5V17Zm14 0v34h5V17Z"/><path fill="#574c45" d="M11 9h18v3H11zm0 3h10v3H11zm28-3h14v3H39z"/><path d="M11 17h42v1H11z" opacity=".2"/><path fill="#fff" d="M7.408 6C5.52 6 4 7.503 4 9.37v1C4 8.502 5.52 7 7.408 7h49.184C58.48 7 60 8.503 60 10.37v-1C60 7.502 58.48 6 56.592 6z" opacity=".2"/></svg>