<svg xmlns="http://www.w3.org/2000/svg" xmlns:xlink="http://www.w3.org/1999/xlink" viewBox="0 0 96 96"><defs><linearGradient id="b" x1="6.322%" x2="101.894%" y1="65.08%" y2="69.346%"><stop offset="0%" stop-opacity="0"/><stop offset="100%" stop-color="#282726"/></linearGradient><linearGradient id="c" x1="25.913%" x2="85.599%" y1="16.521%" y2="78.393%"><stop offset="0%" stop-color="#dac5b3"/><stop offset="100%" stop-color="#b3937c"/></linearGradient><linearGradient id="d" x1="100%" x2="0%" y1="42.703%" y2="57.297%"><stop offset="0%" stop-color="#676767"/><stop offset="100%" stop-color="#7e7671"/></linearGradient><linearGradient id="e" x1="32.371%" x2="76.054%" y1="12.174%" y2="82.08%"><stop offset="0%" stop-color="#d3bca9"/><stop offset="100%" stop-color="#bb9d87"/></linearGradient><filter id="a" width="130%" height="132.9%" x="-15%" y="-16.4%" filterUnits="objectBoundingBox"><feOffset dy="2" in="SourceAlpha" result="shadowOffsetOuter1"/><feGaussianBlur in="shadowOffsetOuter1" result="shadowBlurOuter1" stdDeviation="2"/><feColorMatrix in="shadowBlurOuter1" result="shadowMatrixOuter1" values="0 0 0 0 0 0 0 0 0 0 0 0 0 0 0 0 0 0 0.2 0"/><feMerge><feMergeNode in="shadowMatrixOuter1"/><feMergeNode in="SourceGraphic"/></feMerge></filter></defs><g fill="none" fill-rule="evenodd" filter="url(#a)" transform="translate(8 11)"><path fill="url(#b)" d="M4.614 25.282 61.573 1.418a1 1 0 0 1 1.336.61l16.753 50.944a1 1 0 0 1-.714 1.284L5.237 72.199A1 1 0 0 1 4 71.227V26.205a1 1 0 0 1 .614-.923"/><path fill="url(#c)" d="M.614 24.282 57.573.418a1 1 0 0 1 1.336.61l16.753 50.944a1 1 0 0 1-.714 1.284L1.237 71.199A1 1 0 0 1 0 70.227V25.205a1 1 0 0 1 .614-.923"/><path fill="#000" d="m3 35 54.104-18.66 10.397 34.295L3 67.077zm31.405-22.382 23.18-9.365.374.927-23.18 9.365z"/><path fill="url(#d)" d="M7.006 24.321v4.883H2.88V28H1v-1.694zm28.333-4.72.375.928-14.835 5.993-.375-.927zM22.667 21l.375.927-9.272 3.746-.375-.927zm.854-3.462.375.927-8.345 3.372-.374-.928zm9.104-4.45.375.928-.007.003.007-.003-.108 2.584 6.338-2.56.375.927L24.77 20.96l-.375-.927L29 18.172v-2.444l-4.485 1.921-.375-.927zm15.963-.688.359.934-2.801 1.075-.358-.934zm6.701-5.6.34.885 1.528-.585.358.934-12.137 4.658-.358-.933.34-.131-.34-.886zm4 1.366.359.934-6.535 2.508-.359-.933z"/><path fill="#fefe84" d="M34.404 12.617 52.021 5.5l.374.927-17.616 7.118z"/><path fill="#765d50" d="m2.999 34.684 53.563-20.275.542 1.932L3 36.81z"/><path fill="#529354" d="m54.976 16.34 1.926-.723 10.6 35.018-1.975.51zm-12.604 4.844 1.746-.661 7.857 34.095-1.764.432zM30.945 25.45l1.546-.588 5.29 33.36-1.557.392zm-10.264 3.849 1.389-.437 2.844 32.632-1.394.355zm-10.075 3.985 1.138-.521 1.661 31.666-1.175.298z"/><path fill="#523628" fill-rule="nonzero" d="m56.8 15.238.118.42L3 36.009v-.506z"/><path fill="#fff" fill-opacity=".5" d="m58.096 19.562.286.96L3 40.64l.004-1.027zm.971 3.206.281.96L3 43.125l.001-1.054zm1.303 4.24.279.961-57.65 19.854L3 46.762z"/><path fill="#ffb8ad" fill-opacity=".547" d="m61.581 31.173.28.96L2.998 51.26v-1.052z"/><path fill="#fff" fill-opacity=".5" d="m62.803 35.367.279.96L3.007 54.693 3 53.65zm1.495 5.137.28.96L3.03 59.111v-1.04zm1.342 4.616.28.958L3.016 64.116l-.009-1.038z"/><path fill="url(#e)" d="m12.599 29.979 1.884 35.95-.999.053-1.884-35.95zm10.297-2.974 3.138 35.863-.996.088L21.9 27.093zm10.335-3.881 5.632 35.557-.988.156-5.631-35.557zM44.4 17.387l8.773 38-.975.226-8.773-38z"/><path fill="#fefe84" d="M7.492 24.115v3.9h1.76v-3.404l.748-.035v2.694l1.989-.974v-2.181l2.494-1.153v-1.624zm26.913-11.497V15h.912v-1.154h.887v-1.228zm2.949-1.188v1.659h.786v-.553h1.268v-1.105z"/></g></svg>