<svg xmlns="http://www.w3.org/2000/svg" viewBox="0 0 16 16"><path fill="#fff" fill-rule="evenodd" d="M2 11v1.8A1.2 1.2 0 0 0 3.2 14H5v1H3.2A2.2 2.2 0 0 1 1 12.8V11zm13 0v1.8a2.2 2.2 0 0 1-2.2 2.2H11v-1h1.8a1.2 1.2 0 0 0 1.2-1.2V11zm-4.735-2.753L13 11.756V12.8a.2.2 0 0 1-.2.2H3.2a.2.2 0 0 1-.2-.2v-.648l2.167-2.434c.21-.252.637-.282.894-.063l1.093.926c.15.108.358.075.466-.074l1.651-2.28c.24-.306.771-.295.994.02M5 4a1 1 0 1 1 0 2 1 1 0 0 1 0-2m0-3v1H3.2A1.2 1.2 0 0 0 2 3.2V5H1V3.2A2.2 2.2 0 0 1 3.2 1zm7.8 0A2.2 2.2 0 0 1 15 3.2V5h-1V3.2A1.2 1.2 0 0 0 12.8 2H11V1z"/></svg>