<svg xmlns="http://www.w3.org/2000/svg" xmlns:xlink="http://www.w3.org/1999/xlink" viewBox="0 0 96 96"><defs><linearGradient id="b" x1="50%" x2="50%" y1="0%" y2="100%"><stop offset="0%" stop-color="#fff"/><stop offset="100%" stop-color="#f6f6f6"/></linearGradient><linearGradient id="c" x1="50%" x2="50%" y1="0%" y2="100%"><stop offset="0%" stop-color="#fdcc59"/><stop offset="100%" stop-color="#ffa830"/></linearGradient><linearGradient id="d" x1="50%" x2="50%" y1="0%" y2="100%"><stop offset="0%" stop-color="#fff"/><stop offset="100%" stop-color="#fff3d1"/></linearGradient><filter id="a" width="129.3%" height="129.3%" x="-14.6%" y="-14.6%" filterUnits="objectBoundingBox"><feOffset dy="2" in="SourceAlpha" result="shadowOffsetOuter1"/><feGaussianBlur in="shadowOffsetOuter1" result="shadowBlurOuter1" stdDeviation="2"/><feComposite in="shadowBlurOuter1" in2="SourceAlpha" operator="out" result="shadowBlurOuter1"/><feColorMatrix in="shadowBlurOuter1" result="shadowMatrixOuter1" values="0 0 0 0 0 0 0 0 0 0 0 0 0 0 0 0 0 0 0.2 0"/><feMerge><feMergeNode in="shadowMatrixOuter1"/><feMergeNode in="SourceGraphic"/></feMerge></filter></defs><g fill="none" fill-rule="evenodd" filter="url(#a)" transform="translate(7 7)"><circle cx="41" cy="41" r="41" fill="url(#b)"/><circle cx="41" cy="41" r="37" fill="url(#c)"/><path fill="url(#d)" d="M37.022 39.611C38.61 36.5 40.61 29 50.61 30c9.66.966 11.388 11.728 9.242 15.615l-.053.09.01-.014c2.136-2.954 7.636-.144 8.274 4.1l.027.209q.501 4.5-4.5 8h-15q-4-1-4-5c0-4 4-6.5 6-6-1.5 1-3.674 6.223.913 7.111C56.11 55 57.11 42.5 47.61 42.5c-8 0-14 15.5-22 15.5s-6.5-9-1.5-10.5c-.5-.5-1.5-8 4-10.5s9 1.5 8.913 2.611M31.61 22.5c6-.5 9 6 8.5 8.5-1.5 1-3.159 4.005-3.159 5.005-1.927-.966-3.84-2.005-7.34-1.505s-6.497 3.44-6.497 5.5H13.61c-1.5-2 0-4 2-3.5 1-5 4-5.5 8-5.5 0-3.5 2-8 8-8.5"/></g></svg>