<svg xmlns="http://www.w3.org/2000/svg" viewBox="0 0 64 64"><path d="M32 5a4.443 4.367 0 0 0-1.477.247L9.958 12.375C8.197 12.985 7 14.65 7 16.485c0 7.862 2.056 16.598 5.661 24.398 2.927 6.333 8.16 15 17.309 19.631a4.45 4.375 0 0 0 2.03.485c.696 0 1.397-.164 2.03-.485 9.148-4.632 14.38-13.3 17.306-19.63h.003C54.944 33.083 57 24.346 57 16.486c0-1.837-1.198-3.5-2.959-4.11h-.005l-20.56-7.13A4.426 4.351 0 0 0 31.999 5" opacity=".2"/><path fill="#ff9f05" d="M32 4a4.443 4.367 0 0 0-1.477.247L9.958 11.375C8.197 11.985 7 13.65 7 15.485c0 7.862 2.056 16.598 5.661 24.398 2.927 6.333 8.16 15 17.309 19.631a4.45 4.375 0 0 0 2.03.485c.696 0 1.397-.164 2.03-.485 9.148-4.632 14.38-13.3 17.306-19.63h.003C54.944 32.083 57 23.346 57 15.486c0-1.837-1.198-3.5-2.959-4.11h-.005l-20.56-7.13A4.426 4.351 0 0 0 31.999 4"/><path fill="#fff" d="M32 4c-.5 0-1 .081-1.475.246L9.96 11.376C8.199 11.985 7 13.65 7 15.486c0 7.861 2.056 16.597 5.661 24.396 2.927 6.333 8.162 15.001 17.31 19.633a4.5 4.5 0 0 0 2.03.484Z" opacity=".2"/><path fill="#fff" d="M32 4c-.499 0-1 .08-1.477.246L9.957 11.375C8.196 11.985 7 13.648 7 15.485c0 .185.012.374.025.564a4.39 4.39 0 0 1 2.932-3.674l20.566-7.129A4.5 4.5 0 0 1 32 5c.5 0 1 .08 1.477.246l20.558 7.129a3.733 3.67 0 0 1 .008 0 4.39 4.39 0 0 1 2.932 3.674c.013-.19.025-.38.025-.565 0-1.836-1.196-3.498-2.957-4.109a3.733 3.67 0 0 0-.008 0L33.477 4.246A4.5 4.5 0 0 0 32 4" opacity=".2"/><path d="M32 19a3 3 0 0 0-3 3v12a3 3 0 0 0 3 3 3 3 0 0 0 3-3V22a3 3 0 0 0-3-3m0 20a3 3 0 0 0-3 3 3 3 0 0 0 3 3 3 3 0 0 0 3-3 3 3 0 0 0-3-3" opacity=".2"/><path fill="none" stroke="#fcfcfc" stroke-linecap="round" stroke-linejoin="round" stroke-width="6" d="M32 21v12"/><circle cx="32" cy="41" r="3" fill="#fff"/></svg>