<svg xmlns="http://www.w3.org/2000/svg" viewBox="0 0 54 21"><g fill="#4caf50" data-iconColor="Semgrep"><path fill-rule="evenodd" d="M10.797.421C5.241.421.737 4.934.737 10.501c0 5.566 4.504 10.079 10.06 10.079a10.04 10.04 0 0 0 8.053-4.037 10.04 10.04 0 0 0 8.053 4.037 10.04 10.04 0 0 0 8.042-4.023 10.04 10.04 0 0 0 8.042 4.023c5.557 0 10.06-4.513 10.06-10.08 0-5.566-4.503-10.079-10.06-10.079a10.04 10.04 0 0 0-8.042 4.022A10.04 10.04 0 0 0 26.903.421a10.04 10.04 0 0 0-8.053 4.036A10.04 10.04 0 0 0 10.797.421m-6.036 10.08a6.04 6.04 0 0 0 6.036 6.047 6.04 6.04 0 0 0 6.037-6.048 6.04 6.04 0 0 0-6.037-6.047A6.04 6.04 0 0 0 4.761 10.5m32.198.312a10 10 0 0 0 0-.625 6.04 6.04 0 0 1 6.028-5.735 6.04 6.04 0 0 1 6.037 6.047 6.04 6.04 0 0 1-6.037 6.048 6.04 6.04 0 0 1-6.028-5.735m-4.028-.625a6.04 6.04 0 0 0-6.028-5.735 6.04 6.04 0 0 0-6.037 6.047 6.04 6.04 0 0 0 6.037 6.048 6.04 6.04 0 0 0 6.028-5.735 10 10 0 0 1 0-.625" clip-rule="evenodd"/><path fill-rule="evenodd" d="M4.76 10.5a6.04 6.04 0 0 0 6.037 6.048 6.04 6.04 0 0 0 6.037-6.048 6.04 6.04 0 0 0-6.037-6.047A6.04 6.04 0 0 0 4.761 10.5M10.798.421C5.241.421.737 4.934.737 10.501c0 5.566 4.504 10.079 10.06 10.079s10.06-4.513 10.06-10.08c0-5.566-4.504-10.079-10.06-10.079M36.95 10.5a6.04 6.04 0 0 0 6.036 6.048 6.04 6.04 0 0 0 6.037-6.048 6.04 6.04 0 0 0-6.037-6.047A6.04 6.04 0 0 0 36.95 10.5M42.986.421c-5.556 0-10.06 4.513-10.06 10.08 0 5.566 4.504 10.079 10.06 10.079s10.061-4.513 10.061-10.08c0-5.566-4.504-10.079-10.06-10.079" clip-rule="evenodd"/><path d="M26.89 16.548a6.04 6.04 0 0 1-6.037-6.047h.005c0-5.567-4.505-10.08-10.061-10.08S.737 4.935.737 10.502H4.76a6.04 6.04 0 0 1 6.036-6.048 6.04 6.04 0 0 1 6.037 6.048h-.005c0 5.566 4.504 10.079 10.06 10.079S36.95 16.067 36.95 10.5a6.04 6.04 0 0 1 6.037-6.047 6.04 6.04 0 0 1 6.036 6.048h4.025c0-5.567-4.505-10.08-10.061-10.08s-10.06 4.513-10.06 10.08h-.001a6.04 6.04 0 0 1-6.036 6.047"/></g></svg>