<svg xmlns="http://www.w3.org/2000/svg" viewBox="0 0 64 64"><rect width="56" height="56" x="4" y="5" opacity=".2" rx="16.8" ry="16.8"/><rect width="56" height="56" x="4" y="4" fill="#607d8b" rx="16.8" ry="16.8"/><path fill="#35424a" d="M37.029 35h8.976a2.997 3 0 0 0 0-5.999h-8.976zm-8.533-14h17.508c3.994-.001 3.994-5.999 0-5.998H28.496Z"/><path d="M15 46.044a2.996 2.996 0 0 0 3.036 2.954H32V43H18.036A2.996 2.996 0 0 0 15 46.044m0-28a2.996 2.996 0 0 0 3.036 2.954h10.439V15h-10.44A2.996 2.996 0 0 0 15 18.044m0 14.001a2.996 2.996 0 0 0 3.036 2.954H37V29H18.036A2.996 2.996 0 0 0 15 32.045" opacity=".15"/><path d="M27 13a6 6 0 1 0 0 12 6 6 0 0 0 0-12m8 14a6 6 0 1 0 0 12 6 6 0 0 0 0-12m-5 14a6 6 0 1 0 0 12 6 6 0 0 0 0-12" opacity=".2"/><path fill="#fff" d="M29 32a6 6 0 1 0 12 0 6 6 0 0 0-12 0m-8-14a6 6 0 1 0 12 0 6 6 0 0 0-12 0"/><path fill="#fff" d="M20.8 4C11.495 4 4 11.494 4 20.8v1C4 12.495 11.494 5 20.8 5h22.4C52.505 5 60 12.494 60 21.8v-1C60 11.495 52.506 4 43.2 4z" opacity=".1"/><path fill="#35424a" d="M32.022 49h13.982a2.996 2.999 0 0 0 0-5.998H32.022Z"/><path fill="#fff" d="M24 46a6 6 0 1 0 12 0 6 6 0 0 0-12 0"/></svg>