<svg xmlns="http://www.w3.org/2000/svg" xmlns:xlink="http://www.w3.org/1999/xlink" viewBox="0 0 64 64"><defs><path id="a" d="m14.07 26.76 4.02 6.96 4.018 6.96H6.033l4.019-6.96z"/></defs><path d="M4 33v25.2C4 59.75 5.25 61 6.8 61h50.4c1.55 0 2.8-1.25 2.8-2.8V33z" opacity=".2"/><path fill="#8e8e8e" d="M32 4H6.8A2.794 2.794 0 0 0 4 6.8V32h28Z"/><path fill="#e4e4e4" d="M32 4h25.2C58.751 4 60 5.249 60 6.8V32H32Z"/><path fill="#45792a" d="M32 60H6.8A2.794 2.794 0 0 1 4 57.2V32h28Z"/><path fill="#8e8e8e" d="M32 60h25.2c1.551 0 2.8-1.249 2.8-2.8V32H32Z"/><circle cx="18" cy="19" r="8" opacity=".1"/><circle cx="18" cy="18" r="8" fill="#fff"/><use xlink:href="#a" opacity=".1" transform="matrix(1.24414 0 0 1.4366 .495 -1.442)"/><path fill="#ffdd4c" d="m18 36.001 5.001 10 5 9.998H8L13 46z"/><path d="M44 11v6h-6v4h6v6h4v-6h6v-4h-6v-6z" opacity=".1"/><path fill="#3f3f3f" d="M44 10v6h-6v4h6v6h4v-6h6v-4h-6v-6z"/><path d="M50 41h4v16h-4z" opacity=".1"/><path fill="#3f3f3f" d="M50 40h4v16h-4z"/><use xlink:href="#a" opacity=".1" transform="matrix(0 .8709 1.29295 0 1.402 31.746)"/><path fill="#e33939" d="m36.001 43 9 3.5 8.998 3.5V36L45 39.5z"/><path fill="#fff" d="M6.8 4C5.25 4 4 5.25 4 6.8v1C4 6.25 5.25 5 6.8 5h50.4C58.75 5 60 6.25 60 7.8v-1C60 5.25 58.75 4 57.2 4z" opacity=".2"/></svg>