<svg xmlns="http://www.w3.org/2000/svg" viewBox="0 0 64 64"><path fill="#e4e4e4" d="M32 4C16.536 4 4 16.536 4 32a28 28 0 0 0 10.223 21.615A11 11 0 0 1 12 47c0-6.075 4.925-11 11-11s11 4.925 11 11-4.925 11-11 11a11 11 0 0 1-1.742-.152A28 28 0 0 0 32 60c15.464 0 28-12.536 28-28S47.464 4 32 4"/><path fill="#263547" d="M32 8a23.94 23.94 0 0 1 24 24c0 12.217-9.058 22.13-20.836 23.684C36.931 53.224 38 50.236 38 47c0-8.237-6.763-15-15-15-5.836 0-10.879 3.428-13.354 8.338C8.656 37.686 8.002 34.899 8 32v-.002A23.94 23.94 0 0 1 32 8"/><path fill="#fff" d="M32 4C16.536 4 4 16.536 4 32c0 .158.01.315.014.473C4.296 17.253 16.713 5 32 5c15.296 0 27.719 12.268 27.986 27.5.003-.167.014-.332.014-.5C60 16.536 47.464 4 32 4m-9 28c-5.836 0-10.879 3.428-13.354 8.338-.937-2.51-1.565-5.141-1.632-7.873-.004.178-.014.354-.014.533V33c.002 2.9.655 5.686 1.646 8.338C12.121 36.428 17.164 33 23 33c8.087 0 14.737 6.524 14.977 14.557.007-.186.023-.37.023-.557 0-8.237-6.763-15-15-15m32.988.531c-.253 11.722-8.849 21.213-20.101 23.041-.227.38-.465.753-.723 1.112C46.942 55.13 56 45.217 56 33c0-.157-.009-.312-.012-.469M33.975 47.5C33.71 53.341 28.906 58 23 58a11 11 0 0 1-1.742-.152c1.002.417 2.028.767 3.068 1.064C29.775 58.256 34 53.625 34 48c0-.169-.018-.333-.025-.5m-21.952.047c-.006.151-.023.3-.023.453.002 1.578.351 3.125.998 4.545q.595.551 1.225 1.07a11 11 0 0 1-2.2-6.068" opacity=".2"/><path d="M32 8A23.94 23.94 0 0 0 8 31.998V32c0 .156.01.31.014.465A23.933 23.933 0 0 1 32 9a23.933 23.933 0 0 1 23.988 23.531c.004-.177.012-.353.012-.531A23.94 23.94 0 0 0 32 8M4.014 32.473C4.01 32.649 4 32.823 4 33a28 28 0 0 0 10.223 21.615 11 11 0 0 1-1.225-2.07 28 28 0 0 1-8.984-20.072m55.972.027C59.72 47.732 47.296 60 32 60a28 28 0 0 1-7.674-1.088c-.435.053-.876.088-1.326.088a11 11 0 0 1-1.742-.152A28 28 0 0 0 32 61c15.464 0 28-12.536 28-28 0-.168-.01-.333-.014-.5M23 36c-6.075 0-11 4.925-11 11 0 .183.014.365.023.547C12.263 41.683 17.078 37 23 37c5.906 0 10.711 4.659 10.975 10.5.007-.167.025-.331.025-.5 0-6.075-4.925-11-11-11m14.977 11.557c-.116 3.02-1.148 5.809-2.813 8.127.243-.032.482-.073.723-.112C37.216 53.344 38 50.764 38 48c0-.15-.019-.295-.023-.443" opacity=".2"/><circle cx="47" cy="18" r="16" opacity=".2"/><circle cx="47" cy="17" r="16" fill="#ff6c10"/><path fill="#fff" d="M47.56 4.964c-1.446 0-2.652.462-3.62 1.18-2.518 1.666-2.928 4.174-2.94 6.716v18.96a16 16 0 0 0 4 1.04v-5.28c.956 1.18 2.18 1.458 3.7 1.458 3.306-.024 6.156-3.022 6.3-6.31 0-2.884-1.384-5.544-4.152-6.89a6.52 6.52 0 0 0 2.784-5.368q0-2.592-1.756-3.992a6.7 6.7 0 0 0-4.318-1.516m.44 1.454c.966 0 1.372.186 1.968.938q.91 1.128.91 3.25c0 1.582-.384 3.45-1.156 4.796q-1.286-.406-2.148-.406-1.382 0-1.382.808 0 .894 1.644.892.78 0 1.758-.254c1.52 1.604 2.36 4.1 2.41 5.836q0 2.374-1.024 4.042c-.684 1.1-1.514 1.262-2.98 1.262-1.52 0-3-.09-3-1.786V11.566c0-3.692 1.6-5.148 3-5.148"/></svg>