<svg xmlns="http://www.w3.org/2000/svg" viewBox="0 0 64 64"><rect width="56" height="36" x="4" y="25" opacity=".2" ry="4.154"/><rect width="56" height="36" x="4" y="24" fill="#a8aebd" ry="4.154"/><path fill="#fff" d="M8.152 24A4.14 4.14 0 0 0 4 28.152v1A4.14 4.14 0 0 1 8.152 25h47.696A4.14 4.14 0 0 1 60 29.152v-1A4.14 4.14 0 0 0 55.848 24z" opacity=".1"/><path d="M10 39v6h6v-6zm8 0v6h6v-6zm8 0v6h18v-6zm20 0v6h8v-6ZM10 49v6h6v-6zm8 0v6h6v-6zm8 0v6h18v-6zm20 0v6h8v-6zM12 35v-4.615c2.5 0 2.5-3.385 5-3.385s1.875 6 5 6 2.5-7.23 5-7.23S29.5 19 32 19s2.5 8 5 8 2.5-4.308 5-4.308S44.5 15 47 15s2.5 10.77 5 10.77V35Z" opacity=".2"/><path fill="#00db94" d="M14 22h6v12h-6z"/><path fill="#f95757" d="M20 16h6v18h-6z"/><path fill="#0eaff8" d="M26 8h6v26h-6z"/><path fill="#f95757" d="M32 18h6v16h-6z"/><path fill="#00db94" d="M38 4h6v30h-6z"/><path fill="#f95757" d="M44 10h6v24h-6z"/><path fill="#eff0f1" d="M10 38h6v6h-6zm16 0h18v6H26zm20 0h8v6h-8z"/><path fill="#4d4d4d" d="M12 40h2v2h-2zm16 0h6v2h-6z"/><path fill="#00db94" d="M48 40h4v2h-4z"/><path fill="#eff0f1" d="M18 38h6v6h-6z"/><path fill="#f95757" d="M20 40h2v2h-2z"/><path fill="#eff0f1" d="M10 48h6v6h-6zm16 0h18v6H26zm20 0h8v6h-8z"/><path fill="#0eaff8" d="M12 50h2v2h-2z"/><path fill="#ffbb27" d="M28 50h6v2h-6z"/><path fill="#f95757" d="M48 50h4v2h-4z"/><path fill="#eff0f1" d="M18 48h6v6h-6z"/><path fill="#4d4d4d" d="M20 50h2v2h-2z"/><path fill="#fff" d="M38 4v1h6V4zM26 8v1h6V8zm18 2v1h6v-1zm-24 6v1h6v-1zm12 2v1h6v-1zm-18 4v1h6v-1z" opacity=".2"/><path fill="#ffbb27" d="M12 34v-4.615c2.5 0 2.5-3.385 5-3.385s1.875 6 5 6 2.5-7.23 5-7.23S29.5 18 32 18s2.5 8 5 8 2.5-4.308 5-4.308S44.5 14 47 14s2.5 10.77 5 10.77V34Z"/><path fill="#fff" d="M47 14c-2.5 0-2.5 7.691-5 7.691S39.5 26 37 26s-2.5-8-5-8-2.5 6.77-5 6.77S25.125 32 22 32s-2.5-6-5-6-2.5 3.383-5 3.383v1c2.5 0 2.5-3.383 5-3.383s1.875 6 5 6 2.5-7.23 5-7.23S29.5 19 32 19s2.5 8 5 8 2.5-4.309 5-4.309S44.5 15 47 15s2.5 10.77 5 10.77v-1c-2.5 0-2.5-10.77-5-10.77" opacity=".2"/></svg>