<svg xmlns="http://www.w3.org/2000/svg" viewBox="0 0 64 64"><path d="M4 53v1c0 1.662 1.338 3 3 3h50c1.662 0 3-1.338 3-3v-1c0 1.662-1.338 3-3 3H7c-1.662 0-3-1.338-3-3" opacity=".2"/><rect width="56" height="48" x="4" y="8" fill="#87362d" rx="3" ry="3"/><path fill="#fff" d="M7 8c-1.662 0-3 1.338-3 3v1c0-1.662 1.338-3 3-3h50c1.662 0 3 1.338 3 3v-1c0-1.662-1.338-3-3-3z" opacity=".1"/><path d="M8 15v2l6 4v2l-6 4v2h2l8-6v-2l-8-6zm14 12v2h12v-2z" opacity=".2"/><path fill="#fff" d="M8 14v2l6 4v2l-6 4v2h2l8-6v-2l-8-6zm14 12v2h12v-2z"/></svg>