<svg xmlns="http://www.w3.org/2000/svg" viewBox="0 0 24 24"><path fill="#303030" d="M15 4h5v5h-1.504c-.13 1.105-.5 2.398-1.215 3.682C15.91 15.143 13.26 17.479 9 17.947V20H4v-5h1.992c.134-2.108.52-4.287 1.63-6.041a6.6 6.6 0 0 1 3.56-2.793c.81-.272 1.732-.43 2.78-.457.326-.008.687.02 1.038.037zm-1.008 2.709c-.964.025-1.788.17-2.492.406-1.409.474-2.355 1.304-3.033 2.377C7.515 10.998 7.153 12.998 7.02 15H9v1.916c3.879-.444 6.179-2.516 7.408-4.723A9.2 9.2 0 0 0 17.492 9H15V6.744c-.343-.018-.695-.043-1.008-.035M5 16v3h3v-3zM16 5v3h3V5z"/></svg>