<svg xmlns="http://www.w3.org/2000/svg" viewBox="0 0 64 64"><rect width="56" height="56" x="4" y="5" opacity=".2" rx="11.2" ry="11.2"/><rect width="56" height="56" x="4" y="4" fill="#e4e4e4" rx="11.2" ry="11.2"/><path d="M32 27.75 22 33l10 5.25-10 5.25V54l10-5.25 10-5.25V33Z" opacity=".1"/><path fill="#ff6f3d" d="M32.002 26.75v10.5h-.003L22 32Z"/><path d="m42 12-10 5.25-10 5.25V33l10-5.25 10-5.25Z" opacity=".1"/><path fill="#ffa03a" d="M42 11v10.502l-9.998-5.253Z"/><path fill="#ff6f3d" d="m42 21.502-9.998 5.249V16.249Z"/><path fill="#6239ae" d="M32.002 16.25v10.5L22 21.503Zm0 31.5L22 53V42.498Z"/><path fill="#8d3f42" d="M42 32v10.5l-9.998-5.25Z"/><path fill="#ec232e" d="m42 42.499-9.998 5.252V37.249Z"/><path fill="#b62078" d="M32.002 37.25v10.5L22 42.5l9.998-5.25Z"/><path fill="#ec232f" d="m42 32-9.998 5.25v-10.5Z"/><path fill="#f0463f" d="M32.002 26.75 22 32V21.502Z"/><path fill="#fff" d="M15.2 4C8.993 4 4 8.994 4 15.2v1C4 9.993 8.994 5 15.2 5h33.6C55.007 5 60 9.994 60 16.2v-1C60 8.993 55.006 4 48.8 4z" opacity=".2"/></svg>