<svg xmlns="http://www.w3.org/2000/svg" viewBox="0 0 64 64"><rect width="60" height="60" x="-63" y="-62" opacity=".2" rx="4.5" ry="4.5" transform="rotate(90)scale(-1 1)"/><rect width="60" height="60" x="-62" y="-62" fill="#e4e4e4" rx="4.5" ry="4.5" transform="rotate(90)scale(-1 1)"/><path d="M6.5 2A4.49 4.49 0 0 0 2 6.5V22h20V2Z" opacity=".3"/><path d="M42 2v20h20V6.5C62 4.009 59.992 2 57.5 2zM22 62h20V42H22z" opacity=".1"/><path d="M42 62V42h20v15.5c0 2.492-2.008 4.5-4.5 4.5ZM2 22h20v20H2z" opacity=".5"/><path d="M22 22h20v20H22z" opacity=".3"/><path fill="#3f3f3f" d="M12.653 12.058q-.767 0-1.153.513-.378.504-.378 1.519 0 1.017.378 1.528.386.504 1.151.504.774 0 1.152-.504.386-.511.386-1.528t-.386-1.52q-.378-.512-1.152-.512m3.605-5.562v2.14q-.72-.349-1.356-.511-.637-.17-1.242-.17-1.305 0-2.031.744-.726.737-.848 2.196.5-.38 1.082-.566.584-.195 1.275-.195 1.734 0 2.794 1.04 1.068 1.04 1.068 2.723 0 1.861-1.19 2.986Q14.62 18 12.62 18q-2.204 0-3.417-1.521-1.205-1.527-1.205-4.327 0-2.87 1.408-4.508Q10.825 6 13.287 6q.78 0 1.515.124.734.125 1.453.372" font-family="Bitstream Vera Sans" font-size="38.06" font-weight="700"/><path fill="#3f3f3f" d="M6.78 19.906h6.043v1.165l-3.126 6.854H7.683l2.96-6.5H6.78Z" font-family="DejaVu Sans" font-size="11" font-weight="700" style="line-height:125%" transform="matrix(1.48945 0 0 1.49644 -2.1 -3.788)"/><path fill="#3f3f3f" d="M25.169 23.445q.811.21 1.23.73.424.516.424 1.317 0 1.192-.913 1.815-.913.618-2.664.618-.618 0-1.24-.102-.618-.097-1.225-.296v-1.595q.58.29 1.15.44.574.145 1.127.145.822 0 1.257-.284.44-.285.44-.817 0-.547-.45-.827-.447-.284-1.322-.284h-.827v-1.332h.87q.779 0 1.16-.242.381-.247.381-.747 0-.462-.37-.714-.37-.253-1.048-.253-.5 0-1.01.113t-1.015.333V19.95q.613-.172 1.214-.258.602-.086 1.182-.086 1.563 0 2.336.515.78.51.78 1.542 0 .704-.371 1.155-.371.446-1.096.628" font-family="DejaVu Sans" font-size="11" font-weight="700" style="line-height:125%" transform="matrix(1.48945 0 0 1.44234 -2.952 -2.277)"/><path fill="#3f3f3f" d="M37.08 40.405h3.528v1.52h-5.827v-1.52l2.927-2.584q.392-.354.58-.693t.188-.703q0-.564-.381-.908-.376-.344-1.005-.344-.483 0-1.058.21-.574.204-1.23.612v-1.762q.698-.23 1.38-.349.683-.123 1.338-.123 1.44 0 2.234.633.8.634.8 1.767 0 .656-.338 1.225-.338.564-1.423 1.515z" font-family="DejaVu Sans" font-size="11" font-weight="700" style="line-height:125%" transform="matrix(1.54437 0 0 1.46986 -5.714 -3.623)"/><path fill="#fff" d="M6.5 2A4.49 4.49 0 0 0 2 6.5v1A4.49 4.49 0 0 1 6.5 3h51A4.49 4.49 0 0 1 62 7.5v-1A4.49 4.49 0 0 0 57.5 2z" opacity=".2"/><path d="M2 22h40v1H2z" opacity=".2"/><path fill="#fff" d="M2 42h40v1H2zm40-20h20v1H42z" opacity=".2"/><path d="M42 42h20v1H42z" opacity=".2"/></svg>