<svg xmlns="http://www.w3.org/2000/svg" xmlns:xlink="http://www.w3.org/1999/xlink" viewBox="0 0 96 96"><defs><linearGradient id="b" x1="50%" x2="50%" y1="0%" y2="100%"><stop offset="0%" stop-color="#340b84"/><stop offset="100%" stop-color="#00003b"/></linearGradient><linearGradient id="c" x1="50%" x2="59.22%" y1="0%" y2="92.341%"><stop offset="0%" stop-color="#f3f394"/><stop offset="100%" stop-color="#f3e46f"/></linearGradient><linearGradient id="d" x1="50%" x2="50%" y1="0%" y2="100%"><stop offset="0%" stop-color="#664693"/><stop offset="100%" stop-color="#3b2763"/></linearGradient><filter id="a" width="137.3%" height="130.8%" x="-19.4%" y="-15.4%" filterUnits="objectBoundingBox"><feOffset dy="2" in="SourceAlpha" result="shadowOffsetOuter1"/><feGaussianBlur in="shadowOffsetOuter1" result="shadowBlurOuter1" stdDeviation="2"/><feComposite in="shadowBlurOuter1" in2="SourceAlpha" operator="out" result="shadowBlurOuter1"/><feColorMatrix in="shadowBlurOuter1" result="shadowMatrixOuter1" values="0 0 0 0 0 0 0 0 0 0 0 0 0 0 0 0 0 0 0.2 0"/><feMerge><feMergeNode in="shadowMatrixOuter1"/><feMergeNode in="SourceGraphic"/></feMerge></filter></defs><g fill="none" fill-rule="evenodd" filter="url(#a)" transform="translate(14 9)"><rect width="43" height="65" x="24" y="6" fill="url(#b)" rx="15"/><path fill="url(#c)" stroke="url(#d)" stroke-width="2" d="M49.4 71.905a13.96 13.96 0 0 1-10.38 2.66l-26-3.715a13.97 13.97 0 0 1-8.596-4.687A13.97 13.97 0 0 1 1 56.991V6.899l38.509-4.126A13.96 13.96 0 0 1 50.9 6.793a13.96 13.96 0 0 1 4.1 9.9v44.012a14 14 0 0 1-.14 1.98 13.96 13.96 0 0 1-5.46 9.22Z"/><g stroke-width="2" transform="translate(0 9)"><path stroke="#402a69" stroke-linejoin="round" d="m10 62 4-11 12 1"/><path stroke="#4c3376" stroke-linejoin="round" d="m0 40 39 2"/><path stroke="#51377c" stroke-linejoin="round" d="M25 30H0"/><path stroke="#573b83" stroke-linejoin="round" d="m24 9-2 9-22 1"/><ellipse cx="43.5" cy="41.5" fill="#fff" stroke="#4c3376" rx="4.5" ry="5.5"/><ellipse cx="28" cy="29" fill="#fff" stroke="#51377c" rx="4" ry="5"/><ellipse cx="30" cy="52" fill="#fff" stroke="#402a69" rx="4" ry="5"/><ellipse cx="25" cy="6" fill="#fff" stroke="#573b83" rx="4" ry="5"/></g></g></svg>