<svg xmlns="http://www.w3.org/2000/svg" viewBox="0 0 64 64"><path d="M4 56.7v2c0 1.55 1.25 2.8 2.8 2.8h50.4c1.55 0 2.8-1.25 2.8-2.8v-2c0 1.55-1.25 2.8-2.8 2.8H6.8c-1.55 0-2.8-1.25-2.8-2.8" opacity=".2"/><rect width="56" height="56" x="4" y="4.5" fill="#fb8c00" rx="2.8" ry="2.8"/><path fill="#1e88e5" d="M60 57.7V7.3c0-1.551-1.249-2.8-2.8-2.8H32v56h25.2c1.55 0 2.8-1.25 2.8-2.8"/><path fill="#fff" d="M6.8 4.5C5.25 4.5 4 5.75 4 7.3v1c0-1.55 1.25-2.8 2.8-2.8h50.4c1.55 0 2.8 1.25 2.8 2.8v-1c0-1.55-1.25-2.8-2.8-2.8z" opacity=".2"/><path d="m29 25-4 2v2l4-2 4 2v-2z" opacity=".21"/><path fill="#424242" d="M26.6 2.5C25 2.5 25 3.872 25 3.872V28l4-2 4 2V3.872C33 2.5 31.4 2.5 31.4 2.5z"/><path fill="#fff" d="M26.6 2.5C25 2.5 25 3.871 25 3.871v1S25 3.5 26.6 3.5h4.8s1.6 0 1.6 1.371v-1C33 2.5 31.4 2.5 31.4 2.5z" opacity=".2"/></svg>