<svg xmlns="http://www.w3.org/2000/svg" xmlns:xlink="http://www.w3.org/1999/xlink" viewBox="0 0 32 32"><defs><filter id="a" width="1.16" height="1.48" x="-.08" y="-.24" color-interpolation-filters="sRGB"><feGaussianBlur stdDeviation="1"/></filter></defs><path d="M10.963 11.996a1 1 0 0 0-.37.086l-9 4a1 1 0 0 0 0 1.828l9 4a1 1 0 0 0 1.167-.264l1.61-1.88a1 1 0 0 0 .087-1.182A3 3 0 0 1 13 16.998a3.015 3.015 0 0 0 3 2.998 3.01 3.01 0 0 0 2.541-1.414 1 1 0 0 0 .088 1.182l1.611 1.882a1 1 0 0 0 1.166.264l9-4a1 1 0 0 0 0-1.828l-9-4a1 1 0 0 0-1.166.264l-1.61 1.88a1 1 0 0 0-.087 1.182c.298.476.456 1.025.457 1.586a3.015 3.015 0 0 0-3-2.998 3.01 3.01 0 0 0-2.541 1.414 1 1 0 0 0-.088-1.181l-1.611-1.883a1 1 0 0 0-.797-.35m-.238 2.217.806.941c-.245.597-.53 1.19-.531 1.84v.002c0 .651.285 1.244.53 1.842l-.805.941-6.262-2.783zm10.55 0 6.262 2.783-6.262 2.783-.806-.941c.245-.597.53-1.189.531-1.84v-.002c0-.651-.285-1.244-.53-1.842ZM16 15.996c.564 0 1 .436 1 1s-.436 1-1 1-1-.436-1-1 .436-1 1-1" color="#000" enable-background="accumulate" filter="url(#a)" font-family="sans-serif" font-weight="400" opacity=".35" overflow="visible" paint-order="stroke fill markers" style="line-height:normal;font-variant-ligatures:normal;font-variant-position:normal;font-variant-caps:normal;font-variant-numeric:normal;font-variant-alternates:normal;font-feature-settings:normal;text-indent:0;text-align:start;text-decoration-line:none;text-decoration-style:solid;text-decoration-color:#000;text-transform:none;text-orientation:mixed;white-space:normal;shape-padding:0;isolation:auto;mix-blend-mode:normal;solid-color:#000;solid-opacity:1" transform="rotate(135 8.91 .12)scale(1 -1)"/><path fill="#fff" d="M16.026 8.903a1 1 0 0 1 .322-.2l9.192-3.536a1 1 0 0 1 1.293 1.293l-3.535 9.192a1 1 0 0 1-1.011.638l-2.468-.192a1 1 0 0 1-.898-.773 3 3 0 0 0-.798-1.445 3.015 3.015 0 0 1-.002 4.241 3.01 3.01 0 0 1-2.796.797 1 1 0 0 1 .773.898l.192 2.47a1 1 0 0 1-.638 1.012L6.46 26.833a1 1 0 0 1-1.293-1.293l3.535-9.192a1 1 0 0 1 1.011-.638l2.468.192a1 1 0 0 1 .898.773c.126.548.402 1.047.798 1.445a3.015 3.015 0 0 1 .002-4.241 3.01 3.01 0 0 1 2.796-.797 1 1 0 0 1-.773-.898l-.192-2.47a1 1 0 0 1 .316-.811m1.736 1.399.096 1.236c.595.249 1.215.466 1.676.925l.002.001c.46.461.678 1.082.928 1.677l1.234.097 2.46-6.396zm-7.46 7.46-2.46 6.396 6.396-2.46-.096-1.236c-.595-.249-1.215-.466-1.676-.925l-.002-.001c-.46-.461-.678-1.082-.928-1.677zm4.99-2.47a.985.985 0 0 0 0 1.415.985.985 0 0 0 1.415 0 .985.985 0 0 0 0-1.414.985.985 0 0 0-1.414 0" color="#000" enable-background="accumulate" font-family="sans-serif" font-weight="400" overflow="visible" paint-order="stroke fill markers" style="line-height:normal;font-variant-ligatures:normal;font-variant-position:normal;font-variant-caps:normal;font-variant-numeric:normal;font-variant-alternates:normal;font-feature-settings:normal;text-indent:0;text-align:start;text-decoration-line:none;text-decoration-style:solid;text-decoration-color:#000;text-transform:none;text-orientation:mixed;white-space:normal;shape-padding:0;isolation:auto;mix-blend-mode:normal;solid-color:#000;solid-opacity:1"/><path fill="#282a33" d="M16.707 9.636 25.9 6.101l-3.535 9.192-2.468-.192a4 4 0 0 0-1.068-1.93 4 4 0 0 0-1.929-1.064zm-7.071 7.071 2.468.192a4 4 0 0 0 1.068 1.93 4 4 0 0 0 1.929 1.064l.192 2.471L6.1 25.899z" paint-order="stroke fill markers"/><circle cy="22.627" r="2" fill="#5294e2" paint-order="stroke fill markers" transform="rotate(135)scale(1 -1)"/></svg>