<svg xmlns="http://www.w3.org/2000/svg" xmlns:xlink="http://www.w3.org/1999/xlink" viewBox="0 0 32 32"><defs><filter id="a" width="1.16" height="1.48" x="-.08" y="-.24" color-interpolation-filters="sRGB"><feGaussianBlur stdDeviation="1"/></filter></defs><path d="M10.963 11.996a1 1 0 0 0-.37.086l-9 4a1 1 0 0 0 0 1.828l9 4a1 1 0 0 0 1.167-.264l1.61-1.88a1 1 0 0 0 .087-1.182A3 3 0 0 1 13 16.998a3.015 3.015 0 0 0 3 2.998 3.01 3.01 0 0 0 2.541-1.414 1 1 0 0 0 .088 1.182l1.611 1.882a1 1 0 0 0 1.166.264l9-4a1 1 0 0 0 0-1.828l-9-4a1 1 0 0 0-1.166.264l-1.61 1.88a1 1 0 0 0-.087 1.182c.298.476.456 1.025.457 1.586a3.015 3.015 0 0 0-3-2.998 3.01 3.01 0 0 0-2.541 1.414 1 1 0 0 0-.088-1.181l-1.611-1.883a1 1 0 0 0-.797-.35m-.238 2.217.806.941c-.245.597-.53 1.19-.531 1.84v.002c0 .651.285 1.244.53 1.842l-.805.941-6.262-2.783zm10.55 0 6.262 2.783-6.262 2.783-.806-.941c.245-.597.53-1.189.531-1.84v-.002c0-.651-.285-1.244-.53-1.842ZM16 15.996c.564 0 1 .436 1 1s-.436 1-1 1-1-.436-1-1 .436-1 1-1" color="#000" enable-background="accumulate" filter="url(#a)" font-family="sans-serif" font-weight="400" opacity=".35" overflow="visible" paint-order="stroke fill markers" style="line-height:normal;font-variant-ligatures:normal;font-variant-position:normal;font-variant-caps:normal;font-variant-numeric:normal;font-variant-alternates:normal;font-feature-settings:normal;text-indent:0;text-align:start;text-decoration-line:none;text-decoration-style:solid;text-decoration-color:#000;text-transform:none;text-orientation:mixed;white-space:normal;shape-padding:0;isolation:auto;mix-blend-mode:normal;solid-color:#000;solid-opacity:1" transform="rotate(90 16 16.996)"/><path fill="#fff" d="M21 10.963a1 1 0 0 0-.086-.37l-4-9a1 1 0 0 0-1.828 0l-4 9a1 1 0 0 0 .263 1.167l1.881 1.609a1 1 0 0 0 1.182.088A3 3 0 0 1 15.998 13 3.015 3.015 0 0 0 13 16a3.01 3.01 0 0 0 1.414 2.54 1 1 0 0 0-1.182.089L11.35 20.24a1 1 0 0 0-.263 1.166l4 9a1 1 0 0 0 1.828 0l4-9a1 1 0 0 0-.264-1.166l-1.88-1.61a1 1 0 0 0-1.182-.087 3 3 0 0 1-1.586.457A3.015 3.015 0 0 0 19 16a3.01 3.01 0 0 0-1.414-2.541 1 1 0 0 0 1.181-.088l1.883-1.611a1 1 0 0 0 .35-.797m-2.217-.239-.941.807c-.598-.245-1.19-.53-1.84-.531H16c-.651 0-1.244.284-1.842.53l-.941-.806L16 4.463Zm0 10.551L16 27.537l-2.783-6.262.941-.806c.597.245 1.189.53 1.84.53H16c.65 0 1.244-.284 1.842-.529zM17 16c0 .564-.436 1-1 1s-1-.436-1-1 .436-1 1-1 1 .436 1 1" color="#000" enable-background="accumulate" font-family="sans-serif" font-weight="400" overflow="visible" paint-order="stroke fill markers" style="line-height:normal;font-variant-ligatures:normal;font-variant-position:normal;font-variant-caps:normal;font-variant-numeric:normal;font-variant-alternates:normal;font-feature-settings:normal;text-indent:0;text-align:start;text-decoration-line:none;text-decoration-style:solid;text-decoration-color:#000;text-transform:none;text-orientation:mixed;white-space:normal;shape-padding:0;isolation:auto;mix-blend-mode:normal;solid-color:#000;solid-opacity:1"/><path fill="#282a33" d="m20 11-4-9-4 9 1.88 1.61A4 4 0 0 1 16 12a4 4 0 0 1 2.117.611zm0 10-1.88-1.61A4 4 0 0 1 16 20a4 4 0 0 1-2.117-.611L12 21l4 9z" paint-order="stroke fill markers"/><circle cx="16" cy="-16" r="2" fill="#5294e2" paint-order="stroke fill markers" transform="rotate(90)"/></svg>