<svg xmlns="http://www.w3.org/2000/svg" xmlns:xlink="http://www.w3.org/1999/xlink" fill="none" viewBox="0 0 24 24"><defs><mask id="a"><path fill="#fff" fill-rule="evenodd" d="M3.907 0h16.186c1.011 0 1.377.077 1.747.223.366.142.665.362.858.63.197.271.302.54.302 1.284v19.726c0 .743-.105 1.013-.302 1.284-.193.268-.492.488-.858.63-.37.146-.736.223-1.747.223H3.907c-1.01 0-1.377-.077-1.746-.223a1.9 1.9 0 0 1-.858-.63c-.198-.271-.303-.54-.303-1.284V2.137c0-.743.105-1.013.302-1.284.193-.268.492-.488.857-.63C2.53.077 2.897 0 3.907 0" clip-rule="evenodd"/><path fill="#fff" fill-rule="evenodd" d="M3.876.083h16.249c.96 0 1.309.074 1.66.212.347.135.63.343.815.598.188.258.287.514.287 1.22v19.774c0 .706-.1.962-.287 1.22a1.8 1.8 0 0 1-.815.598c-.351.138-.7.212-1.66.212H3.875c-.96 0-1.309-.074-1.66-.212a1.8 1.8 0 0 1-.814-.598c-.187-.258-.288-.514-.288-1.22V2.113c0-.706.1-.961.288-1.22.184-.255.468-.463.814-.598.351-.138.7-.212 1.66-.212" clip-rule="evenodd"/><path fill="#fff" fill-rule="evenodd" d="M3.893.417h16.215c.808 0 1.102.062 1.398.178.292.114.531.29.686.504.157.217.242.433.242 1.027v19.748c0 .595-.085.81-.242 1.027-.155.215-.394.39-.686.504-.297.117-.59.179-1.398.179H3.893c-.81 0-1.102-.062-1.399-.179a1.5 1.5 0 0 1-.686-.504c-.157-.217-.242-.433-.242-1.027V2.127c0-.594.085-.81.244-1.027a1.5 1.5 0 0 1 .686-.504C2.79.479 3.084.417 3.893.417" clip-rule="evenodd"/><path fill="#000" fill-rule="evenodd" d="M3.523 1h16.954c.404 0 .551.031.698.09a.76.76 0 0 1 .343.251c.08.109.122.217.122.514v20.29c0 .298-.042.405-.122.514a.76.76 0 0 1-.343.252c-.147.058-.294.09-.698.09H3.523c-.404 0-.551-.032-.698-.09a.76.76 0 0 1-.343-.252c-.079-.109-.122-.216-.122-.514V1.855c0-.297.043-.405.122-.514a.76.76 0 0 1 .343-.252c.147-.058.294-.089.698-.089" clip-rule="evenodd"/><path fill="#fff" fill-rule="evenodd" d="M9.48 16.236V8.093H8.403L5 9.708l.605 1.23 1.998-.893v6.191zm1.756-4.077C11.236 9.766 12.642 8 15.112 8 17.547 8 19 9.766 19 12.159c0 2.404-1.429 4.16-3.863 4.16-2.495 0-3.9-1.756-3.9-4.16m1.878 0c0 1.65.763 2.591 2.023 2.591 1.368 0 1.985-.94 1.985-2.591 0-1.66-.665-2.59-2.01-2.59-1.26 0-1.998.951-1.998 2.59" clip-rule="evenodd"/></mask></defs><g fill="#ffab00" fill-rule="evenodd" clip-rule="evenodd" data-iconColor="SizeLimit" mask="url(#a)"><path d="M3.907 0h16.186c1.011 0 1.377.077 1.747.223.366.142.665.362.858.63.197.271.302.54.302 1.284v19.726c0 .743-.105 1.013-.302 1.284-.193.268-.492.488-.858.63-.37.146-.736.223-1.747.223H3.907c-1.01 0-1.377-.077-1.746-.223a1.9 1.9 0 0 1-.858-.63c-.198-.271-.303-.54-.303-1.284V2.137c0-.743.105-1.013.302-1.284.193-.268.492-.488.857-.63C2.53.077 2.897 0 3.907 0"/><path fill="#ffd600" d="M3.876.083h16.249c.96 0 1.309.074 1.66.212.347.135.63.343.815.598.188.258.287.514.287 1.22v19.774c0 .706-.1.962-.287 1.22a1.8 1.8 0 0 1-.815.598c-.351.138-.7.212-1.66.212H3.875c-.96 0-1.309-.074-1.66-.212a1.8 1.8 0 0 1-.814-.598c-.187-.258-.288-.514-.288-1.22V2.113c0-.706.1-.961.288-1.22.184-.255.468-.463.814-.598.351-.138.7-.212 1.66-.212"/><path d="M3.893.417h16.215c.808 0 1.102.062 1.398.178.292.114.531.29.686.504.157.217.242.433.242 1.027v19.748c0 .595-.085.81-.242 1.027-.155.215-.394.39-.686.504-.297.117-.59.179-1.398.179H3.893c-.81 0-1.102-.062-1.399-.179a1.5 1.5 0 0 1-.686-.504c-.157-.217-.242-.433-.242-1.027V2.127c0-.594.085-.81.244-1.027a1.5 1.5 0 0 1 .686-.504C2.79.479 3.084.417 3.893.417"/><path fill="#fff" d="M3.523 1h16.954c.404 0 .551.031.698.09a.76.76 0 0 1 .343.251c.08.109.122.217.122.514v20.29c0 .298-.042.405-.122.514a.76.76 0 0 1-.343.252c-.147.058-.294.09-.698.09H3.523c-.404 0-.551-.032-.698-.09a.76.76 0 0 1-.343-.252c-.079-.109-.122-.216-.122-.514V1.855c0-.297.043-.405.122-.514a.76.76 0 0 1 .343-.252c.147-.058.294-.089.698-.089"/><path d="M9.48 16.236V8.093H8.403L5 9.708l.605 1.23 1.998-.893v6.191zm1.756-4.077C11.236 9.766 12.642 8 15.112 8 17.547 8 19 9.766 19 12.159c0 2.404-1.429 4.16-3.863 4.16-2.495 0-3.9-1.756-3.9-4.16m1.878 0c0 1.65.763 2.591 2.023 2.591 1.368 0 1.985-.94 1.985-2.591 0-1.66-.665-2.59-2.01-2.59-1.26 0-1.998.951-1.998 2.59"/></g></svg>