<svg xmlns="http://www.w3.org/2000/svg" xmlns:xlink="http://www.w3.org/1999/xlink" viewBox="0 0 32 32"><defs><filter id="a" width="1.16" height="1.48" x="-.08" y="-.24" color-interpolation-filters="sRGB"><feGaussianBlur stdDeviation="1"/></filter></defs><path d="M10.963 11.996a1 1 0 0 0-.37.086l-9 4a1 1 0 0 0 0 1.828l9 4a1 1 0 0 0 1.167-.264l1.61-1.88a1 1 0 0 0 .087-1.182A3 3 0 0 1 13 16.998a3.015 3.015 0 0 0 3 2.998 3.01 3.01 0 0 0 2.541-1.414 1 1 0 0 0 .088 1.182l1.611 1.882a1 1 0 0 0 1.166.264l9-4a1 1 0 0 0 0-1.828l-9-4a1 1 0 0 0-1.166.264l-1.61 1.88a1 1 0 0 0-.087 1.182c.298.476.456 1.025.457 1.586a3.015 3.015 0 0 0-3-2.998 3.01 3.01 0 0 0-2.541 1.414 1 1 0 0 0-.088-1.181l-1.611-1.883a1 1 0 0 0-.797-.35m-.238 2.217.806.941c-.245.597-.53 1.19-.531 1.84v.002c0 .651.285 1.244.53 1.842l-.805.941-6.262-2.783zm10.55 0 6.262 2.783-6.262 2.783-.806-.941c.245-.597.53-1.189.531-1.84v-.002c0-.651-.285-1.244-.53-1.842zM16 15.996c.564 0 1 .436 1 1s-.436 1-1 1-1-.436-1-1 .436-1 1-1" color="#000" enable-background="accumulate" filter="url(#a)" font-family="sans-serif" font-weight="400" opacity=".35" overflow="visible" paint-order="stroke fill markers" style="line-height:normal;font-variant-ligatures:normal;font-variant-position:normal;font-variant-caps:normal;font-variant-numeric:normal;font-variant-alternates:normal;font-feature-settings:normal;text-indent:0;text-align:start;text-decoration-line:none;text-decoration-style:solid;text-decoration-color:#000;text-transform:none;text-orientation:mixed;white-space:normal;shape-padding:0;isolation:auto;mix-blend-mode:normal;solid-color:#000;solid-opacity:1"/><path fill="#fff" d="M10.963 11a1 1 0 0 0-.37.086l-9 4a1 1 0 0 0 0 1.828l9 4a1 1 0 0 0 1.167-.264l1.61-1.88a1 1 0 0 0 .087-1.182A3 3 0 0 1 13 16.002 3.015 3.015 0 0 0 16 19a3.01 3.01 0 0 0 2.541-1.414 1 1 0 0 0 .088 1.182l1.611 1.882a1 1 0 0 0 1.166.264l9-4a1 1 0 0 0 0-1.828l-9-4a1 1 0 0 0-1.166.264l-1.61 1.88a1 1 0 0 0-.087 1.182c.298.476.456 1.025.457 1.586A3.015 3.015 0 0 0 16 13a3.01 3.01 0 0 0-2.541 1.414 1 1 0 0 0-.088-1.182L11.76 11.35a1 1 0 0 0-.797-.35m-.238 2.217.806.941c-.245.597-.53 1.19-.531 1.84V16c0 .651.285 1.244.53 1.842l-.805.941L4.463 16Zm10.55 0L27.537 16l-6.262 2.783-.806-.941c.245-.597.53-1.19.531-1.84V16c0-.651-.285-1.244-.53-1.842zM16 15c.564 0 1 .436 1 1s-.436 1-1 1-1-.436-1-1 .436-1 1-1" color="#000" enable-background="accumulate" font-family="sans-serif" font-weight="400" overflow="visible" paint-order="stroke fill markers" style="line-height:normal;font-variant-ligatures:normal;font-variant-position:normal;font-variant-caps:normal;font-variant-numeric:normal;font-variant-alternates:normal;font-feature-settings:normal;text-indent:0;text-align:start;text-decoration-line:none;text-decoration-style:solid;text-decoration-color:#000;text-transform:none;text-orientation:mixed;white-space:normal;shape-padding:0;isolation:auto;mix-blend-mode:normal;solid-color:#000;solid-opacity:1"/><path fill="#282a33" d="m11 12-9 4 9 4 1.61-1.88A4 4 0 0 1 12 16a4 4 0 0 1 .611-2.117zm10 0-1.61 1.88A4 4 0 0 1 20 16a4 4 0 0 1-.611 2.117L21 20l9-4Z" paint-order="stroke fill markers"/><circle cx="16" cy="16" r="2" fill="#5294e2" paint-order="stroke fill markers"/></svg>