<svg xmlns="http://www.w3.org/2000/svg" viewBox="0 0 64 64"><path d="M18.796 7a3.594 3.54 0 0 0-3.109 1.766l-6.601 11.23-6.602 11.23a3.594 3.54 0 0 0 0 3.547l6.602 11.23 6.601 11.23A3.594 3.54 0 0 0 18.797 59h26.407a3.594 3.54 0 0 0 3.11-1.766l6.6-11.23 6.602-11.23a3.594 3.54 0 0 0 0-3.547l-6.602-11.23-6.6-11.23A3.594 3.54 0 0 0 45.205 7H32Z" opacity=".2"/><path fill="#3f474a" d="M18.796 6a3.594 3.54 0 0 0-3.109 1.766l-6.601 11.23-6.602 11.23a3.594 3.54 0 0 0 0 3.547l6.602 11.23 6.601 11.23A3.594 3.54 0 0 0 18.797 58h26.407a3.594 3.54 0 0 0 3.11-1.766l6.6-11.23 6.602-11.23a3.594 3.54 0 0 0 0-3.547l-6.602-11.23-6.6-11.23A3.594 3.54 0 0 0 45.205 6H32Z"/><path d="M20.46 13 8.923 33 20.46 53h23.078l11.54-20-11.54-20Z" opacity=".2"/><path fill="#73d216" d="M20.461 12 8.923 32H32Z"/><path fill="#ffe721" d="M8.923 32 20.46 52 32 32Z"/><path fill="#f57900" d="M20.462 52H43.54L32 32Z"/><path fill="#ef2929" d="m43.539 52 11.538-20H32Z"/><path fill="#8c398d" d="M55.077 32 43.54 12 32 32Z"/><path fill="#3465a4" d="m43.54 12-23.077.001 11.538 20z"/><path fill="#fff" d="M18.797 6a3.594 3.54 0 0 0-3.11 1.766l-6.601 11.23-6.602 11.23a3.594 3.54 0 0 0-.443 2.268 3.594 3.54 0 0 1 .443-1.267l6.602-11.23 6.602-11.231A3.594 3.54 0 0 1 18.797 7h26.406a3.594 3.54 0 0 1 3.113 1.766l6.598 11.23 6.602 11.23a3.594 3.54 0 0 1 .441 1.27 3.594 3.54 0 0 0-.441-2.27l-6.602-11.23-6.598-11.23A3.594 3.54 0 0 0 45.203 6z" opacity=".1"/><path fill="#fff" d="M20.46 12 8.923 32l.289.5L20.46 13h23.078l11.25 19.5.29-.5-11.54-20z" opacity=".1"/></svg>