<svg xmlns="http://www.w3.org/2000/svg" viewBox="0 0 64 64"><rect width="56" height="44" x="-61" y="-54" opacity=".2" rx="2.8" ry="2.75" transform="rotate(90)scale(-1 1)"/><rect width="56" height="44" x="-60" y="-54" fill="#4f4f4f" rx="2.8" ry="2.75" transform="rotate(90)scale(-1 1)"/><rect width="34" height="28" x="-44" y="-49" opacity=".2" ry="4.2" transform="rotate(90)scale(-1 1)"/><rect width="34" height="28" x="-56" y="-43" opacity=".2" ry="4.2" transform="rotate(90)scale(-1 1)"/><rect width="34" height="28" x="-43" y="-49" fill="#dbdbdb" ry="4.2" transform="rotate(90)scale(-1 1)"/><rect width="34" height="28" x="-55" y="-43" fill="#fff" ry="4.2" transform="rotate(90)scale(-1 1)"/><path fill="#8e8e8e" d="M18 26h22v3H18zm0 6h8v3h-8zm0 6h22v3H18zm0 6h14v3H18z"/><path fill="#a1a1a1" d="M24 12h17v3H24zm0 6h22v3H24z"/><rect width="56" height="6" x="4" y="21" opacity=".2" rx="1.4" ry="1.5"/><rect width="56" height="6" x="4" y="20" fill="#3584f3" rx="1.4" ry="1.5"/><path fill="#fff" d="M12.75 4C11.226 4 10 5.25 10 6.8v1C10 6.25 11.226 5 12.75 5h38.5C52.773 5 54 6.25 54 7.8v-1C54 5.25 52.773 4 51.25 4z" opacity=".1"/></svg>