<svg xmlns="http://www.w3.org/2000/svg" viewBox="0 0 64 64"><rect width="56" height="45" x="-61" y="-54" opacity=".2" rx="2.8" ry="2.813" transform="rotate(90)scale(-1 1)"/><rect width="56" height="45" x="-60" y="-54" fill="#4f4f4f" rx="2.8" ry="2.813" transform="rotate(90)scale(-1 1)"/><rect width="42" height="31" x="-53" y="-47" fill="#e4e4e4" rx="0" ry="0" transform="rotate(90)scale(-1 1)"/><rect width="57" height="6" x="3" y="22" opacity=".2" rx="1.425" ry="1.5"/><rect width="57" height="6" x="3" y="21" fill="#f34235" rx="1.425" ry="1.5"/><rect width="1" height="31" x="-54" y="-47" opacity=".2" rx="0" ry="0" transform="rotate(90)scale(-1 1)"/><rect width="1" height="31" x="-12" y="-47" fill="#fff" opacity=".2" rx="0" ry="0" transform="rotate(90)scale(-1 1)"/><path fill="#fff" d="M11.813 4A2.8 2.8 0 0 0 9 6.8v1A2.8 2.8 0 0 1 11.813 5h39.375A2.8 2.8 0 0 1 54 7.8v-1A2.8 2.8 0 0 0 51.188 4z" opacity=".1"/></svg>