<svg xmlns="http://www.w3.org/2000/svg" viewBox="0 0 64 64"><circle cx="32.5" cy="32.5" r="28.5" opacity=".2"/><circle cx="32.5" cy="31.5" r="28.5" fill="#e4e4e4"/><path fill="#fff" d="M32.5 3A28.5 28.5 0 0 0 4 31.5a29 29 0 0 0 .021.582A28.5 28.5 0 0 1 32.5 4a28.5 28.5 0 0 1 28.479 27.918L61 31.5A28.5 28.5 0 0 0 32.5 3" opacity=".2"/><path d="M31 27a4 4 0 0 0-4-4H16a4 4 0 0 0-4 4 4 4 0 0 0 4 4h11a4 4 0 0 0 4-4m-4-15a4 4 0 0 0-4 4 4 4 0 0 0 4 4h4v-4a4 4 0 0 0-4-4M16 42a4 4 0 0 1-4-4 4 4 0 0 1 4-4h4v4a4 4 0 0 1-4 4m11-8a4 4 0 0 0-4 4v11a4 4 0 0 0 4 4 4 4 0 0 0 4-4V38a4 4 0 0 0-4-4m11 19a4 4 0 0 0 4-4 4 4 0 0 0-4-4h-4v4a4 4 0 0 0 4 4m15-15a4 4 0 0 0-4-4H38a4 4 0 0 0-4 4 4 4 0 0 0 4 4h11a4 4 0 0 0 4-4m-4-15a4 4 0 0 1 4 4 4 4 0 0 1-4 4h-4v-4a4 4 0 0 1 4-4M38 12a4 4 0 0 0-4 4v11a4 4 0 0 0 4 4 4 4 0 0 0 4-4V16a4 4 0 0 0-4-4" opacity=".2"/><path fill="#2eb67d" d="M49 22a4 4 0 0 1 4 4 4 4 0 0 1-4 4h-4v-4a4 4 0 0 1 4-4M38 11a4 4 0 0 0-4 4v11a4 4 0 0 0 4 4 4 4 0 0 0 4-4V15a4 4 0 0 0-4-4"/><path fill="#ecb22e" d="M38 52a4 4 0 0 0 4-4 4 4 0 0 0-4-4h-4v4a4 4 0 0 0 4 4m15-15a4 4 0 0 0-4-4H38a4 4 0 0 0-4 4 4 4 0 0 0 4 4h11a4 4 0 0 0 4-4"/><path fill="#e01e5a" d="M16 41a4 4 0 0 1-4-4 4 4 0 0 1 4-4h4v4a4 4 0 0 1-4 4m11-8a4 4 0 0 0-4 4v11a4 4 0 0 0 4 4 4 4 0 0 0 4-4V37a4 4 0 0 0-4-4"/><path fill="#36c5f0" d="M31 26a4 4 0 0 0-4-4H16a4 4 0 0 0-4 4 4 4 0 0 0 4 4h11a4 4 0 0 0 4-4m-4-15a4 4 0 0 0-4 4 4 4 0 0 0 4 4h4v-4a4 4 0 0 0-4-4"/></svg>