<svg xmlns="http://www.w3.org/2000/svg" viewBox="0 0 16 16"><path fill="currentColor" d="M3.156 3.374A1 1 0 0 0 2.449 4.6l.259.966-.966.259a1 1 0 0 0-.707 1.225c.143.535.69.85 1.224.707l.966-.26 1.036 3.865-.966.258a1 1 0 0 0-.708 1.225c.144.535.69.85 1.225.707l.966-.259.259.966c.143.535.69.85 1.225.707a1 1 0 0 0 .707-1.224l-.259-.966 3.864-1.036.259.966c.143.536.69.85 1.224.708a1 1 0 0 0 .707-1.225l-.258-.966.966-.259a1 1 0 0 0 .707-1.225 1 1 0 0 0-1.225-.707l-.966.259-1.035-3.864.966-.259a1 1 0 0 0 .707-1.224 1 1 0 0 0-1.225-.707l-.966.258-.259-.965a1 1 0 0 0-1.225-.708 1 1 0 0 0-.707 1.225l.26.966-3.865 1.035-.258-.966a1 1 0 0 0-1.225-.707zM5.157 6.98l3.864-1.035 1.035 3.864-3.864 1.035z" color="#d3dae3"/></svg>