<svg xmlns="http://www.w3.org/2000/svg" viewBox="0 0 64 64"><path d="M43.406 21.594 12.582 52.418A22 22 0 0 0 30 61a22 22 0 0 0 22-22 22 22 0 0 0-8.594-17.406" opacity=".2"/><path fill="#909004" d="M43.406 20.594 12.582 51.418A22 22 0 0 0 30 60a22 22 0 0 0 22-22 22 22 0 0 0-8.594-17.406"/><path d="M34 5a22 22 0 0 0-22 22 22 22 0 0 0 8.594 17.406l30.824-30.824A22 22 0 0 0 34 5" opacity=".2"/><path fill="#c5c520" d="M34 4a22 22 0 0 0-22 22 22 22 0 0 0 8.594 17.406l30.824-30.824A22 22 0 0 0 34 4"/><path fill="#fff" d="M34 4a22 22 0 0 0-22 22l.021.398A22 22 0 0 1 34 5a22 22 0 0 1 16.957 8.043l.461-.461A22 22 0 0 0 34 4" opacity=".2"/></svg>