<svg xmlns="http://www.w3.org/2000/svg" viewBox="0 0 24 24"><path fill="#536076" d="M15 18v-4h2.553c.229 0 .447-.23.447-.5 0-.221-.196-.427-.536-.5H15V9h-4V6.45c0-.23-.23-.45-.5-.45s-.5.22-.5.45V9H6v2h.45C7.802 11 9 12.144 9 13.5S7.803 16 6.45 16H6v2h2c.006-1.835.541-2.946 2.472-3 1.075-.03 1.862.46 2.246 1.312.23.51.28.958.282 1.688zM10.5 5c.802 0 1.5.647 1.5 1.45V8h3.139c.535 0 .861.326.861.861V12h1.553c.793.123 1.447.698 1.447 1.5s-.645 1.5-1.447 1.5H16v3.033c0 .535-.326.967-.861.967H12v-.967c0-.742-.018-2.074-1.5-2.033S9 17.231 9 18.033V19H5.965A.964.964 0 0 1 5 18.033V15h1.45C7.251 15 8 14.302 8 13.5S7.252 12 6.45 12H5V8.861C5 8.326 5.43 8 5.965 8H9V6.45C9 5.646 9.698 5 10.5 5"/></svg>