<svg xmlns="http://www.w3.org/2000/svg" viewBox="0 0 64 64"><rect width="56" height="56" x="4" y="5" opacity=".2" rx="28" ry="28"/><rect width="56" height="56" x="4" y="4" fill="#37a0f2" rx="28" ry="28"/><path d="M48 33.027 37.002 36 22.666 47l6.308-11L20 35l-4 4 2-6-2-6 4 4 9.025-.999-6.358-11 14.33 11z" opacity=".2"/><path fill="#fff" d="M48 32.027 37.002 35 22.666 46l6.308-11L20 34l-4 4 2-6-2-6 4 4 9.025-.999-6.358-11 14.33 11z"/><path fill="#fff" d="M32 4C16.488 4 4 16.488 4 32c0 .114.011.224.018.336C4.369 17.134 16.71 5 32 5s27.63 12.134 27.982 27.336c.007-.112.018-.222.018-.336C60 16.488 47.512 4 32 4" opacity=".2"/></svg>