<svg xmlns="http://www.w3.org/2000/svg" xmlns:xlink="http://www.w3.org/1999/xlink" viewBox="0 0 96 96"><defs><linearGradient id="b" x1="33.595%" x2="100%" y1="-.185%" y2="86.407%"><stop offset="0%" stop-color="#474747"/><stop offset="100%" stop-color="#9b9b9a"/></linearGradient><linearGradient id="e" x1="0%" x2="105.755%" y1="67.722%" y2="67.722%"><stop offset="0%" stop-color="#3c3c3c"/><stop offset="100%"/></linearGradient><linearGradient id="g" x1="20.311%" x2="85.161%" y1="35.987%" y2="75.843%"><stop offset="0%" stop-color="#54cc00" stop-opacity=".273"/><stop offset="100%" stop-color="#54cc00" stop-opacity=".079"/></linearGradient><linearGradient id="j" x1="35.783%" x2="142.622%" y1="6.983%" y2="6.983%"><stop offset="0%" stop-color="#65f600" stop-opacity=".273"/><stop offset="100%" stop-color="#54cc00" stop-opacity=".079"/></linearGradient><linearGradient id="k" x1="50%" x2="50.545%" y1="0%" y2="100%"><stop offset="0%" stop-color="#276306"/><stop offset="100%" stop-color="#53af2b"/></linearGradient><linearGradient id="n" x1="50%" x2="50%" y1="0%" y2="100%"><stop offset="0%" stop-color="#49af05"/><stop offset="100%" stop-color="#67e02f"/></linearGradient><filter id="a" width="127.6%" height="128.9%" x="-13.8%" y="-14.5%" filterUnits="objectBoundingBox"><feOffset dy="2" in="SourceAlpha" result="shadowOffsetOuter1"/><feGaussianBlur in="shadowOffsetOuter1" result="shadowBlurOuter1" stdDeviation="2"/><feColorMatrix in="shadowBlurOuter1" result="shadowMatrixOuter1" values="0 0 0 0 0 0 0 0 0 0 0 0 0 0 0 0 0 0 0.2 0"/><feMerge><feMergeNode in="shadowMatrixOuter1"/><feMergeNode in="SourceGraphic"/></feMerge></filter><filter id="f" width="101.3%" height="101.4%" x="-.7%" y="-.7%" filterUnits="objectBoundingBox"><feOffset dx="-1" dy="1" in="SourceAlpha" result="shadowOffsetInner1"/><feComposite in="shadowOffsetInner1" in2="SourceAlpha" k2="-1" k3="1" operator="arithmetic" result="shadowInnerInner1"/><feColorMatrix in="shadowInnerInner1" values="0 0 0 0 0.827558877 0 0 0 0 0.827558877 0 0 0 0 0.827558877 0 0 0 0.5 0"/></filter><filter id="i" width="119.2%" height="120.3%" x="-9.6%" y="-10.2%" filterUnits="objectBoundingBox"><feOffset in="SourceAlpha" result="shadowOffsetOuter1"/><feGaussianBlur in="shadowOffsetOuter1" result="shadowBlurOuter1" stdDeviation="2"/><feColorMatrix in="shadowBlurOuter1" values="0 0 0 0 0.329411765 0 0 0 0 0.8 0 0 0 0 0 0 0 0 1 0"/></filter><filter id="m" width="300%" height="136.4%" x="-100%" y="-18.2%" filterUnits="objectBoundingBox"><feOffset in="SourceAlpha" result="shadowOffsetOuter1"/><feGaussianBlur in="shadowOffsetOuter1" result="shadowBlurOuter1" stdDeviation="2"/><feColorMatrix in="shadowBlurOuter1" values="0 0 0 0 0.305882353 0 0 0 0 0.717647059 0 0 0 0 0.0431372549 0 0 0 1 0"/></filter><path id="c" d="M17.001 9c33.69 0 61 27.31 61 61 0 4.108-.406 8.12-1.18 12H1.001V11.12A61 61 0 0 1 17 9"/><path id="h" d="M78.501 65v3h-9.5v-3zm-14-28a1.5 1.5 0 1 1 0 3 1.5 1.5 0 0 1 0-3m-20-18a1.5 1.5 0 1 1 0 3 1.5 1.5 0 0 1 0-3m-25.5-10v8h-3V9z"/><path id="l" d="M23.501 49.5h6v33h-6z"/></defs><g fill="none" fill-rule="evenodd" filter="url(#a)" transform="translate(4.999 6)"><path fill="url(#b)" d="M17.001 1c38.108 0 69 30.892 69 69 0 4.093-.356 8.103-1.04 12H1.002V2.865A69.2 69.2 0 0 1 17 1"/><path fill="#000" fill-rule="nonzero" d="M17.001.5c38.384 0 69.5 31.116 69.5 69.5a70 70 0 0 1-.88 11.095l-.167.992-.985-.173A69 69 0 0 0 85.501 70c0-37.832-30.668-68.5-68.5-68.5A68.7 68.7 0 0 0 2.03 3.141l-.913.21-.231-.973A69.7 69.7 0 0 1 17 .5"/><use xlink:href="#c" fill="url(#e)"/><use xlink:href="#c" fill="#000" filter="url(#f)"/><path fill="url(#g)" d="M23.654 20q.406.022.805.047c16.634 2.462 30.626 13.035 37.824 27.57L12.001 70.474z"/><use xlink:href="#h" fill="#000" filter="url(#i)"/><use xlink:href="#h" fill="#54cc00"/><path fill="url(#j)" d="m25.418 52.583 6.667.981-5.667 31.52h-6z" transform="rotate(90 26.251 68.833)"/><path fill="url(#k)" d="M17.778 19.775h3.898v51.8h-3.898z" transform="rotate(13 19.727 45.675)"/><g transform="rotate(90 26.501 66)"><use xlink:href="#l" fill="#000" filter="url(#m)"/><use xlink:href="#l" fill="url(#n)"/></g></g></svg>