<svg xmlns="http://www.w3.org/2000/svg" viewBox="0 0 16 16"><path fill="currentColor" d="M8 0a8 8 0 0 0-4.877 1.684l.805.627A7 7 0 0 1 8 1a7 7 0 0 1 7 7 7 7 0 0 1-3.125 5.81l.559.837A8 8 0 0 0 16 8a8 8 0 0 0-8-8M1.684 3.123A8 8 0 0 0 0 8a8 8 0 0 0 3.566 6.648l.559-.837A7 7 0 0 1 1 8a7 7 0 0 1 1.309-4.072z" class="ColorScheme-Text"/><path fill="currentColor" d="M2.343 2.343 7.155 8.53a1 1 0 0 0 .138.177 1 1 0 0 0 1.414 0 1 1 0 0 0 0-1.414 1 1 0 0 0-.192-.15L8.51 7.14z" class="ColorScheme-Text"/></svg>