<svg xmlns="http://www.w3.org/2000/svg" viewBox="0 0 64 64"><rect width="58" height="46" x="3" y="10" opacity=".2" rx="4" ry="4"/><rect width="58" height="46" x="3" y="9" fill="#2769bc" rx="4" ry="4"/><path d="M41 27c0 1.592-15.622 10.747-16.981 9.951s-1.359-19.107 0-19.902S41 25.409 41 27" opacity=".2"/><path fill="#fff" d="M41 26c0 1.592-15.622 10.748-16.981 9.951s-1.359-19.106 0-19.902S41 24.41 41 26.001z"/><rect width="34" height="3" x="15" y="45" fill="#fff" opacity=".5" rx="1.5" ry="1.5"/><rect width="9" height="9" x="19" y="43" opacity=".2" rx="4.5" ry="4.5"/><rect width="9" height="9" x="19" y="42" fill="#fff" rx="4.5" ry="4.5"/><path fill="#fff" d="M7 9c-2.216 0-4 1.784-4 4v1c0-2.216 1.784-4 4-4h50c2.216 0 4 1.784 4 4v-1c0-2.216-1.784-4-4-4z" opacity=".1"/></svg>