<svg xmlns="http://www.w3.org/2000/svg" viewBox="0 0 64 64"><path d="M7.111 8C5.388 8 4 9.776 4 11.5v36C4 49.223 5.388 51 7.111 51h26.29l7 7 7-7h9.488C58.613 51 60 49.223 60 47.5v-36C60 9.776 58.613 8 56.89 8Z" opacity=".2"/><path fill="#5dbf21" d="M7.111 7C5.388 7 4 8.776 4 10.5v36C4 48.223 5.388 50 7.111 50h26.29l7 7 7-7h9.488C58.613 50 60 48.223 60 46.5v-36C60 8.776 58.613 7 56.89 7Z"/><path d="M23 22a3 3 0 0 0-3 3 3 3 0 0 0 3 3 3 3 0 0 0 3-3 3 3 0 0 0-3-3m18 0a3 3 0 0 0-3 3 3 3 0 0 0 3 3 3 3 0 0 0 3-3 3 3 0 0 0-3-3m-24.46 8a1.5 1.5 0 0 0-1.073.412 1.5 1.5 0 0 0-.055 2.121S21.588 39 32 39s16.588-6.467 16.588-6.467a1.5 1.5 0 0 0-.055-2.12 1.5 1.5 0 0 0-2.12.054S41.187 36 32 36s-14.412-5.533-14.412-5.533A1.5 1.5 0 0 0 16.539 30" opacity=".1"/><circle cx="23" cy="24" r="3" fill="#3f3f3f"/><circle cx="41" cy="24" r="3" fill="#3f3f3f"/><path fill="none" stroke="#3f3f3f" stroke-linecap="round" stroke-linejoin="round" stroke-width="3" d="M16.5 30.5s5.7 6 15.5 6 15.5-6 15.5-6"/><path fill="#fff" d="M7.111 7C5.388 7 4 8.776 4 10.5v1C4 9.776 5.388 8 7.111 8H56.89C58.612 8 60 9.776 60 11.5v-1C60 8.776 58.612 7 56.889 7z" opacity=".2"/></svg>