<svg xmlns="http://www.w3.org/2000/svg" xmlns:xlink="http://www.w3.org/1999/xlink" viewBox="0 0 96 96"><defs><linearGradient id="b" x1="50%" x2="50%" y1="0%" y2="100%"><stop offset="0%" stop-color="#e30705"/><stop offset="100%" stop-color="#c30302"/></linearGradient><filter id="a" width="131.6%" height="131.6%" x="-15.8%" y="-15.8%" filterUnits="objectBoundingBox"><feOffset dy="2" in="SourceAlpha" result="shadowOffsetOuter1"/><feGaussianBlur in="shadowOffsetOuter1" result="shadowBlurOuter1" stdDeviation="2"/><feColorMatrix in="shadowBlurOuter1" result="shadowMatrixOuter1" values="0 0 0 0 0 0 0 0 0 0 0 0 0 0 0 0 0 0 0.2 0"/><feMerge><feMergeNode in="shadowMatrixOuter1"/><feMergeNode in="SourceGraphic"/></feMerge></filter></defs><g fill="none" fill-rule="evenodd" filter="url(#a)" transform="translate(10 10)"><rect width="76" height="76" fill="#fff" rx="4"/><rect width="68" height="68" x="4" y="4" fill="#f6f6f6" fill-rule="nonzero" rx="2"/><path fill="url(#b)" fill-rule="nonzero" d="M53.084 10.4v-8L37.14 18.283 53.084 34.4v-8l-8.174-8.117zM13.944 16a3 3 0 1 0 0-6 3 3 0 0 0 0 6m25.385-3.402-4.024 3.916-6.81-6.627c-4.998-4.863-13.109-4.863-18.108.003-5.002 4.867-5.002 12.755 0 17.622 5.002 4.868 13.106 4.87 18.104.006l7.476-7.275 4.024 3.916-7.476 7.275c-7.22 7.026-18.928 7.025-26.153-.006-7.224-7.029-7.225-18.424 0-25.455C13.586-1.056 25.3-1.053 32.52 5.971z" transform="translate(11 20)"/></g></svg>