<svg xmlns="http://www.w3.org/2000/svg" viewBox="0 0 64 64"><rect width="56" height="56" x="4" y="5" opacity=".2" rx="2.8" ry="2.8"/><rect width="56" height="56" x="4" y="4" fill="#704b91" rx="2.8" ry="2.8"/><path fill="#4c8a4c" d="M14 32h6v6h-6z"/><path fill="#e45e5e" d="M20 32h6v6h-6z"/><path fill="#7079ff" d="M26 32h6v6h-6z"/><path fill="#cdcdcd" d="M32 32h6v6h-6z"/><path fill="#ffbd1a" d="M38 32h6v6h-6z"/><path fill="#f3f3f3" d="M44 32h6v6h-6z"/><path fill="#7079ff" d="M14 26h6v6h-6z"/><path fill="#f3f3f3" d="M20 26h6v6h-6z"/><path fill="#4c8a4c" d="M26 26h6v6h-6z"/><path fill="#f3f3f3" d="M32 26h6v6h-6z"/><path fill="#cdcdcd" d="M38 26h6v6h-6z"/><path fill="#7079ff" d="M44 26h6v6h-6z"/><path fill="#f3f3f3" d="M14 20h6v6h-6z"/><path fill="#ffee35" d="M20 20h6v6h-6z"/><path fill="#ffbd1a" d="M26 20h6v6h-6z"/><path fill="#db5fe8" d="M32 20h6v6h-6z"/><path fill="#ffee35" d="M38 20h6v6h-6z"/><path fill="#ffbd1a" d="M20 38h6v6h-6z"/><path fill="#db5fe8" d="M26 38h6v6h-6z"/><path fill="#e45e5e" d="M32 38h6v6h-6z"/><path fill="#ffee35" d="M38 38h6v6h-6z"/><path fill="#e45e5e" d="M44 38h6v6h-6z"/><path fill="#7079ff" d="M26 44h6v6h-6z"/><path fill="#f3f3f3" d="M32 44h6v6h-6z"/><path fill="#4c8a4c" d="M38 44h6v6h-6z"/><path fill="#db5fe8" d="M44 44h6v6h-6z"/><path fill="#ffbd1a" d="M14 14h6v6h-6z"/><path fill="#e45e5e" d="M20 14h6v6h-6z"/><path fill="#ffee35" d="M26 14h6v6h-6z"/><path fill="#7079ff" d="M32 14h6v6h-6z"/><path d="M14 20h24v1H14zm0 6h30v1H14zm0 6h36v1H14zm0 6h36v1H14zm6 6h30v1H20zm6 6h24v1H26z" opacity=".2"/><path fill="#fff" d="M6.8 4C5.25 4 4 5.25 4 6.8v1C4 6.25 5.25 5 6.8 5h50.4C58.75 5 60 6.25 60 7.8v-1C60 5.25 58.75 4 57.2 4z" opacity=".1"/></svg>