<svg xmlns="http://www.w3.org/2000/svg" viewBox="0 0 64 64"><rect width="56" height="56" x="4" y="5" opacity=".2" rx="16.8" ry="16.8"/><rect width="56" height="56" x="4" y="4" fill="#e78451" rx="16.8" ry="16.8"/><circle cx="32" cy="33" r="20" opacity=".2"/><circle cx="32" cy="32" r="20" fill="#fff"/><path d="M15 38.156 24.396 19l7.63 8.836L39.656 19 49 38.116l-6.034 4.88-5.059-14.06-5.881 7.171-5.882-7.171L21.034 43Z" opacity=".1"/><path fill="#f80000" d="M15 37.156 24.396 18l7.63 8.836L39.656 18 49 37.116l-6.034 4.88-5.059-14.06-5.881 7.171-5.882-7.171L21.034 42Z"/><path fill="#fff" d="M20.8 4C11.495 4 4 11.494 4 20.8v1C4 12.495 11.494 5 20.8 5h22.4C52.505 5 60 12.494 60 21.8v-1C60 11.495 52.506 4 43.2 4z" opacity=".2"/></svg>