<svg xmlns="http://www.w3.org/2000/svg" viewBox="0 0 16 16"><path fill="currentColor" d="M2 2v3h3V2zm9 0v3h3V2zM3 3h1v1H3zm3 0v1h1V3zm3 0v1h1V3zm3 0h1v1h-1zM3 6v1h1V6zm9 0v1h1V6zM3 9v1h1V9zm9 0v1h1V9zM2 11v3h3v-3zm9 0v3h3v-3zm-8 1h1v1H3zm9 0h1v1h-1z" color="#5d656b"/><path fill="currentColor" d="M8.004 7a2 2 0 0 0-2 2A2 2 0 0 0 8 11a2 2 0 0 0-2 2 2 2 0 0 0 2 2 2 2 0 0 0 2-2 2 2 0 0 0-1.996-2 2 2 0 0 0 2-2 2 2 0 0 0-2-2m0 1a1 1 0 0 1 1 1 1 1 0 0 1-1 1 1 1 0 0 1-1-1 1 1 0 0 1 1-1M8 12a1 1 0 0 1 1 1 1 1 0 0 1-1 1 1 1 0 0 1-1-1 1 1 0 0 1 1-1" color="#3daee9"/></svg>