<svg xmlns="http://www.w3.org/2000/svg" viewBox="0 0 64 64"><path d="M4.1 32c-.1.3-.1.7-.1 1 0 15.5 12.5 28 28 28s28-12.5 28-28c0-.3 0-.7-.1-1-.5 15-12.8 27-28 27C16.8 59 4.6 47 4.1 32" opacity=".2"/><path fill="#1ed760" d="M60 32C60 16.5 47.5 4 32 4S4 16.5 4 32s12.5 28 28 28 28-12.5 28-28"/><path fill="#fff" d="M32 4C16.5 4 4 16.5 4 32v.3C4.4 17.1 16.7 5 32 5s27.6 12.1 28 27.3V32C60 16.5 47.5 4 32 4" opacity=".2"/><path fill="none" stroke="#fff" stroke-linecap="round" stroke-width="5" d="M15.5 24.5c7.5-3 23.5-3 34 3" opacity=".2"/><path fill="none" stroke="#3f3f3f" stroke-linecap="round" stroke-width="5" d="M15.5 23.5c7.5-3 23.5-3 34 3"/><path fill="none" stroke="#fff" stroke-linecap="round" stroke-width="4" d="M17 33c7-2 23-1 29 3" opacity=".2"/><path fill="none" stroke="#3f3f3f" stroke-linecap="round" stroke-width="4" d="M17 32c7-2 23-1 29 3"/><path fill="none" stroke="#fff" stroke-linecap="round" stroke-width="4" d="M18 42c6-1.5 18-1.5 25 2" opacity=".2"/><path fill="none" stroke="#3f3f3f" stroke-linecap="round" stroke-width="4" d="M18 41c6-1.5 18-1.5 25 2"/></svg>