<svg xmlns="http://www.w3.org/2000/svg" viewBox="0 0 64 64"><path d="M16.668 5A2.67 2.67 0 0 0 14 7.668v50.664A2.67 2.67 0 0 0 16.668 61h42.664A2.667 2.667 0 0 0 62 58.332V47h-2.46L62 19.398V7.668A2.67 2.67 0 0 0 59.332 5Z" opacity=".2"/><path fill="#ca64ea" d="M16.667 4h42.666A2.667 2.667 0 0 1 62 6.667v11.73l-3.14 35.22c0 1.473-1.34 2.034-2.666 2.667L48.404 60H16.668A2.667 2.667 0 0 1 14 57.333V6.667A2.667 2.667 0 0 1 16.667 4"/><path fill="#ae4bd5" d="M48 18v14l7 6.39L62 32V18Z"/><path fill="#9332bf" d="M48 32v14l7 6.79L62 46V32Z"/><path fill="#7719aa" d="M48 46h14v11.333A2.667 2.667 0 0 1 59.333 60H48Z"/><path d="M4.667 17h26.666A2.667 2.667 0 0 1 34 19.667v26.666A2.667 2.667 0 0 1 31.333 49H4.667A2.667 2.667 0 0 1 2 46.333V19.667A2.667 2.667 0 0 1 4.667 17" opacity=".1"/><path fill="#7719aa" d="M4.667 16h26.666A2.667 2.667 0 0 1 34 18.667v26.666A2.667 2.667 0 0 1 31.333 48H4.667A2.667 2.667 0 0 1 2 45.333V18.667A2.667 2.667 0 0 1 4.667 16"/><path fill="#fff" d="M9 22h4.294l8.929 13.463q.643.871.965 1.402h.061c-.116-.88-.273-1.767-.249-2.654V22h4v20h-4.287l-8.831-13.259q-.496-.657-.873-1.374h-.077c.1.968.086 1.94.068 2.912V42H9Z"/><path fill="#fff" d="M16.668 4A2.67 2.67 0 0 0 14 6.668v1A2.67 2.67 0 0 1 16.668 5h42.664A2.67 2.67 0 0 1 62 7.668v-1A2.67 2.67 0 0 0 59.332 4z" opacity=".2"/><path d="M48 18h14v1H48zm0 14h14v1H48zm0 14h14v1H48z" opacity=".1"/></svg>