<svg xmlns="http://www.w3.org/2000/svg" viewBox="0 0 64 64"><rect width="56" height="56" x="4" y="5" opacity=".2" rx="28" ry="28"/><rect width="56" height="56" x="4" y="4" fill="#86316b" rx="28" ry="28"/><path fill="none" stroke="#fff" stroke-width="1.4" d="m24 23 17-7 5 12-5 16-13 3-11-8Zm10 14 7-21m-7 21L24 23m10 14-17 2m17-2-6 10m6-10 12-9" opacity=".6"/><g opacity=".2" transform="translate(0 1)"><circle cx="41" cy="16" r="3"/><circle cx="46" cy="28" r="3"/><circle cx="41" cy="44" r="3"/><circle cx="28" cy="47" r="3"/><circle cx="17" cy="39" r="3"/><circle cx="24" cy="23" r="3"/><circle cx="34" cy="37" r="3"/></g><circle cx="41" cy="16" r="3" fill="#fff"/><circle cx="46" cy="28" r="3" fill="#fff"/><circle cx="41" cy="44" r="3" fill="#fff"/><circle cx="28" cy="47" r="3" fill="#fff"/><circle cx="17" cy="39" r="3" fill="#fff"/><circle cx="24" cy="23" r="3" fill="#fff"/><circle cx="34" cy="37" r="3" fill="#fff"/><path fill="#fff" d="M32 4C16.488 4 4 16.488 4 32c0 .168.01.333.014.5C4.28 17.221 16.656 5 32 5s27.72 12.221 27.986 27.5c.003-.167.014-.332.014-.5C60 16.488 47.512 4 32 4" opacity=".1"/></svg>