<svg xmlns="http://www.w3.org/2000/svg" xmlns:xlink="http://www.w3.org/1999/xlink" viewBox="0 0 96 96"><defs><filter id="a" width="141%" height="138.6%" x="-20.5%" y="-17.1%" filterUnits="objectBoundingBox"><feOffset dy="2" in="SourceAlpha" result="shadowOffsetOuter1"/><feGaussianBlur in="shadowOffsetOuter1" result="shadowBlurOuter1" stdDeviation="2"/><feComposite in="shadowBlurOuter1" in2="SourceAlpha" operator="out" result="shadowBlurOuter1"/><feColorMatrix in="shadowBlurOuter1" result="shadowMatrixOuter1" values="0 0 0 0 0 0 0 0 0 0 0 0 0 0 0 0 0 0 0.2 0"/><feMerge><feMergeNode in="shadowMatrixOuter1"/><feMergeNode in="SourceGraphic"/></feMerge></filter><filter id="e" width="102.8%" height="103.8%" x="-1.4%" y="-1.9%" filterUnits="objectBoundingBox"><feOffset dy="2" in="SourceAlpha" result="shadowOffsetInner1"/><feComposite in="shadowOffsetInner1" in2="SourceAlpha" k2="-1" k3="1" operator="arithmetic" result="shadowInnerInner1"/><feColorMatrix in="shadowInnerInner1" values="0 0 0 0 1 0 0 0 0 1 0 0 0 0 1 0 0 0 0.14 0"/></filter><filter id="g" width="116.7%" height="125%" x="-8.3%" y="-14.4%" filterUnits="objectBoundingBox"><feOffset dy="-1" in="SourceAlpha" result="shadowOffsetOuter1"/><feGaussianBlur in="shadowOffsetOuter1" result="shadowBlurOuter1" stdDeviation="2"/><feColorMatrix in="shadowBlurOuter1" values="0 0 0 0 0 0 0 0 0 0 0 0 0 0 0 0 0 0 0.18 0"/></filter><filter id="i" width="112.8%" height="119.2%" x="-6.4%" y="-11.5%" filterUnits="objectBoundingBox"><feOffset dy="2" in="SourceAlpha" result="shadowOffsetInner1"/><feComposite in="shadowOffsetInner1" in2="SourceAlpha" k2="-1" k3="1" operator="arithmetic" result="shadowInnerInner1"/><feColorMatrix in="shadowInnerInner1" result="shadowMatrixInner1" values="0 0 0 0 1 0 0 0 0 1 0 0 0 0 1 0 0 0 0.14 0"/><feOffset dy="-2" in="SourceAlpha" result="shadowOffsetInner2"/><feComposite in="shadowOffsetInner2" in2="SourceAlpha" k2="-1" k3="1" operator="arithmetic" result="shadowInnerInner2"/><feColorMatrix in="shadowInnerInner2" result="shadowMatrixInner2" values="0 0 0 0 0 0 0 0 0 0 0 0 0 0 0 0 0 0 0.05 0"/><feMerge><feMergeNode in="shadowMatrixInner1"/><feMergeNode in="shadowMatrixInner2"/></feMerge></filter><filter id="j" width="175%" height="177.4%" x="-37.5%" y="-38.7%" filterUnits="objectBoundingBox"><feOffset dy="2" in="SourceAlpha" result="shadowOffsetOuter1"/><feGaussianBlur in="shadowOffsetOuter1" result="shadowBlurOuter1" stdDeviation="2"/><feColorMatrix in="shadowBlurOuter1" result="shadowMatrixOuter1" values="0 0 0 0 0.569548234 0 0 0 0 0.246625836 0 0 0 0 0 0 0 0 0.20503715 0"/><feMerge><feMergeNode in="shadowMatrixOuter1"/><feMergeNode in="SourceGraphic"/></feMerge></filter><linearGradient id="d" x1="50%" x2="50%" y1="0%" y2="50%"><stop offset="0%" stop-color="#f57900"/><stop offset="100%" stop-color="#ff881a"/></linearGradient><linearGradient id="h" x1="50%" x2="50%" y1="0%" y2="100%"><stop offset="0%" stop-color="#f6830c"/><stop offset="100%" stop-color="#fcbe3e"/></linearGradient><path id="b" d="M3 11.945V48a4 4 0 0 0 4 4h64a4 4 0 0 0 4-4V4a4 4 0 0 0-4-4H45.977a4 4 0 0 0-3.169 1.56L37.89 7.944H7a4 4 0 0 0-4 4"/><path id="f" d="M0 29.945V66a4 4 0 0 0 4 4h70a4 4 0 0 0 4-4V22a4 4 0 0 0-4-4H31.587a4 4 0 0 0-3.158 1.545l-4.975 6.4H4a4 4 0 0 0-4 4"/></defs><g fill="none" fill-rule="evenodd" filter="url(#a)" transform="translate(9 13)"><g transform="matrix(-1 0 0 1 78 0)"><use xlink:href="#b" fill="url(#d)"/><use xlink:href="#b" fill="#000" filter="url(#e)"/></g><use xlink:href="#f" fill="#000" filter="url(#g)"/><use xlink:href="#f" fill="url(#h)"/><use xlink:href="#f" fill="#000" filter="url(#i)"/><g fill="#fff" fill-rule="nonzero" filter="url(#j)" transform="translate(23 31)"><path d="m13.914 1.548-3.22 7.816-8.205.036a2.5 2.5 0 0 0-1.929.923l-.108.143a2.5 2.5 0 0 0 .471 3.374l6.206 5.045-1.57 8.518a2.5 2.5 0 0 0 .319 1.744l.093.144a2.5 2.5 0 0 0 3.339.706l6.895-4.158 6.257 4.039a2.5 2.5 0 0 0 1.789.362l.16-.034a2.5 2.5 0 0 0 1.87-2.86l-1.492-8.488 5.877-5.112a2.5 2.5 0 0 0 .86-1.886l-.006-.165a2.5 2.5 0 0 0-2.495-2.335h-7.317l-3.166-7.8a2.5 2.5 0 0 0-4.628-.012m2.307 2.274 2.835 6.978.073.163a2.5 2.5 0 0 0 2.243 1.397h6.317l-5.081 4.418-.136.128a2.5 2.5 0 0 0-.686 2.19l1.341 7.642-5.557-3.59-.163-.096a2.5 2.5 0 0 0-2.484.056l-6.212 3.747 1.423-7.72.026-.18a2.5 2.5 0 0 0-.908-2.212L3.9 12.395l7.14-.033a2.5 2.5 0 0 0 2.3-1.547z" opacity=".598"/><path d="M26.12 28.707h.02a2.5 2.5 0 0 1-1.728 1.5l-.161.033a2.5 2.5 0 0 1-1.789-.362l-6.257-4.04c-.821-.994-1.732-1.676-2.7-1.876l1.418-.854a2.5 2.5 0 0 1 2.484-.056l.163.097 5.557 3.589q1.324 2.034 2.993 1.97M7.149 30.153l.022.055a2.5 2.5 0 0 1-1.2-.917l-.093-.144a2.5 2.5 0 0 1-.318-1.744l1.57-8.518Q8.26 17.51 8.34 16l.912.742a2.5 2.5 0 0 1 .908 2.213l-.026.18-1.423 7.719q-2.055 1.988-1.562 3.298m23.013-20.52a2.5 2.5 0 0 1 1.358 2.062l.005.165a2.5 2.5 0 0 1-.86 1.886l-5.876 5.112.014.085-.16.082q-2.038 1.017-2.442 2.438l-.415-2.366a2.5 2.5 0 0 1 .686-2.191l.136-.128 5.081-4.418q2.137-.78 2.452-2.59Zm-15.905-1.04-.917 2.222a2.5 2.5 0 0 1-2.3 1.547l-7.14.033q-2.427-.695-3.722.43a2.5 2.5 0 0 1 .274-2.36l.108-.142A2.5 2.5 0 0 1 2.49 9.4l8.203-.036q2.28.38 3.564-.77m.21-7.87a2.5 2.5 0 0 1 4.075.837l3.166 7.8q.534 2.87 2.748 2.993l.188.006h-3.272a2.5 2.5 0 0 1-2.16-1.24l-.083-.156-.073-.163-2.835-6.978q-.18-2.553-1.805-3.046Z" opacity=".714"/></g></g></svg>