<svg xmlns="http://www.w3.org/2000/svg" xml:space="preserve" viewBox="0 0 64 64"><path d="M32 5c15.487 0 28 12.513 28 28S47.488 61 32 61 4 48.488 4 33 16.513 5 32 5" opacity=".2"/><path fill="#e4e4e4" d="M32 4c15.487 0 28 12.513 28 28S47.488 60 32 60 4 47.488 4 32 16.513 4 32 4"/><path fill-rule="evenodd" d="M20 17v13l12-12 12 12V17zm24 13L32 42 20 30v11l12 12 12-12z" opacity=".1"/><path fill="#3a78b4" fill-rule="evenodd" d="M20 17v12l12-12zm12 0 12 12V17zm12 12L32 41 20 29v11l12 12 12-12z"/><path fill="#fff" d="M32 4C16.513 4 4 16.513 4 32c0 .168.01.333.014.5C4.28 17.245 16.68 5 32 5s27.72 12.245 27.986 27.5c.003-.167.014-.332.014-.5C60 16.513 47.487 4 32 4" opacity=".2"/></svg>