<svg xmlns="http://www.w3.org/2000/svg" viewBox="0 0 64 64"><path d="M21 5a2 2 0 0 0-1.365.537l-15 14A2 2 0 0 0 4 21v38a2 2 0 0 0 2 2h37a2 2 0 0 0 1.365-.537l15-14A2 2 0 0 0 60 45V7a2 2 0 0 0-2-2z" opacity=".2"/><path fill="#1ed760" d="M21 4a2 2 0 0 0-1.365.537l-15 14A2 2 0 0 0 4 20v38a2 2 0 0 0 2 2h37a2 2 0 0 0 1.365-.537l15-14A2 2 0 0 0 60 44V6a2 2 0 0 0-2-2z"/><path fill="#fff" d="M21 4a2 2 0 0 0-1.365.537l-15 14A2 2 0 0 0 4 20v1a2 2 0 0 1 .635-1.463l15-14A2 2 0 0 1 21 5h37a2 2 0 0 1 2 2V6a2 2 0 0 0-2-2z" opacity=".2"/><path fill="none" stroke="#fff" stroke-linecap="round" stroke-width="5" d="M15.5 24.5c7.5-3 23.5-3 34 3" opacity=".2"/><path fill="none" stroke="#3f3f3f" stroke-linecap="round" stroke-width="5" d="M15.5 23.5c7.5-3 23.5-3 34 3"/><path fill="none" stroke="#fff" stroke-linecap="round" stroke-width="4" d="M17 33c7-2 23-1 29 3" opacity=".2"/><path fill="none" stroke="#3f3f3f" stroke-linecap="round" stroke-width="4" d="M17 32c7-2 23-1 29 3"/><path fill="none" stroke="#fff" stroke-linecap="round" stroke-width="4" d="M18 42c6-1.5 18-1.5 25 2" opacity=".2"/><path fill="none" stroke="#3f3f3f" stroke-linecap="round" stroke-width="4" d="M18 41c6-1.5 18-1.5 25 2"/></svg>