<svg xmlns="http://www.w3.org/2000/svg" xmlns:xlink="http://www.w3.org/1999/xlink" viewBox="0 0 96 96"><defs><linearGradient id="b" x1="50%" x2="50%" y1="0%" y2="100%"><stop offset="0%" stop-color="gray"/><stop offset="100%" stop-color="#252525"/></linearGradient><linearGradient id="c" x1="50%" x2="50%" y1="0%" y2="98.121%"><stop offset="0%" stop-color="#e66353"/><stop offset="100%" stop-color="#e44c40"/></linearGradient><linearGradient id="d" x1="50%" x2="50%" y1="0%" y2="100%"><stop offset="0%" stop-color="#efefef"/><stop offset="100%" stop-color="#d9d9d9"/></linearGradient><linearGradient id="e" x1="50%" x2="50%" y1="0%" y2="100%"><stop offset="0%" stop-color="#d9d9d9"/><stop offset="100%" stop-color="#efefef"/></linearGradient><linearGradient id="f" x1="50%" x2="50%" y1="0%" y2="100%"><stop offset="0%" stop-color="#f87d6e"/><stop offset="100%" stop-color="#d9473b"/></linearGradient><linearGradient id="g" x1="50%" x2="50%" y1="0%" y2="100%"><stop offset="0%" stop-color="#fff"/><stop offset="100%" stop-color="#fad5d5"/></linearGradient><filter id="a" width="127.3%" height="130.8%" x="-13.6%" y="-15.4%" filterUnits="objectBoundingBox"><feOffset dy="2" in="SourceAlpha" result="shadowOffsetOuter1"/><feGaussianBlur in="shadowOffsetOuter1" result="shadowBlurOuter1" stdDeviation="2"/><feColorMatrix in="shadowBlurOuter1" result="shadowMatrixOuter1" values="0 0 0 0 0 0 0 0 0 0 0 0 0 0 0 0 0 0 0.2 0"/><feMerge><feMergeNode in="shadowMatrixOuter1"/><feMergeNode in="SourceGraphic"/></feMerge></filter></defs><g fill="none" filter="url(#a)" transform="translate(4 9)"><rect width="72" height="34" y="16" fill="url(#b)" rx="2"/><path fill="#303030" d="M8 32h48v10H8z"/><path fill="url(#c)" d="M4 21h3v3H4z"/><path fill="url(#d)" d="M16 0h40a4 4 0 0 1 4 4v20H12V4a4 4 0 0 1 4-4"/><path fill="url(#e)" d="M12 36h48v30a4 4 0 0 1-4 4H16a4 4 0 0 1-4-4z"/><circle cx="64" cy="54" r="24" fill="url(#f)"/><path fill="url(#g)" d="M76.356 55A4.11 4.11 0 0 1 79 51.166a15.4 15.4 0 0 0-1.68-4.06 4.102 4.102 0 0 1-5.421-5.425A15.5 15.5 0 0 0 67.834 40 4.11 4.11 0 0 1 64 42.645 4.11 4.11 0 0 1 60.166 40c-1.446.369-2.81.938-4.06 1.68a4.11 4.11 0 0 1-.84 4.581 4.115 4.115 0 0 1-4.581.844A15.3 15.3 0 0 0 49 51.167 4.11 4.11 0 0 1 51.645 55 4.11 4.11 0 0 1 49 58.834c.369 1.446.938 2.81 1.68 4.06a4.102 4.102 0 0 1 5.421 5.425A15.5 15.5 0 0 0 60.166 70 4.11 4.11 0 0 1 64 67.356 4.11 4.11 0 0 1 67.834 70a15.4 15.4 0 0 0 4.06-1.68 4.11 4.11 0 0 1 .84-4.581 4.115 4.115 0 0 1 4.582-.844A15.2 15.2 0 0 0 79 58.834 4.11 4.11 0 0 1 76.356 55M64 59.118a4.119 4.119 0 0 1 0-8.236 4.119 4.119 0 0 1 0 8.236"/></g></svg>