<svg xmlns="http://www.w3.org/2000/svg" viewBox="0 0 64 64"><rect width="56" height="56" x="4" y="5" opacity=".2" rx="8.4" ry="8.4"/><rect width="56" height="56" x="4" y="4" fill="#e4e4e4" rx="8.4" ry="8.4"/><path d="M17.58 11c-1.23 0-2.442.3-3.531.873a7.67 7.67 0 0 0-3.069 2.969c-.138.256-.257.495-.375.748-.066.174-.14.345-.199.512q-.18.519-.273 1.062a7.2 7.2 0 0 0-.133 1.42v28.84a7.5 7.5 0 0 0 .75 3.285A7.58 7.58 0 0 0 17.58 55h15.992c.226 0 .428-.184.428-.41v-2.14c0-.226-.202-.451-.428-.451h-2.597l-5.961-11.738 13.6-18.035a1.6 1.6 0 0 0 .255-.532l12.133 1.91v3.016c.001.225.214.406.44.406h2.148a.41.41 0 0 0 .41-.406v-8.037a7.55 7.55 0 0 0-2.816-5.885A7.54 7.54 0 0 0 46.414 11zm0 2.99h5.553l.396 2.877-7.361-1.125-2.322-.36c.93-1.097 2.296-1.394 3.734-1.392m17.918 0 .645 4.805-10.077-1.535-.455-3.25zm2.463 0h8.045c2.937.007 4.984 2.052 4.992 4.99v2.137l-12.346-1.94Zm-23.977 3.9 9.206 1.41-5.138 6.832zm11.952 1.832 10.296 1.576L23.801 37.8l-4.54-9.211 6.675-8.852zM13 20.76l2.957 6.674-2.957.404ZM45.545 29c-4.81 0-9.545.7-9.545 5.834v.978c0 2.566.855 5.272 4.318 6.672l6.803 2.534C49.191 45.9 50 46.788 50 48.14v.56c0 2.007-1.396 2.3-4.992 2.3h-8.32c-.395-.06-.732.22-.674.629l-.002 2.252c0 .372.136.653.675.697.765.094 4.316.422 8.229.422C50.991 55 54 53.98 54 48.756v-.522c0-2.565-.358-4.946-4.496-6.578l-5.983-2.474C41.32 38.342 40 37.217 40 35.916v-.605C40 33.63 41.948 33 44.018 33h8.35c.393.058.688-.207.632-.615V30.18c.032-.39-.212-.73-.588-.748A54 54 0 0 0 45.545 29m-28.445.756 4.603 9.312L13 40.207v-9.89zm5.74 11.646L28.236 52H17.99c-2.938-.007-4.982-2.046-4.99-4.986v-4.332Z" class="a" opacity=".1"/><path fill="#a42020" d="M51.184 11.7a7.54 7.54 0 0 0-4.77-1.7H17.581a7.6 7.6 0 0 0-3.532.873 7.67 7.67 0 0 0-3.07 2.968 14 14 0 0 0-.373.75c-.066.174-.14.345-.2.511q-.18.52-.273 1.062a7.2 7.2 0 0 0-.133 1.42v28.84A7.58 7.58 0 0 0 17.58 54h15.991c.226-.001.429-.184.429-.41v-2.14c0-.226-.203-.451-.429-.451h-2.597l-5.961-11.74 13.6-18.034q.18-.24.257-.53L51 22.606v3.015c.002.225.216.406.44.406h2.15a.41.41 0 0 0 .409-.406v-8.036a7.55 7.55 0 0 0-2.816-5.886M35.5 12.99l.644 4.804-10.076-1.535-.456-3.249zm-17.903 0h5.537l.396 2.878-7.36-1.126-2.322-.359c.93-1.097 2.296-1.395 3.734-1.393zm5.593 5.311-5.138 6.832-4.066-8.244zM13 19.76l2.957 6.673-2.957.404Zm0 9.557 4.1-.56 4.603 9.311L13 39.208ZM28.235 51H17.99c-2.938-.007-4.982-2.046-4.99-4.986v-4.332l9.839-1.28zm-4.434-14.2-4.54-9.213 6.675-8.851v-.015l10.297 1.576zm27.198-16.682-12.347-1.94-.69-5.188h8.043c2.937.007 4.985 2.053 4.994 4.991z" class="b"/><path fill="#303030" d="M52.412 28.432c.376.02.62.358.588.747v2.205c.056.408-.24.674-.633.616h-8.35C41.95 32 40 32.63 40 34.31v.606c0 1.301 1.32 2.425 3.521 3.266l5.982 2.475C53.641 42.288 54 44.669 54 47.235v.52C54 52.98 50.99 54 44.916 54c-3.913 0-7.464-.328-8.23-.422-.539-.044-.674-.325-.674-.697l.001-2.253c-.058-.409.28-.688.675-.628h8.319C48.604 50 50 49.707 50 47.7v-.56c0-1.352-.81-2.24-2.88-3.122l-6.801-2.534C36.855 40.084 36 37.378 36 34.812v-.978C36 28.7 40.735 28 45.545 28a54 54 0 0 1 6.867.432" class="a"/><path fill="#fff" d="M12.398 4A8.38 8.38 0 0 0 4 12.398v1A8.38 8.38 0 0 1 12.398 5h39.204A8.38 8.38 0 0 1 60 13.398v-1A8.38 8.38 0 0 0 51.602 4z" opacity=".2"/></svg>