<svg xmlns="http://www.w3.org/2000/svg" viewBox="0 0 64 64"><path d="M55.8 58.2 60 46.109V7.8C60 6.249 58.751 5 57.2 5H6.8A2.794 2.794 0 0 0 4 7.8v50.4A2.794 2.794 0 0 0 6.8 61H53c1.551 0 2.291-1.335 2.8-2.8" opacity=".2"/><path fill="#e4e4e4" d="M55.8 57.2 60 44.436V6.8C60 5.249 58.751 4 57.2 4H6.8A2.794 2.794 0 0 0 4 6.8v50.4A2.794 2.794 0 0 0 6.8 60H53c1.551 0 2.315-1.327 2.8-2.8"/><path fill="none" stroke="#000" stroke-linecap="round" stroke-linejoin="round" stroke-width="6" d="M29 13c-5.788 7.618-18 6-18 13.7 0 9.336 13.014 7.632 10.8 18.7-1.4 7-7.6 5.6-11.8 5.6" opacity=".2"/><path fill="none" stroke="#4f4f4f" stroke-linecap="round" stroke-linejoin="round" stroke-width="6" d="M29 12c-5.788 7.618-18 6-18 13.7 0 9.336 13.014 7.632 10.8 18.7-1.4 7-7.6 5.6-11.8 5.6"/><path fill="none" stroke="#000" stroke-linecap="round" stroke-linejoin="round" stroke-width="6" d="M33.1 52V21.8c1.53-5.017 3.803-8.8 8.7-8.8 5.6 0 8.2 3.2 8.2 8.8S39 31.5 39 35s11.2 14.2 14 17" opacity=".2"/><path fill="none" stroke="#85722f" stroke-linecap="round" stroke-linejoin="round" stroke-width="6" d="M33.1 51V20.8c1.53-5.017 3.803-8.8 8.7-8.8 5.6 0 8.2 3.2 8.2 8.8S39 30.5 39 34s11.2 14.2 14 17"/><path fill="#fff" d="M6.8 4C5.25 4 4 5.25 4 6.8v1C4 6.25 5.25 5 6.8 5h50.4C58.75 5 60 6.25 60 7.8v-1C60 5.25 58.75 4 57.2 4z" opacity=".2"/><path fill-rule="evenodd" d="M63.958 46.848A16 16 0 0 1 48 62a16 16 0 0 1-15.958-14.848A16 16 0 0 0 32 48a16 16 0 0 0 16 16 16 16 0 0 0 16-16 16 16 0 0 0-.043-1.152Z" opacity=".2"/><circle cx="48" cy="47" r="16" fill="#61b12f"/><path fill="#fff" d="m45.928 39-.176 2.107a6.3 6.3 0 0 0-1.838 1.063L42 41.268l-2 3.464 1.738 1.207A6.3 6.3 0 0 0 41.643 47a6.3 6.3 0 0 0 .091 1.064L40 49.27l2 3.462 1.91-.898a6.3 6.3 0 0 0 1.842 1.055L45.928 55h4l.177-2.105a6.3 6.3 0 0 0 1.836-1.065l1.916.902 2-3.462-1.74-1.21a6.3 6.3 0 0 0 .098-1.06 6.3 6.3 0 0 0-.092-1.064l1.734-1.204-2-3.462-1.912.898a6.3 6.3 0 0 0-1.84-1.055L49.93 39zM48 44a3 3 0 0 1 3 3 3 3 0 0 1-3 3 3 3 0 0 1-3-3 3 3 0 0 1 3-3"/></svg>