<svg xmlns="http://www.w3.org/2000/svg" xmlns:xlink="http://www.w3.org/1999/xlink" fill="none" viewBox="0 0 24 24"><defs><mask id="a"><path fill="#fff" d="M7.326 16.31a.07.07 0 0 0 .003-.072.07.07 0 0 0-.06-.036H3.258A1.257 1.257 0 0 1 2 14.94l.005-5.853c0-.248.065-.49.188-.705l2.142-3.744A1.27 1.27 0 0 1 5.434 4h13.003a.75.75 0 0 1 .752.774.76.76 0 0 1-.114.38l-1.399 2.242a.222.222 0 0 0 .188.339h3.168a1.11 1.11 0 0 1 1.108 1.11v5.616c0 .628-.159 1.245-.461 1.795-.381.692-1 1.673-1.39 2.381a1.74 1.74 0 0 1-1.518.899H6.568a.754.754 0 0 1-.755-.799.76.76 0 0 1 .13-.383z"/><path fill="#000" d="M9.206 15.72a.79.79 0 0 0-.641.333l-1.652 2.35a.228.228 0 0 0 .185.358H18.49c.42 0 .807-.225 1.016-.59.298-.52.81-1.274 1.116-1.808a.43.43 0 0 0-.37-.643zm-3.211-3.27a1.4 1.4 0 0 0-1.098.539l-1.348 1.729a.439.439 0 0 0 .344.708h3.938a.84.84 0 0 1 .76-.481h7.608c.311 0 .6-.163.763-.429l1.035-1.695a.271.271 0 0 0-.23-.412z"/><path fill="#000" d="M18.088 14.314a.413.413 0 0 0 .35.63h2.207a.64.64 0 0 0 .643-.644V9.14a.63.63 0 0 0-.63-.63h-10.3a1.13 1.13 0 0 0-.953.524c-.365.577-.79 1.496-1.15 2.063a.328.328 0 0 0 .275.503h9.78a.81.81 0 0 1 .813.835.8.8 0 0 1-.123.41z"/><path fill="#000" d="M16.29 7.735a.25.25 0 0 0 .21-.114l1.462-2.247a.286.286 0 0 0-.238-.44H6.581a1.2 1.2 0 0 0-1.108.742 1.2 1.2 0 0 0-.092.46v4.255a1.23 1.23 0 0 0 .795 1.147c.155.058.32.084.486.076h.157c.004-.034 1.27-2.225 1.969-3.299a1.28 1.28 0 0 1 1.07-.58z"/></mask></defs><g mask="url(#a)"><path fill="#ff7043" d="M7.326 16.31a.07.07 0 0 0 .003-.072.07.07 0 0 0-.06-.036H3.258A1.257 1.257 0 0 1 2 14.94l.005-5.853c0-.248.065-.49.188-.705l2.142-3.744A1.27 1.27 0 0 1 5.434 4h13.003a.75.75 0 0 1 .752.774.76.76 0 0 1-.114.38l-1.399 2.242a.222.222 0 0 0 .188.339h3.168a1.11 1.11 0 0 1 1.108 1.11v5.616c0 .628-.159 1.245-.461 1.795-.381.692-1 1.673-1.39 2.381a1.74 1.74 0 0 1-1.518.899H6.568a.754.754 0 0 1-.755-.799.76.76 0 0 1 .13-.383z" data-iconColor="SST"/><path fill="#fafafa" d="M9.206 15.72a.79.79 0 0 0-.641.333l-1.652 2.35a.228.228 0 0 0 .185.358H18.49c.42 0 .807-.225 1.016-.59.298-.52.81-1.274 1.116-1.808a.43.43 0 0 0-.37-.643zm-3.211-3.27a1.4 1.4 0 0 0-1.098.539l-1.348 1.729a.439.439 0 0 0 .344.708h3.938a.84.84 0 0 1 .76-.481h7.608c.311 0 .6-.163.763-.429l1.035-1.695a.271.271 0 0 0-.23-.412z"/><path fill="#fafafa" d="M18.088 14.314a.413.413 0 0 0 .35.63h2.207a.64.64 0 0 0 .643-.644V9.14a.63.63 0 0 0-.63-.63h-10.3a1.13 1.13 0 0 0-.953.524c-.365.577-.79 1.496-1.15 2.063a.328.328 0 0 0 .275.503h9.78a.81.81 0 0 1 .813.835.8.8 0 0 1-.123.41z"/><path fill="#fafafa" d="M16.29 7.735a.25.25 0 0 0 .21-.114l1.462-2.247a.286.286 0 0 0-.238-.44H6.581a1.2 1.2 0 0 0-1.108.742 1.2 1.2 0 0 0-.092.46v4.255a1.23 1.23 0 0 0 .795 1.147c.155.058.32.084.486.076h.157c.004-.034 1.27-2.225 1.969-3.299a1.28 1.28 0 0 1 1.07-.58z"/></g></svg>