<svg xmlns="http://www.w3.org/2000/svg" viewBox="0 0 64 64"><circle cx="32" cy="33" r="28" opacity=".2"/><circle cx="32" cy="32" r="28" fill="#86be43"/><path d="M14 16v23.715C14 45.365 18.635 50 24.285 50h15.43c5.554 0 10.13-4.481 10.285-10V27a8 8 0 0 0-13-6.242A8 8 0 0 0 31.879 19a8 8 0 0 0-7.88 8v13h6V27a2 2 0 1 1 4 0v13h6V27a2 2 0 1 1 4 0v12c0 3-2 5-5.284 5h-13.63C22 44 20 42 20 39V16Z" opacity=".2"/><path fill="#fff" d="M14 15v23.715C14 44.365 18.635 49 24.285 49h15.43c5.554 0 10.13-4.481 10.285-10V26a8 8 0 0 0-13-6.242A8 8 0 0 0 31.879 18a8 8 0 0 0-7.88 8v13h6V26a2 2 0 1 1 4 0v13h6V26a2 2 0 1 1 4 0v12c0 3-2 5-5.284 5h-13.63C22 43 20 41 20 38V15Z"/><path fill="#fff" d="M32 4A28 28 0 0 0 4 32a28 28 0 0 0 .006.49A28 28 0 0 1 32 5a28 28 0 0 1 27.994 27.488A28 28 0 0 0 60 32 28 28 0 0 0 32 4" opacity=".2"/></svg>