<svg xmlns="http://www.w3.org/2000/svg" viewBox="0 0 16 16"><path fill="#fff" d="M11.5.5a.5.5 0 0 1 .5.5v1a2 2 0 0 1 2 2v1h1a.5.5 0 1 1 0 1h-1v2h1a.5.5 0 1 1 0 1h-1v2h1a.5.5 0 1 1 0 1h-1a2 2 0 0 1-2 2v1a.5.5 0 1 1-1 0v-1H9v1a.5.5 0 1 1-1 0v-1H6v1a.5.5 0 1 1-1 0v-1H4a2 2 0 0 1-2-2H1a.5.5 0 1 1 0-1h1V9H1a.5.5 0 0 1 0-1h1V6H1a.5.5 0 0 1 0-1h1V4a2 2 0 0 1 2-2h1V1a.5.5 0 0 1 1 0v1h2V1a.5.5 0 0 1 1 0v1h2V1a.5.5 0 0 1 .5-.5M12 3H4a1 1 0 0 0-1 1v8a1 1 0 0 0 1 1h8a1 1 0 0 0 1-1V4a1 1 0 0 0-1-1M8 6l.519 4.145a1 1 0 1 1-1.037 0zm-.886-.97-.127 1.012q-.787.066-1.56.227l-.234.053.338 1.454.193-.042q.532-.106 1.072-.163l-.127 1.021q-.798.102-1.572.32L4.789 9 4 5.603l.308-.087a13.6 13.6 0 0 1 2.806-.486m1.773-.003c.95.06 1.888.218 2.805.474l.308.086-.778 3.4-.308-.086q-.78-.218-1.583-.315l-.127-1.02q.55.054 1.091.161l.18.039.333-1.455-.22-.05a13 13 0 0 0-1.576-.223z"/></svg>