<svg xmlns="http://www.w3.org/2000/svg" viewBox="0 0 16 16"><path d="M8 .5a7.5 7.5 0 0 1 3.744 14 .5.5 0 0 1-.5-.866q.261-.151.508-.325a6.5 6.5 0 1 0-7.253.169l.27.163a.5.5 0 0 1-.499.867l-.257-.155-.054-.034A7.5 7.5 0 0 1 8 .5m-.977 4.353c.697.087 1.199.757 1.383 1.7.043.221.066.445.077.746l.018.91c.022.694.086.92.165.93.209.027.24.017.341-.326l.128-.447a6 6 0 0 1 .13-.39c.478-1.246 2.136-1.092 2.47.094l.03.132c.108.578.429.932.81.941l.097-.004a.5.5 0 1 1 .123.992c-1.023.127-1.809-.652-2.013-1.746-.062-.333-.457-.38-.582-.052l-.036.098-.07.22-.093.325c-.25.87-.613 1.264-1.463 1.155-.817-.106-.999-.579-1.036-1.873l-.01-.544c-.005-.465-.022-.737-.067-.97-.11-.566-.343-.876-.525-.899-.372-.046-.63.355-.896 1.445l-.164.727c-.294 1.328-.488 1.798-1.137 1.912-.874.155-1.599-.218-2.086-1.044a.5.5 0 0 1 .86-.508c.285.48.607.646 1.052.567l.016-.026c.036-.077.127-.328.24-.784l.194-.853.102-.42c.382-1.464.873-2.141 1.942-2.008"/></svg>