<svg xmlns="http://www.w3.org/2000/svg" viewBox="0 0 64 64"><path d="M31.5 5A26.5 28 0 0 0 5 33a26.5 28 0 0 0 26.5 28A26.5 28 0 0 0 58 33 26.5 28 0 0 0 31.5 5m0 20.8a5.579 7.2 0 0 1 5.579 7.2 5.579 7.2 0 0 1-5.579 7.2 5.579 7.2 0 0 1-5.579-7.2 5.579 7.2 0 0 1 5.579-7.2" opacity=".2"/><path fill="#ae2d20" d="M31.5 4A26.5 28 0 0 0 5 32a26.5 28 0 0 0 26.5 28A26.5 28 0 0 0 58 32 26.5 28 0 0 0 31.5 4m0 20.8a5.579 7.2 0 0 1 5.579 7.2 5.579 7.2 0 0 1-5.579 7.2 5.579 7.2 0 0 1-5.579-7.2 5.579 7.2 0 0 1 5.579-7.2"/><path d="M31.5 9A22.5 24 0 0 0 9 33a22.5 24 0 0 0 22.5 24A22.5 24 0 0 0 54 33 22.5 24 0 0 0 31.5 9m0 12A9.5 12 0 0 1 41 33a9.5 12 0 0 1-9.5 12A9.5 12 0 0 1 22 33a9.5 12 0 0 1 9.5-12" opacity=".2"/><path fill="#fff" d="M31.5 8A22.5 24 0 0 0 9 32a22.5 24 0 0 0 22.5 24A22.5 24 0 0 0 54 32 22.5 24 0 0 0 31.5 8m0 12A9.5 12 0 0 1 41 32a9.5 12 0 0 1-9.5 12A9.5 12 0 0 1 22 32a9.5 12 0 0 1 9.5-12"/><path d="M40.228 59.302c-.558-.784.085-1.908.065-2.832.606-3.048 3.005-5.485 5.702-7.163 1.572-1.1 3.437-2.067 4.37-3.744a5.24 5.24 0 0 0-.4-3.434c-.94-1.041-2.632-.982-3.951-.786-1.092.039-2.176.983-3.097.962a19.3 19.3 0 0 1 .279-4.271c.55-1.512 2.464-1.87 3.98-1.985 2.983-.244 6.352.39 8.302 2.665 1.435 1.618 1.647 3.806 1.468 5.816-.067 2.723-2.281 4.859-4.571 6.301-1.525.977-3.274 1.736-4.501 3.054-.104.996 1.847.643 2.603.915 1.838.238 3.71.35 5.509.778.141 1.582-.087 3.185-.292 4.759.024 1.159-1.611.432-2.368.499" opacity=".2"/><path fill="#fd9a00" d="M40.228 58.302c-.558-.784.085-1.908.065-2.832.606-3.048 3.005-5.485 5.702-7.163 1.572-1.1 3.437-2.067 4.37-3.744a5.24 5.24 0 0 0-.4-3.434c-.94-1.041-2.632-.982-3.951-.786-1.092.039-2.176.983-3.097.962a19.3 19.3 0 0 1 .279-4.271c.55-1.512 2.464-1.87 3.98-1.985 2.983-.244 6.352.39 8.302 2.665 1.435 1.618 1.647 3.806 1.468 5.816-.067 2.723-2.281 4.859-4.571 6.301-1.525.977-3.274 1.736-4.501 3.054-.104.996 1.847.643 2.603.915 1.838.238 3.71.35 5.509.778.141 1.582-.087 3.185-.292 4.759.024 1.159-1.611.432-2.368.499"/><path fill="#fff" d="M31.5 4A26.5 28 0 0 0 5 32a26.5 28 0 0 0 .02.414A26.5 28 0 0 1 31.5 5a26.5 28 0 0 1 26.48 27.586A26.5 28 0 0 0 58 32 26.5 28 0 0 0 31.5 4m5.56 28.453A5.579 7.2 0 0 1 31.5 39.2a5.579 7.2 0 0 1-5.56-6.652 5.579 7.2 0 0 0-.018.453 5.579 7.2 0 0 0 5.578 7.2 5.579 7.2 0 0 0 5.578-7.2 5.579 7.2 0 0 0-.018-.547" opacity=".1"/></svg>