<svg xmlns="http://www.w3.org/2000/svg" viewBox="0 0 64 64"><rect width="57" height="57" x="4" y="4" opacity=".2" rx="2.85" ry="2.85"/><rect width="57" height="57" x="4" y="3" fill="#3f3f3f" rx="2.85" ry="2.85"/><path d="M21.5 8a4.5 4.5 0 0 0-4.5 4.5 4.5 4.5 0 0 0 3 4.236V49.63L32.5 58 45 49.629V16.736a4.5 4.5 0 0 0 3-4.236A4.5 4.5 0 0 0 43.5 8a4.5 4.5 0 0 0-4.5 4.5 4.5 4.5 0 0 0 3 4.236V21h-8v-4.264a4.5 4.5 0 0 0 3-4.236A4.5 4.5 0 0 0 32.5 8a4.5 4.5 0 0 0-4.5 4.5 4.5 4.5 0 0 0 3 4.236V21h-8v-4.264a4.5 4.5 0 0 0 3-4.236A4.5 4.5 0 0 0 21.5 8" opacity=".2"/><circle cx="32.5" cy="11.5" r="4.5" fill="#fae71d"/><circle cx="21.5" cy="11.5" r="4.5" fill="#fae71d"/><circle cx="43.5" cy="11.5" r="4.5" fill="#fae71d"/><path fill="#fae71d" d="M20 15h3v12.907h-3zm11 0h3v12.907h-3zm11 0h3v12.907h-3z"/><path fill="#fff" d="M20 27.907h25v20.722L32.5 57 20 48.63z"/><path d="M26 36h3v7h-3zm10 0h3v7h-3z" opacity=".675"/><path fill="#fae71d" d="M20 20h25v9H20z"/><path d="M32.5 57 45 48.629V15.736a4.5 4.5 0 0 0 3-4.236 4.5 4.5 0 0 0-9 0 4.5 4.5 0 0 0 3 4.236V20h-8v-4.264a4.5 4.5 0 0 0 3-4.236A4.5 4.5 0 0 0 32.5 7Z" opacity=".2"/><path fill="#fff" d="M6.85 3A2.843 2.843 0 0 0 4 5.85v1C4 5.27 5.27 4 6.85 4h51.3C59.73 4 61 5.27 61 6.85v-1C61 4.27 59.73 3 58.15 3z" opacity=".1"/></svg>