<svg xmlns="http://www.w3.org/2000/svg" viewBox="0 0 64 64"><rect width="57" height="56" x="4" y="5" opacity=".2" rx="3" ry="3"/><rect width="57" height="56" x="4" y="4" fill="#5e5e5e" rx="3" ry="3"/><path d="M11 19v28h4v4h-4v4H7v6h51v-5h-4v-5h-4v-4h4V19z" opacity=".2"/><path fill="#3f3f3f" d="M11 18v28h4v4h-4v4H7v6h51v-5h-4v-5h-4v-4h4V18z"/><path d="M15 23v24h35V23zm5 6h8v4h-8zm17 0h8v4h-8zM15 51v5h3v5h27v-6h5v-4z" opacity=".2"/><path fill="#fff" d="M15 22v24h35V22zm5 6h8v4h-8zm17 0h8v4h-8zM15 50v5h3v5h27v-6h5v-4z"/><path fill="#fff" d="M11 18v1h43v-1zm0 32v1h4v-1zm39 0v1h4v-1zM7 54v1h4v-1zm47 1v1h4v-1z" opacity=".1"/><path fill="#fff" d="M7 4C5.338 4 4 5.338 4 7v1c0-1.662 1.338-3 3-3h51c1.662 0 3 1.338 3 3V7c0-1.662-1.338-3-3-3z" opacity=".2"/></svg>