<svg xmlns="http://www.w3.org/2000/svg" viewBox="0 0 64 64"><circle cx="32" cy="33" r="28" opacity=".2"/><circle cx="32" cy="32" r="28" fill="#e4e4e4"/><path fill="#fff" d="M32 4A28 28 0 0 0 4 32a28 28 0 0 0 .021.586A28 28 0 0 1 32 5a28 28 0 0 1 27.979 27.414L60 32A28 28 0 0 0 32 4" opacity=".2"/><path fill="#e82929" d="M26.5 18a8.5 8.5 0 0 0-8.5 8.5 8.5 8.5 0 0 0 3.146 6.596A14 14 0 0 0 21 35a14 14 0 0 0 14 14 14 14 0 0 0 14-14 14 14 0 0 0-14-14 14 14 0 0 0-1.904.146A8.5 8.5 0 0 0 26.5 18m-14 9a2.5 2.5 0 0 0-2.5 2.5 2.5 2.5 0 0 0 2.5 2.5 2.5 2.5 0 0 0 2.5-2.5 2.5 2.5 0 0 0-2.5-2.5"/><path d="M32 10a6 6 0 0 0-6 6 6 6 0 0 0 3 5.19V50h.025a8 8 0 0 0-.025.5 7.5 7.5 0 0 0 7.5 7.5 7.5 7.5 0 0 0 7.5-7.5 7.5 7.5 0 0 0-3.428-6.29A6 6 0 0 0 41 42a6 6 0 0 0-6-6 6 6 0 0 0-3 .813V22a6 6 0 0 0 6-6 6 6 0 0 0-6-6m-14 3a3 3 0 0 0-3 3 3 3 0 0 0 3 3 3 3 0 0 0 3-3 3 3 0 0 0-3-3m28 0a3 3 0 0 0-3 3 3 3 0 0 0 3 3 3 3 0 0 0 3-3 3 3 0 0 0-3-3" opacity=".1"/><path fill="#4c4c4c" d="M32 9a6 6 0 0 0-6 6 6 6 0 0 0 3 5.19V49h.025a8 8 0 0 0-.025.5 7.5 7.5 0 0 0 7.5 7.5 7.5 7.5 0 0 0 7.5-7.5 7.5 7.5 0 0 0-3.428-6.29A6 6 0 0 0 41 41a6 6 0 0 0-6-6 6 6 0 0 0-3 .813V21a6 6 0 0 0 6-6 6 6 0 0 0-6-6m-14 3a3 3 0 0 0-3 3 3 3 0 0 0 3 3 3 3 0 0 0 3-3 3 3 0 0 0-3-3m28 0a3 3 0 0 0-3 3 3 3 0 0 0 3 3 3 3 0 0 0 3-3 3 3 0 0 0-3-3"/></svg>