<svg xmlns="http://www.w3.org/2000/svg" viewBox="0 0 64 64"><path d="M4 14v41.222A2.78 2.78 0 0 0 6.8 58h50.401A2.78 2.78 0 0 0 60 55.222V14Z" opacity=".2"/><rect width="44.8" height="5.6" x="9.6" y="42.1" opacity=".2" rx="2.133" ry="2.322"/><path fill="#c7c7c7" d="M4 13v41.222A2.78 2.78 0 0 0 6.8 57h50.401A2.78 2.78 0 0 0 60 54.222V13Z"/><path fill="#5294e2" d="M6.8 7A2.78 2.78 0 0 0 4 9.777V13h56V9.777A2.78 2.78 0 0 0 57.2 7z"/><path fill="#fff" d="M6.8 7A2.78 2.78 0 0 0 4 9.777v1A2.78 2.78 0 0 1 6.8 8h50.4c1.552 0 2.8 1.238 2.8 2.777v-1A2.78 2.78 0 0 0 57.2 7Z" opacity=".1"/><path d="M16 23h24v30H16z" opacity=".1"/><path fill="#f4b801" d="M16 22h24v30H16z"/><path d="M23 20v15c0 10 10 13 10 13h23s-10-3-10-13V20z" opacity=".2"/><path fill="#fecd38" d="M23 19v15c0 10 10 13 10 13h23s-10-3-10-13V19z"/><circle cx="47" cy="48" r="15" opacity=".2"/><circle cx="47" cy="47" r="15" fill="#333"/><path fill="#fff" fill-rule="evenodd" d="M47 40s-.945-.02-1.93.498c-.948.498-1.98 1.744-2.056 3.502h2.678C45.82 42.815 47 42.8 47 42.8s1.334 0 1.334 1.4c0 .738-.187 1.152-.543 1.618-.355.467-.923.936-1.59 1.461-.666.525-1.431 1.106-2.076 1.951A5.56 5.56 0 0 0 43 52.6V54h8v-3h-4.865c.042-.062.026.043.074-.02.356-.466.924-.934 1.59-1.459.667-.525 1.432-1.107 2.076-1.953A5.56 5.56 0 0 0 51 44.2c0-1.866-1.085-3.184-2.07-3.701S47 40 47 40"/></svg>