<svg xmlns="http://www.w3.org/2000/svg" viewBox="0 0 64 64"><path d="m22 9 4 10 20-5.6S7 36 7 61c32-21 47-25 47-25l-2-8-23 8s14-17 28-23c0-8-5-8-5-8z" opacity=".2"/><path fill="#ea9f57" d="m22 8 4 10 20-5.6S7 35 7 60c32-21 47-25 47-25l-2-8-23 8s14-17 28-23c0-8-5-8-5-8z"/><path fill="#fff" d="M52 4 22 8l.379.95L52 5s4.562.02 4.96 7.018L57 12c0-8-5-8-5-8m-6 9.4-2.926.819C34.081 20.002 7 39.14 7 60l.023-.016C8.053 35.391 46 13.4 46 13.4M52 27l-21.762 7.568C29.515 35.394 29 36 29 36l23-8 1.768 7.07c.05-.014.232-.07.232-.07z" opacity=".2"/></svg>