<svg xmlns="http://www.w3.org/2000/svg" viewBox="0 0 64 64"><rect width="56" height="56" x="4" y="5" opacity=".2" rx="2.8" ry="2.8"/><rect width="56" height="56" x="4" y="4" fill="#4f4f4f" rx="2.8" ry="2.8"/><path d="M19.398 11c-.775 0-1.398.623-1.398 1.398v25.204c0 .775.623 1.398 1.398 1.398H32a14 14 0 0 0 14-14 14 14 0 0 0-14-14zm7.204 8H32a6 6 0 0 1 6 6 6 6 0 0 1-6 6h-5.398a.6.6 0 0 1-.602-.602V19.602c0-.333.27-.602.602-.602" opacity=".2"/><path fill="#fff" d="M19.398 10c-.775 0-1.398.623-1.398 1.398v25.204c0 .775.623 1.398 1.398 1.398H32a14 14 0 0 0 14-14 14 14 0 0 0-14-14zm7.204 8H32a6 6 0 0 1 6 6 6 6 0 0 1-6 6h-5.398a.6.6 0 0 1-.602-.602V18.602c0-.333.27-.602.602-.602"/><path fill="#fff" d="M6.8 4C5.25 4 4 5.25 4 6.8v1C4 6.25 5.25 5 6.8 5h50.4C58.75 5 60 6.25 60 7.8v-1C60 5.25 58.75 4 57.2 4z" opacity=".1"/><g fill="none" stroke="#000" stroke-linecap="round" stroke-width="3" opacity=".2"><path d="m14.49 56.478-2.984-4.477M8.52 50.51s5.97.693 5.97-2.985-5.97-2.984-5.97-2.984m0 11.939V44.54"/><path stroke-linejoin="bevel" d="M19.521 51.5h5.97m-5.97 4.979v-8.954m5.97 8.954v-8.954m-5.97 0s0-2.985 2.985-2.985 2.985 2.985 2.985 2.985"/><path stroke-linejoin="round" d="M30.5 44.56V56.5h5.97m5.03-11.94V56.5h5.97"/><path d="M52.49 56.479v-5.97m4.477-5.97-4.477 5.97m-4.477-5.97 4.477 5.97"/></g><path fill="none" stroke="#f07400" stroke-linecap="round" stroke-width="3" d="m14.49 55.478-2.984-4.477M8.52 49.51s5.97.693 5.97-2.985-5.97-2.984-5.97-2.984m0 11.939V43.54"/><path fill="none" stroke="#f07400" stroke-linecap="round" stroke-linejoin="bevel" stroke-width="3" d="M19.521 50.5h5.97m-5.97 4.979v-8.954m5.97 8.954v-8.954m-5.97 0s0-2.985 2.985-2.985 2.985 2.985 2.985 2.985"/><path fill="none" stroke="#f07400" stroke-linecap="round" stroke-linejoin="round" stroke-width="3" d="M30.5 43.56V55.5h5.97m5.03-11.94V55.5h5.97"/><path fill="none" stroke="#f07400" stroke-linecap="round" stroke-width="3" d="M52.49 55.479v-5.97m4.477-5.97-4.477 5.97m-4.477-5.97 4.477 5.97"/></svg>