<svg xmlns="http://www.w3.org/2000/svg" viewBox="0 0 64 64"><g transform="translate(0 2)"><path d="M25 56C8.655 53.886 7.991 45.471 7.991 45.471L8 26l-4-4.049 5-7 5 3 4-4V8l8-3 2 5h8l2-5 8 3v6l4 4 5-3 5 7-4 4-.02 19.471S55.48 55.761 39 56Z" opacity=".2"/><path fill="#3888c3" d="M25 55C8.655 52.886 7.991 44.471 7.991 44.471L8 25l-4-4.049 5-7 5 3 4-4V7l8-3 2 5h8l2-5 8 3v6l4 4 5-3 5 7-4 4-.02 19.471S55.48 54.761 39 55Z"/><circle cx="20" cy="30" r="6" opacity=".2"/><circle cx="20" cy="29" r="6" fill="#fff"/><circle cx="20" cy="29" r="4" fill="#353535"/><circle cx="44" cy="30" r="6" opacity=".2"/><circle cx="44" cy="29" r="6" fill="#fff"/><circle cx="44" cy="29" r="4" fill="#353535"/><path fill="#fff" d="m4 21 4.998-7.005L14 17l4-4v1l-4 4-5-3c.09-.039-2.983 4.192-4.582 6.417Zm56.001 0-5.002-7-5.005 2.998-3.998-3.999L46 14l4 4 4.999-3 4.579 6.405ZM45.996 7l-7.995-3-2.002 5 .002 1 2-5L46 8ZM18.002 7 26 4l2 5h7.999l.002 1H28l-2-5-8 3Z" opacity=".2"/><path fill="none" stroke="#000" stroke-linecap="round" stroke-opacity=".2" stroke-width="4.002" d="M32.001 30.001v5.998"/><path fill="none" stroke="#fff" stroke-linecap="round" stroke-width="4.001" d="M32 29v5.996"/><path fill="none" stroke="#000" stroke-linejoin="round" stroke-width="2" d="M56 43.001h-9v4H37V43h-5m-24 .001h9v4h10V43h5" opacity=".2"/><path fill="none" stroke="#fff" stroke-linejoin="round" stroke-width="2" d="M56 42.001h-9v4H37V42h-5m-24 .001h9v4h10V42h5"/></g></svg>