<svg xmlns="http://www.w3.org/2000/svg" viewBox="0 0 64 64"><rect width="40" height="56" x="-53" y="-60" opacity=".2" rx="11.429" ry="11.2" transform="rotate(90)scale(-1 1)"/><rect width="40" height="56" x="-52" y="-60" fill="#4f4f4f" rx="11.429" ry="11.2" transform="rotate(90)scale(-1 1)"/><path d="M52 38.143V27.857C52 24.058 48.432 21 44 21H20c-4.432 0-8 3.058-8 6.857v10.286C12 41.942 15.568 45 20 45h5l7-4 7 4h5c4.432 0 8-3.058 8-6.857" opacity=".2"/><path fill="#48aad5" d="M52 37.143V26.857C52 23.058 48.432 20 44 20H20c-4.432 0-8 3.058-8 6.857v10.286C12 40.942 15.568 44 20 44h5l7-4 7 4h5c4.432 0 8-3.058 8-6.857"/><rect width="10" height="6" x="27" y="-8" opacity=".2" rx="1.25" ry="1.5" transform="rotate(90)"/><rect width="10" height="6" x="26" y="-8" fill="#929292" rx="1.25" ry="1.5" transform="rotate(90)"/><rect width="10" height="6" x="27" y="-62" opacity=".2" rx="1.25" ry="1.5" transform="rotate(90)"/><rect width="10" height="6" x="26" y="-62" fill="#929292" rx="1.25" ry="1.5" transform="rotate(90)"/><path fill="#fff" d="M15.2 12C8.993 12 4 17.098 4 23.43v1C4 18.098 8.994 13 15.2 13h33.6C55.007 13 60 18.098 60 24.43v-1C60 17.098 55.006 12 48.8 12z" opacity=".1"/></svg>