<svg xmlns="http://www.w3.org/2000/svg" viewBox="0 0 64 64"><rect width="56" height="56" x="4" y="5" opacity=".2" rx="2.8" ry="2.8"/><rect width="56" height="56" x="4" y="4" fill="#384256" rx="2.8" ry="2.8"/><path d="M12 17v32h12V33.453l8 8.73 8-8.73V49h12V17H40l-8 8.727L24 17Z" opacity=".2"/><path fill="#f83737" d="M12 16v32h12V32.455l8 8.727V24.727L24 16Z"/><path fill="#c01616" d="M52 16v32H40V32.455l-8 8.727V24.727L40 16Z"/><path fill="#fff" d="M6.8 4C5.25 4 4 5.25 4 6.8v1C4 6.25 5.25 5 6.8 5h50.4C58.75 5 60 6.25 60 7.8v-1C60 5.25 58.75 4 57.2 4z" opacity=".1"/><path fill="#fff" d="M12 16v1h12l8 8.727L40 17h12v-1H40l-8 8.727L24 16z" opacity=".2"/></svg>