<svg xmlns="http://www.w3.org/2000/svg" viewBox="0 0 64 64"><ellipse cx="32" cy="34" opacity=".2" rx="28" ry="25"/><circle cx="17" cy="15" r="9" fill="#c9c9c9"/><path fill="#fff" d="M17 6a9 9 0 0 0-9 9 9 9 0 0 0 .021.576A9 9 0 0 1 17 7a9 9 0 0 1 8.979 8.424A9 9 0 0 0 26 15a9 9 0 0 0-9-9" opacity=".1"/><circle cx="48" cy="15" r="9" fill="#3f3f3f"/><path fill="#fff" d="M48 6a9 9 0 0 0-9 9 9 9 0 0 0 .021.576A9 9 0 0 1 48 7a9 9 0 0 1 8.979 8.424A9 9 0 0 0 57 15a9 9 0 0 0-9-9" opacity=".1"/><path fill="#4f4f4f" d="M32 8v50a28 25 0 0 0 28-25A28 25 0 0 0 32 8"/><path fill="#e4e4e4" d="M32 8A28 25 0 0 0 4 33a28 25 0 0 0 28 25z"/><circle cx="22.5" cy="28.5" r="2.5" opacity=".1"/><circle cx="22.5" cy="27.5" r="2.5" fill="#3f3f3f"/><path d="m42 25-6 5s4-2 6-2c1 0 1 4 1 4s2-3 4-3 1 3 1 3l5-9s-5 5-9 5c-1 0-2-3-2-3" opacity=".2"/><path fill="#f00e0e" d="m42 24-6 5s4-2 6-2c1 0 1 4 1 4s2-3 4-3 1 3 1 3l5-9s-5 5-9 5c-1 0-2-3-2-3"/><path fill="#fff" d="M32 38v7c17 0 23-14 23-14s-9 7-23 7"/><path fill="#3f3f3f" d="M27 37h5v8h-5z"/><path d="M23 40s0 9 8 9c6 0 9-4.156 9-4.156S36 45 32 45c-3 0-5-5-5-5z" opacity=".1"/><path fill="#b3b3b3" d="M23 39s0 9 8 9c6 0 9-4.156 9-4.156S36 44 32 44c-3 0-5-5-5-5z"/><path d="M32 39s3 3 5 3c3 0 6-2 6-5s-4-7-11-7c-6 0-11 4-11 7s3 5 6 5c2 0 5-3 5-3" opacity=".2"/><path fill="#b3b3b3" d="M32 38s3 3 5 3c3 0 6-2 6-5s-4-7-11-7c-6 0-11 4-11 7s3 5 6 5c2 0 5-3 5-3"/><path d="m32 36 4-4h-8z" opacity=".1"/><path fill="#3f3f3f" d="m32 35 4-4h-8z"/><path fill="#fff" d="M32 8v1a28 25 0 0 1 27.977 24.586A28 25 0 0 0 60 33 28 25 0 0 0 32 8" opacity=".1"/><path fill="#fff" d="M32 8A28 25 0 0 0 4 33a28 25 0 0 0 .023.414A28 25 0 0 1 32 9z" opacity=".2"/></svg>