<svg xmlns="http://www.w3.org/2000/svg" viewBox="0 0 64 64"><path fill="#4d401e" d="M13 50h38v7H13z"/><path d="M29 5c-.554 0-1 .446-1 1v8c0 .554.446 1 1 1h6c.554 0 1-.446 1-1V6c0-.554-.446-1-1-1zm3 13c-11.598 0-21 9.402-21 21v13h42V39c0-11.598-9.402-21-21-21M11 55v3c0 1.662 1.338 3 3 3h36c1.662 0 3-1.338 3-3v-3z" opacity=".2"/><path fill="#4d401e" d="M29 8h6v14h-6z"/><rect width="8" height="10" x="28" y="4" fill="#baa74b" rx="0" ry="1"/><path fill="#baa74b" d="M32 17c-11.598 0-21 9.402-21 21v13h42V38c0-11.598-9.402-21-21-21M11 54v3c0 1.662 1.338 3 3 3h36c1.662 0 3-1.338 3-3v-3z"/><path d="M21 36a7 7 0 0 0-7 7 7 7 0 0 0 7 7 7 7 0 0 0 7-7 7 7 0 0 0-7-7m22 0a7 7 0 0 0-7 7 7 7 0 0 0 7 7 7 7 0 0 0 7-7 7 7 0 0 0-7-7" opacity=".2"/><circle cx="21" cy="42" r="7" fill="#e7c275"/><circle cx="43" cy="42" r="7" fill="#e7c275"/><path d="M32 17a21 21 0 0 0-2 .102V51h4V17.115A21 21 0 0 0 32 17m4.5 2a1.5 1.5 0 0 0-1.5 1.5 1.5 1.5 0 0 0 1.5 1.5 1.5 1.5 0 0 0 1.5-1.5 1.5 1.5 0 0 0-1.5-1.5m0 6a1.5 1.5 0 0 0-1.5 1.5 1.5 1.5 0 0 0 1.5 1.5 1.5 1.5 0 0 0 1.5-1.5 1.5 1.5 0 0 0-1.5-1.5m0 6a1.5 1.5 0 0 0-1.5 1.5 1.5 1.5 0 0 0 1.5 1.5 1.5 1.5 0 0 0 1.5-1.5 1.5 1.5 0 0 0-1.5-1.5" opacity=".2"/><circle cx="21" cy="42" r="3" opacity=".8"/><circle cx="43" cy="42" r="3" opacity=".8"/><path fill="#fff" d="M29 4c-.554 0-1 .446-1 1v1c0-.554.446-1 1-1h6c.554 0 1 .446 1 1V5c0-.554-.446-1-1-1zm3 13c-11.598 0-21 9.402-21 21v1c0-11.598 9.402-21 21-21s21 9.402 21 21v-1c0-11.598-9.402-21-21-21M11 54v1h42v-1z" opacity=".2"/><path fill="#fff" d="M21 35a7 7 0 0 0-7 7 7 7 0 0 0 .023.459A7 7 0 0 1 21 36a7 7 0 0 1 6.977 6.541A7 7 0 0 0 28 42a7 7 0 0 0-7-7m22 0a7 7 0 0 0-7 7 7 7 0 0 0 .023.459A7 7 0 0 1 43 36a7 7 0 0 1 6.977 6.541A7 7 0 0 0 50 42a7 7 0 0 0-7-7" opacity=".2"/></svg>