<svg xmlns="http://www.w3.org/2000/svg" viewBox="0 0 64 64"><rect width="56" height="56" x="4" y="5" opacity=".2" rx="4" ry="4"/><rect width="56" height="56" x="4" y="4" fill="#a1441e" rx="4" ry="4"/><path d="M18 21.008 21.336 19l10.21 15.232L37.386 20l8.357 3.354-1.49 3.712-4.672-1.877L30.645 47H24v-4h3.951l1.762-4.293z" opacity=".2"/><path fill="#c9c9c9" d="M18 20.008 21.336 18l10.21 15.232L37.386 19l8.357 3.354-1.49 3.712-4.672-1.877L30.645 46H24v-4h3.951l1.762-4.293z"/><path fill="#fff" d="M8 4C5.784 4 4 5.784 4 8v1c0-2.216 1.784-4 4-4h48c2.216 0 4 1.784 4 4V8c0-2.216-1.784-4-4-4z" opacity=".2"/></svg>