<svg xmlns="http://www.w3.org/2000/svg" viewBox="0 0 64 64"><path d="M15 5C8.749 5 4 9.749 4 16v42c0 1.551 1.449 3 3 3h50c1.551 0 3-1.449 3-3V16c0-6.251-4.749-11-11-11Z" opacity=".2"/><path fill="#4f4f4f" d="M15 4C8.749 4 4 8.749 4 15v42c0 1.551 1.449 3 3 3h50c1.551 0 3-1.449 3-3V15c0-6.251-4.749-11-11-11Z"/><path fill="#fff" d="M15 4C8.749 4 4 8.749 4 15v1C4 9.749 8.749 5 15 5h34c6.251 0 11 4.749 11 11v-1c0-6.251-4.749-11-11-11z" opacity=".1"/><rect width="56" height="1" x="4" y="34" opacity=".2" rx="0" ry="0"/><rect width="56" height="1" x="4" y="35" fill="#fff" opacity=".1" rx="0" ry="0"/><path fill="none" stroke="#000" stroke-linejoin="round" stroke-width="10" d="M40 23V13H24v20h16v19H24V41" opacity=".2"/><path fill="none" stroke="#d2f2ff" stroke-linejoin="round" stroke-width="10" d="M40 22V12H24v20h16v19H24V40"/><circle cx="53" cy="16" r="2" opacity=".2"/><circle cx="53" cy="15" r="2" fill="#666"/><circle cx="11" cy="16" r="2" opacity=".2"/><circle cx="11" cy="15" r="2" fill="#666"/><circle cx="11" cy="15" r="1" opacity=".2"/><circle cx="53" cy="52" r="2" opacity=".2"/><circle cx="53" cy="51" r="2" fill="#666"/><circle cx="11" cy="52" r="2" opacity=".2"/><circle cx="11" cy="51" r="2" fill="#666"/><circle cx="53" cy="15" r="1" opacity=".2"/><circle cx="53" cy="51" r="1" opacity=".2"/><circle cx="11" cy="51" r="1" opacity=".2"/></svg>