<svg xmlns="http://www.w3.org/2000/svg" viewBox="0 0 64 64"><path d="M32 8a14 14 0 0 0-13.67 11.018L18 19A14 14 0 0 0 4 33a14 14 0 0 0 6.92 12.063A9 9 0 0 0 10 49a9 9 0 0 0 9 9 9 9 0 0 0 7.545-4.107A14 14 0 0 0 32 55a14 14 0 0 0 5.441-1.117A9 9 0 0 0 45 58a9 9 0 0 0 9-9 9 9 0 0 0-.916-3.943A14 14 0 0 0 60 33a14 14 0 0 0-14-14 14 14 0 0 0-.34.012A14 14 0 0 0 32 8" opacity=".2"/><path fill="#ff7b01" d="M32 7a14 14 0 0 0-13.67 11.018L18 18A14 14 0 0 0 4 32a14 14 0 0 0 6.92 12.063A9 9 0 0 0 10 48a9 9 0 0 0 9 9 9 9 0 0 0 7.545-4.107A14 14 0 0 0 32 54a14 14 0 0 0 5.441-1.117A9 9 0 0 0 45 57a9 9 0 0 0 9-9 9 9 0 0 0-.916-3.943A14 14 0 0 0 60 32a14 14 0 0 0-14-14 14 14 0 0 0-.34.012A14 14 0 0 0 32 7"/><ellipse cx="25" cy="38.5" opacity=".2" rx="7" ry="8.5"/><ellipse cx="25" cy="37.5" fill="#fff" rx="7" ry="8.5"/><ellipse cx="-39" cy="38.5" opacity=".2" rx="7" ry="8.5" transform="scale(-1 1)"/><ellipse cx="26" cy="39" fill="#0059bf" rx="3" ry="4"/><ellipse cx="-39" cy="37.5" fill="#fff" rx="7" ry="8.5" transform="scale(-1 1)"/><ellipse cx="-38" cy="39" fill="#0059bf" rx="3" ry="4" transform="scale(-1 1)"/><path fill="#fff" d="M32 7a14 14 0 0 0-13.67 11.018L18 18A14 14 0 0 0 4 32a14 14 0 0 0 .021.408A14 14 0 0 1 18 19l.33.018A14 14 0 0 1 32 8a14 14 0 0 1 13.66 11.012A14 14 0 0 1 46 19a14 14 0 0 1 13.98 13.625A14 14 0 0 0 60 32a14 14 0 0 0-14-14 14 14 0 0 0-.34.012A14 14 0 0 0 32 7m21.412 37.842a14 14 0 0 1-.328.215 9 9 0 0 1 .895 3.529A9 9 0 0 0 54 48a9 9 0 0 0-.588-3.158m-42.832.012A9 9 0 0 0 10 48a9 9 0 0 0 .021.443 9 9 0 0 1 .899-3.38 14 14 0 0 1-.34-.21" opacity=".2"/></svg>