<svg xmlns="http://www.w3.org/2000/svg" xmlns:xlink="http://www.w3.org/1999/xlink" viewBox="0 0 96 96"><defs><linearGradient id="b" x1="50%" x2="50%" y1="0%" y2="100%"><stop offset="0%" stop-color="#e2e2e2"/><stop offset="100%" stop-color="#c3c3c3"/></linearGradient><linearGradient id="c" x1="17.813%" x2="100%" y1="7.98%" y2="100%"><stop offset="0%" stop-color="#0038c0"/><stop offset="100%" stop-color="#07d2dd"/></linearGradient><linearGradient id="d" x1="50%" x2="50%" y1="0%" y2="96.63%"><stop offset="0%" stop-color="#2b2b2b"/><stop offset="100%"/></linearGradient><filter id="a" width="141.7%" height="141.7%" x="-20.8%" y="-20.8%" filterUnits="objectBoundingBox"><feOffset dy="2" in="SourceAlpha" result="shadowOffsetOuter1"/><feGaussianBlur in="shadowOffsetOuter1" result="shadowBlurOuter1" stdDeviation="2"/><feComposite in="shadowBlurOuter1" in2="SourceAlpha" operator="out" result="shadowBlurOuter1"/><feColorMatrix in="shadowBlurOuter1" result="shadowMatrixOuter1" values="0 0 0 0 0 0 0 0 0 0 0 0 0 0 0 0 0 0 0.2 0"/><feMerge><feMergeNode in="shadowMatrixOuter1"/><feMergeNode in="SourceGraphic"/></feMerge></filter></defs><g fill="none" fill-rule="evenodd" filter="url(#a)" transform="translate(12 12)"><rect width="75" height="75" x="-1.5" y="-1.5" stroke="url(#b)" stroke-width="3" rx="8"/><rect width="69" height="69" x="1.5" y="1.5" fill="url(#c)" stroke="url(#d)" stroke-width="3" rx="8"/><path fill="#fff" fill-rule="nonzero" stroke="#000" stroke-width="2" d="M19 66V48h-5v18zm0-21v-4h-5v4zm9 21V56c0-2 2.436-4.5 4-4.5 1.87 0 3 1.076 3 4V66h5V55c0-4.794-1.886-7.5-6-7.5-2.584 0-4.334.868-6 2.5v-3h-5v19zm21 0v-7l7.061 7H62l-9-9.5 9-8.5h-6l-6.864 6H49V41h-5v25zM19.006 34.44c7.189 0 11.757-3.427 11.625-8.526-.196-7.563-6.406-9-11.66-9.958s-5.074-1.96-5.074-4.194c0-2.066 2.99-3.371 5.722-3.371 2.564 0 7.084.856 9.06 2.5V5.987c-2.523-2.573-6.665-2.547-10.28-2.547-6.306 0-10.765 3.6-10.765 8.702 0 4.554 3.749 8.264 7.037 8.605 13.853 1.438 11.465 8.146 4.462 8.296-2.732.058-8.676-1.062-10.904-3.129v5.07c3.027 2.909 8.023 3.456 10.777 3.456ZM54 34V11h10V5H37v6h10v23zM5 41h5v25H5z"/></g></svg>