<svg xmlns="http://www.w3.org/2000/svg" viewBox="0 0 64 64"><path d="M10 5a6 6 0 1 0 6 6 6 6 0 0 0-6-6m-.073 3H10a3 3 0 1 1-3 3 3 3 0 0 1 2.927-3" opacity=".2"/><path d="M27 11c-9.389 0-17 7.612-17 17 0 9.39 7.611 17 17 17 .984 0 1.941-.1 2.879-.261l13.39 13.39a9.8 9.8 0 0 0 13.86 0 9.8 9.8 0 0 0 0-13.859l-13.39-13.39c.16-.938.261-1.896.261-2.88 0-9.388-7.611-17-17-17" opacity=".2"/><path fill="#c6c6c6" d="M10 4a6 6 0 1 0 6 6 6 6 0 0 0-6-6m-.073 3H10a3 3 0 1 1-3 3 3 3 0 0 1 2.927-3"/><circle cx="15" cy="15" r="3" fill="#929292"/><circle cx="27" cy="27" r="17" fill="#e52030"/><path fill="#fff" d="M27 10c-9.389 0-17 7.611-17 17 0 .169.02.332.025.5C10.292 18.345 17.78 11 27 11c9.224 0 16.714 7.35 16.975 16.512.006-.171.025-.34.025-.512 0-9.389-7.611-17-17-17m16.857 19.998c-.037.295-.07.59-.119.88l13.39 13.392a9.8 9.8 0 0 1 2.858 6.433 9.8 9.8 0 0 0-2.857-7.433zM10 4a6 6 0 0 0-5.979 6.506A6 6 0 0 1 10 5a6 6 0 0 1 5.979 5.502A6 6 0 0 0 16 10a6 6 0 0 0-6-6m2.957 6.496a3 3 0 0 1-5.914.004A3 3 0 0 0 7 11a3 3 0 1 0 5.957-.504" opacity=".2"/></svg>