<svg xmlns="http://www.w3.org/2000/svg" xmlns:xlink="http://www.w3.org/1999/xlink" viewBox="0 0 96 96"><defs><linearGradient id="a" x1="50%" x2="50%" y1="0%" y2="99.585%"><stop offset="0%" stop-color="#5c5c5c"/><stop offset="100%"/></linearGradient><filter id="b" width="127.9%" height="129.3%" x="-14%" y="-14.6%" filterUnits="objectBoundingBox"><feOffset dy="2" in="SourceAlpha" result="shadowOffsetOuter1"/><feGaussianBlur in="shadowOffsetOuter1" result="shadowBlurOuter1" stdDeviation="2"/><feColorMatrix in="shadowBlurOuter1" result="shadowMatrixOuter1" values="0 0 0 0 0 0 0 0 0 0 0 0 0 0 0 0 0 0 0.2 0"/><feMerge><feMergeNode in="shadowMatrixOuter1"/><feMergeNode in="SourceGraphic"/></feMerge></filter></defs><g fill="url(#a)" fill-rule="evenodd" filter="url(#b)" transform="translate(5 8)"><path d="M59 79.02V82H27.018l-.001-2.981zM67 76v3h-8v-3zm-40.018.02v2.96h-7.964l-.001-2.961zM72 73v3h-5v-3zm-53.017.02v2.96h-4.967l-.001-2.961zM75 70v3h-3v-3zm-61.019.02v2.96l-.556.001H11.02v-2.253l-.001-.709zM61 59v5h3v3h-3v3h-5v2H32v-2h-5v-3h5v-5h-5v-3zm-2 3h-5v8h2v-3h3zm-19 0h-5v8h5zm11 0h-8v8h8zm27 5v3h-3v-3zm-67.02.02v2.96H8.02v-1.997l-.001-.964zM81 62v5h-3v-5zm-59-6 4.979.02L27 59h-3v5h3v3h-5v-3h-3v-2h3zM7.98 62.016v4.967l-.142-.002-2.157-.036h-.654v-2.208l-.001-.319v-.596L5.02 62.18l-.002-.163zM70 51v2h3v3h2v3h-5v2h-3v3h-2v-5h-3v-3h5v-5zm14 1.015V62h-2.922v-.592q.001-4.406-.002-8.811c0-.133-.018-.265-.035-.398l-.023-.185zM7 45.016V50H5.986l-.001 11.982H4V50h1.014v-4.984zM19 51v2h3v3h-3v5h-2v-3h-5v-1.952L17 56v-5zm27-11v5h2v8H38v-8h2v-5zm34.988 6v5.985H79V46zM64 48.002V51h-4.989v-1.468l-.001-1.451.623-.06q.16-.015.317-.016c1.338-.009 2.676-.003 4.05-.003m-37.012.007V50H22v-1.99zM33.063 27v3H35v11h-2v4h-3v3h-3.012v-3h-9.925v-2h-5v-3h-3v-7h3v-3h5v-3zM70 27v3h5v3h3v7h-3v3h-5v2.965H59l-.018 1.263V48H56v-2l-1-.035h-1V40h-3V30h3v-3zm16-3.985V40h-2v6h-3v-6h2.114l-.038-.654-.004-15.684-.055-.647zM4.98 40.016v4.967H2.02v-3.33l-.001-1.637zM28 35.001h-6v5h6zM65 35h-6l-.018 5H65zM1.986 22l-.001 17.982H0V22zm81.998-3.985v4.97H81.11c-.016-.273-.034-.447-.035-.622-.002-1.275.001-2.55-.004-3.824 0-.12-.016-.24-.032-.36l-.022-.165zM5 17v-3h3v3zv5H2v-5zm75.984-1.982v2.965h-2.966v-2.41l-.001-.556zm-3.002-3.001v2.965h-2.966l-.001-2.965zM14 9v3h-3v2H8v-3h3V9zm60.984.018v2.965h-2.966v-2.41l-.001-.556zM19 6v3h-5V6zm52.985.018v2.964l-2.044-.026-2.06-.025-.468-.001h-.397l-.001-2.913zM27 3v3h-7.993V3.024q4.445-.019 6.967-.022h.537zm39.984.015V5.98l-.477-.019a24 24 0 0 0-.985-.03c-1.927-.005-3.854-.002-5.781-.002h-.611l-.086-2.21-.028-.705zm-8-3.016V2.98l-.477-.047a3 3 0 0 0-.246-.012L43.006 2.92H27V0z"/></g></svg>