<svg xmlns="http://www.w3.org/2000/svg" viewBox="0 0 24 24"><path fill="#536076" d="M15 4v1.555c-.363.02-.723.04-1.115.078-1.28.123-2.662.329-3.885.73V6H6v4h.127c-.57 1.354-.92 2.932-1.162 4.391-.036.213-.056.401-.086.609H4v4.012h4v-1.555c.363-.021.723-.041 1.115-.078 1.28-.123 2.662-.329 3.885-.731v.364h4v-4h-.127c.569-1.354.92-2.932 1.162-4.39.035-.214.056-.403.086-.61H19V4zM7 16v2H5v-2zm8-9.445v1.457h2.111c-.023.153-.036.29-.062.447-.261 1.57-.698 3.257-1.305 4.553H13v2.55c-1.163.424-2.628.693-3.98.823-.358.034-.686.052-1.02.072V15H5.889c.023-.154.036-.29.062-.447.26-1.57.698-3.257 1.305-4.553H10V7.45c1.163-.425 2.628-.693 3.98-.823.358-.034.686-.052 1.02-.072M16 14v2h-2v-2zM9 7v2H7V7zm9-2v2h-2V5z"/></svg>