<svg xmlns="http://www.w3.org/2000/svg" viewBox="0 0 16 16"><path fill="currentColor" d="M8 1a.9.9 0 0 0-.627.262L1.26 7.373a.887.887 0 0 0 0 1.256l6.113 6.111a.885.885 0 0 0 1.254 0l6.113-6.11a.887.887 0 0 0 0-1.256L8.627 1.262A.9.9 0 0 0 8 1m-.107 3q1.095 0 1.709.527.616.528.617 1.405 0 .735-.436 1.23-.436.494-1.246.633v.031q1.922.251 1.922 1.854 0 1.08-.734 1.703-.734.616-2.123.617-1.29 0-2.061-.42v-.906a4.35 4.35 0 0 0 2.04.512q1.882 0 1.882-1.538 0-1.374-2.027-1.375h-.707v-.802h.707q.851 0 1.32-.405.468-.404.469-1.07 0-.543-.364-.857-.361-.32-.968-.319-.947 0-1.83.643l-.49-.664Q6.566 4 7.892 4z" color="#d3dae3"/></svg>