<svg xmlns="http://www.w3.org/2000/svg" xmlns:xlink="http://www.w3.org/1999/xlink" viewBox="0 0 96 96"><defs><linearGradient id="b" x1="50%" x2="50%" y1="0%" y2="100%"><stop offset="0%" stop-opacity=".673"/><stop offset="100%"/></linearGradient><linearGradient id="c" x1="50%" x2="50%" y1=".923%" y2="100%"><stop offset="0%" stop-color="#ff5"/><stop offset="99.959%" stop-color="#ffc600"/></linearGradient><linearGradient id="d" x1="50%" x2="50%" y1="0%" y2="100%"><stop offset="0%" stop-opacity=".673"/><stop offset="100%"/></linearGradient><filter id="a" width="130.8%" height="130.8%" x="-15.4%" y="-15.4%" filterUnits="objectBoundingBox"><feOffset dy="2" in="SourceAlpha" result="shadowOffsetOuter1"/><feGaussianBlur in="shadowOffsetOuter1" result="shadowBlurOuter1" stdDeviation="2"/><feColorMatrix in="shadowBlurOuter1" result="shadowMatrixOuter1" values="0 0 0 0 0 0 0 0 0 0 0 0 0 0 0 0 0 0 0.2 0"/><feMerge><feMergeNode in="shadowMatrixOuter1"/><feMergeNode in="SourceGraphic"/></feMerge></filter></defs><g fill="none" filter="url(#a)" transform="translate(9 9)"><path fill="url(#b)" d="M18 0h42c9.941 0 18 8.059 18 18v42c0 9.941-8.059 18-18 18H18C8.059 78 0 69.941 0 60V18C0 8.059 8.059 0 18 0"/><path fill="url(#c)" d="M20 5h38c8.284 0 15 6.716 15 15v38c0 8.284-6.716 15-15 15H20c-8.284 0-15-6.716-15-15V20c0-8.284 6.716-15 15-15"/><path fill="url(#d)" d="M53.974 18.504v8.716q-12.789-4.503-19.828-2.251c-4.525 1.447-4.696 4.983-2.05 7.38 1.47 1.331 3.997 2.066 6.686 2.48 7.526 1.156 18.604 4.54 15.88 18.262s-24.847 10.51-28.97 8.322q-4.123-2.189-4.503-2.13v-9.088q11.079 6.233 17.593 4.994c6.513-1.238 8.791-7.12 2.077-10.081-5.318-2.346-14.283-4.688-17.893-8.7-.215-.239-.966-1.089-1.241-1.834-.354-.959-.486-2.008-.536-2.782-.179-2.764-.121-6.8.79-8.715q.174-.368.374-.716c2.159-3.78 6.417-6.007 9.743-6.469q8-2.067 21.878 2.612"/></g></svg>