<svg xmlns="http://www.w3.org/2000/svg" viewBox="0 0 24 24"><g fill="none"><path fill="#536076" d="M8.975 3.979V6.58a12.3 12.3 0 0 0-2.393 2.4H3.975v4h.607a13.1 13.1 0 0 0-.492 4.615.5.5 0 1 0 .998-.07 12.2 12.2 0 0 1 .53-4.545h2.357v-4h-.143q.53-.614 1.143-1.145v.145h4V5.598a12.2 12.2 0 0 1 4.543-.551.5.5 0 0 0 .066-.998 13.1 13.1 0 0 0-4.61.513V3.98zm8 4V9.16a20 20 0 0 1 2.535-.152.5.5 0 1 1 0 1q-1.153.001-2.144.115l-.391.049v1.807h-4v-.358a6 6 0 0 0-.737.615q-.224.227-.424.482l-.195.26h.356v4h-1.801c-.107.77-.164 1.607-.164 2.53a.5.5 0 1 1-1 0q0-1.081.097-2.052l.055-.477H7.975v-4h2.447a7 7 0 0 1 1.11-1.45 7 7 0 0 1 1.128-.91l.315-.195V7.979zM11 14H9v2h2zm-4-4v2H5v-2zm9-1h-2v2h2zm-4-4v2h-2V5z"/><path fill="#000" d="M17.756 5.004a.5.5 0 0 1-.238.043 12.2 12.2 0 0 0-4.543.55V7.98h4v1.18a20 20 0 0 1 2.367-.148zm-4.781 2.975h-4v-.145q-.613.53-1.143 1.145h.143v4h2.447a7 7 0 0 1 1.11-1.45q.64-.637 1.443-1.105zm-5 5H5.617a12.2 12.2 0 0 0-.53 4.544.5.5 0 0 1-.01.145l3.94 1.56c.01-.794.054-1.548.145-2.25H7.975z" opacity=".3"/></g></svg>