<svg xmlns="http://www.w3.org/2000/svg" image-rendering="optimizeSpeed" viewBox="0 0 64 64"><circle cx="32" cy="32" r="27" fill="#ef4360" stroke="#ce2744" stroke-width="2" paint-order="stroke markers fill"/><path fill="#fff" d="M36.971 19.05c0 2.237-4.971 9.057-4.971 9.057s-4.971-6.82-4.971-9.057S29.255 15 32 15s4.971 1.813 4.971 4.05m-4.972 9.057 4.923 8.582h-9.847l2.462-4.29z" paint-order="markers fill stroke"/><path fill="#fff" d="M42.233 45.549c-1.925-1.118-5.31-8.86-5.31-8.86s8.356-.922 10.28.196c1.926 1.118 2.373 3.964 1 6.357-1.372 2.392-4.045 3.425-5.97 2.307m-25.437-8.664c1.925-1.118 10.28-.197 10.28-.197s-3.384 7.743-5.31 8.86c-1.924 1.12-4.597.086-5.97-2.306s-.925-5.239 1-6.357" paint-order="markers fill stroke"/></svg>