<svg xmlns="http://www.w3.org/2000/svg" viewBox="0 0 64 64"><rect width="56" height="56" x="4" y="5" opacity=".2" rx="2.8" ry="2.8"/><rect width="56" height="56" x="4" y="4" fill="#e4e4e4" rx="2.8" ry="2.8"/><path fill="none" stroke="#000" stroke-linecap="round" stroke-linejoin="round" stroke-width="6" d="M29 13c-5.788 7.618-18 6-18 13.7 0 9.336 13.014 7.632 10.8 18.7-1.4 7-7.6 5.6-11.8 5.6" opacity=".2"/><path fill="none" stroke="#4f4f4f" stroke-linecap="round" stroke-linejoin="round" stroke-width="6" d="M29 12c-5.788 7.618-18 6-18 13.7 0 9.336 13.014 7.632 10.8 18.7-1.4 7-7.6 5.6-11.8 5.6"/><path fill="none" stroke="#000" stroke-linecap="round" stroke-linejoin="round" stroke-width="6" d="M33.1 52V21.8c1.53-5.017 3.803-8.8 8.7-8.8 5.6 0 8.2 3.2 8.2 8.8S39 31.5 39 35s11.2 14.2 14 17" opacity=".2"/><path fill="none" stroke="#85722f" stroke-linecap="round" stroke-linejoin="round" stroke-width="6" d="M33.1 51V20.8c1.53-5.017 3.803-8.8 8.7-8.8 5.6 0 8.2 3.2 8.2 8.8S39 30.5 39 34s11.2 14.2 14 17"/><path fill="#fff" d="M6.8 4C5.25 4 4 5.25 4 6.8v1C4 6.25 5.25 5 6.8 5h50.4C58.75 5 60 6.25 60 7.8v-1C60 5.25 58.75 4 57.2 4z" opacity=".2"/></svg>