<svg xmlns="http://www.w3.org/2000/svg" viewBox="0 0 64 64"><path d="M4 50v2c0 1.662 1.338 3 3 3h50c1.662 0 3-1.338 3-3v-2c0 1.662-1.338 3-3 3H7c-1.662 0-3-1.338-3-3" opacity=".2"/><rect width="44" height="56" x="-54" y="-60" fill="#325f78" rx="3" ry="3" transform="rotate(90)scale(-1 1)"/><rect width="36" height="48" x="-50" y="-56" opacity=".2" rx="0" ry="0" transform="rotate(90)scale(-1 1)"/><path fill="#fff" d="M7 10c-1.662 0-3 1.338-3 3v1c0-1.662 1.338-3 3-3h50c1.662 0 3 1.338 3 3v-1c0-1.662-1.338-3-3-3z" opacity=".1"/><rect width="10" height="28" x="42" y="19" opacity=".2" rx="1" ry="1"/><rect width="10" height="28" x="42" y="18" fill="#fff" rx="1" ry="1"/></svg>