<svg xmlns="http://www.w3.org/2000/svg" fill="none" viewBox="0 0 50 50"><g stroke="#00796b" stroke-linecap="round" stroke-linejoin="round" stroke-width="3" data-iconColor="Swlang"><path d="M25 38.333a13.333 13.333 0 1 0 0-26.666 13.333 13.333 0 0 0 0 26.666"/><path d="M25 28.333a3.333 3.333 0 1 0 0-6.666 3.333 3.333 0 0 0 0 6.666m0-20v3.334m0 30v-3.334m8.333 1.1-1.666-2.883m-8.334-14.433-6.666-11.55m22.766 22.766-2.883-1.666m-25.983-15 2.883 1.666M28.333 25h13.334M8.333 25h3.334m27.766-8.333-2.883 1.666m-25.983 15 2.883-1.666m19.883-21.1-1.666 2.883m-8.334 14.433-6.666 11.55"/><path d="M25 37.667a12.667 12.667 0 1 0 0-25.334 12.667 12.667 0 0 0 0 25.334"/><path d="M25 28.167a3.167 3.167 0 1 0 0-6.334 3.167 3.167 0 0 0 0 6.334m0-19v3.166m0 28.5v-3.166m7.917 1.045-1.584-2.74M23.417 22.26l-6.334-10.972m21.629 21.629-2.74-1.584m-24.684-14.25 2.74 1.584M28.167 25h12.666M9.167 25h3.166m26.379-7.917-2.74 1.584m-24.684 14.25 2.74-1.584m18.889-20.045-1.584 2.74M23.417 27.74l-6.334 10.972"/></g></svg>