<svg xmlns="http://www.w3.org/2000/svg" xmlns:xlink="http://www.w3.org/1999/xlink" viewBox="0 0 96 96"><defs><linearGradient id="b" x1="50%" x2="50%" y1="0%" y2="100%"><stop offset="0%" stop-color="#f9fdff"/><stop offset="27.544%" stop-color="#f0f8fb"/><stop offset="85.907%" stop-color="#e0ecf9"/><stop offset="100%" stop-color="#d8e9f7"/></linearGradient><filter id="a" width="126.7%" height="130.8%" x="-13.3%" y="-15.4%" filterUnits="objectBoundingBox"><feOffset dy="2" in="SourceAlpha" result="shadowOffsetOuter1"/><feGaussianBlur in="shadowOffsetOuter1" result="shadowBlurOuter1" stdDeviation="2"/><feColorMatrix in="shadowBlurOuter1" result="shadowMatrixOuter1" values="0 0 0 0 0 0 0 0 0 0 0 0 0 0 0 0 0 0 0.2 0"/><feMerge><feMergeNode in="shadowMatrixOuter1"/><feMergeNode in="SourceGraphic"/></feMerge></filter></defs><g fill="none" fill-rule="evenodd" filter="url(#a)" transform="translate(3 9)"><path fill="url(#b)" d="M.207 36.926c0-20.023 19.7-36.255 44-36.255s44 16.232 44 36.255-19.7 36.254-44 36.254a53 53 0 0 1-11.64-1.282l-.788.064c-.469.038-1.171.28-1.556.527 0 0-3.487 2.376-8.252 4.27-3.927 1.562-7.353 1.08-7.353 1.08-.933-.054-1.072-.536-.32-1.08 0 0 4.616-3.181 6.06-5.195s.728-3.098.728-3.098c-.116-.374-.448-.827-.789-1.1C8.206 60.904.207 49.685.207 36.926" transform="matrix(-1 0 0 1 89.414 0)"/><path fill="#0c0709" fill-rule="nonzero" d="M35.268 42.078a9 9 0 0 0 1.462-1.328c2.418-2.732 4.514-5.729 6.723-8.632 2.547-3.348 5.371-6.356 9.157-8.284 7.625-3.882 16.587-1.425 20.606 5.696 1.011 1.794 1.658 3.724 1.801 5.807.053 1.426.122 2.316-.023 3.705-1.167 10.383-12.348 16.159-21.175 10.94-2.005-1.186-3.698-2.75-5.308-4.43-.522-.547-.594-.928-.072-1.54a60 60 0 0 0 3.068-3.917c.464-.646.733-.725 1.331-.137.395.388.789.781 1.191 1.164a7.304 7.304 0 1 0 .26-8.354c-1.607 1.508-2.936 3.297-4.359 4.989-2.317 2.754-4.37 5.733-6.828 8.368-4.507 4.834-9.982 6.738-16.42 5.515-6.084-1.157-10.221-5.639-11.51-12.314a19.4 19.4 0 0 1-.006-4.851c1.104-7.193 6.981-11.93 12.9-12.338.931-.1 1.862-.118 2.793.013 3.065.246 5.595 1.708 7.882 3.676.929.8 1.758 1.72 2.68 2.526.667.584.587 1.062.049 1.674-1.063 1.207-2.115 2.43-3.1 3.702-.496.64-.807.682-1.367.075q-.24-.262-.488-.515a7.304 7.304 0 1 0-1.247 8.79"/></g></svg>