<svg xmlns="http://www.w3.org/2000/svg" viewBox="0 0 916 817"><g fill="#00ba96" data-iconColor="Syncpack"><path d="M426.07 1.86c34.73-3.46 69.83-.73 104.09 5.53 23.78 4.24 46.92 11.47 69.6 19.69 16.17 6.35 31.86 13.83 47.29 21.8 29.15 16.03 56.72 35.27 80.34 58.79 12 11.98 23.67 24.31 34.36 37.47 11.9 15.1 22.49 31.19 32.37 47.67 17.18 28.26 28.85 59.51 37.86 91.23 4.3 16.29 8.42 32.96 8.34 49.91-4.61-3.43-8.27-7.9-12.13-12.1-24.34-27.45-47.61-55.83-71.38-83.76-10.73-12.24-20.94-25.01-32.69-36.3-9.26 7.92-16.06 18.12-23.89 27.34-22.42 26.79-44.84 53.6-67.56 80.14-2.56-10.01-7.87-18.99-13.33-27.65-8.82-13.49-19.01-26.17-30.62-37.37-21.29-20.95-48.28-35.61-76.88-43.83-13.46-3.17-27.11-5.69-40.92-6.67-18.1-1.51-36.31.64-54.01 4.45-15.2 2.53-29.47 8.76-43.27 15.41-26.42 12.96-48.95 33.2-65.73 57.28-9.29 13.31-17.54 27.62-22 43.33 31.19.13 62.39-.17 93.59.02-8.87 12.69-19.2 24.28-28.98 36.26-25.16 30.13-50.8 59.85-75.97 89.96-9.89 12.44-19.81 24.85-30.27 36.81-16.63 21.06-34.39 41.18-52.04 61.37a82 82 0 0 1-7.91-7.02c-12.2-12.16-23.52-25.16-34.91-38.07-36.88-42.51-72.64-85.98-108.76-129.14-9.79-11.56-19.37-23.31-29.7-34.39-3.91-4.51-7.77-9.09-10.96-14.14v-.09c27.48-.03 54.95-.31 82.43-.74 5.69-40.05 19.06-78.84 38.09-114.48 14.48-25.69 30.71-50.59 50.49-72.56 17.86-19.54 37.37-37.66 58.94-53.06C287.07 33.4 355.68 7.78 426.07 1.86"/><path d="M723.52 278.52c6.97 5.28 12.72 11.94 18.78 18.2 24.52 26.6 47.68 54.39 71.06 81.99 25.35 30.25 50.47 60.7 75.96 90.83 8.66 10.74 18.99 20.13 26.54 31.75-27.5.17-55 .33-82.49.81-7.29 51.03-26.81 100.03-55.23 142.93-7.31 11.23-15.02 22.22-23.51 32.6-38.89 47.22-89.62 84.39-145.95 108.12-53.03 22.54-111.13 33.16-168.7 30.66-25.01-1.69-49.96-5.01-74.35-10.89-18.07-4.61-35.89-10.24-53.3-16.9-20.37-8.56-40.51-17.89-59.36-29.47-24.31-14.65-47.12-31.89-67.02-52.16-11-11.04-21.66-22.44-31.52-34.51-11.9-15.04-22.49-31.08-32.36-47.5-17.54-28.72-29.41-60.53-38.51-92.82-4.26-15.94-7.93-32.24-8.25-48.81 4.02 2.28 6.79 6.1 9.97 9.35 26.33 29.44 51.24 60.11 76.94 90.1 9.67 10.97 18.81 22.5 29.51 32.51 8.09-6.88 14.25-15.61 20.95-23.77 23.31-28.03 46.77-55.95 70.46-83.67 2.74 10.7 8.59 20.24 14.49 29.45 17.8 26.73 41.31 50.23 70.09 64.95 14.92 7.51 30.6 13.96 47.13 16.8 18.39 3.86 37.32 5.88 56.09 4.18 13-1.08 25.82-3.67 38.51-6.6 28.24-8.68 55.12-23.09 76.17-44.05 11.91-11.67 22.12-25.01 30.69-39.3 5.69-9.54 10.6-19.65 13.55-30.4-31.17.01-62.34.12-93.51-.01 6.34-9.33 13.78-17.87 20.92-26.59 25.22-30.43 50.99-60.4 76.46-90.61 11.58-13.47 22.04-27.86 33.84-41.15 9.47-11.22 18.43-22.86 28.07-33.93 9.15-10.82 18.67-21.32 27.88-32.09"/></g></svg>