<svg xmlns="http://www.w3.org/2000/svg" viewBox="0 0 64 64"><circle cx="32" cy="33" r="29" opacity=".2"/><circle cx="32" cy="32" r="29" fill="#007ad2"/><path d="M32 16a17 17 0 0 0-17 17 17 17 0 0 0 17 17 17 17 0 0 0 11.004-4.055L43 46a4 4 0 0 0 4 4 4 4 0 0 0 4-4 4 4 0 0 0-4-4 4 4 0 0 0-.621.05A17 17 0 0 0 49 33a17 17 0 0 0-17-17m0 4a13 13 0 0 1 13 13 13 13 0 0 1-13 13 13 13 0 0 1-13-13 13 13 0 0 1 13-13m-3 4v6h-6v6h6v6h6v-6h6v-6h-6v-6z" opacity=".2"/><path fill="#fff" d="M32 15a17 17 0 0 0-17 17 17 17 0 0 0 17 17 17 17 0 0 0 17-17 17 17 0 0 0-17-17m0 4a13 13 0 0 1 13 13 13 13 0 0 1-13 13 13 13 0 0 1-13-13 13 13 0 0 1 13-13"/><path fill="#fff" d="M29 23h6v18h-6z"/><circle cx="47" cy="45" r="4" fill="#fff"/><path fill="#fff" d="M41 29v6H23v-6z"/><path fill="#fff" d="M32 3A29 29 0 0 0 3 32a29 29 0 0 0 .033.482A29 29 0 0 1 32 4a29 29 0 0 1 28.982 28.229L61 32A29 29 0 0 0 32 3" opacity=".1"/></svg>