<svg xmlns="http://www.w3.org/2000/svg" viewBox="0 0 64 64"><circle cx="32" cy="33" r="28" opacity=".2"/><circle cx="32" cy="32" r="28" fill="#4e4540"/><path d="M44.648 8.05 33.57 29.07q-.193.338-.363.684l-.059.11.004.003c-2.011 4.255-1.367 9.369 1.766 12.989A12.015 12.015 0 0 0 48.79 46a12.02 12.02 0 0 0 7.14-12.305 12.02 12.02 0 0 0-9.624-10.48 2 2 0 0 0-.395-.04c-2.435-.007-2.769 3.52-.375 3.97a7.985 7.985 0 0 1 6.414 6.984c.38 3.49-1.54 6.8-4.758 8.203a7.99 7.99 0 0 1-9.25-2.098 7.99 7.99 0 0 1-.75-9.453 2 2 0 0 0 .196-.367L48.09 10.105a28 28 0 0 0-3.442-2.054M8 23a2 2 0 0 0-1.664 3.11l4 6a2 2 0 1 0 3.328-2.22L11.738 27h12.907L11.262 51.766a28 28 0 0 0 2.988 2.87L29.762 25.95A2 2 0 0 0 28 23Zm27.656 28C34.74 51 34 51.884 34 52.98v.04c0 1.096.74 1.98 1.656 1.98h13.657a28 28 0 0 0 4.132-4z" opacity=".2"/><path fill="#fff" d="M44.648 7.05 33.57 28.07q-.193.338-.363.684l-.059.11.004.003c-2.011 4.255-1.367 9.369 1.766 12.989A12.015 12.015 0 0 0 48.79 45a12.02 12.02 0 0 0 7.14-12.305 12.02 12.02 0 0 0-9.624-10.48 2 2 0 0 0-.395-.04c-2.435-.007-2.769 3.52-.375 3.97a7.985 7.985 0 0 1 6.414 6.984c.38 3.49-1.54 6.8-4.758 8.203a7.99 7.99 0 0 1-9.25-2.098 7.99 7.99 0 0 1-.75-9.453 2 2 0 0 0 .196-.367L48.09 9.105a28 28 0 0 0-3.442-2.054M8 22a2 2 0 0 0-1.664 3.11l4 6a2 2 0 1 0 3.328-2.22L11.738 26h12.907L11.262 50.766a28 28 0 0 0 2.988 2.87L29.762 24.95A2 2 0 0 0 28 22Z"/><path fill="#faa41a" d="M35.656 50C34.74 50 34 50.884 34 51.98v.04c0 1.096.74 1.98 1.656 1.98h13.657a28 28 0 0 0 4.132-4z"/><path fill="#fff" d="M32 4A28 28 0 0 0 4 32a28 28 0 0 0 .018.492A28 28 0 0 1 32 5a28 28 0 0 1 27.975 27.492A28 28 0 0 0 60 32 28 28 0 0 0 32 4" opacity=".1"/><path fill="#fff" d="M35.656 50C34.74 50 34 50.884 34 51.98v.04c0 .159.028.308.063.453.187-.848.825-1.473 1.593-1.473h16.856a28 28 0 0 0 .933-1z" opacity=".2"/></svg>