<svg xmlns="http://www.w3.org/2000/svg" viewBox="0 0 64 64"><path d="M10.824 5A2.807 2.807 0 0 0 8 7.8v50.4c0 1.55 1.26 2.8 2.824 2.8h42.352A2.807 2.807 0 0 0 56 58.2V7.8C56 6.25 54.74 5 53.176 5Z" opacity=".2"/><path fill="#333" d="M8 9v48.2c0 1.551 1.26 2.8 2.824 2.8h42.352A2.806 2.806 0 0 0 56 57.2V9Z"/><path fill="#595959" d="M10.824 4A2.806 2.806 0 0 0 8 6.8V9h48V6.8C56 5.249 54.74 4 53.176 4Z"/><path d="M8 9h48v1H8z" opacity=".2"/><path fill="#fff" d="M10.824 4A2.807 2.807 0 0 0 8 6.8v1C8 6.25 9.26 5 10.824 5h42.352A2.807 2.807 0 0 1 56 7.8v-1C56 5.25 54.74 4 53.176 4z" opacity=".1"/><circle cx="32" cy="7" r="1" fill="#333"/></svg>