<svg xmlns="http://www.w3.org/2000/svg" xmlns:xlink="http://www.w3.org/1999/xlink" viewBox="0 0 96 96"><defs><filter id="a" width="128.2%" height="128.2%" x="-14.1%" y="-14.1%" filterUnits="objectBoundingBox"><feOffset dy="2" in="SourceAlpha" result="shadowOffsetOuter1"/><feGaussianBlur in="shadowOffsetOuter1" result="shadowBlurOuter1" stdDeviation="2"/><feColorMatrix in="shadowBlurOuter1" result="shadowMatrixOuter1" values="0 0 0 0 0 0 0 0 0 0 0 0 0 0 0 0 0 0 0.2 0"/><feMerge><feMergeNode in="shadowMatrixOuter1"/><feMergeNode in="SourceGraphic"/></feMerge></filter></defs><g fill="none" fill-rule="evenodd" filter="url(#a)" transform="translate(6 6)"><path fill="#fff" fill-rule="nonzero" d="M80.628 4.48a2.74 2.74 0 0 0-1.911-.775l-29.857-.01c-.729 0-1.428.29-1.942.807l-42 42.018a2.745 2.745 0 0 0 0 3.881l29.796 29.782a2.744 2.744 0 0 0 3.879 0l42.064-41.98a2.74 2.74 0 0 0 .806-1.942l-.001-29.813c0-.742-.3-1.452-.833-1.969z"/><path fill="#616577" fill-rule="nonzero" d="M84.093.87a3 3 0 0 0-2.09-.848L49.366.012a3 3 0 0 0-2.123.88L1.33 46.827a3 3 0 0 0 0 4.243l32.572 32.557a3 3 0 0 0 4.24 0l45.983-45.89a3 3 0 0 0 .881-2.124l-.001-32.59a3 3 0 0 0-.91-2.153"/><path fill="#3c434b" d="m49.798 8.186 27.053-.037v27.049L35.89 76.014 8.987 49.062z"/><circle cx="62.77" cy="22.092" r="6" fill="#616577" fill-rule="nonzero" transform="rotate(45 62.77 22.092)"/><path fill="#33b5be" fill-rule="nonzero" d="m46.352 22.613 21.5 21.5-6.718 6.72-21.5-21.5z"/><path fill="#f7901e" fill-rule="nonzero" d="m40.516 35.616 17.918 17.918-6.72 6.719-17.917-17.918z"/><path fill="#a466aa" fill-rule="nonzero" d="m27.95 55.325 14.333 14.334 6.719-6.72-14.334-14.333z"/></g></svg>