<svg xmlns="http://www.w3.org/2000/svg" viewBox="0 0 64 64"><path d="M16 5h40a4 4 45 0 1 4 4v40a12 12 135 0 1-12 12H8a4 4 45 0 1-4-4V17A12 12 135 0 1 16 5" opacity=".2"/><path fill="#248afd" d="M16 4h40a4 4 45 0 1 4 4v40a12 12 135 0 1-12 12H8a4 4 45 0 1-4-4V16A12 12 135 0 1 16 4"/><path fill="#fff" d="M16 4A12 12 0 0 0 4 16v1A12 12 0 0 1 16 5h40a4 4 0 0 1 4 4V8a4 4 0 0 0-4-4z" opacity=".1"/><path d="m36 26 12-8v22l-12 8Zm-21 0 12-8v22l-12 8Z" opacity=".2"/><path fill="#fff" d="m36 25 12-8v22l-12 8Zm-21 0 12-8v22l-12 8Z"/></svg>