<svg xmlns="http://www.w3.org/2000/svg" viewBox="0 0 24 24"><g fill="#536076"><path d="m6.86 6.263-.467 1.534-.328 1.09-.061.263v7.885h11v-7.88l-.07-.286a72 72 0 0 1-.362-1.185l-.059-.198a76 76 0 0 0-.46-1.49c.012.022.004.026-.06.033l-.107.006H6.9c.021.016-.005.073-.04.228m-.086-1.228h9.112c.421-.045.875.093 1.073.531.332.983.615 2.01.929 3l.116.47v8c0 .553-.414 1-.929 1H5.932c-.514 0-.928-.447-.928-1v-8l.087-.376c.263-.894.542-1.796.812-2.687.094-.458.408-.895.871-.938"/><path d="M7.693 7h7.605l.296 1H7.402zm3.311 9h1v-2.965H14l-2.496-3-2.504 3h2.004z"/></g></svg>