<svg xmlns="http://www.w3.org/2000/svg" viewBox="0 0 64 64"><circle cx="-.707" cy="45.962" r="28" opacity=".2" transform="rotate(-45)"/><circle cy="45.255" r="28" fill="#cb51f0" transform="rotate(-45)"/><path fill="#fff" d="M51.799 12.201 12.201 51.799c-10.935-10.935-10.935-28.663 0-39.598s28.663-10.935 39.598 0" opacity=".2"/><path d="M24.27 21A2.219 2.155 0 0 0 22 23.155v19.693a2.219 2.155 0 0 0 3.327 1.865l17.563-9.846a2.219 2.155 0 0 0 0-3.733L25.327 21.29A2.219 2.155 0 0 0 24.27 21" opacity=".2"/><path fill="#fff" d="M24.27 20A2.219 2.155 0 0 0 22 22.155v19.693a2.219 2.155 0 0 0 3.327 1.865l17.563-9.846a2.219 2.155 0 0 0 0-3.733L25.327 20.29A2.219 2.155 0 0 0 24.27 20"/><path fill="#d32020" d="m26 26 12 5.999L26 38Z"/><path fill="#fff" d="M32.41 4.004a28 28 0 0 0-20.21 8.195 28 28 0 0 0-8.15 20.688l.01-.112A28 28 0 0 1 12.2 13.2a28 28 0 0 1 20.21-8.195A28 28 0 0 1 51.8 13.2a28 28 0 0 1 8.138 19.723l.011.191A28 28 0 0 0 51.801 12.2a28 28 0 0 0-19.39-8.195" opacity=".2"/></svg>