<svg xmlns="http://www.w3.org/2000/svg" viewBox="0 0 16 16"><path fill="#e79627" d="M10.913 3.071a3.23 3.23 0 0 1-.732 1.764l.368-.025-.016.04c-.29.733-.644 1.651-1.022 2.461A5.8 5.8 0 0 1 8.4 9.061l.464-.119-.011.043A4.57 4.57 0 0 1 6.9 11.646l.427.19-.1.011a.9.9 0 0 0-.6.27 1.7 1.7 0 0 0-.329.742V15l-.7-.949v-1.358a.65.65 0 0 0-.273-.649 2.3 2.3 0 0 0-.77-.3l-.1-.026.618-.146a2.7 2.7 0 0 1-1.064-2.423v-.043l.5.276a3.2 3.2 0 0 1 .091-1.86 13.3 13.3 0 0 1 .9-2.35l.019-.038.306.366a2.87 2.87 0 0 1 .642-1.6 10.6 10.6 0 0 1 1.556-1.75l.026-.025.217.359A3.42 3.42 0 0 1 10.922 1h.03v.028a8 8 0 0 1-.039 2.043M8.57 2.633l-.335.527-.03.048-.173-.436a4.93 4.93 0 0 0-1.894 3.364v.051L5.7 5.911c-.539 1.428-1.1 2.514-.738 4.028l.011.05-.519-.207q-.001.013.005.026a2.28 2.28 0 0 0 1.126 1.466l.831.008c-.206-2.727 1.235-5.135 2.46-7.535l-.042-.036a13.5 13.5 0 0 0-3.16 6.982c-.817-1.807-.108-3.136.215-4.331l.5.271a5.17 5.17 0 0 1 1.529-3.378l.263.436a3.74 3.74 0 0 1 2.469-2.254 3.28 3.28 0 0 0-2.08 1.196" data-iconColor="TCL"/></svg>