<svg xmlns="http://www.w3.org/2000/svg" viewBox="0 0 64 64"><rect width="56" height="56" x="4" y="5" opacity=".2" rx="2.8" ry="2.8"/><rect width="56" height="56" x="4" y="4" fill="#5985cb" rx="2.8" ry="2.8"/><path fill="none" stroke="#4f4f4f" stroke-linejoin="round" stroke-width="2" d="M14 32h28m-14.2 0L34 18m-6 14 6 14h14"/><g opacity=".2" transform="matrix(2 0 0 2 0 1)"><circle cx="7" cy="16" r="2"/><circle cx="14" cy="16" r="2"/><circle cx="21" cy="16" r="2"/><circle cx="17" cy="23" r="2"/><circle cx="24" cy="23" r="2"/><circle cx="17" cy="9" r="2"/></g><g fill="#fff" transform="scale(2)"><circle cx="7" cy="16" r="2"/><circle cx="14" cy="16" r="2"/><circle cx="21" cy="16" r="2"/><circle cx="17" cy="23" r="2"/><circle cx="24" cy="23" r="2"/><circle cx="17" cy="9" r="2"/></g><path fill="#fff" d="M6.8 4C5.25 4 4 5.25 4 6.8v1C4 6.25 5.25 5 6.8 5h50.4C58.75 5 60 6.25 60 7.8v-1C60 5.25 58.75 4 57.2 4z" opacity=".2"/></svg>