<svg xmlns="http://www.w3.org/2000/svg" viewBox="0 0 64 64"><path d="M55.2 55.491c-.005 4.109-1.021 5.48-13.94 5.48-3.674 0-8.145.322-10.498-1.154-2.223-1.394-1.421-3.44-1.421-5.521 0-4.287 4.2-7.296 11.34-7.296 7.141 0 14.524 4.2 14.519 8.491" opacity=".2"/><path fill="#d48003" d="M55.2 54.491c-.005 4.109-1.021 5.48-13.94 5.48-3.674 0-8.145.322-10.498-1.154-2.223-1.394-1.421-3.44-1.421-5.521 0-4.287 4.2-7.296 11.34-7.296 7.141 0 14.524 4.2 14.519 8.491"/><path d="M32 5A26 26 0 0 0 6 31a26 26 0 0 0 26 26 26 26 0 0 0 26-26A26 26 0 0 0 32 5" opacity=".2"/><path fill="#fdc33b" d="M32 4A26 26 0 0 0 6 30a26 26 0 0 0 26 26 26 26 0 0 0 26-26A26 26 0 0 0 32 4"/><ellipse cx="28" cy="27" opacity=".1" rx="4" ry="6"/><path d="M34 55.491c-.005 4.109-1.021 5.48-13.94 5.48-3.674 0-8.145.322-10.498-1.154-2.223-1.394-1.421-3.44-1.421-5.521 0-4.287 4.2-7.296 11.34-7.296 7.141 0 14.524 4.2 14.519 8.491" opacity=".2"/><path fill="#d48003" d="M34 54.491c-.005 4.109-1.021 5.48-13.94 5.48-3.674 0-8.145.322-10.498-1.154-2.223-1.394-1.421-3.44-1.421-5.521 0-4.287 4.2-7.296 11.34-7.296 7.141 0 14.524 4.2 14.519 8.491"/><ellipse cx="28" cy="26" fill="#414141" rx="4" ry="6"/><ellipse cx="40" cy="27" opacity=".1" rx="4" ry="6"/><ellipse cx="40" cy="26" fill="#414141" rx="4" ry="6"/><path fill="#fff" d="M32 4A26 26 0 0 0 6 30l.021.406A26 26 0 0 1 32 5a26 26 0 0 1 25.979 25.576A26 26 0 0 0 58 30 26 26 0 0 0 32 4" opacity=".2"/></svg>