<svg xmlns="http://www.w3.org/2000/svg" xmlns:xlink="http://www.w3.org/1999/xlink" viewBox="0 0 96 96"><defs><linearGradient id="c" x1="50%" x2="91.129%" y1="48.522%" y2="46.613%"><stop offset="0%" stop-color="#fcfcd8"/><stop offset="100%" stop-color="#cab761"/></linearGradient><linearGradient id="d" x1="50%" x2="70.241%" y1="49.146%" y2="46.421%"><stop offset="0%" stop-color="#abc988"/><stop offset="100%" stop-color="#85b44d"/></linearGradient><linearGradient id="f" x1="50%" x2="50%" y1="0%" y2="98.311%"><stop offset="0%" stop-color="#5e5953"/><stop offset="100%" stop-color="#87817a"/></linearGradient><linearGradient id="g" x1="50%" x2="50%" y1="0%" y2="100%"><stop offset="0%" stop-color="#afaba7"/><stop offset="100%" stop-color="#77736e"/></linearGradient><linearGradient id="h" x1="50%" x2="50%" y1="0%" y2="100%"><stop offset="0%" stop-color="#6965eb"/><stop offset="100%" stop-color="#3f3ccd"/></linearGradient><filter id="a" width="141.6%" height="143.2%" x="-15.6%" y="-16.2%" filterUnits="objectBoundingBox"><feOffset dy="2" in="SourceAlpha" result="shadowOffsetOuter1"/><feGaussianBlur in="shadowOffsetOuter1" result="shadowBlurOuter1" stdDeviation="2"/><feComposite in="shadowBlurOuter1" in2="SourceAlpha" operator="out" result="shadowBlurOuter1"/><feColorMatrix in="shadowBlurOuter1" result="shadowMatrixOuter1" values="0 0 0 0 0 0 0 0 0 0 0 0 0 0 0 0 0 0 0.2 0"/><feMerge><feMergeNode in="shadowMatrixOuter1"/><feMergeNode in="SourceGraphic"/></feMerge></filter><filter id="e" width="136.2%" height="145.7%" x="-18.1%" y="-22.8%" filterUnits="objectBoundingBox"><feOffset dx="-1" in="SourceAlpha" result="shadowOffsetOuter1"/><feGaussianBlur in="shadowOffsetOuter1" result="shadowBlurOuter1" stdDeviation="2"/><feColorMatrix in="shadowBlurOuter1" result="shadowMatrixOuter1" values="0 0 0 0 0 0 0 0 0 0 0 0 0 0 0 0 0 0 0.2 0"/><feMerge><feMergeNode in="shadowMatrixOuter1"/><feMergeNode in="SourceGraphic"/></feMerge></filter><radialGradient id="b" cx="50%" cy="42.673%" r="68.241%" fx="50%" fy="42.673%"><stop offset="0%" stop-color="#3c91e3"/><stop offset="100%" stop-color="#1b61a7"/></radialGradient></defs><g fill="none" fill-rule="evenodd" filter="url(#a)" transform="translate(10 11)"><circle cx="34.5" cy="34.5" r="34.5" fill="url(#b)"/><path fill="url(#c)" d="M29.06 5.5v3.765q3.03-.501 4.296 0c1.912.757.109 1.785 2.063 2.518 1.401.525 3.129-.575 4.648 0 3.537 1.338 4.535 3.826 5.465 3.826.82 0-1.189-3.826-1.965-3.826-.775 0 .02-1.458-1.702-2.518-1.4-.86-2.745-1.654-3.987-2.288l-.204-.102.025.007q3.512.867 9.72 2.278l.464.105 8.72 4.426-3.147-6.587 2.933.728c6.86 5.637 11.506 13.87 12.438 23.196q-1.914-.56-4.603-1.447l-2.07-4.665q-1.163-1.932-3.434-3.731-2.078-1.646-5.264-3.158 3.858 3.813 5.264 6.89.169.369-2.116 0Q52.32 28 50.053 28t0-3.084l-2.17-6.89-2.351 3.159L47.883 28l-2.351 1.581L33.356 28l-15.534-3.084s-2.87-3.686-5.255-6.89q-2.385-3.203 5.255-4.335l6.015-4.426zm4.296 0c1.138 0 2.58.513 4.214 1.322l.104.053-.231-.057q-5.307-1.317-4.087-1.317" opacity=".818"/><path fill="url(#d)" d="M39.651.382a34.3 34.3 0 0 1 14.42 5.703l-1.616 2.503H50.54s-1.205-1.312-2.979-1.312q-1.097 0-3.994 1.312l-3.5-1.312-6.711-1.775-3.325-3.58H34.8l5.267 1.244q-.564-1.948-.434-2.697Z" opacity=".802"/><path fill="url(#d)" d="M23.62 19q.648.097 1.287.218c.809.877 2.085 2.532 5.124 3.694q2.52.963 7.067 1.165.482.306.95.631l-1.568 2.498h-1.97s-1.206-1.312-2.98-1.312q-1.096 0-3.547-1.775l.98 3.087-11.141-2.29L14 20.54l8.142 2.373 1.895-1.13q-.565-1.947-.435-2.696Z" opacity=".802"/><g filter="url(#e)" transform="translate(19 28)"><rect width="38" height="10" x="10" y="36" fill="url(#f)" rx="2"/><rect width="58" height="40" fill="url(#g)" rx="4"/><rect width="50" height="32" x="4" y="4" fill="url(#h)" rx="2"/><path fill="#fff" fill-opacity=".83" fill-rule="nonzero" d="M16.28 34v-3.84q-.68 0-1.14-.04a1.74 1.74 0 0 1-.78-.24 1.1 1.1 0 0 1-.46-.6q-.14-.4-.14-1.12V16.92h2.52v-3.2h-2.52V7.56H9.68v6.16H7.64v3.2h2.04v12.32q0 .8.26 1.66a4.4 4.4 0 0 0 .82 1.54q.56.68 1.5 1.12t2.34.44zm7.28.24q1.4 0 2.52-.48A5.7 5.7 0 0 0 28 32.44q1.64-1.64 1.64-4.32h-4.08a3.7 3.7 0 0 1-.46 1.36q-.38.68-1.54.68-.92 0-1.46-.52t-.54-1.48V25.4h8.08v-5.6q0-2.72-1.6-4.52a5.7 5.7 0 0 0-1.94-1.32q-1.14-.48-2.54-.48-1.92 0-3.26.8a5.5 5.5 0 0 0-2.06 2.12 5.5 5.5 0 0 0-.6 1.84q-.16 1.04-.16 2.28v6.68q0 1.24.16 2.28t.6 1.84a5.5 5.5 0 0 0 2.06 2.12q1.34.8 3.26.8m2-12.04h-4v-2.32q0-1.16.54-1.74t1.46-.58 1.46.58.54 1.74zm12.92 12.04V30.4q-1.16-.12-1.58-.54t-.42-1.58V5.52H32.4v23.04q0 1.8.42 2.9t1.22 1.7q.8.64 1.92.86t2.52.22m7.32 0q1.4 0 2.52-.48a5.7 5.7 0 0 0 1.92-1.32q1.64-1.64 1.64-4.32H47.8a3.7 3.7 0 0 1-.46 1.36q-.38.68-1.54.68-.92 0-1.46-.52t-.54-1.48V25.4h8.08v-5.6q0-2.72-1.6-4.52a5.7 5.7 0 0 0-1.94-1.32q-1.14-.48-2.54-.48-1.92 0-3.26.8a5.5 5.5 0 0 0-2.06 2.12 5.5 5.5 0 0 0-.6 1.84q-.16 1.04-.16 2.28v6.68q0 1.24.16 2.28t.6 1.84a5.5 5.5 0 0 0 2.06 2.12q1.34.8 3.26.8m2-12.04h-4v-2.32q0-1.16.54-1.74t1.46-.58 1.46.58.54 1.74z"/></g></g></svg>