<svg xmlns="http://www.w3.org/2000/svg" viewBox="0 0 16 16"><path fill="currentColor" d="M7 7v7l2 1 2-1V7z" class="ColorScheme-Text" opacity=".35"/><path fill="currentColor" d="M9 1c-1.108 0-2 .892-2 2v6.766A3 3 0 0 0 6 12a3 3 0 0 0 3 3 3 3 0 0 0 3-3 3 3 0 0 0-1-2.232V3c0-1.108-.892-2-2-2m0 1c.554 0 1 .446 1 1v7.264a2 1.958 0 0 1 1 1.695 2 1.958 0 0 1-2 1.957 2 1.958 0 0 1-2-1.957 2 1.958 0 0 1 1-1.697V3c0-.554.446-1 1-1M4 4v1h2V4zm0 3v1h2V7zm5 4a1 1 0 0 0-1 1 1 1 0 0 0 1 1 1 1 0 0 0 1-1 1 1 0 0 0-1-1" class="ColorScheme-Text"/></svg>