<svg xmlns="http://www.w3.org/2000/svg" xmlns:xlink="http://www.w3.org/1999/xlink" viewBox="0 0 128 128"><defs><linearGradient id="c" x1="50%" x2="50%" y1="2.639%" y2="100%"><stop offset="0%" stop-color="#89c9ec"/><stop offset="100%" stop-color="#4988c4"/></linearGradient><linearGradient id="f" x1="50%" x2="50%" y1=".5%" y2="100%"><stop offset="0%" stop-color="#6ca2ce"/><stop offset="100%" stop-color="#134473"/></linearGradient><linearGradient id="h" x1="50%" x2="50%" y1="0%" y2="100%"><stop offset="0%" stop-color="#eab755"/><stop offset="100%" stop-color="#df8242"/></linearGradient><linearGradient id="j" x1="101.611%" x2="0%" y1="50%" y2="48.677%"><stop offset="0%" stop-color="#cd9949" stop-opacity="0"/><stop offset="62.817%" stop-color="#cc9848" stop-opacity=".025"/><stop offset="82.576%" stop-color="#b1672a"/><stop offset="100%" stop-color="#aa5a21"/></linearGradient><linearGradient id="l" x1="50%" x2="50%" y1="0%" y2="100%"><stop offset="0%" stop-color="#b0e566"/><stop offset="100%" stop-color="#7fba4e"/></linearGradient><linearGradient id="n" x1="50%" x2="50%" y1="0%" y2="100%"><stop offset="0%" stop-opacity=".2"/><stop offset="100%" stop-opacity=".504"/></linearGradient><linearGradient id="o" x1="50%" x2="50%" y1="2.942%" y2="98.839%"><stop offset="0%" stop-color="#87c546"/><stop offset="100%" stop-color="#508f17"/></linearGradient><filter id="a" width="127.4%" height="130.5%" x="-13.7%" y="-15.2%" filterUnits="objectBoundingBox"><feOffset dy="2" in="SourceAlpha" result="shadowOffsetOuter1"/><feGaussianBlur in="shadowOffsetOuter1" result="shadowBlurOuter1" stdDeviation="3"/><feColorMatrix in="shadowBlurOuter1" result="shadowMatrixOuter1" values="0 0 0 0 0 0 0 0 0 0 0 0 0 0 0 0 0 0 0.2 0"/><feMerge><feMergeNode in="shadowMatrixOuter1"/><feMergeNode in="SourceGraphic"/></feMerge></filter><filter id="e" width="102%" height="101.9%" x="-1%" y="-1%" filterUnits="objectBoundingBox"><feOffset dy="1" in="SourceAlpha" result="shadowOffsetInner1"/><feComposite in="shadowOffsetInner1" in2="SourceAlpha" k2="-1" k3="1" operator="arithmetic" result="shadowInnerInner1"/><feColorMatrix in="shadowInnerInner1" result="shadowMatrixInner1" values="0 0 0 0 1 0 0 0 0 1 0 0 0 0 1 0 0 0 0.599513767 0"/><feOffset dy="-2" in="SourceAlpha" result="shadowOffsetInner2"/><feComposite in="shadowOffsetInner2" in2="SourceAlpha" k2="-1" k3="1" operator="arithmetic" result="shadowInnerInner2"/><feColorMatrix in="shadowInnerInner2" result="shadowMatrixInner2" values="0 0 0 0 0 0 0 0 0 0 0 0 0 0 0 0 0 0 0.199409965 0"/><feMerge><feMergeNode in="shadowMatrixInner1"/><feMergeNode in="shadowMatrixInner2"/></feMerge></filter><filter id="i" width="101.1%" height="101.2%" x="-.6%" y="-.6%" filterUnits="objectBoundingBox"><feOffset dy="1" in="SourceAlpha" result="shadowOffsetInner1"/><feComposite in="shadowOffsetInner1" in2="SourceAlpha" k2="-1" k3="1" operator="arithmetic" result="shadowInnerInner1"/><feColorMatrix in="shadowInnerInner1" values="0 0 0 0 1 0 0 0 0 1 0 0 0 0 1 0 0 0 0.695831512 0"/></filter><filter id="m" width="101.4%" height="101.3%" x="-.7%" y="-.6%" filterUnits="objectBoundingBox"><feOffset dy="1" in="SourceAlpha" result="shadowOffsetInner1"/><feComposite in="shadowOffsetInner1" in2="SourceAlpha" k2="-1" k3="1" operator="arithmetic" result="shadowInnerInner1"/><feColorMatrix in="shadowInnerInner1" values="0 0 0 0 1 0 0 0 0 1 0 0 0 0 1 0 0 0 0.6 0"/></filter><path id="b" d="M29.305 1.953c9.012-4.217 32.888 6.165 54.101 19.318C99.472 31.232 115.09 41.58 115.09 50.79c0 7.754-18.666 23.284-31.683 31.948-14.347 9.55-46.704 25.567-56.39 19.822-9.069-5.38-10.044-30.108-9.434-52.956.617-23.144 3.51-43.807 11.723-47.651"/><path id="g" d="M12.647 12.121C23.354 8.16 91.054 36.726 91.054 52.602c0 8.564-20.435 20.125-41.358 29.7-17.532 8.022-34.317 11.938-38.831 9.985C1.891 88.407 1 63.795 1 49.48s3.419-34.314 11.647-37.358"/><path id="k" d="M91.054 52.602c0 8.564-20.435 20.125-41.358 29.7-10.932 5.002-21.572 8.407-29.13 9.789-3.082-10.603-3.398-26.978-2.984-42.487.385-14.455 1.659-27.942 4.561-36.968 21.85 4.672 68.911 26.73 68.911 39.966"/></defs><g fill="none" fill-rule="evenodd" filter="url(#a)" transform="translate(6.995 11.5)"><use xlink:href="#b" fill="url(#c)"/><use xlink:href="#b" fill="#000" filter="url(#e)"/><path fill="url(#f)" fill-rule="nonzero" d="M28.882 1.047c-4.736 2.216-7.95 9.274-9.924 20.548l-.194 1.142-.093.58-.181 1.184q-.045.3-.087.602l-.17 1.225-.16 1.252-.077.637-.15 1.293-.14 1.321-.133 1.348-.064.684-.122 1.388-.114 1.415-.106 1.441-.05.73-.095 1.482-.045.75-.123 2.29-.073 1.56-.066 1.584-.058 1.61-.052 1.637-.046 1.742-.041 1.808-.033 1.778-.025 1.748-.022 2.567-.004 1.673.005 1.644.013 1.614.01.796.026 1.57.036 1.538.045 1.51.054 1.478.063 1.449q.017.357.036.713l.077 1.403q.042.693.088 1.373l.097 1.342.052.66.113 1.297.122 1.266q.255 2.502.593 4.76l.175 1.113c1.532 9.33 4.24 15.32 8.468 17.828 2.854 1.693 7.425 1.757 13.364.44l.879-.202q.666-.16 1.354-.34l.926-.25.47-.134.955-.28.972-.298q.492-.153.991-.317l1.009-.335.51-.175 1.035-.363 1.052-.381 1.069-.399 1.086-.417 1.102-.434.557-.223c10.325-4.17 22.124-10.418 30.122-15.742l1.023-.686 1.524-1.04 1.008-.701 1-.706 1.487-1.067.98-.716.487-.36.967-.721.955-.724.946-.727.933-.728.922-.73.908-.73.896-.731.881-.73.435-.366.86-.73.843-.728.828-.727.81-.725.794-.722.776-.719.38-.358.748-.713.366-.355.718-.707.35-.352.687-.699.666-.693.324-.345.632-.684q.155-.17.307-.34l.597-.673.573-.666.549-.658.523-.65c2.809-3.548 4.446-6.689 4.446-9.073 0-2.156-.678-4.321-2.065-6.581l-.308-.486-.33-.49c-.909-1.307-2.05-2.65-3.43-4.044l-.53-.526-.272-.264-.563-.533-.585-.538-.608-.544-.63-.549-.324-.276-.665-.558-.687-.564-.71-.57-.734-.578-.756-.583-.78-.59-.802-.598-.826-.605-.85-.612-.872-.62-.897-.627-.92-.635-.943-.644-.967-.652-1.495-.994-1.026-.674-1.585-1.028-1.638-1.048-1.99-1.258-3.368-2.1-.726-.449-1.449-.885-1.442-.87-1.436-.852-1.43-.836-.71-.411-1.419-.81-1.409-.793q-.702-.39-1.4-.774l-1.391-.757-.692-.371-1.376-.729-.684-.357-1.36-.7-1.348-.682-1.335-.662-.664-.323-1.316-.632-.654-.309-1.296-.601-.643-.293-1.274-.57-1.26-.55C44.492.728 34.191-1.438 28.882 1.047m54.524 20.224 2.405 1.496 1.435.901 2.324 1.475 1.811 1.166 1.342.875 1.323.876 1.304.876 1.283.876.841.584 1.241.876 1.214.875.792.583.778.582.764.582.748.582q.185.144.368.29l.725.58.355.29.699.58q.345.288.68.578l.662.577.324.289.633.576.612.575.592.574c3.97 3.917 6.428 7.75 6.428 11.405 0 2.636-2.158 6.172-5.518 10.03l-.605.684-.629.69q-.32.347-.651.696l-.674.7-.693.704-.712.707-.73.71-.748.712-.763.712-.777.713-.79.713-.804.711-.813.71-.824.708-.832.704-1.262 1.05-1.274 1.038-.855.684-.858.679-.859.67-.86.663-1.287.978-1.283.956-.85.623-.844.612-.838.6-1.242.875-.816.566-.806.552-.794.536-.392.262q-.43.285-.882.58l-.923.595-.963.607-1 .62-1.036.628-1.069.638-1.1.645q-.279.163-.562.325l-1.144.654q-.29.165-.582.328l-1.183.66-.6.33-1.219.662-1.239.661-1.257.66-1.275.658-1.29.653q-.323.163-.649.325l-1.308.645-.658.32-1.322.632q-.332.158-.664.313l-1.333.618-1.336.606-1.339.594q-.67.294-1.339.58l-1.337.563c-11.577 4.812-22.744 7.71-27.78 4.722-4.354-2.583-6.842-9.623-8.185-18.773l-.162-1.154-.077-.586-.145-1.185-.133-1.205-.123-1.224q-.059-.615-.112-1.24l-.102-1.258-.092-1.273-.083-1.287-.038-.648-.068-1.307-.06-1.318-.052-1.33-.022-.668-.04-1.343-.031-1.352-.024-1.358-.017-1.365-.014-2.057v-1.376l.01-2.069.022-2.071.022-1.38.04-2.068.05-2.06.063-2.077.048-1.375.083-2.048.063-1.355.07-1.346.075-1.335.082-1.325.044-.658.14-1.956.103-1.288.11-1.275.116-1.26.124-1.246.132-1.23.069-.609.143-1.205.15-1.188.16-1.17.167-1.151.087-.568.18-1.122.188-1.102.197-1.08q.15-.803.312-1.58l.219-1.025c1.828-8.273 4.575-14.195 8.6-16.078 4.235-1.982 11.754-.74 20.737 2.5l1.154.425 1.17.445.59.23 1.19.477q1.2.486 2.42 1.01l1.227.534q.615.272 1.238.552l1.247.569 1.255.586 1.264.602 1.27.618 1.278.633.64.322 1.285.654 1.289.669 1.292.682 1.295.694 1.296.706.648.358 1.297.723 1.297.734 1.295.744 1.293.753 1.29.763q.322.19.643.384l1.284.775 1.279.782q.32.195.637.394"/><use xlink:href="#g" fill="url(#h)"/><use xlink:href="#g" fill="#000" filter="url(#i)"/><path fill="url(#j)" fill-rule="nonzero" d="M12.3 11.183c-3.972 1.47-7.092 6.658-9.195 13.808l-.243.85a61 61 0 0 0-.457 1.753l-.215.9q-.053.228-.103.457l-.2.923-.19.939-.18.952q-.09.48-.171.966l-.161.978-.15.991-.142 1.002q-.068.504-.13 1.013l-.121 1.023-.11 1.032-.1 1.042-.09 1.05-.08 1.056-.07 1.065-.058 1.07q-.04.805-.068 1.617l-.032 1.084q-.008.27-.012.543l-.017 1.09L0 49.479c0 9.891.427 18.248 1.58 25.475l.17 1.03.09.506.185.992q.189.978.397 1.902l.213.91c1.668 6.876 4.189 11.335 7.833 12.911.976.422 2.407.603 4.203.564l.58-.02.602-.034.626-.048q.32-.029.648-.063l.67-.076q.341-.042.692-.09l.712-.105.363-.057.742-.124.76-.138.779-.15.796-.165.814-.176.83-.19.845-.202 1.297-.326.883-.233.897-.244.909-.257.922-.268.933-.28.945-.291.955-.303.965-.313.974-.325.983-.335.991-.346.999-.357 1.005-.367 1.011-.377 1.527-.584 1.024-.402 1.028-.412 1.031-.421 1.034-.43 1.036-.44 1.037-.449 1.038-.457 1.039-.467 1.307-.598 1.557-.72 1.531-.717 2.247-1.067 1.464-.706 1.437-.701 1.41-.698 1.381-.693 1.354-.69 1.326-.684 1.298-.68 1.27-.677 1.24-.672.61-.334 1.196-.665 1.168-.66.573-.33 1.124-.654.55-.325 1.079-.647 1.048-.643 1.018-.638.987-.633a86 86 0 0 0 4.057-2.794l.815-.608c6.123-4.641 9.414-8.863 9.414-12.61 0-4.204-4.184-9.252-11.405-14.6l-.815-.596-.416-.298-.852-.6-.435-.3-.888-.601-.91-.604-.935-.605-.958-.607-.487-.304-.991-.608q-.25-.153-.504-.305l-1.024-.61-1.045-.611-1.067-.612-1.087-.612-.552-.306-1.118-.613-1.138-.613-1.157-.612-1.177-.612-1.196-.612-1.214-.611-1.232-.61-1.25-.61-1.268-.609-1.217-.575-1.155-.538-1.153-.53-1.15-.52-1.15-.512-1.146-.504-1.142-.494-1.138-.485-1.133-.475-1.127-.465-1.12-.456-1.115-.445-1.656-.648-1.094-.42-1.084-.407-1.075-.397-1.592-.573-1.566-.547-1.537-.52-1.009-.331q-.25-.082-.499-.161l-.987-.312-.972-.3-.956-.286-.94-.272-.922-.26-.454-.124-.896-.238-.44-.114-.868-.217-.848-.203-.827-.188q-.204-.046-.406-.088l-.795-.165-.774-.15a52 52 0 0 0-.75-.135l-.728-.12-.355-.053-.692-.095-.666-.08c-2.397-.259-4.279-.187-5.499.264m78.754 41.42c0 3.938-4.324 8.512-11.03 13.235l-.889.616q-.901.618-1.853 1.238l-.964.62-.49.311-.998.622-1.02.621-1.04.622q-.262.156-.528.311l-1.07.622-1.088.621-1.106.621-1.122.62-1.138.618-1.152.617-1.166.615-1.178.614-1.19.611-1.202.61-1.21.606-1.22.603-1.844.9-1.858.891-1.87.883-1.878.874-1.254.577-1.576.71-1.047.462-1.044.451-1.04.441-1.036.432-1.032.42-1.025.41-1.02.4-1.014.39-1.006.378-1.495.548-.986.351-.977.34-.968.33-.958.319-.947.307-.936.296-.924.284-.912.273-1.343.388-.878.244-.865.233-.85.22-.834.209-.818.196-.802.185-.394.087-.776.166-.759.154-.74.142-.72.128-.354.06-.691.11-.672.098-.65.084-.629.072-.306.031-.596.052-.573.04-.277.014-.538.02c-1.665.04-2.965-.119-3.823-.49-4.038-1.746-6.44-7.69-7.86-15.005l-.183-.984-.173-.998-.082-.504-.156-1.017-.145-1.028-.07-.518-.13-1.042-.062-.524-.116-1.053-.107-1.057-.145-1.593-.086-1.063-.115-1.595-.067-1.061-.089-1.583-.05-1.048-.065-1.558-.051-1.535-.052-2.005-.034-1.944-.022-2.327L1 49.479l.004-.865.012-.878.01-.444.025-.895.053-1.36.022-.458.05-.92.029-.464.063-.93.072-.936.04-.47.085-.94.094-.944.051-.472.108-.944.117-.944.126-.943.135-.94.07-.468.15-.934.159-.928.167-.922.178-.914.187-.906.197-.896q.05-.224.102-.444l.21-.88.222-.866.23-.854.242-.839q.06-.207.124-.413l.256-.815c1.87-5.779 4.519-10.223 8.057-11.532C23.354 8.16 91.054 36.726 91.054 52.602"/><use xlink:href="#k" fill="url(#l)"/><use xlink:href="#k" fill="#000" filter="url(#m)"/><path fill="url(#n)" fill-rule="nonzero" d="m22.352 11.658-.884-.19-.277.862c-1.115 3.467-2.019 7.645-2.727 12.483l-.18 1.278-.171 1.307-.163 1.336q-.08.675-.154 1.366l-.145 1.395-.137 1.425-.065.723-.124 1.467-.116 1.496-.054.759-.103 1.538-.095 1.566-.086 1.595-.078 1.622-.07 1.65-.063 1.676-.054 1.704-.047 1.774-.041 1.802-.033 1.771-.025 1.74-.016 1.71-.005.843-.004 1.663q0 .412.002.82l.01 1.617.017 1.587.013.782.031 1.542.02.76.045 1.496.055 1.466.03.722.07 1.421.038.7.083 1.376.046.678.098 1.332.053.655.113 1.288q.178 1.91.402 3.689l.155 1.17c.48 3.471 1.106 6.55 1.89 9.25l.253.867.888-.162c7.862-1.438 18.32-4.879 28.576-9.506l1.577-.72 1.557-.72 1.531-.717 2.247-1.067 1.464-.706 1.437-.701 1.41-.698 1.381-.693 1.354-.69 1.326-.684 1.298-.68 1.27-.677 1.24-.672.61-.334 1.196-.665 1.168-.66.573-.33 1.124-.654.55-.325 1.079-.647 1.048-.643 1.018-.638.987-.633a86 86 0 0 0 4.057-2.794l.815-.608c6.123-4.641 9.414-8.863 9.414-12.61 0-2.992-2.074-6.38-5.88-10.014l-.556-.52a48 48 0 0 0-1.18-1.052l-.625-.53-.648-.534-.332-.267-.68-.538-.35-.27-.714-.541-.736-.544-.757-.547-.387-.274-.79-.55-.81-.553-.83-.555-.853-.557-.872-.558-.892-.56-.912-.563-.932-.564-.95-.566-.971-.567-.99-.568-1.008-.57-1.027-.57-1.045-.573-1.063-.572-.744-.396-1.505-.787q-1.514-.785-3.06-1.55l-1.552-.763-1.563-.751-.785-.372-1.576-.735-1.582-.722q-.791-.358-1.585-.71l-1.586-.695-1.585-.68q-1.982-.841-3.944-1.63l-1.564-.621a196 196 0 0 0-5.371-2.021l-1.496-.53c-4.952-1.729-9.548-3.079-13.414-3.905m-.209.978c21.85 4.672 68.911 26.73 68.911 39.966 0 3.94-4.324 8.513-11.03 13.236l-.889.616q-.901.618-1.853 1.238l-.964.62-.49.311-.998.622-1.02.621-1.04.622q-.262.156-.528.311l-1.07.622-1.088.621-1.106.621-1.122.62-1.138.618-1.152.617-1.166.615-1.178.614-1.19.611-1.202.61-1.21.606-1.22.603-1.844.9-1.858.891-1.87.883-1.878.874-1.254.577a163 163 0 0 1-7.376 3.158l-1.447.57-1.433.547q-1.785.673-3.518 1.277l-1.376.472q-1.708.576-3.348 1.082l-1.298.393-.64.188-1.26.358c-2.698.75-5.2 1.336-7.433 1.744-1.982-6.816-2.82-16.018-3.056-25.841l-.034-1.643q-.008-.412-.013-.825l-.018-1.656-.009-1.664v-.834l.005-1.67.023-2.51.025-1.674.032-1.67.06-2.5.05-1.696.057-1.685q.015-.42.033-.839l.07-1.668.04-.83.085-1.647.046-.818.099-1.624.053-.806.115-1.598.06-.792.13-1.569.07-.777.146-1.537.157-1.514.169-1.49.089-.736.186-1.451c.705-5.274 1.654-9.998 2.906-13.891"/><path fill="#fff" d="M32.84 33.59c3.743-1.844 35.219 14.575 35.219 18.43 0 3.853-32.22 20.16-35.22 18.41-1.547-.902-2.016-10.137-2.056-19.17-.038-8.474.244-16.778 2.057-17.67"/><path fill="url(#o)" fill-rule="nonzero" d="M32.398 32.693c-.721.355-1.256 1.226-1.648 2.665l-.104.406-.096.435-.09.463-.042.242-.08.507-.074.535-.034.279-.065.58-.06.609-.052.639-.048.67-.043.699-.055 1.106-.03.777-.026.807-.022.84-.025 1.317-.011.918-.012 1.933-.001 1.322.008 1.66.02 1.873.025 1.502.032 1.437.027.92.046 1.327.055 1.26.042.803.046.774.05.743.055.714.059.684.098.97.071.608.077.578.082.548.087.518.092.488.049.232.1.441.107.411c.348 1.253.784 2.044 1.327 2.361.45.262 1.246.285 2.333.098l.42-.08q.217-.045.448-.099l.473-.118.246-.066.51-.146.535-.163.277-.089.57-.19.591-.207.614-.224.315-.118.646-.248.665-.265.685-.28.704-.294.722-.31.739-.324 1.528-.69 1.187-.553 1.22-.581 1.249-.61 1.277-.635 1.303-.66 1.327-.686.87-.456.851-.452.833-.448 1.213-.664 1.168-.653.753-.43.731-.424 1.056-.625.675-.41.653-.404.628-.398.604-.39.292-.194.566-.38.54-.374.515-.367.487-.358.233-.177.446-.347.417-.338q.302-.252.572-.493l.344-.317c1.098-1.042 1.693-1.935 1.693-2.638 0-.822-.808-1.913-2.27-3.2l-.396-.341-.209-.173-.439-.354q-.113-.09-.23-.18l-.481-.364-.25-.186-.523-.377-.27-.191-.561-.388-.587-.394-.302-.2-.944-.61-.658-.413-.682-.42-1.064-.638-.736-.433-.757-.437-1.173-.664-.806-.448-.825-.452-1.27-.684-.87-.46-.888-.464-.888-.457-1.31-.664-1.285-.636-1.255-.607-1.223-.575-1.189-.544-1.152-.511-1.114-.476-.72-.298-.7-.281-.68-.265-.66-.248-.64-.23-.616-.213a38 38 0 0 0-.595-.194l-.57-.176a27 27 0 0 0-.812-.228l-.509-.128-.483-.108-.457-.088c-1.183-.207-2.074-.194-2.612.072m35.66 19.326c0 .848-1.559 2.299-4.023 4.027l-.695.478-.363.244-.756.496-.793.506-.41.257-.844.518-.874.525-.902.53-.926.534-.947.535-.965.536q-.243.135-.489.268l-.987.534-.999.532-1.006.526-1.012.521-1.013.513-1.013.505-1.009.494-1.002.482-.993.468-.98.454-.964.438-.946.42-.924.401-.9.38-.44.182-.858.347q-.421.167-.826.322l-.792.296c-2.834 1.039-4.908 1.527-5.567 1.142-.375-.218-.687-.926-.944-2l-.094-.42-.09-.453-.084-.485-.079-.515-.038-.268-.073-.558-.068-.584-.064-.61-.059-.632-.055-.656-.1-1.372-.063-1.078-.038-.738-.05-1.135-.03-.772-.026-.784-.033-1.192-.034-1.616-.018-1.224-.017-2.077-.003-.82.004-2.013.015-1.575.028-1.539.043-1.493.042-1.084.035-.702.06-1.02.046-.655.052-.634.057-.611.063-.588.069-.562.075-.536.04-.257.084-.493.045-.235.096-.447c.296-1.294.688-2.153 1.206-2.407.786-.387 2.795.03 5.478.969l.785.282.405.15.835.323.428.17.878.358.903.38.46.198.936.411q.473.21.954.43l.97.447.982.463.991.476.5.244 1 .495 1.004.506 1.003.515 1 .523.995.529.985.533.974.537.96.538.942.538.923.537.452.268.887.532.433.265.845.524.813.517.78.508.741.499.356.244.68.48q.33.237.637.467l.59.45c1.694 1.329 2.714 2.43 2.714 3.123"/></g></svg>