<svg xmlns="http://www.w3.org/2000/svg" viewBox="0 0 64 64"><rect width="56" height="56" x="4" y="5" opacity=".2" rx="2.8" ry="2.8"/><rect width="56" height="56" x="4" y="4" fill="#345c6e" rx="2.8" ry="2.8"/><path d="M16 18.857V25l14 8.267L16 41v6.143L22.405 51 48 36.806v-7.358L21.948 15z" opacity=".2"/><path fill="#a1ceea" d="M16 17.857V24l14 8.267L16 40v6.143L22.405 50 48 35.806v-7.358L21.948 14z"/><path fill="#fff" d="M6.8 4C5.25 4 4 5.25 4 6.8v1C4 6.25 5.25 5 6.8 5h50.4C58.75 5 60 6.25 60 7.8v-1C60 5.25 58.75 4 57.2 4z" opacity=".1"/><path fill="#fff" d="M21.947 14 16 17.857v1L21.947 15 48 29.447v-1zm7.178 18.75L16 40v1l14-7.732z" opacity=".2"/></svg>