<svg xmlns="http://www.w3.org/2000/svg" viewBox="0 0 64 64"><path d="M4 52v2c0 1.662 1.338 3 3 3h50c1.662 0 3-1.338 3-3v-2c0 1.662-1.338 3-3 3H7c-1.662 0-3-1.338-3-3" opacity=".2"/><rect width="48" height="56" x="-56" y="-60" fill="#d42c2c" rx="3" ry="3" transform="rotate(90)scale(-1 1)"/><path fill="#fff" d="M7 8c-1.662 0-3 1.338-3 3v1c0-1.662 1.338-3 3-3h50c1.662 0 3 1.338 3 3v-1c0-1.662-1.338-3-3-3z" opacity=".2"/><path d="M6 13v2h22v-2zm0 4v2h16v-2zm0 4v2h12v-2zm0 4v2h10v-2z" opacity=".2"/><path fill="#fff" d="M6 24h10v2H6zm0-12h22v2H6zm0 4h16v2H6zm0 4h12v2H6z"/><path d="M36 37h16v2H36z" opacity=".2"/><path fill="#fff" d="M36 36h16v2H36z"/><path d="M36 41h22v2H36z" opacity=".2"/><path fill="#fff" d="M36 40h22v2H36z"/><path d="M36 45h14v2H36z" opacity=".2"/><path fill="#fff" d="M36 44h14v2H36z"/><path d="M36 49h18v2H36z" opacity=".2"/><path fill="#fff" d="M36 48h18v2H36z"/><path fill="#fff" d="M60 53V32H4v21c0 1.662 1.338 3 3 3h50c1.662 0 3-1.338 3-3" opacity=".1"/><path fill="#fff" d="M60 53V11c0-1.662-1.338-3-3-3H32v48h25c1.662 0 3-1.338 3-3" opacity=".1"/></svg>