<svg xmlns="http://www.w3.org/2000/svg" viewBox="0 0 64 64"><path d="M32 5 4 33l28 28 28-28z" opacity=".2"/><path fill="#00a1fd" d="M32 4 4 32l28 28 28-28z"/><path fill="#fff" d="M32 4 4 32l.5.5L32 5l27.5 27.5.5-.5z" opacity=".1"/><rect width="44" height="44" x="10" y="11" opacity=".2" rx="4" ry="4"/><rect width="44" height="44" x="10" y="10" fill="#47bcff" rx="4" ry="4"/><path d="M22 29v-6h6l4 4 4-4h6v6l-4 4 4 4v6h-6l-4-4-4 4h-6v-6l4-4z" opacity=".2"/><path fill="#fff" d="M22 28v-6h6l4 4 4-4h6v6l-4 4 4 4v6h-6l-4-4-4 4h-6v-6l4-4z"/><path fill="#fff" d="M14 10c-2.216 0-4 1.784-4 4v1c0-2.216 1.784-4 4-4h36c2.216 0 4 1.784 4 4v-1c0-2.216-1.784-4-4-4z" opacity=".2"/></svg>