<svg xmlns="http://www.w3.org/2000/svg" viewBox="0 0 16 16"><path fill="#4e85f4" d="M15.866 9.727a1.4 1.4 0 0 1-.524-.07.9.9 0 0 1-.311-.273l-1.947-2.767 1.245-1.789a1.6 1.6 0 0 1 .429-.383 1.75 1.75 0 0 1 .895-.172V4H13.5v.273a.6.6 0 0 1 .406.129.38.38 0 0 1 .146.285 1 1 0 0 1-.008.105.2.2 0 0 1-.063.105l-1.04 1.516-1.181-1.726-.035-.043-.035-.09a.24.24 0 0 1 .15-.2.8.8 0 0 1 .41-.086V4H9.742v.273h.142a1.8 1.8 0 0 1 .544.063.54.54 0 0 1 .284.219l1.671 2.477-1.459 2.14a1.5 1.5 0 0 1-.374.355 1.67 1.67 0 0 1-.95.2V10h.513a3.4 3.4 0 0 1-.434 1.242 1.69 1.69 0 0 1-1.466.484H7.031a.54.54 0 0 1-.367-.07.5.5 0 0 1-.051-.273V9.031h.764a.98.98 0 0 1 .8.234 1.4 1.4 0 0 1 .173.8h.21V7.727h-.213a1.6 1.6 0 0 1-.146.8.98.98 0 0 1-.824.23h-.764v-2.14a.5.5 0 0 1 .051-.273.54.54 0 0 1 .367-.07h1.111a1.64 1.64 0 0 1 1.336.4A2.9 2.9 0 0 1 9.884 8h.2l-.271-2H5.772l-.137-1.93H.142L0 6.07h.2a3.1 3.1 0 0 1 .367-1.406 1.64 1.64 0 0 1 1.245-.32h.482a.165.165 0 0 1 .185.094 1 1 0 0 1 .028.25v4.625a.4.4 0 0 1-.114.309 1.6 1.6 0 0 1-.792.105h-.419V10h3.342v-.273H4.24a1.6 1.6 0 0 1-.788-.105.4.4 0 0 1-.11-.309V4.688a1 1 0 0 1 .016-.223.2.2 0 0 1 .118-.121h.489a1.64 1.64 0 0 1 1.245.32A2.9 2.9 0 0 1 5.558 6h-.687v.273h.2a1.3 1.3 0 0 1 .615.078.46.46 0 0 1 .087.336v4.625a.46.46 0 0 1-.087.336 1.3 1.3 0 0 1-.615.078h-.2V12h5.147l.305-2h1.508v-.273a.53.53 0 0 1-.437-.156.47.47 0 0 1-.122-.258 1 1 0 0 1 .008-.105.2.2 0 0 1 .062-.108L12.6 7.242l1.387 2.141a.05.05 0 0 0 .035.055l.035.008a.24.24 0 0 1-.146.2.8.8 0 0 1-.406.086V10H16v-.273z" data-iconColor="TeX"/></svg>