<svg xmlns="http://www.w3.org/2000/svg" viewBox="0 0 64 64"><path d="M12.813 5A2.8 2.8 0 0 0 10 7.8v50.4a2.8 2.8 0 0 0 2.813 2.8h39.375A2.8 2.8 0 0 0 55 58.2V22l-14.062-3L38 5Z" opacity=".2"/><path fill="#4f4f4f" d="M12.813 4A2.8 2.8 0 0 0 10 6.8v50.4a2.8 2.8 0 0 0 2.813 2.8h39.375A2.8 2.8 0 0 0 55 57.2V21l-14.062-3L38 4Z"/><path d="M55 22 38 5v14.167A2.827 2.827 0 0 0 40.833 22Z" opacity=".2"/><path fill="#696969" d="M55 21 38 4v14.167A2.827 2.827 0 0 0 40.833 21Z"/><path d="M20 29v25h25L32.541 41.459 45 29H32.541Z" opacity=".2"/><path fill="#bb1be5" d="M20 28v25h25L32.541 40.459 45 28z"/><path fill="#fff" d="M12.813 4A2.8 2.8 0 0 0 10 6.8v1A2.8 2.8 0 0 1 12.813 5H38V4Z" opacity=".1"/></svg>