<svg xmlns="http://www.w3.org/2000/svg" viewBox="0 0 64 64"><path d="M12.75 5C11.226 5 10 6.249 10 7.8v50.4c0 1.55 1.227 2.8 2.75 2.8h38.5c1.522 0 2.75-1.25 2.75-2.8V23l-14-4-4-14Z" opacity=".2"/><path fill="#e4e4e4" d="M12.75 4C11.226 4 10 5.249 10 6.8v50.4c0 1.55 1.227 2.8 2.75 2.8h38.5c1.522 0 2.75-1.25 2.75-2.8V22l-14-4-4-14Z"/><path d="M54 23 36 5v15.188A2.806 2.806 0 0 0 38.813 23Z" opacity=".2"/><path fill="#fafafa" d="M54 22 36 4v15.188A2.806 2.806 0 0 0 38.813 22Z"/><path fill="#fff" d="M12.75 4C11.226 4 10 5.25 10 6.8v1C10 6.25 11.226 5 12.75 5H36V4z" opacity=".2"/><path fill="#8d6e63" d="m28.725 28-.291 3.422a10.306 10.215 0 0 0-3.01 1.724l-3.14-1.464-3.282 5.629 2.853 1.964a10.306 10.215 0 0 0-.158 1.723 10.306 10.215 0 0 0 .15 1.73L19 44.685l3.28 5.63 3.132-1.46a10.306 10.215 0 0 0 3.02 1.714L28.719 54h6.56l.29-3.426a10.306 10.215 0 0 0 3.011-1.726l3.139 1.466L45 44.684l-2.854-1.961a10.306 10.215 0 0 0 .16-1.725 10.306 10.215 0 0 0-.15-1.728L45 37.316l-3.28-5.629-3.132 1.461a10.306 10.215 0 0 0-3.02-1.716L35.281 28zM32 36a5 5 0 0 1 5 5 5 5 0 0 1-5 5 5 5 0 0 1-5-5 5 5 0 0 1 5-5"/></svg>