<svg xmlns="http://www.w3.org/2000/svg" viewBox="0 0 64 64"><path d="M12.75 5C11.226 5 10 6.249 10 7.8v50.4c0 1.55 1.226 2.8 2.75 2.8h38.5c1.522 0 2.75-1.25 2.75-2.8V23l-14-4-4-14z" opacity=".2"/><path fill="#e4e4e4" d="M12.75 4C11.226 4 10 5.249 10 6.8v50.4c0 1.55 1.226 2.8 2.75 2.8h38.5c1.522 0 2.75-1.25 2.75-2.8V22l-14-4-4-14z"/><path d="M54 23 36 5v15.188A2.806 2.806 0 0 0 38.812 23z" opacity=".2"/><path fill="#fafafa" d="M54 22 36 4v15.188A2.806 2.806 0 0 0 38.812 22z"/><path fill="#fff" d="M12.75 4C11.226 4 10 5.25 10 6.801v1C10 6.25 11.226 5 12.75 5H36V4Z" opacity=".2"/><path fill="#b9534f" d="M39.146 35.088c1.266.387.157 2.198 1.975 3.084 2.073 1.01 3.103-1.548 4.35.282 1.247 1.824-1.72 1.542-1.64 3.688.085 2.145 3.024 1.693 1.922 3.589-1.102 1.89-2.33-.597-4.317.538-1.995 1.135-.086 3.235-2.435 3.307s-.603-2.132-2.684-3.15c-2.073-1.01-3.103 1.549-4.35-.275-1.247-1.83 1.72-1.542 1.64-3.694-.085-2.146-3.024-1.693-1.922-3.583 1.102-1.896 2.33.59 4.318-.544 1.994-1.136.085-3.235 2.434-3.307.295-.007.525.006.709.065m-.027 5.466c-1.043-.204-2.073.413-2.296 1.378-.223.958.446 1.91 1.496 2.113 1.043.203 2.073-.407 2.296-1.372.223-.964-.446-1.916-1.496-2.12m0 0"/><path fill="#b9534f" d="M29.067 26.063c1.266.387.157 2.198 1.975 3.083 2.073 1.017 3.104-1.541 4.35.283 1.247 1.823-1.719 1.541-1.64 3.693.085 2.146 3.025 1.686 1.922 3.582s-2.329-.59-4.317.545c-1.995 1.135-.085 3.234-2.434 3.307-2.35.065-.604-2.133-2.684-3.15-2.073-1.01-3.104 1.542-4.35-.282-1.247-1.824 1.719-1.541 1.64-3.687-.085-2.145-3.025-1.692-1.922-3.589 1.102-1.896 2.329.591 4.317-.544 1.995-1.135.085-3.234 2.434-3.3a2.3 2.3 0 0 1 .709.059m-.026 5.472c-1.044-.21-2.074.406-2.297 1.37s.446 1.917 1.496 2.12c1.044.203 2.074-.413 2.297-1.378s-.446-1.909-1.496-2.112m0 0" opacity=".8"/><path fill="#b9534f" d="M25.707 38.51c1.267.387.158 2.198 1.976 3.084 2.073 1.01 3.103-1.548 4.35.282 1.247 1.824-1.72 1.542-1.64 3.688.085 2.145 3.024 1.693 1.922 3.589-1.102 1.89-2.33-.597-4.318.538-1.994 1.135-.085 3.235-2.434 3.307s-.604-2.132-2.684-3.15c-2.073-1.01-3.103 1.549-4.35-.275-1.247-1.83 1.72-1.542 1.64-3.694-.085-2.146-3.024-1.693-1.922-3.583 1.102-1.896 2.33.59 4.318-.544 1.994-1.136.085-3.235 2.434-3.307.295-.007.525.006.708.065m-.026 5.466c-1.043-.204-2.073.413-2.296 1.378-.223.958.446 1.91 1.496 2.113 1.043.203 2.073-.407 2.296-1.372.223-.964-.446-1.916-1.496-2.12m0 0" opacity=".55"/></svg>