<svg xmlns="http://www.w3.org/2000/svg" viewBox="0 0 16 16"><path fill="#f13e70" d="M2 4.857A5.2 5.2 0 0 1 3.542 4.2V2.676a4 4 0 0 1 .758-.329A8 8 0 0 1 5.658 2h.657v2.388h2.539v1.22H6.315v4.841a3.1 3.1 0 0 0 .3 1.607 1.1 1.1 0 0 0 .985.444 8 8 0 0 0 .778-.048 3.5 3.5 0 0 0 .8-.18l.135.619a2.4 2.4 0 0 1-.508.355 6 6 0 0 1-.769.356 6 6 0 0 1-.944.281A5 5 0 0 1 6.027 14a2.47 2.47 0 0 1-1.865-.636 2.9 2.9 0 0 1-.616-2.059V5.6H2zm8.733 7.593a1.43 1.43 0 0 1 .44-1.088 1.65 1.65 0 0 1 1.173-.413 1.7 1.7 0 0 1 1.191.413A1.4 1.4 0 0 1 14 12.451a1.35 1.35 0 0 1-.463 1.08 1.76 1.76 0 0 1-1.191.4 1.67 1.67 0 0 1-1.173-.4 1.4 1.4 0 0 1-.44-1.08Z" data-iconColor="Textile"/></svg>