<svg xmlns="http://www.w3.org/2000/svg" viewBox="0 0 64 64"><path d="M12.75 5C11.227 5 10 6.249 10 7.8v50.4c0 1.55 1.227 2.8 2.75 2.8h38.5c1.522 0 2.75-1.25 2.75-2.8V23l-14-4-4-14Z" opacity=".2"/><path fill="#14a177" d="M12.75 4C11.226 4 10 5.249 10 6.8v50.4c0 1.55 1.227 2.8 2.75 2.8h38.5c1.522 0 2.75-1.25 2.75-2.8V22l-14-4-4-14Z"/><path d="M54 23 36 5v15.188A2.806 2.806 0 0 0 38.813 23Z" opacity=".2"/><path fill="#37b58e" d="M54 22 36 4v15.188A2.806 2.806 0 0 0 38.813 22Z"/><path fill="#fff" d="M12.75 4C11.226 4 10 5.25 10 6.8v1C10 6.25 11.226 5 12.75 5H36V4z" opacity=".1"/><path d="M42.761 30a5 5 0 0 0-3.55 1.394.52.52 0 0 0-.156.356.52.52 0 0 0 .143.357l.633.67c.17.173.44.19.633.044a2.83 2.83 0 0 1 1.74-.591 2.9 2.9 0 0 1 2.695 1.827 3.02 3.02 0 0 1-.633 3.242c-4.028 4.114-9.405-7.414-21.607-1.484-.42.2-.737.57-.877 1.02-.14.452-.092.943.138 1.355l2.09 2.992c.455.8 1.19 1.08 1.98.63l.05-.028-.04.029.927-.532c1.034-.655 2.311-1.4 3.22-2.226.569-.369 1.07.416.69.755-.957.868-2.287 1.65-3.378 2.333h-.029l-.927.526a2.55 2.55 0 0 1-1.287.344c-.947 0-1.557-.512-2.036-1.346l-1.977-2.79c-3.798 2.74-6.105 8.02-4.867 14.719.045.23.244.398.474.401h1.986c.487.046.447-.445.538-.667a3.333 3.333 0 0 1 6.659-.203c.037.145.077.289.096.44.032.247.236.43.48.43h2.194a.483.483 0 0 0 .477-.43c.02-.158.061-.308.102-.458A3.333 3.333 0 0 1 36 53.33c0 .667.4.667.4.667h2.037a.49.49 0 0 0 .482-.484c.052-3.122.874-6.707 3.224-8.504 8.14-6.22 6.002-11.554 4.117-13.49a5 5 0 0 0-3.5-1.518m-4.592 8.98a.98.98 0 0 1 .763.58c.19.429.06.935-.312 1.213v-.005l-1.552-.797a.99.99 0 0 1 .768-.976 1 1 0 0 1 .333-.016z" opacity=".2"/><path fill="#fff" d="M42.761 29a5 5 0 0 0-3.55 1.394.52.52 0 0 0-.156.356.52.52 0 0 0 .143.357l.633.67c.17.173.44.19.633.044a2.83 2.83 0 0 1 1.74-.591 2.9 2.9 0 0 1 2.695 1.827 3.02 3.02 0 0 1-.633 3.242c-4.028 4.114-9.405-7.414-21.607-1.484-.42.2-.737.57-.877 1.02-.14.452-.092.943.138 1.355l2.09 2.992c.455.8 1.19 1.08 1.98.63l.05-.028-.04.029.927-.532c1.034-.655 2.311-1.4 3.22-2.226.569-.369 1.07.416.69.755-.957.868-2.287 1.65-3.378 2.333h-.029l-.927.526a2.55 2.55 0 0 1-1.287.344c-.947 0-1.557-.512-2.036-1.346l-1.977-2.79c-3.798 2.74-6.105 8.02-4.867 14.719.045.23.244.398.474.401h1.986c.487.046.447-.445.538-.667a3.333 3.333 0 0 1 6.659-.203c.037.145.077.289.096.44.032.247.236.43.48.43h2.194a.483.483 0 0 0 .477-.43c.02-.158.061-.308.102-.458A3.333 3.333 0 0 1 36 52.33c0 .667.4.667.4.667h2.037a.49.49 0 0 0 .482-.484c.052-3.122.874-6.707 3.224-8.504 8.14-6.22 6.002-11.554 4.117-13.49a5 5 0 0 0-3.5-1.518m-4.592 8.98a.98.98 0 0 1 .763.58c.19.429.06.935-.312 1.213v-.005l-1.552-.797a.99.99 0 0 1 .768-.976 1 1 0 0 1 .333-.016z"/></svg>