<svg xmlns="http://www.w3.org/2000/svg" viewBox="0 0 64 64"><path d="M12.75 5C11.226 5 10 6.249 10 7.8v50.4c0 1.55 1.227 2.8 2.75 2.8h38.5c1.522 0 2.75-1.25 2.75-2.8V23l-14-4-4-14Z" opacity=".2"/><path fill="#e4e4e4" d="M12.75 4C11.226 4 10 5.249 10 6.8v50.4c0 1.55 1.227 2.8 2.75 2.8h38.5c1.522 0 2.75-1.25 2.75-2.8V22l-14-4-4-14Z"/><path d="M54 23 36 5v15.188A2.806 2.806 0 0 0 38.813 23Z" opacity=".2"/><path fill="#fafafa" d="M54 22 36 4v15.188A2.806 2.806 0 0 0 38.813 22Z"/><path fill="#fff" d="M12.75 4C11.226 4 10 5.25 10 6.8v1C10 6.25 11.226 5 12.75 5H36V4z" opacity=".2"/><path d="M22.714 31C20.657 31 19 32.635 19 34.667v14.666C19 51.365 20.657 53 22.714 53h18.572C43.343 53 45 51.365 45 49.333V31h-3.714l1.857 3.367L41.286 38H37.57l1.858-3.633L37.57 31h-3.714l1.857 3.367L33.857 38h-3.714L32 34.367 30.143 31h-3.714l1.857 3.367L26.429 38h-3.715l1.857-3.633Z" opacity=".1"/><path fill="#813d9c" d="M22.714 30C20.657 30 19 31.635 19 33.667v14.666C19 50.365 20.657 52 22.714 52h18.572C43.343 52 45 50.365 45 48.333V30h-3.714l1.857 3.367L41.286 37H37.57l1.858-3.633L37.57 30h-3.714l1.857 3.367L33.857 37h-3.714L32 33.367 30.143 30h-3.714l1.857 3.367L26.429 37h-3.715l1.857-3.633Z"/></svg>