<svg xmlns="http://www.w3.org/2000/svg" viewBox="0 0 64 64"><circle cx="32" cy="33" r="28" opacity=".2"/><circle cx="32" cy="32" r="28" fill="#e4e4e4"/><ellipse cx="-3.309" cy="46.614" opacity=".1" rx="22.264" ry="10.832" transform="matrix(.6693 -.743 .75545 .6552 0 0)"/><ellipse cx="-2.553" cy="45.944" fill="#ffb61f" rx="22.264" ry="10.832" transform="matrix(.6693 -.743 .75545 .6552 0 0)"/><path fill="#3f3f3f" d="M30.999 24v4h3v3h-3v3.562c0 1.016.204 1.668.486 1.957.29.29.474.435 1.351.435H34v3.045h-2.162c-1.626 0-2.148-.293-2.767-.88-.617-.592-1.07-1.666-1.07-3.226v-4.894h-2.003v-3H28v-4z"/><circle cx="19" cy="18" r="3" opacity=".1"/><circle cx="19" cy="17" r="3" fill="#ff2e2e"/><path d="M47.058 41.424c.543 1.06.859 1.981.93 2.806.07.826-.146 1.611-.71 2.119-.562.507-1.348.681-2.24.646s-1.933-.276-3.145-.715c-4.846-1.755-11.556-6.364-17.188-11.723-2.817-2.68-5.074-5.276-6.586-7.53s-2.377-3.146-2.05-4.71a.7.7 0 1 1 1.371.285c-.152.73.412 1.514 1.841 3.645s3.629 4.673 6.388 7.298c5.518 5.25 12.213 9.792 16.702 11.418 1.123.406 2.047.607 2.723.633s1.058-.117 1.246-.286.298-.416.252-.96c-.047-.544-.292-1.328-.783-2.286a.7.7 0 0 1 .305-.942.7.7 0 0 1 .944.302" opacity=".1"/><path fill="#ff2e2e" d="M47.058 40.424c.543 1.06.859 1.981.93 2.806.07.826-.146 1.611-.71 2.119-.562.507-1.348.681-2.24.646s-1.933-.276-3.145-.715c-4.846-1.755-11.556-6.364-17.188-11.723-2.817-2.68-5.074-5.276-6.586-7.53s-2.377-3.146-2.05-4.71a.7.7 0 1 1 1.371.285c-.152.73.412 1.514 1.841 3.645s3.629 4.673 6.388 7.298c5.518 5.25 12.213 9.792 16.702 11.418 1.123.406 2.047.607 2.723.633s1.058-.117 1.246-.286.298-.416.252-.96c-.047-.544-.292-1.328-.783-2.286a.7.7 0 0 1 .305-.942.7.7 0 0 1 .944.302"/><path fill="#fff" d="M32 4A28 28 0 0 0 4 32a28 28 0 0 0 .033.482A28 28 0 0 1 32 5a28 28 0 0 1 27.982 27.242L60 32A28 28 0 0 0 32 4" opacity=".2"/></svg>