<svg xmlns="http://www.w3.org/2000/svg" viewBox="0 0 64 64"><path d="M12.75 5C11.226 5 10 6.249 10 7.8v50.4c0 1.55 1.227 2.8 2.75 2.8h38.5c1.522 0 2.75-1.25 2.75-2.8V23l-14-4-4-14Z" opacity=".2"/><path fill="#be0539" d="M12.75 4C11.226 4 10 5.249 10 6.8v50.4c0 1.55 1.227 2.8 2.75 2.8h38.5c1.522 0 2.75-1.25 2.75-2.8V22l-14-4-4-14Z"/><path d="M54 23 36 5v15.188A2.806 2.806 0 0 0 38.813 23Z" opacity=".2"/><path fill="#d33b64" d="M54 22 36 4v15.188A2.806 2.806 0 0 0 38.813 22Z"/><path fill="#fff" d="M12.75 4C11.226 4 10 5.25 10 6.8v1C10 6.25 11.226 5 12.75 5H36V4z" opacity=".1"/><path d="M32.488 28q-4.34 0-7.64 1.71a12.5 12.5 0 0 0-5.075 4.888Q18 37.77 18 42.203q-.002 4.483 1.953 7.606c1.345 2.048 3.203 3.588 5.567 4.629q3.607 1.561 8.253 1.562c9.201-.024 12.782-6.95 12.782-6.95l-4.97-2.616s-1.57 5.393-7.694 5.566c-6.125.173-6.09-10-6.09-10H46v-1.812q-.001-3.676-1.652-6.395-1.589-2.77-4.645-4.281Q36.708 28 32.488 28m-.297 6q1.964 0 2.871 1.125.909 1.098.938 2.875h-8q.206-1.882 1.262-2.926 1.084-1.072 2.93-1.074" opacity=".2"/><path fill="#fff" d="M32.488 27q-4.34 0-7.64 1.71a12.5 12.5 0 0 0-5.075 4.888Q18 36.77 18 41.203q-.002 4.483 1.953 7.606c1.345 2.048 3.203 3.588 5.567 4.629q3.607 1.561 8.253 1.562c9.201-.024 12.782-6.95 12.782-6.95l-4.97-2.616s-1.57 5.393-7.694 5.566c-6.125.173-6.09-10-6.09-10H46v-1.812q-.001-3.676-1.652-6.395-1.589-2.77-4.645-4.281Q36.708 27 32.488 27m-.297 6q1.964 0 2.871 1.125.909 1.098.938 2.875h-8q.206-1.882 1.262-2.926 1.084-1.072 2.93-1.074"/></svg>