<svg xmlns="http://www.w3.org/2000/svg" viewBox="0 0 64 64"><path d="M12.75 5C11.226 5 10 6.249 10 7.8v50.4c0 1.55 1.227 2.8 2.75 2.8h38.5c1.522 0 2.75-1.25 2.75-2.8V23l-14-4-4-14Z" opacity=".2"/><path fill="#e4e4e4" d="M12.75 4C11.226 4 10 5.249 10 6.8v50.4c0 1.55 1.227 2.8 2.75 2.8h38.5c1.522 0 2.75-1.25 2.75-2.8V22l-14-4-4-14Z"/><path d="M54 23 36 5v15.188A2.806 2.806 0 0 0 38.813 23Z" opacity=".2"/><path fill="#fafafa" d="M54 22 36 4v15.188A2.806 2.806 0 0 0 38.813 22Z"/><path fill="#fff" d="M12.75 4C11.226 4 10 5.25 10 6.8v1C10 6.25 11.226 5 12.75 5H36V4z" opacity=".2"/><path fill="#0c49a0" d="M36.078 28.604s-2.212 3.837-3.774 5.367c-.96.94-2.12 1.7-3.347 2.249-2.586 1.156-8.238 2.096-8.238 2.096l1.452 1.983-1.613 4.399s5.072.64 7.514 1.358c1.233.362 2.496.756 3.561 1.477 1.832 1.238 4.637 4.741 4.637 4.741l1.115-2.232 3.943-.249s-1.457-4.897-1.785-7.42c-.165-1.276-.317-2.594-.087-3.86.394-2.174 2.47-6.152 2.47-6.152l-3.803-.187zm-1.18 6.696c.202.021.332.064.393.09q.235.181.49.334.487.291.995.459c.397.424 1.127 1.626 1.203 4.79.077 3.186-.756 4.414-1.211 4.848a5.3 5.3 0 0 0-1.301.942c-.433.172-1.665.362-4.264-1.202-2.814-1.696-3.231-3.114-3.292-3.54a6.6 6.6 0 0 0-.066-1.533l.018.032s-.23-1.38 2.99-3.624c2.162-1.506 3.439-1.658 4.045-1.596"/><path d="M39 28a5 5 0 0 0-5 5 5 5 0 0 0 5 5 5 5 0 0 0 5-5 5 5 0 0 0-5-5M23 38a5 5 0 0 0-5 5 5 5 0 0 0 5 5 5 5 0 0 0 5-5 5 5 0 0 0-5-5m16 8a5 5 0 0 0-5 5 5 5 0 0 0 5 5 5 5 0 0 0 5-5 5 5 0 0 0-5-5" opacity=".1"/><circle cx="23" cy="42" r="5" fill="#246dd4"/><circle cx="39" cy="32" r="5" fill="#246dd4"/><circle cx="39" cy="50" r="5" fill="#246dd4"/></svg>