<svg xmlns="http://www.w3.org/2000/svg" viewBox="0 0 64 64"><path d="M12.75 5C11.226 5 10 6.249 10 7.8v50.4c0 1.55 1.227 2.8 2.75 2.8h38.5c1.522 0 2.75-1.25 2.75-2.8V23l-14-4-4-14Z" opacity=".2"/><path fill="#2196f3" d="M12.75 4C11.226 4 10 5.249 10 6.8v50.4c0 1.55 1.227 2.8 2.75 2.8h38.5c1.522 0 2.75-1.25 2.75-2.8V22l-14-4-4-14Z"/><path d="M54 23 36 5v15.188A2.806 2.806 0 0 0 38.813 23Z" opacity=".2"/><path fill="#60b3f5" d="M54 22 36 4v15.188A2.806 2.806 0 0 0 38.813 22Z"/><path fill="#fff" d="M12.75 4C11.226 4 10 5.25 10 6.8v1C10 6.25 11.226 5 12.75 5H36V4z" opacity=".2"/><path d="M31.973 28A14 14 0 0 0 18 42a14 14 0 0 0 14 14 14 14 0 0 0 14-14 14 14 0 0 0-14-14zm.18 6.004c.843.024 1.657.264 2.284.687.832.562 1.35 1.405 1.56 2.543.068.373.075 1.279.015 1.72-.17 1.237-.559 2.376-1.356 3.964-.325.648-.392.864-.367 1.207q.028.414.36.73c.424.406 1.127.679 2.652 1.04 1.165.275 1.275.31 1.66.496.447.215.73.479.906.84.183.374.185.345-.062.671a10.5 10.5 0 0 1-1.797 1.832l-.344.266H26.281l-.34-.266c-.625-.488-1.383-1.26-1.812-1.847-.177-.242-.174-.29.016-.664.16-.317.468-.615.824-.797.344-.177.719-.29 1.691-.516 2.3-.535 3.083-1.016 3.078-1.89-.002-.308-.071-.51-.453-1.258-.908-1.782-1.295-3.06-1.336-4.43-.029-.967.09-1.57.453-2.297.556-1.11 1.548-1.787 2.903-1.984q.424-.06.847-.047" opacity=".2"/><path fill="#fff" d="M31.973 27A14 14 0 0 0 18 41a14 14 0 0 0 14 14 14 14 0 0 0 14-14 14 14 0 0 0-14-14zm.18 6.004c.843.024 1.657.264 2.284.687.832.562 1.35 1.405 1.56 2.543.068.373.075 1.279.015 1.72-.17 1.237-.559 2.376-1.356 3.964-.325.648-.392.864-.367 1.207q.028.414.36.73c.424.406 1.127.679 2.652 1.04 1.165.275 1.275.31 1.66.496.447.215.73.479.906.84.183.374.185.345-.062.671a10.5 10.5 0 0 1-1.797 1.832l-.344.266H26.281l-.34-.266c-.625-.488-1.383-1.26-1.812-1.847-.177-.242-.174-.29.016-.664.16-.317.468-.615.824-.797.344-.177.719-.29 1.691-.516 2.3-.535 3.083-1.016 3.078-1.89-.002-.308-.071-.51-.453-1.258-.908-1.782-1.295-3.06-1.336-4.43-.029-.967.09-1.57.453-2.297.556-1.11 1.548-1.787 2.903-1.984q.424-.06.847-.047"/></svg>