<svg xmlns="http://www.w3.org/2000/svg" viewBox="0 0 64 64"><path d="M12.75 5C11.227 5 10 6.249 10 7.8v50.4c0 1.551 1.227 2.8 2.75 2.8h38.5c1.524 0 2.75-1.249 2.75-2.8V21l-13.75-2L38 5z" opacity=".2"/><path fill="#e4e4e4" d="M12.75 4C11.227 4 10 5.249 10 6.8v50.4c0 1.551 1.227 2.8 2.75 2.8h38.5c1.524 0 2.75-1.249 2.75-2.8V20l-13.75-2L38 4z"/><path d="M54 21 38 5v13.333A2.66 2.66 0 0 0 40.667 21Z" opacity=".2"/><path fill="#fafafa" d="M54 20 38 4v13.333A2.66 2.66 0 0 0 40.667 20Z"/><path fill="#fff" d="M12.75 4C11.226 4 10 5.25 10 6.8v1C10 6.25 11.226 5 12.75 5H38V4Z" opacity=".2"/><circle cx="32" cy="40" r="15" fill="#404040"/><path fill="#e4e4e4" d="m22.284 30.63 19.41 18.763.012-.01a13.5 13.5 0 0 0-.323-19.09 13.5 13.5 0 0 0-19.09.324z"/><circle cx="27.14" cy="35.302" r="6.75" fill="#404040"/><circle cx="36.853" cy="44.691" r="6.75" fill="#e4e4e4"/><path fill="#404040" d="M34.387 31.276c.862 1.116 1.871 3.249 2.057 3.888.252.871.407 1.908.179 2.975-.215 1.003-1.156 3.184-1.861 4.68a67 67 0 0 1-1.802 3.457h2.517c.36-.602.91-1.77 1.336-2.61.652-1.32 1.208-2.61 1.848-3.894.035-.07.443.812.932 2.077a100 100 0 0 1 1.33 3.724l.22.703h2.335c-.059-.197-.094-.326-.214-.703-.764-2.393-2.538-6.288-3.36-8.094-1.124-2.59-1.74-3.708-3.05-6.203z"/><path fill="#e4e4e4" d="M29.61 48.732c-.862-1.116-1.872-3.248-2.057-3.888-.253-.871-.407-1.908-.18-2.975.215-1.003 1.157-3.184 1.862-4.68.42-.892 1.44-2.839 1.802-3.457H28.52c-.36.602-.91 1.77-1.336 2.61-.653 1.32-1.01 2.63-1.65 3.914-.035.07-.61-.952-1.116-2.21-.372-.922-1.145-2.975-1.344-3.61l-.22-.704h-2.335c.059.197.094.326.214.703.764 2.393 2.538 6.288 3.36 8.094 1.124 2.59 1.74 3.708 3.05 6.203z"/></svg>