<svg xmlns="http://www.w3.org/2000/svg" xmlns:xlink="http://www.w3.org/1999/xlink" viewBox="0 0 128 128"><defs><filter id="c" width="108.3%" height="106.7%" x="-4.2%" y="-2.4%" filterUnits="objectBoundingBox"><feOffset dy="1" in="SourceAlpha" result="shadowOffsetOuter1"/><feGaussianBlur in="shadowOffsetOuter1" result="shadowBlurOuter1" stdDeviation="1"/><feColorMatrix in="shadowBlurOuter1" values="0 0 0 0 0 0 0 0 0 0 0 0 0 0 0 0 0 0 0.2 0"/></filter><path id="a" d="M1 1h84v104H1z"/></defs><g fill="none" fill-rule="evenodd"><g transform="translate(21 11)"><use xlink:href="#a" fill="#000" filter="url(#c)"/><use xlink:href="#a" fill="#f9fbfb"/><path fill="#000" fill-opacity=".2" fill-rule="nonzero" d="M86 0H0v106h86zm-1 1v104H1V1z"/></g><path fill="#2a4052" fill-opacity=".4" stroke="#3e6f84" stroke-width=".5" d="M63.75 93.25v1.5h-27.5v-1.5zm4 0v1.5h-1.5v-1.5zm24-10v1.5h-55.5v-1.5zm0-10v1.5h-55.5v-1.5zm0-10v1.5h-55.5v-1.5zm0-10v1.5h-55.5v-1.5zm0-10v1.5h-55.5v-1.5zm-20-10v1.5h-35.5v-1.5z"/></g></svg>