<svg xmlns="http://www.w3.org/2000/svg" xmlns:xlink="http://www.w3.org/1999/xlink" viewBox="0 0 128 128"><defs><filter id="c" width="109.5%" height="107.7%" x="-4.8%" y="-1.9%" filterUnits="objectBoundingBox"><feOffset dy="2" in="SourceAlpha" result="shadowOffsetOuter1"/><feGaussianBlur in="shadowOffsetOuter1" result="shadowBlurOuter1" stdDeviation="1"/><feColorMatrix in="shadowBlurOuter1" values="0 0 0 0 0 0 0 0 0 0 0 0 0 0 0 0 0 0 0.2 0"/></filter><path id="a" d="M0 0h84v104H0z"/></defs><g fill="none" fill-rule="evenodd"><g transform="translate(22 12)"><use xlink:href="#a" fill="#000" filter="url(#c)"/><use xlink:href="#a" fill="#f9fbfb"/><path fill="#000" fill-opacity=".2" fill-rule="nonzero" d="M86-2H-2v108h88zm-2 2v104H0V0z"/></g><path fill="#d96464" stroke="#823c3c" d="m76.053 38.5 1.78 11.47h-1.017q-1.233-2.924-3.41-5.462c-1.6-1.887-2.652-2.72-3.974-2.998-.172-.035-1.869-.057-4.153-.059h-1.4c-.968 0-2 .003-3.034.006l-.775.003a2909 2909 0 0 0-8.984.046l16.52 21.325L49.934 84.5H72c2.922 0 4.707-.38 5.38-1.175.484-.567.843-1.309 1.194-2.051.146-.31.292-.618.449-.91a30 30 0 0 0 1.115-2.288l.964.303L78.196 89.5H44.5l19.38-23.913-19.38-25.09V38.5z"/></g></svg>