<svg xmlns="http://www.w3.org/2000/svg" xmlns:xlink="http://www.w3.org/1999/xlink" viewBox="0 0 128 128"><defs><linearGradient id="d" x1="50%" x2="50%" y1="0%" y2="99.203%"><stop offset="0%" stop-color="#a2a7b0"/><stop offset="98.472%" stop-color="#7b8991"/></linearGradient><linearGradient id="g" x1="50%" x2="7.994%" y1="50%" y2="88.893%"><stop offset="0%" stop-color="#fff" stop-opacity=".1"/><stop offset="100%" stop-color="#fff" stop-opacity=".3"/></linearGradient><filter id="c" width="125%" height="120.2%" x="-12.5%" y="-8.3%" filterUnits="objectBoundingBox"><feOffset dy="2" in="SourceAlpha" result="shadowOffsetOuter1"/><feGaussianBlur in="shadowOffsetOuter1" result="shadowBlurOuter1" stdDeviation="3.5"/><feColorMatrix in="shadowBlurOuter1" values="0 0 0 0 0.361595344 0 0 0 0 0.418797512 0 0 0 0 0.450973732 0 0 0 0.5 0"/></filter><filter id="f" width="124.6%" height="124.6%" x="-12.3%" y="-8.8%" filterUnits="objectBoundingBox"><feOffset dy="1" in="SourceAlpha" result="shadowOffsetOuter1"/><feGaussianBlur in="shadowOffsetOuter1" result="shadowBlurOuter1" stdDeviation="1"/><feComposite in="shadowBlurOuter1" in2="SourceAlpha" operator="out" result="shadowBlurOuter1"/><feColorMatrix in="shadowBlurOuter1" values="0 0 0 0 0 0 0 0 0 0 0 0 0 0 0 0 0 0 0.05 0"/></filter><path id="a" d="M92 105a9 9 0 0 1-9 9H9a9 9 0 0 1-9-9V9a9 9 0 0 1 9-9h54.5L92 28.5z"/><path id="e" d="M63.5 0 92 28.5H72.5a9 9 0 0 1-9-9z"/></defs><g fill="none" fill-rule="evenodd"><g transform="translate(18 7)"><use xlink:href="#a" fill="#000" filter="url(#c)"/><use xlink:href="#a" fill="url(#d)"/></g><g transform="translate(18 7)"><use xlink:href="#e" fill="#000" filter="url(#f)"/><use xlink:href="#e" fill="url(#g)"/></g><path fill="#fff" d="M64 48.05c6.738 0 12.2 5.462 12.2 12.2 0 4.436-2.368 8.32-5.908 10.455C78.256 72.569 84.2 78.1 84.2 86.793 84.2 87.46 83.663 88 83 88H45c-.663 0-1.2-.54-1.2-1.207 0-8.675 5.97-14.213 13.916-16.085A12.19 12.19 0 0 1 51.8 60.25c0-6.738 5.462-12.2 12.2-12.2m.786 24.374-.177.011a12 12 0 0 1-1.39-.01c-8.93.253-16.343 4.862-16.975 13.202h12.5l.513-.001h4.21l.532-.001h2.655l.526-.001h2.075l.51-.001 1.985-.001h1.423l.46-.001h1.33l.424-.001h.82l.394-.001h.754l.36-.001h.682l.922-.002h.543a180 180 0 0 0 1.893-.008c-.637-8.344-8.006-12.931-16.969-13.184M64 50.45c-5.412 0-9.8 4.388-9.8 9.8 0 5.125 3.933 9.33 8.946 9.763a27 27 0 0 1 1.71 0c5.011-.433 8.944-4.639 8.944-9.763 0-5.412-4.388-9.8-9.8-9.8"/></g></svg>