<svg xmlns="http://www.w3.org/2000/svg" viewBox="0 0 64 64"><path d="M12.75 5C11.226 5 10 6.249 10 7.8v50.4c0 1.55 1.227 2.8 2.75 2.8h38.5c1.522 0 2.75-1.25 2.75-2.8V23l-14-4-4-14Z" opacity=".2"/><path fill="#2684b5" d="M12.75 4C11.226 4 10 5.249 10 6.8v50.4c0 1.55 1.227 2.8 2.75 2.8h38.5c1.522 0 2.75-1.25 2.75-2.8V22l-14-4-4-14Z"/><path d="M54 23 36 5v15.188A2.806 2.806 0 0 0 38.813 23Z" opacity=".2"/><path fill="#549cc2" d="M54 22 36 4v15.188A2.806 2.806 0 0 0 38.813 22Z"/><path fill="#fff" d="M12.75 4C11.226 4 10 5.25 10 6.8v1C10 6.25 11.226 5 12.75 5H36V4z" opacity=".1"/><path d="M39.216 29c-1.88.43-4.548 1.077-6.603 1.42l1.661 1.938zm2.362.13 1.224 4.692 3.41-1.507zm-.744.3-2.755 6.415 3.936-1.722zm-.919.087L34.8 33.004l2.406 2.84zm-7.958 1.377-3.106 5.252 4.767-3.272zm14.343 2.24-3.323 1.462 1.268 4.95zm-12.157.343-5.073 3.487 7.434-.689zm8.09 1.42-4.067 1.766 5.38 3.4zm-6.34 2.153-7.61.689 2.099 3.185zm2.098.344 1.356 5.295 4.023-1.894zm-1.574.259-5.598 3.917 2.362 3.572.088-.171v.043zm.831.129-3.193 7.404 4.549-2.152zm-9.62.387-4.767 8.05 6.865-4.821zm16.005 3.358-4.111 1.937 1.574 6.07zm-13.47.516-6.997 4.95 9.402-1.29Zm8.66 1.765-4.724 2.239 6.297 3.874zm-6.998 2.712-9.489 1.292 2.668 3.701zm2.23.301 2.012 6.07 4.33-2.153zm-.786.215L29.945 55h1.924l3.498-1.765zm-.875.043-6.91 5.08L27.496 55h1.443zM21.68 48.242 17.7 55h2.537l4.11-3.013zm18.804 3.314-4.154 2.11.437 1.334h2.668zm-15.656 1.076L21.592 55h4.942zm10.758 1.378-1.968.99h2.318z" opacity=".2"/><path fill="#fff" d="M39.216 28c-1.88.43-4.548 1.077-6.603 1.42l1.661 1.938zm2.362.13 1.224 4.692 3.41-1.507zm-.744.3-2.755 6.415 3.936-1.722zm-.919.087L34.8 32.004l2.406 2.84zm-7.958 1.377-3.106 5.252 4.767-3.272zm14.343 2.24-3.323 1.462 1.268 4.95zm-12.157.343-5.073 3.487 7.434-.689zm8.09 1.42-4.067 1.766 5.38 3.4zm-6.34 2.153-7.61.689 2.099 3.185zm2.098.344 1.356 5.295 4.023-1.894zm-1.574.259-5.598 3.917 2.362 3.572.088-.171v.043zm.831.129-3.193 7.404 4.549-2.152zm-9.62.387-4.767 8.05 6.865-4.821zm16.005 3.358-4.111 1.937 1.574 6.07zm-13.47.516-6.997 4.95 9.402-1.29Zm8.66 1.765-4.724 2.239 6.297 3.874zm-6.998 2.712-9.489 1.292 2.668 3.701zm2.23.301 2.012 6.07 4.33-2.153zm-.786.215L29.945 54h1.924l3.498-1.765zm-.875.043-6.91 5.08L27.496 54h1.443zM21.68 47.242 17.7 54h2.537l4.11-3.013zm18.804 3.314-4.154 2.11.437 1.334h2.668zm-15.656 1.076L21.592 54h4.942zm10.758 1.378-1.968.99h2.318z"/></svg>