<svg xmlns="http://www.w3.org/2000/svg" viewBox="0 0 64 64"><rect width="57" height="57" x="-61" y="-61" opacity=".2" rx="2.85" ry="2.85" transform="rotate(90)scale(-1 1)"/><rect width="57" height="57" x="-60" y="-61" fill="#e4e4e4" rx="2.85" ry="2.85" transform="rotate(90)scale(-1 1)"/><path fill="#fff" d="M6.85 3A2.843 2.843 0 0 0 4 5.85v1C4 5.27 5.27 4 6.85 4h51.3C59.73 4 61 5.27 61 6.85v-1C61 4.27 59.73 3 58.15 3Z" opacity=".2"/><path d="M47 18c-3.795 0-6.929 2.005-9.426 4.45-2.497 2.443-4.582 5.439-6.636 8.302s-4.076 5.59-6.086 7.453C22.84 40.067 21.042 41 19 41c-5.042 0-6.72-1.99-7.84-4.139C10.04 34.714 10 32.5 10 32.5H4s-.04 3.536 1.84 7.139C7.72 43.24 12.042 47 19 47c3.958 0 7.284-1.942 9.93-4.393s4.812-5.472 6.882-8.359c2.071-2.887 4.048-5.641 5.958-7.51C43.679 24.87 45.295 24 47 24c4.455 0 5.879 1.872 6.918 4.045S55 32.5 55 32.5h6s.043-3.468-1.668-7.045S53.545 18 47 18m-.523 8.979A1.5 1.5 0 0 0 45 28.5V31h-2.525a1.5 1.5 0 1 0 0 3H45v2.5a1.5 1.5 0 1 0 3 0V34h2.5a1.5 1.5 0 1 0 0-3H48v-2.5a1.5 1.5 0 0 0-1.523-1.521M14.5 31a1.5 1.5 0 1 0 0 3h8a1.5 1.5 0 1 0 0-3z" opacity=".1"/><path fill="none" stroke="#00797d" stroke-linecap="round" stroke-linejoin="round" stroke-width="3" d="M14.5 31.5h8"/><path fill="none" stroke="#00797d" stroke-width="6" d="M7 31.5S7 43 19 43s17-23 28-23 11 11.5 11 11.5"/><path fill="none" stroke="#009da2" stroke-linecap="round" stroke-linejoin="round" stroke-width="3" d="M46.5 27.5v8m-4.025-4H50.5"/><path d="M19 18c-6.958 0-11.28 3.76-13.16 7.361-1.296 2.483-1.656 4.855-1.77 6.139h6.04c.12-.844.384-2.085 1.05-3.361C12.28 25.99 13.958 24 19 24c2.042 0 3.84.933 5.852 2.795 2.01 1.862 4.031 4.59 6.086 7.453 2.054 2.863 4.14 5.859 6.636 8.303S43.204 47 47 47c6.545 0 10.621-3.878 12.332-7.455C61.042 35.968 61 32.5 61 32.5h-6s-.043 2.282-1.082 4.455S51.455 41 47 41c-1.705 0-3.321-.87-5.23-2.738-1.91-1.869-3.887-4.623-5.958-7.51-2.07-2.887-4.237-5.91-6.882-8.36C26.284 19.943 22.958 18 19 18" opacity=".1"/><path fill="none" stroke="#009da2" stroke-width="6" d="M7 31.5S7 20 19 20s17 23 28 23 11-11.5 11-11.5"/></svg>