<svg xmlns="http://www.w3.org/2000/svg" viewBox="0 0 64 64"><path d="M12.75 5C11.226 5 10 6.249 10 7.8v50.4c0 1.55 1.227 2.8 2.75 2.8h38.5c1.522 0 2.75-1.25 2.75-2.8V23l-14-4-4-14Z" opacity=".2"/><path fill="#e4e4e4" d="M12.75 4C11.226 4 10 5.249 10 6.8v50.4c0 1.55 1.227 2.8 2.75 2.8h38.5c1.522 0 2.75-1.25 2.75-2.8V22l-14-4-4-14Z"/><path d="M36.08 55.37c-1.063-.805-1.87-2.907-2.979-7.767-.488-2.138-.989-4.072-1.113-4.297-.134-.244-1.494 2.095-3.123 5.909L25.967 56H22l4.35-9.238c4.664-9.906 4.646-9.31 3.29-12.797-.814-2.09-1.28-3.155-2.506-3.155-1.315 0-1.875.774-2.316 2.188-.211.678-.506 1.233-.656 1.233-.417 0-.325-1.27.218-3.03.868-2.809 2.492-4.047 4.433-2.579 1.228.929 2.067 3.163 3.654 9.726.797 3.294 1.756 7.249 2.132 8.788s.957 3.314 1.29 3.944c1.475 2.796 4.328 2.978 5.096.215C41.307 50.14 42 50.217 42 51.28c0 1.708-.726 3.173-1.681 3.946-1.204.974-3.057 1.037-4.238.144z" opacity=".1"/><path d="M54 23 36 5v15.188A2.806 2.806 0 0 0 38.813 23Z" opacity=".2"/><path fill="#fafafa" d="M54 22 36 4v15.188A2.806 2.806 0 0 0 38.813 22Z"/><path fill="#fff" d="M12.75 4C11.226 4 10 5.25 10 6.8v1C10 6.25 11.226 5 12.75 5H36V4z" opacity=".2"/><path fill="#3f3f3f" d="M36.08 54.37c-1.063-.805-1.87-2.907-2.979-7.767-.488-2.138-.989-4.072-1.113-4.297-.134-.244-1.494 2.095-3.123 5.909L25.967 55H22l4.35-9.238c4.664-9.906 4.646-9.31 3.29-12.797-.814-2.09-1.28-3.155-2.506-3.155-1.315 0-1.875.774-2.316 2.188-.211.678-.506 1.233-.656 1.233-.417 0-.325-1.27.218-3.03.868-2.809 2.492-4.047 4.433-2.579 1.228.929 2.067 3.163 3.654 9.726.797 3.294 1.756 7.249 2.132 8.788s.957 3.314 1.29 3.944c1.475 2.796 4.328 2.978 5.096.215C41.307 49.14 42 49.217 42 50.28c0 1.708-.726 3.173-1.681 3.946-1.204.974-3.057 1.037-4.238.144z"/></svg>