<svg xmlns="http://www.w3.org/2000/svg" viewBox="0 0 64 64"><path d="M12.75 5C11.227 5 10 6.249 10 7.8v50.4c0 1.55 1.227 2.8 2.75 2.8h38.5c1.522 0 2.75-1.25 2.75-2.8V23l-14-4-4-14z" opacity=".2"/><path fill="#6c5348" d="M12.75 4C11.227 4 10 5.249 10 6.8v50.4c0 1.55 1.227 2.8 2.75 2.8h38.5c1.522 0 2.75-1.25 2.75-2.8V22l-14-4-4-14z"/><path d="M54 23 36 5v15.188A2.806 2.806 0 0 0 38.813 23z" opacity=".2"/><path fill="#927262" d="M54 22 36 4v15.188A2.806 2.806 0 0 0 38.813 22z"/><path fill="#fff" d="M12.75 4C11.226 4 10 5.25 10 6.8v1C10 6.25 11.226 5 12.75 5H36V4Z" opacity=".1"/><path d="M23.106 23.38c-6.934 8.85 2.987 7.201 1.26 13.672 0 0 4.009-2.59-.575-6.647-3.343-2.959-.685-7.025-.685-7.025" opacity=".2"/><path fill="#938179" d="M23.106 22.38c-6.934 8.85 2.987 7.201 1.26 13.672 0 0 4.009-2.59-.575-6.647-3.343-2.959-.685-7.025-.685-7.025"/><path d="M29.256 18.001c-10.935 14.021 6.372 8.482-4.147 27.509 0 0 10.657-7.245 5.948-14.492-3.07-4.725-4.435-5.315-1.801-13.017" opacity=".2"/><path fill="#c5bcb7" d="M29.256 17.001c-10.935 14.021 6.372 8.482-4.147 27.509 0 0 10.657-7.245 5.948-14.492-3.07-4.725-4.435-5.315-1.801-13.017"/><path d="M38 40H19c0 6.874 1.312 10.312 4 13h12c2.485-2.485 2.036-2.502 2.326-2.782s.013.388 2.718-.952c2.223-1.101 4.947-5.02 4.956-6.184.004-.551-.066-1.001-1.077-1.015L39 42s0-2-1-2m-5 2h2s.399 6.583-2.562 8.739c-.804.586-1.477.039-1.164-.401C33.624 47.037 32.887 44.114 33 42m8.373 2c1.868 0-.885 2.906-1.615 3.448-.408.298-2.198 1.128-1.65-.448.72-2.073.892-3 .892-3Z" opacity=".2"/><path fill="#e7e3d9" d="M38 39H19c0 6.874 1.312 10.312 4 13h12c2.485-2.485 2.036-2.502 2.326-2.782s.013.388 2.718-.952c2.223-1.101 4.947-5.02 4.956-6.184.004-.551-.066-1.001-1.077-1.015L39 41s0-2-1-2m-5 2h2s.399 6.583-2.562 8.739c-.804.586-1.477.039-1.164-.401C33.624 46.037 32.887 43.114 33 41m8.373 2c1.868 0-.885 2.906-1.615 3.448-.408.298-2.198 1.128-1.65-.448.72-2.073.892-3 .892-3Z"/></svg>