<svg xmlns="http://www.w3.org/2000/svg" viewBox="0 0 64 64"><path d="M12.75 5C11.226 5 10 6.249 10 7.8v50.4c0 1.55 1.227 2.8 2.75 2.8h38.5c1.522 0 2.75-1.25 2.75-2.8V23l-14-4-4-14Z" opacity=".2"/><path fill="#f08902" d="M12.75 4C11.226 4 10 5.249 10 6.8v50.4c0 1.55 1.227 2.8 2.75 2.8h38.5c1.522 0 2.75-1.25 2.75-2.8V22l-14-4-4-14Z"/><path d="M54 23 36 5v15.188A2.806 2.806 0 0 0 38.813 23Z" opacity=".2"/><path fill="#fda22a" d="M54 22 36 4v15.188A2.806 2.806 0 0 0 38.813 22Z"/><path fill="#fff" d="M12.75 4C11.226 4 10 5.25 10 6.8v1C10 6.25 11.226 5 12.75 5H36V4z" opacity=".2"/><path d="M39.844 29.04c.04.013.155.06.258.106.216.1.678.105 1.028.047.136-.02.344-.037.515-.039.338-.002.369.008.567.177.158.136.34 1.493.531 1.534.185.039.616.065 1.467.09.391.012.752.028.801.038.157.03.18-.221.49.29.044.071.163.218.268.33.111.119.198.229.212.273a.7.7 0 0 1 .017.238c-.01.158-.012-.224-.085-.16-.088.072-.09.09-.03.17.053.073.074.266.039.371-.05.148-.254.26-.546.299a1.16 1.16 0 0 1-.62-.092 1.4 1.4 0 0 0-.19-.07.8.8 0 0 0-.163.103c-.15.111-.414.247-.76.392-.125.052-.272.12-.33.15l-.102.055-.035.162c-.044.203-.124.376-.377.812-.371.637-.35.544-.423 2.01-.035.718-.127 1.315-.342 2.212-.519 2.179-1.104 2.816-1.98 3.586-.473.414-.735.534-2.529 1.149l-.206.07-.014.435c-.015.459-.06.927-.163 1.61-.101.673-.142.995-.142 1.31.002.302.012.38.113.74l.056.204-.013.619c-.008.41-.006.66.009.74.026.139.377 1.387.486 1.728.072.226.144.376.498 1.044.21.398.274.554.313.759.035.185.12.28.344.384.176.079.349.115.573.115.229 0 .5.039.585.08a.3.3 0 0 1 .099.089c.068.146.056.343-.029.442-.045.053-.066.061-.138.055l-.084-.006-.013.108c-.035.276-.191.32-1.069.302-.564-.012-.729-.032-.912-.112a.6.6 0 0 1-.283-.28c-.051-.103-.061-.24-.043-.68a.7.7 0 0 0-.035-.274c-.078-.227-.167-.548-.33-1.195-.173-.68-.245-.94-.514-1.852-.163-.548-.165-.552-.268-.67-.219-.251-.359-.647-.425-1.214-.037-.302-.08-.44-.255-.801-.21-.437-.31-.635-.494-1.38-.182-.718-.361-1.276-.594-1.814-.22-.516-.383-.743-.523-.743-.084 0-.196.114-.293.294-.088.167-.131.272-.263.64-.196.544-.433 1.118-.917 2.212-.498 1.13-.548 1.294-.618 2.01-.051.514-.093.652-.34 1.139l-.086.168.01 1.444c.012 1.806.04 2.133.194 2.434.04.079.082.158.088.174.008.017.087.061.175.096.215.087.359.184.528.355.222.223.296.424.2.538-.052.063-.188.107-.332.107-.16 0-.175.017-.128.13.072.167.006.187-.536.167-.81-.03-1.124-.146-1.353-.497-.076-.122-.074-.193.017-.34.136-.217.177-.294.164-.306a5 5 0 0 0-.48-.028c-.49-.017-.611-.035-.77-.112-.225-.11-.266-.252-.171-.611.01-.037-.01-.07-.099-.152-.206-.197-.295-.408-.478-1.133-.191-.765-.321-1.117-.657-1.766-.933-1.8-.948-1.841-1.106-2.996-.134-.987-.034-1.369-.574-2.942a69 69 0 0 1-.443-1.34c-.202-.643-.272-.824-.36-.917-.064-.067-.077-.071-.161-.063-.251.028-.334.23-.264.651.031.195.033.678.002.944-.03.283-.109.494-.41 1.09-.387.774-.49 1.074-.589 1.706q-.074.47.006.645c.07.152.095.315.085.567-.017.35-.078.605-.284 1.163-.04.103-.048.189-.064.568-.017.414-.05.948-.103 1.644-.01.157-.025.724-.033 1.148-.017 1.052.004 1.208.19 1.452.092.124.323.345.514.497.324.258.392.353.375.526-.014.148-.076.195-.257.195s-.2.014-.2.146c0 .106 0 .133-.078.157-.209.07-1.055.092-1.249.035-.13-.037-.28-.19-.334-.308-.061-.13-.051-.329.025-.538.165-.45.177-.525.254-1.545.098-1.315.105-1.537.105-2.384-.002-.783-.007-.89-.068-1.553-.126-1.364-.128-1.536-.023-2.06.084-.426.11-.763.095-1.31a5 5 0 0 0-.064-.781c-.15-.918-.244-3.017-.333-3.112-.025-.026-.337.032-.55.19-.258.19-1.07.431-1.508.65-.368.187-.492.228-.523.18-.047-.076 0-.301.107-.508.14-.277.765-.49 1.212-.778.159-.103.324-.227.367-.274a1.4 1.4 0 0 0 .175-.282l.097-.197.008-.254c.002-.14-.01-.542-.029-.893-.076-1.362-.002-1.823.474-2.933.216-.51.507-1.074.692-1.35.128-.191.243-.327.472-.559.414-.418.07-.515.27-1.179.316-1.047.508-1.688.6-1.847.085-.14.343-.383.559-.525.21-.138.554-.307.725-.358.245-.073.68-.059.876.027.049.022.133.079.185.126.2.182.352.432.824 1.358.175.34.346.728.381.768.058.07.074.078.16.078.118 0 .174-.035.361-.218.328-.322.435-1.143.64-2.147.118-.567.155-.69.262-.849.161-.237.408-.4.75-.493.147-.04.217-.045.608-.047.35 0 .48.008.614.037.42.089.75.266 1.081.58.332.317.48.552.653 1.048.225.641.32 1.325.948 1.825.44.353.789.801 1.3 1.685.453.783.754 1.477 1.104 1.8.404.371.214.444.821.447.548 0 .752-.07.888-.299.155-.256.338-2.074.338-3.11 0-.511-.02-.676-.124-.94-.179-.462-.191-.838-.047-1.278.064-.193.103-.275.402-.823.317-.578.344-.62.457-.745a.6.6 0 0 1 .445-.22.8.8 0 0 1 .206.013M28.428 43.445c-.058.15-.058 1.147 0 1.722.031.294.027.747-.01 1.331a9 9 0 0 0 .012 1.44c.058.487.21 1.203.441 2.066.303 1.13.51 1.66.83 2.101.24.331.785.818.9.802.035-.006.052-.043.101-.23.188-.722.25-1.187.25-1.877 0-.579-.023-.822-.124-1.277-.194-.879-.21-1.307-.076-1.91.051-.232.055-.29.055-.67 0-.282-.01-.495-.035-.66-.117-.82-.131-1.005-.15-1.922-.008-.398-.02-.735-.027-.745-.008-.014-.057-.004-.136.028-.465.183-1.085.134-1.606-.128a1.3 1.3 0 0 0-.357-.126q-.048-.001-.068.055" opacity=".2"/><path fill="#fff" d="M39.844 28.04c.04.013.155.06.258.106.216.1.678.105 1.028.047.136-.02.344-.037.515-.039.338-.002.369.008.567.177.158.136.34 1.493.531 1.534.185.039.616.065 1.467.09.391.012.752.028.801.038.157.03.18-.221.49.29.044.071.163.218.268.33.111.119.198.229.212.273a.7.7 0 0 1 .017.238c-.01.158-.012-.224-.085-.16-.088.072-.09.09-.03.17.053.073.074.266.039.371-.05.148-.254.26-.546.299a1.16 1.16 0 0 1-.62-.092 1.4 1.4 0 0 0-.19-.07.8.8 0 0 0-.163.103c-.15.111-.414.247-.76.392-.125.052-.272.12-.33.15l-.102.055-.035.162c-.044.203-.124.376-.377.812-.371.637-.35.544-.423 2.01-.035.718-.127 1.315-.342 2.212-.519 2.179-1.104 2.816-1.98 3.586-.473.414-.735.534-2.529 1.149l-.206.07-.014.435c-.015.459-.06.927-.163 1.61-.101.673-.142.995-.142 1.31.002.302.012.38.113.74l.056.204-.013.619c-.008.41-.006.66.009.74.026.139.377 1.387.486 1.728.072.226.144.376.498 1.044.21.398.274.554.313.759.035.185.12.28.344.384.176.079.349.115.573.115.229 0 .5.039.585.08a.3.3 0 0 1 .099.089c.068.146.056.343-.029.442-.045.053-.066.061-.138.055l-.084-.006-.013.108c-.035.276-.191.32-1.069.302-.564-.012-.729-.032-.912-.112a.6.6 0 0 1-.283-.28c-.051-.103-.061-.24-.043-.68a.7.7 0 0 0-.035-.274c-.078-.227-.167-.548-.33-1.195-.173-.68-.245-.94-.514-1.852-.163-.548-.165-.552-.268-.67-.219-.251-.359-.647-.425-1.214-.037-.302-.08-.44-.255-.801-.21-.437-.31-.635-.494-1.38-.182-.718-.361-1.276-.594-1.814-.22-.516-.383-.743-.523-.743-.084 0-.196.114-.293.294-.088.167-.131.272-.263.64-.196.544-.433 1.118-.917 2.212-.498 1.13-.548 1.294-.618 2.01-.051.514-.093.652-.34 1.139l-.086.168.01 1.444c.012 1.806.04 2.133.194 2.434.04.079.082.158.088.174.008.017.087.061.175.096.215.087.359.184.528.355.222.223.296.424.2.538-.052.063-.188.107-.332.107-.16 0-.175.017-.128.13.072.167.006.187-.536.167-.81-.03-1.124-.146-1.353-.497-.076-.122-.074-.193.017-.34.136-.217.177-.294.164-.306a5 5 0 0 0-.48-.028c-.49-.017-.611-.035-.77-.112-.225-.11-.266-.252-.171-.611.01-.037-.01-.07-.099-.152-.206-.197-.295-.408-.478-1.133-.191-.765-.321-1.117-.657-1.766-.933-1.8-.948-1.841-1.106-2.996-.134-.987-.034-1.369-.574-2.942a69 69 0 0 1-.443-1.34c-.202-.643-.272-.824-.36-.917-.064-.067-.077-.071-.161-.063-.251.028-.334.23-.264.651.031.195.033.678.002.944-.03.283-.109.494-.41 1.09-.387.774-.49 1.074-.589 1.706q-.074.47.006.645c.07.152.095.315.085.567-.017.35-.078.605-.284 1.163-.04.103-.048.189-.064.568-.017.414-.05.948-.103 1.644-.01.157-.025.724-.033 1.148-.017 1.052.004 1.208.19 1.452.092.124.323.345.514.497.324.258.392.353.375.526-.014.148-.076.195-.257.195s-.2.014-.2.146c0 .106 0 .133-.078.157-.209.07-1.055.092-1.249.035-.13-.037-.28-.19-.334-.308-.061-.13-.051-.329.025-.538.165-.45.177-.525.254-1.545.098-1.315.105-1.537.105-2.384-.002-.783-.007-.89-.068-1.553-.126-1.364-.128-1.536-.023-2.06.084-.426.11-.763.095-1.31a5 5 0 0 0-.064-.781c-.15-.918-.244-3.017-.333-3.112-.025-.026-.337.032-.55.19-.258.19-1.07.431-1.508.65-.368.187-.492.228-.523.18-.047-.076 0-.301.107-.508.14-.277.765-.49 1.212-.778.159-.103.324-.227.367-.274a1.4 1.4 0 0 0 .175-.282l.097-.197.008-.254c.002-.14-.01-.542-.029-.893-.076-1.362-.002-1.823.474-2.933.216-.51.507-1.074.692-1.35.128-.191.243-.327.472-.559.414-.418.07-.515.27-1.179.316-1.047.508-1.688.6-1.847.085-.14.343-.383.559-.525.21-.138.554-.307.725-.358.245-.073.68-.059.876.027.049.022.133.079.185.126.2.182.352.432.824 1.358.175.34.346.728.381.768.058.07.074.077.16.077.118 0 .174-.034.361-.217.328-.322.435-1.143.64-2.147.118-.567.155-.69.262-.849.161-.237.408-.4.75-.493.147-.04.217-.045.608-.047.35 0 .48.008.614.037.42.089.75.266 1.081.58.332.317.48.552.653 1.048.225.641.32 1.325.948 1.825.44.353.789.801 1.3 1.684.453.784.754 1.478 1.104 1.8.404.372.214.445.821.448.548 0 .752-.07.888-.299.155-.256.338-2.074.338-3.11 0-.511-.02-.676-.124-.94-.179-.462-.191-.838-.047-1.278.064-.193.103-.275.402-.823.317-.578.344-.62.457-.745a.6.6 0 0 1 .445-.22.8.8 0 0 1 .206.013M28.428 42.445c-.058.15-.058 1.147 0 1.722.031.294.027.747-.01 1.331a9 9 0 0 0 .012 1.44c.058.487.21 1.203.441 2.066.303 1.13.51 1.66.83 2.101.24.331.785.818.9.802.035-.006.052-.043.101-.23.188-.722.25-1.187.25-1.877 0-.579-.023-.822-.124-1.277-.194-.879-.21-1.307-.076-1.91.051-.232.055-.29.055-.67 0-.282-.01-.495-.035-.66-.117-.82-.131-1.005-.15-1.922-.008-.398-.02-.735-.027-.745-.008-.014-.057-.004-.136.028-.465.183-1.085.134-1.606-.128a1.3 1.3 0 0 0-.357-.126q-.048-.001-.068.055"/></svg>