<svg xmlns="http://www.w3.org/2000/svg" xmlns:xlink="http://www.w3.org/1999/xlink" viewBox="0 0 128 128"><defs><linearGradient id="d" x1="50%" x2="50%" y1="0%" y2="99.203%"><stop offset="0%" stop-color="#619fff"/><stop offset="100%" stop-color="#0093e4"/></linearGradient><linearGradient id="g" x1="50%" x2="7.994%" y1="50%" y2="88.893%"><stop offset="0%" stop-color="#fff" stop-opacity=".1"/><stop offset="100%" stop-color="#fff" stop-opacity=".3"/></linearGradient><filter id="c" width="125%" height="120.2%" x="-12.5%" y="-8.3%" filterUnits="objectBoundingBox"><feOffset dy="2" in="SourceAlpha" result="shadowOffsetOuter1"/><feGaussianBlur in="shadowOffsetOuter1" result="shadowBlurOuter1" stdDeviation="3.5"/><feColorMatrix in="shadowBlurOuter1" values="0 0 0 0 0.0156862745 0 0 0 0 0.580392157 0 0 0 0 0.898039216 0 0 0 0.5 0"/></filter><filter id="f" width="124.6%" height="124.6%" x="-12.3%" y="-8.8%" filterUnits="objectBoundingBox"><feOffset dy="1" in="SourceAlpha" result="shadowOffsetOuter1"/><feGaussianBlur in="shadowOffsetOuter1" result="shadowBlurOuter1" stdDeviation="1"/><feComposite in="shadowBlurOuter1" in2="SourceAlpha" operator="out" result="shadowBlurOuter1"/><feColorMatrix in="shadowBlurOuter1" values="0 0 0 0 0 0 0 0 0 0 0 0 0 0 0 0 0 0 0.05 0"/></filter><path id="a" d="M92 105a9 9 0 0 1-9 9H9a9 9 0 0 1-9-9V9a9 9 0 0 1 9-9h54.5L92 28.5z"/><path id="e" d="M63.5 0 92 28.5H72.5a9 9 0 0 1-9-9z"/></defs><g fill="none" fill-rule="evenodd"><g transform="translate(18 7)"><use xlink:href="#a" fill="#000" filter="url(#c)"/><use xlink:href="#a" fill="url(#d)"/></g><g transform="translate(18 7)"><use xlink:href="#e" fill="#000" filter="url(#f)"/><use xlink:href="#e" fill="url(#g)"/></g><path fill="#fff" d="M44 50v2H34v-2zm20 0v2H52v-2zm30 0v2H84v-2zM68 80v2h-4v-2zM56 60v2H42v-2zm22 0v2H64v-2zm16 10v2H78v-2zm-24 0v2H56v-2zM40 60v2h-6v-2zm10-10v2h-4v-2zm12 10v2h-4v-2zm32 20v2H76v-2zm-20 0v2h-4v-2zm2-10v2h-4v-2zm-22 0v2h-4v-2zm-6 0v2H34v-2zm14 10v2H34v-2zm24-20v2h-6v-2zm8 0v2h-6v-2zM56 90v2H42v-2zm22 0v2H64v-2zm-38 0v2h-6v-2zm22 0v2h-4v-2zm24 0v2h-6v-2zm8 0v2h-6v-2zM70 50v2h-4v-2zm6 0v2h-4v-2zm6 0v2h-4v-2z"/></g></svg>