<svg xmlns="http://www.w3.org/2000/svg" viewBox="0 0 64 64"><path d="M12.75 5C11.226 5 10 6.249 10 7.8v50.4c0 1.55 1.227 2.8 2.75 2.8h38.5c1.522 0 2.75-1.25 2.75-2.8V23l-14-4-4-14Z" opacity=".2"/><path fill="#e4e4e4" d="M12.75 4C11.226 4 10 5.249 10 6.8v50.4c0 1.55 1.227 2.8 2.75 2.8h38.5c1.522 0 2.75-1.25 2.75-2.8V22l-14-4-4-14Z"/><path d="M54 23 36 5v15.188A2.806 2.806 0 0 0 38.813 23Z" opacity=".2"/><path fill="#fafafa" d="M54 22 36 4v15.188A2.806 2.806 0 0 0 38.813 22Z"/><path fill="#fff" d="M12.75 4C11.226 4 10 5.25 10 6.8v1C10 6.25 11.226 5 12.75 5H36V4z" opacity=".2"/><path fill="#0180cd" d="M31 27c-7.18 0-13 5.82-13 13s5.82 13 13 13c.334-.002.667-.033 1-.06V48.9c-.332.04-.665.066-1 .067-4.786 0-9-4.18-9-8.967 0-4.786 4.214-8.967 9-8.967.335.002.668.03 1 .07v-4.037c-.333-.029-.666-.062-1-.066"/><path fill="#01559d" d="M39 29v3h-3v3h3v3h3v-3h3v-3h-3v-3zm0 14v3h-3v3h3v3h3v-3h3v-3h-3v-3z"/></svg>