<svg xmlns="http://www.w3.org/2000/svg" viewBox="0 0 64 64"><path d="M12.75 5C11.226 5 10 6.249 10 7.8v50.4c0 1.55 1.227 2.8 2.75 2.8h38.5c1.522 0 2.75-1.25 2.75-2.8V23l-14-4-4-14Z" opacity=".2"/><path fill="#7242a1" d="M12.75 4C11.226 4 10 5.249 10 6.8v50.4c0 1.55 1.227 2.8 2.75 2.8h38.5c1.522 0 2.75-1.25 2.75-2.8V22l-14-4-4-14Z"/><path d="M54 23 36 5v15.188A2.806 2.806 0 0 0 38.813 23Z" opacity=".2"/><path fill="#8b59bb" d="M54 22 36 4v15.188A2.806 2.806 0 0 0 38.813 22Z"/><path fill="#fff" d="M12.75 4C11.226 4 10 5.25 10 6.8v1C10 6.25 11.226 5 12.75 5H36V4z" opacity=".1"/><path d="m34 53.612-.038-1.388-1.945-.09c-1.99-.092-1.31-.224-1.665-.603-.36-.941-.352-3.098-.367-4.548l-.046-4.084.922.094c2.19.277 3.746 1.18 3.853 2.352l.084 1.456H38V35.089h-1.759c-.742 0-1.348.053-1.348.118 0 .064-.09.632-.199 1.26-1.085 2.657-2.403 2.425-4.731 2.62v-7.535l3.486.068c2.389.04 4.209.13 4.5.22 1.886.589 2.77 2.341 3.158 6.612l.089.548H44V29H20v2.814l1.45.059c1.607.065 2.403.247 2.55.773v9.422c0 9.728-.012 9.555-.704 9.82-.179.068-1.097.165-1.877.216L20 52.196V55h14.039z" opacity=".2"/><path fill="#fff" d="m34 52.612-.038-1.388-1.945-.09c-1.99-.092-1.31-.224-1.665-.603-.36-.941-.352-3.098-.367-4.548l-.046-4.084.922.094c2.19.277 3.746 1.18 3.853 2.352l.084 1.456H38V34.089h-1.759c-.742 0-1.348.053-1.348.118 0 .064-.09.632-.199 1.26-1.085 2.657-2.403 2.425-4.731 2.62v-7.535l3.486.068c2.389.04 4.209.13 4.5.22 1.886.589 2.77 2.341 3.158 6.612l.089.548H44V28H20v2.814l1.45.059c1.607.065 2.403.247 2.55.773v9.422c0 9.728-.012 9.555-.704 9.82-.179.068-1.097.165-1.877.216L20 51.196V54h14.039z"/></svg>