<svg xmlns="http://www.w3.org/2000/svg" xmlns:xlink="http://www.w3.org/1999/xlink" viewBox="0 0 128 128"><defs><linearGradient id="d" x1="50%" x2="50%" y1="0%" y2="98.501%"><stop offset="0%" stop-color="#7fcb10"/><stop offset="100%" stop-color="#50a100"/></linearGradient><linearGradient id="g" x1="50%" x2="7.994%" y1="50%" y2="88.893%"><stop offset="0%" stop-color="#fff" stop-opacity=".1"/><stop offset="100%" stop-color="#fff" stop-opacity=".3"/></linearGradient><filter id="c" width="125%" height="120.2%" x="-12.5%" y="-8.3%" filterUnits="objectBoundingBox"><feOffset dy="2" in="SourceAlpha" result="shadowOffsetOuter1"/><feGaussianBlur in="shadowOffsetOuter1" result="shadowBlurOuter1" stdDeviation="3.5"/><feColorMatrix in="shadowBlurOuter1" values="0 0 0 0 0.46370117 0 0 0 0 0.679376132 0 0 0 0 0 0 0 0 0.5 0"/></filter><filter id="f" width="124.6%" height="124.6%" x="-12.3%" y="-8.8%" filterUnits="objectBoundingBox"><feOffset dy="1" in="SourceAlpha" result="shadowOffsetOuter1"/><feGaussianBlur in="shadowOffsetOuter1" result="shadowBlurOuter1" stdDeviation="1"/><feComposite in="shadowBlurOuter1" in2="SourceAlpha" operator="out" result="shadowBlurOuter1"/><feColorMatrix in="shadowBlurOuter1" values="0 0 0 0 0 0 0 0 0 0 0 0 0 0 0 0 0 0 0.05 0"/></filter><path id="a" d="M92 105a9 9 0 0 1-9 9H9a9 9 0 0 1-9-9V9a9 9 0 0 1 9-9h54.5L92 28.5z"/><path id="e" d="M63.5 0 92 28.5H72.5a9 9 0 0 1-9-9z"/></defs><g fill="none" fill-rule="evenodd"><g transform="translate(18 7)"><use xlink:href="#a" fill="#000" filter="url(#c)"/><use xlink:href="#a" fill="url(#d)"/></g><g transform="translate(18 7)"><use xlink:href="#e" fill="#000" filter="url(#f)"/><use xlink:href="#e" fill="url(#g)"/></g><path fill="#fff" d="M57.577 46.027c1.445.919 3.36 2.98 4.94 5.338 1.763 2.633 3.167 5.664 4.222 8.312l-3.744 2.35L74.945 62l5.578-10.688-2.975 1.991-1.885-3.585c-1.265-2.023-2.424-3.49-4.807-3.718zm-5.79.903-5.79 8.578 10.199 6.825 5.47-10.331c-1.511-2.23-3.736-5.503-7.25-5.577-.81-.017-1.674.126-2.629.505m20.37 20.688 4.754 10.304 4.09.027c2.388.027 6.232-3.492 6.081-6.029l-4.647-10.915zM37.26 64.192l3.559 1.939-1.195 2.523c-3.857 8.245 1.021 12.266 6.799 20.29-.826-1.992-.776-4.124-.054-6.188l5.126-10.968 3.214 1.673-6.348-9.88zm27.434 21.645L70 96.14l.027-4.14h2.847c8.655-.004 9.851-6.537 14.023-15.618-1.308 1.675-3.12 2.386-5.18 2.618l-11.69.027L70 75.399zm-15.085-6.64-1.859 3.851c-1.088 2.263.164 7.964 2.364 8.952H61l.08-13.201z"/></g></svg>