<svg xmlns="http://www.w3.org/2000/svg" xmlns:xlink="http://www.w3.org/1999/xlink" viewBox="0 0 128 128"><defs><filter id="c" width="116.7%" height="113.5%" x="-8.3%" y="-4.8%" filterUnits="objectBoundingBox"><feOffset dy="2" in="SourceAlpha" result="shadowOffsetOuter1"/><feGaussianBlur in="shadowOffsetOuter1" result="shadowBlurOuter1" stdDeviation="2"/><feColorMatrix in="shadowBlurOuter1" values="0 0 0 0 0 0 0 0 0 0 0 0 0 0 0 0 0 0 0.2 0"/></filter><path id="a" d="M1 1h84v104H1z"/></defs><g fill="none" fill-rule="evenodd"><g transform="translate(21 11)"><use xlink:href="#a" fill="#000" filter="url(#c)"/><use xlink:href="#a" fill="#f9fbfb"/><path fill="#000" fill-opacity=".2" fill-rule="nonzero" d="M86 0H0v106h86zm-1 1v104H1V1z"/></g><path fill="#dd953e" stroke="#845925" d="M41.649 66.581c1.866 1.961 3.848 3.543 6.457 4.94 1.57.737 4.76 1.316 5.527 1.448l.126.022.033.005 10.294-5.1 10.063 5.231c.16-.022 4.143-.607 5.871-1.556 1.76-.97 4.32-2.553 6.506-4.726a873 873 0 0 1-3.739 8.617c-4.43 5.49-11.66 8.077-18.812 8.038-7.356-.04-14.655-2.859-18.754-8.24l-1.192-2.895-.344-.837-.328-.796Zm47.435-9.913c-1.261 3.333-2.657 6.74-5.706 8.534-3.282-4.074-11.667-6.338-19.96-6.327-7.876.011-15.55 2.078-18.635 6.325-2.62-1.931-3.927-4.792-5.327-7.8l-.437-.934c.61.251 1.367.561 2.072.842 1.768-1.201 3.174-2.039 4.573-2.785.66-.97 1.384-2.161 1.917-3.06l.27-.46.224-.381a50 50 0 0 0 3.43 2.411c2.504-.705 6.227-1.153 8.347-1.14a55 55 0 0 0 4.33-2.99c.612.551 2.032 1.818 3.446 2.984 3.038-.034 6.236.564 8.886 1.055a42 42 0 0 0 3.688-2.436c.47.808 1.437 2.482 2.162 3.815 1.2.806 2.998 2.08 3.76 2.911.818.026 1.12-.086 1.428-.197.607-.217 1.144-.404 1.572-.552l.034-.013Z"/></g></svg>