<svg xmlns="http://www.w3.org/2000/svg" xmlns:xlink="http://www.w3.org/1999/xlink" viewBox="0 0 128 128"><defs><filter id="c" width="108.3%" height="106.7%" x="-4.2%" y="-2.4%" filterUnits="objectBoundingBox"><feOffset dy="1" in="SourceAlpha" result="shadowOffsetOuter1"/><feGaussianBlur in="shadowOffsetOuter1" result="shadowBlurOuter1" stdDeviation="1"/><feColorMatrix in="shadowBlurOuter1" values="0 0 0 0 0 0 0 0 0 0 0 0 0 0 0 0 0 0 0.2 0"/></filter><path id="a" d="M1 1h84v104H1z"/></defs><g fill="none" fill-rule="evenodd"><g transform="translate(21 11)"><use xlink:href="#a" fill="#000" filter="url(#c)"/><use xlink:href="#a" fill="#f9fbfb"/><path fill="#000" fill-opacity=".2" fill-rule="nonzero" d="M86 0H0v106h86zm-1 1v104H1V1z"/></g><path fill="#2a4052" fill-opacity=".4" stroke="#3e6f84" d="M61.393 53.5c2.185 0 3.883.628 5.067 1.88 1.196 1.225 1.76 2.83 1.76 4.801 0 .43-.022 1.186-.12 2.28a16.4 16.4 0 0 1-.473 2.941L65.2 75.464c-.201.819-.375 1.73-.535 2.784-.163 1.07-.249 1.89-.249 2.437 0 1.536.345 2.556.926 3.104.58.546 1.574.845 3.015.845.635 0 1.367-.106 2.171-.353.3-.101.557-.194.784-.283l-.397 1.913a95 95 0 0 1-4.45 1.919c-1.11.46-2.39.67-3.857.67-2.21 0-3.953-.585-5.185-1.83-1.216-1.268-1.805-2.872-1.805-4.804 0-.787.063-1.588.159-2.399.097-.837.224-1.79.437-2.83l2.429-10.063c.22-.978.392-1.908.53-2.76.164-.91.251-1.71.251-2.452 0-1.464-.305-2.457-.816-3.026-.52-.58-1.475-.97-2.963-.97-.684 0-1.379.156-2.11.407q-.453.16-.853.314l.406-1.954a52 52 0 0 1 4.353-1.815c1.398-.53 2.705-.818 3.953-.818Zm4.291-14c1.238 0 2.293.459 3.167 1.342.886.88 1.316 1.938 1.316 3.177s-.43 2.296-1.316 3.176c-.871.865-1.928 1.305-3.167 1.305-1.241 0-2.316-.441-3.202-1.305-.886-.88-1.315-1.937-1.315-3.176s.429-2.297 1.315-3.177c.888-.882 1.962-1.342 3.202-1.342Z"/></g></svg>