<svg xmlns="http://www.w3.org/2000/svg" xmlns:xlink="http://www.w3.org/1999/xlink" viewBox="0 0 128 128"><defs><filter id="c" width="116.7%" height="113.5%" x="-8.3%" y="-4.8%" filterUnits="objectBoundingBox"><feOffset dy="2" in="SourceAlpha" result="shadowOffsetOuter1"/><feGaussianBlur in="shadowOffsetOuter1" result="shadowBlurOuter1" stdDeviation="2"/><feColorMatrix in="shadowBlurOuter1" values="0 0 0 0 0 0 0 0 0 0 0 0 0 0 0 0 0 0 0.2 0"/></filter><path id="a" d="M1 1h84v104H1z"/></defs><g fill="none" fill-rule="evenodd"><g transform="translate(21 11)"><use xlink:href="#a" fill="#000" filter="url(#c)"/><use xlink:href="#a" fill="#f9fbfb"/><path fill="#000" fill-opacity=".2" fill-rule="nonzero" d="M86 0H0v106h86zm-1 1v104H1V1z"/></g><path fill="#dd953e" stroke="#845925" d="M74 50.5c2.071 0 3.946.84 5.303 2.197A7.48 7.48 0 0 1 81.5 58c0 2.029-.806 3.87-2.114 5.22a7.48 7.48 0 0 1-4.828 2.26l-.317.016-4.905.005c.112.412.187.649.187.649s1.429 4.541 3.852 7.57c1.294 1.618 2.869 2.78 4.625 2.78 2.415 0 3.926-.743 4.884-1.7 1.357-1.357 1.606-3.188 1.632-4.168l.002-.128 4.96-.004c-.092 1.404-.561 5.19-2.971 7.94-1.427 1.629-3.545 2.879-6.673 3.042l-.352.014L76 81.5c-1.61 0-2.912-.715-4.036-1.812-1.647-1.608-2.921-4.018-4.175-6.369-2.05-3.846-4.084-7.412-7.227-7.786l-.244-.023-8.818-.01v11h6v5h-17v-5h6v-21h-6v-5zm0 5H51.5v5H74l.205-.008a2.5 2.5 0 0 0 1.563-.724A2.5 2.5 0 0 0 76.5 58c0-.69-.28-1.315-.732-1.768A2.5 2.5 0 0 0 74 55.5Z"/></g></svg>