<svg xmlns="http://www.w3.org/2000/svg" viewBox="0 0 16.933 16.933"><g transform="translate(0 -261.5)scale(.26458)"><path fill="#fafafa" d="m8.991 989.37 46.01.004v57.985H8.992z"/><path fill="none" stroke="#4f6698" stroke-linejoin="round" stroke-opacity=".267" stroke-width=".745" d="m6.5.5 35 .003v44.003h-35z" transform="matrix(1.3428 0 0 1.3408 -.228 988.19)"/><rect width="64" height="64" y="988.36" fill="none" opacity=".75" rx="0" ry="0"/></g><path fill="#8f76e4" d="M8.372 5.793a2.1 2.1 0 0 0-.991.237l.154.428q.375-.202.766-.202.308 0 .469.16.16.154.16.403a.6.6 0 0 1-.071.285q-.066.13-.173.25-.106.119-.225.237-.119.112-.226.25-.105.13-.178.284a.9.9 0 0 0-.065.344q0 .13.024.25h.463a.3.3 0 0 1-.006-.066v-.065a.8.8 0 0 1 .077-.35q.077-.16.19-.291.112-.136.249-.261c.137-.125.174-.17.25-.261a1.5 1.5 0 0 0 .19-.291.8.8 0 0 0 .076-.362 1.1 1.1 0 0 0-.053-.332.76.76 0 0 0-.178-.32.95.95 0 0 0-.35-.232 1.4 1.4 0 0 0-.552-.095m-1.575 1.11L4.233 7.989v.474L6.797 9.55l.154-.457-2.107-.866 2.107-.866zm3.34 0-.155.456 2.106.867-2.106.866.154.457L12.7 8.463V7.99zm-1.86 2.38a.37.37 0 0 0-.29.118.4.4 0 0 0-.108.279q0 .16.107.279.107.118.29.118c.183 0 .22-.04.292-.118s.107-.172.107-.28a.4.4 0 0 0-.107-.278.37.37 0 0 0-.291-.119z"/></svg>