<svg xmlns="http://www.w3.org/2000/svg" viewBox="0 0 64 64"><path d="M12.75 5C11.226 5 10 6.249 10 7.8v50.4c0 1.551 1.227 2.8 2.75 2.8h38.5c1.523 0 2.75-1.249 2.75-2.8V21l-13.723-2.11L38 5Z" opacity=".2"/><path fill="#634d9f" d="M12.75 4C11.226 4 10 5.249 10 6.8v50.4c0 1.551 1.227 2.8 2.75 2.8h38.5c1.523 0 2.75-1.249 2.75-2.8V20l-13.723-2.11L38 4Z"/><path d="M38 5v13.333A2.667 2.667 0 0 0 40.667 21H54Z" opacity=".2"/><path fill="#806cb8" d="M38 4v13.333A2.667 2.667 0 0 0 40.667 20H54Z"/><path d="M28 55V29.81c-1.751.657-2.43 1.29-3.41 2.689-.977 1.395-1.107 3.921-1.107 5.998q0 .711.074 1.167.09.437.182.71.091.255.164.401.09.145.091.255-.966 0-1.714-.182-.748-.2-1.258-.62-.493-.418-.767-1.11Q20 38.424 20 37.404c0-.826.232-2.317.528-3.14 1.283-3.565 5.648-5.86 9.026-6.87 1.043-.311 2.11-.383 3.155-.383.394-.05 1.261.07 1.291.072v22.959l8.392-22.85H45L34.624 55z" opacity=".2"/><path fill="#fff" d="M28 54V28.81c-1.751.657-2.43 1.29-3.41 2.689-.977 1.395-1.107 3.921-1.107 5.998q0 .711.074 1.167.09.437.182.71.091.255.164.401.09.145.091.255-.966 0-1.714-.182-.748-.2-1.258-.62-.493-.418-.767-1.11Q20 37.424 20 36.404c0-.826.232-2.317.528-3.14 1.283-3.565 5.648-5.86 9.026-6.87 1.043-.311 2.11-.383 3.155-.383.394-.05 1.261.07 1.291.072v22.959l8.392-22.85H45L34.624 54z"/><path fill="#fff" d="M12.75 4C11.226 4 10 5.25 10 6.8v1C10 6.25 11.226 5 12.75 5H38V4z" opacity=".1"/></svg>