<svg xmlns="http://www.w3.org/2000/svg" xmlns:xlink="http://www.w3.org/1999/xlink" viewBox="0 0 128 128"><defs><filter id="b" width="108.3%" height="106.7%" x="-4.2%" y="-2.4%" filterUnits="objectBoundingBox"><feOffset dy="1" in="SourceAlpha" result="shadowOffsetOuter1"/><feGaussianBlur in="shadowOffsetOuter1" result="shadowBlurOuter1" stdDeviation="1"/><feColorMatrix in="shadowBlurOuter1" values="0 0 0 0 0 0 0 0 0 0 0 0 0 0 0 0 0 0 0.2 0"/></filter><path id="a" d="M1 1h84v104H1z"/></defs><g fill="none" fill-rule="evenodd"><g transform="translate(21 11)"><use xlink:href="#a" fill="#000" filter="url(#b)"/><use xlink:href="#a" fill="#f9fbfb"/><path fill="#000" fill-opacity=".2" fill-rule="nonzero" d="M86 0H0v106h86zm-1 1v104H1V1z"/></g><path fill="#2a4052" fill-opacity=".4" stroke="#3e6f84" d="M58.77 42.507q.028.016.037.04a5.7 5.7 0 0 0 2.076 2.524 5.55 5.55 0 0 0 3.102.941 5.56 5.56 0 0 0 3.107-.943 5.7 5.7 0 0 0 1.96-2.272l.084-.189.246.05a19.3 19.3 0 0 1 5.731 2.224l.387.23.005.01a.1.1 0 0 1-.005.05 5.7 5.7 0 0 0-.317 3.25 5.55 5.55 0 0 0 1.53 2.859 5.56 5.56 0 0 0 2.859 1.53 5.7 5.7 0 0 0 3.256-.32l.024-.006.023.001a21.9 21.9 0 0 1 2.62 6.296q.002.004-.001.009a.1.1 0 0 1-.038.032 5.67 5.67 0 0 0-2.525 2.073 5.56 5.56 0 0 0-.94 3.105c0 1.15.346 2.216.939 3.103a5.7 5.7 0 0 0 2.523 2.076q.028.012.043.035.003.007.004.016a22 22 0 0 1-2.33 5.804l-.29.485q-.024.007-.047-.005a5.7 5.7 0 0 0-3.248-.311 5.55 5.55 0 0 0-2.854 1.527 5.56 5.56 0 0 0-1.529 2.853 5.67 5.67 0 0 0 .309 3.242l.007.025-.002.026a22 22 0 0 1-6.299 2.619l-.008-.002a.1.1 0 0 1-.033-.04 5.7 5.7 0 0 0-2.076-2.51 5.56 5.56 0 0 0-3.096-.935c-1.147 0-2.21.345-3.095.935a5.7 5.7 0 0 0-2.076 2.51.1.1 0 0 1-.034.04q-.002.002-.007.002a22 22 0 0 1-5.812-2.328l-.485-.289a.07.07 0 0 1 .002-.05 5.7 5.7 0 0 0 .304-3.241 5.54 5.54 0 0 0-1.527-2.844 5.56 5.56 0 0 0-2.849-1.529 5.67 5.67 0 0 0-3.239.305l-.025.007-.024-.002a22 22 0 0 1-2.483-5.735l-.144-.56a.07.07 0 0 1 .042-.042 5.7 5.7 0 0 0 2.51-2.075 5.56 5.56 0 0 0 .934-3.096 5.56 5.56 0 0 0-.938-3.1 5.7 5.7 0 0 0-2.516-2.075.1.1 0 0 1-.04-.033q-.002-.003-.002-.008a22 22 0 0 1 2.324-5.814l.288-.485q.026-.007.048.004a5.7 5.7 0 0 0 3.246.31 5.56 5.56 0 0 0 2.853-1.529 5.56 5.56 0 0 0 1.53-2.857 5.7 5.7 0 0 0-.314-3.25l-.006-.023.001-.024a22 22 0 0 1 6.296-2.626zm5.228 9.991c-3.17 0-6.046 1.29-8.128 3.372a11.46 11.46 0 0 0-3.372 8.128c0 3.17 1.29 6.046 3.372 8.128a11.46 11.46 0 0 0 8.128 3.372c3.17 0 6.046-1.29 8.128-3.372a11.46 11.46 0 0 0 3.372-8.128c0-3.17-1.29-6.046-3.372-8.128a11.46 11.46 0 0 0-8.128-3.372z"/></g></svg>