<svg xmlns="http://www.w3.org/2000/svg" viewBox="0 0 64 64"><path d="M12.75 5C11.226 5 10 6.249 10 7.8v50.4c0 1.55 1.227 2.8 2.75 2.8h38.5c1.522 0 2.75-1.25 2.75-2.8V23l-14-4-4-14Z" opacity=".2"/><path fill="#e47234" d="M12.75 4C11.226 4 10 5.249 10 6.8v50.4c0 1.55 1.227 2.8 2.75 2.8h38.5c1.522 0 2.75-1.25 2.75-2.8V22l-14-4-4-14Z"/><path d="M39.2 27c-.666 0-1.2.534-1.2 1.2v3.6c0 .666.534 1.2 1.2 1.2h3.6c.666 0 1.2-.534 1.2-1.2v-3.6c0-.666-.534-1.2-1.2-1.2Zm-22 9c-1.22 0-2.2.98-2.2 2.2v6.6c0 1.22.98 2.2 2.2 2.2h6.6c1.22 0 2.2-.98 2.2-2.2v-6.6c0-1.22-.98-2.2-2.2-2.2Zm24.2 8c-.775 0-1.4.625-1.4 1.4v4.2c0 .775.625 1.4 1.4 1.4h4.2c.775 0 1.4-.625 1.4-1.4v-4.2c0-.775-.625-1.4-1.4-1.4ZM54 23 36 5v15.188A2.806 2.806 0 0 0 38.813 23Z" opacity=".2"/><path fill="#efaa85" d="M54 22 36 4v15.188A2.806 2.806 0 0 0 38.813 22Z"/><path fill="#fff" d="M12.75 4C11.226 4 10 5.25 10 6.8v1C10 6.25 11.226 5 12.75 5H36V4z" opacity=".2"/><path fill="#fff" d="M32 25a15 15 0 0 0-15 15 15 15 0 0 0 15 15 15 15 0 0 0 15-15 15 15 0 0 0-15-15m1 3a11 11 0 0 1 11 11 11 11 0 0 1-11 11 11 11 0 0 1-11-11 11 11 0 0 1 11-11" opacity=".5"/><rect width="11" height="11" x="15" y="35" fill="#fff" rx="2.2" ry="2.2"/><rect width="7" height="7" x="40" y="43" fill="#fff" rx="1.4" ry="1.4"/><rect width="6" height="6" x="38" y="26" fill="#fff" rx="1.2" ry="1.2"/></svg>