<svg xmlns="http://www.w3.org/2000/svg" xmlns:xlink="http://www.w3.org/1999/xlink" viewBox="0 0 128 128"><defs><filter id="c" width="116.7%" height="113.5%" x="-8.3%" y="-4.8%" filterUnits="objectBoundingBox"><feOffset dy="2" in="SourceAlpha" result="shadowOffsetOuter1"/><feGaussianBlur in="shadowOffsetOuter1" result="shadowBlurOuter1" stdDeviation="2"/><feColorMatrix in="shadowBlurOuter1" values="0 0 0 0 0 0 0 0 0 0 0 0 0 0 0 0 0 0 0.2 0"/></filter><path id="a" d="M1 1h84v104H1z"/></defs><g fill="none" fill-rule="evenodd"><g transform="translate(21 11)"><use xlink:href="#a" fill="#000" filter="url(#c)"/><use xlink:href="#a" fill="#f9fbfb"/><path fill="#000" fill-opacity=".2" fill-rule="nonzero" d="M86 0H0v106h86zm-1 1v104H1V1z"/></g><path fill="#2a4052" fill-opacity=".4" stroke="#3e6f84" d="m53.705 76.837 28.264 8.662-34.926-.01zm15.123-19.638 17.577 26.285L56.629 73.04zM48.996 61.07l1.737 13.611-6.474 8.406-1.737-13.61zm29.413-16.312 8.27 32.785-14.77-24.344zM65.616 55.355 54.044 70.382l-1.7-13.32zM75.4 42.65l-6.476 8.41-13.562 1.743 6.476-8.41z"/></g></svg>