<svg xmlns="http://www.w3.org/2000/svg" xmlns:xlink="http://www.w3.org/1999/xlink" viewBox="0 0 128 128"><defs><linearGradient id="d" x1="50%" x2="50%" y1="0%" y2="98.501%"><stop offset="0%" stop-color="#7fcb10"/><stop offset="100%" stop-color="#50a100"/></linearGradient><linearGradient id="g" x1="50%" x2="7.994%" y1="50%" y2="88.893%"><stop offset="0%" stop-color="#fff" stop-opacity=".1"/><stop offset="100%" stop-color="#fff" stop-opacity=".3"/></linearGradient><filter id="c" width="125%" height="120.2%" x="-12.5%" y="-8.3%" filterUnits="objectBoundingBox"><feOffset dy="2" in="SourceAlpha" result="shadowOffsetOuter1"/><feGaussianBlur in="shadowOffsetOuter1" result="shadowBlurOuter1" stdDeviation="3.5"/><feColorMatrix in="shadowBlurOuter1" values="0 0 0 0 0.46370117 0 0 0 0 0.679376132 0 0 0 0 0 0 0 0 0.5 0"/></filter><filter id="f" width="124.6%" height="124.6%" x="-12.3%" y="-8.8%" filterUnits="objectBoundingBox"><feOffset dy="1" in="SourceAlpha" result="shadowOffsetOuter1"/><feGaussianBlur in="shadowOffsetOuter1" result="shadowBlurOuter1" stdDeviation="1"/><feComposite in="shadowBlurOuter1" in2="SourceAlpha" operator="out" result="shadowBlurOuter1"/><feColorMatrix in="shadowBlurOuter1" values="0 0 0 0 0 0 0 0 0 0 0 0 0 0 0 0 0 0 0.05 0"/></filter><path id="a" d="M92 105a9 9 0 0 1-9 9H9a9 9 0 0 1-9-9V9a9 9 0 0 1 9-9h54.5L92 28.5z"/><path id="e" d="M63.5 0 92 28.5H72.5a9 9 0 0 1-9-9z"/></defs><g fill="none" fill-rule="evenodd"><g transform="translate(18 7)"><use xlink:href="#a" fill="#000" filter="url(#c)"/><use xlink:href="#a" fill="url(#d)"/></g><g transform="translate(18 7)"><use xlink:href="#e" fill="#000" filter="url(#f)"/><use xlink:href="#e" fill="url(#g)"/></g><path fill="#fff" d="M62 70v2h6v6h2v-6h6v-2h-6v-6h-2v6zm16 0v2h6v6h2v-6h6v-2h-6v-6h-2v6zm-38.905-9.787C37.015 62.782 36 66.07 36 70.128c0 4.06 1.015 7.347 3.095 9.865C41.277 82.664 44.321 84 48.28 84c3.247 0 5.835-.873 7.814-2.569 2.03-1.747 3.298-4.09 3.907-7.482h-4.06c-.608 4.573-3.196 6.609-7.66 6.609-2.64 0-4.669-.976-6.039-2.826-1.42-1.85-2.08-4.418-2.08-7.655q0-4.855 2.13-7.706c1.472-1.953 3.502-2.929 6.039-2.929 2.08 0 3.755.463 5.074 1.49 1.268 1.028 2.08 3.013 2.435 5.068h4.009c-.457-3.237-1.675-6.095-3.704-7.688C54.164 56.77 51.577 56 48.33 56c-3.907 0-7.002 1.387-9.235 4.213"/></g></svg>