<svg xmlns="http://www.w3.org/2000/svg" viewBox="0 0 64 64"><path d="M56.129 54.905 60 47.278V7.8C60 6.249 58.751 5 57.2 5H6.8A2.794 2.794 0 0 0 4 7.8v50.4A2.794 2.794 0 0 0 6.8 61h43.118l3.41-3.295c1.116-1.078 2.098-1.417 2.8-2.8" opacity=".2"/><path fill="#e4e4e4" d="M57.694 55.635 60 45.466V6.8C60 5.249 58.751 4 57.2 4H6.8A2.794 2.794 0 0 0 4 6.8v50.4A2.794 2.794 0 0 0 6.8 60h42.541l6.047-1.236c1.52-.31 1.962-1.616 2.306-3.13"/><path d="M12 10v7h1.557c.112-.312.247-.65.423-1.041q.447-1.006 1.03-1.895.582-.887 1.261-1.578c.2-.203.397-.26.59-.386h5.021v23.8h-4.94V38h14.117v-2.1h-4.941V12.1h5.02c.194.126.39.183.59.386q.68.69 1.262 1.578a13 13 0 0 1 1.03 1.895c.176.39.31.729.423 1.041H36v-7H13Z" font-size="40" letter-spacing="0" opacity=".1" style="line-height:1.25" transform="matrix(1.41667 0 0 1.42857 -2 -1.286)" word-spacing="0"/><path fill="#3261c2" d="M12 10v7h1.557c.112-.312.247-.65.423-1.041q.447-1.006 1.03-1.895.582-.887 1.261-1.578c.2-.203.397-.26.59-.386h5.021v23.8h-4.94V38h14.117v-2.1h-4.941V12.1h5.02c.194.126.39.183.59.386q.68.69 1.262 1.578a13 13 0 0 1 1.03 1.895c.176.39.31.729.423 1.041H36v-7H13Z" font-size="40" letter-spacing="0" style="line-height:1.25" transform="matrix(1.41667 0 0 1.42857 -2 -2.286)" word-spacing="0"/><path fill="#fff" d="M6.8 4C5.25 4 4 5.25 4 6.8v1C4 6.25 5.25 5 6.8 5h50.4C58.75 5 60 6.25 60 7.8v-1C60 5.25 58.75 4 57.2 4z" opacity=".2"/><circle cx="48" cy="48" r="16" opacity=".2"/><circle cx="48" cy="47" r="16" fill="#4f4f4f"/><path fill="#ffd000" d="M40 50.436V54h3.564l9-9-3.563-3.565zm15.717-8.578a.945.945 0 0 0 0-1.348l-2.227-2.227a.945.945 0 0 0-1.348 0l-1.862 1.874 3.564 3.564z"/></svg>