<svg xmlns="http://www.w3.org/2000/svg" viewBox="0 0 64 64"><path d="M23 44s-4 2-4 8c0 3 3 3 3 3h2l1 3s0 3 3 3c4 0 4-3 4-3s0 3 4 3c3 0 3-3 3-3l1-3h2s3 0 3-3c0-6-4-8-4-8h-9z" opacity=".2"/><path fill="#faa7b0" d="M23 43s-4 2-4 8c0 3 3 3 3 3h2l1 3s0 3 3 3c4 0 4-3 4-3s0 3 4 3c3 0 3-3 3-3l1-3h2s3 0 3-3c0-6-4-8-4-8z"/><ellipse cx="32" cy="28" opacity=".2" rx="22" ry="20"/><path fill="#fff" d="M23 43s-4 2-4 8c0 .142.013.27.025.398C19.285 45.875 23 44 23 44h18s3.715 1.875 3.975 7.398A4 4 0 0 0 45 51c0-6-4-8-4-8z" opacity=".2"/><ellipse cx="32" cy="27" fill="#fcd0d5" rx="22" ry="20"/><path fill="#b2e8fa" d="M17 32v9.596a22 20 0 0 0 6 3.634V32zm24 0v13.223a22 20 0 0 0 6-3.614V32z"/><path d="M20 23a6 6 0 0 0-6 6 6 6 0 0 0 6 6 6 6 0 0 0 6-6 6 6 0 0 0-6-6m24 0a6 6 0 0 0-6 6 6 6 0 0 0 6 6 6 6 0 0 0 6-6 6 6 0 0 0-6-6" opacity=".2"/><circle cx="20" cy="28" r="6" fill="#2f2f2f"/><circle cx="18" cy="26" r="2" fill="#fff"/><circle cx="44" cy="28" r="6" fill="#2f2f2f"/><circle cx="42" cy="26" r="2" fill="#fff"/><path d="M27 36h10s0-7-5-7-5 7-5 7" opacity=".2"/><path fill="#2f2f2f" d="M27 35h10s0-7-5-7-5 7-5 7"/><path fill="#fff" d="M28 33h8v1h-8z"/><path fill="#fff" d="M32 7a22 20 0 0 0-22 20 22 20 0 0 0 .023.586A22 20 0 0 1 32 8a22 20 0 0 1 21.977 19.414A22 20 0 0 0 54 27 22 20 0 0 0 32 7" opacity=".2"/></svg>