<svg xmlns="http://www.w3.org/2000/svg" viewBox="0 0 64 64"><circle cx="32" cy="33" r="28" opacity=".2"/><circle cx="32" cy="32" r="28" fill="#55458f"/><path fill="#fff" d="M32 4A28 28 0 0 0 4 32a28 28 0 0 0 .021.586A28 28 0 0 1 32 5a28 28 0 0 1 27.979 27.414L60 32A28 28 0 0 0 32 4" opacity=".1"/><path d="M32 14c-8 0-12.916 3.832-15 8-2 4-2 8-2 8v12s0 6 3 7.8c4.393 2.636 7 3.2 14 3.2s9.607-.564 14-3.2c3-1.8 3-7.8 3-7.8V30s0-4-2-8c-2.084-4.168-7-8-15-8" opacity=".2"/><path fill="#efefef" d="M32 13c-8 0-12.916 3.832-15 8-2 4-2 8-2 8v12s0 6 3 7.8c4.393 2.636 7 3.2 14 3.2s9.607-.564 14-3.2c3-1.8 3-7.8 3-7.8V29s0-4-2-8c-2.084-4.168-7-8-15-8"/><path d="M15 33v9s3 5 17 5 17-5 17-5v-9s0-5-3-5c-9 0-8 2-14 2s-5-2-14-2c-3 0-3 5-3 5" opacity=".1"/><path fill="#4f4f4f" d="M15 32v9s3 5 17 5 17-5 17-5v-9s0-5-3-5c-9 0-8 2-14 2s-5-2-14-2c-3 0-3 5-3 5"/><path fill="#fff" d="M43 27.092c-3.115.208-4.553.731-6 1.18v17.482c2.45-.251 4.415-.677 6-1.174z" opacity=".2"/><path fill="#fff" d="M32 13c-8 0-12.916 3.832-15 8-2 4-2 8-2 8v1s0-4 2-8c2.084-4.168 7-8 15-8s12.916 3.832 15 8c2 4 2 8 2 8v-1s0-4-2-8c-2.084-4.168-7-8-15-8" opacity=".2"/></svg>