<svg xmlns="http://www.w3.org/2000/svg" viewBox="0 0 64 64"><path d="M32 5C16.488 5 4 13.859 4 24.865V38.99c0 5.113 4.056 9.398 9 10.01v2c0 5.538 3.668 10 9 10h20c5.332 0 9-4.462 9-10v-2c4.944-.612 9-4.897 9-10.01V24.865C60 13.86 47.512 5 32 5" opacity=".2"/><path fill="#f0c3a5" d="M51 38v12c0 5.538-3.668 10-9 10H22c-5.332 0-9-4.462-9-10V38c0-14.872 38-14.872 38 0"/><path fill="#3f3f3f" d="M26 35.988c1.108 0 2 .892 2 2v11.995c0 1.107-.892 2-2 2s-2-.893-2-2V37.987c0-1.107.892-1.999 2-1.999m12 0c1.108 0 2 .892 2 2v11.995c0 1.107-.892 2-2 2s-2-.893-2-2V37.987c0-1.107.892-1.999 2-1.999"/><path d="M32 26.846c-9.5 0-19 3.718-19 11.154v8c0-3.392 2.607-6 6-6h26c3.393 0 6 2.608 6 6v-8c0-7.436-9.5-11.154-19-11.154" opacity=".1"/><path fill="#3e50b4" d="M32 4C16.488 4 4 12.858 4 23.865V37.99c0 5.113 4.056 9.398 9 10.01v-3c0-3.392 2.607-6 6-6h26c3.393 0 6 2.608 6 6v3c4.944-.612 9-4.898 9-10.01V23.863C60 12.858 47.512 4 32 4"/><path d="M54.608 13.127A7.976 7.973 0 0 0 48 21v3.914a7.98 7.98 0 0 0 8 7.997c1.46 0 2.824-.392 4-1.071v-6.966c0-4.402-2-8.46-5.392-11.747m-45.296.08C5.972 16.476 4 20.503 4 24.873v7.05a7.96 7.96 0 0 0 4 1.071c4.432 0 8-3.567 8-7.997v-3.914a7.97 7.97 0 0 0-6.688-7.878M30 14.002c-5.54 0-10 4.459-10 9.996s4.46 9.997 10 9.997h4c5.54 0 10-4.459 10-9.997s-4.46-9.996-10-9.996z" opacity=".1"/><path fill="#fff" d="M32 4C16.488 4 4 12.859 4 23.865v1C4 13.86 16.488 5 32 5s28 8.859 28 19.865v-1C60 12.86 47.512 4 32 4" opacity=".1"/><path fill="#2c9bff" d="M54.608 12.126A7.976 7.973 0 0 0 48 19.999v3.914a7.98 7.98 0 0 0 8 7.997c1.46 0 2.824-.392 4-1.071v-6.966c0-4.402-2-8.46-5.392-11.747m-45.296.08C5.972 15.475 4 19.502 4 23.872v7.05a7.96 7.96 0 0 0 4 1.071c4.432 0 8-3.567 8-7.997v-3.914a7.97 7.97 0 0 0-6.688-7.878M30 13.001c-5.54 0-10 4.459-10 9.996s4.46 9.997 10 9.997h4c5.54 0 10-4.459 10-9.997s-4.46-9.996-10-9.996z"/><path fill="#fff" d="M54.608 12.126A7.976 7.973 0 0 0 48 19.999v1a7.97 7.97 0 0 1 6.608-7.874C58 16.412 60 20.47 60 24.873v-1c0-4.402-2-8.46-5.392-11.747m-45.296.08C5.972 15.475 4 19.505 4 23.872v1c0-4.367 1.972-8.397 5.312-11.668A7.97 7.97 0 0 1 16 21.082v-1a7.966 7.966 0 0 0-6.688-7.877M30 13.001a9.976 9.972 0 0 0-9.988 10.496A9.976 9.972 0 0 1 30 14.001h4a9.976 9.972 0 0 1 9.988 9.496q.012-.248.012-.5a9.976 9.976 0 0 0-10-9.996z" opacity=".1"/><path fill="#fff" stroke="#000" stroke-linecap="round" stroke-linejoin="round" stroke-width="6" d="M41 15 23 33v0m0-18 18 18v0" opacity=".2"/><path fill="#fff" stroke="#fff" stroke-linecap="round" stroke-linejoin="round" stroke-width="6" d="M41 14 23 32v0m0-18 18 18v0"/></svg>