<svg xmlns="http://www.w3.org/2000/svg" xmlns:xlink="http://www.w3.org/1999/xlink" viewBox="0 0 96 96"><defs><filter id="a" width="144.1%" height="145.5%" x="-22.1%" y="-22.7%" filterUnits="objectBoundingBox"><feOffset dy="2" in="SourceAlpha" result="shadowOffsetOuter1"/><feGaussianBlur in="shadowOffsetOuter1" result="shadowBlurOuter1" stdDeviation="2"/><feColorMatrix in="shadowBlurOuter1" result="shadowMatrixOuter1" values="0 0 0 0 0 0 0 0 0 0 0 0 0 0 0 0 0 0 0.2 0"/><feMerge><feMergeNode in="shadowMatrixOuter1"/><feMergeNode in="SourceGraphic"/></feMerge></filter></defs><g fill="none" fill-rule="evenodd" stroke-width="6" filter="url(#a)" transform="translate(14 15)"><path stroke="#39b54a" d="M0 8V4a4 4 0 1 1 8 0v8a4 4 0 1 0 8 0V4a4 4 0 1 1 8 0v8a4 4 0 1 0 8 0V4a4 4 0 1 1 8 0v8a4 4 0 1 0 8 0V4a4 4 0 1 1 8 0v8a4 4 0 1 0 8 0V8"/><path stroke="#bf1e2d" d="M0 58v-4a4 4 0 1 1 8 0v8a4 4 0 1 0 8 0v-8a4 4 0 1 1 8 0v8a4 4 0 1 0 8 0v-8a4 4 0 1 1 8 0v8a4 4 0 1 0 8 0v-8a4 4 0 1 1 8 0v8a4 4 0 1 0 8 0v-4"/><path stroke="#f7941e" d="M4 33v-4a4 4 0 1 1 8 0v8a4 4 0 1 0 8 0v-8a4 4 0 1 1 8 0v8a4 4 0 1 0 8 0v-8a4 4 0 1 1 8 0v8a4 4 0 1 0 8 0v-8a4 4 0 1 1 8 0v8a4 4 0 1 0 8 0v-4"/></g></svg>