<svg xmlns="http://www.w3.org/2000/svg" viewBox="0 0 64 64"><path d="M41.67 41.088c-1.188.028-2.395.404-3.507.8l-.211.076-.13.185s-1.356 1.966-4.51 3.969c-3.152 2.002-8.056 3.995-15.117 3.898l-.447-.009-2.946 5.835 1.104.025c11.58.259 23.756-6.566 27.495-8.83l2.756-1.343-.078-.493c-.197-1.2-.579-2.118-1.142-2.789a3.65 3.65 0 0 0-2.086-1.223 5.3 5.3 0 0 0-1.18-.1M11.319 10.611A4.324 4.324 0 0 0 7 14.93v17.75A4.324 4.324 0 0 0 11.319 37H52.68A4.324 4.324 0 0 0 57 32.681V14.93a4.324 4.324 0 0 0-4.319-4.319z" opacity=".2"/><path d="M31.579 33c-1.653 0-3.16.123-4.342.49-.591.183-1.11.427-1.515.8-.405.37-.67.902-.67 1.47L25 57.352c-.003 1.136.883 2.051 2.064 2.666s2.742.982 4.463.982h.894c1.72 0 3.28-.367 4.46-.982s2.064-1.529 2.067-2.664L39 35.76c0-.568-.265-1.1-.67-1.47-.405-.373-.924-.617-1.515-.8-1.181-.367-2.689-.49-4.342-.49Z" opacity=".2"/><path fill="#be300d" d="M41.67 40.089c-1.188.028-2.395.404-3.507.8l-.211.076-.13.185s-1.356 1.966-4.51 3.968c-3.152 2.002-8.056 3.996-15.117 3.898l-.447-.008-2.946 5.835 1.104.025c11.58.258 23.756-6.566 27.495-8.83l2.756-1.343-.078-.494c-.197-1.199-.579-2.117-1.142-2.788a3.65 3.65 0 0 0-2.086-1.224 5.3 5.3 0 0 0-1.18-.1"/><path fill="#485e6b" d="M11.319 9.611A4.324 4.324 0 0 0 7 13.93v17.75A4.324 4.324 0 0 0 11.319 36H52.68A4.324 4.324 0 0 0 57 31.681V13.93a4.324 4.324 0 0 0-4.319-4.319Z"/><path d="M11.017 5C8.804 5 7 6.777 7 8.958v18.084C7 29.222 8.804 31 11.017 31H41v-4.105C42.618 29.109 45.498 31 45.498 31h7.485C55.196 31 57 29.223 57 27.042V8.958C57 6.778 55.196 5 52.983 5Z" opacity=".2"/><path fill="#9e6b39" d="M31.579 32c-1.653 0-3.16.123-4.342.49-.591.183-1.11.427-1.515.8-.405.37-.67.902-.67 1.47L25 56.352c-.003 1.136.883 2.051 2.064 2.666s2.742.982 4.463.982h.894c1.72 0 3.28-.367 4.46-.982s2.064-1.529 2.067-2.664L39 34.76c0-.568-.265-1.1-.67-1.47-.405-.373-.924-.617-1.515-.8-1.181-.367-2.689-.49-4.342-.49Z"/><path d="m39 41.015-14 7.381v5.658l14-7.38z" opacity=".2"/><path fill="#d4360e" d="m39 40.016-14 7.38v5.659l14-7.38Z"/><path fill="#a7b0b7" d="M11.017 4C8.804 4 7 5.777 7 7.958v18.084C7 28.222 8.804 30 11.017 30H41v-4.105C42.618 28.109 45.498 30 45.498 30h7.485C55.196 30 57 28.223 57 26.042V7.958C57 5.778 55.196 4 52.983 4Z"/><path d="m32.395 10-.465.531c-.411.468-1.41 1.281-2.078 2.63-.422.849-.562 2.008-.5 3.3-1.131.43-2.05 1.067-2.633 1.96-.978 1.498-1.416 3.255-2.125 4.388L24 23.75l.945-.043c1.606-.07 3.34-.01 4.953-.539.42-.137.802-.358 1.188-.621a4.1 4.1 0 0 1-.922-1.113c-.004-.007-.494.313-.766.402-1.182.387-1.746.022-3.078.07.538-1.143.451-1.791 1.09-2.77.485-.742 1.655-1.202 2.703-1.675 1.049-.473 2.608-.219 2.805-.16l-.035-1.16a4 4 0 0 0-.88-.164c-.976-.067-1.525.239-1.589.277-.037-1 .133-1.862.465-2.531.414-.836 1.386-1.41 1.504-1.477.466.937.895 1.167 1.21 2.152.192.598.547 1.497.04 3.622-.316 1.323-.722 1.642-1.137 1.992l.77.789c.248-.224.533-.54.761-.93.574-.98.535-1.86.528-1.965 0 0 1.079 1.108 1.523 1.895.576 1.02.79 1.685 1.324 2.793-1.186-.098-1.96.27-3.23-.254-.344-.142-1.063-.727-1.914-1.715s-1.271-1.598-1.492-2.242l-1.094.347c.013.042 1.278 3.007 2.547 3.782s5.377 1.323 6.703 1.414L40 24l-.707-.996c-.738-1.041-1.3-2.377-2.184-3.942-.526-.932-1.397-1.663-2.484-2.238 0 0 .116-1.652-.262-2.933-.404-1.373-1.383-2.193-1.718-3.172zM29 12c-1.37 1.803-4.787 3.708-6.48 4.203-.03.009-.074-.004-.102.004h-.031c-.428-.025-.87-.176-1.403-.492-1.56-.925-.93-.68-2.632-1.352l-.067-.027c-1.069-.345-3.208.315-3.582.434.363.046 1.892.303 2.957 1.257l.035.028.035.03c.312.242.792.415 1.34.524-.826.063-1.688.157-2.59.305-1.682.277-2.724.88-3.203 1.668-.479.789-.32 1.754.325 2.402 1.872 1.88 6.88.916 6.859-.96l-.008-.122c-.006-.04-.032-.11-.043-.152-.012-.042-.026-.106-.043-.148-.007-.017-.027-.042-.035-.059-.994-2.156-3.403-.858-4.207.113.864-.52 2.066-.62 2.488-.273l.035.031c.011.011.03.047.04.059.002.004.032.027.035.03.002.005-.002.024 0 .028.002.005.002.027.004.031.005.015.031.044.035.06l.004.03v.032l.004.027c0 1.55-4.022 1.57-4.368.207a1.7 1.7 0 0 1-.023-.84c.006-.024.02-.067.027-.09.009-.022.022-.072.031-.093l.028-.06c.339-.592 1.25-.791 2.277-.96 2.104-.346 4.356-.008 6.207-.23 2.801-.337 4.038-.735 5.57-2.75zm6 0 .48 2.895c1.533 2.015 2.77 2.413 5.57 2.75 1.852.222 4.104-.116 6.208.23 1.027.169 1.938.368 2.277.96.008.015.02.045.027.06.01.021.02.07.028.093s.024.066.031.09c.057.226.06.509-.023.84-.346 1.364-4.369 1.343-4.368-.207l.004-.027v-.062c.004-.016.035-.045.04-.06.001-.004.002-.026.004-.03.002-.005-.003-.024 0-.028.002-.004.032-.027.035-.031.009-.012.028-.048.039-.059l.035-.031c.422-.348 1.624-.247 2.488.273-.804-.97-3.213-2.27-4.207-.113-.008.017-.028.042-.035.059-.017.042-.031.106-.043.148-.01.041-.037.112-.043.152-.004.033-.007.09-.008.121-.02 1.877 4.987 2.842 6.86.961.645-.648.803-1.613.324-2.402s-1.521-1.391-3.203-1.668a30 30 0 0 0-2.59-.305c.548-.109 1.028-.282 1.34-.523l.035-.031.035-.028c1.065-.954 2.594-1.211 2.957-1.257-.374-.12-2.513-.78-3.582-.434-.019.006-.053.02-.07.027-1.704.671-1.069.427-2.63 1.352-.532.316-.974.467-1.402.492h-.031c-.028-.008-.072.005-.102-.004-1.693-.495-5.11-2.4-6.48-4.203" opacity=".2"/><path fill="#263742" d="m15 36 6-6v6Z"/><path fill="#fff" d="M29 11c-1.37 1.803-4.786 3.71-6.48 4.205-.03.009-.072-.007-.1.001h-.034c-.427-.024-.87-.177-1.403-.493-1.56-.925-.926-.679-2.63-1.35l-.068-.029c-1.07-.345-3.209.319-3.583.437.362.047 1.892.301 2.958 1.256l.035.03.035.03c.312.24.79.414 1.339.523a30 30 0 0 0-2.589.304c-1.682.277-2.722.877-3.201 1.666s-.321 1.755.324 2.403c1.872 1.88 6.88.916 6.859-.961l-.008-.12c-.006-.041-.032-.109-.043-.15-.012-.042-.027-.108-.043-.15-.008-.017-.03-.043-.038-.06-.994-2.156-3.402-.856-4.206.115.865-.52 2.069-.62 2.49-.273.009.007.029.022.036.03.01.01.028.047.037.06.003.003.033.025.036.029s0 .025.001.03c.002.004 0 .025.002.03.005.014.034.045.038.06 0 .005 0 .025.002.03l.002.03.001.03c.002 1.55-4.021 1.57-4.367.206a1.7 1.7 0 0 1-.021-.842l.027-.09c.009-.023.018-.07.028-.09.007-.015.022-.048.03-.061.339-.593 1.25-.793 2.277-.962 2.105-.346 4.353-.008 6.205-.23 2.801-.337 4.04-.734 5.572-2.75zm3.396-2-.465.53c-.411.467-1.41 1.283-2.08 2.631-.42.85-.56 2.009-.5 3.301-1.13.43-2.048 1.068-2.631 1.962-.978 1.497-1.417 3.25-2.126 4.383l-.594.942.944-.04c1.605-.071 3.34-.011 4.953-.54.42-.137.804-.358 1.19-.62a4.1 4.1 0 0 1-.922-1.117c-.004-.006-.494.315-.765.404-1.182.388-1.747.023-3.078.071.538-1.143.449-1.791 1.087-2.77.485-.742 1.654-1.202 2.703-1.675s2.608-.218 2.805-.16l-.034-1.16a4 4 0 0 0-.88-.166c-.977-.067-1.526.24-1.59.278-.037-1 .136-1.862.468-2.531.414-.836 1.385-1.41 1.503-1.477.467.936.895 1.168 1.21 2.154.191.597.547 1.494.04 3.618-.316 1.323-.722 1.645-1.137 1.994l.77.79c.248-.224.53-.54.76-.931.573-.981.533-1.86.526-1.965 0 0 1.082 1.107 1.526 1.894.576 1.021.787 1.686 1.322 2.794-1.187-.098-1.96.268-3.23-.256-.344-.142-1.06-.723-1.912-1.712-.851-.988-1.273-1.597-1.494-2.242l-1.095.347c.013.04 1.279 3.007 2.548 3.782s5.38 1.323 6.705 1.413L40 23l-.706-.996c-.737-1.041-1.304-2.376-2.186-3.94-.527-.934-1.394-1.667-2.481-2.242 0 0 .114-1.65-.263-2.931-.405-1.373-1.386-2.193-1.721-3.172z"/><path d="M25 39.895v5.504l14 4.49v-5.505z" opacity=".2"/><path fill="#ef3d10" d="M25 38.895V44.4l14 4.489v-5.504z"/><path fill="#758087" d="m41 25.895 2.89 6.356L41 30Z"/><path fill="#fff" d="M35 11c1.37 1.803 4.786 3.71 6.48 4.205.03.009.072-.007.1.001h.034c.427-.024.87-.177 1.403-.493 1.56-.925.926-.679 2.63-1.35l.068-.029c1.07-.345 3.209.319 3.583.437-.362.047-1.892.301-2.958 1.256l-.035.03-.035.03c-.312.24-.79.414-1.339.523a30 30 0 0 1 2.589.304c1.682.277 2.722.877 3.201 1.666s.321 1.755-.324 2.403c-1.872 1.88-6.88.916-6.859-.961.001-.032.004-.088.008-.12.006-.041.032-.109.043-.15.012-.042.027-.108.043-.15.008-.017.03-.043.038-.06.993-2.156 3.401-.856 4.206.115-.865-.52-2.069-.62-2.49-.273-.009.007-.029.022-.036.03-.01.01-.028.047-.037.06-.003.003-.033.025-.036.029s0 .025-.002.03l-.001.03c-.005.014-.034.045-.038.06l-.002.03-.002.03-.001.03c-.002 1.55 4.021 1.57 4.367.206.083-.33.078-.615.021-.842l-.027-.09c-.009-.023-.018-.07-.028-.09-.007-.015-.022-.048-.03-.061-.339-.593-1.25-.793-2.277-.962-2.105-.346-4.353-.008-6.205-.23-2.801-.337-4.04-.734-5.572-2.75z"/><path fill="#fff" d="M11.016 4C8.802 4 7 5.776 7 7.957v1C7 6.776 8.802 5 11.016 5h41.968C55.198 5 57 6.776 57 8.957v-1C57 5.776 55.198 4 52.984 4z" opacity=".2"/><path fill="#fff" d="M31.578 32c-1.653 0-3.158.122-4.34.488-.59.184-1.11.43-1.515.801s-.672.905-.672 1.473v1c0-.568.267-1.101.672-1.473s.924-.617 1.515-.8c1.182-.367 2.687-.489 4.34-.489h.895c1.653 0 3.162.122 4.343.488.591.184 1.111.43 1.516.801.4.368.66.894.666 1.455l.002-.982c0-.568-.263-1.101-.668-1.473s-.925-.617-1.516-.8c-1.181-.367-2.69-.489-4.343-.489Z" opacity=".1"/><path fill="#fff" d="M25 38.895v1l14 4.492v-1z" opacity=".2"/></svg>