<svg xmlns="http://www.w3.org/2000/svg" viewBox="0 0 256 256"><g fill="#924e96" data-iconColor="ThunderClient"><path d="M117.5.6C85.8 4 59.5 16.4 37.9 37.9 13.3 62.5.6 93.2.6 128s12.7 65.5 37.3 90.1 55.3 37.3 90.1 37.3 65.5-12.7 90.1-37.3 37.3-55.3 37.3-90.1-12.7-65.5-37.3-90.1c-18.7-18.6-41.4-30.6-66.9-35.3-8.7-1.7-26.9-2.7-33.7-2M154 19.9c33.7 9 59 29.5 73.9 59.9 8.2 16.6 10.6 27.6 10.6 48.2 0 10.3-.5 18.6-1.3 22-8.7 35.9-29.5 62.5-61 77.9-16.6 8.2-27.6 10.6-48.2 10.6s-31.6-2.4-48.2-10.6c-31.5-15.4-52.3-42-61-77.9-.8-3.4-1.3-11.7-1.3-22 0-16.7.6-20.9 4.7-34C34.1 56.6 67.9 26.4 106 19.1c3-.6 6.4-1.3 7.5-1.5 1.1-.3 9-.3 17.5-.1 11.4.2 17.5.9 23 2.4"/><path d="M129.7 35.2c-1.4 1.3-16.8 23.6-34.2 49.7-35.1 52.3-34.1 50.3-27.5 56.3l3 2.8h38v2.9c0 1.7-1.6 17.6-3.5 35.5-2.2 21-3.2 33.4-2.6 34.8 2.1 5.6 10.3 8.3 14.5 4.8 1.4-1.1 51.6-72.2 69.9-98.9 4.6-6.6 5-11.9 1.2-15.6l-2.4-2.5h-23.5c-12.9 0-23.7-.3-23.9-.8-.2-.4 1.3-14.4 3.3-31.2 2.4-20 3.3-31.5 2.8-33.5-1.7-6.3-10.2-8.7-15.1-4.3"/></g></svg>