<svg xmlns="http://www.w3.org/2000/svg" viewBox="0 0 64 64"><circle cx="32" cy="32" r="24" fill="#fafafa"/><path d="M32 5A28 28 0 0 0 4 33a28 28 0 0 0 28 28 28 28 0 0 0 28-28h-8a20 20 0 0 1-20 20 20 20 0 0 1-20-20 20 20 0 0 1 20-20Z" opacity=".2"/><path fill="#248afd" d="M32 4A28 28 0 0 0 4 32a28 28 0 0 0 28 28 28 28 0 0 0 28-28h-8a20 20 0 0 1-20 20 20 20 0 0 1-20-20 20 20 0 0 1 20-20z"/><path fill="#fff" d="M32 4A28 28 0 0 0 4 32a28 28 0 0 0 .035.5A28 28 0 0 1 32 5zm20 28a20 20 0 0 1-20 20 20 20 0 0 1-19.957-19.5A20 20 0 0 0 12 33a20 20 0 0 0 20 20 20 20 0 0 0 20-20h7.928A28 28 0 0 0 60 32z" opacity=".2"/><path d="M56 12 31 32l-8-7-5 6 13 11 30-24Z" opacity=".2"/><path fill="#fdd835" d="M56 11 31 31l-8-7-5 6 13 11 30-24Z"/><path fill="#fff" d="M56 11 31 31l-8-7-5 6 .488.414L23 25l8 7 25-20 4.5 5.4.5-.4z" opacity=".2"/></svg>