<svg xmlns="http://www.w3.org/2000/svg" viewBox="0 0 16 16"><path fill="#3d5afe" d="M10.213 14.498A1.506 1.502 0 0 1 8.707 16a1.506 1.502 0 0 1-1.506-1.502 1.506 1.502 0 0 1 1.506-1.502 1.506 1.502 0 0 1 1.506 1.502m2.942-12.997a1.506 1.502 0 0 1-1.506 1.502A1.506 1.502 0 0 1 10.143 1.5a1.506 1.502 0 0 1 1.506-1.502A1.506 1.502 0 0 1 13.154 1.5M7.478 12.013c-2.555 0-4.634-2.073-4.634-4.62s2.08-4.62 4.634-4.62 4.633 2.072 4.633 4.62-2.079 4.62-4.633 4.62m0-6.93a2.316 2.316 0 0 0-2.317 2.31c0 1.273 1.04 2.31 2.317 2.31a2.316 2.316 0 0 0 2.316-2.31 2.315 2.315 0 0 0-2.316-2.31" data-iconColor="Tikui"/></svg>