<svg xmlns="http://www.w3.org/2000/svg" viewBox="0 0 64 64"><rect width="56" height="56" x="4" y="5" opacity=".2" rx="2.8" ry="2.8"/><path fill="#00a1f1" d="m6.8 4 43.833 6.567c1.552 0 2.8 1.248 2.8 2.8L60 57.2c0 1.551-1.249 2.8-2.8 2.8H6.8A2.794 2.794 0 0 1 4 57.2V6.8C4 5.249 5.249 4 6.8 4"/><path fill="#008aee" d="M6.8 4c-.776 0-1.476.311-1.982.818l54.364 54.364A2.8 2.8 0 0 0 60 57.2V6.8C60 5.249 58.751 4 57.2 4Z"/><path d="M10 11v12h12V11Zm4 4h4v4h-4zm14 0v4h26v-4ZM10 27v12h12V27Zm4 4h4v4h-4zm14 0v4h26v-4ZM10 43v12h12V43Zm4 4h4v4h-4zm14 0v4h26v-4z" opacity=".2"/><path fill="#fff" d="M10 10v12h12V10Zm4 4h4v4h-4zm14 0v4h26v-4ZM10 26v12h12V26Zm4 4h4v4h-4zm14 0v4h26v-4ZM10 42v12h12V42Zm4 4h4v4h-4zm14 0v4h26v-4z"/><path fill="#fff" d="M6.8 4C5.25 4 4 5.25 4 6.8v1C4 6.25 5.25 5 6.8 5h50.4C58.75 5 60 6.25 60 7.8v-1C60 5.25 58.75 4 57.2 4z" opacity=".1"/></svg>