<svg xmlns="http://www.w3.org/2000/svg" viewBox="0 0 64 64"><rect width="56" height="56" x="4" y="5" opacity=".2" rx="2.8" ry="2.8"/><path fill="#00a1f1" d="m6.8 4 43.833 6.567c1.552 0 2.8 1.248 2.8 2.8L60 57.2c0 1.551-1.249 2.8-2.8 2.8H6.8A2.794 2.794 0 0 1 4 57.2V6.8C4 5.249 5.249 4 6.8 4"/><path fill="#008aee" d="M6.8 4c-.776 0-1.476.311-1.982.818l54.364 54.364A2.8 2.8 0 0 0 60 57.2V6.8C60 5.249 58.751 4 57.2 4Z"/><path d="m33.578 13-1.812 1.444-1.866-1.375-1.375 1.861-2.16-.844-.847 2.157-2.303-.26-.26 2.303-2.29.347.343 2.295-2.125.926.93 2.125L18 25.422l1.443 1.813-1.375 1.865 1.862 1.375-.844 2.16 2.156.848-.26 2.303 2.303.26.348 2.29 2.295-.343.926 2.125 2.125-.93L30.422 41l1.812-1.443 1.866 1.375 1.375-1.861 2.16.843.847-2.156 2.303.26.26-2.303 2.29-.347-.343-2.295 2.125-.926-.93-2.125L46 28.579l-1.443-1.813 1.375-1.865-1.862-1.375.844-2.16-2.156-.848.26-2.303-2.303-.26-.348-2.29-2.295.343-.926-2.125-2.125.93zM32 20a7 7 0 0 1 7 7 7 7 0 0 1-7 7 7 7 0 0 1-7-7 7 7 0 0 1 7-7m-6.926 19.737-.074.011V52.6l7-5.6 7 5.6V40.473l-.572 1.455-2.463-.963-1.57 2.125-2.127-1.57-2.067 1.648-1.646-2.066-2.426 1.059z" opacity=".2"/><path fill="#fff" d="m33.578 12-1.812 1.443-1.866-1.375-1.375 1.862-2.16-.844-.847 2.156-2.303-.26-.26 2.303-2.29.348.343 2.295-2.125.926.93 2.125L18 24.422l1.443 1.812-1.375 1.866 1.862 1.375-.844 2.16 2.156.847-.26 2.303 2.303.26.348 2.29 2.295-.343.926 2.125 2.125-.93L30.422 40l1.812-1.443 1.866 1.375 1.375-1.862 2.16.844.847-2.156 2.303.26.26-2.303 2.29-.348-.343-2.295 2.125-.926-.93-2.125L46 27.578l-1.443-1.812 1.375-1.866-1.862-1.375.844-2.16-2.156-.847.26-2.303-2.303-.26-.348-2.29-2.295.343-.926-2.125-2.125.93zM32 19a7 7 0 0 1 7 7 7 7 0 0 1-7 7 7 7 0 0 1-7-7 7 7 0 0 1 7-7m-6.926 19.736-.074.012V51.6l7-5.6 7 5.6V39.473l-.572 1.455-2.463-.963-1.57 2.125-2.127-1.57-2.067 1.648-1.646-2.066-2.426 1.058z"/><path fill="#fff" d="M6.8 4C5.25 4 4 5.25 4 6.8v1C4 6.25 5.25 5 6.8 5h50.4C58.75 5 60 6.25 60 7.8v-1C60 5.25 58.75 4 57.2 4z" opacity=".1"/></svg>