<svg xmlns="http://www.w3.org/2000/svg" viewBox="0 0 64 64"><rect width="56" height="56" x="4" y="5" opacity=".2" rx="4.2"/><rect width="56" height="56" x="4" y="4" fill="#3f3f3f" rx="4.2"/><path d="M32 53c-11.028 0-20-8.972-20-20s8.972-20 20-20 20 8.971 20 20-8.972 20-20 20m4.172-35.05-2.955 13.86a7.8 7.8 0 0 0-.23 1.837c0 1.604.746 2.12 2.35 2.12 2.237 0 4.3-2.182 5.163-5.05h2.408c-3.27 9.35-8.947 10.614-12.043 10.614-3.444 0-6.137-2.07-6.137-6.886 0-1.089.17-2.352.457-3.727l2.73-12.795C21.271 19.728 16.363 25.794 16.363 33c0 8.618 7.014 15.632 15.637 15.632 8.622 0 15.637-7.014 15.637-15.632 0-7.176-4.864-13.218-11.465-15.05" opacity=".2"/><path fill="#ff7d00" d="M32 52c-11.028 0-20-8.972-20-20s8.972-20 20-20 20 8.971 20 20-8.972 20-20 20m4.172-35.05-2.955 13.86a7.8 7.8 0 0 0-.23 1.837c0 1.604.746 2.12 2.35 2.12 2.237 0 4.3-2.182 5.163-5.05h2.408c-3.27 9.35-8.947 10.614-12.043 10.614-3.444 0-6.137-2.07-6.137-6.886 0-1.089.17-2.352.457-3.727l2.73-12.795C21.271 18.728 16.363 24.794 16.363 32c0 8.618 7.014 15.632 15.637 15.632 8.622 0 15.637-7.014 15.637-15.632 0-7.176-4.864-13.218-11.465-15.05"/><path fill="#fff" d="M8.2 4A4.19 4.19 0 0 0 4 8.2v1A4.19 4.19 0 0 1 8.2 5h47.6A4.19 4.19 0 0 1 60 9.2v-1A4.19 4.19 0 0 0 55.8 4z" opacity=".1"/><path fill="#fff" d="M32 12c-11.028 0-20 8.972-20 20 0 .168.008.333.012.5C12.279 21.702 21.14 13 32 13s19.721 8.702 19.988 19.5c.004-.167.012-.332.012-.5 0-11.028-8.972-20-20-20m-4.084 5.924c-.077.02-.152.05-.229.072l-2.5 11.724c-.287 1.375-.457 2.638-.457 3.726 0 .175.01.339.017.506.042-.972.194-2.058.44-3.232zM40.5 29.719c-.862 2.867-2.926 5.049-5.164 5.049-1.426 0-2.17-.413-2.318-1.631-.013.173-.032.352-.032.511 0 1.604.746 2.12 2.35 2.12 2.238 0 4.302-2.182 5.164-5.05h2.035q.191-.483.373-1zm-24.125 2.736q-.01.271-.012.545c0 8.618 7.015 15.633 15.637 15.633S47.637 41.618 47.637 33q-.002-.273-.012-.543C47.382 40.864 40.469 47.633 32 47.633s-15.383-6.77-15.625-15.178" opacity=".2"/></svg>