<svg xmlns="http://www.w3.org/2000/svg" xmlns:xlink="http://www.w3.org/1999/xlink" viewBox="0 0 16 16"><defs><path id="a" d="M2.881 11.017v.533h-.225q-.908 0-1.217-.274-.306-.274-.306-1.093v-.885q0-.56-.197-.774Q.74 8.31.222 8.31H0v-.53h.222q.521 0 .714-.21.197-.215.197-.767v-.889q0-.819.306-1.089.31-.274 1.217-.274h.225v.53h-.247q-.514 0-.67.163t-.157.685v.918q0 .582-.168.845-.164.263-.564.355.404.1.568.363t.164.841v.919q0 .522.156.685.157.163.67.163zm2.014 0h.255q.51 0 .663-.16.157-.159.157-.688V9.25q0-.578.164-.84.164-.264.568-.364-.404-.092-.568-.355t-.164-.845v-.918q0-.526-.157-.685-.153-.163-.663-.163h-.255v-.53h.23q.907 0 1.21.274.305.27.305 1.089v.889q0 .552.197.767.197.21.714.21h.226v.53H7.55q-.517 0-.714.215t-.197.774v.885q0 .819-.306 1.093-.302.274-1.21.274h-.229zM8.223 4.45h5.472v.625H8.223zm0 1.274H16v.625H8.223zm0 1.276h3.25v.626h-3.25zm4.032 0h2.502v.626h-2.502zM8.223 8.274h5.472v.625H8.223zm0 1.276H9.61v.624H8.223zm2.167 0H16v.624h-5.61zm-2.167 1.275h2.903v.625H8.223zm3.683 0h1.396v.625h-1.396zm2.18 0H16v.625h-1.914z"/><mask id="b"><path fill="#fff" d="M0 2h16v12H0z"/><use xlink:href="#a"/></mask></defs><g mask="url(#b)"><path fill="gray" d="M0 2h16v12H0z" data-iconColor="Tokeignore" data-themed="true"/><use xlink:href="#a" fill="#fff"/></g></svg>