<svg xmlns="http://www.w3.org/2000/svg" viewBox="0 0 24 24"><g fill="#303030"><path d="M12.715 5.29c-1.61 0-3.078.65-4.16 1.696A6.5 6.5 0 0 1 11 6.504a6.5 6.5 0 0 1 6.5 6.5 6.5 6.5 0 0 1-.482 2.443 5.97 5.97 0 0 0 1.697-4.158c0-3.293-2.707-6-6-6"/><path d="M11 8c-2.741 0-5 2.259-5 5s2.259 5 5 5 5-2.259 5-5-2.259-5-5-5m0-1c3.293 0 6 2.707 6 6s-2.707 6-6 6-6-2.707-6-6 2.707-6 6-6"/><path d="M11 12c-.546 0-1 .454-1 1s.454 1 1 1 1-.454 1-1-.454-1-1-1m0-1c1.098 0 2 .902 2 2s-.902 2-2 2-2-.902-2-2 .902-2 2-2"/></g></svg>