<svg xmlns="http://www.w3.org/2000/svg" viewBox="0 0 24 24"><path fill="#303030" d="m11.09 6.188-5 8.66 3.465 2 5-8.66zM9.397 17.049l-.007.005.023-.019zm1.552-12.006a.3.3 0 0 1 .21.03l4.33 2.5c.24.138.21.635-.067 1.114l-5 8.66c-.277.48-.694.756-.934.618l-4.33-2.5c-.24-.139-.21-.638.067-1.117l5-8.66c.207-.36.493-.604.724-.645m4.208 9.47c-.087.11-.731.894-.87 1.083-.159.215-.244.365-.284.506l-.004.037c.044.42.652.859 1.497.859.852 0 1.463-.446 1.498-.87l-.002-.024-.003-.023c-.017-.08-.103-.241-.284-.486-.14-.19-.784-.975-.87-1.084a13 13 0 0 1-.338-.449q-.157.218-.34.45m1.84 1.607v-.016c-.001-.003-.001.004-.002.01zm0-.016v-.01zm.004.076v-.004zm-1.505-4.182c.104.284.243.561.395.834.77 1.35 1.975 2.275 2.091 3.127.004.013.012.026.014.039-.007.033 0 .063 0 .092 0 1.054-1.12 1.908-2.5 1.908s-2.5-.854-2.5-1.908c0-.03.01-.059.012-.088-.01-.017-.001-.03.002-.043.116-.852 1.321-1.775 2.092-3.125.15-.273.29-.552.394-.836"/></svg>