<svg xmlns="http://www.w3.org/2000/svg" viewBox="0 0 24 24"><g fill="#303030"><path d="M18.004 17.994V6.001L13.877 6a7.998 7.998 0 0 1 2.37 11.994zm.073-11.972-.003-.001zM8.014 6v.042L8.018 6zm0-.032v-.02c-.019.024-.053.05-.009.052zm.006-.03c-.003.009-.006.024-.006-.005v.015zm-.083.38.077-.024v-.149zM8.012 5h9.992s1 .002 1 .936V18.06c0 .699-.563.89-.844.933-.093.015-.156 0-.156 0h-4.399A7 7 0 0 0 17.004 13a7 7 0 0 0-7-7 7 7 0 0 0-2.99.68c0-.086-.002-.743 0-.746 0 0-.001-.934.998-.934"/><path d="M10 8c-2.741 0-5 2.259-5 5s2.259 5 5 5 5-2.259 5-5-2.259-5-5-5m0-1c3.293 0 6 2.707 6 6s-2.707 6-6 6-6-2.707-6-6 2.707-6 6-6"/><path d="M10 12c-.546 0-1 .454-1 1s.454 1 1 1 1-.454 1-1-.454-1-1-1m0-1c1.098 0 2 .902 2 2s-.902 2-2 2-2-.902-2-2 .902-2 2-2"/></g></svg>