<svg xmlns="http://www.w3.org/2000/svg" viewBox="0 0 24 24"><path fill="#303030" d="M13.549 5c0 6.125 4.393 7.01 3.273 10.5-.638 1.99-2.197 3.5-4.933 3.498 1.342-.008 2.116-.759 2.433-1.748.56-1.745-1.636-2.187-1.636-5.25-2.046.875-3.274 2.925-3.274 4.375 0 1.432 1.076 2.591 2.408 2.62-2.667-.055-4.814-2.38-4.814-5.245 0-2.9 2.453-7 6.543-8.75M8.437 15.723q.849-3.718 5.27-5.2c-.291 3.015.996 4.325 1.256 4.654.259.33.431.974.436 1.062 1.5-2.427-.177-3.719-1.316-5.47-1.139-1.752-1.43-4.159-1.44-4.154-1.118.585-2.313 1.934-2.688 2.376q-2.894 3.855-1.518 6.732"/></svg>