<svg xmlns="http://www.w3.org/2000/svg" viewBox="0 0 24 24"><path fill="#536076" d="M12.821 6.068a1.001 1.001 0 0 0-.163 1.987 1 1 0 1 0 .163-1.987m-.01-1a2 2 0 1 1 .023 3.997 2 2 0 0 1-.023-3.997M8.586 6.414a1 1 0 1 1 0 2 1 1 0 0 1 0-2m8.318.973a1 1 0 1 1 0 2 1 1 0 0 1 0-2m-10.82 3.63a1 1 0 1 0 1.973.328 1 1 0 0 0-1.973-.328m.975-1.835a2.003 2.003 0 0 1 1.986 2.328 2 2 0 1 1-1.986-2.328m5.185 1.425a1 1 0 1 1 0 2 1 1 0 0 1 0-2m3.705 2.047a1 1 0 1 0 1.974.328 1 1 0 0 0-1.974-.328m.975-1.836a2.003 2.003 0 0 1 1.986 2.328 2 2 0 1 1-1.986-2.328M6.996 14.4a1 1 0 1 1 0 2 1 1 0 0 1 0-2m3.203 2.37a1 1 0 1 0 1.973.327 1 1 0 0 0-1.973-.328m.973-1.838a2.004 2.004 0 0 1 1.986 2.328 2 2 0 1 1-1.986-2.328M15.762 16a1 1 0 1 1 0 2 1 1 0 0 1 0-2"/></svg>