<svg xmlns="http://www.w3.org/2000/svg" xmlns:xlink="http://www.w3.org/1999/xlink" viewBox="0 0 32 32"><defs><filter id="a" width="1.214" height="1.273" x="-.107" y="-.137" color-interpolation-filters="sRGB"><feGaussianBlur stdDeviation="1.025"/></filter></defs><path d="M3 8.203a1 1 0 0 0-1 1v16a1 1 0 0 0 1 1h1a1 1 0 0 0 1-1v-16a1 1 0 0 0-1-1zm13.977 2a1 1 0 0 0-.49.143l-10 6a1 1 0 0 0 0 1.715l10 6a1 1 0 0 0 1.28-.217l1.801-2.16a1 1 0 0 0-.127-1.409A4 4 0 0 1 18 17.205v-.002a4 4 0 0 1 1.441-3.068 1 1 0 0 0 .13-1.41l-1.803-2.162a1 1 0 0 0-.791-.36m-.198 2.297.758.908c-.91 1.074-1.535 2.364-1.537 3.793v.002c0 1.43.624 2.722 1.535 3.797l-.756.904-7.836-4.7ZM22 14.203c-1.645 0-3 1.355-3 3s1.355 3 3 3 3-1.355 3-3-1.355-3-3-3m0 2c.564 0 1 .436 1 1s-.436 1-1 1-1-.436-1-1 .436-1 1-1" color="#000" enable-background="accumulate" filter="url(#a)" font-family="sans-serif" font-weight="400" opacity=".35" overflow="visible" paint-order="stroke fill markers" style="line-height:normal;font-variant-ligatures:normal;font-variant-position:normal;font-variant-caps:normal;font-variant-numeric:normal;font-variant-alternates:normal;font-feature-settings:normal;text-indent:0;text-align:start;text-decoration-line:none;text-decoration-style:solid;text-decoration-color:#000;text-transform:none;text-orientation:mixed;white-space:normal;shape-padding:0;isolation:auto;mix-blend-mode:normal;solid-color:#000;solid-opacity:1" transform="matrix(0 1 1 0 -1.203 1)"/><path fill="#fff" d="M7 3a1 1 0 0 1 1-1h16a1 1 0 0 1 1 1v1a1 1 0 0 1-1 1H8a1 1 0 0 1-1-1Zm2 13.977a1 1 0 0 1 .143-.49l6-10a1 1 0 0 1 1.714 0l6 10a1 1 0 0 1-.216 1.28l-2.16 1.801a1 1 0 0 1-1.409-.127A4 4 0 0 0 16.002 18H16a4 4 0 0 0-3.068 1.441 1 1 0 0 1-1.41.13l-2.163-1.803A1 1 0 0 1 9 16.977m2.297-.198.908.758c1.074-.91 2.364-1.535 3.793-1.537H16c1.43 0 2.722.624 3.797 1.535l.904-.756L16 8.943ZM13 22c0-1.645 1.355-3 3-3s3 1.355 3 3-1.355 3-3 3-3-1.355-3-3m2 0c0 .564.436 1 1 1s1-.436 1-1-.436-1-1-1-1 .436-1 1" color="#000" enable-background="accumulate" font-family="sans-serif" font-weight="400" overflow="visible" paint-order="stroke fill markers" style="line-height:normal;font-variant-ligatures:normal;font-variant-position:normal;font-variant-caps:normal;font-variant-numeric:normal;font-variant-alternates:normal;font-feature-settings:normal;text-indent:0;text-align:start;text-decoration-line:none;text-decoration-style:solid;text-decoration-color:#000;text-transform:none;text-orientation:mixed;white-space:normal;shape-padding:0;isolation:auto;mix-blend-mode:normal;solid-color:#000;solid-opacity:1"/><g paint-order="stroke fill markers" transform="matrix(0 1 1 0 0 0)"><path fill="#282a33" d="M3 8v16h1V8Zm14 2L7 16l10 6 1.8-2.16A5 5 0 0 1 17 16a5 5 0 0 1 1.803-3.838Z"/><circle cx="22" cy="16" r="2" fill="#5294e2"/></g></svg>