<svg xmlns="http://www.w3.org/2000/svg" viewBox="0 0 64 64"><path d="M11.41 5c-.375 0-.536 3.91-.3 7.37.32 4.724 1.183 7.983 2.718 9.298.774.664 3.312 1.52 4.397 1.52.85 0 1.176.567 1.005 1.539-.077.442-.327 2.208-.943 4.611-1.076 4.2-1.45 4.425-1.23 5.816.264 1.67 1.796 4.188 2.941 5.495.076.087.32.291.565.51a17.5 17.5 0 0 1 6.492-9.674l.77-3.022c.515-2.472 1.05-5.227 1.189-5.363.173-.17 1.918.088 6.459 0 7.378-.144 7.886-.085 9.564-1.486.986-.824 1.96-2.063 1.963-3.004.002-.554-.033-.566-1.803-.707-11.083-.885-21.042-4.813-30.447-10.909C13.059 5.898 11.556 5 11.41 5" opacity=".2"/><path fill-rule="evenodd" d="M37.5 30A15.5 15.5 0 0 0 22 45.5 15.5 15.5 0 0 0 37.5 61 15.5 15.5 0 0 0 53 45.5 15.5 15.5 0 0 0 37.5 30" opacity=".2"/><path fill="#4f4f4f" fill-rule="evenodd" d="M37.5 29A15.5 15.5 0 0 0 22 44.5 15.5 15.5 0 0 0 37.5 60 15.5 15.5 0 0 0 53 44.5 15.5 15.5 0 0 0 37.5 29"/><path fill-rule="evenodd" d="M37.5 37a8.5 8.5 0 0 1 8.5 8.5 8.5 8.5 0 0 1-8.5 8.5 8.5 8.5 0 0 1-8.5-8.5 8.5 8.5 0 0 1 8.5-8.5" opacity=".2"/><path fill="#fff" fill-rule="evenodd" d="M37.5 36a8.5 8.5 0 0 1 8.5 8.5 8.5 8.5 0 0 1-8.5 8.5 8.5 8.5 0 0 1-8.5-8.5 8.5 8.5 0 0 1 8.5-8.5"/><path fill="#d24343" d="M11.41 4c-.375 0-.536 3.909-.3 7.37.32 4.724 1.183 7.982 2.718 9.298.774.663 3.312 1.52 4.397 1.52.85 0 1.176.566 1.005 1.539-.077.441-.327 2.208-.943 4.61-1.076 4.2-1.45 4.426-1.23 5.817.264 1.67 1.796 4.188 2.941 5.494.076.087.32.292.564.51a17.5 17.5 0 0 1 6.493-9.674l.77-3.021c.515-2.472 1.05-5.228 1.189-5.363.173-.17 1.918.088 6.459 0 7.378-.144 7.886-.085 9.564-1.487.986-.824 1.96-2.062 1.963-3.004.002-.554-.033-.565-1.803-.707-11.083-.884-21.042-4.813-30.447-10.908C13.059 4.898 11.556 4 11.41 4"/><path fill="#d24343" fill-rule="evenodd" d="M37.502 39a5.5 5.5 0 0 0-5.4 4.485l4.823 1.292a.687.687 0 0 1 .486.843l-1.136 4.235a5.5 5.5 0 0 0 1.227.145 5.5 5.5 0 0 0 5.5-5.5 5.5 5.5 0 0 0-5.5-5.5"/><path fill="#fff" fill-rule="evenodd" d="M37.5 29A15.5 15.5 0 0 0 22 44.5a16 16 0 0 0 .021.414A15.5 15.5 0 0 1 37.5 30a15.5 15.5 0 0 1 15.479 15.086A16 16 0 0 0 53 44.5 15.5 15.5 0 0 0 37.5 29" opacity=".1"/><path fill="#fff" d="M11.41 4c-.29 0-.445 2.329-.396 4.98.005-2.19.145-3.98.396-3.98.146 0 1.649.898 3.34 1.994 9.405 6.095 19.364 10.024 30.447 10.908 1.096.088 1.525.126 1.694.274.064-.196.108-.387.109-.567.002-.554-.033-.565-1.803-.707-11.083-.884-21.042-4.813-30.447-10.908C13.059 4.898 11.556 4 11.41 4m7.803 19.824c-.086.508-.33 2.186-.926 4.514-1.044 4.075-1.424 4.416-1.244 5.703.106-.805.496-1.784 1.244-4.703.616-2.403.866-4.17.943-4.611q.095-.54-.017-.903" opacity=".2"/></svg>