<svg xmlns="http://www.w3.org/2000/svg" viewBox="0 0 64 64"><rect width="56" height="56" x="4" y="5" opacity=".2" rx="2.8" ry="2.8"/><rect width="56" height="56" x="4" y="4" fill="#4f4f4f" rx="2.8" ry="2.8"/><path d="M18 12v12.2c0-1.4 3.478-3.868 5.602-4.2H30v25l-3 4h12l-3-4V26.5c1.158-8.184 4.061-10.045 9.93-11.5H20.375Zm-5 15 3 4v17.8L13 53h14l-3-4.2V31l3-4Zm26 0 3 4v17.8L39 53h14l-3-4.2V31l3-4Z" opacity=".2"/><path fill="#ff8e19" d="M18 11v12.2c0-1.4 3.45-4.2 5.6-4.2H30v25l-3 4h12l-3-4V25.501c1.158-8.184 4.06-10.046 9.929-11.501H20.375z"/><path fill="#1289db" d="M13 26h14l-3 4v17.8l3 4.2H13l3-4.2V30zm26 0h14l-3 4v17.8l3 4.2H39l3-4.2V30z"/><path fill="#fff" d="M6.8 4C5.25 4 4 5.25 4 6.8v1C4 6.25 5.25 5 6.8 5h50.4C58.75 5 60 6.25 60 7.8v-1C60 5.25 58.75 4 57.2 4zM18 11v1l2.375 3h22.318c.964-.383 2.035-.702 3.237-1H20.375zm-5 15 .75 1h12.5l.75-1zm26 0 .75 1h12.5l.75-1zm-9 18-3 4h.75L30 45zm6 0v1l2.25 3H39zm-20 3.8L13 52h.715L16 48.8zm8 0v1l2.285 3.2H27zm18 0L39 52h.715L42 48.8zm8 0v1l2.285 3.2H53z" opacity=".1"/></svg>