<svg xmlns="http://www.w3.org/2000/svg" viewBox="0 0 64 64"><rect width="57" height="57" x="4" y="4" opacity=".2" rx="5.7" ry="5.7"/><rect width="57" height="57" x="4" y="3" fill="#e4e4e4" rx="5.7" ry="5.7"/><path d="M9.7 13.95c2.309 2.481 4.816 4.684 7.236 7.05H20v6h-5v5h5v19h5V32h15v19h5V32h5v-5h-5v-6h3.314c2.144-2.075 4.318-4.043 6.415-6.168 1.869-1.518-1.364-.568-2.332-.57-6.597.998-13.259.77-19.92.738A177 177 0 0 1 9.7 13.95M25 21h6v6h-6zm9 0h6v6h-6z" opacity=".1"/><path fill="#159eed" d="M9.7 12.95c2.309 2.481 4.816 4.684 7.236 7.05H20v6h-5v5h5v19h5V31h15v19h5V31h5v-5h-5v-6h3.314c2.144-2.075 4.318-4.043 6.415-6.168 1.869-1.518-1.364-.568-2.332-.57-6.597.998-13.259.77-19.92.738A177 177 0 0 1 9.7 12.95M25 20h6v6h-6zm9 0h6v6h-6z"/><path fill="#fff" d="M9.7 3A5.686 5.686 0 0 0 4 8.7v1C4 6.54 6.541 4 9.7 4h45.6C58.46 4 61 6.541 61 9.7v-1C61 5.54 58.459 3 55.3 3z" opacity=".2"/></svg>