<svg xmlns="http://www.w3.org/2000/svg" viewBox="0 0 64 64"><rect width="56" height="56" x="4" y="5" opacity=".2" rx="28" ry="28"/><rect width="56" height="56" x="4" y="4" fill="#493f40" rx="28" ry="28"/><path fill="#fff" d="M32 4C16.488 4 4 16.488 4 32c0 .113.011.224.018.336C4.369 17.134 16.71 5 32 5s27.63 12.134 27.982 27.336c.007-.112.018-.223.018-.336C60 16.488 47.512 4 32 4" opacity=".1"/><circle cx="32" cy="33" r="22" opacity=".2"/><circle cx="32" cy="32" r="22" fill="#fff"/><path fill="#493f40" d="M27 21v11h-2.999V21h-4v-3H31v3zm12.131 13c-1.376 0-2.483.299-3.297.968h-.002v.002c-.808.67-1.239 1.698-1.239 2.907 0 .526.076 1.013.235 1.449v.002l.002.003c.162.425.395.804.692 1.123l.002.003.002.002c.303.32.69.586 1.16.822h.003c.489.242 1.158.468 2.029.693q.733.197 1.338.366.572.163.958.384c.244.14.41.3.523.483v.003l.002.005c.1.156.164.375.164.712 0 .601-.167.954-.583 1.261-.413.303-1.063.49-1.964.49-.87 0-1.526-.172-1.97-.464-.437-.295-.702-.718-.845-1.373l-.1-.453-2.24.525.094.492c.232 1.18.802 2.121 1.66 2.72S37.73 48 39.1 48c1.474 0 2.665-.328 3.544-1.05.883-.72 1.355-1.82 1.355-3.114 0-.505-.058-.963-.193-1.373l-.002-.003a2.835 3.254 0 0 0-.538-1.044 3.175 3.645 0 0 0-.795-.735l-.004-.003a5.67 6.508 0 0 0-.904-.482h-.005a7.938 9.111 0 0 0-.999-.35h-.002q-.492-.143-.992-.277l-.002-.003h-.003c-.983-.253-1.644-.476-1.907-.611l-.004-.003a1.758 2.018 0 0 1-.612-.504c-.109-.162-.17-.362-.17-.663 0-.533.136-.826.488-1.083.355-.26.94-.427 1.76-.427.743 0 1.289.15 1.642.39h.002v.004c.347.233.576.586.713 1.158l.102.43 2.285-.467-.13-.526c-.284-1.146-.805-2.027-1.564-2.534-.75-.51-1.761-.73-3.035-.73"/><path d="M22.542 30.876 48 5 35.728 24.905l8.486-1.742-11.166 14.228 7.231-.68L16 61l11.286-18.144-6.855.581 9.519-13.769Z" opacity=".1"/><path fill="#f99007" d="M22.542 29.876 48 4 35.728 23.905l8.486-1.742-11.166 14.228 7.231-.68L16 60l11.286-18.144-6.855.581 9.519-13.769Z"/></svg>