<svg xmlns="http://www.w3.org/2000/svg" viewBox="0 0 16 16"><path fill="currentColor" d="M1.459 3.01a1.5 1.5 0 0 0-.758.226C.271 3.514 0 4.013 0 4.546v6.907c0 .534.271 1.03.7 1.309a1.51 1.51 0 0 0 1.552.029L7 10v1.453c0 .534.271 1.03.7 1.309a1.51 1.51 0 0 0 1.552.029l5.902-3.531a1.467 1.467 0 0 0 0-2.518L9.258 3.215a1.51 1.51 0 0 0-1.557.021c-.43.278-.701.777-.701 1.31V6L2.258 3.215a1.46 1.46 0 0 0-.8-.205zm.023.99a.46.46 0 0 1 .256.07L7 7.22v1.564l-5.262 3.149c-.332.199-.738-.064-.738-.479V4.547c0-.311.228-.539.482-.547m7 0a.46.46 0 0 1 .256.07l5.903 3.532c.288.172.288.626 0 .798l-5.903 3.532c-.332.199-.738-.064-.738-.479V4.547c0-.311.228-.539.482-.547" color="#5d656b"/></svg>