<svg xmlns="http://www.w3.org/2000/svg" xmlns:xlink="http://www.w3.org/1999/xlink" viewBox="0 0 128 128"><defs><linearGradient id="d" x1="50%" x2="50%" y1="0%" y2="100%"><stop offset="0%" stop-color="#19bd72"/><stop offset="100%" stop-color="#00914f"/></linearGradient><linearGradient id="g" x1="50%" x2="7.994%" y1="50%" y2="88.893%"><stop offset="0%" stop-color="#fff" stop-opacity=".1"/><stop offset="100%" stop-color="#fff" stop-opacity=".3"/></linearGradient><filter id="b" width="125%" height="120.2%" x="-12.5%" y="-8.3%" filterUnits="objectBoundingBox"><feOffset dy="2" in="SourceAlpha" result="shadowOffsetOuter1"/><feGaussianBlur in="shadowOffsetOuter1" result="shadowBlurOuter1" stdDeviation="3.5"/><feColorMatrix in="shadowBlurOuter1" values="0 0 0 0 0.00784313725 0 0 0 0 0.42745098 0 0 0 0 0.168627451 0 0 0 0.5 0"/></filter><filter id="f" width="124.6%" height="124.6%" x="-12.3%" y="-8.8%" filterUnits="objectBoundingBox"><feOffset dy="1" in="SourceAlpha" result="shadowOffsetOuter1"/><feGaussianBlur in="shadowOffsetOuter1" result="shadowBlurOuter1" stdDeviation="1"/><feComposite in="shadowBlurOuter1" in2="SourceAlpha" operator="out" result="shadowBlurOuter1"/><feColorMatrix in="shadowBlurOuter1" values="0 0 0 0 0 0 0 0 0 0 0 0 0 0 0 0 0 0 0.05 0"/></filter><path id="a" d="M92 105a9 9 0 0 1-9 9H9a9 9 0 0 1-9-9V9a9 9 0 0 1 9-9h54.5L92 28.5z"/><path id="e" d="M63.5 0 92 28.5H72.5a9 9 0 0 1-9-9z"/></defs><g fill="none" fill-rule="evenodd"><g transform="translate(18 7)"><use xlink:href="#a" fill="#000" filter="url(#b)"/><use xlink:href="#a" fill="url(#d)"/></g><g transform="translate(18 7)"><use xlink:href="#e" fill="#000" filter="url(#f)"/><use xlink:href="#e" fill="url(#g)"/></g><path fill="#fff" d="M71.632 58.9v2c-11.69 0-21.155 9.212-21.155 20.563s9.465 20.562 21.155 20.562l6.367-.025H106v2H78v.025h-6.368c-12.782 0-23.155-10.095-23.155-22.562S58.85 58.9 71.632 58.9m0 5.5c1.198 0 2.38.12 3.535.354l-.398 1.96a16 16 0 0 0-3.137-.314c-8.427 0-15.247 6.638-15.247 14.813 0 8.174 6.82 14.812 15.247 14.812h6.348l.02-.017 28-.016v2l-28 .016-6.368.017c-9.52 0-17.247-7.521-17.247-16.812S62.113 64.4 71.632 64.4m0 5.475c3.674 0 7.058 1.719 9.179 4.567l-1.604 1.194c-1.746-2.344-4.536-3.761-7.575-3.761-5.164 0-9.34 4.064-9.34 9.063 0 4.998 4.176 9.062 9.34 9.062H106v2H71.632c-6.257 0-11.34-4.947-11.34-11.062 0-6.116 5.083-11.063 11.34-11.063"/></g></svg>