<svg xmlns="http://www.w3.org/2000/svg" viewBox="0 0 64 64"><rect width="52" height="52" x="-59" y="-58" opacity=".2" rx="2.5" ry="2.5" transform="rotate(90)scale(-1 1)"/><rect width="52" height="52" x="-58" y="-58" fill="#4f4f4f" rx="2.5" ry="2.5" transform="rotate(90)scale(-1 1)"/><g opacity=".4" transform="scale(2)"><rect width="11" height="6" x="4" y="22" rx="1.25" ry="1.25"/><rect width="11" height="6" x="17" y="22" rx="1.25" ry="1.25"/><path d="M24 7h4v1h-4zm0 2h4v1h-4zm0 2h4v1h-4zm0 2h4v1h-4zm0 2h4v1h-4zm0 2h4v1h-4z"/></g><path fill="#fff" d="M8.5 6A2.495 2.495 0 0 0 6 8.5v1C6 8.115 7.115 7 8.5 7h47C56.885 7 58 8.115 58 9.5v-1C58 7.115 56.885 6 55.5 6z" opacity=".1"/></svg>