<svg xmlns="http://www.w3.org/2000/svg" xmlns:xlink="http://www.w3.org/1999/xlink" viewBox="0 0 96 96"><defs><linearGradient id="c" x1="50%" x2="50%" y1="2.185%" y2="100%"><stop offset="0%" stop-color="#fff"/><stop offset="100%" stop-color="#fff"/></linearGradient><linearGradient id="e" x1="50%" x2="50%" y1="1.74%" y2="100%"><stop offset="0%" stop-color="#707070"/><stop offset="100%" stop-color="#171717"/></linearGradient><linearGradient id="f" x1="50%" x2="50%" y1="0%" y2="100%"><stop offset="1.74%" stop-color="#707070"/><stop offset="100%" stop-color="#171717"/></linearGradient><linearGradient id="g" x1="50%" x2="50%" y1="0%" y2="100%"><stop offset="0%" stop-color="#cacaff"/><stop offset="100%" stop-color="#4646ac"/></linearGradient><linearGradient id="h" x1="14.952%" x2="81.738%" y1="14.371%" y2="100%"><stop offset="0%" stop-color="#8686e4"/><stop offset="69.664%" stop-color="#323250"/><stop offset="100%" stop-color="#2a2a2a"/></linearGradient><filter id="a" width="130.8%" height="130.8%" x="-15.4%" y="-15.4%" filterUnits="objectBoundingBox"><feOffset dy="2" in="SourceAlpha" result="shadowOffsetOuter1"/><feGaussianBlur in="shadowOffsetOuter1" result="shadowBlurOuter1" stdDeviation="2"/><feColorMatrix in="shadowBlurOuter1" result="shadowMatrixOuter1" values="0 0 0 0 0 0 0 0 0 0 0 0 0 0 0 0 0 0 0.2 0"/><feMerge><feMergeNode in="shadowMatrixOuter1"/><feMergeNode in="SourceGraphic"/></feMerge></filter><rect id="b" width="78" height="78" x="0" y="0" rx="16"/></defs><g fill="none" fill-rule="evenodd" filter="url(#a)" transform="translate(9 9)"><mask id="d" fill="#fff"><use xlink:href="#b"/></mask><use xlink:href="#b" fill="url(#c)"/><path fill="#000" fill-rule="nonzero" d="M39 7c17.496 0 31.713 14.042 31.996 31.47L71 39v9h-2v-9C69 22.431 55.569 9 39 9 22.597 9 9.269 22.164 9.004 38.504L9 39v9H7v-9C7 21.327 21.327 7 39 7" mask="url(#d)"/><rect width="12" height="21" x="7" y="36" fill="url(#e)" mask="url(#d)" rx="6"/><rect width="12" height="21" x="59" y="36" fill="url(#f)" mask="url(#d)" rx="6"/><path fill="#000" fill-rule="nonzero" d="M13 36a6 6 0 0 1 6 6v9a6 6 0 1 1-12 0v-9a6 6 0 0 1 6-6m0 2a4 4 0 0 0-3.995 3.8L9 42v9a4 4 0 0 0 7.995.2L17 51v-9a4 4 0 0 0-4-4" mask="url(#d)"/><path fill="#000" fill-rule="nonzero" d="M65 36a6 6 0 0 1 6 6v9a6 6 0 1 1-12 0v-9a6 6 0 0 1 6-6m0 2a4 4 0 0 0-3.995 3.8L61 42v9a4 4 0 0 0 7.995.2L69 51v-9a4 4 0 0 0-4-4" mask="url(#d)"/><path fill="url(#g)" d="M55.562 54v-9.01L47.822 40l-1.625-6q-4.545-2.943-6.362-4.519c-1.817-1.576-7.53-8.37-7.53-8.37s-4.189-2.737-4.189-4.18q0-1.442-7.217-7.931l-6.087-2.326-7.702-1 8.702 12.62 4.087 8.104 4.552 3.083S34.898 37 34.898 38s.956 5.792 2.947 6.99c1.99 1.199 8.352 5.01 8.352 5.01v4z" mask="url(#d)"/><path stroke="#000" stroke-linecap="round" stroke-linejoin="round" d="M12 62.837 19 71l6-5 7.082 7L40 66l9 6 5.747-7 6.046 5.743 5-3.951" mask="url(#d)"/><path fill="url(#h)" d="m49.982 44 13.861 23.049H61.78L47.96 45.5 18 12.293l5.016 3.817z" mask="url(#d)"/><path stroke="red" stroke-linecap="round" stroke-linejoin="round" d="m19 43 4.732 15.812L27 34l5.082 15L36 40.5l6 20.533L46 34l5 14 4.108-10.5L58 45" mask="url(#d)"/></g></svg>