<svg xmlns="http://www.w3.org/2000/svg" viewBox="0 0 24 24"><g fill="none"><path fill="#536076" d="M10.5 0a.5.5 0 0 0-.5.5v8.977a.5.5 0 0 0 .5.5h7.992a.5.5 0 0 0 .5-.5V.5a.5.5 0 0 0-.5-.5zm1.002.986h5.994a.5.5 0 0 1 .5.5v6.998a.5.5 0 0 1-.5.5h-5.994a.5.5 0 0 1-.5-.5V1.486a.5.5 0 0 1 .5-.5M6.5 3.976l-2.5 3h2v12h1v-12h2zm4 10a.5.5 0 0 0-.5.5v8.975a.5.5 0 0 0 .5.5h7.992a.5.5 0 0 0 .5-.5v-8.974a.5.5 0 0 0-.5-.5zm1.002.987h5.994a.5.5 0 0 1 .5.5v6.998a.5.5 0 0 1-.5.5h-5.994a.5.5 0 0 1-.5-.5v-6.998a.5.5 0 0 1 .5-.5"/><path fill="#000" d="M11 1v7.977h6.992V1zm0 13.977v7.974h6.992v-7.974z" opacity=".3"/></g></svg>