<svg xmlns="http://www.w3.org/2000/svg" xmlns:xlink="http://www.w3.org/1999/xlink" viewBox="0 0 96 96"><defs><linearGradient id="b" x1="50%" x2="50%" y1="0%" y2="100%"><stop offset="0%" stop-color="#fff"/><stop offset="100%" stop-color="#dfdfdf"/></linearGradient><linearGradient id="c" x1="50%" x2="50%" y1="0%" y2="100%"><stop offset="0%" stop-color="#c6c6c6"/><stop offset="100%" stop-color="#929292"/></linearGradient><filter id="a" width="128.6%" height="128.6%" x="-14.3%" y="-14.3%" filterUnits="objectBoundingBox"><feOffset dy="2" in="SourceAlpha" result="shadowOffsetOuter1"/><feGaussianBlur in="shadowOffsetOuter1" result="shadowBlurOuter1" stdDeviation="2"/><feColorMatrix in="shadowBlurOuter1" result="shadowMatrixOuter1" values="0 0 0 0 0 0 0 0 0 0 0 0 0 0 0 0 0 0 0.2 0"/><feMerge><feMergeNode in="shadowMatrixOuter1"/><feMergeNode in="SourceGraphic"/></feMerge></filter></defs><g fill="none" fill-rule="evenodd" filter="url(#a)" transform="translate(6 6)"><rect width="84" height="84" fill="url(#b)" rx="18"/><path fill="url(#c)" d="M66 0c9.941 0 18 8.059 18 18v48c0 9.941-8.059 18-18 18H18C8.059 84 0 75.941 0 66V18C0 8.059 8.059 0 18 0zm-2 6H20C12.268 6 6 12.268 6 20v44c0 7.732 6.268 14 14 14h44c7.732 0 14-6.268 14-14V20c0-7.732-6.268-14-14-14"/><path fill="#818181" d="M9 39h6v3H9zm12 0h6v3h-6zm12 0h6v3h-6zm12 0h6v3h-6zm12 0h6v3h-6zm12 0h6v3h-6zM9 54h6v3H9zm12 0h6v3h-6zm12 0h6v3h-6zm12 0h6v3h-6zm12 0h6v3h-6zm12 0h6v3h-6zM51 75v-6h3v6zm0-12v-6h3v6zm0-12v-6h3v6zm0-12v-6h3v6zm0-12v-6h3v6zm0-12V9h3v6z"/><path fill="#000" d="M12 12h15v3H12zm21 0h12v3H33zm0 9h9v3h-9zm-3 9h12v3H30zm15-6v6h-3v-6zm-12-9v6h-3v-6zm-12 0v18h-3V15z"/></g></svg>