<svg xmlns="http://www.w3.org/2000/svg" viewBox="0 0 53 53"><g fill="#fafafa" data-iconColor="Trunk Dark"><path d="M26.224 53v-5.74c11.317 0 20.524-9.274 20.524-20.673S37.541 5.915 26.224 5.915 5.7 15.188 5.7 26.587H0C0 12.023 11.764.174 26.224.174s26.224 11.849 26.224 26.413S40.684 53 26.224 53"/><path d="M13.49 27.003h-5.7c0-10.398 8.268-18.858 18.432-18.858v5.831c-7.02 0-12.733 5.844-12.733 13.027"/><path d="M36.861 27.003h-5.7c0-2.788-2.216-5.055-4.941-5.055s-4.942 2.267-4.942 5.055h-5.7c0-6.003 4.774-10.887 10.642-10.887S36.86 21 36.86 27.003"/></g></svg>