<svg xmlns="http://www.w3.org/2000/svg" viewBox="0 0 24 24"><path fill="#536076" d="M9.076 9.686c.083.184.168.252.1.254l.873-.023.141.86c.22 1.34 1.016 2.223 1.804 2.223.8 0 1.597-.884 1.816-2.222l.141-.861.872.023c-.068-.002.016-.07.099-.254A.9.9 0 0 0 15 9.368l-.523-.13-.022-.758C14.415 7.094 13.325 6 12.001 6S9.584 7.094 9.545 8.48l-.022.758-.524.13a.8.8 0 0 0 .077.318M11.994 5c1.882 0 3.406 1.534 3.461 3.451q.07.018.135.053c.43.227.538.936.244 1.592-.237.527-.656.854-1.037.843C14.51 12.692 13.367 14 12.006 14c-1.372 0-2.516-1.308-2.803-3.06-.381.01-.802-.317-1.039-.844-.294-.656-.184-1.365.246-1.592a.6.6 0 0 1 .135-.053C8.6 6.534 10.125 5 11.995 5m-.049 11.227c-1.181 0-2.276-.425-2.927-1.15-.898.123-1.676.3-2.26.51-.437.158-.69.312-.758.34V17h12v-1.068c-.046-.013-.314-.183-.796-.355-.6-.214-1.397-.392-2.316-.513-.65.732-1.754 1.163-2.943 1.163M14.395 14c2.514.252 4.35.892 4.572 1.648.012.043.031.08.033.123v1.872a.353.353 0 0 1-.35.357H5.35a.353.353 0 0 1-.35-.357v-1.85c0-.022.009-.03.01-.043.003-.027.004-.051.011-.078.002-.007-.003-.016 0-.024.217-.747 2.016-1.378 4.485-1.636.294.695 1.27 1.215 2.44 1.215 1.175 0 2.16-.526 2.449-1.227"/></svg>