<svg xmlns="http://www.w3.org/2000/svg" viewBox="0 0 24 24"><path fill="#303030" d="M15.41 16.072c-.143-1.196.24-3.037.854-4.727a3.46 3.46 0 0 0-1.222-3.968l-.54-.392.155-.65A.265.265 0 0 0 14.399 6a.28.28 0 0 0-.234.16l-.292.6-.667-.04a3.454 3.454 0 0 0-3.457 2.286c-.598 1.7-1.471 3.367-2.34 4.202zM14.365 5.001q.232-.008.465.074c.618.221.947.868.799 1.492a4.46 4.46 0 0 1 1.576 5.115c-.628 1.726-1.097 4.237-.678 4.73a.635.635 0 0 1-.805.834l-9.3-3.33a.637.637 0 0 1-.094-1.156c.637-.115 1.867-2.353 2.476-4.085a4.456 4.456 0 0 1 4.461-2.954 1.28 1.28 0 0 1 1.1-.72m-3.89 11.72c-.296.83.268 1.79 1.262 2.147s2.041-.029 2.338-.858z"/></svg>