<svg xmlns="http://www.w3.org/2000/svg" xmlns:xlink="http://www.w3.org/1999/xlink" viewBox="0 0 48 48"><defs><linearGradient id="a" x1="90.7%" x2="35.327%" y1="6.565%" y2="64.144%"><stop offset="0%" stop-color="#93def2"/><stop offset="100%" stop-color="#5abadf"/></linearGradient></defs><g fill="none" fill-rule="evenodd"><path fill="#5abadf" d="M5 7.998A3 3 0 0 1 7.998 5H31.02L43 17.02v22.974A3.01 3.01 0 0 1 40.002 43H7.998A3.004 3.004 0 0 1 5 40.002z"/><path fill="url(#a)" d="m31 5 12 12V7.997A2.997 2.997 0 0 0 40.003 5z" transform="matrix(-1 0 0 -1 74 22)"/><rect width="24" height="2" x="12" y="26" fill="#fff" rx="1"/><rect width="24" height="2" x="12" y="30" fill="#fff" rx="1"/><path fill="#fff" d="m19.977 21.19-.342-.899h-2.91l-.342.918q-.201.537-.342.725t-.464.188a.68.68 0 0 1-.483-.2.6.6 0 0 1-.21-.454q0-.147.049-.303t.16-.435l1.832-4.648.188-.48q.11-.282.234-.467a.95.95 0 0 1 .327-.3q.203-.115.5-.115.304 0 .506.114a1 1 0 0 1 .327.296q.124.18.21.388.086.207.218.554l1.87 4.62q.22.527.22.766 0 .249-.208.457a.68.68 0 0 1-.5.207.6.6 0 0 1-.498-.227 1.5 1.5 0 0 1-.179-.322 19 19 0 0 1-.163-.384m-2.872-1.988h2.14l-1.08-2.954zm6.622-3.72v2.036q.376-.39.766-.599.39-.207.967-.207.663 0 1.165.315.5.315.776.913t.276 1.418q0 .606-.154 1.111-.154.506-.447.877a2.02 2.02 0 0 1-1.63.776 2.2 2.2 0 0 1-.58-.073 1.7 1.7 0 0 1-.46-.193 2 2 0 0 1-.325-.247 6 6 0 0 1-.354-.38v.131q0 .376-.181.57a.6.6 0 0 1-.46.192.57.57 0 0 1-.45-.193q-.17-.192-.17-.569v-5.82q0-.405.164-.613a.55.55 0 0 1 .457-.207q.307 0 .474.197.165.198.166.564m.063 3.96q0 .795.364 1.223.363.426.954.427.504 0 .867-.437.364-.437.364-1.253 0-.527-.151-.908a1.3 1.3 0 0 0-.43-.588 1.06 1.06 0 0 0-.65-.208q-.381 0-.678.208a1.4 1.4 0 0 0-.47.6q-.17.393-.17.935m9.736 1.03q0 .249-.149.532-.148.284-.454.54-.305.256-.769.412-.463.156-1.045.156-1.235 0-1.928-.72-.694-.72-.694-1.931 0-.82.318-1.45.316-.63.918-.974.6-.345 1.435-.345.518 0 .95.152.432.15.732.39t.46.51q.158.272.158.506 0 .24-.178.405a.6.6 0 0 1-.432.166.44.44 0 0 1-.276-.085 1.4 1.4 0 0 1-.247-.276 2 2 0 0 0-.51-.557q-.266-.185-.676-.185a1.15 1.15 0 0 0-.952.461q-.362.462-.362 1.262 0 .376.093.691.093.316.269.537.175.223.424.337.25.115.547.115.4 0 .686-.185.286-.186.506-.567.122-.225.263-.351a.5.5 0 0 1 .347-.127q.245 0 .405.185a.6.6 0 0 1 .161.396"/></g></svg>