<svg xmlns="http://www.w3.org/2000/svg" viewBox="0 0 64 64"><circle cx="32" cy="33" r="28" opacity=".2"/><circle cx="32" cy="32" r="28" fill="#4f4f4f"/><g fill="none" stroke="#000" stroke-linecap="round" stroke-width="4" opacity=".2" transform="translate(0 1)"><circle cx="32" cy="32" r="6"/><path d="M22.015 22.187a14 14 0 0 1 15.286-3.144A14 14 0 0 1 46 32a14 14 0 0 1-8.699 12.958 14 14 0 0 1-15.286-3.145m-11.163-3.748a22 22 0 0 1 0-12.128m26.097-15.373a22 22 0 0 1 11.141 6.432m0 30.008a22 22 0 0 1-11.141 6.432M18.612 36.093a14 14 0 0 1-.07-7.951"/></g><g fill="none" stroke="#fff" stroke-linecap="round" stroke-width="4"><circle cx="32" cy="32" r="6"/><path d="M22.015 22.187a14 14 0 0 1 15.286-3.144A14 14 0 0 1 46 32a14 14 0 0 1-8.699 12.958 14 14 0 0 1-15.286-3.145m-11.163-3.748a22 22 0 0 1 0-12.128m26.097-15.373a22 22 0 0 1 11.141 6.432m0 30.008a22 22 0 0 1-11.141 6.432M18.612 36.093a14 14 0 0 1-.07-7.952"/></g><path fill="#fff" d="M32 4A28 28 0 0 0 4 32a28 28 0 0 0 .021.586A28 28 0 0 1 32 5a28 28 0 0 1 27.979 27.414L60 32A28 28 0 0 0 32 4" opacity=".1"/></svg>