<svg xmlns="http://www.w3.org/2000/svg" xmlns:xlink="http://www.w3.org/1999/xlink" viewBox="0 0 96 96"><defs><linearGradient id="b" x1="50%" x2="50%" y1="0%" y2="95.713%"><stop offset="0%" stop-color="#303030"/><stop offset="100%" stop-color="#262626"/></linearGradient><filter id="a" width="126.7%" height="128.6%" x="-13.3%" y="-14.3%" filterUnits="objectBoundingBox"><feOffset dy="2" in="SourceAlpha" result="shadowOffsetOuter1"/><feGaussianBlur in="shadowOffsetOuter1" result="shadowBlurOuter1" stdDeviation="2"/><feColorMatrix in="shadowBlurOuter1" result="shadowMatrixOuter1" values="0 0 0 0 0 0 0 0 0 0 0 0 0 0 0 0 0 0 0.2 0"/><feMerge><feMergeNode in="shadowMatrixOuter1"/><feMergeNode in="SourceGraphic"/></feMerge></filter></defs><g fill="none" filter="url(#a)" transform="translate(0 6)"><rect width="84" height="84" x="6" fill="url(#b)" rx="8"/><path fill="#fff" d="M33.87 39.799 18.385 24.314a2 2 0 1 1 2.828-2.829l16.9 16.9a2 2 0 0 1 0 2.828l-16.9 16.9a2 2 0 0 1-2.828-2.829zM44.867 62a2 2 0 0 1 0-4h24.328a2 2 0 0 1 0 4z"/></g></svg>