<svg xmlns="http://www.w3.org/2000/svg" viewBox="0 0 64 64"><rect width="34" height="26" x="-43" y="-52" opacity=".2" rx="2" ry="2" transform="rotate(90)scale(-1 1)"/><rect width="34" height="26" x="-42" y="-52" fill="#8e8e8e" rx="2" ry="2" transform="rotate(90)scale(-1 1)"/><rect width="34" height="42" x="-39" y="-60" opacity=".2" rx="2" ry="2" transform="rotate(90)scale(-1 1)"/><rect width="34" height="42" x="-38" y="-60" fill="#4f4f4f" rx="2" ry="2" transform="rotate(90)scale(-1 1)"/><rect width="26" height="34" x="-34" y="-56" fill="#266ad7" rx="0" ry="0" transform="rotate(90)scale(-1 1)"/><rect width="34" height="26" x="-61" y="-38" opacity=".2" rx="2" ry="2" transform="rotate(90)scale(-1 1)"/><rect width="34" height="26" x="-60" y="-38" fill="#8e8e8e" rx="2" ry="2" transform="rotate(90)scale(-1 1)"/><rect width="34" height="42" x="-57" y="-46" opacity=".2" rx="2" ry="2" transform="rotate(90)scale(-1 1)"/><rect width="34" height="42" x="-56" y="-46" fill="#4f4f4f" rx="2" ry="2" transform="rotate(90)scale(-1 1)"/><rect width="26" height="34" x="-52" y="-42" fill="#ffbe47" rx="0" ry="0" transform="rotate(90)scale(-1 1)"/><path fill="#fff" d="M6 22c-1.108 0-2 .892-2 2v1c0-1.108.892-2 2-2h38c1.108 0 2 .892 2 2v-1c0-1.108-.892-2-2-2zM20 4c-1.108 0-2 .892-2 2v1c0-1.108.892-2 2-2h38c1.108 0 2 .892 2 2V6c0-1.108-.892-2-2-2z" opacity=".1"/></svg>