<svg xmlns="http://www.w3.org/2000/svg" viewBox="0 0 24 24"><g fill-rule="evenodd"><path fill="#fff" d="M21.576 11.367c0 .695-.563 1.257-1.257 1.257H3.662a1.257 1.257 0 0 1-.649-2.333 1.256 1.256 0 0 1 .414-1.938A1.257 1.257 0 0 1 4.78 6.668a1.257 1.257 0 0 1 1.723-1.722 1.257 1.257 0 0 1 1.881-1.259 1.257 1.257 0 0 1 2.266-.598 1.257 1.257 0 0 1 2.367 0 1.257 1.257 0 0 1 2.266.598 1.257 1.257 0 0 1 1.882 1.259 1.257 1.257 0 0 1 1.722 1.721 1.257 1.257 0 0 1 1.354 1.685 1.256 1.256 0 0 1 .494 1.83 1.26 1.26 0 0 1 .841 1.185"/><path d="M8.589 20.478h6.803v1.57H8.589z"/><path fill="#2196f3" d="M2.095 11.996h19.79c-.32 5.259-4.627 9.423-9.895 9.423s-9.575-4.163-9.895-9.422z" data-iconColor="Umi"/><path d="M7.662 7.598a.31.31 0 0 1-.31-.314.31.31 0 0 1 .31-.314.31.31 0 0 1 .309.314.31.31 0 0 1-.31.314m-1.238 1.57a.31.31 0 0 1-.309-.313.31.31 0 0 1 .31-.314.31.31 0 0 1 .309.314.31.31 0 0 1-.31.314m1.237 1.257a.31.31 0 0 1-.309-.314.31.31 0 0 1 .31-.314.31.31 0 0 1 .309.314.31.31 0 0 1-.31.314m1.238-2.512a.31.31 0 0 1-.31-.314.31.31 0 0 1 .309-.314.31.31 0 0 1 .31.314.31.31 0 0 1-.31.314m7.42 1.256a.31.31 0 0 1-.309-.313.31.31 0 0 1 .31-.315.31.31 0 0 1 .309.315.31.31 0 0 1-.31.313"/></g></svg>