<svg xmlns="http://www.w3.org/2000/svg" viewBox="0 0 100 100"><path fill="#f06292" d="M54 53.677 66.98 47v27.66l17.95-9.196.07 10.423L54.035 92zM23.975 80.561V57.374l4.359 25.042 7.096 3.607 4.562-20.817v22.776L48 92V53.561l-12.165-5.874-3.852 18.343-3.885-22.122L16 38v38.473zM46.104 10l-9.128 8.176s17.81 9.274 19.973 10.37c2.164 1.095 5.243 3.203 1.914 6.322s-6.99 2.698-9.487 1.434-20.972-10.707-20.972-10.707L19 33.688s18.142 9.358 21.138 10.96 14.148 5.564 24.717-2.782c10.57-8.347 9.072-11.382 9.072-11.972s-.25-3.71-2.08-5.648c-1.832-1.94-7.158-4.722-9.405-5.902S46.104 10 46.104 10" data-iconColor="UML"/></svg>