<svg xmlns="http://www.w3.org/2000/svg" xmlns:xlink="http://www.w3.org/1999/xlink" viewBox="0 0 128 128"><defs><linearGradient id="d" x1="50%" x2="50%" y1="0%" y2="100%"><stop offset="0%" stop-color="#4987f6"/><stop offset="100%" stop-color="#0651e6"/></linearGradient><linearGradient id="g" x1="50%" x2="7.994%" y1="50%" y2="88.893%"><stop offset="0%" stop-color="#fff" stop-opacity=".1"/><stop offset="100%" stop-color="#fff" stop-opacity=".3"/></linearGradient><filter id="c" width="125%" height="120.2%" x="-12.5%" y="-8.3%" filterUnits="objectBoundingBox"><feOffset dy="2" in="SourceAlpha" result="shadowOffsetOuter1"/><feGaussianBlur in="shadowOffsetOuter1" result="shadowBlurOuter1" stdDeviation="3.5"/><feColorMatrix in="shadowBlurOuter1" values="0 0 0 0 0.22745098 0 0 0 0 0.494117647 0 0 0 0 0.960784314 0 0 0 0.5 0"/></filter><filter id="f" width="124.1%" height="124.1%" x="-12.1%" y="-8.6%" filterUnits="objectBoundingBox"><feOffset dy="1" in="SourceAlpha" result="shadowOffsetOuter1"/><feGaussianBlur in="shadowOffsetOuter1" result="shadowBlurOuter1" stdDeviation="1"/><feComposite in="shadowBlurOuter1" in2="SourceAlpha" operator="out" result="shadowBlurOuter1"/><feColorMatrix in="shadowBlurOuter1" values="0 0 0 0 0 0 0 0 0 0 0 0 0 0 0 0 0 0 0.05 0"/></filter><path id="a" d="M92 105a9 9 0 0 1-9 9H9a9 9 0 0 1-9-9V9a9 9 0 0 1 9-9h54l29 29z"/><path id="e" d="m63 0 29 29H72a9 9 0 0 1-9-9z"/></defs><g fill="none" fill-rule="evenodd"><g transform="translate(18 7)"><use xlink:href="#a" fill="#000" filter="url(#c)"/><use xlink:href="#a" fill="url(#d)"/></g><g transform="translate(18 7)"><use xlink:href="#e" fill="#000" filter="url(#f)"/><use xlink:href="#e" fill="url(#g)"/></g><path fill="#b2cbfa" d="m86 52.867-11 4.931v13.27l-11 5.138V89.75l22-9.837z"/><path fill="#fff" d="m75 71.067-11-4.976V52.867l11 4.931z"/><path fill="#7aa7f7" d="m86 52.867-11-5.574-11 5.574 11 4.931z"/><path fill="#fff" d="m64 89.75-11-5.413v-13.27l11 5.139z"/><path fill="#467fef" d="m53 71.067 11-4.976 11 4.976-11 5.139z"/><path fill="#fff" d="m42 49.505 11 4.976v27.091l-11-5.529z"/><path fill="#7aa6f7" d="m53 54.48 22-10.504L63.865 39 42 49.505z"/><path fill="#b2cbfa" d="M53 54.48v27.092l11-5.366V62.774l11-4.976V43.976z"/></g></svg>