<svg xmlns="http://www.w3.org/2000/svg" xmlns:xlink="http://www.w3.org/1999/xlink" viewBox="0 0 128 128"><defs><linearGradient id="b" x1="50.001%" x2="50.001%" y1="2.23%" y2="97.122%"><stop offset="0%" stop-color="#e8ffff"/><stop offset="100%" stop-color="#c0e9fe"/></linearGradient><linearGradient id="d" x1="50%" x2="50%" y1="0%" y2="100%"><stop offset="0%" stop-color="#00a9ff"/><stop offset="100%" stop-color="#0049ea"/></linearGradient><linearGradient id="g" x1="50.001%" x2="50.001%" y1="2.23%" y2="97.122%"><stop offset="0%" stop-color="#fff"/><stop offset="100%" stop-color="#c0e9fe"/></linearGradient><linearGradient id="h" x1="50%" x2="50%" y1="-44.521%" y2="100%"><stop offset="0%" stop-color="#08f"/><stop offset="100%" stop-color="#0050ff"/></linearGradient><filter id="a" width="117.2%" height="117.2%" x="-8.6%" y="-6.9%" filterUnits="objectBoundingBox"><feOffset dy="2" in="SourceAlpha" result="shadowOffsetOuter1"/><feGaussianBlur in="shadowOffsetOuter1" result="shadowBlurOuter1" stdDeviation="3"/><feColorMatrix in="shadowBlurOuter1" result="shadowMatrixOuter1" values="0 0 0 0 0 0 0 0 0 0 0 0 0 0 0 0 0 0 0.2 0"/><feMerge><feMergeNode in="shadowMatrixOuter1"/><feMergeNode in="SourceGraphic"/></feMerge></filter><filter id="f" width="115.8%" height="115.8%" x="-7.9%" y="-7.9%" filterUnits="objectBoundingBox"><feGaussianBlur in="SourceAlpha" result="shadowBlurInner1" stdDeviation="8"/><feOffset in="shadowBlurInner1" result="shadowOffsetInner1"/><feComposite in="shadowOffsetInner1" in2="SourceAlpha" k2="-1" k3="1" operator="arithmetic" result="shadowInnerInner1"/><feColorMatrix in="shadowInnerInner1" values="0 0 0 0 0 0 0 0 0 0.171342171 0 0 0 0 0.336347055 0 0 0 0.5 0"/></filter><circle id="c" cx="58" cy="58" r="50.627"/></defs><g fill="none" fill-rule="evenodd" filter="url(#a)" transform="translate(6 6)"><circle cx="58" cy="58" r="58" fill="url(#b)" fill-rule="nonzero"/><g fill-rule="nonzero"><use xlink:href="#c" fill="url(#d)"/><use xlink:href="#c" fill="#000" filter="url(#f)"/></g><path fill="url(#g)" fill-rule="nonzero" d="M84 50.396c-1.826-6.59-8.304-11.474-16.037-11.474-2.25 0-4.39.417-6.347 1.163-3.355-3.28-8.105-5.34-13.388-5.34-10.063 0-18.228 7.44-18.383 16.664C24.108 53.314 20 58.352 20 64.286c0 7.525 6.595 13.627 14.756 13.696V78h45.398v-.026C88.394 77.745 95 71.544 95 63.908c0-6.402-4.645-11.797-11-13.512" transform="matrix(-1 0 0 1 115 0)"/><path fill="url(#h)" d="M78 55.75v6.5a.75.75 0 0 1-.75.75h-14.5a.75.75 0 0 1-.75-.75v-2.5a.75.75 0 0 1 .75-.75h2.5a.75.75 0 0 0 .75-.75v-2.5a.75.75 0 0 1 .75-.75h10.5a.75.75 0 0 1 .75.75m-41 0v6.5c0 .414.336.75.75.75h14.5a.75.75 0 0 0 .75-.75v-2.5a.75.75 0 0 0-.75-.75h-2.5a.75.75 0 0 1-.75-.75v-2.5a.75.75 0 0 0-.75-.75h-10.5a.75.75 0 0 0-.75.75"/></g></svg>