<svg xmlns="http://www.w3.org/2000/svg" xmlns:xlink="http://www.w3.org/1999/xlink" viewBox="0 0 128 128"><defs><linearGradient id="c" x1="22.374%" x2="84.021%" y1="12.284%" y2="91.218%"><stop offset="0%" stop-color="#5762a8"/><stop offset="100%" stop-color="#2c2e5e"/></linearGradient><linearGradient id="f" x1="50%" x2="50%" y1=".124%" y2="114.522%"><stop offset="0%" stop-color="#fff"/><stop offset="100%" stop-color="#e9ecf2"/><stop offset="100%" stop-color="#b2d0e0"/><stop offset="100%" stop-color="#fff"/></linearGradient><linearGradient id="i" x1="50%" x2="50%" y1="0%" y2="100%"><stop offset="0%" stop-opacity=".05"/><stop offset="100%" stop-opacity=".07"/></linearGradient><radialGradient id="b" cx="43.349%" cy="37.544%" r="81.05%" fx="43.349%" fy="37.544%" gradientTransform="rotate(81.335 .43 .373)scale(1 .9881)"><stop offset="0%" stop-color="#c6dbff"/><stop offset="100%" stop-color="#313f97"/><stop offset="100%"/></radialGradient><radialGradient id="d" cx="50%" cy="22.004%" r="82.794%" fx="50%" fy="22.004%" gradientTransform="matrix(.9514 .23982 -.23502 .97082 .076 -.113)"><stop offset="0%" stop-color="#8c8fc5"/><stop offset="50%" stop-color="#2c2b76"/><stop offset="100%" stop-color="#4a3f85"/></radialGradient><filter id="a" width="128.4%" height="131.1%" x="-14.2%" y="-15.5%" filterUnits="objectBoundingBox"><feOffset dy="2" in="SourceAlpha" result="shadowOffsetOuter1"/><feGaussianBlur in="shadowOffsetOuter1" result="shadowBlurOuter1" stdDeviation="3"/><feColorMatrix in="shadowBlurOuter1" result="shadowMatrixOuter1" values="0 0 0 0 0 0 0 0 0 0 0 0 0 0 0 0 0 0 0.2 0"/><feMerge><feMergeNode in="shadowMatrixOuter1"/><feMergeNode in="SourceGraphic"/></feMerge></filter><filter id="h" width="103.3%" height="104.3%" x="-1.7%" y="-2.2%" filterUnits="objectBoundingBox"><feGaussianBlur in="SourceAlpha" result="shadowBlurInner1" stdDeviation="1.5"/><feOffset dy="1" in="shadowBlurInner1" result="shadowOffsetInner1"/><feComposite in="shadowOffsetInner1" in2="SourceAlpha" k2="-1" k3="1" operator="arithmetic" result="shadowInnerInner1"/><feColorMatrix in="shadowInnerInner1" values="0 0 0 0 1 0 0 0 0 1 0 0 0 0 1 0 0 0 0.5 0"/></filter><path id="e" d="M73.527 69.615c-32.148 23.529-64.348 34.69-71.92 24.93-3.742-4.821-.771-13.848 7.069-24.586a93 93 0 0 1 .815-1.1q.684-1.046.86-1.299c.007-.009.357 1.145.855 2.399.499 1.254.849 2.083.841 2.095-.201.323-.696 1.076-.84 1.324-4.08 6.967-5.227 12.69-2.615 16.056 6.625 8.54 34.93-1.323 63.22-22.028 28.291-20.706 45.853-44.414 39.227-52.954-2.544-3.28-8.192-3.719-16.118-1.91-.264.06-1.453.354-1.453.354s-1.068-.914-2.187-1.804c-.54-.43-1.154-.868-1.512-1.177.22-.09 1.965-.725 2.175-.794 12.547-4.155 22.42-4.499 26.08.219 7.573 9.76-12.35 36.746-44.497 60.275"/></defs><g fill="none" filter="url(#a)" transform="translate(4 12.5)"><path fill="url(#b)" d="M65.424 101.612c27.683-3.43 47.395-28.645 44.026-56.321S80.91-2.041 53.226 1.389 5.832 30.034 9.2 57.709s28.54 47.332 56.224 43.903"/><path fill="url(#c)" d="M53.104.396C24.873 3.893 4.772 29.606 8.207 57.83c3.435 28.225 29.108 48.271 57.34 44.774 28.23-3.497 48.331-29.21 44.896-57.434C107.043 17.227 81.847-2.7 53.95.298zm.122.993c27.684-3.43 52.856 16.226 56.224 43.902 3.369 27.676-16.343 52.891-44.026 56.32S12.568 85.386 9.2 57.71 25.543 4.818 53.226 1.39"/><path fill="url(#d)" d="m48.218 2.732-1.046 1.596-2.065.344-1.754.939-.933.5-.227.345-1.216.344-.849 1.784-.876-1.94c-.113.064-.227.123-.34.187l-.17.47.227 2.566-1.697 1.534-.99 2.754h2.064l.764-1.816.255-.657c.873-.69 1.712-1.402 2.602-2.065l2.065.782c1.35 1.024 2.637 1.951 3.988 2.973l2.065-1.971-2.234-1.002-.99-2.316-3.904-.5-.085-.532 1.697.344.99-1.033 2.009-.5c.512-.279 1.01-.464 1.527-.69l-1.301 1.44 4.667 3.505v2.066l-1.838 2.065 2.46 5.383 1.613-1.033L56.676 15c2.881-.994 5.486-2.135 8.203-3.505l-.057.595 1.443 1.033 2.376-1.784-1.217-1.534-1.612 1.002h-.085l2.291-6.478-5.289-2.316-6.053.782-7.043 2.128c.705-.287 1.47-.579 2.206-.845l-.962-2.096c-.9.224-1.778.474-2.659.75m-8.995 9.4 1.632 1.616h1.31v-1.875l-1.632-1.067zm44.762-2.307-3.518.894-2.224 1.548v1.37l-3.49 2.442.76 3.573 2.055-1.548 1.295 1.548 1.463.893.9-2.68-.534-1.548.535-1.132 2.055-2.025h.929l-.93 2.264v2.054c.85-.247 1.748-.39 2.618-.506l-2.448 1.787-.17 1.16-2.814 2.413-2.73-.625V19.92l-1.323.893.534 1.519h-1.97l-1.154 2.055-1.38 1.697-2.504.506 1.463 1.608.366 1.549h-1.83l-2.364 1.31v4.05h1.07l.985 1.22 2.364-1.22.93-2.442 1.66-1.132.394-.893 2.759-.655 1.435 1.786 1.689.894-.929 1.965 1.464-.417.76-2.025-1.83-2.203h.76l1.83 1.548.366 2.204 1.689 2.025.31-2.919.984-.416c.915 1.013 1.594 2.194 2.365 3.335l2.758.238 1.661 1.161-.675 1.042-1.69 1.638h-2.42L85.11 38.68l-1.66.268-1.239 1.37-3.35-3.663L76.415 36l-3.49.417-3.125.893c-1.765 2.136-3.537 4.274-5.208 6.492l-2.054 5.151.929 1.132-1.69 2.68 1.915 4.704c1.573 1.9 3.073 3.787 4.644 5.688l2.365-2.114.985 1.22 2.533-1.697.845 1.072h2.505l1.379 1.698-.844 3.097 1.745 2.114-.057 3.662 1.295 2.68-.985 2.263c-.092 1.645-.169 3.239-.169 4.884a373 373 0 0 1 2.224 6.76l.535 3.573v1.786h1.294l2.055-1.37h2.45l3.574-4.406-.45-1.37 2.364-2.293-1.745-2.114 2.11-1.876 2.084-1.37.9-1.132-.534-2.441v-6.254l1.689-3.84 1.97-2.443 2.224-5.777v-1.608a58 58 0 0 1-3.125.328l2.14-2.293 3.04-2.263 1.688-1.965v-2.263c-.37-.746-.78-1.458-1.154-2.204l-1.435 1.787-1.154-1.37-1.605-1.31V41.39l1.914 2.352 2.14-.328c.969.94 1.88 1.76 2.73 2.83l1.97-2.353c-2.118-12.735-8.6-23.863-17.733-31.654l-.478 1.162-1.83 2.293-2.449-2.71h2.449l1.07-1.37-4.42-.893zm-52.422-.474-.362 1.816s-1.157.077-2.005.149c-9.77 8.73-16.31 21.446-17.429 35.818.647 1.167 2.172 3.484 2.172 3.484l3.758 2.441 3.703 1.042 1.587 2.293 2.478 1.965 1.448-.268 1.058.566v.327l-1.448 4.228L25.465 65l.39.893-.919 3.275 3.258 6.402 3.174 3.096 1.42 2.293-.223 4.615 1.142 2.62-1.142 5.12s.112.718.223 1.34a49 49 0 0 0 5.29 3.425c.443-.411 1.28-1.28 1.28-1.28l-.362-1.043 1.42-1.548.53-1.548 2.338-.893 1.726-4.883-.529-1.31 1.309-2.025 2.617-.655 1.448-3.573-.39-4.377 2.116-3.334.39-3.335c-2.916-1.591-5.793-3.155-8.687-4.794l-1.42-3.186-2.645-.655-1.448-4.138-3.535.417-3.035-2.442-3.23 3.067v.506c-.968-.307-2.173-.31-3.035-.893l-.668-2.203V51.51l-2.116.179c.178-1.55.35-3.096.53-4.645H21.4l-1.197 1.786-1.28.655-1.755-1.071-.222-2.442.39-2.68 2.617-2.173h2.2l.305-1.4 2.729.745 1.949 2.59.306-4.377 3.397-3.096 1.197-3.335 2.506-1.131 1.42-2.203 3.257-.656 1.587-2.68h-4.844l3.034-1.547h2.089l3.034-1.072.362-1.37-1.03-1.042-1.225-.506.306-1.31-.835-1.936-2.172.804.362-1.697-2.478-1.548-1.976 3.752.167 1.28-1.893.893-1.281 2.858-.53-2.59-3.396-1.548-.529-2.055 4.455-2.828 1.949-2.025.167-2.441-1.058-.655-1.253-.15c-.223.17-.449.334-.668.507m38.058 9.416.711.77v1.705l-.368 2.312 2.08-.397 1.5-1.331-1.29-1.144c-.444-1.056-.946-2-1.5-3.012H69.62zm-4.903 1.308.522 2.498 2.42-.888-1.005-2.054zm-18.926 9.362 1.276-1.663-1.961-1.279zm49.505 14.075 2.029 5.275 1.15 1.648-.61 1.868 1.173 1.566c-.528.045-1.058.083-1.6.083-.944-2.439-1.671-4.868-2.39-7.418l-1.217-1.731-.677-2.995.429-.604z" opacity=".392"/><use xlink:href="#e" fill="url(#f)"/><use xlink:href="#e" fill="#000" filter="url(#h)"/><path fill="url(#i)" d="m91.63 8.172-1.423.513-.815.304-1.513.616 1.327 1.143.33.264 1.207.93c.313.25.635.512.958.778l.862.72.646.551 1.934-.475a51 51 0 0 1 2.604-.525l.819-.134c5.916-.906 9.855-.148 11.683 2.208C116.33 22.9 99.04 46.24 71.222 66.6 43.386 86.972 15.49 96.692 9.382 88.82c-1.971-2.541-1.484-6.942 1.446-12.677l.387-.74q.3-.56.63-1.135l.28-.478.772-1.21.112-.782.006-.09q0-.024-.009-.023l-.02.013-.134-.32-.281-.658-.272-.653-.144-.358-.2-.51a25 25 0 0 1-.411-1.182l-.26-.817-.033-.074-.06-.108-.074-.1-.072-.077-.228-.164-.324-.105-.69.152a8.5 8.5 0 0 0-.688.892l-.295.443-.166.253-.124.162-.334.448-.637.872-.602.846-.582.837-.56.83-.273.41-.528.816-.508.807a64 64 0 0 0-.485.797l-.464.788-.224.391-.431.774-.41.764C-1.425 85.32-2.146 91.34.816 95.159c8.09 10.427 40.7-.877 73.301-24.737 32.62-23.875 52.816-51.231 44.698-61.695-2.221-2.863-6.387-4.083-12.036-3.784l-.762.049c-2.827.212-6.003.786-9.474 1.708l-.955.26q-.48.134-.968.278l-.983.294-.997.311q-.501.16-1.01.329m26.395 1.168c7.572 9.76-12.35 36.746-44.498 60.275s-64.348 34.69-71.92 24.93C-1.367 90.714-.101 84.224 4.482 76.33l.454-.768.474-.777q.12-.195.245-.391l.504-.79.525-.796q.4-.6.824-1.21l.575-.816.294-.41.623-.853.491-.658.664-1.01.195-.288.27.85.146.434.08.232.176.48.204.522.354.864.466 1.097.003.011-.782 1.226-.06.1c-4.08 6.967-5.227 12.69-2.615 16.056 6.625 8.54 34.93-1.323 63.22-22.028 28.291-20.706 45.853-44.414 39.227-52.954-2.45-3.158-7.777-3.682-15.247-2.102l-1.02.227-1.304.32-1.167-.978-.868-.705-.357-.283-.996-.762a9 9 0 0 1-.31-.254l.29-.11 1.884-.684q.495-.164.985-.32l.973-.304q.726-.222 1.438-.426l.943-.264.467-.125.923-.24q.688-.172 1.36-.326l.89-.197a51 51 0 0 1 4.222-.727l.797-.093.78-.075c5.79-.496 10.135.523 12.303 3.316"/></g></svg>