<svg xmlns="http://www.w3.org/2000/svg" xmlns:xlink="http://www.w3.org/1999/xlink" viewBox="0 0 128 128"><defs><linearGradient id="c" x1="108.214%" x2="50%" y1="39.094%" y2="22.677%"><stop offset="0%" stop-color="#6448ff"/><stop offset="100%" stop-color="#ff37df"/></linearGradient><linearGradient id="e" x1="7.563%" x2="56.677%" y1="59.478%" y2="26.292%"><stop offset="0%" stop-color="#ff02aa"/><stop offset="100%" stop-color="#ff8bf4" stop-opacity="0"/></linearGradient><linearGradient id="f" x1="50%" x2="22.823%" y1="34.548%" y2="92.516%"><stop offset="0%" stop-color="#fb6060" stop-opacity="0"/><stop offset="100%" stop-color="#fca506"/></linearGradient><filter id="a" width="119.2%" height="119.2%" x="-9.6%" y="-7.7%" filterUnits="objectBoundingBox"><feOffset dy="2" in="SourceAlpha" result="shadowOffsetOuter1"/><feGaussianBlur in="shadowOffsetOuter1" result="shadowBlurOuter1" stdDeviation="3"/><feColorMatrix in="shadowBlurOuter1" result="shadowMatrixOuter1" values="0 0 0 0 0 0 0 0 0 0 0 0 0 0 0 0 0 0 0.2 0"/><feMerge><feMergeNode in="shadowMatrixOuter1"/><feMergeNode in="SourceGraphic"/></feMerge></filter><filter id="g" width="126.9%" height="129.8%" x="-13.5%" y="-10.4%" filterUnits="objectBoundingBox"><feOffset dy="3" in="SourceAlpha" result="shadowOffsetOuter1"/><feGaussianBlur in="shadowOffsetOuter1" result="shadowBlurOuter1" stdDeviation="2"/><feColorMatrix in="shadowBlurOuter1" result="shadowMatrixOuter1" values="0 0 0 0 0.402470336 0 0 0 0 0.462433474 0 0 0 0 0.713599164 0 0 0 0.244004043 0"/><feMerge><feMergeNode in="shadowMatrixOuter1"/><feMergeNode in="SourceGraphic"/></feMerge></filter><path id="b" d="M22.955 0h58.09C93.723 0 104 10.277 104 22.955v58.09C104 93.723 93.723 104 81.045 104h-58.09C10.277 104 0 93.723 0 81.045v-58.09C0 10.277 10.277 0 22.955 0"/></defs><g fill="none" filter="url(#a)" transform="translate(12 12)"><use xlink:href="#b" fill="url(#c)"/><use xlink:href="#b" fill="url(#e)"/><use xlink:href="#b" fill="url(#f)"/><g stroke-width="5" filter="url(#g)" transform="translate(14.78 18.505)"><path stroke="#fdeef9" stroke-linejoin="round" d="M8.12 49.997h15.845c2.474 0 4.765-1.3 6.033-3.424l15.747-26.362a2.108 2.108 0 0 1 3.675.097l4.803 9.106a9.37 9.37 0 0 1-.216 9.13l-14.07 23.86a9.37 9.37 0 0 1-8.07 4.61h-6.195a14.05 14.05 0 0 1-12.161-7.009l-5.594-9.657a.234.234 0 0 1 .203-.351Z"/><path stroke="#fdeef9" stroke-linejoin="round" d="M35.317 4.528 20.548 28.994a9.37 9.37 0 0 0 .183 9.975l5.171 7.896a2.342 2.342 0 0 0 3.97-.082l15.752-26.37a7.03 7.03 0 0 1 6.033-3.423H66.56a.234.234 0 0 0 .202-.354L60.953 6.87A14.05 14.05 0 0 0 48.874 0h-5.536a9.37 9.37 0 0 0-8.021 4.528Z"/><path stroke="#fff" d="M25.634 67.014a14.06 14.06 0 0 1-12.132-6.968l-5.587-9.698a.234.234 0 0 1 .203-.351h15.847c2.474 0 4.765-1.3 6.033-3.424l15.626-26.16a7.03 7.03 0 0 1 6.033-3.423h15.178c.085 0 .163.046.204.12l5.449 9.716a14.05 14.05 0 0 1-.11 14.091L60.946 60.092a14.06 14.06 0 0 1-12.105 6.922z"/><path stroke="#fff" d="M48.817 0c4.994 0 9.612 2.598 12.133 6.908l5.81 9.728a.234.234 0 0 1-.2.354H51.656a7.03 7.03 0 0 0-6.033 3.424l-15.626 26.16a7.03 7.03 0 0 1-6.033 3.423H7.844a.23.23 0 0 1-.2-.111L1.73 40.338c-2.491-4.377-2.215-9.753.343-14.09L13.506 6.861C16.033 2.578 20.636 0 25.61 0z"/></g></g></svg>