<svg xmlns="http://www.w3.org/2000/svg" xmlns:xlink="http://www.w3.org/1999/xlink" viewBox="0 0 128 128"><defs><linearGradient id="f" x1="50%" x2="50%" y1="0%" y2="88.057%"><stop offset="0%" stop-color="#00fffb" stop-opacity=".6"/><stop offset="100%" stop-color="#00a1ff" stop-opacity="0"/></linearGradient><linearGradient id="g" x1="5.418%" x2="103.183%" y1="25.344%" y2="75.02%"><stop offset="0%" stop-color="#fff" stop-opacity="0"/><stop offset="100%" stop-color="#fff" stop-opacity=".2"/></linearGradient><linearGradient id="h" x1="5.418%" x2="103.183%" y1="25.344%" y2="75.02%"><stop offset="0%" stop-color="#fff" stop-opacity="0"/><stop offset="100%" stop-color="#fff" stop-opacity=".2"/></linearGradient><linearGradient id="k" x1="63.829%" x2="63.829%" y1="35.235%" y2="120.491%"><stop offset="0%" stop-color="#fbfeff"/><stop offset="100%" stop-color="#a7ddf9"/></linearGradient><filter id="a" width="119.3%" height="119.2%" x="-9.7%" y="-7.7%" filterUnits="objectBoundingBox"><feOffset dy="2" in="SourceAlpha" result="shadowOffsetOuter1"/><feGaussianBlur in="shadowOffsetOuter1" result="shadowBlurOuter1" stdDeviation="3"/><feColorMatrix in="shadowBlurOuter1" result="shadowMatrixOuter1" values="0 0 0 0 0 0 0 0 0 0 0 0 0 0 0 0 0 0 0.2 0"/><feMerge><feMergeNode in="shadowMatrixOuter1"/><feMergeNode in="SourceGraphic"/></feMerge></filter><filter id="e" width="101.9%" height="101.9%" x="-1%" y="-1%" filterUnits="objectBoundingBox"><feOffset dy="-2" in="SourceAlpha" result="shadowOffsetInner1"/><feComposite in="shadowOffsetInner1" in2="SourceAlpha" k2="-1" k3="1" operator="arithmetic" result="shadowInnerInner1"/><feColorMatrix in="shadowInnerInner1" values="0 0 0 0 0 0 0 0 0 0 0 0 0 0 0 0 0 0 0.0961828699 0"/></filter><filter id="j" width="121%" height="120.3%" x="-10.5%" y="-7%" filterUnits="objectBoundingBox"><feOffset dy="2" in="SourceAlpha" result="shadowOffsetOuter1"/><feGaussianBlur in="shadowOffsetOuter1" result="shadowBlurOuter1" stdDeviation="2.5"/><feColorMatrix in="shadowBlurOuter1" values="0 0 0 0 0 0 0 0 0 0 0 0 0 0 0 0 0 0 0.201736984 0"/></filter><filter id="l" width="113.4%" height="114%" x="-6.7%" y="-3.9%" filterUnits="objectBoundingBox"><feOffset dy="-2" in="SourceAlpha" result="shadowOffsetInner1"/><feComposite in="shadowOffsetInner1" in2="SourceAlpha" k2="-1" k3="1" operator="arithmetic" result="shadowInnerInner1"/><feColorMatrix in="shadowInnerInner1" values="0 0 0 0 0.0496923343 0 0 0 0 0.174305681 0 0 0 0 0.303179312 0 0 0 0.261604362 0"/></filter><path id="b" d="M81.53 0c12.15 0 22 9.85 22 22v60c0 12.15-9.85 22-22 22h-6.404L60.963 52.305a.5.5 0 0 1 .653-.602l11.09 4.039a.97.97 0 0 0 .8-1.764l-20.78-11.38a2 2 0 0 0-1.922 0l-20.78 11.38a.97.97 0 0 0 .799 1.764l11.09-4.039a.5.5 0 0 1 .654.602L28.402 104H22C9.85 104 0 94.15 0 82V22C0 9.85 9.85 0 22 0z"/><path id="i" d="M75.726 104 65.564 58.06a.5.5 0 0 1 .543-.605l15.896 1.753a1 1 0 0 0 .837-1.68L53.22 26.124a2 2 0 0 0-2.91 0L20.69 57.528a1 1 0 0 0 .836 1.68l15.897-1.753a.5.5 0 0 1 .543.605L27.803 104z"/><radialGradient id="c" cx="50%" cy="50%" r="87.336%" fx="50%" fy="50%" gradientTransform="matrix(0 .9955 -1.2351 0 1.118 .002)"><stop offset="0%" stop-color="#22c8fb"/><stop offset="56.245%" stop-color="#0074ff"/><stop offset="78.382%" stop-color="#0074ff"/><stop offset="100%" stop-color="#44b0fb"/></radialGradient></defs><g fill="none" fill-rule="evenodd" transform="translate(12 12)"><g filter="url(#a)"><use xlink:href="#b" fill="url(#c)"/><use xlink:href="#b" fill="#000" filter="url(#e)"/></g><path fill="url(#f)" d="M77.659 52.924 104 78.32l-.471-.454V82c0 12.15-9.85 22-22 22H22C9.85 104 0 94.15 0 82v-4.134l25.882-24.942Z"/><ellipse cx="51.765" cy="52" stroke="url(#g)" stroke-width="2" rx="42.353" ry="42.545"/><ellipse cx="51.765" cy="52" stroke="url(#h)" stroke-width="2.5" rx="28.235" ry="28.364"/><use xlink:href="#i" fill="#000" filter="url(#j)"/><use xlink:href="#i" fill="url(#k)"/><use xlink:href="#i" fill="#000" filter="url(#l)"/><path fill="#fff" d="M74.988 38.33c1.3 0 2.353-1.059 2.353-2.364a2.36 2.36 0 0 0-2.353-2.364 2.36 2.36 0 0 0-2.353 2.364 2.36 2.36 0 0 0 2.353 2.363" opacity=".2"/><ellipse cx="22.824" cy="22.455" fill="#fff" opacity=".2" rx="2.353" ry="2.364"/><path fill="#fff" d="M18.328 80.56c1.3 0 2.353-1.058 2.353-2.363a2.36 2.36 0 0 0-2.353-2.364 2.36 2.36 0 0 0-2.353 2.364 2.36 2.36 0 0 0 2.353 2.363" opacity=".2"/></g></svg>