<svg xmlns="http://www.w3.org/2000/svg" viewBox="0 0 64 64"><path fill="#b7b7b7" d="M12 6h40v20H12z"/><rect width="56" height="34" x="4" y="24" fill="#4f4f4f" rx="2.8" ry="2.834"/><path d="M16 32h32v4H16zm4 8h24v4H20zm4 8h16v4H24z" opacity=".4"/><path d="M4 55.168v1C4 57.738 5.25 59 6.8 59h50.4c1.55 0 2.8-1.262 2.8-2.832v-1C60 56.738 58.75 58 57.2 58H6.8C5.25 58 4 56.738 4 55.168" opacity=".2"/><path fill="#fff" d="M12 6v1h40V6z" opacity=".2"/><circle cx="48" cy="47" r="16" opacity=".2"/><circle cx="48" cy="46" r="16" fill="#3cd240"/><path fill="#fff" d="M41 48.143 48 56l7-8.143h-4V36h-6v12.143z"/><path d="M16 10h10v6H16zm22 0h10v6H38z" opacity=".5"/></svg>