<svg xmlns="http://www.w3.org/2000/svg" xmlns:xlink="http://www.w3.org/1999/xlink" viewBox="0 0 128 128"><defs><path id="b" d="M5.035 0h97.93a4.303 4.303 0 0 1 4.25 4.973L93.12 94.343A16.176 16.176 0 0 1 77.14 108H30.86a16.176 16.176 0 0 1-15.98-13.656L.785 4.974A4.303 4.303 0 0 1 5.034 0"/><path id="f" d="M2.107 0A2.107 2.107 0 0 0 .026 2.435L14.04 91.286a14.78 14.78 0 0 0 14.601 12.479h45.046a14.78 14.78 0 0 0 14.6-12.479l14.015-88.85A2.107 2.107 0 0 0 100.221 0z"/><path id="h" d="M5.035 0h97.93a4.303 4.303 0 0 1 4.25 4.973L93.258 93.47A17.21 17.21 0 0 1 76.256 108H31.744a17.21 17.21 0 0 1-17.001-14.53L.784 4.973A4.303 4.303 0 0 1 5.034 0"/><radialGradient id="d" cx="50%" cy="33.52%" r="66.48%" fx="50%" fy="33.52%"><stop offset="0%" stop-color="#b8c6e3" stop-opacity=".798"/><stop offset="17.661%" stop-color="#bcc9e5" stop-opacity=".809"/><stop offset="29.896%" stop-color="#bfcae5" stop-opacity=".815"/><stop offset="100%" stop-color="#e8ebf2" stop-opacity=".921"/></radialGradient><radialGradient id="i" cx="50.081%" cy="36.411%" r="60.439%" fx="50.081%" fy="36.411%" gradientTransform="rotate(89.974 .482 .345)scale(1 .8978)"><stop offset="0%" stop-color="#fff" stop-opacity=".081"/><stop offset="62.149%" stop-color="#fff" stop-opacity=".191"/><stop offset="100%" stop-color="#fff" stop-opacity=".576"/></radialGradient><filter id="a" width="117.2%" height="118.5%" x="-8.6%" y="-7.4%" filterUnits="objectBoundingBox"><feOffset dy="2" in="SourceAlpha" result="shadowOffsetOuter1"/><feGaussianBlur in="shadowOffsetOuter1" result="shadowBlurOuter1" stdDeviation="3"/><feColorMatrix in="shadowBlurOuter1" result="shadowMatrixOuter1" values="0 0 0 0 0 0 0 0 0 0 0 0 0 0 0 0 0 0 0.2 0"/><feMerge><feMergeNode in="shadowMatrixOuter1"/><feMergeNode in="SourceGraphic"/></feMerge></filter><filter id="e" width="102.3%" height="103.7%" x="-1.2%" y="-1.9%" filterUnits="objectBoundingBox"><feGaussianBlur in="SourceAlpha" result="shadowBlurInner1" stdDeviation="1"/><feOffset dy="2" in="shadowBlurInner1" result="shadowOffsetInner1"/><feComposite in="shadowOffsetInner1" in2="SourceAlpha" k2="-1" k3="1" operator="arithmetic" result="shadowInnerInner1"/><feColorMatrix in="shadowInnerInner1" values="0 0 0 0 1 0 0 0 0 1 0 0 0 0 1 0 0 0 0.6 0"/></filter></defs><g fill="none" fill-rule="evenodd"><g filter="url(#a)" transform="translate(10 10)"><use xlink:href="#b" fill="url(#d)"/><use xlink:href="#b" fill="#000" filter="url(#e)"/></g><g transform="translate(12.836 12.118)"><mask id="g" fill="#fff"><use xlink:href="#f"/></mask><use xlink:href="#f" fill="#fff" fill-opacity="0" fill-rule="nonzero"/><g mask="url(#g)"><path fill="#617b13" d="M10.131 100.797q.075 6.144 6.561 6.144H56.97a4.314 4.314 0 0 0 4.29-4.758l-1.507-14.545a4.314 4.314 0 0 0-4.424-3.867l-41.965 1.302A4.314 4.314 0 0 0 9.2 89.752l.917 10.732q.014.157.015.313"/><path fill="#6d8700" d="M38.435 59.404 78.45 30.627a4.314 4.314 0 0 1 6.044 1.016l9.98 14.155a4.314 4.314 0 0 1-.796 5.827L53.624 84.333a4.314 4.314 0 0 1-6.509-1.263l-9.941-18.086a4.314 4.314 0 0 1 1.261-5.58"/><path fill="#839928" d="m7.849 69.615 1.846 20.953a4.31 4.31 0 0 0 2.904 3.704l17.8 6.071a4.314 4.314 0 0 0 5.376-2.426l23.247-55.875a4.314 4.314 0 0 0-2.361-5.654L30.892 25.934a4.314 4.314 0 0 0-5.576 2.274L8.191 67.514a4.3 4.3 0 0 0-.342 2.101"/><path fill="#758d10" d="m28.75 106.91.596.006a4.31 4.31 0 0 0 3.66-1.96l27.29-41.944a4.314 4.314 0 0 0-1.511-6.118L41.95 47.482a4.314 4.314 0 0 0-5.701 1.383L15.467 80.237a4.31 4.31 0 0 0-.282 4.272l9.733 19.977a4.31 4.31 0 0 0 3.833 2.424"/><path fill="#6d8700" d="m14.62 44.286 63.304 32.78a4.314 4.314 0 0 1 1.786 5.927l-7.2 12.944a4.314 4.314 0 0 1-5.682 1.77L9.35 69.283a4.31 4.31 0 0 1-2.382-3.456L5.76 53.208a4.3 4.3 0 0 1 .517-2.492l2.58-4.682a4.314 4.314 0 0 1 5.762-1.748"/><path fill="#869d29" d="m59.962 97.3-1.647 3.482a4.314 4.314 0 0 0 3.899 6.16H83.63q6.45 0 7.098-6.375v-.006l4.493-43.326a4.314 4.314 0 0 0-3.54-4.693l-6.477-1.145a4.314 4.314 0 0 0-4.65 2.402z"/><path fill="#90a72f" d="m7.84 74.41.23 2.958a4.31 4.31 0 0 0 2.283 3.476l41.339 21.882a4.314 4.314 0 0 0 5.905-1.942l7.661-15.926c1-2.08.188-4.577-1.845-5.67l-42.81-23.007a4.314 4.314 0 0 0-5.967 2.01L8.214 72.287a4.3 4.3 0 0 0-.375 2.125"/></g></g><use xlink:href="#h" fill="url(#i)" fill-rule="nonzero" transform="translate(10 10)"/></g></svg>