<svg xmlns="http://www.w3.org/2000/svg" viewBox="0 0 64 64"><path fill="#9575cd" d="M25.175 63.303 23.83 6.278q-5.87 2.2-9.17 6.887-3.263 4.689-3.263 11.659 0 1.589.164 2.61.202.977.407 1.588.204.571.368.897.202.326.202.571-2.16 0-3.83-.407-1.672-.45-2.814-1.387-1.1-.935-1.712-2.486-.571-1.546-.571-3.83 0-2.771 1.18-5.462 1.223-2.688 3.302-5.095 2.12-2.403 4.933-4.442 2.855-2.038 6.074-3.506 3.259-1.508 6.765-2.322 3.547-.858 7.053-.858.937 0 1.713.04.813.04 1.627.122l.735 51.359L54.561 1.1h5.828L37.198 63.305H25.173Z" data-iconColor="Vala"/></svg>