<svg xmlns="http://www.w3.org/2000/svg" viewBox="0 0 64 64"><rect width="42" height="32" x="-56" y="-48" opacity=".2" rx="2.5" ry="2.5" transform="rotate(90)scale(-1 1)"/><rect width="42" height="32" x="-55" y="-48" fill="#8e8e8e" rx="2.5" ry="2.5" transform="rotate(90)scale(-1 1)"/><rect width="40" height="52" x="-50" y="-58" opacity=".2" rx="2.5" ry="2.5" transform="rotate(90)scale(-1 1)"/><rect width="40" height="52" x="-49" y="-58" fill="#4f4f4f" rx="2.5" ry="2.5" transform="rotate(90)scale(-1 1)"/><rect width="32" height="44" x="-45" y="-54" fill="#333" rx="0" ry="0" transform="rotate(90)scale(-1 1)"/><path fill="#fff" d="M8.5 9A2.495 2.495 0 0 0 6 11.5v1C6 11.115 7.115 10 8.5 10h47c1.385 0 2.5 1.115 2.5 2.5v-1c0-1.385-1.115-2.5-2.5-2.5ZM10 45h44v1H10z" opacity=".1"/><path d="M42 18a4 4 0 1 0 0 8 4 4 0 0 0 0-8" opacity=".2"/><path fill="#c0ca33" d="M42 17a4 4 0 1 0 0 8 4 4 0 0 0 0-8M21 29c-5.5 0-11 4-11 14.124V45h44s-3.667-12-9.166-12-5.5 6-9.167 6-9.166-10-14.666-10z"/></svg>