<svg xmlns="http://www.w3.org/2000/svg" viewBox="0 0 16 16"><g fill="currentColor" stroke-linecap="square" class="ColorScheme-Text"><path d="M3.5 3A1.5 1.5 0 0 0 2 4.5 1.5 1.5 0 0 0 3.5 6 1.5 1.5 0 0 0 5 4.5 1.5 1.5 0 0 0 3.5 3m-.012 1H3.5a.5.5 0 0 1 .5.5.5.5 0 0 1-.5.5.5.5 0 0 1-.5-.5.5.5 0 0 1 .488-.5m.012 7A1.5 1.5 0 0 0 2 12.5 1.5 1.5 0 0 0 3.5 14 1.5 1.5 0 0 0 5 12.5 1.5 1.5 0 0 0 3.5 11m-.012 1H3.5a.5.5 0 0 1 .5.5.5.5 0 0 1-.5.5.5.5 0 0 1-.5-.5.5.5 0 0 1 .488-.5m8.012-1a1.5 1.5 0 0 0-1.5 1.5 1.5 1.5 0 0 0 1.5 1.5 1.5 1.5 0 0 0 1.5-1.5 1.5 1.5 0 0 0-1.5-1.5m-.012 1h.012a.5.5 0 0 1 .5.5.5.5 0 0 1-.5.5.5.5 0 0 1-.5-.5.5.5 0 0 1 .488-.5"/><path d="M3 5h1v7H3zm4-1v1h3a1 1 0 0 1 1 1v6h1V6a2 2 0 0 0-1.951-2H10z"/></g><path fill="currentColor" d="M8.5 1.793 5.793 4.5 8.5 7.207l.707-.707-2-2 2-2z" class="ColorScheme-Text"/></svg>