<svg xmlns="http://www.w3.org/2000/svg" viewBox="0 0 64 64"><circle cx="32" cy="33" r="28" opacity=".2"/><circle cx="32" cy="32" r="28" fill="#3f3f3f"/><path fill="none" stroke="#000" stroke-linecap="round" stroke-linejoin="round" stroke-width="8" d="M39.003 45.133a14.01 14.01 0 0 1-17.734-3.121 14.01 14.01 0 0 1-.015-18.005 14.01 14.01 0 0 1 17.727-3.152" opacity=".2"/><path fill="none" stroke="#fff" stroke-linecap="round" stroke-linejoin="round" stroke-width="8" d="M39.003 44.134a14.01 14.01 0 0 1-17.734-3.121 14.01 14.01 0 0 1-.015-18.005 14.01 14.01 0 0 1 17.727-3.153"/><circle cx="32" cy="33" r="6" opacity=".2"/><circle cx="32" cy="32" r="6" fill="#fff"/><path fill="#fff" d="M32 4A28 28 0 0 0 4 32a28 28 0 0 0 .018.492A28 28 0 0 1 32 5a28 28 0 0 1 27.975 27.492A28 28 0 0 0 60 32 28 28 0 0 0 32 4" opacity=".1"/></svg>