<svg xmlns="http://www.w3.org/2000/svg" viewBox="0 0 64 64"><rect width="57" height="57" x="4" y="4" opacity=".2" rx="2.85" ry="2.85"/><rect width="57" height="57" x="4" y="3" fill="#545454" rx="2.85" ry="2.85"/><path fill="#fff" d="M18.75 22C17.227 22 16 23.115 16 24.5s1.227 2.5 2.75 2.5h27.5c1.523 0 2.75-1.115 2.75-2.5S47.773 22 46.25 22h-16.5Zm0 14C17.227 36 16 37.115 16 38.5s1.227 2.5 2.75 2.5h27.5c1.523 0 2.75-1.115 2.75-2.5S47.773 36 46.25 36h-16.5Z" opacity=".4"/><path d="M44 25.5a5.5 5.5 0 1 0-11 0 5.5 5.5 0 0 0 11 0" opacity=".2"/><path fill="#fff" d="M44 24.5a5.5 5.5 0 1 0-11 0 5.5 5.5 0 0 0 11 0"/><path d="M27 39.5a5.5 5.5 0 1 0-11 0 5.5 5.5 0 0 0 11 0" opacity=".2"/><path fill="#fff" d="M27 38.5a5.5 5.5 0 1 0-11 0 5.5 5.5 0 0 0 11 0"/><path fill="#fff" d="M6.85 3A2.843 2.843 0 0 0 4 5.85v1C4 5.27 5.27 4 6.85 4h51.3C59.73 4 61 5.27 61 6.85v-1C61 4.27 59.73 3 58.15 3z" opacity=".1"/></svg>