<svg xmlns="http://www.w3.org/2000/svg" viewBox="0 0 64 64"><g transform="translate(-34.29 -34.041)"><circle cx="66.29" cy="67.041" r="28" opacity=".2"/><circle cx="66.29" cy="66.041" r="28" fill="#545454"/><circle cx="66.29" cy="67.041" r="24" opacity=".2"/><circle cx="66.29" cy="66.041" r="24" fill="#fff"/><path fill="#545454" d="M90.29 66.041s-10.746 10-24 10c-13.255 0-24-10-24-10s10.745-10 24-10c13.254 0 24 10 24 10"/><circle cx="66.29" cy="67.041" r="6" opacity=".2"/><circle cx="66.29" cy="66.041" r="6" fill="#fff"/><path fill="#fff" d="M66.29 38.041a28 28 0 0 0-28 28 28 28 0 0 0 .018.492A28 28 0 0 1 66.29 39.041a28 28 0 0 1 27.975 27.492 28 28 0 0 0 .025-.492 28 28 0 0 0-28-28" opacity=".1"/></g></svg>