<svg xmlns="http://www.w3.org/2000/svg" viewBox="0 0 64 64"><circle cx="32" cy="33" r="28" opacity=".2"/><circle cx="32" cy="32" r="27.3" fill="#7a7a7a"/><path fill="#80c535" d="M6.194 21.138a27.95 27.95 0 0 1 15.234-15.08L31.99 32.013Z"/><path fill="#fff90b" d="M42.863 6.216A27.95 27.95 0 0 0 21.43 6.06l10.56 25.952Z"/><path fill="#29dcc4" d="M6.216 21.125A27.95 27.95 0 0 0 6.06 42.56L32.012 32Z"/><path fill="#11c3ff" d="M21.138 57.795A27.95 27.95 0 0 1 6.058 42.56L32.013 32Z"/><path fill="#ff8a1f" d="M42.862 6.213a27.95 27.95 0 0 1 15.08 15.235l-25.954 10.56Z"/><path fill="#ff5757" d="M57.784 42.883a27.95 27.95 0 0 0 .157-21.435L31.988 32.01Z"/><path fill="#4f7cff" d="M21.106 57.784a27.95 27.95 0 0 0 21.434.157L31.98 31.988Z"/><path fill="#e221ff" d="M57.775 42.862a27.95 27.95 0 0 1-15.234 15.079L31.98 31.988Z"/><circle cx="32" cy="33" r="11" opacity=".2"/><circle cx="32" cy="32" r="11" fill="#fff"/><path fill="#fff" d="M32 4A28 28 0 0 0 4 32a28 28 0 0 0 .018.492A28 28 0 0 1 32 5a28 28 0 0 1 27.975 27.492A28 28 0 0 0 60 32 28 28 0 0 0 32 4" opacity=".2"/></svg>