<svg xmlns="http://www.w3.org/2000/svg" xmlns:xlink="http://www.w3.org/1999/xlink" viewBox="0 0 128 128"><defs><linearGradient id="d" x1="50%" x2="50%" y1="0%" y2="100%"><stop offset="0%" stop-color="#327dff"/><stop offset="100%" stop-color="#1066ff"/></linearGradient><linearGradient id="g" x1="50%" x2="7.994%" y1="50%" y2="88.893%"><stop offset="0%" stop-color="#fff" stop-opacity=".1"/><stop offset="100%" stop-color="#fff" stop-opacity=".3"/></linearGradient><filter id="c" width="125%" height="120.2%" x="-12.5%" y="-8.3%" filterUnits="objectBoundingBox"><feOffset dy="2" in="SourceAlpha" result="shadowOffsetOuter1"/><feGaussianBlur in="shadowOffsetOuter1" result="shadowBlurOuter1" stdDeviation="3.5"/><feColorMatrix in="shadowBlurOuter1" values="0 0 0 0 0.0391387195 0 0 0 0 0.388542822 0 0 0 0 1 0 0 0 0.5 0"/></filter><filter id="f" width="124.6%" height="124.6%" x="-12.3%" y="-8.8%" filterUnits="objectBoundingBox"><feOffset dy="1" in="SourceAlpha" result="shadowOffsetOuter1"/><feGaussianBlur in="shadowOffsetOuter1" result="shadowBlurOuter1" stdDeviation="1"/><feComposite in="shadowBlurOuter1" in2="SourceAlpha" operator="out" result="shadowBlurOuter1"/><feColorMatrix in="shadowBlurOuter1" values="0 0 0 0 0 0 0 0 0 0 0 0 0 0 0 0 0 0 0.05 0"/></filter><path id="a" d="M92 105a9 9 0 0 1-9 9H9a9 9 0 0 1-9-9V9a9 9 0 0 1 9-9h54.5L92 28.5z"/><path id="e" d="M63.5 0 92 28.5H72.5a9 9 0 0 1-9-9z"/></defs><g fill="none" fill-rule="evenodd"><g transform="translate(18 7)"><use xlink:href="#a" fill="#000" filter="url(#c)"/><use xlink:href="#a" fill="url(#d)"/></g><g transform="translate(18 7)"><use xlink:href="#e" fill="#000" filter="url(#f)"/><use xlink:href="#e" fill="url(#g)"/></g><path fill="#fff" d="M65 93v4h4c1.112 0 2-.89 2-2 0-1.112-.89-2-2-2zm4-2c2.761 0 4 2 4 4s-1.22 4-4 4h-3.998v6H63V91zm13 0v9h2v2h-2v3h-2v-3h-6.019v-2q5.209-8.295 5.717-8.945l.034-.041q.014-.014.018-.014zm-33 0 5 9.5 5-9.5h2v14h-2v-9l-4 7h-2l-4-7v9h-2V91zm31 3.271L76.5 100H80zM64 36.5c12.979 0 23.5 10.521 23.5 23.5S76.979 83.5 64 83.5 40.5 72.979 40.5 60 51.021 36.5 64 36.5m0 3c-11.322 0-20.5 9.178-20.5 20.5S52.678 80.5 64 80.5 84.5 71.322 84.5 60 75.322 39.5 64 39.5m-6.901 6.606 11.381 6.605 11.101 6.577c.542.32.542 1.133 0 1.45L68.435 67.29l-11.336 6.604c-.534.309-1.099-.094-1.099-.727V46.834c0-.636.565-1.036 1.099-.728"/></g></svg>