<svg xmlns="http://www.w3.org/2000/svg" viewBox="0 0 22 22"><path fill="currentColor" d="M6.5 18h9a.499.499 0 1 1 0 1h-9a.499.499 0 1 1 0-1M4 3c-1.108 0-2 .892-2 2v10c0 1.108.892 2 2 2h14c1.108 0 2-.892 2-2V5c0-1.108-.892-2-2-2zm0 1h14c.554 0 1 .446 1 1v10c0 .554-.446 1-1 1H4c-.554 0-1-.446-1-1V5c0-.554.446-1 1-1" class="ColorScheme-Text"/><path fill="currentColor" d="M11 6a4 4 0 0 0-4 4 4 4 0 0 0 4 4 4 4 0 0 0 .541-.04 4 4 0 0 0 .207-.04 4 4 0 0 0 .332-.072 4 4 0 0 0 .217-.073 4 4 0 0 0 .3-.113 4 4 0 0 0 .204-.1 4 4 0 0 0 .289-.158 4 4 0 0 0 .181-.12 4 4 0 0 0 .262-.196 4 4 0 0 0 .18-.158 4 4 0 0 0 .217-.217 4 4 0 0 0 .158-.18 4 4 0 0 0 .195-.262 4 4 0 0 0 .121-.181 4 4 0 0 0 .158-.29 4 4 0 0 0 .1-.202 4 4 0 0 0 .113-.301 4 4 0 0 0 .073-.217 4 4 0 0 0 .072-.332 4 4 0 0 0 .04-.207A4 4 0 0 0 15 10l-.004-.174-.01-.144-.002-.03-.002-.01-.017-.163-.02-.141-.006-.033-.005-.026-.03-.144-.04-.17-.05-.164v-.004l-.048-.145-.008-.02a4 4 0 0 0-.143-.343 4 4 0 0 0-.088-.174l-.08-.142-.074-.121-.047-.075-.021-.029-.086-.123-.006-.008-.004-.006-.106-.132-.011-.016-.028-.033-.101-.116a4 4 0 0 0-.135-.142 4 4 0 0 0-.142-.135l-.116-.101-.033-.028-.016-.011-.132-.106-.006-.004-.008-.006-.123-.086-.03-.021-.074-.047-.12-.074-.143-.08a4 4 0 0 0-.174-.088l-.02-.01a4 4 0 0 0-.343-.14l-.145-.05H12.2l-.164-.048-.17-.041-.144-.03-.026-.005-.033-.006-.14-.02-.165-.017-.01-.002-.029-.002-.144-.01zm0 1v6a3 3 0 0 1-3-3 3 3 0 0 1 3-3" class="ColorScheme-Text"/></svg>