<svg xmlns="http://www.w3.org/2000/svg" xmlns:xlink="http://www.w3.org/1999/xlink" viewBox="0 0 96 96"><defs><radialGradient id="b" cx="50%" cy="38.642%" r="61.358%" fx="50%" fy="38.642%"><stop offset="0%" stop-color="#eee"/><stop offset="100%" stop-color="#696969"/></radialGradient><radialGradient id="d" cx="50%" cy="38.642%" r="74.261%" fx="50%" fy="38.642%" gradientTransform="matrix(0 1 -.78973 0 .805 -.114)"><stop offset="0%" stop-color="#eee"/><stop offset="100%"/><stop offset="100%"/></radialGradient><radialGradient id="f" cx="50%" cy="38.642%" r="61.358%" fx="50%" fy="38.642%" gradientTransform="matrix(0 1 -.87352 0 .838 -.114)"><stop offset="0%" stop-color="#eee"/><stop offset="100%" stop-color="#696969"/></radialGradient><radialGradient id="h" cx="50%" cy="38.642%" r="74.261%" fx="50%" fy="38.642%" gradientTransform="matrix(0 1 -.81818 0 .816 -.114)"><stop offset="0%" stop-color="#eee"/><stop offset="100%"/><stop offset="100%"/></radialGradient><radialGradient id="j" cx="50%" cy="38.642%" r="61.358%" fx="50%" fy="38.642%" gradientTransform="matrix(0 1 -.8999 0 .848 -.114)"><stop offset="0%" stop-color="#eee"/><stop offset="100%" stop-color="#696969"/></radialGradient><radialGradient id="l" cx="50%" cy="38.642%" r="61.358%" fx="50%" fy="38.642%" gradientTransform="matrix(0 1 -.89818 0 .847 -.114)"><stop offset="0%" stop-color="#eee"/><stop offset="100%" stop-color="#696969"/></radialGradient><linearGradient id="c" x1="50%" x2="50%" y1=".311%" y2="100%"><stop offset="0%" stop-color="#d7d7d7"/><stop offset="100%" stop-opacity=".865"/></linearGradient><linearGradient id="e" x1="50%" x2="50%" y1="0%" y2="100%"><stop offset="0%" stop-color="#d0d0d0"/><stop offset="100%" stop-opacity=".865"/></linearGradient><linearGradient id="g" x1="50%" x2="50%" y1=".762%" y2="100%"><stop offset="0%" stop-color="#c5c5c5"/><stop offset="100%" stop-opacity=".865"/></linearGradient><linearGradient id="i" x1="50%" x2="50%" y1="0%" y2="100%"><stop offset="0%" stop-color="#5b5b5b"/><stop offset="100%" stop-opacity=".865"/></linearGradient><linearGradient id="k" x1="50%" x2="50%" y1=".915%" y2="100%"><stop offset="0%" stop-color="#4e4e4e"/><stop offset="100%" stop-opacity=".865"/></linearGradient><linearGradient id="m" x1="50%" x2="50%" y1=".915%" y2="100%"><stop offset="0%" stop-color="#4e4e4e"/><stop offset="100%" stop-opacity=".865"/></linearGradient><filter id="a" width="132.5%" height="131%" x="-16.2%" y="-15.5%" filterUnits="objectBoundingBox"><feOffset dy="2" in="SourceAlpha" result="shadowOffsetOuter1"/><feGaussianBlur in="shadowOffsetOuter1" result="shadowBlurOuter1" stdDeviation="2"/><feColorMatrix in="shadowBlurOuter1" result="shadowMatrixOuter1" values="0 0 0 0 0 0 0 0 0 0 0 0 0 0 0 0 0 0 0.2 0"/><feMerge><feMergeNode in="shadowMatrixOuter1"/><feMergeNode in="SourceGraphic"/></feMerge></filter></defs><g fill="none" fill-rule="evenodd" filter="url(#a)" transform="translate(8 6)"><circle cx="39" cy="8" r="8.5" fill="url(#b)" stroke="url(#c)"/><circle cx="39" cy="76" r="8.5" fill="url(#b)" stroke="url(#c)"/><circle cx="72" cy="24" r="8.5" fill="url(#b)" stroke="url(#c)"/><circle cx="72" cy="59" r="8.5" fill="url(#b)" stroke="url(#c)"/><circle cx="8" cy="24" r="8.5" fill="url(#b)" stroke="url(#c)"/><circle cx="8" cy="59" r="8.5" fill="url(#b)" stroke="url(#c)"/><path fill="url(#d)" stroke="url(#e)" stroke-linejoin="round" d="m47.258 8.5 9.422 7.606-13.8 19.455h-6.76L22.35 16.147 29.926 8.5z"/><path fill="url(#f)" stroke="url(#g)" d="m55.787 15.41 9.604 2.99 7.285 13.702-3.205 9.372-23.374.05-3.188-6.245zm-32.574 0 12.878 19.869-3.188 6.246-23.374-.05-3.205-9.373L13.61 18.4z"/><path fill="url(#h)" stroke="url(#i)" stroke-linejoin="round" d="m42.887 47.5 13.784 20.4-9.413 7.6H29.927l-7.571-7.64L36.113 47.5z"/><path fill="url(#j)" stroke="url(#k)" d="m46.129 41.45 23.375.05 3.171 9.4-7.274 13.68-9.462 3.769L42.91 47.717z"/><path fill="url(#l)" stroke="url(#m)" d="m32.981 41.5 3.107 6.22-13.027 20.63-9.461-3.77-7.277-13.684 3.284-9.346z"/></g></svg>