<svg xmlns="http://www.w3.org/2000/svg" viewBox="0 0 64 64"><path d="M4 14.9v40.322A2.78 2.78 0 0 0 6.8 58h50.401A2.78 2.78 0 0 0 60 55.222V14.9Z" opacity=".2"/><path fill="#3f3f3f" d="M4 13.9v40.322A2.78 2.78 0 0 0 6.8 57h50.401A2.78 2.78 0 0 0 60 54.222V13.9Z"/><path fill="#4f4f4f" d="M32 13.944V57h25.203A2.78 2.78 0 0 0 60 54.222V13.944Z"/><path fill="#c8c8c8" d="M6.8 7A2.78 2.78 0 0 0 4 9.777V14h56V9.777A2.78 2.78 0 0 0 57.2 7Z"/><path d="M4 14h56v1H4z" opacity=".2"/><path fill="#fff" d="M6.8 7A2.78 2.78 0 0 0 4 9.777v1A2.78 2.78 0 0 1 6.8 8h50.4c1.552 0 2.8 1.238 2.8 2.777v-1A2.78 2.78 0 0 0 57.2 7z" opacity=".2"/><path d="m35.326 24-6.234 13.766L23.322 26h-6.681l9.865 20.121 5.428-.084L41.914 24zM42 28v4h4v-4zm0 7v11h4V35z" opacity=".2"/><path fill="#1b6cff" d="m35.326 23-6.234 13.766L23.322 25h-6.681l9.865 20.121 5.428-.084L41.914 23zM42 27v4h4v-4zm0 7v11h4V34z"/></svg>