<svg xmlns="http://www.w3.org/2000/svg" viewBox="0 0 64 64"><rect width="56" height="56" x="4" y="5" opacity=".2" rx="5" ry="5"/><rect width="56" height="56" x="4" y="4" fill="#1ab7ea" rx="5" ry="5"/><path d="m11 24 2 3s1-2 4-2c2 4 5 25 12 25 14 0 21-24 21-30 0-1 1-5-5-5-8 0-11 10-11 10s3-1 6-1c1 3-2 10-7 14-4-5-4-22-9-22-4 0-13 8-13 8" opacity=".2"/><path fill="#fff" d="m11 23 2 3s1-2 4-2c2 4 5 25 12 25 14 0 21-24 21-30 0-1 1-5-5-5-8 0-11 10-11 10s3-1 6-1c1 3-2 10-7 14-4-5-4-22-9-22-4 0-13 8-13 8"/><path fill="#fff" d="M9 4C6.23 4 4 6.23 4 9v1c0-2.77 2.23-5 5-5h46c2.77 0 5 2.23 5 5V9c0-2.77-2.23-5-5-5z" opacity=".2"/></svg>