<svg xmlns="http://www.w3.org/2000/svg" xmlns:xlink="http://www.w3.org/1999/xlink" viewBox="0 0 128 128"><defs><filter id="a" width="119.2%" height="119.2%" x="-9.6%" y="-7.7%" filterUnits="objectBoundingBox"><feOffset dy="2" in="SourceAlpha" result="shadowOffsetOuter1"/><feGaussianBlur in="shadowOffsetOuter1" result="shadowBlurOuter1" stdDeviation="3"/><feColorMatrix in="shadowBlurOuter1" result="shadowMatrixOuter1" values="0 0 0 0 0 0 0 0 0 0 0 0 0 0 0 0 0 0 0.2 0"/><feMerge><feMergeNode in="shadowMatrixOuter1"/><feMergeNode in="SourceGraphic"/></feMerge></filter><filter id="e" width="101.9%" height="101.9%" x="-1%" y="-1%" filterUnits="objectBoundingBox"><feOffset dy="-2" in="SourceAlpha" result="shadowOffsetInner1"/><feComposite in="shadowOffsetInner1" in2="SourceAlpha" k2="-1" k3="1" operator="arithmetic" result="shadowInnerInner1"/><feColorMatrix in="shadowInnerInner1" values="0 0 0 0 0 0 0 0 0 0 0 0 0 0 0 0 0 0 0.101016171 0"/></filter><filter id="g" width="139.5%" height="139.5%" x="-19.7%" y="-11.8%" filterUnits="objectBoundingBox"><feOffset dy="3" in="SourceAlpha" result="shadowOffsetOuter1"/><feGaussianBlur in="shadowOffsetOuter1" result="shadowBlurOuter1" stdDeviation="2"/><feColorMatrix in="shadowBlurOuter1" values="0 0 0 0 0.322289899 0 0 0 0 0.533281681 0 0 0 0 0.621721351 0 0 0 0.205947129 0"/></filter><filter id="j" width="130.6%" height="130%" x="-15.3%" y="-9%" filterUnits="objectBoundingBox"><feOffset dy="3" in="SourceAlpha" result="shadowOffsetOuter1"/><feGaussianBlur in="shadowOffsetOuter1" result="shadowBlurOuter1" stdDeviation="2"/><feColorMatrix in="shadowBlurOuter1" values="0 0 0 0 0.322289899 0 0 0 0 0.533281681 0 0 0 0 0.621721351 0 0 0 0.205947129 0"/></filter><linearGradient id="c" x1="50%" x2="50%" y1="0%" y2="98.139%"><stop offset="0%" stop-color="#fff"/><stop offset="100%" stop-color="#ededed"/></linearGradient><linearGradient id="h" x1="89.338%" x2="0%" y1="0%" y2="100%"><stop offset="0%" stop-color="#00eadb"/><stop offset="100%" stop-color="#0065ff"/></linearGradient><linearGradient id="k" x1="15.506%" x2="86.559%" y1="13.669%" y2="100%"><stop offset="0%" stop-color="#00eadb"/><stop offset="100%" stop-color="#0065ff"/></linearGradient><path id="f" d="M31.5 24h23a7.5 7.5 0 0 1 7.5 7.5v23a7.5 7.5 0 0 1-7.5 7.5h-23a7.5 7.5 0 0 1-7.5-7.5v-23a7.5 7.5 0 0 1 7.5-7.5"/><path id="i" d="M37.5 0C43.851 0 49 5.149 49 11.5V20H31.5c-6.254 0-11.341 4.992-11.496 11.208L20 31.5V50h-8.5C5.246 50 .159 45.008.004 38.792L0 38.5v-27C0 5.149 5.149 0 11.5 0zM49 42.5a7.5 7.5 0 0 1-7.5 7.5H24V31.5a7.5 7.5 0 0 1 7.257-7.496L31.5 24h17.499z"/><rect id="b" width="104" height="104" x="0" y="0" rx="23"/></defs><g fill="none" fill-rule="evenodd" filter="url(#a)" transform="translate(12 12)"><use xlink:href="#b" fill="url(#c)"/><use xlink:href="#b" fill="#000" filter="url(#e)"/><g fill-rule="nonzero"><g transform="matrix(-1 0 0 1 107 21)"><use xlink:href="#f" fill="#000" filter="url(#g)"/><use xlink:href="#f" fill="url(#h)"/></g><g transform="translate(21 21)"><use xlink:href="#i" fill="#000" filter="url(#j)"/><use xlink:href="#i" fill="url(#k)"/></g></g></g></svg>