<svg xmlns="http://www.w3.org/2000/svg" xmlns:xlink="http://www.w3.org/1999/xlink" viewBox="0 0 256 256"><defs><linearGradient id="d" x1="50%" x2="50%" y1="0%" y2="97.95%"><stop offset="0%" stop-color="#ba58ff"/><stop offset="100%" stop-color="#7e21ff"/></linearGradient><linearGradient id="g" x1="50%" x2="7.994%" y1="50%" y2="88.893%"><stop offset="0%" stop-color="#fff" stop-opacity=".1"/><stop offset="100%" stop-color="#fff" stop-opacity=".3"/></linearGradient><filter id="c" width="125%" height="120.2%" x="-12.5%" y="-8.3%" filterUnits="objectBoundingBox"><feOffset dy="4" in="SourceAlpha" result="shadowOffsetOuter1"/><feGaussianBlur in="shadowOffsetOuter1" result="shadowBlurOuter1" stdDeviation="7"/><feColorMatrix in="shadowBlurOuter1" values="0 0 0 0 0.497310222 0 0 0 0 0 0 0 0 0 0.911005435 0 0 0 0.5 0"/></filter><filter id="f" width="124.6%" height="124.6%" x="-12.3%" y="-8.8%" filterUnits="objectBoundingBox"><feOffset dy="2" in="SourceAlpha" result="shadowOffsetOuter1"/><feGaussianBlur in="shadowOffsetOuter1" result="shadowBlurOuter1" stdDeviation="2"/><feComposite in="shadowBlurOuter1" in2="SourceAlpha" operator="out" result="shadowBlurOuter1"/><feColorMatrix in="shadowBlurOuter1" values="0 0 0 0 0 0 0 0 0 0 0 0 0 0 0 0 0 0 0.05 0"/></filter><path id="a" d="M184 210c0 9.941-8.059 18-18 18H18c-9.941 0-18-8.059-18-18V18C0 8.059 8.059 0 18 0h109l57 57z"/><path id="e" d="m127 0 57 57h-39c-9.941 0-18-8.059-18-18z"/></defs><g fill="none" fill-rule="evenodd"><g transform="translate(36 14)"><use xlink:href="#a" fill="#000" filter="url(#c)"/><use xlink:href="#a" fill="url(#d)"/></g><g transform="translate(36 14)"><use xlink:href="#e" fill="#000" filter="url(#f)"/><use xlink:href="#e" fill="url(#g)"/></g><path fill="#fff" d="M152.2 176H99s2.789-3.243 5.21-6.747c6.936-10.039 9.524-20.718 8.444-31.688-.85-8.643-3.913-17.014-8.48-24.867a77 77 0 0 0-5.961-8.803C98.213 104 162 104 162 104a2 2 0 0 0 0-4H94c-1.757 0-2.66 2.104-1.45 3.377.113.119.34.37.668.745a57 57 0 0 1 1.847 2.242 73 73 0 0 1 5.65 8.345c4.3 7.393 7.17 15.235 7.959 23.247.988 10.05-1.37 19.782-7.754 29.023a58 58 0 0 1-5.057 6.291A2 2 0 0 0 94 172H82a2 2 0 0 0-2 2v12a2 2 0 0 0 2 2h12a2 2 0 0 0 2-2v-6h56.2c.927 4.564 4.962 8 9.8 8 5.523 0 10-4.477 10-10s-4.477-10-10-10c-4.838 0-8.873 3.436-9.8 8m9.8-4a6 6 0 1 1 0 12 6 6 0 0 1 0-12m-70 4v8h-8v-8z"/></g></svg>