<svg xmlns="http://www.w3.org/2000/svg" viewBox="0 0 16.933 16.933"><g fill-rule="evenodd" stroke="#000" stroke-opacity=".196" stroke-width=".264" paint-order="stroke fill markers"><path fill="#35a0f3" d="M11.559 1.591a1 1 0 0 0-.435.163c.225.279-.228 2.908.339 3.265l.443.277v6.34l-.696.522c-.536.403.05 2.714-.09 3.013.154.094.385.195.589.17a.7.7 0 0 0 .195-.058l2.83-1.386c.31-.152.62-.277.62-.62v-9.62c0-.342-.31-.468-.62-.62l-2.83-1.387a.6.6 0 0 0-.345-.057z"/><path fill="#11539f" d="m1.74 10.392 9.206-8.51c.42-.385.96-.248.96.55v2.864l-8.51 6.51c-.15.116-.539.396-.877.074l-.86-.818c-.227-.215-.098-.505.08-.67z"/><path fill="#1a81da" d="m1.74 6.537 9.206 8.51c.42.386.96.249.96-.55v-2.863l-8.51-6.51c-.15-.118-.539-.397-.877-.076l-.86.82c-.227.215-.098.505.08.67z"/></g></svg>