<svg xmlns="http://www.w3.org/2000/svg" viewBox="0 0 16 16"><g fill="#fff" fill-rule="evenodd" transform="translate(.221 .221)"><circle cx="3.14" cy="10.457" r="2.142" opacity=".01" transform="rotate(240 3.14 10.457)"/><circle cx="2.746" cy="9.611" r="2.142" opacity=".02" transform="rotate(250 2.746 9.61)"/><circle cx="2.504" cy="8.709" r="2.142" opacity=".03" transform="rotate(260 2.504 8.709)"/><circle cx="2.423" cy="7.779" r="2.142" opacity=".04" transform="rotate(-90 2.423 7.779)"/><circle cx="2.504" cy="6.849" r="2.142" opacity=".05" transform="rotate(-80 2.504 6.849)"/><circle cx="2.746" cy="5.947" r="2.142" opacity=".1" transform="rotate(-70 2.746 5.947)"/><circle cx="3.14" cy="5.101" r="2.142" opacity=".15" transform="rotate(-60 3.14 5.1)"/><circle cx="3.676" cy="4.336" r="2.142" opacity=".3" transform="rotate(-50 3.676 4.336)"/><circle cx="4.336" cy="3.676" r="2.142" transform="rotate(-40 4.336 3.676)"/><circle cx="7.779" cy="2.423" r="2.142" opacity=".01"/><circle cx="8.709" cy="2.504" r="2.142" opacity=".02" transform="rotate(10 8.709 2.504)"/><circle cx="9.611" cy="2.746" r="2.142" opacity=".03" transform="rotate(20 9.61 2.746)"/><circle cx="10.457" cy="3.14" r="2.142" opacity=".04" transform="rotate(30 10.457 3.14)"/><circle cx="11.221" cy="3.676" r="2.142" opacity=".05" transform="rotate(40 11.221 3.676)"/><circle cx="11.882" cy="4.336" r="2.142" opacity=".1" transform="rotate(50 11.882 4.336)"/><circle cx="12.417" cy="5.101" r="2.142" opacity=".15" transform="rotate(60 12.417 5.1)"/><circle cx="12.812" cy="5.947" r="2.142" opacity=".3" transform="rotate(70 12.812 5.947)"/><circle cx="13.053" cy="6.849" r="2.142" transform="rotate(80 13.053 6.849)"/><circle cx="12.417" cy="10.457" r="2.142" opacity=".01" transform="rotate(120 12.417 10.457)"/><circle cx="11.882" cy="11.221" r="2.142" opacity=".02" transform="rotate(130 11.882 11.222)"/><circle cx="11.221" cy="11.882" r="2.142" opacity=".03" transform="rotate(140 11.222 11.882)"/><circle cx="10.457" cy="12.417" r="2.142" opacity=".04" transform="rotate(150 10.457 12.417)"/><circle cx="9.611" cy="12.812" r="2.142" opacity=".05" transform="rotate(160 9.61 12.812)"/><circle cx="8.709" cy="13.053" r="2.142" opacity=".1" transform="rotate(170 8.709 13.053)"/><circle cx="7.779" cy="13.135" r="2.142" opacity=".15" transform="matrix(-1 0 0 -1 15.558 26.27)"/><circle cx="6.849" cy="13.053" r="2.142" opacity=".3" transform="rotate(190 6.849 13.053)"/><circle cx="5.947" cy="12.812" r="2.142" transform="rotate(200 5.947 12.812)"/></g></svg>