<svg xmlns="http://www.w3.org/2000/svg" viewBox="0 0 32 32"><filter id="a" color-interpolation-filters="sRGB"><feGaussianBlur stdDeviation=".657"/></filter><path d="M50.025 1081.337c-6.075 0-11 4.925-11 11s4.925 11 11 11 11-4.925 11-11-4.925-11-11-11" filter="url(#a)" opacity=".2" transform="translate(-34.025 -1076.324)"/><g transform="rotate(-90 -128.18 653.18)"><circle cx="510" cy="797.362" r="11" fill="#fff"/><path fill="#46a7ac" d="M500.75 793.531c-.49 1.18-.75 2.487-.75 3.844 0 5.523 4.477 10 10 10 3.756 0 7.01-2.063 8.719-5.125l-1.282-1.906a7.995 7.995 0 0 1-7.437 5.031 8.02 8.02 0 0 1-7.594-5.406l1.594-1.594z"/><path fill="#d4497f" d="M519.25 801.219c.49-1.18.75-2.487.75-3.844 0-5.523-4.477-10-10-10-3.756 0-7.01 2.063-8.719 5.125l1.281 1.906a7.995 7.995 0 0 1 7.438-5.031 8.02 8.02 0 0 1 7.594 5.406L516 796.375z"/></g></svg>