<svg xmlns="http://www.w3.org/2000/svg" fill="none" viewBox="0 0 24 24"><g fill="#ad4646" data-iconColor="Wally"><path d="M13.375 14.5s-1.425 1.275-1.35 2.137c.038.863 3.563.675.45 1.538-.862.225-.825 1.65-.15 1.912.675.263-2.587-.262-2.55-1.35.038-1.05.488-2.962-.6-3.674-.075 0 2.663.824 4.2-.563"/><path d="M9.7 18.663s2.813 1.35 5.7-.226c2.138-1.162 2.813-2.437 2.588-2.7 0 0 .525.038 1.012.788.375.563-.225 2.288-3.375 3.6-2.962 1.2-5.625.45-6.15-.075-.487-.525.225-1.387.225-1.387M8.575 8.088a.336.336 0 0 1-.337-.338v-.787a.337.337 0 1 1 .675 0v.787c0 .188-.15.338-.338.338m-2.738 3.075s.938 1.012.375 2.137c-.375.75 0 2.175 1.388 1.762 0 0-1.613.075-.975-1.724.225-.675.225-1.688-.788-2.175m7.95-6.638s2.7 1.088 1.725 7.012c-.337 3.225 1.238 2.963 1.613 2.663.337-.262.375-1.312 1.162-1.837.75-.563 2.625-2.213 1.688-3.863s-1.913-1.312-2.513-2.4c-.562-.975-.937-1.125-1.612-1.125-.563 0-1.35-.825-2.063-.45m-.749 3.9a.376.376 0 0 1-.376-.375v-.863a.376.376 0 0 1 .75 0v.9c0 .188-.187.338-.375.338"/><path d="M12.438 6.587s-.825-.45-.15-.825c.862-.487 1.837.3 1.987.75 0 0-1.013-.937-1.838-.487-.45.225 0 .562 0 .562m-3.563-.712a.3.3 0 0 0-.15-.15c-.113-.075-.3-.075-.45-.038-.15.038-.263.15-.375.225.075-.187.187-.337.375-.412.075-.038.187-.038.262-.038.188 0 .375.075.525.188.15.112.225.3.225.487-.037.15-.112.3-.262.338-.038 0-.075.037-.075 0 0-.038.037-.075.037-.113.038-.075.038-.15 0-.262a.4.4 0 0 0-.112-.225M7.562 13s.825 2.775 3.9 2.1c2.813-.637 3.226-3.037 3.226-3.037.187.562-.6 3.824-4.426 3.524-2.775-.224-2.7-2.587-2.7-2.587"/><path d="M8.162 14.35s-.112 1.088-1.687.525c0 0 .787.9 1.762-.075.45-.488-.075-.45-.075-.45m-2.475-4.012c-.187-.113-.187-.413-.075-.6.15-.188.45-.338.675-.45 1.163-.526 2.4-1.238 3.263-2.25 0 0-2.625 1.837-4.013 2.324-.675.263.15.976.15.976"/><path d="M5.388 9.775c-.413.412.262 1.65 1.087 2.025.938.412 2.288-1.2 2.025-1.65-.3-.6-2.25-1.238-3.112-.375"/><path d="M12.25 23.5C6.063 23.5 1 18.438 1 12.25S6.063 1 12.25 1 23.5 6.063 23.5 12.25 18.475 23.5 12.25 23.5m0-21c-5.362 0-9.75 4.388-9.75 9.75 0 5.363 4.388 9.75 9.75 9.75 5.363 0 9.75-4.387 9.75-9.75 0-5.362-4.35-9.75-9.75-9.75"/><path d="M9.063 4.713s3.412-1.425 5.887.75c0 0-.075-1.013-1.987-1.425-1.013-.225-3.263-.188-3.9.675"/></g></svg>