<svg xmlns="http://www.w3.org/2000/svg" viewBox="0 0 64 64"><g transform="translate(0 -988.362)"><rect width="56" height="56" x="-1049.36" y="-60" opacity=".2" rx="2.8" ry="2.8" transform="rotate(90)scale(-1 1)"/><rect width="56" height="56" x="-1048.36" y="-60" fill="#9e7625" rx="2.8" ry="2.8" transform="rotate(90)scale(-1 1)"/><path d="M18.076 1039.852c-.172-.28.378-1.084 1.052-1.788s1.886-1.645 1.886-2.091-2.41-6.039-4.257-12.427c-2.742-9.486-3.322-11.776-4.417-12.946-.737-.787-1.34-1.629-1.34-1.81s2.378-.447 5.284-.436l3.324.012c1.848-.074 1.527.185.248 1.234-.71.582-.872 1.355-.872 1.718 0 .722 1.891 7.713 3.348 12.752.57 1.937 1.103 3.619 2.038 5.324.326.078.762-1.283 2.835-9.004 3.305-12.31 3.36-12.03 4.915-12.03h1.319l2.743 10.624c1.594 6.167 2.955 10.52 3.224 10.434.526-.169 3.874-13.388 4.648-18.093.409-2.487.081-3.22-.577-4.609-.456-.962-.609-1.822-.365-2.059.657-.638 8.2-3.297 9.216-3.297 1.146 0 .848.961-1.062 3.416-2.095 2.693-1.925 5.588-4.035 12.795-1.06 3.618-2.667 8.468-3.45 10.778-.725 2.14-.645 3.77-.68 5.068-.055 2.048.328 3.268 1.467 4.358.965.927 1.476 1.526 1.38 1.912-.141.569-3.703.673-6.975.673-3.771 0-5.89-.21-5.933-.907-.02-.313.72-.726 1.344-1.262 1.517-1.125 1.93-1.664 1.57-3.089-1.11-4.116-3.445-14.949-3.823-15.635-.186-.338-.785-.14-1.097 1.656-.932 4.838-2.812 10.165-3.233 14.533.119.887.552 1.442 1.483 2.151 1.04.794 1.627 1.35 1.666 1.733.068.664-3.572.82-7.241.82-3.177 0-5.439-.194-5.632-.508" opacity=".2"/><path fill="#ffde12" d="M18.076 1038.852c-.172-.28.378-1.084 1.052-1.788s1.886-1.645 1.886-2.091-2.41-6.039-4.257-12.427c-2.742-9.486-3.322-11.776-4.417-12.946-.737-.787-1.34-1.629-1.34-1.81s2.378-.447 5.284-.436l3.324.012c1.848-.074 1.527.185.248 1.234-.71.582-.872 1.355-.872 1.718 0 .722 1.891 7.713 3.348 12.752.57 1.937 1.103 3.619 2.038 5.324.326.078.762-1.283 2.835-9.004 3.305-12.31 3.36-12.03 4.915-12.03h1.319l2.743 10.624c1.594 6.167 2.955 10.52 3.224 10.434.526-.169 3.874-13.388 4.648-18.093.409-2.487.081-3.22-.577-4.609-.456-.962-.609-1.822-.365-2.059.657-.638 8.2-3.297 9.216-3.297 1.146 0 .848.961-1.062 3.416-2.095 2.693-1.925 5.588-4.035 12.795-1.06 3.618-2.667 8.468-3.45 10.778-.725 2.14-.645 3.77-.68 5.068-.055 2.048.328 3.268 1.467 4.358.965.927 1.476 1.526 1.38 1.912-.141.569-3.703.673-6.975.673-3.771 0-5.89-.21-5.933-.907-.02-.313.72-.726 1.344-1.262 1.517-1.125 1.93-1.664 1.57-3.089-1.11-4.116-3.445-14.949-3.823-15.635-.186-.338-.785-.14-1.097 1.656-.932 4.838-2.812 10.165-3.233 14.533.119.887.552 1.442 1.483 2.151 1.04.794 1.627 1.35 1.666 1.733.068.664-3.572.82-7.241.82-3.177 0-5.439-.194-5.632-.508"/><path fill="#fff" d="M6.8 992.362c-1.55 0-2.8 1.25-2.8 2.8v1c0-1.55 1.25-2.8 2.8-2.8h50.4c1.55 0 2.8 1.25 2.8 2.8v-1c0-1.55-1.25-2.8-2.8-2.8zm45.528 8c-1.016 0-8.56 2.658-9.217 3.297-.148.144-.135.531-.011 1.017q.005-.01.011-.017c.657-.639 8.201-3.297 9.217-3.297.216 0 .362.048.475.12.36-.775.2-1.12-.475-1.12m-36.045 6.994c-2.906-.01-5.283.254-5.283.436 0 .103.223.438.53.84.846-.146 2.646-.283 4.753-.276l3.324.012c.24-.01.347.005.516.008 1.006-.834 1.17-1.076-.516-1.008zm15.837.006c-1.554 0-1.61-.281-4.914 12.03-2.073 7.72-2.508 9.081-2.834 9.003-.935-1.705-1.469-3.385-2.039-5.322-1.284-4.441-2.9-10.386-3.268-12.232-.048.187-.08.358-.08.478 0 .722 1.89 7.714 3.348 12.754.57 1.937 1.104 3.617 2.04 5.322.325.078.76-1.283 2.833-9.004 3.304-12.309 3.359-12.029 4.914-12.029h1.32l2.743 10.623c1.593 6.168 2.956 10.522 3.224 10.436.527-.17 3.875-13.388 4.649-18.094.17-1.036.206-1.76.15-2.361-.024.398-.062.823-.15 1.36-.774 4.707-4.122 17.925-4.649 18.095-.268.086-1.631-4.268-3.224-10.436l-2.744-10.623zm10.994 25.4c-.003.223-.006.451-.011.657-.056 2.048.326 3.268 1.464 4.359.473.453.834.827 1.07 1.137.168-.067.292-.14.313-.227.096-.386-.417-.984-1.383-1.91-1.068-1.024-1.453-2.187-1.453-4.016m-15.226 2.245c-.027.216-.066.44-.086.652.119.887.552 1.44 1.482 2.15.554.423.97.773 1.252 1.07.258-.095.428-.202.414-.335-.04-.385-.626-.941-1.666-1.735-.798-.609-1.214-1.115-1.396-1.802m-7.055.359c-.362.488-1.19 1.163-1.705 1.701-.674.704-1.223 1.508-1.05 1.787.032.054.145.1.292.147a7 7 0 0 1 .758-.934c.674-.704 1.887-1.645 1.887-2.092 0-.07-.075-.304-.182-.61m15.182.049c-.168.602-.685 1.077-1.631 1.779-.623.536-1.361.948-1.342 1.262.011.179.162.324.44.443.259-.208.594-.44.902-.705 1.398-1.037 1.85-1.585 1.63-2.78" opacity=".2"/></g></svg>