<svg xmlns="http://www.w3.org/2000/svg" viewBox="0 0 64 64"><path d="M32 5A28 28 0 0 0 4 33a28 28 0 0 0 28 28 28 28 0 0 0 28-28A28 28 0 0 0 32 5" opacity=".2"/><path fill="#f3b616" d="M32 4A28 28 0 0 0 4 32a28 28 0 0 0 28 28 28 28 0 0 0 28-28A28 28 0 0 0 32 4"/><path d="M53.347 5Q54.826 5 55 7.33l-1.245 7.312h.304l.653-.541h.174v.162q-1.35 1.029-2.61 5.634-.479 3.954-1.61 7.313-1 3.468-1 6.392l-1.261 3.847q0 .488 1.435.975-.261 1.137-.783 1.137v.217h.305v.162q0 .596-1.479.596l.174.217v.758h-.305q.304 1.138 1.305 1.138v.38h-1.305v.216q.653 0 .653.975l-1.827.758.174.217v.163q0 .379-.652.379v.216q.825 0 .826.38-1.174.488-3.088 4.82Q41.88 55 40.445 55h-.348q-1.087-.867-1.783-5.742-2.784-7.422-2.784-8.722c0-2.239-.594-4.223-1.783-6.75-.319-1.12-.536-3.078-.652-4.775h-.783c-1.972 3.72-3.001 6.56-3.088 8.654q-.827 1.842-1.305 4.442 1.783.597 1.783 1.138v.217q-1.392-.218-1.957-.813c-.406.975-.943 3.084-1.61 7.526C25.614 52.233 24.961 53 24.178 53c-2.204-.903-4.045-2.121-5.524-4.18q-.348 0-1.13-3.087-.48 0-.653-3.088c-1.102-2.925-1.856-5.666-2.262-9.422V27.59h-.174l-.783.217v-.217q0-.379.783-.379l-.174-3.25v-2.546L13 13.288v-3.067q.826-3.25 2.87-3.25l.523.542-.522-.163c2.116 2.89 3.363 4.927 3.74 6.913h1.48v.38h-1.132v.433q.652 2.492.957 2.492h.348l.783-.217.174.217.174-.217.174.217v.162q-.87.651-1.174 1.788h-.13v.38h.304c.405 6.03 1.16 11.4 2.261 14.505l.653.597h.348c.435 0 1.348-2.368 2.74-6.594.899-1.914 1.551-3.315 1.957-4.76l-.174-.596c.899-1.408 1.827-2.05 2.784-2.05h.304c.61 0 1.044.335 1.305 1.13.812 1.191 1.464 2.701 1.957 5.085l2.436 5.033q.48.596.479 1.354c.898 2.131 1.71 4.712 2.435 5.398h.522c.61 0 1.421-3.809 2.436-9.081q.26 0 1.435-4.226v-.216l-.827-.38-.653.217h-.826v-.433l1.653-.163H46.1q1.87-6.988 3.436-10.834.522-7.91 1.435-7.909z" opacity=".2"/><path fill="#fff" d="M53.347 4Q54.826 4 55 6.33l-1.245 7.312h.304l.653-.541h.174v.162q-1.35 1.029-2.61 5.634-.479 3.954-1.61 7.313-1 3.468-1 6.392l-1.261 3.847q0 .488 1.435.975-.261 1.137-.783 1.137v.217h.305v.162q0 .596-1.479.596l.174.217v.758h-.305q.304 1.138 1.305 1.138v.38h-1.305v.216q.653 0 .653.975l-1.827.758.174.217v.163q0 .379-.652.379v.216q.825 0 .826.38-1.174.488-3.088 4.82Q41.88 54 40.445 54h-.348q-1.087-.867-1.783-5.742-2.784-7.422-2.784-8.722c0-2.239-.594-4.223-1.783-6.75-.319-1.12-.536-3.078-.652-4.775h-.783c-1.972 3.72-3.001 6.56-3.088 8.654q-.827 1.842-1.305 4.442 1.783.597 1.783 1.138v.217q-1.392-.218-1.957-.813c-.406.975-.943 3.084-1.61 7.526C25.614 51.233 24.961 52 24.178 52c-2.204-.903-4.045-2.121-5.524-4.18q-.348 0-1.13-3.087-.48 0-.653-3.088c-1.102-2.925-1.856-5.666-2.262-9.422V26.59h-.174l-.783.217v-.217q0-.379.783-.379l-.174-3.25v-2.546L13 12.288V9.221q.826-3.25 2.87-3.25l.523.542-.522-.163c2.116 2.89 3.363 4.927 3.74 6.913h1.48v.38h-1.132v.433q.652 2.492.957 2.492h.348l.783-.217.174.217.174-.217.174.217v.162q-.87.651-1.174 1.788h-.13v.38h.304c.405 6.03 1.16 11.4 2.261 14.505l.653.597h.348c.435 0 1.348-2.368 2.74-6.594.899-1.914 1.551-3.315 1.957-4.76l-.174-.596c.899-1.408 1.827-2.05 2.784-2.05h.304c.61 0 1.044.335 1.305 1.13.812 1.191 1.464 2.701 1.957 5.085l2.436 5.033q.48.596.479 1.354c.898 2.131 1.71 4.712 2.435 5.398h.522c.61 0 1.421-3.809 2.436-9.081q.26 0 1.435-4.226v-.216l-.827-.38-.653.217h-.826v-.433l1.653-.163H46.1q1.87-6.988 3.436-10.834.522-7.91 1.435-7.909z"/><path fill="#fff" d="M32 4A28 28 0 0 0 4 32l.021.406A28 28 0 0 1 32 5a28 28 0 0 1 27.979 27.578A28 28 0 0 0 60 32 28 28 0 0 0 32 4" opacity=".2"/></svg>