<svg xmlns="http://www.w3.org/2000/svg" viewBox="0 0 64 64"><rect width="56" height="56" x="4" y="5" opacity=".2" rx="16.8" ry="16.8"/><rect width="56" height="56" x="4" y="4" fill="#2964d7" rx="16.8" ry="16.8"/><path d="M24.867 21 17.7 28.344l-4.664 4.734a3.693 3.693 0 0 0 0 5.125L17.7 42.98l7.168-7.324L32.016 43l7.156-7.316 7.129 7.304 4.668-4.777a3.685 3.685 0 0 0 0-5.117L46.3 28.355 39.17 21l-7.151 7.324Z" opacity=".2"/><path fill="#fff" fill-opacity=".9" d="m17.698 27.342-4.664 4.736a3.693 3.693 0 0 0 0 5.125l4.664 4.777 7.17-7.322 4.544-7.268L24.867 20Z"/><path fill="#8dafff" d="m24.867 34.658 8.403.627-1.246-7.956L24.867 20Z"/><path fill="#fff" d="M24.867 34.658 32.017 42l7.156-7.315 7.13 7.301 4.664-4.776a3.686 3.686 0 0 0 0-5.118l-4.664-4.736L39.173 20Z"/><path fill="#fff" d="M20.8 4C11.495 4 4 11.494 4 20.8v1C4 12.495 11.494 5 20.8 5h22.4C52.505 5 60 12.494 60 21.8v-1C60 11.495 52.506 4 43.2 4z" opacity=".2"/></svg>