<svg xmlns="http://www.w3.org/2000/svg" viewBox="0 0 64 64"><path d="M10.059 15.175c-.017.062-.059.116-.059.183 0 7.708 2.009 16.62 5.512 24.447 2.84 6.351 7.95 14.82 16.154 19.113a.725.736 0 0 0 .664 0c8.204-4.292 13.314-12.762 16.155-19.113 3.502-7.828 5.511-16.74 5.511-24.447 0-.067-.041-.12-.058-.183-.284 7.272-2.22 15.407-5.453 22.632-2.841 6.35-7.951 14.82-16.155 19.112a.725.736 0 0 1-.664 0c-8.203-4.292-13.313-12.762-16.154-19.112-3.232-7.224-5.17-15.36-5.453-22.631z" opacity=".2"/><path fill="#4f4f4f" d="M53.513 13.662 32.24 6.045a.726.737 0 0 0-.483 0l-21.272 7.617a.726.737 0 0 0-.484.695c0 7.709 2.008 16.62 5.511 24.447 2.841 6.351 7.95 14.822 16.155 19.113a.726.737 0 0 0 .665 0c8.204-4.292 13.313-12.763 16.154-19.113C51.99 30.976 54 22.064 54 14.357a.726.737 0 0 0-.485-.695z"/><path d="M43.732 23.126 32.13 19.025a.396.397 0 0 0-.264 0l-11.602 4.101a.396.397 0 0 0-.264.375c0 4.15 1.096 8.949 3.006 13.164 1.55 3.42 4.336 7.981 8.811 10.292a.396.397 0 0 0 .363 0c4.474-2.311 7.261-6.873 8.81-10.292 1.911-4.215 3.007-9.014 3.007-13.164a.396.397 0 0 0-.264-.375z" opacity=".2"/><path fill="#067bff" d="M43.732 22.126 32.13 18.025a.396.397 0 0 0-.264 0l-11.602 4.101a.396.397 0 0 0-.264.375c0 4.15 1.096 8.949 3.006 13.164 1.55 3.42 4.336 7.981 8.811 10.292a.396.397 0 0 0 .363 0c4.474-2.311 7.261-6.873 8.81-10.292 1.911-4.215 3.007-9.014 3.007-13.164a.396.397 0 0 0-.264-.375z"/><path fill="#fff" d="M32 6.004a.7.7 0 0 0-.242.04l-21.274 7.618a.74.74 0 0 0-.484.695c0 .272.017.553.027.83a.73.73 0 0 1 .457-.525l21.274-7.617a.72.72 0 0 1 .484 0l21.272 7.617a.73.73 0 0 1 .457.526c.01-.278.027-.559.027-.83a.74.74 0 0 0-.484-.696L32.242 6.045A.7.7 0 0 0 32 6.004" opacity=".1"/><path d="m21.826 18.82 4.595-2.653L47.645 52.93l1.02 7.07-5.615-4.418Z" opacity=".2"/><path fill="#fff" d="m21.826 17.82 4.595-2.653L47.645 51.93l1.02 7.07-5.615-4.418Z"/><path d="M18.495 4.01a1.3 1.3 0 0 0-.484.166L15.645 5.54a1.285 1.285 0 0 0-.471 1.76l4 6.925-3.482 2.01a1.285 1.285 0 0 0-.472 1.76l1.366 2.365a1.285 1.285 0 0 0 1.759.471L29.9 14.16a1.285 1.285 0 0 0 .472-1.76l-1.366-2.365a1.285 1.285 0 0 0-1.759-.471l-3.48 2.008-3.997-6.926a1.29 1.29 0 0 0-1.275-.635" opacity=".2"/><path fill="#3f3f3f" d="M18.495 3.01a1.3 1.3 0 0 0-.484.166l-2.366 1.363a1.285 1.285 0 0 0-.471 1.759l4 6.925-3.482 2.01a1.285 1.285 0 0 0-.472 1.76l1.366 2.365a1.285 1.285 0 0 0 1.759.472L29.9 13.158a1.285 1.285 0 0 0 .472-1.759l-1.366-2.365a1.285 1.285 0 0 0-1.759-.472l-3.48 2.008-3.997-6.925a1.29 1.29 0 0 0-1.275-.635"/><path d="m42.138 18.82-4.595-2.653L16.32 52.93 15.3 60l5.614-4.418Z" opacity=".2"/><path fill="#fff" d="m42.138 17.82-4.595-2.653L16.32 51.93 15.3 59l5.614-4.418Z"/><path d="M45.469 4.01q.25.032.485.166l2.365 1.363c.618.357.828 1.141.472 1.76l-4 6.925 3.481 2.01c.618.357.829 1.141.472 1.76l-1.366 2.365a1.285 1.285 0 0 1-1.759.471l-11.555-6.67a1.285 1.285 0 0 1-.472-1.76l1.366-2.365a1.285 1.285 0 0 1 1.759-.471l3.48 2.008 3.997-6.926a1.29 1.29 0 0 1 1.275-.635" opacity=".2"/><path fill="#3f3f3f" d="M45.469 3.01q.25.031.485.166l2.365 1.363c.618.356.828 1.14.472 1.759l-4 6.925 3.481 2.01c.618.357.829 1.142.472 1.76l-1.366 2.365a1.285 1.285 0 0 1-1.759.472l-11.555-6.672a1.285 1.285 0 0 1-.472-1.759l1.366-2.365a1.285 1.285 0 0 1 1.759-.472l3.48 2.008 3.997-6.925a1.29 1.29 0 0 1 1.275-.635"/></svg>