<svg xmlns="http://www.w3.org/2000/svg" viewBox="0 0 16 16"><path fill="currentColor" d="M8 1q-.253.001-.5.02l-.063.003a6.98 6.98 0 0 0-5.689 3.829 7 7 0 0 0-.2.42 6.4 6.4 0 0 0-.542 2.425q-.004.118-.004.237L1 8c0 .814.145 1.591.398 2.316.102.326.22.654.362.987.353.83.395 1.054.34 1.746-.04.483-.169.976-.332 1.254-.149.25-.268.512-.268.578 0 .205 1.18.133 2.225-.135 1.223-.313 1.33-.313 2.334.002.459.144.981.221 1.572.242l.074.002q.12.006.244.008H8q.292-.001.58-.025c1.73-.124 3.12-.763 4.371-2.012a6.93 6.93 0 0 0 1.98-3.996q.017-.115.03-.229a7 7 0 0 0 .031-.496q.003-.062.004-.125L15 8a6.98 6.98 0 0 0-6.807-6.994l-.09-.002zM5.5 4A1.5 1.5 0 0 1 7 5.5C7 6 7 7 6 7c0 1 2.032 2.946 3 3 0-1 1-1 1.5-1a1.5 1.5 0 0 1 0 3h-.56c-.297-.007-.643-.116-1.127-.293-1.624-.592-2.75-1.542-3.905-3.293-.672-1.02-.904-1.633-.908-2.396V5.5A1.5 1.5 0 0 1 5.5 4" color="#5294e2"/></svg>