<svg xmlns="http://www.w3.org/2000/svg" viewBox="0 0 64 64"><path d="M19 56.2v2c0 1.55 1.161 2.8 2.602 2.8h20.796C43.838 61 45 59.75 45 58.2v-2c0 1.55-1.162 2.8-2.602 2.8H21.602C20.162 59 19 57.75 19 56.2" opacity=".2"/><rect width="56" height="26" x="4" y="-45" fill="#e4e4e4" rx="2.8" ry="2.6" transform="rotate(90)"/><path fill="#4f4f4f" d="M39 15.6c0-.776-.624-1.6-1.4-1.6H35v-2.6c0-.776-.824-1.4-1.6-1.4h-2.8c-.776 0-1.6.624-1.6 1.4V14h-2.6c-.776 0-1.4.825-1.4 1.6v2.8c0 .776.624 1.6 1.4 1.6H29v2.6c0 .776.824 1.4 1.6 1.4h2.8c.776 0 1.6-.624 1.6-1.4l-.002-2.6h2.599c.776 0 1.401-.824 1.401-1.6v-2.8z"/><circle cx="51" cy="-36" r="3" fill="#4f4f4f" transform="rotate(90)"/><circle cx="43" cy="-36" r="3" fill="#4f4f4f" transform="rotate(90)"/><circle cx="51" cy="-28" r="3" fill="#4f4f4f" transform="rotate(90)"/><circle cx="43" cy="-28" r="3" fill="#4f4f4f" transform="rotate(90)"/><path fill="#fff" d="M21.602 4C20.16 4 19 5.25 19 6.8v1C19 6.25 20.16 5 21.602 5h20.796C43.838 5 45 6.25 45 7.8v-1C45 5.25 43.838 4 42.398 4z" opacity=".2"/></svg>