<svg xmlns="http://www.w3.org/2000/svg" viewBox="0 0 64 64"><circle cx="32" cy="33" r="28" opacity=".2"/><circle cx="32" cy="32" r="28" fill="#992b2b"/><path d="M33.582 13c-1.116-.003-1.974.183-2.328.58-.563.63-1.858 5.327-3.474 12.506-1.165 5.166-.355 8.179.442 9.791 1.018 2.062 1.81 3.3.201 7.414-1.165 2.98-2.354 2.979-3.46 3.12-2.661-.647-4.672-.669-4.934.06-.36.995 2.679 3.584 6.78 5.08 4.102 1.494 7.724 1.9 8.083.903.263-.73-1.303-2.01-3.774-3.231-1.084-1.13-2.058-1.918-1.2-5.419 1.68-6.849 4.243-4.496 7.264-8.753 2.562-3.61 3.242-6.382 4.725-10.614 1.572-4.484 2.262-6.56 2.058-6.97-1.37-2.76-7.037-4.46-10.383-4.467m-3.832 9.121c1.62 1.793 3.098 2.826 4.432 2.879 3.29.131 5.698-3.651 7.163-1.732-.705 2.34-4.951 16.513-10.61 13.982-4.688-2.067-1.974-12.607-.985-15.129" opacity=".2"/><path fill="#fff" d="M33.582 12c-1.116-.003-1.974.183-2.328.58-.563.63-1.858 5.327-3.474 12.506-1.165 5.166-.355 8.179.442 9.791 1.018 2.062 1.81 3.3.201 7.414-1.165 2.98-2.354 2.979-3.46 3.12-2.661-.647-4.672-.669-4.934.06-.36.995 2.679 3.584 6.78 5.08 4.102 1.494 7.724 1.9 8.083.903.263-.73-1.303-2.01-3.774-3.231-1.084-1.13-2.058-1.918-1.2-5.419 1.68-6.849 4.243-4.496 7.264-8.753 2.562-3.61 3.242-6.382 4.725-10.614 1.572-4.484 2.262-6.56 2.058-6.97-1.37-2.76-7.037-4.46-10.383-4.467m-3.832 9.121c1.62 1.793 3.098 2.826 4.432 2.879 3.29.131 5.698-3.651 7.163-1.732-.705 2.34-4.951 16.513-10.61 13.982-4.688-2.067-1.974-12.607-.985-15.129"/><path fill="#fff" d="M32 4A28 28 0 0 0 4 32a28 28 0 0 0 .006.49A28 28 0 0 1 32 5a28 28 0 0 1 27.994 27.488A28 28 0 0 0 60 32 28 28 0 0 0 32 4" opacity=".1"/><circle cx="47" cy="48" r="15" opacity=".2"/><circle cx="47" cy="47" r="15" fill="#07a6ff"/><path fill="#fff" d="M47.154 37c-1.958.02-3.459.706-5.15 1.656l1.347 2.925c1.54-.703 2.811-1.61 4.558-1.23.935.19 1.417 1.218 1.23 2.102-.154 1.383-1.5 2.108-2.44 2.945-1.165.917-1.602 2.319-1.532 3.837v1.761h3.495c.042-.873-.12-1.78.18-2.617.633-1.14 1.465-1.743 2.362-2.648 1.138-.967 1.849-2.42 1.788-3.924.067-1.722-.928-3.436-2.517-4.141-1.03-.495-2.187-.666-3.321-.666m-.132 15.996c-.868-.055-1.818.46-1.96 1.376-.215.933.063 2.148 1.076 2.479.996.367 2.388.07 2.742-1.046.333-.994.047-2.401-1.1-2.704a2.7 2.7 0 0 0-.758-.105"/></svg>