<svg xmlns="http://www.w3.org/2000/svg" viewBox="0 0 64 64"><path fill="#b7b7b7" d="M12 6h40v20H12z"/><rect width="56" height="34" x="4" y="24" fill="#4f4f4f" rx="2.8" ry="2.834"/><path d="M16 32h32v4H16zm4 8h24v4H20zm4 8h16v4H24z" opacity=".4"/><path d="M4 55.168v1C4 57.738 5.25 59 6.8 59h50.4c1.55 0 2.8-1.262 2.8-2.832v-1C60 56.738 58.75 58 57.2 58H6.8C5.25 58 4 56.738 4 55.168" opacity=".2"/><path fill="#fff" d="M12 6v1h40V6z" opacity=".2"/><path d="M16 10h10v6H16zm22 0h10v6H38z" opacity=".5"/><g transform="translate(1 -1)"><circle cx="47" cy="47" r="16" fill="#48aeff"/><path d="M31.025 47.5a16 16.002 0 0 0-.025.498A16 16.002 0 0 0 47 64a16 16.002 0 0 0 16-16.002 16 16.002 0 0 0-.018-.492A16 16.002 0 0 1 47 63a16 16.002 0 0 1-15.975-15.5" opacity=".2"/><path fill="#fff" d="M39.5 39h6a.5.5 0 0 1 .5.5v6a.5.5 0 0 1-.5.5h-6a.5.5 0 0 1-.5-.5v-6c0-.277.223-.5.5-.5m9 0h6a.5.5 0 0 1 .5.5v6a.5.5 0 0 1-.5.5h-6a.5.5 0 0 1-.5-.5v-6c0-.277.223-.5.5-.5m-9 9h6a.5.5 0 0 1 .5.5v6a.5.5 0 0 1-.5.5h-6a.5.5 0 0 1-.5-.5v-6c0-.277.223-.5.5-.5m9 0h6a.5.5 0 0 1 .5.5v6a.5.5 0 0 1-.5.5h-6a.5.5 0 0 1-.5-.5v-6c0-.277.223-.5.5-.5"/></g></svg>