<svg xmlns="http://www.w3.org/2000/svg" xmlns:xlink="http://www.w3.org/1999/xlink" viewBox="0 0 24 24"><defs><mask id="a"><circle cx="12" cy="12" r="12" fill="#fff"/><path d="M8.905 2.898c.459.435.633.875 1.142.934l.015.003c-.236.242-.436.56-.578.969-.152.438-.195.914-.245 1.464-.076.818-.16 1.745-.623 2.907-.994 2.503-.448 4.652.133 6.927.266 1.042.54 2.119.657 3.243a.34.34 0 0 0 .253.297.34.34 0 0 0 .369-.129c.09-.125.21-.319.344-.57.336 1.33.542 2.453.713 3.48a.346.346 0 0 0 .607.163c1.152-1.385 1.505-3.454.874-5.07.183-.972.56-1.78.959-2.632.214-.46.432-.928.62-1.427.091-.033.227-.125.316-.176l.683-.393-.103.421a.346.346 0 0 0 .671.163l.272-1.143.514-1.18a.345.345 0 1 0-.632-.275l-.46 1.068-.954.549a7.6 7.6 0 0 0 .203-1.193c.173-1.944-.287-3.63-1.226-4.506-.065-.063-.083-.112-.099-.104.038-.048.1-.104.143-.15.913-.677 2.419-.058 3.328.3.235.093.35-.134.126-.268-.78-.46-2.379-1.678-3.275-2.477-.125-.11-.21-.243-.356-.365-.966-1.706-3.267-.705-4.354-.9-.04-.008-.066.04-.037.07m4.392 2.36c-.024.496-.241.72-.4.882-.087.09-.17.175-.21.296-.094.285.004.604.265.857.79.736 1.17 2.21 1.015 3.944-.117 1.315-.58 2.305-1.069 3.354-.412.883-.838 1.795-1.03 2.903a.34.34 0 0 0 .022.192c.408.974.454 2.48-.269 3.784a39 39 0 0 0-.788-3.484c.786-1.795 1.681-4.7 1.168-7.067-.13-.599-.522-1.31-.955-1.683-.083-.072-.16-.095-.198-.067-.034.024-.06.095-.025.178.22.506.352 1.04.49 1.71.45 2.177-.382 4.996-1.133 6.713l-.047.104-.183.392c-.142-.805-.34-1.58-.532-2.336-.552-2.162-1.072-4.206-.16-6.501.499-1.255.593-2.277.669-3.099.046-.505.086-.942.21-1.3.362-1.042 1.225-1.272 1.898-1.141.653.126 1.296.637 1.262 1.368zm-1.147.247a.47.47 0 1 0 .294-.894.471.471 0 1 0-.294.895z"/></mask></defs><g mask="url(#a)"><circle cx="12" cy="12" r="12" fill="#4caf50" data-iconColor="Woodpecker"/><path fill="#fff" d="M8.905 2.898c.459.435.633.875 1.142.934l.015.003c-.236.242-.436.56-.578.969-.152.438-.195.914-.245 1.464-.076.818-.16 1.745-.623 2.907-.994 2.503-.448 4.652.133 6.927.266 1.042.54 2.119.657 3.243a.34.34 0 0 0 .253.297.34.34 0 0 0 .369-.129c.09-.125.21-.319.344-.57.336 1.33.542 2.453.713 3.48a.346.346 0 0 0 .607.163c1.152-1.385 1.505-3.454.874-5.07.183-.972.56-1.78.959-2.632.214-.46.432-.928.62-1.427.091-.033.227-.125.316-.176l.683-.393-.103.421a.346.346 0 0 0 .671.163l.272-1.143.514-1.18a.345.345 0 1 0-.632-.275l-.46 1.068-.954.549a7.6 7.6 0 0 0 .203-1.193c.173-1.944-.287-3.63-1.226-4.506-.065-.063-.083-.112-.099-.104.038-.048.1-.104.143-.15.913-.677 2.419-.058 3.328.3.235.093.35-.134.126-.268-.78-.46-2.379-1.678-3.275-2.477-.125-.11-.21-.243-.356-.365-.966-1.706-3.267-.705-4.354-.9-.04-.008-.066.04-.037.07m4.392 2.36c-.024.496-.241.72-.4.882-.087.09-.17.175-.21.296-.094.285.004.604.265.857.79.736 1.17 2.21 1.015 3.944-.117 1.315-.58 2.305-1.069 3.354-.412.883-.838 1.795-1.03 2.903a.34.34 0 0 0 .022.192c.408.974.454 2.48-.269 3.784a39 39 0 0 0-.788-3.484c.786-1.795 1.681-4.7 1.168-7.067-.13-.599-.522-1.31-.955-1.683-.083-.072-.16-.095-.198-.067-.034.024-.06.095-.025.178.22.506.352 1.04.49 1.71.45 2.177-.382 4.996-1.133 6.713l-.047.104-.183.392c-.142-.805-.34-1.58-.532-2.336-.552-2.162-1.072-4.206-.16-6.501.499-1.255.593-2.277.669-3.099.046-.505.086-.942.21-1.3.362-1.042 1.225-1.272 1.898-1.141.653.126 1.296.637 1.262 1.368zm-1.147.247a.47.47 0 1 0 .294-.894.471.471 0 1 0-.294.895z"/></g></svg>