<svg xmlns="http://www.w3.org/2000/svg" viewBox="0 0 64 64"><path d="M4 12.86V55.4C4 58.502 6.498 61 9.6 61h44.8c3.102 0 5.6-2.498 5.6-5.6V12.86Z" opacity=".2"/><path fill="#999" d="M4 11.86V54.4C4 57.502 6.498 60 9.6 60h44.8c3.102 0 5.6-2.498 5.6-5.6V11.86Z"/><path d="M7 16v31h50V16H32Zm0 34v3h17v-3zm20 0v3h8v-3zm11 0v3h8v-3zm11 0v3h8v-3ZM7 55v3h17v-3zm20 0v3h8v-3zm11 0v3h8v-3zm11 0v3h8v-3zM9.6 5A5.59 5.59 0 0 0 4 10.6V13h56v-2.4C60 7.498 57.502 5 54.4 5Z" opacity=".1"/><path fill="#157ae9" d="M9.6 4A5.59 5.59 0 0 0 4 9.6V12h56V9.6C60 6.498 57.502 4 54.4 4Z"/><path fill="#fff" d="M7 15h50v31H7z"/><path fill="#e6e6e6" d="M32 15h25v31H32zM7 49h17v3H7zm20 0h8v3h-8z"/><path fill="#eb3f3f" d="M38 49h8v3h-8z"/><path fill="#e6e6e6" d="M49 49h8v3h-8z"/><path fill="#bf46e4" d="M7 54h17v3H7z"/><path fill="#e6e6e6" d="M27 54h8v3h-8zm11 0h8v3h-8z"/><path fill="#157ae9" d="M49 54h8v3h-8z"/><path fill="#fff" d="M9.6 4A5.587 5.587 0 0 0 4 9.6v1C4 7.497 6.497 5 9.6 5h44.8c3.103 0 5.6 2.497 5.6 5.6v-1C60 6.497 57.503 4 54.4 4z" opacity=".2"/></svg>