<svg xmlns="http://www.w3.org/2000/svg" viewBox="0 0 32 32"><path fill="#33879e" d="M15.09 2c-4.94.013-10.912 5.74-10.845 11.788-.011 5.97 4.739 11.236 11.868 11.552 4.047.177 5.532-1.865 7.23-1.414s1.874 1.945 1.788 3.085a2.353 2.353 0 0 1-2.5 2.338c-.988-.5-.391-3.2-1.906-3.36-.946.1-1.368.93-1.159 1.946s1.516 1.988 3.383 2.065a2.89 2.89 0 0 0 2.987-3.006 3.284 3.284 0 0 0-2.809-3.516c-1.913-.178-4.337 2.139-7.957 1.473a10.506 10.506 0 0 1-8.724-10.69c.03-6.9 6.429-10.254 10.452-10.217s6.144 1.4 6.759 3.693-2.031 4.616-3.223 5.973-1.822 2.266-1.572 3.851c.251 1.663 2.162 4.1 4.166 4.087s4.919-2.255 4.716-7.7a12 12 0 0 0-4.558-9.353C21.752 3.456 20.032 1.989 15.09 2" data-iconColor="WPML"/></svg>