<svg xmlns="http://www.w3.org/2000/svg" viewBox="0 0 64 64"><rect width="58" height="58" x="3" y="4" opacity=".2" rx="2.9" ry="2.9"/><rect width="58" height="58" x="3" y="3" fill="#46b146" rx="2.9" ry="2.9"/><path fill="none" stroke="#000" stroke-linecap="round" stroke-linejoin="round" stroke-width="6" d="M18.02 49h19.8s8.2-.05 8.2-8.025-8.2-7.965-8.2-7.965h-8.41M45.98 17h-19.8s-8.2.03-8.2 8.004c0 7.975 8.2 7.985 8.2 7.985h8.12" opacity=".2"/><path fill="none" stroke="#fff" stroke-linecap="round" stroke-linejoin="round" stroke-width="6" d="M18.02 48h19.8s8.2-.05 8.2-8.025-8.2-7.965-8.2-7.965h-8.41M45.98 16h-19.8s-8.2.03-8.2 8.004c0 7.975 8.2 7.986 8.2 7.986h8.12"/><path fill="#fff" d="M5.898 3A2.89 2.89 0 0 0 3 5.898v1A2.89 2.89 0 0 1 5.898 4h52.204A2.89 2.89 0 0 1 61 6.898v-1A2.89 2.89 0 0 0 58.102 3z" opacity=".2"/></svg>