<svg xmlns="http://www.w3.org/2000/svg" xmlns:xlink="http://www.w3.org/1999/xlink" viewBox="0 0 128 128"><defs><filter id="c" width="116.7%" height="113.5%" x="-8.3%" y="-4.8%" filterUnits="objectBoundingBox"><feOffset dy="2" in="SourceAlpha" result="shadowOffsetOuter1"/><feGaussianBlur in="shadowOffsetOuter1" result="shadowBlurOuter1" stdDeviation="2"/><feColorMatrix in="shadowBlurOuter1" values="0 0 0 0 0 0 0 0 0 0 0 0 0 0 0 0 0 0 0.2 0"/></filter><path id="a" d="M1 1h84v104H1z"/></defs><g fill="none" fill-rule="evenodd"><g transform="translate(21 11)"><use xlink:href="#a" fill="#000" filter="url(#c)"/><use xlink:href="#a" fill="#f9fbfb"/><path fill="#000" fill-opacity=".2" fill-rule="nonzero" d="M86 0H0v106h86zm-1 1v104H1V1z"/></g><path fill="#d96464" stroke="#823c3c" d="M64 40.5c6.49 0 12.364 2.63 16.617 6.883A23.43 23.43 0 0 1 87.5 64c0 6.49-2.63 12.364-6.883 16.617A23.43 23.43 0 0 1 64 87.5c-6.49 0-12.364-2.63-16.617-6.883A23.43 23.43 0 0 1 40.5 64c0-6.49 2.63-12.364 6.883-16.617A23.43 23.43 0 0 1 64 40.5Zm12.5 11h-21v14.174l-.29-.062A6.5 6.5 0 0 0 54 65.5a6.48 6.48 0 0 0-4.596 1.904A6.48 6.48 0 0 0 47.5 72a6.48 6.48 0 0 0 1.904 4.596A6.48 6.48 0 0 0 54 78.5a6.38 6.38 0 0 0 4.54-1.877c1.156-1.155 1.896-2.768 1.96-4.614V58.5h11v7.174l-.29-.062A6.5 6.5 0 0 0 70 65.5a6.48 6.48 0 0 0-4.596 1.904A6.48 6.48 0 0 0 63.5 72a6.48 6.48 0 0 0 1.904 4.596A6.48 6.48 0 0 0 70 78.5a6.38 6.38 0 0 0 4.54-1.877c1.156-1.155 1.896-2.768 1.96-4.614z"/></g></svg>