<svg xmlns="http://www.w3.org/2000/svg" xmlns:xlink="http://www.w3.org/1999/xlink" viewBox="0 0 128 128"><defs><filter id="c" width="116.7%" height="113.5%" x="-8.3%" y="-4.8%" filterUnits="objectBoundingBox"><feOffset dy="2" in="SourceAlpha" result="shadowOffsetOuter1"/><feGaussianBlur in="shadowOffsetOuter1" result="shadowBlurOuter1" stdDeviation="2"/><feColorMatrix in="shadowBlurOuter1" values="0 0 0 0 0 0 0 0 0 0 0 0 0 0 0 0 0 0 0.2 0"/></filter><path id="a" d="M1 1h84v104H1z"/></defs><g fill="none" fill-rule="evenodd"><g transform="translate(21 11)"><use xlink:href="#a" fill="#000" filter="url(#c)"/><use xlink:href="#a" fill="#f9fbfb"/><path fill="#000" fill-opacity=".2" fill-rule="nonzero" d="M86 0H0v106h86zm-1 1v104H1V1z"/></g><path fill="#2a4052" fill-opacity=".4" stroke="#3e6f84" d="M80 38.5c.933 0 1.782.368 2.41.967.577.55.967 1.293 1.066 2.126l.02.23.004 40.167a3.503 3.503 0 0 1-3.084 3.486l-.23.02L48 85.5a3.48 3.48 0 0 1-2.41-.967 3.5 3.5 0 0 1-1.066-2.126l-.02-.23L44.5 42.01a3.503 3.503 0 0 1 3.084-3.486l.23-.02zm-11.5 1H53.992l-.204.008a2.503 2.503 0 0 0-2.288 2.497v39.99l.008.205c.05.61.316 1.157.72 1.565a2.48 2.48 0 0 0 1.764.735h26.016l.204-.008a2.503 2.503 0 0 0 2.288-2.497v-39.99l-.008-.205a2.5 2.5 0 0 0-.72-1.565 2.48 2.48 0 0 0-1.764-.735H75.5l-.346 23.104-.22-.162c-.892-.622-1.984-.922-3.068-.895-1.167.03-2.32.436-3.206 1.212l-.16.14z"/></g></svg>