<svg xmlns="http://www.w3.org/2000/svg" xmlns:xlink="http://www.w3.org/1999/xlink" viewBox="0 0 128 128"><defs><filter id="b" width="116.7%" height="113.5%" x="-8.3%" y="-4.8%" filterUnits="objectBoundingBox"><feOffset dy="2" in="SourceAlpha" result="shadowOffsetOuter1"/><feGaussianBlur in="shadowOffsetOuter1" result="shadowBlurOuter1" stdDeviation="2"/><feColorMatrix in="shadowBlurOuter1" values="0 0 0 0 0 0 0 0 0 0 0 0 0 0 0 0 0 0 0.2 0"/></filter><path id="a" d="M1 1h84v104H1z"/></defs><g fill="none" fill-rule="evenodd"><g transform="translate(21 11)"><use xlink:href="#a" fill="#000" filter="url(#b)"/><use xlink:href="#a" fill="#f9fbfb"/><path fill="#000" fill-opacity=".2" fill-rule="nonzero" d="M86 0H0v106h86zm-1 1v104H1V1z"/></g><path fill="#2a4052" fill-opacity=".4" stroke="#3e6f84" d="M64 40.5c6.49 0 12.364 2.63 16.617 6.883A23.43 23.43 0 0 1 87.5 64c0 6.49-2.63 12.364-6.883 16.617A23.43 23.43 0 0 1 64 87.5c-6.49 0-12.364-2.63-16.617-6.883A23.43 23.43 0 0 1 40.5 64c0-6.49 2.63-12.364 6.883-16.617A23.43 23.43 0 0 1 64 40.5Zm0 12.333a11.13 11.13 0 0 0-7.896 3.271A11.13 11.13 0 0 0 52.834 64c0 3.084 1.25 5.875 3.27 7.896A11.13 11.13 0 0 0 64 75.166c3.084 0 5.875-1.25 7.896-3.27A11.13 11.13 0 0 0 75.166 64c0-3.084-1.25-5.875-3.27-7.896A11.13 11.13 0 0 0 64 52.834Zm0 3.667c2.071 0 3.946.84 5.303 2.197A7.48 7.48 0 0 1 71.5 64c0 2.071-.84 3.946-2.197 5.303A7.48 7.48 0 0 1 64 71.5a7.48 7.48 0 0 1-5.303-2.197A7.48 7.48 0 0 1 56.5 64c0-2.071.84-3.946 2.197-5.303A7.48 7.48 0 0 1 64 56.5Zm0 1.667c-1.61 0-3.07.653-4.125 1.708A5.82 5.82 0 0 0 58.167 64c0 1.61.653 3.07 1.708 4.125A5.82 5.82 0 0 0 64 69.833c1.61 0 3.07-.653 4.125-1.708A5.82 5.82 0 0 0 69.833 64c0-1.61-.653-3.07-1.708-4.125A5.82 5.82 0 0 0 64 58.167Zm0-13.334a19.1 19.1 0 0 0-13.553 5.614A19.1 19.1 0 0 0 44.833 64a1.83 1.83 0 0 0 3.13 1.296c.332-.331.537-.79.537-1.296 0-4.28 1.735-8.155 4.54-10.96A15.45 15.45 0 0 1 64 48.5a1.83 1.83 0 0 0 1.296-3.13A1.83 1.83 0 0 0 64 44.833Z"/></g></svg>