<svg xmlns="http://www.w3.org/2000/svg" xmlns:xlink="http://www.w3.org/1999/xlink" viewBox="0 0 128 128"><defs><filter id="b" width="116.7%" height="113.5%" x="-8.3%" y="-4.8%" filterUnits="objectBoundingBox"><feOffset dy="2" in="SourceAlpha" result="shadowOffsetOuter1"/><feGaussianBlur in="shadowOffsetOuter1" result="shadowBlurOuter1" stdDeviation="2"/><feColorMatrix in="shadowBlurOuter1" values="0 0 0 0 0 0 0 0 0 0 0 0 0 0 0 0 0 0 0.2 0"/></filter><path id="a" d="M1 1h84v104H1z"/></defs><g fill="none" fill-rule="evenodd"><g transform="translate(21 11)"><use xlink:href="#a" fill="#000" filter="url(#b)"/><use xlink:href="#a" fill="#f9fbfb"/><path fill="#000" fill-opacity=".2" fill-rule="nonzero" d="M86 0H0v106h86zm-1 1v104H1V1z"/></g><path fill="#2a4052" fill-opacity=".4" stroke="#3e6f84" d="M70 42.5c2.029 0 3.87.806 5.22 2.114a7.48 7.48 0 0 1 2.26 4.828l.016.317.005 2.741H84a1.495 1.495 0 0 1 1.492 1.347L85.5 54v28a1.495 1.495 0 0 1-1.347 1.492L84 83.5H44a1.495 1.495 0 0 1-1.492-1.347L42.5 82V54a1.495 1.495 0 0 1 1.347-1.492L44 52.5h6.5V50c0-2.029.806-3.87 2.114-5.22a7.48 7.48 0 0 1 4.828-2.26l.317-.016zm-1.498 19h-9v10h-5.989L64 78.604 74.487 71.5h-5.985zM70 45.5l-12.212.005-.249.018a4.4 4.4 0 0 0-2.75 1.35c-.747.786-1.231 1.865-1.289 3.115V52.5h21.001l-.006-2.712-.017-.238a4.5 4.5 0 0 0-1.377-2.81A4.5 4.5 0 0 0 70 45.5Z"/></g></svg>