<svg xmlns="http://www.w3.org/2000/svg" xmlns:xlink="http://www.w3.org/1999/xlink" viewBox="0 0 128 128"><defs><filter id="b" width="116.7%" height="113.5%" x="-8.3%" y="-4.8%" filterUnits="objectBoundingBox"><feOffset dy="2" in="SourceAlpha" result="shadowOffsetOuter1"/><feGaussianBlur in="shadowOffsetOuter1" result="shadowBlurOuter1" stdDeviation="2"/><feColorMatrix in="shadowBlurOuter1" values="0 0 0 0 0 0 0 0 0 0 0 0 0 0 0 0 0 0 0.2 0"/></filter><path id="a" d="M1 1h84v104H1z"/></defs><g fill="none" fill-rule="evenodd"><g transform="translate(21 11)"><use xlink:href="#a" fill="#000" filter="url(#b)"/><use xlink:href="#a" fill="#f9fbfb"/><path fill="#000" fill-opacity=".2" fill-rule="nonzero" d="M86 0H0v106h86zm-1 1v104H1V1z"/></g><path fill="#2a4052" fill-opacity=".4" stroke="#3e6f84" d="M87.5 44.5v41h-47v-41zm-1 9h-45v31h45zm-25 23v5h-5v-5zm10 0v5h-5v-5zm10 0v5h-5v-5zm-30 0v5h-5v-5zm10-10v5h-5v-5zm7.5 0a2.496 2.496 0 0 1 2.5 2.5c0 .69-.28 1.315-.732 1.768A2.5 2.5 0 0 1 69 71.5c-.69 0-1.315-.28-1.768-.732A2.5 2.5 0 0 1 66.5 69c0-.69.28-1.315.732-1.768A2.5 2.5 0 0 1 69 66.5Zm12.5 0v5h-5v-5zm-30 0v5h-5v-5zm10-10v5h-5v-5zm10 0v5h-5v-5zm10 0v5h-5v-5zm-30 0v5h-5v-5zm.5-11c-.69 0-1.315.28-1.768.732A2.5 2.5 0 0 0 49.5 48c0 .69.28 1.315.732 1.768A2.5 2.5 0 0 0 52 50.5c.69 0 1.315-.28 1.768-.732A2.5 2.5 0 0 0 54.5 48c0-.69-.28-1.315-.732-1.768a2.5 2.5 0 0 0-1.563-.724Zm24 0c-.69 0-1.315.28-1.768.732A2.5 2.5 0 0 0 73.5 48c0 .69.28 1.315.732 1.768A2.5 2.5 0 0 0 76 50.5c.69 0 1.315-.28 1.768-.732A2.5 2.5 0 0 0 78.5 48c0-.69-.28-1.315-.732-1.768A2.5 2.5 0 0 0 76 45.5Z"/></g></svg>