<svg xmlns="http://www.w3.org/2000/svg" xmlns:xlink="http://www.w3.org/1999/xlink" viewBox="0 0 128 128"><defs><filter id="c" width="108.3%" height="106.7%" x="-4.2%" y="-2.4%" filterUnits="objectBoundingBox"><feOffset dy="1" in="SourceAlpha" result="shadowOffsetOuter1"/><feGaussianBlur in="shadowOffsetOuter1" result="shadowBlurOuter1" stdDeviation="1"/><feColorMatrix in="shadowBlurOuter1" values="0 0 0 0 0 0 0 0 0 0 0 0 0 0 0 0 0 0 0.2 0"/></filter><path id="a" d="M1 1h84v104H1z"/></defs><g fill="none" fill-rule="evenodd"><g transform="translate(21 11)"><use xlink:href="#a" fill="#000" filter="url(#c)"/><use xlink:href="#a" fill="#f9fbfb"/><path fill="#000" fill-opacity=".2" fill-rule="nonzero" d="M86 0H0v106h86zm-1 1v104H1V1z"/></g><path fill="#8db479" stroke="#546c48" stroke-width=".5" d="M87.75 44.25v43.5h-45.5v-43.5zm-44 1.5v40.5h18.5V69.752l-6.5-.003V85.75l-1.5.428V45.75zm20 24.002V86.25h6.5V69.754zm8 .002V86.25h6.5V69.756zm14.5-.004-6.5.006V86.25h6.5zm-.001-8-6.499.006v6.5l6.5-.005zm-14.499.004v6.5l6.5.002v-6.5zm-8-.002v6.5l6.5.002v-6.5zm-8.001-.002.001 6.5 6.5.002v-6.5zm30.5-8-6.499.006v6.5l6.499-.005zm-14.499.004v6.5l6.5.002v-6.5zm-8-.002v6.5l6.5.002v-6.5zm-8.001-.002v6.5l6.501.002v-6.5zm30.501-8h-6.501l.001 6.506 6.499-.005zm-8.001 0h-6.5l.001 6.504 6.5.002zm-8 0h-6.5l.001 6.502 6.5.002zm-8 0h-6.5v6.5l6.501.002z"/></g></svg>