<svg xmlns="http://www.w3.org/2000/svg" xmlns:xlink="http://www.w3.org/1999/xlink" viewBox="0 0 128 128"><defs><filter id="b" width="108.3%" height="106.7%" x="-4.2%" y="-2.4%" filterUnits="objectBoundingBox"><feOffset dy="1" in="SourceAlpha" result="shadowOffsetOuter1"/><feGaussianBlur in="shadowOffsetOuter1" result="shadowBlurOuter1" stdDeviation="1"/><feColorMatrix in="shadowBlurOuter1" values="0 0 0 0 0 0 0 0 0 0 0 0 0 0 0 0 0 0 0.2 0"/></filter><path id="a" d="M1 1h84v104H1z"/></defs><g fill="none" fill-rule="evenodd"><g transform="translate(21 11)"><use xlink:href="#a" fill="#000" filter="url(#b)"/><use xlink:href="#a" fill="#f9fbfb"/><path fill="#000" fill-opacity=".2" fill-rule="nonzero" d="M86 0H0v106h86zm-1 1v104H1V1z"/></g><path fill="#b36b61" stroke="#6b403a" stroke-width=".5" d="M83.003 45.25a2.74 2.74 0 0 1 2.721 2.368l.02.214.006 29.166c0 .73-.285 1.394-.749 1.887a2.74 2.74 0 0 1-1.616.839l-.214.02-18.36.006 8.72 8.72a.75.75 0 0 1 .07.979.94.94 0 0 1-.541.287.7.7 0 0 1-.416-.076l-.092-.058-7.75-7.737-.052 11.139a.75.75 0 0 1-.653.74.93.93 0 0 1-.582-.186.7.7 0 0 1-.237-.353l-.022-.108.048-11.34-7.774 7.773a.75.75 0 0 1-.979.071.94.94 0 0 1-.287-.541.7.7 0 0 1 .076-.416l.058-.092 8.789-8.802h-18.19a2.74 2.74 0 0 1-2.721-2.368l-.02-.214-.006-29.166c0-.73.285-1.394.749-1.887a2.74 2.74 0 0 1 1.616-.839l.214-.02zm0 1.5H44.997l-.138.008c-.273.03-.52.151-.714.345a1.43 1.43 0 0 0-.395.886V77l.008.14c.03.275.15.523.342.715.21.212.512.36.885.396h38.018l.138-.008c.273-.03.52-.151.714-.345.21-.212.359-.514.395-.886V48l-.008-.146a1.246 1.246 0 0 0-1.24-1.105ZM51 54.25a.75.75 0 0 1 .72.542l.023.107.007 16.351H77a.75.75 0 0 1 .75.75.75.75 0 0 1-.542.72l-.107.023L51 72.75a.75.75 0 0 1-.72-.542l-.023-.107L50.25 55a.75.75 0 0 1 .75-.75Zm8.75-3v15.5h-3.5v-15.5zm8 4v11.5h-3.5v-11.5zm8 4v7.5h-3.5v-7.5zm13.25-20a.75.75 0 0 1 .75.75.75.75 0 0 1-.649.743L39 40.75a.75.75 0 0 1-.75-.75.75.75 0 0 1 .649-.743Z"/></g></svg>