<svg xmlns="http://www.w3.org/2000/svg" viewBox="0 0 64 64"><circle cx="32" cy="33" r="29" opacity=".2"/><path fill="#765500" d="M61 32c0 16.016-12.984 29-29 29S3 48.016 3 32Z"/><path fill="#624600" d="M61 32H3C3 15.984 15.984 3 32 3s29 12.984 29 29"/><circle cx="32" cy="33" r="23" opacity=".2"/><circle cx="32" cy="32" r="23" fill="#ffbd15"/><path d="M38 42h7v6h-7zm-.222-24L19 48h7.222L45 18Z" opacity=".1"/><path fill="#5c4200" d="M37.778 17 19 47h7.222L45 17Z"/><path fill="#956b00" d="M38 41h7v6h-7z"/><path d="m26 18-5 2.935L38 48l3-6Z" opacity=".1"/><path fill="#715100" d="m26 17-5 2.935L38 47l3-6Z"/><path d="M19 18h7l-3.15 6H19Z" opacity=".1"/><path fill="#956b00" d="M19 17h7l-3.15 6H19Z"/><path fill="#fff" d="M32 3A29 29 0 0 0 3 32a29 29 0 0 0 .018.488A29 29 0 0 1 32 4a29 29 0 0 1 28.975 28.494A29 29 0 0 0 61 32 29 29 0 0 0 32 3" opacity=".1"/><path fill="#fff" d="M32 9A23 23 0 0 0 9 32a23 23 0 0 0 .018.484A23 23 0 0 1 32 10a23 23 0 0 1 22.975 22.496A23 23 0 0 0 55 32 23 23 0 0 0 32 9" opacity=".2"/></svg>