<svg xmlns="http://www.w3.org/2000/svg" viewBox="0 0 24 24"><g fill="#303030"><path d="m11.996 4.719.002.002.002-.002zm.002.002c-.767.757-1.515 1.535-2.295 2.279H7v2.703c-.745.78-1.523 1.529-2.281 2.297.758.768 1.536 1.516 2.281 2.297V17h2.703c.78.745 1.529 1.523 2.297 2.281.768-.758 1.516-1.536 2.297-2.281H17v-2.703c.745-.78 1.523-1.529 2.281-2.297-.758-.768-1.536-1.516-2.281-2.297V7h-2.703c-.784-.744-1.53-1.522-2.299-2.28M12 7.5a4.5 4.5 0 1 1 0 9 4.5 4.5 0 0 1 0-9"/><path d="M12 9v6a3 3 0 0 1 0-6m-.992 4.713v-3.457q-1.026.7-1.026 1.728t1.026 1.729"/></g></svg>