<svg xmlns="http://www.w3.org/2000/svg" viewBox="0 0 64 64"><path fill="#fecd38" d="M32 4C16.488 4 4 16.488 4 32s12.488 28 28 28 28-12.488 28-28S47.512 4 32 4"/><path fill="#fff" d="M32 4C16.488 4 4 16.488 4 32c0 .098.011.194.018.291C4.392 17.111 16.726 5 32 5s27.608 12.11 27.982 27.291c.007-.097.018-.193.018-.291C60 16.488 47.512 4 32 4" opacity=".2"/><path fill="#3f3f3f" d="M32 16v12h12L32 48V36H20z"/><path d="M59.982 32.664C59.631 47.866 47.29 60 32 60S4.371 47.868 4.018 32.668c-.007.11-.018.22-.018.332 0 15.512 12.488 28 28 28s28-12.488 28-28c0-.113-.011-.224-.018-.336" opacity=".2"/></svg>