<svg xmlns="http://www.w3.org/2000/svg" viewBox="0 0 64 64"><circle cx="32" cy="33" r="29" opacity=".2"/><circle cx="32" cy="32" r="29" fill="#ff9800"/><path d="M31.941 14c-3.922-.056-3.922 6.004 0 5.949 3.82 0 7.543 1.67 10.024 4.574A13 13 0 0 1 45.03 32H39l4.5 6 4.5 6 4.5-6 4.5-6h-6.18c-.215-4.102-1.731-8.065-4.445-11.243C42.795 16.566 37.455 14 31.941 14M16 22l-4.5 6L7 34h6.18c.215 4.102 1.731 8.064 4.445 11.242C21.205 49.434 26.545 52 32.059 52c3.922.055 3.922-6.005 0-5.95-3.82 0-7.543-1.67-10.024-4.574A13 13 0 0 1 18.97 34H25l-4.5-6z" opacity=".2"/><path fill="#fff" d="M31.941 13c-3.922-.055-3.922 6.005 0 5.95 3.82 0 7.543 1.67 10.024 4.573A13 13 0 0 1 45.03 31H39l4.5 6 4.5 6 4.5-6 4.5-6h-6.18c-.215-4.102-1.731-8.065-4.445-11.242C42.795 15.566 37.455 13 31.941 13M16 21l-4.5 6L7 33h6.18c.215 4.102 1.731 8.065 4.445 11.242C21.205 48.434 26.545 51 32.059 51c3.922.055 3.922-6.005 0-5.95-3.82 0-7.543-1.67-10.024-4.573A13 13 0 0 1 18.97 33H25l-4.5-6z"/><path fill="#fff" d="M32 3A29 29 0 0 0 3 32a29 29 0 0 0 .018.488A29 29 0 0 1 32 4a29 29 0 0 1 28.975 28.494A29 29 0 0 0 61 32 29 29 0 0 0 32 3" opacity=".2"/></svg>