<svg xmlns="http://www.w3.org/2000/svg" viewBox="0 4 24 24"><g fill="#ef8343" data-iconColor="XLIFF"><path d="M3.548 12.535c.758-.013 1.517 0 2.274-.01.285.644.693 1.23.935 1.893.588-.606 1.126-1.258 1.689-1.887.888 0 1.778-.011 2.666.007-1.167 1.141-2.223 2.393-3.353 3.572.619 1.077 1.171 2.189 1.807 3.255l19.262-.013v.118H7.351c-.326-.655-.637-1.318-.969-1.971-.593.637-1.141 1.314-1.725 1.96H2c1.139-1.226 2.286-2.445 3.411-3.685-.655-1.059-1.219-2.174-1.863-3.239"/><path d="M11.47 12.538c.665.007 1.33 0 2 0-.338 1.6-.657 3.213-1.044 4.806 1.071.01 2.14 0 3.211 0-.157.507-.211 1.039-.363 1.548-1.719-.017-3.439 0-5.158-.007q.684-3.17 1.354-6.347m6.251.005c1.675 0 3.247-.007 4.921 0l-.242 1.363h-2.982a6.3 6.3 0 0 0-.2 1.143c.932 0 1.866-.006 2.8 0a11 11 0 0 1-.265 1.27c-.949-.017-1.9.009-2.849-.012a25 25 0 0 0-.521 2.574c-.671.025-1.344 0-2.016.017.433-2.123.924-4.233 1.354-6.355"/></g></svg>