<svg xmlns="http://www.w3.org/2000/svg" viewBox="0 0 16 16"><path fill="none" stroke="#000" stroke-width="1.05" d="M8 1.525c1.617 0 3.08.225 4.122.63.456.178.828.386 1.077.633.166.163.276.341.276.545 0 .11-.744 3.31-2.204 9.598-.097.415-.154.603-.303.696A5.46 5.46 0 0 1 8 14.475q-1.482 0-2.735-.708c-.27-.166-.406-.276-.442-.434-1.523-6.553-2.298-9.886-2.298-10 0-.204.11-.382.276-.545.25-.247.62-.455 1.077-.632C4.92 1.75 6.383 1.525 8 1.525Zm0 .117c-1.374 0-2.618.137-3.518.356-.504.123-.908.274-1.184.436-.472.277-.623.609-.623.9 0 .29.15.621.623.898.276.163.68.314 1.184.436.9.22 2.144.357 3.518.357s2.618-.138 3.518-.357c.504-.122.908-.273 1.184-.436.472-.277.623-.608.623-.899 0-.29-.15-.622-.623-.899-.276-.162-.68-.313-1.184-.436-.9-.219-2.144-.356-3.518-.356Z"/></svg>