<svg xmlns="http://www.w3.org/2000/svg" xmlns:xlink="http://www.w3.org/1999/xlink" viewBox="0 0 96 96"><defs><filter id="a" width="131.7%" height="132%" x="-15.9%" y="-16.2%" filterUnits="objectBoundingBox"><feOffset dy="2" in="SourceAlpha" result="shadowOffsetOuter1"/><feGaussianBlur in="shadowOffsetOuter1" result="shadowBlurOuter1" stdDeviation="2"/><feColorMatrix in="shadowBlurOuter1" result="shadowMatrixOuter1" values="0 0 0 0 0 0 0 0 0 0 0 0 0 0 0 0 0 0 0.2 0"/><feMerge><feMergeNode in="shadowMatrixOuter1"/><feMergeNode in="SourceGraphic"/></feMerge></filter></defs><g fill="none" fill-rule="evenodd" filter="url(#a)" transform="translate(7 9)"><path fill="#eee" fill-rule="nonzero" stroke="#979797" stroke-width="2" d="M36.46 6.81S21.702-2.27 11.485 1.136c-10.216 3.406 5.676 37.46 5.676 37.46z"/><path fill="#fff" fill-rule="nonzero" stroke="#979797" stroke-width="2" d="M32.42 64.703c-3.041 0-1.014 4.54-11.15 1.135-4.053-1.135-8.107-4.54-10.134-1.135s4.054 11.351 22.297 11.351c6.08-2.27 2.027-11.351-1.014-11.351Zm15.548 0c3.126 0 1.042 4.54 11.459 1.135 4.167-1.135 8.333-4.54 10.417-1.135s-4.167 11.351-22.917 11.351c-4.605-2.27-2.084-11.351 1.041-11.351Z"/><path stroke="#979797" stroke-linecap="round" stroke-width="2" d="M18.297 6.81s9.081 1.136 12.487 9.082"/><path fill="#eee" fill-rule="nonzero" stroke="#979797" stroke-width="2" d="M44.386 6.81S59.143-2.27 69.36 1.136s-5.675 37.46-5.675 37.46z"/><path stroke="#979797" stroke-linecap="round" stroke-width="2" d="M63.703 6.81s-9.081 1.136-12.487 9.082"/><ellipse cx="39.865" cy="62.432" fill="#fff" fill-rule="nonzero" stroke="#979797" stroke-width="2" rx="15.892" ry="12.486"/><path fill="#fff" fill-rule="nonzero" stroke="#979797" stroke-linecap="round" stroke-width="2" d="M46.205 53.99C58.13 51.682 67.108 41.6 67.108 29.514 67.108 15.72 55.42 4.54 41 4.54S14.892 15.72 14.892 29.514c0 11.794 8.548 21.679 20.041 24.295h0m-10.96 7.488s-1.135 12.487 7.946 15.892c6.81 1.135 4.54-5.675 4.54-5.675l-1.135-4.541m20.342-5.676s1.136 12.487-7.946 15.892c-6.81 1.135-4.54-5.675-4.54-5.675l1.135-4.541"/><circle cx="64.838" cy="54.486" r="4.541" fill="#eee" fill-rule="nonzero" stroke="#979797" stroke-width="2"/><path stroke="#979797" stroke-width="2" d="M62.568 57.892s-2.27 4.54-6.811 6.81"/><path fill="#9b9b9b" fill-rule="nonzero" stroke="#979797" stroke-width="2" d="M41 38.595c1.88 0 3.405-1.017 3.405-2.27 0-1.255-1.524-2.27-3.405-2.27s-3.405 1.015-3.405 2.27c0 1.253 1.524 2.27 3.405 2.27Z"/><ellipse cx="34.189" cy="24.973" fill="#9b9b9b" fill-rule="nonzero" rx="1.135" ry="4.541"/><path stroke="#979797" stroke-linecap="round" stroke-width="2" d="m28.514 45.406-21.568 2.27m22.703-7.946L.135 38.595m27.243-4.54L4.676 30.649m48.81 14.757 21.568 2.27M52.351 39.73l29.514-1.135m-27.243-4.54 22.702-3.406"/><ellipse cx="47.811" cy="24.973" fill="#9b9b9b" fill-rule="nonzero" rx="1.135" ry="4.541"/></g></svg>