<svg xmlns="http://www.w3.org/2000/svg" xmlns:xlink="http://www.w3.org/1999/xlink" viewBox="0 0 128 128"><defs><filter id="b" width="116.7%" height="113.5%" x="-8.3%" y="-4.8%" filterUnits="objectBoundingBox"><feOffset dy="2" in="SourceAlpha" result="shadowOffsetOuter1"/><feGaussianBlur in="shadowOffsetOuter1" result="shadowBlurOuter1" stdDeviation="2"/><feColorMatrix in="shadowBlurOuter1" values="0 0 0 0 0 0 0 0 0 0 0 0 0 0 0 0 0 0 0.2 0"/></filter><path id="a" d="M1 1h84v104H1z"/></defs><g fill="none" fill-rule="evenodd"><g transform="translate(21 11)"><use xlink:href="#a" fill="#000" filter="url(#b)"/><use xlink:href="#a" fill="#f9fbfb"/><path fill="#000" fill-opacity=".2" fill-rule="nonzero" d="M86 0H0v106h86zm-1 1v104H1V1z"/></g><path fill="#2a4052" fill-opacity=".4" stroke="#3e6f84" d="M80.617 80.617c-.279.279-.64.425-1.004.438a1.5 1.5 0 0 1-1.022-.35l-14.59-14.583-14.497 14.495a1.495 1.495 0 0 1-2.121 0 1.496 1.496 0 0 1-.088-2.026l14.584-14.59-14.496-14.497a1.5 1.5 0 0 1-.44-1.06 1.496 1.496 0 0 1 1.444-1.499c.362-.014.728.103 1.022.35L64 61.88l14.495-14.496a1.495 1.495 0 0 1 2.121 0c.279.279.425.64.438 1.004.014.362-.103.728-.35 1.022L66.122 64l14.495 14.495a1.495 1.495 0 0 1 0 2.121Z"/></g></svg>