<svg xmlns="http://www.w3.org/2000/svg" xmlns:xlink="http://www.w3.org/1999/xlink" viewBox="0 0 96 96"><defs><filter id="a" width="129.5%" height="130.8%" x="-14.7%" y="-15.4%" filterUnits="objectBoundingBox"><feOffset dy="2" in="SourceAlpha" result="shadowOffsetOuter1"/><feGaussianBlur in="shadowOffsetOuter1" result="shadowBlurOuter1" stdDeviation="2"/><feColorMatrix in="shadowBlurOuter1" result="shadowMatrixOuter1" values="0 0 0 0 0 0 0 0 0 0 0 0 0 0 0 0 0 0 0.2 0"/><feMerge><feMergeNode in="shadowMatrixOuter1"/><feMergeNode in="SourceGraphic"/></feMerge></filter></defs><g fill="none" filter="url(#a)" transform="translate(7 9)"><path fill="#f0f7ff" d="M3 0h64v66H3z"/><path fill="#d4dde7" d="M3 0h64v2H3z"/><path fill="#b0b8c2" d="M3 68h64v8c0 1.105-.905 2-1.986 2H4.986A1.99 1.99 0 0 1 3 76z"/><path fill="#e9f2fe" d="M3 58h64l3 10H0z"/><path fill="#cdd5df" d="M3 74h64v2H3zm0-4h64v2H3z"/><path fill="#fff" stroke="#616161" stroke-width="2" d="M12 17.014c0-1.112.878-2.014 2.006-2.014h41.988c1.108 0 2.006.9 2.006 2.014v23.972A1.997 1.997 0 0 1 55.994 43H14.006C12.898 43 12 42.1 12 40.986z"/><path fill="#616161" d="M19 22v16h4v-9l4 5 4-5v9h4V22h-4l-4 5-4-5zm28 0h-6v8h-4l7 8 7-8h-4z"/><path fill="#d71f1e" d="m76.156 1.855 3.933 1.356a1.865 1.865 0 0 1 1.163 2.384l-20.51 59.65L55 68l-1.734-5.333 20.51-59.65a1.877 1.877 0 0 1 2.38-1.162"/><path fill="#eb2c2b" d="m79.662 3.064-21.78 61.195L56 65l-.89-1.696L77.046 2.162z"/><path fill="#d8d8d8" d="m72.839 5.739 7.477 2.578-.515 1.498-7.477-2.578z"/><path fill="#fff" d="m78.076 7.627-.533 1.409-2.608-.899.541-1.44z"/><path fill="#4a4a4a" d="m52.642 72.928-.274 4.512 2.451-3.569z"/><path fill="#c4ab5b" d="m52.593 73.73 1.866.665 6.283-9.149-1.942.554-.907-1.537-1.693.651-1.044-1.595-1.155.672-.735-1.324z"/><path fill="#e6ca6f" d="m57.884 64.259-1.688.541-1.083-1.496-1.967 10.624.531.189z"/></g></svg>