<svg xmlns="http://www.w3.org/2000/svg" viewBox="0 0 64 64"><path d="M7.308 5h47.384A4.308 4.48 0 0 1 59 9.48v47.04A4.308 4.48 0 0 1 54.692 61H7.308A4.308 4.48 0 0 1 3 56.52V9.48A4.308 4.48 0 0 1 7.308 5m0 0" opacity=".2"/><path fill="#e4e4e4" d="M7.308 4h47.384A4.308 4.48 0 0 1 59 8.48v47.04A4.308 4.48 0 0 1 54.692 60H7.308A4.308 4.48 0 0 1 3 55.52V8.48A4.308 4.48 0 0 1 7.308 4m0 0"/><path d="M54.715 7c-.59-.021-1.083.196-1.29.625l-9.706 20.29L37.937 40l-.59 1.234-.019-.007c.007.103.008.213.012.32l-.012 1.398c-.12 2.64-.65 5.648-.043 6.211l-.016.032c-.203.429-.252.878-.16 1.222v.004c-1.136.894-2.12 1.328-2.937 1.328-1.085 0-2.386-.297-3.399-3.777L27.88 37.961l4.558-6.812c1.158-1.63 2.24-2.223 3.18-2.223 1.446 0 1.593 1.48 3.258 1.48 1.156 0 1.952-.74 2.098-1.777C41.26 26.702 39.236 25 37.355 25c-2.097 0-3.039.816-5.859 5.336l-3.976 6.441-1.88-6.593C24.483 26.036 22.89 25 21.013 25c-2.098 0-4.631 1.851-7.887 5.629-.362.297.292.964.582.594 1.953-2.075 3.614-3.035 4.844-3.035 1.013 0 2.461.515 3.617 4.44l2.457 8.446-5.062 7.703C18.407 50.48 17.322 51 16.383 51c-1.446 0-1.594-1.48-3.258-1.48-1.156 0-1.953.74-2.098 1.777-.288 2 1.737 3.703 3.618 3.703 2.17 0 3.11-.888 5.859-5.406l4.484-7.258 2.317 7.996C28.389 54.185 29.76 55 31.64 55c1.77 0 3.857-1.389 6.422-4.047.344-.117.69-.443.91-.902.816.43 3.316-3.394 5.742-5.074l-.008-.004.016-.004.59-1.239 5.785-12.09L60.8 11.355c.586-1.078-.214-1.653-1.219-2.16l-3.75-1.89A2.7 2.7 0 0 0 54.715 7" opacity=".1"/><path fill="#c5c5c5" d="M9 10v2h44v-2zm0 8v2h44v-2zm0 8v2h44v-2zm0 8v2h44v-2zm0 8v2h44v-2zm0 8v2h40v-2z"/><path fill="#fff" d="M7.309 4A4.308 4.48 0 0 0 3 8.48v1A4.308 4.48 0 0 1 7.309 5H54.69A4.308 4.48 0 0 1 59 9.48v-1A4.308 4.48 0 0 0 54.691 4z" opacity=".2"/><path fill="#3d3846" d="M37.355 24c-2.097 0-3.037.814-5.857 5.334L27.52 35.78l-1.881-6.594C24.48 25.038 22.889 24 21.01 24c-2.098 0-4.63 1.852-7.886 5.629-.361.297.29.964.58.594 1.953-2.075 3.615-3.037 4.845-3.037 1.013 0 2.46.516 3.616 4.443l2.46 8.446-5.064 7.704C18.407 49.48 17.32 50 16.381 50c-1.446 0-1.592-1.482-3.256-1.482-1.156 0-1.953.74-2.097 1.779-.288 2 1.736 3.702 3.617 3.702 2.17 0 3.11-.89 5.859-5.407l4.483-7.259 2.316 8C28.387 53.185 29.762 54 31.64 54c2.097 0 4.63-1.925 7.883-5.629.364-.37-.216-.962-.578-.667-1.952 2.075-3.543 3.037-4.773 3.037-1.084 0-2.387-.297-3.4-3.778l-2.892-10 4.557-6.815c1.158-1.63 2.242-2.222 3.181-2.222 1.446 0 1.591 1.481 3.256 1.481 1.156 0 1.952-.74 2.097-1.778C41.26 25.703 39.236 24 37.355 24m0 0"/><path fill="#77767b" d="M38.972 49.05c-.346.724-1.009 1.118-1.478.881-.472-.238-.57-1.017-.226-1.743.346-.723 1.009-1.118 1.479-.88.471.237.572 1.017.225 1.742m0 0"/><path fill="#ff7800" d="M55.833 6.303c-1.005-.508-2.08-.363-2.409.324L43.72 26.913l-5.783 12.089-.592 1.241-.023 2.024 4.799 2.425 2.6-.722.593-1.241 5.783-12.089 9.705-20.286c.329-.687-.217-1.65-1.222-2.157Zm0 0"/><path fill="#3d3846" d="M55.833 6.303c-1.005-.508-2.08-.363-2.409.324l7.378 3.727c.585-1.078-.217-1.65-1.222-2.157Zm0 0"/><path fill="#f6d22c" d="M37.373 48.218c-.904-.434.143-5.036-.046-7.99l7.389 3.747c-2.426 1.68-4.928 5.504-5.744 5.075"/></svg>