<svg xmlns="http://www.w3.org/2000/svg" xml:space="preserve" viewBox="0 0 64 64"><path d="M32 5C18.193 5 7 15.655 7 28.8c.008 13.018 10 24.013 23.674 24.183.249.012.333.081.331.35-.013 2.446-.006 4.914-.005 7.36 0 .096.008.189.013.307.083-.032.135-.051.185-.074 4.782-2.158 10.171-4.886 14.086-8.304a36 36 0 0 0 2.24-2.136c.308-.317.613-.64.92-.957.475-.488.887-1.034 1.335-1.548.517-.592.982-1.222 1.44-1.856a30.6 30.6 0 0 0 2.678-4.408c.384-.78.75-1.568 1.074-2.373.01-.016.025-.028.032-.044.884-2.206 1.449-4.49 1.75-6.83.05-.394.071-.79.106-1.185q.015-.163.027-.325c.025-.316.067-.63.084-.946.02-.378.024-.756.025-1.132L57 28.8l-.003-.041a22 22 0 0 0-.049-1.387l-.003-.021a23 23 0 0 0-.068-.698q-.057-.578-.146-1.154C55.004 13.755 44.457 5.013 32 5" opacity=".2"/><path fill="#16a05d" d="M32 4C18.193 4 7 14.656 7 27.8c.008 13.018 10 24.014 23.674 24.183.249.012.333.082.331.35-.013 2.446-.006 4.915-.005 7.361 0 .095.008.188.013.306.083-.032.135-.051.185-.074 4.782-2.158 10.171-4.885 14.086-8.304a36 36 0 0 0 2.24-2.136c.308-.317.613-.64.92-.957.475-.488.887-1.033 1.335-1.547.517-.593.982-1.223 1.44-1.857a30.6 30.6 0 0 0 2.678-4.408c.384-.78.75-1.568 1.074-2.373.01-.015.025-.028.032-.044.884-2.206 1.449-4.489 1.75-6.83.05-.394.071-.79.106-1.184q.015-.163.027-.326c.025-.316.067-.63.084-.946.02-.378.024-.755.025-1.132L57 27.8l-.003-.041a22 22 0 0 0-.049-1.386q0-.012-.003-.022a23 23 0 0 0-.068-.697q-.057-.578-.146-1.154C55.004 12.755 44.457 4.013 32 4"/><path fill="#fff" d="M32 4C18.193 4 7 14.656 7 27.8c0 .121.011.24.018.358C7.376 15.312 18.419 5 32 5c12.457.013 23.003 8.755 24.73 20.5q.09.575.149 1.152.038.35.066.7l.004.02c.023.337.03.676.035 1.015.004-.168.012-.337.012-.504L57 27.8l-.004-.043a22 22 0 0 0-.047-1.387l-.004-.02a23 23 0 0 0-.066-.699q-.06-.577-.149-1.152C55.003 12.755 44.457 4.013 32 4" opacity=".2"/><path d="m20 15 8.979 16v14h5.986V31L44 15h-7.071L32 24l-4.929-9Z" opacity=".2"/><path fill="#fff" d="m20 14 8.979 16v14h5.986V30L44 14h-7.071L32 23l-4.929-9Z"/></svg>