<svg xmlns="http://www.w3.org/2000/svg" xmlns:xlink="http://www.w3.org/1999/xlink" viewBox="0 0 96 96"><defs><linearGradient id="b" x1="93.419%" x2="26.395%" y1="64.652%" y2="100%"><stop offset="0%" stop-color="#3896f4"/><stop offset="100%" stop-color="#1be4c6"/></linearGradient><linearGradient id="c" x1="93.419%" x2="26.395%" y1="54.66%" y2="65.904%"><stop offset="0%" stop-color="#3896f4"/><stop offset="100%" stop-color="#1be4c6"/></linearGradient><linearGradient id="d" x1="50%" x2="51.399%" y1="0%" y2="104.001%"><stop offset="0%" stop-color="#56ffe1"/><stop offset="100%" stop-color="#2bb8ee"/></linearGradient><linearGradient id="e" x1="50%" x2="52.1%" y1="0%" y2="103.523%"><stop offset="0%" stop-color="#fdab02"/><stop offset="100%" stop-color="#fdcc02"/></linearGradient><linearGradient id="f" x1="0%" x2="72.459%" y1="44.903%" y2="59.961%"><stop offset="0%" stop-color="#fe7249"/><stop offset="100%" stop-color="#ff503b"/></linearGradient><filter id="a" width="131.7%" height="131.7%" x="-16.1%" y="-16.2%" filterUnits="objectBoundingBox"><feOffset dy="2" in="SourceAlpha" result="shadowOffsetOuter1"/><feGaussianBlur in="shadowOffsetOuter1" result="shadowBlurOuter1" stdDeviation="2"/><feColorMatrix in="shadowBlurOuter1" result="shadowMatrixOuter1" values="0 0 0 0 0 0 0 0 0 0 0 0 0 0 0 0 0 0 0.2 0"/><feMerge><feMergeNode in="shadowMatrixOuter1"/><feMergeNode in="SourceGraphic"/></feMerge></filter></defs><g fill="none" fill-rule="evenodd" filter="url(#a)" transform="translate(7 7)"><path fill="url(#b)" stroke="#fff" stroke-width="2" d="M40.82-.3c11.322 0 21.572 4.59 28.992 12.01 7.42 7.419 12.009 17.669 12.009 28.99a40.8 40.8 0 0 1-7.055 23c1.988 0 3.738.784 5.004 2.05a6.98 6.98 0 0 1 2.044 4.647l.007.303v4a6.98 6.98 0 0 1-2.05 4.95 6.98 6.98 0 0 1-4.647 2.044l-.303.006h-34c-11.322 0-21.572-4.589-28.992-12.008C4.41 62.272-.179 52.022-.179 40.7S4.41 19.13 11.829 11.71C19.25 4.29 29.5-.3 40.821-.3Zm-12 22a6.98 6.98 0 0 0-4.95 2.05 6.9 6.9 0 0 0-1.986 4.106c-.18 1.532.138 3.136.95 4.588 3.042 3.977 4.463 7.008 4.463 9.056 0 1.44-.4 2.778-1.453 4.321l-1.973 1.972-.222.231a6.98 6.98 0 0 0-1.828 4.718c0 1.792.683 3.583 2.05 4.95a6.7 6.7 0 0 0 4.772 1.987c1.752 0 3.566-.664 5.155-2.015l1.178-1.18.279-.218q2.245-1.687 5.033-1.686c2.431 0 5.057 1.077 7.891 3.365a6.98 6.98 0 0 0 4.868 1.795 6.98 6.98 0 0 0 4.765-2.048 6.86 6.86 0 0 0 2.025-4.877c0-1.774-.677-3.574-2.037-5.035l-2.133-2.132-.157-.258c-.66-1.13-.996-2.425-.996-3.89 0-2.307.91-4.747 3.298-7.85a6.98 6.98 0 0 0 2.05-4.95 6.98 6.98 0 0 0-2.05-4.95 6.86 6.86 0 0 0-4.876-2.024c-1.775 0-3.575.676-5.035 2.037l-.759.76-.345.241c-2.293 1.572-4.468 2.328-6.51 2.328-1.53 0-2.941-.384-4.561-1.384L33.77 23.75l-.232-.221a6.98 6.98 0 0 0-4.717-1.829Z"/><path fill="url(#c)" d="m42.482 1.248 11.922 1.716 5.554 16.523 1.971.706a40 40 0 0 1-2.202 3.252l1.998-.001a6 6 0 0 1 6 6v4a6 6 0 0 1-6 6h-34c-10.763 0-20.534-4.251-27.724-11.166l13.88-4.501 3.64-4.495a7.95 7.95 0 0 0 3.368-1.686l.207-.182v.01l.04-.046.124-.116.122-.12 1.168-1.17q2.056-1.65 4.642-1.649 3.368 0 7.222 3.109A8 8 0 0 0 45.62 6.03l-.196-.202-2.065-2.065a6.3 6.3 0 0 1-.876-2.516" transform="translate(13.096 41.257)"/><path fill="#000" fill-opacity=".15" d="M70.997 64.702c1.26-10.748-7.08-17.381-15.098-20.825 1.338 3.423 9.695 5.031 15.098 20.825"/><path fill="url(#d)" d="M32.69 29.667a39.82 39.82 0 0 1-7.997 24.001h-1.826c-.28-6.143-6.927-17.749-15.088-20.816a7 7 0 0 1-.395-2.385q0-3.201 2.655-6.72l.247-.32.103-.103a8 8 0 0 0-9.085-12.888A418 418 0 0 0 0 6.354L19.52 0c8.089 7.32 13.17 17.9 13.17 29.667" transform="translate(48.13 11.033)"/><path fill="#000" fill-opacity=".15" d="M51.194 20.876q10.862-9.405 18.293-8.072.326.334.643.676-11.465 2.088-15.423 7.436a8 8 0 0 0-3.367-.07Z"/><path fill="url(#e)" d="m12.662 0 7.726 14.734a8 8 0 0 0 1.424 7.537l.18.212h-.025q3.51 4.62 3.51 7.517 0 1.845-1.047 3.42l-.181.261-1.906 1.904a8 8 0 0 0 10.145 12.281c-2.36 4.362-11.074 10.428-19.056 11.236C5.192 51.776 0 41.094 0 29.2 0 17.68 4.87 7.3 12.662 0" transform="translate(.82 11.5)"/><path fill="#000" fill-opacity=".15" d="M33.308 59.366c-2.36 4.362-11.074 10.428-19.056 11.236l-.16-.143c7.183-1.835 12.814-6.217 15.604-9.766a7.96 7.96 0 0 0 3.612-1.327"/><path fill="url(#f)" d="M29 0c11.674 0 22.18 5.001 29.493 12.978-6.5-.07-13.76 2.492-18.04 7.044a7.97 7.97 0 0 0-4.866 2.126l-.202.195-.712.714q-3.286 2.334-6.206 2.335a7 7 0 0 1-3.662-1.001l-.277-.174-1.871-1.874a8 8 0 0 0-12.408 9.952C6.197 30.365 0 20.209 0 12.442 7.287 4.782 17.585 0 29 0" transform="translate(11.82 .7)"/><path fill="#000" fill-opacity=".15" d="m11.899 13.06-.079-.422c1.658 9.124 6.38 14.119 9.082 17.203a7.95 7.95 0 0 0 1.137 3.107 15 15 0 0 1-2.38-1.796c-3.718-3.754-7.839-11.676-7.839-18.01z"/></g></svg>