<svg xmlns="http://www.w3.org/2000/svg" viewBox="0 0 64 64"><path d="M46.835 5a11 11 0 0 0-1.092.035c-3.92.402-7.407 2.5-9.618 5.8-.814 1.218-1.576 3.032-1.865 4.46-.22 1.078-.26 1.5-.26 2.694 0 1.195.04 1.607.26 2.694.284 1.408 1.046 3.228 1.865 4.462C38.57 28.8 42.648 31 46.988 31c4.91 0 9.436-2.81 11.637-7.222a12.91 12.91 0 0 0-1.24-13.59c-2.06-2.745-5.1-4.549-8.567-5.082-.397-.06-1.244-.1-1.983-.105" opacity=".2"/><path d="M27.966 52.357C33.422 52.65 38 54.464 38 56.66 38 59.056 32.005 61 25.815 61S14 59.056 14 56.659c0-2.143 5.21-3.922 10.477-4.278l.054-.486c.322-2.461.306-11.08.306-11.08L4.835 18.82 4 17.567C4 15.045 13.676 13 25.612 13s21.612 2.045 21.612 4.567l-.836 1.254-18.801 21.994s-.017 8.62.305 11.08z" opacity=".2"/><path fill="#83e4ff" d="M27.966 51.357C33.422 51.65 38 53.465 38 55.66 38 58.056 32.005 60 25.815 60S14 58.056 14 55.66c0-2.143 5.21-3.922 10.477-4.278l.054-.486c.322-2.461.306-11.08.306-11.08L4.835 17.822 4 16.567C4 14.045 13.676 12 25.612 12s21.612 2.045 21.612 4.567l-.836 1.255-18.801 21.993s-.017 8.62.305 11.08z"/><path fill="#fff" d="M25.613 12C13.677 12 4 14.045 4 16.566l.229.342C5.74 14.698 14.737 13 25.613 13c10.875 0 19.87 1.697 21.383 3.906l.227-.34c0-2.521-9.673-4.566-21.61-4.566m-.789 29.797c-.007 2.37-.04 7.164-.293 9.098l-.054.488C19.21 51.738 14 53.518 14 55.66q0 .266.096.522c.699-1.925 5.511-3.47 10.38-3.8l.055-.487c.254-1.934.286-6.728.293-9.098l.006.006c0-.18.006-.99.006-.99zm2.774.004-.012.015s.006.81.006.99l.006-.005c.007 2.373.04 7.162.293 9.094l.074.464c5.03.27 9.304 1.834 9.943 3.795q.091-.242.092-.494c0-2.194-4.579-4.008-10.035-4.3l-.074-.465c-.254-1.932-.286-6.721-.293-9.094" opacity=".2"/><path fill="#00d4fa" d="M12.294 25.863c-9.738 25.857-4.869 12.929 0 0m27.484-.18c-26.52 25.976-13.26 12.988 0 0m.032.181a.68.68 0 0 1-.18.411l.126-.142c.004-.023.05-.158.054-.27m-27.484.181c0 .06.04.107.058.14l.082.093a.8.8 0 0 1-.14-.233m.18.278c.235.269 12.33 13.491 12.33 13.491s.017 8.62-.305 11.08-.879 3.703-.879 3.703 1.707.687 2.56.687c.852 0 2.56-.687 2.56-.687s-.558-1.241-.88-3.703c-.322-2.46-.306-11.08-.306-11.08s11.216-12.583 11.931-13.41c-1.254 1.175-7.379 1.537-13.308 1.538-6.083 0-12.609-.405-13.703-1.619"/><path fill="#98f0ff" d="M39.212 26.037C39.212 27.37 33.256 28 25.91 28s-13.302-.63-13.302-1.963S18.564 24 25.91 24s13.302.704 13.302 2.037"/><path fill="#def800" d="M46.835 4a11 11 0 0 0-1.092.035c-3.92.402-7.407 2.5-9.618 5.8-.814 1.218-1.576 3.032-1.865 4.46-.22 1.078-.26 1.5-.26 2.694 0 1.195.04 1.607.26 2.694.284 1.408 1.046 3.228 1.865 4.462C38.57 27.8 42.648 30 46.988 30c4.91 0 9.436-2.81 11.637-7.222a12.91 12.91 0 0 0-1.24-13.59c-2.06-2.745-5.1-4.549-8.567-5.082-.397-.06-1.244-.1-1.983-.105"/><path fill="#fff" d="M47 5.445A11.555 11.555 0 0 0 35.445 17 11.555 11.555 0 0 0 47 28.556 11.555 11.555 0 0 0 58.556 17 11.555 11.555 0 0 0 47 5.445m-1.433 1.192c.324-.006.623.027.753.097.198.104.236.21.293.845.09.99.029 8.313-.065 8.411-.029.024-.388-.263-1.774-1.423-2.577-2.16-4.405-3.915-4.744-4.565-.104-.207-.091-.505.036-.764.457-.915 2.87-2.164 4.92-2.546.182-.033.386-.05.58-.055m2.934.087c.553-.01 1.493.178 2.339.492 1.06.386 2.388 1.132 2.921 1.635.448.42.599.915.382 1.227-.462.67-2.228 2.307-5.291 4.9l-1.227 1.041-.034-.259c-.08-.692-.008-5.579.105-7.064.061-.79.165-1.448.264-1.697.057-.142.115-.198.227-.236q.123-.037.314-.04m6.547 4.233c.18 0 .574.25.8.505.43.48.985 1.456 1.235 2.158.193.537.251.935.251 1.721 0 .801-.048 1.022-.246 1.178-.118.094-.178.094-4.438.094l-4.319-.005.38-.356c2.36-2.253 5.108-4.626 5.942-5.125.151-.094.33-.17.395-.17m-16.143.002c.448 0 2.076 1.291 5.28 4.2.651.588 1.24 1.128 1.311 1.208l.136.144-.892.036c-1.465.067-6.225.054-6.824-.018-.684-.08-.98-.219-1.145-.539-.236-.462-.178-1.187.19-2.276.453-1.361 1.11-2.416 1.661-2.666a1 1 0 0 1 .283-.089m13.269 6.37c.866-.008 3.519.075 3.957.131.557.071.747.138.926.317.453.453.38 1.448-.217 2.975-.604 1.55-1.344 2.408-1.933 2.229-.345-.105-1.112-.68-2.522-1.895-1.376-1.183-4.034-3.63-3.996-3.673.014-.014.746-.035 1.632-.05zm-14.828.037c.933 0 7.112.099 7.664.123l.635.029-.259.24c-2.695 2.48-5.187 4.58-6.05 5.094-.339.208-.452.208-.763.03-.424-.241-.903-.864-1.35-1.77-.466-.927-.578-1.406-.578-2.448 0-.83.04-1.043.243-1.204.095-.075.194-.094.458-.094m10.237.612c.043 0 .519.393 1.546 1.27 2.499 2.134 4.212 3.792 4.703 4.546.146.226.18.323.18.516 0 .316-.108.523-.47.886-.674.683-2.123 1.426-3.584 1.855-1.38.4-2.347.398-2.503-.013-.155-.41-.145-3.582.029-7.385.038-.83.07-1.546.07-1.594 0-.042.015-.08.03-.08zm-1.198.027q.028-.005.034.018c.039.16-.037 5.91-.089 6.65-.061.952-.169 1.828-.258 2.148-.113.387-.176.42-.822.416a3.6 3.6 0 0 1-1.098-.157c-.764-.198-1.357-.424-2.145-.811-1.532-.759-2.271-1.422-2.276-2.054 0-.155.038-.24.194-.447.547-.707 2.727-2.678 6.026-5.444.248-.212.379-.309.434-.32"/><path fill="#00d42a" d="m54.556 17-5.779 3.611L43 24.222V9.778l5.777 3.611z"/><path fill="#83e4ff" d="m38 28.148 7.85-10.236-.017.003c-1.652 1.21-6.503 2.4-11.817 2.986" opacity=".8"/><path fill="#fff" d="M46.833 4a11 11 0 0 0-1.091.034c-3.92.402-7.407 2.502-9.618 5.8-.813 1.22-1.575 3.032-1.864 4.46-.22 1.078-.26 1.5-.26 2.695 0 .26.003.47.008.671.022-.673.087-1.113.251-1.92.29-1.43 1.052-3.242 1.865-4.461 2.211-3.299 5.698-5.398 9.618-5.8a11 11 0 0 1 1.091-.034c.74.004 1.59.047 1.986.107 3.467.533 6.506 2.336 8.566 5.08a12.95 12.95 0 0 1 2.59 7.093 12.92 12.92 0 0 0-2.59-8.537c-2.06-2.744-5.098-4.55-8.565-5.083-.397-.06-1.248-.1-1.987-.105" opacity=".2"/><path fill="#fff" d="m29.012 32.292 2.458-9.175 6.772-.878z"/></svg>