<svg xmlns="http://www.w3.org/2000/svg" viewBox="0 0 64 64"><path d="M4 53v1c0 1.662 1.338 3 3 3h50c1.662 0 3-1.338 3-3v-1c0 1.662-1.338 3-3 3H7c-1.662 0-3-1.338-3-3" opacity=".2"/><rect width="56" height="48" x="4" y="8" fill="#00a5c3" rx="3" ry="3"/><path fill="#fff" d="M7 8c-1.662 0-3 1.338-3 3v1c0-1.662 1.338-3 3-3h50c1.662 0 3 1.338 3 3v-1c0-1.662-1.338-3-3-3z" opacity=".2"/><path d="m30 13-2 10-2-4h-2v2l2 4h4l2-10v-2zM8 15v6s0 2 2 2h6v4H8v2h8c2 0 2-2 2-2V15h-2v6h-6v-6zm14 12v2h12v-2z" opacity=".2"/><path fill="#fff" d="m30 12-2 10-2-4h-2v2l2 4h4l2-10v-2zM8 14v6s0 2 2 2h6v4H8v2h8c2 0 2-2 2-2V14h-2v6h-6v-6zm14 12v2h12v-2z"/></svg>