<svg xmlns="http://www.w3.org/2000/svg" viewBox="0 0 64 64"><rect width="50" height="50" x="7" y="11" opacity=".2" ry="3"/><path d="M13.002 5.979a2 2 0 0 0-1.565 3.271l4 5a2.001 2.001 0 1 0 3.126-2.5l-4-5a2 2 0 0 0-1.561-.771m37.936 0a2 2 0 0 0-1.5.771l-4 5a2.001 2.001 0 1 0 3.124 2.5l4-5a2 2 0 0 0-1.624-3.271" opacity=".2"/><path fill="#fff" d="M13.002 4.979a2 2 0 0 0-1.955 2.5 2 2 0 0 1 1.955-1.5 2 2 0 0 1 1.56.771l4 5a2 2 0 0 1 .374.748 2 2 0 0 0-.374-1.748l-4-5a2 2 0 0 0-1.56-.771m37.936 0a2 2 0 0 0-1.5.771l-4 5a2 2 0 0 0-.374 1.75 2 2 0 0 1 .374-.75l4-5a2 2 0 0 1 1.5-.771 2 2 0 0 1 2.015 1.498 2 2 0 0 0-2.016-2.498" opacity=".1"/><rect width="50" height="50" x="7" y="10" fill="#ff57a3" ry="3"/><circle cx="42" cy="27" r="8" opacity=".1"/><circle cx="42" cy="26" r="8" fill="#fb3705"/><circle cx="22" cy="27" r="8" opacity=".1"/><circle cx="42" cy="26" r="3" fill="#3f3f3f"/><path d="M16 40h32v14H16z" opacity=".1"/><circle cx="22" cy="26" r="8" fill="#fb3705"/><circle cx="22" cy="26" r="3" fill="#3f3f3f"/><path fill="#3f3f3f" d="M16 39h32v14H16z"/><path fill="#fff" d="M18 41v4h4v-4zm6 0v4h4v-4zm6 0v4h4v-4zm6 0v4h4v-4zm6 0v4h4v-4zm-24 6v4h4v-4zm6 0v4h4v-4zm6 0v4h4v-4zm6 0v4h4v-4zm6 0v4h4v-4z"/><path fill="#fff" d="M10 10c-1.662 0-3 1.338-3 3v1c0-1.662 1.338-3 3-3h44c1.662 0 3 1.338 3 3v-1c0-1.662-1.338-3-3-3z" opacity=".2"/></svg>