<svg xmlns="http://www.w3.org/2000/svg" viewBox="0 0 64 64"><path d="M32 5A28 28 0 0 0 4 33a28 28 0 0 0 28 28 28 28 0 0 0 28-28A28 28 0 0 0 32 5" opacity=".2"/><path fill="#9aca3c" d="M32 4A28 28 0 0 0 4 32a28 28 0 0 0 28 28 28 28 0 0 0 28-28A28 28 0 0 0 32 4"/><path fill="none" stroke="#000" stroke-linecap="round" stroke-linejoin="round" stroke-width="6" d="m22 20 10.4 13M24 46l20-26" opacity=".2"/><path fill="#fff" d="M32 4A28 28 0 0 0 4 32l.021.406A28 28 0 0 1 32 5a28 28 0 0 1 27.979 27.578A28 28 0 0 0 60 32 28 28 0 0 0 32 4" opacity=".2"/><circle cx="48" cy="48" r="16" opacity=".2"/><circle cx="48" cy="47" r="16" fill="#d939a1"/><path fill="#fff" d="m45.929 39-.177 2.107a6.3 6.3 0 0 0-1.837 1.063L42 41.268l-2 3.464 1.739 1.208a6.3 6.3 0 0 0-.096 1.06 6.3 6.3 0 0 0 .091 1.065L40 49.268l2 3.464 1.91-.9a6.3 6.3 0 0 0 1.842 1.056L45.93 55h4l.176-2.107a6.3 6.3 0 0 0 1.837-1.063l1.915.902 2-3.464-1.739-1.208a6.3 6.3 0 0 0 .096-1.06 6.3 6.3 0 0 0-.091-1.065l1.734-1.203-2-3.464-1.91.9a6.3 6.3 0 0 0-1.842-1.056L49.929 39zm2 5.715A2.286 2.286 0 0 1 50.215 47a2.286 2.286 0 0 1-2.286 2.286A2.286 2.286 0 0 1 45.643 47a2.286 2.286 0 0 1 2.286-2.286"/></svg>