<svg xmlns="http://www.w3.org/2000/svg" xmlns:xlink="http://www.w3.org/1999/xlink" viewBox="0 0 96 96"><defs><filter id="b" width="138.4%" height="136.6%" x="-21.9%" y="-18.3%" filterUnits="objectBoundingBox"><feOffset dy="2" in="SourceAlpha" result="shadowOffsetOuter1"/><feGaussianBlur in="shadowOffsetOuter1" result="shadowBlurOuter1" stdDeviation="2"/><feComposite in="shadowBlurOuter1" in2="SourceAlpha" operator="out" result="shadowBlurOuter1"/><feColorMatrix in="shadowBlurOuter1" result="shadowMatrixOuter1" values="0 0 0 0 0 0 0 0 0 0 0 0 0 0 0 0 0 0 0.2 0"/><feMerge><feMergeNode in="shadowMatrixOuter1"/><feMergeNode in="SourceGraphic"/></feMerge></filter><filter id="f" width="220.8%" height="258.5%" x="-66.7%" y="-57%" filterUnits="objectBoundingBox"><feOffset dy="2" in="SourceAlpha" result="shadowOffsetOuter1"/><feGaussianBlur in="shadowOffsetOuter1" result="shadowBlurOuter1" stdDeviation="2"/><feColorMatrix in="shadowBlurOuter1" values="0 0 0 0 0 0 0 0 0 0 0 0 0 0 0 0 0 0 0.15 0"/></filter><filter id="g" width="220.8%" height="258.5%" x="-66.7%" y="-57%" filterUnits="objectBoundingBox"><feOffset dy="2" in="SourceAlpha" result="shadowOffsetOuter1"/><feGaussianBlur in="shadowOffsetOuter1" result="shadowBlurOuter1" stdDeviation="2"/><feColorMatrix in="shadowBlurOuter1" values="0 0 0 0 0 0 0 0 0 0 0 0 0 0 0 0 0 0 0.15 0"/></filter><filter id="h" width="220.8%" height="258.5%" x="-66.7%" y="-57%" filterUnits="objectBoundingBox"><feOffset dy="2" in="SourceAlpha" result="shadowOffsetOuter1"/><feGaussianBlur in="shadowOffsetOuter1" result="shadowBlurOuter1" stdDeviation="2"/><feColorMatrix in="shadowBlurOuter1" values="0 0 0 0 0 0 0 0 0 0 0 0 0 0 0 0 0 0 0.15 0"/></filter><path id="e" d="m6 6.5 2.961 5.775a2 2 0 0 1-1.832 2.912L0 15q.766-2.685 2.734-4.932Q4.7 7.819 6 6.5"/><path id="d" fill="url(#a)" stroke="#2a2a2a" d="M46.884 36.175C25.078 45.498 13.266 50 11 50c-.506 0-1.11-.326-1.744-1.052-.547-.624-1.138-1.544-1.745-2.696-1.26-2.385-2.606-5.785-3.828-9.562C1.367 29.53-.5 21.017-.5 15.5c0-2.067 1.99-5.196 6.146-9.354 7.85-.8 12.456-1.59 14.097-2.575Q21.8 2.336 25.88.427A2.5 2.5 0 0 1 27.79.34c.602.218 1.12.665 1.413 1.29 3.926 9.535 6.629 15.187 8.18 17.049q2.306 2.766 10.126 14.015c.394.567.52 1.24.407 1.87a2.5 2.5 0 0 1-1.033 1.61Z"/><linearGradient id="a" x1="50%" x2="29.832%" y1="0%" y2="107.505%"><stop offset="0%" stop-color="#adadad"/><stop offset="100%" stop-color="#fafafa"/></linearGradient></defs><g fill="none" fill-rule="evenodd" filter="url(#b)" transform="translate(12 13)"><use xlink:href="#d" transform="translate(23)"/><path stroke="#867878" stroke-linecap="round" stroke-linejoin="round" stroke-width="3" d="M32.542 14.581h11.551q5.814 8.008 3.493 11.763c-2.32 3.755-7.98 2.303-7.98-1.98q0-4.286 13.228-8.857l2.863 2.747"/><g transform="translate(23)"><use xlink:href="#e" fill="#000" filter="url(#f)"/><use xlink:href="#e" fill="#d8d8d8"/></g><g transform="translate(0 19)"><use xlink:href="#d"/><use xlink:href="#e" fill="#000" filter="url(#g)"/><use xlink:href="#e" fill="#d8d8d8"/><circle cx="17.5" cy="21" r="6" stroke="#867878" stroke-width="3"/><path stroke="#867878" stroke-width="3" d="M13.749 26.128q-.614 6.285 1.057 7.23c1.671.945 5.13 2.982 7.41 1.491q2.278-1.491 7.518-2.973"/></g><use xlink:href="#d" transform="translate(24 21)"/><g transform="translate(24 21)"><use xlink:href="#e" fill="#000" filter="url(#h)"/><use xlink:href="#e" fill="#d8d8d8"/></g><path stroke="#2a2a2a" stroke-linecap="round" stroke-linejoin="round" stroke-width="3" d="M37.143 60.711v-6.23l22.056-8.615 2.295 3.095m-21.467 4.328-.63-16.79M35.5 37.585l13.819-3.617 4.843 13.152"/></g></svg>