<svg xmlns="http://www.w3.org/2000/svg" viewBox="0 0 64 64"><circle cx="32" cy="33" r="28" opacity=".2"/><circle cx="32" cy="32" r="28" fill="#32466d"/><path fill="#fff" d="M32 4A28 28 0 0 0 4 32a28 28 0 0 0 .021.586A28 28 0 0 1 32 5a28 28 0 0 1 27.979 27.414L60 32A28 28 0 0 0 32 4" opacity=".1"/><path d="M43.688 6.59c-.708 3.6-3.017 14.997-5.188 21.51-2.8 8.4-3.7 8.9-6.5 8.9s-3.7-.5-6.5-8.9c-2.17-6.512-4.48-17.906-5.187-21.508a28 28 0 0 0-5.967 3.695C15.759 15.803 18.08 25.003 19.4 31.6c2.05 10.246 6.344 12.129 9.6 12.406v15.822A28 28 0 0 0 32 60a28 28 0 0 0 3-.193V44.006c3.256-.277 7.55-2.16 9.6-12.406 1.319-6.595 3.64-15.791 5.054-21.309a28 28 0 0 0-5.967-3.701" opacity=".2"/><path fill="#d7d7d7" d="M43.508 6.502c-.94 4.669-3.07 14.784-5.008 20.598-2.8 8.4-3.7 8.9-6.5 8.9s-3.7-.5-6.5-8.9c-1.935-5.807-4.065-15.912-5.006-20.588a28 28 0 0 0-5.941 3.592c1.475 5.781 3.602 14.269 4.847 20.496 2.05 10.246 6.344 12.129 9.6 12.406v16.822A28 28 0 0 0 32 60a28 28 0 0 0 3-.193V43.006c3.256-.277 7.55-2.16 9.6-12.406 1.243-6.216 3.365-14.683 4.841-20.471a28 28 0 0 0-5.933-3.627"/></svg>