<svg xmlns="http://www.w3.org/2000/svg" viewBox="0 0 400 400"><path fill="#fd1773" fill-rule="evenodd" d="M185.547 32.41c6.23.297 16.426.297 22.656 0 6.231-.296 1.133-.539-11.328-.539s-17.559.243-11.328.539m7.422 2.035c-25.626 1.027-29.481 1.567-43.38 6.077-8.39 2.723-15.924 4.536-16.743 4.03-2.168-1.34-14.146 5.156-13.696 7.428.214 1.084-1.123 1.876-3.057 1.811-1.891-.064-3.135.373-2.766.971.37.598-3.345 3.814-8.256 7.147-12.263 8.324-14.475 9.438-8.977 4.523l4.687-4.19-5.096 3.373c-2.803 1.856-4.772 3.899-4.376 4.541.397.642-5.002 6.74-11.997 13.552s-11.718 10.98-10.495 9.261c2.2-3.093 2.187-3.094-1.266-.149-3.574 3.05-4.723 5.002-1.926 3.274.859-.531 1.54-.397 1.513.298-.075 1.902-3.553 5.742-6.884 7.6-1.626.907-4.071 3.338-5.433 5.403-1.482 2.245-1.693 3.272-.524 2.556 2.893-1.774 2.482-.493-3.399 10.592-2.943 5.548-6.911 14.364-8.816 19.591s-3.747 9.222-4.091 8.878.744-4.228 2.417-8.631c3.483-9.168 2.845-10.938-.799-2.216-1.331 3.185-2.635 9.689-2.899 14.453-.263 4.765-1.248 12.451-2.188 17.08-3.944 19.42-1.203 60.198 5.259 78.232 1.372 3.829 2.131 7.909 1.687 9.066s-.256 1.763.419 1.346c.674-.416 3.432 3.942 6.13 9.685 7.338 15.621 19.015 32.135 32.711 46.257 6.732 6.942 9.746 10.337 6.698 7.544s-6.062-5.078-6.695-5.078c-1.845 0 10.179 10.103 12.08 10.151 1.596.039 25.7 15.465 27.484 17.588.439.523-1.838-.559-5.061-2.404-7.066-4.046-7.891-3.088-.967 1.123 2.69 1.636 5.783 2.633 6.873 2.214 1.089-.418 5.408.976 9.596 3.099 23.667 11.993 69.131 17.175 97.568 11.121 7.206-1.534 14.617-2.848 16.469-2.919 1.851-.071 3.04-.657 2.642-1.301-.399-.645.548-1.173 2.102-1.173 1.555-.001 7.344-2.138 12.865-4.75s10.878-4.427 11.905-4.033c1.772.68 11.651-4.394 11.651-5.984 0-.413-2.461.7-5.469 2.475-9.369 5.528-5.982 2.116 4.04-4.07 7.987-4.929 10.052-5.597 12.891-4.17 3.147 1.582 3.095 1.64-.745.834-2.27-.477-4.502-.259-4.962.484s1.75 1.141 4.908.884c13.696-1.115 29.2 1.929 32.971 6.474 1.254 1.511-.054 1.262-4.032-.766-3.238-1.651-7.322-2.955-9.074-2.897-1.751.057-.174 1.044 3.505 2.193 3.68 1.149 7.612 2.854 8.738 3.788 1.126.935 2.445 1.302 2.93.816 3.147-3.147 16.799 10.257 16.799 16.493 0 1.766.845 4.563 1.878 6.217 1.379 2.208 1.43 3.968.194 6.62-.926 1.986-2.477 5.585-3.447 7.997s-2.429 3.974-3.241 3.472c-1.575-.973-5.086 4.397-5.845 8.94-.389 2.327.819 2.734 8.127 2.734 6.588 0 8.584-.545 8.584-2.344 0-1.289.59-2.343 1.312-2.343s2.213-2.989 3.315-6.641 2.267-7.344 2.591-8.203c1.082-2.869-.51 7.765-1.637 10.937-.721 2.032-.271 1.758 1.286-.781 4.71-7.676 3.394-30.938-2.229-39.428-4.642-7.007-15.038-16.318-16.542-14.814-.419.418 1.664 2.259 4.628 4.091 5.781 3.573 11.696 11.089 8.728 11.089-.96 0-2.094-1.333-2.519-2.962s-4.579-5.581-9.229-8.784c-7.774-5.354-11.193-8.603-6.501-6.18 1.074.555.21-.407-1.921-2.138-3.94-3.2-11.556-5.587-10.049-3.148.454.735 2.149 1.337 3.767 1.337s3.347.657 3.844 1.462c1.066 1.726-6.485-.223-10.983-2.834-4.636-2.691-12.219-5.425-13.911-5.015-.836.202-.195-1.095 1.423-2.884s3.711-3.074 4.651-2.859c.939.216 4.864-3.119 8.721-7.411s5.437-6.464 3.509-4.827c-1.927 1.637-3.504 2.274-3.504 1.414-.001-1.841 4.784-6.418 7.031-6.725.859-.118 1.377-1.129 1.151-2.247s.828-3.005 2.344-4.194c2.556-2.006 2.588-1.937.438.963-2.294 3.094-2.282 3.096 1.172.149 3.574-3.05 4.723-5.002 1.926-3.274-.859.531-1.547.397-1.527-.298.047-1.688 10.822-18.79 10.867-17.249.019.662-1.732 4.002-3.891 7.422s-3.574 6.219-3.144 6.219c1.569 0 8.72-12.657 7.9-13.984-.465-.752 1.268-6.643 3.85-13.092s4.695-12.881 4.695-14.292c0-1.412.695-2.137 1.545-1.612.849.525 1.201.039.782-1.079-.419-1.119.297-6.605 1.59-12.191 2.243-9.689 2.273-3.444.037 7.813-.427 2.148.213 1.093 1.421-2.344 3.108-8.841 3.108-66.159 0-75-1.208-3.438-1.848-4.492-1.421-2.344 1.018 5.123 2.134 17.337 1.214 13.281-3.763-16.59-7.732-29.843-11.542-38.543-5.048-11.525-5.394-12.936-2.776-11.318 3.344 2.067-4.113-9.091-7.647-11.441-3.552-2.362-5.109-6.273-1.646-4.133 1.029.636.249-1.121-1.733-3.904-1.981-2.783-3.988-4.673-4.46-4.202-1.083 1.083-5.051-2.128-5.051-4.086 0-.805.878-.973 1.953-.373 2.275 1.27-16.205-18.251-22.916-24.206-11.736-10.414-9.583-7.206 4.653 6.931 10.258 10.188 11.336 11.491 3.112 3.762-15.311-14.389-21.14-18.713-37.862-28.087-7.128-3.996-12.443-7.837-11.81-8.536s.255-.755-.84-.124c-1.095.632-7.424-.65-14.063-2.847-12.92-4.276-17.185-5.249-24.571-5.605-4.066-.196-4.273-.404-1.563-1.569 1.779-.764 2.115-1.281.782-1.2-1.29.079-15 .65-30.469 1.27m53.781 4.727c4.657 1.653 8.738 2.735 9.069 2.405.729-.729-13.503-5.686-15.863-5.525-.921.062 2.136 1.466 6.794 3.12m-103.781.727c-3.907 1.882-4.038 2.099-.781 1.303 4.427-1.082 9.403-3.619 7.031-3.584-.86.013-3.672 1.039-6.25 2.281m-14.844 8.539c-3.008 1.646-6.172 2.994-7.031 2.994-.86 0 .898-1.348 3.906-2.994s6.172-2.995 7.031-2.995c.86 0-.898 1.348-3.906 2.995m137.63-2.627c2.484 1.904 12.37 7.064 12.37 6.457 0-1.045-9.835-6.943-11.589-6.95-.787-.003-1.139.219-.781.493m15.495 7.799c0 .364 2.988 2.633 6.641 5.042s5.815 3.381 4.807 2.161c-1.938-2.347-11.448-8.33-11.448-7.203m-175.781 5.121-4.688 4.027 5.078-3.36c2.793-1.849 5.079-3.664 5.079-4.036 0-1.169-.662-.762-5.469 3.369m111.426 4.16c-.42 3.021-3.549 4.556-22.256 10.915-24.253 8.245-28.461 8.867-11.413 1.689 6.218-2.618 11.129-5.559 10.915-6.534s-.215-1.794 0-1.82c.214-.026 5.312-1.728 11.328-3.782s11.157-3.792 11.426-3.86.269 1.458 0 3.392m10.895.781c-2.693 3.091-2.053 6.641 1.197 6.641 1.282 0 1.798.955 1.266 2.343-1.232 3.211 1.517 2.939 9.023-.89 3.487-1.779 6.694-2.879 7.127-2.446.434.433-3.45 2.928-8.631 5.543s-9.864 5.473-10.407 6.352c-1.363 2.206.803 1.909 5.448-.746 6.998-4.001 6.893-2.461-.156 2.291-5.534 3.731-6.979 4.166-7.403 2.229-.29-1.323-1.471-2.044-2.623-1.602-1.153.443-4.783 1.186-8.067 1.653-5.468.776-5.313.627 1.842-1.773 9.497-3.185 9.826-3.415 7.196-5.04-1.282-.793-9.707 1.282-21.829 5.374-10.858 3.666-20.359 6.297-21.114 5.847-1.869-1.114.731-2.312 16.216-7.468 7.305-2.433 14.06-5.348 15.012-6.478s3.955-2.499 6.673-3.042c5.657-1.132 7.547-3.228 5.108-5.667-1.204-1.204-.92-2.265.996-3.72 3.903-2.965 5.898-2.583 3.126.599m44.085 12.891c0 3.336-.648 6.465-1.44 6.955-.791.489-3.34 6.683-5.662 13.764-5.163 15.738-4.849 15.384-12.466 14.038l-6.213-1.098 6.118-.814 6.118-.814 5.21-15.565c2.865-8.561 5.21-17.568 5.21-20.014 0-2.569.661-4.041 1.563-3.484.859.531 1.562 3.695 1.562 7.032M83.594 75c-1.556 1.719-2.041 3.125-1.079 3.125.963 0 2.503-1.406 3.423-3.125s1.405-3.125 1.078-3.125-1.867 1.406-3.422 3.125m90.146.229c-3.701 1.7-7.92 2.838-9.375 2.529-1.594-.339.149-1.571 4.385-3.099 9.804-3.538 13.11-3.16 4.99.57m24.698 2.896c0 .859-.879 1.572-1.954 1.584s-3.711.371-5.859.798c-3.448.686-3.357.509.781-1.513 5.642-2.757 7.032-2.928 7.032-.869m-124.211 6.24c-1.56 1.724-2.11 3.135-1.223 3.135 1.966 0 5.863-4.466 4.813-5.516-.414-.414-2.029.657-3.59 2.381m89.836 1.573c0 .859-1.407 1.562-3.125 1.562-1.719 0-3.125-.703-3.125-1.562s1.406-1.563 3.125-1.563c1.718 0 3.125.703 3.125 1.563m43.06 8.643c-1.668 1.262-4.832 2.241-7.031 2.175-3.634-.108-3.5-.311 1.471-2.225 7.236-2.786 9.286-2.768 5.56.05m61.488 13.079c-1.055 3.522-2.51 6.403-3.233 6.403-1.974 0-1.603-2.417 1.308-8.522 3.393-7.115 4.37-6.04 1.925 2.119m-96.736 1.715c-1.289.833-4.453 1.455-7.031 1.383-4.594-.129-4.609-.157-.781-1.383 5.974-1.913 10.773-1.913 7.812 0m173.403 11.328c.076 2.558-1.571.919-3.926-3.906l-2.478-5.078 3.185 3.906c1.751 2.148 3.2 4.434 3.219 5.078m-297.415 1.563-2.811 5.078 3.22-3.906c2.857-3.465 4.125-6.25 2.846-6.25-.244 0-1.709 2.285-3.255 5.078m302.268 8.203c0 .859 1.347 4.023 2.994 7.031s2.994 4.766 2.994 3.906-1.347-4.023-2.994-7.031-2.994-4.766-2.994-3.906m-136.85 11.79c-4.297 1.678-8.164 2.995-8.593 2.926-1.662-.267 11.848-6.039 14.062-6.008 1.289.017-1.172 1.404-5.469 3.082m137.694 3.571c.109.145.716 1.941 1.347 3.99l1.147 3.727-5.641-4.303c-3.102-2.366-5.64-4.647-5.64-5.068 0-.65 8.212.895 8.787 1.654m-149.412 1.164c-1.749 1.218-.956 1.414 3.125.771l5.468-.863-5.468 2.212c-6.413 2.593-9.588 3.043-6.25.886 1.949-1.26 1.818-1.537-.782-1.648l-3.125-.134 3.125-1.343c4.406-1.893 6.694-1.824 3.907.119M31.995 166.729c-1.804 4.198-2.748 50.302-1.178 57.49.907 4.154 1.155-1.87.738-17.969-.345-13.32.086-28.086.958-32.812 1.669-9.048 1.489-11.38-.518-6.709m117.826 28.447c4.403 11.526 7.755 21.207 7.449 21.512-.757.758-18.233-44.414-18.108-46.809.117-2.257.321-1.771 10.659 25.297m-22.777-18.223c1.285 3.652 4.176 11.436 6.424 17.297s3.453 10.264 2.678 9.785c-1.276-.788-12.708-30.185-12.708-32.677 0-2.735 1.484-.431 3.606 5.595m11.197 7.344c2.75 5.319 2.911 6.328 1.004 6.328-.759 0-1.734-1.23-2.167-2.734s-1.293-3.965-1.912-5.469c-1.863-4.526.515-3.076 3.075 1.875m227.962 14.141c0 9.023.258 12.714.574 8.203s.316-11.895 0-16.407c-.316-4.511-.574-.82-.574 8.204m-124.985 13.613c.612.612 4.772 2.76 9.244 4.772 4.473 2.012 6.374 3.241 4.226 2.73-2.149-.51-5.155-1.214-6.681-1.564-3.232-.743-11.656-7.051-9.416-7.051.832 0 2.014.501 2.627 1.113m31.01 14.506c3.534 2.154 4.246 3.121 2.304 3.125-2.888.006-12.032-4.177-12.032-5.503 0-1.733 4.984-.515 9.728 2.378m44.592 8.528c6.243 2.347 12.038 5.552 12.878 7.122 1.392 2.6-27.048-7.646-39.049-14.069-6.803-3.641-2.65-4.283 5.835-.901 4.942 1.969 14.093 5.501 20.336 7.848M36.833 250c.575 2.148 1.697 4.961 2.493 6.25 1.007 1.629 1.13 1.152.403-1.562-.574-2.149-1.696-4.961-2.493-6.25-1.006-1.629-1.129-1.153-.403 1.562m316.017 11.01c-1.44 3.397-2.337 6.178-1.993 6.178 1.146 0 5.59-9.566 5.097-10.972-.267-.761-1.664 1.396-3.104 4.794m-226.977-.903c3.884 2.937 1.115 2.972-3.998.049-2.504-1.431-3.032-2.253-1.471-2.288 1.34-.031 3.801.977 5.469 2.239m-82.117 7.992c.007 1.754 5.905 11.589 6.95 11.589.413 0-.758-2.637-2.603-5.86-4.133-7.218-4.354-7.51-4.347-5.729m268.522 12.76c-4.795 4.942-9.088 10.064-9.539 11.382-.753 2.202-23.25 17.134-25.814 17.134-.614 0 4.773-3.943 11.971-8.762 8.188-5.482 12.396-9.189 11.241-9.903-1.194-.738 1.909-4.256 8.774-9.946 13.49-11.183 14.289-11.16 3.367.095m-10.715 3.227c0 .7-2.461 2.446-5.469 3.881-6.478 3.089-7.326 1.438-1.169-2.277 4.952-2.989 6.638-3.396 6.638-1.604m17.988 6.511c-4.548 6.562-7.53 8.872-3.568 2.762 1.255-1.933 3.15-5.158 4.213-7.165s2.331-3.25 2.819-2.762c.488.487-1.071 3.712-3.464 7.165m-263.335-.019c1.818 2.552 4.102 5.133 5.078 5.736.975.603-.196-1.485-2.602-4.64-5.223-6.848-7.192-7.72-2.476-1.096m138.154-1.255c-.442.716-.135 1.302.683 1.302s1.931 1.155 2.473 2.567c1.691 4.408-.167 4.063-3.527-.654-2.418-3.396-2.671-4.517-1.02-4.517 1.208 0 1.834.586 1.391 1.302m135.318-.554c0 .697-2.286 2.913-5.079 4.924l-5.078 3.655 4.589-4.924c4.864-5.219 5.568-5.68 5.568-3.655m-20.758 4.781c.13 1.723-1.353 3.643-3.607 4.669l-3.827 1.744 3.452-4.669c4.086-5.527 3.71-5.362 3.982-1.744m-19.086 1.763c-5.085 3.367-7.031 3.866-7.031 1.801 0-1.572 6.047-4.675 9.375-4.81 1.289-.053.234 1.301-2.344 3.009m27.941 3.515c-7.7 13.086-26.651 30.327-29.835 27.143-.534-.534-.247-.971.637-.971 2.375 0 13.03-8.8 11.956-9.874-1.324-1.324 8.706-13.563 11.116-13.563 1.111 0 2.896-1.055 3.966-2.344 2.359-2.842 3.751-3.094 2.16-.391m-254.058 1.953c.908 1.719 4.671 5.938 8.363 9.375 6.63 6.174 4.509 3.503-9.304-11.718-.39-.43.033.625.941 2.343M275 303.866c0 .408-2.109 1.832-4.687 3.165s-4.688 1.762-4.688.952c0-1.165 3.467-2.992 8.984-4.735.215-.067.391.211.391.618m15.415 10.021c-4.611 5.147-8.642 8.628-8.957 7.735-.604-1.711 15.538-18.897 16.678-17.757.365.365-3.109 4.875-7.721 10.022m29.626-1.593c-1.999 2.465-3.93 4.22-4.292 3.9-.661-.585 6.127-8.381 7.298-8.381.346 0-1.007 2.016-3.006 4.481m-8.324 8.021c-.979 1.584 6.831 5.408 8.215 4.024.412-.412-1.087-1.21-3.331-1.773-2.243-.564-3.691-1.652-3.217-2.42.475-.768.511-1.396.082-1.396-.43 0-1.217.704-1.749 1.565m-89.842 10.22c0 .625-1.406-.651-3.125-2.836s-3.125-4.484-3.125-5.109 1.406.651 3.125 2.836 3.125 4.484 3.125 5.109m63.852-3.241c-1.329 1.329-12.289 5.577-12.289 4.763 0-.439 2.285-1.797 5.078-3.019 5.156-2.255 8.54-3.073 7.211-1.744m-189.651 5.375c2.962 3.391 8.612 7.231 8.612 5.853 0-.358-2.637-2.622-5.86-5.031-4.799-3.588-5.297-3.737-2.752-.822m144.549 16.706c0 .308-3.164-1.67-7.031-4.395-3.867-2.726-7.031-5.571-7.031-6.323 0-.751 3.164 1.226 7.031 4.395s7.031 6.014 7.031 6.323m-70.312.802c0 1.601-3.324 1.811-6.904.437-4.179-1.604-2.738-3.237 2.216-2.51 2.578.379 4.688 1.312 4.688 2.073m162.5-1.039c0 .43 2.109 1.873 4.687 3.206s4.688 2.072 4.688 1.643-2.11-1.873-4.688-3.206-4.687-2.072-4.687-1.643m-203.125 3.987c3.007 1.647 6.171 2.994 7.031 2.994s-.899-1.347-3.906-2.994-6.172-2.994-7.032-2.994c-.859 0 .899 1.347 3.907 2.994m132.812 0c-3.008 1.647-4.766 2.994-3.906 2.994s4.023-1.347 7.031-2.994 4.766-2.994 3.906-2.994-4.023 1.347-7.031 2.994m99.883 7.813c-.003 1.289-1.032-.023-2.288-2.914s-2.258-5.704-2.227-6.25c.113-2.033 4.521 6.912 4.515 9.164m-17.508 1.219c.37 2.337 1.465 5.875 2.433 7.861 1.325 2.718 1.296 4.357-.117 6.62-1.033 1.654-1.862 3.896-1.843 4.981.02 1.086 1.198-.384 2.618-3.266 2.048-4.158 2.203-5.849.746-8.182-1.011-1.618-1.837-4.667-1.837-6.776s-.602-4.207-1.337-4.662c-.735-.454-1.034 1.086-.663 3.424m-194.516-1.902c1.343 1.342 17.194 5.346 20.735 5.236 1.719-.053-2.149-1.421-8.594-3.04-13.504-3.393-13.302-3.357-12.141-2.196m77.766 3.091c-5.904 1.359-7.127 1.987-3.906 2.008 2.578.017 7.5-.896 10.937-2.029 7.85-2.587 4.258-2.576-7.031.021" data-iconColor="YVM"/></svg>