<svg xmlns="http://www.w3.org/2000/svg" viewBox="0 0 64 64"><circle cx="32" cy="33" r="28" opacity=".2"/><circle cx="32" cy="32" r="28" fill="#a71416"/><path fill="none" stroke="#000" stroke-linejoin="round" stroke-width="6" d="M32 26h12.3s2.7 2.6 2.7 7.5-2.7 6.5-2.7 6.5H35v-7" opacity=".2"/><path fill="none" stroke="#9e9e9e" stroke-linejoin="round" stroke-width="6" d="M32 25h12.3s2.7 2.6 2.7 7.5-2.7 6.5-2.7 6.5H35v-7"/><path fill="none" stroke="#000" stroke-linejoin="round" stroke-width="6" d="M15 26h17L18 40h17" opacity=".2"/><path fill="none" stroke="#fefefe" stroke-linejoin="round" stroke-width="6" d="M15 25h17L18 39h17"/><path fill="#fff" d="M32 4A28 28 0 0 0 4 32a28 28 0 0 0 .021.586A28 28 0 0 1 32 5a28 28 0 0 1 27.979 27.414L60 32A28 28 0 0 0 32 4" opacity=".1"/></svg>