<svg xmlns="http://www.w3.org/2000/svg" viewBox="0 0 64 64"><path d="m7 13.2-3 6 3 14 11 6 11-6v-6l-11-2zm50 0-11 12-11 2v6l11 6 11.2-6 2.8-14zm-28 31-8 6 3 5 8 3 8-3 3-5-8-6z" opacity=".2"/><path fill="#3b8668" d="m7 12-3 6 3 14 11 6 11-6v-6l-11-2zm50 0L46 24l-11 2v6l11 6 11.2-6L60 18zM29 43l-8 6 3 5 8 3 8-3 3-5-8-6z"/><path fill="#fff" d="m7 12-3 6 .18.84L7 13.2l11 12 11 2V26l-11-2zm50 0L46 24l-11 2v1.2l11-2 11-12 2.828 5.657L60 18zM29 43l-8 6 .496.826L29 44.2h6l7.504 5.627L43 49l-8-6z" opacity=".1"/><path d="m32 8-5.6 5.6 2.6 5.6-5 8v12l8 15 8-15v-12l-5-8 2.6-5.6z" opacity=".2"/><path fill="#64aca8" d="m32 6.8-5.6 5.6L29 18l-5 8v12l8 15 8-15V26l-5-8 2.6-5.6z"/><path fill="#fff" d="m32 6.8-5.6 5.6.381.819L32 8l5.219 5.219.38-.819zm-3.32 11.712L24 26v1.2l5-8zm6.64 0-.32.687 5 8V26z" opacity=".2"/><path d="M32 13.2h14v3H32z" opacity=".2"/><path fill="#8ab9c1" d="M32 12h14v3H32z"/><path d="M40.143 21.975a3 3 0 0 0-2.118.767l-16 14a3 3 0 1 0 3.95 4.516l16-14a3 3 0 0 0-1.832-5.283" opacity=".2"/><path fill="none" stroke="#69501b" stroke-linecap="round" stroke-linejoin="round" stroke-width="6" d="M40 24 24 38"/><path d="M24.066 21.973a3 3 0 0 0-2.04 5.285l16 14a3 3 0 1 0 3.949-4.516l-16-14a3 3 0 0 0-1.909-.77" opacity=".2"/></svg>