<svg xmlns="http://www.w3.org/2000/svg" viewBox="0 0 64 64"><path d="M11 6h42a7 6.87 0 0 1 7 6.88v41.24A7 6.87 0 0 1 53 61H11a7 6.87 0 0 1-7-6.88V12.88A7 6.87 0 0 1 11 6" opacity=".2"/><path fill="#e3e1d4" d="M11 4h42a7 7 0 0 1 7 7v42a7 7 0 0 1-7 7H11a7 7 0 0 1-7-7V11a7 7 0 0 1 7-7"/><path d="M32 23a10 10 0 0 0-10 10 10 10 0 0 0 10 10 10 10 0 0 0 10-10 10 10 0 0 0-10-10m0 3a7 7 0 0 1 7 7 7 7 0 0 1-7 7 7 7 0 0 1-7-7 7 7 0 0 1 7-7m0-10a17 17 0 0 0-17 17 17 17 0 0 0 17 17 17 17 0 0 0 17-17 17 17 0 0 0-17-17m0 4a13 13 0 0 1 13 13 13 13 0 0 1-13 13 13 13 0 0 1-13-13 13 13 0 0 1 13-13m0-12A25 25 0 0 0 7 33a25 25 0 0 0 25 25 25 25 0 0 0 25-25A25 25 0 0 0 32 8m0 5a20 20 0 0 1 20 20 20 20 0 0 1-20 20 20 20 0 0 1-20-20 20 20 0 0 1 20-20" opacity=".1"/><path fill="#f76f53" d="M32 22a10 10 0 0 0-10 10 10 10 0 0 0 10 10 10 10 0 0 0 10-10 10 10 0 0 0-10-10m0 3a7 7 0 0 1 7 7 7 7 0 0 1-7 7 7 7 0 0 1-7-7 7 7 0 0 1 7-7m0-10a17 17 0 0 0-17 17 17 17 0 0 0 17 17 17 17 0 0 0 17-17 17 17 0 0 0-17-17m0 4a13 13 0 0 1 13 13 13 13 0 0 1-13 13 13 13 0 0 1-13-13 13 13 0 0 1 13-13m0-12A25 25 0 0 0 7 32a25 25 0 0 0 25 25 25 25 0 0 0 25-25A25 25 0 0 0 32 7m0 5a20 20 0 0 1 20 20 20 20 0 0 1-20 20 20 20 0 0 1-20-20 20 20 0 0 1 20-20"/><path fill="#fff" d="M32 22c-5.523 0-10 4.477-10 10q.01.25.035.5A10 10 0 0 1 32 23a10 10 0 0 1 9.977 9.342q.014-.171.023-.342c0-5.523-4.477-10-10-10m-9.965 10.5c-.016.166 0 0 0 0m16.934-.137A7 7 0 0 1 32 39a7 7 0 0 1-6.957-6.5q-.03.25-.043.5a7 7 0 1 0 13.969-.637M32 15c-9.389 0-17 7.611-17 17q.014.25.035.5C15.305 23.321 22.817 16.015 32 16c9.095 0 16.579 7.16 16.982 16.246L49 32c0-9.389-7.611-17-17-17m12.961 17.5C44.693 39.469 38.974 44.984 32 45c-6.974-.016-12.693-5.531-12.961-12.5q-.024.25-.039.5c0 7.18 5.82 13 13 13s13-5.82 13-13q-.015-.25-.039-.5M32 7C18.193 7 7 18.193 7 32q.015.25.035.5C7.307 18.902 18.4 8.016 32 8c13.513.003 24.577 10.743 24.982 24.25L57 32C57 18.193 45.807 7 32 7m19.98 25.256C51.84 43.194 42.939 51.99 32 52c-10.838-.018-19.69-8.665-19.961-19.5q-.023.25-.039.5c0 11.046 8.954 20 20 20s20-8.954 20-20a21 21 0 0 0-.02-.744" opacity=".2"/><path fill="#fff" d="M11 4a7 7 0 0 0-7 7v1a7 7 0 0 1 7-7h42a7 7 0 0 1 7 7v-1a7 7 0 0 0-7-7z" opacity=".2"/></svg>