<svg xmlns="http://www.w3.org/2000/svg" viewBox="0 0 64 64"><path d="M26.396 9c-8.593 0-14.098 1.901-17.478 3.783-1.69.941-2.846 1.9-3.59 2.647-.744.745-1.129 1.367-1.129 1.367a1.4 1.4 0 0 0-.078 1.29L9.72 30.716c.102.23.252.391.416.523A99 99 0 0 0 10 35.756c0 6.126 2.633 12.423 4.074 15.42a1.407 1.5 0 0 0-.681-.188 1.407 1.5 0 0 0-.98 2.575s.391.38.98.722c.588.342 1.475.756 2.79 1.156C18.816 56.243 23.16 57 30.288 57c6.434 0 11.114-.764 14.211-1.541s4.705-1.615 4.705-1.615a1.407 1.5 0 0 0-.289-2.797c1.441-1.719 4.08-6.095 4.08-15.291 0-5.175-.54-11.287-.826-14.16 3.573.837 6.064 1.486 6.064 1.486 1.384.37 2.363-1.333 1.35-2.348l-1.426-1.43 1.063-.53c1.073-.537 1.02-2.09-.088-2.551 0 0-16.912-7.223-32.735-7.223" opacity=".2"/><path fill="#4f4f4f" d="M26.397 8C17.804 8 12.3 9.9 8.92 11.783c-1.69.941-2.846 1.901-3.59 2.647S4.2 15.797 4.2 15.797a1.4 1.4 0 0 0-.079 1.29l5.6 12.627c.648 1.452 2.825.873 2.67-.71 0 0-.288-3.141 1.261-6.247 1.55-3.106 4.736-6.24 12.746-6.24 10.823 0 31.835 5.566 31.835 5.566 1.384.37 2.364-1.334 1.35-2.348l-1.426-1.43 1.063-.532c1.073-.537 1.02-2.09-.087-2.551 0 0-16.913-7.222-32.735-7.222"/><path fill="#e4e4e4" d="M11 17.92s5.598-4.008 19.597-4.008c13.998 0 21.397 5.01 21.397 5.01s1 8.82 1 15.834c0 12.626-5 16.234-5 16.234l-15.998 3.006L15 51.992s-5-8.819-5-17.236c0-5.631 1-16.835 1-16.835"/><path fill="#4f4f4f" d="M13.392 49.987a1.407 1.5 0 0 0-.98 2.575s.392.381.98.723c.589.342 1.476.756 2.792 1.157C18.816 55.244 23.159 56 30.286 56c6.435 0 11.116-.764 14.213-1.54 3.097-.777 4.703-1.617 4.703-1.617a1.407 1.5 0 1 0-1.258-2.683s-1.207.66-4.088 1.383C40.974 52.265 36.512 53 30.286 53c-6.94 0-11.036-.743-13.327-1.44-1.146-.35-1.842-.686-2.22-.906s-.338-.214-.338-.214a1.407 1.5 0 0 0-1.009-.454"/><ellipse cx="32.096" cy="33.952" opacity=".1" rx="12.998" ry="17.035"/><ellipse cx="32.096" cy="32.952" fill="#55d400" rx="12.998" ry="17.035"/><ellipse cx="31.996" cy="32.952" fill="#4f4f4f" rx="6.999" ry="10.021"/><ellipse cx="28.997" cy="27.438" opacity=".2" rx="3" ry="5.511"/><ellipse cx="28.997" cy="26.438" fill="#fff" rx="3" ry="5.511"/><path fill="#fff" d="M26.396 8c-8.593 0-14.098 1.901-17.478 3.783-1.69.941-2.846 1.9-3.59 2.647-.744.745-1.129 1.367-1.129 1.367-.222.37-.253.821-.1 1.223.03-.076.058-.152.1-.223 0 0 .385-.622 1.13-1.367.743-.746 1.899-1.706 3.589-2.647C12.298 10.901 17.803 9 26.396 9c15.823 0 32.735 7.223 32.735 7.223.385.16.634.455.762.79.246-.66-.008-1.476-.762-1.79 0 0-16.912-7.223-32.735-7.223m32.426 10.973-.666.332 1.426 1.43c.147.146.24.31.309.478.18-.474.13-1.039-.309-1.479zM12.391 29.027c-.003.115-.02.286-.02.381.02-.12.03-.245.02-.38m1.002 20.961a1.407 1.5 0 0 0-1.325 2 1.407 1.5 0 0 1 1.325-1 1.407 1.5 0 0 1 1.007.453s-.04-.007.338.213c.379.22 1.075.558 2.221.907 2.292.697 6.388 1.441 13.328 1.441 6.226 0 10.687-.736 13.568-1.459s4.088-1.383 4.088-1.383a1.408 1.5 0 0 1 1.955.844 1.408 1.5 0 0 0-1.955-1.844s-1.206.66-4.088 1.383c-2.881.723-7.342 1.459-13.568 1.459-6.94 0-11.036-.744-13.328-1.441-1.146-.35-1.842-.687-2.22-.907-.38-.22-.339-.213-.339-.213a1.407 1.5 0 0 0-1.007-.453" opacity=".1"/></svg>