<svg xmlns="http://www.w3.org/2000/svg" viewBox="0 0 64 64"><rect width="56" height="56" x="4" y="5" opacity=".2" rx="11.2" ry="11.2"/><rect width="56" height="56" x="4" y="4" fill="#f556b6" rx="11.2" ry="11.2"/><path d="M32 14a1.5 1.5 0 0 0-1.18.575l-14.5 18.5a1.5 1.5 0 0 0 0 1.852l14.5 18.5a1.5 1.5 0 0 0 2.36 0l14.5-18.5a1.5 1.5 0 0 0 0-1.852l-14.5-18.5a1.5 1.5 0 0 0-1.18-.574m0 4.557 5 14.444H27Zm-3.402 3.717-3.713 10.727h-4.696zm6.804 0 8.409 10.727h-4.696ZM20.19 35.001h4.891l3.617 10.855zm6.999 0h9.625L32 49.436Zm11.732 0h4.89l-8.507 10.855z" opacity=".2"/><path fill="none" stroke="#fff" stroke-linecap="round" stroke-linejoin="round" stroke-width="3" d="M32 14.5 17.5 33 32 51.5 46.5 33Z"/><path fill="none" stroke="#fff" stroke-width="2" d="m32 51.6-6.3-18.9L32 14.5m0 37.1 6.3-18.9L32 14.5M18 33h28"/><path fill="#fff" d="M15.2 4C8.993 4 4 8.994 4 15.2v1C4 9.993 8.994 5 15.2 5h33.6C55.007 5 60 9.994 60 16.2v-1C60 8.993 55.006 4 48.8 4z" opacity=".2"/></svg>