<svg xmlns="http://www.w3.org/2000/svg" viewBox="0 0 16 16"><path fill="currentColor" d="M8 0A7.983 7.983 0 0 0 .001 8c0 .837.129 1.643.365 2.4l.01-.052c.145-.565.424-1.15.924-1.614.587-.544 1.27-.691 1.978-.703.117-.247.211-.51.445-.683.098-.073.206-.043.31-.09.014-.027.007-.025.022-.055.284-.537.654-.943 1.172-1.527.707-.797 1.805-1.536 2.822-2.197 1.018-.662 1.808-1.127 2.133-1.293-.104.053.313-.18.715-.405.333-.187.767-.42 1.2-.648A7.97 7.97 0 0 0 8 0m7.365 4.865a57 57 0 0 1-1.326 1.725v.002c-.214.288-.8.987-1.615 1.877-.814.888-1.722 1.846-2.627 2.414-.596.374-1.046.493-1.525.676-.076.423-.263.823-.635 1.097-.23.17-.509.154-.775.196a2.94 2.94 0 0 1-.737 1.308l-.02.02-.019.02c-.542.496-1.205.72-1.822.79l-.054.006h-.098A8 8 0 0 0 8 16c4.432 0 8-3.568 8-8a8 8 0 0 0-.635-3.135" class="ColorScheme-Text" opacity=".3"/><path fill="currentColor" fill-rule="evenodd" d="M15.174 1.008c-.31-.035-.603.082-.885.181v.004c-.442.173-.968.427-1.484.694-.517.266-1.023.543-1.418.765-.396.222-.692.394-.746.422a34 34 0 0 0-2.047 1.242c-.993.646-2.075 1.41-2.619 2.024-.27.303-.48.543-.652.762.338.11.646.317.869.619l1.818 2.466c.1.137.171.287.227.44.29-.146.604-.325 1.029-.592.7-.439 1.627-1.375 2.422-2.242a34 34 0 0 0 1.548-1.799c.04-.053.246-.31.518-.658s.615-.795.95-1.254c.337-.459.664-.929.905-1.33.12-.2.22-.383.29-.543.068-.16.116-.29.097-.434a.77.77 0 0 0-.223-.45l-.01-.013a.8.8 0 0 0-.275-.212 1 1 0 0 0-.314-.092M4.885 8.01a.76.76 0 0 0-.568.142.763.763 0 0 0-.162 1.07L5.97 11.69a.766.766 0 1 0 1.234-.908L5.387 8.314a.77.77 0 0 0-.502-.304M3.038 9.033c-.416.062-.823.217-1.059.436-.323.3-.526.704-.634 1.127-.178.693-.19 1.69-.327 2.427-.067.366-.376.936-.953 1.674-.147.248 0 .28 0 .28.083.058.234 0 .309-.034 1.333-1.096 2.214-.94 3.775-.947.46-.053.913-.216 1.262-.535.226-.231.351-.434.441-.635a1.7 1.7 0 0 1-.685-.543L3.348 9.816a1.7 1.7 0 0 1-.31-.783" class="ColorScheme-Text"/></svg>