<svg xmlns="http://www.w3.org/2000/svg" viewBox="0 0 64 64"><rect width="56" height="56" x="-61" y="-60" opacity=".2" rx="28" ry="28" transform="rotate(90)scale(-1 1)"/><rect width="56" height="56" x="-60" y="-60" fill="#484bb6" rx="28" ry="28" transform="rotate(90)scale(-1 1)"/><path d="m32.145 5.4-3.243.37-4.003 1.098-.758.736 2.486 1.714v.98L25 11.275l1.955 2.573.864-.49 1.083-1.714a37 37 0 0 0 4.758-1.837l1.14-3.306Zm-7.678.246-1.397.2-.662.656-1.086.159-.968.453-.47.227-.287.386 1.405.243.542-.49 1.083-.243c.74-.36 1.485-.604 2.272-.858Zm-6.385 2.937-.216.49.107 1.224-.864.736-.542 1.345h1.083l.541-1.222c.467-.33.93-.664 1.406-.982l1.083.37 2.163 1.468 1.082-.98-1.192-.489-.541-1.102-2.056-.246-.107-.612-.974.246-.432.856zm27.71.979-2.05.492-1.305.856v.735l-2.05 1.346.429 1.96 1.195-.858.754.858.864.49.542-1.469-.323-.858.323-.613L45.36 11h.54l-.54 1.624v1.102c.496-.135 1.008-.18 1.517-.243l-1.408.979-.107.612-1.622 1.345-1.627-.366v-.979l-.757.49.328 1.135h-1.192l-.648.822-.815.916-1.457.31.864.853.218.855h-1.082l-1.373.736v2.207h.615l.594.672 1.353-.672.539-1.348.976-.613.216-.49 1.621-.363.867.976.974.49-.542 1.102.867-.247.432-1.096-1.083-1.225h.435l1.083.853.216 1.225.97 1.102.217-1.594.544-.243c.535.555.955 1.387 1.405 2.011l1.622.123.976.436-.435.612-.973.891h-1.406l-1.84-.645-.973.12-.7.8-2.005-2.022-1.408-.366-2.056.243-1.84.49c-1.032 1.17-2.911 2.334-3.888 3.55l-1.19 2.818.542.61-.974 1.468 1.083 2.573c.92 1.04 2.699 2.08 3.617 3.12l1.356-1.162.594.676 1.457-.92.49.647h2.462l.837.852-.517 1.685 1.03 1.162-.054 2.02.758 1.472-.81 1.222c-.054.9-.054 1.795-.054 2.696.443 1.22 1.181 2.437 1.6 3.667l.414 1.96v.982h.178l.592-.736h1.026c.382-.266.75-.552 1.118-.836l1.37-1.55-.268-.796 1.408-1.228-1.03-1.16 1.246-1.039 1.05-.738.542-.607-.326-1.353V42.25l1.113-2.083 1.19-1.346 1.298-3.183v-.858c-.64.08-1.263.146-1.889.191l1.293-1.293 1.786-1.225.976-1.1V30.13l-.65-1.225-.867.979-.649-.733-.973-.736v-1.591l1.138 1.285 1.244-.183c.566.514 1.124 1.006 1.621 1.591l.123-.14c-.598-6.496-3.409-12.323-7.661-16.758-.235-.24-.483-.5-.676-.69-.323-.314-.662-.611-1-.91l-.307.503-1.083 1.225L47.742 11h1.405l.651-.457-2.598-.49zm-30.584.04c-.158.12-.32.234-.476.356l.214.952s-.99.108-1.562.183C7.64 16.209 4.007 23.643 4 31.975c.225.371.448.725.448.725l2.273 1.345 2.275.616.97 1.225 1.515 1.099.867-.12.648.292v.197l-.864 2.324-.65.982.215.49L11 42.983l2.103 3.552 1.39 1.712.863 1.222-.106 2.573 1.208 1.468-.358 1.553c1.248.86 2.58 1.605 3.964 2.256l.506-.503.323-.856 1.408-.492 1.299-2.693-.541-.733.754-1.523 1.424-.369.962-1.537-.311-2.445 1.977-1.837.218-1.838c-1.776-.88-4.019-1.786-5.782-2.693l-.867-1.714-1.621-.167-.864-2.024-2.163.244-1.84-2.14-1.95 2.006v.27c-.59-.17-1.313-.191-1.837-.514l-.435-1.225V33.19l-1.299.123.328-2.57h-.757l-.758.98-.757.365-1.083-.61-.11-1.347.217-1.469 1.624-1.225h1.296l.216-.735 1.624.366 1.05 1.471.218-2.45 2.197-1.711.757-2.35L17 21.973l.867-.707 1.947-.372.973-1.466h-2.92L19.706 18h1.296l1.84-.602.217-.732-.651-.613-.758-.246.22-.733-.542-1.102-1.3.487.217-.979-1.515-.856-1.187 2.081.107.736-1.192.489-.758 1.591-.322-1.468-2.057-.859-.325-1.101L15.7 12.5l1.193-1.102.106-1.345-.648-.37zm21.16.874-1.567.49-.709-.123h-.003l-.109.735 1.04.49 1.996-.859zm-15.582.923-.864.613 1.08.735h.867v-.858zm17.093 2.817v.735l.435.49v1.102l-.22 1.468 1.193-.243.864-.859-.757-.733a22 22 0 0 0-.864-1.96Zm-.43 1.468-.76.246.22 1.345.97-.486zm-14.93 2.207.324 1.709.648-.977zm28.25 9.545 1.247 1.408 1.46 3.12.864.982-.435 1.1.823.932c-.378.025-.754.052-1.143.052-.689-1.448-1.206-2.897-1.73-4.41l-1.202-1.04-.486-1.777z" opacity=".3"/><path fill="#fff" d="M32 4C16.488 4 4 16.488 4 32c0 .113.011.224.018.336C4.369 17.134 16.71 5 32 5s27.63 12.134 27.982 27.336c.007-.112.018-.223.018-.336C60 16.488 47.512 4 32 4" opacity=".1"/><path fill-rule="evenodd" d="M57.79 5.559c-4.961 2.046-9.618 4.752-14.27 7.407-3.894 2.421-7.948 4.745-11.202 8.02-1.766 1.93-3.74 3.966-4.058 6.695-.631 1.36-.035 2.43.953 3.355 1.177 1.389 2.346 2.915 3.858 3.917 2.544.208 5.153-.262 7.313-1.674 4.524-2.384 7.928-6.313 11.349-10.016 3.505-3.991 6.843-8.149 9.813-12.556.69-1.26 2.038-2.762 1.173-4.252-.824-1.49-2.8-1.78-4.275-1.123q-.328.11-.655.227" opacity=".2"/><path fill="#449b29" fill-rule="evenodd" d="M57.79 4.559c-4.961 2.046-9.618 4.752-14.27 7.407-3.894 2.421-7.948 4.745-11.202 8.02-1.766 1.93-3.74 3.966-4.058 6.695-.631 1.36-.035 2.43.953 3.355 1.177 1.389 2.346 2.915 3.858 3.917 2.544.208 5.153-.262 7.313-1.674 4.524-2.384 7.928-6.313 11.349-10.016 3.505-3.991 6.843-8.149 9.813-12.556.69-1.26 2.038-2.762 1.173-4.252-.824-1.49-2.8-1.78-4.275-1.123q-.328.11-.655.227"/><path fill="#fff" fill-rule="evenodd" d="M60.229 4.006a3.9 3.9 0 0 0-1.784.326q-.329.11-.656.227c-4.96 2.046-9.617 4.752-14.27 7.408-3.893 2.421-7.946 4.744-11.2 8.02-1.767 1.93-3.74 3.966-4.06 6.695-.268.578-.304 1.101-.193 1.586.043-.19.1-.384.194-.586.319-2.729 2.292-4.766 4.058-6.696 3.255-3.275 7.308-5.598 11.202-8.02 4.652-2.655 9.309-5.361 14.27-7.407q.326-.116.655-.227c1.475-.658 3.45-.366 4.274 1.123.102.176.167.352.213.527.108-.504.084-1.016-.213-1.527-.515-.93-1.48-1.394-2.49-1.45" opacity=".1"/><g transform="translate(8 -9)"><path fill-rule="evenodd" d="M17.568 35.006a2.67 2.67 0 0 0-2.5 2.115c-.496-.091-1.023-.082-1.537-.119v.004c-1.921-.069-3.485.578-4.617 1.627s-1.843 2.47-2.223 3.949c-.623 2.43-.663 5.922-1.14 8.504-.237 1.282-1.316 3.277-3.334 5.863-.22.371-.24.586-.203.73 2.394-3.137 9.084-6.97 8.38-9.868a2.803 2.803 0 1 1 2.803 2.802c-2.814-.032-7.47 4.709-10.484 7.387.218-.033.438-.114.582-.186 2.975-1.51 4.785-2.902 6.098-2.962 2.607-.12 5.647.314 8.123.027 1.608-.186 3.203-.456 4.423-1.572 1.175-1.075 1.958-2.281 2.04-4.315a2.66 2.66 0 0 0 1.654-.513 2.674 2.674 0 0 0 .568-3.749l-6.363-8.634a2.67 2.67 0 0 0-2.27-1.09" opacity=".2"/><path fill="#ffd53b" fill-rule="evenodd" d="M13.532 36.002v.003c-1.922-.069-3.485.58-4.618 1.628-1.132 1.05-1.843 2.47-2.222 3.95-.623 2.43-.664 5.921-1.141 8.504-.237 1.282-1.315 3.276-3.334 5.862-.22.371-.238.586-.202.73 2.394-3.137 9.084-6.971 8.38-9.869a2.803 2.803 0 1 1 2.803 2.803C10.384 49.58 5.726 54.322 2.712 57c.219-.033.44-.114.583-.186 2.976-1.51 4.786-2.902 6.098-2.963 2.607-.119 5.647.315 8.123.028 1.608-.187 3.203-.456 4.423-1.573s2.026-2.366 2.053-4.549c.002-.181.066-.483.082-.848s-.064-.908-.487-1.256c-.46-.378-.992-1.327-1.517-2.406s-.666-2.28-1.428-3.222l-.443-.547-.296.271a21 21 0 0 0-1.902-1.475c-.744-.508-1.335-.965-1.664-1.508-.772-.805-1.815-.692-2.805-.764"/><rect width="16.087" height="5.362" x="37.34" y="4.85" fill="#ffd53b" rx="2.681" ry="2.681" transform="rotate(53.61)"/><path fill="#fff" fill-rule="evenodd" d="M17.568 34.006a2.67 2.67 0 0 0-2.5 2.115c-.496-.091-1.023-.082-1.537-.119v.004c-1.921-.069-3.485.578-4.617 1.627s-1.843 2.47-2.223 3.949c-.623 2.43-.663 5.922-1.14 8.504-.237 1.282-1.316 3.277-3.334 5.863-.22.371-.24.586-.203.73.432-.566 1.028-1.16 1.672-1.763 1.073-1.61 1.695-2.91 1.865-3.83.477-2.582.517-6.075 1.14-8.504.38-1.48 1.09-2.9 2.223-3.95 1.132-1.048 2.696-1.695 4.617-1.626v-.004c.514.037 1.04.028 1.537.12a2.673 2.673 0 0 1 4.77-1.025l6.363 8.633c.247.336.396.71.469 1.092a2.66 2.66 0 0 0-.469-2.092l-6.363-8.634a2.67 2.67 0 0 0-2.27-1.09M15.95 47.31a2.8 2.8 0 0 1-2.752 2.302c-2.814-.032-7.47 4.709-10.484 7.387.218-.033.438-.114.582-.186.649-.329 1.22-.647 1.766-.953 2.752-2.505 5.98-5.273 8.136-5.248A2.803 2.803 0 0 0 16 47.811c0-.172-.021-.338-.05-.5m-5.508.027-.007.082z" opacity=".2"/></g></svg>