<svg xmlns="http://www.w3.org/2000/svg" viewBox="0 0 64 64"><circle cx="32" cy="33" r="28" opacity=".2"/><circle cx="32" cy="32" r="28" fill="#545151"/><path fill="#fff" d="M32 4A28 28 0 0 0 4 32a28 28 0 0 0 .021.586A28 28 0 0 1 32 5a28 28 0 0 1 27.979 27.414L60 32A28 28 0 0 0 32 4" opacity=".1"/><path d="M32.428 11.004a22.25 22.004 0 0 0-4.805.432A22.25 22.004 0 0 0 9.859 31.842l42.178-8.469a22.25 22.004 0 0 0-19.61-12.369m13.289 16.467-9.688 1.928a5 4.9 0 0 0 .084.697 5 4.9 0 0 0 5.897 3.826 5 4.9 0 0 0 3.904-5.777 5 4.9 0 0 0-.197-.674m-20.12 3.91-9.59 1.928a4.95 4.9 0 0 0 .085.697 4.95 4.9 0 0 0 5.836 3.828 4.95 4.9 0 0 0 3.865-5.777 4.95 4.9 0 0 0-.195-.676m28.643 2.777-42.177 8.47a22.25 22.004 0 0 0 24.414 11.937A22.25 22.004 0 0 0 54.24 34.158" opacity=".2"/><path fill="#fff" d="M32.428 10.004a22.25 22.004 0 0 0-4.805.432A22.25 22.004 0 0 0 9.859 30.842l42.178-8.469a22.25 22.004 0 0 0-19.61-12.37m13.29 16.467-9.688 1.927a5 4.9 0 0 0 .084.698 5 4.9 0 0 0 5.897 3.826 5 4.9 0 0 0 3.904-5.777 5 4.9 0 0 0-.197-.674m-20.12 3.91-9.59 1.928a4.95 4.9 0 0 0 .085.697 4.95 4.9 0 0 0 5.836 3.828 4.95 4.9 0 0 0 3.865-5.777 4.95 4.9 0 0 0-.195-.676m28.643 2.777-42.177 8.469a22.25 22.004 0 0 0 24.414 11.937A22.25 22.004 0 0 0 54.24 33.158"/></svg>