<svg xmlns="http://www.w3.org/2000/svg" viewBox="0 0 64 64"><rect width="56" height="56" x="4" y="4" fill="#d92929" rx="3" ry="3"/><path fill="#fff" d="M7 4C5.338 4 4 5.338 4 7v1c0-1.662 1.338-3 3-3h50c1.662 0 3 1.338 3 3V7c0-1.662-1.338-3-3-3z" opacity=".1"/><path d="M4 57v1c0 1.662 1.338 3 3 3h50c1.662 0 3-1.338 3-3v-1c0 1.662-1.338 3-3 3H7c-1.662 0-3-1.338-3-3" opacity=".2"/><g fill="none" stroke="#000" stroke-linecap="round" stroke-linejoin="round" stroke-width="2" opacity=".2"><path stroke-width="2.001" d="M6 12.999h7.506L6.5 22l8.005.003" transform="matrix(1.99862 0 0 1.99906 .007 1.014)"/><path d="M25 22s-8.038.315-8-6 8-6 8-6" transform="matrix(1.99862 0 0 1.99906 .007 1.014)"/></g><path fill="none" stroke="#ff895e" stroke-linecap="round" stroke-linejoin="round" stroke-width="2" d="M6 12.999h7.506L6.5 22l8.005.003M25 22s-8.038.315-8-6 8-6 8-6" transform="matrix(1.99862 0 0 1.99906 .007 .015)"/></svg>