<svg xmlns="http://www.w3.org/2000/svg" viewBox="0 0 64 64"><rect width="56" height="56" x="4" y="4" fill="#d92929" rx="3" ry="3"/><path fill="#fff" d="M7 4C5.338 4 4 5.338 4 7v1c0-1.662 1.338-3 3-3h50c1.662 0 3 1.338 3 3V7c0-1.662-1.338-3-3-3z" opacity=".1"/><path d="M4 57v1c0 1.662 1.338 3 3 3h50c1.662 0 3-1.338 3-3v-1c0 1.662-1.338 3-3 3H7c-1.662 0-3-1.338-3-3" opacity=".2"/><path fill="none" stroke="#000" stroke-linecap="round" stroke-linejoin="round" stroke-width="4" d="M12.028 27H27L13 44.972h16m5 0v-24l9 14 9-14v23.972" opacity=".2"/><path fill="none" stroke="#ff895e" stroke-linecap="round" stroke-linejoin="round" stroke-width="4" d="M12.028 26H27L13 43.972h16m5 0v-24l9 14 9-14v23.972"/></svg>