<svg xmlns="http://www.w3.org/2000/svg" viewBox="0 0 64 64"><path d="M12.055 7a8 8 0 0 0-4.8 14.441l8.671 6.39L5.344 43.708a8 8 0 0 0 6.086 12.417l40 2.856a8 8 0 0 0 5.157-14.535l-9.43-6.602 11.036-13.492a8 8 0 0 0-5.34-13.019l-40-4.285A8 8 0 0 0 12.054 7" opacity=".2"/><path fill="#4f4f4f" d="M12.055 6a8 8 0 0 0-4.8 14.441l8.671 6.39L5.344 42.708a8 8 0 0 0 6.086 12.417l40 2.856a8 8 0 0 0 5.157-14.535l-9.43-6.602 11.036-13.492a8 8 0 0 0-5.34-13.019l-40-4.285A8 8 0 0 0 12.054 6"/><path d="M12 48.143 23.429 31 52 51Z" opacity=".2"/><path fill="#1bd9a5" d="M12 47.143 23.429 30 52 50Z"/><path d="m12 15 40 4.285L39.143 35Z" opacity=".2"/><path fill="#1cadf4" d="m12 14 40 4.285L39.143 34Z"/><path fill="#fff" d="M12.055 6a8 8 0 0 0-8.034 8.447A8 8 0 0 1 12.055 7a8 8 0 0 1 .797.047l40.002 4.285a8 8 0 0 1 7.123 7.488 8 8 0 0 0-7.123-8.488L12.852 6.047A8 8 0 0 0 12.055 6m3.424 21.502L5.344 42.707a8 8 0 0 0-1.319 4.908 8 8 0 0 1 1.319-3.908l10.582-15.875zm32.199 9.705-.52.637 9.43 6.601a8 8 0 0 1 3.392 6.028 8 8 0 0 0-3.392-7.028z" opacity=".1"/><path fill="#fff" d="M23.428 30 12 47.143l.637.044L23.427 31l26.981 18.887L52 50zM12 14l1.588 1.17 37.66 4.035.752-.92z" opacity=".1"/></svg>