<svg xmlns="http://www.w3.org/2000/svg" xml:space="preserve" fill-rule="evenodd" stroke-linejoin="round" stroke-miterlimit="1.414" clip-rule="evenodd" viewBox="0 0 24 24"><path fill="#ec407a" fill-rule="nonzero" d="M10 4H4c-1.11 0-2 .89-2 2v12c0 1.097.903 2 2 2h16c1.097 0 2-.903 2-2V8a2 2 0 0 0-2-2h-8z" data-folderColor="GraphQL"/><g fill="#f8bbd0" stroke="#f8bbd0" stroke-width=".371" data-folderIconColor="GraphQL"><path d="m11.681 19.247-.55-.318 6.134-10.625.55.318z"/><path d="M11.004 18.08h12.269v.636H11.004z"/><path d="m17.384 21.98-6.137-3.543.318-.55 6.137 3.543zm5.331-9.234-6.137-3.543.318-.55 6.136 3.542z"/><path d="m11.567 12.744-.318-.551 6.136-3.543.318.55z"/><path d="M22.601 19.247 16.467 8.622l.55-.318 6.135 10.625zM11.49 11.771h.637v7.087h-.636z"/><path d="M22.154 11.771h.636v7.087h-.636z"/><path d="m17.276 21.711-.278-.48 5.337-3.082.278.48z"/><path d="M23.633 19.064a1.339 1.339 0 0 1-2.317-1.336 1.339 1.339 0 0 1 2.317 1.336m-10.671-6.163a1.339 1.339 0 0 1-2.318-1.336 1.339 1.339 0 0 1 2.318 1.336m-2.314 6.163a1.34 1.34 0 0 1 .49-1.827 1.34 1.34 0 0 1 1.827.49 1.338 1.338 0 0 1-2.317 1.337m10.672-6.163a1.34 1.34 0 0 1 .49-1.827 1.34 1.34 0 0 1 1.827.49 1.339 1.339 0 0 1-2.317 1.337m-4.18 9.913a1.336 1.336 0 1 1 1.337-1.337c0 .736-.597 1.337-1.337 1.337m0-12.326c-.739 0-1.336-.597-1.336-1.337s.597-1.336 1.336-1.336a1.336 1.336 0 1 1 0 2.673"/></g></svg>