<svg xmlns="http://www.w3.org/2000/svg" fill-rule="evenodd" stroke-linejoin="round" stroke-miterlimit="1.414" clip-rule="evenodd" viewBox="0 0 24 24"><path fill="#ad1457" fill-rule="nonzero" d="M10 4H4c-1.11 0-2 .89-2 2v12c0 1.097.903 2 2 2h16c1.097 0 2-.903 2-2V8a2 2 0 0 0-2-2h-8z" data-folderColor="Storybook"/><path fill="#f48fb1" fill-rule="nonzero" d="m23.16 8.868-.895.067v1.755l-.798-.342-.797.342V9.053l-6.18.456.532 11.232 8.14.39zm-4.186 2.311c1.52 0 2.394.83 2.351 2.512l-1.735.043c.031-.906-.356-.992-.572-.992-.204 0-.55.064-.55.55 0 1.196 2.953 1.13 2.953 3.545 0 1.359-1.056 1.984-2.403 1.984-1.39 0-2.608-.474-2.469-2.555h1.822c-.022.84.162 1.144.625 1.144.356 0 .518-.206.518-.551 0-1.229-2.91-1.272-2.91-3.525 0-1.293.851-2.155 2.37-2.155m-5.186-1.67h-.948l.398 11.232h1.083z" data-folderIconColor="Storybook"/></svg>