<svg xmlns="http://www.w3.org/2000/svg" xml:space="preserve" fill-rule="evenodd" stroke-linejoin="round" stroke-miterlimit="1.414" clip-rule="evenodd" viewBox="0 0 24 24"><path fill="#039be5" fill-rule="nonzero" d="M10 4H4c-1.11 0-2 .89-2 2v12c0 1.097.903 2 2 2h16c1.097 0 2-.903 2-2V8a2 2 0 0 0-2-2h-8z" data-folderColor="Queue"/><g fill="#b3e5fc" stroke-miterlimit="3.7" stroke-width="190.6" data-folderIconColor="Queue"><path d="M17.042 9.092c-.067.01-.2.055-.295.094-.286.123-5.474 2.872-5.573 2.95-.224.188-.297.581-.165.867a.6.6 0 0 0 .148.199c.098.071 5.52 2.513 5.74 2.582.18.059.42.05.637-.027.238-.084 5.577-2.489 5.66-2.55.124-.091.193-.259.202-.49.013-.26-.051-.44-.199-.568-.103-.086-5.388-2.892-5.649-2.998a.93.93 0 0 0-.506-.059m2.741 2.018c1.493.802 2.715 1.539 2.715 1.549.003.01-1.116.538-2.606 1.167l-2.712 1.141-2.7-1.136c-1.486-.627-2.591-1.174-2.594-1.187-.002-.015 1.098-.655 2.584-1.454 1.482-.802 2.7-1.458 2.7-1.458s1.123.576 2.613 1.378"/><path d="M17.162 16.058q-.175 0-.337-.051c-.041-.013-.066-.024-.118-.046l-.209-.09-.672-.295a405 405 0 0 1-4.693-2.123l-.058-.029c-.016-.008-.013-.002-.056-.032l-.001-.001a.7.7 0 0 1-.22-.289h-.001c-.182-.39-.102-.87.227-1.145l.004-.003c.036-.029.036-.025.05-.034l.057-.032.183-.101c.153-.084.365-.198.617-.334a430 430 0 0 1 4.387-2.317c.17-.087.27-.138.332-.165l.004-.002c.108-.044.226-.09.348-.108a1.16 1.16 0 0 1 .63.073c.073.03.162.077.333.165a387 387 0 0 1 5.08 2.696l.244.138c.016.009.017.005.054.036l.004.003c.204.177.294.452.28.756-.012.272-.097.52-.297.667-.05.037-.041.026-.056.033l-.056.028-.186.087-.63.29a464 464 0 0 1-4.47 2.008c-.17.074-.258.114-.325.137-.147.052-.3.08-.45.08m-.034-.473a.9.9 0 0 0 .328-.05c-.007.003.124-.05.292-.124a479 479 0 0 0 5.09-2.293l.225-.106c.044-.038.092-.126.1-.305.01-.21-.026-.296-.11-.372h-.001l-.048-.029-.181-.1a378 378 0 0 0-5.068-2.69c-.169-.087-.301-.15-.295-.147a.7.7 0 0 0-.377-.046l-.007.001c-.01.002-.155.044-.238.078-.01.005-.134.065-.301.151l-.659.343a436 436 0 0 0-4.513 2.4l-.048.028c-.114.105-.177.403-.095.58.016.035.067.094.076.107l.04.02.184.087a410 410 0 0 0 5.163 2.323l.203.087.079.032.003.001a.6.6 0 0 0 .158.024m.083-.385a.23.23 0 0 1-.122-.016l-2.7-1.137a53 53 0 0 1-2.41-1.09l-.195-.1-.02-.013-.022-.015q-.008-.005-.025-.023c-.017-.018-.042-.022-.06-.116l-.002-.007c-.016-.096.017-.137.03-.16s.023-.032.03-.04a.1.1 0 0 1 .026-.024c.012-.01.018-.013.025-.018q.019-.014.045-.03l.15-.09a94 94 0 0 1 2.398-1.338q0 .001 0 0l2.7-1.457a.23.23 0 0 1 .218-.003s1.125.578 2.617 1.38a68 68 0 0 1 2.51 1.421l.228.142.018.013.022.023q.008.007.026.034c.01.016.027.038.033.09.023.123-.036.164-.053.184s-.027.027-.034.032c-.014.012-.02.015-.024.018l-.022.013-.045.022-.15.073a76 76 0 0 1-2.42 1.074l-2.713 1.142a.2.2 0 0 1-.06.016m-.031-.487L19.8 13.61a75 75 0 0 0 2.209-.975 68 68 0 0 0-2.338-1.318 170 170 0 0 0-2.5-1.32l-2.591 1.4a93 93 0 0 0-2.211 1.228 53 53 0 0 0 2.2.99zm5.091-1.998a.2.2 0 0 1-.007-.056.3.3 0 0 0 .007.056"/><path d="M10.894 14.948c.034.351.12.607.243.735.067.066.627.33 2.885 1.343a167 167 0 0 0 2.9 1.284c.167.044.393.031.585-.032s5.51-2.447 5.641-2.529c.118-.07.241-.341.288-.632.066-.388.096-.373-.322-.164-.202.098-1.619.757-3.148 1.463L17.18 17.7l-2.784-1.284a295 295 0 0 1-3.153-1.466l-.366-.182z"/><path d="M17.127 18.572a1 1 0 0 1-.266-.036h-.001c-.04-.011-.036-.012-.05-.018l-.057-.024q-.068-.028-.184-.08l-.635-.278a447 447 0 0 1-4.275-1.924 15 15 0 0 1-.467-.225c-.103-.053-.142-.06-.22-.138l-.004-.003c-.193-.201-.27-.497-.307-.875l-.018-.18a.234.234 0 0 1 .338-.233l.366.182c.175.087 1.615.757 3.147 1.463l2.686 1.239 2.688-1.239c1.528-.705 2.958-1.37 3.142-1.46.102-.052.177-.091.244-.121a.6.6 0 0 1 .108-.04.27.27 0 0 1 .201.02.3.3 0 0 1 .142.2c.009.054.004.088 0 .122-.007.07-.022.139-.038.233v-.002a1.8 1.8 0 0 1-.135.458c-.061.134-.122.252-.262.336-.049.03-.057.03-.104.053l-.192.09-.639.291a492 492 0 0 1-4.643 2.072c-.051.022-.073.032-.111.045a1.4 1.4 0 0 1-.454.072m.005-.472a1 1 0 0 0 .3-.045c-.014.005.029-.01.077-.031l.196-.085c.164-.071.387-.17.65-.286a503 503 0 0 0 4.61-2.074l.058-.03c.002-.007.048-.056.082-.13.03-.067.06-.151.08-.24-.264.127-1.623.759-3.121 1.45l-2.786 1.284a.23.23 0 0 1-.197 0l-2.783-1.284a298 298 0 0 1-3.13-1.455c.036.162.086.275.123.328.013.007.056.038.114.068.093.047.238.117.452.217a449 449 0 0 0 4.899 2.198l.228.098.006.002q.058.013.142.015m5.892-2.55.003-.001z"/><path d="M10.896 17.466c.035.366.15.676.29.782.087.062 5.519 2.508 5.698 2.565.155.05.404.047.578-.005.165-.047 5.593-2.476 5.698-2.55.145-.101.263-.416.303-.802l.017-.18-.425.212c-.448.226-5.839 2.718-5.875 2.718s-5.78-2.654-6.048-2.794l-.253-.135z"/><path d="M17.17 21.087a1.1 1.1 0 0 1-.356-.05c-.046-.015-.063-.024-.114-.046l-.202-.087-.663-.293a485 485 0 0 1-4.673-2.113l-.057-.028c-.015-.008-.008.002-.055-.031l-.005-.004c-.133-.1-.203-.238-.263-.399-.06-.16-.1-.347-.119-.548l-.017-.19a.234.234 0 0 1 .344-.228l.251.134c.032.017.467.223 1.043.491a821 821 0 0 0 4.896 2.256l.148-.067.625-.284c.517-.237 1.208-.556 1.912-.881a262 262 0 0 0 3.084-1.44h.001l.426-.212a.234.234 0 0 1 .337.232l-.017.18a2.3 2.3 0 0 1-.125.568c-.062.164-.135.305-.277.403-.037.026-.037.023-.053.03l-.059.03-.192.09c-.16.073-.381.175-.645.294a425 425 0 0 1-4.702 2.095c-.05.02-.06.028-.116.044a1.3 1.3 0 0 1-.358.054m-.007-.477a1 1 0 0 0 .233-.027h.002c-.036.01.017-.007.064-.027l.195-.083c.164-.07.39-.17.656-.287a427 427 0 0 0 4.666-2.1l.05-.023a.6.6 0 0 0 .103-.182q.032-.085.058-.198l-.03.014c-.252.128-1.69.796-3.098 1.447a639 639 0 0 1-2.541 1.168l-.252.11-.016.006c-.008.002.01.012-.073.012-.088 0-.068-.01-.075-.012l-.015-.006-.076-.032-.19-.085-.665-.303a752 752 0 0 1-4.073-1.882c-.422-.197-.737-.343-.917-.43q.023.103.053.183a.6.6 0 0 0 .1.182l.042.02.183.086.638.292a490 490 0 0 0 4.698 2.107c.049.02.095.037.072.03.042.013.123.02.208.02m.087-.628c0-.002.003-.006-.02-.009zm-.14-.001.018-.008c-.017.003-.016.006-.017.008"/></g></svg>