<svg xmlns="http://www.w3.org/2000/svg" xml:space="preserve" viewBox="0 0 24 24"><path fill="#0288d1" d="M10 4H4c-1.11 0-2 .89-2 2v12c0 1.097.903 2 2 2h16c1.097 0 2-.903 2-2V8a2 2 0 0 0-2-2h-8z" data-folderColor="Helm"/><path fill="#b2ebf2" d="M17.332 21.14c-.09-.063-.198-.271-.26-.504-.054-.206-.074-.75-.038-1.018a1 1 0 0 0 .017-.188 2 2 0 0 0-.187-.029 4.6 4.6 0 0 1-1.643-.523c-.098-.055-.19-.1-.205-.1s-.064.073-.111.164c-.218.42-.6.838-.89.974-.106.05-.247.061-.312.026-.098-.052-.127-.261-.069-.492.04-.158.202-.491.333-.686.058-.086.173-.232.254-.324l.15-.167-.078-.075c-.205-.195-.589-.647-.589-.692 0-.016.524-.38.562-.39.02-.006.067.04.13.128.138.19.506.553.723.714 1.651 1.228 3.98.92 5.233-.693a.7.7 0 0 1 .144-.156c.025 0 .543.352.561.381.017.026-.21.32-.404.524a1.5 1.5 0 0 0-.167.193c0 .01.073.094.16.187.28.295.556.755.632 1.056.06.231.03.44-.068.492a.3.3 0 0 1-.126.02c-.301 0-.801-.484-1.098-1.062a1 1 0 0 0-.122-.203.7.7 0 0 0-.13.07c-.43.277-1.074.515-1.631.605a1.4 1.4 0 0 0-.237.051c-.015.012-.013.068.007.193.036.224.022.754-.026.97-.049.22-.124.392-.218.494-.107.117-.19.134-.297.06m-5.926-4.518a74 74 0 0 1-.004-1.633l.005-1.608h.842l.006.592c.004.443.011.596.03.608.014.008.224.015.469.016.345 0 .449-.006.466-.027q.022-.026.027-.608l.006-.58h.842v3.255h-.842l-.006-.621c-.003-.418-.012-.63-.027-.649-.017-.02-.121-.026-.469-.026s-.451.006-.469.026c-.015.018-.024.231-.027.649l-.006.62-.416.006c-.323.005-.42 0-.427-.02m3.411 0a71 71 0 0 1-.004-1.633l.005-1.608h2.087l.01.713-1.234.01-.006.24c-.004.178 0 .244.02.256a5 5 0 0 0 .533.017h.507l-.006.357-.005.357-1.043.02v.562l1.284.02v.704l-1.07.005c-.844.004-1.07 0-1.078-.02m2.81 0a71 71 0 0 1-.005-1.633l.005-1.608h.843l.02 2.532 1.224.02v.704l-1.04.005c-.82.004-1.04 0-1.048-.02m2.668 0a72 72 0 0 1-.005-1.633l.005-1.608.442-.005c.243-.003.451.002.463.01.03.02.476 1.234.574 1.563.102.342.094.321.118.298.01-.01.058-.146.105-.3.104-.34.515-1.516.542-1.551.015-.02.123-.024.463-.02l.444.005v3.256l-.376.005-.376.006-.013-.053c-.028-.11.01-1.274.051-1.606.066-.523.056-.531-.1-.08-.167.487-.5 1.382-.532 1.431-.028.043-.044.046-.238.046-.142 0-.213-.008-.227-.025-.025-.032-.434-1.147-.546-1.487-.08-.24-.122-.327-.12-.243 0 .02.018.186.04.368.042.342.079 1.487.051 1.595l-.013.053h-.371c-.28 0-.374-.006-.381-.025m.265-3.712a4 4 0 0 0-.446-.562c-.542-.57-1.194-.93-1.996-1.102-.229-.05-.29-.054-.712-.055-.497 0-.606.012-.991.112a3.7 3.7 0 0 0-1.417.722 4.7 4.7 0 0 0-.662.698c-.084.12-.127.163-.15.155-.072-.028-.562-.357-.562-.378 0-.048.33-.461.555-.695l.231-.242-.153-.166c-.28-.304-.548-.756-.623-1.05-.059-.231-.03-.44.069-.493a.3.3 0 0 1 .125-.02c.302 0 .802.485 1.098 1.063.057.112.111.203.12.203s.087-.04.174-.09c.448-.256 1.168-.484 1.658-.526a1 1 0 0 0 .177-.027c.018-.011.015-.065-.01-.22-.049-.285-.034-.844.028-1.077.097-.368.253-.574.412-.544.148.028.292.27.366.617.05.227.05.864.003 1.073a.4.4 0 0 0-.02.155c.008.007.104.028.214.045.64.1 1.124.28 1.719.633.04.024.078.035.084.025s.061-.117.122-.24c.235-.47.614-.897.924-1.043.106-.05.247-.062.312-.027.099.053.128.262.07.493-.044.169-.209.502-.356.719-.07.1-.21.268-.312.371l-.186.188.183.195c.185.196.512.614.571.73.027.052.028.066.006.087-.046.042-.54.332-.565.332-.014 0-.04-.027-.06-.06" data-folderIconColor="Helm"/></svg>