<svg xmlns="http://www.w3.org/2000/svg" xml:space="preserve" viewBox="0 0 24 24"><path fill="#f26b00" d="M10 4H4c-1.11 0-2 .89-2 2v12c0 1.097.903 2 2 2h16c1.097 0 2-.903 2-2V8a2 2 0 0 0-2-2h-8z" data-folderColor="Svelte"/><path fill="#ffe0b2" d="M18.797 11.216c-.652.013-1.3.194-1.874.56l-2.927 1.865a3.36 3.36 0 0 0-1.518 2.245 3.54 3.54 0 0 0 .348 2.272 3.4 3.4 0 0 0-.502 1.256 3.58 3.58 0 0 0 .612 2.707c1.167 1.67 3.473 2.166 5.14 1.104l2.928-1.858a3.37 3.37 0 0 0 1.518-2.245 3.54 3.54 0 0 0-.35-2.271 3.4 3.4 0 0 0 .504-1.256 3.58 3.58 0 0 0-.612-2.707v-.01a3.91 3.91 0 0 0-3.267-1.662m.257 1.434a2.33 2.33 0 0 1 1.804.999 2.15 2.15 0 0 1 .369 1.628 2 2 0 0 1-.07.272l-.056.169-.15-.112a3.8 3.8 0 0 0-1.145-.573l-.112-.032.01-.113a.66.66 0 0 0-.119-.435.7.7 0 0 0-.747-.27.6.6 0 0 0-.18.078l-2.929 1.862a.6.6 0 0 0-.275.408.66.66 0 0 0 .112.491.7.7 0 0 0 .747.279.7.7 0 0 0 .18-.079l1.122-.711a2.1 2.1 0 0 1 .595-.262 2.32 2.32 0 0 1 2.496.925 2.15 2.15 0 0 1 .368 1.628 2.02 2.02 0 0 1-.913 1.354l-2.929 1.866a2.2 2.2 0 0 1-.595.261 2.33 2.33 0 0 1-2.497-.926 2.15 2.15 0 0 1-.367-1.628 2 2 0 0 1 .07-.27l.055-.169.15.112a3.8 3.8 0 0 0 1.142.568l.112.033-.01.112a.66.66 0 0 0 .123.433.7.7 0 0 0 .752.278.7.7 0 0 0 .18-.079l2.923-1.865a.6.6 0 0 0 .275-.41.65.65 0 0 0-.112-.49.7.7 0 0 0-.753-.278.6.6 0 0 0-.18.078l-1.122.713a2.1 2.1 0 0 1-.594.26 2.33 2.33 0 0 1-2.492-.924 2.15 2.15 0 0 1-.365-1.628 2.02 2.02 0 0 1 .913-1.354l2.932-1.866a2.1 2.1 0 0 1 .59-.26 2.3 2.3 0 0 1 .692-.073" data-folderIconColor="Svelte"/></svg>