<svg xmlns="http://www.w3.org/2000/svg" fill-rule="evenodd" stroke-linejoin="round" stroke-miterlimit="1.41" clip-rule="evenodd" viewBox="0 0 24 24"><path fill="#d81b60" fill-rule="nonzero" d="M10 4H4c-1.11 0-2 .89-2 2v12c0 1.1.9 2 2 2h16c1.1 0 2-.9 2-2V8a2 2 0 0 0-2-2h-8z" data-folderColor="Turborepo"/><g fill="#f8bbd0" data-folderIconColor="Turborepo"><path d="M16.97 13.21a3.765 3.765 0 1 0 .01 7.525 3.765 3.765 0 0 0-.01-7.525m0 5.705a1.945 1.945 0 1 1 0-3.89 1.945 1.945 0 0 1 0 3.89"/><path d="M17.285 12.595V11.19a5.79 5.79 0 0 1 0 11.56v-1.4a4.395 4.395 0 0 0 0-8.755m-3.63 7.245a4.37 4.37 0 0 1-1.06-2.555H11.19c.075 1.36.615 2.6 1.47 3.55zm3 2.91v-1.4a4.37 4.37 0 0 1-2.555-1.065l-1 .995c.95.85 2.19 1.4 3.55 1.47Z"/></g></svg>