<svg xmlns="http://www.w3.org/2000/svg" xmlns:xlink="http://www.w3.org/1999/xlink" fill-rule="evenodd" stroke-linejoin="round" stroke-miterlimit="1.414" clip-rule="evenodd" viewBox="0 0 24 24"><defs><mask id="a"><path fill="#fff" d="M15.234 8.771a1.5 1.5 0 0 0-1.5 1.5v9a1.5 1.5 0 0 0 1.5 1.5h7a1.5 1.5 0 0 0 1.5-1.5v-9a1.5 1.5 0 0 0-1.5-1.5z"/><path d="M16.4 10.4v5.2H18v4.3l3.8-5.7h-2.2l2.2-3.8z"/></mask></defs><path fill="#009688" fill-rule="nonzero" d="M10 4H4c-1.11 0-2 .89-2 2v12c0 1.097.903 2 2 2h16c1.097 0 2-.903 2-2V8a2 2 0 0 0-2-2h-8z" data-folderColor="Vitepress"/><g mask="url(#a)"><path fill="#c8e6c9" d="M15.234 8.771a1.5 1.5 0 0 0-1.5 1.5v9a1.5 1.5 0 0 0 1.5 1.5h7a1.5 1.5 0 0 0 1.5-1.5v-9a1.5 1.5 0 0 0-1.5-1.5z" data-folderIconColor="Vitepress"/><path fill="#009688" d="M16.4 10.4v5.2H18v4.3l3.8-5.7h-2.2l2.2-3.8z"/></g></svg>