<svg xmlns="http://www.w3.org/2000/svg" xml:space="preserve" fill-rule="evenodd" stroke-linejoin="round" stroke-miterlimit="1.414" clip-rule="evenodd" viewBox="0 0 24 24"><path fill="#fbc02d" d="M10 4H4c-1.11 0-2 .89-2 2v12c0 1.097.903 2 2 2h16c1.097 0 2-.903 2-2V8a2 2 0 0 0-2-2h-8z" data-folderColor="Elastic"/><path fill="#fff9c4" d="m14.38 14.945 3.322 1.514 3.35-2.937a3.5 3.5 0 0 0 .071-.738 3.742 3.742 0 0 0-6.83-2.116l-.56 2.892Zm-3.437 3.515a3.6 3.6 0 0 0-.07.75 3.757 3.757 0 0 0 6.862 2.11l.55-2.88-.735-1.41-3.335-1.52Zm-.019-5.747 2.276.537.5-2.584a1.797 1.797 0 0 0-2.776 2.047m-.199.546a2.508 2.508 0 0 0-.109 4.726L13.81 15.1l-.584-1.25Zm7.587 8.061a1.795 1.795 0 0 0 2.77-2.047l-2.27-.532Zm.462-3.175 2.5.584a2.508 2.508 0 0 0 .11-4.729l-3.27 2.867Z" data-folderIconColor="Elastic"/></svg>