<svg xmlns="http://www.w3.org/2000/svg" xml:space="preserve" fill-rule="evenodd" stroke-linejoin="round" stroke-miterlimit="1.414" clip-rule="evenodd" viewBox="0 0 24 24"><path fill="#039be5" fill-rule="nonzero" d="M10 4H4c-1.11 0-2 .89-2 2v12c0 1.097.903 2 2 2h16c1.097 0 2-.903 2-2V8a2 2 0 0 0-2-2h-8z" data-folderColor="Docker"/><path fill="#b3e5fc" d="M11.755 19.104c-.435 0-.83-.356-.83-.79s.356-.79.83-.79.829.356.829.79-.395.79-.83.79m10.19-4.305c-.08-.632-.474-1.145-.988-1.54l-.197-.158-.158.198c-.316.355-.435.987-.395 1.46.04.356.158.712.355.988-.158.08-.355.158-.513.237-.356.119-.711.158-1.066.158H8.753l-.04.237c-.078.75.04 1.54.356 2.25l.158.277v.04c.948 1.58 2.646 2.29 4.502 2.29 3.554 0 6.477-1.54 7.859-4.857.908.04 1.817-.197 2.251-1.066l.118-.198-.197-.118c-.513-.316-1.224-.356-1.817-.198m-5.094-.632h-1.54v1.54h1.54zm0-1.935h-1.54v1.54h1.54zm0-1.974h-1.54v1.54h1.54zm1.896 3.91h-1.54v1.54h1.54zm-5.727 0h-1.54v1.54h1.54zm1.935 0h-1.54v1.54h1.54zm-3.83 0h-1.54v1.54h1.54zm3.83-1.936h-1.54v1.54h1.54zm-1.935 0h-1.54v1.54h1.54z" data-folderIconColor="Docker"/></svg>